<?xml version="1.0" encoding="UTF-8"?>
<svg width="48px" height="48px" viewBox="0 0 48 48" version="1.1" xmlns="http://www.w3.org/2000/svg" xmlns:xlink="http://www.w3.org/1999/xlink">
    <title>Icon-Resource/IoT/Res_IoT_Thing_Police-Emergency_48_Dark</title>
    <g id="Icon-Resource/IoT/Res_IoT_Thing_Police-Emergency_48" stroke="none" stroke-width="1" fill="none" fill-rule="evenodd">
        <path transform="translate(12.000000, 8.000000), scale(.65)" d="M23.9929,34.2149 C23.0979,33.6349 21.3109,32.6249 19.2339,32.2519 C17.9239,32.0169 14.8759,31.1899 14.8759,28.6049 C14.8759,27.4659 15.3049,26.7269 15.8019,25.8699 C16.2929,25.0229 16.8499,24.0639 16.8499,22.7539 C16.8499,21.1179 16.0889,19.8679 15.4889,19.1389 C16.0019,18.5139 16.7619,17.5839 17.3369,16.8599 C18.3549,17.6509 19.4949,18.0769 20.6329,18.0769 C21.9229,18.0769 23.0119,17.6349 23.9929,16.6979 C24.9749,17.6349 26.0629,18.0769 27.3539,18.0769 C28.4909,18.0769 29.6319,17.6509 30.6479,16.8599 C31.2249,17.5839 31.9829,18.5139 32.4959,19.1389 C31.8969,19.8679 31.1359,21.1179 31.1359,22.7539 C31.1359,24.0639 31.6919,25.0229 32.1839,25.8699 C32.6809,26.7269 33.1099,27.4659 33.1099,28.6049 C33.1099,31.1899 30.0619,32.0169 28.7509,32.2519 C26.6759,32.6249 24.8889,33.6349 23.9929,34.2149 Z M35.2459,19.3309 L34.6039,18.5519 C34.5779,18.5229 32.1349,15.5609 31.5819,14.8039 L30.8699,13.8259 L30.0439,14.7099 C29.2199,15.5919 28.2639,16.0769 27.3539,16.0769 C26.6469,16.0769 25.7909,15.8999 24.7869,14.5889 L23.9929,13.5509 L23.1989,14.5889 C22.1949,15.8999 21.3389,16.0769 20.6329,16.0769 C19.7219,16.0769 18.7659,15.5919 17.9409,14.7099 L17.1149,13.8249 L16.4019,14.8039 C15.8519,15.5609 13.4069,18.5219 13.3819,18.5519 L12.7519,19.3249 L13.5199,19.9619 C13.5329,19.9739 14.8499,21.0849 14.8499,22.7539 C14.8499,23.5259 14.5069,24.1169 14.0719,24.8659 C13.5389,25.7839 12.8759,26.9269 12.8759,28.6049 C12.8759,31.4459 15.1209,33.5459 18.8809,34.2209 C21.3109,34.6559 23.3639,36.2089 23.3849,36.2249 L23.9939,36.6879 L24.6019,36.2249 C24.6219,36.2089 26.6759,34.6559 29.1049,34.2209 C32.8649,33.5459 35.1099,31.4459 35.1099,28.6049 C35.1099,26.9269 34.4459,25.7839 33.9129,24.8659 C33.4789,24.1169 33.1359,23.5259 33.1359,22.7539 C33.1359,21.0849 34.4519,19.9739 34.4609,19.9659 L35.2459,19.3309 Z M39.7059,38.5739 C39.7059,39.1999 39.1969,39.7089 38.5709,39.7089 L9.4139,39.7089 C8.7879,39.7089 8.2789,39.1999 8.2789,38.5739 L8.2789,9.4289 C8.2789,8.8029 8.7879,8.2939 9.4139,8.2939 L38.5709,8.2939 C39.1969,8.2939 39.7059,8.8029 39.7059,9.4289 L39.7059,38.5739 Z M45.9859,14.4369 L45.9859,12.4369 L41.7059,12.4369 L41.7059,9.4289 C41.7059,7.6999 40.2999,6.2939 38.5709,6.2939 L35.5499,6.2939 L35.5499,1.9999 L33.5499,1.9999 L33.5499,6.2939 L30.2719,6.2939 L30.2719,1.9999 L28.2719,1.9999 L28.2719,6.2939 L24.9929,6.2939 L24.9929,1.9999 L22.9929,1.9999 L22.9929,6.2939 L19.7149,6.2939 L19.7149,1.9999 L17.7149,1.9999 L17.7149,6.2939 L14.4369,6.2939 L14.4369,1.9999 L12.4369,1.9999 L12.4369,6.2939 L9.4139,6.2939 C7.6859,6.2939 6.2789,7.6999 6.2789,9.4289 L6.2789,12.4369 L1.9999,12.4369 L1.9999,14.4369 L6.2789,14.4369 L6.2789,17.7159 L1.9999,17.7159 L1.9999,19.7159 L6.2789,19.7159 L6.2789,22.9939 L1.9999,22.9939 L1.9999,24.9939 L6.2789,24.9939 L6.2789,28.2729 L1.9999,28.2729 L1.9999,30.2729 L6.2789,30.2729 L6.2789,33.5509 L1.9999,33.5509 L1.9999,35.5509 L6.2789,35.5509 L6.2789,38.5739 C6.2789,40.3029 7.6859,41.7089 9.4139,41.7089 L12.4369,41.7089 L12.4369,45.9869 L14.4369,45.9869 L14.4369,41.7089 L17.7149,41.7089 L17.7149,45.9869 L19.7149,45.9869 L19.7149,41.7089 L22.9929,41.7089 L22.9929,45.9869 L24.9929,45.9869 L24.9929,41.7089 L28.2719,41.7089 L28.2719,45.9869 L30.2719,45.9869 L30.2719,41.7089 L33.5499,41.7089 L33.5499,45.9869 L35.5499,45.9869 L35.5499,41.7089 L38.5709,41.7089 C40.2999,41.7089 41.7059,40.3029 41.7059,38.5739 L41.7059,35.5509 L45.9859,35.5509 L45.9859,33.5509 L41.7059,33.5509 L41.7059,30.2729 L45.9859,30.2729 L45.9859,28.2729 L41.7059,28.2729 L41.7059,24.9939 L45.9859,24.9939 L45.9859,22.9939 L41.7059,22.9939 L41.7059,19.7159 L45.9859,19.7159 L45.9859,17.7159 L41.7059,17.7159 L41.7059,14.4369 L45.9859,14.4369 Z" id="Amazon-IOT-RESOURCES-IoT-thing-police-emergency_Resource-Icon_light-bg" fill="#000000"></path>
    </g><g transform="translate(25, 83)" id="svgGroup" stroke-linecap="round" fill-rule="evenodd" font-size="9pt" stroke="#000" stroke-width="0.25mm" fill="#000" style="stroke:#000;stroke-width:0.25mm;fill:#000"><path d="M 23.12 0.088 L 24.13 4.469 L 24.253 5.313 L 24.434 4.553 L 25.699 0.088 L 26.411 0.088 L 27.646 4.553 L 27.822 5.326 L 27.958 4.465 L 28.951 0.088 L 29.799 0.088 L 28.248 6.486 L 27.479 6.486 L 26.161 1.824 L 26.06 1.336 L 25.958 1.824 L 24.592 6.486 L 23.823 6.486 L 22.276 0.088 L 23.12 0.088 Z M 34.98 1.938 L 34.132 1.938 A 1.466 1.466 0 0 0 34.083 1.546 A 1.066 1.066 0 0 0 33.763 1.026 A 1.211 1.211 0 0 0 33.294 0.77 Q 33.042 0.694 32.722 0.694 A 2.286 2.286 0 0 0 32.342 0.724 Q 32.14 0.758 31.977 0.831 A 1.101 1.101 0 0 0 31.748 0.969 A 0.892 0.892 0 0 0 31.403 1.624 A 1.267 1.267 0 0 0 31.399 1.732 A 0.806 0.806 0 0 0 31.667 2.337 A 1.134 1.134 0 0 0 31.731 2.393 A 1.562 1.562 0 0 0 31.969 2.549 Q 32.299 2.73 32.86 2.887 A 8.228 8.228 0 0 1 33.325 3.032 Q 33.56 3.113 33.754 3.2 A 3.297 3.297 0 0 1 34.108 3.382 A 2.342 2.342 0 0 1 34.447 3.626 Q 34.637 3.792 34.759 3.985 A 1.45 1.45 0 0 1 34.776 4.012 A 1.498 1.498 0 0 1 34.972 4.568 A 1.948 1.948 0 0 1 34.994 4.86 A 1.606 1.606 0 0 1 34.871 5.497 Q 34.726 5.838 34.408 6.09 A 1.886 1.886 0 0 1 34.387 6.106 Q 33.781 6.574 32.766 6.574 A 3.023 3.023 0 0 1 31.625 6.36 A 2.917 2.917 0 0 1 31.535 6.322 A 2.383 2.383 0 0 1 31.057 6.044 A 1.874 1.874 0 0 1 30.654 5.629 A 1.689 1.689 0 0 1 30.344 4.632 L 31.192 4.632 A 1.261 1.261 0 0 0 31.262 5.059 A 1.074 1.074 0 0 0 31.621 5.548 Q 32.005 5.85 32.622 5.881 A 2.87 2.87 0 0 0 32.766 5.884 A 2.628 2.628 0 0 0 33.153 5.858 Q 33.349 5.828 33.508 5.767 A 1.129 1.129 0 0 0 33.79 5.612 Q 34.146 5.339 34.146 4.869 A 1.074 1.074 0 0 0 34.103 4.559 A 0.816 0.816 0 0 0 33.816 4.142 Q 33.486 3.885 32.621 3.634 Q 31.535 3.322 31.041 2.868 Q 30.546 2.413 30.546 1.745 Q 30.546 0.989 31.151 0.494 A 2.121 2.121 0 0 1 32.041 0.071 A 3.087 3.087 0 0 1 32.722 0 A 2.913 2.913 0 0 1 33.382 0.072 A 2.372 2.372 0 0 1 33.897 0.255 A 2.051 2.051 0 0 1 34.428 0.626 A 1.834 1.834 0 0 1 34.697 0.958 A 1.798 1.798 0 0 1 34.98 1.938 Z M 3.74 6.486 L 2.351 3.898 L 0.848 3.898 L 0.848 6.486 L 0 6.486 L 0 0.088 L 2.118 0.088 A 3.809 3.809 0 0 1 2.76 0.138 Q 3.102 0.197 3.376 0.324 A 1.789 1.789 0 0 1 3.781 0.58 A 1.588 1.588 0 0 1 4.307 1.469 A 2.453 2.453 0 0 1 4.364 2.013 A 1.864 1.864 0 0 1 4.273 2.604 A 1.64 1.64 0 0 1 4.041 3.054 A 1.849 1.849 0 0 1 3.382 3.611 A 2.342 2.342 0 0 1 3.142 3.718 L 4.645 6.434 L 4.645 6.486 L 3.74 6.486 Z M 13.724 3.129 L 12.907 3.129 Q 12.907 2.795 12.623 2.553 Q 12.34 2.312 11.909 2.312 Q 11.465 2.312 11.215 2.505 A 0.653 0.653 0 0 0 11.04 2.704 Q 10.967 2.835 10.964 3 A 0.771 0.771 0 0 0 10.964 3.01 A 0.588 0.588 0 0 0 10.994 3.203 A 0.48 0.48 0 0 0 11.197 3.454 A 1.093 1.093 0 0 0 11.348 3.533 Q 11.512 3.605 11.767 3.673 A 6.581 6.581 0 0 0 12.039 3.74 A 6.318 6.318 0 0 1 12.446 3.845 Q 12.783 3.944 13.025 4.065 A 1.901 1.901 0 0 1 13.281 4.218 Q 13.418 4.315 13.516 4.429 A 1.06 1.06 0 0 1 13.586 4.52 A 1.024 1.024 0 0 1 13.748 4.927 A 1.388 1.388 0 0 1 13.768 5.168 Q 13.768 5.805 13.258 6.19 Q 12.776 6.554 12.022 6.573 A 3.337 3.337 0 0 1 11.936 6.574 A 2.746 2.746 0 0 1 11.401 6.525 A 2.124 2.124 0 0 1 10.925 6.372 A 1.771 1.771 0 0 1 10.491 6.094 A 1.54 1.54 0 0 1 10.237 5.807 Q 9.989 5.445 9.989 5.023 L 10.802 5.023 A 0.932 0.932 0 0 0 10.875 5.348 A 0.827 0.827 0 0 0 11.129 5.671 A 1.072 1.072 0 0 0 11.531 5.864 Q 11.686 5.903 11.867 5.91 A 2.013 2.013 0 0 0 11.936 5.911 A 1.863 1.863 0 0 0 12.231 5.889 Q 12.393 5.863 12.524 5.806 A 0.941 0.941 0 0 0 12.676 5.724 A 0.689 0.689 0 0 0 12.841 5.574 A 0.554 0.554 0 0 0 12.955 5.225 A 0.698 0.698 0 0 0 12.919 4.994 A 0.581 0.581 0 0 0 12.707 4.713 A 1.05 1.05 0 0 0 12.538 4.615 Q 12.349 4.524 12.054 4.449 A 5.392 5.392 0 0 0 11.841 4.399 A 6.342 6.342 0 0 1 11.48 4.311 Q 11.11 4.209 10.861 4.083 Q 10.562 3.93 10.392 3.731 A 1.017 1.017 0 0 1 10.325 3.643 Q 10.151 3.388 10.151 3.037 A 1.206 1.206 0 0 1 10.55 2.132 A 1.694 1.694 0 0 1 10.646 2.048 A 1.752 1.752 0 0 1 11.429 1.688 A 2.471 2.471 0 0 1 11.909 1.644 A 2.559 2.559 0 0 1 12.473 1.702 A 1.757 1.757 0 0 1 13.221 2.061 Q 13.724 2.479 13.724 3.129 Z M 21.327 6.486 L 20.716 4.816 L 18.035 4.816 L 17.433 6.486 L 16.563 6.486 L 19.006 0.088 L 19.745 0.088 L 22.192 6.486 L 21.327 6.486 Z M 5.212 4.241 L 5.212 4.091 A 3.17 3.17 0 0 1 5.288 3.382 A 2.581 2.581 0 0 1 5.482 2.828 A 2.191 2.191 0 0 1 5.93 2.202 A 2.033 2.033 0 0 1 6.238 1.958 Q 6.724 1.644 7.291 1.644 A 2.254 2.254 0 0 1 7.904 1.723 A 1.639 1.639 0 0 1 8.732 2.254 Q 9.246 2.865 9.246 4.003 L 9.246 4.342 L 6.025 4.342 A 2.111 2.111 0 0 0 6.096 4.85 A 1.516 1.516 0 0 0 6.436 5.478 A 1.282 1.282 0 0 0 7.37 5.909 A 1.652 1.652 0 0 0 7.436 5.911 A 1.763 1.763 0 0 0 7.764 5.882 Q 7.988 5.839 8.165 5.735 A 1.827 1.827 0 0 0 8.674 5.287 A 2.068 2.068 0 0 0 8.688 5.269 L 9.185 5.656 A 1.926 1.926 0 0 1 7.785 6.547 A 2.749 2.749 0 0 1 7.392 6.574 A 2.394 2.394 0 0 1 6.64 6.461 A 1.974 1.974 0 0 1 5.818 5.939 Q 5.212 5.304 5.212 4.241 Z M 0.848 0.782 L 0.848 3.208 L 2.145 3.208 Q 2.685 3.208 3.035 2.968 A 1.174 1.174 0 0 0 3.144 2.883 A 1.069 1.069 0 0 0 3.51 2.146 A 1.486 1.486 0 0 0 3.516 2.013 Q 3.516 1.47 3.22 1.159 A 1 1 0 0 0 3.162 1.103 Q 2.808 0.787 2.14 0.782 L 0.848 0.782 Z M 19.375 1.129 L 18.29 4.122 L 20.465 4.122 L 19.375 1.129 Z M 6.051 3.674 L 8.433 3.674 L 8.433 3.612 Q 8.407 3.153 8.236 2.848 A 1.13 1.13 0 0 0 8.099 2.652 A 0.983 0.983 0 0 0 7.445 2.32 A 1.39 1.39 0 0 0 7.291 2.312 A 1.106 1.106 0 0 0 6.768 2.435 A 1.14 1.14 0 0 0 6.464 2.67 A 1.417 1.417 0 0 0 6.188 3.116 Q 6.114 3.3 6.074 3.522 A 2.741 2.741 0 0 0 6.051 3.674 Z" vector-effect="non-scaling-stroke"/></g><g transform="translate(25, 93)" id="svgGroup" stroke-linecap="round" fill-rule="evenodd" font-size="9pt" stroke="#000" stroke-width="0.25mm" fill="#000" style="stroke:#000;stroke-width:0.25mm;fill:#000"><path d="M 71.508 1.995 L 72.277 1.995 L 72.299 2.522 Q 72.822 1.907 73.709 1.907 A 2.009 2.009 0 0 1 74.22 1.968 A 1.244 1.244 0 0 1 75.067 2.672 A 1.801 1.801 0 0 1 75.685 2.118 A 1.65 1.65 0 0 1 76.214 1.937 A 2.209 2.209 0 0 1 76.583 1.907 A 2.119 2.119 0 0 1 77.228 1.997 Q 78.154 2.292 78.174 3.564 L 78.174 6.75 L 77.361 6.75 L 77.361 3.612 A 1.781 1.781 0 0 0 77.341 3.332 Q 77.317 3.185 77.267 3.067 A 0.758 0.758 0 0 0 77.128 2.85 A 0.68 0.68 0 0 0 76.876 2.682 Q 76.664 2.597 76.347 2.597 A 1.245 1.245 0 0 0 75.981 2.648 A 1.008 1.008 0 0 0 75.595 2.867 A 1.042 1.042 0 0 0 75.281 3.404 A 1.41 1.41 0 0 0 75.248 3.595 L 75.248 6.75 L 74.43 6.75 L 74.43 3.634 A 1.532 1.532 0 0 0 74.382 3.23 Q 74.255 2.768 73.798 2.643 A 1.457 1.457 0 0 0 73.415 2.597 Q 72.641 2.597 72.341 3.234 A 1.459 1.459 0 0 0 72.321 3.278 L 72.321 6.75 L 71.508 6.75 L 71.508 1.995 Z M 70.141 3.103 L 70.141 3.792 L 67.368 3.792 L 67.368 6.06 L 70.589 6.06 L 70.589 6.75 L 66.524 6.75 L 66.524 0.352 L 70.545 0.352 L 70.545 1.046 L 67.368 1.046 L 67.368 3.103 L 70.141 3.103 Z M 20.997 0 L 20.997 2.571 A 1.767 1.767 0 0 1 21.663 2.053 A 1.832 1.832 0 0 1 22.403 1.907 A 1.905 1.905 0 0 1 23.037 2.004 Q 23.879 2.3 23.922 3.506 A 3.668 3.668 0 0 1 23.924 3.608 L 23.924 6.75 L 23.111 6.75 L 23.111 3.604 A 1.837 1.837 0 0 0 23.089 3.324 Q 23.038 3.017 22.876 2.843 Q 22.69 2.645 22.336 2.606 A 1.66 1.66 0 0 0 22.157 2.597 A 1.253 1.253 0 0 0 21.743 2.664 A 1.123 1.123 0 0 0 21.463 2.808 A 1.432 1.432 0 0 0 20.997 3.362 L 20.997 6.75 L 20.184 6.75 L 20.184 0 L 20.997 0 Z M 142.273 6.75 L 140.616 4.548 L 140.106 5.08 L 140.106 6.75 L 139.293 6.75 L 139.293 0 L 140.106 0 L 140.106 4.083 L 140.542 3.56 L 142.022 1.995 L 143.011 1.995 L 141.161 3.981 L 143.227 6.75 L 142.273 6.75 Z M 35.332 2.522 L 35.372 1.995 L 36.114 1.995 L 36.114 6.636 A 2.511 2.511 0 0 1 36.044 7.249 A 1.738 1.738 0 0 1 35.567 8.09 A 1.834 1.834 0 0 1 34.637 8.57 A 2.671 2.671 0 0 1 34.097 8.622 A 2.446 2.446 0 0 1 33.091 8.402 A 2.003 2.003 0 0 1 32.681 8.161 A 1.563 1.563 0 0 1 32.339 7.8 L 32.761 7.313 A 1.889 1.889 0 0 0 33.196 7.712 A 1.514 1.514 0 0 0 34.04 7.958 A 1.695 1.695 0 0 0 34.417 7.919 Q 34.685 7.858 34.879 7.702 A 1.037 1.037 0 0 0 34.965 7.625 A 1.09 1.09 0 0 0 35.242 7.132 Q 35.289 6.959 35.296 6.752 A 2.134 2.134 0 0 0 35.297 6.684 L 35.297 6.275 A 1.601 1.601 0 0 1 34.245 6.821 A 2.279 2.279 0 0 1 33.965 6.838 A 1.672 1.672 0 0 1 33.21 6.67 Q 32.888 6.51 32.638 6.197 A 2.14 2.14 0 0 1 32.614 6.166 A 2.316 2.316 0 0 1 32.231 5.386 Q 32.098 4.922 32.098 4.333 Q 32.098 3.472 32.406 2.884 A 2.096 2.096 0 0 1 32.612 2.564 Q 33.126 1.907 33.974 1.907 A 1.971 1.971 0 0 1 34.573 1.994 A 1.55 1.55 0 0 1 35.332 2.522 Z M 90.171 2.522 L 90.211 1.995 L 90.954 1.995 L 90.954 6.636 A 2.511 2.511 0 0 1 90.883 7.249 A 1.738 1.738 0 0 1 90.406 8.09 A 1.834 1.834 0 0 1 89.477 8.57 A 2.671 2.671 0 0 1 88.937 8.622 A 2.446 2.446 0 0 1 87.93 8.402 A 2.003 2.003 0 0 1 87.52 8.161 A 1.563 1.563 0 0 1 87.179 7.8 L 87.601 7.313 A 1.889 1.889 0 0 0 88.035 7.712 A 1.514 1.514 0 0 0 88.879 7.958 A 1.695 1.695 0 0 0 89.256 7.919 Q 89.525 7.858 89.719 7.702 A 1.037 1.037 0 0 0 89.804 7.625 A 1.09 1.09 0 0 0 90.081 7.132 Q 90.129 6.959 90.135 6.752 A 2.134 2.134 0 0 0 90.136 6.684 L 90.136 6.275 A 1.601 1.601 0 0 1 89.084 6.821 A 2.279 2.279 0 0 1 88.805 6.838 A 1.672 1.672 0 0 1 88.049 6.67 Q 87.727 6.51 87.478 6.197 A 2.14 2.14 0 0 1 87.453 6.166 A 2.316 2.316 0 0 1 87.07 5.386 Q 86.937 4.922 86.937 4.333 Q 86.937 3.472 87.245 2.884 A 2.096 2.096 0 0 1 87.451 2.564 Q 87.965 1.907 88.813 1.907 A 1.971 1.971 0 0 1 89.412 1.994 A 1.55 1.55 0 0 1 90.171 2.522 Z M 106.994 1.995 L 108.18 5.559 L 109.288 1.995 L 110.158 1.995 L 108.246 7.484 Q 107.802 8.67 106.835 8.67 L 106.682 8.657 L 106.378 8.6 L 106.378 7.941 L 106.598 7.958 Q 106.878 7.958 107.074 7.882 A 0.75 0.75 0 0 0 107.242 7.792 A 0.749 0.749 0 0 0 107.402 7.629 Q 107.52 7.47 107.61 7.215 A 2.575 2.575 0 0 0 107.622 7.181 L 107.802 6.697 L 106.106 1.995 L 106.994 1.995 Z M 27.325 1.995 L 28.094 1.995 L 28.121 2.593 Q 28.657 1.918 29.517 1.907 A 2.234 2.234 0 0 1 29.544 1.907 A 1.905 1.905 0 0 1 30.178 2.004 Q 31.02 2.3 31.063 3.506 A 3.668 3.668 0 0 1 31.065 3.608 L 31.065 6.75 L 30.252 6.75 L 30.252 3.604 A 1.837 1.837 0 0 0 30.23 3.324 Q 30.18 3.017 30.017 2.843 Q 29.831 2.645 29.477 2.606 A 1.66 1.66 0 0 0 29.298 2.597 A 1.253 1.253 0 0 0 28.884 2.664 A 1.123 1.123 0 0 0 28.604 2.808 A 1.432 1.432 0 0 0 28.138 3.362 L 28.138 6.75 L 27.325 6.75 L 27.325 1.995 Z M 96.948 1.995 L 97.717 1.995 L 97.743 2.593 Q 98.28 1.918 99.139 1.907 A 2.234 2.234 0 0 1 99.167 1.907 A 1.905 1.905 0 0 1 99.8 2.004 Q 100.642 2.3 100.685 3.506 A 3.668 3.668 0 0 1 100.688 3.608 L 100.688 6.75 L 99.875 6.75 L 99.875 3.604 A 1.837 1.837 0 0 0 99.852 3.324 Q 99.802 3.017 99.639 2.843 Q 99.453 2.645 99.1 2.606 A 1.66 1.66 0 0 0 98.921 2.597 A 1.253 1.253 0 0 0 98.507 2.664 A 1.123 1.123 0 0 0 98.227 2.808 A 1.432 1.432 0 0 0 97.761 3.362 L 97.761 6.75 L 96.948 6.75 L 96.948 1.995 Z M 57.718 5.251 L 58.487 5.251 A 1.432 1.432 0 0 1 58.288 5.901 A 1.772 1.772 0 0 1 58.206 6.029 A 1.828 1.828 0 0 1 57.596 6.574 A 2.169 2.169 0 0 1 57.513 6.618 A 1.997 1.997 0 0 1 56.597 6.838 A 2.346 2.346 0 0 1 55.9 6.739 A 1.839 1.839 0 0 1 55.052 6.19 A 2.171 2.171 0 0 1 54.589 5.31 Q 54.479 4.909 54.479 4.417 L 54.479 4.28 A 3.24 3.24 0 0 1 54.543 3.624 A 2.57 2.57 0 0 1 54.734 3.045 A 2.008 2.008 0 0 1 55.173 2.431 A 1.892 1.892 0 0 1 55.466 2.206 A 1.943 1.943 0 0 1 56.222 1.934 A 2.529 2.529 0 0 1 56.593 1.907 A 2.196 2.196 0 0 1 57.241 1.999 A 1.786 1.786 0 0 1 57.922 2.386 A 1.693 1.693 0 0 1 58.48 3.535 A 2.239 2.239 0 0 1 58.487 3.63 L 57.718 3.63 Q 57.683 3.168 57.368 2.872 A 1.078 1.078 0 0 0 56.639 2.576 A 1.402 1.402 0 0 0 56.593 2.575 A 1.374 1.374 0 0 0 56.171 2.637 A 1.081 1.081 0 0 0 55.633 3.021 A 1.469 1.469 0 0 0 55.406 3.468 Q 55.34 3.674 55.312 3.923 A 3.514 3.514 0 0 0 55.292 4.311 L 55.292 4.465 Q 55.292 5.287 55.63 5.73 A 1.1 1.1 0 0 0 56.417 6.165 A 1.611 1.611 0 0 0 56.597 6.174 A 1.171 1.171 0 0 0 57.357 5.911 A 1.007 1.007 0 0 0 57.602 5.629 A 0.914 0.914 0 0 0 57.718 5.251 Z M 104.941 5.251 L 105.71 5.251 A 1.432 1.432 0 0 1 105.511 5.901 A 1.772 1.772 0 0 1 105.429 6.029 A 1.828 1.828 0 0 1 104.82 6.574 A 2.169 2.169 0 0 1 104.737 6.618 A 1.997 1.997 0 0 1 103.821 6.838 A 2.346 2.346 0 0 1 103.124 6.739 A 1.839 1.839 0 0 1 102.276 6.19 A 2.171 2.171 0 0 1 101.812 5.31 Q 101.703 4.909 101.703 4.417 L 101.703 4.28 A 3.24 3.24 0 0 1 101.766 3.624 A 2.57 2.57 0 0 1 101.958 3.045 A 2.008 2.008 0 0 1 102.397 2.431 A 1.892 1.892 0 0 1 102.689 2.206 A 1.943 1.943 0 0 1 103.446 1.934 A 2.529 2.529 0 0 1 103.816 1.907 A 2.196 2.196 0 0 1 104.465 1.999 A 1.786 1.786 0 0 1 105.146 2.386 A 1.693 1.693 0 0 1 105.704 3.535 A 2.239 2.239 0 0 1 105.71 3.63 L 104.941 3.63 Q 104.906 3.168 104.592 2.872 A 1.078 1.078 0 0 0 103.863 2.576 A 1.402 1.402 0 0 0 103.816 2.575 A 1.374 1.374 0 0 0 103.395 2.637 A 1.081 1.081 0 0 0 102.856 3.021 A 1.469 1.469 0 0 0 102.629 3.468 Q 102.564 3.674 102.536 3.923 A 3.514 3.514 0 0 0 102.516 4.311 L 102.516 4.465 Q 102.516 5.287 102.854 5.73 A 1.1 1.1 0 0 0 103.641 6.165 A 1.611 1.611 0 0 0 103.821 6.174 A 1.171 1.171 0 0 0 104.581 5.911 A 1.007 1.007 0 0 0 104.825 5.629 A 0.914 0.914 0 0 0 104.941 5.251 Z M 11.94 0.352 L 11.94 1.046 L 9.883 1.046 L 9.883 6.75 L 9.044 6.75 L 9.044 1.046 L 6.992 1.046 L 6.992 0.352 L 11.94 0.352 Z M 19.362 0.352 L 19.362 1.046 L 17.306 1.046 L 17.306 6.75 L 16.466 6.75 L 16.466 1.046 L 14.414 1.046 L 14.414 0.352 L 19.362 0.352 Z M 135.136 6.75 L 134.284 6.75 A 0.632 0.632 0 0 1 134.248 6.66 Q 134.217 6.562 134.192 6.41 A 3.997 3.997 0 0 1 134.169 6.249 Q 133.603 6.838 132.816 6.838 A 2.033 2.033 0 0 1 132.287 6.772 A 1.529 1.529 0 0 1 131.662 6.44 Q 131.212 6.042 131.212 5.432 Q 131.212 4.689 131.777 4.278 Q 132.341 3.867 133.365 3.867 L 134.156 3.867 L 134.156 3.494 A 1.152 1.152 0 0 0 134.121 3.199 A 0.828 0.828 0 0 0 133.901 2.815 Q 133.685 2.6 133.295 2.568 A 1.748 1.748 0 0 0 133.15 2.562 Q 132.715 2.562 132.42 2.782 Q 132.126 3.001 132.126 3.313 L 131.309 3.313 A 1.041 1.041 0 0 1 131.434 2.825 A 1.409 1.409 0 0 1 131.561 2.626 Q 131.814 2.294 132.247 2.101 A 2.249 2.249 0 0 1 133.023 1.913 A 2.669 2.669 0 0 1 133.198 1.907 A 2.65 2.65 0 0 1 133.716 1.955 Q 134.023 2.016 134.262 2.156 A 1.439 1.439 0 0 1 134.486 2.318 A 1.396 1.396 0 0 1 134.939 3.144 A 1.998 1.998 0 0 1 134.969 3.45 L 134.969 5.638 Q 134.969 6.073 135.043 6.39 A 1.707 1.707 0 0 0 135.136 6.68 L 135.136 6.75 Z M 59.194 4.504 L 59.194 4.355 A 3.17 3.17 0 0 1 59.271 3.646 A 2.581 2.581 0 0 1 59.465 3.092 A 2.191 2.191 0 0 1 59.912 2.466 A 2.033 2.033 0 0 1 60.22 2.221 Q 60.706 1.907 61.273 1.907 A 2.254 2.254 0 0 1 61.886 1.986 A 1.639 1.639 0 0 1 62.714 2.518 Q 63.229 3.129 63.229 4.267 L 63.229 4.605 L 60.007 4.605 A 2.111 2.111 0 0 0 60.078 5.114 A 1.516 1.516 0 0 0 60.418 5.741 A 1.282 1.282 0 0 0 61.352 6.173 A 1.652 1.652 0 0 0 61.418 6.174 A 1.763 1.763 0 0 0 61.746 6.145 Q 61.97 6.103 62.147 5.999 A 1.827 1.827 0 0 0 62.656 5.551 A 2.068 2.068 0 0 0 62.67 5.533 L 63.167 5.919 A 1.926 1.926 0 0 1 61.767 6.811 A 2.749 2.749 0 0 1 61.374 6.838 A 2.394 2.394 0 0 1 60.623 6.725 A 1.974 1.974 0 0 1 59.801 6.203 Q 59.194 5.568 59.194 4.504 Z M 79.194 4.504 L 79.194 4.355 A 3.17 3.17 0 0 1 79.27 3.646 A 2.581 2.581 0 0 1 79.464 3.092 A 2.191 2.191 0 0 1 79.912 2.466 A 2.033 2.033 0 0 1 80.22 2.221 Q 80.706 1.907 81.272 1.907 A 2.254 2.254 0 0 1 81.886 1.986 A 1.639 1.639 0 0 1 82.714 2.518 Q 83.228 3.129 83.228 4.267 L 83.228 4.605 L 80.007 4.605 A 2.111 2.111 0 0 0 80.078 5.114 A 1.516 1.516 0 0 0 80.418 5.741 A 1.282 1.282 0 0 0 81.352 6.173 A 1.652 1.652 0 0 0 81.417 6.174 A 1.763 1.763 0 0 0 81.746 6.145 Q 81.97 6.103 82.147 5.999 A 1.827 1.827 0 0 0 82.656 5.551 A 2.068 2.068 0 0 0 82.67 5.533 L 83.167 5.919 A 1.926 1.926 0 0 1 81.767 6.811 A 2.749 2.749 0 0 1 81.374 6.838 A 2.394 2.394 0 0 1 80.622 6.725 A 1.974 1.974 0 0 1 79.8 6.203 Q 79.194 5.568 79.194 4.504 Z M 91.973 4.504 L 91.973 4.355 A 3.17 3.17 0 0 1 92.049 3.646 A 2.581 2.581 0 0 1 92.243 3.092 A 2.191 2.191 0 0 1 92.691 2.466 A 2.033 2.033 0 0 1 92.999 2.221 Q 93.485 1.907 94.052 1.907 A 2.254 2.254 0 0 1 94.665 1.986 A 1.639 1.639 0 0 1 95.493 2.518 Q 96.007 3.129 96.007 4.267 L 96.007 4.605 L 92.786 4.605 A 2.111 2.111 0 0 0 92.857 5.114 A 1.516 1.516 0 0 0 93.197 5.741 A 1.282 1.282 0 0 0 94.131 6.173 A 1.652 1.652 0 0 0 94.197 6.174 A 1.763 1.763 0 0 0 94.525 6.145 Q 94.749 6.103 94.926 5.999 A 1.827 1.827 0 0 0 95.435 5.551 A 2.068 2.068 0 0 0 95.449 5.533 L 95.946 5.919 A 1.926 1.926 0 0 1 94.546 6.811 A 2.749 2.749 0 0 1 94.153 6.838 A 2.394 2.394 0 0 1 93.402 6.725 A 1.974 1.974 0 0 1 92.58 6.203 Q 91.973 5.568 91.973 4.504 Z M 42.047 4.245 L 40.54 4.245 L 40.54 6.75 L 39.696 6.75 L 39.696 0.352 L 42.056 0.352 A 3.315 3.315 0 0 1 42.721 0.414 Q 43.123 0.497 43.434 0.688 A 1.839 1.839 0 0 1 43.701 0.888 A 1.772 1.772 0 0 1 44.289 2.105 A 2.45 2.45 0 0 1 44.297 2.307 Q 44.297 3.239 43.715 3.742 Q 43.236 4.156 42.417 4.229 A 4.14 4.14 0 0 1 42.047 4.245 Z M 116.459 0.352 L 116.459 4.601 L 117.347 4.601 L 117.347 5.265 L 116.459 5.265 L 116.459 6.75 L 115.642 6.75 L 115.642 5.265 L 112.729 5.265 L 112.729 4.786 L 115.594 0.352 L 116.459 0.352 Z M 127.345 6.75 L 125.574 6.75 L 125.574 0.352 L 127.38 0.352 Q 128.215 0.352 128.856 0.721 Q 129.498 1.09 129.847 1.771 A 3.19 3.19 0 0 1 130.164 2.8 A 4.073 4.073 0 0 1 130.201 3.335 L 130.201 3.744 Q 130.201 4.649 129.852 5.331 A 2.457 2.457 0 0 1 128.854 6.376 Q 128.206 6.741 127.345 6.75 Z M 121.858 2.592 A 1.544 1.544 0 0 0 121.961 2.021 A 2.226 2.226 0 0 0 121.94 1.707 A 1.566 1.566 0 0 0 121.441 0.738 A 1.754 1.754 0 0 0 120.675 0.333 A 2.443 2.443 0 0 0 120.076 0.264 A 2.539 2.539 0 0 0 119.567 0.312 A 1.767 1.767 0 0 0 118.709 0.738 Q 118.191 1.213 118.191 2.021 A 1.808 1.808 0 0 0 118.191 2.058 A 1.499 1.499 0 0 0 118.437 2.87 A 1.626 1.626 0 0 0 118.599 3.077 A 1.726 1.726 0 0 0 119.109 3.454 A 2.119 2.119 0 0 0 119.01 3.5 A 1.738 1.738 0 0 0 118.325 4.087 A 1.629 1.629 0 0 0 118.042 5.023 A 2.272 2.272 0 0 0 118.051 5.237 A 1.63 1.63 0 0 0 118.597 6.344 A 1.895 1.895 0 0 0 119.448 6.771 A 2.797 2.797 0 0 0 120.076 6.838 A 2.796 2.796 0 0 0 120.675 6.777 A 1.925 1.925 0 0 0 121.551 6.346 A 1.578 1.578 0 0 0 122.025 5.62 A 1.989 1.989 0 0 0 122.111 5.023 A 1.581 1.581 0 0 0 121.819 4.087 Q 121.526 3.674 121.025 3.458 Q 121.456 3.248 121.709 2.874 A 1.449 1.449 0 0 0 121.858 2.592 Z M 51.205 0 L 51.205 6.75 L 50.392 6.75 L 50.392 0 L 51.205 0 Z M 2.043 4.386 L 2.043 4.329 A 3.057 3.057 0 0 1 2.13 3.587 A 2.573 2.573 0 0 1 2.318 3.072 A 2.16 2.16 0 0 1 2.733 2.486 A 1.957 1.957 0 0 1 3.083 2.21 A 2.036 2.036 0 0 1 4.027 1.913 A 2.491 2.491 0 0 1 4.201 1.907 A 2.277 2.277 0 0 1 4.955 2.027 A 1.937 1.937 0 0 1 5.772 2.58 A 2.29 2.29 0 0 1 6.291 3.608 A 3.373 3.373 0 0 1 6.372 4.368 L 6.372 4.425 A 3.114 3.114 0 0 1 6.293 5.142 A 2.577 2.577 0 0 1 6.106 5.671 A 2.056 2.056 0 0 1 5.579 6.361 A 2.001 2.001 0 0 1 5.346 6.53 A 2.045 2.045 0 0 1 4.426 6.829 A 2.529 2.529 0 0 1 4.21 6.838 A 2.262 2.262 0 0 1 3.46 6.718 A 1.938 1.938 0 0 1 2.643 6.166 A 2.297 2.297 0 0 1 2.118 5.111 A 3.357 3.357 0 0 1 2.043 4.386 Z M 44.974 4.386 L 44.974 4.329 A 3.057 3.057 0 0 1 45.061 3.587 A 2.573 2.573 0 0 1 45.248 3.072 A 2.16 2.16 0 0 1 45.663 2.486 A 1.957 1.957 0 0 1 46.013 2.21 A 2.036 2.036 0 0 1 46.957 1.913 A 2.491 2.491 0 0 1 47.131 1.907 A 2.277 2.277 0 0 1 47.885 2.027 A 1.937 1.937 0 0 1 48.702 2.58 A 2.29 2.29 0 0 1 49.221 3.608 A 3.373 3.373 0 0 1 49.302 4.368 L 49.302 4.425 A 3.114 3.114 0 0 1 49.223 5.142 A 2.577 2.577 0 0 1 49.036 5.671 A 2.056 2.056 0 0 1 48.509 6.361 A 2.001 2.001 0 0 1 48.276 6.53 A 2.045 2.045 0 0 1 47.356 6.829 A 2.529 2.529 0 0 1 47.14 6.838 A 2.262 2.262 0 0 1 46.39 6.718 A 1.938 1.938 0 0 1 45.573 6.166 A 2.297 2.297 0 0 1 45.048 5.111 A 3.357 3.357 0 0 1 44.974 4.386 Z M 86.467 1.969 L 86.467 2.725 A 2.251 2.251 0 0 0 86.224 2.698 A 2.782 2.782 0 0 0 86.067 2.694 Q 85.289 2.694 84.998 3.338 A 1.445 1.445 0 0 0 84.981 3.375 L 84.981 6.75 L 84.168 6.75 L 84.168 1.995 L 84.959 1.995 L 84.973 2.544 Q 85.353 1.938 86.036 1.909 A 1.636 1.636 0 0 1 86.106 1.907 Q 86.344 1.907 86.467 1.969 Z M 138.542 1.969 L 138.542 2.725 A 2.251 2.251 0 0 0 138.299 2.698 A 2.782 2.782 0 0 0 138.142 2.694 Q 137.364 2.694 137.073 3.338 A 1.445 1.445 0 0 0 137.057 3.375 L 137.057 6.75 L 136.244 6.75 L 136.244 1.995 L 137.035 1.995 L 137.048 2.544 Q 137.428 1.938 138.111 1.909 A 1.636 1.636 0 0 1 138.182 1.907 Q 138.419 1.907 138.542 1.969 Z M 0.844 0.352 L 0.844 6.75 L 0 6.75 L 0 0.352 L 0.844 0.352 Z M 127.402 1.046 L 126.417 1.046 L 126.417 6.06 L 127.305 6.06 A 2.519 2.519 0 0 0 127.938 5.985 A 1.747 1.747 0 0 0 128.823 5.454 Q 129.283 4.94 129.353 4.059 A 4.165 4.165 0 0 0 129.366 3.727 L 129.366 3.353 Q 129.366 2.562 129.097 2.027 A 1.864 1.864 0 0 0 128.854 1.659 A 1.687 1.687 0 0 0 127.858 1.09 A 2.499 2.499 0 0 0 127.402 1.046 Z M 26.024 1.995 L 26.024 6.75 L 25.211 6.75 L 25.211 1.995 L 26.024 1.995 Z M 53.389 1.995 L 53.389 6.75 L 52.576 6.75 L 52.576 1.995 L 53.389 1.995 Z M 2.861 4.425 A 2.772 2.772 0 0 0 2.908 4.954 Q 2.969 5.264 3.106 5.51 A 1.545 1.545 0 0 0 3.228 5.695 Q 3.595 6.174 4.21 6.174 A 1.269 1.269 0 0 0 4.699 6.083 Q 4.979 5.967 5.181 5.706 A 1.471 1.471 0 0 0 5.194 5.689 A 1.648 1.648 0 0 0 5.449 5.171 Q 5.518 4.945 5.544 4.672 A 3.655 3.655 0 0 0 5.559 4.329 A 2.687 2.687 0 0 0 5.508 3.789 Q 5.44 3.459 5.283 3.2 A 1.586 1.586 0 0 0 5.188 3.061 A 1.231 1.231 0 0 0 4.773 2.705 Q 4.52 2.575 4.201 2.575 Q 3.611 2.575 3.245 3.035 A 1.515 1.515 0 0 0 3.23 3.054 A 1.589 1.589 0 0 0 2.978 3.552 Q 2.908 3.772 2.88 4.039 A 3.676 3.676 0 0 0 2.861 4.425 Z M 45.791 4.425 A 2.772 2.772 0 0 0 45.838 4.954 Q 45.899 5.264 46.036 5.51 A 1.545 1.545 0 0 0 46.158 5.695 Q 46.525 6.174 47.14 6.174 A 1.269 1.269 0 0 0 47.63 6.083 Q 47.909 5.967 48.112 5.706 A 1.471 1.471 0 0 0 48.125 5.689 A 1.648 1.648 0 0 0 48.379 5.171 Q 48.448 4.945 48.474 4.672 A 3.655 3.655 0 0 0 48.489 4.329 A 2.687 2.687 0 0 0 48.438 3.789 Q 48.37 3.459 48.213 3.2 A 1.586 1.586 0 0 0 48.118 3.061 A 1.231 1.231 0 0 0 47.703 2.705 Q 47.45 2.575 47.131 2.575 Q 46.541 2.575 46.175 3.035 A 1.515 1.515 0 0 0 46.16 3.054 A 1.589 1.589 0 0 0 45.908 3.552 Q 45.839 3.772 45.81 4.039 A 3.676 3.676 0 0 0 45.791 4.425 Z M 35.297 5.449 L 35.297 3.278 A 1.439 1.439 0 0 0 34.996 2.891 Q 34.692 2.62 34.252 2.599 A 1.578 1.578 0 0 0 34.176 2.597 Q 33.584 2.597 33.251 3.056 A 1.51 1.51 0 0 0 33.04 3.484 Q 32.974 3.689 32.943 3.939 A 3.955 3.955 0 0 0 32.915 4.425 Q 32.915 5.229 33.245 5.689 Q 33.574 6.148 34.167 6.148 A 1.32 1.32 0 0 0 34.677 6.054 Q 35.069 5.891 35.297 5.449 Z M 90.136 5.449 L 90.136 3.278 A 1.439 1.439 0 0 0 89.835 2.891 Q 89.532 2.62 89.091 2.599 A 1.578 1.578 0 0 0 89.016 2.597 Q 88.424 2.597 88.09 3.056 A 1.51 1.51 0 0 0 87.879 3.484 Q 87.813 3.689 87.782 3.939 A 3.955 3.955 0 0 0 87.754 4.425 Q 87.754 5.229 88.084 5.689 Q 88.414 6.148 89.007 6.148 A 1.32 1.32 0 0 0 89.516 6.054 Q 89.908 5.891 90.136 5.449 Z M 40.54 1.046 L 40.54 3.555 L 42.056 3.555 A 2.313 2.313 0 0 0 42.448 3.524 Q 42.665 3.487 42.838 3.404 A 1.097 1.097 0 0 0 43.093 3.237 A 1.028 1.028 0 0 0 43.411 2.696 Q 43.452 2.528 43.453 2.329 A 1.996 1.996 0 0 0 43.453 2.316 A 1.466 1.466 0 0 0 43.399 1.908 A 1.112 1.112 0 0 0 43.093 1.402 Q 42.732 1.059 42.104 1.046 L 40.54 1.046 Z M 115.545 1.639 L 113.651 4.601 L 115.642 4.601 L 115.642 1.463 L 115.545 1.639 Z M 121.298 5.005 A 1.375 1.375 0 0 0 121.238 4.592 A 1.109 1.109 0 0 0 120.957 4.131 A 1.148 1.148 0 0 0 120.286 3.807 A 1.593 1.593 0 0 0 120.067 3.792 A 1.466 1.466 0 0 0 119.679 3.841 A 1.086 1.086 0 0 0 119.186 4.126 A 1.123 1.123 0 0 0 118.873 4.762 A 1.572 1.572 0 0 0 118.854 5.005 A 1.48 1.48 0 0 0 118.896 5.367 A 1.019 1.019 0 0 0 119.177 5.862 Q 119.484 6.158 120.017 6.173 A 2.053 2.053 0 0 0 120.076 6.174 Q 120.57 6.174 120.88 5.94 A 1.018 1.018 0 0 0 120.973 5.86 A 1.041 1.041 0 0 0 121.272 5.292 A 1.518 1.518 0 0 0 121.298 5.005 Z M 120.076 0.932 A 1.259 1.259 0 0 0 119.723 0.979 A 0.973 0.973 0 0 0 119.301 1.228 Q 119.004 1.525 119.004 2.035 A 1.325 1.325 0 0 0 119.048 2.387 A 0.994 0.994 0 0 0 119.296 2.823 A 0.974 0.974 0 0 0 119.858 3.108 A 1.382 1.382 0 0 0 120.076 3.125 A 1.279 1.279 0 0 0 120.421 3.08 A 0.952 0.952 0 0 0 120.856 2.823 A 1.018 1.018 0 0 0 121.131 2.26 A 1.426 1.426 0 0 0 121.148 2.035 A 1.282 1.282 0 0 0 121.098 1.668 A 1.013 1.013 0 0 0 120.845 1.239 Q 120.542 0.932 120.076 0.932 Z M 134.156 5.418 L 134.156 4.443 L 133.519 4.443 Q 132.025 4.443 132.025 5.317 Q 132.025 5.7 132.28 5.915 A 0.893 0.893 0 0 0 132.693 6.108 A 1.259 1.259 0 0 0 132.935 6.13 A 1.429 1.429 0 0 0 133.66 5.933 A 1.335 1.335 0 0 0 133.955 5.705 A 1.108 1.108 0 0 0 134.156 5.418 Z M 60.034 3.938 L 62.416 3.938 L 62.416 3.876 Q 62.389 3.417 62.219 3.111 A 1.13 1.13 0 0 0 62.082 2.916 A 0.983 0.983 0 0 0 61.427 2.584 A 1.39 1.39 0 0 0 61.273 2.575 A 1.106 1.106 0 0 0 60.75 2.698 A 1.14 1.14 0 0 0 60.447 2.933 A 1.417 1.417 0 0 0 60.17 3.379 Q 60.097 3.563 60.057 3.785 A 2.741 2.741 0 0 0 60.034 3.938 Z M 80.033 3.938 L 82.415 3.938 L 82.415 3.876 Q 82.389 3.417 82.218 3.111 A 1.13 1.13 0 0 0 82.081 2.916 A 0.983 0.983 0 0 0 81.427 2.584 A 1.39 1.39 0 0 0 81.272 2.575 A 1.106 1.106 0 0 0 80.75 2.698 A 1.14 1.14 0 0 0 80.446 2.933 A 1.417 1.417 0 0 0 80.17 3.379 Q 80.096 3.563 80.056 3.785 A 2.741 2.741 0 0 0 80.033 3.938 Z M 92.813 3.938 L 95.194 3.938 L 95.194 3.876 Q 95.168 3.417 94.998 3.111 A 1.13 1.13 0 0 0 94.86 2.916 A 0.983 0.983 0 0 0 94.206 2.584 A 1.39 1.39 0 0 0 94.052 2.575 A 1.106 1.106 0 0 0 93.529 2.698 A 1.14 1.14 0 0 0 93.226 2.933 A 1.417 1.417 0 0 0 92.949 3.379 Q 92.875 3.563 92.835 3.785 A 2.741 2.741 0 0 0 92.813 3.938 Z M 25.146 0.734 Q 25.146 0.536 25.266 0.4 Q 25.378 0.274 25.59 0.264 A 0.783 0.783 0 0 1 25.625 0.264 Q 25.862 0.264 25.985 0.4 A 0.474 0.474 0 0 1 26.107 0.703 A 0.614 0.614 0 0 1 26.108 0.734 A 0.523 0.523 0 0 1 26.083 0.9 A 0.442 0.442 0 0 1 25.985 1.063 Q 25.872 1.184 25.664 1.194 A 0.803 0.803 0 0 1 25.625 1.195 Q 25.452 1.195 25.341 1.126 A 0.362 0.362 0 0 1 25.266 1.063 A 0.456 0.456 0 0 1 25.148 0.788 A 0.605 0.605 0 0 1 25.146 0.734 Z M 52.51 0.734 Q 52.51 0.536 52.631 0.4 Q 52.743 0.274 52.955 0.264 A 0.783 0.783 0 0 1 52.989 0.264 Q 53.227 0.264 53.35 0.4 A 0.474 0.474 0 0 1 53.472 0.703 A 0.614 0.614 0 0 1 53.473 0.734 A 0.523 0.523 0 0 1 53.447 0.9 A 0.442 0.442 0 0 1 53.35 1.063 Q 53.237 1.184 53.029 1.194 A 0.803 0.803 0 0 1 52.989 1.195 Q 52.817 1.195 52.706 1.126 A 0.362 0.362 0 0 1 52.631 1.063 A 0.456 0.456 0 0 1 52.513 0.788 A 0.605 0.605 0 0 1 52.51 0.734 Z" vector-effect="non-scaling-stroke"/></g>
</svgversion="1.0" encoding="UTF-8"?>
<svg width="48px" height="48px" viewBox="0 0 48 48" version="1.1" xmlns="http://www.w3.org/2000/svg" xmlns:xlink="http://www.w3.org/1999/xlink">
    <title>Icon-Resource/IoT/Res_IoT_Thing_Police-Emergency_48_Dark</title>
    <g id="Icon-Resource/IoT/Res_IoT_Thing_Police-Emergency_48" stroke="none" stroke-width="1" fill="none" fill-rule="evenodd">
        <path transform="translate(12.000000, 8.000000), scale(.65)" d="M23.9929,34.2149 C23.0979,33.6349 21.3109,32.6249 19.2339,32.2519 C17.9239,32.0169 14.8759,31.1899 14.8759,28.6049 C14.8759,27.4659 15.3049,26.7269 15.8019,25.8699 C16.2929,25.0229 16.8499,24.0639 16.8499,22.7539 C16.8499,21.1179 16.0889,19.8679 15.4889,19.1389 C16.0019,18.5139 16.7619,17.5839 17.3369,16.8599 C18.3549,17.6509 19.4949,18.0769 20.6329,18.0769 C21.9229,18.0769 23.0119,17.6349 23.9929,16.6979 C24.9749,17.6349 26.0629,18.0769 27.3539,18.0769 C28.4909,18.0769 29.6319,17.6509 30.6479,16.8599 C31.2249,17.5839 31.9829,18.5139 32.4959,19.1389 C31.8969,19.8679 31.1359,21.1179 31.1359,22.7539 C31.1359,24.0639 31.6919,25.0229 32.1839,25.8699 C32.6809,26.7269 33.1099,27.4659 33.1099,28.6049 C33.1099,31.1899 30.0619,32.0169 28.7509,32.2519 C26.6759,32.6249 24.8889,33.6349 23.9929,34.2149 Z M35.2459,19.3309 L34.6039,18.5519 C34.5779,18.5229 32.1349,15.5609 31.5819,14.8039 L30.8699,13.8259 L30.0439,14.7099 C29.2199,15.5919 28.2639,16.0769 27.3539,16.0769 C26.6469,16.0769 25.7909,15.8999 24.7869,14.5889 L23.9929,13.5509 L23.1989,14.5889 C22.1949,15.8999 21.3389,16.0769 20.6329,16.0769 C19.7219,16.0769 18.7659,15.5919 17.9409,14.7099 L17.1149,13.8249 L16.4019,14.8039 C15.8519,15.5609 13.4069,18.5219 13.3819,18.5519 L12.7519,19.3249 L13.5199,19.9619 C13.5329,19.9739 14.8499,21.0849 14.8499,22.7539 C14.8499,23.5259 14.5069,24.1169 14.0719,24.8659 C13.5389,25.7839 12.8759,26.9269 12.8759,28.6049 C12.8759,31.4459 15.1209,33.5459 18.8809,34.2209 C21.3109,34.6559 23.3639,36.2089 23.3849,36.2249 L23.9939,36.6879 L24.6019,36.2249 C24.6219,36.2089 26.6759,34.6559 29.1049,34.2209 C32.8649,33.5459 35.1099,31.4459 35.1099,28.6049 C35.1099,26.9269 34.4459,25.7839 33.9129,24.8659 C33.4789,24.1169 33.1359,23.5259 33.1359,22.7539 C33.1359,21.0849 34.4519,19.9739 34.4609,19.9659 L35.2459,19.3309 Z M39.7059,38.5739 C39.7059,39.1999 39.1969,39.7089 38.5709,39.7089 L9.4139,39.7089 C8.7879,39.7089 8.2789,39.1999 8.2789,38.5739 L8.2789,9.4289 C8.2789,8.8029 8.7879,8.2939 9.4139,8.2939 L38.5709,8.2939 C39.1969,8.2939 39.7059,8.8029 39.7059,9.4289 L39.7059,38.5739 Z M45.9859,14.4369 L45.9859,12.4369 L41.7059,12.4369 L41.7059,9.4289 C41.7059,7.6999 40.2999,6.2939 38.5709,6.2939 L35.5499,6.2939 L35.5499,1.9999 L33.5499,1.9999 L33.5499,6.2939 L30.2719,6.2939 L30.2719,1.9999 L28.2719,1.9999 L28.2719,6.2939 L24.9929,6.2939 L24.9929,1.9999 L22.9929,1.9999 L22.9929,6.2939 L19.7149,6.2939 L19.7149,1.9999 L17.7149,1.9999 L17.7149,6.2939 L14.4369,6.2939 L14.4369,1.9999 L12.4369,1.9999 L12.4369,6.2939 L9.4139,6.2939 C7.6859,6.2939 6.2789,7.6999 6.2789,9.4289 L6.2789,12.4369 L1.9999,12.4369 L1.9999,14.4369 L6.2789,14.4369 L6.2789,17.7159 L1.9999,17.7159 L1.9999,19.7159 L6.2789,19.7159 L6.2789,22.9939 L1.9999,22.9939 L1.9999,24.9939 L6.2789,24.9939 L6.2789,28.2729 L1.9999,28.2729 L1.9999,30.2729 L6.2789,30.2729 L6.2789,33.5509 L1.9999,33.5509 L1.9999,35.5509 L6.2789,35.5509 L6.2789,38.5739 C6.2789,40.3029 7.6859,41.7089 9.4139,41.7089 L12.4369,41.7089 L12.4369,45.9869 L14.4369,45.9869 L14.4369,41.7089 L17.7149,41.7089 L17.7149,45.9869 L19.7149,45.9869 L19.7149,41.7089 L22.9929,41.7089 L22.9929,45.9869 L24.9929,45.9869 L24.9929,41.7089 L28.2719,41.7089 L28.2719,45.9869 L30.2719,45.9869 L30.2719,41.7089 L33.5499,41.7089 L33.5499,45.9869 L35.5499,45.9869 L35.5499,41.7089 L38.5709,41.7089 C40.2999,41.7089 41.7059,40.3029 41.7059,38.5739 L41.7059,35.5509 L45.9859,35.5509 L45.9859,33.5509 L41.7059,33.5509 L41.7059,30.2729 L45.9859,30.2729 L45.9859,28.2729 L41.7059,28.2729 L41.7059,24.9939 L45.9859,24.9939 L45.9859,22.9939 L41.7059,22.9939 L41.7059,19.7159 L45.9859,19.7159 L45.9859,17.7159 L41.7059,17.7159 L41.7059,14.4369 L45.9859,14.4369 Z" id="Amazon-IOT-RESOURCES-IoT-thing-police-emergency_Resource-Icon_light-bg" fill="#000000"></path>
    </g><g transform="translate(25, 83)" id="svgGroup" stroke-linecap="round" fill-rule="evenodd" font-size="9pt" stroke="#000" stroke-width="0.25mm" fill="#000" style="stroke:#000;stroke-width:0.25mm;fill:#000"><path d="M 23.12 0.088 L 24.13 4.469 L 24.253 5.313 L 24.434 4.553 L 25.699 0.088 L 26.411 0.088 L 27.646 4.553 L 27.822 5.326 L 27.958 4.465 L 28.951 0.088 L 29.799 0.088 L 28.248 6.486 L 27.479 6.486 L 26.161 1.824 L 26.06 1.336 L 25.958 1.824 L 24.592 6.486 L 23.823 6.486 L 22.276 0.088 L 23.12 0.088 Z M 34.98 1.938 L 34.132 1.938 A 1.466 1.466 0 0 0 34.083 1.546 A 1.066 1.066 0 0 0 33.763 1.026 A 1.211 1.211 0 0 0 33.294 0.77 Q 33.042 0.694 32.722 0.694 A 2.286 2.286 0 0 0 32.342 0.724 Q 32.14 0.758 31.977 0.831 A 1.101 1.101 0 0 0 31.748 0.969 A 0.892 0.892 0 0 0 31.403 1.624 A 1.267 1.267 0 0 0 31.399 1.732 A 0.806 0.806 0 0 0 31.667 2.337 A 1.134 1.134 0 0 0 31.731 2.393 A 1.562 1.562 0 0 0 31.969 2.549 Q 32.299 2.73 32.86 2.887 A 8.228 8.228 0 0 1 33.325 3.032 Q 33.56 3.113 33.754 3.2 A 3.297 3.297 0 0 1 34.108 3.382 A 2.342 2.342 0 0 1 34.447 3.626 Q 34.637 3.792 34.759 3.985 A 1.45 1.45 0 0 1 34.776 4.012 A 1.498 1.498 0 0 1 34.972 4.568 A 1.948 1.948 0 0 1 34.994 4.86 A 1.606 1.606 0 0 1 34.871 5.497 Q 34.726 5.838 34.408 6.09 A 1.886 1.886 0 0 1 34.387 6.106 Q 33.781 6.574 32.766 6.574 A 3.023 3.023 0 0 1 31.625 6.36 A 2.917 2.917 0 0 1 31.535 6.322 A 2.383 2.383 0 0 1 31.057 6.044 A 1.874 1.874 0 0 1 30.654 5.629 A 1.689 1.689 0 0 1 30.344 4.632 L 31.192 4.632 A 1.261 1.261 0 0 0 31.262 5.059 A 1.074 1.074 0 0 0 31.621 5.548 Q 32.005 5.85 32.622 5.881 A 2.87 2.87 0 0 0 32.766 5.884 A 2.628 2.628 0 0 0 33.153 5.858 Q 33.349 5.828 33.508 5.767 A 1.129 1.129 0 0 0 33.79 5.612 Q 34.146 5.339 34.146 4.869 A 1.074 1.074 0 0 0 34.103 4.559 A 0.816 0.816 0 0 0 33.816 4.142 Q 33.486 3.885 32.621 3.634 Q 31.535 3.322 31.041 2.868 Q 30.546 2.413 30.546 1.745 Q 30.546 0.989 31.151 0.494 A 2.121 2.121 0 0 1 32.041 0.071 A 3.087 3.087 0 0 1 32.722 0 A 2.913 2.913 0 0 1 33.382 0.072 A 2.372 2.372 0 0 1 33.897 0.255 A 2.051 2.051 0 0 1 34.428 0.626 A 1.834 1.834 0 0 1 34.697 0.958 A 1.798 1.798 0 0 1 34.98 1.938 Z M 3.74 6.486 L 2.351 3.898 L 0.848 3.898 L 0.848 6.486 L 0 6.486 L 0 0.088 L 2.118 0.088 A 3.809 3.809 0 0 1 2.76 0.138 Q 3.102 0.197 3.376 0.324 A 1.789 1.789 0 0 1 3.781 0.58 A 1.588 1.588 0 0 1 4.307 1.469 A 2.453 2.453 0 0 1 4.364 2.013 A 1.864 1.864 0 0 1 4.273 2.604 A 1.64 1.64 0 0 1 4.041 3.054 A 1.849 1.849 0 0 1 3.382 3.611 A 2.342 2.342 0 0 1 3.142 3.718 L 4.645 6.434 L 4.645 6.486 L 3.74 6.486 Z M 13.724 3.129 L 12.907 3.129 Q 12.907 2.795 12.623 2.553 Q 12.34 2.312 11.909 2.312 Q 11.465 2.312 11.215 2.505 A 0.653 0.653 0 0 0 11.04 2.704 Q 10.967 2.835 10.964 3 A 0.771 0.771 0 0 0 10.964 3.01 A 0.588 0.588 0 0 0 10.994 3.203 A 0.48 0.48 0 0 0 11.197 3.454 A 1.093 1.093 0 0 0 11.348 3.533 Q 11.512 3.605 11.767 3.673 A 6.581 6.581 0 0 0 12.039 3.74 A 6.318 6.318 0 0 1 12.446 3.845 Q 12.783 3.944 13.025 4.065 A 1.901 1.901 0 0 1 13.281 4.218 Q 13.418 4.315 13.516 4.429 A 1.06 1.06 0 0 1 13.586 4.52 A 1.024 1.024 0 0 1 13.748 4.927 A 1.388 1.388 0 0 1 13.768 5.168 Q 13.768 5.805 13.258 6.19 Q 12.776 6.554 12.022 6.573 A 3.337 3.337 0 0 1 11.936 6.574 A 2.746 2.746 0 0 1 11.401 6.525 A 2.124 2.124 0 0 1 10.925 6.372 A 1.771 1.771 0 0 1 10.491 6.094 A 1.54 1.54 0 0 1 10.237 5.807 Q 9.989 5.445 9.989 5.023 L 10.802 5.023 A 0.932 0.932 0 0 0 10.875 5.348 A 0.827 0.827 0 0 0 11.129 5.671 A 1.072 1.072 0 0 0 11.531 5.864 Q 11.686 5.903 11.867 5.91 A 2.013 2.013 0 0 0 11.936 5.911 A 1.863 1.863 0 0 0 12.231 5.889 Q 12.393 5.863 12.524 5.806 A 0.941 0.941 0 0 0 12.676 5.724 A 0.689 0.689 0 0 0 12.841 5.574 A 0.554 0.554 0 0 0 12.955 5.225 A 0.698 0.698 0 0 0 12.919 4.994 A 0.581 0.581 0 0 0 12.707 4.713 A 1.05 1.05 0 0 0 12.538 4.615 Q 12.349 4.524 12.054 4.449 A 5.392 5.392 0 0 0 11.841 4.399 A 6.342 6.342 0 0 1 11.48 4.311 Q 11.11 4.209 10.861 4.083 Q 10.562 3.93 10.392 3.731 A 1.017 1.017 0 0 1 10.325 3.643 Q 10.151 3.388 10.151 3.037 A 1.206 1.206 0 0 1 10.55 2.132 A 1.694 1.694 0 0 1 10.646 2.048 A 1.752 1.752 0 0 1 11.429 1.688 A 2.471 2.471 0 0 1 11.909 1.644 A 2.559 2.559 0 0 1 12.473 1.702 A 1.757 1.757 0 0 1 13.221 2.061 Q 13.724 2.479 13.724 3.129 Z M 21.327 6.486 L 20.716 4.816 L 18.035 4.816 L 17.433 6.486 L 16.563 6.486 L 19.006 0.088 L 19.745 0.088 L 22.192 6.486 L 21.327 6.486 Z M 5.212 4.241 L 5.212 4.091 A 3.17 3.17 0 0 1 5.288 3.382 A 2.581 2.581 0 0 1 5.482 2.828 A 2.191 2.191 0 0 1 5.93 2.202 A 2.033 2.033 0 0 1 6.238 1.958 Q 6.724 1.644 7.291 1.644 A 2.254 2.254 0 0 1 7.904 1.723 A 1.639 1.639 0 0 1 8.732 2.254 Q 9.246 2.865 9.246 4.003 L 9.246 4.342 L 6.025 4.342 A 2.111 2.111 0 0 0 6.096 4.85 A 1.516 1.516 0 0 0 6.436 5.478 A 1.282 1.282 0 0 0 7.37 5.909 A 1.652 1.652 0 0 0 7.436 5.911 A 1.763 1.763 0 0 0 7.764 5.882 Q 7.988 5.839 8.165 5.735 A 1.827 1.827 0 0 0 8.674 5.287 A 2.068 2.068 0 0 0 8.688 5.269 L 9.185 5.656 A 1.926 1.926 0 0 1 7.785 6.547 A 2.749 2.749 0 0 1 7.392 6.574 A 2.394 2.394 0 0 1 6.64 6.461 A 1.974 1.974 0 0 1 5.818 5.939 Q 5.212 5.304 5.212 4.241 Z M 0.848 0.782 L 0.848 3.208 L 2.145 3.208 Q 2.685 3.208 3.035 2.968 A 1.174 1.174 0 0 0 3.144 2.883 A 1.069 1.069 0 0 0 3.51 2.146 A 1.486 1.486 0 0 0 3.516 2.013 Q 3.516 1.47 3.22 1.159 A 1 1 0 0 0 3.162 1.103 Q 2.808 0.787 2.14 0.782 L 0.848 0.782 Z M 19.375 1.129 L 18.29 4.122 L 20.465 4.122 L 19.375 1.129 Z M 6.051 3.674 L 8.433 3.674 L 8.433 3.612 Q 8.407 3.153 8.236 2.848 A 1.13 1.13 0 0 0 8.099 2.652 A 0.983 0.983 0 0 0 7.445 2.32 A 1.39 1.39 0 0 0 7.291 2.312 A 1.106 1.106 0 0 0 6.768 2.435 A 1.14 1.14 0 0 0 6.464 2.67 A 1.417 1.417 0 0 0 6.188 3.116 Q 6.114 3.3 6.074 3.522 A 2.741 2.741 0 0 0 6.051 3.674 Z" vector-effect="non-scaling-stroke"/></g><g transform="translate(25, 93)" id="svgGroup" stroke-linecap="round" fill-rule="evenodd" font-size="9pt" stroke="#000" stroke-width="0.25mm" fill="#000" style="stroke:#000;stroke-width:0.25mm;fill:#000"><path d="M 71.508 1.995 L 72.277 1.995 L 72.299 2.522 Q 72.822 1.907 73.709 1.907 A 2.009 2.009 0 0 1 74.22 1.968 A 1.244 1.244 0 0 1 75.067 2.672 A 1.801 1.801 0 0 1 75.685 2.118 A 1.65 1.65 0 0 1 76.214 1.937 A 2.209 2.209 0 0 1 76.583 1.907 A 2.119 2.119 0 0 1 77.228 1.997 Q 78.154 2.292 78.174 3.564 L 78.174 6.75 L 77.361 6.75 L 77.361 3.612 A 1.781 1.781 0 0 0 77.341 3.332 Q 77.317 3.185 77.267 3.067 A 0.758 0.758 0 0 0 77.128 2.85 A 0.68 0.68 0 0 0 76.876 2.682 Q 76.664 2.597 76.347 2.597 A 1.245 1.245 0 0 0 75.981 2.648 A 1.008 1.008 0 0 0 75.595 2.867 A 1.042 1.042 0 0 0 75.281 3.404 A 1.41 1.41 0 0 0 75.248 3.595 L 75.248 6.75 L 74.43 6.75 L 74.43 3.634 A 1.532 1.532 0 0 0 74.382 3.23 Q 74.255 2.768 73.798 2.643 A 1.457 1.457 0 0 0 73.415 2.597 Q 72.641 2.597 72.341 3.234 A 1.459 1.459 0 0 0 72.321 3.278 L 72.321 6.75 L 71.508 6.75 L 71.508 1.995 Z M 70.141 3.103 L 70.141 3.792 L 67.368 3.792 L 67.368 6.06 L 70.589 6.06 L 70.589 6.75 L 66.524 6.75 L 66.524 0.352 L 70.545 0.352 L 70.545 1.046 L 67.368 1.046 L 67.368 3.103 L 70.141 3.103 Z M 20.997 0 L 20.997 2.571 A 1.767 1.767 0 0 1 21.663 2.053 A 1.832 1.832 0 0 1 22.403 1.907 A 1.905 1.905 0 0 1 23.037 2.004 Q 23.879 2.3 23.922 3.506 A 3.668 3.668 0 0 1 23.924 3.608 L 23.924 6.75 L 23.111 6.75 L 23.111 3.604 A 1.837 1.837 0 0 0 23.089 3.324 Q 23.038 3.017 22.876 2.843 Q 22.69 2.645 22.336 2.606 A 1.66 1.66 0 0 0 22.157 2.597 A 1.253 1.253 0 0 0 21.743 2.664 A 1.123 1.123 0 0 0 21.463 2.808 A 1.432 1.432 0 0 0 20.997 3.362 L 20.997 6.75 L 20.184 6.75 L 20.184 0 L 20.997 0 Z M 142.273 6.75 L 140.616 4.548 L 140.106 5.08 L 140.106 6.75 L 139.293 6.75 L 139.293 0 L 140.106 0 L 140.106 4.083 L 140.542 3.56 L 142.022 1.995 L 143.011 1.995 L 141.161 3.981 L 143.227 6.75 L 142.273 6.75 Z M 35.332 2.522 L 35.372 1.995 L 36.114 1.995 L 36.114 6.636 A 2.511 2.511 0 0 1 36.044 7.249 A 1.738 1.738 0 0 1 35.567 8.09 A 1.834 1.834 0 0 1 34.637 8.57 A 2.671 2.671 0 0 1 34.097 8.622 A 2.446 2.446 0 0 1 33.091 8.402 A 2.003 2.003 0 0 1 32.681 8.161 A 1.563 1.563 0 0 1 32.339 7.8 L 32.761 7.313 A 1.889 1.889 0 0 0 33.196 7.712 A 1.514 1.514 0 0 0 34.04 7.958 A 1.695 1.695 0 0 0 34.417 7.919 Q 34.685 7.858 34.879 7.702 A 1.037 1.037 0 0 0 34.965 7.625 A 1.09 1.09 0 0 0 35.242 7.132 Q 35.289 6.959 35.296 6.752 A 2.134 2.134 0 0 0 35.297 6.684 L 35.297 6.275 A 1.601 1.601 0 0 1 34.245 6.821 A 2.279 2.279 0 0 1 33.965 6.838 A 1.672 1.672 0 0 1 33.21 6.67 Q 32.888 6.51 32.638 6.197 A 2.14 2.14 0 0 1 32.614 6.166 A 2.316 2.316 0 0 1 32.231 5.386 Q 32.098 4.922 32.098 4.333 Q 32.098 3.472 32.406 2.884 A 2.096 2.096 0 0 1 32.612 2.564 Q 33.126 1.907 33.974 1.907 A 1.971 1.971 0 0 1 34.573 1.994 A 1.55 1.55 0 0 1 35.332 2.522 Z M 90.171 2.522 L 90.211 1.995 L 90.954 1.995 L 90.954 6.636 A 2.511 2.511 0 0 1 90.883 7.249 A 1.738 1.738 0 0 1 90.406 8.09 A 1.834 1.834 0 0 1 89.477 8.57 A 2.671 2.671 0 0 1 88.937 8.622 A 2.446 2.446 0 0 1 87.93 8.402 A 2.003 2.003 0 0 1 87.52 8.161 A 1.563 1.563 0 0 1 87.179 7.8 L 87.601 7.313 A 1.889 1.889 0 0 0 88.035 7.712 A 1.514 1.514 0 0 0 88.879 7.958 A 1.695 1.695 0 0 0 89.256 7.919 Q 89.525 7.858 89.719 7.702 A 1.037 1.037 0 0 0 89.804 7.625 A 1.09 1.09 0 0 0 90.081 7.132 Q 90.129 6.959 90.135 6.752 A 2.134 2.134 0 0 0 90.136 6.684 L 90.136 6.275 A 1.601 1.601 0 0 1 89.084 6.821 A 2.279 2.279 0 0 1 88.805 6.838 A 1.672 1.672 0 0 1 88.049 6.67 Q 87.727 6.51 87.478 6.197 A 2.14 2.14 0 0 1 87.453 6.166 A 2.316 2.316 0 0 1 87.07 5.386 Q 86.937 4.922 86.937 4.333 Q 86.937 3.472 87.245 2.884 A 2.096 2.096 0 0 1 87.451 2.564 Q 87.965 1.907 88.813 1.907 A 1.971 1.971 0 0 1 89.412 1.994 A 1.55 1.55 0 0 1 90.171 2.522 Z M 106.994 1.995 L 108.18 5.559 L 109.288 1.995 L 110.158 1.995 L 108.246 7.484 Q 107.802 8.67 106.835 8.67 L 106.682 8.657 L 106.378 8.6 L 106.378 7.941 L 106.598 7.958 Q 106.878 7.958 107.074 7.882 A 0.75 0.75 0 0 0 107.242 7.792 A 0.749 0.749 0 0 0 107.402 7.629 Q 107.52 7.47 107.61 7.215 A 2.575 2.575 0 0 0 107.622 7.181 L 107.802 6.697 L 106.106 1.995 L 106.994 1.995 Z M 27.325 1.995 L 28.094 1.995 L 28.121 2.593 Q 28.657 1.918 29.517 1.907 A 2.234 2.234 0 0 1 29.544 1.907 A 1.905 1.905 0 0 1 30.178 2.004 Q 31.02 2.3 31.063 3.506 A 3.668 3.668 0 0 1 31.065 3.608 L 31.065 6.75 L 30.252 6.75 L 30.252 3.604 A 1.837 1.837 0 0 0 30.23 3.324 Q 30.18 3.017 30.017 2.843 Q 29.831 2.645 29.477 2.606 A 1.66 1.66 0 0 0 29.298 2.597 A 1.253 1.253 0 0 0 28.884 2.664 A 1.123 1.123 0 0 0 28.604 2.808 A 1.432 1.432 0 0 0 28.138 3.362 L 28.138 6.75 L 27.325 6.75 L 27.325 1.995 Z M 96.948 1.995 L 97.717 1.995 L 97.743 2.593 Q 98.28 1.918 99.139 1.907 A 2.234 2.234 0 0 1 99.167 1.907 A 1.905 1.905 0 0 1 99.8 2.004 Q 100.642 2.3 100.685 3.506 A 3.668 3.668 0 0 1 100.688 3.608 L 100.688 6.75 L 99.875 6.75 L 99.875 3.604 A 1.837 1.837 0 0 0 99.852 3.324 Q 99.802 3.017 99.639 2.843 Q 99.453 2.645 99.1 2.606 A 1.66 1.66 0 0 0 98.921 2.597 A 1.253 1.253 0 0 0 98.507 2.664 A 1.123 1.123 0 0 0 98.227 2.808 A 1.432 1.432 0 0 0 97.761 3.362 L 97.761 6.75 L 96.948 6.75 L 96.948 1.995 Z M 57.718 5.251 L 58.487 5.251 A 1.432 1.432 0 0 1 58.288 5.901 A 1.772 1.772 0 0 1 58.206 6.029 A 1.828 1.828 0 0 1 57.596 6.574 A 2.169 2.169 0 0 1 57.513 6.618 A 1.997 1.997 0 0 1 56.597 6.838 A 2.346 2.346 0 0 1 55.9 6.739 A 1.839 1.839 0 0 1 55.052 6.19 A 2.171 2.171 0 0 1 54.589 5.31 Q 54.479 4.909 54.479 4.417 L 54.479 4.28 A 3.24 3.24 0 0 1 54.543 3.624 A 2.57 2.57 0 0 1 54.734 3.045 A 2.008 2.008 0 0 1 55.173 2.431 A 1.892 1.892 0 0 1 55.466 2.206 A 1.943 1.943 0 0 1 56.222 1.934 A 2.529 2.529 0 0 1 56.593 1.907 A 2.196 2.196 0 0 1 57.241 1.999 A 1.786 1.786 0 0 1 57.922 2.386 A 1.693 1.693 0 0 1 58.48 3.535 A 2.239 2.239 0 0 1 58.487 3.63 L 57.718 3.63 Q 57.683 3.168 57.368 2.872 A 1.078 1.078 0 0 0 56.639 2.576 A 1.402 1.402 0 0 0 56.593 2.575 A 1.374 1.374 0 0 0 56.171 2.637 A 1.081 1.081 0 0 0 55.633 3.021 A 1.469 1.469 0 0 0 55.406 3.468 Q 55.34 3.674 55.312 3.923 A 3.514 3.514 0 0 0 55.292 4.311 L 55.292 4.465 Q 55.292 5.287 55.63 5.73 A 1.1 1.1 0 0 0 56.417 6.165 A 1.611 1.611 0 0 0 56.597 6.174 A 1.171 1.171 0 0 0 57.357 5.911 A 1.007 1.007 0 0 0 57.602 5.629 A 0.914 0.914 0 0 0 57.718 5.251 Z M 104.941 5.251 L 105.71 5.251 A 1.432 1.432 0 0 1 105.511 5.901 A 1.772 1.772 0 0 1 105.429 6.029 A 1.828 1.828 0 0 1 104.82 6.574 A 2.169 2.169 0 0 1 104.737 6.618 A 1.997 1.997 0 0 1 103.821 6.838 A 2.346 2.346 0 0 1 103.124 6.739 A 1.839 1.839 0 0 1 102.276 6.19 A 2.171 2.171 0 0 1 101.812 5.31 Q 101.703 4.909 101.703 4.417 L 101.703 4.28 A 3.24 3.24 0 0 1 101.766 3.624 A 2.57 2.57 0 0 1 101.958 3.045 A 2.008 2.008 0 0 1 102.397 2.431 A 1.892 1.892 0 0 1 102.689 2.206 A 1.943 1.943 0 0 1 103.446 1.934 A 2.529 2.529 0 0 1 103.816 1.907 A 2.196 2.196 0 0 1 104.465 1.999 A 1.786 1.786 0 0 1 105.146 2.386 A 1.693 1.693 0 0 1 105.704 3.535 A 2.239 2.239 0 0 1 105.71 3.63 L 104.941 3.63 Q 104.906 3.168 104.592 2.872 A 1.078 1.078 0 0 0 103.863 2.576 A 1.402 1.402 0 0 0 103.816 2.575 A 1.374 1.374 0 0 0 103.395 2.637 A 1.081 1.081 0 0 0 102.856 3.021 A 1.469 1.469 0 0 0 102.629 3.468 Q 102.564 3.674 102.536 3.923 A 3.514 3.514 0 0 0 102.516 4.311 L 102.516 4.465 Q 102.516 5.287 102.854 5.73 A 1.1 1.1 0 0 0 103.641 6.165 A 1.611 1.611 0 0 0 103.821 6.174 A 1.171 1.171 0 0 0 104.581 5.911 A 1.007 1.007 0 0 0 104.825 5.629 A 0.914 0.914 0 0 0 104.941 5.251 Z M 11.94 0.352 L 11.94 1.046 L 9.883 1.046 L 9.883 6.75 L 9.044 6.75 L 9.044 1.046 L 6.992 1.046 L 6.992 0.352 L 11.94 0.352 Z M 19.362 0.352 L 19.362 1.046 L 17.306 1.046 L 17.306 6.75 L 16.466 6.75 L 16.466 1.046 L 14.414 1.046 L 14.414 0.352 L 19.362 0.352 Z M 135.136 6.75 L 134.284 6.75 A 0.632 0.632 0 0 1 134.248 6.66 Q 134.217 6.562 134.192 6.41 A 3.997 3.997 0 0 1 134.169 6.249 Q 133.603 6.838 132.816 6.838 A 2.033 2.033 0 0 1 132.287 6.772 A 1.529 1.529 0 0 1 131.662 6.44 Q 131.212 6.042 131.212 5.432 Q 131.212 4.689 131.777 4.278 Q 132.341 3.867 133.365 3.867 L 134.156 3.867 L 134.156 3.494 A 1.152 1.152 0 0 0 134.121 3.199 A 0.828 0.828 0 0 0 133.901 2.815 Q 133.685 2.6 133.295 2.568 A 1.748 1.748 0 0 0 133.15 2.562 Q 132.715 2.562 132.42 2.782 Q 132.126 3.001 132.126 3.313 L 131.309 3.313 A 1.041 1.041 0 0 1 131.434 2.825 A 1.409 1.409 0 0 1 131.561 2.626 Q 131.814 2.294 132.247 2.101 A 2.249 2.249 0 0 1 133.023 1.913 A 2.669 2.669 0 0 1 133.198 1.907 A 2.65 2.65 0 0 1 133.716 1.955 Q 134.023 2.016 134.262 2.156 A 1.439 1.439 0 0 1 134.486 2.318 A 1.396 1.396 0 0 1 134.939 3.144 A 1.998 1.998 0 0 1 134.969 3.45 L 134.969 5.638 Q 134.969 6.073 135.043 6.39 A 1.707 1.707 0 0 0 135.136 6.68 L 135.136 6.75 Z M 59.194 4.504 L 59.194 4.355 A 3.17 3.17 0 0 1 59.271 3.646 A 2.581 2.581 0 0 1 59.465 3.092 A 2.191 2.191 0 0 1 59.912 2.466 A 2.033 2.033 0 0 1 60.22 2.221 Q 60.706 1.907 61.273 1.907 A 2.254 2.254 0 0 1 61.886 1.986 A 1.639 1.639 0 0 1 62.714 2.518 Q 63.229 3.129 63.229 4.267 L 63.229 4.605 L 60.007 4.605 A 2.111 2.111 0 0 0 60.078 5.114 A 1.516 1.516 0 0 0 60.418 5.741 A 1.282 1.282 0 0 0 61.352 6.173 A 1.652 1.652 0 0 0 61.418 6.174 A 1.763 1.763 0 0 0 61.746 6.145 Q 61.97 6.103 62.147 5.999 A 1.827 1.827 0 0 0 62.656 5.551 A 2.068 2.068 0 0 0 62.67 5.533 L 63.167 5.919 A 1.926 1.926 0 0 1 61.767 6.811 A 2.749 2.749 0 0 1 61.374 6.838 A 2.394 2.394 0 0 1 60.623 6.725 A 1.974 1.974 0 0 1 59.801 6.203 Q 59.194 5.568 59.194 4.504 Z M 79.194 4.504 L 79.194 4.355 A 3.17 3.17 0 0 1 79.27 3.646 A 2.581 2.581 0 0 1 79.464 3.092 A 2.191 2.191 0 0 1 79.912 2.466 A 2.033 2.033 0 0 1 80.22 2.221 Q 80.706 1.907 81.272 1.907 A 2.254 2.254 0 0 1 81.886 1.986 A 1.639 1.639 0 0 1 82.714 2.518 Q 83.228 3.129 83.228 4.267 L 83.228 4.605 L 80.007 4.605 A 2.111 2.111 0 0 0 80.078 5.114 A 1.516 1.516 0 0 0 80.418 5.741 A 1.282 1.282 0 0 0 81.352 6.173 A 1.652 1.652 0 0 0 81.417 6.174 A 1.763 1.763 0 0 0 81.746 6.145 Q 81.97 6.103 82.147 5.999 A 1.827 1.827 0 0 0 82.656 5.551 A 2.068 2.068 0 0 0 82.67 5.533 L 83.167 5.919 A 1.926 1.926 0 0 1 81.767 6.811 A 2.749 2.749 0 0 1 81.374 6.838 A 2.394 2.394 0 0 1 80.622 6.725 A 1.974 1.974 0 0 1 79.8 6.203 Q 79.194 5.568 79.194 4.504 Z M 91.973 4.504 L 91.973 4.355 A 3.17 3.17 0 0 1 92.049 3.646 A 2.581 2.581 0 0 1 92.243 3.092 A 2.191 2.191 0 0 1 92.691 2.466 A 2.033 2.033 0 0 1 92.999 2.221 Q 93.485 1.907 94.052 1.907 A 2.254 2.254 0 0 1 94.665 1.986 A 1.639 1.639 0 0 1 95.493 2.518 Q 96.007 3.129 96.007 4.267 L 96.007 4.605 L 92.786 4.605 A 2.111 2.111 0 0 0 92.857 5.114 A 1.516 1.516 0 0 0 93.197 5.741 A 1.282 1.282 0 0 0 94.131 6.173 A 1.652 1.652 0 0 0 94.197 6.174 A 1.763 1.763 0 0 0 94.525 6.145 Q 94.749 6.103 94.926 5.999 A 1.827 1.827 0 0 0 95.435 5.551 A 2.068 2.068 0 0 0 95.449 5.533 L 95.946 5.919 A 1.926 1.926 0 0 1 94.546 6.811 A 2.749 2.749 0 0 1 94.153 6.838 A 2.394 2.394 0 0 1 93.402 6.725 A 1.974 1.974 0 0 1 92.58 6.203 Q 91.973 5.568 91.973 4.504 Z M 42.047 4.245 L 40.54 4.245 L 40.54 6.75 L 39.696 6.75 L 39.696 0.352 L 42.056 0.352 A 3.315 3.315 0 0 1 42.721 0.414 Q 43.123 0.497 43.434 0.688 A 1.839 1.839 0 0 1 43.701 0.888 A 1.772 1.772 0 0 1 44.289 2.105 A 2.45 2.45 0 0 1 44.297 2.307 Q 44.297 3.239 43.715 3.742 Q 43.236 4.156 42.417 4.229 A 4.14 4.14 0 0 1 42.047 4.245 Z M 116.459 0.352 L 116.459 4.601 L 117.347 4.601 L 117.347 5.265 L 116.459 5.265 L 116.459 6.75 L 115.642 6.75 L 115.642 5.265 L 112.729 5.265 L 112.729 4.786 L 115.594 0.352 L 116.459 0.352 Z M 127.345 6.75 L 125.574 6.75 L 125.574 0.352 L 127.38 0.352 Q 128.215 0.352 128.856 0.721 Q 129.498 1.09 129.847 1.771 A 3.19 3.19 0 0 1 130.164 2.8 A 4.073 4.073 0 0 1 130.201 3.335 L 130.201 3.744 Q 130.201 4.649 129.852 5.331 A 2.457 2.457 0 0 1 128.854 6.376 Q 128.206 6.741 127.345 6.75 Z M 121.858 2.592 A 1.544 1.544 0 0 0 121.961 2.021 A 2.226 2.226 0 0 0 121.94 1.707 A 1.566 1.566 0 0 0 121.441 0.738 A 1.754 1.754 0 0 0 120.675 0.333 A 2.443 2.443 0 0 0 120.076 0.264 A 2.539 2.539 0 0 0 119.567 0.312 A 1.767 1.767 0 0 0 118.709 0.738 Q 118.191 1.213 118.191 2.021 A 1.808 1.808 0 0 0 118.191 2.058 A 1.499 1.499 0 0 0 118.437 2.87 A 1.626 1.626 0 0 0 118.599 3.077 A 1.726 1.726 0 0 0 119.109 3.454 A 2.119 2.119 0 0 0 119.01 3.5 A 1.738 1.738 0 0 0 118.325 4.087 A 1.629 1.629 0 0 0 118.042 5.023 A 2.272 2.272 0 0 0 118.051 5.237 A 1.63 1.63 0 0 0 118.597 6.344 A 1.895 1.895 0 0 0 119.448 6.771 A 2.797 2.797 0 0 0 120.076 6.838 A 2.796 2.796 0 0 0 120.675 6.777 A 1.925 1.925 0 0 0 121.551 6.346 A 1.578 1.578 0 0 0 122.025 5.62 A 1.989 1.989 0 0 0 122.111 5.023 A 1.581 1.581 0 0 0 121.819 4.087 Q 121.526 3.674 121.025 3.458 Q 121.456 3.248 121.709 2.874 A 1.449 1.449 0 0 0 121.858 2.592 Z M 51.205 0 L 51.205 6.75 L 50.392 6.75 L 50.392 0 L 51.205 0 Z M 2.043 4.386 L 2.043 4.329 A 3.057 3.057 0 0 1 2.13 3.587 A 2.573 2.573 0 0 1 2.318 3.072 A 2.16 2.16 0 0 1 2.733 2.486 A 1.957 1.957 0 0 1 3.083 2.21 A 2.036 2.036 0 0 1 4.027 1.913 A 2.491 2.491 0 0 1 4.201 1.907 A 2.277 2.277 0 0 1 4.955 2.027 A 1.937 1.937 0 0 1 5.772 2.58 A 2.29 2.29 0 0 1 6.291 3.608 A 3.373 3.373 0 0 1 6.372 4.368 L 6.372 4.425 A 3.114 3.114 0 0 1 6.293 5.142 A 2.577 2.577 0 0 1 6.106 5.671 A 2.056 2.056 0 0 1 5.579 6.361 A 2.001 2.001 0 0 1 5.346 6.53 A 2.045 2.045 0 0 1 4.426 6.829 A 2.529 2.529 0 0 1 4.21 6.838 A 2.262 2.262 0 0 1 3.46 6.718 A 1.938 1.938 0 0 1 2.643 6.166 A 2.297 2.297 0 0 1 2.118 5.111 A 3.357 3.357 0 0 1 2.043 4.386 Z M 44.974 4.386 L 44.974 4.329 A 3.057 3.057 0 0 1 45.061 3.587 A 2.573 2.573 0 0 1 45.248 3.072 A 2.16 2.16 0 0 1 45.663 2.486 A 1.957 1.957 0 0 1 46.013 2.21 A 2.036 2.036 0 0 1 46.957 1.913 A 2.491 2.491 0 0 1 47.131 1.907 A 2.277 2.277 0 0 1 47.885 2.027 A 1.937 1.937 0 0 1 48.702 2.58 A 2.29 2.29 0 0 1 49.221 3.608 A 3.373 3.373 0 0 1 49.302 4.368 L 49.302 4.425 A 3.114 3.114 0 0 1 49.223 5.142 A 2.577 2.577 0 0 1 49.036 5.671 A 2.056 2.056 0 0 1 48.509 6.361 A 2.001 2.001 0 0 1 48.276 6.53 A 2.045 2.045 0 0 1 47.356 6.829 A 2.529 2.529 0 0 1 47.14 6.838 A 2.262 2.262 0 0 1 46.39 6.718 A 1.938 1.938 0 0 1 45.573 6.166 A 2.297 2.297 0 0 1 45.048 5.111 A 3.357 3.357 0 0 1 44.974 4.386 Z M 86.467 1.969 L 86.467 2.725 A 2.251 2.251 0 0 0 86.224 2.698 A 2.782 2.782 0 0 0 86.067 2.694 Q 85.289 2.694 84.998 3.338 A 1.445 1.445 0 0 0 84.981 3.375 L 84.981 6.75 L 84.168 6.75 L 84.168 1.995 L 84.959 1.995 L 84.973 2.544 Q 85.353 1.938 86.036 1.909 A 1.636 1.636 0 0 1 86.106 1.907 Q 86.344 1.907 86.467 1.969 Z M 138.542 1.969 L 138.542 2.725 A 2.251 2.251 0 0 0 138.299 2.698 A 2.782 2.782 0 0 0 138.142 2.694 Q 137.364 2.694 137.073 3.338 A 1.445 1.445 0 0 0 137.057 3.375 L 137.057 6.75 L 136.244 6.75 L 136.244 1.995 L 137.035 1.995 L 137.048 2.544 Q 137.428 1.938 138.111 1.909 A 1.636 1.636 0 0 1 138.182 1.907 Q 138.419 1.907 138.542 1.969 Z M 0.844 0.352 L 0.844 6.75 L 0 6.75 L 0 0.352 L 0.844 0.352 Z M 127.402 1.046 L 126.417 1.046 L 126.417 6.06 L 127.305 6.06 A 2.519 2.519 0 0 0 127.938 5.985 A 1.747 1.747 0 0 0 128.823 5.454 Q 129.283 4.94 129.353 4.059 A 4.165 4.165 0 0 0 129.366 3.727 L 129.366 3.353 Q 129.366 2.562 129.097 2.027 A 1.864 1.864 0 0 0 128.854 1.659 A 1.687 1.687 0 0 0 127.858 1.09 A 2.499 2.499 0 0 0 127.402 1.046 Z M 26.024 1.995 L 26.024 6.75 L 25.211 6.75 L 25.211 1.995 L 26.024 1.995 Z M 53.389 1.995 L 53.389 6.75 L 52.576 6.75 L 52.576 1.995 L 53.389 1.995 Z M 2.861 4.425 A 2.772 2.772 0 0 0 2.908 4.954 Q 2.969 5.264 3.106 5.51 A 1.545 1.545 0 0 0 3.228 5.695 Q 3.595 6.174 4.21 6.174 A 1.269 1.269 0 0 0 4.699 6.083 Q 4.979 5.967 5.181 5.706 A 1.471 1.471 0 0 0 5.194 5.689 A 1.648 1.648 0 0 0 5.449 5.171 Q 5.518 4.945 5.544 4.672 A 3.655 3.655 0 0 0 5.559 4.329 A 2.687 2.687 0 0 0 5.508 3.789 Q 5.44 3.459 5.283 3.2 A 1.586 1.586 0 0 0 5.188 3.061 A 1.231 1.231 0 0 0 4.773 2.705 Q 4.52 2.575 4.201 2.575 Q 3.611 2.575 3.245 3.035 A 1.515 1.515 0 0 0 3.23 3.054 A 1.589 1.589 0 0 0 2.978 3.552 Q 2.908 3.772 2.88 4.039 A 3.676 3.676 0 0 0 2.861 4.425 Z M 45.791 4.425 A 2.772 2.772 0 0 0 45.838 4.954 Q 45.899 5.264 46.036 5.51 A 1.545 1.545 0 0 0 46.158 5.695 Q 46.525 6.174 47.14 6.174 A 1.269 1.269 0 0 0 47.63 6.083 Q 47.909 5.967 48.112 5.706 A 1.471 1.471 0 0 0 48.125 5.689 A 1.648 1.648 0 0 0 48.379 5.171 Q 48.448 4.945 48.474 4.672 A 3.655 3.655 0 0 0 48.489 4.329 A 2.687 2.687 0 0 0 48.438 3.789 Q 48.37 3.459 48.213 3.2 A 1.586 1.586 0 0 0 48.118 3.061 A 1.231 1.231 0 0 0 47.703 2.705 Q 47.45 2.575 47.131 2.575 Q 46.541 2.575 46.175 3.035 A 1.515 1.515 0 0 0 46.16 3.054 A 1.589 1.589 0 0 0 45.908 3.552 Q 45.839 3.772 45.81 4.039 A 3.676 3.676 0 0 0 45.791 4.425 Z M 35.297 5.449 L 35.297 3.278 A 1.439 1.439 0 0 0 34.996 2.891 Q 34.692 2.62 34.252 2.599 A 1.578 1.578 0 0 0 34.176 2.597 Q 33.584 2.597 33.251 3.056 A 1.51 1.51 0 0 0 33.04 3.484 Q 32.974 3.689 32.943 3.939 A 3.955 3.955 0 0 0 32.915 4.425 Q 32.915 5.229 33.245 5.689 Q 33.574 6.148 34.167 6.148 A 1.32 1.32 0 0 0 34.677 6.054 Q 35.069 5.891 35.297 5.449 Z M 90.136 5.449 L 90.136 3.278 A 1.439 1.439 0 0 0 89.835 2.891 Q 89.532 2.62 89.091 2.599 A 1.578 1.578 0 0 0 89.016 2.597 Q 88.424 2.597 88.09 3.056 A 1.51 1.51 0 0 0 87.879 3.484 Q 87.813 3.689 87.782 3.939 A 3.955 3.955 0 0 0 87.754 4.425 Q 87.754 5.229 88.084 5.689 Q 88.414 6.148 89.007 6.148 A 1.32 1.32 0 0 0 89.516 6.054 Q 89.908 5.891 90.136 5.449 Z M 40.54 1.046 L 40.54 3.555 L 42.056 3.555 A 2.313 2.313 0 0 0 42.448 3.524 Q 42.665 3.487 42.838 3.404 A 1.097 1.097 0 0 0 43.093 3.237 A 1.028 1.028 0 0 0 43.411 2.696 Q 43.452 2.528 43.453 2.329 A 1.996 1.996 0 0 0 43.453 2.316 A 1.466 1.466 0 0 0 43.399 1.908 A 1.112 1.112 0 0 0 43.093 1.402 Q 42.732 1.059 42.104 1.046 L 40.54 1.046 Z M 115.545 1.639 L 113.651 4.601 L 115.642 4.601 L 115.642 1.463 L 115.545 1.639 Z M 121.298 5.005 A 1.375 1.375 0 0 0 121.238 4.592 A 1.109 1.109 0 0 0 120.957 4.131 A 1.148 1.148 0 0 0 120.286 3.807 A 1.593 1.593 0 0 0 120.067 3.792 A 1.466 1.466 0 0 0 119.679 3.841 A 1.086 1.086 0 0 0 119.186 4.126 A 1.123 1.123 0 0 0 118.873 4.762 A 1.572 1.572 0 0 0 118.854 5.005 A 1.48 1.48 0 0 0 118.896 5.367 A 1.019 1.019 0 0 0 119.177 5.862 Q 119.484 6.158 120.017 6.173 A 2.053 2.053 0 0 0 120.076 6.174 Q 120.57 6.174 120.88 5.94 A 1.018 1.018 0 0 0 120.973 5.86 A 1.041 1.041 0 0 0 121.272 5.292 A 1.518 1.518 0 0 0 121.298 5.005 Z M 120.076 0.932 A 1.259 1.259 0 0 0 119.723 0.979 A 0.973 0.973 0 0 0 119.301 1.228 Q 119.004 1.525 119.004 2.035 A 1.325 1.325 0 0 0 119.048 2.387 A 0.994 0.994 0 0 0 119.296 2.823 A 0.974 0.974 0 0 0 119.858 3.108 A 1.382 1.382 0 0 0 120.076 3.125 A 1.279 1.279 0 0 0 120.421 3.08 A 0.952 0.952 0 0 0 120.856 2.823 A 1.018 1.018 0 0 0 121.131 2.26 A 1.426 1.426 0 0 0 121.148 2.035 A 1.282 1.282 0 0 0 121.098 1.668 A 1.013 1.013 0 0 0 120.845 1.239 Q 120.542 0.932 120.076 0.932 Z M 134.156 5.418 L 134.156 4.443 L 133.519 4.443 Q 132.025 4.443 132.025 5.317 Q 132.025 5.7 132.28 5.915 A 0.893 0.893 0 0 0 132.693 6.108 A 1.259 1.259 0 0 0 132.935 6.13 A 1.429 1.429 0 0 0 133.66 5.933 A 1.335 1.335 0 0 0 133.955 5.705 A 1.108 1.108 0 0 0 134.156 5.418 Z M 60.034 3.938 L 62.416 3.938 L 62.416 3.876 Q 62.389 3.417 62.219 3.111 A 1.13 1.13 0 0 0 62.082 2.916 A 0.983 0.983 0 0 0 61.427 2.584 A 1.39 1.39 0 0 0 61.273 2.575 A 1.106 1.106 0 0 0 60.75 2.698 A 1.14 1.14 0 0 0 60.447 2.933 A 1.417 1.417 0 0 0 60.17 3.379 Q 60.097 3.563 60.057 3.785 A 2.741 2.741 0 0 0 60.034 3.938 Z M 80.033 3.938 L 82.415 3.938 L 82.415 3.876 Q 82.389 3.417 82.218 3.111 A 1.13 1.13 0 0 0 82.081 2.916 A 0.983 0.983 0 0 0 81.427 2.584 A 1.39 1.39 0 0 0 81.272 2.575 A 1.106 1.106 0 0 0 80.75 2.698 A 1.14 1.14 0 0 0 80.446 2.933 A 1.417 1.417 0 0 0 80.17 3.379 Q 80.096 3.563 80.056 3.785 A 2.741 2.741 0 0 0 80.033 3.938 Z M 92.813 3.938 L 95.194 3.938 L 95.194 3.876 Q 95.168 3.417 94.998 3.111 A 1.13 1.13 0 0 0 94.86 2.916 A 0.983 0.983 0 0 0 94.206 2.584 A 1.39 1.39 0 0 0 94.052 2.575 A 1.106 1.106 0 0 0 93.529 2.698 A 1.14 1.14 0 0 0 93.226 2.933 A 1.417 1.417 0 0 0 92.949 3.379 Q 92.875 3.563 92.835 3.785 A 2.741 2.741 0 0 0 92.813 3.938 Z M 25.146 0.734 Q 25.146 0.536 25.266 0.4 Q 25.378 0.274 25.59 0.264 A 0.783 0.783 0 0 1 25.625 0.264 Q 25.862 0.264 25.985 0.4 A 0.474 0.474 0 0 1 26.107 0.703 A 0.614 0.614 0 0 1 26.108 0.734 A 0.523 0.523 0 0 1 26.083 0.9 A 0.442 0.442 0 0 1 25.985 1.063 Q 25.872 1.184 25.664 1.194 A 0.803 0.803 0 0 1 25.625 1.195 Q 25.452 1.195 25.341 1.126 A 0.362 0.362 0 0 1 25.266 1.063 A 0.456 0.456 0 0 1 25.148 0.788 A 0.605 0.605 0 0 1 25.146 0.734 Z M 52.51 0.734 Q 52.51 0.536 52.631 0.4 Q 52.743 0.274 52.955 0.264 A 0.783 0.783 0 0 1 52.989 0.264 Q 53.227 0.264 53.35 0.4 A 0.474 0.474 0 0 1 53.472 0.703 A 0.614 0.614 0 0 1 53.473 0.734 A 0.523 0.523 0 0 1 53.447 0.9 A 0.442 0.442 0 0 1 53.35 1.063 Q 53.237 1.184 53.029 1.194 A 0.803 0.803 0 0 1 52.989 1.195 Q 52.817 1.195 52.706 1.126 A 0.362 0.362 0 0 1 52.631 1.063 A 0.456 0.456 0 0 1 52.513 0.788 A 0.605 0.605 0 0 1 52.51 0.734 Z" vector-effect="non-scaling-stroke"/></g>
</svg>