<?xml version="1.0" encoding="UTF-8"?>
<svg width="48px" height="48px" viewBox="0 0 48 48" version="1.1" xmlns="http://www.w3.org/2000/svg" xmlns:xlink="http://www.w3.org/1999/xlink">
    <title>Icon-Resource/IoT/Res_IoT_Thing_Utility_48_Dark</title>
    <g id="Icon-Resource/IoT/Res_IoT_Thing_Utility_48" stroke="none" stroke-width="1" fill="none" fill-rule="evenodd">
        <path transform="translate(12.000000, 8.000000), scale(.65)" d="M31.1651,35.006 C31.1651,34.482 31.8391,33.177 32.3651,32.223 C32.8921,33.178 33.5651,34.482 33.5651,35.006 C33.5651,35.668 33.0271,36.206 32.3651,36.206 C31.7031,36.206 31.1651,35.668 31.1651,35.006 Z M32.3651,29.165 C31.9861,29.165 31.6391,29.379 31.4701,29.718 C31.3761,29.907 31.2161,30.187 31.0261,30.521 C30.0081,32.316 29.1651,33.893 29.1651,35.006 C29.1651,36.77 30.6001,38.206 32.3651,38.206 C34.1301,38.206 35.5651,36.77 35.5651,35.006 C35.5651,33.892 34.7201,32.313 33.7001,30.516 C33.5121,30.184 33.3531,29.905 33.2601,29.718 C33.0901,29.379 32.7441,29.165 32.3651,29.165 Z M33.5651,26.524 L30.2071,26.524 L30.2071,24.879 C30.2071,23.868 29.3851,23.046 28.3751,23.046 L12.6811,23.046 L12.6811,19.723 L28.9211,19.723 C31.4811,19.723 33.5651,21.807 33.5651,24.368 L33.5651,26.524 Z M17.9631,13.323 L28.2851,13.323 L28.2851,12.682 L17.9631,12.682 L17.9631,13.323 Z M24.1241,17.723 L24.1241,15.322 L29.2851,15.322 C29.8381,15.322 30.2851,14.875 30.2851,14.322 L30.2851,11.682 C30.2851,11.129 29.8381,10.682 29.2851,10.682 L16.9631,10.682 C16.4101,10.682 15.9631,11.129 15.9631,11.682 L15.9631,14.322 C15.9631,14.875 16.4101,15.322 16.9631,15.322 L22.1241,15.322 L22.1241,17.723 L11.6811,17.723 C11.1291,17.723 10.6811,18.17 10.6811,18.723 L10.6811,24.046 C10.6811,24.599 11.1291,25.046 11.6811,25.046 L28.2071,25.046 L28.2071,27.524 C28.2071,28.077 28.6541,28.524 29.2071,28.524 L34.5651,28.524 C35.1181,28.524 35.5651,28.077 35.5651,27.524 L35.5651,24.368 C35.5651,20.704 32.5851,17.723 28.9211,17.723 L24.1241,17.723 Z M39.7251,38.592 C39.7251,39.218 39.2171,39.727 38.5911,39.727 L9.4181,39.727 C8.7921,39.727 8.2831,39.218 8.2831,38.592 L8.2831,9.431 C8.2831,8.805 8.7921,8.296 9.4181,8.296 L38.5911,8.296 C39.2171,8.296 39.7251,8.805 39.7251,9.431 L39.7251,38.592 Z M46.0081,14.441 L46.0081,12.441 L41.7251,12.441 L41.7251,9.431 C41.7251,7.702 40.3191,6.296 38.5911,6.296 L35.5651,6.296 L35.5651,2 L33.5651,2 L33.5651,6.296 L30.2851,6.296 L30.2851,2 L28.2851,2 L28.2851,6.296 L25.0041,6.296 L25.0041,2 L23.0041,2 L23.0041,6.296 L19.7231,6.296 L19.7231,2 L17.7231,2 L17.7231,6.296 L14.4421,6.296 L14.4421,2 L12.4421,2 L12.4421,6.296 L9.4181,6.296 C7.6891,6.296 6.2831,7.702 6.2831,9.431 L6.2831,12.441 L2.0001,12.441 L2.0001,14.441 L6.2831,14.441 L6.2831,17.723 L2.0001,17.723 L2.0001,19.723 L6.2831,19.723 L6.2831,23.004 L2.0001,23.004 L2.0001,25.004 L6.2831,25.004 L6.2831,28.284 L2.0001,28.284 L2.0001,30.284 L6.2831,30.284 L6.2831,33.565 L2.0001,33.565 L2.0001,35.565 L6.2831,35.565 L6.2831,38.592 C6.2831,40.32 7.6891,41.727 9.4181,41.727 L12.4421,41.727 L12.4421,46.007 L14.4421,46.007 L14.4421,41.727 L17.7231,41.727 L17.7231,46.007 L19.7231,46.007 L19.7231,41.727 L23.0041,41.727 L23.0041,46.007 L25.0041,46.007 L25.0041,41.727 L28.2851,41.727 L28.2851,46.007 L30.2851,46.007 L30.2851,41.727 L33.5651,41.727 L33.5651,46.007 L35.5651,46.007 L35.5651,41.727 L38.5911,41.727 C40.3191,41.727 41.7251,40.32 41.7251,38.592 L41.7251,35.565 L46.0081,35.565 L46.0081,33.565 L41.7251,33.565 L41.7251,30.284 L46.0081,30.284 L46.0081,28.284 L41.7251,28.284 L41.7251,25.004 L46.0081,25.004 L46.0081,23.004 L41.7251,23.004 L41.7251,19.723 L46.0081,19.723 L46.0081,17.723 L41.7251,17.723 L41.7251,14.441 L46.0081,14.441 Z" id="Amazon-IOT-RESOURCES-IoT-thing-utility_Resource-Icon-light-bg" fill="#000000"></path>
    </g><g transform="translate(25, 83)" id="svgGroup" stroke-linecap="round" fill-rule="evenodd" font-size="9pt" stroke="#000" stroke-width="0.25mm" fill="#000" style="stroke:#000;stroke-width:0.25mm;fill:#000"><path d="M 23.12 0.088 L 24.13 4.469 L 24.253 5.313 L 24.434 4.553 L 25.699 0.088 L 26.411 0.088 L 27.646 4.553 L 27.822 5.326 L 27.958 4.465 L 28.951 0.088 L 29.799 0.088 L 28.248 6.486 L 27.479 6.486 L 26.161 1.824 L 26.06 1.336 L 25.958 1.824 L 24.592 6.486 L 23.823 6.486 L 22.276 0.088 L 23.12 0.088 Z M 34.98 1.938 L 34.132 1.938 A 1.466 1.466 0 0 0 34.083 1.546 A 1.066 1.066 0 0 0 33.763 1.026 A 1.211 1.211 0 0 0 33.294 0.77 Q 33.042 0.694 32.722 0.694 A 2.286 2.286 0 0 0 32.342 0.724 Q 32.14 0.758 31.977 0.831 A 1.101 1.101 0 0 0 31.748 0.969 A 0.892 0.892 0 0 0 31.403 1.624 A 1.267 1.267 0 0 0 31.399 1.732 A 0.806 0.806 0 0 0 31.667 2.337 A 1.134 1.134 0 0 0 31.731 2.393 A 1.562 1.562 0 0 0 31.969 2.549 Q 32.299 2.73 32.86 2.887 A 8.228 8.228 0 0 1 33.325 3.032 Q 33.56 3.113 33.754 3.2 A 3.297 3.297 0 0 1 34.108 3.382 A 2.342 2.342 0 0 1 34.447 3.626 Q 34.637 3.792 34.759 3.985 A 1.45 1.45 0 0 1 34.776 4.012 A 1.498 1.498 0 0 1 34.972 4.568 A 1.948 1.948 0 0 1 34.994 4.86 A 1.606 1.606 0 0 1 34.871 5.497 Q 34.726 5.838 34.408 6.09 A 1.886 1.886 0 0 1 34.387 6.106 Q 33.781 6.574 32.766 6.574 A 3.023 3.023 0 0 1 31.625 6.36 A 2.917 2.917 0 0 1 31.535 6.322 A 2.383 2.383 0 0 1 31.057 6.044 A 1.874 1.874 0 0 1 30.654 5.629 A 1.689 1.689 0 0 1 30.344 4.632 L 31.192 4.632 A 1.261 1.261 0 0 0 31.262 5.059 A 1.074 1.074 0 0 0 31.621 5.548 Q 32.005 5.85 32.622 5.881 A 2.87 2.87 0 0 0 32.766 5.884 A 2.628 2.628 0 0 0 33.153 5.858 Q 33.349 5.828 33.508 5.767 A 1.129 1.129 0 0 0 33.79 5.612 Q 34.146 5.339 34.146 4.869 A 1.074 1.074 0 0 0 34.103 4.559 A 0.816 0.816 0 0 0 33.816 4.142 Q 33.486 3.885 32.621 3.634 Q 31.535 3.322 31.041 2.868 Q 30.546 2.413 30.546 1.745 Q 30.546 0.989 31.151 0.494 A 2.121 2.121 0 0 1 32.041 0.071 A 3.087 3.087 0 0 1 32.722 0 A 2.913 2.913 0 0 1 33.382 0.072 A 2.372 2.372 0 0 1 33.897 0.255 A 2.051 2.051 0 0 1 34.428 0.626 A 1.834 1.834 0 0 1 34.697 0.958 A 1.798 1.798 0 0 1 34.98 1.938 Z M 3.74 6.486 L 2.351 3.898 L 0.848 3.898 L 0.848 6.486 L 0 6.486 L 0 0.088 L 2.118 0.088 A 3.809 3.809 0 0 1 2.76 0.138 Q 3.102 0.197 3.376 0.324 A 1.789 1.789 0 0 1 3.781 0.58 A 1.588 1.588 0 0 1 4.307 1.469 A 2.453 2.453 0 0 1 4.364 2.013 A 1.864 1.864 0 0 1 4.273 2.604 A 1.64 1.64 0 0 1 4.041 3.054 A 1.849 1.849 0 0 1 3.382 3.611 A 2.342 2.342 0 0 1 3.142 3.718 L 4.645 6.434 L 4.645 6.486 L 3.74 6.486 Z M 13.724 3.129 L 12.907 3.129 Q 12.907 2.795 12.623 2.553 Q 12.34 2.312 11.909 2.312 Q 11.465 2.312 11.215 2.505 A 0.653 0.653 0 0 0 11.04 2.704 Q 10.967 2.835 10.964 3 A 0.771 0.771 0 0 0 10.964 3.01 A 0.588 0.588 0 0 0 10.994 3.203 A 0.48 0.48 0 0 0 11.197 3.454 A 1.093 1.093 0 0 0 11.348 3.533 Q 11.512 3.605 11.767 3.673 A 6.581 6.581 0 0 0 12.039 3.74 A 6.318 6.318 0 0 1 12.446 3.845 Q 12.783 3.944 13.025 4.065 A 1.901 1.901 0 0 1 13.281 4.218 Q 13.418 4.315 13.516 4.429 A 1.06 1.06 0 0 1 13.586 4.52 A 1.024 1.024 0 0 1 13.748 4.927 A 1.388 1.388 0 0 1 13.768 5.168 Q 13.768 5.805 13.258 6.19 Q 12.776 6.554 12.022 6.573 A 3.337 3.337 0 0 1 11.936 6.574 A 2.746 2.746 0 0 1 11.401 6.525 A 2.124 2.124 0 0 1 10.925 6.372 A 1.771 1.771 0 0 1 10.491 6.094 A 1.54 1.54 0 0 1 10.237 5.807 Q 9.989 5.445 9.989 5.023 L 10.802 5.023 A 0.932 0.932 0 0 0 10.875 5.348 A 0.827 0.827 0 0 0 11.129 5.671 A 1.072 1.072 0 0 0 11.531 5.864 Q 11.686 5.903 11.867 5.91 A 2.013 2.013 0 0 0 11.936 5.911 A 1.863 1.863 0 0 0 12.231 5.889 Q 12.393 5.863 12.524 5.806 A 0.941 0.941 0 0 0 12.676 5.724 A 0.689 0.689 0 0 0 12.841 5.574 A 0.554 0.554 0 0 0 12.955 5.225 A 0.698 0.698 0 0 0 12.919 4.994 A 0.581 0.581 0 0 0 12.707 4.713 A 1.05 1.05 0 0 0 12.538 4.615 Q 12.349 4.524 12.054 4.449 A 5.392 5.392 0 0 0 11.841 4.399 A 6.342 6.342 0 0 1 11.48 4.311 Q 11.11 4.209 10.861 4.083 Q 10.562 3.93 10.392 3.731 A 1.017 1.017 0 0 1 10.325 3.643 Q 10.151 3.388 10.151 3.037 A 1.206 1.206 0 0 1 10.55 2.132 A 1.694 1.694 0 0 1 10.646 2.048 A 1.752 1.752 0 0 1 11.429 1.688 A 2.471 2.471 0 0 1 11.909 1.644 A 2.559 2.559 0 0 1 12.473 1.702 A 1.757 1.757 0 0 1 13.221 2.061 Q 13.724 2.479 13.724 3.129 Z M 21.327 6.486 L 20.716 4.816 L 18.035 4.816 L 17.433 6.486 L 16.563 6.486 L 19.006 0.088 L 19.745 0.088 L 22.192 6.486 L 21.327 6.486 Z M 5.212 4.241 L 5.212 4.091 A 3.17 3.17 0 0 1 5.288 3.382 A 2.581 2.581 0 0 1 5.482 2.828 A 2.191 2.191 0 0 1 5.93 2.202 A 2.033 2.033 0 0 1 6.238 1.958 Q 6.724 1.644 7.291 1.644 A 2.254 2.254 0 0 1 7.904 1.723 A 1.639 1.639 0 0 1 8.732 2.254 Q 9.246 2.865 9.246 4.003 L 9.246 4.342 L 6.025 4.342 A 2.111 2.111 0 0 0 6.096 4.85 A 1.516 1.516 0 0 0 6.436 5.478 A 1.282 1.282 0 0 0 7.37 5.909 A 1.652 1.652 0 0 0 7.436 5.911 A 1.763 1.763 0 0 0 7.764 5.882 Q 7.988 5.839 8.165 5.735 A 1.827 1.827 0 0 0 8.674 5.287 A 2.068 2.068 0 0 0 8.688 5.269 L 9.185 5.656 A 1.926 1.926 0 0 1 7.785 6.547 A 2.749 2.749 0 0 1 7.392 6.574 A 2.394 2.394 0 0 1 6.64 6.461 A 1.974 1.974 0 0 1 5.818 5.939 Q 5.212 5.304 5.212 4.241 Z M 0.848 0.782 L 0.848 3.208 L 2.145 3.208 Q 2.685 3.208 3.035 2.968 A 1.174 1.174 0 0 0 3.144 2.883 A 1.069 1.069 0 0 0 3.51 2.146 A 1.486 1.486 0 0 0 3.516 2.013 Q 3.516 1.47 3.22 1.159 A 1 1 0 0 0 3.162 1.103 Q 2.808 0.787 2.14 0.782 L 0.848 0.782 Z M 19.375 1.129 L 18.29 4.122 L 20.465 4.122 L 19.375 1.129 Z M 6.051 3.674 L 8.433 3.674 L 8.433 3.612 Q 8.407 3.153 8.236 2.848 A 1.13 1.13 0 0 0 8.099 2.652 A 0.983 0.983 0 0 0 7.445 2.32 A 1.39 1.39 0 0 0 7.291 2.312 A 1.106 1.106 0 0 0 6.768 2.435 A 1.14 1.14 0 0 0 6.464 2.67 A 1.417 1.417 0 0 0 6.188 3.116 Q 6.114 3.3 6.074 3.522 A 2.741 2.741 0 0 0 6.051 3.674 Z" vector-effect="non-scaling-stroke"/></g><g transform="translate(25, 93)" id="svgGroup" stroke-linecap="round" fill-rule="evenodd" font-size="9pt" stroke="#000" stroke-width="0.25mm" fill="#000" style="stroke:#000;stroke-width:0.25mm;fill:#000"><path d="M 43.352 0.352 L 44.2 0.352 L 44.2 4.702 Q 44.196 5.607 43.631 6.183 A 2.088 2.088 0 0 1 42.678 6.732 A 2.969 2.969 0 0 1 42.1 6.829 L 41.875 6.838 Q 40.825 6.838 40.201 6.271 A 1.887 1.887 0 0 1 39.611 5.181 A 2.738 2.738 0 0 1 39.568 4.711 L 39.568 0.352 L 40.403 0.352 L 40.403 4.685 A 2.025 2.025 0 0 0 40.447 5.121 Q 40.533 5.51 40.786 5.763 A 1.238 1.238 0 0 0 41.336 6.08 Q 41.532 6.135 41.766 6.146 A 2.466 2.466 0 0 0 41.875 6.148 A 2.145 2.145 0 0 0 42.307 6.107 Q 42.562 6.055 42.758 5.934 A 1.145 1.145 0 0 0 42.972 5.766 A 1.247 1.247 0 0 0 43.289 5.202 Q 43.352 4.971 43.352 4.689 L 43.352 0.352 Z M 20.997 0 L 20.997 2.571 A 1.767 1.767 0 0 1 21.663 2.053 A 1.832 1.832 0 0 1 22.403 1.907 A 1.905 1.905 0 0 1 23.037 2.004 Q 23.879 2.3 23.922 3.506 A 3.668 3.668 0 0 1 23.924 3.608 L 23.924 6.75 L 23.111 6.75 L 23.111 3.604 A 1.837 1.837 0 0 0 23.089 3.324 Q 23.038 3.017 22.876 2.843 Q 22.69 2.645 22.336 2.606 A 1.66 1.66 0 0 0 22.157 2.597 A 1.253 1.253 0 0 0 21.743 2.664 A 1.123 1.123 0 0 0 21.463 2.808 A 1.432 1.432 0 0 0 20.997 3.362 L 20.997 6.75 L 20.184 6.75 L 20.184 0 L 20.997 0 Z M 93.485 6.75 L 91.828 4.548 L 91.318 5.08 L 91.318 6.75 L 90.505 6.75 L 90.505 0 L 91.318 0 L 91.318 4.083 L 91.753 3.56 L 93.234 1.995 L 94.223 1.995 L 92.373 3.981 L 94.438 6.75 L 93.485 6.75 Z M 35.332 2.522 L 35.372 1.995 L 36.114 1.995 L 36.114 6.636 A 2.511 2.511 0 0 1 36.044 7.249 A 1.738 1.738 0 0 1 35.567 8.09 A 1.834 1.834 0 0 1 34.637 8.57 A 2.671 2.671 0 0 1 34.097 8.622 A 2.446 2.446 0 0 1 33.091 8.402 A 2.003 2.003 0 0 1 32.681 8.161 A 1.563 1.563 0 0 1 32.339 7.8 L 32.761 7.313 A 1.889 1.889 0 0 0 33.196 7.712 A 1.514 1.514 0 0 0 34.04 7.958 A 1.695 1.695 0 0 0 34.417 7.919 Q 34.685 7.858 34.879 7.702 A 1.037 1.037 0 0 0 34.965 7.625 A 1.09 1.09 0 0 0 35.242 7.132 Q 35.289 6.959 35.296 6.752 A 2.134 2.134 0 0 0 35.297 6.684 L 35.297 6.275 A 1.601 1.601 0 0 1 34.245 6.821 A 2.279 2.279 0 0 1 33.965 6.838 A 1.672 1.672 0 0 1 33.21 6.67 Q 32.888 6.51 32.638 6.197 A 2.14 2.14 0 0 1 32.614 6.166 A 2.316 2.316 0 0 1 32.231 5.386 Q 32.098 4.922 32.098 4.333 Q 32.098 3.472 32.406 2.884 A 2.096 2.096 0 0 1 32.612 2.564 Q 33.126 1.907 33.974 1.907 A 1.971 1.971 0 0 1 34.573 1.994 A 1.55 1.55 0 0 1 35.332 2.522 Z M 58.206 1.995 L 59.392 5.559 L 60.5 1.995 L 61.37 1.995 L 59.458 7.484 Q 59.014 8.67 58.047 8.67 L 57.894 8.657 L 57.59 8.6 L 57.59 7.941 L 57.81 7.958 Q 58.09 7.958 58.286 7.882 A 0.75 0.75 0 0 0 58.454 7.792 A 0.749 0.749 0 0 0 58.614 7.629 Q 58.732 7.47 58.822 7.215 A 2.575 2.575 0 0 0 58.834 7.181 L 59.014 6.697 L 57.318 1.995 L 58.206 1.995 Z M 27.325 1.995 L 28.094 1.995 L 28.121 2.593 Q 28.657 1.918 29.517 1.907 A 2.234 2.234 0 0 1 29.544 1.907 A 1.905 1.905 0 0 1 30.178 2.004 Q 31.02 2.3 31.063 3.506 A 3.668 3.668 0 0 1 31.065 3.608 L 31.065 6.75 L 30.252 6.75 L 30.252 3.604 A 1.837 1.837 0 0 0 30.23 3.324 Q 30.18 3.017 30.017 2.843 Q 29.831 2.645 29.477 2.606 A 1.66 1.66 0 0 0 29.298 2.597 A 1.253 1.253 0 0 0 28.884 2.664 A 1.123 1.123 0 0 0 28.604 2.808 A 1.432 1.432 0 0 0 28.138 3.362 L 28.138 6.75 L 27.325 6.75 L 27.325 1.995 Z M 11.94 0.352 L 11.94 1.046 L 9.883 1.046 L 9.883 6.75 L 9.044 6.75 L 9.044 1.046 L 6.992 1.046 L 6.992 0.352 L 11.94 0.352 Z M 19.362 0.352 L 19.362 1.046 L 17.306 1.046 L 17.306 6.75 L 16.466 6.75 L 16.466 1.046 L 14.414 1.046 L 14.414 0.352 L 19.362 0.352 Z M 86.348 6.75 L 85.496 6.75 A 0.632 0.632 0 0 1 85.46 6.66 Q 85.429 6.562 85.404 6.41 A 3.997 3.997 0 0 1 85.381 6.249 Q 84.814 6.838 84.028 6.838 A 2.033 2.033 0 0 1 83.499 6.772 A 1.529 1.529 0 0 1 82.874 6.44 Q 82.424 6.042 82.424 5.432 Q 82.424 4.689 82.989 4.278 Q 83.553 3.867 84.577 3.867 L 85.368 3.867 L 85.368 3.494 A 1.152 1.152 0 0 0 85.332 3.199 A 0.828 0.828 0 0 0 85.113 2.815 Q 84.897 2.6 84.507 2.568 A 1.748 1.748 0 0 0 84.362 2.562 Q 83.927 2.562 83.632 2.782 Q 83.338 3.001 83.338 3.313 L 82.521 3.313 A 1.041 1.041 0 0 1 82.645 2.825 A 1.409 1.409 0 0 1 82.773 2.626 Q 83.026 2.294 83.459 2.101 A 2.249 2.249 0 0 1 84.234 1.913 A 2.669 2.669 0 0 1 84.41 1.907 A 2.65 2.65 0 0 1 84.928 1.955 Q 85.235 2.016 85.474 2.156 A 1.439 1.439 0 0 1 85.698 2.318 A 1.396 1.396 0 0 1 86.151 3.144 A 1.998 1.998 0 0 1 86.181 3.45 L 86.181 5.638 Q 86.181 6.073 86.255 6.39 A 1.707 1.707 0 0 0 86.348 6.68 L 86.348 6.75 Z M 67.671 0.352 L 67.671 4.601 L 68.559 4.601 L 68.559 5.265 L 67.671 5.265 L 67.671 6.75 L 66.854 6.75 L 66.854 5.265 L 63.94 5.265 L 63.94 4.786 L 66.806 0.352 L 67.671 0.352 Z M 78.557 6.75 L 76.786 6.75 L 76.786 0.352 L 78.592 0.352 Q 79.427 0.352 80.068 0.721 Q 80.71 1.09 81.059 1.771 A 3.19 3.19 0 0 1 81.376 2.8 A 4.073 4.073 0 0 1 81.413 3.335 L 81.413 3.744 Q 81.413 4.649 81.064 5.331 A 2.457 2.457 0 0 1 80.066 6.376 Q 79.418 6.741 78.557 6.75 Z M 73.07 2.592 A 1.544 1.544 0 0 0 73.173 2.021 A 2.226 2.226 0 0 0 73.152 1.707 A 1.566 1.566 0 0 0 72.653 0.738 A 1.754 1.754 0 0 0 71.887 0.333 A 2.443 2.443 0 0 0 71.288 0.264 A 2.539 2.539 0 0 0 70.779 0.312 A 1.767 1.767 0 0 0 69.921 0.738 Q 69.403 1.213 69.403 2.021 A 1.808 1.808 0 0 0 69.403 2.058 A 1.499 1.499 0 0 0 69.649 2.87 A 1.626 1.626 0 0 0 69.811 3.077 A 1.726 1.726 0 0 0 70.321 3.454 A 2.119 2.119 0 0 0 70.222 3.5 A 1.738 1.738 0 0 0 69.537 4.087 A 1.629 1.629 0 0 0 69.253 5.023 A 2.272 2.272 0 0 0 69.263 5.237 A 1.63 1.63 0 0 0 69.809 6.344 A 1.895 1.895 0 0 0 70.66 6.771 A 2.797 2.797 0 0 0 71.288 6.838 A 2.796 2.796 0 0 0 71.887 6.777 A 1.925 1.925 0 0 0 72.762 6.346 A 1.578 1.578 0 0 0 73.237 5.62 A 1.989 1.989 0 0 0 73.323 5.023 A 1.581 1.581 0 0 0 73.031 4.087 Q 72.738 3.674 72.237 3.458 Q 72.668 3.248 72.921 2.874 A 1.449 1.449 0 0 0 73.07 2.592 Z M 45.694 0.844 L 46.507 0.844 L 46.507 1.995 L 47.395 1.995 L 47.395 2.624 L 46.507 2.624 L 46.507 5.572 Q 46.507 5.858 46.626 6.001 Q 46.745 6.144 47.03 6.144 A 1.046 1.046 0 0 0 47.128 6.138 Q 47.231 6.129 47.37 6.101 A 4.024 4.024 0 0 0 47.417 6.091 L 47.417 6.75 A 2.463 2.463 0 0 1 46.984 6.829 A 2.157 2.157 0 0 1 46.793 6.838 Q 46.346 6.838 46.079 6.616 A 0.856 0.856 0 0 1 45.971 6.508 Q 45.744 6.238 45.703 5.78 A 2.351 2.351 0 0 1 45.694 5.572 L 45.694 2.624 L 44.829 2.624 L 44.829 1.995 L 45.694 1.995 L 45.694 0.844 Z M 55.187 0.844 L 56 0.844 L 56 1.995 L 56.887 1.995 L 56.887 2.624 L 56 2.624 L 56 5.572 Q 56 5.858 56.118 6.001 Q 56.237 6.144 56.522 6.144 A 1.046 1.046 0 0 0 56.62 6.138 Q 56.723 6.129 56.862 6.101 A 4.024 4.024 0 0 0 56.909 6.091 L 56.909 6.75 A 2.463 2.463 0 0 1 56.476 6.829 A 2.157 2.157 0 0 1 56.285 6.838 Q 55.838 6.838 55.571 6.616 A 0.856 0.856 0 0 1 55.463 6.508 Q 55.236 6.238 55.195 5.78 A 2.351 2.351 0 0 1 55.187 5.572 L 55.187 2.624 L 54.321 2.624 L 54.321 1.995 L 55.187 1.995 L 55.187 0.844 Z M 51.412 0 L 51.412 6.75 L 50.599 6.75 L 50.599 0 L 51.412 0 Z M 2.043 4.386 L 2.043 4.329 A 3.057 3.057 0 0 1 2.13 3.587 A 2.573 2.573 0 0 1 2.318 3.072 A 2.16 2.16 0 0 1 2.733 2.486 A 1.957 1.957 0 0 1 3.083 2.21 A 2.036 2.036 0 0 1 4.027 1.913 A 2.491 2.491 0 0 1 4.201 1.907 A 2.277 2.277 0 0 1 4.955 2.027 A 1.937 1.937 0 0 1 5.772 2.58 A 2.29 2.29 0 0 1 6.291 3.608 A 3.373 3.373 0 0 1 6.372 4.368 L 6.372 4.425 A 3.114 3.114 0 0 1 6.293 5.142 A 2.577 2.577 0 0 1 6.106 5.671 A 2.056 2.056 0 0 1 5.579 6.361 A 2.001 2.001 0 0 1 5.346 6.53 A 2.045 2.045 0 0 1 4.426 6.829 A 2.529 2.529 0 0 1 4.21 6.838 A 2.262 2.262 0 0 1 3.46 6.718 A 1.938 1.938 0 0 1 2.643 6.166 A 2.297 2.297 0 0 1 2.118 5.111 A 3.357 3.357 0 0 1 2.043 4.386 Z M 89.754 1.969 L 89.754 2.725 A 2.251 2.251 0 0 0 89.511 2.698 A 2.782 2.782 0 0 0 89.354 2.694 Q 88.576 2.694 88.285 3.338 A 1.445 1.445 0 0 0 88.269 3.375 L 88.269 6.75 L 87.456 6.75 L 87.456 1.995 L 88.247 1.995 L 88.26 2.544 Q 88.64 1.938 89.323 1.909 A 1.636 1.636 0 0 1 89.394 1.907 Q 89.631 1.907 89.754 1.969 Z M 0.844 0.352 L 0.844 6.75 L 0 6.75 L 0 0.352 L 0.844 0.352 Z M 78.614 1.046 L 77.629 1.046 L 77.629 6.06 L 78.517 6.06 A 2.519 2.519 0 0 0 79.15 5.985 A 1.747 1.747 0 0 0 80.035 5.454 Q 80.495 4.94 80.565 4.059 A 4.165 4.165 0 0 0 80.578 3.727 L 80.578 3.353 Q 80.578 2.562 80.308 2.027 A 1.864 1.864 0 0 0 80.066 1.659 A 1.687 1.687 0 0 0 79.07 1.09 A 2.499 2.499 0 0 0 78.614 1.046 Z M 26.024 1.995 L 26.024 6.75 L 25.211 6.75 L 25.211 1.995 L 26.024 1.995 Z M 49.228 1.995 L 49.228 6.75 L 48.415 6.75 L 48.415 1.995 L 49.228 1.995 Z M 53.596 1.995 L 53.596 6.75 L 52.783 6.75 L 52.783 1.995 L 53.596 1.995 Z M 2.861 4.425 A 2.772 2.772 0 0 0 2.908 4.954 Q 2.969 5.264 3.106 5.51 A 1.545 1.545 0 0 0 3.228 5.695 Q 3.595 6.174 4.21 6.174 A 1.269 1.269 0 0 0 4.699 6.083 Q 4.979 5.967 5.181 5.706 A 1.471 1.471 0 0 0 5.194 5.689 A 1.648 1.648 0 0 0 5.449 5.171 Q 5.518 4.945 5.544 4.672 A 3.655 3.655 0 0 0 5.559 4.329 A 2.687 2.687 0 0 0 5.508 3.789 Q 5.44 3.459 5.283 3.2 A 1.586 1.586 0 0 0 5.188 3.061 A 1.231 1.231 0 0 0 4.773 2.705 Q 4.52 2.575 4.201 2.575 Q 3.611 2.575 3.245 3.035 A 1.515 1.515 0 0 0 3.23 3.054 A 1.589 1.589 0 0 0 2.978 3.552 Q 2.908 3.772 2.88 4.039 A 3.676 3.676 0 0 0 2.861 4.425 Z M 35.297 5.449 L 35.297 3.278 A 1.439 1.439 0 0 0 34.996 2.891 Q 34.692 2.62 34.252 2.599 A 1.578 1.578 0 0 0 34.176 2.597 Q 33.584 2.597 33.251 3.056 A 1.51 1.51 0 0 0 33.04 3.484 Q 32.974 3.689 32.943 3.939 A 3.955 3.955 0 0 0 32.915 4.425 Q 32.915 5.229 33.245 5.689 Q 33.574 6.148 34.167 6.148 A 1.32 1.32 0 0 0 34.677 6.054 Q 35.069 5.891 35.297 5.449 Z M 66.757 1.639 L 64.863 4.601 L 66.854 4.601 L 66.854 1.463 L 66.757 1.639 Z M 72.51 5.005 A 1.375 1.375 0 0 0 72.45 4.592 A 1.109 1.109 0 0 0 72.169 4.131 A 1.148 1.148 0 0 0 71.498 3.807 A 1.593 1.593 0 0 0 71.279 3.792 A 1.466 1.466 0 0 0 70.891 3.841 A 1.086 1.086 0 0 0 70.398 4.126 A 1.123 1.123 0 0 0 70.085 4.762 A 1.572 1.572 0 0 0 70.066 5.005 A 1.48 1.48 0 0 0 70.108 5.367 A 1.019 1.019 0 0 0 70.389 5.862 Q 70.695 6.158 71.228 6.173 A 2.053 2.053 0 0 0 71.288 6.174 Q 71.782 6.174 72.092 5.94 A 1.018 1.018 0 0 0 72.185 5.86 A 1.041 1.041 0 0 0 72.484 5.292 A 1.518 1.518 0 0 0 72.51 5.005 Z M 71.288 0.932 A 1.259 1.259 0 0 0 70.935 0.979 A 0.973 0.973 0 0 0 70.512 1.228 Q 70.216 1.525 70.216 2.035 A 1.325 1.325 0 0 0 70.26 2.387 A 0.994 0.994 0 0 0 70.508 2.823 A 0.974 0.974 0 0 0 71.07 3.108 A 1.382 1.382 0 0 0 71.288 3.125 A 1.279 1.279 0 0 0 71.633 3.08 A 0.952 0.952 0 0 0 72.068 2.823 A 1.018 1.018 0 0 0 72.343 2.26 A 1.426 1.426 0 0 0 72.36 2.035 A 1.282 1.282 0 0 0 72.31 1.668 A 1.013 1.013 0 0 0 72.057 1.239 Q 71.754 0.932 71.288 0.932 Z M 85.368 5.418 L 85.368 4.443 L 84.731 4.443 Q 83.237 4.443 83.237 5.317 Q 83.237 5.7 83.492 5.915 A 0.893 0.893 0 0 0 83.905 6.108 A 1.259 1.259 0 0 0 84.146 6.13 A 1.429 1.429 0 0 0 84.872 5.933 A 1.335 1.335 0 0 0 85.167 5.705 A 1.108 1.108 0 0 0 85.368 5.418 Z M 25.146 0.734 Q 25.146 0.536 25.266 0.4 Q 25.378 0.274 25.59 0.264 A 0.783 0.783 0 0 1 25.625 0.264 Q 25.862 0.264 25.985 0.4 A 0.474 0.474 0 0 1 26.107 0.703 A 0.614 0.614 0 0 1 26.108 0.734 A 0.523 0.523 0 0 1 26.083 0.9 A 0.442 0.442 0 0 1 25.985 1.063 Q 25.872 1.184 25.664 1.194 A 0.803 0.803 0 0 1 25.625 1.195 Q 25.452 1.195 25.341 1.126 A 0.362 0.362 0 0 1 25.266 1.063 A 0.456 0.456 0 0 1 25.148 0.788 A 0.605 0.605 0 0 1 25.146 0.734 Z M 48.349 0.734 Q 48.349 0.536 48.469 0.4 Q 48.581 0.274 48.793 0.264 A 0.783 0.783 0 0 1 48.828 0.264 Q 49.065 0.264 49.188 0.4 A 0.474 0.474 0 0 1 49.31 0.703 A 0.614 0.614 0 0 1 49.311 0.734 A 0.523 0.523 0 0 1 49.286 0.9 A 0.442 0.442 0 0 1 49.188 1.063 Q 49.075 1.184 48.867 1.194 A 0.803 0.803 0 0 1 48.828 1.195 Q 48.655 1.195 48.544 1.126 A 0.362 0.362 0 0 1 48.469 1.063 A 0.456 0.456 0 0 1 48.351 0.788 A 0.605 0.605 0 0 1 48.349 0.734 Z M 52.717 0.734 Q 52.717 0.536 52.838 0.4 Q 52.95 0.274 53.161 0.264 A 0.783 0.783 0 0 1 53.196 0.264 Q 53.433 0.264 53.556 0.4 A 0.474 0.474 0 0 1 53.678 0.703 A 0.614 0.614 0 0 1 53.679 0.734 A 0.523 0.523 0 0 1 53.654 0.9 A 0.442 0.442 0 0 1 53.556 1.063 Q 53.444 1.184 53.236 1.194 A 0.803 0.803 0 0 1 53.196 1.195 Q 53.023 1.195 52.913 1.126 A 0.362 0.362 0 0 1 52.838 1.063 A 0.456 0.456 0 0 1 52.719 0.788 A 0.605 0.605 0 0 1 52.717 0.734 Z" vector-effect="non-scaling-stroke"/></g>
</svgversion="1.0" encoding="UTF-8"?>
<svg width="48px" height="48px" viewBox="0 0 48 48" version="1.1" xmlns="http://www.w3.org/2000/svg" xmlns:xlink="http://www.w3.org/1999/xlink">
    <title>Icon-Resource/IoT/Res_IoT_Thing_Utility_48_Dark</title>
    <g id="Icon-Resource/IoT/Res_IoT_Thing_Utility_48" stroke="none" stroke-width="1" fill="none" fill-rule="evenodd">
        <path transform="translate(12.000000, 8.000000), scale(.65)" d="M31.1651,35.006 C31.1651,34.482 31.8391,33.177 32.3651,32.223 C32.8921,33.178 33.5651,34.482 33.5651,35.006 C33.5651,35.668 33.0271,36.206 32.3651,36.206 C31.7031,36.206 31.1651,35.668 31.1651,35.006 Z M32.3651,29.165 C31.9861,29.165 31.6391,29.379 31.4701,29.718 C31.3761,29.907 31.2161,30.187 31.0261,30.521 C30.0081,32.316 29.1651,33.893 29.1651,35.006 C29.1651,36.77 30.6001,38.206 32.3651,38.206 C34.1301,38.206 35.5651,36.77 35.5651,35.006 C35.5651,33.892 34.7201,32.313 33.7001,30.516 C33.5121,30.184 33.3531,29.905 33.2601,29.718 C33.0901,29.379 32.7441,29.165 32.3651,29.165 Z M33.5651,26.524 L30.2071,26.524 L30.2071,24.879 C30.2071,23.868 29.3851,23.046 28.3751,23.046 L12.6811,23.046 L12.6811,19.723 L28.9211,19.723 C31.4811,19.723 33.5651,21.807 33.5651,24.368 L33.5651,26.524 Z M17.9631,13.323 L28.2851,13.323 L28.2851,12.682 L17.9631,12.682 L17.9631,13.323 Z M24.1241,17.723 L24.1241,15.322 L29.2851,15.322 C29.8381,15.322 30.2851,14.875 30.2851,14.322 L30.2851,11.682 C30.2851,11.129 29.8381,10.682 29.2851,10.682 L16.9631,10.682 C16.4101,10.682 15.9631,11.129 15.9631,11.682 L15.9631,14.322 C15.9631,14.875 16.4101,15.322 16.9631,15.322 L22.1241,15.322 L22.1241,17.723 L11.6811,17.723 C11.1291,17.723 10.6811,18.17 10.6811,18.723 L10.6811,24.046 C10.6811,24.599 11.1291,25.046 11.6811,25.046 L28.2071,25.046 L28.2071,27.524 C28.2071,28.077 28.6541,28.524 29.2071,28.524 L34.5651,28.524 C35.1181,28.524 35.5651,28.077 35.5651,27.524 L35.5651,24.368 C35.5651,20.704 32.5851,17.723 28.9211,17.723 L24.1241,17.723 Z M39.7251,38.592 C39.7251,39.218 39.2171,39.727 38.5911,39.727 L9.4181,39.727 C8.7921,39.727 8.2831,39.218 8.2831,38.592 L8.2831,9.431 C8.2831,8.805 8.7921,8.296 9.4181,8.296 L38.5911,8.296 C39.2171,8.296 39.7251,8.805 39.7251,9.431 L39.7251,38.592 Z M46.0081,14.441 L46.0081,12.441 L41.7251,12.441 L41.7251,9.431 C41.7251,7.702 40.3191,6.296 38.5911,6.296 L35.5651,6.296 L35.5651,2 L33.5651,2 L33.5651,6.296 L30.2851,6.296 L30.2851,2 L28.2851,2 L28.2851,6.296 L25.0041,6.296 L25.0041,2 L23.0041,2 L23.0041,6.296 L19.7231,6.296 L19.7231,2 L17.7231,2 L17.7231,6.296 L14.4421,6.296 L14.4421,2 L12.4421,2 L12.4421,6.296 L9.4181,6.296 C7.6891,6.296 6.2831,7.702 6.2831,9.431 L6.2831,12.441 L2.0001,12.441 L2.0001,14.441 L6.2831,14.441 L6.2831,17.723 L2.0001,17.723 L2.0001,19.723 L6.2831,19.723 L6.2831,23.004 L2.0001,23.004 L2.0001,25.004 L6.2831,25.004 L6.2831,28.284 L2.0001,28.284 L2.0001,30.284 L6.2831,30.284 L6.2831,33.565 L2.0001,33.565 L2.0001,35.565 L6.2831,35.565 L6.2831,38.592 C6.2831,40.32 7.6891,41.727 9.4181,41.727 L12.4421,41.727 L12.4421,46.007 L14.4421,46.007 L14.4421,41.727 L17.7231,41.727 L17.7231,46.007 L19.7231,46.007 L19.7231,41.727 L23.0041,41.727 L23.0041,46.007 L25.0041,46.007 L25.0041,41.727 L28.2851,41.727 L28.2851,46.007 L30.2851,46.007 L30.2851,41.727 L33.5651,41.727 L33.5651,46.007 L35.5651,46.007 L35.5651,41.727 L38.5911,41.727 C40.3191,41.727 41.7251,40.32 41.7251,38.592 L41.7251,35.565 L46.0081,35.565 L46.0081,33.565 L41.7251,33.565 L41.7251,30.284 L46.0081,30.284 L46.0081,28.284 L41.7251,28.284 L41.7251,25.004 L46.0081,25.004 L46.0081,23.004 L41.7251,23.004 L41.7251,19.723 L46.0081,19.723 L46.0081,17.723 L41.7251,17.723 L41.7251,14.441 L46.0081,14.441 Z" id="Amazon-IOT-RESOURCES-IoT-thing-utility_Resource-Icon-light-bg" fill="#000000"></path>
    </g><g transform="translate(25, 83)" id="svgGroup" stroke-linecap="round" fill-rule="evenodd" font-size="9pt" stroke="#000" stroke-width="0.25mm" fill="#000" style="stroke:#000;stroke-width:0.25mm;fill:#000"><path d="M 23.12 0.088 L 24.13 4.469 L 24.253 5.313 L 24.434 4.553 L 25.699 0.088 L 26.411 0.088 L 27.646 4.553 L 27.822 5.326 L 27.958 4.465 L 28.951 0.088 L 29.799 0.088 L 28.248 6.486 L 27.479 6.486 L 26.161 1.824 L 26.06 1.336 L 25.958 1.824 L 24.592 6.486 L 23.823 6.486 L 22.276 0.088 L 23.12 0.088 Z M 34.98 1.938 L 34.132 1.938 A 1.466 1.466 0 0 0 34.083 1.546 A 1.066 1.066 0 0 0 33.763 1.026 A 1.211 1.211 0 0 0 33.294 0.77 Q 33.042 0.694 32.722 0.694 A 2.286 2.286 0 0 0 32.342 0.724 Q 32.14 0.758 31.977 0.831 A 1.101 1.101 0 0 0 31.748 0.969 A 0.892 0.892 0 0 0 31.403 1.624 A 1.267 1.267 0 0 0 31.399 1.732 A 0.806 0.806 0 0 0 31.667 2.337 A 1.134 1.134 0 0 0 31.731 2.393 A 1.562 1.562 0 0 0 31.969 2.549 Q 32.299 2.73 32.86 2.887 A 8.228 8.228 0 0 1 33.325 3.032 Q 33.56 3.113 33.754 3.2 A 3.297 3.297 0 0 1 34.108 3.382 A 2.342 2.342 0 0 1 34.447 3.626 Q 34.637 3.792 34.759 3.985 A 1.45 1.45 0 0 1 34.776 4.012 A 1.498 1.498 0 0 1 34.972 4.568 A 1.948 1.948 0 0 1 34.994 4.86 A 1.606 1.606 0 0 1 34.871 5.497 Q 34.726 5.838 34.408 6.09 A 1.886 1.886 0 0 1 34.387 6.106 Q 33.781 6.574 32.766 6.574 A 3.023 3.023 0 0 1 31.625 6.36 A 2.917 2.917 0 0 1 31.535 6.322 A 2.383 2.383 0 0 1 31.057 6.044 A 1.874 1.874 0 0 1 30.654 5.629 A 1.689 1.689 0 0 1 30.344 4.632 L 31.192 4.632 A 1.261 1.261 0 0 0 31.262 5.059 A 1.074 1.074 0 0 0 31.621 5.548 Q 32.005 5.85 32.622 5.881 A 2.87 2.87 0 0 0 32.766 5.884 A 2.628 2.628 0 0 0 33.153 5.858 Q 33.349 5.828 33.508 5.767 A 1.129 1.129 0 0 0 33.79 5.612 Q 34.146 5.339 34.146 4.869 A 1.074 1.074 0 0 0 34.103 4.559 A 0.816 0.816 0 0 0 33.816 4.142 Q 33.486 3.885 32.621 3.634 Q 31.535 3.322 31.041 2.868 Q 30.546 2.413 30.546 1.745 Q 30.546 0.989 31.151 0.494 A 2.121 2.121 0 0 1 32.041 0.071 A 3.087 3.087 0 0 1 32.722 0 A 2.913 2.913 0 0 1 33.382 0.072 A 2.372 2.372 0 0 1 33.897 0.255 A 2.051 2.051 0 0 1 34.428 0.626 A 1.834 1.834 0 0 1 34.697 0.958 A 1.798 1.798 0 0 1 34.98 1.938 Z M 3.74 6.486 L 2.351 3.898 L 0.848 3.898 L 0.848 6.486 L 0 6.486 L 0 0.088 L 2.118 0.088 A 3.809 3.809 0 0 1 2.76 0.138 Q 3.102 0.197 3.376 0.324 A 1.789 1.789 0 0 1 3.781 0.58 A 1.588 1.588 0 0 1 4.307 1.469 A 2.453 2.453 0 0 1 4.364 2.013 A 1.864 1.864 0 0 1 4.273 2.604 A 1.64 1.64 0 0 1 4.041 3.054 A 1.849 1.849 0 0 1 3.382 3.611 A 2.342 2.342 0 0 1 3.142 3.718 L 4.645 6.434 L 4.645 6.486 L 3.74 6.486 Z M 13.724 3.129 L 12.907 3.129 Q 12.907 2.795 12.623 2.553 Q 12.34 2.312 11.909 2.312 Q 11.465 2.312 11.215 2.505 A 0.653 0.653 0 0 0 11.04 2.704 Q 10.967 2.835 10.964 3 A 0.771 0.771 0 0 0 10.964 3.01 A 0.588 0.588 0 0 0 10.994 3.203 A 0.48 0.48 0 0 0 11.197 3.454 A 1.093 1.093 0 0 0 11.348 3.533 Q 11.512 3.605 11.767 3.673 A 6.581 6.581 0 0 0 12.039 3.74 A 6.318 6.318 0 0 1 12.446 3.845 Q 12.783 3.944 13.025 4.065 A 1.901 1.901 0 0 1 13.281 4.218 Q 13.418 4.315 13.516 4.429 A 1.06 1.06 0 0 1 13.586 4.52 A 1.024 1.024 0 0 1 13.748 4.927 A 1.388 1.388 0 0 1 13.768 5.168 Q 13.768 5.805 13.258 6.19 Q 12.776 6.554 12.022 6.573 A 3.337 3.337 0 0 1 11.936 6.574 A 2.746 2.746 0 0 1 11.401 6.525 A 2.124 2.124 0 0 1 10.925 6.372 A 1.771 1.771 0 0 1 10.491 6.094 A 1.54 1.54 0 0 1 10.237 5.807 Q 9.989 5.445 9.989 5.023 L 10.802 5.023 A 0.932 0.932 0 0 0 10.875 5.348 A 0.827 0.827 0 0 0 11.129 5.671 A 1.072 1.072 0 0 0 11.531 5.864 Q 11.686 5.903 11.867 5.91 A 2.013 2.013 0 0 0 11.936 5.911 A 1.863 1.863 0 0 0 12.231 5.889 Q 12.393 5.863 12.524 5.806 A 0.941 0.941 0 0 0 12.676 5.724 A 0.689 0.689 0 0 0 12.841 5.574 A 0.554 0.554 0 0 0 12.955 5.225 A 0.698 0.698 0 0 0 12.919 4.994 A 0.581 0.581 0 0 0 12.707 4.713 A 1.05 1.05 0 0 0 12.538 4.615 Q 12.349 4.524 12.054 4.449 A 5.392 5.392 0 0 0 11.841 4.399 A 6.342 6.342 0 0 1 11.48 4.311 Q 11.11 4.209 10.861 4.083 Q 10.562 3.93 10.392 3.731 A 1.017 1.017 0 0 1 10.325 3.643 Q 10.151 3.388 10.151 3.037 A 1.206 1.206 0 0 1 10.55 2.132 A 1.694 1.694 0 0 1 10.646 2.048 A 1.752 1.752 0 0 1 11.429 1.688 A 2.471 2.471 0 0 1 11.909 1.644 A 2.559 2.559 0 0 1 12.473 1.702 A 1.757 1.757 0 0 1 13.221 2.061 Q 13.724 2.479 13.724 3.129 Z M 21.327 6.486 L 20.716 4.816 L 18.035 4.816 L 17.433 6.486 L 16.563 6.486 L 19.006 0.088 L 19.745 0.088 L 22.192 6.486 L 21.327 6.486 Z M 5.212 4.241 L 5.212 4.091 A 3.17 3.17 0 0 1 5.288 3.382 A 2.581 2.581 0 0 1 5.482 2.828 A 2.191 2.191 0 0 1 5.93 2.202 A 2.033 2.033 0 0 1 6.238 1.958 Q 6.724 1.644 7.291 1.644 A 2.254 2.254 0 0 1 7.904 1.723 A 1.639 1.639 0 0 1 8.732 2.254 Q 9.246 2.865 9.246 4.003 L 9.246 4.342 L 6.025 4.342 A 2.111 2.111 0 0 0 6.096 4.85 A 1.516 1.516 0 0 0 6.436 5.478 A 1.282 1.282 0 0 0 7.37 5.909 A 1.652 1.652 0 0 0 7.436 5.911 A 1.763 1.763 0 0 0 7.764 5.882 Q 7.988 5.839 8.165 5.735 A 1.827 1.827 0 0 0 8.674 5.287 A 2.068 2.068 0 0 0 8.688 5.269 L 9.185 5.656 A 1.926 1.926 0 0 1 7.785 6.547 A 2.749 2.749 0 0 1 7.392 6.574 A 2.394 2.394 0 0 1 6.64 6.461 A 1.974 1.974 0 0 1 5.818 5.939 Q 5.212 5.304 5.212 4.241 Z M 0.848 0.782 L 0.848 3.208 L 2.145 3.208 Q 2.685 3.208 3.035 2.968 A 1.174 1.174 0 0 0 3.144 2.883 A 1.069 1.069 0 0 0 3.51 2.146 A 1.486 1.486 0 0 0 3.516 2.013 Q 3.516 1.47 3.22 1.159 A 1 1 0 0 0 3.162 1.103 Q 2.808 0.787 2.14 0.782 L 0.848 0.782 Z M 19.375 1.129 L 18.29 4.122 L 20.465 4.122 L 19.375 1.129 Z M 6.051 3.674 L 8.433 3.674 L 8.433 3.612 Q 8.407 3.153 8.236 2.848 A 1.13 1.13 0 0 0 8.099 2.652 A 0.983 0.983 0 0 0 7.445 2.32 A 1.39 1.39 0 0 0 7.291 2.312 A 1.106 1.106 0 0 0 6.768 2.435 A 1.14 1.14 0 0 0 6.464 2.67 A 1.417 1.417 0 0 0 6.188 3.116 Q 6.114 3.3 6.074 3.522 A 2.741 2.741 0 0 0 6.051 3.674 Z" vector-effect="non-scaling-stroke"/></g><g transform="translate(25, 93)" id="svgGroup" stroke-linecap="round" fill-rule="evenodd" font-size="9pt" stroke="#000" stroke-width="0.25mm" fill="#000" style="stroke:#000;stroke-width:0.25mm;fill:#000"><path d="M 43.352 0.352 L 44.2 0.352 L 44.2 4.702 Q 44.196 5.607 43.631 6.183 A 2.088 2.088 0 0 1 42.678 6.732 A 2.969 2.969 0 0 1 42.1 6.829 L 41.875 6.838 Q 40.825 6.838 40.201 6.271 A 1.887 1.887 0 0 1 39.611 5.181 A 2.738 2.738 0 0 1 39.568 4.711 L 39.568 0.352 L 40.403 0.352 L 40.403 4.685 A 2.025 2.025 0 0 0 40.447 5.121 Q 40.533 5.51 40.786 5.763 A 1.238 1.238 0 0 0 41.336 6.08 Q 41.532 6.135 41.766 6.146 A 2.466 2.466 0 0 0 41.875 6.148 A 2.145 2.145 0 0 0 42.307 6.107 Q 42.562 6.055 42.758 5.934 A 1.145 1.145 0 0 0 42.972 5.766 A 1.247 1.247 0 0 0 43.289 5.202 Q 43.352 4.971 43.352 4.689 L 43.352 0.352 Z M 20.997 0 L 20.997 2.571 A 1.767 1.767 0 0 1 21.663 2.053 A 1.832 1.832 0 0 1 22.403 1.907 A 1.905 1.905 0 0 1 23.037 2.004 Q 23.879 2.3 23.922 3.506 A 3.668 3.668 0 0 1 23.924 3.608 L 23.924 6.75 L 23.111 6.75 L 23.111 3.604 A 1.837 1.837 0 0 0 23.089 3.324 Q 23.038 3.017 22.876 2.843 Q 22.69 2.645 22.336 2.606 A 1.66 1.66 0 0 0 22.157 2.597 A 1.253 1.253 0 0 0 21.743 2.664 A 1.123 1.123 0 0 0 21.463 2.808 A 1.432 1.432 0 0 0 20.997 3.362 L 20.997 6.75 L 20.184 6.75 L 20.184 0 L 20.997 0 Z M 93.485 6.75 L 91.828 4.548 L 91.318 5.08 L 91.318 6.75 L 90.505 6.75 L 90.505 0 L 91.318 0 L 91.318 4.083 L 91.753 3.56 L 93.234 1.995 L 94.223 1.995 L 92.373 3.981 L 94.438 6.75 L 93.485 6.75 Z M 35.332 2.522 L 35.372 1.995 L 36.114 1.995 L 36.114 6.636 A 2.511 2.511 0 0 1 36.044 7.249 A 1.738 1.738 0 0 1 35.567 8.09 A 1.834 1.834 0 0 1 34.637 8.57 A 2.671 2.671 0 0 1 34.097 8.622 A 2.446 2.446 0 0 1 33.091 8.402 A 2.003 2.003 0 0 1 32.681 8.161 A 1.563 1.563 0 0 1 32.339 7.8 L 32.761 7.313 A 1.889 1.889 0 0 0 33.196 7.712 A 1.514 1.514 0 0 0 34.04 7.958 A 1.695 1.695 0 0 0 34.417 7.919 Q 34.685 7.858 34.879 7.702 A 1.037 1.037 0 0 0 34.965 7.625 A 1.09 1.09 0 0 0 35.242 7.132 Q 35.289 6.959 35.296 6.752 A 2.134 2.134 0 0 0 35.297 6.684 L 35.297 6.275 A 1.601 1.601 0 0 1 34.245 6.821 A 2.279 2.279 0 0 1 33.965 6.838 A 1.672 1.672 0 0 1 33.21 6.67 Q 32.888 6.51 32.638 6.197 A 2.14 2.14 0 0 1 32.614 6.166 A 2.316 2.316 0 0 1 32.231 5.386 Q 32.098 4.922 32.098 4.333 Q 32.098 3.472 32.406 2.884 A 2.096 2.096 0 0 1 32.612 2.564 Q 33.126 1.907 33.974 1.907 A 1.971 1.971 0 0 1 34.573 1.994 A 1.55 1.55 0 0 1 35.332 2.522 Z M 58.206 1.995 L 59.392 5.559 L 60.5 1.995 L 61.37 1.995 L 59.458 7.484 Q 59.014 8.67 58.047 8.67 L 57.894 8.657 L 57.59 8.6 L 57.59 7.941 L 57.81 7.958 Q 58.09 7.958 58.286 7.882 A 0.75 0.75 0 0 0 58.454 7.792 A 0.749 0.749 0 0 0 58.614 7.629 Q 58.732 7.47 58.822 7.215 A 2.575 2.575 0 0 0 58.834 7.181 L 59.014 6.697 L 57.318 1.995 L 58.206 1.995 Z M 27.325 1.995 L 28.094 1.995 L 28.121 2.593 Q 28.657 1.918 29.517 1.907 A 2.234 2.234 0 0 1 29.544 1.907 A 1.905 1.905 0 0 1 30.178 2.004 Q 31.02 2.3 31.063 3.506 A 3.668 3.668 0 0 1 31.065 3.608 L 31.065 6.75 L 30.252 6.75 L 30.252 3.604 A 1.837 1.837 0 0 0 30.23 3.324 Q 30.18 3.017 30.017 2.843 Q 29.831 2.645 29.477 2.606 A 1.66 1.66 0 0 0 29.298 2.597 A 1.253 1.253 0 0 0 28.884 2.664 A 1.123 1.123 0 0 0 28.604 2.808 A 1.432 1.432 0 0 0 28.138 3.362 L 28.138 6.75 L 27.325 6.75 L 27.325 1.995 Z M 11.94 0.352 L 11.94 1.046 L 9.883 1.046 L 9.883 6.75 L 9.044 6.75 L 9.044 1.046 L 6.992 1.046 L 6.992 0.352 L 11.94 0.352 Z M 19.362 0.352 L 19.362 1.046 L 17.306 1.046 L 17.306 6.75 L 16.466 6.75 L 16.466 1.046 L 14.414 1.046 L 14.414 0.352 L 19.362 0.352 Z M 86.348 6.75 L 85.496 6.75 A 0.632 0.632 0 0 1 85.46 6.66 Q 85.429 6.562 85.404 6.41 A 3.997 3.997 0 0 1 85.381 6.249 Q 84.814 6.838 84.028 6.838 A 2.033 2.033 0 0 1 83.499 6.772 A 1.529 1.529 0 0 1 82.874 6.44 Q 82.424 6.042 82.424 5.432 Q 82.424 4.689 82.989 4.278 Q 83.553 3.867 84.577 3.867 L 85.368 3.867 L 85.368 3.494 A 1.152 1.152 0 0 0 85.332 3.199 A 0.828 0.828 0 0 0 85.113 2.815 Q 84.897 2.6 84.507 2.568 A 1.748 1.748 0 0 0 84.362 2.562 Q 83.927 2.562 83.632 2.782 Q 83.338 3.001 83.338 3.313 L 82.521 3.313 A 1.041 1.041 0 0 1 82.645 2.825 A 1.409 1.409 0 0 1 82.773 2.626 Q 83.026 2.294 83.459 2.101 A 2.249 2.249 0 0 1 84.234 1.913 A 2.669 2.669 0 0 1 84.41 1.907 A 2.65 2.65 0 0 1 84.928 1.955 Q 85.235 2.016 85.474 2.156 A 1.439 1.439 0 0 1 85.698 2.318 A 1.396 1.396 0 0 1 86.151 3.144 A 1.998 1.998 0 0 1 86.181 3.45 L 86.181 5.638 Q 86.181 6.073 86.255 6.39 A 1.707 1.707 0 0 0 86.348 6.68 L 86.348 6.75 Z M 67.671 0.352 L 67.671 4.601 L 68.559 4.601 L 68.559 5.265 L 67.671 5.265 L 67.671 6.75 L 66.854 6.75 L 66.854 5.265 L 63.94 5.265 L 63.94 4.786 L 66.806 0.352 L 67.671 0.352 Z M 78.557 6.75 L 76.786 6.75 L 76.786 0.352 L 78.592 0.352 Q 79.427 0.352 80.068 0.721 Q 80.71 1.09 81.059 1.771 A 3.19 3.19 0 0 1 81.376 2.8 A 4.073 4.073 0 0 1 81.413 3.335 L 81.413 3.744 Q 81.413 4.649 81.064 5.331 A 2.457 2.457 0 0 1 80.066 6.376 Q 79.418 6.741 78.557 6.75 Z M 73.07 2.592 A 1.544 1.544 0 0 0 73.173 2.021 A 2.226 2.226 0 0 0 73.152 1.707 A 1.566 1.566 0 0 0 72.653 0.738 A 1.754 1.754 0 0 0 71.887 0.333 A 2.443 2.443 0 0 0 71.288 0.264 A 2.539 2.539 0 0 0 70.779 0.312 A 1.767 1.767 0 0 0 69.921 0.738 Q 69.403 1.213 69.403 2.021 A 1.808 1.808 0 0 0 69.403 2.058 A 1.499 1.499 0 0 0 69.649 2.87 A 1.626 1.626 0 0 0 69.811 3.077 A 1.726 1.726 0 0 0 70.321 3.454 A 2.119 2.119 0 0 0 70.222 3.5 A 1.738 1.738 0 0 0 69.537 4.087 A 1.629 1.629 0 0 0 69.253 5.023 A 2.272 2.272 0 0 0 69.263 5.237 A 1.63 1.63 0 0 0 69.809 6.344 A 1.895 1.895 0 0 0 70.66 6.771 A 2.797 2.797 0 0 0 71.288 6.838 A 2.796 2.796 0 0 0 71.887 6.777 A 1.925 1.925 0 0 0 72.762 6.346 A 1.578 1.578 0 0 0 73.237 5.62 A 1.989 1.989 0 0 0 73.323 5.023 A 1.581 1.581 0 0 0 73.031 4.087 Q 72.738 3.674 72.237 3.458 Q 72.668 3.248 72.921 2.874 A 1.449 1.449 0 0 0 73.07 2.592 Z M 45.694 0.844 L 46.507 0.844 L 46.507 1.995 L 47.395 1.995 L 47.395 2.624 L 46.507 2.624 L 46.507 5.572 Q 46.507 5.858 46.626 6.001 Q 46.745 6.144 47.03 6.144 A 1.046 1.046 0 0 0 47.128 6.138 Q 47.231 6.129 47.37 6.101 A 4.024 4.024 0 0 0 47.417 6.091 L 47.417 6.75 A 2.463 2.463 0 0 1 46.984 6.829 A 2.157 2.157 0 0 1 46.793 6.838 Q 46.346 6.838 46.079 6.616 A 0.856 0.856 0 0 1 45.971 6.508 Q 45.744 6.238 45.703 5.78 A 2.351 2.351 0 0 1 45.694 5.572 L 45.694 2.624 L 44.829 2.624 L 44.829 1.995 L 45.694 1.995 L 45.694 0.844 Z M 55.187 0.844 L 56 0.844 L 56 1.995 L 56.887 1.995 L 56.887 2.624 L 56 2.624 L 56 5.572 Q 56 5.858 56.118 6.001 Q 56.237 6.144 56.522 6.144 A 1.046 1.046 0 0 0 56.62 6.138 Q 56.723 6.129 56.862 6.101 A 4.024 4.024 0 0 0 56.909 6.091 L 56.909 6.75 A 2.463 2.463 0 0 1 56.476 6.829 A 2.157 2.157 0 0 1 56.285 6.838 Q 55.838 6.838 55.571 6.616 A 0.856 0.856 0 0 1 55.463 6.508 Q 55.236 6.238 55.195 5.78 A 2.351 2.351 0 0 1 55.187 5.572 L 55.187 2.624 L 54.321 2.624 L 54.321 1.995 L 55.187 1.995 L 55.187 0.844 Z M 51.412 0 L 51.412 6.75 L 50.599 6.75 L 50.599 0 L 51.412 0 Z M 2.043 4.386 L 2.043 4.329 A 3.057 3.057 0 0 1 2.13 3.587 A 2.573 2.573 0 0 1 2.318 3.072 A 2.16 2.16 0 0 1 2.733 2.486 A 1.957 1.957 0 0 1 3.083 2.21 A 2.036 2.036 0 0 1 4.027 1.913 A 2.491 2.491 0 0 1 4.201 1.907 A 2.277 2.277 0 0 1 4.955 2.027 A 1.937 1.937 0 0 1 5.772 2.58 A 2.29 2.29 0 0 1 6.291 3.608 A 3.373 3.373 0 0 1 6.372 4.368 L 6.372 4.425 A 3.114 3.114 0 0 1 6.293 5.142 A 2.577 2.577 0 0 1 6.106 5.671 A 2.056 2.056 0 0 1 5.579 6.361 A 2.001 2.001 0 0 1 5.346 6.53 A 2.045 2.045 0 0 1 4.426 6.829 A 2.529 2.529 0 0 1 4.21 6.838 A 2.262 2.262 0 0 1 3.46 6.718 A 1.938 1.938 0 0 1 2.643 6.166 A 2.297 2.297 0 0 1 2.118 5.111 A 3.357 3.357 0 0 1 2.043 4.386 Z M 89.754 1.969 L 89.754 2.725 A 2.251 2.251 0 0 0 89.511 2.698 A 2.782 2.782 0 0 0 89.354 2.694 Q 88.576 2.694 88.285 3.338 A 1.445 1.445 0 0 0 88.269 3.375 L 88.269 6.75 L 87.456 6.75 L 87.456 1.995 L 88.247 1.995 L 88.26 2.544 Q 88.64 1.938 89.323 1.909 A 1.636 1.636 0 0 1 89.394 1.907 Q 89.631 1.907 89.754 1.969 Z M 0.844 0.352 L 0.844 6.75 L 0 6.75 L 0 0.352 L 0.844 0.352 Z M 78.614 1.046 L 77.629 1.046 L 77.629 6.06 L 78.517 6.06 A 2.519 2.519 0 0 0 79.15 5.985 A 1.747 1.747 0 0 0 80.035 5.454 Q 80.495 4.94 80.565 4.059 A 4.165 4.165 0 0 0 80.578 3.727 L 80.578 3.353 Q 80.578 2.562 80.308 2.027 A 1.864 1.864 0 0 0 80.066 1.659 A 1.687 1.687 0 0 0 79.07 1.09 A 2.499 2.499 0 0 0 78.614 1.046 Z M 26.024 1.995 L 26.024 6.75 L 25.211 6.75 L 25.211 1.995 L 26.024 1.995 Z M 49.228 1.995 L 49.228 6.75 L 48.415 6.75 L 48.415 1.995 L 49.228 1.995 Z M 53.596 1.995 L 53.596 6.75 L 52.783 6.75 L 52.783 1.995 L 53.596 1.995 Z M 2.861 4.425 A 2.772 2.772 0 0 0 2.908 4.954 Q 2.969 5.264 3.106 5.51 A 1.545 1.545 0 0 0 3.228 5.695 Q 3.595 6.174 4.21 6.174 A 1.269 1.269 0 0 0 4.699 6.083 Q 4.979 5.967 5.181 5.706 A 1.471 1.471 0 0 0 5.194 5.689 A 1.648 1.648 0 0 0 5.449 5.171 Q 5.518 4.945 5.544 4.672 A 3.655 3.655 0 0 0 5.559 4.329 A 2.687 2.687 0 0 0 5.508 3.789 Q 5.44 3.459 5.283 3.2 A 1.586 1.586 0 0 0 5.188 3.061 A 1.231 1.231 0 0 0 4.773 2.705 Q 4.52 2.575 4.201 2.575 Q 3.611 2.575 3.245 3.035 A 1.515 1.515 0 0 0 3.23 3.054 A 1.589 1.589 0 0 0 2.978 3.552 Q 2.908 3.772 2.88 4.039 A 3.676 3.676 0 0 0 2.861 4.425 Z M 35.297 5.449 L 35.297 3.278 A 1.439 1.439 0 0 0 34.996 2.891 Q 34.692 2.62 34.252 2.599 A 1.578 1.578 0 0 0 34.176 2.597 Q 33.584 2.597 33.251 3.056 A 1.51 1.51 0 0 0 33.04 3.484 Q 32.974 3.689 32.943 3.939 A 3.955 3.955 0 0 0 32.915 4.425 Q 32.915 5.229 33.245 5.689 Q 33.574 6.148 34.167 6.148 A 1.32 1.32 0 0 0 34.677 6.054 Q 35.069 5.891 35.297 5.449 Z M 66.757 1.639 L 64.863 4.601 L 66.854 4.601 L 66.854 1.463 L 66.757 1.639 Z M 72.51 5.005 A 1.375 1.375 0 0 0 72.45 4.592 A 1.109 1.109 0 0 0 72.169 4.131 A 1.148 1.148 0 0 0 71.498 3.807 A 1.593 1.593 0 0 0 71.279 3.792 A 1.466 1.466 0 0 0 70.891 3.841 A 1.086 1.086 0 0 0 70.398 4.126 A 1.123 1.123 0 0 0 70.085 4.762 A 1.572 1.572 0 0 0 70.066 5.005 A 1.48 1.48 0 0 0 70.108 5.367 A 1.019 1.019 0 0 0 70.389 5.862 Q 70.695 6.158 71.228 6.173 A 2.053 2.053 0 0 0 71.288 6.174 Q 71.782 6.174 72.092 5.94 A 1.018 1.018 0 0 0 72.185 5.86 A 1.041 1.041 0 0 0 72.484 5.292 A 1.518 1.518 0 0 0 72.51 5.005 Z M 71.288 0.932 A 1.259 1.259 0 0 0 70.935 0.979 A 0.973 0.973 0 0 0 70.512 1.228 Q 70.216 1.525 70.216 2.035 A 1.325 1.325 0 0 0 70.26 2.387 A 0.994 0.994 0 0 0 70.508 2.823 A 0.974 0.974 0 0 0 71.07 3.108 A 1.382 1.382 0 0 0 71.288 3.125 A 1.279 1.279 0 0 0 71.633 3.08 A 0.952 0.952 0 0 0 72.068 2.823 A 1.018 1.018 0 0 0 72.343 2.26 A 1.426 1.426 0 0 0 72.36 2.035 A 1.282 1.282 0 0 0 72.31 1.668 A 1.013 1.013 0 0 0 72.057 1.239 Q 71.754 0.932 71.288 0.932 Z M 85.368 5.418 L 85.368 4.443 L 84.731 4.443 Q 83.237 4.443 83.237 5.317 Q 83.237 5.7 83.492 5.915 A 0.893 0.893 0 0 0 83.905 6.108 A 1.259 1.259 0 0 0 84.146 6.13 A 1.429 1.429 0 0 0 84.872 5.933 A 1.335 1.335 0 0 0 85.167 5.705 A 1.108 1.108 0 0 0 85.368 5.418 Z M 25.146 0.734 Q 25.146 0.536 25.266 0.4 Q 25.378 0.274 25.59 0.264 A 0.783 0.783 0 0 1 25.625 0.264 Q 25.862 0.264 25.985 0.4 A 0.474 0.474 0 0 1 26.107 0.703 A 0.614 0.614 0 0 1 26.108 0.734 A 0.523 0.523 0 0 1 26.083 0.9 A 0.442 0.442 0 0 1 25.985 1.063 Q 25.872 1.184 25.664 1.194 A 0.803 0.803 0 0 1 25.625 1.195 Q 25.452 1.195 25.341 1.126 A 0.362 0.362 0 0 1 25.266 1.063 A 0.456 0.456 0 0 1 25.148 0.788 A 0.605 0.605 0 0 1 25.146 0.734 Z M 48.349 0.734 Q 48.349 0.536 48.469 0.4 Q 48.581 0.274 48.793 0.264 A 0.783 0.783 0 0 1 48.828 0.264 Q 49.065 0.264 49.188 0.4 A 0.474 0.474 0 0 1 49.31 0.703 A 0.614 0.614 0 0 1 49.311 0.734 A 0.523 0.523 0 0 1 49.286 0.9 A 0.442 0.442 0 0 1 49.188 1.063 Q 49.075 1.184 48.867 1.194 A 0.803 0.803 0 0 1 48.828 1.195 Q 48.655 1.195 48.544 1.126 A 0.362 0.362 0 0 1 48.469 1.063 A 0.456 0.456 0 0 1 48.351 0.788 A 0.605 0.605 0 0 1 48.349 0.734 Z M 52.717 0.734 Q 52.717 0.536 52.838 0.4 Q 52.95 0.274 53.161 0.264 A 0.783 0.783 0 0 1 53.196 0.264 Q 53.433 0.264 53.556 0.4 A 0.474 0.474 0 0 1 53.678 0.703 A 0.614 0.614 0 0 1 53.679 0.734 A 0.523 0.523 0 0 1 53.654 0.9 A 0.442 0.442 0 0 1 53.556 1.063 Q 53.444 1.184 53.236 1.194 A 0.803 0.803 0 0 1 53.196 1.195 Q 53.023 1.195 52.913 1.126 A 0.362 0.362 0 0 1 52.838 1.063 A 0.456 0.456 0 0 1 52.719 0.788 A 0.605 0.605 0 0 1 52.717 0.734 Z" vector-effect="non-scaling-stroke"/></g>
</svg>