<?xml version="1.0" encoding="UTF-8"?>
<svg width="48px" height="48px" viewBox="0 0 48 48" version="1.1" xmlns="http://www.w3.org/2000/svg" xmlns:xlink="http://www.w3.org/1999/xlink">
    <title>Icon-Resource/IoT/Res_AWS-IoT-Greengrass_Stream-Manager_48_Dark</title>
    <g id="Icon-Resource/IoT/Res_AWS-IoT-Greengrass_Stream-Manager_48" stroke="none" stroke-width="1" fill="none" fill-rule="evenodd">
        <path transform="translate(12.000000, 8.000000), scale(.65)" d="M13,38 L31,38 L31,36 L13,36 L13,38 Z M2,25 L21,25 L21,23 L2,23 L2,25 Z M2,14 L15,14 L15,12 L2,12 L2,14 Z M7,29 L17,29 L17,27 L7,27 L7,29 Z M41,26 L44,26 L44,23 L41,23 L41,26 Z M45,21 L40,21 C39.447,21 39,21.448 39,22 L39,27 C39,27.552 39.447,28 40,28 L45,28 C45.553,28 46,27.552 46,27 L46,22 C46,21.448 45.553,21 45,21 L45,21 Z M20,15 L26,15 L26,9 L20,9 L20,15 Z M19,17 L27,17 C27.553,17 28,16.552 28,16 L28,8 C28,7.448 27.553,7 27,7 L19,7 C18.447,7 18,7.448 18,8 L18,16 C18,16.552 18.447,17 19,17 L19,17 Z M35,39 L39,39 L39,35 L35,35 L35,39 Z M40,33 L34,33 C33.447,33 33,33.448 33,34 L33,40 C33,40.552 33.447,41 34,41 L40,41 C40.553,41 41,40.552 41,40 L41,34 C41,33.448 40.553,33 40,33 L40,33 Z M36,16 L39,16 L39,13 L36,13 L36,16 Z M35,18 L40,18 C40.553,18 41,17.552 41,17 L41,12 C41,11.448 40.553,11 40,11 L35,11 C34.447,11 34,11.448 34,12 L34,17 C34,17.552 34.447,18 35,18 L35,18 Z M26,29 L33,29 L33,22 L26,22 L26,29 Z M24,21 L24,30 C24,30.552 24.447,31 25,31 L34,31 C34.553,31 35,30.552 35,30 L35,21 C35,20.448 34.553,20 34,20 L25,20 C24.447,20 24,20.448 24,21 L24,21 Z" id="Fill-1" fill="#000000"></path>
    </g><g transform="translate(25, 83)" id="svgGroup" stroke-linecap="round" fill-rule="evenodd" font-size="9pt" stroke="#000" stroke-width="0.25mm" fill="#000" style="stroke:#000;stroke-width:0.25mm;fill:#000"><path d="M 23.12 0.088 L 24.13 4.469 L 24.253 5.313 L 24.434 4.553 L 25.699 0.088 L 26.411 0.088 L 27.646 4.553 L 27.822 5.326 L 27.958 4.465 L 28.951 0.088 L 29.799 0.088 L 28.248 6.486 L 27.479 6.486 L 26.161 1.824 L 26.06 1.336 L 25.958 1.824 L 24.592 6.486 L 23.823 6.486 L 22.276 0.088 L 23.12 0.088 Z M 34.98 1.938 L 34.132 1.938 A 1.466 1.466 0 0 0 34.083 1.546 A 1.066 1.066 0 0 0 33.763 1.026 A 1.211 1.211 0 0 0 33.294 0.77 Q 33.042 0.694 32.722 0.694 A 2.286 2.286 0 0 0 32.342 0.724 Q 32.14 0.758 31.977 0.831 A 1.101 1.101 0 0 0 31.748 0.969 A 0.892 0.892 0 0 0 31.403 1.624 A 1.267 1.267 0 0 0 31.399 1.732 A 0.806 0.806 0 0 0 31.667 2.337 A 1.134 1.134 0 0 0 31.731 2.393 A 1.562 1.562 0 0 0 31.969 2.549 Q 32.299 2.73 32.86 2.887 A 8.228 8.228 0 0 1 33.325 3.032 Q 33.56 3.113 33.754 3.2 A 3.297 3.297 0 0 1 34.108 3.382 A 2.342 2.342 0 0 1 34.447 3.626 Q 34.637 3.792 34.759 3.985 A 1.45 1.45 0 0 1 34.776 4.012 A 1.498 1.498 0 0 1 34.972 4.568 A 1.948 1.948 0 0 1 34.994 4.86 A 1.606 1.606 0 0 1 34.871 5.497 Q 34.726 5.838 34.408 6.09 A 1.886 1.886 0 0 1 34.387 6.106 Q 33.781 6.574 32.766 6.574 A 3.023 3.023 0 0 1 31.625 6.36 A 2.917 2.917 0 0 1 31.535 6.322 A 2.383 2.383 0 0 1 31.057 6.044 A 1.874 1.874 0 0 1 30.654 5.629 A 1.689 1.689 0 0 1 30.344 4.632 L 31.192 4.632 A 1.261 1.261 0 0 0 31.262 5.059 A 1.074 1.074 0 0 0 31.621 5.548 Q 32.005 5.85 32.622 5.881 A 2.87 2.87 0 0 0 32.766 5.884 A 2.628 2.628 0 0 0 33.153 5.858 Q 33.349 5.828 33.508 5.767 A 1.129 1.129 0 0 0 33.79 5.612 Q 34.146 5.339 34.146 4.869 A 1.074 1.074 0 0 0 34.103 4.559 A 0.816 0.816 0 0 0 33.816 4.142 Q 33.486 3.885 32.621 3.634 Q 31.535 3.322 31.041 2.868 Q 30.546 2.413 30.546 1.745 Q 30.546 0.989 31.151 0.494 A 2.121 2.121 0 0 1 32.041 0.071 A 3.087 3.087 0 0 1 32.722 0 A 2.913 2.913 0 0 1 33.382 0.072 A 2.372 2.372 0 0 1 33.897 0.255 A 2.051 2.051 0 0 1 34.428 0.626 A 1.834 1.834 0 0 1 34.697 0.958 A 1.798 1.798 0 0 1 34.98 1.938 Z M 3.74 6.486 L 2.351 3.898 L 0.848 3.898 L 0.848 6.486 L 0 6.486 L 0 0.088 L 2.118 0.088 A 3.809 3.809 0 0 1 2.76 0.138 Q 3.102 0.197 3.376 0.324 A 1.789 1.789 0 0 1 3.781 0.58 A 1.588 1.588 0 0 1 4.307 1.469 A 2.453 2.453 0 0 1 4.364 2.013 A 1.864 1.864 0 0 1 4.273 2.604 A 1.64 1.64 0 0 1 4.041 3.054 A 1.849 1.849 0 0 1 3.382 3.611 A 2.342 2.342 0 0 1 3.142 3.718 L 4.645 6.434 L 4.645 6.486 L 3.74 6.486 Z M 13.724 3.129 L 12.907 3.129 Q 12.907 2.795 12.623 2.553 Q 12.34 2.312 11.909 2.312 Q 11.465 2.312 11.215 2.505 A 0.653 0.653 0 0 0 11.04 2.704 Q 10.967 2.835 10.964 3 A 0.771 0.771 0 0 0 10.964 3.01 A 0.588 0.588 0 0 0 10.994 3.203 A 0.48 0.48 0 0 0 11.197 3.454 A 1.093 1.093 0 0 0 11.348 3.533 Q 11.512 3.605 11.767 3.673 A 6.581 6.581 0 0 0 12.039 3.74 A 6.318 6.318 0 0 1 12.446 3.845 Q 12.783 3.944 13.025 4.065 A 1.901 1.901 0 0 1 13.281 4.218 Q 13.418 4.315 13.516 4.429 A 1.06 1.06 0 0 1 13.586 4.52 A 1.024 1.024 0 0 1 13.748 4.927 A 1.388 1.388 0 0 1 13.768 5.168 Q 13.768 5.805 13.258 6.19 Q 12.776 6.554 12.022 6.573 A 3.337 3.337 0 0 1 11.936 6.574 A 2.746 2.746 0 0 1 11.401 6.525 A 2.124 2.124 0 0 1 10.925 6.372 A 1.771 1.771 0 0 1 10.491 6.094 A 1.54 1.54 0 0 1 10.237 5.807 Q 9.989 5.445 9.989 5.023 L 10.802 5.023 A 0.932 0.932 0 0 0 10.875 5.348 A 0.827 0.827 0 0 0 11.129 5.671 A 1.072 1.072 0 0 0 11.531 5.864 Q 11.686 5.903 11.867 5.91 A 2.013 2.013 0 0 0 11.936 5.911 A 1.863 1.863 0 0 0 12.231 5.889 Q 12.393 5.863 12.524 5.806 A 0.941 0.941 0 0 0 12.676 5.724 A 0.689 0.689 0 0 0 12.841 5.574 A 0.554 0.554 0 0 0 12.955 5.225 A 0.698 0.698 0 0 0 12.919 4.994 A 0.581 0.581 0 0 0 12.707 4.713 A 1.05 1.05 0 0 0 12.538 4.615 Q 12.349 4.524 12.054 4.449 A 5.392 5.392 0 0 0 11.841 4.399 A 6.342 6.342 0 0 1 11.48 4.311 Q 11.11 4.209 10.861 4.083 Q 10.562 3.93 10.392 3.731 A 1.017 1.017 0 0 1 10.325 3.643 Q 10.151 3.388 10.151 3.037 A 1.206 1.206 0 0 1 10.55 2.132 A 1.694 1.694 0 0 1 10.646 2.048 A 1.752 1.752 0 0 1 11.429 1.688 A 2.471 2.471 0 0 1 11.909 1.644 A 2.559 2.559 0 0 1 12.473 1.702 A 1.757 1.757 0 0 1 13.221 2.061 Q 13.724 2.479 13.724 3.129 Z M 21.327 6.486 L 20.716 4.816 L 18.035 4.816 L 17.433 6.486 L 16.563 6.486 L 19.006 0.088 L 19.745 0.088 L 22.192 6.486 L 21.327 6.486 Z M 5.212 4.241 L 5.212 4.091 A 3.17 3.17 0 0 1 5.288 3.382 A 2.581 2.581 0 0 1 5.482 2.828 A 2.191 2.191 0 0 1 5.93 2.202 A 2.033 2.033 0 0 1 6.238 1.958 Q 6.724 1.644 7.291 1.644 A 2.254 2.254 0 0 1 7.904 1.723 A 1.639 1.639 0 0 1 8.732 2.254 Q 9.246 2.865 9.246 4.003 L 9.246 4.342 L 6.025 4.342 A 2.111 2.111 0 0 0 6.096 4.85 A 1.516 1.516 0 0 0 6.436 5.478 A 1.282 1.282 0 0 0 7.37 5.909 A 1.652 1.652 0 0 0 7.436 5.911 A 1.763 1.763 0 0 0 7.764 5.882 Q 7.988 5.839 8.165 5.735 A 1.827 1.827 0 0 0 8.674 5.287 A 2.068 2.068 0 0 0 8.688 5.269 L 9.185 5.656 A 1.926 1.926 0 0 1 7.785 6.547 A 2.749 2.749 0 0 1 7.392 6.574 A 2.394 2.394 0 0 1 6.64 6.461 A 1.974 1.974 0 0 1 5.818 5.939 Q 5.212 5.304 5.212 4.241 Z M 0.848 0.782 L 0.848 3.208 L 2.145 3.208 Q 2.685 3.208 3.035 2.968 A 1.174 1.174 0 0 0 3.144 2.883 A 1.069 1.069 0 0 0 3.51 2.146 A 1.486 1.486 0 0 0 3.516 2.013 Q 3.516 1.47 3.22 1.159 A 1 1 0 0 0 3.162 1.103 Q 2.808 0.787 2.14 0.782 L 0.848 0.782 Z M 19.375 1.129 L 18.29 4.122 L 20.465 4.122 L 19.375 1.129 Z M 6.051 3.674 L 8.433 3.674 L 8.433 3.612 Q 8.407 3.153 8.236 2.848 A 1.13 1.13 0 0 0 8.099 2.652 A 0.983 0.983 0 0 0 7.445 2.32 A 1.39 1.39 0 0 0 7.291 2.312 A 1.106 1.106 0 0 0 6.768 2.435 A 1.14 1.14 0 0 0 6.464 2.67 A 1.417 1.417 0 0 0 6.188 3.116 Q 6.114 3.3 6.074 3.522 A 2.741 2.741 0 0 0 6.051 3.674 Z" vector-effect="non-scaling-stroke"/></g><g transform="translate(25, 93)" id="svgGroup" stroke-linecap="round" fill-rule="evenodd" font-size="9pt" stroke="#000" stroke-width="0.25mm" fill="#000" style="stroke:#000;stroke-width:0.25mm;fill:#000"><path d="M 94.056 0.352 L 95.146 0.352 L 97.238 5.572 L 99.33 0.352 L 100.424 0.352 L 100.424 6.75 L 99.58 6.75 L 99.58 4.258 L 99.659 1.569 L 97.559 6.75 L 96.913 6.75 L 94.816 1.582 L 94.9 4.258 L 94.9 6.75 L 94.056 6.75 L 94.056 0.352 Z M 83.808 1.995 L 84.577 1.995 L 84.599 2.522 Q 85.122 1.907 86.01 1.907 A 2.009 2.009 0 0 1 86.52 1.968 A 1.244 1.244 0 0 1 87.368 2.672 A 1.801 1.801 0 0 1 87.985 2.118 A 1.65 1.65 0 0 1 88.514 1.937 A 2.209 2.209 0 0 1 88.884 1.907 A 2.119 2.119 0 0 1 89.528 1.997 Q 90.454 2.292 90.475 3.564 L 90.475 6.75 L 89.662 6.75 L 89.662 3.612 A 1.781 1.781 0 0 0 89.641 3.332 Q 89.618 3.185 89.567 3.067 A 0.758 0.758 0 0 0 89.429 2.85 A 0.68 0.68 0 0 0 89.176 2.682 Q 88.964 2.597 88.648 2.597 A 1.245 1.245 0 0 0 88.281 2.648 A 1.008 1.008 0 0 0 87.895 2.867 A 1.042 1.042 0 0 0 87.581 3.404 A 1.41 1.41 0 0 0 87.548 3.595 L 87.548 6.75 L 86.73 6.75 L 86.73 3.634 A 1.532 1.532 0 0 0 86.682 3.23 Q 86.555 2.768 86.098 2.643 A 1.457 1.457 0 0 0 85.715 2.597 Q 84.942 2.597 84.641 3.234 A 1.459 1.459 0 0 0 84.621 3.278 L 84.621 6.75 L 83.808 6.75 L 83.808 1.995 Z M 19.841 3.564 L 19.841 5.911 A 1.895 1.895 0 0 1 19.118 6.525 A 2.364 2.364 0 0 1 18.934 6.607 A 3.162 3.162 0 0 1 18.261 6.787 Q 17.951 6.836 17.601 6.838 A 5.148 5.148 0 0 1 17.578 6.838 A 2.838 2.838 0 0 1 16.755 6.722 A 2.459 2.459 0 0 1 16.189 6.471 A 2.43 2.43 0 0 1 15.283 5.49 A 2.924 2.924 0 0 1 15.251 5.427 A 3.277 3.277 0 0 1 14.963 4.497 A 4.307 4.307 0 0 1 14.911 3.858 L 14.911 3.3 Q 14.911 1.854 15.585 1.059 A 2.198 2.198 0 0 1 16.939 0.307 A 3.227 3.227 0 0 1 17.481 0.264 Q 18.483 0.264 19.094 0.776 A 2.047 2.047 0 0 1 19.716 1.701 A 2.896 2.896 0 0 1 19.841 2.228 L 18.998 2.228 Q 18.791 1.12 17.795 0.979 A 2.195 2.195 0 0 0 17.486 0.958 A 1.917 1.917 0 0 0 16.951 1.028 A 1.386 1.386 0 0 0 16.2 1.553 A 1.986 1.986 0 0 0 15.917 2.125 Q 15.829 2.396 15.79 2.726 A 4.871 4.871 0 0 0 15.759 3.278 L 15.759 3.801 A 3.827 3.827 0 0 0 15.817 4.489 Q 15.928 5.096 16.251 5.513 A 1.569 1.569 0 0 0 17.391 6.139 A 2.069 2.069 0 0 0 17.583 6.148 Q 18.015 6.148 18.35 6.06 A 2.106 2.106 0 0 0 18.413 6.042 A 1.357 1.357 0 0 0 18.801 5.86 A 1.217 1.217 0 0 0 19.002 5.687 L 19.002 4.25 L 17.521 4.25 L 17.521 3.564 L 19.841 3.564 Z M 67.28 2.202 L 66.432 2.202 A 1.466 1.466 0 0 0 66.382 1.809 A 1.066 1.066 0 0 0 66.063 1.29 A 1.211 1.211 0 0 0 65.593 1.033 Q 65.342 0.958 65.021 0.958 A 2.286 2.286 0 0 0 64.642 0.988 Q 64.44 1.022 64.277 1.095 A 1.101 1.101 0 0 0 64.048 1.233 A 0.892 0.892 0 0 0 63.703 1.887 A 1.267 1.267 0 0 0 63.699 1.995 A 0.806 0.806 0 0 0 63.967 2.6 A 1.134 1.134 0 0 0 64.031 2.656 A 1.562 1.562 0 0 0 64.269 2.813 Q 64.599 2.993 65.16 3.151 A 8.228 8.228 0 0 1 65.625 3.295 Q 65.86 3.377 66.054 3.464 A 3.297 3.297 0 0 1 66.408 3.645 A 2.342 2.342 0 0 1 66.747 3.889 Q 66.937 4.056 67.059 4.248 A 1.45 1.45 0 0 1 67.076 4.276 A 1.498 1.498 0 0 1 67.272 4.832 A 1.948 1.948 0 0 1 67.293 5.124 A 1.606 1.606 0 0 1 67.171 5.76 Q 67.026 6.101 66.708 6.354 A 1.886 1.886 0 0 1 66.687 6.37 Q 66.081 6.838 65.065 6.838 A 3.023 3.023 0 0 1 63.925 6.623 A 2.917 2.917 0 0 1 63.835 6.585 A 2.383 2.383 0 0 1 63.357 6.307 A 1.874 1.874 0 0 1 62.954 5.893 A 1.689 1.689 0 0 1 62.644 4.896 L 63.492 4.896 A 1.261 1.261 0 0 0 63.562 5.323 A 1.074 1.074 0 0 0 63.921 5.812 Q 64.305 6.113 64.922 6.144 A 2.87 2.87 0 0 0 65.065 6.148 A 2.628 2.628 0 0 0 65.452 6.121 Q 65.649 6.092 65.808 6.031 A 1.129 1.129 0 0 0 66.089 5.875 Q 66.445 5.603 66.445 5.133 A 1.074 1.074 0 0 0 66.403 4.822 A 0.816 0.816 0 0 0 66.116 4.406 Q 65.786 4.148 64.92 3.898 Q 63.835 3.586 63.341 3.131 Q 62.846 2.676 62.846 2.008 Q 62.846 1.252 63.45 0.758 A 2.121 2.121 0 0 1 64.341 0.335 A 3.087 3.087 0 0 1 65.021 0.264 A 2.913 2.913 0 0 1 65.682 0.336 A 2.372 2.372 0 0 1 66.197 0.519 A 2.051 2.051 0 0 1 66.728 0.889 A 1.834 1.834 0 0 1 66.997 1.222 A 1.798 1.798 0 0 1 67.28 2.202 Z M 160.796 6.75 L 159.139 4.548 L 158.629 5.08 L 158.629 6.75 L 157.816 6.75 L 157.816 0 L 158.629 0 L 158.629 4.083 L 159.064 3.56 L 160.545 1.995 L 161.534 1.995 L 159.684 3.981 L 161.75 6.75 L 160.796 6.75 Z M 41.625 2.522 L 41.665 1.995 L 42.407 1.995 L 42.407 6.636 A 2.511 2.511 0 0 1 42.337 7.249 A 1.738 1.738 0 0 1 41.86 8.09 A 1.834 1.834 0 0 1 40.93 8.57 A 2.671 2.671 0 0 1 40.39 8.622 A 2.446 2.446 0 0 1 39.384 8.402 A 2.003 2.003 0 0 1 38.974 8.161 A 1.563 1.563 0 0 1 38.632 7.8 L 39.054 7.313 A 1.889 1.889 0 0 0 39.489 7.712 A 1.514 1.514 0 0 0 40.333 7.958 A 1.695 1.695 0 0 0 40.71 7.919 Q 40.978 7.858 41.172 7.702 A 1.037 1.037 0 0 0 41.258 7.625 A 1.09 1.09 0 0 0 41.535 7.132 Q 41.582 6.959 41.589 6.752 A 2.134 2.134 0 0 0 41.59 6.684 L 41.59 6.275 A 1.601 1.601 0 0 1 40.538 6.821 A 2.279 2.279 0 0 1 40.258 6.838 A 1.672 1.672 0 0 1 39.503 6.67 Q 39.181 6.51 38.931 6.197 A 2.14 2.14 0 0 1 38.907 6.166 A 2.316 2.316 0 0 1 38.524 5.386 Q 38.391 4.922 38.391 4.333 Q 38.391 3.472 38.699 2.884 A 2.096 2.096 0 0 1 38.905 2.564 Q 39.419 1.907 40.267 1.907 A 1.971 1.971 0 0 1 40.866 1.994 A 1.55 1.55 0 0 1 41.625 2.522 Z M 119.584 2.522 L 119.624 1.995 L 120.366 1.995 L 120.366 6.636 A 2.511 2.511 0 0 1 120.296 7.249 A 1.738 1.738 0 0 1 119.819 8.09 A 1.834 1.834 0 0 1 118.889 8.57 A 2.671 2.671 0 0 1 118.349 8.622 A 2.446 2.446 0 0 1 117.343 8.402 A 2.003 2.003 0 0 1 116.933 8.161 A 1.563 1.563 0 0 1 116.591 7.8 L 117.013 7.313 A 1.889 1.889 0 0 0 117.448 7.712 A 1.514 1.514 0 0 0 118.292 7.958 A 1.695 1.695 0 0 0 118.669 7.919 Q 118.937 7.858 119.131 7.702 A 1.037 1.037 0 0 0 119.217 7.625 A 1.09 1.09 0 0 0 119.494 7.132 Q 119.541 6.959 119.548 6.752 A 2.134 2.134 0 0 0 119.549 6.684 L 119.549 6.275 A 1.601 1.601 0 0 1 118.497 6.821 A 2.279 2.279 0 0 1 118.217 6.838 A 1.672 1.672 0 0 1 117.462 6.67 Q 117.14 6.51 116.89 6.197 A 2.14 2.14 0 0 1 116.866 6.166 A 2.316 2.316 0 0 1 116.483 5.386 Q 116.35 4.922 116.35 4.333 Q 116.35 3.472 116.658 2.884 A 2.096 2.096 0 0 1 116.864 2.564 Q 117.378 1.907 118.226 1.907 A 1.971 1.971 0 0 1 118.825 1.994 A 1.55 1.55 0 0 1 119.584 2.522 Z M 54.936 3.393 L 54.119 3.393 Q 54.119 3.059 53.835 2.817 Q 53.552 2.575 53.121 2.575 Q 52.677 2.575 52.427 2.769 A 0.653 0.653 0 0 0 52.252 2.967 Q 52.179 3.098 52.176 3.263 A 0.771 0.771 0 0 0 52.176 3.274 A 0.588 0.588 0 0 0 52.206 3.467 A 0.48 0.48 0 0 0 52.409 3.718 A 1.093 1.093 0 0 0 52.559 3.796 Q 52.724 3.868 52.979 3.937 A 6.581 6.581 0 0 0 53.251 4.003 A 6.318 6.318 0 0 1 53.658 4.108 Q 53.995 4.208 54.237 4.329 A 1.901 1.901 0 0 1 54.493 4.481 Q 54.63 4.579 54.727 4.692 A 1.06 1.06 0 0 1 54.798 4.783 A 1.024 1.024 0 0 1 54.96 5.191 A 1.388 1.388 0 0 1 54.98 5.432 Q 54.98 6.069 54.47 6.453 Q 53.988 6.817 53.234 6.837 A 3.337 3.337 0 0 1 53.147 6.838 A 2.746 2.746 0 0 1 52.613 6.788 A 2.124 2.124 0 0 1 52.137 6.636 A 1.771 1.771 0 0 1 51.703 6.358 A 1.54 1.54 0 0 1 51.449 6.071 Q 51.201 5.708 51.201 5.287 L 52.014 5.287 A 0.932 0.932 0 0 0 52.087 5.612 A 0.827 0.827 0 0 0 52.341 5.935 A 1.072 1.072 0 0 0 52.743 6.128 Q 52.898 6.167 53.079 6.173 A 2.013 2.013 0 0 0 53.147 6.174 A 1.863 1.863 0 0 0 53.443 6.152 Q 53.605 6.126 53.736 6.07 A 0.941 0.941 0 0 0 53.888 5.988 A 0.689 0.689 0 0 0 54.052 5.837 A 0.554 0.554 0 0 0 54.167 5.489 A 0.698 0.698 0 0 0 54.131 5.258 A 0.581 0.581 0 0 0 53.919 4.977 A 1.05 1.05 0 0 0 53.75 4.878 Q 53.561 4.788 53.266 4.712 A 5.392 5.392 0 0 0 53.053 4.663 A 6.342 6.342 0 0 1 52.692 4.575 Q 52.322 4.473 52.073 4.346 Q 51.774 4.194 51.604 3.994 A 1.017 1.017 0 0 1 51.537 3.907 Q 51.363 3.652 51.363 3.3 A 1.206 1.206 0 0 1 51.762 2.396 A 1.694 1.694 0 0 1 51.858 2.312 A 1.752 1.752 0 0 1 52.641 1.952 A 2.471 2.471 0 0 1 53.121 1.907 A 2.559 2.559 0 0 1 53.685 1.966 A 1.757 1.757 0 0 1 54.433 2.325 Q 54.936 2.742 54.936 3.393 Z M 59.577 3.393 L 58.759 3.393 Q 58.759 3.059 58.476 2.817 Q 58.192 2.575 57.762 2.575 Q 57.318 2.575 57.067 2.769 A 0.653 0.653 0 0 0 56.892 2.967 Q 56.819 3.098 56.817 3.263 A 0.771 0.771 0 0 0 56.817 3.274 A 0.588 0.588 0 0 0 56.847 3.467 A 0.48 0.48 0 0 0 57.05 3.718 A 1.093 1.093 0 0 0 57.2 3.796 Q 57.364 3.868 57.62 3.937 A 6.581 6.581 0 0 0 57.891 4.003 A 6.318 6.318 0 0 1 58.299 4.108 Q 58.636 4.208 58.878 4.329 A 1.901 1.901 0 0 1 59.134 4.481 Q 59.271 4.579 59.368 4.692 A 1.06 1.06 0 0 1 59.438 4.783 A 1.024 1.024 0 0 1 59.6 5.191 A 1.388 1.388 0 0 1 59.621 5.432 Q 59.621 6.069 59.111 6.453 Q 58.628 6.817 57.875 6.837 A 3.337 3.337 0 0 1 57.788 6.838 A 2.746 2.746 0 0 1 57.254 6.788 A 2.124 2.124 0 0 1 56.777 6.636 A 1.771 1.771 0 0 1 56.343 6.358 A 1.54 1.54 0 0 1 56.09 6.071 Q 55.841 5.708 55.841 5.287 L 56.654 5.287 A 0.932 0.932 0 0 0 56.728 5.612 A 0.827 0.827 0 0 0 56.982 5.935 A 1.072 1.072 0 0 0 57.384 6.128 Q 57.538 6.167 57.72 6.173 A 2.013 2.013 0 0 0 57.788 6.174 A 1.863 1.863 0 0 0 58.084 6.152 Q 58.245 6.126 58.377 6.07 A 0.941 0.941 0 0 0 58.529 5.988 A 0.689 0.689 0 0 0 58.693 5.837 A 0.554 0.554 0 0 0 58.808 5.489 A 0.698 0.698 0 0 0 58.771 5.258 A 0.581 0.581 0 0 0 58.559 4.977 A 1.05 1.05 0 0 0 58.39 4.878 Q 58.202 4.788 57.907 4.712 A 5.392 5.392 0 0 0 57.694 4.663 A 6.342 6.342 0 0 1 57.333 4.575 Q 56.963 4.473 56.714 4.346 Q 56.415 4.194 56.244 3.994 A 1.017 1.017 0 0 1 56.177 3.907 Q 56.004 3.652 56.004 3.3 A 1.206 1.206 0 0 1 56.403 2.396 A 1.694 1.694 0 0 1 56.498 2.312 A 1.752 1.752 0 0 1 57.281 1.952 A 2.471 2.471 0 0 1 57.762 1.907 A 2.559 2.559 0 0 1 58.325 1.966 A 1.757 1.757 0 0 1 59.073 2.325 Q 59.577 2.742 59.577 3.393 Z M 33.618 1.995 L 34.387 1.995 L 34.414 2.593 Q 34.95 1.918 35.81 1.907 A 2.234 2.234 0 0 1 35.837 1.907 A 1.905 1.905 0 0 1 36.471 2.004 Q 37.313 2.3 37.356 3.506 A 3.668 3.668 0 0 1 37.358 3.608 L 37.358 6.75 L 36.545 6.75 L 36.545 3.604 A 1.837 1.837 0 0 0 36.523 3.324 Q 36.472 3.017 36.31 2.843 Q 36.124 2.645 35.77 2.606 A 1.66 1.66 0 0 0 35.591 2.597 A 1.253 1.253 0 0 0 35.177 2.664 A 1.123 1.123 0 0 0 34.897 2.808 A 1.432 1.432 0 0 0 34.431 3.362 L 34.431 6.75 L 33.618 6.75 L 33.618 1.995 Z M 106.682 1.995 L 107.451 1.995 L 107.477 2.593 Q 108.013 1.918 108.873 1.907 A 2.234 2.234 0 0 1 108.901 1.907 A 1.905 1.905 0 0 1 109.534 2.004 Q 110.376 2.3 110.419 3.506 A 3.668 3.668 0 0 1 110.421 3.608 L 110.421 6.75 L 109.608 6.75 L 109.608 3.604 A 1.837 1.837 0 0 0 109.586 3.324 Q 109.536 3.017 109.373 2.843 Q 109.187 2.645 108.834 2.606 A 1.66 1.66 0 0 0 108.655 2.597 A 1.253 1.253 0 0 0 108.24 2.664 A 1.123 1.123 0 0 0 107.96 2.808 A 1.432 1.432 0 0 0 107.495 3.362 L 107.495 6.75 L 106.682 6.75 L 106.682 1.995 Z M 11.94 0.352 L 11.94 1.046 L 9.883 1.046 L 9.883 6.75 L 9.044 6.75 L 9.044 1.046 L 6.992 1.046 L 6.992 0.352 L 11.94 0.352 Z M 50.291 6.75 L 49.438 6.75 A 0.632 0.632 0 0 1 49.403 6.66 Q 49.372 6.562 49.347 6.41 A 3.997 3.997 0 0 1 49.324 6.249 Q 48.757 6.838 47.971 6.838 A 2.033 2.033 0 0 1 47.441 6.772 A 1.529 1.529 0 0 1 46.817 6.44 Q 46.367 6.042 46.367 5.432 Q 46.367 4.689 46.931 4.278 Q 47.496 3.867 48.52 3.867 L 49.311 3.867 L 49.311 3.494 A 1.152 1.152 0 0 0 49.275 3.199 A 0.828 0.828 0 0 0 49.056 2.815 Q 48.84 2.6 48.449 2.568 A 1.748 1.748 0 0 0 48.305 2.562 Q 47.87 2.562 47.575 2.782 Q 47.281 3.001 47.281 3.313 L 46.463 3.313 A 1.041 1.041 0 0 1 46.588 2.825 A 1.409 1.409 0 0 1 46.716 2.626 Q 46.969 2.294 47.402 2.101 A 2.249 2.249 0 0 1 48.177 1.913 A 2.669 2.669 0 0 1 48.353 1.907 A 2.65 2.65 0 0 1 48.87 1.955 Q 49.178 2.016 49.417 2.156 A 1.439 1.439 0 0 1 49.641 2.318 A 1.396 1.396 0 0 1 50.094 3.144 A 1.998 1.998 0 0 1 50.124 3.45 L 50.124 5.638 Q 50.124 6.073 50.198 6.39 A 1.707 1.707 0 0 0 50.291 6.68 L 50.291 6.75 Z M 82.705 6.75 L 81.853 6.75 A 0.632 0.632 0 0 1 81.817 6.66 Q 81.786 6.562 81.761 6.41 A 3.997 3.997 0 0 1 81.738 6.249 Q 81.171 6.838 80.385 6.838 A 2.033 2.033 0 0 1 79.855 6.772 A 1.529 1.529 0 0 1 79.231 6.44 Q 78.781 6.042 78.781 5.432 Q 78.781 4.689 79.345 4.278 Q 79.91 3.867 80.934 3.867 L 81.725 3.867 L 81.725 3.494 A 1.152 1.152 0 0 0 81.689 3.199 A 0.828 0.828 0 0 0 81.47 2.815 Q 81.254 2.6 80.864 2.568 A 1.748 1.748 0 0 0 80.719 2.562 Q 80.284 2.562 79.989 2.782 Q 79.695 3.001 79.695 3.313 L 78.877 3.313 A 1.041 1.041 0 0 1 79.002 2.825 A 1.409 1.409 0 0 1 79.13 2.626 Q 79.383 2.294 79.816 2.101 A 2.249 2.249 0 0 1 80.591 1.913 A 2.669 2.669 0 0 1 80.767 1.907 A 2.65 2.65 0 0 1 81.285 1.955 Q 81.592 2.016 81.831 2.156 A 1.439 1.439 0 0 1 82.055 2.318 A 1.396 1.396 0 0 1 82.508 3.144 A 1.998 1.998 0 0 1 82.538 3.45 L 82.538 5.638 Q 82.538 6.073 82.612 6.39 A 1.707 1.707 0 0 0 82.705 6.68 L 82.705 6.75 Z M 105.574 6.75 L 104.722 6.75 A 0.632 0.632 0 0 1 104.686 6.66 Q 104.655 6.562 104.63 6.41 A 3.997 3.997 0 0 1 104.607 6.249 Q 104.041 6.838 103.254 6.838 A 2.033 2.033 0 0 1 102.725 6.772 A 1.529 1.529 0 0 1 102.1 6.44 Q 101.65 6.042 101.65 5.432 Q 101.65 4.689 102.215 4.278 Q 102.779 3.867 103.803 3.867 L 104.594 3.867 L 104.594 3.494 A 1.152 1.152 0 0 0 104.558 3.199 A 0.828 0.828 0 0 0 104.339 2.815 Q 104.123 2.6 103.733 2.568 A 1.748 1.748 0 0 0 103.588 2.562 Q 103.153 2.562 102.858 2.782 Q 102.564 3.001 102.564 3.313 L 101.747 3.313 A 1.041 1.041 0 0 1 101.872 2.825 A 1.409 1.409 0 0 1 101.999 2.626 Q 102.252 2.294 102.685 2.101 A 2.249 2.249 0 0 1 103.461 1.913 A 2.669 2.669 0 0 1 103.636 1.907 A 2.65 2.65 0 0 1 104.154 1.955 Q 104.461 2.016 104.7 2.156 A 1.439 1.439 0 0 1 104.924 2.318 A 1.396 1.396 0 0 1 105.377 3.144 A 1.998 1.998 0 0 1 105.407 3.45 L 105.407 5.638 Q 105.407 6.073 105.481 6.39 A 1.707 1.707 0 0 0 105.574 6.68 L 105.574 6.75 Z M 115.436 6.75 L 114.583 6.75 A 0.632 0.632 0 0 1 114.548 6.66 Q 114.516 6.562 114.491 6.41 A 3.997 3.997 0 0 1 114.469 6.249 Q 113.902 6.838 113.115 6.838 A 2.033 2.033 0 0 1 112.586 6.772 A 1.529 1.529 0 0 1 111.962 6.44 Q 111.511 6.042 111.511 5.432 Q 111.511 4.689 112.076 4.278 Q 112.641 3.867 113.665 3.867 L 114.456 3.867 L 114.456 3.494 A 1.152 1.152 0 0 0 114.42 3.199 A 0.828 0.828 0 0 0 114.201 2.815 Q 113.984 2.6 113.594 2.568 A 1.748 1.748 0 0 0 113.449 2.562 Q 113.014 2.562 112.72 2.782 Q 112.425 3.001 112.425 3.313 L 111.608 3.313 A 1.041 1.041 0 0 1 111.733 2.825 A 1.409 1.409 0 0 1 111.861 2.626 Q 112.113 2.294 112.546 2.101 A 2.249 2.249 0 0 1 113.322 1.913 A 2.669 2.669 0 0 1 113.498 1.907 A 2.65 2.65 0 0 1 114.015 1.955 Q 114.322 2.016 114.561 2.156 A 1.439 1.439 0 0 1 114.785 2.318 A 1.396 1.396 0 0 1 115.239 3.144 A 1.998 1.998 0 0 1 115.269 3.45 L 115.269 5.638 Q 115.269 6.073 115.342 6.39 A 1.707 1.707 0 0 0 115.436 6.68 L 115.436 6.75 Z M 153.659 6.75 L 152.807 6.75 A 0.632 0.632 0 0 1 152.771 6.66 Q 152.74 6.562 152.715 6.41 A 3.997 3.997 0 0 1 152.692 6.249 Q 152.125 6.838 151.339 6.838 A 2.033 2.033 0 0 1 150.81 6.772 A 1.529 1.529 0 0 1 150.185 6.44 Q 149.735 6.042 149.735 5.432 Q 149.735 4.689 150.3 4.278 Q 150.864 3.867 151.888 3.867 L 152.679 3.867 L 152.679 3.494 A 1.152 1.152 0 0 0 152.643 3.199 A 0.828 0.828 0 0 0 152.424 2.815 Q 152.208 2.6 151.818 2.568 A 1.748 1.748 0 0 0 151.673 2.562 Q 151.238 2.562 150.943 2.782 Q 150.649 3.001 150.649 3.313 L 149.832 3.313 A 1.041 1.041 0 0 1 149.956 2.825 A 1.409 1.409 0 0 1 150.084 2.626 Q 150.337 2.294 150.77 2.101 A 2.249 2.249 0 0 1 151.545 1.913 A 2.669 2.669 0 0 1 151.721 1.907 A 2.65 2.65 0 0 1 152.239 1.955 Q 152.546 2.016 152.785 2.156 A 1.439 1.439 0 0 1 153.009 2.318 A 1.396 1.396 0 0 1 153.462 3.144 A 1.998 1.998 0 0 1 153.492 3.45 L 153.492 5.638 Q 153.492 6.073 153.566 6.39 A 1.707 1.707 0 0 0 153.659 6.68 L 153.659 6.75 Z M 23.875 4.504 L 23.875 4.355 A 3.17 3.17 0 0 1 23.952 3.646 A 2.581 2.581 0 0 1 24.146 3.092 A 2.191 2.191 0 0 1 24.593 2.466 A 2.033 2.033 0 0 1 24.902 2.221 Q 25.387 1.907 25.954 1.907 A 2.254 2.254 0 0 1 26.567 1.986 A 1.639 1.639 0 0 1 27.396 2.518 Q 27.91 3.129 27.91 4.267 L 27.91 4.605 L 24.688 4.605 A 2.111 2.111 0 0 0 24.76 5.114 A 1.516 1.516 0 0 0 25.099 5.741 A 1.282 1.282 0 0 0 26.033 6.173 A 1.652 1.652 0 0 0 26.099 6.174 A 1.763 1.763 0 0 0 26.427 6.145 Q 26.651 6.103 26.829 5.999 A 1.827 1.827 0 0 0 27.337 5.551 A 2.068 2.068 0 0 0 27.352 5.533 L 27.848 5.919 A 1.926 1.926 0 0 1 26.448 6.811 A 2.749 2.749 0 0 1 26.055 6.838 A 2.394 2.394 0 0 1 25.304 6.725 A 1.974 1.974 0 0 1 24.482 6.203 Q 23.875 5.568 23.875 4.504 Z M 28.644 4.504 L 28.644 4.355 A 3.17 3.17 0 0 1 28.72 3.646 A 2.581 2.581 0 0 1 28.914 3.092 A 2.191 2.191 0 0 1 29.361 2.466 A 2.033 2.033 0 0 1 29.67 2.221 Q 30.155 1.907 30.722 1.907 A 2.254 2.254 0 0 1 31.335 1.986 A 1.639 1.639 0 0 1 32.164 2.518 Q 32.678 3.129 32.678 4.267 L 32.678 4.605 L 29.457 4.605 A 2.111 2.111 0 0 0 29.528 5.114 A 1.516 1.516 0 0 0 29.867 5.741 A 1.282 1.282 0 0 0 30.801 6.173 A 1.652 1.652 0 0 0 30.867 6.174 A 1.763 1.763 0 0 0 31.195 6.145 Q 31.419 6.103 31.597 5.999 A 1.827 1.827 0 0 0 32.106 5.551 A 2.068 2.068 0 0 0 32.12 5.533 L 32.616 5.919 A 1.926 1.926 0 0 1 31.216 6.811 A 2.749 2.749 0 0 1 30.823 6.838 A 2.394 2.394 0 0 1 30.072 6.725 A 1.974 1.974 0 0 1 29.25 6.203 Q 28.644 5.568 28.644 4.504 Z M 73.942 4.504 L 73.942 4.355 A 3.17 3.17 0 0 1 74.019 3.646 A 2.581 2.581 0 0 1 74.213 3.092 A 2.191 2.191 0 0 1 74.66 2.466 A 2.033 2.033 0 0 1 74.969 2.221 Q 75.454 1.907 76.021 1.907 A 2.254 2.254 0 0 1 76.634 1.986 A 1.639 1.639 0 0 1 77.462 2.518 Q 77.977 3.129 77.977 4.267 L 77.977 4.605 L 74.755 4.605 A 2.111 2.111 0 0 0 74.826 5.114 A 1.516 1.516 0 0 0 75.166 5.741 A 1.282 1.282 0 0 0 76.1 6.173 A 1.652 1.652 0 0 0 76.166 6.174 A 1.763 1.763 0 0 0 76.494 6.145 Q 76.718 6.103 76.896 5.999 A 1.827 1.827 0 0 0 77.404 5.551 A 2.068 2.068 0 0 0 77.418 5.533 L 77.915 5.919 A 1.926 1.926 0 0 1 76.515 6.811 A 2.749 2.749 0 0 1 76.122 6.838 A 2.394 2.394 0 0 1 75.371 6.725 A 1.974 1.974 0 0 1 74.549 6.203 Q 73.942 5.568 73.942 4.504 Z M 121.386 4.504 L 121.386 4.355 A 3.17 3.17 0 0 1 121.462 3.646 A 2.581 2.581 0 0 1 121.656 3.092 A 2.191 2.191 0 0 1 122.103 2.466 A 2.033 2.033 0 0 1 122.412 2.221 Q 122.897 1.907 123.464 1.907 A 2.254 2.254 0 0 1 124.077 1.986 A 1.639 1.639 0 0 1 124.906 2.518 Q 125.42 3.129 125.42 4.267 L 125.42 4.605 L 122.199 4.605 A 2.111 2.111 0 0 0 122.27 5.114 A 1.516 1.516 0 0 0 122.61 5.741 A 1.282 1.282 0 0 0 123.544 6.173 A 1.652 1.652 0 0 0 123.609 6.174 A 1.763 1.763 0 0 0 123.938 6.145 Q 124.161 6.103 124.339 5.999 A 1.827 1.827 0 0 0 124.848 5.551 A 2.068 2.068 0 0 0 124.862 5.533 L 125.358 5.919 A 1.926 1.926 0 0 1 123.959 6.811 A 2.749 2.749 0 0 1 123.565 6.838 A 2.394 2.394 0 0 1 122.814 6.725 A 1.974 1.974 0 0 1 121.992 6.203 Q 121.386 5.568 121.386 4.504 Z M 134.982 0.352 L 134.982 4.601 L 135.87 4.601 L 135.87 5.265 L 134.982 5.265 L 134.982 6.75 L 134.165 6.75 L 134.165 5.265 L 131.251 5.265 L 131.251 4.786 L 134.117 0.352 L 134.982 0.352 Z M 145.868 6.75 L 144.097 6.75 L 144.097 0.352 L 145.903 0.352 Q 146.738 0.352 147.379 0.721 Q 148.021 1.09 148.37 1.771 A 3.19 3.19 0 0 1 148.687 2.8 A 4.073 4.073 0 0 1 148.724 3.335 L 148.724 3.744 Q 148.724 4.649 148.375 5.331 A 2.457 2.457 0 0 1 147.377 6.376 Q 146.729 6.741 145.868 6.75 Z M 140.381 2.592 A 1.544 1.544 0 0 0 140.484 2.021 A 2.226 2.226 0 0 0 140.463 1.707 A 1.566 1.566 0 0 0 139.964 0.738 A 1.754 1.754 0 0 0 139.198 0.333 A 2.443 2.443 0 0 0 138.599 0.264 A 2.539 2.539 0 0 0 138.09 0.312 A 1.767 1.767 0 0 0 137.232 0.738 Q 136.714 1.213 136.714 2.021 A 1.808 1.808 0 0 0 136.714 2.058 A 1.499 1.499 0 0 0 136.96 2.87 A 1.626 1.626 0 0 0 137.122 3.077 A 1.726 1.726 0 0 0 137.632 3.454 A 2.119 2.119 0 0 0 137.533 3.5 A 1.738 1.738 0 0 0 136.848 4.087 A 1.629 1.629 0 0 0 136.564 5.023 A 2.272 2.272 0 0 0 136.574 5.237 A 1.63 1.63 0 0 0 137.12 6.344 A 1.895 1.895 0 0 0 137.971 6.771 A 2.797 2.797 0 0 0 138.599 6.838 A 2.796 2.796 0 0 0 139.198 6.777 A 1.925 1.925 0 0 0 140.073 6.346 A 1.578 1.578 0 0 0 140.548 5.62 A 1.989 1.989 0 0 0 140.634 5.023 A 1.581 1.581 0 0 0 140.342 4.087 Q 140.049 3.674 139.548 3.458 Q 139.979 3.248 140.232 2.874 A 1.449 1.449 0 0 0 140.381 2.592 Z M 68.537 0.844 L 69.35 0.844 L 69.35 1.995 L 70.238 1.995 L 70.238 2.624 L 69.35 2.624 L 69.35 5.572 Q 69.35 5.858 69.469 6.001 Q 69.587 6.144 69.873 6.144 A 1.046 1.046 0 0 0 69.971 6.138 Q 70.073 6.129 70.213 6.101 A 4.024 4.024 0 0 0 70.26 6.091 L 70.26 6.75 A 2.463 2.463 0 0 1 69.827 6.829 A 2.157 2.157 0 0 1 69.636 6.838 Q 69.189 6.838 68.922 6.616 A 0.856 0.856 0 0 1 68.814 6.508 Q 68.587 6.238 68.546 5.78 A 2.351 2.351 0 0 1 68.537 5.572 L 68.537 2.624 L 67.671 2.624 L 67.671 1.995 L 68.537 1.995 L 68.537 0.844 Z M 2.043 4.386 L 2.043 4.329 A 3.057 3.057 0 0 1 2.13 3.587 A 2.573 2.573 0 0 1 2.318 3.072 A 2.16 2.16 0 0 1 2.733 2.486 A 1.957 1.957 0 0 1 3.083 2.21 A 2.036 2.036 0 0 1 4.027 1.913 A 2.491 2.491 0 0 1 4.201 1.907 A 2.277 2.277 0 0 1 4.955 2.027 A 1.937 1.937 0 0 1 5.772 2.58 A 2.29 2.29 0 0 1 6.291 3.608 A 3.373 3.373 0 0 1 6.372 4.368 L 6.372 4.425 A 3.114 3.114 0 0 1 6.293 5.142 A 2.577 2.577 0 0 1 6.106 5.671 A 2.056 2.056 0 0 1 5.579 6.361 A 2.001 2.001 0 0 1 5.346 6.53 A 2.045 2.045 0 0 1 4.426 6.829 A 2.529 2.529 0 0 1 4.21 6.838 A 2.262 2.262 0 0 1 3.46 6.718 A 1.938 1.938 0 0 1 2.643 6.166 A 2.297 2.297 0 0 1 2.118 5.111 A 3.357 3.357 0 0 1 2.043 4.386 Z M 23.418 1.969 L 23.418 2.725 A 2.251 2.251 0 0 0 23.176 2.698 A 2.782 2.782 0 0 0 23.019 2.694 Q 22.241 2.694 21.949 3.338 A 1.445 1.445 0 0 0 21.933 3.375 L 21.933 6.75 L 21.12 6.75 L 21.12 1.995 L 21.911 1.995 L 21.924 2.544 Q 22.305 1.938 22.987 1.909 A 1.636 1.636 0 0 1 23.058 1.907 Q 23.295 1.907 23.418 1.969 Z M 45.932 1.969 L 45.932 2.725 A 2.251 2.251 0 0 0 45.689 2.698 A 2.782 2.782 0 0 0 45.532 2.694 Q 44.754 2.694 44.462 3.338 A 1.445 1.445 0 0 0 44.446 3.375 L 44.446 6.75 L 43.633 6.75 L 43.633 1.995 L 44.424 1.995 L 44.438 2.544 Q 44.818 1.938 45.5 1.909 A 1.636 1.636 0 0 1 45.571 1.907 Q 45.809 1.907 45.932 1.969 Z M 73.485 1.969 L 73.485 2.725 A 2.251 2.251 0 0 0 73.243 2.698 A 2.782 2.782 0 0 0 73.085 2.694 Q 72.308 2.694 72.016 3.338 A 1.445 1.445 0 0 0 72 3.375 L 72 6.75 L 71.187 6.75 L 71.187 1.995 L 71.978 1.995 L 71.991 2.544 Q 72.372 1.938 73.054 1.909 A 1.636 1.636 0 0 1 73.125 1.907 Q 73.362 1.907 73.485 1.969 Z M 128.659 1.969 L 128.659 2.725 A 2.251 2.251 0 0 0 128.416 2.698 A 2.782 2.782 0 0 0 128.259 2.694 Q 127.481 2.694 127.189 3.338 A 1.445 1.445 0 0 0 127.173 3.375 L 127.173 6.75 L 126.36 6.75 L 126.36 1.995 L 127.151 1.995 L 127.165 2.544 Q 127.545 1.938 128.227 1.909 A 1.636 1.636 0 0 1 128.298 1.907 Q 128.536 1.907 128.659 1.969 Z M 157.065 1.969 L 157.065 2.725 A 2.251 2.251 0 0 0 156.822 2.698 A 2.782 2.782 0 0 0 156.665 2.694 Q 155.887 2.694 155.596 3.338 A 1.445 1.445 0 0 0 155.58 3.375 L 155.58 6.75 L 154.767 6.75 L 154.767 1.995 L 155.558 1.995 L 155.571 2.544 Q 155.951 1.938 156.634 1.909 A 1.636 1.636 0 0 1 156.705 1.907 Q 156.942 1.907 157.065 1.969 Z M 0.844 0.352 L 0.844 6.75 L 0 6.75 L 0 0.352 L 0.844 0.352 Z M 145.925 1.046 L 144.94 1.046 L 144.94 6.06 L 145.828 6.06 A 2.519 2.519 0 0 0 146.461 5.985 A 1.747 1.747 0 0 0 147.346 5.454 Q 147.806 4.94 147.876 4.059 A 4.165 4.165 0 0 0 147.889 3.727 L 147.889 3.353 Q 147.889 2.562 147.62 2.027 A 1.864 1.864 0 0 0 147.377 1.659 A 1.687 1.687 0 0 0 146.381 1.09 A 2.499 2.499 0 0 0 145.925 1.046 Z M 2.861 4.425 A 2.772 2.772 0 0 0 2.908 4.954 Q 2.969 5.264 3.106 5.51 A 1.545 1.545 0 0 0 3.228 5.695 Q 3.595 6.174 4.21 6.174 A 1.269 1.269 0 0 0 4.699 6.083 Q 4.979 5.967 5.181 5.706 A 1.471 1.471 0 0 0 5.194 5.689 A 1.648 1.648 0 0 0 5.449 5.171 Q 5.518 4.945 5.544 4.672 A 3.655 3.655 0 0 0 5.559 4.329 A 2.687 2.687 0 0 0 5.508 3.789 Q 5.44 3.459 5.283 3.2 A 1.586 1.586 0 0 0 5.188 3.061 A 1.231 1.231 0 0 0 4.773 2.705 Q 4.52 2.575 4.201 2.575 Q 3.611 2.575 3.245 3.035 A 1.515 1.515 0 0 0 3.23 3.054 A 1.589 1.589 0 0 0 2.978 3.552 Q 2.908 3.772 2.88 4.039 A 3.676 3.676 0 0 0 2.861 4.425 Z M 41.59 5.449 L 41.59 3.278 A 1.439 1.439 0 0 0 41.289 2.891 Q 40.985 2.62 40.545 2.599 A 1.578 1.578 0 0 0 40.469 2.597 Q 39.877 2.597 39.544 3.056 A 1.51 1.51 0 0 0 39.333 3.484 Q 39.267 3.689 39.236 3.939 A 3.955 3.955 0 0 0 39.208 4.425 Q 39.208 5.229 39.538 5.689 Q 39.867 6.148 40.46 6.148 A 1.32 1.32 0 0 0 40.97 6.054 Q 41.362 5.891 41.59 5.449 Z M 119.549 5.449 L 119.549 3.278 A 1.439 1.439 0 0 0 119.248 2.891 Q 118.944 2.62 118.504 2.599 A 1.578 1.578 0 0 0 118.428 2.597 Q 117.836 2.597 117.503 3.056 A 1.51 1.51 0 0 0 117.292 3.484 Q 117.226 3.689 117.195 3.939 A 3.955 3.955 0 0 0 117.167 4.425 Q 117.167 5.229 117.497 5.689 Q 117.826 6.148 118.419 6.148 A 1.32 1.32 0 0 0 118.929 6.054 Q 119.321 5.891 119.549 5.449 Z M 134.068 1.639 L 132.174 4.601 L 134.165 4.601 L 134.165 1.463 L 134.068 1.639 Z M 139.821 5.005 A 1.375 1.375 0 0 0 139.761 4.592 A 1.109 1.109 0 0 0 139.48 4.131 A 1.148 1.148 0 0 0 138.809 3.807 A 1.593 1.593 0 0 0 138.59 3.792 A 1.466 1.466 0 0 0 138.202 3.841 A 1.086 1.086 0 0 0 137.709 4.126 A 1.123 1.123 0 0 0 137.396 4.762 A 1.572 1.572 0 0 0 137.377 5.005 A 1.48 1.48 0 0 0 137.419 5.367 A 1.019 1.019 0 0 0 137.7 5.862 Q 138.007 6.158 138.54 6.173 A 2.053 2.053 0 0 0 138.599 6.174 Q 139.093 6.174 139.403 5.94 A 1.018 1.018 0 0 0 139.496 5.86 A 1.041 1.041 0 0 0 139.795 5.292 A 1.518 1.518 0 0 0 139.821 5.005 Z M 138.599 0.932 A 1.259 1.259 0 0 0 138.246 0.979 A 0.973 0.973 0 0 0 137.823 1.228 Q 137.527 1.525 137.527 2.035 A 1.325 1.325 0 0 0 137.571 2.387 A 0.994 0.994 0 0 0 137.819 2.823 A 0.974 0.974 0 0 0 138.381 3.108 A 1.382 1.382 0 0 0 138.599 3.125 A 1.279 1.279 0 0 0 138.944 3.08 A 0.952 0.952 0 0 0 139.379 2.823 A 1.018 1.018 0 0 0 139.654 2.26 A 1.426 1.426 0 0 0 139.671 2.035 A 1.282 1.282 0 0 0 139.621 1.668 A 1.013 1.013 0 0 0 139.368 1.239 Q 139.065 0.932 138.599 0.932 Z M 49.311 5.418 L 49.311 4.443 L 48.674 4.443 Q 47.18 4.443 47.18 5.317 Q 47.18 5.7 47.435 5.915 A 0.893 0.893 0 0 0 47.848 6.108 A 1.259 1.259 0 0 0 48.089 6.13 A 1.429 1.429 0 0 0 48.814 5.933 A 1.335 1.335 0 0 0 49.11 5.705 A 1.108 1.108 0 0 0 49.311 5.418 Z M 81.725 5.418 L 81.725 4.443 L 81.088 4.443 Q 79.594 4.443 79.594 5.317 Q 79.594 5.7 79.849 5.915 A 0.893 0.893 0 0 0 80.262 6.108 A 1.259 1.259 0 0 0 80.503 6.13 A 1.429 1.429 0 0 0 81.229 5.933 A 1.335 1.335 0 0 0 81.524 5.705 A 1.108 1.108 0 0 0 81.725 5.418 Z M 104.594 5.418 L 104.594 4.443 L 103.957 4.443 Q 102.463 4.443 102.463 5.317 Q 102.463 5.7 102.718 5.915 A 0.893 0.893 0 0 0 103.131 6.108 A 1.259 1.259 0 0 0 103.373 6.13 A 1.429 1.429 0 0 0 104.098 5.933 A 1.335 1.335 0 0 0 104.393 5.705 A 1.108 1.108 0 0 0 104.594 5.418 Z M 114.456 5.418 L 114.456 4.443 L 113.818 4.443 Q 112.324 4.443 112.324 5.317 Q 112.324 5.7 112.579 5.915 A 0.893 0.893 0 0 0 112.993 6.108 A 1.259 1.259 0 0 0 113.234 6.13 A 1.429 1.429 0 0 0 113.959 5.933 A 1.335 1.335 0 0 0 114.255 5.705 A 1.108 1.108 0 0 0 114.456 5.418 Z M 152.679 5.418 L 152.679 4.443 L 152.042 4.443 Q 150.548 4.443 150.548 5.317 Q 150.548 5.7 150.803 5.915 A 0.893 0.893 0 0 0 151.216 6.108 A 1.259 1.259 0 0 0 151.458 6.13 A 1.429 1.429 0 0 0 152.183 5.933 A 1.335 1.335 0 0 0 152.478 5.705 A 1.108 1.108 0 0 0 152.679 5.418 Z M 24.715 3.938 L 27.097 3.938 L 27.097 3.876 Q 27.071 3.417 26.9 3.111 A 1.13 1.13 0 0 0 26.763 2.916 A 0.983 0.983 0 0 0 26.108 2.584 A 1.39 1.39 0 0 0 25.954 2.575 A 1.106 1.106 0 0 0 25.432 2.698 A 1.14 1.14 0 0 0 25.128 2.933 A 1.417 1.417 0 0 0 24.851 3.379 Q 24.778 3.563 24.738 3.785 A 2.741 2.741 0 0 0 24.715 3.938 Z M 29.483 3.938 L 31.865 3.938 L 31.865 3.876 Q 31.839 3.417 31.668 3.111 A 1.13 1.13 0 0 0 31.531 2.916 A 0.983 0.983 0 0 0 30.876 2.584 A 1.39 1.39 0 0 0 30.722 2.575 A 1.106 1.106 0 0 0 30.2 2.698 A 1.14 1.14 0 0 0 29.896 2.933 A 1.417 1.417 0 0 0 29.619 3.379 Q 29.546 3.563 29.506 3.785 A 2.741 2.741 0 0 0 29.483 3.938 Z M 74.782 3.938 L 77.164 3.938 L 77.164 3.876 Q 77.138 3.417 76.967 3.111 A 1.13 1.13 0 0 0 76.83 2.916 A 0.983 0.983 0 0 0 76.175 2.584 A 1.39 1.39 0 0 0 76.021 2.575 A 1.106 1.106 0 0 0 75.499 2.698 A 1.14 1.14 0 0 0 75.195 2.933 A 1.417 1.417 0 0 0 74.918 3.379 Q 74.845 3.563 74.805 3.785 A 2.741 2.741 0 0 0 74.782 3.938 Z M 122.225 3.938 L 124.607 3.938 L 124.607 3.876 Q 124.581 3.417 124.41 3.111 A 1.13 1.13 0 0 0 124.273 2.916 A 0.983 0.983 0 0 0 123.619 2.584 A 1.39 1.39 0 0 0 123.464 2.575 A 1.106 1.106 0 0 0 122.942 2.698 A 1.14 1.14 0 0 0 122.638 2.933 A 1.417 1.417 0 0 0 122.362 3.379 Q 122.288 3.563 122.248 3.785 A 2.741 2.741 0 0 0 122.225 3.938 Z" vector-effect="non-scaling-stroke"/></g>
</svgversion="1.0" encoding="UTF-8"?>
<svg width="48px" height="48px" viewBox="0 0 48 48" version="1.1" xmlns="http://www.w3.org/2000/svg" xmlns:xlink="http://www.w3.org/1999/xlink">
    <title>Icon-Resource/IoT/Res_AWS-IoT-Greengrass_Stream-Manager_48_Dark</title>
    <g id="Icon-Resource/IoT/Res_AWS-IoT-Greengrass_Stream-Manager_48" stroke="none" stroke-width="1" fill="none" fill-rule="evenodd">
        <path transform="translate(12.000000, 8.000000), scale(.65)" d="M13,38 L31,38 L31,36 L13,36 L13,38 Z M2,25 L21,25 L21,23 L2,23 L2,25 Z M2,14 L15,14 L15,12 L2,12 L2,14 Z M7,29 L17,29 L17,27 L7,27 L7,29 Z M41,26 L44,26 L44,23 L41,23 L41,26 Z M45,21 L40,21 C39.447,21 39,21.448 39,22 L39,27 C39,27.552 39.447,28 40,28 L45,28 C45.553,28 46,27.552 46,27 L46,22 C46,21.448 45.553,21 45,21 L45,21 Z M20,15 L26,15 L26,9 L20,9 L20,15 Z M19,17 L27,17 C27.553,17 28,16.552 28,16 L28,8 C28,7.448 27.553,7 27,7 L19,7 C18.447,7 18,7.448 18,8 L18,16 C18,16.552 18.447,17 19,17 L19,17 Z M35,39 L39,39 L39,35 L35,35 L35,39 Z M40,33 L34,33 C33.447,33 33,33.448 33,34 L33,40 C33,40.552 33.447,41 34,41 L40,41 C40.553,41 41,40.552 41,40 L41,34 C41,33.448 40.553,33 40,33 L40,33 Z M36,16 L39,16 L39,13 L36,13 L36,16 Z M35,18 L40,18 C40.553,18 41,17.552 41,17 L41,12 C41,11.448 40.553,11 40,11 L35,11 C34.447,11 34,11.448 34,12 L34,17 C34,17.552 34.447,18 35,18 L35,18 Z M26,29 L33,29 L33,22 L26,22 L26,29 Z M24,21 L24,30 C24,30.552 24.447,31 25,31 L34,31 C34.553,31 35,30.552 35,30 L35,21 C35,20.448 34.553,20 34,20 L25,20 C24.447,20 24,20.448 24,21 L24,21 Z" id="Fill-1" fill="#000000"></path>
    </g><g transform="translate(25, 83)" id="svgGroup" stroke-linecap="round" fill-rule="evenodd" font-size="9pt" stroke="#000" stroke-width="0.25mm" fill="#000" style="stroke:#000;stroke-width:0.25mm;fill:#000"><path d="M 23.12 0.088 L 24.13 4.469 L 24.253 5.313 L 24.434 4.553 L 25.699 0.088 L 26.411 0.088 L 27.646 4.553 L 27.822 5.326 L 27.958 4.465 L 28.951 0.088 L 29.799 0.088 L 28.248 6.486 L 27.479 6.486 L 26.161 1.824 L 26.06 1.336 L 25.958 1.824 L 24.592 6.486 L 23.823 6.486 L 22.276 0.088 L 23.12 0.088 Z M 34.98 1.938 L 34.132 1.938 A 1.466 1.466 0 0 0 34.083 1.546 A 1.066 1.066 0 0 0 33.763 1.026 A 1.211 1.211 0 0 0 33.294 0.77 Q 33.042 0.694 32.722 0.694 A 2.286 2.286 0 0 0 32.342 0.724 Q 32.14 0.758 31.977 0.831 A 1.101 1.101 0 0 0 31.748 0.969 A 0.892 0.892 0 0 0 31.403 1.624 A 1.267 1.267 0 0 0 31.399 1.732 A 0.806 0.806 0 0 0 31.667 2.337 A 1.134 1.134 0 0 0 31.731 2.393 A 1.562 1.562 0 0 0 31.969 2.549 Q 32.299 2.73 32.86 2.887 A 8.228 8.228 0 0 1 33.325 3.032 Q 33.56 3.113 33.754 3.2 A 3.297 3.297 0 0 1 34.108 3.382 A 2.342 2.342 0 0 1 34.447 3.626 Q 34.637 3.792 34.759 3.985 A 1.45 1.45 0 0 1 34.776 4.012 A 1.498 1.498 0 0 1 34.972 4.568 A 1.948 1.948 0 0 1 34.994 4.86 A 1.606 1.606 0 0 1 34.871 5.497 Q 34.726 5.838 34.408 6.09 A 1.886 1.886 0 0 1 34.387 6.106 Q 33.781 6.574 32.766 6.574 A 3.023 3.023 0 0 1 31.625 6.36 A 2.917 2.917 0 0 1 31.535 6.322 A 2.383 2.383 0 0 1 31.057 6.044 A 1.874 1.874 0 0 1 30.654 5.629 A 1.689 1.689 0 0 1 30.344 4.632 L 31.192 4.632 A 1.261 1.261 0 0 0 31.262 5.059 A 1.074 1.074 0 0 0 31.621 5.548 Q 32.005 5.85 32.622 5.881 A 2.87 2.87 0 0 0 32.766 5.884 A 2.628 2.628 0 0 0 33.153 5.858 Q 33.349 5.828 33.508 5.767 A 1.129 1.129 0 0 0 33.79 5.612 Q 34.146 5.339 34.146 4.869 A 1.074 1.074 0 0 0 34.103 4.559 A 0.816 0.816 0 0 0 33.816 4.142 Q 33.486 3.885 32.621 3.634 Q 31.535 3.322 31.041 2.868 Q 30.546 2.413 30.546 1.745 Q 30.546 0.989 31.151 0.494 A 2.121 2.121 0 0 1 32.041 0.071 A 3.087 3.087 0 0 1 32.722 0 A 2.913 2.913 0 0 1 33.382 0.072 A 2.372 2.372 0 0 1 33.897 0.255 A 2.051 2.051 0 0 1 34.428 0.626 A 1.834 1.834 0 0 1 34.697 0.958 A 1.798 1.798 0 0 1 34.98 1.938 Z M 3.74 6.486 L 2.351 3.898 L 0.848 3.898 L 0.848 6.486 L 0 6.486 L 0 0.088 L 2.118 0.088 A 3.809 3.809 0 0 1 2.76 0.138 Q 3.102 0.197 3.376 0.324 A 1.789 1.789 0 0 1 3.781 0.58 A 1.588 1.588 0 0 1 4.307 1.469 A 2.453 2.453 0 0 1 4.364 2.013 A 1.864 1.864 0 0 1 4.273 2.604 A 1.64 1.64 0 0 1 4.041 3.054 A 1.849 1.849 0 0 1 3.382 3.611 A 2.342 2.342 0 0 1 3.142 3.718 L 4.645 6.434 L 4.645 6.486 L 3.74 6.486 Z M 13.724 3.129 L 12.907 3.129 Q 12.907 2.795 12.623 2.553 Q 12.34 2.312 11.909 2.312 Q 11.465 2.312 11.215 2.505 A 0.653 0.653 0 0 0 11.04 2.704 Q 10.967 2.835 10.964 3 A 0.771 0.771 0 0 0 10.964 3.01 A 0.588 0.588 0 0 0 10.994 3.203 A 0.48 0.48 0 0 0 11.197 3.454 A 1.093 1.093 0 0 0 11.348 3.533 Q 11.512 3.605 11.767 3.673 A 6.581 6.581 0 0 0 12.039 3.74 A 6.318 6.318 0 0 1 12.446 3.845 Q 12.783 3.944 13.025 4.065 A 1.901 1.901 0 0 1 13.281 4.218 Q 13.418 4.315 13.516 4.429 A 1.06 1.06 0 0 1 13.586 4.52 A 1.024 1.024 0 0 1 13.748 4.927 A 1.388 1.388 0 0 1 13.768 5.168 Q 13.768 5.805 13.258 6.19 Q 12.776 6.554 12.022 6.573 A 3.337 3.337 0 0 1 11.936 6.574 A 2.746 2.746 0 0 1 11.401 6.525 A 2.124 2.124 0 0 1 10.925 6.372 A 1.771 1.771 0 0 1 10.491 6.094 A 1.54 1.54 0 0 1 10.237 5.807 Q 9.989 5.445 9.989 5.023 L 10.802 5.023 A 0.932 0.932 0 0 0 10.875 5.348 A 0.827 0.827 0 0 0 11.129 5.671 A 1.072 1.072 0 0 0 11.531 5.864 Q 11.686 5.903 11.867 5.91 A 2.013 2.013 0 0 0 11.936 5.911 A 1.863 1.863 0 0 0 12.231 5.889 Q 12.393 5.863 12.524 5.806 A 0.941 0.941 0 0 0 12.676 5.724 A 0.689 0.689 0 0 0 12.841 5.574 A 0.554 0.554 0 0 0 12.955 5.225 A 0.698 0.698 0 0 0 12.919 4.994 A 0.581 0.581 0 0 0 12.707 4.713 A 1.05 1.05 0 0 0 12.538 4.615 Q 12.349 4.524 12.054 4.449 A 5.392 5.392 0 0 0 11.841 4.399 A 6.342 6.342 0 0 1 11.48 4.311 Q 11.11 4.209 10.861 4.083 Q 10.562 3.93 10.392 3.731 A 1.017 1.017 0 0 1 10.325 3.643 Q 10.151 3.388 10.151 3.037 A 1.206 1.206 0 0 1 10.55 2.132 A 1.694 1.694 0 0 1 10.646 2.048 A 1.752 1.752 0 0 1 11.429 1.688 A 2.471 2.471 0 0 1 11.909 1.644 A 2.559 2.559 0 0 1 12.473 1.702 A 1.757 1.757 0 0 1 13.221 2.061 Q 13.724 2.479 13.724 3.129 Z M 21.327 6.486 L 20.716 4.816 L 18.035 4.816 L 17.433 6.486 L 16.563 6.486 L 19.006 0.088 L 19.745 0.088 L 22.192 6.486 L 21.327 6.486 Z M 5.212 4.241 L 5.212 4.091 A 3.17 3.17 0 0 1 5.288 3.382 A 2.581 2.581 0 0 1 5.482 2.828 A 2.191 2.191 0 0 1 5.93 2.202 A 2.033 2.033 0 0 1 6.238 1.958 Q 6.724 1.644 7.291 1.644 A 2.254 2.254 0 0 1 7.904 1.723 A 1.639 1.639 0 0 1 8.732 2.254 Q 9.246 2.865 9.246 4.003 L 9.246 4.342 L 6.025 4.342 A 2.111 2.111 0 0 0 6.096 4.85 A 1.516 1.516 0 0 0 6.436 5.478 A 1.282 1.282 0 0 0 7.37 5.909 A 1.652 1.652 0 0 0 7.436 5.911 A 1.763 1.763 0 0 0 7.764 5.882 Q 7.988 5.839 8.165 5.735 A 1.827 1.827 0 0 0 8.674 5.287 A 2.068 2.068 0 0 0 8.688 5.269 L 9.185 5.656 A 1.926 1.926 0 0 1 7.785 6.547 A 2.749 2.749 0 0 1 7.392 6.574 A 2.394 2.394 0 0 1 6.64 6.461 A 1.974 1.974 0 0 1 5.818 5.939 Q 5.212 5.304 5.212 4.241 Z M 0.848 0.782 L 0.848 3.208 L 2.145 3.208 Q 2.685 3.208 3.035 2.968 A 1.174 1.174 0 0 0 3.144 2.883 A 1.069 1.069 0 0 0 3.51 2.146 A 1.486 1.486 0 0 0 3.516 2.013 Q 3.516 1.47 3.22 1.159 A 1 1 0 0 0 3.162 1.103 Q 2.808 0.787 2.14 0.782 L 0.848 0.782 Z M 19.375 1.129 L 18.29 4.122 L 20.465 4.122 L 19.375 1.129 Z M 6.051 3.674 L 8.433 3.674 L 8.433 3.612 Q 8.407 3.153 8.236 2.848 A 1.13 1.13 0 0 0 8.099 2.652 A 0.983 0.983 0 0 0 7.445 2.32 A 1.39 1.39 0 0 0 7.291 2.312 A 1.106 1.106 0 0 0 6.768 2.435 A 1.14 1.14 0 0 0 6.464 2.67 A 1.417 1.417 0 0 0 6.188 3.116 Q 6.114 3.3 6.074 3.522 A 2.741 2.741 0 0 0 6.051 3.674 Z" vector-effect="non-scaling-stroke"/></g><g transform="translate(25, 93)" id="svgGroup" stroke-linecap="round" fill-rule="evenodd" font-size="9pt" stroke="#000" stroke-width="0.25mm" fill="#000" style="stroke:#000;stroke-width:0.25mm;fill:#000"><path d="M 94.056 0.352 L 95.146 0.352 L 97.238 5.572 L 99.33 0.352 L 100.424 0.352 L 100.424 6.75 L 99.58 6.75 L 99.58 4.258 L 99.659 1.569 L 97.559 6.75 L 96.913 6.75 L 94.816 1.582 L 94.9 4.258 L 94.9 6.75 L 94.056 6.75 L 94.056 0.352 Z M 83.808 1.995 L 84.577 1.995 L 84.599 2.522 Q 85.122 1.907 86.01 1.907 A 2.009 2.009 0 0 1 86.52 1.968 A 1.244 1.244 0 0 1 87.368 2.672 A 1.801 1.801 0 0 1 87.985 2.118 A 1.65 1.65 0 0 1 88.514 1.937 A 2.209 2.209 0 0 1 88.884 1.907 A 2.119 2.119 0 0 1 89.528 1.997 Q 90.454 2.292 90.475 3.564 L 90.475 6.75 L 89.662 6.75 L 89.662 3.612 A 1.781 1.781 0 0 0 89.641 3.332 Q 89.618 3.185 89.567 3.067 A 0.758 0.758 0 0 0 89.429 2.85 A 0.68 0.68 0 0 0 89.176 2.682 Q 88.964 2.597 88.648 2.597 A 1.245 1.245 0 0 0 88.281 2.648 A 1.008 1.008 0 0 0 87.895 2.867 A 1.042 1.042 0 0 0 87.581 3.404 A 1.41 1.41 0 0 0 87.548 3.595 L 87.548 6.75 L 86.73 6.75 L 86.73 3.634 A 1.532 1.532 0 0 0 86.682 3.23 Q 86.555 2.768 86.098 2.643 A 1.457 1.457 0 0 0 85.715 2.597 Q 84.942 2.597 84.641 3.234 A 1.459 1.459 0 0 0 84.621 3.278 L 84.621 6.75 L 83.808 6.75 L 83.808 1.995 Z M 19.841 3.564 L 19.841 5.911 A 1.895 1.895 0 0 1 19.118 6.525 A 2.364 2.364 0 0 1 18.934 6.607 A 3.162 3.162 0 0 1 18.261 6.787 Q 17.951 6.836 17.601 6.838 A 5.148 5.148 0 0 1 17.578 6.838 A 2.838 2.838 0 0 1 16.755 6.722 A 2.459 2.459 0 0 1 16.189 6.471 A 2.43 2.43 0 0 1 15.283 5.49 A 2.924 2.924 0 0 1 15.251 5.427 A 3.277 3.277 0 0 1 14.963 4.497 A 4.307 4.307 0 0 1 14.911 3.858 L 14.911 3.3 Q 14.911 1.854 15.585 1.059 A 2.198 2.198 0 0 1 16.939 0.307 A 3.227 3.227 0 0 1 17.481 0.264 Q 18.483 0.264 19.094 0.776 A 2.047 2.047 0 0 1 19.716 1.701 A 2.896 2.896 0 0 1 19.841 2.228 L 18.998 2.228 Q 18.791 1.12 17.795 0.979 A 2.195 2.195 0 0 0 17.486 0.958 A 1.917 1.917 0 0 0 16.951 1.028 A 1.386 1.386 0 0 0 16.2 1.553 A 1.986 1.986 0 0 0 15.917 2.125 Q 15.829 2.396 15.79 2.726 A 4.871 4.871 0 0 0 15.759 3.278 L 15.759 3.801 A 3.827 3.827 0 0 0 15.817 4.489 Q 15.928 5.096 16.251 5.513 A 1.569 1.569 0 0 0 17.391 6.139 A 2.069 2.069 0 0 0 17.583 6.148 Q 18.015 6.148 18.35 6.06 A 2.106 2.106 0 0 0 18.413 6.042 A 1.357 1.357 0 0 0 18.801 5.86 A 1.217 1.217 0 0 0 19.002 5.687 L 19.002 4.25 L 17.521 4.25 L 17.521 3.564 L 19.841 3.564 Z M 67.28 2.202 L 66.432 2.202 A 1.466 1.466 0 0 0 66.382 1.809 A 1.066 1.066 0 0 0 66.063 1.29 A 1.211 1.211 0 0 0 65.593 1.033 Q 65.342 0.958 65.021 0.958 A 2.286 2.286 0 0 0 64.642 0.988 Q 64.44 1.022 64.277 1.095 A 1.101 1.101 0 0 0 64.048 1.233 A 0.892 0.892 0 0 0 63.703 1.887 A 1.267 1.267 0 0 0 63.699 1.995 A 0.806 0.806 0 0 0 63.967 2.6 A 1.134 1.134 0 0 0 64.031 2.656 A 1.562 1.562 0 0 0 64.269 2.813 Q 64.599 2.993 65.16 3.151 A 8.228 8.228 0 0 1 65.625 3.295 Q 65.86 3.377 66.054 3.464 A 3.297 3.297 0 0 1 66.408 3.645 A 2.342 2.342 0 0 1 66.747 3.889 Q 66.937 4.056 67.059 4.248 A 1.45 1.45 0 0 1 67.076 4.276 A 1.498 1.498 0 0 1 67.272 4.832 A 1.948 1.948 0 0 1 67.293 5.124 A 1.606 1.606 0 0 1 67.171 5.76 Q 67.026 6.101 66.708 6.354 A 1.886 1.886 0 0 1 66.687 6.37 Q 66.081 6.838 65.065 6.838 A 3.023 3.023 0 0 1 63.925 6.623 A 2.917 2.917 0 0 1 63.835 6.585 A 2.383 2.383 0 0 1 63.357 6.307 A 1.874 1.874 0 0 1 62.954 5.893 A 1.689 1.689 0 0 1 62.644 4.896 L 63.492 4.896 A 1.261 1.261 0 0 0 63.562 5.323 A 1.074 1.074 0 0 0 63.921 5.812 Q 64.305 6.113 64.922 6.144 A 2.87 2.87 0 0 0 65.065 6.148 A 2.628 2.628 0 0 0 65.452 6.121 Q 65.649 6.092 65.808 6.031 A 1.129 1.129 0 0 0 66.089 5.875 Q 66.445 5.603 66.445 5.133 A 1.074 1.074 0 0 0 66.403 4.822 A 0.816 0.816 0 0 0 66.116 4.406 Q 65.786 4.148 64.92 3.898 Q 63.835 3.586 63.341 3.131 Q 62.846 2.676 62.846 2.008 Q 62.846 1.252 63.45 0.758 A 2.121 2.121 0 0 1 64.341 0.335 A 3.087 3.087 0 0 1 65.021 0.264 A 2.913 2.913 0 0 1 65.682 0.336 A 2.372 2.372 0 0 1 66.197 0.519 A 2.051 2.051 0 0 1 66.728 0.889 A 1.834 1.834 0 0 1 66.997 1.222 A 1.798 1.798 0 0 1 67.28 2.202 Z M 160.796 6.75 L 159.139 4.548 L 158.629 5.08 L 158.629 6.75 L 157.816 6.75 L 157.816 0 L 158.629 0 L 158.629 4.083 L 159.064 3.56 L 160.545 1.995 L 161.534 1.995 L 159.684 3.981 L 161.75 6.75 L 160.796 6.75 Z M 41.625 2.522 L 41.665 1.995 L 42.407 1.995 L 42.407 6.636 A 2.511 2.511 0 0 1 42.337 7.249 A 1.738 1.738 0 0 1 41.86 8.09 A 1.834 1.834 0 0 1 40.93 8.57 A 2.671 2.671 0 0 1 40.39 8.622 A 2.446 2.446 0 0 1 39.384 8.402 A 2.003 2.003 0 0 1 38.974 8.161 A 1.563 1.563 0 0 1 38.632 7.8 L 39.054 7.313 A 1.889 1.889 0 0 0 39.489 7.712 A 1.514 1.514 0 0 0 40.333 7.958 A 1.695 1.695 0 0 0 40.71 7.919 Q 40.978 7.858 41.172 7.702 A 1.037 1.037 0 0 0 41.258 7.625 A 1.09 1.09 0 0 0 41.535 7.132 Q 41.582 6.959 41.589 6.752 A 2.134 2.134 0 0 0 41.59 6.684 L 41.59 6.275 A 1.601 1.601 0 0 1 40.538 6.821 A 2.279 2.279 0 0 1 40.258 6.838 A 1.672 1.672 0 0 1 39.503 6.67 Q 39.181 6.51 38.931 6.197 A 2.14 2.14 0 0 1 38.907 6.166 A 2.316 2.316 0 0 1 38.524 5.386 Q 38.391 4.922 38.391 4.333 Q 38.391 3.472 38.699 2.884 A 2.096 2.096 0 0 1 38.905 2.564 Q 39.419 1.907 40.267 1.907 A 1.971 1.971 0 0 1 40.866 1.994 A 1.55 1.55 0 0 1 41.625 2.522 Z M 119.584 2.522 L 119.624 1.995 L 120.366 1.995 L 120.366 6.636 A 2.511 2.511 0 0 1 120.296 7.249 A 1.738 1.738 0 0 1 119.819 8.09 A 1.834 1.834 0 0 1 118.889 8.57 A 2.671 2.671 0 0 1 118.349 8.622 A 2.446 2.446 0 0 1 117.343 8.402 A 2.003 2.003 0 0 1 116.933 8.161 A 1.563 1.563 0 0 1 116.591 7.8 L 117.013 7.313 A 1.889 1.889 0 0 0 117.448 7.712 A 1.514 1.514 0 0 0 118.292 7.958 A 1.695 1.695 0 0 0 118.669 7.919 Q 118.937 7.858 119.131 7.702 A 1.037 1.037 0 0 0 119.217 7.625 A 1.09 1.09 0 0 0 119.494 7.132 Q 119.541 6.959 119.548 6.752 A 2.134 2.134 0 0 0 119.549 6.684 L 119.549 6.275 A 1.601 1.601 0 0 1 118.497 6.821 A 2.279 2.279 0 0 1 118.217 6.838 A 1.672 1.672 0 0 1 117.462 6.67 Q 117.14 6.51 116.89 6.197 A 2.14 2.14 0 0 1 116.866 6.166 A 2.316 2.316 0 0 1 116.483 5.386 Q 116.35 4.922 116.35 4.333 Q 116.35 3.472 116.658 2.884 A 2.096 2.096 0 0 1 116.864 2.564 Q 117.378 1.907 118.226 1.907 A 1.971 1.971 0 0 1 118.825 1.994 A 1.55 1.55 0 0 1 119.584 2.522 Z M 54.936 3.393 L 54.119 3.393 Q 54.119 3.059 53.835 2.817 Q 53.552 2.575 53.121 2.575 Q 52.677 2.575 52.427 2.769 A 0.653 0.653 0 0 0 52.252 2.967 Q 52.179 3.098 52.176 3.263 A 0.771 0.771 0 0 0 52.176 3.274 A 0.588 0.588 0 0 0 52.206 3.467 A 0.48 0.48 0 0 0 52.409 3.718 A 1.093 1.093 0 0 0 52.559 3.796 Q 52.724 3.868 52.979 3.937 A 6.581 6.581 0 0 0 53.251 4.003 A 6.318 6.318 0 0 1 53.658 4.108 Q 53.995 4.208 54.237 4.329 A 1.901 1.901 0 0 1 54.493 4.481 Q 54.63 4.579 54.727 4.692 A 1.06 1.06 0 0 1 54.798 4.783 A 1.024 1.024 0 0 1 54.96 5.191 A 1.388 1.388 0 0 1 54.98 5.432 Q 54.98 6.069 54.47 6.453 Q 53.988 6.817 53.234 6.837 A 3.337 3.337 0 0 1 53.147 6.838 A 2.746 2.746 0 0 1 52.613 6.788 A 2.124 2.124 0 0 1 52.137 6.636 A 1.771 1.771 0 0 1 51.703 6.358 A 1.54 1.54 0 0 1 51.449 6.071 Q 51.201 5.708 51.201 5.287 L 52.014 5.287 A 0.932 0.932 0 0 0 52.087 5.612 A 0.827 0.827 0 0 0 52.341 5.935 A 1.072 1.072 0 0 0 52.743 6.128 Q 52.898 6.167 53.079 6.173 A 2.013 2.013 0 0 0 53.147 6.174 A 1.863 1.863 0 0 0 53.443 6.152 Q 53.605 6.126 53.736 6.07 A 0.941 0.941 0 0 0 53.888 5.988 A 0.689 0.689 0 0 0 54.052 5.837 A 0.554 0.554 0 0 0 54.167 5.489 A 0.698 0.698 0 0 0 54.131 5.258 A 0.581 0.581 0 0 0 53.919 4.977 A 1.05 1.05 0 0 0 53.75 4.878 Q 53.561 4.788 53.266 4.712 A 5.392 5.392 0 0 0 53.053 4.663 A 6.342 6.342 0 0 1 52.692 4.575 Q 52.322 4.473 52.073 4.346 Q 51.774 4.194 51.604 3.994 A 1.017 1.017 0 0 1 51.537 3.907 Q 51.363 3.652 51.363 3.3 A 1.206 1.206 0 0 1 51.762 2.396 A 1.694 1.694 0 0 1 51.858 2.312 A 1.752 1.752 0 0 1 52.641 1.952 A 2.471 2.471 0 0 1 53.121 1.907 A 2.559 2.559 0 0 1 53.685 1.966 A 1.757 1.757 0 0 1 54.433 2.325 Q 54.936 2.742 54.936 3.393 Z M 59.577 3.393 L 58.759 3.393 Q 58.759 3.059 58.476 2.817 Q 58.192 2.575 57.762 2.575 Q 57.318 2.575 57.067 2.769 A 0.653 0.653 0 0 0 56.892 2.967 Q 56.819 3.098 56.817 3.263 A 0.771 0.771 0 0 0 56.817 3.274 A 0.588 0.588 0 0 0 56.847 3.467 A 0.48 0.48 0 0 0 57.05 3.718 A 1.093 1.093 0 0 0 57.2 3.796 Q 57.364 3.868 57.62 3.937 A 6.581 6.581 0 0 0 57.891 4.003 A 6.318 6.318 0 0 1 58.299 4.108 Q 58.636 4.208 58.878 4.329 A 1.901 1.901 0 0 1 59.134 4.481 Q 59.271 4.579 59.368 4.692 A 1.06 1.06 0 0 1 59.438 4.783 A 1.024 1.024 0 0 1 59.6 5.191 A 1.388 1.388 0 0 1 59.621 5.432 Q 59.621 6.069 59.111 6.453 Q 58.628 6.817 57.875 6.837 A 3.337 3.337 0 0 1 57.788 6.838 A 2.746 2.746 0 0 1 57.254 6.788 A 2.124 2.124 0 0 1 56.777 6.636 A 1.771 1.771 0 0 1 56.343 6.358 A 1.54 1.54 0 0 1 56.09 6.071 Q 55.841 5.708 55.841 5.287 L 56.654 5.287 A 0.932 0.932 0 0 0 56.728 5.612 A 0.827 0.827 0 0 0 56.982 5.935 A 1.072 1.072 0 0 0 57.384 6.128 Q 57.538 6.167 57.72 6.173 A 2.013 2.013 0 0 0 57.788 6.174 A 1.863 1.863 0 0 0 58.084 6.152 Q 58.245 6.126 58.377 6.07 A 0.941 0.941 0 0 0 58.529 5.988 A 0.689 0.689 0 0 0 58.693 5.837 A 0.554 0.554 0 0 0 58.808 5.489 A 0.698 0.698 0 0 0 58.771 5.258 A 0.581 0.581 0 0 0 58.559 4.977 A 1.05 1.05 0 0 0 58.39 4.878 Q 58.202 4.788 57.907 4.712 A 5.392 5.392 0 0 0 57.694 4.663 A 6.342 6.342 0 0 1 57.333 4.575 Q 56.963 4.473 56.714 4.346 Q 56.415 4.194 56.244 3.994 A 1.017 1.017 0 0 1 56.177 3.907 Q 56.004 3.652 56.004 3.3 A 1.206 1.206 0 0 1 56.403 2.396 A 1.694 1.694 0 0 1 56.498 2.312 A 1.752 1.752 0 0 1 57.281 1.952 A 2.471 2.471 0 0 1 57.762 1.907 A 2.559 2.559 0 0 1 58.325 1.966 A 1.757 1.757 0 0 1 59.073 2.325 Q 59.577 2.742 59.577 3.393 Z M 33.618 1.995 L 34.387 1.995 L 34.414 2.593 Q 34.95 1.918 35.81 1.907 A 2.234 2.234 0 0 1 35.837 1.907 A 1.905 1.905 0 0 1 36.471 2.004 Q 37.313 2.3 37.356 3.506 A 3.668 3.668 0 0 1 37.358 3.608 L 37.358 6.75 L 36.545 6.75 L 36.545 3.604 A 1.837 1.837 0 0 0 36.523 3.324 Q 36.472 3.017 36.31 2.843 Q 36.124 2.645 35.77 2.606 A 1.66 1.66 0 0 0 35.591 2.597 A 1.253 1.253 0 0 0 35.177 2.664 A 1.123 1.123 0 0 0 34.897 2.808 A 1.432 1.432 0 0 0 34.431 3.362 L 34.431 6.75 L 33.618 6.75 L 33.618 1.995 Z M 106.682 1.995 L 107.451 1.995 L 107.477 2.593 Q 108.013 1.918 108.873 1.907 A 2.234 2.234 0 0 1 108.901 1.907 A 1.905 1.905 0 0 1 109.534 2.004 Q 110.376 2.3 110.419 3.506 A 3.668 3.668 0 0 1 110.421 3.608 L 110.421 6.75 L 109.608 6.75 L 109.608 3.604 A 1.837 1.837 0 0 0 109.586 3.324 Q 109.536 3.017 109.373 2.843 Q 109.187 2.645 108.834 2.606 A 1.66 1.66 0 0 0 108.655 2.597 A 1.253 1.253 0 0 0 108.24 2.664 A 1.123 1.123 0 0 0 107.96 2.808 A 1.432 1.432 0 0 0 107.495 3.362 L 107.495 6.75 L 106.682 6.75 L 106.682 1.995 Z M 11.94 0.352 L 11.94 1.046 L 9.883 1.046 L 9.883 6.75 L 9.044 6.75 L 9.044 1.046 L 6.992 1.046 L 6.992 0.352 L 11.94 0.352 Z M 50.291 6.75 L 49.438 6.75 A 0.632 0.632 0 0 1 49.403 6.66 Q 49.372 6.562 49.347 6.41 A 3.997 3.997 0 0 1 49.324 6.249 Q 48.757 6.838 47.971 6.838 A 2.033 2.033 0 0 1 47.441 6.772 A 1.529 1.529 0 0 1 46.817 6.44 Q 46.367 6.042 46.367 5.432 Q 46.367 4.689 46.931 4.278 Q 47.496 3.867 48.52 3.867 L 49.311 3.867 L 49.311 3.494 A 1.152 1.152 0 0 0 49.275 3.199 A 0.828 0.828 0 0 0 49.056 2.815 Q 48.84 2.6 48.449 2.568 A 1.748 1.748 0 0 0 48.305 2.562 Q 47.87 2.562 47.575 2.782 Q 47.281 3.001 47.281 3.313 L 46.463 3.313 A 1.041 1.041 0 0 1 46.588 2.825 A 1.409 1.409 0 0 1 46.716 2.626 Q 46.969 2.294 47.402 2.101 A 2.249 2.249 0 0 1 48.177 1.913 A 2.669 2.669 0 0 1 48.353 1.907 A 2.65 2.65 0 0 1 48.87 1.955 Q 49.178 2.016 49.417 2.156 A 1.439 1.439 0 0 1 49.641 2.318 A 1.396 1.396 0 0 1 50.094 3.144 A 1.998 1.998 0 0 1 50.124 3.45 L 50.124 5.638 Q 50.124 6.073 50.198 6.39 A 1.707 1.707 0 0 0 50.291 6.68 L 50.291 6.75 Z M 82.705 6.75 L 81.853 6.75 A 0.632 0.632 0 0 1 81.817 6.66 Q 81.786 6.562 81.761 6.41 A 3.997 3.997 0 0 1 81.738 6.249 Q 81.171 6.838 80.385 6.838 A 2.033 2.033 0 0 1 79.855 6.772 A 1.529 1.529 0 0 1 79.231 6.44 Q 78.781 6.042 78.781 5.432 Q 78.781 4.689 79.345 4.278 Q 79.91 3.867 80.934 3.867 L 81.725 3.867 L 81.725 3.494 A 1.152 1.152 0 0 0 81.689 3.199 A 0.828 0.828 0 0 0 81.47 2.815 Q 81.254 2.6 80.864 2.568 A 1.748 1.748 0 0 0 80.719 2.562 Q 80.284 2.562 79.989 2.782 Q 79.695 3.001 79.695 3.313 L 78.877 3.313 A 1.041 1.041 0 0 1 79.002 2.825 A 1.409 1.409 0 0 1 79.13 2.626 Q 79.383 2.294 79.816 2.101 A 2.249 2.249 0 0 1 80.591 1.913 A 2.669 2.669 0 0 1 80.767 1.907 A 2.65 2.65 0 0 1 81.285 1.955 Q 81.592 2.016 81.831 2.156 A 1.439 1.439 0 0 1 82.055 2.318 A 1.396 1.396 0 0 1 82.508 3.144 A 1.998 1.998 0 0 1 82.538 3.45 L 82.538 5.638 Q 82.538 6.073 82.612 6.39 A 1.707 1.707 0 0 0 82.705 6.68 L 82.705 6.75 Z M 105.574 6.75 L 104.722 6.75 A 0.632 0.632 0 0 1 104.686 6.66 Q 104.655 6.562 104.63 6.41 A 3.997 3.997 0 0 1 104.607 6.249 Q 104.041 6.838 103.254 6.838 A 2.033 2.033 0 0 1 102.725 6.772 A 1.529 1.529 0 0 1 102.1 6.44 Q 101.65 6.042 101.65 5.432 Q 101.65 4.689 102.215 4.278 Q 102.779 3.867 103.803 3.867 L 104.594 3.867 L 104.594 3.494 A 1.152 1.152 0 0 0 104.558 3.199 A 0.828 0.828 0 0 0 104.339 2.815 Q 104.123 2.6 103.733 2.568 A 1.748 1.748 0 0 0 103.588 2.562 Q 103.153 2.562 102.858 2.782 Q 102.564 3.001 102.564 3.313 L 101.747 3.313 A 1.041 1.041 0 0 1 101.872 2.825 A 1.409 1.409 0 0 1 101.999 2.626 Q 102.252 2.294 102.685 2.101 A 2.249 2.249 0 0 1 103.461 1.913 A 2.669 2.669 0 0 1 103.636 1.907 A 2.65 2.65 0 0 1 104.154 1.955 Q 104.461 2.016 104.7 2.156 A 1.439 1.439 0 0 1 104.924 2.318 A 1.396 1.396 0 0 1 105.377 3.144 A 1.998 1.998 0 0 1 105.407 3.45 L 105.407 5.638 Q 105.407 6.073 105.481 6.39 A 1.707 1.707 0 0 0 105.574 6.68 L 105.574 6.75 Z M 115.436 6.75 L 114.583 6.75 A 0.632 0.632 0 0 1 114.548 6.66 Q 114.516 6.562 114.491 6.41 A 3.997 3.997 0 0 1 114.469 6.249 Q 113.902 6.838 113.115 6.838 A 2.033 2.033 0 0 1 112.586 6.772 A 1.529 1.529 0 0 1 111.962 6.44 Q 111.511 6.042 111.511 5.432 Q 111.511 4.689 112.076 4.278 Q 112.641 3.867 113.665 3.867 L 114.456 3.867 L 114.456 3.494 A 1.152 1.152 0 0 0 114.42 3.199 A 0.828 0.828 0 0 0 114.201 2.815 Q 113.984 2.6 113.594 2.568 A 1.748 1.748 0 0 0 113.449 2.562 Q 113.014 2.562 112.72 2.782 Q 112.425 3.001 112.425 3.313 L 111.608 3.313 A 1.041 1.041 0 0 1 111.733 2.825 A 1.409 1.409 0 0 1 111.861 2.626 Q 112.113 2.294 112.546 2.101 A 2.249 2.249 0 0 1 113.322 1.913 A 2.669 2.669 0 0 1 113.498 1.907 A 2.65 2.65 0 0 1 114.015 1.955 Q 114.322 2.016 114.561 2.156 A 1.439 1.439 0 0 1 114.785 2.318 A 1.396 1.396 0 0 1 115.239 3.144 A 1.998 1.998 0 0 1 115.269 3.45 L 115.269 5.638 Q 115.269 6.073 115.342 6.39 A 1.707 1.707 0 0 0 115.436 6.68 L 115.436 6.75 Z M 153.659 6.75 L 152.807 6.75 A 0.632 0.632 0 0 1 152.771 6.66 Q 152.74 6.562 152.715 6.41 A 3.997 3.997 0 0 1 152.692 6.249 Q 152.125 6.838 151.339 6.838 A 2.033 2.033 0 0 1 150.81 6.772 A 1.529 1.529 0 0 1 150.185 6.44 Q 149.735 6.042 149.735 5.432 Q 149.735 4.689 150.3 4.278 Q 150.864 3.867 151.888 3.867 L 152.679 3.867 L 152.679 3.494 A 1.152 1.152 0 0 0 152.643 3.199 A 0.828 0.828 0 0 0 152.424 2.815 Q 152.208 2.6 151.818 2.568 A 1.748 1.748 0 0 0 151.673 2.562 Q 151.238 2.562 150.943 2.782 Q 150.649 3.001 150.649 3.313 L 149.832 3.313 A 1.041 1.041 0 0 1 149.956 2.825 A 1.409 1.409 0 0 1 150.084 2.626 Q 150.337 2.294 150.77 2.101 A 2.249 2.249 0 0 1 151.545 1.913 A 2.669 2.669 0 0 1 151.721 1.907 A 2.65 2.65 0 0 1 152.239 1.955 Q 152.546 2.016 152.785 2.156 A 1.439 1.439 0 0 1 153.009 2.318 A 1.396 1.396 0 0 1 153.462 3.144 A 1.998 1.998 0 0 1 153.492 3.45 L 153.492 5.638 Q 153.492 6.073 153.566 6.39 A 1.707 1.707 0 0 0 153.659 6.68 L 153.659 6.75 Z M 23.875 4.504 L 23.875 4.355 A 3.17 3.17 0 0 1 23.952 3.646 A 2.581 2.581 0 0 1 24.146 3.092 A 2.191 2.191 0 0 1 24.593 2.466 A 2.033 2.033 0 0 1 24.902 2.221 Q 25.387 1.907 25.954 1.907 A 2.254 2.254 0 0 1 26.567 1.986 A 1.639 1.639 0 0 1 27.396 2.518 Q 27.91 3.129 27.91 4.267 L 27.91 4.605 L 24.688 4.605 A 2.111 2.111 0 0 0 24.76 5.114 A 1.516 1.516 0 0 0 25.099 5.741 A 1.282 1.282 0 0 0 26.033 6.173 A 1.652 1.652 0 0 0 26.099 6.174 A 1.763 1.763 0 0 0 26.427 6.145 Q 26.651 6.103 26.829 5.999 A 1.827 1.827 0 0 0 27.337 5.551 A 2.068 2.068 0 0 0 27.352 5.533 L 27.848 5.919 A 1.926 1.926 0 0 1 26.448 6.811 A 2.749 2.749 0 0 1 26.055 6.838 A 2.394 2.394 0 0 1 25.304 6.725 A 1.974 1.974 0 0 1 24.482 6.203 Q 23.875 5.568 23.875 4.504 Z M 28.644 4.504 L 28.644 4.355 A 3.17 3.17 0 0 1 28.72 3.646 A 2.581 2.581 0 0 1 28.914 3.092 A 2.191 2.191 0 0 1 29.361 2.466 A 2.033 2.033 0 0 1 29.67 2.221 Q 30.155 1.907 30.722 1.907 A 2.254 2.254 0 0 1 31.335 1.986 A 1.639 1.639 0 0 1 32.164 2.518 Q 32.678 3.129 32.678 4.267 L 32.678 4.605 L 29.457 4.605 A 2.111 2.111 0 0 0 29.528 5.114 A 1.516 1.516 0 0 0 29.867 5.741 A 1.282 1.282 0 0 0 30.801 6.173 A 1.652 1.652 0 0 0 30.867 6.174 A 1.763 1.763 0 0 0 31.195 6.145 Q 31.419 6.103 31.597 5.999 A 1.827 1.827 0 0 0 32.106 5.551 A 2.068 2.068 0 0 0 32.12 5.533 L 32.616 5.919 A 1.926 1.926 0 0 1 31.216 6.811 A 2.749 2.749 0 0 1 30.823 6.838 A 2.394 2.394 0 0 1 30.072 6.725 A 1.974 1.974 0 0 1 29.25 6.203 Q 28.644 5.568 28.644 4.504 Z M 73.942 4.504 L 73.942 4.355 A 3.17 3.17 0 0 1 74.019 3.646 A 2.581 2.581 0 0 1 74.213 3.092 A 2.191 2.191 0 0 1 74.66 2.466 A 2.033 2.033 0 0 1 74.969 2.221 Q 75.454 1.907 76.021 1.907 A 2.254 2.254 0 0 1 76.634 1.986 A 1.639 1.639 0 0 1 77.462 2.518 Q 77.977 3.129 77.977 4.267 L 77.977 4.605 L 74.755 4.605 A 2.111 2.111 0 0 0 74.826 5.114 A 1.516 1.516 0 0 0 75.166 5.741 A 1.282 1.282 0 0 0 76.1 6.173 A 1.652 1.652 0 0 0 76.166 6.174 A 1.763 1.763 0 0 0 76.494 6.145 Q 76.718 6.103 76.896 5.999 A 1.827 1.827 0 0 0 77.404 5.551 A 2.068 2.068 0 0 0 77.418 5.533 L 77.915 5.919 A 1.926 1.926 0 0 1 76.515 6.811 A 2.749 2.749 0 0 1 76.122 6.838 A 2.394 2.394 0 0 1 75.371 6.725 A 1.974 1.974 0 0 1 74.549 6.203 Q 73.942 5.568 73.942 4.504 Z M 121.386 4.504 L 121.386 4.355 A 3.17 3.17 0 0 1 121.462 3.646 A 2.581 2.581 0 0 1 121.656 3.092 A 2.191 2.191 0 0 1 122.103 2.466 A 2.033 2.033 0 0 1 122.412 2.221 Q 122.897 1.907 123.464 1.907 A 2.254 2.254 0 0 1 124.077 1.986 A 1.639 1.639 0 0 1 124.906 2.518 Q 125.42 3.129 125.42 4.267 L 125.42 4.605 L 122.199 4.605 A 2.111 2.111 0 0 0 122.27 5.114 A 1.516 1.516 0 0 0 122.61 5.741 A 1.282 1.282 0 0 0 123.544 6.173 A 1.652 1.652 0 0 0 123.609 6.174 A 1.763 1.763 0 0 0 123.938 6.145 Q 124.161 6.103 124.339 5.999 A 1.827 1.827 0 0 0 124.848 5.551 A 2.068 2.068 0 0 0 124.862 5.533 L 125.358 5.919 A 1.926 1.926 0 0 1 123.959 6.811 A 2.749 2.749 0 0 1 123.565 6.838 A 2.394 2.394 0 0 1 122.814 6.725 A 1.974 1.974 0 0 1 121.992 6.203 Q 121.386 5.568 121.386 4.504 Z M 134.982 0.352 L 134.982 4.601 L 135.87 4.601 L 135.87 5.265 L 134.982 5.265 L 134.982 6.75 L 134.165 6.75 L 134.165 5.265 L 131.251 5.265 L 131.251 4.786 L 134.117 0.352 L 134.982 0.352 Z M 145.868 6.75 L 144.097 6.75 L 144.097 0.352 L 145.903 0.352 Q 146.738 0.352 147.379 0.721 Q 148.021 1.09 148.37 1.771 A 3.19 3.19 0 0 1 148.687 2.8 A 4.073 4.073 0 0 1 148.724 3.335 L 148.724 3.744 Q 148.724 4.649 148.375 5.331 A 2.457 2.457 0 0 1 147.377 6.376 Q 146.729 6.741 145.868 6.75 Z M 140.381 2.592 A 1.544 1.544 0 0 0 140.484 2.021 A 2.226 2.226 0 0 0 140.463 1.707 A 1.566 1.566 0 0 0 139.964 0.738 A 1.754 1.754 0 0 0 139.198 0.333 A 2.443 2.443 0 0 0 138.599 0.264 A 2.539 2.539 0 0 0 138.09 0.312 A 1.767 1.767 0 0 0 137.232 0.738 Q 136.714 1.213 136.714 2.021 A 1.808 1.808 0 0 0 136.714 2.058 A 1.499 1.499 0 0 0 136.96 2.87 A 1.626 1.626 0 0 0 137.122 3.077 A 1.726 1.726 0 0 0 137.632 3.454 A 2.119 2.119 0 0 0 137.533 3.5 A 1.738 1.738 0 0 0 136.848 4.087 A 1.629 1.629 0 0 0 136.564 5.023 A 2.272 2.272 0 0 0 136.574 5.237 A 1.63 1.63 0 0 0 137.12 6.344 A 1.895 1.895 0 0 0 137.971 6.771 A 2.797 2.797 0 0 0 138.599 6.838 A 2.796 2.796 0 0 0 139.198 6.777 A 1.925 1.925 0 0 0 140.073 6.346 A 1.578 1.578 0 0 0 140.548 5.62 A 1.989 1.989 0 0 0 140.634 5.023 A 1.581 1.581 0 0 0 140.342 4.087 Q 140.049 3.674 139.548 3.458 Q 139.979 3.248 140.232 2.874 A 1.449 1.449 0 0 0 140.381 2.592 Z M 68.537 0.844 L 69.35 0.844 L 69.35 1.995 L 70.238 1.995 L 70.238 2.624 L 69.35 2.624 L 69.35 5.572 Q 69.35 5.858 69.469 6.001 Q 69.587 6.144 69.873 6.144 A 1.046 1.046 0 0 0 69.971 6.138 Q 70.073 6.129 70.213 6.101 A 4.024 4.024 0 0 0 70.26 6.091 L 70.26 6.75 A 2.463 2.463 0 0 1 69.827 6.829 A 2.157 2.157 0 0 1 69.636 6.838 Q 69.189 6.838 68.922 6.616 A 0.856 0.856 0 0 1 68.814 6.508 Q 68.587 6.238 68.546 5.78 A 2.351 2.351 0 0 1 68.537 5.572 L 68.537 2.624 L 67.671 2.624 L 67.671 1.995 L 68.537 1.995 L 68.537 0.844 Z M 2.043 4.386 L 2.043 4.329 A 3.057 3.057 0 0 1 2.13 3.587 A 2.573 2.573 0 0 1 2.318 3.072 A 2.16 2.16 0 0 1 2.733 2.486 A 1.957 1.957 0 0 1 3.083 2.21 A 2.036 2.036 0 0 1 4.027 1.913 A 2.491 2.491 0 0 1 4.201 1.907 A 2.277 2.277 0 0 1 4.955 2.027 A 1.937 1.937 0 0 1 5.772 2.58 A 2.29 2.29 0 0 1 6.291 3.608 A 3.373 3.373 0 0 1 6.372 4.368 L 6.372 4.425 A 3.114 3.114 0 0 1 6.293 5.142 A 2.577 2.577 0 0 1 6.106 5.671 A 2.056 2.056 0 0 1 5.579 6.361 A 2.001 2.001 0 0 1 5.346 6.53 A 2.045 2.045 0 0 1 4.426 6.829 A 2.529 2.529 0 0 1 4.21 6.838 A 2.262 2.262 0 0 1 3.46 6.718 A 1.938 1.938 0 0 1 2.643 6.166 A 2.297 2.297 0 0 1 2.118 5.111 A 3.357 3.357 0 0 1 2.043 4.386 Z M 23.418 1.969 L 23.418 2.725 A 2.251 2.251 0 0 0 23.176 2.698 A 2.782 2.782 0 0 0 23.019 2.694 Q 22.241 2.694 21.949 3.338 A 1.445 1.445 0 0 0 21.933 3.375 L 21.933 6.75 L 21.12 6.75 L 21.12 1.995 L 21.911 1.995 L 21.924 2.544 Q 22.305 1.938 22.987 1.909 A 1.636 1.636 0 0 1 23.058 1.907 Q 23.295 1.907 23.418 1.969 Z M 45.932 1.969 L 45.932 2.725 A 2.251 2.251 0 0 0 45.689 2.698 A 2.782 2.782 0 0 0 45.532 2.694 Q 44.754 2.694 44.462 3.338 A 1.445 1.445 0 0 0 44.446 3.375 L 44.446 6.75 L 43.633 6.75 L 43.633 1.995 L 44.424 1.995 L 44.438 2.544 Q 44.818 1.938 45.5 1.909 A 1.636 1.636 0 0 1 45.571 1.907 Q 45.809 1.907 45.932 1.969 Z M 73.485 1.969 L 73.485 2.725 A 2.251 2.251 0 0 0 73.243 2.698 A 2.782 2.782 0 0 0 73.085 2.694 Q 72.308 2.694 72.016 3.338 A 1.445 1.445 0 0 0 72 3.375 L 72 6.75 L 71.187 6.75 L 71.187 1.995 L 71.978 1.995 L 71.991 2.544 Q 72.372 1.938 73.054 1.909 A 1.636 1.636 0 0 1 73.125 1.907 Q 73.362 1.907 73.485 1.969 Z M 128.659 1.969 L 128.659 2.725 A 2.251 2.251 0 0 0 128.416 2.698 A 2.782 2.782 0 0 0 128.259 2.694 Q 127.481 2.694 127.189 3.338 A 1.445 1.445 0 0 0 127.173 3.375 L 127.173 6.75 L 126.36 6.75 L 126.36 1.995 L 127.151 1.995 L 127.165 2.544 Q 127.545 1.938 128.227 1.909 A 1.636 1.636 0 0 1 128.298 1.907 Q 128.536 1.907 128.659 1.969 Z M 157.065 1.969 L 157.065 2.725 A 2.251 2.251 0 0 0 156.822 2.698 A 2.782 2.782 0 0 0 156.665 2.694 Q 155.887 2.694 155.596 3.338 A 1.445 1.445 0 0 0 155.58 3.375 L 155.58 6.75 L 154.767 6.75 L 154.767 1.995 L 155.558 1.995 L 155.571 2.544 Q 155.951 1.938 156.634 1.909 A 1.636 1.636 0 0 1 156.705 1.907 Q 156.942 1.907 157.065 1.969 Z M 0.844 0.352 L 0.844 6.75 L 0 6.75 L 0 0.352 L 0.844 0.352 Z M 145.925 1.046 L 144.94 1.046 L 144.94 6.06 L 145.828 6.06 A 2.519 2.519 0 0 0 146.461 5.985 A 1.747 1.747 0 0 0 147.346 5.454 Q 147.806 4.94 147.876 4.059 A 4.165 4.165 0 0 0 147.889 3.727 L 147.889 3.353 Q 147.889 2.562 147.62 2.027 A 1.864 1.864 0 0 0 147.377 1.659 A 1.687 1.687 0 0 0 146.381 1.09 A 2.499 2.499 0 0 0 145.925 1.046 Z M 2.861 4.425 A 2.772 2.772 0 0 0 2.908 4.954 Q 2.969 5.264 3.106 5.51 A 1.545 1.545 0 0 0 3.228 5.695 Q 3.595 6.174 4.21 6.174 A 1.269 1.269 0 0 0 4.699 6.083 Q 4.979 5.967 5.181 5.706 A 1.471 1.471 0 0 0 5.194 5.689 A 1.648 1.648 0 0 0 5.449 5.171 Q 5.518 4.945 5.544 4.672 A 3.655 3.655 0 0 0 5.559 4.329 A 2.687 2.687 0 0 0 5.508 3.789 Q 5.44 3.459 5.283 3.2 A 1.586 1.586 0 0 0 5.188 3.061 A 1.231 1.231 0 0 0 4.773 2.705 Q 4.52 2.575 4.201 2.575 Q 3.611 2.575 3.245 3.035 A 1.515 1.515 0 0 0 3.23 3.054 A 1.589 1.589 0 0 0 2.978 3.552 Q 2.908 3.772 2.88 4.039 A 3.676 3.676 0 0 0 2.861 4.425 Z M 41.59 5.449 L 41.59 3.278 A 1.439 1.439 0 0 0 41.289 2.891 Q 40.985 2.62 40.545 2.599 A 1.578 1.578 0 0 0 40.469 2.597 Q 39.877 2.597 39.544 3.056 A 1.51 1.51 0 0 0 39.333 3.484 Q 39.267 3.689 39.236 3.939 A 3.955 3.955 0 0 0 39.208 4.425 Q 39.208 5.229 39.538 5.689 Q 39.867 6.148 40.46 6.148 A 1.32 1.32 0 0 0 40.97 6.054 Q 41.362 5.891 41.59 5.449 Z M 119.549 5.449 L 119.549 3.278 A 1.439 1.439 0 0 0 119.248 2.891 Q 118.944 2.62 118.504 2.599 A 1.578 1.578 0 0 0 118.428 2.597 Q 117.836 2.597 117.503 3.056 A 1.51 1.51 0 0 0 117.292 3.484 Q 117.226 3.689 117.195 3.939 A 3.955 3.955 0 0 0 117.167 4.425 Q 117.167 5.229 117.497 5.689 Q 117.826 6.148 118.419 6.148 A 1.32 1.32 0 0 0 118.929 6.054 Q 119.321 5.891 119.549 5.449 Z M 134.068 1.639 L 132.174 4.601 L 134.165 4.601 L 134.165 1.463 L 134.068 1.639 Z M 139.821 5.005 A 1.375 1.375 0 0 0 139.761 4.592 A 1.109 1.109 0 0 0 139.48 4.131 A 1.148 1.148 0 0 0 138.809 3.807 A 1.593 1.593 0 0 0 138.59 3.792 A 1.466 1.466 0 0 0 138.202 3.841 A 1.086 1.086 0 0 0 137.709 4.126 A 1.123 1.123 0 0 0 137.396 4.762 A 1.572 1.572 0 0 0 137.377 5.005 A 1.48 1.48 0 0 0 137.419 5.367 A 1.019 1.019 0 0 0 137.7 5.862 Q 138.007 6.158 138.54 6.173 A 2.053 2.053 0 0 0 138.599 6.174 Q 139.093 6.174 139.403 5.94 A 1.018 1.018 0 0 0 139.496 5.86 A 1.041 1.041 0 0 0 139.795 5.292 A 1.518 1.518 0 0 0 139.821 5.005 Z M 138.599 0.932 A 1.259 1.259 0 0 0 138.246 0.979 A 0.973 0.973 0 0 0 137.823 1.228 Q 137.527 1.525 137.527 2.035 A 1.325 1.325 0 0 0 137.571 2.387 A 0.994 0.994 0 0 0 137.819 2.823 A 0.974 0.974 0 0 0 138.381 3.108 A 1.382 1.382 0 0 0 138.599 3.125 A 1.279 1.279 0 0 0 138.944 3.08 A 0.952 0.952 0 0 0 139.379 2.823 A 1.018 1.018 0 0 0 139.654 2.26 A 1.426 1.426 0 0 0 139.671 2.035 A 1.282 1.282 0 0 0 139.621 1.668 A 1.013 1.013 0 0 0 139.368 1.239 Q 139.065 0.932 138.599 0.932 Z M 49.311 5.418 L 49.311 4.443 L 48.674 4.443 Q 47.18 4.443 47.18 5.317 Q 47.18 5.7 47.435 5.915 A 0.893 0.893 0 0 0 47.848 6.108 A 1.259 1.259 0 0 0 48.089 6.13 A 1.429 1.429 0 0 0 48.814 5.933 A 1.335 1.335 0 0 0 49.11 5.705 A 1.108 1.108 0 0 0 49.311 5.418 Z M 81.725 5.418 L 81.725 4.443 L 81.088 4.443 Q 79.594 4.443 79.594 5.317 Q 79.594 5.7 79.849 5.915 A 0.893 0.893 0 0 0 80.262 6.108 A 1.259 1.259 0 0 0 80.503 6.13 A 1.429 1.429 0 0 0 81.229 5.933 A 1.335 1.335 0 0 0 81.524 5.705 A 1.108 1.108 0 0 0 81.725 5.418 Z M 104.594 5.418 L 104.594 4.443 L 103.957 4.443 Q 102.463 4.443 102.463 5.317 Q 102.463 5.7 102.718 5.915 A 0.893 0.893 0 0 0 103.131 6.108 A 1.259 1.259 0 0 0 103.373 6.13 A 1.429 1.429 0 0 0 104.098 5.933 A 1.335 1.335 0 0 0 104.393 5.705 A 1.108 1.108 0 0 0 104.594 5.418 Z M 114.456 5.418 L 114.456 4.443 L 113.818 4.443 Q 112.324 4.443 112.324 5.317 Q 112.324 5.7 112.579 5.915 A 0.893 0.893 0 0 0 112.993 6.108 A 1.259 1.259 0 0 0 113.234 6.13 A 1.429 1.429 0 0 0 113.959 5.933 A 1.335 1.335 0 0 0 114.255 5.705 A 1.108 1.108 0 0 0 114.456 5.418 Z M 152.679 5.418 L 152.679 4.443 L 152.042 4.443 Q 150.548 4.443 150.548 5.317 Q 150.548 5.7 150.803 5.915 A 0.893 0.893 0 0 0 151.216 6.108 A 1.259 1.259 0 0 0 151.458 6.13 A 1.429 1.429 0 0 0 152.183 5.933 A 1.335 1.335 0 0 0 152.478 5.705 A 1.108 1.108 0 0 0 152.679 5.418 Z M 24.715 3.938 L 27.097 3.938 L 27.097 3.876 Q 27.071 3.417 26.9 3.111 A 1.13 1.13 0 0 0 26.763 2.916 A 0.983 0.983 0 0 0 26.108 2.584 A 1.39 1.39 0 0 0 25.954 2.575 A 1.106 1.106 0 0 0 25.432 2.698 A 1.14 1.14 0 0 0 25.128 2.933 A 1.417 1.417 0 0 0 24.851 3.379 Q 24.778 3.563 24.738 3.785 A 2.741 2.741 0 0 0 24.715 3.938 Z M 29.483 3.938 L 31.865 3.938 L 31.865 3.876 Q 31.839 3.417 31.668 3.111 A 1.13 1.13 0 0 0 31.531 2.916 A 0.983 0.983 0 0 0 30.876 2.584 A 1.39 1.39 0 0 0 30.722 2.575 A 1.106 1.106 0 0 0 30.2 2.698 A 1.14 1.14 0 0 0 29.896 2.933 A 1.417 1.417 0 0 0 29.619 3.379 Q 29.546 3.563 29.506 3.785 A 2.741 2.741 0 0 0 29.483 3.938 Z M 74.782 3.938 L 77.164 3.938 L 77.164 3.876 Q 77.138 3.417 76.967 3.111 A 1.13 1.13 0 0 0 76.83 2.916 A 0.983 0.983 0 0 0 76.175 2.584 A 1.39 1.39 0 0 0 76.021 2.575 A 1.106 1.106 0 0 0 75.499 2.698 A 1.14 1.14 0 0 0 75.195 2.933 A 1.417 1.417 0 0 0 74.918 3.379 Q 74.845 3.563 74.805 3.785 A 2.741 2.741 0 0 0 74.782 3.938 Z M 122.225 3.938 L 124.607 3.938 L 124.607 3.876 Q 124.581 3.417 124.41 3.111 A 1.13 1.13 0 0 0 124.273 2.916 A 0.983 0.983 0 0 0 123.619 2.584 A 1.39 1.39 0 0 0 123.464 2.575 A 1.106 1.106 0 0 0 122.942 2.698 A 1.14 1.14 0 0 0 122.638 2.933 A 1.417 1.417 0 0 0 122.362 3.379 Q 122.288 3.563 122.248 3.785 A 2.741 2.741 0 0 0 122.225 3.938 Z" vector-effect="non-scaling-stroke"/></g>
</svg>