<?xml version="1.0" encoding="UTF-8"?>
<svg width="48px" height="48px" viewBox="0 0 48 48" version="1.1" xmlns="http://www.w3.org/2000/svg" xmlns:xlink="http://www.w3.org/1999/xlink">
    <title>Icon-Resource/IoT/Res_AWS-IoT_Thing_Industrial-PC_48_Dark</title>
    <g id="Icon-Resource/IoT/Res_AWS-IoT_Thing_Industrial-PC_48" stroke="none" stroke-width="1" fill="none" fill-rule="evenodd">
        <path transform="translate(12.000000, 8.000000), scale(.65)" d="M17,29 L21,29 L21,27 L17,27 L17,29 Z M27,29 L33,29 L33,27 L27,27 L27,29 Z M27,26 L33,26 L33,24 L27,24 L27,26 Z M20,26 L23,26 L23,24 L20,24 L20,26 Z M15,26 L18,26 L18,24 L15,24 L15,26 Z M33,20 L33,17 L34.632,17 C34.831,17 35,17.168 35,17.368 L35,20 L33,20 Z M35,30.632 C35,30.832 34.831,31 34.632,31 L13.368,31 C13.169,31 13,30.832 13,30.632 L13,22 L35,22 L35,30.632 Z M13.368,17 L15,17 L15,20 L13,20 L13,17.368 C13,17.168 13.169,17 13.368,17 L13.368,17 Z M17,20 L19,20 L19,17 L17,17 L17,20 Z M21,20 L23,20 L23,17 L21,17 L21,20 Z M25,20 L27,20 L27,17 L25,17 L25,20 Z M29,20 L31,20 L31,17 L29,17 L29,20 Z M34.632,15 L13.368,15 C12.063,15 11,16.063 11,17.368 L11,30.632 C11,31.937 12.063,33 13.368,33 L34.632,33 C35.938,33 37,31.937 37,30.632 L37,22 L37,20 L37,17.368 C37,16.063 35.938,15 34.632,15 L34.632,15 Z M39,37.865 C39,38.491 38.491,39 37.865,39 L10.135,39 C9.509,39 9,38.491 9,37.865 L9,10.135 C9,9.509 9.509,9 10.135,9 L37.865,9 C38.491,9 39,9.509 39,10.135 L39,37.865 Z M46,15 L46,13 L41,13 L41,10.135 C41,8.406 39.594,7 37.865,7 L35,7 L35,2 L33,2 L33,7 L30,7 L30,2 L28,2 L28,7 L25,7 L25,2 L23,2 L23,7 L20,7 L20,2 L18,2 L18,7 L15,7 L15,2 L13,2 L13,7 L10.135,7 C8.406,7 7,8.406 7,10.135 L7,13 L2,13 L2,15 L7,15 L7,18 L2,18 L2,20 L7,20 L7,23 L2,23 L2,25 L7,25 L7,28 L2,28 L2,30 L7,30 L7,33 L2,33 L2,35 L7,35 L7,37.865 C7,39.594 8.406,41 10.135,41 L13,41 L13,46 L15,46 L15,41 L18,41 L18,46 L20,46 L20,41 L23,41 L23,46 L25,46 L25,41 L28,41 L28,46 L30,46 L30,41 L33,41 L33,46 L35,46 L35,41 L37.865,41 C39.594,41 41,39.594 41,37.865 L41,35 L46,35 L46,33 L41,33 L41,30 L46,30 L46,28 L41,28 L41,25 L46,25 L46,23 L41,23 L41,20 L46,20 L46,18 L41,18 L41,15 L46,15 Z" id="Fill-1" fill="#000000"></path>
    </g><g transform="translate(25, 83)" id="svgGroup" stroke-linecap="round" fill-rule="evenodd" font-size="9pt" stroke="#000" stroke-width="0.25mm" fill="#000" style="stroke:#000;stroke-width:0.25mm;fill:#000"><path d="M 23.12 0.088 L 24.13 4.469 L 24.253 5.313 L 24.434 4.553 L 25.699 0.088 L 26.411 0.088 L 27.646 4.553 L 27.822 5.326 L 27.958 4.465 L 28.951 0.088 L 29.799 0.088 L 28.248 6.486 L 27.479 6.486 L 26.161 1.824 L 26.06 1.336 L 25.958 1.824 L 24.592 6.486 L 23.823 6.486 L 22.276 0.088 L 23.12 0.088 Z M 34.98 1.938 L 34.132 1.938 A 1.466 1.466 0 0 0 34.083 1.546 A 1.066 1.066 0 0 0 33.763 1.026 A 1.211 1.211 0 0 0 33.294 0.77 Q 33.042 0.694 32.722 0.694 A 2.286 2.286 0 0 0 32.342 0.724 Q 32.14 0.758 31.977 0.831 A 1.101 1.101 0 0 0 31.748 0.969 A 0.892 0.892 0 0 0 31.403 1.624 A 1.267 1.267 0 0 0 31.399 1.732 A 0.806 0.806 0 0 0 31.667 2.337 A 1.134 1.134 0 0 0 31.731 2.393 A 1.562 1.562 0 0 0 31.969 2.549 Q 32.299 2.73 32.86 2.887 A 8.228 8.228 0 0 1 33.325 3.032 Q 33.56 3.113 33.754 3.2 A 3.297 3.297 0 0 1 34.108 3.382 A 2.342 2.342 0 0 1 34.447 3.626 Q 34.637 3.792 34.759 3.985 A 1.45 1.45 0 0 1 34.776 4.012 A 1.498 1.498 0 0 1 34.972 4.568 A 1.948 1.948 0 0 1 34.994 4.86 A 1.606 1.606 0 0 1 34.871 5.497 Q 34.726 5.838 34.408 6.09 A 1.886 1.886 0 0 1 34.387 6.106 Q 33.781 6.574 32.766 6.574 A 3.023 3.023 0 0 1 31.625 6.36 A 2.917 2.917 0 0 1 31.535 6.322 A 2.383 2.383 0 0 1 31.057 6.044 A 1.874 1.874 0 0 1 30.654 5.629 A 1.689 1.689 0 0 1 30.344 4.632 L 31.192 4.632 A 1.261 1.261 0 0 0 31.262 5.059 A 1.074 1.074 0 0 0 31.621 5.548 Q 32.005 5.85 32.622 5.881 A 2.87 2.87 0 0 0 32.766 5.884 A 2.628 2.628 0 0 0 33.153 5.858 Q 33.349 5.828 33.508 5.767 A 1.129 1.129 0 0 0 33.79 5.612 Q 34.146 5.339 34.146 4.869 A 1.074 1.074 0 0 0 34.103 4.559 A 0.816 0.816 0 0 0 33.816 4.142 Q 33.486 3.885 32.621 3.634 Q 31.535 3.322 31.041 2.868 Q 30.546 2.413 30.546 1.745 Q 30.546 0.989 31.151 0.494 A 2.121 2.121 0 0 1 32.041 0.071 A 3.087 3.087 0 0 1 32.722 0 A 2.913 2.913 0 0 1 33.382 0.072 A 2.372 2.372 0 0 1 33.897 0.255 A 2.051 2.051 0 0 1 34.428 0.626 A 1.834 1.834 0 0 1 34.697 0.958 A 1.798 1.798 0 0 1 34.98 1.938 Z M 3.74 6.486 L 2.351 3.898 L 0.848 3.898 L 0.848 6.486 L 0 6.486 L 0 0.088 L 2.118 0.088 A 3.809 3.809 0 0 1 2.76 0.138 Q 3.102 0.197 3.376 0.324 A 1.789 1.789 0 0 1 3.781 0.58 A 1.588 1.588 0 0 1 4.307 1.469 A 2.453 2.453 0 0 1 4.364 2.013 A 1.864 1.864 0 0 1 4.273 2.604 A 1.64 1.64 0 0 1 4.041 3.054 A 1.849 1.849 0 0 1 3.382 3.611 A 2.342 2.342 0 0 1 3.142 3.718 L 4.645 6.434 L 4.645 6.486 L 3.74 6.486 Z M 13.724 3.129 L 12.907 3.129 Q 12.907 2.795 12.623 2.553 Q 12.34 2.312 11.909 2.312 Q 11.465 2.312 11.215 2.505 A 0.653 0.653 0 0 0 11.04 2.704 Q 10.967 2.835 10.964 3 A 0.771 0.771 0 0 0 10.964 3.01 A 0.588 0.588 0 0 0 10.994 3.203 A 0.48 0.48 0 0 0 11.197 3.454 A 1.093 1.093 0 0 0 11.348 3.533 Q 11.512 3.605 11.767 3.673 A 6.581 6.581 0 0 0 12.039 3.74 A 6.318 6.318 0 0 1 12.446 3.845 Q 12.783 3.944 13.025 4.065 A 1.901 1.901 0 0 1 13.281 4.218 Q 13.418 4.315 13.516 4.429 A 1.06 1.06 0 0 1 13.586 4.52 A 1.024 1.024 0 0 1 13.748 4.927 A 1.388 1.388 0 0 1 13.768 5.168 Q 13.768 5.805 13.258 6.19 Q 12.776 6.554 12.022 6.573 A 3.337 3.337 0 0 1 11.936 6.574 A 2.746 2.746 0 0 1 11.401 6.525 A 2.124 2.124 0 0 1 10.925 6.372 A 1.771 1.771 0 0 1 10.491 6.094 A 1.54 1.54 0 0 1 10.237 5.807 Q 9.989 5.445 9.989 5.023 L 10.802 5.023 A 0.932 0.932 0 0 0 10.875 5.348 A 0.827 0.827 0 0 0 11.129 5.671 A 1.072 1.072 0 0 0 11.531 5.864 Q 11.686 5.903 11.867 5.91 A 2.013 2.013 0 0 0 11.936 5.911 A 1.863 1.863 0 0 0 12.231 5.889 Q 12.393 5.863 12.524 5.806 A 0.941 0.941 0 0 0 12.676 5.724 A 0.689 0.689 0 0 0 12.841 5.574 A 0.554 0.554 0 0 0 12.955 5.225 A 0.698 0.698 0 0 0 12.919 4.994 A 0.581 0.581 0 0 0 12.707 4.713 A 1.05 1.05 0 0 0 12.538 4.615 Q 12.349 4.524 12.054 4.449 A 5.392 5.392 0 0 0 11.841 4.399 A 6.342 6.342 0 0 1 11.48 4.311 Q 11.11 4.209 10.861 4.083 Q 10.562 3.93 10.392 3.731 A 1.017 1.017 0 0 1 10.325 3.643 Q 10.151 3.388 10.151 3.037 A 1.206 1.206 0 0 1 10.55 2.132 A 1.694 1.694 0 0 1 10.646 2.048 A 1.752 1.752 0 0 1 11.429 1.688 A 2.471 2.471 0 0 1 11.909 1.644 A 2.559 2.559 0 0 1 12.473 1.702 A 1.757 1.757 0 0 1 13.221 2.061 Q 13.724 2.479 13.724 3.129 Z M 21.327 6.486 L 20.716 4.816 L 18.035 4.816 L 17.433 6.486 L 16.563 6.486 L 19.006 0.088 L 19.745 0.088 L 22.192 6.486 L 21.327 6.486 Z M 5.212 4.241 L 5.212 4.091 A 3.17 3.17 0 0 1 5.288 3.382 A 2.581 2.581 0 0 1 5.482 2.828 A 2.191 2.191 0 0 1 5.93 2.202 A 2.033 2.033 0 0 1 6.238 1.958 Q 6.724 1.644 7.291 1.644 A 2.254 2.254 0 0 1 7.904 1.723 A 1.639 1.639 0 0 1 8.732 2.254 Q 9.246 2.865 9.246 4.003 L 9.246 4.342 L 6.025 4.342 A 2.111 2.111 0 0 0 6.096 4.85 A 1.516 1.516 0 0 0 6.436 5.478 A 1.282 1.282 0 0 0 7.37 5.909 A 1.652 1.652 0 0 0 7.436 5.911 A 1.763 1.763 0 0 0 7.764 5.882 Q 7.988 5.839 8.165 5.735 A 1.827 1.827 0 0 0 8.674 5.287 A 2.068 2.068 0 0 0 8.688 5.269 L 9.185 5.656 A 1.926 1.926 0 0 1 7.785 6.547 A 2.749 2.749 0 0 1 7.392 6.574 A 2.394 2.394 0 0 1 6.64 6.461 A 1.974 1.974 0 0 1 5.818 5.939 Q 5.212 5.304 5.212 4.241 Z M 0.848 0.782 L 0.848 3.208 L 2.145 3.208 Q 2.685 3.208 3.035 2.968 A 1.174 1.174 0 0 0 3.144 2.883 A 1.069 1.069 0 0 0 3.51 2.146 A 1.486 1.486 0 0 0 3.516 2.013 Q 3.516 1.47 3.22 1.159 A 1 1 0 0 0 3.162 1.103 Q 2.808 0.787 2.14 0.782 L 0.848 0.782 Z M 19.375 1.129 L 18.29 4.122 L 20.465 4.122 L 19.375 1.129 Z M 6.051 3.674 L 8.433 3.674 L 8.433 3.612 Q 8.407 3.153 8.236 2.848 A 1.13 1.13 0 0 0 8.099 2.652 A 0.983 0.983 0 0 0 7.445 2.32 A 1.39 1.39 0 0 0 7.291 2.312 A 1.106 1.106 0 0 0 6.768 2.435 A 1.14 1.14 0 0 0 6.464 2.67 A 1.417 1.417 0 0 0 6.188 3.116 Q 6.114 3.3 6.074 3.522 A 2.741 2.741 0 0 0 6.051 3.674 Z" vector-effect="non-scaling-stroke"/></g><g transform="translate(25, 93)" id="svgGroup" stroke-linecap="round" fill-rule="evenodd" font-size="9pt" stroke="#000" stroke-width="0.25mm" fill="#000" style="stroke:#000;stroke-width:0.25mm;fill:#000"><path d="M 88.8 4.72 L 89.648 4.72 A 3.016 3.016 0 0 1 89.487 5.416 A 2.099 2.099 0 0 1 88.899 6.286 Q 88.269 6.838 87.223 6.838 A 2.553 2.553 0 0 1 86.354 6.696 A 2.194 2.194 0 0 1 85.406 6.025 A 2.789 2.789 0 0 1 84.844 4.901 Q 84.737 4.484 84.724 3.992 A 5.262 5.262 0 0 1 84.722 3.85 L 84.722 3.234 A 4.251 4.251 0 0 1 84.792 2.445 A 3.229 3.229 0 0 1 85.041 1.666 A 2.539 2.539 0 0 1 85.496 0.99 A 2.26 2.26 0 0 1 85.944 0.626 A 2.415 2.415 0 0 1 86.97 0.281 A 3.027 3.027 0 0 1 87.297 0.264 A 2.962 2.962 0 0 1 88.003 0.343 A 2.065 2.065 0 0 1 88.932 0.833 A 2.16 2.16 0 0 1 89.527 1.795 A 3.086 3.086 0 0 1 89.648 2.408 L 88.8 2.408 Q 88.731 1.929 88.562 1.616 A 1.223 1.223 0 0 0 88.323 1.301 A 1.207 1.207 0 0 0 87.818 1.024 Q 87.631 0.971 87.408 0.961 A 2.396 2.396 0 0 0 87.297 0.958 A 1.753 1.753 0 0 0 86.719 1.049 A 1.463 1.463 0 0 0 86.03 1.556 A 1.989 1.989 0 0 0 85.716 2.175 Q 85.57 2.636 85.57 3.256 L 85.57 3.876 Q 85.57 4.917 86.005 5.533 A 1.38 1.38 0 0 0 87.004 6.135 A 1.814 1.814 0 0 0 87.223 6.148 A 2.497 2.497 0 0 0 87.63 6.117 Q 87.85 6.08 88.025 6.002 A 1.155 1.155 0 0 0 88.302 5.829 Q 88.677 5.511 88.8 4.72 Z M 20.997 0 L 20.997 2.571 A 1.767 1.767 0 0 1 21.663 2.053 A 1.832 1.832 0 0 1 22.403 1.907 A 1.905 1.905 0 0 1 23.037 2.004 Q 23.879 2.3 23.922 3.506 A 3.668 3.668 0 0 1 23.924 3.608 L 23.924 6.75 L 23.111 6.75 L 23.111 3.604 A 1.837 1.837 0 0 0 23.089 3.324 Q 23.038 3.017 22.876 2.843 Q 22.69 2.645 22.336 2.606 A 1.66 1.66 0 0 0 22.157 2.597 A 1.253 1.253 0 0 0 21.743 2.664 A 1.123 1.123 0 0 0 21.463 2.808 A 1.432 1.432 0 0 0 20.997 3.362 L 20.997 6.75 L 20.184 6.75 L 20.184 0 L 20.997 0 Z M 122.063 6.75 L 120.406 4.548 L 119.896 5.08 L 119.896 6.75 L 119.083 6.75 L 119.083 0 L 119.896 0 L 119.896 4.083 L 120.331 3.56 L 121.812 1.995 L 122.801 1.995 L 120.951 3.981 L 123.016 6.75 L 122.063 6.75 Z M 35.332 2.522 L 35.372 1.995 L 36.114 1.995 L 36.114 6.636 A 2.511 2.511 0 0 1 36.044 7.249 A 1.738 1.738 0 0 1 35.567 8.09 A 1.834 1.834 0 0 1 34.637 8.57 A 2.671 2.671 0 0 1 34.097 8.622 A 2.446 2.446 0 0 1 33.091 8.402 A 2.003 2.003 0 0 1 32.681 8.161 A 1.563 1.563 0 0 1 32.339 7.8 L 32.761 7.313 A 1.889 1.889 0 0 0 33.196 7.712 A 1.514 1.514 0 0 0 34.04 7.958 A 1.695 1.695 0 0 0 34.417 7.919 Q 34.685 7.858 34.879 7.702 A 1.037 1.037 0 0 0 34.965 7.625 A 1.09 1.09 0 0 0 35.242 7.132 Q 35.289 6.959 35.296 6.752 A 2.134 2.134 0 0 0 35.297 6.684 L 35.297 6.275 A 1.601 1.601 0 0 1 34.245 6.821 A 2.279 2.279 0 0 1 33.965 6.838 A 1.672 1.672 0 0 1 33.21 6.67 Q 32.888 6.51 32.638 6.197 A 2.14 2.14 0 0 1 32.614 6.166 A 2.316 2.316 0 0 1 32.231 5.386 Q 32.098 4.922 32.098 4.333 Q 32.098 3.472 32.406 2.884 A 2.096 2.096 0 0 1 32.612 2.564 Q 33.126 1.907 33.974 1.907 A 1.971 1.971 0 0 1 34.573 1.994 A 1.55 1.55 0 0 1 35.332 2.522 Z M 60.557 3.393 L 59.739 3.393 Q 59.739 3.059 59.456 2.817 Q 59.172 2.575 58.742 2.575 Q 58.298 2.575 58.047 2.769 A 0.653 0.653 0 0 0 57.872 2.967 Q 57.799 3.098 57.797 3.263 A 0.771 0.771 0 0 0 57.797 3.274 A 0.588 0.588 0 0 0 57.827 3.467 A 0.48 0.48 0 0 0 58.03 3.718 A 1.093 1.093 0 0 0 58.18 3.796 Q 58.344 3.868 58.6 3.937 A 6.581 6.581 0 0 0 58.871 4.003 A 6.318 6.318 0 0 1 59.279 4.108 Q 59.616 4.208 59.858 4.329 A 1.901 1.901 0 0 1 60.114 4.481 Q 60.251 4.579 60.348 4.692 A 1.06 1.06 0 0 1 60.418 4.783 A 1.024 1.024 0 0 1 60.58 5.191 A 1.388 1.388 0 0 1 60.601 5.432 Q 60.601 6.069 60.091 6.453 Q 59.608 6.817 58.855 6.837 A 3.337 3.337 0 0 1 58.768 6.838 A 2.746 2.746 0 0 1 58.234 6.788 A 2.124 2.124 0 0 1 57.757 6.636 A 1.771 1.771 0 0 1 57.323 6.358 A 1.54 1.54 0 0 1 57.07 6.071 Q 56.821 5.708 56.821 5.287 L 57.634 5.287 A 0.932 0.932 0 0 0 57.708 5.612 A 0.827 0.827 0 0 0 57.962 5.935 A 1.072 1.072 0 0 0 58.364 6.128 Q 58.518 6.167 58.7 6.173 A 2.013 2.013 0 0 0 58.768 6.174 A 1.863 1.863 0 0 0 59.064 6.152 Q 59.225 6.126 59.357 6.07 A 0.941 0.941 0 0 0 59.509 5.988 A 0.689 0.689 0 0 0 59.673 5.837 A 0.554 0.554 0 0 0 59.788 5.489 A 0.698 0.698 0 0 0 59.751 5.258 A 0.581 0.581 0 0 0 59.539 4.977 A 1.05 1.05 0 0 0 59.37 4.878 Q 59.182 4.788 58.887 4.712 A 5.392 5.392 0 0 0 58.674 4.663 A 6.342 6.342 0 0 1 58.313 4.575 Q 57.943 4.473 57.694 4.346 Q 57.395 4.194 57.224 3.994 A 1.017 1.017 0 0 1 57.157 3.907 Q 56.984 3.652 56.984 3.3 A 1.206 1.206 0 0 1 57.383 2.396 A 1.694 1.694 0 0 1 57.478 2.312 A 1.752 1.752 0 0 1 58.261 1.952 A 2.471 2.471 0 0 1 58.742 1.907 A 2.559 2.559 0 0 1 59.305 1.966 A 1.757 1.757 0 0 1 60.053 2.325 Q 60.557 2.742 60.557 3.393 Z M 27.325 1.995 L 28.094 1.995 L 28.121 2.593 Q 28.657 1.918 29.517 1.907 A 2.234 2.234 0 0 1 29.544 1.907 A 1.905 1.905 0 0 1 30.178 2.004 Q 31.02 2.3 31.063 3.506 A 3.668 3.668 0 0 1 31.065 3.608 L 31.065 6.75 L 30.252 6.75 L 30.252 3.604 A 1.837 1.837 0 0 0 30.23 3.324 Q 30.18 3.017 30.017 2.843 Q 29.831 2.645 29.477 2.606 A 1.66 1.66 0 0 0 29.298 2.597 A 1.253 1.253 0 0 0 28.884 2.664 A 1.123 1.123 0 0 0 28.604 2.808 A 1.432 1.432 0 0 0 28.138 3.362 L 28.138 6.75 L 27.325 6.75 L 27.325 1.995 Z M 42.016 1.995 L 42.785 1.995 L 42.812 2.593 Q 43.348 1.918 44.208 1.907 A 2.234 2.234 0 0 1 44.235 1.907 A 1.905 1.905 0 0 1 44.869 2.004 Q 45.711 2.3 45.754 3.506 A 3.668 3.668 0 0 1 45.756 3.608 L 45.756 6.75 L 44.943 6.75 L 44.943 3.604 A 1.837 1.837 0 0 0 44.921 3.324 Q 44.87 3.017 44.708 2.843 Q 44.522 2.645 44.168 2.606 A 1.66 1.66 0 0 0 43.989 2.597 A 1.253 1.253 0 0 0 43.575 2.664 A 1.123 1.123 0 0 0 43.295 2.808 A 1.432 1.432 0 0 0 42.829 3.362 L 42.829 6.75 L 42.016 6.75 L 42.016 1.995 Z M 55.011 6.75 L 54.993 6.28 A 1.526 1.526 0 0 1 54.167 6.775 Q 53.917 6.836 53.619 6.838 A 2.996 2.996 0 0 1 53.6 6.838 A 2.086 2.086 0 0 1 53.14 6.79 Q 52.709 6.693 52.442 6.396 A 1.41 1.41 0 0 1 52.159 5.899 Q 52.042 5.556 52.04 5.089 L 52.04 1.995 L 52.853 1.995 L 52.853 5.067 Q 52.853 6.037 53.561 6.137 A 1.229 1.229 0 0 0 53.732 6.148 A 1.927 1.927 0 0 0 54.183 6.099 Q 54.745 5.964 54.971 5.454 L 54.971 1.995 L 55.784 1.995 L 55.784 6.75 L 55.011 6.75 Z M 11.94 0.352 L 11.94 1.046 L 9.883 1.046 L 9.883 6.75 L 9.044 6.75 L 9.044 1.046 L 6.992 1.046 L 6.992 0.352 L 11.94 0.352 Z M 19.362 0.352 L 19.362 1.046 L 17.306 1.046 L 17.306 6.75 L 16.466 6.75 L 16.466 1.046 L 14.414 1.046 L 14.414 0.352 L 19.362 0.352 Z M 73.617 6.75 L 72.765 6.75 A 0.632 0.632 0 0 1 72.729 6.66 Q 72.698 6.562 72.673 6.41 A 3.997 3.997 0 0 1 72.65 6.249 Q 72.083 6.838 71.297 6.838 A 2.033 2.033 0 0 1 70.768 6.772 A 1.529 1.529 0 0 1 70.143 6.44 Q 69.693 6.042 69.693 5.432 Q 69.693 4.689 70.258 4.278 Q 70.822 3.867 71.846 3.867 L 72.637 3.867 L 72.637 3.494 A 1.152 1.152 0 0 0 72.601 3.199 A 0.828 0.828 0 0 0 72.382 2.815 Q 72.166 2.6 71.776 2.568 A 1.748 1.748 0 0 0 71.631 2.562 Q 71.196 2.562 70.901 2.782 Q 70.607 3.001 70.607 3.313 L 69.79 3.313 A 1.041 1.041 0 0 1 69.914 2.825 A 1.409 1.409 0 0 1 70.042 2.626 Q 70.295 2.294 70.728 2.101 A 2.249 2.249 0 0 1 71.503 1.913 A 2.669 2.669 0 0 1 71.679 1.907 A 2.65 2.65 0 0 1 72.197 1.955 Q 72.504 2.016 72.743 2.156 A 1.439 1.439 0 0 1 72.967 2.318 A 1.396 1.396 0 0 1 73.42 3.144 A 1.998 1.998 0 0 1 73.45 3.45 L 73.45 5.638 Q 73.45 6.073 73.524 6.39 A 1.707 1.707 0 0 0 73.617 6.68 L 73.617 6.75 Z M 114.926 6.75 L 114.073 6.75 A 0.632 0.632 0 0 1 114.038 6.66 Q 114.007 6.562 113.982 6.41 A 3.997 3.997 0 0 1 113.959 6.249 Q 113.392 6.838 112.605 6.838 A 2.033 2.033 0 0 1 112.076 6.772 A 1.529 1.529 0 0 1 111.452 6.44 Q 111.001 6.042 111.001 5.432 Q 111.001 4.689 111.566 4.278 Q 112.131 3.867 113.155 3.867 L 113.946 3.867 L 113.946 3.494 A 1.152 1.152 0 0 0 113.91 3.199 A 0.828 0.828 0 0 0 113.691 2.815 Q 113.475 2.6 113.084 2.568 A 1.748 1.748 0 0 0 112.939 2.562 Q 112.504 2.562 112.21 2.782 Q 111.916 3.001 111.916 3.313 L 111.098 3.313 A 1.041 1.041 0 0 1 111.223 2.825 A 1.409 1.409 0 0 1 111.351 2.626 Q 111.604 2.294 112.036 2.101 A 2.249 2.249 0 0 1 112.812 1.913 A 2.669 2.669 0 0 1 112.988 1.907 A 2.65 2.65 0 0 1 113.505 1.955 Q 113.812 2.016 114.051 2.156 A 1.439 1.439 0 0 1 114.275 2.318 A 1.396 1.396 0 0 1 114.729 3.144 A 1.998 1.998 0 0 1 114.759 3.45 L 114.759 5.638 Q 114.759 6.073 114.832 6.39 A 1.707 1.707 0 0 0 114.926 6.68 L 114.926 6.75 Z M 46.784 4.395 L 46.784 4.333 A 3.762 3.762 0 0 1 46.851 3.602 Q 46.939 3.16 47.141 2.812 A 2.148 2.148 0 0 1 47.303 2.573 Q 47.821 1.907 48.661 1.907 A 1.964 1.964 0 0 1 49.259 1.994 A 1.559 1.559 0 0 1 49.983 2.479 L 49.983 0 L 50.796 0 L 50.796 6.75 L 50.049 6.75 L 50.01 6.24 Q 49.522 6.838 48.652 6.838 A 1.6 1.6 0 0 1 47.431 6.31 A 2.078 2.078 0 0 1 47.305 6.161 A 2.405 2.405 0 0 1 46.88 5.255 Q 46.796 4.912 46.786 4.51 A 4.425 4.425 0 0 1 46.784 4.395 Z M 81.615 4.245 L 80.108 4.245 L 80.108 6.75 L 79.264 6.75 L 79.264 0.352 L 81.624 0.352 A 3.315 3.315 0 0 1 82.289 0.414 Q 82.691 0.497 83.002 0.688 A 1.839 1.839 0 0 1 83.27 0.888 A 1.772 1.772 0 0 1 83.857 2.105 A 2.45 2.45 0 0 1 83.865 2.307 Q 83.865 3.239 83.283 3.742 Q 82.804 4.156 81.985 4.229 A 4.14 4.14 0 0 1 81.615 4.245 Z M 96.249 0.352 L 96.249 4.601 L 97.137 4.601 L 97.137 5.265 L 96.249 5.265 L 96.249 6.75 L 95.432 6.75 L 95.432 5.265 L 92.518 5.265 L 92.518 4.786 L 95.383 0.352 L 96.249 0.352 Z M 107.134 6.75 L 105.363 6.75 L 105.363 0.352 L 107.169 0.352 Q 108.004 0.352 108.646 0.721 Q 109.288 1.09 109.637 1.771 A 3.19 3.19 0 0 1 109.954 2.8 A 4.073 4.073 0 0 1 109.991 3.335 L 109.991 3.744 Q 109.991 4.649 109.641 5.331 A 2.457 2.457 0 0 1 108.644 6.376 Q 107.996 6.741 107.134 6.75 Z M 101.647 2.592 A 1.544 1.544 0 0 0 101.751 2.021 A 2.226 2.226 0 0 0 101.729 1.707 A 1.566 1.566 0 0 0 101.23 0.738 A 1.754 1.754 0 0 0 100.464 0.333 A 2.443 2.443 0 0 0 99.866 0.264 A 2.539 2.539 0 0 0 99.356 0.312 A 1.767 1.767 0 0 0 98.499 0.738 Q 97.98 1.213 97.98 2.021 A 1.808 1.808 0 0 0 97.981 2.058 A 1.499 1.499 0 0 0 98.227 2.87 A 1.626 1.626 0 0 0 98.389 3.077 A 1.726 1.726 0 0 0 98.899 3.454 A 2.119 2.119 0 0 0 98.799 3.5 A 1.738 1.738 0 0 0 98.115 4.087 A 1.629 1.629 0 0 0 97.831 5.023 A 2.272 2.272 0 0 0 97.841 5.237 A 1.63 1.63 0 0 0 98.387 6.344 A 1.895 1.895 0 0 0 99.237 6.771 A 2.797 2.797 0 0 0 99.866 6.838 A 2.796 2.796 0 0 0 100.465 6.777 A 1.925 1.925 0 0 0 101.34 6.346 A 1.578 1.578 0 0 0 101.815 5.62 A 1.989 1.989 0 0 0 101.9 5.023 A 1.581 1.581 0 0 0 101.608 4.087 Q 101.316 3.674 100.815 3.458 Q 101.246 3.248 101.498 2.874 A 1.449 1.449 0 0 0 101.647 2.592 Z M 61.95 0.844 L 62.763 0.844 L 62.763 1.995 L 63.65 1.995 L 63.65 2.624 L 62.763 2.624 L 62.763 5.572 Q 62.763 5.858 62.881 6.001 Q 63 6.144 63.286 6.144 A 1.046 1.046 0 0 0 63.383 6.138 Q 63.486 6.129 63.626 6.101 A 4.024 4.024 0 0 0 63.672 6.091 L 63.672 6.75 A 2.463 2.463 0 0 1 63.24 6.829 A 2.157 2.157 0 0 1 63.048 6.838 Q 62.601 6.838 62.335 6.616 A 0.856 0.856 0 0 1 62.227 6.508 Q 61.999 6.238 61.959 5.78 A 2.351 2.351 0 0 1 61.95 5.572 L 61.95 2.624 L 61.084 2.624 L 61.084 1.995 L 61.95 1.995 L 61.95 0.844 Z M 75.608 0 L 75.608 6.75 L 74.795 6.75 L 74.795 0 L 75.608 0 Z M 2.043 4.386 L 2.043 4.329 A 3.057 3.057 0 0 1 2.13 3.587 A 2.573 2.573 0 0 1 2.318 3.072 A 2.16 2.16 0 0 1 2.733 2.486 A 1.957 1.957 0 0 1 3.083 2.21 A 2.036 2.036 0 0 1 4.027 1.913 A 2.491 2.491 0 0 1 4.201 1.907 A 2.277 2.277 0 0 1 4.955 2.027 A 1.937 1.937 0 0 1 5.772 2.58 A 2.29 2.29 0 0 1 6.291 3.608 A 3.373 3.373 0 0 1 6.372 4.368 L 6.372 4.425 A 3.114 3.114 0 0 1 6.293 5.142 A 2.577 2.577 0 0 1 6.106 5.671 A 2.056 2.056 0 0 1 5.579 6.361 A 2.001 2.001 0 0 1 5.346 6.53 A 2.045 2.045 0 0 1 4.426 6.829 A 2.529 2.529 0 0 1 4.21 6.838 A 2.262 2.262 0 0 1 3.46 6.718 A 1.938 1.938 0 0 1 2.643 6.166 A 2.297 2.297 0 0 1 2.118 5.111 A 3.357 3.357 0 0 1 2.043 4.386 Z M 66.898 1.969 L 66.898 2.725 A 2.251 2.251 0 0 0 66.655 2.698 A 2.782 2.782 0 0 0 66.498 2.694 Q 65.72 2.694 65.429 3.338 A 1.445 1.445 0 0 0 65.413 3.375 L 65.413 6.75 L 64.6 6.75 L 64.6 1.995 L 65.391 1.995 L 65.404 2.544 Q 65.784 1.938 66.467 1.909 A 1.636 1.636 0 0 1 66.538 1.907 Q 66.775 1.907 66.898 1.969 Z M 118.332 1.969 L 118.332 2.725 A 2.251 2.251 0 0 0 118.089 2.698 A 2.782 2.782 0 0 0 117.932 2.694 Q 117.154 2.694 116.862 3.338 A 1.445 1.445 0 0 0 116.846 3.375 L 116.846 6.75 L 116.033 6.75 L 116.033 1.995 L 116.824 1.995 L 116.837 2.544 Q 117.218 1.938 117.9 1.909 A 1.636 1.636 0 0 1 117.971 1.907 Q 118.208 1.907 118.332 1.969 Z M 0.844 0.352 L 0.844 6.75 L 0 6.75 L 0 0.352 L 0.844 0.352 Z M 40.601 0.352 L 40.601 6.75 L 39.757 6.75 L 39.757 0.352 L 40.601 0.352 Z M 107.191 1.046 L 106.207 1.046 L 106.207 6.06 L 107.095 6.06 A 2.519 2.519 0 0 0 107.727 5.985 A 1.747 1.747 0 0 0 108.613 5.454 Q 109.072 4.94 109.143 4.059 A 4.165 4.165 0 0 0 109.156 3.727 L 109.156 3.353 Q 109.156 2.562 108.886 2.027 A 1.864 1.864 0 0 0 108.644 1.659 A 1.687 1.687 0 0 0 107.648 1.09 A 2.499 2.499 0 0 0 107.191 1.046 Z M 26.024 1.995 L 26.024 6.75 L 25.211 6.75 L 25.211 1.995 L 26.024 1.995 Z M 68.528 1.995 L 68.528 6.75 L 67.715 6.75 L 67.715 1.995 L 68.528 1.995 Z M 2.861 4.425 A 2.772 2.772 0 0 0 2.908 4.954 Q 2.969 5.264 3.106 5.51 A 1.545 1.545 0 0 0 3.228 5.695 Q 3.595 6.174 4.21 6.174 A 1.269 1.269 0 0 0 4.699 6.083 Q 4.979 5.967 5.181 5.706 A 1.471 1.471 0 0 0 5.194 5.689 A 1.648 1.648 0 0 0 5.449 5.171 Q 5.518 4.945 5.544 4.672 A 3.655 3.655 0 0 0 5.559 4.329 A 2.687 2.687 0 0 0 5.508 3.789 Q 5.44 3.459 5.283 3.2 A 1.586 1.586 0 0 0 5.188 3.061 A 1.231 1.231 0 0 0 4.773 2.705 Q 4.52 2.575 4.201 2.575 Q 3.611 2.575 3.245 3.035 A 1.515 1.515 0 0 0 3.23 3.054 A 1.589 1.589 0 0 0 2.978 3.552 Q 2.908 3.772 2.88 4.039 A 3.676 3.676 0 0 0 2.861 4.425 Z M 49.983 5.454 L 49.983 3.27 A 1.375 1.375 0 0 0 49.672 2.874 Q 49.348 2.597 48.863 2.597 A 1.238 1.238 0 0 0 48.436 2.668 A 1.068 1.068 0 0 0 47.931 3.059 A 1.51 1.51 0 0 0 47.722 3.484 Q 47.656 3.689 47.625 3.939 A 3.955 3.955 0 0 0 47.597 4.425 A 3.162 3.162 0 0 0 47.633 4.918 Q 47.674 5.178 47.762 5.389 A 1.474 1.474 0 0 0 47.931 5.691 A 1.06 1.06 0 0 0 48.693 6.139 A 1.391 1.391 0 0 0 48.854 6.148 Q 49.627 6.148 49.983 5.454 Z M 35.297 5.449 L 35.297 3.278 A 1.439 1.439 0 0 0 34.996 2.891 Q 34.692 2.62 34.252 2.599 A 1.578 1.578 0 0 0 34.176 2.597 Q 33.584 2.597 33.251 3.056 A 1.51 1.51 0 0 0 33.04 3.484 Q 32.974 3.689 32.943 3.939 A 3.955 3.955 0 0 0 32.915 4.425 Q 32.915 5.229 33.245 5.689 Q 33.574 6.148 34.167 6.148 A 1.32 1.32 0 0 0 34.677 6.054 Q 35.069 5.891 35.297 5.449 Z M 80.108 1.046 L 80.108 3.555 L 81.624 3.555 A 2.313 2.313 0 0 0 82.016 3.524 Q 82.233 3.487 82.406 3.404 A 1.097 1.097 0 0 0 82.661 3.237 A 1.028 1.028 0 0 0 82.979 2.696 Q 83.02 2.528 83.021 2.329 A 1.996 1.996 0 0 0 83.021 2.316 A 1.466 1.466 0 0 0 82.968 1.908 A 1.112 1.112 0 0 0 82.661 1.402 Q 82.301 1.059 81.672 1.046 L 80.108 1.046 Z M 95.335 1.639 L 93.441 4.601 L 95.432 4.601 L 95.432 1.463 L 95.335 1.639 Z M 101.087 5.005 A 1.375 1.375 0 0 0 101.028 4.592 A 1.109 1.109 0 0 0 100.747 4.131 A 1.148 1.148 0 0 0 100.075 3.807 A 1.593 1.593 0 0 0 99.857 3.792 A 1.466 1.466 0 0 0 99.468 3.841 A 1.086 1.086 0 0 0 98.976 4.126 A 1.123 1.123 0 0 0 98.662 4.762 A 1.572 1.572 0 0 0 98.644 5.005 A 1.48 1.48 0 0 0 98.686 5.367 A 1.019 1.019 0 0 0 98.967 5.862 Q 99.273 6.158 99.806 6.173 A 2.053 2.053 0 0 0 99.866 6.174 Q 100.359 6.174 100.669 5.94 A 1.018 1.018 0 0 0 100.762 5.86 A 1.041 1.041 0 0 0 101.062 5.292 A 1.518 1.518 0 0 0 101.087 5.005 Z M 99.866 0.932 A 1.259 1.259 0 0 0 99.513 0.979 A 0.973 0.973 0 0 0 99.09 1.228 Q 98.793 1.525 98.793 2.035 A 1.325 1.325 0 0 0 98.838 2.387 A 0.994 0.994 0 0 0 99.086 2.823 A 0.974 0.974 0 0 0 99.648 3.108 A 1.382 1.382 0 0 0 99.866 3.125 A 1.279 1.279 0 0 0 100.211 3.08 A 0.952 0.952 0 0 0 100.646 2.823 A 1.018 1.018 0 0 0 100.921 2.26 A 1.426 1.426 0 0 0 100.938 2.035 A 1.282 1.282 0 0 0 100.888 1.668 A 1.013 1.013 0 0 0 100.635 1.239 Q 100.332 0.932 99.866 0.932 Z M 72.637 5.418 L 72.637 4.443 L 72 4.443 Q 70.506 4.443 70.506 5.317 Q 70.506 5.7 70.761 5.915 A 0.893 0.893 0 0 0 71.174 6.108 A 1.259 1.259 0 0 0 71.416 6.13 A 1.429 1.429 0 0 0 72.141 5.933 A 1.335 1.335 0 0 0 72.436 5.705 A 1.108 1.108 0 0 0 72.637 5.418 Z M 113.946 5.418 L 113.946 4.443 L 113.309 4.443 Q 111.814 4.443 111.814 5.317 Q 111.814 5.7 112.069 5.915 A 0.893 0.893 0 0 0 112.483 6.108 A 1.259 1.259 0 0 0 112.724 6.13 A 1.429 1.429 0 0 0 113.449 5.933 A 1.335 1.335 0 0 0 113.745 5.705 A 1.108 1.108 0 0 0 113.946 5.418 Z M 25.146 0.734 Q 25.146 0.536 25.266 0.4 Q 25.378 0.274 25.59 0.264 A 0.783 0.783 0 0 1 25.625 0.264 Q 25.862 0.264 25.985 0.4 A 0.474 0.474 0 0 1 26.107 0.703 A 0.614 0.614 0 0 1 26.108 0.734 A 0.523 0.523 0 0 1 26.083 0.9 A 0.442 0.442 0 0 1 25.985 1.063 Q 25.872 1.184 25.664 1.194 A 0.803 0.803 0 0 1 25.625 1.195 Q 25.452 1.195 25.341 1.126 A 0.362 0.362 0 0 1 25.266 1.063 A 0.456 0.456 0 0 1 25.148 0.788 A 0.605 0.605 0 0 1 25.146 0.734 Z M 67.649 0.734 Q 67.649 0.536 67.77 0.4 Q 67.882 0.274 68.094 0.264 A 0.783 0.783 0 0 1 68.128 0.264 Q 68.366 0.264 68.489 0.4 A 0.474 0.474 0 0 1 68.611 0.703 A 0.614 0.614 0 0 1 68.612 0.734 A 0.523 0.523 0 0 1 68.587 0.9 A 0.442 0.442 0 0 1 68.489 1.063 Q 68.376 1.184 68.168 1.194 A 0.803 0.803 0 0 1 68.128 1.195 Q 67.956 1.195 67.845 1.126 A 0.362 0.362 0 0 1 67.77 1.063 A 0.456 0.456 0 0 1 67.652 0.788 A 0.605 0.605 0 0 1 67.649 0.734 Z" vector-effect="non-scaling-stroke"/></g>
</svgversion="1.0" encoding="UTF-8"?>
<svg width="48px" height="48px" viewBox="0 0 48 48" version="1.1" xmlns="http://www.w3.org/2000/svg" xmlns:xlink="http://www.w3.org/1999/xlink">
    <title>Icon-Resource/IoT/Res_AWS-IoT_Thing_Industrial-PC_48_Dark</title>
    <g id="Icon-Resource/IoT/Res_AWS-IoT_Thing_Industrial-PC_48" stroke="none" stroke-width="1" fill="none" fill-rule="evenodd">
        <path transform="translate(12.000000, 8.000000), scale(.65)" d="M17,29 L21,29 L21,27 L17,27 L17,29 Z M27,29 L33,29 L33,27 L27,27 L27,29 Z M27,26 L33,26 L33,24 L27,24 L27,26 Z M20,26 L23,26 L23,24 L20,24 L20,26 Z M15,26 L18,26 L18,24 L15,24 L15,26 Z M33,20 L33,17 L34.632,17 C34.831,17 35,17.168 35,17.368 L35,20 L33,20 Z M35,30.632 C35,30.832 34.831,31 34.632,31 L13.368,31 C13.169,31 13,30.832 13,30.632 L13,22 L35,22 L35,30.632 Z M13.368,17 L15,17 L15,20 L13,20 L13,17.368 C13,17.168 13.169,17 13.368,17 L13.368,17 Z M17,20 L19,20 L19,17 L17,17 L17,20 Z M21,20 L23,20 L23,17 L21,17 L21,20 Z M25,20 L27,20 L27,17 L25,17 L25,20 Z M29,20 L31,20 L31,17 L29,17 L29,20 Z M34.632,15 L13.368,15 C12.063,15 11,16.063 11,17.368 L11,30.632 C11,31.937 12.063,33 13.368,33 L34.632,33 C35.938,33 37,31.937 37,30.632 L37,22 L37,20 L37,17.368 C37,16.063 35.938,15 34.632,15 L34.632,15 Z M39,37.865 C39,38.491 38.491,39 37.865,39 L10.135,39 C9.509,39 9,38.491 9,37.865 L9,10.135 C9,9.509 9.509,9 10.135,9 L37.865,9 C38.491,9 39,9.509 39,10.135 L39,37.865 Z M46,15 L46,13 L41,13 L41,10.135 C41,8.406 39.594,7 37.865,7 L35,7 L35,2 L33,2 L33,7 L30,7 L30,2 L28,2 L28,7 L25,7 L25,2 L23,2 L23,7 L20,7 L20,2 L18,2 L18,7 L15,7 L15,2 L13,2 L13,7 L10.135,7 C8.406,7 7,8.406 7,10.135 L7,13 L2,13 L2,15 L7,15 L7,18 L2,18 L2,20 L7,20 L7,23 L2,23 L2,25 L7,25 L7,28 L2,28 L2,30 L7,30 L7,33 L2,33 L2,35 L7,35 L7,37.865 C7,39.594 8.406,41 10.135,41 L13,41 L13,46 L15,46 L15,41 L18,41 L18,46 L20,46 L20,41 L23,41 L23,46 L25,46 L25,41 L28,41 L28,46 L30,46 L30,41 L33,41 L33,46 L35,46 L35,41 L37.865,41 C39.594,41 41,39.594 41,37.865 L41,35 L46,35 L46,33 L41,33 L41,30 L46,30 L46,28 L41,28 L41,25 L46,25 L46,23 L41,23 L41,20 L46,20 L46,18 L41,18 L41,15 L46,15 Z" id="Fill-1" fill="#000000"></path>
    </g><g transform="translate(25, 83)" id="svgGroup" stroke-linecap="round" fill-rule="evenodd" font-size="9pt" stroke="#000" stroke-width="0.25mm" fill="#000" style="stroke:#000;stroke-width:0.25mm;fill:#000"><path d="M 23.12 0.088 L 24.13 4.469 L 24.253 5.313 L 24.434 4.553 L 25.699 0.088 L 26.411 0.088 L 27.646 4.553 L 27.822 5.326 L 27.958 4.465 L 28.951 0.088 L 29.799 0.088 L 28.248 6.486 L 27.479 6.486 L 26.161 1.824 L 26.06 1.336 L 25.958 1.824 L 24.592 6.486 L 23.823 6.486 L 22.276 0.088 L 23.12 0.088 Z M 34.98 1.938 L 34.132 1.938 A 1.466 1.466 0 0 0 34.083 1.546 A 1.066 1.066 0 0 0 33.763 1.026 A 1.211 1.211 0 0 0 33.294 0.77 Q 33.042 0.694 32.722 0.694 A 2.286 2.286 0 0 0 32.342 0.724 Q 32.14 0.758 31.977 0.831 A 1.101 1.101 0 0 0 31.748 0.969 A 0.892 0.892 0 0 0 31.403 1.624 A 1.267 1.267 0 0 0 31.399 1.732 A 0.806 0.806 0 0 0 31.667 2.337 A 1.134 1.134 0 0 0 31.731 2.393 A 1.562 1.562 0 0 0 31.969 2.549 Q 32.299 2.73 32.86 2.887 A 8.228 8.228 0 0 1 33.325 3.032 Q 33.56 3.113 33.754 3.2 A 3.297 3.297 0 0 1 34.108 3.382 A 2.342 2.342 0 0 1 34.447 3.626 Q 34.637 3.792 34.759 3.985 A 1.45 1.45 0 0 1 34.776 4.012 A 1.498 1.498 0 0 1 34.972 4.568 A 1.948 1.948 0 0 1 34.994 4.86 A 1.606 1.606 0 0 1 34.871 5.497 Q 34.726 5.838 34.408 6.09 A 1.886 1.886 0 0 1 34.387 6.106 Q 33.781 6.574 32.766 6.574 A 3.023 3.023 0 0 1 31.625 6.36 A 2.917 2.917 0 0 1 31.535 6.322 A 2.383 2.383 0 0 1 31.057 6.044 A 1.874 1.874 0 0 1 30.654 5.629 A 1.689 1.689 0 0 1 30.344 4.632 L 31.192 4.632 A 1.261 1.261 0 0 0 31.262 5.059 A 1.074 1.074 0 0 0 31.621 5.548 Q 32.005 5.85 32.622 5.881 A 2.87 2.87 0 0 0 32.766 5.884 A 2.628 2.628 0 0 0 33.153 5.858 Q 33.349 5.828 33.508 5.767 A 1.129 1.129 0 0 0 33.79 5.612 Q 34.146 5.339 34.146 4.869 A 1.074 1.074 0 0 0 34.103 4.559 A 0.816 0.816 0 0 0 33.816 4.142 Q 33.486 3.885 32.621 3.634 Q 31.535 3.322 31.041 2.868 Q 30.546 2.413 30.546 1.745 Q 30.546 0.989 31.151 0.494 A 2.121 2.121 0 0 1 32.041 0.071 A 3.087 3.087 0 0 1 32.722 0 A 2.913 2.913 0 0 1 33.382 0.072 A 2.372 2.372 0 0 1 33.897 0.255 A 2.051 2.051 0 0 1 34.428 0.626 A 1.834 1.834 0 0 1 34.697 0.958 A 1.798 1.798 0 0 1 34.98 1.938 Z M 3.74 6.486 L 2.351 3.898 L 0.848 3.898 L 0.848 6.486 L 0 6.486 L 0 0.088 L 2.118 0.088 A 3.809 3.809 0 0 1 2.76 0.138 Q 3.102 0.197 3.376 0.324 A 1.789 1.789 0 0 1 3.781 0.58 A 1.588 1.588 0 0 1 4.307 1.469 A 2.453 2.453 0 0 1 4.364 2.013 A 1.864 1.864 0 0 1 4.273 2.604 A 1.64 1.64 0 0 1 4.041 3.054 A 1.849 1.849 0 0 1 3.382 3.611 A 2.342 2.342 0 0 1 3.142 3.718 L 4.645 6.434 L 4.645 6.486 L 3.74 6.486 Z M 13.724 3.129 L 12.907 3.129 Q 12.907 2.795 12.623 2.553 Q 12.34 2.312 11.909 2.312 Q 11.465 2.312 11.215 2.505 A 0.653 0.653 0 0 0 11.04 2.704 Q 10.967 2.835 10.964 3 A 0.771 0.771 0 0 0 10.964 3.01 A 0.588 0.588 0 0 0 10.994 3.203 A 0.48 0.48 0 0 0 11.197 3.454 A 1.093 1.093 0 0 0 11.348 3.533 Q 11.512 3.605 11.767 3.673 A 6.581 6.581 0 0 0 12.039 3.74 A 6.318 6.318 0 0 1 12.446 3.845 Q 12.783 3.944 13.025 4.065 A 1.901 1.901 0 0 1 13.281 4.218 Q 13.418 4.315 13.516 4.429 A 1.06 1.06 0 0 1 13.586 4.52 A 1.024 1.024 0 0 1 13.748 4.927 A 1.388 1.388 0 0 1 13.768 5.168 Q 13.768 5.805 13.258 6.19 Q 12.776 6.554 12.022 6.573 A 3.337 3.337 0 0 1 11.936 6.574 A 2.746 2.746 0 0 1 11.401 6.525 A 2.124 2.124 0 0 1 10.925 6.372 A 1.771 1.771 0 0 1 10.491 6.094 A 1.54 1.54 0 0 1 10.237 5.807 Q 9.989 5.445 9.989 5.023 L 10.802 5.023 A 0.932 0.932 0 0 0 10.875 5.348 A 0.827 0.827 0 0 0 11.129 5.671 A 1.072 1.072 0 0 0 11.531 5.864 Q 11.686 5.903 11.867 5.91 A 2.013 2.013 0 0 0 11.936 5.911 A 1.863 1.863 0 0 0 12.231 5.889 Q 12.393 5.863 12.524 5.806 A 0.941 0.941 0 0 0 12.676 5.724 A 0.689 0.689 0 0 0 12.841 5.574 A 0.554 0.554 0 0 0 12.955 5.225 A 0.698 0.698 0 0 0 12.919 4.994 A 0.581 0.581 0 0 0 12.707 4.713 A 1.05 1.05 0 0 0 12.538 4.615 Q 12.349 4.524 12.054 4.449 A 5.392 5.392 0 0 0 11.841 4.399 A 6.342 6.342 0 0 1 11.48 4.311 Q 11.11 4.209 10.861 4.083 Q 10.562 3.93 10.392 3.731 A 1.017 1.017 0 0 1 10.325 3.643 Q 10.151 3.388 10.151 3.037 A 1.206 1.206 0 0 1 10.55 2.132 A 1.694 1.694 0 0 1 10.646 2.048 A 1.752 1.752 0 0 1 11.429 1.688 A 2.471 2.471 0 0 1 11.909 1.644 A 2.559 2.559 0 0 1 12.473 1.702 A 1.757 1.757 0 0 1 13.221 2.061 Q 13.724 2.479 13.724 3.129 Z M 21.327 6.486 L 20.716 4.816 L 18.035 4.816 L 17.433 6.486 L 16.563 6.486 L 19.006 0.088 L 19.745 0.088 L 22.192 6.486 L 21.327 6.486 Z M 5.212 4.241 L 5.212 4.091 A 3.17 3.17 0 0 1 5.288 3.382 A 2.581 2.581 0 0 1 5.482 2.828 A 2.191 2.191 0 0 1 5.93 2.202 A 2.033 2.033 0 0 1 6.238 1.958 Q 6.724 1.644 7.291 1.644 A 2.254 2.254 0 0 1 7.904 1.723 A 1.639 1.639 0 0 1 8.732 2.254 Q 9.246 2.865 9.246 4.003 L 9.246 4.342 L 6.025 4.342 A 2.111 2.111 0 0 0 6.096 4.85 A 1.516 1.516 0 0 0 6.436 5.478 A 1.282 1.282 0 0 0 7.37 5.909 A 1.652 1.652 0 0 0 7.436 5.911 A 1.763 1.763 0 0 0 7.764 5.882 Q 7.988 5.839 8.165 5.735 A 1.827 1.827 0 0 0 8.674 5.287 A 2.068 2.068 0 0 0 8.688 5.269 L 9.185 5.656 A 1.926 1.926 0 0 1 7.785 6.547 A 2.749 2.749 0 0 1 7.392 6.574 A 2.394 2.394 0 0 1 6.64 6.461 A 1.974 1.974 0 0 1 5.818 5.939 Q 5.212 5.304 5.212 4.241 Z M 0.848 0.782 L 0.848 3.208 L 2.145 3.208 Q 2.685 3.208 3.035 2.968 A 1.174 1.174 0 0 0 3.144 2.883 A 1.069 1.069 0 0 0 3.51 2.146 A 1.486 1.486 0 0 0 3.516 2.013 Q 3.516 1.47 3.22 1.159 A 1 1 0 0 0 3.162 1.103 Q 2.808 0.787 2.14 0.782 L 0.848 0.782 Z M 19.375 1.129 L 18.29 4.122 L 20.465 4.122 L 19.375 1.129 Z M 6.051 3.674 L 8.433 3.674 L 8.433 3.612 Q 8.407 3.153 8.236 2.848 A 1.13 1.13 0 0 0 8.099 2.652 A 0.983 0.983 0 0 0 7.445 2.32 A 1.39 1.39 0 0 0 7.291 2.312 A 1.106 1.106 0 0 0 6.768 2.435 A 1.14 1.14 0 0 0 6.464 2.67 A 1.417 1.417 0 0 0 6.188 3.116 Q 6.114 3.3 6.074 3.522 A 2.741 2.741 0 0 0 6.051 3.674 Z" vector-effect="non-scaling-stroke"/></g><g transform="translate(25, 93)" id="svgGroup" stroke-linecap="round" fill-rule="evenodd" font-size="9pt" stroke="#000" stroke-width="0.25mm" fill="#000" style="stroke:#000;stroke-width:0.25mm;fill:#000"><path d="M 88.8 4.72 L 89.648 4.72 A 3.016 3.016 0 0 1 89.487 5.416 A 2.099 2.099 0 0 1 88.899 6.286 Q 88.269 6.838 87.223 6.838 A 2.553 2.553 0 0 1 86.354 6.696 A 2.194 2.194 0 0 1 85.406 6.025 A 2.789 2.789 0 0 1 84.844 4.901 Q 84.737 4.484 84.724 3.992 A 5.262 5.262 0 0 1 84.722 3.85 L 84.722 3.234 A 4.251 4.251 0 0 1 84.792 2.445 A 3.229 3.229 0 0 1 85.041 1.666 A 2.539 2.539 0 0 1 85.496 0.99 A 2.26 2.26 0 0 1 85.944 0.626 A 2.415 2.415 0 0 1 86.97 0.281 A 3.027 3.027 0 0 1 87.297 0.264 A 2.962 2.962 0 0 1 88.003 0.343 A 2.065 2.065 0 0 1 88.932 0.833 A 2.16 2.16 0 0 1 89.527 1.795 A 3.086 3.086 0 0 1 89.648 2.408 L 88.8 2.408 Q 88.731 1.929 88.562 1.616 A 1.223 1.223 0 0 0 88.323 1.301 A 1.207 1.207 0 0 0 87.818 1.024 Q 87.631 0.971 87.408 0.961 A 2.396 2.396 0 0 0 87.297 0.958 A 1.753 1.753 0 0 0 86.719 1.049 A 1.463 1.463 0 0 0 86.03 1.556 A 1.989 1.989 0 0 0 85.716 2.175 Q 85.57 2.636 85.57 3.256 L 85.57 3.876 Q 85.57 4.917 86.005 5.533 A 1.38 1.38 0 0 0 87.004 6.135 A 1.814 1.814 0 0 0 87.223 6.148 A 2.497 2.497 0 0 0 87.63 6.117 Q 87.85 6.08 88.025 6.002 A 1.155 1.155 0 0 0 88.302 5.829 Q 88.677 5.511 88.8 4.72 Z M 20.997 0 L 20.997 2.571 A 1.767 1.767 0 0 1 21.663 2.053 A 1.832 1.832 0 0 1 22.403 1.907 A 1.905 1.905 0 0 1 23.037 2.004 Q 23.879 2.3 23.922 3.506 A 3.668 3.668 0 0 1 23.924 3.608 L 23.924 6.75 L 23.111 6.75 L 23.111 3.604 A 1.837 1.837 0 0 0 23.089 3.324 Q 23.038 3.017 22.876 2.843 Q 22.69 2.645 22.336 2.606 A 1.66 1.66 0 0 0 22.157 2.597 A 1.253 1.253 0 0 0 21.743 2.664 A 1.123 1.123 0 0 0 21.463 2.808 A 1.432 1.432 0 0 0 20.997 3.362 L 20.997 6.75 L 20.184 6.75 L 20.184 0 L 20.997 0 Z M 122.063 6.75 L 120.406 4.548 L 119.896 5.08 L 119.896 6.75 L 119.083 6.75 L 119.083 0 L 119.896 0 L 119.896 4.083 L 120.331 3.56 L 121.812 1.995 L 122.801 1.995 L 120.951 3.981 L 123.016 6.75 L 122.063 6.75 Z M 35.332 2.522 L 35.372 1.995 L 36.114 1.995 L 36.114 6.636 A 2.511 2.511 0 0 1 36.044 7.249 A 1.738 1.738 0 0 1 35.567 8.09 A 1.834 1.834 0 0 1 34.637 8.57 A 2.671 2.671 0 0 1 34.097 8.622 A 2.446 2.446 0 0 1 33.091 8.402 A 2.003 2.003 0 0 1 32.681 8.161 A 1.563 1.563 0 0 1 32.339 7.8 L 32.761 7.313 A 1.889 1.889 0 0 0 33.196 7.712 A 1.514 1.514 0 0 0 34.04 7.958 A 1.695 1.695 0 0 0 34.417 7.919 Q 34.685 7.858 34.879 7.702 A 1.037 1.037 0 0 0 34.965 7.625 A 1.09 1.09 0 0 0 35.242 7.132 Q 35.289 6.959 35.296 6.752 A 2.134 2.134 0 0 0 35.297 6.684 L 35.297 6.275 A 1.601 1.601 0 0 1 34.245 6.821 A 2.279 2.279 0 0 1 33.965 6.838 A 1.672 1.672 0 0 1 33.21 6.67 Q 32.888 6.51 32.638 6.197 A 2.14 2.14 0 0 1 32.614 6.166 A 2.316 2.316 0 0 1 32.231 5.386 Q 32.098 4.922 32.098 4.333 Q 32.098 3.472 32.406 2.884 A 2.096 2.096 0 0 1 32.612 2.564 Q 33.126 1.907 33.974 1.907 A 1.971 1.971 0 0 1 34.573 1.994 A 1.55 1.55 0 0 1 35.332 2.522 Z M 60.557 3.393 L 59.739 3.393 Q 59.739 3.059 59.456 2.817 Q 59.172 2.575 58.742 2.575 Q 58.298 2.575 58.047 2.769 A 0.653 0.653 0 0 0 57.872 2.967 Q 57.799 3.098 57.797 3.263 A 0.771 0.771 0 0 0 57.797 3.274 A 0.588 0.588 0 0 0 57.827 3.467 A 0.48 0.48 0 0 0 58.03 3.718 A 1.093 1.093 0 0 0 58.18 3.796 Q 58.344 3.868 58.6 3.937 A 6.581 6.581 0 0 0 58.871 4.003 A 6.318 6.318 0 0 1 59.279 4.108 Q 59.616 4.208 59.858 4.329 A 1.901 1.901 0 0 1 60.114 4.481 Q 60.251 4.579 60.348 4.692 A 1.06 1.06 0 0 1 60.418 4.783 A 1.024 1.024 0 0 1 60.58 5.191 A 1.388 1.388 0 0 1 60.601 5.432 Q 60.601 6.069 60.091 6.453 Q 59.608 6.817 58.855 6.837 A 3.337 3.337 0 0 1 58.768 6.838 A 2.746 2.746 0 0 1 58.234 6.788 A 2.124 2.124 0 0 1 57.757 6.636 A 1.771 1.771 0 0 1 57.323 6.358 A 1.54 1.54 0 0 1 57.07 6.071 Q 56.821 5.708 56.821 5.287 L 57.634 5.287 A 0.932 0.932 0 0 0 57.708 5.612 A 0.827 0.827 0 0 0 57.962 5.935 A 1.072 1.072 0 0 0 58.364 6.128 Q 58.518 6.167 58.7 6.173 A 2.013 2.013 0 0 0 58.768 6.174 A 1.863 1.863 0 0 0 59.064 6.152 Q 59.225 6.126 59.357 6.07 A 0.941 0.941 0 0 0 59.509 5.988 A 0.689 0.689 0 0 0 59.673 5.837 A 0.554 0.554 0 0 0 59.788 5.489 A 0.698 0.698 0 0 0 59.751 5.258 A 0.581 0.581 0 0 0 59.539 4.977 A 1.05 1.05 0 0 0 59.37 4.878 Q 59.182 4.788 58.887 4.712 A 5.392 5.392 0 0 0 58.674 4.663 A 6.342 6.342 0 0 1 58.313 4.575 Q 57.943 4.473 57.694 4.346 Q 57.395 4.194 57.224 3.994 A 1.017 1.017 0 0 1 57.157 3.907 Q 56.984 3.652 56.984 3.3 A 1.206 1.206 0 0 1 57.383 2.396 A 1.694 1.694 0 0 1 57.478 2.312 A 1.752 1.752 0 0 1 58.261 1.952 A 2.471 2.471 0 0 1 58.742 1.907 A 2.559 2.559 0 0 1 59.305 1.966 A 1.757 1.757 0 0 1 60.053 2.325 Q 60.557 2.742 60.557 3.393 Z M 27.325 1.995 L 28.094 1.995 L 28.121 2.593 Q 28.657 1.918 29.517 1.907 A 2.234 2.234 0 0 1 29.544 1.907 A 1.905 1.905 0 0 1 30.178 2.004 Q 31.02 2.3 31.063 3.506 A 3.668 3.668 0 0 1 31.065 3.608 L 31.065 6.75 L 30.252 6.75 L 30.252 3.604 A 1.837 1.837 0 0 0 30.23 3.324 Q 30.18 3.017 30.017 2.843 Q 29.831 2.645 29.477 2.606 A 1.66 1.66 0 0 0 29.298 2.597 A 1.253 1.253 0 0 0 28.884 2.664 A 1.123 1.123 0 0 0 28.604 2.808 A 1.432 1.432 0 0 0 28.138 3.362 L 28.138 6.75 L 27.325 6.75 L 27.325 1.995 Z M 42.016 1.995 L 42.785 1.995 L 42.812 2.593 Q 43.348 1.918 44.208 1.907 A 2.234 2.234 0 0 1 44.235 1.907 A 1.905 1.905 0 0 1 44.869 2.004 Q 45.711 2.3 45.754 3.506 A 3.668 3.668 0 0 1 45.756 3.608 L 45.756 6.75 L 44.943 6.75 L 44.943 3.604 A 1.837 1.837 0 0 0 44.921 3.324 Q 44.87 3.017 44.708 2.843 Q 44.522 2.645 44.168 2.606 A 1.66 1.66 0 0 0 43.989 2.597 A 1.253 1.253 0 0 0 43.575 2.664 A 1.123 1.123 0 0 0 43.295 2.808 A 1.432 1.432 0 0 0 42.829 3.362 L 42.829 6.75 L 42.016 6.75 L 42.016 1.995 Z M 55.011 6.75 L 54.993 6.28 A 1.526 1.526 0 0 1 54.167 6.775 Q 53.917 6.836 53.619 6.838 A 2.996 2.996 0 0 1 53.6 6.838 A 2.086 2.086 0 0 1 53.14 6.79 Q 52.709 6.693 52.442 6.396 A 1.41 1.41 0 0 1 52.159 5.899 Q 52.042 5.556 52.04 5.089 L 52.04 1.995 L 52.853 1.995 L 52.853 5.067 Q 52.853 6.037 53.561 6.137 A 1.229 1.229 0 0 0 53.732 6.148 A 1.927 1.927 0 0 0 54.183 6.099 Q 54.745 5.964 54.971 5.454 L 54.971 1.995 L 55.784 1.995 L 55.784 6.75 L 55.011 6.75 Z M 11.94 0.352 L 11.94 1.046 L 9.883 1.046 L 9.883 6.75 L 9.044 6.75 L 9.044 1.046 L 6.992 1.046 L 6.992 0.352 L 11.94 0.352 Z M 19.362 0.352 L 19.362 1.046 L 17.306 1.046 L 17.306 6.75 L 16.466 6.75 L 16.466 1.046 L 14.414 1.046 L 14.414 0.352 L 19.362 0.352 Z M 73.617 6.75 L 72.765 6.75 A 0.632 0.632 0 0 1 72.729 6.66 Q 72.698 6.562 72.673 6.41 A 3.997 3.997 0 0 1 72.65 6.249 Q 72.083 6.838 71.297 6.838 A 2.033 2.033 0 0 1 70.768 6.772 A 1.529 1.529 0 0 1 70.143 6.44 Q 69.693 6.042 69.693 5.432 Q 69.693 4.689 70.258 4.278 Q 70.822 3.867 71.846 3.867 L 72.637 3.867 L 72.637 3.494 A 1.152 1.152 0 0 0 72.601 3.199 A 0.828 0.828 0 0 0 72.382 2.815 Q 72.166 2.6 71.776 2.568 A 1.748 1.748 0 0 0 71.631 2.562 Q 71.196 2.562 70.901 2.782 Q 70.607 3.001 70.607 3.313 L 69.79 3.313 A 1.041 1.041 0 0 1 69.914 2.825 A 1.409 1.409 0 0 1 70.042 2.626 Q 70.295 2.294 70.728 2.101 A 2.249 2.249 0 0 1 71.503 1.913 A 2.669 2.669 0 0 1 71.679 1.907 A 2.65 2.65 0 0 1 72.197 1.955 Q 72.504 2.016 72.743 2.156 A 1.439 1.439 0 0 1 72.967 2.318 A 1.396 1.396 0 0 1 73.42 3.144 A 1.998 1.998 0 0 1 73.45 3.45 L 73.45 5.638 Q 73.45 6.073 73.524 6.39 A 1.707 1.707 0 0 0 73.617 6.68 L 73.617 6.75 Z M 114.926 6.75 L 114.073 6.75 A 0.632 0.632 0 0 1 114.038 6.66 Q 114.007 6.562 113.982 6.41 A 3.997 3.997 0 0 1 113.959 6.249 Q 113.392 6.838 112.605 6.838 A 2.033 2.033 0 0 1 112.076 6.772 A 1.529 1.529 0 0 1 111.452 6.44 Q 111.001 6.042 111.001 5.432 Q 111.001 4.689 111.566 4.278 Q 112.131 3.867 113.155 3.867 L 113.946 3.867 L 113.946 3.494 A 1.152 1.152 0 0 0 113.91 3.199 A 0.828 0.828 0 0 0 113.691 2.815 Q 113.475 2.6 113.084 2.568 A 1.748 1.748 0 0 0 112.939 2.562 Q 112.504 2.562 112.21 2.782 Q 111.916 3.001 111.916 3.313 L 111.098 3.313 A 1.041 1.041 0 0 1 111.223 2.825 A 1.409 1.409 0 0 1 111.351 2.626 Q 111.604 2.294 112.036 2.101 A 2.249 2.249 0 0 1 112.812 1.913 A 2.669 2.669 0 0 1 112.988 1.907 A 2.65 2.65 0 0 1 113.505 1.955 Q 113.812 2.016 114.051 2.156 A 1.439 1.439 0 0 1 114.275 2.318 A 1.396 1.396 0 0 1 114.729 3.144 A 1.998 1.998 0 0 1 114.759 3.45 L 114.759 5.638 Q 114.759 6.073 114.832 6.39 A 1.707 1.707 0 0 0 114.926 6.68 L 114.926 6.75 Z M 46.784 4.395 L 46.784 4.333 A 3.762 3.762 0 0 1 46.851 3.602 Q 46.939 3.16 47.141 2.812 A 2.148 2.148 0 0 1 47.303 2.573 Q 47.821 1.907 48.661 1.907 A 1.964 1.964 0 0 1 49.259 1.994 A 1.559 1.559 0 0 1 49.983 2.479 L 49.983 0 L 50.796 0 L 50.796 6.75 L 50.049 6.75 L 50.01 6.24 Q 49.522 6.838 48.652 6.838 A 1.6 1.6 0 0 1 47.431 6.31 A 2.078 2.078 0 0 1 47.305 6.161 A 2.405 2.405 0 0 1 46.88 5.255 Q 46.796 4.912 46.786 4.51 A 4.425 4.425 0 0 1 46.784 4.395 Z M 81.615 4.245 L 80.108 4.245 L 80.108 6.75 L 79.264 6.75 L 79.264 0.352 L 81.624 0.352 A 3.315 3.315 0 0 1 82.289 0.414 Q 82.691 0.497 83.002 0.688 A 1.839 1.839 0 0 1 83.27 0.888 A 1.772 1.772 0 0 1 83.857 2.105 A 2.45 2.45 0 0 1 83.865 2.307 Q 83.865 3.239 83.283 3.742 Q 82.804 4.156 81.985 4.229 A 4.14 4.14 0 0 1 81.615 4.245 Z M 96.249 0.352 L 96.249 4.601 L 97.137 4.601 L 97.137 5.265 L 96.249 5.265 L 96.249 6.75 L 95.432 6.75 L 95.432 5.265 L 92.518 5.265 L 92.518 4.786 L 95.383 0.352 L 96.249 0.352 Z M 107.134 6.75 L 105.363 6.75 L 105.363 0.352 L 107.169 0.352 Q 108.004 0.352 108.646 0.721 Q 109.288 1.09 109.637 1.771 A 3.19 3.19 0 0 1 109.954 2.8 A 4.073 4.073 0 0 1 109.991 3.335 L 109.991 3.744 Q 109.991 4.649 109.641 5.331 A 2.457 2.457 0 0 1 108.644 6.376 Q 107.996 6.741 107.134 6.75 Z M 101.647 2.592 A 1.544 1.544 0 0 0 101.751 2.021 A 2.226 2.226 0 0 0 101.729 1.707 A 1.566 1.566 0 0 0 101.23 0.738 A 1.754 1.754 0 0 0 100.464 0.333 A 2.443 2.443 0 0 0 99.866 0.264 A 2.539 2.539 0 0 0 99.356 0.312 A 1.767 1.767 0 0 0 98.499 0.738 Q 97.98 1.213 97.98 2.021 A 1.808 1.808 0 0 0 97.981 2.058 A 1.499 1.499 0 0 0 98.227 2.87 A 1.626 1.626 0 0 0 98.389 3.077 A 1.726 1.726 0 0 0 98.899 3.454 A 2.119 2.119 0 0 0 98.799 3.5 A 1.738 1.738 0 0 0 98.115 4.087 A 1.629 1.629 0 0 0 97.831 5.023 A 2.272 2.272 0 0 0 97.841 5.237 A 1.63 1.63 0 0 0 98.387 6.344 A 1.895 1.895 0 0 0 99.237 6.771 A 2.797 2.797 0 0 0 99.866 6.838 A 2.796 2.796 0 0 0 100.465 6.777 A 1.925 1.925 0 0 0 101.34 6.346 A 1.578 1.578 0 0 0 101.815 5.62 A 1.989 1.989 0 0 0 101.9 5.023 A 1.581 1.581 0 0 0 101.608 4.087 Q 101.316 3.674 100.815 3.458 Q 101.246 3.248 101.498 2.874 A 1.449 1.449 0 0 0 101.647 2.592 Z M 61.95 0.844 L 62.763 0.844 L 62.763 1.995 L 63.65 1.995 L 63.65 2.624 L 62.763 2.624 L 62.763 5.572 Q 62.763 5.858 62.881 6.001 Q 63 6.144 63.286 6.144 A 1.046 1.046 0 0 0 63.383 6.138 Q 63.486 6.129 63.626 6.101 A 4.024 4.024 0 0 0 63.672 6.091 L 63.672 6.75 A 2.463 2.463 0 0 1 63.24 6.829 A 2.157 2.157 0 0 1 63.048 6.838 Q 62.601 6.838 62.335 6.616 A 0.856 0.856 0 0 1 62.227 6.508 Q 61.999 6.238 61.959 5.78 A 2.351 2.351 0 0 1 61.95 5.572 L 61.95 2.624 L 61.084 2.624 L 61.084 1.995 L 61.95 1.995 L 61.95 0.844 Z M 75.608 0 L 75.608 6.75 L 74.795 6.75 L 74.795 0 L 75.608 0 Z M 2.043 4.386 L 2.043 4.329 A 3.057 3.057 0 0 1 2.13 3.587 A 2.573 2.573 0 0 1 2.318 3.072 A 2.16 2.16 0 0 1 2.733 2.486 A 1.957 1.957 0 0 1 3.083 2.21 A 2.036 2.036 0 0 1 4.027 1.913 A 2.491 2.491 0 0 1 4.201 1.907 A 2.277 2.277 0 0 1 4.955 2.027 A 1.937 1.937 0 0 1 5.772 2.58 A 2.29 2.29 0 0 1 6.291 3.608 A 3.373 3.373 0 0 1 6.372 4.368 L 6.372 4.425 A 3.114 3.114 0 0 1 6.293 5.142 A 2.577 2.577 0 0 1 6.106 5.671 A 2.056 2.056 0 0 1 5.579 6.361 A 2.001 2.001 0 0 1 5.346 6.53 A 2.045 2.045 0 0 1 4.426 6.829 A 2.529 2.529 0 0 1 4.21 6.838 A 2.262 2.262 0 0 1 3.46 6.718 A 1.938 1.938 0 0 1 2.643 6.166 A 2.297 2.297 0 0 1 2.118 5.111 A 3.357 3.357 0 0 1 2.043 4.386 Z M 66.898 1.969 L 66.898 2.725 A 2.251 2.251 0 0 0 66.655 2.698 A 2.782 2.782 0 0 0 66.498 2.694 Q 65.72 2.694 65.429 3.338 A 1.445 1.445 0 0 0 65.413 3.375 L 65.413 6.75 L 64.6 6.75 L 64.6 1.995 L 65.391 1.995 L 65.404 2.544 Q 65.784 1.938 66.467 1.909 A 1.636 1.636 0 0 1 66.538 1.907 Q 66.775 1.907 66.898 1.969 Z M 118.332 1.969 L 118.332 2.725 A 2.251 2.251 0 0 0 118.089 2.698 A 2.782 2.782 0 0 0 117.932 2.694 Q 117.154 2.694 116.862 3.338 A 1.445 1.445 0 0 0 116.846 3.375 L 116.846 6.75 L 116.033 6.75 L 116.033 1.995 L 116.824 1.995 L 116.837 2.544 Q 117.218 1.938 117.9 1.909 A 1.636 1.636 0 0 1 117.971 1.907 Q 118.208 1.907 118.332 1.969 Z M 0.844 0.352 L 0.844 6.75 L 0 6.75 L 0 0.352 L 0.844 0.352 Z M 40.601 0.352 L 40.601 6.75 L 39.757 6.75 L 39.757 0.352 L 40.601 0.352 Z M 107.191 1.046 L 106.207 1.046 L 106.207 6.06 L 107.095 6.06 A 2.519 2.519 0 0 0 107.727 5.985 A 1.747 1.747 0 0 0 108.613 5.454 Q 109.072 4.94 109.143 4.059 A 4.165 4.165 0 0 0 109.156 3.727 L 109.156 3.353 Q 109.156 2.562 108.886 2.027 A 1.864 1.864 0 0 0 108.644 1.659 A 1.687 1.687 0 0 0 107.648 1.09 A 2.499 2.499 0 0 0 107.191 1.046 Z M 26.024 1.995 L 26.024 6.75 L 25.211 6.75 L 25.211 1.995 L 26.024 1.995 Z M 68.528 1.995 L 68.528 6.75 L 67.715 6.75 L 67.715 1.995 L 68.528 1.995 Z M 2.861 4.425 A 2.772 2.772 0 0 0 2.908 4.954 Q 2.969 5.264 3.106 5.51 A 1.545 1.545 0 0 0 3.228 5.695 Q 3.595 6.174 4.21 6.174 A 1.269 1.269 0 0 0 4.699 6.083 Q 4.979 5.967 5.181 5.706 A 1.471 1.471 0 0 0 5.194 5.689 A 1.648 1.648 0 0 0 5.449 5.171 Q 5.518 4.945 5.544 4.672 A 3.655 3.655 0 0 0 5.559 4.329 A 2.687 2.687 0 0 0 5.508 3.789 Q 5.44 3.459 5.283 3.2 A 1.586 1.586 0 0 0 5.188 3.061 A 1.231 1.231 0 0 0 4.773 2.705 Q 4.52 2.575 4.201 2.575 Q 3.611 2.575 3.245 3.035 A 1.515 1.515 0 0 0 3.23 3.054 A 1.589 1.589 0 0 0 2.978 3.552 Q 2.908 3.772 2.88 4.039 A 3.676 3.676 0 0 0 2.861 4.425 Z M 49.983 5.454 L 49.983 3.27 A 1.375 1.375 0 0 0 49.672 2.874 Q 49.348 2.597 48.863 2.597 A 1.238 1.238 0 0 0 48.436 2.668 A 1.068 1.068 0 0 0 47.931 3.059 A 1.51 1.51 0 0 0 47.722 3.484 Q 47.656 3.689 47.625 3.939 A 3.955 3.955 0 0 0 47.597 4.425 A 3.162 3.162 0 0 0 47.633 4.918 Q 47.674 5.178 47.762 5.389 A 1.474 1.474 0 0 0 47.931 5.691 A 1.06 1.06 0 0 0 48.693 6.139 A 1.391 1.391 0 0 0 48.854 6.148 Q 49.627 6.148 49.983 5.454 Z M 35.297 5.449 L 35.297 3.278 A 1.439 1.439 0 0 0 34.996 2.891 Q 34.692 2.62 34.252 2.599 A 1.578 1.578 0 0 0 34.176 2.597 Q 33.584 2.597 33.251 3.056 A 1.51 1.51 0 0 0 33.04 3.484 Q 32.974 3.689 32.943 3.939 A 3.955 3.955 0 0 0 32.915 4.425 Q 32.915 5.229 33.245 5.689 Q 33.574 6.148 34.167 6.148 A 1.32 1.32 0 0 0 34.677 6.054 Q 35.069 5.891 35.297 5.449 Z M 80.108 1.046 L 80.108 3.555 L 81.624 3.555 A 2.313 2.313 0 0 0 82.016 3.524 Q 82.233 3.487 82.406 3.404 A 1.097 1.097 0 0 0 82.661 3.237 A 1.028 1.028 0 0 0 82.979 2.696 Q 83.02 2.528 83.021 2.329 A 1.996 1.996 0 0 0 83.021 2.316 A 1.466 1.466 0 0 0 82.968 1.908 A 1.112 1.112 0 0 0 82.661 1.402 Q 82.301 1.059 81.672 1.046 L 80.108 1.046 Z M 95.335 1.639 L 93.441 4.601 L 95.432 4.601 L 95.432 1.463 L 95.335 1.639 Z M 101.087 5.005 A 1.375 1.375 0 0 0 101.028 4.592 A 1.109 1.109 0 0 0 100.747 4.131 A 1.148 1.148 0 0 0 100.075 3.807 A 1.593 1.593 0 0 0 99.857 3.792 A 1.466 1.466 0 0 0 99.468 3.841 A 1.086 1.086 0 0 0 98.976 4.126 A 1.123 1.123 0 0 0 98.662 4.762 A 1.572 1.572 0 0 0 98.644 5.005 A 1.48 1.48 0 0 0 98.686 5.367 A 1.019 1.019 0 0 0 98.967 5.862 Q 99.273 6.158 99.806 6.173 A 2.053 2.053 0 0 0 99.866 6.174 Q 100.359 6.174 100.669 5.94 A 1.018 1.018 0 0 0 100.762 5.86 A 1.041 1.041 0 0 0 101.062 5.292 A 1.518 1.518 0 0 0 101.087 5.005 Z M 99.866 0.932 A 1.259 1.259 0 0 0 99.513 0.979 A 0.973 0.973 0 0 0 99.09 1.228 Q 98.793 1.525 98.793 2.035 A 1.325 1.325 0 0 0 98.838 2.387 A 0.994 0.994 0 0 0 99.086 2.823 A 0.974 0.974 0 0 0 99.648 3.108 A 1.382 1.382 0 0 0 99.866 3.125 A 1.279 1.279 0 0 0 100.211 3.08 A 0.952 0.952 0 0 0 100.646 2.823 A 1.018 1.018 0 0 0 100.921 2.26 A 1.426 1.426 0 0 0 100.938 2.035 A 1.282 1.282 0 0 0 100.888 1.668 A 1.013 1.013 0 0 0 100.635 1.239 Q 100.332 0.932 99.866 0.932 Z M 72.637 5.418 L 72.637 4.443 L 72 4.443 Q 70.506 4.443 70.506 5.317 Q 70.506 5.7 70.761 5.915 A 0.893 0.893 0 0 0 71.174 6.108 A 1.259 1.259 0 0 0 71.416 6.13 A 1.429 1.429 0 0 0 72.141 5.933 A 1.335 1.335 0 0 0 72.436 5.705 A 1.108 1.108 0 0 0 72.637 5.418 Z M 113.946 5.418 L 113.946 4.443 L 113.309 4.443 Q 111.814 4.443 111.814 5.317 Q 111.814 5.7 112.069 5.915 A 0.893 0.893 0 0 0 112.483 6.108 A 1.259 1.259 0 0 0 112.724 6.13 A 1.429 1.429 0 0 0 113.449 5.933 A 1.335 1.335 0 0 0 113.745 5.705 A 1.108 1.108 0 0 0 113.946 5.418 Z M 25.146 0.734 Q 25.146 0.536 25.266 0.4 Q 25.378 0.274 25.59 0.264 A 0.783 0.783 0 0 1 25.625 0.264 Q 25.862 0.264 25.985 0.4 A 0.474 0.474 0 0 1 26.107 0.703 A 0.614 0.614 0 0 1 26.108 0.734 A 0.523 0.523 0 0 1 26.083 0.9 A 0.442 0.442 0 0 1 25.985 1.063 Q 25.872 1.184 25.664 1.194 A 0.803 0.803 0 0 1 25.625 1.195 Q 25.452 1.195 25.341 1.126 A 0.362 0.362 0 0 1 25.266 1.063 A 0.456 0.456 0 0 1 25.148 0.788 A 0.605 0.605 0 0 1 25.146 0.734 Z M 67.649 0.734 Q 67.649 0.536 67.77 0.4 Q 67.882 0.274 68.094 0.264 A 0.783 0.783 0 0 1 68.128 0.264 Q 68.366 0.264 68.489 0.4 A 0.474 0.474 0 0 1 68.611 0.703 A 0.614 0.614 0 0 1 68.612 0.734 A 0.523 0.523 0 0 1 68.587 0.9 A 0.442 0.442 0 0 1 68.489 1.063 Q 68.376 1.184 68.168 1.194 A 0.803 0.803 0 0 1 68.128 1.195 Q 67.956 1.195 67.845 1.126 A 0.362 0.362 0 0 1 67.77 1.063 A 0.456 0.456 0 0 1 67.652 0.788 A 0.605 0.605 0 0 1 67.649 0.734 Z" vector-effect="non-scaling-stroke"/></g>
</svg>