<?xml version="1.0" encoding="UTF-8"?>
<svg width="48px" height="48px" viewBox="0 0 48 48" version="1.1" xmlns="http://www.w3.org/2000/svg" xmlns:xlink="http://www.w3.org/1999/xlink">
    <title>Icon-Resource/Database/Res_Amazon-RDS_Blue-Green-Deployments_48_Dark</title>
    <g id="Icon-Resource/Database/Res_Amazon-RDS_Blue-Green-Deployments_48" stroke="none" stroke-width="1" fill="none" fill-rule="evenodd">
        <path transform="translate(0vw, 0vh), scale(.65)" d="M35.8506,24.326 L32.0576,28.119 L30.6436,26.705 L35.1436,22.205 C35.5346,21.814 36.1666,21.814 36.5576,22.205 L41.0576,26.705 L39.6436,28.119 L35.8506,24.326 Z M30.6436,31.705 L35.1436,27.205 C35.5346,26.814 36.1666,26.814 36.5576,27.205 L41.0576,31.705 L39.6436,33.119 L35.8506,29.326 L32.0576,33.119 L30.6436,31.705 Z M27.8106,28.057 L24.9336,30.934 L23.5196,29.52 L24.6686,28.37 L16.0176,28.37 L16.0176,26.37 L24.7096,26.37 L23.5196,25.18 L24.9336,23.766 L27.8106,26.643 C27.9976,26.83 28.1036,27.085 28.1036,27.35 C28.1036,27.615 27.9976,27.869 27.8106,28.057 L27.8106,28.057 Z M35.7816,15.592 C31.1286,15.592 28.0036,14.146 28.0036,12.796 C28.0036,11.446 31.1286,10 35.7816,10 C40.9016,10 44.0456,11.629 44.0456,12.796 C44.0456,13.964 40.9016,15.592 35.7816,15.592 L35.7816,15.592 Z M46.0456,12.796 C46.0456,9.647 40.8816,8 35.7816,8 C29.9336,8 26.0036,9.928 26.0036,12.796 C26.0036,12.873 26.0176,12.946 26.0236,13.021 L26.0176,13.021 L26.0176,21.37 L28.0176,21.37 L28.0176,15.888 C29.7316,16.961 32.4416,17.592 35.7816,17.592 C38.9056,17.592 42.0466,16.971 44.0176,15.769 L44.0176,36.052 C44.0176,37.185 41.0816,38.824 35.7746,38.824 C30.9836,38.824 28.0176,37.385 28.0176,36.052 L28.0176,33.37 L26.0176,33.37 L26.0176,36.052 C26.0176,38.906 29.9386,40.824 35.7746,40.824 C40.7076,40.824 46.0176,39.33 46.0176,36.052 L46.0176,13.07 C46.0266,12.979 46.0456,12.89 46.0456,12.796 L46.0456,12.796 Z M12.2596,10 C16.9096,10 20.0326,11.446 20.0326,12.796 C20.0326,14.146 16.9096,15.592 12.2596,15.592 C7.1426,15.592 3.9996,13.964 3.9996,12.796 C3.9996,11.629 7.1426,10 12.2596,10 L12.2596,10 Z M20.0176,36.052 C20.0176,37.385 17.0516,38.824 12.2606,38.824 C6.9536,38.824 4.0176,37.185 4.0176,36.052 L4.0176,31.488 C6.0196,32.721 9.2596,33.302 12.3536,33.302 L12.3536,31.302 C7.2086,31.302 4.0506,29.685 4.0506,28.526 L4.0176,28.526 L4.0176,23.923 C6.0196,25.156 9.2596,25.737 12.3536,25.737 L12.3536,23.737 C7.2086,23.737 4.0506,22.12 4.0506,20.961 L4.0176,20.961 L4.0176,15.763 C5.9866,16.969 9.1326,17.592 12.2596,17.592 C15.5966,17.592 18.3046,16.962 20.0176,15.889 L20.0176,21.37 L22.0176,21.37 L22.0176,13.084 L22.0076,13.084 C22.0166,12.988 22.0326,12.894 22.0326,12.796 C22.0326,9.928 18.1046,8 12.2596,8 C7.1616,8 1.9996,9.647 1.9996,12.796 C1.9996,12.855 2.0136,12.909 2.0176,12.966 L2.0176,36.052 C2.0176,39.33 7.3276,40.824 12.2606,40.824 C18.0966,40.824 22.0176,38.906 22.0176,36.052 L22.0176,33.37 L20.0176,33.37 L20.0176,36.052 Z" id="Fill-1" fill="#000000"></path>
    </g><g id="svgGroup" stroke-linecap="round" fill-rule="evenodd" font-size="9pt" stroke="#000" stroke-width="0.25mm" fill="#000" style="stroke:#000;stroke-width:0.25mm;fill:#000"><path d="M 15.693 2.202 L 14.845 2.202 A 1.466 1.466 0 0 0 14.795 1.809 A 1.066 1.066 0 0 0 14.476 1.29 A 1.211 1.211 0 0 0 14.006 1.033 Q 13.755 0.958 13.434 0.958 A 2.286 2.286 0 0 0 13.054 0.988 Q 12.852 1.022 12.69 1.095 A 1.101 1.101 0 0 0 12.461 1.233 A 0.892 0.892 0 0 0 12.116 1.887 A 1.267 1.267 0 0 0 12.111 1.995 A 0.806 0.806 0 0 0 12.379 2.6 A 1.134 1.134 0 0 0 12.443 2.656 A 1.562 1.562 0 0 0 12.681 2.813 Q 13.012 2.993 13.573 3.151 A 8.228 8.228 0 0 1 14.037 3.295 Q 14.272 3.377 14.467 3.464 A 3.297 3.297 0 0 1 14.821 3.645 A 2.342 2.342 0 0 1 15.159 3.889 Q 15.349 4.056 15.471 4.248 A 1.45 1.45 0 0 1 15.489 4.276 A 1.498 1.498 0 0 1 15.685 4.832 A 1.948 1.948 0 0 1 15.706 5.124 A 1.606 1.606 0 0 1 15.584 5.76 Q 15.438 6.101 15.12 6.354 A 1.886 1.886 0 0 1 15.1 6.37 Q 14.493 6.838 13.478 6.838 A 3.023 3.023 0 0 1 12.337 6.623 A 2.917 2.917 0 0 1 12.248 6.585 A 2.383 2.383 0 0 1 11.769 6.307 A 1.874 1.874 0 0 1 11.366 5.893 A 1.689 1.689 0 0 1 11.057 4.896 L 11.905 4.896 A 1.261 1.261 0 0 0 11.974 5.323 A 1.074 1.074 0 0 0 12.333 5.812 Q 12.718 6.113 13.334 6.144 A 2.87 2.87 0 0 0 13.478 6.148 A 2.628 2.628 0 0 0 13.865 6.121 Q 14.061 6.092 14.22 6.031 A 1.129 1.129 0 0 0 14.502 5.875 Q 14.858 5.603 14.858 5.133 A 1.074 1.074 0 0 0 14.815 4.822 A 0.816 0.816 0 0 0 14.528 4.406 Q 14.199 4.148 13.333 3.898 Q 12.248 3.586 11.753 3.131 Q 11.259 2.676 11.259 2.008 Q 11.259 1.252 11.863 0.758 A 2.121 2.121 0 0 1 12.753 0.335 A 3.087 3.087 0 0 1 13.434 0.264 A 2.913 2.913 0 0 1 14.094 0.336 A 2.372 2.372 0 0 1 14.61 0.519 A 2.051 2.051 0 0 1 15.141 0.889 A 1.834 1.834 0 0 1 15.409 1.222 A 1.798 1.798 0 0 1 15.693 2.202 Z M 3.74 6.75 L 2.351 4.162 L 0.848 4.162 L 0.848 6.75 L 0 6.75 L 0 0.352 L 2.118 0.352 A 3.809 3.809 0 0 1 2.76 0.402 Q 3.102 0.461 3.376 0.587 A 1.789 1.789 0 0 1 3.781 0.844 A 1.588 1.588 0 0 1 4.307 1.732 A 2.453 2.453 0 0 1 4.364 2.276 A 1.864 1.864 0 0 1 4.273 2.868 A 1.64 1.64 0 0 1 4.041 3.318 A 1.849 1.849 0 0 1 3.382 3.875 A 2.342 2.342 0 0 1 3.142 3.981 L 4.645 6.697 L 4.645 6.75 L 3.74 6.75 Z M 29.628 6.75 L 29.61 6.28 A 1.526 1.526 0 0 1 28.784 6.775 Q 28.534 6.836 28.237 6.838 A 2.996 2.996 0 0 1 28.217 6.838 A 2.086 2.086 0 0 1 27.757 6.79 Q 27.327 6.693 27.059 6.396 A 1.41 1.41 0 0 1 26.776 5.899 Q 26.66 5.556 26.657 5.089 L 26.657 1.995 L 27.47 1.995 L 27.47 5.067 Q 27.47 6.037 28.178 6.137 A 1.229 1.229 0 0 0 28.349 6.148 A 1.927 1.927 0 0 0 28.8 6.099 Q 29.362 5.964 29.588 5.454 L 29.588 1.995 L 30.401 1.995 L 30.401 6.75 L 29.628 6.75 Z M 31.43 4.504 L 31.43 4.355 A 3.17 3.17 0 0 1 31.506 3.646 A 2.581 2.581 0 0 1 31.7 3.092 A 2.191 2.191 0 0 1 32.147 2.466 A 2.033 2.033 0 0 1 32.456 2.221 Q 32.941 1.907 33.508 1.907 A 2.254 2.254 0 0 1 34.121 1.986 A 1.639 1.639 0 0 1 34.95 2.518 Q 35.464 3.129 35.464 4.267 L 35.464 4.605 L 32.243 4.605 A 2.111 2.111 0 0 0 32.314 5.114 A 1.516 1.516 0 0 0 32.654 5.741 A 1.282 1.282 0 0 0 33.588 6.173 A 1.652 1.652 0 0 0 33.653 6.174 A 1.763 1.763 0 0 0 33.981 6.145 Q 34.205 6.103 34.383 5.999 A 1.827 1.827 0 0 0 34.892 5.551 A 2.068 2.068 0 0 0 34.906 5.533 L 35.402 5.919 A 1.926 1.926 0 0 1 34.003 6.811 A 2.749 2.749 0 0 1 33.609 6.838 A 2.394 2.394 0 0 1 32.858 6.725 A 1.974 1.974 0 0 1 32.036 6.203 Q 31.43 5.568 31.43 4.504 Z M 21.234 6.75 L 19.015 6.75 L 19.015 0.352 L 21.107 0.352 A 4.031 4.031 0 0 1 21.68 0.39 Q 21.973 0.432 22.209 0.521 A 1.629 1.629 0 0 1 22.674 0.782 A 1.383 1.383 0 0 1 23.145 1.558 A 2.164 2.164 0 0 1 23.199 2.057 A 1.3 1.3 0 0 1 22.944 2.85 A 1.589 1.589 0 0 1 22.433 3.294 A 1.972 1.972 0 0 1 22.25 3.384 A 1.571 1.571 0 0 1 22.764 3.63 A 1.446 1.446 0 0 1 23.069 3.935 A 1.531 1.531 0 0 1 23.361 4.713 A 1.961 1.961 0 0 1 23.37 4.904 A 2.139 2.139 0 0 1 23.295 5.487 A 1.577 1.577 0 0 1 22.812 6.258 A 1.832 1.832 0 0 1 22.12 6.633 Q 21.853 6.713 21.535 6.739 A 3.81 3.81 0 0 1 21.234 6.75 Z M 7.317 6.75 L 5.546 6.75 L 5.546 0.352 L 7.352 0.352 Q 8.187 0.352 8.829 0.721 Q 9.47 1.09 9.82 1.771 A 3.19 3.19 0 0 1 10.136 2.8 A 4.073 4.073 0 0 1 10.173 3.335 L 10.173 3.744 Q 10.173 4.649 9.824 5.331 A 2.457 2.457 0 0 1 8.826 6.376 Q 8.178 6.741 7.317 6.75 Z M 25.374 0 L 25.374 6.75 L 24.561 6.75 L 24.561 0 L 25.374 0 Z M 7.374 1.046 L 6.39 1.046 L 6.39 6.06 L 7.277 6.06 A 2.519 2.519 0 0 0 7.91 5.985 A 1.747 1.747 0 0 0 8.796 5.454 Q 9.255 4.94 9.326 4.059 A 4.165 4.165 0 0 0 9.338 3.727 L 9.338 3.353 Q 9.338 2.562 9.069 2.027 A 1.864 1.864 0 0 0 8.826 1.659 A 1.687 1.687 0 0 0 7.83 1.09 A 2.499 2.499 0 0 0 7.374 1.046 Z M 0.848 1.046 L 0.848 3.472 L 2.145 3.472 Q 2.685 3.472 3.035 3.231 A 1.174 1.174 0 0 0 3.144 3.146 A 1.069 1.069 0 0 0 3.51 2.409 A 1.486 1.486 0 0 0 3.516 2.276 Q 3.516 1.734 3.22 1.423 A 1 1 0 0 0 3.162 1.367 Q 2.808 1.05 2.14 1.046 L 0.848 1.046 Z M 21.265 3.757 L 19.859 3.757 L 19.859 6.06 L 21.252 6.06 A 1.84 1.84 0 0 0 21.627 6.024 Q 21.868 5.974 22.051 5.854 A 1.064 1.064 0 0 0 22.181 5.755 A 1.003 1.003 0 0 0 22.503 5.154 A 1.459 1.459 0 0 0 22.522 4.913 Q 22.522 4.007 21.75 3.811 A 1.977 1.977 0 0 0 21.266 3.757 Z M 19.859 1.046 L 19.859 3.081 L 21.133 3.081 Q 21.687 3.081 22.019 2.804 A 0.905 0.905 0 0 0 22.347 2.154 A 1.27 1.27 0 0 0 22.351 2.052 Q 22.351 1.696 22.21 1.471 A 0.71 0.71 0 0 0 22.043 1.285 A 0.969 0.969 0 0 0 21.757 1.136 Q 21.494 1.047 21.113 1.046 A 3.261 3.261 0 0 0 21.107 1.046 L 19.859 1.046 Z M 32.269 3.938 L 34.651 3.938 L 34.651 3.876 Q 34.625 3.417 34.454 3.111 A 1.13 1.13 0 0 0 34.317 2.916 A 0.983 0.983 0 0 0 33.662 2.584 A 1.39 1.39 0 0 0 33.508 2.575 A 1.106 1.106 0 0 0 32.986 2.698 A 1.14 1.14 0 0 0 32.682 2.933 A 1.417 1.417 0 0 0 32.405 3.379 Q 32.332 3.563 32.292 3.785 A 2.741 2.741 0 0 0 32.269 3.938 Z" vector-effect="non-scaling-stroke"/></g><g transform="translate(22.268, 64), scale(0.75)" id="svgGroup" stroke-linecap="round" fill-rule="evenodd" font-size="9pt" stroke="#000" stroke-width="0.25mm" fill="#000" style="stroke:#000;stroke-width:0.25mm;fill:#000"><path d="M 53.126 1.995 L 53.895 1.995 L 53.917 2.522 Q 54.44 1.907 55.327 1.907 A 2.009 2.009 0 0 1 55.838 1.968 A 1.244 1.244 0 0 1 56.685 2.672 A 1.801 1.801 0 0 1 57.303 2.118 A 1.65 1.65 0 0 1 57.832 1.937 A 2.209 2.209 0 0 1 58.201 1.907 A 2.119 2.119 0 0 1 58.845 1.997 Q 59.772 2.292 59.792 3.564 L 59.792 6.75 L 58.979 6.75 L 58.979 3.612 A 1.781 1.781 0 0 0 58.959 3.332 Q 58.935 3.185 58.884 3.067 A 0.758 0.758 0 0 0 58.746 2.85 A 0.68 0.68 0 0 0 58.493 2.682 Q 58.282 2.597 57.965 2.597 A 1.245 1.245 0 0 0 57.599 2.648 A 1.008 1.008 0 0 0 57.212 2.867 A 1.042 1.042 0 0 0 56.898 3.404 A 1.41 1.41 0 0 0 56.865 3.595 L 56.865 6.75 L 56.048 6.75 L 56.048 3.634 A 1.532 1.532 0 0 0 55.999 3.23 Q 55.873 2.768 55.415 2.643 A 1.457 1.457 0 0 0 55.033 2.597 Q 54.259 2.597 53.958 3.234 A 1.459 1.459 0 0 0 53.939 3.278 L 53.939 6.75 L 53.126 6.75 L 53.126 1.995 Z M 4.931 3.564 L 4.931 5.911 A 1.895 1.895 0 0 1 4.207 6.525 A 2.364 2.364 0 0 1 4.023 6.607 A 3.162 3.162 0 0 1 3.351 6.787 Q 3.04 6.836 2.69 6.838 A 5.148 5.148 0 0 1 2.668 6.838 A 2.838 2.838 0 0 1 1.845 6.722 A 2.459 2.459 0 0 1 1.279 6.471 A 2.43 2.43 0 0 1 0.372 5.49 A 2.924 2.924 0 0 1 0.341 5.427 A 3.277 3.277 0 0 1 0.052 4.497 A 4.307 4.307 0 0 1 0 3.858 L 0 3.3 Q 0 1.854 0.675 1.059 A 2.198 2.198 0 0 1 2.028 0.307 A 3.227 3.227 0 0 1 2.571 0.264 Q 3.573 0.264 4.184 0.776 A 2.047 2.047 0 0 1 4.806 1.701 A 2.896 2.896 0 0 1 4.931 2.228 L 4.087 2.228 Q 3.88 1.12 2.884 0.979 A 2.195 2.195 0 0 0 2.575 0.958 A 1.917 1.917 0 0 0 2.041 1.028 A 1.386 1.386 0 0 0 1.29 1.553 A 1.986 1.986 0 0 0 1.006 2.125 Q 0.919 2.396 0.88 2.726 A 4.871 4.871 0 0 0 0.848 3.278 L 0.848 3.801 A 3.827 3.827 0 0 0 0.906 4.489 Q 1.017 5.096 1.34 5.513 A 1.569 1.569 0 0 0 2.48 6.139 A 2.069 2.069 0 0 0 2.672 6.148 Q 3.105 6.148 3.439 6.06 A 2.106 2.106 0 0 0 3.503 6.042 A 1.357 1.357 0 0 0 3.891 5.86 A 1.217 1.217 0 0 0 4.091 5.687 L 4.091 4.25 L 2.61 4.25 L 2.61 3.564 L 4.931 3.564 Z M 109.723 6.75 L 108.066 4.548 L 107.556 5.08 L 107.556 6.75 L 106.743 6.75 L 106.743 0 L 107.556 0 L 107.556 4.083 L 107.991 3.56 L 109.472 1.995 L 110.461 1.995 L 108.611 3.981 L 110.676 6.75 L 109.723 6.75 Z M 77.23 3.393 L 76.412 3.393 Q 76.412 3.059 76.129 2.817 Q 75.845 2.575 75.415 2.575 Q 74.971 2.575 74.72 2.769 A 0.653 0.653 0 0 0 74.545 2.967 Q 74.472 3.098 74.47 3.263 A 0.771 0.771 0 0 0 74.47 3.274 A 0.588 0.588 0 0 0 74.5 3.467 A 0.48 0.48 0 0 0 74.703 3.718 A 1.093 1.093 0 0 0 74.853 3.796 Q 75.017 3.868 75.273 3.937 A 6.581 6.581 0 0 0 75.544 4.003 A 6.318 6.318 0 0 1 75.952 4.108 Q 76.289 4.208 76.531 4.329 A 1.901 1.901 0 0 1 76.787 4.481 Q 76.924 4.579 77.021 4.692 A 1.06 1.06 0 0 1 77.091 4.783 A 1.024 1.024 0 0 1 77.253 5.191 A 1.388 1.388 0 0 1 77.274 5.432 Q 77.274 6.069 76.764 6.453 Q 76.281 6.817 75.527 6.837 A 3.337 3.337 0 0 1 75.441 6.838 A 2.746 2.746 0 0 1 74.907 6.788 A 2.124 2.124 0 0 1 74.43 6.636 A 1.771 1.771 0 0 1 73.996 6.358 A 1.54 1.54 0 0 1 73.743 6.071 Q 73.494 5.708 73.494 5.287 L 74.307 5.287 A 0.932 0.932 0 0 0 74.381 5.612 A 0.827 0.827 0 0 0 74.635 5.935 A 1.072 1.072 0 0 0 75.037 6.128 Q 75.191 6.167 75.373 6.173 A 2.013 2.013 0 0 0 75.441 6.174 A 1.863 1.863 0 0 0 75.737 6.152 Q 75.898 6.126 76.03 6.07 A 0.941 0.941 0 0 0 76.181 5.988 A 0.689 0.689 0 0 0 76.346 5.837 A 0.554 0.554 0 0 0 76.461 5.489 A 0.698 0.698 0 0 0 76.424 5.258 A 0.581 0.581 0 0 0 76.212 4.977 A 1.05 1.05 0 0 0 76.043 4.878 Q 75.855 4.788 75.56 4.712 A 5.392 5.392 0 0 0 75.347 4.663 A 6.342 6.342 0 0 1 74.986 4.575 Q 74.616 4.473 74.367 4.346 Q 74.068 4.194 73.897 3.994 A 1.017 1.017 0 0 1 73.83 3.907 Q 73.657 3.652 73.657 3.3 A 1.206 1.206 0 0 1 74.056 2.396 A 1.694 1.694 0 0 1 74.151 2.312 A 1.752 1.752 0 0 1 74.934 1.952 A 2.471 2.471 0 0 1 75.415 1.907 A 2.559 2.559 0 0 1 75.978 1.966 A 1.757 1.757 0 0 1 76.726 2.325 Q 77.23 2.742 77.23 3.393 Z M 49.241 1.995 L 50.427 5.559 L 51.535 1.995 L 52.405 1.995 L 50.493 7.484 Q 50.049 8.67 49.083 8.67 L 48.929 8.657 L 48.626 8.6 L 48.626 7.941 L 48.845 7.958 Q 49.125 7.958 49.321 7.882 A 0.75 0.75 0 0 0 49.489 7.792 A 0.749 0.749 0 0 0 49.649 7.629 Q 49.767 7.47 49.857 7.215 A 2.575 2.575 0 0 0 49.869 7.181 L 50.049 6.697 L 48.353 1.995 L 49.241 1.995 Z M 18.708 1.995 L 19.477 1.995 L 19.503 2.593 Q 20.039 1.918 20.899 1.907 A 2.234 2.234 0 0 1 20.927 1.907 A 1.905 1.905 0 0 1 21.56 2.004 Q 22.402 2.3 22.445 3.506 A 3.668 3.668 0 0 1 22.447 3.608 L 22.447 6.75 L 21.634 6.75 L 21.634 3.604 A 1.837 1.837 0 0 0 21.612 3.324 Q 21.562 3.017 21.399 2.843 Q 21.213 2.645 20.86 2.606 A 1.66 1.66 0 0 0 20.681 2.597 A 1.253 1.253 0 0 0 20.266 2.664 A 1.123 1.123 0 0 0 19.986 2.808 A 1.432 1.432 0 0 0 19.521 3.362 L 19.521 6.75 L 18.708 6.75 L 18.708 1.995 Z M 65.786 1.995 L 66.555 1.995 L 66.582 2.593 Q 67.118 1.918 67.978 1.907 A 2.234 2.234 0 0 1 68.005 1.907 A 1.905 1.905 0 0 1 68.639 2.004 Q 69.481 2.3 69.524 3.506 A 3.668 3.668 0 0 1 69.526 3.608 L 69.526 6.75 L 68.713 6.75 L 68.713 3.604 A 1.837 1.837 0 0 0 68.691 3.324 Q 68.641 3.017 68.478 2.843 Q 68.292 2.645 67.938 2.606 A 1.66 1.66 0 0 0 67.759 2.597 A 1.253 1.253 0 0 0 67.345 2.664 A 1.123 1.123 0 0 0 67.065 2.808 A 1.432 1.432 0 0 0 66.599 3.362 L 66.599 6.75 L 65.786 6.75 L 65.786 1.995 Z M 102.586 6.75 L 101.733 6.75 A 0.632 0.632 0 0 1 101.698 6.66 Q 101.667 6.562 101.642 6.41 A 3.997 3.997 0 0 1 101.619 6.249 Q 101.052 6.838 100.266 6.838 A 2.033 2.033 0 0 1 99.736 6.772 A 1.529 1.529 0 0 1 99.112 6.44 Q 98.662 6.042 98.662 5.432 Q 98.662 4.689 99.226 4.278 Q 99.791 3.867 100.815 3.867 L 101.606 3.867 L 101.606 3.494 A 1.152 1.152 0 0 0 101.57 3.199 A 0.828 0.828 0 0 0 101.351 2.815 Q 101.135 2.6 100.745 2.568 A 1.748 1.748 0 0 0 100.6 2.562 Q 100.165 2.562 99.87 2.782 Q 99.576 3.001 99.576 3.313 L 98.758 3.313 A 1.041 1.041 0 0 1 98.883 2.825 A 1.409 1.409 0 0 1 99.011 2.626 Q 99.264 2.294 99.697 2.101 A 2.249 2.249 0 0 1 100.472 1.913 A 2.669 2.669 0 0 1 100.648 1.907 A 2.65 2.65 0 0 1 101.165 1.955 Q 101.473 2.016 101.712 2.156 A 1.439 1.439 0 0 1 101.936 2.318 A 1.396 1.396 0 0 1 102.389 3.144 A 1.998 1.998 0 0 1 102.419 3.45 L 102.419 5.638 Q 102.419 6.073 102.493 6.39 A 1.707 1.707 0 0 0 102.586 6.68 L 102.586 6.75 Z M 40.588 4.351 L 40.588 4.425 Q 40.588 5.511 40.091 6.174 A 1.57 1.57 0 0 1 38.953 6.828 A 2.013 2.013 0 0 1 38.747 6.838 A 2.196 2.196 0 0 1 38.161 6.764 A 1.598 1.598 0 0 1 37.384 6.289 L 37.384 8.578 L 36.571 8.578 L 36.571 1.995 L 37.314 1.995 L 37.354 2.522 A 1.619 1.619 0 0 1 38.493 1.919 A 2.319 2.319 0 0 1 38.733 1.907 A 1.829 1.829 0 0 1 39.371 2.014 A 1.597 1.597 0 0 1 40.089 2.553 Q 40.588 3.199 40.588 4.351 Z M 8.965 4.504 L 8.965 4.355 A 3.17 3.17 0 0 1 9.041 3.646 A 2.581 2.581 0 0 1 9.235 3.092 A 2.191 2.191 0 0 1 9.683 2.466 A 2.033 2.033 0 0 1 9.991 2.221 Q 10.477 1.907 11.044 1.907 A 2.254 2.254 0 0 1 11.657 1.986 A 1.639 1.639 0 0 1 12.485 2.518 Q 12.999 3.129 12.999 4.267 L 12.999 4.605 L 9.778 4.605 A 2.111 2.111 0 0 0 9.849 5.114 A 1.516 1.516 0 0 0 10.189 5.741 A 1.282 1.282 0 0 0 11.123 6.173 A 1.652 1.652 0 0 0 11.189 6.174 A 1.763 1.763 0 0 0 11.517 6.145 Q 11.741 6.103 11.918 5.999 A 1.827 1.827 0 0 0 12.427 5.551 A 2.068 2.068 0 0 0 12.441 5.533 L 12.938 5.919 A 1.926 1.926 0 0 1 11.538 6.811 A 2.749 2.749 0 0 1 11.145 6.838 A 2.394 2.394 0 0 1 10.393 6.725 A 1.974 1.974 0 0 1 9.571 6.203 Q 8.965 5.568 8.965 4.504 Z M 13.733 4.504 L 13.733 4.355 A 3.17 3.17 0 0 1 13.809 3.646 A 2.581 2.581 0 0 1 14.003 3.092 A 2.191 2.191 0 0 1 14.451 2.466 A 2.033 2.033 0 0 1 14.759 2.221 Q 15.245 1.907 15.812 1.907 A 2.254 2.254 0 0 1 16.425 1.986 A 1.639 1.639 0 0 1 17.253 2.518 Q 17.767 3.129 17.767 4.267 L 17.767 4.605 L 14.546 4.605 A 2.111 2.111 0 0 0 14.617 5.114 A 1.516 1.516 0 0 0 14.957 5.741 A 1.282 1.282 0 0 0 15.891 6.173 A 1.652 1.652 0 0 0 15.957 6.174 A 1.763 1.763 0 0 0 16.285 6.145 Q 16.509 6.103 16.686 5.999 A 1.827 1.827 0 0 0 17.195 5.551 A 2.068 2.068 0 0 0 17.209 5.533 L 17.706 5.919 A 1.926 1.926 0 0 1 16.306 6.811 A 2.749 2.749 0 0 1 15.913 6.838 A 2.394 2.394 0 0 1 15.161 6.725 A 1.974 1.974 0 0 1 14.339 6.203 Q 13.733 5.568 13.733 4.504 Z M 31.597 4.504 L 31.597 4.355 A 3.17 3.17 0 0 1 31.673 3.646 A 2.581 2.581 0 0 1 31.867 3.092 A 2.191 2.191 0 0 1 32.314 2.466 A 2.033 2.033 0 0 1 32.623 2.221 Q 33.108 1.907 33.675 1.907 A 2.254 2.254 0 0 1 34.288 1.986 A 1.639 1.639 0 0 1 35.117 2.518 Q 35.631 3.129 35.631 4.267 L 35.631 4.605 L 32.41 4.605 A 2.111 2.111 0 0 0 32.481 5.114 A 1.516 1.516 0 0 0 32.821 5.741 A 1.282 1.282 0 0 0 33.755 6.173 A 1.652 1.652 0 0 0 33.82 6.174 A 1.763 1.763 0 0 0 34.149 6.145 Q 34.372 6.103 34.55 5.999 A 1.827 1.827 0 0 0 35.059 5.551 A 2.068 2.068 0 0 0 35.073 5.533 L 35.569 5.919 A 1.926 1.926 0 0 1 34.17 6.811 A 2.749 2.749 0 0 1 33.776 6.838 A 2.394 2.394 0 0 1 33.025 6.725 A 1.974 1.974 0 0 1 32.203 6.203 Q 31.597 5.568 31.597 4.504 Z M 60.812 4.504 L 60.812 4.355 A 3.17 3.17 0 0 1 60.888 3.646 A 2.581 2.581 0 0 1 61.082 3.092 A 2.191 2.191 0 0 1 61.529 2.466 A 2.033 2.033 0 0 1 61.838 2.221 Q 62.323 1.907 62.89 1.907 A 2.254 2.254 0 0 1 63.503 1.986 A 1.639 1.639 0 0 1 64.332 2.518 Q 64.846 3.129 64.846 4.267 L 64.846 4.605 L 61.625 4.605 A 2.111 2.111 0 0 0 61.696 5.114 A 1.516 1.516 0 0 0 62.035 5.741 A 1.282 1.282 0 0 0 62.97 6.173 A 1.652 1.652 0 0 0 63.035 6.174 A 1.763 1.763 0 0 0 63.363 6.145 Q 63.587 6.103 63.765 5.999 A 1.827 1.827 0 0 0 64.274 5.551 A 2.068 2.068 0 0 0 64.288 5.533 L 64.784 5.919 A 1.926 1.926 0 0 1 63.385 6.811 A 2.749 2.749 0 0 1 62.991 6.838 A 2.394 2.394 0 0 1 62.24 6.725 A 1.974 1.974 0 0 1 61.418 6.203 Q 60.812 5.568 60.812 4.504 Z M 83.909 0.352 L 83.909 4.601 L 84.797 4.601 L 84.797 5.265 L 83.909 5.265 L 83.909 6.75 L 83.092 6.75 L 83.092 5.265 L 80.178 5.265 L 80.178 4.786 L 83.044 0.352 L 83.909 0.352 Z M 27.8 6.75 L 26.029 6.75 L 26.029 0.352 L 27.835 0.352 Q 28.67 0.352 29.312 0.721 Q 29.953 1.09 30.303 1.771 A 3.19 3.19 0 0 1 30.619 2.8 A 4.073 4.073 0 0 1 30.656 3.335 L 30.656 3.744 Q 30.656 4.649 30.307 5.331 A 2.457 2.457 0 0 1 29.309 6.376 Q 28.661 6.741 27.8 6.75 Z M 94.795 6.75 L 93.024 6.75 L 93.024 0.352 L 94.83 0.352 Q 95.665 0.352 96.306 0.721 Q 96.948 1.09 97.297 1.771 A 3.19 3.19 0 0 1 97.614 2.8 A 4.073 4.073 0 0 1 97.651 3.335 L 97.651 3.744 Q 97.651 4.649 97.302 5.331 A 2.457 2.457 0 0 1 96.304 6.376 Q 95.656 6.741 94.795 6.75 Z M 89.308 2.592 A 1.544 1.544 0 0 0 89.411 2.021 A 2.226 2.226 0 0 0 89.39 1.707 A 1.566 1.566 0 0 0 88.89 0.738 A 1.754 1.754 0 0 0 88.125 0.333 A 2.443 2.443 0 0 0 87.526 0.264 A 2.539 2.539 0 0 0 87.016 0.312 A 1.767 1.767 0 0 0 86.159 0.738 Q 85.641 1.213 85.641 2.021 A 1.808 1.808 0 0 0 85.641 2.058 A 1.499 1.499 0 0 0 85.887 2.87 A 1.626 1.626 0 0 0 86.049 3.077 A 1.726 1.726 0 0 0 86.559 3.454 A 2.119 2.119 0 0 0 86.46 3.5 A 1.738 1.738 0 0 0 85.775 4.087 A 1.629 1.629 0 0 0 85.491 5.023 A 2.272 2.272 0 0 0 85.501 5.237 A 1.63 1.63 0 0 0 86.047 6.344 A 1.895 1.895 0 0 0 86.898 6.771 A 2.797 2.797 0 0 0 87.526 6.838 A 2.796 2.796 0 0 0 88.125 6.777 A 1.925 1.925 0 0 0 89 6.346 A 1.578 1.578 0 0 0 89.475 5.62 A 1.989 1.989 0 0 0 89.561 5.023 A 1.581 1.581 0 0 0 89.268 4.087 Q 88.976 3.674 88.475 3.458 Q 88.906 3.248 89.159 2.874 A 1.449 1.449 0 0 0 89.308 2.592 Z M 71.042 0.844 L 71.855 0.844 L 71.855 1.995 L 72.743 1.995 L 72.743 2.624 L 71.855 2.624 L 71.855 5.572 Q 71.855 5.858 71.974 6.001 Q 72.092 6.144 72.378 6.144 A 1.046 1.046 0 0 0 72.476 6.138 Q 72.578 6.129 72.718 6.101 A 4.024 4.024 0 0 0 72.765 6.091 L 72.765 6.75 A 2.463 2.463 0 0 1 72.332 6.829 A 2.157 2.157 0 0 1 72.141 6.838 Q 71.694 6.838 71.427 6.616 A 0.856 0.856 0 0 1 71.319 6.508 Q 71.092 6.238 71.051 5.78 A 2.351 2.351 0 0 1 71.042 5.572 L 71.042 2.624 L 70.176 2.624 L 70.176 1.995 L 71.042 1.995 L 71.042 0.844 Z M 42.504 0 L 42.504 6.75 L 41.691 6.75 L 41.691 0 L 42.504 0 Z M 43.589 4.386 L 43.589 4.329 A 3.057 3.057 0 0 1 43.676 3.587 A 2.573 2.573 0 0 1 43.864 3.072 A 2.16 2.16 0 0 1 44.279 2.486 A 1.957 1.957 0 0 1 44.629 2.21 A 2.036 2.036 0 0 1 45.573 1.913 A 2.491 2.491 0 0 1 45.747 1.907 A 2.277 2.277 0 0 1 46.501 2.027 A 1.937 1.937 0 0 1 47.318 2.58 A 2.29 2.29 0 0 1 47.837 3.608 A 3.373 3.373 0 0 1 47.918 4.368 L 47.918 4.425 A 3.114 3.114 0 0 1 47.839 5.142 A 2.577 2.577 0 0 1 47.652 5.671 A 2.056 2.056 0 0 1 47.125 6.361 A 2.001 2.001 0 0 1 46.892 6.53 A 2.045 2.045 0 0 1 45.972 6.829 A 2.529 2.529 0 0 1 45.756 6.838 A 2.262 2.262 0 0 1 45.006 6.718 A 1.938 1.938 0 0 1 44.189 6.166 A 2.297 2.297 0 0 1 43.664 5.111 A 3.357 3.357 0 0 1 43.589 4.386 Z M 8.508 1.969 L 8.508 2.725 A 2.251 2.251 0 0 0 8.265 2.698 A 2.782 2.782 0 0 0 8.108 2.694 Q 7.33 2.694 7.039 3.338 A 1.445 1.445 0 0 0 7.023 3.375 L 7.023 6.75 L 6.21 6.75 L 6.21 1.995 L 7.001 1.995 L 7.014 2.544 Q 7.394 1.938 8.077 1.909 A 1.636 1.636 0 0 1 8.148 1.907 Q 8.385 1.907 8.508 1.969 Z M 105.992 1.969 L 105.992 2.725 A 2.251 2.251 0 0 0 105.749 2.698 A 2.782 2.782 0 0 0 105.592 2.694 Q 104.814 2.694 104.523 3.338 A 1.445 1.445 0 0 0 104.506 3.375 L 104.506 6.75 L 103.693 6.75 L 103.693 1.995 L 104.484 1.995 L 104.498 2.544 Q 104.878 1.938 105.561 1.909 A 1.636 1.636 0 0 1 105.631 1.907 Q 105.869 1.907 105.992 1.969 Z M 27.857 1.046 L 26.873 1.046 L 26.873 6.06 L 27.76 6.06 A 2.519 2.519 0 0 0 28.393 5.985 A 1.747 1.747 0 0 0 29.279 5.454 Q 29.738 4.94 29.809 4.059 A 4.165 4.165 0 0 0 29.821 3.727 L 29.821 3.353 Q 29.821 2.562 29.552 2.027 A 1.864 1.864 0 0 0 29.309 1.659 A 1.687 1.687 0 0 0 28.313 1.09 A 2.499 2.499 0 0 0 27.857 1.046 Z M 94.852 1.046 L 93.867 1.046 L 93.867 6.06 L 94.755 6.06 A 2.519 2.519 0 0 0 95.387 5.985 A 1.747 1.747 0 0 0 96.273 5.454 Q 96.733 4.94 96.803 4.059 A 4.165 4.165 0 0 0 96.816 3.727 L 96.816 3.353 Q 96.816 2.562 96.546 2.027 A 1.864 1.864 0 0 0 96.304 1.659 A 1.687 1.687 0 0 0 95.308 1.09 A 2.499 2.499 0 0 0 94.852 1.046 Z M 44.407 4.425 A 2.772 2.772 0 0 0 44.454 4.954 Q 44.515 5.264 44.652 5.51 A 1.545 1.545 0 0 0 44.774 5.695 Q 45.141 6.174 45.756 6.174 A 1.269 1.269 0 0 0 46.245 6.083 Q 46.525 5.967 46.727 5.706 A 1.471 1.471 0 0 0 46.74 5.689 A 1.648 1.648 0 0 0 46.995 5.171 Q 47.064 4.945 47.09 4.672 A 3.655 3.655 0 0 0 47.105 4.329 A 2.687 2.687 0 0 0 47.054 3.789 Q 46.986 3.459 46.829 3.2 A 1.586 1.586 0 0 0 46.734 3.061 A 1.231 1.231 0 0 0 46.319 2.705 Q 46.066 2.575 45.747 2.575 Q 45.157 2.575 44.791 3.035 A 1.515 1.515 0 0 0 44.776 3.054 A 1.589 1.589 0 0 0 44.524 3.552 Q 44.454 3.772 44.426 4.039 A 3.676 3.676 0 0 0 44.407 4.425 Z M 37.384 3.252 L 37.384 5.524 Q 37.749 6.174 38.501 6.174 A 1.184 1.184 0 0 0 38.966 6.086 Q 39.223 5.977 39.412 5.735 A 1.403 1.403 0 0 0 39.43 5.711 A 1.501 1.501 0 0 0 39.647 5.28 Q 39.715 5.073 39.747 4.818 A 3.91 3.91 0 0 0 39.775 4.333 Q 39.775 3.746 39.592 3.339 A 1.503 1.503 0 0 0 39.432 3.063 A 1.086 1.086 0 0 0 38.646 2.605 A 1.414 1.414 0 0 0 38.492 2.597 Q 37.831 2.597 37.466 3.121 A 1.623 1.623 0 0 0 37.384 3.252 Z M 82.995 1.639 L 81.101 4.601 L 83.092 4.601 L 83.092 1.463 L 82.995 1.639 Z M 88.748 5.005 A 1.375 1.375 0 0 0 88.688 4.592 A 1.109 1.109 0 0 0 88.407 4.131 A 1.148 1.148 0 0 0 87.736 3.807 A 1.593 1.593 0 0 0 87.517 3.792 A 1.466 1.466 0 0 0 87.128 3.841 A 1.086 1.086 0 0 0 86.636 4.126 A 1.123 1.123 0 0 0 86.323 4.762 A 1.572 1.572 0 0 0 86.304 5.005 A 1.48 1.48 0 0 0 86.346 5.367 A 1.019 1.019 0 0 0 86.627 5.862 Q 86.933 6.158 87.466 6.173 A 2.053 2.053 0 0 0 87.526 6.174 Q 88.02 6.174 88.33 5.94 A 1.018 1.018 0 0 0 88.422 5.86 A 1.041 1.041 0 0 0 88.722 5.292 A 1.518 1.518 0 0 0 88.748 5.005 Z M 87.526 0.932 A 1.259 1.259 0 0 0 87.173 0.979 A 0.973 0.973 0 0 0 86.75 1.228 Q 86.454 1.525 86.454 2.035 A 1.325 1.325 0 0 0 86.498 2.387 A 0.994 0.994 0 0 0 86.746 2.823 A 0.974 0.974 0 0 0 87.308 3.108 A 1.382 1.382 0 0 0 87.526 3.125 A 1.279 1.279 0 0 0 87.871 3.08 A 0.952 0.952 0 0 0 88.306 2.823 A 1.018 1.018 0 0 0 88.581 2.26 A 1.426 1.426 0 0 0 88.598 2.035 A 1.282 1.282 0 0 0 88.548 1.668 A 1.013 1.013 0 0 0 88.295 1.239 Q 87.992 0.932 87.526 0.932 Z M 101.606 5.418 L 101.606 4.443 L 100.969 4.443 Q 99.475 4.443 99.475 5.317 Q 99.475 5.7 99.73 5.915 A 0.893 0.893 0 0 0 100.143 6.108 A 1.259 1.259 0 0 0 100.384 6.13 A 1.429 1.429 0 0 0 101.109 5.933 A 1.335 1.335 0 0 0 101.405 5.705 A 1.108 1.108 0 0 0 101.606 5.418 Z M 9.804 3.938 L 12.186 3.938 L 12.186 3.876 Q 12.16 3.417 11.989 3.111 A 1.13 1.13 0 0 0 11.852 2.916 A 0.983 0.983 0 0 0 11.198 2.584 A 1.39 1.39 0 0 0 11.044 2.575 A 1.106 1.106 0 0 0 10.521 2.698 A 1.14 1.14 0 0 0 10.217 2.933 A 1.417 1.417 0 0 0 9.941 3.379 Q 9.867 3.563 9.827 3.785 A 2.741 2.741 0 0 0 9.804 3.938 Z M 14.572 3.938 L 16.954 3.938 L 16.954 3.876 Q 16.928 3.417 16.758 3.111 A 1.13 1.13 0 0 0 16.62 2.916 A 0.983 0.983 0 0 0 15.966 2.584 A 1.39 1.39 0 0 0 15.812 2.575 A 1.106 1.106 0 0 0 15.289 2.698 A 1.14 1.14 0 0 0 14.985 2.933 A 1.417 1.417 0 0 0 14.709 3.379 Q 14.635 3.563 14.595 3.785 A 2.741 2.741 0 0 0 14.572 3.938 Z M 32.436 3.938 L 34.818 3.938 L 34.818 3.876 Q 34.792 3.417 34.621 3.111 A 1.13 1.13 0 0 0 34.484 2.916 A 0.983 0.983 0 0 0 33.83 2.584 A 1.39 1.39 0 0 0 33.675 2.575 A 1.106 1.106 0 0 0 33.153 2.698 A 1.14 1.14 0 0 0 32.849 2.933 A 1.417 1.417 0 0 0 32.573 3.379 Q 32.499 3.563 32.459 3.785 A 2.741 2.741 0 0 0 32.436 3.938 Z M 61.651 3.938 L 64.033 3.938 L 64.033 3.876 Q 64.007 3.417 63.836 3.111 A 1.13 1.13 0 0 0 63.699 2.916 A 0.983 0.983 0 0 0 63.044 2.584 A 1.39 1.39 0 0 0 62.89 2.575 A 1.106 1.106 0 0 0 62.368 2.698 A 1.14 1.14 0 0 0 62.064 2.933 A 1.417 1.417 0 0 0 61.787 3.379 Q 61.714 3.563 61.674 3.785 A 2.741 2.741 0 0 0 61.651 3.938 Z" vector-effect="non-scaling-stroke"/></g>
</svgversion="1.0" encoding="UTF-8"?>
<svg width="48px" height="48px" viewBox="0 0 48 48" version="1.1" xmlns="http://www.w3.org/2000/svg" xmlns:xlink="http://www.w3.org/1999/xlink">
    <title>Icon-Resource/Database/Res_Amazon-RDS_Blue-Green-Deployments_48_Dark</title>
    <g id="Icon-Resource/Database/Res_Amazon-RDS_Blue-Green-Deployments_48" stroke="none" stroke-width="1" fill="none" fill-rule="evenodd">
        <path transform="translate(0vw, 0vh), scale(.65)" d="M35.8506,24.326 L32.0576,28.119 L30.6436,26.705 L35.1436,22.205 C35.5346,21.814 36.1666,21.814 36.5576,22.205 L41.0576,26.705 L39.6436,28.119 L35.8506,24.326 Z M30.6436,31.705 L35.1436,27.205 C35.5346,26.814 36.1666,26.814 36.5576,27.205 L41.0576,31.705 L39.6436,33.119 L35.8506,29.326 L32.0576,33.119 L30.6436,31.705 Z M27.8106,28.057 L24.9336,30.934 L23.5196,29.52 L24.6686,28.37 L16.0176,28.37 L16.0176,26.37 L24.7096,26.37 L23.5196,25.18 L24.9336,23.766 L27.8106,26.643 C27.9976,26.83 28.1036,27.085 28.1036,27.35 C28.1036,27.615 27.9976,27.869 27.8106,28.057 L27.8106,28.057 Z M35.7816,15.592 C31.1286,15.592 28.0036,14.146 28.0036,12.796 C28.0036,11.446 31.1286,10 35.7816,10 C40.9016,10 44.0456,11.629 44.0456,12.796 C44.0456,13.964 40.9016,15.592 35.7816,15.592 L35.7816,15.592 Z M46.0456,12.796 C46.0456,9.647 40.8816,8 35.7816,8 C29.9336,8 26.0036,9.928 26.0036,12.796 C26.0036,12.873 26.0176,12.946 26.0236,13.021 L26.0176,13.021 L26.0176,21.37 L28.0176,21.37 L28.0176,15.888 C29.7316,16.961 32.4416,17.592 35.7816,17.592 C38.9056,17.592 42.0466,16.971 44.0176,15.769 L44.0176,36.052 C44.0176,37.185 41.0816,38.824 35.7746,38.824 C30.9836,38.824 28.0176,37.385 28.0176,36.052 L28.0176,33.37 L26.0176,33.37 L26.0176,36.052 C26.0176,38.906 29.9386,40.824 35.7746,40.824 C40.7076,40.824 46.0176,39.33 46.0176,36.052 L46.0176,13.07 C46.0266,12.979 46.0456,12.89 46.0456,12.796 L46.0456,12.796 Z M12.2596,10 C16.9096,10 20.0326,11.446 20.0326,12.796 C20.0326,14.146 16.9096,15.592 12.2596,15.592 C7.1426,15.592 3.9996,13.964 3.9996,12.796 C3.9996,11.629 7.1426,10 12.2596,10 L12.2596,10 Z M20.0176,36.052 C20.0176,37.385 17.0516,38.824 12.2606,38.824 C6.9536,38.824 4.0176,37.185 4.0176,36.052 L4.0176,31.488 C6.0196,32.721 9.2596,33.302 12.3536,33.302 L12.3536,31.302 C7.2086,31.302 4.0506,29.685 4.0506,28.526 L4.0176,28.526 L4.0176,23.923 C6.0196,25.156 9.2596,25.737 12.3536,25.737 L12.3536,23.737 C7.2086,23.737 4.0506,22.12 4.0506,20.961 L4.0176,20.961 L4.0176,15.763 C5.9866,16.969 9.1326,17.592 12.2596,17.592 C15.5966,17.592 18.3046,16.962 20.0176,15.889 L20.0176,21.37 L22.0176,21.37 L22.0176,13.084 L22.0076,13.084 C22.0166,12.988 22.0326,12.894 22.0326,12.796 C22.0326,9.928 18.1046,8 12.2596,8 C7.1616,8 1.9996,9.647 1.9996,12.796 C1.9996,12.855 2.0136,12.909 2.0176,12.966 L2.0176,36.052 C2.0176,39.33 7.3276,40.824 12.2606,40.824 C18.0966,40.824 22.0176,38.906 22.0176,36.052 L22.0176,33.37 L20.0176,33.37 L20.0176,36.052 Z" id="Fill-1" fill="#000000"></path>
    </g><g id="svgGroup" stroke-linecap="round" fill-rule="evenodd" font-size="9pt" stroke="#000" stroke-width="0.25mm" fill="#000" style="stroke:#000;stroke-width:0.25mm;fill:#000"><path d="M 15.693 2.202 L 14.845 2.202 A 1.466 1.466 0 0 0 14.795 1.809 A 1.066 1.066 0 0 0 14.476 1.29 A 1.211 1.211 0 0 0 14.006 1.033 Q 13.755 0.958 13.434 0.958 A 2.286 2.286 0 0 0 13.054 0.988 Q 12.852 1.022 12.69 1.095 A 1.101 1.101 0 0 0 12.461 1.233 A 0.892 0.892 0 0 0 12.116 1.887 A 1.267 1.267 0 0 0 12.111 1.995 A 0.806 0.806 0 0 0 12.379 2.6 A 1.134 1.134 0 0 0 12.443 2.656 A 1.562 1.562 0 0 0 12.681 2.813 Q 13.012 2.993 13.573 3.151 A 8.228 8.228 0 0 1 14.037 3.295 Q 14.272 3.377 14.467 3.464 A 3.297 3.297 0 0 1 14.821 3.645 A 2.342 2.342 0 0 1 15.159 3.889 Q 15.349 4.056 15.471 4.248 A 1.45 1.45 0 0 1 15.489 4.276 A 1.498 1.498 0 0 1 15.685 4.832 A 1.948 1.948 0 0 1 15.706 5.124 A 1.606 1.606 0 0 1 15.584 5.76 Q 15.438 6.101 15.12 6.354 A 1.886 1.886 0 0 1 15.1 6.37 Q 14.493 6.838 13.478 6.838 A 3.023 3.023 0 0 1 12.337 6.623 A 2.917 2.917 0 0 1 12.248 6.585 A 2.383 2.383 0 0 1 11.769 6.307 A 1.874 1.874 0 0 1 11.366 5.893 A 1.689 1.689 0 0 1 11.057 4.896 L 11.905 4.896 A 1.261 1.261 0 0 0 11.974 5.323 A 1.074 1.074 0 0 0 12.333 5.812 Q 12.718 6.113 13.334 6.144 A 2.87 2.87 0 0 0 13.478 6.148 A 2.628 2.628 0 0 0 13.865 6.121 Q 14.061 6.092 14.22 6.031 A 1.129 1.129 0 0 0 14.502 5.875 Q 14.858 5.603 14.858 5.133 A 1.074 1.074 0 0 0 14.815 4.822 A 0.816 0.816 0 0 0 14.528 4.406 Q 14.199 4.148 13.333 3.898 Q 12.248 3.586 11.753 3.131 Q 11.259 2.676 11.259 2.008 Q 11.259 1.252 11.863 0.758 A 2.121 2.121 0 0 1 12.753 0.335 A 3.087 3.087 0 0 1 13.434 0.264 A 2.913 2.913 0 0 1 14.094 0.336 A 2.372 2.372 0 0 1 14.61 0.519 A 2.051 2.051 0 0 1 15.141 0.889 A 1.834 1.834 0 0 1 15.409 1.222 A 1.798 1.798 0 0 1 15.693 2.202 Z M 3.74 6.75 L 2.351 4.162 L 0.848 4.162 L 0.848 6.75 L 0 6.75 L 0 0.352 L 2.118 0.352 A 3.809 3.809 0 0 1 2.76 0.402 Q 3.102 0.461 3.376 0.587 A 1.789 1.789 0 0 1 3.781 0.844 A 1.588 1.588 0 0 1 4.307 1.732 A 2.453 2.453 0 0 1 4.364 2.276 A 1.864 1.864 0 0 1 4.273 2.868 A 1.64 1.64 0 0 1 4.041 3.318 A 1.849 1.849 0 0 1 3.382 3.875 A 2.342 2.342 0 0 1 3.142 3.981 L 4.645 6.697 L 4.645 6.75 L 3.74 6.75 Z M 29.628 6.75 L 29.61 6.28 A 1.526 1.526 0 0 1 28.784 6.775 Q 28.534 6.836 28.237 6.838 A 2.996 2.996 0 0 1 28.217 6.838 A 2.086 2.086 0 0 1 27.757 6.79 Q 27.327 6.693 27.059 6.396 A 1.41 1.41 0 0 1 26.776 5.899 Q 26.66 5.556 26.657 5.089 L 26.657 1.995 L 27.47 1.995 L 27.47 5.067 Q 27.47 6.037 28.178 6.137 A 1.229 1.229 0 0 0 28.349 6.148 A 1.927 1.927 0 0 0 28.8 6.099 Q 29.362 5.964 29.588 5.454 L 29.588 1.995 L 30.401 1.995 L 30.401 6.75 L 29.628 6.75 Z M 31.43 4.504 L 31.43 4.355 A 3.17 3.17 0 0 1 31.506 3.646 A 2.581 2.581 0 0 1 31.7 3.092 A 2.191 2.191 0 0 1 32.147 2.466 A 2.033 2.033 0 0 1 32.456 2.221 Q 32.941 1.907 33.508 1.907 A 2.254 2.254 0 0 1 34.121 1.986 A 1.639 1.639 0 0 1 34.95 2.518 Q 35.464 3.129 35.464 4.267 L 35.464 4.605 L 32.243 4.605 A 2.111 2.111 0 0 0 32.314 5.114 A 1.516 1.516 0 0 0 32.654 5.741 A 1.282 1.282 0 0 0 33.588 6.173 A 1.652 1.652 0 0 0 33.653 6.174 A 1.763 1.763 0 0 0 33.981 6.145 Q 34.205 6.103 34.383 5.999 A 1.827 1.827 0 0 0 34.892 5.551 A 2.068 2.068 0 0 0 34.906 5.533 L 35.402 5.919 A 1.926 1.926 0 0 1 34.003 6.811 A 2.749 2.749 0 0 1 33.609 6.838 A 2.394 2.394 0 0 1 32.858 6.725 A 1.974 1.974 0 0 1 32.036 6.203 Q 31.43 5.568 31.43 4.504 Z M 21.234 6.75 L 19.015 6.75 L 19.015 0.352 L 21.107 0.352 A 4.031 4.031 0 0 1 21.68 0.39 Q 21.973 0.432 22.209 0.521 A 1.629 1.629 0 0 1 22.674 0.782 A 1.383 1.383 0 0 1 23.145 1.558 A 2.164 2.164 0 0 1 23.199 2.057 A 1.3 1.3 0 0 1 22.944 2.85 A 1.589 1.589 0 0 1 22.433 3.294 A 1.972 1.972 0 0 1 22.25 3.384 A 1.571 1.571 0 0 1 22.764 3.63 A 1.446 1.446 0 0 1 23.069 3.935 A 1.531 1.531 0 0 1 23.361 4.713 A 1.961 1.961 0 0 1 23.37 4.904 A 2.139 2.139 0 0 1 23.295 5.487 A 1.577 1.577 0 0 1 22.812 6.258 A 1.832 1.832 0 0 1 22.12 6.633 Q 21.853 6.713 21.535 6.739 A 3.81 3.81 0 0 1 21.234 6.75 Z M 7.317 6.75 L 5.546 6.75 L 5.546 0.352 L 7.352 0.352 Q 8.187 0.352 8.829 0.721 Q 9.47 1.09 9.82 1.771 A 3.19 3.19 0 0 1 10.136 2.8 A 4.073 4.073 0 0 1 10.173 3.335 L 10.173 3.744 Q 10.173 4.649 9.824 5.331 A 2.457 2.457 0 0 1 8.826 6.376 Q 8.178 6.741 7.317 6.75 Z M 25.374 0 L 25.374 6.75 L 24.561 6.75 L 24.561 0 L 25.374 0 Z M 7.374 1.046 L 6.39 1.046 L 6.39 6.06 L 7.277 6.06 A 2.519 2.519 0 0 0 7.91 5.985 A 1.747 1.747 0 0 0 8.796 5.454 Q 9.255 4.94 9.326 4.059 A 4.165 4.165 0 0 0 9.338 3.727 L 9.338 3.353 Q 9.338 2.562 9.069 2.027 A 1.864 1.864 0 0 0 8.826 1.659 A 1.687 1.687 0 0 0 7.83 1.09 A 2.499 2.499 0 0 0 7.374 1.046 Z M 0.848 1.046 L 0.848 3.472 L 2.145 3.472 Q 2.685 3.472 3.035 3.231 A 1.174 1.174 0 0 0 3.144 3.146 A 1.069 1.069 0 0 0 3.51 2.409 A 1.486 1.486 0 0 0 3.516 2.276 Q 3.516 1.734 3.22 1.423 A 1 1 0 0 0 3.162 1.367 Q 2.808 1.05 2.14 1.046 L 0.848 1.046 Z M 21.265 3.757 L 19.859 3.757 L 19.859 6.06 L 21.252 6.06 A 1.84 1.84 0 0 0 21.627 6.024 Q 21.868 5.974 22.051 5.854 A 1.064 1.064 0 0 0 22.181 5.755 A 1.003 1.003 0 0 0 22.503 5.154 A 1.459 1.459 0 0 0 22.522 4.913 Q 22.522 4.007 21.75 3.811 A 1.977 1.977 0 0 0 21.266 3.757 Z M 19.859 1.046 L 19.859 3.081 L 21.133 3.081 Q 21.687 3.081 22.019 2.804 A 0.905 0.905 0 0 0 22.347 2.154 A 1.27 1.27 0 0 0 22.351 2.052 Q 22.351 1.696 22.21 1.471 A 0.71 0.71 0 0 0 22.043 1.285 A 0.969 0.969 0 0 0 21.757 1.136 Q 21.494 1.047 21.113 1.046 A 3.261 3.261 0 0 0 21.107 1.046 L 19.859 1.046 Z M 32.269 3.938 L 34.651 3.938 L 34.651 3.876 Q 34.625 3.417 34.454 3.111 A 1.13 1.13 0 0 0 34.317 2.916 A 0.983 0.983 0 0 0 33.662 2.584 A 1.39 1.39 0 0 0 33.508 2.575 A 1.106 1.106 0 0 0 32.986 2.698 A 1.14 1.14 0 0 0 32.682 2.933 A 1.417 1.417 0 0 0 32.405 3.379 Q 32.332 3.563 32.292 3.785 A 2.741 2.741 0 0 0 32.269 3.938 Z" vector-effect="non-scaling-stroke"/></g><g transform="translate(22.268, 64), scale(0.75)" id="svgGroup" stroke-linecap="round" fill-rule="evenodd" font-size="9pt" stroke="#000" stroke-width="0.25mm" fill="#000" style="stroke:#000;stroke-width:0.25mm;fill:#000"><path d="M 53.126 1.995 L 53.895 1.995 L 53.917 2.522 Q 54.44 1.907 55.327 1.907 A 2.009 2.009 0 0 1 55.838 1.968 A 1.244 1.244 0 0 1 56.685 2.672 A 1.801 1.801 0 0 1 57.303 2.118 A 1.65 1.65 0 0 1 57.832 1.937 A 2.209 2.209 0 0 1 58.201 1.907 A 2.119 2.119 0 0 1 58.845 1.997 Q 59.772 2.292 59.792 3.564 L 59.792 6.75 L 58.979 6.75 L 58.979 3.612 A 1.781 1.781 0 0 0 58.959 3.332 Q 58.935 3.185 58.884 3.067 A 0.758 0.758 0 0 0 58.746 2.85 A 0.68 0.68 0 0 0 58.493 2.682 Q 58.282 2.597 57.965 2.597 A 1.245 1.245 0 0 0 57.599 2.648 A 1.008 1.008 0 0 0 57.212 2.867 A 1.042 1.042 0 0 0 56.898 3.404 A 1.41 1.41 0 0 0 56.865 3.595 L 56.865 6.75 L 56.048 6.75 L 56.048 3.634 A 1.532 1.532 0 0 0 55.999 3.23 Q 55.873 2.768 55.415 2.643 A 1.457 1.457 0 0 0 55.033 2.597 Q 54.259 2.597 53.958 3.234 A 1.459 1.459 0 0 0 53.939 3.278 L 53.939 6.75 L 53.126 6.75 L 53.126 1.995 Z M 4.931 3.564 L 4.931 5.911 A 1.895 1.895 0 0 1 4.207 6.525 A 2.364 2.364 0 0 1 4.023 6.607 A 3.162 3.162 0 0 1 3.351 6.787 Q 3.04 6.836 2.69 6.838 A 5.148 5.148 0 0 1 2.668 6.838 A 2.838 2.838 0 0 1 1.845 6.722 A 2.459 2.459 0 0 1 1.279 6.471 A 2.43 2.43 0 0 1 0.372 5.49 A 2.924 2.924 0 0 1 0.341 5.427 A 3.277 3.277 0 0 1 0.052 4.497 A 4.307 4.307 0 0 1 0 3.858 L 0 3.3 Q 0 1.854 0.675 1.059 A 2.198 2.198 0 0 1 2.028 0.307 A 3.227 3.227 0 0 1 2.571 0.264 Q 3.573 0.264 4.184 0.776 A 2.047 2.047 0 0 1 4.806 1.701 A 2.896 2.896 0 0 1 4.931 2.228 L 4.087 2.228 Q 3.88 1.12 2.884 0.979 A 2.195 2.195 0 0 0 2.575 0.958 A 1.917 1.917 0 0 0 2.041 1.028 A 1.386 1.386 0 0 0 1.29 1.553 A 1.986 1.986 0 0 0 1.006 2.125 Q 0.919 2.396 0.88 2.726 A 4.871 4.871 0 0 0 0.848 3.278 L 0.848 3.801 A 3.827 3.827 0 0 0 0.906 4.489 Q 1.017 5.096 1.34 5.513 A 1.569 1.569 0 0 0 2.48 6.139 A 2.069 2.069 0 0 0 2.672 6.148 Q 3.105 6.148 3.439 6.06 A 2.106 2.106 0 0 0 3.503 6.042 A 1.357 1.357 0 0 0 3.891 5.86 A 1.217 1.217 0 0 0 4.091 5.687 L 4.091 4.25 L 2.61 4.25 L 2.61 3.564 L 4.931 3.564 Z M 109.723 6.75 L 108.066 4.548 L 107.556 5.08 L 107.556 6.75 L 106.743 6.75 L 106.743 0 L 107.556 0 L 107.556 4.083 L 107.991 3.56 L 109.472 1.995 L 110.461 1.995 L 108.611 3.981 L 110.676 6.75 L 109.723 6.75 Z M 77.23 3.393 L 76.412 3.393 Q 76.412 3.059 76.129 2.817 Q 75.845 2.575 75.415 2.575 Q 74.971 2.575 74.72 2.769 A 0.653 0.653 0 0 0 74.545 2.967 Q 74.472 3.098 74.47 3.263 A 0.771 0.771 0 0 0 74.47 3.274 A 0.588 0.588 0 0 0 74.5 3.467 A 0.48 0.48 0 0 0 74.703 3.718 A 1.093 1.093 0 0 0 74.853 3.796 Q 75.017 3.868 75.273 3.937 A 6.581 6.581 0 0 0 75.544 4.003 A 6.318 6.318 0 0 1 75.952 4.108 Q 76.289 4.208 76.531 4.329 A 1.901 1.901 0 0 1 76.787 4.481 Q 76.924 4.579 77.021 4.692 A 1.06 1.06 0 0 1 77.091 4.783 A 1.024 1.024 0 0 1 77.253 5.191 A 1.388 1.388 0 0 1 77.274 5.432 Q 77.274 6.069 76.764 6.453 Q 76.281 6.817 75.527 6.837 A 3.337 3.337 0 0 1 75.441 6.838 A 2.746 2.746 0 0 1 74.907 6.788 A 2.124 2.124 0 0 1 74.43 6.636 A 1.771 1.771 0 0 1 73.996 6.358 A 1.54 1.54 0 0 1 73.743 6.071 Q 73.494 5.708 73.494 5.287 L 74.307 5.287 A 0.932 0.932 0 0 0 74.381 5.612 A 0.827 0.827 0 0 0 74.635 5.935 A 1.072 1.072 0 0 0 75.037 6.128 Q 75.191 6.167 75.373 6.173 A 2.013 2.013 0 0 0 75.441 6.174 A 1.863 1.863 0 0 0 75.737 6.152 Q 75.898 6.126 76.03 6.07 A 0.941 0.941 0 0 0 76.181 5.988 A 0.689 0.689 0 0 0 76.346 5.837 A 0.554 0.554 0 0 0 76.461 5.489 A 0.698 0.698 0 0 0 76.424 5.258 A 0.581 0.581 0 0 0 76.212 4.977 A 1.05 1.05 0 0 0 76.043 4.878 Q 75.855 4.788 75.56 4.712 A 5.392 5.392 0 0 0 75.347 4.663 A 6.342 6.342 0 0 1 74.986 4.575 Q 74.616 4.473 74.367 4.346 Q 74.068 4.194 73.897 3.994 A 1.017 1.017 0 0 1 73.83 3.907 Q 73.657 3.652 73.657 3.3 A 1.206 1.206 0 0 1 74.056 2.396 A 1.694 1.694 0 0 1 74.151 2.312 A 1.752 1.752 0 0 1 74.934 1.952 A 2.471 2.471 0 0 1 75.415 1.907 A 2.559 2.559 0 0 1 75.978 1.966 A 1.757 1.757 0 0 1 76.726 2.325 Q 77.23 2.742 77.23 3.393 Z M 49.241 1.995 L 50.427 5.559 L 51.535 1.995 L 52.405 1.995 L 50.493 7.484 Q 50.049 8.67 49.083 8.67 L 48.929 8.657 L 48.626 8.6 L 48.626 7.941 L 48.845 7.958 Q 49.125 7.958 49.321 7.882 A 0.75 0.75 0 0 0 49.489 7.792 A 0.749 0.749 0 0 0 49.649 7.629 Q 49.767 7.47 49.857 7.215 A 2.575 2.575 0 0 0 49.869 7.181 L 50.049 6.697 L 48.353 1.995 L 49.241 1.995 Z M 18.708 1.995 L 19.477 1.995 L 19.503 2.593 Q 20.039 1.918 20.899 1.907 A 2.234 2.234 0 0 1 20.927 1.907 A 1.905 1.905 0 0 1 21.56 2.004 Q 22.402 2.3 22.445 3.506 A 3.668 3.668 0 0 1 22.447 3.608 L 22.447 6.75 L 21.634 6.75 L 21.634 3.604 A 1.837 1.837 0 0 0 21.612 3.324 Q 21.562 3.017 21.399 2.843 Q 21.213 2.645 20.86 2.606 A 1.66 1.66 0 0 0 20.681 2.597 A 1.253 1.253 0 0 0 20.266 2.664 A 1.123 1.123 0 0 0 19.986 2.808 A 1.432 1.432 0 0 0 19.521 3.362 L 19.521 6.75 L 18.708 6.75 L 18.708 1.995 Z M 65.786 1.995 L 66.555 1.995 L 66.582 2.593 Q 67.118 1.918 67.978 1.907 A 2.234 2.234 0 0 1 68.005 1.907 A 1.905 1.905 0 0 1 68.639 2.004 Q 69.481 2.3 69.524 3.506 A 3.668 3.668 0 0 1 69.526 3.608 L 69.526 6.75 L 68.713 6.75 L 68.713 3.604 A 1.837 1.837 0 0 0 68.691 3.324 Q 68.641 3.017 68.478 2.843 Q 68.292 2.645 67.938 2.606 A 1.66 1.66 0 0 0 67.759 2.597 A 1.253 1.253 0 0 0 67.345 2.664 A 1.123 1.123 0 0 0 67.065 2.808 A 1.432 1.432 0 0 0 66.599 3.362 L 66.599 6.75 L 65.786 6.75 L 65.786 1.995 Z M 102.586 6.75 L 101.733 6.75 A 0.632 0.632 0 0 1 101.698 6.66 Q 101.667 6.562 101.642 6.41 A 3.997 3.997 0 0 1 101.619 6.249 Q 101.052 6.838 100.266 6.838 A 2.033 2.033 0 0 1 99.736 6.772 A 1.529 1.529 0 0 1 99.112 6.44 Q 98.662 6.042 98.662 5.432 Q 98.662 4.689 99.226 4.278 Q 99.791 3.867 100.815 3.867 L 101.606 3.867 L 101.606 3.494 A 1.152 1.152 0 0 0 101.57 3.199 A 0.828 0.828 0 0 0 101.351 2.815 Q 101.135 2.6 100.745 2.568 A 1.748 1.748 0 0 0 100.6 2.562 Q 100.165 2.562 99.87 2.782 Q 99.576 3.001 99.576 3.313 L 98.758 3.313 A 1.041 1.041 0 0 1 98.883 2.825 A 1.409 1.409 0 0 1 99.011 2.626 Q 99.264 2.294 99.697 2.101 A 2.249 2.249 0 0 1 100.472 1.913 A 2.669 2.669 0 0 1 100.648 1.907 A 2.65 2.65 0 0 1 101.165 1.955 Q 101.473 2.016 101.712 2.156 A 1.439 1.439 0 0 1 101.936 2.318 A 1.396 1.396 0 0 1 102.389 3.144 A 1.998 1.998 0 0 1 102.419 3.45 L 102.419 5.638 Q 102.419 6.073 102.493 6.39 A 1.707 1.707 0 0 0 102.586 6.68 L 102.586 6.75 Z M 40.588 4.351 L 40.588 4.425 Q 40.588 5.511 40.091 6.174 A 1.57 1.57 0 0 1 38.953 6.828 A 2.013 2.013 0 0 1 38.747 6.838 A 2.196 2.196 0 0 1 38.161 6.764 A 1.598 1.598 0 0 1 37.384 6.289 L 37.384 8.578 L 36.571 8.578 L 36.571 1.995 L 37.314 1.995 L 37.354 2.522 A 1.619 1.619 0 0 1 38.493 1.919 A 2.319 2.319 0 0 1 38.733 1.907 A 1.829 1.829 0 0 1 39.371 2.014 A 1.597 1.597 0 0 1 40.089 2.553 Q 40.588 3.199 40.588 4.351 Z M 8.965 4.504 L 8.965 4.355 A 3.17 3.17 0 0 1 9.041 3.646 A 2.581 2.581 0 0 1 9.235 3.092 A 2.191 2.191 0 0 1 9.683 2.466 A 2.033 2.033 0 0 1 9.991 2.221 Q 10.477 1.907 11.044 1.907 A 2.254 2.254 0 0 1 11.657 1.986 A 1.639 1.639 0 0 1 12.485 2.518 Q 12.999 3.129 12.999 4.267 L 12.999 4.605 L 9.778 4.605 A 2.111 2.111 0 0 0 9.849 5.114 A 1.516 1.516 0 0 0 10.189 5.741 A 1.282 1.282 0 0 0 11.123 6.173 A 1.652 1.652 0 0 0 11.189 6.174 A 1.763 1.763 0 0 0 11.517 6.145 Q 11.741 6.103 11.918 5.999 A 1.827 1.827 0 0 0 12.427 5.551 A 2.068 2.068 0 0 0 12.441 5.533 L 12.938 5.919 A 1.926 1.926 0 0 1 11.538 6.811 A 2.749 2.749 0 0 1 11.145 6.838 A 2.394 2.394 0 0 1 10.393 6.725 A 1.974 1.974 0 0 1 9.571 6.203 Q 8.965 5.568 8.965 4.504 Z M 13.733 4.504 L 13.733 4.355 A 3.17 3.17 0 0 1 13.809 3.646 A 2.581 2.581 0 0 1 14.003 3.092 A 2.191 2.191 0 0 1 14.451 2.466 A 2.033 2.033 0 0 1 14.759 2.221 Q 15.245 1.907 15.812 1.907 A 2.254 2.254 0 0 1 16.425 1.986 A 1.639 1.639 0 0 1 17.253 2.518 Q 17.767 3.129 17.767 4.267 L 17.767 4.605 L 14.546 4.605 A 2.111 2.111 0 0 0 14.617 5.114 A 1.516 1.516 0 0 0 14.957 5.741 A 1.282 1.282 0 0 0 15.891 6.173 A 1.652 1.652 0 0 0 15.957 6.174 A 1.763 1.763 0 0 0 16.285 6.145 Q 16.509 6.103 16.686 5.999 A 1.827 1.827 0 0 0 17.195 5.551 A 2.068 2.068 0 0 0 17.209 5.533 L 17.706 5.919 A 1.926 1.926 0 0 1 16.306 6.811 A 2.749 2.749 0 0 1 15.913 6.838 A 2.394 2.394 0 0 1 15.161 6.725 A 1.974 1.974 0 0 1 14.339 6.203 Q 13.733 5.568 13.733 4.504 Z M 31.597 4.504 L 31.597 4.355 A 3.17 3.17 0 0 1 31.673 3.646 A 2.581 2.581 0 0 1 31.867 3.092 A 2.191 2.191 0 0 1 32.314 2.466 A 2.033 2.033 0 0 1 32.623 2.221 Q 33.108 1.907 33.675 1.907 A 2.254 2.254 0 0 1 34.288 1.986 A 1.639 1.639 0 0 1 35.117 2.518 Q 35.631 3.129 35.631 4.267 L 35.631 4.605 L 32.41 4.605 A 2.111 2.111 0 0 0 32.481 5.114 A 1.516 1.516 0 0 0 32.821 5.741 A 1.282 1.282 0 0 0 33.755 6.173 A 1.652 1.652 0 0 0 33.82 6.174 A 1.763 1.763 0 0 0 34.149 6.145 Q 34.372 6.103 34.55 5.999 A 1.827 1.827 0 0 0 35.059 5.551 A 2.068 2.068 0 0 0 35.073 5.533 L 35.569 5.919 A 1.926 1.926 0 0 1 34.17 6.811 A 2.749 2.749 0 0 1 33.776 6.838 A 2.394 2.394 0 0 1 33.025 6.725 A 1.974 1.974 0 0 1 32.203 6.203 Q 31.597 5.568 31.597 4.504 Z M 60.812 4.504 L 60.812 4.355 A 3.17 3.17 0 0 1 60.888 3.646 A 2.581 2.581 0 0 1 61.082 3.092 A 2.191 2.191 0 0 1 61.529 2.466 A 2.033 2.033 0 0 1 61.838 2.221 Q 62.323 1.907 62.89 1.907 A 2.254 2.254 0 0 1 63.503 1.986 A 1.639 1.639 0 0 1 64.332 2.518 Q 64.846 3.129 64.846 4.267 L 64.846 4.605 L 61.625 4.605 A 2.111 2.111 0 0 0 61.696 5.114 A 1.516 1.516 0 0 0 62.035 5.741 A 1.282 1.282 0 0 0 62.97 6.173 A 1.652 1.652 0 0 0 63.035 6.174 A 1.763 1.763 0 0 0 63.363 6.145 Q 63.587 6.103 63.765 5.999 A 1.827 1.827 0 0 0 64.274 5.551 A 2.068 2.068 0 0 0 64.288 5.533 L 64.784 5.919 A 1.926 1.926 0 0 1 63.385 6.811 A 2.749 2.749 0 0 1 62.991 6.838 A 2.394 2.394 0 0 1 62.24 6.725 A 1.974 1.974 0 0 1 61.418 6.203 Q 60.812 5.568 60.812 4.504 Z M 83.909 0.352 L 83.909 4.601 L 84.797 4.601 L 84.797 5.265 L 83.909 5.265 L 83.909 6.75 L 83.092 6.75 L 83.092 5.265 L 80.178 5.265 L 80.178 4.786 L 83.044 0.352 L 83.909 0.352 Z M 27.8 6.75 L 26.029 6.75 L 26.029 0.352 L 27.835 0.352 Q 28.67 0.352 29.312 0.721 Q 29.953 1.09 30.303 1.771 A 3.19 3.19 0 0 1 30.619 2.8 A 4.073 4.073 0 0 1 30.656 3.335 L 30.656 3.744 Q 30.656 4.649 30.307 5.331 A 2.457 2.457 0 0 1 29.309 6.376 Q 28.661 6.741 27.8 6.75 Z M 94.795 6.75 L 93.024 6.75 L 93.024 0.352 L 94.83 0.352 Q 95.665 0.352 96.306 0.721 Q 96.948 1.09 97.297 1.771 A 3.19 3.19 0 0 1 97.614 2.8 A 4.073 4.073 0 0 1 97.651 3.335 L 97.651 3.744 Q 97.651 4.649 97.302 5.331 A 2.457 2.457 0 0 1 96.304 6.376 Q 95.656 6.741 94.795 6.75 Z M 89.308 2.592 A 1.544 1.544 0 0 0 89.411 2.021 A 2.226 2.226 0 0 0 89.39 1.707 A 1.566 1.566 0 0 0 88.89 0.738 A 1.754 1.754 0 0 0 88.125 0.333 A 2.443 2.443 0 0 0 87.526 0.264 A 2.539 2.539 0 0 0 87.016 0.312 A 1.767 1.767 0 0 0 86.159 0.738 Q 85.641 1.213 85.641 2.021 A 1.808 1.808 0 0 0 85.641 2.058 A 1.499 1.499 0 0 0 85.887 2.87 A 1.626 1.626 0 0 0 86.049 3.077 A 1.726 1.726 0 0 0 86.559 3.454 A 2.119 2.119 0 0 0 86.46 3.5 A 1.738 1.738 0 0 0 85.775 4.087 A 1.629 1.629 0 0 0 85.491 5.023 A 2.272 2.272 0 0 0 85.501 5.237 A 1.63 1.63 0 0 0 86.047 6.344 A 1.895 1.895 0 0 0 86.898 6.771 A 2.797 2.797 0 0 0 87.526 6.838 A 2.796 2.796 0 0 0 88.125 6.777 A 1.925 1.925 0 0 0 89 6.346 A 1.578 1.578 0 0 0 89.475 5.62 A 1.989 1.989 0 0 0 89.561 5.023 A 1.581 1.581 0 0 0 89.268 4.087 Q 88.976 3.674 88.475 3.458 Q 88.906 3.248 89.159 2.874 A 1.449 1.449 0 0 0 89.308 2.592 Z M 71.042 0.844 L 71.855 0.844 L 71.855 1.995 L 72.743 1.995 L 72.743 2.624 L 71.855 2.624 L 71.855 5.572 Q 71.855 5.858 71.974 6.001 Q 72.092 6.144 72.378 6.144 A 1.046 1.046 0 0 0 72.476 6.138 Q 72.578 6.129 72.718 6.101 A 4.024 4.024 0 0 0 72.765 6.091 L 72.765 6.75 A 2.463 2.463 0 0 1 72.332 6.829 A 2.157 2.157 0 0 1 72.141 6.838 Q 71.694 6.838 71.427 6.616 A 0.856 0.856 0 0 1 71.319 6.508 Q 71.092 6.238 71.051 5.78 A 2.351 2.351 0 0 1 71.042 5.572 L 71.042 2.624 L 70.176 2.624 L 70.176 1.995 L 71.042 1.995 L 71.042 0.844 Z M 42.504 0 L 42.504 6.75 L 41.691 6.75 L 41.691 0 L 42.504 0 Z M 43.589 4.386 L 43.589 4.329 A 3.057 3.057 0 0 1 43.676 3.587 A 2.573 2.573 0 0 1 43.864 3.072 A 2.16 2.16 0 0 1 44.279 2.486 A 1.957 1.957 0 0 1 44.629 2.21 A 2.036 2.036 0 0 1 45.573 1.913 A 2.491 2.491 0 0 1 45.747 1.907 A 2.277 2.277 0 0 1 46.501 2.027 A 1.937 1.937 0 0 1 47.318 2.58 A 2.29 2.29 0 0 1 47.837 3.608 A 3.373 3.373 0 0 1 47.918 4.368 L 47.918 4.425 A 3.114 3.114 0 0 1 47.839 5.142 A 2.577 2.577 0 0 1 47.652 5.671 A 2.056 2.056 0 0 1 47.125 6.361 A 2.001 2.001 0 0 1 46.892 6.53 A 2.045 2.045 0 0 1 45.972 6.829 A 2.529 2.529 0 0 1 45.756 6.838 A 2.262 2.262 0 0 1 45.006 6.718 A 1.938 1.938 0 0 1 44.189 6.166 A 2.297 2.297 0 0 1 43.664 5.111 A 3.357 3.357 0 0 1 43.589 4.386 Z M 8.508 1.969 L 8.508 2.725 A 2.251 2.251 0 0 0 8.265 2.698 A 2.782 2.782 0 0 0 8.108 2.694 Q 7.33 2.694 7.039 3.338 A 1.445 1.445 0 0 0 7.023 3.375 L 7.023 6.75 L 6.21 6.75 L 6.21 1.995 L 7.001 1.995 L 7.014 2.544 Q 7.394 1.938 8.077 1.909 A 1.636 1.636 0 0 1 8.148 1.907 Q 8.385 1.907 8.508 1.969 Z M 105.992 1.969 L 105.992 2.725 A 2.251 2.251 0 0 0 105.749 2.698 A 2.782 2.782 0 0 0 105.592 2.694 Q 104.814 2.694 104.523 3.338 A 1.445 1.445 0 0 0 104.506 3.375 L 104.506 6.75 L 103.693 6.75 L 103.693 1.995 L 104.484 1.995 L 104.498 2.544 Q 104.878 1.938 105.561 1.909 A 1.636 1.636 0 0 1 105.631 1.907 Q 105.869 1.907 105.992 1.969 Z M 27.857 1.046 L 26.873 1.046 L 26.873 6.06 L 27.76 6.06 A 2.519 2.519 0 0 0 28.393 5.985 A 1.747 1.747 0 0 0 29.279 5.454 Q 29.738 4.94 29.809 4.059 A 4.165 4.165 0 0 0 29.821 3.727 L 29.821 3.353 Q 29.821 2.562 29.552 2.027 A 1.864 1.864 0 0 0 29.309 1.659 A 1.687 1.687 0 0 0 28.313 1.09 A 2.499 2.499 0 0 0 27.857 1.046 Z M 94.852 1.046 L 93.867 1.046 L 93.867 6.06 L 94.755 6.06 A 2.519 2.519 0 0 0 95.387 5.985 A 1.747 1.747 0 0 0 96.273 5.454 Q 96.733 4.94 96.803 4.059 A 4.165 4.165 0 0 0 96.816 3.727 L 96.816 3.353 Q 96.816 2.562 96.546 2.027 A 1.864 1.864 0 0 0 96.304 1.659 A 1.687 1.687 0 0 0 95.308 1.09 A 2.499 2.499 0 0 0 94.852 1.046 Z M 44.407 4.425 A 2.772 2.772 0 0 0 44.454 4.954 Q 44.515 5.264 44.652 5.51 A 1.545 1.545 0 0 0 44.774 5.695 Q 45.141 6.174 45.756 6.174 A 1.269 1.269 0 0 0 46.245 6.083 Q 46.525 5.967 46.727 5.706 A 1.471 1.471 0 0 0 46.74 5.689 A 1.648 1.648 0 0 0 46.995 5.171 Q 47.064 4.945 47.09 4.672 A 3.655 3.655 0 0 0 47.105 4.329 A 2.687 2.687 0 0 0 47.054 3.789 Q 46.986 3.459 46.829 3.2 A 1.586 1.586 0 0 0 46.734 3.061 A 1.231 1.231 0 0 0 46.319 2.705 Q 46.066 2.575 45.747 2.575 Q 45.157 2.575 44.791 3.035 A 1.515 1.515 0 0 0 44.776 3.054 A 1.589 1.589 0 0 0 44.524 3.552 Q 44.454 3.772 44.426 4.039 A 3.676 3.676 0 0 0 44.407 4.425 Z M 37.384 3.252 L 37.384 5.524 Q 37.749 6.174 38.501 6.174 A 1.184 1.184 0 0 0 38.966 6.086 Q 39.223 5.977 39.412 5.735 A 1.403 1.403 0 0 0 39.43 5.711 A 1.501 1.501 0 0 0 39.647 5.28 Q 39.715 5.073 39.747 4.818 A 3.91 3.91 0 0 0 39.775 4.333 Q 39.775 3.746 39.592 3.339 A 1.503 1.503 0 0 0 39.432 3.063 A 1.086 1.086 0 0 0 38.646 2.605 A 1.414 1.414 0 0 0 38.492 2.597 Q 37.831 2.597 37.466 3.121 A 1.623 1.623 0 0 0 37.384 3.252 Z M 82.995 1.639 L 81.101 4.601 L 83.092 4.601 L 83.092 1.463 L 82.995 1.639 Z M 88.748 5.005 A 1.375 1.375 0 0 0 88.688 4.592 A 1.109 1.109 0 0 0 88.407 4.131 A 1.148 1.148 0 0 0 87.736 3.807 A 1.593 1.593 0 0 0 87.517 3.792 A 1.466 1.466 0 0 0 87.128 3.841 A 1.086 1.086 0 0 0 86.636 4.126 A 1.123 1.123 0 0 0 86.323 4.762 A 1.572 1.572 0 0 0 86.304 5.005 A 1.48 1.48 0 0 0 86.346 5.367 A 1.019 1.019 0 0 0 86.627 5.862 Q 86.933 6.158 87.466 6.173 A 2.053 2.053 0 0 0 87.526 6.174 Q 88.02 6.174 88.33 5.94 A 1.018 1.018 0 0 0 88.422 5.86 A 1.041 1.041 0 0 0 88.722 5.292 A 1.518 1.518 0 0 0 88.748 5.005 Z M 87.526 0.932 A 1.259 1.259 0 0 0 87.173 0.979 A 0.973 0.973 0 0 0 86.75 1.228 Q 86.454 1.525 86.454 2.035 A 1.325 1.325 0 0 0 86.498 2.387 A 0.994 0.994 0 0 0 86.746 2.823 A 0.974 0.974 0 0 0 87.308 3.108 A 1.382 1.382 0 0 0 87.526 3.125 A 1.279 1.279 0 0 0 87.871 3.08 A 0.952 0.952 0 0 0 88.306 2.823 A 1.018 1.018 0 0 0 88.581 2.26 A 1.426 1.426 0 0 0 88.598 2.035 A 1.282 1.282 0 0 0 88.548 1.668 A 1.013 1.013 0 0 0 88.295 1.239 Q 87.992 0.932 87.526 0.932 Z M 101.606 5.418 L 101.606 4.443 L 100.969 4.443 Q 99.475 4.443 99.475 5.317 Q 99.475 5.7 99.73 5.915 A 0.893 0.893 0 0 0 100.143 6.108 A 1.259 1.259 0 0 0 100.384 6.13 A 1.429 1.429 0 0 0 101.109 5.933 A 1.335 1.335 0 0 0 101.405 5.705 A 1.108 1.108 0 0 0 101.606 5.418 Z M 9.804 3.938 L 12.186 3.938 L 12.186 3.876 Q 12.16 3.417 11.989 3.111 A 1.13 1.13 0 0 0 11.852 2.916 A 0.983 0.983 0 0 0 11.198 2.584 A 1.39 1.39 0 0 0 11.044 2.575 A 1.106 1.106 0 0 0 10.521 2.698 A 1.14 1.14 0 0 0 10.217 2.933 A 1.417 1.417 0 0 0 9.941 3.379 Q 9.867 3.563 9.827 3.785 A 2.741 2.741 0 0 0 9.804 3.938 Z M 14.572 3.938 L 16.954 3.938 L 16.954 3.876 Q 16.928 3.417 16.758 3.111 A 1.13 1.13 0 0 0 16.62 2.916 A 0.983 0.983 0 0 0 15.966 2.584 A 1.39 1.39 0 0 0 15.812 2.575 A 1.106 1.106 0 0 0 15.289 2.698 A 1.14 1.14 0 0 0 14.985 2.933 A 1.417 1.417 0 0 0 14.709 3.379 Q 14.635 3.563 14.595 3.785 A 2.741 2.741 0 0 0 14.572 3.938 Z M 32.436 3.938 L 34.818 3.938 L 34.818 3.876 Q 34.792 3.417 34.621 3.111 A 1.13 1.13 0 0 0 34.484 2.916 A 0.983 0.983 0 0 0 33.83 2.584 A 1.39 1.39 0 0 0 33.675 2.575 A 1.106 1.106 0 0 0 33.153 2.698 A 1.14 1.14 0 0 0 32.849 2.933 A 1.417 1.417 0 0 0 32.573 3.379 Q 32.499 3.563 32.459 3.785 A 2.741 2.741 0 0 0 32.436 3.938 Z M 61.651 3.938 L 64.033 3.938 L 64.033 3.876 Q 64.007 3.417 63.836 3.111 A 1.13 1.13 0 0 0 63.699 2.916 A 0.983 0.983 0 0 0 63.044 2.584 A 1.39 1.39 0 0 0 62.89 2.575 A 1.106 1.106 0 0 0 62.368 2.698 A 1.14 1.14 0 0 0 62.064 2.933 A 1.417 1.417 0 0 0 61.787 3.379 Q 61.714 3.563 61.674 3.785 A 2.741 2.741 0 0 0 61.651 3.938 Z" vector-effect="non-scaling-stroke"/></g>
</svg>