<?xml version="1.0" encoding="UTF-8"?>
<svg width="80px" height="80px" viewBox="0 0 80 80" version="1.1" xmlns="http://www.w3.org/2000/svg" xmlns:xlink="http://www.w3.org/1999/xlink">
    <title>Icon-Architecture/64/Arch_AWS-Valkyrie_64</title>
    
    <g id="Icon-Architecture/64/Arch_AWS-Valkyrie_64" stroke="none" stroke-width="1" fill="none" fill-rule="evenodd">
        
        <g id="Icon-Service/64/AWS-Valkyrie_64" transform="translate(16, 8), scale(.65)" fill="#000000">
            <path d="M22.003,29.0002324 C23.657,29.0002324 25.003,30.3462324 25.003,32.0002324 L27.003,32.0002324 C27.003,29.2432324 24.76,27.0002324 22.003,27.0002324 C19.246,27.0002324 17.003,29.2432324 17.003,32.0002324 L19.003,32.0002324 C19.003,30.3462324 20.349,29.0002324 22.003,29.0002324 L22.003,29.0002324 Z M37.71,32.7102324 L40.503,29.9162324 L43.296,32.7102324 L44.71,31.2962324 L41.917,28.5012324 L44.71,25.7072324 L43.296,24.2932324 L40.503,27.0872324 L37.71,24.2932324 L36.296,25.7072324 L39.089,28.5012324 L36.296,31.2962324 L37.71,32.7102324 Z M29.003,17.5002324 C29.003,16.1222324 27.882,15.0002324 26.503,15.0002324 C25.124,15.0002324 24.003,16.1222324 24.003,17.5002324 C24.003,18.8782324 25.124,20.0002324 26.503,20.0002324 C27.882,20.0002324 29.003,18.8782324 29.003,17.5002324 L29.003,17.5002324 Z M31.003,17.5002324 C31.003,19.9812324 28.984,22.0002324 26.503,22.0002324 C24.022,22.0002324 22.003,19.9812324 22.003,17.5002324 C22.003,15.0192324 24.022,13.0002324 26.503,13.0002324 C28.984,13.0002324 31.003,15.0192324 31.003,17.5002324 L31.003,17.5002324 Z M25.003,36.0002324 L19.003,36.0002324 L19.003,48.8942324 C22.06,48.3092324 25.003,45.2352324 25.003,43.0002324 L25.003,36.0002324 Z M25.003,47.5112324 C23.508,49.2292324 21.332,50.6072324 19.003,50.9252324 L19.003,55.0002324 C19.003,56.3692324 19.524,58.0002324 22.003,58.0002324 C24.482,58.0002324 25.003,56.3692324 25.003,55.0002324 L25.003,47.5112324 Z M27.003,34.0002324 L29.003,34.0002324 L29.003,36.0002324 L27.003,36.0002324 L27.003,55.0002324 C27.003,57.4172324 25.69,60.0002324 22.003,60.0002324 C18.316,60.0002324 17.003,57.4172324 17.003,55.0002324 L17.003,36.0002324 L15.003,36.0002324 L15.003,34.0002324 L17.003,34.0002324 L19.003,34.0002324 L25.003,34.0002324 L27.003,34.0002324 Z M59.959,30.3002324 C59.959,40.1522324 50.176,40.9902324 50.077,40.9972324 L31.003,41.0002324 L31.003,39.0002324 L50.003,39.0002324 C50.255,38.9772324 57.959,38.2782324 57.959,30.3002324 C57.959,23.4352324 51.821,21.8432324 49.94,21.5192324 C49.406,21.4272324 49.043,20.9272324 49.119,20.3912324 L49.125,20.3542324 C49.106,17.3722324 47.855,15.2562324 45.685,14.5432324 C43.754,13.9092324 41.626,14.6092324 40.389,16.2872324 C40.169,16.5842324 39.798,16.7352324 39.437,16.6832324 C39.07,16.6282324 38.764,16.3752324 38.641,16.0262324 C37.823,13.7062324 36.639,11.7552324 35.121,10.2272324 C33.258,8.35323237 28.144,4.32323237 20.924,7.38723237 C16.752,9.15923237 13.483,14.2652324 13.483,19.0102324 L13.582,20.6472324 C13.61,21.1252324 13.296,21.5562324 12.833,21.6752324 C10.363,22.3092324 6.22,24.2612324 6.22,30.2172324 C6.22,34.6822324 8.637,37.1442324 10.663,38.4232324 C11.277,38.8112324 12.053,38.9992324 13.037,39.0002324 L13.035,41.0002324 C11.662,40.9992324 10.537,40.7092324 9.596,40.1142324 C7.588,38.8482324 4.22,35.8772324 4.22,30.2172324 C4.22,23.3772324 8.844,20.8572324 11.539,19.9712324 L11.485,19.0692324 C11.483,13.4312324 15.206,7.64323237 20.143,5.54623237 C25.926,3.08823237 32.059,4.31123237 36.539,8.81723237 C37.929,10.2152324 39.067,11.9112324 39.938,13.8732324 C41.698,12.4132324 44.093,11.9152324 46.31,12.6432324 C49.139,13.5732324 50.899,16.1912324 51.105,19.7172324 C53.961,20.3922324 59.959,22.7162324 59.959,30.3002324 L59.959,30.3002324 Z" id="Fill-7"></path>
        </g>
    </g><g id="svgGroup" stroke-linecap="round" fill-rule="evenodd" font-size="9pt" stroke="#000" stroke-width="0.25mm" fill="#000" style="stroke:#000;stroke-width:0.25mm;fill:#000"><path d="M 3.529 3.234 L 3.529 3.924 L 0.844 3.924 L 0.844 6.75 L 0 6.75 L 0 0.352 L 3.964 0.352 L 3.964 1.046 L 0.844 1.046 L 0.844 3.234 L 3.529 3.234 Z M 24.354 1.995 L 25.124 1.995 L 25.15 2.593 Q 25.686 1.918 26.546 1.907 A 2.234 2.234 0 0 1 26.574 1.907 A 1.905 1.905 0 0 1 27.207 2.004 Q 28.049 2.3 28.092 3.506 A 3.668 3.668 0 0 1 28.094 3.608 L 28.094 6.75 L 27.281 6.75 L 27.281 3.604 A 1.837 1.837 0 0 0 27.259 3.324 Q 27.209 3.017 27.046 2.843 Q 26.86 2.645 26.507 2.606 A 1.66 1.66 0 0 0 26.328 2.597 A 1.253 1.253 0 0 0 25.913 2.664 A 1.123 1.123 0 0 0 25.633 2.808 A 1.432 1.432 0 0 0 25.167 3.362 L 25.167 6.75 L 24.354 6.75 L 24.354 1.995 Z M 51.205 1.995 L 51.974 1.995 L 52 2.593 Q 52.537 1.918 53.397 1.907 A 2.234 2.234 0 0 1 53.424 1.907 A 1.905 1.905 0 0 1 54.058 2.004 Q 54.9 2.3 54.943 3.506 A 3.668 3.668 0 0 1 54.945 3.608 L 54.945 6.75 L 54.132 6.75 L 54.132 3.604 A 1.837 1.837 0 0 0 54.11 3.324 Q 54.059 3.017 53.897 2.843 Q 53.711 2.645 53.357 2.606 A 1.66 1.66 0 0 0 53.178 2.597 A 1.253 1.253 0 0 0 52.764 2.664 A 1.123 1.123 0 0 0 52.484 2.808 A 1.432 1.432 0 0 0 52.018 3.362 L 52.018 6.75 L 51.205 6.75 L 51.205 1.995 Z M 12.546 6.75 L 12.529 6.28 A 1.526 1.526 0 0 1 11.703 6.775 Q 11.452 6.836 11.155 6.838 A 2.996 2.996 0 0 1 11.136 6.838 A 2.086 2.086 0 0 1 10.676 6.79 Q 10.245 6.693 9.978 6.396 A 1.41 1.41 0 0 1 9.695 5.899 Q 9.578 5.556 9.576 5.089 L 9.576 1.995 L 10.389 1.995 L 10.389 5.067 Q 10.389 6.037 11.096 6.137 A 1.229 1.229 0 0 0 11.268 6.148 A 1.927 1.927 0 0 0 11.718 6.099 Q 12.281 5.964 12.507 5.454 L 12.507 1.995 L 13.32 1.995 L 13.32 6.75 L 12.546 6.75 Z M 39.265 5.251 L 40.034 5.251 A 1.432 1.432 0 0 1 39.835 5.901 A 1.772 1.772 0 0 1 39.753 6.029 A 1.828 1.828 0 0 1 39.144 6.574 A 2.169 2.169 0 0 1 39.061 6.618 A 1.997 1.997 0 0 1 38.145 6.838 A 2.346 2.346 0 0 1 37.447 6.739 A 1.839 1.839 0 0 1 36.6 6.19 A 2.171 2.171 0 0 1 36.136 5.31 Q 36.026 4.909 36.026 4.417 L 36.026 4.28 A 3.24 3.24 0 0 1 36.09 3.624 A 2.57 2.57 0 0 1 36.281 3.045 A 2.008 2.008 0 0 1 36.721 2.431 A 1.892 1.892 0 0 1 37.013 2.206 A 1.943 1.943 0 0 1 37.769 1.934 A 2.529 2.529 0 0 1 38.14 1.907 A 2.196 2.196 0 0 1 38.788 1.999 A 1.786 1.786 0 0 1 39.469 2.386 A 1.693 1.693 0 0 1 40.028 3.535 A 2.239 2.239 0 0 1 40.034 3.63 L 39.265 3.63 Q 39.23 3.168 38.916 2.872 A 1.078 1.078 0 0 0 38.187 2.576 A 1.402 1.402 0 0 0 38.14 2.575 A 1.374 1.374 0 0 0 37.719 2.637 A 1.081 1.081 0 0 0 37.18 3.021 A 1.469 1.469 0 0 0 36.953 3.468 Q 36.887 3.674 36.86 3.923 A 3.514 3.514 0 0 0 36.839 4.311 L 36.839 4.465 Q 36.839 5.287 37.178 5.73 A 1.1 1.1 0 0 0 37.964 6.165 A 1.611 1.611 0 0 0 38.145 6.174 A 1.171 1.171 0 0 0 38.905 5.911 A 1.007 1.007 0 0 0 39.149 5.629 A 0.914 0.914 0 0 0 39.265 5.251 Z M 8.486 6.75 L 7.633 6.75 A 0.632 0.632 0 0 1 7.598 6.66 Q 7.567 6.562 7.542 6.41 A 3.997 3.997 0 0 1 7.519 6.249 Q 6.952 6.838 6.166 6.838 A 2.033 2.033 0 0 1 5.636 6.772 A 1.529 1.529 0 0 1 5.012 6.44 Q 4.562 6.042 4.562 5.432 Q 4.562 4.689 5.126 4.278 Q 5.691 3.867 6.715 3.867 L 7.506 3.867 L 7.506 3.494 A 1.152 1.152 0 0 0 7.47 3.199 A 0.828 0.828 0 0 0 7.251 2.815 Q 7.035 2.6 6.644 2.568 A 1.748 1.748 0 0 0 6.5 2.562 Q 6.064 2.562 5.77 2.782 Q 5.476 3.001 5.476 3.313 L 4.658 3.313 A 1.041 1.041 0 0 1 4.783 2.825 A 1.409 1.409 0 0 1 4.911 2.626 Q 5.164 2.294 5.596 2.101 A 2.249 2.249 0 0 1 6.372 1.913 A 2.669 2.669 0 0 1 6.548 1.907 A 2.65 2.65 0 0 1 7.065 1.955 Q 7.373 2.016 7.611 2.156 A 1.439 1.439 0 0 1 7.835 2.318 A 1.396 1.396 0 0 1 8.289 3.144 A 1.998 1.998 0 0 1 8.319 3.45 L 8.319 5.638 Q 8.319 6.073 8.392 6.39 A 1.707 1.707 0 0 0 8.486 6.68 L 8.486 6.75 Z M 31.263 4.504 L 31.263 4.355 A 3.17 3.17 0 0 1 31.339 3.646 A 2.581 2.581 0 0 1 31.533 3.092 A 2.191 2.191 0 0 1 31.98 2.466 A 2.033 2.033 0 0 1 32.289 2.221 Q 32.774 1.907 33.341 1.907 A 2.254 2.254 0 0 1 33.954 1.986 A 1.639 1.639 0 0 1 34.783 2.518 Q 35.297 3.129 35.297 4.267 L 35.297 4.605 L 32.076 4.605 A 2.111 2.111 0 0 0 32.147 5.114 A 1.516 1.516 0 0 0 32.487 5.741 A 1.282 1.282 0 0 0 33.421 6.173 A 1.652 1.652 0 0 0 33.486 6.174 A 1.763 1.763 0 0 0 33.814 6.145 Q 34.038 6.103 34.216 5.999 A 1.827 1.827 0 0 0 34.725 5.551 A 2.068 2.068 0 0 0 34.739 5.533 L 35.235 5.919 A 1.926 1.926 0 0 1 33.836 6.811 A 2.749 2.749 0 0 1 33.442 6.838 A 2.394 2.394 0 0 1 32.691 6.725 A 1.974 1.974 0 0 1 31.869 6.203 Q 31.263 5.568 31.263 4.504 Z M 17.029 0.844 L 17.842 0.844 L 17.842 1.995 L 18.729 1.995 L 18.729 2.624 L 17.842 2.624 L 17.842 5.572 Q 17.842 5.858 17.96 6.001 Q 18.079 6.144 18.365 6.144 A 1.046 1.046 0 0 0 18.462 6.138 Q 18.565 6.129 18.705 6.101 A 4.024 4.024 0 0 0 18.751 6.091 L 18.751 6.75 A 2.463 2.463 0 0 1 18.319 6.829 A 2.157 2.157 0 0 1 18.127 6.838 Q 17.68 6.838 17.414 6.616 A 0.856 0.856 0 0 1 17.306 6.508 Q 17.078 6.238 17.038 5.78 A 2.351 2.351 0 0 1 17.029 5.572 L 17.029 2.624 L 16.163 2.624 L 16.163 1.995 L 17.029 1.995 L 17.029 0.844 Z M 41.238 0.844 L 42.051 0.844 L 42.051 1.995 L 42.939 1.995 L 42.939 2.624 L 42.051 2.624 L 42.051 5.572 Q 42.051 5.858 42.17 6.001 Q 42.289 6.144 42.574 6.144 A 1.046 1.046 0 0 0 42.672 6.138 Q 42.774 6.129 42.914 6.101 A 4.024 4.024 0 0 0 42.961 6.091 L 42.961 6.75 A 2.463 2.463 0 0 1 42.528 6.829 A 2.157 2.157 0 0 1 42.337 6.838 Q 41.89 6.838 41.623 6.616 A 0.856 0.856 0 0 1 41.515 6.508 Q 41.288 6.238 41.247 5.78 A 2.351 2.351 0 0 1 41.238 5.572 L 41.238 2.624 L 40.373 2.624 L 40.373 1.995 L 41.238 1.995 L 41.238 0.844 Z M 29.347 1.995 L 30.16 1.995 L 30.16 7.299 A 2.203 2.203 0 0 1 30.104 7.817 Q 29.936 8.51 29.258 8.64 A 1.813 1.813 0 0 1 28.916 8.67 A 1.594 1.594 0 0 1 28.582 8.636 A 1.376 1.376 0 0 1 28.419 8.591 L 28.419 7.941 A 0.989 0.989 0 0 0 28.526 7.961 Q 28.583 7.969 28.648 7.972 A 2.444 2.444 0 0 0 28.789 7.976 A 0.807 0.807 0 0 0 28.95 7.961 Q 29.047 7.941 29.121 7.896 A 0.429 0.429 0 0 0 29.204 7.829 A 0.412 0.412 0 0 0 29.288 7.695 Q 29.339 7.57 29.346 7.379 A 1.721 1.721 0 0 0 29.347 7.317 L 29.347 1.995 Z M 15.438 0 L 15.438 6.75 L 14.625 6.75 L 14.625 0 L 15.438 0 Z M 45.857 4.386 L 45.857 4.329 A 3.057 3.057 0 0 1 45.944 3.587 A 2.573 2.573 0 0 1 46.132 3.072 A 2.16 2.16 0 0 1 46.546 2.486 A 1.957 1.957 0 0 1 46.896 2.21 A 2.036 2.036 0 0 1 47.841 1.913 A 2.491 2.491 0 0 1 48.015 1.907 A 2.277 2.277 0 0 1 48.768 2.027 A 1.937 1.937 0 0 1 49.586 2.58 A 2.29 2.29 0 0 1 50.105 3.608 A 3.373 3.373 0 0 1 50.186 4.368 L 50.186 4.425 A 3.114 3.114 0 0 1 50.106 5.142 A 2.577 2.577 0 0 1 49.92 5.671 A 2.056 2.056 0 0 1 49.392 6.361 A 2.001 2.001 0 0 1 49.159 6.53 A 2.045 2.045 0 0 1 48.24 6.829 A 2.529 2.529 0 0 1 48.023 6.838 A 2.262 2.262 0 0 1 47.273 6.718 A 1.938 1.938 0 0 1 46.457 6.166 A 2.297 2.297 0 0 1 45.931 5.111 A 3.357 3.357 0 0 1 45.857 4.386 Z M 22.939 0.352 L 22.939 6.75 L 22.096 6.75 L 22.096 0.352 L 22.939 0.352 Z M 44.771 1.995 L 44.771 6.75 L 43.958 6.75 L 43.958 1.995 L 44.771 1.995 Z M 46.674 4.425 A 2.772 2.772 0 0 0 46.722 4.954 Q 46.782 5.264 46.919 5.51 A 1.545 1.545 0 0 0 47.041 5.695 Q 47.408 6.174 48.023 6.174 A 1.269 1.269 0 0 0 48.513 6.083 Q 48.792 5.967 48.995 5.706 A 1.471 1.471 0 0 0 49.008 5.689 A 1.648 1.648 0 0 0 49.263 5.171 Q 49.331 4.945 49.357 4.672 A 3.655 3.655 0 0 0 49.373 4.329 A 2.687 2.687 0 0 0 49.321 3.789 Q 49.254 3.459 49.096 3.2 A 1.586 1.586 0 0 0 49.001 3.061 A 1.231 1.231 0 0 0 48.586 2.705 Q 48.333 2.575 48.015 2.575 Q 47.425 2.575 47.058 3.035 A 1.515 1.515 0 0 0 47.043 3.054 A 1.589 1.589 0 0 0 46.791 3.552 Q 46.722 3.772 46.694 4.039 A 3.676 3.676 0 0 0 46.674 4.425 Z M 7.506 5.418 L 7.506 4.443 L 6.869 4.443 Q 5.375 4.443 5.375 5.317 Q 5.375 5.7 5.629 5.915 A 0.893 0.893 0 0 0 6.043 6.108 A 1.259 1.259 0 0 0 6.284 6.13 A 1.429 1.429 0 0 0 7.009 5.933 A 1.335 1.335 0 0 0 7.305 5.705 A 1.108 1.108 0 0 0 7.506 5.418 Z M 32.102 3.938 L 34.484 3.938 L 34.484 3.876 Q 34.458 3.417 34.287 3.111 A 1.13 1.13 0 0 0 34.15 2.916 A 0.983 0.983 0 0 0 33.495 2.584 A 1.39 1.39 0 0 0 33.341 2.575 A 1.106 1.106 0 0 0 32.819 2.698 A 1.14 1.14 0 0 0 32.515 2.933 A 1.417 1.417 0 0 0 32.238 3.379 Q 32.165 3.563 32.125 3.785 A 2.741 2.741 0 0 0 32.102 3.938 Z M 43.893 0.734 Q 43.893 0.536 44.013 0.4 Q 44.125 0.274 44.337 0.264 A 0.783 0.783 0 0 1 44.372 0.264 Q 44.609 0.264 44.732 0.4 A 0.474 0.474 0 0 1 44.854 0.703 A 0.614 0.614 0 0 1 44.855 0.734 A 0.523 0.523 0 0 1 44.83 0.9 A 0.442 0.442 0 0 1 44.732 1.063 Q 44.619 1.184 44.411 1.194 A 0.803 0.803 0 0 1 44.372 1.195 Q 44.199 1.195 44.088 1.126 A 0.362 0.362 0 0 1 44.013 1.063 A 0.456 0.456 0 0 1 43.895 0.788 A 0.605 0.605 0 0 1 43.893 0.734 Z M 29.299 0.539 A 0.515 0.515 0 0 0 29.263 0.734 Q 29.263 0.932 29.382 1.063 Q 29.463 1.154 29.601 1.182 A 0.679 0.679 0 0 0 29.738 1.195 A 0.803 0.803 0 0 0 29.778 1.194 Q 29.986 1.184 30.098 1.063 A 0.442 0.442 0 0 0 30.196 0.9 A 0.523 0.523 0 0 0 30.221 0.734 A 0.614 0.614 0 0 0 30.22 0.703 A 0.474 0.474 0 0 0 30.098 0.4 Q 29.975 0.264 29.738 0.264 A 0.768 0.768 0 0 0 29.725 0.264 Q 29.501 0.268 29.384 0.402 A 0.482 0.482 0 0 0 29.299 0.539 Z" vector-effect="non-scaling-stroke"/></g><g transform="translate(12.5275, 64), scale(0.75)" id="svgGroup" stroke-linecap="round" fill-rule="evenodd" font-size="9pt" stroke="#000" stroke-width="0.25mm" fill="#000" style="stroke:#000;stroke-width:0.25mm;fill:#000"><path d="M 7.783 1.995 L 8.552 1.995 L 8.574 2.522 Q 9.097 1.907 9.985 1.907 A 2.009 2.009 0 0 1 10.495 1.968 A 1.244 1.244 0 0 1 11.342 2.672 A 1.801 1.801 0 0 1 11.96 2.118 A 1.65 1.65 0 0 1 12.489 1.937 A 2.209 2.209 0 0 1 12.859 1.907 A 2.119 2.119 0 0 1 13.503 1.997 Q 14.429 2.292 14.449 3.564 L 14.449 6.75 L 13.636 6.75 L 13.636 3.612 A 1.781 1.781 0 0 0 13.616 3.332 Q 13.592 3.185 13.542 3.067 A 0.758 0.758 0 0 0 13.403 2.85 A 0.68 0.68 0 0 0 13.151 2.682 Q 12.939 2.597 12.622 2.597 A 1.245 1.245 0 0 0 12.256 2.648 A 1.008 1.008 0 0 0 11.87 2.867 A 1.042 1.042 0 0 0 11.556 3.404 A 1.41 1.41 0 0 0 11.523 3.595 L 11.523 6.75 L 10.705 6.75 L 10.705 3.634 A 1.532 1.532 0 0 0 10.657 3.23 Q 10.53 2.768 10.073 2.643 A 1.457 1.457 0 0 0 9.69 2.597 Q 8.916 2.597 8.616 3.234 A 1.459 1.459 0 0 0 8.596 3.278 L 8.596 6.75 L 7.783 6.75 L 7.783 1.995 Z M 4.636 2.202 L 3.788 2.202 A 1.466 1.466 0 0 0 3.738 1.809 A 1.066 1.066 0 0 0 3.419 1.29 A 1.211 1.211 0 0 0 2.95 1.033 Q 2.698 0.958 2.378 0.958 A 2.286 2.286 0 0 0 1.998 0.988 Q 1.796 1.022 1.633 1.095 A 1.101 1.101 0 0 0 1.404 1.233 A 0.892 0.892 0 0 0 1.059 1.887 A 1.267 1.267 0 0 0 1.055 1.995 A 0.806 0.806 0 0 0 1.323 2.6 A 1.134 1.134 0 0 0 1.387 2.656 A 1.562 1.562 0 0 0 1.625 2.813 Q 1.955 2.993 2.516 3.151 A 8.228 8.228 0 0 1 2.981 3.295 Q 3.216 3.377 3.41 3.464 A 3.297 3.297 0 0 1 3.764 3.645 A 2.342 2.342 0 0 1 4.103 3.889 Q 4.293 4.056 4.415 4.248 A 1.45 1.45 0 0 1 4.432 4.276 A 1.498 1.498 0 0 1 4.628 4.832 A 1.948 1.948 0 0 1 4.65 5.124 A 1.606 1.606 0 0 1 4.527 5.76 Q 4.382 6.101 4.064 6.354 A 1.886 1.886 0 0 1 4.043 6.37 Q 3.437 6.838 2.422 6.838 A 3.023 3.023 0 0 1 1.281 6.623 A 2.917 2.917 0 0 1 1.191 6.585 A 2.383 2.383 0 0 1 0.713 6.307 A 1.874 1.874 0 0 1 0.31 5.893 A 1.689 1.689 0 0 1 0 4.896 L 0.848 4.896 A 1.261 1.261 0 0 0 0.918 5.323 A 1.074 1.074 0 0 0 1.277 5.812 Q 1.661 6.113 2.278 6.144 A 2.87 2.87 0 0 0 2.422 6.148 A 2.628 2.628 0 0 0 2.809 6.121 Q 3.005 6.092 3.164 6.031 A 1.129 1.129 0 0 0 3.445 5.875 Q 3.801 5.603 3.801 5.133 A 1.074 1.074 0 0 0 3.759 4.822 A 0.816 0.816 0 0 0 3.472 4.406 Q 3.142 4.148 2.277 3.898 Q 1.191 3.586 0.697 3.131 Q 0.202 2.676 0.202 2.008 Q 0.202 1.252 0.807 0.758 A 2.121 2.121 0 0 1 1.697 0.335 A 3.087 3.087 0 0 1 2.378 0.264 A 2.913 2.913 0 0 1 3.038 0.336 A 2.372 2.372 0 0 1 3.553 0.519 A 2.051 2.051 0 0 1 4.084 0.889 A 1.834 1.834 0 0 1 4.353 1.222 A 1.798 1.798 0 0 1 4.636 2.202 Z M 18.629 6.75 L 18.611 6.28 A 1.526 1.526 0 0 1 17.785 6.775 Q 17.535 6.836 17.237 6.838 A 2.996 2.996 0 0 1 17.218 6.838 A 2.086 2.086 0 0 1 16.758 6.79 Q 16.327 6.693 16.06 6.396 A 1.41 1.41 0 0 1 15.777 5.899 Q 15.66 5.556 15.658 5.089 L 15.658 1.995 L 16.471 1.995 L 16.471 5.067 Q 16.471 6.037 17.178 6.137 A 1.229 1.229 0 0 0 17.35 6.148 A 1.927 1.927 0 0 0 17.801 6.099 Q 18.363 5.964 18.589 5.454 L 18.589 1.995 L 19.402 1.995 L 19.402 6.75 L 18.629 6.75 Z M 26.609 6.75 L 25.756 6.75 A 0.632 0.632 0 0 1 25.721 6.66 Q 25.69 6.562 25.665 6.41 A 3.997 3.997 0 0 1 25.642 6.249 Q 25.075 6.838 24.289 6.838 A 2.033 2.033 0 0 1 23.759 6.772 A 1.529 1.529 0 0 1 23.135 6.44 Q 22.685 6.042 22.685 5.432 Q 22.685 4.689 23.249 4.278 Q 23.814 3.867 24.838 3.867 L 25.629 3.867 L 25.629 3.494 A 1.152 1.152 0 0 0 25.593 3.199 A 0.828 0.828 0 0 0 25.374 2.815 Q 25.158 2.6 24.768 2.568 A 1.748 1.748 0 0 0 24.623 2.562 Q 24.188 2.562 23.893 2.782 Q 23.599 3.001 23.599 3.313 L 22.781 3.313 A 1.041 1.041 0 0 1 22.906 2.825 A 1.409 1.409 0 0 1 23.034 2.626 Q 23.287 2.294 23.72 2.101 A 2.249 2.249 0 0 1 24.495 1.913 A 2.669 2.669 0 0 1 24.671 1.907 A 2.65 2.65 0 0 1 25.188 1.955 Q 25.496 2.016 25.735 2.156 A 1.439 1.439 0 0 1 25.959 2.318 A 1.396 1.396 0 0 1 26.412 3.144 A 1.998 1.998 0 0 1 26.442 3.45 L 26.442 5.638 Q 26.442 6.073 26.516 6.39 A 1.707 1.707 0 0 0 26.609 6.68 L 26.609 6.75 Z M 28.006 0.844 L 28.819 0.844 L 28.819 1.995 L 29.707 1.995 L 29.707 2.624 L 28.819 2.624 L 28.819 5.572 Q 28.819 5.858 28.938 6.001 Q 29.057 6.144 29.342 6.144 A 1.046 1.046 0 0 0 29.44 6.138 Q 29.543 6.129 29.682 6.101 A 4.024 4.024 0 0 0 29.729 6.091 L 29.729 6.75 A 2.463 2.463 0 0 1 29.296 6.829 A 2.157 2.157 0 0 1 29.105 6.838 Q 28.658 6.838 28.391 6.616 A 0.856 0.856 0 0 1 28.283 6.508 Q 28.056 6.238 28.015 5.78 A 2.351 2.351 0 0 1 28.006 5.572 L 28.006 2.624 L 27.141 2.624 L 27.141 1.995 L 28.006 1.995 L 28.006 0.844 Z M 21.52 0 L 21.52 6.75 L 20.707 6.75 L 20.707 0 L 21.52 0 Z M 30.353 4.386 L 30.353 4.329 A 3.057 3.057 0 0 1 30.44 3.587 A 2.573 2.573 0 0 1 30.628 3.072 A 2.16 2.16 0 0 1 31.043 2.486 A 1.957 1.957 0 0 1 31.392 2.21 A 2.036 2.036 0 0 1 32.337 1.913 A 2.491 2.491 0 0 1 32.511 1.907 A 2.277 2.277 0 0 1 33.264 2.027 A 1.937 1.937 0 0 1 34.082 2.58 A 2.29 2.29 0 0 1 34.601 3.608 A 3.373 3.373 0 0 1 34.682 4.368 L 34.682 4.425 A 3.114 3.114 0 0 1 34.602 5.142 A 2.577 2.577 0 0 1 34.416 5.671 A 2.056 2.056 0 0 1 33.889 6.361 A 2.001 2.001 0 0 1 33.656 6.53 A 2.045 2.045 0 0 1 32.736 6.829 A 2.529 2.529 0 0 1 32.52 6.838 A 2.262 2.262 0 0 1 31.769 6.718 A 1.938 1.938 0 0 1 30.953 6.166 A 2.297 2.297 0 0 1 30.427 5.111 A 3.357 3.357 0 0 1 30.353 4.386 Z M 38 1.969 L 38 2.725 A 2.251 2.251 0 0 0 37.757 2.698 A 2.782 2.782 0 0 0 37.6 2.694 Q 36.822 2.694 36.53 3.338 A 1.445 1.445 0 0 0 36.514 3.375 L 36.514 6.75 L 35.701 6.75 L 35.701 1.995 L 36.492 1.995 L 36.506 2.544 Q 36.886 1.938 37.568 1.909 A 1.636 1.636 0 0 1 37.639 1.907 Q 37.877 1.907 38 1.969 Z M 6.486 1.995 L 6.486 6.75 L 5.673 6.75 L 5.673 1.995 L 6.486 1.995 Z M 31.171 4.425 A 2.772 2.772 0 0 0 31.218 4.954 Q 31.278 5.264 31.416 5.51 A 1.545 1.545 0 0 0 31.538 5.695 Q 31.904 6.174 32.52 6.174 A 1.269 1.269 0 0 0 33.009 6.083 Q 33.288 5.967 33.491 5.706 A 1.471 1.471 0 0 0 33.504 5.689 A 1.648 1.648 0 0 0 33.759 5.171 Q 33.828 4.945 33.853 4.672 A 3.655 3.655 0 0 0 33.869 4.329 A 2.687 2.687 0 0 0 33.818 3.789 Q 33.75 3.459 33.593 3.2 A 1.586 1.586 0 0 0 33.497 3.061 A 1.231 1.231 0 0 0 33.082 2.705 Q 32.829 2.575 32.511 2.575 Q 31.921 2.575 31.555 3.035 A 1.515 1.515 0 0 0 31.54 3.054 A 1.589 1.589 0 0 0 31.288 3.552 Q 31.218 3.772 31.19 4.039 A 3.676 3.676 0 0 0 31.171 4.425 Z M 25.629 5.418 L 25.629 4.443 L 24.992 4.443 Q 23.498 4.443 23.498 5.317 Q 23.498 5.7 23.753 5.915 A 0.893 0.893 0 0 0 24.166 6.108 A 1.259 1.259 0 0 0 24.407 6.13 A 1.429 1.429 0 0 0 25.132 5.933 A 1.335 1.335 0 0 0 25.428 5.705 A 1.108 1.108 0 0 0 25.629 5.418 Z M 5.608 0.734 Q 5.608 0.536 5.728 0.4 Q 5.84 0.274 6.052 0.264 A 0.783 0.783 0 0 1 6.087 0.264 Q 6.324 0.264 6.447 0.4 A 0.474 0.474 0 0 1 6.569 0.703 A 0.614 0.614 0 0 1 6.57 0.734 A 0.523 0.523 0 0 1 6.545 0.9 A 0.442 0.442 0 0 1 6.447 1.063 Q 6.334 1.184 6.126 1.194 A 0.803 0.803 0 0 1 6.087 1.195 Q 5.914 1.195 5.803 1.126 A 0.362 0.362 0 0 1 5.728 1.063 A 0.456 0.456 0 0 1 5.61 0.788 A 0.605 0.605 0 0 1 5.608 0.734 Z" vector-effect="non-scaling-stroke"/></g>
</svg>