<?xml version="1.0" encoding="UTF-8"?>
<svg width="80px" height="80px" viewBox="0 0 80 80" version="1.1" xmlns="http://www.w3.org/2000/svg" xmlns:xlink="http://www.w3.org/1999/xlink">
    <!-- Generator: Sketch 64 (93537) - https://sketch.com -->
    <title>Icon-Architecture/64/Arch_AWS-License-Manager_64</title>
    <desc>Created with Sketch.</desc>
    
    <g id="Icon-Architecture/64/Arch_AWS-License-Manager_64" stroke="none" stroke-width="1" fill="none" fill-rule="evenodd">
        
        <path transform="translate(0vw, 0vh), scale(.65)" d="M39.976,39.673 C42.955,39.673 45.379,42.097 45.379,45.076 C45.379,48.055 42.955,50.479 39.976,50.479 C36.997,50.479 34.573,48.055 34.573,45.076 C34.573,42.097 36.997,39.673 39.976,39.673 L39.976,39.673 Z M39.976,52.479 C44.058,52.479 47.379,49.158 47.379,45.076 C47.379,40.994 44.058,37.673 39.976,37.673 C35.894,37.673 32.573,40.994 32.573,45.076 C32.573,49.158 35.894,52.479 39.976,52.479 L39.976,52.479 Z M38.354,47.613 L36.525,45.783 L37.939,44.369 L39.061,45.491 L42.013,42.54 L43.427,43.954 L39.768,47.613 C39.58,47.8 39.327,47.906 39.061,47.906 C38.795,47.906 38.541,47.8 38.354,47.613 L38.354,47.613 Z M26,32 L54,32 L54,30 L26,30 L26,32 Z M26,29 L54,29 L54,27 L26,27 L26,29 Z M26,26 L54,26 L54,24 L26,24 L26,26 Z M26,19 L37,19 L37,17 L26,17 L26,19 Z M29.949,45.101 C29.949,44.364 30.472,43.725 31.193,43.581 C31.564,43.507 31.861,43.231 31.961,42.867 C32.147,42.198 32.412,41.56 32.748,40.971 C32.93,40.654 32.924,40.264 32.733,39.952 C32.578,39.699 32.499,39.429 32.499,39.15 C32.499,38.295 33.195,37.599 34.049,37.599 C34.33,37.599 34.599,37.678 34.851,37.833 C35.164,38.023 35.554,38.029 35.871,37.848 C36.461,37.511 37.099,37.246 37.767,37.062 C38.131,36.961 38.407,36.664 38.481,36.294 C38.625,35.572 39.264,35.048 40,35.048 C40.737,35.048 41.375,35.572 41.52,36.294 C41.594,36.664 41.87,36.961 42.234,37.062 C42.902,37.246 43.539,37.511 44.13,37.848 C44.446,38.029 44.836,38.023 45.15,37.833 C45.402,37.678 45.671,37.599 45.952,37.599 C46.806,37.599 47.501,38.295 47.501,39.15 C47.501,39.429 47.423,39.699 47.268,39.952 C47.077,40.264 47.071,40.654 47.252,40.971 C47.589,41.56 47.854,42.198 48.039,42.867 C48.14,43.231 48.437,43.507 48.808,43.581 C49.529,43.725 50.052,44.364 50.052,45.101 C50.052,45.837 49.529,46.476 48.808,46.62 C48.437,46.694 48.14,46.97 48.039,47.334 C47.854,48.003 47.589,48.641 47.252,49.23 C47.071,49.548 47.078,49.938 47.268,50.25 C47.423,50.502 47.501,50.772 47.501,51.051 C47.501,51.906 46.806,52.602 45.952,52.602 C45.671,52.602 45.402,52.524 45.15,52.369 C44.838,52.177 44.446,52.171 44.13,52.353 C43.539,52.69 42.902,52.955 42.234,53.139 C41.87,53.24 41.594,53.537 41.52,53.907 C41.375,54.629 40.737,55.152 40,55.152 C39.264,55.152 38.625,54.629 38.481,53.907 C38.407,53.537 38.131,53.24 37.767,53.139 C37.099,52.955 36.461,52.69 35.871,52.353 C35.717,52.265 35.545,52.221 35.374,52.221 C35.193,52.221 35.011,52.27 34.851,52.369 C34.599,52.524 34.33,52.602 34.049,52.602 C33.195,52.602 32.499,51.906 32.499,51.051 C32.499,50.772 32.578,50.502 32.733,50.25 C32.923,49.938 32.93,49.548 32.748,49.23 C32.412,48.641 32.147,48.003 31.961,47.334 C31.861,46.97 31.564,46.694 31.193,46.62 C30.472,46.476 29.949,45.837 29.949,45.101 L29.949,45.101 Z M34.049,54.602 C34.497,54.602 34.94,54.514 35.357,54.346 C35.789,54.562 36.237,54.749 36.698,54.903 C37.224,56.237 38.527,57.152 40,57.152 C41.474,57.152 42.777,56.237 43.303,54.903 C43.764,54.749 44.212,54.562 44.644,54.346 C45.061,54.514 45.504,54.602 45.952,54.602 C47.909,54.602 49.501,53.009 49.501,51.051 C49.501,50.605 49.414,50.162 49.246,49.744 C49.461,49.313 49.648,48.865 49.803,48.403 C51.137,47.877 52.052,46.574 52.052,45.101 C52.052,43.627 51.137,42.324 49.803,41.798 C49.648,41.336 49.461,40.888 49.246,40.457 C49.414,40.039 49.501,39.596 49.501,39.15 C49.501,37.192 47.909,35.599 45.952,35.599 C45.505,35.599 45.061,35.687 44.644,35.855 C44.212,35.639 43.764,35.452 43.303,35.298 C42.777,33.964 41.474,33.048 40,33.048 C38.527,33.048 37.224,33.964 36.698,35.298 C36.237,35.452 35.789,35.639 35.357,35.855 C34.94,35.687 34.496,35.599 34.049,35.599 C32.092,35.599 30.499,37.192 30.499,39.15 C30.499,39.596 30.587,40.039 30.755,40.457 C30.539,40.888 30.353,41.336 30.198,41.798 C28.864,42.324 27.949,43.627 27.949,45.101 C27.949,46.574 28.864,47.877 30.198,48.403 C30.353,48.865 30.539,49.313 30.755,49.744 C30.587,50.162 30.499,50.605 30.499,51.051 C30.499,53.009 32.092,54.602 34.049,54.602 L34.049,54.602 Z M44,56 L46,56 L46,66 C46,66.384 45.78,66.735 45.434,66.901 C45.296,66.967 45.148,67 45,67 C44.778,67 44.556,66.925 44.375,66.78 L40,63.28 L35.625,66.78 C35.326,67.021 34.915,67.067 34.567,66.901 C34.221,66.735 34,66.384 34,66 L34,56 L36,56 L36,63.919 L39.375,61.219 C39.741,60.927 40.26,60.927 40.625,61.219 L44,63.919 L44,56 Z M52,16.414 L55.586,20 L52,20 L52,16.414 Z M58.707,20.293 L51.707,13.293 C51.52,13.105 51.266,13 51,13 L22,13 C21.448,13 21,13.447 21,14 L21,60 C21,60.552 21.448,61 22,61 L32,61 L32,59 L23,59 L23,15 L50,15 L50,21 C50,21.552 50.448,22 51,22 L57,22 L57,59 L48,59 L48,61 L58,61 C58.553,61 59,60.552 59,60 L59,21 C59,20.735 58.895,20.48 58.707,20.293 L58.707,20.293 Z" id="AWS-License-Manager_Icon_64_Squid" fill="#000000"></path>
    </g><g transform="translate(6.144500000000001, 64), scale(0.75)" id="svgGroup" stroke-linecap="round" fill-rule="evenodd" font-size="9pt" stroke="#000" stroke-width="0.25mm" fill="#000" style="stroke:#000;stroke-width:0.25mm;fill:#000"><path d="M 33.108 0.088 L 34.198 0.088 L 36.29 5.309 L 38.382 0.088 L 39.476 0.088 L 39.476 6.486 L 38.632 6.486 L 38.632 3.995 L 38.711 1.305 L 36.611 6.486 L 35.965 6.486 L 33.869 1.318 L 33.952 3.995 L 33.952 6.486 L 33.108 6.486 L 33.108 0.088 Z M 58.636 2.259 L 58.676 1.731 L 59.418 1.731 L 59.418 6.372 A 2.511 2.511 0 0 1 59.348 6.985 A 1.738 1.738 0 0 1 58.871 7.827 A 1.834 1.834 0 0 1 57.941 8.306 A 2.671 2.671 0 0 1 57.401 8.358 A 2.446 2.446 0 0 1 56.395 8.139 A 2.003 2.003 0 0 1 55.985 7.897 A 1.563 1.563 0 0 1 55.644 7.537 L 56.065 7.049 A 1.889 1.889 0 0 0 56.5 7.449 A 1.514 1.514 0 0 0 57.344 7.695 A 1.695 1.695 0 0 0 57.721 7.655 Q 57.99 7.594 58.184 7.438 A 1.037 1.037 0 0 0 58.269 7.361 A 1.09 1.09 0 0 0 58.546 6.868 Q 58.593 6.695 58.6 6.489 A 2.134 2.134 0 0 0 58.601 6.42 L 58.601 6.012 A 1.601 1.601 0 0 1 57.549 6.558 A 2.279 2.279 0 0 1 57.27 6.574 A 1.672 1.672 0 0 1 56.514 6.406 Q 56.192 6.246 55.943 5.933 A 2.14 2.14 0 0 1 55.918 5.902 A 2.316 2.316 0 0 1 55.535 5.122 Q 55.402 4.658 55.402 4.069 Q 55.402 3.208 55.71 2.62 A 2.096 2.096 0 0 1 55.916 2.301 Q 56.43 1.644 57.278 1.644 A 1.971 1.971 0 0 1 57.877 1.73 A 1.55 1.55 0 0 1 58.636 2.259 Z M 24.882 3.129 L 24.064 3.129 Q 24.064 2.795 23.781 2.553 Q 23.498 2.312 23.067 2.312 Q 22.623 2.312 22.373 2.505 A 0.653 0.653 0 0 0 22.198 2.704 Q 22.124 2.835 22.122 3 A 0.771 0.771 0 0 0 22.122 3.01 A 0.588 0.588 0 0 0 22.152 3.203 A 0.48 0.48 0 0 0 22.355 3.454 A 1.093 1.093 0 0 0 22.505 3.533 Q 22.669 3.605 22.925 3.673 A 6.581 6.581 0 0 0 23.197 3.74 A 6.318 6.318 0 0 1 23.604 3.844 Q 23.941 3.944 24.183 4.065 A 1.901 1.901 0 0 1 24.439 4.217 Q 24.576 4.315 24.673 4.429 A 1.06 1.06 0 0 1 24.743 4.52 A 1.024 1.024 0 0 1 24.906 4.927 A 1.388 1.388 0 0 1 24.926 5.168 Q 24.926 5.805 24.416 6.19 Q 23.934 6.554 23.18 6.573 A 3.337 3.337 0 0 1 23.093 6.574 A 2.746 2.746 0 0 1 22.559 6.524 A 2.124 2.124 0 0 1 22.083 6.372 A 1.771 1.771 0 0 1 21.649 6.094 A 1.54 1.54 0 0 1 21.395 5.807 Q 21.146 5.445 21.146 5.023 L 21.959 5.023 A 0.932 0.932 0 0 0 22.033 5.348 A 0.827 0.827 0 0 0 22.287 5.671 A 1.072 1.072 0 0 0 22.689 5.864 Q 22.844 5.903 23.025 5.91 A 2.013 2.013 0 0 0 23.093 5.911 A 1.863 1.863 0 0 0 23.389 5.889 Q 23.55 5.863 23.682 5.806 A 0.941 0.941 0 0 0 23.834 5.724 A 0.689 0.689 0 0 0 23.998 5.573 A 0.554 0.554 0 0 0 24.113 5.225 A 0.698 0.698 0 0 0 24.076 4.994 A 0.581 0.581 0 0 0 23.865 4.713 A 1.05 1.05 0 0 0 23.696 4.615 Q 23.507 4.524 23.212 4.449 A 5.392 5.392 0 0 0 22.999 4.399 A 6.342 6.342 0 0 1 22.638 4.311 Q 22.268 4.209 22.019 4.083 Q 21.72 3.93 21.55 3.731 A 1.017 1.017 0 0 1 21.483 3.643 Q 21.309 3.388 21.309 3.037 A 1.206 1.206 0 0 1 21.708 2.132 A 1.694 1.694 0 0 1 21.803 2.048 A 1.752 1.752 0 0 1 22.586 1.688 A 2.471 2.471 0 0 1 23.067 1.644 A 2.559 2.559 0 0 1 23.63 1.702 A 1.757 1.757 0 0 1 24.379 2.061 Q 24.882 2.479 24.882 3.129 Z M 16.378 1.731 L 17.147 1.731 L 17.174 2.329 Q 17.71 1.654 18.57 1.644 A 2.234 2.234 0 0 1 18.598 1.644 A 1.905 1.905 0 0 1 19.231 1.74 Q 20.073 2.036 20.116 3.242 A 3.668 3.668 0 0 1 20.118 3.344 L 20.118 6.486 L 19.305 6.486 L 19.305 3.34 A 1.837 1.837 0 0 0 19.283 3.06 Q 19.233 2.753 19.07 2.58 Q 18.884 2.381 18.531 2.343 A 1.66 1.66 0 0 0 18.352 2.334 A 1.253 1.253 0 0 0 17.937 2.4 A 1.123 1.123 0 0 0 17.657 2.544 A 1.432 1.432 0 0 0 17.191 3.098 L 17.191 6.486 L 16.378 6.486 L 16.378 1.731 Z M 45.734 1.731 L 46.503 1.731 L 46.529 2.329 Q 47.066 1.654 47.926 1.644 A 2.234 2.234 0 0 1 47.953 1.644 A 1.905 1.905 0 0 1 48.587 1.74 Q 49.428 2.036 49.471 3.242 A 3.668 3.668 0 0 1 49.474 3.344 L 49.474 6.486 L 48.661 6.486 L 48.661 3.34 A 1.837 1.837 0 0 0 48.638 3.06 Q 48.588 2.753 48.426 2.58 Q 48.239 2.381 47.886 2.343 A 1.66 1.66 0 0 0 47.707 2.334 A 1.253 1.253 0 0 0 47.293 2.4 A 1.123 1.123 0 0 0 47.013 2.544 A 1.432 1.432 0 0 0 46.547 3.098 L 46.547 6.486 L 45.734 6.486 L 45.734 1.731 Z M 9.927 4.988 L 10.696 4.988 A 1.432 1.432 0 0 1 10.497 5.638 A 1.772 1.772 0 0 1 10.415 5.766 A 1.828 1.828 0 0 1 9.806 6.31 A 2.169 2.169 0 0 1 9.723 6.355 A 1.997 1.997 0 0 1 8.807 6.574 A 2.346 2.346 0 0 1 8.109 6.476 A 1.839 1.839 0 0 1 7.262 5.926 A 2.171 2.171 0 0 1 6.798 5.046 Q 6.688 4.645 6.688 4.153 L 6.688 4.017 A 3.24 3.24 0 0 1 6.752 3.361 A 2.57 2.57 0 0 1 6.943 2.782 A 2.008 2.008 0 0 1 7.383 2.167 A 1.892 1.892 0 0 1 7.675 1.942 A 1.943 1.943 0 0 1 8.431 1.67 A 2.529 2.529 0 0 1 8.802 1.644 A 2.196 2.196 0 0 1 9.45 1.735 A 1.786 1.786 0 0 1 10.132 2.123 A 1.693 1.693 0 0 1 10.69 3.272 A 2.239 2.239 0 0 1 10.696 3.366 L 9.927 3.366 Q 9.892 2.905 9.578 2.608 A 1.078 1.078 0 0 0 8.849 2.312 A 1.402 1.402 0 0 0 8.802 2.312 A 1.374 1.374 0 0 0 8.381 2.373 A 1.081 1.081 0 0 0 7.842 2.758 A 1.469 1.469 0 0 0 7.615 3.205 Q 7.549 3.41 7.522 3.659 A 3.514 3.514 0 0 0 7.501 4.047 L 7.501 4.201 Q 7.501 5.023 7.84 5.467 A 1.1 1.1 0 0 0 8.626 5.901 A 1.611 1.611 0 0 0 8.807 5.911 A 1.171 1.171 0 0 0 9.567 5.647 A 1.007 1.007 0 0 0 9.811 5.366 A 0.914 0.914 0 0 0 9.927 4.988 Z M 44.626 6.486 L 43.774 6.486 A 0.632 0.632 0 0 1 43.738 6.396 Q 43.707 6.298 43.682 6.146 A 3.997 3.997 0 0 1 43.66 5.985 Q 43.093 6.574 42.306 6.574 A 2.033 2.033 0 0 1 41.777 6.509 A 1.529 1.529 0 0 1 41.153 6.177 Q 40.702 5.779 40.702 5.168 Q 40.702 4.425 41.267 4.014 Q 41.832 3.604 42.855 3.604 L 43.646 3.604 L 43.646 3.23 A 1.152 1.152 0 0 0 43.611 2.935 A 0.828 0.828 0 0 0 43.392 2.551 Q 43.175 2.337 42.785 2.304 A 1.748 1.748 0 0 0 42.64 2.298 Q 42.205 2.298 41.911 2.518 Q 41.616 2.738 41.616 3.05 L 40.799 3.05 A 1.041 1.041 0 0 1 40.924 2.561 A 1.409 1.409 0 0 1 41.052 2.362 Q 41.304 2.03 41.737 1.837 A 2.249 2.249 0 0 1 42.513 1.649 A 2.669 2.669 0 0 1 42.688 1.644 A 2.65 2.65 0 0 1 43.206 1.691 Q 43.513 1.752 43.752 1.892 A 1.439 1.439 0 0 1 43.976 2.054 A 1.396 1.396 0 0 1 44.429 2.88 A 1.998 1.998 0 0 1 44.459 3.186 L 44.459 5.375 Q 44.459 5.809 44.533 6.126 A 1.707 1.707 0 0 0 44.626 6.416 L 44.626 6.486 Z M 54.488 6.486 L 53.635 6.486 A 0.632 0.632 0 0 1 53.6 6.396 Q 53.569 6.298 53.544 6.146 A 3.997 3.997 0 0 1 53.521 5.985 Q 52.954 6.574 52.167 6.574 A 2.033 2.033 0 0 1 51.638 6.509 A 1.529 1.529 0 0 1 51.014 6.177 Q 50.563 5.779 50.563 5.168 Q 50.563 4.425 51.128 4.014 Q 51.693 3.604 52.717 3.604 L 53.508 3.604 L 53.508 3.23 A 1.152 1.152 0 0 0 53.472 2.935 A 0.828 0.828 0 0 0 53.253 2.551 Q 53.037 2.337 52.646 2.304 A 1.748 1.748 0 0 0 52.501 2.298 Q 52.066 2.298 51.772 2.518 Q 51.478 2.738 51.478 3.05 L 50.66 3.05 A 1.041 1.041 0 0 1 50.785 2.561 A 1.409 1.409 0 0 1 50.913 2.362 Q 51.166 2.03 51.598 1.837 A 2.249 2.249 0 0 1 52.374 1.649 A 2.669 2.669 0 0 1 52.55 1.644 A 2.65 2.65 0 0 1 53.067 1.691 Q 53.374 1.752 53.613 1.892 A 1.439 1.439 0 0 1 53.837 2.054 A 1.396 1.396 0 0 1 54.291 2.88 A 1.998 1.998 0 0 1 54.321 3.186 L 54.321 5.375 Q 54.321 5.809 54.394 6.126 A 1.707 1.707 0 0 0 54.488 6.416 L 54.488 6.486 Z M 11.404 4.241 L 11.404 4.091 A 3.17 3.17 0 0 1 11.48 3.382 A 2.581 2.581 0 0 1 11.674 2.828 A 2.191 2.191 0 0 1 12.122 2.202 A 2.033 2.033 0 0 1 12.43 1.958 Q 12.916 1.644 13.482 1.644 A 2.254 2.254 0 0 1 14.096 1.722 A 1.639 1.639 0 0 1 14.924 2.254 Q 15.438 2.865 15.438 4.003 L 15.438 4.342 L 12.217 4.342 A 2.111 2.111 0 0 0 12.288 4.85 A 1.516 1.516 0 0 0 12.628 5.478 A 1.282 1.282 0 0 0 13.562 5.909 A 1.652 1.652 0 0 0 13.627 5.911 A 1.763 1.763 0 0 0 13.956 5.882 Q 14.18 5.839 14.357 5.735 A 1.827 1.827 0 0 0 14.866 5.287 A 2.068 2.068 0 0 0 14.88 5.269 L 15.376 5.656 A 1.926 1.926 0 0 1 13.977 6.547 A 2.749 2.749 0 0 1 13.583 6.574 A 2.394 2.394 0 0 1 12.832 6.461 A 1.974 1.974 0 0 1 12.01 5.939 Q 11.404 5.304 11.404 4.241 Z M 25.778 4.241 L 25.778 4.091 A 3.17 3.17 0 0 1 25.855 3.382 A 2.581 2.581 0 0 1 26.049 2.828 A 2.191 2.191 0 0 1 26.496 2.202 A 2.033 2.033 0 0 1 26.804 1.958 Q 27.29 1.644 27.857 1.644 A 2.254 2.254 0 0 1 28.47 1.722 A 1.639 1.639 0 0 1 29.298 2.254 Q 29.813 2.865 29.813 4.003 L 29.813 4.342 L 26.591 4.342 A 2.111 2.111 0 0 0 26.662 4.85 A 1.516 1.516 0 0 0 27.002 5.478 A 1.282 1.282 0 0 0 27.936 5.909 A 1.652 1.652 0 0 0 28.002 5.911 A 1.763 1.763 0 0 0 28.33 5.882 Q 28.554 5.839 28.731 5.735 A 1.827 1.827 0 0 0 29.24 5.287 A 2.068 2.068 0 0 0 29.254 5.269 L 29.751 5.656 A 1.926 1.926 0 0 1 28.351 6.547 A 2.749 2.749 0 0 1 27.958 6.574 A 2.394 2.394 0 0 1 27.207 6.461 A 1.974 1.974 0 0 1 26.385 5.939 Q 25.778 5.304 25.778 4.241 Z M 60.438 4.241 L 60.438 4.091 A 3.17 3.17 0 0 1 60.514 3.382 A 2.581 2.581 0 0 1 60.708 2.828 A 2.191 2.191 0 0 1 61.156 2.202 A 2.033 2.033 0 0 1 61.464 1.958 Q 61.95 1.644 62.517 1.644 A 2.254 2.254 0 0 1 63.13 1.722 A 1.639 1.639 0 0 1 63.958 2.254 Q 64.472 2.865 64.472 4.003 L 64.472 4.342 L 61.251 4.342 A 2.111 2.111 0 0 0 61.322 4.85 A 1.516 1.516 0 0 0 61.662 5.478 A 1.282 1.282 0 0 0 62.596 5.909 A 1.652 1.652 0 0 0 62.662 5.911 A 1.763 1.763 0 0 0 62.99 5.882 Q 63.214 5.839 63.391 5.735 A 1.827 1.827 0 0 0 63.9 5.287 A 2.068 2.068 0 0 0 63.914 5.269 L 64.411 5.656 A 1.926 1.926 0 0 1 63.011 6.547 A 2.749 2.749 0 0 1 62.618 6.574 A 2.394 2.394 0 0 1 61.866 6.461 A 1.974 1.974 0 0 1 61.044 5.939 Q 60.438 5.304 60.438 4.241 Z M 0.848 0.088 L 0.848 5.796 L 3.88 5.796 L 3.88 6.486 L 0 6.486 L 0 0.088 L 0.848 0.088 Z M 67.711 1.705 L 67.711 2.461 A 2.251 2.251 0 0 0 67.468 2.435 A 2.782 2.782 0 0 0 67.311 2.43 Q 66.533 2.43 66.242 3.074 A 1.445 1.445 0 0 0 66.226 3.111 L 66.226 6.486 L 65.413 6.486 L 65.413 1.731 L 66.204 1.731 L 66.217 2.281 Q 66.597 1.675 67.28 1.645 A 1.636 1.636 0 0 1 67.351 1.644 Q 67.588 1.644 67.711 1.705 Z M 5.599 1.731 L 5.599 6.486 L 4.786 6.486 L 4.786 1.731 L 5.599 1.731 Z M 58.601 5.186 L 58.601 3.015 A 1.439 1.439 0 0 0 58.3 2.627 Q 57.996 2.356 57.556 2.335 A 1.578 1.578 0 0 0 57.48 2.334 Q 56.889 2.334 56.555 2.793 A 1.51 1.51 0 0 0 56.344 3.221 Q 56.278 3.425 56.247 3.676 A 3.955 3.955 0 0 0 56.219 4.162 Q 56.219 4.966 56.549 5.425 Q 56.878 5.884 57.472 5.884 A 1.32 1.32 0 0 0 57.981 5.79 Q 58.373 5.628 58.601 5.186 Z M 43.646 5.155 L 43.646 4.179 L 43.009 4.179 Q 41.515 4.179 41.515 5.054 Q 41.515 5.436 41.77 5.651 A 0.893 0.893 0 0 0 42.183 5.845 A 1.259 1.259 0 0 0 42.425 5.867 A 1.429 1.429 0 0 0 43.15 5.669 A 1.335 1.335 0 0 0 43.445 5.442 A 1.108 1.108 0 0 0 43.646 5.155 Z M 53.508 5.155 L 53.508 4.179 L 52.871 4.179 Q 51.376 4.179 51.376 5.054 Q 51.376 5.436 51.631 5.651 A 0.893 0.893 0 0 0 52.045 5.845 A 1.259 1.259 0 0 0 52.286 5.867 A 1.429 1.429 0 0 0 53.011 5.669 A 1.335 1.335 0 0 0 53.307 5.442 A 1.108 1.108 0 0 0 53.508 5.155 Z M 12.243 3.674 L 14.625 3.674 L 14.625 3.612 Q 14.599 3.153 14.428 2.848 A 1.13 1.13 0 0 0 14.291 2.652 A 0.983 0.983 0 0 0 13.637 2.32 A 1.39 1.39 0 0 0 13.482 2.312 A 1.106 1.106 0 0 0 12.96 2.435 A 1.14 1.14 0 0 0 12.656 2.67 A 1.417 1.417 0 0 0 12.38 3.116 Q 12.306 3.3 12.266 3.522 A 2.741 2.741 0 0 0 12.243 3.674 Z M 26.618 3.674 L 29 3.674 L 29 3.612 Q 28.973 3.153 28.803 2.848 A 1.13 1.13 0 0 0 28.666 2.652 A 0.983 0.983 0 0 0 28.011 2.32 A 1.39 1.39 0 0 0 27.857 2.312 A 1.106 1.106 0 0 0 27.334 2.435 A 1.14 1.14 0 0 0 27.031 2.67 A 1.417 1.417 0 0 0 26.754 3.116 Q 26.681 3.3 26.641 3.522 A 2.741 2.741 0 0 0 26.618 3.674 Z M 61.277 3.674 L 63.659 3.674 L 63.659 3.612 Q 63.633 3.153 63.462 2.848 A 1.13 1.13 0 0 0 63.325 2.652 A 0.983 0.983 0 0 0 62.671 2.32 A 1.39 1.39 0 0 0 62.517 2.312 A 1.106 1.106 0 0 0 61.994 2.435 A 1.14 1.14 0 0 0 61.69 2.67 A 1.417 1.417 0 0 0 61.414 3.116 Q 61.34 3.3 61.3 3.522 A 2.741 2.741 0 0 0 61.277 3.674 Z M 4.72 0.47 Q 4.72 0.272 4.841 0.136 Q 4.952 0.01 5.164 0.001 A 0.783 0.783 0 0 1 5.199 0 Q 5.436 0 5.559 0.136 A 0.474 0.474 0 0 1 5.681 0.44 A 0.614 0.614 0 0 1 5.682 0.47 A 0.523 0.523 0 0 1 5.657 0.636 A 0.442 0.442 0 0 1 5.559 0.8 Q 5.447 0.92 5.239 0.931 A 0.803 0.803 0 0 1 5.199 0.932 Q 5.026 0.932 4.916 0.862 A 0.362 0.362 0 0 1 4.841 0.8 A 0.456 0.456 0 0 1 4.722 0.525 A 0.605 0.605 0 0 1 4.72 0.47 Z" vector-effect="non-scaling-stroke"/></g>
</svg>