<?xml version="1.0" encoding="UTF-8"?>
<svg width="80px" height="80px" viewBox="0 0 80 80" version="1.1" xmlns="http://www.w3.org/2000/svg" xmlns:xlink="http://www.w3.org/1999/xlink">
    <title>Icon-Architecture/64/Arch_AWS-Resource-Explorer_64</title>
    
    <g id="Icon-Architecture/64/Arch_AWS-Resource-Explorer_64" stroke="none" stroke-width="1" fill="none" fill-rule="evenodd">
        
        <g id="Icon-Service/64/AWS-Resource-Explorer_64" transform="translate(14.000000, 11.999810)" fill="#000000">
            <path d="M33.459,21.0271895 L34.352,22.8171895 L31.769,24.1051895 L30.876,22.3151895 L33.459,21.0271895 Z M28.465,23.5891895 L29.297,25.4081895 L26,26.9151895 L26.002,28.9991895 L24.002,29.0001895 L24.001,27.1261895 L20.562,25.5421895 L21.397,23.7261895 L24.769,25.2781895 L28.465,23.5891895 Z M24,36.0001895 L26,36.0001895 L26,32.0001895 L24,32.0001895 L24,36.0001895 Z M24,43.0001895 L26,43.0001895 L26,39.0001895 L24,39.0001895 L24,43.0001895 Z M49.188,53.2001895 C48.476,53.9131895 47.379,54.3541895 46.664,53.6411895 L37.93,44.7021895 C38.963,43.9001895 39.89,42.9731895 40.691,41.9391895 L49.641,50.6491895 C50.33,51.3381895 49.935,52.4541895 49.188,53.2001895 L49.188,53.2001895 Z M26,53.3371895 L26,47.7401895 C26.807,47.8701895 27.629,47.9561895 28.472,47.9561895 C31.307,47.9561895 33.958,47.1761895 36.246,45.8391895 L37.575,47.1991895 L26,53.3371895 Z M2,15.6831895 L16.028,23.3291895 C14.134,25.8961895 13,29.0561895 13,32.4841895 C13,39.4601895 17.643,45.3681895 24,47.2911895 L24,53.3211895 L2,41.4041895 L2,15.6831895 Z M25.351,2.14018951 L46.866,14.2211895 L36.61,19.3501895 C34.242,17.8771895 31.459,17.0121895 28.472,17.0121895 C24.101,17.0121895 20.156,18.8421895 17.339,21.7661895 L3.107,14.0091895 L25.351,2.14018951 Z M28.472,45.9561895 C21.043,45.9561895 15,39.9131895 15,32.4841895 C15,25.0551895 21.043,19.0121895 28.472,19.0121895 C35.9,19.0121895 41.944,25.0551895 41.944,32.4841895 C41.944,39.9131895 35.9,45.9561895 28.472,45.9561895 L28.472,45.9561895 Z M44.947,43.2901895 L41.829,40.2561895 C43.165,37.9691895 43.944,35.3181895 43.944,32.4841895 C43.944,27.7501895 41.802,23.5111895 38.441,20.6701895 L48,15.8911895 L48,41.6711895 L44.947,43.2901895 Z M51.045,49.2251895 L46.452,44.7551895 L49.469,43.1561895 C49.796,42.9831895 50,42.6431895 50,42.2731895 L50,14.2731895 C50,13.9111895 49.805,13.5781895 49.489,13.4011895 L25.853,0.128189505 C25.556,-0.0388104946 25.194,-0.0428104946 24.893,0.117189505 L0.529,13.1171895 C0.203,13.2911895 -3.55271368e-15,13.6311895 -3.55271368e-15,14.0001895 L-3.55271368e-15,42.0001895 C-3.55271368e-15,42.3671895 0.201,42.7041895 0.523,42.8791895 L24.523,55.8791895 C24.672,55.9601895 24.836,56.0001895 25,56.0001895 C25.161,56.0001895 25.322,55.9611895 25.469,55.8831895 L39.032,48.6901895 L45.242,55.0471895 C45.886,55.6911895 46.697,56.0071895 47.548,56.0071895 C48.585,56.0071895 49.681,55.5361895 50.603,54.6141895 C52.265,52.9531895 52.46,50.6401895 51.045,49.2251895 L51.045,49.2251895 Z" id="Fill-1"></path>
        </g>
    </g><g transform="translate(4.2194999999999965, 64), scale(0.75)" id="svgGroup" stroke-linecap="round" fill-rule="evenodd" font-size="9pt" stroke="#000" stroke-width="0.25mm" fill="#000" style="stroke:#000;stroke-width:0.25mm;fill:#000"><path d="M 43.334 3.103 L 43.334 3.792 L 40.562 3.792 L 40.562 6.06 L 43.783 6.06 L 43.783 6.75 L 39.718 6.75 L 39.718 0.352 L 43.739 0.352 L 43.739 1.046 L 40.562 1.046 L 40.562 3.103 L 43.334 3.103 Z M 3.74 6.75 L 2.351 4.162 L 0.848 4.162 L 0.848 6.75 L 0 6.75 L 0 0.352 L 2.118 0.352 A 3.809 3.809 0 0 1 2.76 0.402 Q 3.102 0.461 3.376 0.587 A 1.789 1.789 0 0 1 3.781 0.844 A 1.588 1.588 0 0 1 4.307 1.732 A 2.453 2.453 0 0 1 4.364 2.276 A 1.864 1.864 0 0 1 4.273 2.868 A 1.64 1.64 0 0 1 4.041 3.318 A 1.849 1.849 0 0 1 3.382 3.875 A 2.342 2.342 0 0 1 3.142 3.981 L 4.645 6.697 L 4.645 6.75 L 3.74 6.75 Z M 13.724 3.393 L 12.907 3.393 Q 12.907 3.059 12.623 2.817 Q 12.34 2.575 11.909 2.575 Q 11.465 2.575 11.215 2.769 A 0.653 0.653 0 0 0 11.04 2.967 Q 10.967 3.098 10.964 3.263 A 0.771 0.771 0 0 0 10.964 3.274 A 0.588 0.588 0 0 0 10.994 3.467 A 0.48 0.48 0 0 0 11.197 3.718 A 1.093 1.093 0 0 0 11.348 3.796 Q 11.512 3.868 11.767 3.937 A 6.581 6.581 0 0 0 12.039 4.003 A 6.318 6.318 0 0 1 12.446 4.108 Q 12.783 4.208 13.025 4.329 A 1.901 1.901 0 0 1 13.281 4.481 Q 13.418 4.579 13.516 4.692 A 1.06 1.06 0 0 1 13.586 4.783 A 1.024 1.024 0 0 1 13.748 5.191 A 1.388 1.388 0 0 1 13.768 5.432 Q 13.768 6.069 13.258 6.453 Q 12.776 6.817 12.022 6.837 A 3.337 3.337 0 0 1 11.936 6.838 A 2.746 2.746 0 0 1 11.401 6.788 A 2.124 2.124 0 0 1 10.925 6.636 A 1.771 1.771 0 0 1 10.491 6.358 A 1.54 1.54 0 0 1 10.237 6.071 Q 9.989 5.708 9.989 5.287 L 10.802 5.287 A 0.932 0.932 0 0 0 10.875 5.612 A 0.827 0.827 0 0 0 11.129 5.935 A 1.072 1.072 0 0 0 11.531 6.128 Q 11.686 6.167 11.867 6.173 A 2.013 2.013 0 0 0 11.936 6.174 A 1.863 1.863 0 0 0 12.231 6.152 Q 12.393 6.126 12.524 6.07 A 0.941 0.941 0 0 0 12.676 5.988 A 0.689 0.689 0 0 0 12.841 5.837 A 0.554 0.554 0 0 0 12.955 5.489 A 0.698 0.698 0 0 0 12.919 5.258 A 0.581 0.581 0 0 0 12.707 4.977 A 1.05 1.05 0 0 0 12.538 4.878 Q 12.349 4.788 12.054 4.712 A 5.392 5.392 0 0 0 11.841 4.663 A 6.342 6.342 0 0 1 11.48 4.575 Q 11.11 4.473 10.861 4.346 Q 10.562 4.194 10.392 3.994 A 1.017 1.017 0 0 1 10.325 3.907 Q 10.151 3.652 10.151 3.3 A 1.206 1.206 0 0 1 10.55 2.396 A 1.694 1.694 0 0 1 10.646 2.312 A 1.752 1.752 0 0 1 11.429 1.952 A 2.471 2.471 0 0 1 11.909 1.907 A 2.559 2.559 0 0 1 12.473 1.966 A 1.757 1.757 0 0 1 13.221 2.325 Q 13.724 2.742 13.724 3.393 Z M 22.913 6.75 L 22.896 6.28 A 1.526 1.526 0 0 1 22.069 6.775 Q 21.819 6.836 21.522 6.838 A 2.996 2.996 0 0 1 21.502 6.838 A 2.086 2.086 0 0 1 21.043 6.79 Q 20.612 6.693 20.344 6.396 A 1.41 1.41 0 0 1 20.061 5.899 Q 19.945 5.556 19.942 5.089 L 19.942 1.995 L 20.755 1.995 L 20.755 5.067 Q 20.755 6.037 21.463 6.137 A 1.229 1.229 0 0 0 21.634 6.148 A 1.927 1.927 0 0 0 22.085 6.099 Q 22.648 5.964 22.874 5.454 L 22.874 1.995 L 23.687 1.995 L 23.687 6.75 L 22.913 6.75 Z M 45.259 1.995 L 46.301 3.731 L 47.355 1.995 L 48.305 1.995 L 46.749 4.346 L 48.353 6.75 L 47.413 6.75 L 46.314 4.97 L 45.215 6.75 L 44.271 6.75 L 45.875 4.346 L 44.319 1.995 L 45.259 1.995 Z M 30.911 5.251 L 31.68 5.251 A 1.432 1.432 0 0 1 31.481 5.901 A 1.772 1.772 0 0 1 31.399 6.029 A 1.828 1.828 0 0 1 30.79 6.574 A 2.169 2.169 0 0 1 30.707 6.618 A 1.997 1.997 0 0 1 29.791 6.838 A 2.346 2.346 0 0 1 29.093 6.739 A 1.839 1.839 0 0 1 28.246 6.19 A 2.171 2.171 0 0 1 27.782 5.31 Q 27.672 4.909 27.672 4.417 L 27.672 4.28 A 3.24 3.24 0 0 1 27.736 3.624 A 2.57 2.57 0 0 1 27.927 3.045 A 2.008 2.008 0 0 1 28.367 2.431 A 1.892 1.892 0 0 1 28.659 2.206 A 1.943 1.943 0 0 1 29.415 1.934 A 2.529 2.529 0 0 1 29.786 1.907 A 2.196 2.196 0 0 1 30.434 1.999 A 1.786 1.786 0 0 1 31.115 2.386 A 1.693 1.693 0 0 1 31.674 3.535 A 2.239 2.239 0 0 1 31.68 3.63 L 30.911 3.63 Q 30.876 3.168 30.562 2.872 A 1.078 1.078 0 0 0 29.833 2.576 A 1.402 1.402 0 0 0 29.786 2.575 A 1.374 1.374 0 0 0 29.365 2.637 A 1.081 1.081 0 0 0 28.826 3.021 A 1.469 1.469 0 0 0 28.599 3.468 Q 28.533 3.674 28.506 3.923 A 3.514 3.514 0 0 0 28.485 4.311 L 28.485 4.465 Q 28.485 5.287 28.824 5.73 A 1.1 1.1 0 0 0 29.61 6.165 A 1.611 1.611 0 0 0 29.791 6.174 A 1.171 1.171 0 0 0 30.551 5.911 A 1.007 1.007 0 0 0 30.795 5.629 A 0.914 0.914 0 0 0 30.911 5.251 Z M 53.183 4.351 L 53.183 4.425 Q 53.183 5.511 52.686 6.174 A 1.57 1.57 0 0 1 51.548 6.828 A 2.013 2.013 0 0 1 51.341 6.838 A 2.196 2.196 0 0 1 50.755 6.764 A 1.598 1.598 0 0 1 49.979 6.289 L 49.979 8.578 L 49.166 8.578 L 49.166 1.995 L 49.909 1.995 L 49.948 2.522 A 1.619 1.619 0 0 1 51.087 1.919 A 2.319 2.319 0 0 1 51.328 1.907 A 1.829 1.829 0 0 1 51.965 2.014 A 1.597 1.597 0 0 1 52.684 2.553 Q 53.183 3.199 53.183 4.351 Z M 5.212 4.504 L 5.212 4.355 A 3.17 3.17 0 0 1 5.288 3.646 A 2.581 2.581 0 0 1 5.482 3.092 A 2.191 2.191 0 0 1 5.93 2.466 A 2.033 2.033 0 0 1 6.238 2.221 Q 6.724 1.907 7.291 1.907 A 2.254 2.254 0 0 1 7.904 1.986 A 1.639 1.639 0 0 1 8.732 2.518 Q 9.246 3.129 9.246 4.267 L 9.246 4.605 L 6.025 4.605 A 2.111 2.111 0 0 0 6.096 5.114 A 1.516 1.516 0 0 0 6.436 5.741 A 1.282 1.282 0 0 0 7.37 6.173 A 1.652 1.652 0 0 0 7.436 6.174 A 1.763 1.763 0 0 0 7.764 6.145 Q 7.988 6.103 8.165 5.999 A 1.827 1.827 0 0 0 8.674 5.551 A 2.068 2.068 0 0 0 8.688 5.533 L 9.185 5.919 A 1.926 1.926 0 0 1 7.785 6.811 A 2.749 2.749 0 0 1 7.392 6.838 A 2.394 2.394 0 0 1 6.64 6.725 A 1.974 1.974 0 0 1 5.818 6.203 Q 5.212 5.568 5.212 4.504 Z M 32.388 4.504 L 32.388 4.355 A 3.17 3.17 0 0 1 32.464 3.646 A 2.581 2.581 0 0 1 32.658 3.092 A 2.191 2.191 0 0 1 33.105 2.466 A 2.033 2.033 0 0 1 33.414 2.221 Q 33.899 1.907 34.466 1.907 A 2.254 2.254 0 0 1 35.079 1.986 A 1.639 1.639 0 0 1 35.908 2.518 Q 36.422 3.129 36.422 4.267 L 36.422 4.605 L 33.201 4.605 A 2.111 2.111 0 0 0 33.272 5.114 A 1.516 1.516 0 0 0 33.612 5.741 A 1.282 1.282 0 0 0 34.546 6.173 A 1.652 1.652 0 0 0 34.611 6.174 A 1.763 1.763 0 0 0 34.939 6.145 Q 35.163 6.103 35.341 5.999 A 1.827 1.827 0 0 0 35.85 5.551 A 2.068 2.068 0 0 0 35.864 5.533 L 36.36 5.919 A 1.926 1.926 0 0 1 34.961 6.811 A 2.749 2.749 0 0 1 34.567 6.838 A 2.394 2.394 0 0 1 33.816 6.725 A 1.974 1.974 0 0 1 32.994 6.203 Q 32.388 5.568 32.388 4.504 Z M 64.288 4.504 L 64.288 4.355 A 3.17 3.17 0 0 1 64.364 3.646 A 2.581 2.581 0 0 1 64.558 3.092 A 2.191 2.191 0 0 1 65.005 2.466 A 2.033 2.033 0 0 1 65.314 2.221 Q 65.799 1.907 66.366 1.907 A 2.254 2.254 0 0 1 66.979 1.986 A 1.639 1.639 0 0 1 67.808 2.518 Q 68.322 3.129 68.322 4.267 L 68.322 4.605 L 65.101 4.605 A 2.111 2.111 0 0 0 65.172 5.114 A 1.516 1.516 0 0 0 65.511 5.741 A 1.282 1.282 0 0 0 66.446 6.173 A 1.652 1.652 0 0 0 66.511 6.174 A 1.763 1.763 0 0 0 66.839 6.145 Q 67.063 6.103 67.241 5.999 A 1.827 1.827 0 0 0 67.75 5.551 A 2.068 2.068 0 0 0 67.764 5.533 L 68.26 5.919 A 1.926 1.926 0 0 1 66.861 6.811 A 2.749 2.749 0 0 1 66.467 6.838 A 2.394 2.394 0 0 1 65.716 6.725 A 1.974 1.974 0 0 1 64.894 6.203 Q 64.288 5.568 64.288 4.504 Z M 55.099 0 L 55.099 6.75 L 54.286 6.75 L 54.286 0 L 55.099 0 Z M 14.612 4.386 L 14.612 4.329 A 3.057 3.057 0 0 1 14.699 3.587 A 2.573 2.573 0 0 1 14.886 3.072 A 2.16 2.16 0 0 1 15.301 2.486 A 1.957 1.957 0 0 1 15.651 2.21 A 2.036 2.036 0 0 1 16.596 1.913 A 2.491 2.491 0 0 1 16.77 1.907 A 2.277 2.277 0 0 1 17.523 2.027 A 1.937 1.937 0 0 1 18.341 2.58 A 2.29 2.29 0 0 1 18.86 3.608 A 3.373 3.373 0 0 1 18.94 4.368 L 18.94 4.425 A 3.114 3.114 0 0 1 18.861 5.142 A 2.577 2.577 0 0 1 18.675 5.671 A 2.056 2.056 0 0 1 18.147 6.361 A 2.001 2.001 0 0 1 17.914 6.53 A 2.045 2.045 0 0 1 16.995 6.829 A 2.529 2.529 0 0 1 16.778 6.838 A 2.262 2.262 0 0 1 16.028 6.718 A 1.938 1.938 0 0 1 15.212 6.166 A 2.297 2.297 0 0 1 14.686 5.111 A 3.357 3.357 0 0 1 14.612 4.386 Z M 56.184 4.386 L 56.184 4.329 A 3.057 3.057 0 0 1 56.271 3.587 A 2.573 2.573 0 0 1 56.459 3.072 A 2.16 2.16 0 0 1 56.873 2.486 A 1.957 1.957 0 0 1 57.223 2.21 A 2.036 2.036 0 0 1 58.168 1.913 A 2.491 2.491 0 0 1 58.342 1.907 A 2.277 2.277 0 0 1 59.095 2.027 A 1.937 1.937 0 0 1 59.913 2.58 A 2.29 2.29 0 0 1 60.432 3.608 A 3.373 3.373 0 0 1 60.513 4.368 L 60.513 4.425 A 3.114 3.114 0 0 1 60.433 5.142 A 2.577 2.577 0 0 1 60.247 5.671 A 2.056 2.056 0 0 1 59.719 6.361 A 2.001 2.001 0 0 1 59.487 6.53 A 2.045 2.045 0 0 1 58.567 6.829 A 2.529 2.529 0 0 1 58.351 6.838 A 2.262 2.262 0 0 1 57.6 6.718 A 1.938 1.938 0 0 1 56.784 6.166 A 2.297 2.297 0 0 1 56.258 5.111 A 3.357 3.357 0 0 1 56.184 4.386 Z M 27.22 1.969 L 27.22 2.725 A 2.251 2.251 0 0 0 26.977 2.698 A 2.782 2.782 0 0 0 26.82 2.694 Q 26.042 2.694 25.75 3.338 A 1.445 1.445 0 0 0 25.734 3.375 L 25.734 6.75 L 24.921 6.75 L 24.921 1.995 L 25.712 1.995 L 25.726 2.544 Q 26.106 1.938 26.789 1.909 A 1.636 1.636 0 0 1 26.859 1.907 Q 27.097 1.907 27.22 1.969 Z M 63.831 1.969 L 63.831 2.725 A 2.251 2.251 0 0 0 63.588 2.698 A 2.782 2.782 0 0 0 63.431 2.694 Q 62.653 2.694 62.361 3.338 A 1.445 1.445 0 0 0 62.345 3.375 L 62.345 6.75 L 61.532 6.75 L 61.532 1.995 L 62.323 1.995 L 62.336 2.544 Q 62.717 1.938 63.399 1.909 A 1.636 1.636 0 0 1 63.47 1.907 Q 63.708 1.907 63.831 1.969 Z M 71.561 1.969 L 71.561 2.725 A 2.251 2.251 0 0 0 71.318 2.698 A 2.782 2.782 0 0 0 71.161 2.694 Q 70.383 2.694 70.091 3.338 A 1.445 1.445 0 0 0 70.075 3.375 L 70.075 6.75 L 69.262 6.75 L 69.262 1.995 L 70.053 1.995 L 70.066 2.544 Q 70.447 1.938 71.129 1.909 A 1.636 1.636 0 0 1 71.2 1.907 Q 71.438 1.907 71.561 1.969 Z M 15.429 4.425 A 2.772 2.772 0 0 0 15.477 4.954 Q 15.537 5.264 15.674 5.51 A 1.545 1.545 0 0 0 15.796 5.695 Q 16.163 6.174 16.778 6.174 A 1.269 1.269 0 0 0 17.268 6.083 Q 17.547 5.967 17.75 5.706 A 1.471 1.471 0 0 0 17.763 5.689 A 1.648 1.648 0 0 0 18.018 5.171 Q 18.086 4.945 18.112 4.672 A 3.655 3.655 0 0 0 18.127 4.329 A 2.687 2.687 0 0 0 18.076 3.789 Q 18.009 3.459 17.851 3.2 A 1.586 1.586 0 0 0 17.756 3.061 A 1.231 1.231 0 0 0 17.341 2.705 Q 17.088 2.575 16.77 2.575 Q 16.18 2.575 15.813 3.035 A 1.515 1.515 0 0 0 15.798 3.054 A 1.589 1.589 0 0 0 15.546 3.552 Q 15.477 3.772 15.449 4.039 A 3.676 3.676 0 0 0 15.429 4.425 Z M 57.001 4.425 A 2.772 2.772 0 0 0 57.049 4.954 Q 57.109 5.264 57.247 5.51 A 1.545 1.545 0 0 0 57.368 5.695 Q 57.735 6.174 58.351 6.174 A 1.269 1.269 0 0 0 58.84 6.083 Q 59.119 5.967 59.322 5.706 A 1.471 1.471 0 0 0 59.335 5.689 A 1.648 1.648 0 0 0 59.59 5.171 Q 59.659 4.945 59.684 4.672 A 3.655 3.655 0 0 0 59.7 4.329 A 2.687 2.687 0 0 0 59.649 3.789 Q 59.581 3.459 59.424 3.2 A 1.586 1.586 0 0 0 59.328 3.061 A 1.231 1.231 0 0 0 58.913 2.705 Q 58.66 2.575 58.342 2.575 Q 57.752 2.575 57.386 3.035 A 1.515 1.515 0 0 0 57.371 3.054 A 1.589 1.589 0 0 0 57.118 3.552 Q 57.049 3.772 57.021 4.039 A 3.676 3.676 0 0 0 57.001 4.425 Z M 49.979 3.252 L 49.979 5.524 Q 50.344 6.174 51.095 6.174 A 1.184 1.184 0 0 0 51.561 6.086 Q 51.818 5.977 52.006 5.735 A 1.403 1.403 0 0 0 52.025 5.711 A 1.501 1.501 0 0 0 52.242 5.28 Q 52.31 5.073 52.341 4.818 A 3.91 3.91 0 0 0 52.37 4.333 Q 52.37 3.746 52.187 3.339 A 1.503 1.503 0 0 0 52.027 3.063 A 1.086 1.086 0 0 0 51.241 2.605 A 1.414 1.414 0 0 0 51.086 2.597 Q 50.426 2.597 50.061 3.121 A 1.623 1.623 0 0 0 49.979 3.252 Z M 0.848 1.046 L 0.848 3.472 L 2.145 3.472 Q 2.685 3.472 3.035 3.231 A 1.174 1.174 0 0 0 3.144 3.146 A 1.069 1.069 0 0 0 3.51 2.409 A 1.486 1.486 0 0 0 3.516 2.276 Q 3.516 1.734 3.22 1.423 A 1 1 0 0 0 3.162 1.367 Q 2.808 1.05 2.14 1.046 L 0.848 1.046 Z M 6.051 3.938 L 8.433 3.938 L 8.433 3.876 Q 8.407 3.417 8.236 3.111 A 1.13 1.13 0 0 0 8.099 2.916 A 0.983 0.983 0 0 0 7.445 2.584 A 1.39 1.39 0 0 0 7.291 2.575 A 1.106 1.106 0 0 0 6.768 2.698 A 1.14 1.14 0 0 0 6.464 2.933 A 1.417 1.417 0 0 0 6.188 3.379 Q 6.114 3.563 6.074 3.785 A 2.741 2.741 0 0 0 6.051 3.938 Z M 33.227 3.938 L 35.609 3.938 L 35.609 3.876 Q 35.583 3.417 35.412 3.111 A 1.13 1.13 0 0 0 35.275 2.916 A 0.983 0.983 0 0 0 34.62 2.584 A 1.39 1.39 0 0 0 34.466 2.575 A 1.106 1.106 0 0 0 33.944 2.698 A 1.14 1.14 0 0 0 33.64 2.933 A 1.417 1.417 0 0 0 33.363 3.379 Q 33.29 3.563 33.25 3.785 A 2.741 2.741 0 0 0 33.227 3.938 Z M 65.127 3.938 L 67.509 3.938 L 67.509 3.876 Q 67.483 3.417 67.312 3.111 A 1.13 1.13 0 0 0 67.175 2.916 A 0.983 0.983 0 0 0 66.52 2.584 A 1.39 1.39 0 0 0 66.366 2.575 A 1.106 1.106 0 0 0 65.844 2.698 A 1.14 1.14 0 0 0 65.54 2.933 A 1.417 1.417 0 0 0 65.263 3.379 Q 65.19 3.563 65.15 3.785 A 2.741 2.741 0 0 0 65.127 3.938 Z" vector-effect="non-scaling-stroke"/></g>
</svg>