<?xml version="1.0" encoding="UTF-8"?>
<svg width="48px" height="48px" viewBox="0 0 48 48" version="1.1" xmlns="http://www.w3.org/2000/svg" xmlns:xlink="http://www.w3.org/1999/xlink">
    <title>Icon-Resource/Compute/Res_Amazon-EC2_X2ed-Instance_48_Light</title>
    <g id="Icon-Resource/Compute/Res_Amazon-EC2_X2ed-Instance_48" stroke="none" stroke-width="1" fill="none" fill-rule="evenodd">
        <path transform="translate(12.000000, 8.000000), scale(.65)" d="M9,39 L39,39 L39,9 L9,9 L9,39 Z M41,13 L41,17 L46,17 L46,19 L41,19 L41,23 L46,23 L46,25 L41,25 L41,29 L46,29 L46,31 L41,31 L41,35 L46,35 L46,37 L41,37 L41,40 C41,40.552 40.552,41 40,41 L37,41 L37,46 L35,46 L35,41 L31,41 L31,46 L29,46 L29,41 L25,41 L25,46 L23,46 L23,41 L19,41 L19,46 L17,46 L17,41 L13,41 L13,46 L11,46 L11,41 L8,41 C7.448,41 7,40.552 7,40 L7,37 L2,37 L2,35 L7,35 L7,31 L2,31 L2,29 L7,29 L7,25 L2,25 L2,23 L7,23 L7,19 L2,19 L2,17 L7,17 L7,13 L2,13 L2,11 L7,11 L7,8 C7,7.448 7.448,7 8,7 L11,7 L11,2 L13,2 L13,7 L17,7 L17,2 L19,2 L19,7 L23,7 L23,2 L25,2 L25,7 L29,7 L29,2 L31,2 L31,7 L35,7 L35,2 L37,2 L37,7 L40,7 C40.552,7 41,7.448 41,8 L41,11 L46,11 L46,13 L41,13 Z M33.541,23.245 C33.955,22.981 34.359,22.849 34.755,22.849 C35.02,22.849 35.211,22.917 35.332,23.052 C35.452,23.187 35.512,23.401 35.512,23.695 L35.512,26.728 L36.574,26.728 L36.574,23.362 C36.574,22.924 36.459,22.589 36.231,22.358 C36.003,22.127 35.67,22.012 35.232,22.012 C34.621,22.012 34.033,22.225 33.469,22.651 L33.36,22.147 L32.479,22.147 L32.479,26.728 L33.541,26.728 L33.541,23.245 Z M28.383,24.406 C28.383,25.462 28.767,25.99 29.535,25.99 C29.889,25.99 30.234,25.876 30.57,25.648 L30.57,23.173 C30.264,22.957 29.925,22.849 29.553,22.849 C29.151,22.849 28.855,22.977 28.667,23.231 C28.478,23.487 28.383,23.878 28.383,24.406 L28.383,24.406 Z M27.821,26.184 C27.476,25.754 27.303,25.177 27.303,24.451 C27.303,23.971 27.381,23.548 27.537,23.182 C27.693,22.816 27.918,22.529 28.212,22.323 C28.506,22.116 28.854,22.012 29.256,22.012 C29.736,22.012 30.174,22.168 30.57,22.48 L30.57,20.068 L31.632,20.068 L31.632,26.728 L30.723,26.728 L30.615,26.287 C30.207,26.647 29.736,26.827 29.202,26.827 C28.626,26.827 28.166,26.613 27.821,26.184 L27.821,26.184 Z M24.037,23.983 L26.007,23.983 L26.007,23.911 C26.007,23.545 25.932,23.266 25.781,23.074 C25.63,22.882 25.41,22.786 25.12,22.786 C24.813,22.786 24.562,22.894 24.369,23.11 C24.176,23.326 24.065,23.617 24.037,23.983 L24.037,23.983 Z M23.542,26.251 C23.151,25.843 22.957,25.249 22.957,24.469 C22.957,23.695 23.147,23.092 23.528,22.66 C23.909,22.228 24.441,22.012 25.125,22.012 C25.713,22.012 26.165,22.173 26.48,22.494 C26.795,22.814 26.953,23.269 26.953,23.857 C26.953,24.169 26.926,24.448 26.874,24.694 L24.037,24.694 C24.054,25.15 24.177,25.485 24.406,25.698 C24.635,25.911 24.987,26.017 25.462,26.017 C25.891,26.017 26.355,25.933 26.854,25.765 L26.854,26.512 C26.649,26.62 26.408,26.706 26.129,26.769 C25.85,26.832 25.561,26.863 25.26,26.863 C24.504,26.863 23.932,26.659 23.542,26.251 L23.542,26.251 Z M21.777,21.391 C21.976,21.391 22.131,21.337 22.246,21.229 C22.359,21.121 22.417,20.971 22.417,20.779 C22.417,20.587 22.359,20.437 22.246,20.329 C22.131,20.221 21.976,20.167 21.777,20.167 C21.58,20.167 21.423,20.221 21.31,20.329 C21.195,20.437 21.139,20.587 21.139,20.779 C21.139,20.971 21.195,21.121 21.31,21.229 C21.423,21.337 21.58,21.391 21.777,21.391 L21.777,21.391 Z M21.247,26.728 L22.309,26.728 L22.309,22.147 L21.247,22.147 L21.247,26.728 Z M20.527,25.873 L17.386,25.873 C18.105,25.219 18.669,24.671 19.08,24.23 C19.489,23.79 19.787,23.396 19.971,23.052 C20.155,22.707 20.248,22.366 20.248,22.03 C20.248,21.682 20.168,21.382 20.01,21.13 C19.852,20.878 19.633,20.685 19.352,20.549 C19.071,20.415 18.743,20.347 18.367,20.347 C17.674,20.347 17.041,20.581 16.468,21.049 L16.468,21.931 C16.78,21.715 17.087,21.548 17.39,21.432 C17.693,21.314 17.974,21.256 18.232,21.256 C18.526,21.256 18.754,21.333 18.916,21.485 C19.078,21.639 19.159,21.853 19.159,22.129 C19.159,22.363 19.083,22.618 18.934,22.894 C18.784,23.17 18.514,23.533 18.124,23.983 C17.734,24.433 17.125,25.078 16.297,25.918 L16.297,26.728 L20.527,26.728 L20.527,25.873 Z M10.717,26.728 L12.805,23.497 L10.861,20.491 L11.958,20.491 L13.443,22.705 L14.893,20.491 L15.991,20.491 L14.038,23.479 L16.135,26.728 L15.037,26.728 L13.398,24.262 L11.814,26.728 L10.717,26.728 Z" id="Fill-1" fill="#000000"></path>
    </g><g transform="translate(25, 83)" id="svgGroup" stroke-linecap="round" fill-rule="evenodd" font-size="9pt" stroke="#000" stroke-width="0.25mm" fill="#000" style="stroke:#000;stroke-width:0.25mm;fill:#000"><path d="M 3.617 3.103 L 3.617 3.792 L 0.844 3.792 L 0.844 6.06 L 4.065 6.06 L 4.065 6.75 L 0 6.75 L 0 0.352 L 4.021 0.352 L 4.021 1.046 L 0.844 1.046 L 0.844 3.103 L 3.617 3.103 Z M 18.8 0.352 L 20.342 2.804 L 21.876 0.352 L 22.869 0.352 L 20.848 3.524 L 22.917 6.75 L 21.916 6.75 L 20.342 4.254 L 18.76 6.75 L 17.763 6.75 L 19.837 3.524 L 17.811 0.352 L 18.8 0.352 Z M 8.974 4.72 L 9.822 4.72 A 3.016 3.016 0 0 1 9.661 5.416 A 2.099 2.099 0 0 1 9.073 6.286 Q 8.442 6.838 7.396 6.838 A 2.553 2.553 0 0 1 6.527 6.696 A 2.194 2.194 0 0 1 5.579 6.025 A 2.789 2.789 0 0 1 5.017 4.901 Q 4.911 4.484 4.897 3.992 A 5.262 5.262 0 0 1 4.896 3.85 L 4.896 3.234 A 4.251 4.251 0 0 1 4.966 2.445 A 3.229 3.229 0 0 1 5.214 1.666 A 2.539 2.539 0 0 1 5.67 0.99 A 2.26 2.26 0 0 1 6.117 0.626 A 2.415 2.415 0 0 1 7.143 0.281 A 3.027 3.027 0 0 1 7.471 0.264 A 2.962 2.962 0 0 1 8.177 0.343 A 2.065 2.065 0 0 1 9.105 0.833 A 2.16 2.16 0 0 1 9.7 1.795 A 3.086 3.086 0 0 1 9.822 2.408 L 8.974 2.408 Q 8.905 1.929 8.735 1.616 A 1.223 1.223 0 0 0 8.497 1.301 A 1.207 1.207 0 0 0 7.992 1.024 Q 7.804 0.971 7.581 0.961 A 2.396 2.396 0 0 0 7.471 0.958 A 1.753 1.753 0 0 0 6.892 1.049 A 1.463 1.463 0 0 0 6.203 1.556 A 1.989 1.989 0 0 0 5.889 2.175 Q 5.744 2.636 5.744 3.256 L 5.744 3.876 Q 5.744 4.917 6.179 5.533 A 1.38 1.38 0 0 0 7.177 6.135 A 1.814 1.814 0 0 0 7.396 6.148 A 2.497 2.497 0 0 0 7.803 6.117 Q 8.023 6.08 8.199 6.002 A 1.155 1.155 0 0 0 8.475 5.829 Q 8.851 5.511 8.974 4.72 Z M 14.955 6.086 L 14.955 6.75 L 10.762 6.75 L 10.762 6.166 L 12.977 3.705 A 9.853 9.853 0 0 0 13.23 3.407 Q 13.468 3.115 13.601 2.894 A 2.159 2.159 0 0 0 13.656 2.797 Q 13.843 2.448 13.843 2.074 A 1.354 1.354 0 0 0 13.791 1.69 A 1.067 1.067 0 0 0 13.54 1.252 Q 13.236 0.932 12.731 0.932 A 1.71 1.71 0 0 0 12.346 0.972 Q 12.009 1.05 11.788 1.277 Q 11.469 1.605 11.453 2.177 A 2.18 2.18 0 0 0 11.452 2.237 L 10.639 2.237 Q 10.639 1.354 11.208 0.809 A 1.914 1.914 0 0 1 12.166 0.318 A 2.782 2.782 0 0 1 12.731 0.264 A 2.749 2.749 0 0 1 13.312 0.322 Q 13.69 0.403 13.975 0.6 A 1.626 1.626 0 0 1 14.142 0.732 A 1.546 1.546 0 0 1 14.65 1.765 A 2.151 2.151 0 0 1 14.66 1.978 A 1.917 1.917 0 0 1 14.519 2.666 Q 14.298 3.241 13.725 3.922 A 8.818 8.818 0 0 1 13.456 4.228 L 11.742 6.086 L 14.955 6.086 Z M 27.879 6.086 L 27.879 6.75 L 23.687 6.75 L 23.687 6.166 L 25.901 3.705 A 9.853 9.853 0 0 0 26.154 3.407 Q 26.392 3.115 26.525 2.894 A 2.159 2.159 0 0 0 26.58 2.797 Q 26.767 2.448 26.767 2.074 A 1.354 1.354 0 0 0 26.715 1.69 A 1.067 1.067 0 0 0 26.464 1.252 Q 26.161 0.932 25.655 0.932 A 1.71 1.71 0 0 0 25.27 0.972 Q 24.933 1.05 24.713 1.277 Q 24.393 1.605 24.377 2.177 A 2.18 2.18 0 0 0 24.376 2.237 L 23.563 2.237 Q 23.563 1.354 24.133 0.809 A 1.914 1.914 0 0 1 25.09 0.318 A 2.782 2.782 0 0 1 25.655 0.264 A 2.749 2.749 0 0 1 26.236 0.322 Q 26.614 0.403 26.9 0.6 A 1.626 1.626 0 0 1 27.066 0.732 A 1.546 1.546 0 0 1 27.574 1.765 A 2.151 2.151 0 0 1 27.584 1.978 A 1.917 1.917 0 0 1 27.444 2.666 Q 27.222 3.241 26.65 3.922 A 8.818 8.818 0 0 1 26.38 4.228 L 24.667 6.086 L 27.879 6.086 Z M 40.852 1.995 L 41.621 1.995 L 41.647 2.593 Q 42.183 1.918 43.043 1.907 A 2.234 2.234 0 0 1 43.071 1.907 A 1.905 1.905 0 0 1 43.704 2.004 Q 44.546 2.3 44.589 3.506 A 3.668 3.668 0 0 1 44.591 3.608 L 44.591 6.75 L 43.778 6.75 L 43.778 3.604 A 1.837 1.837 0 0 0 43.756 3.324 Q 43.706 3.017 43.543 2.843 Q 43.357 2.645 43.004 2.606 A 1.66 1.66 0 0 0 42.825 2.597 A 1.253 1.253 0 0 0 42.41 2.664 A 1.123 1.123 0 0 0 42.13 2.808 A 1.432 1.432 0 0 0 41.665 3.362 L 41.665 6.75 L 40.852 6.75 L 40.852 1.995 Z M 35.578 4.395 L 35.578 4.333 A 3.762 3.762 0 0 1 35.645 3.602 Q 35.733 3.16 35.935 2.812 A 2.148 2.148 0 0 1 36.097 2.573 Q 36.615 1.907 37.455 1.907 A 1.964 1.964 0 0 1 38.053 1.994 A 1.559 1.559 0 0 1 38.777 2.479 L 38.777 0 L 39.59 0 L 39.59 6.75 L 38.843 6.75 L 38.804 6.24 Q 38.316 6.838 37.446 6.838 A 1.6 1.6 0 0 1 36.225 6.31 A 2.078 2.078 0 0 1 36.099 6.161 A 2.405 2.405 0 0 1 35.674 5.255 Q 35.59 4.912 35.58 4.51 A 4.425 4.425 0 0 1 35.578 4.395 Z M 30.801 4.504 L 30.801 4.355 A 3.17 3.17 0 0 1 30.878 3.646 A 2.581 2.581 0 0 1 31.072 3.092 A 2.191 2.191 0 0 1 31.519 2.466 A 2.033 2.033 0 0 1 31.827 2.221 Q 32.313 1.907 32.88 1.907 A 2.254 2.254 0 0 1 33.493 1.986 A 1.639 1.639 0 0 1 34.321 2.518 Q 34.835 3.129 34.835 4.267 L 34.835 4.605 L 31.614 4.605 A 2.111 2.111 0 0 0 31.685 5.114 A 1.516 1.516 0 0 0 32.025 5.741 A 1.282 1.282 0 0 0 32.959 6.173 A 1.652 1.652 0 0 0 33.025 6.174 A 1.763 1.763 0 0 0 33.353 6.145 Q 33.577 6.103 33.754 5.999 A 1.827 1.827 0 0 0 34.263 5.551 A 2.068 2.068 0 0 0 34.277 5.533 L 34.774 5.919 A 1.926 1.926 0 0 1 33.374 6.811 A 2.749 2.749 0 0 1 32.981 6.838 A 2.394 2.394 0 0 1 32.23 6.725 A 1.974 1.974 0 0 1 31.408 6.203 Q 30.801 5.568 30.801 4.504 Z M 29.707 1.995 L 29.707 6.75 L 28.894 6.75 L 28.894 1.995 L 29.707 1.995 Z M 38.777 5.454 L 38.777 3.27 A 1.375 1.375 0 0 0 38.466 2.874 Q 38.142 2.597 37.657 2.597 A 1.238 1.238 0 0 0 37.23 2.668 A 1.068 1.068 0 0 0 36.725 3.059 A 1.51 1.51 0 0 0 36.516 3.484 Q 36.45 3.689 36.419 3.939 A 3.955 3.955 0 0 0 36.391 4.425 A 3.162 3.162 0 0 0 36.427 4.918 Q 36.468 5.178 36.556 5.389 A 1.474 1.474 0 0 0 36.725 5.691 A 1.06 1.06 0 0 0 37.487 6.139 A 1.391 1.391 0 0 0 37.648 6.148 Q 38.421 6.148 38.777 5.454 Z M 31.641 3.938 L 34.022 3.938 L 34.022 3.876 Q 33.996 3.417 33.826 3.111 A 1.13 1.13 0 0 0 33.688 2.916 A 0.983 0.983 0 0 0 33.034 2.584 A 1.39 1.39 0 0 0 32.88 2.575 A 1.106 1.106 0 0 0 32.357 2.698 A 1.14 1.14 0 0 0 32.054 2.933 A 1.417 1.417 0 0 0 31.777 3.379 Q 31.703 3.563 31.664 3.785 A 2.741 2.741 0 0 0 31.641 3.938 Z M 28.828 0.734 Q 28.828 0.536 28.949 0.4 Q 29.061 0.274 29.273 0.264 A 0.783 0.783 0 0 1 29.307 0.264 Q 29.544 0.264 29.667 0.4 A 0.474 0.474 0 0 1 29.79 0.703 A 0.614 0.614 0 0 1 29.791 0.734 A 0.523 0.523 0 0 1 29.765 0.9 A 0.442 0.442 0 0 1 29.667 1.063 Q 29.555 1.184 29.347 1.194 A 0.803 0.803 0 0 1 29.307 1.195 Q 29.135 1.195 29.024 1.126 A 0.362 0.362 0 0 1 28.949 1.063 A 0.456 0.456 0 0 1 28.831 0.788 A 0.605 0.605 0 0 1 28.828 0.734 Z" vector-effect="non-scaling-stroke"/></g><g transform="translate(25, 93)" id="svgGroup" stroke-linecap="round" fill-rule="evenodd" font-size="9pt" stroke="#000" stroke-width="0.25mm" fill="#000" style="stroke:#000;stroke-width:0.25mm;fill:#000"><path d="M 61.598 0 L 61.598 2.571 A 1.767 1.767 0 0 1 62.264 2.053 A 1.832 1.832 0 0 1 63.004 1.907 A 1.905 1.905 0 0 1 63.638 2.004 Q 64.48 2.3 64.523 3.506 A 3.668 3.668 0 0 1 64.525 3.608 L 64.525 6.75 L 63.712 6.75 L 63.712 3.604 A 1.837 1.837 0 0 0 63.69 3.324 Q 63.639 3.017 63.477 2.843 Q 63.291 2.645 62.937 2.606 A 1.66 1.66 0 0 0 62.758 2.597 A 1.253 1.253 0 0 0 62.344 2.664 A 1.123 1.123 0 0 0 62.064 2.808 A 1.432 1.432 0 0 0 61.598 3.362 L 61.598 6.75 L 60.785 6.75 L 60.785 0 L 61.598 0 Z M 58.777 2.522 L 58.816 1.995 L 59.559 1.995 L 59.559 6.636 A 2.511 2.511 0 0 1 59.488 7.249 A 1.738 1.738 0 0 1 59.012 8.09 A 1.834 1.834 0 0 1 58.082 8.57 A 2.671 2.671 0 0 1 57.542 8.622 A 2.446 2.446 0 0 1 56.536 8.402 A 2.003 2.003 0 0 1 56.125 8.161 A 1.563 1.563 0 0 1 55.784 7.8 L 56.206 7.313 A 1.889 1.889 0 0 0 56.641 7.712 A 1.514 1.514 0 0 0 57.485 7.958 A 1.695 1.695 0 0 0 57.862 7.919 Q 58.13 7.858 58.324 7.702 A 1.037 1.037 0 0 0 58.41 7.625 A 1.09 1.09 0 0 0 58.687 7.132 Q 58.734 6.959 58.741 6.752 A 2.134 2.134 0 0 0 58.742 6.684 L 58.742 6.275 A 1.601 1.601 0 0 1 57.69 6.821 A 2.279 2.279 0 0 1 57.41 6.838 A 1.672 1.672 0 0 1 56.655 6.67 Q 56.333 6.51 56.083 6.197 A 2.14 2.14 0 0 1 56.059 6.166 A 2.316 2.316 0 0 1 55.676 5.386 Q 55.542 4.922 55.542 4.333 Q 55.542 3.472 55.851 2.884 A 2.096 2.096 0 0 1 56.057 2.564 Q 56.571 1.907 57.419 1.907 A 1.971 1.971 0 0 1 58.018 1.994 A 1.55 1.55 0 0 1 58.777 2.522 Z M 10.762 3.393 L 9.945 3.393 Q 9.945 3.059 9.661 2.817 Q 9.378 2.575 8.947 2.575 Q 8.503 2.575 8.253 2.769 A 0.653 0.653 0 0 0 8.078 2.967 Q 8.005 3.098 8.003 3.263 A 0.771 0.771 0 0 0 8.002 3.274 A 0.588 0.588 0 0 0 8.033 3.467 A 0.48 0.48 0 0 0 8.235 3.718 A 1.093 1.093 0 0 0 8.386 3.796 Q 8.55 3.868 8.805 3.937 A 6.581 6.581 0 0 0 9.077 4.003 A 6.318 6.318 0 0 1 9.485 4.108 Q 9.821 4.208 10.063 4.329 A 1.901 1.901 0 0 1 10.319 4.481 Q 10.456 4.579 10.554 4.692 A 1.06 1.06 0 0 1 10.624 4.783 A 1.024 1.024 0 0 1 10.786 5.191 A 1.388 1.388 0 0 1 10.806 5.432 Q 10.806 6.069 10.296 6.453 Q 9.814 6.817 9.06 6.837 A 3.337 3.337 0 0 1 8.974 6.838 A 2.746 2.746 0 0 1 8.439 6.788 A 2.124 2.124 0 0 1 7.963 6.636 A 1.771 1.771 0 0 1 7.529 6.358 A 1.54 1.54 0 0 1 7.275 6.071 Q 7.027 5.708 7.027 5.287 L 7.84 5.287 A 0.932 0.932 0 0 0 7.913 5.612 A 0.827 0.827 0 0 0 8.167 5.935 A 1.072 1.072 0 0 0 8.569 6.128 Q 8.724 6.167 8.905 6.173 A 2.013 2.013 0 0 0 8.974 6.174 A 1.863 1.863 0 0 0 9.269 6.152 Q 9.431 6.126 9.562 6.07 A 0.941 0.941 0 0 0 9.714 5.988 A 0.689 0.689 0 0 0 9.879 5.837 A 0.554 0.554 0 0 0 9.993 5.489 A 0.698 0.698 0 0 0 9.957 5.258 A 0.581 0.581 0 0 0 9.745 4.977 A 1.05 1.05 0 0 0 9.576 4.878 Q 9.387 4.788 9.092 4.712 A 5.392 5.392 0 0 0 8.879 4.663 A 6.342 6.342 0 0 1 8.518 4.575 Q 8.148 4.473 7.899 4.346 Q 7.6 4.194 7.43 3.994 A 1.017 1.017 0 0 1 7.363 3.907 Q 7.189 3.652 7.189 3.3 A 1.206 1.206 0 0 1 7.589 2.396 A 1.694 1.694 0 0 1 7.684 2.312 A 1.752 1.752 0 0 1 8.467 1.952 A 2.471 2.471 0 0 1 8.947 1.907 A 2.559 2.559 0 0 1 9.511 1.966 A 1.757 1.757 0 0 1 10.259 2.325 Q 10.762 2.742 10.762 3.393 Z M 2.259 1.995 L 3.028 1.995 L 3.054 2.593 Q 3.591 1.918 4.45 1.907 A 2.234 2.234 0 0 1 4.478 1.907 A 1.905 1.905 0 0 1 5.112 2.004 Q 5.953 2.3 5.996 3.506 A 3.668 3.668 0 0 1 5.999 3.608 L 5.999 6.75 L 5.186 6.75 L 5.186 3.604 A 1.837 1.837 0 0 0 5.163 3.324 Q 5.113 3.017 4.95 2.843 Q 4.764 2.645 4.411 2.606 A 1.66 1.66 0 0 0 4.232 2.597 A 1.253 1.253 0 0 0 3.818 2.664 A 1.123 1.123 0 0 0 3.538 2.808 A 1.432 1.432 0 0 0 3.072 3.362 L 3.072 6.75 L 2.259 6.75 L 2.259 1.995 Z M 19.701 1.995 L 20.47 1.995 L 20.496 2.593 Q 21.032 1.918 21.892 1.907 A 2.234 2.234 0 0 1 21.92 1.907 A 1.905 1.905 0 0 1 22.553 2.004 Q 23.395 2.3 23.438 3.506 A 3.668 3.668 0 0 1 23.44 3.608 L 23.44 6.75 L 22.627 6.75 L 22.627 3.604 A 1.837 1.837 0 0 0 22.605 3.324 Q 22.555 3.017 22.392 2.843 Q 22.206 2.645 21.853 2.606 A 1.66 1.66 0 0 0 21.674 2.597 A 1.253 1.253 0 0 0 21.259 2.664 A 1.123 1.123 0 0 0 20.979 2.808 A 1.432 1.432 0 0 0 20.514 3.362 L 20.514 6.75 L 19.701 6.75 L 19.701 1.995 Z M 27.694 5.251 L 28.463 5.251 A 1.432 1.432 0 0 1 28.264 5.901 A 1.772 1.772 0 0 1 28.182 6.029 A 1.828 1.828 0 0 1 27.573 6.574 A 2.169 2.169 0 0 1 27.49 6.618 A 1.997 1.997 0 0 1 26.574 6.838 A 2.346 2.346 0 0 1 25.876 6.739 A 1.839 1.839 0 0 1 25.029 6.19 A 2.171 2.171 0 0 1 24.565 5.31 Q 24.456 4.909 24.456 4.417 L 24.456 4.28 A 3.24 3.24 0 0 1 24.519 3.624 A 2.57 2.57 0 0 1 24.71 3.045 A 2.008 2.008 0 0 1 25.15 2.431 A 1.892 1.892 0 0 1 25.442 2.206 A 1.943 1.943 0 0 1 26.198 1.934 A 2.529 2.529 0 0 1 26.569 1.907 A 2.196 2.196 0 0 1 27.217 1.999 A 1.786 1.786 0 0 1 27.899 2.386 A 1.693 1.693 0 0 1 28.457 3.535 A 2.239 2.239 0 0 1 28.463 3.63 L 27.694 3.63 Q 27.659 3.168 27.345 2.872 A 1.078 1.078 0 0 0 26.616 2.576 A 1.402 1.402 0 0 0 26.569 2.575 A 1.374 1.374 0 0 0 26.148 2.637 A 1.081 1.081 0 0 0 25.609 3.021 A 1.469 1.469 0 0 0 25.382 3.468 Q 25.317 3.674 25.289 3.923 A 3.514 3.514 0 0 0 25.269 4.311 L 25.269 4.465 Q 25.269 5.287 25.607 5.73 A 1.1 1.1 0 0 0 26.394 6.165 A 1.611 1.611 0 0 0 26.574 6.174 A 1.171 1.171 0 0 0 27.334 5.911 A 1.007 1.007 0 0 0 27.578 5.629 A 0.914 0.914 0 0 0 27.694 5.251 Z M 18.593 6.75 L 17.741 6.75 A 0.632 0.632 0 0 1 17.705 6.66 Q 17.674 6.562 17.649 6.41 A 3.997 3.997 0 0 1 17.626 6.249 Q 17.06 6.838 16.273 6.838 A 2.033 2.033 0 0 1 15.744 6.772 A 1.529 1.529 0 0 1 15.119 6.44 Q 14.669 6.042 14.669 5.432 Q 14.669 4.689 15.234 4.278 Q 15.798 3.867 16.822 3.867 L 17.613 3.867 L 17.613 3.494 A 1.152 1.152 0 0 0 17.578 3.199 A 0.828 0.828 0 0 0 17.358 2.815 Q 17.142 2.6 16.752 2.568 A 1.748 1.748 0 0 0 16.607 2.562 Q 16.172 2.562 15.877 2.782 Q 15.583 3.001 15.583 3.313 L 14.766 3.313 A 1.041 1.041 0 0 1 14.891 2.825 A 1.409 1.409 0 0 1 15.018 2.626 Q 15.271 2.294 15.704 2.101 A 2.249 2.249 0 0 1 16.48 1.913 A 2.669 2.669 0 0 1 16.655 1.907 A 2.65 2.65 0 0 1 17.173 1.955 Q 17.48 2.016 17.719 2.156 A 1.439 1.439 0 0 1 17.943 2.318 A 1.396 1.396 0 0 1 18.396 3.144 A 1.998 1.998 0 0 1 18.426 3.45 L 18.426 5.638 Q 18.426 6.073 18.5 6.39 A 1.707 1.707 0 0 0 18.593 6.68 L 18.593 6.75 Z M 29.171 4.504 L 29.171 4.355 A 3.17 3.17 0 0 1 29.247 3.646 A 2.581 2.581 0 0 1 29.441 3.092 A 2.191 2.191 0 0 1 29.889 2.466 A 2.033 2.033 0 0 1 30.197 2.221 Q 30.683 1.907 31.25 1.907 A 2.254 2.254 0 0 1 31.863 1.986 A 1.639 1.639 0 0 1 32.691 2.518 Q 33.205 3.129 33.205 4.267 L 33.205 4.605 L 29.984 4.605 A 2.111 2.111 0 0 0 30.055 5.114 A 1.516 1.516 0 0 0 30.395 5.741 A 1.282 1.282 0 0 0 31.329 6.173 A 1.652 1.652 0 0 0 31.395 6.174 A 1.763 1.763 0 0 0 31.723 6.145 Q 31.947 6.103 32.124 5.999 A 1.827 1.827 0 0 0 32.633 5.551 A 2.068 2.068 0 0 0 32.647 5.533 L 33.144 5.919 A 1.926 1.926 0 0 1 31.744 6.811 A 2.749 2.749 0 0 1 31.351 6.838 A 2.394 2.394 0 0 1 30.599 6.725 A 1.974 1.974 0 0 1 29.777 6.203 Q 29.171 5.568 29.171 4.504 Z M 49.685 0.352 L 49.685 6.06 L 52.717 6.06 L 52.717 6.75 L 48.836 6.75 L 48.836 0.352 L 49.685 0.352 Z M 39.722 0.352 L 39.722 4.601 L 40.61 4.601 L 40.61 5.265 L 39.722 5.265 L 39.722 6.75 L 38.905 6.75 L 38.905 5.265 L 35.991 5.265 L 35.991 4.786 L 38.856 0.352 L 39.722 0.352 Z M 45.12 2.592 A 1.544 1.544 0 0 0 45.224 2.021 A 2.226 2.226 0 0 0 45.203 1.707 A 1.566 1.566 0 0 0 44.703 0.738 A 1.754 1.754 0 0 0 43.938 0.333 A 2.443 2.443 0 0 0 43.339 0.264 A 2.539 2.539 0 0 0 42.829 0.312 A 1.767 1.767 0 0 0 41.972 0.738 Q 41.454 1.213 41.454 2.021 A 1.808 1.808 0 0 0 41.454 2.058 A 1.499 1.499 0 0 0 41.7 2.87 A 1.626 1.626 0 0 0 41.862 3.077 A 1.726 1.726 0 0 0 42.372 3.454 A 2.119 2.119 0 0 0 42.273 3.5 A 1.738 1.738 0 0 0 41.588 4.087 A 1.629 1.629 0 0 0 41.304 5.023 A 2.272 2.272 0 0 0 41.314 5.237 A 1.63 1.63 0 0 0 41.86 6.344 A 1.895 1.895 0 0 0 42.711 6.771 A 2.797 2.797 0 0 0 43.339 6.838 A 2.796 2.796 0 0 0 43.938 6.777 A 1.925 1.925 0 0 0 44.813 6.346 A 1.578 1.578 0 0 0 45.288 5.62 A 1.989 1.989 0 0 0 45.374 5.023 A 1.581 1.581 0 0 0 45.081 4.087 Q 44.789 3.674 44.288 3.458 Q 44.719 3.248 44.971 2.874 A 1.449 1.449 0 0 0 45.12 2.592 Z M 12.155 0.844 L 12.968 0.844 L 12.968 1.995 L 13.856 1.995 L 13.856 2.624 L 12.968 2.624 L 12.968 5.572 Q 12.968 5.858 13.087 6.001 Q 13.206 6.144 13.491 6.144 A 1.046 1.046 0 0 0 13.589 6.138 Q 13.691 6.129 13.831 6.101 A 4.024 4.024 0 0 0 13.878 6.091 L 13.878 6.75 A 2.463 2.463 0 0 1 13.445 6.829 A 2.157 2.157 0 0 1 13.254 6.838 Q 12.807 6.838 12.54 6.616 A 0.856 0.856 0 0 1 12.432 6.508 Q 12.205 6.238 12.164 5.78 A 2.351 2.351 0 0 1 12.155 5.572 L 12.155 2.624 L 11.29 2.624 L 11.29 1.995 L 12.155 1.995 L 12.155 0.844 Z M 66.032 0.844 L 66.845 0.844 L 66.845 1.995 L 67.733 1.995 L 67.733 2.624 L 66.845 2.624 L 66.845 5.572 Q 66.845 5.858 66.964 6.001 Q 67.083 6.144 67.368 6.144 A 1.046 1.046 0 0 0 67.466 6.138 Q 67.568 6.129 67.708 6.101 A 4.024 4.024 0 0 0 67.755 6.091 L 67.755 6.75 A 2.463 2.463 0 0 1 67.322 6.829 A 2.157 2.157 0 0 1 67.131 6.838 Q 66.684 6.838 66.417 6.616 A 0.856 0.856 0 0 1 66.309 6.508 Q 66.082 6.238 66.041 5.78 A 2.351 2.351 0 0 1 66.032 5.572 L 66.032 2.624 L 65.167 2.624 L 65.167 1.995 L 66.032 1.995 L 66.032 0.844 Z M 0.844 0.352 L 0.844 6.75 L 0 6.75 L 0 0.352 L 0.844 0.352 Z M 54.435 1.995 L 54.435 6.75 L 53.622 6.75 L 53.622 1.995 L 54.435 1.995 Z M 58.742 5.449 L 58.742 3.278 A 1.439 1.439 0 0 0 58.441 2.891 Q 58.137 2.62 57.697 2.599 A 1.578 1.578 0 0 0 57.621 2.597 Q 57.029 2.597 56.695 3.056 A 1.51 1.51 0 0 0 56.485 3.484 Q 56.419 3.689 56.388 3.939 A 3.955 3.955 0 0 0 56.36 4.425 Q 56.36 5.229 56.689 5.689 Q 57.019 6.148 57.612 6.148 A 1.32 1.32 0 0 0 58.122 6.054 Q 58.514 5.891 58.742 5.449 Z M 38.808 1.639 L 36.914 4.601 L 38.905 4.601 L 38.905 1.463 L 38.808 1.639 Z M 44.561 5.005 A 1.375 1.375 0 0 0 44.501 4.592 A 1.109 1.109 0 0 0 44.22 4.131 A 1.148 1.148 0 0 0 43.549 3.807 A 1.593 1.593 0 0 0 43.33 3.792 A 1.466 1.466 0 0 0 42.941 3.841 A 1.086 1.086 0 0 0 42.449 4.126 A 1.123 1.123 0 0 0 42.135 4.762 A 1.572 1.572 0 0 0 42.117 5.005 A 1.48 1.48 0 0 0 42.159 5.367 A 1.019 1.019 0 0 0 42.44 5.862 Q 42.746 6.158 43.279 6.173 A 2.053 2.053 0 0 0 43.339 6.174 Q 43.833 6.174 44.142 5.94 A 1.018 1.018 0 0 0 44.235 5.86 A 1.041 1.041 0 0 0 44.535 5.292 A 1.518 1.518 0 0 0 44.561 5.005 Z M 43.339 0.932 A 1.259 1.259 0 0 0 42.986 0.979 A 0.973 0.973 0 0 0 42.563 1.228 Q 42.267 1.525 42.267 2.035 A 1.325 1.325 0 0 0 42.311 2.387 A 0.994 0.994 0 0 0 42.559 2.823 A 0.974 0.974 0 0 0 43.121 3.108 A 1.382 1.382 0 0 0 43.339 3.125 A 1.279 1.279 0 0 0 43.684 3.08 A 0.952 0.952 0 0 0 44.119 2.823 A 1.018 1.018 0 0 0 44.394 2.26 A 1.426 1.426 0 0 0 44.411 2.035 A 1.282 1.282 0 0 0 44.361 1.668 A 1.013 1.013 0 0 0 44.108 1.239 Q 43.805 0.932 43.339 0.932 Z M 17.613 5.418 L 17.613 4.443 L 16.976 4.443 Q 15.482 4.443 15.482 5.317 Q 15.482 5.7 15.737 5.915 A 0.893 0.893 0 0 0 16.15 6.108 A 1.259 1.259 0 0 0 16.392 6.13 A 1.429 1.429 0 0 0 17.117 5.933 A 1.335 1.335 0 0 0 17.412 5.705 A 1.108 1.108 0 0 0 17.613 5.418 Z M 30.01 3.938 L 32.392 3.938 L 32.392 3.876 Q 32.366 3.417 32.195 3.111 A 1.13 1.13 0 0 0 32.058 2.916 A 0.983 0.983 0 0 0 31.404 2.584 A 1.39 1.39 0 0 0 31.25 2.575 A 1.106 1.106 0 0 0 30.727 2.698 A 1.14 1.14 0 0 0 30.423 2.933 A 1.417 1.417 0 0 0 30.147 3.379 Q 30.073 3.563 30.033 3.785 A 2.741 2.741 0 0 0 30.01 3.938 Z M 53.556 0.734 Q 53.556 0.536 53.677 0.4 Q 53.789 0.274 54.001 0.264 A 0.783 0.783 0 0 1 54.035 0.264 Q 54.272 0.264 54.396 0.4 A 0.474 0.474 0 0 1 54.518 0.703 A 0.614 0.614 0 0 1 54.519 0.734 A 0.523 0.523 0 0 1 54.493 0.9 A 0.442 0.442 0 0 1 54.396 1.063 Q 54.283 1.184 54.075 1.194 A 0.803 0.803 0 0 1 54.035 1.195 Q 53.863 1.195 53.752 1.126 A 0.362 0.362 0 0 1 53.677 1.063 A 0.456 0.456 0 0 1 53.559 0.788 A 0.605 0.605 0 0 1 53.556 0.734 Z" vector-effect="non-scaling-stroke"/></g>
</svgversion="1.0" encoding="UTF-8"?>
<svg width="48px" height="48px" viewBox="0 0 48 48" version="1.1" xmlns="http://www.w3.org/2000/svg" xmlns:xlink="http://www.w3.org/1999/xlink">
    <title>Icon-Resource/Compute/Res_Amazon-EC2_X2ed-Instance_48_Light</title>
    <g id="Icon-Resource/Compute/Res_Amazon-EC2_X2ed-Instance_48" stroke="none" stroke-width="1" fill="none" fill-rule="evenodd">
        <path transform="translate(12.000000, 8.000000), scale(.65)" d="M9,39 L39,39 L39,9 L9,9 L9,39 Z M41,13 L41,17 L46,17 L46,19 L41,19 L41,23 L46,23 L46,25 L41,25 L41,29 L46,29 L46,31 L41,31 L41,35 L46,35 L46,37 L41,37 L41,40 C41,40.552 40.552,41 40,41 L37,41 L37,46 L35,46 L35,41 L31,41 L31,46 L29,46 L29,41 L25,41 L25,46 L23,46 L23,41 L19,41 L19,46 L17,46 L17,41 L13,41 L13,46 L11,46 L11,41 L8,41 C7.448,41 7,40.552 7,40 L7,37 L2,37 L2,35 L7,35 L7,31 L2,31 L2,29 L7,29 L7,25 L2,25 L2,23 L7,23 L7,19 L2,19 L2,17 L7,17 L7,13 L2,13 L2,11 L7,11 L7,8 C7,7.448 7.448,7 8,7 L11,7 L11,2 L13,2 L13,7 L17,7 L17,2 L19,2 L19,7 L23,7 L23,2 L25,2 L25,7 L29,7 L29,2 L31,2 L31,7 L35,7 L35,2 L37,2 L37,7 L40,7 C40.552,7 41,7.448 41,8 L41,11 L46,11 L46,13 L41,13 Z M33.541,23.245 C33.955,22.981 34.359,22.849 34.755,22.849 C35.02,22.849 35.211,22.917 35.332,23.052 C35.452,23.187 35.512,23.401 35.512,23.695 L35.512,26.728 L36.574,26.728 L36.574,23.362 C36.574,22.924 36.459,22.589 36.231,22.358 C36.003,22.127 35.67,22.012 35.232,22.012 C34.621,22.012 34.033,22.225 33.469,22.651 L33.36,22.147 L32.479,22.147 L32.479,26.728 L33.541,26.728 L33.541,23.245 Z M28.383,24.406 C28.383,25.462 28.767,25.99 29.535,25.99 C29.889,25.99 30.234,25.876 30.57,25.648 L30.57,23.173 C30.264,22.957 29.925,22.849 29.553,22.849 C29.151,22.849 28.855,22.977 28.667,23.231 C28.478,23.487 28.383,23.878 28.383,24.406 L28.383,24.406 Z M27.821,26.184 C27.476,25.754 27.303,25.177 27.303,24.451 C27.303,23.971 27.381,23.548 27.537,23.182 C27.693,22.816 27.918,22.529 28.212,22.323 C28.506,22.116 28.854,22.012 29.256,22.012 C29.736,22.012 30.174,22.168 30.57,22.48 L30.57,20.068 L31.632,20.068 L31.632,26.728 L30.723,26.728 L30.615,26.287 C30.207,26.647 29.736,26.827 29.202,26.827 C28.626,26.827 28.166,26.613 27.821,26.184 L27.821,26.184 Z M24.037,23.983 L26.007,23.983 L26.007,23.911 C26.007,23.545 25.932,23.266 25.781,23.074 C25.63,22.882 25.41,22.786 25.12,22.786 C24.813,22.786 24.562,22.894 24.369,23.11 C24.176,23.326 24.065,23.617 24.037,23.983 L24.037,23.983 Z M23.542,26.251 C23.151,25.843 22.957,25.249 22.957,24.469 C22.957,23.695 23.147,23.092 23.528,22.66 C23.909,22.228 24.441,22.012 25.125,22.012 C25.713,22.012 26.165,22.173 26.48,22.494 C26.795,22.814 26.953,23.269 26.953,23.857 C26.953,24.169 26.926,24.448 26.874,24.694 L24.037,24.694 C24.054,25.15 24.177,25.485 24.406,25.698 C24.635,25.911 24.987,26.017 25.462,26.017 C25.891,26.017 26.355,25.933 26.854,25.765 L26.854,26.512 C26.649,26.62 26.408,26.706 26.129,26.769 C25.85,26.832 25.561,26.863 25.26,26.863 C24.504,26.863 23.932,26.659 23.542,26.251 L23.542,26.251 Z M21.777,21.391 C21.976,21.391 22.131,21.337 22.246,21.229 C22.359,21.121 22.417,20.971 22.417,20.779 C22.417,20.587 22.359,20.437 22.246,20.329 C22.131,20.221 21.976,20.167 21.777,20.167 C21.58,20.167 21.423,20.221 21.31,20.329 C21.195,20.437 21.139,20.587 21.139,20.779 C21.139,20.971 21.195,21.121 21.31,21.229 C21.423,21.337 21.58,21.391 21.777,21.391 L21.777,21.391 Z M21.247,26.728 L22.309,26.728 L22.309,22.147 L21.247,22.147 L21.247,26.728 Z M20.527,25.873 L17.386,25.873 C18.105,25.219 18.669,24.671 19.08,24.23 C19.489,23.79 19.787,23.396 19.971,23.052 C20.155,22.707 20.248,22.366 20.248,22.03 C20.248,21.682 20.168,21.382 20.01,21.13 C19.852,20.878 19.633,20.685 19.352,20.549 C19.071,20.415 18.743,20.347 18.367,20.347 C17.674,20.347 17.041,20.581 16.468,21.049 L16.468,21.931 C16.78,21.715 17.087,21.548 17.39,21.432 C17.693,21.314 17.974,21.256 18.232,21.256 C18.526,21.256 18.754,21.333 18.916,21.485 C19.078,21.639 19.159,21.853 19.159,22.129 C19.159,22.363 19.083,22.618 18.934,22.894 C18.784,23.17 18.514,23.533 18.124,23.983 C17.734,24.433 17.125,25.078 16.297,25.918 L16.297,26.728 L20.527,26.728 L20.527,25.873 Z M10.717,26.728 L12.805,23.497 L10.861,20.491 L11.958,20.491 L13.443,22.705 L14.893,20.491 L15.991,20.491 L14.038,23.479 L16.135,26.728 L15.037,26.728 L13.398,24.262 L11.814,26.728 L10.717,26.728 Z" id="Fill-1" fill="#000000"></path>
    </g><g transform="translate(25, 83)" id="svgGroup" stroke-linecap="round" fill-rule="evenodd" font-size="9pt" stroke="#000" stroke-width="0.25mm" fill="#000" style="stroke:#000;stroke-width:0.25mm;fill:#000"><path d="M 3.617 3.103 L 3.617 3.792 L 0.844 3.792 L 0.844 6.06 L 4.065 6.06 L 4.065 6.75 L 0 6.75 L 0 0.352 L 4.021 0.352 L 4.021 1.046 L 0.844 1.046 L 0.844 3.103 L 3.617 3.103 Z M 18.8 0.352 L 20.342 2.804 L 21.876 0.352 L 22.869 0.352 L 20.848 3.524 L 22.917 6.75 L 21.916 6.75 L 20.342 4.254 L 18.76 6.75 L 17.763 6.75 L 19.837 3.524 L 17.811 0.352 L 18.8 0.352 Z M 8.974 4.72 L 9.822 4.72 A 3.016 3.016 0 0 1 9.661 5.416 A 2.099 2.099 0 0 1 9.073 6.286 Q 8.442 6.838 7.396 6.838 A 2.553 2.553 0 0 1 6.527 6.696 A 2.194 2.194 0 0 1 5.579 6.025 A 2.789 2.789 0 0 1 5.017 4.901 Q 4.911 4.484 4.897 3.992 A 5.262 5.262 0 0 1 4.896 3.85 L 4.896 3.234 A 4.251 4.251 0 0 1 4.966 2.445 A 3.229 3.229 0 0 1 5.214 1.666 A 2.539 2.539 0 0 1 5.67 0.99 A 2.26 2.26 0 0 1 6.117 0.626 A 2.415 2.415 0 0 1 7.143 0.281 A 3.027 3.027 0 0 1 7.471 0.264 A 2.962 2.962 0 0 1 8.177 0.343 A 2.065 2.065 0 0 1 9.105 0.833 A 2.16 2.16 0 0 1 9.7 1.795 A 3.086 3.086 0 0 1 9.822 2.408 L 8.974 2.408 Q 8.905 1.929 8.735 1.616 A 1.223 1.223 0 0 0 8.497 1.301 A 1.207 1.207 0 0 0 7.992 1.024 Q 7.804 0.971 7.581 0.961 A 2.396 2.396 0 0 0 7.471 0.958 A 1.753 1.753 0 0 0 6.892 1.049 A 1.463 1.463 0 0 0 6.203 1.556 A 1.989 1.989 0 0 0 5.889 2.175 Q 5.744 2.636 5.744 3.256 L 5.744 3.876 Q 5.744 4.917 6.179 5.533 A 1.38 1.38 0 0 0 7.177 6.135 A 1.814 1.814 0 0 0 7.396 6.148 A 2.497 2.497 0 0 0 7.803 6.117 Q 8.023 6.08 8.199 6.002 A 1.155 1.155 0 0 0 8.475 5.829 Q 8.851 5.511 8.974 4.72 Z M 14.955 6.086 L 14.955 6.75 L 10.762 6.75 L 10.762 6.166 L 12.977 3.705 A 9.853 9.853 0 0 0 13.23 3.407 Q 13.468 3.115 13.601 2.894 A 2.159 2.159 0 0 0 13.656 2.797 Q 13.843 2.448 13.843 2.074 A 1.354 1.354 0 0 0 13.791 1.69 A 1.067 1.067 0 0 0 13.54 1.252 Q 13.236 0.932 12.731 0.932 A 1.71 1.71 0 0 0 12.346 0.972 Q 12.009 1.05 11.788 1.277 Q 11.469 1.605 11.453 2.177 A 2.18 2.18 0 0 0 11.452 2.237 L 10.639 2.237 Q 10.639 1.354 11.208 0.809 A 1.914 1.914 0 0 1 12.166 0.318 A 2.782 2.782 0 0 1 12.731 0.264 A 2.749 2.749 0 0 1 13.312 0.322 Q 13.69 0.403 13.975 0.6 A 1.626 1.626 0 0 1 14.142 0.732 A 1.546 1.546 0 0 1 14.65 1.765 A 2.151 2.151 0 0 1 14.66 1.978 A 1.917 1.917 0 0 1 14.519 2.666 Q 14.298 3.241 13.725 3.922 A 8.818 8.818 0 0 1 13.456 4.228 L 11.742 6.086 L 14.955 6.086 Z M 27.879 6.086 L 27.879 6.75 L 23.687 6.75 L 23.687 6.166 L 25.901 3.705 A 9.853 9.853 0 0 0 26.154 3.407 Q 26.392 3.115 26.525 2.894 A 2.159 2.159 0 0 0 26.58 2.797 Q 26.767 2.448 26.767 2.074 A 1.354 1.354 0 0 0 26.715 1.69 A 1.067 1.067 0 0 0 26.464 1.252 Q 26.161 0.932 25.655 0.932 A 1.71 1.71 0 0 0 25.27 0.972 Q 24.933 1.05 24.713 1.277 Q 24.393 1.605 24.377 2.177 A 2.18 2.18 0 0 0 24.376 2.237 L 23.563 2.237 Q 23.563 1.354 24.133 0.809 A 1.914 1.914 0 0 1 25.09 0.318 A 2.782 2.782 0 0 1 25.655 0.264 A 2.749 2.749 0 0 1 26.236 0.322 Q 26.614 0.403 26.9 0.6 A 1.626 1.626 0 0 1 27.066 0.732 A 1.546 1.546 0 0 1 27.574 1.765 A 2.151 2.151 0 0 1 27.584 1.978 A 1.917 1.917 0 0 1 27.444 2.666 Q 27.222 3.241 26.65 3.922 A 8.818 8.818 0 0 1 26.38 4.228 L 24.667 6.086 L 27.879 6.086 Z M 40.852 1.995 L 41.621 1.995 L 41.647 2.593 Q 42.183 1.918 43.043 1.907 A 2.234 2.234 0 0 1 43.071 1.907 A 1.905 1.905 0 0 1 43.704 2.004 Q 44.546 2.3 44.589 3.506 A 3.668 3.668 0 0 1 44.591 3.608 L 44.591 6.75 L 43.778 6.75 L 43.778 3.604 A 1.837 1.837 0 0 0 43.756 3.324 Q 43.706 3.017 43.543 2.843 Q 43.357 2.645 43.004 2.606 A 1.66 1.66 0 0 0 42.825 2.597 A 1.253 1.253 0 0 0 42.41 2.664 A 1.123 1.123 0 0 0 42.13 2.808 A 1.432 1.432 0 0 0 41.665 3.362 L 41.665 6.75 L 40.852 6.75 L 40.852 1.995 Z M 35.578 4.395 L 35.578 4.333 A 3.762 3.762 0 0 1 35.645 3.602 Q 35.733 3.16 35.935 2.812 A 2.148 2.148 0 0 1 36.097 2.573 Q 36.615 1.907 37.455 1.907 A 1.964 1.964 0 0 1 38.053 1.994 A 1.559 1.559 0 0 1 38.777 2.479 L 38.777 0 L 39.59 0 L 39.59 6.75 L 38.843 6.75 L 38.804 6.24 Q 38.316 6.838 37.446 6.838 A 1.6 1.6 0 0 1 36.225 6.31 A 2.078 2.078 0 0 1 36.099 6.161 A 2.405 2.405 0 0 1 35.674 5.255 Q 35.59 4.912 35.58 4.51 A 4.425 4.425 0 0 1 35.578 4.395 Z M 30.801 4.504 L 30.801 4.355 A 3.17 3.17 0 0 1 30.878 3.646 A 2.581 2.581 0 0 1 31.072 3.092 A 2.191 2.191 0 0 1 31.519 2.466 A 2.033 2.033 0 0 1 31.827 2.221 Q 32.313 1.907 32.88 1.907 A 2.254 2.254 0 0 1 33.493 1.986 A 1.639 1.639 0 0 1 34.321 2.518 Q 34.835 3.129 34.835 4.267 L 34.835 4.605 L 31.614 4.605 A 2.111 2.111 0 0 0 31.685 5.114 A 1.516 1.516 0 0 0 32.025 5.741 A 1.282 1.282 0 0 0 32.959 6.173 A 1.652 1.652 0 0 0 33.025 6.174 A 1.763 1.763 0 0 0 33.353 6.145 Q 33.577 6.103 33.754 5.999 A 1.827 1.827 0 0 0 34.263 5.551 A 2.068 2.068 0 0 0 34.277 5.533 L 34.774 5.919 A 1.926 1.926 0 0 1 33.374 6.811 A 2.749 2.749 0 0 1 32.981 6.838 A 2.394 2.394 0 0 1 32.23 6.725 A 1.974 1.974 0 0 1 31.408 6.203 Q 30.801 5.568 30.801 4.504 Z M 29.707 1.995 L 29.707 6.75 L 28.894 6.75 L 28.894 1.995 L 29.707 1.995 Z M 38.777 5.454 L 38.777 3.27 A 1.375 1.375 0 0 0 38.466 2.874 Q 38.142 2.597 37.657 2.597 A 1.238 1.238 0 0 0 37.23 2.668 A 1.068 1.068 0 0 0 36.725 3.059 A 1.51 1.51 0 0 0 36.516 3.484 Q 36.45 3.689 36.419 3.939 A 3.955 3.955 0 0 0 36.391 4.425 A 3.162 3.162 0 0 0 36.427 4.918 Q 36.468 5.178 36.556 5.389 A 1.474 1.474 0 0 0 36.725 5.691 A 1.06 1.06 0 0 0 37.487 6.139 A 1.391 1.391 0 0 0 37.648 6.148 Q 38.421 6.148 38.777 5.454 Z M 31.641 3.938 L 34.022 3.938 L 34.022 3.876 Q 33.996 3.417 33.826 3.111 A 1.13 1.13 0 0 0 33.688 2.916 A 0.983 0.983 0 0 0 33.034 2.584 A 1.39 1.39 0 0 0 32.88 2.575 A 1.106 1.106 0 0 0 32.357 2.698 A 1.14 1.14 0 0 0 32.054 2.933 A 1.417 1.417 0 0 0 31.777 3.379 Q 31.703 3.563 31.664 3.785 A 2.741 2.741 0 0 0 31.641 3.938 Z M 28.828 0.734 Q 28.828 0.536 28.949 0.4 Q 29.061 0.274 29.273 0.264 A 0.783 0.783 0 0 1 29.307 0.264 Q 29.544 0.264 29.667 0.4 A 0.474 0.474 0 0 1 29.79 0.703 A 0.614 0.614 0 0 1 29.791 0.734 A 0.523 0.523 0 0 1 29.765 0.9 A 0.442 0.442 0 0 1 29.667 1.063 Q 29.555 1.184 29.347 1.194 A 0.803 0.803 0 0 1 29.307 1.195 Q 29.135 1.195 29.024 1.126 A 0.362 0.362 0 0 1 28.949 1.063 A 0.456 0.456 0 0 1 28.831 0.788 A 0.605 0.605 0 0 1 28.828 0.734 Z" vector-effect="non-scaling-stroke"/></g><g transform="translate(25, 93)" id="svgGroup" stroke-linecap="round" fill-rule="evenodd" font-size="9pt" stroke="#000" stroke-width="0.25mm" fill="#000" style="stroke:#000;stroke-width:0.25mm;fill:#000"><path d="M 61.598 0 L 61.598 2.571 A 1.767 1.767 0 0 1 62.264 2.053 A 1.832 1.832 0 0 1 63.004 1.907 A 1.905 1.905 0 0 1 63.638 2.004 Q 64.48 2.3 64.523 3.506 A 3.668 3.668 0 0 1 64.525 3.608 L 64.525 6.75 L 63.712 6.75 L 63.712 3.604 A 1.837 1.837 0 0 0 63.69 3.324 Q 63.639 3.017 63.477 2.843 Q 63.291 2.645 62.937 2.606 A 1.66 1.66 0 0 0 62.758 2.597 A 1.253 1.253 0 0 0 62.344 2.664 A 1.123 1.123 0 0 0 62.064 2.808 A 1.432 1.432 0 0 0 61.598 3.362 L 61.598 6.75 L 60.785 6.75 L 60.785 0 L 61.598 0 Z M 58.777 2.522 L 58.816 1.995 L 59.559 1.995 L 59.559 6.636 A 2.511 2.511 0 0 1 59.488 7.249 A 1.738 1.738 0 0 1 59.012 8.09 A 1.834 1.834 0 0 1 58.082 8.57 A 2.671 2.671 0 0 1 57.542 8.622 A 2.446 2.446 0 0 1 56.536 8.402 A 2.003 2.003 0 0 1 56.125 8.161 A 1.563 1.563 0 0 1 55.784 7.8 L 56.206 7.313 A 1.889 1.889 0 0 0 56.641 7.712 A 1.514 1.514 0 0 0 57.485 7.958 A 1.695 1.695 0 0 0 57.862 7.919 Q 58.13 7.858 58.324 7.702 A 1.037 1.037 0 0 0 58.41 7.625 A 1.09 1.09 0 0 0 58.687 7.132 Q 58.734 6.959 58.741 6.752 A 2.134 2.134 0 0 0 58.742 6.684 L 58.742 6.275 A 1.601 1.601 0 0 1 57.69 6.821 A 2.279 2.279 0 0 1 57.41 6.838 A 1.672 1.672 0 0 1 56.655 6.67 Q 56.333 6.51 56.083 6.197 A 2.14 2.14 0 0 1 56.059 6.166 A 2.316 2.316 0 0 1 55.676 5.386 Q 55.542 4.922 55.542 4.333 Q 55.542 3.472 55.851 2.884 A 2.096 2.096 0 0 1 56.057 2.564 Q 56.571 1.907 57.419 1.907 A 1.971 1.971 0 0 1 58.018 1.994 A 1.55 1.55 0 0 1 58.777 2.522 Z M 10.762 3.393 L 9.945 3.393 Q 9.945 3.059 9.661 2.817 Q 9.378 2.575 8.947 2.575 Q 8.503 2.575 8.253 2.769 A 0.653 0.653 0 0 0 8.078 2.967 Q 8.005 3.098 8.003 3.263 A 0.771 0.771 0 0 0 8.002 3.274 A 0.588 0.588 0 0 0 8.033 3.467 A 0.48 0.48 0 0 0 8.235 3.718 A 1.093 1.093 0 0 0 8.386 3.796 Q 8.55 3.868 8.805 3.937 A 6.581 6.581 0 0 0 9.077 4.003 A 6.318 6.318 0 0 1 9.485 4.108 Q 9.821 4.208 10.063 4.329 A 1.901 1.901 0 0 1 10.319 4.481 Q 10.456 4.579 10.554 4.692 A 1.06 1.06 0 0 1 10.624 4.783 A 1.024 1.024 0 0 1 10.786 5.191 A 1.388 1.388 0 0 1 10.806 5.432 Q 10.806 6.069 10.296 6.453 Q 9.814 6.817 9.06 6.837 A 3.337 3.337 0 0 1 8.974 6.838 A 2.746 2.746 0 0 1 8.439 6.788 A 2.124 2.124 0 0 1 7.963 6.636 A 1.771 1.771 0 0 1 7.529 6.358 A 1.54 1.54 0 0 1 7.275 6.071 Q 7.027 5.708 7.027 5.287 L 7.84 5.287 A 0.932 0.932 0 0 0 7.913 5.612 A 0.827 0.827 0 0 0 8.167 5.935 A 1.072 1.072 0 0 0 8.569 6.128 Q 8.724 6.167 8.905 6.173 A 2.013 2.013 0 0 0 8.974 6.174 A 1.863 1.863 0 0 0 9.269 6.152 Q 9.431 6.126 9.562 6.07 A 0.941 0.941 0 0 0 9.714 5.988 A 0.689 0.689 0 0 0 9.879 5.837 A 0.554 0.554 0 0 0 9.993 5.489 A 0.698 0.698 0 0 0 9.957 5.258 A 0.581 0.581 0 0 0 9.745 4.977 A 1.05 1.05 0 0 0 9.576 4.878 Q 9.387 4.788 9.092 4.712 A 5.392 5.392 0 0 0 8.879 4.663 A 6.342 6.342 0 0 1 8.518 4.575 Q 8.148 4.473 7.899 4.346 Q 7.6 4.194 7.43 3.994 A 1.017 1.017 0 0 1 7.363 3.907 Q 7.189 3.652 7.189 3.3 A 1.206 1.206 0 0 1 7.589 2.396 A 1.694 1.694 0 0 1 7.684 2.312 A 1.752 1.752 0 0 1 8.467 1.952 A 2.471 2.471 0 0 1 8.947 1.907 A 2.559 2.559 0 0 1 9.511 1.966 A 1.757 1.757 0 0 1 10.259 2.325 Q 10.762 2.742 10.762 3.393 Z M 2.259 1.995 L 3.028 1.995 L 3.054 2.593 Q 3.591 1.918 4.45 1.907 A 2.234 2.234 0 0 1 4.478 1.907 A 1.905 1.905 0 0 1 5.112 2.004 Q 5.953 2.3 5.996 3.506 A 3.668 3.668 0 0 1 5.999 3.608 L 5.999 6.75 L 5.186 6.75 L 5.186 3.604 A 1.837 1.837 0 0 0 5.163 3.324 Q 5.113 3.017 4.95 2.843 Q 4.764 2.645 4.411 2.606 A 1.66 1.66 0 0 0 4.232 2.597 A 1.253 1.253 0 0 0 3.818 2.664 A 1.123 1.123 0 0 0 3.538 2.808 A 1.432 1.432 0 0 0 3.072 3.362 L 3.072 6.75 L 2.259 6.75 L 2.259 1.995 Z M 19.701 1.995 L 20.47 1.995 L 20.496 2.593 Q 21.032 1.918 21.892 1.907 A 2.234 2.234 0 0 1 21.92 1.907 A 1.905 1.905 0 0 1 22.553 2.004 Q 23.395 2.3 23.438 3.506 A 3.668 3.668 0 0 1 23.44 3.608 L 23.44 6.75 L 22.627 6.75 L 22.627 3.604 A 1.837 1.837 0 0 0 22.605 3.324 Q 22.555 3.017 22.392 2.843 Q 22.206 2.645 21.853 2.606 A 1.66 1.66 0 0 0 21.674 2.597 A 1.253 1.253 0 0 0 21.259 2.664 A 1.123 1.123 0 0 0 20.979 2.808 A 1.432 1.432 0 0 0 20.514 3.362 L 20.514 6.75 L 19.701 6.75 L 19.701 1.995 Z M 27.694 5.251 L 28.463 5.251 A 1.432 1.432 0 0 1 28.264 5.901 A 1.772 1.772 0 0 1 28.182 6.029 A 1.828 1.828 0 0 1 27.573 6.574 A 2.169 2.169 0 0 1 27.49 6.618 A 1.997 1.997 0 0 1 26.574 6.838 A 2.346 2.346 0 0 1 25.876 6.739 A 1.839 1.839 0 0 1 25.029 6.19 A 2.171 2.171 0 0 1 24.565 5.31 Q 24.456 4.909 24.456 4.417 L 24.456 4.28 A 3.24 3.24 0 0 1 24.519 3.624 A 2.57 2.57 0 0 1 24.71 3.045 A 2.008 2.008 0 0 1 25.15 2.431 A 1.892 1.892 0 0 1 25.442 2.206 A 1.943 1.943 0 0 1 26.198 1.934 A 2.529 2.529 0 0 1 26.569 1.907 A 2.196 2.196 0 0 1 27.217 1.999 A 1.786 1.786 0 0 1 27.899 2.386 A 1.693 1.693 0 0 1 28.457 3.535 A 2.239 2.239 0 0 1 28.463 3.63 L 27.694 3.63 Q 27.659 3.168 27.345 2.872 A 1.078 1.078 0 0 0 26.616 2.576 A 1.402 1.402 0 0 0 26.569 2.575 A 1.374 1.374 0 0 0 26.148 2.637 A 1.081 1.081 0 0 0 25.609 3.021 A 1.469 1.469 0 0 0 25.382 3.468 Q 25.317 3.674 25.289 3.923 A 3.514 3.514 0 0 0 25.269 4.311 L 25.269 4.465 Q 25.269 5.287 25.607 5.73 A 1.1 1.1 0 0 0 26.394 6.165 A 1.611 1.611 0 0 0 26.574 6.174 A 1.171 1.171 0 0 0 27.334 5.911 A 1.007 1.007 0 0 0 27.578 5.629 A 0.914 0.914 0 0 0 27.694 5.251 Z M 18.593 6.75 L 17.741 6.75 A 0.632 0.632 0 0 1 17.705 6.66 Q 17.674 6.562 17.649 6.41 A 3.997 3.997 0 0 1 17.626 6.249 Q 17.06 6.838 16.273 6.838 A 2.033 2.033 0 0 1 15.744 6.772 A 1.529 1.529 0 0 1 15.119 6.44 Q 14.669 6.042 14.669 5.432 Q 14.669 4.689 15.234 4.278 Q 15.798 3.867 16.822 3.867 L 17.613 3.867 L 17.613 3.494 A 1.152 1.152 0 0 0 17.578 3.199 A 0.828 0.828 0 0 0 17.358 2.815 Q 17.142 2.6 16.752 2.568 A 1.748 1.748 0 0 0 16.607 2.562 Q 16.172 2.562 15.877 2.782 Q 15.583 3.001 15.583 3.313 L 14.766 3.313 A 1.041 1.041 0 0 1 14.891 2.825 A 1.409 1.409 0 0 1 15.018 2.626 Q 15.271 2.294 15.704 2.101 A 2.249 2.249 0 0 1 16.48 1.913 A 2.669 2.669 0 0 1 16.655 1.907 A 2.65 2.65 0 0 1 17.173 1.955 Q 17.48 2.016 17.719 2.156 A 1.439 1.439 0 0 1 17.943 2.318 A 1.396 1.396 0 0 1 18.396 3.144 A 1.998 1.998 0 0 1 18.426 3.45 L 18.426 5.638 Q 18.426 6.073 18.5 6.39 A 1.707 1.707 0 0 0 18.593 6.68 L 18.593 6.75 Z M 29.171 4.504 L 29.171 4.355 A 3.17 3.17 0 0 1 29.247 3.646 A 2.581 2.581 0 0 1 29.441 3.092 A 2.191 2.191 0 0 1 29.889 2.466 A 2.033 2.033 0 0 1 30.197 2.221 Q 30.683 1.907 31.25 1.907 A 2.254 2.254 0 0 1 31.863 1.986 A 1.639 1.639 0 0 1 32.691 2.518 Q 33.205 3.129 33.205 4.267 L 33.205 4.605 L 29.984 4.605 A 2.111 2.111 0 0 0 30.055 5.114 A 1.516 1.516 0 0 0 30.395 5.741 A 1.282 1.282 0 0 0 31.329 6.173 A 1.652 1.652 0 0 0 31.395 6.174 A 1.763 1.763 0 0 0 31.723 6.145 Q 31.947 6.103 32.124 5.999 A 1.827 1.827 0 0 0 32.633 5.551 A 2.068 2.068 0 0 0 32.647 5.533 L 33.144 5.919 A 1.926 1.926 0 0 1 31.744 6.811 A 2.749 2.749 0 0 1 31.351 6.838 A 2.394 2.394 0 0 1 30.599 6.725 A 1.974 1.974 0 0 1 29.777 6.203 Q 29.171 5.568 29.171 4.504 Z M 49.685 0.352 L 49.685 6.06 L 52.717 6.06 L 52.717 6.75 L 48.836 6.75 L 48.836 0.352 L 49.685 0.352 Z M 39.722 0.352 L 39.722 4.601 L 40.61 4.601 L 40.61 5.265 L 39.722 5.265 L 39.722 6.75 L 38.905 6.75 L 38.905 5.265 L 35.991 5.265 L 35.991 4.786 L 38.856 0.352 L 39.722 0.352 Z M 45.12 2.592 A 1.544 1.544 0 0 0 45.224 2.021 A 2.226 2.226 0 0 0 45.203 1.707 A 1.566 1.566 0 0 0 44.703 0.738 A 1.754 1.754 0 0 0 43.938 0.333 A 2.443 2.443 0 0 0 43.339 0.264 A 2.539 2.539 0 0 0 42.829 0.312 A 1.767 1.767 0 0 0 41.972 0.738 Q 41.454 1.213 41.454 2.021 A 1.808 1.808 0 0 0 41.454 2.058 A 1.499 1.499 0 0 0 41.7 2.87 A 1.626 1.626 0 0 0 41.862 3.077 A 1.726 1.726 0 0 0 42.372 3.454 A 2.119 2.119 0 0 0 42.273 3.5 A 1.738 1.738 0 0 0 41.588 4.087 A 1.629 1.629 0 0 0 41.304 5.023 A 2.272 2.272 0 0 0 41.314 5.237 A 1.63 1.63 0 0 0 41.86 6.344 A 1.895 1.895 0 0 0 42.711 6.771 A 2.797 2.797 0 0 0 43.339 6.838 A 2.796 2.796 0 0 0 43.938 6.777 A 1.925 1.925 0 0 0 44.813 6.346 A 1.578 1.578 0 0 0 45.288 5.62 A 1.989 1.989 0 0 0 45.374 5.023 A 1.581 1.581 0 0 0 45.081 4.087 Q 44.789 3.674 44.288 3.458 Q 44.719 3.248 44.971 2.874 A 1.449 1.449 0 0 0 45.12 2.592 Z M 12.155 0.844 L 12.968 0.844 L 12.968 1.995 L 13.856 1.995 L 13.856 2.624 L 12.968 2.624 L 12.968 5.572 Q 12.968 5.858 13.087 6.001 Q 13.206 6.144 13.491 6.144 A 1.046 1.046 0 0 0 13.589 6.138 Q 13.691 6.129 13.831 6.101 A 4.024 4.024 0 0 0 13.878 6.091 L 13.878 6.75 A 2.463 2.463 0 0 1 13.445 6.829 A 2.157 2.157 0 0 1 13.254 6.838 Q 12.807 6.838 12.54 6.616 A 0.856 0.856 0 0 1 12.432 6.508 Q 12.205 6.238 12.164 5.78 A 2.351 2.351 0 0 1 12.155 5.572 L 12.155 2.624 L 11.29 2.624 L 11.29 1.995 L 12.155 1.995 L 12.155 0.844 Z M 66.032 0.844 L 66.845 0.844 L 66.845 1.995 L 67.733 1.995 L 67.733 2.624 L 66.845 2.624 L 66.845 5.572 Q 66.845 5.858 66.964 6.001 Q 67.083 6.144 67.368 6.144 A 1.046 1.046 0 0 0 67.466 6.138 Q 67.568 6.129 67.708 6.101 A 4.024 4.024 0 0 0 67.755 6.091 L 67.755 6.75 A 2.463 2.463 0 0 1 67.322 6.829 A 2.157 2.157 0 0 1 67.131 6.838 Q 66.684 6.838 66.417 6.616 A 0.856 0.856 0 0 1 66.309 6.508 Q 66.082 6.238 66.041 5.78 A 2.351 2.351 0 0 1 66.032 5.572 L 66.032 2.624 L 65.167 2.624 L 65.167 1.995 L 66.032 1.995 L 66.032 0.844 Z M 0.844 0.352 L 0.844 6.75 L 0 6.75 L 0 0.352 L 0.844 0.352 Z M 54.435 1.995 L 54.435 6.75 L 53.622 6.75 L 53.622 1.995 L 54.435 1.995 Z M 58.742 5.449 L 58.742 3.278 A 1.439 1.439 0 0 0 58.441 2.891 Q 58.137 2.62 57.697 2.599 A 1.578 1.578 0 0 0 57.621 2.597 Q 57.029 2.597 56.695 3.056 A 1.51 1.51 0 0 0 56.485 3.484 Q 56.419 3.689 56.388 3.939 A 3.955 3.955 0 0 0 56.36 4.425 Q 56.36 5.229 56.689 5.689 Q 57.019 6.148 57.612 6.148 A 1.32 1.32 0 0 0 58.122 6.054 Q 58.514 5.891 58.742 5.449 Z M 38.808 1.639 L 36.914 4.601 L 38.905 4.601 L 38.905 1.463 L 38.808 1.639 Z M 44.561 5.005 A 1.375 1.375 0 0 0 44.501 4.592 A 1.109 1.109 0 0 0 44.22 4.131 A 1.148 1.148 0 0 0 43.549 3.807 A 1.593 1.593 0 0 0 43.33 3.792 A 1.466 1.466 0 0 0 42.941 3.841 A 1.086 1.086 0 0 0 42.449 4.126 A 1.123 1.123 0 0 0 42.135 4.762 A 1.572 1.572 0 0 0 42.117 5.005 A 1.48 1.48 0 0 0 42.159 5.367 A 1.019 1.019 0 0 0 42.44 5.862 Q 42.746 6.158 43.279 6.173 A 2.053 2.053 0 0 0 43.339 6.174 Q 43.833 6.174 44.142 5.94 A 1.018 1.018 0 0 0 44.235 5.86 A 1.041 1.041 0 0 0 44.535 5.292 A 1.518 1.518 0 0 0 44.561 5.005 Z M 43.339 0.932 A 1.259 1.259 0 0 0 42.986 0.979 A 0.973 0.973 0 0 0 42.563 1.228 Q 42.267 1.525 42.267 2.035 A 1.325 1.325 0 0 0 42.311 2.387 A 0.994 0.994 0 0 0 42.559 2.823 A 0.974 0.974 0 0 0 43.121 3.108 A 1.382 1.382 0 0 0 43.339 3.125 A 1.279 1.279 0 0 0 43.684 3.08 A 0.952 0.952 0 0 0 44.119 2.823 A 1.018 1.018 0 0 0 44.394 2.26 A 1.426 1.426 0 0 0 44.411 2.035 A 1.282 1.282 0 0 0 44.361 1.668 A 1.013 1.013 0 0 0 44.108 1.239 Q 43.805 0.932 43.339 0.932 Z M 17.613 5.418 L 17.613 4.443 L 16.976 4.443 Q 15.482 4.443 15.482 5.317 Q 15.482 5.7 15.737 5.915 A 0.893 0.893 0 0 0 16.15 6.108 A 1.259 1.259 0 0 0 16.392 6.13 A 1.429 1.429 0 0 0 17.117 5.933 A 1.335 1.335 0 0 0 17.412 5.705 A 1.108 1.108 0 0 0 17.613 5.418 Z M 30.01 3.938 L 32.392 3.938 L 32.392 3.876 Q 32.366 3.417 32.195 3.111 A 1.13 1.13 0 0 0 32.058 2.916 A 0.983 0.983 0 0 0 31.404 2.584 A 1.39 1.39 0 0 0 31.25 2.575 A 1.106 1.106 0 0 0 30.727 2.698 A 1.14 1.14 0 0 0 30.423 2.933 A 1.417 1.417 0 0 0 30.147 3.379 Q 30.073 3.563 30.033 3.785 A 2.741 2.741 0 0 0 30.01 3.938 Z M 53.556 0.734 Q 53.556 0.536 53.677 0.4 Q 53.789 0.274 54.001 0.264 A 0.783 0.783 0 0 1 54.035 0.264 Q 54.272 0.264 54.396 0.4 A 0.474 0.474 0 0 1 54.518 0.703 A 0.614 0.614 0 0 1 54.519 0.734 A 0.523 0.523 0 0 1 54.493 0.9 A 0.442 0.442 0 0 1 54.396 1.063 Q 54.283 1.184 54.075 1.194 A 0.803 0.803 0 0 1 54.035 1.195 Q 53.863 1.195 53.752 1.126 A 0.362 0.362 0 0 1 53.677 1.063 A 0.456 0.456 0 0 1 53.559 0.788 A 0.605 0.605 0 0 1 53.556 0.734 Z" vector-effect="non-scaling-stroke"/></g>
</svg>