<?xml version="1.0" encoding="UTF-8"?>
<svg width="48px" height="48px" viewBox="0 0 48 48" version="1.1" xmlns="http://www.w3.org/2000/svg" xmlns:xlink="http://www.w3.org/1999/xlink">
    <title>Icon-Resource/Compute/Res_Amazon-Lambda_Lambda-Function_48_Light</title>
    <g id="Icon-Resource/Compute/Res_Amazon-Lambda_Lambda-Function_48" stroke="none" stroke-width="1" fill="none" fill-rule="evenodd">
        <path transform="translate(12.000000, 8.000000), scale(.65)" d="M24,44 C12.972,44 4,35.028 4,24 C4,12.972 12.972,4 24,4 C35.028,4 44,12.972 44,24 C44,35.028 35.028,44 24,44 L24,44 Z M24,2 C11.869,2 2,11.869 2,24 C2,36.131 11.869,46 24,46 C36.131,46 46,36.131 46,24 C46,11.869 36.131,2 24,2 L24,2 Z M17.231,35.25 L11.876,35.25 L18.221,21.959 L20.902,27.492 L17.231,35.25 Z M19.114,19.215 C18.946,18.87 18.597,18.651 18.214,18.651 L18.211,18.651 C17.826,18.652 17.477,18.874 17.312,19.221 L9.389,35.819 C9.24,36.129 9.262,36.493 9.445,36.783 C9.628,37.074 9.947,37.25 10.291,37.25 L17.864,37.25 C18.251,37.25 18.603,37.027 18.769,36.678 L22.915,27.915 C23.044,27.642 23.043,27.323 22.911,27.051 L19.114,19.215 Z M36.125,35.25 L30.673,35.25 L20.761,13.953 C20.597,13.601 20.243,13.375 19.854,13.375 L16.251,13.375 L16.255,9.25 L23.475,9.25 L33.339,30.545 C33.503,30.898 33.856,31.125 34.246,31.125 L36.125,31.125 L36.125,35.25 Z M37.125,29.125 L34.885,29.125 L25.021,7.83 C24.856,7.477 24.503,7.25 24.113,7.25 L15.256,7.25 C14.704,7.25 14.257,7.697 14.256,8.249 L14.25,14.374 C14.25,14.64 14.355,14.894 14.543,15.082 C14.73,15.27 14.984,15.375 15.25,15.375 L19.217,15.375 L29.129,36.672 C29.293,37.024 29.646,37.25 30.035,37.25 L37.125,37.25 C37.678,37.25 38.125,36.803 38.125,36.25 L38.125,30.125 C38.125,29.572 37.678,29.125 37.125,29.125 L37.125,29.125 Z" id="Amazon-Lambda-Lambda-Function_Resource-Icon_light-bg" fill="#000000"></path>
    </g><g transform="translate(25, 83)" id="svgGroup" stroke-linecap="round" fill-rule="evenodd" font-size="9pt" stroke="#000" stroke-width="0.25mm" fill="#000" style="stroke:#000;stroke-width:0.25mm;fill:#000"><path d="M 23.12 0.088 L 24.13 4.469 L 24.253 5.313 L 24.434 4.553 L 25.699 0.088 L 26.411 0.088 L 27.646 4.553 L 27.822 5.326 L 27.958 4.465 L 28.951 0.088 L 29.799 0.088 L 28.248 6.486 L 27.479 6.486 L 26.161 1.824 L 26.06 1.336 L 25.958 1.824 L 24.592 6.486 L 23.823 6.486 L 22.276 0.088 L 23.12 0.088 Z M 34.98 1.938 L 34.132 1.938 A 1.466 1.466 0 0 0 34.083 1.546 A 1.066 1.066 0 0 0 33.763 1.026 A 1.211 1.211 0 0 0 33.294 0.77 Q 33.042 0.694 32.722 0.694 A 2.286 2.286 0 0 0 32.342 0.724 Q 32.14 0.758 31.977 0.831 A 1.101 1.101 0 0 0 31.748 0.969 A 0.892 0.892 0 0 0 31.403 1.624 A 1.267 1.267 0 0 0 31.399 1.732 A 0.806 0.806 0 0 0 31.667 2.337 A 1.134 1.134 0 0 0 31.731 2.393 A 1.562 1.562 0 0 0 31.969 2.549 Q 32.299 2.73 32.86 2.887 A 8.228 8.228 0 0 1 33.325 3.032 Q 33.56 3.113 33.754 3.2 A 3.297 3.297 0 0 1 34.108 3.382 A 2.342 2.342 0 0 1 34.447 3.626 Q 34.637 3.792 34.759 3.985 A 1.45 1.45 0 0 1 34.776 4.012 A 1.498 1.498 0 0 1 34.972 4.568 A 1.948 1.948 0 0 1 34.994 4.86 A 1.606 1.606 0 0 1 34.871 5.497 Q 34.726 5.838 34.408 6.09 A 1.886 1.886 0 0 1 34.387 6.106 Q 33.781 6.574 32.766 6.574 A 3.023 3.023 0 0 1 31.625 6.36 A 2.917 2.917 0 0 1 31.535 6.322 A 2.383 2.383 0 0 1 31.057 6.044 A 1.874 1.874 0 0 1 30.654 5.629 A 1.689 1.689 0 0 1 30.344 4.632 L 31.192 4.632 A 1.261 1.261 0 0 0 31.262 5.059 A 1.074 1.074 0 0 0 31.621 5.548 Q 32.005 5.85 32.622 5.881 A 2.87 2.87 0 0 0 32.766 5.884 A 2.628 2.628 0 0 0 33.153 5.858 Q 33.349 5.828 33.508 5.767 A 1.129 1.129 0 0 0 33.79 5.612 Q 34.146 5.339 34.146 4.869 A 1.074 1.074 0 0 0 34.103 4.559 A 0.816 0.816 0 0 0 33.816 4.142 Q 33.486 3.885 32.621 3.634 Q 31.535 3.322 31.041 2.868 Q 30.546 2.413 30.546 1.745 Q 30.546 0.989 31.151 0.494 A 2.121 2.121 0 0 1 32.041 0.071 A 3.087 3.087 0 0 1 32.722 0 A 2.913 2.913 0 0 1 33.382 0.072 A 2.372 2.372 0 0 1 33.897 0.255 A 2.051 2.051 0 0 1 34.428 0.626 A 1.834 1.834 0 0 1 34.697 0.958 A 1.798 1.798 0 0 1 34.98 1.938 Z M 3.74 6.486 L 2.351 3.898 L 0.848 3.898 L 0.848 6.486 L 0 6.486 L 0 0.088 L 2.118 0.088 A 3.809 3.809 0 0 1 2.76 0.138 Q 3.102 0.197 3.376 0.324 A 1.789 1.789 0 0 1 3.781 0.58 A 1.588 1.588 0 0 1 4.307 1.469 A 2.453 2.453 0 0 1 4.364 2.013 A 1.864 1.864 0 0 1 4.273 2.604 A 1.64 1.64 0 0 1 4.041 3.054 A 1.849 1.849 0 0 1 3.382 3.611 A 2.342 2.342 0 0 1 3.142 3.718 L 4.645 6.434 L 4.645 6.486 L 3.74 6.486 Z M 13.724 3.129 L 12.907 3.129 Q 12.907 2.795 12.623 2.553 Q 12.34 2.312 11.909 2.312 Q 11.465 2.312 11.215 2.505 A 0.653 0.653 0 0 0 11.04 2.704 Q 10.967 2.835 10.964 3 A 0.771 0.771 0 0 0 10.964 3.01 A 0.588 0.588 0 0 0 10.994 3.203 A 0.48 0.48 0 0 0 11.197 3.454 A 1.093 1.093 0 0 0 11.348 3.533 Q 11.512 3.605 11.767 3.673 A 6.581 6.581 0 0 0 12.039 3.74 A 6.318 6.318 0 0 1 12.446 3.845 Q 12.783 3.944 13.025 4.065 A 1.901 1.901 0 0 1 13.281 4.218 Q 13.418 4.315 13.516 4.429 A 1.06 1.06 0 0 1 13.586 4.52 A 1.024 1.024 0 0 1 13.748 4.927 A 1.388 1.388 0 0 1 13.768 5.168 Q 13.768 5.805 13.258 6.19 Q 12.776 6.554 12.022 6.573 A 3.337 3.337 0 0 1 11.936 6.574 A 2.746 2.746 0 0 1 11.401 6.525 A 2.124 2.124 0 0 1 10.925 6.372 A 1.771 1.771 0 0 1 10.491 6.094 A 1.54 1.54 0 0 1 10.237 5.807 Q 9.989 5.445 9.989 5.023 L 10.802 5.023 A 0.932 0.932 0 0 0 10.875 5.348 A 0.827 0.827 0 0 0 11.129 5.671 A 1.072 1.072 0 0 0 11.531 5.864 Q 11.686 5.903 11.867 5.91 A 2.013 2.013 0 0 0 11.936 5.911 A 1.863 1.863 0 0 0 12.231 5.889 Q 12.393 5.863 12.524 5.806 A 0.941 0.941 0 0 0 12.676 5.724 A 0.689 0.689 0 0 0 12.841 5.574 A 0.554 0.554 0 0 0 12.955 5.225 A 0.698 0.698 0 0 0 12.919 4.994 A 0.581 0.581 0 0 0 12.707 4.713 A 1.05 1.05 0 0 0 12.538 4.615 Q 12.349 4.524 12.054 4.449 A 5.392 5.392 0 0 0 11.841 4.399 A 6.342 6.342 0 0 1 11.48 4.311 Q 11.11 4.209 10.861 4.083 Q 10.562 3.93 10.392 3.731 A 1.017 1.017 0 0 1 10.325 3.643 Q 10.151 3.388 10.151 3.037 A 1.206 1.206 0 0 1 10.55 2.132 A 1.694 1.694 0 0 1 10.646 2.048 A 1.752 1.752 0 0 1 11.429 1.688 A 2.471 2.471 0 0 1 11.909 1.644 A 2.559 2.559 0 0 1 12.473 1.702 A 1.757 1.757 0 0 1 13.221 2.061 Q 13.724 2.479 13.724 3.129 Z M 21.327 6.486 L 20.716 4.816 L 18.035 4.816 L 17.433 6.486 L 16.563 6.486 L 19.006 0.088 L 19.745 0.088 L 22.192 6.486 L 21.327 6.486 Z M 5.212 4.241 L 5.212 4.091 A 3.17 3.17 0 0 1 5.288 3.382 A 2.581 2.581 0 0 1 5.482 2.828 A 2.191 2.191 0 0 1 5.93 2.202 A 2.033 2.033 0 0 1 6.238 1.958 Q 6.724 1.644 7.291 1.644 A 2.254 2.254 0 0 1 7.904 1.723 A 1.639 1.639 0 0 1 8.732 2.254 Q 9.246 2.865 9.246 4.003 L 9.246 4.342 L 6.025 4.342 A 2.111 2.111 0 0 0 6.096 4.85 A 1.516 1.516 0 0 0 6.436 5.478 A 1.282 1.282 0 0 0 7.37 5.909 A 1.652 1.652 0 0 0 7.436 5.911 A 1.763 1.763 0 0 0 7.764 5.882 Q 7.988 5.839 8.165 5.735 A 1.827 1.827 0 0 0 8.674 5.287 A 2.068 2.068 0 0 0 8.688 5.269 L 9.185 5.656 A 1.926 1.926 0 0 1 7.785 6.547 A 2.749 2.749 0 0 1 7.392 6.574 A 2.394 2.394 0 0 1 6.64 6.461 A 1.974 1.974 0 0 1 5.818 5.939 Q 5.212 5.304 5.212 4.241 Z M 0.848 0.782 L 0.848 3.208 L 2.145 3.208 Q 2.685 3.208 3.035 2.968 A 1.174 1.174 0 0 0 3.144 2.883 A 1.069 1.069 0 0 0 3.51 2.146 A 1.486 1.486 0 0 0 3.516 2.013 Q 3.516 1.47 3.22 1.159 A 1 1 0 0 0 3.162 1.103 Q 2.808 0.787 2.14 0.782 L 0.848 0.782 Z M 19.375 1.129 L 18.29 4.122 L 20.465 4.122 L 19.375 1.129 Z M 6.051 3.674 L 8.433 3.674 L 8.433 3.612 Q 8.407 3.153 8.236 2.848 A 1.13 1.13 0 0 0 8.099 2.652 A 0.983 0.983 0 0 0 7.445 2.32 A 1.39 1.39 0 0 0 7.291 2.312 A 1.106 1.106 0 0 0 6.768 2.435 A 1.14 1.14 0 0 0 6.464 2.67 A 1.417 1.417 0 0 0 6.188 3.116 Q 6.114 3.3 6.074 3.522 A 2.741 2.741 0 0 0 6.051 3.674 Z" vector-effect="non-scaling-stroke"/></g><g transform="translate(25, 93)" id="svgGroup" stroke-linecap="round" fill-rule="evenodd" font-size="9pt" stroke="#000" stroke-width="0.25mm" fill="#000" style="stroke:#000;stroke-width:0.25mm;fill:#000"><path d="M 9.606 1.995 L 10.375 1.995 L 10.397 2.522 Q 10.92 1.907 11.808 1.907 A 2.009 2.009 0 0 1 12.319 1.968 A 1.244 1.244 0 0 1 13.166 2.672 A 1.801 1.801 0 0 1 13.783 2.118 A 1.65 1.65 0 0 1 14.313 1.937 A 2.209 2.209 0 0 1 14.682 1.907 A 2.119 2.119 0 0 1 15.326 1.997 Q 16.253 2.292 16.273 3.564 L 16.273 6.75 L 15.46 6.75 L 15.46 3.612 A 1.781 1.781 0 0 0 15.439 3.332 Q 15.416 3.185 15.365 3.067 A 0.758 0.758 0 0 0 15.227 2.85 A 0.68 0.68 0 0 0 14.974 2.682 Q 14.763 2.597 14.446 2.597 A 1.245 1.245 0 0 0 14.08 2.648 A 1.008 1.008 0 0 0 13.693 2.867 A 1.042 1.042 0 0 0 13.379 3.404 A 1.41 1.41 0 0 0 13.346 3.595 L 13.346 6.75 L 12.529 6.75 L 12.529 3.634 A 1.532 1.532 0 0 0 12.48 3.23 Q 12.354 2.768 11.896 2.643 A 1.457 1.457 0 0 0 11.514 2.597 Q 10.74 2.597 10.439 3.234 A 1.459 1.459 0 0 0 10.419 3.278 L 10.419 6.75 L 9.606 6.75 L 9.606 1.995 Z M 44.481 1.995 L 45.25 1.995 L 45.272 2.522 Q 45.795 1.907 46.683 1.907 A 2.009 2.009 0 0 1 47.194 1.968 A 1.244 1.244 0 0 1 48.041 2.672 A 1.801 1.801 0 0 1 48.658 2.118 A 1.65 1.65 0 0 1 49.188 1.937 A 2.209 2.209 0 0 1 49.557 1.907 A 2.119 2.119 0 0 1 50.201 1.997 Q 51.128 2.292 51.148 3.564 L 51.148 6.75 L 50.335 6.75 L 50.335 3.612 A 1.781 1.781 0 0 0 50.314 3.332 Q 50.291 3.185 50.24 3.067 A 0.758 0.758 0 0 0 50.102 2.85 A 0.68 0.68 0 0 0 49.849 2.682 Q 49.638 2.597 49.321 2.597 A 1.245 1.245 0 0 0 48.955 2.648 A 1.008 1.008 0 0 0 48.568 2.867 A 1.042 1.042 0 0 0 48.254 3.404 A 1.41 1.41 0 0 0 48.221 3.595 L 48.221 6.75 L 47.404 6.75 L 47.404 3.634 A 1.532 1.532 0 0 0 47.355 3.23 Q 47.229 2.768 46.771 2.643 A 1.457 1.457 0 0 0 46.389 2.597 Q 45.615 2.597 45.314 3.234 A 1.459 1.459 0 0 0 45.294 3.278 L 45.294 6.75 L 44.481 6.75 L 44.481 1.995 Z M 131.814 0 L 131.814 2.571 A 1.767 1.767 0 0 1 132.48 2.053 A 1.832 1.832 0 0 1 133.22 1.907 A 1.905 1.905 0 0 1 133.854 2.004 Q 134.696 2.3 134.739 3.506 A 3.668 3.668 0 0 1 134.741 3.608 L 134.741 6.75 L 133.928 6.75 L 133.928 3.604 A 1.837 1.837 0 0 0 133.905 3.324 Q 133.855 3.017 133.693 2.843 Q 133.507 2.645 133.153 2.606 A 1.66 1.66 0 0 0 132.974 2.597 A 1.253 1.253 0 0 0 132.56 2.664 A 1.123 1.123 0 0 0 132.28 2.808 A 1.432 1.432 0 0 0 131.814 3.362 L 131.814 6.75 L 131.001 6.75 L 131.001 0 L 131.814 0 Z M 73.279 3.234 L 73.279 3.924 L 70.594 3.924 L 70.594 6.75 L 69.75 6.75 L 69.75 0.352 L 73.714 0.352 L 73.714 1.046 L 70.594 1.046 L 70.594 3.234 L 73.279 3.234 Z M 128.993 2.522 L 129.032 1.995 L 129.775 1.995 L 129.775 6.636 A 2.511 2.511 0 0 1 129.704 7.249 A 1.738 1.738 0 0 1 129.228 8.09 A 1.834 1.834 0 0 1 128.298 8.57 A 2.671 2.671 0 0 1 127.758 8.622 A 2.446 2.446 0 0 1 126.751 8.402 A 2.003 2.003 0 0 1 126.341 8.161 A 1.563 1.563 0 0 1 126 7.8 L 126.422 7.313 A 1.889 1.889 0 0 0 126.856 7.712 A 1.514 1.514 0 0 0 127.701 7.958 A 1.695 1.695 0 0 0 128.078 7.919 Q 128.346 7.858 128.54 7.702 A 1.037 1.037 0 0 0 128.626 7.625 A 1.09 1.09 0 0 0 128.903 7.132 Q 128.95 6.959 128.956 6.752 A 2.134 2.134 0 0 0 128.958 6.684 L 128.958 6.275 A 1.601 1.601 0 0 1 127.906 6.821 A 2.279 2.279 0 0 1 127.626 6.838 A 1.672 1.672 0 0 1 126.871 6.67 Q 126.549 6.51 126.299 6.197 A 2.14 2.14 0 0 1 126.275 6.166 A 2.316 2.316 0 0 1 125.891 5.386 Q 125.758 4.922 125.758 4.333 Q 125.758 3.472 126.067 2.884 A 2.096 2.096 0 0 1 126.272 2.564 Q 126.787 1.907 127.635 1.907 A 1.971 1.971 0 0 1 128.234 1.994 A 1.55 1.55 0 0 1 128.993 2.522 Z M 79.462 1.995 L 80.231 1.995 L 80.257 2.593 Q 80.794 1.918 81.654 1.907 A 2.234 2.234 0 0 1 81.681 1.907 A 1.905 1.905 0 0 1 82.315 2.004 Q 83.157 2.3 83.199 3.506 A 3.668 3.668 0 0 1 83.202 3.608 L 83.202 6.75 L 82.389 6.75 L 82.389 3.604 A 1.837 1.837 0 0 0 82.366 3.324 Q 82.316 3.017 82.154 2.843 Q 81.967 2.645 81.614 2.606 A 1.66 1.66 0 0 0 81.435 2.597 A 1.253 1.253 0 0 0 81.021 2.664 A 1.123 1.123 0 0 0 80.741 2.808 A 1.432 1.432 0 0 0 80.275 3.362 L 80.275 6.75 L 79.462 6.75 L 79.462 1.995 Z M 99.396 1.995 L 100.165 1.995 L 100.191 2.593 Q 100.727 1.918 101.587 1.907 A 2.234 2.234 0 0 1 101.615 1.907 A 1.905 1.905 0 0 1 102.248 2.004 Q 103.09 2.3 103.133 3.506 A 3.668 3.668 0 0 1 103.135 3.608 L 103.135 6.75 L 102.322 6.75 L 102.322 3.604 A 1.837 1.837 0 0 0 102.3 3.324 Q 102.25 3.017 102.087 2.843 Q 101.901 2.645 101.548 2.606 A 1.66 1.66 0 0 0 101.369 2.597 A 1.253 1.253 0 0 0 100.954 2.664 A 1.123 1.123 0 0 0 100.674 2.808 A 1.432 1.432 0 0 0 100.208 3.362 L 100.208 6.75 L 99.396 6.75 L 99.396 1.995 Z M 77.454 6.75 L 77.436 6.28 A 1.526 1.526 0 0 1 76.61 6.775 Q 76.36 6.836 76.062 6.838 A 2.996 2.996 0 0 1 76.043 6.838 A 2.086 2.086 0 0 1 75.583 6.79 Q 75.152 6.693 74.885 6.396 A 1.41 1.41 0 0 1 74.602 5.899 Q 74.485 5.556 74.483 5.089 L 74.483 1.995 L 75.296 1.995 L 75.296 5.067 Q 75.296 6.037 76.004 6.137 A 1.229 1.229 0 0 0 76.175 6.148 A 1.927 1.927 0 0 0 76.626 6.099 Q 77.188 5.964 77.414 5.454 L 77.414 1.995 L 78.227 1.995 L 78.227 6.75 L 77.454 6.75 Z M 87.456 5.251 L 88.225 5.251 A 1.432 1.432 0 0 1 88.025 5.901 A 1.772 1.772 0 0 1 87.943 6.029 A 1.828 1.828 0 0 1 87.334 6.574 A 2.169 2.169 0 0 1 87.251 6.618 A 1.997 1.997 0 0 1 86.335 6.838 A 2.346 2.346 0 0 1 85.638 6.739 A 1.839 1.839 0 0 1 84.79 6.19 A 2.171 2.171 0 0 1 84.327 5.31 Q 84.217 4.909 84.217 4.417 L 84.217 4.28 A 3.24 3.24 0 0 1 84.281 3.624 A 2.57 2.57 0 0 1 84.472 3.045 A 2.008 2.008 0 0 1 84.911 2.431 A 1.892 1.892 0 0 1 85.203 2.206 A 1.943 1.943 0 0 1 85.96 1.934 A 2.529 2.529 0 0 1 86.331 1.907 A 2.196 2.196 0 0 1 86.979 1.999 A 1.786 1.786 0 0 1 87.66 2.386 A 1.693 1.693 0 0 1 88.218 3.535 A 2.239 2.239 0 0 1 88.225 3.63 L 87.456 3.63 Q 87.42 3.168 87.106 2.872 A 1.078 1.078 0 0 0 86.377 2.576 A 1.402 1.402 0 0 0 86.331 2.575 A 1.374 1.374 0 0 0 85.909 2.637 A 1.081 1.081 0 0 0 85.37 3.021 A 1.469 1.469 0 0 0 85.144 3.468 Q 85.078 3.674 85.05 3.923 A 3.514 3.514 0 0 0 85.03 4.311 L 85.03 4.465 Q 85.03 5.287 85.368 5.73 A 1.1 1.1 0 0 0 86.155 6.165 A 1.611 1.611 0 0 0 86.335 6.174 A 1.171 1.171 0 0 0 87.095 5.911 A 1.007 1.007 0 0 0 87.339 5.629 A 0.914 0.914 0 0 0 87.456 5.251 Z M 8.503 6.75 L 7.651 6.75 A 0.632 0.632 0 0 1 7.615 6.66 Q 7.584 6.562 7.559 6.41 A 3.997 3.997 0 0 1 7.537 6.249 Q 6.97 6.838 6.183 6.838 A 2.033 2.033 0 0 1 5.654 6.772 A 1.529 1.529 0 0 1 5.03 6.44 Q 4.579 6.042 4.579 5.432 Q 4.579 4.689 5.144 4.278 Q 5.708 3.867 6.732 3.867 L 7.523 3.867 L 7.523 3.494 A 1.152 1.152 0 0 0 7.488 3.199 A 0.828 0.828 0 0 0 7.269 2.815 Q 7.052 2.6 6.662 2.568 A 1.748 1.748 0 0 0 6.517 2.562 Q 6.082 2.562 5.788 2.782 Q 5.493 3.001 5.493 3.313 L 4.676 3.313 A 1.041 1.041 0 0 1 4.801 2.825 A 1.409 1.409 0 0 1 4.928 2.626 Q 5.181 2.294 5.614 2.101 A 2.249 2.249 0 0 1 6.39 1.913 A 2.669 2.669 0 0 1 6.565 1.907 A 2.65 2.65 0 0 1 7.083 1.955 Q 7.39 2.016 7.629 2.156 A 1.439 1.439 0 0 1 7.853 2.318 A 1.396 1.396 0 0 1 8.306 3.144 A 1.998 1.998 0 0 1 8.336 3.45 L 8.336 5.638 Q 8.336 6.073 8.41 6.39 A 1.707 1.707 0 0 0 8.503 6.68 L 8.503 6.75 Z M 31.412 6.75 L 30.56 6.75 A 0.632 0.632 0 0 1 30.524 6.66 Q 30.493 6.562 30.468 6.41 A 3.997 3.997 0 0 1 30.445 6.249 Q 29.878 6.838 29.092 6.838 A 2.033 2.033 0 0 1 28.563 6.772 A 1.529 1.529 0 0 1 27.938 6.44 Q 27.488 6.042 27.488 5.432 Q 27.488 4.689 28.052 4.278 Q 28.617 3.867 29.641 3.867 L 30.432 3.867 L 30.432 3.494 A 1.152 1.152 0 0 0 30.396 3.199 A 0.828 0.828 0 0 0 30.177 2.815 Q 29.961 2.6 29.571 2.568 A 1.748 1.748 0 0 0 29.426 2.562 Q 28.991 2.562 28.696 2.782 Q 28.402 3.001 28.402 3.313 L 27.584 3.313 A 1.041 1.041 0 0 1 27.709 2.825 A 1.409 1.409 0 0 1 27.837 2.626 Q 28.09 2.294 28.523 2.101 A 2.249 2.249 0 0 1 29.298 1.913 A 2.669 2.669 0 0 1 29.474 1.907 A 2.65 2.65 0 0 1 29.992 1.955 Q 30.299 2.016 30.538 2.156 A 1.439 1.439 0 0 1 30.762 2.318 A 1.396 1.396 0 0 1 31.215 3.144 A 1.998 1.998 0 0 1 31.245 3.45 L 31.245 5.638 Q 31.245 6.073 31.319 6.39 A 1.707 1.707 0 0 0 31.412 6.68 L 31.412 6.75 Z M 43.378 6.75 L 42.526 6.75 A 0.632 0.632 0 0 1 42.49 6.66 Q 42.459 6.562 42.434 6.41 A 3.997 3.997 0 0 1 42.412 6.249 Q 41.845 6.838 41.058 6.838 A 2.033 2.033 0 0 1 40.529 6.772 A 1.529 1.529 0 0 1 39.905 6.44 Q 39.454 6.042 39.454 5.432 Q 39.454 4.689 40.019 4.278 Q 40.583 3.867 41.607 3.867 L 42.398 3.867 L 42.398 3.494 A 1.152 1.152 0 0 0 42.363 3.199 A 0.828 0.828 0 0 0 42.144 2.815 Q 41.927 2.6 41.537 2.568 A 1.748 1.748 0 0 0 41.392 2.562 Q 40.957 2.562 40.663 2.782 Q 40.368 3.001 40.368 3.313 L 39.551 3.313 A 1.041 1.041 0 0 1 39.676 2.825 A 1.409 1.409 0 0 1 39.803 2.626 Q 40.056 2.294 40.489 2.101 A 2.249 2.249 0 0 1 41.265 1.913 A 2.669 2.669 0 0 1 41.44 1.907 A 2.65 2.65 0 0 1 41.958 1.955 Q 42.265 2.016 42.504 2.156 A 1.439 1.439 0 0 1 42.728 2.318 A 1.396 1.396 0 0 1 43.181 3.144 A 1.998 1.998 0 0 1 43.211 3.45 L 43.211 5.638 Q 43.211 6.073 43.285 6.39 A 1.707 1.707 0 0 0 43.378 6.68 L 43.378 6.75 Z M 66.287 6.75 L 65.435 6.75 A 0.632 0.632 0 0 1 65.399 6.66 Q 65.368 6.562 65.343 6.41 A 3.997 3.997 0 0 1 65.32 6.249 Q 64.753 6.838 63.967 6.838 A 2.033 2.033 0 0 1 63.438 6.772 A 1.529 1.529 0 0 1 62.813 6.44 Q 62.363 6.042 62.363 5.432 Q 62.363 4.689 62.927 4.278 Q 63.492 3.867 64.516 3.867 L 65.307 3.867 L 65.307 3.494 A 1.152 1.152 0 0 0 65.271 3.199 A 0.828 0.828 0 0 0 65.052 2.815 Q 64.836 2.6 64.446 2.568 A 1.748 1.748 0 0 0 64.301 2.562 Q 63.866 2.562 63.571 2.782 Q 63.277 3.001 63.277 3.313 L 62.459 3.313 A 1.041 1.041 0 0 1 62.584 2.825 A 1.409 1.409 0 0 1 62.712 2.626 Q 62.965 2.294 63.398 2.101 A 2.249 2.249 0 0 1 64.173 1.913 A 2.669 2.669 0 0 1 64.349 1.907 A 2.65 2.65 0 0 1 64.867 1.955 Q 65.174 2.016 65.413 2.156 A 1.439 1.439 0 0 1 65.637 2.318 A 1.396 1.396 0 0 1 66.09 3.144 A 1.998 1.998 0 0 1 66.12 3.45 L 66.12 5.638 Q 66.12 6.073 66.194 6.39 A 1.707 1.707 0 0 0 66.287 6.68 L 66.287 6.75 Z M 21.524 4.355 L 21.524 4.425 Q 21.524 5.308 21.196 5.909 A 2.141 2.141 0 0 1 21.023 6.177 A 1.647 1.647 0 0 1 20.437 6.673 Q 20.122 6.828 19.731 6.837 A 2.112 2.112 0 0 1 19.679 6.838 A 2.039 2.039 0 0 1 19.084 6.756 A 1.561 1.561 0 0 1 18.286 6.201 L 18.246 6.75 L 17.499 6.75 L 17.499 0 L 18.312 0 L 18.312 2.518 A 1.605 1.605 0 0 1 19.479 1.915 A 2.285 2.285 0 0 1 19.67 1.907 A 1.835 1.835 0 0 1 20.301 2.011 A 1.579 1.579 0 0 1 21.03 2.562 Q 21.444 3.11 21.511 3.998 A 4.727 4.727 0 0 1 21.524 4.355 Z M 56.399 4.355 L 56.399 4.425 Q 56.399 5.308 56.071 5.909 A 2.141 2.141 0 0 1 55.898 6.177 A 1.647 1.647 0 0 1 55.312 6.673 Q 54.997 6.828 54.606 6.837 A 2.112 2.112 0 0 1 54.554 6.838 A 2.039 2.039 0 0 1 53.959 6.756 A 1.561 1.561 0 0 1 53.161 6.201 L 53.121 6.75 L 52.374 6.75 L 52.374 0 L 53.187 0 L 53.187 2.518 A 1.605 1.605 0 0 1 54.354 1.915 A 2.285 2.285 0 0 1 54.545 1.907 A 1.835 1.835 0 0 1 55.176 2.011 A 1.579 1.579 0 0 1 55.905 2.562 Q 56.319 3.11 56.386 3.998 A 4.727 4.727 0 0 1 56.399 4.355 Z M 22.351 4.395 L 22.351 4.333 A 3.762 3.762 0 0 1 22.418 3.602 Q 22.505 3.16 22.708 2.812 A 2.148 2.148 0 0 1 22.869 2.573 Q 23.388 1.907 24.227 1.907 A 1.964 1.964 0 0 1 24.825 1.994 A 1.559 1.559 0 0 1 25.55 2.479 L 25.55 0 L 26.363 0 L 26.363 6.75 L 25.616 6.75 L 25.576 6.24 Q 25.088 6.838 24.218 6.838 A 1.6 1.6 0 0 1 22.998 6.31 A 2.078 2.078 0 0 1 22.871 6.161 A 2.405 2.405 0 0 1 22.447 5.255 Q 22.363 4.912 22.352 4.51 A 4.425 4.425 0 0 1 22.351 4.395 Z M 57.226 4.395 L 57.226 4.333 A 3.762 3.762 0 0 1 57.293 3.602 Q 57.38 3.16 57.583 2.812 A 2.148 2.148 0 0 1 57.744 2.573 Q 58.263 1.907 59.102 1.907 A 1.964 1.964 0 0 1 59.7 1.994 A 1.559 1.559 0 0 1 60.425 2.479 L 60.425 0 L 61.238 0 L 61.238 6.75 L 60.491 6.75 L 60.451 6.24 Q 59.963 6.838 59.093 6.838 A 1.6 1.6 0 0 1 57.873 6.31 A 2.078 2.078 0 0 1 57.746 6.161 A 2.405 2.405 0 0 1 57.322 5.255 Q 57.238 4.912 57.227 4.51 A 4.425 4.425 0 0 1 57.226 4.395 Z M 0.848 0.352 L 0.848 6.06 L 3.88 6.06 L 3.88 6.75 L 0 6.75 L 0 0.352 L 0.848 0.352 Z M 35.723 0.352 L 35.723 6.06 L 38.755 6.06 L 38.755 6.75 L 34.875 6.75 L 34.875 0.352 L 35.723 0.352 Z M 119.9 0.352 L 119.9 6.06 L 122.933 6.06 L 122.933 6.75 L 119.052 6.75 L 119.052 0.352 L 119.9 0.352 Z M 109.938 0.352 L 109.938 4.601 L 110.826 4.601 L 110.826 5.265 L 109.938 5.265 L 109.938 6.75 L 109.121 6.75 L 109.121 5.265 L 106.207 5.265 L 106.207 4.786 L 109.072 0.352 L 109.938 0.352 Z M 115.336 2.592 A 1.544 1.544 0 0 0 115.44 2.021 A 2.226 2.226 0 0 0 115.418 1.707 A 1.566 1.566 0 0 0 114.919 0.738 A 1.754 1.754 0 0 0 114.153 0.333 A 2.443 2.443 0 0 0 113.555 0.264 A 2.539 2.539 0 0 0 113.045 0.312 A 1.767 1.767 0 0 0 112.188 0.738 Q 111.669 1.213 111.669 2.021 A 1.808 1.808 0 0 0 111.67 2.058 A 1.499 1.499 0 0 0 111.916 2.87 A 1.626 1.626 0 0 0 112.078 3.077 A 1.726 1.726 0 0 0 112.588 3.454 A 2.119 2.119 0 0 0 112.488 3.5 A 1.738 1.738 0 0 0 111.803 4.087 A 1.629 1.629 0 0 0 111.52 5.023 A 2.272 2.272 0 0 0 111.53 5.237 A 1.63 1.63 0 0 0 112.076 6.344 A 1.895 1.895 0 0 0 112.926 6.771 A 2.797 2.797 0 0 0 113.555 6.838 A 2.796 2.796 0 0 0 114.154 6.777 A 1.925 1.925 0 0 0 115.029 6.346 A 1.578 1.578 0 0 0 115.504 5.62 A 1.989 1.989 0 0 0 115.589 5.023 A 1.581 1.581 0 0 0 115.297 4.087 Q 115.005 3.674 114.504 3.458 Q 114.935 3.248 115.187 2.874 A 1.449 1.449 0 0 0 115.336 2.592 Z M 89.429 0.844 L 90.242 0.844 L 90.242 1.995 L 91.129 1.995 L 91.129 2.624 L 90.242 2.624 L 90.242 5.572 Q 90.242 5.858 90.36 6.001 Q 90.479 6.144 90.765 6.144 A 1.046 1.046 0 0 0 90.862 6.138 Q 90.965 6.129 91.105 6.101 A 4.024 4.024 0 0 0 91.151 6.091 L 91.151 6.75 A 2.463 2.463 0 0 1 90.719 6.829 A 2.157 2.157 0 0 1 90.527 6.838 Q 90.08 6.838 89.814 6.616 A 0.856 0.856 0 0 1 89.706 6.508 Q 89.478 6.238 89.438 5.78 A 2.351 2.351 0 0 1 89.429 5.572 L 89.429 2.624 L 88.563 2.624 L 88.563 1.995 L 89.429 1.995 L 89.429 0.844 Z M 136.248 0.844 L 137.061 0.844 L 137.061 1.995 L 137.949 1.995 L 137.949 2.624 L 137.061 2.624 L 137.061 5.572 Q 137.061 5.858 137.18 6.001 Q 137.298 6.144 137.584 6.144 A 1.046 1.046 0 0 0 137.681 6.138 Q 137.784 6.129 137.924 6.101 A 4.024 4.024 0 0 0 137.971 6.091 L 137.971 6.75 A 2.463 2.463 0 0 1 137.538 6.829 A 2.157 2.157 0 0 1 137.347 6.838 Q 136.9 6.838 136.633 6.616 A 0.856 0.856 0 0 1 136.525 6.508 Q 136.297 6.238 136.257 5.78 A 2.351 2.351 0 0 1 136.248 5.572 L 136.248 2.624 L 135.382 2.624 L 135.382 1.995 L 136.248 1.995 L 136.248 0.844 Z M 94.047 4.386 L 94.047 4.329 A 3.057 3.057 0 0 1 94.134 3.587 A 2.573 2.573 0 0 1 94.322 3.072 A 2.16 2.16 0 0 1 94.737 2.486 A 1.957 1.957 0 0 1 95.087 2.21 A 2.036 2.036 0 0 1 96.031 1.913 A 2.491 2.491 0 0 1 96.205 1.907 A 2.277 2.277 0 0 1 96.958 2.027 A 1.937 1.937 0 0 1 97.776 2.58 A 2.29 2.29 0 0 1 98.295 3.608 A 3.373 3.373 0 0 1 98.376 4.368 L 98.376 4.425 A 3.114 3.114 0 0 1 98.296 5.142 A 2.577 2.577 0 0 1 98.11 5.671 A 2.056 2.056 0 0 1 97.583 6.361 A 2.001 2.001 0 0 1 97.35 6.53 A 2.045 2.045 0 0 1 96.43 6.829 A 2.529 2.529 0 0 1 96.214 6.838 A 2.262 2.262 0 0 1 95.463 6.718 A 1.938 1.938 0 0 1 94.647 6.166 A 2.297 2.297 0 0 1 94.122 5.111 A 3.357 3.357 0 0 1 94.047 4.386 Z M 92.962 1.995 L 92.962 6.75 L 92.149 6.75 L 92.149 1.995 L 92.962 1.995 Z M 124.651 1.995 L 124.651 6.75 L 123.838 6.75 L 123.838 1.995 L 124.651 1.995 Z M 94.865 4.425 A 2.772 2.772 0 0 0 94.912 4.954 Q 94.973 5.264 95.11 5.51 A 1.545 1.545 0 0 0 95.232 5.695 Q 95.599 6.174 96.214 6.174 A 1.269 1.269 0 0 0 96.703 6.083 Q 96.983 5.967 97.185 5.706 A 1.471 1.471 0 0 0 97.198 5.689 A 1.648 1.648 0 0 0 97.453 5.171 Q 97.522 4.945 97.548 4.672 A 3.655 3.655 0 0 0 97.563 4.329 A 2.687 2.687 0 0 0 97.512 3.789 Q 97.444 3.459 97.287 3.2 A 1.586 1.586 0 0 0 97.192 3.061 A 1.231 1.231 0 0 0 96.777 2.705 Q 96.524 2.575 96.205 2.575 Q 95.615 2.575 95.249 3.035 A 1.515 1.515 0 0 0 95.234 3.054 A 1.589 1.589 0 0 0 94.982 3.552 Q 94.912 3.772 94.884 4.039 A 3.676 3.676 0 0 0 94.865 4.425 Z M 25.55 5.454 L 25.55 3.27 A 1.375 1.375 0 0 0 25.238 2.874 Q 24.914 2.597 24.429 2.597 A 1.238 1.238 0 0 0 24.003 2.668 A 1.068 1.068 0 0 0 23.498 3.059 A 1.51 1.51 0 0 0 23.288 3.484 Q 23.223 3.689 23.191 3.939 A 3.955 3.955 0 0 0 23.164 4.425 A 3.162 3.162 0 0 0 23.2 4.918 Q 23.241 5.178 23.329 5.389 A 1.474 1.474 0 0 0 23.498 5.691 A 1.06 1.06 0 0 0 24.26 6.139 A 1.391 1.391 0 0 0 24.42 6.148 Q 25.194 6.148 25.55 5.454 Z M 60.425 5.454 L 60.425 3.27 A 1.375 1.375 0 0 0 60.113 2.874 Q 59.789 2.597 59.304 2.597 A 1.238 1.238 0 0 0 58.878 2.668 A 1.068 1.068 0 0 0 58.373 3.059 A 1.51 1.51 0 0 0 58.163 3.484 Q 58.098 3.689 58.066 3.939 A 3.955 3.955 0 0 0 58.039 4.425 A 3.162 3.162 0 0 0 58.075 4.918 Q 58.116 5.178 58.204 5.389 A 1.474 1.474 0 0 0 58.373 5.691 A 1.06 1.06 0 0 0 59.135 6.139 A 1.391 1.391 0 0 0 59.295 6.148 Q 60.069 6.148 60.425 5.454 Z M 18.312 3.344 L 18.312 5.401 A 1.528 1.528 0 0 0 18.598 5.807 Q 18.921 6.127 19.41 6.147 A 1.621 1.621 0 0 0 19.477 6.148 A 1.206 1.206 0 0 0 19.894 6.079 A 1.04 1.04 0 0 0 20.386 5.695 Q 20.711 5.243 20.711 4.333 Q 20.711 3.502 20.391 3.05 A 1.03 1.03 0 0 0 19.64 2.607 A 1.449 1.449 0 0 0 19.468 2.597 A 1.34 1.34 0 0 0 18.958 2.69 Q 18.54 2.86 18.312 3.344 Z M 53.187 3.344 L 53.187 5.401 A 1.528 1.528 0 0 0 53.473 5.807 Q 53.796 6.127 54.285 6.147 A 1.621 1.621 0 0 0 54.352 6.148 A 1.206 1.206 0 0 0 54.769 6.079 A 1.04 1.04 0 0 0 55.261 5.695 Q 55.586 5.243 55.586 4.333 Q 55.586 3.502 55.266 3.05 A 1.03 1.03 0 0 0 54.515 2.607 A 1.449 1.449 0 0 0 54.343 2.597 A 1.34 1.34 0 0 0 53.833 2.69 Q 53.415 2.86 53.187 3.344 Z M 128.958 5.449 L 128.958 3.278 A 1.439 1.439 0 0 0 128.657 2.891 Q 128.353 2.62 127.913 2.599 A 1.578 1.578 0 0 0 127.837 2.597 Q 127.245 2.597 126.911 3.056 A 1.51 1.51 0 0 0 126.701 3.484 Q 126.635 3.689 126.604 3.939 A 3.955 3.955 0 0 0 126.576 4.425 Q 126.576 5.229 126.905 5.689 Q 127.235 6.148 127.828 6.148 A 1.32 1.32 0 0 0 128.338 6.054 Q 128.729 5.891 128.958 5.449 Z M 109.024 1.639 L 107.13 4.601 L 109.121 4.601 L 109.121 1.463 L 109.024 1.639 Z M 114.776 5.005 A 1.375 1.375 0 0 0 114.717 4.592 A 1.109 1.109 0 0 0 114.436 4.131 A 1.148 1.148 0 0 0 113.764 3.807 A 1.593 1.593 0 0 0 113.546 3.792 A 1.466 1.466 0 0 0 113.157 3.841 A 1.086 1.086 0 0 0 112.665 4.126 A 1.123 1.123 0 0 0 112.351 4.762 A 1.572 1.572 0 0 0 112.333 5.005 A 1.48 1.48 0 0 0 112.375 5.367 A 1.019 1.019 0 0 0 112.656 5.862 Q 112.962 6.158 113.495 6.173 A 2.053 2.053 0 0 0 113.555 6.174 Q 114.048 6.174 114.358 5.94 A 1.018 1.018 0 0 0 114.451 5.86 A 1.041 1.041 0 0 0 114.751 5.292 A 1.518 1.518 0 0 0 114.776 5.005 Z M 113.555 0.932 A 1.259 1.259 0 0 0 113.202 0.979 A 0.973 0.973 0 0 0 112.779 1.228 Q 112.482 1.525 112.482 2.035 A 1.325 1.325 0 0 0 112.527 2.387 A 0.994 0.994 0 0 0 112.775 2.823 A 0.974 0.974 0 0 0 113.337 3.108 A 1.382 1.382 0 0 0 113.555 3.125 A 1.279 1.279 0 0 0 113.899 3.08 A 0.952 0.952 0 0 0 114.335 2.823 A 1.018 1.018 0 0 0 114.61 2.26 A 1.426 1.426 0 0 0 114.627 2.035 A 1.282 1.282 0 0 0 114.577 1.668 A 1.013 1.013 0 0 0 114.324 1.239 Q 114.021 0.932 113.555 0.932 Z M 7.523 5.418 L 7.523 4.443 L 6.886 4.443 Q 5.392 4.443 5.392 5.317 Q 5.392 5.7 5.647 5.915 A 0.893 0.893 0 0 0 6.06 6.108 A 1.259 1.259 0 0 0 6.302 6.13 A 1.429 1.429 0 0 0 7.027 5.933 A 1.335 1.335 0 0 0 7.322 5.705 A 1.108 1.108 0 0 0 7.523 5.418 Z M 30.432 5.418 L 30.432 4.443 L 29.795 4.443 Q 28.301 4.443 28.301 5.317 Q 28.301 5.7 28.556 5.915 A 0.893 0.893 0 0 0 28.969 6.108 A 1.259 1.259 0 0 0 29.21 6.13 A 1.429 1.429 0 0 0 29.936 5.933 A 1.335 1.335 0 0 0 30.231 5.705 A 1.108 1.108 0 0 0 30.432 5.418 Z M 42.398 5.418 L 42.398 4.443 L 41.761 4.443 Q 40.267 4.443 40.267 5.317 Q 40.267 5.7 40.522 5.915 A 0.893 0.893 0 0 0 40.935 6.108 A 1.259 1.259 0 0 0 41.177 6.13 A 1.429 1.429 0 0 0 41.902 5.933 A 1.335 1.335 0 0 0 42.197 5.705 A 1.108 1.108 0 0 0 42.398 5.418 Z M 65.307 5.418 L 65.307 4.443 L 64.67 4.443 Q 63.176 4.443 63.176 5.317 Q 63.176 5.7 63.431 5.915 A 0.893 0.893 0 0 0 63.844 6.108 A 1.259 1.259 0 0 0 64.085 6.13 A 1.429 1.429 0 0 0 64.811 5.933 A 1.335 1.335 0 0 0 65.106 5.705 A 1.108 1.108 0 0 0 65.307 5.418 Z M 92.083 0.734 Q 92.083 0.536 92.204 0.4 Q 92.316 0.274 92.528 0.264 A 0.783 0.783 0 0 1 92.562 0.264 Q 92.799 0.264 92.922 0.4 A 0.474 0.474 0 0 1 93.045 0.703 A 0.614 0.614 0 0 1 93.045 0.734 A 0.523 0.523 0 0 1 93.02 0.9 A 0.442 0.442 0 0 1 92.922 1.063 Q 92.81 1.184 92.602 1.194 A 0.803 0.803 0 0 1 92.562 1.195 Q 92.39 1.195 92.279 1.126 A 0.362 0.362 0 0 1 92.204 1.063 A 0.456 0.456 0 0 1 92.085 0.788 A 0.605 0.605 0 0 1 92.083 0.734 Z M 123.772 0.734 Q 123.772 0.536 123.893 0.4 Q 124.005 0.274 124.217 0.264 A 0.783 0.783 0 0 1 124.251 0.264 Q 124.488 0.264 124.611 0.4 A 0.474 0.474 0 0 1 124.734 0.703 A 0.614 0.614 0 0 1 124.734 0.734 A 0.523 0.523 0 0 1 124.709 0.9 A 0.442 0.442 0 0 1 124.611 1.063 Q 124.499 1.184 124.291 1.194 A 0.803 0.803 0 0 1 124.251 1.195 Q 124.079 1.195 123.968 1.126 A 0.362 0.362 0 0 1 123.893 1.063 A 0.456 0.456 0 0 1 123.774 0.788 A 0.605 0.605 0 0 1 123.772 0.734 Z" vector-effect="non-scaling-stroke"/></g>
</svgversion="1.0" encoding="UTF-8"?>
<svg width="48px" height="48px" viewBox="0 0 48 48" version="1.1" xmlns="http://www.w3.org/2000/svg" xmlns:xlink="http://www.w3.org/1999/xlink">
    <title>Icon-Resource/Compute/Res_Amazon-Lambda_Lambda-Function_48_Light</title>
    <g id="Icon-Resource/Compute/Res_Amazon-Lambda_Lambda-Function_48" stroke="none" stroke-width="1" fill="none" fill-rule="evenodd">
        <path transform="translate(12.000000, 8.000000), scale(.65)" d="M24,44 C12.972,44 4,35.028 4,24 C4,12.972 12.972,4 24,4 C35.028,4 44,12.972 44,24 C44,35.028 35.028,44 24,44 L24,44 Z M24,2 C11.869,2 2,11.869 2,24 C2,36.131 11.869,46 24,46 C36.131,46 46,36.131 46,24 C46,11.869 36.131,2 24,2 L24,2 Z M17.231,35.25 L11.876,35.25 L18.221,21.959 L20.902,27.492 L17.231,35.25 Z M19.114,19.215 C18.946,18.87 18.597,18.651 18.214,18.651 L18.211,18.651 C17.826,18.652 17.477,18.874 17.312,19.221 L9.389,35.819 C9.24,36.129 9.262,36.493 9.445,36.783 C9.628,37.074 9.947,37.25 10.291,37.25 L17.864,37.25 C18.251,37.25 18.603,37.027 18.769,36.678 L22.915,27.915 C23.044,27.642 23.043,27.323 22.911,27.051 L19.114,19.215 Z M36.125,35.25 L30.673,35.25 L20.761,13.953 C20.597,13.601 20.243,13.375 19.854,13.375 L16.251,13.375 L16.255,9.25 L23.475,9.25 L33.339,30.545 C33.503,30.898 33.856,31.125 34.246,31.125 L36.125,31.125 L36.125,35.25 Z M37.125,29.125 L34.885,29.125 L25.021,7.83 C24.856,7.477 24.503,7.25 24.113,7.25 L15.256,7.25 C14.704,7.25 14.257,7.697 14.256,8.249 L14.25,14.374 C14.25,14.64 14.355,14.894 14.543,15.082 C14.73,15.27 14.984,15.375 15.25,15.375 L19.217,15.375 L29.129,36.672 C29.293,37.024 29.646,37.25 30.035,37.25 L37.125,37.25 C37.678,37.25 38.125,36.803 38.125,36.25 L38.125,30.125 C38.125,29.572 37.678,29.125 37.125,29.125 L37.125,29.125 Z" id="Amazon-Lambda-Lambda-Function_Resource-Icon_light-bg" fill="#000000"></path>
    </g><g transform="translate(25, 83)" id="svgGroup" stroke-linecap="round" fill-rule="evenodd" font-size="9pt" stroke="#000" stroke-width="0.25mm" fill="#000" style="stroke:#000;stroke-width:0.25mm;fill:#000"><path d="M 23.12 0.088 L 24.13 4.469 L 24.253 5.313 L 24.434 4.553 L 25.699 0.088 L 26.411 0.088 L 27.646 4.553 L 27.822 5.326 L 27.958 4.465 L 28.951 0.088 L 29.799 0.088 L 28.248 6.486 L 27.479 6.486 L 26.161 1.824 L 26.06 1.336 L 25.958 1.824 L 24.592 6.486 L 23.823 6.486 L 22.276 0.088 L 23.12 0.088 Z M 34.98 1.938 L 34.132 1.938 A 1.466 1.466 0 0 0 34.083 1.546 A 1.066 1.066 0 0 0 33.763 1.026 A 1.211 1.211 0 0 0 33.294 0.77 Q 33.042 0.694 32.722 0.694 A 2.286 2.286 0 0 0 32.342 0.724 Q 32.14 0.758 31.977 0.831 A 1.101 1.101 0 0 0 31.748 0.969 A 0.892 0.892 0 0 0 31.403 1.624 A 1.267 1.267 0 0 0 31.399 1.732 A 0.806 0.806 0 0 0 31.667 2.337 A 1.134 1.134 0 0 0 31.731 2.393 A 1.562 1.562 0 0 0 31.969 2.549 Q 32.299 2.73 32.86 2.887 A 8.228 8.228 0 0 1 33.325 3.032 Q 33.56 3.113 33.754 3.2 A 3.297 3.297 0 0 1 34.108 3.382 A 2.342 2.342 0 0 1 34.447 3.626 Q 34.637 3.792 34.759 3.985 A 1.45 1.45 0 0 1 34.776 4.012 A 1.498 1.498 0 0 1 34.972 4.568 A 1.948 1.948 0 0 1 34.994 4.86 A 1.606 1.606 0 0 1 34.871 5.497 Q 34.726 5.838 34.408 6.09 A 1.886 1.886 0 0 1 34.387 6.106 Q 33.781 6.574 32.766 6.574 A 3.023 3.023 0 0 1 31.625 6.36 A 2.917 2.917 0 0 1 31.535 6.322 A 2.383 2.383 0 0 1 31.057 6.044 A 1.874 1.874 0 0 1 30.654 5.629 A 1.689 1.689 0 0 1 30.344 4.632 L 31.192 4.632 A 1.261 1.261 0 0 0 31.262 5.059 A 1.074 1.074 0 0 0 31.621 5.548 Q 32.005 5.85 32.622 5.881 A 2.87 2.87 0 0 0 32.766 5.884 A 2.628 2.628 0 0 0 33.153 5.858 Q 33.349 5.828 33.508 5.767 A 1.129 1.129 0 0 0 33.79 5.612 Q 34.146 5.339 34.146 4.869 A 1.074 1.074 0 0 0 34.103 4.559 A 0.816 0.816 0 0 0 33.816 4.142 Q 33.486 3.885 32.621 3.634 Q 31.535 3.322 31.041 2.868 Q 30.546 2.413 30.546 1.745 Q 30.546 0.989 31.151 0.494 A 2.121 2.121 0 0 1 32.041 0.071 A 3.087 3.087 0 0 1 32.722 0 A 2.913 2.913 0 0 1 33.382 0.072 A 2.372 2.372 0 0 1 33.897 0.255 A 2.051 2.051 0 0 1 34.428 0.626 A 1.834 1.834 0 0 1 34.697 0.958 A 1.798 1.798 0 0 1 34.98 1.938 Z M 3.74 6.486 L 2.351 3.898 L 0.848 3.898 L 0.848 6.486 L 0 6.486 L 0 0.088 L 2.118 0.088 A 3.809 3.809 0 0 1 2.76 0.138 Q 3.102 0.197 3.376 0.324 A 1.789 1.789 0 0 1 3.781 0.58 A 1.588 1.588 0 0 1 4.307 1.469 A 2.453 2.453 0 0 1 4.364 2.013 A 1.864 1.864 0 0 1 4.273 2.604 A 1.64 1.64 0 0 1 4.041 3.054 A 1.849 1.849 0 0 1 3.382 3.611 A 2.342 2.342 0 0 1 3.142 3.718 L 4.645 6.434 L 4.645 6.486 L 3.74 6.486 Z M 13.724 3.129 L 12.907 3.129 Q 12.907 2.795 12.623 2.553 Q 12.34 2.312 11.909 2.312 Q 11.465 2.312 11.215 2.505 A 0.653 0.653 0 0 0 11.04 2.704 Q 10.967 2.835 10.964 3 A 0.771 0.771 0 0 0 10.964 3.01 A 0.588 0.588 0 0 0 10.994 3.203 A 0.48 0.48 0 0 0 11.197 3.454 A 1.093 1.093 0 0 0 11.348 3.533 Q 11.512 3.605 11.767 3.673 A 6.581 6.581 0 0 0 12.039 3.74 A 6.318 6.318 0 0 1 12.446 3.845 Q 12.783 3.944 13.025 4.065 A 1.901 1.901 0 0 1 13.281 4.218 Q 13.418 4.315 13.516 4.429 A 1.06 1.06 0 0 1 13.586 4.52 A 1.024 1.024 0 0 1 13.748 4.927 A 1.388 1.388 0 0 1 13.768 5.168 Q 13.768 5.805 13.258 6.19 Q 12.776 6.554 12.022 6.573 A 3.337 3.337 0 0 1 11.936 6.574 A 2.746 2.746 0 0 1 11.401 6.525 A 2.124 2.124 0 0 1 10.925 6.372 A 1.771 1.771 0 0 1 10.491 6.094 A 1.54 1.54 0 0 1 10.237 5.807 Q 9.989 5.445 9.989 5.023 L 10.802 5.023 A 0.932 0.932 0 0 0 10.875 5.348 A 0.827 0.827 0 0 0 11.129 5.671 A 1.072 1.072 0 0 0 11.531 5.864 Q 11.686 5.903 11.867 5.91 A 2.013 2.013 0 0 0 11.936 5.911 A 1.863 1.863 0 0 0 12.231 5.889 Q 12.393 5.863 12.524 5.806 A 0.941 0.941 0 0 0 12.676 5.724 A 0.689 0.689 0 0 0 12.841 5.574 A 0.554 0.554 0 0 0 12.955 5.225 A 0.698 0.698 0 0 0 12.919 4.994 A 0.581 0.581 0 0 0 12.707 4.713 A 1.05 1.05 0 0 0 12.538 4.615 Q 12.349 4.524 12.054 4.449 A 5.392 5.392 0 0 0 11.841 4.399 A 6.342 6.342 0 0 1 11.48 4.311 Q 11.11 4.209 10.861 4.083 Q 10.562 3.93 10.392 3.731 A 1.017 1.017 0 0 1 10.325 3.643 Q 10.151 3.388 10.151 3.037 A 1.206 1.206 0 0 1 10.55 2.132 A 1.694 1.694 0 0 1 10.646 2.048 A 1.752 1.752 0 0 1 11.429 1.688 A 2.471 2.471 0 0 1 11.909 1.644 A 2.559 2.559 0 0 1 12.473 1.702 A 1.757 1.757 0 0 1 13.221 2.061 Q 13.724 2.479 13.724 3.129 Z M 21.327 6.486 L 20.716 4.816 L 18.035 4.816 L 17.433 6.486 L 16.563 6.486 L 19.006 0.088 L 19.745 0.088 L 22.192 6.486 L 21.327 6.486 Z M 5.212 4.241 L 5.212 4.091 A 3.17 3.17 0 0 1 5.288 3.382 A 2.581 2.581 0 0 1 5.482 2.828 A 2.191 2.191 0 0 1 5.93 2.202 A 2.033 2.033 0 0 1 6.238 1.958 Q 6.724 1.644 7.291 1.644 A 2.254 2.254 0 0 1 7.904 1.723 A 1.639 1.639 0 0 1 8.732 2.254 Q 9.246 2.865 9.246 4.003 L 9.246 4.342 L 6.025 4.342 A 2.111 2.111 0 0 0 6.096 4.85 A 1.516 1.516 0 0 0 6.436 5.478 A 1.282 1.282 0 0 0 7.37 5.909 A 1.652 1.652 0 0 0 7.436 5.911 A 1.763 1.763 0 0 0 7.764 5.882 Q 7.988 5.839 8.165 5.735 A 1.827 1.827 0 0 0 8.674 5.287 A 2.068 2.068 0 0 0 8.688 5.269 L 9.185 5.656 A 1.926 1.926 0 0 1 7.785 6.547 A 2.749 2.749 0 0 1 7.392 6.574 A 2.394 2.394 0 0 1 6.64 6.461 A 1.974 1.974 0 0 1 5.818 5.939 Q 5.212 5.304 5.212 4.241 Z M 0.848 0.782 L 0.848 3.208 L 2.145 3.208 Q 2.685 3.208 3.035 2.968 A 1.174 1.174 0 0 0 3.144 2.883 A 1.069 1.069 0 0 0 3.51 2.146 A 1.486 1.486 0 0 0 3.516 2.013 Q 3.516 1.47 3.22 1.159 A 1 1 0 0 0 3.162 1.103 Q 2.808 0.787 2.14 0.782 L 0.848 0.782 Z M 19.375 1.129 L 18.29 4.122 L 20.465 4.122 L 19.375 1.129 Z M 6.051 3.674 L 8.433 3.674 L 8.433 3.612 Q 8.407 3.153 8.236 2.848 A 1.13 1.13 0 0 0 8.099 2.652 A 0.983 0.983 0 0 0 7.445 2.32 A 1.39 1.39 0 0 0 7.291 2.312 A 1.106 1.106 0 0 0 6.768 2.435 A 1.14 1.14 0 0 0 6.464 2.67 A 1.417 1.417 0 0 0 6.188 3.116 Q 6.114 3.3 6.074 3.522 A 2.741 2.741 0 0 0 6.051 3.674 Z" vector-effect="non-scaling-stroke"/></g><g transform="translate(25, 93)" id="svgGroup" stroke-linecap="round" fill-rule="evenodd" font-size="9pt" stroke="#000" stroke-width="0.25mm" fill="#000" style="stroke:#000;stroke-width:0.25mm;fill:#000"><path d="M 9.606 1.995 L 10.375 1.995 L 10.397 2.522 Q 10.92 1.907 11.808 1.907 A 2.009 2.009 0 0 1 12.319 1.968 A 1.244 1.244 0 0 1 13.166 2.672 A 1.801 1.801 0 0 1 13.783 2.118 A 1.65 1.65 0 0 1 14.313 1.937 A 2.209 2.209 0 0 1 14.682 1.907 A 2.119 2.119 0 0 1 15.326 1.997 Q 16.253 2.292 16.273 3.564 L 16.273 6.75 L 15.46 6.75 L 15.46 3.612 A 1.781 1.781 0 0 0 15.439 3.332 Q 15.416 3.185 15.365 3.067 A 0.758 0.758 0 0 0 15.227 2.85 A 0.68 0.68 0 0 0 14.974 2.682 Q 14.763 2.597 14.446 2.597 A 1.245 1.245 0 0 0 14.08 2.648 A 1.008 1.008 0 0 0 13.693 2.867 A 1.042 1.042 0 0 0 13.379 3.404 A 1.41 1.41 0 0 0 13.346 3.595 L 13.346 6.75 L 12.529 6.75 L 12.529 3.634 A 1.532 1.532 0 0 0 12.48 3.23 Q 12.354 2.768 11.896 2.643 A 1.457 1.457 0 0 0 11.514 2.597 Q 10.74 2.597 10.439 3.234 A 1.459 1.459 0 0 0 10.419 3.278 L 10.419 6.75 L 9.606 6.75 L 9.606 1.995 Z M 44.481 1.995 L 45.25 1.995 L 45.272 2.522 Q 45.795 1.907 46.683 1.907 A 2.009 2.009 0 0 1 47.194 1.968 A 1.244 1.244 0 0 1 48.041 2.672 A 1.801 1.801 0 0 1 48.658 2.118 A 1.65 1.65 0 0 1 49.188 1.937 A 2.209 2.209 0 0 1 49.557 1.907 A 2.119 2.119 0 0 1 50.201 1.997 Q 51.128 2.292 51.148 3.564 L 51.148 6.75 L 50.335 6.75 L 50.335 3.612 A 1.781 1.781 0 0 0 50.314 3.332 Q 50.291 3.185 50.24 3.067 A 0.758 0.758 0 0 0 50.102 2.85 A 0.68 0.68 0 0 0 49.849 2.682 Q 49.638 2.597 49.321 2.597 A 1.245 1.245 0 0 0 48.955 2.648 A 1.008 1.008 0 0 0 48.568 2.867 A 1.042 1.042 0 0 0 48.254 3.404 A 1.41 1.41 0 0 0 48.221 3.595 L 48.221 6.75 L 47.404 6.75 L 47.404 3.634 A 1.532 1.532 0 0 0 47.355 3.23 Q 47.229 2.768 46.771 2.643 A 1.457 1.457 0 0 0 46.389 2.597 Q 45.615 2.597 45.314 3.234 A 1.459 1.459 0 0 0 45.294 3.278 L 45.294 6.75 L 44.481 6.75 L 44.481 1.995 Z M 131.814 0 L 131.814 2.571 A 1.767 1.767 0 0 1 132.48 2.053 A 1.832 1.832 0 0 1 133.22 1.907 A 1.905 1.905 0 0 1 133.854 2.004 Q 134.696 2.3 134.739 3.506 A 3.668 3.668 0 0 1 134.741 3.608 L 134.741 6.75 L 133.928 6.75 L 133.928 3.604 A 1.837 1.837 0 0 0 133.905 3.324 Q 133.855 3.017 133.693 2.843 Q 133.507 2.645 133.153 2.606 A 1.66 1.66 0 0 0 132.974 2.597 A 1.253 1.253 0 0 0 132.56 2.664 A 1.123 1.123 0 0 0 132.28 2.808 A 1.432 1.432 0 0 0 131.814 3.362 L 131.814 6.75 L 131.001 6.75 L 131.001 0 L 131.814 0 Z M 73.279 3.234 L 73.279 3.924 L 70.594 3.924 L 70.594 6.75 L 69.75 6.75 L 69.75 0.352 L 73.714 0.352 L 73.714 1.046 L 70.594 1.046 L 70.594 3.234 L 73.279 3.234 Z M 128.993 2.522 L 129.032 1.995 L 129.775 1.995 L 129.775 6.636 A 2.511 2.511 0 0 1 129.704 7.249 A 1.738 1.738 0 0 1 129.228 8.09 A 1.834 1.834 0 0 1 128.298 8.57 A 2.671 2.671 0 0 1 127.758 8.622 A 2.446 2.446 0 0 1 126.751 8.402 A 2.003 2.003 0 0 1 126.341 8.161 A 1.563 1.563 0 0 1 126 7.8 L 126.422 7.313 A 1.889 1.889 0 0 0 126.856 7.712 A 1.514 1.514 0 0 0 127.701 7.958 A 1.695 1.695 0 0 0 128.078 7.919 Q 128.346 7.858 128.54 7.702 A 1.037 1.037 0 0 0 128.626 7.625 A 1.09 1.09 0 0 0 128.903 7.132 Q 128.95 6.959 128.956 6.752 A 2.134 2.134 0 0 0 128.958 6.684 L 128.958 6.275 A 1.601 1.601 0 0 1 127.906 6.821 A 2.279 2.279 0 0 1 127.626 6.838 A 1.672 1.672 0 0 1 126.871 6.67 Q 126.549 6.51 126.299 6.197 A 2.14 2.14 0 0 1 126.275 6.166 A 2.316 2.316 0 0 1 125.891 5.386 Q 125.758 4.922 125.758 4.333 Q 125.758 3.472 126.067 2.884 A 2.096 2.096 0 0 1 126.272 2.564 Q 126.787 1.907 127.635 1.907 A 1.971 1.971 0 0 1 128.234 1.994 A 1.55 1.55 0 0 1 128.993 2.522 Z M 79.462 1.995 L 80.231 1.995 L 80.257 2.593 Q 80.794 1.918 81.654 1.907 A 2.234 2.234 0 0 1 81.681 1.907 A 1.905 1.905 0 0 1 82.315 2.004 Q 83.157 2.3 83.199 3.506 A 3.668 3.668 0 0 1 83.202 3.608 L 83.202 6.75 L 82.389 6.75 L 82.389 3.604 A 1.837 1.837 0 0 0 82.366 3.324 Q 82.316 3.017 82.154 2.843 Q 81.967 2.645 81.614 2.606 A 1.66 1.66 0 0 0 81.435 2.597 A 1.253 1.253 0 0 0 81.021 2.664 A 1.123 1.123 0 0 0 80.741 2.808 A 1.432 1.432 0 0 0 80.275 3.362 L 80.275 6.75 L 79.462 6.75 L 79.462 1.995 Z M 99.396 1.995 L 100.165 1.995 L 100.191 2.593 Q 100.727 1.918 101.587 1.907 A 2.234 2.234 0 0 1 101.615 1.907 A 1.905 1.905 0 0 1 102.248 2.004 Q 103.09 2.3 103.133 3.506 A 3.668 3.668 0 0 1 103.135 3.608 L 103.135 6.75 L 102.322 6.75 L 102.322 3.604 A 1.837 1.837 0 0 0 102.3 3.324 Q 102.25 3.017 102.087 2.843 Q 101.901 2.645 101.548 2.606 A 1.66 1.66 0 0 0 101.369 2.597 A 1.253 1.253 0 0 0 100.954 2.664 A 1.123 1.123 0 0 0 100.674 2.808 A 1.432 1.432 0 0 0 100.208 3.362 L 100.208 6.75 L 99.396 6.75 L 99.396 1.995 Z M 77.454 6.75 L 77.436 6.28 A 1.526 1.526 0 0 1 76.61 6.775 Q 76.36 6.836 76.062 6.838 A 2.996 2.996 0 0 1 76.043 6.838 A 2.086 2.086 0 0 1 75.583 6.79 Q 75.152 6.693 74.885 6.396 A 1.41 1.41 0 0 1 74.602 5.899 Q 74.485 5.556 74.483 5.089 L 74.483 1.995 L 75.296 1.995 L 75.296 5.067 Q 75.296 6.037 76.004 6.137 A 1.229 1.229 0 0 0 76.175 6.148 A 1.927 1.927 0 0 0 76.626 6.099 Q 77.188 5.964 77.414 5.454 L 77.414 1.995 L 78.227 1.995 L 78.227 6.75 L 77.454 6.75 Z M 87.456 5.251 L 88.225 5.251 A 1.432 1.432 0 0 1 88.025 5.901 A 1.772 1.772 0 0 1 87.943 6.029 A 1.828 1.828 0 0 1 87.334 6.574 A 2.169 2.169 0 0 1 87.251 6.618 A 1.997 1.997 0 0 1 86.335 6.838 A 2.346 2.346 0 0 1 85.638 6.739 A 1.839 1.839 0 0 1 84.79 6.19 A 2.171 2.171 0 0 1 84.327 5.31 Q 84.217 4.909 84.217 4.417 L 84.217 4.28 A 3.24 3.24 0 0 1 84.281 3.624 A 2.57 2.57 0 0 1 84.472 3.045 A 2.008 2.008 0 0 1 84.911 2.431 A 1.892 1.892 0 0 1 85.203 2.206 A 1.943 1.943 0 0 1 85.96 1.934 A 2.529 2.529 0 0 1 86.331 1.907 A 2.196 2.196 0 0 1 86.979 1.999 A 1.786 1.786 0 0 1 87.66 2.386 A 1.693 1.693 0 0 1 88.218 3.535 A 2.239 2.239 0 0 1 88.225 3.63 L 87.456 3.63 Q 87.42 3.168 87.106 2.872 A 1.078 1.078 0 0 0 86.377 2.576 A 1.402 1.402 0 0 0 86.331 2.575 A 1.374 1.374 0 0 0 85.909 2.637 A 1.081 1.081 0 0 0 85.37 3.021 A 1.469 1.469 0 0 0 85.144 3.468 Q 85.078 3.674 85.05 3.923 A 3.514 3.514 0 0 0 85.03 4.311 L 85.03 4.465 Q 85.03 5.287 85.368 5.73 A 1.1 1.1 0 0 0 86.155 6.165 A 1.611 1.611 0 0 0 86.335 6.174 A 1.171 1.171 0 0 0 87.095 5.911 A 1.007 1.007 0 0 0 87.339 5.629 A 0.914 0.914 0 0 0 87.456 5.251 Z M 8.503 6.75 L 7.651 6.75 A 0.632 0.632 0 0 1 7.615 6.66 Q 7.584 6.562 7.559 6.41 A 3.997 3.997 0 0 1 7.537 6.249 Q 6.97 6.838 6.183 6.838 A 2.033 2.033 0 0 1 5.654 6.772 A 1.529 1.529 0 0 1 5.03 6.44 Q 4.579 6.042 4.579 5.432 Q 4.579 4.689 5.144 4.278 Q 5.708 3.867 6.732 3.867 L 7.523 3.867 L 7.523 3.494 A 1.152 1.152 0 0 0 7.488 3.199 A 0.828 0.828 0 0 0 7.269 2.815 Q 7.052 2.6 6.662 2.568 A 1.748 1.748 0 0 0 6.517 2.562 Q 6.082 2.562 5.788 2.782 Q 5.493 3.001 5.493 3.313 L 4.676 3.313 A 1.041 1.041 0 0 1 4.801 2.825 A 1.409 1.409 0 0 1 4.928 2.626 Q 5.181 2.294 5.614 2.101 A 2.249 2.249 0 0 1 6.39 1.913 A 2.669 2.669 0 0 1 6.565 1.907 A 2.65 2.65 0 0 1 7.083 1.955 Q 7.39 2.016 7.629 2.156 A 1.439 1.439 0 0 1 7.853 2.318 A 1.396 1.396 0 0 1 8.306 3.144 A 1.998 1.998 0 0 1 8.336 3.45 L 8.336 5.638 Q 8.336 6.073 8.41 6.39 A 1.707 1.707 0 0 0 8.503 6.68 L 8.503 6.75 Z M 31.412 6.75 L 30.56 6.75 A 0.632 0.632 0 0 1 30.524 6.66 Q 30.493 6.562 30.468 6.41 A 3.997 3.997 0 0 1 30.445 6.249 Q 29.878 6.838 29.092 6.838 A 2.033 2.033 0 0 1 28.563 6.772 A 1.529 1.529 0 0 1 27.938 6.44 Q 27.488 6.042 27.488 5.432 Q 27.488 4.689 28.052 4.278 Q 28.617 3.867 29.641 3.867 L 30.432 3.867 L 30.432 3.494 A 1.152 1.152 0 0 0 30.396 3.199 A 0.828 0.828 0 0 0 30.177 2.815 Q 29.961 2.6 29.571 2.568 A 1.748 1.748 0 0 0 29.426 2.562 Q 28.991 2.562 28.696 2.782 Q 28.402 3.001 28.402 3.313 L 27.584 3.313 A 1.041 1.041 0 0 1 27.709 2.825 A 1.409 1.409 0 0 1 27.837 2.626 Q 28.09 2.294 28.523 2.101 A 2.249 2.249 0 0 1 29.298 1.913 A 2.669 2.669 0 0 1 29.474 1.907 A 2.65 2.65 0 0 1 29.992 1.955 Q 30.299 2.016 30.538 2.156 A 1.439 1.439 0 0 1 30.762 2.318 A 1.396 1.396 0 0 1 31.215 3.144 A 1.998 1.998 0 0 1 31.245 3.45 L 31.245 5.638 Q 31.245 6.073 31.319 6.39 A 1.707 1.707 0 0 0 31.412 6.68 L 31.412 6.75 Z M 43.378 6.75 L 42.526 6.75 A 0.632 0.632 0 0 1 42.49 6.66 Q 42.459 6.562 42.434 6.41 A 3.997 3.997 0 0 1 42.412 6.249 Q 41.845 6.838 41.058 6.838 A 2.033 2.033 0 0 1 40.529 6.772 A 1.529 1.529 0 0 1 39.905 6.44 Q 39.454 6.042 39.454 5.432 Q 39.454 4.689 40.019 4.278 Q 40.583 3.867 41.607 3.867 L 42.398 3.867 L 42.398 3.494 A 1.152 1.152 0 0 0 42.363 3.199 A 0.828 0.828 0 0 0 42.144 2.815 Q 41.927 2.6 41.537 2.568 A 1.748 1.748 0 0 0 41.392 2.562 Q 40.957 2.562 40.663 2.782 Q 40.368 3.001 40.368 3.313 L 39.551 3.313 A 1.041 1.041 0 0 1 39.676 2.825 A 1.409 1.409 0 0 1 39.803 2.626 Q 40.056 2.294 40.489 2.101 A 2.249 2.249 0 0 1 41.265 1.913 A 2.669 2.669 0 0 1 41.44 1.907 A 2.65 2.65 0 0 1 41.958 1.955 Q 42.265 2.016 42.504 2.156 A 1.439 1.439 0 0 1 42.728 2.318 A 1.396 1.396 0 0 1 43.181 3.144 A 1.998 1.998 0 0 1 43.211 3.45 L 43.211 5.638 Q 43.211 6.073 43.285 6.39 A 1.707 1.707 0 0 0 43.378 6.68 L 43.378 6.75 Z M 66.287 6.75 L 65.435 6.75 A 0.632 0.632 0 0 1 65.399 6.66 Q 65.368 6.562 65.343 6.41 A 3.997 3.997 0 0 1 65.32 6.249 Q 64.753 6.838 63.967 6.838 A 2.033 2.033 0 0 1 63.438 6.772 A 1.529 1.529 0 0 1 62.813 6.44 Q 62.363 6.042 62.363 5.432 Q 62.363 4.689 62.927 4.278 Q 63.492 3.867 64.516 3.867 L 65.307 3.867 L 65.307 3.494 A 1.152 1.152 0 0 0 65.271 3.199 A 0.828 0.828 0 0 0 65.052 2.815 Q 64.836 2.6 64.446 2.568 A 1.748 1.748 0 0 0 64.301 2.562 Q 63.866 2.562 63.571 2.782 Q 63.277 3.001 63.277 3.313 L 62.459 3.313 A 1.041 1.041 0 0 1 62.584 2.825 A 1.409 1.409 0 0 1 62.712 2.626 Q 62.965 2.294 63.398 2.101 A 2.249 2.249 0 0 1 64.173 1.913 A 2.669 2.669 0 0 1 64.349 1.907 A 2.65 2.65 0 0 1 64.867 1.955 Q 65.174 2.016 65.413 2.156 A 1.439 1.439 0 0 1 65.637 2.318 A 1.396 1.396 0 0 1 66.09 3.144 A 1.998 1.998 0 0 1 66.12 3.45 L 66.12 5.638 Q 66.12 6.073 66.194 6.39 A 1.707 1.707 0 0 0 66.287 6.68 L 66.287 6.75 Z M 21.524 4.355 L 21.524 4.425 Q 21.524 5.308 21.196 5.909 A 2.141 2.141 0 0 1 21.023 6.177 A 1.647 1.647 0 0 1 20.437 6.673 Q 20.122 6.828 19.731 6.837 A 2.112 2.112 0 0 1 19.679 6.838 A 2.039 2.039 0 0 1 19.084 6.756 A 1.561 1.561 0 0 1 18.286 6.201 L 18.246 6.75 L 17.499 6.75 L 17.499 0 L 18.312 0 L 18.312 2.518 A 1.605 1.605 0 0 1 19.479 1.915 A 2.285 2.285 0 0 1 19.67 1.907 A 1.835 1.835 0 0 1 20.301 2.011 A 1.579 1.579 0 0 1 21.03 2.562 Q 21.444 3.11 21.511 3.998 A 4.727 4.727 0 0 1 21.524 4.355 Z M 56.399 4.355 L 56.399 4.425 Q 56.399 5.308 56.071 5.909 A 2.141 2.141 0 0 1 55.898 6.177 A 1.647 1.647 0 0 1 55.312 6.673 Q 54.997 6.828 54.606 6.837 A 2.112 2.112 0 0 1 54.554 6.838 A 2.039 2.039 0 0 1 53.959 6.756 A 1.561 1.561 0 0 1 53.161 6.201 L 53.121 6.75 L 52.374 6.75 L 52.374 0 L 53.187 0 L 53.187 2.518 A 1.605 1.605 0 0 1 54.354 1.915 A 2.285 2.285 0 0 1 54.545 1.907 A 1.835 1.835 0 0 1 55.176 2.011 A 1.579 1.579 0 0 1 55.905 2.562 Q 56.319 3.11 56.386 3.998 A 4.727 4.727 0 0 1 56.399 4.355 Z M 22.351 4.395 L 22.351 4.333 A 3.762 3.762 0 0 1 22.418 3.602 Q 22.505 3.16 22.708 2.812 A 2.148 2.148 0 0 1 22.869 2.573 Q 23.388 1.907 24.227 1.907 A 1.964 1.964 0 0 1 24.825 1.994 A 1.559 1.559 0 0 1 25.55 2.479 L 25.55 0 L 26.363 0 L 26.363 6.75 L 25.616 6.75 L 25.576 6.24 Q 25.088 6.838 24.218 6.838 A 1.6 1.6 0 0 1 22.998 6.31 A 2.078 2.078 0 0 1 22.871 6.161 A 2.405 2.405 0 0 1 22.447 5.255 Q 22.363 4.912 22.352 4.51 A 4.425 4.425 0 0 1 22.351 4.395 Z M 57.226 4.395 L 57.226 4.333 A 3.762 3.762 0 0 1 57.293 3.602 Q 57.38 3.16 57.583 2.812 A 2.148 2.148 0 0 1 57.744 2.573 Q 58.263 1.907 59.102 1.907 A 1.964 1.964 0 0 1 59.7 1.994 A 1.559 1.559 0 0 1 60.425 2.479 L 60.425 0 L 61.238 0 L 61.238 6.75 L 60.491 6.75 L 60.451 6.24 Q 59.963 6.838 59.093 6.838 A 1.6 1.6 0 0 1 57.873 6.31 A 2.078 2.078 0 0 1 57.746 6.161 A 2.405 2.405 0 0 1 57.322 5.255 Q 57.238 4.912 57.227 4.51 A 4.425 4.425 0 0 1 57.226 4.395 Z M 0.848 0.352 L 0.848 6.06 L 3.88 6.06 L 3.88 6.75 L 0 6.75 L 0 0.352 L 0.848 0.352 Z M 35.723 0.352 L 35.723 6.06 L 38.755 6.06 L 38.755 6.75 L 34.875 6.75 L 34.875 0.352 L 35.723 0.352 Z M 119.9 0.352 L 119.9 6.06 L 122.933 6.06 L 122.933 6.75 L 119.052 6.75 L 119.052 0.352 L 119.9 0.352 Z M 109.938 0.352 L 109.938 4.601 L 110.826 4.601 L 110.826 5.265 L 109.938 5.265 L 109.938 6.75 L 109.121 6.75 L 109.121 5.265 L 106.207 5.265 L 106.207 4.786 L 109.072 0.352 L 109.938 0.352 Z M 115.336 2.592 A 1.544 1.544 0 0 0 115.44 2.021 A 2.226 2.226 0 0 0 115.418 1.707 A 1.566 1.566 0 0 0 114.919 0.738 A 1.754 1.754 0 0 0 114.153 0.333 A 2.443 2.443 0 0 0 113.555 0.264 A 2.539 2.539 0 0 0 113.045 0.312 A 1.767 1.767 0 0 0 112.188 0.738 Q 111.669 1.213 111.669 2.021 A 1.808 1.808 0 0 0 111.67 2.058 A 1.499 1.499 0 0 0 111.916 2.87 A 1.626 1.626 0 0 0 112.078 3.077 A 1.726 1.726 0 0 0 112.588 3.454 A 2.119 2.119 0 0 0 112.488 3.5 A 1.738 1.738 0 0 0 111.803 4.087 A 1.629 1.629 0 0 0 111.52 5.023 A 2.272 2.272 0 0 0 111.53 5.237 A 1.63 1.63 0 0 0 112.076 6.344 A 1.895 1.895 0 0 0 112.926 6.771 A 2.797 2.797 0 0 0 113.555 6.838 A 2.796 2.796 0 0 0 114.154 6.777 A 1.925 1.925 0 0 0 115.029 6.346 A 1.578 1.578 0 0 0 115.504 5.62 A 1.989 1.989 0 0 0 115.589 5.023 A 1.581 1.581 0 0 0 115.297 4.087 Q 115.005 3.674 114.504 3.458 Q 114.935 3.248 115.187 2.874 A 1.449 1.449 0 0 0 115.336 2.592 Z M 89.429 0.844 L 90.242 0.844 L 90.242 1.995 L 91.129 1.995 L 91.129 2.624 L 90.242 2.624 L 90.242 5.572 Q 90.242 5.858 90.36 6.001 Q 90.479 6.144 90.765 6.144 A 1.046 1.046 0 0 0 90.862 6.138 Q 90.965 6.129 91.105 6.101 A 4.024 4.024 0 0 0 91.151 6.091 L 91.151 6.75 A 2.463 2.463 0 0 1 90.719 6.829 A 2.157 2.157 0 0 1 90.527 6.838 Q 90.08 6.838 89.814 6.616 A 0.856 0.856 0 0 1 89.706 6.508 Q 89.478 6.238 89.438 5.78 A 2.351 2.351 0 0 1 89.429 5.572 L 89.429 2.624 L 88.563 2.624 L 88.563 1.995 L 89.429 1.995 L 89.429 0.844 Z M 136.248 0.844 L 137.061 0.844 L 137.061 1.995 L 137.949 1.995 L 137.949 2.624 L 137.061 2.624 L 137.061 5.572 Q 137.061 5.858 137.18 6.001 Q 137.298 6.144 137.584 6.144 A 1.046 1.046 0 0 0 137.681 6.138 Q 137.784 6.129 137.924 6.101 A 4.024 4.024 0 0 0 137.971 6.091 L 137.971 6.75 A 2.463 2.463 0 0 1 137.538 6.829 A 2.157 2.157 0 0 1 137.347 6.838 Q 136.9 6.838 136.633 6.616 A 0.856 0.856 0 0 1 136.525 6.508 Q 136.297 6.238 136.257 5.78 A 2.351 2.351 0 0 1 136.248 5.572 L 136.248 2.624 L 135.382 2.624 L 135.382 1.995 L 136.248 1.995 L 136.248 0.844 Z M 94.047 4.386 L 94.047 4.329 A 3.057 3.057 0 0 1 94.134 3.587 A 2.573 2.573 0 0 1 94.322 3.072 A 2.16 2.16 0 0 1 94.737 2.486 A 1.957 1.957 0 0 1 95.087 2.21 A 2.036 2.036 0 0 1 96.031 1.913 A 2.491 2.491 0 0 1 96.205 1.907 A 2.277 2.277 0 0 1 96.958 2.027 A 1.937 1.937 0 0 1 97.776 2.58 A 2.29 2.29 0 0 1 98.295 3.608 A 3.373 3.373 0 0 1 98.376 4.368 L 98.376 4.425 A 3.114 3.114 0 0 1 98.296 5.142 A 2.577 2.577 0 0 1 98.11 5.671 A 2.056 2.056 0 0 1 97.583 6.361 A 2.001 2.001 0 0 1 97.35 6.53 A 2.045 2.045 0 0 1 96.43 6.829 A 2.529 2.529 0 0 1 96.214 6.838 A 2.262 2.262 0 0 1 95.463 6.718 A 1.938 1.938 0 0 1 94.647 6.166 A 2.297 2.297 0 0 1 94.122 5.111 A 3.357 3.357 0 0 1 94.047 4.386 Z M 92.962 1.995 L 92.962 6.75 L 92.149 6.75 L 92.149 1.995 L 92.962 1.995 Z M 124.651 1.995 L 124.651 6.75 L 123.838 6.75 L 123.838 1.995 L 124.651 1.995 Z M 94.865 4.425 A 2.772 2.772 0 0 0 94.912 4.954 Q 94.973 5.264 95.11 5.51 A 1.545 1.545 0 0 0 95.232 5.695 Q 95.599 6.174 96.214 6.174 A 1.269 1.269 0 0 0 96.703 6.083 Q 96.983 5.967 97.185 5.706 A 1.471 1.471 0 0 0 97.198 5.689 A 1.648 1.648 0 0 0 97.453 5.171 Q 97.522 4.945 97.548 4.672 A 3.655 3.655 0 0 0 97.563 4.329 A 2.687 2.687 0 0 0 97.512 3.789 Q 97.444 3.459 97.287 3.2 A 1.586 1.586 0 0 0 97.192 3.061 A 1.231 1.231 0 0 0 96.777 2.705 Q 96.524 2.575 96.205 2.575 Q 95.615 2.575 95.249 3.035 A 1.515 1.515 0 0 0 95.234 3.054 A 1.589 1.589 0 0 0 94.982 3.552 Q 94.912 3.772 94.884 4.039 A 3.676 3.676 0 0 0 94.865 4.425 Z M 25.55 5.454 L 25.55 3.27 A 1.375 1.375 0 0 0 25.238 2.874 Q 24.914 2.597 24.429 2.597 A 1.238 1.238 0 0 0 24.003 2.668 A 1.068 1.068 0 0 0 23.498 3.059 A 1.51 1.51 0 0 0 23.288 3.484 Q 23.223 3.689 23.191 3.939 A 3.955 3.955 0 0 0 23.164 4.425 A 3.162 3.162 0 0 0 23.2 4.918 Q 23.241 5.178 23.329 5.389 A 1.474 1.474 0 0 0 23.498 5.691 A 1.06 1.06 0 0 0 24.26 6.139 A 1.391 1.391 0 0 0 24.42 6.148 Q 25.194 6.148 25.55 5.454 Z M 60.425 5.454 L 60.425 3.27 A 1.375 1.375 0 0 0 60.113 2.874 Q 59.789 2.597 59.304 2.597 A 1.238 1.238 0 0 0 58.878 2.668 A 1.068 1.068 0 0 0 58.373 3.059 A 1.51 1.51 0 0 0 58.163 3.484 Q 58.098 3.689 58.066 3.939 A 3.955 3.955 0 0 0 58.039 4.425 A 3.162 3.162 0 0 0 58.075 4.918 Q 58.116 5.178 58.204 5.389 A 1.474 1.474 0 0 0 58.373 5.691 A 1.06 1.06 0 0 0 59.135 6.139 A 1.391 1.391 0 0 0 59.295 6.148 Q 60.069 6.148 60.425 5.454 Z M 18.312 3.344 L 18.312 5.401 A 1.528 1.528 0 0 0 18.598 5.807 Q 18.921 6.127 19.41 6.147 A 1.621 1.621 0 0 0 19.477 6.148 A 1.206 1.206 0 0 0 19.894 6.079 A 1.04 1.04 0 0 0 20.386 5.695 Q 20.711 5.243 20.711 4.333 Q 20.711 3.502 20.391 3.05 A 1.03 1.03 0 0 0 19.64 2.607 A 1.449 1.449 0 0 0 19.468 2.597 A 1.34 1.34 0 0 0 18.958 2.69 Q 18.54 2.86 18.312 3.344 Z M 53.187 3.344 L 53.187 5.401 A 1.528 1.528 0 0 0 53.473 5.807 Q 53.796 6.127 54.285 6.147 A 1.621 1.621 0 0 0 54.352 6.148 A 1.206 1.206 0 0 0 54.769 6.079 A 1.04 1.04 0 0 0 55.261 5.695 Q 55.586 5.243 55.586 4.333 Q 55.586 3.502 55.266 3.05 A 1.03 1.03 0 0 0 54.515 2.607 A 1.449 1.449 0 0 0 54.343 2.597 A 1.34 1.34 0 0 0 53.833 2.69 Q 53.415 2.86 53.187 3.344 Z M 128.958 5.449 L 128.958 3.278 A 1.439 1.439 0 0 0 128.657 2.891 Q 128.353 2.62 127.913 2.599 A 1.578 1.578 0 0 0 127.837 2.597 Q 127.245 2.597 126.911 3.056 A 1.51 1.51 0 0 0 126.701 3.484 Q 126.635 3.689 126.604 3.939 A 3.955 3.955 0 0 0 126.576 4.425 Q 126.576 5.229 126.905 5.689 Q 127.235 6.148 127.828 6.148 A 1.32 1.32 0 0 0 128.338 6.054 Q 128.729 5.891 128.958 5.449 Z M 109.024 1.639 L 107.13 4.601 L 109.121 4.601 L 109.121 1.463 L 109.024 1.639 Z M 114.776 5.005 A 1.375 1.375 0 0 0 114.717 4.592 A 1.109 1.109 0 0 0 114.436 4.131 A 1.148 1.148 0 0 0 113.764 3.807 A 1.593 1.593 0 0 0 113.546 3.792 A 1.466 1.466 0 0 0 113.157 3.841 A 1.086 1.086 0 0 0 112.665 4.126 A 1.123 1.123 0 0 0 112.351 4.762 A 1.572 1.572 0 0 0 112.333 5.005 A 1.48 1.48 0 0 0 112.375 5.367 A 1.019 1.019 0 0 0 112.656 5.862 Q 112.962 6.158 113.495 6.173 A 2.053 2.053 0 0 0 113.555 6.174 Q 114.048 6.174 114.358 5.94 A 1.018 1.018 0 0 0 114.451 5.86 A 1.041 1.041 0 0 0 114.751 5.292 A 1.518 1.518 0 0 0 114.776 5.005 Z M 113.555 0.932 A 1.259 1.259 0 0 0 113.202 0.979 A 0.973 0.973 0 0 0 112.779 1.228 Q 112.482 1.525 112.482 2.035 A 1.325 1.325 0 0 0 112.527 2.387 A 0.994 0.994 0 0 0 112.775 2.823 A 0.974 0.974 0 0 0 113.337 3.108 A 1.382 1.382 0 0 0 113.555 3.125 A 1.279 1.279 0 0 0 113.899 3.08 A 0.952 0.952 0 0 0 114.335 2.823 A 1.018 1.018 0 0 0 114.61 2.26 A 1.426 1.426 0 0 0 114.627 2.035 A 1.282 1.282 0 0 0 114.577 1.668 A 1.013 1.013 0 0 0 114.324 1.239 Q 114.021 0.932 113.555 0.932 Z M 7.523 5.418 L 7.523 4.443 L 6.886 4.443 Q 5.392 4.443 5.392 5.317 Q 5.392 5.7 5.647 5.915 A 0.893 0.893 0 0 0 6.06 6.108 A 1.259 1.259 0 0 0 6.302 6.13 A 1.429 1.429 0 0 0 7.027 5.933 A 1.335 1.335 0 0 0 7.322 5.705 A 1.108 1.108 0 0 0 7.523 5.418 Z M 30.432 5.418 L 30.432 4.443 L 29.795 4.443 Q 28.301 4.443 28.301 5.317 Q 28.301 5.7 28.556 5.915 A 0.893 0.893 0 0 0 28.969 6.108 A 1.259 1.259 0 0 0 29.21 6.13 A 1.429 1.429 0 0 0 29.936 5.933 A 1.335 1.335 0 0 0 30.231 5.705 A 1.108 1.108 0 0 0 30.432 5.418 Z M 42.398 5.418 L 42.398 4.443 L 41.761 4.443 Q 40.267 4.443 40.267 5.317 Q 40.267 5.7 40.522 5.915 A 0.893 0.893 0 0 0 40.935 6.108 A 1.259 1.259 0 0 0 41.177 6.13 A 1.429 1.429 0 0 0 41.902 5.933 A 1.335 1.335 0 0 0 42.197 5.705 A 1.108 1.108 0 0 0 42.398 5.418 Z M 65.307 5.418 L 65.307 4.443 L 64.67 4.443 Q 63.176 4.443 63.176 5.317 Q 63.176 5.7 63.431 5.915 A 0.893 0.893 0 0 0 63.844 6.108 A 1.259 1.259 0 0 0 64.085 6.13 A 1.429 1.429 0 0 0 64.811 5.933 A 1.335 1.335 0 0 0 65.106 5.705 A 1.108 1.108 0 0 0 65.307 5.418 Z M 92.083 0.734 Q 92.083 0.536 92.204 0.4 Q 92.316 0.274 92.528 0.264 A 0.783 0.783 0 0 1 92.562 0.264 Q 92.799 0.264 92.922 0.4 A 0.474 0.474 0 0 1 93.045 0.703 A 0.614 0.614 0 0 1 93.045 0.734 A 0.523 0.523 0 0 1 93.02 0.9 A 0.442 0.442 0 0 1 92.922 1.063 Q 92.81 1.184 92.602 1.194 A 0.803 0.803 0 0 1 92.562 1.195 Q 92.39 1.195 92.279 1.126 A 0.362 0.362 0 0 1 92.204 1.063 A 0.456 0.456 0 0 1 92.085 0.788 A 0.605 0.605 0 0 1 92.083 0.734 Z M 123.772 0.734 Q 123.772 0.536 123.893 0.4 Q 124.005 0.274 124.217 0.264 A 0.783 0.783 0 0 1 124.251 0.264 Q 124.488 0.264 124.611 0.4 A 0.474 0.474 0 0 1 124.734 0.703 A 0.614 0.614 0 0 1 124.734 0.734 A 0.523 0.523 0 0 1 124.709 0.9 A 0.442 0.442 0 0 1 124.611 1.063 Q 124.499 1.184 124.291 1.194 A 0.803 0.803 0 0 1 124.251 1.195 Q 124.079 1.195 123.968 1.126 A 0.362 0.362 0 0 1 123.893 1.063 A 0.456 0.456 0 0 1 123.774 0.788 A 0.605 0.605 0 0 1 123.772 0.734 Z" vector-effect="non-scaling-stroke"/></g>
</svg>