<?xml version="1.0" encoding="UTF-8"?>
<svg width="48px" height="48px" viewBox="0 0 48 48" version="1.1" xmlns="http://www.w3.org/2000/svg" xmlns:xlink="http://www.w3.org/1999/xlink">
    <title>Icon-Resource/Networking-and-Content-Delivery/Res_AWS-Direct-Connect-Gateway_48_Light</title>
    <g id="Icon-Resource/Networking-and-Content-Delivery/Res_AWS-Direct-Connect-Gateway_48" stroke="none" stroke-width="1" fill="none" fill-rule="evenodd">
        <polygon id="AWS-Direct-Connect-Gateway_Resource-Icon_light-bg" fill="#000000" points="24.279 2 5.779 12.68 6.778 14.413 23.278 4.886 23.278 22.938 7.328 22.938 11.485 18.781 10.072 17.367 3 24.437 10.072 31.507 11.485 30.094 6.328 24.937 23.278 24.937 23.278 42.992 6.778 33.466 5.779 35.198 24.279 45.879 42.778 35.198 41.779 33.466 25.279 42.992 25.279 24.937 41.999 24.937 37.402 29.536 38.816 30.949 45.886 23.879 38.816 16.808 37.402 18.222 42.116 22.938 25.279 22.938 25.279 4.886 41.779 14.413 42.778 12.68"></polygon>
    </g><g transform="translate(33vw, 80vh)" id="svgGroup" stroke-linecap="round" fill-rule="evenodd" font-size="9pt" stroke="#000" stroke-width="0.25mm" fill="#000" style="stroke:#000;stroke-width:0.25mm;fill:#000"><path d="M 23.12 0.088 L 24.13 4.469 L 24.253 5.313 L 24.434 4.553 L 25.699 0.088 L 26.411 0.088 L 27.646 4.553 L 27.822 5.326 L 27.958 4.465 L 28.951 0.088 L 29.799 0.088 L 28.248 6.486 L 27.479 6.486 L 26.161 1.824 L 26.06 1.336 L 25.958 1.824 L 24.592 6.486 L 23.823 6.486 L 22.276 0.088 L 23.12 0.088 Z M 34.98 1.938 L 34.132 1.938 A 1.466 1.466 0 0 0 34.083 1.546 A 1.066 1.066 0 0 0 33.763 1.026 A 1.211 1.211 0 0 0 33.294 0.77 Q 33.042 0.694 32.722 0.694 A 2.286 2.286 0 0 0 32.342 0.724 Q 32.14 0.758 31.977 0.831 A 1.101 1.101 0 0 0 31.748 0.969 A 0.892 0.892 0 0 0 31.403 1.624 A 1.267 1.267 0 0 0 31.399 1.732 A 0.806 0.806 0 0 0 31.667 2.337 A 1.134 1.134 0 0 0 31.731 2.393 A 1.562 1.562 0 0 0 31.969 2.549 Q 32.299 2.73 32.86 2.887 A 8.228 8.228 0 0 1 33.325 3.032 Q 33.56 3.113 33.754 3.2 A 3.297 3.297 0 0 1 34.108 3.382 A 2.342 2.342 0 0 1 34.447 3.626 Q 34.637 3.792 34.759 3.985 A 1.45 1.45 0 0 1 34.776 4.012 A 1.498 1.498 0 0 1 34.972 4.568 A 1.948 1.948 0 0 1 34.994 4.86 A 1.606 1.606 0 0 1 34.871 5.497 Q 34.726 5.838 34.408 6.09 A 1.886 1.886 0 0 1 34.387 6.106 Q 33.781 6.574 32.766 6.574 A 3.023 3.023 0 0 1 31.625 6.36 A 2.917 2.917 0 0 1 31.535 6.322 A 2.383 2.383 0 0 1 31.057 6.044 A 1.874 1.874 0 0 1 30.654 5.629 A 1.689 1.689 0 0 1 30.344 4.632 L 31.192 4.632 A 1.261 1.261 0 0 0 31.262 5.059 A 1.074 1.074 0 0 0 31.621 5.548 Q 32.005 5.85 32.622 5.881 A 2.87 2.87 0 0 0 32.766 5.884 A 2.628 2.628 0 0 0 33.153 5.858 Q 33.349 5.828 33.508 5.767 A 1.129 1.129 0 0 0 33.79 5.612 Q 34.146 5.339 34.146 4.869 A 1.074 1.074 0 0 0 34.103 4.559 A 0.816 0.816 0 0 0 33.816 4.142 Q 33.486 3.885 32.621 3.634 Q 31.535 3.322 31.041 2.868 Q 30.546 2.413 30.546 1.745 Q 30.546 0.989 31.151 0.494 A 2.121 2.121 0 0 1 32.041 0.071 A 3.087 3.087 0 0 1 32.722 0 A 2.913 2.913 0 0 1 33.382 0.072 A 2.372 2.372 0 0 1 33.897 0.255 A 2.051 2.051 0 0 1 34.428 0.626 A 1.834 1.834 0 0 1 34.697 0.958 A 1.798 1.798 0 0 1 34.98 1.938 Z M 3.74 6.486 L 2.351 3.898 L 0.848 3.898 L 0.848 6.486 L 0 6.486 L 0 0.088 L 2.118 0.088 A 3.809 3.809 0 0 1 2.76 0.138 Q 3.102 0.197 3.376 0.324 A 1.789 1.789 0 0 1 3.781 0.58 A 1.588 1.588 0 0 1 4.307 1.469 A 2.453 2.453 0 0 1 4.364 2.013 A 1.864 1.864 0 0 1 4.273 2.604 A 1.64 1.64 0 0 1 4.041 3.054 A 1.849 1.849 0 0 1 3.382 3.611 A 2.342 2.342 0 0 1 3.142 3.718 L 4.645 6.434 L 4.645 6.486 L 3.74 6.486 Z M 13.724 3.129 L 12.907 3.129 Q 12.907 2.795 12.623 2.553 Q 12.34 2.312 11.909 2.312 Q 11.465 2.312 11.215 2.505 A 0.653 0.653 0 0 0 11.04 2.704 Q 10.967 2.835 10.964 3 A 0.771 0.771 0 0 0 10.964 3.01 A 0.588 0.588 0 0 0 10.994 3.203 A 0.48 0.48 0 0 0 11.197 3.454 A 1.093 1.093 0 0 0 11.348 3.533 Q 11.512 3.605 11.767 3.673 A 6.581 6.581 0 0 0 12.039 3.74 A 6.318 6.318 0 0 1 12.446 3.845 Q 12.783 3.944 13.025 4.065 A 1.901 1.901 0 0 1 13.281 4.218 Q 13.418 4.315 13.516 4.429 A 1.06 1.06 0 0 1 13.586 4.52 A 1.024 1.024 0 0 1 13.748 4.927 A 1.388 1.388 0 0 1 13.768 5.168 Q 13.768 5.805 13.258 6.19 Q 12.776 6.554 12.022 6.573 A 3.337 3.337 0 0 1 11.936 6.574 A 2.746 2.746 0 0 1 11.401 6.525 A 2.124 2.124 0 0 1 10.925 6.372 A 1.771 1.771 0 0 1 10.491 6.094 A 1.54 1.54 0 0 1 10.237 5.807 Q 9.989 5.445 9.989 5.023 L 10.802 5.023 A 0.932 0.932 0 0 0 10.875 5.348 A 0.827 0.827 0 0 0 11.129 5.671 A 1.072 1.072 0 0 0 11.531 5.864 Q 11.686 5.903 11.867 5.91 A 2.013 2.013 0 0 0 11.936 5.911 A 1.863 1.863 0 0 0 12.231 5.889 Q 12.393 5.863 12.524 5.806 A 0.941 0.941 0 0 0 12.676 5.724 A 0.689 0.689 0 0 0 12.841 5.574 A 0.554 0.554 0 0 0 12.955 5.225 A 0.698 0.698 0 0 0 12.919 4.994 A 0.581 0.581 0 0 0 12.707 4.713 A 1.05 1.05 0 0 0 12.538 4.615 Q 12.349 4.524 12.054 4.449 A 5.392 5.392 0 0 0 11.841 4.399 A 6.342 6.342 0 0 1 11.48 4.311 Q 11.11 4.209 10.861 4.083 Q 10.562 3.93 10.392 3.731 A 1.017 1.017 0 0 1 10.325 3.643 Q 10.151 3.388 10.151 3.037 A 1.206 1.206 0 0 1 10.55 2.132 A 1.694 1.694 0 0 1 10.646 2.048 A 1.752 1.752 0 0 1 11.429 1.688 A 2.471 2.471 0 0 1 11.909 1.644 A 2.559 2.559 0 0 1 12.473 1.702 A 1.757 1.757 0 0 1 13.221 2.061 Q 13.724 2.479 13.724 3.129 Z M 21.327 6.486 L 20.716 4.816 L 18.035 4.816 L 17.433 6.486 L 16.563 6.486 L 19.006 0.088 L 19.745 0.088 L 22.192 6.486 L 21.327 6.486 Z M 5.212 4.241 L 5.212 4.091 A 3.17 3.17 0 0 1 5.288 3.382 A 2.581 2.581 0 0 1 5.482 2.828 A 2.191 2.191 0 0 1 5.93 2.202 A 2.033 2.033 0 0 1 6.238 1.958 Q 6.724 1.644 7.291 1.644 A 2.254 2.254 0 0 1 7.904 1.723 A 1.639 1.639 0 0 1 8.732 2.254 Q 9.246 2.865 9.246 4.003 L 9.246 4.342 L 6.025 4.342 A 2.111 2.111 0 0 0 6.096 4.85 A 1.516 1.516 0 0 0 6.436 5.478 A 1.282 1.282 0 0 0 7.37 5.909 A 1.652 1.652 0 0 0 7.436 5.911 A 1.763 1.763 0 0 0 7.764 5.882 Q 7.988 5.839 8.165 5.735 A 1.827 1.827 0 0 0 8.674 5.287 A 2.068 2.068 0 0 0 8.688 5.269 L 9.185 5.656 A 1.926 1.926 0 0 1 7.785 6.547 A 2.749 2.749 0 0 1 7.392 6.574 A 2.394 2.394 0 0 1 6.64 6.461 A 1.974 1.974 0 0 1 5.818 5.939 Q 5.212 5.304 5.212 4.241 Z M 0.848 0.782 L 0.848 3.208 L 2.145 3.208 Q 2.685 3.208 3.035 2.968 A 1.174 1.174 0 0 0 3.144 2.883 A 1.069 1.069 0 0 0 3.51 2.146 A 1.486 1.486 0 0 0 3.516 2.013 Q 3.516 1.47 3.22 1.159 A 1 1 0 0 0 3.162 1.103 Q 2.808 0.787 2.14 0.782 L 0.848 0.782 Z M 19.375 1.129 L 18.29 4.122 L 20.465 4.122 L 19.375 1.129 Z M 6.051 3.674 L 8.433 3.674 L 8.433 3.612 Q 8.407 3.153 8.236 2.848 A 1.13 1.13 0 0 0 8.099 2.652 A 0.983 0.983 0 0 0 7.445 2.32 A 1.39 1.39 0 0 0 7.291 2.312 A 1.106 1.106 0 0 0 6.768 2.435 A 1.14 1.14 0 0 0 6.464 2.67 A 1.417 1.417 0 0 0 6.188 3.116 Q 6.114 3.3 6.074 3.522 A 2.741 2.741 0 0 0 6.051 3.674 Z" vector-effect="non-scaling-stroke"/></g><g transform="translate(12vw, 90vh)" id="svgGroup" stroke-linecap="round" fill-rule="evenodd" font-size="9pt" stroke="#000" stroke-width="0.25mm" fill="#000" style="stroke:#000;stroke-width:0.25mm;fill:#000"><path d="M 82.951 1.995 L 84.081 5.629 L 84.995 1.995 L 85.808 1.995 L 84.423 6.75 L 83.764 6.75 L 82.608 3.146 L 81.483 6.75 L 80.824 6.75 L 79.444 1.995 L 80.253 1.995 L 81.189 5.555 L 82.296 1.995 L 82.951 1.995 Z M 65.988 3.564 L 65.988 5.911 A 1.895 1.895 0 0 1 65.265 6.525 A 2.364 2.364 0 0 1 65.081 6.607 A 3.162 3.162 0 0 1 64.408 6.787 Q 64.098 6.836 63.748 6.838 A 5.148 5.148 0 0 1 63.725 6.838 A 2.838 2.838 0 0 1 62.902 6.722 A 2.459 2.459 0 0 1 62.336 6.471 A 2.43 2.43 0 0 1 61.43 5.49 A 2.924 2.924 0 0 1 61.398 5.427 A 3.277 3.277 0 0 1 61.11 4.497 A 4.307 4.307 0 0 1 61.058 3.858 L 61.058 3.3 Q 61.058 1.854 61.732 1.059 A 2.198 2.198 0 0 1 63.086 0.307 A 3.227 3.227 0 0 1 63.628 0.264 Q 64.63 0.264 65.241 0.776 A 2.047 2.047 0 0 1 65.863 1.701 A 2.896 2.896 0 0 1 65.988 2.228 L 65.145 2.228 Q 64.938 1.12 63.942 0.979 A 2.195 2.195 0 0 0 63.633 0.958 A 1.917 1.917 0 0 0 63.098 1.028 A 1.386 1.386 0 0 0 62.347 1.553 A 1.986 1.986 0 0 0 62.064 2.125 Q 61.976 2.396 61.937 2.726 A 4.871 4.871 0 0 0 61.906 3.278 L 61.906 3.801 A 3.827 3.827 0 0 0 61.964 4.489 Q 62.075 5.096 62.398 5.513 A 1.569 1.569 0 0 0 63.538 6.139 A 2.069 2.069 0 0 0 63.729 6.148 Q 64.162 6.148 64.497 6.06 A 2.106 2.106 0 0 0 64.56 6.042 A 1.357 1.357 0 0 0 64.948 5.86 A 1.217 1.217 0 0 0 65.149 5.687 L 65.149 4.25 L 63.668 4.25 L 63.668 3.564 L 65.988 3.564 Z M 29.553 4.72 L 30.401 4.72 A 3.016 3.016 0 0 1 30.24 5.416 A 2.099 2.099 0 0 1 29.652 6.286 Q 29.021 6.838 27.976 6.838 A 2.553 2.553 0 0 1 27.106 6.696 A 2.194 2.194 0 0 1 26.158 6.025 A 2.789 2.789 0 0 1 25.597 4.901 Q 25.49 4.484 25.477 3.992 A 5.262 5.262 0 0 1 25.475 3.85 L 25.475 3.234 A 4.251 4.251 0 0 1 25.545 2.445 A 3.229 3.229 0 0 1 25.794 1.666 A 2.539 2.539 0 0 1 26.249 0.99 A 2.26 2.26 0 0 1 26.697 0.626 A 2.415 2.415 0 0 1 27.723 0.281 A 3.027 3.027 0 0 1 28.05 0.264 A 2.962 2.962 0 0 1 28.756 0.343 A 2.065 2.065 0 0 1 29.685 0.833 A 2.16 2.16 0 0 1 30.28 1.795 A 3.086 3.086 0 0 1 30.401 2.408 L 29.553 2.408 Q 29.484 1.929 29.315 1.616 A 1.223 1.223 0 0 0 29.076 1.301 A 1.207 1.207 0 0 0 28.571 1.024 Q 28.384 0.971 28.161 0.961 A 2.396 2.396 0 0 0 28.05 0.958 A 1.753 1.753 0 0 0 27.472 1.049 A 1.463 1.463 0 0 0 26.782 1.556 A 1.989 1.989 0 0 0 26.469 2.175 Q 26.323 2.636 26.323 3.256 L 26.323 3.876 Q 26.323 4.917 26.758 5.533 A 1.38 1.38 0 0 0 27.757 6.135 A 1.814 1.814 0 0 0 27.976 6.148 A 2.497 2.497 0 0 0 28.383 6.117 Q 28.603 6.08 28.778 6.002 A 1.155 1.155 0 0 0 29.054 5.829 Q 29.43 5.511 29.553 4.72 Z M 123.174 0 L 123.174 2.571 A 1.767 1.767 0 0 1 123.84 2.053 A 1.832 1.832 0 0 1 124.581 1.907 A 1.905 1.905 0 0 1 125.214 2.004 Q 126.056 2.3 126.099 3.506 A 3.668 3.668 0 0 1 126.101 3.608 L 126.101 6.75 L 125.288 6.75 L 125.288 3.604 A 1.837 1.837 0 0 0 125.266 3.324 Q 125.216 3.017 125.053 2.843 Q 124.867 2.645 124.513 2.606 A 1.66 1.66 0 0 0 124.334 2.597 A 1.253 1.253 0 0 0 123.92 2.664 A 1.123 1.123 0 0 0 123.64 2.808 A 1.432 1.432 0 0 0 123.174 3.362 L 123.174 6.75 L 122.361 6.75 L 122.361 0 L 123.174 0 Z M 120.353 2.522 L 120.393 1.995 L 121.135 1.995 L 121.135 6.636 A 2.511 2.511 0 0 1 121.065 7.249 A 1.738 1.738 0 0 1 120.588 8.09 A 1.834 1.834 0 0 1 119.658 8.57 A 2.671 2.671 0 0 1 119.118 8.622 A 2.446 2.446 0 0 1 118.112 8.402 A 2.003 2.003 0 0 1 117.702 8.161 A 1.563 1.563 0 0 1 117.36 7.8 L 117.782 7.313 A 1.889 1.889 0 0 0 118.217 7.712 A 1.514 1.514 0 0 0 119.061 7.958 A 1.695 1.695 0 0 0 119.438 7.919 Q 119.706 7.858 119.9 7.702 A 1.037 1.037 0 0 0 119.986 7.625 A 1.09 1.09 0 0 0 120.263 7.132 Q 120.31 6.959 120.317 6.752 A 2.134 2.134 0 0 0 120.318 6.684 L 120.318 6.275 A 1.601 1.601 0 0 1 119.266 6.821 A 2.279 2.279 0 0 1 118.986 6.838 A 1.672 1.672 0 0 1 118.231 6.67 Q 117.909 6.51 117.659 6.197 A 2.14 2.14 0 0 1 117.635 6.166 A 2.316 2.316 0 0 1 117.252 5.386 Q 117.119 4.922 117.119 4.333 Q 117.119 3.472 117.427 2.884 A 2.096 2.096 0 0 1 117.633 2.564 Q 118.147 1.907 118.995 1.907 A 1.971 1.971 0 0 1 119.594 1.994 A 1.55 1.55 0 0 1 120.353 2.522 Z M 91.833 1.995 L 93.019 5.559 L 94.126 1.995 L 94.997 1.995 L 93.085 7.484 Q 92.641 8.67 91.674 8.67 L 91.521 8.657 L 91.217 8.6 L 91.217 7.941 L 91.437 7.958 Q 91.717 7.958 91.913 7.882 A 0.75 0.75 0 0 0 92.081 7.792 A 0.749 0.749 0 0 0 92.241 7.629 Q 92.359 7.47 92.449 7.215 A 2.575 2.575 0 0 0 92.461 7.181 L 92.641 6.697 L 90.945 1.995 L 91.833 1.995 Z M 36.558 1.995 L 37.327 1.995 L 37.354 2.593 Q 37.89 1.918 38.75 1.907 A 2.234 2.234 0 0 1 38.777 1.907 A 1.905 1.905 0 0 1 39.411 2.004 Q 40.253 2.3 40.296 3.506 A 3.668 3.668 0 0 1 40.298 3.608 L 40.298 6.75 L 39.485 6.75 L 39.485 3.604 A 1.837 1.837 0 0 0 39.463 3.324 Q 39.412 3.017 39.25 2.843 Q 39.064 2.645 38.71 2.606 A 1.66 1.66 0 0 0 38.531 2.597 A 1.253 1.253 0 0 0 38.117 2.664 A 1.123 1.123 0 0 0 37.837 2.808 A 1.432 1.432 0 0 0 37.371 3.362 L 37.371 6.75 L 36.558 6.75 L 36.558 1.995 Z M 41.524 1.995 L 42.293 1.995 L 42.319 2.593 Q 42.856 1.918 43.716 1.907 A 2.234 2.234 0 0 1 43.743 1.907 A 1.905 1.905 0 0 1 44.377 2.004 Q 45.219 2.3 45.261 3.506 A 3.668 3.668 0 0 1 45.264 3.608 L 45.264 6.75 L 44.451 6.75 L 44.451 3.604 A 1.837 1.837 0 0 0 44.428 3.324 Q 44.378 3.017 44.216 2.843 Q 44.029 2.645 43.676 2.606 A 1.66 1.66 0 0 0 43.497 2.597 A 1.253 1.253 0 0 0 43.083 2.664 A 1.123 1.123 0 0 0 42.803 2.808 A 1.432 1.432 0 0 0 42.337 3.362 L 42.337 6.75 L 41.524 6.75 L 41.524 1.995 Z M 18.716 5.251 L 19.485 5.251 A 1.432 1.432 0 0 1 19.286 5.901 A 1.772 1.772 0 0 1 19.204 6.029 A 1.828 1.828 0 0 1 18.595 6.574 A 2.169 2.169 0 0 1 18.512 6.618 A 1.997 1.997 0 0 1 17.596 6.838 A 2.346 2.346 0 0 1 16.898 6.739 A 1.839 1.839 0 0 1 16.051 6.19 A 2.171 2.171 0 0 1 15.587 5.31 Q 15.478 4.909 15.478 4.417 L 15.478 4.28 A 3.24 3.24 0 0 1 15.541 3.624 A 2.57 2.57 0 0 1 15.732 3.045 A 2.008 2.008 0 0 1 16.172 2.431 A 1.892 1.892 0 0 1 16.464 2.206 A 1.943 1.943 0 0 1 17.22 1.934 A 2.529 2.529 0 0 1 17.591 1.907 A 2.196 2.196 0 0 1 18.239 1.999 A 1.786 1.786 0 0 1 18.921 2.386 A 1.693 1.693 0 0 1 19.479 3.535 A 2.239 2.239 0 0 1 19.485 3.63 L 18.716 3.63 Q 18.681 3.168 18.367 2.872 A 1.078 1.078 0 0 0 17.638 2.576 A 1.402 1.402 0 0 0 17.591 2.575 A 1.374 1.374 0 0 0 17.17 2.637 A 1.081 1.081 0 0 0 16.631 3.021 A 1.469 1.469 0 0 0 16.404 3.468 Q 16.339 3.674 16.311 3.923 A 3.514 3.514 0 0 0 16.291 4.311 L 16.291 4.465 Q 16.291 5.287 16.629 5.73 A 1.1 1.1 0 0 0 17.416 6.165 A 1.611 1.611 0 0 0 17.596 6.174 A 1.171 1.171 0 0 0 18.356 5.911 A 1.007 1.007 0 0 0 18.6 5.629 A 0.914 0.914 0 0 0 18.716 5.251 Z M 54.286 5.251 L 55.055 5.251 A 1.432 1.432 0 0 1 54.856 5.901 A 1.772 1.772 0 0 1 54.773 6.029 A 1.828 1.828 0 0 1 54.164 6.574 A 2.169 2.169 0 0 1 54.081 6.618 A 1.997 1.997 0 0 1 53.165 6.838 A 2.346 2.346 0 0 1 52.468 6.739 A 1.839 1.839 0 0 1 51.62 6.19 A 2.171 2.171 0 0 1 51.157 5.31 Q 51.047 4.909 51.047 4.417 L 51.047 4.28 A 3.24 3.24 0 0 1 51.111 3.624 A 2.57 2.57 0 0 1 51.302 3.045 A 2.008 2.008 0 0 1 51.741 2.431 A 1.892 1.892 0 0 1 52.033 2.206 A 1.943 1.943 0 0 1 52.79 1.934 A 2.529 2.529 0 0 1 53.161 1.907 A 2.196 2.196 0 0 1 53.809 1.999 A 1.786 1.786 0 0 1 54.49 2.386 A 1.693 1.693 0 0 1 55.048 3.535 A 2.239 2.239 0 0 1 55.055 3.63 L 54.286 3.63 Q 54.25 3.168 53.936 2.872 A 1.078 1.078 0 0 0 53.207 2.576 A 1.402 1.402 0 0 0 53.161 2.575 A 1.374 1.374 0 0 0 52.739 2.637 A 1.081 1.081 0 0 0 52.2 3.021 A 1.469 1.469 0 0 0 51.974 3.468 Q 51.908 3.674 51.88 3.923 A 3.514 3.514 0 0 0 51.86 4.311 L 51.86 4.465 Q 51.86 5.287 52.198 5.73 A 1.1 1.1 0 0 0 52.985 6.165 A 1.611 1.611 0 0 0 53.165 6.174 A 1.171 1.171 0 0 0 53.925 5.911 A 1.007 1.007 0 0 0 54.169 5.629 A 0.914 0.914 0 0 0 54.286 5.251 Z M 71.055 6.75 L 70.203 6.75 A 0.632 0.632 0 0 1 70.167 6.66 Q 70.136 6.562 70.111 6.41 A 3.997 3.997 0 0 1 70.088 6.249 Q 69.521 6.838 68.735 6.838 A 2.033 2.033 0 0 1 68.206 6.772 A 1.529 1.529 0 0 1 67.581 6.44 Q 67.131 6.042 67.131 5.432 Q 67.131 4.689 67.696 4.278 Q 68.26 3.867 69.284 3.867 L 70.075 3.867 L 70.075 3.494 A 1.152 1.152 0 0 0 70.039 3.199 A 0.828 0.828 0 0 0 69.82 2.815 Q 69.604 2.6 69.214 2.568 A 1.748 1.748 0 0 0 69.069 2.562 Q 68.634 2.562 68.339 2.782 Q 68.045 3.001 68.045 3.313 L 67.228 3.313 A 1.041 1.041 0 0 1 67.352 2.825 A 1.409 1.409 0 0 1 67.48 2.626 Q 67.733 2.294 68.166 2.101 A 2.249 2.249 0 0 1 68.941 1.913 A 2.669 2.669 0 0 1 69.117 1.907 A 2.65 2.65 0 0 1 69.635 1.955 Q 69.942 2.016 70.181 2.156 A 1.439 1.439 0 0 1 70.405 2.318 A 1.396 1.396 0 0 1 70.858 3.144 A 1.998 1.998 0 0 1 70.888 3.45 L 70.888 5.638 Q 70.888 6.073 70.962 6.39 A 1.707 1.707 0 0 0 71.055 6.68 L 71.055 6.75 Z M 90.422 6.75 L 89.569 6.75 A 0.632 0.632 0 0 1 89.534 6.66 Q 89.503 6.562 89.478 6.41 A 3.997 3.997 0 0 1 89.455 6.249 Q 88.888 6.838 88.102 6.838 A 2.033 2.033 0 0 1 87.572 6.772 A 1.529 1.529 0 0 1 86.948 6.44 Q 86.498 6.042 86.498 5.432 Q 86.498 4.689 87.062 4.278 Q 87.627 3.867 88.651 3.867 L 89.442 3.867 L 89.442 3.494 A 1.152 1.152 0 0 0 89.406 3.199 A 0.828 0.828 0 0 0 89.187 2.815 Q 88.971 2.6 88.58 2.568 A 1.748 1.748 0 0 0 88.436 2.562 Q 88 2.562 87.706 2.782 Q 87.412 3.001 87.412 3.313 L 86.594 3.313 A 1.041 1.041 0 0 1 86.719 2.825 A 1.409 1.409 0 0 1 86.847 2.626 Q 87.1 2.294 87.532 2.101 A 2.249 2.249 0 0 1 88.308 1.913 A 2.669 2.669 0 0 1 88.484 1.907 A 2.65 2.65 0 0 1 89.001 1.955 Q 89.309 2.016 89.547 2.156 A 1.439 1.439 0 0 1 89.771 2.318 A 1.396 1.396 0 0 1 90.225 3.144 A 1.998 1.998 0 0 1 90.255 3.45 L 90.255 5.638 Q 90.255 6.073 90.329 6.39 A 1.707 1.707 0 0 0 90.422 6.68 L 90.422 6.75 Z M 10.714 4.504 L 10.714 4.355 A 3.17 3.17 0 0 1 10.79 3.646 A 2.581 2.581 0 0 1 10.984 3.092 A 2.191 2.191 0 0 1 11.432 2.466 A 2.033 2.033 0 0 1 11.74 2.221 Q 12.226 1.907 12.792 1.907 A 2.254 2.254 0 0 1 13.406 1.986 A 1.639 1.639 0 0 1 14.234 2.518 Q 14.748 3.129 14.748 4.267 L 14.748 4.605 L 11.527 4.605 A 2.111 2.111 0 0 0 11.598 5.114 A 1.516 1.516 0 0 0 11.938 5.741 A 1.282 1.282 0 0 0 12.872 6.173 A 1.652 1.652 0 0 0 12.937 6.174 A 1.763 1.763 0 0 0 13.266 6.145 Q 13.49 6.103 13.667 5.999 A 1.827 1.827 0 0 0 14.176 5.551 A 2.068 2.068 0 0 0 14.19 5.533 L 14.687 5.919 A 1.926 1.926 0 0 1 13.287 6.811 A 2.749 2.749 0 0 1 12.894 6.838 A 2.394 2.394 0 0 1 12.142 6.725 A 1.974 1.974 0 0 1 11.32 6.203 Q 10.714 5.568 10.714 4.504 Z M 46.283 4.504 L 46.283 4.355 A 3.17 3.17 0 0 1 46.359 3.646 A 2.581 2.581 0 0 1 46.553 3.092 A 2.191 2.191 0 0 1 47.001 2.466 A 2.033 2.033 0 0 1 47.309 2.221 Q 47.795 1.907 48.362 1.907 A 2.254 2.254 0 0 1 48.975 1.986 A 1.639 1.639 0 0 1 49.803 2.518 Q 50.317 3.129 50.317 4.267 L 50.317 4.605 L 47.096 4.605 A 2.111 2.111 0 0 0 47.167 5.114 A 1.516 1.516 0 0 0 47.507 5.741 A 1.282 1.282 0 0 0 48.441 6.173 A 1.652 1.652 0 0 0 48.507 6.174 A 1.763 1.763 0 0 0 48.835 6.145 Q 49.059 6.103 49.236 5.999 A 1.827 1.827 0 0 0 49.745 5.551 A 2.068 2.068 0 0 0 49.759 5.533 L 50.256 5.919 A 1.926 1.926 0 0 1 48.856 6.811 A 2.749 2.749 0 0 1 48.463 6.838 A 2.394 2.394 0 0 1 47.712 6.725 A 1.974 1.974 0 0 1 46.89 6.203 Q 46.283 5.568 46.283 4.504 Z M 74.896 4.504 L 74.896 4.355 A 3.17 3.17 0 0 1 74.972 3.646 A 2.581 2.581 0 0 1 75.166 3.092 A 2.191 2.191 0 0 1 75.614 2.466 A 2.033 2.033 0 0 1 75.922 2.221 Q 76.408 1.907 76.975 1.907 A 2.254 2.254 0 0 1 77.588 1.986 A 1.639 1.639 0 0 1 78.416 2.518 Q 78.93 3.129 78.93 4.267 L 78.93 4.605 L 75.709 4.605 A 2.111 2.111 0 0 0 75.78 5.114 A 1.516 1.516 0 0 0 76.12 5.741 A 1.282 1.282 0 0 0 77.054 6.173 A 1.652 1.652 0 0 0 77.12 6.174 A 1.763 1.763 0 0 0 77.448 6.145 Q 77.672 6.103 77.849 5.999 A 1.827 1.827 0 0 0 78.358 5.551 A 2.068 2.068 0 0 0 78.372 5.533 L 78.869 5.919 A 1.926 1.926 0 0 1 77.469 6.811 A 2.749 2.749 0 0 1 77.076 6.838 A 2.394 2.394 0 0 1 76.324 6.725 A 1.974 1.974 0 0 1 75.502 6.203 Q 74.896 5.568 74.896 4.504 Z M 111.261 0.352 L 111.261 6.06 L 114.293 6.06 L 114.293 6.75 L 110.413 6.75 L 110.413 0.352 L 111.261 0.352 Z M 101.298 0.352 L 101.298 4.601 L 102.186 4.601 L 102.186 5.265 L 101.298 5.265 L 101.298 6.75 L 100.481 6.75 L 100.481 5.265 L 97.567 5.265 L 97.567 4.786 L 100.433 0.352 L 101.298 0.352 Z M 1.771 6.75 L 0 6.75 L 0 0.352 L 1.806 0.352 Q 2.641 0.352 3.283 0.721 Q 3.924 1.09 4.274 1.771 A 3.19 3.19 0 0 1 4.591 2.8 A 4.073 4.073 0 0 1 4.627 3.335 L 4.627 3.744 Q 4.627 4.649 4.278 5.331 A 2.457 2.457 0 0 1 3.281 6.376 Q 2.632 6.741 1.771 6.75 Z M 106.697 2.592 A 1.544 1.544 0 0 0 106.8 2.021 A 2.226 2.226 0 0 0 106.779 1.707 A 1.566 1.566 0 0 0 106.28 0.738 A 1.754 1.754 0 0 0 105.514 0.333 A 2.443 2.443 0 0 0 104.915 0.264 A 2.539 2.539 0 0 0 104.406 0.312 A 1.767 1.767 0 0 0 103.548 0.738 Q 103.03 1.213 103.03 2.021 A 1.808 1.808 0 0 0 103.03 2.058 A 1.499 1.499 0 0 0 103.276 2.87 A 1.626 1.626 0 0 0 103.438 3.077 A 1.726 1.726 0 0 0 103.948 3.454 A 2.119 2.119 0 0 0 103.849 3.5 A 1.738 1.738 0 0 0 103.164 4.087 A 1.629 1.629 0 0 0 102.88 5.023 A 2.272 2.272 0 0 0 102.89 5.237 A 1.63 1.63 0 0 0 103.436 6.344 A 1.895 1.895 0 0 0 104.287 6.771 A 2.797 2.797 0 0 0 104.915 6.838 A 2.796 2.796 0 0 0 105.514 6.777 A 1.925 1.925 0 0 0 106.389 6.346 A 1.578 1.578 0 0 0 106.864 5.62 A 1.989 1.989 0 0 0 106.95 5.023 A 1.581 1.581 0 0 0 106.657 4.087 Q 106.365 3.674 105.864 3.458 Q 106.295 3.248 106.548 2.874 A 1.449 1.449 0 0 0 106.697 2.592 Z M 20.689 0.844 L 21.502 0.844 L 21.502 1.995 L 22.39 1.995 L 22.39 2.624 L 21.502 2.624 L 21.502 5.572 Q 21.502 5.858 21.621 6.001 Q 21.74 6.144 22.025 6.144 A 1.046 1.046 0 0 0 22.123 6.138 Q 22.226 6.129 22.365 6.101 A 4.024 4.024 0 0 0 22.412 6.091 L 22.412 6.75 A 2.463 2.463 0 0 1 21.979 6.829 A 2.157 2.157 0 0 1 21.788 6.838 Q 21.341 6.838 21.074 6.616 A 0.856 0.856 0 0 1 20.966 6.508 Q 20.739 6.238 20.698 5.78 A 2.351 2.351 0 0 1 20.689 5.572 L 20.689 2.624 L 19.824 2.624 L 19.824 1.995 L 20.689 1.995 L 20.689 0.844 Z M 56.259 0.844 L 57.072 0.844 L 57.072 1.995 L 57.959 1.995 L 57.959 2.624 L 57.072 2.624 L 57.072 5.572 Q 57.072 5.858 57.19 6.001 Q 57.309 6.144 57.595 6.144 A 1.046 1.046 0 0 0 57.692 6.138 Q 57.795 6.129 57.935 6.101 A 4.024 4.024 0 0 0 57.981 6.091 L 57.981 6.75 A 2.463 2.463 0 0 1 57.549 6.829 A 2.157 2.157 0 0 1 57.357 6.838 Q 56.91 6.838 56.644 6.616 A 0.856 0.856 0 0 1 56.536 6.508 Q 56.308 6.238 56.268 5.78 A 2.351 2.351 0 0 1 56.259 5.572 L 56.259 2.624 L 55.393 2.624 L 55.393 1.995 L 56.259 1.995 L 56.259 0.844 Z M 72.453 0.844 L 73.266 0.844 L 73.266 1.995 L 74.153 1.995 L 74.153 2.624 L 73.266 2.624 L 73.266 5.572 Q 73.266 5.858 73.384 6.001 Q 73.503 6.144 73.789 6.144 A 1.046 1.046 0 0 0 73.886 6.138 Q 73.989 6.129 74.129 6.101 A 4.024 4.024 0 0 0 74.175 6.091 L 74.175 6.75 A 2.463 2.463 0 0 1 73.743 6.829 A 2.157 2.157 0 0 1 73.551 6.838 Q 73.104 6.838 72.838 6.616 A 0.856 0.856 0 0 1 72.729 6.508 Q 72.502 6.238 72.461 5.78 A 2.351 2.351 0 0 1 72.453 5.572 L 72.453 2.624 L 71.587 2.624 L 71.587 1.995 L 72.453 1.995 L 72.453 0.844 Z M 127.608 0.844 L 128.421 0.844 L 128.421 1.995 L 129.309 1.995 L 129.309 2.624 L 128.421 2.624 L 128.421 5.572 Q 128.421 5.858 128.54 6.001 Q 128.659 6.144 128.944 6.144 A 1.046 1.046 0 0 0 129.042 6.138 Q 129.145 6.129 129.284 6.101 A 4.024 4.024 0 0 0 129.331 6.091 L 129.331 6.75 A 2.463 2.463 0 0 1 128.898 6.829 A 2.157 2.157 0 0 1 128.707 6.838 Q 128.26 6.838 127.993 6.616 A 0.856 0.856 0 0 1 127.885 6.508 Q 127.658 6.238 127.617 5.78 A 2.351 2.351 0 0 1 127.608 5.572 L 127.608 2.624 L 126.743 2.624 L 126.743 1.995 L 127.608 1.995 L 127.608 0.844 Z M 31.21 4.386 L 31.21 4.329 A 3.057 3.057 0 0 1 31.297 3.587 A 2.573 2.573 0 0 1 31.485 3.072 A 2.16 2.16 0 0 1 31.899 2.486 A 1.957 1.957 0 0 1 32.249 2.21 A 2.036 2.036 0 0 1 33.194 1.913 A 2.491 2.491 0 0 1 33.368 1.907 A 2.277 2.277 0 0 1 34.121 2.027 A 1.937 1.937 0 0 1 34.939 2.58 A 2.29 2.29 0 0 1 35.458 3.608 A 3.373 3.373 0 0 1 35.539 4.368 L 35.539 4.425 A 3.114 3.114 0 0 1 35.459 5.142 A 2.577 2.577 0 0 1 35.273 5.671 A 2.056 2.056 0 0 1 34.745 6.361 A 2.001 2.001 0 0 1 34.512 6.53 A 2.045 2.045 0 0 1 33.593 6.829 A 2.529 2.529 0 0 1 33.376 6.838 A 2.262 2.262 0 0 1 32.626 6.718 A 1.938 1.938 0 0 1 31.81 6.166 A 2.297 2.297 0 0 1 31.284 5.111 A 3.357 3.357 0 0 1 31.21 4.386 Z M 10.257 1.969 L 10.257 2.725 A 2.251 2.251 0 0 0 10.014 2.698 A 2.782 2.782 0 0 0 9.857 2.694 Q 9.079 2.694 8.788 3.338 A 1.445 1.445 0 0 0 8.771 3.375 L 8.771 6.75 L 7.958 6.75 L 7.958 1.995 L 8.75 1.995 L 8.763 2.544 Q 9.143 1.938 9.826 1.909 A 1.636 1.636 0 0 1 9.896 1.907 Q 10.134 1.907 10.257 1.969 Z M 1.828 1.046 L 0.844 1.046 L 0.844 6.06 L 1.731 6.06 A 2.519 2.519 0 0 0 2.364 5.985 A 1.747 1.747 0 0 0 3.25 5.454 Q 3.709 4.94 3.78 4.059 A 4.165 4.165 0 0 0 3.792 3.727 L 3.792 3.353 Q 3.792 2.562 3.523 2.027 A 1.864 1.864 0 0 0 3.281 1.659 A 1.687 1.687 0 0 0 2.285 1.09 A 2.499 2.499 0 0 0 1.828 1.046 Z M 6.658 1.995 L 6.658 6.75 L 5.845 6.75 L 5.845 1.995 L 6.658 1.995 Z M 116.011 1.995 L 116.011 6.75 L 115.198 6.75 L 115.198 1.995 L 116.011 1.995 Z M 32.027 4.425 A 2.772 2.772 0 0 0 32.075 4.954 Q 32.135 5.264 32.272 5.51 A 1.545 1.545 0 0 0 32.394 5.695 Q 32.761 6.174 33.376 6.174 A 1.269 1.269 0 0 0 33.866 6.083 Q 34.145 5.967 34.348 5.706 A 1.471 1.471 0 0 0 34.361 5.689 A 1.648 1.648 0 0 0 34.616 5.171 Q 34.684 4.945 34.71 4.672 A 3.655 3.655 0 0 0 34.726 4.329 A 2.687 2.687 0 0 0 34.674 3.789 Q 34.607 3.459 34.449 3.2 A 1.586 1.586 0 0 0 34.354 3.061 A 1.231 1.231 0 0 0 33.939 2.705 Q 33.686 2.575 33.368 2.575 Q 32.778 2.575 32.412 3.035 A 1.515 1.515 0 0 0 32.396 3.054 A 1.589 1.589 0 0 0 32.144 3.552 Q 32.075 3.772 32.047 4.039 A 3.676 3.676 0 0 0 32.027 4.425 Z M 120.318 5.449 L 120.318 3.278 A 1.439 1.439 0 0 0 120.017 2.891 Q 119.713 2.62 119.273 2.599 A 1.578 1.578 0 0 0 119.197 2.597 Q 118.605 2.597 118.272 3.056 A 1.51 1.51 0 0 0 118.061 3.484 Q 117.995 3.689 117.964 3.939 A 3.955 3.955 0 0 0 117.936 4.425 Q 117.936 5.229 118.266 5.689 Q 118.595 6.148 119.188 6.148 A 1.32 1.32 0 0 0 119.698 6.054 Q 120.09 5.891 120.318 5.449 Z M 100.384 1.639 L 98.49 4.601 L 100.481 4.601 L 100.481 1.463 L 100.384 1.639 Z M 106.137 5.005 A 1.375 1.375 0 0 0 106.077 4.592 A 1.109 1.109 0 0 0 105.796 4.131 A 1.148 1.148 0 0 0 105.125 3.807 A 1.593 1.593 0 0 0 104.906 3.792 A 1.466 1.466 0 0 0 104.518 3.841 A 1.086 1.086 0 0 0 104.025 4.126 A 1.123 1.123 0 0 0 103.712 4.762 A 1.572 1.572 0 0 0 103.693 5.005 A 1.48 1.48 0 0 0 103.735 5.367 A 1.019 1.019 0 0 0 104.016 5.862 Q 104.322 6.158 104.855 6.173 A 2.053 2.053 0 0 0 104.915 6.174 Q 105.409 6.174 105.719 5.94 A 1.018 1.018 0 0 0 105.812 5.86 A 1.041 1.041 0 0 0 106.111 5.292 A 1.518 1.518 0 0 0 106.137 5.005 Z M 104.915 0.932 A 1.259 1.259 0 0 0 104.562 0.979 A 0.973 0.973 0 0 0 104.139 1.228 Q 103.843 1.525 103.843 2.035 A 1.325 1.325 0 0 0 103.887 2.387 A 0.994 0.994 0 0 0 104.135 2.823 A 0.974 0.974 0 0 0 104.697 3.108 A 1.382 1.382 0 0 0 104.915 3.125 A 1.279 1.279 0 0 0 105.26 3.08 A 0.952 0.952 0 0 0 105.695 2.823 A 1.018 1.018 0 0 0 105.97 2.26 A 1.426 1.426 0 0 0 105.987 2.035 A 1.282 1.282 0 0 0 105.937 1.668 A 1.013 1.013 0 0 0 105.684 1.239 Q 105.381 0.932 104.915 0.932 Z M 70.075 5.418 L 70.075 4.443 L 69.438 4.443 Q 67.944 4.443 67.944 5.317 Q 67.944 5.7 68.199 5.915 A 0.893 0.893 0 0 0 68.612 6.108 A 1.259 1.259 0 0 0 68.854 6.13 A 1.429 1.429 0 0 0 69.579 5.933 A 1.335 1.335 0 0 0 69.874 5.705 A 1.108 1.108 0 0 0 70.075 5.418 Z M 89.442 5.418 L 89.442 4.443 L 88.805 4.443 Q 87.311 4.443 87.311 5.317 Q 87.311 5.7 87.565 5.915 A 0.893 0.893 0 0 0 87.979 6.108 A 1.259 1.259 0 0 0 88.22 6.13 A 1.429 1.429 0 0 0 88.945 5.933 A 1.335 1.335 0 0 0 89.241 5.705 A 1.108 1.108 0 0 0 89.442 5.418 Z M 11.553 3.938 L 13.935 3.938 L 13.935 3.876 Q 13.909 3.417 13.738 3.111 A 1.13 1.13 0 0 0 13.601 2.916 A 0.983 0.983 0 0 0 12.947 2.584 A 1.39 1.39 0 0 0 12.792 2.575 A 1.106 1.106 0 0 0 12.27 2.698 A 1.14 1.14 0 0 0 11.966 2.933 A 1.417 1.417 0 0 0 11.69 3.379 Q 11.616 3.563 11.576 3.785 A 2.741 2.741 0 0 0 11.553 3.938 Z M 47.123 3.938 L 49.504 3.938 L 49.504 3.876 Q 49.478 3.417 49.308 3.111 A 1.13 1.13 0 0 0 49.17 2.916 A 0.983 0.983 0 0 0 48.516 2.584 A 1.39 1.39 0 0 0 48.362 2.575 A 1.106 1.106 0 0 0 47.839 2.698 A 1.14 1.14 0 0 0 47.536 2.933 A 1.417 1.417 0 0 0 47.259 3.379 Q 47.185 3.563 47.145 3.785 A 2.741 2.741 0 0 0 47.123 3.938 Z M 75.735 3.938 L 78.117 3.938 L 78.117 3.876 Q 78.091 3.417 77.92 3.111 A 1.13 1.13 0 0 0 77.783 2.916 A 0.983 0.983 0 0 0 77.129 2.584 A 1.39 1.39 0 0 0 76.975 2.575 A 1.106 1.106 0 0 0 76.452 2.698 A 1.14 1.14 0 0 0 76.148 2.933 A 1.417 1.417 0 0 0 75.872 3.379 Q 75.798 3.563 75.758 3.785 A 2.741 2.741 0 0 0 75.735 3.938 Z M 5.779 0.734 Q 5.779 0.536 5.9 0.4 Q 6.012 0.274 6.223 0.264 A 0.783 0.783 0 0 1 6.258 0.264 Q 6.495 0.264 6.618 0.4 A 0.474 0.474 0 0 1 6.74 0.703 A 0.614 0.614 0 0 1 6.741 0.734 A 0.523 0.523 0 0 1 6.716 0.9 A 0.442 0.442 0 0 1 6.618 1.063 Q 6.506 1.184 6.298 1.194 A 0.803 0.803 0 0 1 6.258 1.195 Q 6.086 1.195 5.975 1.126 A 0.362 0.362 0 0 1 5.9 1.063 A 0.456 0.456 0 0 1 5.781 0.788 A 0.605 0.605 0 0 1 5.779 0.734 Z M 115.132 0.734 Q 115.132 0.536 115.253 0.4 Q 115.365 0.274 115.577 0.264 A 0.783 0.783 0 0 1 115.611 0.264 Q 115.849 0.264 115.972 0.4 A 0.474 0.474 0 0 1 116.094 0.703 A 0.614 0.614 0 0 1 116.095 0.734 A 0.523 0.523 0 0 1 116.069 0.9 A 0.442 0.442 0 0 1 115.972 1.063 Q 115.859 1.184 115.651 1.194 A 0.803 0.803 0 0 1 115.611 1.195 Q 115.439 1.195 115.328 1.126 A 0.362 0.362 0 0 1 115.253 1.063 A 0.456 0.456 0 0 1 115.135 0.788 A 0.605 0.605 0 0 1 115.132 0.734 Z" vector-effect="non-scaling-stroke"/></g>
</svgversion="1.0" encoding="UTF-8"?>
<svg width="48px" height="48px" viewBox="0 0 48 48" version="1.1" xmlns="http://www.w3.org/2000/svg" xmlns:xlink="http://www.w3.org/1999/xlink">
    <title>Icon-Resource/Networking-and-Content-Delivery/Res_AWS-Direct-Connect-Gateway_48_Light</title>
    <g id="Icon-Resource/Networking-and-Content-Delivery/Res_AWS-Direct-Connect-Gateway_48" stroke="none" stroke-width="1" fill="none" fill-rule="evenodd">
        <polygon id="AWS-Direct-Connect-Gateway_Resource-Icon_light-bg" fill="#000000" points="24.279 2 5.779 12.68 6.778 14.413 23.278 4.886 23.278 22.938 7.328 22.938 11.485 18.781 10.072 17.367 3 24.437 10.072 31.507 11.485 30.094 6.328 24.937 23.278 24.937 23.278 42.992 6.778 33.466 5.779 35.198 24.279 45.879 42.778 35.198 41.779 33.466 25.279 42.992 25.279 24.937 41.999 24.937 37.402 29.536 38.816 30.949 45.886 23.879 38.816 16.808 37.402 18.222 42.116 22.938 25.279 22.938 25.279 4.886 41.779 14.413 42.778 12.68"></polygon>
    </g><g transform="translate(33vw, 80vh)" id="svgGroup" stroke-linecap="round" fill-rule="evenodd" font-size="9pt" stroke="#000" stroke-width="0.25mm" fill="#000" style="stroke:#000;stroke-width:0.25mm;fill:#000"><path d="M 23.12 0.088 L 24.13 4.469 L 24.253 5.313 L 24.434 4.553 L 25.699 0.088 L 26.411 0.088 L 27.646 4.553 L 27.822 5.326 L 27.958 4.465 L 28.951 0.088 L 29.799 0.088 L 28.248 6.486 L 27.479 6.486 L 26.161 1.824 L 26.06 1.336 L 25.958 1.824 L 24.592 6.486 L 23.823 6.486 L 22.276 0.088 L 23.12 0.088 Z M 34.98 1.938 L 34.132 1.938 A 1.466 1.466 0 0 0 34.083 1.546 A 1.066 1.066 0 0 0 33.763 1.026 A 1.211 1.211 0 0 0 33.294 0.77 Q 33.042 0.694 32.722 0.694 A 2.286 2.286 0 0 0 32.342 0.724 Q 32.14 0.758 31.977 0.831 A 1.101 1.101 0 0 0 31.748 0.969 A 0.892 0.892 0 0 0 31.403 1.624 A 1.267 1.267 0 0 0 31.399 1.732 A 0.806 0.806 0 0 0 31.667 2.337 A 1.134 1.134 0 0 0 31.731 2.393 A 1.562 1.562 0 0 0 31.969 2.549 Q 32.299 2.73 32.86 2.887 A 8.228 8.228 0 0 1 33.325 3.032 Q 33.56 3.113 33.754 3.2 A 3.297 3.297 0 0 1 34.108 3.382 A 2.342 2.342 0 0 1 34.447 3.626 Q 34.637 3.792 34.759 3.985 A 1.45 1.45 0 0 1 34.776 4.012 A 1.498 1.498 0 0 1 34.972 4.568 A 1.948 1.948 0 0 1 34.994 4.86 A 1.606 1.606 0 0 1 34.871 5.497 Q 34.726 5.838 34.408 6.09 A 1.886 1.886 0 0 1 34.387 6.106 Q 33.781 6.574 32.766 6.574 A 3.023 3.023 0 0 1 31.625 6.36 A 2.917 2.917 0 0 1 31.535 6.322 A 2.383 2.383 0 0 1 31.057 6.044 A 1.874 1.874 0 0 1 30.654 5.629 A 1.689 1.689 0 0 1 30.344 4.632 L 31.192 4.632 A 1.261 1.261 0 0 0 31.262 5.059 A 1.074 1.074 0 0 0 31.621 5.548 Q 32.005 5.85 32.622 5.881 A 2.87 2.87 0 0 0 32.766 5.884 A 2.628 2.628 0 0 0 33.153 5.858 Q 33.349 5.828 33.508 5.767 A 1.129 1.129 0 0 0 33.79 5.612 Q 34.146 5.339 34.146 4.869 A 1.074 1.074 0 0 0 34.103 4.559 A 0.816 0.816 0 0 0 33.816 4.142 Q 33.486 3.885 32.621 3.634 Q 31.535 3.322 31.041 2.868 Q 30.546 2.413 30.546 1.745 Q 30.546 0.989 31.151 0.494 A 2.121 2.121 0 0 1 32.041 0.071 A 3.087 3.087 0 0 1 32.722 0 A 2.913 2.913 0 0 1 33.382 0.072 A 2.372 2.372 0 0 1 33.897 0.255 A 2.051 2.051 0 0 1 34.428 0.626 A 1.834 1.834 0 0 1 34.697 0.958 A 1.798 1.798 0 0 1 34.98 1.938 Z M 3.74 6.486 L 2.351 3.898 L 0.848 3.898 L 0.848 6.486 L 0 6.486 L 0 0.088 L 2.118 0.088 A 3.809 3.809 0 0 1 2.76 0.138 Q 3.102 0.197 3.376 0.324 A 1.789 1.789 0 0 1 3.781 0.58 A 1.588 1.588 0 0 1 4.307 1.469 A 2.453 2.453 0 0 1 4.364 2.013 A 1.864 1.864 0 0 1 4.273 2.604 A 1.64 1.64 0 0 1 4.041 3.054 A 1.849 1.849 0 0 1 3.382 3.611 A 2.342 2.342 0 0 1 3.142 3.718 L 4.645 6.434 L 4.645 6.486 L 3.74 6.486 Z M 13.724 3.129 L 12.907 3.129 Q 12.907 2.795 12.623 2.553 Q 12.34 2.312 11.909 2.312 Q 11.465 2.312 11.215 2.505 A 0.653 0.653 0 0 0 11.04 2.704 Q 10.967 2.835 10.964 3 A 0.771 0.771 0 0 0 10.964 3.01 A 0.588 0.588 0 0 0 10.994 3.203 A 0.48 0.48 0 0 0 11.197 3.454 A 1.093 1.093 0 0 0 11.348 3.533 Q 11.512 3.605 11.767 3.673 A 6.581 6.581 0 0 0 12.039 3.74 A 6.318 6.318 0 0 1 12.446 3.845 Q 12.783 3.944 13.025 4.065 A 1.901 1.901 0 0 1 13.281 4.218 Q 13.418 4.315 13.516 4.429 A 1.06 1.06 0 0 1 13.586 4.52 A 1.024 1.024 0 0 1 13.748 4.927 A 1.388 1.388 0 0 1 13.768 5.168 Q 13.768 5.805 13.258 6.19 Q 12.776 6.554 12.022 6.573 A 3.337 3.337 0 0 1 11.936 6.574 A 2.746 2.746 0 0 1 11.401 6.525 A 2.124 2.124 0 0 1 10.925 6.372 A 1.771 1.771 0 0 1 10.491 6.094 A 1.54 1.54 0 0 1 10.237 5.807 Q 9.989 5.445 9.989 5.023 L 10.802 5.023 A 0.932 0.932 0 0 0 10.875 5.348 A 0.827 0.827 0 0 0 11.129 5.671 A 1.072 1.072 0 0 0 11.531 5.864 Q 11.686 5.903 11.867 5.91 A 2.013 2.013 0 0 0 11.936 5.911 A 1.863 1.863 0 0 0 12.231 5.889 Q 12.393 5.863 12.524 5.806 A 0.941 0.941 0 0 0 12.676 5.724 A 0.689 0.689 0 0 0 12.841 5.574 A 0.554 0.554 0 0 0 12.955 5.225 A 0.698 0.698 0 0 0 12.919 4.994 A 0.581 0.581 0 0 0 12.707 4.713 A 1.05 1.05 0 0 0 12.538 4.615 Q 12.349 4.524 12.054 4.449 A 5.392 5.392 0 0 0 11.841 4.399 A 6.342 6.342 0 0 1 11.48 4.311 Q 11.11 4.209 10.861 4.083 Q 10.562 3.93 10.392 3.731 A 1.017 1.017 0 0 1 10.325 3.643 Q 10.151 3.388 10.151 3.037 A 1.206 1.206 0 0 1 10.55 2.132 A 1.694 1.694 0 0 1 10.646 2.048 A 1.752 1.752 0 0 1 11.429 1.688 A 2.471 2.471 0 0 1 11.909 1.644 A 2.559 2.559 0 0 1 12.473 1.702 A 1.757 1.757 0 0 1 13.221 2.061 Q 13.724 2.479 13.724 3.129 Z M 21.327 6.486 L 20.716 4.816 L 18.035 4.816 L 17.433 6.486 L 16.563 6.486 L 19.006 0.088 L 19.745 0.088 L 22.192 6.486 L 21.327 6.486 Z M 5.212 4.241 L 5.212 4.091 A 3.17 3.17 0 0 1 5.288 3.382 A 2.581 2.581 0 0 1 5.482 2.828 A 2.191 2.191 0 0 1 5.93 2.202 A 2.033 2.033 0 0 1 6.238 1.958 Q 6.724 1.644 7.291 1.644 A 2.254 2.254 0 0 1 7.904 1.723 A 1.639 1.639 0 0 1 8.732 2.254 Q 9.246 2.865 9.246 4.003 L 9.246 4.342 L 6.025 4.342 A 2.111 2.111 0 0 0 6.096 4.85 A 1.516 1.516 0 0 0 6.436 5.478 A 1.282 1.282 0 0 0 7.37 5.909 A 1.652 1.652 0 0 0 7.436 5.911 A 1.763 1.763 0 0 0 7.764 5.882 Q 7.988 5.839 8.165 5.735 A 1.827 1.827 0 0 0 8.674 5.287 A 2.068 2.068 0 0 0 8.688 5.269 L 9.185 5.656 A 1.926 1.926 0 0 1 7.785 6.547 A 2.749 2.749 0 0 1 7.392 6.574 A 2.394 2.394 0 0 1 6.64 6.461 A 1.974 1.974 0 0 1 5.818 5.939 Q 5.212 5.304 5.212 4.241 Z M 0.848 0.782 L 0.848 3.208 L 2.145 3.208 Q 2.685 3.208 3.035 2.968 A 1.174 1.174 0 0 0 3.144 2.883 A 1.069 1.069 0 0 0 3.51 2.146 A 1.486 1.486 0 0 0 3.516 2.013 Q 3.516 1.47 3.22 1.159 A 1 1 0 0 0 3.162 1.103 Q 2.808 0.787 2.14 0.782 L 0.848 0.782 Z M 19.375 1.129 L 18.29 4.122 L 20.465 4.122 L 19.375 1.129 Z M 6.051 3.674 L 8.433 3.674 L 8.433 3.612 Q 8.407 3.153 8.236 2.848 A 1.13 1.13 0 0 0 8.099 2.652 A 0.983 0.983 0 0 0 7.445 2.32 A 1.39 1.39 0 0 0 7.291 2.312 A 1.106 1.106 0 0 0 6.768 2.435 A 1.14 1.14 0 0 0 6.464 2.67 A 1.417 1.417 0 0 0 6.188 3.116 Q 6.114 3.3 6.074 3.522 A 2.741 2.741 0 0 0 6.051 3.674 Z" vector-effect="non-scaling-stroke"/></g><g transform="translate(12vw, 90vh)" id="svgGroup" stroke-linecap="round" fill-rule="evenodd" font-size="9pt" stroke="#000" stroke-width="0.25mm" fill="#000" style="stroke:#000;stroke-width:0.25mm;fill:#000"><path d="M 82.951 1.995 L 84.081 5.629 L 84.995 1.995 L 85.808 1.995 L 84.423 6.75 L 83.764 6.75 L 82.608 3.146 L 81.483 6.75 L 80.824 6.75 L 79.444 1.995 L 80.253 1.995 L 81.189 5.555 L 82.296 1.995 L 82.951 1.995 Z M 65.988 3.564 L 65.988 5.911 A 1.895 1.895 0 0 1 65.265 6.525 A 2.364 2.364 0 0 1 65.081 6.607 A 3.162 3.162 0 0 1 64.408 6.787 Q 64.098 6.836 63.748 6.838 A 5.148 5.148 0 0 1 63.725 6.838 A 2.838 2.838 0 0 1 62.902 6.722 A 2.459 2.459 0 0 1 62.336 6.471 A 2.43 2.43 0 0 1 61.43 5.49 A 2.924 2.924 0 0 1 61.398 5.427 A 3.277 3.277 0 0 1 61.11 4.497 A 4.307 4.307 0 0 1 61.058 3.858 L 61.058 3.3 Q 61.058 1.854 61.732 1.059 A 2.198 2.198 0 0 1 63.086 0.307 A 3.227 3.227 0 0 1 63.628 0.264 Q 64.63 0.264 65.241 0.776 A 2.047 2.047 0 0 1 65.863 1.701 A 2.896 2.896 0 0 1 65.988 2.228 L 65.145 2.228 Q 64.938 1.12 63.942 0.979 A 2.195 2.195 0 0 0 63.633 0.958 A 1.917 1.917 0 0 0 63.098 1.028 A 1.386 1.386 0 0 0 62.347 1.553 A 1.986 1.986 0 0 0 62.064 2.125 Q 61.976 2.396 61.937 2.726 A 4.871 4.871 0 0 0 61.906 3.278 L 61.906 3.801 A 3.827 3.827 0 0 0 61.964 4.489 Q 62.075 5.096 62.398 5.513 A 1.569 1.569 0 0 0 63.538 6.139 A 2.069 2.069 0 0 0 63.729 6.148 Q 64.162 6.148 64.497 6.06 A 2.106 2.106 0 0 0 64.56 6.042 A 1.357 1.357 0 0 0 64.948 5.86 A 1.217 1.217 0 0 0 65.149 5.687 L 65.149 4.25 L 63.668 4.25 L 63.668 3.564 L 65.988 3.564 Z M 29.553 4.72 L 30.401 4.72 A 3.016 3.016 0 0 1 30.24 5.416 A 2.099 2.099 0 0 1 29.652 6.286 Q 29.021 6.838 27.976 6.838 A 2.553 2.553 0 0 1 27.106 6.696 A 2.194 2.194 0 0 1 26.158 6.025 A 2.789 2.789 0 0 1 25.597 4.901 Q 25.49 4.484 25.477 3.992 A 5.262 5.262 0 0 1 25.475 3.85 L 25.475 3.234 A 4.251 4.251 0 0 1 25.545 2.445 A 3.229 3.229 0 0 1 25.794 1.666 A 2.539 2.539 0 0 1 26.249 0.99 A 2.26 2.26 0 0 1 26.697 0.626 A 2.415 2.415 0 0 1 27.723 0.281 A 3.027 3.027 0 0 1 28.05 0.264 A 2.962 2.962 0 0 1 28.756 0.343 A 2.065 2.065 0 0 1 29.685 0.833 A 2.16 2.16 0 0 1 30.28 1.795 A 3.086 3.086 0 0 1 30.401 2.408 L 29.553 2.408 Q 29.484 1.929 29.315 1.616 A 1.223 1.223 0 0 0 29.076 1.301 A 1.207 1.207 0 0 0 28.571 1.024 Q 28.384 0.971 28.161 0.961 A 2.396 2.396 0 0 0 28.05 0.958 A 1.753 1.753 0 0 0 27.472 1.049 A 1.463 1.463 0 0 0 26.782 1.556 A 1.989 1.989 0 0 0 26.469 2.175 Q 26.323 2.636 26.323 3.256 L 26.323 3.876 Q 26.323 4.917 26.758 5.533 A 1.38 1.38 0 0 0 27.757 6.135 A 1.814 1.814 0 0 0 27.976 6.148 A 2.497 2.497 0 0 0 28.383 6.117 Q 28.603 6.08 28.778 6.002 A 1.155 1.155 0 0 0 29.054 5.829 Q 29.43 5.511 29.553 4.72 Z M 123.174 0 L 123.174 2.571 A 1.767 1.767 0 0 1 123.84 2.053 A 1.832 1.832 0 0 1 124.581 1.907 A 1.905 1.905 0 0 1 125.214 2.004 Q 126.056 2.3 126.099 3.506 A 3.668 3.668 0 0 1 126.101 3.608 L 126.101 6.75 L 125.288 6.75 L 125.288 3.604 A 1.837 1.837 0 0 0 125.266 3.324 Q 125.216 3.017 125.053 2.843 Q 124.867 2.645 124.513 2.606 A 1.66 1.66 0 0 0 124.334 2.597 A 1.253 1.253 0 0 0 123.92 2.664 A 1.123 1.123 0 0 0 123.64 2.808 A 1.432 1.432 0 0 0 123.174 3.362 L 123.174 6.75 L 122.361 6.75 L 122.361 0 L 123.174 0 Z M 120.353 2.522 L 120.393 1.995 L 121.135 1.995 L 121.135 6.636 A 2.511 2.511 0 0 1 121.065 7.249 A 1.738 1.738 0 0 1 120.588 8.09 A 1.834 1.834 0 0 1 119.658 8.57 A 2.671 2.671 0 0 1 119.118 8.622 A 2.446 2.446 0 0 1 118.112 8.402 A 2.003 2.003 0 0 1 117.702 8.161 A 1.563 1.563 0 0 1 117.36 7.8 L 117.782 7.313 A 1.889 1.889 0 0 0 118.217 7.712 A 1.514 1.514 0 0 0 119.061 7.958 A 1.695 1.695 0 0 0 119.438 7.919 Q 119.706 7.858 119.9 7.702 A 1.037 1.037 0 0 0 119.986 7.625 A 1.09 1.09 0 0 0 120.263 7.132 Q 120.31 6.959 120.317 6.752 A 2.134 2.134 0 0 0 120.318 6.684 L 120.318 6.275 A 1.601 1.601 0 0 1 119.266 6.821 A 2.279 2.279 0 0 1 118.986 6.838 A 1.672 1.672 0 0 1 118.231 6.67 Q 117.909 6.51 117.659 6.197 A 2.14 2.14 0 0 1 117.635 6.166 A 2.316 2.316 0 0 1 117.252 5.386 Q 117.119 4.922 117.119 4.333 Q 117.119 3.472 117.427 2.884 A 2.096 2.096 0 0 1 117.633 2.564 Q 118.147 1.907 118.995 1.907 A 1.971 1.971 0 0 1 119.594 1.994 A 1.55 1.55 0 0 1 120.353 2.522 Z M 91.833 1.995 L 93.019 5.559 L 94.126 1.995 L 94.997 1.995 L 93.085 7.484 Q 92.641 8.67 91.674 8.67 L 91.521 8.657 L 91.217 8.6 L 91.217 7.941 L 91.437 7.958 Q 91.717 7.958 91.913 7.882 A 0.75 0.75 0 0 0 92.081 7.792 A 0.749 0.749 0 0 0 92.241 7.629 Q 92.359 7.47 92.449 7.215 A 2.575 2.575 0 0 0 92.461 7.181 L 92.641 6.697 L 90.945 1.995 L 91.833 1.995 Z M 36.558 1.995 L 37.327 1.995 L 37.354 2.593 Q 37.89 1.918 38.75 1.907 A 2.234 2.234 0 0 1 38.777 1.907 A 1.905 1.905 0 0 1 39.411 2.004 Q 40.253 2.3 40.296 3.506 A 3.668 3.668 0 0 1 40.298 3.608 L 40.298 6.75 L 39.485 6.75 L 39.485 3.604 A 1.837 1.837 0 0 0 39.463 3.324 Q 39.412 3.017 39.25 2.843 Q 39.064 2.645 38.71 2.606 A 1.66 1.66 0 0 0 38.531 2.597 A 1.253 1.253 0 0 0 38.117 2.664 A 1.123 1.123 0 0 0 37.837 2.808 A 1.432 1.432 0 0 0 37.371 3.362 L 37.371 6.75 L 36.558 6.75 L 36.558 1.995 Z M 41.524 1.995 L 42.293 1.995 L 42.319 2.593 Q 42.856 1.918 43.716 1.907 A 2.234 2.234 0 0 1 43.743 1.907 A 1.905 1.905 0 0 1 44.377 2.004 Q 45.219 2.3 45.261 3.506 A 3.668 3.668 0 0 1 45.264 3.608 L 45.264 6.75 L 44.451 6.75 L 44.451 3.604 A 1.837 1.837 0 0 0 44.428 3.324 Q 44.378 3.017 44.216 2.843 Q 44.029 2.645 43.676 2.606 A 1.66 1.66 0 0 0 43.497 2.597 A 1.253 1.253 0 0 0 43.083 2.664 A 1.123 1.123 0 0 0 42.803 2.808 A 1.432 1.432 0 0 0 42.337 3.362 L 42.337 6.75 L 41.524 6.75 L 41.524 1.995 Z M 18.716 5.251 L 19.485 5.251 A 1.432 1.432 0 0 1 19.286 5.901 A 1.772 1.772 0 0 1 19.204 6.029 A 1.828 1.828 0 0 1 18.595 6.574 A 2.169 2.169 0 0 1 18.512 6.618 A 1.997 1.997 0 0 1 17.596 6.838 A 2.346 2.346 0 0 1 16.898 6.739 A 1.839 1.839 0 0 1 16.051 6.19 A 2.171 2.171 0 0 1 15.587 5.31 Q 15.478 4.909 15.478 4.417 L 15.478 4.28 A 3.24 3.24 0 0 1 15.541 3.624 A 2.57 2.57 0 0 1 15.732 3.045 A 2.008 2.008 0 0 1 16.172 2.431 A 1.892 1.892 0 0 1 16.464 2.206 A 1.943 1.943 0 0 1 17.22 1.934 A 2.529 2.529 0 0 1 17.591 1.907 A 2.196 2.196 0 0 1 18.239 1.999 A 1.786 1.786 0 0 1 18.921 2.386 A 1.693 1.693 0 0 1 19.479 3.535 A 2.239 2.239 0 0 1 19.485 3.63 L 18.716 3.63 Q 18.681 3.168 18.367 2.872 A 1.078 1.078 0 0 0 17.638 2.576 A 1.402 1.402 0 0 0 17.591 2.575 A 1.374 1.374 0 0 0 17.17 2.637 A 1.081 1.081 0 0 0 16.631 3.021 A 1.469 1.469 0 0 0 16.404 3.468 Q 16.339 3.674 16.311 3.923 A 3.514 3.514 0 0 0 16.291 4.311 L 16.291 4.465 Q 16.291 5.287 16.629 5.73 A 1.1 1.1 0 0 0 17.416 6.165 A 1.611 1.611 0 0 0 17.596 6.174 A 1.171 1.171 0 0 0 18.356 5.911 A 1.007 1.007 0 0 0 18.6 5.629 A 0.914 0.914 0 0 0 18.716 5.251 Z M 54.286 5.251 L 55.055 5.251 A 1.432 1.432 0 0 1 54.856 5.901 A 1.772 1.772 0 0 1 54.773 6.029 A 1.828 1.828 0 0 1 54.164 6.574 A 2.169 2.169 0 0 1 54.081 6.618 A 1.997 1.997 0 0 1 53.165 6.838 A 2.346 2.346 0 0 1 52.468 6.739 A 1.839 1.839 0 0 1 51.62 6.19 A 2.171 2.171 0 0 1 51.157 5.31 Q 51.047 4.909 51.047 4.417 L 51.047 4.28 A 3.24 3.24 0 0 1 51.111 3.624 A 2.57 2.57 0 0 1 51.302 3.045 A 2.008 2.008 0 0 1 51.741 2.431 A 1.892 1.892 0 0 1 52.033 2.206 A 1.943 1.943 0 0 1 52.79 1.934 A 2.529 2.529 0 0 1 53.161 1.907 A 2.196 2.196 0 0 1 53.809 1.999 A 1.786 1.786 0 0 1 54.49 2.386 A 1.693 1.693 0 0 1 55.048 3.535 A 2.239 2.239 0 0 1 55.055 3.63 L 54.286 3.63 Q 54.25 3.168 53.936 2.872 A 1.078 1.078 0 0 0 53.207 2.576 A 1.402 1.402 0 0 0 53.161 2.575 A 1.374 1.374 0 0 0 52.739 2.637 A 1.081 1.081 0 0 0 52.2 3.021 A 1.469 1.469 0 0 0 51.974 3.468 Q 51.908 3.674 51.88 3.923 A 3.514 3.514 0 0 0 51.86 4.311 L 51.86 4.465 Q 51.86 5.287 52.198 5.73 A 1.1 1.1 0 0 0 52.985 6.165 A 1.611 1.611 0 0 0 53.165 6.174 A 1.171 1.171 0 0 0 53.925 5.911 A 1.007 1.007 0 0 0 54.169 5.629 A 0.914 0.914 0 0 0 54.286 5.251 Z M 71.055 6.75 L 70.203 6.75 A 0.632 0.632 0 0 1 70.167 6.66 Q 70.136 6.562 70.111 6.41 A 3.997 3.997 0 0 1 70.088 6.249 Q 69.521 6.838 68.735 6.838 A 2.033 2.033 0 0 1 68.206 6.772 A 1.529 1.529 0 0 1 67.581 6.44 Q 67.131 6.042 67.131 5.432 Q 67.131 4.689 67.696 4.278 Q 68.26 3.867 69.284 3.867 L 70.075 3.867 L 70.075 3.494 A 1.152 1.152 0 0 0 70.039 3.199 A 0.828 0.828 0 0 0 69.82 2.815 Q 69.604 2.6 69.214 2.568 A 1.748 1.748 0 0 0 69.069 2.562 Q 68.634 2.562 68.339 2.782 Q 68.045 3.001 68.045 3.313 L 67.228 3.313 A 1.041 1.041 0 0 1 67.352 2.825 A 1.409 1.409 0 0 1 67.48 2.626 Q 67.733 2.294 68.166 2.101 A 2.249 2.249 0 0 1 68.941 1.913 A 2.669 2.669 0 0 1 69.117 1.907 A 2.65 2.65 0 0 1 69.635 1.955 Q 69.942 2.016 70.181 2.156 A 1.439 1.439 0 0 1 70.405 2.318 A 1.396 1.396 0 0 1 70.858 3.144 A 1.998 1.998 0 0 1 70.888 3.45 L 70.888 5.638 Q 70.888 6.073 70.962 6.39 A 1.707 1.707 0 0 0 71.055 6.68 L 71.055 6.75 Z M 90.422 6.75 L 89.569 6.75 A 0.632 0.632 0 0 1 89.534 6.66 Q 89.503 6.562 89.478 6.41 A 3.997 3.997 0 0 1 89.455 6.249 Q 88.888 6.838 88.102 6.838 A 2.033 2.033 0 0 1 87.572 6.772 A 1.529 1.529 0 0 1 86.948 6.44 Q 86.498 6.042 86.498 5.432 Q 86.498 4.689 87.062 4.278 Q 87.627 3.867 88.651 3.867 L 89.442 3.867 L 89.442 3.494 A 1.152 1.152 0 0 0 89.406 3.199 A 0.828 0.828 0 0 0 89.187 2.815 Q 88.971 2.6 88.58 2.568 A 1.748 1.748 0 0 0 88.436 2.562 Q 88 2.562 87.706 2.782 Q 87.412 3.001 87.412 3.313 L 86.594 3.313 A 1.041 1.041 0 0 1 86.719 2.825 A 1.409 1.409 0 0 1 86.847 2.626 Q 87.1 2.294 87.532 2.101 A 2.249 2.249 0 0 1 88.308 1.913 A 2.669 2.669 0 0 1 88.484 1.907 A 2.65 2.65 0 0 1 89.001 1.955 Q 89.309 2.016 89.547 2.156 A 1.439 1.439 0 0 1 89.771 2.318 A 1.396 1.396 0 0 1 90.225 3.144 A 1.998 1.998 0 0 1 90.255 3.45 L 90.255 5.638 Q 90.255 6.073 90.329 6.39 A 1.707 1.707 0 0 0 90.422 6.68 L 90.422 6.75 Z M 10.714 4.504 L 10.714 4.355 A 3.17 3.17 0 0 1 10.79 3.646 A 2.581 2.581 0 0 1 10.984 3.092 A 2.191 2.191 0 0 1 11.432 2.466 A 2.033 2.033 0 0 1 11.74 2.221 Q 12.226 1.907 12.792 1.907 A 2.254 2.254 0 0 1 13.406 1.986 A 1.639 1.639 0 0 1 14.234 2.518 Q 14.748 3.129 14.748 4.267 L 14.748 4.605 L 11.527 4.605 A 2.111 2.111 0 0 0 11.598 5.114 A 1.516 1.516 0 0 0 11.938 5.741 A 1.282 1.282 0 0 0 12.872 6.173 A 1.652 1.652 0 0 0 12.937 6.174 A 1.763 1.763 0 0 0 13.266 6.145 Q 13.49 6.103 13.667 5.999 A 1.827 1.827 0 0 0 14.176 5.551 A 2.068 2.068 0 0 0 14.19 5.533 L 14.687 5.919 A 1.926 1.926 0 0 1 13.287 6.811 A 2.749 2.749 0 0 1 12.894 6.838 A 2.394 2.394 0 0 1 12.142 6.725 A 1.974 1.974 0 0 1 11.32 6.203 Q 10.714 5.568 10.714 4.504 Z M 46.283 4.504 L 46.283 4.355 A 3.17 3.17 0 0 1 46.359 3.646 A 2.581 2.581 0 0 1 46.553 3.092 A 2.191 2.191 0 0 1 47.001 2.466 A 2.033 2.033 0 0 1 47.309 2.221 Q 47.795 1.907 48.362 1.907 A 2.254 2.254 0 0 1 48.975 1.986 A 1.639 1.639 0 0 1 49.803 2.518 Q 50.317 3.129 50.317 4.267 L 50.317 4.605 L 47.096 4.605 A 2.111 2.111 0 0 0 47.167 5.114 A 1.516 1.516 0 0 0 47.507 5.741 A 1.282 1.282 0 0 0 48.441 6.173 A 1.652 1.652 0 0 0 48.507 6.174 A 1.763 1.763 0 0 0 48.835 6.145 Q 49.059 6.103 49.236 5.999 A 1.827 1.827 0 0 0 49.745 5.551 A 2.068 2.068 0 0 0 49.759 5.533 L 50.256 5.919 A 1.926 1.926 0 0 1 48.856 6.811 A 2.749 2.749 0 0 1 48.463 6.838 A 2.394 2.394 0 0 1 47.712 6.725 A 1.974 1.974 0 0 1 46.89 6.203 Q 46.283 5.568 46.283 4.504 Z M 74.896 4.504 L 74.896 4.355 A 3.17 3.17 0 0 1 74.972 3.646 A 2.581 2.581 0 0 1 75.166 3.092 A 2.191 2.191 0 0 1 75.614 2.466 A 2.033 2.033 0 0 1 75.922 2.221 Q 76.408 1.907 76.975 1.907 A 2.254 2.254 0 0 1 77.588 1.986 A 1.639 1.639 0 0 1 78.416 2.518 Q 78.93 3.129 78.93 4.267 L 78.93 4.605 L 75.709 4.605 A 2.111 2.111 0 0 0 75.78 5.114 A 1.516 1.516 0 0 0 76.12 5.741 A 1.282 1.282 0 0 0 77.054 6.173 A 1.652 1.652 0 0 0 77.12 6.174 A 1.763 1.763 0 0 0 77.448 6.145 Q 77.672 6.103 77.849 5.999 A 1.827 1.827 0 0 0 78.358 5.551 A 2.068 2.068 0 0 0 78.372 5.533 L 78.869 5.919 A 1.926 1.926 0 0 1 77.469 6.811 A 2.749 2.749 0 0 1 77.076 6.838 A 2.394 2.394 0 0 1 76.324 6.725 A 1.974 1.974 0 0 1 75.502 6.203 Q 74.896 5.568 74.896 4.504 Z M 111.261 0.352 L 111.261 6.06 L 114.293 6.06 L 114.293 6.75 L 110.413 6.75 L 110.413 0.352 L 111.261 0.352 Z M 101.298 0.352 L 101.298 4.601 L 102.186 4.601 L 102.186 5.265 L 101.298 5.265 L 101.298 6.75 L 100.481 6.75 L 100.481 5.265 L 97.567 5.265 L 97.567 4.786 L 100.433 0.352 L 101.298 0.352 Z M 1.771 6.75 L 0 6.75 L 0 0.352 L 1.806 0.352 Q 2.641 0.352 3.283 0.721 Q 3.924 1.09 4.274 1.771 A 3.19 3.19 0 0 1 4.591 2.8 A 4.073 4.073 0 0 1 4.627 3.335 L 4.627 3.744 Q 4.627 4.649 4.278 5.331 A 2.457 2.457 0 0 1 3.281 6.376 Q 2.632 6.741 1.771 6.75 Z M 106.697 2.592 A 1.544 1.544 0 0 0 106.8 2.021 A 2.226 2.226 0 0 0 106.779 1.707 A 1.566 1.566 0 0 0 106.28 0.738 A 1.754 1.754 0 0 0 105.514 0.333 A 2.443 2.443 0 0 0 104.915 0.264 A 2.539 2.539 0 0 0 104.406 0.312 A 1.767 1.767 0 0 0 103.548 0.738 Q 103.03 1.213 103.03 2.021 A 1.808 1.808 0 0 0 103.03 2.058 A 1.499 1.499 0 0 0 103.276 2.87 A 1.626 1.626 0 0 0 103.438 3.077 A 1.726 1.726 0 0 0 103.948 3.454 A 2.119 2.119 0 0 0 103.849 3.5 A 1.738 1.738 0 0 0 103.164 4.087 A 1.629 1.629 0 0 0 102.88 5.023 A 2.272 2.272 0 0 0 102.89 5.237 A 1.63 1.63 0 0 0 103.436 6.344 A 1.895 1.895 0 0 0 104.287 6.771 A 2.797 2.797 0 0 0 104.915 6.838 A 2.796 2.796 0 0 0 105.514 6.777 A 1.925 1.925 0 0 0 106.389 6.346 A 1.578 1.578 0 0 0 106.864 5.62 A 1.989 1.989 0 0 0 106.95 5.023 A 1.581 1.581 0 0 0 106.657 4.087 Q 106.365 3.674 105.864 3.458 Q 106.295 3.248 106.548 2.874 A 1.449 1.449 0 0 0 106.697 2.592 Z M 20.689 0.844 L 21.502 0.844 L 21.502 1.995 L 22.39 1.995 L 22.39 2.624 L 21.502 2.624 L 21.502 5.572 Q 21.502 5.858 21.621 6.001 Q 21.74 6.144 22.025 6.144 A 1.046 1.046 0 0 0 22.123 6.138 Q 22.226 6.129 22.365 6.101 A 4.024 4.024 0 0 0 22.412 6.091 L 22.412 6.75 A 2.463 2.463 0 0 1 21.979 6.829 A 2.157 2.157 0 0 1 21.788 6.838 Q 21.341 6.838 21.074 6.616 A 0.856 0.856 0 0 1 20.966 6.508 Q 20.739 6.238 20.698 5.78 A 2.351 2.351 0 0 1 20.689 5.572 L 20.689 2.624 L 19.824 2.624 L 19.824 1.995 L 20.689 1.995 L 20.689 0.844 Z M 56.259 0.844 L 57.072 0.844 L 57.072 1.995 L 57.959 1.995 L 57.959 2.624 L 57.072 2.624 L 57.072 5.572 Q 57.072 5.858 57.19 6.001 Q 57.309 6.144 57.595 6.144 A 1.046 1.046 0 0 0 57.692 6.138 Q 57.795 6.129 57.935 6.101 A 4.024 4.024 0 0 0 57.981 6.091 L 57.981 6.75 A 2.463 2.463 0 0 1 57.549 6.829 A 2.157 2.157 0 0 1 57.357 6.838 Q 56.91 6.838 56.644 6.616 A 0.856 0.856 0 0 1 56.536 6.508 Q 56.308 6.238 56.268 5.78 A 2.351 2.351 0 0 1 56.259 5.572 L 56.259 2.624 L 55.393 2.624 L 55.393 1.995 L 56.259 1.995 L 56.259 0.844 Z M 72.453 0.844 L 73.266 0.844 L 73.266 1.995 L 74.153 1.995 L 74.153 2.624 L 73.266 2.624 L 73.266 5.572 Q 73.266 5.858 73.384 6.001 Q 73.503 6.144 73.789 6.144 A 1.046 1.046 0 0 0 73.886 6.138 Q 73.989 6.129 74.129 6.101 A 4.024 4.024 0 0 0 74.175 6.091 L 74.175 6.75 A 2.463 2.463 0 0 1 73.743 6.829 A 2.157 2.157 0 0 1 73.551 6.838 Q 73.104 6.838 72.838 6.616 A 0.856 0.856 0 0 1 72.729 6.508 Q 72.502 6.238 72.461 5.78 A 2.351 2.351 0 0 1 72.453 5.572 L 72.453 2.624 L 71.587 2.624 L 71.587 1.995 L 72.453 1.995 L 72.453 0.844 Z M 127.608 0.844 L 128.421 0.844 L 128.421 1.995 L 129.309 1.995 L 129.309 2.624 L 128.421 2.624 L 128.421 5.572 Q 128.421 5.858 128.54 6.001 Q 128.659 6.144 128.944 6.144 A 1.046 1.046 0 0 0 129.042 6.138 Q 129.145 6.129 129.284 6.101 A 4.024 4.024 0 0 0 129.331 6.091 L 129.331 6.75 A 2.463 2.463 0 0 1 128.898 6.829 A 2.157 2.157 0 0 1 128.707 6.838 Q 128.26 6.838 127.993 6.616 A 0.856 0.856 0 0 1 127.885 6.508 Q 127.658 6.238 127.617 5.78 A 2.351 2.351 0 0 1 127.608 5.572 L 127.608 2.624 L 126.743 2.624 L 126.743 1.995 L 127.608 1.995 L 127.608 0.844 Z M 31.21 4.386 L 31.21 4.329 A 3.057 3.057 0 0 1 31.297 3.587 A 2.573 2.573 0 0 1 31.485 3.072 A 2.16 2.16 0 0 1 31.899 2.486 A 1.957 1.957 0 0 1 32.249 2.21 A 2.036 2.036 0 0 1 33.194 1.913 A 2.491 2.491 0 0 1 33.368 1.907 A 2.277 2.277 0 0 1 34.121 2.027 A 1.937 1.937 0 0 1 34.939 2.58 A 2.29 2.29 0 0 1 35.458 3.608 A 3.373 3.373 0 0 1 35.539 4.368 L 35.539 4.425 A 3.114 3.114 0 0 1 35.459 5.142 A 2.577 2.577 0 0 1 35.273 5.671 A 2.056 2.056 0 0 1 34.745 6.361 A 2.001 2.001 0 0 1 34.512 6.53 A 2.045 2.045 0 0 1 33.593 6.829 A 2.529 2.529 0 0 1 33.376 6.838 A 2.262 2.262 0 0 1 32.626 6.718 A 1.938 1.938 0 0 1 31.81 6.166 A 2.297 2.297 0 0 1 31.284 5.111 A 3.357 3.357 0 0 1 31.21 4.386 Z M 10.257 1.969 L 10.257 2.725 A 2.251 2.251 0 0 0 10.014 2.698 A 2.782 2.782 0 0 0 9.857 2.694 Q 9.079 2.694 8.788 3.338 A 1.445 1.445 0 0 0 8.771 3.375 L 8.771 6.75 L 7.958 6.75 L 7.958 1.995 L 8.75 1.995 L 8.763 2.544 Q 9.143 1.938 9.826 1.909 A 1.636 1.636 0 0 1 9.896 1.907 Q 10.134 1.907 10.257 1.969 Z M 1.828 1.046 L 0.844 1.046 L 0.844 6.06 L 1.731 6.06 A 2.519 2.519 0 0 0 2.364 5.985 A 1.747 1.747 0 0 0 3.25 5.454 Q 3.709 4.94 3.78 4.059 A 4.165 4.165 0 0 0 3.792 3.727 L 3.792 3.353 Q 3.792 2.562 3.523 2.027 A 1.864 1.864 0 0 0 3.281 1.659 A 1.687 1.687 0 0 0 2.285 1.09 A 2.499 2.499 0 0 0 1.828 1.046 Z M 6.658 1.995 L 6.658 6.75 L 5.845 6.75 L 5.845 1.995 L 6.658 1.995 Z M 116.011 1.995 L 116.011 6.75 L 115.198 6.75 L 115.198 1.995 L 116.011 1.995 Z M 32.027 4.425 A 2.772 2.772 0 0 0 32.075 4.954 Q 32.135 5.264 32.272 5.51 A 1.545 1.545 0 0 0 32.394 5.695 Q 32.761 6.174 33.376 6.174 A 1.269 1.269 0 0 0 33.866 6.083 Q 34.145 5.967 34.348 5.706 A 1.471 1.471 0 0 0 34.361 5.689 A 1.648 1.648 0 0 0 34.616 5.171 Q 34.684 4.945 34.71 4.672 A 3.655 3.655 0 0 0 34.726 4.329 A 2.687 2.687 0 0 0 34.674 3.789 Q 34.607 3.459 34.449 3.2 A 1.586 1.586 0 0 0 34.354 3.061 A 1.231 1.231 0 0 0 33.939 2.705 Q 33.686 2.575 33.368 2.575 Q 32.778 2.575 32.412 3.035 A 1.515 1.515 0 0 0 32.396 3.054 A 1.589 1.589 0 0 0 32.144 3.552 Q 32.075 3.772 32.047 4.039 A 3.676 3.676 0 0 0 32.027 4.425 Z M 120.318 5.449 L 120.318 3.278 A 1.439 1.439 0 0 0 120.017 2.891 Q 119.713 2.62 119.273 2.599 A 1.578 1.578 0 0 0 119.197 2.597 Q 118.605 2.597 118.272 3.056 A 1.51 1.51 0 0 0 118.061 3.484 Q 117.995 3.689 117.964 3.939 A 3.955 3.955 0 0 0 117.936 4.425 Q 117.936 5.229 118.266 5.689 Q 118.595 6.148 119.188 6.148 A 1.32 1.32 0 0 0 119.698 6.054 Q 120.09 5.891 120.318 5.449 Z M 100.384 1.639 L 98.49 4.601 L 100.481 4.601 L 100.481 1.463 L 100.384 1.639 Z M 106.137 5.005 A 1.375 1.375 0 0 0 106.077 4.592 A 1.109 1.109 0 0 0 105.796 4.131 A 1.148 1.148 0 0 0 105.125 3.807 A 1.593 1.593 0 0 0 104.906 3.792 A 1.466 1.466 0 0 0 104.518 3.841 A 1.086 1.086 0 0 0 104.025 4.126 A 1.123 1.123 0 0 0 103.712 4.762 A 1.572 1.572 0 0 0 103.693 5.005 A 1.48 1.48 0 0 0 103.735 5.367 A 1.019 1.019 0 0 0 104.016 5.862 Q 104.322 6.158 104.855 6.173 A 2.053 2.053 0 0 0 104.915 6.174 Q 105.409 6.174 105.719 5.94 A 1.018 1.018 0 0 0 105.812 5.86 A 1.041 1.041 0 0 0 106.111 5.292 A 1.518 1.518 0 0 0 106.137 5.005 Z M 104.915 0.932 A 1.259 1.259 0 0 0 104.562 0.979 A 0.973 0.973 0 0 0 104.139 1.228 Q 103.843 1.525 103.843 2.035 A 1.325 1.325 0 0 0 103.887 2.387 A 0.994 0.994 0 0 0 104.135 2.823 A 0.974 0.974 0 0 0 104.697 3.108 A 1.382 1.382 0 0 0 104.915 3.125 A 1.279 1.279 0 0 0 105.26 3.08 A 0.952 0.952 0 0 0 105.695 2.823 A 1.018 1.018 0 0 0 105.97 2.26 A 1.426 1.426 0 0 0 105.987 2.035 A 1.282 1.282 0 0 0 105.937 1.668 A 1.013 1.013 0 0 0 105.684 1.239 Q 105.381 0.932 104.915 0.932 Z M 70.075 5.418 L 70.075 4.443 L 69.438 4.443 Q 67.944 4.443 67.944 5.317 Q 67.944 5.7 68.199 5.915 A 0.893 0.893 0 0 0 68.612 6.108 A 1.259 1.259 0 0 0 68.854 6.13 A 1.429 1.429 0 0 0 69.579 5.933 A 1.335 1.335 0 0 0 69.874 5.705 A 1.108 1.108 0 0 0 70.075 5.418 Z M 89.442 5.418 L 89.442 4.443 L 88.805 4.443 Q 87.311 4.443 87.311 5.317 Q 87.311 5.7 87.565 5.915 A 0.893 0.893 0 0 0 87.979 6.108 A 1.259 1.259 0 0 0 88.22 6.13 A 1.429 1.429 0 0 0 88.945 5.933 A 1.335 1.335 0 0 0 89.241 5.705 A 1.108 1.108 0 0 0 89.442 5.418 Z M 11.553 3.938 L 13.935 3.938 L 13.935 3.876 Q 13.909 3.417 13.738 3.111 A 1.13 1.13 0 0 0 13.601 2.916 A 0.983 0.983 0 0 0 12.947 2.584 A 1.39 1.39 0 0 0 12.792 2.575 A 1.106 1.106 0 0 0 12.27 2.698 A 1.14 1.14 0 0 0 11.966 2.933 A 1.417 1.417 0 0 0 11.69 3.379 Q 11.616 3.563 11.576 3.785 A 2.741 2.741 0 0 0 11.553 3.938 Z M 47.123 3.938 L 49.504 3.938 L 49.504 3.876 Q 49.478 3.417 49.308 3.111 A 1.13 1.13 0 0 0 49.17 2.916 A 0.983 0.983 0 0 0 48.516 2.584 A 1.39 1.39 0 0 0 48.362 2.575 A 1.106 1.106 0 0 0 47.839 2.698 A 1.14 1.14 0 0 0 47.536 2.933 A 1.417 1.417 0 0 0 47.259 3.379 Q 47.185 3.563 47.145 3.785 A 2.741 2.741 0 0 0 47.123 3.938 Z M 75.735 3.938 L 78.117 3.938 L 78.117 3.876 Q 78.091 3.417 77.92 3.111 A 1.13 1.13 0 0 0 77.783 2.916 A 0.983 0.983 0 0 0 77.129 2.584 A 1.39 1.39 0 0 0 76.975 2.575 A 1.106 1.106 0 0 0 76.452 2.698 A 1.14 1.14 0 0 0 76.148 2.933 A 1.417 1.417 0 0 0 75.872 3.379 Q 75.798 3.563 75.758 3.785 A 2.741 2.741 0 0 0 75.735 3.938 Z M 5.779 0.734 Q 5.779 0.536 5.9 0.4 Q 6.012 0.274 6.223 0.264 A 0.783 0.783 0 0 1 6.258 0.264 Q 6.495 0.264 6.618 0.4 A 0.474 0.474 0 0 1 6.74 0.703 A 0.614 0.614 0 0 1 6.741 0.734 A 0.523 0.523 0 0 1 6.716 0.9 A 0.442 0.442 0 0 1 6.618 1.063 Q 6.506 1.184 6.298 1.194 A 0.803 0.803 0 0 1 6.258 1.195 Q 6.086 1.195 5.975 1.126 A 0.362 0.362 0 0 1 5.9 1.063 A 0.456 0.456 0 0 1 5.781 0.788 A 0.605 0.605 0 0 1 5.779 0.734 Z M 115.132 0.734 Q 115.132 0.536 115.253 0.4 Q 115.365 0.274 115.577 0.264 A 0.783 0.783 0 0 1 115.611 0.264 Q 115.849 0.264 115.972 0.4 A 0.474 0.474 0 0 1 116.094 0.703 A 0.614 0.614 0 0 1 116.095 0.734 A 0.523 0.523 0 0 1 116.069 0.9 A 0.442 0.442 0 0 1 115.972 1.063 Q 115.859 1.184 115.651 1.194 A 0.803 0.803 0 0 1 115.611 1.195 Q 115.439 1.195 115.328 1.126 A 0.362 0.362 0 0 1 115.253 1.063 A 0.456 0.456 0 0 1 115.135 0.788 A 0.605 0.605 0 0 1 115.132 0.734 Z" vector-effect="non-scaling-stroke"/></g>
</svg>