<?xml version="1.0" encoding="UTF-8"?>
<svg width="48px" height="48px" viewBox="0 0 48 48" version="1.1" xmlns="http://www.w3.org/2000/svg" xmlns:xlink="http://www.w3.org/1999/xlink">
    <title>Icon-Resource/Networking-and-Content-Delivery/Res_AWS-Amazon-VPC_Network-Access-Control-List_48_Light</title>
    <g id="Icon-Resource/Networking-and-Content-Delivery/Res_AWS-Amazon-VPC_Network-Access-Control-List_48" stroke="none" stroke-width="1" fill="none" fill-rule="evenodd">
        <path transform="translate(0vw, 0vh), scale(.65)" d="M32.625,35.376 L34.625,35.376 L34.625,12.625 L32.625,12.625 L32.625,35.376 Z M13.375,35.376 L15.375,35.376 L15.375,12.625 L13.375,12.625 L13.375,35.376 Z M39.625,25.486 L37.843,24.001 L39.625,22.515 L39.625,25.486 Z M41.049,19.475 C40.701,19.311 40.284,19.363 39.984,19.611 L35.64,23.232 C35.412,23.423 35.28,23.704 35.28,24.001 C35.28,24.298 35.412,24.579 35.64,24.77 L39.985,28.39 C40.168,28.542 40.396,28.621 40.625,28.621 C40.77,28.621 40.914,28.59 41.049,28.526 C41.4,28.362 41.625,28.009 41.625,27.621 L41.625,20.38 C41.625,19.992 41.4,19.639 41.049,19.475 L41.049,19.475 Z M8.375,25.486 L8.375,22.515 L10.157,24.001 L8.375,25.486 Z M8.016,19.611 C7.717,19.364 7.302,19.31 6.951,19.475 C6.6,19.639 6.375,19.992 6.375,20.38 L6.375,27.621 C6.375,28.009 6.6,28.362 6.951,28.526 C7.086,28.59 7.231,28.621 7.375,28.621 C7.605,28.621 7.832,28.542 8.015,28.39 L12.36,24.77 C12.588,24.579 12.72,24.298 12.72,24.001 C12.72,23.704 12.588,23.423 12.36,23.232 L8.016,19.611 Z M24,44.001 C12.972,44.001 4,35.029 4,24.001 C4,12.973 12.972,4 24,4 C35.028,4 44,12.973 44,24.001 C44,35.029 35.028,44.001 24,44.001 L24,44.001 Z M24,2 C11.869,2 2,11.869 2,24.001 C2,36.132 11.869,46.001 24,46.001 C36.131,46.001 46,36.132 46,24.001 C46,11.869 36.131,2 24,2 L24,2 Z M28.246,29.126 L19.75,29.121 L19.752,22.376 L28.25,22.38 L28.246,29.126 Z M22.379,19.051 C22.381,18.499 22.566,17.987 22.902,17.608 C23.206,17.268 23.598,17.079 24.007,17.079 L24.012,17.079 C24.901,17.082 25.622,17.977 25.6190093,19.076 L25.618,20.379 L22.373,20.377 L22.379,19.051 Z M29.25,20.38 L27.618,20.379 L27.619,19.079 C27.626,16.88 26.01,15.086 24.018,15.079 L24.007,15.079 C23.018,15.079 22.095,15.506 21.406,16.281 C20.747,17.024 20.382,18.006 20.379,19.043 L20.373,20.377 L18.752,20.376 C18.487,20.376 18.232,20.481 18.045,20.669 C17.857,20.856 17.752,21.11 17.752,21.376 L17.75,30.121 C17.75,30.673 18.197,31.121 18.75,31.121 L29.246,31.126 C29.511,31.126 29.766,31.021 29.953,30.833 C30.141,30.646 30.246,30.392 30.246,30.126 L30.25,21.38 C30.25,21.115 30.145,20.86 29.957,20.673 C29.77,20.485 29.516,20.38 29.25,20.38 L29.25,20.38 Z" id="AWS-Amazon-VPC_Network-access-control-list_Resource-Icon_light-bg" fill="#000000"></path>
    </g><g transform="translate(12vw, 80vh)" id="svgGroup" stroke-linecap="round" fill-rule="evenodd" font-size="9pt" stroke="#000" stroke-width="0.25mm" fill="#000" style="stroke:#000;stroke-width:0.25mm;fill:#000"><path d="M 25.027 0.352 L 25.027 6.75 L 24.179 6.75 L 20.958 1.819 L 20.958 6.75 L 20.109 6.75 L 20.109 0.352 L 20.958 0.352 L 24.188 5.304 L 24.188 0.352 L 25.027 0.352 Z M 37.187 1.995 L 38.316 5.629 L 39.23 1.995 L 40.043 1.995 L 38.659 6.75 L 38 6.75 L 36.844 3.146 L 35.719 6.75 L 35.06 6.75 L 33.68 1.995 L 34.488 1.995 L 35.424 5.555 L 36.532 1.995 L 37.187 1.995 Z M 15.882 4.72 L 16.73 4.72 A 3.016 3.016 0 0 1 16.569 5.416 A 2.099 2.099 0 0 1 15.981 6.286 Q 15.35 6.838 14.304 6.838 A 2.553 2.553 0 0 1 13.435 6.696 A 2.194 2.194 0 0 1 12.487 6.025 A 2.789 2.789 0 0 1 11.925 4.901 Q 11.819 4.484 11.806 3.992 A 5.262 5.262 0 0 1 11.804 3.85 L 11.804 3.234 A 4.251 4.251 0 0 1 11.874 2.445 A 3.229 3.229 0 0 1 12.122 1.666 A 2.539 2.539 0 0 1 12.578 0.99 A 2.26 2.26 0 0 1 13.025 0.626 A 2.415 2.415 0 0 1 14.051 0.281 A 3.027 3.027 0 0 1 14.379 0.264 A 2.962 2.962 0 0 1 15.085 0.343 A 2.065 2.065 0 0 1 16.014 0.833 A 2.16 2.16 0 0 1 16.608 1.795 A 3.086 3.086 0 0 1 16.73 2.408 L 15.882 2.408 Q 15.813 1.929 15.643 1.616 A 1.223 1.223 0 0 0 15.405 1.301 A 1.207 1.207 0 0 0 14.9 1.024 Q 14.713 0.971 14.489 0.961 A 2.396 2.396 0 0 0 14.379 0.958 A 1.753 1.753 0 0 0 13.801 1.049 A 1.463 1.463 0 0 0 13.111 1.556 A 1.989 1.989 0 0 0 12.797 2.175 Q 12.652 2.636 12.652 3.256 L 12.652 3.876 Q 12.652 4.917 13.087 5.533 A 1.38 1.38 0 0 0 14.085 6.135 A 1.814 1.814 0 0 0 14.304 6.148 A 2.497 2.497 0 0 0 14.712 6.117 Q 14.931 6.08 15.107 6.002 A 1.155 1.155 0 0 0 15.383 5.829 Q 15.759 5.511 15.882 4.72 Z M 52.031 6.75 L 50.375 4.548 L 49.865 5.08 L 49.865 6.75 L 49.052 6.75 L 49.052 0 L 49.865 0 L 49.865 4.083 L 50.3 3.56 L 51.781 1.995 L 52.77 1.995 L 50.919 3.981 L 52.985 6.75 L 52.031 6.75 Z M 0.918 0.352 L 2.738 5.629 L 4.566 0.352 L 5.489 0.352 L 3.116 6.75 L 2.369 6.75 L 0 0.352 L 0.918 0.352 Z M 26.191 4.504 L 26.191 4.355 A 3.17 3.17 0 0 1 26.268 3.646 A 2.581 2.581 0 0 1 26.462 3.092 A 2.191 2.191 0 0 1 26.909 2.466 A 2.033 2.033 0 0 1 27.218 2.221 Q 27.703 1.907 28.27 1.907 A 2.254 2.254 0 0 1 28.883 1.986 A 1.639 1.639 0 0 1 29.711 2.518 Q 30.226 3.129 30.226 4.267 L 30.226 4.605 L 27.004 4.605 A 2.111 2.111 0 0 0 27.075 5.114 A 1.516 1.516 0 0 0 27.415 5.741 A 1.282 1.282 0 0 0 28.349 6.173 A 1.652 1.652 0 0 0 28.415 6.174 A 1.763 1.763 0 0 0 28.743 6.145 Q 28.967 6.103 29.145 5.999 A 1.827 1.827 0 0 0 29.653 5.551 A 2.068 2.068 0 0 0 29.667 5.533 L 30.164 5.919 A 1.926 1.926 0 0 1 28.764 6.811 A 2.749 2.749 0 0 1 28.371 6.838 A 2.394 2.394 0 0 1 27.62 6.725 A 1.974 1.974 0 0 1 26.798 6.203 Q 26.191 5.568 26.191 4.504 Z M 8.697 4.245 L 7.189 4.245 L 7.189 6.75 L 6.346 6.75 L 6.346 0.352 L 8.706 0.352 A 3.315 3.315 0 0 1 9.37 0.414 Q 9.773 0.497 10.084 0.688 A 1.839 1.839 0 0 1 10.351 0.888 A 1.772 1.772 0 0 1 10.939 2.105 A 2.45 2.45 0 0 1 10.947 2.307 Q 10.947 3.239 10.365 3.742 Q 9.886 4.156 9.066 4.229 A 4.14 4.14 0 0 1 8.697 4.245 Z M 31.456 0.844 L 32.269 0.844 L 32.269 1.995 L 33.157 1.995 L 33.157 2.624 L 32.269 2.624 L 32.269 5.572 Q 32.269 5.858 32.388 6.001 Q 32.506 6.144 32.792 6.144 A 1.046 1.046 0 0 0 32.89 6.138 Q 32.992 6.129 33.132 6.101 A 4.024 4.024 0 0 0 33.179 6.091 L 33.179 6.75 A 2.463 2.463 0 0 1 32.746 6.829 A 2.157 2.157 0 0 1 32.555 6.838 Q 32.108 6.838 31.841 6.616 A 0.856 0.856 0 0 1 31.733 6.508 Q 31.505 6.238 31.465 5.78 A 2.351 2.351 0 0 1 31.456 5.572 L 31.456 2.624 L 30.59 2.624 L 30.59 1.995 L 31.456 1.995 L 31.456 0.844 Z M 40.654 4.386 L 40.654 4.329 A 3.057 3.057 0 0 1 40.741 3.587 A 2.573 2.573 0 0 1 40.928 3.072 A 2.16 2.16 0 0 1 41.343 2.486 A 1.957 1.957 0 0 1 41.693 2.21 A 2.036 2.036 0 0 1 42.638 1.913 A 2.491 2.491 0 0 1 42.812 1.907 A 2.277 2.277 0 0 1 43.565 2.027 A 1.937 1.937 0 0 1 44.383 2.58 A 2.29 2.29 0 0 1 44.902 3.608 A 3.373 3.373 0 0 1 44.982 4.368 L 44.982 4.425 A 3.114 3.114 0 0 1 44.903 5.142 A 2.577 2.577 0 0 1 44.717 5.671 A 2.056 2.056 0 0 1 44.189 6.361 A 2.001 2.001 0 0 1 43.956 6.53 A 2.045 2.045 0 0 1 43.037 6.829 A 2.529 2.529 0 0 1 42.82 6.838 A 2.262 2.262 0 0 1 42.07 6.718 A 1.938 1.938 0 0 1 41.254 6.166 A 2.297 2.297 0 0 1 40.728 5.111 A 3.357 3.357 0 0 1 40.654 4.386 Z M 48.3 1.969 L 48.3 2.725 A 2.251 2.251 0 0 0 48.058 2.698 A 2.782 2.782 0 0 0 47.9 2.694 Q 47.123 2.694 46.831 3.338 A 1.445 1.445 0 0 0 46.815 3.375 L 46.815 6.75 L 46.002 6.75 L 46.002 1.995 L 46.793 1.995 L 46.806 2.544 Q 47.187 1.938 47.869 1.909 A 1.636 1.636 0 0 1 47.94 1.907 Q 48.177 1.907 48.3 1.969 Z M 41.471 4.425 A 2.772 2.772 0 0 0 41.519 4.954 Q 41.579 5.264 41.716 5.51 A 1.545 1.545 0 0 0 41.838 5.695 Q 42.205 6.174 42.82 6.174 A 1.269 1.269 0 0 0 43.31 6.083 Q 43.589 5.967 43.792 5.706 A 1.471 1.471 0 0 0 43.805 5.689 A 1.648 1.648 0 0 0 44.06 5.171 Q 44.128 4.945 44.154 4.672 A 3.655 3.655 0 0 0 44.169 4.329 A 2.687 2.687 0 0 0 44.118 3.789 Q 44.051 3.459 43.893 3.2 A 1.586 1.586 0 0 0 43.798 3.061 A 1.231 1.231 0 0 0 43.383 2.705 Q 43.13 2.575 42.812 2.575 Q 42.222 2.575 41.855 3.035 A 1.515 1.515 0 0 0 41.84 3.054 A 1.589 1.589 0 0 0 41.588 3.552 Q 41.519 3.772 41.491 4.039 A 3.676 3.676 0 0 0 41.471 4.425 Z M 7.189 1.046 L 7.189 3.555 L 8.706 3.555 A 2.313 2.313 0 0 0 9.098 3.524 Q 9.315 3.487 9.487 3.404 A 1.097 1.097 0 0 0 9.743 3.237 A 1.028 1.028 0 0 0 10.06 2.696 Q 10.102 2.528 10.103 2.329 A 1.996 1.996 0 0 0 10.103 2.316 A 1.466 1.466 0 0 0 10.049 1.908 A 1.112 1.112 0 0 0 9.743 1.402 Q 9.382 1.059 8.754 1.046 L 7.189 1.046 Z M 27.031 3.938 L 29.413 3.938 L 29.413 3.876 Q 29.387 3.417 29.216 3.111 A 1.13 1.13 0 0 0 29.079 2.916 A 0.983 0.983 0 0 0 28.424 2.584 A 1.39 1.39 0 0 0 28.27 2.575 A 1.106 1.106 0 0 0 27.748 2.698 A 1.14 1.14 0 0 0 27.444 2.933 A 1.417 1.417 0 0 0 27.167 3.379 Q 27.094 3.563 27.054 3.785 A 2.741 2.741 0 0 0 27.031 3.938 Z" vector-effect="non-scaling-stroke"/></g><g transform="translate(12vw, 90vh)" id="svgGroup" stroke-linecap="round" fill-rule="evenodd" font-size="9pt" stroke="#000" stroke-width="0.25mm" fill="#000" style="stroke:#000;stroke-width:0.25mm;fill:#000"><path d="M 36.048 4.72 L 36.896 4.72 A 3.016 3.016 0 0 1 36.736 5.416 A 2.099 2.099 0 0 1 36.147 6.286 Q 35.517 6.838 34.471 6.838 A 2.553 2.553 0 0 1 33.602 6.696 A 2.194 2.194 0 0 1 32.654 6.025 A 2.789 2.789 0 0 1 32.092 4.901 Q 31.985 4.484 31.972 3.992 A 5.262 5.262 0 0 1 31.97 3.85 L 31.97 3.234 A 4.251 4.251 0 0 1 32.04 2.445 A 3.229 3.229 0 0 1 32.289 1.666 A 2.539 2.539 0 0 1 32.744 0.99 A 2.26 2.26 0 0 1 33.192 0.626 A 2.415 2.415 0 0 1 34.218 0.281 A 3.027 3.027 0 0 1 34.545 0.264 A 2.962 2.962 0 0 1 35.252 0.343 A 2.065 2.065 0 0 1 36.18 0.833 A 2.16 2.16 0 0 1 36.775 1.795 A 3.086 3.086 0 0 1 36.896 2.408 L 36.048 2.408 Q 35.98 1.929 35.81 1.616 A 1.223 1.223 0 0 0 35.572 1.301 A 1.207 1.207 0 0 0 35.066 1.024 Q 34.879 0.971 34.656 0.961 A 2.396 2.396 0 0 0 34.545 0.958 A 1.753 1.753 0 0 0 33.967 1.049 A 1.463 1.463 0 0 0 33.278 1.556 A 1.989 1.989 0 0 0 32.964 2.175 Q 32.818 2.636 32.818 3.256 L 32.818 3.876 Q 32.818 4.917 33.253 5.533 A 1.38 1.38 0 0 0 34.252 6.135 A 1.814 1.814 0 0 0 34.471 6.148 A 2.497 2.497 0 0 0 34.878 6.117 Q 35.098 6.08 35.273 6.002 A 1.155 1.155 0 0 0 35.55 5.829 Q 35.925 5.511 36.048 4.72 Z M 105.521 0 L 105.521 2.571 A 1.767 1.767 0 0 1 106.188 2.053 A 1.832 1.832 0 0 1 106.928 1.907 A 1.905 1.905 0 0 1 107.561 2.004 Q 108.403 2.3 108.446 3.506 A 3.668 3.668 0 0 1 108.448 3.608 L 108.448 6.75 L 107.635 6.75 L 107.635 3.604 A 1.837 1.837 0 0 0 107.613 3.324 Q 107.563 3.017 107.4 2.843 Q 107.214 2.645 106.861 2.606 A 1.66 1.66 0 0 0 106.682 2.597 A 1.253 1.253 0 0 0 106.267 2.664 A 1.123 1.123 0 0 0 105.987 2.808 A 1.432 1.432 0 0 0 105.521 3.362 L 105.521 6.75 L 104.708 6.75 L 104.708 0 L 105.521 0 Z M 102.7 2.522 L 102.74 1.995 L 103.482 1.995 L 103.482 6.636 A 2.511 2.511 0 0 1 103.412 7.249 A 1.738 1.738 0 0 1 102.935 8.09 A 1.834 1.834 0 0 1 102.005 8.57 A 2.671 2.671 0 0 1 101.465 8.622 A 2.446 2.446 0 0 1 100.459 8.402 A 2.003 2.003 0 0 1 100.049 8.161 A 1.563 1.563 0 0 1 99.708 7.8 L 100.129 7.313 A 1.889 1.889 0 0 0 100.564 7.712 A 1.514 1.514 0 0 0 101.408 7.958 A 1.695 1.695 0 0 0 101.785 7.919 Q 102.054 7.858 102.248 7.702 A 1.037 1.037 0 0 0 102.333 7.625 A 1.09 1.09 0 0 0 102.61 7.132 Q 102.657 6.959 102.664 6.752 A 2.134 2.134 0 0 0 102.665 6.684 L 102.665 6.275 A 1.601 1.601 0 0 1 101.613 6.821 A 2.279 2.279 0 0 1 101.333 6.838 A 1.672 1.672 0 0 1 100.578 6.67 Q 100.256 6.51 100.007 6.197 A 2.14 2.14 0 0 1 99.982 6.166 A 2.316 2.316 0 0 1 99.599 5.386 Q 99.466 4.922 99.466 4.333 Q 99.466 3.472 99.774 2.884 A 2.096 2.096 0 0 1 99.98 2.564 Q 100.494 1.907 101.342 1.907 A 1.971 1.971 0 0 1 101.941 1.994 A 1.55 1.55 0 0 1 102.7 2.522 Z M 24.091 3.393 L 23.273 3.393 Q 23.273 3.059 22.99 2.817 Q 22.707 2.575 22.276 2.575 Q 21.832 2.575 21.582 2.769 A 0.653 0.653 0 0 0 21.407 2.967 Q 21.333 3.098 21.331 3.263 A 0.771 0.771 0 0 0 21.331 3.274 A 0.588 0.588 0 0 0 21.361 3.467 A 0.48 0.48 0 0 0 21.564 3.718 A 1.093 1.093 0 0 0 21.714 3.796 Q 21.878 3.868 22.134 3.937 A 6.581 6.581 0 0 0 22.406 4.003 A 6.318 6.318 0 0 1 22.813 4.108 Q 23.15 4.208 23.392 4.329 A 1.901 1.901 0 0 1 23.648 4.481 Q 23.785 4.579 23.882 4.692 A 1.06 1.06 0 0 1 23.952 4.783 A 1.024 1.024 0 0 1 24.115 5.191 A 1.388 1.388 0 0 1 24.135 5.432 Q 24.135 6.069 23.625 6.453 Q 23.143 6.817 22.389 6.837 A 3.337 3.337 0 0 1 22.302 6.838 A 2.746 2.746 0 0 1 21.768 6.788 A 2.124 2.124 0 0 1 21.292 6.636 A 1.771 1.771 0 0 1 20.858 6.358 A 1.54 1.54 0 0 1 20.604 6.071 Q 20.355 5.708 20.355 5.287 L 21.168 5.287 A 0.932 0.932 0 0 0 21.242 5.612 A 0.827 0.827 0 0 0 21.496 5.935 A 1.072 1.072 0 0 0 21.898 6.128 Q 22.053 6.167 22.234 6.173 A 2.013 2.013 0 0 0 22.302 6.174 A 1.863 1.863 0 0 0 22.598 6.152 Q 22.759 6.126 22.891 6.07 A 0.941 0.941 0 0 0 23.043 5.988 A 0.689 0.689 0 0 0 23.207 5.837 A 0.554 0.554 0 0 0 23.322 5.489 A 0.698 0.698 0 0 0 23.285 5.258 A 0.581 0.581 0 0 0 23.073 4.977 A 1.05 1.05 0 0 0 22.905 4.878 Q 22.716 4.788 22.421 4.712 A 5.392 5.392 0 0 0 22.208 4.663 A 6.342 6.342 0 0 1 21.847 4.575 Q 21.477 4.473 21.228 4.346 Q 20.929 4.194 20.759 3.994 A 1.017 1.017 0 0 1 20.692 3.907 Q 20.518 3.652 20.518 3.3 A 1.206 1.206 0 0 1 20.917 2.396 A 1.694 1.694 0 0 1 21.012 2.312 A 1.752 1.752 0 0 1 21.795 1.952 A 2.471 2.471 0 0 1 22.276 1.907 A 2.559 2.559 0 0 1 22.839 1.966 A 1.757 1.757 0 0 1 23.588 2.325 Q 24.091 2.742 24.091 3.393 Z M 28.731 3.393 L 27.914 3.393 Q 27.914 3.059 27.631 2.817 Q 27.347 2.575 26.917 2.575 Q 26.473 2.575 26.222 2.769 A 0.653 0.653 0 0 0 26.047 2.967 Q 25.974 3.098 25.972 3.263 A 0.771 0.771 0 0 0 25.972 3.274 A 0.588 0.588 0 0 0 26.002 3.467 A 0.48 0.48 0 0 0 26.205 3.718 A 1.093 1.093 0 0 0 26.355 3.796 Q 26.519 3.868 26.775 3.937 A 6.581 6.581 0 0 0 27.046 4.003 A 6.318 6.318 0 0 1 27.454 4.108 Q 27.791 4.208 28.033 4.329 A 1.901 1.901 0 0 1 28.289 4.481 Q 28.425 4.579 28.523 4.692 A 1.06 1.06 0 0 1 28.593 4.783 A 1.024 1.024 0 0 1 28.755 5.191 A 1.388 1.388 0 0 1 28.775 5.432 Q 28.775 6.069 28.266 6.453 Q 27.783 6.817 27.029 6.837 A 3.337 3.337 0 0 1 26.943 6.838 A 2.746 2.746 0 0 1 26.408 6.788 A 2.124 2.124 0 0 1 25.932 6.636 A 1.771 1.771 0 0 1 25.498 6.358 A 1.54 1.54 0 0 1 25.244 6.071 Q 24.996 5.708 24.996 5.287 L 25.809 5.287 A 0.932 0.932 0 0 0 25.883 5.612 A 0.827 0.827 0 0 0 26.136 5.935 A 1.072 1.072 0 0 0 26.539 6.128 Q 26.693 6.167 26.875 6.173 A 2.013 2.013 0 0 0 26.943 6.174 A 1.863 1.863 0 0 0 27.239 6.152 Q 27.4 6.126 27.532 6.07 A 0.941 0.941 0 0 0 27.683 5.988 A 0.689 0.689 0 0 0 27.848 5.837 A 0.554 0.554 0 0 0 27.962 5.489 A 0.698 0.698 0 0 0 27.926 5.258 A 0.581 0.581 0 0 0 27.714 4.977 A 1.05 1.05 0 0 0 27.545 4.878 Q 27.356 4.788 27.061 4.712 A 5.392 5.392 0 0 0 26.848 4.663 A 6.342 6.342 0 0 1 26.487 4.575 Q 26.118 4.473 25.868 4.346 Q 25.57 4.194 25.399 3.994 A 1.017 1.017 0 0 1 25.332 3.907 Q 25.159 3.652 25.159 3.3 A 1.206 1.206 0 0 1 25.558 2.396 A 1.694 1.694 0 0 1 25.653 2.312 A 1.752 1.752 0 0 1 26.436 1.952 A 2.471 2.471 0 0 1 26.917 1.907 A 2.559 2.559 0 0 1 27.48 1.966 A 1.757 1.757 0 0 1 28.228 2.325 Q 28.731 2.742 28.731 3.393 Z M 74.026 3.393 L 73.208 3.393 Q 73.208 3.059 72.925 2.817 Q 72.642 2.575 72.211 2.575 Q 71.767 2.575 71.517 2.769 A 0.653 0.653 0 0 0 71.342 2.967 Q 71.268 3.098 71.266 3.263 A 0.771 0.771 0 0 0 71.266 3.274 A 0.588 0.588 0 0 0 71.296 3.467 A 0.48 0.48 0 0 0 71.499 3.718 A 1.093 1.093 0 0 0 71.649 3.796 Q 71.813 3.868 72.069 3.937 A 6.581 6.581 0 0 0 72.341 4.003 A 6.318 6.318 0 0 1 72.748 4.108 Q 73.085 4.208 73.327 4.329 A 1.901 1.901 0 0 1 73.583 4.481 Q 73.72 4.579 73.817 4.692 A 1.06 1.06 0 0 1 73.887 4.783 A 1.024 1.024 0 0 1 74.05 5.191 A 1.388 1.388 0 0 1 74.07 5.432 Q 74.07 6.069 73.56 6.453 Q 73.078 6.817 72.324 6.837 A 3.337 3.337 0 0 1 72.237 6.838 A 2.746 2.746 0 0 1 71.703 6.788 A 2.124 2.124 0 0 1 71.227 6.636 A 1.771 1.771 0 0 1 70.793 6.358 A 1.54 1.54 0 0 1 70.539 6.071 Q 70.291 5.708 70.291 5.287 L 71.104 5.287 A 0.932 0.932 0 0 0 71.177 5.612 A 0.827 0.827 0 0 0 71.431 5.935 A 1.072 1.072 0 0 0 71.833 6.128 Q 71.988 6.167 72.169 6.173 A 2.013 2.013 0 0 0 72.237 6.174 A 1.863 1.863 0 0 0 72.533 6.152 Q 72.694 6.126 72.826 6.07 A 0.941 0.941 0 0 0 72.978 5.988 A 0.689 0.689 0 0 0 73.142 5.837 A 0.554 0.554 0 0 0 73.257 5.489 A 0.698 0.698 0 0 0 73.22 5.258 A 0.581 0.581 0 0 0 73.009 4.977 A 1.05 1.05 0 0 0 72.84 4.878 Q 72.651 4.788 72.356 4.712 A 5.392 5.392 0 0 0 72.143 4.663 A 6.342 6.342 0 0 1 71.782 4.575 Q 71.412 4.473 71.163 4.346 Q 70.864 4.194 70.694 3.994 A 1.017 1.017 0 0 1 70.627 3.907 Q 70.453 3.652 70.453 3.3 A 1.206 1.206 0 0 1 70.852 2.396 A 1.694 1.694 0 0 1 70.948 2.312 A 1.752 1.752 0 0 1 71.731 1.952 A 2.471 2.471 0 0 1 72.211 1.907 A 2.559 2.559 0 0 1 72.774 1.966 A 1.757 1.757 0 0 1 73.523 2.325 Q 74.026 2.742 74.026 3.393 Z M 43.053 1.995 L 43.822 1.995 L 43.849 2.593 Q 44.385 1.918 45.245 1.907 A 2.234 2.234 0 0 1 45.272 1.907 A 1.905 1.905 0 0 1 45.906 2.004 Q 46.748 2.3 46.791 3.506 A 3.668 3.668 0 0 1 46.793 3.608 L 46.793 6.75 L 45.98 6.75 L 45.98 3.604 A 1.837 1.837 0 0 0 45.958 3.324 Q 45.908 3.017 45.745 2.843 Q 45.559 2.645 45.205 2.606 A 1.66 1.66 0 0 0 45.026 2.597 A 1.253 1.253 0 0 0 44.612 2.664 A 1.123 1.123 0 0 0 44.332 2.808 A 1.432 1.432 0 0 0 43.866 3.362 L 43.866 6.75 L 43.053 6.75 L 43.053 1.995 Z M 9.391 5.251 L 10.16 5.251 A 1.432 1.432 0 0 1 9.961 5.901 A 1.772 1.772 0 0 1 9.879 6.029 A 1.828 1.828 0 0 1 9.27 6.574 A 2.169 2.169 0 0 1 9.187 6.618 A 1.997 1.997 0 0 1 8.271 6.838 A 2.346 2.346 0 0 1 7.573 6.739 A 1.839 1.839 0 0 1 6.726 6.19 A 2.171 2.171 0 0 1 6.262 5.31 Q 6.152 4.909 6.152 4.417 L 6.152 4.28 A 3.24 3.24 0 0 1 6.216 3.624 A 2.57 2.57 0 0 1 6.407 3.045 A 2.008 2.008 0 0 1 6.847 2.431 A 1.892 1.892 0 0 1 7.139 2.206 A 1.943 1.943 0 0 1 7.895 1.934 A 2.529 2.529 0 0 1 8.266 1.907 A 2.196 2.196 0 0 1 8.914 1.999 A 1.786 1.786 0 0 1 9.595 2.386 A 1.693 1.693 0 0 1 10.154 3.535 A 2.239 2.239 0 0 1 10.16 3.63 L 9.391 3.63 Q 9.356 3.168 9.042 2.872 A 1.078 1.078 0 0 0 8.313 2.576 A 1.402 1.402 0 0 0 8.266 2.575 A 1.374 1.374 0 0 0 7.845 2.637 A 1.081 1.081 0 0 0 7.306 3.021 A 1.469 1.469 0 0 0 7.079 3.468 Q 7.013 3.674 6.986 3.923 A 3.514 3.514 0 0 0 6.965 4.311 L 6.965 4.465 Q 6.965 5.287 7.304 5.73 A 1.1 1.1 0 0 0 8.09 6.165 A 1.611 1.611 0 0 0 8.271 6.174 A 1.171 1.171 0 0 0 9.031 5.911 A 1.007 1.007 0 0 0 9.275 5.629 A 0.914 0.914 0 0 0 9.391 5.251 Z M 14.102 5.251 L 14.871 5.251 A 1.432 1.432 0 0 1 14.672 5.901 A 1.772 1.772 0 0 1 14.59 6.029 A 1.828 1.828 0 0 1 13.981 6.574 A 2.169 2.169 0 0 1 13.898 6.618 A 1.997 1.997 0 0 1 12.981 6.838 A 2.346 2.346 0 0 1 12.284 6.739 A 1.839 1.839 0 0 1 11.437 6.19 A 2.171 2.171 0 0 1 10.973 5.31 Q 10.863 4.909 10.863 4.417 L 10.863 4.28 A 3.24 3.24 0 0 1 10.927 3.624 A 2.57 2.57 0 0 1 11.118 3.045 A 2.008 2.008 0 0 1 11.558 2.431 A 1.892 1.892 0 0 1 11.85 2.206 A 1.943 1.943 0 0 1 12.606 1.934 A 2.529 2.529 0 0 1 12.977 1.907 A 2.196 2.196 0 0 1 13.625 1.999 A 1.786 1.786 0 0 1 14.306 2.386 A 1.693 1.693 0 0 1 14.865 3.535 A 2.239 2.239 0 0 1 14.871 3.63 L 14.102 3.63 Q 14.067 3.168 13.753 2.872 A 1.078 1.078 0 0 0 13.024 2.576 A 1.402 1.402 0 0 0 12.977 2.575 A 1.374 1.374 0 0 0 12.556 2.637 A 1.081 1.081 0 0 0 12.017 3.021 A 1.469 1.469 0 0 0 11.79 3.468 Q 11.724 3.674 11.697 3.923 A 3.514 3.514 0 0 0 11.676 4.311 L 11.676 4.465 Q 11.676 5.287 12.015 5.73 A 1.1 1.1 0 0 0 12.801 6.165 A 1.611 1.611 0 0 0 12.981 6.174 A 1.171 1.171 0 0 0 13.742 5.911 A 1.007 1.007 0 0 0 13.986 5.629 A 0.914 0.914 0 0 0 14.102 5.251 Z M 4.764 6.75 L 4.153 5.08 L 1.472 5.08 L 0.87 6.75 L 0 6.75 L 2.443 0.352 L 3.182 0.352 L 5.629 6.75 L 4.764 6.75 Z M 15.579 4.504 L 15.579 4.355 A 3.17 3.17 0 0 1 15.655 3.646 A 2.581 2.581 0 0 1 15.849 3.092 A 2.191 2.191 0 0 1 16.296 2.466 A 2.033 2.033 0 0 1 16.605 2.221 Q 17.09 1.907 17.657 1.907 A 2.254 2.254 0 0 1 18.27 1.986 A 1.639 1.639 0 0 1 19.099 2.518 Q 19.613 3.129 19.613 4.267 L 19.613 4.605 L 16.392 4.605 A 2.111 2.111 0 0 0 16.463 5.114 A 1.516 1.516 0 0 0 16.802 5.741 A 1.282 1.282 0 0 0 17.737 6.173 A 1.652 1.652 0 0 0 17.802 6.174 A 1.763 1.763 0 0 0 18.13 6.145 Q 18.354 6.103 18.532 5.999 A 1.827 1.827 0 0 0 19.041 5.551 A 2.068 2.068 0 0 0 19.055 5.533 L 19.551 5.919 A 1.926 1.926 0 0 1 18.152 6.811 A 2.749 2.749 0 0 1 17.758 6.838 A 2.394 2.394 0 0 1 17.007 6.725 A 1.974 1.974 0 0 1 16.185 6.203 Q 15.579 5.568 15.579 4.504 Z M 64.437 0.352 L 64.437 6.06 L 67.469 6.06 L 67.469 6.75 L 63.589 6.75 L 63.589 0.352 L 64.437 0.352 Z M 93.608 0.352 L 93.608 6.06 L 96.64 6.06 L 96.64 6.75 L 92.76 6.75 L 92.76 0.352 L 93.608 0.352 Z M 83.646 0.352 L 83.646 4.601 L 84.533 4.601 L 84.533 5.265 L 83.646 5.265 L 83.646 6.75 L 82.828 6.75 L 82.828 5.265 L 79.915 5.265 L 79.915 4.786 L 82.78 0.352 L 83.646 0.352 Z M 89.044 2.592 A 1.544 1.544 0 0 0 89.147 2.021 A 2.226 2.226 0 0 0 89.126 1.707 A 1.566 1.566 0 0 0 88.627 0.738 A 1.754 1.754 0 0 0 87.861 0.333 A 2.443 2.443 0 0 0 87.262 0.264 A 2.539 2.539 0 0 0 86.753 0.312 A 1.767 1.767 0 0 0 85.896 0.738 Q 85.377 1.213 85.377 2.021 A 1.808 1.808 0 0 0 85.377 2.058 A 1.499 1.499 0 0 0 85.623 2.87 A 1.626 1.626 0 0 0 85.785 3.077 A 1.726 1.726 0 0 0 86.295 3.454 A 2.119 2.119 0 0 0 86.196 3.5 A 1.738 1.738 0 0 0 85.511 4.087 A 1.629 1.629 0 0 0 85.228 5.023 A 2.272 2.272 0 0 0 85.237 5.237 A 1.63 1.63 0 0 0 85.783 6.344 A 1.895 1.895 0 0 0 86.634 6.771 A 2.797 2.797 0 0 0 87.262 6.838 A 2.796 2.796 0 0 0 87.861 6.777 A 1.925 1.925 0 0 0 88.737 6.346 A 1.578 1.578 0 0 0 89.211 5.62 A 1.989 1.989 0 0 0 89.297 5.023 A 1.581 1.581 0 0 0 89.005 4.087 Q 88.712 3.674 88.211 3.458 Q 88.642 3.248 88.895 2.874 A 1.449 1.449 0 0 0 89.044 2.592 Z M 48.309 0.844 L 49.122 0.844 L 49.122 1.995 L 50.01 1.995 L 50.01 2.624 L 49.122 2.624 L 49.122 5.572 Q 49.122 5.858 49.241 6.001 Q 49.359 6.144 49.645 6.144 A 1.046 1.046 0 0 0 49.743 6.138 Q 49.845 6.129 49.985 6.101 A 4.024 4.024 0 0 0 50.032 6.091 L 50.032 6.75 A 2.463 2.463 0 0 1 49.599 6.829 A 2.157 2.157 0 0 1 49.408 6.838 Q 48.961 6.838 48.694 6.616 A 0.856 0.856 0 0 1 48.586 6.508 Q 48.359 6.238 48.318 5.78 A 2.351 2.351 0 0 1 48.309 5.572 L 48.309 2.624 L 47.443 2.624 L 47.443 1.995 L 48.309 1.995 L 48.309 0.844 Z M 75.419 0.844 L 76.232 0.844 L 76.232 1.995 L 77.12 1.995 L 77.12 2.624 L 76.232 2.624 L 76.232 5.572 Q 76.232 5.858 76.351 6.001 Q 76.469 6.144 76.755 6.144 A 1.046 1.046 0 0 0 76.852 6.138 Q 76.955 6.129 77.095 6.101 A 4.024 4.024 0 0 0 77.142 6.091 L 77.142 6.75 A 2.463 2.463 0 0 1 76.709 6.829 A 2.157 2.157 0 0 1 76.518 6.838 Q 76.07 6.838 75.804 6.616 A 0.856 0.856 0 0 1 75.696 6.508 Q 75.468 6.238 75.428 5.78 A 2.351 2.351 0 0 1 75.419 5.572 L 75.419 2.624 L 74.553 2.624 L 74.553 1.995 L 75.419 1.995 L 75.419 0.844 Z M 109.956 0.844 L 110.769 0.844 L 110.769 1.995 L 111.656 1.995 L 111.656 2.624 L 110.769 2.624 L 110.769 5.572 Q 110.769 5.858 110.887 6.001 Q 111.006 6.144 111.292 6.144 A 1.046 1.046 0 0 0 111.389 6.138 Q 111.492 6.129 111.631 6.101 A 4.024 4.024 0 0 0 111.678 6.091 L 111.678 6.75 A 2.463 2.463 0 0 1 111.245 6.829 A 2.157 2.157 0 0 1 111.054 6.838 Q 110.607 6.838 110.34 6.616 A 0.856 0.856 0 0 1 110.232 6.508 Q 110.005 6.238 109.964 5.78 A 2.351 2.351 0 0 1 109.956 5.572 L 109.956 2.624 L 109.09 2.624 L 109.09 1.995 L 109.956 1.995 L 109.956 0.844 Z M 59.933 0 L 59.933 6.75 L 59.12 6.75 L 59.12 0 L 59.933 0 Z M 37.705 4.386 L 37.705 4.329 A 3.057 3.057 0 0 1 37.792 3.587 A 2.573 2.573 0 0 1 37.98 3.072 A 2.16 2.16 0 0 1 38.394 2.486 A 1.957 1.957 0 0 1 38.744 2.21 A 2.036 2.036 0 0 1 39.689 1.913 A 2.491 2.491 0 0 1 39.863 1.907 A 2.277 2.277 0 0 1 40.616 2.027 A 1.937 1.937 0 0 1 41.434 2.58 A 2.29 2.29 0 0 1 41.953 3.608 A 3.373 3.373 0 0 1 42.034 4.368 L 42.034 4.425 A 3.114 3.114 0 0 1 41.954 5.142 A 2.577 2.577 0 0 1 41.768 5.671 A 2.056 2.056 0 0 1 41.24 6.361 A 2.001 2.001 0 0 1 41.008 6.53 A 2.045 2.045 0 0 1 40.088 6.829 A 2.529 2.529 0 0 1 39.872 6.838 A 2.262 2.262 0 0 1 39.121 6.718 A 1.938 1.938 0 0 1 38.305 6.166 A 2.297 2.297 0 0 1 37.779 5.111 A 3.357 3.357 0 0 1 37.705 4.386 Z M 53.701 4.386 L 53.701 4.329 A 3.057 3.057 0 0 1 53.788 3.587 A 2.573 2.573 0 0 1 53.976 3.072 A 2.16 2.16 0 0 1 54.391 2.486 A 1.957 1.957 0 0 1 54.74 2.21 A 2.036 2.036 0 0 1 55.685 1.913 A 2.491 2.491 0 0 1 55.859 1.907 A 2.277 2.277 0 0 1 56.612 2.027 A 1.937 1.937 0 0 1 57.43 2.58 A 2.29 2.29 0 0 1 57.949 3.608 A 3.373 3.373 0 0 1 58.03 4.368 L 58.03 4.425 A 3.114 3.114 0 0 1 57.95 5.142 A 2.577 2.577 0 0 1 57.764 5.671 A 2.056 2.056 0 0 1 57.237 6.361 A 2.001 2.001 0 0 1 57.004 6.53 A 2.045 2.045 0 0 1 56.084 6.829 A 2.529 2.529 0 0 1 55.868 6.838 A 2.262 2.262 0 0 1 55.117 6.718 A 1.938 1.938 0 0 1 54.301 6.166 A 2.297 2.297 0 0 1 53.775 5.111 A 3.357 3.357 0 0 1 53.701 4.386 Z M 53.257 1.969 L 53.257 2.725 A 2.251 2.251 0 0 0 53.015 2.698 A 2.782 2.782 0 0 0 52.857 2.694 Q 52.08 2.694 51.788 3.338 A 1.445 1.445 0 0 0 51.772 3.375 L 51.772 6.75 L 50.959 6.75 L 50.959 1.995 L 51.75 1.995 L 51.763 2.544 Q 52.144 1.938 52.826 1.909 A 1.636 1.636 0 0 1 52.897 1.907 Q 53.134 1.907 53.257 1.969 Z M 69.188 1.995 L 69.188 6.75 L 68.375 6.75 L 68.375 1.995 L 69.188 1.995 Z M 98.358 1.995 L 98.358 6.75 L 97.545 6.75 L 97.545 1.995 L 98.358 1.995 Z M 38.522 4.425 A 2.772 2.772 0 0 0 38.57 4.954 Q 38.63 5.264 38.768 5.51 A 1.545 1.545 0 0 0 38.889 5.695 Q 39.256 6.174 39.872 6.174 A 1.269 1.269 0 0 0 40.361 6.083 Q 40.64 5.967 40.843 5.706 A 1.471 1.471 0 0 0 40.856 5.689 A 1.648 1.648 0 0 0 41.111 5.171 Q 41.18 4.945 41.205 4.672 A 3.655 3.655 0 0 0 41.221 4.329 A 2.687 2.687 0 0 0 41.17 3.789 Q 41.102 3.459 40.945 3.2 A 1.586 1.586 0 0 0 40.849 3.061 A 1.231 1.231 0 0 0 40.434 2.705 Q 40.181 2.575 39.863 2.575 Q 39.273 2.575 38.907 3.035 A 1.515 1.515 0 0 0 38.892 3.054 A 1.589 1.589 0 0 0 38.639 3.552 Q 38.57 3.772 38.542 4.039 A 3.676 3.676 0 0 0 38.522 4.425 Z M 54.519 4.425 A 2.772 2.772 0 0 0 54.566 4.954 Q 54.626 5.264 54.764 5.51 A 1.545 1.545 0 0 0 54.885 5.695 Q 55.252 6.174 55.868 6.174 A 1.269 1.269 0 0 0 56.357 6.083 Q 56.636 5.967 56.839 5.706 A 1.471 1.471 0 0 0 56.852 5.689 A 1.648 1.648 0 0 0 57.107 5.171 Q 57.176 4.945 57.201 4.672 A 3.655 3.655 0 0 0 57.217 4.329 A 2.687 2.687 0 0 0 57.166 3.789 Q 57.098 3.459 56.941 3.2 A 1.586 1.586 0 0 0 56.845 3.061 A 1.231 1.231 0 0 0 56.43 2.705 Q 56.177 2.575 55.859 2.575 Q 55.269 2.575 54.903 3.035 A 1.515 1.515 0 0 0 54.888 3.054 A 1.589 1.589 0 0 0 54.636 3.552 Q 54.566 3.772 54.538 4.039 A 3.676 3.676 0 0 0 54.519 4.425 Z M 102.665 5.449 L 102.665 3.278 A 1.439 1.439 0 0 0 102.364 2.891 Q 102.06 2.62 101.62 2.599 A 1.578 1.578 0 0 0 101.544 2.597 Q 100.953 2.597 100.619 3.056 A 1.51 1.51 0 0 0 100.408 3.484 Q 100.342 3.689 100.311 3.939 A 3.955 3.955 0 0 0 100.283 4.425 Q 100.283 5.229 100.613 5.689 Q 100.942 6.148 101.536 6.148 A 1.32 1.32 0 0 0 102.045 6.054 Q 102.437 5.891 102.665 5.449 Z M 82.731 1.639 L 80.837 4.601 L 82.828 4.601 L 82.828 1.463 L 82.731 1.639 Z M 2.813 1.393 L 1.727 4.386 L 3.902 4.386 L 2.813 1.393 Z M 88.484 5.005 A 1.375 1.375 0 0 0 88.424 4.592 A 1.109 1.109 0 0 0 88.143 4.131 A 1.148 1.148 0 0 0 87.472 3.807 A 1.593 1.593 0 0 0 87.253 3.792 A 1.466 1.466 0 0 0 86.865 3.841 A 1.086 1.086 0 0 0 86.372 4.126 A 1.123 1.123 0 0 0 86.059 4.762 A 1.572 1.572 0 0 0 86.041 5.005 A 1.48 1.48 0 0 0 86.082 5.367 A 1.019 1.019 0 0 0 86.364 5.862 Q 86.67 6.158 87.203 6.173 A 2.053 2.053 0 0 0 87.262 6.174 Q 87.756 6.174 88.066 5.94 A 1.018 1.018 0 0 0 88.159 5.86 A 1.041 1.041 0 0 0 88.458 5.292 A 1.518 1.518 0 0 0 88.484 5.005 Z M 87.262 0.932 A 1.259 1.259 0 0 0 86.909 0.979 A 0.973 0.973 0 0 0 86.487 1.228 Q 86.19 1.525 86.19 2.035 A 1.325 1.325 0 0 0 86.235 2.387 A 0.994 0.994 0 0 0 86.482 2.823 A 0.974 0.974 0 0 0 87.044 3.108 A 1.382 1.382 0 0 0 87.262 3.125 A 1.279 1.279 0 0 0 87.607 3.08 A 0.952 0.952 0 0 0 88.042 2.823 A 1.018 1.018 0 0 0 88.317 2.26 A 1.426 1.426 0 0 0 88.334 2.035 A 1.282 1.282 0 0 0 88.284 1.668 A 1.013 1.013 0 0 0 88.031 1.239 Q 87.728 0.932 87.262 0.932 Z M 16.418 3.938 L 18.8 3.938 L 18.8 3.876 Q 18.774 3.417 18.603 3.111 A 1.13 1.13 0 0 0 18.466 2.916 A 0.983 0.983 0 0 0 17.811 2.584 A 1.39 1.39 0 0 0 17.657 2.575 A 1.106 1.106 0 0 0 17.135 2.698 A 1.14 1.14 0 0 0 16.831 2.933 A 1.417 1.417 0 0 0 16.554 3.379 Q 16.481 3.563 16.441 3.785 A 2.741 2.741 0 0 0 16.418 3.938 Z M 68.309 0.734 Q 68.309 0.536 68.429 0.4 Q 68.541 0.274 68.753 0.264 A 0.783 0.783 0 0 1 68.788 0.264 Q 69.025 0.264 69.148 0.4 A 0.474 0.474 0 0 1 69.27 0.703 A 0.614 0.614 0 0 1 69.271 0.734 A 0.523 0.523 0 0 1 69.246 0.9 A 0.442 0.442 0 0 1 69.148 1.063 Q 69.035 1.184 68.827 1.194 A 0.803 0.803 0 0 1 68.788 1.195 Q 68.615 1.195 68.504 1.126 A 0.362 0.362 0 0 1 68.429 1.063 A 0.456 0.456 0 0 1 68.311 0.788 A 0.605 0.605 0 0 1 68.309 0.734 Z M 97.479 0.734 Q 97.479 0.536 97.6 0.4 Q 97.712 0.274 97.924 0.264 A 0.783 0.783 0 0 1 97.958 0.264 Q 98.196 0.264 98.319 0.4 A 0.474 0.474 0 0 1 98.441 0.703 A 0.614 0.614 0 0 1 98.442 0.734 A 0.523 0.523 0 0 1 98.417 0.9 A 0.442 0.442 0 0 1 98.319 1.063 Q 98.206 1.184 97.998 1.194 A 0.803 0.803 0 0 1 97.958 1.195 Q 97.786 1.195 97.675 1.126 A 0.362 0.362 0 0 1 97.6 1.063 A 0.456 0.456 0 0 1 97.482 0.788 A 0.605 0.605 0 0 1 97.479 0.734 Z" vector-effect="non-scaling-stroke"/></g>
</svgversion="1.0" encoding="UTF-8"?>
<svg width="48px" height="48px" viewBox="0 0 48 48" version="1.1" xmlns="http://www.w3.org/2000/svg" xmlns:xlink="http://www.w3.org/1999/xlink">
    <title>Icon-Resource/Networking-and-Content-Delivery/Res_AWS-Amazon-VPC_Network-Access-Control-List_48_Light</title>
    <g id="Icon-Resource/Networking-and-Content-Delivery/Res_AWS-Amazon-VPC_Network-Access-Control-List_48" stroke="none" stroke-width="1" fill="none" fill-rule="evenodd">
        <path transform="translate(0vw, 0vh), scale(.65)" d="M32.625,35.376 L34.625,35.376 L34.625,12.625 L32.625,12.625 L32.625,35.376 Z M13.375,35.376 L15.375,35.376 L15.375,12.625 L13.375,12.625 L13.375,35.376 Z M39.625,25.486 L37.843,24.001 L39.625,22.515 L39.625,25.486 Z M41.049,19.475 C40.701,19.311 40.284,19.363 39.984,19.611 L35.64,23.232 C35.412,23.423 35.28,23.704 35.28,24.001 C35.28,24.298 35.412,24.579 35.64,24.77 L39.985,28.39 C40.168,28.542 40.396,28.621 40.625,28.621 C40.77,28.621 40.914,28.59 41.049,28.526 C41.4,28.362 41.625,28.009 41.625,27.621 L41.625,20.38 C41.625,19.992 41.4,19.639 41.049,19.475 L41.049,19.475 Z M8.375,25.486 L8.375,22.515 L10.157,24.001 L8.375,25.486 Z M8.016,19.611 C7.717,19.364 7.302,19.31 6.951,19.475 C6.6,19.639 6.375,19.992 6.375,20.38 L6.375,27.621 C6.375,28.009 6.6,28.362 6.951,28.526 C7.086,28.59 7.231,28.621 7.375,28.621 C7.605,28.621 7.832,28.542 8.015,28.39 L12.36,24.77 C12.588,24.579 12.72,24.298 12.72,24.001 C12.72,23.704 12.588,23.423 12.36,23.232 L8.016,19.611 Z M24,44.001 C12.972,44.001 4,35.029 4,24.001 C4,12.973 12.972,4 24,4 C35.028,4 44,12.973 44,24.001 C44,35.029 35.028,44.001 24,44.001 L24,44.001 Z M24,2 C11.869,2 2,11.869 2,24.001 C2,36.132 11.869,46.001 24,46.001 C36.131,46.001 46,36.132 46,24.001 C46,11.869 36.131,2 24,2 L24,2 Z M28.246,29.126 L19.75,29.121 L19.752,22.376 L28.25,22.38 L28.246,29.126 Z M22.379,19.051 C22.381,18.499 22.566,17.987 22.902,17.608 C23.206,17.268 23.598,17.079 24.007,17.079 L24.012,17.079 C24.901,17.082 25.622,17.977 25.6190093,19.076 L25.618,20.379 L22.373,20.377 L22.379,19.051 Z M29.25,20.38 L27.618,20.379 L27.619,19.079 C27.626,16.88 26.01,15.086 24.018,15.079 L24.007,15.079 C23.018,15.079 22.095,15.506 21.406,16.281 C20.747,17.024 20.382,18.006 20.379,19.043 L20.373,20.377 L18.752,20.376 C18.487,20.376 18.232,20.481 18.045,20.669 C17.857,20.856 17.752,21.11 17.752,21.376 L17.75,30.121 C17.75,30.673 18.197,31.121 18.75,31.121 L29.246,31.126 C29.511,31.126 29.766,31.021 29.953,30.833 C30.141,30.646 30.246,30.392 30.246,30.126 L30.25,21.38 C30.25,21.115 30.145,20.86 29.957,20.673 C29.77,20.485 29.516,20.38 29.25,20.38 L29.25,20.38 Z" id="AWS-Amazon-VPC_Network-access-control-list_Resource-Icon_light-bg" fill="#000000"></path>
    </g><g transform="translate(12vw, 80vh)" id="svgGroup" stroke-linecap="round" fill-rule="evenodd" font-size="9pt" stroke="#000" stroke-width="0.25mm" fill="#000" style="stroke:#000;stroke-width:0.25mm;fill:#000"><path d="M 25.027 0.352 L 25.027 6.75 L 24.179 6.75 L 20.958 1.819 L 20.958 6.75 L 20.109 6.75 L 20.109 0.352 L 20.958 0.352 L 24.188 5.304 L 24.188 0.352 L 25.027 0.352 Z M 37.187 1.995 L 38.316 5.629 L 39.23 1.995 L 40.043 1.995 L 38.659 6.75 L 38 6.75 L 36.844 3.146 L 35.719 6.75 L 35.06 6.75 L 33.68 1.995 L 34.488 1.995 L 35.424 5.555 L 36.532 1.995 L 37.187 1.995 Z M 15.882 4.72 L 16.73 4.72 A 3.016 3.016 0 0 1 16.569 5.416 A 2.099 2.099 0 0 1 15.981 6.286 Q 15.35 6.838 14.304 6.838 A 2.553 2.553 0 0 1 13.435 6.696 A 2.194 2.194 0 0 1 12.487 6.025 A 2.789 2.789 0 0 1 11.925 4.901 Q 11.819 4.484 11.806 3.992 A 5.262 5.262 0 0 1 11.804 3.85 L 11.804 3.234 A 4.251 4.251 0 0 1 11.874 2.445 A 3.229 3.229 0 0 1 12.122 1.666 A 2.539 2.539 0 0 1 12.578 0.99 A 2.26 2.26 0 0 1 13.025 0.626 A 2.415 2.415 0 0 1 14.051 0.281 A 3.027 3.027 0 0 1 14.379 0.264 A 2.962 2.962 0 0 1 15.085 0.343 A 2.065 2.065 0 0 1 16.014 0.833 A 2.16 2.16 0 0 1 16.608 1.795 A 3.086 3.086 0 0 1 16.73 2.408 L 15.882 2.408 Q 15.813 1.929 15.643 1.616 A 1.223 1.223 0 0 0 15.405 1.301 A 1.207 1.207 0 0 0 14.9 1.024 Q 14.713 0.971 14.489 0.961 A 2.396 2.396 0 0 0 14.379 0.958 A 1.753 1.753 0 0 0 13.801 1.049 A 1.463 1.463 0 0 0 13.111 1.556 A 1.989 1.989 0 0 0 12.797 2.175 Q 12.652 2.636 12.652 3.256 L 12.652 3.876 Q 12.652 4.917 13.087 5.533 A 1.38 1.38 0 0 0 14.085 6.135 A 1.814 1.814 0 0 0 14.304 6.148 A 2.497 2.497 0 0 0 14.712 6.117 Q 14.931 6.08 15.107 6.002 A 1.155 1.155 0 0 0 15.383 5.829 Q 15.759 5.511 15.882 4.72 Z M 52.031 6.75 L 50.375 4.548 L 49.865 5.08 L 49.865 6.75 L 49.052 6.75 L 49.052 0 L 49.865 0 L 49.865 4.083 L 50.3 3.56 L 51.781 1.995 L 52.77 1.995 L 50.919 3.981 L 52.985 6.75 L 52.031 6.75 Z M 0.918 0.352 L 2.738 5.629 L 4.566 0.352 L 5.489 0.352 L 3.116 6.75 L 2.369 6.75 L 0 0.352 L 0.918 0.352 Z M 26.191 4.504 L 26.191 4.355 A 3.17 3.17 0 0 1 26.268 3.646 A 2.581 2.581 0 0 1 26.462 3.092 A 2.191 2.191 0 0 1 26.909 2.466 A 2.033 2.033 0 0 1 27.218 2.221 Q 27.703 1.907 28.27 1.907 A 2.254 2.254 0 0 1 28.883 1.986 A 1.639 1.639 0 0 1 29.711 2.518 Q 30.226 3.129 30.226 4.267 L 30.226 4.605 L 27.004 4.605 A 2.111 2.111 0 0 0 27.075 5.114 A 1.516 1.516 0 0 0 27.415 5.741 A 1.282 1.282 0 0 0 28.349 6.173 A 1.652 1.652 0 0 0 28.415 6.174 A 1.763 1.763 0 0 0 28.743 6.145 Q 28.967 6.103 29.145 5.999 A 1.827 1.827 0 0 0 29.653 5.551 A 2.068 2.068 0 0 0 29.667 5.533 L 30.164 5.919 A 1.926 1.926 0 0 1 28.764 6.811 A 2.749 2.749 0 0 1 28.371 6.838 A 2.394 2.394 0 0 1 27.62 6.725 A 1.974 1.974 0 0 1 26.798 6.203 Q 26.191 5.568 26.191 4.504 Z M 8.697 4.245 L 7.189 4.245 L 7.189 6.75 L 6.346 6.75 L 6.346 0.352 L 8.706 0.352 A 3.315 3.315 0 0 1 9.37 0.414 Q 9.773 0.497 10.084 0.688 A 1.839 1.839 0 0 1 10.351 0.888 A 1.772 1.772 0 0 1 10.939 2.105 A 2.45 2.45 0 0 1 10.947 2.307 Q 10.947 3.239 10.365 3.742 Q 9.886 4.156 9.066 4.229 A 4.14 4.14 0 0 1 8.697 4.245 Z M 31.456 0.844 L 32.269 0.844 L 32.269 1.995 L 33.157 1.995 L 33.157 2.624 L 32.269 2.624 L 32.269 5.572 Q 32.269 5.858 32.388 6.001 Q 32.506 6.144 32.792 6.144 A 1.046 1.046 0 0 0 32.89 6.138 Q 32.992 6.129 33.132 6.101 A 4.024 4.024 0 0 0 33.179 6.091 L 33.179 6.75 A 2.463 2.463 0 0 1 32.746 6.829 A 2.157 2.157 0 0 1 32.555 6.838 Q 32.108 6.838 31.841 6.616 A 0.856 0.856 0 0 1 31.733 6.508 Q 31.505 6.238 31.465 5.78 A 2.351 2.351 0 0 1 31.456 5.572 L 31.456 2.624 L 30.59 2.624 L 30.59 1.995 L 31.456 1.995 L 31.456 0.844 Z M 40.654 4.386 L 40.654 4.329 A 3.057 3.057 0 0 1 40.741 3.587 A 2.573 2.573 0 0 1 40.928 3.072 A 2.16 2.16 0 0 1 41.343 2.486 A 1.957 1.957 0 0 1 41.693 2.21 A 2.036 2.036 0 0 1 42.638 1.913 A 2.491 2.491 0 0 1 42.812 1.907 A 2.277 2.277 0 0 1 43.565 2.027 A 1.937 1.937 0 0 1 44.383 2.58 A 2.29 2.29 0 0 1 44.902 3.608 A 3.373 3.373 0 0 1 44.982 4.368 L 44.982 4.425 A 3.114 3.114 0 0 1 44.903 5.142 A 2.577 2.577 0 0 1 44.717 5.671 A 2.056 2.056 0 0 1 44.189 6.361 A 2.001 2.001 0 0 1 43.956 6.53 A 2.045 2.045 0 0 1 43.037 6.829 A 2.529 2.529 0 0 1 42.82 6.838 A 2.262 2.262 0 0 1 42.07 6.718 A 1.938 1.938 0 0 1 41.254 6.166 A 2.297 2.297 0 0 1 40.728 5.111 A 3.357 3.357 0 0 1 40.654 4.386 Z M 48.3 1.969 L 48.3 2.725 A 2.251 2.251 0 0 0 48.058 2.698 A 2.782 2.782 0 0 0 47.9 2.694 Q 47.123 2.694 46.831 3.338 A 1.445 1.445 0 0 0 46.815 3.375 L 46.815 6.75 L 46.002 6.75 L 46.002 1.995 L 46.793 1.995 L 46.806 2.544 Q 47.187 1.938 47.869 1.909 A 1.636 1.636 0 0 1 47.94 1.907 Q 48.177 1.907 48.3 1.969 Z M 41.471 4.425 A 2.772 2.772 0 0 0 41.519 4.954 Q 41.579 5.264 41.716 5.51 A 1.545 1.545 0 0 0 41.838 5.695 Q 42.205 6.174 42.82 6.174 A 1.269 1.269 0 0 0 43.31 6.083 Q 43.589 5.967 43.792 5.706 A 1.471 1.471 0 0 0 43.805 5.689 A 1.648 1.648 0 0 0 44.06 5.171 Q 44.128 4.945 44.154 4.672 A 3.655 3.655 0 0 0 44.169 4.329 A 2.687 2.687 0 0 0 44.118 3.789 Q 44.051 3.459 43.893 3.2 A 1.586 1.586 0 0 0 43.798 3.061 A 1.231 1.231 0 0 0 43.383 2.705 Q 43.13 2.575 42.812 2.575 Q 42.222 2.575 41.855 3.035 A 1.515 1.515 0 0 0 41.84 3.054 A 1.589 1.589 0 0 0 41.588 3.552 Q 41.519 3.772 41.491 4.039 A 3.676 3.676 0 0 0 41.471 4.425 Z M 7.189 1.046 L 7.189 3.555 L 8.706 3.555 A 2.313 2.313 0 0 0 9.098 3.524 Q 9.315 3.487 9.487 3.404 A 1.097 1.097 0 0 0 9.743 3.237 A 1.028 1.028 0 0 0 10.06 2.696 Q 10.102 2.528 10.103 2.329 A 1.996 1.996 0 0 0 10.103 2.316 A 1.466 1.466 0 0 0 10.049 1.908 A 1.112 1.112 0 0 0 9.743 1.402 Q 9.382 1.059 8.754 1.046 L 7.189 1.046 Z M 27.031 3.938 L 29.413 3.938 L 29.413 3.876 Q 29.387 3.417 29.216 3.111 A 1.13 1.13 0 0 0 29.079 2.916 A 0.983 0.983 0 0 0 28.424 2.584 A 1.39 1.39 0 0 0 28.27 2.575 A 1.106 1.106 0 0 0 27.748 2.698 A 1.14 1.14 0 0 0 27.444 2.933 A 1.417 1.417 0 0 0 27.167 3.379 Q 27.094 3.563 27.054 3.785 A 2.741 2.741 0 0 0 27.031 3.938 Z" vector-effect="non-scaling-stroke"/></g><g transform="translate(12vw, 90vh)" id="svgGroup" stroke-linecap="round" fill-rule="evenodd" font-size="9pt" stroke="#000" stroke-width="0.25mm" fill="#000" style="stroke:#000;stroke-width:0.25mm;fill:#000"><path d="M 36.048 4.72 L 36.896 4.72 A 3.016 3.016 0 0 1 36.736 5.416 A 2.099 2.099 0 0 1 36.147 6.286 Q 35.517 6.838 34.471 6.838 A 2.553 2.553 0 0 1 33.602 6.696 A 2.194 2.194 0 0 1 32.654 6.025 A 2.789 2.789 0 0 1 32.092 4.901 Q 31.985 4.484 31.972 3.992 A 5.262 5.262 0 0 1 31.97 3.85 L 31.97 3.234 A 4.251 4.251 0 0 1 32.04 2.445 A 3.229 3.229 0 0 1 32.289 1.666 A 2.539 2.539 0 0 1 32.744 0.99 A 2.26 2.26 0 0 1 33.192 0.626 A 2.415 2.415 0 0 1 34.218 0.281 A 3.027 3.027 0 0 1 34.545 0.264 A 2.962 2.962 0 0 1 35.252 0.343 A 2.065 2.065 0 0 1 36.18 0.833 A 2.16 2.16 0 0 1 36.775 1.795 A 3.086 3.086 0 0 1 36.896 2.408 L 36.048 2.408 Q 35.98 1.929 35.81 1.616 A 1.223 1.223 0 0 0 35.572 1.301 A 1.207 1.207 0 0 0 35.066 1.024 Q 34.879 0.971 34.656 0.961 A 2.396 2.396 0 0 0 34.545 0.958 A 1.753 1.753 0 0 0 33.967 1.049 A 1.463 1.463 0 0 0 33.278 1.556 A 1.989 1.989 0 0 0 32.964 2.175 Q 32.818 2.636 32.818 3.256 L 32.818 3.876 Q 32.818 4.917 33.253 5.533 A 1.38 1.38 0 0 0 34.252 6.135 A 1.814 1.814 0 0 0 34.471 6.148 A 2.497 2.497 0 0 0 34.878 6.117 Q 35.098 6.08 35.273 6.002 A 1.155 1.155 0 0 0 35.55 5.829 Q 35.925 5.511 36.048 4.72 Z M 105.521 0 L 105.521 2.571 A 1.767 1.767 0 0 1 106.188 2.053 A 1.832 1.832 0 0 1 106.928 1.907 A 1.905 1.905 0 0 1 107.561 2.004 Q 108.403 2.3 108.446 3.506 A 3.668 3.668 0 0 1 108.448 3.608 L 108.448 6.75 L 107.635 6.75 L 107.635 3.604 A 1.837 1.837 0 0 0 107.613 3.324 Q 107.563 3.017 107.4 2.843 Q 107.214 2.645 106.861 2.606 A 1.66 1.66 0 0 0 106.682 2.597 A 1.253 1.253 0 0 0 106.267 2.664 A 1.123 1.123 0 0 0 105.987 2.808 A 1.432 1.432 0 0 0 105.521 3.362 L 105.521 6.75 L 104.708 6.75 L 104.708 0 L 105.521 0 Z M 102.7 2.522 L 102.74 1.995 L 103.482 1.995 L 103.482 6.636 A 2.511 2.511 0 0 1 103.412 7.249 A 1.738 1.738 0 0 1 102.935 8.09 A 1.834 1.834 0 0 1 102.005 8.57 A 2.671 2.671 0 0 1 101.465 8.622 A 2.446 2.446 0 0 1 100.459 8.402 A 2.003 2.003 0 0 1 100.049 8.161 A 1.563 1.563 0 0 1 99.708 7.8 L 100.129 7.313 A 1.889 1.889 0 0 0 100.564 7.712 A 1.514 1.514 0 0 0 101.408 7.958 A 1.695 1.695 0 0 0 101.785 7.919 Q 102.054 7.858 102.248 7.702 A 1.037 1.037 0 0 0 102.333 7.625 A 1.09 1.09 0 0 0 102.61 7.132 Q 102.657 6.959 102.664 6.752 A 2.134 2.134 0 0 0 102.665 6.684 L 102.665 6.275 A 1.601 1.601 0 0 1 101.613 6.821 A 2.279 2.279 0 0 1 101.333 6.838 A 1.672 1.672 0 0 1 100.578 6.67 Q 100.256 6.51 100.007 6.197 A 2.14 2.14 0 0 1 99.982 6.166 A 2.316 2.316 0 0 1 99.599 5.386 Q 99.466 4.922 99.466 4.333 Q 99.466 3.472 99.774 2.884 A 2.096 2.096 0 0 1 99.98 2.564 Q 100.494 1.907 101.342 1.907 A 1.971 1.971 0 0 1 101.941 1.994 A 1.55 1.55 0 0 1 102.7 2.522 Z M 24.091 3.393 L 23.273 3.393 Q 23.273 3.059 22.99 2.817 Q 22.707 2.575 22.276 2.575 Q 21.832 2.575 21.582 2.769 A 0.653 0.653 0 0 0 21.407 2.967 Q 21.333 3.098 21.331 3.263 A 0.771 0.771 0 0 0 21.331 3.274 A 0.588 0.588 0 0 0 21.361 3.467 A 0.48 0.48 0 0 0 21.564 3.718 A 1.093 1.093 0 0 0 21.714 3.796 Q 21.878 3.868 22.134 3.937 A 6.581 6.581 0 0 0 22.406 4.003 A 6.318 6.318 0 0 1 22.813 4.108 Q 23.15 4.208 23.392 4.329 A 1.901 1.901 0 0 1 23.648 4.481 Q 23.785 4.579 23.882 4.692 A 1.06 1.06 0 0 1 23.952 4.783 A 1.024 1.024 0 0 1 24.115 5.191 A 1.388 1.388 0 0 1 24.135 5.432 Q 24.135 6.069 23.625 6.453 Q 23.143 6.817 22.389 6.837 A 3.337 3.337 0 0 1 22.302 6.838 A 2.746 2.746 0 0 1 21.768 6.788 A 2.124 2.124 0 0 1 21.292 6.636 A 1.771 1.771 0 0 1 20.858 6.358 A 1.54 1.54 0 0 1 20.604 6.071 Q 20.355 5.708 20.355 5.287 L 21.168 5.287 A 0.932 0.932 0 0 0 21.242 5.612 A 0.827 0.827 0 0 0 21.496 5.935 A 1.072 1.072 0 0 0 21.898 6.128 Q 22.053 6.167 22.234 6.173 A 2.013 2.013 0 0 0 22.302 6.174 A 1.863 1.863 0 0 0 22.598 6.152 Q 22.759 6.126 22.891 6.07 A 0.941 0.941 0 0 0 23.043 5.988 A 0.689 0.689 0 0 0 23.207 5.837 A 0.554 0.554 0 0 0 23.322 5.489 A 0.698 0.698 0 0 0 23.285 5.258 A 0.581 0.581 0 0 0 23.073 4.977 A 1.05 1.05 0 0 0 22.905 4.878 Q 22.716 4.788 22.421 4.712 A 5.392 5.392 0 0 0 22.208 4.663 A 6.342 6.342 0 0 1 21.847 4.575 Q 21.477 4.473 21.228 4.346 Q 20.929 4.194 20.759 3.994 A 1.017 1.017 0 0 1 20.692 3.907 Q 20.518 3.652 20.518 3.3 A 1.206 1.206 0 0 1 20.917 2.396 A 1.694 1.694 0 0 1 21.012 2.312 A 1.752 1.752 0 0 1 21.795 1.952 A 2.471 2.471 0 0 1 22.276 1.907 A 2.559 2.559 0 0 1 22.839 1.966 A 1.757 1.757 0 0 1 23.588 2.325 Q 24.091 2.742 24.091 3.393 Z M 28.731 3.393 L 27.914 3.393 Q 27.914 3.059 27.631 2.817 Q 27.347 2.575 26.917 2.575 Q 26.473 2.575 26.222 2.769 A 0.653 0.653 0 0 0 26.047 2.967 Q 25.974 3.098 25.972 3.263 A 0.771 0.771 0 0 0 25.972 3.274 A 0.588 0.588 0 0 0 26.002 3.467 A 0.48 0.48 0 0 0 26.205 3.718 A 1.093 1.093 0 0 0 26.355 3.796 Q 26.519 3.868 26.775 3.937 A 6.581 6.581 0 0 0 27.046 4.003 A 6.318 6.318 0 0 1 27.454 4.108 Q 27.791 4.208 28.033 4.329 A 1.901 1.901 0 0 1 28.289 4.481 Q 28.425 4.579 28.523 4.692 A 1.06 1.06 0 0 1 28.593 4.783 A 1.024 1.024 0 0 1 28.755 5.191 A 1.388 1.388 0 0 1 28.775 5.432 Q 28.775 6.069 28.266 6.453 Q 27.783 6.817 27.029 6.837 A 3.337 3.337 0 0 1 26.943 6.838 A 2.746 2.746 0 0 1 26.408 6.788 A 2.124 2.124 0 0 1 25.932 6.636 A 1.771 1.771 0 0 1 25.498 6.358 A 1.54 1.54 0 0 1 25.244 6.071 Q 24.996 5.708 24.996 5.287 L 25.809 5.287 A 0.932 0.932 0 0 0 25.883 5.612 A 0.827 0.827 0 0 0 26.136 5.935 A 1.072 1.072 0 0 0 26.539 6.128 Q 26.693 6.167 26.875 6.173 A 2.013 2.013 0 0 0 26.943 6.174 A 1.863 1.863 0 0 0 27.239 6.152 Q 27.4 6.126 27.532 6.07 A 0.941 0.941 0 0 0 27.683 5.988 A 0.689 0.689 0 0 0 27.848 5.837 A 0.554 0.554 0 0 0 27.962 5.489 A 0.698 0.698 0 0 0 27.926 5.258 A 0.581 0.581 0 0 0 27.714 4.977 A 1.05 1.05 0 0 0 27.545 4.878 Q 27.356 4.788 27.061 4.712 A 5.392 5.392 0 0 0 26.848 4.663 A 6.342 6.342 0 0 1 26.487 4.575 Q 26.118 4.473 25.868 4.346 Q 25.57 4.194 25.399 3.994 A 1.017 1.017 0 0 1 25.332 3.907 Q 25.159 3.652 25.159 3.3 A 1.206 1.206 0 0 1 25.558 2.396 A 1.694 1.694 0 0 1 25.653 2.312 A 1.752 1.752 0 0 1 26.436 1.952 A 2.471 2.471 0 0 1 26.917 1.907 A 2.559 2.559 0 0 1 27.48 1.966 A 1.757 1.757 0 0 1 28.228 2.325 Q 28.731 2.742 28.731 3.393 Z M 74.026 3.393 L 73.208 3.393 Q 73.208 3.059 72.925 2.817 Q 72.642 2.575 72.211 2.575 Q 71.767 2.575 71.517 2.769 A 0.653 0.653 0 0 0 71.342 2.967 Q 71.268 3.098 71.266 3.263 A 0.771 0.771 0 0 0 71.266 3.274 A 0.588 0.588 0 0 0 71.296 3.467 A 0.48 0.48 0 0 0 71.499 3.718 A 1.093 1.093 0 0 0 71.649 3.796 Q 71.813 3.868 72.069 3.937 A 6.581 6.581 0 0 0 72.341 4.003 A 6.318 6.318 0 0 1 72.748 4.108 Q 73.085 4.208 73.327 4.329 A 1.901 1.901 0 0 1 73.583 4.481 Q 73.72 4.579 73.817 4.692 A 1.06 1.06 0 0 1 73.887 4.783 A 1.024 1.024 0 0 1 74.05 5.191 A 1.388 1.388 0 0 1 74.07 5.432 Q 74.07 6.069 73.56 6.453 Q 73.078 6.817 72.324 6.837 A 3.337 3.337 0 0 1 72.237 6.838 A 2.746 2.746 0 0 1 71.703 6.788 A 2.124 2.124 0 0 1 71.227 6.636 A 1.771 1.771 0 0 1 70.793 6.358 A 1.54 1.54 0 0 1 70.539 6.071 Q 70.291 5.708 70.291 5.287 L 71.104 5.287 A 0.932 0.932 0 0 0 71.177 5.612 A 0.827 0.827 0 0 0 71.431 5.935 A 1.072 1.072 0 0 0 71.833 6.128 Q 71.988 6.167 72.169 6.173 A 2.013 2.013 0 0 0 72.237 6.174 A 1.863 1.863 0 0 0 72.533 6.152 Q 72.694 6.126 72.826 6.07 A 0.941 0.941 0 0 0 72.978 5.988 A 0.689 0.689 0 0 0 73.142 5.837 A 0.554 0.554 0 0 0 73.257 5.489 A 0.698 0.698 0 0 0 73.22 5.258 A 0.581 0.581 0 0 0 73.009 4.977 A 1.05 1.05 0 0 0 72.84 4.878 Q 72.651 4.788 72.356 4.712 A 5.392 5.392 0 0 0 72.143 4.663 A 6.342 6.342 0 0 1 71.782 4.575 Q 71.412 4.473 71.163 4.346 Q 70.864 4.194 70.694 3.994 A 1.017 1.017 0 0 1 70.627 3.907 Q 70.453 3.652 70.453 3.3 A 1.206 1.206 0 0 1 70.852 2.396 A 1.694 1.694 0 0 1 70.948 2.312 A 1.752 1.752 0 0 1 71.731 1.952 A 2.471 2.471 0 0 1 72.211 1.907 A 2.559 2.559 0 0 1 72.774 1.966 A 1.757 1.757 0 0 1 73.523 2.325 Q 74.026 2.742 74.026 3.393 Z M 43.053 1.995 L 43.822 1.995 L 43.849 2.593 Q 44.385 1.918 45.245 1.907 A 2.234 2.234 0 0 1 45.272 1.907 A 1.905 1.905 0 0 1 45.906 2.004 Q 46.748 2.3 46.791 3.506 A 3.668 3.668 0 0 1 46.793 3.608 L 46.793 6.75 L 45.98 6.75 L 45.98 3.604 A 1.837 1.837 0 0 0 45.958 3.324 Q 45.908 3.017 45.745 2.843 Q 45.559 2.645 45.205 2.606 A 1.66 1.66 0 0 0 45.026 2.597 A 1.253 1.253 0 0 0 44.612 2.664 A 1.123 1.123 0 0 0 44.332 2.808 A 1.432 1.432 0 0 0 43.866 3.362 L 43.866 6.75 L 43.053 6.75 L 43.053 1.995 Z M 9.391 5.251 L 10.16 5.251 A 1.432 1.432 0 0 1 9.961 5.901 A 1.772 1.772 0 0 1 9.879 6.029 A 1.828 1.828 0 0 1 9.27 6.574 A 2.169 2.169 0 0 1 9.187 6.618 A 1.997 1.997 0 0 1 8.271 6.838 A 2.346 2.346 0 0 1 7.573 6.739 A 1.839 1.839 0 0 1 6.726 6.19 A 2.171 2.171 0 0 1 6.262 5.31 Q 6.152 4.909 6.152 4.417 L 6.152 4.28 A 3.24 3.24 0 0 1 6.216 3.624 A 2.57 2.57 0 0 1 6.407 3.045 A 2.008 2.008 0 0 1 6.847 2.431 A 1.892 1.892 0 0 1 7.139 2.206 A 1.943 1.943 0 0 1 7.895 1.934 A 2.529 2.529 0 0 1 8.266 1.907 A 2.196 2.196 0 0 1 8.914 1.999 A 1.786 1.786 0 0 1 9.595 2.386 A 1.693 1.693 0 0 1 10.154 3.535 A 2.239 2.239 0 0 1 10.16 3.63 L 9.391 3.63 Q 9.356 3.168 9.042 2.872 A 1.078 1.078 0 0 0 8.313 2.576 A 1.402 1.402 0 0 0 8.266 2.575 A 1.374 1.374 0 0 0 7.845 2.637 A 1.081 1.081 0 0 0 7.306 3.021 A 1.469 1.469 0 0 0 7.079 3.468 Q 7.013 3.674 6.986 3.923 A 3.514 3.514 0 0 0 6.965 4.311 L 6.965 4.465 Q 6.965 5.287 7.304 5.73 A 1.1 1.1 0 0 0 8.09 6.165 A 1.611 1.611 0 0 0 8.271 6.174 A 1.171 1.171 0 0 0 9.031 5.911 A 1.007 1.007 0 0 0 9.275 5.629 A 0.914 0.914 0 0 0 9.391 5.251 Z M 14.102 5.251 L 14.871 5.251 A 1.432 1.432 0 0 1 14.672 5.901 A 1.772 1.772 0 0 1 14.59 6.029 A 1.828 1.828 0 0 1 13.981 6.574 A 2.169 2.169 0 0 1 13.898 6.618 A 1.997 1.997 0 0 1 12.981 6.838 A 2.346 2.346 0 0 1 12.284 6.739 A 1.839 1.839 0 0 1 11.437 6.19 A 2.171 2.171 0 0 1 10.973 5.31 Q 10.863 4.909 10.863 4.417 L 10.863 4.28 A 3.24 3.24 0 0 1 10.927 3.624 A 2.57 2.57 0 0 1 11.118 3.045 A 2.008 2.008 0 0 1 11.558 2.431 A 1.892 1.892 0 0 1 11.85 2.206 A 1.943 1.943 0 0 1 12.606 1.934 A 2.529 2.529 0 0 1 12.977 1.907 A 2.196 2.196 0 0 1 13.625 1.999 A 1.786 1.786 0 0 1 14.306 2.386 A 1.693 1.693 0 0 1 14.865 3.535 A 2.239 2.239 0 0 1 14.871 3.63 L 14.102 3.63 Q 14.067 3.168 13.753 2.872 A 1.078 1.078 0 0 0 13.024 2.576 A 1.402 1.402 0 0 0 12.977 2.575 A 1.374 1.374 0 0 0 12.556 2.637 A 1.081 1.081 0 0 0 12.017 3.021 A 1.469 1.469 0 0 0 11.79 3.468 Q 11.724 3.674 11.697 3.923 A 3.514 3.514 0 0 0 11.676 4.311 L 11.676 4.465 Q 11.676 5.287 12.015 5.73 A 1.1 1.1 0 0 0 12.801 6.165 A 1.611 1.611 0 0 0 12.981 6.174 A 1.171 1.171 0 0 0 13.742 5.911 A 1.007 1.007 0 0 0 13.986 5.629 A 0.914 0.914 0 0 0 14.102 5.251 Z M 4.764 6.75 L 4.153 5.08 L 1.472 5.08 L 0.87 6.75 L 0 6.75 L 2.443 0.352 L 3.182 0.352 L 5.629 6.75 L 4.764 6.75 Z M 15.579 4.504 L 15.579 4.355 A 3.17 3.17 0 0 1 15.655 3.646 A 2.581 2.581 0 0 1 15.849 3.092 A 2.191 2.191 0 0 1 16.296 2.466 A 2.033 2.033 0 0 1 16.605 2.221 Q 17.09 1.907 17.657 1.907 A 2.254 2.254 0 0 1 18.27 1.986 A 1.639 1.639 0 0 1 19.099 2.518 Q 19.613 3.129 19.613 4.267 L 19.613 4.605 L 16.392 4.605 A 2.111 2.111 0 0 0 16.463 5.114 A 1.516 1.516 0 0 0 16.802 5.741 A 1.282 1.282 0 0 0 17.737 6.173 A 1.652 1.652 0 0 0 17.802 6.174 A 1.763 1.763 0 0 0 18.13 6.145 Q 18.354 6.103 18.532 5.999 A 1.827 1.827 0 0 0 19.041 5.551 A 2.068 2.068 0 0 0 19.055 5.533 L 19.551 5.919 A 1.926 1.926 0 0 1 18.152 6.811 A 2.749 2.749 0 0 1 17.758 6.838 A 2.394 2.394 0 0 1 17.007 6.725 A 1.974 1.974 0 0 1 16.185 6.203 Q 15.579 5.568 15.579 4.504 Z M 64.437 0.352 L 64.437 6.06 L 67.469 6.06 L 67.469 6.75 L 63.589 6.75 L 63.589 0.352 L 64.437 0.352 Z M 93.608 0.352 L 93.608 6.06 L 96.64 6.06 L 96.64 6.75 L 92.76 6.75 L 92.76 0.352 L 93.608 0.352 Z M 83.646 0.352 L 83.646 4.601 L 84.533 4.601 L 84.533 5.265 L 83.646 5.265 L 83.646 6.75 L 82.828 6.75 L 82.828 5.265 L 79.915 5.265 L 79.915 4.786 L 82.78 0.352 L 83.646 0.352 Z M 89.044 2.592 A 1.544 1.544 0 0 0 89.147 2.021 A 2.226 2.226 0 0 0 89.126 1.707 A 1.566 1.566 0 0 0 88.627 0.738 A 1.754 1.754 0 0 0 87.861 0.333 A 2.443 2.443 0 0 0 87.262 0.264 A 2.539 2.539 0 0 0 86.753 0.312 A 1.767 1.767 0 0 0 85.896 0.738 Q 85.377 1.213 85.377 2.021 A 1.808 1.808 0 0 0 85.377 2.058 A 1.499 1.499 0 0 0 85.623 2.87 A 1.626 1.626 0 0 0 85.785 3.077 A 1.726 1.726 0 0 0 86.295 3.454 A 2.119 2.119 0 0 0 86.196 3.5 A 1.738 1.738 0 0 0 85.511 4.087 A 1.629 1.629 0 0 0 85.228 5.023 A 2.272 2.272 0 0 0 85.237 5.237 A 1.63 1.63 0 0 0 85.783 6.344 A 1.895 1.895 0 0 0 86.634 6.771 A 2.797 2.797 0 0 0 87.262 6.838 A 2.796 2.796 0 0 0 87.861 6.777 A 1.925 1.925 0 0 0 88.737 6.346 A 1.578 1.578 0 0 0 89.211 5.62 A 1.989 1.989 0 0 0 89.297 5.023 A 1.581 1.581 0 0 0 89.005 4.087 Q 88.712 3.674 88.211 3.458 Q 88.642 3.248 88.895 2.874 A 1.449 1.449 0 0 0 89.044 2.592 Z M 48.309 0.844 L 49.122 0.844 L 49.122 1.995 L 50.01 1.995 L 50.01 2.624 L 49.122 2.624 L 49.122 5.572 Q 49.122 5.858 49.241 6.001 Q 49.359 6.144 49.645 6.144 A 1.046 1.046 0 0 0 49.743 6.138 Q 49.845 6.129 49.985 6.101 A 4.024 4.024 0 0 0 50.032 6.091 L 50.032 6.75 A 2.463 2.463 0 0 1 49.599 6.829 A 2.157 2.157 0 0 1 49.408 6.838 Q 48.961 6.838 48.694 6.616 A 0.856 0.856 0 0 1 48.586 6.508 Q 48.359 6.238 48.318 5.78 A 2.351 2.351 0 0 1 48.309 5.572 L 48.309 2.624 L 47.443 2.624 L 47.443 1.995 L 48.309 1.995 L 48.309 0.844 Z M 75.419 0.844 L 76.232 0.844 L 76.232 1.995 L 77.12 1.995 L 77.12 2.624 L 76.232 2.624 L 76.232 5.572 Q 76.232 5.858 76.351 6.001 Q 76.469 6.144 76.755 6.144 A 1.046 1.046 0 0 0 76.852 6.138 Q 76.955 6.129 77.095 6.101 A 4.024 4.024 0 0 0 77.142 6.091 L 77.142 6.75 A 2.463 2.463 0 0 1 76.709 6.829 A 2.157 2.157 0 0 1 76.518 6.838 Q 76.07 6.838 75.804 6.616 A 0.856 0.856 0 0 1 75.696 6.508 Q 75.468 6.238 75.428 5.78 A 2.351 2.351 0 0 1 75.419 5.572 L 75.419 2.624 L 74.553 2.624 L 74.553 1.995 L 75.419 1.995 L 75.419 0.844 Z M 109.956 0.844 L 110.769 0.844 L 110.769 1.995 L 111.656 1.995 L 111.656 2.624 L 110.769 2.624 L 110.769 5.572 Q 110.769 5.858 110.887 6.001 Q 111.006 6.144 111.292 6.144 A 1.046 1.046 0 0 0 111.389 6.138 Q 111.492 6.129 111.631 6.101 A 4.024 4.024 0 0 0 111.678 6.091 L 111.678 6.75 A 2.463 2.463 0 0 1 111.245 6.829 A 2.157 2.157 0 0 1 111.054 6.838 Q 110.607 6.838 110.34 6.616 A 0.856 0.856 0 0 1 110.232 6.508 Q 110.005 6.238 109.964 5.78 A 2.351 2.351 0 0 1 109.956 5.572 L 109.956 2.624 L 109.09 2.624 L 109.09 1.995 L 109.956 1.995 L 109.956 0.844 Z M 59.933 0 L 59.933 6.75 L 59.12 6.75 L 59.12 0 L 59.933 0 Z M 37.705 4.386 L 37.705 4.329 A 3.057 3.057 0 0 1 37.792 3.587 A 2.573 2.573 0 0 1 37.98 3.072 A 2.16 2.16 0 0 1 38.394 2.486 A 1.957 1.957 0 0 1 38.744 2.21 A 2.036 2.036 0 0 1 39.689 1.913 A 2.491 2.491 0 0 1 39.863 1.907 A 2.277 2.277 0 0 1 40.616 2.027 A 1.937 1.937 0 0 1 41.434 2.58 A 2.29 2.29 0 0 1 41.953 3.608 A 3.373 3.373 0 0 1 42.034 4.368 L 42.034 4.425 A 3.114 3.114 0 0 1 41.954 5.142 A 2.577 2.577 0 0 1 41.768 5.671 A 2.056 2.056 0 0 1 41.24 6.361 A 2.001 2.001 0 0 1 41.008 6.53 A 2.045 2.045 0 0 1 40.088 6.829 A 2.529 2.529 0 0 1 39.872 6.838 A 2.262 2.262 0 0 1 39.121 6.718 A 1.938 1.938 0 0 1 38.305 6.166 A 2.297 2.297 0 0 1 37.779 5.111 A 3.357 3.357 0 0 1 37.705 4.386 Z M 53.701 4.386 L 53.701 4.329 A 3.057 3.057 0 0 1 53.788 3.587 A 2.573 2.573 0 0 1 53.976 3.072 A 2.16 2.16 0 0 1 54.391 2.486 A 1.957 1.957 0 0 1 54.74 2.21 A 2.036 2.036 0 0 1 55.685 1.913 A 2.491 2.491 0 0 1 55.859 1.907 A 2.277 2.277 0 0 1 56.612 2.027 A 1.937 1.937 0 0 1 57.43 2.58 A 2.29 2.29 0 0 1 57.949 3.608 A 3.373 3.373 0 0 1 58.03 4.368 L 58.03 4.425 A 3.114 3.114 0 0 1 57.95 5.142 A 2.577 2.577 0 0 1 57.764 5.671 A 2.056 2.056 0 0 1 57.237 6.361 A 2.001 2.001 0 0 1 57.004 6.53 A 2.045 2.045 0 0 1 56.084 6.829 A 2.529 2.529 0 0 1 55.868 6.838 A 2.262 2.262 0 0 1 55.117 6.718 A 1.938 1.938 0 0 1 54.301 6.166 A 2.297 2.297 0 0 1 53.775 5.111 A 3.357 3.357 0 0 1 53.701 4.386 Z M 53.257 1.969 L 53.257 2.725 A 2.251 2.251 0 0 0 53.015 2.698 A 2.782 2.782 0 0 0 52.857 2.694 Q 52.08 2.694 51.788 3.338 A 1.445 1.445 0 0 0 51.772 3.375 L 51.772 6.75 L 50.959 6.75 L 50.959 1.995 L 51.75 1.995 L 51.763 2.544 Q 52.144 1.938 52.826 1.909 A 1.636 1.636 0 0 1 52.897 1.907 Q 53.134 1.907 53.257 1.969 Z M 69.188 1.995 L 69.188 6.75 L 68.375 6.75 L 68.375 1.995 L 69.188 1.995 Z M 98.358 1.995 L 98.358 6.75 L 97.545 6.75 L 97.545 1.995 L 98.358 1.995 Z M 38.522 4.425 A 2.772 2.772 0 0 0 38.57 4.954 Q 38.63 5.264 38.768 5.51 A 1.545 1.545 0 0 0 38.889 5.695 Q 39.256 6.174 39.872 6.174 A 1.269 1.269 0 0 0 40.361 6.083 Q 40.64 5.967 40.843 5.706 A 1.471 1.471 0 0 0 40.856 5.689 A 1.648 1.648 0 0 0 41.111 5.171 Q 41.18 4.945 41.205 4.672 A 3.655 3.655 0 0 0 41.221 4.329 A 2.687 2.687 0 0 0 41.17 3.789 Q 41.102 3.459 40.945 3.2 A 1.586 1.586 0 0 0 40.849 3.061 A 1.231 1.231 0 0 0 40.434 2.705 Q 40.181 2.575 39.863 2.575 Q 39.273 2.575 38.907 3.035 A 1.515 1.515 0 0 0 38.892 3.054 A 1.589 1.589 0 0 0 38.639 3.552 Q 38.57 3.772 38.542 4.039 A 3.676 3.676 0 0 0 38.522 4.425 Z M 54.519 4.425 A 2.772 2.772 0 0 0 54.566 4.954 Q 54.626 5.264 54.764 5.51 A 1.545 1.545 0 0 0 54.885 5.695 Q 55.252 6.174 55.868 6.174 A 1.269 1.269 0 0 0 56.357 6.083 Q 56.636 5.967 56.839 5.706 A 1.471 1.471 0 0 0 56.852 5.689 A 1.648 1.648 0 0 0 57.107 5.171 Q 57.176 4.945 57.201 4.672 A 3.655 3.655 0 0 0 57.217 4.329 A 2.687 2.687 0 0 0 57.166 3.789 Q 57.098 3.459 56.941 3.2 A 1.586 1.586 0 0 0 56.845 3.061 A 1.231 1.231 0 0 0 56.43 2.705 Q 56.177 2.575 55.859 2.575 Q 55.269 2.575 54.903 3.035 A 1.515 1.515 0 0 0 54.888 3.054 A 1.589 1.589 0 0 0 54.636 3.552 Q 54.566 3.772 54.538 4.039 A 3.676 3.676 0 0 0 54.519 4.425 Z M 102.665 5.449 L 102.665 3.278 A 1.439 1.439 0 0 0 102.364 2.891 Q 102.06 2.62 101.62 2.599 A 1.578 1.578 0 0 0 101.544 2.597 Q 100.953 2.597 100.619 3.056 A 1.51 1.51 0 0 0 100.408 3.484 Q 100.342 3.689 100.311 3.939 A 3.955 3.955 0 0 0 100.283 4.425 Q 100.283 5.229 100.613 5.689 Q 100.942 6.148 101.536 6.148 A 1.32 1.32 0 0 0 102.045 6.054 Q 102.437 5.891 102.665 5.449 Z M 82.731 1.639 L 80.837 4.601 L 82.828 4.601 L 82.828 1.463 L 82.731 1.639 Z M 2.813 1.393 L 1.727 4.386 L 3.902 4.386 L 2.813 1.393 Z M 88.484 5.005 A 1.375 1.375 0 0 0 88.424 4.592 A 1.109 1.109 0 0 0 88.143 4.131 A 1.148 1.148 0 0 0 87.472 3.807 A 1.593 1.593 0 0 0 87.253 3.792 A 1.466 1.466 0 0 0 86.865 3.841 A 1.086 1.086 0 0 0 86.372 4.126 A 1.123 1.123 0 0 0 86.059 4.762 A 1.572 1.572 0 0 0 86.041 5.005 A 1.48 1.48 0 0 0 86.082 5.367 A 1.019 1.019 0 0 0 86.364 5.862 Q 86.67 6.158 87.203 6.173 A 2.053 2.053 0 0 0 87.262 6.174 Q 87.756 6.174 88.066 5.94 A 1.018 1.018 0 0 0 88.159 5.86 A 1.041 1.041 0 0 0 88.458 5.292 A 1.518 1.518 0 0 0 88.484 5.005 Z M 87.262 0.932 A 1.259 1.259 0 0 0 86.909 0.979 A 0.973 0.973 0 0 0 86.487 1.228 Q 86.19 1.525 86.19 2.035 A 1.325 1.325 0 0 0 86.235 2.387 A 0.994 0.994 0 0 0 86.482 2.823 A 0.974 0.974 0 0 0 87.044 3.108 A 1.382 1.382 0 0 0 87.262 3.125 A 1.279 1.279 0 0 0 87.607 3.08 A 0.952 0.952 0 0 0 88.042 2.823 A 1.018 1.018 0 0 0 88.317 2.26 A 1.426 1.426 0 0 0 88.334 2.035 A 1.282 1.282 0 0 0 88.284 1.668 A 1.013 1.013 0 0 0 88.031 1.239 Q 87.728 0.932 87.262 0.932 Z M 16.418 3.938 L 18.8 3.938 L 18.8 3.876 Q 18.774 3.417 18.603 3.111 A 1.13 1.13 0 0 0 18.466 2.916 A 0.983 0.983 0 0 0 17.811 2.584 A 1.39 1.39 0 0 0 17.657 2.575 A 1.106 1.106 0 0 0 17.135 2.698 A 1.14 1.14 0 0 0 16.831 2.933 A 1.417 1.417 0 0 0 16.554 3.379 Q 16.481 3.563 16.441 3.785 A 2.741 2.741 0 0 0 16.418 3.938 Z M 68.309 0.734 Q 68.309 0.536 68.429 0.4 Q 68.541 0.274 68.753 0.264 A 0.783 0.783 0 0 1 68.788 0.264 Q 69.025 0.264 69.148 0.4 A 0.474 0.474 0 0 1 69.27 0.703 A 0.614 0.614 0 0 1 69.271 0.734 A 0.523 0.523 0 0 1 69.246 0.9 A 0.442 0.442 0 0 1 69.148 1.063 Q 69.035 1.184 68.827 1.194 A 0.803 0.803 0 0 1 68.788 1.195 Q 68.615 1.195 68.504 1.126 A 0.362 0.362 0 0 1 68.429 1.063 A 0.456 0.456 0 0 1 68.311 0.788 A 0.605 0.605 0 0 1 68.309 0.734 Z M 97.479 0.734 Q 97.479 0.536 97.6 0.4 Q 97.712 0.274 97.924 0.264 A 0.783 0.783 0 0 1 97.958 0.264 Q 98.196 0.264 98.319 0.4 A 0.474 0.474 0 0 1 98.441 0.703 A 0.614 0.614 0 0 1 98.442 0.734 A 0.523 0.523 0 0 1 98.417 0.9 A 0.442 0.442 0 0 1 98.319 1.063 Q 98.206 1.184 97.998 1.194 A 0.803 0.803 0 0 1 97.958 1.195 Q 97.786 1.195 97.675 1.126 A 0.362 0.362 0 0 1 97.6 1.063 A 0.456 0.456 0 0 1 97.482 0.788 A 0.605 0.605 0 0 1 97.479 0.734 Z" vector-effect="non-scaling-stroke"/></g>
</svg>