<?xml version="1.0" encoding="UTF-8"?>
<svg width="80px" height="80px" viewBox="0 0 80 80" version="1.1" xmlns="http://www.w3.org/2000/svg" xmlns:xlink="http://www.w3.org/1999/xlink">
    <!-- Generator: Sketch 64 (93537) - https://sketch.com -->
    <title>Icon-Architecture/64/Arch_AWS-Firewall-Manager_64</title>
    <desc>Created with Sketch.</desc>
    
    <g id="Icon-Architecture/64/Arch_AWS-Firewall-Manager_64" stroke="none" stroke-width="1" fill="none" fill-rule="evenodd">
        
        <path transform="translate(0vw, 0vh), scale(.65)" d="M63,40 C61.346,40 60,38.654 60,37 C60,35.346 61.346,34 63,34 C64.654,34 66,35.346 66,37 C66,38.654 64.654,40 63,40 M68,37 C68,34.243 65.757,32 63,32 C62.91,32 62.826,32.022 62.736,32.026 C62.181,30.607 61.507,29.247 60.714,27.975 L59.017,29.033 C59.704,30.135 60.298,31.31 60.793,32.536 C59.146,33.355 58,35.039 58,37 C58,39.547 59.922,41.632 62.388,41.938 C62.206,46.526 60.698,50.871 57.966,54.551 L59.571,55.743 C62.594,51.674 64.241,46.858 64.394,41.778 C66.47,41.169 68,39.27 68,37 M56,26 C54.346,26 53,24.654 53,23 C53,21.346 54.346,20 56,20 C57.654,20 59,21.346 59,23 C59,24.654 57.654,26 56,26 M61,23 C61,20.243 58.757,18 56,18 C53.243,18 51,20.243 51,23 C51,25.757 53.243,28 56,28 C58.757,28 61,25.757 61,23 M27,19 C27,17.346 28.346,16 30,16 C31.654,16 33,17.346 33,19 C33,20.654 31.654,22 30,22 C28.346,22 27,20.654 27,19 M35,19 C35,16.243 32.757,14 30,14 C27.243,14 25,16.243 25,19 C25,21.757 27.243,24 30,24 C32.757,24 35,21.757 35,19 M36.228,18.473 L35.927,16.496 C41.209,15.694 46.68,16.652 51.317,19.149 L50.368,20.91 C46.11,18.616 41.084,17.736 36.228,18.473 M20,36 C20,37.654 18.654,39 17,39 C15.346,39 14,37.654 14,36 C14,34.346 15.346,33 17,33 C18.654,33 20,34.346 20,36 M25.343,23.262 L24.091,21.702 C20.994,24.185 18.551,27.389 16.956,31.004 C14.22,31.028 12,33.258 12,36 C12,37.983 13.17,39.686 14.848,40.493 C14.844,40.667 14.828,40.838 14.828,41.013 C14.828,48.186 17.94,55.008 23.367,59.73 L24.68,58.221 C19.69,53.879 16.828,47.607 16.828,41.013 C16.828,41.003 16.829,40.993 16.829,40.983 C16.887,40.985 16.941,41 17,41 C19.757,41 22,38.757 22,36 C22,33.939 20.746,32.167 18.961,31.403 C20.428,28.247 22.612,25.451 25.343,23.262 M51.576,56.623 C49.946,62.91 42.113,64.55 39.699,64.911 C39.103,62.887 37.749,56.935 40.391,51.248 C40.558,50.895 40.733,50.542 40.929,50.192 C42.435,47.5 43.649,44.986 43.253,41.489 C43.058,39.762 41.965,37.306 40.921,35.281 C43.748,37.709 47.199,42.343 45.97,50 C45.904,50.409 46.097,50.816 46.455,51.023 C46.813,51.232 47.262,51.197 47.584,50.938 C47.682,50.859 49.694,49.194 50.573,45.12 C51.787,46.671 53.268,50.06 51.576,56.623 M29.566,49.746 C29.654,49.596 29.742,49.446 29.843,49.29 C31.906,46.056 31.155,41.546 30.496,39.075 C32.375,40.086 34.082,42.637 34.689,43.764 C34.878,44.111 35.242,44.313 35.648,44.286 C36.043,44.255 36.382,43.995 36.514,43.622 C38.396,38.271 37.197,34.372 35.829,32.016 C36.359,32.265 36.843,32.561 37.291,32.895 C38.399,34.704 40.998,39.351 41.267,41.715 C41.596,44.625 40.565,46.746 39.182,49.218 C38.964,49.61 38.767,50.002 38.579,50.4 C36.05,55.845 36.77,61.366 37.458,64.27 C35.248,63.229 33.396,61.945 32.188,61.103 C28.542,58.569 27.383,53.592 29.566,49.746 M50.355,42.256 C50.062,42.096 49.707,42.092 49.41,42.248 C49.113,42.403 48.915,42.697 48.88,43.03 C48.752,44.27 48.506,45.304 48.215,46.153 C47.833,35.889 39.386,31.717 38.516,31.315 C37.077,30.236 35.354,29.524 33.239,29.154 C32.798,29.075 32.353,29.307 32.162,29.718 C31.971,30.127 32.08,30.616 32.427,30.907 C32.61,31.062 36.517,34.441 35.21,40.865 C33.889,39.046 31.646,36.65 29,36.65 C28.67,36.65 28.362,36.813 28.176,37.085 C27.989,37.357 27.948,37.704 28.067,38.012 C28.093,38.076 30.529,44.497 28.161,48.208 C28.048,48.383 27.944,48.557 27.81,48.787 C25.138,53.496 26.561,59.627 31.046,62.745 C32.665,63.873 35.373,65.761 38.662,66.941 L38.662,66.94 C38.769,66.978 38.881,67 39,67 C39.03,67 39.081,66.999 39.111,66.996 C40.353,66.883 51.303,65.647 53.513,57.124 C56.446,45.741 50.605,42.393 50.355,42.256" id="AWS-Firewall-Manager_Icon_64_Squid" fill="#000000"></path>
    </g><g transform="translate(12vw, 80vh)" id="svgGroup" stroke-linecap="round" fill-rule="evenodd" font-size="9pt" stroke="#000" stroke-width="0.25mm" fill="#000" style="stroke:#000;stroke-width:0.25mm;fill:#000"><path d="M 33.144 0.352 L 34.233 0.352 L 36.325 5.572 L 38.417 0.352 L 39.511 0.352 L 39.511 6.75 L 38.667 6.75 L 38.667 4.258 L 38.747 1.569 L 36.646 6.75 L 36 6.75 L 33.904 1.582 L 33.987 4.258 L 33.987 6.75 L 33.144 6.75 L 33.144 0.352 Z M 17.842 1.995 L 18.971 5.629 L 19.885 1.995 L 20.698 1.995 L 19.314 6.75 L 18.655 6.75 L 17.499 3.146 L 16.374 6.75 L 15.715 6.75 L 14.335 1.995 L 15.144 1.995 L 16.08 5.555 L 17.187 1.995 L 17.842 1.995 Z M 3.529 3.234 L 3.529 3.924 L 0.844 3.924 L 0.844 6.75 L 0 6.75 L 0 0.352 L 3.964 0.352 L 3.964 1.046 L 0.844 1.046 L 0.844 3.234 L 3.529 3.234 Z M 58.671 2.522 L 58.711 1.995 L 59.454 1.995 L 59.454 6.636 A 2.511 2.511 0 0 1 59.383 7.249 A 1.738 1.738 0 0 1 58.906 8.09 A 1.834 1.834 0 0 1 57.977 8.57 A 2.671 2.671 0 0 1 57.437 8.622 A 2.446 2.446 0 0 1 56.43 8.402 A 2.003 2.003 0 0 1 56.02 8.161 A 1.563 1.563 0 0 1 55.679 7.8 L 56.101 7.313 A 1.889 1.889 0 0 0 56.535 7.712 A 1.514 1.514 0 0 0 57.379 7.958 A 1.695 1.695 0 0 0 57.756 7.919 Q 58.025 7.858 58.219 7.702 A 1.037 1.037 0 0 0 58.304 7.625 A 1.09 1.09 0 0 0 58.581 7.132 Q 58.629 6.959 58.635 6.752 A 2.134 2.134 0 0 0 58.636 6.684 L 58.636 6.275 A 1.601 1.601 0 0 1 57.584 6.821 A 2.279 2.279 0 0 1 57.305 6.838 A 1.672 1.672 0 0 1 56.549 6.67 Q 56.227 6.51 55.978 6.197 A 2.14 2.14 0 0 1 55.953 6.166 A 2.316 2.316 0 0 1 55.57 5.386 Q 55.437 4.922 55.437 4.333 Q 55.437 3.472 55.745 2.884 A 2.096 2.096 0 0 1 55.951 2.564 Q 56.465 1.907 57.313 1.907 A 1.971 1.971 0 0 1 57.912 1.994 A 1.55 1.55 0 0 1 58.671 2.522 Z M 45.769 1.995 L 46.538 1.995 L 46.564 2.593 Q 47.101 1.918 47.961 1.907 A 2.234 2.234 0 0 1 47.988 1.907 A 1.905 1.905 0 0 1 48.622 2.004 Q 49.464 2.3 49.507 3.506 A 3.668 3.668 0 0 1 49.509 3.608 L 49.509 6.75 L 48.696 6.75 L 48.696 3.604 A 1.837 1.837 0 0 0 48.674 3.324 Q 48.623 3.017 48.461 2.843 Q 48.275 2.645 47.921 2.606 A 1.66 1.66 0 0 0 47.742 2.597 A 1.253 1.253 0 0 0 47.328 2.664 A 1.123 1.123 0 0 0 47.048 2.808 A 1.432 1.432 0 0 0 46.582 3.362 L 46.582 6.75 L 45.769 6.75 L 45.769 1.995 Z M 25.313 6.75 L 24.46 6.75 A 0.632 0.632 0 0 1 24.424 6.66 Q 24.393 6.562 24.368 6.41 A 3.997 3.997 0 0 1 24.346 6.249 Q 23.779 6.838 22.992 6.838 A 2.033 2.033 0 0 1 22.463 6.772 A 1.529 1.529 0 0 1 21.839 6.44 Q 21.388 6.042 21.388 5.432 Q 21.388 4.689 21.953 4.278 Q 22.518 3.867 23.542 3.867 L 24.333 3.867 L 24.333 3.494 A 1.152 1.152 0 0 0 24.297 3.199 A 0.828 0.828 0 0 0 24.078 2.815 Q 23.861 2.6 23.471 2.568 A 1.748 1.748 0 0 0 23.326 2.562 Q 22.891 2.562 22.597 2.782 Q 22.302 3.001 22.302 3.313 L 21.485 3.313 A 1.041 1.041 0 0 1 21.61 2.825 A 1.409 1.409 0 0 1 21.738 2.626 Q 21.99 2.294 22.423 2.101 A 2.249 2.249 0 0 1 23.199 1.913 A 2.669 2.669 0 0 1 23.375 1.907 A 2.65 2.65 0 0 1 23.892 1.955 Q 24.199 2.016 24.438 2.156 A 1.439 1.439 0 0 1 24.662 2.318 A 1.396 1.396 0 0 1 25.115 3.144 A 1.998 1.998 0 0 1 25.146 3.45 L 25.146 5.638 Q 25.146 6.073 25.219 6.39 A 1.707 1.707 0 0 0 25.313 6.68 L 25.313 6.75 Z M 44.662 6.75 L 43.809 6.75 A 0.632 0.632 0 0 1 43.774 6.66 Q 43.742 6.562 43.718 6.41 A 3.997 3.997 0 0 1 43.695 6.249 Q 43.128 6.838 42.341 6.838 A 2.033 2.033 0 0 1 41.812 6.772 A 1.529 1.529 0 0 1 41.188 6.44 Q 40.737 6.042 40.737 5.432 Q 40.737 4.689 41.302 4.278 Q 41.867 3.867 42.891 3.867 L 43.682 3.867 L 43.682 3.494 A 1.152 1.152 0 0 0 43.646 3.199 A 0.828 0.828 0 0 0 43.427 2.815 Q 43.21 2.6 42.82 2.568 A 1.748 1.748 0 0 0 42.675 2.562 Q 42.24 2.562 41.946 2.782 Q 41.651 3.001 41.651 3.313 L 40.834 3.313 A 1.041 1.041 0 0 1 40.959 2.825 A 1.409 1.409 0 0 1 41.087 2.626 Q 41.339 2.294 41.772 2.101 A 2.249 2.249 0 0 1 42.548 1.913 A 2.669 2.669 0 0 1 42.724 1.907 A 2.65 2.65 0 0 1 43.241 1.955 Q 43.548 2.016 43.787 2.156 A 1.439 1.439 0 0 1 44.011 2.318 A 1.396 1.396 0 0 1 44.465 3.144 A 1.998 1.998 0 0 1 44.495 3.45 L 44.495 5.638 Q 44.495 6.073 44.568 6.39 A 1.707 1.707 0 0 0 44.662 6.68 L 44.662 6.75 Z M 54.523 6.75 L 53.67 6.75 A 0.632 0.632 0 0 1 53.635 6.66 Q 53.604 6.562 53.579 6.41 A 3.997 3.997 0 0 1 53.556 6.249 Q 52.989 6.838 52.203 6.838 A 2.033 2.033 0 0 1 51.673 6.772 A 1.529 1.529 0 0 1 51.049 6.44 Q 50.599 6.042 50.599 5.432 Q 50.599 4.689 51.163 4.278 Q 51.728 3.867 52.752 3.867 L 53.543 3.867 L 53.543 3.494 A 1.152 1.152 0 0 0 53.507 3.199 A 0.828 0.828 0 0 0 53.288 2.815 Q 53.072 2.6 52.681 2.568 A 1.748 1.748 0 0 0 52.537 2.562 Q 52.102 2.562 51.807 2.782 Q 51.513 3.001 51.513 3.313 L 50.695 3.313 A 1.041 1.041 0 0 1 50.82 2.825 A 1.409 1.409 0 0 1 50.948 2.626 Q 51.201 2.294 51.634 2.101 A 2.249 2.249 0 0 1 52.409 1.913 A 2.669 2.669 0 0 1 52.585 1.907 A 2.65 2.65 0 0 1 53.102 1.955 Q 53.41 2.016 53.648 2.156 A 1.439 1.439 0 0 1 53.873 2.318 A 1.396 1.396 0 0 1 54.326 3.144 A 1.998 1.998 0 0 1 54.356 3.45 L 54.356 5.638 Q 54.356 6.073 54.43 6.39 A 1.707 1.707 0 0 0 54.523 6.68 L 54.523 6.75 Z M 9.787 4.504 L 9.787 4.355 A 3.17 3.17 0 0 1 9.863 3.646 A 2.581 2.581 0 0 1 10.057 3.092 A 2.191 2.191 0 0 1 10.504 2.466 A 2.033 2.033 0 0 1 10.813 2.221 Q 11.298 1.907 11.865 1.907 A 2.254 2.254 0 0 1 12.478 1.986 A 1.639 1.639 0 0 1 13.307 2.518 Q 13.821 3.129 13.821 4.267 L 13.821 4.605 L 10.6 4.605 A 2.111 2.111 0 0 0 10.671 5.114 A 1.516 1.516 0 0 0 11.01 5.741 A 1.282 1.282 0 0 0 11.945 6.173 A 1.652 1.652 0 0 0 12.01 6.174 A 1.763 1.763 0 0 0 12.338 6.145 Q 12.562 6.103 12.74 5.999 A 1.827 1.827 0 0 0 13.249 5.551 A 2.068 2.068 0 0 0 13.263 5.533 L 13.759 5.919 A 1.926 1.926 0 0 1 12.36 6.811 A 2.749 2.749 0 0 1 11.966 6.838 A 2.394 2.394 0 0 1 11.215 6.725 A 1.974 1.974 0 0 1 10.393 6.203 Q 9.787 5.568 9.787 4.504 Z M 60.473 4.504 L 60.473 4.355 A 3.17 3.17 0 0 1 60.549 3.646 A 2.581 2.581 0 0 1 60.743 3.092 A 2.191 2.191 0 0 1 61.191 2.466 A 2.033 2.033 0 0 1 61.499 2.221 Q 61.985 1.907 62.552 1.907 A 2.254 2.254 0 0 1 63.165 1.986 A 1.639 1.639 0 0 1 63.993 2.518 Q 64.507 3.129 64.507 4.267 L 64.507 4.605 L 61.286 4.605 A 2.111 2.111 0 0 0 61.357 5.114 A 1.516 1.516 0 0 0 61.697 5.741 A 1.282 1.282 0 0 0 62.631 6.173 A 1.652 1.652 0 0 0 62.697 6.174 A 1.763 1.763 0 0 0 63.025 6.145 Q 63.249 6.103 63.426 5.999 A 1.827 1.827 0 0 0 63.935 5.551 A 2.068 2.068 0 0 0 63.949 5.533 L 64.446 5.919 A 1.926 1.926 0 0 1 63.046 6.811 A 2.749 2.749 0 0 1 62.653 6.838 A 2.394 2.394 0 0 1 61.902 6.725 A 1.974 1.974 0 0 1 61.08 6.203 Q 60.473 5.568 60.473 4.504 Z M 27.303 0 L 27.303 6.75 L 26.49 6.75 L 26.49 0 L 27.303 0 Z M 29.487 0 L 29.487 6.75 L 28.674 6.75 L 28.674 0 L 29.487 0 Z M 9.33 1.969 L 9.33 2.725 A 2.251 2.251 0 0 0 9.087 2.698 A 2.782 2.782 0 0 0 8.93 2.694 Q 8.152 2.694 7.86 3.338 A 1.445 1.445 0 0 0 7.844 3.375 L 7.844 6.75 L 7.031 6.75 L 7.031 1.995 L 7.822 1.995 L 7.835 2.544 Q 8.216 1.938 8.898 1.909 A 1.636 1.636 0 0 1 8.969 1.907 Q 9.207 1.907 9.33 1.969 Z M 67.746 1.969 L 67.746 2.725 A 2.251 2.251 0 0 0 67.503 2.698 A 2.782 2.782 0 0 0 67.346 2.694 Q 66.568 2.694 66.277 3.338 A 1.445 1.445 0 0 0 66.261 3.375 L 66.261 6.75 L 65.448 6.75 L 65.448 1.995 L 66.239 1.995 L 66.252 2.544 Q 66.632 1.938 67.315 1.909 A 1.636 1.636 0 0 1 67.386 1.907 Q 67.623 1.907 67.746 1.969 Z M 5.73 1.995 L 5.73 6.75 L 4.917 6.75 L 4.917 1.995 L 5.73 1.995 Z M 58.636 5.449 L 58.636 3.278 A 1.439 1.439 0 0 0 58.335 2.891 Q 58.032 2.62 57.591 2.599 A 1.578 1.578 0 0 0 57.516 2.597 Q 56.924 2.597 56.59 3.056 A 1.51 1.51 0 0 0 56.379 3.484 Q 56.313 3.689 56.282 3.939 A 3.955 3.955 0 0 0 56.254 4.425 Q 56.254 5.229 56.584 5.689 Q 56.914 6.148 57.507 6.148 A 1.32 1.32 0 0 0 58.016 6.054 Q 58.408 5.891 58.636 5.449 Z M 24.333 5.418 L 24.333 4.443 L 23.695 4.443 Q 22.201 4.443 22.201 5.317 Q 22.201 5.7 22.456 5.915 A 0.893 0.893 0 0 0 22.87 6.108 A 1.259 1.259 0 0 0 23.111 6.13 A 1.429 1.429 0 0 0 23.836 5.933 A 1.335 1.335 0 0 0 24.131 5.705 A 1.108 1.108 0 0 0 24.333 5.418 Z M 43.682 5.418 L 43.682 4.443 L 43.044 4.443 Q 41.55 4.443 41.55 5.317 Q 41.55 5.7 41.805 5.915 A 0.893 0.893 0 0 0 42.219 6.108 A 1.259 1.259 0 0 0 42.46 6.13 A 1.429 1.429 0 0 0 43.185 5.933 A 1.335 1.335 0 0 0 43.481 5.705 A 1.108 1.108 0 0 0 43.682 5.418 Z M 53.543 5.418 L 53.543 4.443 L 52.906 4.443 Q 51.412 4.443 51.412 5.317 Q 51.412 5.7 51.667 5.915 A 0.893 0.893 0 0 0 52.08 6.108 A 1.259 1.259 0 0 0 52.321 6.13 A 1.429 1.429 0 0 0 53.046 5.933 A 1.335 1.335 0 0 0 53.342 5.705 A 1.108 1.108 0 0 0 53.543 5.418 Z M 10.626 3.938 L 13.008 3.938 L 13.008 3.876 Q 12.982 3.417 12.811 3.111 A 1.13 1.13 0 0 0 12.674 2.916 A 0.983 0.983 0 0 0 12.019 2.584 A 1.39 1.39 0 0 0 11.865 2.575 A 1.106 1.106 0 0 0 11.343 2.698 A 1.14 1.14 0 0 0 11.039 2.933 A 1.417 1.417 0 0 0 10.762 3.379 Q 10.689 3.563 10.649 3.785 A 2.741 2.741 0 0 0 10.626 3.938 Z M 61.313 3.938 L 63.694 3.938 L 63.694 3.876 Q 63.668 3.417 63.498 3.111 A 1.13 1.13 0 0 0 63.36 2.916 A 0.983 0.983 0 0 0 62.706 2.584 A 1.39 1.39 0 0 0 62.552 2.575 A 1.106 1.106 0 0 0 62.029 2.698 A 1.14 1.14 0 0 0 61.726 2.933 A 1.417 1.417 0 0 0 61.449 3.379 Q 61.375 3.563 61.335 3.785 A 2.741 2.741 0 0 0 61.313 3.938 Z M 4.852 0.734 Q 4.852 0.536 4.972 0.4 Q 5.084 0.274 5.296 0.264 A 0.783 0.783 0 0 1 5.331 0.264 Q 5.568 0.264 5.691 0.4 A 0.474 0.474 0 0 1 5.813 0.703 A 0.614 0.614 0 0 1 5.814 0.734 A 0.523 0.523 0 0 1 5.789 0.9 A 0.442 0.442 0 0 1 5.691 1.063 Q 5.578 1.184 5.37 1.194 A 0.803 0.803 0 0 1 5.331 1.195 Q 5.158 1.195 5.047 1.126 A 0.362 0.362 0 0 1 4.972 1.063 A 0.456 0.456 0 0 1 4.854 0.788 A 0.605 0.605 0 0 1 4.852 0.734 Z" vector-effect="non-scaling-stroke"/></g>
</svg>