<?xml version="1.0" encoding="UTF-8"?>
<svg width="48px" height="48px" viewBox="0 0 48 48" version="1.1" xmlns="http://www.w3.org/2000/svg" xmlns:xlink="http://www.w3.org/1999/xlink">
    <title>Icon-Resource/Front-end-Web-Mobile/Res_Amazon-Location-Service_Map _48_Light</title>
    <g id="Icon-Resource/Front-end-Web-Mobile/Res_Amazon-Location-Service_Map-_48" stroke="none" stroke-width="1" fill="none" fill-rule="evenodd">
        <path transform="translate(0vw, 0vh), scale(.65)" d="M42.2059363,24.7523015 L32.1979363,22.2503015 L34.8669363,4.4583015 L43.9999363,8.6103015 L42.2059363,24.7523015 Z M33.9949363,41.1993015 L32.2189363,24.3163015 L42.1529363,26.8003015 L43.9299363,43.6833015 L33.9949363,41.1993015 Z M6.90593629,24.1393015 L17.9839363,25.8443015 L16.1899363,43.7883015 L4.20993629,41.2203015 L6.90593629,24.1393015 Z M4.22093629,4.3833015 L17.1159363,7.7813015 L18.0069363,23.8243015 L6.95093629,22.1233015 L4.22093629,4.3833015 Z M30.1919363,22.1333015 L20.0109363,23.8303015 L19.1179363,7.7693015 L32.8619363,4.3333015 L30.1919363,22.1333015 Z M19.9929363,25.8603015 L30.1909363,24.1603015 L31.9829363,41.1873015 L18.2019363,43.7713015 L19.9929363,25.8603015 Z M46.0679363,8.1103015 C46.1159363,7.6803015 45.8819363,7.2683015 45.4879363,7.0893015 L34.4879363,2.0893015 C34.2819363,1.9963015 34.0499363,1.9753015 33.8319363,2.0293015 L18.0809363,5.9673015 L3.25493629,2.0613015 C2.93093629,1.9743015 2.58093629,2.0593015 2.33093629,2.2853015 C2.07993629,2.5103015 1.95993629,2.8473015 2.01193629,3.1803015 L5.06193629,22.9983015 L2.08693629,41.8443015 C2.00393629,42.3683015 2.34593629,42.8663015 2.86393629,42.9783015 L16.8639363,45.9783015 C16.9929363,46.0053015 17.1259363,46.0063015 17.2589363,45.9823015 L33.0439363,43.0233015 L44.8319363,45.9703015 C44.9119363,45.9903015 44.9929363,46.0003015 45.0739363,46.0003015 C45.3119363,46.0003015 45.5459363,45.9143015 45.7299363,45.7543015 C45.9769363,45.5413015 46.1019363,45.2193015 46.0679363,44.8953015 L44.0799363,26.0023015 L46.0679363,8.1103015 Z" id="Fill-1" fill="#000000"></path>
    </g><g transform="translate(12vw, 80vh)" id="svgGroup" stroke-linecap="round" fill-rule="evenodd" font-size="9pt" stroke="#000" stroke-width="0.25mm" fill="#000" style="stroke:#000;stroke-width:0.25mm;fill:#000"><path d="M 41.278 1.938 L 40.43 1.938 A 1.466 1.466 0 0 0 40.38 1.546 A 1.066 1.066 0 0 0 40.061 1.026 A 1.211 1.211 0 0 0 39.591 0.77 Q 39.339 0.694 39.019 0.694 A 2.286 2.286 0 0 0 38.639 0.724 Q 38.437 0.758 38.275 0.831 A 1.101 1.101 0 0 0 38.046 0.969 A 0.892 0.892 0 0 0 37.701 1.624 A 1.267 1.267 0 0 0 37.696 1.732 A 0.806 0.806 0 0 0 37.964 2.337 A 1.134 1.134 0 0 0 38.028 2.393 A 1.562 1.562 0 0 0 38.266 2.549 Q 38.597 2.73 39.157 2.887 A 8.228 8.228 0 0 1 39.622 3.032 Q 39.857 3.113 40.052 3.2 A 3.297 3.297 0 0 1 40.406 3.382 A 2.342 2.342 0 0 1 40.744 3.626 Q 40.934 3.792 41.056 3.985 A 1.45 1.45 0 0 1 41.073 4.012 A 1.498 1.498 0 0 1 41.27 4.568 A 1.948 1.948 0 0 1 41.291 4.86 A 1.606 1.606 0 0 1 41.169 5.497 Q 41.023 5.838 40.705 6.09 A 1.886 1.886 0 0 1 40.685 6.106 Q 40.078 6.574 39.063 6.574 A 3.023 3.023 0 0 1 37.922 6.36 A 2.917 2.917 0 0 1 37.833 6.322 A 2.383 2.383 0 0 1 37.354 6.044 A 1.874 1.874 0 0 1 36.951 5.629 A 1.689 1.689 0 0 1 36.642 4.632 L 37.49 4.632 A 1.261 1.261 0 0 0 37.559 5.059 A 1.074 1.074 0 0 0 37.918 5.548 Q 38.303 5.85 38.919 5.881 A 2.87 2.87 0 0 0 39.063 5.884 A 2.628 2.628 0 0 0 39.45 5.858 Q 39.646 5.828 39.805 5.767 A 1.129 1.129 0 0 0 40.087 5.612 Q 40.443 5.339 40.443 4.869 A 1.074 1.074 0 0 0 40.4 4.559 A 0.816 0.816 0 0 0 40.113 4.142 Q 39.784 3.885 38.918 3.634 Q 37.833 3.322 37.338 2.868 Q 36.844 2.413 36.844 1.745 Q 36.844 0.989 37.448 0.494 A 2.121 2.121 0 0 1 38.338 0.071 A 3.087 3.087 0 0 1 39.019 0 A 2.913 2.913 0 0 1 39.679 0.072 A 2.372 2.372 0 0 1 40.195 0.255 A 2.051 2.051 0 0 1 40.726 0.626 A 1.834 1.834 0 0 1 40.994 0.958 A 1.798 1.798 0 0 1 41.278 1.938 Z M 29.711 1.732 L 30.48 1.732 L 30.507 2.329 Q 31.043 1.654 31.903 1.644 A 2.234 2.234 0 0 1 31.931 1.644 A 1.905 1.905 0 0 1 32.564 1.74 Q 33.406 2.037 33.449 3.242 A 3.668 3.668 0 0 1 33.451 3.344 L 33.451 6.486 L 32.638 6.486 L 32.638 3.34 A 1.837 1.837 0 0 0 32.616 3.06 Q 32.566 2.753 32.403 2.58 Q 32.217 2.381 31.864 2.343 A 1.66 1.66 0 0 0 31.685 2.334 A 1.253 1.253 0 0 0 31.27 2.4 A 1.123 1.123 0 0 0 30.99 2.545 A 1.432 1.432 0 0 0 30.524 3.098 L 30.524 6.486 L 29.711 6.486 L 29.711 1.732 Z M 12.876 4.988 L 13.645 4.988 A 1.432 1.432 0 0 1 13.446 5.638 A 1.772 1.772 0 0 1 13.364 5.766 A 1.828 1.828 0 0 1 12.755 6.31 A 2.169 2.169 0 0 1 12.672 6.355 A 1.997 1.997 0 0 1 11.755 6.574 A 2.346 2.346 0 0 1 11.058 6.476 A 1.839 1.839 0 0 1 10.211 5.926 A 2.171 2.171 0 0 1 9.747 5.046 Q 9.637 4.645 9.637 4.153 L 9.637 4.017 A 3.24 3.24 0 0 1 9.701 3.361 A 2.57 2.57 0 0 1 9.892 2.782 A 2.008 2.008 0 0 1 10.332 2.168 A 1.892 1.892 0 0 1 10.624 1.942 A 1.943 1.943 0 0 1 11.38 1.67 A 2.529 2.529 0 0 1 11.751 1.644 A 2.196 2.196 0 0 1 12.399 1.735 A 1.786 1.786 0 0 1 13.08 2.123 A 1.693 1.693 0 0 1 13.639 3.272 A 2.239 2.239 0 0 1 13.645 3.366 L 12.876 3.366 Q 12.841 2.905 12.527 2.608 A 1.078 1.078 0 0 0 11.797 2.312 A 1.402 1.402 0 0 0 11.751 2.312 A 1.374 1.374 0 0 0 11.33 2.373 A 1.081 1.081 0 0 0 10.791 2.758 A 1.469 1.469 0 0 0 10.564 3.205 Q 10.498 3.41 10.47 3.66 A 3.514 3.514 0 0 0 10.45 4.047 L 10.45 4.201 Q 10.45 5.023 10.789 5.467 A 1.1 1.1 0 0 0 11.575 5.901 A 1.611 1.611 0 0 0 11.755 5.911 A 1.171 1.171 0 0 0 12.516 5.647 A 1.007 1.007 0 0 0 12.76 5.366 A 0.914 0.914 0 0 0 12.876 4.988 Z M 59.708 4.988 L 60.478 4.988 A 1.432 1.432 0 0 1 60.278 5.638 A 1.772 1.772 0 0 1 60.196 5.766 A 1.828 1.828 0 0 1 59.587 6.31 A 2.169 2.169 0 0 1 59.504 6.355 A 1.997 1.997 0 0 1 58.588 6.574 A 2.346 2.346 0 0 1 57.891 6.476 A 1.839 1.839 0 0 1 57.043 5.926 A 2.171 2.171 0 0 1 56.579 5.046 Q 56.47 4.645 56.47 4.153 L 56.47 4.017 A 3.24 3.24 0 0 1 56.533 3.361 A 2.57 2.57 0 0 1 56.725 2.782 A 2.008 2.008 0 0 1 57.164 2.168 A 1.892 1.892 0 0 1 57.456 1.942 A 1.943 1.943 0 0 1 58.213 1.67 A 2.529 2.529 0 0 1 58.583 1.644 A 2.196 2.196 0 0 1 59.232 1.735 A 1.786 1.786 0 0 1 59.913 2.123 A 1.693 1.693 0 0 1 60.471 3.272 A 2.239 2.239 0 0 1 60.478 3.366 L 59.708 3.366 Q 59.673 2.905 59.359 2.608 A 1.078 1.078 0 0 0 58.63 2.312 A 1.402 1.402 0 0 0 58.583 2.312 A 1.374 1.374 0 0 0 58.162 2.373 A 1.081 1.081 0 0 0 57.623 2.758 A 1.469 1.469 0 0 0 57.397 3.205 Q 57.331 3.41 57.303 3.66 A 3.514 3.514 0 0 0 57.283 4.047 L 57.283 4.201 Q 57.283 5.023 57.621 5.467 A 1.1 1.1 0 0 0 58.408 5.901 A 1.611 1.611 0 0 0 58.588 5.911 A 1.171 1.171 0 0 0 59.348 5.647 A 1.007 1.007 0 0 0 59.592 5.366 A 0.914 0.914 0 0 0 59.708 4.988 Z M 18.347 6.486 L 17.495 6.486 A 0.632 0.632 0 0 1 17.459 6.396 Q 17.428 6.298 17.403 6.146 A 3.997 3.997 0 0 1 17.38 5.985 Q 16.813 6.574 16.027 6.574 A 2.033 2.033 0 0 1 15.498 6.509 A 1.529 1.529 0 0 1 14.873 6.177 Q 14.423 5.779 14.423 5.168 Q 14.423 4.425 14.988 4.014 Q 15.552 3.604 16.576 3.604 L 17.367 3.604 L 17.367 3.23 A 1.152 1.152 0 0 0 17.331 2.935 A 0.828 0.828 0 0 0 17.112 2.551 Q 16.896 2.337 16.506 2.304 A 1.748 1.748 0 0 0 16.361 2.298 Q 15.926 2.298 15.631 2.518 Q 15.337 2.738 15.337 3.05 L 14.52 3.05 A 1.041 1.041 0 0 1 14.644 2.561 A 1.409 1.409 0 0 1 14.772 2.362 Q 15.025 2.03 15.458 1.837 A 2.249 2.249 0 0 1 16.233 1.649 A 2.669 2.669 0 0 1 16.409 1.644 A 2.65 2.65 0 0 1 16.927 1.691 Q 17.234 1.752 17.473 1.892 A 1.439 1.439 0 0 1 17.697 2.055 A 1.396 1.396 0 0 1 18.15 2.881 A 1.998 1.998 0 0 1 18.18 3.186 L 18.18 5.375 Q 18.18 5.809 18.254 6.126 A 1.707 1.707 0 0 0 18.347 6.416 L 18.347 6.486 Z M 42.038 4.241 L 42.038 4.091 A 3.17 3.17 0 0 1 42.114 3.382 A 2.581 2.581 0 0 1 42.308 2.828 A 2.191 2.191 0 0 1 42.756 2.202 A 2.033 2.033 0 0 1 43.064 1.958 Q 43.55 1.644 44.117 1.644 A 2.254 2.254 0 0 1 44.73 1.723 A 1.639 1.639 0 0 1 45.558 2.254 Q 46.072 2.865 46.072 4.003 L 46.072 4.342 L 42.851 4.342 A 2.111 2.111 0 0 0 42.922 4.85 A 1.516 1.516 0 0 0 43.262 5.478 A 1.282 1.282 0 0 0 44.196 5.909 A 1.652 1.652 0 0 0 44.262 5.911 A 1.763 1.763 0 0 0 44.59 5.882 Q 44.814 5.839 44.991 5.735 A 1.827 1.827 0 0 0 45.5 5.287 A 2.068 2.068 0 0 0 45.514 5.269 L 46.011 5.656 A 1.926 1.926 0 0 1 44.611 6.547 A 2.749 2.749 0 0 1 44.218 6.574 A 2.394 2.394 0 0 1 43.467 6.461 A 1.974 1.974 0 0 1 42.645 5.939 Q 42.038 5.304 42.038 4.241 Z M 61.185 4.241 L 61.185 4.091 A 3.17 3.17 0 0 1 61.261 3.382 A 2.581 2.581 0 0 1 61.455 2.828 A 2.191 2.191 0 0 1 61.903 2.202 A 2.033 2.033 0 0 1 62.211 1.958 Q 62.697 1.644 63.264 1.644 A 2.254 2.254 0 0 1 63.877 1.723 A 1.639 1.639 0 0 1 64.705 2.254 Q 65.219 2.865 65.219 4.003 L 65.219 4.342 L 61.998 4.342 A 2.111 2.111 0 0 0 62.069 4.85 A 1.516 1.516 0 0 0 62.409 5.478 A 1.282 1.282 0 0 0 63.343 5.909 A 1.652 1.652 0 0 0 63.409 5.911 A 1.763 1.763 0 0 0 63.737 5.882 Q 63.961 5.839 64.138 5.735 A 1.827 1.827 0 0 0 64.647 5.287 A 2.068 2.068 0 0 0 64.661 5.269 L 65.158 5.656 A 1.926 1.926 0 0 1 63.758 6.547 A 2.749 2.749 0 0 1 63.365 6.574 A 2.394 2.394 0 0 1 62.614 6.461 A 1.974 1.974 0 0 1 61.792 5.939 Q 61.185 5.304 61.185 4.241 Z M 0.848 0.088 L 0.848 5.796 L 3.88 5.796 L 3.88 6.486 L 0 6.486 L 0 0.088 L 0.848 0.088 Z M 50.498 1.732 L 51.706 5.383 L 52.884 1.732 L 53.714 1.732 L 52.009 6.486 L 51.39 6.486 L 49.667 1.732 L 50.498 1.732 Z M 19.745 0.58 L 20.558 0.58 L 20.558 1.732 L 21.445 1.732 L 21.445 2.36 L 20.558 2.36 L 20.558 5.309 Q 20.558 5.594 20.676 5.737 Q 20.795 5.88 21.081 5.88 A 1.046 1.046 0 0 0 21.178 5.875 Q 21.281 5.865 21.421 5.837 A 4.024 4.024 0 0 0 21.467 5.827 L 21.467 6.486 A 2.463 2.463 0 0 1 21.034 6.566 A 2.157 2.157 0 0 1 20.843 6.574 Q 20.396 6.574 20.13 6.352 A 0.856 0.856 0 0 1 20.021 6.245 Q 19.794 5.974 19.753 5.516 A 2.351 2.351 0 0 1 19.745 5.309 L 19.745 2.36 L 18.879 2.36 L 18.879 1.732 L 19.745 1.732 L 19.745 0.58 Z M 4.5 4.122 L 4.5 4.065 A 3.057 3.057 0 0 1 4.587 3.323 A 2.573 2.573 0 0 1 4.775 2.808 A 2.16 2.16 0 0 1 5.189 2.223 A 1.957 1.957 0 0 1 5.539 1.947 A 2.036 2.036 0 0 1 6.484 1.65 A 2.491 2.491 0 0 1 6.658 1.644 A 2.277 2.277 0 0 1 7.411 1.763 A 1.937 1.937 0 0 1 8.229 2.316 A 2.29 2.29 0 0 1 8.748 3.345 A 3.373 3.373 0 0 1 8.829 4.105 L 8.829 4.162 A 3.114 3.114 0 0 1 8.749 4.878 A 2.577 2.577 0 0 1 8.563 5.408 A 2.056 2.056 0 0 1 8.035 6.098 A 2.001 2.001 0 0 1 7.802 6.267 A 2.045 2.045 0 0 1 6.883 6.565 A 2.529 2.529 0 0 1 6.667 6.574 A 2.262 2.262 0 0 1 5.916 6.455 A 1.938 1.938 0 0 1 5.1 5.902 A 2.297 2.297 0 0 1 4.574 4.847 A 3.357 3.357 0 0 1 4.5 4.122 Z M 24.363 4.122 L 24.363 4.065 A 3.057 3.057 0 0 1 24.45 3.323 A 2.573 2.573 0 0 1 24.638 2.808 A 2.16 2.16 0 0 1 25.053 2.223 A 1.957 1.957 0 0 1 25.403 1.947 A 2.036 2.036 0 0 1 26.347 1.65 A 2.491 2.491 0 0 1 26.521 1.644 A 2.277 2.277 0 0 1 27.274 1.763 A 1.937 1.937 0 0 1 28.092 2.316 A 2.29 2.29 0 0 1 28.611 3.345 A 3.373 3.373 0 0 1 28.692 4.105 L 28.692 4.162 A 3.114 3.114 0 0 1 28.612 4.878 A 2.577 2.577 0 0 1 28.426 5.408 A 2.056 2.056 0 0 1 27.899 6.098 A 2.001 2.001 0 0 1 27.666 6.267 A 2.045 2.045 0 0 1 26.746 6.565 A 2.529 2.529 0 0 1 26.53 6.574 A 2.262 2.262 0 0 1 25.779 6.455 A 1.938 1.938 0 0 1 24.963 5.902 A 2.297 2.297 0 0 1 24.437 4.847 A 3.357 3.357 0 0 1 24.363 4.122 Z M 49.311 1.705 L 49.311 2.461 A 2.251 2.251 0 0 0 49.068 2.435 A 2.782 2.782 0 0 0 48.911 2.43 Q 48.133 2.43 47.842 3.074 A 1.445 1.445 0 0 0 47.826 3.111 L 47.826 6.486 L 47.013 6.486 L 47.013 1.732 L 47.804 1.732 L 47.817 2.281 Q 48.197 1.675 48.88 1.645 A 1.636 1.636 0 0 1 48.951 1.644 Q 49.188 1.644 49.311 1.705 Z M 23.278 1.732 L 23.278 6.486 L 22.465 6.486 L 22.465 1.732 L 23.278 1.732 Z M 55.38 1.732 L 55.38 6.486 L 54.567 6.486 L 54.567 1.732 L 55.38 1.732 Z M 5.317 4.162 A 2.772 2.772 0 0 0 5.365 4.69 Q 5.425 5.001 5.563 5.246 A 1.545 1.545 0 0 0 5.684 5.432 Q 6.051 5.911 6.667 5.911 A 1.269 1.269 0 0 0 7.156 5.819 Q 7.435 5.704 7.638 5.442 A 1.471 1.471 0 0 0 7.651 5.425 A 1.648 1.648 0 0 0 7.906 4.908 Q 7.974 4.681 8 4.409 A 3.655 3.655 0 0 0 8.016 4.065 A 2.687 2.687 0 0 0 7.964 3.525 Q 7.897 3.195 7.739 2.936 A 1.586 1.586 0 0 0 7.644 2.797 A 1.231 1.231 0 0 0 7.229 2.442 Q 6.976 2.312 6.658 2.312 Q 6.068 2.312 5.702 2.771 A 1.515 1.515 0 0 0 5.687 2.791 A 1.589 1.589 0 0 0 5.434 3.288 Q 5.365 3.509 5.337 3.775 A 3.676 3.676 0 0 0 5.317 4.162 Z M 25.181 4.162 A 2.772 2.772 0 0 0 25.228 4.69 Q 25.288 5.001 25.426 5.246 A 1.545 1.545 0 0 0 25.548 5.432 Q 25.915 5.911 26.53 5.911 A 1.269 1.269 0 0 0 27.019 5.819 Q 27.299 5.704 27.501 5.442 A 1.471 1.471 0 0 0 27.514 5.425 A 1.648 1.648 0 0 0 27.769 4.908 Q 27.838 4.681 27.863 4.409 A 3.655 3.655 0 0 0 27.879 4.065 A 2.687 2.687 0 0 0 27.828 3.525 Q 27.76 3.195 27.603 2.936 A 1.586 1.586 0 0 0 27.508 2.797 A 1.231 1.231 0 0 0 27.093 2.442 Q 26.839 2.312 26.521 2.312 Q 25.931 2.312 25.565 2.771 A 1.515 1.515 0 0 0 25.55 2.791 A 1.589 1.589 0 0 0 25.298 3.288 Q 25.228 3.509 25.2 3.775 A 3.676 3.676 0 0 0 25.181 4.162 Z M 17.367 5.155 L 17.367 4.179 L 16.73 4.179 Q 15.236 4.179 15.236 5.054 Q 15.236 5.436 15.491 5.651 A 0.893 0.893 0 0 0 15.904 5.845 A 1.259 1.259 0 0 0 16.146 5.867 A 1.429 1.429 0 0 0 16.871 5.669 A 1.335 1.335 0 0 0 17.166 5.442 A 1.108 1.108 0 0 0 17.367 5.155 Z M 42.877 3.674 L 45.259 3.674 L 45.259 3.612 Q 45.233 3.153 45.063 2.848 A 1.13 1.13 0 0 0 44.925 2.652 A 0.983 0.983 0 0 0 44.271 2.32 A 1.39 1.39 0 0 0 44.117 2.312 A 1.106 1.106 0 0 0 43.594 2.435 A 1.14 1.14 0 0 0 43.291 2.67 A 1.417 1.417 0 0 0 43.014 3.116 Q 42.94 3.3 42.9 3.522 A 2.741 2.741 0 0 0 42.877 3.674 Z M 62.024 3.674 L 64.406 3.674 L 64.406 3.612 Q 64.38 3.153 64.21 2.848 A 1.13 1.13 0 0 0 64.072 2.652 A 0.983 0.983 0 0 0 63.418 2.32 A 1.39 1.39 0 0 0 63.264 2.312 A 1.106 1.106 0 0 0 62.741 2.435 A 1.14 1.14 0 0 0 62.438 2.67 A 1.417 1.417 0 0 0 62.161 3.116 Q 62.087 3.3 62.047 3.522 A 2.741 2.741 0 0 0 62.024 3.674 Z M 22.399 0.47 Q 22.399 0.273 22.52 0.136 Q 22.632 0.01 22.843 0.001 A 0.783 0.783 0 0 1 22.878 0 Q 23.115 0 23.238 0.136 A 0.474 0.474 0 0 1 23.361 0.44 A 0.614 0.614 0 0 1 23.361 0.47 A 0.523 0.523 0 0 1 23.336 0.636 A 0.442 0.442 0 0 1 23.238 0.8 Q 23.126 0.92 22.918 0.931 A 0.803 0.803 0 0 1 22.878 0.932 Q 22.706 0.932 22.595 0.862 A 0.362 0.362 0 0 1 22.52 0.8 A 0.456 0.456 0 0 1 22.401 0.525 A 0.605 0.605 0 0 1 22.399 0.47 Z M 54.501 0.47 Q 54.501 0.273 54.622 0.136 Q 54.734 0.01 54.946 0.001 A 0.783 0.783 0 0 1 54.98 0 Q 55.217 0 55.34 0.136 A 0.474 0.474 0 0 1 55.463 0.44 A 0.614 0.614 0 0 1 55.463 0.47 A 0.523 0.523 0 0 1 55.438 0.636 A 0.442 0.442 0 0 1 55.34 0.8 Q 55.228 0.92 55.02 0.931 A 0.803 0.803 0 0 1 54.98 0.932 Q 54.808 0.932 54.697 0.862 A 0.362 0.362 0 0 1 54.622 0.8 A 0.456 0.456 0 0 1 54.503 0.525 A 0.605 0.605 0 0 1 54.501 0.47 Z" vector-effect="non-scaling-stroke"/></g><g transform="translate(12vw, 90vh)" id="svgGroup" stroke-linecap="round" fill-rule="evenodd" font-size="9pt" stroke="#000" stroke-width="0.25mm" fill="#000" style="stroke:#000;stroke-width:0.25mm;fill:#000"><path d="M 0 0.352 L 1.09 0.352 L 3.182 5.572 L 5.273 0.352 L 6.368 0.352 L 6.368 6.75 L 5.524 6.75 L 5.524 4.258 L 5.603 1.569 L 3.502 6.75 L 2.856 6.75 L 0.76 1.582 L 0.844 4.258 L 0.844 6.75 L 0 6.75 L 0 0.352 Z M 45.127 0 L 45.127 2.571 A 1.767 1.767 0 0 1 45.794 2.053 A 1.832 1.832 0 0 1 46.534 1.907 A 1.905 1.905 0 0 1 47.167 2.004 Q 48.009 2.3 48.052 3.506 A 3.668 3.668 0 0 1 48.054 3.608 L 48.054 6.75 L 47.241 6.75 L 47.241 3.604 A 1.837 1.837 0 0 0 47.219 3.324 Q 47.169 3.017 47.006 2.843 Q 46.82 2.645 46.467 2.606 A 1.66 1.66 0 0 0 46.288 2.597 A 1.253 1.253 0 0 0 45.873 2.664 A 1.123 1.123 0 0 0 45.593 2.808 A 1.432 1.432 0 0 0 45.127 3.362 L 45.127 6.75 L 44.314 6.75 L 44.314 0 L 45.127 0 Z M 42.306 2.522 L 42.346 1.995 L 43.088 1.995 L 43.088 6.636 A 2.511 2.511 0 0 1 43.018 7.249 A 1.738 1.738 0 0 1 42.541 8.09 A 1.834 1.834 0 0 1 41.611 8.57 A 2.671 2.671 0 0 1 41.071 8.622 A 2.446 2.446 0 0 1 40.065 8.402 A 2.003 2.003 0 0 1 39.655 8.161 A 1.563 1.563 0 0 1 39.313 7.8 L 39.735 7.313 A 1.889 1.889 0 0 0 40.17 7.712 A 1.514 1.514 0 0 0 41.014 7.958 A 1.695 1.695 0 0 0 41.391 7.919 Q 41.66 7.858 41.854 7.702 A 1.037 1.037 0 0 0 41.939 7.625 A 1.09 1.09 0 0 0 42.216 7.132 Q 42.263 6.959 42.27 6.752 A 2.134 2.134 0 0 0 42.271 6.684 L 42.271 6.275 A 1.601 1.601 0 0 1 41.219 6.821 A 2.279 2.279 0 0 1 40.939 6.838 A 1.672 1.672 0 0 1 40.184 6.67 Q 39.862 6.51 39.613 6.197 A 2.14 2.14 0 0 1 39.588 6.166 A 2.316 2.316 0 0 1 39.205 5.386 Q 39.072 4.922 39.072 4.333 Q 39.072 3.472 39.38 2.884 A 2.096 2.096 0 0 1 39.586 2.564 Q 40.1 1.907 40.948 1.907 A 1.971 1.971 0 0 1 41.547 1.994 A 1.55 1.55 0 0 1 42.306 2.522 Z M 11.518 6.75 L 10.666 6.75 A 0.632 0.632 0 0 1 10.63 6.66 Q 10.599 6.562 10.574 6.41 A 3.997 3.997 0 0 1 10.551 6.249 Q 9.984 6.838 9.198 6.838 A 2.033 2.033 0 0 1 8.668 6.772 A 1.529 1.529 0 0 1 8.044 6.44 Q 7.594 6.042 7.594 5.432 Q 7.594 4.689 8.158 4.278 Q 8.723 3.867 9.747 3.867 L 10.538 3.867 L 10.538 3.494 A 1.152 1.152 0 0 0 10.502 3.199 A 0.828 0.828 0 0 0 10.283 2.815 Q 10.067 2.6 9.677 2.568 A 1.748 1.748 0 0 0 9.532 2.562 Q 9.097 2.562 8.802 2.782 Q 8.508 3.001 8.508 3.313 L 7.69 3.313 A 1.041 1.041 0 0 1 7.815 2.825 A 1.409 1.409 0 0 1 7.943 2.626 Q 8.196 2.294 8.629 2.101 A 2.249 2.249 0 0 1 9.404 1.913 A 2.669 2.669 0 0 1 9.58 1.907 A 2.65 2.65 0 0 1 10.098 1.955 Q 10.405 2.016 10.644 2.156 A 1.439 1.439 0 0 1 10.868 2.318 A 1.396 1.396 0 0 1 11.321 3.144 A 1.998 1.998 0 0 1 11.351 3.45 L 11.351 5.638 Q 11.351 6.073 11.425 6.39 A 1.707 1.707 0 0 0 11.518 6.68 L 11.518 6.75 Z M 16.642 4.351 L 16.642 4.425 Q 16.642 5.511 16.146 6.174 A 1.57 1.57 0 0 1 15.007 6.828 A 2.013 2.013 0 0 1 14.801 6.838 A 2.196 2.196 0 0 1 14.215 6.764 A 1.598 1.598 0 0 1 13.438 6.289 L 13.438 8.578 L 12.625 8.578 L 12.625 1.995 L 13.368 1.995 L 13.408 2.522 A 1.619 1.619 0 0 1 14.547 1.919 A 2.319 2.319 0 0 1 14.788 1.907 A 1.829 1.829 0 0 1 15.425 2.014 A 1.597 1.597 0 0 1 16.143 2.553 Q 16.642 3.199 16.642 4.351 Z M 33.214 0.352 L 33.214 6.06 L 36.246 6.06 L 36.246 6.75 L 32.366 6.75 L 32.366 0.352 L 33.214 0.352 Z M 23.251 0.352 L 23.251 4.601 L 24.139 4.601 L 24.139 5.265 L 23.251 5.265 L 23.251 6.75 L 22.434 6.75 L 22.434 5.265 L 19.521 5.265 L 19.521 4.786 L 22.386 0.352 L 23.251 0.352 Z M 28.65 2.592 A 1.544 1.544 0 0 0 28.753 2.021 A 2.226 2.226 0 0 0 28.732 1.707 A 1.566 1.566 0 0 0 28.233 0.738 A 1.754 1.754 0 0 0 27.467 0.333 A 2.443 2.443 0 0 0 26.868 0.264 A 2.539 2.539 0 0 0 26.359 0.312 A 1.767 1.767 0 0 0 25.501 0.738 Q 24.983 1.213 24.983 2.021 A 1.808 1.808 0 0 0 24.983 2.058 A 1.499 1.499 0 0 0 25.229 2.87 A 1.626 1.626 0 0 0 25.391 3.077 A 1.726 1.726 0 0 0 25.901 3.454 A 2.119 2.119 0 0 0 25.802 3.5 A 1.738 1.738 0 0 0 25.117 4.087 A 1.629 1.629 0 0 0 24.833 5.023 A 2.272 2.272 0 0 0 24.843 5.237 A 1.63 1.63 0 0 0 25.389 6.344 A 1.895 1.895 0 0 0 26.24 6.771 A 2.797 2.797 0 0 0 26.868 6.838 A 2.796 2.796 0 0 0 27.467 6.777 A 1.925 1.925 0 0 0 28.343 6.346 A 1.578 1.578 0 0 0 28.817 5.62 A 1.989 1.989 0 0 0 28.903 5.023 A 1.581 1.581 0 0 0 28.611 4.087 Q 28.318 3.674 27.817 3.458 Q 28.248 3.248 28.501 2.874 A 1.449 1.449 0 0 0 28.65 2.592 Z M 49.562 0.844 L 50.375 0.844 L 50.375 1.995 L 51.262 1.995 L 51.262 2.624 L 50.375 2.624 L 50.375 5.572 Q 50.375 5.858 50.493 6.001 Q 50.612 6.144 50.897 6.144 A 1.046 1.046 0 0 0 50.995 6.138 Q 51.098 6.129 51.237 6.101 A 4.024 4.024 0 0 0 51.284 6.091 L 51.284 6.75 A 2.463 2.463 0 0 1 50.851 6.829 A 2.157 2.157 0 0 1 50.66 6.838 Q 50.213 6.838 49.946 6.616 A 0.856 0.856 0 0 1 49.838 6.508 Q 49.611 6.238 49.57 5.78 A 2.351 2.351 0 0 1 49.562 5.572 L 49.562 2.624 L 48.696 2.624 L 48.696 1.995 L 49.562 1.995 L 49.562 0.844 Z M 37.964 1.995 L 37.964 6.75 L 37.151 6.75 L 37.151 1.995 L 37.964 1.995 Z M 13.438 3.252 L 13.438 5.524 Q 13.803 6.174 14.555 6.174 A 1.184 1.184 0 0 0 15.02 6.086 Q 15.277 5.977 15.466 5.735 A 1.403 1.403 0 0 0 15.484 5.711 A 1.501 1.501 0 0 0 15.701 5.28 Q 15.769 5.073 15.801 4.818 A 3.91 3.91 0 0 0 15.829 4.333 Q 15.829 3.746 15.646 3.339 A 1.503 1.503 0 0 0 15.486 3.063 A 1.086 1.086 0 0 0 14.7 2.605 A 1.414 1.414 0 0 0 14.546 2.597 Q 13.885 2.597 13.52 3.121 A 1.623 1.623 0 0 0 13.438 3.252 Z M 42.271 5.449 L 42.271 3.278 A 1.439 1.439 0 0 0 41.97 2.891 Q 41.666 2.62 41.226 2.599 A 1.578 1.578 0 0 0 41.15 2.597 Q 40.559 2.597 40.225 3.056 A 1.51 1.51 0 0 0 40.014 3.484 Q 39.948 3.689 39.917 3.939 A 3.955 3.955 0 0 0 39.889 4.425 Q 39.889 5.229 40.219 5.689 Q 40.548 6.148 41.142 6.148 A 1.32 1.32 0 0 0 41.651 6.054 Q 42.043 5.891 42.271 5.449 Z M 22.337 1.639 L 20.443 4.601 L 22.434 4.601 L 22.434 1.463 L 22.337 1.639 Z M 28.09 5.005 A 1.375 1.375 0 0 0 28.03 4.592 A 1.109 1.109 0 0 0 27.749 4.131 A 1.148 1.148 0 0 0 27.078 3.807 A 1.593 1.593 0 0 0 26.859 3.792 A 1.466 1.466 0 0 0 26.471 3.841 A 1.086 1.086 0 0 0 25.978 4.126 A 1.123 1.123 0 0 0 25.665 4.762 A 1.572 1.572 0 0 0 25.646 5.005 A 1.48 1.48 0 0 0 25.688 5.367 A 1.019 1.019 0 0 0 25.969 5.862 Q 26.276 6.158 26.809 6.173 A 2.053 2.053 0 0 0 26.868 6.174 Q 27.362 6.174 27.672 5.94 A 1.018 1.018 0 0 0 27.765 5.86 A 1.041 1.041 0 0 0 28.064 5.292 A 1.518 1.518 0 0 0 28.09 5.005 Z M 26.868 0.932 A 1.259 1.259 0 0 0 26.515 0.979 A 0.973 0.973 0 0 0 26.093 1.228 Q 25.796 1.525 25.796 2.035 A 1.325 1.325 0 0 0 25.84 2.387 A 0.994 0.994 0 0 0 26.088 2.823 A 0.974 0.974 0 0 0 26.65 3.108 A 1.382 1.382 0 0 0 26.868 3.125 A 1.279 1.279 0 0 0 27.213 3.08 A 0.952 0.952 0 0 0 27.648 2.823 A 1.018 1.018 0 0 0 27.923 2.26 A 1.426 1.426 0 0 0 27.94 2.035 A 1.282 1.282 0 0 0 27.89 1.668 A 1.013 1.013 0 0 0 27.637 1.239 Q 27.334 0.932 26.868 0.932 Z M 10.538 5.418 L 10.538 4.443 L 9.901 4.443 Q 8.407 4.443 8.407 5.317 Q 8.407 5.7 8.662 5.915 A 0.893 0.893 0 0 0 9.075 6.108 A 1.259 1.259 0 0 0 9.316 6.13 A 1.429 1.429 0 0 0 10.042 5.933 A 1.335 1.335 0 0 0 10.337 5.705 A 1.108 1.108 0 0 0 10.538 5.418 Z M 37.085 0.734 Q 37.085 0.536 37.206 0.4 Q 37.318 0.274 37.53 0.264 A 0.783 0.783 0 0 1 37.564 0.264 Q 37.802 0.264 37.925 0.4 A 0.474 0.474 0 0 1 38.047 0.703 A 0.614 0.614 0 0 1 38.048 0.734 A 0.523 0.523 0 0 1 38.023 0.9 A 0.442 0.442 0 0 1 37.925 1.063 Q 37.812 1.184 37.604 1.194 A 0.803 0.803 0 0 1 37.564 1.195 Q 37.392 1.195 37.281 1.126 A 0.362 0.362 0 0 1 37.206 1.063 A 0.456 0.456 0 0 1 37.088 0.788 A 0.605 0.605 0 0 1 37.085 0.734 Z" vector-effect="non-scaling-stroke"/></g>
</svgversion="1.0" encoding="UTF-8"?>
<svg width="48px" height="48px" viewBox="0 0 48 48" version="1.1" xmlns="http://www.w3.org/2000/svg" xmlns:xlink="http://www.w3.org/1999/xlink">
    <title>Icon-Resource/Front-end-Web-Mobile/Res_Amazon-Location-Service_Map _48_Light</title>
    <g id="Icon-Resource/Front-end-Web-Mobile/Res_Amazon-Location-Service_Map-_48" stroke="none" stroke-width="1" fill="none" fill-rule="evenodd">
        <path transform="translate(0vw, 0vh), scale(.65)" d="M42.2059363,24.7523015 L32.1979363,22.2503015 L34.8669363,4.4583015 L43.9999363,8.6103015 L42.2059363,24.7523015 Z M33.9949363,41.1993015 L32.2189363,24.3163015 L42.1529363,26.8003015 L43.9299363,43.6833015 L33.9949363,41.1993015 Z M6.90593629,24.1393015 L17.9839363,25.8443015 L16.1899363,43.7883015 L4.20993629,41.2203015 L6.90593629,24.1393015 Z M4.22093629,4.3833015 L17.1159363,7.7813015 L18.0069363,23.8243015 L6.95093629,22.1233015 L4.22093629,4.3833015 Z M30.1919363,22.1333015 L20.0109363,23.8303015 L19.1179363,7.7693015 L32.8619363,4.3333015 L30.1919363,22.1333015 Z M19.9929363,25.8603015 L30.1909363,24.1603015 L31.9829363,41.1873015 L18.2019363,43.7713015 L19.9929363,25.8603015 Z M46.0679363,8.1103015 C46.1159363,7.6803015 45.8819363,7.2683015 45.4879363,7.0893015 L34.4879363,2.0893015 C34.2819363,1.9963015 34.0499363,1.9753015 33.8319363,2.0293015 L18.0809363,5.9673015 L3.25493629,2.0613015 C2.93093629,1.9743015 2.58093629,2.0593015 2.33093629,2.2853015 C2.07993629,2.5103015 1.95993629,2.8473015 2.01193629,3.1803015 L5.06193629,22.9983015 L2.08693629,41.8443015 C2.00393629,42.3683015 2.34593629,42.8663015 2.86393629,42.9783015 L16.8639363,45.9783015 C16.9929363,46.0053015 17.1259363,46.0063015 17.2589363,45.9823015 L33.0439363,43.0233015 L44.8319363,45.9703015 C44.9119363,45.9903015 44.9929363,46.0003015 45.0739363,46.0003015 C45.3119363,46.0003015 45.5459363,45.9143015 45.7299363,45.7543015 C45.9769363,45.5413015 46.1019363,45.2193015 46.0679363,44.8953015 L44.0799363,26.0023015 L46.0679363,8.1103015 Z" id="Fill-1" fill="#000000"></path>
    </g><g transform="translate(12vw, 80vh)" id="svgGroup" stroke-linecap="round" fill-rule="evenodd" font-size="9pt" stroke="#000" stroke-width="0.25mm" fill="#000" style="stroke:#000;stroke-width:0.25mm;fill:#000"><path d="M 41.278 1.938 L 40.43 1.938 A 1.466 1.466 0 0 0 40.38 1.546 A 1.066 1.066 0 0 0 40.061 1.026 A 1.211 1.211 0 0 0 39.591 0.77 Q 39.339 0.694 39.019 0.694 A 2.286 2.286 0 0 0 38.639 0.724 Q 38.437 0.758 38.275 0.831 A 1.101 1.101 0 0 0 38.046 0.969 A 0.892 0.892 0 0 0 37.701 1.624 A 1.267 1.267 0 0 0 37.696 1.732 A 0.806 0.806 0 0 0 37.964 2.337 A 1.134 1.134 0 0 0 38.028 2.393 A 1.562 1.562 0 0 0 38.266 2.549 Q 38.597 2.73 39.157 2.887 A 8.228 8.228 0 0 1 39.622 3.032 Q 39.857 3.113 40.052 3.2 A 3.297 3.297 0 0 1 40.406 3.382 A 2.342 2.342 0 0 1 40.744 3.626 Q 40.934 3.792 41.056 3.985 A 1.45 1.45 0 0 1 41.073 4.012 A 1.498 1.498 0 0 1 41.27 4.568 A 1.948 1.948 0 0 1 41.291 4.86 A 1.606 1.606 0 0 1 41.169 5.497 Q 41.023 5.838 40.705 6.09 A 1.886 1.886 0 0 1 40.685 6.106 Q 40.078 6.574 39.063 6.574 A 3.023 3.023 0 0 1 37.922 6.36 A 2.917 2.917 0 0 1 37.833 6.322 A 2.383 2.383 0 0 1 37.354 6.044 A 1.874 1.874 0 0 1 36.951 5.629 A 1.689 1.689 0 0 1 36.642 4.632 L 37.49 4.632 A 1.261 1.261 0 0 0 37.559 5.059 A 1.074 1.074 0 0 0 37.918 5.548 Q 38.303 5.85 38.919 5.881 A 2.87 2.87 0 0 0 39.063 5.884 A 2.628 2.628 0 0 0 39.45 5.858 Q 39.646 5.828 39.805 5.767 A 1.129 1.129 0 0 0 40.087 5.612 Q 40.443 5.339 40.443 4.869 A 1.074 1.074 0 0 0 40.4 4.559 A 0.816 0.816 0 0 0 40.113 4.142 Q 39.784 3.885 38.918 3.634 Q 37.833 3.322 37.338 2.868 Q 36.844 2.413 36.844 1.745 Q 36.844 0.989 37.448 0.494 A 2.121 2.121 0 0 1 38.338 0.071 A 3.087 3.087 0 0 1 39.019 0 A 2.913 2.913 0 0 1 39.679 0.072 A 2.372 2.372 0 0 1 40.195 0.255 A 2.051 2.051 0 0 1 40.726 0.626 A 1.834 1.834 0 0 1 40.994 0.958 A 1.798 1.798 0 0 1 41.278 1.938 Z M 29.711 1.732 L 30.48 1.732 L 30.507 2.329 Q 31.043 1.654 31.903 1.644 A 2.234 2.234 0 0 1 31.931 1.644 A 1.905 1.905 0 0 1 32.564 1.74 Q 33.406 2.037 33.449 3.242 A 3.668 3.668 0 0 1 33.451 3.344 L 33.451 6.486 L 32.638 6.486 L 32.638 3.34 A 1.837 1.837 0 0 0 32.616 3.06 Q 32.566 2.753 32.403 2.58 Q 32.217 2.381 31.864 2.343 A 1.66 1.66 0 0 0 31.685 2.334 A 1.253 1.253 0 0 0 31.27 2.4 A 1.123 1.123 0 0 0 30.99 2.545 A 1.432 1.432 0 0 0 30.524 3.098 L 30.524 6.486 L 29.711 6.486 L 29.711 1.732 Z M 12.876 4.988 L 13.645 4.988 A 1.432 1.432 0 0 1 13.446 5.638 A 1.772 1.772 0 0 1 13.364 5.766 A 1.828 1.828 0 0 1 12.755 6.31 A 2.169 2.169 0 0 1 12.672 6.355 A 1.997 1.997 0 0 1 11.755 6.574 A 2.346 2.346 0 0 1 11.058 6.476 A 1.839 1.839 0 0 1 10.211 5.926 A 2.171 2.171 0 0 1 9.747 5.046 Q 9.637 4.645 9.637 4.153 L 9.637 4.017 A 3.24 3.24 0 0 1 9.701 3.361 A 2.57 2.57 0 0 1 9.892 2.782 A 2.008 2.008 0 0 1 10.332 2.168 A 1.892 1.892 0 0 1 10.624 1.942 A 1.943 1.943 0 0 1 11.38 1.67 A 2.529 2.529 0 0 1 11.751 1.644 A 2.196 2.196 0 0 1 12.399 1.735 A 1.786 1.786 0 0 1 13.08 2.123 A 1.693 1.693 0 0 1 13.639 3.272 A 2.239 2.239 0 0 1 13.645 3.366 L 12.876 3.366 Q 12.841 2.905 12.527 2.608 A 1.078 1.078 0 0 0 11.797 2.312 A 1.402 1.402 0 0 0 11.751 2.312 A 1.374 1.374 0 0 0 11.33 2.373 A 1.081 1.081 0 0 0 10.791 2.758 A 1.469 1.469 0 0 0 10.564 3.205 Q 10.498 3.41 10.47 3.66 A 3.514 3.514 0 0 0 10.45 4.047 L 10.45 4.201 Q 10.45 5.023 10.789 5.467 A 1.1 1.1 0 0 0 11.575 5.901 A 1.611 1.611 0 0 0 11.755 5.911 A 1.171 1.171 0 0 0 12.516 5.647 A 1.007 1.007 0 0 0 12.76 5.366 A 0.914 0.914 0 0 0 12.876 4.988 Z M 59.708 4.988 L 60.478 4.988 A 1.432 1.432 0 0 1 60.278 5.638 A 1.772 1.772 0 0 1 60.196 5.766 A 1.828 1.828 0 0 1 59.587 6.31 A 2.169 2.169 0 0 1 59.504 6.355 A 1.997 1.997 0 0 1 58.588 6.574 A 2.346 2.346 0 0 1 57.891 6.476 A 1.839 1.839 0 0 1 57.043 5.926 A 2.171 2.171 0 0 1 56.579 5.046 Q 56.47 4.645 56.47 4.153 L 56.47 4.017 A 3.24 3.24 0 0 1 56.533 3.361 A 2.57 2.57 0 0 1 56.725 2.782 A 2.008 2.008 0 0 1 57.164 2.168 A 1.892 1.892 0 0 1 57.456 1.942 A 1.943 1.943 0 0 1 58.213 1.67 A 2.529 2.529 0 0 1 58.583 1.644 A 2.196 2.196 0 0 1 59.232 1.735 A 1.786 1.786 0 0 1 59.913 2.123 A 1.693 1.693 0 0 1 60.471 3.272 A 2.239 2.239 0 0 1 60.478 3.366 L 59.708 3.366 Q 59.673 2.905 59.359 2.608 A 1.078 1.078 0 0 0 58.63 2.312 A 1.402 1.402 0 0 0 58.583 2.312 A 1.374 1.374 0 0 0 58.162 2.373 A 1.081 1.081 0 0 0 57.623 2.758 A 1.469 1.469 0 0 0 57.397 3.205 Q 57.331 3.41 57.303 3.66 A 3.514 3.514 0 0 0 57.283 4.047 L 57.283 4.201 Q 57.283 5.023 57.621 5.467 A 1.1 1.1 0 0 0 58.408 5.901 A 1.611 1.611 0 0 0 58.588 5.911 A 1.171 1.171 0 0 0 59.348 5.647 A 1.007 1.007 0 0 0 59.592 5.366 A 0.914 0.914 0 0 0 59.708 4.988 Z M 18.347 6.486 L 17.495 6.486 A 0.632 0.632 0 0 1 17.459 6.396 Q 17.428 6.298 17.403 6.146 A 3.997 3.997 0 0 1 17.38 5.985 Q 16.813 6.574 16.027 6.574 A 2.033 2.033 0 0 1 15.498 6.509 A 1.529 1.529 0 0 1 14.873 6.177 Q 14.423 5.779 14.423 5.168 Q 14.423 4.425 14.988 4.014 Q 15.552 3.604 16.576 3.604 L 17.367 3.604 L 17.367 3.23 A 1.152 1.152 0 0 0 17.331 2.935 A 0.828 0.828 0 0 0 17.112 2.551 Q 16.896 2.337 16.506 2.304 A 1.748 1.748 0 0 0 16.361 2.298 Q 15.926 2.298 15.631 2.518 Q 15.337 2.738 15.337 3.05 L 14.52 3.05 A 1.041 1.041 0 0 1 14.644 2.561 A 1.409 1.409 0 0 1 14.772 2.362 Q 15.025 2.03 15.458 1.837 A 2.249 2.249 0 0 1 16.233 1.649 A 2.669 2.669 0 0 1 16.409 1.644 A 2.65 2.65 0 0 1 16.927 1.691 Q 17.234 1.752 17.473 1.892 A 1.439 1.439 0 0 1 17.697 2.055 A 1.396 1.396 0 0 1 18.15 2.881 A 1.998 1.998 0 0 1 18.18 3.186 L 18.18 5.375 Q 18.18 5.809 18.254 6.126 A 1.707 1.707 0 0 0 18.347 6.416 L 18.347 6.486 Z M 42.038 4.241 L 42.038 4.091 A 3.17 3.17 0 0 1 42.114 3.382 A 2.581 2.581 0 0 1 42.308 2.828 A 2.191 2.191 0 0 1 42.756 2.202 A 2.033 2.033 0 0 1 43.064 1.958 Q 43.55 1.644 44.117 1.644 A 2.254 2.254 0 0 1 44.73 1.723 A 1.639 1.639 0 0 1 45.558 2.254 Q 46.072 2.865 46.072 4.003 L 46.072 4.342 L 42.851 4.342 A 2.111 2.111 0 0 0 42.922 4.85 A 1.516 1.516 0 0 0 43.262 5.478 A 1.282 1.282 0 0 0 44.196 5.909 A 1.652 1.652 0 0 0 44.262 5.911 A 1.763 1.763 0 0 0 44.59 5.882 Q 44.814 5.839 44.991 5.735 A 1.827 1.827 0 0 0 45.5 5.287 A 2.068 2.068 0 0 0 45.514 5.269 L 46.011 5.656 A 1.926 1.926 0 0 1 44.611 6.547 A 2.749 2.749 0 0 1 44.218 6.574 A 2.394 2.394 0 0 1 43.467 6.461 A 1.974 1.974 0 0 1 42.645 5.939 Q 42.038 5.304 42.038 4.241 Z M 61.185 4.241 L 61.185 4.091 A 3.17 3.17 0 0 1 61.261 3.382 A 2.581 2.581 0 0 1 61.455 2.828 A 2.191 2.191 0 0 1 61.903 2.202 A 2.033 2.033 0 0 1 62.211 1.958 Q 62.697 1.644 63.264 1.644 A 2.254 2.254 0 0 1 63.877 1.723 A 1.639 1.639 0 0 1 64.705 2.254 Q 65.219 2.865 65.219 4.003 L 65.219 4.342 L 61.998 4.342 A 2.111 2.111 0 0 0 62.069 4.85 A 1.516 1.516 0 0 0 62.409 5.478 A 1.282 1.282 0 0 0 63.343 5.909 A 1.652 1.652 0 0 0 63.409 5.911 A 1.763 1.763 0 0 0 63.737 5.882 Q 63.961 5.839 64.138 5.735 A 1.827 1.827 0 0 0 64.647 5.287 A 2.068 2.068 0 0 0 64.661 5.269 L 65.158 5.656 A 1.926 1.926 0 0 1 63.758 6.547 A 2.749 2.749 0 0 1 63.365 6.574 A 2.394 2.394 0 0 1 62.614 6.461 A 1.974 1.974 0 0 1 61.792 5.939 Q 61.185 5.304 61.185 4.241 Z M 0.848 0.088 L 0.848 5.796 L 3.88 5.796 L 3.88 6.486 L 0 6.486 L 0 0.088 L 0.848 0.088 Z M 50.498 1.732 L 51.706 5.383 L 52.884 1.732 L 53.714 1.732 L 52.009 6.486 L 51.39 6.486 L 49.667 1.732 L 50.498 1.732 Z M 19.745 0.58 L 20.558 0.58 L 20.558 1.732 L 21.445 1.732 L 21.445 2.36 L 20.558 2.36 L 20.558 5.309 Q 20.558 5.594 20.676 5.737 Q 20.795 5.88 21.081 5.88 A 1.046 1.046 0 0 0 21.178 5.875 Q 21.281 5.865 21.421 5.837 A 4.024 4.024 0 0 0 21.467 5.827 L 21.467 6.486 A 2.463 2.463 0 0 1 21.034 6.566 A 2.157 2.157 0 0 1 20.843 6.574 Q 20.396 6.574 20.13 6.352 A 0.856 0.856 0 0 1 20.021 6.245 Q 19.794 5.974 19.753 5.516 A 2.351 2.351 0 0 1 19.745 5.309 L 19.745 2.36 L 18.879 2.36 L 18.879 1.732 L 19.745 1.732 L 19.745 0.58 Z M 4.5 4.122 L 4.5 4.065 A 3.057 3.057 0 0 1 4.587 3.323 A 2.573 2.573 0 0 1 4.775 2.808 A 2.16 2.16 0 0 1 5.189 2.223 A 1.957 1.957 0 0 1 5.539 1.947 A 2.036 2.036 0 0 1 6.484 1.65 A 2.491 2.491 0 0 1 6.658 1.644 A 2.277 2.277 0 0 1 7.411 1.763 A 1.937 1.937 0 0 1 8.229 2.316 A 2.29 2.29 0 0 1 8.748 3.345 A 3.373 3.373 0 0 1 8.829 4.105 L 8.829 4.162 A 3.114 3.114 0 0 1 8.749 4.878 A 2.577 2.577 0 0 1 8.563 5.408 A 2.056 2.056 0 0 1 8.035 6.098 A 2.001 2.001 0 0 1 7.802 6.267 A 2.045 2.045 0 0 1 6.883 6.565 A 2.529 2.529 0 0 1 6.667 6.574 A 2.262 2.262 0 0 1 5.916 6.455 A 1.938 1.938 0 0 1 5.1 5.902 A 2.297 2.297 0 0 1 4.574 4.847 A 3.357 3.357 0 0 1 4.5 4.122 Z M 24.363 4.122 L 24.363 4.065 A 3.057 3.057 0 0 1 24.45 3.323 A 2.573 2.573 0 0 1 24.638 2.808 A 2.16 2.16 0 0 1 25.053 2.223 A 1.957 1.957 0 0 1 25.403 1.947 A 2.036 2.036 0 0 1 26.347 1.65 A 2.491 2.491 0 0 1 26.521 1.644 A 2.277 2.277 0 0 1 27.274 1.763 A 1.937 1.937 0 0 1 28.092 2.316 A 2.29 2.29 0 0 1 28.611 3.345 A 3.373 3.373 0 0 1 28.692 4.105 L 28.692 4.162 A 3.114 3.114 0 0 1 28.612 4.878 A 2.577 2.577 0 0 1 28.426 5.408 A 2.056 2.056 0 0 1 27.899 6.098 A 2.001 2.001 0 0 1 27.666 6.267 A 2.045 2.045 0 0 1 26.746 6.565 A 2.529 2.529 0 0 1 26.53 6.574 A 2.262 2.262 0 0 1 25.779 6.455 A 1.938 1.938 0 0 1 24.963 5.902 A 2.297 2.297 0 0 1 24.437 4.847 A 3.357 3.357 0 0 1 24.363 4.122 Z M 49.311 1.705 L 49.311 2.461 A 2.251 2.251 0 0 0 49.068 2.435 A 2.782 2.782 0 0 0 48.911 2.43 Q 48.133 2.43 47.842 3.074 A 1.445 1.445 0 0 0 47.826 3.111 L 47.826 6.486 L 47.013 6.486 L 47.013 1.732 L 47.804 1.732 L 47.817 2.281 Q 48.197 1.675 48.88 1.645 A 1.636 1.636 0 0 1 48.951 1.644 Q 49.188 1.644 49.311 1.705 Z M 23.278 1.732 L 23.278 6.486 L 22.465 6.486 L 22.465 1.732 L 23.278 1.732 Z M 55.38 1.732 L 55.38 6.486 L 54.567 6.486 L 54.567 1.732 L 55.38 1.732 Z M 5.317 4.162 A 2.772 2.772 0 0 0 5.365 4.69 Q 5.425 5.001 5.563 5.246 A 1.545 1.545 0 0 0 5.684 5.432 Q 6.051 5.911 6.667 5.911 A 1.269 1.269 0 0 0 7.156 5.819 Q 7.435 5.704 7.638 5.442 A 1.471 1.471 0 0 0 7.651 5.425 A 1.648 1.648 0 0 0 7.906 4.908 Q 7.974 4.681 8 4.409 A 3.655 3.655 0 0 0 8.016 4.065 A 2.687 2.687 0 0 0 7.964 3.525 Q 7.897 3.195 7.739 2.936 A 1.586 1.586 0 0 0 7.644 2.797 A 1.231 1.231 0 0 0 7.229 2.442 Q 6.976 2.312 6.658 2.312 Q 6.068 2.312 5.702 2.771 A 1.515 1.515 0 0 0 5.687 2.791 A 1.589 1.589 0 0 0 5.434 3.288 Q 5.365 3.509 5.337 3.775 A 3.676 3.676 0 0 0 5.317 4.162 Z M 25.181 4.162 A 2.772 2.772 0 0 0 25.228 4.69 Q 25.288 5.001 25.426 5.246 A 1.545 1.545 0 0 0 25.548 5.432 Q 25.915 5.911 26.53 5.911 A 1.269 1.269 0 0 0 27.019 5.819 Q 27.299 5.704 27.501 5.442 A 1.471 1.471 0 0 0 27.514 5.425 A 1.648 1.648 0 0 0 27.769 4.908 Q 27.838 4.681 27.863 4.409 A 3.655 3.655 0 0 0 27.879 4.065 A 2.687 2.687 0 0 0 27.828 3.525 Q 27.76 3.195 27.603 2.936 A 1.586 1.586 0 0 0 27.508 2.797 A 1.231 1.231 0 0 0 27.093 2.442 Q 26.839 2.312 26.521 2.312 Q 25.931 2.312 25.565 2.771 A 1.515 1.515 0 0 0 25.55 2.791 A 1.589 1.589 0 0 0 25.298 3.288 Q 25.228 3.509 25.2 3.775 A 3.676 3.676 0 0 0 25.181 4.162 Z M 17.367 5.155 L 17.367 4.179 L 16.73 4.179 Q 15.236 4.179 15.236 5.054 Q 15.236 5.436 15.491 5.651 A 0.893 0.893 0 0 0 15.904 5.845 A 1.259 1.259 0 0 0 16.146 5.867 A 1.429 1.429 0 0 0 16.871 5.669 A 1.335 1.335 0 0 0 17.166 5.442 A 1.108 1.108 0 0 0 17.367 5.155 Z M 42.877 3.674 L 45.259 3.674 L 45.259 3.612 Q 45.233 3.153 45.063 2.848 A 1.13 1.13 0 0 0 44.925 2.652 A 0.983 0.983 0 0 0 44.271 2.32 A 1.39 1.39 0 0 0 44.117 2.312 A 1.106 1.106 0 0 0 43.594 2.435 A 1.14 1.14 0 0 0 43.291 2.67 A 1.417 1.417 0 0 0 43.014 3.116 Q 42.94 3.3 42.9 3.522 A 2.741 2.741 0 0 0 42.877 3.674 Z M 62.024 3.674 L 64.406 3.674 L 64.406 3.612 Q 64.38 3.153 64.21 2.848 A 1.13 1.13 0 0 0 64.072 2.652 A 0.983 0.983 0 0 0 63.418 2.32 A 1.39 1.39 0 0 0 63.264 2.312 A 1.106 1.106 0 0 0 62.741 2.435 A 1.14 1.14 0 0 0 62.438 2.67 A 1.417 1.417 0 0 0 62.161 3.116 Q 62.087 3.3 62.047 3.522 A 2.741 2.741 0 0 0 62.024 3.674 Z M 22.399 0.47 Q 22.399 0.273 22.52 0.136 Q 22.632 0.01 22.843 0.001 A 0.783 0.783 0 0 1 22.878 0 Q 23.115 0 23.238 0.136 A 0.474 0.474 0 0 1 23.361 0.44 A 0.614 0.614 0 0 1 23.361 0.47 A 0.523 0.523 0 0 1 23.336 0.636 A 0.442 0.442 0 0 1 23.238 0.8 Q 23.126 0.92 22.918 0.931 A 0.803 0.803 0 0 1 22.878 0.932 Q 22.706 0.932 22.595 0.862 A 0.362 0.362 0 0 1 22.52 0.8 A 0.456 0.456 0 0 1 22.401 0.525 A 0.605 0.605 0 0 1 22.399 0.47 Z M 54.501 0.47 Q 54.501 0.273 54.622 0.136 Q 54.734 0.01 54.946 0.001 A 0.783 0.783 0 0 1 54.98 0 Q 55.217 0 55.34 0.136 A 0.474 0.474 0 0 1 55.463 0.44 A 0.614 0.614 0 0 1 55.463 0.47 A 0.523 0.523 0 0 1 55.438 0.636 A 0.442 0.442 0 0 1 55.34 0.8 Q 55.228 0.92 55.02 0.931 A 0.803 0.803 0 0 1 54.98 0.932 Q 54.808 0.932 54.697 0.862 A 0.362 0.362 0 0 1 54.622 0.8 A 0.456 0.456 0 0 1 54.503 0.525 A 0.605 0.605 0 0 1 54.501 0.47 Z" vector-effect="non-scaling-stroke"/></g><g transform="translate(12vw, 90vh)" id="svgGroup" stroke-linecap="round" fill-rule="evenodd" font-size="9pt" stroke="#000" stroke-width="0.25mm" fill="#000" style="stroke:#000;stroke-width:0.25mm;fill:#000"><path d="M 0 0.352 L 1.09 0.352 L 3.182 5.572 L 5.273 0.352 L 6.368 0.352 L 6.368 6.75 L 5.524 6.75 L 5.524 4.258 L 5.603 1.569 L 3.502 6.75 L 2.856 6.75 L 0.76 1.582 L 0.844 4.258 L 0.844 6.75 L 0 6.75 L 0 0.352 Z M 45.127 0 L 45.127 2.571 A 1.767 1.767 0 0 1 45.794 2.053 A 1.832 1.832 0 0 1 46.534 1.907 A 1.905 1.905 0 0 1 47.167 2.004 Q 48.009 2.3 48.052 3.506 A 3.668 3.668 0 0 1 48.054 3.608 L 48.054 6.75 L 47.241 6.75 L 47.241 3.604 A 1.837 1.837 0 0 0 47.219 3.324 Q 47.169 3.017 47.006 2.843 Q 46.82 2.645 46.467 2.606 A 1.66 1.66 0 0 0 46.288 2.597 A 1.253 1.253 0 0 0 45.873 2.664 A 1.123 1.123 0 0 0 45.593 2.808 A 1.432 1.432 0 0 0 45.127 3.362 L 45.127 6.75 L 44.314 6.75 L 44.314 0 L 45.127 0 Z M 42.306 2.522 L 42.346 1.995 L 43.088 1.995 L 43.088 6.636 A 2.511 2.511 0 0 1 43.018 7.249 A 1.738 1.738 0 0 1 42.541 8.09 A 1.834 1.834 0 0 1 41.611 8.57 A 2.671 2.671 0 0 1 41.071 8.622 A 2.446 2.446 0 0 1 40.065 8.402 A 2.003 2.003 0 0 1 39.655 8.161 A 1.563 1.563 0 0 1 39.313 7.8 L 39.735 7.313 A 1.889 1.889 0 0 0 40.17 7.712 A 1.514 1.514 0 0 0 41.014 7.958 A 1.695 1.695 0 0 0 41.391 7.919 Q 41.66 7.858 41.854 7.702 A 1.037 1.037 0 0 0 41.939 7.625 A 1.09 1.09 0 0 0 42.216 7.132 Q 42.263 6.959 42.27 6.752 A 2.134 2.134 0 0 0 42.271 6.684 L 42.271 6.275 A 1.601 1.601 0 0 1 41.219 6.821 A 2.279 2.279 0 0 1 40.939 6.838 A 1.672 1.672 0 0 1 40.184 6.67 Q 39.862 6.51 39.613 6.197 A 2.14 2.14 0 0 1 39.588 6.166 A 2.316 2.316 0 0 1 39.205 5.386 Q 39.072 4.922 39.072 4.333 Q 39.072 3.472 39.38 2.884 A 2.096 2.096 0 0 1 39.586 2.564 Q 40.1 1.907 40.948 1.907 A 1.971 1.971 0 0 1 41.547 1.994 A 1.55 1.55 0 0 1 42.306 2.522 Z M 11.518 6.75 L 10.666 6.75 A 0.632 0.632 0 0 1 10.63 6.66 Q 10.599 6.562 10.574 6.41 A 3.997 3.997 0 0 1 10.551 6.249 Q 9.984 6.838 9.198 6.838 A 2.033 2.033 0 0 1 8.668 6.772 A 1.529 1.529 0 0 1 8.044 6.44 Q 7.594 6.042 7.594 5.432 Q 7.594 4.689 8.158 4.278 Q 8.723 3.867 9.747 3.867 L 10.538 3.867 L 10.538 3.494 A 1.152 1.152 0 0 0 10.502 3.199 A 0.828 0.828 0 0 0 10.283 2.815 Q 10.067 2.6 9.677 2.568 A 1.748 1.748 0 0 0 9.532 2.562 Q 9.097 2.562 8.802 2.782 Q 8.508 3.001 8.508 3.313 L 7.69 3.313 A 1.041 1.041 0 0 1 7.815 2.825 A 1.409 1.409 0 0 1 7.943 2.626 Q 8.196 2.294 8.629 2.101 A 2.249 2.249 0 0 1 9.404 1.913 A 2.669 2.669 0 0 1 9.58 1.907 A 2.65 2.65 0 0 1 10.098 1.955 Q 10.405 2.016 10.644 2.156 A 1.439 1.439 0 0 1 10.868 2.318 A 1.396 1.396 0 0 1 11.321 3.144 A 1.998 1.998 0 0 1 11.351 3.45 L 11.351 5.638 Q 11.351 6.073 11.425 6.39 A 1.707 1.707 0 0 0 11.518 6.68 L 11.518 6.75 Z M 16.642 4.351 L 16.642 4.425 Q 16.642 5.511 16.146 6.174 A 1.57 1.57 0 0 1 15.007 6.828 A 2.013 2.013 0 0 1 14.801 6.838 A 2.196 2.196 0 0 1 14.215 6.764 A 1.598 1.598 0 0 1 13.438 6.289 L 13.438 8.578 L 12.625 8.578 L 12.625 1.995 L 13.368 1.995 L 13.408 2.522 A 1.619 1.619 0 0 1 14.547 1.919 A 2.319 2.319 0 0 1 14.788 1.907 A 1.829 1.829 0 0 1 15.425 2.014 A 1.597 1.597 0 0 1 16.143 2.553 Q 16.642 3.199 16.642 4.351 Z M 33.214 0.352 L 33.214 6.06 L 36.246 6.06 L 36.246 6.75 L 32.366 6.75 L 32.366 0.352 L 33.214 0.352 Z M 23.251 0.352 L 23.251 4.601 L 24.139 4.601 L 24.139 5.265 L 23.251 5.265 L 23.251 6.75 L 22.434 6.75 L 22.434 5.265 L 19.521 5.265 L 19.521 4.786 L 22.386 0.352 L 23.251 0.352 Z M 28.65 2.592 A 1.544 1.544 0 0 0 28.753 2.021 A 2.226 2.226 0 0 0 28.732 1.707 A 1.566 1.566 0 0 0 28.233 0.738 A 1.754 1.754 0 0 0 27.467 0.333 A 2.443 2.443 0 0 0 26.868 0.264 A 2.539 2.539 0 0 0 26.359 0.312 A 1.767 1.767 0 0 0 25.501 0.738 Q 24.983 1.213 24.983 2.021 A 1.808 1.808 0 0 0 24.983 2.058 A 1.499 1.499 0 0 0 25.229 2.87 A 1.626 1.626 0 0 0 25.391 3.077 A 1.726 1.726 0 0 0 25.901 3.454 A 2.119 2.119 0 0 0 25.802 3.5 A 1.738 1.738 0 0 0 25.117 4.087 A 1.629 1.629 0 0 0 24.833 5.023 A 2.272 2.272 0 0 0 24.843 5.237 A 1.63 1.63 0 0 0 25.389 6.344 A 1.895 1.895 0 0 0 26.24 6.771 A 2.797 2.797 0 0 0 26.868 6.838 A 2.796 2.796 0 0 0 27.467 6.777 A 1.925 1.925 0 0 0 28.343 6.346 A 1.578 1.578 0 0 0 28.817 5.62 A 1.989 1.989 0 0 0 28.903 5.023 A 1.581 1.581 0 0 0 28.611 4.087 Q 28.318 3.674 27.817 3.458 Q 28.248 3.248 28.501 2.874 A 1.449 1.449 0 0 0 28.65 2.592 Z M 49.562 0.844 L 50.375 0.844 L 50.375 1.995 L 51.262 1.995 L 51.262 2.624 L 50.375 2.624 L 50.375 5.572 Q 50.375 5.858 50.493 6.001 Q 50.612 6.144 50.897 6.144 A 1.046 1.046 0 0 0 50.995 6.138 Q 51.098 6.129 51.237 6.101 A 4.024 4.024 0 0 0 51.284 6.091 L 51.284 6.75 A 2.463 2.463 0 0 1 50.851 6.829 A 2.157 2.157 0 0 1 50.66 6.838 Q 50.213 6.838 49.946 6.616 A 0.856 0.856 0 0 1 49.838 6.508 Q 49.611 6.238 49.57 5.78 A 2.351 2.351 0 0 1 49.562 5.572 L 49.562 2.624 L 48.696 2.624 L 48.696 1.995 L 49.562 1.995 L 49.562 0.844 Z M 37.964 1.995 L 37.964 6.75 L 37.151 6.75 L 37.151 1.995 L 37.964 1.995 Z M 13.438 3.252 L 13.438 5.524 Q 13.803 6.174 14.555 6.174 A 1.184 1.184 0 0 0 15.02 6.086 Q 15.277 5.977 15.466 5.735 A 1.403 1.403 0 0 0 15.484 5.711 A 1.501 1.501 0 0 0 15.701 5.28 Q 15.769 5.073 15.801 4.818 A 3.91 3.91 0 0 0 15.829 4.333 Q 15.829 3.746 15.646 3.339 A 1.503 1.503 0 0 0 15.486 3.063 A 1.086 1.086 0 0 0 14.7 2.605 A 1.414 1.414 0 0 0 14.546 2.597 Q 13.885 2.597 13.52 3.121 A 1.623 1.623 0 0 0 13.438 3.252 Z M 42.271 5.449 L 42.271 3.278 A 1.439 1.439 0 0 0 41.97 2.891 Q 41.666 2.62 41.226 2.599 A 1.578 1.578 0 0 0 41.15 2.597 Q 40.559 2.597 40.225 3.056 A 1.51 1.51 0 0 0 40.014 3.484 Q 39.948 3.689 39.917 3.939 A 3.955 3.955 0 0 0 39.889 4.425 Q 39.889 5.229 40.219 5.689 Q 40.548 6.148 41.142 6.148 A 1.32 1.32 0 0 0 41.651 6.054 Q 42.043 5.891 42.271 5.449 Z M 22.337 1.639 L 20.443 4.601 L 22.434 4.601 L 22.434 1.463 L 22.337 1.639 Z M 28.09 5.005 A 1.375 1.375 0 0 0 28.03 4.592 A 1.109 1.109 0 0 0 27.749 4.131 A 1.148 1.148 0 0 0 27.078 3.807 A 1.593 1.593 0 0 0 26.859 3.792 A 1.466 1.466 0 0 0 26.471 3.841 A 1.086 1.086 0 0 0 25.978 4.126 A 1.123 1.123 0 0 0 25.665 4.762 A 1.572 1.572 0 0 0 25.646 5.005 A 1.48 1.48 0 0 0 25.688 5.367 A 1.019 1.019 0 0 0 25.969 5.862 Q 26.276 6.158 26.809 6.173 A 2.053 2.053 0 0 0 26.868 6.174 Q 27.362 6.174 27.672 5.94 A 1.018 1.018 0 0 0 27.765 5.86 A 1.041 1.041 0 0 0 28.064 5.292 A 1.518 1.518 0 0 0 28.09 5.005 Z M 26.868 0.932 A 1.259 1.259 0 0 0 26.515 0.979 A 0.973 0.973 0 0 0 26.093 1.228 Q 25.796 1.525 25.796 2.035 A 1.325 1.325 0 0 0 25.84 2.387 A 0.994 0.994 0 0 0 26.088 2.823 A 0.974 0.974 0 0 0 26.65 3.108 A 1.382 1.382 0 0 0 26.868 3.125 A 1.279 1.279 0 0 0 27.213 3.08 A 0.952 0.952 0 0 0 27.648 2.823 A 1.018 1.018 0 0 0 27.923 2.26 A 1.426 1.426 0 0 0 27.94 2.035 A 1.282 1.282 0 0 0 27.89 1.668 A 1.013 1.013 0 0 0 27.637 1.239 Q 27.334 0.932 26.868 0.932 Z M 10.538 5.418 L 10.538 4.443 L 9.901 4.443 Q 8.407 4.443 8.407 5.317 Q 8.407 5.7 8.662 5.915 A 0.893 0.893 0 0 0 9.075 6.108 A 1.259 1.259 0 0 0 9.316 6.13 A 1.429 1.429 0 0 0 10.042 5.933 A 1.335 1.335 0 0 0 10.337 5.705 A 1.108 1.108 0 0 0 10.538 5.418 Z M 37.085 0.734 Q 37.085 0.536 37.206 0.4 Q 37.318 0.274 37.53 0.264 A 0.783 0.783 0 0 1 37.564 0.264 Q 37.802 0.264 37.925 0.4 A 0.474 0.474 0 0 1 38.047 0.703 A 0.614 0.614 0 0 1 38.048 0.734 A 0.523 0.523 0 0 1 38.023 0.9 A 0.442 0.442 0 0 1 37.925 1.063 Q 37.812 1.184 37.604 1.194 A 0.803 0.803 0 0 1 37.564 1.195 Q 37.392 1.195 37.281 1.126 A 0.362 0.362 0 0 1 37.206 1.063 A 0.456 0.456 0 0 1 37.088 0.788 A 0.605 0.605 0 0 1 37.085 0.734 Z" vector-effect="non-scaling-stroke"/></g>
</svg>