<?xml version="1.0" encoding="UTF-8"?>
<svg width="48px" height="48px" viewBox="0 0 48 48" version="1.1" xmlns="http://www.w3.org/2000/svg" xmlns:xlink="http://www.w3.org/1999/xlink">
    <title>Icon-Resource/Front-End-Web-Mobile/Res_AWS-Amplify_AWS-Amplify-Studio_48_Dark</title>
    <g id="Icon-Resource/Front-End-Web-Mobile/Res_AWS-Amplify_AWS-Amplify-Studio_48" stroke="none" stroke-width="1" fill="none" fill-rule="evenodd">
        <path transform="translate(0vw, 0vh), scale(.65)" d="M6,11 L31,11 L31,9 L6,9 L6,11 Z M33,11 L41,11 L41,9 L33,9 L33,11 Z M14.213,27.861 C15.425,27.499 16.784,27.915 17.565,28.99 L20.365,32.868 C20.687,33.316 21.312,33.418 21.761,33.094 C22.209,32.771 22.31,32.146 21.986,31.697 L19.194,27.829 C19.191,27.825 19.188,27.821 19.186,27.817 L11.152,16.688 C10.821,16.228 10.925,15.584 11.385,15.251 C11.846,14.918 12.49,15.024 12.822,15.484 L16.806,21.003 C16.812,21.013 16.82,21.024 16.828,21.035 L21.138,27.006 C21.46,27.452 22.086,27.555 22.533,27.231 C22.981,26.908 23.082,26.283 22.759,25.835 L18.437,19.845 C18.121,19.387 18.229,18.755 18.682,18.427 C19.141,18.097 19.787,18.199 20.119,18.659 L21.079,19.99 C21.089,20.004 21.098,20.017 21.107,20.03 L24.428,24.631 C24.751,25.077 25.376,25.18 25.823,24.856 C26.271,24.533 26.372,23.908 26.049,23.46 L22.713,18.837 C22.563,18.618 22.505,18.355 22.547,18.093 C22.591,17.821 22.738,17.583 22.961,17.422 C23.186,17.262 23.458,17.199 23.728,17.241 C23.998,17.285 24.236,17.432 24.397,17.655 L25.708,19.471 C25.712,19.476 25.715,19.48 25.718,19.484 L28.335,23.11 C28.657,23.557 29.283,23.659 29.73,23.335 C30.179,23.012 30.279,22.386 29.956,21.939 L27.334,18.305 C27.009,17.845 27.114,17.206 27.571,16.876 C27.796,16.716 28.068,16.653 28.338,16.695 C28.608,16.739 28.847,16.886 29.008,17.109 L32.915,22.52 C32.934,22.549 34.789,25.444 35.261,27.381 C35.705,29.204 38.284,33.227 39.459,34.998 L30.423,41.521 C29.581,40.479 27.889,38.891 25.199,38.517 C22.293,38.114 20.299,36.189 20.019,35.906 L14.213,27.861 Z M30.771,43.736 L41.413,36.054 C41.853,35.737 41.96,35.127 41.654,34.679 C40.549,33.06 37.594,28.507 37.204,26.907 C36.652,24.642 34.68,21.566 34.566,21.393 L30.63,15.939 C30.156,15.282 29.456,14.85 28.657,14.721 C27.855,14.592 27.057,14.781 26.401,15.255 C26.092,15.478 25.837,15.749 25.64,16.051 C25.203,15.638 24.653,15.365 24.047,15.267 C23.245,15.137 22.446,15.327 21.791,15.8 C21.442,16.052 21.156,16.368 20.945,16.729 C19.926,16.062 18.555,16.052 17.512,16.806 C17.219,17.017 16.975,17.272 16.782,17.554 L14.443,14.313 C13.465,12.958 11.565,12.652 10.215,13.63 C8.86,14.608 8.554,16.504 9.531,17.859 L15.217,25.736 C14.125,25.689 13.063,26.017 12.134,26.688 C11.919,26.843 11.773,27.078 11.731,27.34 C11.689,27.601 11.753,27.869 11.908,28.084 L18.438,37.133 C18.461,37.165 18.486,37.196 18.513,37.225 C18.615,37.336 21.068,39.964 24.924,40.499 C27.896,40.911 29.252,43.303 29.306,43.401 C29.442,43.654 29.682,43.836 29.962,43.9 C30.036,43.917 30.111,43.925 30.186,43.925 C30.394,43.925 30.599,43.86 30.771,43.736 L30.771,43.736 Z M45,18 L35,18 L35,16 L44,16 L44,6 L4,5.925 L4,16 L7,16 L7,18 L3,18 C2.447,18 2,17.552 2,17 L2,5 C2,4.447 2.447,4 3,4 L45,4 C45.553,4 46,4.447 46,5 L46,17 C46,17.552 45.553,18 45,18 L45,18 Z" id="Fill-1" fill="#000000"></path>
    </g><g transform="translate(33vw, 80vh)" id="svgGroup" stroke-linecap="round" fill-rule="evenodd" font-size="9pt" stroke="#000" stroke-width="0.25mm" fill="#000" style="stroke:#000;stroke-width:0.25mm;fill:#000"><path d="M 23.12 0.088 L 24.13 4.469 L 24.253 5.313 L 24.434 4.553 L 25.699 0.088 L 26.411 0.088 L 27.646 4.553 L 27.822 5.326 L 27.958 4.465 L 28.951 0.088 L 29.799 0.088 L 28.248 6.486 L 27.479 6.486 L 26.161 1.824 L 26.06 1.336 L 25.958 1.824 L 24.592 6.486 L 23.823 6.486 L 22.276 0.088 L 23.12 0.088 Z M 34.98 1.938 L 34.132 1.938 A 1.466 1.466 0 0 0 34.083 1.546 A 1.066 1.066 0 0 0 33.763 1.026 A 1.211 1.211 0 0 0 33.294 0.77 Q 33.042 0.694 32.722 0.694 A 2.286 2.286 0 0 0 32.342 0.724 Q 32.14 0.758 31.977 0.831 A 1.101 1.101 0 0 0 31.748 0.969 A 0.892 0.892 0 0 0 31.403 1.624 A 1.267 1.267 0 0 0 31.399 1.732 A 0.806 0.806 0 0 0 31.667 2.337 A 1.134 1.134 0 0 0 31.731 2.393 A 1.562 1.562 0 0 0 31.969 2.549 Q 32.299 2.73 32.86 2.887 A 8.228 8.228 0 0 1 33.325 3.032 Q 33.56 3.113 33.754 3.2 A 3.297 3.297 0 0 1 34.108 3.382 A 2.342 2.342 0 0 1 34.447 3.626 Q 34.637 3.792 34.759 3.985 A 1.45 1.45 0 0 1 34.776 4.012 A 1.498 1.498 0 0 1 34.972 4.568 A 1.948 1.948 0 0 1 34.994 4.86 A 1.606 1.606 0 0 1 34.871 5.497 Q 34.726 5.838 34.408 6.09 A 1.886 1.886 0 0 1 34.387 6.106 Q 33.781 6.574 32.766 6.574 A 3.023 3.023 0 0 1 31.625 6.36 A 2.917 2.917 0 0 1 31.535 6.322 A 2.383 2.383 0 0 1 31.057 6.044 A 1.874 1.874 0 0 1 30.654 5.629 A 1.689 1.689 0 0 1 30.344 4.632 L 31.192 4.632 A 1.261 1.261 0 0 0 31.262 5.059 A 1.074 1.074 0 0 0 31.621 5.548 Q 32.005 5.85 32.622 5.881 A 2.87 2.87 0 0 0 32.766 5.884 A 2.628 2.628 0 0 0 33.153 5.858 Q 33.349 5.828 33.508 5.767 A 1.129 1.129 0 0 0 33.79 5.612 Q 34.146 5.339 34.146 4.869 A 1.074 1.074 0 0 0 34.103 4.559 A 0.816 0.816 0 0 0 33.816 4.142 Q 33.486 3.885 32.621 3.634 Q 31.535 3.322 31.041 2.868 Q 30.546 2.413 30.546 1.745 Q 30.546 0.989 31.151 0.494 A 2.121 2.121 0 0 1 32.041 0.071 A 3.087 3.087 0 0 1 32.722 0 A 2.913 2.913 0 0 1 33.382 0.072 A 2.372 2.372 0 0 1 33.897 0.255 A 2.051 2.051 0 0 1 34.428 0.626 A 1.834 1.834 0 0 1 34.697 0.958 A 1.798 1.798 0 0 1 34.98 1.938 Z M 3.74 6.486 L 2.351 3.898 L 0.848 3.898 L 0.848 6.486 L 0 6.486 L 0 0.088 L 2.118 0.088 A 3.809 3.809 0 0 1 2.76 0.138 Q 3.102 0.197 3.376 0.324 A 1.789 1.789 0 0 1 3.781 0.58 A 1.588 1.588 0 0 1 4.307 1.469 A 2.453 2.453 0 0 1 4.364 2.013 A 1.864 1.864 0 0 1 4.273 2.604 A 1.64 1.64 0 0 1 4.041 3.054 A 1.849 1.849 0 0 1 3.382 3.611 A 2.342 2.342 0 0 1 3.142 3.718 L 4.645 6.434 L 4.645 6.486 L 3.74 6.486 Z M 13.724 3.129 L 12.907 3.129 Q 12.907 2.795 12.623 2.553 Q 12.34 2.312 11.909 2.312 Q 11.465 2.312 11.215 2.505 A 0.653 0.653 0 0 0 11.04 2.704 Q 10.967 2.835 10.964 3 A 0.771 0.771 0 0 0 10.964 3.01 A 0.588 0.588 0 0 0 10.994 3.203 A 0.48 0.48 0 0 0 11.197 3.454 A 1.093 1.093 0 0 0 11.348 3.533 Q 11.512 3.605 11.767 3.673 A 6.581 6.581 0 0 0 12.039 3.74 A 6.318 6.318 0 0 1 12.446 3.845 Q 12.783 3.944 13.025 4.065 A 1.901 1.901 0 0 1 13.281 4.218 Q 13.418 4.315 13.516 4.429 A 1.06 1.06 0 0 1 13.586 4.52 A 1.024 1.024 0 0 1 13.748 4.927 A 1.388 1.388 0 0 1 13.768 5.168 Q 13.768 5.805 13.258 6.19 Q 12.776 6.554 12.022 6.573 A 3.337 3.337 0 0 1 11.936 6.574 A 2.746 2.746 0 0 1 11.401 6.525 A 2.124 2.124 0 0 1 10.925 6.372 A 1.771 1.771 0 0 1 10.491 6.094 A 1.54 1.54 0 0 1 10.237 5.807 Q 9.989 5.445 9.989 5.023 L 10.802 5.023 A 0.932 0.932 0 0 0 10.875 5.348 A 0.827 0.827 0 0 0 11.129 5.671 A 1.072 1.072 0 0 0 11.531 5.864 Q 11.686 5.903 11.867 5.91 A 2.013 2.013 0 0 0 11.936 5.911 A 1.863 1.863 0 0 0 12.231 5.889 Q 12.393 5.863 12.524 5.806 A 0.941 0.941 0 0 0 12.676 5.724 A 0.689 0.689 0 0 0 12.841 5.574 A 0.554 0.554 0 0 0 12.955 5.225 A 0.698 0.698 0 0 0 12.919 4.994 A 0.581 0.581 0 0 0 12.707 4.713 A 1.05 1.05 0 0 0 12.538 4.615 Q 12.349 4.524 12.054 4.449 A 5.392 5.392 0 0 0 11.841 4.399 A 6.342 6.342 0 0 1 11.48 4.311 Q 11.11 4.209 10.861 4.083 Q 10.562 3.93 10.392 3.731 A 1.017 1.017 0 0 1 10.325 3.643 Q 10.151 3.388 10.151 3.037 A 1.206 1.206 0 0 1 10.55 2.132 A 1.694 1.694 0 0 1 10.646 2.048 A 1.752 1.752 0 0 1 11.429 1.688 A 2.471 2.471 0 0 1 11.909 1.644 A 2.559 2.559 0 0 1 12.473 1.702 A 1.757 1.757 0 0 1 13.221 2.061 Q 13.724 2.479 13.724 3.129 Z M 21.327 6.486 L 20.716 4.816 L 18.035 4.816 L 17.433 6.486 L 16.563 6.486 L 19.006 0.088 L 19.745 0.088 L 22.192 6.486 L 21.327 6.486 Z M 5.212 4.241 L 5.212 4.091 A 3.17 3.17 0 0 1 5.288 3.382 A 2.581 2.581 0 0 1 5.482 2.828 A 2.191 2.191 0 0 1 5.93 2.202 A 2.033 2.033 0 0 1 6.238 1.958 Q 6.724 1.644 7.291 1.644 A 2.254 2.254 0 0 1 7.904 1.723 A 1.639 1.639 0 0 1 8.732 2.254 Q 9.246 2.865 9.246 4.003 L 9.246 4.342 L 6.025 4.342 A 2.111 2.111 0 0 0 6.096 4.85 A 1.516 1.516 0 0 0 6.436 5.478 A 1.282 1.282 0 0 0 7.37 5.909 A 1.652 1.652 0 0 0 7.436 5.911 A 1.763 1.763 0 0 0 7.764 5.882 Q 7.988 5.839 8.165 5.735 A 1.827 1.827 0 0 0 8.674 5.287 A 2.068 2.068 0 0 0 8.688 5.269 L 9.185 5.656 A 1.926 1.926 0 0 1 7.785 6.547 A 2.749 2.749 0 0 1 7.392 6.574 A 2.394 2.394 0 0 1 6.64 6.461 A 1.974 1.974 0 0 1 5.818 5.939 Q 5.212 5.304 5.212 4.241 Z M 0.848 0.782 L 0.848 3.208 L 2.145 3.208 Q 2.685 3.208 3.035 2.968 A 1.174 1.174 0 0 0 3.144 2.883 A 1.069 1.069 0 0 0 3.51 2.146 A 1.486 1.486 0 0 0 3.516 2.013 Q 3.516 1.47 3.22 1.159 A 1 1 0 0 0 3.162 1.103 Q 2.808 0.787 2.14 0.782 L 0.848 0.782 Z M 19.375 1.129 L 18.29 4.122 L 20.465 4.122 L 19.375 1.129 Z M 6.051 3.674 L 8.433 3.674 L 8.433 3.612 Q 8.407 3.153 8.236 2.848 A 1.13 1.13 0 0 0 8.099 2.652 A 0.983 0.983 0 0 0 7.445 2.32 A 1.39 1.39 0 0 0 7.291 2.312 A 1.106 1.106 0 0 0 6.768 2.435 A 1.14 1.14 0 0 0 6.464 2.67 A 1.417 1.417 0 0 0 6.188 3.116 Q 6.114 3.3 6.074 3.522 A 2.741 2.741 0 0 0 6.051 3.674 Z" vector-effect="non-scaling-stroke"/></g><g transform="translate(12vw, 90vh)" id="svgGroup" stroke-linecap="round" fill-rule="evenodd" font-size="9pt" stroke="#000" stroke-width="0.25mm" fill="#000" style="stroke:#000;stroke-width:0.25mm;fill:#000"><path d="M 39.344 0.444 L 40.355 4.825 L 40.478 5.669 L 40.658 4.909 L 41.924 0.444 L 42.636 0.444 L 43.871 4.909 L 44.046 5.682 L 44.183 4.821 L 45.176 0.444 L 46.024 0.444 L 44.473 6.842 L 43.704 6.842 L 42.385 2.18 L 42.284 1.692 L 42.183 2.18 L 40.816 6.842 L 40.047 6.842 L 38.5 0.444 L 39.344 0.444 Z M 6.359 2.087 L 7.128 2.087 L 7.15 2.615 Q 7.673 2 8.561 2 A 2.009 2.009 0 0 1 9.071 2.06 A 1.244 1.244 0 0 1 9.918 2.764 A 1.801 1.801 0 0 1 10.536 2.21 A 1.65 1.65 0 0 1 11.065 2.029 A 2.209 2.209 0 0 1 11.435 2 A 2.119 2.119 0 0 1 12.079 2.089 Q 13.005 2.385 13.025 3.656 L 13.025 6.842 L 12.212 6.842 L 12.212 3.705 A 1.781 1.781 0 0 0 12.192 3.425 Q 12.168 3.277 12.118 3.159 A 0.758 0.758 0 0 0 11.979 2.942 A 0.68 0.68 0 0 0 11.727 2.774 Q 11.515 2.69 11.198 2.689 A 1.245 1.245 0 0 0 10.832 2.741 A 1.008 1.008 0 0 0 10.446 2.96 A 1.042 1.042 0 0 0 10.132 3.496 A 1.41 1.41 0 0 0 10.099 3.687 L 10.099 6.842 L 9.281 6.842 L 9.281 3.727 A 1.532 1.532 0 0 0 9.233 3.322 Q 9.106 2.86 8.649 2.735 A 1.457 1.457 0 0 0 8.266 2.689 Q 7.493 2.689 7.192 3.327 A 1.459 1.459 0 0 0 7.172 3.371 L 7.172 6.842 L 6.359 6.842 L 6.359 2.087 Z M 60.267 2.087 L 61.036 2.087 L 61.058 2.615 Q 61.581 2 62.468 2 A 2.009 2.009 0 0 1 62.979 2.06 A 1.244 1.244 0 0 1 63.826 2.764 A 1.801 1.801 0 0 1 64.444 2.21 A 1.65 1.65 0 0 1 64.973 2.029 A 2.209 2.209 0 0 1 65.342 2 A 2.119 2.119 0 0 1 65.986 2.089 Q 66.913 2.385 66.933 3.656 L 66.933 6.842 L 66.12 6.842 L 66.12 3.705 A 1.781 1.781 0 0 0 66.1 3.425 Q 66.076 3.277 66.025 3.159 A 0.758 0.758 0 0 0 65.887 2.942 A 0.68 0.68 0 0 0 65.634 2.774 Q 65.423 2.69 65.106 2.689 A 1.245 1.245 0 0 0 64.74 2.741 A 1.008 1.008 0 0 0 64.354 2.96 A 1.042 1.042 0 0 0 64.039 3.496 A 1.41 1.41 0 0 0 64.006 3.687 L 64.006 6.842 L 63.189 6.842 L 63.189 3.727 A 1.532 1.532 0 0 0 63.14 3.322 Q 63.014 2.86 62.556 2.735 A 1.457 1.457 0 0 0 62.174 2.689 Q 61.4 2.689 61.099 3.327 A 1.459 1.459 0 0 0 61.08 3.371 L 61.08 6.842 L 60.267 6.842 L 60.267 2.087 Z M 51.205 2.294 L 50.357 2.294 A 1.466 1.466 0 0 0 50.307 1.901 A 1.066 1.066 0 0 0 49.988 1.382 A 1.211 1.211 0 0 0 49.518 1.126 Q 49.267 1.05 48.946 1.05 A 2.286 2.286 0 0 0 48.566 1.08 Q 48.365 1.114 48.202 1.187 A 1.101 1.101 0 0 0 47.973 1.325 A 0.892 0.892 0 0 0 47.628 1.98 A 1.267 1.267 0 0 0 47.624 2.087 A 0.806 0.806 0 0 0 47.891 2.693 A 1.134 1.134 0 0 0 47.955 2.749 A 1.562 1.562 0 0 0 48.193 2.905 Q 48.524 3.086 49.085 3.243 A 8.228 8.228 0 0 1 49.549 3.388 Q 49.784 3.469 49.979 3.556 A 3.297 3.297 0 0 1 50.333 3.738 A 2.342 2.342 0 0 1 50.671 3.982 Q 50.861 4.148 50.984 4.341 A 1.45 1.45 0 0 1 51.001 4.368 A 1.498 1.498 0 0 1 51.197 4.924 A 1.948 1.948 0 0 1 51.218 5.216 A 1.606 1.606 0 0 1 51.096 5.853 Q 50.951 6.193 50.633 6.446 A 1.886 1.886 0 0 1 50.612 6.462 Q 50.005 6.93 48.99 6.93 A 3.023 3.023 0 0 1 47.85 6.715 A 2.917 2.917 0 0 1 47.76 6.677 A 2.383 2.383 0 0 1 47.282 6.4 A 1.874 1.874 0 0 1 46.879 5.985 A 1.689 1.689 0 0 1 46.569 4.988 L 47.417 4.988 A 1.261 1.261 0 0 0 47.486 5.415 A 1.074 1.074 0 0 0 47.845 5.904 Q 48.23 6.206 48.846 6.237 A 2.87 2.87 0 0 0 48.99 6.24 A 2.628 2.628 0 0 0 49.377 6.214 Q 49.573 6.184 49.733 6.123 A 1.129 1.129 0 0 0 50.014 5.968 Q 50.37 5.695 50.37 5.225 A 1.074 1.074 0 0 0 50.328 4.915 A 0.816 0.816 0 0 0 50.041 4.498 Q 49.711 4.241 48.845 3.99 Q 47.76 3.678 47.265 3.223 Q 46.771 2.769 46.771 2.101 Q 46.771 1.345 47.375 0.85 A 2.121 2.121 0 0 1 48.266 0.427 A 3.087 3.087 0 0 1 48.946 0.356 A 2.913 2.913 0 0 1 49.606 0.428 A 2.372 2.372 0 0 1 50.122 0.611 A 2.051 2.051 0 0 1 50.653 0.982 A 1.834 1.834 0 0 1 50.922 1.314 A 1.798 1.798 0 0 1 51.205 2.294 Z M 91.56 2.294 L 90.712 2.294 A 1.466 1.466 0 0 0 90.662 1.901 A 1.066 1.066 0 0 0 90.343 1.382 A 1.211 1.211 0 0 0 89.873 1.126 Q 89.622 1.05 89.301 1.05 A 2.286 2.286 0 0 0 88.921 1.08 Q 88.72 1.114 88.557 1.187 A 1.101 1.101 0 0 0 88.328 1.325 A 0.892 0.892 0 0 0 87.983 1.98 A 1.267 1.267 0 0 0 87.979 2.087 A 0.806 0.806 0 0 0 88.246 2.693 A 1.134 1.134 0 0 0 88.31 2.749 A 1.562 1.562 0 0 0 88.548 2.905 Q 88.879 3.086 89.44 3.243 A 8.228 8.228 0 0 1 89.904 3.388 Q 90.139 3.469 90.334 3.556 A 3.297 3.297 0 0 1 90.688 3.738 A 2.342 2.342 0 0 1 91.026 3.982 Q 91.216 4.148 91.339 4.341 A 1.45 1.45 0 0 1 91.356 4.368 A 1.498 1.498 0 0 1 91.552 4.924 A 1.948 1.948 0 0 1 91.573 5.216 A 1.606 1.606 0 0 1 91.451 5.853 Q 91.306 6.193 90.987 6.446 A 1.886 1.886 0 0 1 90.967 6.462 Q 90.36 6.93 89.345 6.93 A 3.023 3.023 0 0 1 88.205 6.715 A 2.917 2.917 0 0 1 88.115 6.677 A 2.383 2.383 0 0 1 87.637 6.4 A 1.874 1.874 0 0 1 87.234 5.985 A 1.689 1.689 0 0 1 86.924 4.988 L 87.772 4.988 A 1.261 1.261 0 0 0 87.841 5.415 A 1.074 1.074 0 0 0 88.2 5.904 Q 88.585 6.206 89.201 6.237 A 2.87 2.87 0 0 0 89.345 6.24 A 2.628 2.628 0 0 0 89.732 6.214 Q 89.928 6.184 90.088 6.123 A 1.129 1.129 0 0 0 90.369 5.968 Q 90.725 5.695 90.725 5.225 A 1.074 1.074 0 0 0 90.683 4.915 A 0.816 0.816 0 0 0 90.396 4.498 Q 90.066 4.241 89.2 3.99 Q 88.115 3.678 87.62 3.223 Q 87.126 2.769 87.126 2.101 Q 87.126 1.345 87.73 0.85 A 2.121 2.121 0 0 1 88.621 0.427 A 3.087 3.087 0 0 1 89.301 0.356 A 2.913 2.913 0 0 1 89.961 0.428 A 2.372 2.372 0 0 1 90.477 0.611 A 2.051 2.051 0 0 1 91.008 0.982 A 1.834 1.834 0 0 1 91.277 1.314 A 1.798 1.798 0 0 1 91.56 2.294 Z M 144.211 6.842 L 142.554 4.641 L 142.044 5.172 L 142.044 6.842 L 141.231 6.842 L 141.231 0.092 L 142.044 0.092 L 142.044 4.175 L 142.479 3.652 L 143.96 2.087 L 144.949 2.087 L 143.099 4.074 L 145.165 6.842 L 144.211 6.842 Z M 27.163 2.087 L 28.349 5.651 L 29.457 2.087 L 30.327 2.087 L 28.415 7.576 Q 27.971 8.763 27.004 8.763 L 26.851 8.75 L 26.547 8.692 L 26.547 8.033 L 26.767 8.051 Q 27.047 8.051 27.243 7.974 A 0.75 0.75 0 0 0 27.411 7.884 A 0.749 0.749 0 0 0 27.571 7.722 Q 27.689 7.563 27.779 7.307 A 2.575 2.575 0 0 0 27.791 7.273 L 27.971 6.79 L 26.275 2.087 L 27.163 2.087 Z M 81.07 2.087 L 82.257 5.651 L 83.364 2.087 L 84.234 2.087 L 82.323 7.576 Q 81.879 8.763 80.912 8.763 L 80.758 8.75 L 80.455 8.692 L 80.455 8.033 L 80.675 8.051 Q 80.955 8.051 81.151 7.974 A 0.75 0.75 0 0 0 81.319 7.884 A 0.749 0.749 0 0 0 81.479 7.722 Q 81.597 7.563 81.687 7.307 A 2.575 2.575 0 0 0 81.699 7.273 L 81.879 6.79 L 80.183 2.087 L 81.07 2.087 Z M 98.42 6.842 L 98.402 6.372 A 1.526 1.526 0 0 1 97.576 6.867 Q 97.326 6.928 97.029 6.93 A 2.996 2.996 0 0 1 97.009 6.93 A 2.086 2.086 0 0 1 96.549 6.883 Q 96.119 6.785 95.851 6.489 A 1.41 1.41 0 0 1 95.568 5.991 Q 95.452 5.648 95.449 5.181 L 95.449 2.087 L 96.262 2.087 L 96.262 5.159 Q 96.262 6.129 96.97 6.229 A 1.229 1.229 0 0 0 97.141 6.24 A 1.927 1.927 0 0 0 97.592 6.191 Q 98.154 6.056 98.38 5.546 L 98.38 2.087 L 99.193 2.087 L 99.193 6.842 L 98.42 6.842 Z M 4.764 6.842 L 4.153 5.172 L 1.472 5.172 L 0.87 6.842 L 0 6.842 L 2.443 0.444 L 3.182 0.444 L 5.629 6.842 L 4.764 6.842 Z M 37.551 6.842 L 36.94 5.172 L 34.26 5.172 L 33.658 6.842 L 32.788 6.842 L 35.231 0.444 L 35.969 0.444 L 38.417 6.842 L 37.551 6.842 Z M 58.671 6.842 L 58.061 5.172 L 55.38 5.172 L 54.778 6.842 L 53.908 6.842 L 56.351 0.444 L 57.089 0.444 L 59.537 6.842 L 58.671 6.842 Z M 137.074 6.842 L 136.222 6.842 A 0.632 0.632 0 0 1 136.186 6.752 Q 136.155 6.654 136.13 6.502 A 3.997 3.997 0 0 1 136.107 6.341 Q 135.541 6.93 134.754 6.93 A 2.033 2.033 0 0 1 134.225 6.865 A 1.529 1.529 0 0 1 133.6 6.532 Q 133.15 6.135 133.15 5.524 Q 133.15 4.781 133.715 4.37 Q 134.279 3.959 135.303 3.959 L 136.094 3.959 L 136.094 3.586 A 1.152 1.152 0 0 0 136.058 3.291 A 0.828 0.828 0 0 0 135.839 2.907 Q 135.623 2.693 135.233 2.66 A 1.748 1.748 0 0 0 135.088 2.654 Q 134.653 2.654 134.358 2.874 Q 134.064 3.094 134.064 3.406 L 133.247 3.406 A 1.041 1.041 0 0 1 133.372 2.917 A 1.409 1.409 0 0 1 133.499 2.718 Q 133.752 2.386 134.185 2.193 A 2.249 2.249 0 0 1 134.961 2.005 A 2.669 2.669 0 0 1 135.136 2 A 2.65 2.65 0 0 1 135.654 2.047 Q 135.961 2.108 136.2 2.248 A 1.439 1.439 0 0 1 136.424 2.41 A 1.396 1.396 0 0 1 136.877 3.236 A 1.998 1.998 0 0 1 136.907 3.542 L 136.907 5.73 Q 136.907 6.165 136.981 6.482 A 1.707 1.707 0 0 0 137.074 6.772 L 137.074 6.842 Z M 100.23 4.487 L 100.23 4.425 A 3.762 3.762 0 0 1 100.297 3.694 Q 100.385 3.252 100.588 2.904 A 2.148 2.148 0 0 1 100.749 2.665 Q 101.268 2 102.107 2 A 1.964 1.964 0 0 1 102.705 2.086 A 1.559 1.559 0 0 1 103.43 2.571 L 103.43 0.092 L 104.243 0.092 L 104.243 6.842 L 103.496 6.842 L 103.456 6.333 Q 102.968 6.93 102.098 6.93 A 1.6 1.6 0 0 1 100.877 6.403 A 2.078 2.078 0 0 1 100.751 6.253 A 2.405 2.405 0 0 1 100.327 5.347 Q 100.242 5.004 100.232 4.603 A 4.425 4.425 0 0 1 100.23 4.487 Z M 18.268 4.443 L 18.268 4.518 Q 18.268 5.603 17.771 6.267 A 1.57 1.57 0 0 1 16.633 6.92 A 2.013 2.013 0 0 1 16.427 6.93 A 2.196 2.196 0 0 1 15.841 6.856 A 1.598 1.598 0 0 1 15.064 6.381 L 15.064 8.67 L 14.251 8.67 L 14.251 2.087 L 14.994 2.087 L 15.034 2.615 A 1.619 1.619 0 0 1 16.173 2.012 A 2.319 2.319 0 0 1 16.414 2 A 1.829 1.829 0 0 1 17.051 2.106 A 1.597 1.597 0 0 1 17.769 2.646 Q 18.268 3.292 18.268 4.443 Z M 72.176 4.443 L 72.176 4.518 Q 72.176 5.603 71.679 6.267 A 1.57 1.57 0 0 1 70.541 6.92 A 2.013 2.013 0 0 1 70.334 6.93 A 2.196 2.196 0 0 1 69.748 6.856 A 1.598 1.598 0 0 1 68.972 6.381 L 68.972 8.67 L 68.159 8.67 L 68.159 2.087 L 68.902 2.087 L 68.941 2.615 A 1.619 1.619 0 0 1 70.081 2.012 A 2.319 2.319 0 0 1 70.321 2 A 1.829 1.829 0 0 1 70.958 2.106 A 1.597 1.597 0 0 1 71.677 2.646 Q 72.176 3.292 72.176 4.443 Z M 24.882 6.842 L 24.069 6.842 L 24.069 2.716 L 23.317 2.716 L 23.317 2.087 L 24.069 2.087 L 24.069 1.6 Q 24.069 1.012 24.311 0.629 A 1.273 1.273 0 0 1 24.478 0.417 Q 24.886 0 25.633 0 A 2.134 2.134 0 0 1 26.191 0.075 L 26.147 0.734 Q 25.941 0.694 25.708 0.694 A 1.086 1.086 0 0 0 25.46 0.721 Q 25.239 0.773 25.097 0.925 A 0.747 0.747 0 0 0 24.931 1.221 Q 24.896 1.336 24.886 1.475 A 1.57 1.57 0 0 0 24.882 1.586 L 24.882 2.087 L 25.897 2.087 L 25.897 2.716 L 24.882 2.716 L 24.882 6.842 Z M 78.79 6.842 L 77.977 6.842 L 77.977 2.716 L 77.225 2.716 L 77.225 2.087 L 77.977 2.087 L 77.977 1.6 Q 77.977 1.012 78.218 0.629 A 1.273 1.273 0 0 1 78.385 0.417 Q 78.794 0 79.541 0 A 2.134 2.134 0 0 1 80.099 0.075 L 80.055 0.734 Q 79.849 0.694 79.616 0.694 A 1.086 1.086 0 0 0 79.368 0.721 Q 79.147 0.773 79.005 0.925 A 0.747 0.747 0 0 0 78.838 1.221 Q 78.803 1.336 78.793 1.475 A 1.57 1.57 0 0 0 78.79 1.586 L 78.79 2.087 L 79.805 2.087 L 79.805 2.716 L 78.79 2.716 L 78.79 6.842 Z M 118.397 0.444 L 118.397 4.693 L 119.285 4.693 L 119.285 5.357 L 118.397 5.357 L 118.397 6.842 L 117.58 6.842 L 117.58 5.357 L 114.667 5.357 L 114.667 4.878 L 117.532 0.444 L 118.397 0.444 Z M 129.283 6.842 L 127.512 6.842 L 127.512 0.444 L 129.318 0.444 Q 130.153 0.444 130.794 0.813 Q 131.436 1.182 131.785 1.863 A 3.19 3.19 0 0 1 132.102 2.892 A 4.073 4.073 0 0 1 132.139 3.428 L 132.139 3.836 Q 132.139 4.742 131.79 5.423 A 2.457 2.457 0 0 1 130.792 6.469 Q 130.144 6.833 129.283 6.842 Z M 123.796 2.684 A 1.544 1.544 0 0 0 123.899 2.114 A 2.226 2.226 0 0 0 123.878 1.799 A 1.566 1.566 0 0 0 123.379 0.831 A 1.754 1.754 0 0 0 122.613 0.426 A 2.443 2.443 0 0 0 122.014 0.356 A 2.539 2.539 0 0 0 121.505 0.405 A 1.767 1.767 0 0 0 120.647 0.831 Q 120.129 1.305 120.129 2.114 A 1.808 1.808 0 0 0 120.129 2.151 A 1.499 1.499 0 0 0 120.375 2.962 A 1.626 1.626 0 0 0 120.537 3.169 A 1.726 1.726 0 0 0 121.047 3.546 A 2.119 2.119 0 0 0 120.948 3.592 A 1.738 1.738 0 0 0 120.263 4.179 A 1.629 1.629 0 0 0 119.979 5.115 A 2.272 2.272 0 0 0 119.989 5.329 A 1.63 1.63 0 0 0 120.535 6.436 A 1.895 1.895 0 0 0 121.386 6.864 A 2.797 2.797 0 0 0 122.014 6.93 A 2.796 2.796 0 0 0 122.613 6.869 A 1.925 1.925 0 0 0 123.489 6.438 A 1.578 1.578 0 0 0 123.963 5.712 A 1.989 1.989 0 0 0 124.049 5.115 A 1.581 1.581 0 0 0 123.757 4.179 Q 123.464 3.766 122.963 3.551 Q 123.394 3.34 123.647 2.966 A 1.449 1.449 0 0 0 123.796 2.684 Z M 92.817 0.936 L 93.63 0.936 L 93.63 2.087 L 94.518 2.087 L 94.518 2.716 L 93.63 2.716 L 93.63 5.665 Q 93.63 5.95 93.749 6.093 Q 93.867 6.236 94.153 6.236 A 1.046 1.046 0 0 0 94.25 6.231 Q 94.353 6.221 94.493 6.193 A 4.024 4.024 0 0 0 94.54 6.183 L 94.54 6.842 A 2.463 2.463 0 0 1 94.107 6.922 A 2.157 2.157 0 0 1 93.916 6.93 Q 93.468 6.93 93.202 6.708 A 0.856 0.856 0 0 1 93.094 6.601 Q 92.866 6.33 92.826 5.872 A 2.351 2.351 0 0 1 92.817 5.665 L 92.817 2.716 L 91.951 2.716 L 91.951 2.087 L 92.817 2.087 L 92.817 0.936 Z M 20.184 0.092 L 20.184 6.842 L 19.371 6.842 L 19.371 0.092 L 20.184 0.092 Z M 74.092 0.092 L 74.092 6.842 L 73.279 6.842 L 73.279 0.092 L 74.092 0.092 Z M 107.473 4.478 L 107.473 4.421 A 3.057 3.057 0 0 1 107.56 3.679 A 2.573 2.573 0 0 1 107.747 3.164 A 2.16 2.16 0 0 1 108.162 2.579 A 1.957 1.957 0 0 1 108.512 2.303 A 2.036 2.036 0 0 1 109.456 2.006 A 2.491 2.491 0 0 1 109.63 2 A 2.277 2.277 0 0 1 110.384 2.119 A 1.937 1.937 0 0 1 111.201 2.672 A 2.29 2.29 0 0 1 111.72 3.701 A 3.373 3.373 0 0 1 111.801 4.46 L 111.801 4.518 A 3.114 3.114 0 0 1 111.722 5.234 A 2.577 2.577 0 0 1 111.535 5.763 A 2.056 2.056 0 0 1 111.008 6.454 A 2.001 2.001 0 0 1 110.775 6.623 A 2.045 2.045 0 0 1 109.855 6.921 A 2.529 2.529 0 0 1 109.639 6.93 A 2.262 2.262 0 0 1 108.889 6.811 A 1.938 1.938 0 0 1 108.073 6.258 A 2.297 2.297 0 0 1 107.547 5.203 A 3.357 3.357 0 0 1 107.473 4.478 Z M 140.48 2.061 L 140.48 2.817 A 2.251 2.251 0 0 0 140.237 2.79 A 2.782 2.782 0 0 0 140.08 2.786 Q 139.302 2.786 139.011 3.43 A 1.445 1.445 0 0 0 138.995 3.467 L 138.995 6.842 L 138.182 6.842 L 138.182 2.087 L 138.973 2.087 L 138.986 2.637 Q 139.366 2.031 140.049 2.001 A 1.636 1.636 0 0 1 140.12 2 Q 140.357 2 140.48 2.061 Z M 129.34 1.138 L 128.355 1.138 L 128.355 6.152 L 129.243 6.152 A 2.519 2.519 0 0 0 129.876 6.077 A 1.747 1.747 0 0 0 130.761 5.546 Q 131.221 5.033 131.291 4.151 A 4.165 4.165 0 0 0 131.304 3.819 L 131.304 3.445 Q 131.304 2.654 131.035 2.119 A 1.864 1.864 0 0 0 130.792 1.751 A 1.687 1.687 0 0 0 129.796 1.182 A 2.499 2.499 0 0 0 129.34 1.138 Z M 22.368 2.087 L 22.368 6.842 L 21.555 6.842 L 21.555 2.087 L 22.368 2.087 Z M 76.276 2.087 L 76.276 6.842 L 75.463 6.842 L 75.463 2.087 L 76.276 2.087 Z M 106.387 2.087 L 106.387 6.842 L 105.574 6.842 L 105.574 2.087 L 106.387 2.087 Z M 108.29 4.518 A 2.772 2.772 0 0 0 108.337 5.046 Q 108.398 5.357 108.535 5.602 A 1.545 1.545 0 0 0 108.657 5.788 Q 109.024 6.267 109.639 6.267 A 1.269 1.269 0 0 0 110.129 6.175 Q 110.408 6.06 110.611 5.798 A 1.471 1.471 0 0 0 110.624 5.781 A 1.648 1.648 0 0 0 110.878 5.264 Q 110.947 5.037 110.973 4.764 A 3.655 3.655 0 0 0 110.988 4.421 A 2.687 2.687 0 0 0 110.937 3.881 Q 110.869 3.551 110.712 3.292 A 1.586 1.586 0 0 0 110.617 3.153 A 1.231 1.231 0 0 0 110.202 2.798 Q 109.949 2.667 109.63 2.667 Q 109.04 2.667 108.674 3.127 A 1.515 1.515 0 0 0 108.659 3.146 A 1.589 1.589 0 0 0 108.407 3.644 Q 108.338 3.864 108.309 4.131 A 3.676 3.676 0 0 0 108.29 4.518 Z M 15.064 3.344 L 15.064 5.616 Q 15.429 6.267 16.181 6.267 A 1.184 1.184 0 0 0 16.646 6.178 Q 16.903 6.069 17.092 5.827 A 1.403 1.403 0 0 0 17.11 5.803 A 1.501 1.501 0 0 0 17.327 5.372 Q 17.395 5.165 17.427 4.911 A 3.91 3.91 0 0 0 17.455 4.425 Q 17.455 3.838 17.272 3.431 A 1.503 1.503 0 0 0 17.112 3.155 A 1.086 1.086 0 0 0 16.326 2.698 A 1.414 1.414 0 0 0 16.172 2.689 Q 15.511 2.689 15.146 3.213 A 1.623 1.623 0 0 0 15.064 3.344 Z M 68.972 3.344 L 68.972 5.616 Q 69.337 6.267 70.088 6.267 A 1.184 1.184 0 0 0 70.554 6.178 Q 70.811 6.069 70.999 5.827 A 1.403 1.403 0 0 0 71.018 5.803 A 1.501 1.501 0 0 0 71.235 5.372 Q 71.303 5.165 71.335 4.911 A 3.91 3.91 0 0 0 71.363 4.425 Q 71.363 3.838 71.18 3.431 A 1.503 1.503 0 0 0 71.02 3.155 A 1.086 1.086 0 0 0 70.234 2.698 A 1.414 1.414 0 0 0 70.08 2.689 Q 69.419 2.689 69.054 3.213 A 1.623 1.623 0 0 0 68.972 3.344 Z M 103.43 5.546 L 103.43 3.362 A 1.375 1.375 0 0 0 103.118 2.966 Q 102.794 2.689 102.309 2.689 A 1.238 1.238 0 0 0 101.882 2.76 A 1.068 1.068 0 0 0 101.377 3.151 A 1.51 1.51 0 0 0 101.168 3.577 Q 101.102 3.781 101.071 4.031 A 3.955 3.955 0 0 0 101.043 4.518 A 3.162 3.162 0 0 0 101.079 5.01 Q 101.121 5.271 101.209 5.481 A 1.474 1.474 0 0 0 101.377 5.783 A 1.06 1.06 0 0 0 102.14 6.231 A 1.391 1.391 0 0 0 102.3 6.24 Q 103.074 6.24 103.43 5.546 Z M 117.483 1.731 L 115.589 4.693 L 117.58 4.693 L 117.58 1.556 L 117.483 1.731 Z M 2.813 1.485 L 1.727 4.478 L 3.902 4.478 L 2.813 1.485 Z M 35.6 1.485 L 34.515 4.478 L 36.69 4.478 L 35.6 1.485 Z M 56.72 1.485 L 55.635 4.478 L 57.81 4.478 L 56.72 1.485 Z M 123.236 5.098 A 1.375 1.375 0 0 0 123.176 4.684 A 1.109 1.109 0 0 0 122.895 4.223 A 1.148 1.148 0 0 0 122.224 3.899 A 1.593 1.593 0 0 0 122.005 3.885 A 1.466 1.466 0 0 0 121.617 3.934 A 1.086 1.086 0 0 0 121.124 4.219 A 1.123 1.123 0 0 0 120.811 4.854 A 1.572 1.572 0 0 0 120.792 5.098 A 1.48 1.48 0 0 0 120.834 5.459 A 1.019 1.019 0 0 0 121.115 5.955 Q 121.422 6.25 121.955 6.266 A 2.053 2.053 0 0 0 122.014 6.267 Q 122.508 6.267 122.818 6.032 A 1.018 1.018 0 0 0 122.911 5.952 A 1.041 1.041 0 0 0 123.21 5.384 A 1.518 1.518 0 0 0 123.236 5.098 Z M 122.014 1.024 A 1.259 1.259 0 0 0 121.661 1.071 A 0.973 0.973 0 0 0 121.239 1.321 Q 120.942 1.617 120.942 2.127 A 1.325 1.325 0 0 0 120.986 2.48 A 0.994 0.994 0 0 0 121.234 2.916 A 0.974 0.974 0 0 0 121.796 3.2 A 1.382 1.382 0 0 0 122.014 3.217 A 1.279 1.279 0 0 0 122.359 3.173 A 0.952 0.952 0 0 0 122.794 2.916 A 1.018 1.018 0 0 0 123.069 2.352 A 1.426 1.426 0 0 0 123.086 2.127 A 1.282 1.282 0 0 0 123.036 1.76 A 1.013 1.013 0 0 0 122.783 1.332 Q 122.48 1.024 122.014 1.024 Z M 136.094 5.511 L 136.094 4.535 L 135.457 4.535 Q 133.963 4.535 133.963 5.41 Q 133.963 5.792 134.218 6.007 A 0.893 0.893 0 0 0 134.631 6.201 A 1.259 1.259 0 0 0 134.873 6.223 A 1.429 1.429 0 0 0 135.598 6.025 A 1.335 1.335 0 0 0 135.893 5.797 A 1.108 1.108 0 0 0 136.094 5.511 Z M 21.489 0.826 Q 21.489 0.628 21.61 0.492 Q 21.722 0.366 21.934 0.357 A 0.783 0.783 0 0 1 21.968 0.356 Q 22.206 0.356 22.329 0.492 A 0.474 0.474 0 0 1 22.451 0.796 A 0.614 0.614 0 0 1 22.452 0.826 A 0.523 0.523 0 0 1 22.426 0.992 A 0.442 0.442 0 0 1 22.329 1.156 Q 22.216 1.276 22.008 1.287 A 0.803 0.803 0 0 1 21.968 1.288 Q 21.796 1.288 21.685 1.218 A 0.362 0.362 0 0 1 21.61 1.156 A 0.456 0.456 0 0 1 21.492 0.88 A 0.605 0.605 0 0 1 21.489 0.826 Z M 75.397 0.826 Q 75.397 0.628 75.518 0.492 Q 75.63 0.366 75.842 0.357 A 0.783 0.783 0 0 1 75.876 0.356 Q 76.113 0.356 76.236 0.492 A 0.474 0.474 0 0 1 76.359 0.796 A 0.614 0.614 0 0 1 76.359 0.826 A 0.523 0.523 0 0 1 76.334 0.992 A 0.442 0.442 0 0 1 76.236 1.156 Q 76.124 1.276 75.916 1.287 A 0.803 0.803 0 0 1 75.876 1.288 Q 75.704 1.288 75.593 1.218 A 0.362 0.362 0 0 1 75.518 1.156 A 0.456 0.456 0 0 1 75.399 0.88 A 0.605 0.605 0 0 1 75.397 0.826 Z M 105.508 0.826 Q 105.508 0.628 105.629 0.492 Q 105.741 0.366 105.953 0.357 A 0.783 0.783 0 0 1 105.987 0.356 Q 106.225 0.356 106.348 0.492 A 0.474 0.474 0 0 1 106.47 0.796 A 0.614 0.614 0 0 1 106.471 0.826 A 0.523 0.523 0 0 1 106.445 0.992 A 0.442 0.442 0 0 1 106.348 1.156 Q 106.235 1.276 106.027 1.287 A 0.803 0.803 0 0 1 105.987 1.288 Q 105.815 1.288 105.704 1.218 A 0.362 0.362 0 0 1 105.629 1.156 A 0.456 0.456 0 0 1 105.511 0.88 A 0.605 0.605 0 0 1 105.508 0.826 Z" vector-effect="non-scaling-stroke"/></g>
</svgversion="1.0" encoding="UTF-8"?>
<svg width="48px" height="48px" viewBox="0 0 48 48" version="1.1" xmlns="http://www.w3.org/2000/svg" xmlns:xlink="http://www.w3.org/1999/xlink">
    <title>Icon-Resource/Front-End-Web-Mobile/Res_AWS-Amplify_AWS-Amplify-Studio_48_Dark</title>
    <g id="Icon-Resource/Front-End-Web-Mobile/Res_AWS-Amplify_AWS-Amplify-Studio_48" stroke="none" stroke-width="1" fill="none" fill-rule="evenodd">
        <path transform="translate(0vw, 0vh), scale(.65)" d="M6,11 L31,11 L31,9 L6,9 L6,11 Z M33,11 L41,11 L41,9 L33,9 L33,11 Z M14.213,27.861 C15.425,27.499 16.784,27.915 17.565,28.99 L20.365,32.868 C20.687,33.316 21.312,33.418 21.761,33.094 C22.209,32.771 22.31,32.146 21.986,31.697 L19.194,27.829 C19.191,27.825 19.188,27.821 19.186,27.817 L11.152,16.688 C10.821,16.228 10.925,15.584 11.385,15.251 C11.846,14.918 12.49,15.024 12.822,15.484 L16.806,21.003 C16.812,21.013 16.82,21.024 16.828,21.035 L21.138,27.006 C21.46,27.452 22.086,27.555 22.533,27.231 C22.981,26.908 23.082,26.283 22.759,25.835 L18.437,19.845 C18.121,19.387 18.229,18.755 18.682,18.427 C19.141,18.097 19.787,18.199 20.119,18.659 L21.079,19.99 C21.089,20.004 21.098,20.017 21.107,20.03 L24.428,24.631 C24.751,25.077 25.376,25.18 25.823,24.856 C26.271,24.533 26.372,23.908 26.049,23.46 L22.713,18.837 C22.563,18.618 22.505,18.355 22.547,18.093 C22.591,17.821 22.738,17.583 22.961,17.422 C23.186,17.262 23.458,17.199 23.728,17.241 C23.998,17.285 24.236,17.432 24.397,17.655 L25.708,19.471 C25.712,19.476 25.715,19.48 25.718,19.484 L28.335,23.11 C28.657,23.557 29.283,23.659 29.73,23.335 C30.179,23.012 30.279,22.386 29.956,21.939 L27.334,18.305 C27.009,17.845 27.114,17.206 27.571,16.876 C27.796,16.716 28.068,16.653 28.338,16.695 C28.608,16.739 28.847,16.886 29.008,17.109 L32.915,22.52 C32.934,22.549 34.789,25.444 35.261,27.381 C35.705,29.204 38.284,33.227 39.459,34.998 L30.423,41.521 C29.581,40.479 27.889,38.891 25.199,38.517 C22.293,38.114 20.299,36.189 20.019,35.906 L14.213,27.861 Z M30.771,43.736 L41.413,36.054 C41.853,35.737 41.96,35.127 41.654,34.679 C40.549,33.06 37.594,28.507 37.204,26.907 C36.652,24.642 34.68,21.566 34.566,21.393 L30.63,15.939 C30.156,15.282 29.456,14.85 28.657,14.721 C27.855,14.592 27.057,14.781 26.401,15.255 C26.092,15.478 25.837,15.749 25.64,16.051 C25.203,15.638 24.653,15.365 24.047,15.267 C23.245,15.137 22.446,15.327 21.791,15.8 C21.442,16.052 21.156,16.368 20.945,16.729 C19.926,16.062 18.555,16.052 17.512,16.806 C17.219,17.017 16.975,17.272 16.782,17.554 L14.443,14.313 C13.465,12.958 11.565,12.652 10.215,13.63 C8.86,14.608 8.554,16.504 9.531,17.859 L15.217,25.736 C14.125,25.689 13.063,26.017 12.134,26.688 C11.919,26.843 11.773,27.078 11.731,27.34 C11.689,27.601 11.753,27.869 11.908,28.084 L18.438,37.133 C18.461,37.165 18.486,37.196 18.513,37.225 C18.615,37.336 21.068,39.964 24.924,40.499 C27.896,40.911 29.252,43.303 29.306,43.401 C29.442,43.654 29.682,43.836 29.962,43.9 C30.036,43.917 30.111,43.925 30.186,43.925 C30.394,43.925 30.599,43.86 30.771,43.736 L30.771,43.736 Z M45,18 L35,18 L35,16 L44,16 L44,6 L4,5.925 L4,16 L7,16 L7,18 L3,18 C2.447,18 2,17.552 2,17 L2,5 C2,4.447 2.447,4 3,4 L45,4 C45.553,4 46,4.447 46,5 L46,17 C46,17.552 45.553,18 45,18 L45,18 Z" id="Fill-1" fill="#000000"></path>
    </g><g transform="translate(33vw, 80vh)" id="svgGroup" stroke-linecap="round" fill-rule="evenodd" font-size="9pt" stroke="#000" stroke-width="0.25mm" fill="#000" style="stroke:#000;stroke-width:0.25mm;fill:#000"><path d="M 23.12 0.088 L 24.13 4.469 L 24.253 5.313 L 24.434 4.553 L 25.699 0.088 L 26.411 0.088 L 27.646 4.553 L 27.822 5.326 L 27.958 4.465 L 28.951 0.088 L 29.799 0.088 L 28.248 6.486 L 27.479 6.486 L 26.161 1.824 L 26.06 1.336 L 25.958 1.824 L 24.592 6.486 L 23.823 6.486 L 22.276 0.088 L 23.12 0.088 Z M 34.98 1.938 L 34.132 1.938 A 1.466 1.466 0 0 0 34.083 1.546 A 1.066 1.066 0 0 0 33.763 1.026 A 1.211 1.211 0 0 0 33.294 0.77 Q 33.042 0.694 32.722 0.694 A 2.286 2.286 0 0 0 32.342 0.724 Q 32.14 0.758 31.977 0.831 A 1.101 1.101 0 0 0 31.748 0.969 A 0.892 0.892 0 0 0 31.403 1.624 A 1.267 1.267 0 0 0 31.399 1.732 A 0.806 0.806 0 0 0 31.667 2.337 A 1.134 1.134 0 0 0 31.731 2.393 A 1.562 1.562 0 0 0 31.969 2.549 Q 32.299 2.73 32.86 2.887 A 8.228 8.228 0 0 1 33.325 3.032 Q 33.56 3.113 33.754 3.2 A 3.297 3.297 0 0 1 34.108 3.382 A 2.342 2.342 0 0 1 34.447 3.626 Q 34.637 3.792 34.759 3.985 A 1.45 1.45 0 0 1 34.776 4.012 A 1.498 1.498 0 0 1 34.972 4.568 A 1.948 1.948 0 0 1 34.994 4.86 A 1.606 1.606 0 0 1 34.871 5.497 Q 34.726 5.838 34.408 6.09 A 1.886 1.886 0 0 1 34.387 6.106 Q 33.781 6.574 32.766 6.574 A 3.023 3.023 0 0 1 31.625 6.36 A 2.917 2.917 0 0 1 31.535 6.322 A 2.383 2.383 0 0 1 31.057 6.044 A 1.874 1.874 0 0 1 30.654 5.629 A 1.689 1.689 0 0 1 30.344 4.632 L 31.192 4.632 A 1.261 1.261 0 0 0 31.262 5.059 A 1.074 1.074 0 0 0 31.621 5.548 Q 32.005 5.85 32.622 5.881 A 2.87 2.87 0 0 0 32.766 5.884 A 2.628 2.628 0 0 0 33.153 5.858 Q 33.349 5.828 33.508 5.767 A 1.129 1.129 0 0 0 33.79 5.612 Q 34.146 5.339 34.146 4.869 A 1.074 1.074 0 0 0 34.103 4.559 A 0.816 0.816 0 0 0 33.816 4.142 Q 33.486 3.885 32.621 3.634 Q 31.535 3.322 31.041 2.868 Q 30.546 2.413 30.546 1.745 Q 30.546 0.989 31.151 0.494 A 2.121 2.121 0 0 1 32.041 0.071 A 3.087 3.087 0 0 1 32.722 0 A 2.913 2.913 0 0 1 33.382 0.072 A 2.372 2.372 0 0 1 33.897 0.255 A 2.051 2.051 0 0 1 34.428 0.626 A 1.834 1.834 0 0 1 34.697 0.958 A 1.798 1.798 0 0 1 34.98 1.938 Z M 3.74 6.486 L 2.351 3.898 L 0.848 3.898 L 0.848 6.486 L 0 6.486 L 0 0.088 L 2.118 0.088 A 3.809 3.809 0 0 1 2.76 0.138 Q 3.102 0.197 3.376 0.324 A 1.789 1.789 0 0 1 3.781 0.58 A 1.588 1.588 0 0 1 4.307 1.469 A 2.453 2.453 0 0 1 4.364 2.013 A 1.864 1.864 0 0 1 4.273 2.604 A 1.64 1.64 0 0 1 4.041 3.054 A 1.849 1.849 0 0 1 3.382 3.611 A 2.342 2.342 0 0 1 3.142 3.718 L 4.645 6.434 L 4.645 6.486 L 3.74 6.486 Z M 13.724 3.129 L 12.907 3.129 Q 12.907 2.795 12.623 2.553 Q 12.34 2.312 11.909 2.312 Q 11.465 2.312 11.215 2.505 A 0.653 0.653 0 0 0 11.04 2.704 Q 10.967 2.835 10.964 3 A 0.771 0.771 0 0 0 10.964 3.01 A 0.588 0.588 0 0 0 10.994 3.203 A 0.48 0.48 0 0 0 11.197 3.454 A 1.093 1.093 0 0 0 11.348 3.533 Q 11.512 3.605 11.767 3.673 A 6.581 6.581 0 0 0 12.039 3.74 A 6.318 6.318 0 0 1 12.446 3.845 Q 12.783 3.944 13.025 4.065 A 1.901 1.901 0 0 1 13.281 4.218 Q 13.418 4.315 13.516 4.429 A 1.06 1.06 0 0 1 13.586 4.52 A 1.024 1.024 0 0 1 13.748 4.927 A 1.388 1.388 0 0 1 13.768 5.168 Q 13.768 5.805 13.258 6.19 Q 12.776 6.554 12.022 6.573 A 3.337 3.337 0 0 1 11.936 6.574 A 2.746 2.746 0 0 1 11.401 6.525 A 2.124 2.124 0 0 1 10.925 6.372 A 1.771 1.771 0 0 1 10.491 6.094 A 1.54 1.54 0 0 1 10.237 5.807 Q 9.989 5.445 9.989 5.023 L 10.802 5.023 A 0.932 0.932 0 0 0 10.875 5.348 A 0.827 0.827 0 0 0 11.129 5.671 A 1.072 1.072 0 0 0 11.531 5.864 Q 11.686 5.903 11.867 5.91 A 2.013 2.013 0 0 0 11.936 5.911 A 1.863 1.863 0 0 0 12.231 5.889 Q 12.393 5.863 12.524 5.806 A 0.941 0.941 0 0 0 12.676 5.724 A 0.689 0.689 0 0 0 12.841 5.574 A 0.554 0.554 0 0 0 12.955 5.225 A 0.698 0.698 0 0 0 12.919 4.994 A 0.581 0.581 0 0 0 12.707 4.713 A 1.05 1.05 0 0 0 12.538 4.615 Q 12.349 4.524 12.054 4.449 A 5.392 5.392 0 0 0 11.841 4.399 A 6.342 6.342 0 0 1 11.48 4.311 Q 11.11 4.209 10.861 4.083 Q 10.562 3.93 10.392 3.731 A 1.017 1.017 0 0 1 10.325 3.643 Q 10.151 3.388 10.151 3.037 A 1.206 1.206 0 0 1 10.55 2.132 A 1.694 1.694 0 0 1 10.646 2.048 A 1.752 1.752 0 0 1 11.429 1.688 A 2.471 2.471 0 0 1 11.909 1.644 A 2.559 2.559 0 0 1 12.473 1.702 A 1.757 1.757 0 0 1 13.221 2.061 Q 13.724 2.479 13.724 3.129 Z M 21.327 6.486 L 20.716 4.816 L 18.035 4.816 L 17.433 6.486 L 16.563 6.486 L 19.006 0.088 L 19.745 0.088 L 22.192 6.486 L 21.327 6.486 Z M 5.212 4.241 L 5.212 4.091 A 3.17 3.17 0 0 1 5.288 3.382 A 2.581 2.581 0 0 1 5.482 2.828 A 2.191 2.191 0 0 1 5.93 2.202 A 2.033 2.033 0 0 1 6.238 1.958 Q 6.724 1.644 7.291 1.644 A 2.254 2.254 0 0 1 7.904 1.723 A 1.639 1.639 0 0 1 8.732 2.254 Q 9.246 2.865 9.246 4.003 L 9.246 4.342 L 6.025 4.342 A 2.111 2.111 0 0 0 6.096 4.85 A 1.516 1.516 0 0 0 6.436 5.478 A 1.282 1.282 0 0 0 7.37 5.909 A 1.652 1.652 0 0 0 7.436 5.911 A 1.763 1.763 0 0 0 7.764 5.882 Q 7.988 5.839 8.165 5.735 A 1.827 1.827 0 0 0 8.674 5.287 A 2.068 2.068 0 0 0 8.688 5.269 L 9.185 5.656 A 1.926 1.926 0 0 1 7.785 6.547 A 2.749 2.749 0 0 1 7.392 6.574 A 2.394 2.394 0 0 1 6.64 6.461 A 1.974 1.974 0 0 1 5.818 5.939 Q 5.212 5.304 5.212 4.241 Z M 0.848 0.782 L 0.848 3.208 L 2.145 3.208 Q 2.685 3.208 3.035 2.968 A 1.174 1.174 0 0 0 3.144 2.883 A 1.069 1.069 0 0 0 3.51 2.146 A 1.486 1.486 0 0 0 3.516 2.013 Q 3.516 1.47 3.22 1.159 A 1 1 0 0 0 3.162 1.103 Q 2.808 0.787 2.14 0.782 L 0.848 0.782 Z M 19.375 1.129 L 18.29 4.122 L 20.465 4.122 L 19.375 1.129 Z M 6.051 3.674 L 8.433 3.674 L 8.433 3.612 Q 8.407 3.153 8.236 2.848 A 1.13 1.13 0 0 0 8.099 2.652 A 0.983 0.983 0 0 0 7.445 2.32 A 1.39 1.39 0 0 0 7.291 2.312 A 1.106 1.106 0 0 0 6.768 2.435 A 1.14 1.14 0 0 0 6.464 2.67 A 1.417 1.417 0 0 0 6.188 3.116 Q 6.114 3.3 6.074 3.522 A 2.741 2.741 0 0 0 6.051 3.674 Z" vector-effect="non-scaling-stroke"/></g><g transform="translate(12vw, 90vh)" id="svgGroup" stroke-linecap="round" fill-rule="evenodd" font-size="9pt" stroke="#000" stroke-width="0.25mm" fill="#000" style="stroke:#000;stroke-width:0.25mm;fill:#000"><path d="M 39.344 0.444 L 40.355 4.825 L 40.478 5.669 L 40.658 4.909 L 41.924 0.444 L 42.636 0.444 L 43.871 4.909 L 44.046 5.682 L 44.183 4.821 L 45.176 0.444 L 46.024 0.444 L 44.473 6.842 L 43.704 6.842 L 42.385 2.18 L 42.284 1.692 L 42.183 2.18 L 40.816 6.842 L 40.047 6.842 L 38.5 0.444 L 39.344 0.444 Z M 6.359 2.087 L 7.128 2.087 L 7.15 2.615 Q 7.673 2 8.561 2 A 2.009 2.009 0 0 1 9.071 2.06 A 1.244 1.244 0 0 1 9.918 2.764 A 1.801 1.801 0 0 1 10.536 2.21 A 1.65 1.65 0 0 1 11.065 2.029 A 2.209 2.209 0 0 1 11.435 2 A 2.119 2.119 0 0 1 12.079 2.089 Q 13.005 2.385 13.025 3.656 L 13.025 6.842 L 12.212 6.842 L 12.212 3.705 A 1.781 1.781 0 0 0 12.192 3.425 Q 12.168 3.277 12.118 3.159 A 0.758 0.758 0 0 0 11.979 2.942 A 0.68 0.68 0 0 0 11.727 2.774 Q 11.515 2.69 11.198 2.689 A 1.245 1.245 0 0 0 10.832 2.741 A 1.008 1.008 0 0 0 10.446 2.96 A 1.042 1.042 0 0 0 10.132 3.496 A 1.41 1.41 0 0 0 10.099 3.687 L 10.099 6.842 L 9.281 6.842 L 9.281 3.727 A 1.532 1.532 0 0 0 9.233 3.322 Q 9.106 2.86 8.649 2.735 A 1.457 1.457 0 0 0 8.266 2.689 Q 7.493 2.689 7.192 3.327 A 1.459 1.459 0 0 0 7.172 3.371 L 7.172 6.842 L 6.359 6.842 L 6.359 2.087 Z M 60.267 2.087 L 61.036 2.087 L 61.058 2.615 Q 61.581 2 62.468 2 A 2.009 2.009 0 0 1 62.979 2.06 A 1.244 1.244 0 0 1 63.826 2.764 A 1.801 1.801 0 0 1 64.444 2.21 A 1.65 1.65 0 0 1 64.973 2.029 A 2.209 2.209 0 0 1 65.342 2 A 2.119 2.119 0 0 1 65.986 2.089 Q 66.913 2.385 66.933 3.656 L 66.933 6.842 L 66.12 6.842 L 66.12 3.705 A 1.781 1.781 0 0 0 66.1 3.425 Q 66.076 3.277 66.025 3.159 A 0.758 0.758 0 0 0 65.887 2.942 A 0.68 0.68 0 0 0 65.634 2.774 Q 65.423 2.69 65.106 2.689 A 1.245 1.245 0 0 0 64.74 2.741 A 1.008 1.008 0 0 0 64.354 2.96 A 1.042 1.042 0 0 0 64.039 3.496 A 1.41 1.41 0 0 0 64.006 3.687 L 64.006 6.842 L 63.189 6.842 L 63.189 3.727 A 1.532 1.532 0 0 0 63.14 3.322 Q 63.014 2.86 62.556 2.735 A 1.457 1.457 0 0 0 62.174 2.689 Q 61.4 2.689 61.099 3.327 A 1.459 1.459 0 0 0 61.08 3.371 L 61.08 6.842 L 60.267 6.842 L 60.267 2.087 Z M 51.205 2.294 L 50.357 2.294 A 1.466 1.466 0 0 0 50.307 1.901 A 1.066 1.066 0 0 0 49.988 1.382 A 1.211 1.211 0 0 0 49.518 1.126 Q 49.267 1.05 48.946 1.05 A 2.286 2.286 0 0 0 48.566 1.08 Q 48.365 1.114 48.202 1.187 A 1.101 1.101 0 0 0 47.973 1.325 A 0.892 0.892 0 0 0 47.628 1.98 A 1.267 1.267 0 0 0 47.624 2.087 A 0.806 0.806 0 0 0 47.891 2.693 A 1.134 1.134 0 0 0 47.955 2.749 A 1.562 1.562 0 0 0 48.193 2.905 Q 48.524 3.086 49.085 3.243 A 8.228 8.228 0 0 1 49.549 3.388 Q 49.784 3.469 49.979 3.556 A 3.297 3.297 0 0 1 50.333 3.738 A 2.342 2.342 0 0 1 50.671 3.982 Q 50.861 4.148 50.984 4.341 A 1.45 1.45 0 0 1 51.001 4.368 A 1.498 1.498 0 0 1 51.197 4.924 A 1.948 1.948 0 0 1 51.218 5.216 A 1.606 1.606 0 0 1 51.096 5.853 Q 50.951 6.193 50.633 6.446 A 1.886 1.886 0 0 1 50.612 6.462 Q 50.005 6.93 48.99 6.93 A 3.023 3.023 0 0 1 47.85 6.715 A 2.917 2.917 0 0 1 47.76 6.677 A 2.383 2.383 0 0 1 47.282 6.4 A 1.874 1.874 0 0 1 46.879 5.985 A 1.689 1.689 0 0 1 46.569 4.988 L 47.417 4.988 A 1.261 1.261 0 0 0 47.486 5.415 A 1.074 1.074 0 0 0 47.845 5.904 Q 48.23 6.206 48.846 6.237 A 2.87 2.87 0 0 0 48.99 6.24 A 2.628 2.628 0 0 0 49.377 6.214 Q 49.573 6.184 49.733 6.123 A 1.129 1.129 0 0 0 50.014 5.968 Q 50.37 5.695 50.37 5.225 A 1.074 1.074 0 0 0 50.328 4.915 A 0.816 0.816 0 0 0 50.041 4.498 Q 49.711 4.241 48.845 3.99 Q 47.76 3.678 47.265 3.223 Q 46.771 2.769 46.771 2.101 Q 46.771 1.345 47.375 0.85 A 2.121 2.121 0 0 1 48.266 0.427 A 3.087 3.087 0 0 1 48.946 0.356 A 2.913 2.913 0 0 1 49.606 0.428 A 2.372 2.372 0 0 1 50.122 0.611 A 2.051 2.051 0 0 1 50.653 0.982 A 1.834 1.834 0 0 1 50.922 1.314 A 1.798 1.798 0 0 1 51.205 2.294 Z M 91.56 2.294 L 90.712 2.294 A 1.466 1.466 0 0 0 90.662 1.901 A 1.066 1.066 0 0 0 90.343 1.382 A 1.211 1.211 0 0 0 89.873 1.126 Q 89.622 1.05 89.301 1.05 A 2.286 2.286 0 0 0 88.921 1.08 Q 88.72 1.114 88.557 1.187 A 1.101 1.101 0 0 0 88.328 1.325 A 0.892 0.892 0 0 0 87.983 1.98 A 1.267 1.267 0 0 0 87.979 2.087 A 0.806 0.806 0 0 0 88.246 2.693 A 1.134 1.134 0 0 0 88.31 2.749 A 1.562 1.562 0 0 0 88.548 2.905 Q 88.879 3.086 89.44 3.243 A 8.228 8.228 0 0 1 89.904 3.388 Q 90.139 3.469 90.334 3.556 A 3.297 3.297 0 0 1 90.688 3.738 A 2.342 2.342 0 0 1 91.026 3.982 Q 91.216 4.148 91.339 4.341 A 1.45 1.45 0 0 1 91.356 4.368 A 1.498 1.498 0 0 1 91.552 4.924 A 1.948 1.948 0 0 1 91.573 5.216 A 1.606 1.606 0 0 1 91.451 5.853 Q 91.306 6.193 90.987 6.446 A 1.886 1.886 0 0 1 90.967 6.462 Q 90.36 6.93 89.345 6.93 A 3.023 3.023 0 0 1 88.205 6.715 A 2.917 2.917 0 0 1 88.115 6.677 A 2.383 2.383 0 0 1 87.637 6.4 A 1.874 1.874 0 0 1 87.234 5.985 A 1.689 1.689 0 0 1 86.924 4.988 L 87.772 4.988 A 1.261 1.261 0 0 0 87.841 5.415 A 1.074 1.074 0 0 0 88.2 5.904 Q 88.585 6.206 89.201 6.237 A 2.87 2.87 0 0 0 89.345 6.24 A 2.628 2.628 0 0 0 89.732 6.214 Q 89.928 6.184 90.088 6.123 A 1.129 1.129 0 0 0 90.369 5.968 Q 90.725 5.695 90.725 5.225 A 1.074 1.074 0 0 0 90.683 4.915 A 0.816 0.816 0 0 0 90.396 4.498 Q 90.066 4.241 89.2 3.99 Q 88.115 3.678 87.62 3.223 Q 87.126 2.769 87.126 2.101 Q 87.126 1.345 87.73 0.85 A 2.121 2.121 0 0 1 88.621 0.427 A 3.087 3.087 0 0 1 89.301 0.356 A 2.913 2.913 0 0 1 89.961 0.428 A 2.372 2.372 0 0 1 90.477 0.611 A 2.051 2.051 0 0 1 91.008 0.982 A 1.834 1.834 0 0 1 91.277 1.314 A 1.798 1.798 0 0 1 91.56 2.294 Z M 144.211 6.842 L 142.554 4.641 L 142.044 5.172 L 142.044 6.842 L 141.231 6.842 L 141.231 0.092 L 142.044 0.092 L 142.044 4.175 L 142.479 3.652 L 143.96 2.087 L 144.949 2.087 L 143.099 4.074 L 145.165 6.842 L 144.211 6.842 Z M 27.163 2.087 L 28.349 5.651 L 29.457 2.087 L 30.327 2.087 L 28.415 7.576 Q 27.971 8.763 27.004 8.763 L 26.851 8.75 L 26.547 8.692 L 26.547 8.033 L 26.767 8.051 Q 27.047 8.051 27.243 7.974 A 0.75 0.75 0 0 0 27.411 7.884 A 0.749 0.749 0 0 0 27.571 7.722 Q 27.689 7.563 27.779 7.307 A 2.575 2.575 0 0 0 27.791 7.273 L 27.971 6.79 L 26.275 2.087 L 27.163 2.087 Z M 81.07 2.087 L 82.257 5.651 L 83.364 2.087 L 84.234 2.087 L 82.323 7.576 Q 81.879 8.763 80.912 8.763 L 80.758 8.75 L 80.455 8.692 L 80.455 8.033 L 80.675 8.051 Q 80.955 8.051 81.151 7.974 A 0.75 0.75 0 0 0 81.319 7.884 A 0.749 0.749 0 0 0 81.479 7.722 Q 81.597 7.563 81.687 7.307 A 2.575 2.575 0 0 0 81.699 7.273 L 81.879 6.79 L 80.183 2.087 L 81.07 2.087 Z M 98.42 6.842 L 98.402 6.372 A 1.526 1.526 0 0 1 97.576 6.867 Q 97.326 6.928 97.029 6.93 A 2.996 2.996 0 0 1 97.009 6.93 A 2.086 2.086 0 0 1 96.549 6.883 Q 96.119 6.785 95.851 6.489 A 1.41 1.41 0 0 1 95.568 5.991 Q 95.452 5.648 95.449 5.181 L 95.449 2.087 L 96.262 2.087 L 96.262 5.159 Q 96.262 6.129 96.97 6.229 A 1.229 1.229 0 0 0 97.141 6.24 A 1.927 1.927 0 0 0 97.592 6.191 Q 98.154 6.056 98.38 5.546 L 98.38 2.087 L 99.193 2.087 L 99.193 6.842 L 98.42 6.842 Z M 4.764 6.842 L 4.153 5.172 L 1.472 5.172 L 0.87 6.842 L 0 6.842 L 2.443 0.444 L 3.182 0.444 L 5.629 6.842 L 4.764 6.842 Z M 37.551 6.842 L 36.94 5.172 L 34.26 5.172 L 33.658 6.842 L 32.788 6.842 L 35.231 0.444 L 35.969 0.444 L 38.417 6.842 L 37.551 6.842 Z M 58.671 6.842 L 58.061 5.172 L 55.38 5.172 L 54.778 6.842 L 53.908 6.842 L 56.351 0.444 L 57.089 0.444 L 59.537 6.842 L 58.671 6.842 Z M 137.074 6.842 L 136.222 6.842 A 0.632 0.632 0 0 1 136.186 6.752 Q 136.155 6.654 136.13 6.502 A 3.997 3.997 0 0 1 136.107 6.341 Q 135.541 6.93 134.754 6.93 A 2.033 2.033 0 0 1 134.225 6.865 A 1.529 1.529 0 0 1 133.6 6.532 Q 133.15 6.135 133.15 5.524 Q 133.15 4.781 133.715 4.37 Q 134.279 3.959 135.303 3.959 L 136.094 3.959 L 136.094 3.586 A 1.152 1.152 0 0 0 136.058 3.291 A 0.828 0.828 0 0 0 135.839 2.907 Q 135.623 2.693 135.233 2.66 A 1.748 1.748 0 0 0 135.088 2.654 Q 134.653 2.654 134.358 2.874 Q 134.064 3.094 134.064 3.406 L 133.247 3.406 A 1.041 1.041 0 0 1 133.372 2.917 A 1.409 1.409 0 0 1 133.499 2.718 Q 133.752 2.386 134.185 2.193 A 2.249 2.249 0 0 1 134.961 2.005 A 2.669 2.669 0 0 1 135.136 2 A 2.65 2.65 0 0 1 135.654 2.047 Q 135.961 2.108 136.2 2.248 A 1.439 1.439 0 0 1 136.424 2.41 A 1.396 1.396 0 0 1 136.877 3.236 A 1.998 1.998 0 0 1 136.907 3.542 L 136.907 5.73 Q 136.907 6.165 136.981 6.482 A 1.707 1.707 0 0 0 137.074 6.772 L 137.074 6.842 Z M 100.23 4.487 L 100.23 4.425 A 3.762 3.762 0 0 1 100.297 3.694 Q 100.385 3.252 100.588 2.904 A 2.148 2.148 0 0 1 100.749 2.665 Q 101.268 2 102.107 2 A 1.964 1.964 0 0 1 102.705 2.086 A 1.559 1.559 0 0 1 103.43 2.571 L 103.43 0.092 L 104.243 0.092 L 104.243 6.842 L 103.496 6.842 L 103.456 6.333 Q 102.968 6.93 102.098 6.93 A 1.6 1.6 0 0 1 100.877 6.403 A 2.078 2.078 0 0 1 100.751 6.253 A 2.405 2.405 0 0 1 100.327 5.347 Q 100.242 5.004 100.232 4.603 A 4.425 4.425 0 0 1 100.23 4.487 Z M 18.268 4.443 L 18.268 4.518 Q 18.268 5.603 17.771 6.267 A 1.57 1.57 0 0 1 16.633 6.92 A 2.013 2.013 0 0 1 16.427 6.93 A 2.196 2.196 0 0 1 15.841 6.856 A 1.598 1.598 0 0 1 15.064 6.381 L 15.064 8.67 L 14.251 8.67 L 14.251 2.087 L 14.994 2.087 L 15.034 2.615 A 1.619 1.619 0 0 1 16.173 2.012 A 2.319 2.319 0 0 1 16.414 2 A 1.829 1.829 0 0 1 17.051 2.106 A 1.597 1.597 0 0 1 17.769 2.646 Q 18.268 3.292 18.268 4.443 Z M 72.176 4.443 L 72.176 4.518 Q 72.176 5.603 71.679 6.267 A 1.57 1.57 0 0 1 70.541 6.92 A 2.013 2.013 0 0 1 70.334 6.93 A 2.196 2.196 0 0 1 69.748 6.856 A 1.598 1.598 0 0 1 68.972 6.381 L 68.972 8.67 L 68.159 8.67 L 68.159 2.087 L 68.902 2.087 L 68.941 2.615 A 1.619 1.619 0 0 1 70.081 2.012 A 2.319 2.319 0 0 1 70.321 2 A 1.829 1.829 0 0 1 70.958 2.106 A 1.597 1.597 0 0 1 71.677 2.646 Q 72.176 3.292 72.176 4.443 Z M 24.882 6.842 L 24.069 6.842 L 24.069 2.716 L 23.317 2.716 L 23.317 2.087 L 24.069 2.087 L 24.069 1.6 Q 24.069 1.012 24.311 0.629 A 1.273 1.273 0 0 1 24.478 0.417 Q 24.886 0 25.633 0 A 2.134 2.134 0 0 1 26.191 0.075 L 26.147 0.734 Q 25.941 0.694 25.708 0.694 A 1.086 1.086 0 0 0 25.46 0.721 Q 25.239 0.773 25.097 0.925 A 0.747 0.747 0 0 0 24.931 1.221 Q 24.896 1.336 24.886 1.475 A 1.57 1.57 0 0 0 24.882 1.586 L 24.882 2.087 L 25.897 2.087 L 25.897 2.716 L 24.882 2.716 L 24.882 6.842 Z M 78.79 6.842 L 77.977 6.842 L 77.977 2.716 L 77.225 2.716 L 77.225 2.087 L 77.977 2.087 L 77.977 1.6 Q 77.977 1.012 78.218 0.629 A 1.273 1.273 0 0 1 78.385 0.417 Q 78.794 0 79.541 0 A 2.134 2.134 0 0 1 80.099 0.075 L 80.055 0.734 Q 79.849 0.694 79.616 0.694 A 1.086 1.086 0 0 0 79.368 0.721 Q 79.147 0.773 79.005 0.925 A 0.747 0.747 0 0 0 78.838 1.221 Q 78.803 1.336 78.793 1.475 A 1.57 1.57 0 0 0 78.79 1.586 L 78.79 2.087 L 79.805 2.087 L 79.805 2.716 L 78.79 2.716 L 78.79 6.842 Z M 118.397 0.444 L 118.397 4.693 L 119.285 4.693 L 119.285 5.357 L 118.397 5.357 L 118.397 6.842 L 117.58 6.842 L 117.58 5.357 L 114.667 5.357 L 114.667 4.878 L 117.532 0.444 L 118.397 0.444 Z M 129.283 6.842 L 127.512 6.842 L 127.512 0.444 L 129.318 0.444 Q 130.153 0.444 130.794 0.813 Q 131.436 1.182 131.785 1.863 A 3.19 3.19 0 0 1 132.102 2.892 A 4.073 4.073 0 0 1 132.139 3.428 L 132.139 3.836 Q 132.139 4.742 131.79 5.423 A 2.457 2.457 0 0 1 130.792 6.469 Q 130.144 6.833 129.283 6.842 Z M 123.796 2.684 A 1.544 1.544 0 0 0 123.899 2.114 A 2.226 2.226 0 0 0 123.878 1.799 A 1.566 1.566 0 0 0 123.379 0.831 A 1.754 1.754 0 0 0 122.613 0.426 A 2.443 2.443 0 0 0 122.014 0.356 A 2.539 2.539 0 0 0 121.505 0.405 A 1.767 1.767 0 0 0 120.647 0.831 Q 120.129 1.305 120.129 2.114 A 1.808 1.808 0 0 0 120.129 2.151 A 1.499 1.499 0 0 0 120.375 2.962 A 1.626 1.626 0 0 0 120.537 3.169 A 1.726 1.726 0 0 0 121.047 3.546 A 2.119 2.119 0 0 0 120.948 3.592 A 1.738 1.738 0 0 0 120.263 4.179 A 1.629 1.629 0 0 0 119.979 5.115 A 2.272 2.272 0 0 0 119.989 5.329 A 1.63 1.63 0 0 0 120.535 6.436 A 1.895 1.895 0 0 0 121.386 6.864 A 2.797 2.797 0 0 0 122.014 6.93 A 2.796 2.796 0 0 0 122.613 6.869 A 1.925 1.925 0 0 0 123.489 6.438 A 1.578 1.578 0 0 0 123.963 5.712 A 1.989 1.989 0 0 0 124.049 5.115 A 1.581 1.581 0 0 0 123.757 4.179 Q 123.464 3.766 122.963 3.551 Q 123.394 3.34 123.647 2.966 A 1.449 1.449 0 0 0 123.796 2.684 Z M 92.817 0.936 L 93.63 0.936 L 93.63 2.087 L 94.518 2.087 L 94.518 2.716 L 93.63 2.716 L 93.63 5.665 Q 93.63 5.95 93.749 6.093 Q 93.867 6.236 94.153 6.236 A 1.046 1.046 0 0 0 94.25 6.231 Q 94.353 6.221 94.493 6.193 A 4.024 4.024 0 0 0 94.54 6.183 L 94.54 6.842 A 2.463 2.463 0 0 1 94.107 6.922 A 2.157 2.157 0 0 1 93.916 6.93 Q 93.468 6.93 93.202 6.708 A 0.856 0.856 0 0 1 93.094 6.601 Q 92.866 6.33 92.826 5.872 A 2.351 2.351 0 0 1 92.817 5.665 L 92.817 2.716 L 91.951 2.716 L 91.951 2.087 L 92.817 2.087 L 92.817 0.936 Z M 20.184 0.092 L 20.184 6.842 L 19.371 6.842 L 19.371 0.092 L 20.184 0.092 Z M 74.092 0.092 L 74.092 6.842 L 73.279 6.842 L 73.279 0.092 L 74.092 0.092 Z M 107.473 4.478 L 107.473 4.421 A 3.057 3.057 0 0 1 107.56 3.679 A 2.573 2.573 0 0 1 107.747 3.164 A 2.16 2.16 0 0 1 108.162 2.579 A 1.957 1.957 0 0 1 108.512 2.303 A 2.036 2.036 0 0 1 109.456 2.006 A 2.491 2.491 0 0 1 109.63 2 A 2.277 2.277 0 0 1 110.384 2.119 A 1.937 1.937 0 0 1 111.201 2.672 A 2.29 2.29 0 0 1 111.72 3.701 A 3.373 3.373 0 0 1 111.801 4.46 L 111.801 4.518 A 3.114 3.114 0 0 1 111.722 5.234 A 2.577 2.577 0 0 1 111.535 5.763 A 2.056 2.056 0 0 1 111.008 6.454 A 2.001 2.001 0 0 1 110.775 6.623 A 2.045 2.045 0 0 1 109.855 6.921 A 2.529 2.529 0 0 1 109.639 6.93 A 2.262 2.262 0 0 1 108.889 6.811 A 1.938 1.938 0 0 1 108.073 6.258 A 2.297 2.297 0 0 1 107.547 5.203 A 3.357 3.357 0 0 1 107.473 4.478 Z M 140.48 2.061 L 140.48 2.817 A 2.251 2.251 0 0 0 140.237 2.79 A 2.782 2.782 0 0 0 140.08 2.786 Q 139.302 2.786 139.011 3.43 A 1.445 1.445 0 0 0 138.995 3.467 L 138.995 6.842 L 138.182 6.842 L 138.182 2.087 L 138.973 2.087 L 138.986 2.637 Q 139.366 2.031 140.049 2.001 A 1.636 1.636 0 0 1 140.12 2 Q 140.357 2 140.48 2.061 Z M 129.34 1.138 L 128.355 1.138 L 128.355 6.152 L 129.243 6.152 A 2.519 2.519 0 0 0 129.876 6.077 A 1.747 1.747 0 0 0 130.761 5.546 Q 131.221 5.033 131.291 4.151 A 4.165 4.165 0 0 0 131.304 3.819 L 131.304 3.445 Q 131.304 2.654 131.035 2.119 A 1.864 1.864 0 0 0 130.792 1.751 A 1.687 1.687 0 0 0 129.796 1.182 A 2.499 2.499 0 0 0 129.34 1.138 Z M 22.368 2.087 L 22.368 6.842 L 21.555 6.842 L 21.555 2.087 L 22.368 2.087 Z M 76.276 2.087 L 76.276 6.842 L 75.463 6.842 L 75.463 2.087 L 76.276 2.087 Z M 106.387 2.087 L 106.387 6.842 L 105.574 6.842 L 105.574 2.087 L 106.387 2.087 Z M 108.29 4.518 A 2.772 2.772 0 0 0 108.337 5.046 Q 108.398 5.357 108.535 5.602 A 1.545 1.545 0 0 0 108.657 5.788 Q 109.024 6.267 109.639 6.267 A 1.269 1.269 0 0 0 110.129 6.175 Q 110.408 6.06 110.611 5.798 A 1.471 1.471 0 0 0 110.624 5.781 A 1.648 1.648 0 0 0 110.878 5.264 Q 110.947 5.037 110.973 4.764 A 3.655 3.655 0 0 0 110.988 4.421 A 2.687 2.687 0 0 0 110.937 3.881 Q 110.869 3.551 110.712 3.292 A 1.586 1.586 0 0 0 110.617 3.153 A 1.231 1.231 0 0 0 110.202 2.798 Q 109.949 2.667 109.63 2.667 Q 109.04 2.667 108.674 3.127 A 1.515 1.515 0 0 0 108.659 3.146 A 1.589 1.589 0 0 0 108.407 3.644 Q 108.338 3.864 108.309 4.131 A 3.676 3.676 0 0 0 108.29 4.518 Z M 15.064 3.344 L 15.064 5.616 Q 15.429 6.267 16.181 6.267 A 1.184 1.184 0 0 0 16.646 6.178 Q 16.903 6.069 17.092 5.827 A 1.403 1.403 0 0 0 17.11 5.803 A 1.501 1.501 0 0 0 17.327 5.372 Q 17.395 5.165 17.427 4.911 A 3.91 3.91 0 0 0 17.455 4.425 Q 17.455 3.838 17.272 3.431 A 1.503 1.503 0 0 0 17.112 3.155 A 1.086 1.086 0 0 0 16.326 2.698 A 1.414 1.414 0 0 0 16.172 2.689 Q 15.511 2.689 15.146 3.213 A 1.623 1.623 0 0 0 15.064 3.344 Z M 68.972 3.344 L 68.972 5.616 Q 69.337 6.267 70.088 6.267 A 1.184 1.184 0 0 0 70.554 6.178 Q 70.811 6.069 70.999 5.827 A 1.403 1.403 0 0 0 71.018 5.803 A 1.501 1.501 0 0 0 71.235 5.372 Q 71.303 5.165 71.335 4.911 A 3.91 3.91 0 0 0 71.363 4.425 Q 71.363 3.838 71.18 3.431 A 1.503 1.503 0 0 0 71.02 3.155 A 1.086 1.086 0 0 0 70.234 2.698 A 1.414 1.414 0 0 0 70.08 2.689 Q 69.419 2.689 69.054 3.213 A 1.623 1.623 0 0 0 68.972 3.344 Z M 103.43 5.546 L 103.43 3.362 A 1.375 1.375 0 0 0 103.118 2.966 Q 102.794 2.689 102.309 2.689 A 1.238 1.238 0 0 0 101.882 2.76 A 1.068 1.068 0 0 0 101.377 3.151 A 1.51 1.51 0 0 0 101.168 3.577 Q 101.102 3.781 101.071 4.031 A 3.955 3.955 0 0 0 101.043 4.518 A 3.162 3.162 0 0 0 101.079 5.01 Q 101.121 5.271 101.209 5.481 A 1.474 1.474 0 0 0 101.377 5.783 A 1.06 1.06 0 0 0 102.14 6.231 A 1.391 1.391 0 0 0 102.3 6.24 Q 103.074 6.24 103.43 5.546 Z M 117.483 1.731 L 115.589 4.693 L 117.58 4.693 L 117.58 1.556 L 117.483 1.731 Z M 2.813 1.485 L 1.727 4.478 L 3.902 4.478 L 2.813 1.485 Z M 35.6 1.485 L 34.515 4.478 L 36.69 4.478 L 35.6 1.485 Z M 56.72 1.485 L 55.635 4.478 L 57.81 4.478 L 56.72 1.485 Z M 123.236 5.098 A 1.375 1.375 0 0 0 123.176 4.684 A 1.109 1.109 0 0 0 122.895 4.223 A 1.148 1.148 0 0 0 122.224 3.899 A 1.593 1.593 0 0 0 122.005 3.885 A 1.466 1.466 0 0 0 121.617 3.934 A 1.086 1.086 0 0 0 121.124 4.219 A 1.123 1.123 0 0 0 120.811 4.854 A 1.572 1.572 0 0 0 120.792 5.098 A 1.48 1.48 0 0 0 120.834 5.459 A 1.019 1.019 0 0 0 121.115 5.955 Q 121.422 6.25 121.955 6.266 A 2.053 2.053 0 0 0 122.014 6.267 Q 122.508 6.267 122.818 6.032 A 1.018 1.018 0 0 0 122.911 5.952 A 1.041 1.041 0 0 0 123.21 5.384 A 1.518 1.518 0 0 0 123.236 5.098 Z M 122.014 1.024 A 1.259 1.259 0 0 0 121.661 1.071 A 0.973 0.973 0 0 0 121.239 1.321 Q 120.942 1.617 120.942 2.127 A 1.325 1.325 0 0 0 120.986 2.48 A 0.994 0.994 0 0 0 121.234 2.916 A 0.974 0.974 0 0 0 121.796 3.2 A 1.382 1.382 0 0 0 122.014 3.217 A 1.279 1.279 0 0 0 122.359 3.173 A 0.952 0.952 0 0 0 122.794 2.916 A 1.018 1.018 0 0 0 123.069 2.352 A 1.426 1.426 0 0 0 123.086 2.127 A 1.282 1.282 0 0 0 123.036 1.76 A 1.013 1.013 0 0 0 122.783 1.332 Q 122.48 1.024 122.014 1.024 Z M 136.094 5.511 L 136.094 4.535 L 135.457 4.535 Q 133.963 4.535 133.963 5.41 Q 133.963 5.792 134.218 6.007 A 0.893 0.893 0 0 0 134.631 6.201 A 1.259 1.259 0 0 0 134.873 6.223 A 1.429 1.429 0 0 0 135.598 6.025 A 1.335 1.335 0 0 0 135.893 5.797 A 1.108 1.108 0 0 0 136.094 5.511 Z M 21.489 0.826 Q 21.489 0.628 21.61 0.492 Q 21.722 0.366 21.934 0.357 A 0.783 0.783 0 0 1 21.968 0.356 Q 22.206 0.356 22.329 0.492 A 0.474 0.474 0 0 1 22.451 0.796 A 0.614 0.614 0 0 1 22.452 0.826 A 0.523 0.523 0 0 1 22.426 0.992 A 0.442 0.442 0 0 1 22.329 1.156 Q 22.216 1.276 22.008 1.287 A 0.803 0.803 0 0 1 21.968 1.288 Q 21.796 1.288 21.685 1.218 A 0.362 0.362 0 0 1 21.61 1.156 A 0.456 0.456 0 0 1 21.492 0.88 A 0.605 0.605 0 0 1 21.489 0.826 Z M 75.397 0.826 Q 75.397 0.628 75.518 0.492 Q 75.63 0.366 75.842 0.357 A 0.783 0.783 0 0 1 75.876 0.356 Q 76.113 0.356 76.236 0.492 A 0.474 0.474 0 0 1 76.359 0.796 A 0.614 0.614 0 0 1 76.359 0.826 A 0.523 0.523 0 0 1 76.334 0.992 A 0.442 0.442 0 0 1 76.236 1.156 Q 76.124 1.276 75.916 1.287 A 0.803 0.803 0 0 1 75.876 1.288 Q 75.704 1.288 75.593 1.218 A 0.362 0.362 0 0 1 75.518 1.156 A 0.456 0.456 0 0 1 75.399 0.88 A 0.605 0.605 0 0 1 75.397 0.826 Z M 105.508 0.826 Q 105.508 0.628 105.629 0.492 Q 105.741 0.366 105.953 0.357 A 0.783 0.783 0 0 1 105.987 0.356 Q 106.225 0.356 106.348 0.492 A 0.474 0.474 0 0 1 106.47 0.796 A 0.614 0.614 0 0 1 106.471 0.826 A 0.523 0.523 0 0 1 106.445 0.992 A 0.442 0.442 0 0 1 106.348 1.156 Q 106.235 1.276 106.027 1.287 A 0.803 0.803 0 0 1 105.987 1.288 Q 105.815 1.288 105.704 1.218 A 0.362 0.362 0 0 1 105.629 1.156 A 0.456 0.456 0 0 1 105.511 0.88 A 0.605 0.605 0 0 1 105.508 0.826 Z" vector-effect="non-scaling-stroke"/></g>
</svg>