<?xml version="1.0" encoding="UTF-8"?>
<svg width="80px" height="80px" viewBox="0 0 80 80" version="1.1" xmlns="http://www.w3.org/2000/svg" xmlns:xlink="http://www.w3.org/1999/xlink">
    <!-- Generator: Sketch 64 (93537) - https://sketch.com -->
    <title>Icon-Architecture/64/Arch_AWS-Database-Migration_64</title>
    <desc>Created with Sketch.</desc>
    
    <g id="Icon-Architecture/64/Arch_AWS-Database-Migration_64" stroke="none" stroke-width="1" fill="none" fill-rule="evenodd">
        
        <path transform="translate(0vw, 0vh), scale(.65)" d="M44,67 L46,67 L46,60 L44,60 L44,67 Z M35,66.86 L37,66.86 L37,60 L35,60 L35,66.86 Z M53,65 L55,65 L55,59 L53,59 L53,65 Z M26,65 L28,65 L28,59 L26,59 L26,65 Z M40,35 C32.489,35 28,32.966 28,31 L28,23.359 C30.32,25.022 34.533,26 40,26 C44.983,26 50.225,25.106 53,23.2 L53,31 C53,32.932 47.777,35 40,35 L40,35 Z M40,45 C32.489,45 28,42.966 28,41 L28,34.359 C30.32,36.022 34.533,37 40,37 C44.983,37 50.225,36.106 53,34.2 L53,41 C53,42.932 47.777,45 40,45 L40,45 Z M40,55 C32.206,55 28,52.939 28,51 L28,44.359 C30.32,46.022 34.533,47 40,47 C44.983,47 50.225,46.106 53,44.2 L53,51 C53,52.932 47.777,55 40,55 L40,55 Z M40,16 C47.661,16 53,18.108 53,20 C53,21.892 47.661,24 40,24 C32.489,24 28,21.966 28,20 C28,18.034 32.489,16 40,16 L40,16 Z M40,14 C31.495,14 26,16.355 26,20 L26,51 C26,54.645 31.495,57 40,57 C47.225,57 55,55.123 55,51 L55,20 C55,15.877 47.225,14 40,14 L40,14 Z" id="AWS-Database-Migration_Icon_64_Squid" fill="#000000"></path>
    </g><g transform="translate(12vw, 80vh)" id="svgGroup" stroke-linecap="round" fill-rule="evenodd" font-size="9pt" stroke="#000" stroke-width="0.25mm" fill="#000" style="stroke:#000;stroke-width:0.25mm;fill:#000"><path d="M 40.214 0.352 L 41.304 0.352 L 43.396 5.572 L 45.488 0.352 L 46.582 0.352 L 46.582 6.75 L 45.738 6.75 L 45.738 4.258 L 45.817 1.569 L 43.717 6.75 L 43.071 6.75 L 40.975 1.582 L 41.058 4.258 L 41.058 6.75 L 40.214 6.75 L 40.214 0.352 Z M 53.169 2.522 L 53.209 1.995 L 53.952 1.995 L 53.952 6.636 A 2.511 2.511 0 0 1 53.881 7.249 A 1.738 1.738 0 0 1 53.405 8.09 A 1.834 1.834 0 0 1 52.475 8.57 A 2.671 2.671 0 0 1 51.935 8.622 A 2.446 2.446 0 0 1 50.928 8.402 A 2.003 2.003 0 0 1 50.518 8.161 A 1.563 1.563 0 0 1 50.177 7.8 L 50.599 7.313 A 1.889 1.889 0 0 0 51.033 7.712 A 1.514 1.514 0 0 0 51.877 7.958 A 1.695 1.695 0 0 0 52.254 7.919 Q 52.523 7.858 52.717 7.702 A 1.037 1.037 0 0 0 52.802 7.625 A 1.09 1.09 0 0 0 53.08 7.132 Q 53.127 6.959 53.133 6.752 A 2.134 2.134 0 0 0 53.134 6.684 L 53.134 6.275 A 1.601 1.601 0 0 1 52.082 6.821 A 2.279 2.279 0 0 1 51.803 6.838 A 1.672 1.672 0 0 1 51.047 6.67 Q 50.725 6.51 50.476 6.197 A 2.14 2.14 0 0 1 50.451 6.166 A 2.316 2.316 0 0 1 50.068 5.386 Q 49.935 4.922 49.935 4.333 Q 49.935 3.472 50.243 2.884 A 2.096 2.096 0 0 1 50.449 2.564 Q 50.963 1.907 51.812 1.907 A 1.971 1.971 0 0 1 52.41 1.994 A 1.55 1.55 0 0 1 53.169 2.522 Z M 31.988 3.393 L 31.17 3.393 Q 31.17 3.059 30.887 2.817 Q 30.604 2.575 30.173 2.575 Q 29.729 2.575 29.479 2.769 A 0.653 0.653 0 0 0 29.303 2.967 Q 29.23 3.098 29.228 3.263 A 0.771 0.771 0 0 0 29.228 3.274 A 0.588 0.588 0 0 0 29.258 3.467 A 0.48 0.48 0 0 0 29.461 3.718 A 1.093 1.093 0 0 0 29.611 3.796 Q 29.775 3.868 30.031 3.937 A 6.581 6.581 0 0 0 30.302 4.003 A 6.318 6.318 0 0 1 30.71 4.108 Q 31.047 4.208 31.289 4.329 A 1.901 1.901 0 0 1 31.545 4.481 Q 31.682 4.579 31.779 4.692 A 1.06 1.06 0 0 1 31.849 4.783 A 1.024 1.024 0 0 1 32.012 5.191 A 1.388 1.388 0 0 1 32.032 5.432 Q 32.032 6.069 31.522 6.453 Q 31.04 6.817 30.286 6.837 A 3.337 3.337 0 0 1 30.199 6.838 A 2.746 2.746 0 0 1 29.665 6.788 A 2.124 2.124 0 0 1 29.188 6.636 A 1.771 1.771 0 0 1 28.755 6.358 A 1.54 1.54 0 0 1 28.501 6.071 Q 28.252 5.708 28.252 5.287 L 29.065 5.287 A 0.932 0.932 0 0 0 29.139 5.612 A 0.827 0.827 0 0 0 29.393 5.935 A 1.072 1.072 0 0 0 29.795 6.128 Q 29.949 6.167 30.131 6.173 A 2.013 2.013 0 0 0 30.199 6.174 A 1.863 1.863 0 0 0 30.495 6.152 Q 30.656 6.126 30.788 6.07 A 0.941 0.941 0 0 0 30.94 5.988 A 0.689 0.689 0 0 0 31.104 5.837 A 0.554 0.554 0 0 0 31.219 5.489 A 0.698 0.698 0 0 0 31.182 5.258 A 0.581 0.581 0 0 0 30.97 4.977 A 1.05 1.05 0 0 0 30.802 4.878 Q 30.613 4.788 30.318 4.712 A 5.392 5.392 0 0 0 30.105 4.663 A 6.342 6.342 0 0 1 29.744 4.575 Q 29.374 4.473 29.125 4.346 Q 28.826 4.194 28.655 3.994 A 1.017 1.017 0 0 1 28.589 3.907 Q 28.415 3.652 28.415 3.3 A 1.206 1.206 0 0 1 28.814 2.396 A 1.694 1.694 0 0 1 28.909 2.312 A 1.752 1.752 0 0 1 29.692 1.952 A 2.471 2.471 0 0 1 30.173 1.907 A 2.559 2.559 0 0 1 30.736 1.966 A 1.757 1.757 0 0 1 31.485 2.325 Q 31.988 2.742 31.988 3.393 Z M 73.2 1.995 L 73.969 1.995 L 73.995 2.593 Q 74.531 1.918 75.391 1.907 A 2.234 2.234 0 0 1 75.419 1.907 A 1.905 1.905 0 0 1 76.052 2.004 Q 76.894 2.3 76.937 3.506 A 3.668 3.668 0 0 1 76.939 3.608 L 76.939 6.75 L 76.126 6.75 L 76.126 3.604 A 1.837 1.837 0 0 0 76.104 3.324 Q 76.054 3.017 75.891 2.843 Q 75.705 2.645 75.352 2.606 A 1.66 1.66 0 0 0 75.173 2.597 A 1.253 1.253 0 0 0 74.758 2.664 A 1.123 1.123 0 0 0 74.479 2.808 A 1.432 1.432 0 0 0 74.013 3.362 L 74.013 6.75 L 73.2 6.75 L 73.2 1.995 Z M 9.563 6.75 L 8.71 6.75 A 0.632 0.632 0 0 1 8.674 6.66 Q 8.643 6.562 8.618 6.41 A 3.997 3.997 0 0 1 8.596 6.249 Q 8.029 6.838 7.242 6.838 A 2.033 2.033 0 0 1 6.713 6.772 A 1.529 1.529 0 0 1 6.089 6.44 Q 5.638 6.042 5.638 5.432 Q 5.638 4.689 6.203 4.278 Q 6.768 3.867 7.792 3.867 L 8.583 3.867 L 8.583 3.494 A 1.152 1.152 0 0 0 8.547 3.199 A 0.828 0.828 0 0 0 8.328 2.815 Q 8.111 2.6 7.721 2.568 A 1.748 1.748 0 0 0 7.576 2.562 Q 7.141 2.562 6.847 2.782 Q 6.552 3.001 6.552 3.313 L 5.735 3.313 A 1.041 1.041 0 0 1 5.86 2.825 A 1.409 1.409 0 0 1 5.988 2.626 Q 6.24 2.294 6.673 2.101 A 2.249 2.249 0 0 1 7.449 1.913 A 2.669 2.669 0 0 1 7.625 1.907 A 2.65 2.65 0 0 1 8.142 1.955 Q 8.449 2.016 8.688 2.156 A 1.439 1.439 0 0 1 8.912 2.318 A 1.396 1.396 0 0 1 9.365 3.144 A 1.998 1.998 0 0 1 9.396 3.45 L 9.396 5.638 Q 9.396 6.073 9.469 6.39 A 1.707 1.707 0 0 0 9.563 6.68 L 9.563 6.75 Z M 17.398 6.75 L 16.545 6.75 A 0.632 0.632 0 0 1 16.51 6.66 Q 16.479 6.562 16.454 6.41 A 3.997 3.997 0 0 1 16.431 6.249 Q 15.864 6.838 15.078 6.838 A 2.033 2.033 0 0 1 14.548 6.772 A 1.529 1.529 0 0 1 13.924 6.44 Q 13.474 6.042 13.474 5.432 Q 13.474 4.689 14.038 4.278 Q 14.603 3.867 15.627 3.867 L 16.418 3.867 L 16.418 3.494 A 1.152 1.152 0 0 0 16.382 3.199 A 0.828 0.828 0 0 0 16.163 2.815 Q 15.947 2.6 15.556 2.568 A 1.748 1.748 0 0 0 15.412 2.562 Q 14.977 2.562 14.682 2.782 Q 14.388 3.001 14.388 3.313 L 13.57 3.313 A 1.041 1.041 0 0 1 13.695 2.825 A 1.409 1.409 0 0 1 13.823 2.626 Q 14.076 2.294 14.509 2.101 A 2.249 2.249 0 0 1 15.284 1.913 A 2.669 2.669 0 0 1 15.46 1.907 A 2.65 2.65 0 0 1 15.977 1.955 Q 16.285 2.016 16.523 2.156 A 1.439 1.439 0 0 1 16.748 2.318 A 1.396 1.396 0 0 1 17.201 3.144 A 1.998 1.998 0 0 1 17.231 3.45 L 17.231 5.638 Q 17.231 6.073 17.305 6.39 A 1.707 1.707 0 0 0 17.398 6.68 L 17.398 6.75 Z M 27.343 6.75 L 26.49 6.75 A 0.632 0.632 0 0 1 26.455 6.66 Q 26.424 6.562 26.399 6.41 A 3.997 3.997 0 0 1 26.376 6.249 Q 25.809 6.838 25.022 6.838 A 2.033 2.033 0 0 1 24.493 6.772 A 1.529 1.529 0 0 1 23.869 6.44 Q 23.418 6.042 23.418 5.432 Q 23.418 4.689 23.983 4.278 Q 24.548 3.867 25.572 3.867 L 26.363 3.867 L 26.363 3.494 A 1.152 1.152 0 0 0 26.327 3.199 A 0.828 0.828 0 0 0 26.108 2.815 Q 25.892 2.6 25.501 2.568 A 1.748 1.748 0 0 0 25.356 2.562 Q 24.921 2.562 24.627 2.782 Q 24.333 3.001 24.333 3.313 L 23.515 3.313 A 1.041 1.041 0 0 1 23.64 2.825 A 1.409 1.409 0 0 1 23.768 2.626 Q 24.021 2.294 24.453 2.101 A 2.249 2.249 0 0 1 25.229 1.913 A 2.669 2.669 0 0 1 25.405 1.907 A 2.65 2.65 0 0 1 25.922 1.955 Q 26.229 2.016 26.468 2.156 A 1.439 1.439 0 0 1 26.692 2.318 A 1.396 1.396 0 0 1 27.146 3.144 A 1.998 1.998 0 0 1 27.176 3.45 L 27.176 5.638 Q 27.176 6.073 27.249 6.39 A 1.707 1.707 0 0 0 27.343 6.68 L 27.343 6.75 Z M 61.835 6.75 L 60.983 6.75 A 0.632 0.632 0 0 1 60.947 6.66 Q 60.916 6.562 60.891 6.41 A 3.997 3.997 0 0 1 60.869 6.249 Q 60.302 6.838 59.515 6.838 A 2.033 2.033 0 0 1 58.986 6.772 A 1.529 1.529 0 0 1 58.362 6.44 Q 57.911 6.042 57.911 5.432 Q 57.911 4.689 58.476 4.278 Q 59.041 3.867 60.064 3.867 L 60.855 3.867 L 60.855 3.494 A 1.152 1.152 0 0 0 60.82 3.199 A 0.828 0.828 0 0 0 60.601 2.815 Q 60.384 2.6 59.994 2.568 A 1.748 1.748 0 0 0 59.849 2.562 Q 59.414 2.562 59.12 2.782 Q 58.825 3.001 58.825 3.313 L 58.008 3.313 A 1.041 1.041 0 0 1 58.133 2.825 A 1.409 1.409 0 0 1 58.26 2.626 Q 58.513 2.294 58.946 2.101 A 2.249 2.249 0 0 1 59.722 1.913 A 2.669 2.669 0 0 1 59.897 1.907 A 2.65 2.65 0 0 1 60.415 1.955 Q 60.722 2.016 60.961 2.156 A 1.439 1.439 0 0 1 61.185 2.318 A 1.396 1.396 0 0 1 61.638 3.144 A 1.998 1.998 0 0 1 61.668 3.45 L 61.668 5.638 Q 61.668 6.073 61.742 6.39 A 1.707 1.707 0 0 0 61.835 6.68 L 61.835 6.75 Z M 22.531 4.355 L 22.531 4.425 Q 22.531 5.308 22.202 5.909 A 2.141 2.141 0 0 1 22.03 6.177 A 1.647 1.647 0 0 1 21.443 6.673 Q 21.128 6.828 20.737 6.837 A 2.112 2.112 0 0 1 20.685 6.838 A 2.039 2.039 0 0 1 20.09 6.756 A 1.561 1.561 0 0 1 19.292 6.201 L 19.252 6.75 L 18.505 6.75 L 18.505 0 L 19.318 0 L 19.318 2.518 A 1.605 1.605 0 0 1 20.485 1.915 A 2.285 2.285 0 0 1 20.676 1.907 A 1.835 1.835 0 0 1 21.307 2.011 A 1.579 1.579 0 0 1 22.036 2.562 Q 22.45 3.11 22.518 3.998 A 4.727 4.727 0 0 1 22.531 4.355 Z M 32.884 4.504 L 32.884 4.355 A 3.17 3.17 0 0 1 32.961 3.646 A 2.581 2.581 0 0 1 33.155 3.092 A 2.191 2.191 0 0 1 33.602 2.466 A 2.033 2.033 0 0 1 33.91 2.221 Q 34.396 1.907 34.963 1.907 A 2.254 2.254 0 0 1 35.576 1.986 A 1.639 1.639 0 0 1 36.404 2.518 Q 36.918 3.129 36.918 4.267 L 36.918 4.605 L 33.697 4.605 A 2.111 2.111 0 0 0 33.768 5.114 A 1.516 1.516 0 0 0 34.108 5.741 A 1.282 1.282 0 0 0 35.042 6.173 A 1.652 1.652 0 0 0 35.108 6.174 A 1.763 1.763 0 0 0 35.436 6.145 Q 35.66 6.103 35.837 5.999 A 1.827 1.827 0 0 0 36.346 5.551 A 2.068 2.068 0 0 0 36.36 5.533 L 36.857 5.919 A 1.926 1.926 0 0 1 35.457 6.811 A 2.749 2.749 0 0 1 35.064 6.838 A 2.394 2.394 0 0 1 34.313 6.725 A 1.974 1.974 0 0 1 33.491 6.203 Q 32.884 5.568 32.884 4.504 Z M 1.771 6.75 L 0 6.75 L 0 0.352 L 1.806 0.352 Q 2.641 0.352 3.283 0.721 Q 3.924 1.09 4.274 1.771 A 3.19 3.19 0 0 1 4.591 2.8 A 4.073 4.073 0 0 1 4.627 3.335 L 4.627 3.744 Q 4.627 4.649 4.278 5.331 A 2.457 2.457 0 0 1 3.281 6.376 Q 2.632 6.741 1.771 6.75 Z M 10.96 0.844 L 11.773 0.844 L 11.773 1.995 L 12.661 1.995 L 12.661 2.624 L 11.773 2.624 L 11.773 5.572 Q 11.773 5.858 11.892 6.001 Q 12.01 6.144 12.296 6.144 A 1.046 1.046 0 0 0 12.393 6.138 Q 12.496 6.129 12.636 6.101 A 4.024 4.024 0 0 0 12.683 6.091 L 12.683 6.75 A 2.463 2.463 0 0 1 12.25 6.829 A 2.157 2.157 0 0 1 12.059 6.838 Q 11.611 6.838 11.345 6.616 A 0.856 0.856 0 0 1 11.237 6.508 Q 11.009 6.238 10.969 5.78 A 2.351 2.351 0 0 1 10.96 5.572 L 10.96 2.624 L 10.094 2.624 L 10.094 1.995 L 10.96 1.995 L 10.96 0.844 Z M 63.233 0.844 L 64.046 0.844 L 64.046 1.995 L 64.934 1.995 L 64.934 2.624 L 64.046 2.624 L 64.046 5.572 Q 64.046 5.858 64.165 6.001 Q 64.283 6.144 64.569 6.144 A 1.046 1.046 0 0 0 64.666 6.138 Q 64.769 6.129 64.909 6.101 A 4.024 4.024 0 0 0 64.956 6.091 L 64.956 6.75 A 2.463 2.463 0 0 1 64.523 6.829 A 2.157 2.157 0 0 1 64.332 6.838 Q 63.884 6.838 63.618 6.616 A 0.856 0.856 0 0 1 63.51 6.508 Q 63.282 6.238 63.242 5.78 A 2.351 2.351 0 0 1 63.233 5.572 L 63.233 2.624 L 62.367 2.624 L 62.367 1.995 L 63.233 1.995 L 63.233 0.844 Z M 67.852 4.386 L 67.852 4.329 A 3.057 3.057 0 0 1 67.938 3.587 A 2.573 2.573 0 0 1 68.126 3.072 A 2.16 2.16 0 0 1 68.541 2.486 A 1.957 1.957 0 0 1 68.891 2.21 A 2.036 2.036 0 0 1 69.835 1.913 A 2.491 2.491 0 0 1 70.009 1.907 A 2.277 2.277 0 0 1 70.763 2.027 A 1.937 1.937 0 0 1 71.58 2.58 A 2.29 2.29 0 0 1 72.099 3.608 A 3.373 3.373 0 0 1 72.18 4.368 L 72.18 4.425 A 3.114 3.114 0 0 1 72.101 5.142 A 2.577 2.577 0 0 1 71.914 5.671 A 2.056 2.056 0 0 1 71.387 6.361 A 2.001 2.001 0 0 1 71.154 6.53 A 2.045 2.045 0 0 1 70.234 6.829 A 2.529 2.529 0 0 1 70.018 6.838 A 2.262 2.262 0 0 1 69.268 6.718 A 1.938 1.938 0 0 1 68.451 6.166 A 2.297 2.297 0 0 1 67.926 5.111 A 3.357 3.357 0 0 1 67.852 4.386 Z M 57.476 1.969 L 57.476 2.725 A 2.251 2.251 0 0 0 57.233 2.698 A 2.782 2.782 0 0 0 57.076 2.694 Q 56.298 2.694 56.007 3.338 A 1.445 1.445 0 0 0 55.991 3.375 L 55.991 6.75 L 55.178 6.75 L 55.178 1.995 L 55.969 1.995 L 55.982 2.544 Q 56.362 1.938 57.045 1.909 A 1.636 1.636 0 0 1 57.116 1.907 Q 57.353 1.907 57.476 1.969 Z M 1.828 1.046 L 0.844 1.046 L 0.844 6.06 L 1.731 6.06 A 2.519 2.519 0 0 0 2.364 5.985 A 1.747 1.747 0 0 0 3.25 5.454 Q 3.709 4.94 3.78 4.059 A 4.165 4.165 0 0 0 3.792 3.727 L 3.792 3.353 Q 3.792 2.562 3.523 2.027 A 1.864 1.864 0 0 0 3.281 1.659 A 1.687 1.687 0 0 0 2.285 1.09 A 2.499 2.499 0 0 0 1.828 1.046 Z M 48.828 1.995 L 48.828 6.75 L 48.015 6.75 L 48.015 1.995 L 48.828 1.995 Z M 66.766 1.995 L 66.766 6.75 L 65.953 6.75 L 65.953 1.995 L 66.766 1.995 Z M 68.669 4.425 A 2.772 2.772 0 0 0 68.716 4.954 Q 68.777 5.264 68.914 5.51 A 1.545 1.545 0 0 0 69.036 5.695 Q 69.403 6.174 70.018 6.174 A 1.269 1.269 0 0 0 70.507 6.083 Q 70.787 5.967 70.989 5.706 A 1.471 1.471 0 0 0 71.002 5.689 A 1.648 1.648 0 0 0 71.257 5.171 Q 71.326 4.945 71.352 4.672 A 3.655 3.655 0 0 0 71.367 4.329 A 2.687 2.687 0 0 0 71.316 3.789 Q 71.248 3.459 71.091 3.2 A 1.586 1.586 0 0 0 70.996 3.061 A 1.231 1.231 0 0 0 70.581 2.705 Q 70.328 2.575 70.009 2.575 Q 69.419 2.575 69.053 3.035 A 1.515 1.515 0 0 0 69.038 3.054 A 1.589 1.589 0 0 0 68.786 3.552 Q 68.716 3.772 68.688 4.039 A 3.676 3.676 0 0 0 68.669 4.425 Z M 19.318 3.344 L 19.318 5.401 A 1.528 1.528 0 0 0 19.604 5.807 Q 19.927 6.127 20.417 6.147 A 1.621 1.621 0 0 0 20.483 6.148 A 1.206 1.206 0 0 0 20.9 6.079 A 1.04 1.04 0 0 0 21.393 5.695 Q 21.718 5.243 21.718 4.333 Q 21.718 3.502 21.397 3.05 A 1.03 1.03 0 0 0 20.647 2.607 A 1.449 1.449 0 0 0 20.474 2.597 A 1.34 1.34 0 0 0 19.965 2.69 Q 19.546 2.86 19.318 3.344 Z M 53.134 5.449 L 53.134 3.278 A 1.439 1.439 0 0 0 52.833 2.891 Q 52.53 2.62 52.089 2.599 A 1.578 1.578 0 0 0 52.014 2.597 Q 51.422 2.597 51.088 3.056 A 1.51 1.51 0 0 0 50.877 3.484 Q 50.811 3.689 50.78 3.939 A 3.955 3.955 0 0 0 50.752 4.425 Q 50.752 5.229 51.082 5.689 Q 51.412 6.148 52.005 6.148 A 1.32 1.32 0 0 0 52.515 6.054 Q 52.906 5.891 53.134 5.449 Z M 8.583 5.418 L 8.583 4.443 L 7.945 4.443 Q 6.451 4.443 6.451 5.317 Q 6.451 5.7 6.706 5.915 A 0.893 0.893 0 0 0 7.12 6.108 A 1.259 1.259 0 0 0 7.361 6.13 A 1.429 1.429 0 0 0 8.086 5.933 A 1.335 1.335 0 0 0 8.381 5.705 A 1.108 1.108 0 0 0 8.583 5.418 Z M 16.418 5.418 L 16.418 4.443 L 15.781 4.443 Q 14.287 4.443 14.287 5.317 Q 14.287 5.7 14.542 5.915 A 0.893 0.893 0 0 0 14.955 6.108 A 1.259 1.259 0 0 0 15.196 6.13 A 1.429 1.429 0 0 0 15.921 5.933 A 1.335 1.335 0 0 0 16.217 5.705 A 1.108 1.108 0 0 0 16.418 5.418 Z M 26.363 5.418 L 26.363 4.443 L 25.726 4.443 Q 24.231 4.443 24.231 5.317 Q 24.231 5.7 24.486 5.915 A 0.893 0.893 0 0 0 24.9 6.108 A 1.259 1.259 0 0 0 25.141 6.13 A 1.429 1.429 0 0 0 25.866 5.933 A 1.335 1.335 0 0 0 26.162 5.705 A 1.108 1.108 0 0 0 26.363 5.418 Z M 60.855 5.418 L 60.855 4.443 L 60.218 4.443 Q 58.724 4.443 58.724 5.317 Q 58.724 5.7 58.979 5.915 A 0.893 0.893 0 0 0 59.392 6.108 A 1.259 1.259 0 0 0 59.634 6.13 A 1.429 1.429 0 0 0 60.359 5.933 A 1.335 1.335 0 0 0 60.654 5.705 A 1.108 1.108 0 0 0 60.855 5.418 Z M 33.724 3.938 L 36.105 3.938 L 36.105 3.876 Q 36.079 3.417 35.909 3.111 A 1.13 1.13 0 0 0 35.771 2.916 A 0.983 0.983 0 0 0 35.117 2.584 A 1.39 1.39 0 0 0 34.963 2.575 A 1.106 1.106 0 0 0 34.44 2.698 A 1.14 1.14 0 0 0 34.137 2.933 A 1.417 1.417 0 0 0 33.86 3.379 Q 33.786 3.563 33.747 3.785 A 2.741 2.741 0 0 0 33.724 3.938 Z M 47.949 0.734 Q 47.949 0.536 48.07 0.4 Q 48.181 0.274 48.393 0.264 A 0.783 0.783 0 0 1 48.428 0.264 Q 48.665 0.264 48.788 0.4 A 0.474 0.474 0 0 1 48.91 0.703 A 0.614 0.614 0 0 1 48.911 0.734 A 0.523 0.523 0 0 1 48.886 0.9 A 0.442 0.442 0 0 1 48.788 1.063 Q 48.676 1.184 48.468 1.194 A 0.803 0.803 0 0 1 48.428 1.195 Q 48.255 1.195 48.145 1.126 A 0.362 0.362 0 0 1 48.07 1.063 A 0.456 0.456 0 0 1 47.951 0.788 A 0.605 0.605 0 0 1 47.949 0.734 Z M 65.887 0.734 Q 65.887 0.536 66.008 0.4 Q 66.12 0.274 66.332 0.264 A 0.783 0.783 0 0 1 66.366 0.264 Q 66.604 0.264 66.727 0.4 A 0.474 0.474 0 0 1 66.849 0.703 A 0.614 0.614 0 0 1 66.85 0.734 A 0.523 0.523 0 0 1 66.824 0.9 A 0.442 0.442 0 0 1 66.727 1.063 Q 66.614 1.184 66.406 1.194 A 0.803 0.803 0 0 1 66.366 1.195 Q 66.194 1.195 66.083 1.126 A 0.362 0.362 0 0 1 66.008 1.063 A 0.456 0.456 0 0 1 65.89 0.788 A 0.605 0.605 0 0 1 65.887 0.734 Z" vector-effect="non-scaling-stroke"/></g><g transform="translate(33vw, 90vh)" id="svgGroup" stroke-linecap="round" fill-rule="evenodd" font-size="9pt" stroke="#000" stroke-width="0.25mm" fill="#000" style="stroke:#000;stroke-width:0.25mm;fill:#000"><path d="M 4.636 1.938 L 3.788 1.938 A 1.466 1.466 0 0 0 3.738 1.546 A 1.066 1.066 0 0 0 3.419 1.026 A 1.211 1.211 0 0 0 2.95 0.77 Q 2.698 0.694 2.378 0.694 A 2.286 2.286 0 0 0 1.998 0.724 Q 1.796 0.758 1.633 0.831 A 1.101 1.101 0 0 0 1.404 0.969 A 0.892 0.892 0 0 0 1.059 1.624 A 1.267 1.267 0 0 0 1.055 1.732 A 0.806 0.806 0 0 0 1.323 2.337 A 1.134 1.134 0 0 0 1.387 2.393 A 1.562 1.562 0 0 0 1.625 2.549 Q 1.955 2.73 2.516 2.887 A 8.228 8.228 0 0 1 2.981 3.032 Q 3.216 3.113 3.41 3.2 A 3.297 3.297 0 0 1 3.764 3.382 A 2.342 2.342 0 0 1 4.103 3.626 Q 4.293 3.792 4.415 3.985 A 1.45 1.45 0 0 1 4.432 4.012 A 1.498 1.498 0 0 1 4.628 4.568 A 1.948 1.948 0 0 1 4.65 4.86 A 1.606 1.606 0 0 1 4.527 5.497 Q 4.382 5.838 4.064 6.09 A 1.886 1.886 0 0 1 4.043 6.106 Q 3.437 6.574 2.422 6.574 A 3.023 3.023 0 0 1 1.281 6.36 A 2.917 2.917 0 0 1 1.191 6.322 A 2.383 2.383 0 0 1 0.713 6.044 A 1.874 1.874 0 0 1 0.31 5.629 A 1.689 1.689 0 0 1 0 4.632 L 0.848 4.632 A 1.261 1.261 0 0 0 0.918 5.059 A 1.074 1.074 0 0 0 1.277 5.548 Q 1.661 5.85 2.278 5.881 A 2.87 2.87 0 0 0 2.422 5.884 A 2.628 2.628 0 0 0 2.809 5.858 Q 3.005 5.828 3.164 5.767 A 1.129 1.129 0 0 0 3.445 5.612 Q 3.801 5.339 3.801 4.869 A 1.074 1.074 0 0 0 3.759 4.559 A 0.816 0.816 0 0 0 3.472 4.142 Q 3.142 3.885 2.277 3.634 Q 1.191 3.322 0.697 2.868 Q 0.202 2.413 0.202 1.745 Q 0.202 0.989 0.807 0.494 A 2.121 2.121 0 0 1 1.697 0.071 A 3.087 3.087 0 0 1 2.378 0 A 2.913 2.913 0 0 1 3.038 0.072 A 2.372 2.372 0 0 1 3.553 0.255 A 2.051 2.051 0 0 1 4.084 0.626 A 1.834 1.834 0 0 1 4.353 0.958 A 1.798 1.798 0 0 1 4.636 1.938 Z M 23.067 4.988 L 23.836 4.988 A 1.432 1.432 0 0 1 23.637 5.638 A 1.772 1.772 0 0 1 23.555 5.766 A 1.828 1.828 0 0 1 22.946 6.31 A 2.169 2.169 0 0 1 22.863 6.355 A 1.997 1.997 0 0 1 21.946 6.574 A 2.346 2.346 0 0 1 21.249 6.476 A 1.839 1.839 0 0 1 20.402 5.926 A 2.171 2.171 0 0 1 19.938 5.046 Q 19.828 4.645 19.828 4.153 L 19.828 4.017 A 3.24 3.24 0 0 1 19.892 3.361 A 2.57 2.57 0 0 1 20.083 2.782 A 2.008 2.008 0 0 1 20.523 2.168 A 1.892 1.892 0 0 1 20.815 1.942 A 1.943 1.943 0 0 1 21.571 1.67 A 2.529 2.529 0 0 1 21.942 1.644 A 2.196 2.196 0 0 1 22.59 1.735 A 1.786 1.786 0 0 1 23.271 2.123 A 1.693 1.693 0 0 1 23.83 3.272 A 2.239 2.239 0 0 1 23.836 3.366 L 23.067 3.366 Q 23.032 2.905 22.718 2.608 A 1.078 1.078 0 0 0 21.989 2.312 A 1.402 1.402 0 0 0 21.942 2.312 A 1.374 1.374 0 0 0 21.521 2.373 A 1.081 1.081 0 0 0 20.982 2.758 A 1.469 1.469 0 0 0 20.755 3.205 Q 20.689 3.41 20.662 3.66 A 3.514 3.514 0 0 0 20.641 4.047 L 20.641 4.201 Q 20.641 5.023 20.98 5.467 A 1.1 1.1 0 0 0 21.766 5.901 A 1.611 1.611 0 0 0 21.946 5.911 A 1.171 1.171 0 0 0 22.707 5.647 A 1.007 1.007 0 0 0 22.951 5.366 A 0.914 0.914 0 0 0 23.067 4.988 Z M 5.397 4.241 L 5.397 4.091 A 3.17 3.17 0 0 1 5.473 3.382 A 2.581 2.581 0 0 1 5.667 2.828 A 2.191 2.191 0 0 1 6.114 2.202 A 2.033 2.033 0 0 1 6.423 1.958 Q 6.908 1.644 7.475 1.644 A 2.254 2.254 0 0 1 8.088 1.723 A 1.639 1.639 0 0 1 8.917 2.254 Q 9.431 2.865 9.431 4.003 L 9.431 4.342 L 6.21 4.342 A 2.111 2.111 0 0 0 6.281 4.85 A 1.516 1.516 0 0 0 6.621 5.478 A 1.282 1.282 0 0 0 7.555 5.909 A 1.652 1.652 0 0 0 7.62 5.911 A 1.763 1.763 0 0 0 7.948 5.882 Q 8.172 5.839 8.35 5.735 A 1.827 1.827 0 0 0 8.859 5.287 A 2.068 2.068 0 0 0 8.873 5.269 L 9.369 5.656 A 1.926 1.926 0 0 1 7.97 6.547 A 2.749 2.749 0 0 1 7.576 6.574 A 2.394 2.394 0 0 1 6.825 6.461 A 1.974 1.974 0 0 1 6.003 5.939 Q 5.397 5.304 5.397 4.241 Z M 24.544 4.241 L 24.544 4.091 A 3.17 3.17 0 0 1 24.62 3.382 A 2.581 2.581 0 0 1 24.814 2.828 A 2.191 2.191 0 0 1 25.261 2.202 A 2.033 2.033 0 0 1 25.57 1.958 Q 26.055 1.644 26.622 1.644 A 2.254 2.254 0 0 1 27.235 1.723 A 1.639 1.639 0 0 1 28.064 2.254 Q 28.578 2.865 28.578 4.003 L 28.578 4.342 L 25.357 4.342 A 2.111 2.111 0 0 0 25.428 4.85 A 1.516 1.516 0 0 0 25.767 5.478 A 1.282 1.282 0 0 0 26.702 5.909 A 1.652 1.652 0 0 0 26.767 5.911 A 1.763 1.763 0 0 0 27.095 5.882 Q 27.319 5.839 27.497 5.735 A 1.827 1.827 0 0 0 28.006 5.287 A 2.068 2.068 0 0 0 28.02 5.269 L 28.516 5.656 A 1.926 1.926 0 0 1 27.117 6.547 A 2.749 2.749 0 0 1 26.723 6.574 A 2.394 2.394 0 0 1 25.972 6.461 A 1.974 1.974 0 0 1 25.15 5.939 Q 24.544 5.304 24.544 4.241 Z M 13.856 1.732 L 15.065 5.383 L 16.242 1.732 L 17.073 1.732 L 15.368 6.486 L 14.748 6.486 L 13.026 1.732 L 13.856 1.732 Z M 12.67 1.705 L 12.67 2.461 A 2.251 2.251 0 0 0 12.427 2.435 A 2.782 2.782 0 0 0 12.27 2.43 Q 11.492 2.43 11.2 3.074 A 1.445 1.445 0 0 0 11.184 3.111 L 11.184 6.486 L 10.371 6.486 L 10.371 1.732 L 11.162 1.732 L 11.175 2.281 Q 11.556 1.675 12.238 1.645 A 1.636 1.636 0 0 1 12.309 1.644 Q 12.547 1.644 12.67 1.705 Z M 18.738 1.732 L 18.738 6.486 L 17.925 6.486 L 17.925 1.732 L 18.738 1.732 Z M 6.236 3.674 L 8.618 3.674 L 8.618 3.612 Q 8.592 3.153 8.421 2.848 A 1.13 1.13 0 0 0 8.284 2.652 A 0.983 0.983 0 0 0 7.629 2.32 A 1.39 1.39 0 0 0 7.475 2.312 A 1.106 1.106 0 0 0 6.953 2.435 A 1.14 1.14 0 0 0 6.649 2.67 A 1.417 1.417 0 0 0 6.372 3.116 Q 6.299 3.3 6.259 3.522 A 2.741 2.741 0 0 0 6.236 3.674 Z M 25.383 3.674 L 27.765 3.674 L 27.765 3.612 Q 27.739 3.153 27.568 2.848 A 1.13 1.13 0 0 0 27.431 2.652 A 0.983 0.983 0 0 0 26.776 2.32 A 1.39 1.39 0 0 0 26.622 2.312 A 1.106 1.106 0 0 0 26.1 2.435 A 1.14 1.14 0 0 0 25.796 2.67 A 1.417 1.417 0 0 0 25.519 3.116 Q 25.446 3.3 25.406 3.522 A 2.741 2.741 0 0 0 25.383 3.674 Z M 17.86 0.47 Q 17.86 0.273 17.98 0.136 Q 18.092 0.01 18.304 0.001 A 0.783 0.783 0 0 1 18.339 0 Q 18.576 0 18.699 0.136 A 0.474 0.474 0 0 1 18.821 0.44 A 0.614 0.614 0 0 1 18.822 0.47 A 0.523 0.523 0 0 1 18.797 0.636 A 0.442 0.442 0 0 1 18.699 0.8 Q 18.586 0.92 18.378 0.931 A 0.803 0.803 0 0 1 18.339 0.932 Q 18.166 0.932 18.055 0.862 A 0.362 0.362 0 0 1 17.98 0.8 A 0.456 0.456 0 0 1 17.862 0.525 A 0.605 0.605 0 0 1 17.86 0.47 Z" vector-effect="non-scaling-stroke"/></g>
</svg>