<?xml version="1.0" encoding="UTF-8"?>
<svg width="80px" height="80px" viewBox="0 0 80 80" version="1.1" xmlns="http://www.w3.org/2000/svg" xmlns:xlink="http://www.w3.org/1999/xlink">
    <title>Icon-Architecture/64/Arch_Amazon-MemoryDB-for-Redis_64</title>
    
    <g id="Icon-Architecture/64/Arch_Amazon-MemoryDB-for-Redis_64" stroke="none" stroke-width="1" fill="none" fill-rule="evenodd">
        
        <g id="Icon-Service/64/Amazon-MemoryDB-for-Redis_64" transform="translate(16, 8), scale(.65)" fill="#000000">
            <path d="M22.979,17.248 C12.823,17.248 6,14.34 6,11.624 C6,8.909 12.823,6 22.979,6 C33.015,6 39.012,8.86 39.012,11.624 C39.012,14.389 33.015,17.248 22.979,17.248 L22.979,17.248 Z M38.409,32.731 C40.349,32.731 42.285,32.948 44.161,33.376 L44.606,31.426 C43.422,31.156 42.216,30.974 41,30.861 L41,11.955 L40.978,11.955 C40.987,11.844 41.012,11.737 41.012,11.624 C41.012,7.136 33.597,4 22.979,4 C13.548,4 4,6.619 4,11.624 C4,11.738 4.031,11.844 4.04,11.955 L4,11.955 L4,52.313 C4,55.193 7.13,57.518 12.814,58.859 L13.273,56.913 C8.788,55.853 6,54.091 6,52.313 L6,42.706 C7.295,43.751 9.198,44.639 11.648,45.319 L12.183,43.393 C8.312,42.317 6,40.713 6,39.101 L6,29.361 C9.073,31.896 15.256,33.271 21.417,33.526 L21.499,31.528 C11.797,31.126 6,28.242 6,25.687 L6,15.213 C9.284,17.869 16.152,19.248 22.979,19.248 C30.309,19.248 36.109,17.753 39,15.352 L39,30.748 C38.803,30.744 38.606,30.731 38.409,30.731 C28.06,30.731 18.612,36.43 13.75,45.602 L15.518,46.539 C20.031,38.022 28.802,32.731 38.409,32.731 L38.409,32.731 Z M51.637,36.374 C50.003,35.398 48.262,34.604 46.461,34.014 L47.084,32.113 C49.026,32.75 50.902,33.606 52.663,34.657 L51.637,36.374 Z M41.788,57.955 C41.613,56.831 41.149,55.804 40.469,54.953 L51.808,44.232 C55.43,47.748 57.681,52.761 57.938,57.955 L41.788,57.955 Z M35.471,54.541 C37.558,54.541 39.301,56.003 39.751,57.955 L31.192,57.955 C31.642,56.003 33.385,54.541 35.471,54.541 L35.471,54.541 Z M53.275,42.845 L56.95,39.371 L55.575,37.917 L38.988,53.6 C37.978,52.932 36.77,52.541 35.471,52.541 C32.278,52.541 29.632,54.894 29.155,57.955 L17.864,57.955 C18.379,47.191 27.169,38.596 37.901,38.596 C40.787,38.596 43.57,39.194 46.175,40.375 L47.001,38.554 C44.135,37.254 41.073,36.596 37.901,36.596 C25.737,36.596 15.84,46.626 15.84,58.955 L15.84,59.955 L59.962,59.955 L59.962,58.955 C59.962,52.909 57.474,46.956 53.275,42.845 L53.275,42.845 Z" id="Fill-1"></path>
        </g>
    </g><g transform="translate(12vw, 80vh)" id="svgGroup" stroke-linecap="round" fill-rule="evenodd" font-size="9pt" stroke="#000" stroke-width="0.25mm" fill="#000" style="stroke:#000;stroke-width:0.25mm;fill:#000"><path d="M 0 0.444 L 1.09 0.444 L 3.182 5.665 L 5.273 0.444 L 6.368 0.444 L 6.368 6.842 L 5.524 6.842 L 5.524 4.351 L 5.603 1.661 L 3.502 6.842 L 2.856 6.842 L 0.76 1.674 L 0.844 4.351 L 0.844 6.842 L 0 6.842 L 0 0.444 Z M 12.494 2.087 L 13.263 2.087 L 13.285 2.615 Q 13.808 2 14.695 2 A 2.009 2.009 0 0 1 15.206 2.06 A 1.244 1.244 0 0 1 16.053 2.764 A 1.801 1.801 0 0 1 16.671 2.21 A 1.65 1.65 0 0 1 17.2 2.029 A 2.209 2.209 0 0 1 17.569 2 A 2.119 2.119 0 0 1 18.213 2.089 Q 19.14 2.385 19.16 3.656 L 19.16 6.842 L 18.347 6.842 L 18.347 3.705 A 1.781 1.781 0 0 0 18.327 3.425 Q 18.303 3.277 18.253 3.159 A 0.758 0.758 0 0 0 18.114 2.942 A 0.68 0.68 0 0 0 17.861 2.774 Q 17.65 2.69 17.333 2.689 A 1.245 1.245 0 0 0 16.967 2.741 A 1.008 1.008 0 0 0 16.581 2.96 A 1.042 1.042 0 0 0 16.267 3.496 A 1.41 1.41 0 0 0 16.233 3.687 L 16.233 6.842 L 15.416 6.842 L 15.416 3.727 A 1.532 1.532 0 0 0 15.367 3.322 Q 15.241 2.86 14.783 2.735 A 1.457 1.457 0 0 0 14.401 2.689 Q 13.627 2.689 13.326 3.327 A 1.459 1.459 0 0 0 13.307 3.371 L 13.307 6.842 L 12.494 6.842 L 12.494 2.087 Z M 64.028 6.842 L 62.64 4.254 L 61.137 4.254 L 61.137 6.842 L 60.289 6.842 L 60.289 0.444 L 62.407 0.444 A 3.809 3.809 0 0 1 63.048 0.494 Q 63.391 0.553 63.664 0.68 A 1.789 1.789 0 0 1 64.07 0.936 A 1.588 1.588 0 0 1 64.595 1.825 A 2.453 2.453 0 0 1 64.652 2.369 A 1.864 1.864 0 0 1 64.561 2.96 A 1.64 1.64 0 0 1 64.329 3.41 A 1.849 1.849 0 0 1 63.67 3.967 A 2.342 2.342 0 0 1 63.431 4.074 L 64.934 6.79 L 64.934 6.842 L 64.028 6.842 Z M 81.272 3.485 L 80.455 3.485 Q 80.455 3.151 80.172 2.909 Q 79.888 2.667 79.458 2.667 Q 79.014 2.667 78.763 2.861 A 0.653 0.653 0 0 0 78.588 3.059 Q 78.515 3.191 78.513 3.356 A 0.771 0.771 0 0 0 78.513 3.366 A 0.588 0.588 0 0 0 78.543 3.559 A 0.48 0.48 0 0 0 78.746 3.81 A 1.093 1.093 0 0 0 78.896 3.889 Q 79.06 3.96 79.316 4.029 A 6.581 6.581 0 0 0 79.587 4.096 A 6.318 6.318 0 0 1 79.995 4.2 Q 80.332 4.3 80.574 4.421 A 1.901 1.901 0 0 1 80.83 4.573 Q 80.967 4.671 81.064 4.785 A 1.06 1.06 0 0 1 81.134 4.876 A 1.024 1.024 0 0 1 81.296 5.283 A 1.388 1.388 0 0 1 81.316 5.524 Q 81.316 6.161 80.807 6.546 Q 80.324 6.91 79.57 6.929 A 3.337 3.337 0 0 1 79.484 6.93 A 2.746 2.746 0 0 1 78.95 6.88 A 2.124 2.124 0 0 1 78.473 6.728 A 1.771 1.771 0 0 1 78.039 6.45 A 1.54 1.54 0 0 1 77.785 6.163 Q 77.537 5.801 77.537 5.379 L 78.35 5.379 A 0.932 0.932 0 0 0 78.424 5.704 A 0.827 0.827 0 0 0 78.677 6.027 A 1.072 1.072 0 0 0 79.08 6.22 Q 79.234 6.259 79.416 6.265 A 2.013 2.013 0 0 0 79.484 6.267 A 1.863 1.863 0 0 0 79.78 6.245 Q 79.941 6.219 80.073 6.162 A 0.941 0.941 0 0 0 80.224 6.08 A 0.689 0.689 0 0 0 80.389 5.929 A 0.554 0.554 0 0 0 80.503 5.581 A 0.698 0.698 0 0 0 80.467 5.35 A 0.581 0.581 0 0 0 80.255 5.069 A 1.05 1.05 0 0 0 80.086 4.971 Q 79.897 4.88 79.602 4.805 A 5.392 5.392 0 0 0 79.389 4.755 A 6.342 6.342 0 0 1 79.028 4.667 Q 78.659 4.565 78.409 4.438 Q 78.111 4.286 77.94 4.086 A 1.017 1.017 0 0 1 77.873 3.999 Q 77.7 3.744 77.7 3.393 A 1.206 1.206 0 0 1 78.099 2.488 A 1.694 1.694 0 0 1 78.194 2.404 A 1.752 1.752 0 0 1 78.977 2.044 A 2.471 2.471 0 0 1 79.458 2 A 2.559 2.559 0 0 1 80.021 2.058 A 1.757 1.757 0 0 1 80.769 2.417 Q 81.272 2.834 81.272 3.485 Z M 29.013 2.087 L 30.199 5.651 L 31.307 2.087 L 32.177 2.087 L 30.265 7.576 Q 29.821 8.763 28.854 8.763 L 28.701 8.75 L 28.397 8.692 L 28.397 8.033 L 28.617 8.051 Q 28.897 8.051 29.093 7.974 A 0.75 0.75 0 0 0 29.261 7.884 A 0.749 0.749 0 0 0 29.421 7.722 Q 29.539 7.563 29.629 7.307 A 2.575 2.575 0 0 0 29.641 7.273 L 29.821 6.79 L 28.125 2.087 L 29.013 2.087 Z M 70.277 4.487 L 70.277 4.425 A 3.762 3.762 0 0 1 70.344 3.694 Q 70.432 3.252 70.634 2.904 A 2.148 2.148 0 0 1 70.796 2.665 Q 71.314 2 72.154 2 A 1.964 1.964 0 0 1 72.752 2.086 A 1.559 1.559 0 0 1 73.477 2.571 L 73.477 0.092 L 74.29 0.092 L 74.29 6.842 L 73.542 6.842 L 73.503 6.333 Q 73.015 6.93 72.145 6.93 A 1.6 1.6 0 0 1 70.924 6.403 A 2.078 2.078 0 0 1 70.798 6.253 A 2.405 2.405 0 0 1 70.373 5.347 Q 70.289 5.004 70.279 4.603 A 4.425 4.425 0 0 1 70.277 4.487 Z M 7.523 4.597 L 7.523 4.447 A 3.17 3.17 0 0 1 7.6 3.738 A 2.581 2.581 0 0 1 7.794 3.184 A 2.191 2.191 0 0 1 8.241 2.558 A 2.033 2.033 0 0 1 8.55 2.314 Q 9.035 2 9.602 2 A 2.254 2.254 0 0 1 10.215 2.078 A 1.639 1.639 0 0 1 11.043 2.61 Q 11.558 3.221 11.558 4.359 L 11.558 4.698 L 8.336 4.698 A 2.111 2.111 0 0 0 8.407 5.206 A 1.516 1.516 0 0 0 8.747 5.834 A 1.282 1.282 0 0 0 9.681 6.265 A 1.652 1.652 0 0 0 9.747 6.267 A 1.763 1.763 0 0 0 10.075 6.238 Q 10.299 6.195 10.477 6.091 A 1.827 1.827 0 0 0 10.985 5.643 A 2.068 2.068 0 0 0 11 5.625 L 11.496 6.012 A 1.926 1.926 0 0 1 10.096 6.903 A 2.749 2.749 0 0 1 9.703 6.93 A 2.394 2.394 0 0 1 8.952 6.817 A 1.974 1.974 0 0 1 8.13 6.295 Q 7.523 5.66 7.523 4.597 Z M 65.5 4.597 L 65.5 4.447 A 3.17 3.17 0 0 1 65.577 3.738 A 2.581 2.581 0 0 1 65.771 3.184 A 2.191 2.191 0 0 1 66.218 2.558 A 2.033 2.033 0 0 1 66.527 2.314 Q 67.012 2 67.579 2 A 2.254 2.254 0 0 1 68.192 2.078 A 1.639 1.639 0 0 1 69.021 2.61 Q 69.535 3.221 69.535 4.359 L 69.535 4.698 L 66.313 4.698 A 2.111 2.111 0 0 0 66.385 5.206 A 1.516 1.516 0 0 0 66.724 5.834 A 1.282 1.282 0 0 0 67.658 6.265 A 1.652 1.652 0 0 0 67.724 6.267 A 1.763 1.763 0 0 0 68.052 6.238 Q 68.276 6.195 68.454 6.091 A 1.827 1.827 0 0 0 68.962 5.643 A 2.068 2.068 0 0 0 68.977 5.625 L 69.473 6.012 A 1.926 1.926 0 0 1 68.073 6.903 A 2.749 2.749 0 0 1 67.68 6.93 A 2.394 2.394 0 0 1 66.929 6.817 A 1.974 1.974 0 0 1 66.107 6.295 Q 65.5 5.66 65.5 4.597 Z M 41.15 6.842 L 38.931 6.842 L 38.931 0.444 L 41.023 0.444 A 4.031 4.031 0 0 1 41.596 0.482 Q 41.889 0.524 42.125 0.613 A 1.629 1.629 0 0 1 42.59 0.875 A 1.383 1.383 0 0 1 43.061 1.651 A 2.164 2.164 0 0 1 43.115 2.149 A 1.3 1.3 0 0 1 42.86 2.942 A 1.589 1.589 0 0 1 42.349 3.386 A 1.972 1.972 0 0 1 42.166 3.476 A 1.571 1.571 0 0 1 42.68 3.722 A 1.446 1.446 0 0 1 42.985 4.028 A 1.531 1.531 0 0 1 43.277 4.806 A 1.961 1.961 0 0 1 43.286 4.997 A 2.139 2.139 0 0 1 43.211 5.579 A 1.577 1.577 0 0 1 42.728 6.35 A 1.832 1.832 0 0 1 42.036 6.725 Q 41.769 6.806 41.451 6.831 A 3.81 3.81 0 0 1 41.15 6.842 Z M 47.848 6.842 L 47.035 6.842 L 47.035 2.716 L 46.283 2.716 L 46.283 2.087 L 47.035 2.087 L 47.035 1.6 Q 47.035 1.012 47.276 0.629 A 1.273 1.273 0 0 1 47.443 0.417 Q 47.852 0 48.599 0 A 2.134 2.134 0 0 1 49.157 0.075 L 49.113 0.734 Q 48.907 0.694 48.674 0.694 A 1.086 1.086 0 0 0 48.426 0.721 Q 48.205 0.773 48.063 0.925 A 0.747 0.747 0 0 0 47.897 1.221 Q 47.861 1.336 47.852 1.475 A 1.57 1.57 0 0 0 47.848 1.586 L 47.848 2.087 L 48.863 2.087 L 48.863 2.716 L 47.848 2.716 L 47.848 6.842 Z M 34.8 6.842 L 33.029 6.842 L 33.029 0.444 L 34.835 0.444 Q 35.67 0.444 36.312 0.813 Q 36.954 1.182 37.303 1.863 A 3.19 3.19 0 0 1 37.62 2.892 A 4.073 4.073 0 0 1 37.657 3.428 L 37.657 3.836 Q 37.657 4.742 37.307 5.423 A 2.457 2.457 0 0 1 36.31 6.469 Q 35.662 6.833 34.8 6.842 Z M 20.171 4.478 L 20.171 4.421 A 3.057 3.057 0 0 1 20.258 3.679 A 2.573 2.573 0 0 1 20.446 3.164 A 2.16 2.16 0 0 1 20.86 2.579 A 1.957 1.957 0 0 1 21.21 2.303 A 2.036 2.036 0 0 1 22.155 2.006 A 2.491 2.491 0 0 1 22.329 2 A 2.277 2.277 0 0 1 23.082 2.119 A 1.937 1.937 0 0 1 23.9 2.672 A 2.29 2.29 0 0 1 24.419 3.701 A 3.373 3.373 0 0 1 24.5 4.46 L 24.5 4.518 A 3.114 3.114 0 0 1 24.42 5.234 A 2.577 2.577 0 0 1 24.234 5.763 A 2.056 2.056 0 0 1 23.706 6.454 A 2.001 2.001 0 0 1 23.473 6.623 A 2.045 2.045 0 0 1 22.554 6.921 A 2.529 2.529 0 0 1 22.337 6.93 A 2.262 2.262 0 0 1 21.587 6.811 A 1.938 1.938 0 0 1 20.771 6.258 A 2.297 2.297 0 0 1 20.245 5.203 A 3.357 3.357 0 0 1 20.171 4.478 Z M 49.544 4.478 L 49.544 4.421 A 3.057 3.057 0 0 1 49.631 3.679 A 2.573 2.573 0 0 1 49.819 3.164 A 2.16 2.16 0 0 1 50.233 2.579 A 1.957 1.957 0 0 1 50.583 2.303 A 2.036 2.036 0 0 1 51.528 2.006 A 2.491 2.491 0 0 1 51.702 2 A 2.277 2.277 0 0 1 52.455 2.119 A 1.937 1.937 0 0 1 53.273 2.672 A 2.29 2.29 0 0 1 53.792 3.701 A 3.373 3.373 0 0 1 53.873 4.46 L 53.873 4.518 A 3.114 3.114 0 0 1 53.793 5.234 A 2.577 2.577 0 0 1 53.607 5.763 A 2.056 2.056 0 0 1 53.079 6.454 A 2.001 2.001 0 0 1 52.846 6.623 A 2.045 2.045 0 0 1 51.927 6.921 A 2.529 2.529 0 0 1 51.71 6.93 A 2.262 2.262 0 0 1 50.96 6.811 A 1.938 1.938 0 0 1 50.144 6.258 A 2.297 2.297 0 0 1 49.618 5.203 A 3.357 3.357 0 0 1 49.544 4.478 Z M 27.817 2.061 L 27.817 2.817 A 2.251 2.251 0 0 0 27.575 2.79 A 2.782 2.782 0 0 0 27.417 2.786 Q 26.64 2.786 26.348 3.43 A 1.445 1.445 0 0 0 26.332 3.467 L 26.332 6.842 L 25.519 6.842 L 25.519 2.087 L 26.31 2.087 L 26.323 2.637 Q 26.704 2.031 27.386 2.001 A 1.636 1.636 0 0 1 27.457 2 Q 27.694 2 27.817 2.061 Z M 57.19 2.061 L 57.19 2.817 A 2.251 2.251 0 0 0 56.948 2.79 A 2.782 2.782 0 0 0 56.791 2.786 Q 56.013 2.786 55.721 3.43 A 1.445 1.445 0 0 0 55.705 3.467 L 55.705 6.842 L 54.892 6.842 L 54.892 2.087 L 55.683 2.087 L 55.696 2.637 Q 56.077 2.031 56.759 2.001 A 1.636 1.636 0 0 1 56.83 2 Q 57.067 2 57.19 2.061 Z M 34.857 1.138 L 33.873 1.138 L 33.873 6.152 L 34.761 6.152 A 2.519 2.519 0 0 0 35.393 6.077 A 1.747 1.747 0 0 0 36.279 5.546 Q 36.738 5.033 36.809 4.151 A 4.165 4.165 0 0 0 36.822 3.819 L 36.822 3.445 Q 36.822 2.654 36.552 2.119 A 1.864 1.864 0 0 0 36.31 1.751 A 1.687 1.687 0 0 0 35.314 1.182 A 2.499 2.499 0 0 0 34.857 1.138 Z M 76.434 2.087 L 76.434 6.842 L 75.621 6.842 L 75.621 2.087 L 76.434 2.087 Z M 20.988 4.518 A 2.772 2.772 0 0 0 21.036 5.046 Q 21.096 5.357 21.233 5.602 A 1.545 1.545 0 0 0 21.355 5.788 Q 21.722 6.267 22.337 6.267 A 1.269 1.269 0 0 0 22.827 6.175 Q 23.106 6.06 23.309 5.798 A 1.471 1.471 0 0 0 23.322 5.781 A 1.648 1.648 0 0 0 23.577 5.264 Q 23.645 5.037 23.671 4.764 A 3.655 3.655 0 0 0 23.687 4.421 A 2.687 2.687 0 0 0 23.635 3.881 Q 23.568 3.551 23.41 3.292 A 1.586 1.586 0 0 0 23.315 3.153 A 1.231 1.231 0 0 0 22.9 2.798 Q 22.647 2.667 22.329 2.667 Q 21.739 2.667 21.372 3.127 A 1.515 1.515 0 0 0 21.357 3.146 A 1.589 1.589 0 0 0 21.105 3.644 Q 21.036 3.864 21.008 4.131 A 3.676 3.676 0 0 0 20.988 4.518 Z M 50.361 4.518 A 2.772 2.772 0 0 0 50.409 5.046 Q 50.469 5.357 50.606 5.602 A 1.545 1.545 0 0 0 50.728 5.788 Q 51.095 6.267 51.71 6.267 A 1.269 1.269 0 0 0 52.2 6.175 Q 52.479 6.06 52.682 5.798 A 1.471 1.471 0 0 0 52.695 5.781 A 1.648 1.648 0 0 0 52.95 5.264 Q 53.018 5.037 53.044 4.764 A 3.655 3.655 0 0 0 53.06 4.421 A 2.687 2.687 0 0 0 53.008 3.881 Q 52.941 3.551 52.783 3.292 A 1.586 1.586 0 0 0 52.688 3.153 A 1.231 1.231 0 0 0 52.273 2.798 Q 52.02 2.667 51.702 2.667 Q 51.112 2.667 50.745 3.127 A 1.515 1.515 0 0 0 50.73 3.146 A 1.589 1.589 0 0 0 50.478 3.644 Q 50.409 3.864 50.381 4.131 A 3.676 3.676 0 0 0 50.361 4.518 Z M 73.477 5.546 L 73.477 3.362 A 1.375 1.375 0 0 0 73.165 2.966 Q 72.841 2.689 72.356 2.689 A 1.238 1.238 0 0 0 71.929 2.76 A 1.068 1.068 0 0 0 71.424 3.151 A 1.51 1.51 0 0 0 71.215 3.577 Q 71.149 3.781 71.118 4.031 A 3.955 3.955 0 0 0 71.09 4.518 A 3.162 3.162 0 0 0 71.126 5.01 Q 71.167 5.271 71.256 5.481 A 1.474 1.474 0 0 0 71.424 5.783 A 1.06 1.06 0 0 0 72.187 6.231 A 1.391 1.391 0 0 0 72.347 6.24 Q 73.121 6.24 73.477 5.546 Z M 61.137 1.138 L 61.137 3.564 L 62.433 3.564 Q 62.973 3.564 63.323 3.324 A 1.174 1.174 0 0 0 63.433 3.239 A 1.069 1.069 0 0 0 63.798 2.501 A 1.486 1.486 0 0 0 63.804 2.369 Q 63.804 1.826 63.508 1.515 A 1 1 0 0 0 63.45 1.459 Q 63.097 1.143 62.429 1.138 L 61.137 1.138 Z M 41.181 3.85 L 39.775 3.85 L 39.775 6.152 L 41.168 6.152 A 1.84 1.84 0 0 0 41.543 6.116 Q 41.784 6.066 41.967 5.947 A 1.064 1.064 0 0 0 42.097 5.847 A 1.003 1.003 0 0 0 42.419 5.246 A 1.459 1.459 0 0 0 42.438 5.005 Q 42.438 4.099 41.666 3.904 A 1.977 1.977 0 0 0 41.182 3.85 Z M 39.775 1.138 L 39.775 3.173 L 41.049 3.173 Q 41.603 3.173 41.935 2.896 A 0.905 0.905 0 0 0 42.263 2.246 A 1.27 1.27 0 0 0 42.267 2.145 Q 42.267 1.788 42.126 1.563 A 0.71 0.71 0 0 0 41.959 1.378 A 0.969 0.969 0 0 0 41.673 1.228 Q 41.41 1.139 41.029 1.138 A 3.261 3.261 0 0 0 41.023 1.138 L 39.775 1.138 Z M 8.363 4.03 L 10.745 4.03 L 10.745 3.968 Q 10.719 3.509 10.548 3.204 A 1.13 1.13 0 0 0 10.411 3.008 A 0.983 0.983 0 0 0 9.756 2.676 A 1.39 1.39 0 0 0 9.602 2.667 A 1.106 1.106 0 0 0 9.08 2.79 A 1.14 1.14 0 0 0 8.776 3.026 A 1.417 1.417 0 0 0 8.499 3.472 Q 8.426 3.656 8.386 3.878 A 2.741 2.741 0 0 0 8.363 4.03 Z M 66.34 4.03 L 68.722 4.03 L 68.722 3.968 Q 68.696 3.509 68.525 3.204 A 1.13 1.13 0 0 0 68.388 3.008 A 0.983 0.983 0 0 0 67.733 2.676 A 1.39 1.39 0 0 0 67.579 2.667 A 1.106 1.106 0 0 0 67.057 2.79 A 1.14 1.14 0 0 0 66.753 3.026 A 1.417 1.417 0 0 0 66.476 3.472 Q 66.403 3.656 66.363 3.878 A 2.741 2.741 0 0 0 66.34 4.03 Z M 75.555 0.826 Q 75.555 0.628 75.676 0.492 Q 75.788 0.366 76 0.357 A 0.783 0.783 0 0 1 76.034 0.356 Q 76.271 0.356 76.395 0.492 A 0.474 0.474 0 0 1 76.517 0.796 A 0.614 0.614 0 0 1 76.518 0.826 A 0.523 0.523 0 0 1 76.492 0.992 A 0.442 0.442 0 0 1 76.395 1.156 Q 76.282 1.276 76.074 1.287 A 0.803 0.803 0 0 1 76.034 1.288 Q 75.862 1.288 75.751 1.218 A 0.362 0.362 0 0 1 75.676 1.156 A 0.456 0.456 0 0 1 75.558 0.88 A 0.605 0.605 0 0 1 75.555 0.826 Z" vector-effect="non-scaling-stroke"/></g>
</svg>