<?xml version="1.0" encoding="UTF-8"?>
<svg width="80px" height="80px" viewBox="0 0 80 80" version="1.1" xmlns="http://www.w3.org/2000/svg" xmlns:xlink="http://www.w3.org/1999/xlink">
    <!-- Generator: Sketch 64 (93537) - https://sketch.com -->
    <title>Icon-Architecture/64/Arch_Amazon-Neptune_64</title>
    <desc>Created with Sketch.</desc>
    
    <g id="Icon-Architecture/64/Arch_Amazon-Neptune_64" stroke="none" stroke-width="1" fill="none" fill-rule="evenodd">
        
        <path transform="translate(0vw, 0vh), scale(.65)" d="M65,58 C64.448,58 64,57.551 64,57 C64,56.449 64.448,56 65,56 C65.552,56 66,56.449 66,57 C66,57.551 65.552,58 65,58 L65,58 Z M55.5,66 C54.121,66 53,64.878 53,63.5 C53,62.122 54.121,61 55.5,61 C56.879,61 58,62.122 58,63.5 C58,64.878 56.879,66 55.5,66 L55.5,66 Z M51,48.5 C51,46.57 52.57,45 54.5,45 C56.43,45 58,46.57 58,48.5 C58,50.43 56.43,52 54.5,52 C52.57,52 51,50.43 51,48.5 L51,48.5 Z M45,40 C44.448,40 44,39.551 44,39 C44,38.449 44.448,38 45,38 C45.552,38 46,38.449 46,39 C46,39.551 45.552,40 45,40 L45,40 Z M42,54 C40.897,54 40,53.103 40,52 C40,50.897 40.897,50 42,50 C43.103,50 44,50.897 44,52 C44,53.103 43.103,54 42,54 L42,54 Z M63,33 C64.103,33 65,33.897 65,35 C65,36.103 64.103,37 63,37 C61.897,37 61,36.103 61,35 C61,33.897 61.897,33 63,33 L63,33 Z M65,54 C63.346,54 62,55.346 62,57 C62,57.446 62.104,57.865 62.279,58.246 L58.774,60.434 C58.117,59.732 57.244,59.245 56.257,59.077 L56.019,53.782 C58.314,53.121 60,51.005 60,48.5 C60,47.028 59.415,45.692 58.47,44.704 L61.955,38.844 C62.29,38.936 62.637,39 63,39 C65.206,39 67,37.206 67,35 C67,32.794 65.206,31 63,31 C60.794,31 59,32.794 59,35 C59,36.122 59.467,37.133 60.213,37.86 L56.841,43.531 C56.13,43.194 55.338,43 54.5,43 C53.348,43 52.278,43.358 51.394,43.966 L47.733,40.223 C47.901,39.849 48,39.437 48,39 C48,37.346 46.654,36 45,36 C43.346,36 42,37.346 42,39 C42,40.654 43.346,42 45,42 C45.486,42 45.939,41.873 46.347,41.666 L49.977,45.378 C49.362,46.266 49,47.341 49,48.5 C49,48.704 49.013,48.905 49.035,49.103 L45.371,49.865 C44.66,48.748 43.42,48 42,48 C39.794,48 38,49.794 38,52 C38,54.206 39.794,56 42,56 C44.206,56 46,54.206 46,52 C46,51.925 45.982,51.855 45.979,51.782 L49.619,51.024 C50.467,52.656 52.105,53.811 54.025,53.976 L54.26,59.195 C52.384,59.738 51,61.452 51,63.5 C51,65.981 53.019,68 55.5,68 C57.981,68 60,65.981 60,63.5 C60,63.033 59.908,62.59 59.775,62.166 L63.722,59.703 C64.11,59.888 64.541,60 65,60 C66.654,60 68,58.654 68,57 C68,55.346 66.654,54 65,54 L65,54 Z M31.5,15 C41.224,15 48,18.162 48,21 C48,23.838 41.224,27 31.5,27 C21.776,27 15,23.838 15,21 C15,18.162 21.776,15 31.5,15 L31.5,15 Z M48,60.02 C48,62.772 41.224,65.84 31.5,65.84 C21.776,65.84 15,62.772 15,60.02 L15,51.78 C17.957,54.302 23.937,55.954 31.167,55.954 C32.87,55.954 34.591,55.859 36.279,55.672 L36.059,53.684 C34.443,53.863 32.797,53.954 31.167,53.954 C21.496,53.954 15,50.919 15,48.086 L15,38.287 C17.957,40.809 23.937,42.46 31.167,42.46 C34.632,42.46 37.996,42.076 40.895,41.348 L40.408,39.409 C37.666,40.097 34.471,40.46 31.167,40.46 C21.496,40.46 15,37.426 15,34.592 L15,24.722 C17.997,27.305 24.104,29 31.5,29 C38.896,29 45.003,27.305 48,24.722 L48,36 L50,36 L50,21 C50,16.439 42.047,13 31.5,13 C20.953,13 13,16.439 13,21 L13,60.02 C13,64.478 20.953,67.84 31.5,67.84 C42.047,67.84 50,64.478 50,60.02 L50,55 L48,55 L48,60.02 Z" id="Amazon-Neptune_Icon_64_Squid" fill="#000000"></path>
    </g><g transform="translate(29.066489130892236vw, 64vh)" id="svgGroup" stroke-linecap="round" fill-rule="evenodd" font-size="9pt" stroke="#000" stroke-width="0.15mm" fill="#000" style="stroke:#000;stroke-width:0.15mm;fill:#000"><path d="M 3.278 0 L 3.278 4.266 L 2.713 4.266 L 0.565 0.979 L 0.565 4.266 L 0 4.266 L 0 0 L 0.565 0 L 2.719 3.302 L 2.719 0 L 3.278 0 Z M 16.005 1.096 L 16.518 1.096 L 16.535 1.494 Q 16.898 1.037 17.484 1.037 Q 18.489 1.037 18.498 2.171 L 18.498 4.266 L 17.956 4.266 L 17.956 2.168 A 1.224 1.224 0 0 0 17.941 1.981 Q 17.926 1.885 17.893 1.809 A 0.494 0.494 0 0 0 17.799 1.661 A 0.472 0.472 0 0 0 17.61 1.541 Q 17.534 1.513 17.44 1.503 A 1.106 1.106 0 0 0 17.32 1.497 Q 17.057 1.497 16.857 1.638 Q 16.658 1.778 16.547 2.007 L 16.547 4.266 L 16.005 4.266 L 16.005 1.096 Z M 14.666 4.266 L 14.654 3.952 A 1.017 1.017 0 0 1 14.104 4.282 Q 13.937 4.323 13.738 4.324 A 1.991 1.991 0 0 1 13.726 4.324 A 1.391 1.391 0 0 1 13.419 4.293 Q 13.215 4.246 13.066 4.133 A 0.811 0.811 0 0 1 12.954 4.03 Q 12.743 3.796 12.698 3.384 A 2.173 2.173 0 0 1 12.686 3.158 L 12.686 1.096 L 13.228 1.096 L 13.228 3.144 A 1.302 1.302 0 0 0 13.252 3.407 Q 13.347 3.864 13.813 3.864 Q 14.435 3.864 14.64 3.401 L 14.64 1.096 L 15.182 1.096 L 15.182 4.266 L 14.666 4.266 Z M 10.049 2.666 L 10.049 2.716 A 2.579 2.579 0 0 1 10.006 3.2 Q 9.952 3.485 9.828 3.711 A 1.44 1.44 0 0 1 9.718 3.882 A 1.047 1.047 0 0 1 8.959 4.317 A 1.342 1.342 0 0 1 8.821 4.324 Q 8.244 4.324 7.913 3.958 L 7.913 5.484 L 7.371 5.484 L 7.371 1.096 L 7.866 1.096 L 7.893 1.447 A 1.079 1.079 0 0 1 8.652 1.045 A 1.546 1.546 0 0 1 8.812 1.037 A 1.219 1.219 0 0 1 9.237 1.108 A 1.064 1.064 0 0 1 9.716 1.468 A 1.46 1.46 0 0 1 9.955 1.946 Q 10.017 2.151 10.038 2.397 A 3.143 3.143 0 0 1 10.049 2.666 Z M 4.055 2.769 L 4.055 2.669 Q 4.055 2.197 4.235 1.827 A 1.461 1.461 0 0 1 4.533 1.41 A 1.356 1.356 0 0 1 4.739 1.247 Q 5.063 1.037 5.44 1.037 A 1.503 1.503 0 0 1 5.849 1.09 A 1.093 1.093 0 0 1 6.401 1.444 A 1.33 1.33 0 0 1 6.647 1.903 Q 6.709 2.098 6.732 2.333 A 2.942 2.942 0 0 1 6.744 2.61 L 6.744 2.836 L 4.597 2.836 A 1.408 1.408 0 0 0 4.644 3.175 A 1.011 1.011 0 0 0 4.871 3.593 A 0.855 0.855 0 0 0 5.493 3.881 A 1.102 1.102 0 0 0 5.537 3.882 A 1.176 1.176 0 0 0 5.756 3.862 Q 5.895 3.836 6.008 3.774 A 0.737 0.737 0 0 0 6.023 3.765 A 1.218 1.218 0 0 0 6.363 3.466 A 1.384 1.384 0 0 0 6.372 3.454 L 6.703 3.712 A 1.284 1.284 0 0 1 5.77 4.306 A 1.833 1.833 0 0 1 5.508 4.324 A 1.596 1.596 0 0 1 5.007 4.249 A 1.316 1.316 0 0 1 4.459 3.901 A 1.424 1.424 0 0 1 4.096 3.193 A 2.069 2.069 0 0 1 4.055 2.769 Z M 19.178 2.769 L 19.178 2.669 Q 19.178 2.197 19.358 1.827 A 1.461 1.461 0 0 1 19.656 1.41 A 1.356 1.356 0 0 1 19.862 1.247 Q 20.186 1.037 20.563 1.037 A 1.503 1.503 0 0 1 20.972 1.09 A 1.093 1.093 0 0 1 21.524 1.444 A 1.33 1.33 0 0 1 21.77 1.903 Q 21.832 2.098 21.855 2.333 A 2.942 2.942 0 0 1 21.867 2.61 L 21.867 2.836 L 19.72 2.836 A 1.408 1.408 0 0 0 19.767 3.175 A 1.011 1.011 0 0 0 19.994 3.593 A 0.855 0.855 0 0 0 20.616 3.881 A 1.102 1.102 0 0 0 20.66 3.882 A 1.176 1.176 0 0 0 20.879 3.862 Q 21.018 3.836 21.131 3.774 A 0.737 0.737 0 0 0 21.146 3.765 A 1.218 1.218 0 0 0 21.486 3.466 A 1.384 1.384 0 0 0 21.495 3.454 L 21.826 3.712 A 1.284 1.284 0 0 1 20.893 4.306 A 1.833 1.833 0 0 1 20.631 4.324 A 1.596 1.596 0 0 1 20.13 4.249 A 1.316 1.316 0 0 1 19.582 3.901 A 1.424 1.424 0 0 1 19.219 3.193 A 2.069 2.069 0 0 1 19.178 2.769 Z M 10.931 0.328 L 11.473 0.328 L 11.473 1.096 L 12.064 1.096 L 12.064 1.515 L 11.473 1.515 L 11.473 3.48 A 0.732 0.732 0 0 0 11.48 3.585 Q 11.487 3.639 11.504 3.682 A 0.294 0.294 0 0 0 11.552 3.766 A 0.234 0.234 0 0 0 11.648 3.834 Q 11.688 3.849 11.738 3.856 A 0.618 0.618 0 0 0 11.821 3.861 Q 11.915 3.861 12.079 3.826 L 12.079 4.266 A 1.642 1.642 0 0 1 11.791 4.318 A 1.438 1.438 0 0 1 11.663 4.324 A 0.954 0.954 0 0 1 11.446 4.301 Q 11.295 4.266 11.187 4.176 A 0.571 0.571 0 0 1 11.115 4.104 A 0.723 0.723 0 0 1 10.98 3.851 Q 10.931 3.691 10.931 3.48 L 10.931 1.515 L 10.354 1.515 L 10.354 1.096 L 10.931 1.096 L 10.931 0.328 Z M 7.913 1.934 L 7.913 3.448 A 0.888 0.888 0 0 0 8.132 3.712 Q 8.311 3.855 8.562 3.878 A 1.076 1.076 0 0 0 8.657 3.882 Q 9.037 3.882 9.265 3.589 A 0.933 0.933 0 0 0 9.277 3.573 Q 9.441 3.352 9.488 2.978 A 2.607 2.607 0 0 0 9.507 2.654 A 2.038 2.038 0 0 0 9.481 2.32 Q 9.43 2.014 9.278 1.808 A 0.724 0.724 0 0 0 8.754 1.503 A 0.942 0.942 0 0 0 8.651 1.497 A 0.871 0.871 0 0 0 8.307 1.562 Q 8.106 1.648 7.968 1.846 A 1.082 1.082 0 0 0 7.913 1.934 Z M 4.614 2.391 L 6.202 2.391 L 6.202 2.35 A 1.489 1.489 0 0 0 6.167 2.093 Q 6.133 1.951 6.071 1.84 A 0.753 0.753 0 0 0 5.979 1.709 A 0.655 0.655 0 0 0 5.543 1.488 A 0.926 0.926 0 0 0 5.44 1.482 Q 5.112 1.482 4.89 1.721 Q 4.694 1.931 4.63 2.289 A 1.827 1.827 0 0 0 4.614 2.391 Z M 19.737 2.391 L 21.325 2.391 L 21.325 2.35 A 1.489 1.489 0 0 0 21.29 2.093 Q 21.256 1.951 21.194 1.84 A 0.753 0.753 0 0 0 21.103 1.709 A 0.655 0.655 0 0 0 20.666 1.488 A 0.926 0.926 0 0 0 20.563 1.482 Q 20.235 1.482 20.013 1.721 Q 19.817 1.931 19.753 2.289 A 1.827 1.827 0 0 0 19.737 2.391 Z" vector-effect="non-scaling-stroke"/></g>
</svg>