<?xml version="1.0" encoding="UTF-8"?>
<svg width="80px" height="80px" viewBox="0 0 80 80" version="1.1" xmlns="http://www.w3.org/2000/svg" xmlns:xlink="http://www.w3.org/1999/xlink">
    <title>Icon-Architecture/64/Arch_AWS-Verified-Access_64</title>
    
    <g id="Icon-Architecture/64/Arch_AWS-Verified-Access_64" stroke="none" stroke-width="1" fill="none" fill-rule="evenodd">
        
        <g id="Icon-Service/64/AWS-Verified-Access_64" transform="translate(12.000000, 12.000000)" fill="#000000">
            <path d="M20.0660937,49.16 L19.3840937,51.041 C12.9460937,48.709 7.78009374,43.727 5.21309374,37.374 L7.06709374,36.625 C9.42209374,42.452 14.1600937,47.021 20.0660937,49.16 L20.0660937,49.16 Z M49.2590937,36.625 L51.1130937,37.374 C48.5200937,43.791 43.2940937,48.795 36.7720937,51.101 L36.1060937,49.216 C42.0870937,47.1 46.8800937,42.511 49.2590937,36.625 L49.2590937,36.625 Z M7.06709374,20.363 L5.21309374,19.614 C7.73509374,13.375 12.7900937,8.435 19.0810937,6.06 L19.7880937,7.931 C14.0160937,10.109 9.38009374,14.64 7.06709374,20.363 L7.06709374,20.363 Z M36.1060937,7.772 L36.7720937,5.887 C43.2940937,8.193 48.5200937,13.197 51.1130937,19.614 L49.2590937,20.363 C46.8800937,14.477 42.0870937,9.888 36.1060937,7.772 L36.1060937,7.772 Z M27.9980937,2 C29.6520937,2 30.9980937,3.346 30.9980937,5 C30.9980937,6.654 29.6520937,8 27.9980937,8 C26.3430937,8 24.9980937,6.654 24.9980937,5 C24.9980937,3.346 26.3430937,2 27.9980937,2 L27.9980937,2 Z M27.9980937,10 C30.7540937,10 32.9980937,7.757 32.9980937,5 C32.9980937,2.243 30.7540937,0 27.9980937,0 C25.2410937,0 22.9980937,2.243 22.9980937,5 C22.9980937,7.757 25.2410937,10 27.9980937,10 L27.9980937,10 Z M29.9170937,53.306 C28.6450937,54.364 26.7510937,54.19 25.6920937,52.919 C24.6330937,51.647 24.8070937,49.752 26.0790937,48.694 C26.6380937,48.228 27.3180937,48.001 27.9950937,48.001 C28.8560937,48.001 29.7110937,48.369 30.3030937,49.081 C31.3620937,50.352 31.1880937,52.247 29.9170937,53.306 L29.9170937,53.306 Z M24.7990937,47.157 C22.6800937,48.92 22.3910937,52.079 24.1550937,54.198 C25.1420937,55.385 26.5670937,55.998 28.0020937,55.9970012 C29.1290937,55.9970012 30.2630937,55.619 31.1960937,54.843 C33.3150937,53.079 33.6040937,49.92 31.8400937,47.802 C30.0770937,45.682 26.9190937,45.393 24.7990937,47.157 L24.7990937,47.157 Z M50.9980937,31 C49.3430937,31 47.9980937,29.654 47.9980937,28 C47.9980937,26.346 49.3430937,25 50.9980937,25 C52.6520937,25 53.9980937,26.346 53.9980937,28 C53.9980937,29.654 52.6520937,31 50.9980937,31 L50.9980937,31 Z M50.9980937,23 C48.2410937,23 45.9980937,25.243 45.9980937,28 C45.9980937,30.757 48.2410937,33 50.9980937,33 C53.7540937,33 55.9980937,30.757 55.9980937,28 C55.9980937,25.243 53.7540937,23 50.9980937,23 L50.9980937,23 Z M6.91709374,30.306 C5.64409374,31.364 3.75109374,31.19 2.69209374,29.919 C1.63409374,28.647 1.80709374,26.752 3.07909374,25.694 C4.35009374,24.637 6.24509374,24.81 7.30309374,26.081 C8.36209374,27.352 8.18809374,29.247 6.91709374,30.306 L6.91709374,30.306 Z M8.84009374,24.802 C7.07709374,22.681 3.91809374,22.394 1.79909374,24.157 C-0.319906259,25.92 -0.608906259,29.079 1.15509374,31.198 C2.14209374,32.385 3.56709374,32.997 5.00209374,32.997 C6.12909374,32.997 7.26309374,32.619 8.19609374,31.843 C10.3150937,30.079 10.6040937,26.92 8.84009374,24.802 L8.84009374,24.802 Z M26.2830937,35.128 L21.9160937,31.02 L23.2870937,29.563 L26.3730937,32.466 L33.5140937,26.596 L34.7840937,28.14 L26.2830937,35.128 Z M21.9980937,18.674 C21.9980937,17.2 23.4930937,16 25.3310937,16 L30.6660937,16 C32.5030937,16 33.9980937,17.2 33.9980937,18.674 L33.9980937,22 L21.9980937,22 L21.9980937,18.674 Z M17.9980937,39 L37.9980937,39 L37.9980937,24 L17.9980937,24 L17.9980937,39 Z M17.5520937,22 C16.6950937,22 15.9980937,22.697 15.9980937,23.555 L15.9980937,39.445 C15.9980937,40.303 16.6950937,41 17.5520937,41 L38.4430937,41 C39.3000937,41 39.9980937,40.303 39.9980937,39.445 L39.9980937,23.555 C39.9980937,22.697 39.3000937,22 38.4430937,22 L35.9980937,22 L35.9980937,18.674 C35.9980937,16.097 33.6060937,14 30.6660937,14 L25.3310937,14 C22.3900937,14 19.9980937,16.097 19.9980937,18.674 L19.9980937,22 L17.5520937,22 Z" id="Fill-3"></path>
        </g>
    </g><g transform="translate(9.156993200218345, 64), scale(0.75)" id="svgGroup" stroke-linecap="round" fill-rule="evenodd" font-size="9pt" stroke="#000" stroke-width="0.25mm" fill="#000" style="stroke:#000;stroke-width:0.25mm;fill:#000"><path d="M 0.918 0.444 L 2.738 5.722 L 4.566 0.444 L 5.489 0.444 L 3.116 6.842 L 2.369 6.842 L 0 0.444 L 0.918 0.444 Z M 57.001 3.485 L 56.184 3.485 Q 56.184 3.151 55.901 2.909 Q 55.617 2.667 55.187 2.667 Q 54.743 2.667 54.492 2.861 A 0.653 0.653 0 0 0 54.317 3.059 Q 54.244 3.191 54.242 3.356 A 0.771 0.771 0 0 0 54.242 3.366 A 0.588 0.588 0 0 0 54.272 3.559 A 0.48 0.48 0 0 0 54.475 3.81 A 1.093 1.093 0 0 0 54.625 3.889 Q 54.789 3.96 55.045 4.029 A 6.581 6.581 0 0 0 55.316 4.096 A 6.318 6.318 0 0 1 55.724 4.2 Q 56.061 4.3 56.303 4.421 A 1.901 1.901 0 0 1 56.559 4.573 Q 56.696 4.671 56.793 4.785 A 1.06 1.06 0 0 1 56.863 4.876 A 1.024 1.024 0 0 1 57.025 5.283 A 1.388 1.388 0 0 1 57.045 5.524 Q 57.045 6.161 56.536 6.546 Q 56.053 6.91 55.299 6.929 A 3.337 3.337 0 0 1 55.213 6.93 A 2.746 2.746 0 0 1 54.679 6.88 A 2.124 2.124 0 0 1 54.202 6.728 A 1.771 1.771 0 0 1 53.768 6.45 A 1.54 1.54 0 0 1 53.514 6.163 Q 53.266 5.801 53.266 5.379 L 54.079 5.379 A 0.932 0.932 0 0 0 54.153 5.704 A 0.827 0.827 0 0 0 54.406 6.027 A 1.072 1.072 0 0 0 54.809 6.22 Q 54.963 6.259 55.145 6.265 A 2.013 2.013 0 0 0 55.213 6.267 A 1.863 1.863 0 0 0 55.509 6.245 Q 55.67 6.219 55.802 6.162 A 0.941 0.941 0 0 0 55.953 6.08 A 0.689 0.689 0 0 0 56.118 5.929 A 0.554 0.554 0 0 0 56.232 5.581 A 0.698 0.698 0 0 0 56.196 5.35 A 0.581 0.581 0 0 0 55.984 5.069 A 1.05 1.05 0 0 0 55.815 4.971 Q 55.626 4.88 55.331 4.805 A 5.392 5.392 0 0 0 55.118 4.755 A 6.342 6.342 0 0 1 54.757 4.667 Q 54.388 4.565 54.138 4.438 Q 53.84 4.286 53.669 4.086 A 1.017 1.017 0 0 1 53.602 3.999 Q 53.429 3.744 53.429 3.393 A 1.206 1.206 0 0 1 53.828 2.488 A 1.694 1.694 0 0 1 53.923 2.404 A 1.752 1.752 0 0 1 54.706 2.044 A 2.471 2.471 0 0 1 55.187 2 A 2.559 2.559 0 0 1 55.75 2.058 A 1.757 1.757 0 0 1 56.498 2.417 Q 57.001 2.834 57.001 3.485 Z M 61.642 3.485 L 60.825 3.485 Q 60.825 3.151 60.541 2.909 Q 60.258 2.667 59.827 2.667 Q 59.383 2.667 59.133 2.861 A 0.653 0.653 0 0 0 58.958 3.059 Q 58.885 3.191 58.882 3.356 A 0.771 0.771 0 0 0 58.882 3.366 A 0.588 0.588 0 0 0 58.912 3.559 A 0.48 0.48 0 0 0 59.115 3.81 A 1.093 1.093 0 0 0 59.265 3.889 Q 59.43 3.96 59.685 4.029 A 6.581 6.581 0 0 0 59.957 4.096 A 6.318 6.318 0 0 1 60.364 4.2 Q 60.701 4.3 60.943 4.421 A 1.901 1.901 0 0 1 61.199 4.573 Q 61.336 4.671 61.434 4.785 A 1.06 1.06 0 0 1 61.504 4.876 A 1.024 1.024 0 0 1 61.666 5.283 A 1.388 1.388 0 0 1 61.686 5.524 Q 61.686 6.161 61.176 6.546 Q 60.694 6.91 59.94 6.929 A 3.337 3.337 0 0 1 59.854 6.93 A 2.746 2.746 0 0 1 59.319 6.88 A 2.124 2.124 0 0 1 58.843 6.728 A 1.771 1.771 0 0 1 58.409 6.45 A 1.54 1.54 0 0 1 58.155 6.163 Q 57.907 5.801 57.907 5.379 L 58.72 5.379 A 0.932 0.932 0 0 0 58.793 5.704 A 0.827 0.827 0 0 0 59.047 6.027 A 1.072 1.072 0 0 0 59.449 6.22 Q 59.604 6.259 59.785 6.265 A 2.013 2.013 0 0 0 59.854 6.267 A 1.863 1.863 0 0 0 60.149 6.245 Q 60.311 6.219 60.442 6.162 A 0.941 0.941 0 0 0 60.594 6.08 A 0.689 0.689 0 0 0 60.759 5.929 A 0.554 0.554 0 0 0 60.873 5.581 A 0.698 0.698 0 0 0 60.837 5.35 A 0.581 0.581 0 0 0 60.625 5.069 A 1.05 1.05 0 0 0 60.456 4.971 Q 60.267 4.88 59.972 4.805 A 5.392 5.392 0 0 0 59.759 4.755 A 6.342 6.342 0 0 1 59.398 4.667 Q 59.028 4.565 58.779 4.438 Q 58.48 4.286 58.31 4.086 A 1.017 1.017 0 0 1 58.243 3.999 Q 58.069 3.744 58.069 3.393 A 1.206 1.206 0 0 1 58.468 2.488 A 1.694 1.694 0 0 1 58.564 2.404 A 1.752 1.752 0 0 1 59.347 2.044 A 2.471 2.471 0 0 1 59.827 2 A 2.559 2.559 0 0 1 60.391 2.058 A 1.757 1.757 0 0 1 61.139 2.417 Q 61.642 2.834 61.642 3.485 Z M 42.302 5.344 L 43.071 5.344 A 1.432 1.432 0 0 1 42.872 5.994 A 1.772 1.772 0 0 1 42.79 6.122 A 1.828 1.828 0 0 1 42.18 6.666 A 2.169 2.169 0 0 1 42.097 6.71 A 1.997 1.997 0 0 1 41.181 6.93 A 2.346 2.346 0 0 1 40.484 6.832 A 1.839 1.839 0 0 1 39.636 6.282 A 2.171 2.171 0 0 1 39.173 5.402 Q 39.063 5.001 39.063 4.509 L 39.063 4.373 A 3.24 3.24 0 0 1 39.127 3.717 A 2.57 2.57 0 0 1 39.318 3.138 A 2.008 2.008 0 0 1 39.757 2.523 A 1.892 1.892 0 0 1 40.05 2.298 A 1.943 1.943 0 0 1 40.806 2.026 A 2.529 2.529 0 0 1 41.177 2 A 2.196 2.196 0 0 1 41.825 2.091 A 1.786 1.786 0 0 1 42.506 2.479 A 1.693 1.693 0 0 1 43.064 3.628 A 2.239 2.239 0 0 1 43.071 3.722 L 42.302 3.722 Q 42.267 3.261 41.952 2.964 A 1.078 1.078 0 0 0 41.223 2.668 A 1.402 1.402 0 0 0 41.177 2.667 A 1.374 1.374 0 0 0 40.755 2.729 A 1.081 1.081 0 0 0 40.217 3.114 A 1.469 1.469 0 0 0 39.99 3.561 Q 39.924 3.766 39.896 4.015 A 3.514 3.514 0 0 0 39.876 4.403 L 39.876 4.557 Q 39.876 5.379 40.214 5.823 A 1.1 1.1 0 0 0 41.001 6.257 A 1.611 1.611 0 0 0 41.181 6.267 A 1.171 1.171 0 0 0 41.941 6.003 A 1.007 1.007 0 0 0 42.185 5.722 A 0.914 0.914 0 0 0 42.302 5.344 Z M 47.013 5.344 L 47.782 5.344 A 1.432 1.432 0 0 1 47.583 5.994 A 1.772 1.772 0 0 1 47.5 6.122 A 1.828 1.828 0 0 1 46.891 6.666 A 2.169 2.169 0 0 1 46.808 6.71 A 1.997 1.997 0 0 1 45.892 6.93 A 2.346 2.346 0 0 1 45.195 6.832 A 1.839 1.839 0 0 1 44.347 6.282 A 2.171 2.171 0 0 1 43.884 5.402 Q 43.774 5.001 43.774 4.509 L 43.774 4.373 A 3.24 3.24 0 0 1 43.838 3.717 A 2.57 2.57 0 0 1 44.029 3.138 A 2.008 2.008 0 0 1 44.468 2.523 A 1.892 1.892 0 0 1 44.76 2.298 A 1.943 1.943 0 0 1 45.517 2.026 A 2.529 2.529 0 0 1 45.888 2 A 2.196 2.196 0 0 1 46.536 2.091 A 1.786 1.786 0 0 1 47.217 2.479 A 1.693 1.693 0 0 1 47.775 3.628 A 2.239 2.239 0 0 1 47.782 3.722 L 47.013 3.722 Q 46.978 3.261 46.663 2.964 A 1.078 1.078 0 0 0 45.934 2.668 A 1.402 1.402 0 0 0 45.888 2.667 A 1.374 1.374 0 0 0 45.466 2.729 A 1.081 1.081 0 0 0 44.927 3.114 A 1.469 1.469 0 0 0 44.701 3.561 Q 44.635 3.766 44.607 4.015 A 3.514 3.514 0 0 0 44.587 4.403 L 44.587 4.557 Q 44.587 5.379 44.925 5.823 A 1.1 1.1 0 0 0 45.712 6.257 A 1.611 1.611 0 0 0 45.892 6.267 A 1.171 1.171 0 0 0 46.652 6.003 A 1.007 1.007 0 0 0 46.896 5.722 A 0.914 0.914 0 0 0 47.013 5.344 Z M 37.674 6.842 L 37.063 5.172 L 34.383 5.172 L 33.781 6.842 L 32.911 6.842 L 35.354 0.444 L 36.092 0.444 L 38.54 6.842 L 37.674 6.842 Z M 25.901 4.487 L 25.901 4.425 A 3.762 3.762 0 0 1 25.968 3.694 Q 26.056 3.252 26.258 2.904 A 2.148 2.148 0 0 1 26.42 2.665 Q 26.938 2 27.778 2 A 1.964 1.964 0 0 1 28.376 2.086 A 1.559 1.559 0 0 1 29.101 2.571 L 29.101 0.092 L 29.914 0.092 L 29.914 6.842 L 29.167 6.842 L 29.127 6.333 Q 28.639 6.93 27.769 6.93 A 1.6 1.6 0 0 1 26.548 6.403 A 2.078 2.078 0 0 1 26.422 6.253 A 2.405 2.405 0 0 1 25.998 5.347 Q 25.913 5.004 25.903 4.603 A 4.425 4.425 0 0 1 25.901 4.487 Z M 5.818 4.597 L 5.818 4.447 A 3.17 3.17 0 0 1 5.895 3.738 A 2.581 2.581 0 0 1 6.089 3.184 A 2.191 2.191 0 0 1 6.536 2.558 A 2.033 2.033 0 0 1 6.844 2.314 Q 7.33 2 7.897 2 A 2.254 2.254 0 0 1 8.51 2.078 A 1.639 1.639 0 0 1 9.338 2.61 Q 9.853 3.221 9.853 4.359 L 9.853 4.698 L 6.631 4.698 A 2.111 2.111 0 0 0 6.702 5.206 A 1.516 1.516 0 0 0 7.042 5.834 A 1.282 1.282 0 0 0 7.976 6.265 A 1.652 1.652 0 0 0 8.042 6.267 A 1.763 1.763 0 0 0 8.37 6.238 Q 8.594 6.195 8.771 6.091 A 1.827 1.827 0 0 0 9.28 5.643 A 2.068 2.068 0 0 0 9.294 5.625 L 9.791 6.012 A 1.926 1.926 0 0 1 8.391 6.903 A 2.749 2.749 0 0 1 7.998 6.93 A 2.394 2.394 0 0 1 7.247 6.817 A 1.974 1.974 0 0 1 6.425 6.295 Q 5.818 5.66 5.818 4.597 Z M 21.125 4.597 L 21.125 4.447 A 3.17 3.17 0 0 1 21.201 3.738 A 2.581 2.581 0 0 1 21.395 3.184 A 2.191 2.191 0 0 1 21.842 2.558 A 2.033 2.033 0 0 1 22.151 2.314 Q 22.636 2 23.203 2 A 2.254 2.254 0 0 1 23.816 2.078 A 1.639 1.639 0 0 1 24.645 2.61 Q 25.159 3.221 25.159 4.359 L 25.159 4.698 L 21.938 4.698 A 2.111 2.111 0 0 0 22.009 5.206 A 1.516 1.516 0 0 0 22.348 5.834 A 1.282 1.282 0 0 0 23.282 6.265 A 1.652 1.652 0 0 0 23.348 6.267 A 1.763 1.763 0 0 0 23.676 6.238 Q 23.9 6.195 24.078 6.091 A 1.827 1.827 0 0 0 24.587 5.643 A 2.068 2.068 0 0 0 24.601 5.625 L 25.097 6.012 A 1.926 1.926 0 0 1 23.697 6.903 A 2.749 2.749 0 0 1 23.304 6.93 A 2.394 2.394 0 0 1 22.553 6.817 A 1.974 1.974 0 0 1 21.731 6.295 Q 21.125 5.66 21.125 4.597 Z M 48.489 4.597 L 48.489 4.447 A 3.17 3.17 0 0 1 48.566 3.738 A 2.581 2.581 0 0 1 48.76 3.184 A 2.191 2.191 0 0 1 49.207 2.558 A 2.033 2.033 0 0 1 49.515 2.314 Q 50.001 2 50.568 2 A 2.254 2.254 0 0 1 51.181 2.078 A 1.639 1.639 0 0 1 52.009 2.61 Q 52.523 3.221 52.523 4.359 L 52.523 4.698 L 49.302 4.698 A 2.111 2.111 0 0 0 49.373 5.206 A 1.516 1.516 0 0 0 49.713 5.834 A 1.282 1.282 0 0 0 50.647 6.265 A 1.652 1.652 0 0 0 50.713 6.267 A 1.763 1.763 0 0 0 51.041 6.238 Q 51.265 6.195 51.442 6.091 A 1.827 1.827 0 0 0 51.951 5.643 A 2.068 2.068 0 0 0 51.965 5.625 L 52.462 6.012 A 1.926 1.926 0 0 1 51.062 6.903 A 2.749 2.749 0 0 1 50.669 6.93 A 2.394 2.394 0 0 1 49.918 6.817 A 1.974 1.974 0 0 1 49.096 6.295 Q 48.489 5.66 48.489 4.597 Z M 17.235 6.842 L 16.422 6.842 L 16.422 2.716 L 15.671 2.716 L 15.671 2.087 L 16.422 2.087 L 16.422 1.6 Q 16.422 1.012 16.664 0.629 A 1.273 1.273 0 0 1 16.831 0.417 Q 17.24 0 17.987 0 A 2.134 2.134 0 0 1 18.545 0.075 L 18.501 0.734 Q 18.294 0.694 18.062 0.694 A 1.086 1.086 0 0 0 17.814 0.721 Q 17.593 0.773 17.451 0.925 A 0.747 0.747 0 0 0 17.284 1.221 Q 17.249 1.336 17.239 1.475 A 1.57 1.57 0 0 0 17.235 1.586 L 17.235 2.087 L 18.25 2.087 L 18.25 2.716 L 17.235 2.716 L 17.235 6.842 Z M 13.091 2.061 L 13.091 2.817 A 2.251 2.251 0 0 0 12.849 2.79 A 2.782 2.782 0 0 0 12.691 2.786 Q 11.914 2.786 11.622 3.43 A 1.445 1.445 0 0 0 11.606 3.467 L 11.606 6.842 L 10.793 6.842 L 10.793 2.087 L 11.584 2.087 L 11.597 2.637 Q 11.978 2.031 12.66 2.001 A 1.636 1.636 0 0 1 12.731 2 Q 12.968 2 13.091 2.061 Z M 14.722 2.087 L 14.722 6.842 L 13.909 6.842 L 13.909 2.087 L 14.722 2.087 Z M 20.03 2.087 L 20.03 6.842 L 19.217 6.842 L 19.217 2.087 L 20.03 2.087 Z M 29.101 5.546 L 29.101 3.362 A 1.375 1.375 0 0 0 28.789 2.966 Q 28.465 2.689 27.98 2.689 A 1.238 1.238 0 0 0 27.553 2.76 A 1.068 1.068 0 0 0 27.048 3.151 A 1.51 1.51 0 0 0 26.839 3.577 Q 26.773 3.781 26.742 4.031 A 3.955 3.955 0 0 0 26.714 4.518 A 3.162 3.162 0 0 0 26.75 5.01 Q 26.791 5.271 26.88 5.481 A 1.474 1.474 0 0 0 27.048 5.783 A 1.06 1.06 0 0 0 27.811 6.231 A 1.391 1.391 0 0 0 27.971 6.24 Q 28.745 6.24 29.101 5.546 Z M 35.723 1.485 L 34.638 4.478 L 36.813 4.478 L 35.723 1.485 Z M 6.658 4.03 L 9.04 4.03 L 9.04 3.968 Q 9.014 3.509 8.843 3.204 A 1.13 1.13 0 0 0 8.706 3.008 A 0.983 0.983 0 0 0 8.051 2.676 A 1.39 1.39 0 0 0 7.897 2.667 A 1.106 1.106 0 0 0 7.375 2.79 A 1.14 1.14 0 0 0 7.071 3.026 A 1.417 1.417 0 0 0 6.794 3.472 Q 6.721 3.656 6.681 3.878 A 2.741 2.741 0 0 0 6.658 4.03 Z M 21.964 4.03 L 24.346 4.03 L 24.346 3.968 Q 24.32 3.509 24.149 3.204 A 1.13 1.13 0 0 0 24.012 3.008 A 0.983 0.983 0 0 0 23.357 2.676 A 1.39 1.39 0 0 0 23.203 2.667 A 1.106 1.106 0 0 0 22.681 2.79 A 1.14 1.14 0 0 0 22.377 3.026 A 1.417 1.417 0 0 0 22.1 3.472 Q 22.027 3.656 21.987 3.878 A 2.741 2.741 0 0 0 21.964 4.03 Z M 49.329 4.03 L 51.71 4.03 L 51.71 3.968 Q 51.684 3.509 51.514 3.204 A 1.13 1.13 0 0 0 51.376 3.008 A 0.983 0.983 0 0 0 50.722 2.676 A 1.39 1.39 0 0 0 50.568 2.667 A 1.106 1.106 0 0 0 50.045 2.79 A 1.14 1.14 0 0 0 49.742 3.026 A 1.417 1.417 0 0 0 49.465 3.472 Q 49.391 3.656 49.352 3.878 A 2.741 2.741 0 0 0 49.329 4.03 Z M 13.843 0.826 Q 13.843 0.628 13.964 0.492 Q 14.076 0.366 14.287 0.357 A 0.783 0.783 0 0 1 14.322 0.356 Q 14.559 0.356 14.682 0.492 A 0.474 0.474 0 0 1 14.804 0.796 A 0.614 0.614 0 0 1 14.805 0.826 A 0.523 0.523 0 0 1 14.78 0.992 A 0.442 0.442 0 0 1 14.682 1.156 Q 14.57 1.276 14.362 1.287 A 0.803 0.803 0 0 1 14.322 1.288 Q 14.149 1.288 14.039 1.218 A 0.362 0.362 0 0 1 13.964 1.156 A 0.456 0.456 0 0 1 13.845 0.88 A 0.605 0.605 0 0 1 13.843 0.826 Z M 19.151 0.826 Q 19.151 0.628 19.272 0.492 Q 19.384 0.366 19.596 0.357 A 0.783 0.783 0 0 1 19.63 0.356 Q 19.868 0.356 19.991 0.492 A 0.474 0.474 0 0 1 20.113 0.796 A 0.614 0.614 0 0 1 20.114 0.826 A 0.523 0.523 0 0 1 20.089 0.992 A 0.442 0.442 0 0 1 19.991 1.156 Q 19.878 1.276 19.67 1.287 A 0.803 0.803 0 0 1 19.63 1.288 Q 19.458 1.288 19.347 1.218 A 0.362 0.362 0 0 1 19.272 1.156 A 0.456 0.456 0 0 1 19.154 0.88 A 0.605 0.605 0 0 1 19.151 0.826 Z" vector-effect="non-scaling-stroke"/></g>
</svg>