<?xml version="1.0" encoding="UTF-8"?>
<svg width="80px" height="80px" viewBox="0 0 80 80" version="1.1" xmlns="http://www.w3.org/2000/svg" xmlns:xlink="http://www.w3.org/1999/xlink">
    <!-- Generator: Sketch 64 (93537) - https://sketch.com -->
    <title>Icon-Architecture/64/Arch_AWS-Application-Discovery-Service_64</title>
    <desc>Created with Sketch.</desc>
    
    <g id="Icon-Architecture/64/Arch_AWS-Application-Discovery-Service_64" stroke="none" stroke-width="1" fill="none" fill-rule="evenodd">
        
        <path transform="translate(0vw, 0vh), scale(.65)" d="M65.261848,59.9942838 L51.9028393,47.0769011 C50.6049977,48.8134903 49.0554413,50.3530126 47.3085405,51.6434505 L60.3433405,64.8979475 C60.9786687,65.5281613 61.7358269,65.5851807 62.2563731,65.5181579 C63.0588399,65.4161233 63.8925194,64.9709723 64.6043689,64.2637323 C65.3202458,63.552491 65.7743393,62.7172076 65.8820733,61.9109341 C65.9525534,61.3867562 65.9022105,60.6294993 65.261848,59.9942838 L65.261848,59.9942838 Z M54.1692795,33.9884604 C54.1692795,23.0107358 45.1810469,14.0797056 34.1317734,14.0797056 C23.0824999,14.0797056 14.0942673,23.0107358 14.0942673,33.9884604 C14.0942673,44.966185 23.0824999,53.8972151 34.1317734,53.8972151 C45.1810469,53.8972151 54.1692795,44.966185 54.1692795,33.9884604 L54.1692795,33.9884604 Z M67.9572102,62.1850271 C67.7880579,63.4424537 67.1235308,64.7028813 66.084452,65.7342313 C65.0463801,66.7655812 63.780758,67.4218038 62.5201702,67.5808578 C62.3167846,67.6068666 62.1154128,67.619871 61.9170615,67.619871 C60.7531322,67.619871 59.6838477,67.183723 58.8552025,66.3594434 L45.5415025,52.8218503 C42.2077915,54.8235294 38.3031913,55.9769207 34.1317734,55.9769207 C21.9286392,55.9769207 12,46.1135742 12,33.9884604 C12,21.8633465 21.9286392,12 34.1317734,12 C46.3349076,12 56.2635468,21.8633465 56.2635468,33.9884604 C56.2635468,38.1318662 55.1036449,42.0091817 53.0899264,45.3213054 L66.7328694,58.5137815 C67.7135503,59.4871117 68.144486,60.7875529 67.9572102,62.1850271 L67.9572102,62.1850271 Z M48.1875287,33.9884604 C48.1875287,26.1578035 42.0134677,20.022722 34.1317734,20.022722 C26.2500791,20.022722 20.0760181,26.1578035 20.0760181,33.9884604 C20.0760181,41.8191172 26.2500791,47.9531984 34.1317734,47.9531984 C42.0134677,47.9531984 48.1875287,41.8191172 48.1875287,33.9884604 L48.1875287,33.9884604 Z M50.2817959,33.9884604 C50.2817959,42.9855129 43.1874656,50.032904 34.1317734,50.032904 C25.0760812,50.032904 17.9817509,42.9855129 17.9817509,33.9884604 C17.9817509,24.9914078 25.0760812,17.9430164 34.1317734,17.9430164 C43.1874656,17.9430164 50.2817959,24.9914078 50.2817959,33.9884604 L50.2817959,33.9884604 Z M41.1797882,24.9854058 L26.0768993,24.9854058 L26.0768993,26.9860846 L40.1729289,26.9860846 L40.1729289,42.991515 L42.1866475,42.991515 L42.1866475,25.9857452 C42.1866475,25.4335578 41.7365814,24.9854058 41.1797882,24.9854058 L41.1797882,24.9854058 Z M26.0768993,42.991515 L38.1592104,42.991515 L38.1592104,40.9908362 L26.0768993,40.9908362 L26.0768993,42.991515 Z M23.0563215,37.989818 L38.1592104,37.989818 L38.1592104,35.9891392 L23.0563215,35.9891392 L23.0563215,37.989818 Z M38.1592104,65.9993212 L20.0357438,65.9993212 L20.0357438,53.9952484 L18.0220252,53.9952484 L18.0220252,66.9996606 C18.0220252,67.5518479 18.4720913,68 19.0288845,68 L39.1660697,68 C39.7228629,68 40.1729289,67.5518479 40.1729289,66.9996606 L40.1729289,58.9969454 L38.1592104,58.9969454 L38.1592104,65.9993212 Z M23.0563215,31.9877816 L37.9356877,31.9877816 L37.9356877,29.9871028 L23.0563215,29.9871028 L23.0563215,31.9877816 Z" id="AWS-Application-Discovery-Service_Icon_64_Squid" fill="#000000"></path>
    </g><g transform="translate(12vw, 80vh)" id="svgGroup" stroke-linecap="round" fill-rule="evenodd" font-size="9pt" stroke="#000" stroke-width="0.25mm" fill="#000" style="stroke:#000;stroke-width:0.25mm;fill:#000"><path d="M 59.511 3.393 L 58.693 3.393 Q 58.693 3.059 58.41 2.817 Q 58.126 2.575 57.696 2.575 Q 57.252 2.575 57.001 2.769 A 0.653 0.653 0 0 0 56.826 2.967 Q 56.753 3.098 56.751 3.263 A 0.771 0.771 0 0 0 56.751 3.274 A 0.588 0.588 0 0 0 56.781 3.467 A 0.48 0.48 0 0 0 56.984 3.718 A 1.093 1.093 0 0 0 57.134 3.796 Q 57.298 3.868 57.554 3.937 A 6.581 6.581 0 0 0 57.825 4.003 A 6.318 6.318 0 0 1 58.233 4.108 Q 58.57 4.208 58.812 4.329 A 1.901 1.901 0 0 1 59.068 4.481 Q 59.205 4.579 59.302 4.692 A 1.06 1.06 0 0 1 59.372 4.783 A 1.024 1.024 0 0 1 59.535 5.191 A 1.388 1.388 0 0 1 59.555 5.432 Q 59.555 6.069 59.045 6.453 Q 58.563 6.817 57.809 6.837 A 3.337 3.337 0 0 1 57.722 6.838 A 2.746 2.746 0 0 1 57.188 6.788 A 2.124 2.124 0 0 1 56.711 6.636 A 1.771 1.771 0 0 1 56.278 6.358 A 1.54 1.54 0 0 1 56.024 6.071 Q 55.775 5.708 55.775 5.287 L 56.588 5.287 A 0.932 0.932 0 0 0 56.662 5.612 A 0.827 0.827 0 0 0 56.916 5.935 A 1.072 1.072 0 0 0 57.318 6.128 Q 57.472 6.167 57.654 6.173 A 2.013 2.013 0 0 0 57.722 6.174 A 1.863 1.863 0 0 0 58.018 6.152 Q 58.179 6.126 58.311 6.07 A 0.941 0.941 0 0 0 58.463 5.988 A 0.689 0.689 0 0 0 58.627 5.837 A 0.554 0.554 0 0 0 58.742 5.489 A 0.698 0.698 0 0 0 58.705 5.258 A 0.581 0.581 0 0 0 58.493 4.977 A 1.05 1.05 0 0 0 58.325 4.878 Q 58.136 4.788 57.841 4.712 A 5.392 5.392 0 0 0 57.628 4.663 A 6.342 6.342 0 0 1 57.267 4.575 Q 56.897 4.473 56.648 4.346 Q 56.349 4.194 56.178 3.994 A 1.017 1.017 0 0 1 56.112 3.907 Q 55.938 3.652 55.938 3.3 A 1.206 1.206 0 0 1 56.337 2.396 A 1.694 1.694 0 0 1 56.432 2.312 A 1.752 1.752 0 0 1 57.215 1.952 A 2.471 2.471 0 0 1 57.696 1.907 A 2.559 2.559 0 0 1 58.259 1.966 A 1.757 1.757 0 0 1 59.008 2.325 Q 59.511 2.742 59.511 3.393 Z M 82.956 1.995 L 84.142 5.559 L 85.25 1.995 L 86.12 1.995 L 84.208 7.484 Q 83.764 8.67 82.797 8.67 L 82.644 8.657 L 82.34 8.6 L 82.34 7.941 L 82.56 7.958 Q 82.84 7.958 83.036 7.882 A 0.75 0.75 0 0 0 83.204 7.792 A 0.749 0.749 0 0 0 83.364 7.629 Q 83.482 7.47 83.572 7.215 A 2.575 2.575 0 0 0 83.584 7.181 L 83.764 6.697 L 82.068 1.995 L 82.956 1.995 Z M 40.693 1.995 L 41.462 1.995 L 41.489 2.593 Q 42.025 1.918 42.885 1.907 A 2.234 2.234 0 0 1 42.913 1.907 A 1.905 1.905 0 0 1 43.546 2.004 Q 44.388 2.3 44.431 3.506 A 3.668 3.668 0 0 1 44.433 3.608 L 44.433 6.75 L 43.62 6.75 L 43.62 3.604 A 1.837 1.837 0 0 0 43.598 3.324 Q 43.548 3.017 43.385 2.843 Q 43.199 2.645 42.846 2.606 A 1.66 1.66 0 0 0 42.667 2.597 A 1.253 1.253 0 0 0 42.252 2.664 A 1.123 1.123 0 0 0 41.972 2.808 A 1.432 1.432 0 0 0 41.506 3.362 L 41.506 6.75 L 40.693 6.75 L 40.693 1.995 Z M 23.858 5.251 L 24.627 5.251 A 1.432 1.432 0 0 1 24.428 5.901 A 1.772 1.772 0 0 1 24.346 6.029 A 1.828 1.828 0 0 1 23.736 6.574 A 2.169 2.169 0 0 1 23.654 6.618 A 1.997 1.997 0 0 1 22.737 6.838 A 2.346 2.346 0 0 1 22.04 6.739 A 1.839 1.839 0 0 1 21.193 6.19 A 2.171 2.171 0 0 1 20.729 5.31 Q 20.619 4.909 20.619 4.417 L 20.619 4.28 A 3.24 3.24 0 0 1 20.683 3.624 A 2.57 2.57 0 0 1 20.874 3.045 A 2.008 2.008 0 0 1 21.314 2.431 A 1.892 1.892 0 0 1 21.606 2.206 A 1.943 1.943 0 0 1 22.362 1.934 A 2.529 2.529 0 0 1 22.733 1.907 A 2.196 2.196 0 0 1 23.381 1.999 A 1.786 1.786 0 0 1 24.062 2.386 A 1.693 1.693 0 0 1 24.621 3.535 A 2.239 2.239 0 0 1 24.627 3.63 L 23.858 3.63 Q 23.823 3.168 23.509 2.872 A 1.078 1.078 0 0 0 22.779 2.576 A 1.402 1.402 0 0 0 22.733 2.575 A 1.374 1.374 0 0 0 22.311 2.637 A 1.081 1.081 0 0 0 21.773 3.021 A 1.469 1.469 0 0 0 21.546 3.468 Q 21.48 3.674 21.452 3.923 A 3.514 3.514 0 0 0 21.432 4.311 L 21.432 4.465 Q 21.432 5.287 21.771 5.73 A 1.1 1.1 0 0 0 22.557 6.165 A 1.611 1.611 0 0 0 22.737 6.174 A 1.171 1.171 0 0 0 23.498 5.911 A 1.007 1.007 0 0 0 23.742 5.629 A 0.914 0.914 0 0 0 23.858 5.251 Z M 63.642 5.251 L 64.411 5.251 A 1.432 1.432 0 0 1 64.212 5.901 A 1.772 1.772 0 0 1 64.129 6.029 A 1.828 1.828 0 0 1 63.52 6.574 A 2.169 2.169 0 0 1 63.437 6.618 A 1.997 1.997 0 0 1 62.521 6.838 A 2.346 2.346 0 0 1 61.824 6.739 A 1.839 1.839 0 0 1 60.976 6.19 A 2.171 2.171 0 0 1 60.513 5.31 Q 60.403 4.909 60.403 4.417 L 60.403 4.28 A 3.24 3.24 0 0 1 60.467 3.624 A 2.57 2.57 0 0 1 60.658 3.045 A 2.008 2.008 0 0 1 61.097 2.431 A 1.892 1.892 0 0 1 61.389 2.206 A 1.943 1.943 0 0 1 62.146 1.934 A 2.529 2.529 0 0 1 62.517 1.907 A 2.196 2.196 0 0 1 63.165 1.999 A 1.786 1.786 0 0 1 63.846 2.386 A 1.693 1.693 0 0 1 64.404 3.535 A 2.239 2.239 0 0 1 64.411 3.63 L 63.642 3.63 Q 63.606 3.168 63.292 2.872 A 1.078 1.078 0 0 0 62.563 2.576 A 1.402 1.402 0 0 0 62.517 2.575 A 1.374 1.374 0 0 0 62.095 2.637 A 1.081 1.081 0 0 0 61.556 3.021 A 1.469 1.469 0 0 0 61.33 3.468 Q 61.264 3.674 61.236 3.923 A 3.514 3.514 0 0 0 61.216 4.311 L 61.216 4.465 Q 61.216 5.287 61.554 5.73 A 1.1 1.1 0 0 0 62.341 6.165 A 1.611 1.611 0 0 0 62.521 6.174 A 1.171 1.171 0 0 0 63.281 5.911 A 1.007 1.007 0 0 0 63.525 5.629 A 0.914 0.914 0 0 0 63.642 5.251 Z M 4.764 6.75 L 4.153 5.08 L 1.472 5.08 L 0.87 6.75 L 0 6.75 L 2.443 0.352 L 3.182 0.352 L 5.629 6.75 L 4.764 6.75 Z M 29.329 6.75 L 28.477 6.75 A 0.632 0.632 0 0 1 28.441 6.66 Q 28.41 6.562 28.385 6.41 A 3.997 3.997 0 0 1 28.362 6.249 Q 27.795 6.838 27.009 6.838 A 2.033 2.033 0 0 1 26.479 6.772 A 1.529 1.529 0 0 1 25.855 6.44 Q 25.405 6.042 25.405 5.432 Q 25.405 4.689 25.969 4.278 Q 26.534 3.867 27.558 3.867 L 28.349 3.867 L 28.349 3.494 A 1.152 1.152 0 0 0 28.313 3.199 A 0.828 0.828 0 0 0 28.094 2.815 Q 27.878 2.6 27.488 2.568 A 1.748 1.748 0 0 0 27.343 2.562 Q 26.908 2.562 26.613 2.782 Q 26.319 3.001 26.319 3.313 L 25.501 3.313 A 1.041 1.041 0 0 1 25.626 2.825 A 1.409 1.409 0 0 1 25.754 2.626 Q 26.007 2.294 26.44 2.101 A 2.249 2.249 0 0 1 27.215 1.913 A 2.669 2.669 0 0 1 27.391 1.907 A 2.65 2.65 0 0 1 27.909 1.955 Q 28.216 2.016 28.455 2.156 A 1.439 1.439 0 0 1 28.679 2.318 A 1.396 1.396 0 0 1 29.132 3.144 A 1.998 1.998 0 0 1 29.162 3.45 L 29.162 5.638 Q 29.162 6.073 29.236 6.39 A 1.707 1.707 0 0 0 29.329 6.68 L 29.329 6.75 Z M 10.38 4.351 L 10.38 4.425 Q 10.38 5.511 9.883 6.174 A 1.57 1.57 0 0 1 8.745 6.828 A 2.013 2.013 0 0 1 8.539 6.838 A 2.196 2.196 0 0 1 7.953 6.764 A 1.598 1.598 0 0 1 7.176 6.289 L 7.176 8.578 L 6.363 8.578 L 6.363 1.995 L 7.106 1.995 L 7.146 2.522 A 1.619 1.619 0 0 1 8.285 1.919 A 2.319 2.319 0 0 1 8.525 1.907 A 1.829 1.829 0 0 1 9.163 2.014 A 1.597 1.597 0 0 1 9.881 2.553 Q 10.38 3.199 10.38 4.351 Z M 15.429 4.351 L 15.429 4.425 Q 15.429 5.511 14.933 6.174 A 1.57 1.57 0 0 1 13.794 6.828 A 2.013 2.013 0 0 1 13.588 6.838 A 2.196 2.196 0 0 1 13.002 6.764 A 1.598 1.598 0 0 1 12.226 6.289 L 12.226 8.578 L 11.413 8.578 L 11.413 1.995 L 12.155 1.995 L 12.195 2.522 A 1.619 1.619 0 0 1 13.334 1.919 A 2.319 2.319 0 0 1 13.575 1.907 A 1.829 1.829 0 0 1 14.212 2.014 A 1.597 1.597 0 0 1 14.93 2.553 Q 15.429 3.199 15.429 4.351 Z M 74.487 4.504 L 74.487 4.355 A 3.17 3.17 0 0 1 74.564 3.646 A 2.581 2.581 0 0 1 74.758 3.092 A 2.191 2.191 0 0 1 75.205 2.466 A 2.033 2.033 0 0 1 75.513 2.221 Q 75.999 1.907 76.566 1.907 A 2.254 2.254 0 0 1 77.179 1.986 A 1.639 1.639 0 0 1 78.007 2.518 Q 78.521 3.129 78.521 4.267 L 78.521 4.605 L 75.3 4.605 A 2.111 2.111 0 0 0 75.371 5.114 A 1.516 1.516 0 0 0 75.711 5.741 A 1.282 1.282 0 0 0 76.645 6.173 A 1.652 1.652 0 0 0 76.711 6.174 A 1.763 1.763 0 0 0 77.039 6.145 Q 77.263 6.103 77.44 5.999 A 1.827 1.827 0 0 0 77.949 5.551 A 2.068 2.068 0 0 0 77.963 5.533 L 78.46 5.919 A 1.926 1.926 0 0 1 77.06 6.811 A 2.749 2.749 0 0 1 76.667 6.838 A 2.394 2.394 0 0 1 75.916 6.725 A 1.974 1.974 0 0 1 75.094 6.203 Q 74.487 5.568 74.487 4.504 Z M 70.752 1.995 L 71.96 5.647 L 73.138 1.995 L 73.969 1.995 L 72.264 6.75 L 71.644 6.75 L 69.921 1.995 L 70.752 1.995 Z M 49.786 6.75 L 48.015 6.75 L 48.015 0.352 L 49.821 0.352 Q 50.656 0.352 51.297 0.721 Q 51.939 1.09 52.288 1.771 A 3.19 3.19 0 0 1 52.605 2.8 A 4.073 4.073 0 0 1 52.642 3.335 L 52.642 3.744 Q 52.642 4.649 52.293 5.331 A 2.457 2.457 0 0 1 51.295 6.376 Q 50.647 6.741 49.786 6.75 Z M 30.727 0.844 L 31.54 0.844 L 31.54 1.995 L 32.427 1.995 L 32.427 2.624 L 31.54 2.624 L 31.54 5.572 Q 31.54 5.858 31.658 6.001 Q 31.777 6.144 32.063 6.144 A 1.046 1.046 0 0 0 32.16 6.138 Q 32.263 6.129 32.402 6.101 A 4.024 4.024 0 0 0 32.449 6.091 L 32.449 6.75 A 2.463 2.463 0 0 1 32.016 6.829 A 2.157 2.157 0 0 1 31.825 6.838 Q 31.378 6.838 31.111 6.616 A 0.856 0.856 0 0 1 31.003 6.508 Q 30.776 6.238 30.735 5.78 A 2.351 2.351 0 0 1 30.727 5.572 L 30.727 2.624 L 29.861 2.624 L 29.861 1.995 L 30.727 1.995 L 30.727 0.844 Z M 17.345 0 L 17.345 6.75 L 16.532 6.75 L 16.532 0 L 17.345 0 Z M 35.345 4.386 L 35.345 4.329 A 3.057 3.057 0 0 1 35.432 3.587 A 2.573 2.573 0 0 1 35.62 3.072 A 2.16 2.16 0 0 1 36.035 2.486 A 1.957 1.957 0 0 1 36.385 2.21 A 2.036 2.036 0 0 1 37.329 1.913 A 2.491 2.491 0 0 1 37.503 1.907 A 2.277 2.277 0 0 1 38.256 2.027 A 1.937 1.937 0 0 1 39.074 2.58 A 2.29 2.29 0 0 1 39.593 3.608 A 3.373 3.373 0 0 1 39.674 4.368 L 39.674 4.425 A 3.114 3.114 0 0 1 39.594 5.142 A 2.577 2.577 0 0 1 39.408 5.671 A 2.056 2.056 0 0 1 38.881 6.361 A 2.001 2.001 0 0 1 38.648 6.53 A 2.045 2.045 0 0 1 37.728 6.829 A 2.529 2.529 0 0 1 37.512 6.838 A 2.262 2.262 0 0 1 36.761 6.718 A 1.938 1.938 0 0 1 35.945 6.166 A 2.297 2.297 0 0 1 35.419 5.111 A 3.357 3.357 0 0 1 35.345 4.386 Z M 65.109 4.386 L 65.109 4.329 A 3.057 3.057 0 0 1 65.196 3.587 A 2.573 2.573 0 0 1 65.384 3.072 A 2.16 2.16 0 0 1 65.799 2.486 A 1.957 1.957 0 0 1 66.149 2.21 A 2.036 2.036 0 0 1 67.093 1.913 A 2.491 2.491 0 0 1 67.267 1.907 A 2.277 2.277 0 0 1 68.02 2.027 A 1.937 1.937 0 0 1 68.838 2.58 A 2.29 2.29 0 0 1 69.357 3.608 A 3.373 3.373 0 0 1 69.438 4.368 L 69.438 4.425 A 3.114 3.114 0 0 1 69.358 5.142 A 2.577 2.577 0 0 1 69.172 5.671 A 2.056 2.056 0 0 1 68.645 6.361 A 2.001 2.001 0 0 1 68.412 6.53 A 2.045 2.045 0 0 1 67.492 6.829 A 2.529 2.529 0 0 1 67.276 6.838 A 2.262 2.262 0 0 1 66.525 6.718 A 1.938 1.938 0 0 1 65.709 6.166 A 2.297 2.297 0 0 1 65.184 5.111 A 3.357 3.357 0 0 1 65.109 4.386 Z M 81.76 1.969 L 81.76 2.725 A 2.251 2.251 0 0 0 81.518 2.698 A 2.782 2.782 0 0 0 81.36 2.694 Q 80.583 2.694 80.291 3.338 A 1.445 1.445 0 0 0 80.275 3.375 L 80.275 6.75 L 79.462 6.75 L 79.462 1.995 L 80.253 1.995 L 80.266 2.544 Q 80.646 1.938 81.329 1.909 A 1.636 1.636 0 0 1 81.4 1.907 Q 81.637 1.907 81.76 1.969 Z M 49.843 1.046 L 48.858 1.046 L 48.858 6.06 L 49.746 6.06 A 2.519 2.519 0 0 0 50.379 5.985 A 1.747 1.747 0 0 0 51.264 5.454 Q 51.724 4.94 51.794 4.059 A 4.165 4.165 0 0 0 51.807 3.727 L 51.807 3.353 Q 51.807 2.562 51.537 2.027 A 1.864 1.864 0 0 0 51.295 1.659 A 1.687 1.687 0 0 0 50.299 1.09 A 2.499 2.499 0 0 0 49.843 1.046 Z M 19.529 1.995 L 19.529 6.75 L 18.716 6.75 L 18.716 1.995 L 19.529 1.995 Z M 34.26 1.995 L 34.26 6.75 L 33.447 6.75 L 33.447 1.995 L 34.26 1.995 Z M 54.672 1.995 L 54.672 6.75 L 53.859 6.75 L 53.859 1.995 L 54.672 1.995 Z M 36.163 4.425 A 2.772 2.772 0 0 0 36.21 4.954 Q 36.27 5.264 36.408 5.51 A 1.545 1.545 0 0 0 36.53 5.695 Q 36.896 6.174 37.512 6.174 A 1.269 1.269 0 0 0 38.001 6.083 Q 38.28 5.967 38.483 5.706 A 1.471 1.471 0 0 0 38.496 5.689 A 1.648 1.648 0 0 0 38.751 5.171 Q 38.82 4.945 38.845 4.672 A 3.655 3.655 0 0 0 38.861 4.329 A 2.687 2.687 0 0 0 38.81 3.789 Q 38.742 3.459 38.585 3.2 A 1.586 1.586 0 0 0 38.49 3.061 A 1.231 1.231 0 0 0 38.074 2.705 Q 37.821 2.575 37.503 2.575 Q 36.913 2.575 36.547 3.035 A 1.515 1.515 0 0 0 36.532 3.054 A 1.589 1.589 0 0 0 36.28 3.552 Q 36.21 3.772 36.182 4.039 A 3.676 3.676 0 0 0 36.163 4.425 Z M 65.927 4.425 A 2.772 2.772 0 0 0 65.974 4.954 Q 66.035 5.264 66.172 5.51 A 1.545 1.545 0 0 0 66.294 5.695 Q 66.661 6.174 67.276 6.174 A 1.269 1.269 0 0 0 67.765 6.083 Q 68.045 5.967 68.247 5.706 A 1.471 1.471 0 0 0 68.26 5.689 A 1.648 1.648 0 0 0 68.515 5.171 Q 68.584 4.945 68.61 4.672 A 3.655 3.655 0 0 0 68.625 4.329 A 2.687 2.687 0 0 0 68.574 3.789 Q 68.506 3.459 68.349 3.2 A 1.586 1.586 0 0 0 68.254 3.061 A 1.231 1.231 0 0 0 67.839 2.705 Q 67.586 2.575 67.267 2.575 Q 66.677 2.575 66.311 3.035 A 1.515 1.515 0 0 0 66.296 3.054 A 1.589 1.589 0 0 0 66.044 3.552 Q 65.974 3.772 65.946 4.039 A 3.676 3.676 0 0 0 65.927 4.425 Z M 7.176 3.252 L 7.176 5.524 Q 7.541 6.174 8.292 6.174 A 1.184 1.184 0 0 0 8.758 6.086 Q 9.015 5.977 9.204 5.735 A 1.403 1.403 0 0 0 9.222 5.711 A 1.501 1.501 0 0 0 9.439 5.28 Q 9.507 5.073 9.539 4.818 A 3.91 3.91 0 0 0 9.567 4.333 Q 9.567 3.746 9.384 3.339 A 1.503 1.503 0 0 0 9.224 3.063 A 1.086 1.086 0 0 0 8.438 2.605 A 1.414 1.414 0 0 0 8.284 2.597 Q 7.623 2.597 7.258 3.121 A 1.623 1.623 0 0 0 7.176 3.252 Z M 12.226 3.252 L 12.226 5.524 Q 12.59 6.174 13.342 6.174 A 1.184 1.184 0 0 0 13.807 6.086 Q 14.065 5.977 14.253 5.735 A 1.403 1.403 0 0 0 14.271 5.711 A 1.501 1.501 0 0 0 14.488 5.28 Q 14.556 5.073 14.588 4.818 A 3.91 3.91 0 0 0 14.616 4.333 Q 14.616 3.746 14.433 3.339 A 1.503 1.503 0 0 0 14.273 3.063 A 1.086 1.086 0 0 0 13.487 2.605 A 1.414 1.414 0 0 0 13.333 2.597 Q 12.673 2.597 12.308 3.121 A 1.623 1.623 0 0 0 12.226 3.252 Z M 2.813 1.393 L 1.727 4.386 L 3.902 4.386 L 2.813 1.393 Z M 28.349 5.418 L 28.349 4.443 L 27.712 4.443 Q 26.218 4.443 26.218 5.317 Q 26.218 5.7 26.473 5.915 A 0.893 0.893 0 0 0 26.886 6.108 A 1.259 1.259 0 0 0 27.127 6.13 A 1.429 1.429 0 0 0 27.853 5.933 A 1.335 1.335 0 0 0 28.148 5.705 A 1.108 1.108 0 0 0 28.349 5.418 Z M 75.327 3.938 L 77.708 3.938 L 77.708 3.876 Q 77.682 3.417 77.512 3.111 A 1.13 1.13 0 0 0 77.375 2.916 A 0.983 0.983 0 0 0 76.72 2.584 A 1.39 1.39 0 0 0 76.566 2.575 A 1.106 1.106 0 0 0 76.043 2.698 A 1.14 1.14 0 0 0 75.74 2.933 A 1.417 1.417 0 0 0 75.463 3.379 Q 75.39 3.563 75.35 3.785 A 2.741 2.741 0 0 0 75.327 3.938 Z M 18.65 0.734 Q 18.65 0.536 18.771 0.4 Q 18.883 0.274 19.095 0.264 A 0.783 0.783 0 0 1 19.129 0.264 Q 19.367 0.264 19.49 0.4 A 0.474 0.474 0 0 1 19.612 0.703 A 0.614 0.614 0 0 1 19.613 0.734 A 0.523 0.523 0 0 1 19.588 0.9 A 0.442 0.442 0 0 1 19.49 1.063 Q 19.377 1.184 19.169 1.194 A 0.803 0.803 0 0 1 19.129 1.195 Q 18.957 1.195 18.846 1.126 A 0.362 0.362 0 0 1 18.771 1.063 A 0.456 0.456 0 0 1 18.653 0.788 A 0.605 0.605 0 0 1 18.65 0.734 Z M 33.381 0.734 Q 33.381 0.536 33.502 0.4 Q 33.614 0.274 33.825 0.264 A 0.783 0.783 0 0 1 33.86 0.264 Q 34.097 0.264 34.22 0.4 A 0.474 0.474 0 0 1 34.343 0.703 A 0.614 0.614 0 0 1 34.343 0.734 A 0.523 0.523 0 0 1 34.318 0.9 A 0.442 0.442 0 0 1 34.22 1.063 Q 34.108 1.184 33.9 1.194 A 0.803 0.803 0 0 1 33.86 1.195 Q 33.688 1.195 33.577 1.126 A 0.362 0.362 0 0 1 33.502 1.063 A 0.456 0.456 0 0 1 33.383 0.788 A 0.605 0.605 0 0 1 33.381 0.734 Z M 53.793 0.734 Q 53.793 0.536 53.914 0.4 Q 54.026 0.274 54.238 0.264 A 0.783 0.783 0 0 1 54.272 0.264 Q 54.51 0.264 54.633 0.4 A 0.474 0.474 0 0 1 54.755 0.703 A 0.614 0.614 0 0 1 54.756 0.734 A 0.523 0.523 0 0 1 54.731 0.9 A 0.442 0.442 0 0 1 54.633 1.063 Q 54.52 1.184 54.312 1.194 A 0.803 0.803 0 0 1 54.272 1.195 Q 54.1 1.195 53.989 1.126 A 0.362 0.362 0 0 1 53.914 1.063 A 0.456 0.456 0 0 1 53.796 0.788 A 0.605 0.605 0 0 1 53.793 0.734 Z" vector-effect="non-scaling-stroke"/></g><g transform="translate(33vw, 90vh)" id="svgGroup" stroke-linecap="round" fill-rule="evenodd" font-size="9pt" stroke="#000" stroke-width="0.25mm" fill="#000" style="stroke:#000;stroke-width:0.25mm;fill:#000"><path d="M 4.636 1.938 L 3.788 1.938 A 1.466 1.466 0 0 0 3.738 1.546 A 1.066 1.066 0 0 0 3.419 1.026 A 1.211 1.211 0 0 0 2.95 0.77 Q 2.698 0.694 2.378 0.694 A 2.286 2.286 0 0 0 1.998 0.724 Q 1.796 0.758 1.633 0.831 A 1.101 1.101 0 0 0 1.404 0.969 A 0.892 0.892 0 0 0 1.059 1.624 A 1.267 1.267 0 0 0 1.055 1.732 A 0.806 0.806 0 0 0 1.323 2.337 A 1.134 1.134 0 0 0 1.387 2.393 A 1.562 1.562 0 0 0 1.625 2.549 Q 1.955 2.73 2.516 2.887 A 8.228 8.228 0 0 1 2.981 3.032 Q 3.216 3.113 3.41 3.2 A 3.297 3.297 0 0 1 3.764 3.382 A 2.342 2.342 0 0 1 4.103 3.626 Q 4.293 3.792 4.415 3.985 A 1.45 1.45 0 0 1 4.432 4.012 A 1.498 1.498 0 0 1 4.628 4.568 A 1.948 1.948 0 0 1 4.65 4.86 A 1.606 1.606 0 0 1 4.527 5.497 Q 4.382 5.838 4.064 6.09 A 1.886 1.886 0 0 1 4.043 6.106 Q 3.437 6.574 2.422 6.574 A 3.023 3.023 0 0 1 1.281 6.36 A 2.917 2.917 0 0 1 1.191 6.322 A 2.383 2.383 0 0 1 0.713 6.044 A 1.874 1.874 0 0 1 0.31 5.629 A 1.689 1.689 0 0 1 0 4.632 L 0.848 4.632 A 1.261 1.261 0 0 0 0.918 5.059 A 1.074 1.074 0 0 0 1.277 5.548 Q 1.661 5.85 2.278 5.881 A 2.87 2.87 0 0 0 2.422 5.884 A 2.628 2.628 0 0 0 2.809 5.858 Q 3.005 5.828 3.164 5.767 A 1.129 1.129 0 0 0 3.445 5.612 Q 3.801 5.339 3.801 4.869 A 1.074 1.074 0 0 0 3.759 4.559 A 0.816 0.816 0 0 0 3.472 4.142 Q 3.142 3.885 2.277 3.634 Q 1.191 3.322 0.697 2.868 Q 0.202 2.413 0.202 1.745 Q 0.202 0.989 0.807 0.494 A 2.121 2.121 0 0 1 1.697 0.071 A 3.087 3.087 0 0 1 2.378 0 A 2.913 2.913 0 0 1 3.038 0.072 A 2.372 2.372 0 0 1 3.553 0.255 A 2.051 2.051 0 0 1 4.084 0.626 A 1.834 1.834 0 0 1 4.353 0.958 A 1.798 1.798 0 0 1 4.636 1.938 Z M 23.067 4.988 L 23.836 4.988 A 1.432 1.432 0 0 1 23.637 5.638 A 1.772 1.772 0 0 1 23.555 5.766 A 1.828 1.828 0 0 1 22.946 6.31 A 2.169 2.169 0 0 1 22.863 6.355 A 1.997 1.997 0 0 1 21.946 6.574 A 2.346 2.346 0 0 1 21.249 6.476 A 1.839 1.839 0 0 1 20.402 5.926 A 2.171 2.171 0 0 1 19.938 5.046 Q 19.828 4.645 19.828 4.153 L 19.828 4.017 A 3.24 3.24 0 0 1 19.892 3.361 A 2.57 2.57 0 0 1 20.083 2.782 A 2.008 2.008 0 0 1 20.523 2.168 A 1.892 1.892 0 0 1 20.815 1.942 A 1.943 1.943 0 0 1 21.571 1.67 A 2.529 2.529 0 0 1 21.942 1.644 A 2.196 2.196 0 0 1 22.59 1.735 A 1.786 1.786 0 0 1 23.271 2.123 A 1.693 1.693 0 0 1 23.83 3.272 A 2.239 2.239 0 0 1 23.836 3.366 L 23.067 3.366 Q 23.032 2.905 22.718 2.608 A 1.078 1.078 0 0 0 21.989 2.312 A 1.402 1.402 0 0 0 21.942 2.312 A 1.374 1.374 0 0 0 21.521 2.373 A 1.081 1.081 0 0 0 20.982 2.758 A 1.469 1.469 0 0 0 20.755 3.205 Q 20.689 3.41 20.662 3.66 A 3.514 3.514 0 0 0 20.641 4.047 L 20.641 4.201 Q 20.641 5.023 20.98 5.467 A 1.1 1.1 0 0 0 21.766 5.901 A 1.611 1.611 0 0 0 21.946 5.911 A 1.171 1.171 0 0 0 22.707 5.647 A 1.007 1.007 0 0 0 22.951 5.366 A 0.914 0.914 0 0 0 23.067 4.988 Z M 5.397 4.241 L 5.397 4.091 A 3.17 3.17 0 0 1 5.473 3.382 A 2.581 2.581 0 0 1 5.667 2.828 A 2.191 2.191 0 0 1 6.114 2.202 A 2.033 2.033 0 0 1 6.423 1.958 Q 6.908 1.644 7.475 1.644 A 2.254 2.254 0 0 1 8.088 1.723 A 1.639 1.639 0 0 1 8.917 2.254 Q 9.431 2.865 9.431 4.003 L 9.431 4.342 L 6.21 4.342 A 2.111 2.111 0 0 0 6.281 4.85 A 1.516 1.516 0 0 0 6.621 5.478 A 1.282 1.282 0 0 0 7.555 5.909 A 1.652 1.652 0 0 0 7.62 5.911 A 1.763 1.763 0 0 0 7.948 5.882 Q 8.172 5.839 8.35 5.735 A 1.827 1.827 0 0 0 8.859 5.287 A 2.068 2.068 0 0 0 8.873 5.269 L 9.369 5.656 A 1.926 1.926 0 0 1 7.97 6.547 A 2.749 2.749 0 0 1 7.576 6.574 A 2.394 2.394 0 0 1 6.825 6.461 A 1.974 1.974 0 0 1 6.003 5.939 Q 5.397 5.304 5.397 4.241 Z M 24.544 4.241 L 24.544 4.091 A 3.17 3.17 0 0 1 24.62 3.382 A 2.581 2.581 0 0 1 24.814 2.828 A 2.191 2.191 0 0 1 25.261 2.202 A 2.033 2.033 0 0 1 25.57 1.958 Q 26.055 1.644 26.622 1.644 A 2.254 2.254 0 0 1 27.235 1.723 A 1.639 1.639 0 0 1 28.064 2.254 Q 28.578 2.865 28.578 4.003 L 28.578 4.342 L 25.357 4.342 A 2.111 2.111 0 0 0 25.428 4.85 A 1.516 1.516 0 0 0 25.767 5.478 A 1.282 1.282 0 0 0 26.702 5.909 A 1.652 1.652 0 0 0 26.767 5.911 A 1.763 1.763 0 0 0 27.095 5.882 Q 27.319 5.839 27.497 5.735 A 1.827 1.827 0 0 0 28.006 5.287 A 2.068 2.068 0 0 0 28.02 5.269 L 28.516 5.656 A 1.926 1.926 0 0 1 27.117 6.547 A 2.749 2.749 0 0 1 26.723 6.574 A 2.394 2.394 0 0 1 25.972 6.461 A 1.974 1.974 0 0 1 25.15 5.939 Q 24.544 5.304 24.544 4.241 Z M 13.856 1.732 L 15.065 5.383 L 16.242 1.732 L 17.073 1.732 L 15.368 6.486 L 14.748 6.486 L 13.026 1.732 L 13.856 1.732 Z M 12.67 1.705 L 12.67 2.461 A 2.251 2.251 0 0 0 12.427 2.435 A 2.782 2.782 0 0 0 12.27 2.43 Q 11.492 2.43 11.2 3.074 A 1.445 1.445 0 0 0 11.184 3.111 L 11.184 6.486 L 10.371 6.486 L 10.371 1.732 L 11.162 1.732 L 11.175 2.281 Q 11.556 1.675 12.238 1.645 A 1.636 1.636 0 0 1 12.309 1.644 Q 12.547 1.644 12.67 1.705 Z M 18.738 1.732 L 18.738 6.486 L 17.925 6.486 L 17.925 1.732 L 18.738 1.732 Z M 6.236 3.674 L 8.618 3.674 L 8.618 3.612 Q 8.592 3.153 8.421 2.848 A 1.13 1.13 0 0 0 8.284 2.652 A 0.983 0.983 0 0 0 7.629 2.32 A 1.39 1.39 0 0 0 7.475 2.312 A 1.106 1.106 0 0 0 6.953 2.435 A 1.14 1.14 0 0 0 6.649 2.67 A 1.417 1.417 0 0 0 6.372 3.116 Q 6.299 3.3 6.259 3.522 A 2.741 2.741 0 0 0 6.236 3.674 Z M 25.383 3.674 L 27.765 3.674 L 27.765 3.612 Q 27.739 3.153 27.568 2.848 A 1.13 1.13 0 0 0 27.431 2.652 A 0.983 0.983 0 0 0 26.776 2.32 A 1.39 1.39 0 0 0 26.622 2.312 A 1.106 1.106 0 0 0 26.1 2.435 A 1.14 1.14 0 0 0 25.796 2.67 A 1.417 1.417 0 0 0 25.519 3.116 Q 25.446 3.3 25.406 3.522 A 2.741 2.741 0 0 0 25.383 3.674 Z M 17.86 0.47 Q 17.86 0.273 17.98 0.136 Q 18.092 0.01 18.304 0.001 A 0.783 0.783 0 0 1 18.339 0 Q 18.576 0 18.699 0.136 A 0.474 0.474 0 0 1 18.821 0.44 A 0.614 0.614 0 0 1 18.822 0.47 A 0.523 0.523 0 0 1 18.797 0.636 A 0.442 0.442 0 0 1 18.699 0.8 Q 18.586 0.92 18.378 0.931 A 0.803 0.803 0 0 1 18.339 0.932 Q 18.166 0.932 18.055 0.862 A 0.362 0.362 0 0 1 17.98 0.8 A 0.456 0.456 0 0 1 17.862 0.525 A 0.605 0.605 0 0 1 17.86 0.47 Z" vector-effect="non-scaling-stroke"/></g>
</svg>