<?xml version="1.0" encoding="UTF-8"?>
<svg width="80px" height="80px" viewBox="0 0 80 80" version="1.1" xmlns="http://www.w3.org/2000/svg" xmlns:xlink="http://www.w3.org/1999/xlink">
    <!-- Generator: Sketch 64 (93537) - https://sketch.com -->
    <title>Icon-Architecture/64/Arch_AWS-Transfer-Family_64</title>
    <desc>Created with Sketch.</desc>
    
    <g id="Icon-Architecture/64/Arch_AWS-Transfer-Family_64" stroke="none" stroke-width="1" fill="none" fill-rule="evenodd">
        
        <path transform="translate(0vw, 0vh), scale(.65)" d="M62.515,26.38975 C62.355,26.75175 61.995,26.98575 61.6,26.98575 L57,26.98575 L57,34.98575 L60,34.98575 C60.553,34.98575 61,35.43275 61,35.98575 L61,64.98575 C61,65.53775 60.553,65.98575 60,65.98575 L20,65.98575 C18.346,65.98575 17,64.63975 17,62.98575 L17,27.98575 C17,27.43275 17.448,26.98575 18,26.98575 L30.556,26.98575 C30.839,26.98575 31.11,27.10575 31.299,27.31575 L33.703,29.98575 L39,29.98575 L39,31.98575 L33.258,31.98575 C32.975,31.98575 32.704,31.86575 32.515,31.65475 L30.111,28.98575 L19,28.98575 L19,62.98575 C19,63.53675 19.449,63.98575 20,63.98575 C20.552,63.98575 21,63.53675 21,62.98575 L21,35.98575 C21,35.43275 21.448,34.98575 22,34.98575 L39,34.98575 L39,36.98575 L23,36.98575 L23,62.98575 C23,63.33775 22.928,63.67075 22.816,63.98575 L59,63.98575 L59,36.98575 L52,36.98575 L52,34.98575 L55,34.98575 L55,25.98575 C55,25.43275 55.448,24.98575 56,24.98575 L59.338,24.98575 L52.5,17.47175 L45.662,24.98575 L49,24.98575 C49.553,24.98575 50,25.43275 50,25.98575 L50,31.98575 L50,35.98575 L50,39.98575 L54,39.98575 C54.39,39.98575 54.744,40.21175 54.908,40.56475 C55.072,40.91775 55.015,41.33375 54.764,41.63075 L46.311,51.63075 C46.121,51.85475 45.843,51.98475 45.55,51.98575 L45.547,51.98575 C45.255,51.98575 44.977,51.85775 44.787,51.63575 L36.241,41.63575 C35.987,41.33875 35.929,40.92175 36.092,40.56675 C36.255,40.21275 36.61,39.98575 37,39.98575 L41,39.98575 L41,31.98575 L43,31.98575 L43,40.98575 C43,41.53775 42.553,41.98575 42,41.98575 L39.17,41.98575 L45.543,49.44175 L51.846,41.98575 L49,41.98575 C48.448,41.98575 48,41.53775 48,40.98575 L48,35.98575 L48,31.98575 L48,26.98575 L43.401,26.98575 C43.005,26.98575 42.646,26.75175 42.486,26.38975 C42.327,26.02775 42.395,25.60475 42.661,25.31275 L51.761,15.31275 C52.14,14.89575 52.861,14.89575 53.24,15.31275 L62.339,25.31275 C62.606,25.60475 62.674,26.02775 62.515,26.38975" id="AWS-Transfer-Family_Icon-64_Squid" fill="#000000"></path>
    </g><g transform="translate(12vw, 80vh)" id="svgGroup" stroke-linecap="round" fill-rule="evenodd" font-size="9pt" stroke="#000" stroke-width="0.25mm" fill="#000" style="stroke:#000;stroke-width:0.25mm;fill:#000"><path d="M 45.918 2.087 L 46.688 2.087 L 46.709 2.615 Q 47.232 2 48.12 2 A 2.009 2.009 0 0 1 48.631 2.06 A 1.244 1.244 0 0 1 49.478 2.764 A 1.801 1.801 0 0 1 50.095 2.21 A 1.65 1.65 0 0 1 50.625 2.029 A 2.209 2.209 0 0 1 50.994 2 A 2.119 2.119 0 0 1 51.638 2.089 Q 52.565 2.385 52.585 3.656 L 52.585 6.842 L 51.772 6.842 L 51.772 3.705 A 1.781 1.781 0 0 0 51.751 3.425 Q 51.728 3.277 51.677 3.159 A 0.758 0.758 0 0 0 51.539 2.942 A 0.68 0.68 0 0 0 51.286 2.774 Q 51.075 2.69 50.758 2.689 A 1.245 1.245 0 0 0 50.392 2.741 A 1.008 1.008 0 0 0 50.005 2.96 A 1.042 1.042 0 0 0 49.691 3.496 A 1.41 1.41 0 0 0 49.658 3.687 L 49.658 6.842 L 48.841 6.842 L 48.841 3.727 A 1.532 1.532 0 0 0 48.792 3.322 Q 48.666 2.86 48.208 2.735 A 1.457 1.457 0 0 0 47.826 2.689 Q 47.052 2.689 46.751 3.327 A 1.459 1.459 0 0 0 46.731 3.371 L 46.731 6.842 L 45.918 6.842 L 45.918 2.087 Z M 39.858 3.327 L 39.858 4.017 L 37.173 4.017 L 37.173 6.842 L 36.33 6.842 L 36.33 0.444 L 40.293 0.444 L 40.293 1.138 L 37.173 1.138 L 37.173 3.327 L 39.858 3.327 Z M 22.039 3.485 L 21.221 3.485 Q 21.221 3.151 20.938 2.909 Q 20.654 2.667 20.224 2.667 Q 19.78 2.667 19.529 2.861 A 0.653 0.653 0 0 0 19.354 3.059 Q 19.281 3.191 19.279 3.356 A 0.771 0.771 0 0 0 19.279 3.366 A 0.588 0.588 0 0 0 19.309 3.559 A 0.48 0.48 0 0 0 19.512 3.81 A 1.093 1.093 0 0 0 19.662 3.889 Q 19.826 3.96 20.082 4.029 A 6.581 6.581 0 0 0 20.353 4.096 A 6.318 6.318 0 0 1 20.761 4.2 Q 21.098 4.3 21.34 4.421 A 1.901 1.901 0 0 1 21.596 4.573 Q 21.733 4.671 21.83 4.785 A 1.06 1.06 0 0 1 21.9 4.876 A 1.024 1.024 0 0 1 22.062 5.283 A 1.388 1.388 0 0 1 22.083 5.524 Q 22.083 6.161 21.573 6.546 Q 21.09 6.91 20.336 6.929 A 3.337 3.337 0 0 1 20.25 6.93 A 2.746 2.746 0 0 1 19.716 6.88 A 2.124 2.124 0 0 1 19.239 6.728 A 1.771 1.771 0 0 1 18.805 6.45 A 1.54 1.54 0 0 1 18.552 6.163 Q 18.303 5.801 18.303 5.379 L 19.116 5.379 A 0.932 0.932 0 0 0 19.19 5.704 A 0.827 0.827 0 0 0 19.444 6.027 A 1.072 1.072 0 0 0 19.846 6.22 Q 20 6.259 20.182 6.265 A 2.013 2.013 0 0 0 20.25 6.267 A 1.863 1.863 0 0 0 20.546 6.245 Q 20.707 6.219 20.839 6.162 A 0.941 0.941 0 0 0 20.99 6.08 A 0.689 0.689 0 0 0 21.155 5.929 A 0.554 0.554 0 0 0 21.27 5.581 A 0.698 0.698 0 0 0 21.233 5.35 A 0.581 0.581 0 0 0 21.021 5.069 A 1.05 1.05 0 0 0 20.852 4.971 Q 20.664 4.88 20.369 4.805 A 5.392 5.392 0 0 0 20.156 4.755 A 6.342 6.342 0 0 1 19.795 4.667 Q 19.425 4.565 19.176 4.438 Q 18.877 4.286 18.706 4.086 A 1.017 1.017 0 0 1 18.639 3.999 Q 18.466 3.744 18.466 3.393 A 1.206 1.206 0 0 1 18.865 2.488 A 1.694 1.694 0 0 1 18.96 2.404 A 1.752 1.752 0 0 1 19.743 2.044 A 2.471 2.471 0 0 1 20.224 2 A 2.559 2.559 0 0 1 20.787 2.058 A 1.757 1.757 0 0 1 21.535 2.417 Q 22.039 2.834 22.039 3.485 Z M 58.548 2.087 L 59.735 5.651 L 60.842 2.087 L 61.712 2.087 L 59.801 7.576 Q 59.357 8.763 58.39 8.763 L 58.236 8.75 L 57.933 8.692 L 57.933 8.033 L 58.153 8.051 Q 58.433 8.051 58.629 7.974 A 0.75 0.75 0 0 0 58.797 7.884 A 0.749 0.749 0 0 0 58.957 7.722 Q 59.075 7.563 59.165 7.307 A 2.575 2.575 0 0 0 59.177 7.273 L 59.357 6.79 L 57.661 2.087 L 58.548 2.087 Z M 13.535 2.087 L 14.304 2.087 L 14.331 2.685 Q 14.867 2.01 15.727 2 A 2.234 2.234 0 0 1 15.754 2 A 1.905 1.905 0 0 1 16.388 2.096 Q 17.23 2.392 17.273 3.598 A 3.668 3.668 0 0 1 17.275 3.7 L 17.275 6.842 L 16.462 6.842 L 16.462 3.696 A 1.837 1.837 0 0 0 16.44 3.416 Q 16.389 3.109 16.227 2.936 Q 16.041 2.737 15.687 2.699 A 1.66 1.66 0 0 0 15.508 2.689 A 1.253 1.253 0 0 0 15.094 2.756 A 1.123 1.123 0 0 0 14.814 2.9 A 1.432 1.432 0 0 0 14.348 3.454 L 14.348 6.842 L 13.535 6.842 L 13.535 2.087 Z M 4.948 0.444 L 4.948 1.138 L 2.892 1.138 L 2.892 6.842 L 2.052 6.842 L 2.052 1.138 L 0 1.138 L 0 0.444 L 4.948 0.444 Z M 12.428 6.842 L 11.575 6.842 A 0.632 0.632 0 0 1 11.54 6.752 Q 11.508 6.654 11.484 6.502 A 3.997 3.997 0 0 1 11.461 6.341 Q 10.894 6.93 10.107 6.93 A 2.033 2.033 0 0 1 9.578 6.865 A 1.529 1.529 0 0 1 8.954 6.532 Q 8.503 6.135 8.503 5.524 Q 8.503 4.781 9.068 4.37 Q 9.633 3.959 10.657 3.959 L 11.448 3.959 L 11.448 3.586 A 1.152 1.152 0 0 0 11.412 3.291 A 0.828 0.828 0 0 0 11.193 2.907 Q 10.977 2.693 10.586 2.66 A 1.748 1.748 0 0 0 10.441 2.654 Q 10.006 2.654 9.712 2.874 Q 9.417 3.094 9.417 3.406 L 8.6 3.406 A 1.041 1.041 0 0 1 8.725 2.917 A 1.409 1.409 0 0 1 8.853 2.718 Q 9.105 2.386 9.538 2.193 A 2.249 2.249 0 0 1 10.314 2.005 A 2.669 2.669 0 0 1 10.49 2 A 2.65 2.65 0 0 1 11.007 2.047 Q 11.314 2.108 11.553 2.248 A 1.439 1.439 0 0 1 11.777 2.41 A 1.396 1.396 0 0 1 12.231 3.236 A 1.998 1.998 0 0 1 12.261 3.542 L 12.261 5.73 Q 12.261 6.165 12.334 6.482 A 1.707 1.707 0 0 0 12.428 6.772 L 12.428 6.842 Z M 44.815 6.842 L 43.963 6.842 A 0.632 0.632 0 0 1 43.927 6.752 Q 43.896 6.654 43.871 6.502 A 3.997 3.997 0 0 1 43.849 6.341 Q 43.282 6.93 42.495 6.93 A 2.033 2.033 0 0 1 41.966 6.865 A 1.529 1.529 0 0 1 41.342 6.532 Q 40.891 6.135 40.891 5.524 Q 40.891 4.781 41.456 4.37 Q 42.021 3.959 43.044 3.959 L 43.835 3.959 L 43.835 3.586 A 1.152 1.152 0 0 0 43.8 3.291 A 0.828 0.828 0 0 0 43.581 2.907 Q 43.364 2.693 42.974 2.66 A 1.748 1.748 0 0 0 42.829 2.654 Q 42.394 2.654 42.1 2.874 Q 41.805 3.094 41.805 3.406 L 40.988 3.406 A 1.041 1.041 0 0 1 41.113 2.917 A 1.409 1.409 0 0 1 41.24 2.718 Q 41.493 2.386 41.926 2.193 A 2.249 2.249 0 0 1 42.702 2.005 A 2.669 2.669 0 0 1 42.877 2 A 2.65 2.65 0 0 1 43.395 2.047 Q 43.702 2.108 43.941 2.248 A 1.439 1.439 0 0 1 44.165 2.41 A 1.396 1.396 0 0 1 44.618 3.236 A 1.998 1.998 0 0 1 44.648 3.542 L 44.648 5.73 Q 44.648 6.165 44.722 6.482 A 1.707 1.707 0 0 0 44.815 6.772 L 44.815 6.842 Z M 25.954 4.597 L 25.954 4.447 A 3.17 3.17 0 0 1 26.03 3.738 A 2.581 2.581 0 0 1 26.224 3.184 A 2.191 2.191 0 0 1 26.672 2.558 A 2.033 2.033 0 0 1 26.98 2.314 Q 27.466 2 28.033 2 A 2.254 2.254 0 0 1 28.646 2.078 A 1.639 1.639 0 0 1 29.474 2.61 Q 29.988 3.221 29.988 4.359 L 29.988 4.698 L 26.767 4.698 A 2.111 2.111 0 0 0 26.838 5.206 A 1.516 1.516 0 0 0 27.178 5.834 A 1.282 1.282 0 0 0 28.112 6.265 A 1.652 1.652 0 0 0 28.178 6.267 A 1.763 1.763 0 0 0 28.506 6.238 Q 28.73 6.195 28.907 6.091 A 1.827 1.827 0 0 0 29.416 5.643 A 2.068 2.068 0 0 0 29.43 5.625 L 29.927 6.012 A 1.926 1.926 0 0 1 28.527 6.903 A 2.749 2.749 0 0 1 28.134 6.93 A 2.394 2.394 0 0 1 27.383 6.817 A 1.974 1.974 0 0 1 26.561 6.295 Q 25.954 5.66 25.954 4.597 Z M 24.354 6.842 L 23.542 6.842 L 23.542 2.716 L 22.79 2.716 L 22.79 2.087 L 23.542 2.087 L 23.542 1.6 Q 23.542 1.012 23.783 0.629 A 1.273 1.273 0 0 1 23.95 0.417 Q 24.359 0 25.106 0 A 2.134 2.134 0 0 1 25.664 0.075 L 25.62 0.734 Q 25.414 0.694 25.181 0.694 A 1.086 1.086 0 0 0 24.933 0.721 Q 24.712 0.773 24.57 0.925 A 0.747 0.747 0 0 0 24.403 1.221 Q 24.368 1.336 24.358 1.475 A 1.57 1.57 0 0 0 24.354 1.586 L 24.354 2.087 L 25.37 2.087 L 25.37 2.716 L 24.354 2.716 L 24.354 6.842 Z M 56.878 0.092 L 56.878 6.842 L 56.065 6.842 L 56.065 0.092 L 56.878 0.092 Z M 8.068 2.061 L 8.068 2.817 A 2.251 2.251 0 0 0 7.826 2.79 A 2.782 2.782 0 0 0 7.668 2.786 Q 6.891 2.786 6.599 3.43 A 1.445 1.445 0 0 0 6.583 3.467 L 6.583 6.842 L 5.77 6.842 L 5.77 2.087 L 6.561 2.087 L 6.574 2.637 Q 6.955 2.031 7.637 2.001 A 1.636 1.636 0 0 1 7.708 2 Q 7.945 2 8.068 2.061 Z M 33.227 2.061 L 33.227 2.817 A 2.251 2.251 0 0 0 32.984 2.79 A 2.782 2.782 0 0 0 32.827 2.786 Q 32.049 2.786 31.758 3.43 A 1.445 1.445 0 0 0 31.742 3.467 L 31.742 6.842 L 30.929 6.842 L 30.929 2.087 L 31.72 2.087 L 31.733 2.637 Q 32.113 2.031 32.796 2.001 A 1.636 1.636 0 0 1 32.867 2 Q 33.104 2 33.227 2.061 Z M 54.694 2.087 L 54.694 6.842 L 53.881 6.842 L 53.881 2.087 L 54.694 2.087 Z M 11.448 5.511 L 11.448 4.535 L 10.811 4.535 Q 9.316 4.535 9.316 5.41 Q 9.316 5.792 9.571 6.007 A 0.893 0.893 0 0 0 9.985 6.201 A 1.259 1.259 0 0 0 10.226 6.223 A 1.429 1.429 0 0 0 10.951 6.025 A 1.335 1.335 0 0 0 11.247 5.797 A 1.108 1.108 0 0 0 11.448 5.511 Z M 43.835 5.511 L 43.835 4.535 L 43.198 4.535 Q 41.704 4.535 41.704 5.41 Q 41.704 5.792 41.959 6.007 A 0.893 0.893 0 0 0 42.372 6.201 A 1.259 1.259 0 0 0 42.614 6.223 A 1.429 1.429 0 0 0 43.339 6.025 A 1.335 1.335 0 0 0 43.634 5.797 A 1.108 1.108 0 0 0 43.835 5.511 Z M 26.793 4.03 L 29.175 4.03 L 29.175 3.968 Q 29.149 3.509 28.979 3.204 A 1.13 1.13 0 0 0 28.841 3.008 A 0.983 0.983 0 0 0 28.187 2.676 A 1.39 1.39 0 0 0 28.033 2.667 A 1.106 1.106 0 0 0 27.51 2.79 A 1.14 1.14 0 0 0 27.207 3.026 A 1.417 1.417 0 0 0 26.93 3.472 Q 26.856 3.656 26.816 3.878 A 2.741 2.741 0 0 0 26.793 4.03 Z M 53.815 0.826 Q 53.815 0.628 53.936 0.492 Q 54.048 0.366 54.26 0.357 A 0.783 0.783 0 0 1 54.294 0.356 Q 54.532 0.356 54.655 0.492 A 0.474 0.474 0 0 1 54.777 0.796 A 0.614 0.614 0 0 1 54.778 0.826 A 0.523 0.523 0 0 1 54.753 0.992 A 0.442 0.442 0 0 1 54.655 1.156 Q 54.542 1.276 54.334 1.287 A 0.803 0.803 0 0 1 54.294 1.288 Q 54.122 1.288 54.011 1.218 A 0.362 0.362 0 0 1 53.936 1.156 A 0.456 0.456 0 0 1 53.818 0.88 A 0.605 0.605 0 0 1 53.815 0.826 Z" vector-effect="non-scaling-stroke"/></g>
</svg>