<?xml version="1.0" encoding="UTF-8"?>
<svg width="80px" height="80px" viewBox="0 0 80 80" version="1.1" xmlns="http://www.w3.org/2000/svg" xmlns:xlink="http://www.w3.org/1999/xlink">
    <title>Icon-Architecture/64/Arch_Amazon-Monitron_64</title>
    
    <g id="Icon-Architecture/64/Arch_Amazon-Monitron_64" stroke="none" stroke-width="1" fill="none" fill-rule="evenodd">
        
        <g id="Icon-Service/64/Amazon-Monitron_64" transform="translate(16, 8), scale(.65)" fill="#000000">
            <path d="M32.5,15 C41.429,15 48.707,22.134 48.975,31 L41.769,31 L37.248,20.675 C37.087,20.305 36.716,20.099 36.311,20.076 C35.906,20.085 35.546,20.337 35.399,20.714 L28.102,39.524 L24.053,31.547 C23.883,31.211 23.538,31 23.161,31 L16.025,31 C16.293,22.134 23.571,15 32.5,15 L32.5,15 Z M32.5,48 C23.908,48 16.837,41.397 16.076,33 L22.547,33 L27.332,42.427 C27.511,42.779 27.886,43.006 28.273,42.973 C28.668,42.953 29.014,42.704 29.156,42.336 L36.388,23.697 L40.199,32.401 C40.358,32.765 40.718,33 41.115,33 L48.924,33 C48.163,41.397 41.092,48 32.5,48 L32.5,48 Z M14.076,33 C14.844,42.5 22.805,50 32.5,50 C42.195,50 50.156,42.5 50.924,33 L59,33 C59.553,33 60,32.552 60,32 L60,27.125 C60,25.954 59.047,25 57.875,25 L54.063,25 C53.635,23.579 53.062,22.198 52.353,20.878 L55.05,18.18 C55.878,17.351 55.878,16.002 55.05,15.174 L48.826,8.951 C48.023,8.147 46.623,8.148 45.82,8.951 L43.123,11.648 C41.804,10.94 40.423,10.366 39,9.936 L39,6.125 C39,4.954 38.047,4 36.875,4 L27.125,4 C25.953,4 25,4.954 25,6.125 L25,9.936 C23.577,10.366 22.196,10.94 20.877,11.648 L18.18,8.951 C17.377,8.147 15.977,8.148 15.174,8.951 L8.95,15.174 C8.122,16.002 8.122,17.351 8.95,18.18 L11.647,20.878 C10.938,22.198 10.365,23.579 9.937,25 L6.125,25 C4.953,25 4,25.954 4,27.125 L4,28 L6,28 L6,27.125 C6,27.056 6.056,27 6.125,27 L10.692,27 C11.146,27 11.543,26.694 11.659,26.255 C12.123,24.498 12.828,22.8 13.754,21.208 C13.982,20.816 13.918,20.319 13.597,19.999 L10.364,16.767 C10.315,16.717 10.315,16.637 10.364,16.588 L16.588,10.365 L16.608,10.365 C16.655,10.365 16.765,10.364 16.766,10.365 L19.998,13.597 C20.319,13.919 20.815,13.982 21.208,13.754 C22.798,12.829 24.497,12.124 26.256,11.659 C26.694,11.542 27,11.146 27,10.692 L27,6.125 C27,6.056 27.056,6 27.125,6 L36.875,6 C36.944,6 37,6.056 37,6.125 L37,10.692 C37,11.146 37.306,11.542 37.744,11.659 C39.503,12.124 41.202,12.829 42.792,13.754 C43.186,13.982 43.681,13.919 44.002,13.597 L47.234,10.365 L47.255,10.365 C47.302,10.365 47.412,10.364 47.412,10.365 L53.636,16.588 C53.685,16.637 53.685,16.717 53.636,16.766 L50.403,19.999 C50.082,20.319 50.018,20.816 50.246,21.208 C51.172,22.8 51.877,24.498 52.341,26.255 C52.457,26.694 52.854,27 53.308,27 L57.875,27 C57.944,27 58,27.056 58,27.125 L58,31 L50.975,31 C50.706,21.031 42.532,13 32.5,13 C22.468,13 14.294,21.031 14.025,31 L5,31 C4.447,31 4,31.448 4,32 L4,36.875 C4,38.046 4.953,39 6.125,39 L11.008,39 C11.437,40.424 12.008,41.806 12.712,43.123 L10.024,45.824 C9.202,46.651 9.203,47.996 10.024,48.822 L16.215,55.042 C16.616,55.446 17.15,55.668 17.72,55.668 L17.722,55.668 C18.291,55.668 18.826,55.446 19.229,55.042 L21.903,52.354 C23.214,53.061 24.586,53.633 26,54.063 L26,57.875 C26,59.046 26.953,60 28.125,60 L36.875,60 C38.047,60 39,59.046 39,57.875 L39,54.063 C40.414,53.633 41.786,53.061 43.097,52.354 L45.772,55.043 C46.174,55.446 46.709,55.668 47.278,55.668 L47.28,55.668 C47.85,55.668 48.384,55.446 48.785,55.042 L54.976,48.822 C55.797,47.996 55.798,46.651 54.976,45.823 L52.288,43.123 C52.992,41.806 53.563,40.424 53.992,39 L57.875,39 C59.047,39 60,38.046 60,36.875 L60,36 L58,36 L58,36.875 C58,36.944 57.944,37 57.875,37 L53.235,37 C52.781,37 52.384,37.306 52.269,37.745 C51.804,39.508 51.102,41.206 50.183,42.793 C49.956,43.185 50.02,43.679 50.339,44 L53.558,47.233 C53.606,47.283 53.606,47.363 53.558,47.411 L47.367,53.631 L47.318,53.631 C47.268,53.63 47.188,53.631 47.189,53.631 L43.979,50.404 C43.655,50.082 43.157,50.018 42.765,50.247 C41.184,51.171 39.493,51.876 37.743,52.342 C37.305,52.458 37,52.855 37,53.308 L37,57.875 C37,57.944 36.944,58 36.875,58 L28.125,58 C28.056,58 28,57.944 28,57.875 L28,53.308 C28,52.855 27.695,52.458 27.257,52.342 C25.507,51.876 23.816,51.171 22.235,50.247 C21.842,50.018 21.344,50.082 21.021,50.404 L17.811,53.631 L18.52,54.337 L17.633,53.631 L11.442,47.412 C11.394,47.363 11.394,47.283 11.442,47.234 L14.661,44 C14.98,43.679 15.044,43.185 14.817,42.793 C13.898,41.206 13.196,39.508 12.731,37.745 C12.616,37.306 12.219,37 11.765,37 L6.125,37 C6.056,37 6,36.944 6,36.875 L6,33 L14.076,33 Z" id="Fill-1"></path>
        </g>
    </g><g transform="translate(28.406vw, 64vh)" id="svgGroup" stroke-linecap="round" fill-rule="evenodd" font-size="9pt" stroke="#000" stroke-width="0.15mm" fill="#000" style="stroke:#000;stroke-width:0.15mm;fill:#000"><path d="M 0 0.059 L 0.727 0.059 L 2.121 3.539 L 3.516 0.059 L 4.245 0.059 L 4.245 4.324 L 3.683 4.324 L 3.683 2.663 L 3.735 0.87 L 2.335 4.324 L 1.904 4.324 L 0.507 0.879 L 0.563 2.663 L 0.563 4.324 L 0 4.324 L 0 0.059 Z M 8.575 1.154 L 9.088 1.154 L 9.105 1.553 Q 9.469 1.096 10.055 1.096 Q 11.06 1.096 11.068 2.23 L 11.068 4.324 L 10.526 4.324 L 10.526 2.227 A 1.224 1.224 0 0 0 10.512 2.04 Q 10.496 1.944 10.464 1.868 A 0.494 0.494 0 0 0 10.37 1.72 A 0.472 0.472 0 0 0 10.18 1.599 Q 10.104 1.572 10.01 1.562 A 1.106 1.106 0 0 0 9.891 1.556 Q 9.627 1.556 9.428 1.696 Q 9.229 1.837 9.117 2.065 L 9.117 4.324 L 8.575 4.324 L 8.575 1.154 Z M 20.695 1.154 L 21.208 1.154 L 21.226 1.553 Q 21.589 1.096 22.175 1.096 Q 23.18 1.096 23.188 2.23 L 23.188 4.324 L 22.646 4.324 L 22.646 2.227 A 1.224 1.224 0 0 0 22.632 2.04 Q 22.616 1.944 22.584 1.868 A 0.494 0.494 0 0 0 22.49 1.72 A 0.472 0.472 0 0 0 22.301 1.599 Q 22.224 1.572 22.13 1.562 A 1.106 1.106 0 0 0 22.011 1.556 Q 21.747 1.556 21.548 1.696 Q 21.349 1.837 21.237 2.065 L 21.237 4.324 L 20.695 4.324 L 20.695 1.154 Z M 13.535 0.387 L 14.077 0.387 L 14.077 1.154 L 14.669 1.154 L 14.669 1.573 L 14.077 1.573 L 14.077 3.539 A 0.732 0.732 0 0 0 14.084 3.644 Q 14.092 3.697 14.108 3.74 A 0.294 0.294 0 0 0 14.156 3.825 A 0.234 0.234 0 0 0 14.253 3.892 Q 14.292 3.908 14.342 3.915 A 0.618 0.618 0 0 0 14.426 3.92 Q 14.52 3.92 14.684 3.885 L 14.684 4.324 A 1.642 1.642 0 0 1 14.395 4.377 A 1.438 1.438 0 0 1 14.268 4.383 A 0.954 0.954 0 0 1 14.051 4.36 Q 13.899 4.324 13.792 4.235 A 0.571 0.571 0 0 1 13.72 4.163 A 0.723 0.723 0 0 1 13.585 3.909 Q 13.535 3.749 13.535 3.539 L 13.535 1.573 L 12.958 1.573 L 12.958 1.154 L 13.535 1.154 L 13.535 0.387 Z M 5.01 2.748 L 5.01 2.71 A 2.038 2.038 0 0 1 5.068 2.216 A 1.715 1.715 0 0 1 5.193 1.872 Q 5.376 1.5 5.703 1.298 A 1.358 1.358 0 0 1 6.332 1.1 A 1.66 1.66 0 0 1 6.448 1.096 A 1.518 1.518 0 0 1 6.95 1.175 A 1.291 1.291 0 0 1 7.496 1.544 A 1.526 1.526 0 0 1 7.842 2.23 A 2.248 2.248 0 0 1 7.896 2.736 L 7.896 2.774 A 2.076 2.076 0 0 1 7.842 3.252 A 1.718 1.718 0 0 1 7.718 3.605 A 1.371 1.371 0 0 1 7.367 4.065 A 1.334 1.334 0 0 1 7.211 4.178 A 1.364 1.364 0 0 1 6.598 4.377 A 1.686 1.686 0 0 1 6.454 4.383 A 1.508 1.508 0 0 1 5.954 4.303 A 1.292 1.292 0 0 1 5.41 3.935 Q 5.01 3.486 5.01 2.748 Z M 17.13 2.748 L 17.13 2.71 A 2.038 2.038 0 0 1 17.188 2.216 A 1.715 1.715 0 0 1 17.313 1.872 Q 17.496 1.5 17.823 1.298 A 1.358 1.358 0 0 1 18.452 1.1 A 1.66 1.66 0 0 1 18.568 1.096 A 1.518 1.518 0 0 1 19.071 1.175 A 1.291 1.291 0 0 1 19.616 1.544 A 1.526 1.526 0 0 1 19.962 2.23 A 2.248 2.248 0 0 1 20.016 2.736 L 20.016 2.774 A 2.076 2.076 0 0 1 19.963 3.252 A 1.718 1.718 0 0 1 19.838 3.605 A 1.371 1.371 0 0 1 19.487 4.065 A 1.334 1.334 0 0 1 19.332 4.178 A 1.364 1.364 0 0 1 18.718 4.377 A 1.686 1.686 0 0 1 18.574 4.383 A 1.508 1.508 0 0 1 18.074 4.303 A 1.292 1.292 0 0 1 17.53 3.935 Q 17.13 3.486 17.13 2.748 Z M 16.834 1.137 L 16.834 1.641 A 1.501 1.501 0 0 0 16.672 1.623 A 1.855 1.855 0 0 0 16.567 1.62 A 0.958 0.958 0 0 0 16.281 1.66 Q 15.99 1.751 15.854 2.05 A 0.963 0.963 0 0 0 15.844 2.074 L 15.844 4.324 L 15.302 4.324 L 15.302 1.154 L 15.829 1.154 L 15.838 1.521 A 0.961 0.961 0 0 1 16.069 1.262 Q 16.288 1.096 16.594 1.096 A 0.99 0.99 0 0 1 16.677 1.099 Q 16.775 1.107 16.834 1.137 Z M 12.475 1.154 L 12.475 4.324 L 11.933 4.324 L 11.933 1.154 L 12.475 1.154 Z M 5.718 3.497 A 1.03 1.03 0 0 0 5.799 3.621 Q 6.044 3.94 6.454 3.94 Q 6.867 3.94 7.11 3.617 Q 7.354 3.293 7.354 2.71 A 1.792 1.792 0 0 0 7.319 2.35 Q 7.274 2.13 7.169 1.958 A 1.057 1.057 0 0 0 7.106 1.865 A 0.821 0.821 0 0 0 6.829 1.628 Q 6.661 1.541 6.448 1.541 A 0.813 0.813 0 0 0 6.097 1.615 Q 5.935 1.692 5.811 1.848 A 1.01 1.01 0 0 0 5.801 1.86 A 1.059 1.059 0 0 0 5.633 2.192 Q 5.586 2.339 5.568 2.517 A 2.451 2.451 0 0 0 5.555 2.774 Q 5.555 3.205 5.718 3.497 Z M 17.838 3.497 A 1.03 1.03 0 0 0 17.919 3.621 Q 18.164 3.94 18.574 3.94 Q 18.987 3.94 19.23 3.617 Q 19.474 3.293 19.474 2.71 A 1.792 1.792 0 0 0 19.44 2.35 Q 19.394 2.13 19.29 1.958 A 1.057 1.057 0 0 0 19.226 1.865 A 0.821 0.821 0 0 0 18.949 1.628 Q 18.781 1.541 18.568 1.541 A 0.813 0.813 0 0 0 18.217 1.615 Q 18.055 1.692 17.931 1.848 A 1.01 1.01 0 0 0 17.921 1.86 A 1.059 1.059 0 0 0 17.753 2.192 Q 17.706 2.339 17.688 2.517 A 2.451 2.451 0 0 0 17.675 2.774 Q 17.675 3.205 17.838 3.497 Z M 11.907 0.196 A 0.357 0.357 0 0 0 11.889 0.313 A 0.403 0.403 0 0 0 11.89 0.35 A 0.304 0.304 0 0 0 11.969 0.533 Q 12.025 0.594 12.117 0.613 A 0.455 0.455 0 0 0 12.208 0.621 Q 12.366 0.621 12.448 0.533 A 0.295 0.295 0 0 0 12.513 0.424 A 0.349 0.349 0 0 0 12.53 0.313 A 0.409 0.409 0 0 0 12.53 0.293 A 0.316 0.316 0 0 0 12.448 0.091 Q 12.393 0.029 12.303 0.01 A 0.439 0.439 0 0 0 12.208 0 Q 12.146 0 12.095 0.014 A 0.257 0.257 0 0 0 11.969 0.091 A 0.31 0.31 0 0 0 11.907 0.196 Z" vector-effect="non-scaling-stroke"/></g>
</svg>