<?xml version="1.0" encoding="UTF-8"?>
<svg width="80px" height="80px" viewBox="0 0 80 80" version="1.1" xmlns="http://www.w3.org/2000/svg" xmlns:xlink="http://www.w3.org/1999/xlink">
    <title>Icon-Architecture/64/Arch_AWS-Omni_64</title>
    
    <g id="Icon-Architecture/64/Arch_AWS-Omni_64" stroke="none" stroke-width="1" fill="none" fill-rule="evenodd">
        
        <g id="Icon-Service/64/AWS-Omni_64" transform="translate(16, 8), scale(.65)" fill="#000000">
            <path d="M52,24.0916944 C52,22.4419073 50.654,21.0993356 49,21.0993356 C47.346,21.0993356 46,22.4419073 46,24.0916944 C46,25.7414816 47.346,27.0840532 49,27.0840532 C50.654,27.0840532 52,25.7414816 52,24.0916944 L52,24.0916944 Z M54,24.0916944 C54,26.8416722 51.757,29.0789591 49,29.0789591 C46.586,29.0789591 44.565,27.3623426 44.102,25.0891474 L39,25.0891474 L39,53.0178295 L37,53.0178295 L37,24.0916944 C37,23.5411004 37.447,23.0942415 38,23.0942415 L44.102,23.0942415 C44.565,20.8210463 46.586,19.1044298 49,19.1044298 C51.757,19.1044298 54,21.3417167 54,24.0916944 L54,24.0916944 Z M35,8.98726466 C35,7.33747751 33.654,5.99490587 32,5.99490587 C30.346,5.99490587 29,7.33747751 29,8.98726466 C29,10.6370518 30.346,11.9796235 32,11.9796235 C33.654,11.9796235 35,10.6370518 35,8.98726466 L35,8.98726466 Z M33,13.8737866 L33,47.0331119 L31,47.0331119 L31,13.8737866 C28.721,13.409971 27,11.395116 27,8.98726466 C27,6.23728693 29.243,4 32,4 C34.757,4 37,6.23728693 37,8.98726466 C37,11.395116 35.279,13.409971 33,13.8737866 L33,13.8737866 Z M17,17.1095239 C18.654,17.1095239 20,15.7669522 20,14.1171651 C20,12.4673779 18.654,11.1248063 17,11.1248063 C15.346,11.1248063 14,12.4673779 14,14.1171651 C14,15.7669522 15.346,17.1095239 17,17.1095239 L17,17.1095239 Z M27,29.5068664 L27,53.0178295 L25,53.0178295 L25,30.2589459 L16.726,27.8999697 C16.296,27.7782805 16,27.3862815 16,26.9414175 L16,19.003687 C13.721,18.5398714 12,16.5260139 12,14.1171651 C12,11.3671874 14.243,9.12990043 17,9.12990043 C19.757,9.12990043 22,11.3671874 22,14.1171651 C22,16.5260139 20.279,18.5398714 18,19.003687 L18,26.1893379 L26.274,28.5473167 C26.704,28.6700034 27,29.0610049 27,29.5068664 L27,29.5068664 Z M45,54.0152824 L49,54.0152824 L49,52.0203765 L45,52.0203765 L45,54.0152824 Z M51,54.0152824 L55,54.0152824 L55,52.0203765 L51,52.0203765 L51,54.0152824 Z M54.18,60 L9.821,60 C6.606,60 4,57.4006377 4,54.1938265 L4,51.8418325 C4,48.6350213 6.606,46.0356589 9.821,46.0356589 L22,46.0356589 L22,48.0305648 L9.501,48.0305648 C7.567,48.0305648 6,49.5935736 6,51.5226475 L6,54.5140089 C6,56.4420854 7.567,58.0050941 9.5,58.0050941 L54.499,58.0050941 C56.433,58.0050941 58,56.4420854 58,54.5130114 L58,51.5216501 C58,49.5935736 56.433,48.0305648 54.5,48.0305648 L42,48.0305648 L42,46.0356589 L54.179,46.0356589 C57.394,46.0356589 60,48.6350213 60,51.8418325 L60,54.1938265 C60,57.4006377 57.394,60 54.18,60 L54.18,60 Z" id="Fill-3"></path><g id="svgGroup" transform="translate(47.68750000000004, 74)" stroke-linecap="round" fill-rule="evenodd" font-size="9pt" stroke="#000" stroke-width="0.15mm" fill="#000" style="stroke:#000;stroke-width:0.15mm;fill:#000"><path d="M 18.838 1.096 L 19.351 1.096 L 19.365 1.447 A 1.143 1.143 0 0 1 20.179 1.042 A 1.599 1.599 0 0 1 20.306 1.037 A 1.339 1.339 0 0 1 20.646 1.077 A 0.83 0.83 0 0 1 21.211 1.547 Q 21.369 1.318 21.623 1.178 A 1.1 1.1 0 0 1 21.975 1.057 A 1.473 1.473 0 0 1 22.222 1.037 Q 23.265 1.037 23.282 2.142 L 23.282 4.266 L 22.74 4.266 L 22.74 2.174 Q 22.74 1.834 22.585 1.666 A 0.453 0.453 0 0 0 22.416 1.553 Q 22.342 1.524 22.249 1.51 A 1.25 1.25 0 0 0 22.064 1.497 A 0.83 0.83 0 0 0 21.82 1.531 A 0.672 0.672 0 0 0 21.562 1.677 A 0.695 0.695 0 0 0 21.353 2.035 A 0.94 0.94 0 0 0 21.331 2.162 L 21.331 4.266 L 20.786 4.266 L 20.786 2.189 A 1.021 1.021 0 0 0 20.754 1.919 Q 20.669 1.611 20.364 1.528 A 0.971 0.971 0 0 0 20.109 1.497 A 0.96 0.96 0 0 0 19.819 1.538 Q 19.531 1.629 19.393 1.922 A 0.973 0.973 0 0 0 19.38 1.951 L 19.38 4.266 L 18.838 4.266 L 18.838 1.096 Z M 6.932 1.096 L 7.444 1.096 L 7.462 1.494 Q 7.825 1.037 8.411 1.037 Q 9.416 1.037 9.425 2.171 L 9.425 4.266 L 8.883 4.266 L 8.883 2.168 A 1.224 1.224 0 0 0 8.868 1.981 Q 8.852 1.886 8.82 1.809 A 0.494 0.494 0 0 0 8.726 1.661 A 0.472 0.472 0 0 0 8.537 1.541 Q 8.461 1.513 8.366 1.503 A 1.106 1.106 0 0 0 8.247 1.497 Q 7.983 1.497 7.784 1.638 Q 7.585 1.778 7.474 2.007 L 7.474 4.266 L 6.932 4.266 L 6.932 1.096 Z M 6.193 4.266 L 5.625 4.266 A 0.421 0.421 0 0 1 5.601 4.206 Q 5.57 4.108 5.549 3.932 A 1.289 1.289 0 0 1 5.134 4.226 A 1.209 1.209 0 0 1 4.646 4.324 A 1.356 1.356 0 0 1 4.294 4.281 A 1.019 1.019 0 0 1 3.877 4.059 A 0.852 0.852 0 0 1 3.578 3.439 A 1.069 1.069 0 0 1 3.577 3.387 A 1.038 1.038 0 0 1 3.633 3.037 A 0.873 0.873 0 0 1 3.954 2.618 A 1.282 1.282 0 0 1 4.338 2.432 Q 4.509 2.38 4.715 2.358 A 2.912 2.912 0 0 1 5.013 2.344 L 5.54 2.344 L 5.54 2.095 A 0.768 0.768 0 0 0 5.516 1.898 A 0.552 0.552 0 0 0 5.37 1.642 Q 5.226 1.499 4.966 1.478 A 1.166 1.166 0 0 0 4.869 1.474 A 0.95 0.95 0 0 0 4.641 1.5 A 0.712 0.712 0 0 0 4.383 1.62 A 0.57 0.57 0 0 0 4.273 1.726 A 0.395 0.395 0 0 0 4.187 1.975 L 3.642 1.975 Q 3.642 1.737 3.81 1.516 A 1.087 1.087 0 0 1 4.114 1.246 A 1.368 1.368 0 0 1 4.267 1.166 A 1.499 1.499 0 0 1 4.784 1.041 A 1.78 1.78 0 0 1 4.901 1.037 A 1.766 1.766 0 0 1 5.246 1.069 Q 5.555 1.13 5.76 1.311 A 0.931 0.931 0 0 1 6.062 1.862 A 1.332 1.332 0 0 1 6.082 2.065 L 6.082 3.524 A 2.785 2.785 0 0 0 6.094 3.792 Q 6.106 3.919 6.131 4.025 A 1.138 1.138 0 0 0 6.193 4.219 L 6.193 4.266 Z M 18.103 4.266 L 17.534 4.266 A 0.421 0.421 0 0 1 17.511 4.206 Q 17.48 4.108 17.458 3.932 A 1.289 1.289 0 0 1 17.043 4.226 A 1.209 1.209 0 0 1 16.556 4.324 A 1.356 1.356 0 0 1 16.203 4.281 A 1.019 1.019 0 0 1 15.787 4.059 A 0.852 0.852 0 0 1 15.488 3.439 A 1.069 1.069 0 0 1 15.486 3.387 A 1.038 1.038 0 0 1 15.543 3.037 A 0.873 0.873 0 0 1 15.863 2.618 A 1.282 1.282 0 0 1 16.247 2.432 Q 16.418 2.38 16.624 2.358 A 2.912 2.912 0 0 1 16.922 2.344 L 17.449 2.344 L 17.449 2.095 A 0.768 0.768 0 0 0 17.425 1.898 A 0.552 0.552 0 0 0 17.279 1.642 Q 17.135 1.499 16.875 1.478 A 1.166 1.166 0 0 0 16.778 1.474 A 0.95 0.95 0 0 0 16.55 1.5 A 0.712 0.712 0 0 0 16.292 1.62 A 0.57 0.57 0 0 0 16.182 1.726 A 0.395 0.395 0 0 0 16.096 1.975 L 15.551 1.975 Q 15.551 1.737 15.719 1.516 A 1.087 1.087 0 0 1 16.023 1.246 A 1.368 1.368 0 0 1 16.176 1.166 A 1.499 1.499 0 0 1 16.693 1.041 A 1.78 1.78 0 0 1 16.811 1.037 A 1.766 1.766 0 0 1 17.156 1.069 Q 17.464 1.13 17.669 1.311 A 0.931 0.931 0 0 1 17.971 1.862 A 1.332 1.332 0 0 1 17.991 2.065 L 17.991 3.524 A 2.785 2.785 0 0 0 18.003 3.792 Q 18.015 3.919 18.04 4.025 A 1.138 1.138 0 0 0 18.103 4.219 L 18.103 4.266 Z M 26.625 4.266 L 26.057 4.266 A 0.421 0.421 0 0 1 26.033 4.206 Q 26.002 4.108 25.98 3.932 A 1.289 1.289 0 0 1 25.566 4.226 A 1.209 1.209 0 0 1 25.078 4.324 A 1.356 1.356 0 0 1 24.725 4.281 A 1.019 1.019 0 0 1 24.309 4.059 A 0.852 0.852 0 0 1 24.01 3.439 A 1.069 1.069 0 0 1 24.009 3.387 A 1.038 1.038 0 0 1 24.065 3.037 A 0.873 0.873 0 0 1 24.385 2.618 A 1.282 1.282 0 0 1 24.769 2.432 Q 24.941 2.38 25.146 2.358 A 2.912 2.912 0 0 1 25.444 2.344 L 25.972 2.344 L 25.972 2.095 A 0.768 0.768 0 0 0 25.948 1.898 A 0.552 0.552 0 0 0 25.802 1.642 Q 25.658 1.499 25.397 1.478 A 1.166 1.166 0 0 0 25.301 1.474 A 0.95 0.95 0 0 0 25.073 1.5 A 0.712 0.712 0 0 0 24.814 1.62 A 0.57 0.57 0 0 0 24.705 1.726 A 0.395 0.395 0 0 0 24.618 1.975 L 24.073 1.975 Q 24.073 1.737 24.242 1.516 A 1.087 1.087 0 0 1 24.546 1.246 A 1.368 1.368 0 0 1 24.699 1.166 A 1.499 1.499 0 0 1 25.216 1.041 A 1.78 1.78 0 0 1 25.333 1.037 A 1.766 1.766 0 0 1 25.678 1.069 Q 25.986 1.13 26.191 1.311 A 0.931 0.931 0 0 1 26.494 1.862 A 1.332 1.332 0 0 1 26.514 2.065 L 26.514 3.524 A 2.785 2.785 0 0 0 26.526 3.792 Q 26.538 3.919 26.563 4.025 A 1.138 1.138 0 0 0 26.625 4.219 L 26.625 4.266 Z M 1.567 2.596 L 0.563 2.596 L 0.563 4.266 L 0 4.266 L 0 0 L 1.573 0 Q 2.273 0 2.67 0.357 A 1.181 1.181 0 0 1 3.062 1.169 A 1.634 1.634 0 0 1 3.067 1.304 A 1.588 1.588 0 0 1 3.022 1.697 A 1.076 1.076 0 0 1 2.679 2.26 A 1.265 1.265 0 0 1 2.226 2.506 Q 2.039 2.565 1.814 2.585 A 2.76 2.76 0 0 1 1.567 2.596 Z M 10.099 2.69 L 10.099 2.651 A 2.038 2.038 0 0 1 10.157 2.157 A 1.715 1.715 0 0 1 10.282 1.814 Q 10.465 1.441 10.792 1.239 A 1.358 1.358 0 0 1 11.421 1.041 A 1.66 1.66 0 0 1 11.537 1.037 A 1.518 1.518 0 0 1 12.039 1.117 A 1.291 1.291 0 0 1 12.584 1.485 A 1.526 1.526 0 0 1 12.93 2.171 A 2.248 2.248 0 0 1 12.984 2.678 L 12.984 2.716 A 2.076 2.076 0 0 1 12.931 3.194 A 1.718 1.718 0 0 1 12.807 3.546 A 1.371 1.371 0 0 1 12.456 4.006 A 1.334 1.334 0 0 1 12.3 4.119 A 1.364 1.364 0 0 1 11.687 4.318 A 1.686 1.686 0 0 1 11.543 4.324 A 1.508 1.508 0 0 1 11.043 4.244 A 1.292 1.292 0 0 1 10.499 3.876 Q 10.099 3.428 10.099 2.69 Z M 15.196 1.078 L 15.196 1.582 A 1.501 1.501 0 0 0 15.034 1.564 A 1.855 1.855 0 0 0 14.93 1.562 A 0.958 0.958 0 0 0 14.644 1.602 Q 14.352 1.693 14.217 1.991 A 0.963 0.963 0 0 0 14.206 2.016 L 14.206 4.266 L 13.664 4.266 L 13.664 1.096 L 14.191 1.096 L 14.2 1.462 A 0.961 0.961 0 0 1 14.431 1.203 Q 14.65 1.037 14.956 1.037 A 0.99 0.99 0 0 1 15.039 1.04 Q 15.137 1.049 15.196 1.078 Z M 10.807 3.439 A 1.03 1.03 0 0 0 10.888 3.563 Q 11.133 3.882 11.543 3.882 Q 11.956 3.882 12.199 3.558 Q 12.442 3.234 12.442 2.651 A 1.792 1.792 0 0 0 12.408 2.292 Q 12.363 2.071 12.258 1.899 A 1.057 1.057 0 0 0 12.195 1.806 A 0.821 0.821 0 0 0 11.918 1.569 Q 11.749 1.482 11.537 1.482 A 0.813 0.813 0 0 0 11.186 1.557 Q 11.024 1.633 10.9 1.789 A 1.01 1.01 0 0 0 10.89 1.802 A 1.059 1.059 0 0 0 10.722 2.134 Q 10.675 2.28 10.656 2.458 A 2.451 2.451 0 0 0 10.644 2.716 Q 10.644 3.147 10.807 3.439 Z M 0.563 0.463 L 0.563 2.136 L 1.573 2.136 Q 1.884 2.136 2.095 2.035 A 0.731 0.731 0 0 0 2.265 1.923 Q 2.502 1.713 2.505 1.318 A 1.337 1.337 0 0 0 2.505 1.31 A 0.977 0.977 0 0 0 2.469 1.038 A 0.741 0.741 0 0 0 2.265 0.7 A 0.823 0.823 0 0 0 1.906 0.503 Q 1.78 0.469 1.631 0.464 A 1.544 1.544 0 0 0 1.605 0.463 L 0.563 0.463 Z M 5.54 3.378 L 5.54 2.728 L 5.115 2.728 A 2.544 2.544 0 0 0 4.777 2.748 Q 4.406 2.798 4.244 2.97 A 0.477 0.477 0 0 0 4.119 3.311 A 0.613 0.613 0 0 0 4.142 3.483 A 0.458 0.458 0 0 0 4.289 3.709 A 0.596 0.596 0 0 0 4.565 3.838 A 0.839 0.839 0 0 0 4.726 3.853 Q 4.98 3.853 5.209 3.721 A 0.89 0.89 0 0 0 5.406 3.569 A 0.738 0.738 0 0 0 5.54 3.378 Z M 17.449 3.378 L 17.449 2.728 L 17.024 2.728 A 2.544 2.544 0 0 0 16.686 2.748 Q 16.315 2.798 16.154 2.97 A 0.477 0.477 0 0 0 16.028 3.311 A 0.613 0.613 0 0 0 16.051 3.483 A 0.458 0.458 0 0 0 16.198 3.709 A 0.596 0.596 0 0 0 16.474 3.838 A 0.839 0.839 0 0 0 16.635 3.853 Q 16.89 3.853 17.118 3.721 A 0.89 0.89 0 0 0 17.315 3.569 A 0.738 0.738 0 0 0 17.449 3.378 Z M 25.972 3.378 L 25.972 2.728 L 25.547 2.728 A 2.544 2.544 0 0 0 25.208 2.748 Q 24.838 2.798 24.676 2.97 A 0.477 0.477 0 0 0 24.551 3.311 A 0.613 0.613 0 0 0 24.574 3.483 A 0.458 0.458 0 0 0 24.721 3.709 A 0.596 0.596 0 0 0 24.996 3.838 A 0.839 0.839 0 0 0 25.157 3.853 Q 25.412 3.853 25.641 3.721 A 0.89 0.89 0 0 0 25.838 3.569 A 0.738 0.738 0 0 0 25.972 3.378 Z" vector-effect="non-scaling-stroke"/></g>
        </g>
    </g>
</svg>