<?xml version="1.0" encoding="UTF-8"?>
<svg width="80px" height="80px" viewBox="0 0 80 80" version="1.1" xmlns="http://www.w3.org/2000/svg" xmlns:xlink="http://www.w3.org/1999/xlink">
    <title>Icon-Architecture/64/Arch_TorchServe_64</title>
    
    <g id="Icon-Architecture/64/Arch_TorchServe_64" stroke="none" stroke-width="1" fill="none" fill-rule="evenodd">
        
        <g id="Icon-Service/64/TorchServe_64" transform="translate(16, 8), scale(.65)" fill="#000000">
            <path d="M38.2402,13.103 C38.2402,14.387 39.2852,15.432 40.5692,15.432 C41.8532,15.432 42.8982,14.387 42.8982,13.103 C42.8982,11.819 41.8532,10.774 40.5692,10.774 C39.2852,10.774 38.2402,11.819 38.2402,13.103 M36.2402,13.103 C36.2402,10.716 38.1822,8.774 40.5692,8.774 C42.9562,8.774 44.8982,10.716 44.8982,13.103 C44.8982,15.49 42.9562,17.432 40.5692,17.432 C38.1822,17.432 36.2402,15.49 36.2402,13.103 M55.1152,35.89 C55.1152,48.88 44.5472,59.448 31.5572,59.448 C18.5682,59.448 8.0002,48.88 8.0002,35.89 C8.0002,29.441 10.5552,23.422 15.1962,18.941 L30.8082,4 L32.1912,5.445 L16.5822,20.383 C12.3392,24.48 10.0002,29.989 10.0002,35.89 C10.0002,47.777 19.6712,57.448 31.5572,57.448 C43.4442,57.448 53.1152,47.777 53.1152,35.89 C53.1152,29.928 50.7352,24.38 46.4142,20.269 L47.7932,18.82 C52.5142,23.312 55.1152,29.374 55.1152,35.89" id="TorchServe-Icon_64_Squid"></path><g id="svgGroup" transform="translate(70.53499995436113, 74)" stroke-linecap="round" fill-rule="evenodd" font-size="9pt" stroke="#000" stroke-width="0.15mm" fill="#000" style="stroke:#000;stroke-width:0.15mm;fill:#000"><path d="M 18.313 1.468 L 17.748 1.468 A 0.977 0.977 0 0 0 17.715 1.206 A 0.711 0.711 0 0 0 17.502 0.86 Q 17.287 0.667 16.918 0.642 A 1.668 1.668 0 0 0 16.808 0.639 A 1.524 1.524 0 0 0 16.554 0.658 Q 16.42 0.681 16.311 0.73 A 0.734 0.734 0 0 0 16.159 0.822 A 0.595 0.595 0 0 0 15.929 1.258 A 0.845 0.845 0 0 0 15.926 1.33 Q 15.926 1.591 16.147 1.771 A 1.041 1.041 0 0 0 16.306 1.875 Q 16.526 1.996 16.9 2.101 A 5.485 5.485 0 0 1 17.21 2.197 Q 17.366 2.251 17.496 2.309 A 2.198 2.198 0 0 1 17.732 2.43 A 1.561 1.561 0 0 1 17.958 2.593 Q 18.084 2.704 18.166 2.832 A 0.965 0.965 0 0 1 18.177 2.851 A 0.999 0.999 0 0 1 18.308 3.221 A 1.299 1.299 0 0 1 18.322 3.416 A 1.071 1.071 0 0 1 18.241 3.84 Q 18.144 4.067 17.932 4.236 A 1.257 1.257 0 0 1 17.918 4.247 Q 17.555 4.526 16.974 4.555 A 2.759 2.759 0 0 1 16.837 4.559 Q 16.397 4.559 16.017 4.39 A 1.589 1.589 0 0 1 15.698 4.205 A 1.249 1.249 0 0 1 15.429 3.929 Q 15.223 3.636 15.223 3.264 L 15.788 3.264 A 0.841 0.841 0 0 0 15.834 3.549 A 0.716 0.716 0 0 0 16.074 3.875 Q 16.33 4.076 16.741 4.096 A 1.914 1.914 0 0 0 16.837 4.099 Q 17.129 4.099 17.332 4.02 A 0.752 0.752 0 0 0 17.52 3.917 A 0.579 0.579 0 0 0 17.753 3.498 A 0.768 0.768 0 0 0 17.757 3.422 A 0.716 0.716 0 0 0 17.728 3.215 A 0.544 0.544 0 0 0 17.537 2.937 A 1.04 1.04 0 0 0 17.388 2.842 Q 17.221 2.753 16.956 2.665 A 5.851 5.851 0 0 0 16.74 2.599 A 4.568 4.568 0 0 1 16.345 2.467 Q 15.919 2.301 15.687 2.087 A 1 1 0 0 1 15.418 1.695 A 1.023 1.023 0 0 1 15.357 1.339 A 1.02 1.02 0 0 1 15.688 0.569 A 1.318 1.318 0 0 1 15.76 0.505 Q 16.163 0.176 16.808 0.176 A 1.942 1.942 0 0 1 17.248 0.224 A 1.581 1.581 0 0 1 17.591 0.346 A 1.367 1.367 0 0 1 17.945 0.593 A 1.223 1.223 0 0 1 18.125 0.814 A 1.199 1.199 0 0 1 18.313 1.468 Z M 12.636 0 L 12.636 1.714 A 1.178 1.178 0 0 1 13.08 1.369 A 1.221 1.221 0 0 1 13.573 1.271 Q 14.578 1.271 14.587 2.405 L 14.587 4.5 L 14.045 4.5 L 14.045 2.402 A 1.224 1.224 0 0 0 14.03 2.216 Q 14.014 2.12 13.982 2.043 A 0.494 0.494 0 0 0 13.888 1.896 A 0.472 0.472 0 0 0 13.699 1.775 Q 13.623 1.748 13.529 1.738 A 1.106 1.106 0 0 0 13.409 1.731 Q 13.146 1.731 12.946 1.872 Q 12.747 2.013 12.636 2.241 L 12.636 4.5 L 12.094 4.5 L 12.094 0 L 12.636 0 Z M 10.972 3.501 L 11.484 3.501 A 0.955 0.955 0 0 1 11.352 3.934 A 1.181 1.181 0 0 1 11.297 4.02 A 1.219 1.219 0 0 1 10.891 4.383 A 1.446 1.446 0 0 1 10.835 4.412 A 1.331 1.331 0 0 1 10.225 4.559 A 1.564 1.564 0 0 1 9.76 4.493 A 1.226 1.226 0 0 1 9.195 4.126 Q 8.844 3.73 8.815 3.065 A 2.794 2.794 0 0 1 8.812 2.944 L 8.813 2.854 A 2.16 2.16 0 0 1 8.855 2.416 A 1.713 1.713 0 0 1 8.982 2.03 A 1.339 1.339 0 0 1 9.275 1.621 A 1.261 1.261 0 0 1 9.47 1.471 A 1.295 1.295 0 0 1 9.974 1.289 A 1.686 1.686 0 0 1 10.222 1.271 A 1.464 1.464 0 0 1 10.654 1.333 A 1.191 1.191 0 0 1 11.108 1.591 A 1.129 1.129 0 0 1 11.48 2.357 A 1.493 1.493 0 0 1 11.484 2.42 L 10.972 2.42 A 0.813 0.813 0 0 0 10.904 2.144 A 0.725 0.725 0 0 0 10.739 1.915 A 0.718 0.718 0 0 0 10.253 1.717 A 0.934 0.934 0 0 0 10.222 1.717 A 0.916 0.916 0 0 0 9.941 1.758 A 0.72 0.72 0 0 0 9.582 2.014 A 0.979 0.979 0 0 0 9.43 2.312 Q 9.354 2.549 9.354 2.874 L 9.354 2.977 Q 9.354 3.524 9.58 3.82 Q 9.806 4.116 10.225 4.116 A 0.781 0.781 0 0 0 10.731 3.94 A 0.672 0.672 0 0 0 10.894 3.753 A 0.609 0.609 0 0 0 10.972 3.501 Z M 3.299 0.234 L 3.299 0.697 L 1.928 0.697 L 1.928 4.5 L 1.368 4.5 L 1.368 0.697 L 0 0.697 L 0 0.234 L 3.299 0.234 Z M 18.82 3.003 L 18.82 2.903 Q 18.82 2.432 19 2.061 A 1.461 1.461 0 0 1 19.299 1.644 A 1.356 1.356 0 0 1 19.504 1.481 Q 19.828 1.271 20.206 1.271 A 1.503 1.503 0 0 1 20.615 1.324 A 1.093 1.093 0 0 1 21.167 1.679 A 1.33 1.33 0 0 1 21.413 2.138 Q 21.475 2.332 21.497 2.568 A 2.942 2.942 0 0 1 21.51 2.845 L 21.51 3.07 L 19.362 3.07 A 1.408 1.408 0 0 0 19.41 3.409 A 1.011 1.011 0 0 0 19.636 3.828 A 0.855 0.855 0 0 0 20.259 4.115 A 1.102 1.102 0 0 0 20.303 4.116 A 1.176 1.176 0 0 0 20.522 4.097 Q 20.661 4.07 20.773 4.008 A 0.737 0.737 0 0 0 20.789 3.999 A 1.218 1.218 0 0 0 21.128 3.7 A 1.384 1.384 0 0 0 21.138 3.688 L 21.469 3.946 A 1.284 1.284 0 0 1 20.536 4.541 A 1.833 1.833 0 0 1 20.273 4.559 A 1.596 1.596 0 0 1 19.773 4.483 A 1.316 1.316 0 0 1 19.225 4.135 A 1.424 1.424 0 0 1 18.862 3.428 A 2.069 2.069 0 0 1 18.82 3.003 Z M 26.95 3.003 L 26.95 2.903 Q 26.95 2.432 27.13 2.061 A 1.461 1.461 0 0 1 27.429 1.644 A 1.356 1.356 0 0 1 27.634 1.481 Q 27.958 1.271 28.336 1.271 A 1.503 1.503 0 0 1 28.745 1.324 A 1.093 1.093 0 0 1 29.297 1.679 A 1.33 1.33 0 0 1 29.543 2.138 Q 29.605 2.332 29.627 2.568 A 2.942 2.942 0 0 1 29.64 2.845 L 29.64 3.07 L 27.492 3.07 A 1.408 1.408 0 0 0 27.54 3.409 A 1.011 1.011 0 0 0 27.766 3.828 A 0.855 0.855 0 0 0 28.389 4.115 A 1.102 1.102 0 0 0 28.433 4.116 A 1.176 1.176 0 0 0 28.651 4.097 Q 28.791 4.07 28.903 4.008 A 0.737 0.737 0 0 0 28.919 3.999 A 1.218 1.218 0 0 0 29.258 3.7 A 1.384 1.384 0 0 0 29.268 3.688 L 29.599 3.946 A 1.284 1.284 0 0 1 28.665 4.541 A 1.833 1.833 0 0 1 28.403 4.559 A 1.596 1.596 0 0 1 27.903 4.483 A 1.316 1.316 0 0 1 27.354 4.135 A 1.424 1.424 0 0 1 26.992 3.428 A 2.069 2.069 0 0 1 26.95 3.003 Z M 24.46 1.33 L 25.266 3.765 L 26.051 1.33 L 26.604 1.33 L 25.468 4.5 L 25.055 4.5 L 23.906 1.33 L 24.46 1.33 Z M 3.413 2.924 L 3.413 2.886 A 2.038 2.038 0 0 1 3.471 2.391 A 1.715 1.715 0 0 1 3.596 2.048 Q 3.779 1.676 4.106 1.474 A 1.358 1.358 0 0 1 4.736 1.275 A 1.66 1.66 0 0 1 4.852 1.271 A 1.518 1.518 0 0 1 5.354 1.351 A 1.291 1.291 0 0 1 5.899 1.72 A 1.526 1.526 0 0 1 6.245 2.406 A 2.248 2.248 0 0 1 6.299 2.912 L 6.299 2.95 A 2.076 2.076 0 0 1 6.246 3.428 A 1.718 1.718 0 0 1 6.122 3.781 A 1.371 1.371 0 0 1 5.77 4.241 A 1.334 1.334 0 0 1 5.615 4.354 A 1.364 1.364 0 0 1 5.002 4.553 A 1.686 1.686 0 0 1 4.857 4.559 A 1.508 1.508 0 0 1 4.357 4.479 A 1.292 1.292 0 0 1 3.813 4.11 Q 3.413 3.662 3.413 2.924 Z M 8.511 1.313 L 8.511 1.816 A 1.501 1.501 0 0 0 8.349 1.799 A 1.855 1.855 0 0 0 8.244 1.796 A 0.958 0.958 0 0 0 7.958 1.836 Q 7.666 1.927 7.531 2.225 A 0.963 0.963 0 0 0 7.521 2.25 L 7.521 4.5 L 6.979 4.5 L 6.979 1.33 L 7.506 1.33 L 7.515 1.696 A 0.961 0.961 0 0 1 7.746 1.437 Q 7.965 1.271 8.271 1.271 A 0.99 0.99 0 0 1 8.353 1.275 Q 8.452 1.283 8.511 1.313 Z M 23.669 1.313 L 23.669 1.816 A 1.501 1.501 0 0 0 23.507 1.799 A 1.855 1.855 0 0 0 23.402 1.796 A 0.958 0.958 0 0 0 23.116 1.836 Q 22.825 1.927 22.689 2.225 A 0.963 0.963 0 0 0 22.679 2.25 L 22.679 4.5 L 22.137 4.5 L 22.137 1.33 L 22.664 1.33 L 22.673 1.696 A 0.961 0.961 0 0 1 22.904 1.437 Q 23.123 1.271 23.429 1.271 A 0.99 0.99 0 0 1 23.512 1.275 Q 23.61 1.283 23.669 1.313 Z M 4.121 3.673 A 1.03 1.03 0 0 0 4.203 3.797 Q 4.447 4.116 4.857 4.116 Q 5.271 4.116 5.514 3.792 Q 5.757 3.469 5.757 2.886 A 1.792 1.792 0 0 0 5.723 2.526 Q 5.678 2.306 5.573 2.133 A 1.057 1.057 0 0 0 5.509 2.041 A 0.821 0.821 0 0 0 5.233 1.804 Q 5.064 1.717 4.852 1.717 A 0.813 0.813 0 0 0 4.5 1.791 Q 4.338 1.868 4.214 2.023 A 1.01 1.01 0 0 0 4.204 2.036 A 1.059 1.059 0 0 0 4.036 2.368 Q 3.99 2.515 3.971 2.693 A 2.451 2.451 0 0 0 3.958 2.95 Q 3.958 3.381 4.121 3.673 Z M 19.38 2.625 L 20.968 2.625 L 20.968 2.584 A 1.489 1.489 0 0 0 20.932 2.327 Q 20.899 2.186 20.837 2.074 A 0.753 0.753 0 0 0 20.745 1.944 A 0.655 0.655 0 0 0 20.309 1.722 A 0.926 0.926 0 0 0 20.206 1.717 Q 19.878 1.717 19.655 1.956 Q 19.46 2.165 19.395 2.524 A 1.827 1.827 0 0 0 19.38 2.625 Z M 27.51 2.625 L 29.098 2.625 L 29.098 2.584 A 1.489 1.489 0 0 0 29.062 2.327 Q 29.029 2.186 28.967 2.074 A 0.753 0.753 0 0 0 28.875 1.944 A 0.655 0.655 0 0 0 28.439 1.722 A 0.926 0.926 0 0 0 28.336 1.717 Q 28.008 1.717 27.785 1.956 Q 27.589 2.165 27.525 2.524 A 1.827 1.827 0 0 0 27.51 2.625 Z" vector-effect="non-scaling-stroke"/></g>
        </g>
    </g>
</svg>