<?xml version="1.0" encoding="UTF-8"?>
<svg width="48px" height="48px" viewBox="0 0 48 48" version="1.1" xmlns="http://www.w3.org/2000/svg" xmlns:xlink="http://www.w3.org/1999/xlink">
    <title>Icon-Resource/Migration-And-Transfer/Res_AWS-Transfer-Family_AWS-FTP_48_Dark</title>
    <g id="Icon-Resource/Migration-And-Transfer/Res_AWS-Transfer-Family_AWS-FTP_48" stroke="none" stroke-width="1" fill="none" fill-rule="evenodd">
        <path transform="translate(12.000000, 8.000000), scale(.65)" d="M30.2783,39.832 C30.2783,39.35 30.1903,38.984 30.0133,38.734 C29.8373,38.485 29.5813,38.36 29.2463,38.36 L28.4073,38.36 L28.4073,41.304 L29.2463,41.304 C29.5813,41.304 29.8373,41.179 30.0133,40.929 C30.1903,40.68 30.2783,40.313 30.2783,39.832 L30.2783,39.832 Z M31.3563,37.773 C31.8253,38.276 32.0593,38.963 32.0593,39.832 C32.0593,40.701 31.8253,41.387 31.3563,41.891 C30.8863,42.394 30.2573,42.645 29.4653,42.645 L28.4073,42.645 L28.4073,45.963 L26.6383,45.963 L26.6383,37.018 L29.4653,37.018 C30.2573,37.018 30.8863,37.269 31.3563,37.773 L31.3563,37.773 Z M19.5253,38.45 L21.6683,38.45 L21.6683,45.963 L23.4753,45.963 L23.4753,38.45 L25.6183,38.45 L25.6183,37.018 L19.5253,37.018 L19.5253,38.45 Z M14.1183,45.963 L15.9243,45.963 L15.9243,42.194 L18.1583,42.194 L18.1583,40.812 L15.9243,40.812 L15.9243,38.399 L18.7773,38.399 L18.7773,37.018 L14.1183,37.018 L14.1183,45.963 Z M45.5823,10.898 L36.9763,2.293 C36.5863,1.902 35.9533,1.902 35.5623,2.293 L26.9573,10.898 C26.6713,11.185 26.5853,11.614 26.7403,11.988 C26.8943,12.362 27.2593,12.605 27.6643,12.605 L32.0433,12.605 L32.0433,16.983 L32.0433,21.286 L32.0433,24.513 C32.0433,25.065 32.4903,25.513 33.0433,25.513 L36.0073,25.513 L29.8153,31.704 L23.6253,25.513 L26.5893,25.513 C27.1413,25.513 27.5893,25.065 27.5893,24.513 L27.5893,16.983 L25.5893,16.983 L25.5893,23.513 L21.2113,23.513 C20.8063,23.513 20.4413,23.756 20.2873,24.13 C20.1323,24.504 20.2173,24.934 20.5043,25.22 L29.1083,33.825 C29.2963,34.013 29.5493,34.118 29.8153,34.118 C30.0813,34.118 30.3353,34.013 30.5223,33.825 L39.1283,25.22 C39.4143,24.934 39.5003,24.504 39.3443,24.13 C39.1903,23.756 38.8253,23.513 38.4213,23.513 L34.0433,23.513 L34.0433,21.286 L34.0433,16.983 L34.0433,11.605 C34.0433,11.053 33.5953,10.605 33.0433,10.605 L30.0783,10.605 L36.2693,4.414 L42.4613,10.605 L39.4963,10.605 C38.9433,10.605 38.4963,11.053 38.4963,11.605 L38.4963,19.21 L36.2693,19.21 L36.2693,21.21 L41.7233,21.21 L41.7233,43.95 L33.3473,43.95 L33.3473,45.95 L42.7233,45.95 C43.2763,45.95 43.7233,45.503 43.7233,44.95 L43.7233,20.21 C43.7233,19.657 43.2763,19.21 42.7233,19.21 L40.4963,19.21 L40.4963,12.605 L44.8753,12.605 C45.2793,12.605 45.6443,12.362 45.7993,11.988 C45.9543,11.614 45.8683,11.185 45.5823,10.898 L45.5823,10.898 Z M9.0773,43.95 L11.5303,43.95 L11.5303,45.95 L6.1513,45.95 C4.4143,45.95 3.0003,44.536 3.0003,42.799 L3.0003,12.681 C3.0003,12.128 3.4473,11.681 4.0003,11.681 L15.9143,11.681 C16.2233,11.681 16.5163,11.824 16.7063,12.069 L18.8963,14.908 L23.3613,14.908 L23.3613,16.908 L18.4053,16.908 C18.0953,16.908 17.8023,16.765 17.6133,16.52 L15.4233,13.681 L5.0003,13.681 L5.0003,42.799 C5.0003,43.434 5.5163,43.95 6.1513,43.95 C6.7863,43.95 7.3023,43.434 7.3023,42.799 L7.3023,20.21 C7.3023,19.657 7.7503,19.21 8.3023,19.21 L23.3613,19.21 L23.3613,21.21 L9.3023,21.21 L9.3023,42.799 C9.3023,43.206 9.2183,43.593 9.0773,43.95 L9.0773,43.95 Z" id="AWS-Transfer-Family-AWS-FTP_Resource-Icon_light-bg" fill="#000000"></path>
    </g><g transform="translate(25, 83)" id="svgGroup" stroke-linecap="round" fill-rule="evenodd" font-size="9pt" stroke="#000" stroke-width="0.25mm" fill="#000" style="stroke:#000;stroke-width:0.25mm;fill:#000"><path d="M 23.12 0.088 L 24.13 4.469 L 24.253 5.313 L 24.434 4.553 L 25.699 0.088 L 26.411 0.088 L 27.646 4.553 L 27.822 5.326 L 27.958 4.465 L 28.951 0.088 L 29.799 0.088 L 28.248 6.486 L 27.479 6.486 L 26.161 1.824 L 26.06 1.336 L 25.958 1.824 L 24.592 6.486 L 23.823 6.486 L 22.276 0.088 L 23.12 0.088 Z M 34.98 1.938 L 34.132 1.938 A 1.466 1.466 0 0 0 34.083 1.546 A 1.066 1.066 0 0 0 33.763 1.026 A 1.211 1.211 0 0 0 33.294 0.77 Q 33.042 0.694 32.722 0.694 A 2.286 2.286 0 0 0 32.342 0.724 Q 32.14 0.758 31.977 0.831 A 1.101 1.101 0 0 0 31.748 0.969 A 0.892 0.892 0 0 0 31.403 1.624 A 1.267 1.267 0 0 0 31.399 1.732 A 0.806 0.806 0 0 0 31.667 2.337 A 1.134 1.134 0 0 0 31.731 2.393 A 1.562 1.562 0 0 0 31.969 2.549 Q 32.299 2.73 32.86 2.887 A 8.228 8.228 0 0 1 33.325 3.032 Q 33.56 3.113 33.754 3.2 A 3.297 3.297 0 0 1 34.108 3.382 A 2.342 2.342 0 0 1 34.447 3.626 Q 34.637 3.792 34.759 3.985 A 1.45 1.45 0 0 1 34.776 4.012 A 1.498 1.498 0 0 1 34.972 4.568 A 1.948 1.948 0 0 1 34.994 4.86 A 1.606 1.606 0 0 1 34.871 5.497 Q 34.726 5.838 34.408 6.09 A 1.886 1.886 0 0 1 34.387 6.106 Q 33.781 6.574 32.766 6.574 A 3.023 3.023 0 0 1 31.625 6.36 A 2.917 2.917 0 0 1 31.535 6.322 A 2.383 2.383 0 0 1 31.057 6.044 A 1.874 1.874 0 0 1 30.654 5.629 A 1.689 1.689 0 0 1 30.344 4.632 L 31.192 4.632 A 1.261 1.261 0 0 0 31.262 5.059 A 1.074 1.074 0 0 0 31.621 5.548 Q 32.005 5.85 32.622 5.881 A 2.87 2.87 0 0 0 32.766 5.884 A 2.628 2.628 0 0 0 33.153 5.858 Q 33.349 5.828 33.508 5.767 A 1.129 1.129 0 0 0 33.79 5.612 Q 34.146 5.339 34.146 4.869 A 1.074 1.074 0 0 0 34.103 4.559 A 0.816 0.816 0 0 0 33.816 4.142 Q 33.486 3.885 32.621 3.634 Q 31.535 3.322 31.041 2.868 Q 30.546 2.413 30.546 1.745 Q 30.546 0.989 31.151 0.494 A 2.121 2.121 0 0 1 32.041 0.071 A 3.087 3.087 0 0 1 32.722 0 A 2.913 2.913 0 0 1 33.382 0.072 A 2.372 2.372 0 0 1 33.897 0.255 A 2.051 2.051 0 0 1 34.428 0.626 A 1.834 1.834 0 0 1 34.697 0.958 A 1.798 1.798 0 0 1 34.98 1.938 Z M 3.74 6.486 L 2.351 3.898 L 0.848 3.898 L 0.848 6.486 L 0 6.486 L 0 0.088 L 2.118 0.088 A 3.809 3.809 0 0 1 2.76 0.138 Q 3.102 0.197 3.376 0.324 A 1.789 1.789 0 0 1 3.781 0.58 A 1.588 1.588 0 0 1 4.307 1.469 A 2.453 2.453 0 0 1 4.364 2.013 A 1.864 1.864 0 0 1 4.273 2.604 A 1.64 1.64 0 0 1 4.041 3.054 A 1.849 1.849 0 0 1 3.382 3.611 A 2.342 2.342 0 0 1 3.142 3.718 L 4.645 6.434 L 4.645 6.486 L 3.74 6.486 Z M 13.724 3.129 L 12.907 3.129 Q 12.907 2.795 12.623 2.553 Q 12.34 2.312 11.909 2.312 Q 11.465 2.312 11.215 2.505 A 0.653 0.653 0 0 0 11.04 2.704 Q 10.967 2.835 10.964 3 A 0.771 0.771 0 0 0 10.964 3.01 A 0.588 0.588 0 0 0 10.994 3.203 A 0.48 0.48 0 0 0 11.197 3.454 A 1.093 1.093 0 0 0 11.348 3.533 Q 11.512 3.605 11.767 3.673 A 6.581 6.581 0 0 0 12.039 3.74 A 6.318 6.318 0 0 1 12.446 3.845 Q 12.783 3.944 13.025 4.065 A 1.901 1.901 0 0 1 13.281 4.218 Q 13.418 4.315 13.516 4.429 A 1.06 1.06 0 0 1 13.586 4.52 A 1.024 1.024 0 0 1 13.748 4.927 A 1.388 1.388 0 0 1 13.768 5.168 Q 13.768 5.805 13.258 6.19 Q 12.776 6.554 12.022 6.573 A 3.337 3.337 0 0 1 11.936 6.574 A 2.746 2.746 0 0 1 11.401 6.525 A 2.124 2.124 0 0 1 10.925 6.372 A 1.771 1.771 0 0 1 10.491 6.094 A 1.54 1.54 0 0 1 10.237 5.807 Q 9.989 5.445 9.989 5.023 L 10.802 5.023 A 0.932 0.932 0 0 0 10.875 5.348 A 0.827 0.827 0 0 0 11.129 5.671 A 1.072 1.072 0 0 0 11.531 5.864 Q 11.686 5.903 11.867 5.91 A 2.013 2.013 0 0 0 11.936 5.911 A 1.863 1.863 0 0 0 12.231 5.889 Q 12.393 5.863 12.524 5.806 A 0.941 0.941 0 0 0 12.676 5.724 A 0.689 0.689 0 0 0 12.841 5.574 A 0.554 0.554 0 0 0 12.955 5.225 A 0.698 0.698 0 0 0 12.919 4.994 A 0.581 0.581 0 0 0 12.707 4.713 A 1.05 1.05 0 0 0 12.538 4.615 Q 12.349 4.524 12.054 4.449 A 5.392 5.392 0 0 0 11.841 4.399 A 6.342 6.342 0 0 1 11.48 4.311 Q 11.11 4.209 10.861 4.083 Q 10.562 3.93 10.392 3.731 A 1.017 1.017 0 0 1 10.325 3.643 Q 10.151 3.388 10.151 3.037 A 1.206 1.206 0 0 1 10.55 2.132 A 1.694 1.694 0 0 1 10.646 2.048 A 1.752 1.752 0 0 1 11.429 1.688 A 2.471 2.471 0 0 1 11.909 1.644 A 2.559 2.559 0 0 1 12.473 1.702 A 1.757 1.757 0 0 1 13.221 2.061 Q 13.724 2.479 13.724 3.129 Z M 21.327 6.486 L 20.716 4.816 L 18.035 4.816 L 17.433 6.486 L 16.563 6.486 L 19.006 0.088 L 19.745 0.088 L 22.192 6.486 L 21.327 6.486 Z M 5.212 4.241 L 5.212 4.091 A 3.17 3.17 0 0 1 5.288 3.382 A 2.581 2.581 0 0 1 5.482 2.828 A 2.191 2.191 0 0 1 5.93 2.202 A 2.033 2.033 0 0 1 6.238 1.958 Q 6.724 1.644 7.291 1.644 A 2.254 2.254 0 0 1 7.904 1.723 A 1.639 1.639 0 0 1 8.732 2.254 Q 9.246 2.865 9.246 4.003 L 9.246 4.342 L 6.025 4.342 A 2.111 2.111 0 0 0 6.096 4.85 A 1.516 1.516 0 0 0 6.436 5.478 A 1.282 1.282 0 0 0 7.37 5.909 A 1.652 1.652 0 0 0 7.436 5.911 A 1.763 1.763 0 0 0 7.764 5.882 Q 7.988 5.839 8.165 5.735 A 1.827 1.827 0 0 0 8.674 5.287 A 2.068 2.068 0 0 0 8.688 5.269 L 9.185 5.656 A 1.926 1.926 0 0 1 7.785 6.547 A 2.749 2.749 0 0 1 7.392 6.574 A 2.394 2.394 0 0 1 6.64 6.461 A 1.974 1.974 0 0 1 5.818 5.939 Q 5.212 5.304 5.212 4.241 Z M 0.848 0.782 L 0.848 3.208 L 2.145 3.208 Q 2.685 3.208 3.035 2.968 A 1.174 1.174 0 0 0 3.144 2.883 A 1.069 1.069 0 0 0 3.51 2.146 A 1.486 1.486 0 0 0 3.516 2.013 Q 3.516 1.47 3.22 1.159 A 1 1 0 0 0 3.162 1.103 Q 2.808 0.787 2.14 0.782 L 0.848 0.782 Z M 19.375 1.129 L 18.29 4.122 L 20.465 4.122 L 19.375 1.129 Z M 6.051 3.674 L 8.433 3.674 L 8.433 3.612 Q 8.407 3.153 8.236 2.848 A 1.13 1.13 0 0 0 8.099 2.652 A 0.983 0.983 0 0 0 7.445 2.32 A 1.39 1.39 0 0 0 7.291 2.312 A 1.106 1.106 0 0 0 6.768 2.435 A 1.14 1.14 0 0 0 6.464 2.67 A 1.417 1.417 0 0 0 6.188 3.116 Q 6.114 3.3 6.074 3.522 A 2.741 2.741 0 0 0 6.051 3.674 Z" vector-effect="non-scaling-stroke"/></g><g transform="translate(25, 93)" id="svgGroup" stroke-linecap="round" fill-rule="evenodd" font-size="9pt" stroke="#000" stroke-width="0.25mm" fill="#000" style="stroke:#000;stroke-width:0.25mm;fill:#000"><path d="M 70.73 0.444 L 71.741 4.825 L 71.864 5.669 L 72.044 4.909 L 73.31 0.444 L 74.021 0.444 L 75.256 4.909 L 75.432 5.682 L 75.568 4.821 L 76.562 0.444 L 77.41 0.444 L 75.858 6.842 L 75.089 6.842 L 73.771 2.18 L 73.67 1.692 L 73.569 2.18 L 72.202 6.842 L 71.433 6.842 L 69.886 0.444 L 70.73 0.444 Z M 45.918 2.087 L 46.688 2.087 L 46.709 2.615 Q 47.232 2 48.12 2 A 2.009 2.009 0 0 1 48.631 2.06 A 1.244 1.244 0 0 1 49.478 2.764 A 1.801 1.801 0 0 1 50.095 2.21 A 1.65 1.65 0 0 1 50.625 2.029 A 2.209 2.209 0 0 1 50.994 2 A 2.119 2.119 0 0 1 51.638 2.089 Q 52.565 2.385 52.585 3.656 L 52.585 6.842 L 51.772 6.842 L 51.772 3.705 A 1.781 1.781 0 0 0 51.751 3.425 Q 51.728 3.277 51.677 3.159 A 0.758 0.758 0 0 0 51.539 2.942 A 0.68 0.68 0 0 0 51.286 2.774 Q 51.075 2.69 50.758 2.689 A 1.245 1.245 0 0 0 50.392 2.741 A 1.008 1.008 0 0 0 50.005 2.96 A 1.042 1.042 0 0 0 49.691 3.496 A 1.41 1.41 0 0 0 49.658 3.687 L 49.658 6.842 L 48.841 6.842 L 48.841 3.727 A 1.532 1.532 0 0 0 48.792 3.322 Q 48.666 2.86 48.208 2.735 A 1.457 1.457 0 0 0 47.826 2.689 Q 47.052 2.689 46.751 3.327 A 1.459 1.459 0 0 0 46.731 3.371 L 46.731 6.842 L 45.918 6.842 L 45.918 2.087 Z M 82.591 2.294 L 81.743 2.294 A 1.466 1.466 0 0 0 81.693 1.901 A 1.066 1.066 0 0 0 81.374 1.382 A 1.211 1.211 0 0 0 80.904 1.126 Q 80.652 1.05 80.332 1.05 A 2.286 2.286 0 0 0 79.952 1.08 Q 79.75 1.114 79.588 1.187 A 1.101 1.101 0 0 0 79.359 1.325 A 0.892 0.892 0 0 0 79.014 1.98 A 1.267 1.267 0 0 0 79.009 2.087 A 0.806 0.806 0 0 0 79.277 2.693 A 1.134 1.134 0 0 0 79.341 2.749 A 1.562 1.562 0 0 0 79.579 2.905 Q 79.91 3.086 80.47 3.243 A 8.228 8.228 0 0 1 80.935 3.388 Q 81.17 3.469 81.365 3.556 A 3.297 3.297 0 0 1 81.719 3.738 A 2.342 2.342 0 0 1 82.057 3.982 Q 82.247 4.148 82.369 4.341 A 1.45 1.45 0 0 1 82.386 4.368 A 1.498 1.498 0 0 1 82.583 4.924 A 1.948 1.948 0 0 1 82.604 5.216 A 1.606 1.606 0 0 1 82.482 5.853 Q 82.336 6.193 82.018 6.446 A 1.886 1.886 0 0 1 81.998 6.462 Q 81.391 6.93 80.376 6.93 A 3.023 3.023 0 0 1 79.235 6.715 A 2.917 2.917 0 0 1 79.146 6.677 A 2.383 2.383 0 0 1 78.667 6.4 A 1.874 1.874 0 0 1 78.264 5.985 A 1.689 1.689 0 0 1 77.955 4.988 L 78.803 4.988 A 1.261 1.261 0 0 0 78.872 5.415 A 1.074 1.074 0 0 0 79.231 5.904 Q 79.616 6.206 80.232 6.237 A 2.87 2.87 0 0 0 80.376 6.24 A 2.628 2.628 0 0 0 80.763 6.214 Q 80.959 6.184 81.118 6.123 A 1.129 1.129 0 0 0 81.4 5.968 Q 81.756 5.695 81.756 5.225 A 1.074 1.074 0 0 0 81.713 4.915 A 0.816 0.816 0 0 0 81.426 4.498 Q 81.097 4.241 80.231 3.99 Q 79.146 3.678 78.651 3.223 Q 78.157 2.769 78.157 2.101 Q 78.157 1.345 78.761 0.85 A 2.121 2.121 0 0 1 79.651 0.427 A 3.087 3.087 0 0 1 80.332 0.356 A 2.913 2.913 0 0 1 80.992 0.428 A 2.372 2.372 0 0 1 81.508 0.611 A 2.051 2.051 0 0 1 82.039 0.982 A 1.834 1.834 0 0 1 82.307 1.314 A 1.798 1.798 0 0 1 82.591 2.294 Z M 133.286 6.842 L 131.629 4.641 L 131.12 5.172 L 131.12 6.842 L 130.307 6.842 L 130.307 0.092 L 131.12 0.092 L 131.12 4.175 L 131.555 3.652 L 133.036 2.087 L 134.024 2.087 L 132.174 4.074 L 134.24 6.842 L 133.286 6.842 Z M 39.858 3.327 L 39.858 4.017 L 37.173 4.017 L 37.173 6.842 L 36.33 6.842 L 36.33 0.444 L 40.293 0.444 L 40.293 1.138 L 37.173 1.138 L 37.173 3.327 L 39.858 3.327 Z M 89.442 3.327 L 89.442 4.017 L 86.757 4.017 L 86.757 6.842 L 85.913 6.842 L 85.913 0.444 L 89.877 0.444 L 89.877 1.138 L 86.757 1.138 L 86.757 3.327 L 89.442 3.327 Z M 22.039 3.485 L 21.221 3.485 Q 21.221 3.151 20.938 2.909 Q 20.654 2.667 20.224 2.667 Q 19.78 2.667 19.529 2.861 A 0.653 0.653 0 0 0 19.354 3.059 Q 19.281 3.191 19.279 3.356 A 0.771 0.771 0 0 0 19.279 3.366 A 0.588 0.588 0 0 0 19.309 3.559 A 0.48 0.48 0 0 0 19.512 3.81 A 1.093 1.093 0 0 0 19.662 3.889 Q 19.826 3.96 20.082 4.029 A 6.581 6.581 0 0 0 20.353 4.096 A 6.318 6.318 0 0 1 20.761 4.2 Q 21.098 4.3 21.34 4.421 A 1.901 1.901 0 0 1 21.596 4.573 Q 21.733 4.671 21.83 4.785 A 1.06 1.06 0 0 1 21.9 4.876 A 1.024 1.024 0 0 1 22.062 5.283 A 1.388 1.388 0 0 1 22.083 5.524 Q 22.083 6.161 21.573 6.546 Q 21.09 6.91 20.336 6.929 A 3.337 3.337 0 0 1 20.25 6.93 A 2.746 2.746 0 0 1 19.716 6.88 A 2.124 2.124 0 0 1 19.239 6.728 A 1.771 1.771 0 0 1 18.805 6.45 A 1.54 1.54 0 0 1 18.552 6.163 Q 18.303 5.801 18.303 5.379 L 19.116 5.379 A 0.932 0.932 0 0 0 19.19 5.704 A 0.827 0.827 0 0 0 19.444 6.027 A 1.072 1.072 0 0 0 19.846 6.22 Q 20 6.259 20.182 6.265 A 2.013 2.013 0 0 0 20.25 6.267 A 1.863 1.863 0 0 0 20.546 6.245 Q 20.707 6.219 20.839 6.162 A 0.941 0.941 0 0 0 20.99 6.08 A 0.689 0.689 0 0 0 21.155 5.929 A 0.554 0.554 0 0 0 21.27 5.581 A 0.698 0.698 0 0 0 21.233 5.35 A 0.581 0.581 0 0 0 21.021 5.069 A 1.05 1.05 0 0 0 20.852 4.971 Q 20.664 4.88 20.369 4.805 A 5.392 5.392 0 0 0 20.156 4.755 A 6.342 6.342 0 0 1 19.795 4.667 Q 19.425 4.565 19.176 4.438 Q 18.877 4.286 18.706 4.086 A 1.017 1.017 0 0 1 18.639 3.999 Q 18.466 3.744 18.466 3.393 A 1.206 1.206 0 0 1 18.865 2.488 A 1.694 1.694 0 0 1 18.96 2.404 A 1.752 1.752 0 0 1 19.743 2.044 A 2.471 2.471 0 0 1 20.224 2 A 2.559 2.559 0 0 1 20.787 2.058 A 1.757 1.757 0 0 1 21.535 2.417 Q 22.039 2.834 22.039 3.485 Z M 58.548 2.087 L 59.735 5.651 L 60.842 2.087 L 61.712 2.087 L 59.801 7.576 Q 59.357 8.763 58.39 8.763 L 58.236 8.75 L 57.933 8.692 L 57.933 8.033 L 58.153 8.051 Q 58.433 8.051 58.629 7.974 A 0.75 0.75 0 0 0 58.797 7.884 A 0.749 0.749 0 0 0 58.957 7.722 Q 59.075 7.563 59.165 7.307 A 2.575 2.575 0 0 0 59.177 7.273 L 59.357 6.79 L 57.661 2.087 L 58.548 2.087 Z M 13.535 2.087 L 14.304 2.087 L 14.331 2.685 Q 14.867 2.01 15.727 2 A 2.234 2.234 0 0 1 15.754 2 A 1.905 1.905 0 0 1 16.388 2.096 Q 17.23 2.392 17.273 3.598 A 3.668 3.668 0 0 1 17.275 3.7 L 17.275 6.842 L 16.462 6.842 L 16.462 3.696 A 1.837 1.837 0 0 0 16.44 3.416 Q 16.389 3.109 16.227 2.936 Q 16.041 2.737 15.687 2.699 A 1.66 1.66 0 0 0 15.508 2.689 A 1.253 1.253 0 0 0 15.094 2.756 A 1.123 1.123 0 0 0 14.814 2.9 A 1.432 1.432 0 0 0 14.348 3.454 L 14.348 6.842 L 13.535 6.842 L 13.535 2.087 Z M 4.948 0.444 L 4.948 1.138 L 2.892 1.138 L 2.892 6.842 L 2.052 6.842 L 2.052 1.138 L 0 1.138 L 0 0.444 L 4.948 0.444 Z M 95.396 0.444 L 95.396 1.138 L 93.34 1.138 L 93.34 6.842 L 92.5 6.842 L 92.5 1.138 L 90.448 1.138 L 90.448 0.444 L 95.396 0.444 Z M 68.937 6.842 L 68.326 5.172 L 65.646 5.172 L 65.043 6.842 L 64.173 6.842 L 66.617 0.444 L 67.355 0.444 L 69.803 6.842 L 68.937 6.842 Z M 12.428 6.842 L 11.575 6.842 A 0.632 0.632 0 0 1 11.54 6.752 Q 11.508 6.654 11.484 6.502 A 3.997 3.997 0 0 1 11.461 6.341 Q 10.894 6.93 10.107 6.93 A 2.033 2.033 0 0 1 9.578 6.865 A 1.529 1.529 0 0 1 8.954 6.532 Q 8.503 6.135 8.503 5.524 Q 8.503 4.781 9.068 4.37 Q 9.633 3.959 10.657 3.959 L 11.448 3.959 L 11.448 3.586 A 1.152 1.152 0 0 0 11.412 3.291 A 0.828 0.828 0 0 0 11.193 2.907 Q 10.977 2.693 10.586 2.66 A 1.748 1.748 0 0 0 10.441 2.654 Q 10.006 2.654 9.712 2.874 Q 9.417 3.094 9.417 3.406 L 8.6 3.406 A 1.041 1.041 0 0 1 8.725 2.917 A 1.409 1.409 0 0 1 8.853 2.718 Q 9.105 2.386 9.538 2.193 A 2.249 2.249 0 0 1 10.314 2.005 A 2.669 2.669 0 0 1 10.49 2 A 2.65 2.65 0 0 1 11.007 2.047 Q 11.314 2.108 11.553 2.248 A 1.439 1.439 0 0 1 11.777 2.41 A 1.396 1.396 0 0 1 12.231 3.236 A 1.998 1.998 0 0 1 12.261 3.542 L 12.261 5.73 Q 12.261 6.165 12.334 6.482 A 1.707 1.707 0 0 0 12.428 6.772 L 12.428 6.842 Z M 44.815 6.842 L 43.963 6.842 A 0.632 0.632 0 0 1 43.927 6.752 Q 43.896 6.654 43.871 6.502 A 3.997 3.997 0 0 1 43.849 6.341 Q 43.282 6.93 42.495 6.93 A 2.033 2.033 0 0 1 41.966 6.865 A 1.529 1.529 0 0 1 41.342 6.532 Q 40.891 6.135 40.891 5.524 Q 40.891 4.781 41.456 4.37 Q 42.021 3.959 43.044 3.959 L 43.835 3.959 L 43.835 3.586 A 1.152 1.152 0 0 0 43.8 3.291 A 0.828 0.828 0 0 0 43.581 2.907 Q 43.364 2.693 42.974 2.66 A 1.748 1.748 0 0 0 42.829 2.654 Q 42.394 2.654 42.1 2.874 Q 41.805 3.094 41.805 3.406 L 40.988 3.406 A 1.041 1.041 0 0 1 41.113 2.917 A 1.409 1.409 0 0 1 41.24 2.718 Q 41.493 2.386 41.926 2.193 A 2.249 2.249 0 0 1 42.702 2.005 A 2.669 2.669 0 0 1 42.877 2 A 2.65 2.65 0 0 1 43.395 2.047 Q 43.702 2.108 43.941 2.248 A 1.439 1.439 0 0 1 44.165 2.41 A 1.396 1.396 0 0 1 44.618 3.236 A 1.998 1.998 0 0 1 44.648 3.542 L 44.648 5.73 Q 44.648 6.165 44.722 6.482 A 1.707 1.707 0 0 0 44.815 6.772 L 44.815 6.842 Z M 126.149 6.842 L 125.297 6.842 A 0.632 0.632 0 0 1 125.261 6.752 Q 125.23 6.654 125.205 6.502 A 3.997 3.997 0 0 1 125.183 6.341 Q 124.616 6.93 123.829 6.93 A 2.033 2.033 0 0 1 123.3 6.865 A 1.529 1.529 0 0 1 122.676 6.532 Q 122.225 6.135 122.225 5.524 Q 122.225 4.781 122.79 4.37 Q 123.354 3.959 124.378 3.959 L 125.169 3.959 L 125.169 3.586 A 1.152 1.152 0 0 0 125.134 3.291 A 0.828 0.828 0 0 0 124.915 2.907 Q 124.698 2.693 124.308 2.66 A 1.748 1.748 0 0 0 124.163 2.654 Q 123.728 2.654 123.434 2.874 Q 123.139 3.094 123.139 3.406 L 122.322 3.406 A 1.041 1.041 0 0 1 122.447 2.917 A 1.409 1.409 0 0 1 122.574 2.718 Q 122.827 2.386 123.26 2.193 A 2.249 2.249 0 0 1 124.036 2.005 A 2.669 2.669 0 0 1 124.211 2 A 2.65 2.65 0 0 1 124.729 2.047 Q 125.036 2.108 125.275 2.248 A 1.439 1.439 0 0 1 125.499 2.41 A 1.396 1.396 0 0 1 125.952 3.236 A 1.998 1.998 0 0 1 125.982 3.542 L 125.982 5.73 Q 125.982 6.165 126.056 6.482 A 1.707 1.707 0 0 0 126.149 6.772 L 126.149 6.842 Z M 25.954 4.597 L 25.954 4.447 A 3.17 3.17 0 0 1 26.03 3.738 A 2.581 2.581 0 0 1 26.224 3.184 A 2.191 2.191 0 0 1 26.672 2.558 A 2.033 2.033 0 0 1 26.98 2.314 Q 27.466 2 28.033 2 A 2.254 2.254 0 0 1 28.646 2.078 A 1.639 1.639 0 0 1 29.474 2.61 Q 29.988 3.221 29.988 4.359 L 29.988 4.698 L 26.767 4.698 A 2.111 2.111 0 0 0 26.838 5.206 A 1.516 1.516 0 0 0 27.178 5.834 A 1.282 1.282 0 0 0 28.112 6.265 A 1.652 1.652 0 0 0 28.178 6.267 A 1.763 1.763 0 0 0 28.506 6.238 Q 28.73 6.195 28.907 6.091 A 1.827 1.827 0 0 0 29.416 5.643 A 2.068 2.068 0 0 0 29.43 5.625 L 29.927 6.012 A 1.926 1.926 0 0 1 28.527 6.903 A 2.749 2.749 0 0 1 28.134 6.93 A 2.394 2.394 0 0 1 27.383 6.817 A 1.974 1.974 0 0 1 26.561 6.295 Q 25.954 5.66 25.954 4.597 Z M 24.354 6.842 L 23.542 6.842 L 23.542 2.716 L 22.79 2.716 L 22.79 2.087 L 23.542 2.087 L 23.542 1.6 Q 23.542 1.012 23.783 0.629 A 1.273 1.273 0 0 1 23.95 0.417 Q 24.359 0 25.106 0 A 2.134 2.134 0 0 1 25.664 0.075 L 25.62 0.734 Q 25.414 0.694 25.181 0.694 A 1.086 1.086 0 0 0 24.933 0.721 Q 24.712 0.773 24.57 0.925 A 0.747 0.747 0 0 0 24.403 1.221 Q 24.368 1.336 24.358 1.475 A 1.57 1.57 0 0 0 24.354 1.586 L 24.354 2.087 L 25.37 2.087 L 25.37 2.716 L 24.354 2.716 L 24.354 6.842 Z M 98.697 4.337 L 97.189 4.337 L 97.189 6.842 L 96.346 6.842 L 96.346 0.444 L 98.706 0.444 A 3.315 3.315 0 0 1 99.37 0.506 Q 99.773 0.589 100.084 0.78 A 1.839 1.839 0 0 1 100.351 0.98 A 1.772 1.772 0 0 1 100.939 2.197 A 2.45 2.45 0 0 1 100.947 2.399 Q 100.947 3.331 100.365 3.834 Q 99.886 4.248 99.066 4.322 A 4.14 4.14 0 0 1 98.697 4.337 Z M 107.473 0.444 L 107.473 4.693 L 108.36 4.693 L 108.36 5.357 L 107.473 5.357 L 107.473 6.842 L 106.655 6.842 L 106.655 5.357 L 103.742 5.357 L 103.742 4.878 L 106.607 0.444 L 107.473 0.444 Z M 118.358 6.842 L 116.587 6.842 L 116.587 0.444 L 118.393 0.444 Q 119.228 0.444 119.87 0.813 Q 120.511 1.182 120.861 1.863 A 3.19 3.19 0 0 1 121.177 2.892 A 4.073 4.073 0 0 1 121.214 3.428 L 121.214 3.836 Q 121.214 4.742 120.865 5.423 A 2.457 2.457 0 0 1 119.867 6.469 Q 119.219 6.833 118.358 6.842 Z M 112.871 2.684 A 1.544 1.544 0 0 0 112.975 2.114 A 2.226 2.226 0 0 0 112.953 1.799 A 1.566 1.566 0 0 0 112.454 0.831 A 1.754 1.754 0 0 0 111.688 0.426 A 2.443 2.443 0 0 0 111.089 0.356 A 2.539 2.539 0 0 0 110.58 0.405 A 1.767 1.767 0 0 0 109.723 0.831 Q 109.204 1.305 109.204 2.114 A 1.808 1.808 0 0 0 109.204 2.151 A 1.499 1.499 0 0 0 109.45 2.962 A 1.626 1.626 0 0 0 109.612 3.169 A 1.726 1.726 0 0 0 110.123 3.546 A 2.119 2.119 0 0 0 110.023 3.592 A 1.738 1.738 0 0 0 109.338 4.179 A 1.629 1.629 0 0 0 109.055 5.115 A 2.272 2.272 0 0 0 109.064 5.329 A 1.63 1.63 0 0 0 109.611 6.436 A 1.895 1.895 0 0 0 110.461 6.864 A 2.797 2.797 0 0 0 111.089 6.93 A 2.796 2.796 0 0 0 111.688 6.869 A 1.925 1.925 0 0 0 112.564 6.438 A 1.578 1.578 0 0 0 113.039 5.712 A 1.989 1.989 0 0 0 113.124 5.115 A 1.581 1.581 0 0 0 112.832 4.179 Q 112.54 3.766 112.039 3.551 Q 112.469 3.34 112.722 2.966 A 1.449 1.449 0 0 0 112.871 2.684 Z M 56.878 0.092 L 56.878 6.842 L 56.065 6.842 L 56.065 0.092 L 56.878 0.092 Z M 8.068 2.061 L 8.068 2.817 A 2.251 2.251 0 0 0 7.826 2.79 A 2.782 2.782 0 0 0 7.668 2.786 Q 6.891 2.786 6.599 3.43 A 1.445 1.445 0 0 0 6.583 3.467 L 6.583 6.842 L 5.77 6.842 L 5.77 2.087 L 6.561 2.087 L 6.574 2.637 Q 6.955 2.031 7.637 2.001 A 1.636 1.636 0 0 1 7.708 2 Q 7.945 2 8.068 2.061 Z M 33.227 2.061 L 33.227 2.817 A 2.251 2.251 0 0 0 32.984 2.79 A 2.782 2.782 0 0 0 32.827 2.786 Q 32.049 2.786 31.758 3.43 A 1.445 1.445 0 0 0 31.742 3.467 L 31.742 6.842 L 30.929 6.842 L 30.929 2.087 L 31.72 2.087 L 31.733 2.637 Q 32.113 2.031 32.796 2.001 A 1.636 1.636 0 0 1 32.867 2 Q 33.104 2 33.227 2.061 Z M 129.555 2.061 L 129.555 2.817 A 2.251 2.251 0 0 0 129.312 2.79 A 2.782 2.782 0 0 0 129.155 2.786 Q 128.377 2.786 128.086 3.43 A 1.445 1.445 0 0 0 128.07 3.467 L 128.07 6.842 L 127.257 6.842 L 127.257 2.087 L 128.048 2.087 L 128.061 2.637 Q 128.441 2.031 129.124 2.001 A 1.636 1.636 0 0 1 129.195 2 Q 129.432 2 129.555 2.061 Z M 118.415 1.138 L 117.431 1.138 L 117.431 6.152 L 118.318 6.152 A 2.519 2.519 0 0 0 118.951 6.077 A 1.747 1.747 0 0 0 119.837 5.546 Q 120.296 5.033 120.367 4.151 A 4.165 4.165 0 0 0 120.379 3.819 L 120.379 3.445 Q 120.379 2.654 120.11 2.119 A 1.864 1.864 0 0 0 119.867 1.751 A 1.687 1.687 0 0 0 118.871 1.182 A 2.499 2.499 0 0 0 118.415 1.138 Z M 54.694 2.087 L 54.694 6.842 L 53.881 6.842 L 53.881 2.087 L 54.694 2.087 Z M 97.189 1.138 L 97.189 3.647 L 98.706 3.647 A 2.313 2.313 0 0 0 99.098 3.616 Q 99.315 3.579 99.487 3.496 A 1.097 1.097 0 0 0 99.743 3.329 A 1.028 1.028 0 0 0 100.06 2.789 Q 100.102 2.621 100.103 2.421 A 1.996 1.996 0 0 0 100.103 2.408 A 1.466 1.466 0 0 0 100.049 2.001 A 1.112 1.112 0 0 0 99.743 1.494 Q 99.382 1.151 98.754 1.138 L 97.189 1.138 Z M 106.559 1.731 L 104.665 4.693 L 106.655 4.693 L 106.655 1.556 L 106.559 1.731 Z M 66.986 1.485 L 65.9 4.478 L 68.076 4.478 L 66.986 1.485 Z M 112.311 5.098 A 1.375 1.375 0 0 0 112.252 4.684 A 1.109 1.109 0 0 0 111.97 4.223 A 1.148 1.148 0 0 0 111.299 3.899 A 1.593 1.593 0 0 0 111.081 3.885 A 1.466 1.466 0 0 0 110.692 3.934 A 1.086 1.086 0 0 0 110.199 4.219 A 1.123 1.123 0 0 0 109.886 4.854 A 1.572 1.572 0 0 0 109.868 5.098 A 1.48 1.48 0 0 0 109.909 5.459 A 1.019 1.019 0 0 0 110.191 5.955 Q 110.497 6.25 111.03 6.266 A 2.053 2.053 0 0 0 111.089 6.267 Q 111.583 6.267 111.893 6.032 A 1.018 1.018 0 0 0 111.986 5.952 A 1.041 1.041 0 0 0 112.285 5.384 A 1.518 1.518 0 0 0 112.311 5.098 Z M 111.089 1.024 A 1.259 1.259 0 0 0 110.737 1.071 A 0.973 0.973 0 0 0 110.314 1.321 Q 110.017 1.617 110.017 2.127 A 1.325 1.325 0 0 0 110.062 2.48 A 0.994 0.994 0 0 0 110.309 2.916 A 0.974 0.974 0 0 0 110.871 3.2 A 1.382 1.382 0 0 0 111.089 3.217 A 1.279 1.279 0 0 0 111.434 3.173 A 0.952 0.952 0 0 0 111.869 2.916 A 1.018 1.018 0 0 0 112.144 2.352 A 1.426 1.426 0 0 0 112.162 2.127 A 1.282 1.282 0 0 0 112.112 1.76 A 1.013 1.013 0 0 0 111.858 1.332 Q 111.555 1.024 111.089 1.024 Z M 11.448 5.511 L 11.448 4.535 L 10.811 4.535 Q 9.316 4.535 9.316 5.41 Q 9.316 5.792 9.571 6.007 A 0.893 0.893 0 0 0 9.985 6.201 A 1.259 1.259 0 0 0 10.226 6.223 A 1.429 1.429 0 0 0 10.951 6.025 A 1.335 1.335 0 0 0 11.247 5.797 A 1.108 1.108 0 0 0 11.448 5.511 Z M 43.835 5.511 L 43.835 4.535 L 43.198 4.535 Q 41.704 4.535 41.704 5.41 Q 41.704 5.792 41.959 6.007 A 0.893 0.893 0 0 0 42.372 6.201 A 1.259 1.259 0 0 0 42.614 6.223 A 1.429 1.429 0 0 0 43.339 6.025 A 1.335 1.335 0 0 0 43.634 5.797 A 1.108 1.108 0 0 0 43.835 5.511 Z M 125.169 5.511 L 125.169 4.535 L 124.532 4.535 Q 123.038 4.535 123.038 5.41 Q 123.038 5.792 123.293 6.007 A 0.893 0.893 0 0 0 123.706 6.201 A 1.259 1.259 0 0 0 123.948 6.223 A 1.429 1.429 0 0 0 124.673 6.025 A 1.335 1.335 0 0 0 124.968 5.797 A 1.108 1.108 0 0 0 125.169 5.511 Z M 26.793 4.03 L 29.175 4.03 L 29.175 3.968 Q 29.149 3.509 28.979 3.204 A 1.13 1.13 0 0 0 28.841 3.008 A 0.983 0.983 0 0 0 28.187 2.676 A 1.39 1.39 0 0 0 28.033 2.667 A 1.106 1.106 0 0 0 27.51 2.79 A 1.14 1.14 0 0 0 27.207 3.026 A 1.417 1.417 0 0 0 26.93 3.472 Q 26.856 3.656 26.816 3.878 A 2.741 2.741 0 0 0 26.793 4.03 Z M 53.815 0.826 Q 53.815 0.628 53.936 0.492 Q 54.048 0.366 54.26 0.357 A 0.783 0.783 0 0 1 54.294 0.356 Q 54.532 0.356 54.655 0.492 A 0.474 0.474 0 0 1 54.777 0.796 A 0.614 0.614 0 0 1 54.778 0.826 A 0.523 0.523 0 0 1 54.753 0.992 A 0.442 0.442 0 0 1 54.655 1.156 Q 54.542 1.276 54.334 1.287 A 0.803 0.803 0 0 1 54.294 1.288 Q 54.122 1.288 54.011 1.218 A 0.362 0.362 0 0 1 53.936 1.156 A 0.456 0.456 0 0 1 53.818 0.88 A 0.605 0.605 0 0 1 53.815 0.826 Z" vector-effect="non-scaling-stroke"/></g>
</svgversion="1.0" encoding="UTF-8"?>
<svg width="48px" height="48px" viewBox="0 0 48 48" version="1.1" xmlns="http://www.w3.org/2000/svg" xmlns:xlink="http://www.w3.org/1999/xlink">
    <title>Icon-Resource/Migration-And-Transfer/Res_AWS-Transfer-Family_AWS-FTP_48_Dark</title>
    <g id="Icon-Resource/Migration-And-Transfer/Res_AWS-Transfer-Family_AWS-FTP_48" stroke="none" stroke-width="1" fill="none" fill-rule="evenodd">
        <path transform="translate(12.000000, 8.000000), scale(.65)" d="M30.2783,39.832 C30.2783,39.35 30.1903,38.984 30.0133,38.734 C29.8373,38.485 29.5813,38.36 29.2463,38.36 L28.4073,38.36 L28.4073,41.304 L29.2463,41.304 C29.5813,41.304 29.8373,41.179 30.0133,40.929 C30.1903,40.68 30.2783,40.313 30.2783,39.832 L30.2783,39.832 Z M31.3563,37.773 C31.8253,38.276 32.0593,38.963 32.0593,39.832 C32.0593,40.701 31.8253,41.387 31.3563,41.891 C30.8863,42.394 30.2573,42.645 29.4653,42.645 L28.4073,42.645 L28.4073,45.963 L26.6383,45.963 L26.6383,37.018 L29.4653,37.018 C30.2573,37.018 30.8863,37.269 31.3563,37.773 L31.3563,37.773 Z M19.5253,38.45 L21.6683,38.45 L21.6683,45.963 L23.4753,45.963 L23.4753,38.45 L25.6183,38.45 L25.6183,37.018 L19.5253,37.018 L19.5253,38.45 Z M14.1183,45.963 L15.9243,45.963 L15.9243,42.194 L18.1583,42.194 L18.1583,40.812 L15.9243,40.812 L15.9243,38.399 L18.7773,38.399 L18.7773,37.018 L14.1183,37.018 L14.1183,45.963 Z M45.5823,10.898 L36.9763,2.293 C36.5863,1.902 35.9533,1.902 35.5623,2.293 L26.9573,10.898 C26.6713,11.185 26.5853,11.614 26.7403,11.988 C26.8943,12.362 27.2593,12.605 27.6643,12.605 L32.0433,12.605 L32.0433,16.983 L32.0433,21.286 L32.0433,24.513 C32.0433,25.065 32.4903,25.513 33.0433,25.513 L36.0073,25.513 L29.8153,31.704 L23.6253,25.513 L26.5893,25.513 C27.1413,25.513 27.5893,25.065 27.5893,24.513 L27.5893,16.983 L25.5893,16.983 L25.5893,23.513 L21.2113,23.513 C20.8063,23.513 20.4413,23.756 20.2873,24.13 C20.1323,24.504 20.2173,24.934 20.5043,25.22 L29.1083,33.825 C29.2963,34.013 29.5493,34.118 29.8153,34.118 C30.0813,34.118 30.3353,34.013 30.5223,33.825 L39.1283,25.22 C39.4143,24.934 39.5003,24.504 39.3443,24.13 C39.1903,23.756 38.8253,23.513 38.4213,23.513 L34.0433,23.513 L34.0433,21.286 L34.0433,16.983 L34.0433,11.605 C34.0433,11.053 33.5953,10.605 33.0433,10.605 L30.0783,10.605 L36.2693,4.414 L42.4613,10.605 L39.4963,10.605 C38.9433,10.605 38.4963,11.053 38.4963,11.605 L38.4963,19.21 L36.2693,19.21 L36.2693,21.21 L41.7233,21.21 L41.7233,43.95 L33.3473,43.95 L33.3473,45.95 L42.7233,45.95 C43.2763,45.95 43.7233,45.503 43.7233,44.95 L43.7233,20.21 C43.7233,19.657 43.2763,19.21 42.7233,19.21 L40.4963,19.21 L40.4963,12.605 L44.8753,12.605 C45.2793,12.605 45.6443,12.362 45.7993,11.988 C45.9543,11.614 45.8683,11.185 45.5823,10.898 L45.5823,10.898 Z M9.0773,43.95 L11.5303,43.95 L11.5303,45.95 L6.1513,45.95 C4.4143,45.95 3.0003,44.536 3.0003,42.799 L3.0003,12.681 C3.0003,12.128 3.4473,11.681 4.0003,11.681 L15.9143,11.681 C16.2233,11.681 16.5163,11.824 16.7063,12.069 L18.8963,14.908 L23.3613,14.908 L23.3613,16.908 L18.4053,16.908 C18.0953,16.908 17.8023,16.765 17.6133,16.52 L15.4233,13.681 L5.0003,13.681 L5.0003,42.799 C5.0003,43.434 5.5163,43.95 6.1513,43.95 C6.7863,43.95 7.3023,43.434 7.3023,42.799 L7.3023,20.21 C7.3023,19.657 7.7503,19.21 8.3023,19.21 L23.3613,19.21 L23.3613,21.21 L9.3023,21.21 L9.3023,42.799 C9.3023,43.206 9.2183,43.593 9.0773,43.95 L9.0773,43.95 Z" id="AWS-Transfer-Family-AWS-FTP_Resource-Icon_light-bg" fill="#000000"></path>
    </g><g transform="translate(25, 83)" id="svgGroup" stroke-linecap="round" fill-rule="evenodd" font-size="9pt" stroke="#000" stroke-width="0.25mm" fill="#000" style="stroke:#000;stroke-width:0.25mm;fill:#000"><path d="M 23.12 0.088 L 24.13 4.469 L 24.253 5.313 L 24.434 4.553 L 25.699 0.088 L 26.411 0.088 L 27.646 4.553 L 27.822 5.326 L 27.958 4.465 L 28.951 0.088 L 29.799 0.088 L 28.248 6.486 L 27.479 6.486 L 26.161 1.824 L 26.06 1.336 L 25.958 1.824 L 24.592 6.486 L 23.823 6.486 L 22.276 0.088 L 23.12 0.088 Z M 34.98 1.938 L 34.132 1.938 A 1.466 1.466 0 0 0 34.083 1.546 A 1.066 1.066 0 0 0 33.763 1.026 A 1.211 1.211 0 0 0 33.294 0.77 Q 33.042 0.694 32.722 0.694 A 2.286 2.286 0 0 0 32.342 0.724 Q 32.14 0.758 31.977 0.831 A 1.101 1.101 0 0 0 31.748 0.969 A 0.892 0.892 0 0 0 31.403 1.624 A 1.267 1.267 0 0 0 31.399 1.732 A 0.806 0.806 0 0 0 31.667 2.337 A 1.134 1.134 0 0 0 31.731 2.393 A 1.562 1.562 0 0 0 31.969 2.549 Q 32.299 2.73 32.86 2.887 A 8.228 8.228 0 0 1 33.325 3.032 Q 33.56 3.113 33.754 3.2 A 3.297 3.297 0 0 1 34.108 3.382 A 2.342 2.342 0 0 1 34.447 3.626 Q 34.637 3.792 34.759 3.985 A 1.45 1.45 0 0 1 34.776 4.012 A 1.498 1.498 0 0 1 34.972 4.568 A 1.948 1.948 0 0 1 34.994 4.86 A 1.606 1.606 0 0 1 34.871 5.497 Q 34.726 5.838 34.408 6.09 A 1.886 1.886 0 0 1 34.387 6.106 Q 33.781 6.574 32.766 6.574 A 3.023 3.023 0 0 1 31.625 6.36 A 2.917 2.917 0 0 1 31.535 6.322 A 2.383 2.383 0 0 1 31.057 6.044 A 1.874 1.874 0 0 1 30.654 5.629 A 1.689 1.689 0 0 1 30.344 4.632 L 31.192 4.632 A 1.261 1.261 0 0 0 31.262 5.059 A 1.074 1.074 0 0 0 31.621 5.548 Q 32.005 5.85 32.622 5.881 A 2.87 2.87 0 0 0 32.766 5.884 A 2.628 2.628 0 0 0 33.153 5.858 Q 33.349 5.828 33.508 5.767 A 1.129 1.129 0 0 0 33.79 5.612 Q 34.146 5.339 34.146 4.869 A 1.074 1.074 0 0 0 34.103 4.559 A 0.816 0.816 0 0 0 33.816 4.142 Q 33.486 3.885 32.621 3.634 Q 31.535 3.322 31.041 2.868 Q 30.546 2.413 30.546 1.745 Q 30.546 0.989 31.151 0.494 A 2.121 2.121 0 0 1 32.041 0.071 A 3.087 3.087 0 0 1 32.722 0 A 2.913 2.913 0 0 1 33.382 0.072 A 2.372 2.372 0 0 1 33.897 0.255 A 2.051 2.051 0 0 1 34.428 0.626 A 1.834 1.834 0 0 1 34.697 0.958 A 1.798 1.798 0 0 1 34.98 1.938 Z M 3.74 6.486 L 2.351 3.898 L 0.848 3.898 L 0.848 6.486 L 0 6.486 L 0 0.088 L 2.118 0.088 A 3.809 3.809 0 0 1 2.76 0.138 Q 3.102 0.197 3.376 0.324 A 1.789 1.789 0 0 1 3.781 0.58 A 1.588 1.588 0 0 1 4.307 1.469 A 2.453 2.453 0 0 1 4.364 2.013 A 1.864 1.864 0 0 1 4.273 2.604 A 1.64 1.64 0 0 1 4.041 3.054 A 1.849 1.849 0 0 1 3.382 3.611 A 2.342 2.342 0 0 1 3.142 3.718 L 4.645 6.434 L 4.645 6.486 L 3.74 6.486 Z M 13.724 3.129 L 12.907 3.129 Q 12.907 2.795 12.623 2.553 Q 12.34 2.312 11.909 2.312 Q 11.465 2.312 11.215 2.505 A 0.653 0.653 0 0 0 11.04 2.704 Q 10.967 2.835 10.964 3 A 0.771 0.771 0 0 0 10.964 3.01 A 0.588 0.588 0 0 0 10.994 3.203 A 0.48 0.48 0 0 0 11.197 3.454 A 1.093 1.093 0 0 0 11.348 3.533 Q 11.512 3.605 11.767 3.673 A 6.581 6.581 0 0 0 12.039 3.74 A 6.318 6.318 0 0 1 12.446 3.845 Q 12.783 3.944 13.025 4.065 A 1.901 1.901 0 0 1 13.281 4.218 Q 13.418 4.315 13.516 4.429 A 1.06 1.06 0 0 1 13.586 4.52 A 1.024 1.024 0 0 1 13.748 4.927 A 1.388 1.388 0 0 1 13.768 5.168 Q 13.768 5.805 13.258 6.19 Q 12.776 6.554 12.022 6.573 A 3.337 3.337 0 0 1 11.936 6.574 A 2.746 2.746 0 0 1 11.401 6.525 A 2.124 2.124 0 0 1 10.925 6.372 A 1.771 1.771 0 0 1 10.491 6.094 A 1.54 1.54 0 0 1 10.237 5.807 Q 9.989 5.445 9.989 5.023 L 10.802 5.023 A 0.932 0.932 0 0 0 10.875 5.348 A 0.827 0.827 0 0 0 11.129 5.671 A 1.072 1.072 0 0 0 11.531 5.864 Q 11.686 5.903 11.867 5.91 A 2.013 2.013 0 0 0 11.936 5.911 A 1.863 1.863 0 0 0 12.231 5.889 Q 12.393 5.863 12.524 5.806 A 0.941 0.941 0 0 0 12.676 5.724 A 0.689 0.689 0 0 0 12.841 5.574 A 0.554 0.554 0 0 0 12.955 5.225 A 0.698 0.698 0 0 0 12.919 4.994 A 0.581 0.581 0 0 0 12.707 4.713 A 1.05 1.05 0 0 0 12.538 4.615 Q 12.349 4.524 12.054 4.449 A 5.392 5.392 0 0 0 11.841 4.399 A 6.342 6.342 0 0 1 11.48 4.311 Q 11.11 4.209 10.861 4.083 Q 10.562 3.93 10.392 3.731 A 1.017 1.017 0 0 1 10.325 3.643 Q 10.151 3.388 10.151 3.037 A 1.206 1.206 0 0 1 10.55 2.132 A 1.694 1.694 0 0 1 10.646 2.048 A 1.752 1.752 0 0 1 11.429 1.688 A 2.471 2.471 0 0 1 11.909 1.644 A 2.559 2.559 0 0 1 12.473 1.702 A 1.757 1.757 0 0 1 13.221 2.061 Q 13.724 2.479 13.724 3.129 Z M 21.327 6.486 L 20.716 4.816 L 18.035 4.816 L 17.433 6.486 L 16.563 6.486 L 19.006 0.088 L 19.745 0.088 L 22.192 6.486 L 21.327 6.486 Z M 5.212 4.241 L 5.212 4.091 A 3.17 3.17 0 0 1 5.288 3.382 A 2.581 2.581 0 0 1 5.482 2.828 A 2.191 2.191 0 0 1 5.93 2.202 A 2.033 2.033 0 0 1 6.238 1.958 Q 6.724 1.644 7.291 1.644 A 2.254 2.254 0 0 1 7.904 1.723 A 1.639 1.639 0 0 1 8.732 2.254 Q 9.246 2.865 9.246 4.003 L 9.246 4.342 L 6.025 4.342 A 2.111 2.111 0 0 0 6.096 4.85 A 1.516 1.516 0 0 0 6.436 5.478 A 1.282 1.282 0 0 0 7.37 5.909 A 1.652 1.652 0 0 0 7.436 5.911 A 1.763 1.763 0 0 0 7.764 5.882 Q 7.988 5.839 8.165 5.735 A 1.827 1.827 0 0 0 8.674 5.287 A 2.068 2.068 0 0 0 8.688 5.269 L 9.185 5.656 A 1.926 1.926 0 0 1 7.785 6.547 A 2.749 2.749 0 0 1 7.392 6.574 A 2.394 2.394 0 0 1 6.64 6.461 A 1.974 1.974 0 0 1 5.818 5.939 Q 5.212 5.304 5.212 4.241 Z M 0.848 0.782 L 0.848 3.208 L 2.145 3.208 Q 2.685 3.208 3.035 2.968 A 1.174 1.174 0 0 0 3.144 2.883 A 1.069 1.069 0 0 0 3.51 2.146 A 1.486 1.486 0 0 0 3.516 2.013 Q 3.516 1.47 3.22 1.159 A 1 1 0 0 0 3.162 1.103 Q 2.808 0.787 2.14 0.782 L 0.848 0.782 Z M 19.375 1.129 L 18.29 4.122 L 20.465 4.122 L 19.375 1.129 Z M 6.051 3.674 L 8.433 3.674 L 8.433 3.612 Q 8.407 3.153 8.236 2.848 A 1.13 1.13 0 0 0 8.099 2.652 A 0.983 0.983 0 0 0 7.445 2.32 A 1.39 1.39 0 0 0 7.291 2.312 A 1.106 1.106 0 0 0 6.768 2.435 A 1.14 1.14 0 0 0 6.464 2.67 A 1.417 1.417 0 0 0 6.188 3.116 Q 6.114 3.3 6.074 3.522 A 2.741 2.741 0 0 0 6.051 3.674 Z" vector-effect="non-scaling-stroke"/></g><g transform="translate(25, 93)" id="svgGroup" stroke-linecap="round" fill-rule="evenodd" font-size="9pt" stroke="#000" stroke-width="0.25mm" fill="#000" style="stroke:#000;stroke-width:0.25mm;fill:#000"><path d="M 70.73 0.444 L 71.741 4.825 L 71.864 5.669 L 72.044 4.909 L 73.31 0.444 L 74.021 0.444 L 75.256 4.909 L 75.432 5.682 L 75.568 4.821 L 76.562 0.444 L 77.41 0.444 L 75.858 6.842 L 75.089 6.842 L 73.771 2.18 L 73.67 1.692 L 73.569 2.18 L 72.202 6.842 L 71.433 6.842 L 69.886 0.444 L 70.73 0.444 Z M 45.918 2.087 L 46.688 2.087 L 46.709 2.615 Q 47.232 2 48.12 2 A 2.009 2.009 0 0 1 48.631 2.06 A 1.244 1.244 0 0 1 49.478 2.764 A 1.801 1.801 0 0 1 50.095 2.21 A 1.65 1.65 0 0 1 50.625 2.029 A 2.209 2.209 0 0 1 50.994 2 A 2.119 2.119 0 0 1 51.638 2.089 Q 52.565 2.385 52.585 3.656 L 52.585 6.842 L 51.772 6.842 L 51.772 3.705 A 1.781 1.781 0 0 0 51.751 3.425 Q 51.728 3.277 51.677 3.159 A 0.758 0.758 0 0 0 51.539 2.942 A 0.68 0.68 0 0 0 51.286 2.774 Q 51.075 2.69 50.758 2.689 A 1.245 1.245 0 0 0 50.392 2.741 A 1.008 1.008 0 0 0 50.005 2.96 A 1.042 1.042 0 0 0 49.691 3.496 A 1.41 1.41 0 0 0 49.658 3.687 L 49.658 6.842 L 48.841 6.842 L 48.841 3.727 A 1.532 1.532 0 0 0 48.792 3.322 Q 48.666 2.86 48.208 2.735 A 1.457 1.457 0 0 0 47.826 2.689 Q 47.052 2.689 46.751 3.327 A 1.459 1.459 0 0 0 46.731 3.371 L 46.731 6.842 L 45.918 6.842 L 45.918 2.087 Z M 82.591 2.294 L 81.743 2.294 A 1.466 1.466 0 0 0 81.693 1.901 A 1.066 1.066 0 0 0 81.374 1.382 A 1.211 1.211 0 0 0 80.904 1.126 Q 80.652 1.05 80.332 1.05 A 2.286 2.286 0 0 0 79.952 1.08 Q 79.75 1.114 79.588 1.187 A 1.101 1.101 0 0 0 79.359 1.325 A 0.892 0.892 0 0 0 79.014 1.98 A 1.267 1.267 0 0 0 79.009 2.087 A 0.806 0.806 0 0 0 79.277 2.693 A 1.134 1.134 0 0 0 79.341 2.749 A 1.562 1.562 0 0 0 79.579 2.905 Q 79.91 3.086 80.47 3.243 A 8.228 8.228 0 0 1 80.935 3.388 Q 81.17 3.469 81.365 3.556 A 3.297 3.297 0 0 1 81.719 3.738 A 2.342 2.342 0 0 1 82.057 3.982 Q 82.247 4.148 82.369 4.341 A 1.45 1.45 0 0 1 82.386 4.368 A 1.498 1.498 0 0 1 82.583 4.924 A 1.948 1.948 0 0 1 82.604 5.216 A 1.606 1.606 0 0 1 82.482 5.853 Q 82.336 6.193 82.018 6.446 A 1.886 1.886 0 0 1 81.998 6.462 Q 81.391 6.93 80.376 6.93 A 3.023 3.023 0 0 1 79.235 6.715 A 2.917 2.917 0 0 1 79.146 6.677 A 2.383 2.383 0 0 1 78.667 6.4 A 1.874 1.874 0 0 1 78.264 5.985 A 1.689 1.689 0 0 1 77.955 4.988 L 78.803 4.988 A 1.261 1.261 0 0 0 78.872 5.415 A 1.074 1.074 0 0 0 79.231 5.904 Q 79.616 6.206 80.232 6.237 A 2.87 2.87 0 0 0 80.376 6.24 A 2.628 2.628 0 0 0 80.763 6.214 Q 80.959 6.184 81.118 6.123 A 1.129 1.129 0 0 0 81.4 5.968 Q 81.756 5.695 81.756 5.225 A 1.074 1.074 0 0 0 81.713 4.915 A 0.816 0.816 0 0 0 81.426 4.498 Q 81.097 4.241 80.231 3.99 Q 79.146 3.678 78.651 3.223 Q 78.157 2.769 78.157 2.101 Q 78.157 1.345 78.761 0.85 A 2.121 2.121 0 0 1 79.651 0.427 A 3.087 3.087 0 0 1 80.332 0.356 A 2.913 2.913 0 0 1 80.992 0.428 A 2.372 2.372 0 0 1 81.508 0.611 A 2.051 2.051 0 0 1 82.039 0.982 A 1.834 1.834 0 0 1 82.307 1.314 A 1.798 1.798 0 0 1 82.591 2.294 Z M 133.286 6.842 L 131.629 4.641 L 131.12 5.172 L 131.12 6.842 L 130.307 6.842 L 130.307 0.092 L 131.12 0.092 L 131.12 4.175 L 131.555 3.652 L 133.036 2.087 L 134.024 2.087 L 132.174 4.074 L 134.24 6.842 L 133.286 6.842 Z M 39.858 3.327 L 39.858 4.017 L 37.173 4.017 L 37.173 6.842 L 36.33 6.842 L 36.33 0.444 L 40.293 0.444 L 40.293 1.138 L 37.173 1.138 L 37.173 3.327 L 39.858 3.327 Z M 89.442 3.327 L 89.442 4.017 L 86.757 4.017 L 86.757 6.842 L 85.913 6.842 L 85.913 0.444 L 89.877 0.444 L 89.877 1.138 L 86.757 1.138 L 86.757 3.327 L 89.442 3.327 Z M 22.039 3.485 L 21.221 3.485 Q 21.221 3.151 20.938 2.909 Q 20.654 2.667 20.224 2.667 Q 19.78 2.667 19.529 2.861 A 0.653 0.653 0 0 0 19.354 3.059 Q 19.281 3.191 19.279 3.356 A 0.771 0.771 0 0 0 19.279 3.366 A 0.588 0.588 0 0 0 19.309 3.559 A 0.48 0.48 0 0 0 19.512 3.81 A 1.093 1.093 0 0 0 19.662 3.889 Q 19.826 3.96 20.082 4.029 A 6.581 6.581 0 0 0 20.353 4.096 A 6.318 6.318 0 0 1 20.761 4.2 Q 21.098 4.3 21.34 4.421 A 1.901 1.901 0 0 1 21.596 4.573 Q 21.733 4.671 21.83 4.785 A 1.06 1.06 0 0 1 21.9 4.876 A 1.024 1.024 0 0 1 22.062 5.283 A 1.388 1.388 0 0 1 22.083 5.524 Q 22.083 6.161 21.573 6.546 Q 21.09 6.91 20.336 6.929 A 3.337 3.337 0 0 1 20.25 6.93 A 2.746 2.746 0 0 1 19.716 6.88 A 2.124 2.124 0 0 1 19.239 6.728 A 1.771 1.771 0 0 1 18.805 6.45 A 1.54 1.54 0 0 1 18.552 6.163 Q 18.303 5.801 18.303 5.379 L 19.116 5.379 A 0.932 0.932 0 0 0 19.19 5.704 A 0.827 0.827 0 0 0 19.444 6.027 A 1.072 1.072 0 0 0 19.846 6.22 Q 20 6.259 20.182 6.265 A 2.013 2.013 0 0 0 20.25 6.267 A 1.863 1.863 0 0 0 20.546 6.245 Q 20.707 6.219 20.839 6.162 A 0.941 0.941 0 0 0 20.99 6.08 A 0.689 0.689 0 0 0 21.155 5.929 A 0.554 0.554 0 0 0 21.27 5.581 A 0.698 0.698 0 0 0 21.233 5.35 A 0.581 0.581 0 0 0 21.021 5.069 A 1.05 1.05 0 0 0 20.852 4.971 Q 20.664 4.88 20.369 4.805 A 5.392 5.392 0 0 0 20.156 4.755 A 6.342 6.342 0 0 1 19.795 4.667 Q 19.425 4.565 19.176 4.438 Q 18.877 4.286 18.706 4.086 A 1.017 1.017 0 0 1 18.639 3.999 Q 18.466 3.744 18.466 3.393 A 1.206 1.206 0 0 1 18.865 2.488 A 1.694 1.694 0 0 1 18.96 2.404 A 1.752 1.752 0 0 1 19.743 2.044 A 2.471 2.471 0 0 1 20.224 2 A 2.559 2.559 0 0 1 20.787 2.058 A 1.757 1.757 0 0 1 21.535 2.417 Q 22.039 2.834 22.039 3.485 Z M 58.548 2.087 L 59.735 5.651 L 60.842 2.087 L 61.712 2.087 L 59.801 7.576 Q 59.357 8.763 58.39 8.763 L 58.236 8.75 L 57.933 8.692 L 57.933 8.033 L 58.153 8.051 Q 58.433 8.051 58.629 7.974 A 0.75 0.75 0 0 0 58.797 7.884 A 0.749 0.749 0 0 0 58.957 7.722 Q 59.075 7.563 59.165 7.307 A 2.575 2.575 0 0 0 59.177 7.273 L 59.357 6.79 L 57.661 2.087 L 58.548 2.087 Z M 13.535 2.087 L 14.304 2.087 L 14.331 2.685 Q 14.867 2.01 15.727 2 A 2.234 2.234 0 0 1 15.754 2 A 1.905 1.905 0 0 1 16.388 2.096 Q 17.23 2.392 17.273 3.598 A 3.668 3.668 0 0 1 17.275 3.7 L 17.275 6.842 L 16.462 6.842 L 16.462 3.696 A 1.837 1.837 0 0 0 16.44 3.416 Q 16.389 3.109 16.227 2.936 Q 16.041 2.737 15.687 2.699 A 1.66 1.66 0 0 0 15.508 2.689 A 1.253 1.253 0 0 0 15.094 2.756 A 1.123 1.123 0 0 0 14.814 2.9 A 1.432 1.432 0 0 0 14.348 3.454 L 14.348 6.842 L 13.535 6.842 L 13.535 2.087 Z M 4.948 0.444 L 4.948 1.138 L 2.892 1.138 L 2.892 6.842 L 2.052 6.842 L 2.052 1.138 L 0 1.138 L 0 0.444 L 4.948 0.444 Z M 95.396 0.444 L 95.396 1.138 L 93.34 1.138 L 93.34 6.842 L 92.5 6.842 L 92.5 1.138 L 90.448 1.138 L 90.448 0.444 L 95.396 0.444 Z M 68.937 6.842 L 68.326 5.172 L 65.646 5.172 L 65.043 6.842 L 64.173 6.842 L 66.617 0.444 L 67.355 0.444 L 69.803 6.842 L 68.937 6.842 Z M 12.428 6.842 L 11.575 6.842 A 0.632 0.632 0 0 1 11.54 6.752 Q 11.508 6.654 11.484 6.502 A 3.997 3.997 0 0 1 11.461 6.341 Q 10.894 6.93 10.107 6.93 A 2.033 2.033 0 0 1 9.578 6.865 A 1.529 1.529 0 0 1 8.954 6.532 Q 8.503 6.135 8.503 5.524 Q 8.503 4.781 9.068 4.37 Q 9.633 3.959 10.657 3.959 L 11.448 3.959 L 11.448 3.586 A 1.152 1.152 0 0 0 11.412 3.291 A 0.828 0.828 0 0 0 11.193 2.907 Q 10.977 2.693 10.586 2.66 A 1.748 1.748 0 0 0 10.441 2.654 Q 10.006 2.654 9.712 2.874 Q 9.417 3.094 9.417 3.406 L 8.6 3.406 A 1.041 1.041 0 0 1 8.725 2.917 A 1.409 1.409 0 0 1 8.853 2.718 Q 9.105 2.386 9.538 2.193 A 2.249 2.249 0 0 1 10.314 2.005 A 2.669 2.669 0 0 1 10.49 2 A 2.65 2.65 0 0 1 11.007 2.047 Q 11.314 2.108 11.553 2.248 A 1.439 1.439 0 0 1 11.777 2.41 A 1.396 1.396 0 0 1 12.231 3.236 A 1.998 1.998 0 0 1 12.261 3.542 L 12.261 5.73 Q 12.261 6.165 12.334 6.482 A 1.707 1.707 0 0 0 12.428 6.772 L 12.428 6.842 Z M 44.815 6.842 L 43.963 6.842 A 0.632 0.632 0 0 1 43.927 6.752 Q 43.896 6.654 43.871 6.502 A 3.997 3.997 0 0 1 43.849 6.341 Q 43.282 6.93 42.495 6.93 A 2.033 2.033 0 0 1 41.966 6.865 A 1.529 1.529 0 0 1 41.342 6.532 Q 40.891 6.135 40.891 5.524 Q 40.891 4.781 41.456 4.37 Q 42.021 3.959 43.044 3.959 L 43.835 3.959 L 43.835 3.586 A 1.152 1.152 0 0 0 43.8 3.291 A 0.828 0.828 0 0 0 43.581 2.907 Q 43.364 2.693 42.974 2.66 A 1.748 1.748 0 0 0 42.829 2.654 Q 42.394 2.654 42.1 2.874 Q 41.805 3.094 41.805 3.406 L 40.988 3.406 A 1.041 1.041 0 0 1 41.113 2.917 A 1.409 1.409 0 0 1 41.24 2.718 Q 41.493 2.386 41.926 2.193 A 2.249 2.249 0 0 1 42.702 2.005 A 2.669 2.669 0 0 1 42.877 2 A 2.65 2.65 0 0 1 43.395 2.047 Q 43.702 2.108 43.941 2.248 A 1.439 1.439 0 0 1 44.165 2.41 A 1.396 1.396 0 0 1 44.618 3.236 A 1.998 1.998 0 0 1 44.648 3.542 L 44.648 5.73 Q 44.648 6.165 44.722 6.482 A 1.707 1.707 0 0 0 44.815 6.772 L 44.815 6.842 Z M 126.149 6.842 L 125.297 6.842 A 0.632 0.632 0 0 1 125.261 6.752 Q 125.23 6.654 125.205 6.502 A 3.997 3.997 0 0 1 125.183 6.341 Q 124.616 6.93 123.829 6.93 A 2.033 2.033 0 0 1 123.3 6.865 A 1.529 1.529 0 0 1 122.676 6.532 Q 122.225 6.135 122.225 5.524 Q 122.225 4.781 122.79 4.37 Q 123.354 3.959 124.378 3.959 L 125.169 3.959 L 125.169 3.586 A 1.152 1.152 0 0 0 125.134 3.291 A 0.828 0.828 0 0 0 124.915 2.907 Q 124.698 2.693 124.308 2.66 A 1.748 1.748 0 0 0 124.163 2.654 Q 123.728 2.654 123.434 2.874 Q 123.139 3.094 123.139 3.406 L 122.322 3.406 A 1.041 1.041 0 0 1 122.447 2.917 A 1.409 1.409 0 0 1 122.574 2.718 Q 122.827 2.386 123.26 2.193 A 2.249 2.249 0 0 1 124.036 2.005 A 2.669 2.669 0 0 1 124.211 2 A 2.65 2.65 0 0 1 124.729 2.047 Q 125.036 2.108 125.275 2.248 A 1.439 1.439 0 0 1 125.499 2.41 A 1.396 1.396 0 0 1 125.952 3.236 A 1.998 1.998 0 0 1 125.982 3.542 L 125.982 5.73 Q 125.982 6.165 126.056 6.482 A 1.707 1.707 0 0 0 126.149 6.772 L 126.149 6.842 Z M 25.954 4.597 L 25.954 4.447 A 3.17 3.17 0 0 1 26.03 3.738 A 2.581 2.581 0 0 1 26.224 3.184 A 2.191 2.191 0 0 1 26.672 2.558 A 2.033 2.033 0 0 1 26.98 2.314 Q 27.466 2 28.033 2 A 2.254 2.254 0 0 1 28.646 2.078 A 1.639 1.639 0 0 1 29.474 2.61 Q 29.988 3.221 29.988 4.359 L 29.988 4.698 L 26.767 4.698 A 2.111 2.111 0 0 0 26.838 5.206 A 1.516 1.516 0 0 0 27.178 5.834 A 1.282 1.282 0 0 0 28.112 6.265 A 1.652 1.652 0 0 0 28.178 6.267 A 1.763 1.763 0 0 0 28.506 6.238 Q 28.73 6.195 28.907 6.091 A 1.827 1.827 0 0 0 29.416 5.643 A 2.068 2.068 0 0 0 29.43 5.625 L 29.927 6.012 A 1.926 1.926 0 0 1 28.527 6.903 A 2.749 2.749 0 0 1 28.134 6.93 A 2.394 2.394 0 0 1 27.383 6.817 A 1.974 1.974 0 0 1 26.561 6.295 Q 25.954 5.66 25.954 4.597 Z M 24.354 6.842 L 23.542 6.842 L 23.542 2.716 L 22.79 2.716 L 22.79 2.087 L 23.542 2.087 L 23.542 1.6 Q 23.542 1.012 23.783 0.629 A 1.273 1.273 0 0 1 23.95 0.417 Q 24.359 0 25.106 0 A 2.134 2.134 0 0 1 25.664 0.075 L 25.62 0.734 Q 25.414 0.694 25.181 0.694 A 1.086 1.086 0 0 0 24.933 0.721 Q 24.712 0.773 24.57 0.925 A 0.747 0.747 0 0 0 24.403 1.221 Q 24.368 1.336 24.358 1.475 A 1.57 1.57 0 0 0 24.354 1.586 L 24.354 2.087 L 25.37 2.087 L 25.37 2.716 L 24.354 2.716 L 24.354 6.842 Z M 98.697 4.337 L 97.189 4.337 L 97.189 6.842 L 96.346 6.842 L 96.346 0.444 L 98.706 0.444 A 3.315 3.315 0 0 1 99.37 0.506 Q 99.773 0.589 100.084 0.78 A 1.839 1.839 0 0 1 100.351 0.98 A 1.772 1.772 0 0 1 100.939 2.197 A 2.45 2.45 0 0 1 100.947 2.399 Q 100.947 3.331 100.365 3.834 Q 99.886 4.248 99.066 4.322 A 4.14 4.14 0 0 1 98.697 4.337 Z M 107.473 0.444 L 107.473 4.693 L 108.36 4.693 L 108.36 5.357 L 107.473 5.357 L 107.473 6.842 L 106.655 6.842 L 106.655 5.357 L 103.742 5.357 L 103.742 4.878 L 106.607 0.444 L 107.473 0.444 Z M 118.358 6.842 L 116.587 6.842 L 116.587 0.444 L 118.393 0.444 Q 119.228 0.444 119.87 0.813 Q 120.511 1.182 120.861 1.863 A 3.19 3.19 0 0 1 121.177 2.892 A 4.073 4.073 0 0 1 121.214 3.428 L 121.214 3.836 Q 121.214 4.742 120.865 5.423 A 2.457 2.457 0 0 1 119.867 6.469 Q 119.219 6.833 118.358 6.842 Z M 112.871 2.684 A 1.544 1.544 0 0 0 112.975 2.114 A 2.226 2.226 0 0 0 112.953 1.799 A 1.566 1.566 0 0 0 112.454 0.831 A 1.754 1.754 0 0 0 111.688 0.426 A 2.443 2.443 0 0 0 111.089 0.356 A 2.539 2.539 0 0 0 110.58 0.405 A 1.767 1.767 0 0 0 109.723 0.831 Q 109.204 1.305 109.204 2.114 A 1.808 1.808 0 0 0 109.204 2.151 A 1.499 1.499 0 0 0 109.45 2.962 A 1.626 1.626 0 0 0 109.612 3.169 A 1.726 1.726 0 0 0 110.123 3.546 A 2.119 2.119 0 0 0 110.023 3.592 A 1.738 1.738 0 0 0 109.338 4.179 A 1.629 1.629 0 0 0 109.055 5.115 A 2.272 2.272 0 0 0 109.064 5.329 A 1.63 1.63 0 0 0 109.611 6.436 A 1.895 1.895 0 0 0 110.461 6.864 A 2.797 2.797 0 0 0 111.089 6.93 A 2.796 2.796 0 0 0 111.688 6.869 A 1.925 1.925 0 0 0 112.564 6.438 A 1.578 1.578 0 0 0 113.039 5.712 A 1.989 1.989 0 0 0 113.124 5.115 A 1.581 1.581 0 0 0 112.832 4.179 Q 112.54 3.766 112.039 3.551 Q 112.469 3.34 112.722 2.966 A 1.449 1.449 0 0 0 112.871 2.684 Z M 56.878 0.092 L 56.878 6.842 L 56.065 6.842 L 56.065 0.092 L 56.878 0.092 Z M 8.068 2.061 L 8.068 2.817 A 2.251 2.251 0 0 0 7.826 2.79 A 2.782 2.782 0 0 0 7.668 2.786 Q 6.891 2.786 6.599 3.43 A 1.445 1.445 0 0 0 6.583 3.467 L 6.583 6.842 L 5.77 6.842 L 5.77 2.087 L 6.561 2.087 L 6.574 2.637 Q 6.955 2.031 7.637 2.001 A 1.636 1.636 0 0 1 7.708 2 Q 7.945 2 8.068 2.061 Z M 33.227 2.061 L 33.227 2.817 A 2.251 2.251 0 0 0 32.984 2.79 A 2.782 2.782 0 0 0 32.827 2.786 Q 32.049 2.786 31.758 3.43 A 1.445 1.445 0 0 0 31.742 3.467 L 31.742 6.842 L 30.929 6.842 L 30.929 2.087 L 31.72 2.087 L 31.733 2.637 Q 32.113 2.031 32.796 2.001 A 1.636 1.636 0 0 1 32.867 2 Q 33.104 2 33.227 2.061 Z M 129.555 2.061 L 129.555 2.817 A 2.251 2.251 0 0 0 129.312 2.79 A 2.782 2.782 0 0 0 129.155 2.786 Q 128.377 2.786 128.086 3.43 A 1.445 1.445 0 0 0 128.07 3.467 L 128.07 6.842 L 127.257 6.842 L 127.257 2.087 L 128.048 2.087 L 128.061 2.637 Q 128.441 2.031 129.124 2.001 A 1.636 1.636 0 0 1 129.195 2 Q 129.432 2 129.555 2.061 Z M 118.415 1.138 L 117.431 1.138 L 117.431 6.152 L 118.318 6.152 A 2.519 2.519 0 0 0 118.951 6.077 A 1.747 1.747 0 0 0 119.837 5.546 Q 120.296 5.033 120.367 4.151 A 4.165 4.165 0 0 0 120.379 3.819 L 120.379 3.445 Q 120.379 2.654 120.11 2.119 A 1.864 1.864 0 0 0 119.867 1.751 A 1.687 1.687 0 0 0 118.871 1.182 A 2.499 2.499 0 0 0 118.415 1.138 Z M 54.694 2.087 L 54.694 6.842 L 53.881 6.842 L 53.881 2.087 L 54.694 2.087 Z M 97.189 1.138 L 97.189 3.647 L 98.706 3.647 A 2.313 2.313 0 0 0 99.098 3.616 Q 99.315 3.579 99.487 3.496 A 1.097 1.097 0 0 0 99.743 3.329 A 1.028 1.028 0 0 0 100.06 2.789 Q 100.102 2.621 100.103 2.421 A 1.996 1.996 0 0 0 100.103 2.408 A 1.466 1.466 0 0 0 100.049 2.001 A 1.112 1.112 0 0 0 99.743 1.494 Q 99.382 1.151 98.754 1.138 L 97.189 1.138 Z M 106.559 1.731 L 104.665 4.693 L 106.655 4.693 L 106.655 1.556 L 106.559 1.731 Z M 66.986 1.485 L 65.9 4.478 L 68.076 4.478 L 66.986 1.485 Z M 112.311 5.098 A 1.375 1.375 0 0 0 112.252 4.684 A 1.109 1.109 0 0 0 111.97 4.223 A 1.148 1.148 0 0 0 111.299 3.899 A 1.593 1.593 0 0 0 111.081 3.885 A 1.466 1.466 0 0 0 110.692 3.934 A 1.086 1.086 0 0 0 110.199 4.219 A 1.123 1.123 0 0 0 109.886 4.854 A 1.572 1.572 0 0 0 109.868 5.098 A 1.48 1.48 0 0 0 109.909 5.459 A 1.019 1.019 0 0 0 110.191 5.955 Q 110.497 6.25 111.03 6.266 A 2.053 2.053 0 0 0 111.089 6.267 Q 111.583 6.267 111.893 6.032 A 1.018 1.018 0 0 0 111.986 5.952 A 1.041 1.041 0 0 0 112.285 5.384 A 1.518 1.518 0 0 0 112.311 5.098 Z M 111.089 1.024 A 1.259 1.259 0 0 0 110.737 1.071 A 0.973 0.973 0 0 0 110.314 1.321 Q 110.017 1.617 110.017 2.127 A 1.325 1.325 0 0 0 110.062 2.48 A 0.994 0.994 0 0 0 110.309 2.916 A 0.974 0.974 0 0 0 110.871 3.2 A 1.382 1.382 0 0 0 111.089 3.217 A 1.279 1.279 0 0 0 111.434 3.173 A 0.952 0.952 0 0 0 111.869 2.916 A 1.018 1.018 0 0 0 112.144 2.352 A 1.426 1.426 0 0 0 112.162 2.127 A 1.282 1.282 0 0 0 112.112 1.76 A 1.013 1.013 0 0 0 111.858 1.332 Q 111.555 1.024 111.089 1.024 Z M 11.448 5.511 L 11.448 4.535 L 10.811 4.535 Q 9.316 4.535 9.316 5.41 Q 9.316 5.792 9.571 6.007 A 0.893 0.893 0 0 0 9.985 6.201 A 1.259 1.259 0 0 0 10.226 6.223 A 1.429 1.429 0 0 0 10.951 6.025 A 1.335 1.335 0 0 0 11.247 5.797 A 1.108 1.108 0 0 0 11.448 5.511 Z M 43.835 5.511 L 43.835 4.535 L 43.198 4.535 Q 41.704 4.535 41.704 5.41 Q 41.704 5.792 41.959 6.007 A 0.893 0.893 0 0 0 42.372 6.201 A 1.259 1.259 0 0 0 42.614 6.223 A 1.429 1.429 0 0 0 43.339 6.025 A 1.335 1.335 0 0 0 43.634 5.797 A 1.108 1.108 0 0 0 43.835 5.511 Z M 125.169 5.511 L 125.169 4.535 L 124.532 4.535 Q 123.038 4.535 123.038 5.41 Q 123.038 5.792 123.293 6.007 A 0.893 0.893 0 0 0 123.706 6.201 A 1.259 1.259 0 0 0 123.948 6.223 A 1.429 1.429 0 0 0 124.673 6.025 A 1.335 1.335 0 0 0 124.968 5.797 A 1.108 1.108 0 0 0 125.169 5.511 Z M 26.793 4.03 L 29.175 4.03 L 29.175 3.968 Q 29.149 3.509 28.979 3.204 A 1.13 1.13 0 0 0 28.841 3.008 A 0.983 0.983 0 0 0 28.187 2.676 A 1.39 1.39 0 0 0 28.033 2.667 A 1.106 1.106 0 0 0 27.51 2.79 A 1.14 1.14 0 0 0 27.207 3.026 A 1.417 1.417 0 0 0 26.93 3.472 Q 26.856 3.656 26.816 3.878 A 2.741 2.741 0 0 0 26.793 4.03 Z M 53.815 0.826 Q 53.815 0.628 53.936 0.492 Q 54.048 0.366 54.26 0.357 A 0.783 0.783 0 0 1 54.294 0.356 Q 54.532 0.356 54.655 0.492 A 0.474 0.474 0 0 1 54.777 0.796 A 0.614 0.614 0 0 1 54.778 0.826 A 0.523 0.523 0 0 1 54.753 0.992 A 0.442 0.442 0 0 1 54.655 1.156 Q 54.542 1.276 54.334 1.287 A 0.803 0.803 0 0 1 54.294 1.288 Q 54.122 1.288 54.011 1.218 A 0.362 0.362 0 0 1 53.936 1.156 A 0.456 0.456 0 0 1 53.818 0.88 A 0.605 0.605 0 0 1 53.815 0.826 Z" vector-effect="non-scaling-stroke"/></g>
</svg>