<?xml version="1.0" encoding="UTF-8"?>
<svg width="48px" height="48px" viewBox="0 0 48 48" version="1.1" xmlns="http://www.w3.org/2000/svg" xmlns:xlink="http://www.w3.org/1999/xlink">
    <title>Icon-Resource/Machine-Learning/Res_Amazon-Sagemaker_Train_48_Dark</title>
    <g id="Icon-Resource/Machine-Learning/Res_Amazon-Sagemaker_Train_48" stroke="none" stroke-width="1" fill="none" fill-rule="evenodd">
        <path transform="translate(0vw, 0vh), scale(.65)" d="M6.464,31.135 L26.571,31.135 L26.571,29.135 L6.464,29.135 L6.464,31.135 Z M6.464,36.724 L26.571,36.724 L26.571,34.724 L6.464,34.724 L6.464,36.724 Z M43.666,31.431 L36.481,24.245 C35.995,24.838 35.446,25.377 34.849,25.859 L42.044,33.053 C42.49,33.499 43.218,33.501 43.666,33.053 C44.113,32.606 44.113,31.878 43.666,31.431 L43.666,31.431 Z M29.252,28.241 C28.79,28.3 28.323,28.34 27.846,28.34 C25.059,28.34 22.515,27.308 20.556,25.614 L6.464,25.614 L6.464,23.614 L18.738,23.614 C18.023,22.608 17.473,21.48 17.121,20.265 L4,20.265 L4,39.968 L29.252,39.968 L29.252,28.241 Z M18.676,17.17 C18.676,22.227 22.789,26.34 27.846,26.34 C32.902,26.34 37.016,22.227 37.016,17.17 C37.016,12.114 32.902,8 27.846,8 C22.789,8 18.676,12.114 18.676,17.17 L18.676,17.17 Z M45.999,32.241 C45.999,33.084 45.673,33.874 45.08,34.467 C44.467,35.08 43.661,35.387 42.854,35.387 C42.049,35.387 41.243,35.08 40.63,34.467 L33.157,26.994 C32.554,27.322 31.916,27.592 31.252,27.805 L31.252,40.968 C31.252,41.521 30.805,41.968 30.252,41.968 L3,41.968 C2.447,41.968 2,41.521 2,40.968 L2,19.265 C2,18.712 2.447,18.265 3,18.265 L16.731,18.265 C16.696,17.905 16.676,17.539 16.676,17.17 C16.676,11.011 21.686,6 27.846,6 C34.005,6 39.016,11.011 39.016,17.17 C39.016,19.124 38.509,20.96 37.624,22.559 L45.08,30.017 C45.673,30.61 45.999,31.4 45.999,32.241 L45.999,32.241 Z M25.178,21.835 L21.769,18.973 L23.057,17.442 L25.746,19.7 L32.391,12.745 L33.837,14.126 L26.544,21.76 C26.349,21.965 26.085,22.07 25.821,22.07 C25.594,22.07 25.365,21.992 25.178,21.835 L25.178,21.835 Z" id="Amazon-Machine-Learning_Train-Icon_light-bg" fill="#000000"></path>
    </g><g id="svgGroup" stroke-linecap="round" fill-rule="evenodd" font-size="9pt" stroke="#000" stroke-width="0.25mm" fill="#000" style="stroke:#000;stroke-width:0.25mm;fill:#000"><path d="M 20.444 0.352 L 21.533 0.352 L 23.625 5.572 L 25.717 0.352 L 26.811 0.352 L 26.811 6.75 L 25.967 6.75 L 25.967 4.258 L 26.047 1.569 L 23.946 6.75 L 23.3 6.75 L 21.204 1.582 L 21.287 4.258 L 21.287 6.75 L 20.444 6.75 L 20.444 0.352 Z M 4.636 2.202 L 3.788 2.202 A 1.466 1.466 0 0 0 3.738 1.809 A 1.066 1.066 0 0 0 3.419 1.29 A 1.211 1.211 0 0 0 2.95 1.033 Q 2.698 0.958 2.378 0.958 A 2.286 2.286 0 0 0 1.998 0.988 Q 1.796 1.022 1.633 1.095 A 1.101 1.101 0 0 0 1.404 1.233 A 0.892 0.892 0 0 0 1.059 1.887 A 1.267 1.267 0 0 0 1.055 1.995 A 0.806 0.806 0 0 0 1.323 2.6 A 1.134 1.134 0 0 0 1.387 2.656 A 1.562 1.562 0 0 0 1.625 2.813 Q 1.955 2.993 2.516 3.151 A 8.228 8.228 0 0 1 2.981 3.295 Q 3.216 3.377 3.41 3.464 A 3.297 3.297 0 0 1 3.764 3.645 A 2.342 2.342 0 0 1 4.103 3.889 Q 4.293 4.056 4.415 4.248 A 1.45 1.45 0 0 1 4.432 4.276 A 1.498 1.498 0 0 1 4.628 4.832 A 1.948 1.948 0 0 1 4.65 5.124 A 1.606 1.606 0 0 1 4.527 5.76 Q 4.382 6.101 4.064 6.354 A 1.886 1.886 0 0 1 4.043 6.37 Q 3.437 6.838 2.422 6.838 A 3.023 3.023 0 0 1 1.281 6.623 A 2.917 2.917 0 0 1 1.191 6.585 A 2.383 2.383 0 0 1 0.713 6.307 A 1.874 1.874 0 0 1 0.31 5.893 A 1.689 1.689 0 0 1 0 4.896 L 0.848 4.896 A 1.261 1.261 0 0 0 0.918 5.323 A 1.074 1.074 0 0 0 1.277 5.812 Q 1.661 6.113 2.278 6.144 A 2.87 2.87 0 0 0 2.422 6.148 A 2.628 2.628 0 0 0 2.809 6.121 Q 3.005 6.092 3.164 6.031 A 1.129 1.129 0 0 0 3.445 5.875 Q 3.801 5.603 3.801 5.133 A 1.074 1.074 0 0 0 3.759 4.822 A 0.816 0.816 0 0 0 3.472 4.406 Q 3.142 4.148 2.277 3.898 Q 1.191 3.586 0.697 3.131 Q 0.202 2.676 0.202 2.008 Q 0.202 1.252 0.807 0.758 A 2.121 2.121 0 0 1 1.697 0.335 A 3.087 3.087 0 0 1 2.378 0.264 A 2.913 2.913 0 0 1 3.038 0.336 A 2.372 2.372 0 0 1 3.553 0.519 A 2.051 2.051 0 0 1 4.084 0.889 A 1.834 1.834 0 0 1 4.353 1.222 A 1.798 1.798 0 0 1 4.636 2.202 Z M 36.053 6.75 L 34.396 4.548 L 33.886 5.08 L 33.886 6.75 L 33.073 6.75 L 33.073 0 L 33.886 0 L 33.886 4.083 L 34.321 3.56 L 35.802 1.995 L 36.791 1.995 L 34.941 3.981 L 37.006 6.75 L 36.053 6.75 Z M 13.54 2.522 L 13.579 1.995 L 14.322 1.995 L 14.322 6.636 A 2.511 2.511 0 0 1 14.251 7.249 A 1.738 1.738 0 0 1 13.775 8.09 A 1.834 1.834 0 0 1 12.845 8.57 A 2.671 2.671 0 0 1 12.305 8.622 A 2.446 2.446 0 0 1 11.298 8.402 A 2.003 2.003 0 0 1 10.888 8.161 A 1.563 1.563 0 0 1 10.547 7.8 L 10.969 7.313 A 1.889 1.889 0 0 0 11.403 7.712 A 1.514 1.514 0 0 0 12.248 7.958 A 1.695 1.695 0 0 0 12.625 7.919 Q 12.893 7.858 13.087 7.702 A 1.037 1.037 0 0 0 13.173 7.625 A 1.09 1.09 0 0 0 13.45 7.132 Q 13.497 6.959 13.503 6.752 A 2.134 2.134 0 0 0 13.505 6.684 L 13.505 6.275 A 1.601 1.601 0 0 1 12.453 6.821 A 2.279 2.279 0 0 1 12.173 6.838 A 1.672 1.672 0 0 1 11.418 6.67 Q 11.096 6.51 10.846 6.197 A 2.14 2.14 0 0 1 10.822 6.166 A 2.316 2.316 0 0 1 10.438 5.386 Q 10.305 4.922 10.305 4.333 Q 10.305 3.472 10.614 2.884 A 2.096 2.096 0 0 1 10.819 2.564 Q 11.334 1.907 12.182 1.907 A 1.971 1.971 0 0 1 12.781 1.994 A 1.55 1.55 0 0 1 13.54 2.522 Z M 62.728 1.995 L 63.497 1.995 L 63.523 2.593 Q 64.059 1.918 64.919 1.907 A 2.234 2.234 0 0 1 64.947 1.907 A 1.905 1.905 0 0 1 65.58 2.004 Q 66.422 2.3 66.465 3.506 A 3.668 3.668 0 0 1 66.467 3.608 L 66.467 6.75 L 65.654 6.75 L 65.654 3.604 A 1.837 1.837 0 0 0 65.632 3.324 Q 65.582 3.017 65.419 2.843 Q 65.233 2.645 64.88 2.606 A 1.66 1.66 0 0 0 64.701 2.597 A 1.253 1.253 0 0 0 64.286 2.664 A 1.123 1.123 0 0 0 64.006 2.808 A 1.432 1.432 0 0 0 63.541 3.362 L 63.541 6.75 L 62.728 6.75 L 62.728 1.995 Z M 51.957 0.352 L 51.957 1.046 L 49.9 1.046 L 49.9 6.75 L 49.061 6.75 L 49.061 1.046 L 47.008 1.046 L 47.008 0.352 L 51.957 0.352 Z M 9.391 6.75 L 8.539 6.75 A 0.632 0.632 0 0 1 8.503 6.66 Q 8.472 6.562 8.447 6.41 A 3.997 3.997 0 0 1 8.424 6.249 Q 7.858 6.838 7.071 6.838 A 2.033 2.033 0 0 1 6.542 6.772 A 1.529 1.529 0 0 1 5.917 6.44 Q 5.467 6.042 5.467 5.432 Q 5.467 4.689 6.032 4.278 Q 6.596 3.867 7.62 3.867 L 8.411 3.867 L 8.411 3.494 A 1.152 1.152 0 0 0 8.376 3.199 A 0.828 0.828 0 0 0 8.156 2.815 Q 7.94 2.6 7.55 2.568 A 1.748 1.748 0 0 0 7.405 2.562 Q 6.97 2.562 6.675 2.782 Q 6.381 3.001 6.381 3.313 L 5.564 3.313 A 1.041 1.041 0 0 1 5.689 2.825 A 1.409 1.409 0 0 1 5.816 2.626 Q 6.069 2.294 6.502 2.101 A 2.249 2.249 0 0 1 7.278 1.913 A 2.669 2.669 0 0 1 7.453 1.907 A 2.65 2.65 0 0 1 7.971 1.955 Q 8.278 2.016 8.517 2.156 A 1.439 1.439 0 0 1 8.741 2.318 A 1.396 1.396 0 0 1 9.194 3.144 A 1.998 1.998 0 0 1 9.224 3.45 L 9.224 5.638 Q 9.224 6.073 9.298 6.39 A 1.707 1.707 0 0 0 9.391 6.68 L 9.391 6.75 Z M 31.962 6.75 L 31.109 6.75 A 0.632 0.632 0 0 1 31.074 6.66 Q 31.042 6.562 31.017 6.41 A 3.997 3.997 0 0 1 30.995 6.249 Q 30.428 6.838 29.641 6.838 A 2.033 2.033 0 0 1 29.112 6.772 A 1.529 1.529 0 0 1 28.488 6.44 Q 28.037 6.042 28.037 5.432 Q 28.037 4.689 28.602 4.278 Q 29.167 3.867 30.191 3.867 L 30.982 3.867 L 30.982 3.494 A 1.152 1.152 0 0 0 30.946 3.199 A 0.828 0.828 0 0 0 30.727 2.815 Q 30.51 2.6 30.12 2.568 A 1.748 1.748 0 0 0 29.975 2.562 Q 29.54 2.562 29.246 2.782 Q 28.951 3.001 28.951 3.313 L 28.134 3.313 A 1.041 1.041 0 0 1 28.259 2.825 A 1.409 1.409 0 0 1 28.387 2.626 Q 28.639 2.294 29.072 2.101 A 2.249 2.249 0 0 1 29.848 1.913 A 2.669 2.669 0 0 1 30.024 1.907 A 2.65 2.65 0 0 1 30.541 1.955 Q 30.848 2.016 31.087 2.156 A 1.439 1.439 0 0 1 31.311 2.318 A 1.396 1.396 0 0 1 31.765 3.144 A 1.998 1.998 0 0 1 31.795 3.45 L 31.795 5.638 Q 31.795 6.073 31.868 6.39 A 1.707 1.707 0 0 0 31.962 6.68 L 31.962 6.75 Z M 59.436 6.75 L 58.584 6.75 A 0.632 0.632 0 0 1 58.548 6.66 Q 58.517 6.562 58.492 6.41 A 3.997 3.997 0 0 1 58.469 6.249 Q 57.902 6.838 57.116 6.838 A 2.033 2.033 0 0 1 56.587 6.772 A 1.529 1.529 0 0 1 55.962 6.44 Q 55.512 6.042 55.512 5.432 Q 55.512 4.689 56.077 4.278 Q 56.641 3.867 57.665 3.867 L 58.456 3.867 L 58.456 3.494 A 1.152 1.152 0 0 0 58.42 3.199 A 0.828 0.828 0 0 0 58.201 2.815 Q 57.985 2.6 57.595 2.568 A 1.748 1.748 0 0 0 57.45 2.562 Q 57.015 2.562 56.72 2.782 Q 56.426 3.001 56.426 3.313 L 55.609 3.313 A 1.041 1.041 0 0 1 55.733 2.825 A 1.409 1.409 0 0 1 55.861 2.626 Q 56.114 2.294 56.547 2.101 A 2.249 2.249 0 0 1 57.322 1.913 A 2.669 2.669 0 0 1 57.498 1.907 A 2.65 2.65 0 0 1 58.016 1.955 Q 58.323 2.016 58.562 2.156 A 1.439 1.439 0 0 1 58.786 2.318 A 1.396 1.396 0 0 1 59.239 3.144 A 1.998 1.998 0 0 1 59.269 3.45 L 59.269 5.638 Q 59.269 6.073 59.343 6.39 A 1.707 1.707 0 0 0 59.436 6.68 L 59.436 6.75 Z M 15.341 4.504 L 15.341 4.355 A 3.17 3.17 0 0 1 15.418 3.646 A 2.581 2.581 0 0 1 15.612 3.092 A 2.191 2.191 0 0 1 16.059 2.466 A 2.033 2.033 0 0 1 16.368 2.221 Q 16.853 1.907 17.42 1.907 A 2.254 2.254 0 0 1 18.033 1.986 A 1.639 1.639 0 0 1 18.861 2.518 Q 19.376 3.129 19.376 4.267 L 19.376 4.605 L 16.154 4.605 A 2.111 2.111 0 0 0 16.226 5.114 A 1.516 1.516 0 0 0 16.565 5.741 A 1.282 1.282 0 0 0 17.499 6.173 A 1.652 1.652 0 0 0 17.565 6.174 A 1.763 1.763 0 0 0 17.893 6.145 Q 18.117 6.103 18.295 5.999 A 1.827 1.827 0 0 0 18.803 5.551 A 2.068 2.068 0 0 0 18.818 5.533 L 19.314 5.919 A 1.926 1.926 0 0 1 17.914 6.811 A 2.749 2.749 0 0 1 17.521 6.838 A 2.394 2.394 0 0 1 16.77 6.725 A 1.974 1.974 0 0 1 15.948 6.203 Q 15.341 5.568 15.341 4.504 Z M 37.336 4.504 L 37.336 4.355 A 3.17 3.17 0 0 1 37.412 3.646 A 2.581 2.581 0 0 1 37.606 3.092 A 2.191 2.191 0 0 1 38.054 2.466 A 2.033 2.033 0 0 1 38.362 2.221 Q 38.848 1.907 39.415 1.907 A 2.254 2.254 0 0 1 40.028 1.986 A 1.639 1.639 0 0 1 40.856 2.518 Q 41.37 3.129 41.37 4.267 L 41.37 4.605 L 38.149 4.605 A 2.111 2.111 0 0 0 38.22 5.114 A 1.516 1.516 0 0 0 38.56 5.741 A 1.282 1.282 0 0 0 39.494 6.173 A 1.652 1.652 0 0 0 39.56 6.174 A 1.763 1.763 0 0 0 39.888 6.145 Q 40.112 6.103 40.289 5.999 A 1.827 1.827 0 0 0 40.798 5.551 A 2.068 2.068 0 0 0 40.812 5.533 L 41.309 5.919 A 1.926 1.926 0 0 1 39.909 6.811 A 2.749 2.749 0 0 1 39.516 6.838 A 2.394 2.394 0 0 1 38.765 6.725 A 1.974 1.974 0 0 1 37.943 6.203 Q 37.336 5.568 37.336 4.504 Z M 44.609 1.969 L 44.609 2.725 A 2.251 2.251 0 0 0 44.366 2.698 A 2.782 2.782 0 0 0 44.209 2.694 Q 43.431 2.694 43.14 3.338 A 1.445 1.445 0 0 0 43.124 3.375 L 43.124 6.75 L 42.311 6.75 L 42.311 1.995 L 43.102 1.995 L 43.115 2.544 Q 43.495 1.938 44.178 1.909 A 1.636 1.636 0 0 1 44.249 1.907 Q 44.486 1.907 44.609 1.969 Z M 55.077 1.969 L 55.077 2.725 A 2.251 2.251 0 0 0 54.834 2.698 A 2.782 2.782 0 0 0 54.677 2.694 Q 53.899 2.694 53.608 3.338 A 1.445 1.445 0 0 0 53.591 3.375 L 53.591 6.75 L 52.778 6.75 L 52.778 1.995 L 53.569 1.995 L 53.583 2.544 Q 53.963 1.938 54.646 1.909 A 1.636 1.636 0 0 1 54.716 1.907 Q 54.954 1.907 55.077 1.969 Z M 61.427 1.995 L 61.427 6.75 L 60.614 6.75 L 60.614 1.995 L 61.427 1.995 Z M 13.505 5.449 L 13.505 3.278 A 1.439 1.439 0 0 0 13.204 2.891 Q 12.9 2.62 12.46 2.599 A 1.578 1.578 0 0 0 12.384 2.597 Q 11.792 2.597 11.458 3.056 A 1.51 1.51 0 0 0 11.248 3.484 Q 11.182 3.689 11.151 3.939 A 3.955 3.955 0 0 0 11.123 4.425 Q 11.123 5.229 11.452 5.689 Q 11.782 6.148 12.375 6.148 A 1.32 1.32 0 0 0 12.885 6.054 Q 13.277 5.891 13.505 5.449 Z M 8.411 5.418 L 8.411 4.443 L 7.774 4.443 Q 6.28 4.443 6.28 5.317 Q 6.28 5.7 6.535 5.915 A 0.893 0.893 0 0 0 6.948 6.108 A 1.259 1.259 0 0 0 7.19 6.13 A 1.429 1.429 0 0 0 7.915 5.933 A 1.335 1.335 0 0 0 8.21 5.705 A 1.108 1.108 0 0 0 8.411 5.418 Z M 30.982 5.418 L 30.982 4.443 L 30.344 4.443 Q 28.85 4.443 28.85 5.317 Q 28.85 5.7 29.105 5.915 A 0.893 0.893 0 0 0 29.519 6.108 A 1.259 1.259 0 0 0 29.76 6.13 A 1.429 1.429 0 0 0 30.485 5.933 A 1.335 1.335 0 0 0 30.781 5.705 A 1.108 1.108 0 0 0 30.982 5.418 Z M 58.456 5.418 L 58.456 4.443 L 57.819 4.443 Q 56.325 4.443 56.325 5.317 Q 56.325 5.7 56.58 5.915 A 0.893 0.893 0 0 0 56.993 6.108 A 1.259 1.259 0 0 0 57.235 6.13 A 1.429 1.429 0 0 0 57.96 5.933 A 1.335 1.335 0 0 0 58.255 5.705 A 1.108 1.108 0 0 0 58.456 5.418 Z M 16.181 3.938 L 18.563 3.938 L 18.563 3.876 Q 18.537 3.417 18.366 3.111 A 1.13 1.13 0 0 0 18.229 2.916 A 0.983 0.983 0 0 0 17.574 2.584 A 1.39 1.39 0 0 0 17.42 2.575 A 1.106 1.106 0 0 0 16.898 2.698 A 1.14 1.14 0 0 0 16.594 2.933 A 1.417 1.417 0 0 0 16.317 3.379 Q 16.244 3.563 16.204 3.785 A 2.741 2.741 0 0 0 16.181 3.938 Z M 38.175 3.938 L 40.557 3.938 L 40.557 3.876 Q 40.531 3.417 40.361 3.111 A 1.13 1.13 0 0 0 40.223 2.916 A 0.983 0.983 0 0 0 39.569 2.584 A 1.39 1.39 0 0 0 39.415 2.575 A 1.106 1.106 0 0 0 38.892 2.698 A 1.14 1.14 0 0 0 38.589 2.933 A 1.417 1.417 0 0 0 38.312 3.379 Q 38.238 3.563 38.198 3.785 A 2.741 2.741 0 0 0 38.175 3.938 Z M 60.548 0.734 Q 60.548 0.536 60.669 0.4 Q 60.781 0.274 60.993 0.264 A 0.783 0.783 0 0 1 61.027 0.264 Q 61.264 0.264 61.387 0.4 A 0.474 0.474 0 0 1 61.51 0.703 A 0.614 0.614 0 0 1 61.51 0.734 A 0.523 0.523 0 0 1 61.485 0.9 A 0.442 0.442 0 0 1 61.387 1.063 Q 61.275 1.184 61.067 1.194 A 0.803 0.803 0 0 1 61.027 1.195 Q 60.855 1.195 60.744 1.126 A 0.362 0.362 0 0 1 60.669 1.063 A 0.456 0.456 0 0 1 60.55 0.788 A 0.605 0.605 0 0 1 60.548 0.734 Z" vector-effect="non-scaling-stroke"/></g><g transform="translate(6.7664311179952605, 64), scale(0.75)" id="svgGroup" stroke-linecap="round" fill-rule="evenodd" font-size="9pt" stroke="#000" stroke-width="0.25mm" fill="#000" style="stroke:#000;stroke-width:0.25mm;fill:#000"><path d="M 29.544 6.75 L 27.888 4.548 L 27.378 5.08 L 27.378 6.75 L 26.565 6.75 L 26.565 0 L 27.378 0 L 27.378 4.083 L 27.813 3.56 L 29.294 1.995 L 30.283 1.995 L 28.433 3.981 L 30.498 6.75 L 29.544 6.75 Z M 22.408 6.75 L 21.555 6.75 A 0.632 0.632 0 0 1 21.52 6.66 Q 21.488 6.562 21.464 6.41 A 3.997 3.997 0 0 1 21.441 6.249 Q 20.874 6.838 20.087 6.838 A 2.033 2.033 0 0 1 19.558 6.772 A 1.529 1.529 0 0 1 18.934 6.44 Q 18.483 6.042 18.483 5.432 Q 18.483 4.689 19.048 4.278 Q 19.613 3.867 20.637 3.867 L 21.428 3.867 L 21.428 3.494 A 1.152 1.152 0 0 0 21.392 3.199 A 0.828 0.828 0 0 0 21.173 2.815 Q 20.957 2.6 20.566 2.568 A 1.748 1.748 0 0 0 20.421 2.562 Q 19.986 2.562 19.692 2.782 Q 19.397 3.001 19.397 3.313 L 18.58 3.313 A 1.041 1.041 0 0 1 18.705 2.825 A 1.409 1.409 0 0 1 18.833 2.626 Q 19.085 2.294 19.518 2.101 A 2.249 2.249 0 0 1 20.294 1.913 A 2.669 2.669 0 0 1 20.47 1.907 A 2.65 2.65 0 0 1 20.987 1.955 Q 21.294 2.016 21.533 2.156 A 1.439 1.439 0 0 1 21.757 2.318 A 1.396 1.396 0 0 1 22.211 3.144 A 1.998 1.998 0 0 1 22.241 3.45 L 22.241 5.638 Q 22.241 6.073 22.314 6.39 A 1.707 1.707 0 0 0 22.408 6.68 L 22.408 6.75 Z M 3.731 0.352 L 3.731 4.601 L 4.619 4.601 L 4.619 5.265 L 3.731 5.265 L 3.731 6.75 L 2.914 6.75 L 2.914 5.265 L 0 5.265 L 0 4.786 L 2.865 0.352 L 3.731 0.352 Z M 14.616 6.75 L 12.845 6.75 L 12.845 0.352 L 14.651 0.352 Q 15.486 0.352 16.128 0.721 Q 16.77 1.09 17.119 1.771 A 3.19 3.19 0 0 1 17.436 2.8 A 4.073 4.073 0 0 1 17.473 3.335 L 17.473 3.744 Q 17.473 4.649 17.123 5.331 A 2.457 2.457 0 0 1 16.126 6.376 Q 15.478 6.741 14.616 6.75 Z M 9.129 2.592 A 1.544 1.544 0 0 0 9.233 2.021 A 2.226 2.226 0 0 0 9.211 1.707 A 1.566 1.566 0 0 0 8.712 0.738 A 1.754 1.754 0 0 0 7.946 0.333 A 2.443 2.443 0 0 0 7.348 0.264 A 2.539 2.539 0 0 0 6.838 0.312 A 1.767 1.767 0 0 0 5.981 0.738 Q 5.462 1.213 5.462 2.021 A 1.808 1.808 0 0 0 5.463 2.058 A 1.499 1.499 0 0 0 5.708 2.87 A 1.626 1.626 0 0 0 5.87 3.077 A 1.726 1.726 0 0 0 6.381 3.454 A 2.119 2.119 0 0 0 6.281 3.5 A 1.738 1.738 0 0 0 5.596 4.087 A 1.629 1.629 0 0 0 5.313 5.023 A 2.272 2.272 0 0 0 5.323 5.237 A 1.63 1.63 0 0 0 5.869 6.344 A 1.895 1.895 0 0 0 6.719 6.771 A 2.797 2.797 0 0 0 7.348 6.838 A 2.796 2.796 0 0 0 7.947 6.777 A 1.925 1.925 0 0 0 8.822 6.346 A 1.578 1.578 0 0 0 9.297 5.62 A 1.989 1.989 0 0 0 9.382 5.023 A 1.581 1.581 0 0 0 9.09 4.087 Q 8.798 3.674 8.297 3.458 Q 8.728 3.248 8.98 2.874 A 1.449 1.449 0 0 0 9.129 2.592 Z M 25.813 1.969 L 25.813 2.725 A 2.251 2.251 0 0 0 25.571 2.698 A 2.782 2.782 0 0 0 25.414 2.694 Q 24.636 2.694 24.344 3.338 A 1.445 1.445 0 0 0 24.328 3.375 L 24.328 6.75 L 23.515 6.75 L 23.515 1.995 L 24.306 1.995 L 24.319 2.544 Q 24.7 1.938 25.382 1.909 A 1.636 1.636 0 0 1 25.453 1.907 Q 25.69 1.907 25.813 1.969 Z M 14.673 1.046 L 13.689 1.046 L 13.689 6.06 L 14.577 6.06 A 2.519 2.519 0 0 0 15.209 5.985 A 1.747 1.747 0 0 0 16.095 5.454 Q 16.554 4.94 16.625 4.059 A 4.165 4.165 0 0 0 16.638 3.727 L 16.638 3.353 Q 16.638 2.562 16.368 2.027 A 1.864 1.864 0 0 0 16.126 1.659 A 1.687 1.687 0 0 0 15.13 1.09 A 2.499 2.499 0 0 0 14.673 1.046 Z M 2.817 1.639 L 0.923 4.601 L 2.914 4.601 L 2.914 1.463 L 2.817 1.639 Z M 8.569 5.005 A 1.375 1.375 0 0 0 8.51 4.592 A 1.109 1.109 0 0 0 8.229 4.131 A 1.148 1.148 0 0 0 7.557 3.807 A 1.593 1.593 0 0 0 7.339 3.792 A 1.466 1.466 0 0 0 6.95 3.841 A 1.086 1.086 0 0 0 6.458 4.126 A 1.123 1.123 0 0 0 6.144 4.762 A 1.572 1.572 0 0 0 6.126 5.005 A 1.48 1.48 0 0 0 6.168 5.367 A 1.019 1.019 0 0 0 6.449 5.862 Q 6.755 6.158 7.288 6.173 A 2.053 2.053 0 0 0 7.348 6.174 Q 7.841 6.174 8.151 5.94 A 1.018 1.018 0 0 0 8.244 5.86 A 1.041 1.041 0 0 0 8.544 5.292 A 1.518 1.518 0 0 0 8.569 5.005 Z M 7.348 0.932 A 1.259 1.259 0 0 0 6.995 0.979 A 0.973 0.973 0 0 0 6.572 1.228 Q 6.275 1.525 6.275 2.035 A 1.325 1.325 0 0 0 6.32 2.387 A 0.994 0.994 0 0 0 6.568 2.823 A 0.974 0.974 0 0 0 7.13 3.108 A 1.382 1.382 0 0 0 7.348 3.125 A 1.279 1.279 0 0 0 7.692 3.08 A 0.952 0.952 0 0 0 8.128 2.823 A 1.018 1.018 0 0 0 8.403 2.26 A 1.426 1.426 0 0 0 8.42 2.035 A 1.282 1.282 0 0 0 8.37 1.668 A 1.013 1.013 0 0 0 8.117 1.239 Q 7.813 0.932 7.348 0.932 Z M 21.428 5.418 L 21.428 4.443 L 20.791 4.443 Q 19.296 4.443 19.296 5.317 Q 19.296 5.7 19.551 5.915 A 0.893 0.893 0 0 0 19.965 6.108 A 1.259 1.259 0 0 0 20.206 6.13 A 1.429 1.429 0 0 0 20.931 5.933 A 1.335 1.335 0 0 0 21.227 5.705 A 1.108 1.108 0 0 0 21.428 5.418 Z" vector-effect="non-scaling-stroke"/></g>
</svgversion="1.0" encoding="UTF-8"?>
<svg width="48px" height="48px" viewBox="0 0 48 48" version="1.1" xmlns="http://www.w3.org/2000/svg" xmlns:xlink="http://www.w3.org/1999/xlink">
    <title>Icon-Resource/Machine-Learning/Res_Amazon-Sagemaker_Train_48_Dark</title>
    <g id="Icon-Resource/Machine-Learning/Res_Amazon-Sagemaker_Train_48" stroke="none" stroke-width="1" fill="none" fill-rule="evenodd">
        <path transform="translate(0vw, 0vh), scale(.65)" d="M6.464,31.135 L26.571,31.135 L26.571,29.135 L6.464,29.135 L6.464,31.135 Z M6.464,36.724 L26.571,36.724 L26.571,34.724 L6.464,34.724 L6.464,36.724 Z M43.666,31.431 L36.481,24.245 C35.995,24.838 35.446,25.377 34.849,25.859 L42.044,33.053 C42.49,33.499 43.218,33.501 43.666,33.053 C44.113,32.606 44.113,31.878 43.666,31.431 L43.666,31.431 Z M29.252,28.241 C28.79,28.3 28.323,28.34 27.846,28.34 C25.059,28.34 22.515,27.308 20.556,25.614 L6.464,25.614 L6.464,23.614 L18.738,23.614 C18.023,22.608 17.473,21.48 17.121,20.265 L4,20.265 L4,39.968 L29.252,39.968 L29.252,28.241 Z M18.676,17.17 C18.676,22.227 22.789,26.34 27.846,26.34 C32.902,26.34 37.016,22.227 37.016,17.17 C37.016,12.114 32.902,8 27.846,8 C22.789,8 18.676,12.114 18.676,17.17 L18.676,17.17 Z M45.999,32.241 C45.999,33.084 45.673,33.874 45.08,34.467 C44.467,35.08 43.661,35.387 42.854,35.387 C42.049,35.387 41.243,35.08 40.63,34.467 L33.157,26.994 C32.554,27.322 31.916,27.592 31.252,27.805 L31.252,40.968 C31.252,41.521 30.805,41.968 30.252,41.968 L3,41.968 C2.447,41.968 2,41.521 2,40.968 L2,19.265 C2,18.712 2.447,18.265 3,18.265 L16.731,18.265 C16.696,17.905 16.676,17.539 16.676,17.17 C16.676,11.011 21.686,6 27.846,6 C34.005,6 39.016,11.011 39.016,17.17 C39.016,19.124 38.509,20.96 37.624,22.559 L45.08,30.017 C45.673,30.61 45.999,31.4 45.999,32.241 L45.999,32.241 Z M25.178,21.835 L21.769,18.973 L23.057,17.442 L25.746,19.7 L32.391,12.745 L33.837,14.126 L26.544,21.76 C26.349,21.965 26.085,22.07 25.821,22.07 C25.594,22.07 25.365,21.992 25.178,21.835 L25.178,21.835 Z" id="Amazon-Machine-Learning_Train-Icon_light-bg" fill="#000000"></path>
    </g><g id="svgGroup" stroke-linecap="round" fill-rule="evenodd" font-size="9pt" stroke="#000" stroke-width="0.25mm" fill="#000" style="stroke:#000;stroke-width:0.25mm;fill:#000"><path d="M 20.444 0.352 L 21.533 0.352 L 23.625 5.572 L 25.717 0.352 L 26.811 0.352 L 26.811 6.75 L 25.967 6.75 L 25.967 4.258 L 26.047 1.569 L 23.946 6.75 L 23.3 6.75 L 21.204 1.582 L 21.287 4.258 L 21.287 6.75 L 20.444 6.75 L 20.444 0.352 Z M 4.636 2.202 L 3.788 2.202 A 1.466 1.466 0 0 0 3.738 1.809 A 1.066 1.066 0 0 0 3.419 1.29 A 1.211 1.211 0 0 0 2.95 1.033 Q 2.698 0.958 2.378 0.958 A 2.286 2.286 0 0 0 1.998 0.988 Q 1.796 1.022 1.633 1.095 A 1.101 1.101 0 0 0 1.404 1.233 A 0.892 0.892 0 0 0 1.059 1.887 A 1.267 1.267 0 0 0 1.055 1.995 A 0.806 0.806 0 0 0 1.323 2.6 A 1.134 1.134 0 0 0 1.387 2.656 A 1.562 1.562 0 0 0 1.625 2.813 Q 1.955 2.993 2.516 3.151 A 8.228 8.228 0 0 1 2.981 3.295 Q 3.216 3.377 3.41 3.464 A 3.297 3.297 0 0 1 3.764 3.645 A 2.342 2.342 0 0 1 4.103 3.889 Q 4.293 4.056 4.415 4.248 A 1.45 1.45 0 0 1 4.432 4.276 A 1.498 1.498 0 0 1 4.628 4.832 A 1.948 1.948 0 0 1 4.65 5.124 A 1.606 1.606 0 0 1 4.527 5.76 Q 4.382 6.101 4.064 6.354 A 1.886 1.886 0 0 1 4.043 6.37 Q 3.437 6.838 2.422 6.838 A 3.023 3.023 0 0 1 1.281 6.623 A 2.917 2.917 0 0 1 1.191 6.585 A 2.383 2.383 0 0 1 0.713 6.307 A 1.874 1.874 0 0 1 0.31 5.893 A 1.689 1.689 0 0 1 0 4.896 L 0.848 4.896 A 1.261 1.261 0 0 0 0.918 5.323 A 1.074 1.074 0 0 0 1.277 5.812 Q 1.661 6.113 2.278 6.144 A 2.87 2.87 0 0 0 2.422 6.148 A 2.628 2.628 0 0 0 2.809 6.121 Q 3.005 6.092 3.164 6.031 A 1.129 1.129 0 0 0 3.445 5.875 Q 3.801 5.603 3.801 5.133 A 1.074 1.074 0 0 0 3.759 4.822 A 0.816 0.816 0 0 0 3.472 4.406 Q 3.142 4.148 2.277 3.898 Q 1.191 3.586 0.697 3.131 Q 0.202 2.676 0.202 2.008 Q 0.202 1.252 0.807 0.758 A 2.121 2.121 0 0 1 1.697 0.335 A 3.087 3.087 0 0 1 2.378 0.264 A 2.913 2.913 0 0 1 3.038 0.336 A 2.372 2.372 0 0 1 3.553 0.519 A 2.051 2.051 0 0 1 4.084 0.889 A 1.834 1.834 0 0 1 4.353 1.222 A 1.798 1.798 0 0 1 4.636 2.202 Z M 36.053 6.75 L 34.396 4.548 L 33.886 5.08 L 33.886 6.75 L 33.073 6.75 L 33.073 0 L 33.886 0 L 33.886 4.083 L 34.321 3.56 L 35.802 1.995 L 36.791 1.995 L 34.941 3.981 L 37.006 6.75 L 36.053 6.75 Z M 13.54 2.522 L 13.579 1.995 L 14.322 1.995 L 14.322 6.636 A 2.511 2.511 0 0 1 14.251 7.249 A 1.738 1.738 0 0 1 13.775 8.09 A 1.834 1.834 0 0 1 12.845 8.57 A 2.671 2.671 0 0 1 12.305 8.622 A 2.446 2.446 0 0 1 11.298 8.402 A 2.003 2.003 0 0 1 10.888 8.161 A 1.563 1.563 0 0 1 10.547 7.8 L 10.969 7.313 A 1.889 1.889 0 0 0 11.403 7.712 A 1.514 1.514 0 0 0 12.248 7.958 A 1.695 1.695 0 0 0 12.625 7.919 Q 12.893 7.858 13.087 7.702 A 1.037 1.037 0 0 0 13.173 7.625 A 1.09 1.09 0 0 0 13.45 7.132 Q 13.497 6.959 13.503 6.752 A 2.134 2.134 0 0 0 13.505 6.684 L 13.505 6.275 A 1.601 1.601 0 0 1 12.453 6.821 A 2.279 2.279 0 0 1 12.173 6.838 A 1.672 1.672 0 0 1 11.418 6.67 Q 11.096 6.51 10.846 6.197 A 2.14 2.14 0 0 1 10.822 6.166 A 2.316 2.316 0 0 1 10.438 5.386 Q 10.305 4.922 10.305 4.333 Q 10.305 3.472 10.614 2.884 A 2.096 2.096 0 0 1 10.819 2.564 Q 11.334 1.907 12.182 1.907 A 1.971 1.971 0 0 1 12.781 1.994 A 1.55 1.55 0 0 1 13.54 2.522 Z M 62.728 1.995 L 63.497 1.995 L 63.523 2.593 Q 64.059 1.918 64.919 1.907 A 2.234 2.234 0 0 1 64.947 1.907 A 1.905 1.905 0 0 1 65.58 2.004 Q 66.422 2.3 66.465 3.506 A 3.668 3.668 0 0 1 66.467 3.608 L 66.467 6.75 L 65.654 6.75 L 65.654 3.604 A 1.837 1.837 0 0 0 65.632 3.324 Q 65.582 3.017 65.419 2.843 Q 65.233 2.645 64.88 2.606 A 1.66 1.66 0 0 0 64.701 2.597 A 1.253 1.253 0 0 0 64.286 2.664 A 1.123 1.123 0 0 0 64.006 2.808 A 1.432 1.432 0 0 0 63.541 3.362 L 63.541 6.75 L 62.728 6.75 L 62.728 1.995 Z M 51.957 0.352 L 51.957 1.046 L 49.9 1.046 L 49.9 6.75 L 49.061 6.75 L 49.061 1.046 L 47.008 1.046 L 47.008 0.352 L 51.957 0.352 Z M 9.391 6.75 L 8.539 6.75 A 0.632 0.632 0 0 1 8.503 6.66 Q 8.472 6.562 8.447 6.41 A 3.997 3.997 0 0 1 8.424 6.249 Q 7.858 6.838 7.071 6.838 A 2.033 2.033 0 0 1 6.542 6.772 A 1.529 1.529 0 0 1 5.917 6.44 Q 5.467 6.042 5.467 5.432 Q 5.467 4.689 6.032 4.278 Q 6.596 3.867 7.62 3.867 L 8.411 3.867 L 8.411 3.494 A 1.152 1.152 0 0 0 8.376 3.199 A 0.828 0.828 0 0 0 8.156 2.815 Q 7.94 2.6 7.55 2.568 A 1.748 1.748 0 0 0 7.405 2.562 Q 6.97 2.562 6.675 2.782 Q 6.381 3.001 6.381 3.313 L 5.564 3.313 A 1.041 1.041 0 0 1 5.689 2.825 A 1.409 1.409 0 0 1 5.816 2.626 Q 6.069 2.294 6.502 2.101 A 2.249 2.249 0 0 1 7.278 1.913 A 2.669 2.669 0 0 1 7.453 1.907 A 2.65 2.65 0 0 1 7.971 1.955 Q 8.278 2.016 8.517 2.156 A 1.439 1.439 0 0 1 8.741 2.318 A 1.396 1.396 0 0 1 9.194 3.144 A 1.998 1.998 0 0 1 9.224 3.45 L 9.224 5.638 Q 9.224 6.073 9.298 6.39 A 1.707 1.707 0 0 0 9.391 6.68 L 9.391 6.75 Z M 31.962 6.75 L 31.109 6.75 A 0.632 0.632 0 0 1 31.074 6.66 Q 31.042 6.562 31.017 6.41 A 3.997 3.997 0 0 1 30.995 6.249 Q 30.428 6.838 29.641 6.838 A 2.033 2.033 0 0 1 29.112 6.772 A 1.529 1.529 0 0 1 28.488 6.44 Q 28.037 6.042 28.037 5.432 Q 28.037 4.689 28.602 4.278 Q 29.167 3.867 30.191 3.867 L 30.982 3.867 L 30.982 3.494 A 1.152 1.152 0 0 0 30.946 3.199 A 0.828 0.828 0 0 0 30.727 2.815 Q 30.51 2.6 30.12 2.568 A 1.748 1.748 0 0 0 29.975 2.562 Q 29.54 2.562 29.246 2.782 Q 28.951 3.001 28.951 3.313 L 28.134 3.313 A 1.041 1.041 0 0 1 28.259 2.825 A 1.409 1.409 0 0 1 28.387 2.626 Q 28.639 2.294 29.072 2.101 A 2.249 2.249 0 0 1 29.848 1.913 A 2.669 2.669 0 0 1 30.024 1.907 A 2.65 2.65 0 0 1 30.541 1.955 Q 30.848 2.016 31.087 2.156 A 1.439 1.439 0 0 1 31.311 2.318 A 1.396 1.396 0 0 1 31.765 3.144 A 1.998 1.998 0 0 1 31.795 3.45 L 31.795 5.638 Q 31.795 6.073 31.868 6.39 A 1.707 1.707 0 0 0 31.962 6.68 L 31.962 6.75 Z M 59.436 6.75 L 58.584 6.75 A 0.632 0.632 0 0 1 58.548 6.66 Q 58.517 6.562 58.492 6.41 A 3.997 3.997 0 0 1 58.469 6.249 Q 57.902 6.838 57.116 6.838 A 2.033 2.033 0 0 1 56.587 6.772 A 1.529 1.529 0 0 1 55.962 6.44 Q 55.512 6.042 55.512 5.432 Q 55.512 4.689 56.077 4.278 Q 56.641 3.867 57.665 3.867 L 58.456 3.867 L 58.456 3.494 A 1.152 1.152 0 0 0 58.42 3.199 A 0.828 0.828 0 0 0 58.201 2.815 Q 57.985 2.6 57.595 2.568 A 1.748 1.748 0 0 0 57.45 2.562 Q 57.015 2.562 56.72 2.782 Q 56.426 3.001 56.426 3.313 L 55.609 3.313 A 1.041 1.041 0 0 1 55.733 2.825 A 1.409 1.409 0 0 1 55.861 2.626 Q 56.114 2.294 56.547 2.101 A 2.249 2.249 0 0 1 57.322 1.913 A 2.669 2.669 0 0 1 57.498 1.907 A 2.65 2.65 0 0 1 58.016 1.955 Q 58.323 2.016 58.562 2.156 A 1.439 1.439 0 0 1 58.786 2.318 A 1.396 1.396 0 0 1 59.239 3.144 A 1.998 1.998 0 0 1 59.269 3.45 L 59.269 5.638 Q 59.269 6.073 59.343 6.39 A 1.707 1.707 0 0 0 59.436 6.68 L 59.436 6.75 Z M 15.341 4.504 L 15.341 4.355 A 3.17 3.17 0 0 1 15.418 3.646 A 2.581 2.581 0 0 1 15.612 3.092 A 2.191 2.191 0 0 1 16.059 2.466 A 2.033 2.033 0 0 1 16.368 2.221 Q 16.853 1.907 17.42 1.907 A 2.254 2.254 0 0 1 18.033 1.986 A 1.639 1.639 0 0 1 18.861 2.518 Q 19.376 3.129 19.376 4.267 L 19.376 4.605 L 16.154 4.605 A 2.111 2.111 0 0 0 16.226 5.114 A 1.516 1.516 0 0 0 16.565 5.741 A 1.282 1.282 0 0 0 17.499 6.173 A 1.652 1.652 0 0 0 17.565 6.174 A 1.763 1.763 0 0 0 17.893 6.145 Q 18.117 6.103 18.295 5.999 A 1.827 1.827 0 0 0 18.803 5.551 A 2.068 2.068 0 0 0 18.818 5.533 L 19.314 5.919 A 1.926 1.926 0 0 1 17.914 6.811 A 2.749 2.749 0 0 1 17.521 6.838 A 2.394 2.394 0 0 1 16.77 6.725 A 1.974 1.974 0 0 1 15.948 6.203 Q 15.341 5.568 15.341 4.504 Z M 37.336 4.504 L 37.336 4.355 A 3.17 3.17 0 0 1 37.412 3.646 A 2.581 2.581 0 0 1 37.606 3.092 A 2.191 2.191 0 0 1 38.054 2.466 A 2.033 2.033 0 0 1 38.362 2.221 Q 38.848 1.907 39.415 1.907 A 2.254 2.254 0 0 1 40.028 1.986 A 1.639 1.639 0 0 1 40.856 2.518 Q 41.37 3.129 41.37 4.267 L 41.37 4.605 L 38.149 4.605 A 2.111 2.111 0 0 0 38.22 5.114 A 1.516 1.516 0 0 0 38.56 5.741 A 1.282 1.282 0 0 0 39.494 6.173 A 1.652 1.652 0 0 0 39.56 6.174 A 1.763 1.763 0 0 0 39.888 6.145 Q 40.112 6.103 40.289 5.999 A 1.827 1.827 0 0 0 40.798 5.551 A 2.068 2.068 0 0 0 40.812 5.533 L 41.309 5.919 A 1.926 1.926 0 0 1 39.909 6.811 A 2.749 2.749 0 0 1 39.516 6.838 A 2.394 2.394 0 0 1 38.765 6.725 A 1.974 1.974 0 0 1 37.943 6.203 Q 37.336 5.568 37.336 4.504 Z M 44.609 1.969 L 44.609 2.725 A 2.251 2.251 0 0 0 44.366 2.698 A 2.782 2.782 0 0 0 44.209 2.694 Q 43.431 2.694 43.14 3.338 A 1.445 1.445 0 0 0 43.124 3.375 L 43.124 6.75 L 42.311 6.75 L 42.311 1.995 L 43.102 1.995 L 43.115 2.544 Q 43.495 1.938 44.178 1.909 A 1.636 1.636 0 0 1 44.249 1.907 Q 44.486 1.907 44.609 1.969 Z M 55.077 1.969 L 55.077 2.725 A 2.251 2.251 0 0 0 54.834 2.698 A 2.782 2.782 0 0 0 54.677 2.694 Q 53.899 2.694 53.608 3.338 A 1.445 1.445 0 0 0 53.591 3.375 L 53.591 6.75 L 52.778 6.75 L 52.778 1.995 L 53.569 1.995 L 53.583 2.544 Q 53.963 1.938 54.646 1.909 A 1.636 1.636 0 0 1 54.716 1.907 Q 54.954 1.907 55.077 1.969 Z M 61.427 1.995 L 61.427 6.75 L 60.614 6.75 L 60.614 1.995 L 61.427 1.995 Z M 13.505 5.449 L 13.505 3.278 A 1.439 1.439 0 0 0 13.204 2.891 Q 12.9 2.62 12.46 2.599 A 1.578 1.578 0 0 0 12.384 2.597 Q 11.792 2.597 11.458 3.056 A 1.51 1.51 0 0 0 11.248 3.484 Q 11.182 3.689 11.151 3.939 A 3.955 3.955 0 0 0 11.123 4.425 Q 11.123 5.229 11.452 5.689 Q 11.782 6.148 12.375 6.148 A 1.32 1.32 0 0 0 12.885 6.054 Q 13.277 5.891 13.505 5.449 Z M 8.411 5.418 L 8.411 4.443 L 7.774 4.443 Q 6.28 4.443 6.28 5.317 Q 6.28 5.7 6.535 5.915 A 0.893 0.893 0 0 0 6.948 6.108 A 1.259 1.259 0 0 0 7.19 6.13 A 1.429 1.429 0 0 0 7.915 5.933 A 1.335 1.335 0 0 0 8.21 5.705 A 1.108 1.108 0 0 0 8.411 5.418 Z M 30.982 5.418 L 30.982 4.443 L 30.344 4.443 Q 28.85 4.443 28.85 5.317 Q 28.85 5.7 29.105 5.915 A 0.893 0.893 0 0 0 29.519 6.108 A 1.259 1.259 0 0 0 29.76 6.13 A 1.429 1.429 0 0 0 30.485 5.933 A 1.335 1.335 0 0 0 30.781 5.705 A 1.108 1.108 0 0 0 30.982 5.418 Z M 58.456 5.418 L 58.456 4.443 L 57.819 4.443 Q 56.325 4.443 56.325 5.317 Q 56.325 5.7 56.58 5.915 A 0.893 0.893 0 0 0 56.993 6.108 A 1.259 1.259 0 0 0 57.235 6.13 A 1.429 1.429 0 0 0 57.96 5.933 A 1.335 1.335 0 0 0 58.255 5.705 A 1.108 1.108 0 0 0 58.456 5.418 Z M 16.181 3.938 L 18.563 3.938 L 18.563 3.876 Q 18.537 3.417 18.366 3.111 A 1.13 1.13 0 0 0 18.229 2.916 A 0.983 0.983 0 0 0 17.574 2.584 A 1.39 1.39 0 0 0 17.42 2.575 A 1.106 1.106 0 0 0 16.898 2.698 A 1.14 1.14 0 0 0 16.594 2.933 A 1.417 1.417 0 0 0 16.317 3.379 Q 16.244 3.563 16.204 3.785 A 2.741 2.741 0 0 0 16.181 3.938 Z M 38.175 3.938 L 40.557 3.938 L 40.557 3.876 Q 40.531 3.417 40.361 3.111 A 1.13 1.13 0 0 0 40.223 2.916 A 0.983 0.983 0 0 0 39.569 2.584 A 1.39 1.39 0 0 0 39.415 2.575 A 1.106 1.106 0 0 0 38.892 2.698 A 1.14 1.14 0 0 0 38.589 2.933 A 1.417 1.417 0 0 0 38.312 3.379 Q 38.238 3.563 38.198 3.785 A 2.741 2.741 0 0 0 38.175 3.938 Z M 60.548 0.734 Q 60.548 0.536 60.669 0.4 Q 60.781 0.274 60.993 0.264 A 0.783 0.783 0 0 1 61.027 0.264 Q 61.264 0.264 61.387 0.4 A 0.474 0.474 0 0 1 61.51 0.703 A 0.614 0.614 0 0 1 61.51 0.734 A 0.523 0.523 0 0 1 61.485 0.9 A 0.442 0.442 0 0 1 61.387 1.063 Q 61.275 1.184 61.067 1.194 A 0.803 0.803 0 0 1 61.027 1.195 Q 60.855 1.195 60.744 1.126 A 0.362 0.362 0 0 1 60.669 1.063 A 0.456 0.456 0 0 1 60.55 0.788 A 0.605 0.605 0 0 1 60.548 0.734 Z" vector-effect="non-scaling-stroke"/></g><g transform="translate(6.7664311179952605, 64), scale(0.75)" id="svgGroup" stroke-linecap="round" fill-rule="evenodd" font-size="9pt" stroke="#000" stroke-width="0.25mm" fill="#000" style="stroke:#000;stroke-width:0.25mm;fill:#000"><path d="M 29.544 6.75 L 27.888 4.548 L 27.378 5.08 L 27.378 6.75 L 26.565 6.75 L 26.565 0 L 27.378 0 L 27.378 4.083 L 27.813 3.56 L 29.294 1.995 L 30.283 1.995 L 28.433 3.981 L 30.498 6.75 L 29.544 6.75 Z M 22.408 6.75 L 21.555 6.75 A 0.632 0.632 0 0 1 21.52 6.66 Q 21.488 6.562 21.464 6.41 A 3.997 3.997 0 0 1 21.441 6.249 Q 20.874 6.838 20.087 6.838 A 2.033 2.033 0 0 1 19.558 6.772 A 1.529 1.529 0 0 1 18.934 6.44 Q 18.483 6.042 18.483 5.432 Q 18.483 4.689 19.048 4.278 Q 19.613 3.867 20.637 3.867 L 21.428 3.867 L 21.428 3.494 A 1.152 1.152 0 0 0 21.392 3.199 A 0.828 0.828 0 0 0 21.173 2.815 Q 20.957 2.6 20.566 2.568 A 1.748 1.748 0 0 0 20.421 2.562 Q 19.986 2.562 19.692 2.782 Q 19.397 3.001 19.397 3.313 L 18.58 3.313 A 1.041 1.041 0 0 1 18.705 2.825 A 1.409 1.409 0 0 1 18.833 2.626 Q 19.085 2.294 19.518 2.101 A 2.249 2.249 0 0 1 20.294 1.913 A 2.669 2.669 0 0 1 20.47 1.907 A 2.65 2.65 0 0 1 20.987 1.955 Q 21.294 2.016 21.533 2.156 A 1.439 1.439 0 0 1 21.757 2.318 A 1.396 1.396 0 0 1 22.211 3.144 A 1.998 1.998 0 0 1 22.241 3.45 L 22.241 5.638 Q 22.241 6.073 22.314 6.39 A 1.707 1.707 0 0 0 22.408 6.68 L 22.408 6.75 Z M 3.731 0.352 L 3.731 4.601 L 4.619 4.601 L 4.619 5.265 L 3.731 5.265 L 3.731 6.75 L 2.914 6.75 L 2.914 5.265 L 0 5.265 L 0 4.786 L 2.865 0.352 L 3.731 0.352 Z M 14.616 6.75 L 12.845 6.75 L 12.845 0.352 L 14.651 0.352 Q 15.486 0.352 16.128 0.721 Q 16.77 1.09 17.119 1.771 A 3.19 3.19 0 0 1 17.436 2.8 A 4.073 4.073 0 0 1 17.473 3.335 L 17.473 3.744 Q 17.473 4.649 17.123 5.331 A 2.457 2.457 0 0 1 16.126 6.376 Q 15.478 6.741 14.616 6.75 Z M 9.129 2.592 A 1.544 1.544 0 0 0 9.233 2.021 A 2.226 2.226 0 0 0 9.211 1.707 A 1.566 1.566 0 0 0 8.712 0.738 A 1.754 1.754 0 0 0 7.946 0.333 A 2.443 2.443 0 0 0 7.348 0.264 A 2.539 2.539 0 0 0 6.838 0.312 A 1.767 1.767 0 0 0 5.981 0.738 Q 5.462 1.213 5.462 2.021 A 1.808 1.808 0 0 0 5.463 2.058 A 1.499 1.499 0 0 0 5.708 2.87 A 1.626 1.626 0 0 0 5.87 3.077 A 1.726 1.726 0 0 0 6.381 3.454 A 2.119 2.119 0 0 0 6.281 3.5 A 1.738 1.738 0 0 0 5.596 4.087 A 1.629 1.629 0 0 0 5.313 5.023 A 2.272 2.272 0 0 0 5.323 5.237 A 1.63 1.63 0 0 0 5.869 6.344 A 1.895 1.895 0 0 0 6.719 6.771 A 2.797 2.797 0 0 0 7.348 6.838 A 2.796 2.796 0 0 0 7.947 6.777 A 1.925 1.925 0 0 0 8.822 6.346 A 1.578 1.578 0 0 0 9.297 5.62 A 1.989 1.989 0 0 0 9.382 5.023 A 1.581 1.581 0 0 0 9.09 4.087 Q 8.798 3.674 8.297 3.458 Q 8.728 3.248 8.98 2.874 A 1.449 1.449 0 0 0 9.129 2.592 Z M 25.813 1.969 L 25.813 2.725 A 2.251 2.251 0 0 0 25.571 2.698 A 2.782 2.782 0 0 0 25.414 2.694 Q 24.636 2.694 24.344 3.338 A 1.445 1.445 0 0 0 24.328 3.375 L 24.328 6.75 L 23.515 6.75 L 23.515 1.995 L 24.306 1.995 L 24.319 2.544 Q 24.7 1.938 25.382 1.909 A 1.636 1.636 0 0 1 25.453 1.907 Q 25.69 1.907 25.813 1.969 Z M 14.673 1.046 L 13.689 1.046 L 13.689 6.06 L 14.577 6.06 A 2.519 2.519 0 0 0 15.209 5.985 A 1.747 1.747 0 0 0 16.095 5.454 Q 16.554 4.94 16.625 4.059 A 4.165 4.165 0 0 0 16.638 3.727 L 16.638 3.353 Q 16.638 2.562 16.368 2.027 A 1.864 1.864 0 0 0 16.126 1.659 A 1.687 1.687 0 0 0 15.13 1.09 A 2.499 2.499 0 0 0 14.673 1.046 Z M 2.817 1.639 L 0.923 4.601 L 2.914 4.601 L 2.914 1.463 L 2.817 1.639 Z M 8.569 5.005 A 1.375 1.375 0 0 0 8.51 4.592 A 1.109 1.109 0 0 0 8.229 4.131 A 1.148 1.148 0 0 0 7.557 3.807 A 1.593 1.593 0 0 0 7.339 3.792 A 1.466 1.466 0 0 0 6.95 3.841 A 1.086 1.086 0 0 0 6.458 4.126 A 1.123 1.123 0 0 0 6.144 4.762 A 1.572 1.572 0 0 0 6.126 5.005 A 1.48 1.48 0 0 0 6.168 5.367 A 1.019 1.019 0 0 0 6.449 5.862 Q 6.755 6.158 7.288 6.173 A 2.053 2.053 0 0 0 7.348 6.174 Q 7.841 6.174 8.151 5.94 A 1.018 1.018 0 0 0 8.244 5.86 A 1.041 1.041 0 0 0 8.544 5.292 A 1.518 1.518 0 0 0 8.569 5.005 Z M 7.348 0.932 A 1.259 1.259 0 0 0 6.995 0.979 A 0.973 0.973 0 0 0 6.572 1.228 Q 6.275 1.525 6.275 2.035 A 1.325 1.325 0 0 0 6.32 2.387 A 0.994 0.994 0 0 0 6.568 2.823 A 0.974 0.974 0 0 0 7.13 3.108 A 1.382 1.382 0 0 0 7.348 3.125 A 1.279 1.279 0 0 0 7.692 3.08 A 0.952 0.952 0 0 0 8.128 2.823 A 1.018 1.018 0 0 0 8.403 2.26 A 1.426 1.426 0 0 0 8.42 2.035 A 1.282 1.282 0 0 0 8.37 1.668 A 1.013 1.013 0 0 0 8.117 1.239 Q 7.813 0.932 7.348 0.932 Z M 21.428 5.418 L 21.428 4.443 L 20.791 4.443 Q 19.296 4.443 19.296 5.317 Q 19.296 5.7 19.551 5.915 A 0.893 0.893 0 0 0 19.965 6.108 A 1.259 1.259 0 0 0 20.206 6.13 A 1.429 1.429 0 0 0 20.931 5.933 A 1.335 1.335 0 0 0 21.227 5.705 A 1.108 1.108 0 0 0 21.428 5.418 Z" vector-effect="non-scaling-stroke"/></g>
</svg>