<?xml version="1.0" encoding="UTF-8"?>
<svg width="48px" height="48px" viewBox="0 0 48 48" version="1.1" xmlns="http://www.w3.org/2000/svg" xmlns:xlink="http://www.w3.org/1999/xlink">
    <title>Icon-Resource/IoT/Res_IoT-Thing_Bank_48_Light</title>
    <g id="Icon-Resource/IoT/Res_IoT-Thing_Bank_48" stroke="none" stroke-width="1" fill="none" fill-rule="evenodd">
        <path transform="translate(12.000000, 8.000000), scale(.65)" d="M25.6928,27.4246 C25.6928,27.7536 25.5828,28.0426 25.3628,28.2926 C25.1438,28.5416 24.8688,28.6876 24.5398,28.7266 L24.5398,26.1666 C24.9488,26.3166 25.2428,26.4886 25.4228,26.6836 C25.6028,26.8776 25.6928,27.1246 25.6928,27.4246 Z M23.4318,24.0406 C23.0318,23.8806 22.7448,23.7016 22.5708,23.5016 C22.3968,23.3026 22.3098,23.0576 22.3098,22.7686 C22.3098,22.4186 22.4088,22.1266 22.6088,21.8926 C22.8078,21.6586 23.0818,21.5156 23.4318,21.4656 L23.4318,24.0406 Z M23.4318,18.0226 L23.4318,19.8336 C22.5328,19.9136 21.8098,20.2336 21.2608,20.7916 C20.7118,21.3516 20.4378,22.0546 20.4378,22.9036 C20.4378,23.5416 20.6268,24.0786 21.0068,24.5126 C21.3858,24.9466 21.9948,25.3186 22.8328,25.6276 L23.4318,25.8526 L23.4318,28.7426 C23.0818,28.7116 22.6978,28.6266 22.2788,28.4876 C21.8598,28.3476 21.2908,28.1136 20.5718,27.7836 L20.5718,29.4596 C21.3908,29.9896 22.3438,30.2936 23.4318,30.3736 L23.4318,32.2006 L24.5398,32.2006 L24.5398,30.3586 C25.4678,30.2486 26.2088,29.9166 26.7628,29.3636 C27.3178,28.8096 27.5938,28.1186 27.5938,27.2896 C27.5938,26.6516 27.3998,26.1176 27.0098,25.6876 C26.6208,25.2586 25.9718,24.8786 25.0638,24.5496 L24.5398,24.3556 L24.5398,21.4806 C25.2188,21.5706 25.9718,21.8296 26.8008,22.2586 L26.8008,20.5816 C26.0718,20.1726 25.3188,19.9286 24.5398,19.8486 L24.5398,18.0226 L23.4318,18.0226 Z M35.3458,18.6136 L33.7038,18.6136 C33.1518,18.6136 32.7038,19.0606 32.7038,19.6136 L32.7038,32.9206 C32.7038,33.4736 33.1518,33.9206 33.7038,33.9206 L34.3978,33.9206 L34.3978,34.4646 L13.6358,34.4646 L13.6358,33.9206 L14.3288,33.9206 C14.8818,33.9206 15.3288,33.4736 15.3288,32.9206 L15.3288,19.6136 C15.3288,19.0606 14.8818,18.6136 14.3288,18.6136 L12.6878,18.6136 L12.6878,17.5216 L24.0168,13.6246 L35.3458,17.5216 L35.3458,18.6136 Z M24.3418,11.6216 C24.1308,11.5496 23.9018,11.5496 23.6918,11.6216 L11.3618,15.8626 C10.9588,16.0006 10.6878,16.3806 10.6878,16.8076 L10.6878,19.6136 C10.6878,20.1656 11.1348,20.6136 11.6878,20.6136 L13.3288,20.6136 L13.3288,31.9206 L12.6358,31.9206 C12.0828,31.9206 11.6358,32.3686 11.6358,32.9206 L11.6358,35.4646 C11.6358,36.0176 12.0828,36.4646 12.6358,36.4646 L35.3978,36.4646 C35.9498,36.4646 36.3978,36.0176 36.3978,35.4646 L36.3978,32.9206 C36.3978,32.3686 35.9498,31.9206 35.3978,31.9206 L34.7038,31.9206 L34.7038,20.6136 L36.3458,20.6136 C36.8988,20.6136 37.3458,20.1656 37.3458,19.6136 L37.3458,16.8076 C37.3458,16.3806 37.0738,16.0006 36.6708,15.8626 L24.3418,11.6216 Z M39.7468,38.6146 C39.7468,39.2406 39.2378,39.7486 38.6118,39.7486 L9.4198,39.7486 C8.7938,39.7486 8.2848,39.2406 8.2848,38.6146 L8.2848,9.4336 C8.2848,8.8076 8.7938,8.2986 9.4198,8.2986 L38.6118,8.2986 C39.2378,8.2986 39.7468,8.8076 39.7468,9.4336 L39.7468,38.6146 Z M46.0328,14.4486 L46.0328,12.4486 L41.7468,12.4486 L41.7468,9.4336 C41.7468,7.7046 40.3408,6.2986 38.6118,6.2986 L35.5838,6.2986 L35.5838,1.9996 L33.5838,1.9996 L33.5838,6.2986 L30.3008,6.2986 L30.3008,1.9996 L28.3008,1.9996 L28.3008,6.2986 L25.0168,6.2986 L25.0168,1.9996 L23.0168,1.9996 L23.0168,6.2986 L19.7328,6.2986 L19.7328,1.9996 L17.7328,1.9996 L17.7328,6.2986 L14.4478,6.2986 L14.4478,1.9996 L12.4478,1.9996 L12.4478,6.2986 L9.4198,6.2986 C7.6918,6.2986 6.2848,7.7046 6.2848,9.4336 L6.2848,12.4486 L1.9998,12.4486 L1.9998,14.4486 L6.2848,14.4486 L6.2848,17.7326 L1.9998,17.7326 L1.9998,19.7326 L6.2848,19.7326 L6.2848,23.0166 L1.9998,23.0166 L1.9998,25.0166 L6.2848,25.0166 L6.2848,28.2996 L1.9998,28.2996 L1.9998,30.2996 L6.2848,30.2996 L6.2848,33.5836 L1.9998,33.5836 L1.9998,35.5836 L6.2848,35.5836 L6.2848,38.6146 C6.2848,40.3426 7.6918,41.7486 9.4198,41.7486 L12.4478,41.7486 L12.4478,46.0336 L14.4478,46.0336 L14.4478,41.7486 L17.7328,41.7486 L17.7328,46.0336 L19.7328,46.0336 L19.7328,41.7486 L23.0168,41.7486 L23.0168,46.0336 L25.0168,46.0336 L25.0168,41.7486 L28.3008,41.7486 L28.3008,46.0336 L30.3008,46.0336 L30.3008,41.7486 L33.5838,41.7486 L33.5838,46.0336 L35.5838,46.0336 L35.5838,41.7486 L38.6118,41.7486 C40.3408,41.7486 41.7468,40.3426 41.7468,38.6146 L41.7468,35.5836 L46.0328,35.5836 L46.0328,33.5836 L41.7468,33.5836 L41.7468,30.2996 L46.0328,30.2996 L46.0328,28.2996 L41.7468,28.2996 L41.7468,25.0166 L46.0328,25.0166 L46.0328,23.0166 L41.7468,23.0166 L41.7468,19.7326 L46.0328,19.7326 L46.0328,17.7326 L41.7468,17.7326 L41.7468,14.4486 L46.0328,14.4486 Z" id="Amazon-IOT-RESOURCES-IoT-thing-bank_Resource-Icon_light-bg" fill="#000000"></path>
    </g><g transform="translate(25, 83)" id="svgGroup" stroke-linecap="round" fill-rule="evenodd" font-size="9pt" stroke="#000" stroke-width="0.25mm" fill="#000" style="stroke:#000;stroke-width:0.25mm;fill:#000"><path d="M 23.12 0.088 L 24.13 4.469 L 24.253 5.313 L 24.434 4.553 L 25.699 0.088 L 26.411 0.088 L 27.646 4.553 L 27.822 5.326 L 27.958 4.465 L 28.951 0.088 L 29.799 0.088 L 28.248 6.486 L 27.479 6.486 L 26.161 1.824 L 26.06 1.336 L 25.958 1.824 L 24.592 6.486 L 23.823 6.486 L 22.276 0.088 L 23.12 0.088 Z M 34.98 1.938 L 34.132 1.938 A 1.466 1.466 0 0 0 34.083 1.546 A 1.066 1.066 0 0 0 33.763 1.026 A 1.211 1.211 0 0 0 33.294 0.77 Q 33.042 0.694 32.722 0.694 A 2.286 2.286 0 0 0 32.342 0.724 Q 32.14 0.758 31.977 0.831 A 1.101 1.101 0 0 0 31.748 0.969 A 0.892 0.892 0 0 0 31.403 1.624 A 1.267 1.267 0 0 0 31.399 1.732 A 0.806 0.806 0 0 0 31.667 2.337 A 1.134 1.134 0 0 0 31.731 2.393 A 1.562 1.562 0 0 0 31.969 2.549 Q 32.299 2.73 32.86 2.887 A 8.228 8.228 0 0 1 33.325 3.032 Q 33.56 3.113 33.754 3.2 A 3.297 3.297 0 0 1 34.108 3.382 A 2.342 2.342 0 0 1 34.447 3.626 Q 34.637 3.792 34.759 3.985 A 1.45 1.45 0 0 1 34.776 4.012 A 1.498 1.498 0 0 1 34.972 4.568 A 1.948 1.948 0 0 1 34.994 4.86 A 1.606 1.606 0 0 1 34.871 5.497 Q 34.726 5.838 34.408 6.09 A 1.886 1.886 0 0 1 34.387 6.106 Q 33.781 6.574 32.766 6.574 A 3.023 3.023 0 0 1 31.625 6.36 A 2.917 2.917 0 0 1 31.535 6.322 A 2.383 2.383 0 0 1 31.057 6.044 A 1.874 1.874 0 0 1 30.654 5.629 A 1.689 1.689 0 0 1 30.344 4.632 L 31.192 4.632 A 1.261 1.261 0 0 0 31.262 5.059 A 1.074 1.074 0 0 0 31.621 5.548 Q 32.005 5.85 32.622 5.881 A 2.87 2.87 0 0 0 32.766 5.884 A 2.628 2.628 0 0 0 33.153 5.858 Q 33.349 5.828 33.508 5.767 A 1.129 1.129 0 0 0 33.79 5.612 Q 34.146 5.339 34.146 4.869 A 1.074 1.074 0 0 0 34.103 4.559 A 0.816 0.816 0 0 0 33.816 4.142 Q 33.486 3.885 32.621 3.634 Q 31.535 3.322 31.041 2.868 Q 30.546 2.413 30.546 1.745 Q 30.546 0.989 31.151 0.494 A 2.121 2.121 0 0 1 32.041 0.071 A 3.087 3.087 0 0 1 32.722 0 A 2.913 2.913 0 0 1 33.382 0.072 A 2.372 2.372 0 0 1 33.897 0.255 A 2.051 2.051 0 0 1 34.428 0.626 A 1.834 1.834 0 0 1 34.697 0.958 A 1.798 1.798 0 0 1 34.98 1.938 Z M 3.74 6.486 L 2.351 3.898 L 0.848 3.898 L 0.848 6.486 L 0 6.486 L 0 0.088 L 2.118 0.088 A 3.809 3.809 0 0 1 2.76 0.138 Q 3.102 0.197 3.376 0.324 A 1.789 1.789 0 0 1 3.781 0.58 A 1.588 1.588 0 0 1 4.307 1.469 A 2.453 2.453 0 0 1 4.364 2.013 A 1.864 1.864 0 0 1 4.273 2.604 A 1.64 1.64 0 0 1 4.041 3.054 A 1.849 1.849 0 0 1 3.382 3.611 A 2.342 2.342 0 0 1 3.142 3.718 L 4.645 6.434 L 4.645 6.486 L 3.74 6.486 Z M 13.724 3.129 L 12.907 3.129 Q 12.907 2.795 12.623 2.553 Q 12.34 2.312 11.909 2.312 Q 11.465 2.312 11.215 2.505 A 0.653 0.653 0 0 0 11.04 2.704 Q 10.967 2.835 10.964 3 A 0.771 0.771 0 0 0 10.964 3.01 A 0.588 0.588 0 0 0 10.994 3.203 A 0.48 0.48 0 0 0 11.197 3.454 A 1.093 1.093 0 0 0 11.348 3.533 Q 11.512 3.605 11.767 3.673 A 6.581 6.581 0 0 0 12.039 3.74 A 6.318 6.318 0 0 1 12.446 3.845 Q 12.783 3.944 13.025 4.065 A 1.901 1.901 0 0 1 13.281 4.218 Q 13.418 4.315 13.516 4.429 A 1.06 1.06 0 0 1 13.586 4.52 A 1.024 1.024 0 0 1 13.748 4.927 A 1.388 1.388 0 0 1 13.768 5.168 Q 13.768 5.805 13.258 6.19 Q 12.776 6.554 12.022 6.573 A 3.337 3.337 0 0 1 11.936 6.574 A 2.746 2.746 0 0 1 11.401 6.525 A 2.124 2.124 0 0 1 10.925 6.372 A 1.771 1.771 0 0 1 10.491 6.094 A 1.54 1.54 0 0 1 10.237 5.807 Q 9.989 5.445 9.989 5.023 L 10.802 5.023 A 0.932 0.932 0 0 0 10.875 5.348 A 0.827 0.827 0 0 0 11.129 5.671 A 1.072 1.072 0 0 0 11.531 5.864 Q 11.686 5.903 11.867 5.91 A 2.013 2.013 0 0 0 11.936 5.911 A 1.863 1.863 0 0 0 12.231 5.889 Q 12.393 5.863 12.524 5.806 A 0.941 0.941 0 0 0 12.676 5.724 A 0.689 0.689 0 0 0 12.841 5.574 A 0.554 0.554 0 0 0 12.955 5.225 A 0.698 0.698 0 0 0 12.919 4.994 A 0.581 0.581 0 0 0 12.707 4.713 A 1.05 1.05 0 0 0 12.538 4.615 Q 12.349 4.524 12.054 4.449 A 5.392 5.392 0 0 0 11.841 4.399 A 6.342 6.342 0 0 1 11.48 4.311 Q 11.11 4.209 10.861 4.083 Q 10.562 3.93 10.392 3.731 A 1.017 1.017 0 0 1 10.325 3.643 Q 10.151 3.388 10.151 3.037 A 1.206 1.206 0 0 1 10.55 2.132 A 1.694 1.694 0 0 1 10.646 2.048 A 1.752 1.752 0 0 1 11.429 1.688 A 2.471 2.471 0 0 1 11.909 1.644 A 2.559 2.559 0 0 1 12.473 1.702 A 1.757 1.757 0 0 1 13.221 2.061 Q 13.724 2.479 13.724 3.129 Z M 21.327 6.486 L 20.716 4.816 L 18.035 4.816 L 17.433 6.486 L 16.563 6.486 L 19.006 0.088 L 19.745 0.088 L 22.192 6.486 L 21.327 6.486 Z M 5.212 4.241 L 5.212 4.091 A 3.17 3.17 0 0 1 5.288 3.382 A 2.581 2.581 0 0 1 5.482 2.828 A 2.191 2.191 0 0 1 5.93 2.202 A 2.033 2.033 0 0 1 6.238 1.958 Q 6.724 1.644 7.291 1.644 A 2.254 2.254 0 0 1 7.904 1.723 A 1.639 1.639 0 0 1 8.732 2.254 Q 9.246 2.865 9.246 4.003 L 9.246 4.342 L 6.025 4.342 A 2.111 2.111 0 0 0 6.096 4.85 A 1.516 1.516 0 0 0 6.436 5.478 A 1.282 1.282 0 0 0 7.37 5.909 A 1.652 1.652 0 0 0 7.436 5.911 A 1.763 1.763 0 0 0 7.764 5.882 Q 7.988 5.839 8.165 5.735 A 1.827 1.827 0 0 0 8.674 5.287 A 2.068 2.068 0 0 0 8.688 5.269 L 9.185 5.656 A 1.926 1.926 0 0 1 7.785 6.547 A 2.749 2.749 0 0 1 7.392 6.574 A 2.394 2.394 0 0 1 6.64 6.461 A 1.974 1.974 0 0 1 5.818 5.939 Q 5.212 5.304 5.212 4.241 Z M 0.848 0.782 L 0.848 3.208 L 2.145 3.208 Q 2.685 3.208 3.035 2.968 A 1.174 1.174 0 0 0 3.144 2.883 A 1.069 1.069 0 0 0 3.51 2.146 A 1.486 1.486 0 0 0 3.516 2.013 Q 3.516 1.47 3.22 1.159 A 1 1 0 0 0 3.162 1.103 Q 2.808 0.787 2.14 0.782 L 0.848 0.782 Z M 19.375 1.129 L 18.29 4.122 L 20.465 4.122 L 19.375 1.129 Z M 6.051 3.674 L 8.433 3.674 L 8.433 3.612 Q 8.407 3.153 8.236 2.848 A 1.13 1.13 0 0 0 8.099 2.652 A 0.983 0.983 0 0 0 7.445 2.32 A 1.39 1.39 0 0 0 7.291 2.312 A 1.106 1.106 0 0 0 6.768 2.435 A 1.14 1.14 0 0 0 6.464 2.67 A 1.417 1.417 0 0 0 6.188 3.116 Q 6.114 3.3 6.074 3.522 A 2.741 2.741 0 0 0 6.051 3.674 Z" vector-effect="non-scaling-stroke"/></g><g transform="translate(25, 93)" id="svgGroup" stroke-linecap="round" fill-rule="evenodd" font-size="9pt" stroke="#000" stroke-width="0.25mm" fill="#000" style="stroke:#000;stroke-width:0.25mm;fill:#000"><path d="M 20.997 0 L 20.997 2.571 A 1.767 1.767 0 0 1 21.663 2.053 A 1.832 1.832 0 0 1 22.403 1.907 A 1.905 1.905 0 0 1 23.037 2.004 Q 23.879 2.3 23.922 3.506 A 3.668 3.668 0 0 1 23.924 3.608 L 23.924 6.75 L 23.111 6.75 L 23.111 3.604 A 1.837 1.837 0 0 0 23.089 3.324 Q 23.038 3.017 22.876 2.843 Q 22.69 2.645 22.336 2.606 A 1.66 1.66 0 0 0 22.157 2.597 A 1.253 1.253 0 0 0 21.743 2.664 A 1.123 1.123 0 0 0 21.463 2.808 A 1.432 1.432 0 0 0 20.997 3.362 L 20.997 6.75 L 20.184 6.75 L 20.184 0 L 20.997 0 Z M 87.047 0 L 87.047 2.571 A 1.767 1.767 0 0 1 87.713 2.053 A 1.832 1.832 0 0 1 88.453 1.907 A 1.905 1.905 0 0 1 89.087 2.004 Q 89.928 2.3 89.971 3.506 A 3.668 3.668 0 0 1 89.974 3.608 L 89.974 6.75 L 89.161 6.75 L 89.161 3.604 A 1.837 1.837 0 0 0 89.138 3.324 Q 89.088 3.017 88.926 2.843 Q 88.739 2.645 88.386 2.606 A 1.66 1.66 0 0 0 88.207 2.597 A 1.253 1.253 0 0 0 87.793 2.664 A 1.123 1.123 0 0 0 87.513 2.808 A 1.432 1.432 0 0 0 87.047 3.362 L 87.047 6.75 L 86.234 6.75 L 86.234 0 L 87.047 0 Z M 58.017 6.75 L 56.36 4.548 L 55.85 5.08 L 55.85 6.75 L 55.037 6.75 L 55.037 0 L 55.85 0 L 55.85 4.083 L 56.285 3.56 L 57.766 1.995 L 58.755 1.995 L 56.905 3.981 L 58.97 6.75 L 58.017 6.75 Z M 35.332 2.522 L 35.372 1.995 L 36.114 1.995 L 36.114 6.636 A 2.511 2.511 0 0 1 36.044 7.249 A 1.738 1.738 0 0 1 35.567 8.09 A 1.834 1.834 0 0 1 34.637 8.57 A 2.671 2.671 0 0 1 34.097 8.622 A 2.446 2.446 0 0 1 33.091 8.402 A 2.003 2.003 0 0 1 32.681 8.161 A 1.563 1.563 0 0 1 32.339 7.8 L 32.761 7.313 A 1.889 1.889 0 0 0 33.196 7.712 A 1.514 1.514 0 0 0 34.04 7.958 A 1.695 1.695 0 0 0 34.417 7.919 Q 34.685 7.858 34.879 7.702 A 1.037 1.037 0 0 0 34.965 7.625 A 1.09 1.09 0 0 0 35.242 7.132 Q 35.289 6.959 35.296 6.752 A 2.134 2.134 0 0 0 35.297 6.684 L 35.297 6.275 A 1.601 1.601 0 0 1 34.245 6.821 A 2.279 2.279 0 0 1 33.965 6.838 A 1.672 1.672 0 0 1 33.21 6.67 Q 32.888 6.51 32.638 6.197 A 2.14 2.14 0 0 1 32.614 6.166 A 2.316 2.316 0 0 1 32.231 5.386 Q 32.098 4.922 32.098 4.333 Q 32.098 3.472 32.406 2.884 A 2.096 2.096 0 0 1 32.612 2.564 Q 33.126 1.907 33.974 1.907 A 1.971 1.971 0 0 1 34.573 1.994 A 1.55 1.55 0 0 1 35.332 2.522 Z M 84.226 2.522 L 84.265 1.995 L 85.008 1.995 L 85.008 6.636 A 2.511 2.511 0 0 1 84.937 7.249 A 1.738 1.738 0 0 1 84.461 8.09 A 1.834 1.834 0 0 1 83.531 8.57 A 2.671 2.671 0 0 1 82.991 8.622 A 2.446 2.446 0 0 1 81.984 8.402 A 2.003 2.003 0 0 1 81.574 8.161 A 1.563 1.563 0 0 1 81.233 7.8 L 81.655 7.313 A 1.889 1.889 0 0 0 82.089 7.712 A 1.514 1.514 0 0 0 82.934 7.958 A 1.695 1.695 0 0 0 83.311 7.919 Q 83.579 7.858 83.773 7.702 A 1.037 1.037 0 0 0 83.859 7.625 A 1.09 1.09 0 0 0 84.136 7.132 Q 84.183 6.959 84.189 6.752 A 2.134 2.134 0 0 0 84.19 6.684 L 84.19 6.275 A 1.601 1.601 0 0 1 83.138 6.821 A 2.279 2.279 0 0 1 82.859 6.838 A 1.672 1.672 0 0 1 82.104 6.67 Q 81.782 6.51 81.532 6.197 A 2.14 2.14 0 0 1 81.508 6.166 A 2.316 2.316 0 0 1 81.124 5.386 Q 80.991 4.922 80.991 4.333 Q 80.991 3.472 81.3 2.884 A 2.096 2.096 0 0 1 81.505 2.564 Q 82.02 1.907 82.868 1.907 A 1.971 1.971 0 0 1 83.466 1.994 A 1.55 1.55 0 0 1 84.226 2.522 Z M 27.325 1.995 L 28.094 1.995 L 28.121 2.593 Q 28.657 1.918 29.517 1.907 A 2.234 2.234 0 0 1 29.544 1.907 A 1.905 1.905 0 0 1 30.178 2.004 Q 31.02 2.3 31.063 3.506 A 3.668 3.668 0 0 1 31.065 3.608 L 31.065 6.75 L 30.252 6.75 L 30.252 3.604 A 1.837 1.837 0 0 0 30.23 3.324 Q 30.18 3.017 30.017 2.843 Q 29.831 2.645 29.477 2.606 A 1.66 1.66 0 0 0 29.298 2.597 A 1.253 1.253 0 0 0 28.884 2.664 A 1.123 1.123 0 0 0 28.604 2.808 A 1.432 1.432 0 0 0 28.138 3.362 L 28.138 6.75 L 27.325 6.75 L 27.325 1.995 Z M 50.067 1.995 L 50.836 1.995 L 50.862 2.593 Q 51.399 1.918 52.259 1.907 A 2.234 2.234 0 0 1 52.286 1.907 A 1.905 1.905 0 0 1 52.92 2.004 Q 53.761 2.3 53.804 3.506 A 3.668 3.668 0 0 1 53.807 3.608 L 53.807 6.75 L 52.994 6.75 L 52.994 3.604 A 1.837 1.837 0 0 0 52.971 3.324 Q 52.921 3.017 52.759 2.843 Q 52.572 2.645 52.219 2.606 A 1.66 1.66 0 0 0 52.04 2.597 A 1.253 1.253 0 0 0 51.626 2.664 A 1.123 1.123 0 0 0 51.346 2.808 A 1.432 1.432 0 0 0 50.88 3.362 L 50.88 6.75 L 50.067 6.75 L 50.067 1.995 Z M 11.94 0.352 L 11.94 1.046 L 9.883 1.046 L 9.883 6.75 L 9.044 6.75 L 9.044 1.046 L 6.992 1.046 L 6.992 0.352 L 11.94 0.352 Z M 19.362 0.352 L 19.362 1.046 L 17.306 1.046 L 17.306 6.75 L 16.466 6.75 L 16.466 1.046 L 14.414 1.046 L 14.414 0.352 L 19.362 0.352 Z M 48.959 6.75 L 48.107 6.75 A 0.632 0.632 0 0 1 48.071 6.66 Q 48.04 6.562 48.015 6.41 A 3.997 3.997 0 0 1 47.993 6.249 Q 47.426 6.838 46.639 6.838 A 2.033 2.033 0 0 1 46.11 6.772 A 1.529 1.529 0 0 1 45.486 6.44 Q 45.035 6.042 45.035 5.432 Q 45.035 4.689 45.6 4.278 Q 46.165 3.867 47.188 3.867 L 47.979 3.867 L 47.979 3.494 A 1.152 1.152 0 0 0 47.944 3.199 A 0.828 0.828 0 0 0 47.725 2.815 Q 47.508 2.6 47.118 2.568 A 1.748 1.748 0 0 0 46.973 2.562 Q 46.538 2.562 46.244 2.782 Q 45.949 3.001 45.949 3.313 L 45.132 3.313 A 1.041 1.041 0 0 1 45.257 2.825 A 1.409 1.409 0 0 1 45.385 2.626 Q 45.637 2.294 46.07 2.101 A 2.249 2.249 0 0 1 46.846 1.913 A 2.669 2.669 0 0 1 47.021 1.907 A 2.65 2.65 0 0 1 47.539 1.955 Q 47.846 2.016 48.085 2.156 A 1.439 1.439 0 0 1 48.309 2.318 A 1.396 1.396 0 0 1 48.762 3.144 A 1.998 1.998 0 0 1 48.792 3.45 L 48.792 5.638 Q 48.792 6.073 48.866 6.39 A 1.707 1.707 0 0 0 48.959 6.68 L 48.959 6.75 Z M 41.915 6.75 L 39.696 6.75 L 39.696 0.352 L 41.788 0.352 A 4.031 4.031 0 0 1 42.36 0.39 Q 42.653 0.432 42.89 0.521 A 1.629 1.629 0 0 1 43.354 0.782 A 1.383 1.383 0 0 1 43.826 1.558 A 2.164 2.164 0 0 1 43.879 2.057 A 1.3 1.3 0 0 1 43.625 2.85 A 1.589 1.589 0 0 1 43.114 3.294 A 1.972 1.972 0 0 1 42.93 3.384 A 1.571 1.571 0 0 1 43.445 3.63 A 1.446 1.446 0 0 1 43.75 3.935 A 1.531 1.531 0 0 1 44.042 4.713 A 1.961 1.961 0 0 1 44.051 4.904 A 2.139 2.139 0 0 1 43.976 5.487 A 1.577 1.577 0 0 1 43.493 6.258 A 1.832 1.832 0 0 1 42.801 6.633 Q 42.534 6.713 42.215 6.739 A 3.81 3.81 0 0 1 41.915 6.75 Z M 75.133 0.352 L 75.133 6.06 L 78.166 6.06 L 78.166 6.75 L 74.285 6.75 L 74.285 0.352 L 75.133 0.352 Z M 65.171 0.352 L 65.171 4.601 L 66.059 4.601 L 66.059 5.265 L 65.171 5.265 L 65.171 6.75 L 64.354 6.75 L 64.354 5.265 L 61.44 5.265 L 61.44 4.786 L 64.305 0.352 L 65.171 0.352 Z M 70.569 2.592 A 1.544 1.544 0 0 0 70.673 2.021 A 2.226 2.226 0 0 0 70.651 1.707 A 1.566 1.566 0 0 0 70.152 0.738 A 1.754 1.754 0 0 0 69.386 0.333 A 2.443 2.443 0 0 0 68.788 0.264 A 2.539 2.539 0 0 0 68.278 0.312 A 1.767 1.767 0 0 0 67.421 0.738 Q 66.902 1.213 66.902 2.021 A 1.808 1.808 0 0 0 66.903 2.058 A 1.499 1.499 0 0 0 67.148 2.87 A 1.626 1.626 0 0 0 67.31 3.077 A 1.726 1.726 0 0 0 67.821 3.454 A 2.119 2.119 0 0 0 67.721 3.5 A 1.738 1.738 0 0 0 67.036 4.087 A 1.629 1.629 0 0 0 66.753 5.023 A 2.272 2.272 0 0 0 66.763 5.237 A 1.63 1.63 0 0 0 67.309 6.344 A 1.895 1.895 0 0 0 68.159 6.771 A 2.797 2.797 0 0 0 68.788 6.838 A 2.796 2.796 0 0 0 69.387 6.777 A 1.925 1.925 0 0 0 70.262 6.346 A 1.578 1.578 0 0 0 70.737 5.62 A 1.989 1.989 0 0 0 70.822 5.023 A 1.581 1.581 0 0 0 70.53 4.087 Q 70.238 3.674 69.737 3.458 Q 70.167 3.248 70.42 2.874 A 1.449 1.449 0 0 0 70.569 2.592 Z M 91.481 0.844 L 92.294 0.844 L 92.294 1.995 L 93.182 1.995 L 93.182 2.624 L 92.294 2.624 L 92.294 5.572 Q 92.294 5.858 92.413 6.001 Q 92.531 6.144 92.817 6.144 A 1.046 1.046 0 0 0 92.914 6.138 Q 93.017 6.129 93.157 6.101 A 4.024 4.024 0 0 0 93.204 6.091 L 93.204 6.75 A 2.463 2.463 0 0 1 92.771 6.829 A 2.157 2.157 0 0 1 92.58 6.838 Q 92.132 6.838 91.866 6.616 A 0.856 0.856 0 0 1 91.758 6.508 Q 91.53 6.238 91.49 5.78 A 2.351 2.351 0 0 1 91.481 5.572 L 91.481 2.624 L 90.615 2.624 L 90.615 1.995 L 91.481 1.995 L 91.481 0.844 Z M 2.043 4.386 L 2.043 4.329 A 3.057 3.057 0 0 1 2.13 3.587 A 2.573 2.573 0 0 1 2.318 3.072 A 2.16 2.16 0 0 1 2.733 2.486 A 1.957 1.957 0 0 1 3.083 2.21 A 2.036 2.036 0 0 1 4.027 1.913 A 2.491 2.491 0 0 1 4.201 1.907 A 2.277 2.277 0 0 1 4.955 2.027 A 1.937 1.937 0 0 1 5.772 2.58 A 2.29 2.29 0 0 1 6.291 3.608 A 3.373 3.373 0 0 1 6.372 4.368 L 6.372 4.425 A 3.114 3.114 0 0 1 6.293 5.142 A 2.577 2.577 0 0 1 6.106 5.671 A 2.056 2.056 0 0 1 5.579 6.361 A 2.001 2.001 0 0 1 5.346 6.53 A 2.045 2.045 0 0 1 4.426 6.829 A 2.529 2.529 0 0 1 4.21 6.838 A 2.262 2.262 0 0 1 3.46 6.718 A 1.938 1.938 0 0 1 2.643 6.166 A 2.297 2.297 0 0 1 2.118 5.111 A 3.357 3.357 0 0 1 2.043 4.386 Z M 0.844 0.352 L 0.844 6.75 L 0 6.75 L 0 0.352 L 0.844 0.352 Z M 26.024 1.995 L 26.024 6.75 L 25.211 6.75 L 25.211 1.995 L 26.024 1.995 Z M 79.884 1.995 L 79.884 6.75 L 79.071 6.75 L 79.071 1.995 L 79.884 1.995 Z M 2.861 4.425 A 2.772 2.772 0 0 0 2.908 4.954 Q 2.969 5.264 3.106 5.51 A 1.545 1.545 0 0 0 3.228 5.695 Q 3.595 6.174 4.21 6.174 A 1.269 1.269 0 0 0 4.699 6.083 Q 4.979 5.967 5.181 5.706 A 1.471 1.471 0 0 0 5.194 5.689 A 1.648 1.648 0 0 0 5.449 5.171 Q 5.518 4.945 5.544 4.672 A 3.655 3.655 0 0 0 5.559 4.329 A 2.687 2.687 0 0 0 5.508 3.789 Q 5.44 3.459 5.283 3.2 A 1.586 1.586 0 0 0 5.188 3.061 A 1.231 1.231 0 0 0 4.773 2.705 Q 4.52 2.575 4.201 2.575 Q 3.611 2.575 3.245 3.035 A 1.515 1.515 0 0 0 3.23 3.054 A 1.589 1.589 0 0 0 2.978 3.552 Q 2.908 3.772 2.88 4.039 A 3.676 3.676 0 0 0 2.861 4.425 Z M 35.297 5.449 L 35.297 3.278 A 1.439 1.439 0 0 0 34.996 2.891 Q 34.692 2.62 34.252 2.599 A 1.578 1.578 0 0 0 34.176 2.597 Q 33.584 2.597 33.251 3.056 A 1.51 1.51 0 0 0 33.04 3.484 Q 32.974 3.689 32.943 3.939 A 3.955 3.955 0 0 0 32.915 4.425 Q 32.915 5.229 33.245 5.689 Q 33.574 6.148 34.167 6.148 A 1.32 1.32 0 0 0 34.677 6.054 Q 35.069 5.891 35.297 5.449 Z M 84.19 5.449 L 84.19 3.278 A 1.439 1.439 0 0 0 83.889 2.891 Q 83.586 2.62 83.145 2.599 A 1.578 1.578 0 0 0 83.07 2.597 Q 82.478 2.597 82.144 3.056 A 1.51 1.51 0 0 0 81.933 3.484 Q 81.868 3.689 81.836 3.939 A 3.955 3.955 0 0 0 81.809 4.425 Q 81.809 5.229 82.138 5.689 Q 82.468 6.148 83.061 6.148 A 1.32 1.32 0 0 0 83.571 6.054 Q 83.962 5.891 84.19 5.449 Z M 41.946 3.757 L 40.54 3.757 L 40.54 6.06 L 41.933 6.06 A 1.84 1.84 0 0 0 42.308 6.024 Q 42.548 5.974 42.732 5.854 A 1.064 1.064 0 0 0 42.862 5.755 A 1.003 1.003 0 0 0 43.184 5.154 A 1.459 1.459 0 0 0 43.203 4.913 Q 43.203 4.007 42.43 3.811 A 1.977 1.977 0 0 0 41.946 3.757 Z M 64.257 1.639 L 62.363 4.601 L 64.354 4.601 L 64.354 1.463 L 64.257 1.639 Z M 40.54 1.046 L 40.54 3.081 L 41.814 3.081 Q 42.368 3.081 42.699 2.804 A 0.905 0.905 0 0 0 43.027 2.154 A 1.27 1.27 0 0 0 43.031 2.052 Q 43.031 1.696 42.891 1.471 A 0.71 0.71 0 0 0 42.724 1.285 A 0.969 0.969 0 0 0 42.438 1.136 Q 42.175 1.047 41.793 1.046 A 3.261 3.261 0 0 0 41.788 1.046 L 40.54 1.046 Z M 70.009 5.005 A 1.375 1.375 0 0 0 69.95 4.592 A 1.109 1.109 0 0 0 69.669 4.131 A 1.148 1.148 0 0 0 68.997 3.807 A 1.593 1.593 0 0 0 68.779 3.792 A 1.466 1.466 0 0 0 68.39 3.841 A 1.086 1.086 0 0 0 67.898 4.126 A 1.123 1.123 0 0 0 67.584 4.762 A 1.572 1.572 0 0 0 67.566 5.005 A 1.48 1.48 0 0 0 67.608 5.367 A 1.019 1.019 0 0 0 67.889 5.862 Q 68.195 6.158 68.728 6.173 A 2.053 2.053 0 0 0 68.788 6.174 Q 69.281 6.174 69.591 5.94 A 1.018 1.018 0 0 0 69.684 5.86 A 1.041 1.041 0 0 0 69.983 5.292 A 1.518 1.518 0 0 0 70.009 5.005 Z M 68.788 0.932 A 1.259 1.259 0 0 0 68.435 0.979 A 0.973 0.973 0 0 0 68.012 1.228 Q 67.715 1.525 67.715 2.035 A 1.325 1.325 0 0 0 67.76 2.387 A 0.994 0.994 0 0 0 68.008 2.823 A 0.974 0.974 0 0 0 68.57 3.108 A 1.382 1.382 0 0 0 68.788 3.125 A 1.279 1.279 0 0 0 69.132 3.08 A 0.952 0.952 0 0 0 69.568 2.823 A 1.018 1.018 0 0 0 69.843 2.26 A 1.426 1.426 0 0 0 69.86 2.035 A 1.282 1.282 0 0 0 69.81 1.668 A 1.013 1.013 0 0 0 69.557 1.239 Q 69.253 0.932 68.788 0.932 Z M 47.979 5.418 L 47.979 4.443 L 47.342 4.443 Q 45.848 4.443 45.848 5.317 Q 45.848 5.7 46.103 5.915 A 0.893 0.893 0 0 0 46.517 6.108 A 1.259 1.259 0 0 0 46.758 6.13 A 1.429 1.429 0 0 0 47.483 5.933 A 1.335 1.335 0 0 0 47.778 5.705 A 1.108 1.108 0 0 0 47.979 5.418 Z M 25.146 0.734 Q 25.146 0.536 25.266 0.4 Q 25.378 0.274 25.59 0.264 A 0.783 0.783 0 0 1 25.625 0.264 Q 25.862 0.264 25.985 0.4 A 0.474 0.474 0 0 1 26.107 0.703 A 0.614 0.614 0 0 1 26.108 0.734 A 0.523 0.523 0 0 1 26.083 0.9 A 0.442 0.442 0 0 1 25.985 1.063 Q 25.872 1.184 25.664 1.194 A 0.803 0.803 0 0 1 25.625 1.195 Q 25.452 1.195 25.341 1.126 A 0.362 0.362 0 0 1 25.266 1.063 A 0.456 0.456 0 0 1 25.148 0.788 A 0.605 0.605 0 0 1 25.146 0.734 Z M 79.005 0.734 Q 79.005 0.536 79.126 0.4 Q 79.238 0.274 79.449 0.264 A 0.783 0.783 0 0 1 79.484 0.264 Q 79.721 0.264 79.844 0.4 A 0.474 0.474 0 0 1 79.967 0.703 A 0.614 0.614 0 0 1 79.967 0.734 A 0.523 0.523 0 0 1 79.942 0.9 A 0.442 0.442 0 0 1 79.844 1.063 Q 79.732 1.184 79.524 1.194 A 0.803 0.803 0 0 1 79.484 1.195 Q 79.312 1.195 79.201 1.126 A 0.362 0.362 0 0 1 79.126 1.063 A 0.456 0.456 0 0 1 79.007 0.788 A 0.605 0.605 0 0 1 79.005 0.734 Z" vector-effect="non-scaling-stroke"/></g>
</svgversion="1.0" encoding="UTF-8"?>
<svg width="48px" height="48px" viewBox="0 0 48 48" version="1.1" xmlns="http://www.w3.org/2000/svg" xmlns:xlink="http://www.w3.org/1999/xlink">
    <title>Icon-Resource/IoT/Res_IoT-Thing_Bank_48_Light</title>
    <g id="Icon-Resource/IoT/Res_IoT-Thing_Bank_48" stroke="none" stroke-width="1" fill="none" fill-rule="evenodd">
        <path transform="translate(12.000000, 8.000000), scale(.65)" d="M25.6928,27.4246 C25.6928,27.7536 25.5828,28.0426 25.3628,28.2926 C25.1438,28.5416 24.8688,28.6876 24.5398,28.7266 L24.5398,26.1666 C24.9488,26.3166 25.2428,26.4886 25.4228,26.6836 C25.6028,26.8776 25.6928,27.1246 25.6928,27.4246 Z M23.4318,24.0406 C23.0318,23.8806 22.7448,23.7016 22.5708,23.5016 C22.3968,23.3026 22.3098,23.0576 22.3098,22.7686 C22.3098,22.4186 22.4088,22.1266 22.6088,21.8926 C22.8078,21.6586 23.0818,21.5156 23.4318,21.4656 L23.4318,24.0406 Z M23.4318,18.0226 L23.4318,19.8336 C22.5328,19.9136 21.8098,20.2336 21.2608,20.7916 C20.7118,21.3516 20.4378,22.0546 20.4378,22.9036 C20.4378,23.5416 20.6268,24.0786 21.0068,24.5126 C21.3858,24.9466 21.9948,25.3186 22.8328,25.6276 L23.4318,25.8526 L23.4318,28.7426 C23.0818,28.7116 22.6978,28.6266 22.2788,28.4876 C21.8598,28.3476 21.2908,28.1136 20.5718,27.7836 L20.5718,29.4596 C21.3908,29.9896 22.3438,30.2936 23.4318,30.3736 L23.4318,32.2006 L24.5398,32.2006 L24.5398,30.3586 C25.4678,30.2486 26.2088,29.9166 26.7628,29.3636 C27.3178,28.8096 27.5938,28.1186 27.5938,27.2896 C27.5938,26.6516 27.3998,26.1176 27.0098,25.6876 C26.6208,25.2586 25.9718,24.8786 25.0638,24.5496 L24.5398,24.3556 L24.5398,21.4806 C25.2188,21.5706 25.9718,21.8296 26.8008,22.2586 L26.8008,20.5816 C26.0718,20.1726 25.3188,19.9286 24.5398,19.8486 L24.5398,18.0226 L23.4318,18.0226 Z M35.3458,18.6136 L33.7038,18.6136 C33.1518,18.6136 32.7038,19.0606 32.7038,19.6136 L32.7038,32.9206 C32.7038,33.4736 33.1518,33.9206 33.7038,33.9206 L34.3978,33.9206 L34.3978,34.4646 L13.6358,34.4646 L13.6358,33.9206 L14.3288,33.9206 C14.8818,33.9206 15.3288,33.4736 15.3288,32.9206 L15.3288,19.6136 C15.3288,19.0606 14.8818,18.6136 14.3288,18.6136 L12.6878,18.6136 L12.6878,17.5216 L24.0168,13.6246 L35.3458,17.5216 L35.3458,18.6136 Z M24.3418,11.6216 C24.1308,11.5496 23.9018,11.5496 23.6918,11.6216 L11.3618,15.8626 C10.9588,16.0006 10.6878,16.3806 10.6878,16.8076 L10.6878,19.6136 C10.6878,20.1656 11.1348,20.6136 11.6878,20.6136 L13.3288,20.6136 L13.3288,31.9206 L12.6358,31.9206 C12.0828,31.9206 11.6358,32.3686 11.6358,32.9206 L11.6358,35.4646 C11.6358,36.0176 12.0828,36.4646 12.6358,36.4646 L35.3978,36.4646 C35.9498,36.4646 36.3978,36.0176 36.3978,35.4646 L36.3978,32.9206 C36.3978,32.3686 35.9498,31.9206 35.3978,31.9206 L34.7038,31.9206 L34.7038,20.6136 L36.3458,20.6136 C36.8988,20.6136 37.3458,20.1656 37.3458,19.6136 L37.3458,16.8076 C37.3458,16.3806 37.0738,16.0006 36.6708,15.8626 L24.3418,11.6216 Z M39.7468,38.6146 C39.7468,39.2406 39.2378,39.7486 38.6118,39.7486 L9.4198,39.7486 C8.7938,39.7486 8.2848,39.2406 8.2848,38.6146 L8.2848,9.4336 C8.2848,8.8076 8.7938,8.2986 9.4198,8.2986 L38.6118,8.2986 C39.2378,8.2986 39.7468,8.8076 39.7468,9.4336 L39.7468,38.6146 Z M46.0328,14.4486 L46.0328,12.4486 L41.7468,12.4486 L41.7468,9.4336 C41.7468,7.7046 40.3408,6.2986 38.6118,6.2986 L35.5838,6.2986 L35.5838,1.9996 L33.5838,1.9996 L33.5838,6.2986 L30.3008,6.2986 L30.3008,1.9996 L28.3008,1.9996 L28.3008,6.2986 L25.0168,6.2986 L25.0168,1.9996 L23.0168,1.9996 L23.0168,6.2986 L19.7328,6.2986 L19.7328,1.9996 L17.7328,1.9996 L17.7328,6.2986 L14.4478,6.2986 L14.4478,1.9996 L12.4478,1.9996 L12.4478,6.2986 L9.4198,6.2986 C7.6918,6.2986 6.2848,7.7046 6.2848,9.4336 L6.2848,12.4486 L1.9998,12.4486 L1.9998,14.4486 L6.2848,14.4486 L6.2848,17.7326 L1.9998,17.7326 L1.9998,19.7326 L6.2848,19.7326 L6.2848,23.0166 L1.9998,23.0166 L1.9998,25.0166 L6.2848,25.0166 L6.2848,28.2996 L1.9998,28.2996 L1.9998,30.2996 L6.2848,30.2996 L6.2848,33.5836 L1.9998,33.5836 L1.9998,35.5836 L6.2848,35.5836 L6.2848,38.6146 C6.2848,40.3426 7.6918,41.7486 9.4198,41.7486 L12.4478,41.7486 L12.4478,46.0336 L14.4478,46.0336 L14.4478,41.7486 L17.7328,41.7486 L17.7328,46.0336 L19.7328,46.0336 L19.7328,41.7486 L23.0168,41.7486 L23.0168,46.0336 L25.0168,46.0336 L25.0168,41.7486 L28.3008,41.7486 L28.3008,46.0336 L30.3008,46.0336 L30.3008,41.7486 L33.5838,41.7486 L33.5838,46.0336 L35.5838,46.0336 L35.5838,41.7486 L38.6118,41.7486 C40.3408,41.7486 41.7468,40.3426 41.7468,38.6146 L41.7468,35.5836 L46.0328,35.5836 L46.0328,33.5836 L41.7468,33.5836 L41.7468,30.2996 L46.0328,30.2996 L46.0328,28.2996 L41.7468,28.2996 L41.7468,25.0166 L46.0328,25.0166 L46.0328,23.0166 L41.7468,23.0166 L41.7468,19.7326 L46.0328,19.7326 L46.0328,17.7326 L41.7468,17.7326 L41.7468,14.4486 L46.0328,14.4486 Z" id="Amazon-IOT-RESOURCES-IoT-thing-bank_Resource-Icon_light-bg" fill="#000000"></path>
    </g><g transform="translate(25, 83)" id="svgGroup" stroke-linecap="round" fill-rule="evenodd" font-size="9pt" stroke="#000" stroke-width="0.25mm" fill="#000" style="stroke:#000;stroke-width:0.25mm;fill:#000"><path d="M 23.12 0.088 L 24.13 4.469 L 24.253 5.313 L 24.434 4.553 L 25.699 0.088 L 26.411 0.088 L 27.646 4.553 L 27.822 5.326 L 27.958 4.465 L 28.951 0.088 L 29.799 0.088 L 28.248 6.486 L 27.479 6.486 L 26.161 1.824 L 26.06 1.336 L 25.958 1.824 L 24.592 6.486 L 23.823 6.486 L 22.276 0.088 L 23.12 0.088 Z M 34.98 1.938 L 34.132 1.938 A 1.466 1.466 0 0 0 34.083 1.546 A 1.066 1.066 0 0 0 33.763 1.026 A 1.211 1.211 0 0 0 33.294 0.77 Q 33.042 0.694 32.722 0.694 A 2.286 2.286 0 0 0 32.342 0.724 Q 32.14 0.758 31.977 0.831 A 1.101 1.101 0 0 0 31.748 0.969 A 0.892 0.892 0 0 0 31.403 1.624 A 1.267 1.267 0 0 0 31.399 1.732 A 0.806 0.806 0 0 0 31.667 2.337 A 1.134 1.134 0 0 0 31.731 2.393 A 1.562 1.562 0 0 0 31.969 2.549 Q 32.299 2.73 32.86 2.887 A 8.228 8.228 0 0 1 33.325 3.032 Q 33.56 3.113 33.754 3.2 A 3.297 3.297 0 0 1 34.108 3.382 A 2.342 2.342 0 0 1 34.447 3.626 Q 34.637 3.792 34.759 3.985 A 1.45 1.45 0 0 1 34.776 4.012 A 1.498 1.498 0 0 1 34.972 4.568 A 1.948 1.948 0 0 1 34.994 4.86 A 1.606 1.606 0 0 1 34.871 5.497 Q 34.726 5.838 34.408 6.09 A 1.886 1.886 0 0 1 34.387 6.106 Q 33.781 6.574 32.766 6.574 A 3.023 3.023 0 0 1 31.625 6.36 A 2.917 2.917 0 0 1 31.535 6.322 A 2.383 2.383 0 0 1 31.057 6.044 A 1.874 1.874 0 0 1 30.654 5.629 A 1.689 1.689 0 0 1 30.344 4.632 L 31.192 4.632 A 1.261 1.261 0 0 0 31.262 5.059 A 1.074 1.074 0 0 0 31.621 5.548 Q 32.005 5.85 32.622 5.881 A 2.87 2.87 0 0 0 32.766 5.884 A 2.628 2.628 0 0 0 33.153 5.858 Q 33.349 5.828 33.508 5.767 A 1.129 1.129 0 0 0 33.79 5.612 Q 34.146 5.339 34.146 4.869 A 1.074 1.074 0 0 0 34.103 4.559 A 0.816 0.816 0 0 0 33.816 4.142 Q 33.486 3.885 32.621 3.634 Q 31.535 3.322 31.041 2.868 Q 30.546 2.413 30.546 1.745 Q 30.546 0.989 31.151 0.494 A 2.121 2.121 0 0 1 32.041 0.071 A 3.087 3.087 0 0 1 32.722 0 A 2.913 2.913 0 0 1 33.382 0.072 A 2.372 2.372 0 0 1 33.897 0.255 A 2.051 2.051 0 0 1 34.428 0.626 A 1.834 1.834 0 0 1 34.697 0.958 A 1.798 1.798 0 0 1 34.98 1.938 Z M 3.74 6.486 L 2.351 3.898 L 0.848 3.898 L 0.848 6.486 L 0 6.486 L 0 0.088 L 2.118 0.088 A 3.809 3.809 0 0 1 2.76 0.138 Q 3.102 0.197 3.376 0.324 A 1.789 1.789 0 0 1 3.781 0.58 A 1.588 1.588 0 0 1 4.307 1.469 A 2.453 2.453 0 0 1 4.364 2.013 A 1.864 1.864 0 0 1 4.273 2.604 A 1.64 1.64 0 0 1 4.041 3.054 A 1.849 1.849 0 0 1 3.382 3.611 A 2.342 2.342 0 0 1 3.142 3.718 L 4.645 6.434 L 4.645 6.486 L 3.74 6.486 Z M 13.724 3.129 L 12.907 3.129 Q 12.907 2.795 12.623 2.553 Q 12.34 2.312 11.909 2.312 Q 11.465 2.312 11.215 2.505 A 0.653 0.653 0 0 0 11.04 2.704 Q 10.967 2.835 10.964 3 A 0.771 0.771 0 0 0 10.964 3.01 A 0.588 0.588 0 0 0 10.994 3.203 A 0.48 0.48 0 0 0 11.197 3.454 A 1.093 1.093 0 0 0 11.348 3.533 Q 11.512 3.605 11.767 3.673 A 6.581 6.581 0 0 0 12.039 3.74 A 6.318 6.318 0 0 1 12.446 3.845 Q 12.783 3.944 13.025 4.065 A 1.901 1.901 0 0 1 13.281 4.218 Q 13.418 4.315 13.516 4.429 A 1.06 1.06 0 0 1 13.586 4.52 A 1.024 1.024 0 0 1 13.748 4.927 A 1.388 1.388 0 0 1 13.768 5.168 Q 13.768 5.805 13.258 6.19 Q 12.776 6.554 12.022 6.573 A 3.337 3.337 0 0 1 11.936 6.574 A 2.746 2.746 0 0 1 11.401 6.525 A 2.124 2.124 0 0 1 10.925 6.372 A 1.771 1.771 0 0 1 10.491 6.094 A 1.54 1.54 0 0 1 10.237 5.807 Q 9.989 5.445 9.989 5.023 L 10.802 5.023 A 0.932 0.932 0 0 0 10.875 5.348 A 0.827 0.827 0 0 0 11.129 5.671 A 1.072 1.072 0 0 0 11.531 5.864 Q 11.686 5.903 11.867 5.91 A 2.013 2.013 0 0 0 11.936 5.911 A 1.863 1.863 0 0 0 12.231 5.889 Q 12.393 5.863 12.524 5.806 A 0.941 0.941 0 0 0 12.676 5.724 A 0.689 0.689 0 0 0 12.841 5.574 A 0.554 0.554 0 0 0 12.955 5.225 A 0.698 0.698 0 0 0 12.919 4.994 A 0.581 0.581 0 0 0 12.707 4.713 A 1.05 1.05 0 0 0 12.538 4.615 Q 12.349 4.524 12.054 4.449 A 5.392 5.392 0 0 0 11.841 4.399 A 6.342 6.342 0 0 1 11.48 4.311 Q 11.11 4.209 10.861 4.083 Q 10.562 3.93 10.392 3.731 A 1.017 1.017 0 0 1 10.325 3.643 Q 10.151 3.388 10.151 3.037 A 1.206 1.206 0 0 1 10.55 2.132 A 1.694 1.694 0 0 1 10.646 2.048 A 1.752 1.752 0 0 1 11.429 1.688 A 2.471 2.471 0 0 1 11.909 1.644 A 2.559 2.559 0 0 1 12.473 1.702 A 1.757 1.757 0 0 1 13.221 2.061 Q 13.724 2.479 13.724 3.129 Z M 21.327 6.486 L 20.716 4.816 L 18.035 4.816 L 17.433 6.486 L 16.563 6.486 L 19.006 0.088 L 19.745 0.088 L 22.192 6.486 L 21.327 6.486 Z M 5.212 4.241 L 5.212 4.091 A 3.17 3.17 0 0 1 5.288 3.382 A 2.581 2.581 0 0 1 5.482 2.828 A 2.191 2.191 0 0 1 5.93 2.202 A 2.033 2.033 0 0 1 6.238 1.958 Q 6.724 1.644 7.291 1.644 A 2.254 2.254 0 0 1 7.904 1.723 A 1.639 1.639 0 0 1 8.732 2.254 Q 9.246 2.865 9.246 4.003 L 9.246 4.342 L 6.025 4.342 A 2.111 2.111 0 0 0 6.096 4.85 A 1.516 1.516 0 0 0 6.436 5.478 A 1.282 1.282 0 0 0 7.37 5.909 A 1.652 1.652 0 0 0 7.436 5.911 A 1.763 1.763 0 0 0 7.764 5.882 Q 7.988 5.839 8.165 5.735 A 1.827 1.827 0 0 0 8.674 5.287 A 2.068 2.068 0 0 0 8.688 5.269 L 9.185 5.656 A 1.926 1.926 0 0 1 7.785 6.547 A 2.749 2.749 0 0 1 7.392 6.574 A 2.394 2.394 0 0 1 6.64 6.461 A 1.974 1.974 0 0 1 5.818 5.939 Q 5.212 5.304 5.212 4.241 Z M 0.848 0.782 L 0.848 3.208 L 2.145 3.208 Q 2.685 3.208 3.035 2.968 A 1.174 1.174 0 0 0 3.144 2.883 A 1.069 1.069 0 0 0 3.51 2.146 A 1.486 1.486 0 0 0 3.516 2.013 Q 3.516 1.47 3.22 1.159 A 1 1 0 0 0 3.162 1.103 Q 2.808 0.787 2.14 0.782 L 0.848 0.782 Z M 19.375 1.129 L 18.29 4.122 L 20.465 4.122 L 19.375 1.129 Z M 6.051 3.674 L 8.433 3.674 L 8.433 3.612 Q 8.407 3.153 8.236 2.848 A 1.13 1.13 0 0 0 8.099 2.652 A 0.983 0.983 0 0 0 7.445 2.32 A 1.39 1.39 0 0 0 7.291 2.312 A 1.106 1.106 0 0 0 6.768 2.435 A 1.14 1.14 0 0 0 6.464 2.67 A 1.417 1.417 0 0 0 6.188 3.116 Q 6.114 3.3 6.074 3.522 A 2.741 2.741 0 0 0 6.051 3.674 Z" vector-effect="non-scaling-stroke"/></g><g transform="translate(25, 93)" id="svgGroup" stroke-linecap="round" fill-rule="evenodd" font-size="9pt" stroke="#000" stroke-width="0.25mm" fill="#000" style="stroke:#000;stroke-width:0.25mm;fill:#000"><path d="M 20.997 0 L 20.997 2.571 A 1.767 1.767 0 0 1 21.663 2.053 A 1.832 1.832 0 0 1 22.403 1.907 A 1.905 1.905 0 0 1 23.037 2.004 Q 23.879 2.3 23.922 3.506 A 3.668 3.668 0 0 1 23.924 3.608 L 23.924 6.75 L 23.111 6.75 L 23.111 3.604 A 1.837 1.837 0 0 0 23.089 3.324 Q 23.038 3.017 22.876 2.843 Q 22.69 2.645 22.336 2.606 A 1.66 1.66 0 0 0 22.157 2.597 A 1.253 1.253 0 0 0 21.743 2.664 A 1.123 1.123 0 0 0 21.463 2.808 A 1.432 1.432 0 0 0 20.997 3.362 L 20.997 6.75 L 20.184 6.75 L 20.184 0 L 20.997 0 Z M 87.047 0 L 87.047 2.571 A 1.767 1.767 0 0 1 87.713 2.053 A 1.832 1.832 0 0 1 88.453 1.907 A 1.905 1.905 0 0 1 89.087 2.004 Q 89.928 2.3 89.971 3.506 A 3.668 3.668 0 0 1 89.974 3.608 L 89.974 6.75 L 89.161 6.75 L 89.161 3.604 A 1.837 1.837 0 0 0 89.138 3.324 Q 89.088 3.017 88.926 2.843 Q 88.739 2.645 88.386 2.606 A 1.66 1.66 0 0 0 88.207 2.597 A 1.253 1.253 0 0 0 87.793 2.664 A 1.123 1.123 0 0 0 87.513 2.808 A 1.432 1.432 0 0 0 87.047 3.362 L 87.047 6.75 L 86.234 6.75 L 86.234 0 L 87.047 0 Z M 58.017 6.75 L 56.36 4.548 L 55.85 5.08 L 55.85 6.75 L 55.037 6.75 L 55.037 0 L 55.85 0 L 55.85 4.083 L 56.285 3.56 L 57.766 1.995 L 58.755 1.995 L 56.905 3.981 L 58.97 6.75 L 58.017 6.75 Z M 35.332 2.522 L 35.372 1.995 L 36.114 1.995 L 36.114 6.636 A 2.511 2.511 0 0 1 36.044 7.249 A 1.738 1.738 0 0 1 35.567 8.09 A 1.834 1.834 0 0 1 34.637 8.57 A 2.671 2.671 0 0 1 34.097 8.622 A 2.446 2.446 0 0 1 33.091 8.402 A 2.003 2.003 0 0 1 32.681 8.161 A 1.563 1.563 0 0 1 32.339 7.8 L 32.761 7.313 A 1.889 1.889 0 0 0 33.196 7.712 A 1.514 1.514 0 0 0 34.04 7.958 A 1.695 1.695 0 0 0 34.417 7.919 Q 34.685 7.858 34.879 7.702 A 1.037 1.037 0 0 0 34.965 7.625 A 1.09 1.09 0 0 0 35.242 7.132 Q 35.289 6.959 35.296 6.752 A 2.134 2.134 0 0 0 35.297 6.684 L 35.297 6.275 A 1.601 1.601 0 0 1 34.245 6.821 A 2.279 2.279 0 0 1 33.965 6.838 A 1.672 1.672 0 0 1 33.21 6.67 Q 32.888 6.51 32.638 6.197 A 2.14 2.14 0 0 1 32.614 6.166 A 2.316 2.316 0 0 1 32.231 5.386 Q 32.098 4.922 32.098 4.333 Q 32.098 3.472 32.406 2.884 A 2.096 2.096 0 0 1 32.612 2.564 Q 33.126 1.907 33.974 1.907 A 1.971 1.971 0 0 1 34.573 1.994 A 1.55 1.55 0 0 1 35.332 2.522 Z M 84.226 2.522 L 84.265 1.995 L 85.008 1.995 L 85.008 6.636 A 2.511 2.511 0 0 1 84.937 7.249 A 1.738 1.738 0 0 1 84.461 8.09 A 1.834 1.834 0 0 1 83.531 8.57 A 2.671 2.671 0 0 1 82.991 8.622 A 2.446 2.446 0 0 1 81.984 8.402 A 2.003 2.003 0 0 1 81.574 8.161 A 1.563 1.563 0 0 1 81.233 7.8 L 81.655 7.313 A 1.889 1.889 0 0 0 82.089 7.712 A 1.514 1.514 0 0 0 82.934 7.958 A 1.695 1.695 0 0 0 83.311 7.919 Q 83.579 7.858 83.773 7.702 A 1.037 1.037 0 0 0 83.859 7.625 A 1.09 1.09 0 0 0 84.136 7.132 Q 84.183 6.959 84.189 6.752 A 2.134 2.134 0 0 0 84.19 6.684 L 84.19 6.275 A 1.601 1.601 0 0 1 83.138 6.821 A 2.279 2.279 0 0 1 82.859 6.838 A 1.672 1.672 0 0 1 82.104 6.67 Q 81.782 6.51 81.532 6.197 A 2.14 2.14 0 0 1 81.508 6.166 A 2.316 2.316 0 0 1 81.124 5.386 Q 80.991 4.922 80.991 4.333 Q 80.991 3.472 81.3 2.884 A 2.096 2.096 0 0 1 81.505 2.564 Q 82.02 1.907 82.868 1.907 A 1.971 1.971 0 0 1 83.466 1.994 A 1.55 1.55 0 0 1 84.226 2.522 Z M 27.325 1.995 L 28.094 1.995 L 28.121 2.593 Q 28.657 1.918 29.517 1.907 A 2.234 2.234 0 0 1 29.544 1.907 A 1.905 1.905 0 0 1 30.178 2.004 Q 31.02 2.3 31.063 3.506 A 3.668 3.668 0 0 1 31.065 3.608 L 31.065 6.75 L 30.252 6.75 L 30.252 3.604 A 1.837 1.837 0 0 0 30.23 3.324 Q 30.18 3.017 30.017 2.843 Q 29.831 2.645 29.477 2.606 A 1.66 1.66 0 0 0 29.298 2.597 A 1.253 1.253 0 0 0 28.884 2.664 A 1.123 1.123 0 0 0 28.604 2.808 A 1.432 1.432 0 0 0 28.138 3.362 L 28.138 6.75 L 27.325 6.75 L 27.325 1.995 Z M 50.067 1.995 L 50.836 1.995 L 50.862 2.593 Q 51.399 1.918 52.259 1.907 A 2.234 2.234 0 0 1 52.286 1.907 A 1.905 1.905 0 0 1 52.92 2.004 Q 53.761 2.3 53.804 3.506 A 3.668 3.668 0 0 1 53.807 3.608 L 53.807 6.75 L 52.994 6.75 L 52.994 3.604 A 1.837 1.837 0 0 0 52.971 3.324 Q 52.921 3.017 52.759 2.843 Q 52.572 2.645 52.219 2.606 A 1.66 1.66 0 0 0 52.04 2.597 A 1.253 1.253 0 0 0 51.626 2.664 A 1.123 1.123 0 0 0 51.346 2.808 A 1.432 1.432 0 0 0 50.88 3.362 L 50.88 6.75 L 50.067 6.75 L 50.067 1.995 Z M 11.94 0.352 L 11.94 1.046 L 9.883 1.046 L 9.883 6.75 L 9.044 6.75 L 9.044 1.046 L 6.992 1.046 L 6.992 0.352 L 11.94 0.352 Z M 19.362 0.352 L 19.362 1.046 L 17.306 1.046 L 17.306 6.75 L 16.466 6.75 L 16.466 1.046 L 14.414 1.046 L 14.414 0.352 L 19.362 0.352 Z M 48.959 6.75 L 48.107 6.75 A 0.632 0.632 0 0 1 48.071 6.66 Q 48.04 6.562 48.015 6.41 A 3.997 3.997 0 0 1 47.993 6.249 Q 47.426 6.838 46.639 6.838 A 2.033 2.033 0 0 1 46.11 6.772 A 1.529 1.529 0 0 1 45.486 6.44 Q 45.035 6.042 45.035 5.432 Q 45.035 4.689 45.6 4.278 Q 46.165 3.867 47.188 3.867 L 47.979 3.867 L 47.979 3.494 A 1.152 1.152 0 0 0 47.944 3.199 A 0.828 0.828 0 0 0 47.725 2.815 Q 47.508 2.6 47.118 2.568 A 1.748 1.748 0 0 0 46.973 2.562 Q 46.538 2.562 46.244 2.782 Q 45.949 3.001 45.949 3.313 L 45.132 3.313 A 1.041 1.041 0 0 1 45.257 2.825 A 1.409 1.409 0 0 1 45.385 2.626 Q 45.637 2.294 46.07 2.101 A 2.249 2.249 0 0 1 46.846 1.913 A 2.669 2.669 0 0 1 47.021 1.907 A 2.65 2.65 0 0 1 47.539 1.955 Q 47.846 2.016 48.085 2.156 A 1.439 1.439 0 0 1 48.309 2.318 A 1.396 1.396 0 0 1 48.762 3.144 A 1.998 1.998 0 0 1 48.792 3.45 L 48.792 5.638 Q 48.792 6.073 48.866 6.39 A 1.707 1.707 0 0 0 48.959 6.68 L 48.959 6.75 Z M 41.915 6.75 L 39.696 6.75 L 39.696 0.352 L 41.788 0.352 A 4.031 4.031 0 0 1 42.36 0.39 Q 42.653 0.432 42.89 0.521 A 1.629 1.629 0 0 1 43.354 0.782 A 1.383 1.383 0 0 1 43.826 1.558 A 2.164 2.164 0 0 1 43.879 2.057 A 1.3 1.3 0 0 1 43.625 2.85 A 1.589 1.589 0 0 1 43.114 3.294 A 1.972 1.972 0 0 1 42.93 3.384 A 1.571 1.571 0 0 1 43.445 3.63 A 1.446 1.446 0 0 1 43.75 3.935 A 1.531 1.531 0 0 1 44.042 4.713 A 1.961 1.961 0 0 1 44.051 4.904 A 2.139 2.139 0 0 1 43.976 5.487 A 1.577 1.577 0 0 1 43.493 6.258 A 1.832 1.832 0 0 1 42.801 6.633 Q 42.534 6.713 42.215 6.739 A 3.81 3.81 0 0 1 41.915 6.75 Z M 75.133 0.352 L 75.133 6.06 L 78.166 6.06 L 78.166 6.75 L 74.285 6.75 L 74.285 0.352 L 75.133 0.352 Z M 65.171 0.352 L 65.171 4.601 L 66.059 4.601 L 66.059 5.265 L 65.171 5.265 L 65.171 6.75 L 64.354 6.75 L 64.354 5.265 L 61.44 5.265 L 61.44 4.786 L 64.305 0.352 L 65.171 0.352 Z M 70.569 2.592 A 1.544 1.544 0 0 0 70.673 2.021 A 2.226 2.226 0 0 0 70.651 1.707 A 1.566 1.566 0 0 0 70.152 0.738 A 1.754 1.754 0 0 0 69.386 0.333 A 2.443 2.443 0 0 0 68.788 0.264 A 2.539 2.539 0 0 0 68.278 0.312 A 1.767 1.767 0 0 0 67.421 0.738 Q 66.902 1.213 66.902 2.021 A 1.808 1.808 0 0 0 66.903 2.058 A 1.499 1.499 0 0 0 67.148 2.87 A 1.626 1.626 0 0 0 67.31 3.077 A 1.726 1.726 0 0 0 67.821 3.454 A 2.119 2.119 0 0 0 67.721 3.5 A 1.738 1.738 0 0 0 67.036 4.087 A 1.629 1.629 0 0 0 66.753 5.023 A 2.272 2.272 0 0 0 66.763 5.237 A 1.63 1.63 0 0 0 67.309 6.344 A 1.895 1.895 0 0 0 68.159 6.771 A 2.797 2.797 0 0 0 68.788 6.838 A 2.796 2.796 0 0 0 69.387 6.777 A 1.925 1.925 0 0 0 70.262 6.346 A 1.578 1.578 0 0 0 70.737 5.62 A 1.989 1.989 0 0 0 70.822 5.023 A 1.581 1.581 0 0 0 70.53 4.087 Q 70.238 3.674 69.737 3.458 Q 70.167 3.248 70.42 2.874 A 1.449 1.449 0 0 0 70.569 2.592 Z M 91.481 0.844 L 92.294 0.844 L 92.294 1.995 L 93.182 1.995 L 93.182 2.624 L 92.294 2.624 L 92.294 5.572 Q 92.294 5.858 92.413 6.001 Q 92.531 6.144 92.817 6.144 A 1.046 1.046 0 0 0 92.914 6.138 Q 93.017 6.129 93.157 6.101 A 4.024 4.024 0 0 0 93.204 6.091 L 93.204 6.75 A 2.463 2.463 0 0 1 92.771 6.829 A 2.157 2.157 0 0 1 92.58 6.838 Q 92.132 6.838 91.866 6.616 A 0.856 0.856 0 0 1 91.758 6.508 Q 91.53 6.238 91.49 5.78 A 2.351 2.351 0 0 1 91.481 5.572 L 91.481 2.624 L 90.615 2.624 L 90.615 1.995 L 91.481 1.995 L 91.481 0.844 Z M 2.043 4.386 L 2.043 4.329 A 3.057 3.057 0 0 1 2.13 3.587 A 2.573 2.573 0 0 1 2.318 3.072 A 2.16 2.16 0 0 1 2.733 2.486 A 1.957 1.957 0 0 1 3.083 2.21 A 2.036 2.036 0 0 1 4.027 1.913 A 2.491 2.491 0 0 1 4.201 1.907 A 2.277 2.277 0 0 1 4.955 2.027 A 1.937 1.937 0 0 1 5.772 2.58 A 2.29 2.29 0 0 1 6.291 3.608 A 3.373 3.373 0 0 1 6.372 4.368 L 6.372 4.425 A 3.114 3.114 0 0 1 6.293 5.142 A 2.577 2.577 0 0 1 6.106 5.671 A 2.056 2.056 0 0 1 5.579 6.361 A 2.001 2.001 0 0 1 5.346 6.53 A 2.045 2.045 0 0 1 4.426 6.829 A 2.529 2.529 0 0 1 4.21 6.838 A 2.262 2.262 0 0 1 3.46 6.718 A 1.938 1.938 0 0 1 2.643 6.166 A 2.297 2.297 0 0 1 2.118 5.111 A 3.357 3.357 0 0 1 2.043 4.386 Z M 0.844 0.352 L 0.844 6.75 L 0 6.75 L 0 0.352 L 0.844 0.352 Z M 26.024 1.995 L 26.024 6.75 L 25.211 6.75 L 25.211 1.995 L 26.024 1.995 Z M 79.884 1.995 L 79.884 6.75 L 79.071 6.75 L 79.071 1.995 L 79.884 1.995 Z M 2.861 4.425 A 2.772 2.772 0 0 0 2.908 4.954 Q 2.969 5.264 3.106 5.51 A 1.545 1.545 0 0 0 3.228 5.695 Q 3.595 6.174 4.21 6.174 A 1.269 1.269 0 0 0 4.699 6.083 Q 4.979 5.967 5.181 5.706 A 1.471 1.471 0 0 0 5.194 5.689 A 1.648 1.648 0 0 0 5.449 5.171 Q 5.518 4.945 5.544 4.672 A 3.655 3.655 0 0 0 5.559 4.329 A 2.687 2.687 0 0 0 5.508 3.789 Q 5.44 3.459 5.283 3.2 A 1.586 1.586 0 0 0 5.188 3.061 A 1.231 1.231 0 0 0 4.773 2.705 Q 4.52 2.575 4.201 2.575 Q 3.611 2.575 3.245 3.035 A 1.515 1.515 0 0 0 3.23 3.054 A 1.589 1.589 0 0 0 2.978 3.552 Q 2.908 3.772 2.88 4.039 A 3.676 3.676 0 0 0 2.861 4.425 Z M 35.297 5.449 L 35.297 3.278 A 1.439 1.439 0 0 0 34.996 2.891 Q 34.692 2.62 34.252 2.599 A 1.578 1.578 0 0 0 34.176 2.597 Q 33.584 2.597 33.251 3.056 A 1.51 1.51 0 0 0 33.04 3.484 Q 32.974 3.689 32.943 3.939 A 3.955 3.955 0 0 0 32.915 4.425 Q 32.915 5.229 33.245 5.689 Q 33.574 6.148 34.167 6.148 A 1.32 1.32 0 0 0 34.677 6.054 Q 35.069 5.891 35.297 5.449 Z M 84.19 5.449 L 84.19 3.278 A 1.439 1.439 0 0 0 83.889 2.891 Q 83.586 2.62 83.145 2.599 A 1.578 1.578 0 0 0 83.07 2.597 Q 82.478 2.597 82.144 3.056 A 1.51 1.51 0 0 0 81.933 3.484 Q 81.868 3.689 81.836 3.939 A 3.955 3.955 0 0 0 81.809 4.425 Q 81.809 5.229 82.138 5.689 Q 82.468 6.148 83.061 6.148 A 1.32 1.32 0 0 0 83.571 6.054 Q 83.962 5.891 84.19 5.449 Z M 41.946 3.757 L 40.54 3.757 L 40.54 6.06 L 41.933 6.06 A 1.84 1.84 0 0 0 42.308 6.024 Q 42.548 5.974 42.732 5.854 A 1.064 1.064 0 0 0 42.862 5.755 A 1.003 1.003 0 0 0 43.184 5.154 A 1.459 1.459 0 0 0 43.203 4.913 Q 43.203 4.007 42.43 3.811 A 1.977 1.977 0 0 0 41.946 3.757 Z M 64.257 1.639 L 62.363 4.601 L 64.354 4.601 L 64.354 1.463 L 64.257 1.639 Z M 40.54 1.046 L 40.54 3.081 L 41.814 3.081 Q 42.368 3.081 42.699 2.804 A 0.905 0.905 0 0 0 43.027 2.154 A 1.27 1.27 0 0 0 43.031 2.052 Q 43.031 1.696 42.891 1.471 A 0.71 0.71 0 0 0 42.724 1.285 A 0.969 0.969 0 0 0 42.438 1.136 Q 42.175 1.047 41.793 1.046 A 3.261 3.261 0 0 0 41.788 1.046 L 40.54 1.046 Z M 70.009 5.005 A 1.375 1.375 0 0 0 69.95 4.592 A 1.109 1.109 0 0 0 69.669 4.131 A 1.148 1.148 0 0 0 68.997 3.807 A 1.593 1.593 0 0 0 68.779 3.792 A 1.466 1.466 0 0 0 68.39 3.841 A 1.086 1.086 0 0 0 67.898 4.126 A 1.123 1.123 0 0 0 67.584 4.762 A 1.572 1.572 0 0 0 67.566 5.005 A 1.48 1.48 0 0 0 67.608 5.367 A 1.019 1.019 0 0 0 67.889 5.862 Q 68.195 6.158 68.728 6.173 A 2.053 2.053 0 0 0 68.788 6.174 Q 69.281 6.174 69.591 5.94 A 1.018 1.018 0 0 0 69.684 5.86 A 1.041 1.041 0 0 0 69.983 5.292 A 1.518 1.518 0 0 0 70.009 5.005 Z M 68.788 0.932 A 1.259 1.259 0 0 0 68.435 0.979 A 0.973 0.973 0 0 0 68.012 1.228 Q 67.715 1.525 67.715 2.035 A 1.325 1.325 0 0 0 67.76 2.387 A 0.994 0.994 0 0 0 68.008 2.823 A 0.974 0.974 0 0 0 68.57 3.108 A 1.382 1.382 0 0 0 68.788 3.125 A 1.279 1.279 0 0 0 69.132 3.08 A 0.952 0.952 0 0 0 69.568 2.823 A 1.018 1.018 0 0 0 69.843 2.26 A 1.426 1.426 0 0 0 69.86 2.035 A 1.282 1.282 0 0 0 69.81 1.668 A 1.013 1.013 0 0 0 69.557 1.239 Q 69.253 0.932 68.788 0.932 Z M 47.979 5.418 L 47.979 4.443 L 47.342 4.443 Q 45.848 4.443 45.848 5.317 Q 45.848 5.7 46.103 5.915 A 0.893 0.893 0 0 0 46.517 6.108 A 1.259 1.259 0 0 0 46.758 6.13 A 1.429 1.429 0 0 0 47.483 5.933 A 1.335 1.335 0 0 0 47.778 5.705 A 1.108 1.108 0 0 0 47.979 5.418 Z M 25.146 0.734 Q 25.146 0.536 25.266 0.4 Q 25.378 0.274 25.59 0.264 A 0.783 0.783 0 0 1 25.625 0.264 Q 25.862 0.264 25.985 0.4 A 0.474 0.474 0 0 1 26.107 0.703 A 0.614 0.614 0 0 1 26.108 0.734 A 0.523 0.523 0 0 1 26.083 0.9 A 0.442 0.442 0 0 1 25.985 1.063 Q 25.872 1.184 25.664 1.194 A 0.803 0.803 0 0 1 25.625 1.195 Q 25.452 1.195 25.341 1.126 A 0.362 0.362 0 0 1 25.266 1.063 A 0.456 0.456 0 0 1 25.148 0.788 A 0.605 0.605 0 0 1 25.146 0.734 Z M 79.005 0.734 Q 79.005 0.536 79.126 0.4 Q 79.238 0.274 79.449 0.264 A 0.783 0.783 0 0 1 79.484 0.264 Q 79.721 0.264 79.844 0.4 A 0.474 0.474 0 0 1 79.967 0.703 A 0.614 0.614 0 0 1 79.967 0.734 A 0.523 0.523 0 0 1 79.942 0.9 A 0.442 0.442 0 0 1 79.844 1.063 Q 79.732 1.184 79.524 1.194 A 0.803 0.803 0 0 1 79.484 1.195 Q 79.312 1.195 79.201 1.126 A 0.362 0.362 0 0 1 79.126 1.063 A 0.456 0.456 0 0 1 79.007 0.788 A 0.605 0.605 0 0 1 79.005 0.734 Z" vector-effect="non-scaling-stroke"/></g>
</svg>