<?xml version="1.0" encoding="UTF-8"?>
<svg width="80px" height="80px" viewBox="0 0 80 80" version="1.1" xmlns="http://www.w3.org/2000/svg" xmlns:xlink="http://www.w3.org/1999/xlink">
    <!-- Generator: Sketch 64 (93537) - https://sketch.com -->
    <title>Icon-Architecture/64/Arch_Amazon-Kinesis-Firehose_64</title>
    <desc>Created with Sketch.</desc>
    
    <g id="Icon-Architecture/64/Arch_Amazon-Kinesis-Firehose_64" stroke="none" stroke-width="1" fill="none" fill-rule="evenodd">
        
        <g id="Icon-Service/64/Amazon-Kinesis-Data-Firehose" transform="translate(16, 8), scale(.65)" fill="#000000">
            <path d="M58.625,36.072 L57.883,37.928 C54.685,36.649 50.784,36 46.288,36 L46.288,34 C51.04,34 55.19,34.697 58.625,36.072 L58.625,36.072 Z M57.938,34.949 C55.032,33.984 49.152,33 46.288,33 L46.288,31 C49.184,31 55.039,30.017 57.892,29.053 L58.532,30.947 C57.438,31.318 55.96,31.684 54.372,32.004 C55.979,32.323 57.476,32.688 58.569,33.051 L57.938,34.949 Z M58.611,27.934 C55.03,29.305 50.884,30 46.288,30 L46.288,28 C50.639,28 54.544,27.349 57.896,26.066 L58.611,27.934 Z M42.255,35.219 L32.255,37.719 L32.255,26.281 L42.255,28.781 L42.255,35.219 Z M30.255,40 L27.255,40 L27.255,24 L30.255,24 L30.255,25 L30.255,39 L30.255,40 Z M43.497,27.03 L32.255,24.219 L32.255,23 C32.255,22.448 31.808,22 31.255,22 L26.255,22 C25.702,22 25.255,22.448 25.255,23 L25.255,23.93 C10.053,22.821 8.255,16.619 8.255,12 L8.255,7 L6.255,7 L6.255,12 C6.255,20.469 12.485,25.023 25.255,25.927 L25.255,26.963 C17.492,26.652 11.918,25.427 7.786,23.127 L6.813,24.874 C11.242,27.341 17.126,28.644 25.255,28.964 L25.255,30.978 C19.607,30.844 11.956,30.47 6.51,29.033 L6,30.967 C7.633,31.398 9.449,31.734 11.342,32 C9.449,32.267 7.633,32.603 6,33.033 L6.51,34.967 C11.957,33.53 19.608,33.156 25.255,33.023 L25.255,35.037 C17.171,35.353 11.29,36.656 6.816,39.125 L7.783,40.876 C11.958,38.572 17.545,37.356 25.255,37.047 L25.255,38.068 C8.76,39.282 6.255,47.902 6.255,53 L6.253,53.392 C6.236,56.616 6.246,56.974 6.261,57.107 L8.252,56.922 C8.241,56.74 8.242,55.556 8.253,53.403 L8.255,53 C8.255,45.38 14.138,40.933 25.255,40.08 L25.255,41 C25.255,41.552 25.702,42 26.255,42 L31.255,42 C31.808,42 32.255,41.552 32.255,41 L32.255,39.781 L43.497,36.97 C43.942,36.859 44.255,36.459 44.255,36 L44.255,28 C44.255,27.541 43.942,27.141 43.497,27.03 L43.497,27.03 Z" id="Amazon-Kinesis-Data-Firehose_Icon_64_Squid"></path>
        </g>
    </g><g transform="translate(7.713500000000003, 64), scale(0.75)" id="svgGroup" stroke-linecap="round" fill-rule="evenodd" font-size="9pt" stroke="#000" stroke-width="0.25mm" fill="#000" style="stroke:#000;stroke-width:0.25mm;fill:#000"><path d="M 3.894 6.75 L 1.626 3.775 L 0.844 4.588 L 0.844 6.75 L 0 6.75 L 0 0.352 L 0.844 0.352 L 0.844 3.516 L 3.687 0.352 L 4.707 0.352 L 2.188 3.177 L 4.904 6.75 L 3.894 6.75 Z M 46.828 0 L 46.828 2.571 A 1.767 1.767 0 0 1 47.494 2.053 A 1.832 1.832 0 0 1 48.234 1.907 A 1.905 1.905 0 0 1 48.868 2.004 Q 49.71 2.3 49.753 3.506 A 3.668 3.668 0 0 1 49.755 3.608 L 49.755 6.75 L 48.942 6.75 L 48.942 3.604 A 1.837 1.837 0 0 0 48.92 3.324 Q 48.869 3.017 48.707 2.843 Q 48.521 2.645 48.167 2.606 A 1.66 1.66 0 0 0 47.988 2.597 A 1.253 1.253 0 0 0 47.574 2.664 A 1.123 1.123 0 0 0 47.294 2.808 A 1.432 1.432 0 0 0 46.828 3.362 L 46.828 6.75 L 46.015 6.75 L 46.015 0 L 46.828 0 Z M 34.783 3.234 L 34.783 3.924 L 32.098 3.924 L 32.098 6.75 L 31.254 6.75 L 31.254 0.352 L 35.218 0.352 L 35.218 1.046 L 32.098 1.046 L 32.098 3.234 L 34.783 3.234 Z M 20.971 3.393 L 20.153 3.393 Q 20.153 3.059 19.87 2.817 Q 19.586 2.575 19.156 2.575 Q 18.712 2.575 18.461 2.769 A 0.653 0.653 0 0 0 18.286 2.967 Q 18.213 3.098 18.211 3.263 A 0.771 0.771 0 0 0 18.211 3.274 A 0.588 0.588 0 0 0 18.241 3.467 A 0.48 0.48 0 0 0 18.444 3.718 A 1.093 1.093 0 0 0 18.594 3.796 Q 18.758 3.868 19.014 3.937 A 6.581 6.581 0 0 0 19.285 4.003 A 6.318 6.318 0 0 1 19.693 4.108 Q 20.03 4.208 20.272 4.329 A 1.901 1.901 0 0 1 20.528 4.481 Q 20.665 4.579 20.762 4.692 A 1.06 1.06 0 0 1 20.832 4.783 A 1.024 1.024 0 0 1 20.995 5.191 A 1.388 1.388 0 0 1 21.015 5.432 Q 21.015 6.069 20.505 6.453 Q 20.022 6.817 19.269 6.837 A 3.337 3.337 0 0 1 19.182 6.838 A 2.746 2.746 0 0 1 18.648 6.788 A 2.124 2.124 0 0 1 18.171 6.636 A 1.771 1.771 0 0 1 17.737 6.358 A 1.54 1.54 0 0 1 17.484 6.071 Q 17.235 5.708 17.235 5.287 L 18.048 5.287 A 0.932 0.932 0 0 0 18.122 5.612 A 0.827 0.827 0 0 0 18.376 5.935 A 1.072 1.072 0 0 0 18.778 6.128 Q 18.932 6.167 19.114 6.173 A 2.013 2.013 0 0 0 19.182 6.174 A 1.863 1.863 0 0 0 19.478 6.152 Q 19.639 6.126 19.771 6.07 A 0.941 0.941 0 0 0 19.923 5.988 A 0.689 0.689 0 0 0 20.087 5.837 A 0.554 0.554 0 0 0 20.202 5.489 A 0.698 0.698 0 0 0 20.165 5.258 A 0.581 0.581 0 0 0 19.953 4.977 A 1.05 1.05 0 0 0 19.785 4.878 Q 19.596 4.788 19.301 4.712 A 5.392 5.392 0 0 0 19.088 4.663 A 6.342 6.342 0 0 1 18.727 4.575 Q 18.357 4.473 18.108 4.346 Q 17.809 4.194 17.638 3.994 A 1.017 1.017 0 0 1 17.572 3.907 Q 17.398 3.652 17.398 3.3 A 1.206 1.206 0 0 1 17.797 2.396 A 1.694 1.694 0 0 1 17.892 2.312 A 1.752 1.752 0 0 1 18.675 1.952 A 2.471 2.471 0 0 1 19.156 1.907 A 2.559 2.559 0 0 1 19.719 1.966 A 1.757 1.757 0 0 1 20.468 2.325 Q 20.971 2.742 20.971 3.393 Z M 27.795 3.393 L 26.978 3.393 Q 26.978 3.059 26.695 2.817 Q 26.411 2.575 25.98 2.575 Q 25.537 2.575 25.286 2.769 A 0.653 0.653 0 0 0 25.111 2.967 Q 25.038 3.098 25.036 3.263 A 0.771 0.771 0 0 0 25.036 3.274 A 0.588 0.588 0 0 0 25.066 3.467 A 0.48 0.48 0 0 0 25.269 3.718 A 1.093 1.093 0 0 0 25.419 3.796 Q 25.583 3.868 25.839 3.937 A 6.581 6.581 0 0 0 26.11 4.003 A 6.318 6.318 0 0 1 26.518 4.108 Q 26.855 4.208 27.097 4.329 A 1.901 1.901 0 0 1 27.353 4.481 Q 27.489 4.579 27.587 4.692 A 1.06 1.06 0 0 1 27.657 4.783 A 1.024 1.024 0 0 1 27.819 5.191 A 1.388 1.388 0 0 1 27.839 5.432 Q 27.839 6.069 27.33 6.453 Q 26.847 6.817 26.093 6.837 A 3.337 3.337 0 0 1 26.007 6.838 A 2.746 2.746 0 0 1 25.472 6.788 A 2.124 2.124 0 0 1 24.996 6.636 A 1.771 1.771 0 0 1 24.562 6.358 A 1.54 1.54 0 0 1 24.308 6.071 Q 24.06 5.708 24.06 5.287 L 24.873 5.287 A 0.932 0.932 0 0 0 24.947 5.612 A 0.827 0.827 0 0 0 25.2 5.935 A 1.072 1.072 0 0 0 25.603 6.128 Q 25.757 6.167 25.939 6.173 A 2.013 2.013 0 0 0 26.007 6.174 A 1.863 1.863 0 0 0 26.303 6.152 Q 26.464 6.126 26.596 6.07 A 0.941 0.941 0 0 0 26.747 5.988 A 0.689 0.689 0 0 0 26.912 5.837 A 0.554 0.554 0 0 0 27.026 5.489 A 0.698 0.698 0 0 0 26.99 5.258 A 0.581 0.581 0 0 0 26.778 4.977 A 1.05 1.05 0 0 0 26.609 4.878 Q 26.42 4.788 26.125 4.712 A 5.392 5.392 0 0 0 25.912 4.663 A 6.342 6.342 0 0 1 25.551 4.575 Q 25.182 4.473 24.932 4.346 Q 24.634 4.194 24.463 3.994 A 1.017 1.017 0 0 1 24.396 3.907 Q 24.223 3.652 24.223 3.3 A 1.206 1.206 0 0 1 24.622 2.396 A 1.694 1.694 0 0 1 24.717 2.312 A 1.752 1.752 0 0 1 25.5 1.952 A 2.471 2.471 0 0 1 25.98 1.907 A 2.559 2.559 0 0 1 26.544 1.966 A 1.757 1.757 0 0 1 27.292 2.325 Q 27.795 2.742 27.795 3.393 Z M 59.643 3.393 L 58.825 3.393 Q 58.825 3.059 58.542 2.817 Q 58.258 2.575 57.828 2.575 Q 57.384 2.575 57.133 2.769 A 0.653 0.653 0 0 0 56.958 2.967 Q 56.885 3.098 56.883 3.263 A 0.771 0.771 0 0 0 56.883 3.274 A 0.588 0.588 0 0 0 56.913 3.467 A 0.48 0.48 0 0 0 57.116 3.718 A 1.093 1.093 0 0 0 57.266 3.796 Q 57.43 3.868 57.686 3.937 A 6.581 6.581 0 0 0 57.957 4.003 A 6.318 6.318 0 0 1 58.365 4.108 Q 58.702 4.208 58.944 4.329 A 1.901 1.901 0 0 1 59.2 4.481 Q 59.337 4.579 59.434 4.692 A 1.06 1.06 0 0 1 59.504 4.783 A 1.024 1.024 0 0 1 59.666 5.191 A 1.388 1.388 0 0 1 59.687 5.432 Q 59.687 6.069 59.177 6.453 Q 58.694 6.817 57.94 6.837 A 3.337 3.337 0 0 1 57.854 6.838 A 2.746 2.746 0 0 1 57.32 6.788 A 2.124 2.124 0 0 1 56.843 6.636 A 1.771 1.771 0 0 1 56.409 6.358 A 1.54 1.54 0 0 1 56.156 6.071 Q 55.907 5.708 55.907 5.287 L 56.72 5.287 A 0.932 0.932 0 0 0 56.794 5.612 A 0.827 0.827 0 0 0 57.048 5.935 A 1.072 1.072 0 0 0 57.45 6.128 Q 57.604 6.167 57.786 6.173 A 2.013 2.013 0 0 0 57.854 6.174 A 1.863 1.863 0 0 0 58.15 6.152 Q 58.311 6.126 58.443 6.07 A 0.941 0.941 0 0 0 58.594 5.988 A 0.689 0.689 0 0 0 58.759 5.837 A 0.554 0.554 0 0 0 58.874 5.489 A 0.698 0.698 0 0 0 58.837 5.258 A 0.581 0.581 0 0 0 58.625 4.977 A 1.05 1.05 0 0 0 58.456 4.878 Q 58.268 4.788 57.973 4.712 A 5.392 5.392 0 0 0 57.76 4.663 A 6.342 6.342 0 0 1 57.399 4.575 Q 57.029 4.473 56.78 4.346 Q 56.481 4.194 56.31 3.994 A 1.017 1.017 0 0 1 56.243 3.907 Q 56.07 3.652 56.07 3.3 A 1.206 1.206 0 0 1 56.469 2.396 A 1.694 1.694 0 0 1 56.564 2.312 A 1.752 1.752 0 0 1 57.347 1.952 A 2.471 2.471 0 0 1 57.828 1.907 A 2.559 2.559 0 0 1 58.391 1.966 A 1.757 1.757 0 0 1 59.139 2.325 Q 59.643 2.742 59.643 3.393 Z M 7.699 1.995 L 8.468 1.995 L 8.495 2.593 Q 9.031 1.918 9.891 1.907 A 2.234 2.234 0 0 1 9.918 1.907 A 1.905 1.905 0 0 1 10.552 2.004 Q 11.394 2.3 11.437 3.506 A 3.668 3.668 0 0 1 11.439 3.608 L 11.439 6.75 L 10.626 6.75 L 10.626 3.604 A 1.837 1.837 0 0 0 10.604 3.324 Q 10.554 3.017 10.391 2.843 Q 10.205 2.645 9.851 2.606 A 1.66 1.66 0 0 0 9.672 2.597 A 1.253 1.253 0 0 0 9.258 2.664 A 1.123 1.123 0 0 0 8.978 2.808 A 1.432 1.432 0 0 0 8.512 3.362 L 8.512 6.75 L 7.699 6.75 L 7.699 1.995 Z M 12.458 4.504 L 12.458 4.355 A 3.17 3.17 0 0 1 12.535 3.646 A 2.581 2.581 0 0 1 12.729 3.092 A 2.191 2.191 0 0 1 13.176 2.466 A 2.033 2.033 0 0 1 13.485 2.221 Q 13.97 1.907 14.537 1.907 A 2.254 2.254 0 0 1 15.15 1.986 A 1.639 1.639 0 0 1 15.979 2.518 Q 16.493 3.129 16.493 4.267 L 16.493 4.605 L 13.271 4.605 A 2.111 2.111 0 0 0 13.343 5.114 A 1.516 1.516 0 0 0 13.682 5.741 A 1.282 1.282 0 0 0 14.616 6.173 A 1.652 1.652 0 0 0 14.682 6.174 A 1.763 1.763 0 0 0 15.01 6.145 Q 15.234 6.103 15.412 5.999 A 1.827 1.827 0 0 0 15.92 5.551 A 2.068 2.068 0 0 0 15.935 5.533 L 16.431 5.919 A 1.926 1.926 0 0 1 15.031 6.811 A 2.749 2.749 0 0 1 14.638 6.838 A 2.394 2.394 0 0 1 13.887 6.725 A 1.974 1.974 0 0 1 13.065 6.203 Q 12.458 5.568 12.458 4.504 Z M 41.041 4.504 L 41.041 4.355 A 3.17 3.17 0 0 1 41.117 3.646 A 2.581 2.581 0 0 1 41.311 3.092 A 2.191 2.191 0 0 1 41.758 2.466 A 2.033 2.033 0 0 1 42.067 2.221 Q 42.552 1.907 43.119 1.907 A 2.254 2.254 0 0 1 43.732 1.986 A 1.639 1.639 0 0 1 44.561 2.518 Q 45.075 3.129 45.075 4.267 L 45.075 4.605 L 41.854 4.605 A 2.111 2.111 0 0 0 41.925 5.114 A 1.516 1.516 0 0 0 42.264 5.741 A 1.282 1.282 0 0 0 43.198 6.173 A 1.652 1.652 0 0 0 43.264 6.174 A 1.763 1.763 0 0 0 43.592 6.145 Q 43.816 6.103 43.994 5.999 A 1.827 1.827 0 0 0 44.503 5.551 A 2.068 2.068 0 0 0 44.517 5.533 L 45.013 5.919 A 1.926 1.926 0 0 1 43.613 6.811 A 2.749 2.749 0 0 1 43.22 6.838 A 2.394 2.394 0 0 1 42.469 6.725 A 1.974 1.974 0 0 1 41.647 6.203 Q 41.041 5.568 41.041 4.504 Z M 60.539 4.504 L 60.539 4.355 A 3.17 3.17 0 0 1 60.615 3.646 A 2.581 2.581 0 0 1 60.809 3.092 A 2.191 2.191 0 0 1 61.257 2.466 A 2.033 2.033 0 0 1 61.565 2.221 Q 62.051 1.907 62.618 1.907 A 2.254 2.254 0 0 1 63.231 1.986 A 1.639 1.639 0 0 1 64.059 2.518 Q 64.573 3.129 64.573 4.267 L 64.573 4.605 L 61.352 4.605 A 2.111 2.111 0 0 0 61.423 5.114 A 1.516 1.516 0 0 0 61.763 5.741 A 1.282 1.282 0 0 0 62.697 6.173 A 1.652 1.652 0 0 0 62.763 6.174 A 1.763 1.763 0 0 0 63.091 6.145 Q 63.315 6.103 63.492 5.999 A 1.827 1.827 0 0 0 64.001 5.551 A 2.068 2.068 0 0 0 64.015 5.533 L 64.512 5.919 A 1.926 1.926 0 0 1 63.112 6.811 A 2.749 2.749 0 0 1 62.719 6.838 A 2.394 2.394 0 0 1 61.968 6.725 A 1.974 1.974 0 0 1 61.146 6.203 Q 60.539 5.568 60.539 4.504 Z M 50.757 4.386 L 50.757 4.329 A 3.057 3.057 0 0 1 50.844 3.587 A 2.573 2.573 0 0 1 51.031 3.072 A 2.16 2.16 0 0 1 51.446 2.486 A 1.957 1.957 0 0 1 51.796 2.21 A 2.036 2.036 0 0 1 52.741 1.913 A 2.491 2.491 0 0 1 52.915 1.907 A 2.277 2.277 0 0 1 53.668 2.027 A 1.937 1.937 0 0 1 54.486 2.58 A 2.29 2.29 0 0 1 55.005 3.608 A 3.373 3.373 0 0 1 55.085 4.368 L 55.085 4.425 A 3.114 3.114 0 0 1 55.006 5.142 A 2.577 2.577 0 0 1 54.82 5.671 A 2.056 2.056 0 0 1 54.292 6.361 A 2.001 2.001 0 0 1 54.059 6.53 A 2.045 2.045 0 0 1 53.14 6.829 A 2.529 2.529 0 0 1 52.923 6.838 A 2.262 2.262 0 0 1 52.173 6.718 A 1.938 1.938 0 0 1 51.357 6.166 A 2.297 2.297 0 0 1 50.831 5.111 A 3.357 3.357 0 0 1 50.757 4.386 Z M 40.583 1.969 L 40.583 2.725 A 2.251 2.251 0 0 0 40.341 2.698 A 2.782 2.782 0 0 0 40.184 2.694 Q 39.406 2.694 39.114 3.338 A 1.445 1.445 0 0 0 39.098 3.375 L 39.098 6.75 L 38.285 6.75 L 38.285 1.995 L 39.076 1.995 L 39.089 2.544 Q 39.47 1.938 40.152 1.909 A 1.636 1.636 0 0 1 40.223 1.907 Q 40.46 1.907 40.583 1.969 Z M 6.398 1.995 L 6.398 6.75 L 5.585 6.75 L 5.585 1.995 L 6.398 1.995 Z M 22.957 1.995 L 22.957 6.75 L 22.144 6.75 L 22.144 1.995 L 22.957 1.995 Z M 36.984 1.995 L 36.984 6.75 L 36.171 6.75 L 36.171 1.995 L 36.984 1.995 Z M 51.574 4.425 A 2.772 2.772 0 0 0 51.622 4.954 Q 51.682 5.264 51.819 5.51 A 1.545 1.545 0 0 0 51.941 5.695 Q 52.308 6.174 52.923 6.174 A 1.269 1.269 0 0 0 53.413 6.083 Q 53.692 5.967 53.895 5.706 A 1.471 1.471 0 0 0 53.908 5.689 A 1.648 1.648 0 0 0 54.163 5.171 Q 54.231 4.945 54.257 4.672 A 3.655 3.655 0 0 0 54.272 4.329 A 2.687 2.687 0 0 0 54.221 3.789 Q 54.154 3.459 53.996 3.2 A 1.586 1.586 0 0 0 53.901 3.061 A 1.231 1.231 0 0 0 53.486 2.705 Q 53.233 2.575 52.915 2.575 Q 52.325 2.575 51.958 3.035 A 1.515 1.515 0 0 0 51.943 3.054 A 1.589 1.589 0 0 0 51.691 3.552 Q 51.622 3.772 51.594 4.039 A 3.676 3.676 0 0 0 51.574 4.425 Z M 13.298 3.938 L 15.68 3.938 L 15.68 3.876 Q 15.654 3.417 15.483 3.111 A 1.13 1.13 0 0 0 15.346 2.916 A 0.983 0.983 0 0 0 14.691 2.584 A 1.39 1.39 0 0 0 14.537 2.575 A 1.106 1.106 0 0 0 14.015 2.698 A 1.14 1.14 0 0 0 13.711 2.933 A 1.417 1.417 0 0 0 13.434 3.379 Q 13.361 3.563 13.321 3.785 A 2.741 2.741 0 0 0 13.298 3.938 Z M 41.88 3.938 L 44.262 3.938 L 44.262 3.876 Q 44.236 3.417 44.065 3.111 A 1.13 1.13 0 0 0 43.928 2.916 A 0.983 0.983 0 0 0 43.273 2.584 A 1.39 1.39 0 0 0 43.119 2.575 A 1.106 1.106 0 0 0 42.597 2.698 A 1.14 1.14 0 0 0 42.293 2.933 A 1.417 1.417 0 0 0 42.016 3.379 Q 41.943 3.563 41.903 3.785 A 2.741 2.741 0 0 0 41.88 3.938 Z M 61.378 3.938 L 63.76 3.938 L 63.76 3.876 Q 63.734 3.417 63.564 3.111 A 1.13 1.13 0 0 0 63.426 2.916 A 0.983 0.983 0 0 0 62.772 2.584 A 1.39 1.39 0 0 0 62.618 2.575 A 1.106 1.106 0 0 0 62.095 2.698 A 1.14 1.14 0 0 0 61.792 2.933 A 1.417 1.417 0 0 0 61.515 3.379 Q 61.441 3.563 61.401 3.785 A 2.741 2.741 0 0 0 61.378 3.938 Z M 5.52 0.734 Q 5.52 0.536 5.64 0.4 Q 5.752 0.274 5.964 0.264 A 0.783 0.783 0 0 1 5.999 0.264 Q 6.236 0.264 6.359 0.4 A 0.474 0.474 0 0 1 6.481 0.703 A 0.614 0.614 0 0 1 6.482 0.734 A 0.523 0.523 0 0 1 6.457 0.9 A 0.442 0.442 0 0 1 6.359 1.063 Q 6.246 1.184 6.038 1.194 A 0.803 0.803 0 0 1 5.999 1.195 Q 5.826 1.195 5.715 1.126 A 0.362 0.362 0 0 1 5.64 1.063 A 0.456 0.456 0 0 1 5.522 0.788 A 0.605 0.605 0 0 1 5.52 0.734 Z M 22.078 0.734 Q 22.078 0.536 22.199 0.4 Q 22.311 0.274 22.523 0.264 A 0.783 0.783 0 0 1 22.557 0.264 Q 22.794 0.264 22.917 0.4 A 0.474 0.474 0 0 1 23.04 0.703 A 0.614 0.614 0 0 1 23.041 0.734 A 0.523 0.523 0 0 1 23.015 0.9 A 0.442 0.442 0 0 1 22.917 1.063 Q 22.805 1.184 22.597 1.194 A 0.803 0.803 0 0 1 22.557 1.195 Q 22.385 1.195 22.274 1.126 A 0.362 0.362 0 0 1 22.199 1.063 A 0.456 0.456 0 0 1 22.081 0.788 A 0.605 0.605 0 0 1 22.078 0.734 Z M 36.105 0.734 Q 36.105 0.536 36.226 0.4 Q 36.338 0.274 36.55 0.264 A 0.783 0.783 0 0 1 36.584 0.264 Q 36.822 0.264 36.945 0.4 A 0.474 0.474 0 0 1 37.067 0.703 A 0.614 0.614 0 0 1 37.068 0.734 A 0.523 0.523 0 0 1 37.043 0.9 A 0.442 0.442 0 0 1 36.945 1.063 Q 36.832 1.184 36.624 1.194 A 0.803 0.803 0 0 1 36.584 1.195 Q 36.412 1.195 36.301 1.126 A 0.362 0.362 0 0 1 36.226 1.063 A 0.456 0.456 0 0 1 36.108 0.788 A 0.605 0.605 0 0 1 36.105 0.734 Z" vector-effect="non-scaling-stroke"/></g>
</svg>