<?xml version="1.0" encoding="UTF-8"?>
<svg width="80px" height="80px" viewBox="0 0 80 80" version="1.1" xmlns="http://www.w3.org/2000/svg" xmlns:xlink="http://www.w3.org/1999/xlink">
    <!-- Generator: Sketch 64 (93537) - https://sketch.com -->
    <title>Icon-Architecture/64/Arch_Amazon-Kinesis-Data-Analytics_64</title>
    <desc>Created with Sketch.</desc>
    
    <g id="Icon-Architecture/64/Arch_Amazon-Kinesis-Data-Analytics_64" stroke="none" stroke-width="1" fill="none" fill-rule="evenodd">
        
        <g id="Icon-Service/64/Amazon-Kinesis-Data-Analytics" transform="translate(16, 8), scale(.65)" fill="#000000">
            <path d="M11,54 L13,54 C13,49.013 14.699,43.493 27.016,40.106 L27.016,38.039 C12.849,41.788 11,48.521 11,54 L11,54 Z M17,60 L19,60 C19,55.399 19.016,49.733 27.016,45.781 L27.016,43.565 C17.008,48.052 17,54.942 17,60 L17,60 Z M57,39 L31,39 L31,58 L33,58 L33,49 C33,48.448 33.447,48 34,48 L38,48 C38.553,48 39,48.448 39,49 L39,58 L41,58 L41,46 C41,45.448 41.447,45 42,45 L46,45 C46.553,45 47,45.448 47,46 L47,58 L49,58 L49,43 C49,42.448 49.447,42 50,42 L54,42 C54.553,42 55,42.448 55,43 L55,58 L57,58 L57,39 Z M51,58 L53,58 L53,44 L51,44 L51,58 Z M43,58 L45,58 L45,47 L43,47 L43,58 Z M35,58 L37,58 L37,50 L35,50 L35,58 Z M59,38 L59,59 C59,59.552 58.553,60 58,60 L30,60 C29.447,60 29,59.552 29,59 L29,38 C29,37.448 29.447,37 30,37 L58,37 C58.553,37 59,37.448 59,38 L59,38 Z M7,18 L5,18 C5,25.396 15.039,30.08 34.893,32 C15.039,33.92 5,38.604 5,46 L7,46 C7,41.145 13.756,33 59,33 L59,31 C13.756,31 7,22.855 7,18 L7,18 Z M13,10 L11,10 C11,19.396 16.703,29 59,29 L59,27 C18.465,27 13,18.406 13,10 L13,10 Z M59,23 L59,25 C40.663,25 28.728,22.641 22.51,17.788 C17,13.488 17,8.004 17,4 L19,4 C19,11.566 19,23 59,23 L59,23 Z" id="Amazon-Kinesis-Data-Analytics_Icon_64_Squid"></path>
        </g>
    </g><g id="svgGroup" stroke-linecap="round" fill-rule="evenodd" font-size="9pt" stroke="#000" stroke-width="0.25mm" fill="#000" style="stroke:#000;stroke-width:0.25mm;fill:#000"><path d="M 3.894 6.486 L 1.626 3.511 L 0.844 4.324 L 0.844 6.486 L 0 6.486 L 0 0.088 L 0.844 0.088 L 0.844 3.252 L 3.687 0.088 L 4.707 0.088 L 2.188 2.914 L 4.904 6.486 L 3.894 6.486 Z M 20.971 3.129 L 20.153 3.129 Q 20.153 2.795 19.87 2.553 Q 19.586 2.312 19.156 2.312 Q 18.712 2.312 18.461 2.505 A 0.653 0.653 0 0 0 18.286 2.704 Q 18.213 2.835 18.211 3 A 0.771 0.771 0 0 0 18.211 3.01 A 0.588 0.588 0 0 0 18.241 3.203 A 0.48 0.48 0 0 0 18.444 3.454 A 1.093 1.093 0 0 0 18.594 3.533 Q 18.758 3.605 19.014 3.673 A 6.581 6.581 0 0 0 19.285 3.74 A 6.318 6.318 0 0 1 19.693 3.844 Q 20.03 3.944 20.272 4.065 A 1.901 1.901 0 0 1 20.528 4.217 Q 20.665 4.315 20.762 4.429 A 1.06 1.06 0 0 1 20.832 4.52 A 1.024 1.024 0 0 1 20.995 4.927 A 1.388 1.388 0 0 1 21.015 5.168 Q 21.015 5.805 20.505 6.19 Q 20.022 6.554 19.269 6.573 A 3.337 3.337 0 0 1 19.182 6.574 A 2.746 2.746 0 0 1 18.648 6.524 A 2.124 2.124 0 0 1 18.171 6.372 A 1.771 1.771 0 0 1 17.737 6.094 A 1.54 1.54 0 0 1 17.484 5.807 Q 17.235 5.445 17.235 5.023 L 18.048 5.023 A 0.932 0.932 0 0 0 18.122 5.348 A 0.827 0.827 0 0 0 18.376 5.671 A 1.072 1.072 0 0 0 18.778 5.864 Q 18.932 5.903 19.114 5.91 A 2.013 2.013 0 0 0 19.182 5.911 A 1.863 1.863 0 0 0 19.478 5.889 Q 19.639 5.863 19.771 5.806 A 0.941 0.941 0 0 0 19.923 5.724 A 0.689 0.689 0 0 0 20.087 5.573 A 0.554 0.554 0 0 0 20.202 5.225 A 0.698 0.698 0 0 0 20.165 4.994 A 0.581 0.581 0 0 0 19.953 4.713 A 1.05 1.05 0 0 0 19.785 4.615 Q 19.596 4.524 19.301 4.449 A 5.392 5.392 0 0 0 19.088 4.399 A 6.342 6.342 0 0 1 18.727 4.311 Q 18.357 4.209 18.108 4.083 Q 17.809 3.93 17.638 3.731 A 1.017 1.017 0 0 1 17.572 3.643 Q 17.398 3.388 17.398 3.037 A 1.206 1.206 0 0 1 17.797 2.132 A 1.694 1.694 0 0 1 17.892 2.048 A 1.752 1.752 0 0 1 18.675 1.688 A 2.471 2.471 0 0 1 19.156 1.644 A 2.559 2.559 0 0 1 19.719 1.702 A 1.757 1.757 0 0 1 20.468 2.061 Q 20.971 2.479 20.971 3.129 Z M 27.795 3.129 L 26.978 3.129 Q 26.978 2.795 26.695 2.553 Q 26.411 2.312 25.98 2.312 Q 25.537 2.312 25.286 2.505 A 0.653 0.653 0 0 0 25.111 2.704 Q 25.038 2.835 25.036 3 A 0.771 0.771 0 0 0 25.036 3.01 A 0.588 0.588 0 0 0 25.066 3.203 A 0.48 0.48 0 0 0 25.269 3.454 A 1.093 1.093 0 0 0 25.419 3.533 Q 25.583 3.605 25.839 3.673 A 6.581 6.581 0 0 0 26.11 3.74 A 6.318 6.318 0 0 1 26.518 3.844 Q 26.855 3.944 27.097 4.065 A 1.901 1.901 0 0 1 27.353 4.217 Q 27.489 4.315 27.587 4.429 A 1.06 1.06 0 0 1 27.657 4.52 A 1.024 1.024 0 0 1 27.819 4.927 A 1.388 1.388 0 0 1 27.839 5.168 Q 27.839 5.805 27.33 6.19 Q 26.847 6.554 26.093 6.573 A 3.337 3.337 0 0 1 26.007 6.574 A 2.746 2.746 0 0 1 25.472 6.524 A 2.124 2.124 0 0 1 24.996 6.372 A 1.771 1.771 0 0 1 24.562 6.094 A 1.54 1.54 0 0 1 24.308 5.807 Q 24.06 5.445 24.06 5.023 L 24.873 5.023 A 0.932 0.932 0 0 0 24.947 5.348 A 0.827 0.827 0 0 0 25.2 5.671 A 1.072 1.072 0 0 0 25.603 5.864 Q 25.757 5.903 25.939 5.91 A 2.013 2.013 0 0 0 26.007 5.911 A 1.863 1.863 0 0 0 26.303 5.889 Q 26.464 5.863 26.596 5.806 A 0.941 0.941 0 0 0 26.747 5.724 A 0.689 0.689 0 0 0 26.912 5.573 A 0.554 0.554 0 0 0 27.026 5.225 A 0.698 0.698 0 0 0 26.99 4.994 A 0.581 0.581 0 0 0 26.778 4.713 A 1.05 1.05 0 0 0 26.609 4.615 Q 26.42 4.524 26.125 4.449 A 5.392 5.392 0 0 0 25.912 4.399 A 6.342 6.342 0 0 1 25.551 4.311 Q 25.182 4.209 24.932 4.083 Q 24.634 3.93 24.463 3.731 A 1.017 1.017 0 0 1 24.396 3.643 Q 24.223 3.388 24.223 3.037 A 1.206 1.206 0 0 1 24.622 2.132 A 1.694 1.694 0 0 1 24.717 2.048 A 1.752 1.752 0 0 1 25.5 1.688 A 2.471 2.471 0 0 1 25.98 1.644 A 2.559 2.559 0 0 1 26.544 1.702 A 1.757 1.757 0 0 1 27.292 2.061 Q 27.795 2.479 27.795 3.129 Z M 7.699 1.731 L 8.468 1.731 L 8.495 2.329 Q 9.031 1.654 9.891 1.644 A 2.234 2.234 0 0 1 9.918 1.644 A 1.905 1.905 0 0 1 10.552 1.74 Q 11.394 2.036 11.437 3.242 A 3.668 3.668 0 0 1 11.439 3.344 L 11.439 6.486 L 10.626 6.486 L 10.626 3.34 A 1.837 1.837 0 0 0 10.604 3.06 Q 10.554 2.753 10.391 2.58 Q 10.205 2.381 9.851 2.343 A 1.66 1.66 0 0 0 9.672 2.334 A 1.253 1.253 0 0 0 9.258 2.4 A 1.123 1.123 0 0 0 8.978 2.544 A 1.432 1.432 0 0 0 8.512 3.098 L 8.512 6.486 L 7.699 6.486 L 7.699 1.731 Z M 40.816 6.486 L 39.964 6.486 A 0.632 0.632 0 0 1 39.928 6.396 Q 39.897 6.298 39.872 6.146 A 3.997 3.997 0 0 1 39.85 5.985 Q 39.283 6.574 38.496 6.574 A 2.033 2.033 0 0 1 37.967 6.509 A 1.529 1.529 0 0 1 37.343 6.177 Q 36.892 5.779 36.892 5.168 Q 36.892 4.425 37.457 4.014 Q 38.021 3.604 39.045 3.604 L 39.836 3.604 L 39.836 3.23 A 1.152 1.152 0 0 0 39.801 2.935 A 0.828 0.828 0 0 0 39.582 2.551 Q 39.365 2.337 38.975 2.304 A 1.748 1.748 0 0 0 38.83 2.298 Q 38.395 2.298 38.101 2.518 Q 37.806 2.738 37.806 3.05 L 36.989 3.05 A 1.041 1.041 0 0 1 37.114 2.561 A 1.409 1.409 0 0 1 37.241 2.362 Q 37.494 2.03 37.927 1.837 A 2.249 2.249 0 0 1 38.703 1.649 A 2.669 2.669 0 0 1 38.878 1.644 A 2.65 2.65 0 0 1 39.396 1.691 Q 39.703 1.752 39.942 1.892 A 1.439 1.439 0 0 1 40.166 2.054 A 1.396 1.396 0 0 1 40.619 2.88 A 1.998 1.998 0 0 1 40.649 3.186 L 40.649 5.375 Q 40.649 5.809 40.723 6.126 A 1.707 1.707 0 0 0 40.816 6.416 L 40.816 6.486 Z M 48.652 6.486 L 47.799 6.486 A 0.632 0.632 0 0 1 47.764 6.396 Q 47.733 6.298 47.708 6.146 A 3.997 3.997 0 0 1 47.685 5.985 Q 47.118 6.574 46.332 6.574 A 2.033 2.033 0 0 1 45.802 6.509 A 1.529 1.529 0 0 1 45.178 6.177 Q 44.728 5.779 44.728 5.168 Q 44.728 4.425 45.292 4.014 Q 45.857 3.604 46.881 3.604 L 47.672 3.604 L 47.672 3.23 A 1.152 1.152 0 0 0 47.636 2.935 A 0.828 0.828 0 0 0 47.417 2.551 Q 47.201 2.337 46.81 2.304 A 1.748 1.748 0 0 0 46.666 2.298 Q 46.23 2.298 45.936 2.518 Q 45.642 2.738 45.642 3.05 L 44.824 3.05 A 1.041 1.041 0 0 1 44.949 2.561 A 1.409 1.409 0 0 1 45.077 2.362 Q 45.33 2.03 45.762 1.837 A 2.249 2.249 0 0 1 46.538 1.649 A 2.669 2.669 0 0 1 46.714 1.644 A 2.65 2.65 0 0 1 47.231 1.691 Q 47.539 1.752 47.777 1.892 A 1.439 1.439 0 0 1 48.001 2.054 A 1.396 1.396 0 0 1 48.455 2.88 A 1.998 1.998 0 0 1 48.485 3.186 L 48.485 5.375 Q 48.485 5.809 48.559 6.126 A 1.707 1.707 0 0 0 48.652 6.416 L 48.652 6.486 Z M 12.458 4.241 L 12.458 4.091 A 3.17 3.17 0 0 1 12.535 3.382 A 2.581 2.581 0 0 1 12.729 2.828 A 2.191 2.191 0 0 1 13.176 2.202 A 2.033 2.033 0 0 1 13.485 1.958 Q 13.97 1.644 14.537 1.644 A 2.254 2.254 0 0 1 15.15 1.722 A 1.639 1.639 0 0 1 15.979 2.254 Q 16.493 2.865 16.493 4.003 L 16.493 4.342 L 13.271 4.342 A 2.111 2.111 0 0 0 13.343 4.85 A 1.516 1.516 0 0 0 13.682 5.478 A 1.282 1.282 0 0 0 14.616 5.909 A 1.652 1.652 0 0 0 14.682 5.911 A 1.763 1.763 0 0 0 15.01 5.882 Q 15.234 5.839 15.412 5.735 A 1.827 1.827 0 0 0 15.92 5.287 A 2.068 2.068 0 0 0 15.935 5.269 L 16.431 5.656 A 1.926 1.926 0 0 1 15.031 6.547 A 2.749 2.749 0 0 1 14.638 6.574 A 2.394 2.394 0 0 1 13.887 6.461 A 1.974 1.974 0 0 1 13.065 5.939 Q 12.458 5.304 12.458 4.241 Z M 33.025 6.486 L 31.254 6.486 L 31.254 0.088 L 33.06 0.088 Q 33.895 0.088 34.537 0.457 Q 35.178 0.826 35.528 1.507 A 3.19 3.19 0 0 1 35.844 2.536 A 4.073 4.073 0 0 1 35.881 3.072 L 35.881 3.48 Q 35.881 4.386 35.532 5.067 A 2.457 2.457 0 0 1 34.534 6.113 Q 33.886 6.478 33.025 6.486 Z M 42.214 0.58 L 43.027 0.58 L 43.027 1.731 L 43.915 1.731 L 43.915 2.36 L 43.027 2.36 L 43.027 5.309 Q 43.027 5.594 43.146 5.737 Q 43.264 5.88 43.55 5.88 A 1.046 1.046 0 0 0 43.647 5.875 Q 43.75 5.865 43.89 5.837 A 4.024 4.024 0 0 0 43.937 5.827 L 43.937 6.486 A 2.463 2.463 0 0 1 43.504 6.566 A 2.157 2.157 0 0 1 43.313 6.574 Q 42.865 6.574 42.599 6.352 A 0.856 0.856 0 0 1 42.491 6.245 Q 42.263 5.974 42.223 5.516 A 2.351 2.351 0 0 1 42.214 5.309 L 42.214 2.36 L 41.348 2.36 L 41.348 1.731 L 42.214 1.731 L 42.214 0.58 Z M 33.082 0.782 L 32.098 0.782 L 32.098 5.796 L 32.985 5.796 A 2.519 2.519 0 0 0 33.618 5.721 A 1.747 1.747 0 0 0 34.504 5.19 Q 34.963 4.677 35.034 3.795 A 4.165 4.165 0 0 0 35.046 3.463 L 35.046 3.089 Q 35.046 2.298 34.777 1.763 A 1.864 1.864 0 0 0 34.534 1.395 A 1.687 1.687 0 0 0 33.538 0.826 A 2.499 2.499 0 0 0 33.082 0.782 Z M 6.398 1.731 L 6.398 6.486 L 5.585 6.486 L 5.585 1.731 L 6.398 1.731 Z M 22.957 1.731 L 22.957 6.486 L 22.144 6.486 L 22.144 1.731 L 22.957 1.731 Z M 39.836 5.155 L 39.836 4.179 L 39.199 4.179 Q 37.705 4.179 37.705 5.054 Q 37.705 5.436 37.96 5.651 A 0.893 0.893 0 0 0 38.373 5.845 A 1.259 1.259 0 0 0 38.615 5.867 A 1.429 1.429 0 0 0 39.34 5.669 A 1.335 1.335 0 0 0 39.635 5.442 A 1.108 1.108 0 0 0 39.836 5.155 Z M 47.672 5.155 L 47.672 4.179 L 47.035 4.179 Q 45.541 4.179 45.541 5.054 Q 45.541 5.436 45.795 5.651 A 0.893 0.893 0 0 0 46.209 5.845 A 1.259 1.259 0 0 0 46.45 5.867 A 1.429 1.429 0 0 0 47.175 5.669 A 1.335 1.335 0 0 0 47.471 5.442 A 1.108 1.108 0 0 0 47.672 5.155 Z M 13.298 3.674 L 15.68 3.674 L 15.68 3.612 Q 15.654 3.153 15.483 2.848 A 1.13 1.13 0 0 0 15.346 2.652 A 0.983 0.983 0 0 0 14.691 2.32 A 1.39 1.39 0 0 0 14.537 2.312 A 1.106 1.106 0 0 0 14.015 2.435 A 1.14 1.14 0 0 0 13.711 2.67 A 1.417 1.417 0 0 0 13.434 3.116 Q 13.361 3.3 13.321 3.522 A 2.741 2.741 0 0 0 13.298 3.674 Z M 5.52 0.47 Q 5.52 0.272 5.64 0.136 Q 5.752 0.01 5.964 0.001 A 0.783 0.783 0 0 1 5.999 0 Q 6.236 0 6.359 0.136 A 0.474 0.474 0 0 1 6.481 0.44 A 0.614 0.614 0 0 1 6.482 0.47 A 0.523 0.523 0 0 1 6.457 0.636 A 0.442 0.442 0 0 1 6.359 0.8 Q 6.246 0.92 6.038 0.931 A 0.803 0.803 0 0 1 5.999 0.932 Q 5.826 0.932 5.715 0.862 A 0.362 0.362 0 0 1 5.64 0.8 A 0.456 0.456 0 0 1 5.522 0.525 A 0.605 0.605 0 0 1 5.52 0.47 Z M 22.078 0.47 Q 22.078 0.272 22.199 0.136 Q 22.311 0.01 22.523 0.001 A 0.783 0.783 0 0 1 22.557 0 Q 22.794 0 22.917 0.136 A 0.474 0.474 0 0 1 23.04 0.44 A 0.614 0.614 0 0 1 23.041 0.47 A 0.523 0.523 0 0 1 23.015 0.636 A 0.442 0.442 0 0 1 22.917 0.8 Q 22.805 0.92 22.597 0.931 A 0.803 0.803 0 0 1 22.557 0.932 Q 22.385 0.932 22.274 0.862 A 0.362 0.362 0 0 1 22.199 0.8 A 0.456 0.456 0 0 1 22.081 0.525 A 0.605 0.605 0 0 1 22.078 0.47 Z" vector-effect="non-scaling-stroke"/></g><g transform="translate(15.674, 64), scale(0.75)" id="svgGroup" stroke-linecap="round" fill-rule="evenodd" font-size="9pt" stroke="#000" stroke-width="0.25mm" fill="#000" style="stroke:#000;stroke-width:0.25mm;fill:#000"><path d="M 36.04 3.393 L 35.222 3.393 Q 35.222 3.059 34.939 2.817 Q 34.655 2.575 34.225 2.575 Q 33.781 2.575 33.53 2.769 A 0.653 0.653 0 0 0 33.355 2.967 Q 33.282 3.098 33.28 3.263 A 0.771 0.771 0 0 0 33.28 3.274 A 0.588 0.588 0 0 0 33.31 3.467 A 0.48 0.48 0 0 0 33.513 3.718 A 1.093 1.093 0 0 0 33.663 3.796 Q 33.827 3.868 34.083 3.937 A 6.581 6.581 0 0 0 34.354 4.003 A 6.318 6.318 0 0 1 34.762 4.108 Q 35.099 4.208 35.341 4.329 A 1.901 1.901 0 0 1 35.597 4.481 Q 35.734 4.579 35.831 4.692 A 1.06 1.06 0 0 1 35.901 4.783 A 1.024 1.024 0 0 1 36.063 5.191 A 1.388 1.388 0 0 1 36.083 5.432 Q 36.083 6.069 35.574 6.453 Q 35.091 6.817 34.337 6.837 A 3.337 3.337 0 0 1 34.251 6.838 A 2.746 2.746 0 0 1 33.717 6.788 A 2.124 2.124 0 0 1 33.24 6.636 A 1.771 1.771 0 0 1 32.806 6.358 A 1.54 1.54 0 0 1 32.552 6.071 Q 32.304 5.708 32.304 5.287 L 33.117 5.287 A 0.932 0.932 0 0 0 33.191 5.612 A 0.827 0.827 0 0 0 33.445 5.935 A 1.072 1.072 0 0 0 33.847 6.128 Q 34.001 6.167 34.183 6.173 A 2.013 2.013 0 0 0 34.251 6.174 A 1.863 1.863 0 0 0 34.547 6.152 Q 34.708 6.126 34.84 6.07 A 0.941 0.941 0 0 0 34.991 5.988 A 0.689 0.689 0 0 0 35.156 5.837 A 0.554 0.554 0 0 0 35.271 5.489 A 0.698 0.698 0 0 0 35.234 5.258 A 0.581 0.581 0 0 0 35.022 4.977 A 1.05 1.05 0 0 0 34.853 4.878 Q 34.665 4.788 34.37 4.712 A 5.392 5.392 0 0 0 34.156 4.663 A 6.342 6.342 0 0 1 33.795 4.575 Q 33.426 4.473 33.177 4.346 Q 32.878 4.194 32.707 3.994 A 1.017 1.017 0 0 1 32.64 3.907 Q 32.467 3.652 32.467 3.3 A 1.206 1.206 0 0 1 32.866 2.396 A 1.694 1.694 0 0 1 32.961 2.312 A 1.752 1.752 0 0 1 33.744 1.952 A 2.471 2.471 0 0 1 34.225 1.907 A 2.559 2.559 0 0 1 34.788 1.966 A 1.757 1.757 0 0 1 35.536 2.325 Q 36.04 2.742 36.04 3.393 Z M 18.778 1.995 L 19.964 5.559 L 21.072 1.995 L 21.942 1.995 L 20.03 7.484 Q 19.586 8.67 18.62 8.67 L 18.466 8.657 L 18.163 8.6 L 18.163 7.941 L 18.382 7.958 Q 18.662 7.958 18.858 7.882 A 0.75 0.75 0 0 0 19.026 7.792 A 0.749 0.749 0 0 0 19.186 7.629 Q 19.304 7.47 19.394 7.215 A 2.575 2.575 0 0 0 19.406 7.181 L 19.586 6.697 L 17.89 1.995 L 18.778 1.995 Z M 6.363 1.995 L 7.132 1.995 L 7.159 2.593 Q 7.695 1.918 8.555 1.907 A 2.234 2.234 0 0 1 8.583 1.907 A 1.905 1.905 0 0 1 9.216 2.004 Q 10.058 2.3 10.101 3.506 A 3.668 3.668 0 0 1 10.103 3.608 L 10.103 6.75 L 9.29 6.75 L 9.29 3.604 A 1.837 1.837 0 0 0 9.268 3.324 Q 9.218 3.017 9.055 2.843 Q 8.869 2.645 8.515 2.606 A 1.66 1.66 0 0 0 8.336 2.597 A 1.253 1.253 0 0 0 7.922 2.664 A 1.123 1.123 0 0 0 7.642 2.808 A 1.432 1.432 0 0 0 7.176 3.362 L 7.176 6.75 L 6.363 6.75 L 6.363 1.995 Z M 30.819 5.251 L 31.588 5.251 A 1.432 1.432 0 0 1 31.389 5.901 A 1.772 1.772 0 0 1 31.307 6.029 A 1.828 1.828 0 0 1 30.697 6.574 A 2.169 2.169 0 0 1 30.615 6.618 A 1.997 1.997 0 0 1 29.698 6.838 A 2.346 2.346 0 0 1 29.001 6.739 A 1.839 1.839 0 0 1 28.154 6.19 A 2.171 2.171 0 0 1 27.69 5.31 Q 27.58 4.909 27.58 4.417 L 27.58 4.28 A 3.24 3.24 0 0 1 27.644 3.624 A 2.57 2.57 0 0 1 27.835 3.045 A 2.008 2.008 0 0 1 28.274 2.431 A 1.892 1.892 0 0 1 28.567 2.206 A 1.943 1.943 0 0 1 29.323 1.934 A 2.529 2.529 0 0 1 29.694 1.907 A 2.196 2.196 0 0 1 30.342 1.999 A 1.786 1.786 0 0 1 31.023 2.386 A 1.693 1.693 0 0 1 31.582 3.535 A 2.239 2.239 0 0 1 31.588 3.63 L 30.819 3.63 Q 30.784 3.168 30.469 2.872 A 1.078 1.078 0 0 0 29.74 2.576 A 1.402 1.402 0 0 0 29.694 2.575 A 1.374 1.374 0 0 0 29.272 2.637 A 1.081 1.081 0 0 0 28.734 3.021 A 1.469 1.469 0 0 0 28.507 3.468 Q 28.441 3.674 28.413 3.923 A 3.514 3.514 0 0 0 28.393 4.311 L 28.393 4.465 Q 28.393 5.287 28.731 5.73 A 1.1 1.1 0 0 0 29.518 6.165 A 1.611 1.611 0 0 0 29.698 6.174 A 1.171 1.171 0 0 0 30.458 5.911 A 1.007 1.007 0 0 0 30.703 5.629 A 0.914 0.914 0 0 0 30.819 5.251 Z M 4.764 6.75 L 4.153 5.08 L 1.472 5.08 L 0.87 6.75 L 0 6.75 L 2.443 0.352 L 3.182 0.352 L 5.629 6.75 L 4.764 6.75 Z M 15.117 6.75 L 14.265 6.75 A 0.632 0.632 0 0 1 14.229 6.66 Q 14.198 6.562 14.173 6.41 A 3.997 3.997 0 0 1 14.15 6.249 Q 13.583 6.838 12.797 6.838 A 2.033 2.033 0 0 1 12.268 6.772 A 1.529 1.529 0 0 1 11.643 6.44 Q 11.193 6.042 11.193 5.432 Q 11.193 4.689 11.758 4.278 Q 12.322 3.867 13.346 3.867 L 14.137 3.867 L 14.137 3.494 A 1.152 1.152 0 0 0 14.101 3.199 A 0.828 0.828 0 0 0 13.882 2.815 Q 13.666 2.6 13.276 2.568 A 1.748 1.748 0 0 0 13.131 2.562 Q 12.696 2.562 12.401 2.782 Q 12.107 3.001 12.107 3.313 L 11.29 3.313 A 1.041 1.041 0 0 1 11.414 2.825 A 1.409 1.409 0 0 1 11.542 2.626 Q 11.795 2.294 12.228 2.101 A 2.249 2.249 0 0 1 13.003 1.913 A 2.669 2.669 0 0 1 13.179 1.907 A 2.65 2.65 0 0 1 13.697 1.955 Q 14.004 2.016 14.243 2.156 A 1.439 1.439 0 0 1 14.467 2.318 A 1.396 1.396 0 0 1 14.92 3.144 A 1.998 1.998 0 0 1 14.95 3.45 L 14.95 5.638 Q 14.95 6.073 15.024 6.39 A 1.707 1.707 0 0 0 15.117 6.68 L 15.117 6.75 Z M 22.957 0.844 L 23.77 0.844 L 23.77 1.995 L 24.658 1.995 L 24.658 2.624 L 23.77 2.624 L 23.77 5.572 Q 23.77 5.858 23.889 6.001 Q 24.007 6.144 24.293 6.144 A 1.046 1.046 0 0 0 24.39 6.138 Q 24.493 6.129 24.633 6.101 A 4.024 4.024 0 0 0 24.68 6.091 L 24.68 6.75 A 2.463 2.463 0 0 1 24.247 6.829 A 2.157 2.157 0 0 1 24.056 6.838 Q 23.609 6.838 23.342 6.616 A 0.856 0.856 0 0 1 23.234 6.508 Q 23.006 6.238 22.966 5.78 A 2.351 2.351 0 0 1 22.957 5.572 L 22.957 2.624 L 22.091 2.624 L 22.091 1.995 L 22.957 1.995 L 22.957 0.844 Z M 17.108 0 L 17.108 6.75 L 16.295 6.75 L 16.295 0 L 17.108 0 Z M 26.49 1.995 L 26.49 6.75 L 25.677 6.75 L 25.677 1.995 L 26.49 1.995 Z M 2.813 1.393 L 1.727 4.386 L 3.902 4.386 L 2.813 1.393 Z M 14.137 5.418 L 14.137 4.443 L 13.5 4.443 Q 12.006 4.443 12.006 5.317 Q 12.006 5.7 12.261 5.915 A 0.893 0.893 0 0 0 12.674 6.108 A 1.259 1.259 0 0 0 12.916 6.13 A 1.429 1.429 0 0 0 13.641 5.933 A 1.335 1.335 0 0 0 13.936 5.705 A 1.108 1.108 0 0 0 14.137 5.418 Z M 25.611 0.734 Q 25.611 0.536 25.732 0.4 Q 25.844 0.274 26.056 0.264 A 0.783 0.783 0 0 1 26.09 0.264 Q 26.328 0.264 26.451 0.4 A 0.474 0.474 0 0 1 26.573 0.703 A 0.614 0.614 0 0 1 26.574 0.734 A 0.523 0.523 0 0 1 26.548 0.9 A 0.442 0.442 0 0 1 26.451 1.063 Q 26.338 1.184 26.13 1.194 A 0.803 0.803 0 0 1 26.09 1.195 Q 25.918 1.195 25.807 1.126 A 0.362 0.362 0 0 1 25.732 1.063 A 0.456 0.456 0 0 1 25.614 0.788 A 0.605 0.605 0 0 1 25.611 0.734 Z" vector-effect="non-scaling-stroke"/></g>
</svg>