<?xml version="1.0" encoding="UTF-8"?>
<svg width="80px" height="80px" viewBox="0 0 80 80" version="1.1" xmlns="http://www.w3.org/2000/svg" xmlns:xlink="http://www.w3.org/1999/xlink">
    <!-- Generator: Sketch 64 (93537) - https://sketch.com -->
    <title>Icon-Architecture/64/Arch_Amazon-Kinesis_64</title>
    <desc>Created with Sketch.</desc>
    
    <g id="Icon-Architecture/64/Arch_Amazon-Kinesis_64" stroke="none" stroke-width="1" fill="none" fill-rule="evenodd">
        
        <path transform="translate(0vw, 0vh), scale(.65)" d="M19,62 L21,62 C21,53.594 26.465,45 67,45 L67,43 C24.703,43 19,52.604 19,62 M25,68 L27,68 C27,60.434 27,49 67,49 L67,47 C48.663,47 36.728,49.359 30.51,54.212 C25,58.512 25,63.996 25,68 M15,26 L13,26 C13,33.396 23.039,38.08 42.893,40 C23.039,41.92 13,46.604 13,54 L15,54 C15,49.145 21.756,41 67,41 L67,39 C21.756,39 15,30.855 15,26 M21,18 L19,18 C19,27.396 24.703,37 67,37 L67,35 C26.465,35 21,26.406 21,18 M67,31 L67,33 C48.663,33 36.728,30.641 30.51,25.788 C25,21.488 25,16.004 25,12 L27,12 C27,19.566 27,31 67,31" id="Amazon-Kinesis_Icon_64_Squid" fill="#000000"></path>
    </g><g transform="translate(26.080493200218346, 64), scale(0.75)" id="svgGroup" stroke-linecap="round" fill-rule="evenodd" font-size="9pt" stroke="#000" stroke-width="0.25mm" fill="#000" style="stroke:#000;stroke-width:0.25mm;fill:#000"><path d="M 3.894 6.486 L 1.626 3.511 L 0.844 4.324 L 0.844 6.486 L 0 6.486 L 0 0.088 L 0.844 0.088 L 0.844 3.252 L 3.687 0.088 L 4.707 0.088 L 2.188 2.914 L 4.904 6.486 L 3.894 6.486 Z M 20.971 3.129 L 20.153 3.129 Q 20.153 2.795 19.87 2.553 Q 19.586 2.312 19.156 2.312 Q 18.712 2.312 18.461 2.505 A 0.653 0.653 0 0 0 18.286 2.704 Q 18.213 2.835 18.211 3 A 0.771 0.771 0 0 0 18.211 3.01 A 0.588 0.588 0 0 0 18.241 3.203 A 0.48 0.48 0 0 0 18.444 3.454 A 1.093 1.093 0 0 0 18.594 3.533 Q 18.758 3.605 19.014 3.673 A 6.581 6.581 0 0 0 19.285 3.74 A 6.318 6.318 0 0 1 19.693 3.844 Q 20.03 3.944 20.272 4.065 A 1.901 1.901 0 0 1 20.528 4.217 Q 20.665 4.315 20.762 4.429 A 1.06 1.06 0 0 1 20.832 4.52 A 1.024 1.024 0 0 1 20.995 4.927 A 1.388 1.388 0 0 1 21.015 5.168 Q 21.015 5.805 20.505 6.19 Q 20.022 6.554 19.269 6.573 A 3.337 3.337 0 0 1 19.182 6.574 A 2.746 2.746 0 0 1 18.648 6.524 A 2.124 2.124 0 0 1 18.171 6.372 A 1.771 1.771 0 0 1 17.737 6.094 A 1.54 1.54 0 0 1 17.484 5.807 Q 17.235 5.445 17.235 5.023 L 18.048 5.023 A 0.932 0.932 0 0 0 18.122 5.348 A 0.827 0.827 0 0 0 18.376 5.671 A 1.072 1.072 0 0 0 18.778 5.864 Q 18.932 5.903 19.114 5.91 A 2.013 2.013 0 0 0 19.182 5.911 A 1.863 1.863 0 0 0 19.478 5.889 Q 19.639 5.863 19.771 5.806 A 0.941 0.941 0 0 0 19.923 5.724 A 0.689 0.689 0 0 0 20.087 5.573 A 0.554 0.554 0 0 0 20.202 5.225 A 0.698 0.698 0 0 0 20.165 4.994 A 0.581 0.581 0 0 0 19.953 4.713 A 1.05 1.05 0 0 0 19.785 4.615 Q 19.596 4.524 19.301 4.449 A 5.392 5.392 0 0 0 19.088 4.399 A 6.342 6.342 0 0 1 18.727 4.311 Q 18.357 4.209 18.108 4.083 Q 17.809 3.93 17.638 3.731 A 1.017 1.017 0 0 1 17.572 3.643 Q 17.398 3.388 17.398 3.037 A 1.206 1.206 0 0 1 17.797 2.132 A 1.694 1.694 0 0 1 17.892 2.048 A 1.752 1.752 0 0 1 18.675 1.688 A 2.471 2.471 0 0 1 19.156 1.644 A 2.559 2.559 0 0 1 19.719 1.702 A 1.757 1.757 0 0 1 20.468 2.061 Q 20.971 2.479 20.971 3.129 Z M 27.795 3.129 L 26.978 3.129 Q 26.978 2.795 26.695 2.553 Q 26.411 2.312 25.98 2.312 Q 25.537 2.312 25.286 2.505 A 0.653 0.653 0 0 0 25.111 2.704 Q 25.038 2.835 25.036 3 A 0.771 0.771 0 0 0 25.036 3.01 A 0.588 0.588 0 0 0 25.066 3.203 A 0.48 0.48 0 0 0 25.269 3.454 A 1.093 1.093 0 0 0 25.419 3.533 Q 25.583 3.605 25.839 3.673 A 6.581 6.581 0 0 0 26.11 3.74 A 6.318 6.318 0 0 1 26.518 3.844 Q 26.855 3.944 27.097 4.065 A 1.901 1.901 0 0 1 27.353 4.217 Q 27.489 4.315 27.587 4.429 A 1.06 1.06 0 0 1 27.657 4.52 A 1.024 1.024 0 0 1 27.819 4.927 A 1.388 1.388 0 0 1 27.839 5.168 Q 27.839 5.805 27.33 6.19 Q 26.847 6.554 26.093 6.573 A 3.337 3.337 0 0 1 26.007 6.574 A 2.746 2.746 0 0 1 25.472 6.524 A 2.124 2.124 0 0 1 24.996 6.372 A 1.771 1.771 0 0 1 24.562 6.094 A 1.54 1.54 0 0 1 24.308 5.807 Q 24.06 5.445 24.06 5.023 L 24.873 5.023 A 0.932 0.932 0 0 0 24.947 5.348 A 0.827 0.827 0 0 0 25.2 5.671 A 1.072 1.072 0 0 0 25.603 5.864 Q 25.757 5.903 25.939 5.91 A 2.013 2.013 0 0 0 26.007 5.911 A 1.863 1.863 0 0 0 26.303 5.889 Q 26.464 5.863 26.596 5.806 A 0.941 0.941 0 0 0 26.747 5.724 A 0.689 0.689 0 0 0 26.912 5.573 A 0.554 0.554 0 0 0 27.026 5.225 A 0.698 0.698 0 0 0 26.99 4.994 A 0.581 0.581 0 0 0 26.778 4.713 A 1.05 1.05 0 0 0 26.609 4.615 Q 26.42 4.524 26.125 4.449 A 5.392 5.392 0 0 0 25.912 4.399 A 6.342 6.342 0 0 1 25.551 4.311 Q 25.182 4.209 24.932 4.083 Q 24.634 3.93 24.463 3.731 A 1.017 1.017 0 0 1 24.396 3.643 Q 24.223 3.388 24.223 3.037 A 1.206 1.206 0 0 1 24.622 2.132 A 1.694 1.694 0 0 1 24.717 2.048 A 1.752 1.752 0 0 1 25.5 1.688 A 2.471 2.471 0 0 1 25.98 1.644 A 2.559 2.559 0 0 1 26.544 1.702 A 1.757 1.757 0 0 1 27.292 2.061 Q 27.795 2.479 27.795 3.129 Z M 7.699 1.731 L 8.468 1.731 L 8.495 2.329 Q 9.031 1.654 9.891 1.644 A 2.234 2.234 0 0 1 9.918 1.644 A 1.905 1.905 0 0 1 10.552 1.74 Q 11.394 2.036 11.437 3.242 A 3.668 3.668 0 0 1 11.439 3.344 L 11.439 6.486 L 10.626 6.486 L 10.626 3.34 A 1.837 1.837 0 0 0 10.604 3.06 Q 10.554 2.753 10.391 2.58 Q 10.205 2.381 9.851 2.343 A 1.66 1.66 0 0 0 9.672 2.334 A 1.253 1.253 0 0 0 9.258 2.4 A 1.123 1.123 0 0 0 8.978 2.544 A 1.432 1.432 0 0 0 8.512 3.098 L 8.512 6.486 L 7.699 6.486 L 7.699 1.731 Z M 12.458 4.241 L 12.458 4.091 A 3.17 3.17 0 0 1 12.535 3.382 A 2.581 2.581 0 0 1 12.729 2.828 A 2.191 2.191 0 0 1 13.176 2.202 A 2.033 2.033 0 0 1 13.485 1.958 Q 13.97 1.644 14.537 1.644 A 2.254 2.254 0 0 1 15.15 1.722 A 1.639 1.639 0 0 1 15.979 2.254 Q 16.493 2.865 16.493 4.003 L 16.493 4.342 L 13.271 4.342 A 2.111 2.111 0 0 0 13.343 4.85 A 1.516 1.516 0 0 0 13.682 5.478 A 1.282 1.282 0 0 0 14.616 5.909 A 1.652 1.652 0 0 0 14.682 5.911 A 1.763 1.763 0 0 0 15.01 5.882 Q 15.234 5.839 15.412 5.735 A 1.827 1.827 0 0 0 15.92 5.287 A 2.068 2.068 0 0 0 15.935 5.269 L 16.431 5.656 A 1.926 1.926 0 0 1 15.031 6.547 A 2.749 2.749 0 0 1 14.638 6.574 A 2.394 2.394 0 0 1 13.887 6.461 A 1.974 1.974 0 0 1 13.065 5.939 Q 12.458 5.304 12.458 4.241 Z M 6.398 1.731 L 6.398 6.486 L 5.585 6.486 L 5.585 1.731 L 6.398 1.731 Z M 22.957 1.731 L 22.957 6.486 L 22.144 6.486 L 22.144 1.731 L 22.957 1.731 Z M 13.298 3.674 L 15.68 3.674 L 15.68 3.612 Q 15.654 3.153 15.483 2.848 A 1.13 1.13 0 0 0 15.346 2.652 A 0.983 0.983 0 0 0 14.691 2.32 A 1.39 1.39 0 0 0 14.537 2.312 A 1.106 1.106 0 0 0 14.015 2.435 A 1.14 1.14 0 0 0 13.711 2.67 A 1.417 1.417 0 0 0 13.434 3.116 Q 13.361 3.3 13.321 3.522 A 2.741 2.741 0 0 0 13.298 3.674 Z M 5.52 0.47 Q 5.52 0.272 5.64 0.136 Q 5.752 0.01 5.964 0.001 A 0.783 0.783 0 0 1 5.999 0 Q 6.236 0 6.359 0.136 A 0.474 0.474 0 0 1 6.481 0.44 A 0.614 0.614 0 0 1 6.482 0.47 A 0.523 0.523 0 0 1 6.457 0.636 A 0.442 0.442 0 0 1 6.359 0.8 Q 6.246 0.92 6.038 0.931 A 0.803 0.803 0 0 1 5.999 0.932 Q 5.826 0.932 5.715 0.862 A 0.362 0.362 0 0 1 5.64 0.8 A 0.456 0.456 0 0 1 5.522 0.525 A 0.605 0.605 0 0 1 5.52 0.47 Z M 22.078 0.47 Q 22.078 0.272 22.199 0.136 Q 22.311 0.01 22.523 0.001 A 0.783 0.783 0 0 1 22.557 0 Q 22.794 0 22.917 0.136 A 0.474 0.474 0 0 1 23.04 0.44 A 0.614 0.614 0 0 1 23.041 0.47 A 0.523 0.523 0 0 1 23.015 0.636 A 0.442 0.442 0 0 1 22.917 0.8 Q 22.805 0.92 22.597 0.931 A 0.803 0.803 0 0 1 22.557 0.932 Q 22.385 0.932 22.274 0.862 A 0.362 0.362 0 0 1 22.199 0.8 A 0.456 0.456 0 0 1 22.081 0.525 A 0.605 0.605 0 0 1 22.078 0.47 Z" vector-effect="non-scaling-stroke"/></g>
</svg>