<?xml version="1.0" encoding="UTF-8"?>
<svg width="80px" height="80px" viewBox="0 0 80 80" version="1.1" xmlns="http://www.w3.org/2000/svg" xmlns:xlink="http://www.w3.org/1999/xlink">
    <!-- Generator: Sketch 64 (93537) - https://sketch.com -->
    <title>Icon-Architecture/64/Arch_AWS-Lake-Formation_64</title>
    <desc>Created with Sketch.</desc>
    
    <g id="Icon-Architecture/64/Arch_AWS-Lake-Formation_64" stroke="none" stroke-width="1" fill="none" fill-rule="evenodd">
        
        <path transform="translate(0vw, 0vh), scale(.65)" d="M53.9372096,45.211 C54.7001937,46.101 55.8331701,46.666 57.0941439,46.666 C59.3860961,46.666 61.2500573,44.801 61.2500573,42.509 L59.250099,42.509 C59.250099,43.699 58.2831191,44.666 57.0941439,44.666 C55.9051686,44.666 54.9371888,43.699 54.9371888,42.509 L52.9372305,42.509 C52.9372305,43.699 51.9702506,44.666 50.7812754,44.666 C49.5913002,44.666 48.6243203,43.699 48.6243203,42.509 L46.624362,42.509 C46.624362,43.699 45.6563822,44.666 44.4674069,44.666 C43.2784317,44.666 42.3104519,43.699 42.3104519,42.509 L40.3104935,42.509 C40.3104935,43.699 39.3425137,44.666 38.1545384,44.666 L38.1545384,46.666 C39.4165122,46.666 40.5474886,46.101 41.3104727,45.211 C42.0734568,46.101 43.2064332,46.666 44.4674069,46.666 C45.7293806,46.666 46.8613571,46.101 47.6243412,45.211 C48.3863253,46.101 49.5193017,46.666 50.7812754,46.666 C52.0422491,46.666 53.1742255,46.101 53.9372096,45.211 L53.9372096,45.211 Z M53.0592279,31.605 L51.0592696,31.605 C51.0592696,32.794 50.0912898,33.761 48.9023145,33.761 C47.7133393,33.761 46.7463595,32.794 46.7463595,31.605 L44.7464011,31.605 C44.7464011,32.794 43.7784213,33.761 42.5884461,33.761 C41.4004708,33.761 40.432491,32.794 40.432491,31.605 L38.4325327,31.605 C38.4325327,32.794 37.4645528,33.761 36.2765776,33.761 L36.2765776,35.761 C37.5385513,35.761 38.6695277,35.196 39.4325118,34.306 C40.1954959,35.196 41.3274723,35.761 42.5884461,35.761 C43.8504198,35.761 44.9833962,35.196 45.7463803,34.306 C46.5083644,35.196 47.6403408,35.761 48.9023145,35.761 C50.1642882,35.761 51.2962647,35.196 52.0592488,34.306 C52.8222329,35.196 53.9542093,35.761 55.215183,35.761 L55.215183,33.761 C54.0272078,33.761 53.0592279,32.794 53.0592279,31.605 L53.0592279,31.605 Z M37.2055582,58.923 C38.4665319,58.923 39.5985084,58.358 40.3614925,57.468 C41.1244766,58.358 42.256453,58.923 43.5184267,58.923 C44.7804004,58.923 45.9123768,58.358 46.674361,57.468 C47.4373451,58.358 48.5693215,58.923 49.8312952,58.923 L49.8312952,56.923 C48.64232,56.923 47.6743401,55.956 47.6743401,54.767 L45.6743818,54.767 C45.6743818,55.956 44.7074019,56.923 43.5184267,56.923 C42.3294515,56.923 41.3614716,55.956 41.3614716,54.767 L39.3615133,54.767 C39.3615133,55.956 38.3935335,56.923 37.2055582,56.923 C36.015583,56.923 35.0476032,55.956 35.0476032,54.767 L33.0476448,54.767 C33.0476448,55.956 32.080665,56.923 30.8916898,56.923 L30.8916898,58.923 C32.1536635,58.923 33.2856399,58.358 34.047624,57.468 C34.8106081,58.358 35.9435845,58.923 37.2055582,58.923 L37.2055582,58.923 Z M23.0008541,20 L24.0008333,20 L24.0008333,19 L23.0008541,19 L23.0008541,20 Z M20.9998958,21 L20.9998958,18 C20.9998958,17.447 21.4478865,17 22.000875,17 L25.0008125,17 C25.552801,17 26.0007917,17.447 26.0007917,18 L26.0007917,21 C26.0007917,21.552 25.552801,22 25.0008125,22 L22.000875,22 C21.4478865,22 20.9998958,21.552 20.9998958,21 L20.9998958,21 Z M29.0007292,16 L30.0007083,16 L30.0007083,15 L29.0007292,15 L29.0007292,16 Z M27.0007708,17 L27.0007708,14 C27.0007708,13.447 27.4477615,13 28.00075,13 L31.0006875,13 C31.552676,13 32.0006667,13.447 32.0006667,14 L32.0006667,17 C32.0006667,17.552 31.552676,18 31.0006875,18 L28.00075,18 C27.4477615,18 27.0007708,17.552 27.0007708,17 L27.0007708,17 Z M30.0007083,23 L31.0006875,23 L31.0006875,22 L30.0007083,22 L30.0007083,23 Z M32.0006667,20 C32.5526552,20 33.0006458,20.447 33.0006458,21 L33.0006458,24 C33.0006458,24.552 32.5526552,25 32.0006667,25 L29.0007292,25 C28.4477407,25 28.00075,24.552 28.00075,24 L28.00075,21 C28.00075,20.447 28.4477407,20 29.0007292,20 L32.0006667,20 Z M28.1877461,28.075 C27.1727672,28.075 23.3968459,28.036 20.5459053,27.513 L26.8447741,37.465 C26.9467719,37.625 27.0007708,37.81 27.0007708,38 L27.0007708,39.261 C27.6937564,39.427 28.3487427,39.432 29.0007292,39.274 L29.0007292,38 C29.0007292,37.811 29.053728,37.626 29.1547259,37.465 L35.7165892,27.53 C33.5156351,27.92 30.6156955,28.075 28.1877461,28.075 L28.1877461,28.075 Z M17.0659778,25.567 C17.0589779,25.52 17.0499781,25.431 17.0499781,25.384 C17.0499781,24.769 17.0499781,22.898 26.9807712,22.704 L27.0197704,24.704 C23.821837,24.766 21.4578863,25.071 20.1109144,25.384 C21.5818837,25.727 24.3108269,26.075 28.1877461,26.075 C31.9226683,26.075 34.7126102,25.739 36.2465782,25.383 C35.7345889,25.262 35.0246037,25.13 34.046624,25.011 L34.289619,23.026 C37.8655445,23.462 39.3245141,24.146 39.3245141,25.384 C39.3245141,25.648 39.2295161,26.01 38.8905231,26.356 L31.0006875,38.289 L31.0006875,40 C31.0006875,40.408 30.7516927,40.775 30.3737005,40.927 C29.6047166,41.236 28.8327327,41.39 28.0447491,41.39 C27.2667653,41.39 26.4737818,41.239 25.6547989,40.938 C25.261807,40.793 25.0008125,40.419 25.0008125,40 L25.0008125,38.29 L17.3249724,26.162 C17.3229724,26.159 17.3209725,26.156 17.3189725,26.153 L17.3109727,26.139 L17.1619758,25.903 L17.1769755,25.893 C17.1229766,25.791 17.0829774,25.682 17.0659778,25.567 L17.0659778,25.567 Z M27.0007708,45 L27.0007708,42 L25.0008125,42 L25.0008125,44 L23.0008541,44 C22.6128622,44 22.2588696,44.224 22.094873,44.575 C21.9298765,44.927 21.9838753,45.342 22.2318702,45.64 L27.231766,51.64 C27.421762,51.868 27.7037562,52 28.00075,52 C28.2967438,52 28.5787379,51.868 28.768734,51.64 L33.7686298,45.64 C34.0166247,45.342 34.0706235,44.927 33.905627,44.575 C33.7416304,44.224 33.3876378,44 33.0006458,44 L31.0006875,44 L31.0006875,42 L29.0007292,42 L29.0007292,45 C29.0007292,45.552 29.4477198,46 30.0007083,46 L30.8656903,46 L28.00075,49.438 L25.1348097,46 L26.0007917,46 C26.5527802,46 27.0007708,45.552 27.0007708,45 L27.0007708,45 Z M64,43 C64,56.233 53.2332243,67 39.9995,67 C26.7667757,67 16,56.233 16,43 C16,39.342 16.8019833,35.831 18.3819504,32.564 L20.1829129,33.435 C18.734943,36.428 17.9999583,39.646 17.9999583,43 C17.9999583,55.13 27.8697527,65 39.9995,65 C52.1302473,65 62.0000417,55.13 62.0000417,43 C62.0000417,30.869 52.1302473,21 39.9995,21 C38.7135268,21 37.4265536,21.111 36.1725797,21.331 L35.8275869,19.361 C37.1945584,19.121 38.5985292,19 39.9995,19 C53.2332243,19 64,29.766 64,43 L64,43 Z" id="AWS-Lake-Formation_Icon_64_Squid" fill="#000000"></path>
    </g><g transform="translate(9.5395, 64), scale(0.75)" id="svgGroup" stroke-linecap="round" fill-rule="evenodd" font-size="9pt" stroke="#000" stroke-width="0.25mm" fill="#000" style="stroke:#000;stroke-width:0.25mm;fill:#000"><path d="M 34.137 1.995 L 34.906 1.995 L 34.928 2.522 Q 35.451 1.907 36.338 1.907 A 2.009 2.009 0 0 1 36.849 1.968 A 1.244 1.244 0 0 1 37.696 2.672 A 1.801 1.801 0 0 1 38.314 2.118 A 1.65 1.65 0 0 1 38.843 1.937 A 2.209 2.209 0 0 1 39.212 1.907 A 2.119 2.119 0 0 1 39.857 1.997 Q 40.783 2.292 40.803 3.564 L 40.803 6.75 L 39.99 6.75 L 39.99 3.612 A 1.781 1.781 0 0 0 39.97 3.332 Q 39.946 3.185 39.896 3.067 A 0.758 0.758 0 0 0 39.757 2.85 A 0.68 0.68 0 0 0 39.504 2.682 Q 39.293 2.597 38.976 2.597 A 1.245 1.245 0 0 0 38.61 2.648 A 1.008 1.008 0 0 0 38.224 2.867 A 1.042 1.042 0 0 0 37.91 3.404 A 1.41 1.41 0 0 0 37.876 3.595 L 37.876 6.75 L 37.059 6.75 L 37.059 3.634 A 1.532 1.532 0 0 0 37.011 3.23 Q 36.884 2.768 36.426 2.643 A 1.457 1.457 0 0 0 36.044 2.597 Q 35.27 2.597 34.97 3.234 A 1.459 1.459 0 0 0 34.95 3.278 L 34.95 6.75 L 34.137 6.75 L 34.137 1.995 Z M 12.595 6.75 L 10.938 4.548 L 10.428 5.08 L 10.428 6.75 L 9.615 6.75 L 9.615 0 L 10.428 0 L 10.428 4.083 L 10.863 3.56 L 12.344 1.995 L 13.333 1.995 L 11.483 3.981 L 13.548 6.75 L 12.595 6.75 Z M 24.737 3.234 L 24.737 3.924 L 22.052 3.924 L 22.052 6.75 L 21.208 6.75 L 21.208 0.352 L 25.172 0.352 L 25.172 1.046 L 22.052 1.046 L 22.052 3.234 L 24.737 3.234 Z M 57.182 1.995 L 57.951 1.995 L 57.977 2.593 Q 58.513 1.918 59.373 1.907 A 2.234 2.234 0 0 1 59.401 1.907 A 1.905 1.905 0 0 1 60.034 2.004 Q 60.876 2.3 60.919 3.506 A 3.668 3.668 0 0 1 60.921 3.608 L 60.921 6.75 L 60.108 6.75 L 60.108 3.604 A 1.837 1.837 0 0 0 60.086 3.324 Q 60.036 3.017 59.873 2.843 Q 59.687 2.645 59.334 2.606 A 1.66 1.66 0 0 0 59.155 2.597 A 1.253 1.253 0 0 0 58.74 2.664 A 1.123 1.123 0 0 0 58.46 2.808 A 1.432 1.432 0 0 0 57.995 3.362 L 57.995 6.75 L 57.182 6.75 L 57.182 1.995 Z M 8.503 6.75 L 7.651 6.75 A 0.632 0.632 0 0 1 7.615 6.66 Q 7.584 6.562 7.559 6.41 A 3.997 3.997 0 0 1 7.537 6.249 Q 6.97 6.838 6.183 6.838 A 2.033 2.033 0 0 1 5.654 6.772 A 1.529 1.529 0 0 1 5.03 6.44 Q 4.579 6.042 4.579 5.432 Q 4.579 4.689 5.144 4.278 Q 5.708 3.867 6.732 3.867 L 7.523 3.867 L 7.523 3.494 A 1.152 1.152 0 0 0 7.488 3.199 A 0.828 0.828 0 0 0 7.269 2.815 Q 7.052 2.6 6.662 2.568 A 1.748 1.748 0 0 0 6.517 2.562 Q 6.082 2.562 5.788 2.782 Q 5.493 3.001 5.493 3.313 L 4.676 3.313 A 1.041 1.041 0 0 1 4.801 2.825 A 1.409 1.409 0 0 1 4.928 2.626 Q 5.181 2.294 5.614 2.101 A 2.249 2.249 0 0 1 6.39 1.913 A 2.669 2.669 0 0 1 6.565 1.907 A 2.65 2.65 0 0 1 7.083 1.955 Q 7.39 2.016 7.629 2.156 A 1.439 1.439 0 0 1 7.853 2.318 A 1.396 1.396 0 0 1 8.306 3.144 A 1.998 1.998 0 0 1 8.336 3.45 L 8.336 5.638 Q 8.336 6.073 8.41 6.39 A 1.707 1.707 0 0 0 8.503 6.68 L 8.503 6.75 Z M 45.817 6.75 L 44.965 6.75 A 0.632 0.632 0 0 1 44.929 6.66 Q 44.898 6.562 44.873 6.41 A 3.997 3.997 0 0 1 44.851 6.249 Q 44.284 6.838 43.497 6.838 A 2.033 2.033 0 0 1 42.968 6.772 A 1.529 1.529 0 0 1 42.344 6.44 Q 41.893 6.042 41.893 5.432 Q 41.893 4.689 42.458 4.278 Q 43.022 3.867 44.046 3.867 L 44.837 3.867 L 44.837 3.494 A 1.152 1.152 0 0 0 44.802 3.199 A 0.828 0.828 0 0 0 44.583 2.815 Q 44.366 2.6 43.976 2.568 A 1.748 1.748 0 0 0 43.831 2.562 Q 43.396 2.562 43.102 2.782 Q 42.807 3.001 42.807 3.313 L 41.99 3.313 A 1.041 1.041 0 0 1 42.115 2.825 A 1.409 1.409 0 0 1 42.242 2.626 Q 42.495 2.294 42.928 2.101 A 2.249 2.249 0 0 1 43.704 1.913 A 2.669 2.669 0 0 1 43.879 1.907 A 2.65 2.65 0 0 1 44.397 1.955 Q 44.704 2.016 44.943 2.156 A 1.439 1.439 0 0 1 45.167 2.318 A 1.396 1.396 0 0 1 45.62 3.144 A 1.998 1.998 0 0 1 45.65 3.45 L 45.65 5.638 Q 45.65 6.073 45.724 6.39 A 1.707 1.707 0 0 0 45.817 6.68 L 45.817 6.75 Z M 13.878 4.504 L 13.878 4.355 A 3.17 3.17 0 0 1 13.954 3.646 A 2.581 2.581 0 0 1 14.148 3.092 A 2.191 2.191 0 0 1 14.596 2.466 A 2.033 2.033 0 0 1 14.904 2.221 Q 15.39 1.907 15.957 1.907 A 2.254 2.254 0 0 1 16.57 1.986 A 1.639 1.639 0 0 1 17.398 2.518 Q 17.912 3.129 17.912 4.267 L 17.912 4.605 L 14.691 4.605 A 2.111 2.111 0 0 0 14.762 5.114 A 1.516 1.516 0 0 0 15.102 5.741 A 1.282 1.282 0 0 0 16.036 6.173 A 1.652 1.652 0 0 0 16.102 6.174 A 1.763 1.763 0 0 0 16.43 6.145 Q 16.654 6.103 16.831 5.999 A 1.827 1.827 0 0 0 17.34 5.551 A 2.068 2.068 0 0 0 17.354 5.533 L 17.851 5.919 A 1.926 1.926 0 0 1 16.451 6.811 A 2.749 2.749 0 0 1 16.058 6.838 A 2.394 2.394 0 0 1 15.306 6.725 A 1.974 1.974 0 0 1 14.484 6.203 Q 13.878 5.568 13.878 4.504 Z M 0.848 0.352 L 0.848 6.06 L 3.88 6.06 L 3.88 6.75 L 0 6.75 L 0 0.352 L 0.848 0.352 Z M 47.215 0.844 L 48.028 0.844 L 48.028 1.995 L 48.916 1.995 L 48.916 2.624 L 48.028 2.624 L 48.028 5.572 Q 48.028 5.858 48.146 6.001 Q 48.265 6.144 48.551 6.144 A 1.046 1.046 0 0 0 48.648 6.138 Q 48.751 6.129 48.891 6.101 A 4.024 4.024 0 0 0 48.938 6.091 L 48.938 6.75 A 2.463 2.463 0 0 1 48.505 6.829 A 2.157 2.157 0 0 1 48.313 6.838 Q 47.866 6.838 47.6 6.616 A 0.856 0.856 0 0 1 47.492 6.508 Q 47.264 6.238 47.224 5.78 A 2.351 2.351 0 0 1 47.215 5.572 L 47.215 2.624 L 46.349 2.624 L 46.349 1.995 L 47.215 1.995 L 47.215 0.844 Z M 25.748 4.386 L 25.748 4.329 A 3.057 3.057 0 0 1 25.834 3.587 A 2.573 2.573 0 0 1 26.022 3.072 A 2.16 2.16 0 0 1 26.437 2.486 A 1.957 1.957 0 0 1 26.787 2.21 A 2.036 2.036 0 0 1 27.731 1.913 A 2.491 2.491 0 0 1 27.905 1.907 A 2.277 2.277 0 0 1 28.659 2.027 A 1.937 1.937 0 0 1 29.476 2.58 A 2.29 2.29 0 0 1 29.995 3.608 A 3.373 3.373 0 0 1 30.076 4.368 L 30.076 4.425 A 3.114 3.114 0 0 1 29.997 5.142 A 2.577 2.577 0 0 1 29.81 5.671 A 2.056 2.056 0 0 1 29.283 6.361 A 2.001 2.001 0 0 1 29.05 6.53 A 2.045 2.045 0 0 1 28.13 6.829 A 2.529 2.529 0 0 1 27.914 6.838 A 2.262 2.262 0 0 1 27.164 6.718 A 1.938 1.938 0 0 1 26.347 6.166 A 2.297 2.297 0 0 1 25.822 5.111 A 3.357 3.357 0 0 1 25.748 4.386 Z M 51.833 4.386 L 51.833 4.329 A 3.057 3.057 0 0 1 51.92 3.587 A 2.573 2.573 0 0 1 52.108 3.072 A 2.16 2.16 0 0 1 52.523 2.486 A 1.957 1.957 0 0 1 52.873 2.21 A 2.036 2.036 0 0 1 53.817 1.913 A 2.491 2.491 0 0 1 53.991 1.907 A 2.277 2.277 0 0 1 54.745 2.027 A 1.937 1.937 0 0 1 55.562 2.58 A 2.29 2.29 0 0 1 56.081 3.608 A 3.373 3.373 0 0 1 56.162 4.368 L 56.162 4.425 A 3.114 3.114 0 0 1 56.083 5.142 A 2.577 2.577 0 0 1 55.896 5.671 A 2.056 2.056 0 0 1 55.369 6.361 A 2.001 2.001 0 0 1 55.136 6.53 A 2.045 2.045 0 0 1 54.216 6.829 A 2.529 2.529 0 0 1 54 6.838 A 2.262 2.262 0 0 1 53.25 6.718 A 1.938 1.938 0 0 1 52.433 6.166 A 2.297 2.297 0 0 1 51.908 5.111 A 3.357 3.357 0 0 1 51.833 4.386 Z M 33.394 1.969 L 33.394 2.725 A 2.251 2.251 0 0 0 33.151 2.698 A 2.782 2.782 0 0 0 32.994 2.694 Q 32.216 2.694 31.925 3.338 A 1.445 1.445 0 0 0 31.909 3.375 L 31.909 6.75 L 31.096 6.75 L 31.096 1.995 L 31.887 1.995 L 31.9 2.544 Q 32.28 1.938 32.963 1.909 A 1.636 1.636 0 0 1 33.034 1.907 Q 33.271 1.907 33.394 1.969 Z M 50.748 1.995 L 50.748 6.75 L 49.935 6.75 L 49.935 1.995 L 50.748 1.995 Z M 26.565 4.425 A 2.772 2.772 0 0 0 26.612 4.954 Q 26.673 5.264 26.81 5.51 A 1.545 1.545 0 0 0 26.932 5.695 Q 27.299 6.174 27.914 6.174 A 1.269 1.269 0 0 0 28.403 6.083 Q 28.683 5.967 28.885 5.706 A 1.471 1.471 0 0 0 28.898 5.689 A 1.648 1.648 0 0 0 29.153 5.171 Q 29.222 4.945 29.248 4.672 A 3.655 3.655 0 0 0 29.263 4.329 A 2.687 2.687 0 0 0 29.212 3.789 Q 29.144 3.459 28.987 3.2 A 1.586 1.586 0 0 0 28.892 3.061 A 1.231 1.231 0 0 0 28.477 2.705 Q 28.224 2.575 27.905 2.575 Q 27.315 2.575 26.949 3.035 A 1.515 1.515 0 0 0 26.934 3.054 A 1.589 1.589 0 0 0 26.682 3.552 Q 26.612 3.772 26.584 4.039 A 3.676 3.676 0 0 0 26.565 4.425 Z M 52.651 4.425 A 2.772 2.772 0 0 0 52.698 4.954 Q 52.759 5.264 52.896 5.51 A 1.545 1.545 0 0 0 53.018 5.695 Q 53.385 6.174 54 6.174 A 1.269 1.269 0 0 0 54.489 6.083 Q 54.769 5.967 54.971 5.706 A 1.471 1.471 0 0 0 54.984 5.689 A 1.648 1.648 0 0 0 55.239 5.171 Q 55.308 4.945 55.334 4.672 A 3.655 3.655 0 0 0 55.349 4.329 A 2.687 2.687 0 0 0 55.298 3.789 Q 55.23 3.459 55.073 3.2 A 1.586 1.586 0 0 0 54.978 3.061 A 1.231 1.231 0 0 0 54.563 2.705 Q 54.31 2.575 53.991 2.575 Q 53.401 2.575 53.035 3.035 A 1.515 1.515 0 0 0 53.02 3.054 A 1.589 1.589 0 0 0 52.768 3.552 Q 52.698 3.772 52.67 4.039 A 3.676 3.676 0 0 0 52.651 4.425 Z M 7.523 5.418 L 7.523 4.443 L 6.886 4.443 Q 5.392 4.443 5.392 5.317 Q 5.392 5.7 5.647 5.915 A 0.893 0.893 0 0 0 6.06 6.108 A 1.259 1.259 0 0 0 6.302 6.13 A 1.429 1.429 0 0 0 7.027 5.933 A 1.335 1.335 0 0 0 7.322 5.705 A 1.108 1.108 0 0 0 7.523 5.418 Z M 44.837 5.418 L 44.837 4.443 L 44.2 4.443 Q 42.706 4.443 42.706 5.317 Q 42.706 5.7 42.961 5.915 A 0.893 0.893 0 0 0 43.374 6.108 A 1.259 1.259 0 0 0 43.616 6.13 A 1.429 1.429 0 0 0 44.341 5.933 A 1.335 1.335 0 0 0 44.636 5.705 A 1.108 1.108 0 0 0 44.837 5.418 Z M 14.717 3.938 L 17.099 3.938 L 17.099 3.876 Q 17.073 3.417 16.902 3.111 A 1.13 1.13 0 0 0 16.765 2.916 A 0.983 0.983 0 0 0 16.111 2.584 A 1.39 1.39 0 0 0 15.957 2.575 A 1.106 1.106 0 0 0 15.434 2.698 A 1.14 1.14 0 0 0 15.13 2.933 A 1.417 1.417 0 0 0 14.854 3.379 Q 14.78 3.563 14.74 3.785 A 2.741 2.741 0 0 0 14.717 3.938 Z M 49.869 0.734 Q 49.869 0.536 49.99 0.4 Q 50.102 0.274 50.314 0.264 A 0.783 0.783 0 0 1 50.348 0.264 Q 50.585 0.264 50.708 0.4 A 0.474 0.474 0 0 1 50.831 0.703 A 0.614 0.614 0 0 1 50.832 0.734 A 0.523 0.523 0 0 1 50.806 0.9 A 0.442 0.442 0 0 1 50.708 1.063 Q 50.596 1.184 50.388 1.194 A 0.803 0.803 0 0 1 50.348 1.195 Q 50.176 1.195 50.065 1.126 A 0.362 0.362 0 0 1 49.99 1.063 A 0.456 0.456 0 0 1 49.872 0.788 A 0.605 0.605 0 0 1 49.869 0.734 Z" vector-effect="non-scaling-stroke"/></g>
</svg>