<?xml version="1.0" encoding="UTF-8"?>
<svg width="48px" height="48px" viewBox="0 0 48 48" version="1.1" xmlns="http://www.w3.org/2000/svg" xmlns:xlink="http://www.w3.org/1999/xlink">
    <title>Icon-Resource/Networking-and-Content-Delivery/Res_AWS-Elastic-Load-Balancing_Application-Load-Balancer_48_Dark</title>
    <g id="Icon-Resource/Networking-and-Content-Delivery/Res_AWS-Elastic-Load-Balancing_Application-Load-Balancer_48" stroke="none" stroke-width="1" fill="none" fill-rule="evenodd">
        <path transform="translate(0vw, 0vh), scale(.65)" d="M33.69,34.375 L36.035,34.375 L36.035,32 L33.69,32 L33.69,34.375 Z M26.751,34.375 L29.126,34.375 L29.126,32 L26.751,32 L26.751,34.375 Z M18.876,34.375 L21.251,34.375 L21.251,32 L18.876,32 L18.876,34.375 Z M11.966,34.375 L14.251,34.375 L14.251,32 L11.966,32 L11.966,34.375 Z M18.001,16.875 L30.001,16.875 L30.001,11 L18.001,11 L18.001,16.875 Z M37.035,30 L35.501,30 L35.501,26.625 C35.501,26.072 35.053,25.625 34.501,25.625 L32.001,25.625 L32.001,22.25 C32.001,21.697 31.553,21.25 31.001,21.25 L25.001,21.25 L25.001,18.875 L31.001,18.875 C31.553,18.875 32.001,18.428 32.001,17.875 L32.001,10 C32.001,9.447 31.553,9 31.001,9 L17.001,9 C16.448,9 16.001,9.447 16.001,10 L16.001,17.875 C16.001,18.428 16.448,18.875 17.001,18.875 L23.001,18.875 L23.001,21.25 L17.001,21.25 C16.448,21.25 16.001,21.697 16.001,22.25 L16.001,25.625 L13.501,25.625 C12.948,25.625 12.501,26.072 12.501,26.625 L12.501,30 L10.965,30 C10.413,30 9.965,30.447 9.965,31 L9.965,35.375 C9.965,35.928 10.413,36.375 10.965,36.375 L15.251,36.375 C15.803,36.375 16.251,35.928 16.251,35.375 L16.251,31 C16.251,30.447 15.803,30 15.251,30 L14.501,30 L14.501,27.625 L18.626,27.625 L18.626,30 L17.876,30 C17.323,30 16.876,30.447 16.876,31 L16.876,35.375 C16.876,35.928 17.323,36.375 17.876,36.375 L22.251,36.375 C22.803,36.375 23.251,35.928 23.251,35.375 L23.251,31 C23.251,30.447 22.803,30 22.251,30 L20.626,30 L20.626,26.625 C20.626,26.072 20.178,25.625 19.626,25.625 L18.001,25.625 L18.001,23.25 L30.001,23.25 L30.001,25.625 L28.376,25.625 C27.823,25.625 27.376,26.072 27.376,26.625 L27.376,30 L25.751,30 C25.198,30 24.751,30.447 24.751,31 L24.751,35.375 C24.751,35.928 25.198,36.375 25.751,36.375 L30.126,36.375 C30.678,36.375 31.126,35.928 31.126,35.375 L31.126,31 C31.126,30.447 30.678,30 30.126,30 L29.376,30 L29.376,27.625 L33.501,27.625 L33.501,30 L32.69,30 C32.137,30 31.69,30.447 31.69,31 L31.69,35.375 C31.69,35.928 32.137,36.375 32.69,36.375 L37.035,36.375 C37.587,36.375 38.035,35.928 38.035,35.375 L38.035,31 C38.035,30.447 37.587,30 37.035,30 L37.035,30 Z M24.001,44 C12.972,44 4,35.028 4,24 C4,12.972 12.972,4 24.001,4 C35.029,4 44.001,12.972 44.001,24 C44.001,35.028 35.029,44 24.001,44 L24.001,44 Z M24.001,2 C11.869,2 2,11.869 2,24 C2,36.131 11.869,46 24.001,46 C36.131,46 46.001,36.131 46.001,24 C46.001,11.869 36.131,2 24.001,2 L24.001,2 Z" id="AWS-Elastic-Load-Balancing_-Application-Load-Balancer_Resource-Icon_light-bg" fill="#000000"></path>
    </g><g id="svgGroup" stroke-linecap="round" fill-rule="evenodd" font-size="9pt" stroke="#000" stroke-width="0.25mm" fill="#000" style="stroke:#000;stroke-width:0.25mm;fill:#000"><path d="M 20.799 3.103 L 20.799 3.792 L 18.026 3.792 L 18.026 6.06 L 21.248 6.06 L 21.248 6.75 L 17.183 6.75 L 17.183 0.352 L 21.204 0.352 L 21.204 1.046 L 18.026 1.046 L 18.026 3.103 L 20.799 3.103 Z M 3.74 6.75 L 2.351 4.162 L 0.848 4.162 L 0.848 6.75 L 0 6.75 L 0 0.352 L 2.118 0.352 A 3.809 3.809 0 0 1 2.76 0.402 Q 3.102 0.461 3.376 0.587 A 1.789 1.789 0 0 1 3.781 0.844 A 1.588 1.588 0 0 1 4.307 1.732 A 2.453 2.453 0 0 1 4.364 2.276 A 1.864 1.864 0 0 1 4.273 2.868 A 1.64 1.64 0 0 1 4.041 3.318 A 1.849 1.849 0 0 1 3.382 3.875 A 2.342 2.342 0 0 1 3.142 3.981 L 4.645 6.697 L 4.645 6.75 L 3.74 6.75 Z M 13.724 3.393 L 12.907 3.393 Q 12.907 3.059 12.623 2.817 Q 12.34 2.575 11.909 2.575 Q 11.465 2.575 11.215 2.769 A 0.653 0.653 0 0 0 11.04 2.967 Q 10.967 3.098 10.964 3.263 A 0.771 0.771 0 0 0 10.964 3.274 A 0.588 0.588 0 0 0 10.994 3.467 A 0.48 0.48 0 0 0 11.197 3.718 A 1.093 1.093 0 0 0 11.348 3.796 Q 11.512 3.868 11.767 3.937 A 6.581 6.581 0 0 0 12.039 4.003 A 6.318 6.318 0 0 1 12.446 4.108 Q 12.783 4.208 13.025 4.329 A 1.901 1.901 0 0 1 13.281 4.481 Q 13.418 4.579 13.516 4.692 A 1.06 1.06 0 0 1 13.586 4.783 A 1.024 1.024 0 0 1 13.748 5.191 A 1.388 1.388 0 0 1 13.768 5.432 Q 13.768 6.069 13.258 6.453 Q 12.776 6.817 12.022 6.837 A 3.337 3.337 0 0 1 11.936 6.838 A 2.746 2.746 0 0 1 11.401 6.788 A 2.124 2.124 0 0 1 10.925 6.636 A 1.771 1.771 0 0 1 10.491 6.358 A 1.54 1.54 0 0 1 10.237 6.071 Q 9.989 5.708 9.989 5.287 L 10.802 5.287 A 0.932 0.932 0 0 0 10.875 5.612 A 0.827 0.827 0 0 0 11.129 5.935 A 1.072 1.072 0 0 0 11.531 6.128 Q 11.686 6.167 11.867 6.173 A 2.013 2.013 0 0 0 11.936 6.174 A 1.863 1.863 0 0 0 12.231 6.152 Q 12.393 6.126 12.524 6.07 A 0.941 0.941 0 0 0 12.676 5.988 A 0.689 0.689 0 0 0 12.841 5.837 A 0.554 0.554 0 0 0 12.955 5.489 A 0.698 0.698 0 0 0 12.919 5.258 A 0.581 0.581 0 0 0 12.707 4.977 A 1.05 1.05 0 0 0 12.538 4.878 Q 12.349 4.788 12.054 4.712 A 5.392 5.392 0 0 0 11.841 4.663 A 6.342 6.342 0 0 1 11.48 4.575 Q 11.11 4.473 10.861 4.346 Q 10.562 4.194 10.392 3.994 A 1.017 1.017 0 0 1 10.325 3.907 Q 10.151 3.652 10.151 3.3 A 1.206 1.206 0 0 1 10.55 2.396 A 1.694 1.694 0 0 1 10.646 2.312 A 1.752 1.752 0 0 1 11.429 1.952 A 2.471 2.471 0 0 1 11.909 1.907 A 2.559 2.559 0 0 1 12.473 1.966 A 1.757 1.757 0 0 1 13.221 2.325 Q 13.724 2.742 13.724 3.393 Z M 32.788 3.393 L 31.97 3.393 Q 31.97 3.059 31.687 2.817 Q 31.403 2.575 30.973 2.575 Q 30.529 2.575 30.278 2.769 A 0.653 0.653 0 0 0 30.103 2.967 Q 30.03 3.098 30.028 3.263 A 0.771 0.771 0 0 0 30.028 3.274 A 0.588 0.588 0 0 0 30.058 3.467 A 0.48 0.48 0 0 0 30.261 3.718 A 1.093 1.093 0 0 0 30.411 3.796 Q 30.575 3.868 30.831 3.937 A 6.581 6.581 0 0 0 31.102 4.003 A 6.318 6.318 0 0 1 31.51 4.108 Q 31.847 4.208 32.089 4.329 A 1.901 1.901 0 0 1 32.345 4.481 Q 32.482 4.579 32.579 4.692 A 1.06 1.06 0 0 1 32.649 4.783 A 1.024 1.024 0 0 1 32.811 5.191 A 1.388 1.388 0 0 1 32.832 5.432 Q 32.832 6.069 32.322 6.453 Q 31.839 6.817 31.085 6.837 A 3.337 3.337 0 0 1 30.999 6.838 A 2.746 2.746 0 0 1 30.465 6.788 A 2.124 2.124 0 0 1 29.988 6.636 A 1.771 1.771 0 0 1 29.554 6.358 A 1.54 1.54 0 0 1 29.301 6.071 Q 29.052 5.708 29.052 5.287 L 29.865 5.287 A 0.932 0.932 0 0 0 29.939 5.612 A 0.827 0.827 0 0 0 30.193 5.935 A 1.072 1.072 0 0 0 30.595 6.128 Q 30.749 6.167 30.931 6.173 A 2.013 2.013 0 0 0 30.999 6.174 A 1.863 1.863 0 0 0 31.295 6.152 Q 31.456 6.126 31.588 6.07 A 0.941 0.941 0 0 0 31.74 5.988 A 0.689 0.689 0 0 0 31.904 5.837 A 0.554 0.554 0 0 0 32.019 5.489 A 0.698 0.698 0 0 0 31.982 5.258 A 0.581 0.581 0 0 0 31.77 4.977 A 1.05 1.05 0 0 0 31.601 4.878 Q 31.413 4.788 31.118 4.712 A 5.392 5.392 0 0 0 30.905 4.663 A 6.342 6.342 0 0 1 30.544 4.575 Q 30.174 4.473 29.925 4.346 Q 29.626 4.194 29.455 3.994 A 1.017 1.017 0 0 1 29.388 3.907 Q 29.215 3.652 29.215 3.3 A 1.206 1.206 0 0 1 29.614 2.396 A 1.694 1.694 0 0 1 29.709 2.312 A 1.752 1.752 0 0 1 30.492 1.952 A 2.471 2.471 0 0 1 30.973 1.907 A 2.559 2.559 0 0 1 31.536 1.966 A 1.757 1.757 0 0 1 32.284 2.325 Q 32.788 2.742 32.788 3.393 Z M 42.042 5.251 L 42.812 5.251 A 1.432 1.432 0 0 1 42.612 5.901 A 1.772 1.772 0 0 1 42.53 6.029 A 1.828 1.828 0 0 1 41.921 6.574 A 2.169 2.169 0 0 1 41.838 6.618 A 1.997 1.997 0 0 1 40.922 6.838 A 2.346 2.346 0 0 1 40.225 6.739 A 1.839 1.839 0 0 1 39.377 6.19 A 2.171 2.171 0 0 1 38.913 5.31 Q 38.804 4.909 38.804 4.417 L 38.804 4.28 A 3.24 3.24 0 0 1 38.867 3.624 A 2.57 2.57 0 0 1 39.059 3.045 A 2.008 2.008 0 0 1 39.498 2.431 A 1.892 1.892 0 0 1 39.79 2.206 A 1.943 1.943 0 0 1 40.547 1.934 A 2.529 2.529 0 0 1 40.917 1.907 A 2.196 2.196 0 0 1 41.566 1.999 A 1.786 1.786 0 0 1 42.247 2.386 A 1.693 1.693 0 0 1 42.805 3.535 A 2.239 2.239 0 0 1 42.812 3.63 L 42.042 3.63 Q 42.007 3.168 41.693 2.872 A 1.078 1.078 0 0 0 40.964 2.576 A 1.402 1.402 0 0 0 40.917 2.575 A 1.374 1.374 0 0 0 40.496 2.637 A 1.081 1.081 0 0 0 39.957 3.021 A 1.469 1.469 0 0 0 39.731 3.468 Q 39.665 3.674 39.637 3.923 A 3.514 3.514 0 0 0 39.617 4.311 L 39.617 4.465 Q 39.617 5.287 39.955 5.73 A 1.1 1.1 0 0 0 40.742 6.165 A 1.611 1.611 0 0 0 40.922 6.174 A 1.171 1.171 0 0 0 41.682 5.911 A 1.007 1.007 0 0 0 41.926 5.629 A 0.914 0.914 0 0 0 42.042 5.251 Z M 28.143 6.75 L 27.29 6.75 A 0.632 0.632 0 0 1 27.255 6.66 Q 27.223 6.562 27.198 6.41 A 3.997 3.997 0 0 1 27.176 6.249 Q 26.609 6.838 25.822 6.838 A 2.033 2.033 0 0 1 25.293 6.772 A 1.529 1.529 0 0 1 24.669 6.44 Q 24.218 6.042 24.218 5.432 Q 24.218 4.689 24.783 4.278 Q 25.348 3.867 26.372 3.867 L 27.163 3.867 L 27.163 3.494 A 1.152 1.152 0 0 0 27.127 3.199 A 0.828 0.828 0 0 0 26.908 2.815 Q 26.691 2.6 26.301 2.568 A 1.748 1.748 0 0 0 26.156 2.562 Q 25.721 2.562 25.427 2.782 Q 25.132 3.001 25.132 3.313 L 24.315 3.313 A 1.041 1.041 0 0 1 24.44 2.825 A 1.409 1.409 0 0 1 24.568 2.626 Q 24.82 2.294 25.253 2.101 A 2.249 2.249 0 0 1 26.029 1.913 A 2.669 2.669 0 0 1 26.205 1.907 A 2.65 2.65 0 0 1 26.722 1.955 Q 27.029 2.016 27.268 2.156 A 1.439 1.439 0 0 1 27.492 2.318 A 1.396 1.396 0 0 1 27.946 3.144 A 1.998 1.998 0 0 1 27.976 3.45 L 27.976 5.638 Q 27.976 6.073 28.049 6.39 A 1.707 1.707 0 0 0 28.143 6.68 L 28.143 6.75 Z M 5.212 4.504 L 5.212 4.355 A 3.17 3.17 0 0 1 5.288 3.646 A 2.581 2.581 0 0 1 5.482 3.092 A 2.191 2.191 0 0 1 5.93 2.466 A 2.033 2.033 0 0 1 6.238 2.221 Q 6.724 1.907 7.291 1.907 A 2.254 2.254 0 0 1 7.904 1.986 A 1.639 1.639 0 0 1 8.732 2.518 Q 9.246 3.129 9.246 4.267 L 9.246 4.605 L 6.025 4.605 A 2.111 2.111 0 0 0 6.096 5.114 A 1.516 1.516 0 0 0 6.436 5.741 A 1.282 1.282 0 0 0 7.37 6.173 A 1.652 1.652 0 0 0 7.436 6.174 A 1.763 1.763 0 0 0 7.764 6.145 Q 7.988 6.103 8.165 5.999 A 1.827 1.827 0 0 0 8.674 5.551 A 2.068 2.068 0 0 0 8.688 5.533 L 9.185 5.919 A 1.926 1.926 0 0 1 7.785 6.811 A 2.749 2.749 0 0 1 7.392 6.838 A 2.394 2.394 0 0 1 6.64 6.725 A 1.974 1.974 0 0 1 5.818 6.203 Q 5.212 5.568 5.212 4.504 Z M 34.181 0.844 L 34.994 0.844 L 34.994 1.995 L 35.881 1.995 L 35.881 2.624 L 34.994 2.624 L 34.994 5.572 Q 34.994 5.858 35.112 6.001 Q 35.231 6.144 35.517 6.144 A 1.046 1.046 0 0 0 35.614 6.138 Q 35.717 6.129 35.857 6.101 A 4.024 4.024 0 0 0 35.903 6.091 L 35.903 6.75 A 2.463 2.463 0 0 1 35.471 6.829 A 2.157 2.157 0 0 1 35.279 6.838 Q 34.832 6.838 34.566 6.616 A 0.856 0.856 0 0 1 34.458 6.508 Q 34.23 6.238 34.189 5.78 A 2.351 2.351 0 0 1 34.181 5.572 L 34.181 2.624 L 33.315 2.624 L 33.315 1.995 L 34.181 1.995 L 34.181 0.844 Z M 23.054 0 L 23.054 6.75 L 22.241 6.75 L 22.241 0 L 23.054 0 Z M 37.714 1.995 L 37.714 6.75 L 36.901 6.75 L 36.901 1.995 L 37.714 1.995 Z M 0.848 1.046 L 0.848 3.472 L 2.145 3.472 Q 2.685 3.472 3.035 3.231 A 1.174 1.174 0 0 0 3.144 3.146 A 1.069 1.069 0 0 0 3.51 2.409 A 1.486 1.486 0 0 0 3.516 2.276 Q 3.516 1.734 3.22 1.423 A 1 1 0 0 0 3.162 1.367 Q 2.808 1.05 2.14 1.046 L 0.848 1.046 Z M 27.163 5.418 L 27.163 4.443 L 26.525 4.443 Q 25.031 4.443 25.031 5.317 Q 25.031 5.7 25.286 5.915 A 0.893 0.893 0 0 0 25.7 6.108 A 1.259 1.259 0 0 0 25.941 6.13 A 1.429 1.429 0 0 0 26.666 5.933 A 1.335 1.335 0 0 0 26.962 5.705 A 1.108 1.108 0 0 0 27.163 5.418 Z M 6.051 3.938 L 8.433 3.938 L 8.433 3.876 Q 8.407 3.417 8.236 3.111 A 1.13 1.13 0 0 0 8.099 2.916 A 0.983 0.983 0 0 0 7.445 2.584 A 1.39 1.39 0 0 0 7.291 2.575 A 1.106 1.106 0 0 0 6.768 2.698 A 1.14 1.14 0 0 0 6.464 2.933 A 1.417 1.417 0 0 0 6.188 3.379 Q 6.114 3.563 6.074 3.785 A 2.741 2.741 0 0 0 6.051 3.938 Z M 36.835 0.734 Q 36.835 0.536 36.956 0.4 Q 37.068 0.274 37.279 0.264 A 0.783 0.783 0 0 1 37.314 0.264 Q 37.551 0.264 37.674 0.4 A 0.474 0.474 0 0 1 37.797 0.703 A 0.614 0.614 0 0 1 37.797 0.734 A 0.523 0.523 0 0 1 37.772 0.9 A 0.442 0.442 0 0 1 37.674 1.063 Q 37.562 1.184 37.354 1.194 A 0.803 0.803 0 0 1 37.314 1.195 Q 37.142 1.195 37.031 1.126 A 0.362 0.362 0 0 1 36.956 1.063 A 0.456 0.456 0 0 1 36.837 0.788 A 0.605 0.605 0 0 1 36.835 0.734 Z" vector-effect="non-scaling-stroke"/></g><g transform="translate(18.594, 64), scale(0.75)" id="svgGroup" stroke-linecap="round" fill-rule="evenodd" font-size="9pt" stroke="#000" stroke-width="0.25mm" fill="#000" style="stroke:#000;stroke-width:0.25mm;fill:#000"><path d="M 199.758 6.75 L 198.101 4.548 L 197.591 5.08 L 197.591 6.75 L 196.778 6.75 L 196.778 0 L 197.591 0 L 197.591 4.083 L 198.026 3.56 L 199.507 1.995 L 200.496 1.995 L 198.646 3.981 L 200.711 6.75 L 199.758 6.75 Z M 59.493 2.522 L 59.533 1.995 L 60.275 1.995 L 60.275 6.636 A 2.511 2.511 0 0 1 60.205 7.249 A 1.738 1.738 0 0 1 59.728 8.09 A 1.834 1.834 0 0 1 58.798 8.57 A 2.671 2.671 0 0 1 58.258 8.622 A 2.446 2.446 0 0 1 57.252 8.402 A 2.003 2.003 0 0 1 56.842 8.161 A 1.563 1.563 0 0 1 56.5 7.8 L 56.922 7.313 A 1.889 1.889 0 0 0 57.357 7.712 A 1.514 1.514 0 0 0 58.201 7.958 A 1.695 1.695 0 0 0 58.578 7.919 Q 58.847 7.858 59.041 7.702 A 1.037 1.037 0 0 0 59.126 7.625 A 1.09 1.09 0 0 0 59.403 7.132 Q 59.45 6.959 59.457 6.752 A 2.134 2.134 0 0 0 59.458 6.684 L 59.458 6.275 A 1.601 1.601 0 0 1 58.406 6.821 A 2.279 2.279 0 0 1 58.126 6.838 A 1.672 1.672 0 0 1 57.371 6.67 Q 57.049 6.51 56.8 6.197 A 2.14 2.14 0 0 1 56.775 6.166 A 2.316 2.316 0 0 1 56.392 5.386 Q 56.259 4.922 56.259 4.333 Q 56.259 3.472 56.567 2.884 A 2.096 2.096 0 0 1 56.773 2.564 Q 57.287 1.907 58.135 1.907 A 1.971 1.971 0 0 1 58.734 1.994 A 1.55 1.55 0 0 1 59.493 2.522 Z M 39.625 1.995 L 40.395 1.995 L 40.421 2.593 Q 40.957 1.918 41.817 1.907 A 2.234 2.234 0 0 1 41.845 1.907 A 1.905 1.905 0 0 1 42.478 2.004 Q 43.32 2.3 43.363 3.506 A 3.668 3.668 0 0 1 43.365 3.608 L 43.365 6.75 L 42.552 6.75 L 42.552 3.604 A 1.837 1.837 0 0 0 42.53 3.324 Q 42.48 3.017 42.317 2.843 Q 42.131 2.645 41.778 2.606 A 1.66 1.66 0 0 0 41.599 2.597 A 1.253 1.253 0 0 0 41.184 2.664 A 1.123 1.123 0 0 0 40.904 2.808 A 1.432 1.432 0 0 0 40.438 3.362 L 40.438 6.75 L 39.625 6.75 L 39.625 1.995 Z M 51.486 1.995 L 52.255 1.995 L 52.282 2.593 Q 52.818 1.918 53.678 1.907 A 2.234 2.234 0 0 1 53.706 1.907 A 1.905 1.905 0 0 1 54.339 2.004 Q 55.181 2.3 55.224 3.506 A 3.668 3.668 0 0 1 55.226 3.608 L 55.226 6.75 L 54.413 6.75 L 54.413 3.604 A 1.837 1.837 0 0 0 54.391 3.324 Q 54.341 3.017 54.178 2.843 Q 53.992 2.645 53.638 2.606 A 1.66 1.66 0 0 0 53.459 2.597 A 1.253 1.253 0 0 0 53.045 2.664 A 1.123 1.123 0 0 0 52.765 2.808 A 1.432 1.432 0 0 0 52.299 3.362 L 52.299 6.75 L 51.486 6.75 L 51.486 1.995 Z M 103.931 1.995 L 104.7 1.995 L 104.726 2.593 Q 105.262 1.918 106.122 1.907 A 2.234 2.234 0 0 1 106.15 1.907 A 1.905 1.905 0 0 1 106.783 2.004 Q 107.625 2.3 107.668 3.506 A 3.668 3.668 0 0 1 107.67 3.608 L 107.67 6.75 L 106.857 6.75 L 106.857 3.604 A 1.837 1.837 0 0 0 106.835 3.324 Q 106.785 3.017 106.622 2.843 Q 106.436 2.645 106.083 2.606 A 1.66 1.66 0 0 0 105.904 2.597 A 1.253 1.253 0 0 0 105.489 2.664 A 1.123 1.123 0 0 0 105.209 2.808 A 1.432 1.432 0 0 0 104.744 3.362 L 104.744 6.75 L 103.931 6.75 L 103.931 1.995 Z M 150.877 1.995 L 151.646 1.995 L 151.673 2.593 Q 152.209 1.918 153.069 1.907 A 2.234 2.234 0 0 1 153.097 1.907 A 1.905 1.905 0 0 1 153.73 2.004 Q 154.572 2.3 154.615 3.506 A 3.668 3.668 0 0 1 154.617 3.608 L 154.617 6.75 L 153.804 6.75 L 153.804 3.604 A 1.837 1.837 0 0 0 153.782 3.324 Q 153.732 3.017 153.569 2.843 Q 153.383 2.645 153.03 2.606 A 1.66 1.66 0 0 0 152.851 2.597 A 1.253 1.253 0 0 0 152.436 2.664 A 1.123 1.123 0 0 0 152.156 2.808 A 1.432 1.432 0 0 0 151.69 3.362 L 151.69 6.75 L 150.877 6.75 L 150.877 1.995 Z M 47.619 5.251 L 48.388 5.251 A 1.432 1.432 0 0 1 48.189 5.901 A 1.772 1.772 0 0 1 48.107 6.029 A 1.828 1.828 0 0 1 47.498 6.574 A 2.169 2.169 0 0 1 47.415 6.618 A 1.997 1.997 0 0 1 46.499 6.838 A 2.346 2.346 0 0 1 45.801 6.739 A 1.839 1.839 0 0 1 44.954 6.19 A 2.171 2.171 0 0 1 44.49 5.31 Q 44.38 4.909 44.38 4.417 L 44.38 4.28 A 3.24 3.24 0 0 1 44.444 3.624 A 2.57 2.57 0 0 1 44.635 3.045 A 2.008 2.008 0 0 1 45.075 2.431 A 1.892 1.892 0 0 1 45.367 2.206 A 1.943 1.943 0 0 1 46.123 1.934 A 2.529 2.529 0 0 1 46.494 1.907 A 2.196 2.196 0 0 1 47.142 1.999 A 1.786 1.786 0 0 1 47.823 2.386 A 1.693 1.693 0 0 1 48.382 3.535 A 2.239 2.239 0 0 1 48.388 3.63 L 47.619 3.63 Q 47.584 3.168 47.27 2.872 A 1.078 1.078 0 0 0 46.541 2.576 A 1.402 1.402 0 0 0 46.494 2.575 A 1.374 1.374 0 0 0 46.073 2.637 A 1.081 1.081 0 0 0 45.534 3.021 A 1.469 1.469 0 0 0 45.307 3.468 Q 45.241 3.674 45.214 3.923 A 3.514 3.514 0 0 0 45.193 4.311 L 45.193 4.465 Q 45.193 5.287 45.532 5.73 A 1.1 1.1 0 0 0 46.318 6.165 A 1.611 1.611 0 0 0 46.499 6.174 A 1.171 1.171 0 0 0 47.259 5.911 A 1.007 1.007 0 0 0 47.503 5.629 A 0.914 0.914 0 0 0 47.619 5.251 Z M 87.095 5.251 L 87.864 5.251 A 1.432 1.432 0 0 1 87.665 5.901 A 1.772 1.772 0 0 1 87.583 6.029 A 1.828 1.828 0 0 1 86.974 6.574 A 2.169 2.169 0 0 1 86.891 6.618 A 1.997 1.997 0 0 1 85.975 6.838 A 2.346 2.346 0 0 1 85.277 6.739 A 1.839 1.839 0 0 1 84.43 6.19 A 2.171 2.171 0 0 1 83.966 5.31 Q 83.856 4.909 83.856 4.417 L 83.856 4.28 A 3.24 3.24 0 0 1 83.92 3.624 A 2.57 2.57 0 0 1 84.111 3.045 A 2.008 2.008 0 0 1 84.551 2.431 A 1.892 1.892 0 0 1 84.843 2.206 A 1.943 1.943 0 0 1 85.599 1.934 A 2.529 2.529 0 0 1 85.97 1.907 A 2.196 2.196 0 0 1 86.618 1.999 A 1.786 1.786 0 0 1 87.3 2.386 A 1.693 1.693 0 0 1 87.858 3.535 A 2.239 2.239 0 0 1 87.864 3.63 L 87.095 3.63 Q 87.06 3.168 86.746 2.872 A 1.078 1.078 0 0 0 86.017 2.576 A 1.402 1.402 0 0 0 85.97 2.575 A 1.374 1.374 0 0 0 85.549 2.637 A 1.081 1.081 0 0 0 85.01 3.021 A 1.469 1.469 0 0 0 84.783 3.468 Q 84.717 3.674 84.69 3.923 A 3.514 3.514 0 0 0 84.669 4.311 L 84.669 4.465 Q 84.669 5.287 85.008 5.73 A 1.1 1.1 0 0 0 85.794 6.165 A 1.611 1.611 0 0 0 85.975 6.174 A 1.171 1.171 0 0 0 86.735 5.911 A 1.007 1.007 0 0 0 86.979 5.629 A 0.914 0.914 0 0 0 87.095 5.251 Z M 158.871 5.251 L 159.64 5.251 A 1.432 1.432 0 0 1 159.441 5.901 A 1.772 1.772 0 0 1 159.359 6.029 A 1.828 1.828 0 0 1 158.75 6.574 A 2.169 2.169 0 0 1 158.667 6.618 A 1.997 1.997 0 0 1 157.75 6.838 A 2.346 2.346 0 0 1 157.053 6.739 A 1.839 1.839 0 0 1 156.206 6.19 A 2.171 2.171 0 0 1 155.742 5.31 Q 155.632 4.909 155.632 4.417 L 155.632 4.28 A 3.24 3.24 0 0 1 155.696 3.624 A 2.57 2.57 0 0 1 155.887 3.045 A 2.008 2.008 0 0 1 156.327 2.431 A 1.892 1.892 0 0 1 156.619 2.206 A 1.943 1.943 0 0 1 157.375 1.934 A 2.529 2.529 0 0 1 157.746 1.907 A 2.196 2.196 0 0 1 158.394 1.999 A 1.786 1.786 0 0 1 159.075 2.386 A 1.693 1.693 0 0 1 159.634 3.535 A 2.239 2.239 0 0 1 159.64 3.63 L 158.871 3.63 Q 158.836 3.168 158.522 2.872 A 1.078 1.078 0 0 0 157.793 2.576 A 1.402 1.402 0 0 0 157.746 2.575 A 1.374 1.374 0 0 0 157.325 2.637 A 1.081 1.081 0 0 0 156.786 3.021 A 1.469 1.469 0 0 0 156.559 3.468 Q 156.493 3.674 156.466 3.923 A 3.514 3.514 0 0 0 156.445 4.311 L 156.445 4.465 Q 156.445 5.287 156.784 5.73 A 1.1 1.1 0 0 0 157.57 6.165 A 1.611 1.611 0 0 0 157.75 6.174 A 1.171 1.171 0 0 0 158.511 5.911 A 1.007 1.007 0 0 0 158.755 5.629 A 0.914 0.914 0 0 0 158.871 5.251 Z M 68.001 6.75 L 67.39 5.08 L 64.709 5.08 L 64.107 6.75 L 63.237 6.75 L 65.681 0.352 L 66.419 0.352 L 68.867 6.75 L 68.001 6.75 Z M 13.636 6.75 L 12.784 6.75 A 0.632 0.632 0 0 1 12.748 6.66 Q 12.717 6.562 12.692 6.41 A 3.997 3.997 0 0 1 12.669 6.249 Q 12.103 6.838 11.316 6.838 A 2.033 2.033 0 0 1 10.787 6.772 A 1.529 1.529 0 0 1 10.162 6.44 Q 9.712 6.042 9.712 5.432 Q 9.712 4.689 10.277 4.278 Q 10.841 3.867 11.865 3.867 L 12.656 3.867 L 12.656 3.494 A 1.152 1.152 0 0 0 12.621 3.199 A 0.828 0.828 0 0 0 12.401 2.815 Q 12.185 2.6 11.795 2.568 A 1.748 1.748 0 0 0 11.65 2.562 Q 11.215 2.562 10.92 2.782 Q 10.626 3.001 10.626 3.313 L 9.809 3.313 A 1.041 1.041 0 0 1 9.934 2.825 A 1.409 1.409 0 0 1 10.061 2.626 Q 10.314 2.294 10.747 2.101 A 2.249 2.249 0 0 1 11.523 1.913 A 2.669 2.669 0 0 1 11.698 1.907 A 2.65 2.65 0 0 1 12.216 1.955 Q 12.523 2.016 12.762 2.156 A 1.439 1.439 0 0 1 12.986 2.318 A 1.396 1.396 0 0 1 13.439 3.144 A 1.998 1.998 0 0 1 13.469 3.45 L 13.469 5.638 Q 13.469 6.073 13.543 6.39 A 1.707 1.707 0 0 0 13.636 6.68 L 13.636 6.75 Z M 31.438 6.75 L 30.586 6.75 A 0.632 0.632 0 0 1 30.55 6.66 Q 30.519 6.562 30.494 6.41 A 3.997 3.997 0 0 1 30.472 6.249 Q 29.905 6.838 29.118 6.838 A 2.033 2.033 0 0 1 28.589 6.772 A 1.529 1.529 0 0 1 27.965 6.44 Q 27.514 6.042 27.514 5.432 Q 27.514 4.689 28.079 4.278 Q 28.644 3.867 29.667 3.867 L 30.458 3.867 L 30.458 3.494 A 1.152 1.152 0 0 0 30.423 3.199 A 0.828 0.828 0 0 0 30.204 2.815 Q 29.987 2.6 29.597 2.568 A 1.748 1.748 0 0 0 29.452 2.562 Q 29.017 2.562 28.723 2.782 Q 28.428 3.001 28.428 3.313 L 27.611 3.313 A 1.041 1.041 0 0 1 27.736 2.825 A 1.409 1.409 0 0 1 27.864 2.626 Q 28.116 2.294 28.549 2.101 A 2.249 2.249 0 0 1 29.325 1.913 A 2.669 2.669 0 0 1 29.5 1.907 A 2.65 2.65 0 0 1 30.018 1.955 Q 30.325 2.016 30.564 2.156 A 1.439 1.439 0 0 1 30.788 2.318 A 1.396 1.396 0 0 1 31.241 3.144 A 1.998 1.998 0 0 1 31.271 3.45 L 31.271 5.638 Q 31.271 6.073 31.345 6.39 A 1.707 1.707 0 0 0 31.438 6.68 L 31.438 6.75 Z M 38.518 6.75 L 37.666 6.75 A 0.632 0.632 0 0 1 37.63 6.66 Q 37.599 6.562 37.574 6.41 A 3.997 3.997 0 0 1 37.551 6.249 Q 36.984 6.838 36.198 6.838 A 2.033 2.033 0 0 1 35.668 6.772 A 1.529 1.529 0 0 1 35.044 6.44 Q 34.594 6.042 34.594 5.432 Q 34.594 4.689 35.158 4.278 Q 35.723 3.867 36.747 3.867 L 37.538 3.867 L 37.538 3.494 A 1.152 1.152 0 0 0 37.502 3.199 A 0.828 0.828 0 0 0 37.283 2.815 Q 37.067 2.6 36.677 2.568 A 1.748 1.748 0 0 0 36.532 2.562 Q 36.097 2.562 35.802 2.782 Q 35.508 3.001 35.508 3.313 L 34.69 3.313 A 1.041 1.041 0 0 1 34.815 2.825 A 1.409 1.409 0 0 1 34.943 2.626 Q 35.196 2.294 35.629 2.101 A 2.249 2.249 0 0 1 36.404 1.913 A 2.669 2.669 0 0 1 36.58 1.907 A 2.65 2.65 0 0 1 37.098 1.955 Q 37.405 2.016 37.644 2.156 A 1.439 1.439 0 0 1 37.868 2.318 A 1.396 1.396 0 0 1 38.321 3.144 A 1.998 1.998 0 0 1 38.351 3.45 L 38.351 5.638 Q 38.351 6.073 38.425 6.39 A 1.707 1.707 0 0 0 38.518 6.68 L 38.518 6.75 Z M 92.566 6.75 L 91.714 6.75 A 0.632 0.632 0 0 1 91.678 6.66 Q 91.647 6.562 91.622 6.41 A 3.997 3.997 0 0 1 91.6 6.249 Q 91.033 6.838 90.246 6.838 A 2.033 2.033 0 0 1 89.717 6.772 A 1.529 1.529 0 0 1 89.093 6.44 Q 88.642 6.042 88.642 5.432 Q 88.642 4.689 89.207 4.278 Q 89.771 3.867 90.795 3.867 L 91.586 3.867 L 91.586 3.494 A 1.152 1.152 0 0 0 91.551 3.199 A 0.828 0.828 0 0 0 91.332 2.815 Q 91.115 2.6 90.725 2.568 A 1.748 1.748 0 0 0 90.58 2.562 Q 90.145 2.562 89.851 2.782 Q 89.556 3.001 89.556 3.313 L 88.739 3.313 A 1.041 1.041 0 0 1 88.864 2.825 A 1.409 1.409 0 0 1 88.991 2.626 Q 89.244 2.294 89.677 2.101 A 2.249 2.249 0 0 1 90.453 1.913 A 2.669 2.669 0 0 1 90.628 1.907 A 2.65 2.65 0 0 1 91.146 1.955 Q 91.453 2.016 91.692 2.156 A 1.439 1.439 0 0 1 91.916 2.318 A 1.396 1.396 0 0 1 92.369 3.144 A 1.998 1.998 0 0 1 92.399 3.45 L 92.399 5.638 Q 92.399 6.073 92.473 6.39 A 1.707 1.707 0 0 0 92.566 6.68 L 92.566 6.75 Z M 124.888 6.75 L 124.036 6.75 A 0.632 0.632 0 0 1 124 6.66 Q 123.969 6.562 123.944 6.41 A 3.997 3.997 0 0 1 123.921 6.249 Q 123.354 6.838 122.568 6.838 A 2.033 2.033 0 0 1 122.039 6.772 A 1.529 1.529 0 0 1 121.414 6.44 Q 120.964 6.042 120.964 5.432 Q 120.964 4.689 121.529 4.278 Q 122.093 3.867 123.117 3.867 L 123.908 3.867 L 123.908 3.494 A 1.152 1.152 0 0 0 123.872 3.199 A 0.828 0.828 0 0 0 123.653 2.815 Q 123.437 2.6 123.047 2.568 A 1.748 1.748 0 0 0 122.902 2.562 Q 122.467 2.562 122.172 2.782 Q 121.878 3.001 121.878 3.313 L 121.061 3.313 A 1.041 1.041 0 0 1 121.185 2.825 A 1.409 1.409 0 0 1 121.313 2.626 Q 121.566 2.294 121.999 2.101 A 2.249 2.249 0 0 1 122.774 1.913 A 2.669 2.669 0 0 1 122.95 1.907 A 2.65 2.65 0 0 1 123.468 1.955 Q 123.775 2.016 124.014 2.156 A 1.439 1.439 0 0 1 124.238 2.318 A 1.396 1.396 0 0 1 124.691 3.144 A 1.998 1.998 0 0 1 124.721 3.45 L 124.721 5.638 Q 124.721 6.073 124.795 6.39 A 1.707 1.707 0 0 0 124.888 6.68 L 124.888 6.75 Z M 142.69 6.75 L 141.838 6.75 A 0.632 0.632 0 0 1 141.802 6.66 Q 141.771 6.562 141.746 6.41 A 3.997 3.997 0 0 1 141.724 6.249 Q 141.157 6.838 140.37 6.838 A 2.033 2.033 0 0 1 139.841 6.772 A 1.529 1.529 0 0 1 139.217 6.44 Q 138.766 6.042 138.766 5.432 Q 138.766 4.689 139.331 4.278 Q 139.896 3.867 140.919 3.867 L 141.71 3.867 L 141.71 3.494 A 1.152 1.152 0 0 0 141.675 3.199 A 0.828 0.828 0 0 0 141.456 2.815 Q 141.239 2.6 140.849 2.568 A 1.748 1.748 0 0 0 140.704 2.562 Q 140.269 2.562 139.975 2.782 Q 139.68 3.001 139.68 3.313 L 138.863 3.313 A 1.041 1.041 0 0 1 138.988 2.825 A 1.409 1.409 0 0 1 139.115 2.626 Q 139.368 2.294 139.801 2.101 A 2.249 2.249 0 0 1 140.577 1.913 A 2.669 2.669 0 0 1 140.752 1.907 A 2.65 2.65 0 0 1 141.27 1.955 Q 141.577 2.016 141.816 2.156 A 1.439 1.439 0 0 1 142.04 2.318 A 1.396 1.396 0 0 1 142.493 3.144 A 1.998 1.998 0 0 1 142.523 3.45 L 142.523 5.638 Q 142.523 6.073 142.597 6.39 A 1.707 1.707 0 0 0 142.69 6.68 L 142.69 6.75 Z M 149.77 6.75 L 148.917 6.75 A 0.632 0.632 0 0 1 148.882 6.66 Q 148.851 6.562 148.826 6.41 A 3.997 3.997 0 0 1 148.803 6.249 Q 148.236 6.838 147.45 6.838 A 2.033 2.033 0 0 1 146.92 6.772 A 1.529 1.529 0 0 1 146.296 6.44 Q 145.846 6.042 145.846 5.432 Q 145.846 4.689 146.41 4.278 Q 146.975 3.867 147.999 3.867 L 148.79 3.867 L 148.79 3.494 A 1.152 1.152 0 0 0 148.754 3.199 A 0.828 0.828 0 0 0 148.535 2.815 Q 148.319 2.6 147.928 2.568 A 1.748 1.748 0 0 0 147.784 2.562 Q 147.349 2.562 147.054 2.782 Q 146.76 3.001 146.76 3.313 L 145.942 3.313 A 1.041 1.041 0 0 1 146.067 2.825 A 1.409 1.409 0 0 1 146.195 2.626 Q 146.448 2.294 146.881 2.101 A 2.249 2.249 0 0 1 147.656 1.913 A 2.669 2.669 0 0 1 147.832 1.907 A 2.65 2.65 0 0 1 148.349 1.955 Q 148.657 2.016 148.896 2.156 A 1.439 1.439 0 0 1 149.12 2.318 A 1.396 1.396 0 0 1 149.573 3.144 A 1.998 1.998 0 0 1 149.603 3.45 L 149.603 5.638 Q 149.603 6.073 149.677 6.39 A 1.707 1.707 0 0 0 149.77 6.68 L 149.77 6.75 Z M 192.621 6.75 L 191.769 6.75 A 0.632 0.632 0 0 1 191.733 6.66 Q 191.702 6.562 191.677 6.41 A 3.997 3.997 0 0 1 191.654 6.249 Q 191.087 6.838 190.301 6.838 A 2.033 2.033 0 0 1 189.771 6.772 A 1.529 1.529 0 0 1 189.147 6.44 Q 188.697 6.042 188.697 5.432 Q 188.697 4.689 189.261 4.278 Q 189.826 3.867 190.85 3.867 L 191.641 3.867 L 191.641 3.494 A 1.152 1.152 0 0 0 191.605 3.199 A 0.828 0.828 0 0 0 191.386 2.815 Q 191.17 2.6 190.78 2.568 A 1.748 1.748 0 0 0 190.635 2.562 Q 190.2 2.562 189.905 2.782 Q 189.611 3.001 189.611 3.313 L 188.793 3.313 A 1.041 1.041 0 0 1 188.918 2.825 A 1.409 1.409 0 0 1 189.046 2.626 Q 189.299 2.294 189.732 2.101 A 2.249 2.249 0 0 1 190.507 1.913 A 2.669 2.669 0 0 1 190.683 1.907 A 2.65 2.65 0 0 1 191.201 1.955 Q 191.508 2.016 191.747 2.156 A 1.439 1.439 0 0 1 191.971 2.318 A 1.396 1.396 0 0 1 192.424 3.144 A 1.998 1.998 0 0 1 192.454 3.45 L 192.454 5.638 Q 192.454 6.073 192.528 6.39 A 1.707 1.707 0 0 0 192.621 6.68 L 192.621 6.75 Z M 14.546 4.395 L 14.546 4.333 A 3.762 3.762 0 0 1 14.613 3.602 Q 14.701 3.16 14.903 2.812 A 2.148 2.148 0 0 1 15.064 2.573 Q 15.583 1.907 16.422 1.907 A 1.964 1.964 0 0 1 17.02 1.994 A 1.559 1.559 0 0 1 17.745 2.479 L 17.745 0 L 18.558 0 L 18.558 6.75 L 17.811 6.75 L 17.771 6.24 Q 17.284 6.838 16.414 6.838 A 1.6 1.6 0 0 1 15.193 6.31 A 2.078 2.078 0 0 1 15.067 6.161 A 2.405 2.405 0 0 1 14.642 5.255 Q 14.558 4.912 14.547 4.51 A 4.425 4.425 0 0 1 14.546 4.395 Z M 125.798 4.395 L 125.798 4.333 A 3.762 3.762 0 0 1 125.865 3.602 Q 125.952 3.16 126.155 2.812 A 2.148 2.148 0 0 1 126.316 2.573 Q 126.835 1.907 127.674 1.907 A 1.964 1.964 0 0 1 128.272 1.994 A 1.559 1.559 0 0 1 128.997 2.479 L 128.997 0 L 129.81 0 L 129.81 6.75 L 129.063 6.75 L 129.023 6.24 Q 128.536 6.838 127.666 6.838 A 1.6 1.6 0 0 1 126.445 6.31 A 2.078 2.078 0 0 1 126.319 6.161 A 2.405 2.405 0 0 1 125.894 5.255 Q 125.81 4.912 125.799 4.51 A 4.425 4.425 0 0 1 125.798 4.395 Z M 73.617 4.351 L 73.617 4.425 Q 73.617 5.511 73.121 6.174 A 1.57 1.57 0 0 1 71.982 6.828 A 2.013 2.013 0 0 1 71.776 6.838 A 2.196 2.196 0 0 1 71.19 6.764 A 1.598 1.598 0 0 1 70.414 6.289 L 70.414 8.578 L 69.601 8.578 L 69.601 1.995 L 70.343 1.995 L 70.383 2.522 A 1.619 1.619 0 0 1 71.522 1.919 A 2.319 2.319 0 0 1 71.763 1.907 A 1.829 1.829 0 0 1 72.4 2.014 A 1.597 1.597 0 0 1 73.118 2.553 Q 73.617 3.199 73.617 4.351 Z M 78.667 4.351 L 78.667 4.425 Q 78.667 5.511 78.17 6.174 A 1.57 1.57 0 0 1 77.032 6.828 A 2.013 2.013 0 0 1 76.825 6.838 A 2.196 2.196 0 0 1 76.239 6.764 A 1.598 1.598 0 0 1 75.463 6.289 L 75.463 8.578 L 74.65 8.578 L 74.65 1.995 L 75.393 1.995 L 75.432 2.522 A 1.619 1.619 0 0 1 76.571 1.919 A 2.319 2.319 0 0 1 76.812 1.907 A 1.829 1.829 0 0 1 77.449 2.014 A 1.597 1.597 0 0 1 78.168 2.553 Q 78.667 3.199 78.667 4.351 Z M 160.348 4.504 L 160.348 4.355 A 3.17 3.17 0 0 1 160.424 3.646 A 2.581 2.581 0 0 1 160.618 3.092 A 2.191 2.191 0 0 1 161.065 2.466 A 2.033 2.033 0 0 1 161.374 2.221 Q 161.859 1.907 162.426 1.907 A 2.254 2.254 0 0 1 163.039 1.986 A 1.639 1.639 0 0 1 163.868 2.518 Q 164.382 3.129 164.382 4.267 L 164.382 4.605 L 161.161 4.605 A 2.111 2.111 0 0 0 161.232 5.114 A 1.516 1.516 0 0 0 161.572 5.741 A 1.282 1.282 0 0 0 162.506 6.173 A 1.652 1.652 0 0 0 162.571 6.174 A 1.763 1.763 0 0 0 162.899 6.145 Q 163.123 6.103 163.301 5.999 A 1.827 1.827 0 0 0 163.81 5.551 A 2.068 2.068 0 0 0 163.824 5.533 L 164.32 5.919 A 1.926 1.926 0 0 1 162.921 6.811 A 2.749 2.749 0 0 1 162.527 6.838 A 2.394 2.394 0 0 1 161.776 6.725 A 1.974 1.974 0 0 1 160.954 6.203 Q 160.348 5.568 160.348 4.504 Z M 24.394 6.75 L 22.175 6.75 L 22.175 0.352 L 24.267 0.352 A 4.031 4.031 0 0 1 24.839 0.39 Q 25.132 0.432 25.369 0.521 A 1.629 1.629 0 0 1 25.833 0.782 A 1.383 1.383 0 0 1 26.305 1.558 A 2.164 2.164 0 0 1 26.358 2.057 A 1.3 1.3 0 0 1 26.104 2.85 A 1.589 1.589 0 0 1 25.593 3.294 A 1.972 1.972 0 0 1 25.409 3.384 A 1.571 1.571 0 0 1 25.924 3.63 A 1.446 1.446 0 0 1 26.229 3.935 A 1.531 1.531 0 0 1 26.521 4.713 A 1.961 1.961 0 0 1 26.53 4.904 A 2.139 2.139 0 0 1 26.455 5.487 A 1.577 1.577 0 0 1 25.972 6.258 A 1.832 1.832 0 0 1 25.28 6.633 Q 25.013 6.713 24.694 6.739 A 3.81 3.81 0 0 1 24.394 6.75 Z M 135.646 6.75 L 133.427 6.75 L 133.427 0.352 L 135.519 0.352 A 4.031 4.031 0 0 1 136.091 0.39 Q 136.384 0.432 136.621 0.521 A 1.629 1.629 0 0 1 137.085 0.782 A 1.383 1.383 0 0 1 137.556 1.558 A 2.164 2.164 0 0 1 137.61 2.057 A 1.3 1.3 0 0 1 137.355 2.85 A 1.589 1.589 0 0 1 136.845 3.294 A 1.972 1.972 0 0 1 136.661 3.384 A 1.571 1.571 0 0 1 137.176 3.63 A 1.446 1.446 0 0 1 137.481 3.935 A 1.531 1.531 0 0 1 137.773 4.713 A 1.961 1.961 0 0 1 137.782 4.904 A 2.139 2.139 0 0 1 137.706 5.487 A 1.577 1.577 0 0 1 137.224 6.258 A 1.832 1.832 0 0 1 136.532 6.633 Q 136.265 6.713 135.946 6.739 A 3.81 3.81 0 0 1 135.646 6.75 Z M 0.848 0.352 L 0.848 6.06 L 3.88 6.06 L 3.88 6.75 L 0 6.75 L 0 0.352 L 0.848 0.352 Z M 112.1 0.352 L 112.1 6.06 L 115.132 6.06 L 115.132 6.75 L 111.252 6.75 L 111.252 0.352 L 112.1 0.352 Z M 173.944 0.352 L 173.944 4.601 L 174.832 4.601 L 174.832 5.265 L 173.944 5.265 L 173.944 6.75 L 173.127 6.75 L 173.127 5.265 L 170.213 5.265 L 170.213 4.786 L 173.079 0.352 L 173.944 0.352 Z M 184.83 6.75 L 183.059 6.75 L 183.059 0.352 L 184.865 0.352 Q 185.7 0.352 186.341 0.721 Q 186.983 1.09 187.332 1.771 A 3.19 3.19 0 0 1 187.649 2.8 A 4.073 4.073 0 0 1 187.686 3.335 L 187.686 3.744 Q 187.686 4.649 187.337 5.331 A 2.457 2.457 0 0 1 186.339 6.376 Q 185.691 6.741 184.83 6.75 Z M 179.343 2.592 A 1.544 1.544 0 0 0 179.446 2.021 A 2.226 2.226 0 0 0 179.425 1.707 A 1.566 1.566 0 0 0 178.926 0.738 A 1.754 1.754 0 0 0 178.16 0.333 A 2.443 2.443 0 0 0 177.561 0.264 A 2.539 2.539 0 0 0 177.052 0.312 A 1.767 1.767 0 0 0 176.194 0.738 Q 175.676 1.213 175.676 2.021 A 1.808 1.808 0 0 0 175.676 2.058 A 1.499 1.499 0 0 0 175.922 2.87 A 1.626 1.626 0 0 0 176.084 3.077 A 1.726 1.726 0 0 0 176.594 3.454 A 2.119 2.119 0 0 0 176.495 3.5 A 1.738 1.738 0 0 0 175.81 4.087 A 1.629 1.629 0 0 0 175.526 5.023 A 2.272 2.272 0 0 0 175.536 5.237 A 1.63 1.63 0 0 0 176.082 6.344 A 1.895 1.895 0 0 0 176.933 6.771 A 2.797 2.797 0 0 0 177.561 6.838 A 2.796 2.796 0 0 0 178.16 6.777 A 1.925 1.925 0 0 0 179.035 6.346 A 1.578 1.578 0 0 0 179.51 5.62 A 1.989 1.989 0 0 0 179.596 5.023 A 1.581 1.581 0 0 0 179.303 4.087 Q 179.011 3.674 178.51 3.458 Q 178.941 3.248 179.194 2.874 A 1.449 1.449 0 0 0 179.343 2.592 Z M 93.964 0.844 L 94.777 0.844 L 94.777 1.995 L 95.665 1.995 L 95.665 2.624 L 94.777 2.624 L 94.777 5.572 Q 94.777 5.858 94.896 6.001 Q 95.014 6.144 95.3 6.144 A 1.046 1.046 0 0 0 95.397 6.138 Q 95.5 6.129 95.64 6.101 A 4.024 4.024 0 0 0 95.687 6.091 L 95.687 6.75 A 2.463 2.463 0 0 1 95.254 6.829 A 2.157 2.157 0 0 1 95.063 6.838 Q 94.615 6.838 94.349 6.616 A 0.856 0.856 0 0 1 94.241 6.508 Q 94.013 6.238 93.973 5.78 A 2.351 2.351 0 0 1 93.964 5.572 L 93.964 2.624 L 93.098 2.624 L 93.098 1.995 L 93.964 1.995 L 93.964 0.844 Z M 33.429 0 L 33.429 6.75 L 32.616 6.75 L 32.616 0 L 33.429 0 Z M 80.583 0 L 80.583 6.75 L 79.77 6.75 L 79.77 0 L 80.583 0 Z M 144.681 0 L 144.681 6.75 L 143.868 6.75 L 143.868 0 L 144.681 0 Z M 4.5 4.386 L 4.5 4.329 A 3.057 3.057 0 0 1 4.587 3.587 A 2.573 2.573 0 0 1 4.775 3.072 A 2.16 2.16 0 0 1 5.189 2.486 A 1.957 1.957 0 0 1 5.539 2.21 A 2.036 2.036 0 0 1 6.484 1.913 A 2.491 2.491 0 0 1 6.658 1.907 A 2.277 2.277 0 0 1 7.411 2.027 A 1.937 1.937 0 0 1 8.229 2.58 A 2.29 2.29 0 0 1 8.748 3.608 A 3.373 3.373 0 0 1 8.829 4.368 L 8.829 4.425 A 3.114 3.114 0 0 1 8.749 5.142 A 2.577 2.577 0 0 1 8.563 5.671 A 2.056 2.056 0 0 1 8.035 6.361 A 2.001 2.001 0 0 1 7.802 6.53 A 2.045 2.045 0 0 1 6.883 6.829 A 2.529 2.529 0 0 1 6.667 6.838 A 2.262 2.262 0 0 1 5.916 6.718 A 1.938 1.938 0 0 1 5.1 6.166 A 2.297 2.297 0 0 1 4.574 5.111 A 3.357 3.357 0 0 1 4.5 4.386 Z M 98.583 4.386 L 98.583 4.329 A 3.057 3.057 0 0 1 98.669 3.587 A 2.573 2.573 0 0 1 98.857 3.072 A 2.16 2.16 0 0 1 99.272 2.486 A 1.957 1.957 0 0 1 99.622 2.21 A 2.036 2.036 0 0 1 100.566 1.913 A 2.491 2.491 0 0 1 100.74 1.907 A 2.277 2.277 0 0 1 101.494 2.027 A 1.937 1.937 0 0 1 102.311 2.58 A 2.29 2.29 0 0 1 102.83 3.608 A 3.373 3.373 0 0 1 102.911 4.368 L 102.911 4.425 A 3.114 3.114 0 0 1 102.832 5.142 A 2.577 2.577 0 0 1 102.645 5.671 A 2.056 2.056 0 0 1 102.118 6.361 A 2.001 2.001 0 0 1 101.885 6.53 A 2.045 2.045 0 0 1 100.965 6.829 A 2.529 2.529 0 0 1 100.749 6.838 A 2.262 2.262 0 0 1 99.999 6.718 A 1.938 1.938 0 0 1 99.182 6.166 A 2.297 2.297 0 0 1 98.657 5.111 A 3.357 3.357 0 0 1 98.583 4.386 Z M 115.752 4.386 L 115.752 4.329 A 3.057 3.057 0 0 1 115.839 3.587 A 2.573 2.573 0 0 1 116.027 3.072 A 2.16 2.16 0 0 1 116.441 2.486 A 1.957 1.957 0 0 1 116.791 2.21 A 2.036 2.036 0 0 1 117.736 1.913 A 2.491 2.491 0 0 1 117.91 1.907 A 2.277 2.277 0 0 1 118.663 2.027 A 1.937 1.937 0 0 1 119.481 2.58 A 2.29 2.29 0 0 1 120 3.608 A 3.373 3.373 0 0 1 120.081 4.368 L 120.081 4.425 A 3.114 3.114 0 0 1 120.001 5.142 A 2.577 2.577 0 0 1 119.815 5.671 A 2.056 2.056 0 0 1 119.287 6.361 A 2.001 2.001 0 0 1 119.054 6.53 A 2.045 2.045 0 0 1 118.135 6.829 A 2.529 2.529 0 0 1 117.918 6.838 A 2.262 2.262 0 0 1 117.168 6.718 A 1.938 1.938 0 0 1 116.352 6.166 A 2.297 2.297 0 0 1 115.826 5.111 A 3.357 3.357 0 0 1 115.752 4.386 Z M 167.621 1.969 L 167.621 2.725 A 2.251 2.251 0 0 0 167.378 2.698 A 2.782 2.782 0 0 0 167.221 2.694 Q 166.443 2.694 166.151 3.338 A 1.445 1.445 0 0 0 166.135 3.375 L 166.135 6.75 L 165.322 6.75 L 165.322 1.995 L 166.113 1.995 L 166.126 2.544 Q 166.507 1.938 167.189 1.909 A 1.636 1.636 0 0 1 167.26 1.907 Q 167.498 1.907 167.621 1.969 Z M 196.027 1.969 L 196.027 2.725 A 2.251 2.251 0 0 0 195.784 2.698 A 2.782 2.782 0 0 0 195.627 2.694 Q 194.849 2.694 194.558 3.338 A 1.445 1.445 0 0 0 194.542 3.375 L 194.542 6.75 L 193.729 6.75 L 193.729 1.995 L 194.52 1.995 L 194.533 2.544 Q 194.913 1.938 195.596 1.909 A 1.636 1.636 0 0 1 195.667 1.907 Q 195.904 1.907 196.027 1.969 Z M 184.887 1.046 L 183.902 1.046 L 183.902 6.06 L 184.79 6.06 A 2.519 2.519 0 0 0 185.422 5.985 A 1.747 1.747 0 0 0 186.308 5.454 Q 186.768 4.94 186.838 4.059 A 4.165 4.165 0 0 0 186.851 3.727 L 186.851 3.353 Q 186.851 2.562 186.581 2.027 A 1.864 1.864 0 0 0 186.339 1.659 A 1.687 1.687 0 0 0 185.343 1.09 A 2.499 2.499 0 0 0 184.887 1.046 Z M 50.186 1.995 L 50.186 6.75 L 49.373 6.75 L 49.373 1.995 L 50.186 1.995 Z M 82.767 1.995 L 82.767 6.75 L 81.954 6.75 L 81.954 1.995 L 82.767 1.995 Z M 97.497 1.995 L 97.497 6.75 L 96.684 6.75 L 96.684 1.995 L 97.497 1.995 Z M 5.317 4.425 A 2.772 2.772 0 0 0 5.365 4.954 Q 5.425 5.264 5.563 5.51 A 1.545 1.545 0 0 0 5.684 5.695 Q 6.051 6.174 6.667 6.174 A 1.269 1.269 0 0 0 7.156 6.083 Q 7.435 5.967 7.638 5.706 A 1.471 1.471 0 0 0 7.651 5.689 A 1.648 1.648 0 0 0 7.906 5.171 Q 7.974 4.945 8 4.672 A 3.655 3.655 0 0 0 8.016 4.329 A 2.687 2.687 0 0 0 7.964 3.789 Q 7.897 3.459 7.739 3.2 A 1.586 1.586 0 0 0 7.644 3.061 A 1.231 1.231 0 0 0 7.229 2.705 Q 6.976 2.575 6.658 2.575 Q 6.068 2.575 5.702 3.035 A 1.515 1.515 0 0 0 5.687 3.054 A 1.589 1.589 0 0 0 5.434 3.552 Q 5.365 3.772 5.337 4.039 A 3.676 3.676 0 0 0 5.317 4.425 Z M 99.4 4.425 A 2.772 2.772 0 0 0 99.447 4.954 Q 99.508 5.264 99.645 5.51 A 1.545 1.545 0 0 0 99.767 5.695 Q 100.134 6.174 100.749 6.174 A 1.269 1.269 0 0 0 101.238 6.083 Q 101.518 5.967 101.72 5.706 A 1.471 1.471 0 0 0 101.733 5.689 A 1.648 1.648 0 0 0 101.988 5.171 Q 102.057 4.945 102.083 4.672 A 3.655 3.655 0 0 0 102.098 4.329 A 2.687 2.687 0 0 0 102.047 3.789 Q 101.979 3.459 101.822 3.2 A 1.586 1.586 0 0 0 101.727 3.061 A 1.231 1.231 0 0 0 101.312 2.705 Q 101.059 2.575 100.74 2.575 Q 100.15 2.575 99.784 3.035 A 1.515 1.515 0 0 0 99.769 3.054 A 1.589 1.589 0 0 0 99.517 3.552 Q 99.447 3.772 99.419 4.039 A 3.676 3.676 0 0 0 99.4 4.425 Z M 116.569 4.425 A 2.772 2.772 0 0 0 116.617 4.954 Q 116.677 5.264 116.814 5.51 A 1.545 1.545 0 0 0 116.936 5.695 Q 117.303 6.174 117.918 6.174 A 1.269 1.269 0 0 0 118.408 6.083 Q 118.687 5.967 118.89 5.706 A 1.471 1.471 0 0 0 118.903 5.689 A 1.648 1.648 0 0 0 119.158 5.171 Q 119.226 4.945 119.252 4.672 A 3.655 3.655 0 0 0 119.268 4.329 A 2.687 2.687 0 0 0 119.216 3.789 Q 119.149 3.459 118.991 3.2 A 1.586 1.586 0 0 0 118.896 3.061 A 1.231 1.231 0 0 0 118.481 2.705 Q 118.228 2.575 117.91 2.575 Q 117.32 2.575 116.953 3.035 A 1.515 1.515 0 0 0 116.938 3.054 A 1.589 1.589 0 0 0 116.686 3.552 Q 116.617 3.772 116.589 4.039 A 3.676 3.676 0 0 0 116.569 4.425 Z M 70.414 3.252 L 70.414 5.524 Q 70.778 6.174 71.53 6.174 A 1.184 1.184 0 0 0 71.995 6.086 Q 72.253 5.977 72.441 5.735 A 1.403 1.403 0 0 0 72.459 5.711 A 1.501 1.501 0 0 0 72.676 5.28 Q 72.744 5.073 72.776 4.818 A 3.91 3.91 0 0 0 72.804 4.333 Q 72.804 3.746 72.621 3.339 A 1.503 1.503 0 0 0 72.461 3.063 A 1.086 1.086 0 0 0 71.675 2.605 A 1.414 1.414 0 0 0 71.521 2.597 Q 70.861 2.597 70.495 3.121 A 1.623 1.623 0 0 0 70.414 3.252 Z M 75.463 3.252 L 75.463 5.524 Q 75.828 6.174 76.579 6.174 A 1.184 1.184 0 0 0 77.045 6.086 Q 77.302 5.977 77.49 5.735 A 1.403 1.403 0 0 0 77.509 5.711 A 1.501 1.501 0 0 0 77.725 5.28 Q 77.793 5.073 77.825 4.818 A 3.91 3.91 0 0 0 77.854 4.333 Q 77.854 3.746 77.671 3.339 A 1.503 1.503 0 0 0 77.511 3.063 A 1.086 1.086 0 0 0 76.725 2.605 A 1.414 1.414 0 0 0 76.57 2.597 Q 75.91 2.597 75.545 3.121 A 1.623 1.623 0 0 0 75.463 3.252 Z M 17.745 5.454 L 17.745 3.27 A 1.375 1.375 0 0 0 17.433 2.874 Q 17.109 2.597 16.625 2.597 A 1.238 1.238 0 0 0 16.198 2.668 A 1.068 1.068 0 0 0 15.693 3.059 A 1.51 1.51 0 0 0 15.484 3.484 Q 15.418 3.689 15.387 3.939 A 3.955 3.955 0 0 0 15.359 4.425 A 3.162 3.162 0 0 0 15.395 4.918 Q 15.436 5.178 15.524 5.389 A 1.474 1.474 0 0 0 15.693 5.691 A 1.06 1.06 0 0 0 16.455 6.139 A 1.391 1.391 0 0 0 16.616 6.148 Q 17.389 6.148 17.745 5.454 Z M 128.997 5.454 L 128.997 3.27 A 1.375 1.375 0 0 0 128.685 2.874 Q 128.361 2.597 127.876 2.597 A 1.238 1.238 0 0 0 127.45 2.668 A 1.068 1.068 0 0 0 126.945 3.059 A 1.51 1.51 0 0 0 126.736 3.484 Q 126.67 3.689 126.639 3.939 A 3.955 3.955 0 0 0 126.611 4.425 A 3.162 3.162 0 0 0 126.647 4.918 Q 126.688 5.178 126.776 5.389 A 1.474 1.474 0 0 0 126.945 5.691 A 1.06 1.06 0 0 0 127.707 6.139 A 1.391 1.391 0 0 0 127.868 6.148 Q 128.641 6.148 128.997 5.454 Z M 59.458 5.449 L 59.458 3.278 A 1.439 1.439 0 0 0 59.157 2.891 Q 58.853 2.62 58.413 2.599 A 1.578 1.578 0 0 0 58.337 2.597 Q 57.746 2.597 57.412 3.056 A 1.51 1.51 0 0 0 57.201 3.484 Q 57.135 3.689 57.104 3.939 A 3.955 3.955 0 0 0 57.076 4.425 Q 57.076 5.229 57.406 5.689 Q 57.735 6.148 58.329 6.148 A 1.32 1.32 0 0 0 58.838 6.054 Q 59.23 5.891 59.458 5.449 Z M 24.425 3.757 L 23.019 3.757 L 23.019 6.06 L 24.412 6.06 A 1.84 1.84 0 0 0 24.787 6.024 Q 25.027 5.974 25.211 5.854 A 1.064 1.064 0 0 0 25.341 5.755 A 1.003 1.003 0 0 0 25.663 5.154 A 1.459 1.459 0 0 0 25.682 4.913 Q 25.682 4.007 24.909 3.811 A 1.977 1.977 0 0 0 24.425 3.757 Z M 135.677 3.757 L 134.271 3.757 L 134.271 6.06 L 135.664 6.06 A 1.84 1.84 0 0 0 136.039 6.024 Q 136.279 5.974 136.463 5.854 A 1.064 1.064 0 0 0 136.593 5.755 A 1.003 1.003 0 0 0 136.915 5.154 A 1.459 1.459 0 0 0 136.934 4.913 Q 136.934 4.007 136.161 3.811 A 1.977 1.977 0 0 0 135.677 3.757 Z M 173.03 1.639 L 171.136 4.601 L 173.127 4.601 L 173.127 1.463 L 173.03 1.639 Z M 66.05 1.393 L 64.964 4.386 L 67.14 4.386 L 66.05 1.393 Z M 23.019 1.046 L 23.019 3.081 L 24.293 3.081 Q 24.847 3.081 25.178 2.804 A 0.905 0.905 0 0 0 25.506 2.154 A 1.27 1.27 0 0 0 25.51 2.052 Q 25.51 1.696 25.37 1.471 A 0.71 0.71 0 0 0 25.203 1.285 A 0.969 0.969 0 0 0 24.917 1.136 Q 24.654 1.047 24.272 1.046 A 3.261 3.261 0 0 0 24.267 1.046 L 23.019 1.046 Z M 134.271 1.046 L 134.271 3.081 L 135.545 3.081 Q 136.099 3.081 136.43 2.804 A 0.905 0.905 0 0 0 136.758 2.154 A 1.27 1.27 0 0 0 136.762 2.052 Q 136.762 1.696 136.622 1.471 A 0.71 0.71 0 0 0 136.455 1.285 A 0.969 0.969 0 0 0 136.169 1.136 Q 135.906 1.047 135.524 1.046 A 3.261 3.261 0 0 0 135.519 1.046 L 134.271 1.046 Z M 178.783 5.005 A 1.375 1.375 0 0 0 178.723 4.592 A 1.109 1.109 0 0 0 178.442 4.131 A 1.148 1.148 0 0 0 177.771 3.807 A 1.593 1.593 0 0 0 177.552 3.792 A 1.466 1.466 0 0 0 177.164 3.841 A 1.086 1.086 0 0 0 176.671 4.126 A 1.123 1.123 0 0 0 176.358 4.762 A 1.572 1.572 0 0 0 176.339 5.005 A 1.48 1.48 0 0 0 176.381 5.367 A 1.019 1.019 0 0 0 176.662 5.862 Q 176.968 6.158 177.501 6.173 A 2.053 2.053 0 0 0 177.561 6.174 Q 178.055 6.174 178.365 5.94 A 1.018 1.018 0 0 0 178.458 5.86 A 1.041 1.041 0 0 0 178.757 5.292 A 1.518 1.518 0 0 0 178.783 5.005 Z M 177.561 0.932 A 1.259 1.259 0 0 0 177.208 0.979 A 0.973 0.973 0 0 0 176.785 1.228 Q 176.489 1.525 176.489 2.035 A 1.325 1.325 0 0 0 176.533 2.387 A 0.994 0.994 0 0 0 176.781 2.823 A 0.974 0.974 0 0 0 177.343 3.108 A 1.382 1.382 0 0 0 177.561 3.125 A 1.279 1.279 0 0 0 177.906 3.08 A 0.952 0.952 0 0 0 178.341 2.823 A 1.018 1.018 0 0 0 178.616 2.26 A 1.426 1.426 0 0 0 178.633 2.035 A 1.282 1.282 0 0 0 178.583 1.668 A 1.013 1.013 0 0 0 178.33 1.239 Q 178.027 0.932 177.561 0.932 Z M 12.656 5.418 L 12.656 4.443 L 12.019 4.443 Q 10.525 4.443 10.525 5.317 Q 10.525 5.7 10.78 5.915 A 0.893 0.893 0 0 0 11.193 6.108 A 1.259 1.259 0 0 0 11.435 6.13 A 1.429 1.429 0 0 0 12.16 5.933 A 1.335 1.335 0 0 0 12.455 5.705 A 1.108 1.108 0 0 0 12.656 5.418 Z M 30.458 5.418 L 30.458 4.443 L 29.821 4.443 Q 28.327 4.443 28.327 5.317 Q 28.327 5.7 28.582 5.915 A 0.893 0.893 0 0 0 28.996 6.108 A 1.259 1.259 0 0 0 29.237 6.13 A 1.429 1.429 0 0 0 29.962 5.933 A 1.335 1.335 0 0 0 30.257 5.705 A 1.108 1.108 0 0 0 30.458 5.418 Z M 37.538 5.418 L 37.538 4.443 L 36.901 4.443 Q 35.407 4.443 35.407 5.317 Q 35.407 5.7 35.662 5.915 A 0.893 0.893 0 0 0 36.075 6.108 A 1.259 1.259 0 0 0 36.316 6.13 A 1.429 1.429 0 0 0 37.042 5.933 A 1.335 1.335 0 0 0 37.337 5.705 A 1.108 1.108 0 0 0 37.538 5.418 Z M 91.586 5.418 L 91.586 4.443 L 90.949 4.443 Q 89.455 4.443 89.455 5.317 Q 89.455 5.7 89.71 5.915 A 0.893 0.893 0 0 0 90.123 6.108 A 1.259 1.259 0 0 0 90.365 6.13 A 1.429 1.429 0 0 0 91.09 5.933 A 1.335 1.335 0 0 0 91.385 5.705 A 1.108 1.108 0 0 0 91.586 5.418 Z M 123.908 5.418 L 123.908 4.443 L 123.271 4.443 Q 121.777 4.443 121.777 5.317 Q 121.777 5.7 122.032 5.915 A 0.893 0.893 0 0 0 122.445 6.108 A 1.259 1.259 0 0 0 122.687 6.13 A 1.429 1.429 0 0 0 123.412 5.933 A 1.335 1.335 0 0 0 123.707 5.705 A 1.108 1.108 0 0 0 123.908 5.418 Z M 141.71 5.418 L 141.71 4.443 L 141.073 4.443 Q 139.579 4.443 139.579 5.317 Q 139.579 5.7 139.834 5.915 A 0.893 0.893 0 0 0 140.247 6.108 A 1.259 1.259 0 0 0 140.489 6.13 A 1.429 1.429 0 0 0 141.214 5.933 A 1.335 1.335 0 0 0 141.509 5.705 A 1.108 1.108 0 0 0 141.71 5.418 Z M 148.79 5.418 L 148.79 4.443 L 148.153 4.443 Q 146.659 4.443 146.659 5.317 Q 146.659 5.7 146.914 5.915 A 0.893 0.893 0 0 0 147.327 6.108 A 1.259 1.259 0 0 0 147.568 6.13 A 1.429 1.429 0 0 0 148.293 5.933 A 1.335 1.335 0 0 0 148.589 5.705 A 1.108 1.108 0 0 0 148.79 5.418 Z M 191.641 5.418 L 191.641 4.443 L 191.004 4.443 Q 189.51 4.443 189.51 5.317 Q 189.51 5.7 189.765 5.915 A 0.893 0.893 0 0 0 190.178 6.108 A 1.259 1.259 0 0 0 190.419 6.13 A 1.429 1.429 0 0 0 191.145 5.933 A 1.335 1.335 0 0 0 191.44 5.705 A 1.108 1.108 0 0 0 191.641 5.418 Z M 161.187 3.938 L 163.569 3.938 L 163.569 3.876 Q 163.543 3.417 163.372 3.111 A 1.13 1.13 0 0 0 163.235 2.916 A 0.983 0.983 0 0 0 162.58 2.584 A 1.39 1.39 0 0 0 162.426 2.575 A 1.106 1.106 0 0 0 161.904 2.698 A 1.14 1.14 0 0 0 161.6 2.933 A 1.417 1.417 0 0 0 161.323 3.379 Q 161.25 3.563 161.21 3.785 A 2.741 2.741 0 0 0 161.187 3.938 Z M 49.307 0.734 Q 49.307 0.536 49.427 0.4 Q 49.539 0.274 49.751 0.264 A 0.783 0.783 0 0 1 49.786 0.264 Q 50.023 0.264 50.146 0.4 A 0.474 0.474 0 0 1 50.268 0.703 A 0.614 0.614 0 0 1 50.269 0.734 A 0.523 0.523 0 0 1 50.244 0.9 A 0.442 0.442 0 0 1 50.146 1.063 Q 50.033 1.184 49.825 1.194 A 0.803 0.803 0 0 1 49.786 1.195 Q 49.613 1.195 49.502 1.126 A 0.362 0.362 0 0 1 49.427 1.063 A 0.456 0.456 0 0 1 49.309 0.788 A 0.605 0.605 0 0 1 49.307 0.734 Z M 81.888 0.734 Q 81.888 0.536 82.009 0.4 Q 82.12 0.274 82.332 0.264 A 0.783 0.783 0 0 1 82.367 0.264 Q 82.604 0.264 82.727 0.4 A 0.474 0.474 0 0 1 82.849 0.703 A 0.614 0.614 0 0 1 82.85 0.734 A 0.523 0.523 0 0 1 82.825 0.9 A 0.442 0.442 0 0 1 82.727 1.063 Q 82.615 1.184 82.407 1.194 A 0.803 0.803 0 0 1 82.367 1.195 Q 82.194 1.195 82.083 1.126 A 0.362 0.362 0 0 1 82.009 1.063 A 0.456 0.456 0 0 1 81.89 0.788 A 0.605 0.605 0 0 1 81.888 0.734 Z M 96.618 0.734 Q 96.618 0.536 96.739 0.4 Q 96.851 0.274 97.063 0.264 A 0.783 0.783 0 0 1 97.097 0.264 Q 97.334 0.264 97.458 0.4 A 0.474 0.474 0 0 1 97.58 0.703 A 0.614 0.614 0 0 1 97.581 0.734 A 0.523 0.523 0 0 1 97.555 0.9 A 0.442 0.442 0 0 1 97.458 1.063 Q 97.345 1.184 97.137 1.194 A 0.803 0.803 0 0 1 97.097 1.195 Q 96.925 1.195 96.814 1.126 A 0.362 0.362 0 0 1 96.739 1.063 A 0.456 0.456 0 0 1 96.621 0.788 A 0.605 0.605 0 0 1 96.618 0.734 Z" vector-effect="non-scaling-stroke"/></g>
</svgversion="1.0" encoding="UTF-8"?>
<svg width="48px" height="48px" viewBox="0 0 48 48" version="1.1" xmlns="http://www.w3.org/2000/svg" xmlns:xlink="http://www.w3.org/1999/xlink">
    <title>Icon-Resource/Networking-and-Content-Delivery/Res_AWS-Elastic-Load-Balancing_Application-Load-Balancer_48_Dark</title>
    <g id="Icon-Resource/Networking-and-Content-Delivery/Res_AWS-Elastic-Load-Balancing_Application-Load-Balancer_48" stroke="none" stroke-width="1" fill="none" fill-rule="evenodd">
        <path transform="translate(0vw, 0vh), scale(.65)" d="M33.69,34.375 L36.035,34.375 L36.035,32 L33.69,32 L33.69,34.375 Z M26.751,34.375 L29.126,34.375 L29.126,32 L26.751,32 L26.751,34.375 Z M18.876,34.375 L21.251,34.375 L21.251,32 L18.876,32 L18.876,34.375 Z M11.966,34.375 L14.251,34.375 L14.251,32 L11.966,32 L11.966,34.375 Z M18.001,16.875 L30.001,16.875 L30.001,11 L18.001,11 L18.001,16.875 Z M37.035,30 L35.501,30 L35.501,26.625 C35.501,26.072 35.053,25.625 34.501,25.625 L32.001,25.625 L32.001,22.25 C32.001,21.697 31.553,21.25 31.001,21.25 L25.001,21.25 L25.001,18.875 L31.001,18.875 C31.553,18.875 32.001,18.428 32.001,17.875 L32.001,10 C32.001,9.447 31.553,9 31.001,9 L17.001,9 C16.448,9 16.001,9.447 16.001,10 L16.001,17.875 C16.001,18.428 16.448,18.875 17.001,18.875 L23.001,18.875 L23.001,21.25 L17.001,21.25 C16.448,21.25 16.001,21.697 16.001,22.25 L16.001,25.625 L13.501,25.625 C12.948,25.625 12.501,26.072 12.501,26.625 L12.501,30 L10.965,30 C10.413,30 9.965,30.447 9.965,31 L9.965,35.375 C9.965,35.928 10.413,36.375 10.965,36.375 L15.251,36.375 C15.803,36.375 16.251,35.928 16.251,35.375 L16.251,31 C16.251,30.447 15.803,30 15.251,30 L14.501,30 L14.501,27.625 L18.626,27.625 L18.626,30 L17.876,30 C17.323,30 16.876,30.447 16.876,31 L16.876,35.375 C16.876,35.928 17.323,36.375 17.876,36.375 L22.251,36.375 C22.803,36.375 23.251,35.928 23.251,35.375 L23.251,31 C23.251,30.447 22.803,30 22.251,30 L20.626,30 L20.626,26.625 C20.626,26.072 20.178,25.625 19.626,25.625 L18.001,25.625 L18.001,23.25 L30.001,23.25 L30.001,25.625 L28.376,25.625 C27.823,25.625 27.376,26.072 27.376,26.625 L27.376,30 L25.751,30 C25.198,30 24.751,30.447 24.751,31 L24.751,35.375 C24.751,35.928 25.198,36.375 25.751,36.375 L30.126,36.375 C30.678,36.375 31.126,35.928 31.126,35.375 L31.126,31 C31.126,30.447 30.678,30 30.126,30 L29.376,30 L29.376,27.625 L33.501,27.625 L33.501,30 L32.69,30 C32.137,30 31.69,30.447 31.69,31 L31.69,35.375 C31.69,35.928 32.137,36.375 32.69,36.375 L37.035,36.375 C37.587,36.375 38.035,35.928 38.035,35.375 L38.035,31 C38.035,30.447 37.587,30 37.035,30 L37.035,30 Z M24.001,44 C12.972,44 4,35.028 4,24 C4,12.972 12.972,4 24.001,4 C35.029,4 44.001,12.972 44.001,24 C44.001,35.028 35.029,44 24.001,44 L24.001,44 Z M24.001,2 C11.869,2 2,11.869 2,24 C2,36.131 11.869,46 24.001,46 C36.131,46 46.001,36.131 46.001,24 C46.001,11.869 36.131,2 24.001,2 L24.001,2 Z" id="AWS-Elastic-Load-Balancing_-Application-Load-Balancer_Resource-Icon_light-bg" fill="#000000"></path>
    </g><g id="svgGroup" stroke-linecap="round" fill-rule="evenodd" font-size="9pt" stroke="#000" stroke-width="0.25mm" fill="#000" style="stroke:#000;stroke-width:0.25mm;fill:#000"><path d="M 20.799 3.103 L 20.799 3.792 L 18.026 3.792 L 18.026 6.06 L 21.248 6.06 L 21.248 6.75 L 17.183 6.75 L 17.183 0.352 L 21.204 0.352 L 21.204 1.046 L 18.026 1.046 L 18.026 3.103 L 20.799 3.103 Z M 3.74 6.75 L 2.351 4.162 L 0.848 4.162 L 0.848 6.75 L 0 6.75 L 0 0.352 L 2.118 0.352 A 3.809 3.809 0 0 1 2.76 0.402 Q 3.102 0.461 3.376 0.587 A 1.789 1.789 0 0 1 3.781 0.844 A 1.588 1.588 0 0 1 4.307 1.732 A 2.453 2.453 0 0 1 4.364 2.276 A 1.864 1.864 0 0 1 4.273 2.868 A 1.64 1.64 0 0 1 4.041 3.318 A 1.849 1.849 0 0 1 3.382 3.875 A 2.342 2.342 0 0 1 3.142 3.981 L 4.645 6.697 L 4.645 6.75 L 3.74 6.75 Z M 13.724 3.393 L 12.907 3.393 Q 12.907 3.059 12.623 2.817 Q 12.34 2.575 11.909 2.575 Q 11.465 2.575 11.215 2.769 A 0.653 0.653 0 0 0 11.04 2.967 Q 10.967 3.098 10.964 3.263 A 0.771 0.771 0 0 0 10.964 3.274 A 0.588 0.588 0 0 0 10.994 3.467 A 0.48 0.48 0 0 0 11.197 3.718 A 1.093 1.093 0 0 0 11.348 3.796 Q 11.512 3.868 11.767 3.937 A 6.581 6.581 0 0 0 12.039 4.003 A 6.318 6.318 0 0 1 12.446 4.108 Q 12.783 4.208 13.025 4.329 A 1.901 1.901 0 0 1 13.281 4.481 Q 13.418 4.579 13.516 4.692 A 1.06 1.06 0 0 1 13.586 4.783 A 1.024 1.024 0 0 1 13.748 5.191 A 1.388 1.388 0 0 1 13.768 5.432 Q 13.768 6.069 13.258 6.453 Q 12.776 6.817 12.022 6.837 A 3.337 3.337 0 0 1 11.936 6.838 A 2.746 2.746 0 0 1 11.401 6.788 A 2.124 2.124 0 0 1 10.925 6.636 A 1.771 1.771 0 0 1 10.491 6.358 A 1.54 1.54 0 0 1 10.237 6.071 Q 9.989 5.708 9.989 5.287 L 10.802 5.287 A 0.932 0.932 0 0 0 10.875 5.612 A 0.827 0.827 0 0 0 11.129 5.935 A 1.072 1.072 0 0 0 11.531 6.128 Q 11.686 6.167 11.867 6.173 A 2.013 2.013 0 0 0 11.936 6.174 A 1.863 1.863 0 0 0 12.231 6.152 Q 12.393 6.126 12.524 6.07 A 0.941 0.941 0 0 0 12.676 5.988 A 0.689 0.689 0 0 0 12.841 5.837 A 0.554 0.554 0 0 0 12.955 5.489 A 0.698 0.698 0 0 0 12.919 5.258 A 0.581 0.581 0 0 0 12.707 4.977 A 1.05 1.05 0 0 0 12.538 4.878 Q 12.349 4.788 12.054 4.712 A 5.392 5.392 0 0 0 11.841 4.663 A 6.342 6.342 0 0 1 11.48 4.575 Q 11.11 4.473 10.861 4.346 Q 10.562 4.194 10.392 3.994 A 1.017 1.017 0 0 1 10.325 3.907 Q 10.151 3.652 10.151 3.3 A 1.206 1.206 0 0 1 10.55 2.396 A 1.694 1.694 0 0 1 10.646 2.312 A 1.752 1.752 0 0 1 11.429 1.952 A 2.471 2.471 0 0 1 11.909 1.907 A 2.559 2.559 0 0 1 12.473 1.966 A 1.757 1.757 0 0 1 13.221 2.325 Q 13.724 2.742 13.724 3.393 Z M 32.788 3.393 L 31.97 3.393 Q 31.97 3.059 31.687 2.817 Q 31.403 2.575 30.973 2.575 Q 30.529 2.575 30.278 2.769 A 0.653 0.653 0 0 0 30.103 2.967 Q 30.03 3.098 30.028 3.263 A 0.771 0.771 0 0 0 30.028 3.274 A 0.588 0.588 0 0 0 30.058 3.467 A 0.48 0.48 0 0 0 30.261 3.718 A 1.093 1.093 0 0 0 30.411 3.796 Q 30.575 3.868 30.831 3.937 A 6.581 6.581 0 0 0 31.102 4.003 A 6.318 6.318 0 0 1 31.51 4.108 Q 31.847 4.208 32.089 4.329 A 1.901 1.901 0 0 1 32.345 4.481 Q 32.482 4.579 32.579 4.692 A 1.06 1.06 0 0 1 32.649 4.783 A 1.024 1.024 0 0 1 32.811 5.191 A 1.388 1.388 0 0 1 32.832 5.432 Q 32.832 6.069 32.322 6.453 Q 31.839 6.817 31.085 6.837 A 3.337 3.337 0 0 1 30.999 6.838 A 2.746 2.746 0 0 1 30.465 6.788 A 2.124 2.124 0 0 1 29.988 6.636 A 1.771 1.771 0 0 1 29.554 6.358 A 1.54 1.54 0 0 1 29.301 6.071 Q 29.052 5.708 29.052 5.287 L 29.865 5.287 A 0.932 0.932 0 0 0 29.939 5.612 A 0.827 0.827 0 0 0 30.193 5.935 A 1.072 1.072 0 0 0 30.595 6.128 Q 30.749 6.167 30.931 6.173 A 2.013 2.013 0 0 0 30.999 6.174 A 1.863 1.863 0 0 0 31.295 6.152 Q 31.456 6.126 31.588 6.07 A 0.941 0.941 0 0 0 31.74 5.988 A 0.689 0.689 0 0 0 31.904 5.837 A 0.554 0.554 0 0 0 32.019 5.489 A 0.698 0.698 0 0 0 31.982 5.258 A 0.581 0.581 0 0 0 31.77 4.977 A 1.05 1.05 0 0 0 31.601 4.878 Q 31.413 4.788 31.118 4.712 A 5.392 5.392 0 0 0 30.905 4.663 A 6.342 6.342 0 0 1 30.544 4.575 Q 30.174 4.473 29.925 4.346 Q 29.626 4.194 29.455 3.994 A 1.017 1.017 0 0 1 29.388 3.907 Q 29.215 3.652 29.215 3.3 A 1.206 1.206 0 0 1 29.614 2.396 A 1.694 1.694 0 0 1 29.709 2.312 A 1.752 1.752 0 0 1 30.492 1.952 A 2.471 2.471 0 0 1 30.973 1.907 A 2.559 2.559 0 0 1 31.536 1.966 A 1.757 1.757 0 0 1 32.284 2.325 Q 32.788 2.742 32.788 3.393 Z M 42.042 5.251 L 42.812 5.251 A 1.432 1.432 0 0 1 42.612 5.901 A 1.772 1.772 0 0 1 42.53 6.029 A 1.828 1.828 0 0 1 41.921 6.574 A 2.169 2.169 0 0 1 41.838 6.618 A 1.997 1.997 0 0 1 40.922 6.838 A 2.346 2.346 0 0 1 40.225 6.739 A 1.839 1.839 0 0 1 39.377 6.19 A 2.171 2.171 0 0 1 38.913 5.31 Q 38.804 4.909 38.804 4.417 L 38.804 4.28 A 3.24 3.24 0 0 1 38.867 3.624 A 2.57 2.57 0 0 1 39.059 3.045 A 2.008 2.008 0 0 1 39.498 2.431 A 1.892 1.892 0 0 1 39.79 2.206 A 1.943 1.943 0 0 1 40.547 1.934 A 2.529 2.529 0 0 1 40.917 1.907 A 2.196 2.196 0 0 1 41.566 1.999 A 1.786 1.786 0 0 1 42.247 2.386 A 1.693 1.693 0 0 1 42.805 3.535 A 2.239 2.239 0 0 1 42.812 3.63 L 42.042 3.63 Q 42.007 3.168 41.693 2.872 A 1.078 1.078 0 0 0 40.964 2.576 A 1.402 1.402 0 0 0 40.917 2.575 A 1.374 1.374 0 0 0 40.496 2.637 A 1.081 1.081 0 0 0 39.957 3.021 A 1.469 1.469 0 0 0 39.731 3.468 Q 39.665 3.674 39.637 3.923 A 3.514 3.514 0 0 0 39.617 4.311 L 39.617 4.465 Q 39.617 5.287 39.955 5.73 A 1.1 1.1 0 0 0 40.742 6.165 A 1.611 1.611 0 0 0 40.922 6.174 A 1.171 1.171 0 0 0 41.682 5.911 A 1.007 1.007 0 0 0 41.926 5.629 A 0.914 0.914 0 0 0 42.042 5.251 Z M 28.143 6.75 L 27.29 6.75 A 0.632 0.632 0 0 1 27.255 6.66 Q 27.223 6.562 27.198 6.41 A 3.997 3.997 0 0 1 27.176 6.249 Q 26.609 6.838 25.822 6.838 A 2.033 2.033 0 0 1 25.293 6.772 A 1.529 1.529 0 0 1 24.669 6.44 Q 24.218 6.042 24.218 5.432 Q 24.218 4.689 24.783 4.278 Q 25.348 3.867 26.372 3.867 L 27.163 3.867 L 27.163 3.494 A 1.152 1.152 0 0 0 27.127 3.199 A 0.828 0.828 0 0 0 26.908 2.815 Q 26.691 2.6 26.301 2.568 A 1.748 1.748 0 0 0 26.156 2.562 Q 25.721 2.562 25.427 2.782 Q 25.132 3.001 25.132 3.313 L 24.315 3.313 A 1.041 1.041 0 0 1 24.44 2.825 A 1.409 1.409 0 0 1 24.568 2.626 Q 24.82 2.294 25.253 2.101 A 2.249 2.249 0 0 1 26.029 1.913 A 2.669 2.669 0 0 1 26.205 1.907 A 2.65 2.65 0 0 1 26.722 1.955 Q 27.029 2.016 27.268 2.156 A 1.439 1.439 0 0 1 27.492 2.318 A 1.396 1.396 0 0 1 27.946 3.144 A 1.998 1.998 0 0 1 27.976 3.45 L 27.976 5.638 Q 27.976 6.073 28.049 6.39 A 1.707 1.707 0 0 0 28.143 6.68 L 28.143 6.75 Z M 5.212 4.504 L 5.212 4.355 A 3.17 3.17 0 0 1 5.288 3.646 A 2.581 2.581 0 0 1 5.482 3.092 A 2.191 2.191 0 0 1 5.93 2.466 A 2.033 2.033 0 0 1 6.238 2.221 Q 6.724 1.907 7.291 1.907 A 2.254 2.254 0 0 1 7.904 1.986 A 1.639 1.639 0 0 1 8.732 2.518 Q 9.246 3.129 9.246 4.267 L 9.246 4.605 L 6.025 4.605 A 2.111 2.111 0 0 0 6.096 5.114 A 1.516 1.516 0 0 0 6.436 5.741 A 1.282 1.282 0 0 0 7.37 6.173 A 1.652 1.652 0 0 0 7.436 6.174 A 1.763 1.763 0 0 0 7.764 6.145 Q 7.988 6.103 8.165 5.999 A 1.827 1.827 0 0 0 8.674 5.551 A 2.068 2.068 0 0 0 8.688 5.533 L 9.185 5.919 A 1.926 1.926 0 0 1 7.785 6.811 A 2.749 2.749 0 0 1 7.392 6.838 A 2.394 2.394 0 0 1 6.64 6.725 A 1.974 1.974 0 0 1 5.818 6.203 Q 5.212 5.568 5.212 4.504 Z M 34.181 0.844 L 34.994 0.844 L 34.994 1.995 L 35.881 1.995 L 35.881 2.624 L 34.994 2.624 L 34.994 5.572 Q 34.994 5.858 35.112 6.001 Q 35.231 6.144 35.517 6.144 A 1.046 1.046 0 0 0 35.614 6.138 Q 35.717 6.129 35.857 6.101 A 4.024 4.024 0 0 0 35.903 6.091 L 35.903 6.75 A 2.463 2.463 0 0 1 35.471 6.829 A 2.157 2.157 0 0 1 35.279 6.838 Q 34.832 6.838 34.566 6.616 A 0.856 0.856 0 0 1 34.458 6.508 Q 34.23 6.238 34.189 5.78 A 2.351 2.351 0 0 1 34.181 5.572 L 34.181 2.624 L 33.315 2.624 L 33.315 1.995 L 34.181 1.995 L 34.181 0.844 Z M 23.054 0 L 23.054 6.75 L 22.241 6.75 L 22.241 0 L 23.054 0 Z M 37.714 1.995 L 37.714 6.75 L 36.901 6.75 L 36.901 1.995 L 37.714 1.995 Z M 0.848 1.046 L 0.848 3.472 L 2.145 3.472 Q 2.685 3.472 3.035 3.231 A 1.174 1.174 0 0 0 3.144 3.146 A 1.069 1.069 0 0 0 3.51 2.409 A 1.486 1.486 0 0 0 3.516 2.276 Q 3.516 1.734 3.22 1.423 A 1 1 0 0 0 3.162 1.367 Q 2.808 1.05 2.14 1.046 L 0.848 1.046 Z M 27.163 5.418 L 27.163 4.443 L 26.525 4.443 Q 25.031 4.443 25.031 5.317 Q 25.031 5.7 25.286 5.915 A 0.893 0.893 0 0 0 25.7 6.108 A 1.259 1.259 0 0 0 25.941 6.13 A 1.429 1.429 0 0 0 26.666 5.933 A 1.335 1.335 0 0 0 26.962 5.705 A 1.108 1.108 0 0 0 27.163 5.418 Z M 6.051 3.938 L 8.433 3.938 L 8.433 3.876 Q 8.407 3.417 8.236 3.111 A 1.13 1.13 0 0 0 8.099 2.916 A 0.983 0.983 0 0 0 7.445 2.584 A 1.39 1.39 0 0 0 7.291 2.575 A 1.106 1.106 0 0 0 6.768 2.698 A 1.14 1.14 0 0 0 6.464 2.933 A 1.417 1.417 0 0 0 6.188 3.379 Q 6.114 3.563 6.074 3.785 A 2.741 2.741 0 0 0 6.051 3.938 Z M 36.835 0.734 Q 36.835 0.536 36.956 0.4 Q 37.068 0.274 37.279 0.264 A 0.783 0.783 0 0 1 37.314 0.264 Q 37.551 0.264 37.674 0.4 A 0.474 0.474 0 0 1 37.797 0.703 A 0.614 0.614 0 0 1 37.797 0.734 A 0.523 0.523 0 0 1 37.772 0.9 A 0.442 0.442 0 0 1 37.674 1.063 Q 37.562 1.184 37.354 1.194 A 0.803 0.803 0 0 1 37.314 1.195 Q 37.142 1.195 37.031 1.126 A 0.362 0.362 0 0 1 36.956 1.063 A 0.456 0.456 0 0 1 36.837 0.788 A 0.605 0.605 0 0 1 36.835 0.734 Z" vector-effect="non-scaling-stroke"/></g><g transform="translate(18.594, 64), scale(0.75)" id="svgGroup" stroke-linecap="round" fill-rule="evenodd" font-size="9pt" stroke="#000" stroke-width="0.25mm" fill="#000" style="stroke:#000;stroke-width:0.25mm;fill:#000"><path d="M 199.758 6.75 L 198.101 4.548 L 197.591 5.08 L 197.591 6.75 L 196.778 6.75 L 196.778 0 L 197.591 0 L 197.591 4.083 L 198.026 3.56 L 199.507 1.995 L 200.496 1.995 L 198.646 3.981 L 200.711 6.75 L 199.758 6.75 Z M 59.493 2.522 L 59.533 1.995 L 60.275 1.995 L 60.275 6.636 A 2.511 2.511 0 0 1 60.205 7.249 A 1.738 1.738 0 0 1 59.728 8.09 A 1.834 1.834 0 0 1 58.798 8.57 A 2.671 2.671 0 0 1 58.258 8.622 A 2.446 2.446 0 0 1 57.252 8.402 A 2.003 2.003 0 0 1 56.842 8.161 A 1.563 1.563 0 0 1 56.5 7.8 L 56.922 7.313 A 1.889 1.889 0 0 0 57.357 7.712 A 1.514 1.514 0 0 0 58.201 7.958 A 1.695 1.695 0 0 0 58.578 7.919 Q 58.847 7.858 59.041 7.702 A 1.037 1.037 0 0 0 59.126 7.625 A 1.09 1.09 0 0 0 59.403 7.132 Q 59.45 6.959 59.457 6.752 A 2.134 2.134 0 0 0 59.458 6.684 L 59.458 6.275 A 1.601 1.601 0 0 1 58.406 6.821 A 2.279 2.279 0 0 1 58.126 6.838 A 1.672 1.672 0 0 1 57.371 6.67 Q 57.049 6.51 56.8 6.197 A 2.14 2.14 0 0 1 56.775 6.166 A 2.316 2.316 0 0 1 56.392 5.386 Q 56.259 4.922 56.259 4.333 Q 56.259 3.472 56.567 2.884 A 2.096 2.096 0 0 1 56.773 2.564 Q 57.287 1.907 58.135 1.907 A 1.971 1.971 0 0 1 58.734 1.994 A 1.55 1.55 0 0 1 59.493 2.522 Z M 39.625 1.995 L 40.395 1.995 L 40.421 2.593 Q 40.957 1.918 41.817 1.907 A 2.234 2.234 0 0 1 41.845 1.907 A 1.905 1.905 0 0 1 42.478 2.004 Q 43.32 2.3 43.363 3.506 A 3.668 3.668 0 0 1 43.365 3.608 L 43.365 6.75 L 42.552 6.75 L 42.552 3.604 A 1.837 1.837 0 0 0 42.53 3.324 Q 42.48 3.017 42.317 2.843 Q 42.131 2.645 41.778 2.606 A 1.66 1.66 0 0 0 41.599 2.597 A 1.253 1.253 0 0 0 41.184 2.664 A 1.123 1.123 0 0 0 40.904 2.808 A 1.432 1.432 0 0 0 40.438 3.362 L 40.438 6.75 L 39.625 6.75 L 39.625 1.995 Z M 51.486 1.995 L 52.255 1.995 L 52.282 2.593 Q 52.818 1.918 53.678 1.907 A 2.234 2.234 0 0 1 53.706 1.907 A 1.905 1.905 0 0 1 54.339 2.004 Q 55.181 2.3 55.224 3.506 A 3.668 3.668 0 0 1 55.226 3.608 L 55.226 6.75 L 54.413 6.75 L 54.413 3.604 A 1.837 1.837 0 0 0 54.391 3.324 Q 54.341 3.017 54.178 2.843 Q 53.992 2.645 53.638 2.606 A 1.66 1.66 0 0 0 53.459 2.597 A 1.253 1.253 0 0 0 53.045 2.664 A 1.123 1.123 0 0 0 52.765 2.808 A 1.432 1.432 0 0 0 52.299 3.362 L 52.299 6.75 L 51.486 6.75 L 51.486 1.995 Z M 103.931 1.995 L 104.7 1.995 L 104.726 2.593 Q 105.262 1.918 106.122 1.907 A 2.234 2.234 0 0 1 106.15 1.907 A 1.905 1.905 0 0 1 106.783 2.004 Q 107.625 2.3 107.668 3.506 A 3.668 3.668 0 0 1 107.67 3.608 L 107.67 6.75 L 106.857 6.75 L 106.857 3.604 A 1.837 1.837 0 0 0 106.835 3.324 Q 106.785 3.017 106.622 2.843 Q 106.436 2.645 106.083 2.606 A 1.66 1.66 0 0 0 105.904 2.597 A 1.253 1.253 0 0 0 105.489 2.664 A 1.123 1.123 0 0 0 105.209 2.808 A 1.432 1.432 0 0 0 104.744 3.362 L 104.744 6.75 L 103.931 6.75 L 103.931 1.995 Z M 150.877 1.995 L 151.646 1.995 L 151.673 2.593 Q 152.209 1.918 153.069 1.907 A 2.234 2.234 0 0 1 153.097 1.907 A 1.905 1.905 0 0 1 153.73 2.004 Q 154.572 2.3 154.615 3.506 A 3.668 3.668 0 0 1 154.617 3.608 L 154.617 6.75 L 153.804 6.75 L 153.804 3.604 A 1.837 1.837 0 0 0 153.782 3.324 Q 153.732 3.017 153.569 2.843 Q 153.383 2.645 153.03 2.606 A 1.66 1.66 0 0 0 152.851 2.597 A 1.253 1.253 0 0 0 152.436 2.664 A 1.123 1.123 0 0 0 152.156 2.808 A 1.432 1.432 0 0 0 151.69 3.362 L 151.69 6.75 L 150.877 6.75 L 150.877 1.995 Z M 47.619 5.251 L 48.388 5.251 A 1.432 1.432 0 0 1 48.189 5.901 A 1.772 1.772 0 0 1 48.107 6.029 A 1.828 1.828 0 0 1 47.498 6.574 A 2.169 2.169 0 0 1 47.415 6.618 A 1.997 1.997 0 0 1 46.499 6.838 A 2.346 2.346 0 0 1 45.801 6.739 A 1.839 1.839 0 0 1 44.954 6.19 A 2.171 2.171 0 0 1 44.49 5.31 Q 44.38 4.909 44.38 4.417 L 44.38 4.28 A 3.24 3.24 0 0 1 44.444 3.624 A 2.57 2.57 0 0 1 44.635 3.045 A 2.008 2.008 0 0 1 45.075 2.431 A 1.892 1.892 0 0 1 45.367 2.206 A 1.943 1.943 0 0 1 46.123 1.934 A 2.529 2.529 0 0 1 46.494 1.907 A 2.196 2.196 0 0 1 47.142 1.999 A 1.786 1.786 0 0 1 47.823 2.386 A 1.693 1.693 0 0 1 48.382 3.535 A 2.239 2.239 0 0 1 48.388 3.63 L 47.619 3.63 Q 47.584 3.168 47.27 2.872 A 1.078 1.078 0 0 0 46.541 2.576 A 1.402 1.402 0 0 0 46.494 2.575 A 1.374 1.374 0 0 0 46.073 2.637 A 1.081 1.081 0 0 0 45.534 3.021 A 1.469 1.469 0 0 0 45.307 3.468 Q 45.241 3.674 45.214 3.923 A 3.514 3.514 0 0 0 45.193 4.311 L 45.193 4.465 Q 45.193 5.287 45.532 5.73 A 1.1 1.1 0 0 0 46.318 6.165 A 1.611 1.611 0 0 0 46.499 6.174 A 1.171 1.171 0 0 0 47.259 5.911 A 1.007 1.007 0 0 0 47.503 5.629 A 0.914 0.914 0 0 0 47.619 5.251 Z M 87.095 5.251 L 87.864 5.251 A 1.432 1.432 0 0 1 87.665 5.901 A 1.772 1.772 0 0 1 87.583 6.029 A 1.828 1.828 0 0 1 86.974 6.574 A 2.169 2.169 0 0 1 86.891 6.618 A 1.997 1.997 0 0 1 85.975 6.838 A 2.346 2.346 0 0 1 85.277 6.739 A 1.839 1.839 0 0 1 84.43 6.19 A 2.171 2.171 0 0 1 83.966 5.31 Q 83.856 4.909 83.856 4.417 L 83.856 4.28 A 3.24 3.24 0 0 1 83.92 3.624 A 2.57 2.57 0 0 1 84.111 3.045 A 2.008 2.008 0 0 1 84.551 2.431 A 1.892 1.892 0 0 1 84.843 2.206 A 1.943 1.943 0 0 1 85.599 1.934 A 2.529 2.529 0 0 1 85.97 1.907 A 2.196 2.196 0 0 1 86.618 1.999 A 1.786 1.786 0 0 1 87.3 2.386 A 1.693 1.693 0 0 1 87.858 3.535 A 2.239 2.239 0 0 1 87.864 3.63 L 87.095 3.63 Q 87.06 3.168 86.746 2.872 A 1.078 1.078 0 0 0 86.017 2.576 A 1.402 1.402 0 0 0 85.97 2.575 A 1.374 1.374 0 0 0 85.549 2.637 A 1.081 1.081 0 0 0 85.01 3.021 A 1.469 1.469 0 0 0 84.783 3.468 Q 84.717 3.674 84.69 3.923 A 3.514 3.514 0 0 0 84.669 4.311 L 84.669 4.465 Q 84.669 5.287 85.008 5.73 A 1.1 1.1 0 0 0 85.794 6.165 A 1.611 1.611 0 0 0 85.975 6.174 A 1.171 1.171 0 0 0 86.735 5.911 A 1.007 1.007 0 0 0 86.979 5.629 A 0.914 0.914 0 0 0 87.095 5.251 Z M 158.871 5.251 L 159.64 5.251 A 1.432 1.432 0 0 1 159.441 5.901 A 1.772 1.772 0 0 1 159.359 6.029 A 1.828 1.828 0 0 1 158.75 6.574 A 2.169 2.169 0 0 1 158.667 6.618 A 1.997 1.997 0 0 1 157.75 6.838 A 2.346 2.346 0 0 1 157.053 6.739 A 1.839 1.839 0 0 1 156.206 6.19 A 2.171 2.171 0 0 1 155.742 5.31 Q 155.632 4.909 155.632 4.417 L 155.632 4.28 A 3.24 3.24 0 0 1 155.696 3.624 A 2.57 2.57 0 0 1 155.887 3.045 A 2.008 2.008 0 0 1 156.327 2.431 A 1.892 1.892 0 0 1 156.619 2.206 A 1.943 1.943 0 0 1 157.375 1.934 A 2.529 2.529 0 0 1 157.746 1.907 A 2.196 2.196 0 0 1 158.394 1.999 A 1.786 1.786 0 0 1 159.075 2.386 A 1.693 1.693 0 0 1 159.634 3.535 A 2.239 2.239 0 0 1 159.64 3.63 L 158.871 3.63 Q 158.836 3.168 158.522 2.872 A 1.078 1.078 0 0 0 157.793 2.576 A 1.402 1.402 0 0 0 157.746 2.575 A 1.374 1.374 0 0 0 157.325 2.637 A 1.081 1.081 0 0 0 156.786 3.021 A 1.469 1.469 0 0 0 156.559 3.468 Q 156.493 3.674 156.466 3.923 A 3.514 3.514 0 0 0 156.445 4.311 L 156.445 4.465 Q 156.445 5.287 156.784 5.73 A 1.1 1.1 0 0 0 157.57 6.165 A 1.611 1.611 0 0 0 157.75 6.174 A 1.171 1.171 0 0 0 158.511 5.911 A 1.007 1.007 0 0 0 158.755 5.629 A 0.914 0.914 0 0 0 158.871 5.251 Z M 68.001 6.75 L 67.39 5.08 L 64.709 5.08 L 64.107 6.75 L 63.237 6.75 L 65.681 0.352 L 66.419 0.352 L 68.867 6.75 L 68.001 6.75 Z M 13.636 6.75 L 12.784 6.75 A 0.632 0.632 0 0 1 12.748 6.66 Q 12.717 6.562 12.692 6.41 A 3.997 3.997 0 0 1 12.669 6.249 Q 12.103 6.838 11.316 6.838 A 2.033 2.033 0 0 1 10.787 6.772 A 1.529 1.529 0 0 1 10.162 6.44 Q 9.712 6.042 9.712 5.432 Q 9.712 4.689 10.277 4.278 Q 10.841 3.867 11.865 3.867 L 12.656 3.867 L 12.656 3.494 A 1.152 1.152 0 0 0 12.621 3.199 A 0.828 0.828 0 0 0 12.401 2.815 Q 12.185 2.6 11.795 2.568 A 1.748 1.748 0 0 0 11.65 2.562 Q 11.215 2.562 10.92 2.782 Q 10.626 3.001 10.626 3.313 L 9.809 3.313 A 1.041 1.041 0 0 1 9.934 2.825 A 1.409 1.409 0 0 1 10.061 2.626 Q 10.314 2.294 10.747 2.101 A 2.249 2.249 0 0 1 11.523 1.913 A 2.669 2.669 0 0 1 11.698 1.907 A 2.65 2.65 0 0 1 12.216 1.955 Q 12.523 2.016 12.762 2.156 A 1.439 1.439 0 0 1 12.986 2.318 A 1.396 1.396 0 0 1 13.439 3.144 A 1.998 1.998 0 0 1 13.469 3.45 L 13.469 5.638 Q 13.469 6.073 13.543 6.39 A 1.707 1.707 0 0 0 13.636 6.68 L 13.636 6.75 Z M 31.438 6.75 L 30.586 6.75 A 0.632 0.632 0 0 1 30.55 6.66 Q 30.519 6.562 30.494 6.41 A 3.997 3.997 0 0 1 30.472 6.249 Q 29.905 6.838 29.118 6.838 A 2.033 2.033 0 0 1 28.589 6.772 A 1.529 1.529 0 0 1 27.965 6.44 Q 27.514 6.042 27.514 5.432 Q 27.514 4.689 28.079 4.278 Q 28.644 3.867 29.667 3.867 L 30.458 3.867 L 30.458 3.494 A 1.152 1.152 0 0 0 30.423 3.199 A 0.828 0.828 0 0 0 30.204 2.815 Q 29.987 2.6 29.597 2.568 A 1.748 1.748 0 0 0 29.452 2.562 Q 29.017 2.562 28.723 2.782 Q 28.428 3.001 28.428 3.313 L 27.611 3.313 A 1.041 1.041 0 0 1 27.736 2.825 A 1.409 1.409 0 0 1 27.864 2.626 Q 28.116 2.294 28.549 2.101 A 2.249 2.249 0 0 1 29.325 1.913 A 2.669 2.669 0 0 1 29.5 1.907 A 2.65 2.65 0 0 1 30.018 1.955 Q 30.325 2.016 30.564 2.156 A 1.439 1.439 0 0 1 30.788 2.318 A 1.396 1.396 0 0 1 31.241 3.144 A 1.998 1.998 0 0 1 31.271 3.45 L 31.271 5.638 Q 31.271 6.073 31.345 6.39 A 1.707 1.707 0 0 0 31.438 6.68 L 31.438 6.75 Z M 38.518 6.75 L 37.666 6.75 A 0.632 0.632 0 0 1 37.63 6.66 Q 37.599 6.562 37.574 6.41 A 3.997 3.997 0 0 1 37.551 6.249 Q 36.984 6.838 36.198 6.838 A 2.033 2.033 0 0 1 35.668 6.772 A 1.529 1.529 0 0 1 35.044 6.44 Q 34.594 6.042 34.594 5.432 Q 34.594 4.689 35.158 4.278 Q 35.723 3.867 36.747 3.867 L 37.538 3.867 L 37.538 3.494 A 1.152 1.152 0 0 0 37.502 3.199 A 0.828 0.828 0 0 0 37.283 2.815 Q 37.067 2.6 36.677 2.568 A 1.748 1.748 0 0 0 36.532 2.562 Q 36.097 2.562 35.802 2.782 Q 35.508 3.001 35.508 3.313 L 34.69 3.313 A 1.041 1.041 0 0 1 34.815 2.825 A 1.409 1.409 0 0 1 34.943 2.626 Q 35.196 2.294 35.629 2.101 A 2.249 2.249 0 0 1 36.404 1.913 A 2.669 2.669 0 0 1 36.58 1.907 A 2.65 2.65 0 0 1 37.098 1.955 Q 37.405 2.016 37.644 2.156 A 1.439 1.439 0 0 1 37.868 2.318 A 1.396 1.396 0 0 1 38.321 3.144 A 1.998 1.998 0 0 1 38.351 3.45 L 38.351 5.638 Q 38.351 6.073 38.425 6.39 A 1.707 1.707 0 0 0 38.518 6.68 L 38.518 6.75 Z M 92.566 6.75 L 91.714 6.75 A 0.632 0.632 0 0 1 91.678 6.66 Q 91.647 6.562 91.622 6.41 A 3.997 3.997 0 0 1 91.6 6.249 Q 91.033 6.838 90.246 6.838 A 2.033 2.033 0 0 1 89.717 6.772 A 1.529 1.529 0 0 1 89.093 6.44 Q 88.642 6.042 88.642 5.432 Q 88.642 4.689 89.207 4.278 Q 89.771 3.867 90.795 3.867 L 91.586 3.867 L 91.586 3.494 A 1.152 1.152 0 0 0 91.551 3.199 A 0.828 0.828 0 0 0 91.332 2.815 Q 91.115 2.6 90.725 2.568 A 1.748 1.748 0 0 0 90.58 2.562 Q 90.145 2.562 89.851 2.782 Q 89.556 3.001 89.556 3.313 L 88.739 3.313 A 1.041 1.041 0 0 1 88.864 2.825 A 1.409 1.409 0 0 1 88.991 2.626 Q 89.244 2.294 89.677 2.101 A 2.249 2.249 0 0 1 90.453 1.913 A 2.669 2.669 0 0 1 90.628 1.907 A 2.65 2.65 0 0 1 91.146 1.955 Q 91.453 2.016 91.692 2.156 A 1.439 1.439 0 0 1 91.916 2.318 A 1.396 1.396 0 0 1 92.369 3.144 A 1.998 1.998 0 0 1 92.399 3.45 L 92.399 5.638 Q 92.399 6.073 92.473 6.39 A 1.707 1.707 0 0 0 92.566 6.68 L 92.566 6.75 Z M 124.888 6.75 L 124.036 6.75 A 0.632 0.632 0 0 1 124 6.66 Q 123.969 6.562 123.944 6.41 A 3.997 3.997 0 0 1 123.921 6.249 Q 123.354 6.838 122.568 6.838 A 2.033 2.033 0 0 1 122.039 6.772 A 1.529 1.529 0 0 1 121.414 6.44 Q 120.964 6.042 120.964 5.432 Q 120.964 4.689 121.529 4.278 Q 122.093 3.867 123.117 3.867 L 123.908 3.867 L 123.908 3.494 A 1.152 1.152 0 0 0 123.872 3.199 A 0.828 0.828 0 0 0 123.653 2.815 Q 123.437 2.6 123.047 2.568 A 1.748 1.748 0 0 0 122.902 2.562 Q 122.467 2.562 122.172 2.782 Q 121.878 3.001 121.878 3.313 L 121.061 3.313 A 1.041 1.041 0 0 1 121.185 2.825 A 1.409 1.409 0 0 1 121.313 2.626 Q 121.566 2.294 121.999 2.101 A 2.249 2.249 0 0 1 122.774 1.913 A 2.669 2.669 0 0 1 122.95 1.907 A 2.65 2.65 0 0 1 123.468 1.955 Q 123.775 2.016 124.014 2.156 A 1.439 1.439 0 0 1 124.238 2.318 A 1.396 1.396 0 0 1 124.691 3.144 A 1.998 1.998 0 0 1 124.721 3.45 L 124.721 5.638 Q 124.721 6.073 124.795 6.39 A 1.707 1.707 0 0 0 124.888 6.68 L 124.888 6.75 Z M 142.69 6.75 L 141.838 6.75 A 0.632 0.632 0 0 1 141.802 6.66 Q 141.771 6.562 141.746 6.41 A 3.997 3.997 0 0 1 141.724 6.249 Q 141.157 6.838 140.37 6.838 A 2.033 2.033 0 0 1 139.841 6.772 A 1.529 1.529 0 0 1 139.217 6.44 Q 138.766 6.042 138.766 5.432 Q 138.766 4.689 139.331 4.278 Q 139.896 3.867 140.919 3.867 L 141.71 3.867 L 141.71 3.494 A 1.152 1.152 0 0 0 141.675 3.199 A 0.828 0.828 0 0 0 141.456 2.815 Q 141.239 2.6 140.849 2.568 A 1.748 1.748 0 0 0 140.704 2.562 Q 140.269 2.562 139.975 2.782 Q 139.68 3.001 139.68 3.313 L 138.863 3.313 A 1.041 1.041 0 0 1 138.988 2.825 A 1.409 1.409 0 0 1 139.115 2.626 Q 139.368 2.294 139.801 2.101 A 2.249 2.249 0 0 1 140.577 1.913 A 2.669 2.669 0 0 1 140.752 1.907 A 2.65 2.65 0 0 1 141.27 1.955 Q 141.577 2.016 141.816 2.156 A 1.439 1.439 0 0 1 142.04 2.318 A 1.396 1.396 0 0 1 142.493 3.144 A 1.998 1.998 0 0 1 142.523 3.45 L 142.523 5.638 Q 142.523 6.073 142.597 6.39 A 1.707 1.707 0 0 0 142.69 6.68 L 142.69 6.75 Z M 149.77 6.75 L 148.917 6.75 A 0.632 0.632 0 0 1 148.882 6.66 Q 148.851 6.562 148.826 6.41 A 3.997 3.997 0 0 1 148.803 6.249 Q 148.236 6.838 147.45 6.838 A 2.033 2.033 0 0 1 146.92 6.772 A 1.529 1.529 0 0 1 146.296 6.44 Q 145.846 6.042 145.846 5.432 Q 145.846 4.689 146.41 4.278 Q 146.975 3.867 147.999 3.867 L 148.79 3.867 L 148.79 3.494 A 1.152 1.152 0 0 0 148.754 3.199 A 0.828 0.828 0 0 0 148.535 2.815 Q 148.319 2.6 147.928 2.568 A 1.748 1.748 0 0 0 147.784 2.562 Q 147.349 2.562 147.054 2.782 Q 146.76 3.001 146.76 3.313 L 145.942 3.313 A 1.041 1.041 0 0 1 146.067 2.825 A 1.409 1.409 0 0 1 146.195 2.626 Q 146.448 2.294 146.881 2.101 A 2.249 2.249 0 0 1 147.656 1.913 A 2.669 2.669 0 0 1 147.832 1.907 A 2.65 2.65 0 0 1 148.349 1.955 Q 148.657 2.016 148.896 2.156 A 1.439 1.439 0 0 1 149.12 2.318 A 1.396 1.396 0 0 1 149.573 3.144 A 1.998 1.998 0 0 1 149.603 3.45 L 149.603 5.638 Q 149.603 6.073 149.677 6.39 A 1.707 1.707 0 0 0 149.77 6.68 L 149.77 6.75 Z M 192.621 6.75 L 191.769 6.75 A 0.632 0.632 0 0 1 191.733 6.66 Q 191.702 6.562 191.677 6.41 A 3.997 3.997 0 0 1 191.654 6.249 Q 191.087 6.838 190.301 6.838 A 2.033 2.033 0 0 1 189.771 6.772 A 1.529 1.529 0 0 1 189.147 6.44 Q 188.697 6.042 188.697 5.432 Q 188.697 4.689 189.261 4.278 Q 189.826 3.867 190.85 3.867 L 191.641 3.867 L 191.641 3.494 A 1.152 1.152 0 0 0 191.605 3.199 A 0.828 0.828 0 0 0 191.386 2.815 Q 191.17 2.6 190.78 2.568 A 1.748 1.748 0 0 0 190.635 2.562 Q 190.2 2.562 189.905 2.782 Q 189.611 3.001 189.611 3.313 L 188.793 3.313 A 1.041 1.041 0 0 1 188.918 2.825 A 1.409 1.409 0 0 1 189.046 2.626 Q 189.299 2.294 189.732 2.101 A 2.249 2.249 0 0 1 190.507 1.913 A 2.669 2.669 0 0 1 190.683 1.907 A 2.65 2.65 0 0 1 191.201 1.955 Q 191.508 2.016 191.747 2.156 A 1.439 1.439 0 0 1 191.971 2.318 A 1.396 1.396 0 0 1 192.424 3.144 A 1.998 1.998 0 0 1 192.454 3.45 L 192.454 5.638 Q 192.454 6.073 192.528 6.39 A 1.707 1.707 0 0 0 192.621 6.68 L 192.621 6.75 Z M 14.546 4.395 L 14.546 4.333 A 3.762 3.762 0 0 1 14.613 3.602 Q 14.701 3.16 14.903 2.812 A 2.148 2.148 0 0 1 15.064 2.573 Q 15.583 1.907 16.422 1.907 A 1.964 1.964 0 0 1 17.02 1.994 A 1.559 1.559 0 0 1 17.745 2.479 L 17.745 0 L 18.558 0 L 18.558 6.75 L 17.811 6.75 L 17.771 6.24 Q 17.284 6.838 16.414 6.838 A 1.6 1.6 0 0 1 15.193 6.31 A 2.078 2.078 0 0 1 15.067 6.161 A 2.405 2.405 0 0 1 14.642 5.255 Q 14.558 4.912 14.547 4.51 A 4.425 4.425 0 0 1 14.546 4.395 Z M 125.798 4.395 L 125.798 4.333 A 3.762 3.762 0 0 1 125.865 3.602 Q 125.952 3.16 126.155 2.812 A 2.148 2.148 0 0 1 126.316 2.573 Q 126.835 1.907 127.674 1.907 A 1.964 1.964 0 0 1 128.272 1.994 A 1.559 1.559 0 0 1 128.997 2.479 L 128.997 0 L 129.81 0 L 129.81 6.75 L 129.063 6.75 L 129.023 6.24 Q 128.536 6.838 127.666 6.838 A 1.6 1.6 0 0 1 126.445 6.31 A 2.078 2.078 0 0 1 126.319 6.161 A 2.405 2.405 0 0 1 125.894 5.255 Q 125.81 4.912 125.799 4.51 A 4.425 4.425 0 0 1 125.798 4.395 Z M 73.617 4.351 L 73.617 4.425 Q 73.617 5.511 73.121 6.174 A 1.57 1.57 0 0 1 71.982 6.828 A 2.013 2.013 0 0 1 71.776 6.838 A 2.196 2.196 0 0 1 71.19 6.764 A 1.598 1.598 0 0 1 70.414 6.289 L 70.414 8.578 L 69.601 8.578 L 69.601 1.995 L 70.343 1.995 L 70.383 2.522 A 1.619 1.619 0 0 1 71.522 1.919 A 2.319 2.319 0 0 1 71.763 1.907 A 1.829 1.829 0 0 1 72.4 2.014 A 1.597 1.597 0 0 1 73.118 2.553 Q 73.617 3.199 73.617 4.351 Z M 78.667 4.351 L 78.667 4.425 Q 78.667 5.511 78.17 6.174 A 1.57 1.57 0 0 1 77.032 6.828 A 2.013 2.013 0 0 1 76.825 6.838 A 2.196 2.196 0 0 1 76.239 6.764 A 1.598 1.598 0 0 1 75.463 6.289 L 75.463 8.578 L 74.65 8.578 L 74.65 1.995 L 75.393 1.995 L 75.432 2.522 A 1.619 1.619 0 0 1 76.571 1.919 A 2.319 2.319 0 0 1 76.812 1.907 A 1.829 1.829 0 0 1 77.449 2.014 A 1.597 1.597 0 0 1 78.168 2.553 Q 78.667 3.199 78.667 4.351 Z M 160.348 4.504 L 160.348 4.355 A 3.17 3.17 0 0 1 160.424 3.646 A 2.581 2.581 0 0 1 160.618 3.092 A 2.191 2.191 0 0 1 161.065 2.466 A 2.033 2.033 0 0 1 161.374 2.221 Q 161.859 1.907 162.426 1.907 A 2.254 2.254 0 0 1 163.039 1.986 A 1.639 1.639 0 0 1 163.868 2.518 Q 164.382 3.129 164.382 4.267 L 164.382 4.605 L 161.161 4.605 A 2.111 2.111 0 0 0 161.232 5.114 A 1.516 1.516 0 0 0 161.572 5.741 A 1.282 1.282 0 0 0 162.506 6.173 A 1.652 1.652 0 0 0 162.571 6.174 A 1.763 1.763 0 0 0 162.899 6.145 Q 163.123 6.103 163.301 5.999 A 1.827 1.827 0 0 0 163.81 5.551 A 2.068 2.068 0 0 0 163.824 5.533 L 164.32 5.919 A 1.926 1.926 0 0 1 162.921 6.811 A 2.749 2.749 0 0 1 162.527 6.838 A 2.394 2.394 0 0 1 161.776 6.725 A 1.974 1.974 0 0 1 160.954 6.203 Q 160.348 5.568 160.348 4.504 Z M 24.394 6.75 L 22.175 6.75 L 22.175 0.352 L 24.267 0.352 A 4.031 4.031 0 0 1 24.839 0.39 Q 25.132 0.432 25.369 0.521 A 1.629 1.629 0 0 1 25.833 0.782 A 1.383 1.383 0 0 1 26.305 1.558 A 2.164 2.164 0 0 1 26.358 2.057 A 1.3 1.3 0 0 1 26.104 2.85 A 1.589 1.589 0 0 1 25.593 3.294 A 1.972 1.972 0 0 1 25.409 3.384 A 1.571 1.571 0 0 1 25.924 3.63 A 1.446 1.446 0 0 1 26.229 3.935 A 1.531 1.531 0 0 1 26.521 4.713 A 1.961 1.961 0 0 1 26.53 4.904 A 2.139 2.139 0 0 1 26.455 5.487 A 1.577 1.577 0 0 1 25.972 6.258 A 1.832 1.832 0 0 1 25.28 6.633 Q 25.013 6.713 24.694 6.739 A 3.81 3.81 0 0 1 24.394 6.75 Z M 135.646 6.75 L 133.427 6.75 L 133.427 0.352 L 135.519 0.352 A 4.031 4.031 0 0 1 136.091 0.39 Q 136.384 0.432 136.621 0.521 A 1.629 1.629 0 0 1 137.085 0.782 A 1.383 1.383 0 0 1 137.556 1.558 A 2.164 2.164 0 0 1 137.61 2.057 A 1.3 1.3 0 0 1 137.355 2.85 A 1.589 1.589 0 0 1 136.845 3.294 A 1.972 1.972 0 0 1 136.661 3.384 A 1.571 1.571 0 0 1 137.176 3.63 A 1.446 1.446 0 0 1 137.481 3.935 A 1.531 1.531 0 0 1 137.773 4.713 A 1.961 1.961 0 0 1 137.782 4.904 A 2.139 2.139 0 0 1 137.706 5.487 A 1.577 1.577 0 0 1 137.224 6.258 A 1.832 1.832 0 0 1 136.532 6.633 Q 136.265 6.713 135.946 6.739 A 3.81 3.81 0 0 1 135.646 6.75 Z M 0.848 0.352 L 0.848 6.06 L 3.88 6.06 L 3.88 6.75 L 0 6.75 L 0 0.352 L 0.848 0.352 Z M 112.1 0.352 L 112.1 6.06 L 115.132 6.06 L 115.132 6.75 L 111.252 6.75 L 111.252 0.352 L 112.1 0.352 Z M 173.944 0.352 L 173.944 4.601 L 174.832 4.601 L 174.832 5.265 L 173.944 5.265 L 173.944 6.75 L 173.127 6.75 L 173.127 5.265 L 170.213 5.265 L 170.213 4.786 L 173.079 0.352 L 173.944 0.352 Z M 184.83 6.75 L 183.059 6.75 L 183.059 0.352 L 184.865 0.352 Q 185.7 0.352 186.341 0.721 Q 186.983 1.09 187.332 1.771 A 3.19 3.19 0 0 1 187.649 2.8 A 4.073 4.073 0 0 1 187.686 3.335 L 187.686 3.744 Q 187.686 4.649 187.337 5.331 A 2.457 2.457 0 0 1 186.339 6.376 Q 185.691 6.741 184.83 6.75 Z M 179.343 2.592 A 1.544 1.544 0 0 0 179.446 2.021 A 2.226 2.226 0 0 0 179.425 1.707 A 1.566 1.566 0 0 0 178.926 0.738 A 1.754 1.754 0 0 0 178.16 0.333 A 2.443 2.443 0 0 0 177.561 0.264 A 2.539 2.539 0 0 0 177.052 0.312 A 1.767 1.767 0 0 0 176.194 0.738 Q 175.676 1.213 175.676 2.021 A 1.808 1.808 0 0 0 175.676 2.058 A 1.499 1.499 0 0 0 175.922 2.87 A 1.626 1.626 0 0 0 176.084 3.077 A 1.726 1.726 0 0 0 176.594 3.454 A 2.119 2.119 0 0 0 176.495 3.5 A 1.738 1.738 0 0 0 175.81 4.087 A 1.629 1.629 0 0 0 175.526 5.023 A 2.272 2.272 0 0 0 175.536 5.237 A 1.63 1.63 0 0 0 176.082 6.344 A 1.895 1.895 0 0 0 176.933 6.771 A 2.797 2.797 0 0 0 177.561 6.838 A 2.796 2.796 0 0 0 178.16 6.777 A 1.925 1.925 0 0 0 179.035 6.346 A 1.578 1.578 0 0 0 179.51 5.62 A 1.989 1.989 0 0 0 179.596 5.023 A 1.581 1.581 0 0 0 179.303 4.087 Q 179.011 3.674 178.51 3.458 Q 178.941 3.248 179.194 2.874 A 1.449 1.449 0 0 0 179.343 2.592 Z M 93.964 0.844 L 94.777 0.844 L 94.777 1.995 L 95.665 1.995 L 95.665 2.624 L 94.777 2.624 L 94.777 5.572 Q 94.777 5.858 94.896 6.001 Q 95.014 6.144 95.3 6.144 A 1.046 1.046 0 0 0 95.397 6.138 Q 95.5 6.129 95.64 6.101 A 4.024 4.024 0 0 0 95.687 6.091 L 95.687 6.75 A 2.463 2.463 0 0 1 95.254 6.829 A 2.157 2.157 0 0 1 95.063 6.838 Q 94.615 6.838 94.349 6.616 A 0.856 0.856 0 0 1 94.241 6.508 Q 94.013 6.238 93.973 5.78 A 2.351 2.351 0 0 1 93.964 5.572 L 93.964 2.624 L 93.098 2.624 L 93.098 1.995 L 93.964 1.995 L 93.964 0.844 Z M 33.429 0 L 33.429 6.75 L 32.616 6.75 L 32.616 0 L 33.429 0 Z M 80.583 0 L 80.583 6.75 L 79.77 6.75 L 79.77 0 L 80.583 0 Z M 144.681 0 L 144.681 6.75 L 143.868 6.75 L 143.868 0 L 144.681 0 Z M 4.5 4.386 L 4.5 4.329 A 3.057 3.057 0 0 1 4.587 3.587 A 2.573 2.573 0 0 1 4.775 3.072 A 2.16 2.16 0 0 1 5.189 2.486 A 1.957 1.957 0 0 1 5.539 2.21 A 2.036 2.036 0 0 1 6.484 1.913 A 2.491 2.491 0 0 1 6.658 1.907 A 2.277 2.277 0 0 1 7.411 2.027 A 1.937 1.937 0 0 1 8.229 2.58 A 2.29 2.29 0 0 1 8.748 3.608 A 3.373 3.373 0 0 1 8.829 4.368 L 8.829 4.425 A 3.114 3.114 0 0 1 8.749 5.142 A 2.577 2.577 0 0 1 8.563 5.671 A 2.056 2.056 0 0 1 8.035 6.361 A 2.001 2.001 0 0 1 7.802 6.53 A 2.045 2.045 0 0 1 6.883 6.829 A 2.529 2.529 0 0 1 6.667 6.838 A 2.262 2.262 0 0 1 5.916 6.718 A 1.938 1.938 0 0 1 5.1 6.166 A 2.297 2.297 0 0 1 4.574 5.111 A 3.357 3.357 0 0 1 4.5 4.386 Z M 98.583 4.386 L 98.583 4.329 A 3.057 3.057 0 0 1 98.669 3.587 A 2.573 2.573 0 0 1 98.857 3.072 A 2.16 2.16 0 0 1 99.272 2.486 A 1.957 1.957 0 0 1 99.622 2.21 A 2.036 2.036 0 0 1 100.566 1.913 A 2.491 2.491 0 0 1 100.74 1.907 A 2.277 2.277 0 0 1 101.494 2.027 A 1.937 1.937 0 0 1 102.311 2.58 A 2.29 2.29 0 0 1 102.83 3.608 A 3.373 3.373 0 0 1 102.911 4.368 L 102.911 4.425 A 3.114 3.114 0 0 1 102.832 5.142 A 2.577 2.577 0 0 1 102.645 5.671 A 2.056 2.056 0 0 1 102.118 6.361 A 2.001 2.001 0 0 1 101.885 6.53 A 2.045 2.045 0 0 1 100.965 6.829 A 2.529 2.529 0 0 1 100.749 6.838 A 2.262 2.262 0 0 1 99.999 6.718 A 1.938 1.938 0 0 1 99.182 6.166 A 2.297 2.297 0 0 1 98.657 5.111 A 3.357 3.357 0 0 1 98.583 4.386 Z M 115.752 4.386 L 115.752 4.329 A 3.057 3.057 0 0 1 115.839 3.587 A 2.573 2.573 0 0 1 116.027 3.072 A 2.16 2.16 0 0 1 116.441 2.486 A 1.957 1.957 0 0 1 116.791 2.21 A 2.036 2.036 0 0 1 117.736 1.913 A 2.491 2.491 0 0 1 117.91 1.907 A 2.277 2.277 0 0 1 118.663 2.027 A 1.937 1.937 0 0 1 119.481 2.58 A 2.29 2.29 0 0 1 120 3.608 A 3.373 3.373 0 0 1 120.081 4.368 L 120.081 4.425 A 3.114 3.114 0 0 1 120.001 5.142 A 2.577 2.577 0 0 1 119.815 5.671 A 2.056 2.056 0 0 1 119.287 6.361 A 2.001 2.001 0 0 1 119.054 6.53 A 2.045 2.045 0 0 1 118.135 6.829 A 2.529 2.529 0 0 1 117.918 6.838 A 2.262 2.262 0 0 1 117.168 6.718 A 1.938 1.938 0 0 1 116.352 6.166 A 2.297 2.297 0 0 1 115.826 5.111 A 3.357 3.357 0 0 1 115.752 4.386 Z M 167.621 1.969 L 167.621 2.725 A 2.251 2.251 0 0 0 167.378 2.698 A 2.782 2.782 0 0 0 167.221 2.694 Q 166.443 2.694 166.151 3.338 A 1.445 1.445 0 0 0 166.135 3.375 L 166.135 6.75 L 165.322 6.75 L 165.322 1.995 L 166.113 1.995 L 166.126 2.544 Q 166.507 1.938 167.189 1.909 A 1.636 1.636 0 0 1 167.26 1.907 Q 167.498 1.907 167.621 1.969 Z M 196.027 1.969 L 196.027 2.725 A 2.251 2.251 0 0 0 195.784 2.698 A 2.782 2.782 0 0 0 195.627 2.694 Q 194.849 2.694 194.558 3.338 A 1.445 1.445 0 0 0 194.542 3.375 L 194.542 6.75 L 193.729 6.75 L 193.729 1.995 L 194.52 1.995 L 194.533 2.544 Q 194.913 1.938 195.596 1.909 A 1.636 1.636 0 0 1 195.667 1.907 Q 195.904 1.907 196.027 1.969 Z M 184.887 1.046 L 183.902 1.046 L 183.902 6.06 L 184.79 6.06 A 2.519 2.519 0 0 0 185.422 5.985 A 1.747 1.747 0 0 0 186.308 5.454 Q 186.768 4.94 186.838 4.059 A 4.165 4.165 0 0 0 186.851 3.727 L 186.851 3.353 Q 186.851 2.562 186.581 2.027 A 1.864 1.864 0 0 0 186.339 1.659 A 1.687 1.687 0 0 0 185.343 1.09 A 2.499 2.499 0 0 0 184.887 1.046 Z M 50.186 1.995 L 50.186 6.75 L 49.373 6.75 L 49.373 1.995 L 50.186 1.995 Z M 82.767 1.995 L 82.767 6.75 L 81.954 6.75 L 81.954 1.995 L 82.767 1.995 Z M 97.497 1.995 L 97.497 6.75 L 96.684 6.75 L 96.684 1.995 L 97.497 1.995 Z M 5.317 4.425 A 2.772 2.772 0 0 0 5.365 4.954 Q 5.425 5.264 5.563 5.51 A 1.545 1.545 0 0 0 5.684 5.695 Q 6.051 6.174 6.667 6.174 A 1.269 1.269 0 0 0 7.156 6.083 Q 7.435 5.967 7.638 5.706 A 1.471 1.471 0 0 0 7.651 5.689 A 1.648 1.648 0 0 0 7.906 5.171 Q 7.974 4.945 8 4.672 A 3.655 3.655 0 0 0 8.016 4.329 A 2.687 2.687 0 0 0 7.964 3.789 Q 7.897 3.459 7.739 3.2 A 1.586 1.586 0 0 0 7.644 3.061 A 1.231 1.231 0 0 0 7.229 2.705 Q 6.976 2.575 6.658 2.575 Q 6.068 2.575 5.702 3.035 A 1.515 1.515 0 0 0 5.687 3.054 A 1.589 1.589 0 0 0 5.434 3.552 Q 5.365 3.772 5.337 4.039 A 3.676 3.676 0 0 0 5.317 4.425 Z M 99.4 4.425 A 2.772 2.772 0 0 0 99.447 4.954 Q 99.508 5.264 99.645 5.51 A 1.545 1.545 0 0 0 99.767 5.695 Q 100.134 6.174 100.749 6.174 A 1.269 1.269 0 0 0 101.238 6.083 Q 101.518 5.967 101.72 5.706 A 1.471 1.471 0 0 0 101.733 5.689 A 1.648 1.648 0 0 0 101.988 5.171 Q 102.057 4.945 102.083 4.672 A 3.655 3.655 0 0 0 102.098 4.329 A 2.687 2.687 0 0 0 102.047 3.789 Q 101.979 3.459 101.822 3.2 A 1.586 1.586 0 0 0 101.727 3.061 A 1.231 1.231 0 0 0 101.312 2.705 Q 101.059 2.575 100.74 2.575 Q 100.15 2.575 99.784 3.035 A 1.515 1.515 0 0 0 99.769 3.054 A 1.589 1.589 0 0 0 99.517 3.552 Q 99.447 3.772 99.419 4.039 A 3.676 3.676 0 0 0 99.4 4.425 Z M 116.569 4.425 A 2.772 2.772 0 0 0 116.617 4.954 Q 116.677 5.264 116.814 5.51 A 1.545 1.545 0 0 0 116.936 5.695 Q 117.303 6.174 117.918 6.174 A 1.269 1.269 0 0 0 118.408 6.083 Q 118.687 5.967 118.89 5.706 A 1.471 1.471 0 0 0 118.903 5.689 A 1.648 1.648 0 0 0 119.158 5.171 Q 119.226 4.945 119.252 4.672 A 3.655 3.655 0 0 0 119.268 4.329 A 2.687 2.687 0 0 0 119.216 3.789 Q 119.149 3.459 118.991 3.2 A 1.586 1.586 0 0 0 118.896 3.061 A 1.231 1.231 0 0 0 118.481 2.705 Q 118.228 2.575 117.91 2.575 Q 117.32 2.575 116.953 3.035 A 1.515 1.515 0 0 0 116.938 3.054 A 1.589 1.589 0 0 0 116.686 3.552 Q 116.617 3.772 116.589 4.039 A 3.676 3.676 0 0 0 116.569 4.425 Z M 70.414 3.252 L 70.414 5.524 Q 70.778 6.174 71.53 6.174 A 1.184 1.184 0 0 0 71.995 6.086 Q 72.253 5.977 72.441 5.735 A 1.403 1.403 0 0 0 72.459 5.711 A 1.501 1.501 0 0 0 72.676 5.28 Q 72.744 5.073 72.776 4.818 A 3.91 3.91 0 0 0 72.804 4.333 Q 72.804 3.746 72.621 3.339 A 1.503 1.503 0 0 0 72.461 3.063 A 1.086 1.086 0 0 0 71.675 2.605 A 1.414 1.414 0 0 0 71.521 2.597 Q 70.861 2.597 70.495 3.121 A 1.623 1.623 0 0 0 70.414 3.252 Z M 75.463 3.252 L 75.463 5.524 Q 75.828 6.174 76.579 6.174 A 1.184 1.184 0 0 0 77.045 6.086 Q 77.302 5.977 77.49 5.735 A 1.403 1.403 0 0 0 77.509 5.711 A 1.501 1.501 0 0 0 77.725 5.28 Q 77.793 5.073 77.825 4.818 A 3.91 3.91 0 0 0 77.854 4.333 Q 77.854 3.746 77.671 3.339 A 1.503 1.503 0 0 0 77.511 3.063 A 1.086 1.086 0 0 0 76.725 2.605 A 1.414 1.414 0 0 0 76.57 2.597 Q 75.91 2.597 75.545 3.121 A 1.623 1.623 0 0 0 75.463 3.252 Z M 17.745 5.454 L 17.745 3.27 A 1.375 1.375 0 0 0 17.433 2.874 Q 17.109 2.597 16.625 2.597 A 1.238 1.238 0 0 0 16.198 2.668 A 1.068 1.068 0 0 0 15.693 3.059 A 1.51 1.51 0 0 0 15.484 3.484 Q 15.418 3.689 15.387 3.939 A 3.955 3.955 0 0 0 15.359 4.425 A 3.162 3.162 0 0 0 15.395 4.918 Q 15.436 5.178 15.524 5.389 A 1.474 1.474 0 0 0 15.693 5.691 A 1.06 1.06 0 0 0 16.455 6.139 A 1.391 1.391 0 0 0 16.616 6.148 Q 17.389 6.148 17.745 5.454 Z M 128.997 5.454 L 128.997 3.27 A 1.375 1.375 0 0 0 128.685 2.874 Q 128.361 2.597 127.876 2.597 A 1.238 1.238 0 0 0 127.45 2.668 A 1.068 1.068 0 0 0 126.945 3.059 A 1.51 1.51 0 0 0 126.736 3.484 Q 126.67 3.689 126.639 3.939 A 3.955 3.955 0 0 0 126.611 4.425 A 3.162 3.162 0 0 0 126.647 4.918 Q 126.688 5.178 126.776 5.389 A 1.474 1.474 0 0 0 126.945 5.691 A 1.06 1.06 0 0 0 127.707 6.139 A 1.391 1.391 0 0 0 127.868 6.148 Q 128.641 6.148 128.997 5.454 Z M 59.458 5.449 L 59.458 3.278 A 1.439 1.439 0 0 0 59.157 2.891 Q 58.853 2.62 58.413 2.599 A 1.578 1.578 0 0 0 58.337 2.597 Q 57.746 2.597 57.412 3.056 A 1.51 1.51 0 0 0 57.201 3.484 Q 57.135 3.689 57.104 3.939 A 3.955 3.955 0 0 0 57.076 4.425 Q 57.076 5.229 57.406 5.689 Q 57.735 6.148 58.329 6.148 A 1.32 1.32 0 0 0 58.838 6.054 Q 59.23 5.891 59.458 5.449 Z M 24.425 3.757 L 23.019 3.757 L 23.019 6.06 L 24.412 6.06 A 1.84 1.84 0 0 0 24.787 6.024 Q 25.027 5.974 25.211 5.854 A 1.064 1.064 0 0 0 25.341 5.755 A 1.003 1.003 0 0 0 25.663 5.154 A 1.459 1.459 0 0 0 25.682 4.913 Q 25.682 4.007 24.909 3.811 A 1.977 1.977 0 0 0 24.425 3.757 Z M 135.677 3.757 L 134.271 3.757 L 134.271 6.06 L 135.664 6.06 A 1.84 1.84 0 0 0 136.039 6.024 Q 136.279 5.974 136.463 5.854 A 1.064 1.064 0 0 0 136.593 5.755 A 1.003 1.003 0 0 0 136.915 5.154 A 1.459 1.459 0 0 0 136.934 4.913 Q 136.934 4.007 136.161 3.811 A 1.977 1.977 0 0 0 135.677 3.757 Z M 173.03 1.639 L 171.136 4.601 L 173.127 4.601 L 173.127 1.463 L 173.03 1.639 Z M 66.05 1.393 L 64.964 4.386 L 67.14 4.386 L 66.05 1.393 Z M 23.019 1.046 L 23.019 3.081 L 24.293 3.081 Q 24.847 3.081 25.178 2.804 A 0.905 0.905 0 0 0 25.506 2.154 A 1.27 1.27 0 0 0 25.51 2.052 Q 25.51 1.696 25.37 1.471 A 0.71 0.71 0 0 0 25.203 1.285 A 0.969 0.969 0 0 0 24.917 1.136 Q 24.654 1.047 24.272 1.046 A 3.261 3.261 0 0 0 24.267 1.046 L 23.019 1.046 Z M 134.271 1.046 L 134.271 3.081 L 135.545 3.081 Q 136.099 3.081 136.43 2.804 A 0.905 0.905 0 0 0 136.758 2.154 A 1.27 1.27 0 0 0 136.762 2.052 Q 136.762 1.696 136.622 1.471 A 0.71 0.71 0 0 0 136.455 1.285 A 0.969 0.969 0 0 0 136.169 1.136 Q 135.906 1.047 135.524 1.046 A 3.261 3.261 0 0 0 135.519 1.046 L 134.271 1.046 Z M 178.783 5.005 A 1.375 1.375 0 0 0 178.723 4.592 A 1.109 1.109 0 0 0 178.442 4.131 A 1.148 1.148 0 0 0 177.771 3.807 A 1.593 1.593 0 0 0 177.552 3.792 A 1.466 1.466 0 0 0 177.164 3.841 A 1.086 1.086 0 0 0 176.671 4.126 A 1.123 1.123 0 0 0 176.358 4.762 A 1.572 1.572 0 0 0 176.339 5.005 A 1.48 1.48 0 0 0 176.381 5.367 A 1.019 1.019 0 0 0 176.662 5.862 Q 176.968 6.158 177.501 6.173 A 2.053 2.053 0 0 0 177.561 6.174 Q 178.055 6.174 178.365 5.94 A 1.018 1.018 0 0 0 178.458 5.86 A 1.041 1.041 0 0 0 178.757 5.292 A 1.518 1.518 0 0 0 178.783 5.005 Z M 177.561 0.932 A 1.259 1.259 0 0 0 177.208 0.979 A 0.973 0.973 0 0 0 176.785 1.228 Q 176.489 1.525 176.489 2.035 A 1.325 1.325 0 0 0 176.533 2.387 A 0.994 0.994 0 0 0 176.781 2.823 A 0.974 0.974 0 0 0 177.343 3.108 A 1.382 1.382 0 0 0 177.561 3.125 A 1.279 1.279 0 0 0 177.906 3.08 A 0.952 0.952 0 0 0 178.341 2.823 A 1.018 1.018 0 0 0 178.616 2.26 A 1.426 1.426 0 0 0 178.633 2.035 A 1.282 1.282 0 0 0 178.583 1.668 A 1.013 1.013 0 0 0 178.33 1.239 Q 178.027 0.932 177.561 0.932 Z M 12.656 5.418 L 12.656 4.443 L 12.019 4.443 Q 10.525 4.443 10.525 5.317 Q 10.525 5.7 10.78 5.915 A 0.893 0.893 0 0 0 11.193 6.108 A 1.259 1.259 0 0 0 11.435 6.13 A 1.429 1.429 0 0 0 12.16 5.933 A 1.335 1.335 0 0 0 12.455 5.705 A 1.108 1.108 0 0 0 12.656 5.418 Z M 30.458 5.418 L 30.458 4.443 L 29.821 4.443 Q 28.327 4.443 28.327 5.317 Q 28.327 5.7 28.582 5.915 A 0.893 0.893 0 0 0 28.996 6.108 A 1.259 1.259 0 0 0 29.237 6.13 A 1.429 1.429 0 0 0 29.962 5.933 A 1.335 1.335 0 0 0 30.257 5.705 A 1.108 1.108 0 0 0 30.458 5.418 Z M 37.538 5.418 L 37.538 4.443 L 36.901 4.443 Q 35.407 4.443 35.407 5.317 Q 35.407 5.7 35.662 5.915 A 0.893 0.893 0 0 0 36.075 6.108 A 1.259 1.259 0 0 0 36.316 6.13 A 1.429 1.429 0 0 0 37.042 5.933 A 1.335 1.335 0 0 0 37.337 5.705 A 1.108 1.108 0 0 0 37.538 5.418 Z M 91.586 5.418 L 91.586 4.443 L 90.949 4.443 Q 89.455 4.443 89.455 5.317 Q 89.455 5.7 89.71 5.915 A 0.893 0.893 0 0 0 90.123 6.108 A 1.259 1.259 0 0 0 90.365 6.13 A 1.429 1.429 0 0 0 91.09 5.933 A 1.335 1.335 0 0 0 91.385 5.705 A 1.108 1.108 0 0 0 91.586 5.418 Z M 123.908 5.418 L 123.908 4.443 L 123.271 4.443 Q 121.777 4.443 121.777 5.317 Q 121.777 5.7 122.032 5.915 A 0.893 0.893 0 0 0 122.445 6.108 A 1.259 1.259 0 0 0 122.687 6.13 A 1.429 1.429 0 0 0 123.412 5.933 A 1.335 1.335 0 0 0 123.707 5.705 A 1.108 1.108 0 0 0 123.908 5.418 Z M 141.71 5.418 L 141.71 4.443 L 141.073 4.443 Q 139.579 4.443 139.579 5.317 Q 139.579 5.7 139.834 5.915 A 0.893 0.893 0 0 0 140.247 6.108 A 1.259 1.259 0 0 0 140.489 6.13 A 1.429 1.429 0 0 0 141.214 5.933 A 1.335 1.335 0 0 0 141.509 5.705 A 1.108 1.108 0 0 0 141.71 5.418 Z M 148.79 5.418 L 148.79 4.443 L 148.153 4.443 Q 146.659 4.443 146.659 5.317 Q 146.659 5.7 146.914 5.915 A 0.893 0.893 0 0 0 147.327 6.108 A 1.259 1.259 0 0 0 147.568 6.13 A 1.429 1.429 0 0 0 148.293 5.933 A 1.335 1.335 0 0 0 148.589 5.705 A 1.108 1.108 0 0 0 148.79 5.418 Z M 191.641 5.418 L 191.641 4.443 L 191.004 4.443 Q 189.51 4.443 189.51 5.317 Q 189.51 5.7 189.765 5.915 A 0.893 0.893 0 0 0 190.178 6.108 A 1.259 1.259 0 0 0 190.419 6.13 A 1.429 1.429 0 0 0 191.145 5.933 A 1.335 1.335 0 0 0 191.44 5.705 A 1.108 1.108 0 0 0 191.641 5.418 Z M 161.187 3.938 L 163.569 3.938 L 163.569 3.876 Q 163.543 3.417 163.372 3.111 A 1.13 1.13 0 0 0 163.235 2.916 A 0.983 0.983 0 0 0 162.58 2.584 A 1.39 1.39 0 0 0 162.426 2.575 A 1.106 1.106 0 0 0 161.904 2.698 A 1.14 1.14 0 0 0 161.6 2.933 A 1.417 1.417 0 0 0 161.323 3.379 Q 161.25 3.563 161.21 3.785 A 2.741 2.741 0 0 0 161.187 3.938 Z M 49.307 0.734 Q 49.307 0.536 49.427 0.4 Q 49.539 0.274 49.751 0.264 A 0.783 0.783 0 0 1 49.786 0.264 Q 50.023 0.264 50.146 0.4 A 0.474 0.474 0 0 1 50.268 0.703 A 0.614 0.614 0 0 1 50.269 0.734 A 0.523 0.523 0 0 1 50.244 0.9 A 0.442 0.442 0 0 1 50.146 1.063 Q 50.033 1.184 49.825 1.194 A 0.803 0.803 0 0 1 49.786 1.195 Q 49.613 1.195 49.502 1.126 A 0.362 0.362 0 0 1 49.427 1.063 A 0.456 0.456 0 0 1 49.309 0.788 A 0.605 0.605 0 0 1 49.307 0.734 Z M 81.888 0.734 Q 81.888 0.536 82.009 0.4 Q 82.12 0.274 82.332 0.264 A 0.783 0.783 0 0 1 82.367 0.264 Q 82.604 0.264 82.727 0.4 A 0.474 0.474 0 0 1 82.849 0.703 A 0.614 0.614 0 0 1 82.85 0.734 A 0.523 0.523 0 0 1 82.825 0.9 A 0.442 0.442 0 0 1 82.727 1.063 Q 82.615 1.184 82.407 1.194 A 0.803 0.803 0 0 1 82.367 1.195 Q 82.194 1.195 82.083 1.126 A 0.362 0.362 0 0 1 82.009 1.063 A 0.456 0.456 0 0 1 81.89 0.788 A 0.605 0.605 0 0 1 81.888 0.734 Z M 96.618 0.734 Q 96.618 0.536 96.739 0.4 Q 96.851 0.274 97.063 0.264 A 0.783 0.783 0 0 1 97.097 0.264 Q 97.334 0.264 97.458 0.4 A 0.474 0.474 0 0 1 97.58 0.703 A 0.614 0.614 0 0 1 97.581 0.734 A 0.523 0.523 0 0 1 97.555 0.9 A 0.442 0.442 0 0 1 97.458 1.063 Q 97.345 1.184 97.137 1.194 A 0.803 0.803 0 0 1 97.097 1.195 Q 96.925 1.195 96.814 1.126 A 0.362 0.362 0 0 1 96.739 1.063 A 0.456 0.456 0 0 1 96.621 0.788 A 0.605 0.605 0 0 1 96.618 0.734 Z" vector-effect="non-scaling-stroke"/></g>
</svg>