<?xml version="1.0" encoding="UTF-8"?>
<svg width="48px" height="48px" viewBox="0 0 48 48" version="1.1" xmlns="http://www.w3.org/2000/svg" xmlns:xlink="http://www.w3.org/1999/xlink">
    <title>Icon-Resource/Networking-and-Content-Delivery/Res_Icon-Amazon-VPC-Global-WAN_Virtual-PoP_48_Dark</title>
    <g id="Icon-Resource/Networking-and-Content-Delivery/Res_Icon-Amazon-VPC-Global-WAN_Virtual-PoP_48" stroke="none" stroke-width="1" fill="none" fill-rule="evenodd">
        <path transform="translate(0vw, 0vh), scale(.65)" d="M42,26 C40.897,26 40,25.103 40,24 C40,22.897 40.897,22 42,22 C43.103,22 44,22.897 44,24 C44,25.103 43.103,26 42,26 M25,36.949 L25,30.92 C28.059,30.479 30.479,28.059 30.92,25 L36.949,25 C36.461,31.37 31.37,36.461 25,36.949 M24,44 C22.897,44 22,43.103 22,42 C22,40.897 22.897,40 24,40 C25.103,40 26,40.897 26,42 C26,43.103 25.103,44 24,44 M11.051,25 L17.08,25 C17.521,28.059 19.941,30.479 23,30.92 L23,36.949 C16.63,36.461 11.539,31.37 11.051,25 M23,11.051 L23,17.08 C19.941,17.521 17.521,19.941 17.08,23 L11.051,23 C11.539,16.63 16.63,11.539 23,11.051 M24,4 C25.103,4 26,4.897 26,6 C26,7.103 25.103,8 24,8 C22.897,8 22,7.103 22,6 C22,4.897 22.897,4 24,4 M24,29 C21.243,29 19,26.757 19,24 C19,21.243 21.243,19 24,19 C26.757,19 29,21.243 29,24 C29,26.757 26.757,29 24,29 M36.949,23 L30.92,23 C30.479,19.941 28.059,17.521 25,17.08 L25,11.051 C31.37,11.539 36.461,16.63 36.949,23 M6,26 C4.897,26 4,25.103 4,24 C4,22.897 4.897,22 6,22 C7.103,22 8,22.897 8,24 C8,25.103 7.103,26 6,26 M42,20 C40.683,20 39.524,20.647 38.794,21.631 C37.777,15.258 32.742,10.223 26.369,9.206 C27.353,8.476 28,7.316 28,6 C28,3.794 26.206,2 24,2 C21.794,2 20,3.794 20,6 C20,7.316 20.647,8.476 21.631,9.206 C15.258,10.223 10.223,15.258 9.206,21.631 C8.476,20.647 7.317,20 6,20 C3.794,20 2,21.794 2,24 C2,26.206 3.794,28 6,28 C7.317,28 8.476,27.353 9.206,26.369 C10.223,32.742 15.258,37.777 21.631,38.794 C20.647,39.524 20,40.684 20,42 C20,44.206 21.794,46 24,46 C26.206,46 28,44.206 28,42 C28,40.684 27.353,39.524 26.369,38.794 C32.742,37.777 37.777,32.742 38.794,26.369 C39.524,27.353 40.683,28 42,28 C44.206,28 46,26.206 46,24 C46,21.794 44.206,20 42,20" id="Fill-1" fill="#000000"></path>
    </g><g id="svgGroup" stroke-linecap="round" fill-rule="evenodd" font-size="9pt" stroke="#000" stroke-width="0.25mm" fill="#000" style="stroke:#000;stroke-width:0.25mm;fill:#000"><path d="M 23.12 0.088 L 24.13 4.469 L 24.253 5.313 L 24.434 4.553 L 25.699 0.088 L 26.411 0.088 L 27.646 4.553 L 27.822 5.326 L 27.958 4.465 L 28.951 0.088 L 29.799 0.088 L 28.248 6.486 L 27.479 6.486 L 26.161 1.824 L 26.06 1.336 L 25.958 1.824 L 24.592 6.486 L 23.823 6.486 L 22.276 0.088 L 23.12 0.088 Z M 34.98 1.938 L 34.132 1.938 A 1.466 1.466 0 0 0 34.083 1.546 A 1.066 1.066 0 0 0 33.763 1.026 A 1.211 1.211 0 0 0 33.294 0.77 Q 33.042 0.694 32.722 0.694 A 2.286 2.286 0 0 0 32.342 0.724 Q 32.14 0.758 31.977 0.831 A 1.101 1.101 0 0 0 31.748 0.969 A 0.892 0.892 0 0 0 31.403 1.624 A 1.267 1.267 0 0 0 31.399 1.732 A 0.806 0.806 0 0 0 31.667 2.337 A 1.134 1.134 0 0 0 31.731 2.393 A 1.562 1.562 0 0 0 31.969 2.549 Q 32.299 2.73 32.86 2.887 A 8.228 8.228 0 0 1 33.325 3.032 Q 33.56 3.113 33.754 3.2 A 3.297 3.297 0 0 1 34.108 3.382 A 2.342 2.342 0 0 1 34.447 3.626 Q 34.637 3.792 34.759 3.985 A 1.45 1.45 0 0 1 34.776 4.012 A 1.498 1.498 0 0 1 34.972 4.568 A 1.948 1.948 0 0 1 34.994 4.86 A 1.606 1.606 0 0 1 34.871 5.497 Q 34.726 5.838 34.408 6.09 A 1.886 1.886 0 0 1 34.387 6.106 Q 33.781 6.574 32.766 6.574 A 3.023 3.023 0 0 1 31.625 6.36 A 2.917 2.917 0 0 1 31.535 6.322 A 2.383 2.383 0 0 1 31.057 6.044 A 1.874 1.874 0 0 1 30.654 5.629 A 1.689 1.689 0 0 1 30.344 4.632 L 31.192 4.632 A 1.261 1.261 0 0 0 31.262 5.059 A 1.074 1.074 0 0 0 31.621 5.548 Q 32.005 5.85 32.622 5.881 A 2.87 2.87 0 0 0 32.766 5.884 A 2.628 2.628 0 0 0 33.153 5.858 Q 33.349 5.828 33.508 5.767 A 1.129 1.129 0 0 0 33.79 5.612 Q 34.146 5.339 34.146 4.869 A 1.074 1.074 0 0 0 34.103 4.559 A 0.816 0.816 0 0 0 33.816 4.142 Q 33.486 3.885 32.621 3.634 Q 31.535 3.322 31.041 2.868 Q 30.546 2.413 30.546 1.745 Q 30.546 0.989 31.151 0.494 A 2.121 2.121 0 0 1 32.041 0.071 A 3.087 3.087 0 0 1 32.722 0 A 2.913 2.913 0 0 1 33.382 0.072 A 2.372 2.372 0 0 1 33.897 0.255 A 2.051 2.051 0 0 1 34.428 0.626 A 1.834 1.834 0 0 1 34.697 0.958 A 1.798 1.798 0 0 1 34.98 1.938 Z M 3.74 6.486 L 2.351 3.898 L 0.848 3.898 L 0.848 6.486 L 0 6.486 L 0 0.088 L 2.118 0.088 A 3.809 3.809 0 0 1 2.76 0.138 Q 3.102 0.197 3.376 0.324 A 1.789 1.789 0 0 1 3.781 0.58 A 1.588 1.588 0 0 1 4.307 1.469 A 2.453 2.453 0 0 1 4.364 2.013 A 1.864 1.864 0 0 1 4.273 2.604 A 1.64 1.64 0 0 1 4.041 3.054 A 1.849 1.849 0 0 1 3.382 3.611 A 2.342 2.342 0 0 1 3.142 3.718 L 4.645 6.434 L 4.645 6.486 L 3.74 6.486 Z M 13.724 3.129 L 12.907 3.129 Q 12.907 2.795 12.623 2.553 Q 12.34 2.312 11.909 2.312 Q 11.465 2.312 11.215 2.505 A 0.653 0.653 0 0 0 11.04 2.704 Q 10.967 2.835 10.964 3 A 0.771 0.771 0 0 0 10.964 3.01 A 0.588 0.588 0 0 0 10.994 3.203 A 0.48 0.48 0 0 0 11.197 3.454 A 1.093 1.093 0 0 0 11.348 3.533 Q 11.512 3.605 11.767 3.673 A 6.581 6.581 0 0 0 12.039 3.74 A 6.318 6.318 0 0 1 12.446 3.845 Q 12.783 3.944 13.025 4.065 A 1.901 1.901 0 0 1 13.281 4.218 Q 13.418 4.315 13.516 4.429 A 1.06 1.06 0 0 1 13.586 4.52 A 1.024 1.024 0 0 1 13.748 4.927 A 1.388 1.388 0 0 1 13.768 5.168 Q 13.768 5.805 13.258 6.19 Q 12.776 6.554 12.022 6.573 A 3.337 3.337 0 0 1 11.936 6.574 A 2.746 2.746 0 0 1 11.401 6.525 A 2.124 2.124 0 0 1 10.925 6.372 A 1.771 1.771 0 0 1 10.491 6.094 A 1.54 1.54 0 0 1 10.237 5.807 Q 9.989 5.445 9.989 5.023 L 10.802 5.023 A 0.932 0.932 0 0 0 10.875 5.348 A 0.827 0.827 0 0 0 11.129 5.671 A 1.072 1.072 0 0 0 11.531 5.864 Q 11.686 5.903 11.867 5.91 A 2.013 2.013 0 0 0 11.936 5.911 A 1.863 1.863 0 0 0 12.231 5.889 Q 12.393 5.863 12.524 5.806 A 0.941 0.941 0 0 0 12.676 5.724 A 0.689 0.689 0 0 0 12.841 5.574 A 0.554 0.554 0 0 0 12.955 5.225 A 0.698 0.698 0 0 0 12.919 4.994 A 0.581 0.581 0 0 0 12.707 4.713 A 1.05 1.05 0 0 0 12.538 4.615 Q 12.349 4.524 12.054 4.449 A 5.392 5.392 0 0 0 11.841 4.399 A 6.342 6.342 0 0 1 11.48 4.311 Q 11.11 4.209 10.861 4.083 Q 10.562 3.93 10.392 3.731 A 1.017 1.017 0 0 1 10.325 3.643 Q 10.151 3.388 10.151 3.037 A 1.206 1.206 0 0 1 10.55 2.132 A 1.694 1.694 0 0 1 10.646 2.048 A 1.752 1.752 0 0 1 11.429 1.688 A 2.471 2.471 0 0 1 11.909 1.644 A 2.559 2.559 0 0 1 12.473 1.702 A 1.757 1.757 0 0 1 13.221 2.061 Q 13.724 2.479 13.724 3.129 Z M 21.327 6.486 L 20.716 4.816 L 18.035 4.816 L 17.433 6.486 L 16.563 6.486 L 19.006 0.088 L 19.745 0.088 L 22.192 6.486 L 21.327 6.486 Z M 5.212 4.241 L 5.212 4.091 A 3.17 3.17 0 0 1 5.288 3.382 A 2.581 2.581 0 0 1 5.482 2.828 A 2.191 2.191 0 0 1 5.93 2.202 A 2.033 2.033 0 0 1 6.238 1.958 Q 6.724 1.644 7.291 1.644 A 2.254 2.254 0 0 1 7.904 1.723 A 1.639 1.639 0 0 1 8.732 2.254 Q 9.246 2.865 9.246 4.003 L 9.246 4.342 L 6.025 4.342 A 2.111 2.111 0 0 0 6.096 4.85 A 1.516 1.516 0 0 0 6.436 5.478 A 1.282 1.282 0 0 0 7.37 5.909 A 1.652 1.652 0 0 0 7.436 5.911 A 1.763 1.763 0 0 0 7.764 5.882 Q 7.988 5.839 8.165 5.735 A 1.827 1.827 0 0 0 8.674 5.287 A 2.068 2.068 0 0 0 8.688 5.269 L 9.185 5.656 A 1.926 1.926 0 0 1 7.785 6.547 A 2.749 2.749 0 0 1 7.392 6.574 A 2.394 2.394 0 0 1 6.64 6.461 A 1.974 1.974 0 0 1 5.818 5.939 Q 5.212 5.304 5.212 4.241 Z M 0.848 0.782 L 0.848 3.208 L 2.145 3.208 Q 2.685 3.208 3.035 2.968 A 1.174 1.174 0 0 0 3.144 2.883 A 1.069 1.069 0 0 0 3.51 2.146 A 1.486 1.486 0 0 0 3.516 2.013 Q 3.516 1.47 3.22 1.159 A 1 1 0 0 0 3.162 1.103 Q 2.808 0.787 2.14 0.782 L 0.848 0.782 Z M 19.375 1.129 L 18.29 4.122 L 20.465 4.122 L 19.375 1.129 Z M 6.051 3.674 L 8.433 3.674 L 8.433 3.612 Q 8.407 3.153 8.236 2.848 A 1.13 1.13 0 0 0 8.099 2.652 A 0.983 0.983 0 0 0 7.445 2.32 A 1.39 1.39 0 0 0 7.291 2.312 A 1.106 1.106 0 0 0 6.768 2.435 A 1.14 1.14 0 0 0 6.464 2.67 A 1.417 1.417 0 0 0 6.188 3.116 Q 6.114 3.3 6.074 3.522 A 2.741 2.741 0 0 0 6.051 3.674 Z" vector-effect="non-scaling-stroke"/></g><g transform="translate(22.502935891882686, 64), scale(0.75)" id="svgGroup" stroke-linecap="round" fill-rule="evenodd" font-size="9pt" stroke="#000" stroke-width="0.25mm" fill="#000" style="stroke:#000;stroke-width:0.25mm;fill:#000"><path d="M 26.029 0.352 L 27.04 4.733 L 27.163 5.577 L 27.343 4.816 L 28.608 0.352 L 29.32 0.352 L 30.555 4.816 L 30.731 5.59 L 30.867 4.729 L 31.86 0.352 L 32.709 0.352 L 31.157 6.75 L 30.388 6.75 L 29.07 2.087 L 28.969 1.6 L 28.868 2.087 L 27.501 6.75 L 26.732 6.75 L 25.185 0.352 L 26.029 0.352 Z M 44.244 0.352 L 44.244 6.75 L 43.396 6.75 L 40.175 1.819 L 40.175 6.75 L 39.327 6.75 L 39.327 0.352 L 40.175 0.352 L 43.405 5.304 L 43.405 0.352 L 44.244 0.352 Z M 4.078 4.72 L 4.926 4.72 A 3.016 3.016 0 0 1 4.765 5.416 A 2.099 2.099 0 0 1 4.177 6.286 Q 3.546 6.838 2.501 6.838 A 2.553 2.553 0 0 1 1.631 6.696 A 2.194 2.194 0 0 1 0.683 6.025 A 2.789 2.789 0 0 1 0.122 4.901 Q 0.015 4.484 0.002 3.992 A 5.262 5.262 0 0 1 0 3.85 L 0 3.234 A 4.251 4.251 0 0 1 0.07 2.445 A 3.229 3.229 0 0 1 0.319 1.666 A 2.539 2.539 0 0 1 0.774 0.99 A 2.26 2.26 0 0 1 1.222 0.626 A 2.415 2.415 0 0 1 2.248 0.281 A 3.027 3.027 0 0 1 2.575 0.264 A 2.962 2.962 0 0 1 3.281 0.343 A 2.065 2.065 0 0 1 4.21 0.833 A 2.16 2.16 0 0 1 4.805 1.795 A 3.086 3.086 0 0 1 4.926 2.408 L 4.078 2.408 Q 4.009 1.929 3.84 1.616 A 1.223 1.223 0 0 0 3.601 1.301 A 1.207 1.207 0 0 0 3.096 1.024 Q 2.909 0.971 2.686 0.961 A 2.396 2.396 0 0 0 2.575 0.958 A 1.753 1.753 0 0 0 1.997 1.049 A 1.463 1.463 0 0 0 1.307 1.556 A 1.989 1.989 0 0 0 0.993 2.175 Q 0.848 2.636 0.848 3.256 L 0.848 3.876 Q 0.848 4.917 1.283 5.533 A 1.38 1.38 0 0 0 2.282 6.135 A 1.814 1.814 0 0 0 2.501 6.148 A 2.497 2.497 0 0 0 2.908 6.117 Q 3.127 6.08 3.303 6.002 A 1.155 1.155 0 0 0 3.579 5.829 Q 3.955 5.511 4.078 4.72 Z M 123.829 6.75 L 122.172 4.548 L 121.663 5.08 L 121.663 6.75 L 120.85 6.75 L 120.85 0 L 121.663 0 L 121.663 4.083 L 122.098 3.56 L 123.579 1.995 L 124.567 1.995 L 122.717 3.981 L 124.783 6.75 L 123.829 6.75 Z M 48.27 0.352 L 50.089 5.629 L 51.917 0.352 L 52.84 0.352 L 50.467 6.75 L 49.72 6.75 L 47.351 0.352 L 48.27 0.352 Z M 16.22 6.75 L 16.203 6.28 A 1.526 1.526 0 0 1 15.377 6.775 Q 15.126 6.836 14.829 6.838 A 2.996 2.996 0 0 1 14.81 6.838 A 2.086 2.086 0 0 1 14.35 6.79 Q 13.919 6.693 13.652 6.396 A 1.41 1.41 0 0 1 13.369 5.899 Q 13.252 5.556 13.25 5.089 L 13.25 1.995 L 14.063 1.995 L 14.063 5.067 Q 14.063 6.037 14.77 6.137 A 1.229 1.229 0 0 0 14.941 6.148 A 1.927 1.927 0 0 0 15.392 6.099 Q 15.955 5.964 16.181 5.454 L 16.181 1.995 L 16.994 1.995 L 16.994 6.75 L 16.22 6.75 Z M 64.692 6.75 L 64.674 6.28 A 1.526 1.526 0 0 1 63.848 6.775 Q 63.598 6.836 63.301 6.838 A 2.996 2.996 0 0 1 63.281 6.838 A 2.086 2.086 0 0 1 62.821 6.79 Q 62.391 6.693 62.123 6.396 A 1.41 1.41 0 0 1 61.84 5.899 Q 61.724 5.556 61.721 5.089 L 61.721 1.995 L 62.534 1.995 L 62.534 5.067 Q 62.534 6.037 63.242 6.137 A 1.229 1.229 0 0 0 63.413 6.148 A 1.927 1.927 0 0 0 63.864 6.099 Q 64.426 5.964 64.652 5.454 L 64.652 1.995 L 65.465 1.995 L 65.465 6.75 L 64.692 6.75 Z M 37.6 6.75 L 36.989 5.08 L 34.308 5.08 L 33.706 6.75 L 32.836 6.75 L 35.279 0.352 L 36.018 0.352 L 38.465 6.75 L 37.6 6.75 Z M 70.488 6.75 L 69.636 6.75 A 0.632 0.632 0 0 1 69.6 6.66 Q 69.569 6.562 69.544 6.41 A 3.997 3.997 0 0 1 69.522 6.249 Q 68.955 6.838 68.168 6.838 A 2.033 2.033 0 0 1 67.639 6.772 A 1.529 1.529 0 0 1 67.014 6.44 Q 66.564 6.042 66.564 5.432 Q 66.564 4.689 67.129 4.278 Q 67.693 3.867 68.717 3.867 L 69.508 3.867 L 69.508 3.494 A 1.152 1.152 0 0 0 69.473 3.199 A 0.828 0.828 0 0 0 69.253 2.815 Q 69.037 2.6 68.647 2.568 A 1.748 1.748 0 0 0 68.502 2.562 Q 68.067 2.562 67.773 2.782 Q 67.478 3.001 67.478 3.313 L 66.661 3.313 A 1.041 1.041 0 0 1 66.786 2.825 A 1.409 1.409 0 0 1 66.913 2.626 Q 67.166 2.294 67.599 2.101 A 2.249 2.249 0 0 1 68.375 1.913 A 2.669 2.669 0 0 1 68.55 1.907 A 2.65 2.65 0 0 1 69.068 1.955 Q 69.375 2.016 69.614 2.156 A 1.439 1.439 0 0 1 69.838 2.318 A 1.396 1.396 0 0 1 70.291 3.144 A 1.998 1.998 0 0 1 70.321 3.45 L 70.321 5.638 Q 70.321 6.073 70.395 6.39 A 1.707 1.707 0 0 0 70.488 6.68 L 70.488 6.75 Z M 116.692 6.75 L 115.84 6.75 A 0.632 0.632 0 0 1 115.804 6.66 Q 115.773 6.562 115.748 6.41 A 3.997 3.997 0 0 1 115.726 6.249 Q 115.159 6.838 114.372 6.838 A 2.033 2.033 0 0 1 113.843 6.772 A 1.529 1.529 0 0 1 113.219 6.44 Q 112.768 6.042 112.768 5.432 Q 112.768 4.689 113.333 4.278 Q 113.898 3.867 114.921 3.867 L 115.712 3.867 L 115.712 3.494 A 1.152 1.152 0 0 0 115.677 3.199 A 0.828 0.828 0 0 0 115.458 2.815 Q 115.241 2.6 114.851 2.568 A 1.748 1.748 0 0 0 114.706 2.562 Q 114.271 2.562 113.977 2.782 Q 113.682 3.001 113.682 3.313 L 112.865 3.313 A 1.041 1.041 0 0 1 112.99 2.825 A 1.409 1.409 0 0 1 113.117 2.626 Q 113.37 2.294 113.803 2.101 A 2.249 2.249 0 0 1 114.579 1.913 A 2.669 2.669 0 0 1 114.754 1.907 A 2.65 2.65 0 0 1 115.272 1.955 Q 115.579 2.016 115.818 2.156 A 1.439 1.439 0 0 1 116.042 2.318 A 1.396 1.396 0 0 1 116.495 3.144 A 1.998 1.998 0 0 1 116.525 3.45 L 116.525 5.638 Q 116.525 6.073 116.599 6.39 A 1.707 1.707 0 0 0 116.692 6.68 L 116.692 6.75 Z M 18.031 4.395 L 18.031 4.333 A 3.762 3.762 0 0 1 18.098 3.602 Q 18.185 3.16 18.388 2.812 A 2.148 2.148 0 0 1 18.549 2.573 Q 19.068 1.907 19.907 1.907 A 1.964 1.964 0 0 1 20.505 1.994 A 1.559 1.559 0 0 1 21.23 2.479 L 21.23 0 L 22.043 0 L 22.043 6.75 L 21.296 6.75 L 21.256 6.24 Q 20.769 6.838 19.898 6.838 A 1.6 1.6 0 0 1 18.678 6.31 A 2.078 2.078 0 0 1 18.552 6.161 A 2.405 2.405 0 0 1 18.127 5.255 Q 18.043 4.912 18.032 4.51 A 4.425 4.425 0 0 1 18.031 4.395 Z M 78.486 4.245 L 76.979 4.245 L 76.979 6.75 L 76.135 6.75 L 76.135 0.352 L 78.495 0.352 A 3.315 3.315 0 0 1 79.16 0.414 Q 79.563 0.497 79.873 0.688 A 1.839 1.839 0 0 1 80.141 0.888 A 1.772 1.772 0 0 1 80.728 2.105 A 2.45 2.45 0 0 1 80.736 2.307 Q 80.736 3.239 80.154 3.742 Q 79.675 4.156 78.856 4.229 A 4.14 4.14 0 0 1 78.486 4.245 Z M 89.24 4.245 L 87.732 4.245 L 87.732 6.75 L 86.889 6.75 L 86.889 0.352 L 89.249 0.352 A 3.315 3.315 0 0 1 89.913 0.414 Q 90.316 0.497 90.627 0.688 A 1.839 1.839 0 0 1 90.894 0.888 A 1.772 1.772 0 0 1 91.482 2.105 A 2.45 2.45 0 0 1 91.49 2.307 Q 91.49 3.239 90.908 3.742 Q 90.429 4.156 89.609 4.229 A 4.14 4.14 0 0 1 89.24 4.245 Z M 98.016 0.352 L 98.016 4.601 L 98.903 4.601 L 98.903 5.265 L 98.016 5.265 L 98.016 6.75 L 97.198 6.75 L 97.198 5.265 L 94.285 5.265 L 94.285 4.786 L 97.15 0.352 L 98.016 0.352 Z M 108.901 6.75 L 107.13 6.75 L 107.13 0.352 L 108.936 0.352 Q 109.771 0.352 110.413 0.721 Q 111.054 1.09 111.404 1.771 A 3.19 3.19 0 0 1 111.72 2.8 A 4.073 4.073 0 0 1 111.757 3.335 L 111.757 3.744 Q 111.757 4.649 111.408 5.331 A 2.457 2.457 0 0 1 110.41 6.376 Q 109.762 6.741 108.901 6.75 Z M 103.414 2.592 A 1.544 1.544 0 0 0 103.518 2.021 A 2.226 2.226 0 0 0 103.496 1.707 A 1.566 1.566 0 0 0 102.997 0.738 A 1.754 1.754 0 0 0 102.231 0.333 A 2.443 2.443 0 0 0 101.632 0.264 A 2.539 2.539 0 0 0 101.123 0.312 A 1.767 1.767 0 0 0 100.266 0.738 Q 99.747 1.213 99.747 2.021 A 1.808 1.808 0 0 0 99.747 2.058 A 1.499 1.499 0 0 0 99.993 2.87 A 1.626 1.626 0 0 0 100.155 3.077 A 1.726 1.726 0 0 0 100.666 3.454 A 2.119 2.119 0 0 0 100.566 3.5 A 1.738 1.738 0 0 0 99.881 4.087 A 1.629 1.629 0 0 0 99.598 5.023 A 2.272 2.272 0 0 0 99.608 5.237 A 1.63 1.63 0 0 0 100.154 6.344 A 1.895 1.895 0 0 0 101.004 6.771 A 2.797 2.797 0 0 0 101.632 6.838 A 2.796 2.796 0 0 0 102.231 6.777 A 1.925 1.925 0 0 0 103.107 6.346 A 1.578 1.578 0 0 0 103.582 5.62 A 1.989 1.989 0 0 0 103.667 5.023 A 1.581 1.581 0 0 0 103.375 4.087 Q 103.083 3.674 102.582 3.458 Q 103.012 3.248 103.265 2.874 A 1.449 1.449 0 0 0 103.414 2.592 Z M 59.089 0.844 L 59.902 0.844 L 59.902 1.995 L 60.79 1.995 L 60.79 2.624 L 59.902 2.624 L 59.902 5.572 Q 59.902 5.858 60.021 6.001 Q 60.139 6.144 60.425 6.144 A 1.046 1.046 0 0 0 60.522 6.138 Q 60.625 6.129 60.765 6.101 A 4.024 4.024 0 0 0 60.812 6.091 L 60.812 6.75 A 2.463 2.463 0 0 1 60.379 6.829 A 2.157 2.157 0 0 1 60.188 6.838 Q 59.74 6.838 59.474 6.616 A 0.856 0.856 0 0 1 59.366 6.508 Q 59.138 6.238 59.098 5.78 A 2.351 2.351 0 0 1 59.089 5.572 L 59.089 2.624 L 58.223 2.624 L 58.223 1.995 L 59.089 1.995 L 59.089 0.844 Z M 6.834 0 L 6.834 6.75 L 6.021 6.75 L 6.021 0 L 6.834 0 Z M 72.479 0 L 72.479 6.75 L 71.666 6.75 L 71.666 0 L 72.479 0 Z M 7.919 4.386 L 7.919 4.329 A 3.057 3.057 0 0 1 8.006 3.587 A 2.573 2.573 0 0 1 8.194 3.072 A 2.16 2.16 0 0 1 8.608 2.486 A 1.957 1.957 0 0 1 8.958 2.21 A 2.036 2.036 0 0 1 9.903 1.913 A 2.491 2.491 0 0 1 10.077 1.907 A 2.277 2.277 0 0 1 10.83 2.027 A 1.937 1.937 0 0 1 11.648 2.58 A 2.29 2.29 0 0 1 12.167 3.608 A 3.373 3.373 0 0 1 12.248 4.368 L 12.248 4.425 A 3.114 3.114 0 0 1 12.168 5.142 A 2.577 2.577 0 0 1 11.982 5.671 A 2.056 2.056 0 0 1 11.454 6.361 A 2.001 2.001 0 0 1 11.221 6.53 A 2.045 2.045 0 0 1 10.302 6.829 A 2.529 2.529 0 0 1 10.085 6.838 A 2.262 2.262 0 0 1 9.335 6.718 A 1.938 1.938 0 0 1 8.519 6.166 A 2.297 2.297 0 0 1 7.993 5.111 A 3.357 3.357 0 0 1 7.919 4.386 Z M 81.413 4.386 L 81.413 4.329 A 3.057 3.057 0 0 1 81.5 3.587 A 2.573 2.573 0 0 1 81.688 3.072 A 2.16 2.16 0 0 1 82.102 2.486 A 1.957 1.957 0 0 1 82.452 2.21 A 2.036 2.036 0 0 1 83.397 1.913 A 2.491 2.491 0 0 1 83.571 1.907 A 2.277 2.277 0 0 1 84.324 2.027 A 1.937 1.937 0 0 1 85.142 2.58 A 2.29 2.29 0 0 1 85.661 3.608 A 3.373 3.373 0 0 1 85.742 4.368 L 85.742 4.425 A 3.114 3.114 0 0 1 85.662 5.142 A 2.577 2.577 0 0 1 85.476 5.671 A 2.056 2.056 0 0 1 84.949 6.361 A 2.001 2.001 0 0 1 84.716 6.53 A 2.045 2.045 0 0 1 83.796 6.829 A 2.529 2.529 0 0 1 83.58 6.838 A 2.262 2.262 0 0 1 82.829 6.718 A 1.938 1.938 0 0 1 82.013 6.166 A 2.297 2.297 0 0 1 81.487 5.111 A 3.357 3.357 0 0 1 81.413 4.386 Z M 58.052 1.969 L 58.052 2.725 A 2.251 2.251 0 0 0 57.809 2.698 A 2.782 2.782 0 0 0 57.652 2.694 Q 56.874 2.694 56.583 3.338 A 1.445 1.445 0 0 0 56.566 3.375 L 56.566 6.75 L 55.753 6.75 L 55.753 1.995 L 56.544 1.995 L 56.558 2.544 Q 56.938 1.938 57.621 1.909 A 1.636 1.636 0 0 1 57.691 1.907 Q 57.929 1.907 58.052 1.969 Z M 120.098 1.969 L 120.098 2.725 A 2.251 2.251 0 0 0 119.855 2.698 A 2.782 2.782 0 0 0 119.698 2.694 Q 118.92 2.694 118.629 3.338 A 1.445 1.445 0 0 0 118.613 3.375 L 118.613 6.75 L 117.8 6.75 L 117.8 1.995 L 118.591 1.995 L 118.604 2.544 Q 118.984 1.938 119.667 1.909 A 1.636 1.636 0 0 1 119.738 1.907 Q 119.975 1.907 120.098 1.969 Z M 108.958 1.046 L 107.974 1.046 L 107.974 6.06 L 108.861 6.06 A 2.519 2.519 0 0 0 109.494 5.985 A 1.747 1.747 0 0 0 110.38 5.454 Q 110.839 4.94 110.91 4.059 A 4.165 4.165 0 0 0 110.922 3.727 L 110.922 3.353 Q 110.922 2.562 110.653 2.027 A 1.864 1.864 0 0 0 110.41 1.659 A 1.687 1.687 0 0 0 109.414 1.09 A 2.499 2.499 0 0 0 108.958 1.046 Z M 54.453 1.995 L 54.453 6.75 L 53.64 6.75 L 53.64 1.995 L 54.453 1.995 Z M 8.736 4.425 A 2.772 2.772 0 0 0 8.784 4.954 Q 8.844 5.264 8.981 5.51 A 1.545 1.545 0 0 0 9.103 5.695 Q 9.47 6.174 10.085 6.174 A 1.269 1.269 0 0 0 10.575 6.083 Q 10.854 5.967 11.057 5.706 A 1.471 1.471 0 0 0 11.07 5.689 A 1.648 1.648 0 0 0 11.325 5.171 Q 11.393 4.945 11.419 4.672 A 3.655 3.655 0 0 0 11.435 4.329 A 2.687 2.687 0 0 0 11.383 3.789 Q 11.316 3.459 11.158 3.2 A 1.586 1.586 0 0 0 11.063 3.061 A 1.231 1.231 0 0 0 10.648 2.705 Q 10.395 2.575 10.077 2.575 Q 9.487 2.575 9.121 3.035 A 1.515 1.515 0 0 0 9.106 3.054 A 1.589 1.589 0 0 0 8.853 3.552 Q 8.784 3.772 8.756 4.039 A 3.676 3.676 0 0 0 8.736 4.425 Z M 82.231 4.425 A 2.772 2.772 0 0 0 82.278 4.954 Q 82.338 5.264 82.476 5.51 A 1.545 1.545 0 0 0 82.597 5.695 Q 82.964 6.174 83.58 6.174 A 1.269 1.269 0 0 0 84.069 6.083 Q 84.348 5.967 84.551 5.706 A 1.471 1.471 0 0 0 84.564 5.689 A 1.648 1.648 0 0 0 84.819 5.171 Q 84.888 4.945 84.913 4.672 A 3.655 3.655 0 0 0 84.929 4.329 A 2.687 2.687 0 0 0 84.878 3.789 Q 84.81 3.459 84.653 3.2 A 1.586 1.586 0 0 0 84.557 3.061 A 1.231 1.231 0 0 0 84.142 2.705 Q 83.889 2.575 83.571 2.575 Q 82.981 2.575 82.615 3.035 A 1.515 1.515 0 0 0 82.6 3.054 A 1.589 1.589 0 0 0 82.348 3.552 Q 82.278 3.772 82.25 4.039 A 3.676 3.676 0 0 0 82.231 4.425 Z M 21.23 5.454 L 21.23 3.27 A 1.375 1.375 0 0 0 20.918 2.874 Q 20.594 2.597 20.109 2.597 A 1.238 1.238 0 0 0 19.683 2.668 A 1.068 1.068 0 0 0 19.178 3.059 A 1.51 1.51 0 0 0 18.969 3.484 Q 18.903 3.689 18.872 3.939 A 3.955 3.955 0 0 0 18.844 4.425 A 3.162 3.162 0 0 0 18.88 4.918 Q 18.921 5.178 19.009 5.389 A 1.474 1.474 0 0 0 19.178 5.691 A 1.06 1.06 0 0 0 19.94 6.139 A 1.391 1.391 0 0 0 20.101 6.148 Q 20.874 6.148 21.23 5.454 Z M 76.979 1.046 L 76.979 3.555 L 78.495 3.555 A 2.313 2.313 0 0 0 78.887 3.524 Q 79.105 3.487 79.277 3.404 A 1.097 1.097 0 0 0 79.532 3.237 A 1.028 1.028 0 0 0 79.85 2.696 Q 79.891 2.528 79.893 2.329 A 1.996 1.996 0 0 0 79.893 2.316 A 1.466 1.466 0 0 0 79.839 1.908 A 1.112 1.112 0 0 0 79.532 1.402 Q 79.172 1.059 78.544 1.046 L 76.979 1.046 Z M 87.732 1.046 L 87.732 3.555 L 89.249 3.555 A 2.313 2.313 0 0 0 89.641 3.524 Q 89.858 3.487 90.03 3.404 A 1.097 1.097 0 0 0 90.286 3.237 A 1.028 1.028 0 0 0 90.603 2.696 Q 90.645 2.528 90.646 2.329 A 1.996 1.996 0 0 0 90.646 2.316 A 1.466 1.466 0 0 0 90.592 1.908 A 1.112 1.112 0 0 0 90.286 1.402 Q 89.925 1.059 89.297 1.046 L 87.732 1.046 Z M 97.102 1.639 L 95.208 4.601 L 97.198 4.601 L 97.198 1.463 L 97.102 1.639 Z M 35.648 1.393 L 34.563 4.386 L 36.738 4.386 L 35.648 1.393 Z M 102.854 5.005 A 1.375 1.375 0 0 0 102.795 4.592 A 1.109 1.109 0 0 0 102.513 4.131 A 1.148 1.148 0 0 0 101.842 3.807 A 1.593 1.593 0 0 0 101.624 3.792 A 1.466 1.466 0 0 0 101.235 3.841 A 1.086 1.086 0 0 0 100.742 4.126 A 1.123 1.123 0 0 0 100.429 4.762 A 1.572 1.572 0 0 0 100.411 5.005 A 1.48 1.48 0 0 0 100.452 5.367 A 1.019 1.019 0 0 0 100.734 5.862 Q 101.04 6.158 101.573 6.173 A 2.053 2.053 0 0 0 101.632 6.174 Q 102.126 6.174 102.436 5.94 A 1.018 1.018 0 0 0 102.529 5.86 A 1.041 1.041 0 0 0 102.828 5.292 A 1.518 1.518 0 0 0 102.854 5.005 Z M 101.632 0.932 A 1.259 1.259 0 0 0 101.28 0.979 A 0.973 0.973 0 0 0 100.857 1.228 Q 100.56 1.525 100.56 2.035 A 1.325 1.325 0 0 0 100.605 2.387 A 0.994 0.994 0 0 0 100.852 2.823 A 0.974 0.974 0 0 0 101.414 3.108 A 1.382 1.382 0 0 0 101.632 3.125 A 1.279 1.279 0 0 0 101.977 3.08 A 0.952 0.952 0 0 0 102.412 2.823 A 1.018 1.018 0 0 0 102.687 2.26 A 1.426 1.426 0 0 0 102.705 2.035 A 1.282 1.282 0 0 0 102.655 1.668 A 1.013 1.013 0 0 0 102.401 1.239 Q 102.098 0.932 101.632 0.932 Z M 69.508 5.418 L 69.508 4.443 L 68.871 4.443 Q 67.377 4.443 67.377 5.317 Q 67.377 5.7 67.632 5.915 A 0.893 0.893 0 0 0 68.045 6.108 A 1.259 1.259 0 0 0 68.287 6.13 A 1.429 1.429 0 0 0 69.012 5.933 A 1.335 1.335 0 0 0 69.307 5.705 A 1.108 1.108 0 0 0 69.508 5.418 Z M 115.712 5.418 L 115.712 4.443 L 115.075 4.443 Q 113.581 4.443 113.581 5.317 Q 113.581 5.7 113.836 5.915 A 0.893 0.893 0 0 0 114.249 6.108 A 1.259 1.259 0 0 0 114.491 6.13 A 1.429 1.429 0 0 0 115.216 5.933 A 1.335 1.335 0 0 0 115.511 5.705 A 1.108 1.108 0 0 0 115.712 5.418 Z M 53.574 0.734 Q 53.574 0.536 53.695 0.4 Q 53.807 0.274 54.018 0.264 A 0.783 0.783 0 0 1 54.053 0.264 Q 54.29 0.264 54.413 0.4 A 0.474 0.474 0 0 1 54.535 0.703 A 0.614 0.614 0 0 1 54.536 0.734 A 0.523 0.523 0 0 1 54.511 0.9 A 0.442 0.442 0 0 1 54.413 1.063 Q 54.301 1.184 54.093 1.194 A 0.803 0.803 0 0 1 54.053 1.195 Q 53.88 1.195 53.77 1.126 A 0.362 0.362 0 0 1 53.695 1.063 A 0.456 0.456 0 0 1 53.576 0.788 A 0.605 0.605 0 0 1 53.574 0.734 Z" vector-effect="non-scaling-stroke"/></g>
</svgversion="1.0" encoding="UTF-8"?>
<svg width="48px" height="48px" viewBox="0 0 48 48" version="1.1" xmlns="http://www.w3.org/2000/svg" xmlns:xlink="http://www.w3.org/1999/xlink">
    <title>Icon-Resource/Networking-and-Content-Delivery/Res_Icon-Amazon-VPC-Global-WAN_Virtual-PoP_48_Dark</title>
    <g id="Icon-Resource/Networking-and-Content-Delivery/Res_Icon-Amazon-VPC-Global-WAN_Virtual-PoP_48" stroke="none" stroke-width="1" fill="none" fill-rule="evenodd">
        <path transform="translate(0vw, 0vh), scale(.65)" d="M42,26 C40.897,26 40,25.103 40,24 C40,22.897 40.897,22 42,22 C43.103,22 44,22.897 44,24 C44,25.103 43.103,26 42,26 M25,36.949 L25,30.92 C28.059,30.479 30.479,28.059 30.92,25 L36.949,25 C36.461,31.37 31.37,36.461 25,36.949 M24,44 C22.897,44 22,43.103 22,42 C22,40.897 22.897,40 24,40 C25.103,40 26,40.897 26,42 C26,43.103 25.103,44 24,44 M11.051,25 L17.08,25 C17.521,28.059 19.941,30.479 23,30.92 L23,36.949 C16.63,36.461 11.539,31.37 11.051,25 M23,11.051 L23,17.08 C19.941,17.521 17.521,19.941 17.08,23 L11.051,23 C11.539,16.63 16.63,11.539 23,11.051 M24,4 C25.103,4 26,4.897 26,6 C26,7.103 25.103,8 24,8 C22.897,8 22,7.103 22,6 C22,4.897 22.897,4 24,4 M24,29 C21.243,29 19,26.757 19,24 C19,21.243 21.243,19 24,19 C26.757,19 29,21.243 29,24 C29,26.757 26.757,29 24,29 M36.949,23 L30.92,23 C30.479,19.941 28.059,17.521 25,17.08 L25,11.051 C31.37,11.539 36.461,16.63 36.949,23 M6,26 C4.897,26 4,25.103 4,24 C4,22.897 4.897,22 6,22 C7.103,22 8,22.897 8,24 C8,25.103 7.103,26 6,26 M42,20 C40.683,20 39.524,20.647 38.794,21.631 C37.777,15.258 32.742,10.223 26.369,9.206 C27.353,8.476 28,7.316 28,6 C28,3.794 26.206,2 24,2 C21.794,2 20,3.794 20,6 C20,7.316 20.647,8.476 21.631,9.206 C15.258,10.223 10.223,15.258 9.206,21.631 C8.476,20.647 7.317,20 6,20 C3.794,20 2,21.794 2,24 C2,26.206 3.794,28 6,28 C7.317,28 8.476,27.353 9.206,26.369 C10.223,32.742 15.258,37.777 21.631,38.794 C20.647,39.524 20,40.684 20,42 C20,44.206 21.794,46 24,46 C26.206,46 28,44.206 28,42 C28,40.684 27.353,39.524 26.369,38.794 C32.742,37.777 37.777,32.742 38.794,26.369 C39.524,27.353 40.683,28 42,28 C44.206,28 46,26.206 46,24 C46,21.794 44.206,20 42,20" id="Fill-1" fill="#000000"></path>
    </g><g id="svgGroup" stroke-linecap="round" fill-rule="evenodd" font-size="9pt" stroke="#000" stroke-width="0.25mm" fill="#000" style="stroke:#000;stroke-width:0.25mm;fill:#000"><path d="M 23.12 0.088 L 24.13 4.469 L 24.253 5.313 L 24.434 4.553 L 25.699 0.088 L 26.411 0.088 L 27.646 4.553 L 27.822 5.326 L 27.958 4.465 L 28.951 0.088 L 29.799 0.088 L 28.248 6.486 L 27.479 6.486 L 26.161 1.824 L 26.06 1.336 L 25.958 1.824 L 24.592 6.486 L 23.823 6.486 L 22.276 0.088 L 23.12 0.088 Z M 34.98 1.938 L 34.132 1.938 A 1.466 1.466 0 0 0 34.083 1.546 A 1.066 1.066 0 0 0 33.763 1.026 A 1.211 1.211 0 0 0 33.294 0.77 Q 33.042 0.694 32.722 0.694 A 2.286 2.286 0 0 0 32.342 0.724 Q 32.14 0.758 31.977 0.831 A 1.101 1.101 0 0 0 31.748 0.969 A 0.892 0.892 0 0 0 31.403 1.624 A 1.267 1.267 0 0 0 31.399 1.732 A 0.806 0.806 0 0 0 31.667 2.337 A 1.134 1.134 0 0 0 31.731 2.393 A 1.562 1.562 0 0 0 31.969 2.549 Q 32.299 2.73 32.86 2.887 A 8.228 8.228 0 0 1 33.325 3.032 Q 33.56 3.113 33.754 3.2 A 3.297 3.297 0 0 1 34.108 3.382 A 2.342 2.342 0 0 1 34.447 3.626 Q 34.637 3.792 34.759 3.985 A 1.45 1.45 0 0 1 34.776 4.012 A 1.498 1.498 0 0 1 34.972 4.568 A 1.948 1.948 0 0 1 34.994 4.86 A 1.606 1.606 0 0 1 34.871 5.497 Q 34.726 5.838 34.408 6.09 A 1.886 1.886 0 0 1 34.387 6.106 Q 33.781 6.574 32.766 6.574 A 3.023 3.023 0 0 1 31.625 6.36 A 2.917 2.917 0 0 1 31.535 6.322 A 2.383 2.383 0 0 1 31.057 6.044 A 1.874 1.874 0 0 1 30.654 5.629 A 1.689 1.689 0 0 1 30.344 4.632 L 31.192 4.632 A 1.261 1.261 0 0 0 31.262 5.059 A 1.074 1.074 0 0 0 31.621 5.548 Q 32.005 5.85 32.622 5.881 A 2.87 2.87 0 0 0 32.766 5.884 A 2.628 2.628 0 0 0 33.153 5.858 Q 33.349 5.828 33.508 5.767 A 1.129 1.129 0 0 0 33.79 5.612 Q 34.146 5.339 34.146 4.869 A 1.074 1.074 0 0 0 34.103 4.559 A 0.816 0.816 0 0 0 33.816 4.142 Q 33.486 3.885 32.621 3.634 Q 31.535 3.322 31.041 2.868 Q 30.546 2.413 30.546 1.745 Q 30.546 0.989 31.151 0.494 A 2.121 2.121 0 0 1 32.041 0.071 A 3.087 3.087 0 0 1 32.722 0 A 2.913 2.913 0 0 1 33.382 0.072 A 2.372 2.372 0 0 1 33.897 0.255 A 2.051 2.051 0 0 1 34.428 0.626 A 1.834 1.834 0 0 1 34.697 0.958 A 1.798 1.798 0 0 1 34.98 1.938 Z M 3.74 6.486 L 2.351 3.898 L 0.848 3.898 L 0.848 6.486 L 0 6.486 L 0 0.088 L 2.118 0.088 A 3.809 3.809 0 0 1 2.76 0.138 Q 3.102 0.197 3.376 0.324 A 1.789 1.789 0 0 1 3.781 0.58 A 1.588 1.588 0 0 1 4.307 1.469 A 2.453 2.453 0 0 1 4.364 2.013 A 1.864 1.864 0 0 1 4.273 2.604 A 1.64 1.64 0 0 1 4.041 3.054 A 1.849 1.849 0 0 1 3.382 3.611 A 2.342 2.342 0 0 1 3.142 3.718 L 4.645 6.434 L 4.645 6.486 L 3.74 6.486 Z M 13.724 3.129 L 12.907 3.129 Q 12.907 2.795 12.623 2.553 Q 12.34 2.312 11.909 2.312 Q 11.465 2.312 11.215 2.505 A 0.653 0.653 0 0 0 11.04 2.704 Q 10.967 2.835 10.964 3 A 0.771 0.771 0 0 0 10.964 3.01 A 0.588 0.588 0 0 0 10.994 3.203 A 0.48 0.48 0 0 0 11.197 3.454 A 1.093 1.093 0 0 0 11.348 3.533 Q 11.512 3.605 11.767 3.673 A 6.581 6.581 0 0 0 12.039 3.74 A 6.318 6.318 0 0 1 12.446 3.845 Q 12.783 3.944 13.025 4.065 A 1.901 1.901 0 0 1 13.281 4.218 Q 13.418 4.315 13.516 4.429 A 1.06 1.06 0 0 1 13.586 4.52 A 1.024 1.024 0 0 1 13.748 4.927 A 1.388 1.388 0 0 1 13.768 5.168 Q 13.768 5.805 13.258 6.19 Q 12.776 6.554 12.022 6.573 A 3.337 3.337 0 0 1 11.936 6.574 A 2.746 2.746 0 0 1 11.401 6.525 A 2.124 2.124 0 0 1 10.925 6.372 A 1.771 1.771 0 0 1 10.491 6.094 A 1.54 1.54 0 0 1 10.237 5.807 Q 9.989 5.445 9.989 5.023 L 10.802 5.023 A 0.932 0.932 0 0 0 10.875 5.348 A 0.827 0.827 0 0 0 11.129 5.671 A 1.072 1.072 0 0 0 11.531 5.864 Q 11.686 5.903 11.867 5.91 A 2.013 2.013 0 0 0 11.936 5.911 A 1.863 1.863 0 0 0 12.231 5.889 Q 12.393 5.863 12.524 5.806 A 0.941 0.941 0 0 0 12.676 5.724 A 0.689 0.689 0 0 0 12.841 5.574 A 0.554 0.554 0 0 0 12.955 5.225 A 0.698 0.698 0 0 0 12.919 4.994 A 0.581 0.581 0 0 0 12.707 4.713 A 1.05 1.05 0 0 0 12.538 4.615 Q 12.349 4.524 12.054 4.449 A 5.392 5.392 0 0 0 11.841 4.399 A 6.342 6.342 0 0 1 11.48 4.311 Q 11.11 4.209 10.861 4.083 Q 10.562 3.93 10.392 3.731 A 1.017 1.017 0 0 1 10.325 3.643 Q 10.151 3.388 10.151 3.037 A 1.206 1.206 0 0 1 10.55 2.132 A 1.694 1.694 0 0 1 10.646 2.048 A 1.752 1.752 0 0 1 11.429 1.688 A 2.471 2.471 0 0 1 11.909 1.644 A 2.559 2.559 0 0 1 12.473 1.702 A 1.757 1.757 0 0 1 13.221 2.061 Q 13.724 2.479 13.724 3.129 Z M 21.327 6.486 L 20.716 4.816 L 18.035 4.816 L 17.433 6.486 L 16.563 6.486 L 19.006 0.088 L 19.745 0.088 L 22.192 6.486 L 21.327 6.486 Z M 5.212 4.241 L 5.212 4.091 A 3.17 3.17 0 0 1 5.288 3.382 A 2.581 2.581 0 0 1 5.482 2.828 A 2.191 2.191 0 0 1 5.93 2.202 A 2.033 2.033 0 0 1 6.238 1.958 Q 6.724 1.644 7.291 1.644 A 2.254 2.254 0 0 1 7.904 1.723 A 1.639 1.639 0 0 1 8.732 2.254 Q 9.246 2.865 9.246 4.003 L 9.246 4.342 L 6.025 4.342 A 2.111 2.111 0 0 0 6.096 4.85 A 1.516 1.516 0 0 0 6.436 5.478 A 1.282 1.282 0 0 0 7.37 5.909 A 1.652 1.652 0 0 0 7.436 5.911 A 1.763 1.763 0 0 0 7.764 5.882 Q 7.988 5.839 8.165 5.735 A 1.827 1.827 0 0 0 8.674 5.287 A 2.068 2.068 0 0 0 8.688 5.269 L 9.185 5.656 A 1.926 1.926 0 0 1 7.785 6.547 A 2.749 2.749 0 0 1 7.392 6.574 A 2.394 2.394 0 0 1 6.64 6.461 A 1.974 1.974 0 0 1 5.818 5.939 Q 5.212 5.304 5.212 4.241 Z M 0.848 0.782 L 0.848 3.208 L 2.145 3.208 Q 2.685 3.208 3.035 2.968 A 1.174 1.174 0 0 0 3.144 2.883 A 1.069 1.069 0 0 0 3.51 2.146 A 1.486 1.486 0 0 0 3.516 2.013 Q 3.516 1.47 3.22 1.159 A 1 1 0 0 0 3.162 1.103 Q 2.808 0.787 2.14 0.782 L 0.848 0.782 Z M 19.375 1.129 L 18.29 4.122 L 20.465 4.122 L 19.375 1.129 Z M 6.051 3.674 L 8.433 3.674 L 8.433 3.612 Q 8.407 3.153 8.236 2.848 A 1.13 1.13 0 0 0 8.099 2.652 A 0.983 0.983 0 0 0 7.445 2.32 A 1.39 1.39 0 0 0 7.291 2.312 A 1.106 1.106 0 0 0 6.768 2.435 A 1.14 1.14 0 0 0 6.464 2.67 A 1.417 1.417 0 0 0 6.188 3.116 Q 6.114 3.3 6.074 3.522 A 2.741 2.741 0 0 0 6.051 3.674 Z" vector-effect="non-scaling-stroke"/></g><g transform="translate(22.502935891882686, 64), scale(0.75)" id="svgGroup" stroke-linecap="round" fill-rule="evenodd" font-size="9pt" stroke="#000" stroke-width="0.25mm" fill="#000" style="stroke:#000;stroke-width:0.25mm;fill:#000"><path d="M 26.029 0.352 L 27.04 4.733 L 27.163 5.577 L 27.343 4.816 L 28.608 0.352 L 29.32 0.352 L 30.555 4.816 L 30.731 5.59 L 30.867 4.729 L 31.86 0.352 L 32.709 0.352 L 31.157 6.75 L 30.388 6.75 L 29.07 2.087 L 28.969 1.6 L 28.868 2.087 L 27.501 6.75 L 26.732 6.75 L 25.185 0.352 L 26.029 0.352 Z M 44.244 0.352 L 44.244 6.75 L 43.396 6.75 L 40.175 1.819 L 40.175 6.75 L 39.327 6.75 L 39.327 0.352 L 40.175 0.352 L 43.405 5.304 L 43.405 0.352 L 44.244 0.352 Z M 4.078 4.72 L 4.926 4.72 A 3.016 3.016 0 0 1 4.765 5.416 A 2.099 2.099 0 0 1 4.177 6.286 Q 3.546 6.838 2.501 6.838 A 2.553 2.553 0 0 1 1.631 6.696 A 2.194 2.194 0 0 1 0.683 6.025 A 2.789 2.789 0 0 1 0.122 4.901 Q 0.015 4.484 0.002 3.992 A 5.262 5.262 0 0 1 0 3.85 L 0 3.234 A 4.251 4.251 0 0 1 0.07 2.445 A 3.229 3.229 0 0 1 0.319 1.666 A 2.539 2.539 0 0 1 0.774 0.99 A 2.26 2.26 0 0 1 1.222 0.626 A 2.415 2.415 0 0 1 2.248 0.281 A 3.027 3.027 0 0 1 2.575 0.264 A 2.962 2.962 0 0 1 3.281 0.343 A 2.065 2.065 0 0 1 4.21 0.833 A 2.16 2.16 0 0 1 4.805 1.795 A 3.086 3.086 0 0 1 4.926 2.408 L 4.078 2.408 Q 4.009 1.929 3.84 1.616 A 1.223 1.223 0 0 0 3.601 1.301 A 1.207 1.207 0 0 0 3.096 1.024 Q 2.909 0.971 2.686 0.961 A 2.396 2.396 0 0 0 2.575 0.958 A 1.753 1.753 0 0 0 1.997 1.049 A 1.463 1.463 0 0 0 1.307 1.556 A 1.989 1.989 0 0 0 0.993 2.175 Q 0.848 2.636 0.848 3.256 L 0.848 3.876 Q 0.848 4.917 1.283 5.533 A 1.38 1.38 0 0 0 2.282 6.135 A 1.814 1.814 0 0 0 2.501 6.148 A 2.497 2.497 0 0 0 2.908 6.117 Q 3.127 6.08 3.303 6.002 A 1.155 1.155 0 0 0 3.579 5.829 Q 3.955 5.511 4.078 4.72 Z M 123.829 6.75 L 122.172 4.548 L 121.663 5.08 L 121.663 6.75 L 120.85 6.75 L 120.85 0 L 121.663 0 L 121.663 4.083 L 122.098 3.56 L 123.579 1.995 L 124.567 1.995 L 122.717 3.981 L 124.783 6.75 L 123.829 6.75 Z M 48.27 0.352 L 50.089 5.629 L 51.917 0.352 L 52.84 0.352 L 50.467 6.75 L 49.72 6.75 L 47.351 0.352 L 48.27 0.352 Z M 16.22 6.75 L 16.203 6.28 A 1.526 1.526 0 0 1 15.377 6.775 Q 15.126 6.836 14.829 6.838 A 2.996 2.996 0 0 1 14.81 6.838 A 2.086 2.086 0 0 1 14.35 6.79 Q 13.919 6.693 13.652 6.396 A 1.41 1.41 0 0 1 13.369 5.899 Q 13.252 5.556 13.25 5.089 L 13.25 1.995 L 14.063 1.995 L 14.063 5.067 Q 14.063 6.037 14.77 6.137 A 1.229 1.229 0 0 0 14.941 6.148 A 1.927 1.927 0 0 0 15.392 6.099 Q 15.955 5.964 16.181 5.454 L 16.181 1.995 L 16.994 1.995 L 16.994 6.75 L 16.22 6.75 Z M 64.692 6.75 L 64.674 6.28 A 1.526 1.526 0 0 1 63.848 6.775 Q 63.598 6.836 63.301 6.838 A 2.996 2.996 0 0 1 63.281 6.838 A 2.086 2.086 0 0 1 62.821 6.79 Q 62.391 6.693 62.123 6.396 A 1.41 1.41 0 0 1 61.84 5.899 Q 61.724 5.556 61.721 5.089 L 61.721 1.995 L 62.534 1.995 L 62.534 5.067 Q 62.534 6.037 63.242 6.137 A 1.229 1.229 0 0 0 63.413 6.148 A 1.927 1.927 0 0 0 63.864 6.099 Q 64.426 5.964 64.652 5.454 L 64.652 1.995 L 65.465 1.995 L 65.465 6.75 L 64.692 6.75 Z M 37.6 6.75 L 36.989 5.08 L 34.308 5.08 L 33.706 6.75 L 32.836 6.75 L 35.279 0.352 L 36.018 0.352 L 38.465 6.75 L 37.6 6.75 Z M 70.488 6.75 L 69.636 6.75 A 0.632 0.632 0 0 1 69.6 6.66 Q 69.569 6.562 69.544 6.41 A 3.997 3.997 0 0 1 69.522 6.249 Q 68.955 6.838 68.168 6.838 A 2.033 2.033 0 0 1 67.639 6.772 A 1.529 1.529 0 0 1 67.014 6.44 Q 66.564 6.042 66.564 5.432 Q 66.564 4.689 67.129 4.278 Q 67.693 3.867 68.717 3.867 L 69.508 3.867 L 69.508 3.494 A 1.152 1.152 0 0 0 69.473 3.199 A 0.828 0.828 0 0 0 69.253 2.815 Q 69.037 2.6 68.647 2.568 A 1.748 1.748 0 0 0 68.502 2.562 Q 68.067 2.562 67.773 2.782 Q 67.478 3.001 67.478 3.313 L 66.661 3.313 A 1.041 1.041 0 0 1 66.786 2.825 A 1.409 1.409 0 0 1 66.913 2.626 Q 67.166 2.294 67.599 2.101 A 2.249 2.249 0 0 1 68.375 1.913 A 2.669 2.669 0 0 1 68.55 1.907 A 2.65 2.65 0 0 1 69.068 1.955 Q 69.375 2.016 69.614 2.156 A 1.439 1.439 0 0 1 69.838 2.318 A 1.396 1.396 0 0 1 70.291 3.144 A 1.998 1.998 0 0 1 70.321 3.45 L 70.321 5.638 Q 70.321 6.073 70.395 6.39 A 1.707 1.707 0 0 0 70.488 6.68 L 70.488 6.75 Z M 116.692 6.75 L 115.84 6.75 A 0.632 0.632 0 0 1 115.804 6.66 Q 115.773 6.562 115.748 6.41 A 3.997 3.997 0 0 1 115.726 6.249 Q 115.159 6.838 114.372 6.838 A 2.033 2.033 0 0 1 113.843 6.772 A 1.529 1.529 0 0 1 113.219 6.44 Q 112.768 6.042 112.768 5.432 Q 112.768 4.689 113.333 4.278 Q 113.898 3.867 114.921 3.867 L 115.712 3.867 L 115.712 3.494 A 1.152 1.152 0 0 0 115.677 3.199 A 0.828 0.828 0 0 0 115.458 2.815 Q 115.241 2.6 114.851 2.568 A 1.748 1.748 0 0 0 114.706 2.562 Q 114.271 2.562 113.977 2.782 Q 113.682 3.001 113.682 3.313 L 112.865 3.313 A 1.041 1.041 0 0 1 112.99 2.825 A 1.409 1.409 0 0 1 113.117 2.626 Q 113.37 2.294 113.803 2.101 A 2.249 2.249 0 0 1 114.579 1.913 A 2.669 2.669 0 0 1 114.754 1.907 A 2.65 2.65 0 0 1 115.272 1.955 Q 115.579 2.016 115.818 2.156 A 1.439 1.439 0 0 1 116.042 2.318 A 1.396 1.396 0 0 1 116.495 3.144 A 1.998 1.998 0 0 1 116.525 3.45 L 116.525 5.638 Q 116.525 6.073 116.599 6.39 A 1.707 1.707 0 0 0 116.692 6.68 L 116.692 6.75 Z M 18.031 4.395 L 18.031 4.333 A 3.762 3.762 0 0 1 18.098 3.602 Q 18.185 3.16 18.388 2.812 A 2.148 2.148 0 0 1 18.549 2.573 Q 19.068 1.907 19.907 1.907 A 1.964 1.964 0 0 1 20.505 1.994 A 1.559 1.559 0 0 1 21.23 2.479 L 21.23 0 L 22.043 0 L 22.043 6.75 L 21.296 6.75 L 21.256 6.24 Q 20.769 6.838 19.898 6.838 A 1.6 1.6 0 0 1 18.678 6.31 A 2.078 2.078 0 0 1 18.552 6.161 A 2.405 2.405 0 0 1 18.127 5.255 Q 18.043 4.912 18.032 4.51 A 4.425 4.425 0 0 1 18.031 4.395 Z M 78.486 4.245 L 76.979 4.245 L 76.979 6.75 L 76.135 6.75 L 76.135 0.352 L 78.495 0.352 A 3.315 3.315 0 0 1 79.16 0.414 Q 79.563 0.497 79.873 0.688 A 1.839 1.839 0 0 1 80.141 0.888 A 1.772 1.772 0 0 1 80.728 2.105 A 2.45 2.45 0 0 1 80.736 2.307 Q 80.736 3.239 80.154 3.742 Q 79.675 4.156 78.856 4.229 A 4.14 4.14 0 0 1 78.486 4.245 Z M 89.24 4.245 L 87.732 4.245 L 87.732 6.75 L 86.889 6.75 L 86.889 0.352 L 89.249 0.352 A 3.315 3.315 0 0 1 89.913 0.414 Q 90.316 0.497 90.627 0.688 A 1.839 1.839 0 0 1 90.894 0.888 A 1.772 1.772 0 0 1 91.482 2.105 A 2.45 2.45 0 0 1 91.49 2.307 Q 91.49 3.239 90.908 3.742 Q 90.429 4.156 89.609 4.229 A 4.14 4.14 0 0 1 89.24 4.245 Z M 98.016 0.352 L 98.016 4.601 L 98.903 4.601 L 98.903 5.265 L 98.016 5.265 L 98.016 6.75 L 97.198 6.75 L 97.198 5.265 L 94.285 5.265 L 94.285 4.786 L 97.15 0.352 L 98.016 0.352 Z M 108.901 6.75 L 107.13 6.75 L 107.13 0.352 L 108.936 0.352 Q 109.771 0.352 110.413 0.721 Q 111.054 1.09 111.404 1.771 A 3.19 3.19 0 0 1 111.72 2.8 A 4.073 4.073 0 0 1 111.757 3.335 L 111.757 3.744 Q 111.757 4.649 111.408 5.331 A 2.457 2.457 0 0 1 110.41 6.376 Q 109.762 6.741 108.901 6.75 Z M 103.414 2.592 A 1.544 1.544 0 0 0 103.518 2.021 A 2.226 2.226 0 0 0 103.496 1.707 A 1.566 1.566 0 0 0 102.997 0.738 A 1.754 1.754 0 0 0 102.231 0.333 A 2.443 2.443 0 0 0 101.632 0.264 A 2.539 2.539 0 0 0 101.123 0.312 A 1.767 1.767 0 0 0 100.266 0.738 Q 99.747 1.213 99.747 2.021 A 1.808 1.808 0 0 0 99.747 2.058 A 1.499 1.499 0 0 0 99.993 2.87 A 1.626 1.626 0 0 0 100.155 3.077 A 1.726 1.726 0 0 0 100.666 3.454 A 2.119 2.119 0 0 0 100.566 3.5 A 1.738 1.738 0 0 0 99.881 4.087 A 1.629 1.629 0 0 0 99.598 5.023 A 2.272 2.272 0 0 0 99.608 5.237 A 1.63 1.63 0 0 0 100.154 6.344 A 1.895 1.895 0 0 0 101.004 6.771 A 2.797 2.797 0 0 0 101.632 6.838 A 2.796 2.796 0 0 0 102.231 6.777 A 1.925 1.925 0 0 0 103.107 6.346 A 1.578 1.578 0 0 0 103.582 5.62 A 1.989 1.989 0 0 0 103.667 5.023 A 1.581 1.581 0 0 0 103.375 4.087 Q 103.083 3.674 102.582 3.458 Q 103.012 3.248 103.265 2.874 A 1.449 1.449 0 0 0 103.414 2.592 Z M 59.089 0.844 L 59.902 0.844 L 59.902 1.995 L 60.79 1.995 L 60.79 2.624 L 59.902 2.624 L 59.902 5.572 Q 59.902 5.858 60.021 6.001 Q 60.139 6.144 60.425 6.144 A 1.046 1.046 0 0 0 60.522 6.138 Q 60.625 6.129 60.765 6.101 A 4.024 4.024 0 0 0 60.812 6.091 L 60.812 6.75 A 2.463 2.463 0 0 1 60.379 6.829 A 2.157 2.157 0 0 1 60.188 6.838 Q 59.74 6.838 59.474 6.616 A 0.856 0.856 0 0 1 59.366 6.508 Q 59.138 6.238 59.098 5.78 A 2.351 2.351 0 0 1 59.089 5.572 L 59.089 2.624 L 58.223 2.624 L 58.223 1.995 L 59.089 1.995 L 59.089 0.844 Z M 6.834 0 L 6.834 6.75 L 6.021 6.75 L 6.021 0 L 6.834 0 Z M 72.479 0 L 72.479 6.75 L 71.666 6.75 L 71.666 0 L 72.479 0 Z M 7.919 4.386 L 7.919 4.329 A 3.057 3.057 0 0 1 8.006 3.587 A 2.573 2.573 0 0 1 8.194 3.072 A 2.16 2.16 0 0 1 8.608 2.486 A 1.957 1.957 0 0 1 8.958 2.21 A 2.036 2.036 0 0 1 9.903 1.913 A 2.491 2.491 0 0 1 10.077 1.907 A 2.277 2.277 0 0 1 10.83 2.027 A 1.937 1.937 0 0 1 11.648 2.58 A 2.29 2.29 0 0 1 12.167 3.608 A 3.373 3.373 0 0 1 12.248 4.368 L 12.248 4.425 A 3.114 3.114 0 0 1 12.168 5.142 A 2.577 2.577 0 0 1 11.982 5.671 A 2.056 2.056 0 0 1 11.454 6.361 A 2.001 2.001 0 0 1 11.221 6.53 A 2.045 2.045 0 0 1 10.302 6.829 A 2.529 2.529 0 0 1 10.085 6.838 A 2.262 2.262 0 0 1 9.335 6.718 A 1.938 1.938 0 0 1 8.519 6.166 A 2.297 2.297 0 0 1 7.993 5.111 A 3.357 3.357 0 0 1 7.919 4.386 Z M 81.413 4.386 L 81.413 4.329 A 3.057 3.057 0 0 1 81.5 3.587 A 2.573 2.573 0 0 1 81.688 3.072 A 2.16 2.16 0 0 1 82.102 2.486 A 1.957 1.957 0 0 1 82.452 2.21 A 2.036 2.036 0 0 1 83.397 1.913 A 2.491 2.491 0 0 1 83.571 1.907 A 2.277 2.277 0 0 1 84.324 2.027 A 1.937 1.937 0 0 1 85.142 2.58 A 2.29 2.29 0 0 1 85.661 3.608 A 3.373 3.373 0 0 1 85.742 4.368 L 85.742 4.425 A 3.114 3.114 0 0 1 85.662 5.142 A 2.577 2.577 0 0 1 85.476 5.671 A 2.056 2.056 0 0 1 84.949 6.361 A 2.001 2.001 0 0 1 84.716 6.53 A 2.045 2.045 0 0 1 83.796 6.829 A 2.529 2.529 0 0 1 83.58 6.838 A 2.262 2.262 0 0 1 82.829 6.718 A 1.938 1.938 0 0 1 82.013 6.166 A 2.297 2.297 0 0 1 81.487 5.111 A 3.357 3.357 0 0 1 81.413 4.386 Z M 58.052 1.969 L 58.052 2.725 A 2.251 2.251 0 0 0 57.809 2.698 A 2.782 2.782 0 0 0 57.652 2.694 Q 56.874 2.694 56.583 3.338 A 1.445 1.445 0 0 0 56.566 3.375 L 56.566 6.75 L 55.753 6.75 L 55.753 1.995 L 56.544 1.995 L 56.558 2.544 Q 56.938 1.938 57.621 1.909 A 1.636 1.636 0 0 1 57.691 1.907 Q 57.929 1.907 58.052 1.969 Z M 120.098 1.969 L 120.098 2.725 A 2.251 2.251 0 0 0 119.855 2.698 A 2.782 2.782 0 0 0 119.698 2.694 Q 118.92 2.694 118.629 3.338 A 1.445 1.445 0 0 0 118.613 3.375 L 118.613 6.75 L 117.8 6.75 L 117.8 1.995 L 118.591 1.995 L 118.604 2.544 Q 118.984 1.938 119.667 1.909 A 1.636 1.636 0 0 1 119.738 1.907 Q 119.975 1.907 120.098 1.969 Z M 108.958 1.046 L 107.974 1.046 L 107.974 6.06 L 108.861 6.06 A 2.519 2.519 0 0 0 109.494 5.985 A 1.747 1.747 0 0 0 110.38 5.454 Q 110.839 4.94 110.91 4.059 A 4.165 4.165 0 0 0 110.922 3.727 L 110.922 3.353 Q 110.922 2.562 110.653 2.027 A 1.864 1.864 0 0 0 110.41 1.659 A 1.687 1.687 0 0 0 109.414 1.09 A 2.499 2.499 0 0 0 108.958 1.046 Z M 54.453 1.995 L 54.453 6.75 L 53.64 6.75 L 53.64 1.995 L 54.453 1.995 Z M 8.736 4.425 A 2.772 2.772 0 0 0 8.784 4.954 Q 8.844 5.264 8.981 5.51 A 1.545 1.545 0 0 0 9.103 5.695 Q 9.47 6.174 10.085 6.174 A 1.269 1.269 0 0 0 10.575 6.083 Q 10.854 5.967 11.057 5.706 A 1.471 1.471 0 0 0 11.07 5.689 A 1.648 1.648 0 0 0 11.325 5.171 Q 11.393 4.945 11.419 4.672 A 3.655 3.655 0 0 0 11.435 4.329 A 2.687 2.687 0 0 0 11.383 3.789 Q 11.316 3.459 11.158 3.2 A 1.586 1.586 0 0 0 11.063 3.061 A 1.231 1.231 0 0 0 10.648 2.705 Q 10.395 2.575 10.077 2.575 Q 9.487 2.575 9.121 3.035 A 1.515 1.515 0 0 0 9.106 3.054 A 1.589 1.589 0 0 0 8.853 3.552 Q 8.784 3.772 8.756 4.039 A 3.676 3.676 0 0 0 8.736 4.425 Z M 82.231 4.425 A 2.772 2.772 0 0 0 82.278 4.954 Q 82.338 5.264 82.476 5.51 A 1.545 1.545 0 0 0 82.597 5.695 Q 82.964 6.174 83.58 6.174 A 1.269 1.269 0 0 0 84.069 6.083 Q 84.348 5.967 84.551 5.706 A 1.471 1.471 0 0 0 84.564 5.689 A 1.648 1.648 0 0 0 84.819 5.171 Q 84.888 4.945 84.913 4.672 A 3.655 3.655 0 0 0 84.929 4.329 A 2.687 2.687 0 0 0 84.878 3.789 Q 84.81 3.459 84.653 3.2 A 1.586 1.586 0 0 0 84.557 3.061 A 1.231 1.231 0 0 0 84.142 2.705 Q 83.889 2.575 83.571 2.575 Q 82.981 2.575 82.615 3.035 A 1.515 1.515 0 0 0 82.6 3.054 A 1.589 1.589 0 0 0 82.348 3.552 Q 82.278 3.772 82.25 4.039 A 3.676 3.676 0 0 0 82.231 4.425 Z M 21.23 5.454 L 21.23 3.27 A 1.375 1.375 0 0 0 20.918 2.874 Q 20.594 2.597 20.109 2.597 A 1.238 1.238 0 0 0 19.683 2.668 A 1.068 1.068 0 0 0 19.178 3.059 A 1.51 1.51 0 0 0 18.969 3.484 Q 18.903 3.689 18.872 3.939 A 3.955 3.955 0 0 0 18.844 4.425 A 3.162 3.162 0 0 0 18.88 4.918 Q 18.921 5.178 19.009 5.389 A 1.474 1.474 0 0 0 19.178 5.691 A 1.06 1.06 0 0 0 19.94 6.139 A 1.391 1.391 0 0 0 20.101 6.148 Q 20.874 6.148 21.23 5.454 Z M 76.979 1.046 L 76.979 3.555 L 78.495 3.555 A 2.313 2.313 0 0 0 78.887 3.524 Q 79.105 3.487 79.277 3.404 A 1.097 1.097 0 0 0 79.532 3.237 A 1.028 1.028 0 0 0 79.85 2.696 Q 79.891 2.528 79.893 2.329 A 1.996 1.996 0 0 0 79.893 2.316 A 1.466 1.466 0 0 0 79.839 1.908 A 1.112 1.112 0 0 0 79.532 1.402 Q 79.172 1.059 78.544 1.046 L 76.979 1.046 Z M 87.732 1.046 L 87.732 3.555 L 89.249 3.555 A 2.313 2.313 0 0 0 89.641 3.524 Q 89.858 3.487 90.03 3.404 A 1.097 1.097 0 0 0 90.286 3.237 A 1.028 1.028 0 0 0 90.603 2.696 Q 90.645 2.528 90.646 2.329 A 1.996 1.996 0 0 0 90.646 2.316 A 1.466 1.466 0 0 0 90.592 1.908 A 1.112 1.112 0 0 0 90.286 1.402 Q 89.925 1.059 89.297 1.046 L 87.732 1.046 Z M 97.102 1.639 L 95.208 4.601 L 97.198 4.601 L 97.198 1.463 L 97.102 1.639 Z M 35.648 1.393 L 34.563 4.386 L 36.738 4.386 L 35.648 1.393 Z M 102.854 5.005 A 1.375 1.375 0 0 0 102.795 4.592 A 1.109 1.109 0 0 0 102.513 4.131 A 1.148 1.148 0 0 0 101.842 3.807 A 1.593 1.593 0 0 0 101.624 3.792 A 1.466 1.466 0 0 0 101.235 3.841 A 1.086 1.086 0 0 0 100.742 4.126 A 1.123 1.123 0 0 0 100.429 4.762 A 1.572 1.572 0 0 0 100.411 5.005 A 1.48 1.48 0 0 0 100.452 5.367 A 1.019 1.019 0 0 0 100.734 5.862 Q 101.04 6.158 101.573 6.173 A 2.053 2.053 0 0 0 101.632 6.174 Q 102.126 6.174 102.436 5.94 A 1.018 1.018 0 0 0 102.529 5.86 A 1.041 1.041 0 0 0 102.828 5.292 A 1.518 1.518 0 0 0 102.854 5.005 Z M 101.632 0.932 A 1.259 1.259 0 0 0 101.28 0.979 A 0.973 0.973 0 0 0 100.857 1.228 Q 100.56 1.525 100.56 2.035 A 1.325 1.325 0 0 0 100.605 2.387 A 0.994 0.994 0 0 0 100.852 2.823 A 0.974 0.974 0 0 0 101.414 3.108 A 1.382 1.382 0 0 0 101.632 3.125 A 1.279 1.279 0 0 0 101.977 3.08 A 0.952 0.952 0 0 0 102.412 2.823 A 1.018 1.018 0 0 0 102.687 2.26 A 1.426 1.426 0 0 0 102.705 2.035 A 1.282 1.282 0 0 0 102.655 1.668 A 1.013 1.013 0 0 0 102.401 1.239 Q 102.098 0.932 101.632 0.932 Z M 69.508 5.418 L 69.508 4.443 L 68.871 4.443 Q 67.377 4.443 67.377 5.317 Q 67.377 5.7 67.632 5.915 A 0.893 0.893 0 0 0 68.045 6.108 A 1.259 1.259 0 0 0 68.287 6.13 A 1.429 1.429 0 0 0 69.012 5.933 A 1.335 1.335 0 0 0 69.307 5.705 A 1.108 1.108 0 0 0 69.508 5.418 Z M 115.712 5.418 L 115.712 4.443 L 115.075 4.443 Q 113.581 4.443 113.581 5.317 Q 113.581 5.7 113.836 5.915 A 0.893 0.893 0 0 0 114.249 6.108 A 1.259 1.259 0 0 0 114.491 6.13 A 1.429 1.429 0 0 0 115.216 5.933 A 1.335 1.335 0 0 0 115.511 5.705 A 1.108 1.108 0 0 0 115.712 5.418 Z M 53.574 0.734 Q 53.574 0.536 53.695 0.4 Q 53.807 0.274 54.018 0.264 A 0.783 0.783 0 0 1 54.053 0.264 Q 54.29 0.264 54.413 0.4 A 0.474 0.474 0 0 1 54.535 0.703 A 0.614 0.614 0 0 1 54.536 0.734 A 0.523 0.523 0 0 1 54.511 0.9 A 0.442 0.442 0 0 1 54.413 1.063 Q 54.301 1.184 54.093 1.194 A 0.803 0.803 0 0 1 54.053 1.195 Q 53.88 1.195 53.77 1.126 A 0.362 0.362 0 0 1 53.695 1.063 A 0.456 0.456 0 0 1 53.576 0.788 A 0.605 0.605 0 0 1 53.574 0.734 Z" vector-effect="non-scaling-stroke"/></g>
</svg>