<?xml version="1.0" encoding="UTF-8"?>
<svg width="48px" height="48px" viewBox="0 0 48 48" version="1.1" xmlns="http://www.w3.org/2000/svg" xmlns:xlink="http://www.w3.org/1999/xlink">
    <title>Icon-Resource/Networking-and-Content-Delivery/Res_AWS-Amazon-VPC_Customer-Gateway_48_Dark</title>
    <g id="Icon-Resource/Networking-and-Content-Delivery/Res_AWS-Amazon-VPC_Customer-Gateway_48" stroke="none" stroke-width="1" fill="none" fill-rule="evenodd">
        <path transform="translate(0vw, 0vh), scale(.65)" d="M42.2081,24.707 L37.8331,29.082 L36.4191,27.668 L39.0871,25 L25.0001,25 L25.0001,39.086 L27.6681,36.418 L29.0821,37.832 L24.7071,42.207 C24.5121,42.402 24.2561,42.5 24.0001,42.5 C23.7441,42.5 23.4881,42.402 23.2931,42.207 L18.9181,37.832 L20.3321,36.418 L23.0001,39.086 L23.0001,25 L8.9151,25 L11.5831,27.668 L10.1691,29.082 L5.7941,24.707 C5.4031,24.316 5.4031,23.684 5.7941,23.293 L10.1691,18.917 L11.5831,20.331 L8.9151,23 L23.0001,23 L23.0001,8.913 L20.3321,11.581 L18.9181,10.167 L23.2931,5.792 C23.6841,5.401 24.3161,5.401 24.7071,5.792 L29.0821,10.167 L27.6681,11.581 L25.0001,8.913 L25.0001,23 L39.0871,23 L36.4191,20.331 L37.8331,18.917 L42.2081,23.293 C42.5991,23.684 42.5991,24.316 42.2081,24.707 M24.0001,44 C12.9721,44 4.0001,35.028 4.0001,24 C4.0001,12.972 12.9721,4 24.0001,4 C35.0281,4 44.0001,12.972 44.0001,24 C44.0001,35.028 35.0281,44 24.0001,44 M24.0001,2 C11.8691,2 2.0001,11.869 2.0001,24 C2.0001,36.131 11.8691,46 24.0001,46 C36.1311,46 46.0001,36.131 46.0001,24 C46.0001,11.869 36.1311,2 24.0001,2" id="AWS-Amazon-VPC_Customer-gateway_Resource-Icon_light-bg" fill="#000000"></path>
    </g><g id="svgGroup" stroke-linecap="round" fill-rule="evenodd" font-size="9pt" stroke="#000" stroke-width="0.25mm" fill="#000" style="stroke:#000;stroke-width:0.25mm;fill:#000"><path d="M 43.422 1.732 L 44.191 1.732 L 44.213 2.259 Q 44.736 1.644 45.624 1.644 A 2.009 2.009 0 0 1 46.135 1.704 A 1.244 1.244 0 0 1 46.982 2.408 A 1.801 1.801 0 0 1 47.599 1.855 A 1.65 1.65 0 0 1 48.129 1.673 A 2.209 2.209 0 0 1 48.498 1.644 A 2.119 2.119 0 0 1 49.142 1.733 Q 50.069 2.029 50.089 3.3 L 50.089 6.486 L 49.276 6.486 L 49.276 3.349 A 1.781 1.781 0 0 0 49.255 3.069 Q 49.232 2.921 49.181 2.803 A 0.758 0.758 0 0 0 49.043 2.586 A 0.68 0.68 0 0 0 48.79 2.418 Q 48.579 2.334 48.262 2.334 A 1.245 1.245 0 0 0 47.896 2.385 A 1.008 1.008 0 0 0 47.509 2.604 A 1.042 1.042 0 0 0 47.195 3.14 A 1.41 1.41 0 0 0 47.162 3.331 L 47.162 6.486 L 46.345 6.486 L 46.345 3.371 A 1.532 1.532 0 0 0 46.296 2.967 Q 46.169 2.504 45.712 2.38 A 1.457 1.457 0 0 0 45.33 2.334 Q 44.556 2.334 44.255 2.971 A 1.459 1.459 0 0 0 44.235 3.015 L 44.235 6.486 L 43.422 6.486 L 43.422 1.732 Z M 15.882 4.456 L 16.73 4.456 A 3.016 3.016 0 0 1 16.569 5.152 A 2.099 2.099 0 0 1 15.981 6.023 Q 15.35 6.574 14.304 6.574 A 2.553 2.553 0 0 1 13.435 6.432 A 2.194 2.194 0 0 1 12.487 5.761 A 2.789 2.789 0 0 1 11.925 4.638 Q 11.819 4.22 11.806 3.728 A 5.262 5.262 0 0 1 11.804 3.586 L 11.804 2.971 A 4.251 4.251 0 0 1 11.874 2.182 A 3.229 3.229 0 0 1 12.122 1.402 A 2.539 2.539 0 0 1 12.578 0.726 A 2.26 2.26 0 0 1 13.025 0.363 A 2.415 2.415 0 0 1 14.051 0.017 A 3.027 3.027 0 0 1 14.379 0 A 2.962 2.962 0 0 1 15.085 0.08 A 2.065 2.065 0 0 1 16.014 0.569 A 2.16 2.16 0 0 1 16.608 1.531 A 3.086 3.086 0 0 1 16.73 2.145 L 15.882 2.145 Q 15.813 1.666 15.643 1.352 A 1.223 1.223 0 0 0 15.405 1.037 A 1.207 1.207 0 0 0 14.9 0.76 Q 14.713 0.707 14.489 0.697 A 2.396 2.396 0 0 0 14.379 0.694 A 1.753 1.753 0 0 0 13.801 0.786 A 1.463 1.463 0 0 0 13.111 1.292 A 1.989 1.989 0 0 0 12.797 1.912 Q 12.652 2.372 12.652 2.993 L 12.652 3.612 Q 12.652 4.654 13.087 5.269 A 1.38 1.38 0 0 0 14.085 5.872 A 1.814 1.814 0 0 0 14.304 5.884 A 2.497 2.497 0 0 0 14.712 5.853 Q 14.931 5.817 15.107 5.738 A 1.155 1.155 0 0 0 15.383 5.566 Q 15.759 5.247 15.882 4.456 Z M 23.968 4.456 L 24.816 4.456 A 3.016 3.016 0 0 1 24.655 5.152 A 2.099 2.099 0 0 1 24.067 6.023 Q 23.436 6.574 22.39 6.574 A 2.553 2.553 0 0 1 21.521 6.432 A 2.194 2.194 0 0 1 20.573 5.761 A 2.789 2.789 0 0 1 20.011 4.638 Q 19.905 4.22 19.892 3.728 A 5.262 5.262 0 0 1 19.89 3.586 L 19.89 2.971 A 4.251 4.251 0 0 1 19.96 2.182 A 3.229 3.229 0 0 1 20.208 1.402 A 2.539 2.539 0 0 1 20.664 0.726 A 2.26 2.26 0 0 1 21.111 0.363 A 2.415 2.415 0 0 1 22.137 0.017 A 3.027 3.027 0 0 1 22.465 0 A 2.962 2.962 0 0 1 23.171 0.08 A 2.065 2.065 0 0 1 24.1 0.569 A 2.16 2.16 0 0 1 24.694 1.531 A 3.086 3.086 0 0 1 24.816 2.145 L 23.968 2.145 Q 23.899 1.666 23.729 1.352 A 1.223 1.223 0 0 0 23.491 1.037 A 1.207 1.207 0 0 0 22.986 0.76 Q 22.799 0.707 22.575 0.697 A 2.396 2.396 0 0 0 22.465 0.694 A 1.753 1.753 0 0 0 21.886 0.786 A 1.463 1.463 0 0 0 21.197 1.292 A 1.989 1.989 0 0 0 20.883 1.912 Q 20.738 2.372 20.738 2.993 L 20.738 3.612 Q 20.738 4.654 21.173 5.269 A 1.38 1.38 0 0 0 22.171 5.872 A 1.814 1.814 0 0 0 22.39 5.884 A 2.497 2.497 0 0 0 22.798 5.853 Q 23.017 5.817 23.193 5.738 A 1.155 1.155 0 0 0 23.469 5.566 Q 23.845 5.247 23.968 4.456 Z M 0.918 0.088 L 2.738 5.366 L 4.566 0.088 L 5.489 0.088 L 3.116 6.486 L 2.369 6.486 L 0 0.088 L 0.918 0.088 Z M 34.339 3.129 L 33.521 3.129 Q 33.521 2.795 33.238 2.553 Q 32.955 2.312 32.524 2.312 Q 32.08 2.312 31.83 2.505 A 0.653 0.653 0 0 0 31.655 2.704 Q 31.581 2.835 31.579 3 A 0.771 0.771 0 0 0 31.579 3.01 A 0.588 0.588 0 0 0 31.609 3.203 A 0.48 0.48 0 0 0 31.812 3.454 A 1.093 1.093 0 0 0 31.962 3.533 Q 32.126 3.605 32.382 3.673 A 6.581 6.581 0 0 0 32.654 3.74 A 6.318 6.318 0 0 1 33.061 3.845 Q 33.398 3.944 33.64 4.065 A 1.901 1.901 0 0 1 33.896 4.218 Q 34.033 4.315 34.13 4.429 A 1.06 1.06 0 0 1 34.2 4.52 A 1.024 1.024 0 0 1 34.363 4.927 A 1.388 1.388 0 0 1 34.383 5.168 Q 34.383 5.805 33.873 6.19 Q 33.391 6.554 32.637 6.573 A 3.337 3.337 0 0 1 32.55 6.574 A 2.746 2.746 0 0 1 32.016 6.525 A 2.124 2.124 0 0 1 31.54 6.372 A 1.771 1.771 0 0 1 31.106 6.094 A 1.54 1.54 0 0 1 30.852 5.807 Q 30.604 5.445 30.604 5.023 L 31.417 5.023 A 0.932 0.932 0 0 0 31.49 5.348 A 0.827 0.827 0 0 0 31.744 5.671 A 1.072 1.072 0 0 0 32.146 5.864 Q 32.301 5.903 32.482 5.91 A 2.013 2.013 0 0 0 32.55 5.911 A 1.863 1.863 0 0 0 32.846 5.889 Q 33.007 5.863 33.139 5.806 A 0.941 0.941 0 0 0 33.291 5.724 A 0.689 0.689 0 0 0 33.455 5.574 A 0.554 0.554 0 0 0 33.57 5.225 A 0.698 0.698 0 0 0 33.533 4.994 A 0.581 0.581 0 0 0 33.322 4.713 A 1.05 1.05 0 0 0 33.153 4.615 Q 32.964 4.524 32.669 4.449 A 5.392 5.392 0 0 0 32.456 4.399 A 6.342 6.342 0 0 1 32.095 4.311 Q 31.725 4.21 31.476 4.083 Q 31.177 3.93 31.007 3.731 A 1.017 1.017 0 0 1 30.94 3.643 Q 30.766 3.388 30.766 3.037 A 1.206 1.206 0 0 1 31.165 2.132 A 1.694 1.694 0 0 1 31.26 2.048 A 1.752 1.752 0 0 1 32.044 1.688 A 2.471 2.471 0 0 1 32.524 1.644 A 2.559 2.559 0 0 1 33.087 1.702 A 1.757 1.757 0 0 1 33.836 2.061 Q 34.339 2.479 34.339 3.129 Z M 28.793 6.486 L 28.775 6.016 A 1.526 1.526 0 0 1 27.949 6.511 Q 27.699 6.572 27.402 6.574 A 2.996 2.996 0 0 1 27.382 6.574 A 2.086 2.086 0 0 1 26.922 6.527 Q 26.492 6.429 26.224 6.133 A 1.41 1.41 0 0 1 25.941 5.635 Q 25.825 5.292 25.822 4.825 L 25.822 1.732 L 26.635 1.732 L 26.635 4.803 Q 26.635 5.773 27.343 5.873 A 1.229 1.229 0 0 0 27.514 5.884 A 1.927 1.927 0 0 0 27.965 5.835 Q 28.528 5.7 28.753 5.19 L 28.753 1.732 L 29.566 1.732 L 29.566 6.486 L 28.793 6.486 Z M 51.108 4.241 L 51.108 4.091 A 3.17 3.17 0 0 1 51.185 3.382 A 2.581 2.581 0 0 1 51.379 2.828 A 2.191 2.191 0 0 1 51.826 2.202 A 2.033 2.033 0 0 1 52.135 1.958 Q 52.62 1.644 53.187 1.644 A 2.254 2.254 0 0 1 53.8 1.723 A 1.639 1.639 0 0 1 54.628 2.254 Q 55.143 2.865 55.143 4.004 L 55.143 4.342 L 51.921 4.342 A 2.111 2.111 0 0 0 51.992 4.85 A 1.516 1.516 0 0 0 52.332 5.478 A 1.282 1.282 0 0 0 53.266 5.909 A 1.652 1.652 0 0 0 53.332 5.911 A 1.763 1.763 0 0 0 53.66 5.882 Q 53.884 5.839 54.062 5.735 A 1.827 1.827 0 0 0 54.57 5.287 A 2.068 2.068 0 0 0 54.584 5.269 L 55.081 5.656 A 1.926 1.926 0 0 1 53.681 6.547 A 2.749 2.749 0 0 1 53.288 6.574 A 2.394 2.394 0 0 1 52.537 6.461 A 1.974 1.974 0 0 1 51.715 5.939 Q 51.108 5.304 51.108 4.241 Z M 8.697 3.982 L 7.189 3.982 L 7.189 6.486 L 6.346 6.486 L 6.346 0.088 L 8.706 0.088 A 3.315 3.315 0 0 1 9.37 0.151 Q 9.773 0.233 10.084 0.424 A 1.839 1.839 0 0 1 10.351 0.624 A 1.772 1.772 0 0 1 10.939 1.841 A 2.45 2.45 0 0 1 10.947 2.044 Q 10.947 2.975 10.365 3.478 Q 9.886 3.892 9.066 3.966 A 4.14 4.14 0 0 1 8.697 3.982 Z M 35.732 0.58 L 36.545 0.58 L 36.545 1.732 L 37.433 1.732 L 37.433 2.36 L 36.545 2.36 L 36.545 5.309 Q 36.545 5.594 36.664 5.737 Q 36.782 5.88 37.068 5.88 A 1.046 1.046 0 0 0 37.165 5.875 Q 37.268 5.865 37.408 5.837 A 4.024 4.024 0 0 0 37.455 5.827 L 37.455 6.486 A 2.463 2.463 0 0 1 37.022 6.566 A 2.157 2.157 0 0 1 36.831 6.574 Q 36.383 6.574 36.117 6.352 A 0.856 0.856 0 0 1 36.009 6.245 Q 35.781 5.974 35.741 5.516 A 2.351 2.351 0 0 1 35.732 5.309 L 35.732 2.36 L 34.866 2.36 L 34.866 1.732 L 35.732 1.732 L 35.732 0.58 Z M 38.079 4.122 L 38.079 4.065 A 3.057 3.057 0 0 1 38.166 3.323 A 2.573 2.573 0 0 1 38.353 2.808 A 2.16 2.16 0 0 1 38.768 2.223 A 1.957 1.957 0 0 1 39.118 1.947 A 2.036 2.036 0 0 1 40.062 1.65 A 2.491 2.491 0 0 1 40.236 1.644 A 2.277 2.277 0 0 1 40.99 1.763 A 1.937 1.937 0 0 1 41.807 2.316 A 2.29 2.29 0 0 1 42.326 3.345 A 3.373 3.373 0 0 1 42.407 4.105 L 42.407 4.162 A 3.114 3.114 0 0 1 42.328 4.878 A 2.577 2.577 0 0 1 42.141 5.408 A 2.056 2.056 0 0 1 41.614 6.098 A 2.001 2.001 0 0 1 41.381 6.267 A 2.045 2.045 0 0 1 40.461 6.565 A 2.529 2.529 0 0 1 40.245 6.574 A 2.262 2.262 0 0 1 39.495 6.455 A 1.938 1.938 0 0 1 38.678 5.902 A 2.297 2.297 0 0 1 38.153 4.847 A 3.357 3.357 0 0 1 38.079 4.122 Z M 58.381 1.705 L 58.381 2.461 A 2.251 2.251 0 0 0 58.139 2.435 A 2.782 2.782 0 0 0 57.981 2.43 Q 57.204 2.43 56.912 3.075 A 1.445 1.445 0 0 0 56.896 3.111 L 56.896 6.486 L 56.083 6.486 L 56.083 1.732 L 56.874 1.732 L 56.887 2.281 Q 57.268 1.675 57.95 1.645 A 1.636 1.636 0 0 1 58.021 1.644 Q 58.258 1.644 58.381 1.705 Z M 38.896 4.162 A 2.772 2.772 0 0 0 38.943 4.69 Q 39.004 5.001 39.141 5.246 A 1.545 1.545 0 0 0 39.263 5.432 Q 39.63 5.911 40.245 5.911 A 1.269 1.269 0 0 0 40.735 5.819 Q 41.014 5.704 41.217 5.442 A 1.471 1.471 0 0 0 41.229 5.425 A 1.648 1.648 0 0 0 41.484 4.908 Q 41.553 4.681 41.579 4.409 A 3.655 3.655 0 0 0 41.594 4.065 A 2.687 2.687 0 0 0 41.543 3.525 Q 41.475 3.195 41.318 2.936 A 1.586 1.586 0 0 0 41.223 2.797 A 1.231 1.231 0 0 0 40.808 2.442 Q 40.555 2.312 40.236 2.312 Q 39.646 2.312 39.28 2.771 A 1.515 1.515 0 0 0 39.265 2.791 A 1.589 1.589 0 0 0 39.013 3.288 Q 38.944 3.509 38.915 3.775 A 3.676 3.676 0 0 0 38.896 4.162 Z M 7.189 0.782 L 7.189 3.292 L 8.706 3.292 A 2.313 2.313 0 0 0 9.098 3.26 Q 9.315 3.223 9.487 3.141 A 1.097 1.097 0 0 0 9.743 2.973 A 1.028 1.028 0 0 0 10.06 2.433 Q 10.102 2.265 10.103 2.065 A 1.996 1.996 0 0 0 10.103 2.052 A 1.466 1.466 0 0 0 10.049 1.645 A 1.112 1.112 0 0 0 9.743 1.138 Q 9.382 0.796 8.754 0.782 L 7.189 0.782 Z M 51.948 3.674 L 54.33 3.674 L 54.33 3.612 Q 54.304 3.154 54.133 2.848 A 1.13 1.13 0 0 0 53.996 2.652 A 0.983 0.983 0 0 0 53.341 2.32 A 1.39 1.39 0 0 0 53.187 2.312 A 1.106 1.106 0 0 0 52.665 2.435 A 1.14 1.14 0 0 0 52.361 2.67 A 1.417 1.417 0 0 0 52.084 3.116 Q 52.011 3.3 51.971 3.522 A 2.741 2.741 0 0 0 51.948 3.674 Z" vector-effect="non-scaling-stroke"/></g><g transform="translate(10.8095, 64), scale(0.75)" id="svgGroup" stroke-linecap="round" fill-rule="evenodd" font-size="9pt" stroke="#000" stroke-width="0.25mm" fill="#000" style="stroke:#000;stroke-width:0.25mm;fill:#000"><path d="M 21.894 1.995 L 23.023 5.629 L 23.937 1.995 L 24.75 1.995 L 23.366 6.75 L 22.707 6.75 L 21.551 3.146 L 20.426 6.75 L 19.767 6.75 L 18.387 1.995 L 19.195 1.995 L 20.131 5.555 L 21.239 1.995 L 21.894 1.995 Z M 4.931 3.564 L 4.931 5.911 A 1.895 1.895 0 0 1 4.207 6.525 A 2.364 2.364 0 0 1 4.023 6.607 A 3.162 3.162 0 0 1 3.351 6.787 Q 3.04 6.836 2.69 6.838 A 5.148 5.148 0 0 1 2.668 6.838 A 2.838 2.838 0 0 1 1.845 6.722 A 2.459 2.459 0 0 1 1.279 6.471 A 2.43 2.43 0 0 1 0.372 5.49 A 2.924 2.924 0 0 1 0.341 5.427 A 3.277 3.277 0 0 1 0.052 4.497 A 4.307 4.307 0 0 1 0 3.858 L 0 3.3 Q 0 1.854 0.675 1.059 A 2.198 2.198 0 0 1 2.028 0.307 A 3.227 3.227 0 0 1 2.571 0.264 Q 3.573 0.264 4.184 0.776 A 2.047 2.047 0 0 1 4.806 1.701 A 2.896 2.896 0 0 1 4.931 2.228 L 4.087 2.228 Q 3.88 1.12 2.884 0.979 A 2.195 2.195 0 0 0 2.575 0.958 A 1.917 1.917 0 0 0 2.041 1.028 A 1.386 1.386 0 0 0 1.29 1.553 A 1.986 1.986 0 0 0 1.006 2.125 Q 0.919 2.396 0.88 2.726 A 4.871 4.871 0 0 0 0.848 3.278 L 0.848 3.801 A 3.827 3.827 0 0 0 0.906 4.489 Q 1.017 5.096 1.34 5.513 A 1.569 1.569 0 0 0 2.48 6.139 A 2.069 2.069 0 0 0 2.672 6.148 Q 3.105 6.148 3.439 6.06 A 2.106 2.106 0 0 0 3.503 6.042 A 1.357 1.357 0 0 0 3.891 5.86 A 1.217 1.217 0 0 0 4.091 5.687 L 4.091 4.25 L 2.61 4.25 L 2.61 3.564 L 4.931 3.564 Z M 66.054 6.75 L 64.398 4.548 L 63.888 5.08 L 63.888 6.75 L 63.075 6.75 L 63.075 0 L 63.888 0 L 63.888 4.083 L 64.323 3.56 L 65.804 1.995 L 66.793 1.995 L 64.942 3.981 L 67.008 6.75 L 66.054 6.75 Z M 30.775 1.995 L 31.962 5.559 L 33.069 1.995 L 33.939 1.995 L 32.027 7.484 Q 31.584 8.67 30.617 8.67 L 30.463 8.657 L 30.16 8.6 L 30.16 7.941 L 30.379 7.958 Q 30.659 7.958 30.856 7.882 A 0.75 0.75 0 0 0 31.023 7.792 A 0.749 0.749 0 0 0 31.183 7.629 Q 31.302 7.47 31.392 7.215 A 2.575 2.575 0 0 0 31.403 7.181 L 31.584 6.697 L 29.887 1.995 L 30.775 1.995 Z M 9.998 6.75 L 9.145 6.75 A 0.632 0.632 0 0 1 9.11 6.66 Q 9.078 6.562 9.054 6.41 A 3.997 3.997 0 0 1 9.031 6.249 Q 8.464 6.838 7.677 6.838 A 2.033 2.033 0 0 1 7.148 6.772 A 1.529 1.529 0 0 1 6.524 6.44 Q 6.073 6.042 6.073 5.432 Q 6.073 4.689 6.638 4.278 Q 7.203 3.867 8.227 3.867 L 9.018 3.867 L 9.018 3.494 A 1.152 1.152 0 0 0 8.982 3.199 A 0.828 0.828 0 0 0 8.763 2.815 Q 8.546 2.6 8.156 2.568 A 1.748 1.748 0 0 0 8.011 2.562 Q 7.576 2.562 7.282 2.782 Q 6.987 3.001 6.987 3.313 L 6.17 3.313 A 1.041 1.041 0 0 1 6.295 2.825 A 1.409 1.409 0 0 1 6.423 2.626 Q 6.675 2.294 7.108 2.101 A 2.249 2.249 0 0 1 7.884 1.913 A 2.669 2.669 0 0 1 8.06 1.907 A 2.65 2.65 0 0 1 8.577 1.955 Q 8.884 2.016 9.123 2.156 A 1.439 1.439 0 0 1 9.347 2.318 A 1.396 1.396 0 0 1 9.801 3.144 A 1.998 1.998 0 0 1 9.831 3.45 L 9.831 5.638 Q 9.831 6.073 9.904 6.39 A 1.707 1.707 0 0 0 9.998 6.68 L 9.998 6.75 Z M 29.364 6.75 L 28.512 6.75 A 0.632 0.632 0 0 1 28.476 6.66 Q 28.445 6.562 28.42 6.41 A 3.997 3.997 0 0 1 28.398 6.249 Q 27.831 6.838 27.044 6.838 A 2.033 2.033 0 0 1 26.515 6.772 A 1.529 1.529 0 0 1 25.89 6.44 Q 25.44 6.042 25.44 5.432 Q 25.44 4.689 26.005 4.278 Q 26.569 3.867 27.593 3.867 L 28.384 3.867 L 28.384 3.494 A 1.152 1.152 0 0 0 28.349 3.199 A 0.828 0.828 0 0 0 28.129 2.815 Q 27.913 2.6 27.523 2.568 A 1.748 1.748 0 0 0 27.378 2.562 Q 26.943 2.562 26.649 2.782 Q 26.354 3.001 26.354 3.313 L 25.537 3.313 A 1.041 1.041 0 0 1 25.662 2.825 A 1.409 1.409 0 0 1 25.789 2.626 Q 26.042 2.294 26.475 2.101 A 2.249 2.249 0 0 1 27.251 1.913 A 2.669 2.669 0 0 1 27.426 1.907 A 2.65 2.65 0 0 1 27.944 1.955 Q 28.251 2.016 28.49 2.156 A 1.439 1.439 0 0 1 28.714 2.318 A 1.396 1.396 0 0 1 29.167 3.144 A 1.998 1.998 0 0 1 29.197 3.45 L 29.197 5.638 Q 29.197 6.073 29.271 6.39 A 1.707 1.707 0 0 0 29.364 6.68 L 29.364 6.75 Z M 58.918 6.75 L 58.065 6.75 A 0.632 0.632 0 0 1 58.03 6.66 Q 57.998 6.562 57.973 6.41 A 3.997 3.997 0 0 1 57.951 6.249 Q 57.384 6.838 56.597 6.838 A 2.033 2.033 0 0 1 56.068 6.772 A 1.529 1.529 0 0 1 55.444 6.44 Q 54.993 6.042 54.993 5.432 Q 54.993 4.689 55.558 4.278 Q 56.123 3.867 57.147 3.867 L 57.938 3.867 L 57.938 3.494 A 1.152 1.152 0 0 0 57.902 3.199 A 0.828 0.828 0 0 0 57.683 2.815 Q 57.466 2.6 57.076 2.568 A 1.748 1.748 0 0 0 56.931 2.562 Q 56.496 2.562 56.202 2.782 Q 55.907 3.001 55.907 3.313 L 55.09 3.313 A 1.041 1.041 0 0 1 55.215 2.825 A 1.409 1.409 0 0 1 55.343 2.626 Q 55.595 2.294 56.028 2.101 A 2.249 2.249 0 0 1 56.804 1.913 A 2.669 2.669 0 0 1 56.98 1.907 A 2.65 2.65 0 0 1 57.497 1.955 Q 57.804 2.016 58.043 2.156 A 1.439 1.439 0 0 1 58.267 2.318 A 1.396 1.396 0 0 1 58.721 3.144 A 1.998 1.998 0 0 1 58.751 3.45 L 58.751 5.638 Q 58.751 6.073 58.824 6.39 A 1.707 1.707 0 0 0 58.918 6.68 L 58.918 6.75 Z M 13.838 4.504 L 13.838 4.355 A 3.17 3.17 0 0 1 13.915 3.646 A 2.581 2.581 0 0 1 14.109 3.092 A 2.191 2.191 0 0 1 14.556 2.466 A 2.033 2.033 0 0 1 14.865 2.221 Q 15.35 1.907 15.917 1.907 A 2.254 2.254 0 0 1 16.53 1.986 A 1.639 1.639 0 0 1 17.358 2.518 Q 17.873 3.129 17.873 4.267 L 17.873 4.605 L 14.651 4.605 A 2.111 2.111 0 0 0 14.723 5.114 A 1.516 1.516 0 0 0 15.062 5.741 A 1.282 1.282 0 0 0 15.996 6.173 A 1.652 1.652 0 0 0 16.062 6.174 A 1.763 1.763 0 0 0 16.39 6.145 Q 16.614 6.103 16.792 5.999 A 1.827 1.827 0 0 0 17.3 5.551 A 2.068 2.068 0 0 0 17.315 5.533 L 17.811 5.919 A 1.926 1.926 0 0 1 16.411 6.811 A 2.749 2.749 0 0 1 16.018 6.838 A 2.394 2.394 0 0 1 15.267 6.725 A 1.974 1.974 0 0 1 14.445 6.203 Q 13.838 5.568 13.838 4.504 Z M 40.241 0.352 L 40.241 4.601 L 41.129 4.601 L 41.129 5.265 L 40.241 5.265 L 40.241 6.75 L 39.423 6.75 L 39.423 5.265 L 36.51 5.265 L 36.51 4.786 L 39.375 0.352 L 40.241 0.352 Z M 51.126 6.75 L 49.355 6.75 L 49.355 0.352 L 51.161 0.352 Q 51.996 0.352 52.638 0.721 Q 53.279 1.09 53.629 1.771 A 3.19 3.19 0 0 1 53.946 2.8 A 4.073 4.073 0 0 1 53.983 3.335 L 53.983 3.744 Q 53.983 4.649 53.633 5.331 A 2.457 2.457 0 0 1 52.636 6.376 Q 51.987 6.741 51.126 6.75 Z M 45.639 2.592 A 1.544 1.544 0 0 0 45.743 2.021 A 2.226 2.226 0 0 0 45.721 1.707 A 1.566 1.566 0 0 0 45.222 0.738 A 1.754 1.754 0 0 0 44.456 0.333 A 2.443 2.443 0 0 0 43.858 0.264 A 2.539 2.539 0 0 0 43.348 0.312 A 1.767 1.767 0 0 0 42.491 0.738 Q 41.972 1.213 41.972 2.021 A 1.808 1.808 0 0 0 41.973 2.058 A 1.499 1.499 0 0 0 42.218 2.87 A 1.626 1.626 0 0 0 42.38 3.077 A 1.726 1.726 0 0 0 42.891 3.454 A 2.119 2.119 0 0 0 42.791 3.5 A 1.738 1.738 0 0 0 42.106 4.087 A 1.629 1.629 0 0 0 41.823 5.023 A 2.272 2.272 0 0 0 41.833 5.237 A 1.63 1.63 0 0 0 42.379 6.344 A 1.895 1.895 0 0 0 43.229 6.771 A 2.797 2.797 0 0 0 43.858 6.838 A 2.796 2.796 0 0 0 44.456 6.777 A 1.925 1.925 0 0 0 45.332 6.346 A 1.578 1.578 0 0 0 45.807 5.62 A 1.989 1.989 0 0 0 45.892 5.023 A 1.581 1.581 0 0 0 45.6 4.087 Q 45.308 3.674 44.807 3.458 Q 45.237 3.248 45.49 2.874 A 1.449 1.449 0 0 0 45.639 2.592 Z M 11.395 0.844 L 12.208 0.844 L 12.208 1.995 L 13.096 1.995 L 13.096 2.624 L 12.208 2.624 L 12.208 5.572 Q 12.208 5.858 12.327 6.001 Q 12.445 6.144 12.731 6.144 A 1.046 1.046 0 0 0 12.829 6.138 Q 12.931 6.129 13.071 6.101 A 4.024 4.024 0 0 0 13.118 6.091 L 13.118 6.75 A 2.463 2.463 0 0 1 12.685 6.829 A 2.157 2.157 0 0 1 12.494 6.838 Q 12.047 6.838 11.78 6.616 A 0.856 0.856 0 0 1 11.672 6.508 Q 11.445 6.238 11.404 5.78 A 2.351 2.351 0 0 1 11.395 5.572 L 11.395 2.624 L 10.529 2.624 L 10.529 1.995 L 11.395 1.995 L 11.395 0.844 Z M 62.323 1.969 L 62.323 2.725 A 2.251 2.251 0 0 0 62.081 2.698 A 2.782 2.782 0 0 0 61.923 2.694 Q 61.146 2.694 60.854 3.338 A 1.445 1.445 0 0 0 60.838 3.375 L 60.838 6.75 L 60.025 6.75 L 60.025 1.995 L 60.816 1.995 L 60.829 2.544 Q 61.21 1.938 61.892 1.909 A 1.636 1.636 0 0 1 61.963 1.907 Q 62.2 1.907 62.323 1.969 Z M 51.183 1.046 L 50.199 1.046 L 50.199 6.06 L 51.087 6.06 A 2.519 2.519 0 0 0 51.719 5.985 A 1.747 1.747 0 0 0 52.605 5.454 Q 53.064 4.94 53.135 4.059 A 4.165 4.165 0 0 0 53.148 3.727 L 53.148 3.353 Q 53.148 2.562 52.878 2.027 A 1.864 1.864 0 0 0 52.636 1.659 A 1.687 1.687 0 0 0 51.64 1.09 A 2.499 2.499 0 0 0 51.183 1.046 Z M 39.327 1.639 L 37.433 4.601 L 39.423 4.601 L 39.423 1.463 L 39.327 1.639 Z M 45.079 5.005 A 1.375 1.375 0 0 0 45.02 4.592 A 1.109 1.109 0 0 0 44.739 4.131 A 1.148 1.148 0 0 0 44.067 3.807 A 1.593 1.593 0 0 0 43.849 3.792 A 1.466 1.466 0 0 0 43.46 3.841 A 1.086 1.086 0 0 0 42.968 4.126 A 1.123 1.123 0 0 0 42.654 4.762 A 1.572 1.572 0 0 0 42.636 5.005 A 1.48 1.48 0 0 0 42.678 5.367 A 1.019 1.019 0 0 0 42.959 5.862 Q 43.265 6.158 43.798 6.173 A 2.053 2.053 0 0 0 43.858 6.174 Q 44.351 6.174 44.661 5.94 A 1.018 1.018 0 0 0 44.754 5.86 A 1.041 1.041 0 0 0 45.053 5.292 A 1.518 1.518 0 0 0 45.079 5.005 Z M 43.858 0.932 A 1.259 1.259 0 0 0 43.505 0.979 A 0.973 0.973 0 0 0 43.082 1.228 Q 42.785 1.525 42.785 2.035 A 1.325 1.325 0 0 0 42.83 2.387 A 0.994 0.994 0 0 0 43.077 2.823 A 0.974 0.974 0 0 0 43.64 3.108 A 1.382 1.382 0 0 0 43.858 3.125 A 1.279 1.279 0 0 0 44.202 3.08 A 0.952 0.952 0 0 0 44.638 2.823 A 1.018 1.018 0 0 0 44.913 2.26 A 1.426 1.426 0 0 0 44.93 2.035 A 1.282 1.282 0 0 0 44.88 1.668 A 1.013 1.013 0 0 0 44.627 1.239 Q 44.323 0.932 43.858 0.932 Z M 9.018 5.418 L 9.018 4.443 L 8.38 4.443 Q 6.886 4.443 6.886 5.317 Q 6.886 5.7 7.141 5.915 A 0.893 0.893 0 0 0 7.555 6.108 A 1.259 1.259 0 0 0 7.796 6.13 A 1.429 1.429 0 0 0 8.521 5.933 A 1.335 1.335 0 0 0 8.817 5.705 A 1.108 1.108 0 0 0 9.018 5.418 Z M 28.384 5.418 L 28.384 4.443 L 27.747 4.443 Q 26.253 4.443 26.253 5.317 Q 26.253 5.7 26.508 5.915 A 0.893 0.893 0 0 0 26.921 6.108 A 1.259 1.259 0 0 0 27.163 6.13 A 1.429 1.429 0 0 0 27.888 5.933 A 1.335 1.335 0 0 0 28.183 5.705 A 1.108 1.108 0 0 0 28.384 5.418 Z M 57.938 5.418 L 57.938 4.443 L 57.3 4.443 Q 55.806 4.443 55.806 5.317 Q 55.806 5.7 56.061 5.915 A 0.893 0.893 0 0 0 56.475 6.108 A 1.259 1.259 0 0 0 56.716 6.13 A 1.429 1.429 0 0 0 57.441 5.933 A 1.335 1.335 0 0 0 57.737 5.705 A 1.108 1.108 0 0 0 57.938 5.418 Z M 14.678 3.938 L 17.06 3.938 L 17.06 3.876 Q 17.034 3.417 16.863 3.111 A 1.13 1.13 0 0 0 16.726 2.916 A 0.983 0.983 0 0 0 16.071 2.584 A 1.39 1.39 0 0 0 15.917 2.575 A 1.106 1.106 0 0 0 15.395 2.698 A 1.14 1.14 0 0 0 15.091 2.933 A 1.417 1.417 0 0 0 14.814 3.379 Q 14.741 3.563 14.701 3.785 A 2.741 2.741 0 0 0 14.678 3.938 Z" vector-effect="non-scaling-stroke"/></g>
</svgversion="1.0" encoding="UTF-8"?>
<svg width="48px" height="48px" viewBox="0 0 48 48" version="1.1" xmlns="http://www.w3.org/2000/svg" xmlns:xlink="http://www.w3.org/1999/xlink">
    <title>Icon-Resource/Networking-and-Content-Delivery/Res_AWS-Amazon-VPC_Customer-Gateway_48_Dark</title>
    <g id="Icon-Resource/Networking-and-Content-Delivery/Res_AWS-Amazon-VPC_Customer-Gateway_48" stroke="none" stroke-width="1" fill="none" fill-rule="evenodd">
        <path transform="translate(0vw, 0vh), scale(.65)" d="M42.2081,24.707 L37.8331,29.082 L36.4191,27.668 L39.0871,25 L25.0001,25 L25.0001,39.086 L27.6681,36.418 L29.0821,37.832 L24.7071,42.207 C24.5121,42.402 24.2561,42.5 24.0001,42.5 C23.7441,42.5 23.4881,42.402 23.2931,42.207 L18.9181,37.832 L20.3321,36.418 L23.0001,39.086 L23.0001,25 L8.9151,25 L11.5831,27.668 L10.1691,29.082 L5.7941,24.707 C5.4031,24.316 5.4031,23.684 5.7941,23.293 L10.1691,18.917 L11.5831,20.331 L8.9151,23 L23.0001,23 L23.0001,8.913 L20.3321,11.581 L18.9181,10.167 L23.2931,5.792 C23.6841,5.401 24.3161,5.401 24.7071,5.792 L29.0821,10.167 L27.6681,11.581 L25.0001,8.913 L25.0001,23 L39.0871,23 L36.4191,20.331 L37.8331,18.917 L42.2081,23.293 C42.5991,23.684 42.5991,24.316 42.2081,24.707 M24.0001,44 C12.9721,44 4.0001,35.028 4.0001,24 C4.0001,12.972 12.9721,4 24.0001,4 C35.0281,4 44.0001,12.972 44.0001,24 C44.0001,35.028 35.0281,44 24.0001,44 M24.0001,2 C11.8691,2 2.0001,11.869 2.0001,24 C2.0001,36.131 11.8691,46 24.0001,46 C36.1311,46 46.0001,36.131 46.0001,24 C46.0001,11.869 36.1311,2 24.0001,2" id="AWS-Amazon-VPC_Customer-gateway_Resource-Icon_light-bg" fill="#000000"></path>
    </g><g id="svgGroup" stroke-linecap="round" fill-rule="evenodd" font-size="9pt" stroke="#000" stroke-width="0.25mm" fill="#000" style="stroke:#000;stroke-width:0.25mm;fill:#000"><path d="M 43.422 1.732 L 44.191 1.732 L 44.213 2.259 Q 44.736 1.644 45.624 1.644 A 2.009 2.009 0 0 1 46.135 1.704 A 1.244 1.244 0 0 1 46.982 2.408 A 1.801 1.801 0 0 1 47.599 1.855 A 1.65 1.65 0 0 1 48.129 1.673 A 2.209 2.209 0 0 1 48.498 1.644 A 2.119 2.119 0 0 1 49.142 1.733 Q 50.069 2.029 50.089 3.3 L 50.089 6.486 L 49.276 6.486 L 49.276 3.349 A 1.781 1.781 0 0 0 49.255 3.069 Q 49.232 2.921 49.181 2.803 A 0.758 0.758 0 0 0 49.043 2.586 A 0.68 0.68 0 0 0 48.79 2.418 Q 48.579 2.334 48.262 2.334 A 1.245 1.245 0 0 0 47.896 2.385 A 1.008 1.008 0 0 0 47.509 2.604 A 1.042 1.042 0 0 0 47.195 3.14 A 1.41 1.41 0 0 0 47.162 3.331 L 47.162 6.486 L 46.345 6.486 L 46.345 3.371 A 1.532 1.532 0 0 0 46.296 2.967 Q 46.169 2.504 45.712 2.38 A 1.457 1.457 0 0 0 45.33 2.334 Q 44.556 2.334 44.255 2.971 A 1.459 1.459 0 0 0 44.235 3.015 L 44.235 6.486 L 43.422 6.486 L 43.422 1.732 Z M 15.882 4.456 L 16.73 4.456 A 3.016 3.016 0 0 1 16.569 5.152 A 2.099 2.099 0 0 1 15.981 6.023 Q 15.35 6.574 14.304 6.574 A 2.553 2.553 0 0 1 13.435 6.432 A 2.194 2.194 0 0 1 12.487 5.761 A 2.789 2.789 0 0 1 11.925 4.638 Q 11.819 4.22 11.806 3.728 A 5.262 5.262 0 0 1 11.804 3.586 L 11.804 2.971 A 4.251 4.251 0 0 1 11.874 2.182 A 3.229 3.229 0 0 1 12.122 1.402 A 2.539 2.539 0 0 1 12.578 0.726 A 2.26 2.26 0 0 1 13.025 0.363 A 2.415 2.415 0 0 1 14.051 0.017 A 3.027 3.027 0 0 1 14.379 0 A 2.962 2.962 0 0 1 15.085 0.08 A 2.065 2.065 0 0 1 16.014 0.569 A 2.16 2.16 0 0 1 16.608 1.531 A 3.086 3.086 0 0 1 16.73 2.145 L 15.882 2.145 Q 15.813 1.666 15.643 1.352 A 1.223 1.223 0 0 0 15.405 1.037 A 1.207 1.207 0 0 0 14.9 0.76 Q 14.713 0.707 14.489 0.697 A 2.396 2.396 0 0 0 14.379 0.694 A 1.753 1.753 0 0 0 13.801 0.786 A 1.463 1.463 0 0 0 13.111 1.292 A 1.989 1.989 0 0 0 12.797 1.912 Q 12.652 2.372 12.652 2.993 L 12.652 3.612 Q 12.652 4.654 13.087 5.269 A 1.38 1.38 0 0 0 14.085 5.872 A 1.814 1.814 0 0 0 14.304 5.884 A 2.497 2.497 0 0 0 14.712 5.853 Q 14.931 5.817 15.107 5.738 A 1.155 1.155 0 0 0 15.383 5.566 Q 15.759 5.247 15.882 4.456 Z M 23.968 4.456 L 24.816 4.456 A 3.016 3.016 0 0 1 24.655 5.152 A 2.099 2.099 0 0 1 24.067 6.023 Q 23.436 6.574 22.39 6.574 A 2.553 2.553 0 0 1 21.521 6.432 A 2.194 2.194 0 0 1 20.573 5.761 A 2.789 2.789 0 0 1 20.011 4.638 Q 19.905 4.22 19.892 3.728 A 5.262 5.262 0 0 1 19.89 3.586 L 19.89 2.971 A 4.251 4.251 0 0 1 19.96 2.182 A 3.229 3.229 0 0 1 20.208 1.402 A 2.539 2.539 0 0 1 20.664 0.726 A 2.26 2.26 0 0 1 21.111 0.363 A 2.415 2.415 0 0 1 22.137 0.017 A 3.027 3.027 0 0 1 22.465 0 A 2.962 2.962 0 0 1 23.171 0.08 A 2.065 2.065 0 0 1 24.1 0.569 A 2.16 2.16 0 0 1 24.694 1.531 A 3.086 3.086 0 0 1 24.816 2.145 L 23.968 2.145 Q 23.899 1.666 23.729 1.352 A 1.223 1.223 0 0 0 23.491 1.037 A 1.207 1.207 0 0 0 22.986 0.76 Q 22.799 0.707 22.575 0.697 A 2.396 2.396 0 0 0 22.465 0.694 A 1.753 1.753 0 0 0 21.886 0.786 A 1.463 1.463 0 0 0 21.197 1.292 A 1.989 1.989 0 0 0 20.883 1.912 Q 20.738 2.372 20.738 2.993 L 20.738 3.612 Q 20.738 4.654 21.173 5.269 A 1.38 1.38 0 0 0 22.171 5.872 A 1.814 1.814 0 0 0 22.39 5.884 A 2.497 2.497 0 0 0 22.798 5.853 Q 23.017 5.817 23.193 5.738 A 1.155 1.155 0 0 0 23.469 5.566 Q 23.845 5.247 23.968 4.456 Z M 0.918 0.088 L 2.738 5.366 L 4.566 0.088 L 5.489 0.088 L 3.116 6.486 L 2.369 6.486 L 0 0.088 L 0.918 0.088 Z M 34.339 3.129 L 33.521 3.129 Q 33.521 2.795 33.238 2.553 Q 32.955 2.312 32.524 2.312 Q 32.08 2.312 31.83 2.505 A 0.653 0.653 0 0 0 31.655 2.704 Q 31.581 2.835 31.579 3 A 0.771 0.771 0 0 0 31.579 3.01 A 0.588 0.588 0 0 0 31.609 3.203 A 0.48 0.48 0 0 0 31.812 3.454 A 1.093 1.093 0 0 0 31.962 3.533 Q 32.126 3.605 32.382 3.673 A 6.581 6.581 0 0 0 32.654 3.74 A 6.318 6.318 0 0 1 33.061 3.845 Q 33.398 3.944 33.64 4.065 A 1.901 1.901 0 0 1 33.896 4.218 Q 34.033 4.315 34.13 4.429 A 1.06 1.06 0 0 1 34.2 4.52 A 1.024 1.024 0 0 1 34.363 4.927 A 1.388 1.388 0 0 1 34.383 5.168 Q 34.383 5.805 33.873 6.19 Q 33.391 6.554 32.637 6.573 A 3.337 3.337 0 0 1 32.55 6.574 A 2.746 2.746 0 0 1 32.016 6.525 A 2.124 2.124 0 0 1 31.54 6.372 A 1.771 1.771 0 0 1 31.106 6.094 A 1.54 1.54 0 0 1 30.852 5.807 Q 30.604 5.445 30.604 5.023 L 31.417 5.023 A 0.932 0.932 0 0 0 31.49 5.348 A 0.827 0.827 0 0 0 31.744 5.671 A 1.072 1.072 0 0 0 32.146 5.864 Q 32.301 5.903 32.482 5.91 A 2.013 2.013 0 0 0 32.55 5.911 A 1.863 1.863 0 0 0 32.846 5.889 Q 33.007 5.863 33.139 5.806 A 0.941 0.941 0 0 0 33.291 5.724 A 0.689 0.689 0 0 0 33.455 5.574 A 0.554 0.554 0 0 0 33.57 5.225 A 0.698 0.698 0 0 0 33.533 4.994 A 0.581 0.581 0 0 0 33.322 4.713 A 1.05 1.05 0 0 0 33.153 4.615 Q 32.964 4.524 32.669 4.449 A 5.392 5.392 0 0 0 32.456 4.399 A 6.342 6.342 0 0 1 32.095 4.311 Q 31.725 4.21 31.476 4.083 Q 31.177 3.93 31.007 3.731 A 1.017 1.017 0 0 1 30.94 3.643 Q 30.766 3.388 30.766 3.037 A 1.206 1.206 0 0 1 31.165 2.132 A 1.694 1.694 0 0 1 31.26 2.048 A 1.752 1.752 0 0 1 32.044 1.688 A 2.471 2.471 0 0 1 32.524 1.644 A 2.559 2.559 0 0 1 33.087 1.702 A 1.757 1.757 0 0 1 33.836 2.061 Q 34.339 2.479 34.339 3.129 Z M 28.793 6.486 L 28.775 6.016 A 1.526 1.526 0 0 1 27.949 6.511 Q 27.699 6.572 27.402 6.574 A 2.996 2.996 0 0 1 27.382 6.574 A 2.086 2.086 0 0 1 26.922 6.527 Q 26.492 6.429 26.224 6.133 A 1.41 1.41 0 0 1 25.941 5.635 Q 25.825 5.292 25.822 4.825 L 25.822 1.732 L 26.635 1.732 L 26.635 4.803 Q 26.635 5.773 27.343 5.873 A 1.229 1.229 0 0 0 27.514 5.884 A 1.927 1.927 0 0 0 27.965 5.835 Q 28.528 5.7 28.753 5.19 L 28.753 1.732 L 29.566 1.732 L 29.566 6.486 L 28.793 6.486 Z M 51.108 4.241 L 51.108 4.091 A 3.17 3.17 0 0 1 51.185 3.382 A 2.581 2.581 0 0 1 51.379 2.828 A 2.191 2.191 0 0 1 51.826 2.202 A 2.033 2.033 0 0 1 52.135 1.958 Q 52.62 1.644 53.187 1.644 A 2.254 2.254 0 0 1 53.8 1.723 A 1.639 1.639 0 0 1 54.628 2.254 Q 55.143 2.865 55.143 4.004 L 55.143 4.342 L 51.921 4.342 A 2.111 2.111 0 0 0 51.992 4.85 A 1.516 1.516 0 0 0 52.332 5.478 A 1.282 1.282 0 0 0 53.266 5.909 A 1.652 1.652 0 0 0 53.332 5.911 A 1.763 1.763 0 0 0 53.66 5.882 Q 53.884 5.839 54.062 5.735 A 1.827 1.827 0 0 0 54.57 5.287 A 2.068 2.068 0 0 0 54.584 5.269 L 55.081 5.656 A 1.926 1.926 0 0 1 53.681 6.547 A 2.749 2.749 0 0 1 53.288 6.574 A 2.394 2.394 0 0 1 52.537 6.461 A 1.974 1.974 0 0 1 51.715 5.939 Q 51.108 5.304 51.108 4.241 Z M 8.697 3.982 L 7.189 3.982 L 7.189 6.486 L 6.346 6.486 L 6.346 0.088 L 8.706 0.088 A 3.315 3.315 0 0 1 9.37 0.151 Q 9.773 0.233 10.084 0.424 A 1.839 1.839 0 0 1 10.351 0.624 A 1.772 1.772 0 0 1 10.939 1.841 A 2.45 2.45 0 0 1 10.947 2.044 Q 10.947 2.975 10.365 3.478 Q 9.886 3.892 9.066 3.966 A 4.14 4.14 0 0 1 8.697 3.982 Z M 35.732 0.58 L 36.545 0.58 L 36.545 1.732 L 37.433 1.732 L 37.433 2.36 L 36.545 2.36 L 36.545 5.309 Q 36.545 5.594 36.664 5.737 Q 36.782 5.88 37.068 5.88 A 1.046 1.046 0 0 0 37.165 5.875 Q 37.268 5.865 37.408 5.837 A 4.024 4.024 0 0 0 37.455 5.827 L 37.455 6.486 A 2.463 2.463 0 0 1 37.022 6.566 A 2.157 2.157 0 0 1 36.831 6.574 Q 36.383 6.574 36.117 6.352 A 0.856 0.856 0 0 1 36.009 6.245 Q 35.781 5.974 35.741 5.516 A 2.351 2.351 0 0 1 35.732 5.309 L 35.732 2.36 L 34.866 2.36 L 34.866 1.732 L 35.732 1.732 L 35.732 0.58 Z M 38.079 4.122 L 38.079 4.065 A 3.057 3.057 0 0 1 38.166 3.323 A 2.573 2.573 0 0 1 38.353 2.808 A 2.16 2.16 0 0 1 38.768 2.223 A 1.957 1.957 0 0 1 39.118 1.947 A 2.036 2.036 0 0 1 40.062 1.65 A 2.491 2.491 0 0 1 40.236 1.644 A 2.277 2.277 0 0 1 40.99 1.763 A 1.937 1.937 0 0 1 41.807 2.316 A 2.29 2.29 0 0 1 42.326 3.345 A 3.373 3.373 0 0 1 42.407 4.105 L 42.407 4.162 A 3.114 3.114 0 0 1 42.328 4.878 A 2.577 2.577 0 0 1 42.141 5.408 A 2.056 2.056 0 0 1 41.614 6.098 A 2.001 2.001 0 0 1 41.381 6.267 A 2.045 2.045 0 0 1 40.461 6.565 A 2.529 2.529 0 0 1 40.245 6.574 A 2.262 2.262 0 0 1 39.495 6.455 A 1.938 1.938 0 0 1 38.678 5.902 A 2.297 2.297 0 0 1 38.153 4.847 A 3.357 3.357 0 0 1 38.079 4.122 Z M 58.381 1.705 L 58.381 2.461 A 2.251 2.251 0 0 0 58.139 2.435 A 2.782 2.782 0 0 0 57.981 2.43 Q 57.204 2.43 56.912 3.075 A 1.445 1.445 0 0 0 56.896 3.111 L 56.896 6.486 L 56.083 6.486 L 56.083 1.732 L 56.874 1.732 L 56.887 2.281 Q 57.268 1.675 57.95 1.645 A 1.636 1.636 0 0 1 58.021 1.644 Q 58.258 1.644 58.381 1.705 Z M 38.896 4.162 A 2.772 2.772 0 0 0 38.943 4.69 Q 39.004 5.001 39.141 5.246 A 1.545 1.545 0 0 0 39.263 5.432 Q 39.63 5.911 40.245 5.911 A 1.269 1.269 0 0 0 40.735 5.819 Q 41.014 5.704 41.217 5.442 A 1.471 1.471 0 0 0 41.229 5.425 A 1.648 1.648 0 0 0 41.484 4.908 Q 41.553 4.681 41.579 4.409 A 3.655 3.655 0 0 0 41.594 4.065 A 2.687 2.687 0 0 0 41.543 3.525 Q 41.475 3.195 41.318 2.936 A 1.586 1.586 0 0 0 41.223 2.797 A 1.231 1.231 0 0 0 40.808 2.442 Q 40.555 2.312 40.236 2.312 Q 39.646 2.312 39.28 2.771 A 1.515 1.515 0 0 0 39.265 2.791 A 1.589 1.589 0 0 0 39.013 3.288 Q 38.944 3.509 38.915 3.775 A 3.676 3.676 0 0 0 38.896 4.162 Z M 7.189 0.782 L 7.189 3.292 L 8.706 3.292 A 2.313 2.313 0 0 0 9.098 3.26 Q 9.315 3.223 9.487 3.141 A 1.097 1.097 0 0 0 9.743 2.973 A 1.028 1.028 0 0 0 10.06 2.433 Q 10.102 2.265 10.103 2.065 A 1.996 1.996 0 0 0 10.103 2.052 A 1.466 1.466 0 0 0 10.049 1.645 A 1.112 1.112 0 0 0 9.743 1.138 Q 9.382 0.796 8.754 0.782 L 7.189 0.782 Z M 51.948 3.674 L 54.33 3.674 L 54.33 3.612 Q 54.304 3.154 54.133 2.848 A 1.13 1.13 0 0 0 53.996 2.652 A 0.983 0.983 0 0 0 53.341 2.32 A 1.39 1.39 0 0 0 53.187 2.312 A 1.106 1.106 0 0 0 52.665 2.435 A 1.14 1.14 0 0 0 52.361 2.67 A 1.417 1.417 0 0 0 52.084 3.116 Q 52.011 3.3 51.971 3.522 A 2.741 2.741 0 0 0 51.948 3.674 Z" vector-effect="non-scaling-stroke"/></g><g transform="translate(10.8095, 64), scale(0.75)" id="svgGroup" stroke-linecap="round" fill-rule="evenodd" font-size="9pt" stroke="#000" stroke-width="0.25mm" fill="#000" style="stroke:#000;stroke-width:0.25mm;fill:#000"><path d="M 21.894 1.995 L 23.023 5.629 L 23.937 1.995 L 24.75 1.995 L 23.366 6.75 L 22.707 6.75 L 21.551 3.146 L 20.426 6.75 L 19.767 6.75 L 18.387 1.995 L 19.195 1.995 L 20.131 5.555 L 21.239 1.995 L 21.894 1.995 Z M 4.931 3.564 L 4.931 5.911 A 1.895 1.895 0 0 1 4.207 6.525 A 2.364 2.364 0 0 1 4.023 6.607 A 3.162 3.162 0 0 1 3.351 6.787 Q 3.04 6.836 2.69 6.838 A 5.148 5.148 0 0 1 2.668 6.838 A 2.838 2.838 0 0 1 1.845 6.722 A 2.459 2.459 0 0 1 1.279 6.471 A 2.43 2.43 0 0 1 0.372 5.49 A 2.924 2.924 0 0 1 0.341 5.427 A 3.277 3.277 0 0 1 0.052 4.497 A 4.307 4.307 0 0 1 0 3.858 L 0 3.3 Q 0 1.854 0.675 1.059 A 2.198 2.198 0 0 1 2.028 0.307 A 3.227 3.227 0 0 1 2.571 0.264 Q 3.573 0.264 4.184 0.776 A 2.047 2.047 0 0 1 4.806 1.701 A 2.896 2.896 0 0 1 4.931 2.228 L 4.087 2.228 Q 3.88 1.12 2.884 0.979 A 2.195 2.195 0 0 0 2.575 0.958 A 1.917 1.917 0 0 0 2.041 1.028 A 1.386 1.386 0 0 0 1.29 1.553 A 1.986 1.986 0 0 0 1.006 2.125 Q 0.919 2.396 0.88 2.726 A 4.871 4.871 0 0 0 0.848 3.278 L 0.848 3.801 A 3.827 3.827 0 0 0 0.906 4.489 Q 1.017 5.096 1.34 5.513 A 1.569 1.569 0 0 0 2.48 6.139 A 2.069 2.069 0 0 0 2.672 6.148 Q 3.105 6.148 3.439 6.06 A 2.106 2.106 0 0 0 3.503 6.042 A 1.357 1.357 0 0 0 3.891 5.86 A 1.217 1.217 0 0 0 4.091 5.687 L 4.091 4.25 L 2.61 4.25 L 2.61 3.564 L 4.931 3.564 Z M 66.054 6.75 L 64.398 4.548 L 63.888 5.08 L 63.888 6.75 L 63.075 6.75 L 63.075 0 L 63.888 0 L 63.888 4.083 L 64.323 3.56 L 65.804 1.995 L 66.793 1.995 L 64.942 3.981 L 67.008 6.75 L 66.054 6.75 Z M 30.775 1.995 L 31.962 5.559 L 33.069 1.995 L 33.939 1.995 L 32.027 7.484 Q 31.584 8.67 30.617 8.67 L 30.463 8.657 L 30.16 8.6 L 30.16 7.941 L 30.379 7.958 Q 30.659 7.958 30.856 7.882 A 0.75 0.75 0 0 0 31.023 7.792 A 0.749 0.749 0 0 0 31.183 7.629 Q 31.302 7.47 31.392 7.215 A 2.575 2.575 0 0 0 31.403 7.181 L 31.584 6.697 L 29.887 1.995 L 30.775 1.995 Z M 9.998 6.75 L 9.145 6.75 A 0.632 0.632 0 0 1 9.11 6.66 Q 9.078 6.562 9.054 6.41 A 3.997 3.997 0 0 1 9.031 6.249 Q 8.464 6.838 7.677 6.838 A 2.033 2.033 0 0 1 7.148 6.772 A 1.529 1.529 0 0 1 6.524 6.44 Q 6.073 6.042 6.073 5.432 Q 6.073 4.689 6.638 4.278 Q 7.203 3.867 8.227 3.867 L 9.018 3.867 L 9.018 3.494 A 1.152 1.152 0 0 0 8.982 3.199 A 0.828 0.828 0 0 0 8.763 2.815 Q 8.546 2.6 8.156 2.568 A 1.748 1.748 0 0 0 8.011 2.562 Q 7.576 2.562 7.282 2.782 Q 6.987 3.001 6.987 3.313 L 6.17 3.313 A 1.041 1.041 0 0 1 6.295 2.825 A 1.409 1.409 0 0 1 6.423 2.626 Q 6.675 2.294 7.108 2.101 A 2.249 2.249 0 0 1 7.884 1.913 A 2.669 2.669 0 0 1 8.06 1.907 A 2.65 2.65 0 0 1 8.577 1.955 Q 8.884 2.016 9.123 2.156 A 1.439 1.439 0 0 1 9.347 2.318 A 1.396 1.396 0 0 1 9.801 3.144 A 1.998 1.998 0 0 1 9.831 3.45 L 9.831 5.638 Q 9.831 6.073 9.904 6.39 A 1.707 1.707 0 0 0 9.998 6.68 L 9.998 6.75 Z M 29.364 6.75 L 28.512 6.75 A 0.632 0.632 0 0 1 28.476 6.66 Q 28.445 6.562 28.42 6.41 A 3.997 3.997 0 0 1 28.398 6.249 Q 27.831 6.838 27.044 6.838 A 2.033 2.033 0 0 1 26.515 6.772 A 1.529 1.529 0 0 1 25.89 6.44 Q 25.44 6.042 25.44 5.432 Q 25.44 4.689 26.005 4.278 Q 26.569 3.867 27.593 3.867 L 28.384 3.867 L 28.384 3.494 A 1.152 1.152 0 0 0 28.349 3.199 A 0.828 0.828 0 0 0 28.129 2.815 Q 27.913 2.6 27.523 2.568 A 1.748 1.748 0 0 0 27.378 2.562 Q 26.943 2.562 26.649 2.782 Q 26.354 3.001 26.354 3.313 L 25.537 3.313 A 1.041 1.041 0 0 1 25.662 2.825 A 1.409 1.409 0 0 1 25.789 2.626 Q 26.042 2.294 26.475 2.101 A 2.249 2.249 0 0 1 27.251 1.913 A 2.669 2.669 0 0 1 27.426 1.907 A 2.65 2.65 0 0 1 27.944 1.955 Q 28.251 2.016 28.49 2.156 A 1.439 1.439 0 0 1 28.714 2.318 A 1.396 1.396 0 0 1 29.167 3.144 A 1.998 1.998 0 0 1 29.197 3.45 L 29.197 5.638 Q 29.197 6.073 29.271 6.39 A 1.707 1.707 0 0 0 29.364 6.68 L 29.364 6.75 Z M 58.918 6.75 L 58.065 6.75 A 0.632 0.632 0 0 1 58.03 6.66 Q 57.998 6.562 57.973 6.41 A 3.997 3.997 0 0 1 57.951 6.249 Q 57.384 6.838 56.597 6.838 A 2.033 2.033 0 0 1 56.068 6.772 A 1.529 1.529 0 0 1 55.444 6.44 Q 54.993 6.042 54.993 5.432 Q 54.993 4.689 55.558 4.278 Q 56.123 3.867 57.147 3.867 L 57.938 3.867 L 57.938 3.494 A 1.152 1.152 0 0 0 57.902 3.199 A 0.828 0.828 0 0 0 57.683 2.815 Q 57.466 2.6 57.076 2.568 A 1.748 1.748 0 0 0 56.931 2.562 Q 56.496 2.562 56.202 2.782 Q 55.907 3.001 55.907 3.313 L 55.09 3.313 A 1.041 1.041 0 0 1 55.215 2.825 A 1.409 1.409 0 0 1 55.343 2.626 Q 55.595 2.294 56.028 2.101 A 2.249 2.249 0 0 1 56.804 1.913 A 2.669 2.669 0 0 1 56.98 1.907 A 2.65 2.65 0 0 1 57.497 1.955 Q 57.804 2.016 58.043 2.156 A 1.439 1.439 0 0 1 58.267 2.318 A 1.396 1.396 0 0 1 58.721 3.144 A 1.998 1.998 0 0 1 58.751 3.45 L 58.751 5.638 Q 58.751 6.073 58.824 6.39 A 1.707 1.707 0 0 0 58.918 6.68 L 58.918 6.75 Z M 13.838 4.504 L 13.838 4.355 A 3.17 3.17 0 0 1 13.915 3.646 A 2.581 2.581 0 0 1 14.109 3.092 A 2.191 2.191 0 0 1 14.556 2.466 A 2.033 2.033 0 0 1 14.865 2.221 Q 15.35 1.907 15.917 1.907 A 2.254 2.254 0 0 1 16.53 1.986 A 1.639 1.639 0 0 1 17.358 2.518 Q 17.873 3.129 17.873 4.267 L 17.873 4.605 L 14.651 4.605 A 2.111 2.111 0 0 0 14.723 5.114 A 1.516 1.516 0 0 0 15.062 5.741 A 1.282 1.282 0 0 0 15.996 6.173 A 1.652 1.652 0 0 0 16.062 6.174 A 1.763 1.763 0 0 0 16.39 6.145 Q 16.614 6.103 16.792 5.999 A 1.827 1.827 0 0 0 17.3 5.551 A 2.068 2.068 0 0 0 17.315 5.533 L 17.811 5.919 A 1.926 1.926 0 0 1 16.411 6.811 A 2.749 2.749 0 0 1 16.018 6.838 A 2.394 2.394 0 0 1 15.267 6.725 A 1.974 1.974 0 0 1 14.445 6.203 Q 13.838 5.568 13.838 4.504 Z M 40.241 0.352 L 40.241 4.601 L 41.129 4.601 L 41.129 5.265 L 40.241 5.265 L 40.241 6.75 L 39.423 6.75 L 39.423 5.265 L 36.51 5.265 L 36.51 4.786 L 39.375 0.352 L 40.241 0.352 Z M 51.126 6.75 L 49.355 6.75 L 49.355 0.352 L 51.161 0.352 Q 51.996 0.352 52.638 0.721 Q 53.279 1.09 53.629 1.771 A 3.19 3.19 0 0 1 53.946 2.8 A 4.073 4.073 0 0 1 53.983 3.335 L 53.983 3.744 Q 53.983 4.649 53.633 5.331 A 2.457 2.457 0 0 1 52.636 6.376 Q 51.987 6.741 51.126 6.75 Z M 45.639 2.592 A 1.544 1.544 0 0 0 45.743 2.021 A 2.226 2.226 0 0 0 45.721 1.707 A 1.566 1.566 0 0 0 45.222 0.738 A 1.754 1.754 0 0 0 44.456 0.333 A 2.443 2.443 0 0 0 43.858 0.264 A 2.539 2.539 0 0 0 43.348 0.312 A 1.767 1.767 0 0 0 42.491 0.738 Q 41.972 1.213 41.972 2.021 A 1.808 1.808 0 0 0 41.973 2.058 A 1.499 1.499 0 0 0 42.218 2.87 A 1.626 1.626 0 0 0 42.38 3.077 A 1.726 1.726 0 0 0 42.891 3.454 A 2.119 2.119 0 0 0 42.791 3.5 A 1.738 1.738 0 0 0 42.106 4.087 A 1.629 1.629 0 0 0 41.823 5.023 A 2.272 2.272 0 0 0 41.833 5.237 A 1.63 1.63 0 0 0 42.379 6.344 A 1.895 1.895 0 0 0 43.229 6.771 A 2.797 2.797 0 0 0 43.858 6.838 A 2.796 2.796 0 0 0 44.456 6.777 A 1.925 1.925 0 0 0 45.332 6.346 A 1.578 1.578 0 0 0 45.807 5.62 A 1.989 1.989 0 0 0 45.892 5.023 A 1.581 1.581 0 0 0 45.6 4.087 Q 45.308 3.674 44.807 3.458 Q 45.237 3.248 45.49 2.874 A 1.449 1.449 0 0 0 45.639 2.592 Z M 11.395 0.844 L 12.208 0.844 L 12.208 1.995 L 13.096 1.995 L 13.096 2.624 L 12.208 2.624 L 12.208 5.572 Q 12.208 5.858 12.327 6.001 Q 12.445 6.144 12.731 6.144 A 1.046 1.046 0 0 0 12.829 6.138 Q 12.931 6.129 13.071 6.101 A 4.024 4.024 0 0 0 13.118 6.091 L 13.118 6.75 A 2.463 2.463 0 0 1 12.685 6.829 A 2.157 2.157 0 0 1 12.494 6.838 Q 12.047 6.838 11.78 6.616 A 0.856 0.856 0 0 1 11.672 6.508 Q 11.445 6.238 11.404 5.78 A 2.351 2.351 0 0 1 11.395 5.572 L 11.395 2.624 L 10.529 2.624 L 10.529 1.995 L 11.395 1.995 L 11.395 0.844 Z M 62.323 1.969 L 62.323 2.725 A 2.251 2.251 0 0 0 62.081 2.698 A 2.782 2.782 0 0 0 61.923 2.694 Q 61.146 2.694 60.854 3.338 A 1.445 1.445 0 0 0 60.838 3.375 L 60.838 6.75 L 60.025 6.75 L 60.025 1.995 L 60.816 1.995 L 60.829 2.544 Q 61.21 1.938 61.892 1.909 A 1.636 1.636 0 0 1 61.963 1.907 Q 62.2 1.907 62.323 1.969 Z M 51.183 1.046 L 50.199 1.046 L 50.199 6.06 L 51.087 6.06 A 2.519 2.519 0 0 0 51.719 5.985 A 1.747 1.747 0 0 0 52.605 5.454 Q 53.064 4.94 53.135 4.059 A 4.165 4.165 0 0 0 53.148 3.727 L 53.148 3.353 Q 53.148 2.562 52.878 2.027 A 1.864 1.864 0 0 0 52.636 1.659 A 1.687 1.687 0 0 0 51.64 1.09 A 2.499 2.499 0 0 0 51.183 1.046 Z M 39.327 1.639 L 37.433 4.601 L 39.423 4.601 L 39.423 1.463 L 39.327 1.639 Z M 45.079 5.005 A 1.375 1.375 0 0 0 45.02 4.592 A 1.109 1.109 0 0 0 44.739 4.131 A 1.148 1.148 0 0 0 44.067 3.807 A 1.593 1.593 0 0 0 43.849 3.792 A 1.466 1.466 0 0 0 43.46 3.841 A 1.086 1.086 0 0 0 42.968 4.126 A 1.123 1.123 0 0 0 42.654 4.762 A 1.572 1.572 0 0 0 42.636 5.005 A 1.48 1.48 0 0 0 42.678 5.367 A 1.019 1.019 0 0 0 42.959 5.862 Q 43.265 6.158 43.798 6.173 A 2.053 2.053 0 0 0 43.858 6.174 Q 44.351 6.174 44.661 5.94 A 1.018 1.018 0 0 0 44.754 5.86 A 1.041 1.041 0 0 0 45.053 5.292 A 1.518 1.518 0 0 0 45.079 5.005 Z M 43.858 0.932 A 1.259 1.259 0 0 0 43.505 0.979 A 0.973 0.973 0 0 0 43.082 1.228 Q 42.785 1.525 42.785 2.035 A 1.325 1.325 0 0 0 42.83 2.387 A 0.994 0.994 0 0 0 43.077 2.823 A 0.974 0.974 0 0 0 43.64 3.108 A 1.382 1.382 0 0 0 43.858 3.125 A 1.279 1.279 0 0 0 44.202 3.08 A 0.952 0.952 0 0 0 44.638 2.823 A 1.018 1.018 0 0 0 44.913 2.26 A 1.426 1.426 0 0 0 44.93 2.035 A 1.282 1.282 0 0 0 44.88 1.668 A 1.013 1.013 0 0 0 44.627 1.239 Q 44.323 0.932 43.858 0.932 Z M 9.018 5.418 L 9.018 4.443 L 8.38 4.443 Q 6.886 4.443 6.886 5.317 Q 6.886 5.7 7.141 5.915 A 0.893 0.893 0 0 0 7.555 6.108 A 1.259 1.259 0 0 0 7.796 6.13 A 1.429 1.429 0 0 0 8.521 5.933 A 1.335 1.335 0 0 0 8.817 5.705 A 1.108 1.108 0 0 0 9.018 5.418 Z M 28.384 5.418 L 28.384 4.443 L 27.747 4.443 Q 26.253 4.443 26.253 5.317 Q 26.253 5.7 26.508 5.915 A 0.893 0.893 0 0 0 26.921 6.108 A 1.259 1.259 0 0 0 27.163 6.13 A 1.429 1.429 0 0 0 27.888 5.933 A 1.335 1.335 0 0 0 28.183 5.705 A 1.108 1.108 0 0 0 28.384 5.418 Z M 57.938 5.418 L 57.938 4.443 L 57.3 4.443 Q 55.806 4.443 55.806 5.317 Q 55.806 5.7 56.061 5.915 A 0.893 0.893 0 0 0 56.475 6.108 A 1.259 1.259 0 0 0 56.716 6.13 A 1.429 1.429 0 0 0 57.441 5.933 A 1.335 1.335 0 0 0 57.737 5.705 A 1.108 1.108 0 0 0 57.938 5.418 Z M 14.678 3.938 L 17.06 3.938 L 17.06 3.876 Q 17.034 3.417 16.863 3.111 A 1.13 1.13 0 0 0 16.726 2.916 A 0.983 0.983 0 0 0 16.071 2.584 A 1.39 1.39 0 0 0 15.917 2.575 A 1.106 1.106 0 0 0 15.395 2.698 A 1.14 1.14 0 0 0 15.091 2.933 A 1.417 1.417 0 0 0 14.814 3.379 Q 14.741 3.563 14.701 3.785 A 2.741 2.741 0 0 0 14.678 3.938 Z" vector-effect="non-scaling-stroke"/></g>
</svg>