<?xml version="1.0" encoding="UTF-8"?>
<svg width="80px" height="80px" viewBox="0 0 80 80" version="1.1" xmlns="http://www.w3.org/2000/svg" xmlns:xlink="http://www.w3.org/1999/xlink">
    <title>Icon-Architecture/64/Arch_Elastic-Fabric-Adapter_64</title>
    
    <g id="Icon-Architecture/64/Arch_Elastic-Fabric-Adapter_64" stroke="none" stroke-width="1" fill="none" fill-rule="evenodd">
        
        <g id="Icon-Service/64/Elastic-Fabric-Adapter_64" transform="translate(16, 8), scale(.65)" fill="#000000">
            <path d="M12.401,24.362 L10.536,23.637 C13.937,14.882 22.563,9 32,9 C41.436,9 50.062,14.882 53.464,23.637 L51.598,24.362 C48.494,16.369 40.618,11 32,11 C23.381,11 15.505,16.369 12.401,24.362 L12.401,24.362 Z M51.598,39.637 L53.464,40.362 C50.062,49.117 41.436,55 32,55 C22.563,55 13.937,49.117 10.536,40.362 L12.401,39.637 C15.505,47.63 23.381,53 32,53 C40.618,53 48.494,47.63 51.598,39.637 L51.598,39.637 Z M58,35.552 C58,35.795 57.795,36 57.551,36 L50.448,36 C50.205,36 50,35.795 50,35.552 L50,28.447 C50,28.205 50.205,28 50.448,28 L57.551,28 C57.795,28 58,28.205 58,28.447 L58,35.552 Z M57.551,26 L50.448,26 C49.098,26 48,27.098 48,28.447 L48,35.552 C48,36.902 49.098,38 50.448,38 L57.551,38 C58.901,38 60,36.902 60,35.552 L60,28.447 C60,27.098 58.901,26 57.551,26 L57.551,26 Z M6,35.552 L6,28.447 C6,28.205 6.205,28 6.448,28 L13.551,28 C13.795,28 14,28.205 14,28.447 L14,35.552 C14,35.795 13.795,36 13.551,36 L6.448,36 C6.205,36 6,35.795 6,35.552 L6,35.552 Z M16,35.552 L16,28.447 C16,27.098 14.901,26 13.551,26 L6.448,26 C5.098,26 4,27.098 4,28.447 L4,35.552 C4,36.902 5.098,38 6.448,38 L13.551,38 C14.901,38 16,36.902 16,35.552 L16,35.552 Z M33,33 L38,33 L38,29 L33,29 L33,33 Z M26,33 L31,33 L31,29 L26,29 L26,33 Z M24,35 L40,35 L40,27 L24,27 L24,35 Z M31,37 L31,40 L22,40 L22,37 L20,37 L20,25 L44,25 L44,37 L40,37 L40,40 L37,40 L37,37 L31,37 Z M42,42 L42,39 L46,39 L46,23 L18,23 L18,39 L20,39 L20,42 L33,42 L33,39 L35,39 L35,42 L42,42 Z" id="Fill-1"></path>
        </g>
    </g><g id="svgGroup" stroke-linecap="round" fill-rule="evenodd" font-size="9pt" stroke="#000" stroke-width="0.25mm" fill="#000" style="stroke:#000;stroke-width:0.25mm;fill:#000"><path d="M 3.617 3.103 L 3.617 3.792 L 0.844 3.792 L 0.844 6.06 L 4.065 6.06 L 4.065 6.75 L 0 6.75 L 0 0.352 L 4.021 0.352 L 4.021 1.046 L 0.844 1.046 L 0.844 3.103 L 3.617 3.103 Z M 32.427 3.234 L 32.427 3.924 L 29.742 3.924 L 29.742 6.75 L 28.898 6.75 L 28.898 0.352 L 32.862 0.352 L 32.862 1.046 L 29.742 1.046 L 29.742 3.234 L 32.427 3.234 Z M 15.605 3.393 L 14.788 3.393 Q 14.788 3.059 14.504 2.817 Q 14.221 2.575 13.79 2.575 Q 13.346 2.575 13.096 2.769 A 0.653 0.653 0 0 0 12.921 2.967 Q 12.848 3.098 12.845 3.263 A 0.771 0.771 0 0 0 12.845 3.274 A 0.588 0.588 0 0 0 12.875 3.467 A 0.48 0.48 0 0 0 13.078 3.718 A 1.093 1.093 0 0 0 13.228 3.796 Q 13.393 3.868 13.648 3.937 A 6.581 6.581 0 0 0 13.92 4.003 A 6.318 6.318 0 0 1 14.327 4.108 Q 14.664 4.208 14.906 4.329 A 1.901 1.901 0 0 1 15.162 4.481 Q 15.299 4.579 15.396 4.692 A 1.06 1.06 0 0 1 15.467 4.783 A 1.024 1.024 0 0 1 15.629 5.191 A 1.388 1.388 0 0 1 15.649 5.432 Q 15.649 6.069 15.139 6.453 Q 14.657 6.817 13.903 6.837 A 3.337 3.337 0 0 1 13.816 6.838 A 2.746 2.746 0 0 1 13.282 6.788 A 2.124 2.124 0 0 1 12.806 6.636 A 1.771 1.771 0 0 1 12.372 6.358 A 1.54 1.54 0 0 1 12.118 6.071 Q 11.87 5.708 11.87 5.287 L 12.683 5.287 A 0.932 0.932 0 0 0 12.756 5.612 A 0.827 0.827 0 0 0 13.01 5.935 A 1.072 1.072 0 0 0 13.412 6.128 Q 13.567 6.167 13.748 6.173 A 2.013 2.013 0 0 0 13.816 6.174 A 1.863 1.863 0 0 0 14.112 6.152 Q 14.274 6.126 14.405 6.07 A 0.941 0.941 0 0 0 14.557 5.988 A 0.689 0.689 0 0 0 14.721 5.837 A 0.554 0.554 0 0 0 14.836 5.489 A 0.698 0.698 0 0 0 14.8 5.258 A 0.581 0.581 0 0 0 14.588 4.977 A 1.05 1.05 0 0 0 14.419 4.878 Q 14.23 4.788 13.935 4.712 A 5.392 5.392 0 0 0 13.722 4.663 A 6.342 6.342 0 0 1 13.361 4.575 Q 12.991 4.473 12.742 4.346 Q 12.443 4.194 12.273 3.994 A 1.017 1.017 0 0 1 12.206 3.907 Q 12.032 3.652 12.032 3.3 A 1.206 1.206 0 0 1 12.431 2.396 A 1.694 1.694 0 0 1 12.527 2.312 A 1.752 1.752 0 0 1 13.31 1.952 A 2.471 2.471 0 0 1 13.79 1.907 A 2.559 2.559 0 0 1 14.354 1.966 A 1.757 1.757 0 0 1 15.102 2.325 Q 15.605 2.742 15.605 3.393 Z M 24.86 5.251 L 25.629 5.251 A 1.432 1.432 0 0 1 25.43 5.901 A 1.772 1.772 0 0 1 25.348 6.029 A 1.828 1.828 0 0 1 24.738 6.574 A 2.169 2.169 0 0 1 24.656 6.618 A 1.997 1.997 0 0 1 23.739 6.838 A 2.346 2.346 0 0 1 23.042 6.739 A 1.839 1.839 0 0 1 22.195 6.19 A 2.171 2.171 0 0 1 21.731 5.31 Q 21.621 4.909 21.621 4.417 L 21.621 4.28 A 3.24 3.24 0 0 1 21.685 3.624 A 2.57 2.57 0 0 1 21.876 3.045 A 2.008 2.008 0 0 1 22.316 2.431 A 1.892 1.892 0 0 1 22.608 2.206 A 1.943 1.943 0 0 1 23.364 1.934 A 2.529 2.529 0 0 1 23.735 1.907 A 2.196 2.196 0 0 1 24.383 1.999 A 1.786 1.786 0 0 1 25.064 2.386 A 1.693 1.693 0 0 1 25.623 3.535 A 2.239 2.239 0 0 1 25.629 3.63 L 24.86 3.63 Q 24.825 3.168 24.51 2.872 A 1.078 1.078 0 0 0 23.781 2.576 A 1.402 1.402 0 0 0 23.735 2.575 A 1.374 1.374 0 0 0 23.313 2.637 A 1.081 1.081 0 0 0 22.775 3.021 A 1.469 1.469 0 0 0 22.548 3.468 Q 22.482 3.674 22.454 3.923 A 3.514 3.514 0 0 0 22.434 4.311 L 22.434 4.465 Q 22.434 5.287 22.772 5.73 A 1.1 1.1 0 0 0 23.559 6.165 A 1.611 1.611 0 0 0 23.739 6.174 A 1.171 1.171 0 0 0 24.5 5.911 A 1.007 1.007 0 0 0 24.744 5.629 A 0.914 0.914 0 0 0 24.86 5.251 Z M 51.798 5.251 L 52.567 5.251 A 1.432 1.432 0 0 1 52.368 5.901 A 1.772 1.772 0 0 1 52.286 6.029 A 1.828 1.828 0 0 1 51.677 6.574 A 2.169 2.169 0 0 1 51.594 6.618 A 1.997 1.997 0 0 1 50.678 6.838 A 2.346 2.346 0 0 1 49.98 6.739 A 1.839 1.839 0 0 1 49.133 6.19 A 2.171 2.171 0 0 1 48.669 5.31 Q 48.56 4.909 48.56 4.417 L 48.56 4.28 A 3.24 3.24 0 0 1 48.623 3.624 A 2.57 2.57 0 0 1 48.814 3.045 A 2.008 2.008 0 0 1 49.254 2.431 A 1.892 1.892 0 0 1 49.546 2.206 A 1.943 1.943 0 0 1 50.302 1.934 A 2.529 2.529 0 0 1 50.673 1.907 A 2.196 2.196 0 0 1 51.321 1.999 A 1.786 1.786 0 0 1 52.003 2.386 A 1.693 1.693 0 0 1 52.561 3.535 A 2.239 2.239 0 0 1 52.567 3.63 L 51.798 3.63 Q 51.763 3.168 51.449 2.872 A 1.078 1.078 0 0 0 50.72 2.576 A 1.402 1.402 0 0 0 50.673 2.575 A 1.374 1.374 0 0 0 50.252 2.637 A 1.081 1.081 0 0 0 49.713 3.021 A 1.469 1.469 0 0 0 49.486 3.468 Q 49.421 3.674 49.393 3.923 A 3.514 3.514 0 0 0 49.373 4.311 L 49.373 4.465 Q 49.373 5.287 49.711 5.73 A 1.1 1.1 0 0 0 50.498 6.165 A 1.611 1.611 0 0 0 50.678 6.174 A 1.171 1.171 0 0 0 51.438 5.911 A 1.007 1.007 0 0 0 51.682 5.629 A 0.914 0.914 0 0 0 51.798 5.251 Z M 10.96 6.75 L 10.107 6.75 A 0.632 0.632 0 0 1 10.072 6.66 Q 10.041 6.562 10.016 6.41 A 3.997 3.997 0 0 1 9.993 6.249 Q 9.426 6.838 8.64 6.838 A 2.033 2.033 0 0 1 8.11 6.772 A 1.529 1.529 0 0 1 7.486 6.44 Q 7.036 6.042 7.036 5.432 Q 7.036 4.689 7.6 4.278 Q 8.165 3.867 9.189 3.867 L 9.98 3.867 L 9.98 3.494 A 1.152 1.152 0 0 0 9.944 3.199 A 0.828 0.828 0 0 0 9.725 2.815 Q 9.509 2.6 9.118 2.568 A 1.748 1.748 0 0 0 8.974 2.562 Q 8.539 2.562 8.244 2.782 Q 7.95 3.001 7.95 3.313 L 7.132 3.313 A 1.041 1.041 0 0 1 7.257 2.825 A 1.409 1.409 0 0 1 7.385 2.626 Q 7.638 2.294 8.071 2.101 A 2.249 2.249 0 0 1 8.846 1.913 A 2.669 2.669 0 0 1 9.022 1.907 A 2.65 2.65 0 0 1 9.539 1.955 Q 9.847 2.016 10.085 2.156 A 1.439 1.439 0 0 1 10.31 2.318 A 1.396 1.396 0 0 1 10.763 3.144 A 1.998 1.998 0 0 1 10.793 3.45 L 10.793 5.638 Q 10.793 6.073 10.867 6.39 A 1.707 1.707 0 0 0 10.96 6.68 L 10.96 6.75 Z M 37.384 6.75 L 36.532 6.75 A 0.632 0.632 0 0 1 36.496 6.66 Q 36.465 6.562 36.44 6.41 A 3.997 3.997 0 0 1 36.417 6.249 Q 35.851 6.838 35.064 6.838 A 2.033 2.033 0 0 1 34.535 6.772 A 1.529 1.529 0 0 1 33.91 6.44 Q 33.46 6.042 33.46 5.432 Q 33.46 4.689 34.025 4.278 Q 34.589 3.867 35.613 3.867 L 36.404 3.867 L 36.404 3.494 A 1.152 1.152 0 0 0 36.369 3.199 A 0.828 0.828 0 0 0 36.149 2.815 Q 35.933 2.6 35.543 2.568 A 1.748 1.748 0 0 0 35.398 2.562 Q 34.963 2.562 34.668 2.782 Q 34.374 3.001 34.374 3.313 L 33.557 3.313 A 1.041 1.041 0 0 1 33.682 2.825 A 1.409 1.409 0 0 1 33.809 2.626 Q 34.062 2.294 34.495 2.101 A 2.249 2.249 0 0 1 35.271 1.913 A 2.669 2.669 0 0 1 35.446 1.907 A 2.65 2.65 0 0 1 35.964 1.955 Q 36.271 2.016 36.51 2.156 A 1.439 1.439 0 0 1 36.734 2.318 A 1.396 1.396 0 0 1 37.187 3.144 A 1.998 1.998 0 0 1 37.217 3.45 L 37.217 5.638 Q 37.217 6.073 37.291 6.39 A 1.707 1.707 0 0 0 37.384 6.68 L 37.384 6.75 Z M 42.517 4.355 L 42.517 4.425 Q 42.517 5.308 42.189 5.909 A 2.141 2.141 0 0 1 42.016 6.177 A 1.647 1.647 0 0 1 41.429 6.673 Q 41.114 6.828 40.724 6.837 A 2.112 2.112 0 0 1 40.671 6.838 A 2.039 2.039 0 0 1 40.077 6.756 A 1.561 1.561 0 0 1 39.278 6.201 L 39.239 6.75 L 38.492 6.75 L 38.492 0 L 39.305 0 L 39.305 2.518 A 1.605 1.605 0 0 1 40.471 1.915 A 2.285 2.285 0 0 1 40.663 1.907 A 1.835 1.835 0 0 1 41.294 2.011 A 1.579 1.579 0 0 1 42.023 2.562 Q 42.437 3.11 42.504 3.998 A 4.727 4.727 0 0 1 42.517 4.355 Z M 16.998 0.844 L 17.811 0.844 L 17.811 1.995 L 18.699 1.995 L 18.699 2.624 L 17.811 2.624 L 17.811 5.572 Q 17.811 5.858 17.93 6.001 Q 18.048 6.144 18.334 6.144 A 1.046 1.046 0 0 0 18.431 6.138 Q 18.534 6.129 18.674 6.101 A 4.024 4.024 0 0 0 18.721 6.091 L 18.721 6.75 A 2.463 2.463 0 0 1 18.288 6.829 A 2.157 2.157 0 0 1 18.097 6.838 Q 17.65 6.838 17.383 6.616 A 0.856 0.856 0 0 1 17.275 6.508 Q 17.047 6.238 17.007 5.78 A 2.351 2.351 0 0 1 16.998 5.572 L 16.998 2.624 L 16.132 2.624 L 16.132 1.995 L 16.998 1.995 L 16.998 0.844 Z M 5.871 0 L 5.871 6.75 L 5.058 6.75 L 5.058 0 L 5.871 0 Z M 45.839 1.969 L 45.839 2.725 A 2.251 2.251 0 0 0 45.597 2.698 A 2.782 2.782 0 0 0 45.439 2.694 Q 44.662 2.694 44.37 3.338 A 1.445 1.445 0 0 0 44.354 3.375 L 44.354 6.75 L 43.541 6.75 L 43.541 1.995 L 44.332 1.995 L 44.345 2.544 Q 44.726 1.938 45.408 1.909 A 1.636 1.636 0 0 1 45.479 1.907 Q 45.716 1.907 45.839 1.969 Z M 20.531 1.995 L 20.531 6.75 L 19.718 6.75 L 19.718 1.995 L 20.531 1.995 Z M 47.47 1.995 L 47.47 6.75 L 46.657 6.75 L 46.657 1.995 L 47.47 1.995 Z M 39.305 3.344 L 39.305 5.401 A 1.528 1.528 0 0 0 39.591 5.807 Q 39.913 6.127 40.403 6.147 A 1.621 1.621 0 0 0 40.469 6.148 A 1.206 1.206 0 0 0 40.886 6.079 A 1.04 1.04 0 0 0 41.379 5.695 Q 41.704 5.243 41.704 4.333 Q 41.704 3.502 41.383 3.05 A 1.03 1.03 0 0 0 40.633 2.607 A 1.449 1.449 0 0 0 40.46 2.597 A 1.34 1.34 0 0 0 39.951 2.69 Q 39.533 2.86 39.305 3.344 Z M 9.98 5.418 L 9.98 4.443 L 9.343 4.443 Q 7.849 4.443 7.849 5.317 Q 7.849 5.7 8.104 5.915 A 0.893 0.893 0 0 0 8.517 6.108 A 1.259 1.259 0 0 0 8.758 6.13 A 1.429 1.429 0 0 0 9.483 5.933 A 1.335 1.335 0 0 0 9.779 5.705 A 1.108 1.108 0 0 0 9.98 5.418 Z M 36.404 5.418 L 36.404 4.443 L 35.767 4.443 Q 34.273 4.443 34.273 5.317 Q 34.273 5.7 34.528 5.915 A 0.893 0.893 0 0 0 34.941 6.108 A 1.259 1.259 0 0 0 35.183 6.13 A 1.429 1.429 0 0 0 35.908 5.933 A 1.335 1.335 0 0 0 36.203 5.705 A 1.108 1.108 0 0 0 36.404 5.418 Z M 19.652 0.734 Q 19.652 0.536 19.773 0.4 Q 19.885 0.274 20.097 0.264 A 0.783 0.783 0 0 1 20.131 0.264 Q 20.369 0.264 20.492 0.4 A 0.474 0.474 0 0 1 20.614 0.703 A 0.614 0.614 0 0 1 20.615 0.734 A 0.523 0.523 0 0 1 20.589 0.9 A 0.442 0.442 0 0 1 20.492 1.063 Q 20.379 1.184 20.171 1.194 A 0.803 0.803 0 0 1 20.131 1.195 Q 19.959 1.195 19.848 1.126 A 0.362 0.362 0 0 1 19.773 1.063 A 0.456 0.456 0 0 1 19.655 0.788 A 0.605 0.605 0 0 1 19.652 0.734 Z M 46.591 0.734 Q 46.591 0.536 46.712 0.4 Q 46.824 0.274 47.035 0.264 A 0.783 0.783 0 0 1 47.07 0.264 Q 47.307 0.264 47.43 0.4 A 0.474 0.474 0 0 1 47.552 0.703 A 0.614 0.614 0 0 1 47.553 0.734 A 0.523 0.523 0 0 1 47.528 0.9 A 0.442 0.442 0 0 1 47.43 1.063 Q 47.318 1.184 47.11 1.194 A 0.803 0.803 0 0 1 47.07 1.195 Q 46.898 1.195 46.787 1.126 A 0.362 0.362 0 0 1 46.712 1.063 A 0.456 0.456 0 0 1 46.593 0.788 A 0.605 0.605 0 0 1 46.591 0.734 Z" vector-effect="non-scaling-stroke"/></g><g transform="translate(13.7165, 64), scale(0.75)" id="svgGroup" stroke-linecap="round" fill-rule="evenodd" font-size="9pt" stroke="#000" stroke-width="0.25mm" fill="#000" style="stroke:#000;stroke-width:0.25mm;fill:#000"><path d="M 4.764 6.75 L 4.153 5.08 L 1.472 5.08 L 0.87 6.75 L 0 6.75 L 2.443 0.352 L 3.182 0.352 L 5.629 6.75 L 4.764 6.75 Z M 15.227 6.75 L 14.375 6.75 A 0.632 0.632 0 0 1 14.339 6.66 Q 14.308 6.562 14.283 6.41 A 3.997 3.997 0 0 1 14.26 6.249 Q 13.693 6.838 12.907 6.838 A 2.033 2.033 0 0 1 12.377 6.772 A 1.529 1.529 0 0 1 11.753 6.44 Q 11.303 6.042 11.303 5.432 Q 11.303 4.689 11.867 4.278 Q 12.432 3.867 13.456 3.867 L 14.247 3.867 L 14.247 3.494 A 1.152 1.152 0 0 0 14.211 3.199 A 0.828 0.828 0 0 0 13.992 2.815 Q 13.776 2.6 13.386 2.568 A 1.748 1.748 0 0 0 13.241 2.562 Q 12.806 2.562 12.511 2.782 Q 12.217 3.001 12.217 3.313 L 11.399 3.313 A 1.041 1.041 0 0 1 11.524 2.825 A 1.409 1.409 0 0 1 11.652 2.626 Q 11.905 2.294 12.338 2.101 A 2.249 2.249 0 0 1 13.113 1.913 A 2.669 2.669 0 0 1 13.289 1.907 A 2.65 2.65 0 0 1 13.807 1.955 Q 14.114 2.016 14.353 2.156 A 1.439 1.439 0 0 1 14.577 2.318 A 1.396 1.396 0 0 1 15.03 3.144 A 1.998 1.998 0 0 1 15.06 3.45 L 15.06 5.638 Q 15.06 6.073 15.134 6.39 A 1.707 1.707 0 0 0 15.227 6.68 L 15.227 6.75 Z M 6.166 4.395 L 6.166 4.333 A 3.762 3.762 0 0 1 6.232 3.602 Q 6.32 3.16 6.523 2.812 A 2.148 2.148 0 0 1 6.684 2.573 Q 7.203 1.907 8.042 1.907 A 1.964 1.964 0 0 1 8.64 1.994 A 1.559 1.559 0 0 1 9.365 2.479 L 9.365 0 L 10.178 0 L 10.178 6.75 L 9.431 6.75 L 9.391 6.24 Q 8.903 6.838 8.033 6.838 A 1.6 1.6 0 0 1 6.813 6.31 A 2.078 2.078 0 0 1 6.686 6.161 A 2.405 2.405 0 0 1 6.262 5.255 Q 6.178 4.912 6.167 4.51 A 4.425 4.425 0 0 1 6.166 4.395 Z M 20.351 4.351 L 20.351 4.425 Q 20.351 5.511 19.854 6.174 A 1.57 1.57 0 0 1 18.716 6.828 A 2.013 2.013 0 0 1 18.51 6.838 A 2.196 2.196 0 0 1 17.924 6.764 A 1.598 1.598 0 0 1 17.147 6.289 L 17.147 8.578 L 16.334 8.578 L 16.334 1.995 L 17.077 1.995 L 17.117 2.522 A 1.619 1.619 0 0 1 18.256 1.919 A 2.319 2.319 0 0 1 18.497 1.907 A 1.829 1.829 0 0 1 19.134 2.014 A 1.597 1.597 0 0 1 19.852 2.553 Q 20.351 3.199 20.351 4.351 Z M 24.117 4.504 L 24.117 4.355 A 3.17 3.17 0 0 1 24.193 3.646 A 2.581 2.581 0 0 1 24.387 3.092 A 2.191 2.191 0 0 1 24.835 2.466 A 2.033 2.033 0 0 1 25.143 2.221 Q 25.629 1.907 26.196 1.907 A 2.254 2.254 0 0 1 26.809 1.986 A 1.639 1.639 0 0 1 27.637 2.518 Q 28.151 3.129 28.151 4.267 L 28.151 4.605 L 24.93 4.605 A 2.111 2.111 0 0 0 25.001 5.114 A 1.516 1.516 0 0 0 25.341 5.741 A 1.282 1.282 0 0 0 26.275 6.173 A 1.652 1.652 0 0 0 26.341 6.174 A 1.763 1.763 0 0 0 26.669 6.145 Q 26.893 6.103 27.07 5.999 A 1.827 1.827 0 0 0 27.579 5.551 A 2.068 2.068 0 0 0 27.593 5.533 L 28.09 5.919 A 1.926 1.926 0 0 1 26.69 6.811 A 2.749 2.749 0 0 1 26.297 6.838 A 2.394 2.394 0 0 1 25.546 6.725 A 1.974 1.974 0 0 1 24.724 6.203 Q 24.117 5.568 24.117 4.504 Z M 21.674 0.844 L 22.487 0.844 L 22.487 1.995 L 23.375 1.995 L 23.375 2.624 L 22.487 2.624 L 22.487 5.572 Q 22.487 5.858 22.605 6.001 Q 22.724 6.144 23.01 6.144 A 1.046 1.046 0 0 0 23.107 6.138 Q 23.21 6.129 23.35 6.101 A 4.024 4.024 0 0 0 23.396 6.091 L 23.396 6.75 A 2.463 2.463 0 0 1 22.964 6.829 A 2.157 2.157 0 0 1 22.772 6.838 Q 22.325 6.838 22.059 6.616 A 0.856 0.856 0 0 1 21.951 6.508 Q 21.723 6.238 21.683 5.78 A 2.351 2.351 0 0 1 21.674 5.572 L 21.674 2.624 L 20.808 2.624 L 20.808 1.995 L 21.674 1.995 L 21.674 0.844 Z M 31.39 1.969 L 31.39 2.725 A 2.251 2.251 0 0 0 31.147 2.698 A 2.782 2.782 0 0 0 30.99 2.694 Q 30.212 2.694 29.921 3.338 A 1.445 1.445 0 0 0 29.905 3.375 L 29.905 6.75 L 29.092 6.75 L 29.092 1.995 L 29.883 1.995 L 29.896 2.544 Q 30.276 1.938 30.959 1.909 A 1.636 1.636 0 0 1 31.03 1.907 Q 31.267 1.907 31.39 1.969 Z M 17.147 3.252 L 17.147 5.524 Q 17.512 6.174 18.264 6.174 A 1.184 1.184 0 0 0 18.729 6.086 Q 18.986 5.977 19.175 5.735 A 1.403 1.403 0 0 0 19.193 5.711 A 1.501 1.501 0 0 0 19.41 5.28 Q 19.478 5.073 19.51 4.818 A 3.91 3.91 0 0 0 19.538 4.333 Q 19.538 3.746 19.355 3.339 A 1.503 1.503 0 0 0 19.195 3.063 A 1.086 1.086 0 0 0 18.409 2.605 A 1.414 1.414 0 0 0 18.255 2.597 Q 17.594 2.597 17.229 3.121 A 1.623 1.623 0 0 0 17.147 3.252 Z M 9.365 5.454 L 9.365 3.27 A 1.375 1.375 0 0 0 9.053 2.874 Q 8.729 2.597 8.244 2.597 A 1.238 1.238 0 0 0 7.817 2.668 A 1.068 1.068 0 0 0 7.312 3.059 A 1.51 1.51 0 0 0 7.103 3.484 Q 7.038 3.689 7.006 3.939 A 3.955 3.955 0 0 0 6.979 4.425 A 3.162 3.162 0 0 0 7.014 4.918 Q 7.056 5.178 7.144 5.389 A 1.474 1.474 0 0 0 7.313 5.691 A 1.06 1.06 0 0 0 8.075 6.139 A 1.391 1.391 0 0 0 8.235 6.148 Q 9.009 6.148 9.365 5.454 Z M 2.813 1.393 L 1.727 4.386 L 3.902 4.386 L 2.813 1.393 Z M 14.247 5.418 L 14.247 4.443 L 13.61 4.443 Q 12.116 4.443 12.116 5.317 Q 12.116 5.7 12.371 5.915 A 0.893 0.893 0 0 0 12.784 6.108 A 1.259 1.259 0 0 0 13.025 6.13 A 1.429 1.429 0 0 0 13.75 5.933 A 1.335 1.335 0 0 0 14.046 5.705 A 1.108 1.108 0 0 0 14.247 5.418 Z M 24.957 3.938 L 27.338 3.938 L 27.338 3.876 Q 27.312 3.417 27.142 3.111 A 1.13 1.13 0 0 0 27.004 2.916 A 0.983 0.983 0 0 0 26.35 2.584 A 1.39 1.39 0 0 0 26.196 2.575 A 1.106 1.106 0 0 0 25.673 2.698 A 1.14 1.14 0 0 0 25.37 2.933 A 1.417 1.417 0 0 0 25.093 3.379 Q 25.019 3.563 24.979 3.785 A 2.741 2.741 0 0 0 24.957 3.938 Z" vector-effect="non-scaling-stroke"/></g>
</svg>