<?xml version="1.0" encoding="UTF-8"?>
<svg width="80px" height="80px" viewBox="0 0 80 80" version="1.1" xmlns="http://www.w3.org/2000/svg" xmlns:xlink="http://www.w3.org/1999/xlink">
    <title>Icon-Architecture/64/Arch_AWS-ThinkBox-Sequoia_64</title>
    
    <g id="Icon-Architecture/64/Arch_AWS-ThinkBox-Sequoia_64" stroke="none" stroke-width="1" fill="none" fill-rule="evenodd">
        
        <g id="Icon-Service/64/AWS-ThinkBox-Sequoia_64" transform="translate(16, 8), scale(.65)" fill="#000000">
            <path d="M32.479,41.30125 C32.652,41.30125 32.825,41.25725 32.979,41.16725 L36.481,39.14525 L35.481,37.41325 L32.479,39.14625 L29.477,37.41325 L28.477,39.14525 L31.979,41.16725 C32.133,41.25725 32.306,41.30125 32.479,41.30125 L32.479,41.30125 Z M56.458,17.69025 L51.563,14.86425 L50.563,16.59625 L53.958,18.55625 L50.563,20.51525 L51.563,22.24825 L54.958,20.28825 L54.958,43.93425 L51.563,41.97425 L50.563,43.70725 L53.958,45.66625 L32.479,58.06725 L11,45.66625 L14.395,43.70725 L13.395,41.97425 L10,43.93425 L10,20.28825 L13.395,22.24825 L14.395,20.51525 L11,18.55625 L14.395,16.59625 L13.395,14.86425 L8.5,17.69025 C8.191,17.86825 8,18.19825 8,18.55625 L8,45.66625 C8,46.02425 8.191,46.35425 8.5,46.53225 L31.979,60.08825 C32.133,60.17725 32.306,60.22225 32.479,60.22225 C32.652,60.22225 32.825,60.17725 32.979,60.08825 L56.458,46.53225 C56.767,46.35425 56.958,46.02425 56.958,45.66625 L56.958,18.55625 C56.958,18.19825 56.767,17.86825 56.458,17.69025 L56.458,17.69025 Z M16.908,38.97525 L32.479,47.96525 L48.05,38.97525 C46.339,37.74525 44.763,36.48225 43.321,35.18525 L40.062,37.06625 L39.062,35.33525 L41.798,33.75425 C40.521,32.49925 39.364,31.21125 38.326,29.89025 L32.979,32.97725 C32.67,33.15625 32.288,33.15625 31.979,32.97725 L26.632,29.89025 C25.592,31.21325 24.434,32.50225 23.155,33.75925 L25.877,35.33525 L24.875,37.06625 L21.632,35.19025 C20.191,36.48525 18.617,37.74625 16.908,38.97525 L16.908,38.97525 Z M27.832,28.27325 L32.479,30.95625 L37.126,28.27325 C34.939,25.14225 33.394,21.82725 32.479,18.31125 C31.564,21.82725 30.019,25.14225 27.832,28.27325 L27.832,28.27325 Z M14.142,29.34525 C18.496,25.42525 20.893,20.38425 20.893,15.15125 L22.893,15.15125 C22.893,18.40925 23.789,21.53925 25.556,24.45325 L23.845,25.49025 C23.022,24.13225 22.37,22.73025 21.889,21.29225 C20.846,24.41725 19.01,27.34625 16.47,29.89125 L21.356,32.71225 C28.154,26.18425 31.479,18.78525 31.479,10.27625 C31.479,9.72325 31.926,9.27625 32.479,9.27625 C33.032,9.27625 33.479,9.72325 33.479,10.27625 C33.479,18.78525 36.804,26.18425 43.602,32.71225 L48.487,29.89125 C45.947,27.34625 44.111,24.41725 43.068,21.29225 C42.588,22.73125 41.935,24.13325 41.112,25.49125 L39.401,24.45425 C41.168,21.54025 42.064,18.41025 42.064,15.15125 L44.064,15.15125 C44.064,20.38425 46.461,25.42525 50.815,29.34525 C51.053,29.55925 51.174,29.87425 51.14,30.19325 C51.107,30.51125 50.923,30.79425 50.646,30.95425 L45.148,34.12925 C46.754,35.53725 48.529,36.90325 50.473,38.23125 C50.757,38.42525 50.922,38.75125 50.909,39.09425 C50.896,39.43825 50.708,39.75125 50.41,39.92325 L32.979,49.98625 C32.825,50.07525 32.652,50.12025 32.479,50.12025 C32.306,50.12025 32.133,50.07525 31.979,49.98625 L14.548,39.92325 C14.25,39.75125 14.062,39.43825 14.049,39.09425 C14.036,38.75125 14.201,38.42525 14.485,38.23125 C16.427,36.90425 18.201,35.53925 19.805,34.13325 L14.31,30.95425 C14.034,30.79425 13.85,30.51025 13.817,30.19325 C13.783,29.87425 13.904,29.55925 14.142,29.34525 L14.142,29.34525 Z M47.166,12.32525 L42.271,9.49925 L41.271,11.23225 L46.166,14.05725 L47.166,12.32525 Z M32.479,6.15525 L36.875,8.69325 L37.875,6.96025 L32.979,4.13425 C32.67,3.95525 32.288,3.95525 31.979,4.13425 L27.084,6.96025 L28.084,8.69325 L32.479,6.15525 Z M18.792,14.05725 L17.792,12.32525 L22.687,9.49925 L23.687,11.23225 L18.792,14.05725 Z" id="Fill-1"></path>
        </g>
    </g><g transform="translate(4.747, 64), scale(0.75)" id="svgGroup" stroke-linecap="round" fill-rule="evenodd" font-size="9pt" stroke="#000" stroke-width="0.25mm" fill="#000" style="stroke:#000;stroke-width:0.25mm;fill:#000"><path d="M 43.589 2.202 L 42.741 2.202 A 1.466 1.466 0 0 0 42.691 1.809 A 1.066 1.066 0 0 0 42.372 1.29 A 1.211 1.211 0 0 0 41.903 1.033 Q 41.651 0.958 41.331 0.958 A 2.286 2.286 0 0 0 40.951 0.988 Q 40.749 1.022 40.586 1.095 A 1.101 1.101 0 0 0 40.357 1.233 A 0.892 0.892 0 0 0 40.012 1.887 A 1.267 1.267 0 0 0 40.008 1.995 A 0.806 0.806 0 0 0 40.276 2.6 A 1.134 1.134 0 0 0 40.34 2.656 A 1.562 1.562 0 0 0 40.578 2.813 Q 40.908 2.993 41.469 3.151 A 8.228 8.228 0 0 1 41.934 3.295 Q 42.169 3.377 42.363 3.464 A 3.297 3.297 0 0 1 42.717 3.645 A 2.342 2.342 0 0 1 43.056 3.889 Q 43.246 4.056 43.368 4.248 A 1.45 1.45 0 0 1 43.385 4.276 A 1.498 1.498 0 0 1 43.581 4.832 A 1.948 1.948 0 0 1 43.603 5.124 A 1.606 1.606 0 0 1 43.48 5.76 Q 43.335 6.101 43.017 6.354 A 1.886 1.886 0 0 1 42.996 6.37 Q 42.39 6.838 41.375 6.838 A 3.023 3.023 0 0 1 40.234 6.623 A 2.917 2.917 0 0 1 40.144 6.585 A 2.383 2.383 0 0 1 39.666 6.307 A 1.874 1.874 0 0 1 39.263 5.893 A 1.689 1.689 0 0 1 38.953 4.896 L 39.801 4.896 A 1.261 1.261 0 0 0 39.871 5.323 A 1.074 1.074 0 0 0 40.23 5.812 Q 40.614 6.113 41.231 6.144 A 2.87 2.87 0 0 0 41.375 6.148 A 2.628 2.628 0 0 0 41.762 6.121 Q 41.958 6.092 42.117 6.031 A 1.129 1.129 0 0 0 42.398 5.875 Q 42.754 5.603 42.754 5.133 A 1.074 1.074 0 0 0 42.712 4.822 A 0.816 0.816 0 0 0 42.425 4.406 Q 42.095 4.148 41.229 3.898 Q 40.144 3.586 39.65 3.131 Q 39.155 2.676 39.155 2.008 Q 39.155 1.252 39.76 0.758 A 2.121 2.121 0 0 1 40.65 0.335 A 3.087 3.087 0 0 1 41.331 0.264 A 2.913 2.913 0 0 1 41.991 0.336 A 2.372 2.372 0 0 1 42.506 0.519 A 2.051 2.051 0 0 1 43.037 0.889 A 1.834 1.834 0 0 1 43.306 1.222 A 1.798 1.798 0 0 1 43.589 2.202 Z M 6.583 0 L 6.583 2.571 A 1.767 1.767 0 0 1 7.249 2.053 A 1.832 1.832 0 0 1 7.989 1.907 A 1.905 1.905 0 0 1 8.623 2.004 Q 9.465 2.3 9.508 3.506 A 3.668 3.668 0 0 1 9.51 3.608 L 9.51 6.75 L 8.697 6.75 L 8.697 3.604 A 1.837 1.837 0 0 0 8.675 3.324 Q 8.624 3.017 8.462 2.843 Q 8.276 2.645 7.922 2.606 A 1.66 1.66 0 0 0 7.743 2.597 A 1.253 1.253 0 0 0 7.329 2.664 A 1.123 1.123 0 0 0 7.049 2.808 A 1.432 1.432 0 0 0 6.583 3.362 L 6.583 6.75 L 5.77 6.75 L 5.77 0 L 6.583 0 Z M 20.861 6.75 L 19.204 4.548 L 18.694 5.08 L 18.694 6.75 L 17.881 6.75 L 17.881 0 L 18.694 0 L 18.694 4.083 L 19.129 3.56 L 20.61 1.995 L 21.599 1.995 L 19.749 3.981 L 21.814 6.75 L 20.861 6.75 Z M 12.911 1.995 L 13.68 1.995 L 13.707 2.593 Q 14.243 1.918 15.103 1.907 A 2.234 2.234 0 0 1 15.13 1.907 A 1.905 1.905 0 0 1 15.764 2.004 Q 16.606 2.3 16.649 3.506 A 3.668 3.668 0 0 1 16.651 3.608 L 16.651 6.75 L 15.838 6.75 L 15.838 3.604 A 1.837 1.837 0 0 0 15.816 3.324 Q 15.765 3.017 15.603 2.843 Q 15.417 2.645 15.063 2.606 A 1.66 1.66 0 0 0 14.884 2.597 A 1.253 1.253 0 0 0 14.47 2.664 A 1.123 1.123 0 0 0 14.19 2.808 A 1.432 1.432 0 0 0 13.724 3.362 L 13.724 6.75 L 12.911 6.75 L 12.911 1.995 Z M 57.393 6.75 L 57.375 6.28 A 1.526 1.526 0 0 1 56.549 6.775 Q 56.299 6.836 56.001 6.838 A 2.996 2.996 0 0 1 55.982 6.838 A 2.086 2.086 0 0 1 55.522 6.79 Q 55.091 6.693 54.824 6.396 A 1.41 1.41 0 0 1 54.541 5.899 Q 54.424 5.556 54.422 5.089 L 54.422 1.995 L 55.235 1.995 L 55.235 5.067 Q 55.235 6.037 55.942 6.137 A 1.229 1.229 0 0 0 56.114 6.148 A 1.927 1.927 0 0 0 56.565 6.099 Q 57.127 5.964 57.353 5.454 L 57.353 1.995 L 58.166 1.995 L 58.166 6.75 L 57.393 6.75 Z M 33.082 1.995 L 34.124 3.731 L 35.178 1.995 L 36.127 1.995 L 34.572 4.346 L 36.176 6.75 L 35.235 6.75 L 34.137 4.97 L 33.038 6.75 L 32.093 6.75 L 33.697 4.346 L 32.142 1.995 L 33.082 1.995 Z M 4.948 0.352 L 4.948 1.046 L 2.892 1.046 L 2.892 6.75 L 2.052 6.75 L 2.052 1.046 L 0 1.046 L 0 0.352 L 4.948 0.352 Z M 70.506 6.75 L 69.653 6.75 A 0.632 0.632 0 0 1 69.618 6.66 Q 69.587 6.562 69.562 6.41 A 3.997 3.997 0 0 1 69.539 6.249 Q 68.972 6.838 68.186 6.838 A 2.033 2.033 0 0 1 67.656 6.772 A 1.529 1.529 0 0 1 67.032 6.44 Q 66.582 6.042 66.582 5.432 Q 66.582 4.689 67.146 4.278 Q 67.711 3.867 68.735 3.867 L 69.526 3.867 L 69.526 3.494 A 1.152 1.152 0 0 0 69.49 3.199 A 0.828 0.828 0 0 0 69.271 2.815 Q 69.055 2.6 68.664 2.568 A 1.748 1.748 0 0 0 68.52 2.562 Q 68.084 2.562 67.79 2.782 Q 67.496 3.001 67.496 3.313 L 66.678 3.313 A 1.041 1.041 0 0 1 66.803 2.825 A 1.409 1.409 0 0 1 66.931 2.626 Q 67.184 2.294 67.616 2.101 A 2.249 2.249 0 0 1 68.392 1.913 A 2.669 2.669 0 0 1 68.568 1.907 A 2.65 2.65 0 0 1 69.085 1.955 Q 69.393 2.016 69.631 2.156 A 1.439 1.439 0 0 1 69.855 2.318 A 1.396 1.396 0 0 1 70.309 3.144 A 1.998 1.998 0 0 1 70.339 3.45 L 70.339 5.638 Q 70.339 6.073 70.413 6.39 A 1.707 1.707 0 0 0 70.506 6.68 L 70.506 6.75 Z M 26.464 4.355 L 26.464 4.425 Q 26.464 5.308 26.135 5.909 A 2.141 2.141 0 0 1 25.963 6.177 A 1.647 1.647 0 0 1 25.376 6.673 Q 25.061 6.828 24.671 6.837 A 2.112 2.112 0 0 1 24.618 6.838 A 2.039 2.039 0 0 1 24.023 6.756 A 1.561 1.561 0 0 1 23.225 6.201 L 23.186 6.75 L 22.438 6.75 L 22.438 0 L 23.251 0 L 23.251 2.518 A 1.605 1.605 0 0 1 24.418 1.915 A 2.285 2.285 0 0 1 24.609 1.907 A 1.835 1.835 0 0 1 25.24 2.011 A 1.579 1.579 0 0 1 25.969 2.562 Q 26.384 3.11 26.451 3.998 A 4.727 4.727 0 0 1 26.464 4.355 Z M 44.35 4.504 L 44.35 4.355 A 3.17 3.17 0 0 1 44.426 3.646 A 2.581 2.581 0 0 1 44.62 3.092 A 2.191 2.191 0 0 1 45.067 2.466 A 2.033 2.033 0 0 1 45.376 2.221 Q 45.861 1.907 46.428 1.907 A 2.254 2.254 0 0 1 47.041 1.986 A 1.639 1.639 0 0 1 47.87 2.518 Q 48.384 3.129 48.384 4.267 L 48.384 4.605 L 45.163 4.605 A 2.111 2.111 0 0 0 45.234 5.114 A 1.516 1.516 0 0 0 45.573 5.741 A 1.282 1.282 0 0 0 46.508 6.173 A 1.652 1.652 0 0 0 46.573 6.174 A 1.763 1.763 0 0 0 46.901 6.145 Q 47.125 6.103 47.303 5.999 A 1.827 1.827 0 0 0 47.812 5.551 A 2.068 2.068 0 0 0 47.826 5.533 L 48.322 5.919 A 1.926 1.926 0 0 1 46.923 6.811 A 2.749 2.749 0 0 1 46.529 6.838 A 2.394 2.394 0 0 1 45.778 6.725 A 1.974 1.974 0 0 1 44.956 6.203 Q 44.35 5.568 44.35 4.504 Z M 49.126 4.39 L 49.126 4.333 Q 49.126 3.212 49.641 2.56 A 1.641 1.641 0 0 1 50.835 1.915 A 2.154 2.154 0 0 1 51.021 1.907 A 2.025 2.025 0 0 1 51.603 1.987 A 1.559 1.559 0 0 1 52.352 2.474 L 52.387 1.995 L 53.134 1.995 L 53.134 8.578 L 52.321 8.578 L 52.321 6.311 A 1.634 1.634 0 0 1 51.295 6.821 A 2.286 2.286 0 0 1 51.012 6.838 A 1.78 1.78 0 0 1 50.325 6.71 Q 49.926 6.545 49.638 6.168 A 2.357 2.357 0 0 1 49.239 5.332 Q 49.126 4.909 49.126 4.39 Z M 27.272 4.386 L 27.272 4.329 A 3.057 3.057 0 0 1 27.359 3.587 A 2.573 2.573 0 0 1 27.547 3.072 A 2.16 2.16 0 0 1 27.962 2.486 A 1.957 1.957 0 0 1 28.312 2.21 A 2.036 2.036 0 0 1 29.256 1.913 A 2.491 2.491 0 0 1 29.43 1.907 A 2.277 2.277 0 0 1 30.184 2.027 A 1.937 1.937 0 0 1 31.001 2.58 A 2.29 2.29 0 0 1 31.52 3.608 A 3.373 3.373 0 0 1 31.601 4.368 L 31.601 4.425 A 3.114 3.114 0 0 1 31.522 5.142 A 2.577 2.577 0 0 1 31.335 5.671 A 2.056 2.056 0 0 1 30.808 6.361 A 2.001 2.001 0 0 1 30.575 6.53 A 2.045 2.045 0 0 1 29.655 6.829 A 2.529 2.529 0 0 1 29.439 6.838 A 2.262 2.262 0 0 1 28.689 6.718 A 1.938 1.938 0 0 1 27.872 6.166 A 2.297 2.297 0 0 1 27.347 5.111 A 3.357 3.357 0 0 1 27.272 4.386 Z M 59.186 4.386 L 59.186 4.329 A 3.057 3.057 0 0 1 59.272 3.587 A 2.573 2.573 0 0 1 59.46 3.072 A 2.16 2.16 0 0 1 59.875 2.486 A 1.957 1.957 0 0 1 60.225 2.21 A 2.036 2.036 0 0 1 61.169 1.913 A 2.491 2.491 0 0 1 61.343 1.907 A 2.277 2.277 0 0 1 62.097 2.027 A 1.937 1.937 0 0 1 62.914 2.58 A 2.29 2.29 0 0 1 63.433 3.608 A 3.373 3.373 0 0 1 63.514 4.368 L 63.514 4.425 A 3.114 3.114 0 0 1 63.435 5.142 A 2.577 2.577 0 0 1 63.248 5.671 A 2.056 2.056 0 0 1 62.721 6.361 A 2.001 2.001 0 0 1 62.488 6.53 A 2.045 2.045 0 0 1 61.568 6.829 A 2.529 2.529 0 0 1 61.352 6.838 A 2.262 2.262 0 0 1 60.602 6.718 A 1.938 1.938 0 0 1 59.785 6.166 A 2.297 2.297 0 0 1 59.26 5.111 A 3.357 3.357 0 0 1 59.186 4.386 Z M 11.61 1.995 L 11.61 6.75 L 10.797 6.75 L 10.797 1.995 L 11.61 1.995 Z M 65.417 1.995 L 65.417 6.75 L 64.604 6.75 L 64.604 1.995 L 65.417 1.995 Z M 28.09 4.425 A 2.772 2.772 0 0 0 28.137 4.954 Q 28.198 5.264 28.335 5.51 A 1.545 1.545 0 0 0 28.457 5.695 Q 28.824 6.174 29.439 6.174 A 1.269 1.269 0 0 0 29.928 6.083 Q 30.208 5.967 30.41 5.706 A 1.471 1.471 0 0 0 30.423 5.689 A 1.648 1.648 0 0 0 30.678 5.171 Q 30.747 4.945 30.773 4.672 A 3.655 3.655 0 0 0 30.788 4.329 A 2.687 2.687 0 0 0 30.737 3.789 Q 30.669 3.459 30.512 3.2 A 1.586 1.586 0 0 0 30.417 3.061 A 1.231 1.231 0 0 0 30.002 2.705 Q 29.749 2.575 29.43 2.575 Q 28.84 2.575 28.474 3.035 A 1.515 1.515 0 0 0 28.459 3.054 A 1.589 1.589 0 0 0 28.207 3.552 Q 28.137 3.772 28.109 4.039 A 3.676 3.676 0 0 0 28.09 4.425 Z M 60.003 4.425 A 2.772 2.772 0 0 0 60.05 4.954 Q 60.111 5.264 60.248 5.51 A 1.545 1.545 0 0 0 60.37 5.695 Q 60.737 6.174 61.352 6.174 A 1.269 1.269 0 0 0 61.841 6.083 Q 62.121 5.967 62.323 5.706 A 1.471 1.471 0 0 0 62.336 5.689 A 1.648 1.648 0 0 0 62.591 5.171 Q 62.66 4.945 62.686 4.672 A 3.655 3.655 0 0 0 62.701 4.329 A 2.687 2.687 0 0 0 62.65 3.789 Q 62.582 3.459 62.425 3.2 A 1.586 1.586 0 0 0 62.33 3.061 A 1.231 1.231 0 0 0 61.915 2.705 Q 61.662 2.575 61.343 2.575 Q 60.753 2.575 60.387 3.035 A 1.515 1.515 0 0 0 60.372 3.054 A 1.589 1.589 0 0 0 60.12 3.552 Q 60.05 3.772 60.022 4.039 A 3.676 3.676 0 0 0 60.003 4.425 Z M 52.321 5.533 L 52.321 3.204 A 1.416 1.416 0 0 0 51.993 2.827 Q 51.673 2.575 51.223 2.575 A 1.19 1.19 0 0 0 50.754 2.665 Q 50.495 2.775 50.305 3.019 A 1.413 1.413 0 0 0 50.287 3.043 A 1.52 1.52 0 0 0 50.068 3.477 Q 49.939 3.868 49.939 4.425 A 3.137 3.137 0 0 0 49.977 4.924 Q 50.019 5.189 50.111 5.404 A 1.501 1.501 0 0 0 50.284 5.708 A 1.149 1.149 0 0 0 50.66 6.043 Q 50.887 6.166 51.173 6.174 A 1.436 1.436 0 0 0 51.214 6.174 A 1.292 1.292 0 0 0 51.756 6.064 Q 52.097 5.909 52.321 5.533 Z M 23.251 3.344 L 23.251 5.401 A 1.528 1.528 0 0 0 23.538 5.807 Q 23.86 6.127 24.35 6.147 A 1.621 1.621 0 0 0 24.416 6.148 A 1.206 1.206 0 0 0 24.833 6.079 A 1.04 1.04 0 0 0 25.326 5.695 Q 25.651 5.243 25.651 4.333 Q 25.651 3.502 25.33 3.05 A 1.03 1.03 0 0 0 24.58 2.607 A 1.449 1.449 0 0 0 24.407 2.597 A 1.34 1.34 0 0 0 23.898 2.69 Q 23.479 2.86 23.251 3.344 Z M 69.526 5.418 L 69.526 4.443 L 68.889 4.443 Q 67.395 4.443 67.395 5.317 Q 67.395 5.7 67.649 5.915 A 0.893 0.893 0 0 0 68.063 6.108 A 1.259 1.259 0 0 0 68.304 6.13 A 1.429 1.429 0 0 0 69.029 5.933 A 1.335 1.335 0 0 0 69.325 5.705 A 1.108 1.108 0 0 0 69.526 5.418 Z M 45.189 3.938 L 47.571 3.938 L 47.571 3.876 Q 47.545 3.417 47.374 3.111 A 1.13 1.13 0 0 0 47.237 2.916 A 0.983 0.983 0 0 0 46.582 2.584 A 1.39 1.39 0 0 0 46.428 2.575 A 1.106 1.106 0 0 0 45.906 2.698 A 1.14 1.14 0 0 0 45.602 2.933 A 1.417 1.417 0 0 0 45.325 3.379 Q 45.252 3.563 45.212 3.785 A 2.741 2.741 0 0 0 45.189 3.938 Z M 10.731 0.734 Q 10.731 0.536 10.852 0.4 Q 10.964 0.274 11.176 0.264 A 0.783 0.783 0 0 1 11.21 0.264 Q 11.448 0.264 11.571 0.4 A 0.474 0.474 0 0 1 11.693 0.703 A 0.614 0.614 0 0 1 11.694 0.734 A 0.523 0.523 0 0 1 11.669 0.9 A 0.442 0.442 0 0 1 11.571 1.063 Q 11.458 1.184 11.25 1.194 A 0.803 0.803 0 0 1 11.21 1.195 Q 11.038 1.195 10.927 1.126 A 0.362 0.362 0 0 1 10.852 1.063 A 0.456 0.456 0 0 1 10.734 0.788 A 0.605 0.605 0 0 1 10.731 0.734 Z M 64.538 0.734 Q 64.538 0.536 64.659 0.4 Q 64.771 0.274 64.983 0.264 A 0.783 0.783 0 0 1 65.017 0.264 Q 65.254 0.264 65.377 0.4 A 0.474 0.474 0 0 1 65.5 0.703 A 0.614 0.614 0 0 1 65.5 0.734 A 0.523 0.523 0 0 1 65.475 0.9 A 0.442 0.442 0 0 1 65.377 1.063 Q 65.265 1.184 65.057 1.194 A 0.803 0.803 0 0 1 65.017 1.195 Q 64.845 1.195 64.734 1.126 A 0.362 0.362 0 0 1 64.659 1.063 A 0.456 0.456 0 0 1 64.54 0.788 A 0.605 0.605 0 0 1 64.538 0.734 Z" vector-effect="non-scaling-stroke"/></g>
</svg>