<?xml version="1.0" encoding="UTF-8"?>
<svg width="48px" height="48px" viewBox="0 0 48 48" version="1.1" xmlns="http://www.w3.org/2000/svg" xmlns:xlink="http://www.w3.org/1999/xlink">
    <title>Icon-Resource/Containers/Res_Amazon-Elastic-Container-Service_Service_48_Dark</title>
    <g id="Icon-Resource/Containers/Res_Amazon-Elastic-Container-Service_Service_48" stroke="none" stroke-width="1" fill="none" fill-rule="evenodd">
        <path transform="translate(12.000000, 8.000000), scale(.65)" d="M24.933,38.213 L37.674,38.213 L37.674,36.213 L24.933,36.213 L24.933,38.213 Z M24.933,28.303 L37.674,28.303 L37.674,26.303 L24.933,26.303 L24.933,28.303 Z M24.933,18.393 L37.674,18.393 L37.674,16.393 L24.933,16.393 L24.933,18.393 Z M19.561,38.337 L21.808,38.337 L21.808,36.09 L19.561,36.09 L19.561,38.337 Z M18.561,40.337 L22.808,40.337 C23.361,40.337 23.808,39.89 23.808,39.337 L23.808,35.09 C23.808,34.537 23.361,34.09 22.808,34.09 L18.561,34.09 C18.009,34.09 17.561,34.537 17.561,35.09 L17.561,39.337 C17.561,39.89 18.009,40.337 18.561,40.337 L18.561,40.337 Z M19.561,28.427 L21.808,28.427 L21.808,26.18 L19.561,26.18 L19.561,28.427 Z M18.561,30.427 L22.808,30.427 C23.361,30.427 23.808,29.98 23.808,29.427 L23.808,25.18 C23.808,24.627 23.361,24.18 22.808,24.18 L18.561,24.18 C18.009,24.18 17.561,24.627 17.561,25.18 L17.561,29.427 C17.561,29.98 18.009,30.427 18.561,30.427 L18.561,30.427 Z M19.561,18.517 L21.808,18.517 L21.808,16.27 L19.561,16.27 L19.561,18.517 Z M18.561,20.517 L22.808,20.517 C23.361,20.517 23.808,20.07 23.808,19.517 L23.808,15.27 C23.808,14.717 23.361,14.27 22.808,14.27 L18.561,14.27 C18.009,14.27 17.561,14.717 17.561,15.27 L17.561,19.517 C17.561,20.07 18.009,20.517 18.561,20.517 L18.561,20.517 Z M16.023,44 L39.506,44 L39.506,12.022 L16.023,12.022 L16.023,44 Z M14.022,11.023 L14.022,39.753 L11.775,39.753 L11.775,7.776 L35.259,7.776 L35.259,10.023 L15.022,10.023 C14.469,10.023 14.022,10.47 14.022,11.023 L14.022,11.023 Z M9.775,6.776 L9.775,35.978 L8,35.978 L8,4 L31.483,4 L31.483,5.776 L10.775,5.776 C10.222,5.776 9.775,6.223 9.775,6.776 L9.775,6.776 Z M40.506,10.023 L37.259,10.023 L37.259,6.776 C37.259,6.223 36.811,5.776 36.259,5.776 L33.483,5.776 L33.483,3 C33.483,2.448 33.036,2 32.483,2 L7,2 C6.447,2 6,2.448 6,3 L6,36.978 C6,37.531 6.447,37.978 7,37.978 L9.775,37.978 L9.775,40.753 C9.775,41.306 10.222,41.753 10.775,41.753 L14.022,41.753 L14.022,45 C14.022,45.553 14.469,46 15.022,46 L40.506,46 C41.058,46 41.506,45.553 41.506,45 L41.506,11.023 C41.506,10.47 41.058,10.023 40.506,10.023 L40.506,10.023 Z" id="Amazon-Elastic-Container-Service_Service_Resource-Icon_light-bg" fill="#000000"></path>
    </g><g transform="translate(25, 83)" id="svgGroup" stroke-linecap="round" fill-rule="evenodd" font-size="9pt" stroke="#000" stroke-width="0.25mm" fill="#000" style="stroke:#000;stroke-width:0.25mm;fill:#000"><path d="M 3.617 3.103 L 3.617 3.792 L 0.844 3.792 L 0.844 6.06 L 4.065 6.06 L 4.065 6.75 L 0 6.75 L 0 0.352 L 4.021 0.352 L 4.021 1.046 L 0.844 1.046 L 0.844 3.103 L 3.617 3.103 Z M 32.757 4.72 L 33.605 4.72 A 3.016 3.016 0 0 1 33.444 5.416 A 2.099 2.099 0 0 1 32.856 6.286 Q 32.225 6.838 31.179 6.838 A 2.553 2.553 0 0 1 30.31 6.696 A 2.194 2.194 0 0 1 29.362 6.025 A 2.789 2.789 0 0 1 28.8 4.901 Q 28.694 4.484 28.681 3.992 A 5.262 5.262 0 0 1 28.679 3.85 L 28.679 3.234 A 4.251 4.251 0 0 1 28.749 2.445 A 3.229 3.229 0 0 1 28.997 1.666 A 2.539 2.539 0 0 1 29.453 0.99 A 2.26 2.26 0 0 1 29.9 0.626 A 2.415 2.415 0 0 1 30.926 0.281 A 3.027 3.027 0 0 1 31.254 0.264 A 2.962 2.962 0 0 1 31.96 0.343 A 2.065 2.065 0 0 1 32.889 0.833 A 2.16 2.16 0 0 1 33.483 1.795 A 3.086 3.086 0 0 1 33.605 2.408 L 32.757 2.408 Q 32.688 1.929 32.518 1.616 A 1.223 1.223 0 0 0 32.28 1.301 A 1.207 1.207 0 0 0 31.775 1.024 Q 31.588 0.971 31.364 0.961 A 2.396 2.396 0 0 0 31.254 0.958 A 1.753 1.753 0 0 0 30.676 1.049 A 1.463 1.463 0 0 0 29.986 1.556 A 1.989 1.989 0 0 0 29.672 2.175 Q 29.527 2.636 29.527 3.256 L 29.527 3.876 Q 29.527 4.917 29.962 5.533 A 1.38 1.38 0 0 0 30.96 6.135 A 1.814 1.814 0 0 0 31.179 6.148 A 2.497 2.497 0 0 0 31.587 6.117 Q 31.806 6.08 31.982 6.002 A 1.155 1.155 0 0 0 32.258 5.829 Q 32.634 5.511 32.757 4.72 Z M 15.605 3.393 L 14.788 3.393 Q 14.788 3.059 14.504 2.817 Q 14.221 2.575 13.79 2.575 Q 13.346 2.575 13.096 2.769 A 0.653 0.653 0 0 0 12.921 2.967 Q 12.848 3.098 12.845 3.263 A 0.771 0.771 0 0 0 12.845 3.274 A 0.588 0.588 0 0 0 12.875 3.467 A 0.48 0.48 0 0 0 13.078 3.718 A 1.093 1.093 0 0 0 13.228 3.796 Q 13.393 3.868 13.648 3.937 A 6.581 6.581 0 0 0 13.92 4.003 A 6.318 6.318 0 0 1 14.327 4.108 Q 14.664 4.208 14.906 4.329 A 1.901 1.901 0 0 1 15.162 4.481 Q 15.299 4.579 15.396 4.692 A 1.06 1.06 0 0 1 15.467 4.783 A 1.024 1.024 0 0 1 15.629 5.191 A 1.388 1.388 0 0 1 15.649 5.432 Q 15.649 6.069 15.139 6.453 Q 14.657 6.817 13.903 6.837 A 3.337 3.337 0 0 1 13.816 6.838 A 2.746 2.746 0 0 1 13.282 6.788 A 2.124 2.124 0 0 1 12.806 6.636 A 1.771 1.771 0 0 1 12.372 6.358 A 1.54 1.54 0 0 1 12.118 6.071 Q 11.87 5.708 11.87 5.287 L 12.683 5.287 A 0.932 0.932 0 0 0 12.756 5.612 A 0.827 0.827 0 0 0 13.01 5.935 A 1.072 1.072 0 0 0 13.412 6.128 Q 13.567 6.167 13.748 6.173 A 2.013 2.013 0 0 0 13.816 6.174 A 1.863 1.863 0 0 0 14.112 6.152 Q 14.274 6.126 14.405 6.07 A 0.941 0.941 0 0 0 14.557 5.988 A 0.689 0.689 0 0 0 14.721 5.837 A 0.554 0.554 0 0 0 14.836 5.489 A 0.698 0.698 0 0 0 14.8 5.258 A 0.581 0.581 0 0 0 14.588 4.977 A 1.05 1.05 0 0 0 14.419 4.878 Q 14.23 4.788 13.935 4.712 A 5.392 5.392 0 0 0 13.722 4.663 A 6.342 6.342 0 0 1 13.361 4.575 Q 12.991 4.473 12.742 4.346 Q 12.443 4.194 12.273 3.994 A 1.017 1.017 0 0 1 12.206 3.907 Q 12.032 3.652 12.032 3.3 A 1.206 1.206 0 0 1 12.431 2.396 A 1.694 1.694 0 0 1 12.527 2.312 A 1.752 1.752 0 0 1 13.31 1.952 A 2.471 2.471 0 0 1 13.79 1.907 A 2.559 2.559 0 0 1 14.354 1.966 A 1.757 1.757 0 0 1 15.102 2.325 Q 15.605 2.742 15.605 3.393 Z M 39.762 1.995 L 40.531 1.995 L 40.557 2.593 Q 41.093 1.918 41.953 1.907 A 2.234 2.234 0 0 1 41.981 1.907 A 1.905 1.905 0 0 1 42.614 2.004 Q 43.456 2.3 43.499 3.506 A 3.668 3.668 0 0 1 43.501 3.608 L 43.501 6.75 L 42.688 6.75 L 42.688 3.604 A 1.837 1.837 0 0 0 42.666 3.324 Q 42.616 3.017 42.453 2.843 Q 42.267 2.645 41.914 2.606 A 1.66 1.66 0 0 0 41.735 2.597 A 1.253 1.253 0 0 0 41.321 2.664 A 1.123 1.123 0 0 0 41.041 2.808 A 1.432 1.432 0 0 0 40.575 3.362 L 40.575 6.75 L 39.762 6.75 L 39.762 1.995 Z M 54.747 1.995 L 55.516 1.995 L 55.542 2.593 Q 56.079 1.918 56.939 1.907 A 2.234 2.234 0 0 1 56.966 1.907 A 1.905 1.905 0 0 1 57.6 2.004 Q 58.442 2.3 58.485 3.506 A 3.668 3.668 0 0 1 58.487 3.608 L 58.487 6.75 L 57.674 6.75 L 57.674 3.604 A 1.837 1.837 0 0 0 57.652 3.324 Q 57.601 3.017 57.439 2.843 Q 57.253 2.645 56.899 2.606 A 1.66 1.66 0 0 0 56.72 2.597 A 1.253 1.253 0 0 0 56.306 2.664 A 1.123 1.123 0 0 0 56.026 2.808 A 1.432 1.432 0 0 0 55.56 3.362 L 55.56 6.75 L 54.747 6.75 L 54.747 1.995 Z M 24.86 5.251 L 25.629 5.251 A 1.432 1.432 0 0 1 25.43 5.901 A 1.772 1.772 0 0 1 25.348 6.029 A 1.828 1.828 0 0 1 24.738 6.574 A 2.169 2.169 0 0 1 24.656 6.618 A 1.997 1.997 0 0 1 23.739 6.838 A 2.346 2.346 0 0 1 23.042 6.739 A 1.839 1.839 0 0 1 22.195 6.19 A 2.171 2.171 0 0 1 21.731 5.31 Q 21.621 4.909 21.621 4.417 L 21.621 4.28 A 3.24 3.24 0 0 1 21.685 3.624 A 2.57 2.57 0 0 1 21.876 3.045 A 2.008 2.008 0 0 1 22.316 2.431 A 1.892 1.892 0 0 1 22.608 2.206 A 1.943 1.943 0 0 1 23.364 1.934 A 2.529 2.529 0 0 1 23.735 1.907 A 2.196 2.196 0 0 1 24.383 1.999 A 1.786 1.786 0 0 1 25.064 2.386 A 1.693 1.693 0 0 1 25.623 3.535 A 2.239 2.239 0 0 1 25.629 3.63 L 24.86 3.63 Q 24.825 3.168 24.51 2.872 A 1.078 1.078 0 0 0 23.781 2.576 A 1.402 1.402 0 0 0 23.735 2.575 A 1.374 1.374 0 0 0 23.313 2.637 A 1.081 1.081 0 0 0 22.775 3.021 A 1.469 1.469 0 0 0 22.548 3.468 Q 22.482 3.674 22.454 3.923 A 3.514 3.514 0 0 0 22.434 4.311 L 22.434 4.465 Q 22.434 5.287 22.772 5.73 A 1.1 1.1 0 0 0 23.559 6.165 A 1.611 1.611 0 0 0 23.739 6.174 A 1.171 1.171 0 0 0 24.5 5.911 A 1.007 1.007 0 0 0 24.744 5.629 A 0.914 0.914 0 0 0 24.86 5.251 Z M 10.96 6.75 L 10.107 6.75 A 0.632 0.632 0 0 1 10.072 6.66 Q 10.041 6.562 10.016 6.41 A 3.997 3.997 0 0 1 9.993 6.249 Q 9.426 6.838 8.64 6.838 A 2.033 2.033 0 0 1 8.11 6.772 A 1.529 1.529 0 0 1 7.486 6.44 Q 7.036 6.042 7.036 5.432 Q 7.036 4.689 7.6 4.278 Q 8.165 3.867 9.189 3.867 L 9.98 3.867 L 9.98 3.494 A 1.152 1.152 0 0 0 9.944 3.199 A 0.828 0.828 0 0 0 9.725 2.815 Q 9.509 2.6 9.118 2.568 A 1.748 1.748 0 0 0 8.974 2.562 Q 8.539 2.562 8.244 2.782 Q 7.95 3.001 7.95 3.313 L 7.132 3.313 A 1.041 1.041 0 0 1 7.257 2.825 A 1.409 1.409 0 0 1 7.385 2.626 Q 7.638 2.294 8.071 2.101 A 2.249 2.249 0 0 1 8.846 1.913 A 2.669 2.669 0 0 1 9.022 1.907 A 2.65 2.65 0 0 1 9.539 1.955 Q 9.847 2.016 10.085 2.156 A 1.439 1.439 0 0 1 10.31 2.318 A 1.396 1.396 0 0 1 10.763 3.144 A 1.998 1.998 0 0 1 10.793 3.45 L 10.793 5.638 Q 10.793 6.073 10.867 6.39 A 1.707 1.707 0 0 0 10.96 6.68 L 10.96 6.75 Z M 51.456 6.75 L 50.603 6.75 A 0.632 0.632 0 0 1 50.568 6.66 Q 50.536 6.562 50.511 6.41 A 3.997 3.997 0 0 1 50.489 6.249 Q 49.922 6.838 49.135 6.838 A 2.033 2.033 0 0 1 48.606 6.772 A 1.529 1.529 0 0 1 47.982 6.44 Q 47.531 6.042 47.531 5.432 Q 47.531 4.689 48.096 4.278 Q 48.661 3.867 49.685 3.867 L 50.476 3.867 L 50.476 3.494 A 1.152 1.152 0 0 0 50.44 3.199 A 0.828 0.828 0 0 0 50.221 2.815 Q 50.004 2.6 49.614 2.568 A 1.748 1.748 0 0 0 49.469 2.562 Q 49.034 2.562 48.74 2.782 Q 48.445 3.001 48.445 3.313 L 47.628 3.313 A 1.041 1.041 0 0 1 47.753 2.825 A 1.409 1.409 0 0 1 47.881 2.626 Q 48.133 2.294 48.566 2.101 A 2.249 2.249 0 0 1 49.342 1.913 A 2.669 2.669 0 0 1 49.518 1.907 A 2.65 2.65 0 0 1 50.035 1.955 Q 50.342 2.016 50.581 2.156 A 1.439 1.439 0 0 1 50.805 2.318 A 1.396 1.396 0 0 1 51.259 3.144 A 1.998 1.998 0 0 1 51.289 3.45 L 51.289 5.638 Q 51.289 6.073 51.362 6.39 A 1.707 1.707 0 0 0 51.456 6.68 L 51.456 6.75 Z M 59.506 4.504 L 59.506 4.355 A 3.17 3.17 0 0 1 59.583 3.646 A 2.581 2.581 0 0 1 59.777 3.092 A 2.191 2.191 0 0 1 60.224 2.466 A 2.033 2.033 0 0 1 60.532 2.221 Q 61.018 1.907 61.585 1.907 A 2.254 2.254 0 0 1 62.198 1.986 A 1.639 1.639 0 0 1 63.026 2.518 Q 63.541 3.129 63.541 4.267 L 63.541 4.605 L 60.319 4.605 A 2.111 2.111 0 0 0 60.39 5.114 A 1.516 1.516 0 0 0 60.73 5.741 A 1.282 1.282 0 0 0 61.664 6.173 A 1.652 1.652 0 0 0 61.73 6.174 A 1.763 1.763 0 0 0 62.058 6.145 Q 62.282 6.103 62.459 5.999 A 1.827 1.827 0 0 0 62.968 5.551 A 2.068 2.068 0 0 0 62.982 5.533 L 63.479 5.919 A 1.926 1.926 0 0 1 62.079 6.811 A 2.749 2.749 0 0 1 61.686 6.838 A 2.394 2.394 0 0 1 60.935 6.725 A 1.974 1.974 0 0 1 60.113 6.203 Q 59.506 5.568 59.506 4.504 Z M 16.998 0.844 L 17.811 0.844 L 17.811 1.995 L 18.699 1.995 L 18.699 2.624 L 17.811 2.624 L 17.811 5.572 Q 17.811 5.858 17.93 6.001 Q 18.048 6.144 18.334 6.144 A 1.046 1.046 0 0 0 18.431 6.138 Q 18.534 6.129 18.674 6.101 A 4.024 4.024 0 0 0 18.721 6.091 L 18.721 6.75 A 2.463 2.463 0 0 1 18.288 6.829 A 2.157 2.157 0 0 1 18.097 6.838 Q 17.65 6.838 17.383 6.616 A 0.856 0.856 0 0 1 17.275 6.508 Q 17.047 6.238 17.007 5.78 A 2.351 2.351 0 0 1 16.998 5.572 L 16.998 2.624 L 16.132 2.624 L 16.132 1.995 L 16.998 1.995 L 16.998 0.844 Z M 45.018 0.844 L 45.831 0.844 L 45.831 1.995 L 46.718 1.995 L 46.718 2.624 L 45.831 2.624 L 45.831 5.572 Q 45.831 5.858 45.949 6.001 Q 46.068 6.144 46.354 6.144 A 1.046 1.046 0 0 0 46.451 6.138 Q 46.554 6.129 46.694 6.101 A 4.024 4.024 0 0 0 46.74 6.091 L 46.74 6.75 A 2.463 2.463 0 0 1 46.307 6.829 A 2.157 2.157 0 0 1 46.116 6.838 Q 45.669 6.838 45.402 6.616 A 0.856 0.856 0 0 1 45.294 6.508 Q 45.067 6.238 45.026 5.78 A 2.351 2.351 0 0 1 45.018 5.572 L 45.018 2.624 L 44.152 2.624 L 44.152 1.995 L 45.018 1.995 L 45.018 0.844 Z M 5.871 0 L 5.871 6.75 L 5.058 6.75 L 5.058 0 L 5.871 0 Z M 34.414 4.386 L 34.414 4.329 A 3.057 3.057 0 0 1 34.5 3.587 A 2.573 2.573 0 0 1 34.688 3.072 A 2.16 2.16 0 0 1 35.103 2.486 A 1.957 1.957 0 0 1 35.453 2.21 A 2.036 2.036 0 0 1 36.397 1.913 A 2.491 2.491 0 0 1 36.571 1.907 A 2.277 2.277 0 0 1 37.325 2.027 A 1.937 1.937 0 0 1 38.142 2.58 A 2.29 2.29 0 0 1 38.661 3.608 A 3.373 3.373 0 0 1 38.742 4.368 L 38.742 4.425 A 3.114 3.114 0 0 1 38.663 5.142 A 2.577 2.577 0 0 1 38.476 5.671 A 2.056 2.056 0 0 1 37.949 6.361 A 2.001 2.001 0 0 1 37.716 6.53 A 2.045 2.045 0 0 1 36.796 6.829 A 2.529 2.529 0 0 1 36.58 6.838 A 2.262 2.262 0 0 1 35.83 6.718 A 1.938 1.938 0 0 1 35.013 6.166 A 2.297 2.297 0 0 1 34.488 5.111 A 3.357 3.357 0 0 1 34.414 4.386 Z M 66.779 1.969 L 66.779 2.725 A 2.251 2.251 0 0 0 66.537 2.698 A 2.782 2.782 0 0 0 66.379 2.694 Q 65.602 2.694 65.31 3.338 A 1.445 1.445 0 0 0 65.294 3.375 L 65.294 6.75 L 64.481 6.75 L 64.481 1.995 L 65.272 1.995 L 65.285 2.544 Q 65.666 1.938 66.348 1.909 A 1.636 1.636 0 0 1 66.419 1.907 Q 66.656 1.907 66.779 1.969 Z M 20.531 1.995 L 20.531 6.75 L 19.718 6.75 L 19.718 1.995 L 20.531 1.995 Z M 53.446 1.995 L 53.446 6.75 L 52.633 6.75 L 52.633 1.995 L 53.446 1.995 Z M 35.231 4.425 A 2.772 2.772 0 0 0 35.278 4.954 Q 35.339 5.264 35.476 5.51 A 1.545 1.545 0 0 0 35.598 5.695 Q 35.965 6.174 36.58 6.174 A 1.269 1.269 0 0 0 37.069 6.083 Q 37.349 5.967 37.551 5.706 A 1.471 1.471 0 0 0 37.564 5.689 A 1.648 1.648 0 0 0 37.819 5.171 Q 37.888 4.945 37.914 4.672 A 3.655 3.655 0 0 0 37.929 4.329 A 2.687 2.687 0 0 0 37.878 3.789 Q 37.81 3.459 37.653 3.2 A 1.586 1.586 0 0 0 37.558 3.061 A 1.231 1.231 0 0 0 37.143 2.705 Q 36.89 2.575 36.571 2.575 Q 35.981 2.575 35.615 3.035 A 1.515 1.515 0 0 0 35.6 3.054 A 1.589 1.589 0 0 0 35.348 3.552 Q 35.278 3.772 35.25 4.039 A 3.676 3.676 0 0 0 35.231 4.425 Z M 9.98 5.418 L 9.98 4.443 L 9.343 4.443 Q 7.849 4.443 7.849 5.317 Q 7.849 5.7 8.104 5.915 A 0.893 0.893 0 0 0 8.517 6.108 A 1.259 1.259 0 0 0 8.758 6.13 A 1.429 1.429 0 0 0 9.483 5.933 A 1.335 1.335 0 0 0 9.779 5.705 A 1.108 1.108 0 0 0 9.98 5.418 Z M 50.476 5.418 L 50.476 4.443 L 49.838 4.443 Q 48.344 4.443 48.344 5.317 Q 48.344 5.7 48.599 5.915 A 0.893 0.893 0 0 0 49.013 6.108 A 1.259 1.259 0 0 0 49.254 6.13 A 1.429 1.429 0 0 0 49.979 5.933 A 1.335 1.335 0 0 0 50.275 5.705 A 1.108 1.108 0 0 0 50.476 5.418 Z M 60.346 3.938 L 62.728 3.938 L 62.728 3.876 Q 62.702 3.417 62.531 3.111 A 1.13 1.13 0 0 0 62.394 2.916 A 0.983 0.983 0 0 0 61.739 2.584 A 1.39 1.39 0 0 0 61.585 2.575 A 1.106 1.106 0 0 0 61.062 2.698 A 1.14 1.14 0 0 0 60.759 2.933 A 1.417 1.417 0 0 0 60.482 3.379 Q 60.409 3.563 60.369 3.785 A 2.741 2.741 0 0 0 60.346 3.938 Z M 19.652 0.734 Q 19.652 0.536 19.773 0.4 Q 19.885 0.274 20.097 0.264 A 0.783 0.783 0 0 1 20.131 0.264 Q 20.369 0.264 20.492 0.4 A 0.474 0.474 0 0 1 20.614 0.703 A 0.614 0.614 0 0 1 20.615 0.734 A 0.523 0.523 0 0 1 20.589 0.9 A 0.442 0.442 0 0 1 20.492 1.063 Q 20.379 1.184 20.171 1.194 A 0.803 0.803 0 0 1 20.131 1.195 Q 19.959 1.195 19.848 1.126 A 0.362 0.362 0 0 1 19.773 1.063 A 0.456 0.456 0 0 1 19.655 0.788 A 0.605 0.605 0 0 1 19.652 0.734 Z M 52.567 0.734 Q 52.567 0.536 52.688 0.4 Q 52.8 0.274 53.012 0.264 A 0.783 0.783 0 0 1 53.046 0.264 Q 53.284 0.264 53.407 0.4 A 0.474 0.474 0 0 1 53.529 0.703 A 0.614 0.614 0 0 1 53.53 0.734 A 0.523 0.523 0 0 1 53.505 0.9 A 0.442 0.442 0 0 1 53.407 1.063 Q 53.294 1.184 53.086 1.194 A 0.803 0.803 0 0 1 53.046 1.195 Q 52.874 1.195 52.763 1.126 A 0.362 0.362 0 0 1 52.688 1.063 A 0.456 0.456 0 0 1 52.57 0.788 A 0.605 0.605 0 0 1 52.567 0.734 Z" vector-effect="non-scaling-stroke"/></g><g transform="translate(25, 93)" id="svgGroup" stroke-linecap="round" fill-rule="evenodd" font-size="9pt" stroke="#000" stroke-width="0.25mm" fill="#000" style="stroke:#000;stroke-width:0.25mm;fill:#000"><path d="M 4.636 2.202 L 3.788 2.202 A 1.466 1.466 0 0 0 3.738 1.809 A 1.066 1.066 0 0 0 3.419 1.29 A 1.211 1.211 0 0 0 2.95 1.033 Q 2.698 0.958 2.378 0.958 A 2.286 2.286 0 0 0 1.998 0.988 Q 1.796 1.022 1.633 1.095 A 1.101 1.101 0 0 0 1.404 1.233 A 0.892 0.892 0 0 0 1.059 1.887 A 1.267 1.267 0 0 0 1.055 1.995 A 0.806 0.806 0 0 0 1.323 2.6 A 1.134 1.134 0 0 0 1.387 2.656 A 1.562 1.562 0 0 0 1.625 2.813 Q 1.955 2.993 2.516 3.151 A 8.228 8.228 0 0 1 2.981 3.295 Q 3.216 3.377 3.41 3.464 A 3.297 3.297 0 0 1 3.764 3.645 A 2.342 2.342 0 0 1 4.103 3.889 Q 4.293 4.056 4.415 4.248 A 1.45 1.45 0 0 1 4.432 4.276 A 1.498 1.498 0 0 1 4.628 4.832 A 1.948 1.948 0 0 1 4.65 5.124 A 1.606 1.606 0 0 1 4.527 5.76 Q 4.382 6.101 4.064 6.354 A 1.886 1.886 0 0 1 4.043 6.37 Q 3.437 6.838 2.422 6.838 A 3.023 3.023 0 0 1 1.281 6.623 A 2.917 2.917 0 0 1 1.191 6.585 A 2.383 2.383 0 0 1 0.713 6.307 A 1.874 1.874 0 0 1 0.31 5.893 A 1.689 1.689 0 0 1 0 4.896 L 0.848 4.896 A 1.261 1.261 0 0 0 0.918 5.323 A 1.074 1.074 0 0 0 1.277 5.812 Q 1.661 6.113 2.278 6.144 A 2.87 2.87 0 0 0 2.422 6.148 A 2.628 2.628 0 0 0 2.809 6.121 Q 3.005 6.092 3.164 6.031 A 1.129 1.129 0 0 0 3.445 5.875 Q 3.801 5.603 3.801 5.133 A 1.074 1.074 0 0 0 3.759 4.822 A 0.816 0.816 0 0 0 3.472 4.406 Q 3.142 4.148 2.277 3.898 Q 1.191 3.586 0.697 3.131 Q 0.202 2.676 0.202 2.008 Q 0.202 1.252 0.807 0.758 A 2.121 2.121 0 0 1 1.697 0.335 A 3.087 3.087 0 0 1 2.378 0.264 A 2.913 2.913 0 0 1 3.038 0.336 A 2.372 2.372 0 0 1 3.553 0.519 A 2.051 2.051 0 0 1 4.084 0.889 A 1.834 1.834 0 0 1 4.353 1.222 A 1.798 1.798 0 0 1 4.636 2.202 Z M 36.119 2.202 L 35.271 2.202 A 1.466 1.466 0 0 0 35.221 1.809 A 1.066 1.066 0 0 0 34.902 1.29 A 1.211 1.211 0 0 0 34.432 1.033 Q 34.18 0.958 33.86 0.958 A 2.286 2.286 0 0 0 33.48 0.988 Q 33.278 1.022 33.116 1.095 A 1.101 1.101 0 0 0 32.887 1.233 A 0.892 0.892 0 0 0 32.542 1.887 A 1.267 1.267 0 0 0 32.537 1.995 A 0.806 0.806 0 0 0 32.805 2.6 A 1.134 1.134 0 0 0 32.869 2.656 A 1.562 1.562 0 0 0 33.107 2.813 Q 33.438 2.993 33.998 3.151 A 8.228 8.228 0 0 1 34.463 3.295 Q 34.698 3.377 34.893 3.464 A 3.297 3.297 0 0 1 35.246 3.645 A 2.342 2.342 0 0 1 35.585 3.889 Q 35.775 4.056 35.897 4.248 A 1.45 1.45 0 0 1 35.914 4.276 A 1.498 1.498 0 0 1 36.111 4.832 A 1.948 1.948 0 0 1 36.132 5.124 A 1.606 1.606 0 0 1 36.01 5.76 Q 35.864 6.101 35.546 6.354 A 1.886 1.886 0 0 1 35.526 6.37 Q 34.919 6.838 33.904 6.838 A 3.023 3.023 0 0 1 32.763 6.623 A 2.917 2.917 0 0 1 32.673 6.585 A 2.383 2.383 0 0 1 32.195 6.307 A 1.874 1.874 0 0 1 31.792 5.893 A 1.689 1.689 0 0 1 31.483 4.896 L 32.331 4.896 A 1.261 1.261 0 0 0 32.4 5.323 A 1.074 1.074 0 0 0 32.759 5.812 Q 33.144 6.113 33.76 6.144 A 2.87 2.87 0 0 0 33.904 6.148 A 2.628 2.628 0 0 0 34.291 6.121 Q 34.487 6.092 34.646 6.031 A 1.129 1.129 0 0 0 34.928 5.875 Q 35.284 5.603 35.284 5.133 A 1.074 1.074 0 0 0 35.241 4.822 A 0.816 0.816 0 0 0 34.954 4.406 Q 34.625 4.148 33.759 3.898 Q 32.673 3.586 32.179 3.131 Q 31.685 2.676 31.685 2.008 Q 31.685 1.252 32.289 0.758 A 2.121 2.121 0 0 1 33.179 0.335 A 3.087 3.087 0 0 1 33.86 0.264 A 2.913 2.913 0 0 1 34.52 0.336 A 2.372 2.372 0 0 1 35.036 0.519 A 2.051 2.051 0 0 1 35.567 0.889 A 1.834 1.834 0 0 1 35.835 1.222 A 1.798 1.798 0 0 1 36.119 2.202 Z M 92.391 6.75 L 90.734 4.548 L 90.224 5.08 L 90.224 6.75 L 89.411 6.75 L 89.411 0 L 90.224 0 L 90.224 4.083 L 90.659 3.56 L 92.14 1.995 L 93.129 1.995 L 91.279 3.981 L 93.344 6.75 L 92.391 6.75 Z M 23.067 5.251 L 23.836 5.251 A 1.432 1.432 0 0 1 23.637 5.901 A 1.772 1.772 0 0 1 23.555 6.029 A 1.828 1.828 0 0 1 22.946 6.574 A 2.169 2.169 0 0 1 22.863 6.618 A 1.997 1.997 0 0 1 21.946 6.838 A 2.346 2.346 0 0 1 21.249 6.739 A 1.839 1.839 0 0 1 20.402 6.19 A 2.171 2.171 0 0 1 19.938 5.31 Q 19.828 4.909 19.828 4.417 L 19.828 4.28 A 3.24 3.24 0 0 1 19.892 3.624 A 2.57 2.57 0 0 1 20.083 3.045 A 2.008 2.008 0 0 1 20.523 2.431 A 1.892 1.892 0 0 1 20.815 2.206 A 1.943 1.943 0 0 1 21.571 1.934 A 2.529 2.529 0 0 1 21.942 1.907 A 2.196 2.196 0 0 1 22.59 1.999 A 1.786 1.786 0 0 1 23.271 2.386 A 1.693 1.693 0 0 1 23.83 3.535 A 2.239 2.239 0 0 1 23.836 3.63 L 23.067 3.63 Q 23.032 3.168 22.718 2.872 A 1.078 1.078 0 0 0 21.989 2.576 A 1.402 1.402 0 0 0 21.942 2.575 A 1.374 1.374 0 0 0 21.521 2.637 A 1.081 1.081 0 0 0 20.982 3.021 A 1.469 1.469 0 0 0 20.755 3.468 Q 20.689 3.674 20.662 3.923 A 3.514 3.514 0 0 0 20.641 4.311 L 20.641 4.465 Q 20.641 5.287 20.98 5.73 A 1.1 1.1 0 0 0 21.766 6.165 A 1.611 1.611 0 0 0 21.946 6.174 A 1.171 1.171 0 0 0 22.707 5.911 A 1.007 1.007 0 0 0 22.951 5.629 A 0.914 0.914 0 0 0 23.067 5.251 Z M 54.549 5.251 L 55.319 5.251 A 1.432 1.432 0 0 1 55.119 5.901 A 1.772 1.772 0 0 1 55.037 6.029 A 1.828 1.828 0 0 1 54.428 6.574 A 2.169 2.169 0 0 1 54.345 6.618 A 1.997 1.997 0 0 1 53.429 6.838 A 2.346 2.346 0 0 1 52.732 6.739 A 1.839 1.839 0 0 1 51.884 6.19 A 2.171 2.171 0 0 1 51.42 5.31 Q 51.311 4.909 51.311 4.417 L 51.311 4.28 A 3.24 3.24 0 0 1 51.374 3.624 A 2.57 2.57 0 0 1 51.566 3.045 A 2.008 2.008 0 0 1 52.005 2.431 A 1.892 1.892 0 0 1 52.297 2.206 A 1.943 1.943 0 0 1 53.054 1.934 A 2.529 2.529 0 0 1 53.424 1.907 A 2.196 2.196 0 0 1 54.073 1.999 A 1.786 1.786 0 0 1 54.754 2.386 A 1.693 1.693 0 0 1 55.312 3.535 A 2.239 2.239 0 0 1 55.319 3.63 L 54.549 3.63 Q 54.514 3.168 54.2 2.872 A 1.078 1.078 0 0 0 53.471 2.576 A 1.402 1.402 0 0 0 53.424 2.575 A 1.374 1.374 0 0 0 53.003 2.637 A 1.081 1.081 0 0 0 52.464 3.021 A 1.469 1.469 0 0 0 52.238 3.468 Q 52.172 3.674 52.144 3.923 A 3.514 3.514 0 0 0 52.124 4.311 L 52.124 4.465 Q 52.124 5.287 52.462 5.73 A 1.1 1.1 0 0 0 53.249 6.165 A 1.611 1.611 0 0 0 53.429 6.174 A 1.171 1.171 0 0 0 54.189 5.911 A 1.007 1.007 0 0 0 54.433 5.629 A 0.914 0.914 0 0 0 54.549 5.251 Z M 85.254 6.75 L 84.402 6.75 A 0.632 0.632 0 0 1 84.366 6.66 Q 84.335 6.562 84.31 6.41 A 3.997 3.997 0 0 1 84.287 6.249 Q 83.72 6.838 82.934 6.838 A 2.033 2.033 0 0 1 82.404 6.772 A 1.529 1.529 0 0 1 81.78 6.44 Q 81.33 6.042 81.33 5.432 Q 81.33 4.689 81.894 4.278 Q 82.459 3.867 83.483 3.867 L 84.274 3.867 L 84.274 3.494 A 1.152 1.152 0 0 0 84.238 3.199 A 0.828 0.828 0 0 0 84.019 2.815 Q 83.803 2.6 83.413 2.568 A 1.748 1.748 0 0 0 83.268 2.562 Q 82.833 2.562 82.538 2.782 Q 82.244 3.001 82.244 3.313 L 81.426 3.313 A 1.041 1.041 0 0 1 81.551 2.825 A 1.409 1.409 0 0 1 81.679 2.626 Q 81.932 2.294 82.365 2.101 A 2.249 2.249 0 0 1 83.14 1.913 A 2.669 2.669 0 0 1 83.316 1.907 A 2.65 2.65 0 0 1 83.834 1.955 Q 84.141 2.016 84.38 2.156 A 1.439 1.439 0 0 1 84.604 2.318 A 1.396 1.396 0 0 1 85.057 3.144 A 1.998 1.998 0 0 1 85.087 3.45 L 85.087 5.638 Q 85.087 6.073 85.161 6.39 A 1.707 1.707 0 0 0 85.254 6.68 L 85.254 6.75 Z M 5.397 4.504 L 5.397 4.355 A 3.17 3.17 0 0 1 5.473 3.646 A 2.581 2.581 0 0 1 5.667 3.092 A 2.191 2.191 0 0 1 6.114 2.466 A 2.033 2.033 0 0 1 6.423 2.221 Q 6.908 1.907 7.475 1.907 A 2.254 2.254 0 0 1 8.088 1.986 A 1.639 1.639 0 0 1 8.917 2.518 Q 9.431 3.129 9.431 4.267 L 9.431 4.605 L 6.21 4.605 A 2.111 2.111 0 0 0 6.281 5.114 A 1.516 1.516 0 0 0 6.621 5.741 A 1.282 1.282 0 0 0 7.555 6.173 A 1.652 1.652 0 0 0 7.62 6.174 A 1.763 1.763 0 0 0 7.948 6.145 Q 8.172 6.103 8.35 5.999 A 1.827 1.827 0 0 0 8.859 5.551 A 2.068 2.068 0 0 0 8.873 5.533 L 9.369 5.919 A 1.926 1.926 0 0 1 7.97 6.811 A 2.749 2.749 0 0 1 7.576 6.838 A 2.394 2.394 0 0 1 6.825 6.725 A 1.974 1.974 0 0 1 6.003 6.203 Q 5.397 5.568 5.397 4.504 Z M 24.544 4.504 L 24.544 4.355 A 3.17 3.17 0 0 1 24.62 3.646 A 2.581 2.581 0 0 1 24.814 3.092 A 2.191 2.191 0 0 1 25.261 2.466 A 2.033 2.033 0 0 1 25.57 2.221 Q 26.055 1.907 26.622 1.907 A 2.254 2.254 0 0 1 27.235 1.986 A 1.639 1.639 0 0 1 28.064 2.518 Q 28.578 3.129 28.578 4.267 L 28.578 4.605 L 25.357 4.605 A 2.111 2.111 0 0 0 25.428 5.114 A 1.516 1.516 0 0 0 25.767 5.741 A 1.282 1.282 0 0 0 26.702 6.173 A 1.652 1.652 0 0 0 26.767 6.174 A 1.763 1.763 0 0 0 27.095 6.145 Q 27.319 6.103 27.497 5.999 A 1.827 1.827 0 0 0 28.006 5.551 A 2.068 2.068 0 0 0 28.02 5.533 L 28.516 5.919 A 1.926 1.926 0 0 1 27.117 6.811 A 2.749 2.749 0 0 1 26.723 6.838 A 2.394 2.394 0 0 1 25.972 6.725 A 1.974 1.974 0 0 1 25.15 6.203 Q 24.544 5.568 24.544 4.504 Z M 36.879 4.504 L 36.879 4.355 A 3.17 3.17 0 0 1 36.955 3.646 A 2.581 2.581 0 0 1 37.149 3.092 A 2.191 2.191 0 0 1 37.597 2.466 A 2.033 2.033 0 0 1 37.905 2.221 Q 38.391 1.907 38.958 1.907 A 2.254 2.254 0 0 1 39.571 1.986 A 1.639 1.639 0 0 1 40.399 2.518 Q 40.913 3.129 40.913 4.267 L 40.913 4.605 L 37.692 4.605 A 2.111 2.111 0 0 0 37.763 5.114 A 1.516 1.516 0 0 0 38.103 5.741 A 1.282 1.282 0 0 0 39.037 6.173 A 1.652 1.652 0 0 0 39.103 6.174 A 1.763 1.763 0 0 0 39.431 6.145 Q 39.655 6.103 39.832 5.999 A 1.827 1.827 0 0 0 40.341 5.551 A 2.068 2.068 0 0 0 40.355 5.533 L 40.852 5.919 A 1.926 1.926 0 0 1 39.452 6.811 A 2.749 2.749 0 0 1 39.059 6.838 A 2.394 2.394 0 0 1 38.308 6.725 A 1.974 1.974 0 0 1 37.485 6.203 Q 36.879 5.568 36.879 4.504 Z M 56.026 4.504 L 56.026 4.355 A 3.17 3.17 0 0 1 56.102 3.646 A 2.581 2.581 0 0 1 56.296 3.092 A 2.191 2.191 0 0 1 56.744 2.466 A 2.033 2.033 0 0 1 57.052 2.221 Q 57.538 1.907 58.105 1.907 A 2.254 2.254 0 0 1 58.718 1.986 A 1.639 1.639 0 0 1 59.546 2.518 Q 60.06 3.129 60.06 4.267 L 60.06 4.605 L 56.839 4.605 A 2.111 2.111 0 0 0 56.91 5.114 A 1.516 1.516 0 0 0 57.25 5.741 A 1.282 1.282 0 0 0 58.184 6.173 A 1.652 1.652 0 0 0 58.25 6.174 A 1.763 1.763 0 0 0 58.578 6.145 Q 58.802 6.103 58.979 5.999 A 1.827 1.827 0 0 0 59.488 5.551 A 2.068 2.068 0 0 0 59.502 5.533 L 59.999 5.919 A 1.926 1.926 0 0 1 58.599 6.811 A 2.749 2.749 0 0 1 58.206 6.838 A 2.394 2.394 0 0 1 57.455 6.725 A 1.974 1.974 0 0 1 56.632 6.203 Q 56.026 5.568 56.026 4.504 Z M 13.856 1.995 L 15.065 5.647 L 16.242 1.995 L 17.073 1.995 L 15.368 6.75 L 14.748 6.75 L 13.026 1.995 L 13.856 1.995 Z M 45.339 1.995 L 46.547 5.647 L 47.725 1.995 L 48.555 1.995 L 46.85 6.75 L 46.231 6.75 L 44.508 1.995 L 45.339 1.995 Z M 66.577 0.352 L 66.577 4.601 L 67.465 4.601 L 67.465 5.265 L 66.577 5.265 L 66.577 6.75 L 65.76 6.75 L 65.76 5.265 L 62.846 5.265 L 62.846 4.786 L 65.712 0.352 L 66.577 0.352 Z M 77.463 6.75 L 75.692 6.75 L 75.692 0.352 L 77.498 0.352 Q 78.333 0.352 78.974 0.721 Q 79.616 1.09 79.965 1.771 A 3.19 3.19 0 0 1 80.282 2.8 A 4.073 4.073 0 0 1 80.319 3.335 L 80.319 3.744 Q 80.319 4.649 79.97 5.331 A 2.457 2.457 0 0 1 78.972 6.376 Q 78.324 6.741 77.463 6.75 Z M 71.976 2.592 A 1.544 1.544 0 0 0 72.079 2.021 A 2.226 2.226 0 0 0 72.058 1.707 A 1.566 1.566 0 0 0 71.558 0.738 A 1.754 1.754 0 0 0 70.793 0.333 A 2.443 2.443 0 0 0 70.194 0.264 A 2.539 2.539 0 0 0 69.684 0.312 A 1.767 1.767 0 0 0 68.827 0.738 Q 68.309 1.213 68.309 2.021 A 1.808 1.808 0 0 0 68.309 2.058 A 1.499 1.499 0 0 0 68.555 2.87 A 1.626 1.626 0 0 0 68.717 3.077 A 1.726 1.726 0 0 0 69.227 3.454 A 2.119 2.119 0 0 0 69.128 3.5 A 1.738 1.738 0 0 0 68.443 4.087 A 1.629 1.629 0 0 0 68.159 5.023 A 2.272 2.272 0 0 0 68.169 5.237 A 1.63 1.63 0 0 0 68.715 6.344 A 1.895 1.895 0 0 0 69.566 6.771 A 2.797 2.797 0 0 0 70.194 6.838 A 2.796 2.796 0 0 0 70.793 6.777 A 1.925 1.925 0 0 0 71.668 6.346 A 1.578 1.578 0 0 0 72.143 5.62 A 1.989 1.989 0 0 0 72.229 5.023 A 1.581 1.581 0 0 0 71.936 4.087 Q 71.644 3.674 71.143 3.458 Q 71.574 3.248 71.827 2.874 A 1.449 1.449 0 0 0 71.976 2.592 Z M 12.67 1.969 L 12.67 2.725 A 2.251 2.251 0 0 0 12.427 2.698 A 2.782 2.782 0 0 0 12.27 2.694 Q 11.492 2.694 11.2 3.338 A 1.445 1.445 0 0 0 11.184 3.375 L 11.184 6.75 L 10.371 6.75 L 10.371 1.995 L 11.162 1.995 L 11.175 2.544 Q 11.556 1.938 12.238 1.909 A 1.636 1.636 0 0 1 12.309 1.907 Q 12.547 1.907 12.67 1.969 Z M 44.152 1.969 L 44.152 2.725 A 2.251 2.251 0 0 0 43.909 2.698 A 2.782 2.782 0 0 0 43.752 2.694 Q 42.974 2.694 42.683 3.338 A 1.445 1.445 0 0 0 42.667 3.375 L 42.667 6.75 L 41.854 6.75 L 41.854 1.995 L 42.645 1.995 L 42.658 2.544 Q 43.038 1.938 43.721 1.909 A 1.636 1.636 0 0 1 43.792 1.907 Q 44.029 1.907 44.152 1.969 Z M 88.66 1.969 L 88.66 2.725 A 2.251 2.251 0 0 0 88.417 2.698 A 2.782 2.782 0 0 0 88.26 2.694 Q 87.482 2.694 87.191 3.338 A 1.445 1.445 0 0 0 87.174 3.375 L 87.174 6.75 L 86.361 6.75 L 86.361 1.995 L 87.152 1.995 L 87.166 2.544 Q 87.546 1.938 88.229 1.909 A 1.636 1.636 0 0 1 88.299 1.907 Q 88.537 1.907 88.66 1.969 Z M 77.52 1.046 L 76.535 1.046 L 76.535 6.06 L 77.423 6.06 A 2.519 2.519 0 0 0 78.055 5.985 A 1.747 1.747 0 0 0 78.941 5.454 Q 79.401 4.94 79.471 4.059 A 4.165 4.165 0 0 0 79.484 3.727 L 79.484 3.353 Q 79.484 2.562 79.214 2.027 A 1.864 1.864 0 0 0 78.972 1.659 A 1.687 1.687 0 0 0 77.976 1.09 A 2.499 2.499 0 0 0 77.52 1.046 Z M 18.738 1.995 L 18.738 6.75 L 17.925 6.75 L 17.925 1.995 L 18.738 1.995 Z M 50.221 1.995 L 50.221 6.75 L 49.408 6.75 L 49.408 1.995 L 50.221 1.995 Z M 65.663 1.639 L 63.769 4.601 L 65.76 4.601 L 65.76 1.463 L 65.663 1.639 Z M 71.416 5.005 A 1.375 1.375 0 0 0 71.356 4.592 A 1.109 1.109 0 0 0 71.075 4.131 A 1.148 1.148 0 0 0 70.404 3.807 A 1.593 1.593 0 0 0 70.185 3.792 A 1.466 1.466 0 0 0 69.797 3.841 A 1.086 1.086 0 0 0 69.304 4.126 A 1.123 1.123 0 0 0 68.991 4.762 A 1.572 1.572 0 0 0 68.972 5.005 A 1.48 1.48 0 0 0 69.014 5.367 A 1.019 1.019 0 0 0 69.295 5.862 Q 69.601 6.158 70.134 6.173 A 2.053 2.053 0 0 0 70.194 6.174 Q 70.688 6.174 70.998 5.94 A 1.018 1.018 0 0 0 71.09 5.86 A 1.041 1.041 0 0 0 71.39 5.292 A 1.518 1.518 0 0 0 71.416 5.005 Z M 70.194 0.932 A 1.259 1.259 0 0 0 69.841 0.979 A 0.973 0.973 0 0 0 69.418 1.228 Q 69.122 1.525 69.122 2.035 A 1.325 1.325 0 0 0 69.166 2.387 A 0.994 0.994 0 0 0 69.414 2.823 A 0.974 0.974 0 0 0 69.976 3.108 A 1.382 1.382 0 0 0 70.194 3.125 A 1.279 1.279 0 0 0 70.539 3.08 A 0.952 0.952 0 0 0 70.974 2.823 A 1.018 1.018 0 0 0 71.249 2.26 A 1.426 1.426 0 0 0 71.266 2.035 A 1.282 1.282 0 0 0 71.216 1.668 A 1.013 1.013 0 0 0 70.963 1.239 Q 70.66 0.932 70.194 0.932 Z M 84.274 5.418 L 84.274 4.443 L 83.637 4.443 Q 82.143 4.443 82.143 5.317 Q 82.143 5.7 82.398 5.915 A 0.893 0.893 0 0 0 82.811 6.108 A 1.259 1.259 0 0 0 83.052 6.13 A 1.429 1.429 0 0 0 83.777 5.933 A 1.335 1.335 0 0 0 84.073 5.705 A 1.108 1.108 0 0 0 84.274 5.418 Z M 6.236 3.938 L 8.618 3.938 L 8.618 3.876 Q 8.592 3.417 8.421 3.111 A 1.13 1.13 0 0 0 8.284 2.916 A 0.983 0.983 0 0 0 7.629 2.584 A 1.39 1.39 0 0 0 7.475 2.575 A 1.106 1.106 0 0 0 6.953 2.698 A 1.14 1.14 0 0 0 6.649 2.933 A 1.417 1.417 0 0 0 6.372 3.379 Q 6.299 3.563 6.259 3.785 A 2.741 2.741 0 0 0 6.236 3.938 Z M 25.383 3.938 L 27.765 3.938 L 27.765 3.876 Q 27.739 3.417 27.568 3.111 A 1.13 1.13 0 0 0 27.431 2.916 A 0.983 0.983 0 0 0 26.776 2.584 A 1.39 1.39 0 0 0 26.622 2.575 A 1.106 1.106 0 0 0 26.1 2.698 A 1.14 1.14 0 0 0 25.796 2.933 A 1.417 1.417 0 0 0 25.519 3.379 Q 25.446 3.563 25.406 3.785 A 2.741 2.741 0 0 0 25.383 3.938 Z M 37.718 3.938 L 40.1 3.938 L 40.1 3.876 Q 40.074 3.417 39.904 3.111 A 1.13 1.13 0 0 0 39.766 2.916 A 0.983 0.983 0 0 0 39.112 2.584 A 1.39 1.39 0 0 0 38.958 2.575 A 1.106 1.106 0 0 0 38.435 2.698 A 1.14 1.14 0 0 0 38.131 2.933 A 1.417 1.417 0 0 0 37.855 3.379 Q 37.781 3.563 37.741 3.785 A 2.741 2.741 0 0 0 37.718 3.938 Z M 56.865 3.938 L 59.247 3.938 L 59.247 3.876 Q 59.221 3.417 59.051 3.111 A 1.13 1.13 0 0 0 58.913 2.916 A 0.983 0.983 0 0 0 58.259 2.584 A 1.39 1.39 0 0 0 58.105 2.575 A 1.106 1.106 0 0 0 57.582 2.698 A 1.14 1.14 0 0 0 57.278 2.933 A 1.417 1.417 0 0 0 57.002 3.379 Q 56.928 3.563 56.888 3.785 A 2.741 2.741 0 0 0 56.865 3.938 Z M 17.86 0.734 Q 17.86 0.536 17.98 0.4 Q 18.092 0.274 18.304 0.264 A 0.783 0.783 0 0 1 18.339 0.264 Q 18.576 0.264 18.699 0.4 A 0.474 0.474 0 0 1 18.821 0.703 A 0.614 0.614 0 0 1 18.822 0.734 A 0.523 0.523 0 0 1 18.797 0.9 A 0.442 0.442 0 0 1 18.699 1.063 Q 18.586 1.184 18.378 1.194 A 0.803 0.803 0 0 1 18.339 1.195 Q 18.166 1.195 18.055 1.126 A 0.362 0.362 0 0 1 17.98 1.063 A 0.456 0.456 0 0 1 17.862 0.788 A 0.605 0.605 0 0 1 17.86 0.734 Z M 49.342 0.734 Q 49.342 0.536 49.463 0.4 Q 49.575 0.274 49.786 0.264 A 0.783 0.783 0 0 1 49.821 0.264 Q 50.058 0.264 50.181 0.4 A 0.474 0.474 0 0 1 50.304 0.703 A 0.614 0.614 0 0 1 50.304 0.734 A 0.523 0.523 0 0 1 50.279 0.9 A 0.442 0.442 0 0 1 50.181 1.063 Q 50.069 1.184 49.861 1.194 A 0.803 0.803 0 0 1 49.821 1.195 Q 49.649 1.195 49.538 1.126 A 0.362 0.362 0 0 1 49.463 1.063 A 0.456 0.456 0 0 1 49.344 0.788 A 0.605 0.605 0 0 1 49.342 0.734 Z" vector-effect="non-scaling-stroke"/></g>
</svgversion="1.0" encoding="UTF-8"?>
<svg width="48px" height="48px" viewBox="0 0 48 48" version="1.1" xmlns="http://www.w3.org/2000/svg" xmlns:xlink="http://www.w3.org/1999/xlink">
    <title>Icon-Resource/Containers/Res_Amazon-Elastic-Container-Service_Service_48_Dark</title>
    <g id="Icon-Resource/Containers/Res_Amazon-Elastic-Container-Service_Service_48" stroke="none" stroke-width="1" fill="none" fill-rule="evenodd">
        <path transform="translate(12.000000, 8.000000), scale(.65)" d="M24.933,38.213 L37.674,38.213 L37.674,36.213 L24.933,36.213 L24.933,38.213 Z M24.933,28.303 L37.674,28.303 L37.674,26.303 L24.933,26.303 L24.933,28.303 Z M24.933,18.393 L37.674,18.393 L37.674,16.393 L24.933,16.393 L24.933,18.393 Z M19.561,38.337 L21.808,38.337 L21.808,36.09 L19.561,36.09 L19.561,38.337 Z M18.561,40.337 L22.808,40.337 C23.361,40.337 23.808,39.89 23.808,39.337 L23.808,35.09 C23.808,34.537 23.361,34.09 22.808,34.09 L18.561,34.09 C18.009,34.09 17.561,34.537 17.561,35.09 L17.561,39.337 C17.561,39.89 18.009,40.337 18.561,40.337 L18.561,40.337 Z M19.561,28.427 L21.808,28.427 L21.808,26.18 L19.561,26.18 L19.561,28.427 Z M18.561,30.427 L22.808,30.427 C23.361,30.427 23.808,29.98 23.808,29.427 L23.808,25.18 C23.808,24.627 23.361,24.18 22.808,24.18 L18.561,24.18 C18.009,24.18 17.561,24.627 17.561,25.18 L17.561,29.427 C17.561,29.98 18.009,30.427 18.561,30.427 L18.561,30.427 Z M19.561,18.517 L21.808,18.517 L21.808,16.27 L19.561,16.27 L19.561,18.517 Z M18.561,20.517 L22.808,20.517 C23.361,20.517 23.808,20.07 23.808,19.517 L23.808,15.27 C23.808,14.717 23.361,14.27 22.808,14.27 L18.561,14.27 C18.009,14.27 17.561,14.717 17.561,15.27 L17.561,19.517 C17.561,20.07 18.009,20.517 18.561,20.517 L18.561,20.517 Z M16.023,44 L39.506,44 L39.506,12.022 L16.023,12.022 L16.023,44 Z M14.022,11.023 L14.022,39.753 L11.775,39.753 L11.775,7.776 L35.259,7.776 L35.259,10.023 L15.022,10.023 C14.469,10.023 14.022,10.47 14.022,11.023 L14.022,11.023 Z M9.775,6.776 L9.775,35.978 L8,35.978 L8,4 L31.483,4 L31.483,5.776 L10.775,5.776 C10.222,5.776 9.775,6.223 9.775,6.776 L9.775,6.776 Z M40.506,10.023 L37.259,10.023 L37.259,6.776 C37.259,6.223 36.811,5.776 36.259,5.776 L33.483,5.776 L33.483,3 C33.483,2.448 33.036,2 32.483,2 L7,2 C6.447,2 6,2.448 6,3 L6,36.978 C6,37.531 6.447,37.978 7,37.978 L9.775,37.978 L9.775,40.753 C9.775,41.306 10.222,41.753 10.775,41.753 L14.022,41.753 L14.022,45 C14.022,45.553 14.469,46 15.022,46 L40.506,46 C41.058,46 41.506,45.553 41.506,45 L41.506,11.023 C41.506,10.47 41.058,10.023 40.506,10.023 L40.506,10.023 Z" id="Amazon-Elastic-Container-Service_Service_Resource-Icon_light-bg" fill="#000000"></path>
    </g><g transform="translate(25, 83)" id="svgGroup" stroke-linecap="round" fill-rule="evenodd" font-size="9pt" stroke="#000" stroke-width="0.25mm" fill="#000" style="stroke:#000;stroke-width:0.25mm;fill:#000"><path d="M 3.617 3.103 L 3.617 3.792 L 0.844 3.792 L 0.844 6.06 L 4.065 6.06 L 4.065 6.75 L 0 6.75 L 0 0.352 L 4.021 0.352 L 4.021 1.046 L 0.844 1.046 L 0.844 3.103 L 3.617 3.103 Z M 32.757 4.72 L 33.605 4.72 A 3.016 3.016 0 0 1 33.444 5.416 A 2.099 2.099 0 0 1 32.856 6.286 Q 32.225 6.838 31.179 6.838 A 2.553 2.553 0 0 1 30.31 6.696 A 2.194 2.194 0 0 1 29.362 6.025 A 2.789 2.789 0 0 1 28.8 4.901 Q 28.694 4.484 28.681 3.992 A 5.262 5.262 0 0 1 28.679 3.85 L 28.679 3.234 A 4.251 4.251 0 0 1 28.749 2.445 A 3.229 3.229 0 0 1 28.997 1.666 A 2.539 2.539 0 0 1 29.453 0.99 A 2.26 2.26 0 0 1 29.9 0.626 A 2.415 2.415 0 0 1 30.926 0.281 A 3.027 3.027 0 0 1 31.254 0.264 A 2.962 2.962 0 0 1 31.96 0.343 A 2.065 2.065 0 0 1 32.889 0.833 A 2.16 2.16 0 0 1 33.483 1.795 A 3.086 3.086 0 0 1 33.605 2.408 L 32.757 2.408 Q 32.688 1.929 32.518 1.616 A 1.223 1.223 0 0 0 32.28 1.301 A 1.207 1.207 0 0 0 31.775 1.024 Q 31.588 0.971 31.364 0.961 A 2.396 2.396 0 0 0 31.254 0.958 A 1.753 1.753 0 0 0 30.676 1.049 A 1.463 1.463 0 0 0 29.986 1.556 A 1.989 1.989 0 0 0 29.672 2.175 Q 29.527 2.636 29.527 3.256 L 29.527 3.876 Q 29.527 4.917 29.962 5.533 A 1.38 1.38 0 0 0 30.96 6.135 A 1.814 1.814 0 0 0 31.179 6.148 A 2.497 2.497 0 0 0 31.587 6.117 Q 31.806 6.08 31.982 6.002 A 1.155 1.155 0 0 0 32.258 5.829 Q 32.634 5.511 32.757 4.72 Z M 15.605 3.393 L 14.788 3.393 Q 14.788 3.059 14.504 2.817 Q 14.221 2.575 13.79 2.575 Q 13.346 2.575 13.096 2.769 A 0.653 0.653 0 0 0 12.921 2.967 Q 12.848 3.098 12.845 3.263 A 0.771 0.771 0 0 0 12.845 3.274 A 0.588 0.588 0 0 0 12.875 3.467 A 0.48 0.48 0 0 0 13.078 3.718 A 1.093 1.093 0 0 0 13.228 3.796 Q 13.393 3.868 13.648 3.937 A 6.581 6.581 0 0 0 13.92 4.003 A 6.318 6.318 0 0 1 14.327 4.108 Q 14.664 4.208 14.906 4.329 A 1.901 1.901 0 0 1 15.162 4.481 Q 15.299 4.579 15.396 4.692 A 1.06 1.06 0 0 1 15.467 4.783 A 1.024 1.024 0 0 1 15.629 5.191 A 1.388 1.388 0 0 1 15.649 5.432 Q 15.649 6.069 15.139 6.453 Q 14.657 6.817 13.903 6.837 A 3.337 3.337 0 0 1 13.816 6.838 A 2.746 2.746 0 0 1 13.282 6.788 A 2.124 2.124 0 0 1 12.806 6.636 A 1.771 1.771 0 0 1 12.372 6.358 A 1.54 1.54 0 0 1 12.118 6.071 Q 11.87 5.708 11.87 5.287 L 12.683 5.287 A 0.932 0.932 0 0 0 12.756 5.612 A 0.827 0.827 0 0 0 13.01 5.935 A 1.072 1.072 0 0 0 13.412 6.128 Q 13.567 6.167 13.748 6.173 A 2.013 2.013 0 0 0 13.816 6.174 A 1.863 1.863 0 0 0 14.112 6.152 Q 14.274 6.126 14.405 6.07 A 0.941 0.941 0 0 0 14.557 5.988 A 0.689 0.689 0 0 0 14.721 5.837 A 0.554 0.554 0 0 0 14.836 5.489 A 0.698 0.698 0 0 0 14.8 5.258 A 0.581 0.581 0 0 0 14.588 4.977 A 1.05 1.05 0 0 0 14.419 4.878 Q 14.23 4.788 13.935 4.712 A 5.392 5.392 0 0 0 13.722 4.663 A 6.342 6.342 0 0 1 13.361 4.575 Q 12.991 4.473 12.742 4.346 Q 12.443 4.194 12.273 3.994 A 1.017 1.017 0 0 1 12.206 3.907 Q 12.032 3.652 12.032 3.3 A 1.206 1.206 0 0 1 12.431 2.396 A 1.694 1.694 0 0 1 12.527 2.312 A 1.752 1.752 0 0 1 13.31 1.952 A 2.471 2.471 0 0 1 13.79 1.907 A 2.559 2.559 0 0 1 14.354 1.966 A 1.757 1.757 0 0 1 15.102 2.325 Q 15.605 2.742 15.605 3.393 Z M 39.762 1.995 L 40.531 1.995 L 40.557 2.593 Q 41.093 1.918 41.953 1.907 A 2.234 2.234 0 0 1 41.981 1.907 A 1.905 1.905 0 0 1 42.614 2.004 Q 43.456 2.3 43.499 3.506 A 3.668 3.668 0 0 1 43.501 3.608 L 43.501 6.75 L 42.688 6.75 L 42.688 3.604 A 1.837 1.837 0 0 0 42.666 3.324 Q 42.616 3.017 42.453 2.843 Q 42.267 2.645 41.914 2.606 A 1.66 1.66 0 0 0 41.735 2.597 A 1.253 1.253 0 0 0 41.321 2.664 A 1.123 1.123 0 0 0 41.041 2.808 A 1.432 1.432 0 0 0 40.575 3.362 L 40.575 6.75 L 39.762 6.75 L 39.762 1.995 Z M 54.747 1.995 L 55.516 1.995 L 55.542 2.593 Q 56.079 1.918 56.939 1.907 A 2.234 2.234 0 0 1 56.966 1.907 A 1.905 1.905 0 0 1 57.6 2.004 Q 58.442 2.3 58.485 3.506 A 3.668 3.668 0 0 1 58.487 3.608 L 58.487 6.75 L 57.674 6.75 L 57.674 3.604 A 1.837 1.837 0 0 0 57.652 3.324 Q 57.601 3.017 57.439 2.843 Q 57.253 2.645 56.899 2.606 A 1.66 1.66 0 0 0 56.72 2.597 A 1.253 1.253 0 0 0 56.306 2.664 A 1.123 1.123 0 0 0 56.026 2.808 A 1.432 1.432 0 0 0 55.56 3.362 L 55.56 6.75 L 54.747 6.75 L 54.747 1.995 Z M 24.86 5.251 L 25.629 5.251 A 1.432 1.432 0 0 1 25.43 5.901 A 1.772 1.772 0 0 1 25.348 6.029 A 1.828 1.828 0 0 1 24.738 6.574 A 2.169 2.169 0 0 1 24.656 6.618 A 1.997 1.997 0 0 1 23.739 6.838 A 2.346 2.346 0 0 1 23.042 6.739 A 1.839 1.839 0 0 1 22.195 6.19 A 2.171 2.171 0 0 1 21.731 5.31 Q 21.621 4.909 21.621 4.417 L 21.621 4.28 A 3.24 3.24 0 0 1 21.685 3.624 A 2.57 2.57 0 0 1 21.876 3.045 A 2.008 2.008 0 0 1 22.316 2.431 A 1.892 1.892 0 0 1 22.608 2.206 A 1.943 1.943 0 0 1 23.364 1.934 A 2.529 2.529 0 0 1 23.735 1.907 A 2.196 2.196 0 0 1 24.383 1.999 A 1.786 1.786 0 0 1 25.064 2.386 A 1.693 1.693 0 0 1 25.623 3.535 A 2.239 2.239 0 0 1 25.629 3.63 L 24.86 3.63 Q 24.825 3.168 24.51 2.872 A 1.078 1.078 0 0 0 23.781 2.576 A 1.402 1.402 0 0 0 23.735 2.575 A 1.374 1.374 0 0 0 23.313 2.637 A 1.081 1.081 0 0 0 22.775 3.021 A 1.469 1.469 0 0 0 22.548 3.468 Q 22.482 3.674 22.454 3.923 A 3.514 3.514 0 0 0 22.434 4.311 L 22.434 4.465 Q 22.434 5.287 22.772 5.73 A 1.1 1.1 0 0 0 23.559 6.165 A 1.611 1.611 0 0 0 23.739 6.174 A 1.171 1.171 0 0 0 24.5 5.911 A 1.007 1.007 0 0 0 24.744 5.629 A 0.914 0.914 0 0 0 24.86 5.251 Z M 10.96 6.75 L 10.107 6.75 A 0.632 0.632 0 0 1 10.072 6.66 Q 10.041 6.562 10.016 6.41 A 3.997 3.997 0 0 1 9.993 6.249 Q 9.426 6.838 8.64 6.838 A 2.033 2.033 0 0 1 8.11 6.772 A 1.529 1.529 0 0 1 7.486 6.44 Q 7.036 6.042 7.036 5.432 Q 7.036 4.689 7.6 4.278 Q 8.165 3.867 9.189 3.867 L 9.98 3.867 L 9.98 3.494 A 1.152 1.152 0 0 0 9.944 3.199 A 0.828 0.828 0 0 0 9.725 2.815 Q 9.509 2.6 9.118 2.568 A 1.748 1.748 0 0 0 8.974 2.562 Q 8.539 2.562 8.244 2.782 Q 7.95 3.001 7.95 3.313 L 7.132 3.313 A 1.041 1.041 0 0 1 7.257 2.825 A 1.409 1.409 0 0 1 7.385 2.626 Q 7.638 2.294 8.071 2.101 A 2.249 2.249 0 0 1 8.846 1.913 A 2.669 2.669 0 0 1 9.022 1.907 A 2.65 2.65 0 0 1 9.539 1.955 Q 9.847 2.016 10.085 2.156 A 1.439 1.439 0 0 1 10.31 2.318 A 1.396 1.396 0 0 1 10.763 3.144 A 1.998 1.998 0 0 1 10.793 3.45 L 10.793 5.638 Q 10.793 6.073 10.867 6.39 A 1.707 1.707 0 0 0 10.96 6.68 L 10.96 6.75 Z M 51.456 6.75 L 50.603 6.75 A 0.632 0.632 0 0 1 50.568 6.66 Q 50.536 6.562 50.511 6.41 A 3.997 3.997 0 0 1 50.489 6.249 Q 49.922 6.838 49.135 6.838 A 2.033 2.033 0 0 1 48.606 6.772 A 1.529 1.529 0 0 1 47.982 6.44 Q 47.531 6.042 47.531 5.432 Q 47.531 4.689 48.096 4.278 Q 48.661 3.867 49.685 3.867 L 50.476 3.867 L 50.476 3.494 A 1.152 1.152 0 0 0 50.44 3.199 A 0.828 0.828 0 0 0 50.221 2.815 Q 50.004 2.6 49.614 2.568 A 1.748 1.748 0 0 0 49.469 2.562 Q 49.034 2.562 48.74 2.782 Q 48.445 3.001 48.445 3.313 L 47.628 3.313 A 1.041 1.041 0 0 1 47.753 2.825 A 1.409 1.409 0 0 1 47.881 2.626 Q 48.133 2.294 48.566 2.101 A 2.249 2.249 0 0 1 49.342 1.913 A 2.669 2.669 0 0 1 49.518 1.907 A 2.65 2.65 0 0 1 50.035 1.955 Q 50.342 2.016 50.581 2.156 A 1.439 1.439 0 0 1 50.805 2.318 A 1.396 1.396 0 0 1 51.259 3.144 A 1.998 1.998 0 0 1 51.289 3.45 L 51.289 5.638 Q 51.289 6.073 51.362 6.39 A 1.707 1.707 0 0 0 51.456 6.68 L 51.456 6.75 Z M 59.506 4.504 L 59.506 4.355 A 3.17 3.17 0 0 1 59.583 3.646 A 2.581 2.581 0 0 1 59.777 3.092 A 2.191 2.191 0 0 1 60.224 2.466 A 2.033 2.033 0 0 1 60.532 2.221 Q 61.018 1.907 61.585 1.907 A 2.254 2.254 0 0 1 62.198 1.986 A 1.639 1.639 0 0 1 63.026 2.518 Q 63.541 3.129 63.541 4.267 L 63.541 4.605 L 60.319 4.605 A 2.111 2.111 0 0 0 60.39 5.114 A 1.516 1.516 0 0 0 60.73 5.741 A 1.282 1.282 0 0 0 61.664 6.173 A 1.652 1.652 0 0 0 61.73 6.174 A 1.763 1.763 0 0 0 62.058 6.145 Q 62.282 6.103 62.459 5.999 A 1.827 1.827 0 0 0 62.968 5.551 A 2.068 2.068 0 0 0 62.982 5.533 L 63.479 5.919 A 1.926 1.926 0 0 1 62.079 6.811 A 2.749 2.749 0 0 1 61.686 6.838 A 2.394 2.394 0 0 1 60.935 6.725 A 1.974 1.974 0 0 1 60.113 6.203 Q 59.506 5.568 59.506 4.504 Z M 16.998 0.844 L 17.811 0.844 L 17.811 1.995 L 18.699 1.995 L 18.699 2.624 L 17.811 2.624 L 17.811 5.572 Q 17.811 5.858 17.93 6.001 Q 18.048 6.144 18.334 6.144 A 1.046 1.046 0 0 0 18.431 6.138 Q 18.534 6.129 18.674 6.101 A 4.024 4.024 0 0 0 18.721 6.091 L 18.721 6.75 A 2.463 2.463 0 0 1 18.288 6.829 A 2.157 2.157 0 0 1 18.097 6.838 Q 17.65 6.838 17.383 6.616 A 0.856 0.856 0 0 1 17.275 6.508 Q 17.047 6.238 17.007 5.78 A 2.351 2.351 0 0 1 16.998 5.572 L 16.998 2.624 L 16.132 2.624 L 16.132 1.995 L 16.998 1.995 L 16.998 0.844 Z M 45.018 0.844 L 45.831 0.844 L 45.831 1.995 L 46.718 1.995 L 46.718 2.624 L 45.831 2.624 L 45.831 5.572 Q 45.831 5.858 45.949 6.001 Q 46.068 6.144 46.354 6.144 A 1.046 1.046 0 0 0 46.451 6.138 Q 46.554 6.129 46.694 6.101 A 4.024 4.024 0 0 0 46.74 6.091 L 46.74 6.75 A 2.463 2.463 0 0 1 46.307 6.829 A 2.157 2.157 0 0 1 46.116 6.838 Q 45.669 6.838 45.402 6.616 A 0.856 0.856 0 0 1 45.294 6.508 Q 45.067 6.238 45.026 5.78 A 2.351 2.351 0 0 1 45.018 5.572 L 45.018 2.624 L 44.152 2.624 L 44.152 1.995 L 45.018 1.995 L 45.018 0.844 Z M 5.871 0 L 5.871 6.75 L 5.058 6.75 L 5.058 0 L 5.871 0 Z M 34.414 4.386 L 34.414 4.329 A 3.057 3.057 0 0 1 34.5 3.587 A 2.573 2.573 0 0 1 34.688 3.072 A 2.16 2.16 0 0 1 35.103 2.486 A 1.957 1.957 0 0 1 35.453 2.21 A 2.036 2.036 0 0 1 36.397 1.913 A 2.491 2.491 0 0 1 36.571 1.907 A 2.277 2.277 0 0 1 37.325 2.027 A 1.937 1.937 0 0 1 38.142 2.58 A 2.29 2.29 0 0 1 38.661 3.608 A 3.373 3.373 0 0 1 38.742 4.368 L 38.742 4.425 A 3.114 3.114 0 0 1 38.663 5.142 A 2.577 2.577 0 0 1 38.476 5.671 A 2.056 2.056 0 0 1 37.949 6.361 A 2.001 2.001 0 0 1 37.716 6.53 A 2.045 2.045 0 0 1 36.796 6.829 A 2.529 2.529 0 0 1 36.58 6.838 A 2.262 2.262 0 0 1 35.83 6.718 A 1.938 1.938 0 0 1 35.013 6.166 A 2.297 2.297 0 0 1 34.488 5.111 A 3.357 3.357 0 0 1 34.414 4.386 Z M 66.779 1.969 L 66.779 2.725 A 2.251 2.251 0 0 0 66.537 2.698 A 2.782 2.782 0 0 0 66.379 2.694 Q 65.602 2.694 65.31 3.338 A 1.445 1.445 0 0 0 65.294 3.375 L 65.294 6.75 L 64.481 6.75 L 64.481 1.995 L 65.272 1.995 L 65.285 2.544 Q 65.666 1.938 66.348 1.909 A 1.636 1.636 0 0 1 66.419 1.907 Q 66.656 1.907 66.779 1.969 Z M 20.531 1.995 L 20.531 6.75 L 19.718 6.75 L 19.718 1.995 L 20.531 1.995 Z M 53.446 1.995 L 53.446 6.75 L 52.633 6.75 L 52.633 1.995 L 53.446 1.995 Z M 35.231 4.425 A 2.772 2.772 0 0 0 35.278 4.954 Q 35.339 5.264 35.476 5.51 A 1.545 1.545 0 0 0 35.598 5.695 Q 35.965 6.174 36.58 6.174 A 1.269 1.269 0 0 0 37.069 6.083 Q 37.349 5.967 37.551 5.706 A 1.471 1.471 0 0 0 37.564 5.689 A 1.648 1.648 0 0 0 37.819 5.171 Q 37.888 4.945 37.914 4.672 A 3.655 3.655 0 0 0 37.929 4.329 A 2.687 2.687 0 0 0 37.878 3.789 Q 37.81 3.459 37.653 3.2 A 1.586 1.586 0 0 0 37.558 3.061 A 1.231 1.231 0 0 0 37.143 2.705 Q 36.89 2.575 36.571 2.575 Q 35.981 2.575 35.615 3.035 A 1.515 1.515 0 0 0 35.6 3.054 A 1.589 1.589 0 0 0 35.348 3.552 Q 35.278 3.772 35.25 4.039 A 3.676 3.676 0 0 0 35.231 4.425 Z M 9.98 5.418 L 9.98 4.443 L 9.343 4.443 Q 7.849 4.443 7.849 5.317 Q 7.849 5.7 8.104 5.915 A 0.893 0.893 0 0 0 8.517 6.108 A 1.259 1.259 0 0 0 8.758 6.13 A 1.429 1.429 0 0 0 9.483 5.933 A 1.335 1.335 0 0 0 9.779 5.705 A 1.108 1.108 0 0 0 9.98 5.418 Z M 50.476 5.418 L 50.476 4.443 L 49.838 4.443 Q 48.344 4.443 48.344 5.317 Q 48.344 5.7 48.599 5.915 A 0.893 0.893 0 0 0 49.013 6.108 A 1.259 1.259 0 0 0 49.254 6.13 A 1.429 1.429 0 0 0 49.979 5.933 A 1.335 1.335 0 0 0 50.275 5.705 A 1.108 1.108 0 0 0 50.476 5.418 Z M 60.346 3.938 L 62.728 3.938 L 62.728 3.876 Q 62.702 3.417 62.531 3.111 A 1.13 1.13 0 0 0 62.394 2.916 A 0.983 0.983 0 0 0 61.739 2.584 A 1.39 1.39 0 0 0 61.585 2.575 A 1.106 1.106 0 0 0 61.062 2.698 A 1.14 1.14 0 0 0 60.759 2.933 A 1.417 1.417 0 0 0 60.482 3.379 Q 60.409 3.563 60.369 3.785 A 2.741 2.741 0 0 0 60.346 3.938 Z M 19.652 0.734 Q 19.652 0.536 19.773 0.4 Q 19.885 0.274 20.097 0.264 A 0.783 0.783 0 0 1 20.131 0.264 Q 20.369 0.264 20.492 0.4 A 0.474 0.474 0 0 1 20.614 0.703 A 0.614 0.614 0 0 1 20.615 0.734 A 0.523 0.523 0 0 1 20.589 0.9 A 0.442 0.442 0 0 1 20.492 1.063 Q 20.379 1.184 20.171 1.194 A 0.803 0.803 0 0 1 20.131 1.195 Q 19.959 1.195 19.848 1.126 A 0.362 0.362 0 0 1 19.773 1.063 A 0.456 0.456 0 0 1 19.655 0.788 A 0.605 0.605 0 0 1 19.652 0.734 Z M 52.567 0.734 Q 52.567 0.536 52.688 0.4 Q 52.8 0.274 53.012 0.264 A 0.783 0.783 0 0 1 53.046 0.264 Q 53.284 0.264 53.407 0.4 A 0.474 0.474 0 0 1 53.529 0.703 A 0.614 0.614 0 0 1 53.53 0.734 A 0.523 0.523 0 0 1 53.505 0.9 A 0.442 0.442 0 0 1 53.407 1.063 Q 53.294 1.184 53.086 1.194 A 0.803 0.803 0 0 1 53.046 1.195 Q 52.874 1.195 52.763 1.126 A 0.362 0.362 0 0 1 52.688 1.063 A 0.456 0.456 0 0 1 52.57 0.788 A 0.605 0.605 0 0 1 52.567 0.734 Z" vector-effect="non-scaling-stroke"/></g><g transform="translate(25, 93)" id="svgGroup" stroke-linecap="round" fill-rule="evenodd" font-size="9pt" stroke="#000" stroke-width="0.25mm" fill="#000" style="stroke:#000;stroke-width:0.25mm;fill:#000"><path d="M 4.636 2.202 L 3.788 2.202 A 1.466 1.466 0 0 0 3.738 1.809 A 1.066 1.066 0 0 0 3.419 1.29 A 1.211 1.211 0 0 0 2.95 1.033 Q 2.698 0.958 2.378 0.958 A 2.286 2.286 0 0 0 1.998 0.988 Q 1.796 1.022 1.633 1.095 A 1.101 1.101 0 0 0 1.404 1.233 A 0.892 0.892 0 0 0 1.059 1.887 A 1.267 1.267 0 0 0 1.055 1.995 A 0.806 0.806 0 0 0 1.323 2.6 A 1.134 1.134 0 0 0 1.387 2.656 A 1.562 1.562 0 0 0 1.625 2.813 Q 1.955 2.993 2.516 3.151 A 8.228 8.228 0 0 1 2.981 3.295 Q 3.216 3.377 3.41 3.464 A 3.297 3.297 0 0 1 3.764 3.645 A 2.342 2.342 0 0 1 4.103 3.889 Q 4.293 4.056 4.415 4.248 A 1.45 1.45 0 0 1 4.432 4.276 A 1.498 1.498 0 0 1 4.628 4.832 A 1.948 1.948 0 0 1 4.65 5.124 A 1.606 1.606 0 0 1 4.527 5.76 Q 4.382 6.101 4.064 6.354 A 1.886 1.886 0 0 1 4.043 6.37 Q 3.437 6.838 2.422 6.838 A 3.023 3.023 0 0 1 1.281 6.623 A 2.917 2.917 0 0 1 1.191 6.585 A 2.383 2.383 0 0 1 0.713 6.307 A 1.874 1.874 0 0 1 0.31 5.893 A 1.689 1.689 0 0 1 0 4.896 L 0.848 4.896 A 1.261 1.261 0 0 0 0.918 5.323 A 1.074 1.074 0 0 0 1.277 5.812 Q 1.661 6.113 2.278 6.144 A 2.87 2.87 0 0 0 2.422 6.148 A 2.628 2.628 0 0 0 2.809 6.121 Q 3.005 6.092 3.164 6.031 A 1.129 1.129 0 0 0 3.445 5.875 Q 3.801 5.603 3.801 5.133 A 1.074 1.074 0 0 0 3.759 4.822 A 0.816 0.816 0 0 0 3.472 4.406 Q 3.142 4.148 2.277 3.898 Q 1.191 3.586 0.697 3.131 Q 0.202 2.676 0.202 2.008 Q 0.202 1.252 0.807 0.758 A 2.121 2.121 0 0 1 1.697 0.335 A 3.087 3.087 0 0 1 2.378 0.264 A 2.913 2.913 0 0 1 3.038 0.336 A 2.372 2.372 0 0 1 3.553 0.519 A 2.051 2.051 0 0 1 4.084 0.889 A 1.834 1.834 0 0 1 4.353 1.222 A 1.798 1.798 0 0 1 4.636 2.202 Z M 36.119 2.202 L 35.271 2.202 A 1.466 1.466 0 0 0 35.221 1.809 A 1.066 1.066 0 0 0 34.902 1.29 A 1.211 1.211 0 0 0 34.432 1.033 Q 34.18 0.958 33.86 0.958 A 2.286 2.286 0 0 0 33.48 0.988 Q 33.278 1.022 33.116 1.095 A 1.101 1.101 0 0 0 32.887 1.233 A 0.892 0.892 0 0 0 32.542 1.887 A 1.267 1.267 0 0 0 32.537 1.995 A 0.806 0.806 0 0 0 32.805 2.6 A 1.134 1.134 0 0 0 32.869 2.656 A 1.562 1.562 0 0 0 33.107 2.813 Q 33.438 2.993 33.998 3.151 A 8.228 8.228 0 0 1 34.463 3.295 Q 34.698 3.377 34.893 3.464 A 3.297 3.297 0 0 1 35.246 3.645 A 2.342 2.342 0 0 1 35.585 3.889 Q 35.775 4.056 35.897 4.248 A 1.45 1.45 0 0 1 35.914 4.276 A 1.498 1.498 0 0 1 36.111 4.832 A 1.948 1.948 0 0 1 36.132 5.124 A 1.606 1.606 0 0 1 36.01 5.76 Q 35.864 6.101 35.546 6.354 A 1.886 1.886 0 0 1 35.526 6.37 Q 34.919 6.838 33.904 6.838 A 3.023 3.023 0 0 1 32.763 6.623 A 2.917 2.917 0 0 1 32.673 6.585 A 2.383 2.383 0 0 1 32.195 6.307 A 1.874 1.874 0 0 1 31.792 5.893 A 1.689 1.689 0 0 1 31.483 4.896 L 32.331 4.896 A 1.261 1.261 0 0 0 32.4 5.323 A 1.074 1.074 0 0 0 32.759 5.812 Q 33.144 6.113 33.76 6.144 A 2.87 2.87 0 0 0 33.904 6.148 A 2.628 2.628 0 0 0 34.291 6.121 Q 34.487 6.092 34.646 6.031 A 1.129 1.129 0 0 0 34.928 5.875 Q 35.284 5.603 35.284 5.133 A 1.074 1.074 0 0 0 35.241 4.822 A 0.816 0.816 0 0 0 34.954 4.406 Q 34.625 4.148 33.759 3.898 Q 32.673 3.586 32.179 3.131 Q 31.685 2.676 31.685 2.008 Q 31.685 1.252 32.289 0.758 A 2.121 2.121 0 0 1 33.179 0.335 A 3.087 3.087 0 0 1 33.86 0.264 A 2.913 2.913 0 0 1 34.52 0.336 A 2.372 2.372 0 0 1 35.036 0.519 A 2.051 2.051 0 0 1 35.567 0.889 A 1.834 1.834 0 0 1 35.835 1.222 A 1.798 1.798 0 0 1 36.119 2.202 Z M 92.391 6.75 L 90.734 4.548 L 90.224 5.08 L 90.224 6.75 L 89.411 6.75 L 89.411 0 L 90.224 0 L 90.224 4.083 L 90.659 3.56 L 92.14 1.995 L 93.129 1.995 L 91.279 3.981 L 93.344 6.75 L 92.391 6.75 Z M 23.067 5.251 L 23.836 5.251 A 1.432 1.432 0 0 1 23.637 5.901 A 1.772 1.772 0 0 1 23.555 6.029 A 1.828 1.828 0 0 1 22.946 6.574 A 2.169 2.169 0 0 1 22.863 6.618 A 1.997 1.997 0 0 1 21.946 6.838 A 2.346 2.346 0 0 1 21.249 6.739 A 1.839 1.839 0 0 1 20.402 6.19 A 2.171 2.171 0 0 1 19.938 5.31 Q 19.828 4.909 19.828 4.417 L 19.828 4.28 A 3.24 3.24 0 0 1 19.892 3.624 A 2.57 2.57 0 0 1 20.083 3.045 A 2.008 2.008 0 0 1 20.523 2.431 A 1.892 1.892 0 0 1 20.815 2.206 A 1.943 1.943 0 0 1 21.571 1.934 A 2.529 2.529 0 0 1 21.942 1.907 A 2.196 2.196 0 0 1 22.59 1.999 A 1.786 1.786 0 0 1 23.271 2.386 A 1.693 1.693 0 0 1 23.83 3.535 A 2.239 2.239 0 0 1 23.836 3.63 L 23.067 3.63 Q 23.032 3.168 22.718 2.872 A 1.078 1.078 0 0 0 21.989 2.576 A 1.402 1.402 0 0 0 21.942 2.575 A 1.374 1.374 0 0 0 21.521 2.637 A 1.081 1.081 0 0 0 20.982 3.021 A 1.469 1.469 0 0 0 20.755 3.468 Q 20.689 3.674 20.662 3.923 A 3.514 3.514 0 0 0 20.641 4.311 L 20.641 4.465 Q 20.641 5.287 20.98 5.73 A 1.1 1.1 0 0 0 21.766 6.165 A 1.611 1.611 0 0 0 21.946 6.174 A 1.171 1.171 0 0 0 22.707 5.911 A 1.007 1.007 0 0 0 22.951 5.629 A 0.914 0.914 0 0 0 23.067 5.251 Z M 54.549 5.251 L 55.319 5.251 A 1.432 1.432 0 0 1 55.119 5.901 A 1.772 1.772 0 0 1 55.037 6.029 A 1.828 1.828 0 0 1 54.428 6.574 A 2.169 2.169 0 0 1 54.345 6.618 A 1.997 1.997 0 0 1 53.429 6.838 A 2.346 2.346 0 0 1 52.732 6.739 A 1.839 1.839 0 0 1 51.884 6.19 A 2.171 2.171 0 0 1 51.42 5.31 Q 51.311 4.909 51.311 4.417 L 51.311 4.28 A 3.24 3.24 0 0 1 51.374 3.624 A 2.57 2.57 0 0 1 51.566 3.045 A 2.008 2.008 0 0 1 52.005 2.431 A 1.892 1.892 0 0 1 52.297 2.206 A 1.943 1.943 0 0 1 53.054 1.934 A 2.529 2.529 0 0 1 53.424 1.907 A 2.196 2.196 0 0 1 54.073 1.999 A 1.786 1.786 0 0 1 54.754 2.386 A 1.693 1.693 0 0 1 55.312 3.535 A 2.239 2.239 0 0 1 55.319 3.63 L 54.549 3.63 Q 54.514 3.168 54.2 2.872 A 1.078 1.078 0 0 0 53.471 2.576 A 1.402 1.402 0 0 0 53.424 2.575 A 1.374 1.374 0 0 0 53.003 2.637 A 1.081 1.081 0 0 0 52.464 3.021 A 1.469 1.469 0 0 0 52.238 3.468 Q 52.172 3.674 52.144 3.923 A 3.514 3.514 0 0 0 52.124 4.311 L 52.124 4.465 Q 52.124 5.287 52.462 5.73 A 1.1 1.1 0 0 0 53.249 6.165 A 1.611 1.611 0 0 0 53.429 6.174 A 1.171 1.171 0 0 0 54.189 5.911 A 1.007 1.007 0 0 0 54.433 5.629 A 0.914 0.914 0 0 0 54.549 5.251 Z M 85.254 6.75 L 84.402 6.75 A 0.632 0.632 0 0 1 84.366 6.66 Q 84.335 6.562 84.31 6.41 A 3.997 3.997 0 0 1 84.287 6.249 Q 83.72 6.838 82.934 6.838 A 2.033 2.033 0 0 1 82.404 6.772 A 1.529 1.529 0 0 1 81.78 6.44 Q 81.33 6.042 81.33 5.432 Q 81.33 4.689 81.894 4.278 Q 82.459 3.867 83.483 3.867 L 84.274 3.867 L 84.274 3.494 A 1.152 1.152 0 0 0 84.238 3.199 A 0.828 0.828 0 0 0 84.019 2.815 Q 83.803 2.6 83.413 2.568 A 1.748 1.748 0 0 0 83.268 2.562 Q 82.833 2.562 82.538 2.782 Q 82.244 3.001 82.244 3.313 L 81.426 3.313 A 1.041 1.041 0 0 1 81.551 2.825 A 1.409 1.409 0 0 1 81.679 2.626 Q 81.932 2.294 82.365 2.101 A 2.249 2.249 0 0 1 83.14 1.913 A 2.669 2.669 0 0 1 83.316 1.907 A 2.65 2.65 0 0 1 83.834 1.955 Q 84.141 2.016 84.38 2.156 A 1.439 1.439 0 0 1 84.604 2.318 A 1.396 1.396 0 0 1 85.057 3.144 A 1.998 1.998 0 0 1 85.087 3.45 L 85.087 5.638 Q 85.087 6.073 85.161 6.39 A 1.707 1.707 0 0 0 85.254 6.68 L 85.254 6.75 Z M 5.397 4.504 L 5.397 4.355 A 3.17 3.17 0 0 1 5.473 3.646 A 2.581 2.581 0 0 1 5.667 3.092 A 2.191 2.191 0 0 1 6.114 2.466 A 2.033 2.033 0 0 1 6.423 2.221 Q 6.908 1.907 7.475 1.907 A 2.254 2.254 0 0 1 8.088 1.986 A 1.639 1.639 0 0 1 8.917 2.518 Q 9.431 3.129 9.431 4.267 L 9.431 4.605 L 6.21 4.605 A 2.111 2.111 0 0 0 6.281 5.114 A 1.516 1.516 0 0 0 6.621 5.741 A 1.282 1.282 0 0 0 7.555 6.173 A 1.652 1.652 0 0 0 7.62 6.174 A 1.763 1.763 0 0 0 7.948 6.145 Q 8.172 6.103 8.35 5.999 A 1.827 1.827 0 0 0 8.859 5.551 A 2.068 2.068 0 0 0 8.873 5.533 L 9.369 5.919 A 1.926 1.926 0 0 1 7.97 6.811 A 2.749 2.749 0 0 1 7.576 6.838 A 2.394 2.394 0 0 1 6.825 6.725 A 1.974 1.974 0 0 1 6.003 6.203 Q 5.397 5.568 5.397 4.504 Z M 24.544 4.504 L 24.544 4.355 A 3.17 3.17 0 0 1 24.62 3.646 A 2.581 2.581 0 0 1 24.814 3.092 A 2.191 2.191 0 0 1 25.261 2.466 A 2.033 2.033 0 0 1 25.57 2.221 Q 26.055 1.907 26.622 1.907 A 2.254 2.254 0 0 1 27.235 1.986 A 1.639 1.639 0 0 1 28.064 2.518 Q 28.578 3.129 28.578 4.267 L 28.578 4.605 L 25.357 4.605 A 2.111 2.111 0 0 0 25.428 5.114 A 1.516 1.516 0 0 0 25.767 5.741 A 1.282 1.282 0 0 0 26.702 6.173 A 1.652 1.652 0 0 0 26.767 6.174 A 1.763 1.763 0 0 0 27.095 6.145 Q 27.319 6.103 27.497 5.999 A 1.827 1.827 0 0 0 28.006 5.551 A 2.068 2.068 0 0 0 28.02 5.533 L 28.516 5.919 A 1.926 1.926 0 0 1 27.117 6.811 A 2.749 2.749 0 0 1 26.723 6.838 A 2.394 2.394 0 0 1 25.972 6.725 A 1.974 1.974 0 0 1 25.15 6.203 Q 24.544 5.568 24.544 4.504 Z M 36.879 4.504 L 36.879 4.355 A 3.17 3.17 0 0 1 36.955 3.646 A 2.581 2.581 0 0 1 37.149 3.092 A 2.191 2.191 0 0 1 37.597 2.466 A 2.033 2.033 0 0 1 37.905 2.221 Q 38.391 1.907 38.958 1.907 A 2.254 2.254 0 0 1 39.571 1.986 A 1.639 1.639 0 0 1 40.399 2.518 Q 40.913 3.129 40.913 4.267 L 40.913 4.605 L 37.692 4.605 A 2.111 2.111 0 0 0 37.763 5.114 A 1.516 1.516 0 0 0 38.103 5.741 A 1.282 1.282 0 0 0 39.037 6.173 A 1.652 1.652 0 0 0 39.103 6.174 A 1.763 1.763 0 0 0 39.431 6.145 Q 39.655 6.103 39.832 5.999 A 1.827 1.827 0 0 0 40.341 5.551 A 2.068 2.068 0 0 0 40.355 5.533 L 40.852 5.919 A 1.926 1.926 0 0 1 39.452 6.811 A 2.749 2.749 0 0 1 39.059 6.838 A 2.394 2.394 0 0 1 38.308 6.725 A 1.974 1.974 0 0 1 37.485 6.203 Q 36.879 5.568 36.879 4.504 Z M 56.026 4.504 L 56.026 4.355 A 3.17 3.17 0 0 1 56.102 3.646 A 2.581 2.581 0 0 1 56.296 3.092 A 2.191 2.191 0 0 1 56.744 2.466 A 2.033 2.033 0 0 1 57.052 2.221 Q 57.538 1.907 58.105 1.907 A 2.254 2.254 0 0 1 58.718 1.986 A 1.639 1.639 0 0 1 59.546 2.518 Q 60.06 3.129 60.06 4.267 L 60.06 4.605 L 56.839 4.605 A 2.111 2.111 0 0 0 56.91 5.114 A 1.516 1.516 0 0 0 57.25 5.741 A 1.282 1.282 0 0 0 58.184 6.173 A 1.652 1.652 0 0 0 58.25 6.174 A 1.763 1.763 0 0 0 58.578 6.145 Q 58.802 6.103 58.979 5.999 A 1.827 1.827 0 0 0 59.488 5.551 A 2.068 2.068 0 0 0 59.502 5.533 L 59.999 5.919 A 1.926 1.926 0 0 1 58.599 6.811 A 2.749 2.749 0 0 1 58.206 6.838 A 2.394 2.394 0 0 1 57.455 6.725 A 1.974 1.974 0 0 1 56.632 6.203 Q 56.026 5.568 56.026 4.504 Z M 13.856 1.995 L 15.065 5.647 L 16.242 1.995 L 17.073 1.995 L 15.368 6.75 L 14.748 6.75 L 13.026 1.995 L 13.856 1.995 Z M 45.339 1.995 L 46.547 5.647 L 47.725 1.995 L 48.555 1.995 L 46.85 6.75 L 46.231 6.75 L 44.508 1.995 L 45.339 1.995 Z M 66.577 0.352 L 66.577 4.601 L 67.465 4.601 L 67.465 5.265 L 66.577 5.265 L 66.577 6.75 L 65.76 6.75 L 65.76 5.265 L 62.846 5.265 L 62.846 4.786 L 65.712 0.352 L 66.577 0.352 Z M 77.463 6.75 L 75.692 6.75 L 75.692 0.352 L 77.498 0.352 Q 78.333 0.352 78.974 0.721 Q 79.616 1.09 79.965 1.771 A 3.19 3.19 0 0 1 80.282 2.8 A 4.073 4.073 0 0 1 80.319 3.335 L 80.319 3.744 Q 80.319 4.649 79.97 5.331 A 2.457 2.457 0 0 1 78.972 6.376 Q 78.324 6.741 77.463 6.75 Z M 71.976 2.592 A 1.544 1.544 0 0 0 72.079 2.021 A 2.226 2.226 0 0 0 72.058 1.707 A 1.566 1.566 0 0 0 71.558 0.738 A 1.754 1.754 0 0 0 70.793 0.333 A 2.443 2.443 0 0 0 70.194 0.264 A 2.539 2.539 0 0 0 69.684 0.312 A 1.767 1.767 0 0 0 68.827 0.738 Q 68.309 1.213 68.309 2.021 A 1.808 1.808 0 0 0 68.309 2.058 A 1.499 1.499 0 0 0 68.555 2.87 A 1.626 1.626 0 0 0 68.717 3.077 A 1.726 1.726 0 0 0 69.227 3.454 A 2.119 2.119 0 0 0 69.128 3.5 A 1.738 1.738 0 0 0 68.443 4.087 A 1.629 1.629 0 0 0 68.159 5.023 A 2.272 2.272 0 0 0 68.169 5.237 A 1.63 1.63 0 0 0 68.715 6.344 A 1.895 1.895 0 0 0 69.566 6.771 A 2.797 2.797 0 0 0 70.194 6.838 A 2.796 2.796 0 0 0 70.793 6.777 A 1.925 1.925 0 0 0 71.668 6.346 A 1.578 1.578 0 0 0 72.143 5.62 A 1.989 1.989 0 0 0 72.229 5.023 A 1.581 1.581 0 0 0 71.936 4.087 Q 71.644 3.674 71.143 3.458 Q 71.574 3.248 71.827 2.874 A 1.449 1.449 0 0 0 71.976 2.592 Z M 12.67 1.969 L 12.67 2.725 A 2.251 2.251 0 0 0 12.427 2.698 A 2.782 2.782 0 0 0 12.27 2.694 Q 11.492 2.694 11.2 3.338 A 1.445 1.445 0 0 0 11.184 3.375 L 11.184 6.75 L 10.371 6.75 L 10.371 1.995 L 11.162 1.995 L 11.175 2.544 Q 11.556 1.938 12.238 1.909 A 1.636 1.636 0 0 1 12.309 1.907 Q 12.547 1.907 12.67 1.969 Z M 44.152 1.969 L 44.152 2.725 A 2.251 2.251 0 0 0 43.909 2.698 A 2.782 2.782 0 0 0 43.752 2.694 Q 42.974 2.694 42.683 3.338 A 1.445 1.445 0 0 0 42.667 3.375 L 42.667 6.75 L 41.854 6.75 L 41.854 1.995 L 42.645 1.995 L 42.658 2.544 Q 43.038 1.938 43.721 1.909 A 1.636 1.636 0 0 1 43.792 1.907 Q 44.029 1.907 44.152 1.969 Z M 88.66 1.969 L 88.66 2.725 A 2.251 2.251 0 0 0 88.417 2.698 A 2.782 2.782 0 0 0 88.26 2.694 Q 87.482 2.694 87.191 3.338 A 1.445 1.445 0 0 0 87.174 3.375 L 87.174 6.75 L 86.361 6.75 L 86.361 1.995 L 87.152 1.995 L 87.166 2.544 Q 87.546 1.938 88.229 1.909 A 1.636 1.636 0 0 1 88.299 1.907 Q 88.537 1.907 88.66 1.969 Z M 77.52 1.046 L 76.535 1.046 L 76.535 6.06 L 77.423 6.06 A 2.519 2.519 0 0 0 78.055 5.985 A 1.747 1.747 0 0 0 78.941 5.454 Q 79.401 4.94 79.471 4.059 A 4.165 4.165 0 0 0 79.484 3.727 L 79.484 3.353 Q 79.484 2.562 79.214 2.027 A 1.864 1.864 0 0 0 78.972 1.659 A 1.687 1.687 0 0 0 77.976 1.09 A 2.499 2.499 0 0 0 77.52 1.046 Z M 18.738 1.995 L 18.738 6.75 L 17.925 6.75 L 17.925 1.995 L 18.738 1.995 Z M 50.221 1.995 L 50.221 6.75 L 49.408 6.75 L 49.408 1.995 L 50.221 1.995 Z M 65.663 1.639 L 63.769 4.601 L 65.76 4.601 L 65.76 1.463 L 65.663 1.639 Z M 71.416 5.005 A 1.375 1.375 0 0 0 71.356 4.592 A 1.109 1.109 0 0 0 71.075 4.131 A 1.148 1.148 0 0 0 70.404 3.807 A 1.593 1.593 0 0 0 70.185 3.792 A 1.466 1.466 0 0 0 69.797 3.841 A 1.086 1.086 0 0 0 69.304 4.126 A 1.123 1.123 0 0 0 68.991 4.762 A 1.572 1.572 0 0 0 68.972 5.005 A 1.48 1.48 0 0 0 69.014 5.367 A 1.019 1.019 0 0 0 69.295 5.862 Q 69.601 6.158 70.134 6.173 A 2.053 2.053 0 0 0 70.194 6.174 Q 70.688 6.174 70.998 5.94 A 1.018 1.018 0 0 0 71.09 5.86 A 1.041 1.041 0 0 0 71.39 5.292 A 1.518 1.518 0 0 0 71.416 5.005 Z M 70.194 0.932 A 1.259 1.259 0 0 0 69.841 0.979 A 0.973 0.973 0 0 0 69.418 1.228 Q 69.122 1.525 69.122 2.035 A 1.325 1.325 0 0 0 69.166 2.387 A 0.994 0.994 0 0 0 69.414 2.823 A 0.974 0.974 0 0 0 69.976 3.108 A 1.382 1.382 0 0 0 70.194 3.125 A 1.279 1.279 0 0 0 70.539 3.08 A 0.952 0.952 0 0 0 70.974 2.823 A 1.018 1.018 0 0 0 71.249 2.26 A 1.426 1.426 0 0 0 71.266 2.035 A 1.282 1.282 0 0 0 71.216 1.668 A 1.013 1.013 0 0 0 70.963 1.239 Q 70.66 0.932 70.194 0.932 Z M 84.274 5.418 L 84.274 4.443 L 83.637 4.443 Q 82.143 4.443 82.143 5.317 Q 82.143 5.7 82.398 5.915 A 0.893 0.893 0 0 0 82.811 6.108 A 1.259 1.259 0 0 0 83.052 6.13 A 1.429 1.429 0 0 0 83.777 5.933 A 1.335 1.335 0 0 0 84.073 5.705 A 1.108 1.108 0 0 0 84.274 5.418 Z M 6.236 3.938 L 8.618 3.938 L 8.618 3.876 Q 8.592 3.417 8.421 3.111 A 1.13 1.13 0 0 0 8.284 2.916 A 0.983 0.983 0 0 0 7.629 2.584 A 1.39 1.39 0 0 0 7.475 2.575 A 1.106 1.106 0 0 0 6.953 2.698 A 1.14 1.14 0 0 0 6.649 2.933 A 1.417 1.417 0 0 0 6.372 3.379 Q 6.299 3.563 6.259 3.785 A 2.741 2.741 0 0 0 6.236 3.938 Z M 25.383 3.938 L 27.765 3.938 L 27.765 3.876 Q 27.739 3.417 27.568 3.111 A 1.13 1.13 0 0 0 27.431 2.916 A 0.983 0.983 0 0 0 26.776 2.584 A 1.39 1.39 0 0 0 26.622 2.575 A 1.106 1.106 0 0 0 26.1 2.698 A 1.14 1.14 0 0 0 25.796 2.933 A 1.417 1.417 0 0 0 25.519 3.379 Q 25.446 3.563 25.406 3.785 A 2.741 2.741 0 0 0 25.383 3.938 Z M 37.718 3.938 L 40.1 3.938 L 40.1 3.876 Q 40.074 3.417 39.904 3.111 A 1.13 1.13 0 0 0 39.766 2.916 A 0.983 0.983 0 0 0 39.112 2.584 A 1.39 1.39 0 0 0 38.958 2.575 A 1.106 1.106 0 0 0 38.435 2.698 A 1.14 1.14 0 0 0 38.131 2.933 A 1.417 1.417 0 0 0 37.855 3.379 Q 37.781 3.563 37.741 3.785 A 2.741 2.741 0 0 0 37.718 3.938 Z M 56.865 3.938 L 59.247 3.938 L 59.247 3.876 Q 59.221 3.417 59.051 3.111 A 1.13 1.13 0 0 0 58.913 2.916 A 0.983 0.983 0 0 0 58.259 2.584 A 1.39 1.39 0 0 0 58.105 2.575 A 1.106 1.106 0 0 0 57.582 2.698 A 1.14 1.14 0 0 0 57.278 2.933 A 1.417 1.417 0 0 0 57.002 3.379 Q 56.928 3.563 56.888 3.785 A 2.741 2.741 0 0 0 56.865 3.938 Z M 17.86 0.734 Q 17.86 0.536 17.98 0.4 Q 18.092 0.274 18.304 0.264 A 0.783 0.783 0 0 1 18.339 0.264 Q 18.576 0.264 18.699 0.4 A 0.474 0.474 0 0 1 18.821 0.703 A 0.614 0.614 0 0 1 18.822 0.734 A 0.523 0.523 0 0 1 18.797 0.9 A 0.442 0.442 0 0 1 18.699 1.063 Q 18.586 1.184 18.378 1.194 A 0.803 0.803 0 0 1 18.339 1.195 Q 18.166 1.195 18.055 1.126 A 0.362 0.362 0 0 1 17.98 1.063 A 0.456 0.456 0 0 1 17.862 0.788 A 0.605 0.605 0 0 1 17.86 0.734 Z M 49.342 0.734 Q 49.342 0.536 49.463 0.4 Q 49.575 0.274 49.786 0.264 A 0.783 0.783 0 0 1 49.821 0.264 Q 50.058 0.264 50.181 0.4 A 0.474 0.474 0 0 1 50.304 0.703 A 0.614 0.614 0 0 1 50.304 0.734 A 0.523 0.523 0 0 1 50.279 0.9 A 0.442 0.442 0 0 1 50.181 1.063 Q 50.069 1.184 49.861 1.194 A 0.803 0.803 0 0 1 49.821 1.195 Q 49.649 1.195 49.538 1.126 A 0.362 0.362 0 0 1 49.463 1.063 A 0.456 0.456 0 0 1 49.344 0.788 A 0.605 0.605 0 0 1 49.342 0.734 Z" vector-effect="non-scaling-stroke"/></g>
</svg>