<?xml version="1.0" encoding="UTF-8"?>
<svg width="48px" height="48px" viewBox="0 0 48 48" version="1.1" xmlns="http://www.w3.org/2000/svg" xmlns:xlink="http://www.w3.org/1999/xlink">
    <title>Icon-Resource/Application-Integration/Res_Amazon-EventBridge-Saas-Partner-Event_48_Light</title>
    <g id="Icon-Resource/Application-Integration/Res_Amazon-EventBridge-Saas-Partner-Event_48" stroke="none" stroke-width="1" fill="none" fill-rule="evenodd">
        <path transform="translate(12.000000, 8.000000), scale(.65)" d="M31.084,20.877 L25.023,24.333 L24.984,31.31 L31.046,27.855 L31.084,20.877 Z M16.858,27.821 L22.983,31.402 L23.023,24.241 L16.898,20.66 L16.858,27.821 Z M17.855,18.902 L24.103,22.555 L30.267,19.04 L24.021,15.388 L17.855,18.902 Z M24.47,33.905 C24.316,33.992 24.146,34.036 23.975,34.036 C23.839,34.036 23.707,34 23.58,33.945 L15.351,29.257 C15.042,29.076 14.854,28.745 14.8548202,28.388 L14.908,18.917 C14.91,18.592 15.075,18.296 15.338,18.111 L23.532,13.364 C23.842,13.189 24.223,13.19 24.532,13.37 L32.618,18.302 C32.914,18.485 33.096,18.807 33.0940324,19.156 L33.043,28.443 C33.041,28.8 32.849,29.129 32.538,29.307 L24.47,33.905 Z M33.454,4.026 L31.614,3.241 L28.811,9.816 L30.65,10.602 L33.454,4.026 Z M42.132,11.32 L40.931,9.721 L35.179,14.039 L36.38,15.639 L42.132,11.32 Z M38.792,22.837 L45.95,21.931 L45.698,19.946 L38.54,20.853 L38.792,22.837 Z M37.233,30.272 L43.88,33.022 L44.644,31.174 L37.997,28.424 L37.233,30.272 Z M32.117,35.948 L36.471,41.617 L38.057,40.398 L33.703,34.73 L32.117,35.948 Z M24.818,38.338 L25.713,45.407 L27.697,45.155 L26.803,38.086 L24.818,38.338 Z M14.495,43.38 L16.335,44.165 L19.14,37.591 L17.3,36.806 L14.495,43.38 Z M5.817,36.087 L7.019,37.687 L12.771,33.367 L11.569,31.768 L5.817,36.087 Z M9.158,24.57 L2,25.477 L2.252,27.461 L9.41,26.555 L9.158,24.57 Z M10.716,17.135 L4.069,14.385 L3.306,16.232 L9.952,18.982 L10.716,17.135 Z M11.479,5.789 L9.893,7.008 L14.246,12.678 L15.832,11.459 L11.479,5.789 Z M21.146,9.32 L20.252,2.252 L22.236,2 L23.131,9.068 L21.146,9.32 Z" id="Amazon-EventBridge-Saas-Partner-Event_48" fill="#000000"></path>
    </g><g transform="translate(25, 83)" id="svgGroup" stroke-linecap="round" fill-rule="evenodd" font-size="9pt" stroke="#000" stroke-width="0.25mm" fill="#000" style="stroke:#000;stroke-width:0.25mm;fill:#000"><path d="M 54.176 2.202 L 53.328 2.202 A 1.466 1.466 0 0 0 53.278 1.809 A 1.066 1.066 0 0 0 52.958 1.29 A 1.211 1.211 0 0 0 52.489 1.033 Q 52.237 0.958 51.917 0.958 A 2.286 2.286 0 0 0 51.537 0.988 Q 51.335 1.022 51.173 1.095 A 1.101 1.101 0 0 0 50.944 1.233 A 0.892 0.892 0 0 0 50.599 1.887 A 1.267 1.267 0 0 0 50.594 1.995 A 0.806 0.806 0 0 0 50.862 2.6 A 1.134 1.134 0 0 0 50.926 2.656 A 1.562 1.562 0 0 0 51.164 2.813 Q 51.495 2.993 52.055 3.151 A 8.228 8.228 0 0 1 52.52 3.295 Q 52.755 3.377 52.95 3.464 A 3.297 3.297 0 0 1 53.303 3.645 A 2.342 2.342 0 0 1 53.642 3.889 Q 53.832 4.056 53.954 4.248 A 1.45 1.45 0 0 1 53.971 4.276 A 1.498 1.498 0 0 1 54.168 4.832 A 1.948 1.948 0 0 1 54.189 5.124 A 1.606 1.606 0 0 1 54.067 5.76 Q 53.921 6.101 53.603 6.354 A 1.886 1.886 0 0 1 53.583 6.37 Q 52.976 6.838 51.961 6.838 A 3.023 3.023 0 0 1 50.82 6.623 A 2.917 2.917 0 0 1 50.73 6.585 A 2.383 2.383 0 0 1 50.252 6.307 A 1.874 1.874 0 0 1 49.849 5.893 A 1.689 1.689 0 0 1 49.54 4.896 L 50.388 4.896 A 1.261 1.261 0 0 0 50.457 5.323 A 1.074 1.074 0 0 0 50.816 5.812 Q 51.201 6.113 51.817 6.144 A 2.87 2.87 0 0 0 51.961 6.148 A 2.628 2.628 0 0 0 52.348 6.121 Q 52.544 6.092 52.703 6.031 A 1.129 1.129 0 0 0 52.985 5.875 Q 53.341 5.603 53.341 5.133 A 1.074 1.074 0 0 0 53.298 4.822 A 0.816 0.816 0 0 0 53.011 4.406 Q 52.682 4.148 51.816 3.898 Q 50.73 3.586 50.236 3.131 Q 49.742 2.676 49.742 2.008 Q 49.742 1.252 50.346 0.758 A 2.121 2.121 0 0 1 51.236 0.335 A 3.087 3.087 0 0 1 51.917 0.264 A 2.913 2.913 0 0 1 52.577 0.336 A 2.372 2.372 0 0 1 53.093 0.519 A 2.051 2.051 0 0 1 53.624 0.889 A 1.834 1.834 0 0 1 53.892 1.222 A 1.798 1.798 0 0 1 54.176 2.202 Z M 3.617 3.103 L 3.617 3.792 L 0.844 3.792 L 0.844 6.06 L 4.065 6.06 L 4.065 6.75 L 0 6.75 L 0 0.352 L 4.021 0.352 L 4.021 1.046 L 0.844 1.046 L 0.844 3.103 L 3.617 3.103 Z M 40.799 2.522 L 40.838 1.995 L 41.581 1.995 L 41.581 6.636 A 2.511 2.511 0 0 1 41.51 7.249 A 1.738 1.738 0 0 1 41.034 8.09 A 1.834 1.834 0 0 1 40.104 8.57 A 2.671 2.671 0 0 1 39.564 8.622 A 2.446 2.446 0 0 1 38.558 8.402 A 2.003 2.003 0 0 1 38.147 8.161 A 1.563 1.563 0 0 1 37.806 7.8 L 38.228 7.313 A 1.889 1.889 0 0 0 38.663 7.712 A 1.514 1.514 0 0 0 39.507 7.958 A 1.695 1.695 0 0 0 39.884 7.919 Q 40.152 7.858 40.346 7.702 A 1.037 1.037 0 0 0 40.432 7.625 A 1.09 1.09 0 0 0 40.709 7.132 Q 40.756 6.959 40.763 6.752 A 2.134 2.134 0 0 0 40.764 6.684 L 40.764 6.275 A 1.601 1.601 0 0 1 39.712 6.821 A 2.279 2.279 0 0 1 39.432 6.838 A 1.672 1.672 0 0 1 38.677 6.67 Q 38.355 6.51 38.105 6.197 A 2.14 2.14 0 0 1 38.081 6.166 A 2.316 2.316 0 0 1 37.698 5.386 Q 37.564 4.922 37.564 4.333 Q 37.564 3.472 37.873 2.884 A 2.096 2.096 0 0 1 38.079 2.564 Q 38.593 1.907 39.441 1.907 A 1.971 1.971 0 0 1 40.04 1.994 A 1.55 1.55 0 0 1 40.799 2.522 Z M 68.471 3.393 L 67.654 3.393 Q 67.654 3.059 67.37 2.817 Q 67.087 2.575 66.656 2.575 Q 66.212 2.575 65.962 2.769 A 0.653 0.653 0 0 0 65.787 2.967 Q 65.714 3.098 65.711 3.263 A 0.771 0.771 0 0 0 65.711 3.274 A 0.588 0.588 0 0 0 65.742 3.467 A 0.48 0.48 0 0 0 65.944 3.718 A 1.093 1.093 0 0 0 66.095 3.796 Q 66.259 3.868 66.514 3.937 A 6.581 6.581 0 0 0 66.786 4.003 A 6.318 6.318 0 0 1 67.194 4.108 Q 67.53 4.208 67.772 4.329 A 1.901 1.901 0 0 1 68.028 4.481 Q 68.165 4.579 68.263 4.692 A 1.06 1.06 0 0 1 68.333 4.783 A 1.024 1.024 0 0 1 68.495 5.191 A 1.388 1.388 0 0 1 68.515 5.432 Q 68.515 6.069 68.005 6.453 Q 67.523 6.817 66.769 6.837 A 3.337 3.337 0 0 1 66.683 6.838 A 2.746 2.746 0 0 1 66.148 6.788 A 2.124 2.124 0 0 1 65.672 6.636 A 1.771 1.771 0 0 1 65.238 6.358 A 1.54 1.54 0 0 1 64.984 6.071 Q 64.736 5.708 64.736 5.287 L 65.549 5.287 A 0.932 0.932 0 0 0 65.622 5.612 A 0.827 0.827 0 0 0 65.876 5.935 A 1.072 1.072 0 0 0 66.278 6.128 Q 66.433 6.167 66.614 6.173 A 2.013 2.013 0 0 0 66.683 6.174 A 1.863 1.863 0 0 0 66.978 6.152 Q 67.14 6.126 67.271 6.07 A 0.941 0.941 0 0 0 67.423 5.988 A 0.689 0.689 0 0 0 67.588 5.837 A 0.554 0.554 0 0 0 67.702 5.489 A 0.698 0.698 0 0 0 67.666 5.258 A 0.581 0.581 0 0 0 67.454 4.977 A 1.05 1.05 0 0 0 67.285 4.878 Q 67.096 4.788 66.801 4.712 A 5.392 5.392 0 0 0 66.588 4.663 A 6.342 6.342 0 0 1 66.227 4.575 Q 65.857 4.473 65.608 4.346 Q 65.309 4.194 65.139 3.994 A 1.017 1.017 0 0 1 65.072 3.907 Q 64.898 3.652 64.898 3.3 A 1.206 1.206 0 0 1 65.297 2.396 A 1.694 1.694 0 0 1 65.393 2.312 A 1.752 1.752 0 0 1 66.176 1.952 A 2.471 2.471 0 0 1 66.656 1.907 A 2.559 2.559 0 0 1 67.22 1.966 A 1.757 1.757 0 0 1 67.968 2.325 Q 68.471 2.742 68.471 3.393 Z M 13.944 1.995 L 14.713 1.995 L 14.739 2.593 Q 15.276 1.918 16.135 1.907 A 2.234 2.234 0 0 1 16.163 1.907 A 1.905 1.905 0 0 1 16.797 2.004 Q 17.638 2.3 17.681 3.506 A 3.668 3.668 0 0 1 17.684 3.608 L 17.684 6.75 L 16.871 6.75 L 16.871 3.604 A 1.837 1.837 0 0 0 16.848 3.324 Q 16.798 3.017 16.635 2.843 Q 16.449 2.645 16.096 2.606 A 1.66 1.66 0 0 0 15.917 2.597 A 1.253 1.253 0 0 0 15.503 2.664 A 1.123 1.123 0 0 0 15.223 2.808 A 1.432 1.432 0 0 0 14.757 3.362 L 14.757 6.75 L 13.944 6.75 L 13.944 1.995 Z M 58.931 6.75 L 58.078 6.75 A 0.632 0.632 0 0 1 58.043 6.66 Q 58.011 6.562 57.987 6.41 A 3.997 3.997 0 0 1 57.964 6.249 Q 57.397 6.838 56.61 6.838 A 2.033 2.033 0 0 1 56.081 6.772 A 1.529 1.529 0 0 1 55.457 6.44 Q 55.006 6.042 55.006 5.432 Q 55.006 4.689 55.571 4.278 Q 56.136 3.867 57.16 3.867 L 57.951 3.867 L 57.951 3.494 A 1.152 1.152 0 0 0 57.915 3.199 A 0.828 0.828 0 0 0 57.696 2.815 Q 57.479 2.6 57.089 2.568 A 1.748 1.748 0 0 0 56.944 2.562 Q 56.509 2.562 56.215 2.782 Q 55.92 3.001 55.92 3.313 L 55.103 3.313 A 1.041 1.041 0 0 1 55.228 2.825 A 1.409 1.409 0 0 1 55.356 2.626 Q 55.608 2.294 56.041 2.101 A 2.249 2.249 0 0 1 56.817 1.913 A 2.669 2.669 0 0 1 56.993 1.907 A 2.65 2.65 0 0 1 57.51 1.955 Q 57.817 2.016 58.056 2.156 A 1.439 1.439 0 0 1 58.28 2.318 A 1.396 1.396 0 0 1 58.734 3.144 A 1.998 1.998 0 0 1 58.764 3.45 L 58.764 5.638 Q 58.764 6.073 58.837 6.39 A 1.707 1.707 0 0 0 58.931 6.68 L 58.931 6.75 Z M 63.826 6.75 L 62.974 6.75 A 0.632 0.632 0 0 1 62.938 6.66 Q 62.907 6.562 62.882 6.41 A 3.997 3.997 0 0 1 62.859 6.249 Q 62.292 6.838 61.506 6.838 A 2.033 2.033 0 0 1 60.977 6.772 A 1.529 1.529 0 0 1 60.352 6.44 Q 59.902 6.042 59.902 5.432 Q 59.902 4.689 60.467 4.278 Q 61.031 3.867 62.055 3.867 L 62.846 3.867 L 62.846 3.494 A 1.152 1.152 0 0 0 62.81 3.199 A 0.828 0.828 0 0 0 62.591 2.815 Q 62.375 2.6 61.985 2.568 A 1.748 1.748 0 0 0 61.84 2.562 Q 61.405 2.562 61.11 2.782 Q 60.816 3.001 60.816 3.313 L 59.999 3.313 A 1.041 1.041 0 0 1 60.123 2.825 A 1.409 1.409 0 0 1 60.251 2.626 Q 60.504 2.294 60.937 2.101 A 2.249 2.249 0 0 1 61.712 1.913 A 2.669 2.669 0 0 1 61.888 1.907 A 2.65 2.65 0 0 1 62.406 1.955 Q 62.713 2.016 62.952 2.156 A 1.439 1.439 0 0 1 63.176 2.318 A 1.396 1.396 0 0 1 63.629 3.144 A 1.998 1.998 0 0 1 63.659 3.45 L 63.659 5.638 Q 63.659 6.073 63.733 6.39 A 1.707 1.707 0 0 0 63.826 6.68 L 63.826 6.75 Z M 32.484 4.395 L 32.484 4.333 A 3.762 3.762 0 0 1 32.551 3.602 Q 32.639 3.16 32.841 2.812 A 2.148 2.148 0 0 1 33.003 2.573 Q 33.521 1.907 34.361 1.907 A 1.964 1.964 0 0 1 34.959 1.994 A 1.559 1.559 0 0 1 35.684 2.479 L 35.684 0 L 36.497 0 L 36.497 6.75 L 35.75 6.75 L 35.71 6.24 Q 35.222 6.838 34.352 6.838 A 1.6 1.6 0 0 1 33.131 6.31 A 2.078 2.078 0 0 1 33.005 6.161 A 2.405 2.405 0 0 1 32.581 5.255 Q 32.496 4.912 32.486 4.51 A 4.425 4.425 0 0 1 32.484 4.395 Z M 8.969 4.504 L 8.969 4.355 A 3.17 3.17 0 0 1 9.046 3.646 A 2.581 2.581 0 0 1 9.24 3.092 A 2.191 2.191 0 0 1 9.687 2.466 A 2.033 2.033 0 0 1 9.995 2.221 Q 10.481 1.907 11.048 1.907 A 2.254 2.254 0 0 1 11.661 1.986 A 1.639 1.639 0 0 1 12.489 2.518 Q 13.003 3.129 13.003 4.267 L 13.003 4.605 L 9.782 4.605 A 2.111 2.111 0 0 0 9.853 5.114 A 1.516 1.516 0 0 0 10.193 5.741 A 1.282 1.282 0 0 0 11.127 6.173 A 1.652 1.652 0 0 0 11.193 6.174 A 1.763 1.763 0 0 0 11.521 6.145 Q 11.745 6.103 11.922 5.999 A 1.827 1.827 0 0 0 12.431 5.551 A 2.068 2.068 0 0 0 12.445 5.533 L 12.942 5.919 A 1.926 1.926 0 0 1 11.542 6.811 A 2.749 2.749 0 0 1 11.149 6.838 A 2.394 2.394 0 0 1 10.398 6.725 A 1.974 1.974 0 0 1 9.576 6.203 Q 8.969 5.568 8.969 4.504 Z M 42.601 4.504 L 42.601 4.355 A 3.17 3.17 0 0 1 42.677 3.646 A 2.581 2.581 0 0 1 42.871 3.092 A 2.191 2.191 0 0 1 43.318 2.466 A 2.033 2.033 0 0 1 43.627 2.221 Q 44.112 1.907 44.679 1.907 A 2.254 2.254 0 0 1 45.292 1.986 A 1.639 1.639 0 0 1 46.121 2.518 Q 46.635 3.129 46.635 4.267 L 46.635 4.605 L 43.414 4.605 A 2.111 2.111 0 0 0 43.485 5.114 A 1.516 1.516 0 0 0 43.824 5.741 A 1.282 1.282 0 0 0 44.759 6.173 A 1.652 1.652 0 0 0 44.824 6.174 A 1.763 1.763 0 0 0 45.152 6.145 Q 45.376 6.103 45.554 5.999 A 1.827 1.827 0 0 0 46.063 5.551 A 2.068 2.068 0 0 0 46.077 5.533 L 46.573 5.919 A 1.926 1.926 0 0 1 45.174 6.811 A 2.749 2.749 0 0 1 44.78 6.838 A 2.394 2.394 0 0 1 44.029 6.725 A 1.974 1.974 0 0 1 43.207 6.203 Q 42.601 5.568 42.601 4.504 Z M 24.196 6.75 L 21.977 6.75 L 21.977 0.352 L 24.069 0.352 A 4.031 4.031 0 0 1 24.642 0.39 Q 24.934 0.432 25.171 0.521 A 1.629 1.629 0 0 1 25.635 0.782 A 1.383 1.383 0 0 1 26.107 1.558 A 2.164 2.164 0 0 1 26.161 2.057 A 1.3 1.3 0 0 1 25.906 2.85 A 1.589 1.589 0 0 1 25.395 3.294 A 1.972 1.972 0 0 1 25.211 3.384 A 1.571 1.571 0 0 1 25.726 3.63 A 1.446 1.446 0 0 1 26.031 3.935 A 1.531 1.531 0 0 1 26.323 4.713 A 1.961 1.961 0 0 1 26.332 4.904 A 2.139 2.139 0 0 1 26.257 5.487 A 1.577 1.577 0 0 1 25.774 6.258 A 1.832 1.832 0 0 1 25.082 6.633 Q 24.815 6.713 24.497 6.739 A 3.81 3.81 0 0 1 24.196 6.75 Z M 5.234 1.995 L 6.442 5.647 L 7.62 1.995 L 8.451 1.995 L 6.746 6.75 L 6.126 6.75 L 4.403 1.995 L 5.234 1.995 Z M 19.2 0.844 L 20.013 0.844 L 20.013 1.995 L 20.9 1.995 L 20.9 2.624 L 20.013 2.624 L 20.013 5.572 Q 20.013 5.858 20.131 6.001 Q 20.25 6.144 20.536 6.144 A 1.046 1.046 0 0 0 20.633 6.138 Q 20.736 6.129 20.876 6.101 A 4.024 4.024 0 0 0 20.922 6.091 L 20.922 6.75 A 2.463 2.463 0 0 1 20.49 6.829 A 2.157 2.157 0 0 1 20.298 6.838 Q 19.851 6.838 19.585 6.616 A 0.856 0.856 0 0 1 19.477 6.508 Q 19.249 6.238 19.209 5.78 A 2.351 2.351 0 0 1 19.2 5.572 L 19.2 2.624 L 18.334 2.624 L 18.334 1.995 L 19.2 1.995 L 19.2 0.844 Z M 29.751 1.969 L 29.751 2.725 A 2.251 2.251 0 0 0 29.508 2.698 A 2.782 2.782 0 0 0 29.351 2.694 Q 28.573 2.694 28.282 3.338 A 1.445 1.445 0 0 0 28.266 3.375 L 28.266 6.75 L 27.453 6.75 L 27.453 1.995 L 28.244 1.995 L 28.257 2.544 Q 28.637 1.938 29.32 1.909 A 1.636 1.636 0 0 1 29.391 1.907 Q 29.628 1.907 29.751 1.969 Z M 31.381 1.995 L 31.381 6.75 L 30.568 6.75 L 30.568 1.995 L 31.381 1.995 Z M 35.684 5.454 L 35.684 3.27 A 1.375 1.375 0 0 0 35.372 2.874 Q 35.048 2.597 34.563 2.597 A 1.238 1.238 0 0 0 34.136 2.668 A 1.068 1.068 0 0 0 33.631 3.059 A 1.51 1.51 0 0 0 33.422 3.484 Q 33.356 3.689 33.325 3.939 A 3.955 3.955 0 0 0 33.297 4.425 A 3.162 3.162 0 0 0 33.333 4.918 Q 33.374 5.178 33.463 5.389 A 1.474 1.474 0 0 0 33.631 5.691 A 1.06 1.06 0 0 0 34.394 6.139 A 1.391 1.391 0 0 0 34.554 6.148 Q 35.328 6.148 35.684 5.454 Z M 40.764 5.449 L 40.764 3.278 A 1.439 1.439 0 0 0 40.463 2.891 Q 40.159 2.62 39.719 2.599 A 1.578 1.578 0 0 0 39.643 2.597 Q 39.051 2.597 38.717 3.056 A 1.51 1.51 0 0 0 38.507 3.484 Q 38.441 3.689 38.41 3.939 A 3.955 3.955 0 0 0 38.382 4.425 Q 38.382 5.229 38.711 5.689 Q 39.041 6.148 39.634 6.148 A 1.32 1.32 0 0 0 40.144 6.054 Q 40.536 5.891 40.764 5.449 Z M 24.227 3.757 L 22.821 3.757 L 22.821 6.06 L 24.214 6.06 A 1.84 1.84 0 0 0 24.589 6.024 Q 24.829 5.974 25.013 5.854 A 1.064 1.064 0 0 0 25.143 5.755 A 1.003 1.003 0 0 0 25.465 5.154 A 1.459 1.459 0 0 0 25.484 4.913 Q 25.484 4.007 24.712 3.811 A 1.977 1.977 0 0 0 24.228 3.757 Z M 22.821 1.046 L 22.821 3.081 L 24.095 3.081 Q 24.649 3.081 24.981 2.804 A 0.905 0.905 0 0 0 25.309 2.154 A 1.27 1.27 0 0 0 25.312 2.052 Q 25.313 1.696 25.172 1.471 A 0.71 0.71 0 0 0 25.005 1.285 A 0.969 0.969 0 0 0 24.719 1.136 Q 24.456 1.047 24.075 1.046 A 3.261 3.261 0 0 0 24.069 1.046 L 22.821 1.046 Z M 57.951 5.418 L 57.951 4.443 L 57.313 4.443 Q 55.819 4.443 55.819 5.317 Q 55.819 5.7 56.074 5.915 A 0.893 0.893 0 0 0 56.488 6.108 A 1.259 1.259 0 0 0 56.729 6.13 A 1.429 1.429 0 0 0 57.454 5.933 A 1.335 1.335 0 0 0 57.75 5.705 A 1.108 1.108 0 0 0 57.951 5.418 Z M 62.846 5.418 L 62.846 4.443 L 62.209 4.443 Q 60.715 4.443 60.715 5.317 Q 60.715 5.7 60.97 5.915 A 0.893 0.893 0 0 0 61.383 6.108 A 1.259 1.259 0 0 0 61.625 6.13 A 1.429 1.429 0 0 0 62.35 5.933 A 1.335 1.335 0 0 0 62.645 5.705 A 1.108 1.108 0 0 0 62.846 5.418 Z M 9.809 3.938 L 12.19 3.938 L 12.19 3.876 Q 12.164 3.417 11.994 3.111 A 1.13 1.13 0 0 0 11.856 2.916 A 0.983 0.983 0 0 0 11.202 2.584 A 1.39 1.39 0 0 0 11.048 2.575 A 1.106 1.106 0 0 0 10.525 2.698 A 1.14 1.14 0 0 0 10.222 2.933 A 1.417 1.417 0 0 0 9.945 3.379 Q 9.871 3.563 9.831 3.785 A 2.741 2.741 0 0 0 9.809 3.938 Z M 43.44 3.938 L 45.822 3.938 L 45.822 3.876 Q 45.796 3.417 45.625 3.111 A 1.13 1.13 0 0 0 45.488 2.916 A 0.983 0.983 0 0 0 44.833 2.584 A 1.39 1.39 0 0 0 44.679 2.575 A 1.106 1.106 0 0 0 44.157 2.698 A 1.14 1.14 0 0 0 43.853 2.933 A 1.417 1.417 0 0 0 43.576 3.379 Q 43.503 3.563 43.463 3.785 A 2.741 2.741 0 0 0 43.44 3.938 Z M 30.502 0.734 Q 30.502 0.536 30.623 0.4 Q 30.735 0.274 30.947 0.264 A 0.783 0.783 0 0 1 30.981 0.264 Q 31.219 0.264 31.342 0.4 A 0.474 0.474 0 0 1 31.464 0.703 A 0.614 0.614 0 0 1 31.465 0.734 A 0.523 0.523 0 0 1 31.44 0.9 A 0.442 0.442 0 0 1 31.342 1.063 Q 31.229 1.184 31.021 1.194 A 0.803 0.803 0 0 1 30.981 1.195 Q 30.809 1.195 30.698 1.126 A 0.362 0.362 0 0 1 30.623 1.063 A 0.456 0.456 0 0 1 30.505 0.788 A 0.605 0.605 0 0 1 30.502 0.734 Z" vector-effect="non-scaling-stroke"/></g><g transform="translate(25, 93)" id="svgGroup" stroke-linecap="round" fill-rule="evenodd" font-size="9pt" stroke="#000" stroke-width="0.25mm" fill="#000" style="stroke:#000;stroke-width:0.25mm;fill:#000"><path d="M 35.134 3.103 L 35.134 3.792 L 32.361 3.792 L 32.361 6.06 L 35.583 6.06 L 35.583 6.75 L 31.518 6.75 L 31.518 0.352 L 35.539 0.352 L 35.539 1.046 L 32.361 1.046 L 32.361 3.103 L 35.134 3.103 Z M 80.82 0 L 80.82 2.571 A 1.767 1.767 0 0 1 81.486 2.053 A 1.832 1.832 0 0 1 82.226 1.907 A 1.905 1.905 0 0 1 82.86 2.004 Q 83.701 2.3 83.744 3.506 A 3.668 3.668 0 0 1 83.747 3.608 L 83.747 6.75 L 82.934 6.75 L 82.934 3.604 A 1.837 1.837 0 0 0 82.911 3.324 Q 82.861 3.017 82.698 2.843 Q 82.512 2.645 82.159 2.606 A 1.66 1.66 0 0 0 81.98 2.597 A 1.253 1.253 0 0 0 81.566 2.664 A 1.123 1.123 0 0 0 81.286 2.808 A 1.432 1.432 0 0 0 80.82 3.362 L 80.82 6.75 L 80.007 6.75 L 80.007 0 L 80.82 0 Z M 77.999 2.522 L 78.038 1.995 L 78.781 1.995 L 78.781 6.636 A 2.511 2.511 0 0 1 78.71 7.249 A 1.738 1.738 0 0 1 78.234 8.09 A 1.834 1.834 0 0 1 77.304 8.57 A 2.671 2.671 0 0 1 76.764 8.622 A 2.446 2.446 0 0 1 75.757 8.402 A 2.003 2.003 0 0 1 75.347 8.161 A 1.563 1.563 0 0 1 75.006 7.8 L 75.428 7.313 A 1.889 1.889 0 0 0 75.862 7.712 A 1.514 1.514 0 0 0 76.707 7.958 A 1.695 1.695 0 0 0 77.084 7.919 Q 77.352 7.858 77.546 7.702 A 1.037 1.037 0 0 0 77.632 7.625 A 1.09 1.09 0 0 0 77.909 7.132 Q 77.956 6.959 77.962 6.752 A 2.134 2.134 0 0 0 77.963 6.684 L 77.963 6.275 A 1.601 1.601 0 0 1 76.911 6.821 A 2.279 2.279 0 0 1 76.632 6.838 A 1.672 1.672 0 0 1 75.877 6.67 Q 75.555 6.51 75.305 6.197 A 2.14 2.14 0 0 1 75.281 6.166 A 2.316 2.316 0 0 1 74.897 5.386 Q 74.764 4.922 74.764 4.333 Q 74.764 3.472 75.073 2.884 A 2.096 2.096 0 0 1 75.278 2.564 Q 75.792 1.907 76.641 1.907 A 1.971 1.971 0 0 1 77.239 1.994 A 1.55 1.55 0 0 1 77.999 2.522 Z M 16.383 1.995 L 17.152 1.995 L 17.178 2.593 Q 17.715 1.918 18.574 1.907 A 2.234 2.234 0 0 1 18.602 1.907 A 1.905 1.905 0 0 1 19.236 2.004 Q 20.077 2.3 20.12 3.506 A 3.668 3.668 0 0 1 20.123 3.608 L 20.123 6.75 L 19.31 6.75 L 19.31 3.604 A 1.837 1.837 0 0 0 19.287 3.324 Q 19.237 3.017 19.074 2.843 Q 18.888 2.645 18.535 2.606 A 1.66 1.66 0 0 0 18.356 2.597 A 1.253 1.253 0 0 0 17.942 2.664 A 1.123 1.123 0 0 0 17.662 2.808 A 1.432 1.432 0 0 0 17.196 3.362 L 17.196 6.75 L 16.383 6.75 L 16.383 1.995 Z M 45.461 1.995 L 46.23 1.995 L 46.257 2.593 Q 46.793 1.918 47.653 1.907 A 2.234 2.234 0 0 1 47.681 1.907 A 1.905 1.905 0 0 1 48.314 2.004 Q 49.156 2.3 49.199 3.506 A 3.668 3.668 0 0 1 49.201 3.608 L 49.201 6.75 L 48.388 6.75 L 48.388 3.604 A 1.837 1.837 0 0 0 48.366 3.324 Q 48.316 3.017 48.153 2.843 Q 47.967 2.645 47.614 2.606 A 1.66 1.66 0 0 0 47.435 2.597 A 1.253 1.253 0 0 0 47.02 2.664 A 1.123 1.123 0 0 0 46.74 2.808 A 1.432 1.432 0 0 0 46.274 3.362 L 46.274 6.75 L 45.461 6.75 L 45.461 1.995 Z M 9.29 6.75 L 8.438 6.75 A 0.632 0.632 0 0 1 8.402 6.66 Q 8.371 6.562 8.346 6.41 A 3.997 3.997 0 0 1 8.323 6.249 Q 7.756 6.838 6.97 6.838 A 2.033 2.033 0 0 1 6.44 6.772 A 1.529 1.529 0 0 1 5.816 6.44 Q 5.366 6.042 5.366 5.432 Q 5.366 4.689 5.93 4.278 Q 6.495 3.867 7.519 3.867 L 8.31 3.867 L 8.31 3.494 A 1.152 1.152 0 0 0 8.274 3.199 A 0.828 0.828 0 0 0 8.055 2.815 Q 7.839 2.6 7.449 2.568 A 1.748 1.748 0 0 0 7.304 2.562 Q 6.869 2.562 6.574 2.782 Q 6.28 3.001 6.28 3.313 L 5.462 3.313 A 1.041 1.041 0 0 1 5.587 2.825 A 1.409 1.409 0 0 1 5.715 2.626 Q 5.968 2.294 6.401 2.101 A 2.249 2.249 0 0 1 7.176 1.913 A 2.669 2.669 0 0 1 7.352 1.907 A 2.65 2.65 0 0 1 7.869 1.955 Q 8.177 2.016 8.416 2.156 A 1.439 1.439 0 0 1 8.64 2.318 A 1.396 1.396 0 0 1 9.093 3.144 A 1.998 1.998 0 0 1 9.123 3.45 L 9.123 5.638 Q 9.123 6.073 9.197 6.39 A 1.707 1.707 0 0 0 9.29 6.68 L 9.29 6.75 Z M 21.142 4.504 L 21.142 4.355 A 3.17 3.17 0 0 1 21.218 3.646 A 2.581 2.581 0 0 1 21.412 3.092 A 2.191 2.191 0 0 1 21.86 2.466 A 2.033 2.033 0 0 1 22.168 2.221 Q 22.654 1.907 23.221 1.907 A 2.254 2.254 0 0 1 23.834 1.986 A 1.639 1.639 0 0 1 24.662 2.518 Q 25.176 3.129 25.176 4.267 L 25.176 4.605 L 21.955 4.605 A 2.111 2.111 0 0 0 22.026 5.114 A 1.516 1.516 0 0 0 22.366 5.741 A 1.282 1.282 0 0 0 23.3 6.173 A 1.652 1.652 0 0 0 23.366 6.174 A 1.763 1.763 0 0 0 23.694 6.145 Q 23.918 6.103 24.095 5.999 A 1.827 1.827 0 0 0 24.604 5.551 A 2.068 2.068 0 0 0 24.618 5.533 L 25.115 5.919 A 1.926 1.926 0 0 1 23.715 6.811 A 2.749 2.749 0 0 1 23.322 6.838 A 2.394 2.394 0 0 1 22.571 6.725 A 1.974 1.974 0 0 1 21.749 6.203 Q 21.142 5.568 21.142 4.504 Z M 40.487 4.504 L 40.487 4.355 A 3.17 3.17 0 0 1 40.563 3.646 A 2.581 2.581 0 0 1 40.757 3.092 A 2.191 2.191 0 0 1 41.205 2.466 A 2.033 2.033 0 0 1 41.513 2.221 Q 41.999 1.907 42.565 1.907 A 2.254 2.254 0 0 1 43.179 1.986 A 1.639 1.639 0 0 1 44.007 2.518 Q 44.521 3.129 44.521 4.267 L 44.521 4.605 L 41.3 4.605 A 2.111 2.111 0 0 0 41.371 5.114 A 1.516 1.516 0 0 0 41.711 5.741 A 1.282 1.282 0 0 0 42.645 6.173 A 1.652 1.652 0 0 0 42.71 6.174 A 1.763 1.763 0 0 0 43.039 6.145 Q 43.263 6.103 43.44 5.999 A 1.827 1.827 0 0 0 43.949 5.551 A 2.068 2.068 0 0 0 43.963 5.533 L 44.459 5.919 A 1.926 1.926 0 0 1 43.06 6.811 A 2.749 2.749 0 0 1 42.667 6.838 A 2.394 2.394 0 0 1 41.915 6.725 A 1.974 1.974 0 0 1 41.093 6.203 Q 40.487 5.568 40.487 4.504 Z M 68.906 0.352 L 68.906 6.06 L 71.938 6.06 L 71.938 6.75 L 68.058 6.75 L 68.058 0.352 L 68.906 0.352 Z M 2.351 4.245 L 0.844 4.245 L 0.844 6.75 L 0 6.75 L 0 0.352 L 2.36 0.352 A 3.315 3.315 0 0 1 3.025 0.414 Q 3.427 0.497 3.738 0.688 A 1.839 1.839 0 0 1 4.006 0.888 A 1.772 1.772 0 0 1 4.593 2.105 A 2.45 2.45 0 0 1 4.601 2.307 Q 4.601 3.239 4.019 3.742 Q 3.54 4.156 2.721 4.229 A 4.14 4.14 0 0 1 2.351 4.245 Z M 36.751 1.995 L 37.96 5.647 L 39.138 1.995 L 39.968 1.995 L 38.263 6.75 L 37.644 6.75 L 35.921 1.995 L 36.751 1.995 Z M 58.944 0.352 L 58.944 4.601 L 59.832 4.601 L 59.832 5.265 L 58.944 5.265 L 58.944 6.75 L 58.126 6.75 L 58.126 5.265 L 55.213 5.265 L 55.213 4.786 L 58.078 0.352 L 58.944 0.352 Z M 64.342 2.592 A 1.544 1.544 0 0 0 64.446 2.021 A 2.226 2.226 0 0 0 64.424 1.707 A 1.566 1.566 0 0 0 63.925 0.738 A 1.754 1.754 0 0 0 63.159 0.333 A 2.443 2.443 0 0 0 62.561 0.264 A 2.539 2.539 0 0 0 62.051 0.312 A 1.767 1.767 0 0 0 61.194 0.738 Q 60.675 1.213 60.675 2.021 A 1.808 1.808 0 0 0 60.676 2.058 A 1.499 1.499 0 0 0 60.921 2.87 A 1.626 1.626 0 0 0 61.083 3.077 A 1.726 1.726 0 0 0 61.594 3.454 A 2.119 2.119 0 0 0 61.494 3.5 A 1.738 1.738 0 0 0 60.809 4.087 A 1.629 1.629 0 0 0 60.526 5.023 A 2.272 2.272 0 0 0 60.536 5.237 A 1.63 1.63 0 0 0 61.082 6.344 A 1.895 1.895 0 0 0 61.932 6.771 A 2.797 2.797 0 0 0 62.561 6.838 A 2.796 2.796 0 0 0 63.16 6.777 A 1.925 1.925 0 0 0 64.035 6.346 A 1.578 1.578 0 0 0 64.51 5.62 A 1.989 1.989 0 0 0 64.595 5.023 A 1.581 1.581 0 0 0 64.303 4.087 Q 64.011 3.674 63.51 3.458 Q 63.94 3.248 64.193 2.874 A 1.449 1.449 0 0 0 64.342 2.592 Z M 13.733 0.844 L 14.546 0.844 L 14.546 1.995 L 15.434 1.995 L 15.434 2.624 L 14.546 2.624 L 14.546 5.572 Q 14.546 5.858 14.665 6.001 Q 14.783 6.144 15.069 6.144 A 1.046 1.046 0 0 0 15.166 6.138 Q 15.269 6.129 15.409 6.101 A 4.024 4.024 0 0 0 15.456 6.091 L 15.456 6.75 A 2.463 2.463 0 0 1 15.023 6.829 A 2.157 2.157 0 0 1 14.832 6.838 Q 14.384 6.838 14.118 6.616 A 0.856 0.856 0 0 1 14.01 6.508 Q 13.782 6.238 13.742 5.78 A 2.351 2.351 0 0 1 13.733 5.572 L 13.733 2.624 L 12.867 2.624 L 12.867 1.995 L 13.733 1.995 L 13.733 0.844 Z M 50.717 0.844 L 51.53 0.844 L 51.53 1.995 L 52.418 1.995 L 52.418 2.624 L 51.53 2.624 L 51.53 5.572 Q 51.53 5.858 51.649 6.001 Q 51.768 6.144 52.053 6.144 A 1.046 1.046 0 0 0 52.151 6.138 Q 52.253 6.129 52.393 6.101 A 4.024 4.024 0 0 0 52.44 6.091 L 52.44 6.75 A 2.463 2.463 0 0 1 52.007 6.829 A 2.157 2.157 0 0 1 51.816 6.838 Q 51.369 6.838 51.102 6.616 A 0.856 0.856 0 0 1 50.994 6.508 Q 50.767 6.238 50.726 5.78 A 2.351 2.351 0 0 1 50.717 5.572 L 50.717 2.624 L 49.852 2.624 L 49.852 1.995 L 50.717 1.995 L 50.717 0.844 Z M 85.254 0.844 L 86.067 0.844 L 86.067 1.995 L 86.955 1.995 L 86.955 2.624 L 86.067 2.624 L 86.067 5.572 Q 86.067 5.858 86.186 6.001 Q 86.304 6.144 86.59 6.144 A 1.046 1.046 0 0 0 86.687 6.138 Q 86.79 6.129 86.93 6.101 A 4.024 4.024 0 0 0 86.977 6.091 L 86.977 6.75 A 2.463 2.463 0 0 1 86.544 6.829 A 2.157 2.157 0 0 1 86.353 6.838 Q 85.905 6.838 85.639 6.616 A 0.856 0.856 0 0 1 85.531 6.508 Q 85.303 6.238 85.263 5.78 A 2.351 2.351 0 0 1 85.254 5.572 L 85.254 2.624 L 84.388 2.624 L 84.388 1.995 L 85.254 1.995 L 85.254 0.844 Z M 12.696 1.969 L 12.696 2.725 A 2.251 2.251 0 0 0 12.453 2.698 A 2.782 2.782 0 0 0 12.296 2.694 Q 11.518 2.694 11.227 3.338 A 1.445 1.445 0 0 0 11.21 3.375 L 11.21 6.75 L 10.397 6.75 L 10.397 1.995 L 11.188 1.995 L 11.202 2.544 Q 11.582 1.938 12.265 1.909 A 1.636 1.636 0 0 1 12.335 1.907 Q 12.573 1.907 12.696 1.969 Z M 28.415 1.969 L 28.415 2.725 A 2.251 2.251 0 0 0 28.172 2.698 A 2.782 2.782 0 0 0 28.015 2.694 Q 27.237 2.694 26.946 3.338 A 1.445 1.445 0 0 0 26.93 3.375 L 26.93 6.75 L 26.117 6.75 L 26.117 1.995 L 26.908 1.995 L 26.921 2.544 Q 27.301 1.938 27.984 1.909 A 1.636 1.636 0 0 1 28.055 1.907 Q 28.292 1.907 28.415 1.969 Z M 73.657 1.995 L 73.657 6.75 L 72.844 6.75 L 72.844 1.995 L 73.657 1.995 Z M 77.963 5.449 L 77.963 3.278 A 1.439 1.439 0 0 0 77.662 2.891 Q 77.359 2.62 76.918 2.599 A 1.578 1.578 0 0 0 76.843 2.597 Q 76.251 2.597 75.917 3.056 A 1.51 1.51 0 0 0 75.706 3.484 Q 75.641 3.689 75.609 3.939 A 3.955 3.955 0 0 0 75.582 4.425 Q 75.582 5.229 75.911 5.689 Q 76.241 6.148 76.834 6.148 A 1.32 1.32 0 0 0 77.344 6.054 Q 77.735 5.891 77.963 5.449 Z M 0.844 1.046 L 0.844 3.555 L 2.36 3.555 A 2.313 2.313 0 0 0 2.752 3.524 Q 2.969 3.487 3.142 3.404 A 1.097 1.097 0 0 0 3.397 3.237 A 1.028 1.028 0 0 0 3.715 2.696 Q 3.756 2.528 3.757 2.329 A 1.996 1.996 0 0 0 3.757 2.316 A 1.466 1.466 0 0 0 3.703 1.908 A 1.112 1.112 0 0 0 3.397 1.402 Q 3.037 1.059 2.408 1.046 L 0.844 1.046 Z M 58.03 1.639 L 56.136 4.601 L 58.126 4.601 L 58.126 1.463 L 58.03 1.639 Z M 63.782 5.005 A 1.375 1.375 0 0 0 63.723 4.592 A 1.109 1.109 0 0 0 63.442 4.131 A 1.148 1.148 0 0 0 62.77 3.807 A 1.593 1.593 0 0 0 62.552 3.792 A 1.466 1.466 0 0 0 62.163 3.841 A 1.086 1.086 0 0 0 61.671 4.126 A 1.123 1.123 0 0 0 61.357 4.762 A 1.572 1.572 0 0 0 61.339 5.005 A 1.48 1.48 0 0 0 61.381 5.367 A 1.019 1.019 0 0 0 61.662 5.862 Q 61.968 6.158 62.501 6.173 A 2.053 2.053 0 0 0 62.561 6.174 Q 63.054 6.174 63.364 5.94 A 1.018 1.018 0 0 0 63.457 5.86 A 1.041 1.041 0 0 0 63.756 5.292 A 1.518 1.518 0 0 0 63.782 5.005 Z M 62.561 0.932 A 1.259 1.259 0 0 0 62.208 0.979 A 0.973 0.973 0 0 0 61.785 1.228 Q 61.488 1.525 61.488 2.035 A 1.325 1.325 0 0 0 61.533 2.387 A 0.994 0.994 0 0 0 61.781 2.823 A 0.974 0.974 0 0 0 62.343 3.108 A 1.382 1.382 0 0 0 62.561 3.125 A 1.279 1.279 0 0 0 62.905 3.08 A 0.952 0.952 0 0 0 63.341 2.823 A 1.018 1.018 0 0 0 63.616 2.26 A 1.426 1.426 0 0 0 63.633 2.035 A 1.282 1.282 0 0 0 63.583 1.668 A 1.013 1.013 0 0 0 63.33 1.239 Q 63.026 0.932 62.561 0.932 Z M 8.31 5.418 L 8.31 4.443 L 7.673 4.443 Q 6.179 4.443 6.179 5.317 Q 6.179 5.7 6.434 5.915 A 0.893 0.893 0 0 0 6.847 6.108 A 1.259 1.259 0 0 0 7.088 6.13 A 1.429 1.429 0 0 0 7.813 5.933 A 1.335 1.335 0 0 0 8.109 5.705 A 1.108 1.108 0 0 0 8.31 5.418 Z M 21.981 3.938 L 24.363 3.938 L 24.363 3.876 Q 24.337 3.417 24.167 3.111 A 1.13 1.13 0 0 0 24.029 2.916 A 0.983 0.983 0 0 0 23.375 2.584 A 1.39 1.39 0 0 0 23.221 2.575 A 1.106 1.106 0 0 0 22.698 2.698 A 1.14 1.14 0 0 0 22.395 2.933 A 1.417 1.417 0 0 0 22.118 3.379 Q 22.044 3.563 22.004 3.785 A 2.741 2.741 0 0 0 21.981 3.938 Z M 41.326 3.938 L 43.708 3.938 L 43.708 3.876 Q 43.682 3.417 43.511 3.111 A 1.13 1.13 0 0 0 43.374 2.916 A 0.983 0.983 0 0 0 42.72 2.584 A 1.39 1.39 0 0 0 42.565 2.575 A 1.106 1.106 0 0 0 42.043 2.698 A 1.14 1.14 0 0 0 41.739 2.933 A 1.417 1.417 0 0 0 41.463 3.379 Q 41.389 3.563 41.349 3.785 A 2.741 2.741 0 0 0 41.326 3.938 Z M 72.778 0.734 Q 72.778 0.536 72.899 0.4 Q 73.011 0.274 73.222 0.264 A 0.783 0.783 0 0 1 73.257 0.264 Q 73.494 0.264 73.617 0.4 A 0.474 0.474 0 0 1 73.739 0.703 A 0.614 0.614 0 0 1 73.74 0.734 A 0.523 0.523 0 0 1 73.715 0.9 A 0.442 0.442 0 0 1 73.617 1.063 Q 73.505 1.184 73.297 1.194 A 0.803 0.803 0 0 1 73.257 1.195 Q 73.085 1.195 72.974 1.126 A 0.362 0.362 0 0 1 72.899 1.063 A 0.456 0.456 0 0 1 72.78 0.788 A 0.605 0.605 0 0 1 72.778 0.734 Z" vector-effect="non-scaling-stroke"/></g>
</svgversion="1.0" encoding="UTF-8"?>
<svg width="48px" height="48px" viewBox="0 0 48 48" version="1.1" xmlns="http://www.w3.org/2000/svg" xmlns:xlink="http://www.w3.org/1999/xlink">
    <title>Icon-Resource/Application-Integration/Res_Amazon-EventBridge-Saas-Partner-Event_48_Light</title>
    <g id="Icon-Resource/Application-Integration/Res_Amazon-EventBridge-Saas-Partner-Event_48" stroke="none" stroke-width="1" fill="none" fill-rule="evenodd">
        <path transform="translate(12.000000, 8.000000), scale(.65)" d="M31.084,20.877 L25.023,24.333 L24.984,31.31 L31.046,27.855 L31.084,20.877 Z M16.858,27.821 L22.983,31.402 L23.023,24.241 L16.898,20.66 L16.858,27.821 Z M17.855,18.902 L24.103,22.555 L30.267,19.04 L24.021,15.388 L17.855,18.902 Z M24.47,33.905 C24.316,33.992 24.146,34.036 23.975,34.036 C23.839,34.036 23.707,34 23.58,33.945 L15.351,29.257 C15.042,29.076 14.854,28.745 14.8548202,28.388 L14.908,18.917 C14.91,18.592 15.075,18.296 15.338,18.111 L23.532,13.364 C23.842,13.189 24.223,13.19 24.532,13.37 L32.618,18.302 C32.914,18.485 33.096,18.807 33.0940324,19.156 L33.043,28.443 C33.041,28.8 32.849,29.129 32.538,29.307 L24.47,33.905 Z M33.454,4.026 L31.614,3.241 L28.811,9.816 L30.65,10.602 L33.454,4.026 Z M42.132,11.32 L40.931,9.721 L35.179,14.039 L36.38,15.639 L42.132,11.32 Z M38.792,22.837 L45.95,21.931 L45.698,19.946 L38.54,20.853 L38.792,22.837 Z M37.233,30.272 L43.88,33.022 L44.644,31.174 L37.997,28.424 L37.233,30.272 Z M32.117,35.948 L36.471,41.617 L38.057,40.398 L33.703,34.73 L32.117,35.948 Z M24.818,38.338 L25.713,45.407 L27.697,45.155 L26.803,38.086 L24.818,38.338 Z M14.495,43.38 L16.335,44.165 L19.14,37.591 L17.3,36.806 L14.495,43.38 Z M5.817,36.087 L7.019,37.687 L12.771,33.367 L11.569,31.768 L5.817,36.087 Z M9.158,24.57 L2,25.477 L2.252,27.461 L9.41,26.555 L9.158,24.57 Z M10.716,17.135 L4.069,14.385 L3.306,16.232 L9.952,18.982 L10.716,17.135 Z M11.479,5.789 L9.893,7.008 L14.246,12.678 L15.832,11.459 L11.479,5.789 Z M21.146,9.32 L20.252,2.252 L22.236,2 L23.131,9.068 L21.146,9.32 Z" id="Amazon-EventBridge-Saas-Partner-Event_48" fill="#000000"></path>
    </g><g transform="translate(25, 83)" id="svgGroup" stroke-linecap="round" fill-rule="evenodd" font-size="9pt" stroke="#000" stroke-width="0.25mm" fill="#000" style="stroke:#000;stroke-width:0.25mm;fill:#000"><path d="M 54.176 2.202 L 53.328 2.202 A 1.466 1.466 0 0 0 53.278 1.809 A 1.066 1.066 0 0 0 52.958 1.29 A 1.211 1.211 0 0 0 52.489 1.033 Q 52.237 0.958 51.917 0.958 A 2.286 2.286 0 0 0 51.537 0.988 Q 51.335 1.022 51.173 1.095 A 1.101 1.101 0 0 0 50.944 1.233 A 0.892 0.892 0 0 0 50.599 1.887 A 1.267 1.267 0 0 0 50.594 1.995 A 0.806 0.806 0 0 0 50.862 2.6 A 1.134 1.134 0 0 0 50.926 2.656 A 1.562 1.562 0 0 0 51.164 2.813 Q 51.495 2.993 52.055 3.151 A 8.228 8.228 0 0 1 52.52 3.295 Q 52.755 3.377 52.95 3.464 A 3.297 3.297 0 0 1 53.303 3.645 A 2.342 2.342 0 0 1 53.642 3.889 Q 53.832 4.056 53.954 4.248 A 1.45 1.45 0 0 1 53.971 4.276 A 1.498 1.498 0 0 1 54.168 4.832 A 1.948 1.948 0 0 1 54.189 5.124 A 1.606 1.606 0 0 1 54.067 5.76 Q 53.921 6.101 53.603 6.354 A 1.886 1.886 0 0 1 53.583 6.37 Q 52.976 6.838 51.961 6.838 A 3.023 3.023 0 0 1 50.82 6.623 A 2.917 2.917 0 0 1 50.73 6.585 A 2.383 2.383 0 0 1 50.252 6.307 A 1.874 1.874 0 0 1 49.849 5.893 A 1.689 1.689 0 0 1 49.54 4.896 L 50.388 4.896 A 1.261 1.261 0 0 0 50.457 5.323 A 1.074 1.074 0 0 0 50.816 5.812 Q 51.201 6.113 51.817 6.144 A 2.87 2.87 0 0 0 51.961 6.148 A 2.628 2.628 0 0 0 52.348 6.121 Q 52.544 6.092 52.703 6.031 A 1.129 1.129 0 0 0 52.985 5.875 Q 53.341 5.603 53.341 5.133 A 1.074 1.074 0 0 0 53.298 4.822 A 0.816 0.816 0 0 0 53.011 4.406 Q 52.682 4.148 51.816 3.898 Q 50.73 3.586 50.236 3.131 Q 49.742 2.676 49.742 2.008 Q 49.742 1.252 50.346 0.758 A 2.121 2.121 0 0 1 51.236 0.335 A 3.087 3.087 0 0 1 51.917 0.264 A 2.913 2.913 0 0 1 52.577 0.336 A 2.372 2.372 0 0 1 53.093 0.519 A 2.051 2.051 0 0 1 53.624 0.889 A 1.834 1.834 0 0 1 53.892 1.222 A 1.798 1.798 0 0 1 54.176 2.202 Z M 3.617 3.103 L 3.617 3.792 L 0.844 3.792 L 0.844 6.06 L 4.065 6.06 L 4.065 6.75 L 0 6.75 L 0 0.352 L 4.021 0.352 L 4.021 1.046 L 0.844 1.046 L 0.844 3.103 L 3.617 3.103 Z M 40.799 2.522 L 40.838 1.995 L 41.581 1.995 L 41.581 6.636 A 2.511 2.511 0 0 1 41.51 7.249 A 1.738 1.738 0 0 1 41.034 8.09 A 1.834 1.834 0 0 1 40.104 8.57 A 2.671 2.671 0 0 1 39.564 8.622 A 2.446 2.446 0 0 1 38.558 8.402 A 2.003 2.003 0 0 1 38.147 8.161 A 1.563 1.563 0 0 1 37.806 7.8 L 38.228 7.313 A 1.889 1.889 0 0 0 38.663 7.712 A 1.514 1.514 0 0 0 39.507 7.958 A 1.695 1.695 0 0 0 39.884 7.919 Q 40.152 7.858 40.346 7.702 A 1.037 1.037 0 0 0 40.432 7.625 A 1.09 1.09 0 0 0 40.709 7.132 Q 40.756 6.959 40.763 6.752 A 2.134 2.134 0 0 0 40.764 6.684 L 40.764 6.275 A 1.601 1.601 0 0 1 39.712 6.821 A 2.279 2.279 0 0 1 39.432 6.838 A 1.672 1.672 0 0 1 38.677 6.67 Q 38.355 6.51 38.105 6.197 A 2.14 2.14 0 0 1 38.081 6.166 A 2.316 2.316 0 0 1 37.698 5.386 Q 37.564 4.922 37.564 4.333 Q 37.564 3.472 37.873 2.884 A 2.096 2.096 0 0 1 38.079 2.564 Q 38.593 1.907 39.441 1.907 A 1.971 1.971 0 0 1 40.04 1.994 A 1.55 1.55 0 0 1 40.799 2.522 Z M 68.471 3.393 L 67.654 3.393 Q 67.654 3.059 67.37 2.817 Q 67.087 2.575 66.656 2.575 Q 66.212 2.575 65.962 2.769 A 0.653 0.653 0 0 0 65.787 2.967 Q 65.714 3.098 65.711 3.263 A 0.771 0.771 0 0 0 65.711 3.274 A 0.588 0.588 0 0 0 65.742 3.467 A 0.48 0.48 0 0 0 65.944 3.718 A 1.093 1.093 0 0 0 66.095 3.796 Q 66.259 3.868 66.514 3.937 A 6.581 6.581 0 0 0 66.786 4.003 A 6.318 6.318 0 0 1 67.194 4.108 Q 67.53 4.208 67.772 4.329 A 1.901 1.901 0 0 1 68.028 4.481 Q 68.165 4.579 68.263 4.692 A 1.06 1.06 0 0 1 68.333 4.783 A 1.024 1.024 0 0 1 68.495 5.191 A 1.388 1.388 0 0 1 68.515 5.432 Q 68.515 6.069 68.005 6.453 Q 67.523 6.817 66.769 6.837 A 3.337 3.337 0 0 1 66.683 6.838 A 2.746 2.746 0 0 1 66.148 6.788 A 2.124 2.124 0 0 1 65.672 6.636 A 1.771 1.771 0 0 1 65.238 6.358 A 1.54 1.54 0 0 1 64.984 6.071 Q 64.736 5.708 64.736 5.287 L 65.549 5.287 A 0.932 0.932 0 0 0 65.622 5.612 A 0.827 0.827 0 0 0 65.876 5.935 A 1.072 1.072 0 0 0 66.278 6.128 Q 66.433 6.167 66.614 6.173 A 2.013 2.013 0 0 0 66.683 6.174 A 1.863 1.863 0 0 0 66.978 6.152 Q 67.14 6.126 67.271 6.07 A 0.941 0.941 0 0 0 67.423 5.988 A 0.689 0.689 0 0 0 67.588 5.837 A 0.554 0.554 0 0 0 67.702 5.489 A 0.698 0.698 0 0 0 67.666 5.258 A 0.581 0.581 0 0 0 67.454 4.977 A 1.05 1.05 0 0 0 67.285 4.878 Q 67.096 4.788 66.801 4.712 A 5.392 5.392 0 0 0 66.588 4.663 A 6.342 6.342 0 0 1 66.227 4.575 Q 65.857 4.473 65.608 4.346 Q 65.309 4.194 65.139 3.994 A 1.017 1.017 0 0 1 65.072 3.907 Q 64.898 3.652 64.898 3.3 A 1.206 1.206 0 0 1 65.297 2.396 A 1.694 1.694 0 0 1 65.393 2.312 A 1.752 1.752 0 0 1 66.176 1.952 A 2.471 2.471 0 0 1 66.656 1.907 A 2.559 2.559 0 0 1 67.22 1.966 A 1.757 1.757 0 0 1 67.968 2.325 Q 68.471 2.742 68.471 3.393 Z M 13.944 1.995 L 14.713 1.995 L 14.739 2.593 Q 15.276 1.918 16.135 1.907 A 2.234 2.234 0 0 1 16.163 1.907 A 1.905 1.905 0 0 1 16.797 2.004 Q 17.638 2.3 17.681 3.506 A 3.668 3.668 0 0 1 17.684 3.608 L 17.684 6.75 L 16.871 6.75 L 16.871 3.604 A 1.837 1.837 0 0 0 16.848 3.324 Q 16.798 3.017 16.635 2.843 Q 16.449 2.645 16.096 2.606 A 1.66 1.66 0 0 0 15.917 2.597 A 1.253 1.253 0 0 0 15.503 2.664 A 1.123 1.123 0 0 0 15.223 2.808 A 1.432 1.432 0 0 0 14.757 3.362 L 14.757 6.75 L 13.944 6.75 L 13.944 1.995 Z M 58.931 6.75 L 58.078 6.75 A 0.632 0.632 0 0 1 58.043 6.66 Q 58.011 6.562 57.987 6.41 A 3.997 3.997 0 0 1 57.964 6.249 Q 57.397 6.838 56.61 6.838 A 2.033 2.033 0 0 1 56.081 6.772 A 1.529 1.529 0 0 1 55.457 6.44 Q 55.006 6.042 55.006 5.432 Q 55.006 4.689 55.571 4.278 Q 56.136 3.867 57.16 3.867 L 57.951 3.867 L 57.951 3.494 A 1.152 1.152 0 0 0 57.915 3.199 A 0.828 0.828 0 0 0 57.696 2.815 Q 57.479 2.6 57.089 2.568 A 1.748 1.748 0 0 0 56.944 2.562 Q 56.509 2.562 56.215 2.782 Q 55.92 3.001 55.92 3.313 L 55.103 3.313 A 1.041 1.041 0 0 1 55.228 2.825 A 1.409 1.409 0 0 1 55.356 2.626 Q 55.608 2.294 56.041 2.101 A 2.249 2.249 0 0 1 56.817 1.913 A 2.669 2.669 0 0 1 56.993 1.907 A 2.65 2.65 0 0 1 57.51 1.955 Q 57.817 2.016 58.056 2.156 A 1.439 1.439 0 0 1 58.28 2.318 A 1.396 1.396 0 0 1 58.734 3.144 A 1.998 1.998 0 0 1 58.764 3.45 L 58.764 5.638 Q 58.764 6.073 58.837 6.39 A 1.707 1.707 0 0 0 58.931 6.68 L 58.931 6.75 Z M 63.826 6.75 L 62.974 6.75 A 0.632 0.632 0 0 1 62.938 6.66 Q 62.907 6.562 62.882 6.41 A 3.997 3.997 0 0 1 62.859 6.249 Q 62.292 6.838 61.506 6.838 A 2.033 2.033 0 0 1 60.977 6.772 A 1.529 1.529 0 0 1 60.352 6.44 Q 59.902 6.042 59.902 5.432 Q 59.902 4.689 60.467 4.278 Q 61.031 3.867 62.055 3.867 L 62.846 3.867 L 62.846 3.494 A 1.152 1.152 0 0 0 62.81 3.199 A 0.828 0.828 0 0 0 62.591 2.815 Q 62.375 2.6 61.985 2.568 A 1.748 1.748 0 0 0 61.84 2.562 Q 61.405 2.562 61.11 2.782 Q 60.816 3.001 60.816 3.313 L 59.999 3.313 A 1.041 1.041 0 0 1 60.123 2.825 A 1.409 1.409 0 0 1 60.251 2.626 Q 60.504 2.294 60.937 2.101 A 2.249 2.249 0 0 1 61.712 1.913 A 2.669 2.669 0 0 1 61.888 1.907 A 2.65 2.65 0 0 1 62.406 1.955 Q 62.713 2.016 62.952 2.156 A 1.439 1.439 0 0 1 63.176 2.318 A 1.396 1.396 0 0 1 63.629 3.144 A 1.998 1.998 0 0 1 63.659 3.45 L 63.659 5.638 Q 63.659 6.073 63.733 6.39 A 1.707 1.707 0 0 0 63.826 6.68 L 63.826 6.75 Z M 32.484 4.395 L 32.484 4.333 A 3.762 3.762 0 0 1 32.551 3.602 Q 32.639 3.16 32.841 2.812 A 2.148 2.148 0 0 1 33.003 2.573 Q 33.521 1.907 34.361 1.907 A 1.964 1.964 0 0 1 34.959 1.994 A 1.559 1.559 0 0 1 35.684 2.479 L 35.684 0 L 36.497 0 L 36.497 6.75 L 35.75 6.75 L 35.71 6.24 Q 35.222 6.838 34.352 6.838 A 1.6 1.6 0 0 1 33.131 6.31 A 2.078 2.078 0 0 1 33.005 6.161 A 2.405 2.405 0 0 1 32.581 5.255 Q 32.496 4.912 32.486 4.51 A 4.425 4.425 0 0 1 32.484 4.395 Z M 8.969 4.504 L 8.969 4.355 A 3.17 3.17 0 0 1 9.046 3.646 A 2.581 2.581 0 0 1 9.24 3.092 A 2.191 2.191 0 0 1 9.687 2.466 A 2.033 2.033 0 0 1 9.995 2.221 Q 10.481 1.907 11.048 1.907 A 2.254 2.254 0 0 1 11.661 1.986 A 1.639 1.639 0 0 1 12.489 2.518 Q 13.003 3.129 13.003 4.267 L 13.003 4.605 L 9.782 4.605 A 2.111 2.111 0 0 0 9.853 5.114 A 1.516 1.516 0 0 0 10.193 5.741 A 1.282 1.282 0 0 0 11.127 6.173 A 1.652 1.652 0 0 0 11.193 6.174 A 1.763 1.763 0 0 0 11.521 6.145 Q 11.745 6.103 11.922 5.999 A 1.827 1.827 0 0 0 12.431 5.551 A 2.068 2.068 0 0 0 12.445 5.533 L 12.942 5.919 A 1.926 1.926 0 0 1 11.542 6.811 A 2.749 2.749 0 0 1 11.149 6.838 A 2.394 2.394 0 0 1 10.398 6.725 A 1.974 1.974 0 0 1 9.576 6.203 Q 8.969 5.568 8.969 4.504 Z M 42.601 4.504 L 42.601 4.355 A 3.17 3.17 0 0 1 42.677 3.646 A 2.581 2.581 0 0 1 42.871 3.092 A 2.191 2.191 0 0 1 43.318 2.466 A 2.033 2.033 0 0 1 43.627 2.221 Q 44.112 1.907 44.679 1.907 A 2.254 2.254 0 0 1 45.292 1.986 A 1.639 1.639 0 0 1 46.121 2.518 Q 46.635 3.129 46.635 4.267 L 46.635 4.605 L 43.414 4.605 A 2.111 2.111 0 0 0 43.485 5.114 A 1.516 1.516 0 0 0 43.824 5.741 A 1.282 1.282 0 0 0 44.759 6.173 A 1.652 1.652 0 0 0 44.824 6.174 A 1.763 1.763 0 0 0 45.152 6.145 Q 45.376 6.103 45.554 5.999 A 1.827 1.827 0 0 0 46.063 5.551 A 2.068 2.068 0 0 0 46.077 5.533 L 46.573 5.919 A 1.926 1.926 0 0 1 45.174 6.811 A 2.749 2.749 0 0 1 44.78 6.838 A 2.394 2.394 0 0 1 44.029 6.725 A 1.974 1.974 0 0 1 43.207 6.203 Q 42.601 5.568 42.601 4.504 Z M 24.196 6.75 L 21.977 6.75 L 21.977 0.352 L 24.069 0.352 A 4.031 4.031 0 0 1 24.642 0.39 Q 24.934 0.432 25.171 0.521 A 1.629 1.629 0 0 1 25.635 0.782 A 1.383 1.383 0 0 1 26.107 1.558 A 2.164 2.164 0 0 1 26.161 2.057 A 1.3 1.3 0 0 1 25.906 2.85 A 1.589 1.589 0 0 1 25.395 3.294 A 1.972 1.972 0 0 1 25.211 3.384 A 1.571 1.571 0 0 1 25.726 3.63 A 1.446 1.446 0 0 1 26.031 3.935 A 1.531 1.531 0 0 1 26.323 4.713 A 1.961 1.961 0 0 1 26.332 4.904 A 2.139 2.139 0 0 1 26.257 5.487 A 1.577 1.577 0 0 1 25.774 6.258 A 1.832 1.832 0 0 1 25.082 6.633 Q 24.815 6.713 24.497 6.739 A 3.81 3.81 0 0 1 24.196 6.75 Z M 5.234 1.995 L 6.442 5.647 L 7.62 1.995 L 8.451 1.995 L 6.746 6.75 L 6.126 6.75 L 4.403 1.995 L 5.234 1.995 Z M 19.2 0.844 L 20.013 0.844 L 20.013 1.995 L 20.9 1.995 L 20.9 2.624 L 20.013 2.624 L 20.013 5.572 Q 20.013 5.858 20.131 6.001 Q 20.25 6.144 20.536 6.144 A 1.046 1.046 0 0 0 20.633 6.138 Q 20.736 6.129 20.876 6.101 A 4.024 4.024 0 0 0 20.922 6.091 L 20.922 6.75 A 2.463 2.463 0 0 1 20.49 6.829 A 2.157 2.157 0 0 1 20.298 6.838 Q 19.851 6.838 19.585 6.616 A 0.856 0.856 0 0 1 19.477 6.508 Q 19.249 6.238 19.209 5.78 A 2.351 2.351 0 0 1 19.2 5.572 L 19.2 2.624 L 18.334 2.624 L 18.334 1.995 L 19.2 1.995 L 19.2 0.844 Z M 29.751 1.969 L 29.751 2.725 A 2.251 2.251 0 0 0 29.508 2.698 A 2.782 2.782 0 0 0 29.351 2.694 Q 28.573 2.694 28.282 3.338 A 1.445 1.445 0 0 0 28.266 3.375 L 28.266 6.75 L 27.453 6.75 L 27.453 1.995 L 28.244 1.995 L 28.257 2.544 Q 28.637 1.938 29.32 1.909 A 1.636 1.636 0 0 1 29.391 1.907 Q 29.628 1.907 29.751 1.969 Z M 31.381 1.995 L 31.381 6.75 L 30.568 6.75 L 30.568 1.995 L 31.381 1.995 Z M 35.684 5.454 L 35.684 3.27 A 1.375 1.375 0 0 0 35.372 2.874 Q 35.048 2.597 34.563 2.597 A 1.238 1.238 0 0 0 34.136 2.668 A 1.068 1.068 0 0 0 33.631 3.059 A 1.51 1.51 0 0 0 33.422 3.484 Q 33.356 3.689 33.325 3.939 A 3.955 3.955 0 0 0 33.297 4.425 A 3.162 3.162 0 0 0 33.333 4.918 Q 33.374 5.178 33.463 5.389 A 1.474 1.474 0 0 0 33.631 5.691 A 1.06 1.06 0 0 0 34.394 6.139 A 1.391 1.391 0 0 0 34.554 6.148 Q 35.328 6.148 35.684 5.454 Z M 40.764 5.449 L 40.764 3.278 A 1.439 1.439 0 0 0 40.463 2.891 Q 40.159 2.62 39.719 2.599 A 1.578 1.578 0 0 0 39.643 2.597 Q 39.051 2.597 38.717 3.056 A 1.51 1.51 0 0 0 38.507 3.484 Q 38.441 3.689 38.41 3.939 A 3.955 3.955 0 0 0 38.382 4.425 Q 38.382 5.229 38.711 5.689 Q 39.041 6.148 39.634 6.148 A 1.32 1.32 0 0 0 40.144 6.054 Q 40.536 5.891 40.764 5.449 Z M 24.227 3.757 L 22.821 3.757 L 22.821 6.06 L 24.214 6.06 A 1.84 1.84 0 0 0 24.589 6.024 Q 24.829 5.974 25.013 5.854 A 1.064 1.064 0 0 0 25.143 5.755 A 1.003 1.003 0 0 0 25.465 5.154 A 1.459 1.459 0 0 0 25.484 4.913 Q 25.484 4.007 24.712 3.811 A 1.977 1.977 0 0 0 24.228 3.757 Z M 22.821 1.046 L 22.821 3.081 L 24.095 3.081 Q 24.649 3.081 24.981 2.804 A 0.905 0.905 0 0 0 25.309 2.154 A 1.27 1.27 0 0 0 25.312 2.052 Q 25.313 1.696 25.172 1.471 A 0.71 0.71 0 0 0 25.005 1.285 A 0.969 0.969 0 0 0 24.719 1.136 Q 24.456 1.047 24.075 1.046 A 3.261 3.261 0 0 0 24.069 1.046 L 22.821 1.046 Z M 57.951 5.418 L 57.951 4.443 L 57.313 4.443 Q 55.819 4.443 55.819 5.317 Q 55.819 5.7 56.074 5.915 A 0.893 0.893 0 0 0 56.488 6.108 A 1.259 1.259 0 0 0 56.729 6.13 A 1.429 1.429 0 0 0 57.454 5.933 A 1.335 1.335 0 0 0 57.75 5.705 A 1.108 1.108 0 0 0 57.951 5.418 Z M 62.846 5.418 L 62.846 4.443 L 62.209 4.443 Q 60.715 4.443 60.715 5.317 Q 60.715 5.7 60.97 5.915 A 0.893 0.893 0 0 0 61.383 6.108 A 1.259 1.259 0 0 0 61.625 6.13 A 1.429 1.429 0 0 0 62.35 5.933 A 1.335 1.335 0 0 0 62.645 5.705 A 1.108 1.108 0 0 0 62.846 5.418 Z M 9.809 3.938 L 12.19 3.938 L 12.19 3.876 Q 12.164 3.417 11.994 3.111 A 1.13 1.13 0 0 0 11.856 2.916 A 0.983 0.983 0 0 0 11.202 2.584 A 1.39 1.39 0 0 0 11.048 2.575 A 1.106 1.106 0 0 0 10.525 2.698 A 1.14 1.14 0 0 0 10.222 2.933 A 1.417 1.417 0 0 0 9.945 3.379 Q 9.871 3.563 9.831 3.785 A 2.741 2.741 0 0 0 9.809 3.938 Z M 43.44 3.938 L 45.822 3.938 L 45.822 3.876 Q 45.796 3.417 45.625 3.111 A 1.13 1.13 0 0 0 45.488 2.916 A 0.983 0.983 0 0 0 44.833 2.584 A 1.39 1.39 0 0 0 44.679 2.575 A 1.106 1.106 0 0 0 44.157 2.698 A 1.14 1.14 0 0 0 43.853 2.933 A 1.417 1.417 0 0 0 43.576 3.379 Q 43.503 3.563 43.463 3.785 A 2.741 2.741 0 0 0 43.44 3.938 Z M 30.502 0.734 Q 30.502 0.536 30.623 0.4 Q 30.735 0.274 30.947 0.264 A 0.783 0.783 0 0 1 30.981 0.264 Q 31.219 0.264 31.342 0.4 A 0.474 0.474 0 0 1 31.464 0.703 A 0.614 0.614 0 0 1 31.465 0.734 A 0.523 0.523 0 0 1 31.44 0.9 A 0.442 0.442 0 0 1 31.342 1.063 Q 31.229 1.184 31.021 1.194 A 0.803 0.803 0 0 1 30.981 1.195 Q 30.809 1.195 30.698 1.126 A 0.362 0.362 0 0 1 30.623 1.063 A 0.456 0.456 0 0 1 30.505 0.788 A 0.605 0.605 0 0 1 30.502 0.734 Z" vector-effect="non-scaling-stroke"/></g><g transform="translate(25, 93)" id="svgGroup" stroke-linecap="round" fill-rule="evenodd" font-size="9pt" stroke="#000" stroke-width="0.25mm" fill="#000" style="stroke:#000;stroke-width:0.25mm;fill:#000"><path d="M 35.134 3.103 L 35.134 3.792 L 32.361 3.792 L 32.361 6.06 L 35.583 6.06 L 35.583 6.75 L 31.518 6.75 L 31.518 0.352 L 35.539 0.352 L 35.539 1.046 L 32.361 1.046 L 32.361 3.103 L 35.134 3.103 Z M 80.82 0 L 80.82 2.571 A 1.767 1.767 0 0 1 81.486 2.053 A 1.832 1.832 0 0 1 82.226 1.907 A 1.905 1.905 0 0 1 82.86 2.004 Q 83.701 2.3 83.744 3.506 A 3.668 3.668 0 0 1 83.747 3.608 L 83.747 6.75 L 82.934 6.75 L 82.934 3.604 A 1.837 1.837 0 0 0 82.911 3.324 Q 82.861 3.017 82.698 2.843 Q 82.512 2.645 82.159 2.606 A 1.66 1.66 0 0 0 81.98 2.597 A 1.253 1.253 0 0 0 81.566 2.664 A 1.123 1.123 0 0 0 81.286 2.808 A 1.432 1.432 0 0 0 80.82 3.362 L 80.82 6.75 L 80.007 6.75 L 80.007 0 L 80.82 0 Z M 77.999 2.522 L 78.038 1.995 L 78.781 1.995 L 78.781 6.636 A 2.511 2.511 0 0 1 78.71 7.249 A 1.738 1.738 0 0 1 78.234 8.09 A 1.834 1.834 0 0 1 77.304 8.57 A 2.671 2.671 0 0 1 76.764 8.622 A 2.446 2.446 0 0 1 75.757 8.402 A 2.003 2.003 0 0 1 75.347 8.161 A 1.563 1.563 0 0 1 75.006 7.8 L 75.428 7.313 A 1.889 1.889 0 0 0 75.862 7.712 A 1.514 1.514 0 0 0 76.707 7.958 A 1.695 1.695 0 0 0 77.084 7.919 Q 77.352 7.858 77.546 7.702 A 1.037 1.037 0 0 0 77.632 7.625 A 1.09 1.09 0 0 0 77.909 7.132 Q 77.956 6.959 77.962 6.752 A 2.134 2.134 0 0 0 77.963 6.684 L 77.963 6.275 A 1.601 1.601 0 0 1 76.911 6.821 A 2.279 2.279 0 0 1 76.632 6.838 A 1.672 1.672 0 0 1 75.877 6.67 Q 75.555 6.51 75.305 6.197 A 2.14 2.14 0 0 1 75.281 6.166 A 2.316 2.316 0 0 1 74.897 5.386 Q 74.764 4.922 74.764 4.333 Q 74.764 3.472 75.073 2.884 A 2.096 2.096 0 0 1 75.278 2.564 Q 75.792 1.907 76.641 1.907 A 1.971 1.971 0 0 1 77.239 1.994 A 1.55 1.55 0 0 1 77.999 2.522 Z M 16.383 1.995 L 17.152 1.995 L 17.178 2.593 Q 17.715 1.918 18.574 1.907 A 2.234 2.234 0 0 1 18.602 1.907 A 1.905 1.905 0 0 1 19.236 2.004 Q 20.077 2.3 20.12 3.506 A 3.668 3.668 0 0 1 20.123 3.608 L 20.123 6.75 L 19.31 6.75 L 19.31 3.604 A 1.837 1.837 0 0 0 19.287 3.324 Q 19.237 3.017 19.074 2.843 Q 18.888 2.645 18.535 2.606 A 1.66 1.66 0 0 0 18.356 2.597 A 1.253 1.253 0 0 0 17.942 2.664 A 1.123 1.123 0 0 0 17.662 2.808 A 1.432 1.432 0 0 0 17.196 3.362 L 17.196 6.75 L 16.383 6.75 L 16.383 1.995 Z M 45.461 1.995 L 46.23 1.995 L 46.257 2.593 Q 46.793 1.918 47.653 1.907 A 2.234 2.234 0 0 1 47.681 1.907 A 1.905 1.905 0 0 1 48.314 2.004 Q 49.156 2.3 49.199 3.506 A 3.668 3.668 0 0 1 49.201 3.608 L 49.201 6.75 L 48.388 6.75 L 48.388 3.604 A 1.837 1.837 0 0 0 48.366 3.324 Q 48.316 3.017 48.153 2.843 Q 47.967 2.645 47.614 2.606 A 1.66 1.66 0 0 0 47.435 2.597 A 1.253 1.253 0 0 0 47.02 2.664 A 1.123 1.123 0 0 0 46.74 2.808 A 1.432 1.432 0 0 0 46.274 3.362 L 46.274 6.75 L 45.461 6.75 L 45.461 1.995 Z M 9.29 6.75 L 8.438 6.75 A 0.632 0.632 0 0 1 8.402 6.66 Q 8.371 6.562 8.346 6.41 A 3.997 3.997 0 0 1 8.323 6.249 Q 7.756 6.838 6.97 6.838 A 2.033 2.033 0 0 1 6.44 6.772 A 1.529 1.529 0 0 1 5.816 6.44 Q 5.366 6.042 5.366 5.432 Q 5.366 4.689 5.93 4.278 Q 6.495 3.867 7.519 3.867 L 8.31 3.867 L 8.31 3.494 A 1.152 1.152 0 0 0 8.274 3.199 A 0.828 0.828 0 0 0 8.055 2.815 Q 7.839 2.6 7.449 2.568 A 1.748 1.748 0 0 0 7.304 2.562 Q 6.869 2.562 6.574 2.782 Q 6.28 3.001 6.28 3.313 L 5.462 3.313 A 1.041 1.041 0 0 1 5.587 2.825 A 1.409 1.409 0 0 1 5.715 2.626 Q 5.968 2.294 6.401 2.101 A 2.249 2.249 0 0 1 7.176 1.913 A 2.669 2.669 0 0 1 7.352 1.907 A 2.65 2.65 0 0 1 7.869 1.955 Q 8.177 2.016 8.416 2.156 A 1.439 1.439 0 0 1 8.64 2.318 A 1.396 1.396 0 0 1 9.093 3.144 A 1.998 1.998 0 0 1 9.123 3.45 L 9.123 5.638 Q 9.123 6.073 9.197 6.39 A 1.707 1.707 0 0 0 9.29 6.68 L 9.29 6.75 Z M 21.142 4.504 L 21.142 4.355 A 3.17 3.17 0 0 1 21.218 3.646 A 2.581 2.581 0 0 1 21.412 3.092 A 2.191 2.191 0 0 1 21.86 2.466 A 2.033 2.033 0 0 1 22.168 2.221 Q 22.654 1.907 23.221 1.907 A 2.254 2.254 0 0 1 23.834 1.986 A 1.639 1.639 0 0 1 24.662 2.518 Q 25.176 3.129 25.176 4.267 L 25.176 4.605 L 21.955 4.605 A 2.111 2.111 0 0 0 22.026 5.114 A 1.516 1.516 0 0 0 22.366 5.741 A 1.282 1.282 0 0 0 23.3 6.173 A 1.652 1.652 0 0 0 23.366 6.174 A 1.763 1.763 0 0 0 23.694 6.145 Q 23.918 6.103 24.095 5.999 A 1.827 1.827 0 0 0 24.604 5.551 A 2.068 2.068 0 0 0 24.618 5.533 L 25.115 5.919 A 1.926 1.926 0 0 1 23.715 6.811 A 2.749 2.749 0 0 1 23.322 6.838 A 2.394 2.394 0 0 1 22.571 6.725 A 1.974 1.974 0 0 1 21.749 6.203 Q 21.142 5.568 21.142 4.504 Z M 40.487 4.504 L 40.487 4.355 A 3.17 3.17 0 0 1 40.563 3.646 A 2.581 2.581 0 0 1 40.757 3.092 A 2.191 2.191 0 0 1 41.205 2.466 A 2.033 2.033 0 0 1 41.513 2.221 Q 41.999 1.907 42.565 1.907 A 2.254 2.254 0 0 1 43.179 1.986 A 1.639 1.639 0 0 1 44.007 2.518 Q 44.521 3.129 44.521 4.267 L 44.521 4.605 L 41.3 4.605 A 2.111 2.111 0 0 0 41.371 5.114 A 1.516 1.516 0 0 0 41.711 5.741 A 1.282 1.282 0 0 0 42.645 6.173 A 1.652 1.652 0 0 0 42.71 6.174 A 1.763 1.763 0 0 0 43.039 6.145 Q 43.263 6.103 43.44 5.999 A 1.827 1.827 0 0 0 43.949 5.551 A 2.068 2.068 0 0 0 43.963 5.533 L 44.459 5.919 A 1.926 1.926 0 0 1 43.06 6.811 A 2.749 2.749 0 0 1 42.667 6.838 A 2.394 2.394 0 0 1 41.915 6.725 A 1.974 1.974 0 0 1 41.093 6.203 Q 40.487 5.568 40.487 4.504 Z M 68.906 0.352 L 68.906 6.06 L 71.938 6.06 L 71.938 6.75 L 68.058 6.75 L 68.058 0.352 L 68.906 0.352 Z M 2.351 4.245 L 0.844 4.245 L 0.844 6.75 L 0 6.75 L 0 0.352 L 2.36 0.352 A 3.315 3.315 0 0 1 3.025 0.414 Q 3.427 0.497 3.738 0.688 A 1.839 1.839 0 0 1 4.006 0.888 A 1.772 1.772 0 0 1 4.593 2.105 A 2.45 2.45 0 0 1 4.601 2.307 Q 4.601 3.239 4.019 3.742 Q 3.54 4.156 2.721 4.229 A 4.14 4.14 0 0 1 2.351 4.245 Z M 36.751 1.995 L 37.96 5.647 L 39.138 1.995 L 39.968 1.995 L 38.263 6.75 L 37.644 6.75 L 35.921 1.995 L 36.751 1.995 Z M 58.944 0.352 L 58.944 4.601 L 59.832 4.601 L 59.832 5.265 L 58.944 5.265 L 58.944 6.75 L 58.126 6.75 L 58.126 5.265 L 55.213 5.265 L 55.213 4.786 L 58.078 0.352 L 58.944 0.352 Z M 64.342 2.592 A 1.544 1.544 0 0 0 64.446 2.021 A 2.226 2.226 0 0 0 64.424 1.707 A 1.566 1.566 0 0 0 63.925 0.738 A 1.754 1.754 0 0 0 63.159 0.333 A 2.443 2.443 0 0 0 62.561 0.264 A 2.539 2.539 0 0 0 62.051 0.312 A 1.767 1.767 0 0 0 61.194 0.738 Q 60.675 1.213 60.675 2.021 A 1.808 1.808 0 0 0 60.676 2.058 A 1.499 1.499 0 0 0 60.921 2.87 A 1.626 1.626 0 0 0 61.083 3.077 A 1.726 1.726 0 0 0 61.594 3.454 A 2.119 2.119 0 0 0 61.494 3.5 A 1.738 1.738 0 0 0 60.809 4.087 A 1.629 1.629 0 0 0 60.526 5.023 A 2.272 2.272 0 0 0 60.536 5.237 A 1.63 1.63 0 0 0 61.082 6.344 A 1.895 1.895 0 0 0 61.932 6.771 A 2.797 2.797 0 0 0 62.561 6.838 A 2.796 2.796 0 0 0 63.16 6.777 A 1.925 1.925 0 0 0 64.035 6.346 A 1.578 1.578 0 0 0 64.51 5.62 A 1.989 1.989 0 0 0 64.595 5.023 A 1.581 1.581 0 0 0 64.303 4.087 Q 64.011 3.674 63.51 3.458 Q 63.94 3.248 64.193 2.874 A 1.449 1.449 0 0 0 64.342 2.592 Z M 13.733 0.844 L 14.546 0.844 L 14.546 1.995 L 15.434 1.995 L 15.434 2.624 L 14.546 2.624 L 14.546 5.572 Q 14.546 5.858 14.665 6.001 Q 14.783 6.144 15.069 6.144 A 1.046 1.046 0 0 0 15.166 6.138 Q 15.269 6.129 15.409 6.101 A 4.024 4.024 0 0 0 15.456 6.091 L 15.456 6.75 A 2.463 2.463 0 0 1 15.023 6.829 A 2.157 2.157 0 0 1 14.832 6.838 Q 14.384 6.838 14.118 6.616 A 0.856 0.856 0 0 1 14.01 6.508 Q 13.782 6.238 13.742 5.78 A 2.351 2.351 0 0 1 13.733 5.572 L 13.733 2.624 L 12.867 2.624 L 12.867 1.995 L 13.733 1.995 L 13.733 0.844 Z M 50.717 0.844 L 51.53 0.844 L 51.53 1.995 L 52.418 1.995 L 52.418 2.624 L 51.53 2.624 L 51.53 5.572 Q 51.53 5.858 51.649 6.001 Q 51.768 6.144 52.053 6.144 A 1.046 1.046 0 0 0 52.151 6.138 Q 52.253 6.129 52.393 6.101 A 4.024 4.024 0 0 0 52.44 6.091 L 52.44 6.75 A 2.463 2.463 0 0 1 52.007 6.829 A 2.157 2.157 0 0 1 51.816 6.838 Q 51.369 6.838 51.102 6.616 A 0.856 0.856 0 0 1 50.994 6.508 Q 50.767 6.238 50.726 5.78 A 2.351 2.351 0 0 1 50.717 5.572 L 50.717 2.624 L 49.852 2.624 L 49.852 1.995 L 50.717 1.995 L 50.717 0.844 Z M 85.254 0.844 L 86.067 0.844 L 86.067 1.995 L 86.955 1.995 L 86.955 2.624 L 86.067 2.624 L 86.067 5.572 Q 86.067 5.858 86.186 6.001 Q 86.304 6.144 86.59 6.144 A 1.046 1.046 0 0 0 86.687 6.138 Q 86.79 6.129 86.93 6.101 A 4.024 4.024 0 0 0 86.977 6.091 L 86.977 6.75 A 2.463 2.463 0 0 1 86.544 6.829 A 2.157 2.157 0 0 1 86.353 6.838 Q 85.905 6.838 85.639 6.616 A 0.856 0.856 0 0 1 85.531 6.508 Q 85.303 6.238 85.263 5.78 A 2.351 2.351 0 0 1 85.254 5.572 L 85.254 2.624 L 84.388 2.624 L 84.388 1.995 L 85.254 1.995 L 85.254 0.844 Z M 12.696 1.969 L 12.696 2.725 A 2.251 2.251 0 0 0 12.453 2.698 A 2.782 2.782 0 0 0 12.296 2.694 Q 11.518 2.694 11.227 3.338 A 1.445 1.445 0 0 0 11.21 3.375 L 11.21 6.75 L 10.397 6.75 L 10.397 1.995 L 11.188 1.995 L 11.202 2.544 Q 11.582 1.938 12.265 1.909 A 1.636 1.636 0 0 1 12.335 1.907 Q 12.573 1.907 12.696 1.969 Z M 28.415 1.969 L 28.415 2.725 A 2.251 2.251 0 0 0 28.172 2.698 A 2.782 2.782 0 0 0 28.015 2.694 Q 27.237 2.694 26.946 3.338 A 1.445 1.445 0 0 0 26.93 3.375 L 26.93 6.75 L 26.117 6.75 L 26.117 1.995 L 26.908 1.995 L 26.921 2.544 Q 27.301 1.938 27.984 1.909 A 1.636 1.636 0 0 1 28.055 1.907 Q 28.292 1.907 28.415 1.969 Z M 73.657 1.995 L 73.657 6.75 L 72.844 6.75 L 72.844 1.995 L 73.657 1.995 Z M 77.963 5.449 L 77.963 3.278 A 1.439 1.439 0 0 0 77.662 2.891 Q 77.359 2.62 76.918 2.599 A 1.578 1.578 0 0 0 76.843 2.597 Q 76.251 2.597 75.917 3.056 A 1.51 1.51 0 0 0 75.706 3.484 Q 75.641 3.689 75.609 3.939 A 3.955 3.955 0 0 0 75.582 4.425 Q 75.582 5.229 75.911 5.689 Q 76.241 6.148 76.834 6.148 A 1.32 1.32 0 0 0 77.344 6.054 Q 77.735 5.891 77.963 5.449 Z M 0.844 1.046 L 0.844 3.555 L 2.36 3.555 A 2.313 2.313 0 0 0 2.752 3.524 Q 2.969 3.487 3.142 3.404 A 1.097 1.097 0 0 0 3.397 3.237 A 1.028 1.028 0 0 0 3.715 2.696 Q 3.756 2.528 3.757 2.329 A 1.996 1.996 0 0 0 3.757 2.316 A 1.466 1.466 0 0 0 3.703 1.908 A 1.112 1.112 0 0 0 3.397 1.402 Q 3.037 1.059 2.408 1.046 L 0.844 1.046 Z M 58.03 1.639 L 56.136 4.601 L 58.126 4.601 L 58.126 1.463 L 58.03 1.639 Z M 63.782 5.005 A 1.375 1.375 0 0 0 63.723 4.592 A 1.109 1.109 0 0 0 63.442 4.131 A 1.148 1.148 0 0 0 62.77 3.807 A 1.593 1.593 0 0 0 62.552 3.792 A 1.466 1.466 0 0 0 62.163 3.841 A 1.086 1.086 0 0 0 61.671 4.126 A 1.123 1.123 0 0 0 61.357 4.762 A 1.572 1.572 0 0 0 61.339 5.005 A 1.48 1.48 0 0 0 61.381 5.367 A 1.019 1.019 0 0 0 61.662 5.862 Q 61.968 6.158 62.501 6.173 A 2.053 2.053 0 0 0 62.561 6.174 Q 63.054 6.174 63.364 5.94 A 1.018 1.018 0 0 0 63.457 5.86 A 1.041 1.041 0 0 0 63.756 5.292 A 1.518 1.518 0 0 0 63.782 5.005 Z M 62.561 0.932 A 1.259 1.259 0 0 0 62.208 0.979 A 0.973 0.973 0 0 0 61.785 1.228 Q 61.488 1.525 61.488 2.035 A 1.325 1.325 0 0 0 61.533 2.387 A 0.994 0.994 0 0 0 61.781 2.823 A 0.974 0.974 0 0 0 62.343 3.108 A 1.382 1.382 0 0 0 62.561 3.125 A 1.279 1.279 0 0 0 62.905 3.08 A 0.952 0.952 0 0 0 63.341 2.823 A 1.018 1.018 0 0 0 63.616 2.26 A 1.426 1.426 0 0 0 63.633 2.035 A 1.282 1.282 0 0 0 63.583 1.668 A 1.013 1.013 0 0 0 63.33 1.239 Q 63.026 0.932 62.561 0.932 Z M 8.31 5.418 L 8.31 4.443 L 7.673 4.443 Q 6.179 4.443 6.179 5.317 Q 6.179 5.7 6.434 5.915 A 0.893 0.893 0 0 0 6.847 6.108 A 1.259 1.259 0 0 0 7.088 6.13 A 1.429 1.429 0 0 0 7.813 5.933 A 1.335 1.335 0 0 0 8.109 5.705 A 1.108 1.108 0 0 0 8.31 5.418 Z M 21.981 3.938 L 24.363 3.938 L 24.363 3.876 Q 24.337 3.417 24.167 3.111 A 1.13 1.13 0 0 0 24.029 2.916 A 0.983 0.983 0 0 0 23.375 2.584 A 1.39 1.39 0 0 0 23.221 2.575 A 1.106 1.106 0 0 0 22.698 2.698 A 1.14 1.14 0 0 0 22.395 2.933 A 1.417 1.417 0 0 0 22.118 3.379 Q 22.044 3.563 22.004 3.785 A 2.741 2.741 0 0 0 21.981 3.938 Z M 41.326 3.938 L 43.708 3.938 L 43.708 3.876 Q 43.682 3.417 43.511 3.111 A 1.13 1.13 0 0 0 43.374 2.916 A 0.983 0.983 0 0 0 42.72 2.584 A 1.39 1.39 0 0 0 42.565 2.575 A 1.106 1.106 0 0 0 42.043 2.698 A 1.14 1.14 0 0 0 41.739 2.933 A 1.417 1.417 0 0 0 41.463 3.379 Q 41.389 3.563 41.349 3.785 A 2.741 2.741 0 0 0 41.326 3.938 Z M 72.778 0.734 Q 72.778 0.536 72.899 0.4 Q 73.011 0.274 73.222 0.264 A 0.783 0.783 0 0 1 73.257 0.264 Q 73.494 0.264 73.617 0.4 A 0.474 0.474 0 0 1 73.739 0.703 A 0.614 0.614 0 0 1 73.74 0.734 A 0.523 0.523 0 0 1 73.715 0.9 A 0.442 0.442 0 0 1 73.617 1.063 Q 73.505 1.184 73.297 1.194 A 0.803 0.803 0 0 1 73.257 1.195 Q 73.085 1.195 72.974 1.126 A 0.362 0.362 0 0 1 72.899 1.063 A 0.456 0.456 0 0 1 72.78 0.788 A 0.605 0.605 0 0 1 72.778 0.734 Z" vector-effect="non-scaling-stroke"/></g>
</svg>