<?xml version="1.0" encoding="UTF-8"?>
<svg width="48px" height="48px" viewBox="0 0 48 48" version="1.1" xmlns="http://www.w3.org/2000/svg" xmlns:xlink="http://www.w3.org/1999/xlink">
    <title>Icon-Resource/Managment-Governance/Res_AWS-CloudFormation_Stack_48_Light</title>
    <g id="Icon-Resource/Managment-Governance/Res_AWS-CloudFormation_Stack_48" stroke="none" stroke-width="1" fill="none" fill-rule="evenodd">
        <path transform="translate(12.000000, 8.000000), scale(.65)" d="M2,15.353 L45.92,15.353 L45.92,2 L2,2 L2,15.353 Z M4,13.354 L43.92,13.354 L43.92,4 L4,4 L4,13.354 Z M24.706,30.201 L45.92,30.201 L45.92,16.847 L24.706,16.847 L24.706,30.201 Z M26.706,28.2 L43.92,28.2 L43.92,18.847 L26.706,18.847 L26.706,28.2 Z M2,30.201 L23.213,30.201 L23.213,16.847 L2,16.847 L2,30.201 Z M4,28.2 L21.213,28.2 L21.213,18.847 L4,18.847 L4,28.2 Z M32.567,45.047 L45.92,45.047 L45.92,31.694 L32.567,31.694 L32.567,45.047 Z M34.566,43.047 L43.92,43.047 L43.92,33.693 L34.566,33.693 L34.566,43.047 Z M16.847,45.047 L31.073,45.047 L31.073,31.694 L16.847,31.694 L16.847,45.047 Z M18.847,43.047 L29.074,43.047 L29.074,33.693 L18.847,33.693 L18.847,43.047 Z M2,45.047 L15.352,45.047 L15.352,31.694 L2,31.694 L2,45.047 Z M4,43.047 L13.353,43.047 L13.353,33.693 L4,33.693 L4,43.047 Z" id="AWS-CloudFormation_stack_Resource-Icon_light-bg" fill="#000000"></path>
    </g><g transform="translate(25, 83)" id="svgGroup" stroke-linecap="round" fill-rule="evenodd" font-size="9pt" stroke="#000" stroke-width="0.25mm" fill="#000" style="stroke:#000;stroke-width:0.25mm;fill:#000"><path d="M 23.12 0.088 L 24.13 4.469 L 24.253 5.313 L 24.434 4.553 L 25.699 0.088 L 26.411 0.088 L 27.646 4.553 L 27.822 5.326 L 27.958 4.465 L 28.951 0.088 L 29.799 0.088 L 28.248 6.486 L 27.479 6.486 L 26.161 1.824 L 26.06 1.336 L 25.958 1.824 L 24.592 6.486 L 23.823 6.486 L 22.276 0.088 L 23.12 0.088 Z M 34.98 1.938 L 34.132 1.938 A 1.466 1.466 0 0 0 34.083 1.546 A 1.066 1.066 0 0 0 33.763 1.026 A 1.211 1.211 0 0 0 33.294 0.77 Q 33.042 0.694 32.722 0.694 A 2.286 2.286 0 0 0 32.342 0.724 Q 32.14 0.758 31.977 0.831 A 1.101 1.101 0 0 0 31.748 0.969 A 0.892 0.892 0 0 0 31.403 1.624 A 1.267 1.267 0 0 0 31.399 1.732 A 0.806 0.806 0 0 0 31.667 2.337 A 1.134 1.134 0 0 0 31.731 2.393 A 1.562 1.562 0 0 0 31.969 2.549 Q 32.299 2.73 32.86 2.887 A 8.228 8.228 0 0 1 33.325 3.032 Q 33.56 3.113 33.754 3.2 A 3.297 3.297 0 0 1 34.108 3.382 A 2.342 2.342 0 0 1 34.447 3.626 Q 34.637 3.792 34.759 3.985 A 1.45 1.45 0 0 1 34.776 4.012 A 1.498 1.498 0 0 1 34.972 4.568 A 1.948 1.948 0 0 1 34.994 4.86 A 1.606 1.606 0 0 1 34.871 5.497 Q 34.726 5.838 34.408 6.09 A 1.886 1.886 0 0 1 34.387 6.106 Q 33.781 6.574 32.766 6.574 A 3.023 3.023 0 0 1 31.625 6.36 A 2.917 2.917 0 0 1 31.535 6.322 A 2.383 2.383 0 0 1 31.057 6.044 A 1.874 1.874 0 0 1 30.654 5.629 A 1.689 1.689 0 0 1 30.344 4.632 L 31.192 4.632 A 1.261 1.261 0 0 0 31.262 5.059 A 1.074 1.074 0 0 0 31.621 5.548 Q 32.005 5.85 32.622 5.881 A 2.87 2.87 0 0 0 32.766 5.884 A 2.628 2.628 0 0 0 33.153 5.858 Q 33.349 5.828 33.508 5.767 A 1.129 1.129 0 0 0 33.79 5.612 Q 34.146 5.339 34.146 4.869 A 1.074 1.074 0 0 0 34.103 4.559 A 0.816 0.816 0 0 0 33.816 4.142 Q 33.486 3.885 32.621 3.634 Q 31.535 3.322 31.041 2.868 Q 30.546 2.413 30.546 1.745 Q 30.546 0.989 31.151 0.494 A 2.121 2.121 0 0 1 32.041 0.071 A 3.087 3.087 0 0 1 32.722 0 A 2.913 2.913 0 0 1 33.382 0.072 A 2.372 2.372 0 0 1 33.897 0.255 A 2.051 2.051 0 0 1 34.428 0.626 A 1.834 1.834 0 0 1 34.697 0.958 A 1.798 1.798 0 0 1 34.98 1.938 Z M 3.74 6.486 L 2.351 3.898 L 0.848 3.898 L 0.848 6.486 L 0 6.486 L 0 0.088 L 2.118 0.088 A 3.809 3.809 0 0 1 2.76 0.138 Q 3.102 0.197 3.376 0.324 A 1.789 1.789 0 0 1 3.781 0.58 A 1.588 1.588 0 0 1 4.307 1.469 A 2.453 2.453 0 0 1 4.364 2.013 A 1.864 1.864 0 0 1 4.273 2.604 A 1.64 1.64 0 0 1 4.041 3.054 A 1.849 1.849 0 0 1 3.382 3.611 A 2.342 2.342 0 0 1 3.142 3.718 L 4.645 6.434 L 4.645 6.486 L 3.74 6.486 Z M 13.724 3.129 L 12.907 3.129 Q 12.907 2.795 12.623 2.553 Q 12.34 2.312 11.909 2.312 Q 11.465 2.312 11.215 2.505 A 0.653 0.653 0 0 0 11.04 2.704 Q 10.967 2.835 10.964 3 A 0.771 0.771 0 0 0 10.964 3.01 A 0.588 0.588 0 0 0 10.994 3.203 A 0.48 0.48 0 0 0 11.197 3.454 A 1.093 1.093 0 0 0 11.348 3.533 Q 11.512 3.605 11.767 3.673 A 6.581 6.581 0 0 0 12.039 3.74 A 6.318 6.318 0 0 1 12.446 3.845 Q 12.783 3.944 13.025 4.065 A 1.901 1.901 0 0 1 13.281 4.218 Q 13.418 4.315 13.516 4.429 A 1.06 1.06 0 0 1 13.586 4.52 A 1.024 1.024 0 0 1 13.748 4.927 A 1.388 1.388 0 0 1 13.768 5.168 Q 13.768 5.805 13.258 6.19 Q 12.776 6.554 12.022 6.573 A 3.337 3.337 0 0 1 11.936 6.574 A 2.746 2.746 0 0 1 11.401 6.525 A 2.124 2.124 0 0 1 10.925 6.372 A 1.771 1.771 0 0 1 10.491 6.094 A 1.54 1.54 0 0 1 10.237 5.807 Q 9.989 5.445 9.989 5.023 L 10.802 5.023 A 0.932 0.932 0 0 0 10.875 5.348 A 0.827 0.827 0 0 0 11.129 5.671 A 1.072 1.072 0 0 0 11.531 5.864 Q 11.686 5.903 11.867 5.91 A 2.013 2.013 0 0 0 11.936 5.911 A 1.863 1.863 0 0 0 12.231 5.889 Q 12.393 5.863 12.524 5.806 A 0.941 0.941 0 0 0 12.676 5.724 A 0.689 0.689 0 0 0 12.841 5.574 A 0.554 0.554 0 0 0 12.955 5.225 A 0.698 0.698 0 0 0 12.919 4.994 A 0.581 0.581 0 0 0 12.707 4.713 A 1.05 1.05 0 0 0 12.538 4.615 Q 12.349 4.524 12.054 4.449 A 5.392 5.392 0 0 0 11.841 4.399 A 6.342 6.342 0 0 1 11.48 4.311 Q 11.11 4.209 10.861 4.083 Q 10.562 3.93 10.392 3.731 A 1.017 1.017 0 0 1 10.325 3.643 Q 10.151 3.388 10.151 3.037 A 1.206 1.206 0 0 1 10.55 2.132 A 1.694 1.694 0 0 1 10.646 2.048 A 1.752 1.752 0 0 1 11.429 1.688 A 2.471 2.471 0 0 1 11.909 1.644 A 2.559 2.559 0 0 1 12.473 1.702 A 1.757 1.757 0 0 1 13.221 2.061 Q 13.724 2.479 13.724 3.129 Z M 21.327 6.486 L 20.716 4.816 L 18.035 4.816 L 17.433 6.486 L 16.563 6.486 L 19.006 0.088 L 19.745 0.088 L 22.192 6.486 L 21.327 6.486 Z M 5.212 4.241 L 5.212 4.091 A 3.17 3.17 0 0 1 5.288 3.382 A 2.581 2.581 0 0 1 5.482 2.828 A 2.191 2.191 0 0 1 5.93 2.202 A 2.033 2.033 0 0 1 6.238 1.958 Q 6.724 1.644 7.291 1.644 A 2.254 2.254 0 0 1 7.904 1.723 A 1.639 1.639 0 0 1 8.732 2.254 Q 9.246 2.865 9.246 4.003 L 9.246 4.342 L 6.025 4.342 A 2.111 2.111 0 0 0 6.096 4.85 A 1.516 1.516 0 0 0 6.436 5.478 A 1.282 1.282 0 0 0 7.37 5.909 A 1.652 1.652 0 0 0 7.436 5.911 A 1.763 1.763 0 0 0 7.764 5.882 Q 7.988 5.839 8.165 5.735 A 1.827 1.827 0 0 0 8.674 5.287 A 2.068 2.068 0 0 0 8.688 5.269 L 9.185 5.656 A 1.926 1.926 0 0 1 7.785 6.547 A 2.749 2.749 0 0 1 7.392 6.574 A 2.394 2.394 0 0 1 6.64 6.461 A 1.974 1.974 0 0 1 5.818 5.939 Q 5.212 5.304 5.212 4.241 Z M 0.848 0.782 L 0.848 3.208 L 2.145 3.208 Q 2.685 3.208 3.035 2.968 A 1.174 1.174 0 0 0 3.144 2.883 A 1.069 1.069 0 0 0 3.51 2.146 A 1.486 1.486 0 0 0 3.516 2.013 Q 3.516 1.47 3.22 1.159 A 1 1 0 0 0 3.162 1.103 Q 2.808 0.787 2.14 0.782 L 0.848 0.782 Z M 19.375 1.129 L 18.29 4.122 L 20.465 4.122 L 19.375 1.129 Z M 6.051 3.674 L 8.433 3.674 L 8.433 3.612 Q 8.407 3.153 8.236 2.848 A 1.13 1.13 0 0 0 8.099 2.652 A 0.983 0.983 0 0 0 7.445 2.32 A 1.39 1.39 0 0 0 7.291 2.312 A 1.106 1.106 0 0 0 6.768 2.435 A 1.14 1.14 0 0 0 6.464 2.67 A 1.417 1.417 0 0 0 6.188 3.116 Q 6.114 3.3 6.074 3.522 A 2.741 2.741 0 0 0 6.051 3.674 Z" vector-effect="non-scaling-stroke"/></g><g transform="translate(25, 93)" id="svgGroup" stroke-linecap="round" fill-rule="evenodd" font-size="9pt" stroke="#000" stroke-width="0.25mm" fill="#000" style="stroke:#000;stroke-width:0.25mm;fill:#000"><path d="M 36.36 1.995 L 37.129 1.995 L 37.151 2.522 Q 37.674 1.907 38.562 1.907 A 2.009 2.009 0 0 1 39.073 1.968 A 1.244 1.244 0 0 1 39.92 2.672 A 1.801 1.801 0 0 1 40.537 2.118 A 1.65 1.65 0 0 1 41.067 1.937 A 2.209 2.209 0 0 1 41.436 1.907 A 2.119 2.119 0 0 1 42.08 1.997 Q 43.007 2.292 43.027 3.564 L 43.027 6.75 L 42.214 6.75 L 42.214 3.612 A 1.781 1.781 0 0 0 42.193 3.332 Q 42.17 3.185 42.119 3.067 A 0.758 0.758 0 0 0 41.981 2.85 A 0.68 0.68 0 0 0 41.728 2.682 Q 41.517 2.597 41.2 2.597 A 1.245 1.245 0 0 0 40.834 2.648 A 1.008 1.008 0 0 0 40.447 2.867 A 1.042 1.042 0 0 0 40.133 3.404 A 1.41 1.41 0 0 0 40.1 3.595 L 40.1 6.75 L 39.283 6.75 L 39.283 3.634 A 1.532 1.532 0 0 0 39.234 3.23 Q 39.107 2.768 38.65 2.643 A 1.457 1.457 0 0 0 38.268 2.597 Q 37.494 2.597 37.193 3.234 A 1.459 1.459 0 0 0 37.173 3.278 L 37.173 6.75 L 36.36 6.75 L 36.36 1.995 Z M 70.972 2.202 L 70.124 2.202 A 1.466 1.466 0 0 0 70.074 1.809 A 1.066 1.066 0 0 0 69.754 1.29 A 1.211 1.211 0 0 0 69.285 1.033 Q 69.033 0.958 68.713 0.958 A 2.286 2.286 0 0 0 68.333 0.988 Q 68.131 1.022 67.969 1.095 A 1.101 1.101 0 0 0 67.74 1.233 A 0.892 0.892 0 0 0 67.395 1.887 A 1.267 1.267 0 0 0 67.39 1.995 A 0.806 0.806 0 0 0 67.658 2.6 A 1.134 1.134 0 0 0 67.722 2.656 A 1.562 1.562 0 0 0 67.96 2.813 Q 68.291 2.993 68.851 3.151 A 8.228 8.228 0 0 1 69.316 3.295 Q 69.551 3.377 69.746 3.464 A 3.297 3.297 0 0 1 70.099 3.645 A 2.342 2.342 0 0 1 70.438 3.889 Q 70.628 4.056 70.75 4.248 A 1.45 1.45 0 0 1 70.767 4.276 A 1.498 1.498 0 0 1 70.964 4.832 A 1.948 1.948 0 0 1 70.985 5.124 A 1.606 1.606 0 0 1 70.863 5.76 Q 70.717 6.101 70.399 6.354 A 1.886 1.886 0 0 1 70.378 6.37 Q 69.772 6.838 68.757 6.838 A 3.023 3.023 0 0 1 67.616 6.623 A 2.917 2.917 0 0 1 67.526 6.585 A 2.383 2.383 0 0 1 67.048 6.307 A 1.874 1.874 0 0 1 66.645 5.893 A 1.689 1.689 0 0 1 66.335 4.896 L 67.184 4.896 A 1.261 1.261 0 0 0 67.253 5.323 A 1.074 1.074 0 0 0 67.612 5.812 Q 67.997 6.113 68.613 6.144 A 2.87 2.87 0 0 0 68.757 6.148 A 2.628 2.628 0 0 0 69.144 6.121 Q 69.34 6.092 69.499 6.031 A 1.129 1.129 0 0 0 69.781 5.875 Q 70.137 5.603 70.137 5.133 A 1.074 1.074 0 0 0 70.094 4.822 A 0.816 0.816 0 0 0 69.807 4.406 Q 69.478 4.148 68.612 3.898 Q 67.526 3.586 67.032 3.131 Q 66.538 2.676 66.538 2.008 Q 66.538 1.252 67.142 0.758 A 2.121 2.121 0 0 1 68.032 0.335 A 3.087 3.087 0 0 1 68.713 0.264 A 2.913 2.913 0 0 1 69.373 0.336 A 2.372 2.372 0 0 1 69.888 0.519 A 2.051 2.051 0 0 1 70.42 0.889 A 1.834 1.834 0 0 1 70.688 1.222 A 1.798 1.798 0 0 1 70.972 2.202 Z M 4.078 4.72 L 4.926 4.72 A 3.016 3.016 0 0 1 4.765 5.416 A 2.099 2.099 0 0 1 4.177 6.286 Q 3.546 6.838 2.501 6.838 A 2.553 2.553 0 0 1 1.631 6.696 A 2.194 2.194 0 0 1 0.683 6.025 A 2.789 2.789 0 0 1 0.122 4.901 Q 0.015 4.484 0.002 3.992 A 5.262 5.262 0 0 1 0 3.85 L 0 3.234 A 4.251 4.251 0 0 1 0.07 2.445 A 3.229 3.229 0 0 1 0.319 1.666 A 2.539 2.539 0 0 1 0.774 0.99 A 2.26 2.26 0 0 1 1.222 0.626 A 2.415 2.415 0 0 1 2.248 0.281 A 3.027 3.027 0 0 1 2.575 0.264 A 2.962 2.962 0 0 1 3.281 0.343 A 2.065 2.065 0 0 1 4.21 0.833 A 2.16 2.16 0 0 1 4.805 1.795 A 3.086 3.086 0 0 1 4.926 2.408 L 4.078 2.408 Q 4.009 1.929 3.84 1.616 A 1.223 1.223 0 0 0 3.601 1.301 A 1.207 1.207 0 0 0 3.096 1.024 Q 2.909 0.971 2.686 0.961 A 2.396 2.396 0 0 0 2.575 0.958 A 1.753 1.753 0 0 0 1.997 1.049 A 1.463 1.463 0 0 0 1.307 1.556 A 1.989 1.989 0 0 0 0.993 2.175 Q 0.848 2.636 0.848 3.256 L 0.848 3.876 Q 0.848 4.917 1.283 5.533 A 1.38 1.38 0 0 0 2.282 6.135 A 1.814 1.814 0 0 0 2.501 6.148 A 2.497 2.497 0 0 0 2.908 6.117 Q 3.127 6.08 3.303 6.002 A 1.155 1.155 0 0 0 3.579 5.829 Q 3.955 5.511 4.078 4.72 Z M 116.499 0 L 116.499 2.571 A 1.767 1.767 0 0 1 117.165 2.053 A 1.832 1.832 0 0 1 117.905 1.907 A 1.905 1.905 0 0 1 118.539 2.004 Q 119.381 2.3 119.424 3.506 A 3.668 3.668 0 0 1 119.426 3.608 L 119.426 6.75 L 118.613 6.75 L 118.613 3.604 A 1.837 1.837 0 0 0 118.591 3.324 Q 118.54 3.017 118.378 2.843 Q 118.192 2.645 117.838 2.606 A 1.66 1.66 0 0 0 117.659 2.597 A 1.253 1.253 0 0 0 117.245 2.664 A 1.123 1.123 0 0 0 116.965 2.808 A 1.432 1.432 0 0 0 116.499 3.362 L 116.499 6.75 L 115.686 6.75 L 115.686 0 L 116.499 0 Z M 87.469 6.75 L 85.812 4.548 L 85.302 5.08 L 85.302 6.75 L 84.489 6.75 L 84.489 0 L 85.302 0 L 85.302 4.083 L 85.737 3.56 L 87.218 1.995 L 88.207 1.995 L 86.357 3.981 L 88.422 6.75 L 87.469 6.75 Z M 26.96 3.234 L 26.96 3.924 L 24.275 3.924 L 24.275 6.75 L 23.432 6.75 L 23.432 0.352 L 27.396 0.352 L 27.396 1.046 L 24.275 1.046 L 24.275 3.234 L 26.96 3.234 Z M 113.678 2.522 L 113.717 1.995 L 114.46 1.995 L 114.46 6.636 A 2.511 2.511 0 0 1 114.389 7.249 A 1.738 1.738 0 0 1 113.913 8.09 A 1.834 1.834 0 0 1 112.983 8.57 A 2.671 2.671 0 0 1 112.443 8.622 A 2.446 2.446 0 0 1 111.437 8.402 A 2.003 2.003 0 0 1 111.026 8.161 A 1.563 1.563 0 0 1 110.685 7.8 L 111.107 7.313 A 1.889 1.889 0 0 0 111.541 7.712 A 1.514 1.514 0 0 0 112.386 7.958 A 1.695 1.695 0 0 0 112.763 7.919 Q 113.031 7.858 113.225 7.702 A 1.037 1.037 0 0 0 113.311 7.625 A 1.09 1.09 0 0 0 113.588 7.132 Q 113.635 6.959 113.642 6.752 A 2.134 2.134 0 0 0 113.643 6.684 L 113.643 6.275 A 1.601 1.601 0 0 1 112.591 6.821 A 2.279 2.279 0 0 1 112.311 6.838 A 1.672 1.672 0 0 1 111.556 6.67 Q 111.234 6.51 110.984 6.197 A 2.14 2.14 0 0 1 110.96 6.166 A 2.316 2.316 0 0 1 110.577 5.386 Q 110.443 4.922 110.443 4.333 Q 110.443 3.472 110.752 2.884 A 2.096 2.096 0 0 1 110.958 2.564 Q 111.472 1.907 112.32 1.907 A 1.971 1.971 0 0 1 112.919 1.994 A 1.55 1.55 0 0 1 113.678 2.522 Z M 59.405 1.995 L 60.174 1.995 L 60.201 2.593 Q 60.737 1.918 61.597 1.907 A 2.234 2.234 0 0 1 61.625 1.907 A 1.905 1.905 0 0 1 62.258 2.004 Q 63.1 2.3 63.143 3.506 A 3.668 3.668 0 0 1 63.145 3.608 L 63.145 6.75 L 62.332 6.75 L 62.332 3.604 A 1.837 1.837 0 0 0 62.31 3.324 Q 62.26 3.017 62.097 2.843 Q 61.911 2.645 61.557 2.606 A 1.66 1.66 0 0 0 61.378 2.597 A 1.253 1.253 0 0 0 60.964 2.664 A 1.123 1.123 0 0 0 60.684 2.808 A 1.432 1.432 0 0 0 60.218 3.362 L 60.218 6.75 L 59.405 6.75 L 59.405 1.995 Z M 16.22 6.75 L 16.203 6.28 A 1.526 1.526 0 0 1 15.377 6.775 Q 15.126 6.836 14.829 6.838 A 2.996 2.996 0 0 1 14.81 6.838 A 2.086 2.086 0 0 1 14.35 6.79 Q 13.919 6.693 13.652 6.396 A 1.41 1.41 0 0 1 13.369 5.899 Q 13.252 5.556 13.25 5.089 L 13.25 1.995 L 14.063 1.995 L 14.063 5.067 Q 14.063 6.037 14.77 6.137 A 1.229 1.229 0 0 0 14.941 6.148 A 1.927 1.927 0 0 0 15.392 6.099 Q 15.955 5.964 16.181 5.454 L 16.181 1.995 L 16.994 1.995 L 16.994 6.75 L 16.22 6.75 Z M 82.802 5.251 L 83.571 5.251 A 1.432 1.432 0 0 1 83.372 5.901 A 1.772 1.772 0 0 1 83.29 6.029 A 1.828 1.828 0 0 1 82.68 6.574 A 2.169 2.169 0 0 1 82.597 6.618 A 1.997 1.997 0 0 1 81.681 6.838 A 2.346 2.346 0 0 1 80.984 6.739 A 1.839 1.839 0 0 1 80.137 6.19 A 2.171 2.171 0 0 1 79.673 5.31 Q 79.563 4.909 79.563 4.417 L 79.563 4.28 A 3.24 3.24 0 0 1 79.627 3.624 A 2.57 2.57 0 0 1 79.818 3.045 A 2.008 2.008 0 0 1 80.257 2.431 A 1.892 1.892 0 0 1 80.55 2.206 A 1.943 1.943 0 0 1 81.306 1.934 A 2.529 2.529 0 0 1 81.677 1.907 A 2.196 2.196 0 0 1 82.325 1.999 A 1.786 1.786 0 0 1 83.006 2.386 A 1.693 1.693 0 0 1 83.565 3.535 A 2.239 2.239 0 0 1 83.571 3.63 L 82.802 3.63 Q 82.767 3.168 82.452 2.872 A 1.078 1.078 0 0 0 81.723 2.576 A 1.402 1.402 0 0 0 81.677 2.575 A 1.374 1.374 0 0 0 81.255 2.637 A 1.081 1.081 0 0 0 80.717 3.021 A 1.469 1.469 0 0 0 80.49 3.468 Q 80.424 3.674 80.396 3.923 A 3.514 3.514 0 0 0 80.376 4.311 L 80.376 4.465 Q 80.376 5.287 80.714 5.73 A 1.1 1.1 0 0 0 81.501 6.165 A 1.611 1.611 0 0 0 81.681 6.174 A 1.171 1.171 0 0 0 82.441 5.911 A 1.007 1.007 0 0 0 82.686 5.629 A 0.914 0.914 0 0 0 82.802 5.251 Z M 48.041 6.75 L 47.189 6.75 A 0.632 0.632 0 0 1 47.153 6.66 Q 47.122 6.562 47.097 6.41 A 3.997 3.997 0 0 1 47.074 6.249 Q 46.507 6.838 45.721 6.838 A 2.033 2.033 0 0 1 45.191 6.772 A 1.529 1.529 0 0 1 44.567 6.44 Q 44.117 6.042 44.117 5.432 Q 44.117 4.689 44.681 4.278 Q 45.246 3.867 46.27 3.867 L 47.061 3.867 L 47.061 3.494 A 1.152 1.152 0 0 0 47.025 3.199 A 0.828 0.828 0 0 0 46.806 2.815 Q 46.59 2.6 46.2 2.568 A 1.748 1.748 0 0 0 46.055 2.562 Q 45.62 2.562 45.325 2.782 Q 45.031 3.001 45.031 3.313 L 44.213 3.313 A 1.041 1.041 0 0 1 44.338 2.825 A 1.409 1.409 0 0 1 44.466 2.626 Q 44.719 2.294 45.152 2.101 A 2.249 2.249 0 0 1 45.927 1.913 A 2.669 2.669 0 0 1 46.103 1.907 A 2.65 2.65 0 0 1 46.621 1.955 Q 46.928 2.016 47.167 2.156 A 1.439 1.439 0 0 1 47.391 2.318 A 1.396 1.396 0 0 1 47.844 3.144 A 1.998 1.998 0 0 1 47.874 3.45 L 47.874 5.638 Q 47.874 6.073 47.948 6.39 A 1.707 1.707 0 0 0 48.041 6.68 L 48.041 6.75 Z M 78.667 6.75 L 77.814 6.75 A 0.632 0.632 0 0 1 77.779 6.66 Q 77.747 6.562 77.722 6.41 A 3.997 3.997 0 0 1 77.7 6.249 Q 77.133 6.838 76.346 6.838 A 2.033 2.033 0 0 1 75.817 6.772 A 1.529 1.529 0 0 1 75.193 6.44 Q 74.742 6.042 74.742 5.432 Q 74.742 4.689 75.307 4.278 Q 75.872 3.867 76.896 3.867 L 77.687 3.867 L 77.687 3.494 A 1.152 1.152 0 0 0 77.651 3.199 A 0.828 0.828 0 0 0 77.432 2.815 Q 77.215 2.6 76.825 2.568 A 1.748 1.748 0 0 0 76.68 2.562 Q 76.245 2.562 75.951 2.782 Q 75.656 3.001 75.656 3.313 L 74.839 3.313 A 1.041 1.041 0 0 1 74.964 2.825 A 1.409 1.409 0 0 1 75.092 2.626 Q 75.344 2.294 75.777 2.101 A 2.249 2.249 0 0 1 76.553 1.913 A 2.669 2.669 0 0 1 76.729 1.907 A 2.65 2.65 0 0 1 77.246 1.955 Q 77.553 2.016 77.792 2.156 A 1.439 1.439 0 0 1 78.016 2.318 A 1.396 1.396 0 0 1 78.47 3.144 A 1.998 1.998 0 0 1 78.5 3.45 L 78.5 5.638 Q 78.5 6.073 78.573 6.39 A 1.707 1.707 0 0 0 78.667 6.68 L 78.667 6.75 Z M 18.031 4.395 L 18.031 4.333 A 3.762 3.762 0 0 1 18.098 3.602 Q 18.185 3.16 18.388 2.812 A 2.148 2.148 0 0 1 18.549 2.573 Q 19.068 1.907 19.907 1.907 A 1.964 1.964 0 0 1 20.505 1.994 A 1.559 1.559 0 0 1 21.23 2.479 L 21.23 0 L 22.043 0 L 22.043 6.75 L 21.296 6.75 L 21.256 6.24 Q 20.769 6.838 19.898 6.838 A 1.6 1.6 0 0 1 18.678 6.31 A 2.078 2.078 0 0 1 18.552 6.161 A 2.405 2.405 0 0 1 18.127 5.255 Q 18.043 4.912 18.032 4.51 A 4.425 4.425 0 0 1 18.031 4.395 Z M 104.585 0.352 L 104.585 6.06 L 107.618 6.06 L 107.618 6.75 L 103.737 6.75 L 103.737 0.352 L 104.585 0.352 Z M 94.623 0.352 L 94.623 4.601 L 95.511 4.601 L 95.511 5.265 L 94.623 5.265 L 94.623 6.75 L 93.806 6.75 L 93.806 5.265 L 90.892 5.265 L 90.892 4.786 L 93.757 0.352 L 94.623 0.352 Z M 100.021 2.592 A 1.544 1.544 0 0 0 100.125 2.021 A 2.226 2.226 0 0 0 100.104 1.707 A 1.566 1.566 0 0 0 99.604 0.738 A 1.754 1.754 0 0 0 98.838 0.333 A 2.443 2.443 0 0 0 98.24 0.264 A 2.539 2.539 0 0 0 97.73 0.312 A 1.767 1.767 0 0 0 96.873 0.738 Q 96.355 1.213 96.355 2.021 A 1.808 1.808 0 0 0 96.355 2.058 A 1.499 1.499 0 0 0 96.601 2.87 A 1.626 1.626 0 0 0 96.763 3.077 A 1.726 1.726 0 0 0 97.273 3.454 A 2.119 2.119 0 0 0 97.173 3.5 A 1.738 1.738 0 0 0 96.489 4.087 A 1.629 1.629 0 0 0 96.205 5.023 A 2.272 2.272 0 0 0 96.215 5.237 A 1.63 1.63 0 0 0 96.761 6.344 A 1.895 1.895 0 0 0 97.612 6.771 A 2.797 2.797 0 0 0 98.24 6.838 A 2.796 2.796 0 0 0 98.839 6.777 A 1.925 1.925 0 0 0 99.714 6.346 A 1.578 1.578 0 0 0 100.189 5.62 A 1.989 1.989 0 0 0 100.274 5.023 A 1.581 1.581 0 0 0 99.982 4.087 Q 99.69 3.674 99.189 3.458 Q 99.62 3.248 99.872 2.874 A 1.449 1.449 0 0 0 100.021 2.592 Z M 49.439 0.844 L 50.252 0.844 L 50.252 1.995 L 51.139 1.995 L 51.139 2.624 L 50.252 2.624 L 50.252 5.572 Q 50.252 5.858 50.37 6.001 Q 50.489 6.144 50.774 6.144 A 1.046 1.046 0 0 0 50.872 6.138 Q 50.975 6.129 51.114 6.101 A 4.024 4.024 0 0 0 51.161 6.091 L 51.161 6.75 A 2.463 2.463 0 0 1 50.728 6.829 A 2.157 2.157 0 0 1 50.537 6.838 Q 50.09 6.838 49.823 6.616 A 0.856 0.856 0 0 1 49.715 6.508 Q 49.488 6.238 49.447 5.78 A 2.351 2.351 0 0 1 49.439 5.572 L 49.439 2.624 L 48.573 2.624 L 48.573 1.995 L 49.439 1.995 L 49.439 0.844 Z M 72.229 0.844 L 73.042 0.844 L 73.042 1.995 L 73.929 1.995 L 73.929 2.624 L 73.042 2.624 L 73.042 5.572 Q 73.042 5.858 73.16 6.001 Q 73.279 6.144 73.565 6.144 A 1.046 1.046 0 0 0 73.662 6.138 Q 73.765 6.129 73.904 6.101 A 4.024 4.024 0 0 0 73.951 6.091 L 73.951 6.75 A 2.463 2.463 0 0 1 73.518 6.829 A 2.157 2.157 0 0 1 73.327 6.838 Q 72.88 6.838 72.613 6.616 A 0.856 0.856 0 0 1 72.505 6.508 Q 72.278 6.238 72.237 5.78 A 2.351 2.351 0 0 1 72.229 5.572 L 72.229 2.624 L 71.363 2.624 L 71.363 1.995 L 72.229 1.995 L 72.229 0.844 Z M 120.933 0.844 L 121.746 0.844 L 121.746 1.995 L 122.634 1.995 L 122.634 2.624 L 121.746 2.624 L 121.746 5.572 Q 121.746 5.858 121.865 6.001 Q 121.983 6.144 122.269 6.144 A 1.046 1.046 0 0 0 122.367 6.138 Q 122.469 6.129 122.609 6.101 A 4.024 4.024 0 0 0 122.656 6.091 L 122.656 6.75 A 2.463 2.463 0 0 1 122.223 6.829 A 2.157 2.157 0 0 1 122.032 6.838 Q 121.585 6.838 121.318 6.616 A 0.856 0.856 0 0 1 121.21 6.508 Q 120.983 6.238 120.942 5.78 A 2.351 2.351 0 0 1 120.933 5.572 L 120.933 2.624 L 120.067 2.624 L 120.067 1.995 L 120.933 1.995 L 120.933 0.844 Z M 6.834 0 L 6.834 6.75 L 6.021 6.75 L 6.021 0 L 6.834 0 Z M 7.919 4.386 L 7.919 4.329 A 3.057 3.057 0 0 1 8.006 3.587 A 2.573 2.573 0 0 1 8.194 3.072 A 2.16 2.16 0 0 1 8.608 2.486 A 1.957 1.957 0 0 1 8.958 2.21 A 2.036 2.036 0 0 1 9.903 1.913 A 2.491 2.491 0 0 1 10.077 1.907 A 2.277 2.277 0 0 1 10.83 2.027 A 1.937 1.937 0 0 1 11.648 2.58 A 2.29 2.29 0 0 1 12.167 3.608 A 3.373 3.373 0 0 1 12.248 4.368 L 12.248 4.425 A 3.114 3.114 0 0 1 12.168 5.142 A 2.577 2.577 0 0 1 11.982 5.671 A 2.056 2.056 0 0 1 11.454 6.361 A 2.001 2.001 0 0 1 11.221 6.53 A 2.045 2.045 0 0 1 10.302 6.829 A 2.529 2.529 0 0 1 10.085 6.838 A 2.262 2.262 0 0 1 9.335 6.718 A 1.938 1.938 0 0 1 8.519 6.166 A 2.297 2.297 0 0 1 7.993 5.111 A 3.357 3.357 0 0 1 7.919 4.386 Z M 27.971 4.386 L 27.971 4.329 A 3.057 3.057 0 0 1 28.058 3.587 A 2.573 2.573 0 0 1 28.246 3.072 A 2.16 2.16 0 0 1 28.661 2.486 A 1.957 1.957 0 0 1 29.011 2.21 A 2.036 2.036 0 0 1 29.955 1.913 A 2.491 2.491 0 0 1 30.129 1.907 A 2.277 2.277 0 0 1 30.882 2.027 A 1.937 1.937 0 0 1 31.7 2.58 A 2.29 2.29 0 0 1 32.219 3.608 A 3.373 3.373 0 0 1 32.3 4.368 L 32.3 4.425 A 3.114 3.114 0 0 1 32.22 5.142 A 2.577 2.577 0 0 1 32.034 5.671 A 2.056 2.056 0 0 1 31.507 6.361 A 2.001 2.001 0 0 1 31.274 6.53 A 2.045 2.045 0 0 1 30.354 6.829 A 2.529 2.529 0 0 1 30.138 6.838 A 2.262 2.262 0 0 1 29.387 6.718 A 1.938 1.938 0 0 1 28.571 6.166 A 2.297 2.297 0 0 1 28.045 5.111 A 3.357 3.357 0 0 1 27.971 4.386 Z M 54.057 4.386 L 54.057 4.329 A 3.057 3.057 0 0 1 54.144 3.587 A 2.573 2.573 0 0 1 54.332 3.072 A 2.16 2.16 0 0 1 54.747 2.486 A 1.957 1.957 0 0 1 55.096 2.21 A 2.036 2.036 0 0 1 56.041 1.913 A 2.491 2.491 0 0 1 56.215 1.907 A 2.277 2.277 0 0 1 56.968 2.027 A 1.937 1.937 0 0 1 57.786 2.58 A 2.29 2.29 0 0 1 58.305 3.608 A 3.373 3.373 0 0 1 58.386 4.368 L 58.386 4.425 A 3.114 3.114 0 0 1 58.306 5.142 A 2.577 2.577 0 0 1 58.12 5.671 A 2.056 2.056 0 0 1 57.593 6.361 A 2.001 2.001 0 0 1 57.36 6.53 A 2.045 2.045 0 0 1 56.44 6.829 A 2.529 2.529 0 0 1 56.224 6.838 A 2.262 2.262 0 0 1 55.473 6.718 A 1.938 1.938 0 0 1 54.657 6.166 A 2.297 2.297 0 0 1 54.131 5.111 A 3.357 3.357 0 0 1 54.057 4.386 Z M 35.618 1.969 L 35.618 2.725 A 2.251 2.251 0 0 0 35.375 2.698 A 2.782 2.782 0 0 0 35.218 2.694 Q 34.44 2.694 34.148 3.338 A 1.445 1.445 0 0 0 34.132 3.375 L 34.132 6.75 L 33.319 6.75 L 33.319 1.995 L 34.11 1.995 L 34.124 2.544 Q 34.504 1.938 35.187 1.909 A 1.636 1.636 0 0 1 35.257 1.907 Q 35.495 1.907 35.618 1.969 Z M 52.972 1.995 L 52.972 6.75 L 52.159 6.75 L 52.159 1.995 L 52.972 1.995 Z M 109.336 1.995 L 109.336 6.75 L 108.523 6.75 L 108.523 1.995 L 109.336 1.995 Z M 8.736 4.425 A 2.772 2.772 0 0 0 8.784 4.954 Q 8.844 5.264 8.981 5.51 A 1.545 1.545 0 0 0 9.103 5.695 Q 9.47 6.174 10.085 6.174 A 1.269 1.269 0 0 0 10.575 6.083 Q 10.854 5.967 11.057 5.706 A 1.471 1.471 0 0 0 11.07 5.689 A 1.648 1.648 0 0 0 11.325 5.171 Q 11.393 4.945 11.419 4.672 A 3.655 3.655 0 0 0 11.435 4.329 A 2.687 2.687 0 0 0 11.383 3.789 Q 11.316 3.459 11.158 3.2 A 1.586 1.586 0 0 0 11.063 3.061 A 1.231 1.231 0 0 0 10.648 2.705 Q 10.395 2.575 10.077 2.575 Q 9.487 2.575 9.121 3.035 A 1.515 1.515 0 0 0 9.106 3.054 A 1.589 1.589 0 0 0 8.853 3.552 Q 8.784 3.772 8.756 4.039 A 3.676 3.676 0 0 0 8.736 4.425 Z M 28.789 4.425 A 2.772 2.772 0 0 0 28.836 4.954 Q 28.896 5.264 29.034 5.51 A 1.545 1.545 0 0 0 29.156 5.695 Q 29.523 6.174 30.138 6.174 A 1.269 1.269 0 0 0 30.627 6.083 Q 30.907 5.967 31.109 5.706 A 1.471 1.471 0 0 0 31.122 5.689 A 1.648 1.648 0 0 0 31.377 5.171 Q 31.446 4.945 31.471 4.672 A 3.655 3.655 0 0 0 31.487 4.329 A 2.687 2.687 0 0 0 31.436 3.789 Q 31.368 3.459 31.211 3.2 A 1.586 1.586 0 0 0 31.116 3.061 A 1.231 1.231 0 0 0 30.7 2.705 Q 30.447 2.575 30.129 2.575 Q 29.539 2.575 29.173 3.035 A 1.515 1.515 0 0 0 29.158 3.054 A 1.589 1.589 0 0 0 28.906 3.552 Q 28.836 3.772 28.808 4.039 A 3.676 3.676 0 0 0 28.789 4.425 Z M 54.875 4.425 A 2.772 2.772 0 0 0 54.922 4.954 Q 54.982 5.264 55.12 5.51 A 1.545 1.545 0 0 0 55.242 5.695 Q 55.608 6.174 56.224 6.174 A 1.269 1.269 0 0 0 56.713 6.083 Q 56.992 5.967 57.195 5.706 A 1.471 1.471 0 0 0 57.208 5.689 A 1.648 1.648 0 0 0 57.463 5.171 Q 57.532 4.945 57.557 4.672 A 3.655 3.655 0 0 0 57.573 4.329 A 2.687 2.687 0 0 0 57.522 3.789 Q 57.454 3.459 57.297 3.2 A 1.586 1.586 0 0 0 57.201 3.061 A 1.231 1.231 0 0 0 56.786 2.705 Q 56.533 2.575 56.215 2.575 Q 55.625 2.575 55.259 3.035 A 1.515 1.515 0 0 0 55.244 3.054 A 1.589 1.589 0 0 0 54.992 3.552 Q 54.922 3.772 54.894 4.039 A 3.676 3.676 0 0 0 54.875 4.425 Z M 21.23 5.454 L 21.23 3.27 A 1.375 1.375 0 0 0 20.918 2.874 Q 20.594 2.597 20.109 2.597 A 1.238 1.238 0 0 0 19.683 2.668 A 1.068 1.068 0 0 0 19.178 3.059 A 1.51 1.51 0 0 0 18.969 3.484 Q 18.903 3.689 18.872 3.939 A 3.955 3.955 0 0 0 18.844 4.425 A 3.162 3.162 0 0 0 18.88 4.918 Q 18.921 5.178 19.009 5.389 A 1.474 1.474 0 0 0 19.178 5.691 A 1.06 1.06 0 0 0 19.94 6.139 A 1.391 1.391 0 0 0 20.101 6.148 Q 20.874 6.148 21.23 5.454 Z M 113.643 5.449 L 113.643 3.278 A 1.439 1.439 0 0 0 113.342 2.891 Q 113.038 2.62 112.598 2.599 A 1.578 1.578 0 0 0 112.522 2.597 Q 111.93 2.597 111.596 3.056 A 1.51 1.51 0 0 0 111.386 3.484 Q 111.32 3.689 111.289 3.939 A 3.955 3.955 0 0 0 111.261 4.425 Q 111.261 5.229 111.59 5.689 Q 111.92 6.148 112.513 6.148 A 1.32 1.32 0 0 0 113.023 6.054 Q 113.415 5.891 113.643 5.449 Z M 93.709 1.639 L 91.815 4.601 L 93.806 4.601 L 93.806 1.463 L 93.709 1.639 Z M 99.461 5.005 A 1.375 1.375 0 0 0 99.402 4.592 A 1.109 1.109 0 0 0 99.121 4.131 A 1.148 1.148 0 0 0 98.45 3.807 A 1.593 1.593 0 0 0 98.231 3.792 A 1.466 1.466 0 0 0 97.842 3.841 A 1.086 1.086 0 0 0 97.35 4.126 A 1.123 1.123 0 0 0 97.036 4.762 A 1.572 1.572 0 0 0 97.018 5.005 A 1.48 1.48 0 0 0 97.06 5.367 A 1.019 1.019 0 0 0 97.341 5.862 Q 97.647 6.158 98.18 6.173 A 2.053 2.053 0 0 0 98.24 6.174 Q 98.733 6.174 99.043 5.94 A 1.018 1.018 0 0 0 99.136 5.86 A 1.041 1.041 0 0 0 99.436 5.292 A 1.518 1.518 0 0 0 99.461 5.005 Z M 98.24 0.932 A 1.259 1.259 0 0 0 97.887 0.979 A 0.973 0.973 0 0 0 97.464 1.228 Q 97.168 1.525 97.168 2.035 A 1.325 1.325 0 0 0 97.212 2.387 A 0.994 0.994 0 0 0 97.46 2.823 A 0.974 0.974 0 0 0 98.022 3.108 A 1.382 1.382 0 0 0 98.24 3.125 A 1.279 1.279 0 0 0 98.585 3.08 A 0.952 0.952 0 0 0 99.02 2.823 A 1.018 1.018 0 0 0 99.295 2.26 A 1.426 1.426 0 0 0 99.312 2.035 A 1.282 1.282 0 0 0 99.262 1.668 A 1.013 1.013 0 0 0 99.009 1.239 Q 98.706 0.932 98.24 0.932 Z M 47.061 5.418 L 47.061 4.443 L 46.424 4.443 Q 44.93 4.443 44.93 5.317 Q 44.93 5.7 45.185 5.915 A 0.893 0.893 0 0 0 45.598 6.108 A 1.259 1.259 0 0 0 45.839 6.13 A 1.429 1.429 0 0 0 46.565 5.933 A 1.335 1.335 0 0 0 46.86 5.705 A 1.108 1.108 0 0 0 47.061 5.418 Z M 77.687 5.418 L 77.687 4.443 L 77.049 4.443 Q 75.555 4.443 75.555 5.317 Q 75.555 5.7 75.81 5.915 A 0.893 0.893 0 0 0 76.224 6.108 A 1.259 1.259 0 0 0 76.465 6.13 A 1.429 1.429 0 0 0 77.19 5.933 A 1.335 1.335 0 0 0 77.486 5.705 A 1.108 1.108 0 0 0 77.687 5.418 Z M 52.093 0.734 Q 52.093 0.536 52.214 0.4 Q 52.326 0.274 52.537 0.264 A 0.783 0.783 0 0 1 52.572 0.264 Q 52.809 0.264 52.932 0.4 A 0.474 0.474 0 0 1 53.054 0.703 A 0.614 0.614 0 0 1 53.055 0.734 A 0.523 0.523 0 0 1 53.03 0.9 A 0.442 0.442 0 0 1 52.932 1.063 Q 52.82 1.184 52.612 1.194 A 0.803 0.803 0 0 1 52.572 1.195 Q 52.4 1.195 52.289 1.126 A 0.362 0.362 0 0 1 52.214 1.063 A 0.456 0.456 0 0 1 52.095 0.788 A 0.605 0.605 0 0 1 52.093 0.734 Z M 108.457 0.734 Q 108.457 0.536 108.578 0.4 Q 108.69 0.274 108.902 0.264 A 0.783 0.783 0 0 1 108.936 0.264 Q 109.173 0.264 109.296 0.4 A 0.474 0.474 0 0 1 109.419 0.703 A 0.614 0.614 0 0 1 109.419 0.734 A 0.523 0.523 0 0 1 109.394 0.9 A 0.442 0.442 0 0 1 109.296 1.063 Q 109.184 1.184 108.976 1.194 A 0.803 0.803 0 0 1 108.936 1.195 Q 108.764 1.195 108.653 1.126 A 0.362 0.362 0 0 1 108.578 1.063 A 0.456 0.456 0 0 1 108.459 0.788 A 0.605 0.605 0 0 1 108.457 0.734 Z" vector-effect="non-scaling-stroke"/></g>
</svgversion="1.0" encoding="UTF-8"?>
<svg width="48px" height="48px" viewBox="0 0 48 48" version="1.1" xmlns="http://www.w3.org/2000/svg" xmlns:xlink="http://www.w3.org/1999/xlink">
    <title>Icon-Resource/Managment-Governance/Res_AWS-CloudFormation_Stack_48_Light</title>
    <g id="Icon-Resource/Managment-Governance/Res_AWS-CloudFormation_Stack_48" stroke="none" stroke-width="1" fill="none" fill-rule="evenodd">
        <path transform="translate(12.000000, 8.000000), scale(.65)" d="M2,15.353 L45.92,15.353 L45.92,2 L2,2 L2,15.353 Z M4,13.354 L43.92,13.354 L43.92,4 L4,4 L4,13.354 Z M24.706,30.201 L45.92,30.201 L45.92,16.847 L24.706,16.847 L24.706,30.201 Z M26.706,28.2 L43.92,28.2 L43.92,18.847 L26.706,18.847 L26.706,28.2 Z M2,30.201 L23.213,30.201 L23.213,16.847 L2,16.847 L2,30.201 Z M4,28.2 L21.213,28.2 L21.213,18.847 L4,18.847 L4,28.2 Z M32.567,45.047 L45.92,45.047 L45.92,31.694 L32.567,31.694 L32.567,45.047 Z M34.566,43.047 L43.92,43.047 L43.92,33.693 L34.566,33.693 L34.566,43.047 Z M16.847,45.047 L31.073,45.047 L31.073,31.694 L16.847,31.694 L16.847,45.047 Z M18.847,43.047 L29.074,43.047 L29.074,33.693 L18.847,33.693 L18.847,43.047 Z M2,45.047 L15.352,45.047 L15.352,31.694 L2,31.694 L2,45.047 Z M4,43.047 L13.353,43.047 L13.353,33.693 L4,33.693 L4,43.047 Z" id="AWS-CloudFormation_stack_Resource-Icon_light-bg" fill="#000000"></path>
    </g><g transform="translate(25, 83)" id="svgGroup" stroke-linecap="round" fill-rule="evenodd" font-size="9pt" stroke="#000" stroke-width="0.25mm" fill="#000" style="stroke:#000;stroke-width:0.25mm;fill:#000"><path d="M 23.12 0.088 L 24.13 4.469 L 24.253 5.313 L 24.434 4.553 L 25.699 0.088 L 26.411 0.088 L 27.646 4.553 L 27.822 5.326 L 27.958 4.465 L 28.951 0.088 L 29.799 0.088 L 28.248 6.486 L 27.479 6.486 L 26.161 1.824 L 26.06 1.336 L 25.958 1.824 L 24.592 6.486 L 23.823 6.486 L 22.276 0.088 L 23.12 0.088 Z M 34.98 1.938 L 34.132 1.938 A 1.466 1.466 0 0 0 34.083 1.546 A 1.066 1.066 0 0 0 33.763 1.026 A 1.211 1.211 0 0 0 33.294 0.77 Q 33.042 0.694 32.722 0.694 A 2.286 2.286 0 0 0 32.342 0.724 Q 32.14 0.758 31.977 0.831 A 1.101 1.101 0 0 0 31.748 0.969 A 0.892 0.892 0 0 0 31.403 1.624 A 1.267 1.267 0 0 0 31.399 1.732 A 0.806 0.806 0 0 0 31.667 2.337 A 1.134 1.134 0 0 0 31.731 2.393 A 1.562 1.562 0 0 0 31.969 2.549 Q 32.299 2.73 32.86 2.887 A 8.228 8.228 0 0 1 33.325 3.032 Q 33.56 3.113 33.754 3.2 A 3.297 3.297 0 0 1 34.108 3.382 A 2.342 2.342 0 0 1 34.447 3.626 Q 34.637 3.792 34.759 3.985 A 1.45 1.45 0 0 1 34.776 4.012 A 1.498 1.498 0 0 1 34.972 4.568 A 1.948 1.948 0 0 1 34.994 4.86 A 1.606 1.606 0 0 1 34.871 5.497 Q 34.726 5.838 34.408 6.09 A 1.886 1.886 0 0 1 34.387 6.106 Q 33.781 6.574 32.766 6.574 A 3.023 3.023 0 0 1 31.625 6.36 A 2.917 2.917 0 0 1 31.535 6.322 A 2.383 2.383 0 0 1 31.057 6.044 A 1.874 1.874 0 0 1 30.654 5.629 A 1.689 1.689 0 0 1 30.344 4.632 L 31.192 4.632 A 1.261 1.261 0 0 0 31.262 5.059 A 1.074 1.074 0 0 0 31.621 5.548 Q 32.005 5.85 32.622 5.881 A 2.87 2.87 0 0 0 32.766 5.884 A 2.628 2.628 0 0 0 33.153 5.858 Q 33.349 5.828 33.508 5.767 A 1.129 1.129 0 0 0 33.79 5.612 Q 34.146 5.339 34.146 4.869 A 1.074 1.074 0 0 0 34.103 4.559 A 0.816 0.816 0 0 0 33.816 4.142 Q 33.486 3.885 32.621 3.634 Q 31.535 3.322 31.041 2.868 Q 30.546 2.413 30.546 1.745 Q 30.546 0.989 31.151 0.494 A 2.121 2.121 0 0 1 32.041 0.071 A 3.087 3.087 0 0 1 32.722 0 A 2.913 2.913 0 0 1 33.382 0.072 A 2.372 2.372 0 0 1 33.897 0.255 A 2.051 2.051 0 0 1 34.428 0.626 A 1.834 1.834 0 0 1 34.697 0.958 A 1.798 1.798 0 0 1 34.98 1.938 Z M 3.74 6.486 L 2.351 3.898 L 0.848 3.898 L 0.848 6.486 L 0 6.486 L 0 0.088 L 2.118 0.088 A 3.809 3.809 0 0 1 2.76 0.138 Q 3.102 0.197 3.376 0.324 A 1.789 1.789 0 0 1 3.781 0.58 A 1.588 1.588 0 0 1 4.307 1.469 A 2.453 2.453 0 0 1 4.364 2.013 A 1.864 1.864 0 0 1 4.273 2.604 A 1.64 1.64 0 0 1 4.041 3.054 A 1.849 1.849 0 0 1 3.382 3.611 A 2.342 2.342 0 0 1 3.142 3.718 L 4.645 6.434 L 4.645 6.486 L 3.74 6.486 Z M 13.724 3.129 L 12.907 3.129 Q 12.907 2.795 12.623 2.553 Q 12.34 2.312 11.909 2.312 Q 11.465 2.312 11.215 2.505 A 0.653 0.653 0 0 0 11.04 2.704 Q 10.967 2.835 10.964 3 A 0.771 0.771 0 0 0 10.964 3.01 A 0.588 0.588 0 0 0 10.994 3.203 A 0.48 0.48 0 0 0 11.197 3.454 A 1.093 1.093 0 0 0 11.348 3.533 Q 11.512 3.605 11.767 3.673 A 6.581 6.581 0 0 0 12.039 3.74 A 6.318 6.318 0 0 1 12.446 3.845 Q 12.783 3.944 13.025 4.065 A 1.901 1.901 0 0 1 13.281 4.218 Q 13.418 4.315 13.516 4.429 A 1.06 1.06 0 0 1 13.586 4.52 A 1.024 1.024 0 0 1 13.748 4.927 A 1.388 1.388 0 0 1 13.768 5.168 Q 13.768 5.805 13.258 6.19 Q 12.776 6.554 12.022 6.573 A 3.337 3.337 0 0 1 11.936 6.574 A 2.746 2.746 0 0 1 11.401 6.525 A 2.124 2.124 0 0 1 10.925 6.372 A 1.771 1.771 0 0 1 10.491 6.094 A 1.54 1.54 0 0 1 10.237 5.807 Q 9.989 5.445 9.989 5.023 L 10.802 5.023 A 0.932 0.932 0 0 0 10.875 5.348 A 0.827 0.827 0 0 0 11.129 5.671 A 1.072 1.072 0 0 0 11.531 5.864 Q 11.686 5.903 11.867 5.91 A 2.013 2.013 0 0 0 11.936 5.911 A 1.863 1.863 0 0 0 12.231 5.889 Q 12.393 5.863 12.524 5.806 A 0.941 0.941 0 0 0 12.676 5.724 A 0.689 0.689 0 0 0 12.841 5.574 A 0.554 0.554 0 0 0 12.955 5.225 A 0.698 0.698 0 0 0 12.919 4.994 A 0.581 0.581 0 0 0 12.707 4.713 A 1.05 1.05 0 0 0 12.538 4.615 Q 12.349 4.524 12.054 4.449 A 5.392 5.392 0 0 0 11.841 4.399 A 6.342 6.342 0 0 1 11.48 4.311 Q 11.11 4.209 10.861 4.083 Q 10.562 3.93 10.392 3.731 A 1.017 1.017 0 0 1 10.325 3.643 Q 10.151 3.388 10.151 3.037 A 1.206 1.206 0 0 1 10.55 2.132 A 1.694 1.694 0 0 1 10.646 2.048 A 1.752 1.752 0 0 1 11.429 1.688 A 2.471 2.471 0 0 1 11.909 1.644 A 2.559 2.559 0 0 1 12.473 1.702 A 1.757 1.757 0 0 1 13.221 2.061 Q 13.724 2.479 13.724 3.129 Z M 21.327 6.486 L 20.716 4.816 L 18.035 4.816 L 17.433 6.486 L 16.563 6.486 L 19.006 0.088 L 19.745 0.088 L 22.192 6.486 L 21.327 6.486 Z M 5.212 4.241 L 5.212 4.091 A 3.17 3.17 0 0 1 5.288 3.382 A 2.581 2.581 0 0 1 5.482 2.828 A 2.191 2.191 0 0 1 5.93 2.202 A 2.033 2.033 0 0 1 6.238 1.958 Q 6.724 1.644 7.291 1.644 A 2.254 2.254 0 0 1 7.904 1.723 A 1.639 1.639 0 0 1 8.732 2.254 Q 9.246 2.865 9.246 4.003 L 9.246 4.342 L 6.025 4.342 A 2.111 2.111 0 0 0 6.096 4.85 A 1.516 1.516 0 0 0 6.436 5.478 A 1.282 1.282 0 0 0 7.37 5.909 A 1.652 1.652 0 0 0 7.436 5.911 A 1.763 1.763 0 0 0 7.764 5.882 Q 7.988 5.839 8.165 5.735 A 1.827 1.827 0 0 0 8.674 5.287 A 2.068 2.068 0 0 0 8.688 5.269 L 9.185 5.656 A 1.926 1.926 0 0 1 7.785 6.547 A 2.749 2.749 0 0 1 7.392 6.574 A 2.394 2.394 0 0 1 6.64 6.461 A 1.974 1.974 0 0 1 5.818 5.939 Q 5.212 5.304 5.212 4.241 Z M 0.848 0.782 L 0.848 3.208 L 2.145 3.208 Q 2.685 3.208 3.035 2.968 A 1.174 1.174 0 0 0 3.144 2.883 A 1.069 1.069 0 0 0 3.51 2.146 A 1.486 1.486 0 0 0 3.516 2.013 Q 3.516 1.47 3.22 1.159 A 1 1 0 0 0 3.162 1.103 Q 2.808 0.787 2.14 0.782 L 0.848 0.782 Z M 19.375 1.129 L 18.29 4.122 L 20.465 4.122 L 19.375 1.129 Z M 6.051 3.674 L 8.433 3.674 L 8.433 3.612 Q 8.407 3.153 8.236 2.848 A 1.13 1.13 0 0 0 8.099 2.652 A 0.983 0.983 0 0 0 7.445 2.32 A 1.39 1.39 0 0 0 7.291 2.312 A 1.106 1.106 0 0 0 6.768 2.435 A 1.14 1.14 0 0 0 6.464 2.67 A 1.417 1.417 0 0 0 6.188 3.116 Q 6.114 3.3 6.074 3.522 A 2.741 2.741 0 0 0 6.051 3.674 Z" vector-effect="non-scaling-stroke"/></g><g transform="translate(25, 93)" id="svgGroup" stroke-linecap="round" fill-rule="evenodd" font-size="9pt" stroke="#000" stroke-width="0.25mm" fill="#000" style="stroke:#000;stroke-width:0.25mm;fill:#000"><path d="M 36.36 1.995 L 37.129 1.995 L 37.151 2.522 Q 37.674 1.907 38.562 1.907 A 2.009 2.009 0 0 1 39.073 1.968 A 1.244 1.244 0 0 1 39.92 2.672 A 1.801 1.801 0 0 1 40.537 2.118 A 1.65 1.65 0 0 1 41.067 1.937 A 2.209 2.209 0 0 1 41.436 1.907 A 2.119 2.119 0 0 1 42.08 1.997 Q 43.007 2.292 43.027 3.564 L 43.027 6.75 L 42.214 6.75 L 42.214 3.612 A 1.781 1.781 0 0 0 42.193 3.332 Q 42.17 3.185 42.119 3.067 A 0.758 0.758 0 0 0 41.981 2.85 A 0.68 0.68 0 0 0 41.728 2.682 Q 41.517 2.597 41.2 2.597 A 1.245 1.245 0 0 0 40.834 2.648 A 1.008 1.008 0 0 0 40.447 2.867 A 1.042 1.042 0 0 0 40.133 3.404 A 1.41 1.41 0 0 0 40.1 3.595 L 40.1 6.75 L 39.283 6.75 L 39.283 3.634 A 1.532 1.532 0 0 0 39.234 3.23 Q 39.107 2.768 38.65 2.643 A 1.457 1.457 0 0 0 38.268 2.597 Q 37.494 2.597 37.193 3.234 A 1.459 1.459 0 0 0 37.173 3.278 L 37.173 6.75 L 36.36 6.75 L 36.36 1.995 Z M 70.972 2.202 L 70.124 2.202 A 1.466 1.466 0 0 0 70.074 1.809 A 1.066 1.066 0 0 0 69.754 1.29 A 1.211 1.211 0 0 0 69.285 1.033 Q 69.033 0.958 68.713 0.958 A 2.286 2.286 0 0 0 68.333 0.988 Q 68.131 1.022 67.969 1.095 A 1.101 1.101 0 0 0 67.74 1.233 A 0.892 0.892 0 0 0 67.395 1.887 A 1.267 1.267 0 0 0 67.39 1.995 A 0.806 0.806 0 0 0 67.658 2.6 A 1.134 1.134 0 0 0 67.722 2.656 A 1.562 1.562 0 0 0 67.96 2.813 Q 68.291 2.993 68.851 3.151 A 8.228 8.228 0 0 1 69.316 3.295 Q 69.551 3.377 69.746 3.464 A 3.297 3.297 0 0 1 70.099 3.645 A 2.342 2.342 0 0 1 70.438 3.889 Q 70.628 4.056 70.75 4.248 A 1.45 1.45 0 0 1 70.767 4.276 A 1.498 1.498 0 0 1 70.964 4.832 A 1.948 1.948 0 0 1 70.985 5.124 A 1.606 1.606 0 0 1 70.863 5.76 Q 70.717 6.101 70.399 6.354 A 1.886 1.886 0 0 1 70.378 6.37 Q 69.772 6.838 68.757 6.838 A 3.023 3.023 0 0 1 67.616 6.623 A 2.917 2.917 0 0 1 67.526 6.585 A 2.383 2.383 0 0 1 67.048 6.307 A 1.874 1.874 0 0 1 66.645 5.893 A 1.689 1.689 0 0 1 66.335 4.896 L 67.184 4.896 A 1.261 1.261 0 0 0 67.253 5.323 A 1.074 1.074 0 0 0 67.612 5.812 Q 67.997 6.113 68.613 6.144 A 2.87 2.87 0 0 0 68.757 6.148 A 2.628 2.628 0 0 0 69.144 6.121 Q 69.34 6.092 69.499 6.031 A 1.129 1.129 0 0 0 69.781 5.875 Q 70.137 5.603 70.137 5.133 A 1.074 1.074 0 0 0 70.094 4.822 A 0.816 0.816 0 0 0 69.807 4.406 Q 69.478 4.148 68.612 3.898 Q 67.526 3.586 67.032 3.131 Q 66.538 2.676 66.538 2.008 Q 66.538 1.252 67.142 0.758 A 2.121 2.121 0 0 1 68.032 0.335 A 3.087 3.087 0 0 1 68.713 0.264 A 2.913 2.913 0 0 1 69.373 0.336 A 2.372 2.372 0 0 1 69.888 0.519 A 2.051 2.051 0 0 1 70.42 0.889 A 1.834 1.834 0 0 1 70.688 1.222 A 1.798 1.798 0 0 1 70.972 2.202 Z M 4.078 4.72 L 4.926 4.72 A 3.016 3.016 0 0 1 4.765 5.416 A 2.099 2.099 0 0 1 4.177 6.286 Q 3.546 6.838 2.501 6.838 A 2.553 2.553 0 0 1 1.631 6.696 A 2.194 2.194 0 0 1 0.683 6.025 A 2.789 2.789 0 0 1 0.122 4.901 Q 0.015 4.484 0.002 3.992 A 5.262 5.262 0 0 1 0 3.85 L 0 3.234 A 4.251 4.251 0 0 1 0.07 2.445 A 3.229 3.229 0 0 1 0.319 1.666 A 2.539 2.539 0 0 1 0.774 0.99 A 2.26 2.26 0 0 1 1.222 0.626 A 2.415 2.415 0 0 1 2.248 0.281 A 3.027 3.027 0 0 1 2.575 0.264 A 2.962 2.962 0 0 1 3.281 0.343 A 2.065 2.065 0 0 1 4.21 0.833 A 2.16 2.16 0 0 1 4.805 1.795 A 3.086 3.086 0 0 1 4.926 2.408 L 4.078 2.408 Q 4.009 1.929 3.84 1.616 A 1.223 1.223 0 0 0 3.601 1.301 A 1.207 1.207 0 0 0 3.096 1.024 Q 2.909 0.971 2.686 0.961 A 2.396 2.396 0 0 0 2.575 0.958 A 1.753 1.753 0 0 0 1.997 1.049 A 1.463 1.463 0 0 0 1.307 1.556 A 1.989 1.989 0 0 0 0.993 2.175 Q 0.848 2.636 0.848 3.256 L 0.848 3.876 Q 0.848 4.917 1.283 5.533 A 1.38 1.38 0 0 0 2.282 6.135 A 1.814 1.814 0 0 0 2.501 6.148 A 2.497 2.497 0 0 0 2.908 6.117 Q 3.127 6.08 3.303 6.002 A 1.155 1.155 0 0 0 3.579 5.829 Q 3.955 5.511 4.078 4.72 Z M 116.499 0 L 116.499 2.571 A 1.767 1.767 0 0 1 117.165 2.053 A 1.832 1.832 0 0 1 117.905 1.907 A 1.905 1.905 0 0 1 118.539 2.004 Q 119.381 2.3 119.424 3.506 A 3.668 3.668 0 0 1 119.426 3.608 L 119.426 6.75 L 118.613 6.75 L 118.613 3.604 A 1.837 1.837 0 0 0 118.591 3.324 Q 118.54 3.017 118.378 2.843 Q 118.192 2.645 117.838 2.606 A 1.66 1.66 0 0 0 117.659 2.597 A 1.253 1.253 0 0 0 117.245 2.664 A 1.123 1.123 0 0 0 116.965 2.808 A 1.432 1.432 0 0 0 116.499 3.362 L 116.499 6.75 L 115.686 6.75 L 115.686 0 L 116.499 0 Z M 87.469 6.75 L 85.812 4.548 L 85.302 5.08 L 85.302 6.75 L 84.489 6.75 L 84.489 0 L 85.302 0 L 85.302 4.083 L 85.737 3.56 L 87.218 1.995 L 88.207 1.995 L 86.357 3.981 L 88.422 6.75 L 87.469 6.75 Z M 26.96 3.234 L 26.96 3.924 L 24.275 3.924 L 24.275 6.75 L 23.432 6.75 L 23.432 0.352 L 27.396 0.352 L 27.396 1.046 L 24.275 1.046 L 24.275 3.234 L 26.96 3.234 Z M 113.678 2.522 L 113.717 1.995 L 114.46 1.995 L 114.46 6.636 A 2.511 2.511 0 0 1 114.389 7.249 A 1.738 1.738 0 0 1 113.913 8.09 A 1.834 1.834 0 0 1 112.983 8.57 A 2.671 2.671 0 0 1 112.443 8.622 A 2.446 2.446 0 0 1 111.437 8.402 A 2.003 2.003 0 0 1 111.026 8.161 A 1.563 1.563 0 0 1 110.685 7.8 L 111.107 7.313 A 1.889 1.889 0 0 0 111.541 7.712 A 1.514 1.514 0 0 0 112.386 7.958 A 1.695 1.695 0 0 0 112.763 7.919 Q 113.031 7.858 113.225 7.702 A 1.037 1.037 0 0 0 113.311 7.625 A 1.09 1.09 0 0 0 113.588 7.132 Q 113.635 6.959 113.642 6.752 A 2.134 2.134 0 0 0 113.643 6.684 L 113.643 6.275 A 1.601 1.601 0 0 1 112.591 6.821 A 2.279 2.279 0 0 1 112.311 6.838 A 1.672 1.672 0 0 1 111.556 6.67 Q 111.234 6.51 110.984 6.197 A 2.14 2.14 0 0 1 110.96 6.166 A 2.316 2.316 0 0 1 110.577 5.386 Q 110.443 4.922 110.443 4.333 Q 110.443 3.472 110.752 2.884 A 2.096 2.096 0 0 1 110.958 2.564 Q 111.472 1.907 112.32 1.907 A 1.971 1.971 0 0 1 112.919 1.994 A 1.55 1.55 0 0 1 113.678 2.522 Z M 59.405 1.995 L 60.174 1.995 L 60.201 2.593 Q 60.737 1.918 61.597 1.907 A 2.234 2.234 0 0 1 61.625 1.907 A 1.905 1.905 0 0 1 62.258 2.004 Q 63.1 2.3 63.143 3.506 A 3.668 3.668 0 0 1 63.145 3.608 L 63.145 6.75 L 62.332 6.75 L 62.332 3.604 A 1.837 1.837 0 0 0 62.31 3.324 Q 62.26 3.017 62.097 2.843 Q 61.911 2.645 61.557 2.606 A 1.66 1.66 0 0 0 61.378 2.597 A 1.253 1.253 0 0 0 60.964 2.664 A 1.123 1.123 0 0 0 60.684 2.808 A 1.432 1.432 0 0 0 60.218 3.362 L 60.218 6.75 L 59.405 6.75 L 59.405 1.995 Z M 16.22 6.75 L 16.203 6.28 A 1.526 1.526 0 0 1 15.377 6.775 Q 15.126 6.836 14.829 6.838 A 2.996 2.996 0 0 1 14.81 6.838 A 2.086 2.086 0 0 1 14.35 6.79 Q 13.919 6.693 13.652 6.396 A 1.41 1.41 0 0 1 13.369 5.899 Q 13.252 5.556 13.25 5.089 L 13.25 1.995 L 14.063 1.995 L 14.063 5.067 Q 14.063 6.037 14.77 6.137 A 1.229 1.229 0 0 0 14.941 6.148 A 1.927 1.927 0 0 0 15.392 6.099 Q 15.955 5.964 16.181 5.454 L 16.181 1.995 L 16.994 1.995 L 16.994 6.75 L 16.22 6.75 Z M 82.802 5.251 L 83.571 5.251 A 1.432 1.432 0 0 1 83.372 5.901 A 1.772 1.772 0 0 1 83.29 6.029 A 1.828 1.828 0 0 1 82.68 6.574 A 2.169 2.169 0 0 1 82.597 6.618 A 1.997 1.997 0 0 1 81.681 6.838 A 2.346 2.346 0 0 1 80.984 6.739 A 1.839 1.839 0 0 1 80.137 6.19 A 2.171 2.171 0 0 1 79.673 5.31 Q 79.563 4.909 79.563 4.417 L 79.563 4.28 A 3.24 3.24 0 0 1 79.627 3.624 A 2.57 2.57 0 0 1 79.818 3.045 A 2.008 2.008 0 0 1 80.257 2.431 A 1.892 1.892 0 0 1 80.55 2.206 A 1.943 1.943 0 0 1 81.306 1.934 A 2.529 2.529 0 0 1 81.677 1.907 A 2.196 2.196 0 0 1 82.325 1.999 A 1.786 1.786 0 0 1 83.006 2.386 A 1.693 1.693 0 0 1 83.565 3.535 A 2.239 2.239 0 0 1 83.571 3.63 L 82.802 3.63 Q 82.767 3.168 82.452 2.872 A 1.078 1.078 0 0 0 81.723 2.576 A 1.402 1.402 0 0 0 81.677 2.575 A 1.374 1.374 0 0 0 81.255 2.637 A 1.081 1.081 0 0 0 80.717 3.021 A 1.469 1.469 0 0 0 80.49 3.468 Q 80.424 3.674 80.396 3.923 A 3.514 3.514 0 0 0 80.376 4.311 L 80.376 4.465 Q 80.376 5.287 80.714 5.73 A 1.1 1.1 0 0 0 81.501 6.165 A 1.611 1.611 0 0 0 81.681 6.174 A 1.171 1.171 0 0 0 82.441 5.911 A 1.007 1.007 0 0 0 82.686 5.629 A 0.914 0.914 0 0 0 82.802 5.251 Z M 48.041 6.75 L 47.189 6.75 A 0.632 0.632 0 0 1 47.153 6.66 Q 47.122 6.562 47.097 6.41 A 3.997 3.997 0 0 1 47.074 6.249 Q 46.507 6.838 45.721 6.838 A 2.033 2.033 0 0 1 45.191 6.772 A 1.529 1.529 0 0 1 44.567 6.44 Q 44.117 6.042 44.117 5.432 Q 44.117 4.689 44.681 4.278 Q 45.246 3.867 46.27 3.867 L 47.061 3.867 L 47.061 3.494 A 1.152 1.152 0 0 0 47.025 3.199 A 0.828 0.828 0 0 0 46.806 2.815 Q 46.59 2.6 46.2 2.568 A 1.748 1.748 0 0 0 46.055 2.562 Q 45.62 2.562 45.325 2.782 Q 45.031 3.001 45.031 3.313 L 44.213 3.313 A 1.041 1.041 0 0 1 44.338 2.825 A 1.409 1.409 0 0 1 44.466 2.626 Q 44.719 2.294 45.152 2.101 A 2.249 2.249 0 0 1 45.927 1.913 A 2.669 2.669 0 0 1 46.103 1.907 A 2.65 2.65 0 0 1 46.621 1.955 Q 46.928 2.016 47.167 2.156 A 1.439 1.439 0 0 1 47.391 2.318 A 1.396 1.396 0 0 1 47.844 3.144 A 1.998 1.998 0 0 1 47.874 3.45 L 47.874 5.638 Q 47.874 6.073 47.948 6.39 A 1.707 1.707 0 0 0 48.041 6.68 L 48.041 6.75 Z M 78.667 6.75 L 77.814 6.75 A 0.632 0.632 0 0 1 77.779 6.66 Q 77.747 6.562 77.722 6.41 A 3.997 3.997 0 0 1 77.7 6.249 Q 77.133 6.838 76.346 6.838 A 2.033 2.033 0 0 1 75.817 6.772 A 1.529 1.529 0 0 1 75.193 6.44 Q 74.742 6.042 74.742 5.432 Q 74.742 4.689 75.307 4.278 Q 75.872 3.867 76.896 3.867 L 77.687 3.867 L 77.687 3.494 A 1.152 1.152 0 0 0 77.651 3.199 A 0.828 0.828 0 0 0 77.432 2.815 Q 77.215 2.6 76.825 2.568 A 1.748 1.748 0 0 0 76.68 2.562 Q 76.245 2.562 75.951 2.782 Q 75.656 3.001 75.656 3.313 L 74.839 3.313 A 1.041 1.041 0 0 1 74.964 2.825 A 1.409 1.409 0 0 1 75.092 2.626 Q 75.344 2.294 75.777 2.101 A 2.249 2.249 0 0 1 76.553 1.913 A 2.669 2.669 0 0 1 76.729 1.907 A 2.65 2.65 0 0 1 77.246 1.955 Q 77.553 2.016 77.792 2.156 A 1.439 1.439 0 0 1 78.016 2.318 A 1.396 1.396 0 0 1 78.47 3.144 A 1.998 1.998 0 0 1 78.5 3.45 L 78.5 5.638 Q 78.5 6.073 78.573 6.39 A 1.707 1.707 0 0 0 78.667 6.68 L 78.667 6.75 Z M 18.031 4.395 L 18.031 4.333 A 3.762 3.762 0 0 1 18.098 3.602 Q 18.185 3.16 18.388 2.812 A 2.148 2.148 0 0 1 18.549 2.573 Q 19.068 1.907 19.907 1.907 A 1.964 1.964 0 0 1 20.505 1.994 A 1.559 1.559 0 0 1 21.23 2.479 L 21.23 0 L 22.043 0 L 22.043 6.75 L 21.296 6.75 L 21.256 6.24 Q 20.769 6.838 19.898 6.838 A 1.6 1.6 0 0 1 18.678 6.31 A 2.078 2.078 0 0 1 18.552 6.161 A 2.405 2.405 0 0 1 18.127 5.255 Q 18.043 4.912 18.032 4.51 A 4.425 4.425 0 0 1 18.031 4.395 Z M 104.585 0.352 L 104.585 6.06 L 107.618 6.06 L 107.618 6.75 L 103.737 6.75 L 103.737 0.352 L 104.585 0.352 Z M 94.623 0.352 L 94.623 4.601 L 95.511 4.601 L 95.511 5.265 L 94.623 5.265 L 94.623 6.75 L 93.806 6.75 L 93.806 5.265 L 90.892 5.265 L 90.892 4.786 L 93.757 0.352 L 94.623 0.352 Z M 100.021 2.592 A 1.544 1.544 0 0 0 100.125 2.021 A 2.226 2.226 0 0 0 100.104 1.707 A 1.566 1.566 0 0 0 99.604 0.738 A 1.754 1.754 0 0 0 98.838 0.333 A 2.443 2.443 0 0 0 98.24 0.264 A 2.539 2.539 0 0 0 97.73 0.312 A 1.767 1.767 0 0 0 96.873 0.738 Q 96.355 1.213 96.355 2.021 A 1.808 1.808 0 0 0 96.355 2.058 A 1.499 1.499 0 0 0 96.601 2.87 A 1.626 1.626 0 0 0 96.763 3.077 A 1.726 1.726 0 0 0 97.273 3.454 A 2.119 2.119 0 0 0 97.173 3.5 A 1.738 1.738 0 0 0 96.489 4.087 A 1.629 1.629 0 0 0 96.205 5.023 A 2.272 2.272 0 0 0 96.215 5.237 A 1.63 1.63 0 0 0 96.761 6.344 A 1.895 1.895 0 0 0 97.612 6.771 A 2.797 2.797 0 0 0 98.24 6.838 A 2.796 2.796 0 0 0 98.839 6.777 A 1.925 1.925 0 0 0 99.714 6.346 A 1.578 1.578 0 0 0 100.189 5.62 A 1.989 1.989 0 0 0 100.274 5.023 A 1.581 1.581 0 0 0 99.982 4.087 Q 99.69 3.674 99.189 3.458 Q 99.62 3.248 99.872 2.874 A 1.449 1.449 0 0 0 100.021 2.592 Z M 49.439 0.844 L 50.252 0.844 L 50.252 1.995 L 51.139 1.995 L 51.139 2.624 L 50.252 2.624 L 50.252 5.572 Q 50.252 5.858 50.37 6.001 Q 50.489 6.144 50.774 6.144 A 1.046 1.046 0 0 0 50.872 6.138 Q 50.975 6.129 51.114 6.101 A 4.024 4.024 0 0 0 51.161 6.091 L 51.161 6.75 A 2.463 2.463 0 0 1 50.728 6.829 A 2.157 2.157 0 0 1 50.537 6.838 Q 50.09 6.838 49.823 6.616 A 0.856 0.856 0 0 1 49.715 6.508 Q 49.488 6.238 49.447 5.78 A 2.351 2.351 0 0 1 49.439 5.572 L 49.439 2.624 L 48.573 2.624 L 48.573 1.995 L 49.439 1.995 L 49.439 0.844 Z M 72.229 0.844 L 73.042 0.844 L 73.042 1.995 L 73.929 1.995 L 73.929 2.624 L 73.042 2.624 L 73.042 5.572 Q 73.042 5.858 73.16 6.001 Q 73.279 6.144 73.565 6.144 A 1.046 1.046 0 0 0 73.662 6.138 Q 73.765 6.129 73.904 6.101 A 4.024 4.024 0 0 0 73.951 6.091 L 73.951 6.75 A 2.463 2.463 0 0 1 73.518 6.829 A 2.157 2.157 0 0 1 73.327 6.838 Q 72.88 6.838 72.613 6.616 A 0.856 0.856 0 0 1 72.505 6.508 Q 72.278 6.238 72.237 5.78 A 2.351 2.351 0 0 1 72.229 5.572 L 72.229 2.624 L 71.363 2.624 L 71.363 1.995 L 72.229 1.995 L 72.229 0.844 Z M 120.933 0.844 L 121.746 0.844 L 121.746 1.995 L 122.634 1.995 L 122.634 2.624 L 121.746 2.624 L 121.746 5.572 Q 121.746 5.858 121.865 6.001 Q 121.983 6.144 122.269 6.144 A 1.046 1.046 0 0 0 122.367 6.138 Q 122.469 6.129 122.609 6.101 A 4.024 4.024 0 0 0 122.656 6.091 L 122.656 6.75 A 2.463 2.463 0 0 1 122.223 6.829 A 2.157 2.157 0 0 1 122.032 6.838 Q 121.585 6.838 121.318 6.616 A 0.856 0.856 0 0 1 121.21 6.508 Q 120.983 6.238 120.942 5.78 A 2.351 2.351 0 0 1 120.933 5.572 L 120.933 2.624 L 120.067 2.624 L 120.067 1.995 L 120.933 1.995 L 120.933 0.844 Z M 6.834 0 L 6.834 6.75 L 6.021 6.75 L 6.021 0 L 6.834 0 Z M 7.919 4.386 L 7.919 4.329 A 3.057 3.057 0 0 1 8.006 3.587 A 2.573 2.573 0 0 1 8.194 3.072 A 2.16 2.16 0 0 1 8.608 2.486 A 1.957 1.957 0 0 1 8.958 2.21 A 2.036 2.036 0 0 1 9.903 1.913 A 2.491 2.491 0 0 1 10.077 1.907 A 2.277 2.277 0 0 1 10.83 2.027 A 1.937 1.937 0 0 1 11.648 2.58 A 2.29 2.29 0 0 1 12.167 3.608 A 3.373 3.373 0 0 1 12.248 4.368 L 12.248 4.425 A 3.114 3.114 0 0 1 12.168 5.142 A 2.577 2.577 0 0 1 11.982 5.671 A 2.056 2.056 0 0 1 11.454 6.361 A 2.001 2.001 0 0 1 11.221 6.53 A 2.045 2.045 0 0 1 10.302 6.829 A 2.529 2.529 0 0 1 10.085 6.838 A 2.262 2.262 0 0 1 9.335 6.718 A 1.938 1.938 0 0 1 8.519 6.166 A 2.297 2.297 0 0 1 7.993 5.111 A 3.357 3.357 0 0 1 7.919 4.386 Z M 27.971 4.386 L 27.971 4.329 A 3.057 3.057 0 0 1 28.058 3.587 A 2.573 2.573 0 0 1 28.246 3.072 A 2.16 2.16 0 0 1 28.661 2.486 A 1.957 1.957 0 0 1 29.011 2.21 A 2.036 2.036 0 0 1 29.955 1.913 A 2.491 2.491 0 0 1 30.129 1.907 A 2.277 2.277 0 0 1 30.882 2.027 A 1.937 1.937 0 0 1 31.7 2.58 A 2.29 2.29 0 0 1 32.219 3.608 A 3.373 3.373 0 0 1 32.3 4.368 L 32.3 4.425 A 3.114 3.114 0 0 1 32.22 5.142 A 2.577 2.577 0 0 1 32.034 5.671 A 2.056 2.056 0 0 1 31.507 6.361 A 2.001 2.001 0 0 1 31.274 6.53 A 2.045 2.045 0 0 1 30.354 6.829 A 2.529 2.529 0 0 1 30.138 6.838 A 2.262 2.262 0 0 1 29.387 6.718 A 1.938 1.938 0 0 1 28.571 6.166 A 2.297 2.297 0 0 1 28.045 5.111 A 3.357 3.357 0 0 1 27.971 4.386 Z M 54.057 4.386 L 54.057 4.329 A 3.057 3.057 0 0 1 54.144 3.587 A 2.573 2.573 0 0 1 54.332 3.072 A 2.16 2.16 0 0 1 54.747 2.486 A 1.957 1.957 0 0 1 55.096 2.21 A 2.036 2.036 0 0 1 56.041 1.913 A 2.491 2.491 0 0 1 56.215 1.907 A 2.277 2.277 0 0 1 56.968 2.027 A 1.937 1.937 0 0 1 57.786 2.58 A 2.29 2.29 0 0 1 58.305 3.608 A 3.373 3.373 0 0 1 58.386 4.368 L 58.386 4.425 A 3.114 3.114 0 0 1 58.306 5.142 A 2.577 2.577 0 0 1 58.12 5.671 A 2.056 2.056 0 0 1 57.593 6.361 A 2.001 2.001 0 0 1 57.36 6.53 A 2.045 2.045 0 0 1 56.44 6.829 A 2.529 2.529 0 0 1 56.224 6.838 A 2.262 2.262 0 0 1 55.473 6.718 A 1.938 1.938 0 0 1 54.657 6.166 A 2.297 2.297 0 0 1 54.131 5.111 A 3.357 3.357 0 0 1 54.057 4.386 Z M 35.618 1.969 L 35.618 2.725 A 2.251 2.251 0 0 0 35.375 2.698 A 2.782 2.782 0 0 0 35.218 2.694 Q 34.44 2.694 34.148 3.338 A 1.445 1.445 0 0 0 34.132 3.375 L 34.132 6.75 L 33.319 6.75 L 33.319 1.995 L 34.11 1.995 L 34.124 2.544 Q 34.504 1.938 35.187 1.909 A 1.636 1.636 0 0 1 35.257 1.907 Q 35.495 1.907 35.618 1.969 Z M 52.972 1.995 L 52.972 6.75 L 52.159 6.75 L 52.159 1.995 L 52.972 1.995 Z M 109.336 1.995 L 109.336 6.75 L 108.523 6.75 L 108.523 1.995 L 109.336 1.995 Z M 8.736 4.425 A 2.772 2.772 0 0 0 8.784 4.954 Q 8.844 5.264 8.981 5.51 A 1.545 1.545 0 0 0 9.103 5.695 Q 9.47 6.174 10.085 6.174 A 1.269 1.269 0 0 0 10.575 6.083 Q 10.854 5.967 11.057 5.706 A 1.471 1.471 0 0 0 11.07 5.689 A 1.648 1.648 0 0 0 11.325 5.171 Q 11.393 4.945 11.419 4.672 A 3.655 3.655 0 0 0 11.435 4.329 A 2.687 2.687 0 0 0 11.383 3.789 Q 11.316 3.459 11.158 3.2 A 1.586 1.586 0 0 0 11.063 3.061 A 1.231 1.231 0 0 0 10.648 2.705 Q 10.395 2.575 10.077 2.575 Q 9.487 2.575 9.121 3.035 A 1.515 1.515 0 0 0 9.106 3.054 A 1.589 1.589 0 0 0 8.853 3.552 Q 8.784 3.772 8.756 4.039 A 3.676 3.676 0 0 0 8.736 4.425 Z M 28.789 4.425 A 2.772 2.772 0 0 0 28.836 4.954 Q 28.896 5.264 29.034 5.51 A 1.545 1.545 0 0 0 29.156 5.695 Q 29.523 6.174 30.138 6.174 A 1.269 1.269 0 0 0 30.627 6.083 Q 30.907 5.967 31.109 5.706 A 1.471 1.471 0 0 0 31.122 5.689 A 1.648 1.648 0 0 0 31.377 5.171 Q 31.446 4.945 31.471 4.672 A 3.655 3.655 0 0 0 31.487 4.329 A 2.687 2.687 0 0 0 31.436 3.789 Q 31.368 3.459 31.211 3.2 A 1.586 1.586 0 0 0 31.116 3.061 A 1.231 1.231 0 0 0 30.7 2.705 Q 30.447 2.575 30.129 2.575 Q 29.539 2.575 29.173 3.035 A 1.515 1.515 0 0 0 29.158 3.054 A 1.589 1.589 0 0 0 28.906 3.552 Q 28.836 3.772 28.808 4.039 A 3.676 3.676 0 0 0 28.789 4.425 Z M 54.875 4.425 A 2.772 2.772 0 0 0 54.922 4.954 Q 54.982 5.264 55.12 5.51 A 1.545 1.545 0 0 0 55.242 5.695 Q 55.608 6.174 56.224 6.174 A 1.269 1.269 0 0 0 56.713 6.083 Q 56.992 5.967 57.195 5.706 A 1.471 1.471 0 0 0 57.208 5.689 A 1.648 1.648 0 0 0 57.463 5.171 Q 57.532 4.945 57.557 4.672 A 3.655 3.655 0 0 0 57.573 4.329 A 2.687 2.687 0 0 0 57.522 3.789 Q 57.454 3.459 57.297 3.2 A 1.586 1.586 0 0 0 57.201 3.061 A 1.231 1.231 0 0 0 56.786 2.705 Q 56.533 2.575 56.215 2.575 Q 55.625 2.575 55.259 3.035 A 1.515 1.515 0 0 0 55.244 3.054 A 1.589 1.589 0 0 0 54.992 3.552 Q 54.922 3.772 54.894 4.039 A 3.676 3.676 0 0 0 54.875 4.425 Z M 21.23 5.454 L 21.23 3.27 A 1.375 1.375 0 0 0 20.918 2.874 Q 20.594 2.597 20.109 2.597 A 1.238 1.238 0 0 0 19.683 2.668 A 1.068 1.068 0 0 0 19.178 3.059 A 1.51 1.51 0 0 0 18.969 3.484 Q 18.903 3.689 18.872 3.939 A 3.955 3.955 0 0 0 18.844 4.425 A 3.162 3.162 0 0 0 18.88 4.918 Q 18.921 5.178 19.009 5.389 A 1.474 1.474 0 0 0 19.178 5.691 A 1.06 1.06 0 0 0 19.94 6.139 A 1.391 1.391 0 0 0 20.101 6.148 Q 20.874 6.148 21.23 5.454 Z M 113.643 5.449 L 113.643 3.278 A 1.439 1.439 0 0 0 113.342 2.891 Q 113.038 2.62 112.598 2.599 A 1.578 1.578 0 0 0 112.522 2.597 Q 111.93 2.597 111.596 3.056 A 1.51 1.51 0 0 0 111.386 3.484 Q 111.32 3.689 111.289 3.939 A 3.955 3.955 0 0 0 111.261 4.425 Q 111.261 5.229 111.59 5.689 Q 111.92 6.148 112.513 6.148 A 1.32 1.32 0 0 0 113.023 6.054 Q 113.415 5.891 113.643 5.449 Z M 93.709 1.639 L 91.815 4.601 L 93.806 4.601 L 93.806 1.463 L 93.709 1.639 Z M 99.461 5.005 A 1.375 1.375 0 0 0 99.402 4.592 A 1.109 1.109 0 0 0 99.121 4.131 A 1.148 1.148 0 0 0 98.45 3.807 A 1.593 1.593 0 0 0 98.231 3.792 A 1.466 1.466 0 0 0 97.842 3.841 A 1.086 1.086 0 0 0 97.35 4.126 A 1.123 1.123 0 0 0 97.036 4.762 A 1.572 1.572 0 0 0 97.018 5.005 A 1.48 1.48 0 0 0 97.06 5.367 A 1.019 1.019 0 0 0 97.341 5.862 Q 97.647 6.158 98.18 6.173 A 2.053 2.053 0 0 0 98.24 6.174 Q 98.733 6.174 99.043 5.94 A 1.018 1.018 0 0 0 99.136 5.86 A 1.041 1.041 0 0 0 99.436 5.292 A 1.518 1.518 0 0 0 99.461 5.005 Z M 98.24 0.932 A 1.259 1.259 0 0 0 97.887 0.979 A 0.973 0.973 0 0 0 97.464 1.228 Q 97.168 1.525 97.168 2.035 A 1.325 1.325 0 0 0 97.212 2.387 A 0.994 0.994 0 0 0 97.46 2.823 A 0.974 0.974 0 0 0 98.022 3.108 A 1.382 1.382 0 0 0 98.24 3.125 A 1.279 1.279 0 0 0 98.585 3.08 A 0.952 0.952 0 0 0 99.02 2.823 A 1.018 1.018 0 0 0 99.295 2.26 A 1.426 1.426 0 0 0 99.312 2.035 A 1.282 1.282 0 0 0 99.262 1.668 A 1.013 1.013 0 0 0 99.009 1.239 Q 98.706 0.932 98.24 0.932 Z M 47.061 5.418 L 47.061 4.443 L 46.424 4.443 Q 44.93 4.443 44.93 5.317 Q 44.93 5.7 45.185 5.915 A 0.893 0.893 0 0 0 45.598 6.108 A 1.259 1.259 0 0 0 45.839 6.13 A 1.429 1.429 0 0 0 46.565 5.933 A 1.335 1.335 0 0 0 46.86 5.705 A 1.108 1.108 0 0 0 47.061 5.418 Z M 77.687 5.418 L 77.687 4.443 L 77.049 4.443 Q 75.555 4.443 75.555 5.317 Q 75.555 5.7 75.81 5.915 A 0.893 0.893 0 0 0 76.224 6.108 A 1.259 1.259 0 0 0 76.465 6.13 A 1.429 1.429 0 0 0 77.19 5.933 A 1.335 1.335 0 0 0 77.486 5.705 A 1.108 1.108 0 0 0 77.687 5.418 Z M 52.093 0.734 Q 52.093 0.536 52.214 0.4 Q 52.326 0.274 52.537 0.264 A 0.783 0.783 0 0 1 52.572 0.264 Q 52.809 0.264 52.932 0.4 A 0.474 0.474 0 0 1 53.054 0.703 A 0.614 0.614 0 0 1 53.055 0.734 A 0.523 0.523 0 0 1 53.03 0.9 A 0.442 0.442 0 0 1 52.932 1.063 Q 52.82 1.184 52.612 1.194 A 0.803 0.803 0 0 1 52.572 1.195 Q 52.4 1.195 52.289 1.126 A 0.362 0.362 0 0 1 52.214 1.063 A 0.456 0.456 0 0 1 52.095 0.788 A 0.605 0.605 0 0 1 52.093 0.734 Z M 108.457 0.734 Q 108.457 0.536 108.578 0.4 Q 108.69 0.274 108.902 0.264 A 0.783 0.783 0 0 1 108.936 0.264 Q 109.173 0.264 109.296 0.4 A 0.474 0.474 0 0 1 109.419 0.703 A 0.614 0.614 0 0 1 109.419 0.734 A 0.523 0.523 0 0 1 109.394 0.9 A 0.442 0.442 0 0 1 109.296 1.063 Q 109.184 1.184 108.976 1.194 A 0.803 0.803 0 0 1 108.936 1.195 Q 108.764 1.195 108.653 1.126 A 0.362 0.362 0 0 1 108.578 1.063 A 0.456 0.456 0 0 1 108.459 0.788 A 0.605 0.605 0 0 1 108.457 0.734 Z" vector-effect="non-scaling-stroke"/></g>
</svg>