<?xml version="1.0" encoding="UTF-8"?>
<svg width="48px" height="48px" viewBox="0 0 48 48" version="1.1" xmlns="http://www.w3.org/2000/svg" xmlns:xlink="http://www.w3.org/1999/xlink">
    <title>Icon-Resource/IoT/Res_AWS-IoT_Thing_Vibration-Sensor_48_Light</title>
    <g id="Icon-Resource/IoT/Res_AWS-IoT_Thing_Vibration-Sensor_48" stroke="none" stroke-width="1" fill="none" fill-rule="evenodd">
        <path transform="translate(12.000000, 8.000000), scale(.65)" d="M30.449,30.2847 L27.167,32.0547 L26.218,30.2937 L28.258,29.1937 L27.746,25.8807 L29.198,23.9997 L27.746,22.1187 L28.258,18.8057 L26.218,17.7067 L27.167,15.9457 L30.449,17.7157 L29.853,21.5767 L31.725,23.9997 L29.853,26.4237 L30.449,30.2847 Z M37.358,23.9997 L34.303,27.3227 L35.26,32.5187 L29.996,35.8457 L28.928,34.1547 L33.049,31.5507 L32.157,26.7037 L34.641,23.9997 L32.157,21.2967 L33.049,16.4497 L28.928,13.8457 L29.996,12.1547 L35.26,15.4817 L34.303,20.6777 L37.358,23.9997 Z M19.742,29.1937 L21.782,30.2937 L20.833,32.0547 L17.551,30.2847 L18.146,26.4237 L16.274,23.9997 L18.146,21.5767 L17.551,17.7157 L20.833,15.9457 L21.782,17.7067 L19.742,18.8057 L20.254,22.1187 L18.802,23.9997 L20.254,25.8807 L19.742,29.1937 Z M14.951,31.5507 L19.072,34.1547 L18.004,35.8457 L12.74,32.5187 L13.696,27.3227 L10.641,23.9997 L13.696,20.6777 L12.74,15.4817 L18.004,12.1547 L19.072,13.8457 L14.951,16.4497 L15.843,21.2967 L13.358,23.9997 L15.843,26.7037 L14.951,31.5507 Z M24,24.9997 C23.448,24.9997 23,24.5517 23,23.9997 C23,23.4487 23.448,22.9997 24,22.9997 C24.552,22.9997 25,23.4487 25,23.9997 C25,24.5517 24.552,24.9997 24,24.9997 L24,24.9997 Z M24,20.9997 C22.345,20.9997 21,22.3457 21,23.9997 C21,25.6547 22.345,26.9997 24,26.9997 C25.654,26.9997 27,25.6547 27,23.9997 C27,22.3457 25.654,20.9997 24,20.9997 L24,20.9997 Z M39,37.8657 C39,38.4907 38.491,38.9997 37.865,38.9997 L10.135,38.9997 C9.509,38.9997 9,38.4907 9,37.8657 L9,10.1347 C9,9.5097 9.509,8.9997 10.135,8.9997 L37.865,8.9997 C38.491,8.9997 39,9.5097 39,10.1347 L39,37.8657 Z M46,14.9997 L46,12.9997 L41,12.9997 L41,10.1347 C41,8.4067 39.594,6.9997 37.865,6.9997 L35,6.9997 L35,1.9997 L33,1.9997 L33,6.9997 L30,6.9997 L30,1.9997 L28,1.9997 L28,6.9997 L25,6.9997 L25,1.9997 L23,1.9997 L23,6.9997 L20,6.9997 L20,1.9997 L18,1.9997 L18,6.9997 L15,6.9997 L15,1.9997 L13,1.9997 L13,6.9997 L10.135,6.9997 C8.406,6.9997 7,8.4067 7,10.1347 L7,12.9997 L2,12.9997 L2,14.9997 L7,14.9997 L7,17.9997 L2,17.9997 L2,19.9997 L7,19.9997 L7,22.9997 L2,22.9997 L2,24.9997 L7,24.9997 L7,27.9997 L2,27.9997 L2,29.9997 L7,29.9997 L7,32.9997 L2,32.9997 L2,34.9997 L7,34.9997 L7,37.8657 C7,39.5937 8.406,40.9997 10.135,40.9997 L13,40.9997 L13,45.9997 L15,45.9997 L15,40.9997 L18,40.9997 L18,45.9997 L20,45.9997 L20,40.9997 L23,40.9997 L23,45.9997 L25,45.9997 L25,40.9997 L28,40.9997 L28,45.9997 L30,45.9997 L30,40.9997 L33,40.9997 L33,45.9997 L35,45.9997 L35,40.9997 L37.865,40.9997 C39.594,40.9997 41,39.5937 41,37.8657 L41,34.9997 L46,34.9997 L46,32.9997 L41,32.9997 L41,29.9997 L46,29.9997 L46,27.9997 L41,27.9997 L41,24.9997 L46,24.9997 L46,22.9997 L41,22.9997 L41,19.9997 L46,19.9997 L46,17.9997 L41,17.9997 L41,14.9997 L46,14.9997 Z" id="Fill-1" fill="#000000"></path>
    </g><g transform="translate(25, 83)" id="svgGroup" stroke-linecap="round" fill-rule="evenodd" font-size="9pt" stroke="#000" stroke-width="0.25mm" fill="#000" style="stroke:#000;stroke-width:0.25mm;fill:#000"><path d="M 23.12 0.088 L 24.13 4.469 L 24.253 5.313 L 24.434 4.553 L 25.699 0.088 L 26.411 0.088 L 27.646 4.553 L 27.822 5.326 L 27.958 4.465 L 28.951 0.088 L 29.799 0.088 L 28.248 6.486 L 27.479 6.486 L 26.161 1.824 L 26.06 1.336 L 25.958 1.824 L 24.592 6.486 L 23.823 6.486 L 22.276 0.088 L 23.12 0.088 Z M 34.98 1.938 L 34.132 1.938 A 1.466 1.466 0 0 0 34.083 1.546 A 1.066 1.066 0 0 0 33.763 1.026 A 1.211 1.211 0 0 0 33.294 0.77 Q 33.042 0.694 32.722 0.694 A 2.286 2.286 0 0 0 32.342 0.724 Q 32.14 0.758 31.977 0.831 A 1.101 1.101 0 0 0 31.748 0.969 A 0.892 0.892 0 0 0 31.403 1.624 A 1.267 1.267 0 0 0 31.399 1.732 A 0.806 0.806 0 0 0 31.667 2.337 A 1.134 1.134 0 0 0 31.731 2.393 A 1.562 1.562 0 0 0 31.969 2.549 Q 32.299 2.73 32.86 2.887 A 8.228 8.228 0 0 1 33.325 3.032 Q 33.56 3.113 33.754 3.2 A 3.297 3.297 0 0 1 34.108 3.382 A 2.342 2.342 0 0 1 34.447 3.626 Q 34.637 3.792 34.759 3.985 A 1.45 1.45 0 0 1 34.776 4.012 A 1.498 1.498 0 0 1 34.972 4.568 A 1.948 1.948 0 0 1 34.994 4.86 A 1.606 1.606 0 0 1 34.871 5.497 Q 34.726 5.838 34.408 6.09 A 1.886 1.886 0 0 1 34.387 6.106 Q 33.781 6.574 32.766 6.574 A 3.023 3.023 0 0 1 31.625 6.36 A 2.917 2.917 0 0 1 31.535 6.322 A 2.383 2.383 0 0 1 31.057 6.044 A 1.874 1.874 0 0 1 30.654 5.629 A 1.689 1.689 0 0 1 30.344 4.632 L 31.192 4.632 A 1.261 1.261 0 0 0 31.262 5.059 A 1.074 1.074 0 0 0 31.621 5.548 Q 32.005 5.85 32.622 5.881 A 2.87 2.87 0 0 0 32.766 5.884 A 2.628 2.628 0 0 0 33.153 5.858 Q 33.349 5.828 33.508 5.767 A 1.129 1.129 0 0 0 33.79 5.612 Q 34.146 5.339 34.146 4.869 A 1.074 1.074 0 0 0 34.103 4.559 A 0.816 0.816 0 0 0 33.816 4.142 Q 33.486 3.885 32.621 3.634 Q 31.535 3.322 31.041 2.868 Q 30.546 2.413 30.546 1.745 Q 30.546 0.989 31.151 0.494 A 2.121 2.121 0 0 1 32.041 0.071 A 3.087 3.087 0 0 1 32.722 0 A 2.913 2.913 0 0 1 33.382 0.072 A 2.372 2.372 0 0 1 33.897 0.255 A 2.051 2.051 0 0 1 34.428 0.626 A 1.834 1.834 0 0 1 34.697 0.958 A 1.798 1.798 0 0 1 34.98 1.938 Z M 3.74 6.486 L 2.351 3.898 L 0.848 3.898 L 0.848 6.486 L 0 6.486 L 0 0.088 L 2.118 0.088 A 3.809 3.809 0 0 1 2.76 0.138 Q 3.102 0.197 3.376 0.324 A 1.789 1.789 0 0 1 3.781 0.58 A 1.588 1.588 0 0 1 4.307 1.469 A 2.453 2.453 0 0 1 4.364 2.013 A 1.864 1.864 0 0 1 4.273 2.604 A 1.64 1.64 0 0 1 4.041 3.054 A 1.849 1.849 0 0 1 3.382 3.611 A 2.342 2.342 0 0 1 3.142 3.718 L 4.645 6.434 L 4.645 6.486 L 3.74 6.486 Z M 13.724 3.129 L 12.907 3.129 Q 12.907 2.795 12.623 2.553 Q 12.34 2.312 11.909 2.312 Q 11.465 2.312 11.215 2.505 A 0.653 0.653 0 0 0 11.04 2.704 Q 10.967 2.835 10.964 3 A 0.771 0.771 0 0 0 10.964 3.01 A 0.588 0.588 0 0 0 10.994 3.203 A 0.48 0.48 0 0 0 11.197 3.454 A 1.093 1.093 0 0 0 11.348 3.533 Q 11.512 3.605 11.767 3.673 A 6.581 6.581 0 0 0 12.039 3.74 A 6.318 6.318 0 0 1 12.446 3.845 Q 12.783 3.944 13.025 4.065 A 1.901 1.901 0 0 1 13.281 4.218 Q 13.418 4.315 13.516 4.429 A 1.06 1.06 0 0 1 13.586 4.52 A 1.024 1.024 0 0 1 13.748 4.927 A 1.388 1.388 0 0 1 13.768 5.168 Q 13.768 5.805 13.258 6.19 Q 12.776 6.554 12.022 6.573 A 3.337 3.337 0 0 1 11.936 6.574 A 2.746 2.746 0 0 1 11.401 6.525 A 2.124 2.124 0 0 1 10.925 6.372 A 1.771 1.771 0 0 1 10.491 6.094 A 1.54 1.54 0 0 1 10.237 5.807 Q 9.989 5.445 9.989 5.023 L 10.802 5.023 A 0.932 0.932 0 0 0 10.875 5.348 A 0.827 0.827 0 0 0 11.129 5.671 A 1.072 1.072 0 0 0 11.531 5.864 Q 11.686 5.903 11.867 5.91 A 2.013 2.013 0 0 0 11.936 5.911 A 1.863 1.863 0 0 0 12.231 5.889 Q 12.393 5.863 12.524 5.806 A 0.941 0.941 0 0 0 12.676 5.724 A 0.689 0.689 0 0 0 12.841 5.574 A 0.554 0.554 0 0 0 12.955 5.225 A 0.698 0.698 0 0 0 12.919 4.994 A 0.581 0.581 0 0 0 12.707 4.713 A 1.05 1.05 0 0 0 12.538 4.615 Q 12.349 4.524 12.054 4.449 A 5.392 5.392 0 0 0 11.841 4.399 A 6.342 6.342 0 0 1 11.48 4.311 Q 11.11 4.209 10.861 4.083 Q 10.562 3.93 10.392 3.731 A 1.017 1.017 0 0 1 10.325 3.643 Q 10.151 3.388 10.151 3.037 A 1.206 1.206 0 0 1 10.55 2.132 A 1.694 1.694 0 0 1 10.646 2.048 A 1.752 1.752 0 0 1 11.429 1.688 A 2.471 2.471 0 0 1 11.909 1.644 A 2.559 2.559 0 0 1 12.473 1.702 A 1.757 1.757 0 0 1 13.221 2.061 Q 13.724 2.479 13.724 3.129 Z M 21.327 6.486 L 20.716 4.816 L 18.035 4.816 L 17.433 6.486 L 16.563 6.486 L 19.006 0.088 L 19.745 0.088 L 22.192 6.486 L 21.327 6.486 Z M 5.212 4.241 L 5.212 4.091 A 3.17 3.17 0 0 1 5.288 3.382 A 2.581 2.581 0 0 1 5.482 2.828 A 2.191 2.191 0 0 1 5.93 2.202 A 2.033 2.033 0 0 1 6.238 1.958 Q 6.724 1.644 7.291 1.644 A 2.254 2.254 0 0 1 7.904 1.723 A 1.639 1.639 0 0 1 8.732 2.254 Q 9.246 2.865 9.246 4.003 L 9.246 4.342 L 6.025 4.342 A 2.111 2.111 0 0 0 6.096 4.85 A 1.516 1.516 0 0 0 6.436 5.478 A 1.282 1.282 0 0 0 7.37 5.909 A 1.652 1.652 0 0 0 7.436 5.911 A 1.763 1.763 0 0 0 7.764 5.882 Q 7.988 5.839 8.165 5.735 A 1.827 1.827 0 0 0 8.674 5.287 A 2.068 2.068 0 0 0 8.688 5.269 L 9.185 5.656 A 1.926 1.926 0 0 1 7.785 6.547 A 2.749 2.749 0 0 1 7.392 6.574 A 2.394 2.394 0 0 1 6.64 6.461 A 1.974 1.974 0 0 1 5.818 5.939 Q 5.212 5.304 5.212 4.241 Z M 0.848 0.782 L 0.848 3.208 L 2.145 3.208 Q 2.685 3.208 3.035 2.968 A 1.174 1.174 0 0 0 3.144 2.883 A 1.069 1.069 0 0 0 3.51 2.146 A 1.486 1.486 0 0 0 3.516 2.013 Q 3.516 1.47 3.22 1.159 A 1 1 0 0 0 3.162 1.103 Q 2.808 0.787 2.14 0.782 L 0.848 0.782 Z M 19.375 1.129 L 18.29 4.122 L 20.465 4.122 L 19.375 1.129 Z M 6.051 3.674 L 8.433 3.674 L 8.433 3.612 Q 8.407 3.153 8.236 2.848 A 1.13 1.13 0 0 0 8.099 2.652 A 0.983 0.983 0 0 0 7.445 2.32 A 1.39 1.39 0 0 0 7.291 2.312 A 1.106 1.106 0 0 0 6.768 2.435 A 1.14 1.14 0 0 0 6.464 2.67 A 1.417 1.417 0 0 0 6.188 3.116 Q 6.114 3.3 6.074 3.522 A 2.741 2.741 0 0 0 6.051 3.674 Z" vector-effect="non-scaling-stroke"/></g><g transform="translate(25, 93)" id="svgGroup" stroke-linecap="round" fill-rule="evenodd" font-size="9pt" stroke="#000" stroke-width="0.25mm" fill="#000" style="stroke:#000;stroke-width:0.25mm;fill:#000"><path d="M 82.116 2.202 L 81.268 2.202 A 1.466 1.466 0 0 0 81.218 1.809 A 1.066 1.066 0 0 0 80.899 1.29 A 1.211 1.211 0 0 0 80.429 1.033 Q 80.178 0.958 79.857 0.958 A 2.286 2.286 0 0 0 79.477 0.988 Q 79.276 1.022 79.113 1.095 A 1.101 1.101 0 0 0 78.884 1.233 A 0.892 0.892 0 0 0 78.539 1.887 A 1.267 1.267 0 0 0 78.535 1.995 A 0.806 0.806 0 0 0 78.802 2.6 A 1.134 1.134 0 0 0 78.866 2.656 A 1.562 1.562 0 0 0 79.105 2.813 Q 79.435 2.993 79.996 3.151 A 8.228 8.228 0 0 1 80.46 3.295 Q 80.695 3.377 80.89 3.464 A 3.297 3.297 0 0 1 81.244 3.645 A 2.342 2.342 0 0 1 81.583 3.889 Q 81.773 4.056 81.895 4.248 A 1.45 1.45 0 0 1 81.912 4.276 A 1.498 1.498 0 0 1 82.108 4.832 A 1.948 1.948 0 0 1 82.129 5.124 A 1.606 1.606 0 0 1 82.007 5.76 Q 81.862 6.101 81.544 6.354 A 1.886 1.886 0 0 1 81.523 6.37 Q 80.917 6.838 79.901 6.838 A 3.023 3.023 0 0 1 78.761 6.623 A 2.917 2.917 0 0 1 78.671 6.585 A 2.383 2.383 0 0 1 78.193 6.307 A 1.874 1.874 0 0 1 77.79 5.893 A 1.689 1.689 0 0 1 77.48 4.896 L 78.328 4.896 A 1.261 1.261 0 0 0 78.397 5.323 A 1.074 1.074 0 0 0 78.757 5.812 Q 79.141 6.113 79.757 6.144 A 2.87 2.87 0 0 0 79.901 6.148 A 2.628 2.628 0 0 0 80.288 6.121 Q 80.484 6.092 80.644 6.031 A 1.129 1.129 0 0 0 80.925 5.875 Q 81.281 5.603 81.281 5.133 A 1.074 1.074 0 0 0 81.239 4.822 A 0.816 0.816 0 0 0 80.952 4.406 Q 80.622 4.148 79.756 3.898 Q 78.671 3.586 78.177 3.131 Q 77.682 2.676 77.682 2.008 Q 77.682 1.252 78.286 0.758 A 2.121 2.121 0 0 1 79.177 0.335 A 3.087 3.087 0 0 1 79.857 0.264 A 2.913 2.913 0 0 1 80.517 0.336 A 2.372 2.372 0 0 1 81.033 0.519 A 2.051 2.051 0 0 1 81.564 0.889 A 1.834 1.834 0 0 1 81.833 1.222 A 1.798 1.798 0 0 1 82.116 2.202 Z M 20.997 0 L 20.997 2.571 A 1.767 1.767 0 0 1 21.663 2.053 A 1.832 1.832 0 0 1 22.403 1.907 A 1.905 1.905 0 0 1 23.037 2.004 Q 23.879 2.3 23.922 3.506 A 3.668 3.668 0 0 1 23.924 3.608 L 23.924 6.75 L 23.111 6.75 L 23.111 3.604 A 1.837 1.837 0 0 0 23.089 3.324 Q 23.038 3.017 22.876 2.843 Q 22.69 2.645 22.336 2.606 A 1.66 1.66 0 0 0 22.157 2.597 A 1.253 1.253 0 0 0 21.743 2.664 A 1.123 1.123 0 0 0 21.463 2.808 A 1.432 1.432 0 0 0 20.997 3.362 L 20.997 6.75 L 20.184 6.75 L 20.184 0 L 20.997 0 Z M 133.088 0 L 133.088 2.571 A 1.767 1.767 0 0 1 133.754 2.053 A 1.832 1.832 0 0 1 134.495 1.907 A 1.905 1.905 0 0 1 135.128 2.004 Q 135.97 2.3 136.013 3.506 A 3.668 3.668 0 0 1 136.015 3.608 L 136.015 6.75 L 135.202 6.75 L 135.202 3.604 A 1.837 1.837 0 0 0 135.18 3.324 Q 135.13 3.017 134.967 2.843 Q 134.781 2.645 134.428 2.606 A 1.66 1.66 0 0 0 134.249 2.597 A 1.253 1.253 0 0 0 133.834 2.664 A 1.123 1.123 0 0 0 133.554 2.808 A 1.432 1.432 0 0 0 133.088 3.362 L 133.088 6.75 L 132.275 6.75 L 132.275 0 L 133.088 0 Z M 39.995 0.352 L 41.814 5.629 L 43.642 0.352 L 44.565 0.352 L 42.192 6.75 L 41.445 6.75 L 39.076 0.352 L 39.995 0.352 Z M 35.332 2.522 L 35.372 1.995 L 36.114 1.995 L 36.114 6.636 A 2.511 2.511 0 0 1 36.044 7.249 A 1.738 1.738 0 0 1 35.567 8.09 A 1.834 1.834 0 0 1 34.637 8.57 A 2.671 2.671 0 0 1 34.097 8.622 A 2.446 2.446 0 0 1 33.091 8.402 A 2.003 2.003 0 0 1 32.681 8.161 A 1.563 1.563 0 0 1 32.339 7.8 L 32.761 7.313 A 1.889 1.889 0 0 0 33.196 7.712 A 1.514 1.514 0 0 0 34.04 7.958 A 1.695 1.695 0 0 0 34.417 7.919 Q 34.685 7.858 34.879 7.702 A 1.037 1.037 0 0 0 34.965 7.625 A 1.09 1.09 0 0 0 35.242 7.132 Q 35.289 6.959 35.296 6.752 A 2.134 2.134 0 0 0 35.297 6.684 L 35.297 6.275 A 1.601 1.601 0 0 1 34.245 6.821 A 2.279 2.279 0 0 1 33.965 6.838 A 1.672 1.672 0 0 1 33.21 6.67 Q 32.888 6.51 32.638 6.197 A 2.14 2.14 0 0 1 32.614 6.166 A 2.316 2.316 0 0 1 32.231 5.386 Q 32.098 4.922 32.098 4.333 Q 32.098 3.472 32.406 2.884 A 2.096 2.096 0 0 1 32.612 2.564 Q 33.126 1.907 33.974 1.907 A 1.971 1.971 0 0 1 34.573 1.994 A 1.55 1.55 0 0 1 35.332 2.522 Z M 130.267 2.522 L 130.307 1.995 L 131.049 1.995 L 131.049 6.636 A 2.511 2.511 0 0 1 130.979 7.249 A 1.738 1.738 0 0 1 130.502 8.09 A 1.834 1.834 0 0 1 129.572 8.57 A 2.671 2.671 0 0 1 129.032 8.622 A 2.446 2.446 0 0 1 128.026 8.402 A 2.003 2.003 0 0 1 127.616 8.161 A 1.563 1.563 0 0 1 127.274 7.8 L 127.696 7.313 A 1.889 1.889 0 0 0 128.131 7.712 A 1.514 1.514 0 0 0 128.975 7.958 A 1.695 1.695 0 0 0 129.352 7.919 Q 129.62 7.858 129.815 7.702 A 1.037 1.037 0 0 0 129.9 7.625 A 1.09 1.09 0 0 0 130.177 7.132 Q 130.224 6.959 130.231 6.752 A 2.134 2.134 0 0 0 130.232 6.684 L 130.232 6.275 A 1.601 1.601 0 0 1 129.18 6.821 A 2.279 2.279 0 0 1 128.9 6.838 A 1.672 1.672 0 0 1 128.145 6.67 Q 127.823 6.51 127.573 6.197 A 2.14 2.14 0 0 1 127.549 6.166 A 2.316 2.316 0 0 1 127.166 5.386 Q 127.033 4.922 127.033 4.333 Q 127.033 3.472 127.341 2.884 A 2.096 2.096 0 0 1 127.547 2.564 Q 128.061 1.907 128.909 1.907 A 1.971 1.971 0 0 1 129.508 1.994 A 1.55 1.55 0 0 1 130.267 2.522 Z M 96.354 3.393 L 95.537 3.393 Q 95.537 3.059 95.254 2.817 Q 94.97 2.575 94.54 2.575 Q 94.096 2.575 93.845 2.769 A 0.653 0.653 0 0 0 93.67 2.967 Q 93.597 3.098 93.595 3.263 A 0.771 0.771 0 0 0 93.595 3.274 A 0.588 0.588 0 0 0 93.625 3.467 A 0.48 0.48 0 0 0 93.828 3.718 A 1.093 1.093 0 0 0 93.978 3.796 Q 94.142 3.868 94.398 3.937 A 6.581 6.581 0 0 0 94.669 4.003 A 6.318 6.318 0 0 1 95.077 4.108 Q 95.414 4.208 95.656 4.329 A 1.901 1.901 0 0 1 95.912 4.481 Q 96.049 4.579 96.146 4.692 A 1.06 1.06 0 0 1 96.216 4.783 A 1.024 1.024 0 0 1 96.378 5.191 A 1.388 1.388 0 0 1 96.398 5.432 Q 96.398 6.069 95.889 6.453 Q 95.406 6.817 94.652 6.837 A 3.337 3.337 0 0 1 94.566 6.838 A 2.746 2.746 0 0 1 94.032 6.788 A 2.124 2.124 0 0 1 93.555 6.636 A 1.771 1.771 0 0 1 93.121 6.358 A 1.54 1.54 0 0 1 92.867 6.071 Q 92.619 5.708 92.619 5.287 L 93.432 5.287 A 0.932 0.932 0 0 0 93.506 5.612 A 0.827 0.827 0 0 0 93.76 5.935 A 1.072 1.072 0 0 0 94.162 6.128 Q 94.316 6.167 94.498 6.173 A 2.013 2.013 0 0 0 94.566 6.174 A 1.863 1.863 0 0 0 94.862 6.152 Q 95.023 6.126 95.155 6.07 A 0.941 0.941 0 0 0 95.306 5.988 A 0.689 0.689 0 0 0 95.471 5.837 A 0.554 0.554 0 0 0 95.585 5.489 A 0.698 0.698 0 0 0 95.549 5.258 A 0.581 0.581 0 0 0 95.337 4.977 A 1.05 1.05 0 0 0 95.168 4.878 Q 94.979 4.788 94.684 4.712 A 5.392 5.392 0 0 0 94.471 4.663 A 6.342 6.342 0 0 1 94.11 4.575 Q 93.741 4.473 93.491 4.346 Q 93.193 4.194 93.022 3.994 A 1.017 1.017 0 0 1 92.955 3.907 Q 92.782 3.652 92.782 3.3 A 1.206 1.206 0 0 1 93.181 2.396 A 1.694 1.694 0 0 1 93.276 2.312 A 1.752 1.752 0 0 1 94.059 1.952 A 2.471 2.471 0 0 1 94.54 1.907 A 2.559 2.559 0 0 1 95.103 1.966 A 1.757 1.757 0 0 1 95.851 2.325 Q 96.354 2.742 96.354 3.393 Z M 27.325 1.995 L 28.094 1.995 L 28.121 2.593 Q 28.657 1.918 29.517 1.907 A 2.234 2.234 0 0 1 29.544 1.907 A 1.905 1.905 0 0 1 30.178 2.004 Q 31.02 2.3 31.063 3.506 A 3.668 3.668 0 0 1 31.065 3.608 L 31.065 6.75 L 30.252 6.75 L 30.252 3.604 A 1.837 1.837 0 0 0 30.23 3.324 Q 30.18 3.017 30.017 2.843 Q 29.831 2.645 29.477 2.606 A 1.66 1.66 0 0 0 29.298 2.597 A 1.253 1.253 0 0 0 28.884 2.664 A 1.123 1.123 0 0 0 28.604 2.808 A 1.432 1.432 0 0 0 28.138 3.362 L 28.138 6.75 L 27.325 6.75 L 27.325 1.995 Z M 70.55 1.995 L 71.319 1.995 L 71.345 2.593 Q 71.882 1.918 72.741 1.907 A 2.234 2.234 0 0 1 72.769 1.907 A 1.905 1.905 0 0 1 73.403 2.004 Q 74.244 2.3 74.287 3.506 A 3.668 3.668 0 0 1 74.29 3.608 L 74.29 6.75 L 73.477 6.75 L 73.477 3.604 A 1.837 1.837 0 0 0 73.454 3.324 Q 73.404 3.017 73.241 2.843 Q 73.055 2.645 72.702 2.606 A 1.66 1.66 0 0 0 72.523 2.597 A 1.253 1.253 0 0 0 72.109 2.664 A 1.123 1.123 0 0 0 71.829 2.808 A 1.432 1.432 0 0 0 71.363 3.362 L 71.363 6.75 L 70.55 6.75 L 70.55 1.995 Z M 87.851 1.995 L 88.62 1.995 L 88.646 2.593 Q 89.183 1.918 90.043 1.907 A 2.234 2.234 0 0 1 90.07 1.907 A 1.905 1.905 0 0 1 90.704 2.004 Q 91.546 2.3 91.589 3.506 A 3.668 3.668 0 0 1 91.591 3.608 L 91.591 6.75 L 90.778 6.75 L 90.778 3.604 A 1.837 1.837 0 0 0 90.756 3.324 Q 90.705 3.017 90.543 2.843 Q 90.357 2.645 90.003 2.606 A 1.66 1.66 0 0 0 89.824 2.597 A 1.253 1.253 0 0 0 89.41 2.664 A 1.123 1.123 0 0 0 89.13 2.808 A 1.432 1.432 0 0 0 88.664 3.362 L 88.664 6.75 L 87.851 6.75 L 87.851 1.995 Z M 11.94 0.352 L 11.94 1.046 L 9.883 1.046 L 9.883 6.75 L 9.044 6.75 L 9.044 1.046 L 6.992 1.046 L 6.992 0.352 L 11.94 0.352 Z M 19.362 0.352 L 19.362 1.046 L 17.306 1.046 L 17.306 6.75 L 16.466 6.75 L 16.466 1.046 L 14.414 1.046 L 14.414 0.352 L 19.362 0.352 Z M 59.186 6.75 L 58.333 6.75 A 0.632 0.632 0 0 1 58.298 6.66 Q 58.266 6.562 58.241 6.41 A 3.997 3.997 0 0 1 58.219 6.249 Q 57.652 6.838 56.865 6.838 A 2.033 2.033 0 0 1 56.336 6.772 A 1.529 1.529 0 0 1 55.712 6.44 Q 55.261 6.042 55.261 5.432 Q 55.261 4.689 55.826 4.278 Q 56.391 3.867 57.415 3.867 L 58.206 3.867 L 58.206 3.494 A 1.152 1.152 0 0 0 58.17 3.199 A 0.828 0.828 0 0 0 57.951 2.815 Q 57.734 2.6 57.344 2.568 A 1.748 1.748 0 0 0 57.199 2.562 Q 56.764 2.562 56.47 2.782 Q 56.175 3.001 56.175 3.313 L 55.358 3.313 A 1.041 1.041 0 0 1 55.483 2.825 A 1.409 1.409 0 0 1 55.611 2.626 Q 55.863 2.294 56.296 2.101 A 2.249 2.249 0 0 1 57.072 1.913 A 2.669 2.669 0 0 1 57.248 1.907 A 2.65 2.65 0 0 1 57.765 1.955 Q 58.072 2.016 58.311 2.156 A 1.439 1.439 0 0 1 58.535 2.318 A 1.396 1.396 0 0 1 58.989 3.144 A 1.998 1.998 0 0 1 59.019 3.45 L 59.019 5.638 Q 59.019 6.073 59.092 6.39 A 1.707 1.707 0 0 0 59.186 6.68 L 59.186 6.75 Z M 51.504 4.355 L 51.504 4.425 Q 51.504 5.308 51.175 5.909 A 2.141 2.141 0 0 1 51.003 6.177 A 1.647 1.647 0 0 1 50.416 6.673 Q 50.101 6.828 49.711 6.837 A 2.112 2.112 0 0 1 49.658 6.838 A 2.039 2.039 0 0 1 49.063 6.756 A 1.561 1.561 0 0 1 48.265 6.201 L 48.226 6.75 L 47.479 6.75 L 47.479 0 L 48.292 0 L 48.292 2.518 A 1.605 1.605 0 0 1 49.458 1.915 A 2.285 2.285 0 0 1 49.649 1.907 A 1.835 1.835 0 0 1 50.28 2.011 A 1.579 1.579 0 0 1 51.01 2.562 Q 51.424 3.11 51.491 3.998 A 4.727 4.727 0 0 1 51.504 4.355 Z M 82.876 4.504 L 82.876 4.355 A 3.17 3.17 0 0 1 82.953 3.646 A 2.581 2.581 0 0 1 83.147 3.092 A 2.191 2.191 0 0 1 83.594 2.466 A 2.033 2.033 0 0 1 83.903 2.221 Q 84.388 1.907 84.955 1.907 A 2.254 2.254 0 0 1 85.568 1.986 A 1.639 1.639 0 0 1 86.396 2.518 Q 86.911 3.129 86.911 4.267 L 86.911 4.605 L 83.689 4.605 A 2.111 2.111 0 0 0 83.761 5.114 A 1.516 1.516 0 0 0 84.1 5.741 A 1.282 1.282 0 0 0 85.034 6.173 A 1.652 1.652 0 0 0 85.1 6.174 A 1.763 1.763 0 0 0 85.428 6.145 Q 85.652 6.103 85.83 5.999 A 1.827 1.827 0 0 0 86.338 5.551 A 2.068 2.068 0 0 0 86.353 5.533 L 86.849 5.919 A 1.926 1.926 0 0 1 85.449 6.811 A 2.749 2.749 0 0 1 85.056 6.838 A 2.394 2.394 0 0 1 84.305 6.725 A 1.974 1.974 0 0 1 83.483 6.203 Q 82.876 5.568 82.876 4.504 Z M 121.175 0.352 L 121.175 6.06 L 124.207 6.06 L 124.207 6.75 L 120.327 6.75 L 120.327 0.352 L 121.175 0.352 Z M 111.212 0.352 L 111.212 4.601 L 112.1 4.601 L 112.1 5.265 L 111.212 5.265 L 111.212 6.75 L 110.395 6.75 L 110.395 5.265 L 107.481 5.265 L 107.481 4.786 L 110.347 0.352 L 111.212 0.352 Z M 116.611 2.592 A 1.544 1.544 0 0 0 116.714 2.021 A 2.226 2.226 0 0 0 116.693 1.707 A 1.566 1.566 0 0 0 116.194 0.738 A 1.754 1.754 0 0 0 115.428 0.333 A 2.443 2.443 0 0 0 114.829 0.264 A 2.539 2.539 0 0 0 114.32 0.312 A 1.767 1.767 0 0 0 113.462 0.738 Q 112.944 1.213 112.944 2.021 A 1.808 1.808 0 0 0 112.944 2.058 A 1.499 1.499 0 0 0 113.19 2.87 A 1.626 1.626 0 0 0 113.352 3.077 A 1.726 1.726 0 0 0 113.862 3.454 A 2.119 2.119 0 0 0 113.763 3.5 A 1.738 1.738 0 0 0 113.078 4.087 A 1.629 1.629 0 0 0 112.794 5.023 A 2.272 2.272 0 0 0 112.804 5.237 A 1.63 1.63 0 0 0 113.35 6.344 A 1.895 1.895 0 0 0 114.201 6.771 A 2.797 2.797 0 0 0 114.829 6.838 A 2.796 2.796 0 0 0 115.428 6.777 A 1.925 1.925 0 0 0 116.303 6.346 A 1.578 1.578 0 0 0 116.778 5.62 A 1.989 1.989 0 0 0 116.864 5.023 A 1.581 1.581 0 0 0 116.572 4.087 Q 116.279 3.674 115.778 3.458 Q 116.209 3.248 116.462 2.874 A 1.449 1.449 0 0 0 116.611 2.592 Z M 60.583 0.844 L 61.396 0.844 L 61.396 1.995 L 62.284 1.995 L 62.284 2.624 L 61.396 2.624 L 61.396 5.572 Q 61.396 5.858 61.515 6.001 Q 61.633 6.144 61.919 6.144 A 1.046 1.046 0 0 0 62.016 6.138 Q 62.119 6.129 62.259 6.101 A 4.024 4.024 0 0 0 62.306 6.091 L 62.306 6.75 A 2.463 2.463 0 0 1 61.873 6.829 A 2.157 2.157 0 0 1 61.682 6.838 Q 61.235 6.838 60.968 6.616 A 0.856 0.856 0 0 1 60.86 6.508 Q 60.632 6.238 60.592 5.78 A 2.351 2.351 0 0 1 60.583 5.572 L 60.583 2.624 L 59.717 2.624 L 59.717 1.995 L 60.583 1.995 L 60.583 0.844 Z M 137.522 0.844 L 138.335 0.844 L 138.335 1.995 L 139.223 1.995 L 139.223 2.624 L 138.335 2.624 L 138.335 5.572 Q 138.335 5.858 138.454 6.001 Q 138.573 6.144 138.858 6.144 A 1.046 1.046 0 0 0 138.956 6.138 Q 139.059 6.129 139.198 6.101 A 4.024 4.024 0 0 0 139.245 6.091 L 139.245 6.75 A 2.463 2.463 0 0 1 138.812 6.829 A 2.157 2.157 0 0 1 138.621 6.838 Q 138.174 6.838 137.907 6.616 A 0.856 0.856 0 0 1 137.799 6.508 Q 137.572 6.238 137.531 5.78 A 2.351 2.351 0 0 1 137.522 5.572 L 137.522 2.624 L 136.657 2.624 L 136.657 1.995 L 137.522 1.995 L 137.522 0.844 Z M 2.043 4.386 L 2.043 4.329 A 3.057 3.057 0 0 1 2.13 3.587 A 2.573 2.573 0 0 1 2.318 3.072 A 2.16 2.16 0 0 1 2.733 2.486 A 1.957 1.957 0 0 1 3.083 2.21 A 2.036 2.036 0 0 1 4.027 1.913 A 2.491 2.491 0 0 1 4.201 1.907 A 2.277 2.277 0 0 1 4.955 2.027 A 1.937 1.937 0 0 1 5.772 2.58 A 2.29 2.29 0 0 1 6.291 3.608 A 3.373 3.373 0 0 1 6.372 4.368 L 6.372 4.425 A 3.114 3.114 0 0 1 6.293 5.142 A 2.577 2.577 0 0 1 6.106 5.671 A 2.056 2.056 0 0 1 5.579 6.361 A 2.001 2.001 0 0 1 5.346 6.53 A 2.045 2.045 0 0 1 4.426 6.829 A 2.529 2.529 0 0 1 4.21 6.838 A 2.262 2.262 0 0 1 3.46 6.718 A 1.938 1.938 0 0 1 2.643 6.166 A 2.297 2.297 0 0 1 2.118 5.111 A 3.357 3.357 0 0 1 2.043 4.386 Z M 65.202 4.386 L 65.202 4.329 A 3.057 3.057 0 0 1 65.289 3.587 A 2.573 2.573 0 0 1 65.476 3.072 A 2.16 2.16 0 0 1 65.891 2.486 A 1.957 1.957 0 0 1 66.241 2.21 A 2.036 2.036 0 0 1 67.185 1.913 A 2.491 2.491 0 0 1 67.359 1.907 A 2.277 2.277 0 0 1 68.113 2.027 A 1.937 1.937 0 0 1 68.93 2.58 A 2.29 2.29 0 0 1 69.449 3.608 A 3.373 3.373 0 0 1 69.53 4.368 L 69.53 4.425 A 3.114 3.114 0 0 1 69.451 5.142 A 2.577 2.577 0 0 1 69.264 5.671 A 2.056 2.056 0 0 1 68.737 6.361 A 2.001 2.001 0 0 1 68.504 6.53 A 2.045 2.045 0 0 1 67.584 6.829 A 2.529 2.529 0 0 1 67.368 6.838 A 2.262 2.262 0 0 1 66.618 6.718 A 1.938 1.938 0 0 1 65.802 6.166 A 2.297 2.297 0 0 1 65.276 5.111 A 3.357 3.357 0 0 1 65.202 4.386 Z M 97.242 4.386 L 97.242 4.329 A 3.057 3.057 0 0 1 97.329 3.587 A 2.573 2.573 0 0 1 97.517 3.072 A 2.16 2.16 0 0 1 97.932 2.486 A 1.957 1.957 0 0 1 98.281 2.21 A 2.036 2.036 0 0 1 99.226 1.913 A 2.491 2.491 0 0 1 99.4 1.907 A 2.277 2.277 0 0 1 100.153 2.027 A 1.937 1.937 0 0 1 100.971 2.58 A 2.29 2.29 0 0 1 101.49 3.608 A 3.373 3.373 0 0 1 101.571 4.368 L 101.571 4.425 A 3.114 3.114 0 0 1 101.491 5.142 A 2.577 2.577 0 0 1 101.305 5.671 A 2.056 2.056 0 0 1 100.778 6.361 A 2.001 2.001 0 0 1 100.545 6.53 A 2.045 2.045 0 0 1 99.625 6.829 A 2.529 2.529 0 0 1 99.409 6.838 A 2.262 2.262 0 0 1 98.658 6.718 A 1.938 1.938 0 0 1 97.842 6.166 A 2.297 2.297 0 0 1 97.316 5.111 A 3.357 3.357 0 0 1 97.242 4.386 Z M 54.826 1.969 L 54.826 2.725 A 2.251 2.251 0 0 0 54.583 2.698 A 2.782 2.782 0 0 0 54.426 2.694 Q 53.648 2.694 53.357 3.338 A 1.445 1.445 0 0 0 53.341 3.375 L 53.341 6.75 L 52.528 6.75 L 52.528 1.995 L 53.319 1.995 L 53.332 2.544 Q 53.712 1.938 54.395 1.909 A 1.636 1.636 0 0 1 54.466 1.907 Q 54.703 1.907 54.826 1.969 Z M 104.889 1.969 L 104.889 2.725 A 2.251 2.251 0 0 0 104.646 2.698 A 2.782 2.782 0 0 0 104.489 2.694 Q 103.711 2.694 103.419 3.338 A 1.445 1.445 0 0 0 103.403 3.375 L 103.403 6.75 L 102.59 6.75 L 102.59 1.995 L 103.381 1.995 L 103.395 2.544 Q 103.775 1.938 104.457 1.909 A 1.636 1.636 0 0 1 104.528 1.907 Q 104.766 1.907 104.889 1.969 Z M 0.844 0.352 L 0.844 6.75 L 0 6.75 L 0 0.352 L 0.844 0.352 Z M 26.024 1.995 L 26.024 6.75 L 25.211 6.75 L 25.211 1.995 L 26.024 1.995 Z M 46.178 1.995 L 46.178 6.75 L 45.365 6.75 L 45.365 1.995 L 46.178 1.995 Z M 64.116 1.995 L 64.116 6.75 L 63.303 6.75 L 63.303 1.995 L 64.116 1.995 Z M 125.925 1.995 L 125.925 6.75 L 125.112 6.75 L 125.112 1.995 L 125.925 1.995 Z M 2.861 4.425 A 2.772 2.772 0 0 0 2.908 4.954 Q 2.969 5.264 3.106 5.51 A 1.545 1.545 0 0 0 3.228 5.695 Q 3.595 6.174 4.21 6.174 A 1.269 1.269 0 0 0 4.699 6.083 Q 4.979 5.967 5.181 5.706 A 1.471 1.471 0 0 0 5.194 5.689 A 1.648 1.648 0 0 0 5.449 5.171 Q 5.518 4.945 5.544 4.672 A 3.655 3.655 0 0 0 5.559 4.329 A 2.687 2.687 0 0 0 5.508 3.789 Q 5.44 3.459 5.283 3.2 A 1.586 1.586 0 0 0 5.188 3.061 A 1.231 1.231 0 0 0 4.773 2.705 Q 4.52 2.575 4.201 2.575 Q 3.611 2.575 3.245 3.035 A 1.515 1.515 0 0 0 3.23 3.054 A 1.589 1.589 0 0 0 2.978 3.552 Q 2.908 3.772 2.88 4.039 A 3.676 3.676 0 0 0 2.861 4.425 Z M 66.019 4.425 A 2.772 2.772 0 0 0 66.066 4.954 Q 66.127 5.264 66.264 5.51 A 1.545 1.545 0 0 0 66.386 5.695 Q 66.753 6.174 67.368 6.174 A 1.269 1.269 0 0 0 67.858 6.083 Q 68.137 5.967 68.34 5.706 A 1.471 1.471 0 0 0 68.353 5.689 A 1.648 1.648 0 0 0 68.607 5.171 Q 68.676 4.945 68.702 4.672 A 3.655 3.655 0 0 0 68.717 4.329 A 2.687 2.687 0 0 0 68.666 3.789 Q 68.598 3.459 68.441 3.2 A 1.586 1.586 0 0 0 68.346 3.061 A 1.231 1.231 0 0 0 67.931 2.705 Q 67.678 2.575 67.359 2.575 Q 66.769 2.575 66.403 3.035 A 1.515 1.515 0 0 0 66.388 3.054 A 1.589 1.589 0 0 0 66.136 3.552 Q 66.067 3.772 66.038 4.039 A 3.676 3.676 0 0 0 66.019 4.425 Z M 98.06 4.425 A 2.772 2.772 0 0 0 98.107 4.954 Q 98.167 5.264 98.305 5.51 A 1.545 1.545 0 0 0 98.427 5.695 Q 98.793 6.174 99.409 6.174 A 1.269 1.269 0 0 0 99.898 6.083 Q 100.177 5.967 100.38 5.706 A 1.471 1.471 0 0 0 100.393 5.689 A 1.648 1.648 0 0 0 100.648 5.171 Q 100.717 4.945 100.742 4.672 A 3.655 3.655 0 0 0 100.758 4.329 A 2.687 2.687 0 0 0 100.707 3.789 Q 100.639 3.459 100.482 3.2 A 1.586 1.586 0 0 0 100.386 3.061 A 1.231 1.231 0 0 0 99.971 2.705 Q 99.718 2.575 99.4 2.575 Q 98.81 2.575 98.444 3.035 A 1.515 1.515 0 0 0 98.429 3.054 A 1.589 1.589 0 0 0 98.177 3.552 Q 98.107 3.772 98.079 4.039 A 3.676 3.676 0 0 0 98.06 4.425 Z M 48.292 3.344 L 48.292 5.401 A 1.528 1.528 0 0 0 48.578 5.807 Q 48.9 6.127 49.39 6.147 A 1.621 1.621 0 0 0 49.456 6.148 A 1.206 1.206 0 0 0 49.873 6.079 A 1.04 1.04 0 0 0 50.366 5.695 Q 50.691 5.243 50.691 4.333 Q 50.691 3.502 50.37 3.05 A 1.03 1.03 0 0 0 49.62 2.607 A 1.449 1.449 0 0 0 49.447 2.597 A 1.34 1.34 0 0 0 48.938 2.69 Q 48.519 2.86 48.292 3.344 Z M 35.297 5.449 L 35.297 3.278 A 1.439 1.439 0 0 0 34.996 2.891 Q 34.692 2.62 34.252 2.599 A 1.578 1.578 0 0 0 34.176 2.597 Q 33.584 2.597 33.251 3.056 A 1.51 1.51 0 0 0 33.04 3.484 Q 32.974 3.689 32.943 3.939 A 3.955 3.955 0 0 0 32.915 4.425 Q 32.915 5.229 33.245 5.689 Q 33.574 6.148 34.167 6.148 A 1.32 1.32 0 0 0 34.677 6.054 Q 35.069 5.891 35.297 5.449 Z M 130.232 5.449 L 130.232 3.278 A 1.439 1.439 0 0 0 129.931 2.891 Q 129.627 2.62 129.187 2.599 A 1.578 1.578 0 0 0 129.111 2.597 Q 128.519 2.597 128.186 3.056 A 1.51 1.51 0 0 0 127.975 3.484 Q 127.909 3.689 127.878 3.939 A 3.955 3.955 0 0 0 127.85 4.425 Q 127.85 5.229 128.18 5.689 Q 128.509 6.148 129.103 6.148 A 1.32 1.32 0 0 0 129.612 6.054 Q 130.004 5.891 130.232 5.449 Z M 110.298 1.639 L 108.404 4.601 L 110.395 4.601 L 110.395 1.463 L 110.298 1.639 Z M 116.051 5.005 A 1.375 1.375 0 0 0 115.991 4.592 A 1.109 1.109 0 0 0 115.71 4.131 A 1.148 1.148 0 0 0 115.039 3.807 A 1.593 1.593 0 0 0 114.82 3.792 A 1.466 1.466 0 0 0 114.432 3.841 A 1.086 1.086 0 0 0 113.939 4.126 A 1.123 1.123 0 0 0 113.626 4.762 A 1.572 1.572 0 0 0 113.607 5.005 A 1.48 1.48 0 0 0 113.649 5.367 A 1.019 1.019 0 0 0 113.93 5.862 Q 114.237 6.158 114.769 6.173 A 2.053 2.053 0 0 0 114.829 6.174 Q 115.323 6.174 115.633 5.94 A 1.018 1.018 0 0 0 115.726 5.86 A 1.041 1.041 0 0 0 116.025 5.292 A 1.518 1.518 0 0 0 116.051 5.005 Z M 114.829 0.932 A 1.259 1.259 0 0 0 114.476 0.979 A 0.973 0.973 0 0 0 114.053 1.228 Q 113.757 1.525 113.757 2.035 A 1.325 1.325 0 0 0 113.801 2.387 A 0.994 0.994 0 0 0 114.049 2.823 A 0.974 0.974 0 0 0 114.611 3.108 A 1.382 1.382 0 0 0 114.829 3.125 A 1.279 1.279 0 0 0 115.174 3.08 A 0.952 0.952 0 0 0 115.609 2.823 A 1.018 1.018 0 0 0 115.884 2.26 A 1.426 1.426 0 0 0 115.901 2.035 A 1.282 1.282 0 0 0 115.851 1.668 A 1.013 1.013 0 0 0 115.598 1.239 Q 115.295 0.932 114.829 0.932 Z M 58.206 5.418 L 58.206 4.443 L 57.568 4.443 Q 56.074 4.443 56.074 5.317 Q 56.074 5.7 56.329 5.915 A 0.893 0.893 0 0 0 56.743 6.108 A 1.259 1.259 0 0 0 56.984 6.13 A 1.429 1.429 0 0 0 57.709 5.933 A 1.335 1.335 0 0 0 58.005 5.705 A 1.108 1.108 0 0 0 58.206 5.418 Z M 83.716 3.938 L 86.098 3.938 L 86.098 3.876 Q 86.072 3.417 85.901 3.111 A 1.13 1.13 0 0 0 85.764 2.916 A 0.983 0.983 0 0 0 85.109 2.584 A 1.39 1.39 0 0 0 84.955 2.575 A 1.106 1.106 0 0 0 84.433 2.698 A 1.14 1.14 0 0 0 84.129 2.933 A 1.417 1.417 0 0 0 83.852 3.379 Q 83.779 3.563 83.739 3.785 A 2.741 2.741 0 0 0 83.716 3.938 Z M 25.146 0.734 Q 25.146 0.536 25.266 0.4 Q 25.378 0.274 25.59 0.264 A 0.783 0.783 0 0 1 25.625 0.264 Q 25.862 0.264 25.985 0.4 A 0.474 0.474 0 0 1 26.107 0.703 A 0.614 0.614 0 0 1 26.108 0.734 A 0.523 0.523 0 0 1 26.083 0.9 A 0.442 0.442 0 0 1 25.985 1.063 Q 25.872 1.184 25.664 1.194 A 0.803 0.803 0 0 1 25.625 1.195 Q 25.452 1.195 25.341 1.126 A 0.362 0.362 0 0 1 25.266 1.063 A 0.456 0.456 0 0 1 25.148 0.788 A 0.605 0.605 0 0 1 25.146 0.734 Z M 45.299 0.734 Q 45.299 0.536 45.42 0.4 Q 45.532 0.274 45.743 0.264 A 0.783 0.783 0 0 1 45.778 0.264 Q 46.015 0.264 46.138 0.4 A 0.474 0.474 0 0 1 46.26 0.703 A 0.614 0.614 0 0 1 46.261 0.734 A 0.523 0.523 0 0 1 46.236 0.9 A 0.442 0.442 0 0 1 46.138 1.063 Q 46.026 1.184 45.818 1.194 A 0.803 0.803 0 0 1 45.778 1.195 Q 45.606 1.195 45.495 1.126 A 0.362 0.362 0 0 1 45.42 1.063 A 0.456 0.456 0 0 1 45.301 0.788 A 0.605 0.605 0 0 1 45.299 0.734 Z M 63.237 0.734 Q 63.237 0.536 63.358 0.4 Q 63.47 0.274 63.682 0.264 A 0.783 0.783 0 0 1 63.716 0.264 Q 63.954 0.264 64.077 0.4 A 0.474 0.474 0 0 1 64.199 0.703 A 0.614 0.614 0 0 1 64.2 0.734 A 0.523 0.523 0 0 1 64.174 0.9 A 0.442 0.442 0 0 1 64.077 1.063 Q 63.964 1.184 63.756 1.194 A 0.803 0.803 0 0 1 63.716 1.195 Q 63.544 1.195 63.433 1.126 A 0.362 0.362 0 0 1 63.358 1.063 A 0.456 0.456 0 0 1 63.24 0.788 A 0.605 0.605 0 0 1 63.237 0.734 Z M 125.046 0.734 Q 125.046 0.536 125.167 0.4 Q 125.279 0.274 125.491 0.264 A 0.783 0.783 0 0 1 125.525 0.264 Q 125.763 0.264 125.886 0.4 A 0.474 0.474 0 0 1 126.008 0.703 A 0.614 0.614 0 0 1 126.009 0.734 A 0.523 0.523 0 0 1 125.984 0.9 A 0.442 0.442 0 0 1 125.886 1.063 Q 125.773 1.184 125.565 1.194 A 0.803 0.803 0 0 1 125.525 1.195 Q 125.353 1.195 125.242 1.126 A 0.362 0.362 0 0 1 125.167 1.063 A 0.456 0.456 0 0 1 125.049 0.788 A 0.605 0.605 0 0 1 125.046 0.734 Z" vector-effect="non-scaling-stroke"/></g>
</svgversion="1.0" encoding="UTF-8"?>
<svg width="48px" height="48px" viewBox="0 0 48 48" version="1.1" xmlns="http://www.w3.org/2000/svg" xmlns:xlink="http://www.w3.org/1999/xlink">
    <title>Icon-Resource/IoT/Res_AWS-IoT_Thing_Vibration-Sensor_48_Light</title>
    <g id="Icon-Resource/IoT/Res_AWS-IoT_Thing_Vibration-Sensor_48" stroke="none" stroke-width="1" fill="none" fill-rule="evenodd">
        <path transform="translate(12.000000, 8.000000), scale(.65)" d="M30.449,30.2847 L27.167,32.0547 L26.218,30.2937 L28.258,29.1937 L27.746,25.8807 L29.198,23.9997 L27.746,22.1187 L28.258,18.8057 L26.218,17.7067 L27.167,15.9457 L30.449,17.7157 L29.853,21.5767 L31.725,23.9997 L29.853,26.4237 L30.449,30.2847 Z M37.358,23.9997 L34.303,27.3227 L35.26,32.5187 L29.996,35.8457 L28.928,34.1547 L33.049,31.5507 L32.157,26.7037 L34.641,23.9997 L32.157,21.2967 L33.049,16.4497 L28.928,13.8457 L29.996,12.1547 L35.26,15.4817 L34.303,20.6777 L37.358,23.9997 Z M19.742,29.1937 L21.782,30.2937 L20.833,32.0547 L17.551,30.2847 L18.146,26.4237 L16.274,23.9997 L18.146,21.5767 L17.551,17.7157 L20.833,15.9457 L21.782,17.7067 L19.742,18.8057 L20.254,22.1187 L18.802,23.9997 L20.254,25.8807 L19.742,29.1937 Z M14.951,31.5507 L19.072,34.1547 L18.004,35.8457 L12.74,32.5187 L13.696,27.3227 L10.641,23.9997 L13.696,20.6777 L12.74,15.4817 L18.004,12.1547 L19.072,13.8457 L14.951,16.4497 L15.843,21.2967 L13.358,23.9997 L15.843,26.7037 L14.951,31.5507 Z M24,24.9997 C23.448,24.9997 23,24.5517 23,23.9997 C23,23.4487 23.448,22.9997 24,22.9997 C24.552,22.9997 25,23.4487 25,23.9997 C25,24.5517 24.552,24.9997 24,24.9997 L24,24.9997 Z M24,20.9997 C22.345,20.9997 21,22.3457 21,23.9997 C21,25.6547 22.345,26.9997 24,26.9997 C25.654,26.9997 27,25.6547 27,23.9997 C27,22.3457 25.654,20.9997 24,20.9997 L24,20.9997 Z M39,37.8657 C39,38.4907 38.491,38.9997 37.865,38.9997 L10.135,38.9997 C9.509,38.9997 9,38.4907 9,37.8657 L9,10.1347 C9,9.5097 9.509,8.9997 10.135,8.9997 L37.865,8.9997 C38.491,8.9997 39,9.5097 39,10.1347 L39,37.8657 Z M46,14.9997 L46,12.9997 L41,12.9997 L41,10.1347 C41,8.4067 39.594,6.9997 37.865,6.9997 L35,6.9997 L35,1.9997 L33,1.9997 L33,6.9997 L30,6.9997 L30,1.9997 L28,1.9997 L28,6.9997 L25,6.9997 L25,1.9997 L23,1.9997 L23,6.9997 L20,6.9997 L20,1.9997 L18,1.9997 L18,6.9997 L15,6.9997 L15,1.9997 L13,1.9997 L13,6.9997 L10.135,6.9997 C8.406,6.9997 7,8.4067 7,10.1347 L7,12.9997 L2,12.9997 L2,14.9997 L7,14.9997 L7,17.9997 L2,17.9997 L2,19.9997 L7,19.9997 L7,22.9997 L2,22.9997 L2,24.9997 L7,24.9997 L7,27.9997 L2,27.9997 L2,29.9997 L7,29.9997 L7,32.9997 L2,32.9997 L2,34.9997 L7,34.9997 L7,37.8657 C7,39.5937 8.406,40.9997 10.135,40.9997 L13,40.9997 L13,45.9997 L15,45.9997 L15,40.9997 L18,40.9997 L18,45.9997 L20,45.9997 L20,40.9997 L23,40.9997 L23,45.9997 L25,45.9997 L25,40.9997 L28,40.9997 L28,45.9997 L30,45.9997 L30,40.9997 L33,40.9997 L33,45.9997 L35,45.9997 L35,40.9997 L37.865,40.9997 C39.594,40.9997 41,39.5937 41,37.8657 L41,34.9997 L46,34.9997 L46,32.9997 L41,32.9997 L41,29.9997 L46,29.9997 L46,27.9997 L41,27.9997 L41,24.9997 L46,24.9997 L46,22.9997 L41,22.9997 L41,19.9997 L46,19.9997 L46,17.9997 L41,17.9997 L41,14.9997 L46,14.9997 Z" id="Fill-1" fill="#000000"></path>
    </g><g transform="translate(25, 83)" id="svgGroup" stroke-linecap="round" fill-rule="evenodd" font-size="9pt" stroke="#000" stroke-width="0.25mm" fill="#000" style="stroke:#000;stroke-width:0.25mm;fill:#000"><path d="M 23.12 0.088 L 24.13 4.469 L 24.253 5.313 L 24.434 4.553 L 25.699 0.088 L 26.411 0.088 L 27.646 4.553 L 27.822 5.326 L 27.958 4.465 L 28.951 0.088 L 29.799 0.088 L 28.248 6.486 L 27.479 6.486 L 26.161 1.824 L 26.06 1.336 L 25.958 1.824 L 24.592 6.486 L 23.823 6.486 L 22.276 0.088 L 23.12 0.088 Z M 34.98 1.938 L 34.132 1.938 A 1.466 1.466 0 0 0 34.083 1.546 A 1.066 1.066 0 0 0 33.763 1.026 A 1.211 1.211 0 0 0 33.294 0.77 Q 33.042 0.694 32.722 0.694 A 2.286 2.286 0 0 0 32.342 0.724 Q 32.14 0.758 31.977 0.831 A 1.101 1.101 0 0 0 31.748 0.969 A 0.892 0.892 0 0 0 31.403 1.624 A 1.267 1.267 0 0 0 31.399 1.732 A 0.806 0.806 0 0 0 31.667 2.337 A 1.134 1.134 0 0 0 31.731 2.393 A 1.562 1.562 0 0 0 31.969 2.549 Q 32.299 2.73 32.86 2.887 A 8.228 8.228 0 0 1 33.325 3.032 Q 33.56 3.113 33.754 3.2 A 3.297 3.297 0 0 1 34.108 3.382 A 2.342 2.342 0 0 1 34.447 3.626 Q 34.637 3.792 34.759 3.985 A 1.45 1.45 0 0 1 34.776 4.012 A 1.498 1.498 0 0 1 34.972 4.568 A 1.948 1.948 0 0 1 34.994 4.86 A 1.606 1.606 0 0 1 34.871 5.497 Q 34.726 5.838 34.408 6.09 A 1.886 1.886 0 0 1 34.387 6.106 Q 33.781 6.574 32.766 6.574 A 3.023 3.023 0 0 1 31.625 6.36 A 2.917 2.917 0 0 1 31.535 6.322 A 2.383 2.383 0 0 1 31.057 6.044 A 1.874 1.874 0 0 1 30.654 5.629 A 1.689 1.689 0 0 1 30.344 4.632 L 31.192 4.632 A 1.261 1.261 0 0 0 31.262 5.059 A 1.074 1.074 0 0 0 31.621 5.548 Q 32.005 5.85 32.622 5.881 A 2.87 2.87 0 0 0 32.766 5.884 A 2.628 2.628 0 0 0 33.153 5.858 Q 33.349 5.828 33.508 5.767 A 1.129 1.129 0 0 0 33.79 5.612 Q 34.146 5.339 34.146 4.869 A 1.074 1.074 0 0 0 34.103 4.559 A 0.816 0.816 0 0 0 33.816 4.142 Q 33.486 3.885 32.621 3.634 Q 31.535 3.322 31.041 2.868 Q 30.546 2.413 30.546 1.745 Q 30.546 0.989 31.151 0.494 A 2.121 2.121 0 0 1 32.041 0.071 A 3.087 3.087 0 0 1 32.722 0 A 2.913 2.913 0 0 1 33.382 0.072 A 2.372 2.372 0 0 1 33.897 0.255 A 2.051 2.051 0 0 1 34.428 0.626 A 1.834 1.834 0 0 1 34.697 0.958 A 1.798 1.798 0 0 1 34.98 1.938 Z M 3.74 6.486 L 2.351 3.898 L 0.848 3.898 L 0.848 6.486 L 0 6.486 L 0 0.088 L 2.118 0.088 A 3.809 3.809 0 0 1 2.76 0.138 Q 3.102 0.197 3.376 0.324 A 1.789 1.789 0 0 1 3.781 0.58 A 1.588 1.588 0 0 1 4.307 1.469 A 2.453 2.453 0 0 1 4.364 2.013 A 1.864 1.864 0 0 1 4.273 2.604 A 1.64 1.64 0 0 1 4.041 3.054 A 1.849 1.849 0 0 1 3.382 3.611 A 2.342 2.342 0 0 1 3.142 3.718 L 4.645 6.434 L 4.645 6.486 L 3.74 6.486 Z M 13.724 3.129 L 12.907 3.129 Q 12.907 2.795 12.623 2.553 Q 12.34 2.312 11.909 2.312 Q 11.465 2.312 11.215 2.505 A 0.653 0.653 0 0 0 11.04 2.704 Q 10.967 2.835 10.964 3 A 0.771 0.771 0 0 0 10.964 3.01 A 0.588 0.588 0 0 0 10.994 3.203 A 0.48 0.48 0 0 0 11.197 3.454 A 1.093 1.093 0 0 0 11.348 3.533 Q 11.512 3.605 11.767 3.673 A 6.581 6.581 0 0 0 12.039 3.74 A 6.318 6.318 0 0 1 12.446 3.845 Q 12.783 3.944 13.025 4.065 A 1.901 1.901 0 0 1 13.281 4.218 Q 13.418 4.315 13.516 4.429 A 1.06 1.06 0 0 1 13.586 4.52 A 1.024 1.024 0 0 1 13.748 4.927 A 1.388 1.388 0 0 1 13.768 5.168 Q 13.768 5.805 13.258 6.19 Q 12.776 6.554 12.022 6.573 A 3.337 3.337 0 0 1 11.936 6.574 A 2.746 2.746 0 0 1 11.401 6.525 A 2.124 2.124 0 0 1 10.925 6.372 A 1.771 1.771 0 0 1 10.491 6.094 A 1.54 1.54 0 0 1 10.237 5.807 Q 9.989 5.445 9.989 5.023 L 10.802 5.023 A 0.932 0.932 0 0 0 10.875 5.348 A 0.827 0.827 0 0 0 11.129 5.671 A 1.072 1.072 0 0 0 11.531 5.864 Q 11.686 5.903 11.867 5.91 A 2.013 2.013 0 0 0 11.936 5.911 A 1.863 1.863 0 0 0 12.231 5.889 Q 12.393 5.863 12.524 5.806 A 0.941 0.941 0 0 0 12.676 5.724 A 0.689 0.689 0 0 0 12.841 5.574 A 0.554 0.554 0 0 0 12.955 5.225 A 0.698 0.698 0 0 0 12.919 4.994 A 0.581 0.581 0 0 0 12.707 4.713 A 1.05 1.05 0 0 0 12.538 4.615 Q 12.349 4.524 12.054 4.449 A 5.392 5.392 0 0 0 11.841 4.399 A 6.342 6.342 0 0 1 11.48 4.311 Q 11.11 4.209 10.861 4.083 Q 10.562 3.93 10.392 3.731 A 1.017 1.017 0 0 1 10.325 3.643 Q 10.151 3.388 10.151 3.037 A 1.206 1.206 0 0 1 10.55 2.132 A 1.694 1.694 0 0 1 10.646 2.048 A 1.752 1.752 0 0 1 11.429 1.688 A 2.471 2.471 0 0 1 11.909 1.644 A 2.559 2.559 0 0 1 12.473 1.702 A 1.757 1.757 0 0 1 13.221 2.061 Q 13.724 2.479 13.724 3.129 Z M 21.327 6.486 L 20.716 4.816 L 18.035 4.816 L 17.433 6.486 L 16.563 6.486 L 19.006 0.088 L 19.745 0.088 L 22.192 6.486 L 21.327 6.486 Z M 5.212 4.241 L 5.212 4.091 A 3.17 3.17 0 0 1 5.288 3.382 A 2.581 2.581 0 0 1 5.482 2.828 A 2.191 2.191 0 0 1 5.93 2.202 A 2.033 2.033 0 0 1 6.238 1.958 Q 6.724 1.644 7.291 1.644 A 2.254 2.254 0 0 1 7.904 1.723 A 1.639 1.639 0 0 1 8.732 2.254 Q 9.246 2.865 9.246 4.003 L 9.246 4.342 L 6.025 4.342 A 2.111 2.111 0 0 0 6.096 4.85 A 1.516 1.516 0 0 0 6.436 5.478 A 1.282 1.282 0 0 0 7.37 5.909 A 1.652 1.652 0 0 0 7.436 5.911 A 1.763 1.763 0 0 0 7.764 5.882 Q 7.988 5.839 8.165 5.735 A 1.827 1.827 0 0 0 8.674 5.287 A 2.068 2.068 0 0 0 8.688 5.269 L 9.185 5.656 A 1.926 1.926 0 0 1 7.785 6.547 A 2.749 2.749 0 0 1 7.392 6.574 A 2.394 2.394 0 0 1 6.64 6.461 A 1.974 1.974 0 0 1 5.818 5.939 Q 5.212 5.304 5.212 4.241 Z M 0.848 0.782 L 0.848 3.208 L 2.145 3.208 Q 2.685 3.208 3.035 2.968 A 1.174 1.174 0 0 0 3.144 2.883 A 1.069 1.069 0 0 0 3.51 2.146 A 1.486 1.486 0 0 0 3.516 2.013 Q 3.516 1.47 3.22 1.159 A 1 1 0 0 0 3.162 1.103 Q 2.808 0.787 2.14 0.782 L 0.848 0.782 Z M 19.375 1.129 L 18.29 4.122 L 20.465 4.122 L 19.375 1.129 Z M 6.051 3.674 L 8.433 3.674 L 8.433 3.612 Q 8.407 3.153 8.236 2.848 A 1.13 1.13 0 0 0 8.099 2.652 A 0.983 0.983 0 0 0 7.445 2.32 A 1.39 1.39 0 0 0 7.291 2.312 A 1.106 1.106 0 0 0 6.768 2.435 A 1.14 1.14 0 0 0 6.464 2.67 A 1.417 1.417 0 0 0 6.188 3.116 Q 6.114 3.3 6.074 3.522 A 2.741 2.741 0 0 0 6.051 3.674 Z" vector-effect="non-scaling-stroke"/></g><g transform="translate(25, 93)" id="svgGroup" stroke-linecap="round" fill-rule="evenodd" font-size="9pt" stroke="#000" stroke-width="0.25mm" fill="#000" style="stroke:#000;stroke-width:0.25mm;fill:#000"><path d="M 82.116 2.202 L 81.268 2.202 A 1.466 1.466 0 0 0 81.218 1.809 A 1.066 1.066 0 0 0 80.899 1.29 A 1.211 1.211 0 0 0 80.429 1.033 Q 80.178 0.958 79.857 0.958 A 2.286 2.286 0 0 0 79.477 0.988 Q 79.276 1.022 79.113 1.095 A 1.101 1.101 0 0 0 78.884 1.233 A 0.892 0.892 0 0 0 78.539 1.887 A 1.267 1.267 0 0 0 78.535 1.995 A 0.806 0.806 0 0 0 78.802 2.6 A 1.134 1.134 0 0 0 78.866 2.656 A 1.562 1.562 0 0 0 79.105 2.813 Q 79.435 2.993 79.996 3.151 A 8.228 8.228 0 0 1 80.46 3.295 Q 80.695 3.377 80.89 3.464 A 3.297 3.297 0 0 1 81.244 3.645 A 2.342 2.342 0 0 1 81.583 3.889 Q 81.773 4.056 81.895 4.248 A 1.45 1.45 0 0 1 81.912 4.276 A 1.498 1.498 0 0 1 82.108 4.832 A 1.948 1.948 0 0 1 82.129 5.124 A 1.606 1.606 0 0 1 82.007 5.76 Q 81.862 6.101 81.544 6.354 A 1.886 1.886 0 0 1 81.523 6.37 Q 80.917 6.838 79.901 6.838 A 3.023 3.023 0 0 1 78.761 6.623 A 2.917 2.917 0 0 1 78.671 6.585 A 2.383 2.383 0 0 1 78.193 6.307 A 1.874 1.874 0 0 1 77.79 5.893 A 1.689 1.689 0 0 1 77.48 4.896 L 78.328 4.896 A 1.261 1.261 0 0 0 78.397 5.323 A 1.074 1.074 0 0 0 78.757 5.812 Q 79.141 6.113 79.757 6.144 A 2.87 2.87 0 0 0 79.901 6.148 A 2.628 2.628 0 0 0 80.288 6.121 Q 80.484 6.092 80.644 6.031 A 1.129 1.129 0 0 0 80.925 5.875 Q 81.281 5.603 81.281 5.133 A 1.074 1.074 0 0 0 81.239 4.822 A 0.816 0.816 0 0 0 80.952 4.406 Q 80.622 4.148 79.756 3.898 Q 78.671 3.586 78.177 3.131 Q 77.682 2.676 77.682 2.008 Q 77.682 1.252 78.286 0.758 A 2.121 2.121 0 0 1 79.177 0.335 A 3.087 3.087 0 0 1 79.857 0.264 A 2.913 2.913 0 0 1 80.517 0.336 A 2.372 2.372 0 0 1 81.033 0.519 A 2.051 2.051 0 0 1 81.564 0.889 A 1.834 1.834 0 0 1 81.833 1.222 A 1.798 1.798 0 0 1 82.116 2.202 Z M 20.997 0 L 20.997 2.571 A 1.767 1.767 0 0 1 21.663 2.053 A 1.832 1.832 0 0 1 22.403 1.907 A 1.905 1.905 0 0 1 23.037 2.004 Q 23.879 2.3 23.922 3.506 A 3.668 3.668 0 0 1 23.924 3.608 L 23.924 6.75 L 23.111 6.75 L 23.111 3.604 A 1.837 1.837 0 0 0 23.089 3.324 Q 23.038 3.017 22.876 2.843 Q 22.69 2.645 22.336 2.606 A 1.66 1.66 0 0 0 22.157 2.597 A 1.253 1.253 0 0 0 21.743 2.664 A 1.123 1.123 0 0 0 21.463 2.808 A 1.432 1.432 0 0 0 20.997 3.362 L 20.997 6.75 L 20.184 6.75 L 20.184 0 L 20.997 0 Z M 133.088 0 L 133.088 2.571 A 1.767 1.767 0 0 1 133.754 2.053 A 1.832 1.832 0 0 1 134.495 1.907 A 1.905 1.905 0 0 1 135.128 2.004 Q 135.97 2.3 136.013 3.506 A 3.668 3.668 0 0 1 136.015 3.608 L 136.015 6.75 L 135.202 6.75 L 135.202 3.604 A 1.837 1.837 0 0 0 135.18 3.324 Q 135.13 3.017 134.967 2.843 Q 134.781 2.645 134.428 2.606 A 1.66 1.66 0 0 0 134.249 2.597 A 1.253 1.253 0 0 0 133.834 2.664 A 1.123 1.123 0 0 0 133.554 2.808 A 1.432 1.432 0 0 0 133.088 3.362 L 133.088 6.75 L 132.275 6.75 L 132.275 0 L 133.088 0 Z M 39.995 0.352 L 41.814 5.629 L 43.642 0.352 L 44.565 0.352 L 42.192 6.75 L 41.445 6.75 L 39.076 0.352 L 39.995 0.352 Z M 35.332 2.522 L 35.372 1.995 L 36.114 1.995 L 36.114 6.636 A 2.511 2.511 0 0 1 36.044 7.249 A 1.738 1.738 0 0 1 35.567 8.09 A 1.834 1.834 0 0 1 34.637 8.57 A 2.671 2.671 0 0 1 34.097 8.622 A 2.446 2.446 0 0 1 33.091 8.402 A 2.003 2.003 0 0 1 32.681 8.161 A 1.563 1.563 0 0 1 32.339 7.8 L 32.761 7.313 A 1.889 1.889 0 0 0 33.196 7.712 A 1.514 1.514 0 0 0 34.04 7.958 A 1.695 1.695 0 0 0 34.417 7.919 Q 34.685 7.858 34.879 7.702 A 1.037 1.037 0 0 0 34.965 7.625 A 1.09 1.09 0 0 0 35.242 7.132 Q 35.289 6.959 35.296 6.752 A 2.134 2.134 0 0 0 35.297 6.684 L 35.297 6.275 A 1.601 1.601 0 0 1 34.245 6.821 A 2.279 2.279 0 0 1 33.965 6.838 A 1.672 1.672 0 0 1 33.21 6.67 Q 32.888 6.51 32.638 6.197 A 2.14 2.14 0 0 1 32.614 6.166 A 2.316 2.316 0 0 1 32.231 5.386 Q 32.098 4.922 32.098 4.333 Q 32.098 3.472 32.406 2.884 A 2.096 2.096 0 0 1 32.612 2.564 Q 33.126 1.907 33.974 1.907 A 1.971 1.971 0 0 1 34.573 1.994 A 1.55 1.55 0 0 1 35.332 2.522 Z M 130.267 2.522 L 130.307 1.995 L 131.049 1.995 L 131.049 6.636 A 2.511 2.511 0 0 1 130.979 7.249 A 1.738 1.738 0 0 1 130.502 8.09 A 1.834 1.834 0 0 1 129.572 8.57 A 2.671 2.671 0 0 1 129.032 8.622 A 2.446 2.446 0 0 1 128.026 8.402 A 2.003 2.003 0 0 1 127.616 8.161 A 1.563 1.563 0 0 1 127.274 7.8 L 127.696 7.313 A 1.889 1.889 0 0 0 128.131 7.712 A 1.514 1.514 0 0 0 128.975 7.958 A 1.695 1.695 0 0 0 129.352 7.919 Q 129.62 7.858 129.815 7.702 A 1.037 1.037 0 0 0 129.9 7.625 A 1.09 1.09 0 0 0 130.177 7.132 Q 130.224 6.959 130.231 6.752 A 2.134 2.134 0 0 0 130.232 6.684 L 130.232 6.275 A 1.601 1.601 0 0 1 129.18 6.821 A 2.279 2.279 0 0 1 128.9 6.838 A 1.672 1.672 0 0 1 128.145 6.67 Q 127.823 6.51 127.573 6.197 A 2.14 2.14 0 0 1 127.549 6.166 A 2.316 2.316 0 0 1 127.166 5.386 Q 127.033 4.922 127.033 4.333 Q 127.033 3.472 127.341 2.884 A 2.096 2.096 0 0 1 127.547 2.564 Q 128.061 1.907 128.909 1.907 A 1.971 1.971 0 0 1 129.508 1.994 A 1.55 1.55 0 0 1 130.267 2.522 Z M 96.354 3.393 L 95.537 3.393 Q 95.537 3.059 95.254 2.817 Q 94.97 2.575 94.54 2.575 Q 94.096 2.575 93.845 2.769 A 0.653 0.653 0 0 0 93.67 2.967 Q 93.597 3.098 93.595 3.263 A 0.771 0.771 0 0 0 93.595 3.274 A 0.588 0.588 0 0 0 93.625 3.467 A 0.48 0.48 0 0 0 93.828 3.718 A 1.093 1.093 0 0 0 93.978 3.796 Q 94.142 3.868 94.398 3.937 A 6.581 6.581 0 0 0 94.669 4.003 A 6.318 6.318 0 0 1 95.077 4.108 Q 95.414 4.208 95.656 4.329 A 1.901 1.901 0 0 1 95.912 4.481 Q 96.049 4.579 96.146 4.692 A 1.06 1.06 0 0 1 96.216 4.783 A 1.024 1.024 0 0 1 96.378 5.191 A 1.388 1.388 0 0 1 96.398 5.432 Q 96.398 6.069 95.889 6.453 Q 95.406 6.817 94.652 6.837 A 3.337 3.337 0 0 1 94.566 6.838 A 2.746 2.746 0 0 1 94.032 6.788 A 2.124 2.124 0 0 1 93.555 6.636 A 1.771 1.771 0 0 1 93.121 6.358 A 1.54 1.54 0 0 1 92.867 6.071 Q 92.619 5.708 92.619 5.287 L 93.432 5.287 A 0.932 0.932 0 0 0 93.506 5.612 A 0.827 0.827 0 0 0 93.76 5.935 A 1.072 1.072 0 0 0 94.162 6.128 Q 94.316 6.167 94.498 6.173 A 2.013 2.013 0 0 0 94.566 6.174 A 1.863 1.863 0 0 0 94.862 6.152 Q 95.023 6.126 95.155 6.07 A 0.941 0.941 0 0 0 95.306 5.988 A 0.689 0.689 0 0 0 95.471 5.837 A 0.554 0.554 0 0 0 95.585 5.489 A 0.698 0.698 0 0 0 95.549 5.258 A 0.581 0.581 0 0 0 95.337 4.977 A 1.05 1.05 0 0 0 95.168 4.878 Q 94.979 4.788 94.684 4.712 A 5.392 5.392 0 0 0 94.471 4.663 A 6.342 6.342 0 0 1 94.11 4.575 Q 93.741 4.473 93.491 4.346 Q 93.193 4.194 93.022 3.994 A 1.017 1.017 0 0 1 92.955 3.907 Q 92.782 3.652 92.782 3.3 A 1.206 1.206 0 0 1 93.181 2.396 A 1.694 1.694 0 0 1 93.276 2.312 A 1.752 1.752 0 0 1 94.059 1.952 A 2.471 2.471 0 0 1 94.54 1.907 A 2.559 2.559 0 0 1 95.103 1.966 A 1.757 1.757 0 0 1 95.851 2.325 Q 96.354 2.742 96.354 3.393 Z M 27.325 1.995 L 28.094 1.995 L 28.121 2.593 Q 28.657 1.918 29.517 1.907 A 2.234 2.234 0 0 1 29.544 1.907 A 1.905 1.905 0 0 1 30.178 2.004 Q 31.02 2.3 31.063 3.506 A 3.668 3.668 0 0 1 31.065 3.608 L 31.065 6.75 L 30.252 6.75 L 30.252 3.604 A 1.837 1.837 0 0 0 30.23 3.324 Q 30.18 3.017 30.017 2.843 Q 29.831 2.645 29.477 2.606 A 1.66 1.66 0 0 0 29.298 2.597 A 1.253 1.253 0 0 0 28.884 2.664 A 1.123 1.123 0 0 0 28.604 2.808 A 1.432 1.432 0 0 0 28.138 3.362 L 28.138 6.75 L 27.325 6.75 L 27.325 1.995 Z M 70.55 1.995 L 71.319 1.995 L 71.345 2.593 Q 71.882 1.918 72.741 1.907 A 2.234 2.234 0 0 1 72.769 1.907 A 1.905 1.905 0 0 1 73.403 2.004 Q 74.244 2.3 74.287 3.506 A 3.668 3.668 0 0 1 74.29 3.608 L 74.29 6.75 L 73.477 6.75 L 73.477 3.604 A 1.837 1.837 0 0 0 73.454 3.324 Q 73.404 3.017 73.241 2.843 Q 73.055 2.645 72.702 2.606 A 1.66 1.66 0 0 0 72.523 2.597 A 1.253 1.253 0 0 0 72.109 2.664 A 1.123 1.123 0 0 0 71.829 2.808 A 1.432 1.432 0 0 0 71.363 3.362 L 71.363 6.75 L 70.55 6.75 L 70.55 1.995 Z M 87.851 1.995 L 88.62 1.995 L 88.646 2.593 Q 89.183 1.918 90.043 1.907 A 2.234 2.234 0 0 1 90.07 1.907 A 1.905 1.905 0 0 1 90.704 2.004 Q 91.546 2.3 91.589 3.506 A 3.668 3.668 0 0 1 91.591 3.608 L 91.591 6.75 L 90.778 6.75 L 90.778 3.604 A 1.837 1.837 0 0 0 90.756 3.324 Q 90.705 3.017 90.543 2.843 Q 90.357 2.645 90.003 2.606 A 1.66 1.66 0 0 0 89.824 2.597 A 1.253 1.253 0 0 0 89.41 2.664 A 1.123 1.123 0 0 0 89.13 2.808 A 1.432 1.432 0 0 0 88.664 3.362 L 88.664 6.75 L 87.851 6.75 L 87.851 1.995 Z M 11.94 0.352 L 11.94 1.046 L 9.883 1.046 L 9.883 6.75 L 9.044 6.75 L 9.044 1.046 L 6.992 1.046 L 6.992 0.352 L 11.94 0.352 Z M 19.362 0.352 L 19.362 1.046 L 17.306 1.046 L 17.306 6.75 L 16.466 6.75 L 16.466 1.046 L 14.414 1.046 L 14.414 0.352 L 19.362 0.352 Z M 59.186 6.75 L 58.333 6.75 A 0.632 0.632 0 0 1 58.298 6.66 Q 58.266 6.562 58.241 6.41 A 3.997 3.997 0 0 1 58.219 6.249 Q 57.652 6.838 56.865 6.838 A 2.033 2.033 0 0 1 56.336 6.772 A 1.529 1.529 0 0 1 55.712 6.44 Q 55.261 6.042 55.261 5.432 Q 55.261 4.689 55.826 4.278 Q 56.391 3.867 57.415 3.867 L 58.206 3.867 L 58.206 3.494 A 1.152 1.152 0 0 0 58.17 3.199 A 0.828 0.828 0 0 0 57.951 2.815 Q 57.734 2.6 57.344 2.568 A 1.748 1.748 0 0 0 57.199 2.562 Q 56.764 2.562 56.47 2.782 Q 56.175 3.001 56.175 3.313 L 55.358 3.313 A 1.041 1.041 0 0 1 55.483 2.825 A 1.409 1.409 0 0 1 55.611 2.626 Q 55.863 2.294 56.296 2.101 A 2.249 2.249 0 0 1 57.072 1.913 A 2.669 2.669 0 0 1 57.248 1.907 A 2.65 2.65 0 0 1 57.765 1.955 Q 58.072 2.016 58.311 2.156 A 1.439 1.439 0 0 1 58.535 2.318 A 1.396 1.396 0 0 1 58.989 3.144 A 1.998 1.998 0 0 1 59.019 3.45 L 59.019 5.638 Q 59.019 6.073 59.092 6.39 A 1.707 1.707 0 0 0 59.186 6.68 L 59.186 6.75 Z M 51.504 4.355 L 51.504 4.425 Q 51.504 5.308 51.175 5.909 A 2.141 2.141 0 0 1 51.003 6.177 A 1.647 1.647 0 0 1 50.416 6.673 Q 50.101 6.828 49.711 6.837 A 2.112 2.112 0 0 1 49.658 6.838 A 2.039 2.039 0 0 1 49.063 6.756 A 1.561 1.561 0 0 1 48.265 6.201 L 48.226 6.75 L 47.479 6.75 L 47.479 0 L 48.292 0 L 48.292 2.518 A 1.605 1.605 0 0 1 49.458 1.915 A 2.285 2.285 0 0 1 49.649 1.907 A 1.835 1.835 0 0 1 50.28 2.011 A 1.579 1.579 0 0 1 51.01 2.562 Q 51.424 3.11 51.491 3.998 A 4.727 4.727 0 0 1 51.504 4.355 Z M 82.876 4.504 L 82.876 4.355 A 3.17 3.17 0 0 1 82.953 3.646 A 2.581 2.581 0 0 1 83.147 3.092 A 2.191 2.191 0 0 1 83.594 2.466 A 2.033 2.033 0 0 1 83.903 2.221 Q 84.388 1.907 84.955 1.907 A 2.254 2.254 0 0 1 85.568 1.986 A 1.639 1.639 0 0 1 86.396 2.518 Q 86.911 3.129 86.911 4.267 L 86.911 4.605 L 83.689 4.605 A 2.111 2.111 0 0 0 83.761 5.114 A 1.516 1.516 0 0 0 84.1 5.741 A 1.282 1.282 0 0 0 85.034 6.173 A 1.652 1.652 0 0 0 85.1 6.174 A 1.763 1.763 0 0 0 85.428 6.145 Q 85.652 6.103 85.83 5.999 A 1.827 1.827 0 0 0 86.338 5.551 A 2.068 2.068 0 0 0 86.353 5.533 L 86.849 5.919 A 1.926 1.926 0 0 1 85.449 6.811 A 2.749 2.749 0 0 1 85.056 6.838 A 2.394 2.394 0 0 1 84.305 6.725 A 1.974 1.974 0 0 1 83.483 6.203 Q 82.876 5.568 82.876 4.504 Z M 121.175 0.352 L 121.175 6.06 L 124.207 6.06 L 124.207 6.75 L 120.327 6.75 L 120.327 0.352 L 121.175 0.352 Z M 111.212 0.352 L 111.212 4.601 L 112.1 4.601 L 112.1 5.265 L 111.212 5.265 L 111.212 6.75 L 110.395 6.75 L 110.395 5.265 L 107.481 5.265 L 107.481 4.786 L 110.347 0.352 L 111.212 0.352 Z M 116.611 2.592 A 1.544 1.544 0 0 0 116.714 2.021 A 2.226 2.226 0 0 0 116.693 1.707 A 1.566 1.566 0 0 0 116.194 0.738 A 1.754 1.754 0 0 0 115.428 0.333 A 2.443 2.443 0 0 0 114.829 0.264 A 2.539 2.539 0 0 0 114.32 0.312 A 1.767 1.767 0 0 0 113.462 0.738 Q 112.944 1.213 112.944 2.021 A 1.808 1.808 0 0 0 112.944 2.058 A 1.499 1.499 0 0 0 113.19 2.87 A 1.626 1.626 0 0 0 113.352 3.077 A 1.726 1.726 0 0 0 113.862 3.454 A 2.119 2.119 0 0 0 113.763 3.5 A 1.738 1.738 0 0 0 113.078 4.087 A 1.629 1.629 0 0 0 112.794 5.023 A 2.272 2.272 0 0 0 112.804 5.237 A 1.63 1.63 0 0 0 113.35 6.344 A 1.895 1.895 0 0 0 114.201 6.771 A 2.797 2.797 0 0 0 114.829 6.838 A 2.796 2.796 0 0 0 115.428 6.777 A 1.925 1.925 0 0 0 116.303 6.346 A 1.578 1.578 0 0 0 116.778 5.62 A 1.989 1.989 0 0 0 116.864 5.023 A 1.581 1.581 0 0 0 116.572 4.087 Q 116.279 3.674 115.778 3.458 Q 116.209 3.248 116.462 2.874 A 1.449 1.449 0 0 0 116.611 2.592 Z M 60.583 0.844 L 61.396 0.844 L 61.396 1.995 L 62.284 1.995 L 62.284 2.624 L 61.396 2.624 L 61.396 5.572 Q 61.396 5.858 61.515 6.001 Q 61.633 6.144 61.919 6.144 A 1.046 1.046 0 0 0 62.016 6.138 Q 62.119 6.129 62.259 6.101 A 4.024 4.024 0 0 0 62.306 6.091 L 62.306 6.75 A 2.463 2.463 0 0 1 61.873 6.829 A 2.157 2.157 0 0 1 61.682 6.838 Q 61.235 6.838 60.968 6.616 A 0.856 0.856 0 0 1 60.86 6.508 Q 60.632 6.238 60.592 5.78 A 2.351 2.351 0 0 1 60.583 5.572 L 60.583 2.624 L 59.717 2.624 L 59.717 1.995 L 60.583 1.995 L 60.583 0.844 Z M 137.522 0.844 L 138.335 0.844 L 138.335 1.995 L 139.223 1.995 L 139.223 2.624 L 138.335 2.624 L 138.335 5.572 Q 138.335 5.858 138.454 6.001 Q 138.573 6.144 138.858 6.144 A 1.046 1.046 0 0 0 138.956 6.138 Q 139.059 6.129 139.198 6.101 A 4.024 4.024 0 0 0 139.245 6.091 L 139.245 6.75 A 2.463 2.463 0 0 1 138.812 6.829 A 2.157 2.157 0 0 1 138.621 6.838 Q 138.174 6.838 137.907 6.616 A 0.856 0.856 0 0 1 137.799 6.508 Q 137.572 6.238 137.531 5.78 A 2.351 2.351 0 0 1 137.522 5.572 L 137.522 2.624 L 136.657 2.624 L 136.657 1.995 L 137.522 1.995 L 137.522 0.844 Z M 2.043 4.386 L 2.043 4.329 A 3.057 3.057 0 0 1 2.13 3.587 A 2.573 2.573 0 0 1 2.318 3.072 A 2.16 2.16 0 0 1 2.733 2.486 A 1.957 1.957 0 0 1 3.083 2.21 A 2.036 2.036 0 0 1 4.027 1.913 A 2.491 2.491 0 0 1 4.201 1.907 A 2.277 2.277 0 0 1 4.955 2.027 A 1.937 1.937 0 0 1 5.772 2.58 A 2.29 2.29 0 0 1 6.291 3.608 A 3.373 3.373 0 0 1 6.372 4.368 L 6.372 4.425 A 3.114 3.114 0 0 1 6.293 5.142 A 2.577 2.577 0 0 1 6.106 5.671 A 2.056 2.056 0 0 1 5.579 6.361 A 2.001 2.001 0 0 1 5.346 6.53 A 2.045 2.045 0 0 1 4.426 6.829 A 2.529 2.529 0 0 1 4.21 6.838 A 2.262 2.262 0 0 1 3.46 6.718 A 1.938 1.938 0 0 1 2.643 6.166 A 2.297 2.297 0 0 1 2.118 5.111 A 3.357 3.357 0 0 1 2.043 4.386 Z M 65.202 4.386 L 65.202 4.329 A 3.057 3.057 0 0 1 65.289 3.587 A 2.573 2.573 0 0 1 65.476 3.072 A 2.16 2.16 0 0 1 65.891 2.486 A 1.957 1.957 0 0 1 66.241 2.21 A 2.036 2.036 0 0 1 67.185 1.913 A 2.491 2.491 0 0 1 67.359 1.907 A 2.277 2.277 0 0 1 68.113 2.027 A 1.937 1.937 0 0 1 68.93 2.58 A 2.29 2.29 0 0 1 69.449 3.608 A 3.373 3.373 0 0 1 69.53 4.368 L 69.53 4.425 A 3.114 3.114 0 0 1 69.451 5.142 A 2.577 2.577 0 0 1 69.264 5.671 A 2.056 2.056 0 0 1 68.737 6.361 A 2.001 2.001 0 0 1 68.504 6.53 A 2.045 2.045 0 0 1 67.584 6.829 A 2.529 2.529 0 0 1 67.368 6.838 A 2.262 2.262 0 0 1 66.618 6.718 A 1.938 1.938 0 0 1 65.802 6.166 A 2.297 2.297 0 0 1 65.276 5.111 A 3.357 3.357 0 0 1 65.202 4.386 Z M 97.242 4.386 L 97.242 4.329 A 3.057 3.057 0 0 1 97.329 3.587 A 2.573 2.573 0 0 1 97.517 3.072 A 2.16 2.16 0 0 1 97.932 2.486 A 1.957 1.957 0 0 1 98.281 2.21 A 2.036 2.036 0 0 1 99.226 1.913 A 2.491 2.491 0 0 1 99.4 1.907 A 2.277 2.277 0 0 1 100.153 2.027 A 1.937 1.937 0 0 1 100.971 2.58 A 2.29 2.29 0 0 1 101.49 3.608 A 3.373 3.373 0 0 1 101.571 4.368 L 101.571 4.425 A 3.114 3.114 0 0 1 101.491 5.142 A 2.577 2.577 0 0 1 101.305 5.671 A 2.056 2.056 0 0 1 100.778 6.361 A 2.001 2.001 0 0 1 100.545 6.53 A 2.045 2.045 0 0 1 99.625 6.829 A 2.529 2.529 0 0 1 99.409 6.838 A 2.262 2.262 0 0 1 98.658 6.718 A 1.938 1.938 0 0 1 97.842 6.166 A 2.297 2.297 0 0 1 97.316 5.111 A 3.357 3.357 0 0 1 97.242 4.386 Z M 54.826 1.969 L 54.826 2.725 A 2.251 2.251 0 0 0 54.583 2.698 A 2.782 2.782 0 0 0 54.426 2.694 Q 53.648 2.694 53.357 3.338 A 1.445 1.445 0 0 0 53.341 3.375 L 53.341 6.75 L 52.528 6.75 L 52.528 1.995 L 53.319 1.995 L 53.332 2.544 Q 53.712 1.938 54.395 1.909 A 1.636 1.636 0 0 1 54.466 1.907 Q 54.703 1.907 54.826 1.969 Z M 104.889 1.969 L 104.889 2.725 A 2.251 2.251 0 0 0 104.646 2.698 A 2.782 2.782 0 0 0 104.489 2.694 Q 103.711 2.694 103.419 3.338 A 1.445 1.445 0 0 0 103.403 3.375 L 103.403 6.75 L 102.59 6.75 L 102.59 1.995 L 103.381 1.995 L 103.395 2.544 Q 103.775 1.938 104.457 1.909 A 1.636 1.636 0 0 1 104.528 1.907 Q 104.766 1.907 104.889 1.969 Z M 0.844 0.352 L 0.844 6.75 L 0 6.75 L 0 0.352 L 0.844 0.352 Z M 26.024 1.995 L 26.024 6.75 L 25.211 6.75 L 25.211 1.995 L 26.024 1.995 Z M 46.178 1.995 L 46.178 6.75 L 45.365 6.75 L 45.365 1.995 L 46.178 1.995 Z M 64.116 1.995 L 64.116 6.75 L 63.303 6.75 L 63.303 1.995 L 64.116 1.995 Z M 125.925 1.995 L 125.925 6.75 L 125.112 6.75 L 125.112 1.995 L 125.925 1.995 Z M 2.861 4.425 A 2.772 2.772 0 0 0 2.908 4.954 Q 2.969 5.264 3.106 5.51 A 1.545 1.545 0 0 0 3.228 5.695 Q 3.595 6.174 4.21 6.174 A 1.269 1.269 0 0 0 4.699 6.083 Q 4.979 5.967 5.181 5.706 A 1.471 1.471 0 0 0 5.194 5.689 A 1.648 1.648 0 0 0 5.449 5.171 Q 5.518 4.945 5.544 4.672 A 3.655 3.655 0 0 0 5.559 4.329 A 2.687 2.687 0 0 0 5.508 3.789 Q 5.44 3.459 5.283 3.2 A 1.586 1.586 0 0 0 5.188 3.061 A 1.231 1.231 0 0 0 4.773 2.705 Q 4.52 2.575 4.201 2.575 Q 3.611 2.575 3.245 3.035 A 1.515 1.515 0 0 0 3.23 3.054 A 1.589 1.589 0 0 0 2.978 3.552 Q 2.908 3.772 2.88 4.039 A 3.676 3.676 0 0 0 2.861 4.425 Z M 66.019 4.425 A 2.772 2.772 0 0 0 66.066 4.954 Q 66.127 5.264 66.264 5.51 A 1.545 1.545 0 0 0 66.386 5.695 Q 66.753 6.174 67.368 6.174 A 1.269 1.269 0 0 0 67.858 6.083 Q 68.137 5.967 68.34 5.706 A 1.471 1.471 0 0 0 68.353 5.689 A 1.648 1.648 0 0 0 68.607 5.171 Q 68.676 4.945 68.702 4.672 A 3.655 3.655 0 0 0 68.717 4.329 A 2.687 2.687 0 0 0 68.666 3.789 Q 68.598 3.459 68.441 3.2 A 1.586 1.586 0 0 0 68.346 3.061 A 1.231 1.231 0 0 0 67.931 2.705 Q 67.678 2.575 67.359 2.575 Q 66.769 2.575 66.403 3.035 A 1.515 1.515 0 0 0 66.388 3.054 A 1.589 1.589 0 0 0 66.136 3.552 Q 66.067 3.772 66.038 4.039 A 3.676 3.676 0 0 0 66.019 4.425 Z M 98.06 4.425 A 2.772 2.772 0 0 0 98.107 4.954 Q 98.167 5.264 98.305 5.51 A 1.545 1.545 0 0 0 98.427 5.695 Q 98.793 6.174 99.409 6.174 A 1.269 1.269 0 0 0 99.898 6.083 Q 100.177 5.967 100.38 5.706 A 1.471 1.471 0 0 0 100.393 5.689 A 1.648 1.648 0 0 0 100.648 5.171 Q 100.717 4.945 100.742 4.672 A 3.655 3.655 0 0 0 100.758 4.329 A 2.687 2.687 0 0 0 100.707 3.789 Q 100.639 3.459 100.482 3.2 A 1.586 1.586 0 0 0 100.386 3.061 A 1.231 1.231 0 0 0 99.971 2.705 Q 99.718 2.575 99.4 2.575 Q 98.81 2.575 98.444 3.035 A 1.515 1.515 0 0 0 98.429 3.054 A 1.589 1.589 0 0 0 98.177 3.552 Q 98.107 3.772 98.079 4.039 A 3.676 3.676 0 0 0 98.06 4.425 Z M 48.292 3.344 L 48.292 5.401 A 1.528 1.528 0 0 0 48.578 5.807 Q 48.9 6.127 49.39 6.147 A 1.621 1.621 0 0 0 49.456 6.148 A 1.206 1.206 0 0 0 49.873 6.079 A 1.04 1.04 0 0 0 50.366 5.695 Q 50.691 5.243 50.691 4.333 Q 50.691 3.502 50.37 3.05 A 1.03 1.03 0 0 0 49.62 2.607 A 1.449 1.449 0 0 0 49.447 2.597 A 1.34 1.34 0 0 0 48.938 2.69 Q 48.519 2.86 48.292 3.344 Z M 35.297 5.449 L 35.297 3.278 A 1.439 1.439 0 0 0 34.996 2.891 Q 34.692 2.62 34.252 2.599 A 1.578 1.578 0 0 0 34.176 2.597 Q 33.584 2.597 33.251 3.056 A 1.51 1.51 0 0 0 33.04 3.484 Q 32.974 3.689 32.943 3.939 A 3.955 3.955 0 0 0 32.915 4.425 Q 32.915 5.229 33.245 5.689 Q 33.574 6.148 34.167 6.148 A 1.32 1.32 0 0 0 34.677 6.054 Q 35.069 5.891 35.297 5.449 Z M 130.232 5.449 L 130.232 3.278 A 1.439 1.439 0 0 0 129.931 2.891 Q 129.627 2.62 129.187 2.599 A 1.578 1.578 0 0 0 129.111 2.597 Q 128.519 2.597 128.186 3.056 A 1.51 1.51 0 0 0 127.975 3.484 Q 127.909 3.689 127.878 3.939 A 3.955 3.955 0 0 0 127.85 4.425 Q 127.85 5.229 128.18 5.689 Q 128.509 6.148 129.103 6.148 A 1.32 1.32 0 0 0 129.612 6.054 Q 130.004 5.891 130.232 5.449 Z M 110.298 1.639 L 108.404 4.601 L 110.395 4.601 L 110.395 1.463 L 110.298 1.639 Z M 116.051 5.005 A 1.375 1.375 0 0 0 115.991 4.592 A 1.109 1.109 0 0 0 115.71 4.131 A 1.148 1.148 0 0 0 115.039 3.807 A 1.593 1.593 0 0 0 114.82 3.792 A 1.466 1.466 0 0 0 114.432 3.841 A 1.086 1.086 0 0 0 113.939 4.126 A 1.123 1.123 0 0 0 113.626 4.762 A 1.572 1.572 0 0 0 113.607 5.005 A 1.48 1.48 0 0 0 113.649 5.367 A 1.019 1.019 0 0 0 113.93 5.862 Q 114.237 6.158 114.769 6.173 A 2.053 2.053 0 0 0 114.829 6.174 Q 115.323 6.174 115.633 5.94 A 1.018 1.018 0 0 0 115.726 5.86 A 1.041 1.041 0 0 0 116.025 5.292 A 1.518 1.518 0 0 0 116.051 5.005 Z M 114.829 0.932 A 1.259 1.259 0 0 0 114.476 0.979 A 0.973 0.973 0 0 0 114.053 1.228 Q 113.757 1.525 113.757 2.035 A 1.325 1.325 0 0 0 113.801 2.387 A 0.994 0.994 0 0 0 114.049 2.823 A 0.974 0.974 0 0 0 114.611 3.108 A 1.382 1.382 0 0 0 114.829 3.125 A 1.279 1.279 0 0 0 115.174 3.08 A 0.952 0.952 0 0 0 115.609 2.823 A 1.018 1.018 0 0 0 115.884 2.26 A 1.426 1.426 0 0 0 115.901 2.035 A 1.282 1.282 0 0 0 115.851 1.668 A 1.013 1.013 0 0 0 115.598 1.239 Q 115.295 0.932 114.829 0.932 Z M 58.206 5.418 L 58.206 4.443 L 57.568 4.443 Q 56.074 4.443 56.074 5.317 Q 56.074 5.7 56.329 5.915 A 0.893 0.893 0 0 0 56.743 6.108 A 1.259 1.259 0 0 0 56.984 6.13 A 1.429 1.429 0 0 0 57.709 5.933 A 1.335 1.335 0 0 0 58.005 5.705 A 1.108 1.108 0 0 0 58.206 5.418 Z M 83.716 3.938 L 86.098 3.938 L 86.098 3.876 Q 86.072 3.417 85.901 3.111 A 1.13 1.13 0 0 0 85.764 2.916 A 0.983 0.983 0 0 0 85.109 2.584 A 1.39 1.39 0 0 0 84.955 2.575 A 1.106 1.106 0 0 0 84.433 2.698 A 1.14 1.14 0 0 0 84.129 2.933 A 1.417 1.417 0 0 0 83.852 3.379 Q 83.779 3.563 83.739 3.785 A 2.741 2.741 0 0 0 83.716 3.938 Z M 25.146 0.734 Q 25.146 0.536 25.266 0.4 Q 25.378 0.274 25.59 0.264 A 0.783 0.783 0 0 1 25.625 0.264 Q 25.862 0.264 25.985 0.4 A 0.474 0.474 0 0 1 26.107 0.703 A 0.614 0.614 0 0 1 26.108 0.734 A 0.523 0.523 0 0 1 26.083 0.9 A 0.442 0.442 0 0 1 25.985 1.063 Q 25.872 1.184 25.664 1.194 A 0.803 0.803 0 0 1 25.625 1.195 Q 25.452 1.195 25.341 1.126 A 0.362 0.362 0 0 1 25.266 1.063 A 0.456 0.456 0 0 1 25.148 0.788 A 0.605 0.605 0 0 1 25.146 0.734 Z M 45.299 0.734 Q 45.299 0.536 45.42 0.4 Q 45.532 0.274 45.743 0.264 A 0.783 0.783 0 0 1 45.778 0.264 Q 46.015 0.264 46.138 0.4 A 0.474 0.474 0 0 1 46.26 0.703 A 0.614 0.614 0 0 1 46.261 0.734 A 0.523 0.523 0 0 1 46.236 0.9 A 0.442 0.442 0 0 1 46.138 1.063 Q 46.026 1.184 45.818 1.194 A 0.803 0.803 0 0 1 45.778 1.195 Q 45.606 1.195 45.495 1.126 A 0.362 0.362 0 0 1 45.42 1.063 A 0.456 0.456 0 0 1 45.301 0.788 A 0.605 0.605 0 0 1 45.299 0.734 Z M 63.237 0.734 Q 63.237 0.536 63.358 0.4 Q 63.47 0.274 63.682 0.264 A 0.783 0.783 0 0 1 63.716 0.264 Q 63.954 0.264 64.077 0.4 A 0.474 0.474 0 0 1 64.199 0.703 A 0.614 0.614 0 0 1 64.2 0.734 A 0.523 0.523 0 0 1 64.174 0.9 A 0.442 0.442 0 0 1 64.077 1.063 Q 63.964 1.184 63.756 1.194 A 0.803 0.803 0 0 1 63.716 1.195 Q 63.544 1.195 63.433 1.126 A 0.362 0.362 0 0 1 63.358 1.063 A 0.456 0.456 0 0 1 63.24 0.788 A 0.605 0.605 0 0 1 63.237 0.734 Z M 125.046 0.734 Q 125.046 0.536 125.167 0.4 Q 125.279 0.274 125.491 0.264 A 0.783 0.783 0 0 1 125.525 0.264 Q 125.763 0.264 125.886 0.4 A 0.474 0.474 0 0 1 126.008 0.703 A 0.614 0.614 0 0 1 126.009 0.734 A 0.523 0.523 0 0 1 125.984 0.9 A 0.442 0.442 0 0 1 125.886 1.063 Q 125.773 1.184 125.565 1.194 A 0.803 0.803 0 0 1 125.525 1.195 Q 125.353 1.195 125.242 1.126 A 0.362 0.362 0 0 1 125.167 1.063 A 0.456 0.456 0 0 1 125.049 0.788 A 0.605 0.605 0 0 1 125.046 0.734 Z" vector-effect="non-scaling-stroke"/></g>
</svg>