<?xml version="1.0" encoding="UTF-8"?>
<svg width="48px" height="48px" viewBox="0 0 48 48" version="1.1" xmlns="http://www.w3.org/2000/svg" xmlns:xlink="http://www.w3.org/1999/xlink">
    <title>Icon-Resource/IoT/Res_AWS-IoT_Thing_Temperature-Sensor_48_Light</title>
    <g id="Icon-Resource/IoT/Res_AWS-IoT_Thing_Temperature-Sensor_48" stroke="none" stroke-width="1" fill="none" fill-rule="evenodd">
        <path transform="translate(12.000000, 8.000000), scale(.65)" d="M24,32.9775 C23.448,32.9775 23,32.5285 23,31.9775 C23,31.4265 23.448,30.9775 24,30.9775 C24.552,30.9775 25,31.4265 25,31.9775 C25,32.5285 24.552,32.9775 24,32.9775 L24,32.9775 Z M25,29.1615 L25,17.9995 L23,17.9995 L23,29.1615 C21.839,29.5765 21,30.6755 21,31.9775 C21,33.6315 22.346,34.9775 24,34.9775 C25.654,34.9775 27,33.6315 27,31.9775 C27,30.6755 26.161,29.5765 25,29.1615 L25,29.1615 Z M26.522,35.0815 C25.569,35.8575 24.364,36.1425 23.132,35.8875 C21.588,35.5665 20.356,34.2985 20.069,32.7315 C19.79,31.2055 20.363,29.7345 21.603,28.7975 L22,28.4975 L22,13.9995 C22,12.8965 22.897,11.9995 24,11.9995 C25.103,11.9995 26,12.8965 26,13.9995 L26,28.4985 L26.397,28.7975 C27.416,29.5675 28,30.7265 28,31.9775 C28,33.1865 27.462,34.3175 26.522,35.0815 L26.522,35.0815 Z M28,27.5285 L28,13.9995 C28,11.7945 26.206,9.9995 24,9.9995 C21.794,9.9995 20,11.7945 20,13.9995 L20,27.5295 C18.444,28.9235 17.721,31.0105 18.103,33.0925 C18.535,35.4515 20.393,37.3615 22.726,37.8455 C23.147,37.9335 23.571,37.9765 23.991,37.9765 C25.37,37.9765 26.706,37.5115 27.785,36.6325 C29.192,35.4875 30,33.7905 30,31.9775 C30,30.2645 29.277,28.6685 28,27.5285 L28,27.5285 Z M30,26.9995 L34,26.9995 L34,24.9995 L30,24.9995 L30,26.9995 Z M30,22.9995 L35,22.9995 L35,20.9995 L30,20.9995 L30,22.9995 Z M30,18.9995 L34,18.9995 L34,16.9995 L30,16.9995 L30,18.9995 Z M30,14.9995 L35,14.9995 L35,12.9995 L30,12.9995 L30,14.9995 Z M39,37.8655 C39,38.4905 38.491,38.9995 37.865,38.9995 L10.135,38.9995 C9.509,38.9995 9,38.4905 9,37.8655 L9,10.1345 C9,9.5095 9.509,8.9995 10.135,8.9995 L37.865,8.9995 C38.491,8.9995 39,9.5095 39,10.1345 L39,37.8655 Z M46,14.9995 L46,12.9995 L41,12.9995 L41,10.1345 C41,8.4065 39.594,6.9995 37.865,6.9995 L35,6.9995 L35,1.9995 L33,1.9995 L33,6.9995 L30,6.9995 L30,1.9995 L28,1.9995 L28,6.9995 L25,6.9995 L25,1.9995 L23,1.9995 L23,6.9995 L20,6.9995 L20,1.9995 L18,1.9995 L18,6.9995 L15,6.9995 L15,1.9995 L13,1.9995 L13,6.9995 L10.135,6.9995 C8.406,6.9995 7,8.4065 7,10.1345 L7,12.9995 L2,12.9995 L2,14.9995 L7,14.9995 L7,17.9995 L2,17.9995 L2,19.9995 L7,19.9995 L7,22.9995 L2,22.9995 L2,24.9995 L7,24.9995 L7,27.9995 L2,27.9995 L2,29.9995 L7,29.9995 L7,32.9995 L2,32.9995 L2,34.9995 L7,34.9995 L7,37.8655 C7,39.5935 8.406,40.9995 10.135,40.9995 L13,40.9995 L13,45.9995 L15,45.9995 L15,40.9995 L18,40.9995 L18,45.9995 L20,45.9995 L20,40.9995 L23,40.9995 L23,45.9995 L25,45.9995 L25,40.9995 L28,40.9995 L28,45.9995 L30,45.9995 L30,40.9995 L33,40.9995 L33,45.9995 L35,45.9995 L35,40.9995 L37.865,40.9995 C39.594,40.9995 41,39.5935 41,37.8655 L41,34.9995 L46,34.9995 L46,32.9995 L41,32.9995 L41,29.9995 L46,29.9995 L46,27.9995 L41,27.9995 L41,24.9995 L46,24.9995 L46,22.9995 L41,22.9995 L41,19.9995 L46,19.9995 L46,17.9995 L41,17.9995 L41,14.9995 L46,14.9995 Z" id="Fill-1" fill="#000000"></path>
    </g><g transform="translate(25, 83)" id="svgGroup" stroke-linecap="round" fill-rule="evenodd" font-size="9pt" stroke="#000" stroke-width="0.25mm" fill="#000" style="stroke:#000;stroke-width:0.25mm;fill:#000"><path d="M 23.12 0.088 L 24.13 4.469 L 24.253 5.313 L 24.434 4.553 L 25.699 0.088 L 26.411 0.088 L 27.646 4.553 L 27.822 5.326 L 27.958 4.465 L 28.951 0.088 L 29.799 0.088 L 28.248 6.486 L 27.479 6.486 L 26.161 1.824 L 26.06 1.336 L 25.958 1.824 L 24.592 6.486 L 23.823 6.486 L 22.276 0.088 L 23.12 0.088 Z M 34.98 1.938 L 34.132 1.938 A 1.466 1.466 0 0 0 34.083 1.546 A 1.066 1.066 0 0 0 33.763 1.026 A 1.211 1.211 0 0 0 33.294 0.77 Q 33.042 0.694 32.722 0.694 A 2.286 2.286 0 0 0 32.342 0.724 Q 32.14 0.758 31.977 0.831 A 1.101 1.101 0 0 0 31.748 0.969 A 0.892 0.892 0 0 0 31.403 1.624 A 1.267 1.267 0 0 0 31.399 1.732 A 0.806 0.806 0 0 0 31.667 2.337 A 1.134 1.134 0 0 0 31.731 2.393 A 1.562 1.562 0 0 0 31.969 2.549 Q 32.299 2.73 32.86 2.887 A 8.228 8.228 0 0 1 33.325 3.032 Q 33.56 3.113 33.754 3.2 A 3.297 3.297 0 0 1 34.108 3.382 A 2.342 2.342 0 0 1 34.447 3.626 Q 34.637 3.792 34.759 3.985 A 1.45 1.45 0 0 1 34.776 4.012 A 1.498 1.498 0 0 1 34.972 4.568 A 1.948 1.948 0 0 1 34.994 4.86 A 1.606 1.606 0 0 1 34.871 5.497 Q 34.726 5.838 34.408 6.09 A 1.886 1.886 0 0 1 34.387 6.106 Q 33.781 6.574 32.766 6.574 A 3.023 3.023 0 0 1 31.625 6.36 A 2.917 2.917 0 0 1 31.535 6.322 A 2.383 2.383 0 0 1 31.057 6.044 A 1.874 1.874 0 0 1 30.654 5.629 A 1.689 1.689 0 0 1 30.344 4.632 L 31.192 4.632 A 1.261 1.261 0 0 0 31.262 5.059 A 1.074 1.074 0 0 0 31.621 5.548 Q 32.005 5.85 32.622 5.881 A 2.87 2.87 0 0 0 32.766 5.884 A 2.628 2.628 0 0 0 33.153 5.858 Q 33.349 5.828 33.508 5.767 A 1.129 1.129 0 0 0 33.79 5.612 Q 34.146 5.339 34.146 4.869 A 1.074 1.074 0 0 0 34.103 4.559 A 0.816 0.816 0 0 0 33.816 4.142 Q 33.486 3.885 32.621 3.634 Q 31.535 3.322 31.041 2.868 Q 30.546 2.413 30.546 1.745 Q 30.546 0.989 31.151 0.494 A 2.121 2.121 0 0 1 32.041 0.071 A 3.087 3.087 0 0 1 32.722 0 A 2.913 2.913 0 0 1 33.382 0.072 A 2.372 2.372 0 0 1 33.897 0.255 A 2.051 2.051 0 0 1 34.428 0.626 A 1.834 1.834 0 0 1 34.697 0.958 A 1.798 1.798 0 0 1 34.98 1.938 Z M 3.74 6.486 L 2.351 3.898 L 0.848 3.898 L 0.848 6.486 L 0 6.486 L 0 0.088 L 2.118 0.088 A 3.809 3.809 0 0 1 2.76 0.138 Q 3.102 0.197 3.376 0.324 A 1.789 1.789 0 0 1 3.781 0.58 A 1.588 1.588 0 0 1 4.307 1.469 A 2.453 2.453 0 0 1 4.364 2.013 A 1.864 1.864 0 0 1 4.273 2.604 A 1.64 1.64 0 0 1 4.041 3.054 A 1.849 1.849 0 0 1 3.382 3.611 A 2.342 2.342 0 0 1 3.142 3.718 L 4.645 6.434 L 4.645 6.486 L 3.74 6.486 Z M 13.724 3.129 L 12.907 3.129 Q 12.907 2.795 12.623 2.553 Q 12.34 2.312 11.909 2.312 Q 11.465 2.312 11.215 2.505 A 0.653 0.653 0 0 0 11.04 2.704 Q 10.967 2.835 10.964 3 A 0.771 0.771 0 0 0 10.964 3.01 A 0.588 0.588 0 0 0 10.994 3.203 A 0.48 0.48 0 0 0 11.197 3.454 A 1.093 1.093 0 0 0 11.348 3.533 Q 11.512 3.605 11.767 3.673 A 6.581 6.581 0 0 0 12.039 3.74 A 6.318 6.318 0 0 1 12.446 3.845 Q 12.783 3.944 13.025 4.065 A 1.901 1.901 0 0 1 13.281 4.218 Q 13.418 4.315 13.516 4.429 A 1.06 1.06 0 0 1 13.586 4.52 A 1.024 1.024 0 0 1 13.748 4.927 A 1.388 1.388 0 0 1 13.768 5.168 Q 13.768 5.805 13.258 6.19 Q 12.776 6.554 12.022 6.573 A 3.337 3.337 0 0 1 11.936 6.574 A 2.746 2.746 0 0 1 11.401 6.525 A 2.124 2.124 0 0 1 10.925 6.372 A 1.771 1.771 0 0 1 10.491 6.094 A 1.54 1.54 0 0 1 10.237 5.807 Q 9.989 5.445 9.989 5.023 L 10.802 5.023 A 0.932 0.932 0 0 0 10.875 5.348 A 0.827 0.827 0 0 0 11.129 5.671 A 1.072 1.072 0 0 0 11.531 5.864 Q 11.686 5.903 11.867 5.91 A 2.013 2.013 0 0 0 11.936 5.911 A 1.863 1.863 0 0 0 12.231 5.889 Q 12.393 5.863 12.524 5.806 A 0.941 0.941 0 0 0 12.676 5.724 A 0.689 0.689 0 0 0 12.841 5.574 A 0.554 0.554 0 0 0 12.955 5.225 A 0.698 0.698 0 0 0 12.919 4.994 A 0.581 0.581 0 0 0 12.707 4.713 A 1.05 1.05 0 0 0 12.538 4.615 Q 12.349 4.524 12.054 4.449 A 5.392 5.392 0 0 0 11.841 4.399 A 6.342 6.342 0 0 1 11.48 4.311 Q 11.11 4.209 10.861 4.083 Q 10.562 3.93 10.392 3.731 A 1.017 1.017 0 0 1 10.325 3.643 Q 10.151 3.388 10.151 3.037 A 1.206 1.206 0 0 1 10.55 2.132 A 1.694 1.694 0 0 1 10.646 2.048 A 1.752 1.752 0 0 1 11.429 1.688 A 2.471 2.471 0 0 1 11.909 1.644 A 2.559 2.559 0 0 1 12.473 1.702 A 1.757 1.757 0 0 1 13.221 2.061 Q 13.724 2.479 13.724 3.129 Z M 21.327 6.486 L 20.716 4.816 L 18.035 4.816 L 17.433 6.486 L 16.563 6.486 L 19.006 0.088 L 19.745 0.088 L 22.192 6.486 L 21.327 6.486 Z M 5.212 4.241 L 5.212 4.091 A 3.17 3.17 0 0 1 5.288 3.382 A 2.581 2.581 0 0 1 5.482 2.828 A 2.191 2.191 0 0 1 5.93 2.202 A 2.033 2.033 0 0 1 6.238 1.958 Q 6.724 1.644 7.291 1.644 A 2.254 2.254 0 0 1 7.904 1.723 A 1.639 1.639 0 0 1 8.732 2.254 Q 9.246 2.865 9.246 4.003 L 9.246 4.342 L 6.025 4.342 A 2.111 2.111 0 0 0 6.096 4.85 A 1.516 1.516 0 0 0 6.436 5.478 A 1.282 1.282 0 0 0 7.37 5.909 A 1.652 1.652 0 0 0 7.436 5.911 A 1.763 1.763 0 0 0 7.764 5.882 Q 7.988 5.839 8.165 5.735 A 1.827 1.827 0 0 0 8.674 5.287 A 2.068 2.068 0 0 0 8.688 5.269 L 9.185 5.656 A 1.926 1.926 0 0 1 7.785 6.547 A 2.749 2.749 0 0 1 7.392 6.574 A 2.394 2.394 0 0 1 6.64 6.461 A 1.974 1.974 0 0 1 5.818 5.939 Q 5.212 5.304 5.212 4.241 Z M 0.848 0.782 L 0.848 3.208 L 2.145 3.208 Q 2.685 3.208 3.035 2.968 A 1.174 1.174 0 0 0 3.144 2.883 A 1.069 1.069 0 0 0 3.51 2.146 A 1.486 1.486 0 0 0 3.516 2.013 Q 3.516 1.47 3.22 1.159 A 1 1 0 0 0 3.162 1.103 Q 2.808 0.787 2.14 0.782 L 0.848 0.782 Z M 19.375 1.129 L 18.29 4.122 L 20.465 4.122 L 19.375 1.129 Z M 6.051 3.674 L 8.433 3.674 L 8.433 3.612 Q 8.407 3.153 8.236 2.848 A 1.13 1.13 0 0 0 8.099 2.652 A 0.983 0.983 0 0 0 7.445 2.32 A 1.39 1.39 0 0 0 7.291 2.312 A 1.106 1.106 0 0 0 6.768 2.435 A 1.14 1.14 0 0 0 6.464 2.67 A 1.417 1.417 0 0 0 6.188 3.116 Q 6.114 3.3 6.074 3.522 A 2.741 2.741 0 0 0 6.051 3.674 Z" vector-effect="non-scaling-stroke"/></g><g transform="translate(25, 93)" id="svgGroup" stroke-linecap="round" fill-rule="evenodd" font-size="9pt" stroke="#000" stroke-width="0.25mm" fill="#000" style="stroke:#000;stroke-width:0.25mm;fill:#000"><path d="M 49.091 1.995 L 49.86 1.995 L 49.882 2.522 Q 50.405 1.907 51.293 1.907 A 2.009 2.009 0 0 1 51.804 1.968 A 1.244 1.244 0 0 1 52.651 2.672 A 1.801 1.801 0 0 1 53.268 2.118 A 1.65 1.65 0 0 1 53.798 1.937 A 2.209 2.209 0 0 1 54.167 1.907 A 2.119 2.119 0 0 1 54.811 1.997 Q 55.738 2.292 55.758 3.564 L 55.758 6.75 L 54.945 6.75 L 54.945 3.612 A 1.781 1.781 0 0 0 54.924 3.332 Q 54.901 3.185 54.85 3.067 A 0.758 0.758 0 0 0 54.712 2.85 A 0.68 0.68 0 0 0 54.459 2.682 Q 54.248 2.597 53.931 2.597 A 1.245 1.245 0 0 0 53.565 2.648 A 1.008 1.008 0 0 0 53.178 2.867 A 1.042 1.042 0 0 0 52.864 3.404 A 1.41 1.41 0 0 0 52.831 3.595 L 52.831 6.75 L 52.014 6.75 L 52.014 3.634 A 1.532 1.532 0 0 0 51.965 3.23 Q 51.838 2.768 51.381 2.643 A 1.457 1.457 0 0 0 50.999 2.597 Q 50.225 2.597 49.924 3.234 A 1.459 1.459 0 0 0 49.904 3.278 L 49.904 6.75 L 49.091 6.75 L 49.091 1.995 Z M 96.798 2.202 L 95.95 2.202 A 1.466 1.466 0 0 0 95.9 1.809 A 1.066 1.066 0 0 0 95.581 1.29 A 1.211 1.211 0 0 0 95.112 1.033 Q 94.86 0.958 94.54 0.958 A 2.286 2.286 0 0 0 94.16 0.988 Q 93.958 1.022 93.795 1.095 A 1.101 1.101 0 0 0 93.566 1.233 A 0.892 0.892 0 0 0 93.221 1.887 A 1.267 1.267 0 0 0 93.217 1.995 A 0.806 0.806 0 0 0 93.485 2.6 A 1.134 1.134 0 0 0 93.549 2.656 A 1.562 1.562 0 0 0 93.787 2.813 Q 94.117 2.993 94.678 3.151 A 8.228 8.228 0 0 1 95.143 3.295 Q 95.378 3.377 95.572 3.464 A 3.297 3.297 0 0 1 95.926 3.645 A 2.342 2.342 0 0 1 96.265 3.889 Q 96.455 4.056 96.577 4.248 A 1.45 1.45 0 0 1 96.594 4.276 A 1.498 1.498 0 0 1 96.79 4.832 A 1.948 1.948 0 0 1 96.812 5.124 A 1.606 1.606 0 0 1 96.689 5.76 Q 96.544 6.101 96.226 6.354 A 1.886 1.886 0 0 1 96.205 6.37 Q 95.599 6.838 94.583 6.838 A 3.023 3.023 0 0 1 93.443 6.623 A 2.917 2.917 0 0 1 93.353 6.585 A 2.383 2.383 0 0 1 92.875 6.307 A 1.874 1.874 0 0 1 92.472 5.893 A 1.689 1.689 0 0 1 92.162 4.896 L 93.01 4.896 A 1.261 1.261 0 0 0 93.08 5.323 A 1.074 1.074 0 0 0 93.439 5.812 Q 93.823 6.113 94.44 6.144 A 2.87 2.87 0 0 0 94.583 6.148 A 2.628 2.628 0 0 0 94.971 6.121 Q 95.167 6.092 95.326 6.031 A 1.129 1.129 0 0 0 95.607 5.875 Q 95.963 5.603 95.963 5.133 A 1.074 1.074 0 0 0 95.921 4.822 A 0.816 0.816 0 0 0 95.634 4.406 Q 95.304 4.148 94.438 3.898 Q 93.353 3.586 92.859 3.131 Q 92.364 2.676 92.364 2.008 Q 92.364 1.252 92.969 0.758 A 2.121 2.121 0 0 1 93.859 0.335 A 3.087 3.087 0 0 1 94.54 0.264 A 2.913 2.913 0 0 1 95.2 0.336 A 2.372 2.372 0 0 1 95.715 0.519 A 2.051 2.051 0 0 1 96.246 0.889 A 1.834 1.834 0 0 1 96.515 1.222 A 1.798 1.798 0 0 1 96.798 2.202 Z M 20.997 0 L 20.997 2.571 A 1.767 1.767 0 0 1 21.663 2.053 A 1.832 1.832 0 0 1 22.403 1.907 A 1.905 1.905 0 0 1 23.037 2.004 Q 23.879 2.3 23.922 3.506 A 3.668 3.668 0 0 1 23.924 3.608 L 23.924 6.75 L 23.111 6.75 L 23.111 3.604 A 1.837 1.837 0 0 0 23.089 3.324 Q 23.038 3.017 22.876 2.843 Q 22.69 2.645 22.336 2.606 A 1.66 1.66 0 0 0 22.157 2.597 A 1.253 1.253 0 0 0 21.743 2.664 A 1.123 1.123 0 0 0 21.463 2.808 A 1.432 1.432 0 0 0 20.997 3.362 L 20.997 6.75 L 20.184 6.75 L 20.184 0 L 20.997 0 Z M 147.771 0 L 147.771 2.571 A 1.767 1.767 0 0 1 148.437 2.053 A 1.832 1.832 0 0 1 149.177 1.907 A 1.905 1.905 0 0 1 149.81 2.004 Q 150.652 2.3 150.695 3.506 A 3.668 3.668 0 0 1 150.697 3.608 L 150.697 6.75 L 149.884 6.75 L 149.884 3.604 A 1.837 1.837 0 0 0 149.862 3.324 Q 149.812 3.017 149.649 2.843 Q 149.463 2.645 149.11 2.606 A 1.66 1.66 0 0 0 148.931 2.597 A 1.253 1.253 0 0 0 148.516 2.664 A 1.123 1.123 0 0 0 148.236 2.808 A 1.432 1.432 0 0 0 147.771 3.362 L 147.771 6.75 L 146.958 6.75 L 146.958 0 L 147.771 0 Z M 35.332 2.522 L 35.372 1.995 L 36.114 1.995 L 36.114 6.636 A 2.511 2.511 0 0 1 36.044 7.249 A 1.738 1.738 0 0 1 35.567 8.09 A 1.834 1.834 0 0 1 34.637 8.57 A 2.671 2.671 0 0 1 34.097 8.622 A 2.446 2.446 0 0 1 33.091 8.402 A 2.003 2.003 0 0 1 32.681 8.161 A 1.563 1.563 0 0 1 32.339 7.8 L 32.761 7.313 A 1.889 1.889 0 0 0 33.196 7.712 A 1.514 1.514 0 0 0 34.04 7.958 A 1.695 1.695 0 0 0 34.417 7.919 Q 34.685 7.858 34.879 7.702 A 1.037 1.037 0 0 0 34.965 7.625 A 1.09 1.09 0 0 0 35.242 7.132 Q 35.289 6.959 35.296 6.752 A 2.134 2.134 0 0 0 35.297 6.684 L 35.297 6.275 A 1.601 1.601 0 0 1 34.245 6.821 A 2.279 2.279 0 0 1 33.965 6.838 A 1.672 1.672 0 0 1 33.21 6.67 Q 32.888 6.51 32.638 6.197 A 2.14 2.14 0 0 1 32.614 6.166 A 2.316 2.316 0 0 1 32.231 5.386 Q 32.098 4.922 32.098 4.333 Q 32.098 3.472 32.406 2.884 A 2.096 2.096 0 0 1 32.612 2.564 Q 33.126 1.907 33.974 1.907 A 1.971 1.971 0 0 1 34.573 1.994 A 1.55 1.55 0 0 1 35.332 2.522 Z M 144.949 2.522 L 144.989 1.995 L 145.731 1.995 L 145.731 6.636 A 2.511 2.511 0 0 1 145.661 7.249 A 1.738 1.738 0 0 1 145.184 8.09 A 1.834 1.834 0 0 1 144.254 8.57 A 2.671 2.671 0 0 1 143.714 8.622 A 2.446 2.446 0 0 1 142.708 8.402 A 2.003 2.003 0 0 1 142.298 8.161 A 1.563 1.563 0 0 1 141.957 7.8 L 142.378 7.313 A 1.889 1.889 0 0 0 142.813 7.712 A 1.514 1.514 0 0 0 143.657 7.958 A 1.695 1.695 0 0 0 144.034 7.919 Q 144.303 7.858 144.497 7.702 A 1.037 1.037 0 0 0 144.582 7.625 A 1.09 1.09 0 0 0 144.859 7.132 Q 144.906 6.959 144.913 6.752 A 2.134 2.134 0 0 0 144.914 6.684 L 144.914 6.275 A 1.601 1.601 0 0 1 143.862 6.821 A 2.279 2.279 0 0 1 143.583 6.838 A 1.672 1.672 0 0 1 142.827 6.67 Q 142.505 6.51 142.256 6.197 A 2.14 2.14 0 0 1 142.231 6.166 A 2.316 2.316 0 0 1 141.848 5.386 Q 141.715 4.922 141.715 4.333 Q 141.715 3.472 142.023 2.884 A 2.096 2.096 0 0 1 142.229 2.564 Q 142.743 1.907 143.591 1.907 A 1.971 1.971 0 0 1 144.19 1.994 A 1.55 1.55 0 0 1 144.949 2.522 Z M 111.037 3.393 L 110.219 3.393 Q 110.219 3.059 109.936 2.817 Q 109.652 2.575 109.222 2.575 Q 108.778 2.575 108.527 2.769 A 0.653 0.653 0 0 0 108.352 2.967 Q 108.279 3.098 108.277 3.263 A 0.771 0.771 0 0 0 108.277 3.274 A 0.588 0.588 0 0 0 108.307 3.467 A 0.48 0.48 0 0 0 108.51 3.718 A 1.093 1.093 0 0 0 108.66 3.796 Q 108.824 3.868 109.08 3.937 A 6.581 6.581 0 0 0 109.351 4.003 A 6.318 6.318 0 0 1 109.759 4.108 Q 110.096 4.208 110.338 4.329 A 1.901 1.901 0 0 1 110.594 4.481 Q 110.731 4.579 110.828 4.692 A 1.06 1.06 0 0 1 110.898 4.783 A 1.024 1.024 0 0 1 111.06 5.191 A 1.388 1.388 0 0 1 111.081 5.432 Q 111.081 6.069 110.571 6.453 Q 110.088 6.817 109.335 6.837 A 3.337 3.337 0 0 1 109.248 6.838 A 2.746 2.746 0 0 1 108.714 6.788 A 2.124 2.124 0 0 1 108.237 6.636 A 1.771 1.771 0 0 1 107.803 6.358 A 1.54 1.54 0 0 1 107.55 6.071 Q 107.301 5.708 107.301 5.287 L 108.114 5.287 A 0.932 0.932 0 0 0 108.188 5.612 A 0.827 0.827 0 0 0 108.442 5.935 A 1.072 1.072 0 0 0 108.844 6.128 Q 108.998 6.167 109.18 6.173 A 2.013 2.013 0 0 0 109.248 6.174 A 1.863 1.863 0 0 0 109.544 6.152 Q 109.705 6.126 109.837 6.07 A 0.941 0.941 0 0 0 109.989 5.988 A 0.689 0.689 0 0 0 110.153 5.837 A 0.554 0.554 0 0 0 110.268 5.489 A 0.698 0.698 0 0 0 110.231 5.258 A 0.581 0.581 0 0 0 110.019 4.977 A 1.05 1.05 0 0 0 109.85 4.878 Q 109.662 4.788 109.367 4.712 A 5.392 5.392 0 0 0 109.154 4.663 A 6.342 6.342 0 0 1 108.793 4.575 Q 108.423 4.473 108.174 4.346 Q 107.875 4.194 107.704 3.994 A 1.017 1.017 0 0 1 107.637 3.907 Q 107.464 3.652 107.464 3.3 A 1.206 1.206 0 0 1 107.863 2.396 A 1.694 1.694 0 0 1 107.958 2.312 A 1.752 1.752 0 0 1 108.741 1.952 A 2.471 2.471 0 0 1 109.222 1.907 A 2.559 2.559 0 0 1 109.785 1.966 A 1.757 1.757 0 0 1 110.533 2.325 Q 111.037 2.742 111.037 3.393 Z M 27.325 1.995 L 28.094 1.995 L 28.121 2.593 Q 28.657 1.918 29.517 1.907 A 2.234 2.234 0 0 1 29.544 1.907 A 1.905 1.905 0 0 1 30.178 2.004 Q 31.02 2.3 31.063 3.506 A 3.668 3.668 0 0 1 31.065 3.608 L 31.065 6.75 L 30.252 6.75 L 30.252 3.604 A 1.837 1.837 0 0 0 30.23 3.324 Q 30.18 3.017 30.017 2.843 Q 29.831 2.645 29.477 2.606 A 1.66 1.66 0 0 0 29.298 2.597 A 1.253 1.253 0 0 0 28.884 2.664 A 1.123 1.123 0 0 0 28.604 2.808 A 1.432 1.432 0 0 0 28.138 3.362 L 28.138 6.75 L 27.325 6.75 L 27.325 1.995 Z M 102.533 1.995 L 103.302 1.995 L 103.329 2.593 Q 103.865 1.918 104.725 1.907 A 2.234 2.234 0 0 1 104.752 1.907 A 1.905 1.905 0 0 1 105.386 2.004 Q 106.228 2.3 106.271 3.506 A 3.668 3.668 0 0 1 106.273 3.608 L 106.273 6.75 L 105.46 6.75 L 105.46 3.604 A 1.837 1.837 0 0 0 105.438 3.324 Q 105.388 3.017 105.225 2.843 Q 105.039 2.645 104.685 2.606 A 1.66 1.66 0 0 0 104.506 2.597 A 1.253 1.253 0 0 0 104.092 2.664 A 1.123 1.123 0 0 0 103.812 2.808 A 1.432 1.432 0 0 0 103.346 3.362 L 103.346 6.75 L 102.533 6.75 L 102.533 1.995 Z M 80.459 6.75 L 80.442 6.28 A 1.526 1.526 0 0 1 79.616 6.775 Q 79.365 6.836 79.068 6.838 A 2.996 2.996 0 0 1 79.049 6.838 A 2.086 2.086 0 0 1 78.589 6.79 Q 78.158 6.693 77.891 6.396 A 1.41 1.41 0 0 1 77.608 5.899 Q 77.491 5.556 77.489 5.089 L 77.489 1.995 L 78.302 1.995 L 78.302 5.067 Q 78.302 6.037 79.009 6.137 A 1.229 1.229 0 0 0 79.181 6.148 A 1.927 1.927 0 0 0 79.632 6.099 Q 80.194 5.964 80.42 5.454 L 80.42 1.995 L 81.233 1.995 L 81.233 6.75 L 80.459 6.75 Z M 11.94 0.352 L 11.94 1.046 L 9.883 1.046 L 9.883 6.75 L 9.044 6.75 L 9.044 1.046 L 6.992 1.046 L 6.992 0.352 L 11.94 0.352 Z M 19.362 0.352 L 19.362 1.046 L 17.306 1.046 L 17.306 6.75 L 16.466 6.75 L 16.466 1.046 L 14.414 1.046 L 14.414 0.352 L 19.362 0.352 Z M 43.941 0.352 L 43.941 1.046 L 41.884 1.046 L 41.884 6.75 L 41.045 6.75 L 41.045 1.046 L 38.993 1.046 L 38.993 0.352 L 43.941 0.352 Z M 73.459 6.75 L 72.606 6.75 A 0.632 0.632 0 0 1 72.571 6.66 Q 72.54 6.562 72.515 6.41 A 3.997 3.997 0 0 1 72.492 6.249 Q 71.925 6.838 71.139 6.838 A 2.033 2.033 0 0 1 70.609 6.772 A 1.529 1.529 0 0 1 69.985 6.44 Q 69.535 6.042 69.535 5.432 Q 69.535 4.689 70.099 4.278 Q 70.664 3.867 71.688 3.867 L 72.479 3.867 L 72.479 3.494 A 1.152 1.152 0 0 0 72.443 3.199 A 0.828 0.828 0 0 0 72.224 2.815 Q 72.008 2.6 71.617 2.568 A 1.748 1.748 0 0 0 71.473 2.562 Q 71.038 2.562 70.743 2.782 Q 70.449 3.001 70.449 3.313 L 69.631 3.313 A 1.041 1.041 0 0 1 69.756 2.825 A 1.409 1.409 0 0 1 69.884 2.626 Q 70.137 2.294 70.57 2.101 A 2.249 2.249 0 0 1 71.345 1.913 A 2.669 2.669 0 0 1 71.521 1.907 A 2.65 2.65 0 0 1 72.038 1.955 Q 72.346 2.016 72.584 2.156 A 1.439 1.439 0 0 1 72.809 2.318 A 1.396 1.396 0 0 1 73.262 3.144 A 1.998 1.998 0 0 1 73.292 3.45 L 73.292 5.638 Q 73.292 6.073 73.366 6.39 A 1.707 1.707 0 0 0 73.459 6.68 L 73.459 6.75 Z M 61 4.351 L 61 4.425 Q 61 5.511 60.504 6.174 A 1.57 1.57 0 0 1 59.366 6.828 A 2.013 2.013 0 0 1 59.159 6.838 A 2.196 2.196 0 0 1 58.573 6.764 A 1.598 1.598 0 0 1 57.797 6.289 L 57.797 8.578 L 56.984 8.578 L 56.984 1.995 L 57.727 1.995 L 57.766 2.522 A 1.619 1.619 0 0 1 58.905 1.919 A 2.319 2.319 0 0 1 59.146 1.907 A 1.829 1.829 0 0 1 59.783 2.014 A 1.597 1.597 0 0 1 60.502 2.553 Q 61 3.199 61 4.351 Z M 44.121 4.504 L 44.121 4.355 A 3.17 3.17 0 0 1 44.197 3.646 A 2.581 2.581 0 0 1 44.391 3.092 A 2.191 2.191 0 0 1 44.839 2.466 A 2.033 2.033 0 0 1 45.147 2.221 Q 45.633 1.907 46.2 1.907 A 2.254 2.254 0 0 1 46.813 1.986 A 1.639 1.639 0 0 1 47.641 2.518 Q 48.155 3.129 48.155 4.267 L 48.155 4.605 L 44.934 4.605 A 2.111 2.111 0 0 0 45.005 5.114 A 1.516 1.516 0 0 0 45.345 5.741 A 1.282 1.282 0 0 0 46.279 6.173 A 1.652 1.652 0 0 0 46.345 6.174 A 1.763 1.763 0 0 0 46.673 6.145 Q 46.897 6.103 47.074 5.999 A 1.827 1.827 0 0 0 47.583 5.551 A 2.068 2.068 0 0 0 47.597 5.533 L 48.094 5.919 A 1.926 1.926 0 0 1 46.694 6.811 A 2.749 2.749 0 0 1 46.301 6.838 A 2.394 2.394 0 0 1 45.55 6.725 A 1.974 1.974 0 0 1 44.728 6.203 Q 44.121 5.568 44.121 4.504 Z M 61.827 4.504 L 61.827 4.355 A 3.17 3.17 0 0 1 61.903 3.646 A 2.581 2.581 0 0 1 62.097 3.092 A 2.191 2.191 0 0 1 62.544 2.466 A 2.033 2.033 0 0 1 62.853 2.221 Q 63.338 1.907 63.905 1.907 A 2.254 2.254 0 0 1 64.518 1.986 A 1.639 1.639 0 0 1 65.347 2.518 Q 65.861 3.129 65.861 4.267 L 65.861 4.605 L 62.64 4.605 A 2.111 2.111 0 0 0 62.711 5.114 A 1.516 1.516 0 0 0 63.051 5.741 A 1.282 1.282 0 0 0 63.985 6.173 A 1.652 1.652 0 0 0 64.05 6.174 A 1.763 1.763 0 0 0 64.378 6.145 Q 64.602 6.103 64.78 5.999 A 1.827 1.827 0 0 0 65.289 5.551 A 2.068 2.068 0 0 0 65.303 5.533 L 65.799 5.919 A 1.926 1.926 0 0 1 64.4 6.811 A 2.749 2.749 0 0 1 64.006 6.838 A 2.394 2.394 0 0 1 63.255 6.725 A 1.974 1.974 0 0 1 62.433 6.203 Q 61.827 5.568 61.827 4.504 Z M 85.223 4.504 L 85.223 4.355 A 3.17 3.17 0 0 1 85.299 3.646 A 2.581 2.581 0 0 1 85.493 3.092 A 2.191 2.191 0 0 1 85.941 2.466 A 2.033 2.033 0 0 1 86.249 2.221 Q 86.735 1.907 87.302 1.907 A 2.254 2.254 0 0 1 87.915 1.986 A 1.639 1.639 0 0 1 88.743 2.518 Q 89.257 3.129 89.257 4.267 L 89.257 4.605 L 86.036 4.605 A 2.111 2.111 0 0 0 86.107 5.114 A 1.516 1.516 0 0 0 86.447 5.741 A 1.282 1.282 0 0 0 87.381 6.173 A 1.652 1.652 0 0 0 87.447 6.174 A 1.763 1.763 0 0 0 87.775 6.145 Q 87.999 6.103 88.176 5.999 A 1.827 1.827 0 0 0 88.685 5.551 A 2.068 2.068 0 0 0 88.699 5.533 L 89.196 5.919 A 1.926 1.926 0 0 1 87.796 6.811 A 2.749 2.749 0 0 1 87.403 6.838 A 2.394 2.394 0 0 1 86.652 6.725 A 1.974 1.974 0 0 1 85.83 6.203 Q 85.223 5.568 85.223 4.504 Z M 97.559 4.504 L 97.559 4.355 A 3.17 3.17 0 0 1 97.635 3.646 A 2.581 2.581 0 0 1 97.829 3.092 A 2.191 2.191 0 0 1 98.276 2.466 A 2.033 2.033 0 0 1 98.585 2.221 Q 99.07 1.907 99.637 1.907 A 2.254 2.254 0 0 1 100.25 1.986 A 1.639 1.639 0 0 1 101.079 2.518 Q 101.593 3.129 101.593 4.267 L 101.593 4.605 L 98.372 4.605 A 2.111 2.111 0 0 0 98.443 5.114 A 1.516 1.516 0 0 0 98.782 5.741 A 1.282 1.282 0 0 0 99.717 6.173 A 1.652 1.652 0 0 0 99.782 6.174 A 1.763 1.763 0 0 0 100.11 6.145 Q 100.334 6.103 100.512 5.999 A 1.827 1.827 0 0 0 101.021 5.551 A 2.068 2.068 0 0 0 101.035 5.533 L 101.531 5.919 A 1.926 1.926 0 0 1 100.132 6.811 A 2.749 2.749 0 0 1 99.738 6.838 A 2.394 2.394 0 0 1 98.987 6.725 A 1.974 1.974 0 0 1 98.165 6.203 Q 97.559 5.568 97.559 4.504 Z M 135.857 0.352 L 135.857 6.06 L 138.889 6.06 L 138.889 6.75 L 135.009 6.75 L 135.009 0.352 L 135.857 0.352 Z M 125.895 0.352 L 125.895 4.601 L 126.782 4.601 L 126.782 5.265 L 125.895 5.265 L 125.895 6.75 L 125.077 6.75 L 125.077 5.265 L 122.164 5.265 L 122.164 4.786 L 125.029 0.352 L 125.895 0.352 Z M 131.293 2.592 A 1.544 1.544 0 0 0 131.396 2.021 A 2.226 2.226 0 0 0 131.375 1.707 A 1.566 1.566 0 0 0 130.876 0.738 A 1.754 1.754 0 0 0 130.11 0.333 A 2.443 2.443 0 0 0 129.511 0.264 A 2.539 2.539 0 0 0 129.002 0.312 A 1.767 1.767 0 0 0 128.145 0.738 Q 127.626 1.213 127.626 2.021 A 1.808 1.808 0 0 0 127.626 2.058 A 1.499 1.499 0 0 0 127.872 2.87 A 1.626 1.626 0 0 0 128.034 3.077 A 1.726 1.726 0 0 0 128.544 3.454 A 2.119 2.119 0 0 0 128.445 3.5 A 1.738 1.738 0 0 0 127.76 4.087 A 1.629 1.629 0 0 0 127.477 5.023 A 2.272 2.272 0 0 0 127.486 5.237 A 1.63 1.63 0 0 0 128.032 6.344 A 1.895 1.895 0 0 0 128.883 6.771 A 2.797 2.797 0 0 0 129.511 6.838 A 2.796 2.796 0 0 0 130.11 6.777 A 1.925 1.925 0 0 0 130.986 6.346 A 1.578 1.578 0 0 0 131.46 5.62 A 1.989 1.989 0 0 0 131.546 5.023 A 1.581 1.581 0 0 0 131.254 4.087 Q 130.961 3.674 130.46 3.458 Q 130.891 3.248 131.144 2.874 A 1.449 1.449 0 0 0 131.293 2.592 Z M 74.856 0.844 L 75.669 0.844 L 75.669 1.995 L 76.557 1.995 L 76.557 2.624 L 75.669 2.624 L 75.669 5.572 Q 75.669 5.858 75.788 6.001 Q 75.907 6.144 76.192 6.144 A 1.046 1.046 0 0 0 76.29 6.138 Q 76.393 6.129 76.532 6.101 A 4.024 4.024 0 0 0 76.579 6.091 L 76.579 6.75 A 2.463 2.463 0 0 1 76.146 6.829 A 2.157 2.157 0 0 1 75.955 6.838 Q 75.508 6.838 75.241 6.616 A 0.856 0.856 0 0 1 75.133 6.508 Q 74.906 6.238 74.865 5.78 A 2.351 2.351 0 0 1 74.856 5.572 L 74.856 2.624 L 73.991 2.624 L 73.991 1.995 L 74.856 1.995 L 74.856 0.844 Z M 152.205 0.844 L 153.018 0.844 L 153.018 1.995 L 153.905 1.995 L 153.905 2.624 L 153.018 2.624 L 153.018 5.572 Q 153.018 5.858 153.136 6.001 Q 153.255 6.144 153.541 6.144 A 1.046 1.046 0 0 0 153.638 6.138 Q 153.741 6.129 153.881 6.101 A 4.024 4.024 0 0 0 153.927 6.091 L 153.927 6.75 A 2.463 2.463 0 0 1 153.494 6.829 A 2.157 2.157 0 0 1 153.303 6.838 Q 152.856 6.838 152.589 6.616 A 0.856 0.856 0 0 1 152.481 6.508 Q 152.254 6.238 152.213 5.78 A 2.351 2.351 0 0 1 152.205 5.572 L 152.205 2.624 L 151.339 2.624 L 151.339 1.995 L 152.205 1.995 L 152.205 0.844 Z M 2.043 4.386 L 2.043 4.329 A 3.057 3.057 0 0 1 2.13 3.587 A 2.573 2.573 0 0 1 2.318 3.072 A 2.16 2.16 0 0 1 2.733 2.486 A 1.957 1.957 0 0 1 3.083 2.21 A 2.036 2.036 0 0 1 4.027 1.913 A 2.491 2.491 0 0 1 4.201 1.907 A 2.277 2.277 0 0 1 4.955 2.027 A 1.937 1.937 0 0 1 5.772 2.58 A 2.29 2.29 0 0 1 6.291 3.608 A 3.373 3.373 0 0 1 6.372 4.368 L 6.372 4.425 A 3.114 3.114 0 0 1 6.293 5.142 A 2.577 2.577 0 0 1 6.106 5.671 A 2.056 2.056 0 0 1 5.579 6.361 A 2.001 2.001 0 0 1 5.346 6.53 A 2.045 2.045 0 0 1 4.426 6.829 A 2.529 2.529 0 0 1 4.21 6.838 A 2.262 2.262 0 0 1 3.46 6.718 A 1.938 1.938 0 0 1 2.643 6.166 A 2.297 2.297 0 0 1 2.118 5.111 A 3.357 3.357 0 0 1 2.043 4.386 Z M 111.924 4.386 L 111.924 4.329 A 3.057 3.057 0 0 1 112.011 3.587 A 2.573 2.573 0 0 1 112.199 3.072 A 2.16 2.16 0 0 1 112.614 2.486 A 1.957 1.957 0 0 1 112.964 2.21 A 2.036 2.036 0 0 1 113.908 1.913 A 2.491 2.491 0 0 1 114.082 1.907 A 2.277 2.277 0 0 1 114.835 2.027 A 1.937 1.937 0 0 1 115.653 2.58 A 2.29 2.29 0 0 1 116.172 3.608 A 3.373 3.373 0 0 1 116.253 4.368 L 116.253 4.425 A 3.114 3.114 0 0 1 116.173 5.142 A 2.577 2.577 0 0 1 115.987 5.671 A 2.056 2.056 0 0 1 115.46 6.361 A 2.001 2.001 0 0 1 115.227 6.53 A 2.045 2.045 0 0 1 114.307 6.829 A 2.529 2.529 0 0 1 114.091 6.838 A 2.262 2.262 0 0 1 113.34 6.718 A 1.938 1.938 0 0 1 112.524 6.166 A 2.297 2.297 0 0 1 111.998 5.111 A 3.357 3.357 0 0 1 111.924 4.386 Z M 69.1 1.969 L 69.1 2.725 A 2.251 2.251 0 0 0 68.857 2.698 A 2.782 2.782 0 0 0 68.7 2.694 Q 67.922 2.694 67.63 3.338 A 1.445 1.445 0 0 0 67.614 3.375 L 67.614 6.75 L 66.801 6.75 L 66.801 1.995 L 67.592 1.995 L 67.605 2.544 Q 67.986 1.938 68.668 1.909 A 1.636 1.636 0 0 1 68.739 1.907 Q 68.977 1.907 69.1 1.969 Z M 84.766 1.969 L 84.766 2.725 A 2.251 2.251 0 0 0 84.523 2.698 A 2.782 2.782 0 0 0 84.366 2.694 Q 83.588 2.694 83.297 3.338 A 1.445 1.445 0 0 0 83.281 3.375 L 83.281 6.75 L 82.468 6.75 L 82.468 1.995 L 83.259 1.995 L 83.272 2.544 Q 83.652 1.938 84.335 1.909 A 1.636 1.636 0 0 1 84.406 1.907 Q 84.643 1.907 84.766 1.969 Z M 119.571 1.969 L 119.571 2.725 A 2.251 2.251 0 0 0 119.328 2.698 A 2.782 2.782 0 0 0 119.171 2.694 Q 118.393 2.694 118.102 3.338 A 1.445 1.445 0 0 0 118.085 3.375 L 118.085 6.75 L 117.272 6.75 L 117.272 1.995 L 118.063 1.995 L 118.077 2.544 Q 118.457 1.938 119.14 1.909 A 1.636 1.636 0 0 1 119.21 1.907 Q 119.448 1.907 119.571 1.969 Z M 0.844 0.352 L 0.844 6.75 L 0 6.75 L 0 0.352 L 0.844 0.352 Z M 26.024 1.995 L 26.024 6.75 L 25.211 6.75 L 25.211 1.995 L 26.024 1.995 Z M 140.607 1.995 L 140.607 6.75 L 139.794 6.75 L 139.794 1.995 L 140.607 1.995 Z M 2.861 4.425 A 2.772 2.772 0 0 0 2.908 4.954 Q 2.969 5.264 3.106 5.51 A 1.545 1.545 0 0 0 3.228 5.695 Q 3.595 6.174 4.21 6.174 A 1.269 1.269 0 0 0 4.699 6.083 Q 4.979 5.967 5.181 5.706 A 1.471 1.471 0 0 0 5.194 5.689 A 1.648 1.648 0 0 0 5.449 5.171 Q 5.518 4.945 5.544 4.672 A 3.655 3.655 0 0 0 5.559 4.329 A 2.687 2.687 0 0 0 5.508 3.789 Q 5.44 3.459 5.283 3.2 A 1.586 1.586 0 0 0 5.188 3.061 A 1.231 1.231 0 0 0 4.773 2.705 Q 4.52 2.575 4.201 2.575 Q 3.611 2.575 3.245 3.035 A 1.515 1.515 0 0 0 3.23 3.054 A 1.589 1.589 0 0 0 2.978 3.552 Q 2.908 3.772 2.88 4.039 A 3.676 3.676 0 0 0 2.861 4.425 Z M 112.742 4.425 A 2.772 2.772 0 0 0 112.789 4.954 Q 112.849 5.264 112.987 5.51 A 1.545 1.545 0 0 0 113.109 5.695 Q 113.476 6.174 114.091 6.174 A 1.269 1.269 0 0 0 114.58 6.083 Q 114.86 5.967 115.062 5.706 A 1.471 1.471 0 0 0 115.075 5.689 A 1.648 1.648 0 0 0 115.33 5.171 Q 115.399 4.945 115.424 4.672 A 3.655 3.655 0 0 0 115.44 4.329 A 2.687 2.687 0 0 0 115.389 3.789 Q 115.321 3.459 115.164 3.2 A 1.586 1.586 0 0 0 115.069 3.061 A 1.231 1.231 0 0 0 114.654 2.705 Q 114.4 2.575 114.082 2.575 Q 113.492 2.575 113.126 3.035 A 1.515 1.515 0 0 0 113.111 3.054 A 1.589 1.589 0 0 0 112.859 3.552 Q 112.789 3.772 112.761 4.039 A 3.676 3.676 0 0 0 112.742 4.425 Z M 57.797 3.252 L 57.797 5.524 Q 58.162 6.174 58.913 6.174 A 1.184 1.184 0 0 0 59.379 6.086 Q 59.636 5.977 59.824 5.735 A 1.403 1.403 0 0 0 59.843 5.711 A 1.501 1.501 0 0 0 60.059 5.28 Q 60.127 5.073 60.159 4.818 A 3.91 3.91 0 0 0 60.188 4.333 Q 60.188 3.746 60.005 3.339 A 1.503 1.503 0 0 0 59.845 3.063 A 1.086 1.086 0 0 0 59.059 2.605 A 1.414 1.414 0 0 0 58.904 2.597 Q 58.244 2.597 57.879 3.121 A 1.623 1.623 0 0 0 57.797 3.252 Z M 35.297 5.449 L 35.297 3.278 A 1.439 1.439 0 0 0 34.996 2.891 Q 34.692 2.62 34.252 2.599 A 1.578 1.578 0 0 0 34.176 2.597 Q 33.584 2.597 33.251 3.056 A 1.51 1.51 0 0 0 33.04 3.484 Q 32.974 3.689 32.943 3.939 A 3.955 3.955 0 0 0 32.915 4.425 Q 32.915 5.229 33.245 5.689 Q 33.574 6.148 34.167 6.148 A 1.32 1.32 0 0 0 34.677 6.054 Q 35.069 5.891 35.297 5.449 Z M 144.914 5.449 L 144.914 3.278 A 1.439 1.439 0 0 0 144.613 2.891 Q 144.309 2.62 143.869 2.599 A 1.578 1.578 0 0 0 143.793 2.597 Q 143.202 2.597 142.868 3.056 A 1.51 1.51 0 0 0 142.657 3.484 Q 142.591 3.689 142.56 3.939 A 3.955 3.955 0 0 0 142.532 4.425 Q 142.532 5.229 142.862 5.689 Q 143.191 6.148 143.785 6.148 A 1.32 1.32 0 0 0 144.294 6.054 Q 144.686 5.891 144.914 5.449 Z M 124.98 1.639 L 123.086 4.601 L 125.077 4.601 L 125.077 1.463 L 124.98 1.639 Z M 130.733 5.005 A 1.375 1.375 0 0 0 130.673 4.592 A 1.109 1.109 0 0 0 130.392 4.131 A 1.148 1.148 0 0 0 129.721 3.807 A 1.593 1.593 0 0 0 129.502 3.792 A 1.466 1.466 0 0 0 129.114 3.841 A 1.086 1.086 0 0 0 128.621 4.126 A 1.123 1.123 0 0 0 128.308 4.762 A 1.572 1.572 0 0 0 128.29 5.005 A 1.48 1.48 0 0 0 128.331 5.367 A 1.019 1.019 0 0 0 128.613 5.862 Q 128.919 6.158 129.452 6.173 A 2.053 2.053 0 0 0 129.511 6.174 Q 130.005 6.174 130.315 5.94 A 1.018 1.018 0 0 0 130.408 5.86 A 1.041 1.041 0 0 0 130.707 5.292 A 1.518 1.518 0 0 0 130.733 5.005 Z M 129.511 0.932 A 1.259 1.259 0 0 0 129.158 0.979 A 0.973 0.973 0 0 0 128.736 1.228 Q 128.439 1.525 128.439 2.035 A 1.325 1.325 0 0 0 128.484 2.387 A 0.994 0.994 0 0 0 128.731 2.823 A 0.974 0.974 0 0 0 129.293 3.108 A 1.382 1.382 0 0 0 129.511 3.125 A 1.279 1.279 0 0 0 129.856 3.08 A 0.952 0.952 0 0 0 130.291 2.823 A 1.018 1.018 0 0 0 130.566 2.26 A 1.426 1.426 0 0 0 130.583 2.035 A 1.282 1.282 0 0 0 130.533 1.668 A 1.013 1.013 0 0 0 130.28 1.239 Q 129.977 0.932 129.511 0.932 Z M 72.479 5.418 L 72.479 4.443 L 71.842 4.443 Q 70.348 4.443 70.348 5.317 Q 70.348 5.7 70.603 5.915 A 0.893 0.893 0 0 0 71.016 6.108 A 1.259 1.259 0 0 0 71.257 6.13 A 1.429 1.429 0 0 0 71.982 5.933 A 1.335 1.335 0 0 0 72.278 5.705 A 1.108 1.108 0 0 0 72.479 5.418 Z M 44.96 3.938 L 47.342 3.938 L 47.342 3.876 Q 47.316 3.417 47.146 3.111 A 1.13 1.13 0 0 0 47.008 2.916 A 0.983 0.983 0 0 0 46.354 2.584 A 1.39 1.39 0 0 0 46.2 2.575 A 1.106 1.106 0 0 0 45.677 2.698 A 1.14 1.14 0 0 0 45.374 2.933 A 1.417 1.417 0 0 0 45.097 3.379 Q 45.023 3.563 44.983 3.785 A 2.741 2.741 0 0 0 44.96 3.938 Z M 62.666 3.938 L 65.048 3.938 L 65.048 3.876 Q 65.022 3.417 64.851 3.111 A 1.13 1.13 0 0 0 64.714 2.916 A 0.983 0.983 0 0 0 64.059 2.584 A 1.39 1.39 0 0 0 63.905 2.575 A 1.106 1.106 0 0 0 63.383 2.698 A 1.14 1.14 0 0 0 63.079 2.933 A 1.417 1.417 0 0 0 62.802 3.379 Q 62.729 3.563 62.689 3.785 A 2.741 2.741 0 0 0 62.666 3.938 Z M 86.063 3.938 L 88.444 3.938 L 88.444 3.876 Q 88.418 3.417 88.248 3.111 A 1.13 1.13 0 0 0 88.11 2.916 A 0.983 0.983 0 0 0 87.456 2.584 A 1.39 1.39 0 0 0 87.302 2.575 A 1.106 1.106 0 0 0 86.779 2.698 A 1.14 1.14 0 0 0 86.476 2.933 A 1.417 1.417 0 0 0 86.199 3.379 Q 86.125 3.563 86.085 3.785 A 2.741 2.741 0 0 0 86.063 3.938 Z M 98.398 3.938 L 100.78 3.938 L 100.78 3.876 Q 100.754 3.417 100.583 3.111 A 1.13 1.13 0 0 0 100.446 2.916 A 0.983 0.983 0 0 0 99.791 2.584 A 1.39 1.39 0 0 0 99.637 2.575 A 1.106 1.106 0 0 0 99.115 2.698 A 1.14 1.14 0 0 0 98.811 2.933 A 1.417 1.417 0 0 0 98.534 3.379 Q 98.461 3.563 98.421 3.785 A 2.741 2.741 0 0 0 98.398 3.938 Z M 25.146 0.734 Q 25.146 0.536 25.266 0.4 Q 25.378 0.274 25.59 0.264 A 0.783 0.783 0 0 1 25.625 0.264 Q 25.862 0.264 25.985 0.4 A 0.474 0.474 0 0 1 26.107 0.703 A 0.614 0.614 0 0 1 26.108 0.734 A 0.523 0.523 0 0 1 26.083 0.9 A 0.442 0.442 0 0 1 25.985 1.063 Q 25.872 1.184 25.664 1.194 A 0.803 0.803 0 0 1 25.625 1.195 Q 25.452 1.195 25.341 1.126 A 0.362 0.362 0 0 1 25.266 1.063 A 0.456 0.456 0 0 1 25.148 0.788 A 0.605 0.605 0 0 1 25.146 0.734 Z M 139.729 0.734 Q 139.729 0.536 139.849 0.4 Q 139.961 0.274 140.173 0.264 A 0.783 0.783 0 0 1 140.208 0.264 Q 140.445 0.264 140.568 0.4 A 0.474 0.474 0 0 1 140.69 0.703 A 0.614 0.614 0 0 1 140.691 0.734 A 0.523 0.523 0 0 1 140.666 0.9 A 0.442 0.442 0 0 1 140.568 1.063 Q 140.455 1.184 140.247 1.194 A 0.803 0.803 0 0 1 140.208 1.195 Q 140.035 1.195 139.924 1.126 A 0.362 0.362 0 0 1 139.849 1.063 A 0.456 0.456 0 0 1 139.731 0.788 A 0.605 0.605 0 0 1 139.729 0.734 Z" vector-effect="non-scaling-stroke"/></g>
</svgversion="1.0" encoding="UTF-8"?>
<svg width="48px" height="48px" viewBox="0 0 48 48" version="1.1" xmlns="http://www.w3.org/2000/svg" xmlns:xlink="http://www.w3.org/1999/xlink">
    <title>Icon-Resource/IoT/Res_AWS-IoT_Thing_Temperature-Sensor_48_Light</title>
    <g id="Icon-Resource/IoT/Res_AWS-IoT_Thing_Temperature-Sensor_48" stroke="none" stroke-width="1" fill="none" fill-rule="evenodd">
        <path transform="translate(12.000000, 8.000000), scale(.65)" d="M24,32.9775 C23.448,32.9775 23,32.5285 23,31.9775 C23,31.4265 23.448,30.9775 24,30.9775 C24.552,30.9775 25,31.4265 25,31.9775 C25,32.5285 24.552,32.9775 24,32.9775 L24,32.9775 Z M25,29.1615 L25,17.9995 L23,17.9995 L23,29.1615 C21.839,29.5765 21,30.6755 21,31.9775 C21,33.6315 22.346,34.9775 24,34.9775 C25.654,34.9775 27,33.6315 27,31.9775 C27,30.6755 26.161,29.5765 25,29.1615 L25,29.1615 Z M26.522,35.0815 C25.569,35.8575 24.364,36.1425 23.132,35.8875 C21.588,35.5665 20.356,34.2985 20.069,32.7315 C19.79,31.2055 20.363,29.7345 21.603,28.7975 L22,28.4975 L22,13.9995 C22,12.8965 22.897,11.9995 24,11.9995 C25.103,11.9995 26,12.8965 26,13.9995 L26,28.4985 L26.397,28.7975 C27.416,29.5675 28,30.7265 28,31.9775 C28,33.1865 27.462,34.3175 26.522,35.0815 L26.522,35.0815 Z M28,27.5285 L28,13.9995 C28,11.7945 26.206,9.9995 24,9.9995 C21.794,9.9995 20,11.7945 20,13.9995 L20,27.5295 C18.444,28.9235 17.721,31.0105 18.103,33.0925 C18.535,35.4515 20.393,37.3615 22.726,37.8455 C23.147,37.9335 23.571,37.9765 23.991,37.9765 C25.37,37.9765 26.706,37.5115 27.785,36.6325 C29.192,35.4875 30,33.7905 30,31.9775 C30,30.2645 29.277,28.6685 28,27.5285 L28,27.5285 Z M30,26.9995 L34,26.9995 L34,24.9995 L30,24.9995 L30,26.9995 Z M30,22.9995 L35,22.9995 L35,20.9995 L30,20.9995 L30,22.9995 Z M30,18.9995 L34,18.9995 L34,16.9995 L30,16.9995 L30,18.9995 Z M30,14.9995 L35,14.9995 L35,12.9995 L30,12.9995 L30,14.9995 Z M39,37.8655 C39,38.4905 38.491,38.9995 37.865,38.9995 L10.135,38.9995 C9.509,38.9995 9,38.4905 9,37.8655 L9,10.1345 C9,9.5095 9.509,8.9995 10.135,8.9995 L37.865,8.9995 C38.491,8.9995 39,9.5095 39,10.1345 L39,37.8655 Z M46,14.9995 L46,12.9995 L41,12.9995 L41,10.1345 C41,8.4065 39.594,6.9995 37.865,6.9995 L35,6.9995 L35,1.9995 L33,1.9995 L33,6.9995 L30,6.9995 L30,1.9995 L28,1.9995 L28,6.9995 L25,6.9995 L25,1.9995 L23,1.9995 L23,6.9995 L20,6.9995 L20,1.9995 L18,1.9995 L18,6.9995 L15,6.9995 L15,1.9995 L13,1.9995 L13,6.9995 L10.135,6.9995 C8.406,6.9995 7,8.4065 7,10.1345 L7,12.9995 L2,12.9995 L2,14.9995 L7,14.9995 L7,17.9995 L2,17.9995 L2,19.9995 L7,19.9995 L7,22.9995 L2,22.9995 L2,24.9995 L7,24.9995 L7,27.9995 L2,27.9995 L2,29.9995 L7,29.9995 L7,32.9995 L2,32.9995 L2,34.9995 L7,34.9995 L7,37.8655 C7,39.5935 8.406,40.9995 10.135,40.9995 L13,40.9995 L13,45.9995 L15,45.9995 L15,40.9995 L18,40.9995 L18,45.9995 L20,45.9995 L20,40.9995 L23,40.9995 L23,45.9995 L25,45.9995 L25,40.9995 L28,40.9995 L28,45.9995 L30,45.9995 L30,40.9995 L33,40.9995 L33,45.9995 L35,45.9995 L35,40.9995 L37.865,40.9995 C39.594,40.9995 41,39.5935 41,37.8655 L41,34.9995 L46,34.9995 L46,32.9995 L41,32.9995 L41,29.9995 L46,29.9995 L46,27.9995 L41,27.9995 L41,24.9995 L46,24.9995 L46,22.9995 L41,22.9995 L41,19.9995 L46,19.9995 L46,17.9995 L41,17.9995 L41,14.9995 L46,14.9995 Z" id="Fill-1" fill="#000000"></path>
    </g><g transform="translate(25, 83)" id="svgGroup" stroke-linecap="round" fill-rule="evenodd" font-size="9pt" stroke="#000" stroke-width="0.25mm" fill="#000" style="stroke:#000;stroke-width:0.25mm;fill:#000"><path d="M 23.12 0.088 L 24.13 4.469 L 24.253 5.313 L 24.434 4.553 L 25.699 0.088 L 26.411 0.088 L 27.646 4.553 L 27.822 5.326 L 27.958 4.465 L 28.951 0.088 L 29.799 0.088 L 28.248 6.486 L 27.479 6.486 L 26.161 1.824 L 26.06 1.336 L 25.958 1.824 L 24.592 6.486 L 23.823 6.486 L 22.276 0.088 L 23.12 0.088 Z M 34.98 1.938 L 34.132 1.938 A 1.466 1.466 0 0 0 34.083 1.546 A 1.066 1.066 0 0 0 33.763 1.026 A 1.211 1.211 0 0 0 33.294 0.77 Q 33.042 0.694 32.722 0.694 A 2.286 2.286 0 0 0 32.342 0.724 Q 32.14 0.758 31.977 0.831 A 1.101 1.101 0 0 0 31.748 0.969 A 0.892 0.892 0 0 0 31.403 1.624 A 1.267 1.267 0 0 0 31.399 1.732 A 0.806 0.806 0 0 0 31.667 2.337 A 1.134 1.134 0 0 0 31.731 2.393 A 1.562 1.562 0 0 0 31.969 2.549 Q 32.299 2.73 32.86 2.887 A 8.228 8.228 0 0 1 33.325 3.032 Q 33.56 3.113 33.754 3.2 A 3.297 3.297 0 0 1 34.108 3.382 A 2.342 2.342 0 0 1 34.447 3.626 Q 34.637 3.792 34.759 3.985 A 1.45 1.45 0 0 1 34.776 4.012 A 1.498 1.498 0 0 1 34.972 4.568 A 1.948 1.948 0 0 1 34.994 4.86 A 1.606 1.606 0 0 1 34.871 5.497 Q 34.726 5.838 34.408 6.09 A 1.886 1.886 0 0 1 34.387 6.106 Q 33.781 6.574 32.766 6.574 A 3.023 3.023 0 0 1 31.625 6.36 A 2.917 2.917 0 0 1 31.535 6.322 A 2.383 2.383 0 0 1 31.057 6.044 A 1.874 1.874 0 0 1 30.654 5.629 A 1.689 1.689 0 0 1 30.344 4.632 L 31.192 4.632 A 1.261 1.261 0 0 0 31.262 5.059 A 1.074 1.074 0 0 0 31.621 5.548 Q 32.005 5.85 32.622 5.881 A 2.87 2.87 0 0 0 32.766 5.884 A 2.628 2.628 0 0 0 33.153 5.858 Q 33.349 5.828 33.508 5.767 A 1.129 1.129 0 0 0 33.79 5.612 Q 34.146 5.339 34.146 4.869 A 1.074 1.074 0 0 0 34.103 4.559 A 0.816 0.816 0 0 0 33.816 4.142 Q 33.486 3.885 32.621 3.634 Q 31.535 3.322 31.041 2.868 Q 30.546 2.413 30.546 1.745 Q 30.546 0.989 31.151 0.494 A 2.121 2.121 0 0 1 32.041 0.071 A 3.087 3.087 0 0 1 32.722 0 A 2.913 2.913 0 0 1 33.382 0.072 A 2.372 2.372 0 0 1 33.897 0.255 A 2.051 2.051 0 0 1 34.428 0.626 A 1.834 1.834 0 0 1 34.697 0.958 A 1.798 1.798 0 0 1 34.98 1.938 Z M 3.74 6.486 L 2.351 3.898 L 0.848 3.898 L 0.848 6.486 L 0 6.486 L 0 0.088 L 2.118 0.088 A 3.809 3.809 0 0 1 2.76 0.138 Q 3.102 0.197 3.376 0.324 A 1.789 1.789 0 0 1 3.781 0.58 A 1.588 1.588 0 0 1 4.307 1.469 A 2.453 2.453 0 0 1 4.364 2.013 A 1.864 1.864 0 0 1 4.273 2.604 A 1.64 1.64 0 0 1 4.041 3.054 A 1.849 1.849 0 0 1 3.382 3.611 A 2.342 2.342 0 0 1 3.142 3.718 L 4.645 6.434 L 4.645 6.486 L 3.74 6.486 Z M 13.724 3.129 L 12.907 3.129 Q 12.907 2.795 12.623 2.553 Q 12.34 2.312 11.909 2.312 Q 11.465 2.312 11.215 2.505 A 0.653 0.653 0 0 0 11.04 2.704 Q 10.967 2.835 10.964 3 A 0.771 0.771 0 0 0 10.964 3.01 A 0.588 0.588 0 0 0 10.994 3.203 A 0.48 0.48 0 0 0 11.197 3.454 A 1.093 1.093 0 0 0 11.348 3.533 Q 11.512 3.605 11.767 3.673 A 6.581 6.581 0 0 0 12.039 3.74 A 6.318 6.318 0 0 1 12.446 3.845 Q 12.783 3.944 13.025 4.065 A 1.901 1.901 0 0 1 13.281 4.218 Q 13.418 4.315 13.516 4.429 A 1.06 1.06 0 0 1 13.586 4.52 A 1.024 1.024 0 0 1 13.748 4.927 A 1.388 1.388 0 0 1 13.768 5.168 Q 13.768 5.805 13.258 6.19 Q 12.776 6.554 12.022 6.573 A 3.337 3.337 0 0 1 11.936 6.574 A 2.746 2.746 0 0 1 11.401 6.525 A 2.124 2.124 0 0 1 10.925 6.372 A 1.771 1.771 0 0 1 10.491 6.094 A 1.54 1.54 0 0 1 10.237 5.807 Q 9.989 5.445 9.989 5.023 L 10.802 5.023 A 0.932 0.932 0 0 0 10.875 5.348 A 0.827 0.827 0 0 0 11.129 5.671 A 1.072 1.072 0 0 0 11.531 5.864 Q 11.686 5.903 11.867 5.91 A 2.013 2.013 0 0 0 11.936 5.911 A 1.863 1.863 0 0 0 12.231 5.889 Q 12.393 5.863 12.524 5.806 A 0.941 0.941 0 0 0 12.676 5.724 A 0.689 0.689 0 0 0 12.841 5.574 A 0.554 0.554 0 0 0 12.955 5.225 A 0.698 0.698 0 0 0 12.919 4.994 A 0.581 0.581 0 0 0 12.707 4.713 A 1.05 1.05 0 0 0 12.538 4.615 Q 12.349 4.524 12.054 4.449 A 5.392 5.392 0 0 0 11.841 4.399 A 6.342 6.342 0 0 1 11.48 4.311 Q 11.11 4.209 10.861 4.083 Q 10.562 3.93 10.392 3.731 A 1.017 1.017 0 0 1 10.325 3.643 Q 10.151 3.388 10.151 3.037 A 1.206 1.206 0 0 1 10.55 2.132 A 1.694 1.694 0 0 1 10.646 2.048 A 1.752 1.752 0 0 1 11.429 1.688 A 2.471 2.471 0 0 1 11.909 1.644 A 2.559 2.559 0 0 1 12.473 1.702 A 1.757 1.757 0 0 1 13.221 2.061 Q 13.724 2.479 13.724 3.129 Z M 21.327 6.486 L 20.716 4.816 L 18.035 4.816 L 17.433 6.486 L 16.563 6.486 L 19.006 0.088 L 19.745 0.088 L 22.192 6.486 L 21.327 6.486 Z M 5.212 4.241 L 5.212 4.091 A 3.17 3.17 0 0 1 5.288 3.382 A 2.581 2.581 0 0 1 5.482 2.828 A 2.191 2.191 0 0 1 5.93 2.202 A 2.033 2.033 0 0 1 6.238 1.958 Q 6.724 1.644 7.291 1.644 A 2.254 2.254 0 0 1 7.904 1.723 A 1.639 1.639 0 0 1 8.732 2.254 Q 9.246 2.865 9.246 4.003 L 9.246 4.342 L 6.025 4.342 A 2.111 2.111 0 0 0 6.096 4.85 A 1.516 1.516 0 0 0 6.436 5.478 A 1.282 1.282 0 0 0 7.37 5.909 A 1.652 1.652 0 0 0 7.436 5.911 A 1.763 1.763 0 0 0 7.764 5.882 Q 7.988 5.839 8.165 5.735 A 1.827 1.827 0 0 0 8.674 5.287 A 2.068 2.068 0 0 0 8.688 5.269 L 9.185 5.656 A 1.926 1.926 0 0 1 7.785 6.547 A 2.749 2.749 0 0 1 7.392 6.574 A 2.394 2.394 0 0 1 6.64 6.461 A 1.974 1.974 0 0 1 5.818 5.939 Q 5.212 5.304 5.212 4.241 Z M 0.848 0.782 L 0.848 3.208 L 2.145 3.208 Q 2.685 3.208 3.035 2.968 A 1.174 1.174 0 0 0 3.144 2.883 A 1.069 1.069 0 0 0 3.51 2.146 A 1.486 1.486 0 0 0 3.516 2.013 Q 3.516 1.47 3.22 1.159 A 1 1 0 0 0 3.162 1.103 Q 2.808 0.787 2.14 0.782 L 0.848 0.782 Z M 19.375 1.129 L 18.29 4.122 L 20.465 4.122 L 19.375 1.129 Z M 6.051 3.674 L 8.433 3.674 L 8.433 3.612 Q 8.407 3.153 8.236 2.848 A 1.13 1.13 0 0 0 8.099 2.652 A 0.983 0.983 0 0 0 7.445 2.32 A 1.39 1.39 0 0 0 7.291 2.312 A 1.106 1.106 0 0 0 6.768 2.435 A 1.14 1.14 0 0 0 6.464 2.67 A 1.417 1.417 0 0 0 6.188 3.116 Q 6.114 3.3 6.074 3.522 A 2.741 2.741 0 0 0 6.051 3.674 Z" vector-effect="non-scaling-stroke"/></g><g transform="translate(25, 93)" id="svgGroup" stroke-linecap="round" fill-rule="evenodd" font-size="9pt" stroke="#000" stroke-width="0.25mm" fill="#000" style="stroke:#000;stroke-width:0.25mm;fill:#000"><path d="M 49.091 1.995 L 49.86 1.995 L 49.882 2.522 Q 50.405 1.907 51.293 1.907 A 2.009 2.009 0 0 1 51.804 1.968 A 1.244 1.244 0 0 1 52.651 2.672 A 1.801 1.801 0 0 1 53.268 2.118 A 1.65 1.65 0 0 1 53.798 1.937 A 2.209 2.209 0 0 1 54.167 1.907 A 2.119 2.119 0 0 1 54.811 1.997 Q 55.738 2.292 55.758 3.564 L 55.758 6.75 L 54.945 6.75 L 54.945 3.612 A 1.781 1.781 0 0 0 54.924 3.332 Q 54.901 3.185 54.85 3.067 A 0.758 0.758 0 0 0 54.712 2.85 A 0.68 0.68 0 0 0 54.459 2.682 Q 54.248 2.597 53.931 2.597 A 1.245 1.245 0 0 0 53.565 2.648 A 1.008 1.008 0 0 0 53.178 2.867 A 1.042 1.042 0 0 0 52.864 3.404 A 1.41 1.41 0 0 0 52.831 3.595 L 52.831 6.75 L 52.014 6.75 L 52.014 3.634 A 1.532 1.532 0 0 0 51.965 3.23 Q 51.838 2.768 51.381 2.643 A 1.457 1.457 0 0 0 50.999 2.597 Q 50.225 2.597 49.924 3.234 A 1.459 1.459 0 0 0 49.904 3.278 L 49.904 6.75 L 49.091 6.75 L 49.091 1.995 Z M 96.798 2.202 L 95.95 2.202 A 1.466 1.466 0 0 0 95.9 1.809 A 1.066 1.066 0 0 0 95.581 1.29 A 1.211 1.211 0 0 0 95.112 1.033 Q 94.86 0.958 94.54 0.958 A 2.286 2.286 0 0 0 94.16 0.988 Q 93.958 1.022 93.795 1.095 A 1.101 1.101 0 0 0 93.566 1.233 A 0.892 0.892 0 0 0 93.221 1.887 A 1.267 1.267 0 0 0 93.217 1.995 A 0.806 0.806 0 0 0 93.485 2.6 A 1.134 1.134 0 0 0 93.549 2.656 A 1.562 1.562 0 0 0 93.787 2.813 Q 94.117 2.993 94.678 3.151 A 8.228 8.228 0 0 1 95.143 3.295 Q 95.378 3.377 95.572 3.464 A 3.297 3.297 0 0 1 95.926 3.645 A 2.342 2.342 0 0 1 96.265 3.889 Q 96.455 4.056 96.577 4.248 A 1.45 1.45 0 0 1 96.594 4.276 A 1.498 1.498 0 0 1 96.79 4.832 A 1.948 1.948 0 0 1 96.812 5.124 A 1.606 1.606 0 0 1 96.689 5.76 Q 96.544 6.101 96.226 6.354 A 1.886 1.886 0 0 1 96.205 6.37 Q 95.599 6.838 94.583 6.838 A 3.023 3.023 0 0 1 93.443 6.623 A 2.917 2.917 0 0 1 93.353 6.585 A 2.383 2.383 0 0 1 92.875 6.307 A 1.874 1.874 0 0 1 92.472 5.893 A 1.689 1.689 0 0 1 92.162 4.896 L 93.01 4.896 A 1.261 1.261 0 0 0 93.08 5.323 A 1.074 1.074 0 0 0 93.439 5.812 Q 93.823 6.113 94.44 6.144 A 2.87 2.87 0 0 0 94.583 6.148 A 2.628 2.628 0 0 0 94.971 6.121 Q 95.167 6.092 95.326 6.031 A 1.129 1.129 0 0 0 95.607 5.875 Q 95.963 5.603 95.963 5.133 A 1.074 1.074 0 0 0 95.921 4.822 A 0.816 0.816 0 0 0 95.634 4.406 Q 95.304 4.148 94.438 3.898 Q 93.353 3.586 92.859 3.131 Q 92.364 2.676 92.364 2.008 Q 92.364 1.252 92.969 0.758 A 2.121 2.121 0 0 1 93.859 0.335 A 3.087 3.087 0 0 1 94.54 0.264 A 2.913 2.913 0 0 1 95.2 0.336 A 2.372 2.372 0 0 1 95.715 0.519 A 2.051 2.051 0 0 1 96.246 0.889 A 1.834 1.834 0 0 1 96.515 1.222 A 1.798 1.798 0 0 1 96.798 2.202 Z M 20.997 0 L 20.997 2.571 A 1.767 1.767 0 0 1 21.663 2.053 A 1.832 1.832 0 0 1 22.403 1.907 A 1.905 1.905 0 0 1 23.037 2.004 Q 23.879 2.3 23.922 3.506 A 3.668 3.668 0 0 1 23.924 3.608 L 23.924 6.75 L 23.111 6.75 L 23.111 3.604 A 1.837 1.837 0 0 0 23.089 3.324 Q 23.038 3.017 22.876 2.843 Q 22.69 2.645 22.336 2.606 A 1.66 1.66 0 0 0 22.157 2.597 A 1.253 1.253 0 0 0 21.743 2.664 A 1.123 1.123 0 0 0 21.463 2.808 A 1.432 1.432 0 0 0 20.997 3.362 L 20.997 6.75 L 20.184 6.75 L 20.184 0 L 20.997 0 Z M 147.771 0 L 147.771 2.571 A 1.767 1.767 0 0 1 148.437 2.053 A 1.832 1.832 0 0 1 149.177 1.907 A 1.905 1.905 0 0 1 149.81 2.004 Q 150.652 2.3 150.695 3.506 A 3.668 3.668 0 0 1 150.697 3.608 L 150.697 6.75 L 149.884 6.75 L 149.884 3.604 A 1.837 1.837 0 0 0 149.862 3.324 Q 149.812 3.017 149.649 2.843 Q 149.463 2.645 149.11 2.606 A 1.66 1.66 0 0 0 148.931 2.597 A 1.253 1.253 0 0 0 148.516 2.664 A 1.123 1.123 0 0 0 148.236 2.808 A 1.432 1.432 0 0 0 147.771 3.362 L 147.771 6.75 L 146.958 6.75 L 146.958 0 L 147.771 0 Z M 35.332 2.522 L 35.372 1.995 L 36.114 1.995 L 36.114 6.636 A 2.511 2.511 0 0 1 36.044 7.249 A 1.738 1.738 0 0 1 35.567 8.09 A 1.834 1.834 0 0 1 34.637 8.57 A 2.671 2.671 0 0 1 34.097 8.622 A 2.446 2.446 0 0 1 33.091 8.402 A 2.003 2.003 0 0 1 32.681 8.161 A 1.563 1.563 0 0 1 32.339 7.8 L 32.761 7.313 A 1.889 1.889 0 0 0 33.196 7.712 A 1.514 1.514 0 0 0 34.04 7.958 A 1.695 1.695 0 0 0 34.417 7.919 Q 34.685 7.858 34.879 7.702 A 1.037 1.037 0 0 0 34.965 7.625 A 1.09 1.09 0 0 0 35.242 7.132 Q 35.289 6.959 35.296 6.752 A 2.134 2.134 0 0 0 35.297 6.684 L 35.297 6.275 A 1.601 1.601 0 0 1 34.245 6.821 A 2.279 2.279 0 0 1 33.965 6.838 A 1.672 1.672 0 0 1 33.21 6.67 Q 32.888 6.51 32.638 6.197 A 2.14 2.14 0 0 1 32.614 6.166 A 2.316 2.316 0 0 1 32.231 5.386 Q 32.098 4.922 32.098 4.333 Q 32.098 3.472 32.406 2.884 A 2.096 2.096 0 0 1 32.612 2.564 Q 33.126 1.907 33.974 1.907 A 1.971 1.971 0 0 1 34.573 1.994 A 1.55 1.55 0 0 1 35.332 2.522 Z M 144.949 2.522 L 144.989 1.995 L 145.731 1.995 L 145.731 6.636 A 2.511 2.511 0 0 1 145.661 7.249 A 1.738 1.738 0 0 1 145.184 8.09 A 1.834 1.834 0 0 1 144.254 8.57 A 2.671 2.671 0 0 1 143.714 8.622 A 2.446 2.446 0 0 1 142.708 8.402 A 2.003 2.003 0 0 1 142.298 8.161 A 1.563 1.563 0 0 1 141.957 7.8 L 142.378 7.313 A 1.889 1.889 0 0 0 142.813 7.712 A 1.514 1.514 0 0 0 143.657 7.958 A 1.695 1.695 0 0 0 144.034 7.919 Q 144.303 7.858 144.497 7.702 A 1.037 1.037 0 0 0 144.582 7.625 A 1.09 1.09 0 0 0 144.859 7.132 Q 144.906 6.959 144.913 6.752 A 2.134 2.134 0 0 0 144.914 6.684 L 144.914 6.275 A 1.601 1.601 0 0 1 143.862 6.821 A 2.279 2.279 0 0 1 143.583 6.838 A 1.672 1.672 0 0 1 142.827 6.67 Q 142.505 6.51 142.256 6.197 A 2.14 2.14 0 0 1 142.231 6.166 A 2.316 2.316 0 0 1 141.848 5.386 Q 141.715 4.922 141.715 4.333 Q 141.715 3.472 142.023 2.884 A 2.096 2.096 0 0 1 142.229 2.564 Q 142.743 1.907 143.591 1.907 A 1.971 1.971 0 0 1 144.19 1.994 A 1.55 1.55 0 0 1 144.949 2.522 Z M 111.037 3.393 L 110.219 3.393 Q 110.219 3.059 109.936 2.817 Q 109.652 2.575 109.222 2.575 Q 108.778 2.575 108.527 2.769 A 0.653 0.653 0 0 0 108.352 2.967 Q 108.279 3.098 108.277 3.263 A 0.771 0.771 0 0 0 108.277 3.274 A 0.588 0.588 0 0 0 108.307 3.467 A 0.48 0.48 0 0 0 108.51 3.718 A 1.093 1.093 0 0 0 108.66 3.796 Q 108.824 3.868 109.08 3.937 A 6.581 6.581 0 0 0 109.351 4.003 A 6.318 6.318 0 0 1 109.759 4.108 Q 110.096 4.208 110.338 4.329 A 1.901 1.901 0 0 1 110.594 4.481 Q 110.731 4.579 110.828 4.692 A 1.06 1.06 0 0 1 110.898 4.783 A 1.024 1.024 0 0 1 111.06 5.191 A 1.388 1.388 0 0 1 111.081 5.432 Q 111.081 6.069 110.571 6.453 Q 110.088 6.817 109.335 6.837 A 3.337 3.337 0 0 1 109.248 6.838 A 2.746 2.746 0 0 1 108.714 6.788 A 2.124 2.124 0 0 1 108.237 6.636 A 1.771 1.771 0 0 1 107.803 6.358 A 1.54 1.54 0 0 1 107.55 6.071 Q 107.301 5.708 107.301 5.287 L 108.114 5.287 A 0.932 0.932 0 0 0 108.188 5.612 A 0.827 0.827 0 0 0 108.442 5.935 A 1.072 1.072 0 0 0 108.844 6.128 Q 108.998 6.167 109.18 6.173 A 2.013 2.013 0 0 0 109.248 6.174 A 1.863 1.863 0 0 0 109.544 6.152 Q 109.705 6.126 109.837 6.07 A 0.941 0.941 0 0 0 109.989 5.988 A 0.689 0.689 0 0 0 110.153 5.837 A 0.554 0.554 0 0 0 110.268 5.489 A 0.698 0.698 0 0 0 110.231 5.258 A 0.581 0.581 0 0 0 110.019 4.977 A 1.05 1.05 0 0 0 109.85 4.878 Q 109.662 4.788 109.367 4.712 A 5.392 5.392 0 0 0 109.154 4.663 A 6.342 6.342 0 0 1 108.793 4.575 Q 108.423 4.473 108.174 4.346 Q 107.875 4.194 107.704 3.994 A 1.017 1.017 0 0 1 107.637 3.907 Q 107.464 3.652 107.464 3.3 A 1.206 1.206 0 0 1 107.863 2.396 A 1.694 1.694 0 0 1 107.958 2.312 A 1.752 1.752 0 0 1 108.741 1.952 A 2.471 2.471 0 0 1 109.222 1.907 A 2.559 2.559 0 0 1 109.785 1.966 A 1.757 1.757 0 0 1 110.533 2.325 Q 111.037 2.742 111.037 3.393 Z M 27.325 1.995 L 28.094 1.995 L 28.121 2.593 Q 28.657 1.918 29.517 1.907 A 2.234 2.234 0 0 1 29.544 1.907 A 1.905 1.905 0 0 1 30.178 2.004 Q 31.02 2.3 31.063 3.506 A 3.668 3.668 0 0 1 31.065 3.608 L 31.065 6.75 L 30.252 6.75 L 30.252 3.604 A 1.837 1.837 0 0 0 30.23 3.324 Q 30.18 3.017 30.017 2.843 Q 29.831 2.645 29.477 2.606 A 1.66 1.66 0 0 0 29.298 2.597 A 1.253 1.253 0 0 0 28.884 2.664 A 1.123 1.123 0 0 0 28.604 2.808 A 1.432 1.432 0 0 0 28.138 3.362 L 28.138 6.75 L 27.325 6.75 L 27.325 1.995 Z M 102.533 1.995 L 103.302 1.995 L 103.329 2.593 Q 103.865 1.918 104.725 1.907 A 2.234 2.234 0 0 1 104.752 1.907 A 1.905 1.905 0 0 1 105.386 2.004 Q 106.228 2.3 106.271 3.506 A 3.668 3.668 0 0 1 106.273 3.608 L 106.273 6.75 L 105.46 6.75 L 105.46 3.604 A 1.837 1.837 0 0 0 105.438 3.324 Q 105.388 3.017 105.225 2.843 Q 105.039 2.645 104.685 2.606 A 1.66 1.66 0 0 0 104.506 2.597 A 1.253 1.253 0 0 0 104.092 2.664 A 1.123 1.123 0 0 0 103.812 2.808 A 1.432 1.432 0 0 0 103.346 3.362 L 103.346 6.75 L 102.533 6.75 L 102.533 1.995 Z M 80.459 6.75 L 80.442 6.28 A 1.526 1.526 0 0 1 79.616 6.775 Q 79.365 6.836 79.068 6.838 A 2.996 2.996 0 0 1 79.049 6.838 A 2.086 2.086 0 0 1 78.589 6.79 Q 78.158 6.693 77.891 6.396 A 1.41 1.41 0 0 1 77.608 5.899 Q 77.491 5.556 77.489 5.089 L 77.489 1.995 L 78.302 1.995 L 78.302 5.067 Q 78.302 6.037 79.009 6.137 A 1.229 1.229 0 0 0 79.181 6.148 A 1.927 1.927 0 0 0 79.632 6.099 Q 80.194 5.964 80.42 5.454 L 80.42 1.995 L 81.233 1.995 L 81.233 6.75 L 80.459 6.75 Z M 11.94 0.352 L 11.94 1.046 L 9.883 1.046 L 9.883 6.75 L 9.044 6.75 L 9.044 1.046 L 6.992 1.046 L 6.992 0.352 L 11.94 0.352 Z M 19.362 0.352 L 19.362 1.046 L 17.306 1.046 L 17.306 6.75 L 16.466 6.75 L 16.466 1.046 L 14.414 1.046 L 14.414 0.352 L 19.362 0.352 Z M 43.941 0.352 L 43.941 1.046 L 41.884 1.046 L 41.884 6.75 L 41.045 6.75 L 41.045 1.046 L 38.993 1.046 L 38.993 0.352 L 43.941 0.352 Z M 73.459 6.75 L 72.606 6.75 A 0.632 0.632 0 0 1 72.571 6.66 Q 72.54 6.562 72.515 6.41 A 3.997 3.997 0 0 1 72.492 6.249 Q 71.925 6.838 71.139 6.838 A 2.033 2.033 0 0 1 70.609 6.772 A 1.529 1.529 0 0 1 69.985 6.44 Q 69.535 6.042 69.535 5.432 Q 69.535 4.689 70.099 4.278 Q 70.664 3.867 71.688 3.867 L 72.479 3.867 L 72.479 3.494 A 1.152 1.152 0 0 0 72.443 3.199 A 0.828 0.828 0 0 0 72.224 2.815 Q 72.008 2.6 71.617 2.568 A 1.748 1.748 0 0 0 71.473 2.562 Q 71.038 2.562 70.743 2.782 Q 70.449 3.001 70.449 3.313 L 69.631 3.313 A 1.041 1.041 0 0 1 69.756 2.825 A 1.409 1.409 0 0 1 69.884 2.626 Q 70.137 2.294 70.57 2.101 A 2.249 2.249 0 0 1 71.345 1.913 A 2.669 2.669 0 0 1 71.521 1.907 A 2.65 2.65 0 0 1 72.038 1.955 Q 72.346 2.016 72.584 2.156 A 1.439 1.439 0 0 1 72.809 2.318 A 1.396 1.396 0 0 1 73.262 3.144 A 1.998 1.998 0 0 1 73.292 3.45 L 73.292 5.638 Q 73.292 6.073 73.366 6.39 A 1.707 1.707 0 0 0 73.459 6.68 L 73.459 6.75 Z M 61 4.351 L 61 4.425 Q 61 5.511 60.504 6.174 A 1.57 1.57 0 0 1 59.366 6.828 A 2.013 2.013 0 0 1 59.159 6.838 A 2.196 2.196 0 0 1 58.573 6.764 A 1.598 1.598 0 0 1 57.797 6.289 L 57.797 8.578 L 56.984 8.578 L 56.984 1.995 L 57.727 1.995 L 57.766 2.522 A 1.619 1.619 0 0 1 58.905 1.919 A 2.319 2.319 0 0 1 59.146 1.907 A 1.829 1.829 0 0 1 59.783 2.014 A 1.597 1.597 0 0 1 60.502 2.553 Q 61 3.199 61 4.351 Z M 44.121 4.504 L 44.121 4.355 A 3.17 3.17 0 0 1 44.197 3.646 A 2.581 2.581 0 0 1 44.391 3.092 A 2.191 2.191 0 0 1 44.839 2.466 A 2.033 2.033 0 0 1 45.147 2.221 Q 45.633 1.907 46.2 1.907 A 2.254 2.254 0 0 1 46.813 1.986 A 1.639 1.639 0 0 1 47.641 2.518 Q 48.155 3.129 48.155 4.267 L 48.155 4.605 L 44.934 4.605 A 2.111 2.111 0 0 0 45.005 5.114 A 1.516 1.516 0 0 0 45.345 5.741 A 1.282 1.282 0 0 0 46.279 6.173 A 1.652 1.652 0 0 0 46.345 6.174 A 1.763 1.763 0 0 0 46.673 6.145 Q 46.897 6.103 47.074 5.999 A 1.827 1.827 0 0 0 47.583 5.551 A 2.068 2.068 0 0 0 47.597 5.533 L 48.094 5.919 A 1.926 1.926 0 0 1 46.694 6.811 A 2.749 2.749 0 0 1 46.301 6.838 A 2.394 2.394 0 0 1 45.55 6.725 A 1.974 1.974 0 0 1 44.728 6.203 Q 44.121 5.568 44.121 4.504 Z M 61.827 4.504 L 61.827 4.355 A 3.17 3.17 0 0 1 61.903 3.646 A 2.581 2.581 0 0 1 62.097 3.092 A 2.191 2.191 0 0 1 62.544 2.466 A 2.033 2.033 0 0 1 62.853 2.221 Q 63.338 1.907 63.905 1.907 A 2.254 2.254 0 0 1 64.518 1.986 A 1.639 1.639 0 0 1 65.347 2.518 Q 65.861 3.129 65.861 4.267 L 65.861 4.605 L 62.64 4.605 A 2.111 2.111 0 0 0 62.711 5.114 A 1.516 1.516 0 0 0 63.051 5.741 A 1.282 1.282 0 0 0 63.985 6.173 A 1.652 1.652 0 0 0 64.05 6.174 A 1.763 1.763 0 0 0 64.378 6.145 Q 64.602 6.103 64.78 5.999 A 1.827 1.827 0 0 0 65.289 5.551 A 2.068 2.068 0 0 0 65.303 5.533 L 65.799 5.919 A 1.926 1.926 0 0 1 64.4 6.811 A 2.749 2.749 0 0 1 64.006 6.838 A 2.394 2.394 0 0 1 63.255 6.725 A 1.974 1.974 0 0 1 62.433 6.203 Q 61.827 5.568 61.827 4.504 Z M 85.223 4.504 L 85.223 4.355 A 3.17 3.17 0 0 1 85.299 3.646 A 2.581 2.581 0 0 1 85.493 3.092 A 2.191 2.191 0 0 1 85.941 2.466 A 2.033 2.033 0 0 1 86.249 2.221 Q 86.735 1.907 87.302 1.907 A 2.254 2.254 0 0 1 87.915 1.986 A 1.639 1.639 0 0 1 88.743 2.518 Q 89.257 3.129 89.257 4.267 L 89.257 4.605 L 86.036 4.605 A 2.111 2.111 0 0 0 86.107 5.114 A 1.516 1.516 0 0 0 86.447 5.741 A 1.282 1.282 0 0 0 87.381 6.173 A 1.652 1.652 0 0 0 87.447 6.174 A 1.763 1.763 0 0 0 87.775 6.145 Q 87.999 6.103 88.176 5.999 A 1.827 1.827 0 0 0 88.685 5.551 A 2.068 2.068 0 0 0 88.699 5.533 L 89.196 5.919 A 1.926 1.926 0 0 1 87.796 6.811 A 2.749 2.749 0 0 1 87.403 6.838 A 2.394 2.394 0 0 1 86.652 6.725 A 1.974 1.974 0 0 1 85.83 6.203 Q 85.223 5.568 85.223 4.504 Z M 97.559 4.504 L 97.559 4.355 A 3.17 3.17 0 0 1 97.635 3.646 A 2.581 2.581 0 0 1 97.829 3.092 A 2.191 2.191 0 0 1 98.276 2.466 A 2.033 2.033 0 0 1 98.585 2.221 Q 99.07 1.907 99.637 1.907 A 2.254 2.254 0 0 1 100.25 1.986 A 1.639 1.639 0 0 1 101.079 2.518 Q 101.593 3.129 101.593 4.267 L 101.593 4.605 L 98.372 4.605 A 2.111 2.111 0 0 0 98.443 5.114 A 1.516 1.516 0 0 0 98.782 5.741 A 1.282 1.282 0 0 0 99.717 6.173 A 1.652 1.652 0 0 0 99.782 6.174 A 1.763 1.763 0 0 0 100.11 6.145 Q 100.334 6.103 100.512 5.999 A 1.827 1.827 0 0 0 101.021 5.551 A 2.068 2.068 0 0 0 101.035 5.533 L 101.531 5.919 A 1.926 1.926 0 0 1 100.132 6.811 A 2.749 2.749 0 0 1 99.738 6.838 A 2.394 2.394 0 0 1 98.987 6.725 A 1.974 1.974 0 0 1 98.165 6.203 Q 97.559 5.568 97.559 4.504 Z M 135.857 0.352 L 135.857 6.06 L 138.889 6.06 L 138.889 6.75 L 135.009 6.75 L 135.009 0.352 L 135.857 0.352 Z M 125.895 0.352 L 125.895 4.601 L 126.782 4.601 L 126.782 5.265 L 125.895 5.265 L 125.895 6.75 L 125.077 6.75 L 125.077 5.265 L 122.164 5.265 L 122.164 4.786 L 125.029 0.352 L 125.895 0.352 Z M 131.293 2.592 A 1.544 1.544 0 0 0 131.396 2.021 A 2.226 2.226 0 0 0 131.375 1.707 A 1.566 1.566 0 0 0 130.876 0.738 A 1.754 1.754 0 0 0 130.11 0.333 A 2.443 2.443 0 0 0 129.511 0.264 A 2.539 2.539 0 0 0 129.002 0.312 A 1.767 1.767 0 0 0 128.145 0.738 Q 127.626 1.213 127.626 2.021 A 1.808 1.808 0 0 0 127.626 2.058 A 1.499 1.499 0 0 0 127.872 2.87 A 1.626 1.626 0 0 0 128.034 3.077 A 1.726 1.726 0 0 0 128.544 3.454 A 2.119 2.119 0 0 0 128.445 3.5 A 1.738 1.738 0 0 0 127.76 4.087 A 1.629 1.629 0 0 0 127.477 5.023 A 2.272 2.272 0 0 0 127.486 5.237 A 1.63 1.63 0 0 0 128.032 6.344 A 1.895 1.895 0 0 0 128.883 6.771 A 2.797 2.797 0 0 0 129.511 6.838 A 2.796 2.796 0 0 0 130.11 6.777 A 1.925 1.925 0 0 0 130.986 6.346 A 1.578 1.578 0 0 0 131.46 5.62 A 1.989 1.989 0 0 0 131.546 5.023 A 1.581 1.581 0 0 0 131.254 4.087 Q 130.961 3.674 130.46 3.458 Q 130.891 3.248 131.144 2.874 A 1.449 1.449 0 0 0 131.293 2.592 Z M 74.856 0.844 L 75.669 0.844 L 75.669 1.995 L 76.557 1.995 L 76.557 2.624 L 75.669 2.624 L 75.669 5.572 Q 75.669 5.858 75.788 6.001 Q 75.907 6.144 76.192 6.144 A 1.046 1.046 0 0 0 76.29 6.138 Q 76.393 6.129 76.532 6.101 A 4.024 4.024 0 0 0 76.579 6.091 L 76.579 6.75 A 2.463 2.463 0 0 1 76.146 6.829 A 2.157 2.157 0 0 1 75.955 6.838 Q 75.508 6.838 75.241 6.616 A 0.856 0.856 0 0 1 75.133 6.508 Q 74.906 6.238 74.865 5.78 A 2.351 2.351 0 0 1 74.856 5.572 L 74.856 2.624 L 73.991 2.624 L 73.991 1.995 L 74.856 1.995 L 74.856 0.844 Z M 152.205 0.844 L 153.018 0.844 L 153.018 1.995 L 153.905 1.995 L 153.905 2.624 L 153.018 2.624 L 153.018 5.572 Q 153.018 5.858 153.136 6.001 Q 153.255 6.144 153.541 6.144 A 1.046 1.046 0 0 0 153.638 6.138 Q 153.741 6.129 153.881 6.101 A 4.024 4.024 0 0 0 153.927 6.091 L 153.927 6.75 A 2.463 2.463 0 0 1 153.494 6.829 A 2.157 2.157 0 0 1 153.303 6.838 Q 152.856 6.838 152.589 6.616 A 0.856 0.856 0 0 1 152.481 6.508 Q 152.254 6.238 152.213 5.78 A 2.351 2.351 0 0 1 152.205 5.572 L 152.205 2.624 L 151.339 2.624 L 151.339 1.995 L 152.205 1.995 L 152.205 0.844 Z M 2.043 4.386 L 2.043 4.329 A 3.057 3.057 0 0 1 2.13 3.587 A 2.573 2.573 0 0 1 2.318 3.072 A 2.16 2.16 0 0 1 2.733 2.486 A 1.957 1.957 0 0 1 3.083 2.21 A 2.036 2.036 0 0 1 4.027 1.913 A 2.491 2.491 0 0 1 4.201 1.907 A 2.277 2.277 0 0 1 4.955 2.027 A 1.937 1.937 0 0 1 5.772 2.58 A 2.29 2.29 0 0 1 6.291 3.608 A 3.373 3.373 0 0 1 6.372 4.368 L 6.372 4.425 A 3.114 3.114 0 0 1 6.293 5.142 A 2.577 2.577 0 0 1 6.106 5.671 A 2.056 2.056 0 0 1 5.579 6.361 A 2.001 2.001 0 0 1 5.346 6.53 A 2.045 2.045 0 0 1 4.426 6.829 A 2.529 2.529 0 0 1 4.21 6.838 A 2.262 2.262 0 0 1 3.46 6.718 A 1.938 1.938 0 0 1 2.643 6.166 A 2.297 2.297 0 0 1 2.118 5.111 A 3.357 3.357 0 0 1 2.043 4.386 Z M 111.924 4.386 L 111.924 4.329 A 3.057 3.057 0 0 1 112.011 3.587 A 2.573 2.573 0 0 1 112.199 3.072 A 2.16 2.16 0 0 1 112.614 2.486 A 1.957 1.957 0 0 1 112.964 2.21 A 2.036 2.036 0 0 1 113.908 1.913 A 2.491 2.491 0 0 1 114.082 1.907 A 2.277 2.277 0 0 1 114.835 2.027 A 1.937 1.937 0 0 1 115.653 2.58 A 2.29 2.29 0 0 1 116.172 3.608 A 3.373 3.373 0 0 1 116.253 4.368 L 116.253 4.425 A 3.114 3.114 0 0 1 116.173 5.142 A 2.577 2.577 0 0 1 115.987 5.671 A 2.056 2.056 0 0 1 115.46 6.361 A 2.001 2.001 0 0 1 115.227 6.53 A 2.045 2.045 0 0 1 114.307 6.829 A 2.529 2.529 0 0 1 114.091 6.838 A 2.262 2.262 0 0 1 113.34 6.718 A 1.938 1.938 0 0 1 112.524 6.166 A 2.297 2.297 0 0 1 111.998 5.111 A 3.357 3.357 0 0 1 111.924 4.386 Z M 69.1 1.969 L 69.1 2.725 A 2.251 2.251 0 0 0 68.857 2.698 A 2.782 2.782 0 0 0 68.7 2.694 Q 67.922 2.694 67.63 3.338 A 1.445 1.445 0 0 0 67.614 3.375 L 67.614 6.75 L 66.801 6.75 L 66.801 1.995 L 67.592 1.995 L 67.605 2.544 Q 67.986 1.938 68.668 1.909 A 1.636 1.636 0 0 1 68.739 1.907 Q 68.977 1.907 69.1 1.969 Z M 84.766 1.969 L 84.766 2.725 A 2.251 2.251 0 0 0 84.523 2.698 A 2.782 2.782 0 0 0 84.366 2.694 Q 83.588 2.694 83.297 3.338 A 1.445 1.445 0 0 0 83.281 3.375 L 83.281 6.75 L 82.468 6.75 L 82.468 1.995 L 83.259 1.995 L 83.272 2.544 Q 83.652 1.938 84.335 1.909 A 1.636 1.636 0 0 1 84.406 1.907 Q 84.643 1.907 84.766 1.969 Z M 119.571 1.969 L 119.571 2.725 A 2.251 2.251 0 0 0 119.328 2.698 A 2.782 2.782 0 0 0 119.171 2.694 Q 118.393 2.694 118.102 3.338 A 1.445 1.445 0 0 0 118.085 3.375 L 118.085 6.75 L 117.272 6.75 L 117.272 1.995 L 118.063 1.995 L 118.077 2.544 Q 118.457 1.938 119.14 1.909 A 1.636 1.636 0 0 1 119.21 1.907 Q 119.448 1.907 119.571 1.969 Z M 0.844 0.352 L 0.844 6.75 L 0 6.75 L 0 0.352 L 0.844 0.352 Z M 26.024 1.995 L 26.024 6.75 L 25.211 6.75 L 25.211 1.995 L 26.024 1.995 Z M 140.607 1.995 L 140.607 6.75 L 139.794 6.75 L 139.794 1.995 L 140.607 1.995 Z M 2.861 4.425 A 2.772 2.772 0 0 0 2.908 4.954 Q 2.969 5.264 3.106 5.51 A 1.545 1.545 0 0 0 3.228 5.695 Q 3.595 6.174 4.21 6.174 A 1.269 1.269 0 0 0 4.699 6.083 Q 4.979 5.967 5.181 5.706 A 1.471 1.471 0 0 0 5.194 5.689 A 1.648 1.648 0 0 0 5.449 5.171 Q 5.518 4.945 5.544 4.672 A 3.655 3.655 0 0 0 5.559 4.329 A 2.687 2.687 0 0 0 5.508 3.789 Q 5.44 3.459 5.283 3.2 A 1.586 1.586 0 0 0 5.188 3.061 A 1.231 1.231 0 0 0 4.773 2.705 Q 4.52 2.575 4.201 2.575 Q 3.611 2.575 3.245 3.035 A 1.515 1.515 0 0 0 3.23 3.054 A 1.589 1.589 0 0 0 2.978 3.552 Q 2.908 3.772 2.88 4.039 A 3.676 3.676 0 0 0 2.861 4.425 Z M 112.742 4.425 A 2.772 2.772 0 0 0 112.789 4.954 Q 112.849 5.264 112.987 5.51 A 1.545 1.545 0 0 0 113.109 5.695 Q 113.476 6.174 114.091 6.174 A 1.269 1.269 0 0 0 114.58 6.083 Q 114.86 5.967 115.062 5.706 A 1.471 1.471 0 0 0 115.075 5.689 A 1.648 1.648 0 0 0 115.33 5.171 Q 115.399 4.945 115.424 4.672 A 3.655 3.655 0 0 0 115.44 4.329 A 2.687 2.687 0 0 0 115.389 3.789 Q 115.321 3.459 115.164 3.2 A 1.586 1.586 0 0 0 115.069 3.061 A 1.231 1.231 0 0 0 114.654 2.705 Q 114.4 2.575 114.082 2.575 Q 113.492 2.575 113.126 3.035 A 1.515 1.515 0 0 0 113.111 3.054 A 1.589 1.589 0 0 0 112.859 3.552 Q 112.789 3.772 112.761 4.039 A 3.676 3.676 0 0 0 112.742 4.425 Z M 57.797 3.252 L 57.797 5.524 Q 58.162 6.174 58.913 6.174 A 1.184 1.184 0 0 0 59.379 6.086 Q 59.636 5.977 59.824 5.735 A 1.403 1.403 0 0 0 59.843 5.711 A 1.501 1.501 0 0 0 60.059 5.28 Q 60.127 5.073 60.159 4.818 A 3.91 3.91 0 0 0 60.188 4.333 Q 60.188 3.746 60.005 3.339 A 1.503 1.503 0 0 0 59.845 3.063 A 1.086 1.086 0 0 0 59.059 2.605 A 1.414 1.414 0 0 0 58.904 2.597 Q 58.244 2.597 57.879 3.121 A 1.623 1.623 0 0 0 57.797 3.252 Z M 35.297 5.449 L 35.297 3.278 A 1.439 1.439 0 0 0 34.996 2.891 Q 34.692 2.62 34.252 2.599 A 1.578 1.578 0 0 0 34.176 2.597 Q 33.584 2.597 33.251 3.056 A 1.51 1.51 0 0 0 33.04 3.484 Q 32.974 3.689 32.943 3.939 A 3.955 3.955 0 0 0 32.915 4.425 Q 32.915 5.229 33.245 5.689 Q 33.574 6.148 34.167 6.148 A 1.32 1.32 0 0 0 34.677 6.054 Q 35.069 5.891 35.297 5.449 Z M 144.914 5.449 L 144.914 3.278 A 1.439 1.439 0 0 0 144.613 2.891 Q 144.309 2.62 143.869 2.599 A 1.578 1.578 0 0 0 143.793 2.597 Q 143.202 2.597 142.868 3.056 A 1.51 1.51 0 0 0 142.657 3.484 Q 142.591 3.689 142.56 3.939 A 3.955 3.955 0 0 0 142.532 4.425 Q 142.532 5.229 142.862 5.689 Q 143.191 6.148 143.785 6.148 A 1.32 1.32 0 0 0 144.294 6.054 Q 144.686 5.891 144.914 5.449 Z M 124.98 1.639 L 123.086 4.601 L 125.077 4.601 L 125.077 1.463 L 124.98 1.639 Z M 130.733 5.005 A 1.375 1.375 0 0 0 130.673 4.592 A 1.109 1.109 0 0 0 130.392 4.131 A 1.148 1.148 0 0 0 129.721 3.807 A 1.593 1.593 0 0 0 129.502 3.792 A 1.466 1.466 0 0 0 129.114 3.841 A 1.086 1.086 0 0 0 128.621 4.126 A 1.123 1.123 0 0 0 128.308 4.762 A 1.572 1.572 0 0 0 128.29 5.005 A 1.48 1.48 0 0 0 128.331 5.367 A 1.019 1.019 0 0 0 128.613 5.862 Q 128.919 6.158 129.452 6.173 A 2.053 2.053 0 0 0 129.511 6.174 Q 130.005 6.174 130.315 5.94 A 1.018 1.018 0 0 0 130.408 5.86 A 1.041 1.041 0 0 0 130.707 5.292 A 1.518 1.518 0 0 0 130.733 5.005 Z M 129.511 0.932 A 1.259 1.259 0 0 0 129.158 0.979 A 0.973 0.973 0 0 0 128.736 1.228 Q 128.439 1.525 128.439 2.035 A 1.325 1.325 0 0 0 128.484 2.387 A 0.994 0.994 0 0 0 128.731 2.823 A 0.974 0.974 0 0 0 129.293 3.108 A 1.382 1.382 0 0 0 129.511 3.125 A 1.279 1.279 0 0 0 129.856 3.08 A 0.952 0.952 0 0 0 130.291 2.823 A 1.018 1.018 0 0 0 130.566 2.26 A 1.426 1.426 0 0 0 130.583 2.035 A 1.282 1.282 0 0 0 130.533 1.668 A 1.013 1.013 0 0 0 130.28 1.239 Q 129.977 0.932 129.511 0.932 Z M 72.479 5.418 L 72.479 4.443 L 71.842 4.443 Q 70.348 4.443 70.348 5.317 Q 70.348 5.7 70.603 5.915 A 0.893 0.893 0 0 0 71.016 6.108 A 1.259 1.259 0 0 0 71.257 6.13 A 1.429 1.429 0 0 0 71.982 5.933 A 1.335 1.335 0 0 0 72.278 5.705 A 1.108 1.108 0 0 0 72.479 5.418 Z M 44.96 3.938 L 47.342 3.938 L 47.342 3.876 Q 47.316 3.417 47.146 3.111 A 1.13 1.13 0 0 0 47.008 2.916 A 0.983 0.983 0 0 0 46.354 2.584 A 1.39 1.39 0 0 0 46.2 2.575 A 1.106 1.106 0 0 0 45.677 2.698 A 1.14 1.14 0 0 0 45.374 2.933 A 1.417 1.417 0 0 0 45.097 3.379 Q 45.023 3.563 44.983 3.785 A 2.741 2.741 0 0 0 44.96 3.938 Z M 62.666 3.938 L 65.048 3.938 L 65.048 3.876 Q 65.022 3.417 64.851 3.111 A 1.13 1.13 0 0 0 64.714 2.916 A 0.983 0.983 0 0 0 64.059 2.584 A 1.39 1.39 0 0 0 63.905 2.575 A 1.106 1.106 0 0 0 63.383 2.698 A 1.14 1.14 0 0 0 63.079 2.933 A 1.417 1.417 0 0 0 62.802 3.379 Q 62.729 3.563 62.689 3.785 A 2.741 2.741 0 0 0 62.666 3.938 Z M 86.063 3.938 L 88.444 3.938 L 88.444 3.876 Q 88.418 3.417 88.248 3.111 A 1.13 1.13 0 0 0 88.11 2.916 A 0.983 0.983 0 0 0 87.456 2.584 A 1.39 1.39 0 0 0 87.302 2.575 A 1.106 1.106 0 0 0 86.779 2.698 A 1.14 1.14 0 0 0 86.476 2.933 A 1.417 1.417 0 0 0 86.199 3.379 Q 86.125 3.563 86.085 3.785 A 2.741 2.741 0 0 0 86.063 3.938 Z M 98.398 3.938 L 100.78 3.938 L 100.78 3.876 Q 100.754 3.417 100.583 3.111 A 1.13 1.13 0 0 0 100.446 2.916 A 0.983 0.983 0 0 0 99.791 2.584 A 1.39 1.39 0 0 0 99.637 2.575 A 1.106 1.106 0 0 0 99.115 2.698 A 1.14 1.14 0 0 0 98.811 2.933 A 1.417 1.417 0 0 0 98.534 3.379 Q 98.461 3.563 98.421 3.785 A 2.741 2.741 0 0 0 98.398 3.938 Z M 25.146 0.734 Q 25.146 0.536 25.266 0.4 Q 25.378 0.274 25.59 0.264 A 0.783 0.783 0 0 1 25.625 0.264 Q 25.862 0.264 25.985 0.4 A 0.474 0.474 0 0 1 26.107 0.703 A 0.614 0.614 0 0 1 26.108 0.734 A 0.523 0.523 0 0 1 26.083 0.9 A 0.442 0.442 0 0 1 25.985 1.063 Q 25.872 1.184 25.664 1.194 A 0.803 0.803 0 0 1 25.625 1.195 Q 25.452 1.195 25.341 1.126 A 0.362 0.362 0 0 1 25.266 1.063 A 0.456 0.456 0 0 1 25.148 0.788 A 0.605 0.605 0 0 1 25.146 0.734 Z M 139.729 0.734 Q 139.729 0.536 139.849 0.4 Q 139.961 0.274 140.173 0.264 A 0.783 0.783 0 0 1 140.208 0.264 Q 140.445 0.264 140.568 0.4 A 0.474 0.474 0 0 1 140.69 0.703 A 0.614 0.614 0 0 1 140.691 0.734 A 0.523 0.523 0 0 1 140.666 0.9 A 0.442 0.442 0 0 1 140.568 1.063 Q 140.455 1.184 140.247 1.194 A 0.803 0.803 0 0 1 140.208 1.195 Q 140.035 1.195 139.924 1.126 A 0.362 0.362 0 0 1 139.849 1.063 A 0.456 0.456 0 0 1 139.731 0.788 A 0.605 0.605 0 0 1 139.729 0.734 Z" vector-effect="non-scaling-stroke"/></g>
</svg>