<?xml version="1.0" encoding="UTF-8"?>
<svg width="48px" height="48px" viewBox="0 0 48 48" version="1.1" xmlns="http://www.w3.org/2000/svg" xmlns:xlink="http://www.w3.org/1999/xlink">
    <title>Icon-Resource/Migration-and-Transfer/Res_AWS-Mainframe-Modernization_Analyzer_48_Dark</title>
    <g id="Icon-Resource/Migration-and-Transfer/Res_AWS-Mainframe-Modernization_Analyzer_48" stroke="none" stroke-width="1" fill="none" fill-rule="evenodd">
        <path transform="translate(12.000000, 8.000000), scale(.65)" d="M30.007,10 L41.007,10 L41.007,8 L30.007,8 L30.007,10 Z M16.007,10 L23.007,10 L23.007,8 L16.007,8 L16.007,10 Z M31.007,16 L46.007,16 L46.007,14 L31.007,14 L31.007,16 Z M12.007,11 C12.007,14.86 15.148,18 19.007,18 C22.866,18 26.007,14.86 26.007,11 C26.007,7.14 22.866,4 19.007,4 C15.148,4 12.007,7.14 12.007,11 L12.007,11 Z M12.776,17.479 L3.714,26.541 L2.3,25.126 L11.49,15.936 C10.555,14.518 10.007,12.822 10.007,11 C10.007,6.038 14.044,2 19.007,2 C23.97,2 28.007,6.038 28.007,11 C28.007,15.962 23.97,20 19.007,20 C16.589,20 14.394,19.036 12.776,17.479 L12.776,17.479 Z M14.007,40 L37.007,40 L37.007,38 L14.007,38 L14.007,40 Z M8.007,34 L28.007,34 L28.007,32 L8.007,32 L8.007,34 Z M14.007,28 L37.007,28 L37.007,26 L14.007,26 L14.007,28 Z M27.007,22 L46.007,22 L46.007,20 L27.007,20 L27.007,22 Z M37.774,31.463 L45.501,37.5 L34.62,46 L14.73,46 L3.85,37.5 L7.219,34.867 L8.451,36.443 L7.098,37.5 L15.419,44 L33.931,44 L42.253,37.5 L36.543,33.04 L37.774,31.463 Z" id="Fill-1" fill="#000000"></path>
    </g><g transform="translate(25, 83)" id="svgGroup" stroke-linecap="round" fill-rule="evenodd" font-size="9pt" stroke="#000" stroke-width="0.25mm" fill="#000" style="stroke:#000;stroke-width:0.25mm;fill:#000"><path d="M 23.12 0.088 L 24.13 4.469 L 24.253 5.313 L 24.434 4.553 L 25.699 0.088 L 26.411 0.088 L 27.646 4.553 L 27.822 5.326 L 27.958 4.465 L 28.951 0.088 L 29.799 0.088 L 28.248 6.486 L 27.479 6.486 L 26.161 1.824 L 26.06 1.336 L 25.958 1.824 L 24.592 6.486 L 23.823 6.486 L 22.276 0.088 L 23.12 0.088 Z M 34.98 1.938 L 34.132 1.938 A 1.466 1.466 0 0 0 34.083 1.546 A 1.066 1.066 0 0 0 33.763 1.026 A 1.211 1.211 0 0 0 33.294 0.77 Q 33.042 0.694 32.722 0.694 A 2.286 2.286 0 0 0 32.342 0.724 Q 32.14 0.758 31.977 0.831 A 1.101 1.101 0 0 0 31.748 0.969 A 0.892 0.892 0 0 0 31.403 1.624 A 1.267 1.267 0 0 0 31.399 1.732 A 0.806 0.806 0 0 0 31.667 2.337 A 1.134 1.134 0 0 0 31.731 2.393 A 1.562 1.562 0 0 0 31.969 2.549 Q 32.299 2.73 32.86 2.887 A 8.228 8.228 0 0 1 33.325 3.032 Q 33.56 3.113 33.754 3.2 A 3.297 3.297 0 0 1 34.108 3.382 A 2.342 2.342 0 0 1 34.447 3.626 Q 34.637 3.792 34.759 3.985 A 1.45 1.45 0 0 1 34.776 4.012 A 1.498 1.498 0 0 1 34.972 4.568 A 1.948 1.948 0 0 1 34.994 4.86 A 1.606 1.606 0 0 1 34.871 5.497 Q 34.726 5.838 34.408 6.09 A 1.886 1.886 0 0 1 34.387 6.106 Q 33.781 6.574 32.766 6.574 A 3.023 3.023 0 0 1 31.625 6.36 A 2.917 2.917 0 0 1 31.535 6.322 A 2.383 2.383 0 0 1 31.057 6.044 A 1.874 1.874 0 0 1 30.654 5.629 A 1.689 1.689 0 0 1 30.344 4.632 L 31.192 4.632 A 1.261 1.261 0 0 0 31.262 5.059 A 1.074 1.074 0 0 0 31.621 5.548 Q 32.005 5.85 32.622 5.881 A 2.87 2.87 0 0 0 32.766 5.884 A 2.628 2.628 0 0 0 33.153 5.858 Q 33.349 5.828 33.508 5.767 A 1.129 1.129 0 0 0 33.79 5.612 Q 34.146 5.339 34.146 4.869 A 1.074 1.074 0 0 0 34.103 4.559 A 0.816 0.816 0 0 0 33.816 4.142 Q 33.486 3.885 32.621 3.634 Q 31.535 3.322 31.041 2.868 Q 30.546 2.413 30.546 1.745 Q 30.546 0.989 31.151 0.494 A 2.121 2.121 0 0 1 32.041 0.071 A 3.087 3.087 0 0 1 32.722 0 A 2.913 2.913 0 0 1 33.382 0.072 A 2.372 2.372 0 0 1 33.897 0.255 A 2.051 2.051 0 0 1 34.428 0.626 A 1.834 1.834 0 0 1 34.697 0.958 A 1.798 1.798 0 0 1 34.98 1.938 Z M 3.74 6.486 L 2.351 3.898 L 0.848 3.898 L 0.848 6.486 L 0 6.486 L 0 0.088 L 2.118 0.088 A 3.809 3.809 0 0 1 2.76 0.138 Q 3.102 0.197 3.376 0.324 A 1.789 1.789 0 0 1 3.781 0.58 A 1.588 1.588 0 0 1 4.307 1.469 A 2.453 2.453 0 0 1 4.364 2.013 A 1.864 1.864 0 0 1 4.273 2.604 A 1.64 1.64 0 0 1 4.041 3.054 A 1.849 1.849 0 0 1 3.382 3.611 A 2.342 2.342 0 0 1 3.142 3.718 L 4.645 6.434 L 4.645 6.486 L 3.74 6.486 Z M 13.724 3.129 L 12.907 3.129 Q 12.907 2.795 12.623 2.553 Q 12.34 2.312 11.909 2.312 Q 11.465 2.312 11.215 2.505 A 0.653 0.653 0 0 0 11.04 2.704 Q 10.967 2.835 10.964 3 A 0.771 0.771 0 0 0 10.964 3.01 A 0.588 0.588 0 0 0 10.994 3.203 A 0.48 0.48 0 0 0 11.197 3.454 A 1.093 1.093 0 0 0 11.348 3.533 Q 11.512 3.605 11.767 3.673 A 6.581 6.581 0 0 0 12.039 3.74 A 6.318 6.318 0 0 1 12.446 3.845 Q 12.783 3.944 13.025 4.065 A 1.901 1.901 0 0 1 13.281 4.218 Q 13.418 4.315 13.516 4.429 A 1.06 1.06 0 0 1 13.586 4.52 A 1.024 1.024 0 0 1 13.748 4.927 A 1.388 1.388 0 0 1 13.768 5.168 Q 13.768 5.805 13.258 6.19 Q 12.776 6.554 12.022 6.573 A 3.337 3.337 0 0 1 11.936 6.574 A 2.746 2.746 0 0 1 11.401 6.525 A 2.124 2.124 0 0 1 10.925 6.372 A 1.771 1.771 0 0 1 10.491 6.094 A 1.54 1.54 0 0 1 10.237 5.807 Q 9.989 5.445 9.989 5.023 L 10.802 5.023 A 0.932 0.932 0 0 0 10.875 5.348 A 0.827 0.827 0 0 0 11.129 5.671 A 1.072 1.072 0 0 0 11.531 5.864 Q 11.686 5.903 11.867 5.91 A 2.013 2.013 0 0 0 11.936 5.911 A 1.863 1.863 0 0 0 12.231 5.889 Q 12.393 5.863 12.524 5.806 A 0.941 0.941 0 0 0 12.676 5.724 A 0.689 0.689 0 0 0 12.841 5.574 A 0.554 0.554 0 0 0 12.955 5.225 A 0.698 0.698 0 0 0 12.919 4.994 A 0.581 0.581 0 0 0 12.707 4.713 A 1.05 1.05 0 0 0 12.538 4.615 Q 12.349 4.524 12.054 4.449 A 5.392 5.392 0 0 0 11.841 4.399 A 6.342 6.342 0 0 1 11.48 4.311 Q 11.11 4.209 10.861 4.083 Q 10.562 3.93 10.392 3.731 A 1.017 1.017 0 0 1 10.325 3.643 Q 10.151 3.388 10.151 3.037 A 1.206 1.206 0 0 1 10.55 2.132 A 1.694 1.694 0 0 1 10.646 2.048 A 1.752 1.752 0 0 1 11.429 1.688 A 2.471 2.471 0 0 1 11.909 1.644 A 2.559 2.559 0 0 1 12.473 1.702 A 1.757 1.757 0 0 1 13.221 2.061 Q 13.724 2.479 13.724 3.129 Z M 21.327 6.486 L 20.716 4.816 L 18.035 4.816 L 17.433 6.486 L 16.563 6.486 L 19.006 0.088 L 19.745 0.088 L 22.192 6.486 L 21.327 6.486 Z M 5.212 4.241 L 5.212 4.091 A 3.17 3.17 0 0 1 5.288 3.382 A 2.581 2.581 0 0 1 5.482 2.828 A 2.191 2.191 0 0 1 5.93 2.202 A 2.033 2.033 0 0 1 6.238 1.958 Q 6.724 1.644 7.291 1.644 A 2.254 2.254 0 0 1 7.904 1.723 A 1.639 1.639 0 0 1 8.732 2.254 Q 9.246 2.865 9.246 4.003 L 9.246 4.342 L 6.025 4.342 A 2.111 2.111 0 0 0 6.096 4.85 A 1.516 1.516 0 0 0 6.436 5.478 A 1.282 1.282 0 0 0 7.37 5.909 A 1.652 1.652 0 0 0 7.436 5.911 A 1.763 1.763 0 0 0 7.764 5.882 Q 7.988 5.839 8.165 5.735 A 1.827 1.827 0 0 0 8.674 5.287 A 2.068 2.068 0 0 0 8.688 5.269 L 9.185 5.656 A 1.926 1.926 0 0 1 7.785 6.547 A 2.749 2.749 0 0 1 7.392 6.574 A 2.394 2.394 0 0 1 6.64 6.461 A 1.974 1.974 0 0 1 5.818 5.939 Q 5.212 5.304 5.212 4.241 Z M 0.848 0.782 L 0.848 3.208 L 2.145 3.208 Q 2.685 3.208 3.035 2.968 A 1.174 1.174 0 0 0 3.144 2.883 A 1.069 1.069 0 0 0 3.51 2.146 A 1.486 1.486 0 0 0 3.516 2.013 Q 3.516 1.47 3.22 1.159 A 1 1 0 0 0 3.162 1.103 Q 2.808 0.787 2.14 0.782 L 0.848 0.782 Z M 19.375 1.129 L 18.29 4.122 L 20.465 4.122 L 19.375 1.129 Z M 6.051 3.674 L 8.433 3.674 L 8.433 3.612 Q 8.407 3.153 8.236 2.848 A 1.13 1.13 0 0 0 8.099 2.652 A 0.983 0.983 0 0 0 7.445 2.32 A 1.39 1.39 0 0 0 7.291 2.312 A 1.106 1.106 0 0 0 6.768 2.435 A 1.14 1.14 0 0 0 6.464 2.67 A 1.417 1.417 0 0 0 6.188 3.116 Q 6.114 3.3 6.074 3.522 A 2.741 2.741 0 0 0 6.051 3.674 Z" vector-effect="non-scaling-stroke"/></g><g transform="translate(25, 93)" id="svgGroup" stroke-linecap="round" fill-rule="evenodd" font-size="9pt" stroke="#000" stroke-width="0.25mm" fill="#000" style="stroke:#000;stroke-width:0.25mm;fill:#000"><path d="M 0 0.444 L 1.09 0.444 L 3.182 5.665 L 5.273 0.444 L 6.368 0.444 L 6.368 6.842 L 5.524 6.842 L 5.524 4.351 L 5.603 1.661 L 3.502 6.842 L 2.856 6.842 L 0.76 1.674 L 0.844 4.351 L 0.844 6.842 L 0 6.842 L 0 0.444 Z M 45.677 0.444 L 46.767 0.444 L 48.858 5.665 L 50.95 0.444 L 52.044 0.444 L 52.044 6.842 L 51.201 6.842 L 51.201 4.351 L 51.28 1.661 L 49.179 6.842 L 48.533 6.842 L 46.437 1.674 L 46.521 4.351 L 46.521 6.842 L 45.677 6.842 L 45.677 0.444 Z M 30.661 2.087 L 31.43 2.087 L 31.452 2.615 Q 31.975 2 32.862 2 A 2.009 2.009 0 0 1 33.373 2.06 A 1.244 1.244 0 0 1 34.22 2.764 A 1.801 1.801 0 0 1 34.838 2.21 A 1.65 1.65 0 0 1 35.367 2.029 A 2.209 2.209 0 0 1 35.736 2 A 2.119 2.119 0 0 1 36.38 2.089 Q 37.307 2.385 37.327 3.656 L 37.327 6.842 L 36.514 6.842 L 36.514 3.705 A 1.781 1.781 0 0 0 36.494 3.425 Q 36.47 3.277 36.42 3.159 A 0.758 0.758 0 0 0 36.281 2.942 A 0.68 0.68 0 0 0 36.028 2.774 Q 35.817 2.69 35.5 2.689 A 1.245 1.245 0 0 0 35.134 2.741 A 1.008 1.008 0 0 0 34.748 2.96 A 1.042 1.042 0 0 0 34.434 3.496 A 1.41 1.41 0 0 0 34.4 3.687 L 34.4 6.842 L 33.583 6.842 L 33.583 3.727 A 1.532 1.532 0 0 0 33.534 3.322 Q 33.408 2.86 32.95 2.735 A 1.457 1.457 0 0 0 32.568 2.689 Q 31.794 2.689 31.493 3.327 A 1.459 1.459 0 0 0 31.474 3.371 L 31.474 6.842 L 30.661 6.842 L 30.661 2.087 Z M 171.154 6.842 L 169.497 4.641 L 168.987 5.172 L 168.987 6.842 L 168.174 6.842 L 168.174 0.092 L 168.987 0.092 L 168.987 4.175 L 169.422 3.652 L 170.903 2.087 L 171.892 2.087 L 170.042 4.074 L 172.107 6.842 L 171.154 6.842 Z M 123.671 2.087 L 124.857 5.651 L 125.965 2.087 L 126.835 2.087 L 124.923 7.576 Q 124.479 8.763 123.513 8.763 L 123.359 8.75 L 123.056 8.692 L 123.056 8.033 L 123.275 8.051 Q 123.555 8.051 123.751 7.974 A 0.75 0.75 0 0 0 123.919 7.884 A 0.749 0.749 0 0 0 124.079 7.722 Q 124.197 7.563 124.287 7.307 A 2.575 2.575 0 0 0 124.299 7.273 L 124.479 6.79 L 122.783 2.087 L 123.671 2.087 Z M 14.81 2.087 L 15.579 2.087 L 15.605 2.685 Q 16.141 2.01 17.001 2 A 2.234 2.234 0 0 1 17.029 2 A 1.905 1.905 0 0 1 17.662 2.096 Q 18.504 2.392 18.547 3.598 A 3.668 3.668 0 0 1 18.549 3.7 L 18.549 6.842 L 17.736 6.842 L 17.736 3.696 A 1.837 1.837 0 0 0 17.714 3.416 Q 17.664 3.109 17.501 2.936 Q 17.315 2.737 16.962 2.699 A 1.66 1.66 0 0 0 16.783 2.689 A 1.253 1.253 0 0 0 16.368 2.756 A 1.123 1.123 0 0 0 16.088 2.9 A 1.432 1.432 0 0 0 15.623 3.454 L 15.623 6.842 L 14.81 6.842 L 14.81 2.087 Z M 71.429 2.087 L 72.198 2.087 L 72.224 2.685 Q 72.76 2.01 73.62 2 A 2.234 2.234 0 0 1 73.648 2 A 1.905 1.905 0 0 1 74.281 2.096 Q 75.123 2.392 75.166 3.598 A 3.668 3.668 0 0 1 75.168 3.7 L 75.168 6.842 L 74.355 6.842 L 74.355 3.696 A 1.837 1.837 0 0 0 74.333 3.416 Q 74.283 3.109 74.12 2.936 Q 73.934 2.737 73.581 2.699 A 1.66 1.66 0 0 0 73.402 2.689 A 1.253 1.253 0 0 0 72.987 2.756 A 1.123 1.123 0 0 0 72.708 2.9 A 1.432 1.432 0 0 0 72.242 3.454 L 72.242 6.842 L 71.429 6.842 L 71.429 2.087 Z M 98.191 2.087 L 98.96 2.087 L 98.987 2.685 Q 99.523 2.01 100.383 2 A 2.234 2.234 0 0 1 100.411 2 A 1.905 1.905 0 0 1 101.044 2.096 Q 101.886 2.392 101.929 3.598 A 3.668 3.668 0 0 1 101.931 3.7 L 101.931 6.842 L 101.118 6.842 L 101.118 3.696 A 1.837 1.837 0 0 0 101.096 3.416 Q 101.046 3.109 100.883 2.936 Q 100.697 2.737 100.344 2.699 A 1.66 1.66 0 0 0 100.165 2.689 A 1.253 1.253 0 0 0 99.75 2.756 A 1.123 1.123 0 0 0 99.47 2.9 A 1.432 1.432 0 0 0 99.004 3.454 L 99.004 6.842 L 98.191 6.842 L 98.191 2.087 Z M 111.256 2.087 L 112.025 2.087 L 112.052 2.685 Q 112.588 2.01 113.448 2 A 2.234 2.234 0 0 1 113.476 2 A 1.905 1.905 0 0 1 114.109 2.096 Q 114.951 2.392 114.994 3.598 A 3.668 3.668 0 0 1 114.996 3.7 L 114.996 6.842 L 114.183 6.842 L 114.183 3.696 A 1.837 1.837 0 0 0 114.161 3.416 Q 114.111 3.109 113.948 2.936 Q 113.762 2.737 113.409 2.699 A 1.66 1.66 0 0 0 113.229 2.689 A 1.253 1.253 0 0 0 112.815 2.756 A 1.123 1.123 0 0 0 112.535 2.9 A 1.432 1.432 0 0 0 112.069 3.454 L 112.069 6.842 L 111.256 6.842 L 111.256 2.087 Z M 81.993 2.663 L 79.343 6.179 L 82.125 6.179 L 82.125 6.842 L 78.35 6.842 L 78.35 6.245 L 80.974 2.76 L 78.39 2.76 L 78.39 2.087 L 81.993 2.087 L 81.993 2.663 Z M 130.975 2.663 L 128.325 6.179 L 131.106 6.179 L 131.106 6.842 L 127.332 6.842 L 127.332 6.245 L 129.955 2.76 L 127.371 2.76 L 127.371 2.087 L 130.975 2.087 L 130.975 2.663 Z M 109.657 6.842 L 109.046 5.172 L 106.365 5.172 L 105.763 6.842 L 104.893 6.842 L 107.336 0.444 L 108.075 0.444 L 110.522 6.842 L 109.657 6.842 Z M 11.518 6.842 L 10.666 6.842 A 0.632 0.632 0 0 1 10.63 6.752 Q 10.599 6.654 10.574 6.502 A 3.997 3.997 0 0 1 10.551 6.341 Q 9.984 6.93 9.198 6.93 A 2.033 2.033 0 0 1 8.668 6.865 A 1.529 1.529 0 0 1 8.044 6.532 Q 7.594 6.135 7.594 5.524 Q 7.594 4.781 8.158 4.37 Q 8.723 3.959 9.747 3.959 L 10.538 3.959 L 10.538 3.586 A 1.152 1.152 0 0 0 10.502 3.291 A 0.828 0.828 0 0 0 10.283 2.907 Q 10.067 2.693 9.677 2.66 A 1.748 1.748 0 0 0 9.532 2.654 Q 9.097 2.654 8.802 2.874 Q 8.508 3.094 8.508 3.406 L 7.69 3.406 A 1.041 1.041 0 0 1 7.815 2.917 A 1.409 1.409 0 0 1 7.943 2.718 Q 8.196 2.386 8.629 2.193 A 2.249 2.249 0 0 1 9.404 2.005 A 2.669 2.669 0 0 1 9.58 2 A 2.65 2.65 0 0 1 10.098 2.047 Q 10.405 2.108 10.644 2.248 A 1.439 1.439 0 0 1 10.868 2.41 A 1.396 1.396 0 0 1 11.321 3.236 A 1.998 1.998 0 0 1 11.351 3.542 L 11.351 5.73 Q 11.351 6.165 11.425 6.482 A 1.707 1.707 0 0 0 11.518 6.772 L 11.518 6.842 Z M 29.558 6.842 L 28.705 6.842 A 0.632 0.632 0 0 1 28.67 6.752 Q 28.638 6.654 28.614 6.502 A 3.997 3.997 0 0 1 28.591 6.341 Q 28.024 6.93 27.237 6.93 A 2.033 2.033 0 0 1 26.708 6.865 A 1.529 1.529 0 0 1 26.084 6.532 Q 25.633 6.135 25.633 5.524 Q 25.633 4.781 26.198 4.37 Q 26.763 3.959 27.787 3.959 L 28.578 3.959 L 28.578 3.586 A 1.152 1.152 0 0 0 28.542 3.291 A 0.828 0.828 0 0 0 28.323 2.907 Q 28.106 2.693 27.716 2.66 A 1.748 1.748 0 0 0 27.571 2.654 Q 27.136 2.654 26.842 2.874 Q 26.547 3.094 26.547 3.406 L 25.73 3.406 A 1.041 1.041 0 0 1 25.855 2.917 A 1.409 1.409 0 0 1 25.983 2.718 Q 26.235 2.386 26.668 2.193 A 2.249 2.249 0 0 1 27.444 2.005 A 2.669 2.669 0 0 1 27.62 2 A 2.65 2.65 0 0 1 28.137 2.047 Q 28.444 2.108 28.683 2.248 A 1.439 1.439 0 0 1 28.907 2.41 A 1.396 1.396 0 0 1 29.361 3.236 A 1.998 1.998 0 0 1 29.391 3.542 L 29.391 5.73 Q 29.391 6.165 29.464 6.482 A 1.707 1.707 0 0 0 29.558 6.772 L 29.558 6.842 Z M 86.827 6.842 L 85.975 6.842 A 0.632 0.632 0 0 1 85.939 6.752 Q 85.908 6.654 85.883 6.502 A 3.997 3.997 0 0 1 85.86 6.341 Q 85.293 6.93 84.507 6.93 A 2.033 2.033 0 0 1 83.978 6.865 A 1.529 1.529 0 0 1 83.353 6.532 Q 82.903 6.135 82.903 5.524 Q 82.903 4.781 83.468 4.37 Q 84.032 3.959 85.056 3.959 L 85.847 3.959 L 85.847 3.586 A 1.152 1.152 0 0 0 85.811 3.291 A 0.828 0.828 0 0 0 85.592 2.907 Q 85.376 2.693 84.986 2.66 A 1.748 1.748 0 0 0 84.841 2.654 Q 84.406 2.654 84.111 2.874 Q 83.817 3.094 83.817 3.406 L 83 3.406 A 1.041 1.041 0 0 1 83.124 2.917 A 1.409 1.409 0 0 1 83.252 2.718 Q 83.505 2.386 83.938 2.193 A 2.249 2.249 0 0 1 84.713 2.005 A 2.669 2.669 0 0 1 84.889 2 A 2.65 2.65 0 0 1 85.407 2.047 Q 85.714 2.108 85.953 2.248 A 1.439 1.439 0 0 1 86.177 2.41 A 1.396 1.396 0 0 1 86.63 3.236 A 1.998 1.998 0 0 1 86.66 3.542 L 86.66 5.73 Q 86.66 6.165 86.734 6.482 A 1.707 1.707 0 0 0 86.827 6.772 L 86.827 6.842 Z M 120.01 6.842 L 119.158 6.842 A 0.632 0.632 0 0 1 119.122 6.752 Q 119.091 6.654 119.066 6.502 A 3.997 3.997 0 0 1 119.043 6.341 Q 118.477 6.93 117.69 6.93 A 2.033 2.033 0 0 1 117.161 6.865 A 1.529 1.529 0 0 1 116.536 6.532 Q 116.086 6.135 116.086 5.524 Q 116.086 4.781 116.651 4.37 Q 117.215 3.959 118.239 3.959 L 119.03 3.959 L 119.03 3.586 A 1.152 1.152 0 0 0 118.995 3.291 A 0.828 0.828 0 0 0 118.775 2.907 Q 118.559 2.693 118.169 2.66 A 1.748 1.748 0 0 0 118.024 2.654 Q 117.589 2.654 117.294 2.874 Q 117 3.094 117 3.406 L 116.183 3.406 A 1.041 1.041 0 0 1 116.308 2.917 A 1.409 1.409 0 0 1 116.435 2.718 Q 116.688 2.386 117.121 2.193 A 2.249 2.249 0 0 1 117.897 2.005 A 2.669 2.669 0 0 1 118.072 2 A 2.65 2.65 0 0 1 118.59 2.047 Q 118.897 2.108 119.136 2.248 A 1.439 1.439 0 0 1 119.36 2.41 A 1.396 1.396 0 0 1 119.813 3.236 A 1.998 1.998 0 0 1 119.843 3.542 L 119.843 5.73 Q 119.843 6.165 119.917 6.482 A 1.707 1.707 0 0 0 120.01 6.772 L 120.01 6.842 Z M 164.017 6.842 L 163.165 6.842 A 0.632 0.632 0 0 1 163.129 6.752 Q 163.098 6.654 163.073 6.502 A 3.997 3.997 0 0 1 163.05 6.341 Q 162.483 6.93 161.697 6.93 A 2.033 2.033 0 0 1 161.167 6.865 A 1.529 1.529 0 0 1 160.543 6.532 Q 160.093 6.135 160.093 5.524 Q 160.093 4.781 160.657 4.37 Q 161.222 3.959 162.246 3.959 L 163.037 3.959 L 163.037 3.586 A 1.152 1.152 0 0 0 163.001 3.291 A 0.828 0.828 0 0 0 162.782 2.907 Q 162.566 2.693 162.176 2.66 A 1.748 1.748 0 0 0 162.031 2.654 Q 161.596 2.654 161.301 2.874 Q 161.007 3.094 161.007 3.406 L 160.189 3.406 A 1.041 1.041 0 0 1 160.314 2.917 A 1.409 1.409 0 0 1 160.442 2.718 Q 160.695 2.386 161.128 2.193 A 2.249 2.249 0 0 1 161.903 2.005 A 2.669 2.669 0 0 1 162.079 2 A 2.65 2.65 0 0 1 162.597 2.047 Q 162.904 2.108 163.143 2.248 A 1.439 1.439 0 0 1 163.367 2.41 A 1.396 1.396 0 0 1 163.82 3.236 A 1.998 1.998 0 0 1 163.85 3.542 L 163.85 5.73 Q 163.85 6.165 163.924 6.482 A 1.707 1.707 0 0 0 164.017 6.772 L 164.017 6.842 Z M 58.342 4.487 L 58.342 4.425 A 3.762 3.762 0 0 1 58.409 3.694 Q 58.496 3.252 58.699 2.904 A 2.148 2.148 0 0 1 58.86 2.665 Q 59.379 2 60.218 2 A 1.964 1.964 0 0 1 60.816 2.086 A 1.559 1.559 0 0 1 61.541 2.571 L 61.541 0.092 L 62.354 0.092 L 62.354 6.842 L 61.607 6.842 L 61.567 6.333 Q 61.08 6.93 60.209 6.93 A 1.6 1.6 0 0 1 58.989 6.403 A 2.078 2.078 0 0 1 58.863 6.253 A 2.405 2.405 0 0 1 58.438 5.347 Q 58.354 5.004 58.343 4.603 A 4.425 4.425 0 0 1 58.342 4.487 Z M 38.347 4.597 L 38.347 4.447 A 3.17 3.17 0 0 1 38.423 3.738 A 2.581 2.581 0 0 1 38.617 3.184 A 2.191 2.191 0 0 1 39.064 2.558 A 2.033 2.033 0 0 1 39.373 2.314 Q 39.858 2 40.425 2 A 2.254 2.254 0 0 1 41.038 2.078 A 1.639 1.639 0 0 1 41.867 2.61 Q 42.381 3.221 42.381 4.359 L 42.381 4.698 L 39.16 4.698 A 2.111 2.111 0 0 0 39.231 5.206 A 1.516 1.516 0 0 0 39.571 5.834 A 1.282 1.282 0 0 0 40.505 6.265 A 1.652 1.652 0 0 0 40.57 6.267 A 1.763 1.763 0 0 0 40.898 6.238 Q 41.122 6.195 41.3 6.091 A 1.827 1.827 0 0 0 41.809 5.643 A 2.068 2.068 0 0 0 41.823 5.625 L 42.319 6.012 A 1.926 1.926 0 0 1 40.92 6.903 A 2.749 2.749 0 0 1 40.526 6.93 A 2.394 2.394 0 0 1 39.775 6.817 A 1.974 1.974 0 0 1 38.953 6.295 Q 38.347 5.66 38.347 4.597 Z M 63.409 4.597 L 63.409 4.447 A 3.17 3.17 0 0 1 63.485 3.738 A 2.581 2.581 0 0 1 63.679 3.184 A 2.191 2.191 0 0 1 64.126 2.558 A 2.033 2.033 0 0 1 64.435 2.314 Q 64.92 2 65.487 2 A 2.254 2.254 0 0 1 66.1 2.078 A 1.639 1.639 0 0 1 66.929 2.61 Q 67.443 3.221 67.443 4.359 L 67.443 4.698 L 64.222 4.698 A 2.111 2.111 0 0 0 64.293 5.206 A 1.516 1.516 0 0 0 64.633 5.834 A 1.282 1.282 0 0 0 65.567 6.265 A 1.652 1.652 0 0 0 65.632 6.267 A 1.763 1.763 0 0 0 65.96 6.238 Q 66.184 6.195 66.362 6.091 A 1.827 1.827 0 0 0 66.871 5.643 A 2.068 2.068 0 0 0 66.885 5.625 L 67.381 6.012 A 1.926 1.926 0 0 1 65.982 6.903 A 2.749 2.749 0 0 1 65.588 6.93 A 2.394 2.394 0 0 1 64.837 6.817 A 1.974 1.974 0 0 1 64.015 6.295 Q 63.409 5.66 63.409 4.597 Z M 131.744 4.597 L 131.744 4.447 A 3.17 3.17 0 0 1 131.82 3.738 A 2.581 2.581 0 0 1 132.014 3.184 A 2.191 2.191 0 0 1 132.461 2.558 A 2.033 2.033 0 0 1 132.77 2.314 Q 133.255 2 133.822 2 A 2.254 2.254 0 0 1 134.435 2.078 A 1.639 1.639 0 0 1 135.264 2.61 Q 135.778 3.221 135.778 4.359 L 135.778 4.698 L 132.557 4.698 A 2.111 2.111 0 0 0 132.628 5.206 A 1.516 1.516 0 0 0 132.968 5.834 A 1.282 1.282 0 0 0 133.902 6.265 A 1.652 1.652 0 0 0 133.967 6.267 A 1.763 1.763 0 0 0 134.295 6.238 Q 134.519 6.195 134.697 6.091 A 1.827 1.827 0 0 0 135.206 5.643 A 2.068 2.068 0 0 0 135.22 5.625 L 135.716 6.012 A 1.926 1.926 0 0 1 134.317 6.903 A 2.749 2.749 0 0 1 133.923 6.93 A 2.394 2.394 0 0 1 133.172 6.817 A 1.974 1.974 0 0 1 132.35 6.295 Q 131.744 5.66 131.744 4.597 Z M 20.988 6.842 L 20.175 6.842 L 20.175 2.716 L 19.424 2.716 L 19.424 2.087 L 20.175 2.087 L 20.175 1.6 Q 20.175 1.012 20.417 0.629 A 1.273 1.273 0 0 1 20.584 0.417 Q 20.993 0 21.74 0 A 2.134 2.134 0 0 1 22.298 0.075 L 22.254 0.734 Q 22.047 0.694 21.814 0.694 A 1.086 1.086 0 0 0 21.566 0.721 Q 21.346 0.773 21.204 0.925 A 0.747 0.747 0 0 0 21.037 1.221 Q 21.002 1.336 20.992 1.475 A 1.57 1.57 0 0 0 20.988 1.586 L 20.988 2.087 L 22.003 2.087 L 22.003 2.716 L 20.988 2.716 L 20.988 6.842 Z M 145.34 0.444 L 145.34 4.693 L 146.228 4.693 L 146.228 5.357 L 145.34 5.357 L 145.34 6.842 L 144.523 6.842 L 144.523 5.357 L 141.609 5.357 L 141.609 4.878 L 144.475 0.444 L 145.34 0.444 Z M 156.226 6.842 L 154.455 6.842 L 154.455 0.444 L 156.261 0.444 Q 157.096 0.444 157.737 0.813 Q 158.379 1.182 158.728 1.863 A 3.19 3.19 0 0 1 159.045 2.892 A 4.073 4.073 0 0 1 159.082 3.428 L 159.082 3.836 Q 159.082 4.742 158.733 5.423 A 2.457 2.457 0 0 1 157.735 6.469 Q 157.087 6.833 156.226 6.842 Z M 150.739 2.684 A 1.544 1.544 0 0 0 150.842 2.114 A 2.226 2.226 0 0 0 150.821 1.799 A 1.566 1.566 0 0 0 150.322 0.831 A 1.754 1.754 0 0 0 149.556 0.426 A 2.443 2.443 0 0 0 148.957 0.356 A 2.539 2.539 0 0 0 148.448 0.405 A 1.767 1.767 0 0 0 147.59 0.831 Q 147.072 1.305 147.072 2.114 A 1.808 1.808 0 0 0 147.072 2.151 A 1.499 1.499 0 0 0 147.318 2.962 A 1.626 1.626 0 0 0 147.48 3.169 A 1.726 1.726 0 0 0 147.99 3.546 A 2.119 2.119 0 0 0 147.891 3.592 A 1.738 1.738 0 0 0 147.206 4.179 A 1.629 1.629 0 0 0 146.922 5.115 A 2.272 2.272 0 0 0 146.932 5.329 A 1.63 1.63 0 0 0 147.478 6.436 A 1.895 1.895 0 0 0 148.329 6.864 A 2.797 2.797 0 0 0 148.957 6.93 A 2.796 2.796 0 0 0 149.556 6.869 A 1.925 1.925 0 0 0 150.431 6.438 A 1.578 1.578 0 0 0 150.906 5.712 A 1.989 1.989 0 0 0 150.992 5.115 A 1.581 1.581 0 0 0 150.699 4.179 Q 150.407 3.766 149.906 3.551 Q 150.337 3.34 150.59 2.966 A 1.449 1.449 0 0 0 150.739 2.684 Z M 88.225 0.936 L 89.038 0.936 L 89.038 2.087 L 89.925 2.087 L 89.925 2.716 L 89.038 2.716 L 89.038 5.665 Q 89.038 5.95 89.156 6.093 Q 89.275 6.236 89.561 6.236 A 1.046 1.046 0 0 0 89.658 6.231 Q 89.761 6.221 89.901 6.193 A 4.024 4.024 0 0 0 89.947 6.183 L 89.947 6.842 A 2.463 2.463 0 0 1 89.514 6.922 A 2.157 2.157 0 0 1 89.323 6.93 Q 88.876 6.93 88.609 6.708 A 0.856 0.856 0 0 1 88.501 6.601 Q 88.274 6.33 88.233 5.872 A 2.351 2.351 0 0 1 88.225 5.665 L 88.225 2.716 L 87.359 2.716 L 87.359 2.087 L 88.225 2.087 L 88.225 0.936 Z M 122.001 0.092 L 122.001 6.842 L 121.188 6.842 L 121.188 0.092 L 122.001 0.092 Z M 53.191 4.478 L 53.191 4.421 A 3.057 3.057 0 0 1 53.278 3.679 A 2.573 2.573 0 0 1 53.466 3.164 A 2.16 2.16 0 0 1 53.881 2.579 A 1.957 1.957 0 0 1 54.231 2.303 A 2.036 2.036 0 0 1 55.175 2.006 A 2.491 2.491 0 0 1 55.349 2 A 2.277 2.277 0 0 1 56.102 2.119 A 1.937 1.937 0 0 1 56.92 2.672 A 2.29 2.29 0 0 1 57.439 3.701 A 3.373 3.373 0 0 1 57.52 4.46 L 57.52 4.518 A 3.114 3.114 0 0 1 57.441 5.234 A 2.577 2.577 0 0 1 57.254 5.763 A 2.056 2.056 0 0 1 56.727 6.454 A 2.001 2.001 0 0 1 56.494 6.623 A 2.045 2.045 0 0 1 55.574 6.921 A 2.529 2.529 0 0 1 55.358 6.93 A 2.262 2.262 0 0 1 54.607 6.811 A 1.938 1.938 0 0 1 53.791 6.258 A 2.297 2.297 0 0 1 53.266 5.203 A 3.357 3.357 0 0 1 53.191 4.478 Z M 92.843 4.478 L 92.843 4.421 A 3.057 3.057 0 0 1 92.93 3.679 A 2.573 2.573 0 0 1 93.118 3.164 A 2.16 2.16 0 0 1 93.533 2.579 A 1.957 1.957 0 0 1 93.883 2.303 A 2.036 2.036 0 0 1 94.827 2.006 A 2.491 2.491 0 0 1 95.001 2 A 2.277 2.277 0 0 1 95.754 2.119 A 1.937 1.937 0 0 1 96.572 2.672 A 2.29 2.29 0 0 1 97.091 3.701 A 3.373 3.373 0 0 1 97.172 4.46 L 97.172 4.518 A 3.114 3.114 0 0 1 97.092 5.234 A 2.577 2.577 0 0 1 96.906 5.763 A 2.056 2.056 0 0 1 96.379 6.454 A 2.001 2.001 0 0 1 96.146 6.623 A 2.045 2.045 0 0 1 95.226 6.921 A 2.529 2.529 0 0 1 95.01 6.93 A 2.262 2.262 0 0 1 94.259 6.811 A 1.938 1.938 0 0 1 93.443 6.258 A 2.297 2.297 0 0 1 92.917 5.203 A 3.357 3.357 0 0 1 92.843 4.478 Z M 25.198 2.061 L 25.198 2.817 A 2.251 2.251 0 0 0 24.956 2.79 A 2.782 2.782 0 0 0 24.798 2.786 Q 24.021 2.786 23.729 3.43 A 1.445 1.445 0 0 0 23.713 3.467 L 23.713 6.842 L 22.9 6.842 L 22.9 2.087 L 23.691 2.087 L 23.704 2.637 Q 24.084 2.031 24.767 2.001 A 1.636 1.636 0 0 1 24.838 2 Q 25.075 2 25.198 2.061 Z M 70.682 2.061 L 70.682 2.817 A 2.251 2.251 0 0 0 70.439 2.79 A 2.782 2.782 0 0 0 70.282 2.786 Q 69.504 2.786 69.212 3.43 A 1.445 1.445 0 0 0 69.196 3.467 L 69.196 6.842 L 68.383 6.842 L 68.383 2.087 L 69.174 2.087 L 69.188 2.637 Q 69.568 2.031 70.25 2.001 A 1.636 1.636 0 0 1 70.321 2 Q 70.559 2 70.682 2.061 Z M 139.017 2.061 L 139.017 2.817 A 2.251 2.251 0 0 0 138.774 2.79 A 2.782 2.782 0 0 0 138.617 2.786 Q 137.839 2.786 137.547 3.43 A 1.445 1.445 0 0 0 137.531 3.467 L 137.531 6.842 L 136.718 6.842 L 136.718 2.087 L 137.509 2.087 L 137.522 2.637 Q 137.903 2.031 138.585 2.001 A 1.636 1.636 0 0 1 138.656 2 Q 138.894 2 139.017 2.061 Z M 167.423 2.061 L 167.423 2.817 A 2.251 2.251 0 0 0 167.18 2.79 A 2.782 2.782 0 0 0 167.023 2.786 Q 166.245 2.786 165.954 3.43 A 1.445 1.445 0 0 0 165.938 3.467 L 165.938 6.842 L 165.125 6.842 L 165.125 2.087 L 165.916 2.087 L 165.929 2.637 Q 166.309 2.031 166.992 2.001 A 1.636 1.636 0 0 1 167.062 2 Q 167.3 2 167.423 2.061 Z M 156.283 1.138 L 155.298 1.138 L 155.298 6.152 L 156.186 6.152 A 2.519 2.519 0 0 0 156.818 6.077 A 1.747 1.747 0 0 0 157.704 5.546 Q 158.164 5.033 158.234 4.151 A 4.165 4.165 0 0 0 158.247 3.819 L 158.247 3.445 Q 158.247 2.654 157.977 2.119 A 1.864 1.864 0 0 0 157.735 1.751 A 1.687 1.687 0 0 0 156.739 1.182 A 2.499 2.499 0 0 0 156.283 1.138 Z M 13.509 2.087 L 13.509 6.842 L 12.696 6.842 L 12.696 2.087 L 13.509 2.087 Z M 77.278 2.087 L 77.278 6.842 L 76.465 6.842 L 76.465 2.087 L 77.278 2.087 Z M 91.758 2.087 L 91.758 6.842 L 90.945 6.842 L 90.945 2.087 L 91.758 2.087 Z M 54.009 4.518 A 2.772 2.772 0 0 0 54.056 5.046 Q 54.117 5.357 54.254 5.602 A 1.545 1.545 0 0 0 54.376 5.788 Q 54.743 6.267 55.358 6.267 A 1.269 1.269 0 0 0 55.847 6.175 Q 56.127 6.06 56.329 5.798 A 1.471 1.471 0 0 0 56.342 5.781 A 1.648 1.648 0 0 0 56.597 5.264 Q 56.666 5.037 56.692 4.764 A 3.655 3.655 0 0 0 56.707 4.421 A 2.687 2.687 0 0 0 56.656 3.881 Q 56.588 3.551 56.431 3.292 A 1.586 1.586 0 0 0 56.336 3.153 A 1.231 1.231 0 0 0 55.921 2.798 Q 55.668 2.667 55.349 2.667 Q 54.759 2.667 54.393 3.127 A 1.515 1.515 0 0 0 54.378 3.146 A 1.589 1.589 0 0 0 54.126 3.644 Q 54.056 3.864 54.028 4.131 A 3.676 3.676 0 0 0 54.009 4.518 Z M 93.661 4.518 A 2.772 2.772 0 0 0 93.708 5.046 Q 93.768 5.357 93.906 5.602 A 1.545 1.545 0 0 0 94.028 5.788 Q 94.395 6.267 95.01 6.267 A 1.269 1.269 0 0 0 95.499 6.175 Q 95.779 6.06 95.981 5.798 A 1.471 1.471 0 0 0 95.994 5.781 A 1.648 1.648 0 0 0 96.249 5.264 Q 96.318 5.037 96.343 4.764 A 3.655 3.655 0 0 0 96.359 4.421 A 2.687 2.687 0 0 0 96.308 3.881 Q 96.24 3.551 96.083 3.292 A 1.586 1.586 0 0 0 95.988 3.153 A 1.231 1.231 0 0 0 95.573 2.798 Q 95.319 2.667 95.001 2.667 Q 94.411 2.667 94.045 3.127 A 1.515 1.515 0 0 0 94.03 3.146 A 1.589 1.589 0 0 0 93.778 3.644 Q 93.708 3.864 93.68 4.131 A 3.676 3.676 0 0 0 93.661 4.518 Z M 61.541 5.546 L 61.541 3.362 A 1.375 1.375 0 0 0 61.229 2.966 Q 60.905 2.689 60.42 2.689 A 1.238 1.238 0 0 0 59.994 2.76 A 1.068 1.068 0 0 0 59.489 3.151 A 1.51 1.51 0 0 0 59.28 3.577 Q 59.214 3.781 59.183 4.031 A 3.955 3.955 0 0 0 59.155 4.518 A 3.162 3.162 0 0 0 59.191 5.01 Q 59.232 5.271 59.32 5.481 A 1.474 1.474 0 0 0 59.489 5.783 A 1.06 1.06 0 0 0 60.251 6.231 A 1.391 1.391 0 0 0 60.412 6.24 Q 61.185 6.24 61.541 5.546 Z M 144.426 1.731 L 142.532 4.693 L 144.523 4.693 L 144.523 1.556 L 144.426 1.731 Z M 107.706 1.485 L 106.62 4.478 L 108.795 4.478 L 107.706 1.485 Z M 150.179 5.098 A 1.375 1.375 0 0 0 150.119 4.684 A 1.109 1.109 0 0 0 149.838 4.223 A 1.148 1.148 0 0 0 149.167 3.899 A 1.593 1.593 0 0 0 148.948 3.885 A 1.466 1.466 0 0 0 148.56 3.934 A 1.086 1.086 0 0 0 148.067 4.219 A 1.123 1.123 0 0 0 147.754 4.854 A 1.572 1.572 0 0 0 147.735 5.098 A 1.48 1.48 0 0 0 147.777 5.459 A 1.019 1.019 0 0 0 148.058 5.955 Q 148.364 6.25 148.897 6.266 A 2.053 2.053 0 0 0 148.957 6.267 Q 149.451 6.267 149.761 6.032 A 1.018 1.018 0 0 0 149.854 5.952 A 1.041 1.041 0 0 0 150.153 5.384 A 1.518 1.518 0 0 0 150.179 5.098 Z M 148.957 1.024 A 1.259 1.259 0 0 0 148.604 1.071 A 0.973 0.973 0 0 0 148.181 1.321 Q 147.885 1.617 147.885 2.127 A 1.325 1.325 0 0 0 147.929 2.48 A 0.994 0.994 0 0 0 148.177 2.916 A 0.974 0.974 0 0 0 148.739 3.2 A 1.382 1.382 0 0 0 148.957 3.217 A 1.279 1.279 0 0 0 149.302 3.173 A 0.952 0.952 0 0 0 149.737 2.916 A 1.018 1.018 0 0 0 150.012 2.352 A 1.426 1.426 0 0 0 150.029 2.127 A 1.282 1.282 0 0 0 149.979 1.76 A 1.013 1.013 0 0 0 149.726 1.332 Q 149.423 1.024 148.957 1.024 Z M 10.538 5.511 L 10.538 4.535 L 9.901 4.535 Q 8.407 4.535 8.407 5.41 Q 8.407 5.792 8.662 6.007 A 0.893 0.893 0 0 0 9.075 6.201 A 1.259 1.259 0 0 0 9.316 6.223 A 1.429 1.429 0 0 0 10.042 6.025 A 1.335 1.335 0 0 0 10.337 5.797 A 1.108 1.108 0 0 0 10.538 5.511 Z M 28.578 5.511 L 28.578 4.535 L 27.94 4.535 Q 26.446 4.535 26.446 5.41 Q 26.446 5.792 26.701 6.007 A 0.893 0.893 0 0 0 27.115 6.201 A 1.259 1.259 0 0 0 27.356 6.223 A 1.429 1.429 0 0 0 28.081 6.025 A 1.335 1.335 0 0 0 28.377 5.797 A 1.108 1.108 0 0 0 28.578 5.511 Z M 85.847 5.511 L 85.847 4.535 L 85.21 4.535 Q 83.716 4.535 83.716 5.41 Q 83.716 5.792 83.971 6.007 A 0.893 0.893 0 0 0 84.384 6.201 A 1.259 1.259 0 0 0 84.625 6.223 A 1.429 1.429 0 0 0 85.351 6.025 A 1.335 1.335 0 0 0 85.646 5.797 A 1.108 1.108 0 0 0 85.847 5.511 Z M 119.03 5.511 L 119.03 4.535 L 118.393 4.535 Q 116.899 4.535 116.899 5.41 Q 116.899 5.792 117.154 6.007 A 0.893 0.893 0 0 0 117.567 6.201 A 1.259 1.259 0 0 0 117.809 6.223 A 1.429 1.429 0 0 0 118.534 6.025 A 1.335 1.335 0 0 0 118.829 5.797 A 1.108 1.108 0 0 0 119.03 5.511 Z M 163.037 5.511 L 163.037 4.535 L 162.4 4.535 Q 160.906 4.535 160.906 5.41 Q 160.906 5.792 161.161 6.007 A 0.893 0.893 0 0 0 161.574 6.201 A 1.259 1.259 0 0 0 161.815 6.223 A 1.429 1.429 0 0 0 162.541 6.025 A 1.335 1.335 0 0 0 162.836 5.797 A 1.108 1.108 0 0 0 163.037 5.511 Z M 39.186 4.03 L 41.568 4.03 L 41.568 3.968 Q 41.542 3.509 41.371 3.204 A 1.13 1.13 0 0 0 41.234 3.008 A 0.983 0.983 0 0 0 40.579 2.676 A 1.39 1.39 0 0 0 40.425 2.667 A 1.106 1.106 0 0 0 39.903 2.79 A 1.14 1.14 0 0 0 39.599 3.026 A 1.417 1.417 0 0 0 39.322 3.472 Q 39.249 3.656 39.209 3.878 A 2.741 2.741 0 0 0 39.186 4.03 Z M 64.248 4.03 L 66.63 4.03 L 66.63 3.968 Q 66.604 3.509 66.433 3.204 A 1.13 1.13 0 0 0 66.296 3.008 A 0.983 0.983 0 0 0 65.641 2.676 A 1.39 1.39 0 0 0 65.487 2.667 A 1.106 1.106 0 0 0 64.965 2.79 A 1.14 1.14 0 0 0 64.661 3.026 A 1.417 1.417 0 0 0 64.384 3.472 Q 64.311 3.656 64.271 3.878 A 2.741 2.741 0 0 0 64.248 4.03 Z M 132.583 4.03 L 134.965 4.03 L 134.965 3.968 Q 134.939 3.509 134.768 3.204 A 1.13 1.13 0 0 0 134.631 3.008 A 0.983 0.983 0 0 0 133.976 2.676 A 1.39 1.39 0 0 0 133.822 2.667 A 1.106 1.106 0 0 0 133.3 2.79 A 1.14 1.14 0 0 0 132.996 3.026 A 1.417 1.417 0 0 0 132.719 3.472 Q 132.646 3.656 132.606 3.878 A 2.741 2.741 0 0 0 132.583 4.03 Z M 12.63 0.826 Q 12.63 0.628 12.751 0.492 Q 12.863 0.366 13.074 0.357 A 0.783 0.783 0 0 1 13.109 0.356 Q 13.346 0.356 13.469 0.492 A 0.474 0.474 0 0 1 13.592 0.796 A 0.614 0.614 0 0 1 13.592 0.826 A 0.523 0.523 0 0 1 13.567 0.992 A 0.442 0.442 0 0 1 13.469 1.156 Q 13.357 1.276 13.149 1.287 A 0.803 0.803 0 0 1 13.109 1.288 Q 12.937 1.288 12.826 1.218 A 0.362 0.362 0 0 1 12.751 1.156 A 0.456 0.456 0 0 1 12.632 0.88 A 0.605 0.605 0 0 1 12.63 0.826 Z M 76.399 0.826 Q 76.399 0.628 76.52 0.492 Q 76.632 0.366 76.843 0.357 A 0.783 0.783 0 0 1 76.878 0.356 Q 77.115 0.356 77.238 0.492 A 0.474 0.474 0 0 1 77.361 0.796 A 0.614 0.614 0 0 1 77.361 0.826 A 0.523 0.523 0 0 1 77.336 0.992 A 0.442 0.442 0 0 1 77.238 1.156 Q 77.126 1.276 76.918 1.287 A 0.803 0.803 0 0 1 76.878 1.288 Q 76.706 1.288 76.595 1.218 A 0.362 0.362 0 0 1 76.52 1.156 A 0.456 0.456 0 0 1 76.401 0.88 A 0.605 0.605 0 0 1 76.399 0.826 Z M 90.879 0.826 Q 90.879 0.628 91 0.492 Q 91.112 0.366 91.323 0.357 A 0.783 0.783 0 0 1 91.358 0.356 Q 91.595 0.356 91.718 0.492 A 0.474 0.474 0 0 1 91.841 0.796 A 0.614 0.614 0 0 1 91.841 0.826 A 0.523 0.523 0 0 1 91.816 0.992 A 0.442 0.442 0 0 1 91.718 1.156 Q 91.606 1.276 91.398 1.287 A 0.803 0.803 0 0 1 91.358 1.288 Q 91.186 1.288 91.075 1.218 A 0.362 0.362 0 0 1 91 1.156 A 0.456 0.456 0 0 1 90.881 0.88 A 0.605 0.605 0 0 1 90.879 0.826 Z" vector-effect="non-scaling-stroke"/></g>
</svgversion="1.0" encoding="UTF-8"?>
<svg width="48px" height="48px" viewBox="0 0 48 48" version="1.1" xmlns="http://www.w3.org/2000/svg" xmlns:xlink="http://www.w3.org/1999/xlink">
    <title>Icon-Resource/Migration-and-Transfer/Res_AWS-Mainframe-Modernization_Analyzer_48_Dark</title>
    <g id="Icon-Resource/Migration-and-Transfer/Res_AWS-Mainframe-Modernization_Analyzer_48" stroke="none" stroke-width="1" fill="none" fill-rule="evenodd">
        <path transform="translate(12.000000, 8.000000), scale(.65)" d="M30.007,10 L41.007,10 L41.007,8 L30.007,8 L30.007,10 Z M16.007,10 L23.007,10 L23.007,8 L16.007,8 L16.007,10 Z M31.007,16 L46.007,16 L46.007,14 L31.007,14 L31.007,16 Z M12.007,11 C12.007,14.86 15.148,18 19.007,18 C22.866,18 26.007,14.86 26.007,11 C26.007,7.14 22.866,4 19.007,4 C15.148,4 12.007,7.14 12.007,11 L12.007,11 Z M12.776,17.479 L3.714,26.541 L2.3,25.126 L11.49,15.936 C10.555,14.518 10.007,12.822 10.007,11 C10.007,6.038 14.044,2 19.007,2 C23.97,2 28.007,6.038 28.007,11 C28.007,15.962 23.97,20 19.007,20 C16.589,20 14.394,19.036 12.776,17.479 L12.776,17.479 Z M14.007,40 L37.007,40 L37.007,38 L14.007,38 L14.007,40 Z M8.007,34 L28.007,34 L28.007,32 L8.007,32 L8.007,34 Z M14.007,28 L37.007,28 L37.007,26 L14.007,26 L14.007,28 Z M27.007,22 L46.007,22 L46.007,20 L27.007,20 L27.007,22 Z M37.774,31.463 L45.501,37.5 L34.62,46 L14.73,46 L3.85,37.5 L7.219,34.867 L8.451,36.443 L7.098,37.5 L15.419,44 L33.931,44 L42.253,37.5 L36.543,33.04 L37.774,31.463 Z" id="Fill-1" fill="#000000"></path>
    </g><g transform="translate(25, 83)" id="svgGroup" stroke-linecap="round" fill-rule="evenodd" font-size="9pt" stroke="#000" stroke-width="0.25mm" fill="#000" style="stroke:#000;stroke-width:0.25mm;fill:#000"><path d="M 23.12 0.088 L 24.13 4.469 L 24.253 5.313 L 24.434 4.553 L 25.699 0.088 L 26.411 0.088 L 27.646 4.553 L 27.822 5.326 L 27.958 4.465 L 28.951 0.088 L 29.799 0.088 L 28.248 6.486 L 27.479 6.486 L 26.161 1.824 L 26.06 1.336 L 25.958 1.824 L 24.592 6.486 L 23.823 6.486 L 22.276 0.088 L 23.12 0.088 Z M 34.98 1.938 L 34.132 1.938 A 1.466 1.466 0 0 0 34.083 1.546 A 1.066 1.066 0 0 0 33.763 1.026 A 1.211 1.211 0 0 0 33.294 0.77 Q 33.042 0.694 32.722 0.694 A 2.286 2.286 0 0 0 32.342 0.724 Q 32.14 0.758 31.977 0.831 A 1.101 1.101 0 0 0 31.748 0.969 A 0.892 0.892 0 0 0 31.403 1.624 A 1.267 1.267 0 0 0 31.399 1.732 A 0.806 0.806 0 0 0 31.667 2.337 A 1.134 1.134 0 0 0 31.731 2.393 A 1.562 1.562 0 0 0 31.969 2.549 Q 32.299 2.73 32.86 2.887 A 8.228 8.228 0 0 1 33.325 3.032 Q 33.56 3.113 33.754 3.2 A 3.297 3.297 0 0 1 34.108 3.382 A 2.342 2.342 0 0 1 34.447 3.626 Q 34.637 3.792 34.759 3.985 A 1.45 1.45 0 0 1 34.776 4.012 A 1.498 1.498 0 0 1 34.972 4.568 A 1.948 1.948 0 0 1 34.994 4.86 A 1.606 1.606 0 0 1 34.871 5.497 Q 34.726 5.838 34.408 6.09 A 1.886 1.886 0 0 1 34.387 6.106 Q 33.781 6.574 32.766 6.574 A 3.023 3.023 0 0 1 31.625 6.36 A 2.917 2.917 0 0 1 31.535 6.322 A 2.383 2.383 0 0 1 31.057 6.044 A 1.874 1.874 0 0 1 30.654 5.629 A 1.689 1.689 0 0 1 30.344 4.632 L 31.192 4.632 A 1.261 1.261 0 0 0 31.262 5.059 A 1.074 1.074 0 0 0 31.621 5.548 Q 32.005 5.85 32.622 5.881 A 2.87 2.87 0 0 0 32.766 5.884 A 2.628 2.628 0 0 0 33.153 5.858 Q 33.349 5.828 33.508 5.767 A 1.129 1.129 0 0 0 33.79 5.612 Q 34.146 5.339 34.146 4.869 A 1.074 1.074 0 0 0 34.103 4.559 A 0.816 0.816 0 0 0 33.816 4.142 Q 33.486 3.885 32.621 3.634 Q 31.535 3.322 31.041 2.868 Q 30.546 2.413 30.546 1.745 Q 30.546 0.989 31.151 0.494 A 2.121 2.121 0 0 1 32.041 0.071 A 3.087 3.087 0 0 1 32.722 0 A 2.913 2.913 0 0 1 33.382 0.072 A 2.372 2.372 0 0 1 33.897 0.255 A 2.051 2.051 0 0 1 34.428 0.626 A 1.834 1.834 0 0 1 34.697 0.958 A 1.798 1.798 0 0 1 34.98 1.938 Z M 3.74 6.486 L 2.351 3.898 L 0.848 3.898 L 0.848 6.486 L 0 6.486 L 0 0.088 L 2.118 0.088 A 3.809 3.809 0 0 1 2.76 0.138 Q 3.102 0.197 3.376 0.324 A 1.789 1.789 0 0 1 3.781 0.58 A 1.588 1.588 0 0 1 4.307 1.469 A 2.453 2.453 0 0 1 4.364 2.013 A 1.864 1.864 0 0 1 4.273 2.604 A 1.64 1.64 0 0 1 4.041 3.054 A 1.849 1.849 0 0 1 3.382 3.611 A 2.342 2.342 0 0 1 3.142 3.718 L 4.645 6.434 L 4.645 6.486 L 3.74 6.486 Z M 13.724 3.129 L 12.907 3.129 Q 12.907 2.795 12.623 2.553 Q 12.34 2.312 11.909 2.312 Q 11.465 2.312 11.215 2.505 A 0.653 0.653 0 0 0 11.04 2.704 Q 10.967 2.835 10.964 3 A 0.771 0.771 0 0 0 10.964 3.01 A 0.588 0.588 0 0 0 10.994 3.203 A 0.48 0.48 0 0 0 11.197 3.454 A 1.093 1.093 0 0 0 11.348 3.533 Q 11.512 3.605 11.767 3.673 A 6.581 6.581 0 0 0 12.039 3.74 A 6.318 6.318 0 0 1 12.446 3.845 Q 12.783 3.944 13.025 4.065 A 1.901 1.901 0 0 1 13.281 4.218 Q 13.418 4.315 13.516 4.429 A 1.06 1.06 0 0 1 13.586 4.52 A 1.024 1.024 0 0 1 13.748 4.927 A 1.388 1.388 0 0 1 13.768 5.168 Q 13.768 5.805 13.258 6.19 Q 12.776 6.554 12.022 6.573 A 3.337 3.337 0 0 1 11.936 6.574 A 2.746 2.746 0 0 1 11.401 6.525 A 2.124 2.124 0 0 1 10.925 6.372 A 1.771 1.771 0 0 1 10.491 6.094 A 1.54 1.54 0 0 1 10.237 5.807 Q 9.989 5.445 9.989 5.023 L 10.802 5.023 A 0.932 0.932 0 0 0 10.875 5.348 A 0.827 0.827 0 0 0 11.129 5.671 A 1.072 1.072 0 0 0 11.531 5.864 Q 11.686 5.903 11.867 5.91 A 2.013 2.013 0 0 0 11.936 5.911 A 1.863 1.863 0 0 0 12.231 5.889 Q 12.393 5.863 12.524 5.806 A 0.941 0.941 0 0 0 12.676 5.724 A 0.689 0.689 0 0 0 12.841 5.574 A 0.554 0.554 0 0 0 12.955 5.225 A 0.698 0.698 0 0 0 12.919 4.994 A 0.581 0.581 0 0 0 12.707 4.713 A 1.05 1.05 0 0 0 12.538 4.615 Q 12.349 4.524 12.054 4.449 A 5.392 5.392 0 0 0 11.841 4.399 A 6.342 6.342 0 0 1 11.48 4.311 Q 11.11 4.209 10.861 4.083 Q 10.562 3.93 10.392 3.731 A 1.017 1.017 0 0 1 10.325 3.643 Q 10.151 3.388 10.151 3.037 A 1.206 1.206 0 0 1 10.55 2.132 A 1.694 1.694 0 0 1 10.646 2.048 A 1.752 1.752 0 0 1 11.429 1.688 A 2.471 2.471 0 0 1 11.909 1.644 A 2.559 2.559 0 0 1 12.473 1.702 A 1.757 1.757 0 0 1 13.221 2.061 Q 13.724 2.479 13.724 3.129 Z M 21.327 6.486 L 20.716 4.816 L 18.035 4.816 L 17.433 6.486 L 16.563 6.486 L 19.006 0.088 L 19.745 0.088 L 22.192 6.486 L 21.327 6.486 Z M 5.212 4.241 L 5.212 4.091 A 3.17 3.17 0 0 1 5.288 3.382 A 2.581 2.581 0 0 1 5.482 2.828 A 2.191 2.191 0 0 1 5.93 2.202 A 2.033 2.033 0 0 1 6.238 1.958 Q 6.724 1.644 7.291 1.644 A 2.254 2.254 0 0 1 7.904 1.723 A 1.639 1.639 0 0 1 8.732 2.254 Q 9.246 2.865 9.246 4.003 L 9.246 4.342 L 6.025 4.342 A 2.111 2.111 0 0 0 6.096 4.85 A 1.516 1.516 0 0 0 6.436 5.478 A 1.282 1.282 0 0 0 7.37 5.909 A 1.652 1.652 0 0 0 7.436 5.911 A 1.763 1.763 0 0 0 7.764 5.882 Q 7.988 5.839 8.165 5.735 A 1.827 1.827 0 0 0 8.674 5.287 A 2.068 2.068 0 0 0 8.688 5.269 L 9.185 5.656 A 1.926 1.926 0 0 1 7.785 6.547 A 2.749 2.749 0 0 1 7.392 6.574 A 2.394 2.394 0 0 1 6.64 6.461 A 1.974 1.974 0 0 1 5.818 5.939 Q 5.212 5.304 5.212 4.241 Z M 0.848 0.782 L 0.848 3.208 L 2.145 3.208 Q 2.685 3.208 3.035 2.968 A 1.174 1.174 0 0 0 3.144 2.883 A 1.069 1.069 0 0 0 3.51 2.146 A 1.486 1.486 0 0 0 3.516 2.013 Q 3.516 1.47 3.22 1.159 A 1 1 0 0 0 3.162 1.103 Q 2.808 0.787 2.14 0.782 L 0.848 0.782 Z M 19.375 1.129 L 18.29 4.122 L 20.465 4.122 L 19.375 1.129 Z M 6.051 3.674 L 8.433 3.674 L 8.433 3.612 Q 8.407 3.153 8.236 2.848 A 1.13 1.13 0 0 0 8.099 2.652 A 0.983 0.983 0 0 0 7.445 2.32 A 1.39 1.39 0 0 0 7.291 2.312 A 1.106 1.106 0 0 0 6.768 2.435 A 1.14 1.14 0 0 0 6.464 2.67 A 1.417 1.417 0 0 0 6.188 3.116 Q 6.114 3.3 6.074 3.522 A 2.741 2.741 0 0 0 6.051 3.674 Z" vector-effect="non-scaling-stroke"/></g><g transform="translate(25, 93)" id="svgGroup" stroke-linecap="round" fill-rule="evenodd" font-size="9pt" stroke="#000" stroke-width="0.25mm" fill="#000" style="stroke:#000;stroke-width:0.25mm;fill:#000"><path d="M 0 0.444 L 1.09 0.444 L 3.182 5.665 L 5.273 0.444 L 6.368 0.444 L 6.368 6.842 L 5.524 6.842 L 5.524 4.351 L 5.603 1.661 L 3.502 6.842 L 2.856 6.842 L 0.76 1.674 L 0.844 4.351 L 0.844 6.842 L 0 6.842 L 0 0.444 Z M 45.677 0.444 L 46.767 0.444 L 48.858 5.665 L 50.95 0.444 L 52.044 0.444 L 52.044 6.842 L 51.201 6.842 L 51.201 4.351 L 51.28 1.661 L 49.179 6.842 L 48.533 6.842 L 46.437 1.674 L 46.521 4.351 L 46.521 6.842 L 45.677 6.842 L 45.677 0.444 Z M 30.661 2.087 L 31.43 2.087 L 31.452 2.615 Q 31.975 2 32.862 2 A 2.009 2.009 0 0 1 33.373 2.06 A 1.244 1.244 0 0 1 34.22 2.764 A 1.801 1.801 0 0 1 34.838 2.21 A 1.65 1.65 0 0 1 35.367 2.029 A 2.209 2.209 0 0 1 35.736 2 A 2.119 2.119 0 0 1 36.38 2.089 Q 37.307 2.385 37.327 3.656 L 37.327 6.842 L 36.514 6.842 L 36.514 3.705 A 1.781 1.781 0 0 0 36.494 3.425 Q 36.47 3.277 36.42 3.159 A 0.758 0.758 0 0 0 36.281 2.942 A 0.68 0.68 0 0 0 36.028 2.774 Q 35.817 2.69 35.5 2.689 A 1.245 1.245 0 0 0 35.134 2.741 A 1.008 1.008 0 0 0 34.748 2.96 A 1.042 1.042 0 0 0 34.434 3.496 A 1.41 1.41 0 0 0 34.4 3.687 L 34.4 6.842 L 33.583 6.842 L 33.583 3.727 A 1.532 1.532 0 0 0 33.534 3.322 Q 33.408 2.86 32.95 2.735 A 1.457 1.457 0 0 0 32.568 2.689 Q 31.794 2.689 31.493 3.327 A 1.459 1.459 0 0 0 31.474 3.371 L 31.474 6.842 L 30.661 6.842 L 30.661 2.087 Z M 171.154 6.842 L 169.497 4.641 L 168.987 5.172 L 168.987 6.842 L 168.174 6.842 L 168.174 0.092 L 168.987 0.092 L 168.987 4.175 L 169.422 3.652 L 170.903 2.087 L 171.892 2.087 L 170.042 4.074 L 172.107 6.842 L 171.154 6.842 Z M 123.671 2.087 L 124.857 5.651 L 125.965 2.087 L 126.835 2.087 L 124.923 7.576 Q 124.479 8.763 123.513 8.763 L 123.359 8.75 L 123.056 8.692 L 123.056 8.033 L 123.275 8.051 Q 123.555 8.051 123.751 7.974 A 0.75 0.75 0 0 0 123.919 7.884 A 0.749 0.749 0 0 0 124.079 7.722 Q 124.197 7.563 124.287 7.307 A 2.575 2.575 0 0 0 124.299 7.273 L 124.479 6.79 L 122.783 2.087 L 123.671 2.087 Z M 14.81 2.087 L 15.579 2.087 L 15.605 2.685 Q 16.141 2.01 17.001 2 A 2.234 2.234 0 0 1 17.029 2 A 1.905 1.905 0 0 1 17.662 2.096 Q 18.504 2.392 18.547 3.598 A 3.668 3.668 0 0 1 18.549 3.7 L 18.549 6.842 L 17.736 6.842 L 17.736 3.696 A 1.837 1.837 0 0 0 17.714 3.416 Q 17.664 3.109 17.501 2.936 Q 17.315 2.737 16.962 2.699 A 1.66 1.66 0 0 0 16.783 2.689 A 1.253 1.253 0 0 0 16.368 2.756 A 1.123 1.123 0 0 0 16.088 2.9 A 1.432 1.432 0 0 0 15.623 3.454 L 15.623 6.842 L 14.81 6.842 L 14.81 2.087 Z M 71.429 2.087 L 72.198 2.087 L 72.224 2.685 Q 72.76 2.01 73.62 2 A 2.234 2.234 0 0 1 73.648 2 A 1.905 1.905 0 0 1 74.281 2.096 Q 75.123 2.392 75.166 3.598 A 3.668 3.668 0 0 1 75.168 3.7 L 75.168 6.842 L 74.355 6.842 L 74.355 3.696 A 1.837 1.837 0 0 0 74.333 3.416 Q 74.283 3.109 74.12 2.936 Q 73.934 2.737 73.581 2.699 A 1.66 1.66 0 0 0 73.402 2.689 A 1.253 1.253 0 0 0 72.987 2.756 A 1.123 1.123 0 0 0 72.708 2.9 A 1.432 1.432 0 0 0 72.242 3.454 L 72.242 6.842 L 71.429 6.842 L 71.429 2.087 Z M 98.191 2.087 L 98.96 2.087 L 98.987 2.685 Q 99.523 2.01 100.383 2 A 2.234 2.234 0 0 1 100.411 2 A 1.905 1.905 0 0 1 101.044 2.096 Q 101.886 2.392 101.929 3.598 A 3.668 3.668 0 0 1 101.931 3.7 L 101.931 6.842 L 101.118 6.842 L 101.118 3.696 A 1.837 1.837 0 0 0 101.096 3.416 Q 101.046 3.109 100.883 2.936 Q 100.697 2.737 100.344 2.699 A 1.66 1.66 0 0 0 100.165 2.689 A 1.253 1.253 0 0 0 99.75 2.756 A 1.123 1.123 0 0 0 99.47 2.9 A 1.432 1.432 0 0 0 99.004 3.454 L 99.004 6.842 L 98.191 6.842 L 98.191 2.087 Z M 111.256 2.087 L 112.025 2.087 L 112.052 2.685 Q 112.588 2.01 113.448 2 A 2.234 2.234 0 0 1 113.476 2 A 1.905 1.905 0 0 1 114.109 2.096 Q 114.951 2.392 114.994 3.598 A 3.668 3.668 0 0 1 114.996 3.7 L 114.996 6.842 L 114.183 6.842 L 114.183 3.696 A 1.837 1.837 0 0 0 114.161 3.416 Q 114.111 3.109 113.948 2.936 Q 113.762 2.737 113.409 2.699 A 1.66 1.66 0 0 0 113.229 2.689 A 1.253 1.253 0 0 0 112.815 2.756 A 1.123 1.123 0 0 0 112.535 2.9 A 1.432 1.432 0 0 0 112.069 3.454 L 112.069 6.842 L 111.256 6.842 L 111.256 2.087 Z M 81.993 2.663 L 79.343 6.179 L 82.125 6.179 L 82.125 6.842 L 78.35 6.842 L 78.35 6.245 L 80.974 2.76 L 78.39 2.76 L 78.39 2.087 L 81.993 2.087 L 81.993 2.663 Z M 130.975 2.663 L 128.325 6.179 L 131.106 6.179 L 131.106 6.842 L 127.332 6.842 L 127.332 6.245 L 129.955 2.76 L 127.371 2.76 L 127.371 2.087 L 130.975 2.087 L 130.975 2.663 Z M 109.657 6.842 L 109.046 5.172 L 106.365 5.172 L 105.763 6.842 L 104.893 6.842 L 107.336 0.444 L 108.075 0.444 L 110.522 6.842 L 109.657 6.842 Z M 11.518 6.842 L 10.666 6.842 A 0.632 0.632 0 0 1 10.63 6.752 Q 10.599 6.654 10.574 6.502 A 3.997 3.997 0 0 1 10.551 6.341 Q 9.984 6.93 9.198 6.93 A 2.033 2.033 0 0 1 8.668 6.865 A 1.529 1.529 0 0 1 8.044 6.532 Q 7.594 6.135 7.594 5.524 Q 7.594 4.781 8.158 4.37 Q 8.723 3.959 9.747 3.959 L 10.538 3.959 L 10.538 3.586 A 1.152 1.152 0 0 0 10.502 3.291 A 0.828 0.828 0 0 0 10.283 2.907 Q 10.067 2.693 9.677 2.66 A 1.748 1.748 0 0 0 9.532 2.654 Q 9.097 2.654 8.802 2.874 Q 8.508 3.094 8.508 3.406 L 7.69 3.406 A 1.041 1.041 0 0 1 7.815 2.917 A 1.409 1.409 0 0 1 7.943 2.718 Q 8.196 2.386 8.629 2.193 A 2.249 2.249 0 0 1 9.404 2.005 A 2.669 2.669 0 0 1 9.58 2 A 2.65 2.65 0 0 1 10.098 2.047 Q 10.405 2.108 10.644 2.248 A 1.439 1.439 0 0 1 10.868 2.41 A 1.396 1.396 0 0 1 11.321 3.236 A 1.998 1.998 0 0 1 11.351 3.542 L 11.351 5.73 Q 11.351 6.165 11.425 6.482 A 1.707 1.707 0 0 0 11.518 6.772 L 11.518 6.842 Z M 29.558 6.842 L 28.705 6.842 A 0.632 0.632 0 0 1 28.67 6.752 Q 28.638 6.654 28.614 6.502 A 3.997 3.997 0 0 1 28.591 6.341 Q 28.024 6.93 27.237 6.93 A 2.033 2.033 0 0 1 26.708 6.865 A 1.529 1.529 0 0 1 26.084 6.532 Q 25.633 6.135 25.633 5.524 Q 25.633 4.781 26.198 4.37 Q 26.763 3.959 27.787 3.959 L 28.578 3.959 L 28.578 3.586 A 1.152 1.152 0 0 0 28.542 3.291 A 0.828 0.828 0 0 0 28.323 2.907 Q 28.106 2.693 27.716 2.66 A 1.748 1.748 0 0 0 27.571 2.654 Q 27.136 2.654 26.842 2.874 Q 26.547 3.094 26.547 3.406 L 25.73 3.406 A 1.041 1.041 0 0 1 25.855 2.917 A 1.409 1.409 0 0 1 25.983 2.718 Q 26.235 2.386 26.668 2.193 A 2.249 2.249 0 0 1 27.444 2.005 A 2.669 2.669 0 0 1 27.62 2 A 2.65 2.65 0 0 1 28.137 2.047 Q 28.444 2.108 28.683 2.248 A 1.439 1.439 0 0 1 28.907 2.41 A 1.396 1.396 0 0 1 29.361 3.236 A 1.998 1.998 0 0 1 29.391 3.542 L 29.391 5.73 Q 29.391 6.165 29.464 6.482 A 1.707 1.707 0 0 0 29.558 6.772 L 29.558 6.842 Z M 86.827 6.842 L 85.975 6.842 A 0.632 0.632 0 0 1 85.939 6.752 Q 85.908 6.654 85.883 6.502 A 3.997 3.997 0 0 1 85.86 6.341 Q 85.293 6.93 84.507 6.93 A 2.033 2.033 0 0 1 83.978 6.865 A 1.529 1.529 0 0 1 83.353 6.532 Q 82.903 6.135 82.903 5.524 Q 82.903 4.781 83.468 4.37 Q 84.032 3.959 85.056 3.959 L 85.847 3.959 L 85.847 3.586 A 1.152 1.152 0 0 0 85.811 3.291 A 0.828 0.828 0 0 0 85.592 2.907 Q 85.376 2.693 84.986 2.66 A 1.748 1.748 0 0 0 84.841 2.654 Q 84.406 2.654 84.111 2.874 Q 83.817 3.094 83.817 3.406 L 83 3.406 A 1.041 1.041 0 0 1 83.124 2.917 A 1.409 1.409 0 0 1 83.252 2.718 Q 83.505 2.386 83.938 2.193 A 2.249 2.249 0 0 1 84.713 2.005 A 2.669 2.669 0 0 1 84.889 2 A 2.65 2.65 0 0 1 85.407 2.047 Q 85.714 2.108 85.953 2.248 A 1.439 1.439 0 0 1 86.177 2.41 A 1.396 1.396 0 0 1 86.63 3.236 A 1.998 1.998 0 0 1 86.66 3.542 L 86.66 5.73 Q 86.66 6.165 86.734 6.482 A 1.707 1.707 0 0 0 86.827 6.772 L 86.827 6.842 Z M 120.01 6.842 L 119.158 6.842 A 0.632 0.632 0 0 1 119.122 6.752 Q 119.091 6.654 119.066 6.502 A 3.997 3.997 0 0 1 119.043 6.341 Q 118.477 6.93 117.69 6.93 A 2.033 2.033 0 0 1 117.161 6.865 A 1.529 1.529 0 0 1 116.536 6.532 Q 116.086 6.135 116.086 5.524 Q 116.086 4.781 116.651 4.37 Q 117.215 3.959 118.239 3.959 L 119.03 3.959 L 119.03 3.586 A 1.152 1.152 0 0 0 118.995 3.291 A 0.828 0.828 0 0 0 118.775 2.907 Q 118.559 2.693 118.169 2.66 A 1.748 1.748 0 0 0 118.024 2.654 Q 117.589 2.654 117.294 2.874 Q 117 3.094 117 3.406 L 116.183 3.406 A 1.041 1.041 0 0 1 116.308 2.917 A 1.409 1.409 0 0 1 116.435 2.718 Q 116.688 2.386 117.121 2.193 A 2.249 2.249 0 0 1 117.897 2.005 A 2.669 2.669 0 0 1 118.072 2 A 2.65 2.65 0 0 1 118.59 2.047 Q 118.897 2.108 119.136 2.248 A 1.439 1.439 0 0 1 119.36 2.41 A 1.396 1.396 0 0 1 119.813 3.236 A 1.998 1.998 0 0 1 119.843 3.542 L 119.843 5.73 Q 119.843 6.165 119.917 6.482 A 1.707 1.707 0 0 0 120.01 6.772 L 120.01 6.842 Z M 164.017 6.842 L 163.165 6.842 A 0.632 0.632 0 0 1 163.129 6.752 Q 163.098 6.654 163.073 6.502 A 3.997 3.997 0 0 1 163.05 6.341 Q 162.483 6.93 161.697 6.93 A 2.033 2.033 0 0 1 161.167 6.865 A 1.529 1.529 0 0 1 160.543 6.532 Q 160.093 6.135 160.093 5.524 Q 160.093 4.781 160.657 4.37 Q 161.222 3.959 162.246 3.959 L 163.037 3.959 L 163.037 3.586 A 1.152 1.152 0 0 0 163.001 3.291 A 0.828 0.828 0 0 0 162.782 2.907 Q 162.566 2.693 162.176 2.66 A 1.748 1.748 0 0 0 162.031 2.654 Q 161.596 2.654 161.301 2.874 Q 161.007 3.094 161.007 3.406 L 160.189 3.406 A 1.041 1.041 0 0 1 160.314 2.917 A 1.409 1.409 0 0 1 160.442 2.718 Q 160.695 2.386 161.128 2.193 A 2.249 2.249 0 0 1 161.903 2.005 A 2.669 2.669 0 0 1 162.079 2 A 2.65 2.65 0 0 1 162.597 2.047 Q 162.904 2.108 163.143 2.248 A 1.439 1.439 0 0 1 163.367 2.41 A 1.396 1.396 0 0 1 163.82 3.236 A 1.998 1.998 0 0 1 163.85 3.542 L 163.85 5.73 Q 163.85 6.165 163.924 6.482 A 1.707 1.707 0 0 0 164.017 6.772 L 164.017 6.842 Z M 58.342 4.487 L 58.342 4.425 A 3.762 3.762 0 0 1 58.409 3.694 Q 58.496 3.252 58.699 2.904 A 2.148 2.148 0 0 1 58.86 2.665 Q 59.379 2 60.218 2 A 1.964 1.964 0 0 1 60.816 2.086 A 1.559 1.559 0 0 1 61.541 2.571 L 61.541 0.092 L 62.354 0.092 L 62.354 6.842 L 61.607 6.842 L 61.567 6.333 Q 61.08 6.93 60.209 6.93 A 1.6 1.6 0 0 1 58.989 6.403 A 2.078 2.078 0 0 1 58.863 6.253 A 2.405 2.405 0 0 1 58.438 5.347 Q 58.354 5.004 58.343 4.603 A 4.425 4.425 0 0 1 58.342 4.487 Z M 38.347 4.597 L 38.347 4.447 A 3.17 3.17 0 0 1 38.423 3.738 A 2.581 2.581 0 0 1 38.617 3.184 A 2.191 2.191 0 0 1 39.064 2.558 A 2.033 2.033 0 0 1 39.373 2.314 Q 39.858 2 40.425 2 A 2.254 2.254 0 0 1 41.038 2.078 A 1.639 1.639 0 0 1 41.867 2.61 Q 42.381 3.221 42.381 4.359 L 42.381 4.698 L 39.16 4.698 A 2.111 2.111 0 0 0 39.231 5.206 A 1.516 1.516 0 0 0 39.571 5.834 A 1.282 1.282 0 0 0 40.505 6.265 A 1.652 1.652 0 0 0 40.57 6.267 A 1.763 1.763 0 0 0 40.898 6.238 Q 41.122 6.195 41.3 6.091 A 1.827 1.827 0 0 0 41.809 5.643 A 2.068 2.068 0 0 0 41.823 5.625 L 42.319 6.012 A 1.926 1.926 0 0 1 40.92 6.903 A 2.749 2.749 0 0 1 40.526 6.93 A 2.394 2.394 0 0 1 39.775 6.817 A 1.974 1.974 0 0 1 38.953 6.295 Q 38.347 5.66 38.347 4.597 Z M 63.409 4.597 L 63.409 4.447 A 3.17 3.17 0 0 1 63.485 3.738 A 2.581 2.581 0 0 1 63.679 3.184 A 2.191 2.191 0 0 1 64.126 2.558 A 2.033 2.033 0 0 1 64.435 2.314 Q 64.92 2 65.487 2 A 2.254 2.254 0 0 1 66.1 2.078 A 1.639 1.639 0 0 1 66.929 2.61 Q 67.443 3.221 67.443 4.359 L 67.443 4.698 L 64.222 4.698 A 2.111 2.111 0 0 0 64.293 5.206 A 1.516 1.516 0 0 0 64.633 5.834 A 1.282 1.282 0 0 0 65.567 6.265 A 1.652 1.652 0 0 0 65.632 6.267 A 1.763 1.763 0 0 0 65.96 6.238 Q 66.184 6.195 66.362 6.091 A 1.827 1.827 0 0 0 66.871 5.643 A 2.068 2.068 0 0 0 66.885 5.625 L 67.381 6.012 A 1.926 1.926 0 0 1 65.982 6.903 A 2.749 2.749 0 0 1 65.588 6.93 A 2.394 2.394 0 0 1 64.837 6.817 A 1.974 1.974 0 0 1 64.015 6.295 Q 63.409 5.66 63.409 4.597 Z M 131.744 4.597 L 131.744 4.447 A 3.17 3.17 0 0 1 131.82 3.738 A 2.581 2.581 0 0 1 132.014 3.184 A 2.191 2.191 0 0 1 132.461 2.558 A 2.033 2.033 0 0 1 132.77 2.314 Q 133.255 2 133.822 2 A 2.254 2.254 0 0 1 134.435 2.078 A 1.639 1.639 0 0 1 135.264 2.61 Q 135.778 3.221 135.778 4.359 L 135.778 4.698 L 132.557 4.698 A 2.111 2.111 0 0 0 132.628 5.206 A 1.516 1.516 0 0 0 132.968 5.834 A 1.282 1.282 0 0 0 133.902 6.265 A 1.652 1.652 0 0 0 133.967 6.267 A 1.763 1.763 0 0 0 134.295 6.238 Q 134.519 6.195 134.697 6.091 A 1.827 1.827 0 0 0 135.206 5.643 A 2.068 2.068 0 0 0 135.22 5.625 L 135.716 6.012 A 1.926 1.926 0 0 1 134.317 6.903 A 2.749 2.749 0 0 1 133.923 6.93 A 2.394 2.394 0 0 1 133.172 6.817 A 1.974 1.974 0 0 1 132.35 6.295 Q 131.744 5.66 131.744 4.597 Z M 20.988 6.842 L 20.175 6.842 L 20.175 2.716 L 19.424 2.716 L 19.424 2.087 L 20.175 2.087 L 20.175 1.6 Q 20.175 1.012 20.417 0.629 A 1.273 1.273 0 0 1 20.584 0.417 Q 20.993 0 21.74 0 A 2.134 2.134 0 0 1 22.298 0.075 L 22.254 0.734 Q 22.047 0.694 21.814 0.694 A 1.086 1.086 0 0 0 21.566 0.721 Q 21.346 0.773 21.204 0.925 A 0.747 0.747 0 0 0 21.037 1.221 Q 21.002 1.336 20.992 1.475 A 1.57 1.57 0 0 0 20.988 1.586 L 20.988 2.087 L 22.003 2.087 L 22.003 2.716 L 20.988 2.716 L 20.988 6.842 Z M 145.34 0.444 L 145.34 4.693 L 146.228 4.693 L 146.228 5.357 L 145.34 5.357 L 145.34 6.842 L 144.523 6.842 L 144.523 5.357 L 141.609 5.357 L 141.609 4.878 L 144.475 0.444 L 145.34 0.444 Z M 156.226 6.842 L 154.455 6.842 L 154.455 0.444 L 156.261 0.444 Q 157.096 0.444 157.737 0.813 Q 158.379 1.182 158.728 1.863 A 3.19 3.19 0 0 1 159.045 2.892 A 4.073 4.073 0 0 1 159.082 3.428 L 159.082 3.836 Q 159.082 4.742 158.733 5.423 A 2.457 2.457 0 0 1 157.735 6.469 Q 157.087 6.833 156.226 6.842 Z M 150.739 2.684 A 1.544 1.544 0 0 0 150.842 2.114 A 2.226 2.226 0 0 0 150.821 1.799 A 1.566 1.566 0 0 0 150.322 0.831 A 1.754 1.754 0 0 0 149.556 0.426 A 2.443 2.443 0 0 0 148.957 0.356 A 2.539 2.539 0 0 0 148.448 0.405 A 1.767 1.767 0 0 0 147.59 0.831 Q 147.072 1.305 147.072 2.114 A 1.808 1.808 0 0 0 147.072 2.151 A 1.499 1.499 0 0 0 147.318 2.962 A 1.626 1.626 0 0 0 147.48 3.169 A 1.726 1.726 0 0 0 147.99 3.546 A 2.119 2.119 0 0 0 147.891 3.592 A 1.738 1.738 0 0 0 147.206 4.179 A 1.629 1.629 0 0 0 146.922 5.115 A 2.272 2.272 0 0 0 146.932 5.329 A 1.63 1.63 0 0 0 147.478 6.436 A 1.895 1.895 0 0 0 148.329 6.864 A 2.797 2.797 0 0 0 148.957 6.93 A 2.796 2.796 0 0 0 149.556 6.869 A 1.925 1.925 0 0 0 150.431 6.438 A 1.578 1.578 0 0 0 150.906 5.712 A 1.989 1.989 0 0 0 150.992 5.115 A 1.581 1.581 0 0 0 150.699 4.179 Q 150.407 3.766 149.906 3.551 Q 150.337 3.34 150.59 2.966 A 1.449 1.449 0 0 0 150.739 2.684 Z M 88.225 0.936 L 89.038 0.936 L 89.038 2.087 L 89.925 2.087 L 89.925 2.716 L 89.038 2.716 L 89.038 5.665 Q 89.038 5.95 89.156 6.093 Q 89.275 6.236 89.561 6.236 A 1.046 1.046 0 0 0 89.658 6.231 Q 89.761 6.221 89.901 6.193 A 4.024 4.024 0 0 0 89.947 6.183 L 89.947 6.842 A 2.463 2.463 0 0 1 89.514 6.922 A 2.157 2.157 0 0 1 89.323 6.93 Q 88.876 6.93 88.609 6.708 A 0.856 0.856 0 0 1 88.501 6.601 Q 88.274 6.33 88.233 5.872 A 2.351 2.351 0 0 1 88.225 5.665 L 88.225 2.716 L 87.359 2.716 L 87.359 2.087 L 88.225 2.087 L 88.225 0.936 Z M 122.001 0.092 L 122.001 6.842 L 121.188 6.842 L 121.188 0.092 L 122.001 0.092 Z M 53.191 4.478 L 53.191 4.421 A 3.057 3.057 0 0 1 53.278 3.679 A 2.573 2.573 0 0 1 53.466 3.164 A 2.16 2.16 0 0 1 53.881 2.579 A 1.957 1.957 0 0 1 54.231 2.303 A 2.036 2.036 0 0 1 55.175 2.006 A 2.491 2.491 0 0 1 55.349 2 A 2.277 2.277 0 0 1 56.102 2.119 A 1.937 1.937 0 0 1 56.92 2.672 A 2.29 2.29 0 0 1 57.439 3.701 A 3.373 3.373 0 0 1 57.52 4.46 L 57.52 4.518 A 3.114 3.114 0 0 1 57.441 5.234 A 2.577 2.577 0 0 1 57.254 5.763 A 2.056 2.056 0 0 1 56.727 6.454 A 2.001 2.001 0 0 1 56.494 6.623 A 2.045 2.045 0 0 1 55.574 6.921 A 2.529 2.529 0 0 1 55.358 6.93 A 2.262 2.262 0 0 1 54.607 6.811 A 1.938 1.938 0 0 1 53.791 6.258 A 2.297 2.297 0 0 1 53.266 5.203 A 3.357 3.357 0 0 1 53.191 4.478 Z M 92.843 4.478 L 92.843 4.421 A 3.057 3.057 0 0 1 92.93 3.679 A 2.573 2.573 0 0 1 93.118 3.164 A 2.16 2.16 0 0 1 93.533 2.579 A 1.957 1.957 0 0 1 93.883 2.303 A 2.036 2.036 0 0 1 94.827 2.006 A 2.491 2.491 0 0 1 95.001 2 A 2.277 2.277 0 0 1 95.754 2.119 A 1.937 1.937 0 0 1 96.572 2.672 A 2.29 2.29 0 0 1 97.091 3.701 A 3.373 3.373 0 0 1 97.172 4.46 L 97.172 4.518 A 3.114 3.114 0 0 1 97.092 5.234 A 2.577 2.577 0 0 1 96.906 5.763 A 2.056 2.056 0 0 1 96.379 6.454 A 2.001 2.001 0 0 1 96.146 6.623 A 2.045 2.045 0 0 1 95.226 6.921 A 2.529 2.529 0 0 1 95.01 6.93 A 2.262 2.262 0 0 1 94.259 6.811 A 1.938 1.938 0 0 1 93.443 6.258 A 2.297 2.297 0 0 1 92.917 5.203 A 3.357 3.357 0 0 1 92.843 4.478 Z M 25.198 2.061 L 25.198 2.817 A 2.251 2.251 0 0 0 24.956 2.79 A 2.782 2.782 0 0 0 24.798 2.786 Q 24.021 2.786 23.729 3.43 A 1.445 1.445 0 0 0 23.713 3.467 L 23.713 6.842 L 22.9 6.842 L 22.9 2.087 L 23.691 2.087 L 23.704 2.637 Q 24.084 2.031 24.767 2.001 A 1.636 1.636 0 0 1 24.838 2 Q 25.075 2 25.198 2.061 Z M 70.682 2.061 L 70.682 2.817 A 2.251 2.251 0 0 0 70.439 2.79 A 2.782 2.782 0 0 0 70.282 2.786 Q 69.504 2.786 69.212 3.43 A 1.445 1.445 0 0 0 69.196 3.467 L 69.196 6.842 L 68.383 6.842 L 68.383 2.087 L 69.174 2.087 L 69.188 2.637 Q 69.568 2.031 70.25 2.001 A 1.636 1.636 0 0 1 70.321 2 Q 70.559 2 70.682 2.061 Z M 139.017 2.061 L 139.017 2.817 A 2.251 2.251 0 0 0 138.774 2.79 A 2.782 2.782 0 0 0 138.617 2.786 Q 137.839 2.786 137.547 3.43 A 1.445 1.445 0 0 0 137.531 3.467 L 137.531 6.842 L 136.718 6.842 L 136.718 2.087 L 137.509 2.087 L 137.522 2.637 Q 137.903 2.031 138.585 2.001 A 1.636 1.636 0 0 1 138.656 2 Q 138.894 2 139.017 2.061 Z M 167.423 2.061 L 167.423 2.817 A 2.251 2.251 0 0 0 167.18 2.79 A 2.782 2.782 0 0 0 167.023 2.786 Q 166.245 2.786 165.954 3.43 A 1.445 1.445 0 0 0 165.938 3.467 L 165.938 6.842 L 165.125 6.842 L 165.125 2.087 L 165.916 2.087 L 165.929 2.637 Q 166.309 2.031 166.992 2.001 A 1.636 1.636 0 0 1 167.062 2 Q 167.3 2 167.423 2.061 Z M 156.283 1.138 L 155.298 1.138 L 155.298 6.152 L 156.186 6.152 A 2.519 2.519 0 0 0 156.818 6.077 A 1.747 1.747 0 0 0 157.704 5.546 Q 158.164 5.033 158.234 4.151 A 4.165 4.165 0 0 0 158.247 3.819 L 158.247 3.445 Q 158.247 2.654 157.977 2.119 A 1.864 1.864 0 0 0 157.735 1.751 A 1.687 1.687 0 0 0 156.739 1.182 A 2.499 2.499 0 0 0 156.283 1.138 Z M 13.509 2.087 L 13.509 6.842 L 12.696 6.842 L 12.696 2.087 L 13.509 2.087 Z M 77.278 2.087 L 77.278 6.842 L 76.465 6.842 L 76.465 2.087 L 77.278 2.087 Z M 91.758 2.087 L 91.758 6.842 L 90.945 6.842 L 90.945 2.087 L 91.758 2.087 Z M 54.009 4.518 A 2.772 2.772 0 0 0 54.056 5.046 Q 54.117 5.357 54.254 5.602 A 1.545 1.545 0 0 0 54.376 5.788 Q 54.743 6.267 55.358 6.267 A 1.269 1.269 0 0 0 55.847 6.175 Q 56.127 6.06 56.329 5.798 A 1.471 1.471 0 0 0 56.342 5.781 A 1.648 1.648 0 0 0 56.597 5.264 Q 56.666 5.037 56.692 4.764 A 3.655 3.655 0 0 0 56.707 4.421 A 2.687 2.687 0 0 0 56.656 3.881 Q 56.588 3.551 56.431 3.292 A 1.586 1.586 0 0 0 56.336 3.153 A 1.231 1.231 0 0 0 55.921 2.798 Q 55.668 2.667 55.349 2.667 Q 54.759 2.667 54.393 3.127 A 1.515 1.515 0 0 0 54.378 3.146 A 1.589 1.589 0 0 0 54.126 3.644 Q 54.056 3.864 54.028 4.131 A 3.676 3.676 0 0 0 54.009 4.518 Z M 93.661 4.518 A 2.772 2.772 0 0 0 93.708 5.046 Q 93.768 5.357 93.906 5.602 A 1.545 1.545 0 0 0 94.028 5.788 Q 94.395 6.267 95.01 6.267 A 1.269 1.269 0 0 0 95.499 6.175 Q 95.779 6.06 95.981 5.798 A 1.471 1.471 0 0 0 95.994 5.781 A 1.648 1.648 0 0 0 96.249 5.264 Q 96.318 5.037 96.343 4.764 A 3.655 3.655 0 0 0 96.359 4.421 A 2.687 2.687 0 0 0 96.308 3.881 Q 96.24 3.551 96.083 3.292 A 1.586 1.586 0 0 0 95.988 3.153 A 1.231 1.231 0 0 0 95.573 2.798 Q 95.319 2.667 95.001 2.667 Q 94.411 2.667 94.045 3.127 A 1.515 1.515 0 0 0 94.03 3.146 A 1.589 1.589 0 0 0 93.778 3.644 Q 93.708 3.864 93.68 4.131 A 3.676 3.676 0 0 0 93.661 4.518 Z M 61.541 5.546 L 61.541 3.362 A 1.375 1.375 0 0 0 61.229 2.966 Q 60.905 2.689 60.42 2.689 A 1.238 1.238 0 0 0 59.994 2.76 A 1.068 1.068 0 0 0 59.489 3.151 A 1.51 1.51 0 0 0 59.28 3.577 Q 59.214 3.781 59.183 4.031 A 3.955 3.955 0 0 0 59.155 4.518 A 3.162 3.162 0 0 0 59.191 5.01 Q 59.232 5.271 59.32 5.481 A 1.474 1.474 0 0 0 59.489 5.783 A 1.06 1.06 0 0 0 60.251 6.231 A 1.391 1.391 0 0 0 60.412 6.24 Q 61.185 6.24 61.541 5.546 Z M 144.426 1.731 L 142.532 4.693 L 144.523 4.693 L 144.523 1.556 L 144.426 1.731 Z M 107.706 1.485 L 106.62 4.478 L 108.795 4.478 L 107.706 1.485 Z M 150.179 5.098 A 1.375 1.375 0 0 0 150.119 4.684 A 1.109 1.109 0 0 0 149.838 4.223 A 1.148 1.148 0 0 0 149.167 3.899 A 1.593 1.593 0 0 0 148.948 3.885 A 1.466 1.466 0 0 0 148.56 3.934 A 1.086 1.086 0 0 0 148.067 4.219 A 1.123 1.123 0 0 0 147.754 4.854 A 1.572 1.572 0 0 0 147.735 5.098 A 1.48 1.48 0 0 0 147.777 5.459 A 1.019 1.019 0 0 0 148.058 5.955 Q 148.364 6.25 148.897 6.266 A 2.053 2.053 0 0 0 148.957 6.267 Q 149.451 6.267 149.761 6.032 A 1.018 1.018 0 0 0 149.854 5.952 A 1.041 1.041 0 0 0 150.153 5.384 A 1.518 1.518 0 0 0 150.179 5.098 Z M 148.957 1.024 A 1.259 1.259 0 0 0 148.604 1.071 A 0.973 0.973 0 0 0 148.181 1.321 Q 147.885 1.617 147.885 2.127 A 1.325 1.325 0 0 0 147.929 2.48 A 0.994 0.994 0 0 0 148.177 2.916 A 0.974 0.974 0 0 0 148.739 3.2 A 1.382 1.382 0 0 0 148.957 3.217 A 1.279 1.279 0 0 0 149.302 3.173 A 0.952 0.952 0 0 0 149.737 2.916 A 1.018 1.018 0 0 0 150.012 2.352 A 1.426 1.426 0 0 0 150.029 2.127 A 1.282 1.282 0 0 0 149.979 1.76 A 1.013 1.013 0 0 0 149.726 1.332 Q 149.423 1.024 148.957 1.024 Z M 10.538 5.511 L 10.538 4.535 L 9.901 4.535 Q 8.407 4.535 8.407 5.41 Q 8.407 5.792 8.662 6.007 A 0.893 0.893 0 0 0 9.075 6.201 A 1.259 1.259 0 0 0 9.316 6.223 A 1.429 1.429 0 0 0 10.042 6.025 A 1.335 1.335 0 0 0 10.337 5.797 A 1.108 1.108 0 0 0 10.538 5.511 Z M 28.578 5.511 L 28.578 4.535 L 27.94 4.535 Q 26.446 4.535 26.446 5.41 Q 26.446 5.792 26.701 6.007 A 0.893 0.893 0 0 0 27.115 6.201 A 1.259 1.259 0 0 0 27.356 6.223 A 1.429 1.429 0 0 0 28.081 6.025 A 1.335 1.335 0 0 0 28.377 5.797 A 1.108 1.108 0 0 0 28.578 5.511 Z M 85.847 5.511 L 85.847 4.535 L 85.21 4.535 Q 83.716 4.535 83.716 5.41 Q 83.716 5.792 83.971 6.007 A 0.893 0.893 0 0 0 84.384 6.201 A 1.259 1.259 0 0 0 84.625 6.223 A 1.429 1.429 0 0 0 85.351 6.025 A 1.335 1.335 0 0 0 85.646 5.797 A 1.108 1.108 0 0 0 85.847 5.511 Z M 119.03 5.511 L 119.03 4.535 L 118.393 4.535 Q 116.899 4.535 116.899 5.41 Q 116.899 5.792 117.154 6.007 A 0.893 0.893 0 0 0 117.567 6.201 A 1.259 1.259 0 0 0 117.809 6.223 A 1.429 1.429 0 0 0 118.534 6.025 A 1.335 1.335 0 0 0 118.829 5.797 A 1.108 1.108 0 0 0 119.03 5.511 Z M 163.037 5.511 L 163.037 4.535 L 162.4 4.535 Q 160.906 4.535 160.906 5.41 Q 160.906 5.792 161.161 6.007 A 0.893 0.893 0 0 0 161.574 6.201 A 1.259 1.259 0 0 0 161.815 6.223 A 1.429 1.429 0 0 0 162.541 6.025 A 1.335 1.335 0 0 0 162.836 5.797 A 1.108 1.108 0 0 0 163.037 5.511 Z M 39.186 4.03 L 41.568 4.03 L 41.568 3.968 Q 41.542 3.509 41.371 3.204 A 1.13 1.13 0 0 0 41.234 3.008 A 0.983 0.983 0 0 0 40.579 2.676 A 1.39 1.39 0 0 0 40.425 2.667 A 1.106 1.106 0 0 0 39.903 2.79 A 1.14 1.14 0 0 0 39.599 3.026 A 1.417 1.417 0 0 0 39.322 3.472 Q 39.249 3.656 39.209 3.878 A 2.741 2.741 0 0 0 39.186 4.03 Z M 64.248 4.03 L 66.63 4.03 L 66.63 3.968 Q 66.604 3.509 66.433 3.204 A 1.13 1.13 0 0 0 66.296 3.008 A 0.983 0.983 0 0 0 65.641 2.676 A 1.39 1.39 0 0 0 65.487 2.667 A 1.106 1.106 0 0 0 64.965 2.79 A 1.14 1.14 0 0 0 64.661 3.026 A 1.417 1.417 0 0 0 64.384 3.472 Q 64.311 3.656 64.271 3.878 A 2.741 2.741 0 0 0 64.248 4.03 Z M 132.583 4.03 L 134.965 4.03 L 134.965 3.968 Q 134.939 3.509 134.768 3.204 A 1.13 1.13 0 0 0 134.631 3.008 A 0.983 0.983 0 0 0 133.976 2.676 A 1.39 1.39 0 0 0 133.822 2.667 A 1.106 1.106 0 0 0 133.3 2.79 A 1.14 1.14 0 0 0 132.996 3.026 A 1.417 1.417 0 0 0 132.719 3.472 Q 132.646 3.656 132.606 3.878 A 2.741 2.741 0 0 0 132.583 4.03 Z M 12.63 0.826 Q 12.63 0.628 12.751 0.492 Q 12.863 0.366 13.074 0.357 A 0.783 0.783 0 0 1 13.109 0.356 Q 13.346 0.356 13.469 0.492 A 0.474 0.474 0 0 1 13.592 0.796 A 0.614 0.614 0 0 1 13.592 0.826 A 0.523 0.523 0 0 1 13.567 0.992 A 0.442 0.442 0 0 1 13.469 1.156 Q 13.357 1.276 13.149 1.287 A 0.803 0.803 0 0 1 13.109 1.288 Q 12.937 1.288 12.826 1.218 A 0.362 0.362 0 0 1 12.751 1.156 A 0.456 0.456 0 0 1 12.632 0.88 A 0.605 0.605 0 0 1 12.63 0.826 Z M 76.399 0.826 Q 76.399 0.628 76.52 0.492 Q 76.632 0.366 76.843 0.357 A 0.783 0.783 0 0 1 76.878 0.356 Q 77.115 0.356 77.238 0.492 A 0.474 0.474 0 0 1 77.361 0.796 A 0.614 0.614 0 0 1 77.361 0.826 A 0.523 0.523 0 0 1 77.336 0.992 A 0.442 0.442 0 0 1 77.238 1.156 Q 77.126 1.276 76.918 1.287 A 0.803 0.803 0 0 1 76.878 1.288 Q 76.706 1.288 76.595 1.218 A 0.362 0.362 0 0 1 76.52 1.156 A 0.456 0.456 0 0 1 76.401 0.88 A 0.605 0.605 0 0 1 76.399 0.826 Z M 90.879 0.826 Q 90.879 0.628 91 0.492 Q 91.112 0.366 91.323 0.357 A 0.783 0.783 0 0 1 91.358 0.356 Q 91.595 0.356 91.718 0.492 A 0.474 0.474 0 0 1 91.841 0.796 A 0.614 0.614 0 0 1 91.841 0.826 A 0.523 0.523 0 0 1 91.816 0.992 A 0.442 0.442 0 0 1 91.718 1.156 Q 91.606 1.276 91.398 1.287 A 0.803 0.803 0 0 1 91.358 1.288 Q 91.186 1.288 91.075 1.218 A 0.362 0.362 0 0 1 91 1.156 A 0.456 0.456 0 0 1 90.881 0.88 A 0.605 0.605 0 0 1 90.879 0.826 Z" vector-effect="non-scaling-stroke"/></g>
</svg>