<?xml version="1.0" encoding="UTF-8"?>
<svg width="48px" height="48px" viewBox="0 0 48 48" version="1.1" xmlns="http://www.w3.org/2000/svg" xmlns:xlink="http://www.w3.org/1999/xlink">
    <title>Icon-Resource/Compute/Res_Amazon-EC2_Mac_48_Dark</title>
    <g id="Icon-Resource/Compute/Res_Amazon-EC2_Mac_48" stroke="none" stroke-width="1" fill="none" fill-rule="evenodd">
        <path transform="translate(12.000000, 8.000000), scale(.65)" d="M9,39 L39,39 L39,9 L9,9 L9,39 Z M41,13 L41,17 L46,17 L46,19 L41,19 L41,23 L46,23 L46,25 L41,25 L41,29 L46,29 L46,31 L41,31 L41,35 L46,35 L46,37 L41,37 L41,40 C41,40.552 40.552,41 40,41 L37,41 L37,46 L35,46 L35,41 L31,41 L31,46 L29,46 L29,41 L25,41 L25,46 L23,46 L23,41 L19,41 L19,46 L17,46 L17,41 L13,41 L13,46 L11,46 L11,41 L8,41 C7.448,41 7,40.552 7,40 L7,37 L2,37 L2,35 L7,35 L7,31 L2,31 L2,29 L7,29 L7,25 L2,25 L2,23 L7,23 L7,19 L2,19 L2,17 L7,17 L7,13 L2,13 L2,11 L7,11 L7,8 C7,7.448 7.448,7 8,7 L11,7 L11,2 L13,2 L13,7 L17,7 L17,2 L19,2 L19,7 L23,7 L23,2 L25,2 L25,7 L29,7 L29,2 L31,2 L31,7 L35,7 L35,2 L37,2 L37,7 L40,7 C40.552,7 41,7.448 41,8 L41,11 L46,11 L46,13 L41,13 Z M34.127,27.883 C34.892,27.883 35.55,27.738 36.101,27.449 L36.101,26.287 C35.503,26.474 34.953,26.567 34.449,26.567 C33.749,26.567 33.233,26.38 32.902,26.007 C32.571,25.634 32.405,25.055 32.405,24.271 L32.405,24.089 C32.405,23.296 32.571,22.71 32.902,22.332 C33.233,21.954 33.749,21.765 34.449,21.765 C34.888,21.765 35.419,21.854 36.045,22.031 L36.045,20.869 C35.485,20.589 34.864,20.449 34.183,20.449 C33.091,20.449 32.242,20.78 31.635,21.443 C31.028,22.106 30.725,23.034 30.725,24.229 C30.725,25.396 31.019,26.296 31.607,26.931 C32.195,27.566 33.035,27.883 34.127,27.883 L34.127,27.883 Z M27.841,24.747 C27.359,24.645 26.931,24.593 26.558,24.593 C25.612,24.593 25.139,24.971 25.139,25.727 C25.139,26.054 25.229,26.308 25.412,26.49 C25.594,26.672 25.844,26.763 26.163,26.763 C26.426,26.763 26.704,26.705 26.995,26.588 C27.286,26.471 27.568,26.306 27.841,26.091 L27.841,24.747 Z M27.841,23.767 L27.841,22.941 C27.841,22.465 27.738,22.134 27.533,21.947 C27.328,21.76 26.968,21.667 26.455,21.667 C25.727,21.667 24.892,21.821 23.949,22.129 L23.949,20.967 C24.3,20.79 24.73,20.65 25.239,20.547 C25.747,20.444 26.258,20.393 26.771,20.393 C27.702,20.393 28.388,20.58 28.83,20.953 C29.272,21.326 29.493,21.91 29.493,22.703 L29.493,27.729 L28.051,27.729 L27.925,27.043 C27.598,27.323 27.236,27.542 26.84,27.701 C26.443,27.859 26.049,27.939 25.657,27.939 C25.003,27.939 24.474,27.743 24.068,27.351 C23.662,26.959 23.459,26.45 23.459,25.825 C23.459,25.134 23.708,24.584 24.208,24.173 C24.707,23.762 25.377,23.557 26.217,23.557 C26.711,23.557 27.253,23.627 27.841,23.767 L27.841,23.767 Z M13.995,27.729 L12.427,27.729 L12.427,18.027 L14.331,18.027 L17.243,23.809 L20.211,18.027 L22.059,18.027 L22.059,27.729 L20.491,27.729 L20.491,20.463 L17.971,25.293 L16.431,25.293 L13.995,20.491 L13.995,27.729 Z" id="Fill-1" fill="#000000"></path>
    </g><g transform="translate(25, 83)" id="svgGroup" stroke-linecap="round" fill-rule="evenodd" font-size="9pt" stroke="#000" stroke-width="0.25mm" fill="#000" style="stroke:#000;stroke-width:0.25mm;fill:#000"><path d="M 18.255 0.088 L 19.345 0.088 L 21.437 5.309 L 23.528 0.088 L 24.623 0.088 L 24.623 6.486 L 23.779 6.486 L 23.779 3.995 L 23.858 1.305 L 21.757 6.486 L 21.111 6.486 L 19.015 1.318 L 19.099 3.995 L 19.099 6.486 L 18.255 6.486 L 18.255 0.088 Z M 3.617 2.839 L 3.617 3.529 L 0.844 3.529 L 0.844 5.796 L 4.065 5.796 L 4.065 6.486 L 0 6.486 L 0 0.088 L 4.021 0.088 L 4.021 0.782 L 0.844 0.782 L 0.844 2.839 L 3.617 2.839 Z M 8.974 4.456 L 9.822 4.456 A 3.016 3.016 0 0 1 9.661 5.152 A 2.099 2.099 0 0 1 9.073 6.023 Q 8.442 6.574 7.396 6.574 A 2.553 2.553 0 0 1 6.527 6.432 A 2.194 2.194 0 0 1 5.579 5.761 A 2.789 2.789 0 0 1 5.017 4.638 Q 4.911 4.22 4.897 3.728 A 5.262 5.262 0 0 1 4.896 3.586 L 4.896 2.971 A 4.251 4.251 0 0 1 4.966 2.182 A 3.229 3.229 0 0 1 5.214 1.402 A 2.539 2.539 0 0 1 5.67 0.726 A 2.26 2.26 0 0 1 6.117 0.363 A 2.415 2.415 0 0 1 7.143 0.017 A 3.027 3.027 0 0 1 7.471 0 A 2.962 2.962 0 0 1 8.177 0.08 A 2.065 2.065 0 0 1 9.105 0.569 A 2.16 2.16 0 0 1 9.7 1.531 A 3.086 3.086 0 0 1 9.822 2.145 L 8.974 2.145 Q 8.905 1.666 8.735 1.352 A 1.223 1.223 0 0 0 8.497 1.037 A 1.207 1.207 0 0 0 7.992 0.76 Q 7.804 0.707 7.581 0.697 A 2.396 2.396 0 0 0 7.471 0.694 A 1.753 1.753 0 0 0 6.892 0.786 A 1.463 1.463 0 0 0 6.203 1.292 A 1.989 1.989 0 0 0 5.889 1.912 Q 5.744 2.372 5.744 2.993 L 5.744 3.612 Q 5.744 4.654 6.179 5.269 A 1.38 1.38 0 0 0 7.177 5.872 A 1.814 1.814 0 0 0 7.396 5.884 A 2.497 2.497 0 0 0 7.803 5.853 Q 8.023 5.817 8.199 5.738 A 1.155 1.155 0 0 0 8.475 5.566 Q 8.851 5.247 8.974 4.456 Z M 14.955 5.823 L 14.955 6.486 L 10.762 6.486 L 10.762 5.902 L 12.977 3.441 A 9.853 9.853 0 0 0 13.23 3.144 Q 13.468 2.851 13.601 2.63 A 2.159 2.159 0 0 0 13.656 2.534 Q 13.843 2.184 13.843 1.811 A 1.354 1.354 0 0 0 13.791 1.427 A 1.067 1.067 0 0 0 13.54 0.989 Q 13.236 0.668 12.731 0.668 A 1.71 1.71 0 0 0 12.346 0.709 Q 12.009 0.787 11.788 1.013 Q 11.469 1.341 11.453 1.914 A 2.18 2.18 0 0 0 11.452 1.973 L 10.639 1.973 Q 10.639 1.09 11.208 0.545 A 1.914 1.914 0 0 1 12.166 0.055 A 2.782 2.782 0 0 1 12.731 0 A 2.749 2.749 0 0 1 13.312 0.058 Q 13.69 0.14 13.975 0.337 A 1.626 1.626 0 0 1 14.142 0.468 A 1.546 1.546 0 0 1 14.65 1.501 A 2.151 2.151 0 0 1 14.66 1.714 A 1.917 1.917 0 0 1 14.519 2.402 Q 14.298 2.978 13.725 3.659 A 8.818 8.818 0 0 1 13.456 3.964 L 11.742 5.823 L 14.955 5.823 Z M 33.908 4.988 L 34.677 4.988 A 1.432 1.432 0 0 1 34.478 5.638 A 1.772 1.772 0 0 1 34.396 5.766 A 1.828 1.828 0 0 1 33.787 6.31 A 2.169 2.169 0 0 1 33.704 6.355 A 1.997 1.997 0 0 1 32.788 6.574 A 2.346 2.346 0 0 1 32.09 6.476 A 1.839 1.839 0 0 1 31.243 5.926 A 2.171 2.171 0 0 1 30.779 5.046 Q 30.669 4.645 30.669 4.153 L 30.669 4.017 A 3.24 3.24 0 0 1 30.733 3.361 A 2.57 2.57 0 0 1 30.924 2.782 A 2.008 2.008 0 0 1 31.364 2.168 A 1.892 1.892 0 0 1 31.656 1.942 A 1.943 1.943 0 0 1 32.412 1.67 A 2.529 2.529 0 0 1 32.783 1.644 A 2.196 2.196 0 0 1 33.431 1.735 A 1.786 1.786 0 0 1 34.113 2.123 A 1.693 1.693 0 0 1 34.671 3.272 A 2.239 2.239 0 0 1 34.677 3.366 L 33.908 3.366 Q 33.873 2.905 33.559 2.608 A 1.078 1.078 0 0 0 32.83 2.312 A 1.402 1.402 0 0 0 32.783 2.312 A 1.374 1.374 0 0 0 32.362 2.373 A 1.081 1.081 0 0 0 31.823 2.758 A 1.469 1.469 0 0 0 31.596 3.205 Q 31.53 3.41 31.503 3.66 A 3.514 3.514 0 0 0 31.482 4.047 L 31.482 4.201 Q 31.482 5.023 31.821 5.467 A 1.1 1.1 0 0 0 32.607 5.901 A 1.611 1.611 0 0 0 32.788 5.911 A 1.171 1.171 0 0 0 33.548 5.647 A 1.007 1.007 0 0 0 33.792 5.366 A 0.914 0.914 0 0 0 33.908 4.988 Z M 29.773 6.486 L 28.92 6.486 A 0.632 0.632 0 0 1 28.885 6.396 Q 28.854 6.298 28.829 6.146 A 3.997 3.997 0 0 1 28.806 5.985 Q 28.239 6.574 27.453 6.574 A 2.033 2.033 0 0 1 26.923 6.509 A 1.529 1.529 0 0 1 26.299 6.177 Q 25.849 5.779 25.849 5.168 Q 25.849 4.425 26.413 4.014 Q 26.978 3.604 28.002 3.604 L 28.793 3.604 L 28.793 3.23 A 1.152 1.152 0 0 0 28.757 2.935 A 0.828 0.828 0 0 0 28.538 2.551 Q 28.322 2.337 27.931 2.304 A 1.748 1.748 0 0 0 27.787 2.298 Q 27.352 2.298 27.057 2.518 Q 26.763 2.738 26.763 3.05 L 25.945 3.05 A 1.041 1.041 0 0 1 26.07 2.561 A 1.409 1.409 0 0 1 26.198 2.362 Q 26.451 2.03 26.884 1.837 A 2.249 2.249 0 0 1 27.659 1.649 A 2.669 2.669 0 0 1 27.835 1.644 A 2.65 2.65 0 0 1 28.352 1.691 Q 28.66 1.752 28.898 1.892 A 1.439 1.439 0 0 1 29.123 2.055 A 1.396 1.396 0 0 1 29.576 2.881 A 1.998 1.998 0 0 1 29.606 3.186 L 29.606 5.375 Q 29.606 5.809 29.68 6.126 A 1.707 1.707 0 0 0 29.773 6.416 L 29.773 6.486 Z M 28.793 5.155 L 28.793 4.179 L 28.156 4.179 Q 26.662 4.179 26.662 5.054 Q 26.662 5.436 26.917 5.651 A 0.893 0.893 0 0 0 27.33 5.845 A 1.259 1.259 0 0 0 27.571 5.867 A 1.429 1.429 0 0 0 28.296 5.669 A 1.335 1.335 0 0 0 28.592 5.442 A 1.108 1.108 0 0 0 28.793 5.155 Z" vector-effect="non-scaling-stroke"/></g><g transform="translate(25, 93)" id="svgGroup" stroke-linecap="round" fill-rule="evenodd" font-size="9pt" stroke="#000" stroke-width="0.25mm" fill="#000" style="stroke:#000;stroke-width:0.25mm;fill:#000"><path d="M 65.536 6.75 L 63.879 4.548 L 63.369 5.08 L 63.369 6.75 L 62.556 6.75 L 62.556 0 L 63.369 0 L 63.369 4.083 L 63.804 3.56 L 65.285 1.995 L 66.274 1.995 L 64.424 3.981 L 66.489 6.75 L 65.536 6.75 Z M 10.762 3.393 L 9.945 3.393 Q 9.945 3.059 9.661 2.817 Q 9.378 2.575 8.947 2.575 Q 8.503 2.575 8.253 2.769 A 0.653 0.653 0 0 0 8.078 2.967 Q 8.005 3.098 8.003 3.263 A 0.771 0.771 0 0 0 8.002 3.274 A 0.588 0.588 0 0 0 8.033 3.467 A 0.48 0.48 0 0 0 8.235 3.718 A 1.093 1.093 0 0 0 8.386 3.796 Q 8.55 3.868 8.805 3.937 A 6.581 6.581 0 0 0 9.077 4.003 A 6.318 6.318 0 0 1 9.485 4.108 Q 9.821 4.208 10.063 4.329 A 1.901 1.901 0 0 1 10.319 4.481 Q 10.456 4.579 10.554 4.692 A 1.06 1.06 0 0 1 10.624 4.783 A 1.024 1.024 0 0 1 10.786 5.191 A 1.388 1.388 0 0 1 10.806 5.432 Q 10.806 6.069 10.296 6.453 Q 9.814 6.817 9.06 6.837 A 3.337 3.337 0 0 1 8.974 6.838 A 2.746 2.746 0 0 1 8.439 6.788 A 2.124 2.124 0 0 1 7.963 6.636 A 1.771 1.771 0 0 1 7.529 6.358 A 1.54 1.54 0 0 1 7.275 6.071 Q 7.027 5.708 7.027 5.287 L 7.84 5.287 A 0.932 0.932 0 0 0 7.913 5.612 A 0.827 0.827 0 0 0 8.167 5.935 A 1.072 1.072 0 0 0 8.569 6.128 Q 8.724 6.167 8.905 6.173 A 2.013 2.013 0 0 0 8.974 6.174 A 1.863 1.863 0 0 0 9.269 6.152 Q 9.431 6.126 9.562 6.07 A 0.941 0.941 0 0 0 9.714 5.988 A 0.689 0.689 0 0 0 9.879 5.837 A 0.554 0.554 0 0 0 9.993 5.489 A 0.698 0.698 0 0 0 9.957 5.258 A 0.581 0.581 0 0 0 9.745 4.977 A 1.05 1.05 0 0 0 9.576 4.878 Q 9.387 4.788 9.092 4.712 A 5.392 5.392 0 0 0 8.879 4.663 A 6.342 6.342 0 0 1 8.518 4.575 Q 8.148 4.473 7.899 4.346 Q 7.6 4.194 7.43 3.994 A 1.017 1.017 0 0 1 7.363 3.907 Q 7.189 3.652 7.189 3.3 A 1.206 1.206 0 0 1 7.589 2.396 A 1.694 1.694 0 0 1 7.684 2.312 A 1.752 1.752 0 0 1 8.467 1.952 A 2.471 2.471 0 0 1 8.947 1.907 A 2.559 2.559 0 0 1 9.511 1.966 A 1.757 1.757 0 0 1 10.259 2.325 Q 10.762 2.742 10.762 3.393 Z M 2.259 1.995 L 3.028 1.995 L 3.054 2.593 Q 3.591 1.918 4.45 1.907 A 2.234 2.234 0 0 1 4.478 1.907 A 1.905 1.905 0 0 1 5.112 2.004 Q 5.953 2.3 5.996 3.506 A 3.668 3.668 0 0 1 5.999 3.608 L 5.999 6.75 L 5.186 6.75 L 5.186 3.604 A 1.837 1.837 0 0 0 5.163 3.324 Q 5.113 3.017 4.95 2.843 Q 4.764 2.645 4.411 2.606 A 1.66 1.66 0 0 0 4.232 2.597 A 1.253 1.253 0 0 0 3.818 2.664 A 1.123 1.123 0 0 0 3.538 2.808 A 1.432 1.432 0 0 0 3.072 3.362 L 3.072 6.75 L 2.259 6.75 L 2.259 1.995 Z M 19.701 1.995 L 20.47 1.995 L 20.496 2.593 Q 21.032 1.918 21.892 1.907 A 2.234 2.234 0 0 1 21.92 1.907 A 1.905 1.905 0 0 1 22.553 2.004 Q 23.395 2.3 23.438 3.506 A 3.668 3.668 0 0 1 23.44 3.608 L 23.44 6.75 L 22.627 6.75 L 22.627 3.604 A 1.837 1.837 0 0 0 22.605 3.324 Q 22.555 3.017 22.392 2.843 Q 22.206 2.645 21.853 2.606 A 1.66 1.66 0 0 0 21.674 2.597 A 1.253 1.253 0 0 0 21.259 2.664 A 1.123 1.123 0 0 0 20.979 2.808 A 1.432 1.432 0 0 0 20.514 3.362 L 20.514 6.75 L 19.701 6.75 L 19.701 1.995 Z M 27.694 5.251 L 28.463 5.251 A 1.432 1.432 0 0 1 28.264 5.901 A 1.772 1.772 0 0 1 28.182 6.029 A 1.828 1.828 0 0 1 27.573 6.574 A 2.169 2.169 0 0 1 27.49 6.618 A 1.997 1.997 0 0 1 26.574 6.838 A 2.346 2.346 0 0 1 25.876 6.739 A 1.839 1.839 0 0 1 25.029 6.19 A 2.171 2.171 0 0 1 24.565 5.31 Q 24.456 4.909 24.456 4.417 L 24.456 4.28 A 3.24 3.24 0 0 1 24.519 3.624 A 2.57 2.57 0 0 1 24.71 3.045 A 2.008 2.008 0 0 1 25.15 2.431 A 1.892 1.892 0 0 1 25.442 2.206 A 1.943 1.943 0 0 1 26.198 1.934 A 2.529 2.529 0 0 1 26.569 1.907 A 2.196 2.196 0 0 1 27.217 1.999 A 1.786 1.786 0 0 1 27.899 2.386 A 1.693 1.693 0 0 1 28.457 3.535 A 2.239 2.239 0 0 1 28.463 3.63 L 27.694 3.63 Q 27.659 3.168 27.345 2.872 A 1.078 1.078 0 0 0 26.616 2.576 A 1.402 1.402 0 0 0 26.569 2.575 A 1.374 1.374 0 0 0 26.148 2.637 A 1.081 1.081 0 0 0 25.609 3.021 A 1.469 1.469 0 0 0 25.382 3.468 Q 25.317 3.674 25.289 3.923 A 3.514 3.514 0 0 0 25.269 4.311 L 25.269 4.465 Q 25.269 5.287 25.607 5.73 A 1.1 1.1 0 0 0 26.394 6.165 A 1.611 1.611 0 0 0 26.574 6.174 A 1.171 1.171 0 0 0 27.334 5.911 A 1.007 1.007 0 0 0 27.578 5.629 A 0.914 0.914 0 0 0 27.694 5.251 Z M 18.593 6.75 L 17.741 6.75 A 0.632 0.632 0 0 1 17.705 6.66 Q 17.674 6.562 17.649 6.41 A 3.997 3.997 0 0 1 17.626 6.249 Q 17.06 6.838 16.273 6.838 A 2.033 2.033 0 0 1 15.744 6.772 A 1.529 1.529 0 0 1 15.119 6.44 Q 14.669 6.042 14.669 5.432 Q 14.669 4.689 15.234 4.278 Q 15.798 3.867 16.822 3.867 L 17.613 3.867 L 17.613 3.494 A 1.152 1.152 0 0 0 17.578 3.199 A 0.828 0.828 0 0 0 17.358 2.815 Q 17.142 2.6 16.752 2.568 A 1.748 1.748 0 0 0 16.607 2.562 Q 16.172 2.562 15.877 2.782 Q 15.583 3.001 15.583 3.313 L 14.766 3.313 A 1.041 1.041 0 0 1 14.891 2.825 A 1.409 1.409 0 0 1 15.018 2.626 Q 15.271 2.294 15.704 2.101 A 2.249 2.249 0 0 1 16.48 1.913 A 2.669 2.669 0 0 1 16.655 1.907 A 2.65 2.65 0 0 1 17.173 1.955 Q 17.48 2.016 17.719 2.156 A 1.439 1.439 0 0 1 17.943 2.318 A 1.396 1.396 0 0 1 18.396 3.144 A 1.998 1.998 0 0 1 18.426 3.45 L 18.426 5.638 Q 18.426 6.073 18.5 6.39 A 1.707 1.707 0 0 0 18.593 6.68 L 18.593 6.75 Z M 58.399 6.75 L 57.546 6.75 A 0.632 0.632 0 0 1 57.511 6.66 Q 57.48 6.562 57.455 6.41 A 3.997 3.997 0 0 1 57.432 6.249 Q 56.865 6.838 56.079 6.838 A 2.033 2.033 0 0 1 55.549 6.772 A 1.529 1.529 0 0 1 54.925 6.44 Q 54.475 6.042 54.475 5.432 Q 54.475 4.689 55.039 4.278 Q 55.604 3.867 56.628 3.867 L 57.419 3.867 L 57.419 3.494 A 1.152 1.152 0 0 0 57.383 3.199 A 0.828 0.828 0 0 0 57.164 2.815 Q 56.948 2.6 56.557 2.568 A 1.748 1.748 0 0 0 56.413 2.562 Q 55.978 2.562 55.683 2.782 Q 55.389 3.001 55.389 3.313 L 54.571 3.313 A 1.041 1.041 0 0 1 54.696 2.825 A 1.409 1.409 0 0 1 54.824 2.626 Q 55.077 2.294 55.51 2.101 A 2.249 2.249 0 0 1 56.285 1.913 A 2.669 2.669 0 0 1 56.461 1.907 A 2.65 2.65 0 0 1 56.978 1.955 Q 57.286 2.016 57.524 2.156 A 1.439 1.439 0 0 1 57.749 2.318 A 1.396 1.396 0 0 1 58.202 3.144 A 1.998 1.998 0 0 1 58.232 3.45 L 58.232 5.638 Q 58.232 6.073 58.306 6.39 A 1.707 1.707 0 0 0 58.399 6.68 L 58.399 6.75 Z M 29.171 4.504 L 29.171 4.355 A 3.17 3.17 0 0 1 29.247 3.646 A 2.581 2.581 0 0 1 29.441 3.092 A 2.191 2.191 0 0 1 29.889 2.466 A 2.033 2.033 0 0 1 30.197 2.221 Q 30.683 1.907 31.25 1.907 A 2.254 2.254 0 0 1 31.863 1.986 A 1.639 1.639 0 0 1 32.691 2.518 Q 33.205 3.129 33.205 4.267 L 33.205 4.605 L 29.984 4.605 A 2.111 2.111 0 0 0 30.055 5.114 A 1.516 1.516 0 0 0 30.395 5.741 A 1.282 1.282 0 0 0 31.329 6.173 A 1.652 1.652 0 0 0 31.395 6.174 A 1.763 1.763 0 0 0 31.723 6.145 Q 31.947 6.103 32.124 5.999 A 1.827 1.827 0 0 0 32.633 5.551 A 2.068 2.068 0 0 0 32.647 5.533 L 33.144 5.919 A 1.926 1.926 0 0 1 31.744 6.811 A 2.749 2.749 0 0 1 31.351 6.838 A 2.394 2.394 0 0 1 30.599 6.725 A 1.974 1.974 0 0 1 29.777 6.203 Q 29.171 5.568 29.171 4.504 Z M 39.722 0.352 L 39.722 4.601 L 40.61 4.601 L 40.61 5.265 L 39.722 5.265 L 39.722 6.75 L 38.905 6.75 L 38.905 5.265 L 35.991 5.265 L 35.991 4.786 L 38.856 0.352 L 39.722 0.352 Z M 50.607 6.75 L 48.836 6.75 L 48.836 0.352 L 50.643 0.352 Q 51.478 0.352 52.119 0.721 Q 52.761 1.09 53.11 1.771 A 3.19 3.19 0 0 1 53.427 2.8 A 4.073 4.073 0 0 1 53.464 3.335 L 53.464 3.744 Q 53.464 4.649 53.115 5.331 A 2.457 2.457 0 0 1 52.117 6.376 Q 51.469 6.741 50.607 6.75 Z M 45.12 2.592 A 1.544 1.544 0 0 0 45.224 2.021 A 2.226 2.226 0 0 0 45.203 1.707 A 1.566 1.566 0 0 0 44.703 0.738 A 1.754 1.754 0 0 0 43.938 0.333 A 2.443 2.443 0 0 0 43.339 0.264 A 2.539 2.539 0 0 0 42.829 0.312 A 1.767 1.767 0 0 0 41.972 0.738 Q 41.454 1.213 41.454 2.021 A 1.808 1.808 0 0 0 41.454 2.058 A 1.499 1.499 0 0 0 41.7 2.87 A 1.626 1.626 0 0 0 41.862 3.077 A 1.726 1.726 0 0 0 42.372 3.454 A 2.119 2.119 0 0 0 42.273 3.5 A 1.738 1.738 0 0 0 41.588 4.087 A 1.629 1.629 0 0 0 41.304 5.023 A 2.272 2.272 0 0 0 41.314 5.237 A 1.63 1.63 0 0 0 41.86 6.344 A 1.895 1.895 0 0 0 42.711 6.771 A 2.797 2.797 0 0 0 43.339 6.838 A 2.796 2.796 0 0 0 43.938 6.777 A 1.925 1.925 0 0 0 44.813 6.346 A 1.578 1.578 0 0 0 45.288 5.62 A 1.989 1.989 0 0 0 45.374 5.023 A 1.581 1.581 0 0 0 45.081 4.087 Q 44.789 3.674 44.288 3.458 Q 44.719 3.248 44.971 2.874 A 1.449 1.449 0 0 0 45.12 2.592 Z M 12.155 0.844 L 12.968 0.844 L 12.968 1.995 L 13.856 1.995 L 13.856 2.624 L 12.968 2.624 L 12.968 5.572 Q 12.968 5.858 13.087 6.001 Q 13.206 6.144 13.491 6.144 A 1.046 1.046 0 0 0 13.589 6.138 Q 13.691 6.129 13.831 6.101 A 4.024 4.024 0 0 0 13.878 6.091 L 13.878 6.75 A 2.463 2.463 0 0 1 13.445 6.829 A 2.157 2.157 0 0 1 13.254 6.838 Q 12.807 6.838 12.54 6.616 A 0.856 0.856 0 0 1 12.432 6.508 Q 12.205 6.238 12.164 5.78 A 2.351 2.351 0 0 1 12.155 5.572 L 12.155 2.624 L 11.29 2.624 L 11.29 1.995 L 12.155 1.995 L 12.155 0.844 Z M 61.805 1.969 L 61.805 2.725 A 2.251 2.251 0 0 0 61.562 2.698 A 2.782 2.782 0 0 0 61.405 2.694 Q 60.627 2.694 60.335 3.338 A 1.445 1.445 0 0 0 60.319 3.375 L 60.319 6.75 L 59.506 6.75 L 59.506 1.995 L 60.297 1.995 L 60.311 2.544 Q 60.691 1.938 61.373 1.909 A 1.636 1.636 0 0 1 61.444 1.907 Q 61.682 1.907 61.805 1.969 Z M 0.844 0.352 L 0.844 6.75 L 0 6.75 L 0 0.352 L 0.844 0.352 Z M 50.665 1.046 L 49.68 1.046 L 49.68 6.06 L 50.568 6.06 A 2.519 2.519 0 0 0 51.2 5.985 A 1.747 1.747 0 0 0 52.086 5.454 Q 52.545 4.94 52.616 4.059 A 4.165 4.165 0 0 0 52.629 3.727 L 52.629 3.353 Q 52.629 2.562 52.359 2.027 A 1.864 1.864 0 0 0 52.117 1.659 A 1.687 1.687 0 0 0 51.121 1.09 A 2.499 2.499 0 0 0 50.665 1.046 Z M 38.808 1.639 L 36.914 4.601 L 38.905 4.601 L 38.905 1.463 L 38.808 1.639 Z M 44.561 5.005 A 1.375 1.375 0 0 0 44.501 4.592 A 1.109 1.109 0 0 0 44.22 4.131 A 1.148 1.148 0 0 0 43.549 3.807 A 1.593 1.593 0 0 0 43.33 3.792 A 1.466 1.466 0 0 0 42.941 3.841 A 1.086 1.086 0 0 0 42.449 4.126 A 1.123 1.123 0 0 0 42.135 4.762 A 1.572 1.572 0 0 0 42.117 5.005 A 1.48 1.48 0 0 0 42.159 5.367 A 1.019 1.019 0 0 0 42.44 5.862 Q 42.746 6.158 43.279 6.173 A 2.053 2.053 0 0 0 43.339 6.174 Q 43.833 6.174 44.142 5.94 A 1.018 1.018 0 0 0 44.235 5.86 A 1.041 1.041 0 0 0 44.535 5.292 A 1.518 1.518 0 0 0 44.561 5.005 Z M 43.339 0.932 A 1.259 1.259 0 0 0 42.986 0.979 A 0.973 0.973 0 0 0 42.563 1.228 Q 42.267 1.525 42.267 2.035 A 1.325 1.325 0 0 0 42.311 2.387 A 0.994 0.994 0 0 0 42.559 2.823 A 0.974 0.974 0 0 0 43.121 3.108 A 1.382 1.382 0 0 0 43.339 3.125 A 1.279 1.279 0 0 0 43.684 3.08 A 0.952 0.952 0 0 0 44.119 2.823 A 1.018 1.018 0 0 0 44.394 2.26 A 1.426 1.426 0 0 0 44.411 2.035 A 1.282 1.282 0 0 0 44.361 1.668 A 1.013 1.013 0 0 0 44.108 1.239 Q 43.805 0.932 43.339 0.932 Z M 17.613 5.418 L 17.613 4.443 L 16.976 4.443 Q 15.482 4.443 15.482 5.317 Q 15.482 5.7 15.737 5.915 A 0.893 0.893 0 0 0 16.15 6.108 A 1.259 1.259 0 0 0 16.392 6.13 A 1.429 1.429 0 0 0 17.117 5.933 A 1.335 1.335 0 0 0 17.412 5.705 A 1.108 1.108 0 0 0 17.613 5.418 Z M 57.419 5.418 L 57.419 4.443 L 56.782 4.443 Q 55.288 4.443 55.288 5.317 Q 55.288 5.7 55.542 5.915 A 0.893 0.893 0 0 0 55.956 6.108 A 1.259 1.259 0 0 0 56.197 6.13 A 1.429 1.429 0 0 0 56.922 5.933 A 1.335 1.335 0 0 0 57.218 5.705 A 1.108 1.108 0 0 0 57.419 5.418 Z M 30.01 3.938 L 32.392 3.938 L 32.392 3.876 Q 32.366 3.417 32.195 3.111 A 1.13 1.13 0 0 0 32.058 2.916 A 0.983 0.983 0 0 0 31.404 2.584 A 1.39 1.39 0 0 0 31.25 2.575 A 1.106 1.106 0 0 0 30.727 2.698 A 1.14 1.14 0 0 0 30.423 2.933 A 1.417 1.417 0 0 0 30.147 3.379 Q 30.073 3.563 30.033 3.785 A 2.741 2.741 0 0 0 30.01 3.938 Z" vector-effect="non-scaling-stroke"/></g>
</svgversion="1.0" encoding="UTF-8"?>
<svg width="48px" height="48px" viewBox="0 0 48 48" version="1.1" xmlns="http://www.w3.org/2000/svg" xmlns:xlink="http://www.w3.org/1999/xlink">
    <title>Icon-Resource/Compute/Res_Amazon-EC2_Mac_48_Dark</title>
    <g id="Icon-Resource/Compute/Res_Amazon-EC2_Mac_48" stroke="none" stroke-width="1" fill="none" fill-rule="evenodd">
        <path transform="translate(12.000000, 8.000000), scale(.65)" d="M9,39 L39,39 L39,9 L9,9 L9,39 Z M41,13 L41,17 L46,17 L46,19 L41,19 L41,23 L46,23 L46,25 L41,25 L41,29 L46,29 L46,31 L41,31 L41,35 L46,35 L46,37 L41,37 L41,40 C41,40.552 40.552,41 40,41 L37,41 L37,46 L35,46 L35,41 L31,41 L31,46 L29,46 L29,41 L25,41 L25,46 L23,46 L23,41 L19,41 L19,46 L17,46 L17,41 L13,41 L13,46 L11,46 L11,41 L8,41 C7.448,41 7,40.552 7,40 L7,37 L2,37 L2,35 L7,35 L7,31 L2,31 L2,29 L7,29 L7,25 L2,25 L2,23 L7,23 L7,19 L2,19 L2,17 L7,17 L7,13 L2,13 L2,11 L7,11 L7,8 C7,7.448 7.448,7 8,7 L11,7 L11,2 L13,2 L13,7 L17,7 L17,2 L19,2 L19,7 L23,7 L23,2 L25,2 L25,7 L29,7 L29,2 L31,2 L31,7 L35,7 L35,2 L37,2 L37,7 L40,7 C40.552,7 41,7.448 41,8 L41,11 L46,11 L46,13 L41,13 Z M34.127,27.883 C34.892,27.883 35.55,27.738 36.101,27.449 L36.101,26.287 C35.503,26.474 34.953,26.567 34.449,26.567 C33.749,26.567 33.233,26.38 32.902,26.007 C32.571,25.634 32.405,25.055 32.405,24.271 L32.405,24.089 C32.405,23.296 32.571,22.71 32.902,22.332 C33.233,21.954 33.749,21.765 34.449,21.765 C34.888,21.765 35.419,21.854 36.045,22.031 L36.045,20.869 C35.485,20.589 34.864,20.449 34.183,20.449 C33.091,20.449 32.242,20.78 31.635,21.443 C31.028,22.106 30.725,23.034 30.725,24.229 C30.725,25.396 31.019,26.296 31.607,26.931 C32.195,27.566 33.035,27.883 34.127,27.883 L34.127,27.883 Z M27.841,24.747 C27.359,24.645 26.931,24.593 26.558,24.593 C25.612,24.593 25.139,24.971 25.139,25.727 C25.139,26.054 25.229,26.308 25.412,26.49 C25.594,26.672 25.844,26.763 26.163,26.763 C26.426,26.763 26.704,26.705 26.995,26.588 C27.286,26.471 27.568,26.306 27.841,26.091 L27.841,24.747 Z M27.841,23.767 L27.841,22.941 C27.841,22.465 27.738,22.134 27.533,21.947 C27.328,21.76 26.968,21.667 26.455,21.667 C25.727,21.667 24.892,21.821 23.949,22.129 L23.949,20.967 C24.3,20.79 24.73,20.65 25.239,20.547 C25.747,20.444 26.258,20.393 26.771,20.393 C27.702,20.393 28.388,20.58 28.83,20.953 C29.272,21.326 29.493,21.91 29.493,22.703 L29.493,27.729 L28.051,27.729 L27.925,27.043 C27.598,27.323 27.236,27.542 26.84,27.701 C26.443,27.859 26.049,27.939 25.657,27.939 C25.003,27.939 24.474,27.743 24.068,27.351 C23.662,26.959 23.459,26.45 23.459,25.825 C23.459,25.134 23.708,24.584 24.208,24.173 C24.707,23.762 25.377,23.557 26.217,23.557 C26.711,23.557 27.253,23.627 27.841,23.767 L27.841,23.767 Z M13.995,27.729 L12.427,27.729 L12.427,18.027 L14.331,18.027 L17.243,23.809 L20.211,18.027 L22.059,18.027 L22.059,27.729 L20.491,27.729 L20.491,20.463 L17.971,25.293 L16.431,25.293 L13.995,20.491 L13.995,27.729 Z" id="Fill-1" fill="#000000"></path>
    </g><g transform="translate(25, 83)" id="svgGroup" stroke-linecap="round" fill-rule="evenodd" font-size="9pt" stroke="#000" stroke-width="0.25mm" fill="#000" style="stroke:#000;stroke-width:0.25mm;fill:#000"><path d="M 18.255 0.088 L 19.345 0.088 L 21.437 5.309 L 23.528 0.088 L 24.623 0.088 L 24.623 6.486 L 23.779 6.486 L 23.779 3.995 L 23.858 1.305 L 21.757 6.486 L 21.111 6.486 L 19.015 1.318 L 19.099 3.995 L 19.099 6.486 L 18.255 6.486 L 18.255 0.088 Z M 3.617 2.839 L 3.617 3.529 L 0.844 3.529 L 0.844 5.796 L 4.065 5.796 L 4.065 6.486 L 0 6.486 L 0 0.088 L 4.021 0.088 L 4.021 0.782 L 0.844 0.782 L 0.844 2.839 L 3.617 2.839 Z M 8.974 4.456 L 9.822 4.456 A 3.016 3.016 0 0 1 9.661 5.152 A 2.099 2.099 0 0 1 9.073 6.023 Q 8.442 6.574 7.396 6.574 A 2.553 2.553 0 0 1 6.527 6.432 A 2.194 2.194 0 0 1 5.579 5.761 A 2.789 2.789 0 0 1 5.017 4.638 Q 4.911 4.22 4.897 3.728 A 5.262 5.262 0 0 1 4.896 3.586 L 4.896 2.971 A 4.251 4.251 0 0 1 4.966 2.182 A 3.229 3.229 0 0 1 5.214 1.402 A 2.539 2.539 0 0 1 5.67 0.726 A 2.26 2.26 0 0 1 6.117 0.363 A 2.415 2.415 0 0 1 7.143 0.017 A 3.027 3.027 0 0 1 7.471 0 A 2.962 2.962 0 0 1 8.177 0.08 A 2.065 2.065 0 0 1 9.105 0.569 A 2.16 2.16 0 0 1 9.7 1.531 A 3.086 3.086 0 0 1 9.822 2.145 L 8.974 2.145 Q 8.905 1.666 8.735 1.352 A 1.223 1.223 0 0 0 8.497 1.037 A 1.207 1.207 0 0 0 7.992 0.76 Q 7.804 0.707 7.581 0.697 A 2.396 2.396 0 0 0 7.471 0.694 A 1.753 1.753 0 0 0 6.892 0.786 A 1.463 1.463 0 0 0 6.203 1.292 A 1.989 1.989 0 0 0 5.889 1.912 Q 5.744 2.372 5.744 2.993 L 5.744 3.612 Q 5.744 4.654 6.179 5.269 A 1.38 1.38 0 0 0 7.177 5.872 A 1.814 1.814 0 0 0 7.396 5.884 A 2.497 2.497 0 0 0 7.803 5.853 Q 8.023 5.817 8.199 5.738 A 1.155 1.155 0 0 0 8.475 5.566 Q 8.851 5.247 8.974 4.456 Z M 14.955 5.823 L 14.955 6.486 L 10.762 6.486 L 10.762 5.902 L 12.977 3.441 A 9.853 9.853 0 0 0 13.23 3.144 Q 13.468 2.851 13.601 2.63 A 2.159 2.159 0 0 0 13.656 2.534 Q 13.843 2.184 13.843 1.811 A 1.354 1.354 0 0 0 13.791 1.427 A 1.067 1.067 0 0 0 13.54 0.989 Q 13.236 0.668 12.731 0.668 A 1.71 1.71 0 0 0 12.346 0.709 Q 12.009 0.787 11.788 1.013 Q 11.469 1.341 11.453 1.914 A 2.18 2.18 0 0 0 11.452 1.973 L 10.639 1.973 Q 10.639 1.09 11.208 0.545 A 1.914 1.914 0 0 1 12.166 0.055 A 2.782 2.782 0 0 1 12.731 0 A 2.749 2.749 0 0 1 13.312 0.058 Q 13.69 0.14 13.975 0.337 A 1.626 1.626 0 0 1 14.142 0.468 A 1.546 1.546 0 0 1 14.65 1.501 A 2.151 2.151 0 0 1 14.66 1.714 A 1.917 1.917 0 0 1 14.519 2.402 Q 14.298 2.978 13.725 3.659 A 8.818 8.818 0 0 1 13.456 3.964 L 11.742 5.823 L 14.955 5.823 Z M 33.908 4.988 L 34.677 4.988 A 1.432 1.432 0 0 1 34.478 5.638 A 1.772 1.772 0 0 1 34.396 5.766 A 1.828 1.828 0 0 1 33.787 6.31 A 2.169 2.169 0 0 1 33.704 6.355 A 1.997 1.997 0 0 1 32.788 6.574 A 2.346 2.346 0 0 1 32.09 6.476 A 1.839 1.839 0 0 1 31.243 5.926 A 2.171 2.171 0 0 1 30.779 5.046 Q 30.669 4.645 30.669 4.153 L 30.669 4.017 A 3.24 3.24 0 0 1 30.733 3.361 A 2.57 2.57 0 0 1 30.924 2.782 A 2.008 2.008 0 0 1 31.364 2.168 A 1.892 1.892 0 0 1 31.656 1.942 A 1.943 1.943 0 0 1 32.412 1.67 A 2.529 2.529 0 0 1 32.783 1.644 A 2.196 2.196 0 0 1 33.431 1.735 A 1.786 1.786 0 0 1 34.113 2.123 A 1.693 1.693 0 0 1 34.671 3.272 A 2.239 2.239 0 0 1 34.677 3.366 L 33.908 3.366 Q 33.873 2.905 33.559 2.608 A 1.078 1.078 0 0 0 32.83 2.312 A 1.402 1.402 0 0 0 32.783 2.312 A 1.374 1.374 0 0 0 32.362 2.373 A 1.081 1.081 0 0 0 31.823 2.758 A 1.469 1.469 0 0 0 31.596 3.205 Q 31.53 3.41 31.503 3.66 A 3.514 3.514 0 0 0 31.482 4.047 L 31.482 4.201 Q 31.482 5.023 31.821 5.467 A 1.1 1.1 0 0 0 32.607 5.901 A 1.611 1.611 0 0 0 32.788 5.911 A 1.171 1.171 0 0 0 33.548 5.647 A 1.007 1.007 0 0 0 33.792 5.366 A 0.914 0.914 0 0 0 33.908 4.988 Z M 29.773 6.486 L 28.92 6.486 A 0.632 0.632 0 0 1 28.885 6.396 Q 28.854 6.298 28.829 6.146 A 3.997 3.997 0 0 1 28.806 5.985 Q 28.239 6.574 27.453 6.574 A 2.033 2.033 0 0 1 26.923 6.509 A 1.529 1.529 0 0 1 26.299 6.177 Q 25.849 5.779 25.849 5.168 Q 25.849 4.425 26.413 4.014 Q 26.978 3.604 28.002 3.604 L 28.793 3.604 L 28.793 3.23 A 1.152 1.152 0 0 0 28.757 2.935 A 0.828 0.828 0 0 0 28.538 2.551 Q 28.322 2.337 27.931 2.304 A 1.748 1.748 0 0 0 27.787 2.298 Q 27.352 2.298 27.057 2.518 Q 26.763 2.738 26.763 3.05 L 25.945 3.05 A 1.041 1.041 0 0 1 26.07 2.561 A 1.409 1.409 0 0 1 26.198 2.362 Q 26.451 2.03 26.884 1.837 A 2.249 2.249 0 0 1 27.659 1.649 A 2.669 2.669 0 0 1 27.835 1.644 A 2.65 2.65 0 0 1 28.352 1.691 Q 28.66 1.752 28.898 1.892 A 1.439 1.439 0 0 1 29.123 2.055 A 1.396 1.396 0 0 1 29.576 2.881 A 1.998 1.998 0 0 1 29.606 3.186 L 29.606 5.375 Q 29.606 5.809 29.68 6.126 A 1.707 1.707 0 0 0 29.773 6.416 L 29.773 6.486 Z M 28.793 5.155 L 28.793 4.179 L 28.156 4.179 Q 26.662 4.179 26.662 5.054 Q 26.662 5.436 26.917 5.651 A 0.893 0.893 0 0 0 27.33 5.845 A 1.259 1.259 0 0 0 27.571 5.867 A 1.429 1.429 0 0 0 28.296 5.669 A 1.335 1.335 0 0 0 28.592 5.442 A 1.108 1.108 0 0 0 28.793 5.155 Z" vector-effect="non-scaling-stroke"/></g><g transform="translate(25, 93)" id="svgGroup" stroke-linecap="round" fill-rule="evenodd" font-size="9pt" stroke="#000" stroke-width="0.25mm" fill="#000" style="stroke:#000;stroke-width:0.25mm;fill:#000"><path d="M 65.536 6.75 L 63.879 4.548 L 63.369 5.08 L 63.369 6.75 L 62.556 6.75 L 62.556 0 L 63.369 0 L 63.369 4.083 L 63.804 3.56 L 65.285 1.995 L 66.274 1.995 L 64.424 3.981 L 66.489 6.75 L 65.536 6.75 Z M 10.762 3.393 L 9.945 3.393 Q 9.945 3.059 9.661 2.817 Q 9.378 2.575 8.947 2.575 Q 8.503 2.575 8.253 2.769 A 0.653 0.653 0 0 0 8.078 2.967 Q 8.005 3.098 8.003 3.263 A 0.771 0.771 0 0 0 8.002 3.274 A 0.588 0.588 0 0 0 8.033 3.467 A 0.48 0.48 0 0 0 8.235 3.718 A 1.093 1.093 0 0 0 8.386 3.796 Q 8.55 3.868 8.805 3.937 A 6.581 6.581 0 0 0 9.077 4.003 A 6.318 6.318 0 0 1 9.485 4.108 Q 9.821 4.208 10.063 4.329 A 1.901 1.901 0 0 1 10.319 4.481 Q 10.456 4.579 10.554 4.692 A 1.06 1.06 0 0 1 10.624 4.783 A 1.024 1.024 0 0 1 10.786 5.191 A 1.388 1.388 0 0 1 10.806 5.432 Q 10.806 6.069 10.296 6.453 Q 9.814 6.817 9.06 6.837 A 3.337 3.337 0 0 1 8.974 6.838 A 2.746 2.746 0 0 1 8.439 6.788 A 2.124 2.124 0 0 1 7.963 6.636 A 1.771 1.771 0 0 1 7.529 6.358 A 1.54 1.54 0 0 1 7.275 6.071 Q 7.027 5.708 7.027 5.287 L 7.84 5.287 A 0.932 0.932 0 0 0 7.913 5.612 A 0.827 0.827 0 0 0 8.167 5.935 A 1.072 1.072 0 0 0 8.569 6.128 Q 8.724 6.167 8.905 6.173 A 2.013 2.013 0 0 0 8.974 6.174 A 1.863 1.863 0 0 0 9.269 6.152 Q 9.431 6.126 9.562 6.07 A 0.941 0.941 0 0 0 9.714 5.988 A 0.689 0.689 0 0 0 9.879 5.837 A 0.554 0.554 0 0 0 9.993 5.489 A 0.698 0.698 0 0 0 9.957 5.258 A 0.581 0.581 0 0 0 9.745 4.977 A 1.05 1.05 0 0 0 9.576 4.878 Q 9.387 4.788 9.092 4.712 A 5.392 5.392 0 0 0 8.879 4.663 A 6.342 6.342 0 0 1 8.518 4.575 Q 8.148 4.473 7.899 4.346 Q 7.6 4.194 7.43 3.994 A 1.017 1.017 0 0 1 7.363 3.907 Q 7.189 3.652 7.189 3.3 A 1.206 1.206 0 0 1 7.589 2.396 A 1.694 1.694 0 0 1 7.684 2.312 A 1.752 1.752 0 0 1 8.467 1.952 A 2.471 2.471 0 0 1 8.947 1.907 A 2.559 2.559 0 0 1 9.511 1.966 A 1.757 1.757 0 0 1 10.259 2.325 Q 10.762 2.742 10.762 3.393 Z M 2.259 1.995 L 3.028 1.995 L 3.054 2.593 Q 3.591 1.918 4.45 1.907 A 2.234 2.234 0 0 1 4.478 1.907 A 1.905 1.905 0 0 1 5.112 2.004 Q 5.953 2.3 5.996 3.506 A 3.668 3.668 0 0 1 5.999 3.608 L 5.999 6.75 L 5.186 6.75 L 5.186 3.604 A 1.837 1.837 0 0 0 5.163 3.324 Q 5.113 3.017 4.95 2.843 Q 4.764 2.645 4.411 2.606 A 1.66 1.66 0 0 0 4.232 2.597 A 1.253 1.253 0 0 0 3.818 2.664 A 1.123 1.123 0 0 0 3.538 2.808 A 1.432 1.432 0 0 0 3.072 3.362 L 3.072 6.75 L 2.259 6.75 L 2.259 1.995 Z M 19.701 1.995 L 20.47 1.995 L 20.496 2.593 Q 21.032 1.918 21.892 1.907 A 2.234 2.234 0 0 1 21.92 1.907 A 1.905 1.905 0 0 1 22.553 2.004 Q 23.395 2.3 23.438 3.506 A 3.668 3.668 0 0 1 23.44 3.608 L 23.44 6.75 L 22.627 6.75 L 22.627 3.604 A 1.837 1.837 0 0 0 22.605 3.324 Q 22.555 3.017 22.392 2.843 Q 22.206 2.645 21.853 2.606 A 1.66 1.66 0 0 0 21.674 2.597 A 1.253 1.253 0 0 0 21.259 2.664 A 1.123 1.123 0 0 0 20.979 2.808 A 1.432 1.432 0 0 0 20.514 3.362 L 20.514 6.75 L 19.701 6.75 L 19.701 1.995 Z M 27.694 5.251 L 28.463 5.251 A 1.432 1.432 0 0 1 28.264 5.901 A 1.772 1.772 0 0 1 28.182 6.029 A 1.828 1.828 0 0 1 27.573 6.574 A 2.169 2.169 0 0 1 27.49 6.618 A 1.997 1.997 0 0 1 26.574 6.838 A 2.346 2.346 0 0 1 25.876 6.739 A 1.839 1.839 0 0 1 25.029 6.19 A 2.171 2.171 0 0 1 24.565 5.31 Q 24.456 4.909 24.456 4.417 L 24.456 4.28 A 3.24 3.24 0 0 1 24.519 3.624 A 2.57 2.57 0 0 1 24.71 3.045 A 2.008 2.008 0 0 1 25.15 2.431 A 1.892 1.892 0 0 1 25.442 2.206 A 1.943 1.943 0 0 1 26.198 1.934 A 2.529 2.529 0 0 1 26.569 1.907 A 2.196 2.196 0 0 1 27.217 1.999 A 1.786 1.786 0 0 1 27.899 2.386 A 1.693 1.693 0 0 1 28.457 3.535 A 2.239 2.239 0 0 1 28.463 3.63 L 27.694 3.63 Q 27.659 3.168 27.345 2.872 A 1.078 1.078 0 0 0 26.616 2.576 A 1.402 1.402 0 0 0 26.569 2.575 A 1.374 1.374 0 0 0 26.148 2.637 A 1.081 1.081 0 0 0 25.609 3.021 A 1.469 1.469 0 0 0 25.382 3.468 Q 25.317 3.674 25.289 3.923 A 3.514 3.514 0 0 0 25.269 4.311 L 25.269 4.465 Q 25.269 5.287 25.607 5.73 A 1.1 1.1 0 0 0 26.394 6.165 A 1.611 1.611 0 0 0 26.574 6.174 A 1.171 1.171 0 0 0 27.334 5.911 A 1.007 1.007 0 0 0 27.578 5.629 A 0.914 0.914 0 0 0 27.694 5.251 Z M 18.593 6.75 L 17.741 6.75 A 0.632 0.632 0 0 1 17.705 6.66 Q 17.674 6.562 17.649 6.41 A 3.997 3.997 0 0 1 17.626 6.249 Q 17.06 6.838 16.273 6.838 A 2.033 2.033 0 0 1 15.744 6.772 A 1.529 1.529 0 0 1 15.119 6.44 Q 14.669 6.042 14.669 5.432 Q 14.669 4.689 15.234 4.278 Q 15.798 3.867 16.822 3.867 L 17.613 3.867 L 17.613 3.494 A 1.152 1.152 0 0 0 17.578 3.199 A 0.828 0.828 0 0 0 17.358 2.815 Q 17.142 2.6 16.752 2.568 A 1.748 1.748 0 0 0 16.607 2.562 Q 16.172 2.562 15.877 2.782 Q 15.583 3.001 15.583 3.313 L 14.766 3.313 A 1.041 1.041 0 0 1 14.891 2.825 A 1.409 1.409 0 0 1 15.018 2.626 Q 15.271 2.294 15.704 2.101 A 2.249 2.249 0 0 1 16.48 1.913 A 2.669 2.669 0 0 1 16.655 1.907 A 2.65 2.65 0 0 1 17.173 1.955 Q 17.48 2.016 17.719 2.156 A 1.439 1.439 0 0 1 17.943 2.318 A 1.396 1.396 0 0 1 18.396 3.144 A 1.998 1.998 0 0 1 18.426 3.45 L 18.426 5.638 Q 18.426 6.073 18.5 6.39 A 1.707 1.707 0 0 0 18.593 6.68 L 18.593 6.75 Z M 58.399 6.75 L 57.546 6.75 A 0.632 0.632 0 0 1 57.511 6.66 Q 57.48 6.562 57.455 6.41 A 3.997 3.997 0 0 1 57.432 6.249 Q 56.865 6.838 56.079 6.838 A 2.033 2.033 0 0 1 55.549 6.772 A 1.529 1.529 0 0 1 54.925 6.44 Q 54.475 6.042 54.475 5.432 Q 54.475 4.689 55.039 4.278 Q 55.604 3.867 56.628 3.867 L 57.419 3.867 L 57.419 3.494 A 1.152 1.152 0 0 0 57.383 3.199 A 0.828 0.828 0 0 0 57.164 2.815 Q 56.948 2.6 56.557 2.568 A 1.748 1.748 0 0 0 56.413 2.562 Q 55.978 2.562 55.683 2.782 Q 55.389 3.001 55.389 3.313 L 54.571 3.313 A 1.041 1.041 0 0 1 54.696 2.825 A 1.409 1.409 0 0 1 54.824 2.626 Q 55.077 2.294 55.51 2.101 A 2.249 2.249 0 0 1 56.285 1.913 A 2.669 2.669 0 0 1 56.461 1.907 A 2.65 2.65 0 0 1 56.978 1.955 Q 57.286 2.016 57.524 2.156 A 1.439 1.439 0 0 1 57.749 2.318 A 1.396 1.396 0 0 1 58.202 3.144 A 1.998 1.998 0 0 1 58.232 3.45 L 58.232 5.638 Q 58.232 6.073 58.306 6.39 A 1.707 1.707 0 0 0 58.399 6.68 L 58.399 6.75 Z M 29.171 4.504 L 29.171 4.355 A 3.17 3.17 0 0 1 29.247 3.646 A 2.581 2.581 0 0 1 29.441 3.092 A 2.191 2.191 0 0 1 29.889 2.466 A 2.033 2.033 0 0 1 30.197 2.221 Q 30.683 1.907 31.25 1.907 A 2.254 2.254 0 0 1 31.863 1.986 A 1.639 1.639 0 0 1 32.691 2.518 Q 33.205 3.129 33.205 4.267 L 33.205 4.605 L 29.984 4.605 A 2.111 2.111 0 0 0 30.055 5.114 A 1.516 1.516 0 0 0 30.395 5.741 A 1.282 1.282 0 0 0 31.329 6.173 A 1.652 1.652 0 0 0 31.395 6.174 A 1.763 1.763 0 0 0 31.723 6.145 Q 31.947 6.103 32.124 5.999 A 1.827 1.827 0 0 0 32.633 5.551 A 2.068 2.068 0 0 0 32.647 5.533 L 33.144 5.919 A 1.926 1.926 0 0 1 31.744 6.811 A 2.749 2.749 0 0 1 31.351 6.838 A 2.394 2.394 0 0 1 30.599 6.725 A 1.974 1.974 0 0 1 29.777 6.203 Q 29.171 5.568 29.171 4.504 Z M 39.722 0.352 L 39.722 4.601 L 40.61 4.601 L 40.61 5.265 L 39.722 5.265 L 39.722 6.75 L 38.905 6.75 L 38.905 5.265 L 35.991 5.265 L 35.991 4.786 L 38.856 0.352 L 39.722 0.352 Z M 50.607 6.75 L 48.836 6.75 L 48.836 0.352 L 50.643 0.352 Q 51.478 0.352 52.119 0.721 Q 52.761 1.09 53.11 1.771 A 3.19 3.19 0 0 1 53.427 2.8 A 4.073 4.073 0 0 1 53.464 3.335 L 53.464 3.744 Q 53.464 4.649 53.115 5.331 A 2.457 2.457 0 0 1 52.117 6.376 Q 51.469 6.741 50.607 6.75 Z M 45.12 2.592 A 1.544 1.544 0 0 0 45.224 2.021 A 2.226 2.226 0 0 0 45.203 1.707 A 1.566 1.566 0 0 0 44.703 0.738 A 1.754 1.754 0 0 0 43.938 0.333 A 2.443 2.443 0 0 0 43.339 0.264 A 2.539 2.539 0 0 0 42.829 0.312 A 1.767 1.767 0 0 0 41.972 0.738 Q 41.454 1.213 41.454 2.021 A 1.808 1.808 0 0 0 41.454 2.058 A 1.499 1.499 0 0 0 41.7 2.87 A 1.626 1.626 0 0 0 41.862 3.077 A 1.726 1.726 0 0 0 42.372 3.454 A 2.119 2.119 0 0 0 42.273 3.5 A 1.738 1.738 0 0 0 41.588 4.087 A 1.629 1.629 0 0 0 41.304 5.023 A 2.272 2.272 0 0 0 41.314 5.237 A 1.63 1.63 0 0 0 41.86 6.344 A 1.895 1.895 0 0 0 42.711 6.771 A 2.797 2.797 0 0 0 43.339 6.838 A 2.796 2.796 0 0 0 43.938 6.777 A 1.925 1.925 0 0 0 44.813 6.346 A 1.578 1.578 0 0 0 45.288 5.62 A 1.989 1.989 0 0 0 45.374 5.023 A 1.581 1.581 0 0 0 45.081 4.087 Q 44.789 3.674 44.288 3.458 Q 44.719 3.248 44.971 2.874 A 1.449 1.449 0 0 0 45.12 2.592 Z M 12.155 0.844 L 12.968 0.844 L 12.968 1.995 L 13.856 1.995 L 13.856 2.624 L 12.968 2.624 L 12.968 5.572 Q 12.968 5.858 13.087 6.001 Q 13.206 6.144 13.491 6.144 A 1.046 1.046 0 0 0 13.589 6.138 Q 13.691 6.129 13.831 6.101 A 4.024 4.024 0 0 0 13.878 6.091 L 13.878 6.75 A 2.463 2.463 0 0 1 13.445 6.829 A 2.157 2.157 0 0 1 13.254 6.838 Q 12.807 6.838 12.54 6.616 A 0.856 0.856 0 0 1 12.432 6.508 Q 12.205 6.238 12.164 5.78 A 2.351 2.351 0 0 1 12.155 5.572 L 12.155 2.624 L 11.29 2.624 L 11.29 1.995 L 12.155 1.995 L 12.155 0.844 Z M 61.805 1.969 L 61.805 2.725 A 2.251 2.251 0 0 0 61.562 2.698 A 2.782 2.782 0 0 0 61.405 2.694 Q 60.627 2.694 60.335 3.338 A 1.445 1.445 0 0 0 60.319 3.375 L 60.319 6.75 L 59.506 6.75 L 59.506 1.995 L 60.297 1.995 L 60.311 2.544 Q 60.691 1.938 61.373 1.909 A 1.636 1.636 0 0 1 61.444 1.907 Q 61.682 1.907 61.805 1.969 Z M 0.844 0.352 L 0.844 6.75 L 0 6.75 L 0 0.352 L 0.844 0.352 Z M 50.665 1.046 L 49.68 1.046 L 49.68 6.06 L 50.568 6.06 A 2.519 2.519 0 0 0 51.2 5.985 A 1.747 1.747 0 0 0 52.086 5.454 Q 52.545 4.94 52.616 4.059 A 4.165 4.165 0 0 0 52.629 3.727 L 52.629 3.353 Q 52.629 2.562 52.359 2.027 A 1.864 1.864 0 0 0 52.117 1.659 A 1.687 1.687 0 0 0 51.121 1.09 A 2.499 2.499 0 0 0 50.665 1.046 Z M 38.808 1.639 L 36.914 4.601 L 38.905 4.601 L 38.905 1.463 L 38.808 1.639 Z M 44.561 5.005 A 1.375 1.375 0 0 0 44.501 4.592 A 1.109 1.109 0 0 0 44.22 4.131 A 1.148 1.148 0 0 0 43.549 3.807 A 1.593 1.593 0 0 0 43.33 3.792 A 1.466 1.466 0 0 0 42.941 3.841 A 1.086 1.086 0 0 0 42.449 4.126 A 1.123 1.123 0 0 0 42.135 4.762 A 1.572 1.572 0 0 0 42.117 5.005 A 1.48 1.48 0 0 0 42.159 5.367 A 1.019 1.019 0 0 0 42.44 5.862 Q 42.746 6.158 43.279 6.173 A 2.053 2.053 0 0 0 43.339 6.174 Q 43.833 6.174 44.142 5.94 A 1.018 1.018 0 0 0 44.235 5.86 A 1.041 1.041 0 0 0 44.535 5.292 A 1.518 1.518 0 0 0 44.561 5.005 Z M 43.339 0.932 A 1.259 1.259 0 0 0 42.986 0.979 A 0.973 0.973 0 0 0 42.563 1.228 Q 42.267 1.525 42.267 2.035 A 1.325 1.325 0 0 0 42.311 2.387 A 0.994 0.994 0 0 0 42.559 2.823 A 0.974 0.974 0 0 0 43.121 3.108 A 1.382 1.382 0 0 0 43.339 3.125 A 1.279 1.279 0 0 0 43.684 3.08 A 0.952 0.952 0 0 0 44.119 2.823 A 1.018 1.018 0 0 0 44.394 2.26 A 1.426 1.426 0 0 0 44.411 2.035 A 1.282 1.282 0 0 0 44.361 1.668 A 1.013 1.013 0 0 0 44.108 1.239 Q 43.805 0.932 43.339 0.932 Z M 17.613 5.418 L 17.613 4.443 L 16.976 4.443 Q 15.482 4.443 15.482 5.317 Q 15.482 5.7 15.737 5.915 A 0.893 0.893 0 0 0 16.15 6.108 A 1.259 1.259 0 0 0 16.392 6.13 A 1.429 1.429 0 0 0 17.117 5.933 A 1.335 1.335 0 0 0 17.412 5.705 A 1.108 1.108 0 0 0 17.613 5.418 Z M 57.419 5.418 L 57.419 4.443 L 56.782 4.443 Q 55.288 4.443 55.288 5.317 Q 55.288 5.7 55.542 5.915 A 0.893 0.893 0 0 0 55.956 6.108 A 1.259 1.259 0 0 0 56.197 6.13 A 1.429 1.429 0 0 0 56.922 5.933 A 1.335 1.335 0 0 0 57.218 5.705 A 1.108 1.108 0 0 0 57.419 5.418 Z M 30.01 3.938 L 32.392 3.938 L 32.392 3.876 Q 32.366 3.417 32.195 3.111 A 1.13 1.13 0 0 0 32.058 2.916 A 0.983 0.983 0 0 0 31.404 2.584 A 1.39 1.39 0 0 0 31.25 2.575 A 1.106 1.106 0 0 0 30.727 2.698 A 1.14 1.14 0 0 0 30.423 2.933 A 1.417 1.417 0 0 0 30.147 3.379 Q 30.073 3.563 30.033 3.785 A 2.741 2.741 0 0 0 30.01 3.938 Z" vector-effect="non-scaling-stroke"/></g>
</svg>