<?xml version="1.0" encoding="UTF-8"?>
<svg width="48px" height="48px" viewBox="0 0 48 48" version="1.1" xmlns="http://www.w3.org/2000/svg" xmlns:xlink="http://www.w3.org/1999/xlink">
    <title>Icon-Resource/Analytics/Res_Amazon-DataZone_Data-Projects_48_Dark</title>
    <g id="Icon-Resource/Analytics/Res_Amazon-DataZone_Data-Projects_48" stroke="none" stroke-width="1" fill="none" fill-rule="evenodd">
        <path transform="translate(12.000000, 8.000000), scale(.65)" d="M21,16 L35,16 L35,14 L21,14 L21,16 Z M21,11 L31,11 L31,9 L21,9 L21,11 Z M38,28 L38,35 L35,35 L35,21 L33,21 L33,35 L30,35 L30,24 L28,24 L28,35 L26,35 L26,37 L42,37 L42,35 L40,35 L40,28 L38,28 Z M19.66,33.03 C18.982,32.61 18.205,32.389 17.413,32.389 C15.309,32.389 13.543,33.937 13.104,36 L21.72,36 C21.456,34.772 20.716,33.685 19.66,33.03 L19.66,33.03 Z M15.334,28.19 C15.334,29.336 16.267,30.27 17.413,30.27 C18.56,30.27 19.492,29.336 19.492,28.19 C19.492,27.043 18.56,26.111 17.413,26.111 C16.267,26.111 15.334,27.043 15.334,28.19 L15.334,28.19 Z M21.492,28.19 C21.492,29.327 21.022,30.355 20.269,31.096 C20.418,31.172 20.57,31.241 20.713,31.33 C22.634,32.52 23.826,34.692 23.826,37 C23.826,37.552 23.379,38 22.826,38 L12,38 C11.447,38 11,37.552 11,37 C11,34.415 12.45,32.178 14.552,31.092 C13.802,30.351 13.334,29.325 13.334,28.19 C13.334,25.941 15.164,24.111 17.413,24.111 C19.662,24.111 21.492,25.941 21.492,28.19 L21.492,28.19 Z M6.334,23.731 C6.334,24.878 7.267,25.811 8.413,25.811 C9.56,25.811 10.492,24.878 10.492,23.731 C10.492,22.585 9.56,21.652 8.413,21.652 C7.267,21.652 6.334,22.585 6.334,23.731 L6.334,23.731 Z M10,34 L3,34 C2.447,34 2,33.552 2,33 C2,30.274 3.609,27.929 5.899,26.919 C4.953,26.171 4.334,25.028 4.334,23.731 C4.334,21.482 6.164,19.652 8.413,19.652 C10.662,19.652 12.492,21.482 12.492,23.731 C12.492,25.027 11.873,26.171 10.928,26.918 C11.198,27.037 11.46,27.174 11.713,27.33 L10.66,29.03 C9.982,28.61 9.205,28.389 8.413,28.389 C6.309,28.389 4.543,29.937 4.104,32 L10,32 L10,34 Z M38,10 L42.586,10 L38,5.414 L38,10 Z M46,11 L46,40 C46,41.122 45.121,42 44,42 L18,42 L18,40 L44,40 L44,12 L37,12 C36.447,12 36,11.552 36,11 L36,4 L18.037,4 L18,22 L16,22 L16,4 C16,2.897 16.914,2 18.037,2 L37,2 C37.266,2 37.52,2.105 37.707,2.293 L45.707,10.293 C45.895,10.48 46,10.735 46,11 L46,11 Z M12,40 L10,40 L10,44 C10,45.103 10.914,46 12.037,46 L37.963,46 L37.963,44 L12,44 L12,40 Z M12,18 L10,18 L10,7 C10,5.897 10.914,5 12.037,5 L14,5 L14,7 L12.037,7 L12,18 Z" id="Fill-1" fill="#000000"></path>
    </g><g transform="translate(25, 83)" id="svgGroup" stroke-linecap="round" fill-rule="evenodd" font-size="9pt" stroke="#000" stroke-width="0.25mm" fill="#000" style="stroke:#000;stroke-width:0.25mm;fill:#000"><path d="M 22.786 0.62 L 19.266 5.709 L 22.926 5.709 L 22.926 6.399 L 18.268 6.399 L 18.268 5.766 L 21.775 0.694 L 18.325 0.694 L 18.325 0 L 22.786 0 L 22.786 0.62 Z M 28.934 1.644 L 29.703 1.644 L 29.729 2.241 Q 30.265 1.567 31.125 1.556 A 2.234 2.234 0 0 1 31.153 1.556 A 1.905 1.905 0 0 1 31.786 1.652 Q 32.628 1.949 32.671 3.154 A 3.668 3.668 0 0 1 32.673 3.256 L 32.673 6.399 L 31.86 6.399 L 31.86 3.252 A 1.837 1.837 0 0 0 31.838 2.972 Q 31.788 2.665 31.625 2.492 Q 31.439 2.293 31.086 2.255 A 1.66 1.66 0 0 0 30.907 2.246 A 1.253 1.253 0 0 0 30.492 2.312 A 1.123 1.123 0 0 0 30.212 2.457 A 1.432 1.432 0 0 0 29.747 3.01 L 29.747 6.399 L 28.934 6.399 L 28.934 1.644 Z M 9.563 6.399 L 8.71 6.399 A 0.632 0.632 0 0 1 8.674 6.308 Q 8.643 6.21 8.618 6.058 A 3.997 3.997 0 0 1 8.596 5.898 Q 8.029 6.486 7.242 6.486 A 2.033 2.033 0 0 1 6.713 6.421 A 1.529 1.529 0 0 1 6.089 6.089 Q 5.638 5.691 5.638 5.08 Q 5.638 4.337 6.203 3.927 Q 6.768 3.516 7.792 3.516 L 8.583 3.516 L 8.583 3.142 A 1.152 1.152 0 0 0 8.547 2.847 A 0.828 0.828 0 0 0 8.328 2.463 Q 8.111 2.249 7.721 2.216 A 1.748 1.748 0 0 0 7.576 2.211 Q 7.141 2.211 6.847 2.43 Q 6.552 2.65 6.552 2.962 L 5.735 2.962 A 1.041 1.041 0 0 1 5.86 2.473 A 1.409 1.409 0 0 1 5.988 2.274 Q 6.24 1.942 6.673 1.749 A 2.249 2.249 0 0 1 7.449 1.561 A 2.669 2.669 0 0 1 7.625 1.556 A 2.65 2.65 0 0 1 8.142 1.603 Q 8.449 1.664 8.688 1.805 A 1.439 1.439 0 0 1 8.912 1.967 A 1.396 1.396 0 0 1 9.365 2.793 A 1.998 1.998 0 0 1 9.396 3.098 L 9.396 5.287 Q 9.396 5.722 9.469 6.038 A 1.707 1.707 0 0 0 9.563 6.328 L 9.563 6.399 Z M 17.398 6.399 L 16.545 6.399 A 0.632 0.632 0 0 1 16.51 6.308 Q 16.479 6.21 16.454 6.058 A 3.997 3.997 0 0 1 16.431 5.898 Q 15.864 6.486 15.078 6.486 A 2.033 2.033 0 0 1 14.548 6.421 A 1.529 1.529 0 0 1 13.924 6.089 Q 13.474 5.691 13.474 5.08 Q 13.474 4.337 14.038 3.927 Q 14.603 3.516 15.627 3.516 L 16.418 3.516 L 16.418 3.142 A 1.152 1.152 0 0 0 16.382 2.847 A 0.828 0.828 0 0 0 16.163 2.463 Q 15.947 2.249 15.556 2.216 A 1.748 1.748 0 0 0 15.412 2.211 Q 14.977 2.211 14.682 2.43 Q 14.388 2.65 14.388 2.962 L 13.57 2.962 A 1.041 1.041 0 0 1 13.695 2.473 A 1.409 1.409 0 0 1 13.823 2.274 Q 14.076 1.942 14.509 1.749 A 2.249 2.249 0 0 1 15.284 1.561 A 2.669 2.669 0 0 1 15.46 1.556 A 2.65 2.65 0 0 1 15.977 1.603 Q 16.285 1.664 16.523 1.805 A 1.439 1.439 0 0 1 16.748 1.967 A 1.396 1.396 0 0 1 17.201 2.793 A 1.998 1.998 0 0 1 17.231 3.098 L 17.231 5.287 Q 17.231 5.722 17.305 6.038 A 1.707 1.707 0 0 0 17.398 6.328 L 17.398 6.399 Z M 50.585 6.399 L 49.733 6.399 A 0.632 0.632 0 0 1 49.697 6.308 Q 49.666 6.21 49.641 6.058 A 3.997 3.997 0 0 1 49.619 5.898 Q 49.052 6.486 48.265 6.486 A 2.033 2.033 0 0 1 47.736 6.421 A 1.529 1.529 0 0 1 47.112 6.089 Q 46.661 5.691 46.661 5.08 Q 46.661 4.337 47.226 3.927 Q 47.791 3.516 48.814 3.516 L 49.605 3.516 L 49.605 3.142 A 1.152 1.152 0 0 0 49.57 2.847 A 0.828 0.828 0 0 0 49.351 2.463 Q 49.134 2.249 48.744 2.216 A 1.748 1.748 0 0 0 48.599 2.211 Q 48.164 2.211 47.87 2.43 Q 47.575 2.65 47.575 2.962 L 46.758 2.962 A 1.041 1.041 0 0 1 46.883 2.473 A 1.409 1.409 0 0 1 47.01 2.274 Q 47.263 1.942 47.696 1.749 A 2.249 2.249 0 0 1 48.472 1.561 A 2.669 2.669 0 0 1 48.647 1.556 A 2.65 2.65 0 0 1 49.165 1.603 Q 49.472 1.664 49.711 1.805 A 1.439 1.439 0 0 1 49.935 1.967 A 1.396 1.396 0 0 1 50.388 2.793 A 1.998 1.998 0 0 1 50.418 3.098 L 50.418 5.287 Q 50.418 5.722 50.492 6.038 A 1.707 1.707 0 0 0 50.585 6.328 L 50.585 6.399 Z M 58.421 6.399 L 57.568 6.399 A 0.632 0.632 0 0 1 57.533 6.308 Q 57.502 6.21 57.477 6.058 A 3.997 3.997 0 0 1 57.454 5.898 Q 56.887 6.486 56.101 6.486 A 2.033 2.033 0 0 1 55.571 6.421 A 1.529 1.529 0 0 1 54.947 6.089 Q 54.497 5.691 54.497 5.08 Q 54.497 4.337 55.061 3.927 Q 55.626 3.516 56.65 3.516 L 57.441 3.516 L 57.441 3.142 A 1.152 1.152 0 0 0 57.405 2.847 A 0.828 0.828 0 0 0 57.186 2.463 Q 56.97 2.249 56.579 2.216 A 1.748 1.748 0 0 0 56.435 2.211 Q 56 2.211 55.705 2.43 Q 55.411 2.65 55.411 2.962 L 54.593 2.962 A 1.041 1.041 0 0 1 54.718 2.473 A 1.409 1.409 0 0 1 54.846 2.274 Q 55.099 1.942 55.531 1.749 A 2.249 2.249 0 0 1 56.307 1.561 A 2.669 2.669 0 0 1 56.483 1.556 A 2.65 2.65 0 0 1 57 1.603 Q 57.308 1.664 57.546 1.805 A 1.439 1.439 0 0 1 57.771 1.967 A 1.396 1.396 0 0 1 58.224 2.793 A 1.998 1.998 0 0 1 58.254 3.098 L 58.254 5.287 Q 58.254 5.722 58.328 6.038 A 1.707 1.707 0 0 0 58.421 6.328 L 58.421 6.399 Z M 33.693 4.153 L 33.693 4.003 A 3.17 3.17 0 0 1 33.769 3.295 A 2.581 2.581 0 0 1 33.963 2.74 A 2.191 2.191 0 0 1 34.411 2.115 A 2.033 2.033 0 0 1 34.719 1.87 Q 35.205 1.556 35.771 1.556 A 2.254 2.254 0 0 1 36.385 1.635 A 1.639 1.639 0 0 1 37.213 2.167 Q 37.727 2.777 37.727 3.916 L 37.727 4.254 L 34.506 4.254 A 2.111 2.111 0 0 0 34.577 4.762 A 1.516 1.516 0 0 0 34.917 5.39 A 1.282 1.282 0 0 0 35.851 5.822 A 1.652 1.652 0 0 0 35.917 5.823 A 1.763 1.763 0 0 0 36.245 5.794 Q 36.469 5.751 36.646 5.647 A 1.827 1.827 0 0 0 37.155 5.199 A 2.068 2.068 0 0 0 37.169 5.181 L 37.666 5.568 A 1.926 1.926 0 0 1 36.266 6.459 A 2.749 2.749 0 0 1 35.873 6.486 A 2.394 2.394 0 0 1 35.121 6.374 A 1.974 1.974 0 0 1 34.299 5.851 Q 33.693 5.216 33.693 4.153 Z M 1.771 6.399 L 0 6.399 L 0 0 L 1.806 0 Q 2.641 0 3.283 0.369 Q 3.924 0.738 4.274 1.42 A 3.19 3.19 0 0 1 4.591 2.448 A 4.073 4.073 0 0 1 4.627 2.984 L 4.627 3.393 Q 4.627 4.298 4.278 4.979 A 2.457 2.457 0 0 1 3.281 6.025 Q 2.632 6.39 1.771 6.399 Z M 42.794 6.399 L 41.023 6.399 L 41.023 0 L 42.829 0 Q 43.664 0 44.306 0.369 Q 44.947 0.738 45.297 1.42 A 3.19 3.19 0 0 1 45.614 2.448 A 4.073 4.073 0 0 1 45.65 2.984 L 45.65 3.393 Q 45.65 4.298 45.301 4.979 A 2.457 2.457 0 0 1 44.303 6.025 Q 43.655 6.39 42.794 6.399 Z M 10.96 0.492 L 11.773 0.492 L 11.773 1.644 L 12.661 1.644 L 12.661 2.272 L 11.773 2.272 L 11.773 5.221 Q 11.773 5.506 11.892 5.649 Q 12.01 5.792 12.296 5.792 A 1.046 1.046 0 0 0 12.393 5.787 Q 12.496 5.777 12.636 5.749 A 4.024 4.024 0 0 0 12.683 5.739 L 12.683 6.399 A 2.463 2.463 0 0 1 12.25 6.478 A 2.157 2.157 0 0 1 12.059 6.486 Q 11.611 6.486 11.345 6.265 A 0.856 0.856 0 0 1 11.237 6.157 Q 11.009 5.886 10.969 5.429 A 2.351 2.351 0 0 1 10.96 5.221 L 10.96 2.272 L 10.094 2.272 L 10.094 1.644 L 10.96 1.644 L 10.96 0.492 Z M 51.983 0.492 L 52.796 0.492 L 52.796 1.644 L 53.684 1.644 L 53.684 2.272 L 52.796 2.272 L 52.796 5.221 Q 52.796 5.506 52.915 5.649 Q 53.033 5.792 53.319 5.792 A 1.046 1.046 0 0 0 53.416 5.787 Q 53.519 5.777 53.659 5.749 A 4.024 4.024 0 0 0 53.706 5.739 L 53.706 6.399 A 2.463 2.463 0 0 1 53.273 6.478 A 2.157 2.157 0 0 1 53.082 6.486 Q 52.634 6.486 52.368 6.265 A 0.856 0.856 0 0 1 52.26 6.157 Q 52.032 5.886 51.992 5.429 A 2.351 2.351 0 0 1 51.983 5.221 L 51.983 2.272 L 51.117 2.272 L 51.117 1.644 L 51.983 1.644 L 51.983 0.492 Z M 23.585 4.034 L 23.585 3.977 A 3.057 3.057 0 0 1 23.672 3.236 A 2.573 2.573 0 0 1 23.86 2.72 A 2.16 2.16 0 0 1 24.275 2.135 A 1.957 1.957 0 0 1 24.625 1.859 A 2.036 2.036 0 0 1 25.569 1.562 A 2.491 2.491 0 0 1 25.743 1.556 A 2.277 2.277 0 0 1 26.497 1.675 A 1.937 1.937 0 0 1 27.314 2.228 A 2.29 2.29 0 0 1 27.833 3.257 A 3.373 3.373 0 0 1 27.914 4.017 L 27.914 4.074 A 3.114 3.114 0 0 1 27.835 4.791 A 2.577 2.577 0 0 1 27.648 5.32 A 2.056 2.056 0 0 1 27.121 6.01 A 2.001 2.001 0 0 1 26.888 6.179 A 2.045 2.045 0 0 1 25.968 6.477 A 2.529 2.529 0 0 1 25.752 6.486 A 2.262 2.262 0 0 1 25.002 6.367 A 1.938 1.938 0 0 1 24.185 5.814 A 2.297 2.297 0 0 1 23.66 4.759 A 3.357 3.357 0 0 1 23.585 4.034 Z M 1.828 0.694 L 0.844 0.694 L 0.844 5.709 L 1.731 5.709 A 2.519 2.519 0 0 0 2.364 5.634 A 1.747 1.747 0 0 0 3.25 5.102 Q 3.709 4.589 3.78 3.708 A 4.165 4.165 0 0 0 3.792 3.375 L 3.792 3.002 Q 3.792 2.211 3.523 1.675 A 1.864 1.864 0 0 0 3.281 1.307 A 1.687 1.687 0 0 0 2.285 0.739 A 2.499 2.499 0 0 0 1.828 0.694 Z M 42.851 0.694 L 41.867 0.694 L 41.867 5.709 L 42.754 5.709 A 2.519 2.519 0 0 0 43.387 5.634 A 1.747 1.747 0 0 0 44.273 5.102 Q 44.732 4.589 44.803 3.708 A 4.165 4.165 0 0 0 44.815 3.375 L 44.815 3.002 Q 44.815 2.211 44.546 1.675 A 1.864 1.864 0 0 0 44.303 1.307 A 1.687 1.687 0 0 0 43.308 0.739 A 2.499 2.499 0 0 0 42.851 0.694 Z M 24.403 4.074 A 2.772 2.772 0 0 0 24.45 4.602 Q 24.511 4.913 24.648 5.158 A 1.545 1.545 0 0 0 24.77 5.344 Q 25.137 5.823 25.752 5.823 A 1.269 1.269 0 0 0 26.241 5.732 Q 26.521 5.616 26.723 5.354 A 1.471 1.471 0 0 0 26.736 5.337 A 1.648 1.648 0 0 0 26.991 4.82 Q 27.06 4.593 27.086 4.321 A 3.655 3.655 0 0 0 27.101 3.977 A 2.687 2.687 0 0 0 27.05 3.437 Q 26.982 3.107 26.825 2.849 A 1.586 1.586 0 0 0 26.73 2.709 A 1.231 1.231 0 0 0 26.315 2.354 Q 26.062 2.224 25.743 2.224 Q 25.153 2.224 24.787 2.684 A 1.515 1.515 0 0 0 24.772 2.703 A 1.589 1.589 0 0 0 24.52 3.2 Q 24.45 3.421 24.422 3.687 A 3.676 3.676 0 0 0 24.403 4.074 Z M 8.583 5.067 L 8.583 4.091 L 7.945 4.091 Q 6.451 4.091 6.451 4.966 Q 6.451 5.348 6.706 5.564 A 0.893 0.893 0 0 0 7.12 5.757 A 1.259 1.259 0 0 0 7.361 5.779 A 1.429 1.429 0 0 0 8.086 5.581 A 1.335 1.335 0 0 0 8.381 5.354 A 1.108 1.108 0 0 0 8.583 5.067 Z M 16.418 5.067 L 16.418 4.091 L 15.781 4.091 Q 14.287 4.091 14.287 4.966 Q 14.287 5.348 14.542 5.564 A 0.893 0.893 0 0 0 14.955 5.757 A 1.259 1.259 0 0 0 15.196 5.779 A 1.429 1.429 0 0 0 15.921 5.581 A 1.335 1.335 0 0 0 16.217 5.354 A 1.108 1.108 0 0 0 16.418 5.067 Z M 49.605 5.067 L 49.605 4.091 L 48.968 4.091 Q 47.474 4.091 47.474 4.966 Q 47.474 5.348 47.729 5.564 A 0.893 0.893 0 0 0 48.142 5.757 A 1.259 1.259 0 0 0 48.384 5.779 A 1.429 1.429 0 0 0 49.109 5.581 A 1.335 1.335 0 0 0 49.404 5.354 A 1.108 1.108 0 0 0 49.605 5.067 Z M 57.441 5.067 L 57.441 4.091 L 56.804 4.091 Q 55.31 4.091 55.31 4.966 Q 55.31 5.348 55.564 5.564 A 0.893 0.893 0 0 0 55.978 5.757 A 1.259 1.259 0 0 0 56.219 5.779 A 1.429 1.429 0 0 0 56.944 5.581 A 1.335 1.335 0 0 0 57.24 5.354 A 1.108 1.108 0 0 0 57.441 5.067 Z M 34.532 3.586 L 36.914 3.586 L 36.914 3.524 Q 36.888 3.066 36.717 2.76 A 1.13 1.13 0 0 0 36.58 2.564 A 0.983 0.983 0 0 0 35.926 2.232 A 1.39 1.39 0 0 0 35.771 2.224 A 1.106 1.106 0 0 0 35.249 2.347 A 1.14 1.14 0 0 0 34.945 2.582 A 1.417 1.417 0 0 0 34.669 3.028 Q 34.595 3.212 34.555 3.434 A 2.741 2.741 0 0 0 34.532 3.586 Z" vector-effect="non-scaling-stroke"/></g><g transform="translate(25, 93)" id="svgGroup" stroke-linecap="round" fill-rule="evenodd" font-size="9pt" stroke="#000" stroke-width="0.25mm" fill="#000" style="stroke:#000;stroke-width:0.25mm;fill:#000"><path d="M 64.239 6.75 L 62.583 4.548 L 62.073 5.08 L 62.073 6.75 L 61.26 6.75 L 61.26 0 L 62.073 0 L 62.073 4.083 L 62.508 3.56 L 63.989 1.995 L 64.978 1.995 L 63.127 3.981 L 65.193 6.75 L 64.239 6.75 Z M 31.746 3.393 L 30.929 3.393 Q 30.929 3.059 30.645 2.817 Q 30.362 2.575 29.931 2.575 Q 29.487 2.575 29.237 2.769 A 0.653 0.653 0 0 0 29.062 2.967 Q 28.989 3.098 28.986 3.263 A 0.771 0.771 0 0 0 28.986 3.274 A 0.588 0.588 0 0 0 29.016 3.467 A 0.48 0.48 0 0 0 29.219 3.718 A 1.093 1.093 0 0 0 29.369 3.796 Q 29.534 3.868 29.789 3.937 A 6.581 6.581 0 0 0 30.061 4.003 A 6.318 6.318 0 0 1 30.468 4.108 Q 30.805 4.208 31.047 4.329 A 1.901 1.901 0 0 1 31.303 4.481 Q 31.44 4.579 31.538 4.692 A 1.06 1.06 0 0 1 31.608 4.783 A 1.024 1.024 0 0 1 31.77 5.191 A 1.388 1.388 0 0 1 31.79 5.432 Q 31.79 6.069 31.28 6.453 Q 30.798 6.817 30.044 6.837 A 3.337 3.337 0 0 1 29.958 6.838 A 2.746 2.746 0 0 1 29.423 6.788 A 2.124 2.124 0 0 1 28.947 6.636 A 1.771 1.771 0 0 1 28.513 6.358 A 1.54 1.54 0 0 1 28.259 6.071 Q 28.011 5.708 28.011 5.287 L 28.824 5.287 A 0.932 0.932 0 0 0 28.897 5.612 A 0.827 0.827 0 0 0 29.151 5.935 A 1.072 1.072 0 0 0 29.553 6.128 Q 29.708 6.167 29.889 6.173 A 2.013 2.013 0 0 0 29.958 6.174 A 1.863 1.863 0 0 0 30.253 6.152 Q 30.415 6.126 30.546 6.07 A 0.941 0.941 0 0 0 30.698 5.988 A 0.689 0.689 0 0 0 30.863 5.837 A 0.554 0.554 0 0 0 30.977 5.489 A 0.698 0.698 0 0 0 30.941 5.258 A 0.581 0.581 0 0 0 30.729 4.977 A 1.05 1.05 0 0 0 30.56 4.878 Q 30.371 4.788 30.076 4.712 A 5.392 5.392 0 0 0 29.863 4.663 A 6.342 6.342 0 0 1 29.502 4.575 Q 29.132 4.473 28.883 4.346 Q 28.584 4.194 28.414 3.994 A 1.017 1.017 0 0 1 28.347 3.907 Q 28.173 3.652 28.173 3.3 A 1.206 1.206 0 0 1 28.572 2.396 A 1.694 1.694 0 0 1 28.668 2.312 A 1.752 1.752 0 0 1 29.451 1.952 A 2.471 2.471 0 0 1 29.931 1.907 A 2.559 2.559 0 0 1 30.495 1.966 A 1.757 1.757 0 0 1 31.243 2.325 Q 31.746 2.742 31.746 3.393 Z M 23.585 5.251 L 24.354 5.251 A 1.432 1.432 0 0 1 24.155 5.901 A 1.772 1.772 0 0 1 24.073 6.029 A 1.828 1.828 0 0 1 23.464 6.574 A 2.169 2.169 0 0 1 23.381 6.618 A 1.997 1.997 0 0 1 22.465 6.838 A 2.346 2.346 0 0 1 21.768 6.739 A 1.839 1.839 0 0 1 20.92 6.19 A 2.171 2.171 0 0 1 20.456 5.31 Q 20.347 4.909 20.347 4.417 L 20.347 4.28 A 3.24 3.24 0 0 1 20.41 3.624 A 2.57 2.57 0 0 1 20.602 3.045 A 2.008 2.008 0 0 1 21.041 2.431 A 1.892 1.892 0 0 1 21.333 2.206 A 1.943 1.943 0 0 1 22.09 1.934 A 2.529 2.529 0 0 1 22.46 1.907 A 2.196 2.196 0 0 1 23.109 1.999 A 1.786 1.786 0 0 1 23.79 2.386 A 1.693 1.693 0 0 1 24.348 3.535 A 2.239 2.239 0 0 1 24.354 3.63 L 23.585 3.63 Q 23.55 3.168 23.236 2.872 A 1.078 1.078 0 0 0 22.507 2.576 A 1.402 1.402 0 0 0 22.46 2.575 A 1.374 1.374 0 0 0 22.039 2.637 A 1.081 1.081 0 0 0 21.5 3.021 A 1.469 1.469 0 0 0 21.273 3.468 Q 21.208 3.674 21.18 3.923 A 3.514 3.514 0 0 0 21.16 4.311 L 21.16 4.465 Q 21.16 5.287 21.498 5.73 A 1.1 1.1 0 0 0 22.285 6.165 A 1.611 1.611 0 0 0 22.465 6.174 A 1.171 1.171 0 0 0 23.225 5.911 A 1.007 1.007 0 0 0 23.469 5.629 A 0.914 0.914 0 0 0 23.585 5.251 Z M 57.103 6.75 L 56.25 6.75 A 0.632 0.632 0 0 1 56.215 6.66 Q 56.183 6.562 56.158 6.41 A 3.997 3.997 0 0 1 56.136 6.249 Q 55.569 6.838 54.782 6.838 A 2.033 2.033 0 0 1 54.253 6.772 A 1.529 1.529 0 0 1 53.629 6.44 Q 53.178 6.042 53.178 5.432 Q 53.178 4.689 53.743 4.278 Q 54.308 3.867 55.332 3.867 L 56.123 3.867 L 56.123 3.494 A 1.152 1.152 0 0 0 56.087 3.199 A 0.828 0.828 0 0 0 55.868 2.815 Q 55.651 2.6 55.261 2.568 A 1.748 1.748 0 0 0 55.116 2.562 Q 54.681 2.562 54.387 2.782 Q 54.092 3.001 54.092 3.313 L 53.275 3.313 A 1.041 1.041 0 0 1 53.4 2.825 A 1.409 1.409 0 0 1 53.528 2.626 Q 53.78 2.294 54.213 2.101 A 2.249 2.249 0 0 1 54.989 1.913 A 2.669 2.669 0 0 1 55.165 1.907 A 2.65 2.65 0 0 1 55.682 1.955 Q 55.989 2.016 56.228 2.156 A 1.439 1.439 0 0 1 56.452 2.318 A 1.396 1.396 0 0 1 56.905 3.144 A 1.998 1.998 0 0 1 56.936 3.45 L 56.936 5.638 Q 56.936 6.073 57.009 6.39 A 1.707 1.707 0 0 0 57.103 6.68 L 57.103 6.75 Z M 15.583 4.504 L 15.583 4.355 A 3.17 3.17 0 0 1 15.659 3.646 A 2.581 2.581 0 0 1 15.853 3.092 A 2.191 2.191 0 0 1 16.301 2.466 A 2.033 2.033 0 0 1 16.609 2.221 Q 17.095 1.907 17.662 1.907 A 2.254 2.254 0 0 1 18.275 1.986 A 1.639 1.639 0 0 1 19.103 2.518 Q 19.617 3.129 19.617 4.267 L 19.617 4.605 L 16.396 4.605 A 2.111 2.111 0 0 0 16.467 5.114 A 1.516 1.516 0 0 0 16.807 5.741 A 1.282 1.282 0 0 0 17.741 6.173 A 1.652 1.652 0 0 0 17.807 6.174 A 1.763 1.763 0 0 0 18.135 6.145 Q 18.359 6.103 18.536 5.999 A 1.827 1.827 0 0 0 19.045 5.551 A 2.068 2.068 0 0 0 19.059 5.533 L 19.556 5.919 A 1.926 1.926 0 0 1 18.156 6.811 A 2.749 2.749 0 0 1 17.763 6.838 A 2.394 2.394 0 0 1 17.011 6.725 A 1.974 1.974 0 0 1 16.189 6.203 Q 15.583 5.568 15.583 4.504 Z M 2.351 4.245 L 0.844 4.245 L 0.844 6.75 L 0 6.75 L 0 0.352 L 2.36 0.352 A 3.315 3.315 0 0 1 3.025 0.414 Q 3.427 0.497 3.738 0.688 A 1.839 1.839 0 0 1 4.006 0.888 A 1.772 1.772 0 0 1 4.593 2.105 A 2.45 2.45 0 0 1 4.601 2.307 Q 4.601 3.239 4.019 3.742 Q 3.54 4.156 2.721 4.229 A 4.14 4.14 0 0 1 2.351 4.245 Z M 38.426 0.352 L 38.426 4.601 L 39.313 4.601 L 39.313 5.265 L 38.426 5.265 L 38.426 6.75 L 37.608 6.75 L 37.608 5.265 L 34.695 5.265 L 34.695 4.786 L 37.56 0.352 L 38.426 0.352 Z M 49.311 6.75 L 47.54 6.75 L 47.54 0.352 L 49.346 0.352 Q 50.181 0.352 50.823 0.721 Q 51.464 1.09 51.814 1.771 A 3.19 3.19 0 0 1 52.131 2.8 A 4.073 4.073 0 0 1 52.167 3.335 L 52.167 3.744 Q 52.167 4.649 51.818 5.331 A 2.457 2.457 0 0 1 50.821 6.376 Q 50.172 6.741 49.311 6.75 Z M 43.824 2.592 A 1.544 1.544 0 0 0 43.928 2.021 A 2.226 2.226 0 0 0 43.906 1.707 A 1.566 1.566 0 0 0 43.407 0.738 A 1.754 1.754 0 0 0 42.641 0.333 A 2.443 2.443 0 0 0 42.042 0.264 A 2.539 2.539 0 0 0 41.533 0.312 A 1.767 1.767 0 0 0 40.676 0.738 Q 40.157 1.213 40.157 2.021 A 1.808 1.808 0 0 0 40.158 2.058 A 1.499 1.499 0 0 0 40.403 2.87 A 1.626 1.626 0 0 0 40.565 3.077 A 1.726 1.726 0 0 0 41.076 3.454 A 2.119 2.119 0 0 0 40.976 3.5 A 1.738 1.738 0 0 0 40.291 4.087 A 1.629 1.629 0 0 0 40.008 5.023 A 2.272 2.272 0 0 0 40.018 5.237 A 1.63 1.63 0 0 0 40.564 6.344 A 1.895 1.895 0 0 0 41.414 6.771 A 2.797 2.797 0 0 0 42.042 6.838 A 2.796 2.796 0 0 0 42.641 6.777 A 1.925 1.925 0 0 0 43.517 6.346 A 1.578 1.578 0 0 0 43.992 5.62 A 1.989 1.989 0 0 0 44.077 5.023 A 1.581 1.581 0 0 0 43.785 4.087 Q 43.493 3.674 42.992 3.458 Q 43.422 3.248 43.675 2.874 A 1.449 1.449 0 0 0 43.824 2.592 Z M 25.559 0.844 L 26.372 0.844 L 26.372 1.995 L 27.259 1.995 L 27.259 2.624 L 26.372 2.624 L 26.372 5.572 Q 26.372 5.858 26.49 6.001 Q 26.609 6.144 26.895 6.144 A 1.046 1.046 0 0 0 26.992 6.138 Q 27.095 6.129 27.235 6.101 A 4.024 4.024 0 0 0 27.281 6.091 L 27.281 6.75 A 2.463 2.463 0 0 1 26.848 6.829 A 2.157 2.157 0 0 1 26.657 6.838 Q 26.21 6.838 25.943 6.616 A 0.856 0.856 0 0 1 25.835 6.508 Q 25.608 6.238 25.567 5.78 A 2.351 2.351 0 0 1 25.559 5.572 L 25.559 2.624 L 24.693 2.624 L 24.693 1.995 L 25.559 1.995 L 25.559 0.844 Z M 13.667 1.995 L 14.48 1.995 L 14.48 7.299 A 2.203 2.203 0 0 1 14.425 7.817 Q 14.257 8.51 13.578 8.64 A 1.813 1.813 0 0 1 13.236 8.67 A 1.594 1.594 0 0 1 12.902 8.636 A 1.376 1.376 0 0 1 12.74 8.591 L 12.74 7.941 A 0.989 0.989 0 0 0 12.847 7.961 Q 12.903 7.969 12.968 7.972 A 2.444 2.444 0 0 0 13.109 7.976 A 0.807 0.807 0 0 0 13.27 7.961 Q 13.367 7.941 13.441 7.896 A 0.429 0.429 0 0 0 13.524 7.829 A 0.412 0.412 0 0 0 13.608 7.695 Q 13.659 7.57 13.666 7.379 A 1.721 1.721 0 0 0 13.667 7.317 L 13.667 1.995 Z M 8.292 4.386 L 8.292 4.329 A 3.057 3.057 0 0 1 8.379 3.587 A 2.573 2.573 0 0 1 8.567 3.072 A 2.16 2.16 0 0 1 8.982 2.486 A 1.957 1.957 0 0 1 9.332 2.21 A 2.036 2.036 0 0 1 10.276 1.913 A 2.491 2.491 0 0 1 10.45 1.907 A 2.277 2.277 0 0 1 11.204 2.027 A 1.937 1.937 0 0 1 12.021 2.58 A 2.29 2.29 0 0 1 12.54 3.608 A 3.373 3.373 0 0 1 12.621 4.368 L 12.621 4.425 A 3.114 3.114 0 0 1 12.542 5.142 A 2.577 2.577 0 0 1 12.355 5.671 A 2.056 2.056 0 0 1 11.828 6.361 A 2.001 2.001 0 0 1 11.595 6.53 A 2.045 2.045 0 0 1 10.675 6.829 A 2.529 2.529 0 0 1 10.459 6.838 A 2.262 2.262 0 0 1 9.709 6.718 A 1.938 1.938 0 0 1 8.892 6.166 A 2.297 2.297 0 0 1 8.367 5.111 A 3.357 3.357 0 0 1 8.292 4.386 Z M 7.849 1.969 L 7.849 2.725 A 2.251 2.251 0 0 0 7.606 2.698 A 2.782 2.782 0 0 0 7.449 2.694 Q 6.671 2.694 6.379 3.338 A 1.445 1.445 0 0 0 6.363 3.375 L 6.363 6.75 L 5.55 6.75 L 5.55 1.995 L 6.341 1.995 L 6.354 2.544 Q 6.735 1.938 7.417 1.909 A 1.636 1.636 0 0 1 7.488 1.907 Q 7.726 1.907 7.849 1.969 Z M 60.508 1.969 L 60.508 2.725 A 2.251 2.251 0 0 0 60.266 2.698 A 2.782 2.782 0 0 0 60.108 2.694 Q 59.331 2.694 59.039 3.338 A 1.445 1.445 0 0 0 59.023 3.375 L 59.023 6.75 L 58.21 6.75 L 58.21 1.995 L 59.001 1.995 L 59.014 2.544 Q 59.395 1.938 60.077 1.909 A 1.636 1.636 0 0 1 60.148 1.907 Q 60.385 1.907 60.508 1.969 Z M 49.368 1.046 L 48.384 1.046 L 48.384 6.06 L 49.271 6.06 A 2.519 2.519 0 0 0 49.904 5.985 A 1.747 1.747 0 0 0 50.79 5.454 Q 51.249 4.94 51.32 4.059 A 4.165 4.165 0 0 0 51.333 3.727 L 51.333 3.353 Q 51.333 2.562 51.063 2.027 A 1.864 1.864 0 0 0 50.821 1.659 A 1.687 1.687 0 0 0 49.825 1.09 A 2.499 2.499 0 0 0 49.368 1.046 Z M 9.11 4.425 A 2.772 2.772 0 0 0 9.157 4.954 Q 9.218 5.264 9.355 5.51 A 1.545 1.545 0 0 0 9.477 5.695 Q 9.844 6.174 10.459 6.174 A 1.269 1.269 0 0 0 10.948 6.083 Q 11.228 5.967 11.43 5.706 A 1.471 1.471 0 0 0 11.443 5.689 A 1.648 1.648 0 0 0 11.698 5.171 Q 11.767 4.945 11.793 4.672 A 3.655 3.655 0 0 0 11.808 4.329 A 2.687 2.687 0 0 0 11.757 3.789 Q 11.689 3.459 11.532 3.2 A 1.586 1.586 0 0 0 11.437 3.061 A 1.231 1.231 0 0 0 11.022 2.705 Q 10.769 2.575 10.45 2.575 Q 9.86 2.575 9.494 3.035 A 1.515 1.515 0 0 0 9.479 3.054 A 1.589 1.589 0 0 0 9.227 3.552 Q 9.157 3.772 9.129 4.039 A 3.676 3.676 0 0 0 9.11 4.425 Z M 0.844 1.046 L 0.844 3.555 L 2.36 3.555 A 2.313 2.313 0 0 0 2.752 3.524 Q 2.969 3.487 3.142 3.404 A 1.097 1.097 0 0 0 3.397 3.237 A 1.028 1.028 0 0 0 3.715 2.696 Q 3.756 2.528 3.757 2.329 A 1.996 1.996 0 0 0 3.757 2.316 A 1.466 1.466 0 0 0 3.703 1.908 A 1.112 1.112 0 0 0 3.397 1.402 Q 3.037 1.059 2.408 1.046 L 0.844 1.046 Z M 37.512 1.639 L 35.618 4.601 L 37.608 4.601 L 37.608 1.463 L 37.512 1.639 Z M 43.264 5.005 A 1.375 1.375 0 0 0 43.205 4.592 A 1.109 1.109 0 0 0 42.924 4.131 A 1.148 1.148 0 0 0 42.252 3.807 A 1.593 1.593 0 0 0 42.034 3.792 A 1.466 1.466 0 0 0 41.645 3.841 A 1.086 1.086 0 0 0 41.153 4.126 A 1.123 1.123 0 0 0 40.839 4.762 A 1.572 1.572 0 0 0 40.821 5.005 A 1.48 1.48 0 0 0 40.863 5.367 A 1.019 1.019 0 0 0 41.144 5.862 Q 41.45 6.158 41.983 6.173 A 2.053 2.053 0 0 0 42.042 6.174 Q 42.536 6.174 42.846 5.94 A 1.018 1.018 0 0 0 42.939 5.86 A 1.041 1.041 0 0 0 43.238 5.292 A 1.518 1.518 0 0 0 43.264 5.005 Z M 42.042 0.932 A 1.259 1.259 0 0 0 41.69 0.979 A 0.973 0.973 0 0 0 41.267 1.228 Q 40.97 1.525 40.97 2.035 A 1.325 1.325 0 0 0 41.015 2.387 A 0.994 0.994 0 0 0 41.262 2.823 A 0.974 0.974 0 0 0 41.825 3.108 A 1.382 1.382 0 0 0 42.042 3.125 A 1.279 1.279 0 0 0 42.387 3.08 A 0.952 0.952 0 0 0 42.823 2.823 A 1.018 1.018 0 0 0 43.098 2.26 A 1.426 1.426 0 0 0 43.115 2.035 A 1.282 1.282 0 0 0 43.065 1.668 A 1.013 1.013 0 0 0 42.812 1.239 Q 42.508 0.932 42.042 0.932 Z M 56.123 5.418 L 56.123 4.443 L 55.485 4.443 Q 53.991 4.443 53.991 5.317 Q 53.991 5.7 54.246 5.915 A 0.893 0.893 0 0 0 54.66 6.108 A 1.259 1.259 0 0 0 54.901 6.13 A 1.429 1.429 0 0 0 55.626 5.933 A 1.335 1.335 0 0 0 55.922 5.705 A 1.108 1.108 0 0 0 56.123 5.418 Z M 16.422 3.938 L 18.804 3.938 L 18.804 3.876 Q 18.778 3.417 18.608 3.111 A 1.13 1.13 0 0 0 18.47 2.916 A 0.983 0.983 0 0 0 17.816 2.584 A 1.39 1.39 0 0 0 17.662 2.575 A 1.106 1.106 0 0 0 17.139 2.698 A 1.14 1.14 0 0 0 16.835 2.933 A 1.417 1.417 0 0 0 16.559 3.379 Q 16.485 3.563 16.445 3.785 A 2.741 2.741 0 0 0 16.422 3.938 Z M 13.62 0.539 A 0.515 0.515 0 0 0 13.583 0.734 Q 13.583 0.932 13.702 1.063 Q 13.784 1.154 13.921 1.182 A 0.679 0.679 0 0 0 14.058 1.195 A 0.803 0.803 0 0 0 14.098 1.194 Q 14.306 1.184 14.418 1.063 A 0.442 0.442 0 0 0 14.516 0.9 A 0.523 0.523 0 0 0 14.542 0.734 A 0.614 0.614 0 0 0 14.541 0.703 A 0.474 0.474 0 0 0 14.418 0.4 Q 14.295 0.264 14.058 0.264 A 0.768 0.768 0 0 0 14.045 0.264 Q 13.822 0.268 13.704 0.402 A 0.482 0.482 0 0 0 13.62 0.539 Z" vector-effect="non-scaling-stroke"/></g>
</svgversion="1.0" encoding="UTF-8"?>
<svg width="48px" height="48px" viewBox="0 0 48 48" version="1.1" xmlns="http://www.w3.org/2000/svg" xmlns:xlink="http://www.w3.org/1999/xlink">
    <title>Icon-Resource/Analytics/Res_Amazon-DataZone_Data-Projects_48_Dark</title>
    <g id="Icon-Resource/Analytics/Res_Amazon-DataZone_Data-Projects_48" stroke="none" stroke-width="1" fill="none" fill-rule="evenodd">
        <path transform="translate(12.000000, 8.000000), scale(.65)" d="M21,16 L35,16 L35,14 L21,14 L21,16 Z M21,11 L31,11 L31,9 L21,9 L21,11 Z M38,28 L38,35 L35,35 L35,21 L33,21 L33,35 L30,35 L30,24 L28,24 L28,35 L26,35 L26,37 L42,37 L42,35 L40,35 L40,28 L38,28 Z M19.66,33.03 C18.982,32.61 18.205,32.389 17.413,32.389 C15.309,32.389 13.543,33.937 13.104,36 L21.72,36 C21.456,34.772 20.716,33.685 19.66,33.03 L19.66,33.03 Z M15.334,28.19 C15.334,29.336 16.267,30.27 17.413,30.27 C18.56,30.27 19.492,29.336 19.492,28.19 C19.492,27.043 18.56,26.111 17.413,26.111 C16.267,26.111 15.334,27.043 15.334,28.19 L15.334,28.19 Z M21.492,28.19 C21.492,29.327 21.022,30.355 20.269,31.096 C20.418,31.172 20.57,31.241 20.713,31.33 C22.634,32.52 23.826,34.692 23.826,37 C23.826,37.552 23.379,38 22.826,38 L12,38 C11.447,38 11,37.552 11,37 C11,34.415 12.45,32.178 14.552,31.092 C13.802,30.351 13.334,29.325 13.334,28.19 C13.334,25.941 15.164,24.111 17.413,24.111 C19.662,24.111 21.492,25.941 21.492,28.19 L21.492,28.19 Z M6.334,23.731 C6.334,24.878 7.267,25.811 8.413,25.811 C9.56,25.811 10.492,24.878 10.492,23.731 C10.492,22.585 9.56,21.652 8.413,21.652 C7.267,21.652 6.334,22.585 6.334,23.731 L6.334,23.731 Z M10,34 L3,34 C2.447,34 2,33.552 2,33 C2,30.274 3.609,27.929 5.899,26.919 C4.953,26.171 4.334,25.028 4.334,23.731 C4.334,21.482 6.164,19.652 8.413,19.652 C10.662,19.652 12.492,21.482 12.492,23.731 C12.492,25.027 11.873,26.171 10.928,26.918 C11.198,27.037 11.46,27.174 11.713,27.33 L10.66,29.03 C9.982,28.61 9.205,28.389 8.413,28.389 C6.309,28.389 4.543,29.937 4.104,32 L10,32 L10,34 Z M38,10 L42.586,10 L38,5.414 L38,10 Z M46,11 L46,40 C46,41.122 45.121,42 44,42 L18,42 L18,40 L44,40 L44,12 L37,12 C36.447,12 36,11.552 36,11 L36,4 L18.037,4 L18,22 L16,22 L16,4 C16,2.897 16.914,2 18.037,2 L37,2 C37.266,2 37.52,2.105 37.707,2.293 L45.707,10.293 C45.895,10.48 46,10.735 46,11 L46,11 Z M12,40 L10,40 L10,44 C10,45.103 10.914,46 12.037,46 L37.963,46 L37.963,44 L12,44 L12,40 Z M12,18 L10,18 L10,7 C10,5.897 10.914,5 12.037,5 L14,5 L14,7 L12.037,7 L12,18 Z" id="Fill-1" fill="#000000"></path>
    </g><g transform="translate(25, 83)" id="svgGroup" stroke-linecap="round" fill-rule="evenodd" font-size="9pt" stroke="#000" stroke-width="0.25mm" fill="#000" style="stroke:#000;stroke-width:0.25mm;fill:#000"><path d="M 22.786 0.62 L 19.266 5.709 L 22.926 5.709 L 22.926 6.399 L 18.268 6.399 L 18.268 5.766 L 21.775 0.694 L 18.325 0.694 L 18.325 0 L 22.786 0 L 22.786 0.62 Z M 28.934 1.644 L 29.703 1.644 L 29.729 2.241 Q 30.265 1.567 31.125 1.556 A 2.234 2.234 0 0 1 31.153 1.556 A 1.905 1.905 0 0 1 31.786 1.652 Q 32.628 1.949 32.671 3.154 A 3.668 3.668 0 0 1 32.673 3.256 L 32.673 6.399 L 31.86 6.399 L 31.86 3.252 A 1.837 1.837 0 0 0 31.838 2.972 Q 31.788 2.665 31.625 2.492 Q 31.439 2.293 31.086 2.255 A 1.66 1.66 0 0 0 30.907 2.246 A 1.253 1.253 0 0 0 30.492 2.312 A 1.123 1.123 0 0 0 30.212 2.457 A 1.432 1.432 0 0 0 29.747 3.01 L 29.747 6.399 L 28.934 6.399 L 28.934 1.644 Z M 9.563 6.399 L 8.71 6.399 A 0.632 0.632 0 0 1 8.674 6.308 Q 8.643 6.21 8.618 6.058 A 3.997 3.997 0 0 1 8.596 5.898 Q 8.029 6.486 7.242 6.486 A 2.033 2.033 0 0 1 6.713 6.421 A 1.529 1.529 0 0 1 6.089 6.089 Q 5.638 5.691 5.638 5.08 Q 5.638 4.337 6.203 3.927 Q 6.768 3.516 7.792 3.516 L 8.583 3.516 L 8.583 3.142 A 1.152 1.152 0 0 0 8.547 2.847 A 0.828 0.828 0 0 0 8.328 2.463 Q 8.111 2.249 7.721 2.216 A 1.748 1.748 0 0 0 7.576 2.211 Q 7.141 2.211 6.847 2.43 Q 6.552 2.65 6.552 2.962 L 5.735 2.962 A 1.041 1.041 0 0 1 5.86 2.473 A 1.409 1.409 0 0 1 5.988 2.274 Q 6.24 1.942 6.673 1.749 A 2.249 2.249 0 0 1 7.449 1.561 A 2.669 2.669 0 0 1 7.625 1.556 A 2.65 2.65 0 0 1 8.142 1.603 Q 8.449 1.664 8.688 1.805 A 1.439 1.439 0 0 1 8.912 1.967 A 1.396 1.396 0 0 1 9.365 2.793 A 1.998 1.998 0 0 1 9.396 3.098 L 9.396 5.287 Q 9.396 5.722 9.469 6.038 A 1.707 1.707 0 0 0 9.563 6.328 L 9.563 6.399 Z M 17.398 6.399 L 16.545 6.399 A 0.632 0.632 0 0 1 16.51 6.308 Q 16.479 6.21 16.454 6.058 A 3.997 3.997 0 0 1 16.431 5.898 Q 15.864 6.486 15.078 6.486 A 2.033 2.033 0 0 1 14.548 6.421 A 1.529 1.529 0 0 1 13.924 6.089 Q 13.474 5.691 13.474 5.08 Q 13.474 4.337 14.038 3.927 Q 14.603 3.516 15.627 3.516 L 16.418 3.516 L 16.418 3.142 A 1.152 1.152 0 0 0 16.382 2.847 A 0.828 0.828 0 0 0 16.163 2.463 Q 15.947 2.249 15.556 2.216 A 1.748 1.748 0 0 0 15.412 2.211 Q 14.977 2.211 14.682 2.43 Q 14.388 2.65 14.388 2.962 L 13.57 2.962 A 1.041 1.041 0 0 1 13.695 2.473 A 1.409 1.409 0 0 1 13.823 2.274 Q 14.076 1.942 14.509 1.749 A 2.249 2.249 0 0 1 15.284 1.561 A 2.669 2.669 0 0 1 15.46 1.556 A 2.65 2.65 0 0 1 15.977 1.603 Q 16.285 1.664 16.523 1.805 A 1.439 1.439 0 0 1 16.748 1.967 A 1.396 1.396 0 0 1 17.201 2.793 A 1.998 1.998 0 0 1 17.231 3.098 L 17.231 5.287 Q 17.231 5.722 17.305 6.038 A 1.707 1.707 0 0 0 17.398 6.328 L 17.398 6.399 Z M 50.585 6.399 L 49.733 6.399 A 0.632 0.632 0 0 1 49.697 6.308 Q 49.666 6.21 49.641 6.058 A 3.997 3.997 0 0 1 49.619 5.898 Q 49.052 6.486 48.265 6.486 A 2.033 2.033 0 0 1 47.736 6.421 A 1.529 1.529 0 0 1 47.112 6.089 Q 46.661 5.691 46.661 5.08 Q 46.661 4.337 47.226 3.927 Q 47.791 3.516 48.814 3.516 L 49.605 3.516 L 49.605 3.142 A 1.152 1.152 0 0 0 49.57 2.847 A 0.828 0.828 0 0 0 49.351 2.463 Q 49.134 2.249 48.744 2.216 A 1.748 1.748 0 0 0 48.599 2.211 Q 48.164 2.211 47.87 2.43 Q 47.575 2.65 47.575 2.962 L 46.758 2.962 A 1.041 1.041 0 0 1 46.883 2.473 A 1.409 1.409 0 0 1 47.01 2.274 Q 47.263 1.942 47.696 1.749 A 2.249 2.249 0 0 1 48.472 1.561 A 2.669 2.669 0 0 1 48.647 1.556 A 2.65 2.65 0 0 1 49.165 1.603 Q 49.472 1.664 49.711 1.805 A 1.439 1.439 0 0 1 49.935 1.967 A 1.396 1.396 0 0 1 50.388 2.793 A 1.998 1.998 0 0 1 50.418 3.098 L 50.418 5.287 Q 50.418 5.722 50.492 6.038 A 1.707 1.707 0 0 0 50.585 6.328 L 50.585 6.399 Z M 58.421 6.399 L 57.568 6.399 A 0.632 0.632 0 0 1 57.533 6.308 Q 57.502 6.21 57.477 6.058 A 3.997 3.997 0 0 1 57.454 5.898 Q 56.887 6.486 56.101 6.486 A 2.033 2.033 0 0 1 55.571 6.421 A 1.529 1.529 0 0 1 54.947 6.089 Q 54.497 5.691 54.497 5.08 Q 54.497 4.337 55.061 3.927 Q 55.626 3.516 56.65 3.516 L 57.441 3.516 L 57.441 3.142 A 1.152 1.152 0 0 0 57.405 2.847 A 0.828 0.828 0 0 0 57.186 2.463 Q 56.97 2.249 56.579 2.216 A 1.748 1.748 0 0 0 56.435 2.211 Q 56 2.211 55.705 2.43 Q 55.411 2.65 55.411 2.962 L 54.593 2.962 A 1.041 1.041 0 0 1 54.718 2.473 A 1.409 1.409 0 0 1 54.846 2.274 Q 55.099 1.942 55.531 1.749 A 2.249 2.249 0 0 1 56.307 1.561 A 2.669 2.669 0 0 1 56.483 1.556 A 2.65 2.65 0 0 1 57 1.603 Q 57.308 1.664 57.546 1.805 A 1.439 1.439 0 0 1 57.771 1.967 A 1.396 1.396 0 0 1 58.224 2.793 A 1.998 1.998 0 0 1 58.254 3.098 L 58.254 5.287 Q 58.254 5.722 58.328 6.038 A 1.707 1.707 0 0 0 58.421 6.328 L 58.421 6.399 Z M 33.693 4.153 L 33.693 4.003 A 3.17 3.17 0 0 1 33.769 3.295 A 2.581 2.581 0 0 1 33.963 2.74 A 2.191 2.191 0 0 1 34.411 2.115 A 2.033 2.033 0 0 1 34.719 1.87 Q 35.205 1.556 35.771 1.556 A 2.254 2.254 0 0 1 36.385 1.635 A 1.639 1.639 0 0 1 37.213 2.167 Q 37.727 2.777 37.727 3.916 L 37.727 4.254 L 34.506 4.254 A 2.111 2.111 0 0 0 34.577 4.762 A 1.516 1.516 0 0 0 34.917 5.39 A 1.282 1.282 0 0 0 35.851 5.822 A 1.652 1.652 0 0 0 35.917 5.823 A 1.763 1.763 0 0 0 36.245 5.794 Q 36.469 5.751 36.646 5.647 A 1.827 1.827 0 0 0 37.155 5.199 A 2.068 2.068 0 0 0 37.169 5.181 L 37.666 5.568 A 1.926 1.926 0 0 1 36.266 6.459 A 2.749 2.749 0 0 1 35.873 6.486 A 2.394 2.394 0 0 1 35.121 6.374 A 1.974 1.974 0 0 1 34.299 5.851 Q 33.693 5.216 33.693 4.153 Z M 1.771 6.399 L 0 6.399 L 0 0 L 1.806 0 Q 2.641 0 3.283 0.369 Q 3.924 0.738 4.274 1.42 A 3.19 3.19 0 0 1 4.591 2.448 A 4.073 4.073 0 0 1 4.627 2.984 L 4.627 3.393 Q 4.627 4.298 4.278 4.979 A 2.457 2.457 0 0 1 3.281 6.025 Q 2.632 6.39 1.771 6.399 Z M 42.794 6.399 L 41.023 6.399 L 41.023 0 L 42.829 0 Q 43.664 0 44.306 0.369 Q 44.947 0.738 45.297 1.42 A 3.19 3.19 0 0 1 45.614 2.448 A 4.073 4.073 0 0 1 45.65 2.984 L 45.65 3.393 Q 45.65 4.298 45.301 4.979 A 2.457 2.457 0 0 1 44.303 6.025 Q 43.655 6.39 42.794 6.399 Z M 10.96 0.492 L 11.773 0.492 L 11.773 1.644 L 12.661 1.644 L 12.661 2.272 L 11.773 2.272 L 11.773 5.221 Q 11.773 5.506 11.892 5.649 Q 12.01 5.792 12.296 5.792 A 1.046 1.046 0 0 0 12.393 5.787 Q 12.496 5.777 12.636 5.749 A 4.024 4.024 0 0 0 12.683 5.739 L 12.683 6.399 A 2.463 2.463 0 0 1 12.25 6.478 A 2.157 2.157 0 0 1 12.059 6.486 Q 11.611 6.486 11.345 6.265 A 0.856 0.856 0 0 1 11.237 6.157 Q 11.009 5.886 10.969 5.429 A 2.351 2.351 0 0 1 10.96 5.221 L 10.96 2.272 L 10.094 2.272 L 10.094 1.644 L 10.96 1.644 L 10.96 0.492 Z M 51.983 0.492 L 52.796 0.492 L 52.796 1.644 L 53.684 1.644 L 53.684 2.272 L 52.796 2.272 L 52.796 5.221 Q 52.796 5.506 52.915 5.649 Q 53.033 5.792 53.319 5.792 A 1.046 1.046 0 0 0 53.416 5.787 Q 53.519 5.777 53.659 5.749 A 4.024 4.024 0 0 0 53.706 5.739 L 53.706 6.399 A 2.463 2.463 0 0 1 53.273 6.478 A 2.157 2.157 0 0 1 53.082 6.486 Q 52.634 6.486 52.368 6.265 A 0.856 0.856 0 0 1 52.26 6.157 Q 52.032 5.886 51.992 5.429 A 2.351 2.351 0 0 1 51.983 5.221 L 51.983 2.272 L 51.117 2.272 L 51.117 1.644 L 51.983 1.644 L 51.983 0.492 Z M 23.585 4.034 L 23.585 3.977 A 3.057 3.057 0 0 1 23.672 3.236 A 2.573 2.573 0 0 1 23.86 2.72 A 2.16 2.16 0 0 1 24.275 2.135 A 1.957 1.957 0 0 1 24.625 1.859 A 2.036 2.036 0 0 1 25.569 1.562 A 2.491 2.491 0 0 1 25.743 1.556 A 2.277 2.277 0 0 1 26.497 1.675 A 1.937 1.937 0 0 1 27.314 2.228 A 2.29 2.29 0 0 1 27.833 3.257 A 3.373 3.373 0 0 1 27.914 4.017 L 27.914 4.074 A 3.114 3.114 0 0 1 27.835 4.791 A 2.577 2.577 0 0 1 27.648 5.32 A 2.056 2.056 0 0 1 27.121 6.01 A 2.001 2.001 0 0 1 26.888 6.179 A 2.045 2.045 0 0 1 25.968 6.477 A 2.529 2.529 0 0 1 25.752 6.486 A 2.262 2.262 0 0 1 25.002 6.367 A 1.938 1.938 0 0 1 24.185 5.814 A 2.297 2.297 0 0 1 23.66 4.759 A 3.357 3.357 0 0 1 23.585 4.034 Z M 1.828 0.694 L 0.844 0.694 L 0.844 5.709 L 1.731 5.709 A 2.519 2.519 0 0 0 2.364 5.634 A 1.747 1.747 0 0 0 3.25 5.102 Q 3.709 4.589 3.78 3.708 A 4.165 4.165 0 0 0 3.792 3.375 L 3.792 3.002 Q 3.792 2.211 3.523 1.675 A 1.864 1.864 0 0 0 3.281 1.307 A 1.687 1.687 0 0 0 2.285 0.739 A 2.499 2.499 0 0 0 1.828 0.694 Z M 42.851 0.694 L 41.867 0.694 L 41.867 5.709 L 42.754 5.709 A 2.519 2.519 0 0 0 43.387 5.634 A 1.747 1.747 0 0 0 44.273 5.102 Q 44.732 4.589 44.803 3.708 A 4.165 4.165 0 0 0 44.815 3.375 L 44.815 3.002 Q 44.815 2.211 44.546 1.675 A 1.864 1.864 0 0 0 44.303 1.307 A 1.687 1.687 0 0 0 43.308 0.739 A 2.499 2.499 0 0 0 42.851 0.694 Z M 24.403 4.074 A 2.772 2.772 0 0 0 24.45 4.602 Q 24.511 4.913 24.648 5.158 A 1.545 1.545 0 0 0 24.77 5.344 Q 25.137 5.823 25.752 5.823 A 1.269 1.269 0 0 0 26.241 5.732 Q 26.521 5.616 26.723 5.354 A 1.471 1.471 0 0 0 26.736 5.337 A 1.648 1.648 0 0 0 26.991 4.82 Q 27.06 4.593 27.086 4.321 A 3.655 3.655 0 0 0 27.101 3.977 A 2.687 2.687 0 0 0 27.05 3.437 Q 26.982 3.107 26.825 2.849 A 1.586 1.586 0 0 0 26.73 2.709 A 1.231 1.231 0 0 0 26.315 2.354 Q 26.062 2.224 25.743 2.224 Q 25.153 2.224 24.787 2.684 A 1.515 1.515 0 0 0 24.772 2.703 A 1.589 1.589 0 0 0 24.52 3.2 Q 24.45 3.421 24.422 3.687 A 3.676 3.676 0 0 0 24.403 4.074 Z M 8.583 5.067 L 8.583 4.091 L 7.945 4.091 Q 6.451 4.091 6.451 4.966 Q 6.451 5.348 6.706 5.564 A 0.893 0.893 0 0 0 7.12 5.757 A 1.259 1.259 0 0 0 7.361 5.779 A 1.429 1.429 0 0 0 8.086 5.581 A 1.335 1.335 0 0 0 8.381 5.354 A 1.108 1.108 0 0 0 8.583 5.067 Z M 16.418 5.067 L 16.418 4.091 L 15.781 4.091 Q 14.287 4.091 14.287 4.966 Q 14.287 5.348 14.542 5.564 A 0.893 0.893 0 0 0 14.955 5.757 A 1.259 1.259 0 0 0 15.196 5.779 A 1.429 1.429 0 0 0 15.921 5.581 A 1.335 1.335 0 0 0 16.217 5.354 A 1.108 1.108 0 0 0 16.418 5.067 Z M 49.605 5.067 L 49.605 4.091 L 48.968 4.091 Q 47.474 4.091 47.474 4.966 Q 47.474 5.348 47.729 5.564 A 0.893 0.893 0 0 0 48.142 5.757 A 1.259 1.259 0 0 0 48.384 5.779 A 1.429 1.429 0 0 0 49.109 5.581 A 1.335 1.335 0 0 0 49.404 5.354 A 1.108 1.108 0 0 0 49.605 5.067 Z M 57.441 5.067 L 57.441 4.091 L 56.804 4.091 Q 55.31 4.091 55.31 4.966 Q 55.31 5.348 55.564 5.564 A 0.893 0.893 0 0 0 55.978 5.757 A 1.259 1.259 0 0 0 56.219 5.779 A 1.429 1.429 0 0 0 56.944 5.581 A 1.335 1.335 0 0 0 57.24 5.354 A 1.108 1.108 0 0 0 57.441 5.067 Z M 34.532 3.586 L 36.914 3.586 L 36.914 3.524 Q 36.888 3.066 36.717 2.76 A 1.13 1.13 0 0 0 36.58 2.564 A 0.983 0.983 0 0 0 35.926 2.232 A 1.39 1.39 0 0 0 35.771 2.224 A 1.106 1.106 0 0 0 35.249 2.347 A 1.14 1.14 0 0 0 34.945 2.582 A 1.417 1.417 0 0 0 34.669 3.028 Q 34.595 3.212 34.555 3.434 A 2.741 2.741 0 0 0 34.532 3.586 Z" vector-effect="non-scaling-stroke"/></g><g transform="translate(25, 93)" id="svgGroup" stroke-linecap="round" fill-rule="evenodd" font-size="9pt" stroke="#000" stroke-width="0.25mm" fill="#000" style="stroke:#000;stroke-width:0.25mm;fill:#000"><path d="M 64.239 6.75 L 62.583 4.548 L 62.073 5.08 L 62.073 6.75 L 61.26 6.75 L 61.26 0 L 62.073 0 L 62.073 4.083 L 62.508 3.56 L 63.989 1.995 L 64.978 1.995 L 63.127 3.981 L 65.193 6.75 L 64.239 6.75 Z M 31.746 3.393 L 30.929 3.393 Q 30.929 3.059 30.645 2.817 Q 30.362 2.575 29.931 2.575 Q 29.487 2.575 29.237 2.769 A 0.653 0.653 0 0 0 29.062 2.967 Q 28.989 3.098 28.986 3.263 A 0.771 0.771 0 0 0 28.986 3.274 A 0.588 0.588 0 0 0 29.016 3.467 A 0.48 0.48 0 0 0 29.219 3.718 A 1.093 1.093 0 0 0 29.369 3.796 Q 29.534 3.868 29.789 3.937 A 6.581 6.581 0 0 0 30.061 4.003 A 6.318 6.318 0 0 1 30.468 4.108 Q 30.805 4.208 31.047 4.329 A 1.901 1.901 0 0 1 31.303 4.481 Q 31.44 4.579 31.538 4.692 A 1.06 1.06 0 0 1 31.608 4.783 A 1.024 1.024 0 0 1 31.77 5.191 A 1.388 1.388 0 0 1 31.79 5.432 Q 31.79 6.069 31.28 6.453 Q 30.798 6.817 30.044 6.837 A 3.337 3.337 0 0 1 29.958 6.838 A 2.746 2.746 0 0 1 29.423 6.788 A 2.124 2.124 0 0 1 28.947 6.636 A 1.771 1.771 0 0 1 28.513 6.358 A 1.54 1.54 0 0 1 28.259 6.071 Q 28.011 5.708 28.011 5.287 L 28.824 5.287 A 0.932 0.932 0 0 0 28.897 5.612 A 0.827 0.827 0 0 0 29.151 5.935 A 1.072 1.072 0 0 0 29.553 6.128 Q 29.708 6.167 29.889 6.173 A 2.013 2.013 0 0 0 29.958 6.174 A 1.863 1.863 0 0 0 30.253 6.152 Q 30.415 6.126 30.546 6.07 A 0.941 0.941 0 0 0 30.698 5.988 A 0.689 0.689 0 0 0 30.863 5.837 A 0.554 0.554 0 0 0 30.977 5.489 A 0.698 0.698 0 0 0 30.941 5.258 A 0.581 0.581 0 0 0 30.729 4.977 A 1.05 1.05 0 0 0 30.56 4.878 Q 30.371 4.788 30.076 4.712 A 5.392 5.392 0 0 0 29.863 4.663 A 6.342 6.342 0 0 1 29.502 4.575 Q 29.132 4.473 28.883 4.346 Q 28.584 4.194 28.414 3.994 A 1.017 1.017 0 0 1 28.347 3.907 Q 28.173 3.652 28.173 3.3 A 1.206 1.206 0 0 1 28.572 2.396 A 1.694 1.694 0 0 1 28.668 2.312 A 1.752 1.752 0 0 1 29.451 1.952 A 2.471 2.471 0 0 1 29.931 1.907 A 2.559 2.559 0 0 1 30.495 1.966 A 1.757 1.757 0 0 1 31.243 2.325 Q 31.746 2.742 31.746 3.393 Z M 23.585 5.251 L 24.354 5.251 A 1.432 1.432 0 0 1 24.155 5.901 A 1.772 1.772 0 0 1 24.073 6.029 A 1.828 1.828 0 0 1 23.464 6.574 A 2.169 2.169 0 0 1 23.381 6.618 A 1.997 1.997 0 0 1 22.465 6.838 A 2.346 2.346 0 0 1 21.768 6.739 A 1.839 1.839 0 0 1 20.92 6.19 A 2.171 2.171 0 0 1 20.456 5.31 Q 20.347 4.909 20.347 4.417 L 20.347 4.28 A 3.24 3.24 0 0 1 20.41 3.624 A 2.57 2.57 0 0 1 20.602 3.045 A 2.008 2.008 0 0 1 21.041 2.431 A 1.892 1.892 0 0 1 21.333 2.206 A 1.943 1.943 0 0 1 22.09 1.934 A 2.529 2.529 0 0 1 22.46 1.907 A 2.196 2.196 0 0 1 23.109 1.999 A 1.786 1.786 0 0 1 23.79 2.386 A 1.693 1.693 0 0 1 24.348 3.535 A 2.239 2.239 0 0 1 24.354 3.63 L 23.585 3.63 Q 23.55 3.168 23.236 2.872 A 1.078 1.078 0 0 0 22.507 2.576 A 1.402 1.402 0 0 0 22.46 2.575 A 1.374 1.374 0 0 0 22.039 2.637 A 1.081 1.081 0 0 0 21.5 3.021 A 1.469 1.469 0 0 0 21.273 3.468 Q 21.208 3.674 21.18 3.923 A 3.514 3.514 0 0 0 21.16 4.311 L 21.16 4.465 Q 21.16 5.287 21.498 5.73 A 1.1 1.1 0 0 0 22.285 6.165 A 1.611 1.611 0 0 0 22.465 6.174 A 1.171 1.171 0 0 0 23.225 5.911 A 1.007 1.007 0 0 0 23.469 5.629 A 0.914 0.914 0 0 0 23.585 5.251 Z M 57.103 6.75 L 56.25 6.75 A 0.632 0.632 0 0 1 56.215 6.66 Q 56.183 6.562 56.158 6.41 A 3.997 3.997 0 0 1 56.136 6.249 Q 55.569 6.838 54.782 6.838 A 2.033 2.033 0 0 1 54.253 6.772 A 1.529 1.529 0 0 1 53.629 6.44 Q 53.178 6.042 53.178 5.432 Q 53.178 4.689 53.743 4.278 Q 54.308 3.867 55.332 3.867 L 56.123 3.867 L 56.123 3.494 A 1.152 1.152 0 0 0 56.087 3.199 A 0.828 0.828 0 0 0 55.868 2.815 Q 55.651 2.6 55.261 2.568 A 1.748 1.748 0 0 0 55.116 2.562 Q 54.681 2.562 54.387 2.782 Q 54.092 3.001 54.092 3.313 L 53.275 3.313 A 1.041 1.041 0 0 1 53.4 2.825 A 1.409 1.409 0 0 1 53.528 2.626 Q 53.78 2.294 54.213 2.101 A 2.249 2.249 0 0 1 54.989 1.913 A 2.669 2.669 0 0 1 55.165 1.907 A 2.65 2.65 0 0 1 55.682 1.955 Q 55.989 2.016 56.228 2.156 A 1.439 1.439 0 0 1 56.452 2.318 A 1.396 1.396 0 0 1 56.905 3.144 A 1.998 1.998 0 0 1 56.936 3.45 L 56.936 5.638 Q 56.936 6.073 57.009 6.39 A 1.707 1.707 0 0 0 57.103 6.68 L 57.103 6.75 Z M 15.583 4.504 L 15.583 4.355 A 3.17 3.17 0 0 1 15.659 3.646 A 2.581 2.581 0 0 1 15.853 3.092 A 2.191 2.191 0 0 1 16.301 2.466 A 2.033 2.033 0 0 1 16.609 2.221 Q 17.095 1.907 17.662 1.907 A 2.254 2.254 0 0 1 18.275 1.986 A 1.639 1.639 0 0 1 19.103 2.518 Q 19.617 3.129 19.617 4.267 L 19.617 4.605 L 16.396 4.605 A 2.111 2.111 0 0 0 16.467 5.114 A 1.516 1.516 0 0 0 16.807 5.741 A 1.282 1.282 0 0 0 17.741 6.173 A 1.652 1.652 0 0 0 17.807 6.174 A 1.763 1.763 0 0 0 18.135 6.145 Q 18.359 6.103 18.536 5.999 A 1.827 1.827 0 0 0 19.045 5.551 A 2.068 2.068 0 0 0 19.059 5.533 L 19.556 5.919 A 1.926 1.926 0 0 1 18.156 6.811 A 2.749 2.749 0 0 1 17.763 6.838 A 2.394 2.394 0 0 1 17.011 6.725 A 1.974 1.974 0 0 1 16.189 6.203 Q 15.583 5.568 15.583 4.504 Z M 2.351 4.245 L 0.844 4.245 L 0.844 6.75 L 0 6.75 L 0 0.352 L 2.36 0.352 A 3.315 3.315 0 0 1 3.025 0.414 Q 3.427 0.497 3.738 0.688 A 1.839 1.839 0 0 1 4.006 0.888 A 1.772 1.772 0 0 1 4.593 2.105 A 2.45 2.45 0 0 1 4.601 2.307 Q 4.601 3.239 4.019 3.742 Q 3.54 4.156 2.721 4.229 A 4.14 4.14 0 0 1 2.351 4.245 Z M 38.426 0.352 L 38.426 4.601 L 39.313 4.601 L 39.313 5.265 L 38.426 5.265 L 38.426 6.75 L 37.608 6.75 L 37.608 5.265 L 34.695 5.265 L 34.695 4.786 L 37.56 0.352 L 38.426 0.352 Z M 49.311 6.75 L 47.54 6.75 L 47.54 0.352 L 49.346 0.352 Q 50.181 0.352 50.823 0.721 Q 51.464 1.09 51.814 1.771 A 3.19 3.19 0 0 1 52.131 2.8 A 4.073 4.073 0 0 1 52.167 3.335 L 52.167 3.744 Q 52.167 4.649 51.818 5.331 A 2.457 2.457 0 0 1 50.821 6.376 Q 50.172 6.741 49.311 6.75 Z M 43.824 2.592 A 1.544 1.544 0 0 0 43.928 2.021 A 2.226 2.226 0 0 0 43.906 1.707 A 1.566 1.566 0 0 0 43.407 0.738 A 1.754 1.754 0 0 0 42.641 0.333 A 2.443 2.443 0 0 0 42.042 0.264 A 2.539 2.539 0 0 0 41.533 0.312 A 1.767 1.767 0 0 0 40.676 0.738 Q 40.157 1.213 40.157 2.021 A 1.808 1.808 0 0 0 40.158 2.058 A 1.499 1.499 0 0 0 40.403 2.87 A 1.626 1.626 0 0 0 40.565 3.077 A 1.726 1.726 0 0 0 41.076 3.454 A 2.119 2.119 0 0 0 40.976 3.5 A 1.738 1.738 0 0 0 40.291 4.087 A 1.629 1.629 0 0 0 40.008 5.023 A 2.272 2.272 0 0 0 40.018 5.237 A 1.63 1.63 0 0 0 40.564 6.344 A 1.895 1.895 0 0 0 41.414 6.771 A 2.797 2.797 0 0 0 42.042 6.838 A 2.796 2.796 0 0 0 42.641 6.777 A 1.925 1.925 0 0 0 43.517 6.346 A 1.578 1.578 0 0 0 43.992 5.62 A 1.989 1.989 0 0 0 44.077 5.023 A 1.581 1.581 0 0 0 43.785 4.087 Q 43.493 3.674 42.992 3.458 Q 43.422 3.248 43.675 2.874 A 1.449 1.449 0 0 0 43.824 2.592 Z M 25.559 0.844 L 26.372 0.844 L 26.372 1.995 L 27.259 1.995 L 27.259 2.624 L 26.372 2.624 L 26.372 5.572 Q 26.372 5.858 26.49 6.001 Q 26.609 6.144 26.895 6.144 A 1.046 1.046 0 0 0 26.992 6.138 Q 27.095 6.129 27.235 6.101 A 4.024 4.024 0 0 0 27.281 6.091 L 27.281 6.75 A 2.463 2.463 0 0 1 26.848 6.829 A 2.157 2.157 0 0 1 26.657 6.838 Q 26.21 6.838 25.943 6.616 A 0.856 0.856 0 0 1 25.835 6.508 Q 25.608 6.238 25.567 5.78 A 2.351 2.351 0 0 1 25.559 5.572 L 25.559 2.624 L 24.693 2.624 L 24.693 1.995 L 25.559 1.995 L 25.559 0.844 Z M 13.667 1.995 L 14.48 1.995 L 14.48 7.299 A 2.203 2.203 0 0 1 14.425 7.817 Q 14.257 8.51 13.578 8.64 A 1.813 1.813 0 0 1 13.236 8.67 A 1.594 1.594 0 0 1 12.902 8.636 A 1.376 1.376 0 0 1 12.74 8.591 L 12.74 7.941 A 0.989 0.989 0 0 0 12.847 7.961 Q 12.903 7.969 12.968 7.972 A 2.444 2.444 0 0 0 13.109 7.976 A 0.807 0.807 0 0 0 13.27 7.961 Q 13.367 7.941 13.441 7.896 A 0.429 0.429 0 0 0 13.524 7.829 A 0.412 0.412 0 0 0 13.608 7.695 Q 13.659 7.57 13.666 7.379 A 1.721 1.721 0 0 0 13.667 7.317 L 13.667 1.995 Z M 8.292 4.386 L 8.292 4.329 A 3.057 3.057 0 0 1 8.379 3.587 A 2.573 2.573 0 0 1 8.567 3.072 A 2.16 2.16 0 0 1 8.982 2.486 A 1.957 1.957 0 0 1 9.332 2.21 A 2.036 2.036 0 0 1 10.276 1.913 A 2.491 2.491 0 0 1 10.45 1.907 A 2.277 2.277 0 0 1 11.204 2.027 A 1.937 1.937 0 0 1 12.021 2.58 A 2.29 2.29 0 0 1 12.54 3.608 A 3.373 3.373 0 0 1 12.621 4.368 L 12.621 4.425 A 3.114 3.114 0 0 1 12.542 5.142 A 2.577 2.577 0 0 1 12.355 5.671 A 2.056 2.056 0 0 1 11.828 6.361 A 2.001 2.001 0 0 1 11.595 6.53 A 2.045 2.045 0 0 1 10.675 6.829 A 2.529 2.529 0 0 1 10.459 6.838 A 2.262 2.262 0 0 1 9.709 6.718 A 1.938 1.938 0 0 1 8.892 6.166 A 2.297 2.297 0 0 1 8.367 5.111 A 3.357 3.357 0 0 1 8.292 4.386 Z M 7.849 1.969 L 7.849 2.725 A 2.251 2.251 0 0 0 7.606 2.698 A 2.782 2.782 0 0 0 7.449 2.694 Q 6.671 2.694 6.379 3.338 A 1.445 1.445 0 0 0 6.363 3.375 L 6.363 6.75 L 5.55 6.75 L 5.55 1.995 L 6.341 1.995 L 6.354 2.544 Q 6.735 1.938 7.417 1.909 A 1.636 1.636 0 0 1 7.488 1.907 Q 7.726 1.907 7.849 1.969 Z M 60.508 1.969 L 60.508 2.725 A 2.251 2.251 0 0 0 60.266 2.698 A 2.782 2.782 0 0 0 60.108 2.694 Q 59.331 2.694 59.039 3.338 A 1.445 1.445 0 0 0 59.023 3.375 L 59.023 6.75 L 58.21 6.75 L 58.21 1.995 L 59.001 1.995 L 59.014 2.544 Q 59.395 1.938 60.077 1.909 A 1.636 1.636 0 0 1 60.148 1.907 Q 60.385 1.907 60.508 1.969 Z M 49.368 1.046 L 48.384 1.046 L 48.384 6.06 L 49.271 6.06 A 2.519 2.519 0 0 0 49.904 5.985 A 1.747 1.747 0 0 0 50.79 5.454 Q 51.249 4.94 51.32 4.059 A 4.165 4.165 0 0 0 51.333 3.727 L 51.333 3.353 Q 51.333 2.562 51.063 2.027 A 1.864 1.864 0 0 0 50.821 1.659 A 1.687 1.687 0 0 0 49.825 1.09 A 2.499 2.499 0 0 0 49.368 1.046 Z M 9.11 4.425 A 2.772 2.772 0 0 0 9.157 4.954 Q 9.218 5.264 9.355 5.51 A 1.545 1.545 0 0 0 9.477 5.695 Q 9.844 6.174 10.459 6.174 A 1.269 1.269 0 0 0 10.948 6.083 Q 11.228 5.967 11.43 5.706 A 1.471 1.471 0 0 0 11.443 5.689 A 1.648 1.648 0 0 0 11.698 5.171 Q 11.767 4.945 11.793 4.672 A 3.655 3.655 0 0 0 11.808 4.329 A 2.687 2.687 0 0 0 11.757 3.789 Q 11.689 3.459 11.532 3.2 A 1.586 1.586 0 0 0 11.437 3.061 A 1.231 1.231 0 0 0 11.022 2.705 Q 10.769 2.575 10.45 2.575 Q 9.86 2.575 9.494 3.035 A 1.515 1.515 0 0 0 9.479 3.054 A 1.589 1.589 0 0 0 9.227 3.552 Q 9.157 3.772 9.129 4.039 A 3.676 3.676 0 0 0 9.11 4.425 Z M 0.844 1.046 L 0.844 3.555 L 2.36 3.555 A 2.313 2.313 0 0 0 2.752 3.524 Q 2.969 3.487 3.142 3.404 A 1.097 1.097 0 0 0 3.397 3.237 A 1.028 1.028 0 0 0 3.715 2.696 Q 3.756 2.528 3.757 2.329 A 1.996 1.996 0 0 0 3.757 2.316 A 1.466 1.466 0 0 0 3.703 1.908 A 1.112 1.112 0 0 0 3.397 1.402 Q 3.037 1.059 2.408 1.046 L 0.844 1.046 Z M 37.512 1.639 L 35.618 4.601 L 37.608 4.601 L 37.608 1.463 L 37.512 1.639 Z M 43.264 5.005 A 1.375 1.375 0 0 0 43.205 4.592 A 1.109 1.109 0 0 0 42.924 4.131 A 1.148 1.148 0 0 0 42.252 3.807 A 1.593 1.593 0 0 0 42.034 3.792 A 1.466 1.466 0 0 0 41.645 3.841 A 1.086 1.086 0 0 0 41.153 4.126 A 1.123 1.123 0 0 0 40.839 4.762 A 1.572 1.572 0 0 0 40.821 5.005 A 1.48 1.48 0 0 0 40.863 5.367 A 1.019 1.019 0 0 0 41.144 5.862 Q 41.45 6.158 41.983 6.173 A 2.053 2.053 0 0 0 42.042 6.174 Q 42.536 6.174 42.846 5.94 A 1.018 1.018 0 0 0 42.939 5.86 A 1.041 1.041 0 0 0 43.238 5.292 A 1.518 1.518 0 0 0 43.264 5.005 Z M 42.042 0.932 A 1.259 1.259 0 0 0 41.69 0.979 A 0.973 0.973 0 0 0 41.267 1.228 Q 40.97 1.525 40.97 2.035 A 1.325 1.325 0 0 0 41.015 2.387 A 0.994 0.994 0 0 0 41.262 2.823 A 0.974 0.974 0 0 0 41.825 3.108 A 1.382 1.382 0 0 0 42.042 3.125 A 1.279 1.279 0 0 0 42.387 3.08 A 0.952 0.952 0 0 0 42.823 2.823 A 1.018 1.018 0 0 0 43.098 2.26 A 1.426 1.426 0 0 0 43.115 2.035 A 1.282 1.282 0 0 0 43.065 1.668 A 1.013 1.013 0 0 0 42.812 1.239 Q 42.508 0.932 42.042 0.932 Z M 56.123 5.418 L 56.123 4.443 L 55.485 4.443 Q 53.991 4.443 53.991 5.317 Q 53.991 5.7 54.246 5.915 A 0.893 0.893 0 0 0 54.66 6.108 A 1.259 1.259 0 0 0 54.901 6.13 A 1.429 1.429 0 0 0 55.626 5.933 A 1.335 1.335 0 0 0 55.922 5.705 A 1.108 1.108 0 0 0 56.123 5.418 Z M 16.422 3.938 L 18.804 3.938 L 18.804 3.876 Q 18.778 3.417 18.608 3.111 A 1.13 1.13 0 0 0 18.47 2.916 A 0.983 0.983 0 0 0 17.816 2.584 A 1.39 1.39 0 0 0 17.662 2.575 A 1.106 1.106 0 0 0 17.139 2.698 A 1.14 1.14 0 0 0 16.835 2.933 A 1.417 1.417 0 0 0 16.559 3.379 Q 16.485 3.563 16.445 3.785 A 2.741 2.741 0 0 0 16.422 3.938 Z M 13.62 0.539 A 0.515 0.515 0 0 0 13.583 0.734 Q 13.583 0.932 13.702 1.063 Q 13.784 1.154 13.921 1.182 A 0.679 0.679 0 0 0 14.058 1.195 A 0.803 0.803 0 0 0 14.098 1.194 Q 14.306 1.184 14.418 1.063 A 0.442 0.442 0 0 0 14.516 0.9 A 0.523 0.523 0 0 0 14.542 0.734 A 0.614 0.614 0 0 0 14.541 0.703 A 0.474 0.474 0 0 0 14.418 0.4 Q 14.295 0.264 14.058 0.264 A 0.768 0.768 0 0 0 14.045 0.264 Q 13.822 0.268 13.704 0.402 A 0.482 0.482 0 0 0 13.62 0.539 Z" vector-effect="non-scaling-stroke"/></g>
</svg>