<?xml version="1.0" encoding="UTF-8"?>
<svg width="48px" height="48px" viewBox="0 0 48 48" version="1.1" xmlns="http://www.w3.org/2000/svg" xmlns:xlink="http://www.w3.org/1999/xlink">
    <title>Icon-Resource/Robotics/Res_AWS-RoboMaker_Cloud-Extensions-ROS_48_Dark</title>
    <g id="Icon-Resource/Robotics/Res_AWS-RoboMaker_Cloud-Extensions-ROS_48" stroke="none" stroke-width="1" fill="none" fill-rule="evenodd">
        <path transform="translate(0vw, 0vh), scale(.65)" d="M23.9675,43.2587 C23.4005,43.2587 22.9385,42.7967 22.9385,42.2297 C22.9385,41.6617 23.4005,41.2007 23.9675,41.2007 C24.5345,41.2007 24.9965,41.6617 24.9965,42.2297 C24.9965,42.7967 24.5345,43.2587 23.9675,43.2587 M23.9675,39.2007 C22.2975,39.2007 20.9385,40.5597 20.9385,42.2297 C20.9385,43.8997 22.2975,45.2587 23.9675,45.2587 C25.6375,45.2587 26.9965,43.8997 26.9965,42.2297 C26.9965,40.5597 25.6375,39.2007 23.9675,39.2007 M14.4985,32.4077 C15.0665,32.4077 15.5275,32.8697 15.5275,33.4377 C15.5275,34.0047 15.0665,34.4657 14.4985,34.4657 C13.9315,34.4657 13.4695,34.0047 13.4695,33.4377 C13.4695,32.8697 13.9315,32.4077 14.4985,32.4077 M14.4985,36.4657 C16.1685,36.4657 17.5275,35.1077 17.5275,33.4377 C17.5275,31.7677 16.1685,30.4077 14.4985,30.4077 C12.8285,30.4077 11.4695,31.7677 11.4695,33.4377 C11.4695,35.1077 12.8285,36.4657 14.4985,36.4657 M14.4985,15.5277 C13.9315,15.5277 13.4695,15.0667 13.4695,14.4987 C13.4695,13.9317 13.9315,13.4697 14.4985,13.4697 C15.0665,13.4697 15.5275,13.9317 15.5275,14.4987 C15.5275,15.0667 15.0665,15.5277 14.4985,15.5277 M17.5275,14.4987 C17.5275,12.8287 16.1685,11.4697 14.4985,11.4697 C12.8285,11.4697 11.4695,12.8287 11.4695,14.4987 C11.4695,16.1687 12.8285,17.5277 14.4985,17.5277 C16.1685,17.5277 17.5275,16.1687 17.5275,14.4987 M33.4375,6.7347 C32.8695,6.7347 32.4075,6.2737 32.4075,5.7057 C32.4075,5.1387 32.8695,4.6767 33.4375,4.6767 C34.0045,4.6767 34.4655,5.1387 34.4655,5.7057 C34.4655,6.2737 34.0045,6.7347 33.4375,6.7347 M33.4375,2.6767 C31.7675,2.6767 30.4075,4.0357 30.4075,5.7057 C30.4075,7.3757 31.7675,8.7347 33.4375,8.7347 C35.1075,8.7347 36.4655,7.3757 36.4655,5.7057 C36.4655,4.0357 35.1075,2.6767 33.4375,2.6767 M42.2295,43.2587 C41.6615,43.2587 41.2005,42.7967 41.2005,42.2297 C41.2005,41.6617 41.6615,41.2007 42.2295,41.2007 C42.7965,41.2007 43.2585,41.6617 43.2585,42.2297 C43.2585,42.7967 42.7965,43.2587 42.2295,43.2587 M42.2295,39.2007 C40.5595,39.2007 39.2005,40.5597 39.2005,42.2297 C39.2005,43.8997 40.5595,45.2587 42.2295,45.2587 C43.8995,45.2587 45.2585,43.8997 45.2585,42.2297 C45.2585,40.5597 43.8995,39.2007 42.2295,39.2007 M33.4375,34.4657 C32.8695,34.4657 32.4075,34.0047 32.4075,33.4377 C32.4075,32.8697 32.8695,32.4077 33.4375,32.4077 C34.0045,32.4077 34.4655,32.8697 34.4655,33.4377 C34.4655,34.0047 34.0045,34.4657 33.4375,34.4657 M33.4375,30.4077 C31.7675,30.4077 30.4075,31.7677 30.4075,33.4377 C30.4075,35.1077 31.7675,36.4657 33.4375,36.4657 C35.1075,36.4657 36.4655,35.1077 36.4655,33.4377 C36.4655,31.7677 35.1075,30.4077 33.4375,30.4077 M33.4375,24.9967 C32.8695,24.9967 32.4075,24.5347 32.4075,23.9677 C32.4075,23.4007 32.8695,22.9387 33.4375,22.9387 C34.0045,22.9387 34.4655,23.4007 34.4655,23.9677 C34.4655,24.5347 34.0045,24.9967 33.4375,24.9967 M33.4375,20.9387 C31.7675,20.9387 30.4075,22.2977 30.4075,23.9677 C30.4075,25.6377 31.7675,26.9967 33.4375,26.9967 C35.1075,26.9967 36.4655,25.6377 36.4655,23.9677 C36.4655,22.2977 35.1075,20.9387 33.4375,20.9387 M5.7055,5.3817 C5.8845,5.3817 6.0295,5.5277 6.0295,5.7057 C6.0295,5.8847 5.8845,6.0297 5.7055,6.0297 C5.5275,6.0297 5.3815,5.8847 5.3815,5.7057 C5.3815,5.5277 5.5275,5.3817 5.7055,5.3817 M5.7055,7.3817 C6.6295,7.3817 7.3815,6.6297 7.3815,5.7057 C7.3815,4.7807 6.6295,4.0297 5.7055,4.0297 C4.7805,4.0297 4.0295,4.7807 4.0295,5.7057 C4.0295,6.6297 4.7805,7.3817 5.7055,7.3817 M5.7055,42.5537 C5.5275,42.5537 5.3815,42.4077 5.3815,42.2297 C5.3815,42.0507 5.5275,41.9057 5.7055,41.9057 C5.8845,41.9057 6.0295,42.0507 6.0295,42.2297 C6.0295,42.4077 5.8845,42.5537 5.7055,42.5537 M5.7055,40.5537 C4.7805,40.5537 4.0295,41.3057 4.0295,42.2297 C4.0295,43.1547 4.7805,43.9057 5.7055,43.9057 C6.6295,43.9057 7.3815,43.1547 7.3815,42.2297 C7.3815,41.3057 6.6295,40.5537 5.7055,40.5537 M23.2905,31.8407 C23.4695,31.8407 23.6145,31.9867 23.6145,32.1647 C23.6145,32.3437 23.4695,32.4877 23.2905,32.4877 C23.1125,32.4877 22.9675,32.3437 22.9675,32.1647 C22.9675,31.9867 23.1125,31.8407 23.2905,31.8407 M23.2905,33.8407 C24.2155,33.8407 24.9675,33.0887 24.9675,32.1647 C24.9675,31.2397 24.2155,30.4877 23.2905,30.4877 C22.3665,30.4877 21.6145,31.2397 21.6145,32.1647 C21.6145,33.0887 22.3665,33.8407 23.2905,33.8407 M23.2905,23.6447 C23.4695,23.6447 23.6145,23.7887 23.6145,23.9677 C23.6145,24.1467 23.4695,24.2907 23.2905,24.2907 C23.1125,24.2907 22.9675,24.1467 22.9675,23.9677 C22.9675,23.7887 23.1125,23.6447 23.2905,23.6447 M23.2905,25.6447 C24.2155,25.6447 24.9675,24.8927 24.9675,23.9677 C24.9675,23.0427 24.2155,22.2907 23.2905,22.2907 C22.3665,22.2907 21.6145,23.0427 21.6145,23.9677 C21.6145,24.8927 22.3665,25.6447 23.2905,25.6447 M14.8215,23.9677 C14.8215,24.1467 14.6775,24.2907 14.4985,24.2907 C14.3205,24.2907 14.1745,24.1467 14.1745,23.9677 C14.1745,23.7887 14.3205,23.6447 14.4985,23.6447 C14.6775,23.6447 14.8215,23.7887 14.8215,23.9677 M12.8215,23.9677 C12.8215,24.8927 13.5735,25.6447 14.4985,25.6447 C15.4225,25.6447 16.1745,24.8927 16.1745,23.9677 C16.1745,23.0427 15.4225,22.2907 14.4985,22.2907 C13.5735,22.2907 12.8215,23.0427 12.8215,23.9677 M5.7055,33.7607 C5.5275,33.7607 5.3815,33.6157 5.3815,33.4377 C5.3815,33.2587 5.5275,33.1127 5.7055,33.1127 C5.8845,33.1127 6.0295,33.2587 6.0295,33.4377 C6.0295,33.6157 5.8845,33.7607 5.7055,33.7607 M5.7055,31.7607 C4.7805,31.7607 4.0295,32.5127 4.0295,33.4377 C4.0295,34.3617 4.7805,35.1127 5.7055,35.1127 C6.6295,35.1127 7.3815,34.3617 7.3815,33.4377 C7.3815,32.5127 6.6295,31.7607 5.7055,31.7607 M23.9675,5.3817 C24.1465,5.3817 24.2905,5.5277 24.2905,5.7057 C24.2905,5.8847 24.1465,6.0297 23.9675,6.0297 C23.7885,6.0297 23.6445,5.8847 23.6445,5.7057 C23.6445,5.5277 23.7885,5.3817 23.9675,5.3817 M23.9675,7.3817 C24.8925,7.3817 25.6445,6.6297 25.6445,5.7057 C25.6445,4.7807 24.8925,4.0297 23.9675,4.0297 C23.0425,4.0297 22.2905,4.7807 22.2905,5.7057 C22.2905,6.6297 23.0425,7.3817 23.9675,7.3817 M33.1135,14.4987 C33.1135,14.3207 33.2585,14.1747 33.4375,14.1747 C33.6155,14.1747 33.7605,14.3207 33.7605,14.4987 C33.7605,14.6777 33.6155,14.8217 33.4375,14.8217 C33.2585,14.8217 33.1135,14.6777 33.1135,14.4987 M35.1135,14.4987 C35.1135,13.5737 34.3615,12.8217 33.4375,12.8217 C32.5125,12.8217 31.7605,13.5737 31.7605,14.4987 C31.7605,15.4227 32.5125,16.1747 33.4375,16.1747 C34.3615,16.1747 35.1135,15.4227 35.1135,14.4987 M41.9055,33.4377 C41.9055,33.2587 42.0505,33.1127 42.2295,33.1127 C42.4075,33.1127 42.5535,33.2587 42.5535,33.4377 C42.5535,33.6157 42.4075,33.7607 42.2295,33.7607 C42.0505,33.7607 41.9055,33.6157 41.9055,33.4377 M43.9055,33.4377 C43.9055,32.5127 43.1545,31.7607 42.2295,31.7607 C41.3055,31.7607 40.5535,32.5127 40.5535,33.4377 C40.5535,34.3617 41.3055,35.1127 42.2295,35.1127 C43.1545,35.1127 43.9055,34.3617 43.9055,33.4377 M33.4375,42.5537 C33.2585,42.5537 33.1135,42.4077 33.1135,42.2297 C33.1135,42.0507 33.2585,41.9057 33.4375,41.9057 C33.6155,41.9057 33.7605,42.0507 33.7605,42.2297 C33.7605,42.4077 33.6155,42.5537 33.4375,42.5537 M33.4375,40.5537 C32.5125,40.5537 31.7605,41.3057 31.7605,42.2297 C31.7605,43.1547 32.5125,43.9057 33.4375,43.9057 C34.3615,43.9057 35.1135,43.1547 35.1135,42.2297 C35.1135,41.3057 34.3615,40.5537 33.4375,40.5537 M42.2295,5.3817 C42.4075,5.3817 42.5535,5.5277 42.5535,5.7057 C42.5535,5.8847 42.4075,6.0297 42.2295,6.0297 C42.0505,6.0297 41.9055,5.8847 41.9055,5.7057 C41.9055,5.5277 42.0505,5.3817 42.2295,5.3817 M42.2295,7.3817 C43.1545,7.3817 43.9055,6.6297 43.9055,5.7057 C43.9055,4.7807 43.1545,4.0297 42.2295,4.0297 C41.3055,4.0297 40.5535,4.7807 40.5535,5.7057 C40.5535,6.6297 41.3055,7.3817 42.2295,7.3817 M5.7055,16.2037 C4.7655,16.2037 3.9995,15.4397 3.9995,14.4987 C3.9995,13.5587 4.7655,12.7927 5.7055,12.7927 C6.6465,12.7927 7.4105,13.5587 7.4105,14.4987 C7.4105,15.4397 6.6465,16.2037 5.7055,16.2037 M5.7055,10.7927 C3.6615,10.7927 1.9995,12.4547 1.9995,14.4987 C1.9995,16.5417 3.6615,18.2037 5.7055,18.2037 C7.7485,18.2037 9.4105,16.5417 9.4105,14.4987 C9.4105,12.4547 7.7485,10.7927 5.7055,10.7927 M5.7055,25.6727 C4.7655,25.6727 3.9995,24.9077 3.9995,23.9677 C3.9995,23.0277 4.7655,22.2627 5.7055,22.2627 C6.6465,22.2627 7.4105,23.0277 7.4105,23.9677 C7.4105,24.9077 6.6465,25.6727 5.7055,25.6727 M5.7055,20.2627 C3.6615,20.2627 1.9995,21.9247 1.9995,23.9677 C1.9995,26.0107 3.6615,27.6727 5.7055,27.6727 C7.7485,27.6727 9.4105,26.0107 9.4105,23.9677 C9.4105,21.9247 7.7485,20.2627 5.7055,20.2627 M14.4985,43.9357 C13.5585,43.9357 12.7925,43.1697 12.7925,42.2297 C12.7925,41.2887 13.5585,40.5247 14.4985,40.5247 C15.4395,40.5247 16.2035,41.2887 16.2035,42.2297 C16.2035,43.1697 15.4395,43.9357 14.4985,43.9357 M14.4985,38.5247 C12.4545,38.5247 10.7925,40.1867 10.7925,42.2297 C10.7925,44.2737 12.4545,45.9357 14.4985,45.9357 C16.5415,45.9357 18.2035,44.2737 18.2035,42.2297 C18.2035,40.1867 16.5415,38.5247 14.4985,38.5247 M14.4985,7.4107 C13.5585,7.4107 12.7925,6.6467 12.7925,5.7057 C12.7925,4.7657 13.5585,3.9997 14.4985,3.9997 C15.4395,3.9997 16.2035,4.7657 16.2035,5.7057 C16.2035,6.6467 15.4395,7.4107 14.4985,7.4107 M14.4985,1.9997 C12.4545,1.9997 10.7925,3.6617 10.7925,5.7057 C10.7925,7.7487 12.4545,9.4107 14.4985,9.4107 C16.5415,9.4107 18.2035,7.7487 18.2035,5.7057 C18.2035,3.6617 16.5415,1.9997 14.4985,1.9997 M23.9675,16.2037 C23.0275,16.2037 22.2625,15.4397 22.2625,14.4987 C22.2625,13.5587 23.0275,12.7927 23.9675,12.7927 C24.9075,12.7927 25.6735,13.5587 25.6735,14.4987 C25.6735,15.4397 24.9075,16.2037 23.9675,16.2037 M23.9675,10.7927 C21.9245,10.7927 20.2625,12.4547 20.2625,14.4987 C20.2625,16.5417 21.9245,18.2037 23.9675,18.2037 C26.0115,18.2037 27.6735,16.5417 27.6735,14.4987 C27.6735,12.4547 26.0115,10.7927 23.9675,10.7927 M42.2295,25.6727 C41.2885,25.6727 40.5245,24.9077 40.5245,23.9677 C40.5245,23.0277 41.2885,22.2627 42.2295,22.2627 C43.1695,22.2627 43.9355,23.0277 43.9355,23.9677 C43.9355,24.9077 43.1695,25.6727 42.2295,25.6727 M42.2295,20.2627 C40.1865,20.2627 38.5245,21.9247 38.5245,23.9677 C38.5245,26.0107 40.1865,27.6727 42.2295,27.6727 C44.2735,27.6727 45.9355,26.0107 45.9355,23.9677 C45.9355,21.9247 44.2735,20.2627 42.2295,20.2627 M42.2295,12.7927 C43.1695,12.7927 43.9355,13.5587 43.9355,14.4987 C43.9355,15.4397 43.1695,16.2037 42.2295,16.2037 C41.2885,16.2037 40.5245,15.4397 40.5245,14.4987 C40.5245,13.5587 41.2885,12.7927 42.2295,12.7927 M42.2295,18.2037 C44.2735,18.2037 45.9355,16.5417 45.9355,14.4987 C45.9355,12.4547 44.2735,10.7927 42.2295,10.7927 C40.1865,10.7927 38.5245,12.4547 38.5245,14.4987 C38.5245,16.5417 40.1865,18.2037 42.2295,18.2037" id="AWS-Robo-Maker_Cloud-extensions-ROS_Resource-Icon_light-bg" fill="#000000"></path>
    </g><g transform="translate(33vw, 80vh)" id="svgGroup" stroke-linecap="round" fill-rule="evenodd" font-size="9pt" stroke="#000" stroke-width="0.25mm" fill="#000" style="stroke:#000;stroke-width:0.25mm;fill:#000"><path d="M 23.12 0.088 L 24.13 4.469 L 24.253 5.313 L 24.434 4.553 L 25.699 0.088 L 26.411 0.088 L 27.646 4.553 L 27.822 5.326 L 27.958 4.465 L 28.951 0.088 L 29.799 0.088 L 28.248 6.486 L 27.479 6.486 L 26.161 1.824 L 26.06 1.336 L 25.958 1.824 L 24.592 6.486 L 23.823 6.486 L 22.276 0.088 L 23.12 0.088 Z M 34.98 1.938 L 34.132 1.938 A 1.466 1.466 0 0 0 34.083 1.546 A 1.066 1.066 0 0 0 33.763 1.026 A 1.211 1.211 0 0 0 33.294 0.77 Q 33.042 0.694 32.722 0.694 A 2.286 2.286 0 0 0 32.342 0.724 Q 32.14 0.758 31.977 0.831 A 1.101 1.101 0 0 0 31.748 0.969 A 0.892 0.892 0 0 0 31.403 1.624 A 1.267 1.267 0 0 0 31.399 1.732 A 0.806 0.806 0 0 0 31.667 2.337 A 1.134 1.134 0 0 0 31.731 2.393 A 1.562 1.562 0 0 0 31.969 2.549 Q 32.299 2.73 32.86 2.887 A 8.228 8.228 0 0 1 33.325 3.032 Q 33.56 3.113 33.754 3.2 A 3.297 3.297 0 0 1 34.108 3.382 A 2.342 2.342 0 0 1 34.447 3.626 Q 34.637 3.792 34.759 3.985 A 1.45 1.45 0 0 1 34.776 4.012 A 1.498 1.498 0 0 1 34.972 4.568 A 1.948 1.948 0 0 1 34.994 4.86 A 1.606 1.606 0 0 1 34.871 5.497 Q 34.726 5.838 34.408 6.09 A 1.886 1.886 0 0 1 34.387 6.106 Q 33.781 6.574 32.766 6.574 A 3.023 3.023 0 0 1 31.625 6.36 A 2.917 2.917 0 0 1 31.535 6.322 A 2.383 2.383 0 0 1 31.057 6.044 A 1.874 1.874 0 0 1 30.654 5.629 A 1.689 1.689 0 0 1 30.344 4.632 L 31.192 4.632 A 1.261 1.261 0 0 0 31.262 5.059 A 1.074 1.074 0 0 0 31.621 5.548 Q 32.005 5.85 32.622 5.881 A 2.87 2.87 0 0 0 32.766 5.884 A 2.628 2.628 0 0 0 33.153 5.858 Q 33.349 5.828 33.508 5.767 A 1.129 1.129 0 0 0 33.79 5.612 Q 34.146 5.339 34.146 4.869 A 1.074 1.074 0 0 0 34.103 4.559 A 0.816 0.816 0 0 0 33.816 4.142 Q 33.486 3.885 32.621 3.634 Q 31.535 3.322 31.041 2.868 Q 30.546 2.413 30.546 1.745 Q 30.546 0.989 31.151 0.494 A 2.121 2.121 0 0 1 32.041 0.071 A 3.087 3.087 0 0 1 32.722 0 A 2.913 2.913 0 0 1 33.382 0.072 A 2.372 2.372 0 0 1 33.897 0.255 A 2.051 2.051 0 0 1 34.428 0.626 A 1.834 1.834 0 0 1 34.697 0.958 A 1.798 1.798 0 0 1 34.98 1.938 Z M 3.74 6.486 L 2.351 3.898 L 0.848 3.898 L 0.848 6.486 L 0 6.486 L 0 0.088 L 2.118 0.088 A 3.809 3.809 0 0 1 2.76 0.138 Q 3.102 0.197 3.376 0.324 A 1.789 1.789 0 0 1 3.781 0.58 A 1.588 1.588 0 0 1 4.307 1.469 A 2.453 2.453 0 0 1 4.364 2.013 A 1.864 1.864 0 0 1 4.273 2.604 A 1.64 1.64 0 0 1 4.041 3.054 A 1.849 1.849 0 0 1 3.382 3.611 A 2.342 2.342 0 0 1 3.142 3.718 L 4.645 6.434 L 4.645 6.486 L 3.74 6.486 Z M 13.724 3.129 L 12.907 3.129 Q 12.907 2.795 12.623 2.553 Q 12.34 2.312 11.909 2.312 Q 11.465 2.312 11.215 2.505 A 0.653 0.653 0 0 0 11.04 2.704 Q 10.967 2.835 10.964 3 A 0.771 0.771 0 0 0 10.964 3.01 A 0.588 0.588 0 0 0 10.994 3.203 A 0.48 0.48 0 0 0 11.197 3.454 A 1.093 1.093 0 0 0 11.348 3.533 Q 11.512 3.605 11.767 3.673 A 6.581 6.581 0 0 0 12.039 3.74 A 6.318 6.318 0 0 1 12.446 3.845 Q 12.783 3.944 13.025 4.065 A 1.901 1.901 0 0 1 13.281 4.218 Q 13.418 4.315 13.516 4.429 A 1.06 1.06 0 0 1 13.586 4.52 A 1.024 1.024 0 0 1 13.748 4.927 A 1.388 1.388 0 0 1 13.768 5.168 Q 13.768 5.805 13.258 6.19 Q 12.776 6.554 12.022 6.573 A 3.337 3.337 0 0 1 11.936 6.574 A 2.746 2.746 0 0 1 11.401 6.525 A 2.124 2.124 0 0 1 10.925 6.372 A 1.771 1.771 0 0 1 10.491 6.094 A 1.54 1.54 0 0 1 10.237 5.807 Q 9.989 5.445 9.989 5.023 L 10.802 5.023 A 0.932 0.932 0 0 0 10.875 5.348 A 0.827 0.827 0 0 0 11.129 5.671 A 1.072 1.072 0 0 0 11.531 5.864 Q 11.686 5.903 11.867 5.91 A 2.013 2.013 0 0 0 11.936 5.911 A 1.863 1.863 0 0 0 12.231 5.889 Q 12.393 5.863 12.524 5.806 A 0.941 0.941 0 0 0 12.676 5.724 A 0.689 0.689 0 0 0 12.841 5.574 A 0.554 0.554 0 0 0 12.955 5.225 A 0.698 0.698 0 0 0 12.919 4.994 A 0.581 0.581 0 0 0 12.707 4.713 A 1.05 1.05 0 0 0 12.538 4.615 Q 12.349 4.524 12.054 4.449 A 5.392 5.392 0 0 0 11.841 4.399 A 6.342 6.342 0 0 1 11.48 4.311 Q 11.11 4.209 10.861 4.083 Q 10.562 3.93 10.392 3.731 A 1.017 1.017 0 0 1 10.325 3.643 Q 10.151 3.388 10.151 3.037 A 1.206 1.206 0 0 1 10.55 2.132 A 1.694 1.694 0 0 1 10.646 2.048 A 1.752 1.752 0 0 1 11.429 1.688 A 2.471 2.471 0 0 1 11.909 1.644 A 2.559 2.559 0 0 1 12.473 1.702 A 1.757 1.757 0 0 1 13.221 2.061 Q 13.724 2.479 13.724 3.129 Z M 21.327 6.486 L 20.716 4.816 L 18.035 4.816 L 17.433 6.486 L 16.563 6.486 L 19.006 0.088 L 19.745 0.088 L 22.192 6.486 L 21.327 6.486 Z M 5.212 4.241 L 5.212 4.091 A 3.17 3.17 0 0 1 5.288 3.382 A 2.581 2.581 0 0 1 5.482 2.828 A 2.191 2.191 0 0 1 5.93 2.202 A 2.033 2.033 0 0 1 6.238 1.958 Q 6.724 1.644 7.291 1.644 A 2.254 2.254 0 0 1 7.904 1.723 A 1.639 1.639 0 0 1 8.732 2.254 Q 9.246 2.865 9.246 4.003 L 9.246 4.342 L 6.025 4.342 A 2.111 2.111 0 0 0 6.096 4.85 A 1.516 1.516 0 0 0 6.436 5.478 A 1.282 1.282 0 0 0 7.37 5.909 A 1.652 1.652 0 0 0 7.436 5.911 A 1.763 1.763 0 0 0 7.764 5.882 Q 7.988 5.839 8.165 5.735 A 1.827 1.827 0 0 0 8.674 5.287 A 2.068 2.068 0 0 0 8.688 5.269 L 9.185 5.656 A 1.926 1.926 0 0 1 7.785 6.547 A 2.749 2.749 0 0 1 7.392 6.574 A 2.394 2.394 0 0 1 6.64 6.461 A 1.974 1.974 0 0 1 5.818 5.939 Q 5.212 5.304 5.212 4.241 Z M 0.848 0.782 L 0.848 3.208 L 2.145 3.208 Q 2.685 3.208 3.035 2.968 A 1.174 1.174 0 0 0 3.144 2.883 A 1.069 1.069 0 0 0 3.51 2.146 A 1.486 1.486 0 0 0 3.516 2.013 Q 3.516 1.47 3.22 1.159 A 1 1 0 0 0 3.162 1.103 Q 2.808 0.787 2.14 0.782 L 0.848 0.782 Z M 19.375 1.129 L 18.29 4.122 L 20.465 4.122 L 19.375 1.129 Z M 6.051 3.674 L 8.433 3.674 L 8.433 3.612 Q 8.407 3.153 8.236 2.848 A 1.13 1.13 0 0 0 8.099 2.652 A 0.983 0.983 0 0 0 7.445 2.32 A 1.39 1.39 0 0 0 7.291 2.312 A 1.106 1.106 0 0 0 6.768 2.435 A 1.14 1.14 0 0 0 6.464 2.67 A 1.417 1.417 0 0 0 6.188 3.116 Q 6.114 3.3 6.074 3.522 A 2.741 2.741 0 0 0 6.051 3.674 Z" vector-effect="non-scaling-stroke"/></g><g transform="translate(12vw, 90vh)" id="svgGroup" stroke-linecap="round" fill-rule="evenodd" font-size="9pt" stroke="#000" stroke-width="0.25mm" fill="#000" style="stroke:#000;stroke-width:0.25mm;fill:#000"><path d="M 20.861 0.352 L 21.951 0.352 L 24.042 5.572 L 26.134 0.352 L 27.229 0.352 L 27.229 6.75 L 26.385 6.75 L 26.385 4.258 L 26.464 1.569 L 24.363 6.75 L 23.717 6.75 L 21.621 1.582 L 21.705 4.258 L 21.705 6.75 L 20.861 6.75 L 20.861 0.352 Z M 135.584 2.202 L 134.736 2.202 A 1.466 1.466 0 0 0 134.687 1.809 A 1.066 1.066 0 0 0 134.367 1.29 A 1.211 1.211 0 0 0 133.898 1.033 Q 133.646 0.958 133.326 0.958 A 2.286 2.286 0 0 0 132.946 0.988 Q 132.744 1.022 132.581 1.095 A 1.101 1.101 0 0 0 132.352 1.233 A 0.892 0.892 0 0 0 132.007 1.887 A 1.267 1.267 0 0 0 132.003 1.995 A 0.806 0.806 0 0 0 132.271 2.6 A 1.134 1.134 0 0 0 132.335 2.656 A 1.562 1.562 0 0 0 132.573 2.813 Q 132.903 2.993 133.464 3.151 A 8.228 8.228 0 0 1 133.929 3.295 Q 134.164 3.377 134.358 3.464 A 3.297 3.297 0 0 1 134.712 3.645 A 2.342 2.342 0 0 1 135.051 3.889 Q 135.241 4.056 135.363 4.248 A 1.45 1.45 0 0 1 135.38 4.276 A 1.498 1.498 0 0 1 135.576 4.832 A 1.948 1.948 0 0 1 135.598 5.124 A 1.606 1.606 0 0 1 135.475 5.76 Q 135.33 6.101 135.012 6.354 A 1.886 1.886 0 0 1 134.991 6.37 Q 134.385 6.838 133.37 6.838 A 3.023 3.023 0 0 1 132.229 6.623 A 2.917 2.917 0 0 1 132.139 6.585 A 2.383 2.383 0 0 1 131.661 6.307 A 1.874 1.874 0 0 1 131.258 5.893 A 1.689 1.689 0 0 1 130.948 4.896 L 131.796 4.896 A 1.261 1.261 0 0 0 131.866 5.323 A 1.074 1.074 0 0 0 132.225 5.812 Q 132.609 6.113 133.226 6.144 A 2.87 2.87 0 0 0 133.37 6.148 A 2.628 2.628 0 0 0 133.757 6.121 Q 133.953 6.092 134.112 6.031 A 1.129 1.129 0 0 0 134.394 5.875 Q 134.75 5.603 134.75 5.133 A 1.074 1.074 0 0 0 134.707 4.822 A 0.816 0.816 0 0 0 134.42 4.406 Q 134.09 4.148 133.225 3.898 Q 132.139 3.586 131.645 3.131 Q 131.15 2.676 131.15 2.008 Q 131.15 1.252 131.755 0.758 A 2.121 2.121 0 0 1 132.645 0.335 A 3.087 3.087 0 0 1 133.326 0.264 A 2.913 2.913 0 0 1 133.986 0.336 A 2.372 2.372 0 0 1 134.501 0.519 A 2.051 2.051 0 0 1 135.032 0.889 A 1.834 1.834 0 0 1 135.301 1.222 A 1.798 1.798 0 0 1 135.584 2.202 Z M 77.186 3.103 L 77.186 3.792 L 74.413 3.792 L 74.413 6.06 L 77.634 6.06 L 77.634 6.75 L 73.569 6.75 L 73.569 0.352 L 77.59 0.352 L 77.59 1.046 L 74.413 1.046 L 74.413 3.103 L 77.186 3.103 Z M 51.987 4.72 L 52.835 4.72 A 3.016 3.016 0 0 1 52.674 5.416 A 2.099 2.099 0 0 1 52.086 6.286 Q 51.456 6.838 50.41 6.838 A 2.553 2.553 0 0 1 49.541 6.696 A 2.194 2.194 0 0 1 48.593 6.025 A 2.789 2.789 0 0 1 48.031 4.901 Q 47.924 4.484 47.911 3.992 A 5.262 5.262 0 0 1 47.909 3.85 L 47.909 3.234 A 4.251 4.251 0 0 1 47.979 2.445 A 3.229 3.229 0 0 1 48.228 1.666 A 2.539 2.539 0 0 1 48.683 0.99 A 2.26 2.26 0 0 1 49.131 0.626 A 2.415 2.415 0 0 1 50.157 0.281 A 3.027 3.027 0 0 1 50.484 0.264 A 2.962 2.962 0 0 1 51.19 0.343 A 2.065 2.065 0 0 1 52.119 0.833 A 2.16 2.16 0 0 1 52.714 1.795 A 3.086 3.086 0 0 1 52.835 2.408 L 51.987 2.408 Q 51.918 1.929 51.749 1.616 A 1.223 1.223 0 0 0 51.51 1.301 A 1.207 1.207 0 0 0 51.005 1.024 Q 50.818 0.971 50.595 0.961 A 2.396 2.396 0 0 0 50.484 0.958 A 1.753 1.753 0 0 0 49.906 1.049 A 1.463 1.463 0 0 0 49.217 1.556 A 1.989 1.989 0 0 0 48.903 2.175 Q 48.757 2.636 48.757 3.256 L 48.757 3.876 Q 48.757 4.917 49.192 5.533 A 1.38 1.38 0 0 0 50.191 6.135 A 1.814 1.814 0 0 0 50.41 6.148 A 2.497 2.497 0 0 0 50.817 6.117 Q 51.037 6.08 51.212 6.002 A 1.155 1.155 0 0 0 51.489 5.829 Q 51.864 5.511 51.987 4.72 Z M 36.47 6.75 L 34.813 4.548 L 34.304 5.08 L 34.304 6.75 L 33.491 6.75 L 33.491 0 L 34.304 0 L 34.304 4.083 L 34.739 3.56 L 36.22 1.995 L 37.208 1.995 L 35.358 3.981 L 37.424 6.75 L 36.47 6.75 Z M 167.941 6.75 L 166.285 4.548 L 165.775 5.08 L 165.775 6.75 L 164.962 6.75 L 164.962 0 L 165.775 0 L 165.775 4.083 L 166.21 3.56 L 167.691 1.995 L 168.68 1.995 L 166.83 3.981 L 168.895 6.75 L 167.941 6.75 Z M 3.74 6.75 L 2.351 4.162 L 0.848 4.162 L 0.848 6.75 L 0 6.75 L 0 0.352 L 2.118 0.352 A 3.809 3.809 0 0 1 2.76 0.402 Q 3.102 0.461 3.376 0.587 A 1.789 1.789 0 0 1 3.781 0.844 A 1.588 1.588 0 0 1 4.307 1.732 A 2.453 2.453 0 0 1 4.364 2.276 A 1.864 1.864 0 0 1 4.273 2.868 A 1.64 1.64 0 0 1 4.041 3.318 A 1.849 1.849 0 0 1 3.382 3.875 A 2.342 2.342 0 0 1 3.142 3.981 L 4.645 6.697 L 4.645 6.75 L 3.74 6.75 Z M 123.346 6.75 L 121.957 4.162 L 120.454 4.162 L 120.454 6.75 L 119.606 6.75 L 119.606 0.352 L 121.724 0.352 A 3.809 3.809 0 0 1 122.365 0.402 Q 122.708 0.461 122.981 0.587 A 1.789 1.789 0 0 1 123.387 0.844 A 1.588 1.588 0 0 1 123.913 1.732 A 2.453 2.453 0 0 1 123.97 2.276 A 1.864 1.864 0 0 1 123.879 2.868 A 1.64 1.64 0 0 1 123.647 3.318 A 1.849 1.849 0 0 1 122.988 3.875 A 2.342 2.342 0 0 1 122.748 3.981 L 124.251 6.697 L 124.251 6.75 L 123.346 6.75 Z M 99.229 3.393 L 98.411 3.393 Q 98.411 3.059 98.128 2.817 Q 97.844 2.575 97.414 2.575 Q 96.97 2.575 96.719 2.769 A 0.653 0.653 0 0 0 96.544 2.967 Q 96.471 3.098 96.469 3.263 A 0.771 0.771 0 0 0 96.469 3.274 A 0.588 0.588 0 0 0 96.499 3.467 A 0.48 0.48 0 0 0 96.702 3.718 A 1.093 1.093 0 0 0 96.852 3.796 Q 97.016 3.868 97.272 3.937 A 6.581 6.581 0 0 0 97.543 4.003 A 6.318 6.318 0 0 1 97.951 4.108 Q 98.288 4.208 98.53 4.329 A 1.901 1.901 0 0 1 98.786 4.481 Q 98.923 4.579 99.02 4.692 A 1.06 1.06 0 0 1 99.09 4.783 A 1.024 1.024 0 0 1 99.252 5.191 A 1.388 1.388 0 0 1 99.272 5.432 Q 99.272 6.069 98.763 6.453 Q 98.28 6.817 97.526 6.837 A 3.337 3.337 0 0 1 97.44 6.838 A 2.746 2.746 0 0 1 96.906 6.788 A 2.124 2.124 0 0 1 96.429 6.636 A 1.771 1.771 0 0 1 95.995 6.358 A 1.54 1.54 0 0 1 95.741 6.071 Q 95.493 5.708 95.493 5.287 L 96.306 5.287 A 0.932 0.932 0 0 0 96.38 5.612 A 0.827 0.827 0 0 0 96.634 5.935 A 1.072 1.072 0 0 0 97.036 6.128 Q 97.19 6.167 97.372 6.173 A 2.013 2.013 0 0 0 97.44 6.174 A 1.863 1.863 0 0 0 97.736 6.152 Q 97.897 6.126 98.029 6.07 A 0.941 0.941 0 0 0 98.18 5.988 A 0.689 0.689 0 0 0 98.345 5.837 A 0.554 0.554 0 0 0 98.459 5.489 A 0.698 0.698 0 0 0 98.423 5.258 A 0.581 0.581 0 0 0 98.211 4.977 A 1.05 1.05 0 0 0 98.042 4.878 Q 97.853 4.788 97.559 4.712 A 5.392 5.392 0 0 0 97.345 4.663 A 6.342 6.342 0 0 1 96.984 4.575 Q 96.615 4.473 96.365 4.346 Q 96.067 4.194 95.896 3.994 A 1.017 1.017 0 0 1 95.829 3.907 Q 95.656 3.652 95.656 3.3 A 1.206 1.206 0 0 1 96.055 2.396 A 1.694 1.694 0 0 1 96.15 2.312 A 1.752 1.752 0 0 1 96.933 1.952 A 2.471 2.471 0 0 1 97.414 1.907 A 2.559 2.559 0 0 1 97.977 1.966 A 1.757 1.757 0 0 1 98.725 2.325 Q 99.229 2.742 99.229 3.393 Z M 116.152 3.393 L 115.334 3.393 Q 115.334 3.059 115.051 2.817 Q 114.768 2.575 114.337 2.575 Q 113.893 2.575 113.643 2.769 A 0.653 0.653 0 0 0 113.468 2.967 Q 113.394 3.098 113.392 3.263 A 0.771 0.771 0 0 0 113.392 3.274 A 0.588 0.588 0 0 0 113.422 3.467 A 0.48 0.48 0 0 0 113.625 3.718 A 1.093 1.093 0 0 0 113.775 3.796 Q 113.939 3.868 114.195 3.937 A 6.581 6.581 0 0 0 114.467 4.003 A 6.318 6.318 0 0 1 114.874 4.108 Q 115.211 4.208 115.453 4.329 A 1.901 1.901 0 0 1 115.709 4.481 Q 115.846 4.579 115.943 4.692 A 1.06 1.06 0 0 1 116.013 4.783 A 1.024 1.024 0 0 1 116.176 5.191 A 1.388 1.388 0 0 1 116.196 5.432 Q 116.196 6.069 115.686 6.453 Q 115.204 6.817 114.45 6.837 A 3.337 3.337 0 0 1 114.363 6.838 A 2.746 2.746 0 0 1 113.829 6.788 A 2.124 2.124 0 0 1 113.353 6.636 A 1.771 1.771 0 0 1 112.919 6.358 A 1.54 1.54 0 0 1 112.665 6.071 Q 112.417 5.708 112.417 5.287 L 113.229 5.287 A 0.932 0.932 0 0 0 113.303 5.612 A 0.827 0.827 0 0 0 113.557 5.935 A 1.072 1.072 0 0 0 113.959 6.128 Q 114.114 6.167 114.295 6.173 A 2.013 2.013 0 0 0 114.363 6.174 A 1.863 1.863 0 0 0 114.659 6.152 Q 114.82 6.126 114.952 6.07 A 0.941 0.941 0 0 0 115.104 5.988 A 0.689 0.689 0 0 0 115.268 5.837 A 0.554 0.554 0 0 0 115.383 5.489 A 0.698 0.698 0 0 0 115.346 5.258 A 0.581 0.581 0 0 0 115.135 4.977 A 1.05 1.05 0 0 0 114.966 4.878 Q 114.777 4.788 114.482 4.712 A 5.392 5.392 0 0 0 114.269 4.663 A 6.342 6.342 0 0 1 113.908 4.575 Q 113.538 4.473 113.289 4.346 Q 112.99 4.194 112.82 3.994 A 1.017 1.017 0 0 1 112.753 3.907 Q 112.579 3.652 112.579 3.3 A 1.206 1.206 0 0 1 112.978 2.396 A 1.694 1.694 0 0 1 113.073 2.312 A 1.752 1.752 0 0 1 113.857 1.952 A 2.471 2.471 0 0 1 114.337 1.907 A 2.559 2.559 0 0 1 114.9 1.966 A 1.757 1.757 0 0 1 115.649 2.325 Q 116.152 2.742 116.152 3.393 Z M 90.725 1.995 L 91.494 1.995 L 91.521 2.593 Q 92.057 1.918 92.917 1.907 A 2.234 2.234 0 0 1 92.944 1.907 A 1.905 1.905 0 0 1 93.578 2.004 Q 94.42 2.3 94.463 3.506 A 3.668 3.668 0 0 1 94.465 3.608 L 94.465 6.75 L 93.652 6.75 L 93.652 3.604 A 1.837 1.837 0 0 0 93.63 3.324 Q 93.579 3.017 93.417 2.843 Q 93.231 2.645 92.877 2.606 A 1.66 1.66 0 0 0 92.698 2.597 A 1.253 1.253 0 0 0 92.284 2.664 A 1.123 1.123 0 0 0 92.004 2.808 A 1.432 1.432 0 0 0 91.538 3.362 L 91.538 6.75 L 90.725 6.75 L 90.725 1.995 Z M 107.648 1.995 L 108.417 1.995 L 108.444 2.593 Q 108.98 1.918 109.84 1.907 A 2.234 2.234 0 0 1 109.868 1.907 A 1.905 1.905 0 0 1 110.501 2.004 Q 111.343 2.3 111.386 3.506 A 3.668 3.668 0 0 1 111.388 3.608 L 111.388 6.75 L 110.575 6.75 L 110.575 3.604 A 1.837 1.837 0 0 0 110.553 3.324 Q 110.503 3.017 110.34 2.843 Q 110.154 2.645 109.801 2.606 A 1.66 1.66 0 0 0 109.622 2.597 A 1.253 1.253 0 0 0 109.207 2.664 A 1.123 1.123 0 0 0 108.927 2.808 A 1.432 1.432 0 0 0 108.461 3.362 L 108.461 6.75 L 107.648 6.75 L 107.648 1.995 Z M 64.129 6.75 L 64.112 6.28 A 1.526 1.526 0 0 1 63.286 6.775 Q 63.035 6.836 62.738 6.838 A 2.996 2.996 0 0 1 62.719 6.838 A 2.086 2.086 0 0 1 62.259 6.79 Q 61.828 6.693 61.561 6.396 A 1.41 1.41 0 0 1 61.278 5.899 Q 61.161 5.556 61.159 5.089 L 61.159 1.995 L 61.972 1.995 L 61.972 5.067 Q 61.972 6.037 62.679 6.137 A 1.229 1.229 0 0 0 62.851 6.148 A 1.927 1.927 0 0 0 63.301 6.099 Q 63.864 5.964 64.09 5.454 L 64.09 1.995 L 64.903 1.995 L 64.903 6.75 L 64.129 6.75 Z M 79.11 1.995 L 80.152 3.731 L 81.207 1.995 L 82.156 1.995 L 80.6 4.346 L 82.204 6.75 L 81.264 6.75 L 80.165 4.97 L 79.066 6.75 L 78.122 6.75 L 79.726 4.346 L 78.17 1.995 L 79.11 1.995 Z M 32.379 6.75 L 31.526 6.75 A 0.632 0.632 0 0 1 31.491 6.66 Q 31.46 6.562 31.435 6.41 A 3.997 3.997 0 0 1 31.412 6.249 Q 30.845 6.838 30.059 6.838 A 2.033 2.033 0 0 1 29.529 6.772 A 1.529 1.529 0 0 1 28.905 6.44 Q 28.455 6.042 28.455 5.432 Q 28.455 4.689 29.019 4.278 Q 29.584 3.867 30.608 3.867 L 31.399 3.867 L 31.399 3.494 A 1.152 1.152 0 0 0 31.363 3.199 A 0.828 0.828 0 0 0 31.144 2.815 Q 30.928 2.6 30.537 2.568 A 1.748 1.748 0 0 0 30.393 2.562 Q 29.958 2.562 29.663 2.782 Q 29.369 3.001 29.369 3.313 L 28.551 3.313 A 1.041 1.041 0 0 1 28.676 2.825 A 1.409 1.409 0 0 1 28.804 2.626 Q 29.057 2.294 29.49 2.101 A 2.249 2.249 0 0 1 30.265 1.913 A 2.669 2.669 0 0 1 30.441 1.907 A 2.65 2.65 0 0 1 30.958 1.955 Q 31.266 2.016 31.504 2.156 A 1.439 1.439 0 0 1 31.729 2.318 A 1.396 1.396 0 0 1 32.182 3.144 A 1.998 1.998 0 0 1 32.212 3.45 L 32.212 5.638 Q 32.212 6.073 32.286 6.39 A 1.707 1.707 0 0 0 32.379 6.68 L 32.379 6.75 Z M 160.805 6.75 L 159.952 6.75 A 0.632 0.632 0 0 1 159.917 6.66 Q 159.885 6.562 159.861 6.41 A 3.997 3.997 0 0 1 159.838 6.249 Q 159.271 6.838 158.484 6.838 A 2.033 2.033 0 0 1 157.955 6.772 A 1.529 1.529 0 0 1 157.331 6.44 Q 156.88 6.042 156.88 5.432 Q 156.88 4.689 157.445 4.278 Q 158.01 3.867 159.034 3.867 L 159.825 3.867 L 159.825 3.494 A 1.152 1.152 0 0 0 159.789 3.199 A 0.828 0.828 0 0 0 159.57 2.815 Q 159.354 2.6 158.963 2.568 A 1.748 1.748 0 0 0 158.818 2.562 Q 158.383 2.562 158.089 2.782 Q 157.794 3.001 157.794 3.313 L 156.977 3.313 A 1.041 1.041 0 0 1 157.102 2.825 A 1.409 1.409 0 0 1 157.23 2.626 Q 157.482 2.294 157.915 2.101 A 2.249 2.249 0 0 1 158.691 1.913 A 2.669 2.669 0 0 1 158.867 1.907 A 2.65 2.65 0 0 1 159.384 1.955 Q 159.691 2.016 159.93 2.156 A 1.439 1.439 0 0 1 160.154 2.318 A 1.396 1.396 0 0 1 160.608 3.144 A 1.998 1.998 0 0 1 160.638 3.45 L 160.638 5.638 Q 160.638 6.073 160.711 6.39 A 1.707 1.707 0 0 0 160.805 6.68 L 160.805 6.75 Z M 14.577 4.355 L 14.577 4.425 Q 14.577 5.308 14.248 5.909 A 2.141 2.141 0 0 1 14.076 6.177 A 1.647 1.647 0 0 1 13.489 6.673 Q 13.174 6.828 12.783 6.837 A 2.112 2.112 0 0 1 12.731 6.838 A 2.039 2.039 0 0 1 12.136 6.756 A 1.561 1.561 0 0 1 11.338 6.201 L 11.298 6.75 L 10.551 6.75 L 10.551 0 L 11.364 0 L 11.364 2.518 A 1.605 1.605 0 0 1 12.531 1.915 A 2.285 2.285 0 0 1 12.722 1.907 A 1.835 1.835 0 0 1 13.353 2.011 A 1.579 1.579 0 0 1 14.082 2.562 Q 14.496 3.11 14.564 3.998 A 4.727 4.727 0 0 1 14.577 4.355 Z M 65.94 4.395 L 65.94 4.333 A 3.762 3.762 0 0 1 66.007 3.602 Q 66.095 3.16 66.297 2.812 A 2.148 2.148 0 0 1 66.458 2.573 Q 66.977 1.907 67.816 1.907 A 1.964 1.964 0 0 1 68.414 1.994 A 1.559 1.559 0 0 1 69.139 2.479 L 69.139 0 L 69.952 0 L 69.952 6.75 L 69.205 6.75 L 69.166 6.24 Q 68.678 6.838 67.808 6.838 A 1.6 1.6 0 0 1 66.587 6.31 A 2.078 2.078 0 0 1 66.461 6.161 A 2.405 2.405 0 0 1 66.036 5.255 Q 65.952 4.912 65.941 4.51 A 4.425 4.425 0 0 1 65.94 4.395 Z M 37.753 4.504 L 37.753 4.355 A 3.17 3.17 0 0 1 37.83 3.646 A 2.581 2.581 0 0 1 38.024 3.092 A 2.191 2.191 0 0 1 38.471 2.466 A 2.033 2.033 0 0 1 38.78 2.221 Q 39.265 1.907 39.832 1.907 A 2.254 2.254 0 0 1 40.445 1.986 A 1.639 1.639 0 0 1 41.273 2.518 Q 41.788 3.129 41.788 4.267 L 41.788 4.605 L 38.566 4.605 A 2.111 2.111 0 0 0 38.637 5.114 A 1.516 1.516 0 0 0 38.977 5.741 A 1.282 1.282 0 0 0 39.911 6.173 A 1.652 1.652 0 0 0 39.977 6.174 A 1.763 1.763 0 0 0 40.305 6.145 Q 40.529 6.103 40.707 5.999 A 1.827 1.827 0 0 0 41.215 5.551 A 2.068 2.068 0 0 0 41.229 5.533 L 41.726 5.919 A 1.926 1.926 0 0 1 40.326 6.811 A 2.749 2.749 0 0 1 39.933 6.838 A 2.394 2.394 0 0 1 39.182 6.725 A 1.974 1.974 0 0 1 38.36 6.203 Q 37.753 5.568 37.753 4.504 Z M 85.75 4.504 L 85.75 4.355 A 3.17 3.17 0 0 1 85.827 3.646 A 2.581 2.581 0 0 1 86.021 3.092 A 2.191 2.191 0 0 1 86.468 2.466 A 2.033 2.033 0 0 1 86.777 2.221 Q 87.262 1.907 87.829 1.907 A 2.254 2.254 0 0 1 88.442 1.986 A 1.639 1.639 0 0 1 89.271 2.518 Q 89.785 3.129 89.785 4.267 L 89.785 4.605 L 86.563 4.605 A 2.111 2.111 0 0 0 86.635 5.114 A 1.516 1.516 0 0 0 86.974 5.741 A 1.282 1.282 0 0 0 87.908 6.173 A 1.652 1.652 0 0 0 87.974 6.174 A 1.763 1.763 0 0 0 88.302 6.145 Q 88.526 6.103 88.704 5.999 A 1.827 1.827 0 0 0 89.212 5.551 A 2.068 2.068 0 0 0 89.227 5.533 L 89.723 5.919 A 1.926 1.926 0 0 1 88.323 6.811 A 2.749 2.749 0 0 1 87.93 6.838 A 2.394 2.394 0 0 1 87.179 6.725 A 1.974 1.974 0 0 1 86.357 6.203 Q 85.75 5.568 85.75 4.504 Z M 142.128 0.352 L 142.128 4.601 L 143.016 4.601 L 143.016 5.265 L 142.128 5.265 L 142.128 6.75 L 141.311 6.75 L 141.311 5.265 L 138.397 5.265 L 138.397 4.786 L 141.262 0.352 L 142.128 0.352 Z M 153.013 6.75 L 151.242 6.75 L 151.242 0.352 L 153.048 0.352 Q 153.883 0.352 154.525 0.721 Q 155.167 1.09 155.516 1.771 A 3.19 3.19 0 0 1 155.833 2.8 A 4.073 4.073 0 0 1 155.87 3.335 L 155.87 3.744 Q 155.87 4.649 155.52 5.331 A 2.457 2.457 0 0 1 154.523 6.376 Q 153.875 6.741 153.013 6.75 Z M 147.526 2.592 A 1.544 1.544 0 0 0 147.63 2.021 A 2.226 2.226 0 0 0 147.608 1.707 A 1.566 1.566 0 0 0 147.109 0.738 A 1.754 1.754 0 0 0 146.343 0.333 A 2.443 2.443 0 0 0 145.745 0.264 A 2.539 2.539 0 0 0 145.235 0.312 A 1.767 1.767 0 0 0 144.378 0.738 Q 143.859 1.213 143.859 2.021 A 1.808 1.808 0 0 0 143.86 2.058 A 1.499 1.499 0 0 0 144.105 2.87 A 1.626 1.626 0 0 0 144.267 3.077 A 1.726 1.726 0 0 0 144.778 3.454 A 2.119 2.119 0 0 0 144.678 3.5 A 1.738 1.738 0 0 0 143.993 4.087 A 1.629 1.629 0 0 0 143.71 5.023 A 2.272 2.272 0 0 0 143.72 5.237 A 1.63 1.63 0 0 0 144.266 6.344 A 1.895 1.895 0 0 0 145.116 6.771 A 2.797 2.797 0 0 0 145.745 6.838 A 2.796 2.796 0 0 0 146.344 6.777 A 1.925 1.925 0 0 0 147.219 6.346 A 1.578 1.578 0 0 0 147.694 5.62 A 1.989 1.989 0 0 0 147.779 5.023 A 1.581 1.581 0 0 0 147.487 4.087 Q 147.195 3.674 146.694 3.458 Q 147.125 3.248 147.377 2.874 A 1.449 1.449 0 0 0 147.526 2.592 Z M 130.074 3.353 L 130.074 3.757 A 4.729 4.729 0 0 1 130.009 4.56 A 3.455 3.455 0 0 1 129.757 5.399 A 2.648 2.648 0 0 1 129.361 6.033 A 2.226 2.226 0 0 1 128.861 6.469 A 2.362 2.362 0 0 1 127.842 6.82 A 2.993 2.993 0 0 1 127.507 6.838 A 2.618 2.618 0 0 1 126.701 6.717 A 2.313 2.313 0 0 1 126.167 6.467 A 2.392 2.392 0 0 1 125.367 5.615 A 2.953 2.953 0 0 1 125.26 5.407 A 3.426 3.426 0 0 1 124.983 4.489 A 4.535 4.535 0 0 1 124.928 3.814 L 124.928 3.353 A 4.52 4.52 0 0 1 125.003 2.51 A 3.461 3.461 0 0 1 125.249 1.723 Q 125.569 1.015 126.156 0.639 A 2.389 2.389 0 0 1 127.312 0.27 A 2.92 2.92 0 0 1 127.499 0.264 A 2.702 2.702 0 0 1 128.275 0.372 A 2.318 2.318 0 0 1 128.854 0.635 A 2.31 2.31 0 0 1 129.628 1.456 A 2.912 2.912 0 0 1 129.757 1.712 A 3.525 3.525 0 0 1 130.017 2.604 A 4.763 4.763 0 0 1 130.074 3.353 Z M 83.307 0.844 L 84.12 0.844 L 84.12 1.995 L 85.008 1.995 L 85.008 2.624 L 84.12 2.624 L 84.12 5.572 Q 84.12 5.858 84.239 6.001 Q 84.357 6.144 84.643 6.144 A 1.046 1.046 0 0 0 84.741 6.138 Q 84.843 6.129 84.983 6.101 A 4.024 4.024 0 0 0 85.03 6.091 L 85.03 6.75 A 2.463 2.463 0 0 1 84.597 6.829 A 2.157 2.157 0 0 1 84.406 6.838 Q 83.959 6.838 83.692 6.616 A 0.856 0.856 0 0 1 83.584 6.508 Q 83.357 6.238 83.316 5.78 A 2.351 2.351 0 0 1 83.307 5.572 L 83.307 2.624 L 82.441 2.624 L 82.441 1.995 L 83.307 1.995 L 83.307 0.844 Z M 54.743 0 L 54.743 6.75 L 53.93 6.75 L 53.93 0 L 54.743 0 Z M 5.203 4.386 L 5.203 4.329 A 3.057 3.057 0 0 1 5.29 3.587 A 2.573 2.573 0 0 1 5.478 3.072 A 2.16 2.16 0 0 1 5.892 2.486 A 1.957 1.957 0 0 1 6.242 2.21 A 2.036 2.036 0 0 1 7.187 1.913 A 2.491 2.491 0 0 1 7.361 1.907 A 2.277 2.277 0 0 1 8.114 2.027 A 1.937 1.937 0 0 1 8.932 2.58 A 2.29 2.29 0 0 1 9.451 3.608 A 3.373 3.373 0 0 1 9.532 4.368 L 9.532 4.425 A 3.114 3.114 0 0 1 9.452 5.142 A 2.577 2.577 0 0 1 9.266 5.671 A 2.056 2.056 0 0 1 8.739 6.361 A 2.001 2.001 0 0 1 8.506 6.53 A 2.045 2.045 0 0 1 7.586 6.829 A 2.529 2.529 0 0 1 7.37 6.838 A 2.262 2.262 0 0 1 6.619 6.718 A 1.938 1.938 0 0 1 5.803 6.166 A 2.297 2.297 0 0 1 5.277 5.111 A 3.357 3.357 0 0 1 5.203 4.386 Z M 15.385 4.386 L 15.385 4.329 A 3.057 3.057 0 0 1 15.472 3.587 A 2.573 2.573 0 0 1 15.66 3.072 A 2.16 2.16 0 0 1 16.075 2.486 A 1.957 1.957 0 0 1 16.425 2.21 A 2.036 2.036 0 0 1 17.369 1.913 A 2.491 2.491 0 0 1 17.543 1.907 A 2.277 2.277 0 0 1 18.296 2.027 A 1.937 1.937 0 0 1 19.114 2.58 A 2.29 2.29 0 0 1 19.633 3.608 A 3.373 3.373 0 0 1 19.714 4.368 L 19.714 4.425 A 3.114 3.114 0 0 1 19.634 5.142 A 2.577 2.577 0 0 1 19.448 5.671 A 2.056 2.056 0 0 1 18.921 6.361 A 2.001 2.001 0 0 1 18.688 6.53 A 2.045 2.045 0 0 1 17.768 6.829 A 2.529 2.529 0 0 1 17.552 6.838 A 2.262 2.262 0 0 1 16.801 6.718 A 1.938 1.938 0 0 1 15.985 6.166 A 2.297 2.297 0 0 1 15.459 5.111 A 3.357 3.357 0 0 1 15.385 4.386 Z M 55.828 4.386 L 55.828 4.329 A 3.057 3.057 0 0 1 55.915 3.587 A 2.573 2.573 0 0 1 56.103 3.072 A 2.16 2.16 0 0 1 56.517 2.486 A 1.957 1.957 0 0 1 56.867 2.21 A 2.036 2.036 0 0 1 57.812 1.913 A 2.491 2.491 0 0 1 57.986 1.907 A 2.277 2.277 0 0 1 58.739 2.027 A 1.937 1.937 0 0 1 59.557 2.58 A 2.29 2.29 0 0 1 60.076 3.608 A 3.373 3.373 0 0 1 60.157 4.368 L 60.157 4.425 A 3.114 3.114 0 0 1 60.077 5.142 A 2.577 2.577 0 0 1 59.891 5.671 A 2.056 2.056 0 0 1 59.364 6.361 A 2.001 2.001 0 0 1 59.131 6.53 A 2.045 2.045 0 0 1 58.211 6.829 A 2.529 2.529 0 0 1 57.995 6.838 A 2.262 2.262 0 0 1 57.244 6.718 A 1.938 1.938 0 0 1 56.428 6.166 A 2.297 2.297 0 0 1 55.902 5.111 A 3.357 3.357 0 0 1 55.828 4.386 Z M 102.3 4.386 L 102.3 4.329 A 3.057 3.057 0 0 1 102.387 3.587 A 2.573 2.573 0 0 1 102.575 3.072 A 2.16 2.16 0 0 1 102.99 2.486 A 1.957 1.957 0 0 1 103.34 2.21 A 2.036 2.036 0 0 1 104.284 1.913 A 2.491 2.491 0 0 1 104.458 1.907 A 2.277 2.277 0 0 1 105.211 2.027 A 1.937 1.937 0 0 1 106.029 2.58 A 2.29 2.29 0 0 1 106.548 3.608 A 3.373 3.373 0 0 1 106.629 4.368 L 106.629 4.425 A 3.114 3.114 0 0 1 106.549 5.142 A 2.577 2.577 0 0 1 106.363 5.671 A 2.056 2.056 0 0 1 105.836 6.361 A 2.001 2.001 0 0 1 105.603 6.53 A 2.045 2.045 0 0 1 104.683 6.829 A 2.529 2.529 0 0 1 104.467 6.838 A 2.262 2.262 0 0 1 103.716 6.718 A 1.938 1.938 0 0 1 102.9 6.166 A 2.297 2.297 0 0 1 102.374 5.111 A 3.357 3.357 0 0 1 102.3 4.386 Z M 45.026 1.969 L 45.026 2.725 A 2.251 2.251 0 0 0 44.784 2.698 A 2.782 2.782 0 0 0 44.626 2.694 Q 43.849 2.694 43.557 3.338 A 1.445 1.445 0 0 0 43.541 3.375 L 43.541 6.75 L 42.728 6.75 L 42.728 1.995 L 43.519 1.995 L 43.532 2.544 Q 43.913 1.938 44.595 1.909 A 1.636 1.636 0 0 1 44.666 1.907 Q 44.903 1.907 45.026 1.969 Z M 164.21 1.969 L 164.21 2.725 A 2.251 2.251 0 0 0 163.968 2.698 A 2.782 2.782 0 0 0 163.811 2.694 Q 163.033 2.694 162.741 3.338 A 1.445 1.445 0 0 0 162.725 3.375 L 162.725 6.75 L 161.912 6.75 L 161.912 1.995 L 162.703 1.995 L 162.716 2.544 Q 163.097 1.938 163.779 1.909 A 1.636 1.636 0 0 1 163.85 1.907 Q 164.087 1.907 164.21 1.969 Z M 153.07 1.046 L 152.086 1.046 L 152.086 6.06 L 152.974 6.06 A 2.519 2.519 0 0 0 153.606 5.985 A 1.747 1.747 0 0 0 154.492 5.454 Q 154.951 4.94 155.022 4.059 A 4.165 4.165 0 0 0 155.035 3.727 L 155.035 3.353 Q 155.035 2.562 154.765 2.027 A 1.864 1.864 0 0 0 154.523 1.659 A 1.687 1.687 0 0 0 153.527 1.09 A 2.499 2.499 0 0 0 153.07 1.046 Z M 129.234 3.819 L 129.234 3.344 A 4.551 4.551 0 0 0 129.19 2.685 Q 129.141 2.35 129.038 2.078 A 1.944 1.944 0 0 0 128.777 1.597 Q 128.32 0.989 127.499 0.989 Q 126.699 0.989 126.24 1.597 A 2.112 2.112 0 0 0 125.915 2.246 Q 125.827 2.527 125.791 2.864 A 4.531 4.531 0 0 0 125.767 3.287 L 125.767 3.757 A 4.254 4.254 0 0 0 125.817 4.43 Q 125.874 4.789 125.998 5.079 A 2.039 2.039 0 0 0 126.231 5.491 A 1.472 1.472 0 0 0 127.298 6.11 A 1.931 1.931 0 0 0 127.507 6.122 A 1.79 1.79 0 0 0 128.066 6.039 A 1.423 1.423 0 0 0 128.773 5.526 A 2.017 2.017 0 0 0 129.074 4.932 Q 129.227 4.462 129.234 3.819 Z M 101.215 1.995 L 101.215 6.75 L 100.402 6.75 L 100.402 1.995 L 101.215 1.995 Z M 6.021 4.425 A 2.772 2.772 0 0 0 6.068 4.954 Q 6.128 5.264 6.266 5.51 A 1.545 1.545 0 0 0 6.387 5.695 Q 6.754 6.174 7.37 6.174 A 1.269 1.269 0 0 0 7.859 6.083 Q 8.138 5.967 8.341 5.706 A 1.471 1.471 0 0 0 8.354 5.689 A 1.648 1.648 0 0 0 8.609 5.171 Q 8.678 4.945 8.703 4.672 A 3.655 3.655 0 0 0 8.719 4.329 A 2.687 2.687 0 0 0 8.668 3.789 Q 8.6 3.459 8.443 3.2 A 1.586 1.586 0 0 0 8.347 3.061 A 1.231 1.231 0 0 0 7.932 2.705 Q 7.679 2.575 7.361 2.575 Q 6.771 2.575 6.405 3.035 A 1.515 1.515 0 0 0 6.39 3.054 A 1.589 1.589 0 0 0 6.138 3.552 Q 6.068 3.772 6.04 4.039 A 3.676 3.676 0 0 0 6.021 4.425 Z M 16.203 4.425 A 2.772 2.772 0 0 0 16.25 4.954 Q 16.31 5.264 16.448 5.51 A 1.545 1.545 0 0 0 16.57 5.695 Q 16.937 6.174 17.552 6.174 A 1.269 1.269 0 0 0 18.041 6.083 Q 18.321 5.967 18.523 5.706 A 1.471 1.471 0 0 0 18.536 5.689 A 1.648 1.648 0 0 0 18.791 5.171 Q 18.86 4.945 18.885 4.672 A 3.655 3.655 0 0 0 18.901 4.329 A 2.687 2.687 0 0 0 18.85 3.789 Q 18.782 3.459 18.625 3.2 A 1.586 1.586 0 0 0 18.53 3.061 A 1.231 1.231 0 0 0 18.114 2.705 Q 17.861 2.575 17.543 2.575 Q 16.953 2.575 16.587 3.035 A 1.515 1.515 0 0 0 16.572 3.054 A 1.589 1.589 0 0 0 16.32 3.552 Q 16.25 3.772 16.222 4.039 A 3.676 3.676 0 0 0 16.203 4.425 Z M 56.646 4.425 A 2.772 2.772 0 0 0 56.693 4.954 Q 56.753 5.264 56.891 5.51 A 1.545 1.545 0 0 0 57.012 5.695 Q 57.379 6.174 57.995 6.174 A 1.269 1.269 0 0 0 58.484 6.083 Q 58.763 5.967 58.966 5.706 A 1.471 1.471 0 0 0 58.979 5.689 A 1.648 1.648 0 0 0 59.234 5.171 Q 59.303 4.945 59.328 4.672 A 3.655 3.655 0 0 0 59.344 4.329 A 2.687 2.687 0 0 0 59.293 3.789 Q 59.225 3.459 59.068 3.2 A 1.586 1.586 0 0 0 58.972 3.061 A 1.231 1.231 0 0 0 58.557 2.705 Q 58.304 2.575 57.986 2.575 Q 57.396 2.575 57.03 3.035 A 1.515 1.515 0 0 0 57.015 3.054 A 1.589 1.589 0 0 0 56.763 3.552 Q 56.693 3.772 56.665 4.039 A 3.676 3.676 0 0 0 56.646 4.425 Z M 103.118 4.425 A 2.772 2.772 0 0 0 103.165 4.954 Q 103.225 5.264 103.363 5.51 A 1.545 1.545 0 0 0 103.485 5.695 Q 103.852 6.174 104.467 6.174 A 1.269 1.269 0 0 0 104.956 6.083 Q 105.236 5.967 105.438 5.706 A 1.471 1.471 0 0 0 105.451 5.689 A 1.648 1.648 0 0 0 105.706 5.171 Q 105.775 4.945 105.8 4.672 A 3.655 3.655 0 0 0 105.816 4.329 A 2.687 2.687 0 0 0 105.765 3.789 Q 105.697 3.459 105.54 3.2 A 1.586 1.586 0 0 0 105.445 3.061 A 1.231 1.231 0 0 0 105.03 2.705 Q 104.776 2.575 104.458 2.575 Q 103.868 2.575 103.502 3.035 A 1.515 1.515 0 0 0 103.487 3.054 A 1.589 1.589 0 0 0 103.235 3.552 Q 103.165 3.772 103.137 4.039 A 3.676 3.676 0 0 0 103.118 4.425 Z M 69.139 5.454 L 69.139 3.27 A 1.375 1.375 0 0 0 68.827 2.874 Q 68.504 2.597 68.019 2.597 A 1.238 1.238 0 0 0 67.592 2.668 A 1.068 1.068 0 0 0 67.087 3.059 A 1.51 1.51 0 0 0 66.878 3.484 Q 66.812 3.689 66.781 3.939 A 3.955 3.955 0 0 0 66.753 4.425 A 3.162 3.162 0 0 0 66.789 4.918 Q 66.83 5.178 66.918 5.389 A 1.474 1.474 0 0 0 67.087 5.691 A 1.06 1.06 0 0 0 67.849 6.139 A 1.391 1.391 0 0 0 68.01 6.148 Q 68.783 6.148 69.139 5.454 Z M 11.364 3.344 L 11.364 5.401 A 1.528 1.528 0 0 0 11.65 5.807 Q 11.973 6.127 12.463 6.147 A 1.621 1.621 0 0 0 12.529 6.148 A 1.206 1.206 0 0 0 12.946 6.079 A 1.04 1.04 0 0 0 13.438 5.695 Q 13.764 5.243 13.764 4.333 Q 13.764 3.502 13.443 3.05 A 1.03 1.03 0 0 0 12.693 2.607 A 1.449 1.449 0 0 0 12.52 2.597 A 1.34 1.34 0 0 0 12.011 2.69 Q 11.592 2.86 11.364 3.344 Z M 0.848 1.046 L 0.848 3.472 L 2.145 3.472 Q 2.685 3.472 3.035 3.231 A 1.174 1.174 0 0 0 3.144 3.146 A 1.069 1.069 0 0 0 3.51 2.409 A 1.486 1.486 0 0 0 3.516 2.276 Q 3.516 1.734 3.22 1.423 A 1 1 0 0 0 3.162 1.367 Q 2.808 1.05 2.14 1.046 L 0.848 1.046 Z M 120.454 1.046 L 120.454 3.472 L 121.75 3.472 Q 122.291 3.472 122.641 3.231 A 1.174 1.174 0 0 0 122.75 3.146 A 1.069 1.069 0 0 0 123.116 2.409 A 1.486 1.486 0 0 0 123.122 2.276 Q 123.122 1.734 122.826 1.423 A 1 1 0 0 0 122.768 1.367 Q 122.414 1.05 121.746 1.046 L 120.454 1.046 Z M 141.214 1.639 L 139.32 4.601 L 141.311 4.601 L 141.311 1.463 L 141.214 1.639 Z M 146.966 5.005 A 1.375 1.375 0 0 0 146.907 4.592 A 1.109 1.109 0 0 0 146.626 4.131 A 1.148 1.148 0 0 0 145.954 3.807 A 1.593 1.593 0 0 0 145.736 3.792 A 1.466 1.466 0 0 0 145.347 3.841 A 1.086 1.086 0 0 0 144.855 4.126 A 1.123 1.123 0 0 0 144.541 4.762 A 1.572 1.572 0 0 0 144.523 5.005 A 1.48 1.48 0 0 0 144.565 5.367 A 1.019 1.019 0 0 0 144.846 5.862 Q 145.152 6.158 145.685 6.173 A 2.053 2.053 0 0 0 145.745 6.174 Q 146.238 6.174 146.548 5.94 A 1.018 1.018 0 0 0 146.641 5.86 A 1.041 1.041 0 0 0 146.94 5.292 A 1.518 1.518 0 0 0 146.966 5.005 Z M 145.745 0.932 A 1.259 1.259 0 0 0 145.392 0.979 A 0.973 0.973 0 0 0 144.969 1.228 Q 144.672 1.525 144.672 2.035 A 1.325 1.325 0 0 0 144.717 2.387 A 0.994 0.994 0 0 0 144.965 2.823 A 0.974 0.974 0 0 0 145.527 3.108 A 1.382 1.382 0 0 0 145.745 3.125 A 1.279 1.279 0 0 0 146.089 3.08 A 0.952 0.952 0 0 0 146.525 2.823 A 1.018 1.018 0 0 0 146.8 2.26 A 1.426 1.426 0 0 0 146.817 2.035 A 1.282 1.282 0 0 0 146.767 1.668 A 1.013 1.013 0 0 0 146.514 1.239 Q 146.21 0.932 145.745 0.932 Z M 31.399 5.418 L 31.399 4.443 L 30.762 4.443 Q 29.268 4.443 29.268 5.317 Q 29.268 5.7 29.522 5.915 A 0.893 0.893 0 0 0 29.936 6.108 A 1.259 1.259 0 0 0 30.177 6.13 A 1.429 1.429 0 0 0 30.902 5.933 A 1.335 1.335 0 0 0 31.198 5.705 A 1.108 1.108 0 0 0 31.399 5.418 Z M 159.825 5.418 L 159.825 4.443 L 159.188 4.443 Q 157.693 4.443 157.693 5.317 Q 157.693 5.7 157.948 5.915 A 0.893 0.893 0 0 0 158.362 6.108 A 1.259 1.259 0 0 0 158.603 6.13 A 1.429 1.429 0 0 0 159.328 5.933 A 1.335 1.335 0 0 0 159.624 5.705 A 1.108 1.108 0 0 0 159.825 5.418 Z M 38.593 3.938 L 40.975 3.938 L 40.975 3.876 Q 40.949 3.417 40.778 3.111 A 1.13 1.13 0 0 0 40.641 2.916 A 0.983 0.983 0 0 0 39.986 2.584 A 1.39 1.39 0 0 0 39.832 2.575 A 1.106 1.106 0 0 0 39.31 2.698 A 1.14 1.14 0 0 0 39.006 2.933 A 1.417 1.417 0 0 0 38.729 3.379 Q 38.656 3.563 38.616 3.785 A 2.741 2.741 0 0 0 38.593 3.938 Z M 86.59 3.938 L 88.972 3.938 L 88.972 3.876 Q 88.946 3.417 88.775 3.111 A 1.13 1.13 0 0 0 88.638 2.916 A 0.983 0.983 0 0 0 87.983 2.584 A 1.39 1.39 0 0 0 87.829 2.575 A 1.106 1.106 0 0 0 87.307 2.698 A 1.14 1.14 0 0 0 87.003 2.933 A 1.417 1.417 0 0 0 86.726 3.379 Q 86.653 3.563 86.613 3.785 A 2.741 2.741 0 0 0 86.59 3.938 Z M 100.336 0.734 Q 100.336 0.536 100.457 0.4 Q 100.569 0.274 100.78 0.264 A 0.783 0.783 0 0 1 100.815 0.264 Q 101.052 0.264 101.175 0.4 A 0.474 0.474 0 0 1 101.298 0.703 A 0.614 0.614 0 0 1 101.298 0.734 A 0.523 0.523 0 0 1 101.273 0.9 A 0.442 0.442 0 0 1 101.175 1.063 Q 101.063 1.184 100.855 1.194 A 0.803 0.803 0 0 1 100.815 1.195 Q 100.643 1.195 100.532 1.126 A 0.362 0.362 0 0 1 100.457 1.063 A 0.456 0.456 0 0 1 100.338 0.788 A 0.605 0.605 0 0 1 100.336 0.734 Z" vector-effect="non-scaling-stroke"/></g>
</svgversion="1.0" encoding="UTF-8"?>
<svg width="48px" height="48px" viewBox="0 0 48 48" version="1.1" xmlns="http://www.w3.org/2000/svg" xmlns:xlink="http://www.w3.org/1999/xlink">
    <title>Icon-Resource/Robotics/Res_AWS-RoboMaker_Cloud-Extensions-ROS_48_Dark</title>
    <g id="Icon-Resource/Robotics/Res_AWS-RoboMaker_Cloud-Extensions-ROS_48" stroke="none" stroke-width="1" fill="none" fill-rule="evenodd">
        <path transform="translate(0vw, 0vh), scale(.65)" d="M23.9675,43.2587 C23.4005,43.2587 22.9385,42.7967 22.9385,42.2297 C22.9385,41.6617 23.4005,41.2007 23.9675,41.2007 C24.5345,41.2007 24.9965,41.6617 24.9965,42.2297 C24.9965,42.7967 24.5345,43.2587 23.9675,43.2587 M23.9675,39.2007 C22.2975,39.2007 20.9385,40.5597 20.9385,42.2297 C20.9385,43.8997 22.2975,45.2587 23.9675,45.2587 C25.6375,45.2587 26.9965,43.8997 26.9965,42.2297 C26.9965,40.5597 25.6375,39.2007 23.9675,39.2007 M14.4985,32.4077 C15.0665,32.4077 15.5275,32.8697 15.5275,33.4377 C15.5275,34.0047 15.0665,34.4657 14.4985,34.4657 C13.9315,34.4657 13.4695,34.0047 13.4695,33.4377 C13.4695,32.8697 13.9315,32.4077 14.4985,32.4077 M14.4985,36.4657 C16.1685,36.4657 17.5275,35.1077 17.5275,33.4377 C17.5275,31.7677 16.1685,30.4077 14.4985,30.4077 C12.8285,30.4077 11.4695,31.7677 11.4695,33.4377 C11.4695,35.1077 12.8285,36.4657 14.4985,36.4657 M14.4985,15.5277 C13.9315,15.5277 13.4695,15.0667 13.4695,14.4987 C13.4695,13.9317 13.9315,13.4697 14.4985,13.4697 C15.0665,13.4697 15.5275,13.9317 15.5275,14.4987 C15.5275,15.0667 15.0665,15.5277 14.4985,15.5277 M17.5275,14.4987 C17.5275,12.8287 16.1685,11.4697 14.4985,11.4697 C12.8285,11.4697 11.4695,12.8287 11.4695,14.4987 C11.4695,16.1687 12.8285,17.5277 14.4985,17.5277 C16.1685,17.5277 17.5275,16.1687 17.5275,14.4987 M33.4375,6.7347 C32.8695,6.7347 32.4075,6.2737 32.4075,5.7057 C32.4075,5.1387 32.8695,4.6767 33.4375,4.6767 C34.0045,4.6767 34.4655,5.1387 34.4655,5.7057 C34.4655,6.2737 34.0045,6.7347 33.4375,6.7347 M33.4375,2.6767 C31.7675,2.6767 30.4075,4.0357 30.4075,5.7057 C30.4075,7.3757 31.7675,8.7347 33.4375,8.7347 C35.1075,8.7347 36.4655,7.3757 36.4655,5.7057 C36.4655,4.0357 35.1075,2.6767 33.4375,2.6767 M42.2295,43.2587 C41.6615,43.2587 41.2005,42.7967 41.2005,42.2297 C41.2005,41.6617 41.6615,41.2007 42.2295,41.2007 C42.7965,41.2007 43.2585,41.6617 43.2585,42.2297 C43.2585,42.7967 42.7965,43.2587 42.2295,43.2587 M42.2295,39.2007 C40.5595,39.2007 39.2005,40.5597 39.2005,42.2297 C39.2005,43.8997 40.5595,45.2587 42.2295,45.2587 C43.8995,45.2587 45.2585,43.8997 45.2585,42.2297 C45.2585,40.5597 43.8995,39.2007 42.2295,39.2007 M33.4375,34.4657 C32.8695,34.4657 32.4075,34.0047 32.4075,33.4377 C32.4075,32.8697 32.8695,32.4077 33.4375,32.4077 C34.0045,32.4077 34.4655,32.8697 34.4655,33.4377 C34.4655,34.0047 34.0045,34.4657 33.4375,34.4657 M33.4375,30.4077 C31.7675,30.4077 30.4075,31.7677 30.4075,33.4377 C30.4075,35.1077 31.7675,36.4657 33.4375,36.4657 C35.1075,36.4657 36.4655,35.1077 36.4655,33.4377 C36.4655,31.7677 35.1075,30.4077 33.4375,30.4077 M33.4375,24.9967 C32.8695,24.9967 32.4075,24.5347 32.4075,23.9677 C32.4075,23.4007 32.8695,22.9387 33.4375,22.9387 C34.0045,22.9387 34.4655,23.4007 34.4655,23.9677 C34.4655,24.5347 34.0045,24.9967 33.4375,24.9967 M33.4375,20.9387 C31.7675,20.9387 30.4075,22.2977 30.4075,23.9677 C30.4075,25.6377 31.7675,26.9967 33.4375,26.9967 C35.1075,26.9967 36.4655,25.6377 36.4655,23.9677 C36.4655,22.2977 35.1075,20.9387 33.4375,20.9387 M5.7055,5.3817 C5.8845,5.3817 6.0295,5.5277 6.0295,5.7057 C6.0295,5.8847 5.8845,6.0297 5.7055,6.0297 C5.5275,6.0297 5.3815,5.8847 5.3815,5.7057 C5.3815,5.5277 5.5275,5.3817 5.7055,5.3817 M5.7055,7.3817 C6.6295,7.3817 7.3815,6.6297 7.3815,5.7057 C7.3815,4.7807 6.6295,4.0297 5.7055,4.0297 C4.7805,4.0297 4.0295,4.7807 4.0295,5.7057 C4.0295,6.6297 4.7805,7.3817 5.7055,7.3817 M5.7055,42.5537 C5.5275,42.5537 5.3815,42.4077 5.3815,42.2297 C5.3815,42.0507 5.5275,41.9057 5.7055,41.9057 C5.8845,41.9057 6.0295,42.0507 6.0295,42.2297 C6.0295,42.4077 5.8845,42.5537 5.7055,42.5537 M5.7055,40.5537 C4.7805,40.5537 4.0295,41.3057 4.0295,42.2297 C4.0295,43.1547 4.7805,43.9057 5.7055,43.9057 C6.6295,43.9057 7.3815,43.1547 7.3815,42.2297 C7.3815,41.3057 6.6295,40.5537 5.7055,40.5537 M23.2905,31.8407 C23.4695,31.8407 23.6145,31.9867 23.6145,32.1647 C23.6145,32.3437 23.4695,32.4877 23.2905,32.4877 C23.1125,32.4877 22.9675,32.3437 22.9675,32.1647 C22.9675,31.9867 23.1125,31.8407 23.2905,31.8407 M23.2905,33.8407 C24.2155,33.8407 24.9675,33.0887 24.9675,32.1647 C24.9675,31.2397 24.2155,30.4877 23.2905,30.4877 C22.3665,30.4877 21.6145,31.2397 21.6145,32.1647 C21.6145,33.0887 22.3665,33.8407 23.2905,33.8407 M23.2905,23.6447 C23.4695,23.6447 23.6145,23.7887 23.6145,23.9677 C23.6145,24.1467 23.4695,24.2907 23.2905,24.2907 C23.1125,24.2907 22.9675,24.1467 22.9675,23.9677 C22.9675,23.7887 23.1125,23.6447 23.2905,23.6447 M23.2905,25.6447 C24.2155,25.6447 24.9675,24.8927 24.9675,23.9677 C24.9675,23.0427 24.2155,22.2907 23.2905,22.2907 C22.3665,22.2907 21.6145,23.0427 21.6145,23.9677 C21.6145,24.8927 22.3665,25.6447 23.2905,25.6447 M14.8215,23.9677 C14.8215,24.1467 14.6775,24.2907 14.4985,24.2907 C14.3205,24.2907 14.1745,24.1467 14.1745,23.9677 C14.1745,23.7887 14.3205,23.6447 14.4985,23.6447 C14.6775,23.6447 14.8215,23.7887 14.8215,23.9677 M12.8215,23.9677 C12.8215,24.8927 13.5735,25.6447 14.4985,25.6447 C15.4225,25.6447 16.1745,24.8927 16.1745,23.9677 C16.1745,23.0427 15.4225,22.2907 14.4985,22.2907 C13.5735,22.2907 12.8215,23.0427 12.8215,23.9677 M5.7055,33.7607 C5.5275,33.7607 5.3815,33.6157 5.3815,33.4377 C5.3815,33.2587 5.5275,33.1127 5.7055,33.1127 C5.8845,33.1127 6.0295,33.2587 6.0295,33.4377 C6.0295,33.6157 5.8845,33.7607 5.7055,33.7607 M5.7055,31.7607 C4.7805,31.7607 4.0295,32.5127 4.0295,33.4377 C4.0295,34.3617 4.7805,35.1127 5.7055,35.1127 C6.6295,35.1127 7.3815,34.3617 7.3815,33.4377 C7.3815,32.5127 6.6295,31.7607 5.7055,31.7607 M23.9675,5.3817 C24.1465,5.3817 24.2905,5.5277 24.2905,5.7057 C24.2905,5.8847 24.1465,6.0297 23.9675,6.0297 C23.7885,6.0297 23.6445,5.8847 23.6445,5.7057 C23.6445,5.5277 23.7885,5.3817 23.9675,5.3817 M23.9675,7.3817 C24.8925,7.3817 25.6445,6.6297 25.6445,5.7057 C25.6445,4.7807 24.8925,4.0297 23.9675,4.0297 C23.0425,4.0297 22.2905,4.7807 22.2905,5.7057 C22.2905,6.6297 23.0425,7.3817 23.9675,7.3817 M33.1135,14.4987 C33.1135,14.3207 33.2585,14.1747 33.4375,14.1747 C33.6155,14.1747 33.7605,14.3207 33.7605,14.4987 C33.7605,14.6777 33.6155,14.8217 33.4375,14.8217 C33.2585,14.8217 33.1135,14.6777 33.1135,14.4987 M35.1135,14.4987 C35.1135,13.5737 34.3615,12.8217 33.4375,12.8217 C32.5125,12.8217 31.7605,13.5737 31.7605,14.4987 C31.7605,15.4227 32.5125,16.1747 33.4375,16.1747 C34.3615,16.1747 35.1135,15.4227 35.1135,14.4987 M41.9055,33.4377 C41.9055,33.2587 42.0505,33.1127 42.2295,33.1127 C42.4075,33.1127 42.5535,33.2587 42.5535,33.4377 C42.5535,33.6157 42.4075,33.7607 42.2295,33.7607 C42.0505,33.7607 41.9055,33.6157 41.9055,33.4377 M43.9055,33.4377 C43.9055,32.5127 43.1545,31.7607 42.2295,31.7607 C41.3055,31.7607 40.5535,32.5127 40.5535,33.4377 C40.5535,34.3617 41.3055,35.1127 42.2295,35.1127 C43.1545,35.1127 43.9055,34.3617 43.9055,33.4377 M33.4375,42.5537 C33.2585,42.5537 33.1135,42.4077 33.1135,42.2297 C33.1135,42.0507 33.2585,41.9057 33.4375,41.9057 C33.6155,41.9057 33.7605,42.0507 33.7605,42.2297 C33.7605,42.4077 33.6155,42.5537 33.4375,42.5537 M33.4375,40.5537 C32.5125,40.5537 31.7605,41.3057 31.7605,42.2297 C31.7605,43.1547 32.5125,43.9057 33.4375,43.9057 C34.3615,43.9057 35.1135,43.1547 35.1135,42.2297 C35.1135,41.3057 34.3615,40.5537 33.4375,40.5537 M42.2295,5.3817 C42.4075,5.3817 42.5535,5.5277 42.5535,5.7057 C42.5535,5.8847 42.4075,6.0297 42.2295,6.0297 C42.0505,6.0297 41.9055,5.8847 41.9055,5.7057 C41.9055,5.5277 42.0505,5.3817 42.2295,5.3817 M42.2295,7.3817 C43.1545,7.3817 43.9055,6.6297 43.9055,5.7057 C43.9055,4.7807 43.1545,4.0297 42.2295,4.0297 C41.3055,4.0297 40.5535,4.7807 40.5535,5.7057 C40.5535,6.6297 41.3055,7.3817 42.2295,7.3817 M5.7055,16.2037 C4.7655,16.2037 3.9995,15.4397 3.9995,14.4987 C3.9995,13.5587 4.7655,12.7927 5.7055,12.7927 C6.6465,12.7927 7.4105,13.5587 7.4105,14.4987 C7.4105,15.4397 6.6465,16.2037 5.7055,16.2037 M5.7055,10.7927 C3.6615,10.7927 1.9995,12.4547 1.9995,14.4987 C1.9995,16.5417 3.6615,18.2037 5.7055,18.2037 C7.7485,18.2037 9.4105,16.5417 9.4105,14.4987 C9.4105,12.4547 7.7485,10.7927 5.7055,10.7927 M5.7055,25.6727 C4.7655,25.6727 3.9995,24.9077 3.9995,23.9677 C3.9995,23.0277 4.7655,22.2627 5.7055,22.2627 C6.6465,22.2627 7.4105,23.0277 7.4105,23.9677 C7.4105,24.9077 6.6465,25.6727 5.7055,25.6727 M5.7055,20.2627 C3.6615,20.2627 1.9995,21.9247 1.9995,23.9677 C1.9995,26.0107 3.6615,27.6727 5.7055,27.6727 C7.7485,27.6727 9.4105,26.0107 9.4105,23.9677 C9.4105,21.9247 7.7485,20.2627 5.7055,20.2627 M14.4985,43.9357 C13.5585,43.9357 12.7925,43.1697 12.7925,42.2297 C12.7925,41.2887 13.5585,40.5247 14.4985,40.5247 C15.4395,40.5247 16.2035,41.2887 16.2035,42.2297 C16.2035,43.1697 15.4395,43.9357 14.4985,43.9357 M14.4985,38.5247 C12.4545,38.5247 10.7925,40.1867 10.7925,42.2297 C10.7925,44.2737 12.4545,45.9357 14.4985,45.9357 C16.5415,45.9357 18.2035,44.2737 18.2035,42.2297 C18.2035,40.1867 16.5415,38.5247 14.4985,38.5247 M14.4985,7.4107 C13.5585,7.4107 12.7925,6.6467 12.7925,5.7057 C12.7925,4.7657 13.5585,3.9997 14.4985,3.9997 C15.4395,3.9997 16.2035,4.7657 16.2035,5.7057 C16.2035,6.6467 15.4395,7.4107 14.4985,7.4107 M14.4985,1.9997 C12.4545,1.9997 10.7925,3.6617 10.7925,5.7057 C10.7925,7.7487 12.4545,9.4107 14.4985,9.4107 C16.5415,9.4107 18.2035,7.7487 18.2035,5.7057 C18.2035,3.6617 16.5415,1.9997 14.4985,1.9997 M23.9675,16.2037 C23.0275,16.2037 22.2625,15.4397 22.2625,14.4987 C22.2625,13.5587 23.0275,12.7927 23.9675,12.7927 C24.9075,12.7927 25.6735,13.5587 25.6735,14.4987 C25.6735,15.4397 24.9075,16.2037 23.9675,16.2037 M23.9675,10.7927 C21.9245,10.7927 20.2625,12.4547 20.2625,14.4987 C20.2625,16.5417 21.9245,18.2037 23.9675,18.2037 C26.0115,18.2037 27.6735,16.5417 27.6735,14.4987 C27.6735,12.4547 26.0115,10.7927 23.9675,10.7927 M42.2295,25.6727 C41.2885,25.6727 40.5245,24.9077 40.5245,23.9677 C40.5245,23.0277 41.2885,22.2627 42.2295,22.2627 C43.1695,22.2627 43.9355,23.0277 43.9355,23.9677 C43.9355,24.9077 43.1695,25.6727 42.2295,25.6727 M42.2295,20.2627 C40.1865,20.2627 38.5245,21.9247 38.5245,23.9677 C38.5245,26.0107 40.1865,27.6727 42.2295,27.6727 C44.2735,27.6727 45.9355,26.0107 45.9355,23.9677 C45.9355,21.9247 44.2735,20.2627 42.2295,20.2627 M42.2295,12.7927 C43.1695,12.7927 43.9355,13.5587 43.9355,14.4987 C43.9355,15.4397 43.1695,16.2037 42.2295,16.2037 C41.2885,16.2037 40.5245,15.4397 40.5245,14.4987 C40.5245,13.5587 41.2885,12.7927 42.2295,12.7927 M42.2295,18.2037 C44.2735,18.2037 45.9355,16.5417 45.9355,14.4987 C45.9355,12.4547 44.2735,10.7927 42.2295,10.7927 C40.1865,10.7927 38.5245,12.4547 38.5245,14.4987 C38.5245,16.5417 40.1865,18.2037 42.2295,18.2037" id="AWS-Robo-Maker_Cloud-extensions-ROS_Resource-Icon_light-bg" fill="#000000"></path>
    </g><g transform="translate(33vw, 80vh)" id="svgGroup" stroke-linecap="round" fill-rule="evenodd" font-size="9pt" stroke="#000" stroke-width="0.25mm" fill="#000" style="stroke:#000;stroke-width:0.25mm;fill:#000"><path d="M 23.12 0.088 L 24.13 4.469 L 24.253 5.313 L 24.434 4.553 L 25.699 0.088 L 26.411 0.088 L 27.646 4.553 L 27.822 5.326 L 27.958 4.465 L 28.951 0.088 L 29.799 0.088 L 28.248 6.486 L 27.479 6.486 L 26.161 1.824 L 26.06 1.336 L 25.958 1.824 L 24.592 6.486 L 23.823 6.486 L 22.276 0.088 L 23.12 0.088 Z M 34.98 1.938 L 34.132 1.938 A 1.466 1.466 0 0 0 34.083 1.546 A 1.066 1.066 0 0 0 33.763 1.026 A 1.211 1.211 0 0 0 33.294 0.77 Q 33.042 0.694 32.722 0.694 A 2.286 2.286 0 0 0 32.342 0.724 Q 32.14 0.758 31.977 0.831 A 1.101 1.101 0 0 0 31.748 0.969 A 0.892 0.892 0 0 0 31.403 1.624 A 1.267 1.267 0 0 0 31.399 1.732 A 0.806 0.806 0 0 0 31.667 2.337 A 1.134 1.134 0 0 0 31.731 2.393 A 1.562 1.562 0 0 0 31.969 2.549 Q 32.299 2.73 32.86 2.887 A 8.228 8.228 0 0 1 33.325 3.032 Q 33.56 3.113 33.754 3.2 A 3.297 3.297 0 0 1 34.108 3.382 A 2.342 2.342 0 0 1 34.447 3.626 Q 34.637 3.792 34.759 3.985 A 1.45 1.45 0 0 1 34.776 4.012 A 1.498 1.498 0 0 1 34.972 4.568 A 1.948 1.948 0 0 1 34.994 4.86 A 1.606 1.606 0 0 1 34.871 5.497 Q 34.726 5.838 34.408 6.09 A 1.886 1.886 0 0 1 34.387 6.106 Q 33.781 6.574 32.766 6.574 A 3.023 3.023 0 0 1 31.625 6.36 A 2.917 2.917 0 0 1 31.535 6.322 A 2.383 2.383 0 0 1 31.057 6.044 A 1.874 1.874 0 0 1 30.654 5.629 A 1.689 1.689 0 0 1 30.344 4.632 L 31.192 4.632 A 1.261 1.261 0 0 0 31.262 5.059 A 1.074 1.074 0 0 0 31.621 5.548 Q 32.005 5.85 32.622 5.881 A 2.87 2.87 0 0 0 32.766 5.884 A 2.628 2.628 0 0 0 33.153 5.858 Q 33.349 5.828 33.508 5.767 A 1.129 1.129 0 0 0 33.79 5.612 Q 34.146 5.339 34.146 4.869 A 1.074 1.074 0 0 0 34.103 4.559 A 0.816 0.816 0 0 0 33.816 4.142 Q 33.486 3.885 32.621 3.634 Q 31.535 3.322 31.041 2.868 Q 30.546 2.413 30.546 1.745 Q 30.546 0.989 31.151 0.494 A 2.121 2.121 0 0 1 32.041 0.071 A 3.087 3.087 0 0 1 32.722 0 A 2.913 2.913 0 0 1 33.382 0.072 A 2.372 2.372 0 0 1 33.897 0.255 A 2.051 2.051 0 0 1 34.428 0.626 A 1.834 1.834 0 0 1 34.697 0.958 A 1.798 1.798 0 0 1 34.98 1.938 Z M 3.74 6.486 L 2.351 3.898 L 0.848 3.898 L 0.848 6.486 L 0 6.486 L 0 0.088 L 2.118 0.088 A 3.809 3.809 0 0 1 2.76 0.138 Q 3.102 0.197 3.376 0.324 A 1.789 1.789 0 0 1 3.781 0.58 A 1.588 1.588 0 0 1 4.307 1.469 A 2.453 2.453 0 0 1 4.364 2.013 A 1.864 1.864 0 0 1 4.273 2.604 A 1.64 1.64 0 0 1 4.041 3.054 A 1.849 1.849 0 0 1 3.382 3.611 A 2.342 2.342 0 0 1 3.142 3.718 L 4.645 6.434 L 4.645 6.486 L 3.74 6.486 Z M 13.724 3.129 L 12.907 3.129 Q 12.907 2.795 12.623 2.553 Q 12.34 2.312 11.909 2.312 Q 11.465 2.312 11.215 2.505 A 0.653 0.653 0 0 0 11.04 2.704 Q 10.967 2.835 10.964 3 A 0.771 0.771 0 0 0 10.964 3.01 A 0.588 0.588 0 0 0 10.994 3.203 A 0.48 0.48 0 0 0 11.197 3.454 A 1.093 1.093 0 0 0 11.348 3.533 Q 11.512 3.605 11.767 3.673 A 6.581 6.581 0 0 0 12.039 3.74 A 6.318 6.318 0 0 1 12.446 3.845 Q 12.783 3.944 13.025 4.065 A 1.901 1.901 0 0 1 13.281 4.218 Q 13.418 4.315 13.516 4.429 A 1.06 1.06 0 0 1 13.586 4.52 A 1.024 1.024 0 0 1 13.748 4.927 A 1.388 1.388 0 0 1 13.768 5.168 Q 13.768 5.805 13.258 6.19 Q 12.776 6.554 12.022 6.573 A 3.337 3.337 0 0 1 11.936 6.574 A 2.746 2.746 0 0 1 11.401 6.525 A 2.124 2.124 0 0 1 10.925 6.372 A 1.771 1.771 0 0 1 10.491 6.094 A 1.54 1.54 0 0 1 10.237 5.807 Q 9.989 5.445 9.989 5.023 L 10.802 5.023 A 0.932 0.932 0 0 0 10.875 5.348 A 0.827 0.827 0 0 0 11.129 5.671 A 1.072 1.072 0 0 0 11.531 5.864 Q 11.686 5.903 11.867 5.91 A 2.013 2.013 0 0 0 11.936 5.911 A 1.863 1.863 0 0 0 12.231 5.889 Q 12.393 5.863 12.524 5.806 A 0.941 0.941 0 0 0 12.676 5.724 A 0.689 0.689 0 0 0 12.841 5.574 A 0.554 0.554 0 0 0 12.955 5.225 A 0.698 0.698 0 0 0 12.919 4.994 A 0.581 0.581 0 0 0 12.707 4.713 A 1.05 1.05 0 0 0 12.538 4.615 Q 12.349 4.524 12.054 4.449 A 5.392 5.392 0 0 0 11.841 4.399 A 6.342 6.342 0 0 1 11.48 4.311 Q 11.11 4.209 10.861 4.083 Q 10.562 3.93 10.392 3.731 A 1.017 1.017 0 0 1 10.325 3.643 Q 10.151 3.388 10.151 3.037 A 1.206 1.206 0 0 1 10.55 2.132 A 1.694 1.694 0 0 1 10.646 2.048 A 1.752 1.752 0 0 1 11.429 1.688 A 2.471 2.471 0 0 1 11.909 1.644 A 2.559 2.559 0 0 1 12.473 1.702 A 1.757 1.757 0 0 1 13.221 2.061 Q 13.724 2.479 13.724 3.129 Z M 21.327 6.486 L 20.716 4.816 L 18.035 4.816 L 17.433 6.486 L 16.563 6.486 L 19.006 0.088 L 19.745 0.088 L 22.192 6.486 L 21.327 6.486 Z M 5.212 4.241 L 5.212 4.091 A 3.17 3.17 0 0 1 5.288 3.382 A 2.581 2.581 0 0 1 5.482 2.828 A 2.191 2.191 0 0 1 5.93 2.202 A 2.033 2.033 0 0 1 6.238 1.958 Q 6.724 1.644 7.291 1.644 A 2.254 2.254 0 0 1 7.904 1.723 A 1.639 1.639 0 0 1 8.732 2.254 Q 9.246 2.865 9.246 4.003 L 9.246 4.342 L 6.025 4.342 A 2.111 2.111 0 0 0 6.096 4.85 A 1.516 1.516 0 0 0 6.436 5.478 A 1.282 1.282 0 0 0 7.37 5.909 A 1.652 1.652 0 0 0 7.436 5.911 A 1.763 1.763 0 0 0 7.764 5.882 Q 7.988 5.839 8.165 5.735 A 1.827 1.827 0 0 0 8.674 5.287 A 2.068 2.068 0 0 0 8.688 5.269 L 9.185 5.656 A 1.926 1.926 0 0 1 7.785 6.547 A 2.749 2.749 0 0 1 7.392 6.574 A 2.394 2.394 0 0 1 6.64 6.461 A 1.974 1.974 0 0 1 5.818 5.939 Q 5.212 5.304 5.212 4.241 Z M 0.848 0.782 L 0.848 3.208 L 2.145 3.208 Q 2.685 3.208 3.035 2.968 A 1.174 1.174 0 0 0 3.144 2.883 A 1.069 1.069 0 0 0 3.51 2.146 A 1.486 1.486 0 0 0 3.516 2.013 Q 3.516 1.47 3.22 1.159 A 1 1 0 0 0 3.162 1.103 Q 2.808 0.787 2.14 0.782 L 0.848 0.782 Z M 19.375 1.129 L 18.29 4.122 L 20.465 4.122 L 19.375 1.129 Z M 6.051 3.674 L 8.433 3.674 L 8.433 3.612 Q 8.407 3.153 8.236 2.848 A 1.13 1.13 0 0 0 8.099 2.652 A 0.983 0.983 0 0 0 7.445 2.32 A 1.39 1.39 0 0 0 7.291 2.312 A 1.106 1.106 0 0 0 6.768 2.435 A 1.14 1.14 0 0 0 6.464 2.67 A 1.417 1.417 0 0 0 6.188 3.116 Q 6.114 3.3 6.074 3.522 A 2.741 2.741 0 0 0 6.051 3.674 Z" vector-effect="non-scaling-stroke"/></g><g transform="translate(12vw, 90vh)" id="svgGroup" stroke-linecap="round" fill-rule="evenodd" font-size="9pt" stroke="#000" stroke-width="0.25mm" fill="#000" style="stroke:#000;stroke-width:0.25mm;fill:#000"><path d="M 20.861 0.352 L 21.951 0.352 L 24.042 5.572 L 26.134 0.352 L 27.229 0.352 L 27.229 6.75 L 26.385 6.75 L 26.385 4.258 L 26.464 1.569 L 24.363 6.75 L 23.717 6.75 L 21.621 1.582 L 21.705 4.258 L 21.705 6.75 L 20.861 6.75 L 20.861 0.352 Z M 135.584 2.202 L 134.736 2.202 A 1.466 1.466 0 0 0 134.687 1.809 A 1.066 1.066 0 0 0 134.367 1.29 A 1.211 1.211 0 0 0 133.898 1.033 Q 133.646 0.958 133.326 0.958 A 2.286 2.286 0 0 0 132.946 0.988 Q 132.744 1.022 132.581 1.095 A 1.101 1.101 0 0 0 132.352 1.233 A 0.892 0.892 0 0 0 132.007 1.887 A 1.267 1.267 0 0 0 132.003 1.995 A 0.806 0.806 0 0 0 132.271 2.6 A 1.134 1.134 0 0 0 132.335 2.656 A 1.562 1.562 0 0 0 132.573 2.813 Q 132.903 2.993 133.464 3.151 A 8.228 8.228 0 0 1 133.929 3.295 Q 134.164 3.377 134.358 3.464 A 3.297 3.297 0 0 1 134.712 3.645 A 2.342 2.342 0 0 1 135.051 3.889 Q 135.241 4.056 135.363 4.248 A 1.45 1.45 0 0 1 135.38 4.276 A 1.498 1.498 0 0 1 135.576 4.832 A 1.948 1.948 0 0 1 135.598 5.124 A 1.606 1.606 0 0 1 135.475 5.76 Q 135.33 6.101 135.012 6.354 A 1.886 1.886 0 0 1 134.991 6.37 Q 134.385 6.838 133.37 6.838 A 3.023 3.023 0 0 1 132.229 6.623 A 2.917 2.917 0 0 1 132.139 6.585 A 2.383 2.383 0 0 1 131.661 6.307 A 1.874 1.874 0 0 1 131.258 5.893 A 1.689 1.689 0 0 1 130.948 4.896 L 131.796 4.896 A 1.261 1.261 0 0 0 131.866 5.323 A 1.074 1.074 0 0 0 132.225 5.812 Q 132.609 6.113 133.226 6.144 A 2.87 2.87 0 0 0 133.37 6.148 A 2.628 2.628 0 0 0 133.757 6.121 Q 133.953 6.092 134.112 6.031 A 1.129 1.129 0 0 0 134.394 5.875 Q 134.75 5.603 134.75 5.133 A 1.074 1.074 0 0 0 134.707 4.822 A 0.816 0.816 0 0 0 134.42 4.406 Q 134.09 4.148 133.225 3.898 Q 132.139 3.586 131.645 3.131 Q 131.15 2.676 131.15 2.008 Q 131.15 1.252 131.755 0.758 A 2.121 2.121 0 0 1 132.645 0.335 A 3.087 3.087 0 0 1 133.326 0.264 A 2.913 2.913 0 0 1 133.986 0.336 A 2.372 2.372 0 0 1 134.501 0.519 A 2.051 2.051 0 0 1 135.032 0.889 A 1.834 1.834 0 0 1 135.301 1.222 A 1.798 1.798 0 0 1 135.584 2.202 Z M 77.186 3.103 L 77.186 3.792 L 74.413 3.792 L 74.413 6.06 L 77.634 6.06 L 77.634 6.75 L 73.569 6.75 L 73.569 0.352 L 77.59 0.352 L 77.59 1.046 L 74.413 1.046 L 74.413 3.103 L 77.186 3.103 Z M 51.987 4.72 L 52.835 4.72 A 3.016 3.016 0 0 1 52.674 5.416 A 2.099 2.099 0 0 1 52.086 6.286 Q 51.456 6.838 50.41 6.838 A 2.553 2.553 0 0 1 49.541 6.696 A 2.194 2.194 0 0 1 48.593 6.025 A 2.789 2.789 0 0 1 48.031 4.901 Q 47.924 4.484 47.911 3.992 A 5.262 5.262 0 0 1 47.909 3.85 L 47.909 3.234 A 4.251 4.251 0 0 1 47.979 2.445 A 3.229 3.229 0 0 1 48.228 1.666 A 2.539 2.539 0 0 1 48.683 0.99 A 2.26 2.26 0 0 1 49.131 0.626 A 2.415 2.415 0 0 1 50.157 0.281 A 3.027 3.027 0 0 1 50.484 0.264 A 2.962 2.962 0 0 1 51.19 0.343 A 2.065 2.065 0 0 1 52.119 0.833 A 2.16 2.16 0 0 1 52.714 1.795 A 3.086 3.086 0 0 1 52.835 2.408 L 51.987 2.408 Q 51.918 1.929 51.749 1.616 A 1.223 1.223 0 0 0 51.51 1.301 A 1.207 1.207 0 0 0 51.005 1.024 Q 50.818 0.971 50.595 0.961 A 2.396 2.396 0 0 0 50.484 0.958 A 1.753 1.753 0 0 0 49.906 1.049 A 1.463 1.463 0 0 0 49.217 1.556 A 1.989 1.989 0 0 0 48.903 2.175 Q 48.757 2.636 48.757 3.256 L 48.757 3.876 Q 48.757 4.917 49.192 5.533 A 1.38 1.38 0 0 0 50.191 6.135 A 1.814 1.814 0 0 0 50.41 6.148 A 2.497 2.497 0 0 0 50.817 6.117 Q 51.037 6.08 51.212 6.002 A 1.155 1.155 0 0 0 51.489 5.829 Q 51.864 5.511 51.987 4.72 Z M 36.47 6.75 L 34.813 4.548 L 34.304 5.08 L 34.304 6.75 L 33.491 6.75 L 33.491 0 L 34.304 0 L 34.304 4.083 L 34.739 3.56 L 36.22 1.995 L 37.208 1.995 L 35.358 3.981 L 37.424 6.75 L 36.47 6.75 Z M 167.941 6.75 L 166.285 4.548 L 165.775 5.08 L 165.775 6.75 L 164.962 6.75 L 164.962 0 L 165.775 0 L 165.775 4.083 L 166.21 3.56 L 167.691 1.995 L 168.68 1.995 L 166.83 3.981 L 168.895 6.75 L 167.941 6.75 Z M 3.74 6.75 L 2.351 4.162 L 0.848 4.162 L 0.848 6.75 L 0 6.75 L 0 0.352 L 2.118 0.352 A 3.809 3.809 0 0 1 2.76 0.402 Q 3.102 0.461 3.376 0.587 A 1.789 1.789 0 0 1 3.781 0.844 A 1.588 1.588 0 0 1 4.307 1.732 A 2.453 2.453 0 0 1 4.364 2.276 A 1.864 1.864 0 0 1 4.273 2.868 A 1.64 1.64 0 0 1 4.041 3.318 A 1.849 1.849 0 0 1 3.382 3.875 A 2.342 2.342 0 0 1 3.142 3.981 L 4.645 6.697 L 4.645 6.75 L 3.74 6.75 Z M 123.346 6.75 L 121.957 4.162 L 120.454 4.162 L 120.454 6.75 L 119.606 6.75 L 119.606 0.352 L 121.724 0.352 A 3.809 3.809 0 0 1 122.365 0.402 Q 122.708 0.461 122.981 0.587 A 1.789 1.789 0 0 1 123.387 0.844 A 1.588 1.588 0 0 1 123.913 1.732 A 2.453 2.453 0 0 1 123.97 2.276 A 1.864 1.864 0 0 1 123.879 2.868 A 1.64 1.64 0 0 1 123.647 3.318 A 1.849 1.849 0 0 1 122.988 3.875 A 2.342 2.342 0 0 1 122.748 3.981 L 124.251 6.697 L 124.251 6.75 L 123.346 6.75 Z M 99.229 3.393 L 98.411 3.393 Q 98.411 3.059 98.128 2.817 Q 97.844 2.575 97.414 2.575 Q 96.97 2.575 96.719 2.769 A 0.653 0.653 0 0 0 96.544 2.967 Q 96.471 3.098 96.469 3.263 A 0.771 0.771 0 0 0 96.469 3.274 A 0.588 0.588 0 0 0 96.499 3.467 A 0.48 0.48 0 0 0 96.702 3.718 A 1.093 1.093 0 0 0 96.852 3.796 Q 97.016 3.868 97.272 3.937 A 6.581 6.581 0 0 0 97.543 4.003 A 6.318 6.318 0 0 1 97.951 4.108 Q 98.288 4.208 98.53 4.329 A 1.901 1.901 0 0 1 98.786 4.481 Q 98.923 4.579 99.02 4.692 A 1.06 1.06 0 0 1 99.09 4.783 A 1.024 1.024 0 0 1 99.252 5.191 A 1.388 1.388 0 0 1 99.272 5.432 Q 99.272 6.069 98.763 6.453 Q 98.28 6.817 97.526 6.837 A 3.337 3.337 0 0 1 97.44 6.838 A 2.746 2.746 0 0 1 96.906 6.788 A 2.124 2.124 0 0 1 96.429 6.636 A 1.771 1.771 0 0 1 95.995 6.358 A 1.54 1.54 0 0 1 95.741 6.071 Q 95.493 5.708 95.493 5.287 L 96.306 5.287 A 0.932 0.932 0 0 0 96.38 5.612 A 0.827 0.827 0 0 0 96.634 5.935 A 1.072 1.072 0 0 0 97.036 6.128 Q 97.19 6.167 97.372 6.173 A 2.013 2.013 0 0 0 97.44 6.174 A 1.863 1.863 0 0 0 97.736 6.152 Q 97.897 6.126 98.029 6.07 A 0.941 0.941 0 0 0 98.18 5.988 A 0.689 0.689 0 0 0 98.345 5.837 A 0.554 0.554 0 0 0 98.459 5.489 A 0.698 0.698 0 0 0 98.423 5.258 A 0.581 0.581 0 0 0 98.211 4.977 A 1.05 1.05 0 0 0 98.042 4.878 Q 97.853 4.788 97.559 4.712 A 5.392 5.392 0 0 0 97.345 4.663 A 6.342 6.342 0 0 1 96.984 4.575 Q 96.615 4.473 96.365 4.346 Q 96.067 4.194 95.896 3.994 A 1.017 1.017 0 0 1 95.829 3.907 Q 95.656 3.652 95.656 3.3 A 1.206 1.206 0 0 1 96.055 2.396 A 1.694 1.694 0 0 1 96.15 2.312 A 1.752 1.752 0 0 1 96.933 1.952 A 2.471 2.471 0 0 1 97.414 1.907 A 2.559 2.559 0 0 1 97.977 1.966 A 1.757 1.757 0 0 1 98.725 2.325 Q 99.229 2.742 99.229 3.393 Z M 116.152 3.393 L 115.334 3.393 Q 115.334 3.059 115.051 2.817 Q 114.768 2.575 114.337 2.575 Q 113.893 2.575 113.643 2.769 A 0.653 0.653 0 0 0 113.468 2.967 Q 113.394 3.098 113.392 3.263 A 0.771 0.771 0 0 0 113.392 3.274 A 0.588 0.588 0 0 0 113.422 3.467 A 0.48 0.48 0 0 0 113.625 3.718 A 1.093 1.093 0 0 0 113.775 3.796 Q 113.939 3.868 114.195 3.937 A 6.581 6.581 0 0 0 114.467 4.003 A 6.318 6.318 0 0 1 114.874 4.108 Q 115.211 4.208 115.453 4.329 A 1.901 1.901 0 0 1 115.709 4.481 Q 115.846 4.579 115.943 4.692 A 1.06 1.06 0 0 1 116.013 4.783 A 1.024 1.024 0 0 1 116.176 5.191 A 1.388 1.388 0 0 1 116.196 5.432 Q 116.196 6.069 115.686 6.453 Q 115.204 6.817 114.45 6.837 A 3.337 3.337 0 0 1 114.363 6.838 A 2.746 2.746 0 0 1 113.829 6.788 A 2.124 2.124 0 0 1 113.353 6.636 A 1.771 1.771 0 0 1 112.919 6.358 A 1.54 1.54 0 0 1 112.665 6.071 Q 112.417 5.708 112.417 5.287 L 113.229 5.287 A 0.932 0.932 0 0 0 113.303 5.612 A 0.827 0.827 0 0 0 113.557 5.935 A 1.072 1.072 0 0 0 113.959 6.128 Q 114.114 6.167 114.295 6.173 A 2.013 2.013 0 0 0 114.363 6.174 A 1.863 1.863 0 0 0 114.659 6.152 Q 114.82 6.126 114.952 6.07 A 0.941 0.941 0 0 0 115.104 5.988 A 0.689 0.689 0 0 0 115.268 5.837 A 0.554 0.554 0 0 0 115.383 5.489 A 0.698 0.698 0 0 0 115.346 5.258 A 0.581 0.581 0 0 0 115.135 4.977 A 1.05 1.05 0 0 0 114.966 4.878 Q 114.777 4.788 114.482 4.712 A 5.392 5.392 0 0 0 114.269 4.663 A 6.342 6.342 0 0 1 113.908 4.575 Q 113.538 4.473 113.289 4.346 Q 112.99 4.194 112.82 3.994 A 1.017 1.017 0 0 1 112.753 3.907 Q 112.579 3.652 112.579 3.3 A 1.206 1.206 0 0 1 112.978 2.396 A 1.694 1.694 0 0 1 113.073 2.312 A 1.752 1.752 0 0 1 113.857 1.952 A 2.471 2.471 0 0 1 114.337 1.907 A 2.559 2.559 0 0 1 114.9 1.966 A 1.757 1.757 0 0 1 115.649 2.325 Q 116.152 2.742 116.152 3.393 Z M 90.725 1.995 L 91.494 1.995 L 91.521 2.593 Q 92.057 1.918 92.917 1.907 A 2.234 2.234 0 0 1 92.944 1.907 A 1.905 1.905 0 0 1 93.578 2.004 Q 94.42 2.3 94.463 3.506 A 3.668 3.668 0 0 1 94.465 3.608 L 94.465 6.75 L 93.652 6.75 L 93.652 3.604 A 1.837 1.837 0 0 0 93.63 3.324 Q 93.579 3.017 93.417 2.843 Q 93.231 2.645 92.877 2.606 A 1.66 1.66 0 0 0 92.698 2.597 A 1.253 1.253 0 0 0 92.284 2.664 A 1.123 1.123 0 0 0 92.004 2.808 A 1.432 1.432 0 0 0 91.538 3.362 L 91.538 6.75 L 90.725 6.75 L 90.725 1.995 Z M 107.648 1.995 L 108.417 1.995 L 108.444 2.593 Q 108.98 1.918 109.84 1.907 A 2.234 2.234 0 0 1 109.868 1.907 A 1.905 1.905 0 0 1 110.501 2.004 Q 111.343 2.3 111.386 3.506 A 3.668 3.668 0 0 1 111.388 3.608 L 111.388 6.75 L 110.575 6.75 L 110.575 3.604 A 1.837 1.837 0 0 0 110.553 3.324 Q 110.503 3.017 110.34 2.843 Q 110.154 2.645 109.801 2.606 A 1.66 1.66 0 0 0 109.622 2.597 A 1.253 1.253 0 0 0 109.207 2.664 A 1.123 1.123 0 0 0 108.927 2.808 A 1.432 1.432 0 0 0 108.461 3.362 L 108.461 6.75 L 107.648 6.75 L 107.648 1.995 Z M 64.129 6.75 L 64.112 6.28 A 1.526 1.526 0 0 1 63.286 6.775 Q 63.035 6.836 62.738 6.838 A 2.996 2.996 0 0 1 62.719 6.838 A 2.086 2.086 0 0 1 62.259 6.79 Q 61.828 6.693 61.561 6.396 A 1.41 1.41 0 0 1 61.278 5.899 Q 61.161 5.556 61.159 5.089 L 61.159 1.995 L 61.972 1.995 L 61.972 5.067 Q 61.972 6.037 62.679 6.137 A 1.229 1.229 0 0 0 62.851 6.148 A 1.927 1.927 0 0 0 63.301 6.099 Q 63.864 5.964 64.09 5.454 L 64.09 1.995 L 64.903 1.995 L 64.903 6.75 L 64.129 6.75 Z M 79.11 1.995 L 80.152 3.731 L 81.207 1.995 L 82.156 1.995 L 80.6 4.346 L 82.204 6.75 L 81.264 6.75 L 80.165 4.97 L 79.066 6.75 L 78.122 6.75 L 79.726 4.346 L 78.17 1.995 L 79.11 1.995 Z M 32.379 6.75 L 31.526 6.75 A 0.632 0.632 0 0 1 31.491 6.66 Q 31.46 6.562 31.435 6.41 A 3.997 3.997 0 0 1 31.412 6.249 Q 30.845 6.838 30.059 6.838 A 2.033 2.033 0 0 1 29.529 6.772 A 1.529 1.529 0 0 1 28.905 6.44 Q 28.455 6.042 28.455 5.432 Q 28.455 4.689 29.019 4.278 Q 29.584 3.867 30.608 3.867 L 31.399 3.867 L 31.399 3.494 A 1.152 1.152 0 0 0 31.363 3.199 A 0.828 0.828 0 0 0 31.144 2.815 Q 30.928 2.6 30.537 2.568 A 1.748 1.748 0 0 0 30.393 2.562 Q 29.958 2.562 29.663 2.782 Q 29.369 3.001 29.369 3.313 L 28.551 3.313 A 1.041 1.041 0 0 1 28.676 2.825 A 1.409 1.409 0 0 1 28.804 2.626 Q 29.057 2.294 29.49 2.101 A 2.249 2.249 0 0 1 30.265 1.913 A 2.669 2.669 0 0 1 30.441 1.907 A 2.65 2.65 0 0 1 30.958 1.955 Q 31.266 2.016 31.504 2.156 A 1.439 1.439 0 0 1 31.729 2.318 A 1.396 1.396 0 0 1 32.182 3.144 A 1.998 1.998 0 0 1 32.212 3.45 L 32.212 5.638 Q 32.212 6.073 32.286 6.39 A 1.707 1.707 0 0 0 32.379 6.68 L 32.379 6.75 Z M 160.805 6.75 L 159.952 6.75 A 0.632 0.632 0 0 1 159.917 6.66 Q 159.885 6.562 159.861 6.41 A 3.997 3.997 0 0 1 159.838 6.249 Q 159.271 6.838 158.484 6.838 A 2.033 2.033 0 0 1 157.955 6.772 A 1.529 1.529 0 0 1 157.331 6.44 Q 156.88 6.042 156.88 5.432 Q 156.88 4.689 157.445 4.278 Q 158.01 3.867 159.034 3.867 L 159.825 3.867 L 159.825 3.494 A 1.152 1.152 0 0 0 159.789 3.199 A 0.828 0.828 0 0 0 159.57 2.815 Q 159.354 2.6 158.963 2.568 A 1.748 1.748 0 0 0 158.818 2.562 Q 158.383 2.562 158.089 2.782 Q 157.794 3.001 157.794 3.313 L 156.977 3.313 A 1.041 1.041 0 0 1 157.102 2.825 A 1.409 1.409 0 0 1 157.23 2.626 Q 157.482 2.294 157.915 2.101 A 2.249 2.249 0 0 1 158.691 1.913 A 2.669 2.669 0 0 1 158.867 1.907 A 2.65 2.65 0 0 1 159.384 1.955 Q 159.691 2.016 159.93 2.156 A 1.439 1.439 0 0 1 160.154 2.318 A 1.396 1.396 0 0 1 160.608 3.144 A 1.998 1.998 0 0 1 160.638 3.45 L 160.638 5.638 Q 160.638 6.073 160.711 6.39 A 1.707 1.707 0 0 0 160.805 6.68 L 160.805 6.75 Z M 14.577 4.355 L 14.577 4.425 Q 14.577 5.308 14.248 5.909 A 2.141 2.141 0 0 1 14.076 6.177 A 1.647 1.647 0 0 1 13.489 6.673 Q 13.174 6.828 12.783 6.837 A 2.112 2.112 0 0 1 12.731 6.838 A 2.039 2.039 0 0 1 12.136 6.756 A 1.561 1.561 0 0 1 11.338 6.201 L 11.298 6.75 L 10.551 6.75 L 10.551 0 L 11.364 0 L 11.364 2.518 A 1.605 1.605 0 0 1 12.531 1.915 A 2.285 2.285 0 0 1 12.722 1.907 A 1.835 1.835 0 0 1 13.353 2.011 A 1.579 1.579 0 0 1 14.082 2.562 Q 14.496 3.11 14.564 3.998 A 4.727 4.727 0 0 1 14.577 4.355 Z M 65.94 4.395 L 65.94 4.333 A 3.762 3.762 0 0 1 66.007 3.602 Q 66.095 3.16 66.297 2.812 A 2.148 2.148 0 0 1 66.458 2.573 Q 66.977 1.907 67.816 1.907 A 1.964 1.964 0 0 1 68.414 1.994 A 1.559 1.559 0 0 1 69.139 2.479 L 69.139 0 L 69.952 0 L 69.952 6.75 L 69.205 6.75 L 69.166 6.24 Q 68.678 6.838 67.808 6.838 A 1.6 1.6 0 0 1 66.587 6.31 A 2.078 2.078 0 0 1 66.461 6.161 A 2.405 2.405 0 0 1 66.036 5.255 Q 65.952 4.912 65.941 4.51 A 4.425 4.425 0 0 1 65.94 4.395 Z M 37.753 4.504 L 37.753 4.355 A 3.17 3.17 0 0 1 37.83 3.646 A 2.581 2.581 0 0 1 38.024 3.092 A 2.191 2.191 0 0 1 38.471 2.466 A 2.033 2.033 0 0 1 38.78 2.221 Q 39.265 1.907 39.832 1.907 A 2.254 2.254 0 0 1 40.445 1.986 A 1.639 1.639 0 0 1 41.273 2.518 Q 41.788 3.129 41.788 4.267 L 41.788 4.605 L 38.566 4.605 A 2.111 2.111 0 0 0 38.637 5.114 A 1.516 1.516 0 0 0 38.977 5.741 A 1.282 1.282 0 0 0 39.911 6.173 A 1.652 1.652 0 0 0 39.977 6.174 A 1.763 1.763 0 0 0 40.305 6.145 Q 40.529 6.103 40.707 5.999 A 1.827 1.827 0 0 0 41.215 5.551 A 2.068 2.068 0 0 0 41.229 5.533 L 41.726 5.919 A 1.926 1.926 0 0 1 40.326 6.811 A 2.749 2.749 0 0 1 39.933 6.838 A 2.394 2.394 0 0 1 39.182 6.725 A 1.974 1.974 0 0 1 38.36 6.203 Q 37.753 5.568 37.753 4.504 Z M 85.75 4.504 L 85.75 4.355 A 3.17 3.17 0 0 1 85.827 3.646 A 2.581 2.581 0 0 1 86.021 3.092 A 2.191 2.191 0 0 1 86.468 2.466 A 2.033 2.033 0 0 1 86.777 2.221 Q 87.262 1.907 87.829 1.907 A 2.254 2.254 0 0 1 88.442 1.986 A 1.639 1.639 0 0 1 89.271 2.518 Q 89.785 3.129 89.785 4.267 L 89.785 4.605 L 86.563 4.605 A 2.111 2.111 0 0 0 86.635 5.114 A 1.516 1.516 0 0 0 86.974 5.741 A 1.282 1.282 0 0 0 87.908 6.173 A 1.652 1.652 0 0 0 87.974 6.174 A 1.763 1.763 0 0 0 88.302 6.145 Q 88.526 6.103 88.704 5.999 A 1.827 1.827 0 0 0 89.212 5.551 A 2.068 2.068 0 0 0 89.227 5.533 L 89.723 5.919 A 1.926 1.926 0 0 1 88.323 6.811 A 2.749 2.749 0 0 1 87.93 6.838 A 2.394 2.394 0 0 1 87.179 6.725 A 1.974 1.974 0 0 1 86.357 6.203 Q 85.75 5.568 85.75 4.504 Z M 142.128 0.352 L 142.128 4.601 L 143.016 4.601 L 143.016 5.265 L 142.128 5.265 L 142.128 6.75 L 141.311 6.75 L 141.311 5.265 L 138.397 5.265 L 138.397 4.786 L 141.262 0.352 L 142.128 0.352 Z M 153.013 6.75 L 151.242 6.75 L 151.242 0.352 L 153.048 0.352 Q 153.883 0.352 154.525 0.721 Q 155.167 1.09 155.516 1.771 A 3.19 3.19 0 0 1 155.833 2.8 A 4.073 4.073 0 0 1 155.87 3.335 L 155.87 3.744 Q 155.87 4.649 155.52 5.331 A 2.457 2.457 0 0 1 154.523 6.376 Q 153.875 6.741 153.013 6.75 Z M 147.526 2.592 A 1.544 1.544 0 0 0 147.63 2.021 A 2.226 2.226 0 0 0 147.608 1.707 A 1.566 1.566 0 0 0 147.109 0.738 A 1.754 1.754 0 0 0 146.343 0.333 A 2.443 2.443 0 0 0 145.745 0.264 A 2.539 2.539 0 0 0 145.235 0.312 A 1.767 1.767 0 0 0 144.378 0.738 Q 143.859 1.213 143.859 2.021 A 1.808 1.808 0 0 0 143.86 2.058 A 1.499 1.499 0 0 0 144.105 2.87 A 1.626 1.626 0 0 0 144.267 3.077 A 1.726 1.726 0 0 0 144.778 3.454 A 2.119 2.119 0 0 0 144.678 3.5 A 1.738 1.738 0 0 0 143.993 4.087 A 1.629 1.629 0 0 0 143.71 5.023 A 2.272 2.272 0 0 0 143.72 5.237 A 1.63 1.63 0 0 0 144.266 6.344 A 1.895 1.895 0 0 0 145.116 6.771 A 2.797 2.797 0 0 0 145.745 6.838 A 2.796 2.796 0 0 0 146.344 6.777 A 1.925 1.925 0 0 0 147.219 6.346 A 1.578 1.578 0 0 0 147.694 5.62 A 1.989 1.989 0 0 0 147.779 5.023 A 1.581 1.581 0 0 0 147.487 4.087 Q 147.195 3.674 146.694 3.458 Q 147.125 3.248 147.377 2.874 A 1.449 1.449 0 0 0 147.526 2.592 Z M 130.074 3.353 L 130.074 3.757 A 4.729 4.729 0 0 1 130.009 4.56 A 3.455 3.455 0 0 1 129.757 5.399 A 2.648 2.648 0 0 1 129.361 6.033 A 2.226 2.226 0 0 1 128.861 6.469 A 2.362 2.362 0 0 1 127.842 6.82 A 2.993 2.993 0 0 1 127.507 6.838 A 2.618 2.618 0 0 1 126.701 6.717 A 2.313 2.313 0 0 1 126.167 6.467 A 2.392 2.392 0 0 1 125.367 5.615 A 2.953 2.953 0 0 1 125.26 5.407 A 3.426 3.426 0 0 1 124.983 4.489 A 4.535 4.535 0 0 1 124.928 3.814 L 124.928 3.353 A 4.52 4.52 0 0 1 125.003 2.51 A 3.461 3.461 0 0 1 125.249 1.723 Q 125.569 1.015 126.156 0.639 A 2.389 2.389 0 0 1 127.312 0.27 A 2.92 2.92 0 0 1 127.499 0.264 A 2.702 2.702 0 0 1 128.275 0.372 A 2.318 2.318 0 0 1 128.854 0.635 A 2.31 2.31 0 0 1 129.628 1.456 A 2.912 2.912 0 0 1 129.757 1.712 A 3.525 3.525 0 0 1 130.017 2.604 A 4.763 4.763 0 0 1 130.074 3.353 Z M 83.307 0.844 L 84.12 0.844 L 84.12 1.995 L 85.008 1.995 L 85.008 2.624 L 84.12 2.624 L 84.12 5.572 Q 84.12 5.858 84.239 6.001 Q 84.357 6.144 84.643 6.144 A 1.046 1.046 0 0 0 84.741 6.138 Q 84.843 6.129 84.983 6.101 A 4.024 4.024 0 0 0 85.03 6.091 L 85.03 6.75 A 2.463 2.463 0 0 1 84.597 6.829 A 2.157 2.157 0 0 1 84.406 6.838 Q 83.959 6.838 83.692 6.616 A 0.856 0.856 0 0 1 83.584 6.508 Q 83.357 6.238 83.316 5.78 A 2.351 2.351 0 0 1 83.307 5.572 L 83.307 2.624 L 82.441 2.624 L 82.441 1.995 L 83.307 1.995 L 83.307 0.844 Z M 54.743 0 L 54.743 6.75 L 53.93 6.75 L 53.93 0 L 54.743 0 Z M 5.203 4.386 L 5.203 4.329 A 3.057 3.057 0 0 1 5.29 3.587 A 2.573 2.573 0 0 1 5.478 3.072 A 2.16 2.16 0 0 1 5.892 2.486 A 1.957 1.957 0 0 1 6.242 2.21 A 2.036 2.036 0 0 1 7.187 1.913 A 2.491 2.491 0 0 1 7.361 1.907 A 2.277 2.277 0 0 1 8.114 2.027 A 1.937 1.937 0 0 1 8.932 2.58 A 2.29 2.29 0 0 1 9.451 3.608 A 3.373 3.373 0 0 1 9.532 4.368 L 9.532 4.425 A 3.114 3.114 0 0 1 9.452 5.142 A 2.577 2.577 0 0 1 9.266 5.671 A 2.056 2.056 0 0 1 8.739 6.361 A 2.001 2.001 0 0 1 8.506 6.53 A 2.045 2.045 0 0 1 7.586 6.829 A 2.529 2.529 0 0 1 7.37 6.838 A 2.262 2.262 0 0 1 6.619 6.718 A 1.938 1.938 0 0 1 5.803 6.166 A 2.297 2.297 0 0 1 5.277 5.111 A 3.357 3.357 0 0 1 5.203 4.386 Z M 15.385 4.386 L 15.385 4.329 A 3.057 3.057 0 0 1 15.472 3.587 A 2.573 2.573 0 0 1 15.66 3.072 A 2.16 2.16 0 0 1 16.075 2.486 A 1.957 1.957 0 0 1 16.425 2.21 A 2.036 2.036 0 0 1 17.369 1.913 A 2.491 2.491 0 0 1 17.543 1.907 A 2.277 2.277 0 0 1 18.296 2.027 A 1.937 1.937 0 0 1 19.114 2.58 A 2.29 2.29 0 0 1 19.633 3.608 A 3.373 3.373 0 0 1 19.714 4.368 L 19.714 4.425 A 3.114 3.114 0 0 1 19.634 5.142 A 2.577 2.577 0 0 1 19.448 5.671 A 2.056 2.056 0 0 1 18.921 6.361 A 2.001 2.001 0 0 1 18.688 6.53 A 2.045 2.045 0 0 1 17.768 6.829 A 2.529 2.529 0 0 1 17.552 6.838 A 2.262 2.262 0 0 1 16.801 6.718 A 1.938 1.938 0 0 1 15.985 6.166 A 2.297 2.297 0 0 1 15.459 5.111 A 3.357 3.357 0 0 1 15.385 4.386 Z M 55.828 4.386 L 55.828 4.329 A 3.057 3.057 0 0 1 55.915 3.587 A 2.573 2.573 0 0 1 56.103 3.072 A 2.16 2.16 0 0 1 56.517 2.486 A 1.957 1.957 0 0 1 56.867 2.21 A 2.036 2.036 0 0 1 57.812 1.913 A 2.491 2.491 0 0 1 57.986 1.907 A 2.277 2.277 0 0 1 58.739 2.027 A 1.937 1.937 0 0 1 59.557 2.58 A 2.29 2.29 0 0 1 60.076 3.608 A 3.373 3.373 0 0 1 60.157 4.368 L 60.157 4.425 A 3.114 3.114 0 0 1 60.077 5.142 A 2.577 2.577 0 0 1 59.891 5.671 A 2.056 2.056 0 0 1 59.364 6.361 A 2.001 2.001 0 0 1 59.131 6.53 A 2.045 2.045 0 0 1 58.211 6.829 A 2.529 2.529 0 0 1 57.995 6.838 A 2.262 2.262 0 0 1 57.244 6.718 A 1.938 1.938 0 0 1 56.428 6.166 A 2.297 2.297 0 0 1 55.902 5.111 A 3.357 3.357 0 0 1 55.828 4.386 Z M 102.3 4.386 L 102.3 4.329 A 3.057 3.057 0 0 1 102.387 3.587 A 2.573 2.573 0 0 1 102.575 3.072 A 2.16 2.16 0 0 1 102.99 2.486 A 1.957 1.957 0 0 1 103.34 2.21 A 2.036 2.036 0 0 1 104.284 1.913 A 2.491 2.491 0 0 1 104.458 1.907 A 2.277 2.277 0 0 1 105.211 2.027 A 1.937 1.937 0 0 1 106.029 2.58 A 2.29 2.29 0 0 1 106.548 3.608 A 3.373 3.373 0 0 1 106.629 4.368 L 106.629 4.425 A 3.114 3.114 0 0 1 106.549 5.142 A 2.577 2.577 0 0 1 106.363 5.671 A 2.056 2.056 0 0 1 105.836 6.361 A 2.001 2.001 0 0 1 105.603 6.53 A 2.045 2.045 0 0 1 104.683 6.829 A 2.529 2.529 0 0 1 104.467 6.838 A 2.262 2.262 0 0 1 103.716 6.718 A 1.938 1.938 0 0 1 102.9 6.166 A 2.297 2.297 0 0 1 102.374 5.111 A 3.357 3.357 0 0 1 102.3 4.386 Z M 45.026 1.969 L 45.026 2.725 A 2.251 2.251 0 0 0 44.784 2.698 A 2.782 2.782 0 0 0 44.626 2.694 Q 43.849 2.694 43.557 3.338 A 1.445 1.445 0 0 0 43.541 3.375 L 43.541 6.75 L 42.728 6.75 L 42.728 1.995 L 43.519 1.995 L 43.532 2.544 Q 43.913 1.938 44.595 1.909 A 1.636 1.636 0 0 1 44.666 1.907 Q 44.903 1.907 45.026 1.969 Z M 164.21 1.969 L 164.21 2.725 A 2.251 2.251 0 0 0 163.968 2.698 A 2.782 2.782 0 0 0 163.811 2.694 Q 163.033 2.694 162.741 3.338 A 1.445 1.445 0 0 0 162.725 3.375 L 162.725 6.75 L 161.912 6.75 L 161.912 1.995 L 162.703 1.995 L 162.716 2.544 Q 163.097 1.938 163.779 1.909 A 1.636 1.636 0 0 1 163.85 1.907 Q 164.087 1.907 164.21 1.969 Z M 153.07 1.046 L 152.086 1.046 L 152.086 6.06 L 152.974 6.06 A 2.519 2.519 0 0 0 153.606 5.985 A 1.747 1.747 0 0 0 154.492 5.454 Q 154.951 4.94 155.022 4.059 A 4.165 4.165 0 0 0 155.035 3.727 L 155.035 3.353 Q 155.035 2.562 154.765 2.027 A 1.864 1.864 0 0 0 154.523 1.659 A 1.687 1.687 0 0 0 153.527 1.09 A 2.499 2.499 0 0 0 153.07 1.046 Z M 129.234 3.819 L 129.234 3.344 A 4.551 4.551 0 0 0 129.19 2.685 Q 129.141 2.35 129.038 2.078 A 1.944 1.944 0 0 0 128.777 1.597 Q 128.32 0.989 127.499 0.989 Q 126.699 0.989 126.24 1.597 A 2.112 2.112 0 0 0 125.915 2.246 Q 125.827 2.527 125.791 2.864 A 4.531 4.531 0 0 0 125.767 3.287 L 125.767 3.757 A 4.254 4.254 0 0 0 125.817 4.43 Q 125.874 4.789 125.998 5.079 A 2.039 2.039 0 0 0 126.231 5.491 A 1.472 1.472 0 0 0 127.298 6.11 A 1.931 1.931 0 0 0 127.507 6.122 A 1.79 1.79 0 0 0 128.066 6.039 A 1.423 1.423 0 0 0 128.773 5.526 A 2.017 2.017 0 0 0 129.074 4.932 Q 129.227 4.462 129.234 3.819 Z M 101.215 1.995 L 101.215 6.75 L 100.402 6.75 L 100.402 1.995 L 101.215 1.995 Z M 6.021 4.425 A 2.772 2.772 0 0 0 6.068 4.954 Q 6.128 5.264 6.266 5.51 A 1.545 1.545 0 0 0 6.387 5.695 Q 6.754 6.174 7.37 6.174 A 1.269 1.269 0 0 0 7.859 6.083 Q 8.138 5.967 8.341 5.706 A 1.471 1.471 0 0 0 8.354 5.689 A 1.648 1.648 0 0 0 8.609 5.171 Q 8.678 4.945 8.703 4.672 A 3.655 3.655 0 0 0 8.719 4.329 A 2.687 2.687 0 0 0 8.668 3.789 Q 8.6 3.459 8.443 3.2 A 1.586 1.586 0 0 0 8.347 3.061 A 1.231 1.231 0 0 0 7.932 2.705 Q 7.679 2.575 7.361 2.575 Q 6.771 2.575 6.405 3.035 A 1.515 1.515 0 0 0 6.39 3.054 A 1.589 1.589 0 0 0 6.138 3.552 Q 6.068 3.772 6.04 4.039 A 3.676 3.676 0 0 0 6.021 4.425 Z M 16.203 4.425 A 2.772 2.772 0 0 0 16.25 4.954 Q 16.31 5.264 16.448 5.51 A 1.545 1.545 0 0 0 16.57 5.695 Q 16.937 6.174 17.552 6.174 A 1.269 1.269 0 0 0 18.041 6.083 Q 18.321 5.967 18.523 5.706 A 1.471 1.471 0 0 0 18.536 5.689 A 1.648 1.648 0 0 0 18.791 5.171 Q 18.86 4.945 18.885 4.672 A 3.655 3.655 0 0 0 18.901 4.329 A 2.687 2.687 0 0 0 18.85 3.789 Q 18.782 3.459 18.625 3.2 A 1.586 1.586 0 0 0 18.53 3.061 A 1.231 1.231 0 0 0 18.114 2.705 Q 17.861 2.575 17.543 2.575 Q 16.953 2.575 16.587 3.035 A 1.515 1.515 0 0 0 16.572 3.054 A 1.589 1.589 0 0 0 16.32 3.552 Q 16.25 3.772 16.222 4.039 A 3.676 3.676 0 0 0 16.203 4.425 Z M 56.646 4.425 A 2.772 2.772 0 0 0 56.693 4.954 Q 56.753 5.264 56.891 5.51 A 1.545 1.545 0 0 0 57.012 5.695 Q 57.379 6.174 57.995 6.174 A 1.269 1.269 0 0 0 58.484 6.083 Q 58.763 5.967 58.966 5.706 A 1.471 1.471 0 0 0 58.979 5.689 A 1.648 1.648 0 0 0 59.234 5.171 Q 59.303 4.945 59.328 4.672 A 3.655 3.655 0 0 0 59.344 4.329 A 2.687 2.687 0 0 0 59.293 3.789 Q 59.225 3.459 59.068 3.2 A 1.586 1.586 0 0 0 58.972 3.061 A 1.231 1.231 0 0 0 58.557 2.705 Q 58.304 2.575 57.986 2.575 Q 57.396 2.575 57.03 3.035 A 1.515 1.515 0 0 0 57.015 3.054 A 1.589 1.589 0 0 0 56.763 3.552 Q 56.693 3.772 56.665 4.039 A 3.676 3.676 0 0 0 56.646 4.425 Z M 103.118 4.425 A 2.772 2.772 0 0 0 103.165 4.954 Q 103.225 5.264 103.363 5.51 A 1.545 1.545 0 0 0 103.485 5.695 Q 103.852 6.174 104.467 6.174 A 1.269 1.269 0 0 0 104.956 6.083 Q 105.236 5.967 105.438 5.706 A 1.471 1.471 0 0 0 105.451 5.689 A 1.648 1.648 0 0 0 105.706 5.171 Q 105.775 4.945 105.8 4.672 A 3.655 3.655 0 0 0 105.816 4.329 A 2.687 2.687 0 0 0 105.765 3.789 Q 105.697 3.459 105.54 3.2 A 1.586 1.586 0 0 0 105.445 3.061 A 1.231 1.231 0 0 0 105.03 2.705 Q 104.776 2.575 104.458 2.575 Q 103.868 2.575 103.502 3.035 A 1.515 1.515 0 0 0 103.487 3.054 A 1.589 1.589 0 0 0 103.235 3.552 Q 103.165 3.772 103.137 4.039 A 3.676 3.676 0 0 0 103.118 4.425 Z M 69.139 5.454 L 69.139 3.27 A 1.375 1.375 0 0 0 68.827 2.874 Q 68.504 2.597 68.019 2.597 A 1.238 1.238 0 0 0 67.592 2.668 A 1.068 1.068 0 0 0 67.087 3.059 A 1.51 1.51 0 0 0 66.878 3.484 Q 66.812 3.689 66.781 3.939 A 3.955 3.955 0 0 0 66.753 4.425 A 3.162 3.162 0 0 0 66.789 4.918 Q 66.83 5.178 66.918 5.389 A 1.474 1.474 0 0 0 67.087 5.691 A 1.06 1.06 0 0 0 67.849 6.139 A 1.391 1.391 0 0 0 68.01 6.148 Q 68.783 6.148 69.139 5.454 Z M 11.364 3.344 L 11.364 5.401 A 1.528 1.528 0 0 0 11.65 5.807 Q 11.973 6.127 12.463 6.147 A 1.621 1.621 0 0 0 12.529 6.148 A 1.206 1.206 0 0 0 12.946 6.079 A 1.04 1.04 0 0 0 13.438 5.695 Q 13.764 5.243 13.764 4.333 Q 13.764 3.502 13.443 3.05 A 1.03 1.03 0 0 0 12.693 2.607 A 1.449 1.449 0 0 0 12.52 2.597 A 1.34 1.34 0 0 0 12.011 2.69 Q 11.592 2.86 11.364 3.344 Z M 0.848 1.046 L 0.848 3.472 L 2.145 3.472 Q 2.685 3.472 3.035 3.231 A 1.174 1.174 0 0 0 3.144 3.146 A 1.069 1.069 0 0 0 3.51 2.409 A 1.486 1.486 0 0 0 3.516 2.276 Q 3.516 1.734 3.22 1.423 A 1 1 0 0 0 3.162 1.367 Q 2.808 1.05 2.14 1.046 L 0.848 1.046 Z M 120.454 1.046 L 120.454 3.472 L 121.75 3.472 Q 122.291 3.472 122.641 3.231 A 1.174 1.174 0 0 0 122.75 3.146 A 1.069 1.069 0 0 0 123.116 2.409 A 1.486 1.486 0 0 0 123.122 2.276 Q 123.122 1.734 122.826 1.423 A 1 1 0 0 0 122.768 1.367 Q 122.414 1.05 121.746 1.046 L 120.454 1.046 Z M 141.214 1.639 L 139.32 4.601 L 141.311 4.601 L 141.311 1.463 L 141.214 1.639 Z M 146.966 5.005 A 1.375 1.375 0 0 0 146.907 4.592 A 1.109 1.109 0 0 0 146.626 4.131 A 1.148 1.148 0 0 0 145.954 3.807 A 1.593 1.593 0 0 0 145.736 3.792 A 1.466 1.466 0 0 0 145.347 3.841 A 1.086 1.086 0 0 0 144.855 4.126 A 1.123 1.123 0 0 0 144.541 4.762 A 1.572 1.572 0 0 0 144.523 5.005 A 1.48 1.48 0 0 0 144.565 5.367 A 1.019 1.019 0 0 0 144.846 5.862 Q 145.152 6.158 145.685 6.173 A 2.053 2.053 0 0 0 145.745 6.174 Q 146.238 6.174 146.548 5.94 A 1.018 1.018 0 0 0 146.641 5.86 A 1.041 1.041 0 0 0 146.94 5.292 A 1.518 1.518 0 0 0 146.966 5.005 Z M 145.745 0.932 A 1.259 1.259 0 0 0 145.392 0.979 A 0.973 0.973 0 0 0 144.969 1.228 Q 144.672 1.525 144.672 2.035 A 1.325 1.325 0 0 0 144.717 2.387 A 0.994 0.994 0 0 0 144.965 2.823 A 0.974 0.974 0 0 0 145.527 3.108 A 1.382 1.382 0 0 0 145.745 3.125 A 1.279 1.279 0 0 0 146.089 3.08 A 0.952 0.952 0 0 0 146.525 2.823 A 1.018 1.018 0 0 0 146.8 2.26 A 1.426 1.426 0 0 0 146.817 2.035 A 1.282 1.282 0 0 0 146.767 1.668 A 1.013 1.013 0 0 0 146.514 1.239 Q 146.21 0.932 145.745 0.932 Z M 31.399 5.418 L 31.399 4.443 L 30.762 4.443 Q 29.268 4.443 29.268 5.317 Q 29.268 5.7 29.522 5.915 A 0.893 0.893 0 0 0 29.936 6.108 A 1.259 1.259 0 0 0 30.177 6.13 A 1.429 1.429 0 0 0 30.902 5.933 A 1.335 1.335 0 0 0 31.198 5.705 A 1.108 1.108 0 0 0 31.399 5.418 Z M 159.825 5.418 L 159.825 4.443 L 159.188 4.443 Q 157.693 4.443 157.693 5.317 Q 157.693 5.7 157.948 5.915 A 0.893 0.893 0 0 0 158.362 6.108 A 1.259 1.259 0 0 0 158.603 6.13 A 1.429 1.429 0 0 0 159.328 5.933 A 1.335 1.335 0 0 0 159.624 5.705 A 1.108 1.108 0 0 0 159.825 5.418 Z M 38.593 3.938 L 40.975 3.938 L 40.975 3.876 Q 40.949 3.417 40.778 3.111 A 1.13 1.13 0 0 0 40.641 2.916 A 0.983 0.983 0 0 0 39.986 2.584 A 1.39 1.39 0 0 0 39.832 2.575 A 1.106 1.106 0 0 0 39.31 2.698 A 1.14 1.14 0 0 0 39.006 2.933 A 1.417 1.417 0 0 0 38.729 3.379 Q 38.656 3.563 38.616 3.785 A 2.741 2.741 0 0 0 38.593 3.938 Z M 86.59 3.938 L 88.972 3.938 L 88.972 3.876 Q 88.946 3.417 88.775 3.111 A 1.13 1.13 0 0 0 88.638 2.916 A 0.983 0.983 0 0 0 87.983 2.584 A 1.39 1.39 0 0 0 87.829 2.575 A 1.106 1.106 0 0 0 87.307 2.698 A 1.14 1.14 0 0 0 87.003 2.933 A 1.417 1.417 0 0 0 86.726 3.379 Q 86.653 3.563 86.613 3.785 A 2.741 2.741 0 0 0 86.59 3.938 Z M 100.336 0.734 Q 100.336 0.536 100.457 0.4 Q 100.569 0.274 100.78 0.264 A 0.783 0.783 0 0 1 100.815 0.264 Q 101.052 0.264 101.175 0.4 A 0.474 0.474 0 0 1 101.298 0.703 A 0.614 0.614 0 0 1 101.298 0.734 A 0.523 0.523 0 0 1 101.273 0.9 A 0.442 0.442 0 0 1 101.175 1.063 Q 101.063 1.184 100.855 1.194 A 0.803 0.803 0 0 1 100.815 1.195 Q 100.643 1.195 100.532 1.126 A 0.362 0.362 0 0 1 100.457 1.063 A 0.456 0.456 0 0 1 100.338 0.788 A 0.605 0.605 0 0 1 100.336 0.734 Z" vector-effect="non-scaling-stroke"/></g>
</svg>