<?xml version="1.0" encoding="UTF-8"?>
<svg width="48px" height="48px" viewBox="0 0 48 48" version="1.1" xmlns="http://www.w3.org/2000/svg" xmlns:xlink="http://www.w3.org/1999/xlink">
    <title>Icon-Resource/Quantum-Technologies/Res_Amazon-Braket_Simulator-1 _48_Light</title>
    <g id="Icon-Resource/Quantum-Technologies/Res_Amazon-Braket_Simulator-1-_48" stroke="none" stroke-width="1" fill="none" fill-rule="evenodd">
        <path transform="translate(12.000000, 8.000000), scale(.65)" d="M39,39.94 C39,39.973 38.973,40 38.939,40 L8,39.94 L8.061,9 L39,9.06 L39,39.94 Z M46,11 L46,9 L41,9 L41,9.06 C41,7.924 40.075,7 38.939,7 L39,7 L39,2 L37,2 L37,7 L32,7 L32,2 L30,2 L30,7 L25,7 L25,2 L23,2 L23,7 L18,7 L18,2 L16,2 L16,7 L11,7 L11,2 L9,2 L9,7 L8.061,7 C6.945,7 6.039,7.893 6.006,9 L2,9 L2,11 L6,11 L6,16 L2,16 L2,18 L6,18 L6,23 L2,23 L2,25 L6,25 L6,30 L2,30 L2,32 L6,32 L6,37 L2,37 L2,39 L6,39 L6,39.94 C6,41.076 6.925,42 8.061,42 L9,42 L9,46 L11,46 L11,42 L16,42 L16,46 L18,46 L18,42 L23,42 L23,46 L25,46 L25,42 L30,42 L30,46 L32,46 L32,42 L37,42 L37,46 L39,46 L39,41.994 C40.107,41.961 41,41.055 41,39.94 L41,39 L46,39 L46,37 L41,37 L41,32 L46,32 L46,30 L41,30 L41,25 L46,25 L46,23 L41,23 L41,18 L46,18 L46,16 L41,16 L41,11 L46,11 Z M20.742,29.085 C20.945,29.207 21.146,29.333 21.35,29.45 C21.556,29.569 21.762,29.679 21.969,29.793 C21.614,29.932 21.268,30.061 20.929,30.178 C20.861,29.826 20.799,29.461 20.742,29.085 L20.742,29.085 Z M17.555,24.338 C17.831,24.1 18.117,23.863 18.415,23.628 C18.41,23.866 18.401,24.106 18.401,24.344 C18.401,24.579 18.41,24.816 18.414,25.052 C18.114,24.813 17.827,24.575 17.555,24.338 L17.555,24.338 Z M13.715,18.234 C14.177,17.433 16.163,17.234 19.01,17.938 C18.813,18.927 18.667,19.967 18.565,21.024 C17.681,21.65 16.848,22.296 16.094,22.956 C14.07,20.847 13.254,19.033 13.715,18.234 L13.715,18.234 Z M21.969,18.895 C21.763,19.009 21.556,19.118 21.35,19.237 C21.144,19.357 20.945,19.481 20.743,19.603 C20.799,19.226 20.861,18.861 20.929,18.51 C21.268,18.627 21.614,18.755 21.969,18.895 L21.969,18.895 Z M27.672,18.499 C27.741,18.859 27.804,19.229 27.859,19.607 C27.655,19.483 27.454,19.357 27.246,19.237 C27.04,19.118 26.828,19.006 26.619,18.891 C26.974,18.75 27.325,18.62 27.672,18.499 L27.672,18.499 Z M30.83,17.657 C32.918,17.301 34.471,17.523 34.88,18.234 C35.291,18.945 34.706,20.4 33.354,22.03 C33.098,22.34 32.81,22.652 32.51,22.963 C31.756,22.303 30.922,21.656 30.037,21.029 C29.937,19.95 29.793,18.905 29.599,17.922 C30.019,17.818 30.433,17.725 30.83,17.657 L30.83,17.657 Z M30.193,24.344 C30.193,24.103 30.185,23.866 30.181,23.627 C30.479,23.864 30.769,24.104 31.048,24.344 C30.769,24.585 30.479,24.823 30.18,25.061 C30.185,24.821 30.193,24.582 30.193,24.344 L30.193,24.344 Z M22.35,27.718 C21.686,27.334 21.067,26.943 20.477,26.55 C20.432,25.842 20.401,25.111 20.401,24.344 C20.401,23.576 20.432,22.844 20.477,22.136 C21.078,21.735 21.701,21.344 22.35,20.97 C22.998,20.596 23.648,20.252 24.296,19.931 C24.932,20.246 25.581,20.586 26.246,20.97 C26.895,21.344 27.518,21.736 28.12,22.136 C28.166,22.858 28.193,23.594 28.193,24.344 C28.193,25.112 28.163,25.844 28.118,26.553 C27.517,26.953 26.894,27.344 26.246,27.718 C25.581,28.102 24.932,28.442 24.295,28.757 C23.647,28.436 22.997,28.092 22.35,27.718 L22.35,27.718 Z M27.664,30.187 C27.318,30.065 26.968,29.936 26.615,29.795 C26.825,29.68 27.039,29.57 27.246,29.45 C27.452,29.332 27.65,29.207 27.852,29.086 C27.795,29.465 27.732,29.832 27.664,30.187 L27.664,30.187 Z M24.298,36.564 C23.373,36.564 22.208,34.944 21.394,32.128 C22.352,31.802 23.327,31.412 24.295,30.97 C25.277,31.422 26.251,31.82 27.197,32.142 C26.383,34.95 25.22,36.564 24.298,36.564 L24.298,36.564 Z M12.131,27.767 C11.286,29.564 11.584,30.763 11.982,31.454 C12.685,32.669 14.118,33.187 15.948,33.187 C17.012,33.187 18.215,32.999 19.479,32.684 C20.455,36.096 22.078,38.564 24.298,38.564 C26.513,38.564 28.134,36.106 29.11,32.704 C29.564,32.817 30.012,32.918 30.442,32.993 L30.784,31.023 C30.396,30.955 29.992,30.864 29.583,30.762 C29.781,29.768 29.927,28.725 30.029,27.664 C30.917,27.035 31.754,26.386 32.51,25.724 C32.81,26.036 33.098,26.348 33.354,26.658 C34.706,28.288 35.291,29.742 34.88,30.454 C34.625,30.896 33.968,31.073 33.461,31.144 L33.74,33.125 C35.455,32.883 36.249,32.083 36.612,31.454 C37.49,29.933 36.881,27.776 34.894,25.381 C34.607,25.036 34.288,24.69 33.955,24.344 C34.288,23.998 34.607,23.652 34.894,23.307 C36.881,20.912 37.49,18.755 36.612,17.234 C35.733,15.713 33.562,15.163 30.494,15.686 C30.052,15.761 29.592,15.865 29.126,15.981 C28.992,15.518 28.852,15.066 28.695,14.645 L26.82,15.34 C26.961,15.719 27.088,16.125 27.208,16.542 C26.257,16.866 25.277,17.265 24.289,17.72 C23.322,17.279 22.35,16.885 21.394,16.561 C22.208,13.744 23.373,12.124 24.298,12.124 C24.796,12.124 25.269,12.585 25.577,12.972 L27.14,11.724 C26.084,10.401 25.012,10.124 24.298,10.124 C22.078,10.124 20.456,12.59 19.479,16 C16.038,15.141 13.092,15.314 11.982,17.234 C10.875,19.153 12.193,21.786 14.65,24.332 C14.327,24.668 14.017,25.003 13.737,25.337 L15.272,26.62 C15.524,26.318 15.804,26.016 16.097,25.712 C16.86,26.383 17.693,27.033 18.564,27.654 C18.666,28.714 18.812,29.757 19.01,30.75 C16.162,31.453 14.176,31.254 13.715,30.454 C13.409,29.925 13.726,29.077 13.941,28.619 L12.131,27.767 Z" id="Fill-1" fill="#000000"></path>
    </g><g transform="translate(25, 83)" id="svgGroup" stroke-linecap="round" fill-rule="evenodd" font-size="9pt" stroke="#000" stroke-width="0.25mm" fill="#000" style="stroke:#000;stroke-width:0.25mm;fill:#000"><path d="M 35.169 1.995 L 35.938 1.995 L 35.96 2.522 Q 36.483 1.907 37.371 1.907 A 2.009 2.009 0 0 1 37.882 1.968 A 1.244 1.244 0 0 1 38.729 2.672 A 1.801 1.801 0 0 1 39.346 2.118 A 1.65 1.65 0 0 1 39.876 1.937 A 2.209 2.209 0 0 1 40.245 1.907 A 2.119 2.119 0 0 1 40.889 1.997 Q 41.816 2.292 41.836 3.564 L 41.836 6.75 L 41.023 6.75 L 41.023 3.612 A 1.781 1.781 0 0 0 41.002 3.332 Q 40.979 3.185 40.928 3.067 A 0.758 0.758 0 0 0 40.79 2.85 A 0.68 0.68 0 0 0 40.537 2.682 Q 40.326 2.597 40.009 2.597 A 1.245 1.245 0 0 0 39.643 2.648 A 1.008 1.008 0 0 0 39.256 2.867 A 1.042 1.042 0 0 0 38.942 3.404 A 1.41 1.41 0 0 0 38.909 3.595 L 38.909 6.75 L 38.092 6.75 L 38.092 3.634 A 1.532 1.532 0 0 0 38.043 3.23 Q 37.916 2.768 37.459 2.643 A 1.457 1.457 0 0 0 37.077 2.597 Q 36.303 2.597 36.002 3.234 A 1.459 1.459 0 0 0 35.982 3.278 L 35.982 6.75 L 35.169 6.75 L 35.169 1.995 Z M 32.023 2.202 L 31.175 2.202 A 1.466 1.466 0 0 0 31.125 1.809 A 1.066 1.066 0 0 0 30.806 1.29 A 1.211 1.211 0 0 0 30.336 1.033 Q 30.085 0.958 29.764 0.958 A 2.286 2.286 0 0 0 29.384 0.988 Q 29.182 1.022 29.02 1.095 A 1.101 1.101 0 0 0 28.791 1.233 A 0.892 0.892 0 0 0 28.446 1.887 A 1.267 1.267 0 0 0 28.441 1.995 A 0.806 0.806 0 0 0 28.709 2.6 A 1.134 1.134 0 0 0 28.773 2.656 A 1.562 1.562 0 0 0 29.011 2.813 Q 29.342 2.993 29.903 3.151 A 8.228 8.228 0 0 1 30.367 3.295 Q 30.602 3.377 30.797 3.464 A 3.297 3.297 0 0 1 31.151 3.645 A 2.342 2.342 0 0 1 31.489 3.889 Q 31.679 4.056 31.802 4.248 A 1.45 1.45 0 0 1 31.819 4.276 A 1.498 1.498 0 0 1 32.015 4.832 A 1.948 1.948 0 0 1 32.036 5.124 A 1.606 1.606 0 0 1 31.914 5.76 Q 31.768 6.101 31.45 6.354 A 1.886 1.886 0 0 1 31.43 6.37 Q 30.823 6.838 29.808 6.838 A 3.023 3.023 0 0 1 28.667 6.623 A 2.917 2.917 0 0 1 28.578 6.585 A 2.383 2.383 0 0 1 28.1 6.307 A 1.874 1.874 0 0 1 27.697 5.893 A 1.689 1.689 0 0 1 27.387 4.896 L 28.235 4.896 A 1.261 1.261 0 0 0 28.304 5.323 A 1.074 1.074 0 0 0 28.663 5.812 Q 29.048 6.113 29.664 6.144 A 2.87 2.87 0 0 0 29.808 6.148 A 2.628 2.628 0 0 0 30.195 6.121 Q 30.391 6.092 30.55 6.031 A 1.129 1.129 0 0 0 30.832 5.875 Q 31.188 5.603 31.188 5.133 A 1.074 1.074 0 0 0 31.145 4.822 A 0.816 0.816 0 0 0 30.858 4.406 Q 30.529 4.148 29.663 3.898 Q 28.578 3.586 28.083 3.131 Q 27.589 2.676 27.589 2.008 Q 27.589 1.252 28.193 0.758 A 2.121 2.121 0 0 1 29.084 0.335 A 3.087 3.087 0 0 1 29.764 0.264 A 2.913 2.913 0 0 1 30.424 0.336 A 2.372 2.372 0 0 1 30.94 0.519 A 2.051 2.051 0 0 1 31.471 0.889 A 1.834 1.834 0 0 1 31.74 1.222 A 1.798 1.798 0 0 1 32.023 2.202 Z M 16.225 6.75 L 14.568 4.548 L 14.058 5.08 L 14.058 6.75 L 13.245 6.75 L 13.245 0 L 14.058 0 L 14.058 4.083 L 14.493 3.56 L 15.974 1.995 L 16.963 1.995 L 15.113 3.981 L 17.178 6.75 L 16.225 6.75 Z M 46.015 6.75 L 45.998 6.28 A 1.526 1.526 0 0 1 45.171 6.775 Q 44.921 6.836 44.624 6.838 A 2.996 2.996 0 0 1 44.604 6.838 A 2.086 2.086 0 0 1 44.145 6.79 Q 43.714 6.693 43.447 6.396 A 1.41 1.41 0 0 1 43.163 5.899 Q 43.047 5.556 43.044 5.089 L 43.044 1.995 L 43.857 1.995 L 43.857 5.067 Q 43.857 6.037 44.565 6.137 A 1.229 1.229 0 0 0 44.736 6.148 A 1.927 1.927 0 0 0 45.187 6.099 Q 45.75 5.964 45.976 5.454 L 45.976 1.995 L 46.789 1.995 L 46.789 6.75 L 46.015 6.75 Z M 12.133 6.75 L 11.281 6.75 A 0.632 0.632 0 0 1 11.245 6.66 Q 11.214 6.562 11.189 6.41 A 3.997 3.997 0 0 1 11.167 6.249 Q 10.6 6.838 9.813 6.838 A 2.033 2.033 0 0 1 9.284 6.772 A 1.529 1.529 0 0 1 8.659 6.44 Q 8.209 6.042 8.209 5.432 Q 8.209 4.689 8.774 4.278 Q 9.338 3.867 10.362 3.867 L 11.153 3.867 L 11.153 3.494 A 1.152 1.152 0 0 0 11.118 3.199 A 0.828 0.828 0 0 0 10.898 2.815 Q 10.682 2.6 10.292 2.568 A 1.748 1.748 0 0 0 10.147 2.562 Q 9.712 2.562 9.417 2.782 Q 9.123 3.001 9.123 3.313 L 8.306 3.313 A 1.041 1.041 0 0 1 8.431 2.825 A 1.409 1.409 0 0 1 8.558 2.626 Q 8.811 2.294 9.244 2.101 A 2.249 2.249 0 0 1 10.02 1.913 A 2.669 2.669 0 0 1 10.195 1.907 A 2.65 2.65 0 0 1 10.713 1.955 Q 11.02 2.016 11.259 2.156 A 1.439 1.439 0 0 1 11.483 2.318 A 1.396 1.396 0 0 1 11.936 3.144 A 1.998 1.998 0 0 1 11.966 3.45 L 11.966 5.638 Q 11.966 6.073 12.04 6.39 A 1.707 1.707 0 0 0 12.133 6.68 L 12.133 6.75 Z M 53.996 6.75 L 53.143 6.75 A 0.632 0.632 0 0 1 53.108 6.66 Q 53.076 6.562 53.052 6.41 A 3.997 3.997 0 0 1 53.029 6.249 Q 52.462 6.838 51.675 6.838 A 2.033 2.033 0 0 1 51.146 6.772 A 1.529 1.529 0 0 1 50.522 6.44 Q 50.071 6.042 50.071 5.432 Q 50.071 4.689 50.636 4.278 Q 51.201 3.867 52.225 3.867 L 53.016 3.867 L 53.016 3.494 A 1.152 1.152 0 0 0 52.98 3.199 A 0.828 0.828 0 0 0 52.761 2.815 Q 52.544 2.6 52.154 2.568 A 1.748 1.748 0 0 0 52.009 2.562 Q 51.574 2.562 51.28 2.782 Q 50.985 3.001 50.985 3.313 L 50.168 3.313 A 1.041 1.041 0 0 1 50.293 2.825 A 1.409 1.409 0 0 1 50.421 2.626 Q 50.673 2.294 51.106 2.101 A 2.249 2.249 0 0 1 51.882 1.913 A 2.669 2.669 0 0 1 52.058 1.907 A 2.65 2.65 0 0 1 52.575 1.955 Q 52.882 2.016 53.121 2.156 A 1.439 1.439 0 0 1 53.345 2.318 A 1.396 1.396 0 0 1 53.799 3.144 A 1.998 1.998 0 0 1 53.829 3.45 L 53.829 5.638 Q 53.829 6.073 53.902 6.39 A 1.707 1.707 0 0 0 53.996 6.68 L 53.996 6.75 Z M 17.508 4.504 L 17.508 4.355 A 3.17 3.17 0 0 1 17.584 3.646 A 2.581 2.581 0 0 1 17.778 3.092 A 2.191 2.191 0 0 1 18.226 2.466 A 2.033 2.033 0 0 1 18.534 2.221 Q 19.02 1.907 19.586 1.907 A 2.254 2.254 0 0 1 20.2 1.986 A 1.639 1.639 0 0 1 21.028 2.518 Q 21.542 3.129 21.542 4.267 L 21.542 4.605 L 18.321 4.605 A 2.111 2.111 0 0 0 18.392 5.114 A 1.516 1.516 0 0 0 18.732 5.741 A 1.282 1.282 0 0 0 19.666 6.173 A 1.652 1.652 0 0 0 19.731 6.174 A 1.763 1.763 0 0 0 20.06 6.145 Q 20.284 6.103 20.461 5.999 A 1.827 1.827 0 0 0 20.97 5.551 A 2.068 2.068 0 0 0 20.984 5.533 L 21.48 5.919 A 1.926 1.926 0 0 1 20.081 6.811 A 2.749 2.749 0 0 1 19.688 6.838 A 2.394 2.394 0 0 1 18.936 6.725 A 1.974 1.974 0 0 1 18.114 6.203 Q 17.508 5.568 17.508 4.504 Z M 2.219 6.75 L 0 6.75 L 0 0.352 L 2.092 0.352 A 4.031 4.031 0 0 1 2.665 0.39 Q 2.957 0.432 3.194 0.521 A 1.629 1.629 0 0 1 3.658 0.782 A 1.383 1.383 0 0 1 4.13 1.558 A 2.164 2.164 0 0 1 4.184 2.057 A 1.3 1.3 0 0 1 3.929 2.85 A 1.589 1.589 0 0 1 3.418 3.294 A 1.972 1.972 0 0 1 3.234 3.384 A 1.571 1.571 0 0 1 3.749 3.63 A 1.446 1.446 0 0 1 4.054 3.935 A 1.531 1.531 0 0 1 4.346 4.713 A 1.961 1.961 0 0 1 4.355 4.904 A 2.139 2.139 0 0 1 4.28 5.487 A 1.577 1.577 0 0 1 3.797 6.258 A 1.832 1.832 0 0 1 3.105 6.633 Q 2.838 6.713 2.52 6.739 A 3.81 3.81 0 0 1 2.219 6.75 Z M 22.772 0.844 L 23.585 0.844 L 23.585 1.995 L 24.473 1.995 L 24.473 2.624 L 23.585 2.624 L 23.585 5.572 Q 23.585 5.858 23.704 6.001 Q 23.823 6.144 24.108 6.144 A 1.046 1.046 0 0 0 24.206 6.138 Q 24.309 6.129 24.448 6.101 A 4.024 4.024 0 0 0 24.495 6.091 L 24.495 6.75 A 2.463 2.463 0 0 1 24.062 6.829 A 2.157 2.157 0 0 1 23.871 6.838 Q 23.424 6.838 23.157 6.616 A 0.856 0.856 0 0 1 23.049 6.508 Q 22.822 6.238 22.781 5.78 A 2.351 2.351 0 0 1 22.772 5.572 L 22.772 2.624 L 21.907 2.624 L 21.907 1.995 L 22.772 1.995 L 22.772 0.844 Z M 55.393 0.844 L 56.206 0.844 L 56.206 1.995 L 57.094 1.995 L 57.094 2.624 L 56.206 2.624 L 56.206 5.572 Q 56.206 5.858 56.325 6.001 Q 56.443 6.144 56.729 6.144 A 1.046 1.046 0 0 0 56.827 6.138 Q 56.929 6.129 57.069 6.101 A 4.024 4.024 0 0 0 57.116 6.091 L 57.116 6.75 A 2.463 2.463 0 0 1 56.683 6.829 A 2.157 2.157 0 0 1 56.492 6.838 Q 56.045 6.838 55.778 6.616 A 0.856 0.856 0 0 1 55.67 6.508 Q 55.443 6.238 55.402 5.78 A 2.351 2.351 0 0 1 55.393 5.572 L 55.393 2.624 L 54.527 2.624 L 54.527 1.995 L 55.393 1.995 L 55.393 0.844 Z M 48.907 0 L 48.907 6.75 L 48.094 6.75 L 48.094 0 L 48.907 0 Z M 57.74 4.386 L 57.74 4.329 A 3.057 3.057 0 0 1 57.827 3.587 A 2.573 2.573 0 0 1 58.014 3.072 A 2.16 2.16 0 0 1 58.429 2.486 A 1.957 1.957 0 0 1 58.779 2.21 A 2.036 2.036 0 0 1 59.723 1.913 A 2.491 2.491 0 0 1 59.897 1.907 A 2.277 2.277 0 0 1 60.651 2.027 A 1.937 1.937 0 0 1 61.469 2.58 A 2.29 2.29 0 0 1 61.987 3.608 A 3.373 3.373 0 0 1 62.068 4.368 L 62.068 4.425 A 3.114 3.114 0 0 1 61.989 5.142 A 2.577 2.577 0 0 1 61.802 5.671 A 2.056 2.056 0 0 1 61.275 6.361 A 2.001 2.001 0 0 1 61.042 6.53 A 2.045 2.045 0 0 1 60.122 6.829 A 2.529 2.529 0 0 1 59.906 6.838 A 2.262 2.262 0 0 1 59.156 6.718 A 1.938 1.938 0 0 1 58.34 6.166 A 2.297 2.297 0 0 1 57.814 5.111 A 3.357 3.357 0 0 1 57.74 4.386 Z M 7.774 1.969 L 7.774 2.725 A 2.251 2.251 0 0 0 7.531 2.698 A 2.782 2.782 0 0 0 7.374 2.694 Q 6.596 2.694 6.305 3.338 A 1.445 1.445 0 0 0 6.289 3.375 L 6.289 6.75 L 5.476 6.75 L 5.476 1.995 L 6.267 1.995 L 6.28 2.544 Q 6.66 1.938 7.343 1.909 A 1.636 1.636 0 0 1 7.414 1.907 Q 7.651 1.907 7.774 1.969 Z M 65.386 1.969 L 65.386 2.725 A 2.251 2.251 0 0 0 65.144 2.698 A 2.782 2.782 0 0 0 64.986 2.694 Q 64.208 2.694 63.917 3.338 A 1.445 1.445 0 0 0 63.901 3.375 L 63.901 6.75 L 63.088 6.75 L 63.088 1.995 L 63.879 1.995 L 63.892 2.544 Q 64.272 1.938 64.955 1.909 A 1.636 1.636 0 0 1 65.026 1.907 Q 65.263 1.907 65.386 1.969 Z M 33.873 1.995 L 33.873 6.75 L 33.06 6.75 L 33.06 1.995 L 33.873 1.995 Z M 58.557 4.425 A 2.772 2.772 0 0 0 58.605 4.954 Q 58.665 5.264 58.802 5.51 A 1.545 1.545 0 0 0 58.924 5.695 Q 59.291 6.174 59.906 6.174 A 1.269 1.269 0 0 0 60.396 6.083 Q 60.675 5.967 60.878 5.706 A 1.471 1.471 0 0 0 60.891 5.689 A 1.648 1.648 0 0 0 61.146 5.171 Q 61.214 4.945 61.24 4.672 A 3.655 3.655 0 0 0 61.255 4.329 A 2.687 2.687 0 0 0 61.204 3.789 Q 61.137 3.459 60.979 3.2 A 1.586 1.586 0 0 0 60.884 3.061 A 1.231 1.231 0 0 0 60.469 2.705 Q 60.216 2.575 59.897 2.575 Q 59.308 2.575 58.941 3.035 A 1.515 1.515 0 0 0 58.926 3.054 A 1.589 1.589 0 0 0 58.674 3.552 Q 58.605 3.772 58.576 4.039 A 3.676 3.676 0 0 0 58.557 4.425 Z M 2.25 3.757 L 0.844 3.757 L 0.844 6.06 L 2.237 6.06 A 1.84 1.84 0 0 0 2.612 6.024 Q 2.852 5.974 3.036 5.854 A 1.064 1.064 0 0 0 3.166 5.755 A 1.003 1.003 0 0 0 3.488 5.154 A 1.459 1.459 0 0 0 3.507 4.913 Q 3.507 4.007 2.734 3.811 A 1.977 1.977 0 0 0 2.251 3.757 Z M 0.844 1.046 L 0.844 3.081 L 2.118 3.081 Q 2.672 3.081 3.004 2.804 A 0.905 0.905 0 0 0 3.331 2.154 A 1.27 1.27 0 0 0 3.335 2.052 Q 3.335 1.696 3.195 1.471 A 0.71 0.71 0 0 0 3.028 1.285 A 0.969 0.969 0 0 0 2.742 1.136 Q 2.479 1.047 2.098 1.046 A 3.261 3.261 0 0 0 2.092 1.046 L 0.844 1.046 Z M 11.153 5.418 L 11.153 4.443 L 10.516 4.443 Q 9.022 4.443 9.022 5.317 Q 9.022 5.7 9.277 5.915 A 0.893 0.893 0 0 0 9.69 6.108 A 1.259 1.259 0 0 0 9.932 6.13 A 1.429 1.429 0 0 0 10.657 5.933 A 1.335 1.335 0 0 0 10.952 5.705 A 1.108 1.108 0 0 0 11.153 5.418 Z M 53.016 5.418 L 53.016 4.443 L 52.378 4.443 Q 50.884 4.443 50.884 5.317 Q 50.884 5.7 51.139 5.915 A 0.893 0.893 0 0 0 51.553 6.108 A 1.259 1.259 0 0 0 51.794 6.13 A 1.429 1.429 0 0 0 52.519 5.933 A 1.335 1.335 0 0 0 52.815 5.705 A 1.108 1.108 0 0 0 53.016 5.418 Z M 18.347 3.938 L 20.729 3.938 L 20.729 3.876 Q 20.703 3.417 20.532 3.111 A 1.13 1.13 0 0 0 20.395 2.916 A 0.983 0.983 0 0 0 19.741 2.584 A 1.39 1.39 0 0 0 19.586 2.575 A 1.106 1.106 0 0 0 19.064 2.698 A 1.14 1.14 0 0 0 18.76 2.933 A 1.417 1.417 0 0 0 18.484 3.379 Q 18.41 3.563 18.37 3.785 A 2.741 2.741 0 0 0 18.347 3.938 Z M 32.994 0.734 Q 32.994 0.536 33.115 0.4 Q 33.227 0.274 33.439 0.264 A 0.783 0.783 0 0 1 33.473 0.264 Q 33.71 0.264 33.833 0.4 A 0.474 0.474 0 0 1 33.956 0.703 A 0.614 0.614 0 0 1 33.957 0.734 A 0.523 0.523 0 0 1 33.931 0.9 A 0.442 0.442 0 0 1 33.833 1.063 Q 33.721 1.184 33.513 1.194 A 0.803 0.803 0 0 1 33.473 1.195 Q 33.301 1.195 33.19 1.126 A 0.362 0.362 0 0 1 33.115 1.063 A 0.456 0.456 0 0 1 32.997 0.788 A 0.605 0.605 0 0 1 32.994 0.734 Z" vector-effect="non-scaling-stroke"/></g><g transform="translate(25, 93)" id="svgGroup" stroke-linecap="round" fill-rule="evenodd" font-size="9pt" stroke="#000" stroke-width="0.25mm" fill="#000" style="stroke:#000;stroke-width:0.25mm;fill:#000"><path d="M 32.375 0 L 32.375 2.571 A 1.767 1.767 0 0 1 33.041 2.053 A 1.832 1.832 0 0 1 33.781 1.907 A 1.905 1.905 0 0 1 34.414 2.004 Q 35.256 2.3 35.299 3.506 A 3.668 3.668 0 0 1 35.301 3.608 L 35.301 6.75 L 34.488 6.75 L 34.488 3.604 A 1.837 1.837 0 0 0 34.466 3.324 Q 34.416 3.017 34.253 2.843 Q 34.067 2.645 33.714 2.606 A 1.66 1.66 0 0 0 33.535 2.597 A 1.253 1.253 0 0 0 33.12 2.664 A 1.123 1.123 0 0 0 32.84 2.808 A 1.432 1.432 0 0 0 32.375 3.362 L 32.375 6.75 L 31.562 6.75 L 31.562 0 L 32.375 0 Z M 29.553 2.522 L 29.593 1.995 L 30.335 1.995 L 30.335 6.636 A 2.511 2.511 0 0 1 30.265 7.249 A 1.738 1.738 0 0 1 29.788 8.09 A 1.834 1.834 0 0 1 28.858 8.57 A 2.671 2.671 0 0 1 28.318 8.622 A 2.446 2.446 0 0 1 27.312 8.402 A 2.003 2.003 0 0 1 26.902 8.161 A 1.563 1.563 0 0 1 26.561 7.8 L 26.982 7.313 A 1.889 1.889 0 0 0 27.417 7.712 A 1.514 1.514 0 0 0 28.261 7.958 A 1.695 1.695 0 0 0 28.638 7.919 Q 28.907 7.858 29.101 7.702 A 1.037 1.037 0 0 0 29.186 7.625 A 1.09 1.09 0 0 0 29.463 7.132 Q 29.51 6.959 29.517 6.752 A 2.134 2.134 0 0 0 29.518 6.684 L 29.518 6.275 A 1.601 1.601 0 0 1 28.466 6.821 A 2.279 2.279 0 0 1 28.187 6.838 A 1.672 1.672 0 0 1 27.431 6.67 Q 27.109 6.51 26.86 6.197 A 2.14 2.14 0 0 1 26.835 6.166 A 2.316 2.316 0 0 1 26.452 5.386 Q 26.319 4.922 26.319 4.333 Q 26.319 3.472 26.627 2.884 A 2.096 2.096 0 0 1 26.833 2.564 Q 27.347 1.907 28.195 1.907 A 1.971 1.971 0 0 1 28.794 1.994 A 1.55 1.55 0 0 1 29.553 2.522 Z M 20.461 0.352 L 20.461 6.06 L 23.493 6.06 L 23.493 6.75 L 19.613 6.75 L 19.613 0.352 L 20.461 0.352 Z M 10.499 0.352 L 10.499 4.601 L 11.386 4.601 L 11.386 5.265 L 10.499 5.265 L 10.499 6.75 L 9.681 6.75 L 9.681 5.265 L 6.768 5.265 L 6.768 4.786 L 9.633 0.352 L 10.499 0.352 Z M 15.897 2.592 A 1.544 1.544 0 0 0 16 2.021 A 2.226 2.226 0 0 0 15.979 1.707 A 1.566 1.566 0 0 0 15.48 0.738 A 1.754 1.754 0 0 0 14.714 0.333 A 2.443 2.443 0 0 0 14.115 0.264 A 2.539 2.539 0 0 0 13.606 0.312 A 1.767 1.767 0 0 0 12.749 0.738 Q 12.23 1.213 12.23 2.021 A 1.808 1.808 0 0 0 12.23 2.058 A 1.499 1.499 0 0 0 12.476 2.87 A 1.626 1.626 0 0 0 12.638 3.077 A 1.726 1.726 0 0 0 13.148 3.454 A 2.119 2.119 0 0 0 13.049 3.5 A 1.738 1.738 0 0 0 12.364 4.087 A 1.629 1.629 0 0 0 12.081 5.023 A 2.272 2.272 0 0 0 12.09 5.237 A 1.63 1.63 0 0 0 12.636 6.344 A 1.895 1.895 0 0 0 13.487 6.771 A 2.797 2.797 0 0 0 14.115 6.838 A 2.796 2.796 0 0 0 14.714 6.777 A 1.925 1.925 0 0 0 15.59 6.346 A 1.578 1.578 0 0 0 16.064 5.62 A 1.989 1.989 0 0 0 16.15 5.023 A 1.581 1.581 0 0 0 15.858 4.087 Q 15.565 3.674 15.064 3.458 Q 15.495 3.248 15.748 2.874 A 1.449 1.449 0 0 0 15.897 2.592 Z M 36.809 0.844 L 37.622 0.844 L 37.622 1.995 L 38.509 1.995 L 38.509 2.624 L 37.622 2.624 L 37.622 5.572 Q 37.622 5.858 37.74 6.001 Q 37.859 6.144 38.145 6.144 A 1.046 1.046 0 0 0 38.242 6.138 Q 38.345 6.129 38.485 6.101 A 4.024 4.024 0 0 0 38.531 6.091 L 38.531 6.75 A 2.463 2.463 0 0 1 38.098 6.829 A 2.157 2.157 0 0 1 37.907 6.838 Q 37.46 6.838 37.193 6.616 A 0.856 0.856 0 0 1 37.085 6.508 Q 36.858 6.238 36.817 5.78 A 2.351 2.351 0 0 1 36.809 5.572 L 36.809 2.624 L 35.943 2.624 L 35.943 1.995 L 36.809 1.995 L 36.809 0.844 Z M 2.457 0.321 L 2.457 6.75 L 1.639 6.75 L 1.639 1.332 L 0 1.934 L 0 1.195 L 2.329 0.321 L 2.457 0.321 Z M 25.211 1.995 L 25.211 6.75 L 24.398 6.75 L 24.398 1.995 L 25.211 1.995 Z M 29.518 5.449 L 29.518 3.278 A 1.439 1.439 0 0 0 29.217 2.891 Q 28.913 2.62 28.473 2.599 A 1.578 1.578 0 0 0 28.397 2.597 Q 27.806 2.597 27.472 3.056 A 1.51 1.51 0 0 0 27.261 3.484 Q 27.195 3.689 27.164 3.939 A 3.955 3.955 0 0 0 27.136 4.425 Q 27.136 5.229 27.466 5.689 Q 27.795 6.148 28.389 6.148 A 1.32 1.32 0 0 0 28.898 6.054 Q 29.29 5.891 29.518 5.449 Z M 9.584 1.639 L 7.69 4.601 L 9.681 4.601 L 9.681 1.463 L 9.584 1.639 Z M 15.337 5.005 A 1.375 1.375 0 0 0 15.277 4.592 A 1.109 1.109 0 0 0 14.996 4.131 A 1.148 1.148 0 0 0 14.325 3.807 A 1.593 1.593 0 0 0 14.106 3.792 A 1.466 1.466 0 0 0 13.718 3.841 A 1.086 1.086 0 0 0 13.225 4.126 A 1.123 1.123 0 0 0 12.912 4.762 A 1.572 1.572 0 0 0 12.894 5.005 A 1.48 1.48 0 0 0 12.935 5.367 A 1.019 1.019 0 0 0 13.217 5.862 Q 13.523 6.158 14.056 6.173 A 2.053 2.053 0 0 0 14.115 6.174 Q 14.609 6.174 14.919 5.94 A 1.018 1.018 0 0 0 15.012 5.86 A 1.041 1.041 0 0 0 15.311 5.292 A 1.518 1.518 0 0 0 15.337 5.005 Z M 14.115 0.932 A 1.259 1.259 0 0 0 13.762 0.979 A 0.973 0.973 0 0 0 13.34 1.228 Q 13.043 1.525 13.043 2.035 A 1.325 1.325 0 0 0 13.088 2.387 A 0.994 0.994 0 0 0 13.335 2.823 A 0.974 0.974 0 0 0 13.897 3.108 A 1.382 1.382 0 0 0 14.115 3.125 A 1.279 1.279 0 0 0 14.46 3.08 A 0.952 0.952 0 0 0 14.895 2.823 A 1.018 1.018 0 0 0 15.17 2.26 A 1.426 1.426 0 0 0 15.187 2.035 A 1.282 1.282 0 0 0 15.137 1.668 A 1.013 1.013 0 0 0 14.884 1.239 Q 14.581 0.932 14.115 0.932 Z M 24.333 0.734 Q 24.333 0.536 24.453 0.4 Q 24.565 0.274 24.777 0.264 A 0.783 0.783 0 0 1 24.812 0.264 Q 25.049 0.264 25.172 0.4 A 0.474 0.474 0 0 1 25.294 0.703 A 0.614 0.614 0 0 1 25.295 0.734 A 0.523 0.523 0 0 1 25.27 0.9 A 0.442 0.442 0 0 1 25.172 1.063 Q 25.059 1.184 24.851 1.194 A 0.803 0.803 0 0 1 24.812 1.195 Q 24.639 1.195 24.528 1.126 A 0.362 0.362 0 0 1 24.453 1.063 A 0.456 0.456 0 0 1 24.335 0.788 A 0.605 0.605 0 0 1 24.333 0.734 Z" vector-effect="non-scaling-stroke"/></g>
</svgversion="1.0" encoding="UTF-8"?>
<svg width="48px" height="48px" viewBox="0 0 48 48" version="1.1" xmlns="http://www.w3.org/2000/svg" xmlns:xlink="http://www.w3.org/1999/xlink">
    <title>Icon-Resource/Quantum-Technologies/Res_Amazon-Braket_Simulator-1 _48_Light</title>
    <g id="Icon-Resource/Quantum-Technologies/Res_Amazon-Braket_Simulator-1-_48" stroke="none" stroke-width="1" fill="none" fill-rule="evenodd">
        <path transform="translate(12.000000, 8.000000), scale(.65)" d="M39,39.94 C39,39.973 38.973,40 38.939,40 L8,39.94 L8.061,9 L39,9.06 L39,39.94 Z M46,11 L46,9 L41,9 L41,9.06 C41,7.924 40.075,7 38.939,7 L39,7 L39,2 L37,2 L37,7 L32,7 L32,2 L30,2 L30,7 L25,7 L25,2 L23,2 L23,7 L18,7 L18,2 L16,2 L16,7 L11,7 L11,2 L9,2 L9,7 L8.061,7 C6.945,7 6.039,7.893 6.006,9 L2,9 L2,11 L6,11 L6,16 L2,16 L2,18 L6,18 L6,23 L2,23 L2,25 L6,25 L6,30 L2,30 L2,32 L6,32 L6,37 L2,37 L2,39 L6,39 L6,39.94 C6,41.076 6.925,42 8.061,42 L9,42 L9,46 L11,46 L11,42 L16,42 L16,46 L18,46 L18,42 L23,42 L23,46 L25,46 L25,42 L30,42 L30,46 L32,46 L32,42 L37,42 L37,46 L39,46 L39,41.994 C40.107,41.961 41,41.055 41,39.94 L41,39 L46,39 L46,37 L41,37 L41,32 L46,32 L46,30 L41,30 L41,25 L46,25 L46,23 L41,23 L41,18 L46,18 L46,16 L41,16 L41,11 L46,11 Z M20.742,29.085 C20.945,29.207 21.146,29.333 21.35,29.45 C21.556,29.569 21.762,29.679 21.969,29.793 C21.614,29.932 21.268,30.061 20.929,30.178 C20.861,29.826 20.799,29.461 20.742,29.085 L20.742,29.085 Z M17.555,24.338 C17.831,24.1 18.117,23.863 18.415,23.628 C18.41,23.866 18.401,24.106 18.401,24.344 C18.401,24.579 18.41,24.816 18.414,25.052 C18.114,24.813 17.827,24.575 17.555,24.338 L17.555,24.338 Z M13.715,18.234 C14.177,17.433 16.163,17.234 19.01,17.938 C18.813,18.927 18.667,19.967 18.565,21.024 C17.681,21.65 16.848,22.296 16.094,22.956 C14.07,20.847 13.254,19.033 13.715,18.234 L13.715,18.234 Z M21.969,18.895 C21.763,19.009 21.556,19.118 21.35,19.237 C21.144,19.357 20.945,19.481 20.743,19.603 C20.799,19.226 20.861,18.861 20.929,18.51 C21.268,18.627 21.614,18.755 21.969,18.895 L21.969,18.895 Z M27.672,18.499 C27.741,18.859 27.804,19.229 27.859,19.607 C27.655,19.483 27.454,19.357 27.246,19.237 C27.04,19.118 26.828,19.006 26.619,18.891 C26.974,18.75 27.325,18.62 27.672,18.499 L27.672,18.499 Z M30.83,17.657 C32.918,17.301 34.471,17.523 34.88,18.234 C35.291,18.945 34.706,20.4 33.354,22.03 C33.098,22.34 32.81,22.652 32.51,22.963 C31.756,22.303 30.922,21.656 30.037,21.029 C29.937,19.95 29.793,18.905 29.599,17.922 C30.019,17.818 30.433,17.725 30.83,17.657 L30.83,17.657 Z M30.193,24.344 C30.193,24.103 30.185,23.866 30.181,23.627 C30.479,23.864 30.769,24.104 31.048,24.344 C30.769,24.585 30.479,24.823 30.18,25.061 C30.185,24.821 30.193,24.582 30.193,24.344 L30.193,24.344 Z M22.35,27.718 C21.686,27.334 21.067,26.943 20.477,26.55 C20.432,25.842 20.401,25.111 20.401,24.344 C20.401,23.576 20.432,22.844 20.477,22.136 C21.078,21.735 21.701,21.344 22.35,20.97 C22.998,20.596 23.648,20.252 24.296,19.931 C24.932,20.246 25.581,20.586 26.246,20.97 C26.895,21.344 27.518,21.736 28.12,22.136 C28.166,22.858 28.193,23.594 28.193,24.344 C28.193,25.112 28.163,25.844 28.118,26.553 C27.517,26.953 26.894,27.344 26.246,27.718 C25.581,28.102 24.932,28.442 24.295,28.757 C23.647,28.436 22.997,28.092 22.35,27.718 L22.35,27.718 Z M27.664,30.187 C27.318,30.065 26.968,29.936 26.615,29.795 C26.825,29.68 27.039,29.57 27.246,29.45 C27.452,29.332 27.65,29.207 27.852,29.086 C27.795,29.465 27.732,29.832 27.664,30.187 L27.664,30.187 Z M24.298,36.564 C23.373,36.564 22.208,34.944 21.394,32.128 C22.352,31.802 23.327,31.412 24.295,30.97 C25.277,31.422 26.251,31.82 27.197,32.142 C26.383,34.95 25.22,36.564 24.298,36.564 L24.298,36.564 Z M12.131,27.767 C11.286,29.564 11.584,30.763 11.982,31.454 C12.685,32.669 14.118,33.187 15.948,33.187 C17.012,33.187 18.215,32.999 19.479,32.684 C20.455,36.096 22.078,38.564 24.298,38.564 C26.513,38.564 28.134,36.106 29.11,32.704 C29.564,32.817 30.012,32.918 30.442,32.993 L30.784,31.023 C30.396,30.955 29.992,30.864 29.583,30.762 C29.781,29.768 29.927,28.725 30.029,27.664 C30.917,27.035 31.754,26.386 32.51,25.724 C32.81,26.036 33.098,26.348 33.354,26.658 C34.706,28.288 35.291,29.742 34.88,30.454 C34.625,30.896 33.968,31.073 33.461,31.144 L33.74,33.125 C35.455,32.883 36.249,32.083 36.612,31.454 C37.49,29.933 36.881,27.776 34.894,25.381 C34.607,25.036 34.288,24.69 33.955,24.344 C34.288,23.998 34.607,23.652 34.894,23.307 C36.881,20.912 37.49,18.755 36.612,17.234 C35.733,15.713 33.562,15.163 30.494,15.686 C30.052,15.761 29.592,15.865 29.126,15.981 C28.992,15.518 28.852,15.066 28.695,14.645 L26.82,15.34 C26.961,15.719 27.088,16.125 27.208,16.542 C26.257,16.866 25.277,17.265 24.289,17.72 C23.322,17.279 22.35,16.885 21.394,16.561 C22.208,13.744 23.373,12.124 24.298,12.124 C24.796,12.124 25.269,12.585 25.577,12.972 L27.14,11.724 C26.084,10.401 25.012,10.124 24.298,10.124 C22.078,10.124 20.456,12.59 19.479,16 C16.038,15.141 13.092,15.314 11.982,17.234 C10.875,19.153 12.193,21.786 14.65,24.332 C14.327,24.668 14.017,25.003 13.737,25.337 L15.272,26.62 C15.524,26.318 15.804,26.016 16.097,25.712 C16.86,26.383 17.693,27.033 18.564,27.654 C18.666,28.714 18.812,29.757 19.01,30.75 C16.162,31.453 14.176,31.254 13.715,30.454 C13.409,29.925 13.726,29.077 13.941,28.619 L12.131,27.767 Z" id="Fill-1" fill="#000000"></path>
    </g><g transform="translate(25, 83)" id="svgGroup" stroke-linecap="round" fill-rule="evenodd" font-size="9pt" stroke="#000" stroke-width="0.25mm" fill="#000" style="stroke:#000;stroke-width:0.25mm;fill:#000"><path d="M 35.169 1.995 L 35.938 1.995 L 35.96 2.522 Q 36.483 1.907 37.371 1.907 A 2.009 2.009 0 0 1 37.882 1.968 A 1.244 1.244 0 0 1 38.729 2.672 A 1.801 1.801 0 0 1 39.346 2.118 A 1.65 1.65 0 0 1 39.876 1.937 A 2.209 2.209 0 0 1 40.245 1.907 A 2.119 2.119 0 0 1 40.889 1.997 Q 41.816 2.292 41.836 3.564 L 41.836 6.75 L 41.023 6.75 L 41.023 3.612 A 1.781 1.781 0 0 0 41.002 3.332 Q 40.979 3.185 40.928 3.067 A 0.758 0.758 0 0 0 40.79 2.85 A 0.68 0.68 0 0 0 40.537 2.682 Q 40.326 2.597 40.009 2.597 A 1.245 1.245 0 0 0 39.643 2.648 A 1.008 1.008 0 0 0 39.256 2.867 A 1.042 1.042 0 0 0 38.942 3.404 A 1.41 1.41 0 0 0 38.909 3.595 L 38.909 6.75 L 38.092 6.75 L 38.092 3.634 A 1.532 1.532 0 0 0 38.043 3.23 Q 37.916 2.768 37.459 2.643 A 1.457 1.457 0 0 0 37.077 2.597 Q 36.303 2.597 36.002 3.234 A 1.459 1.459 0 0 0 35.982 3.278 L 35.982 6.75 L 35.169 6.75 L 35.169 1.995 Z M 32.023 2.202 L 31.175 2.202 A 1.466 1.466 0 0 0 31.125 1.809 A 1.066 1.066 0 0 0 30.806 1.29 A 1.211 1.211 0 0 0 30.336 1.033 Q 30.085 0.958 29.764 0.958 A 2.286 2.286 0 0 0 29.384 0.988 Q 29.182 1.022 29.02 1.095 A 1.101 1.101 0 0 0 28.791 1.233 A 0.892 0.892 0 0 0 28.446 1.887 A 1.267 1.267 0 0 0 28.441 1.995 A 0.806 0.806 0 0 0 28.709 2.6 A 1.134 1.134 0 0 0 28.773 2.656 A 1.562 1.562 0 0 0 29.011 2.813 Q 29.342 2.993 29.903 3.151 A 8.228 8.228 0 0 1 30.367 3.295 Q 30.602 3.377 30.797 3.464 A 3.297 3.297 0 0 1 31.151 3.645 A 2.342 2.342 0 0 1 31.489 3.889 Q 31.679 4.056 31.802 4.248 A 1.45 1.45 0 0 1 31.819 4.276 A 1.498 1.498 0 0 1 32.015 4.832 A 1.948 1.948 0 0 1 32.036 5.124 A 1.606 1.606 0 0 1 31.914 5.76 Q 31.768 6.101 31.45 6.354 A 1.886 1.886 0 0 1 31.43 6.37 Q 30.823 6.838 29.808 6.838 A 3.023 3.023 0 0 1 28.667 6.623 A 2.917 2.917 0 0 1 28.578 6.585 A 2.383 2.383 0 0 1 28.1 6.307 A 1.874 1.874 0 0 1 27.697 5.893 A 1.689 1.689 0 0 1 27.387 4.896 L 28.235 4.896 A 1.261 1.261 0 0 0 28.304 5.323 A 1.074 1.074 0 0 0 28.663 5.812 Q 29.048 6.113 29.664 6.144 A 2.87 2.87 0 0 0 29.808 6.148 A 2.628 2.628 0 0 0 30.195 6.121 Q 30.391 6.092 30.55 6.031 A 1.129 1.129 0 0 0 30.832 5.875 Q 31.188 5.603 31.188 5.133 A 1.074 1.074 0 0 0 31.145 4.822 A 0.816 0.816 0 0 0 30.858 4.406 Q 30.529 4.148 29.663 3.898 Q 28.578 3.586 28.083 3.131 Q 27.589 2.676 27.589 2.008 Q 27.589 1.252 28.193 0.758 A 2.121 2.121 0 0 1 29.084 0.335 A 3.087 3.087 0 0 1 29.764 0.264 A 2.913 2.913 0 0 1 30.424 0.336 A 2.372 2.372 0 0 1 30.94 0.519 A 2.051 2.051 0 0 1 31.471 0.889 A 1.834 1.834 0 0 1 31.74 1.222 A 1.798 1.798 0 0 1 32.023 2.202 Z M 16.225 6.75 L 14.568 4.548 L 14.058 5.08 L 14.058 6.75 L 13.245 6.75 L 13.245 0 L 14.058 0 L 14.058 4.083 L 14.493 3.56 L 15.974 1.995 L 16.963 1.995 L 15.113 3.981 L 17.178 6.75 L 16.225 6.75 Z M 46.015 6.75 L 45.998 6.28 A 1.526 1.526 0 0 1 45.171 6.775 Q 44.921 6.836 44.624 6.838 A 2.996 2.996 0 0 1 44.604 6.838 A 2.086 2.086 0 0 1 44.145 6.79 Q 43.714 6.693 43.447 6.396 A 1.41 1.41 0 0 1 43.163 5.899 Q 43.047 5.556 43.044 5.089 L 43.044 1.995 L 43.857 1.995 L 43.857 5.067 Q 43.857 6.037 44.565 6.137 A 1.229 1.229 0 0 0 44.736 6.148 A 1.927 1.927 0 0 0 45.187 6.099 Q 45.75 5.964 45.976 5.454 L 45.976 1.995 L 46.789 1.995 L 46.789 6.75 L 46.015 6.75 Z M 12.133 6.75 L 11.281 6.75 A 0.632 0.632 0 0 1 11.245 6.66 Q 11.214 6.562 11.189 6.41 A 3.997 3.997 0 0 1 11.167 6.249 Q 10.6 6.838 9.813 6.838 A 2.033 2.033 0 0 1 9.284 6.772 A 1.529 1.529 0 0 1 8.659 6.44 Q 8.209 6.042 8.209 5.432 Q 8.209 4.689 8.774 4.278 Q 9.338 3.867 10.362 3.867 L 11.153 3.867 L 11.153 3.494 A 1.152 1.152 0 0 0 11.118 3.199 A 0.828 0.828 0 0 0 10.898 2.815 Q 10.682 2.6 10.292 2.568 A 1.748 1.748 0 0 0 10.147 2.562 Q 9.712 2.562 9.417 2.782 Q 9.123 3.001 9.123 3.313 L 8.306 3.313 A 1.041 1.041 0 0 1 8.431 2.825 A 1.409 1.409 0 0 1 8.558 2.626 Q 8.811 2.294 9.244 2.101 A 2.249 2.249 0 0 1 10.02 1.913 A 2.669 2.669 0 0 1 10.195 1.907 A 2.65 2.65 0 0 1 10.713 1.955 Q 11.02 2.016 11.259 2.156 A 1.439 1.439 0 0 1 11.483 2.318 A 1.396 1.396 0 0 1 11.936 3.144 A 1.998 1.998 0 0 1 11.966 3.45 L 11.966 5.638 Q 11.966 6.073 12.04 6.39 A 1.707 1.707 0 0 0 12.133 6.68 L 12.133 6.75 Z M 53.996 6.75 L 53.143 6.75 A 0.632 0.632 0 0 1 53.108 6.66 Q 53.076 6.562 53.052 6.41 A 3.997 3.997 0 0 1 53.029 6.249 Q 52.462 6.838 51.675 6.838 A 2.033 2.033 0 0 1 51.146 6.772 A 1.529 1.529 0 0 1 50.522 6.44 Q 50.071 6.042 50.071 5.432 Q 50.071 4.689 50.636 4.278 Q 51.201 3.867 52.225 3.867 L 53.016 3.867 L 53.016 3.494 A 1.152 1.152 0 0 0 52.98 3.199 A 0.828 0.828 0 0 0 52.761 2.815 Q 52.544 2.6 52.154 2.568 A 1.748 1.748 0 0 0 52.009 2.562 Q 51.574 2.562 51.28 2.782 Q 50.985 3.001 50.985 3.313 L 50.168 3.313 A 1.041 1.041 0 0 1 50.293 2.825 A 1.409 1.409 0 0 1 50.421 2.626 Q 50.673 2.294 51.106 2.101 A 2.249 2.249 0 0 1 51.882 1.913 A 2.669 2.669 0 0 1 52.058 1.907 A 2.65 2.65 0 0 1 52.575 1.955 Q 52.882 2.016 53.121 2.156 A 1.439 1.439 0 0 1 53.345 2.318 A 1.396 1.396 0 0 1 53.799 3.144 A 1.998 1.998 0 0 1 53.829 3.45 L 53.829 5.638 Q 53.829 6.073 53.902 6.39 A 1.707 1.707 0 0 0 53.996 6.68 L 53.996 6.75 Z M 17.508 4.504 L 17.508 4.355 A 3.17 3.17 0 0 1 17.584 3.646 A 2.581 2.581 0 0 1 17.778 3.092 A 2.191 2.191 0 0 1 18.226 2.466 A 2.033 2.033 0 0 1 18.534 2.221 Q 19.02 1.907 19.586 1.907 A 2.254 2.254 0 0 1 20.2 1.986 A 1.639 1.639 0 0 1 21.028 2.518 Q 21.542 3.129 21.542 4.267 L 21.542 4.605 L 18.321 4.605 A 2.111 2.111 0 0 0 18.392 5.114 A 1.516 1.516 0 0 0 18.732 5.741 A 1.282 1.282 0 0 0 19.666 6.173 A 1.652 1.652 0 0 0 19.731 6.174 A 1.763 1.763 0 0 0 20.06 6.145 Q 20.284 6.103 20.461 5.999 A 1.827 1.827 0 0 0 20.97 5.551 A 2.068 2.068 0 0 0 20.984 5.533 L 21.48 5.919 A 1.926 1.926 0 0 1 20.081 6.811 A 2.749 2.749 0 0 1 19.688 6.838 A 2.394 2.394 0 0 1 18.936 6.725 A 1.974 1.974 0 0 1 18.114 6.203 Q 17.508 5.568 17.508 4.504 Z M 2.219 6.75 L 0 6.75 L 0 0.352 L 2.092 0.352 A 4.031 4.031 0 0 1 2.665 0.39 Q 2.957 0.432 3.194 0.521 A 1.629 1.629 0 0 1 3.658 0.782 A 1.383 1.383 0 0 1 4.13 1.558 A 2.164 2.164 0 0 1 4.184 2.057 A 1.3 1.3 0 0 1 3.929 2.85 A 1.589 1.589 0 0 1 3.418 3.294 A 1.972 1.972 0 0 1 3.234 3.384 A 1.571 1.571 0 0 1 3.749 3.63 A 1.446 1.446 0 0 1 4.054 3.935 A 1.531 1.531 0 0 1 4.346 4.713 A 1.961 1.961 0 0 1 4.355 4.904 A 2.139 2.139 0 0 1 4.28 5.487 A 1.577 1.577 0 0 1 3.797 6.258 A 1.832 1.832 0 0 1 3.105 6.633 Q 2.838 6.713 2.52 6.739 A 3.81 3.81 0 0 1 2.219 6.75 Z M 22.772 0.844 L 23.585 0.844 L 23.585 1.995 L 24.473 1.995 L 24.473 2.624 L 23.585 2.624 L 23.585 5.572 Q 23.585 5.858 23.704 6.001 Q 23.823 6.144 24.108 6.144 A 1.046 1.046 0 0 0 24.206 6.138 Q 24.309 6.129 24.448 6.101 A 4.024 4.024 0 0 0 24.495 6.091 L 24.495 6.75 A 2.463 2.463 0 0 1 24.062 6.829 A 2.157 2.157 0 0 1 23.871 6.838 Q 23.424 6.838 23.157 6.616 A 0.856 0.856 0 0 1 23.049 6.508 Q 22.822 6.238 22.781 5.78 A 2.351 2.351 0 0 1 22.772 5.572 L 22.772 2.624 L 21.907 2.624 L 21.907 1.995 L 22.772 1.995 L 22.772 0.844 Z M 55.393 0.844 L 56.206 0.844 L 56.206 1.995 L 57.094 1.995 L 57.094 2.624 L 56.206 2.624 L 56.206 5.572 Q 56.206 5.858 56.325 6.001 Q 56.443 6.144 56.729 6.144 A 1.046 1.046 0 0 0 56.827 6.138 Q 56.929 6.129 57.069 6.101 A 4.024 4.024 0 0 0 57.116 6.091 L 57.116 6.75 A 2.463 2.463 0 0 1 56.683 6.829 A 2.157 2.157 0 0 1 56.492 6.838 Q 56.045 6.838 55.778 6.616 A 0.856 0.856 0 0 1 55.67 6.508 Q 55.443 6.238 55.402 5.78 A 2.351 2.351 0 0 1 55.393 5.572 L 55.393 2.624 L 54.527 2.624 L 54.527 1.995 L 55.393 1.995 L 55.393 0.844 Z M 48.907 0 L 48.907 6.75 L 48.094 6.75 L 48.094 0 L 48.907 0 Z M 57.74 4.386 L 57.74 4.329 A 3.057 3.057 0 0 1 57.827 3.587 A 2.573 2.573 0 0 1 58.014 3.072 A 2.16 2.16 0 0 1 58.429 2.486 A 1.957 1.957 0 0 1 58.779 2.21 A 2.036 2.036 0 0 1 59.723 1.913 A 2.491 2.491 0 0 1 59.897 1.907 A 2.277 2.277 0 0 1 60.651 2.027 A 1.937 1.937 0 0 1 61.469 2.58 A 2.29 2.29 0 0 1 61.987 3.608 A 3.373 3.373 0 0 1 62.068 4.368 L 62.068 4.425 A 3.114 3.114 0 0 1 61.989 5.142 A 2.577 2.577 0 0 1 61.802 5.671 A 2.056 2.056 0 0 1 61.275 6.361 A 2.001 2.001 0 0 1 61.042 6.53 A 2.045 2.045 0 0 1 60.122 6.829 A 2.529 2.529 0 0 1 59.906 6.838 A 2.262 2.262 0 0 1 59.156 6.718 A 1.938 1.938 0 0 1 58.34 6.166 A 2.297 2.297 0 0 1 57.814 5.111 A 3.357 3.357 0 0 1 57.74 4.386 Z M 7.774 1.969 L 7.774 2.725 A 2.251 2.251 0 0 0 7.531 2.698 A 2.782 2.782 0 0 0 7.374 2.694 Q 6.596 2.694 6.305 3.338 A 1.445 1.445 0 0 0 6.289 3.375 L 6.289 6.75 L 5.476 6.75 L 5.476 1.995 L 6.267 1.995 L 6.28 2.544 Q 6.66 1.938 7.343 1.909 A 1.636 1.636 0 0 1 7.414 1.907 Q 7.651 1.907 7.774 1.969 Z M 65.386 1.969 L 65.386 2.725 A 2.251 2.251 0 0 0 65.144 2.698 A 2.782 2.782 0 0 0 64.986 2.694 Q 64.208 2.694 63.917 3.338 A 1.445 1.445 0 0 0 63.901 3.375 L 63.901 6.75 L 63.088 6.75 L 63.088 1.995 L 63.879 1.995 L 63.892 2.544 Q 64.272 1.938 64.955 1.909 A 1.636 1.636 0 0 1 65.026 1.907 Q 65.263 1.907 65.386 1.969 Z M 33.873 1.995 L 33.873 6.75 L 33.06 6.75 L 33.06 1.995 L 33.873 1.995 Z M 58.557 4.425 A 2.772 2.772 0 0 0 58.605 4.954 Q 58.665 5.264 58.802 5.51 A 1.545 1.545 0 0 0 58.924 5.695 Q 59.291 6.174 59.906 6.174 A 1.269 1.269 0 0 0 60.396 6.083 Q 60.675 5.967 60.878 5.706 A 1.471 1.471 0 0 0 60.891 5.689 A 1.648 1.648 0 0 0 61.146 5.171 Q 61.214 4.945 61.24 4.672 A 3.655 3.655 0 0 0 61.255 4.329 A 2.687 2.687 0 0 0 61.204 3.789 Q 61.137 3.459 60.979 3.2 A 1.586 1.586 0 0 0 60.884 3.061 A 1.231 1.231 0 0 0 60.469 2.705 Q 60.216 2.575 59.897 2.575 Q 59.308 2.575 58.941 3.035 A 1.515 1.515 0 0 0 58.926 3.054 A 1.589 1.589 0 0 0 58.674 3.552 Q 58.605 3.772 58.576 4.039 A 3.676 3.676 0 0 0 58.557 4.425 Z M 2.25 3.757 L 0.844 3.757 L 0.844 6.06 L 2.237 6.06 A 1.84 1.84 0 0 0 2.612 6.024 Q 2.852 5.974 3.036 5.854 A 1.064 1.064 0 0 0 3.166 5.755 A 1.003 1.003 0 0 0 3.488 5.154 A 1.459 1.459 0 0 0 3.507 4.913 Q 3.507 4.007 2.734 3.811 A 1.977 1.977 0 0 0 2.251 3.757 Z M 0.844 1.046 L 0.844 3.081 L 2.118 3.081 Q 2.672 3.081 3.004 2.804 A 0.905 0.905 0 0 0 3.331 2.154 A 1.27 1.27 0 0 0 3.335 2.052 Q 3.335 1.696 3.195 1.471 A 0.71 0.71 0 0 0 3.028 1.285 A 0.969 0.969 0 0 0 2.742 1.136 Q 2.479 1.047 2.098 1.046 A 3.261 3.261 0 0 0 2.092 1.046 L 0.844 1.046 Z M 11.153 5.418 L 11.153 4.443 L 10.516 4.443 Q 9.022 4.443 9.022 5.317 Q 9.022 5.7 9.277 5.915 A 0.893 0.893 0 0 0 9.69 6.108 A 1.259 1.259 0 0 0 9.932 6.13 A 1.429 1.429 0 0 0 10.657 5.933 A 1.335 1.335 0 0 0 10.952 5.705 A 1.108 1.108 0 0 0 11.153 5.418 Z M 53.016 5.418 L 53.016 4.443 L 52.378 4.443 Q 50.884 4.443 50.884 5.317 Q 50.884 5.7 51.139 5.915 A 0.893 0.893 0 0 0 51.553 6.108 A 1.259 1.259 0 0 0 51.794 6.13 A 1.429 1.429 0 0 0 52.519 5.933 A 1.335 1.335 0 0 0 52.815 5.705 A 1.108 1.108 0 0 0 53.016 5.418 Z M 18.347 3.938 L 20.729 3.938 L 20.729 3.876 Q 20.703 3.417 20.532 3.111 A 1.13 1.13 0 0 0 20.395 2.916 A 0.983 0.983 0 0 0 19.741 2.584 A 1.39 1.39 0 0 0 19.586 2.575 A 1.106 1.106 0 0 0 19.064 2.698 A 1.14 1.14 0 0 0 18.76 2.933 A 1.417 1.417 0 0 0 18.484 3.379 Q 18.41 3.563 18.37 3.785 A 2.741 2.741 0 0 0 18.347 3.938 Z M 32.994 0.734 Q 32.994 0.536 33.115 0.4 Q 33.227 0.274 33.439 0.264 A 0.783 0.783 0 0 1 33.473 0.264 Q 33.71 0.264 33.833 0.4 A 0.474 0.474 0 0 1 33.956 0.703 A 0.614 0.614 0 0 1 33.957 0.734 A 0.523 0.523 0 0 1 33.931 0.9 A 0.442 0.442 0 0 1 33.833 1.063 Q 33.721 1.184 33.513 1.194 A 0.803 0.803 0 0 1 33.473 1.195 Q 33.301 1.195 33.19 1.126 A 0.362 0.362 0 0 1 33.115 1.063 A 0.456 0.456 0 0 1 32.997 0.788 A 0.605 0.605 0 0 1 32.994 0.734 Z" vector-effect="non-scaling-stroke"/></g><g transform="translate(25, 93)" id="svgGroup" stroke-linecap="round" fill-rule="evenodd" font-size="9pt" stroke="#000" stroke-width="0.25mm" fill="#000" style="stroke:#000;stroke-width:0.25mm;fill:#000"><path d="M 32.375 0 L 32.375 2.571 A 1.767 1.767 0 0 1 33.041 2.053 A 1.832 1.832 0 0 1 33.781 1.907 A 1.905 1.905 0 0 1 34.414 2.004 Q 35.256 2.3 35.299 3.506 A 3.668 3.668 0 0 1 35.301 3.608 L 35.301 6.75 L 34.488 6.75 L 34.488 3.604 A 1.837 1.837 0 0 0 34.466 3.324 Q 34.416 3.017 34.253 2.843 Q 34.067 2.645 33.714 2.606 A 1.66 1.66 0 0 0 33.535 2.597 A 1.253 1.253 0 0 0 33.12 2.664 A 1.123 1.123 0 0 0 32.84 2.808 A 1.432 1.432 0 0 0 32.375 3.362 L 32.375 6.75 L 31.562 6.75 L 31.562 0 L 32.375 0 Z M 29.553 2.522 L 29.593 1.995 L 30.335 1.995 L 30.335 6.636 A 2.511 2.511 0 0 1 30.265 7.249 A 1.738 1.738 0 0 1 29.788 8.09 A 1.834 1.834 0 0 1 28.858 8.57 A 2.671 2.671 0 0 1 28.318 8.622 A 2.446 2.446 0 0 1 27.312 8.402 A 2.003 2.003 0 0 1 26.902 8.161 A 1.563 1.563 0 0 1 26.561 7.8 L 26.982 7.313 A 1.889 1.889 0 0 0 27.417 7.712 A 1.514 1.514 0 0 0 28.261 7.958 A 1.695 1.695 0 0 0 28.638 7.919 Q 28.907 7.858 29.101 7.702 A 1.037 1.037 0 0 0 29.186 7.625 A 1.09 1.09 0 0 0 29.463 7.132 Q 29.51 6.959 29.517 6.752 A 2.134 2.134 0 0 0 29.518 6.684 L 29.518 6.275 A 1.601 1.601 0 0 1 28.466 6.821 A 2.279 2.279 0 0 1 28.187 6.838 A 1.672 1.672 0 0 1 27.431 6.67 Q 27.109 6.51 26.86 6.197 A 2.14 2.14 0 0 1 26.835 6.166 A 2.316 2.316 0 0 1 26.452 5.386 Q 26.319 4.922 26.319 4.333 Q 26.319 3.472 26.627 2.884 A 2.096 2.096 0 0 1 26.833 2.564 Q 27.347 1.907 28.195 1.907 A 1.971 1.971 0 0 1 28.794 1.994 A 1.55 1.55 0 0 1 29.553 2.522 Z M 20.461 0.352 L 20.461 6.06 L 23.493 6.06 L 23.493 6.75 L 19.613 6.75 L 19.613 0.352 L 20.461 0.352 Z M 10.499 0.352 L 10.499 4.601 L 11.386 4.601 L 11.386 5.265 L 10.499 5.265 L 10.499 6.75 L 9.681 6.75 L 9.681 5.265 L 6.768 5.265 L 6.768 4.786 L 9.633 0.352 L 10.499 0.352 Z M 15.897 2.592 A 1.544 1.544 0 0 0 16 2.021 A 2.226 2.226 0 0 0 15.979 1.707 A 1.566 1.566 0 0 0 15.48 0.738 A 1.754 1.754 0 0 0 14.714 0.333 A 2.443 2.443 0 0 0 14.115 0.264 A 2.539 2.539 0 0 0 13.606 0.312 A 1.767 1.767 0 0 0 12.749 0.738 Q 12.23 1.213 12.23 2.021 A 1.808 1.808 0 0 0 12.23 2.058 A 1.499 1.499 0 0 0 12.476 2.87 A 1.626 1.626 0 0 0 12.638 3.077 A 1.726 1.726 0 0 0 13.148 3.454 A 2.119 2.119 0 0 0 13.049 3.5 A 1.738 1.738 0 0 0 12.364 4.087 A 1.629 1.629 0 0 0 12.081 5.023 A 2.272 2.272 0 0 0 12.09 5.237 A 1.63 1.63 0 0 0 12.636 6.344 A 1.895 1.895 0 0 0 13.487 6.771 A 2.797 2.797 0 0 0 14.115 6.838 A 2.796 2.796 0 0 0 14.714 6.777 A 1.925 1.925 0 0 0 15.59 6.346 A 1.578 1.578 0 0 0 16.064 5.62 A 1.989 1.989 0 0 0 16.15 5.023 A 1.581 1.581 0 0 0 15.858 4.087 Q 15.565 3.674 15.064 3.458 Q 15.495 3.248 15.748 2.874 A 1.449 1.449 0 0 0 15.897 2.592 Z M 36.809 0.844 L 37.622 0.844 L 37.622 1.995 L 38.509 1.995 L 38.509 2.624 L 37.622 2.624 L 37.622 5.572 Q 37.622 5.858 37.74 6.001 Q 37.859 6.144 38.145 6.144 A 1.046 1.046 0 0 0 38.242 6.138 Q 38.345 6.129 38.485 6.101 A 4.024 4.024 0 0 0 38.531 6.091 L 38.531 6.75 A 2.463 2.463 0 0 1 38.098 6.829 A 2.157 2.157 0 0 1 37.907 6.838 Q 37.46 6.838 37.193 6.616 A 0.856 0.856 0 0 1 37.085 6.508 Q 36.858 6.238 36.817 5.78 A 2.351 2.351 0 0 1 36.809 5.572 L 36.809 2.624 L 35.943 2.624 L 35.943 1.995 L 36.809 1.995 L 36.809 0.844 Z M 2.457 0.321 L 2.457 6.75 L 1.639 6.75 L 1.639 1.332 L 0 1.934 L 0 1.195 L 2.329 0.321 L 2.457 0.321 Z M 25.211 1.995 L 25.211 6.75 L 24.398 6.75 L 24.398 1.995 L 25.211 1.995 Z M 29.518 5.449 L 29.518 3.278 A 1.439 1.439 0 0 0 29.217 2.891 Q 28.913 2.62 28.473 2.599 A 1.578 1.578 0 0 0 28.397 2.597 Q 27.806 2.597 27.472 3.056 A 1.51 1.51 0 0 0 27.261 3.484 Q 27.195 3.689 27.164 3.939 A 3.955 3.955 0 0 0 27.136 4.425 Q 27.136 5.229 27.466 5.689 Q 27.795 6.148 28.389 6.148 A 1.32 1.32 0 0 0 28.898 6.054 Q 29.29 5.891 29.518 5.449 Z M 9.584 1.639 L 7.69 4.601 L 9.681 4.601 L 9.681 1.463 L 9.584 1.639 Z M 15.337 5.005 A 1.375 1.375 0 0 0 15.277 4.592 A 1.109 1.109 0 0 0 14.996 4.131 A 1.148 1.148 0 0 0 14.325 3.807 A 1.593 1.593 0 0 0 14.106 3.792 A 1.466 1.466 0 0 0 13.718 3.841 A 1.086 1.086 0 0 0 13.225 4.126 A 1.123 1.123 0 0 0 12.912 4.762 A 1.572 1.572 0 0 0 12.894 5.005 A 1.48 1.48 0 0 0 12.935 5.367 A 1.019 1.019 0 0 0 13.217 5.862 Q 13.523 6.158 14.056 6.173 A 2.053 2.053 0 0 0 14.115 6.174 Q 14.609 6.174 14.919 5.94 A 1.018 1.018 0 0 0 15.012 5.86 A 1.041 1.041 0 0 0 15.311 5.292 A 1.518 1.518 0 0 0 15.337 5.005 Z M 14.115 0.932 A 1.259 1.259 0 0 0 13.762 0.979 A 0.973 0.973 0 0 0 13.34 1.228 Q 13.043 1.525 13.043 2.035 A 1.325 1.325 0 0 0 13.088 2.387 A 0.994 0.994 0 0 0 13.335 2.823 A 0.974 0.974 0 0 0 13.897 3.108 A 1.382 1.382 0 0 0 14.115 3.125 A 1.279 1.279 0 0 0 14.46 3.08 A 0.952 0.952 0 0 0 14.895 2.823 A 1.018 1.018 0 0 0 15.17 2.26 A 1.426 1.426 0 0 0 15.187 2.035 A 1.282 1.282 0 0 0 15.137 1.668 A 1.013 1.013 0 0 0 14.884 1.239 Q 14.581 0.932 14.115 0.932 Z M 24.333 0.734 Q 24.333 0.536 24.453 0.4 Q 24.565 0.274 24.777 0.264 A 0.783 0.783 0 0 1 24.812 0.264 Q 25.049 0.264 25.172 0.4 A 0.474 0.474 0 0 1 25.294 0.703 A 0.614 0.614 0 0 1 25.295 0.734 A 0.523 0.523 0 0 1 25.27 0.9 A 0.442 0.442 0 0 1 25.172 1.063 Q 25.059 1.184 24.851 1.194 A 0.803 0.803 0 0 1 24.812 1.195 Q 24.639 1.195 24.528 1.126 A 0.362 0.362 0 0 1 24.453 1.063 A 0.456 0.456 0 0 1 24.335 0.788 A 0.605 0.605 0 0 1 24.333 0.734 Z" vector-effect="non-scaling-stroke"/></g>
</svg>