<?xml version="1.0" encoding="UTF-8"?>
<svg width="80px" height="80px" viewBox="0 0 80 80" version="1.1" xmlns="http://www.w3.org/2000/svg" xmlns:xlink="http://www.w3.org/1999/xlink">
    <!-- Generator: Sketch 64 (93537) - https://sketch.com -->
    <title>Icon-Architecture/64/Arch_AWS-RoboMaker_64</title>
    <desc>Created with Sketch.</desc>
    
    <g id="Icon-Architecture/64/Arch_AWS-RoboMaker_64" stroke="none" stroke-width="1" fill="none" fill-rule="evenodd">
        
        <path transform="translate(0vw, 0vh), scale(.65)" d="M15.5,41 C15.775,41 16,41.224 16,41.5 C16,41.776 15.775,42 15.5,42 C15.225,42 15,41.776 15,41.5 C15,41.224 15.225,41 15.5,41 L15.5,41 Z M15.5,44 C16.879,44 18,42.878 18,41.5 C18,40.122 16.879,39 15.5,39 C14.121,39 13,40.122 13,41.5 C13,42.878 14.121,44 15.5,44 L15.5,44 Z M16,29.5 C16,29.776 15.775,30 15.5,30 C15.225,30 15,29.776 15,29.5 C15,29.224 15.225,29 15.5,29 C15.775,29 16,29.224 16,29.5 L16,29.5 Z M14,29.5 C14,30.327 14.673,31 15.5,31 C16.327,31 17,30.327 17,29.5 C17,28.673 16.327,28 15.5,28 C14.673,28 14,28.673 14,29.5 L14,29.5 Z M23.5,22 C23.775,22 24,22.224 24,22.5 C24,22.776 23.775,23 23.5,23 C23.225,23 23,22.776 23,22.5 C23,22.224 23.225,22 23.5,22 L23.5,22 Z M23.5,24 C24.327,24 25,23.327 25,22.5 C25,21.673 24.327,21 23.5,21 C22.673,21 22,21.673 22,22.5 C22,23.327 22.673,24 23.5,24 L23.5,24 Z M20,35.5 C20,35.776 19.775,36 19.5,36 C19.225,36 19,35.776 19,35.5 C19,35.224 19.225,35 19.5,35 C19.775,35 20,35.224 20,35.5 L20,35.5 Z M18,35.5 C18,36.327 18.673,37 19.5,37 C20.327,37 21,36.327 21,35.5 C21,34.673 20.327,34 19.5,34 C18.673,34 18,34.673 18,35.5 L18,35.5 Z M23.5,28 C24.327,28 25,28.673 25,29.5 C25,30.327 24.327,31 23.5,31 C22.673,31 22,30.327 22,29.5 C22,28.673 22.673,28 23.5,28 L23.5,28 Z M23.5,33 C25.43,33 27,31.43 27,29.5 C27,27.57 25.43,26 23.5,26 C21.57,26 20,27.57 20,29.5 C20,31.43 21.57,33 23.5,33 L23.5,33 Z M16.5,19 C17.327,19 18,19.673 18,20.5 C18,21.327 17.327,22 16.5,22 C15.673,22 15,21.327 15,20.5 C15,19.673 15.673,19 16.5,19 L16.5,19 Z M16.5,24 C18.43,24 20,22.43 20,20.5 C20,18.57 18.43,17 16.5,17 C14.57,17 13,18.57 13,20.5 C13,22.43 14.57,24 16.5,24 L16.5,24 Z M28.707,18.707 L27.293,17.293 C30.459,14.127 35.581,12 40.039,12 C44.452,12 49.543,14.127 52.707,17.293 L51.293,18.707 C48.522,15.936 43.896,14 40.039,14 C36.139,14 31.479,15.936 28.707,18.707 L28.707,18.707 Z M40.039,17 C43.454,17 46.613,18.2 48.707,20.292 L47.293,21.708 C45.597,20.012 42.885,19 40.039,19 C37.142,19 34.401,20.012 32.707,21.707 L31.293,20.293 C33.354,18.231 36.623,17 40.039,17 L40.039,17 Z M66,61.384 L64.028,62.377 L64.028,53.009 L66,54.498 L66,61.384 Z M62.028,66 L60,66 L60,50 L62.028,50 L62.028,65.623 L62.028,66 Z M18,64.771 L18,50 L20,50 L20,66 L18,66 L18,64.771 Z M14,61.286 L14,53.686 L16,52.914 L16,61.971 L14,61.286 Z M40,32 C45.064,32 49.895,33.937 53.253,37.312 C56.338,40.415 58.024,44.563 58.0002527,49 L58.0002527,66 L22,66 L21.999,49.031 C22.304,39.322 30.042,32 40,32 L40,32 Z M38,27 C38,25.882 39.088,25.647 40,25.647 C40.912,25.647 42,25.882 42,27 L42,30.096 C41.338,30.035 40.671,30 40,30 C39.323,30 38.656,30.032 38,30.092 L38,27 Z M68,53.502 L64.028,50.502 L64.028,48 L59.957,48 C59.74,43.414 57.898,39.147 54.671,35.902 C51.844,33.06 48.087,31.142 44,30.376 L44,27 C44,24.963 42.43,23.647 40,23.647 C37.57,23.647 36,24.963 36,27 L36,30.369 C27.251,32.009 20.797,38.988 20.079,48 L16,48 L16,50.77 L12,52.314 L12,62.714 L16,64.085 L16,68 L64.028,68 L64.028,64.616 L68,62.616 L68,53.502 Z M33,46 C34.103,46 35,46.897 35,48 C35,49.103 34.103,50 33,50 C31.897,50 31,49.103 31,48 C31,46.897 31.897,46 33,46 L33,46 Z M33,52 C35.206,52 37,50.206 37,48 C37,45.794 35.206,44 33,44 C30.794,44 29,45.794 29,48 C29,50.206 30.794,52 33,52 L33,52 Z M47,46 C48.103,46 49,46.897 49,48 C49,49.103 48.103,50 47,50 C45.897,50 45,49.103 45,48 C45,46.897 45.897,46 47,46 L47,46 Z M47,52 C49.206,52 51,50.206 51,48 C51,45.794 49.206,44 47,44 C44.794,44 43,45.794 43,48 C43,50.206 44.794,52 47,52 L47,52 Z" id="AWS-RoboMaker_Icon_64_Squid" fill="#000000"></path>
    </g><g transform="translate(33vw, 80vh)" id="svgGroup" stroke-linecap="round" fill-rule="evenodd" font-size="9pt" stroke="#000" stroke-width="0.25mm" fill="#000" style="stroke:#000;stroke-width:0.25mm;fill:#000"><path d="M 20.861 0.352 L 21.951 0.352 L 24.042 5.572 L 26.134 0.352 L 27.229 0.352 L 27.229 6.75 L 26.385 6.75 L 26.385 4.258 L 26.464 1.569 L 24.363 6.75 L 23.717 6.75 L 21.621 1.582 L 21.705 4.258 L 21.705 6.75 L 20.861 6.75 L 20.861 0.352 Z M 36.47 6.75 L 34.813 4.548 L 34.304 5.08 L 34.304 6.75 L 33.491 6.75 L 33.491 0 L 34.304 0 L 34.304 4.083 L 34.739 3.56 L 36.22 1.995 L 37.208 1.995 L 35.358 3.981 L 37.424 6.75 L 36.47 6.75 Z M 3.74 6.75 L 2.351 4.162 L 0.848 4.162 L 0.848 6.75 L 0 6.75 L 0 0.352 L 2.118 0.352 A 3.809 3.809 0 0 1 2.76 0.402 Q 3.102 0.461 3.376 0.587 A 1.789 1.789 0 0 1 3.781 0.844 A 1.588 1.588 0 0 1 4.307 1.732 A 2.453 2.453 0 0 1 4.364 2.276 A 1.864 1.864 0 0 1 4.273 2.868 A 1.64 1.64 0 0 1 4.041 3.318 A 1.849 1.849 0 0 1 3.382 3.875 A 2.342 2.342 0 0 1 3.142 3.981 L 4.645 6.697 L 4.645 6.75 L 3.74 6.75 Z M 32.379 6.75 L 31.526 6.75 A 0.632 0.632 0 0 1 31.491 6.66 Q 31.46 6.562 31.435 6.41 A 3.997 3.997 0 0 1 31.412 6.249 Q 30.845 6.838 30.059 6.838 A 2.033 2.033 0 0 1 29.529 6.772 A 1.529 1.529 0 0 1 28.905 6.44 Q 28.455 6.042 28.455 5.432 Q 28.455 4.689 29.019 4.278 Q 29.584 3.867 30.608 3.867 L 31.399 3.867 L 31.399 3.494 A 1.152 1.152 0 0 0 31.363 3.199 A 0.828 0.828 0 0 0 31.144 2.815 Q 30.928 2.6 30.537 2.568 A 1.748 1.748 0 0 0 30.393 2.562 Q 29.958 2.562 29.663 2.782 Q 29.369 3.001 29.369 3.313 L 28.551 3.313 A 1.041 1.041 0 0 1 28.676 2.825 A 1.409 1.409 0 0 1 28.804 2.626 Q 29.057 2.294 29.49 2.101 A 2.249 2.249 0 0 1 30.265 1.913 A 2.669 2.669 0 0 1 30.441 1.907 A 2.65 2.65 0 0 1 30.958 1.955 Q 31.266 2.016 31.504 2.156 A 1.439 1.439 0 0 1 31.729 2.318 A 1.396 1.396 0 0 1 32.182 3.144 A 1.998 1.998 0 0 1 32.212 3.45 L 32.212 5.638 Q 32.212 6.073 32.286 6.39 A 1.707 1.707 0 0 0 32.379 6.68 L 32.379 6.75 Z M 14.577 4.355 L 14.577 4.425 Q 14.577 5.308 14.248 5.909 A 2.141 2.141 0 0 1 14.076 6.177 A 1.647 1.647 0 0 1 13.489 6.673 Q 13.174 6.828 12.783 6.837 A 2.112 2.112 0 0 1 12.731 6.838 A 2.039 2.039 0 0 1 12.136 6.756 A 1.561 1.561 0 0 1 11.338 6.201 L 11.298 6.75 L 10.551 6.75 L 10.551 0 L 11.364 0 L 11.364 2.518 A 1.605 1.605 0 0 1 12.531 1.915 A 2.285 2.285 0 0 1 12.722 1.907 A 1.835 1.835 0 0 1 13.353 2.011 A 1.579 1.579 0 0 1 14.082 2.562 Q 14.496 3.11 14.564 3.998 A 4.727 4.727 0 0 1 14.577 4.355 Z M 37.753 4.504 L 37.753 4.355 A 3.17 3.17 0 0 1 37.83 3.646 A 2.581 2.581 0 0 1 38.024 3.092 A 2.191 2.191 0 0 1 38.471 2.466 A 2.033 2.033 0 0 1 38.78 2.221 Q 39.265 1.907 39.832 1.907 A 2.254 2.254 0 0 1 40.445 1.986 A 1.639 1.639 0 0 1 41.273 2.518 Q 41.788 3.129 41.788 4.267 L 41.788 4.605 L 38.566 4.605 A 2.111 2.111 0 0 0 38.637 5.114 A 1.516 1.516 0 0 0 38.977 5.741 A 1.282 1.282 0 0 0 39.911 6.173 A 1.652 1.652 0 0 0 39.977 6.174 A 1.763 1.763 0 0 0 40.305 6.145 Q 40.529 6.103 40.707 5.999 A 1.827 1.827 0 0 0 41.215 5.551 A 2.068 2.068 0 0 0 41.229 5.533 L 41.726 5.919 A 1.926 1.926 0 0 1 40.326 6.811 A 2.749 2.749 0 0 1 39.933 6.838 A 2.394 2.394 0 0 1 39.182 6.725 A 1.974 1.974 0 0 1 38.36 6.203 Q 37.753 5.568 37.753 4.504 Z M 5.203 4.386 L 5.203 4.329 A 3.057 3.057 0 0 1 5.29 3.587 A 2.573 2.573 0 0 1 5.478 3.072 A 2.16 2.16 0 0 1 5.892 2.486 A 1.957 1.957 0 0 1 6.242 2.21 A 2.036 2.036 0 0 1 7.187 1.913 A 2.491 2.491 0 0 1 7.361 1.907 A 2.277 2.277 0 0 1 8.114 2.027 A 1.937 1.937 0 0 1 8.932 2.58 A 2.29 2.29 0 0 1 9.451 3.608 A 3.373 3.373 0 0 1 9.532 4.368 L 9.532 4.425 A 3.114 3.114 0 0 1 9.452 5.142 A 2.577 2.577 0 0 1 9.266 5.671 A 2.056 2.056 0 0 1 8.739 6.361 A 2.001 2.001 0 0 1 8.506 6.53 A 2.045 2.045 0 0 1 7.586 6.829 A 2.529 2.529 0 0 1 7.37 6.838 A 2.262 2.262 0 0 1 6.619 6.718 A 1.938 1.938 0 0 1 5.803 6.166 A 2.297 2.297 0 0 1 5.277 5.111 A 3.357 3.357 0 0 1 5.203 4.386 Z M 15.385 4.386 L 15.385 4.329 A 3.057 3.057 0 0 1 15.472 3.587 A 2.573 2.573 0 0 1 15.66 3.072 A 2.16 2.16 0 0 1 16.075 2.486 A 1.957 1.957 0 0 1 16.425 2.21 A 2.036 2.036 0 0 1 17.369 1.913 A 2.491 2.491 0 0 1 17.543 1.907 A 2.277 2.277 0 0 1 18.296 2.027 A 1.937 1.937 0 0 1 19.114 2.58 A 2.29 2.29 0 0 1 19.633 3.608 A 3.373 3.373 0 0 1 19.714 4.368 L 19.714 4.425 A 3.114 3.114 0 0 1 19.634 5.142 A 2.577 2.577 0 0 1 19.448 5.671 A 2.056 2.056 0 0 1 18.921 6.361 A 2.001 2.001 0 0 1 18.688 6.53 A 2.045 2.045 0 0 1 17.768 6.829 A 2.529 2.529 0 0 1 17.552 6.838 A 2.262 2.262 0 0 1 16.801 6.718 A 1.938 1.938 0 0 1 15.985 6.166 A 2.297 2.297 0 0 1 15.459 5.111 A 3.357 3.357 0 0 1 15.385 4.386 Z M 45.026 1.969 L 45.026 2.725 A 2.251 2.251 0 0 0 44.784 2.698 A 2.782 2.782 0 0 0 44.626 2.694 Q 43.849 2.694 43.557 3.338 A 1.445 1.445 0 0 0 43.541 3.375 L 43.541 6.75 L 42.728 6.75 L 42.728 1.995 L 43.519 1.995 L 43.532 2.544 Q 43.913 1.938 44.595 1.909 A 1.636 1.636 0 0 1 44.666 1.907 Q 44.903 1.907 45.026 1.969 Z M 6.021 4.425 A 2.772 2.772 0 0 0 6.068 4.954 Q 6.128 5.264 6.266 5.51 A 1.545 1.545 0 0 0 6.387 5.695 Q 6.754 6.174 7.37 6.174 A 1.269 1.269 0 0 0 7.859 6.083 Q 8.138 5.967 8.341 5.706 A 1.471 1.471 0 0 0 8.354 5.689 A 1.648 1.648 0 0 0 8.609 5.171 Q 8.678 4.945 8.703 4.672 A 3.655 3.655 0 0 0 8.719 4.329 A 2.687 2.687 0 0 0 8.668 3.789 Q 8.6 3.459 8.443 3.2 A 1.586 1.586 0 0 0 8.347 3.061 A 1.231 1.231 0 0 0 7.932 2.705 Q 7.679 2.575 7.361 2.575 Q 6.771 2.575 6.405 3.035 A 1.515 1.515 0 0 0 6.39 3.054 A 1.589 1.589 0 0 0 6.138 3.552 Q 6.068 3.772 6.04 4.039 A 3.676 3.676 0 0 0 6.021 4.425 Z M 16.203 4.425 A 2.772 2.772 0 0 0 16.25 4.954 Q 16.31 5.264 16.448 5.51 A 1.545 1.545 0 0 0 16.57 5.695 Q 16.937 6.174 17.552 6.174 A 1.269 1.269 0 0 0 18.041 6.083 Q 18.321 5.967 18.523 5.706 A 1.471 1.471 0 0 0 18.536 5.689 A 1.648 1.648 0 0 0 18.791 5.171 Q 18.86 4.945 18.885 4.672 A 3.655 3.655 0 0 0 18.901 4.329 A 2.687 2.687 0 0 0 18.85 3.789 Q 18.782 3.459 18.625 3.2 A 1.586 1.586 0 0 0 18.53 3.061 A 1.231 1.231 0 0 0 18.114 2.705 Q 17.861 2.575 17.543 2.575 Q 16.953 2.575 16.587 3.035 A 1.515 1.515 0 0 0 16.572 3.054 A 1.589 1.589 0 0 0 16.32 3.552 Q 16.25 3.772 16.222 4.039 A 3.676 3.676 0 0 0 16.203 4.425 Z M 11.364 3.344 L 11.364 5.401 A 1.528 1.528 0 0 0 11.65 5.807 Q 11.973 6.127 12.463 6.147 A 1.621 1.621 0 0 0 12.529 6.148 A 1.206 1.206 0 0 0 12.946 6.079 A 1.04 1.04 0 0 0 13.438 5.695 Q 13.764 5.243 13.764 4.333 Q 13.764 3.502 13.443 3.05 A 1.03 1.03 0 0 0 12.693 2.607 A 1.449 1.449 0 0 0 12.52 2.597 A 1.34 1.34 0 0 0 12.011 2.69 Q 11.592 2.86 11.364 3.344 Z M 0.848 1.046 L 0.848 3.472 L 2.145 3.472 Q 2.685 3.472 3.035 3.231 A 1.174 1.174 0 0 0 3.144 3.146 A 1.069 1.069 0 0 0 3.51 2.409 A 1.486 1.486 0 0 0 3.516 2.276 Q 3.516 1.734 3.22 1.423 A 1 1 0 0 0 3.162 1.367 Q 2.808 1.05 2.14 1.046 L 0.848 1.046 Z M 31.399 5.418 L 31.399 4.443 L 30.762 4.443 Q 29.268 4.443 29.268 5.317 Q 29.268 5.7 29.522 5.915 A 0.893 0.893 0 0 0 29.936 6.108 A 1.259 1.259 0 0 0 30.177 6.13 A 1.429 1.429 0 0 0 30.902 5.933 A 1.335 1.335 0 0 0 31.198 5.705 A 1.108 1.108 0 0 0 31.399 5.418 Z M 38.593 3.938 L 40.975 3.938 L 40.975 3.876 Q 40.949 3.417 40.778 3.111 A 1.13 1.13 0 0 0 40.641 2.916 A 0.983 0.983 0 0 0 39.986 2.584 A 1.39 1.39 0 0 0 39.832 2.575 A 1.106 1.106 0 0 0 39.31 2.698 A 1.14 1.14 0 0 0 39.006 2.933 A 1.417 1.417 0 0 0 38.729 3.379 Q 38.656 3.563 38.616 3.785 A 2.741 2.741 0 0 0 38.593 3.938 Z" vector-effect="non-scaling-stroke"/></g>
</svg>