<?xml version="1.0" encoding="UTF-8"?>
<svg width="80px" height="80px" viewBox="0 0 80 80" version="1.1" xmlns="http://www.w3.org/2000/svg" xmlns:xlink="http://www.w3.org/1999/xlink">
    <title>Icon-Architecture/64/Arch_Amazon-ECS-Anywhere_64</title>
    
    <g id="Icon-Architecture/64/Arch_Amazon-ECS-Anywhere_64" stroke="none" stroke-width="1" fill="none" fill-rule="evenodd">
        
        <g id="Icon-Service/64/Amazon-ECS-Anywhere_64" transform="translate(16, 8), scale(.65)" fill="#000000">
            <path d="M54.954,42.3486787 L47.815,38.1805301 C48.557,36.2627998 48.98,34.1872689 48.98,32.0092177 C48.98,23.9523383 43.397,17.197063 35.92,15.4019549 L35.92,6.7912655 L54.954,18.3991623 L54.954,42.3486787 Z M31.973,57.9850152 L9,44.6533724 L9,18.3388563 L28.034,6.78624 L28.034,15.4019549 C20.557,17.1960579 14.974,23.9523383 14.974,32.0092177 C14.974,41.4330328 22.601,49.0999336 31.976,49.0999336 C36.548,49.0999336 40.696,47.2676368 43.755,44.307618 L49.564,47.7601356 L31.973,57.9850152 Z M40.958,30.9910517 C40.758,26.13642 39.805,21.4787879 38.373,18.3891113 C43.161,20.6706877 46.556,25.4147584 46.929,30.9910517 L40.958,30.9910517 Z M40.997,33.0012512 L46.93,33.0012512 C46.574,38.4669835 43.318,43.137682 38.687,45.4775541 C40.288,42.0582048 40.985,37.5322408 40.997,33.0012512 L40.997,33.0012512 Z M32.976,33.0012512 L38.982,33.0012512 C39.001,38.1956066 38.088,43.3969977 35.72,46.595225 C34.834,46.8253929 33.918,46.9761578 32.976,47.038474 L32.976,33.0012512 Z M28.277,46.6062811 C26.199,43.9668892 25.163,38.5835751 25.131,33.0012512 L30.976,33.0012512 L30.976,47.038474 C30.05,46.9771629 29.15,46.8304184 28.277,46.6062811 L28.277,46.6062811 Z M23.105,33.0012512 C23.137,37.7031077 23.873,42.2853574 25.328,45.5077071 C20.666,43.1778859 17.381,38.4911059 17.024,33.0012512 L23.105,33.0012512 Z M23.133,30.9910517 L17.025,30.9910517 C17.402,25.3584728 20.861,20.5721879 25.726,18.3187543 C24.172,21.6436242 23.3,26.2811544 23.133,30.9910517 L23.133,30.9910517 Z M30.976,30.9910517 L25.163,30.9910517 C25.366,25.5323551 26.525,20.19025 28.597,17.3297362 C29.37,17.1498233 30.164,17.035242 30.976,16.9809666 L30.976,30.9910517 Z M32.976,16.9809666 C33.81,17.0362471 34.625,17.1578641 35.416,17.3448127 C37.192,19.4253691 38.635,25.017744 38.926,30.9910517 L32.976,30.9910517 L32.976,16.9809666 Z M56.473,16.9739309 L35.438,4.14584301 C35.129,3.95688426 34.743,3.95185876 34.43,4.12976141 C34.114,4.30766406 33.92,4.64236228 33.92,5.00520328 L33.92,15.040119 C33.281,14.9667467 32.634,14.919507 31.976,14.919507 C31.319,14.919507 30.673,14.9657416 30.034,15.040119 L30.034,5.00520328 C30.034,4.64236228 29.84,4.30866916 29.525,4.12976141 C29.212,3.95185876 28.825,3.95688426 28.517,4.14483791 L7.483,16.9116147 C7.183,17.0935377 7,17.4201952 7,17.7719801 L7,45.2333149 C7,45.5931406 7.19,45.9248235 7.5,46.1037313 L31.473,60.0163217 C31.627,60.1057756 31.8,60.15 31.973,60.15 C32.145,60.15 32.318,60.1057756 32.474,60.0153166 L52.047,48.6395979 C52.354,48.4616952 52.544,48.1320225 52.546,47.774207 C52.548,47.4173966 52.36,47.0857137 52.055,46.9047957 L45.148,42.7999684 C45.847,41.9396031 46.463,41.0088807 46.987,40.0208677 L55.452,44.9639482 C55.607,45.0544071 55.78,45.0996366 55.954,45.0996366 C56.126,45.0996366 56.299,45.0554122 56.453,44.9659584 C56.763,44.7870506 56.954,44.4543626 56.954,44.0945369 L56.954,17.8332911 C56.954,17.4825113 56.771,17.156859 56.473,16.9739309 L56.473,16.9739309 Z" id="Fill-1"></path>
        </g>
    </g><g transform="translate(12vw, 80vh)" id="svgGroup" stroke-linecap="round" fill-rule="evenodd" font-size="9pt" stroke="#000" stroke-width="0.25mm" fill="#000" style="stroke:#000;stroke-width:0.25mm;fill:#000"><path d="M 36.589 1.995 L 37.718 5.629 L 38.632 1.995 L 39.445 1.995 L 38.061 6.75 L 37.402 6.75 L 36.246 3.146 L 35.121 6.75 L 34.462 6.75 L 33.082 1.995 L 33.891 1.995 L 34.827 5.555 L 35.934 1.995 L 36.589 1.995 Z M 15.218 2.202 L 14.37 2.202 A 1.466 1.466 0 0 0 14.32 1.809 A 1.066 1.066 0 0 0 14.001 1.29 A 1.211 1.211 0 0 0 13.531 1.033 Q 13.28 0.958 12.959 0.958 A 2.286 2.286 0 0 0 12.58 0.988 Q 12.378 1.022 12.215 1.095 A 1.101 1.101 0 0 0 11.986 1.233 A 0.892 0.892 0 0 0 11.641 1.887 A 1.267 1.267 0 0 0 11.637 1.995 A 0.806 0.806 0 0 0 11.905 2.6 A 1.134 1.134 0 0 0 11.969 2.656 A 1.562 1.562 0 0 0 12.207 2.813 Q 12.537 2.993 13.098 3.151 A 8.228 8.228 0 0 1 13.563 3.295 Q 13.798 3.377 13.992 3.464 A 3.297 3.297 0 0 1 14.346 3.645 A 2.342 2.342 0 0 1 14.685 3.889 Q 14.875 4.056 14.997 4.248 A 1.45 1.45 0 0 1 15.014 4.276 A 1.498 1.498 0 0 1 15.21 4.832 A 1.948 1.948 0 0 1 15.231 5.124 A 1.606 1.606 0 0 1 15.109 5.76 Q 14.964 6.101 14.646 6.354 A 1.886 1.886 0 0 1 14.625 6.37 Q 14.019 6.838 13.003 6.838 A 3.023 3.023 0 0 1 11.863 6.623 A 2.917 2.917 0 0 1 11.773 6.585 A 2.383 2.383 0 0 1 11.295 6.307 A 1.874 1.874 0 0 1 10.892 5.893 A 1.689 1.689 0 0 1 10.582 4.896 L 11.43 4.896 A 1.261 1.261 0 0 0 11.5 5.323 A 1.074 1.074 0 0 0 11.859 5.812 Q 12.243 6.113 12.86 6.144 A 2.87 2.87 0 0 0 13.003 6.148 A 2.628 2.628 0 0 0 13.39 6.121 Q 13.587 6.092 13.746 6.031 A 1.129 1.129 0 0 0 14.027 5.875 Q 14.383 5.603 14.383 5.133 A 1.074 1.074 0 0 0 14.341 4.822 A 0.816 0.816 0 0 0 14.054 4.406 Q 13.724 4.148 12.858 3.898 Q 11.773 3.586 11.279 3.131 Q 10.784 2.676 10.784 2.008 Q 10.784 1.252 11.388 0.758 A 2.121 2.121 0 0 1 12.279 0.335 A 3.087 3.087 0 0 1 12.959 0.264 A 2.913 2.913 0 0 1 13.62 0.336 A 2.372 2.372 0 0 1 14.135 0.519 A 2.051 2.051 0 0 1 14.666 0.889 A 1.834 1.834 0 0 1 14.935 1.222 A 1.798 1.798 0 0 1 15.218 2.202 Z M 3.617 3.103 L 3.617 3.792 L 0.844 3.792 L 0.844 6.06 L 4.065 6.06 L 4.065 6.75 L 0 6.75 L 0 0.352 L 4.021 0.352 L 4.021 1.046 L 0.844 1.046 L 0.844 3.103 L 3.617 3.103 Z M 8.974 4.72 L 9.822 4.72 A 3.016 3.016 0 0 1 9.661 5.416 A 2.099 2.099 0 0 1 9.073 6.286 Q 8.442 6.838 7.396 6.838 A 2.553 2.553 0 0 1 6.527 6.696 A 2.194 2.194 0 0 1 5.579 6.025 A 2.789 2.789 0 0 1 5.017 4.901 Q 4.911 4.484 4.897 3.992 A 5.262 5.262 0 0 1 4.896 3.85 L 4.896 3.234 A 4.251 4.251 0 0 1 4.966 2.445 A 3.229 3.229 0 0 1 5.214 1.666 A 2.539 2.539 0 0 1 5.67 0.99 A 2.26 2.26 0 0 1 6.117 0.626 A 2.415 2.415 0 0 1 7.143 0.281 A 3.027 3.027 0 0 1 7.471 0.264 A 2.962 2.962 0 0 1 8.177 0.343 A 2.065 2.065 0 0 1 9.105 0.833 A 2.16 2.16 0 0 1 9.7 1.795 A 3.086 3.086 0 0 1 9.822 2.408 L 8.974 2.408 Q 8.905 1.929 8.735 1.616 A 1.223 1.223 0 0 0 8.497 1.301 A 1.207 1.207 0 0 0 7.992 1.024 Q 7.804 0.971 7.581 0.961 A 2.396 2.396 0 0 0 7.471 0.958 A 1.753 1.753 0 0 0 6.892 1.049 A 1.463 1.463 0 0 0 6.203 1.556 A 1.989 1.989 0 0 0 5.889 2.175 Q 5.744 2.636 5.744 3.256 L 5.744 3.876 Q 5.744 4.917 6.179 5.533 A 1.38 1.38 0 0 0 7.177 6.135 A 1.814 1.814 0 0 0 7.396 6.148 A 2.497 2.497 0 0 0 7.803 6.117 Q 8.023 6.08 8.199 6.002 A 1.155 1.155 0 0 0 8.475 5.829 Q 8.851 5.511 8.974 4.72 Z M 41.084 0 L 41.084 2.571 A 1.767 1.767 0 0 1 41.751 2.053 A 1.832 1.832 0 0 1 42.491 1.907 A 1.905 1.905 0 0 1 43.124 2.004 Q 43.966 2.3 44.009 3.506 A 3.668 3.668 0 0 1 44.011 3.608 L 44.011 6.75 L 43.198 6.75 L 43.198 3.604 A 1.837 1.837 0 0 0 43.176 3.324 Q 43.126 3.017 42.963 2.843 Q 42.777 2.645 42.424 2.606 A 1.66 1.66 0 0 0 42.245 2.597 A 1.253 1.253 0 0 0 41.83 2.664 A 1.123 1.123 0 0 0 41.55 2.808 A 1.432 1.432 0 0 0 41.084 3.362 L 41.084 6.75 L 40.271 6.75 L 40.271 0 L 41.084 0 Z M 29.619 1.995 L 30.806 5.559 L 31.913 1.995 L 32.783 1.995 L 30.872 7.484 Q 30.428 8.67 29.461 8.67 L 29.307 8.657 L 29.004 8.6 L 29.004 7.941 L 29.224 7.958 Q 29.504 7.958 29.7 7.882 A 0.75 0.75 0 0 0 29.867 7.792 A 0.749 0.749 0 0 0 30.027 7.629 Q 30.146 7.47 30.236 7.215 A 2.575 2.575 0 0 0 30.248 7.181 L 30.428 6.697 L 28.731 1.995 L 29.619 1.995 Z M 24.284 1.995 L 25.053 1.995 L 25.08 2.593 Q 25.616 1.918 26.476 1.907 A 2.234 2.234 0 0 1 26.503 1.907 A 1.905 1.905 0 0 1 27.137 2.004 Q 27.979 2.3 28.022 3.506 A 3.668 3.668 0 0 1 28.024 3.608 L 28.024 6.75 L 27.211 6.75 L 27.211 3.604 A 1.837 1.837 0 0 0 27.189 3.324 Q 27.139 3.017 26.976 2.843 Q 26.79 2.645 26.436 2.606 A 1.66 1.66 0 0 0 26.257 2.597 A 1.253 1.253 0 0 0 25.843 2.664 A 1.123 1.123 0 0 0 25.563 2.808 A 1.432 1.432 0 0 0 25.097 3.362 L 25.097 6.75 L 24.284 6.75 L 24.284 1.995 Z M 22.685 6.75 L 22.074 5.08 L 19.393 5.08 L 18.791 6.75 L 17.921 6.75 L 20.364 0.352 L 21.103 0.352 L 23.55 6.75 L 22.685 6.75 Z M 45.022 4.504 L 45.022 4.355 A 3.17 3.17 0 0 1 45.098 3.646 A 2.581 2.581 0 0 1 45.292 3.092 A 2.191 2.191 0 0 1 45.74 2.466 A 2.033 2.033 0 0 1 46.048 2.221 Q 46.534 1.907 47.101 1.907 A 2.254 2.254 0 0 1 47.714 1.986 A 1.639 1.639 0 0 1 48.542 2.518 Q 49.056 3.129 49.056 4.267 L 49.056 4.605 L 45.835 4.605 A 2.111 2.111 0 0 0 45.906 5.114 A 1.516 1.516 0 0 0 46.246 5.741 A 1.282 1.282 0 0 0 47.18 6.173 A 1.652 1.652 0 0 0 47.246 6.174 A 1.763 1.763 0 0 0 47.574 6.145 Q 47.798 6.103 47.975 5.999 A 1.827 1.827 0 0 0 48.484 5.551 A 2.068 2.068 0 0 0 48.498 5.533 L 48.995 5.919 A 1.926 1.926 0 0 1 47.595 6.811 A 2.749 2.749 0 0 1 47.202 6.838 A 2.394 2.394 0 0 1 46.45 6.725 A 1.974 1.974 0 0 1 45.628 6.203 Q 45.022 5.568 45.022 4.504 Z M 52.752 4.504 L 52.752 4.355 A 3.17 3.17 0 0 1 52.828 3.646 A 2.581 2.581 0 0 1 53.022 3.092 A 2.191 2.191 0 0 1 53.47 2.466 A 2.033 2.033 0 0 1 53.778 2.221 Q 54.264 1.907 54.831 1.907 A 2.254 2.254 0 0 1 55.444 1.986 A 1.639 1.639 0 0 1 56.272 2.518 Q 56.786 3.129 56.786 4.267 L 56.786 4.605 L 53.565 4.605 A 2.111 2.111 0 0 0 53.636 5.114 A 1.516 1.516 0 0 0 53.976 5.741 A 1.282 1.282 0 0 0 54.91 6.173 A 1.652 1.652 0 0 0 54.976 6.174 A 1.763 1.763 0 0 0 55.304 6.145 Q 55.528 6.103 55.705 5.999 A 1.827 1.827 0 0 0 56.214 5.551 A 2.068 2.068 0 0 0 56.228 5.533 L 56.725 5.919 A 1.926 1.926 0 0 1 55.325 6.811 A 2.749 2.749 0 0 1 54.932 6.838 A 2.394 2.394 0 0 1 54.18 6.725 A 1.974 1.974 0 0 1 53.358 6.203 Q 52.752 5.568 52.752 4.504 Z M 52.295 1.969 L 52.295 2.725 A 2.251 2.251 0 0 0 52.052 2.698 A 2.782 2.782 0 0 0 51.895 2.694 Q 51.117 2.694 50.826 3.338 A 1.445 1.445 0 0 0 50.81 3.375 L 50.81 6.75 L 49.997 6.75 L 49.997 1.995 L 50.788 1.995 L 50.801 2.544 Q 51.181 1.938 51.864 1.909 A 1.636 1.636 0 0 1 51.935 1.907 Q 52.172 1.907 52.295 1.969 Z M 20.733 1.393 L 19.648 4.386 L 21.823 4.386 L 20.733 1.393 Z M 45.861 3.938 L 48.243 3.938 L 48.243 3.876 Q 48.217 3.417 48.046 3.111 A 1.13 1.13 0 0 0 47.909 2.916 A 0.983 0.983 0 0 0 47.255 2.584 A 1.39 1.39 0 0 0 47.101 2.575 A 1.106 1.106 0 0 0 46.578 2.698 A 1.14 1.14 0 0 0 46.274 2.933 A 1.417 1.417 0 0 0 45.998 3.379 Q 45.924 3.563 45.884 3.785 A 2.741 2.741 0 0 0 45.861 3.938 Z M 53.591 3.938 L 55.973 3.938 L 55.973 3.876 Q 55.947 3.417 55.776 3.111 A 1.13 1.13 0 0 0 55.639 2.916 A 0.983 0.983 0 0 0 54.985 2.584 A 1.39 1.39 0 0 0 54.831 2.575 A 1.106 1.106 0 0 0 54.308 2.698 A 1.14 1.14 0 0 0 54.004 2.933 A 1.417 1.417 0 0 0 53.728 3.379 Q 53.654 3.563 53.614 3.785 A 2.741 2.741 0 0 0 53.591 3.938 Z" vector-effect="non-scaling-stroke"/></g>
</svg>