<?xml version="1.0" encoding="UTF-8"?>
<svg width="80px" height="80px" viewBox="0 0 80 80" version="1.1" xmlns="http://www.w3.org/2000/svg" xmlns:xlink="http://www.w3.org/1999/xlink">
    <!-- Generator: Sketch 64 (93537) - https://sketch.com -->
    <title>Icon-Architecture/64/Arch_AWS-Simple-Notification-Service_64</title>
    <desc>Created with Sketch.</desc>
    
    <g id="Icon-Architecture/64/Arch_AWS-Simple-Notification-Service_64" stroke="none" stroke-width="1" fill="none" fill-rule="evenodd">
        
        <path transform="translate(0vw, 0vh), scale(.65)" d="M17,38 C18.103,38 19,38.897 19,40 C19,41.103 18.103,42 17,42 C15.897,42 15,41.103 15,40 C15,38.897 15.897,38 17,38 L17,38 Z M41,64 C29.314,64 19.289,55.466 17.194,43.98 C18.965,43.894 20.427,42.659 20.857,41 L27,41 L27,39 L20.857,39 C20.427,37.342 18.966,36.107 17.195,36.02 C19.285,24.71 29.511,16 41,16 C45.313,16 49.832,17.622 54.429,20.821 L55.571,19.179 C50.633,15.743 45.73,14 41,14 C28.27,14 16.949,23.865 15.063,36.521 C13.839,37.207 13,38.5 13,40 C13,41.5 13.839,42.793 15.063,43.478 C16.97,56.341 28.056,66 41,66 C46.407,66 51.942,64.157 56.585,60.811 L55.415,59.189 C51.11,62.292 45.991,64 41,64 L41,64 Z M30.101,36.442 C31.955,36.895 34.275,37 36,37 C37.642,37 39.823,36.905 41.629,36.506 L37.105,45.553 C37.036,45.691 37,45.845 37,46 L37,50.453 C36.199,50.964 34.833,51.812 34,51.986 L34,46 C34,45.868 33.974,45.737 33.923,45.615 L30.101,36.442 Z M36,33 C40.025,33 42.174,33.604 42.841,34 C42.174,34.396 40.025,35 36,35 C31.975,35 29.826,34.396 29.159,34 C29.826,33.604 31.975,33 36,33 L36,33 Z M33,54 L34,54 C34.043,54 34.086,53.997 34.128,53.992 C35.352,53.833 36.909,52.887 38.272,52.013 L38.535,51.845 C38.824,51.661 39,51.342 39,51 L39,46.236 L44.559,35.12 C44.833,34.801 45,34.434 45,34 C45,31.39 39.361,31 36,31 C32.639,31 27,31.39 27,34 C27,34.366 27.12,34.684 27.32,34.967 L32,46.2 L32,53 C32,53.552 32.447,54 33,54 L33,54 Z M62,53 C63.103,53 64,53.897 64,55 C64,56.103 63.103,57 62,57 C60.897,57 60,56.103 60,55 C60,53.897 60.897,53 62,53 L62,53 Z M62,23 C63.103,23 64,23.897 64,25 C64,26.103 63.103,27 62,27 C60.897,27 60,26.103 60,25 C60,23.897 60.897,23 62,23 L62,23 Z M64,38 C65.103,38 66,38.897 66,40 C66,41.103 65.103,42 64,42 C62.897,42 62,41.103 62,40 C62,38.897 62.897,38 64,38 L64,38 Z M54,41 L60.143,41 C60.589,42.72 62.142,44 64,44 C66.206,44 68,42.206 68,40 C68,37.794 66.206,36 64,36 C62.142,36 60.589,37.28 60.143,39 L54,39 L54,26 L58.143,26 C58.589,27.72 60.142,29 62,29 C64.206,29 66,27.206 66,25 C66,22.794 64.206,21 62,21 C60.142,21 58.589,22.28 58.143,24 L53,24 C52.447,24 52,24.448 52,25 L52,39 L45,39 L45,41 L52,41 L52,55 C52,55.552 52.447,56 53,56 L58.143,56 C58.589,57.72 60.142,59 62,59 C64.206,59 66,57.206 66,55 C66,52.794 64.206,51 62,51 C60.142,51 58.589,52.28 58.143,54 L54,54 L54,41 Z" id="AWS-Simple-Notification-Service_Icon_64_Squid" fill="#000000"></path>
    </g><g transform="translate(34.53146165402414vw, 64vh)" id="svgGroup" stroke-linecap="round" fill-rule="evenodd" font-size="9pt" stroke="#000" stroke-width="0.15mm" fill="#000" style="stroke:#000;stroke-width:0.15mm;fill:#000"><path d="M 7.099 0.059 L 7.099 4.324 L 6.533 4.324 L 4.386 1.037 L 4.386 4.324 L 3.82 4.324 L 3.82 0.059 L 4.386 0.059 L 6.539 3.36 L 6.539 0.059 L 7.099 0.059 Z M 3.091 1.292 L 2.525 1.292 A 0.977 0.977 0 0 0 2.492 1.03 A 0.711 0.711 0 0 0 2.279 0.684 Q 2.064 0.491 1.695 0.466 A 1.668 1.668 0 0 0 1.585 0.463 A 1.524 1.524 0 0 0 1.332 0.483 Q 1.197 0.505 1.089 0.554 A 0.734 0.734 0 0 0 0.936 0.646 A 0.595 0.595 0 0 0 0.706 1.082 A 0.845 0.845 0 0 0 0.703 1.154 Q 0.703 1.415 0.924 1.595 A 1.041 1.041 0 0 0 1.083 1.7 Q 1.303 1.82 1.677 1.925 A 5.485 5.485 0 0 1 1.987 2.021 Q 2.144 2.075 2.274 2.133 A 2.198 2.198 0 0 1 2.509 2.254 A 1.561 1.561 0 0 1 2.735 2.417 Q 2.862 2.528 2.943 2.657 A 0.965 0.965 0 0 1 2.955 2.675 A 0.999 0.999 0 0 1 3.086 3.045 A 1.299 1.299 0 0 1 3.1 3.24 A 1.071 1.071 0 0 1 3.018 3.664 Q 2.921 3.892 2.709 4.06 A 1.257 1.257 0 0 1 2.695 4.071 Q 2.333 4.351 1.751 4.38 A 2.759 2.759 0 0 1 1.614 4.383 Q 1.175 4.383 0.794 4.214 A 1.589 1.589 0 0 1 0.475 4.029 A 1.249 1.249 0 0 1 0.207 3.753 Q 0 3.46 0 3.088 L 0.566 3.088 A 0.841 0.841 0 0 0 0.612 3.373 A 0.716 0.716 0 0 0 0.851 3.699 Q 1.108 3.9 1.518 3.921 A 1.914 1.914 0 0 0 1.614 3.923 Q 1.907 3.923 2.109 3.845 A 0.752 0.752 0 0 0 2.297 3.741 A 0.579 0.579 0 0 0 2.531 3.322 A 0.768 0.768 0 0 0 2.534 3.246 A 0.716 0.716 0 0 0 2.506 3.039 A 0.544 0.544 0 0 0 2.315 2.761 A 1.04 1.04 0 0 0 2.165 2.667 Q 1.998 2.577 1.733 2.489 A 5.851 5.851 0 0 0 1.518 2.423 A 4.568 4.568 0 0 1 1.123 2.291 Q 0.696 2.125 0.464 1.912 A 1 1 0 0 1 0.196 1.52 A 1.023 1.023 0 0 1 0.135 1.163 A 1.02 1.02 0 0 1 0.466 0.393 A 1.318 1.318 0 0 1 0.538 0.33 Q 0.941 0 1.585 0 A 1.942 1.942 0 0 1 2.025 0.048 A 1.581 1.581 0 0 1 2.369 0.17 A 1.367 1.367 0 0 1 2.723 0.417 A 1.223 1.223 0 0 1 2.902 0.639 A 1.199 1.199 0 0 1 3.091 1.292 Z M 10.928 1.292 L 10.362 1.292 A 0.977 0.977 0 0 0 10.329 1.03 A 0.711 0.711 0 0 0 10.116 0.684 Q 9.901 0.491 9.532 0.466 A 1.668 1.668 0 0 0 9.422 0.463 A 1.524 1.524 0 0 0 9.169 0.483 Q 9.034 0.505 8.926 0.554 A 0.734 0.734 0 0 0 8.773 0.646 A 0.595 0.595 0 0 0 8.543 1.082 A 0.845 0.845 0 0 0 8.54 1.154 Q 8.54 1.415 8.761 1.595 A 1.041 1.041 0 0 0 8.92 1.7 Q 9.14 1.82 9.514 1.925 A 5.485 5.485 0 0 1 9.824 2.021 Q 9.981 2.075 10.11 2.133 A 2.198 2.198 0 0 1 10.346 2.254 A 1.561 1.561 0 0 1 10.572 2.417 Q 10.699 2.528 10.78 2.657 A 0.965 0.965 0 0 1 10.792 2.675 A 0.999 0.999 0 0 1 10.922 3.045 A 1.299 1.299 0 0 1 10.937 3.24 A 1.071 1.071 0 0 1 10.855 3.664 Q 10.758 3.892 10.546 4.06 A 1.257 1.257 0 0 1 10.532 4.071 Q 10.17 4.351 9.588 4.38 A 2.759 2.759 0 0 1 9.451 4.383 Q 9.012 4.383 8.631 4.214 A 1.589 1.589 0 0 1 8.312 4.029 A 1.249 1.249 0 0 1 8.044 3.753 Q 7.837 3.46 7.837 3.088 L 8.402 3.088 A 0.841 0.841 0 0 0 8.449 3.373 A 0.716 0.716 0 0 0 8.688 3.699 Q 8.944 3.9 9.355 3.921 A 1.914 1.914 0 0 0 9.451 3.923 Q 9.744 3.923 9.946 3.845 A 0.752 0.752 0 0 0 10.134 3.741 A 0.579 0.579 0 0 0 10.367 3.322 A 0.768 0.768 0 0 0 10.371 3.246 A 0.716 0.716 0 0 0 10.343 3.039 A 0.544 0.544 0 0 0 10.151 2.761 A 1.04 1.04 0 0 0 10.002 2.667 Q 9.835 2.577 9.57 2.489 A 5.851 5.851 0 0 0 9.355 2.423 A 4.568 4.568 0 0 1 8.96 2.291 Q 8.533 2.125 8.301 1.912 A 1 1 0 0 1 8.033 1.52 A 1.023 1.023 0 0 1 7.972 1.163 A 1.02 1.02 0 0 1 8.303 0.393 A 1.318 1.318 0 0 1 8.375 0.33 Q 8.777 0 9.422 0 A 1.942 1.942 0 0 1 9.862 0.048 A 1.581 1.581 0 0 1 10.206 0.17 A 1.367 1.367 0 0 1 10.56 0.417 A 1.223 1.223 0 0 1 10.739 0.639 A 1.199 1.199 0 0 1 10.928 1.292 Z" vector-effect="non-scaling-stroke"/></g>
</svg>