<?xml version="1.0" encoding="UTF-8"?>
<svg width="80px" height="80px" viewBox="0 0 80 80" version="1.1" xmlns="http://www.w3.org/2000/svg" xmlns:xlink="http://www.w3.org/1999/xlink">
    <!-- Generator: Sketch 64 (93537) - https://sketch.com -->
    <title>Icon-Architecture/64/Arch_AWS-Step-Functions_64</title>
    <desc>Created with Sketch.</desc>
    
    <g id="Icon-Architecture/64/Arch_AWS-Step-Functions_64" stroke="none" stroke-width="1" fill="none" fill-rule="evenodd">
        
        <path transform="translate(0vw, 0vh), scale(.65)" d="M45,44 L66,44 L66,37 L45,37 L45,44 Z M67,35 L44,35 C43.447,35 43,35.448 43,36 L43,45 C43,45.552 43.447,46 44,46 L67,46 C67.553,46 68,45.552 68,45 L68,36 C68,35.448 67.553,35 67,35 L67,35 Z M43.5,62.5 C43.5,64.43 41.93,66 40,66 C38.07,66 36.5,64.43 36.5,62.5 C36.5,60.57 38.07,59 40,59 C41.93,59 43.5,60.57 43.5,62.5 L43.5,62.5 Z M14,47 L32,47 L32,43 L14,43 L14,47 Z M14,37 L32,37 L32,33 L14,33 L14,37 Z M36.5,17.5 C36.5,15.57 38.07,14 40,14 C41.93,14 43.5,15.57 43.5,17.5 C43.5,19.43 41.93,21 40,21 C38.07,21 36.5,19.43 36.5,17.5 L36.5,17.5 Z M56,53 L24,53 L24,49 L33,49 C33.553,49 34,48.552 34,48 L34,42 C34,41.448 33.553,41 33,41 L24,41 L24,39 L33,39 C33.553,39 34,38.552 34,38 L34,32 C34,31.448 33.553,31 33,31 L24,31 L24,28 L56,28 L56,32 L58,32 L58,27 C58,26.448 57.553,26 57,26 L41,26 L41,22.904 C43.556,22.432 45.5,20.191 45.5,17.5 C45.5,14.467 43.032,12 40,12 C36.968,12 34.5,14.467 34.5,17.5 C34.5,20.191 36.444,22.432 39,22.904 L39,26 L23,26 C22.447,26 22,26.448 22,27 L22,31 L13,31 C12.447,31 12,31.448 12,32 L12,38 C12,38.552 12.447,39 13,39 L22,39 L22,41 L13,41 C12.447,41 12,41.448 12,42 L12,48 C12,48.552 12.447,49 13,49 L22,49 L22,54 C22,54.552 22.447,55 23,55 L39,55 L39,57.096 C36.444,57.568 34.5,59.809 34.5,62.5 C34.5,65.533 36.968,68 40,68 C43.032,68 45.5,65.533 45.5,62.5 C45.5,59.809 43.556,57.568 41,57.096 L41,55 L57,55 C57.553,55 58,54.552 58,54 L58,49.027 L56,49.027 L56,53 Z" id="AWS_Step_Functions_Icon_64_Squid" fill="#000000"></path>
    </g><g transform="translate(20.363463954223477vw, 64vh)" id="svgGroup" stroke-linecap="round" fill-rule="evenodd" font-size="9pt" stroke="#000" stroke-width="0.15mm" fill="#000" style="stroke:#000;stroke-width:0.15mm;fill:#000"><path d="M 3.091 1.292 L 2.525 1.292 A 0.977 0.977 0 0 0 2.492 1.03 A 0.711 0.711 0 0 0 2.279 0.684 Q 2.064 0.491 1.695 0.466 A 1.668 1.668 0 0 0 1.585 0.463 A 1.524 1.524 0 0 0 1.332 0.483 Q 1.197 0.505 1.089 0.554 A 0.734 0.734 0 0 0 0.936 0.646 A 0.595 0.595 0 0 0 0.706 1.082 A 0.845 0.845 0 0 0 0.703 1.154 Q 0.703 1.415 0.924 1.595 A 1.041 1.041 0 0 0 1.083 1.7 Q 1.303 1.82 1.677 1.925 A 5.485 5.485 0 0 1 1.987 2.021 Q 2.144 2.075 2.274 2.133 A 2.198 2.198 0 0 1 2.509 2.254 A 1.561 1.561 0 0 1 2.735 2.417 Q 2.862 2.528 2.943 2.657 A 0.965 0.965 0 0 1 2.955 2.675 A 0.999 0.999 0 0 1 3.086 3.045 A 1.299 1.299 0 0 1 3.1 3.24 A 1.071 1.071 0 0 1 3.018 3.664 Q 2.921 3.892 2.709 4.06 A 1.257 1.257 0 0 1 2.695 4.071 Q 2.333 4.351 1.751 4.38 A 2.759 2.759 0 0 1 1.614 4.383 Q 1.175 4.383 0.794 4.214 A 1.589 1.589 0 0 1 0.475 4.029 A 1.249 1.249 0 0 1 0.207 3.753 Q 0 3.46 0 3.088 L 0.566 3.088 A 0.841 0.841 0 0 0 0.612 3.373 A 0.716 0.716 0 0 0 0.851 3.699 Q 1.108 3.9 1.518 3.921 A 1.914 1.914 0 0 0 1.614 3.923 Q 1.907 3.923 2.109 3.845 A 0.752 0.752 0 0 0 2.297 3.741 A 0.579 0.579 0 0 0 2.531 3.322 A 0.768 0.768 0 0 0 2.534 3.246 A 0.716 0.716 0 0 0 2.506 3.039 A 0.544 0.544 0 0 0 2.315 2.761 A 1.04 1.04 0 0 0 2.165 2.667 Q 1.998 2.577 1.733 2.489 A 5.851 5.851 0 0 0 1.518 2.423 A 4.568 4.568 0 0 1 1.123 2.291 Q 0.696 2.125 0.464 1.912 A 1 1 0 0 1 0.196 1.52 A 1.023 1.023 0 0 1 0.135 1.163 A 1.02 1.02 0 0 1 0.466 0.393 A 1.318 1.318 0 0 1 0.538 0.33 Q 0.941 0 1.585 0 A 1.942 1.942 0 0 1 2.025 0.048 A 1.581 1.581 0 0 1 2.369 0.17 A 1.367 1.367 0 0 1 2.723 0.417 A 1.223 1.223 0 0 1 2.902 0.639 A 1.199 1.199 0 0 1 3.091 1.292 Z M 16.163 1.981 L 16.163 2.44 L 14.373 2.44 L 14.373 4.324 L 13.811 4.324 L 13.811 0.059 L 16.453 0.059 L 16.453 0.522 L 14.373 0.522 L 14.373 1.981 L 16.163 1.981 Z M 39.243 2.086 L 38.698 2.086 A 0.473 0.473 0 0 0 38.559 1.749 A 0.668 0.668 0 0 0 38.509 1.702 A 0.666 0.666 0 0 0 38.171 1.551 A 0.906 0.906 0 0 0 38.033 1.541 A 1.098 1.098 0 0 0 37.853 1.555 Q 37.757 1.571 37.68 1.605 A 0.53 0.53 0 0 0 37.57 1.67 A 0.435 0.435 0 0 0 37.454 1.802 Q 37.405 1.89 37.403 2 A 0.512 0.512 0 0 0 37.403 2.007 A 0.392 0.392 0 0 0 37.423 2.135 A 0.32 0.32 0 0 0 37.559 2.303 Q 37.677 2.378 37.939 2.449 A 4.387 4.387 0 0 0 38.12 2.493 A 4.212 4.212 0 0 1 38.392 2.563 Q 38.518 2.6 38.624 2.642 A 1.895 1.895 0 0 1 38.777 2.71 Q 38.985 2.814 39.104 2.953 A 0.707 0.707 0 0 1 39.151 3.013 Q 39.273 3.19 39.273 3.445 A 0.853 0.853 0 0 1 39.198 3.806 Q 39.113 3.99 38.933 4.127 A 1.219 1.219 0 0 1 38.479 4.336 Q 38.308 4.377 38.109 4.382 A 2.224 2.224 0 0 1 38.051 4.383 Q 37.67 4.383 37.377 4.248 Q 37.084 4.113 36.919 3.872 Q 36.753 3.63 36.753 3.349 L 37.295 3.349 A 0.622 0.622 0 0 0 37.344 3.565 A 0.552 0.552 0 0 0 37.513 3.781 Q 37.703 3.929 38.005 3.94 A 1.342 1.342 0 0 0 38.051 3.94 Q 38.358 3.94 38.545 3.816 A 0.459 0.459 0 0 0 38.654 3.716 A 0.369 0.369 0 0 0 38.731 3.483 A 0.466 0.466 0 0 0 38.706 3.33 A 0.387 0.387 0 0 0 38.565 3.142 Q 38.43 3.043 38.13 2.966 A 3.595 3.595 0 0 0 37.988 2.933 A 4.228 4.228 0 0 1 37.747 2.874 Q 37.501 2.806 37.335 2.722 Q 37.135 2.62 37.022 2.487 A 0.678 0.678 0 0 1 36.977 2.429 A 0.664 0.664 0 0 1 36.869 2.138 A 0.861 0.861 0 0 1 36.861 2.024 A 0.804 0.804 0 0 1 37.127 1.421 A 1.129 1.129 0 0 1 37.191 1.365 A 1.168 1.168 0 0 1 37.713 1.125 A 1.647 1.647 0 0 1 38.033 1.096 A 1.706 1.706 0 0 1 38.409 1.135 A 1.172 1.172 0 0 1 38.908 1.374 A 0.923 0.923 0 0 1 39.159 1.691 A 0.915 0.915 0 0 1 39.243 2.086 Z M 20.285 1.154 L 20.798 1.154 L 20.816 1.553 Q 21.179 1.096 21.765 1.096 Q 22.77 1.096 22.778 2.23 L 22.778 4.324 L 22.236 4.324 L 22.236 2.227 A 1.224 1.224 0 0 0 22.222 2.04 Q 22.206 1.944 22.174 1.868 A 0.494 0.494 0 0 0 22.08 1.72 A 0.472 0.472 0 0 0 21.89 1.599 Q 21.814 1.572 21.72 1.562 A 1.106 1.106 0 0 0 21.601 1.556 Q 21.337 1.556 21.138 1.696 Q 20.939 1.837 20.827 2.065 L 20.827 4.324 L 20.285 4.324 L 20.285 1.154 Z M 33.574 1.154 L 34.087 1.154 L 34.105 1.553 Q 34.468 1.096 35.054 1.096 Q 36.059 1.096 36.067 2.23 L 36.067 4.324 L 35.525 4.324 L 35.525 2.227 A 1.224 1.224 0 0 0 35.511 2.04 Q 35.495 1.944 35.463 1.868 A 0.494 0.494 0 0 0 35.369 1.72 A 0.472 0.472 0 0 0 35.18 1.599 Q 35.103 1.572 35.009 1.562 A 1.106 1.106 0 0 0 34.89 1.556 Q 34.626 1.556 34.427 1.696 Q 34.228 1.837 34.116 2.065 L 34.116 4.324 L 33.574 4.324 L 33.574 1.154 Z M 18.946 4.324 L 18.935 4.011 A 1.017 1.017 0 0 1 18.384 4.341 Q 18.217 4.382 18.019 4.383 A 1.991 1.991 0 0 1 18.006 4.383 A 1.391 1.391 0 0 1 17.699 4.351 Q 17.495 4.305 17.346 4.192 A 0.811 0.811 0 0 1 17.234 4.088 Q 17.024 3.855 16.978 3.443 A 2.173 2.173 0 0 1 16.966 3.217 L 16.966 1.154 L 17.508 1.154 L 17.508 3.202 A 1.302 1.302 0 0 0 17.532 3.465 Q 17.627 3.923 18.094 3.923 Q 18.715 3.923 18.92 3.46 L 18.92 1.154 L 19.462 1.154 L 19.462 4.324 L 18.946 4.324 Z M 25.614 3.325 L 26.127 3.325 A 0.955 0.955 0 0 1 25.994 3.758 A 1.181 1.181 0 0 1 25.94 3.844 A 1.219 1.219 0 0 1 25.533 4.207 A 1.446 1.446 0 0 1 25.478 4.236 A 1.331 1.331 0 0 1 24.867 4.383 A 1.564 1.564 0 0 1 24.402 4.317 A 1.226 1.226 0 0 1 23.838 3.951 Q 23.487 3.554 23.458 2.89 A 2.794 2.794 0 0 1 23.455 2.769 L 23.455 2.678 A 2.16 2.16 0 0 1 23.498 2.241 A 1.713 1.713 0 0 1 23.625 1.855 A 1.339 1.339 0 0 1 23.918 1.445 A 1.261 1.261 0 0 1 24.113 1.295 A 1.295 1.295 0 0 1 24.617 1.113 A 1.686 1.686 0 0 1 24.864 1.096 A 1.464 1.464 0 0 1 25.296 1.157 A 1.191 1.191 0 0 1 25.751 1.415 A 1.129 1.129 0 0 1 26.123 2.181 A 1.493 1.493 0 0 1 26.127 2.244 L 25.614 2.244 A 0.813 0.813 0 0 0 25.546 1.968 A 0.725 0.725 0 0 0 25.381 1.739 A 0.718 0.718 0 0 0 24.895 1.542 A 0.934 0.934 0 0 0 24.864 1.541 A 0.916 0.916 0 0 0 24.583 1.582 A 0.72 0.72 0 0 0 24.224 1.838 A 0.979 0.979 0 0 0 24.073 2.137 Q 23.997 2.373 23.997 2.698 L 23.997 2.801 Q 23.997 3.349 24.223 3.645 Q 24.448 3.94 24.867 3.94 A 0.781 0.781 0 0 0 25.374 3.765 A 0.672 0.672 0 0 0 25.537 3.577 A 0.609 0.609 0 0 0 25.614 3.325 Z M 11.552 2.725 L 11.552 2.774 A 2.579 2.579 0 0 1 11.509 3.258 Q 11.455 3.543 11.331 3.769 A 1.44 1.44 0 0 1 11.221 3.94 A 1.047 1.047 0 0 1 10.462 4.376 A 1.342 1.342 0 0 1 10.324 4.383 Q 9.747 4.383 9.416 4.017 L 9.416 5.543 L 8.874 5.543 L 8.874 1.154 L 9.369 1.154 L 9.396 1.506 A 1.079 1.079 0 0 1 10.155 1.104 A 1.546 1.546 0 0 1 10.316 1.096 A 1.219 1.219 0 0 1 10.74 1.167 A 1.064 1.064 0 0 1 11.219 1.526 A 1.46 1.46 0 0 1 11.458 2.004 Q 11.52 2.209 11.541 2.456 A 3.143 3.143 0 0 1 11.552 2.725 Z M 5.558 2.827 L 5.558 2.728 Q 5.558 2.256 5.738 1.885 A 1.461 1.461 0 0 1 6.036 1.468 A 1.356 1.356 0 0 1 6.242 1.305 Q 6.566 1.096 6.943 1.096 A 1.503 1.503 0 0 1 7.352 1.148 A 1.093 1.093 0 0 1 7.904 1.503 A 1.33 1.33 0 0 1 8.15 1.962 Q 8.212 2.157 8.235 2.392 A 2.942 2.942 0 0 1 8.247 2.669 L 8.247 2.895 L 6.1 2.895 A 1.408 1.408 0 0 0 6.147 3.233 A 1.011 1.011 0 0 0 6.374 3.652 A 0.855 0.855 0 0 0 6.996 3.94 A 1.102 1.102 0 0 0 7.04 3.94 A 1.176 1.176 0 0 0 7.259 3.921 Q 7.398 3.895 7.511 3.832 A 0.737 0.737 0 0 0 7.526 3.823 A 1.218 1.218 0 0 0 7.866 3.525 A 1.384 1.384 0 0 0 7.875 3.513 L 8.206 3.771 A 1.284 1.284 0 0 1 7.273 4.365 A 1.833 1.833 0 0 1 7.011 4.383 A 1.596 1.596 0 0 1 6.51 4.308 A 1.316 1.316 0 0 1 5.962 3.96 A 1.424 1.424 0 0 1 5.599 3.252 A 2.069 2.069 0 0 1 5.558 2.827 Z M 3.929 0.387 L 4.471 0.387 L 4.471 1.154 L 5.063 1.154 L 5.063 1.573 L 4.471 1.573 L 4.471 3.539 A 0.732 0.732 0 0 0 4.478 3.644 Q 4.486 3.697 4.502 3.74 A 0.294 0.294 0 0 0 4.55 3.825 A 0.234 0.234 0 0 0 4.646 3.892 Q 4.686 3.908 4.736 3.915 A 0.618 0.618 0 0 0 4.819 3.92 Q 4.913 3.92 5.077 3.885 L 5.077 4.324 A 1.642 1.642 0 0 1 4.789 4.377 A 1.438 1.438 0 0 1 4.661 4.383 A 0.954 0.954 0 0 1 4.444 4.36 Q 4.293 4.324 4.185 4.235 A 0.571 0.571 0 0 1 4.113 4.163 A 0.723 0.723 0 0 1 3.979 3.909 Q 3.929 3.749 3.929 3.539 L 3.929 1.573 L 3.352 1.573 L 3.352 1.154 L 3.929 1.154 L 3.929 0.387 Z M 26.93 0.387 L 27.472 0.387 L 27.472 1.154 L 28.064 1.154 L 28.064 1.573 L 27.472 1.573 L 27.472 3.539 A 0.732 0.732 0 0 0 27.479 3.644 Q 27.486 3.697 27.503 3.74 A 0.294 0.294 0 0 0 27.551 3.825 A 0.234 0.234 0 0 0 27.647 3.892 Q 27.687 3.908 27.737 3.915 A 0.618 0.618 0 0 0 27.82 3.92 Q 27.914 3.92 28.078 3.885 L 28.078 4.324 A 1.642 1.642 0 0 1 27.79 4.377 A 1.438 1.438 0 0 1 27.662 4.383 A 0.954 0.954 0 0 1 27.445 4.36 Q 27.294 4.324 27.186 4.235 A 0.571 0.571 0 0 1 27.114 4.163 A 0.723 0.723 0 0 1 26.98 3.909 Q 26.93 3.749 26.93 3.539 L 26.93 1.573 L 26.353 1.573 L 26.353 1.154 L 26.93 1.154 L 26.93 0.387 Z M 30.009 2.748 L 30.009 2.71 A 2.038 2.038 0 0 1 30.067 2.216 A 1.715 1.715 0 0 1 30.192 1.872 Q 30.375 1.5 30.702 1.298 A 1.358 1.358 0 0 1 31.331 1.1 A 1.66 1.66 0 0 1 31.447 1.096 A 1.518 1.518 0 0 1 31.95 1.176 A 1.291 1.291 0 0 1 32.495 1.544 A 1.526 1.526 0 0 1 32.841 2.23 A 2.248 2.248 0 0 1 32.895 2.736 L 32.895 2.774 A 2.076 2.076 0 0 1 32.842 3.252 A 1.718 1.718 0 0 1 32.717 3.605 A 1.371 1.371 0 0 1 32.366 4.065 A 1.334 1.334 0 0 1 32.211 4.178 A 1.364 1.364 0 0 1 31.597 4.377 A 1.686 1.686 0 0 1 31.453 4.383 A 1.508 1.508 0 0 1 30.953 4.303 A 1.292 1.292 0 0 1 30.409 3.935 Q 30.009 3.486 30.009 2.748 Z M 29.285 1.154 L 29.285 4.324 L 28.743 4.324 L 28.743 1.154 L 29.285 1.154 Z M 30.717 3.498 A 1.03 1.03 0 0 0 30.798 3.621 Q 31.043 3.94 31.453 3.94 Q 31.866 3.94 32.109 3.617 Q 32.353 3.293 32.353 2.71 A 1.792 1.792 0 0 0 32.319 2.35 Q 32.273 2.13 32.169 1.958 A 1.057 1.057 0 0 0 32.105 1.865 A 0.821 0.821 0 0 0 31.828 1.628 Q 31.66 1.541 31.447 1.541 A 0.813 0.813 0 0 0 31.096 1.615 Q 30.934 1.692 30.81 1.848 A 1.01 1.01 0 0 0 30.8 1.86 A 1.059 1.059 0 0 0 30.632 2.192 Q 30.585 2.339 30.567 2.517 A 2.451 2.451 0 0 0 30.554 2.774 Q 30.554 3.205 30.717 3.498 Z M 9.416 1.992 L 9.416 3.507 A 0.888 0.888 0 0 0 9.635 3.771 Q 9.814 3.914 10.065 3.936 A 1.076 1.076 0 0 0 10.16 3.94 Q 10.54 3.94 10.768 3.647 A 0.933 0.933 0 0 0 10.78 3.631 Q 10.944 3.411 10.991 3.037 A 2.607 2.607 0 0 0 11.01 2.713 A 2.038 2.038 0 0 0 10.984 2.378 Q 10.933 2.072 10.781 1.866 A 0.724 0.724 0 0 0 10.257 1.561 A 0.942 0.942 0 0 0 10.154 1.556 A 0.871 0.871 0 0 0 9.811 1.621 Q 9.609 1.707 9.471 1.905 A 1.082 1.082 0 0 0 9.416 1.992 Z M 6.117 2.449 L 7.705 2.449 L 7.705 2.408 A 1.489 1.489 0 0 0 7.67 2.152 Q 7.636 2.01 7.574 1.898 A 0.753 0.753 0 0 0 7.483 1.768 A 0.655 0.655 0 0 0 7.046 1.547 A 0.926 0.926 0 0 0 6.943 1.541 Q 6.615 1.541 6.393 1.78 Q 6.197 1.99 6.133 2.348 A 1.827 1.827 0 0 0 6.117 2.449 Z M 28.718 0.196 A 0.357 0.357 0 0 0 28.699 0.314 A 0.403 0.403 0 0 0 28.701 0.35 A 0.304 0.304 0 0 0 28.78 0.533 Q 28.835 0.594 28.927 0.613 A 0.455 0.455 0 0 0 29.019 0.621 Q 29.177 0.621 29.259 0.533 A 0.295 0.295 0 0 0 29.324 0.424 A 0.349 0.349 0 0 0 29.341 0.314 A 0.409 0.409 0 0 0 29.34 0.293 A 0.316 0.316 0 0 0 29.259 0.091 Q 29.203 0.029 29.113 0.01 A 0.439 0.439 0 0 0 29.019 0 Q 28.956 0 28.906 0.014 A 0.257 0.257 0 0 0 28.78 0.091 A 0.31 0.31 0 0 0 28.718 0.196 Z" vector-effect="non-scaling-stroke"/></g>
</svg>