<?xml version="1.0" encoding="UTF-8"?>
<svg width="80px" height="80px" viewBox="0 0 80 80" version="1.1" xmlns="http://www.w3.org/2000/svg" xmlns:xlink="http://www.w3.org/1999/xlink">
    <title>Icon-Architecture/64/Arch_Amazon-Chime-Voice-Connector_64</title>
    
    <g id="Icon-Architecture/64/Arch_Amazon-Chime-Voice-Connector_64" stroke="none" stroke-width="1" fill="none" fill-rule="evenodd">
        
        <path transform="translate(0vw, 0vh), scale(.65)" d="M66,46.001 L51.125,41.702 L51.125,36.423 L66,40.75 L66,46.001 Z M57.852,58.918 L54.137,62.632 L46.448,48.851 L50.184,45.115 L57.852,58.918 Z M44.5,47.971 C44.194,48.276 44.121,48.741 44.313,49.125 L37.546,49.125 C37.301,49.125 37.072,49.214 36.895,49.365 L32.029,44.5 C31.837,44.307 31.581,44.207 31.322,44.207 C31.17,44.207 31.017,44.241 30.875,44.312 L30.875,37.545 C30.875,37.3 30.786,37.071 30.635,36.894 L35.5,32.028 C35.806,31.723 35.879,31.258 35.688,30.875 L42.454,30.875 C42.699,30.875 42.928,30.785 43.105,30.634 L47.971,35.5 C48.276,35.806 48.743,35.879 49.125,35.687 L49.125,42.454 C49.125,42.699 49.214,42.928 49.365,43.105 L44.5,47.971 Z M39.249,66 L33.999,66 L38.298,51.125 L43.577,51.125 L39.249,66 Z M21.082,57.851 L17.366,54.136 L31.149,46.448 L34.884,50.183 L21.082,57.851 Z M14,39.249 L14,33.998 L28.875,38.297 L28.875,43.576 L14,39.249 Z M22.148,21.082 L25.863,17.367 L33.552,31.148 L29.816,34.884 L22.148,21.082 Z M40.751,14 L46.001,14 L41.702,28.875 L36.423,28.875 L40.751,14 Z M58.918,22.148 L62.634,25.863 L48.851,33.551 L45.116,29.816 L58.918,22.148 Z M67.279,39.04 L51.399,34.419 L64.764,26.965 C65.037,26.813 65.224,26.54 65.267,26.23 C65.31,25.919 65.205,25.606 64.983,25.385 L59.799,20.201 C59.483,19.885 58.997,19.816 58.606,20.034 L43.993,28.152 L48.292,13.277 C48.379,12.975 48.319,12.65 48.13,12.398 C47.941,12.147 47.646,12 47.331,12 L40,12 C39.556,12 39.164,12.293 39.04,12.72 L34.42,28.6 L26.965,15.236 C26.812,14.963 26.54,14.776 26.229,14.733 C25.923,14.69 25.606,14.795 25.385,15.017 L20.201,20.201 C19.886,20.516 19.817,21.003 20.034,21.394 L28.151,36.006 L13.277,31.708 C12.977,31.619 12.65,31.679 12.399,31.869 C12.147,32.058 12,32.354 12,32.668 L12,40 C12,40.444 12.294,40.835 12.721,40.959 L28.601,45.58 L15.236,53.034 C14.963,53.187 14.776,53.459 14.733,53.77 C14.69,54.08 14.795,54.393 15.017,54.614 L20.201,59.798 C20.518,60.114 21.004,60.182 21.394,59.965 L36.007,51.847 L31.708,66.722 C31.621,67.024 31.681,67.349 31.87,67.601 C32.059,67.852 32.354,68 32.669,68 L40,68 C40.444,68 40.836,67.706 40.96,67.279 L45.58,51.399 L53.035,64.763 C53.187,65.036 53.46,65.223 53.771,65.266 C54.083,65.312 54.394,65.205 54.615,64.982 L59.799,59.798 C60.114,59.483 60.183,58.996 59.966,58.605 L51.849,43.993 L66.723,48.292 C67.022,48.379 67.35,48.319 67.601,48.13 C67.853,47.941 68,47.646 68,47.331 L68,40 C68,39.555 67.706,39.164 67.279,39.04 L67.279,39.04 Z" id="Amazon-Chime_Icon_64_Squid" fill="#000000"></path>
    </g><g id="svgGroup" stroke-linecap="round" fill-rule="evenodd" font-size="9pt" stroke="#000" stroke-width="0.25mm" fill="#000" style="stroke:#000;stroke-width:0.25mm;fill:#000"><path d="M 13.087 1.995 L 13.856 1.995 L 13.878 2.522 Q 14.401 1.907 15.289 1.907 A 2.009 2.009 0 0 1 15.799 1.968 A 1.244 1.244 0 0 1 16.647 2.672 A 1.801 1.801 0 0 1 17.264 2.118 A 1.65 1.65 0 0 1 17.793 1.937 A 2.209 2.209 0 0 1 18.163 1.907 A 2.119 2.119 0 0 1 18.807 1.997 Q 19.733 2.292 19.753 3.564 L 19.753 6.75 L 18.94 6.75 L 18.94 3.612 A 1.781 1.781 0 0 0 18.92 3.332 Q 18.896 3.185 18.846 3.067 A 0.758 0.758 0 0 0 18.708 2.85 A 0.68 0.68 0 0 0 18.455 2.682 Q 18.243 2.597 17.927 2.597 A 1.245 1.245 0 0 0 17.56 2.648 A 1.008 1.008 0 0 0 17.174 2.867 A 1.042 1.042 0 0 0 16.86 3.404 A 1.41 1.41 0 0 0 16.827 3.595 L 16.827 6.75 L 16.009 6.75 L 16.009 3.634 A 1.532 1.532 0 0 0 15.961 3.23 Q 15.834 2.768 15.377 2.643 A 1.457 1.457 0 0 0 14.994 2.597 Q 14.221 2.597 13.92 3.234 A 1.459 1.459 0 0 0 13.9 3.278 L 13.9 6.75 L 13.087 6.75 L 13.087 1.995 Z M 4.078 4.72 L 4.926 4.72 A 3.016 3.016 0 0 1 4.765 5.416 A 2.099 2.099 0 0 1 4.177 6.286 Q 3.546 6.838 2.501 6.838 A 2.553 2.553 0 0 1 1.631 6.696 A 2.194 2.194 0 0 1 0.683 6.025 A 2.789 2.789 0 0 1 0.122 4.901 Q 0.015 4.484 0.002 3.992 A 5.262 5.262 0 0 1 0 3.85 L 0 3.234 A 4.251 4.251 0 0 1 0.07 2.445 A 3.229 3.229 0 0 1 0.319 1.666 A 2.539 2.539 0 0 1 0.774 0.99 A 2.26 2.26 0 0 1 1.222 0.626 A 2.415 2.415 0 0 1 2.248 0.281 A 3.027 3.027 0 0 1 2.575 0.264 A 2.962 2.962 0 0 1 3.281 0.343 A 2.065 2.065 0 0 1 4.21 0.833 A 2.16 2.16 0 0 1 4.805 1.795 A 3.086 3.086 0 0 1 4.926 2.408 L 4.078 2.408 Q 4.009 1.929 3.84 1.616 A 1.223 1.223 0 0 0 3.601 1.301 A 1.207 1.207 0 0 0 3.096 1.024 Q 2.909 0.971 2.686 0.961 A 2.396 2.396 0 0 0 2.575 0.958 A 1.753 1.753 0 0 0 1.997 1.049 A 1.463 1.463 0 0 0 1.307 1.556 A 1.989 1.989 0 0 0 0.993 2.175 Q 0.848 2.636 0.848 3.256 L 0.848 3.876 Q 0.848 4.917 1.283 5.533 A 1.38 1.38 0 0 0 2.282 6.135 A 1.814 1.814 0 0 0 2.501 6.148 A 2.497 2.497 0 0 0 2.908 6.117 Q 3.127 6.08 3.303 6.002 A 1.155 1.155 0 0 0 3.579 5.829 Q 3.955 5.511 4.078 4.72 Z M 6.763 0 L 6.763 2.571 A 1.767 1.767 0 0 1 7.429 2.053 A 1.832 1.832 0 0 1 8.169 1.907 A 1.905 1.905 0 0 1 8.803 2.004 Q 9.645 2.3 9.688 3.506 A 3.668 3.668 0 0 1 9.69 3.608 L 9.69 6.75 L 8.877 6.75 L 8.877 3.604 A 1.837 1.837 0 0 0 8.855 3.324 Q 8.805 3.017 8.642 2.843 Q 8.456 2.645 8.102 2.606 A 1.66 1.66 0 0 0 7.923 2.597 A 1.253 1.253 0 0 0 7.509 2.664 A 1.123 1.123 0 0 0 7.229 2.808 A 1.432 1.432 0 0 0 6.763 3.362 L 6.763 6.75 L 5.95 6.75 L 5.95 0 L 6.763 0 Z M 28.402 0.352 L 30.221 5.629 L 32.049 0.352 L 32.972 0.352 L 30.599 6.75 L 29.852 6.75 L 27.483 0.352 L 28.402 0.352 Z M 43.844 5.251 L 44.613 5.251 A 1.432 1.432 0 0 1 44.414 5.901 A 1.772 1.772 0 0 1 44.332 6.029 A 1.828 1.828 0 0 1 43.723 6.574 A 2.169 2.169 0 0 1 43.64 6.618 A 1.997 1.997 0 0 1 42.724 6.838 A 2.346 2.346 0 0 1 42.026 6.739 A 1.839 1.839 0 0 1 41.179 6.19 A 2.171 2.171 0 0 1 40.715 5.31 Q 40.606 4.909 40.606 4.417 L 40.606 4.28 A 3.24 3.24 0 0 1 40.669 3.624 A 2.57 2.57 0 0 1 40.86 3.045 A 2.008 2.008 0 0 1 41.3 2.431 A 1.892 1.892 0 0 1 41.592 2.206 A 1.943 1.943 0 0 1 42.348 1.934 A 2.529 2.529 0 0 1 42.719 1.907 A 2.196 2.196 0 0 1 43.367 1.999 A 1.786 1.786 0 0 1 44.049 2.386 A 1.693 1.693 0 0 1 44.607 3.535 A 2.239 2.239 0 0 1 44.613 3.63 L 43.844 3.63 Q 43.809 3.168 43.495 2.872 A 1.078 1.078 0 0 0 42.766 2.576 A 1.402 1.402 0 0 0 42.719 2.575 A 1.374 1.374 0 0 0 42.298 2.637 A 1.081 1.081 0 0 0 41.759 3.021 A 1.469 1.469 0 0 0 41.532 3.468 Q 41.467 3.674 41.439 3.923 A 3.514 3.514 0 0 0 41.419 4.311 L 41.419 4.465 Q 41.419 5.287 41.757 5.73 A 1.1 1.1 0 0 0 42.544 6.165 A 1.611 1.611 0 0 0 42.724 6.174 A 1.171 1.171 0 0 0 43.484 5.911 A 1.007 1.007 0 0 0 43.728 5.629 A 0.914 0.914 0 0 0 43.844 5.251 Z M 20.773 4.504 L 20.773 4.355 A 3.17 3.17 0 0 1 20.849 3.646 A 2.581 2.581 0 0 1 21.043 3.092 A 2.191 2.191 0 0 1 21.491 2.466 A 2.033 2.033 0 0 1 21.799 2.221 Q 22.285 1.907 22.852 1.907 A 2.254 2.254 0 0 1 23.465 1.986 A 1.639 1.639 0 0 1 24.293 2.518 Q 24.807 3.129 24.807 4.267 L 24.807 4.605 L 21.586 4.605 A 2.111 2.111 0 0 0 21.657 5.114 A 1.516 1.516 0 0 0 21.997 5.741 A 1.282 1.282 0 0 0 22.931 6.173 A 1.652 1.652 0 0 0 22.997 6.174 A 1.763 1.763 0 0 0 23.325 6.145 Q 23.549 6.103 23.726 5.999 A 1.827 1.827 0 0 0 24.235 5.551 A 2.068 2.068 0 0 0 24.249 5.533 L 24.746 5.919 A 1.926 1.926 0 0 1 23.346 6.811 A 2.749 2.749 0 0 1 22.953 6.838 A 2.394 2.394 0 0 1 22.201 6.725 A 1.974 1.974 0 0 1 21.379 6.203 Q 20.773 5.568 20.773 4.504 Z M 45.321 4.504 L 45.321 4.355 A 3.17 3.17 0 0 1 45.397 3.646 A 2.581 2.581 0 0 1 45.591 3.092 A 2.191 2.191 0 0 1 46.039 2.466 A 2.033 2.033 0 0 1 46.347 2.221 Q 46.833 1.907 47.399 1.907 A 2.254 2.254 0 0 1 48.013 1.986 A 1.639 1.639 0 0 1 48.841 2.518 Q 49.355 3.129 49.355 4.267 L 49.355 4.605 L 46.134 4.605 A 2.111 2.111 0 0 0 46.205 5.114 A 1.516 1.516 0 0 0 46.545 5.741 A 1.282 1.282 0 0 0 47.479 6.173 A 1.652 1.652 0 0 0 47.544 6.174 A 1.763 1.763 0 0 0 47.873 6.145 Q 48.097 6.103 48.274 5.999 A 1.827 1.827 0 0 0 48.783 5.551 A 2.068 2.068 0 0 0 48.797 5.533 L 49.294 5.919 A 1.926 1.926 0 0 1 47.894 6.811 A 2.749 2.749 0 0 1 47.501 6.838 A 2.394 2.394 0 0 1 46.749 6.725 A 1.974 1.974 0 0 1 45.927 6.203 Q 45.321 5.568 45.321 4.504 Z M 33.284 4.386 L 33.284 4.329 A 3.057 3.057 0 0 1 33.371 3.587 A 2.573 2.573 0 0 1 33.559 3.072 A 2.16 2.16 0 0 1 33.974 2.486 A 1.957 1.957 0 0 1 34.324 2.21 A 2.036 2.036 0 0 1 35.268 1.913 A 2.491 2.491 0 0 1 35.442 1.907 A 2.277 2.277 0 0 1 36.195 2.027 A 1.937 1.937 0 0 1 37.013 2.58 A 2.29 2.29 0 0 1 37.532 3.608 A 3.373 3.373 0 0 1 37.613 4.368 L 37.613 4.425 A 3.114 3.114 0 0 1 37.533 5.142 A 2.577 2.577 0 0 1 37.347 5.671 A 2.056 2.056 0 0 1 36.82 6.361 A 2.001 2.001 0 0 1 36.587 6.53 A 2.045 2.045 0 0 1 35.667 6.829 A 2.529 2.529 0 0 1 35.451 6.838 A 2.262 2.262 0 0 1 34.7 6.718 A 1.938 1.938 0 0 1 33.884 6.166 A 2.297 2.297 0 0 1 33.358 5.111 A 3.357 3.357 0 0 1 33.284 4.386 Z M 11.791 1.995 L 11.791 6.75 L 10.978 6.75 L 10.978 1.995 L 11.791 1.995 Z M 39.516 1.995 L 39.516 6.75 L 38.703 6.75 L 38.703 1.995 L 39.516 1.995 Z M 34.102 4.425 A 2.772 2.772 0 0 0 34.149 4.954 Q 34.209 5.264 34.347 5.51 A 1.545 1.545 0 0 0 34.469 5.695 Q 34.835 6.174 35.451 6.174 A 1.269 1.269 0 0 0 35.94 6.083 Q 36.22 5.967 36.422 5.706 A 1.471 1.471 0 0 0 36.435 5.689 A 1.648 1.648 0 0 0 36.69 5.171 Q 36.759 4.945 36.784 4.672 A 3.655 3.655 0 0 0 36.8 4.329 A 2.687 2.687 0 0 0 36.749 3.789 Q 36.681 3.459 36.524 3.2 A 1.586 1.586 0 0 0 36.429 3.061 A 1.231 1.231 0 0 0 36.013 2.705 Q 35.76 2.575 35.442 2.575 Q 34.852 2.575 34.486 3.035 A 1.515 1.515 0 0 0 34.471 3.054 A 1.589 1.589 0 0 0 34.219 3.552 Q 34.149 3.772 34.121 4.039 A 3.676 3.676 0 0 0 34.102 4.425 Z M 21.612 3.938 L 23.994 3.938 L 23.994 3.876 Q 23.968 3.417 23.797 3.111 A 1.13 1.13 0 0 0 23.66 2.916 A 0.983 0.983 0 0 0 23.006 2.584 A 1.39 1.39 0 0 0 22.852 2.575 A 1.106 1.106 0 0 0 22.329 2.698 A 1.14 1.14 0 0 0 22.025 2.933 A 1.417 1.417 0 0 0 21.749 3.379 Q 21.675 3.563 21.635 3.785 A 2.741 2.741 0 0 0 21.612 3.938 Z M 46.16 3.938 L 48.542 3.938 L 48.542 3.876 Q 48.516 3.417 48.345 3.111 A 1.13 1.13 0 0 0 48.208 2.916 A 0.983 0.983 0 0 0 47.554 2.584 A 1.39 1.39 0 0 0 47.399 2.575 A 1.106 1.106 0 0 0 46.877 2.698 A 1.14 1.14 0 0 0 46.573 2.933 A 1.417 1.417 0 0 0 46.297 3.379 Q 46.223 3.563 46.183 3.785 A 2.741 2.741 0 0 0 46.16 3.938 Z M 10.912 0.734 Q 10.912 0.536 11.033 0.4 Q 11.144 0.274 11.356 0.264 A 0.783 0.783 0 0 1 11.391 0.264 Q 11.628 0.264 11.751 0.4 A 0.474 0.474 0 0 1 11.873 0.703 A 0.614 0.614 0 0 1 11.874 0.734 A 0.523 0.523 0 0 1 11.849 0.9 A 0.442 0.442 0 0 1 11.751 1.063 Q 11.639 1.184 11.431 1.194 A 0.803 0.803 0 0 1 11.391 1.195 Q 11.218 1.195 11.107 1.126 A 0.362 0.362 0 0 1 11.033 1.063 A 0.456 0.456 0 0 1 10.914 0.788 A 0.605 0.605 0 0 1 10.912 0.734 Z M 38.637 0.734 Q 38.637 0.536 38.758 0.4 Q 38.87 0.274 39.081 0.264 A 0.783 0.783 0 0 1 39.116 0.264 Q 39.353 0.264 39.476 0.4 A 0.474 0.474 0 0 1 39.598 0.703 A 0.614 0.614 0 0 1 39.599 0.734 A 0.523 0.523 0 0 1 39.574 0.9 A 0.442 0.442 0 0 1 39.476 1.063 Q 39.364 1.184 39.156 1.194 A 0.803 0.803 0 0 1 39.116 1.195 Q 38.943 1.195 38.833 1.126 A 0.362 0.362 0 0 1 38.758 1.063 A 0.456 0.456 0 0 1 38.639 0.788 A 0.605 0.605 0 0 1 38.637 0.734 Z" vector-effect="non-scaling-stroke"/></g><g transform="translate(15.322475378366612, 64), scale(0.75)" id="svgGroup" stroke-linecap="round" fill-rule="evenodd" font-size="9pt" stroke="#000" stroke-width="0.25mm" fill="#000" style="stroke:#000;stroke-width:0.25mm;fill:#000"><path d="M 4.078 4.456 L 4.926 4.456 A 3.016 3.016 0 0 1 4.765 5.152 A 2.099 2.099 0 0 1 4.177 6.023 Q 3.546 6.574 2.501 6.574 A 2.553 2.553 0 0 1 1.631 6.432 A 2.194 2.194 0 0 1 0.683 5.761 A 2.789 2.789 0 0 1 0.122 4.638 Q 0.015 4.22 0.002 3.728 A 5.262 5.262 0 0 1 0 3.586 L 0 2.971 A 4.251 4.251 0 0 1 0.07 2.182 A 3.229 3.229 0 0 1 0.319 1.402 A 2.539 2.539 0 0 1 0.774 0.726 A 2.26 2.26 0 0 1 1.222 0.363 A 2.415 2.415 0 0 1 2.248 0.017 A 3.027 3.027 0 0 1 2.575 0 A 2.962 2.962 0 0 1 3.281 0.08 A 2.065 2.065 0 0 1 4.21 0.569 A 2.16 2.16 0 0 1 4.805 1.531 A 3.086 3.086 0 0 1 4.926 2.145 L 4.078 2.145 Q 4.009 1.666 3.84 1.352 A 1.223 1.223 0 0 0 3.601 1.037 A 1.207 1.207 0 0 0 3.096 0.76 Q 2.909 0.707 2.686 0.697 A 2.396 2.396 0 0 0 2.575 0.694 A 1.753 1.753 0 0 0 1.997 0.786 A 1.463 1.463 0 0 0 1.307 1.292 A 1.989 1.989 0 0 0 0.993 1.912 Q 0.848 2.372 0.848 2.993 L 0.848 3.612 Q 0.848 4.654 1.283 5.269 A 1.38 1.38 0 0 0 2.282 5.872 A 1.814 1.814 0 0 0 2.501 5.884 A 2.497 2.497 0 0 0 2.908 5.853 Q 3.127 5.817 3.303 5.738 A 1.155 1.155 0 0 0 3.579 5.566 Q 3.955 5.247 4.078 4.456 Z M 11.083 1.732 L 11.852 1.732 L 11.878 2.329 Q 12.415 1.654 13.275 1.644 A 2.234 2.234 0 0 1 13.302 1.644 A 1.905 1.905 0 0 1 13.936 1.74 Q 14.778 2.037 14.821 3.242 A 3.668 3.668 0 0 1 14.823 3.344 L 14.823 6.486 L 14.01 6.486 L 14.01 3.34 A 1.837 1.837 0 0 0 13.988 3.06 Q 13.937 2.753 13.775 2.58 Q 13.589 2.381 13.235 2.343 A 1.66 1.66 0 0 0 13.056 2.334 A 1.253 1.253 0 0 0 12.642 2.4 A 1.123 1.123 0 0 0 12.362 2.545 A 1.432 1.432 0 0 0 11.896 3.098 L 11.896 6.486 L 11.083 6.486 L 11.083 1.732 Z M 16.049 1.732 L 16.818 1.732 L 16.844 2.329 Q 17.381 1.654 18.241 1.644 A 2.234 2.234 0 0 1 18.268 1.644 A 1.905 1.905 0 0 1 18.902 1.74 Q 19.743 2.037 19.786 3.242 A 3.668 3.668 0 0 1 19.789 3.344 L 19.789 6.486 L 18.976 6.486 L 18.976 3.34 A 1.837 1.837 0 0 0 18.953 3.06 Q 18.903 2.753 18.741 2.58 Q 18.554 2.381 18.201 2.343 A 1.66 1.66 0 0 0 18.022 2.334 A 1.253 1.253 0 0 0 17.608 2.4 A 1.123 1.123 0 0 0 17.328 2.545 A 1.432 1.432 0 0 0 16.862 3.098 L 16.862 6.486 L 16.049 6.486 L 16.049 1.732 Z M 28.811 4.988 L 29.58 4.988 A 1.432 1.432 0 0 1 29.381 5.638 A 1.772 1.772 0 0 1 29.298 5.766 A 1.828 1.828 0 0 1 28.689 6.31 A 2.169 2.169 0 0 1 28.606 6.355 A 1.997 1.997 0 0 1 27.69 6.574 A 2.346 2.346 0 0 1 26.993 6.476 A 1.839 1.839 0 0 1 26.145 5.926 A 2.171 2.171 0 0 1 25.682 5.046 Q 25.572 4.645 25.572 4.153 L 25.572 4.017 A 3.24 3.24 0 0 1 25.636 3.361 A 2.57 2.57 0 0 1 25.827 2.782 A 2.008 2.008 0 0 1 26.266 2.168 A 1.892 1.892 0 0 1 26.558 1.942 A 1.943 1.943 0 0 1 27.315 1.67 A 2.529 2.529 0 0 1 27.686 1.644 A 2.196 2.196 0 0 1 28.334 1.735 A 1.786 1.786 0 0 1 29.015 2.123 A 1.693 1.693 0 0 1 29.573 3.272 A 2.239 2.239 0 0 1 29.58 3.366 L 28.811 3.366 Q 28.775 2.905 28.461 2.608 A 1.078 1.078 0 0 0 27.732 2.312 A 1.402 1.402 0 0 0 27.686 2.312 A 1.374 1.374 0 0 0 27.264 2.373 A 1.081 1.081 0 0 0 26.725 2.758 A 1.469 1.469 0 0 0 26.499 3.205 Q 26.433 3.41 26.405 3.66 A 3.514 3.514 0 0 0 26.385 4.047 L 26.385 4.201 Q 26.385 5.023 26.723 5.467 A 1.1 1.1 0 0 0 27.51 5.901 A 1.611 1.611 0 0 0 27.69 5.911 A 1.171 1.171 0 0 0 28.45 5.647 A 1.007 1.007 0 0 0 28.694 5.366 A 0.914 0.914 0 0 0 28.811 4.988 Z M 20.808 4.241 L 20.808 4.091 A 3.17 3.17 0 0 1 20.884 3.382 A 2.581 2.581 0 0 1 21.078 2.828 A 2.191 2.191 0 0 1 21.526 2.202 A 2.033 2.033 0 0 1 21.834 1.958 Q 22.32 1.644 22.887 1.644 A 2.254 2.254 0 0 1 23.5 1.723 A 1.639 1.639 0 0 1 24.328 2.254 Q 24.842 2.865 24.842 4.004 L 24.842 4.342 L 21.621 4.342 A 2.111 2.111 0 0 0 21.692 4.85 A 1.516 1.516 0 0 0 22.032 5.478 A 1.282 1.282 0 0 0 22.966 5.909 A 1.652 1.652 0 0 0 23.032 5.911 A 1.763 1.763 0 0 0 23.36 5.882 Q 23.584 5.839 23.761 5.735 A 1.827 1.827 0 0 0 24.27 5.287 A 2.068 2.068 0 0 0 24.284 5.269 L 24.781 5.656 A 1.926 1.926 0 0 1 23.381 6.547 A 2.749 2.749 0 0 1 22.988 6.574 A 2.394 2.394 0 0 1 22.237 6.461 A 1.974 1.974 0 0 1 21.415 5.939 Q 20.808 5.304 20.808 4.241 Z M 30.784 0.58 L 31.597 0.58 L 31.597 1.732 L 32.484 1.732 L 32.484 2.36 L 31.597 2.36 L 31.597 5.309 Q 31.597 5.594 31.715 5.737 Q 31.834 5.88 32.12 5.88 A 1.046 1.046 0 0 0 32.217 5.875 Q 32.32 5.865 32.46 5.837 A 4.024 4.024 0 0 0 32.506 5.827 L 32.506 6.486 A 2.463 2.463 0 0 1 32.074 6.566 A 2.157 2.157 0 0 1 31.882 6.574 Q 31.435 6.574 31.169 6.352 A 0.856 0.856 0 0 1 31.061 6.245 Q 30.833 5.974 30.793 5.516 A 2.351 2.351 0 0 1 30.784 5.309 L 30.784 2.36 L 29.918 2.36 L 29.918 1.732 L 30.784 1.732 L 30.784 0.58 Z M 5.735 4.122 L 5.735 4.065 A 3.057 3.057 0 0 1 5.822 3.323 A 2.573 2.573 0 0 1 6.01 2.808 A 2.16 2.16 0 0 1 6.424 2.223 A 1.957 1.957 0 0 1 6.774 1.947 A 2.036 2.036 0 0 1 7.719 1.65 A 2.491 2.491 0 0 1 7.893 1.644 A 2.277 2.277 0 0 1 8.646 1.763 A 1.937 1.937 0 0 1 9.464 2.316 A 2.29 2.29 0 0 1 9.983 3.345 A 3.373 3.373 0 0 1 10.064 4.105 L 10.064 4.162 A 3.114 3.114 0 0 1 9.984 4.878 A 2.577 2.577 0 0 1 9.798 5.408 A 2.056 2.056 0 0 1 9.27 6.098 A 2.001 2.001 0 0 1 9.037 6.267 A 2.045 2.045 0 0 1 8.118 6.565 A 2.529 2.529 0 0 1 7.901 6.574 A 2.262 2.262 0 0 1 7.151 6.455 A 1.938 1.938 0 0 1 6.335 5.902 A 2.297 2.297 0 0 1 5.809 4.847 A 3.357 3.357 0 0 1 5.735 4.122 Z M 33.13 4.122 L 33.13 4.065 A 3.057 3.057 0 0 1 33.217 3.323 A 2.573 2.573 0 0 1 33.405 2.808 A 2.16 2.16 0 0 1 33.82 2.223 A 1.957 1.957 0 0 1 34.17 1.947 A 2.036 2.036 0 0 1 35.114 1.65 A 2.491 2.491 0 0 1 35.288 1.644 A 2.277 2.277 0 0 1 36.041 1.763 A 1.937 1.937 0 0 1 36.859 2.316 A 2.29 2.29 0 0 1 37.378 3.345 A 3.373 3.373 0 0 1 37.459 4.105 L 37.459 4.162 A 3.114 3.114 0 0 1 37.38 4.878 A 2.577 2.577 0 0 1 37.193 5.408 A 2.056 2.056 0 0 1 36.666 6.098 A 2.001 2.001 0 0 1 36.433 6.267 A 2.045 2.045 0 0 1 35.513 6.565 A 2.529 2.529 0 0 1 35.297 6.574 A 2.262 2.262 0 0 1 34.546 6.455 A 1.938 1.938 0 0 1 33.73 5.902 A 2.297 2.297 0 0 1 33.205 4.847 A 3.357 3.357 0 0 1 33.13 4.122 Z M 40.777 1.705 L 40.777 2.461 A 2.251 2.251 0 0 0 40.534 2.435 A 2.782 2.782 0 0 0 40.377 2.43 Q 39.599 2.43 39.308 3.075 A 1.445 1.445 0 0 0 39.292 3.111 L 39.292 6.486 L 38.479 6.486 L 38.479 1.732 L 39.27 1.732 L 39.283 2.281 Q 39.663 1.675 40.346 1.645 A 1.636 1.636 0 0 1 40.417 1.644 Q 40.654 1.644 40.777 1.705 Z M 6.552 4.162 A 2.772 2.772 0 0 0 6.6 4.69 Q 6.66 5.001 6.797 5.246 A 1.545 1.545 0 0 0 6.919 5.432 Q 7.286 5.911 7.901 5.911 A 1.269 1.269 0 0 0 8.391 5.819 Q 8.67 5.704 8.873 5.442 A 1.471 1.471 0 0 0 8.886 5.425 A 1.648 1.648 0 0 0 9.141 4.908 Q 9.209 4.681 9.235 4.409 A 3.655 3.655 0 0 0 9.251 4.065 A 2.687 2.687 0 0 0 9.199 3.525 Q 9.132 3.195 8.974 2.936 A 1.586 1.586 0 0 0 8.879 2.797 A 1.231 1.231 0 0 0 8.464 2.442 Q 8.211 2.312 7.893 2.312 Q 7.303 2.312 6.936 2.771 A 1.515 1.515 0 0 0 6.921 2.791 A 1.589 1.589 0 0 0 6.669 3.288 Q 6.6 3.509 6.572 3.775 A 3.676 3.676 0 0 0 6.552 4.162 Z M 33.948 4.162 A 2.772 2.772 0 0 0 33.995 4.69 Q 34.056 5.001 34.193 5.246 A 1.545 1.545 0 0 0 34.315 5.432 Q 34.682 5.911 35.297 5.911 A 1.269 1.269 0 0 0 35.786 5.819 Q 36.066 5.704 36.268 5.442 A 1.471 1.471 0 0 0 36.281 5.425 A 1.648 1.648 0 0 0 36.536 4.908 Q 36.605 4.681 36.631 4.409 A 3.655 3.655 0 0 0 36.646 4.065 A 2.687 2.687 0 0 0 36.595 3.525 Q 36.527 3.195 36.37 2.936 A 1.586 1.586 0 0 0 36.275 2.797 A 1.231 1.231 0 0 0 35.86 2.442 Q 35.607 2.312 35.288 2.312 Q 34.698 2.312 34.332 2.771 A 1.515 1.515 0 0 0 34.317 2.791 A 1.589 1.589 0 0 0 34.065 3.288 Q 33.995 3.509 33.967 3.775 A 3.676 3.676 0 0 0 33.948 4.162 Z M 21.648 3.674 L 24.029 3.674 L 24.029 3.612 Q 24.003 3.154 23.833 2.848 A 1.13 1.13 0 0 0 23.695 2.652 A 0.983 0.983 0 0 0 23.041 2.32 A 1.39 1.39 0 0 0 22.887 2.312 A 1.106 1.106 0 0 0 22.364 2.435 A 1.14 1.14 0 0 0 22.061 2.67 A 1.417 1.417 0 0 0 21.784 3.116 Q 21.71 3.3 21.67 3.522 A 2.741 2.741 0 0 0 21.648 3.674 Z" vector-effect="non-scaling-stroke"/></g>
</svg>