<?xml version="1.0" encoding="UTF-8"?>
<svg width="80px" height="80px" viewBox="0 0 80 80" version="1.1" xmlns="http://www.w3.org/2000/svg" xmlns:xlink="http://www.w3.org/1999/xlink">
    <title>Icon-Architecture/64/Arch_Amazon-Pinpoint_64</title>
    
    <g id="Icon-Architecture/64/Arch_Amazon-Pinpoint_64" stroke="none" stroke-width="1" fill="none" fill-rule="evenodd">
        
        <g id="Icon-Service/64/Amazon-Pinpoint" transform="translate(16, 8), scale(.65)" fill="#000000">
            <path d="M31.293,31.293 L35.473,27.114 C34.492,26.416 33.297,26 32.004,26 C28.697,26 26.007,28.69 26.007,31.997 C26.007,35.303 28.697,37.993 32.004,37.993 C35.311,37.993 38,35.303 38,31.997 C38,30.704 37.585,29.508 36.887,28.528 L32.707,32.707 L31.293,31.293 Z M42.569,22.845 L38.313,27.102 C39.366,28.456 40,30.152 40,31.997 C40,36.406 36.413,39.993 32.004,39.993 C27.595,39.993 24.007,36.406 24.007,31.997 C24.007,27.587 27.595,24 32.004,24 C33.849,24 35.544,24.634 36.898,25.688 L41.155,21.431 C38.699,19.3 35.504,18 32.004,18 C24.286,18 18.007,24.279 18.007,31.997 C18.007,39.714 24.286,45.993 32.004,45.993 C39.722,45.993 46,39.714 46,31.997 C46,28.497 44.7,25.301 42.569,22.845 L42.569,22.845 Z M45.03,15.515 C45.03,17.437 46.594,19 48.515,19 C50.437,19 52,17.437 52,15.515 C52,13.594 50.437,12.03 48.515,12.03 C46.594,12.03 45.03,13.594 45.03,15.515 L45.03,15.515 Z M42.568,20.017 L43.984,18.602 C43.383,17.722 43.03,16.659 43.03,15.515 C43.03,12.491 45.49,10.03 48.515,10.03 C51.539,10.03 54,12.491 54,15.515 C54,18.54 51.539,21 48.515,21 C47.355,21 46.281,20.636 45.395,20.02 L43.982,21.431 C46.475,24.253 48,27.946 48,31.997 C48,40.817 40.824,47.993 32.004,47.993 C23.183,47.993 16.007,40.817 16.007,31.997 C16.007,23.176 23.183,16 32.004,16 C36.055,16 39.747,17.526 42.568,20.017 L42.568,20.017 Z M56,32 C56,45.233 45.233,56 32,56 C18.767,56 8,45.233 8,32 C8,18.767 18.767,8 32,8 C35.361,8 38.614,8.684 41.669,10.032 L40.86,11.862 C38.063,10.626 35.081,10 32,10 C19.869,10 10,19.869 10,32 C10,44.131 19.869,54 32,54 C44.131,54 54,44.131 54,32 C54,28.91 53.378,25.944 52.149,23.186 L53.978,22.372 C55.319,25.389 56,28.628 56,32 L56,32 Z" id="Amazon-Pinpoint-Icon_64_Squid"></path>
        </g>
    </g><g transform="translate(23.9775, 64), scale(0.75)" id="svgGroup" stroke-linecap="round" fill-rule="evenodd" font-size="9pt" stroke="#000" stroke-width="0.25mm" fill="#000" style="stroke:#000;stroke-width:0.25mm;fill:#000"><path d="M 7.734 1.731 L 8.503 1.731 L 8.53 2.329 Q 9.066 1.654 9.926 1.644 A 2.234 2.234 0 0 1 9.954 1.644 A 1.905 1.905 0 0 1 10.587 1.74 Q 11.429 2.036 11.472 3.242 A 3.668 3.668 0 0 1 11.474 3.344 L 11.474 6.486 L 10.661 6.486 L 10.661 3.34 A 1.837 1.837 0 0 0 10.639 3.06 Q 10.589 2.753 10.426 2.58 Q 10.24 2.381 9.887 2.343 A 1.66 1.66 0 0 0 9.708 2.334 A 1.253 1.253 0 0 0 9.293 2.4 A 1.123 1.123 0 0 0 9.013 2.544 A 1.432 1.432 0 0 0 8.547 3.098 L 8.547 6.486 L 7.734 6.486 L 7.734 1.731 Z M 25.066 1.731 L 25.835 1.731 L 25.862 2.329 Q 26.398 1.654 27.258 1.644 A 2.234 2.234 0 0 1 27.286 1.644 A 1.905 1.905 0 0 1 27.919 1.74 Q 28.761 2.036 28.804 3.242 A 3.668 3.668 0 0 1 28.806 3.344 L 28.806 6.486 L 27.993 6.486 L 27.993 3.34 A 1.837 1.837 0 0 0 27.971 3.06 Q 27.921 2.753 27.758 2.58 Q 27.572 2.381 27.219 2.343 A 1.66 1.66 0 0 0 27.04 2.334 A 1.253 1.253 0 0 0 26.625 2.4 A 1.123 1.123 0 0 0 26.345 2.544 A 1.432 1.432 0 0 0 25.879 3.098 L 25.879 6.486 L 25.066 6.486 L 25.066 1.731 Z M 16.717 4.087 L 16.717 4.162 Q 16.717 5.247 16.22 5.911 A 1.57 1.57 0 0 1 15.082 6.564 A 2.013 2.013 0 0 1 14.875 6.574 A 2.196 2.196 0 0 1 14.289 6.5 A 1.598 1.598 0 0 1 13.513 6.025 L 13.513 8.314 L 12.7 8.314 L 12.7 1.731 L 13.443 1.731 L 13.482 2.259 A 1.619 1.619 0 0 1 14.622 1.656 A 2.319 2.319 0 0 1 14.862 1.644 A 1.829 1.829 0 0 1 15.499 1.75 A 1.597 1.597 0 0 1 16.218 2.29 Q 16.717 2.936 16.717 4.087 Z M 2.351 3.981 L 0.844 3.981 L 0.844 6.486 L 0 6.486 L 0 0.088 L 2.36 0.088 A 3.315 3.315 0 0 1 3.025 0.151 Q 3.427 0.233 3.738 0.424 A 1.839 1.839 0 0 1 4.006 0.624 A 1.772 1.772 0 0 1 4.593 1.841 A 2.45 2.45 0 0 1 4.601 2.043 Q 4.601 2.975 4.019 3.478 Q 3.54 3.892 2.721 3.966 A 4.14 4.14 0 0 1 2.351 3.981 Z M 30.322 0.58 L 31.135 0.58 L 31.135 1.731 L 32.023 1.731 L 32.023 2.36 L 31.135 2.36 L 31.135 5.309 Q 31.135 5.594 31.254 5.737 Q 31.373 5.88 31.658 5.88 A 1.046 1.046 0 0 0 31.756 5.875 Q 31.858 5.865 31.998 5.837 A 4.024 4.024 0 0 0 32.045 5.827 L 32.045 6.486 A 2.463 2.463 0 0 1 31.612 6.566 A 2.157 2.157 0 0 1 31.421 6.574 Q 30.974 6.574 30.707 6.352 A 0.856 0.856 0 0 1 30.599 6.245 Q 30.372 5.974 30.331 5.516 A 2.351 2.351 0 0 1 30.322 5.309 L 30.322 2.36 L 29.457 2.36 L 29.457 1.731 L 30.322 1.731 L 30.322 0.58 Z M 17.534 4.122 L 17.534 4.065 A 3.057 3.057 0 0 1 17.621 3.323 A 2.573 2.573 0 0 1 17.809 2.808 A 2.16 2.16 0 0 1 18.224 2.223 A 1.957 1.957 0 0 1 18.573 1.947 A 2.036 2.036 0 0 1 19.518 1.65 A 2.491 2.491 0 0 1 19.692 1.644 A 2.277 2.277 0 0 1 20.445 1.763 A 1.937 1.937 0 0 1 21.263 2.316 A 2.29 2.29 0 0 1 21.782 3.345 A 3.373 3.373 0 0 1 21.863 4.105 L 21.863 4.162 A 3.114 3.114 0 0 1 21.783 4.878 A 2.577 2.577 0 0 1 21.597 5.407 A 2.056 2.056 0 0 1 21.07 6.098 A 2.001 2.001 0 0 1 20.837 6.267 A 2.045 2.045 0 0 1 19.917 6.565 A 2.529 2.529 0 0 1 19.701 6.574 A 2.262 2.262 0 0 1 18.95 6.455 A 1.938 1.938 0 0 1 18.134 5.902 A 2.297 2.297 0 0 1 17.608 4.847 A 3.357 3.357 0 0 1 17.534 4.122 Z M 6.434 1.731 L 6.434 6.486 L 5.621 6.486 L 5.621 1.731 L 6.434 1.731 Z M 23.766 1.731 L 23.766 6.486 L 22.953 6.486 L 22.953 1.731 L 23.766 1.731 Z M 18.352 4.162 A 2.772 2.772 0 0 0 18.399 4.69 Q 18.459 5.001 18.597 5.246 A 1.545 1.545 0 0 0 18.719 5.432 Q 19.085 5.911 19.701 5.911 A 1.269 1.269 0 0 0 20.19 5.819 Q 20.469 5.704 20.672 5.442 A 1.471 1.471 0 0 0 20.685 5.425 A 1.648 1.648 0 0 0 20.94 4.908 Q 21.009 4.681 21.034 4.408 A 3.655 3.655 0 0 0 21.05 4.065 A 2.687 2.687 0 0 0 20.999 3.525 Q 20.931 3.195 20.774 2.936 A 1.586 1.586 0 0 0 20.678 2.797 A 1.231 1.231 0 0 0 20.263 2.442 Q 20.01 2.312 19.692 2.312 Q 19.102 2.312 18.736 2.771 A 1.515 1.515 0 0 0 18.721 2.791 A 1.589 1.589 0 0 0 18.469 3.288 Q 18.399 3.509 18.371 3.775 A 3.676 3.676 0 0 0 18.352 4.162 Z M 13.513 2.988 L 13.513 5.26 Q 13.878 5.911 14.629 5.911 A 1.184 1.184 0 0 0 15.095 5.822 Q 15.352 5.713 15.54 5.471 A 1.403 1.403 0 0 0 15.559 5.447 A 1.501 1.501 0 0 0 15.776 5.016 Q 15.844 4.809 15.876 4.555 A 3.91 3.91 0 0 0 15.904 4.069 Q 15.904 3.482 15.721 3.075 A 1.503 1.503 0 0 0 15.561 2.799 A 1.086 1.086 0 0 0 14.775 2.342 A 1.414 1.414 0 0 0 14.621 2.334 Q 13.96 2.334 13.595 2.858 A 1.623 1.623 0 0 0 13.513 2.988 Z M 0.844 0.782 L 0.844 3.292 L 2.36 3.292 A 2.313 2.313 0 0 0 2.752 3.26 Q 2.969 3.223 3.142 3.141 A 1.097 1.097 0 0 0 3.397 2.973 A 1.028 1.028 0 0 0 3.715 2.433 Q 3.756 2.265 3.757 2.065 A 1.996 1.996 0 0 0 3.757 2.052 A 1.466 1.466 0 0 0 3.703 1.645 A 1.112 1.112 0 0 0 3.397 1.138 Q 3.037 0.795 2.408 0.782 L 0.844 0.782 Z M 5.555 0.47 Q 5.555 0.272 5.676 0.136 Q 5.787 0.01 5.999 0.001 A 0.783 0.783 0 0 1 6.034 0 Q 6.271 0 6.394 0.136 A 0.474 0.474 0 0 1 6.516 0.44 A 0.614 0.614 0 0 1 6.517 0.47 A 0.523 0.523 0 0 1 6.492 0.636 A 0.442 0.442 0 0 1 6.394 0.8 Q 6.282 0.92 6.074 0.931 A 0.803 0.803 0 0 1 6.034 0.932 Q 5.861 0.932 5.75 0.862 A 0.362 0.362 0 0 1 5.676 0.8 A 0.456 0.456 0 0 1 5.557 0.525 A 0.605 0.605 0 0 1 5.555 0.47 Z M 22.887 0.47 Q 22.887 0.272 23.008 0.136 Q 23.119 0.01 23.331 0.001 A 0.783 0.783 0 0 1 23.366 0 Q 23.603 0 23.726 0.136 A 0.474 0.474 0 0 1 23.848 0.44 A 0.614 0.614 0 0 1 23.849 0.47 A 0.523 0.523 0 0 1 23.824 0.636 A 0.442 0.442 0 0 1 23.726 0.8 Q 23.614 0.92 23.406 0.931 A 0.803 0.803 0 0 1 23.366 0.932 Q 23.193 0.932 23.083 0.862 A 0.362 0.362 0 0 1 23.008 0.8 A 0.456 0.456 0 0 1 22.889 0.525 A 0.605 0.605 0 0 1 22.887 0.47 Z" vector-effect="non-scaling-stroke"/></g>
</svg>