<?xml version="1.0" encoding="UTF-8"?>    <svg version="1.1" xmlns="http://www.w3.org/2000/svg">       <g fill-rule="evenodd">            <path d="M14,66 L14,15.414 L39.293,40.707 C39.488,40.902 39.744,41 40,41 C40.256,41 40.512,40.902 40.707,40.707 L66,15.414 L66,66 L14,66 Z M64.586,14 L40,38.586 L15.414,14 L64.586,14 Z M67,12 L13,12 C12.447,12 12,12.448 12,13 L12,67 C12,67.552 12.447,68 13,68 L67,68 C67.553,68 68,67.552 68,67 L68,13 C68,12.448 67.553,12 67,12 L67,12 Z" id="Amazon-WorkMail_Icon_64_Squid" fill="#000000"/>        </g>    </svg>