<?xml version="1.0" encoding="UTF-8"?>
<svg width="48px" height="48px" viewBox="0 0 48 48" version="1.1" xmlns="http://www.w3.org/2000/svg" xmlns:xlink="http://www.w3.org/1999/xlink">
    <title>Icon-Resource/Compute/Res_Amazon-EC2_Auto-Scaling_48_Dark</title>
    <g id="Icon-Resource/Compute/Res_Amazon-EC2_Auto-Scaling_48" stroke="none" stroke-width="1" fill="none" fill-rule="evenodd">
        <path transform="translate(12.000000, 8.000000), scale(.65)" d="M45.92,23.08125 L37.912,23.08125 L41.734,19.25825 L40.32,17.84425 L34.731,23.43525 C34.34,23.82525 34.34,24.45825 34.731,24.84925 L40.32,30.43825 L41.734,29.02425 L37.791,25.08125 L45.92,25.08125 L45.92,23.08125 Z M7.597,17.84425 L6.183,19.25825 L10.006,23.08125 L2,23.08125 L2,25.08125 L10.126,25.08125 L6.183,29.02425 L7.597,30.43825 L13.187,24.84925 C13.577,24.45825 13.577,23.82525 13.187,23.43525 L7.597,17.84425 Z M18.81,29.23125 L29.108,29.23125 L29.108,18.93225 L18.81,18.93225 L18.81,29.23125 Z M30.892,17.81025 L32.743,17.81025 L32.743,19.81025 L31.108,19.81025 L31.108,21.32425 L32.743,21.32425 L32.743,23.32425 L31.108,23.32425 L31.108,24.83825 L32.743,24.83825 L32.743,26.83825 L31.108,26.83825 L31.108,28.35225 L32.743,28.35225 L32.743,30.35225 L30.892,30.35225 C30.737,30.63125 30.509,30.85925 30.23,31.01425 L30.23,32.86525 L28.23,32.86525 L28.23,31.23025 L26.717,31.23025 L26.717,32.86525 L24.717,32.86525 L24.717,31.23025 L23.203,31.23025 L23.203,32.86525 L21.203,32.86525 L21.203,31.23025 L19.69,31.23025 L19.69,32.86525 L17.69,32.86525 L17.69,31.01425 C17.411,30.85925 17.183,30.63125 17.028,30.35225 L15.176,30.35225 L15.176,28.35225 L16.811,28.35225 L16.811,26.83825 L15.176,26.83825 L15.176,24.83825 L16.811,24.83825 L16.811,23.32425 L15.176,23.32425 L15.176,21.32425 L16.811,21.32425 L16.811,19.81025 L15.176,19.81025 L15.176,17.81025 L17.028,17.81025 C17.183,17.53125 17.411,17.30325 17.69,17.14825 L17.69,15.29825 L19.69,15.29825 L19.69,16.93225 L21.203,16.93225 L21.203,15.29825 L23.203,15.29825 L23.203,16.93225 L24.717,16.93225 L24.717,15.29825 L26.717,15.29825 L26.717,16.93225 L28.23,16.93225 L28.23,15.29825 L30.23,15.29825 L30.23,17.14825 C30.509,17.30325 30.737,17.53125 30.892,17.81025 L30.892,17.81025 Z M24.961,42.74725 L24.961,34.62225 L22.961,34.62225 L22.961,42.75125 L19.075,38.86625 L17.661,40.28025 L23.251,45.87025 C23.446,46.06525 23.702,46.16325 23.958,46.16325 C24.214,46.16325 24.47,46.06525 24.665,45.87025 L30.256,40.28025 L28.842,38.86625 L24.961,42.74725 Z M19.075,9.29725 L17.661,7.88325 L23.251,2.29325 C23.642,1.90225 24.274,1.90225 24.665,2.29325 L30.256,7.88325 L28.842,9.29725 L24.961,5.41625 L24.961,13.54125 L22.961,13.54125 L22.961,5.41225 L19.075,9.29725 Z" id="Amazon-EC2-Auto-Scaling_Resource-Icon_light-bg" fill="#000000"></path>
    </g><g transform="translate(25, 83)" id="svgGroup" stroke-linecap="round" fill-rule="evenodd" font-size="9pt" stroke="#000" stroke-width="0.25mm" fill="#000" style="stroke:#000;stroke-width:0.25mm;fill:#000"><path d="M 3.617 2.839 L 3.617 3.529 L 0.844 3.529 L 0.844 5.796 L 4.065 5.796 L 4.065 6.486 L 0 6.486 L 0 0.088 L 4.021 0.088 L 4.021 0.782 L 0.844 0.782 L 0.844 2.839 L 3.617 2.839 Z M 8.974 4.456 L 9.822 4.456 A 3.016 3.016 0 0 1 9.661 5.152 A 2.099 2.099 0 0 1 9.073 6.023 Q 8.442 6.574 7.396 6.574 A 2.553 2.553 0 0 1 6.527 6.432 A 2.194 2.194 0 0 1 5.579 5.761 A 2.789 2.789 0 0 1 5.017 4.638 Q 4.911 4.22 4.897 3.728 A 5.262 5.262 0 0 1 4.896 3.586 L 4.896 2.971 A 4.251 4.251 0 0 1 4.966 2.182 A 3.229 3.229 0 0 1 5.214 1.402 A 2.539 2.539 0 0 1 5.67 0.726 A 2.26 2.26 0 0 1 6.117 0.363 A 2.415 2.415 0 0 1 7.143 0.017 A 3.027 3.027 0 0 1 7.471 0 A 2.962 2.962 0 0 1 8.177 0.08 A 2.065 2.065 0 0 1 9.105 0.569 A 2.16 2.16 0 0 1 9.7 1.531 A 3.086 3.086 0 0 1 9.822 2.145 L 8.974 2.145 Q 8.905 1.666 8.735 1.352 A 1.223 1.223 0 0 0 8.497 1.037 A 1.207 1.207 0 0 0 7.992 0.76 Q 7.804 0.707 7.581 0.697 A 2.396 2.396 0 0 0 7.471 0.694 A 1.753 1.753 0 0 0 6.892 0.786 A 1.463 1.463 0 0 0 6.203 1.292 A 1.989 1.989 0 0 0 5.889 1.912 Q 5.744 2.372 5.744 2.993 L 5.744 3.612 Q 5.744 4.654 6.179 5.269 A 1.38 1.38 0 0 0 7.177 5.872 A 1.814 1.814 0 0 0 7.396 5.884 A 2.497 2.497 0 0 0 7.803 5.853 Q 8.023 5.817 8.199 5.738 A 1.155 1.155 0 0 0 8.475 5.566 Q 8.851 5.247 8.974 4.456 Z M 14.955 5.823 L 14.955 6.486 L 10.762 6.486 L 10.762 5.902 L 12.977 3.441 A 9.853 9.853 0 0 0 13.23 3.144 Q 13.468 2.851 13.601 2.63 A 2.159 2.159 0 0 0 13.656 2.534 Q 13.843 2.184 13.843 1.811 A 1.354 1.354 0 0 0 13.791 1.427 A 1.067 1.067 0 0 0 13.54 0.989 Q 13.236 0.668 12.731 0.668 A 1.71 1.71 0 0 0 12.346 0.709 Q 12.009 0.787 11.788 1.013 Q 11.469 1.341 11.453 1.914 A 2.18 2.18 0 0 0 11.452 1.973 L 10.639 1.973 Q 10.639 1.09 11.208 0.545 A 1.914 1.914 0 0 1 12.166 0.055 A 2.782 2.782 0 0 1 12.731 0 A 2.749 2.749 0 0 1 13.312 0.058 Q 13.69 0.14 13.975 0.337 A 1.626 1.626 0 0 1 14.142 0.468 A 1.546 1.546 0 0 1 14.65 1.501 A 2.151 2.151 0 0 1 14.66 1.714 A 1.917 1.917 0 0 1 14.519 2.402 Q 14.298 2.978 13.725 3.659 A 8.818 8.818 0 0 1 13.456 3.964 L 11.742 5.823 L 14.955 5.823 Z M 26.903 6.486 L 26.886 6.016 A 1.526 1.526 0 0 1 26.06 6.511 Q 25.809 6.572 25.512 6.574 A 2.996 2.996 0 0 1 25.493 6.574 A 2.086 2.086 0 0 1 25.033 6.527 Q 24.602 6.429 24.335 6.133 A 1.41 1.41 0 0 1 24.052 5.635 Q 23.935 5.292 23.933 4.825 L 23.933 1.732 L 24.746 1.732 L 24.746 4.803 Q 24.746 5.773 25.453 5.873 A 1.229 1.229 0 0 0 25.625 5.884 A 1.927 1.927 0 0 0 26.075 5.835 Q 26.638 5.7 26.864 5.19 L 26.864 1.732 L 27.677 1.732 L 27.677 6.486 L 26.903 6.486 Z M 22.399 6.486 L 21.788 4.817 L 19.107 4.817 L 18.505 6.486 L 17.635 6.486 L 20.079 0.088 L 20.817 0.088 L 23.265 6.486 L 22.399 6.486 Z M 29.202 0.58 L 30.015 0.58 L 30.015 1.732 L 30.902 1.732 L 30.902 2.36 L 30.015 2.36 L 30.015 5.309 Q 30.015 5.594 30.133 5.737 Q 30.252 5.88 30.538 5.88 A 1.046 1.046 0 0 0 30.635 5.875 Q 30.738 5.865 30.878 5.837 A 4.024 4.024 0 0 0 30.924 5.827 L 30.924 6.486 A 2.463 2.463 0 0 1 30.492 6.566 A 2.157 2.157 0 0 1 30.3 6.574 Q 29.853 6.574 29.587 6.352 A 0.856 0.856 0 0 1 29.479 6.245 Q 29.251 5.974 29.21 5.516 A 2.351 2.351 0 0 1 29.202 5.309 L 29.202 2.36 L 28.336 2.36 L 28.336 1.732 L 29.202 1.732 L 29.202 0.58 Z M 31.548 4.122 L 31.548 4.065 A 3.057 3.057 0 0 1 31.635 3.323 A 2.573 2.573 0 0 1 31.823 2.808 A 2.16 2.16 0 0 1 32.238 2.223 A 1.957 1.957 0 0 1 32.588 1.947 A 2.036 2.036 0 0 1 33.532 1.65 A 2.491 2.491 0 0 1 33.706 1.644 A 2.277 2.277 0 0 1 34.459 1.763 A 1.937 1.937 0 0 1 35.277 2.316 A 2.29 2.29 0 0 1 35.796 3.345 A 3.373 3.373 0 0 1 35.877 4.105 L 35.877 4.162 A 3.114 3.114 0 0 1 35.797 4.878 A 2.577 2.577 0 0 1 35.611 5.408 A 2.056 2.056 0 0 1 35.084 6.098 A 2.001 2.001 0 0 1 34.851 6.267 A 2.045 2.045 0 0 1 33.931 6.565 A 2.529 2.529 0 0 1 33.715 6.574 A 2.262 2.262 0 0 1 32.964 6.455 A 1.938 1.938 0 0 1 32.148 5.902 A 2.297 2.297 0 0 1 31.622 4.847 A 3.357 3.357 0 0 1 31.548 4.122 Z M 32.366 4.162 A 2.772 2.772 0 0 0 32.413 4.69 Q 32.473 5.001 32.611 5.246 A 1.545 1.545 0 0 0 32.733 5.432 Q 33.1 5.911 33.715 5.911 A 1.269 1.269 0 0 0 34.204 5.819 Q 34.484 5.704 34.686 5.442 A 1.471 1.471 0 0 0 34.699 5.425 A 1.648 1.648 0 0 0 34.954 4.908 Q 35.023 4.681 35.049 4.409 A 3.655 3.655 0 0 0 35.064 4.065 A 2.687 2.687 0 0 0 35.013 3.525 Q 34.945 3.195 34.788 2.936 A 1.586 1.586 0 0 0 34.693 2.797 A 1.231 1.231 0 0 0 34.278 2.442 Q 34.024 2.312 33.706 2.312 Q 33.116 2.312 32.75 2.771 A 1.515 1.515 0 0 0 32.735 2.791 A 1.589 1.589 0 0 0 32.483 3.288 Q 32.413 3.509 32.385 3.775 A 3.676 3.676 0 0 0 32.366 4.162 Z M 20.448 1.129 L 19.362 4.122 L 21.538 4.122 L 20.448 1.129 Z" vector-effect="non-scaling-stroke"/></g><g transform="translate(25, 93)" id="svgGroup" stroke-linecap="round" fill-rule="evenodd" font-size="9pt" stroke="#000" stroke-width="0.25mm" fill="#000" style="stroke:#000;stroke-width:0.25mm;fill:#000"><path d="M 4.636 2.202 L 3.788 2.202 A 1.466 1.466 0 0 0 3.738 1.809 A 1.066 1.066 0 0 0 3.419 1.29 A 1.211 1.211 0 0 0 2.95 1.033 Q 2.698 0.958 2.378 0.958 A 2.286 2.286 0 0 0 1.998 0.988 Q 1.796 1.022 1.633 1.095 A 1.101 1.101 0 0 0 1.404 1.233 A 0.892 0.892 0 0 0 1.059 1.887 A 1.267 1.267 0 0 0 1.055 1.995 A 0.806 0.806 0 0 0 1.323 2.6 A 1.134 1.134 0 0 0 1.387 2.656 A 1.562 1.562 0 0 0 1.625 2.813 Q 1.955 2.993 2.516 3.151 A 8.228 8.228 0 0 1 2.981 3.295 Q 3.216 3.377 3.41 3.464 A 3.297 3.297 0 0 1 3.764 3.645 A 2.342 2.342 0 0 1 4.103 3.889 Q 4.293 4.056 4.415 4.248 A 1.45 1.45 0 0 1 4.432 4.276 A 1.498 1.498 0 0 1 4.628 4.832 A 1.948 1.948 0 0 1 4.65 5.124 A 1.606 1.606 0 0 1 4.527 5.76 Q 4.382 6.101 4.064 6.354 A 1.886 1.886 0 0 1 4.043 6.37 Q 3.437 6.838 2.422 6.838 A 3.023 3.023 0 0 1 1.281 6.623 A 2.917 2.917 0 0 1 1.191 6.585 A 2.383 2.383 0 0 1 0.713 6.307 A 1.874 1.874 0 0 1 0.31 5.893 A 1.689 1.689 0 0 1 0 4.896 L 0.848 4.896 A 1.261 1.261 0 0 0 0.918 5.323 A 1.074 1.074 0 0 0 1.277 5.812 Q 1.661 6.113 2.278 6.144 A 2.87 2.87 0 0 0 2.422 6.148 A 2.628 2.628 0 0 0 2.809 6.121 Q 3.005 6.092 3.164 6.031 A 1.129 1.129 0 0 0 3.445 5.875 Q 3.801 5.603 3.801 5.133 A 1.074 1.074 0 0 0 3.759 4.822 A 0.816 0.816 0 0 0 3.472 4.406 Q 3.142 4.148 2.277 3.898 Q 1.191 3.586 0.697 3.131 Q 0.202 2.676 0.202 2.008 Q 0.202 1.252 0.807 0.758 A 2.121 2.121 0 0 1 1.697 0.335 A 3.087 3.087 0 0 1 2.378 0.264 A 2.913 2.913 0 0 1 3.038 0.336 A 2.372 2.372 0 0 1 3.553 0.519 A 2.051 2.051 0 0 1 4.084 0.889 A 1.834 1.834 0 0 1 4.353 1.222 A 1.798 1.798 0 0 1 4.636 2.202 Z M 60.983 6.75 L 59.326 4.548 L 58.817 5.08 L 58.817 6.75 L 58.004 6.75 L 58.004 0 L 58.817 0 L 58.817 4.083 L 59.252 3.56 L 60.733 1.995 L 61.721 1.995 L 59.871 3.981 L 61.937 6.75 L 60.983 6.75 Z M 27.585 2.522 L 27.624 1.995 L 28.367 1.995 L 28.367 6.636 A 2.511 2.511 0 0 1 28.296 7.249 A 1.738 1.738 0 0 1 27.82 8.09 A 1.834 1.834 0 0 1 26.89 8.57 A 2.671 2.671 0 0 1 26.35 8.622 A 2.446 2.446 0 0 1 25.343 8.402 A 2.003 2.003 0 0 1 24.933 8.161 A 1.563 1.563 0 0 1 24.592 7.8 L 25.014 7.313 A 1.889 1.889 0 0 0 25.448 7.712 A 1.514 1.514 0 0 0 26.293 7.958 A 1.695 1.695 0 0 0 26.67 7.919 Q 26.938 7.858 27.132 7.702 A 1.037 1.037 0 0 0 27.218 7.625 A 1.09 1.09 0 0 0 27.495 7.132 Q 27.542 6.959 27.548 6.752 A 2.134 2.134 0 0 0 27.549 6.684 L 27.549 6.275 A 1.601 1.601 0 0 1 26.497 6.821 A 2.279 2.279 0 0 1 26.218 6.838 A 1.672 1.672 0 0 1 25.463 6.67 Q 25.141 6.51 24.891 6.197 A 2.14 2.14 0 0 1 24.867 6.166 A 2.316 2.316 0 0 1 24.483 5.386 Q 24.35 4.922 24.35 4.333 Q 24.35 3.472 24.659 2.884 A 2.096 2.096 0 0 1 24.864 2.564 Q 25.379 1.907 26.227 1.907 A 1.971 1.971 0 0 1 26.826 1.994 A 1.55 1.55 0 0 1 27.585 2.522 Z M 19.578 1.995 L 20.347 1.995 L 20.373 2.593 Q 20.91 1.918 21.769 1.907 A 2.234 2.234 0 0 1 21.797 1.907 A 1.905 1.905 0 0 1 22.431 2.004 Q 23.272 2.3 23.315 3.506 A 3.668 3.668 0 0 1 23.318 3.608 L 23.318 6.75 L 22.505 6.75 L 22.505 3.604 A 1.837 1.837 0 0 0 22.482 3.324 Q 22.432 3.017 22.269 2.843 Q 22.083 2.645 21.73 2.606 A 1.66 1.66 0 0 0 21.551 2.597 A 1.253 1.253 0 0 0 21.137 2.664 A 1.123 1.123 0 0 0 20.857 2.808 A 1.432 1.432 0 0 0 20.391 3.362 L 20.391 6.75 L 19.578 6.75 L 19.578 1.995 Z M 8.631 5.251 L 9.4 5.251 A 1.432 1.432 0 0 1 9.201 5.901 A 1.772 1.772 0 0 1 9.119 6.029 A 1.828 1.828 0 0 1 8.51 6.574 A 2.169 2.169 0 0 1 8.427 6.618 A 1.997 1.997 0 0 1 7.51 6.838 A 2.346 2.346 0 0 1 6.813 6.739 A 1.839 1.839 0 0 1 5.966 6.19 A 2.171 2.171 0 0 1 5.502 5.31 Q 5.392 4.909 5.392 4.417 L 5.392 4.28 A 3.24 3.24 0 0 1 5.456 3.624 A 2.57 2.57 0 0 1 5.647 3.045 A 2.008 2.008 0 0 1 6.087 2.431 A 1.892 1.892 0 0 1 6.379 2.206 A 1.943 1.943 0 0 1 7.135 1.934 A 2.529 2.529 0 0 1 7.506 1.907 A 2.196 2.196 0 0 1 8.154 1.999 A 1.786 1.786 0 0 1 8.835 2.386 A 1.693 1.693 0 0 1 9.394 3.535 A 2.239 2.239 0 0 1 9.4 3.63 L 8.631 3.63 Q 8.596 3.168 8.282 2.872 A 1.078 1.078 0 0 0 7.552 2.576 A 1.402 1.402 0 0 0 7.506 2.575 A 1.374 1.374 0 0 0 7.085 2.637 A 1.081 1.081 0 0 0 6.546 3.021 A 1.469 1.469 0 0 0 6.319 3.468 Q 6.253 3.674 6.225 3.923 A 3.514 3.514 0 0 0 6.205 4.311 L 6.205 4.465 Q 6.205 5.287 6.544 5.73 A 1.1 1.1 0 0 0 7.33 6.165 A 1.611 1.611 0 0 0 7.51 6.174 A 1.171 1.171 0 0 0 8.271 5.911 A 1.007 1.007 0 0 0 8.515 5.629 A 0.914 0.914 0 0 0 8.631 5.251 Z M 14.102 6.75 L 13.25 6.75 A 0.632 0.632 0 0 1 13.214 6.66 Q 13.183 6.562 13.158 6.41 A 3.997 3.997 0 0 1 13.135 6.249 Q 12.569 6.838 11.782 6.838 A 2.033 2.033 0 0 1 11.253 6.772 A 1.529 1.529 0 0 1 10.628 6.44 Q 10.178 6.042 10.178 5.432 Q 10.178 4.689 10.743 4.278 Q 11.307 3.867 12.331 3.867 L 13.122 3.867 L 13.122 3.494 A 1.152 1.152 0 0 0 13.086 3.199 A 0.828 0.828 0 0 0 12.867 2.815 Q 12.651 2.6 12.261 2.568 A 1.748 1.748 0 0 0 12.116 2.562 Q 11.681 2.562 11.386 2.782 Q 11.092 3.001 11.092 3.313 L 10.275 3.313 A 1.041 1.041 0 0 1 10.399 2.825 A 1.409 1.409 0 0 1 10.527 2.626 Q 10.78 2.294 11.213 2.101 A 2.249 2.249 0 0 1 11.988 1.913 A 2.669 2.669 0 0 1 12.164 1.907 A 2.65 2.65 0 0 1 12.682 1.955 Q 12.989 2.016 13.228 2.156 A 1.439 1.439 0 0 1 13.452 2.318 A 1.396 1.396 0 0 1 13.905 3.144 A 1.998 1.998 0 0 1 13.935 3.45 L 13.935 5.638 Q 13.935 6.073 14.009 6.39 A 1.707 1.707 0 0 0 14.102 6.68 L 14.102 6.75 Z M 53.846 6.75 L 52.994 6.75 A 0.632 0.632 0 0 1 52.958 6.66 Q 52.927 6.562 52.902 6.41 A 3.997 3.997 0 0 1 52.88 6.249 Q 52.313 6.838 51.526 6.838 A 2.033 2.033 0 0 1 50.997 6.772 A 1.529 1.529 0 0 1 50.372 6.44 Q 49.922 6.042 49.922 5.432 Q 49.922 4.689 50.487 4.278 Q 51.051 3.867 52.075 3.867 L 52.866 3.867 L 52.866 3.494 A 1.152 1.152 0 0 0 52.831 3.199 A 0.828 0.828 0 0 0 52.611 2.815 Q 52.395 2.6 52.005 2.568 A 1.748 1.748 0 0 0 51.86 2.562 Q 51.425 2.562 51.131 2.782 Q 50.836 3.001 50.836 3.313 L 50.019 3.313 A 1.041 1.041 0 0 1 50.144 2.825 A 1.409 1.409 0 0 1 50.271 2.626 Q 50.524 2.294 50.957 2.101 A 2.249 2.249 0 0 1 51.733 1.913 A 2.669 2.669 0 0 1 51.908 1.907 A 2.65 2.65 0 0 1 52.426 1.955 Q 52.733 2.016 52.972 2.156 A 1.439 1.439 0 0 1 53.196 2.318 A 1.396 1.396 0 0 1 53.649 3.144 A 1.998 1.998 0 0 1 53.679 3.45 L 53.679 5.638 Q 53.679 6.073 53.753 6.39 A 1.707 1.707 0 0 0 53.846 6.68 L 53.846 6.75 Z M 35.17 0.352 L 35.17 4.601 L 36.057 4.601 L 36.057 5.265 L 35.17 5.265 L 35.17 6.75 L 34.352 6.75 L 34.352 5.265 L 31.439 5.265 L 31.439 4.786 L 34.304 0.352 L 35.17 0.352 Z M 46.055 6.75 L 44.284 6.75 L 44.284 0.352 L 46.09 0.352 Q 46.925 0.352 47.567 0.721 Q 48.208 1.09 48.558 1.771 A 3.19 3.19 0 0 1 48.874 2.8 A 4.073 4.073 0 0 1 48.911 3.335 L 48.911 3.744 Q 48.911 4.649 48.562 5.331 A 2.457 2.457 0 0 1 47.564 6.376 Q 46.916 6.741 46.055 6.75 Z M 40.568 2.592 A 1.544 1.544 0 0 0 40.672 2.021 A 2.226 2.226 0 0 0 40.65 1.707 A 1.566 1.566 0 0 0 40.151 0.738 A 1.754 1.754 0 0 0 39.385 0.333 A 2.443 2.443 0 0 0 38.786 0.264 A 2.539 2.539 0 0 0 38.277 0.312 A 1.767 1.767 0 0 0 37.42 0.738 Q 36.901 1.213 36.901 2.021 A 1.808 1.808 0 0 0 36.901 2.058 A 1.499 1.499 0 0 0 37.147 2.87 A 1.626 1.626 0 0 0 37.309 3.077 A 1.726 1.726 0 0 0 37.819 3.454 A 2.119 2.119 0 0 0 37.72 3.5 A 1.738 1.738 0 0 0 37.035 4.087 A 1.629 1.629 0 0 0 36.752 5.023 A 2.272 2.272 0 0 0 36.761 5.237 A 1.63 1.63 0 0 0 37.308 6.344 A 1.895 1.895 0 0 0 38.158 6.771 A 2.797 2.797 0 0 0 38.786 6.838 A 2.796 2.796 0 0 0 39.385 6.777 A 1.925 1.925 0 0 0 40.261 6.346 A 1.578 1.578 0 0 0 40.735 5.62 A 1.989 1.989 0 0 0 40.821 5.023 A 1.581 1.581 0 0 0 40.529 4.087 Q 40.236 3.674 39.735 3.458 Q 40.166 3.248 40.419 2.874 A 1.449 1.449 0 0 0 40.568 2.592 Z M 16.093 0 L 16.093 6.75 L 15.28 6.75 L 15.28 0 L 16.093 0 Z M 57.252 1.969 L 57.252 2.725 A 2.251 2.251 0 0 0 57.009 2.698 A 2.782 2.782 0 0 0 56.852 2.694 Q 56.074 2.694 55.783 3.338 A 1.445 1.445 0 0 0 55.767 3.375 L 55.767 6.75 L 54.954 6.75 L 54.954 1.995 L 55.745 1.995 L 55.758 2.544 Q 56.138 1.938 56.821 1.909 A 1.636 1.636 0 0 1 56.892 1.907 Q 57.129 1.907 57.252 1.969 Z M 46.112 1.046 L 45.128 1.046 L 45.128 6.06 L 46.015 6.06 A 2.519 2.519 0 0 0 46.648 5.985 A 1.747 1.747 0 0 0 47.534 5.454 Q 47.993 4.94 48.063 4.059 A 4.165 4.165 0 0 0 48.076 3.727 L 48.076 3.353 Q 48.076 2.562 47.807 2.027 A 1.864 1.864 0 0 0 47.564 1.659 A 1.687 1.687 0 0 0 46.568 1.09 A 2.499 2.499 0 0 0 46.112 1.046 Z M 18.277 1.995 L 18.277 6.75 L 17.464 6.75 L 17.464 1.995 L 18.277 1.995 Z M 27.549 5.449 L 27.549 3.278 A 1.439 1.439 0 0 0 27.249 2.891 Q 26.945 2.62 26.504 2.599 A 1.578 1.578 0 0 0 26.429 2.597 Q 25.837 2.597 25.503 3.056 A 1.51 1.51 0 0 0 25.292 3.484 Q 25.227 3.689 25.196 3.939 A 3.955 3.955 0 0 0 25.168 4.425 Q 25.168 5.229 25.497 5.689 Q 25.827 6.148 26.42 6.148 A 1.32 1.32 0 0 0 26.93 6.054 Q 27.321 5.891 27.549 5.449 Z M 34.256 1.639 L 32.361 4.601 L 34.352 4.601 L 34.352 1.463 L 34.256 1.639 Z M 40.008 5.005 A 1.375 1.375 0 0 0 39.948 4.592 A 1.109 1.109 0 0 0 39.667 4.131 A 1.148 1.148 0 0 0 38.996 3.807 A 1.593 1.593 0 0 0 38.777 3.792 A 1.466 1.466 0 0 0 38.389 3.841 A 1.086 1.086 0 0 0 37.896 4.126 A 1.123 1.123 0 0 0 37.583 4.762 A 1.572 1.572 0 0 0 37.565 5.005 A 1.48 1.48 0 0 0 37.606 5.367 A 1.019 1.019 0 0 0 37.888 5.862 Q 38.194 6.158 38.727 6.173 A 2.053 2.053 0 0 0 38.786 6.174 Q 39.28 6.174 39.59 5.94 A 1.018 1.018 0 0 0 39.683 5.86 A 1.041 1.041 0 0 0 39.982 5.292 A 1.518 1.518 0 0 0 40.008 5.005 Z M 38.786 0.932 A 1.259 1.259 0 0 0 38.434 0.979 A 0.973 0.973 0 0 0 38.011 1.228 Q 37.714 1.525 37.714 2.035 A 1.325 1.325 0 0 0 37.759 2.387 A 0.994 0.994 0 0 0 38.006 2.823 A 0.974 0.974 0 0 0 38.568 3.108 A 1.382 1.382 0 0 0 38.786 3.125 A 1.279 1.279 0 0 0 39.131 3.08 A 0.952 0.952 0 0 0 39.566 2.823 A 1.018 1.018 0 0 0 39.841 2.26 A 1.426 1.426 0 0 0 39.859 2.035 A 1.282 1.282 0 0 0 39.809 1.668 A 1.013 1.013 0 0 0 39.555 1.239 Q 39.252 0.932 38.786 0.932 Z M 13.122 5.418 L 13.122 4.443 L 12.485 4.443 Q 10.991 4.443 10.991 5.317 Q 10.991 5.7 11.246 5.915 A 0.893 0.893 0 0 0 11.659 6.108 A 1.259 1.259 0 0 0 11.901 6.13 A 1.429 1.429 0 0 0 12.626 5.933 A 1.335 1.335 0 0 0 12.921 5.705 A 1.108 1.108 0 0 0 13.122 5.418 Z M 52.866 5.418 L 52.866 4.443 L 52.229 4.443 Q 50.735 4.443 50.735 5.317 Q 50.735 5.7 50.99 5.915 A 0.893 0.893 0 0 0 51.403 6.108 A 1.259 1.259 0 0 0 51.645 6.13 A 1.429 1.429 0 0 0 52.37 5.933 A 1.335 1.335 0 0 0 52.665 5.705 A 1.108 1.108 0 0 0 52.866 5.418 Z M 17.398 0.734 Q 17.398 0.536 17.519 0.4 Q 17.631 0.274 17.843 0.264 A 0.783 0.783 0 0 1 17.877 0.264 Q 18.114 0.264 18.237 0.4 A 0.474 0.474 0 0 1 18.36 0.703 A 0.614 0.614 0 0 1 18.36 0.734 A 0.523 0.523 0 0 1 18.335 0.9 A 0.442 0.442 0 0 1 18.237 1.063 Q 18.125 1.184 17.917 1.194 A 0.803 0.803 0 0 1 17.877 1.195 Q 17.705 1.195 17.594 1.126 A 0.362 0.362 0 0 1 17.519 1.063 A 0.456 0.456 0 0 1 17.4 0.788 A 0.605 0.605 0 0 1 17.398 0.734 Z" vector-effect="non-scaling-stroke"/></g>
</svgversion="1.0" encoding="UTF-8"?>
<svg width="48px" height="48px" viewBox="0 0 48 48" version="1.1" xmlns="http://www.w3.org/2000/svg" xmlns:xlink="http://www.w3.org/1999/xlink">
    <title>Icon-Resource/Compute/Res_Amazon-EC2_Auto-Scaling_48_Dark</title>
    <g id="Icon-Resource/Compute/Res_Amazon-EC2_Auto-Scaling_48" stroke="none" stroke-width="1" fill="none" fill-rule="evenodd">
        <path transform="translate(12.000000, 8.000000), scale(.65)" d="M45.92,23.08125 L37.912,23.08125 L41.734,19.25825 L40.32,17.84425 L34.731,23.43525 C34.34,23.82525 34.34,24.45825 34.731,24.84925 L40.32,30.43825 L41.734,29.02425 L37.791,25.08125 L45.92,25.08125 L45.92,23.08125 Z M7.597,17.84425 L6.183,19.25825 L10.006,23.08125 L2,23.08125 L2,25.08125 L10.126,25.08125 L6.183,29.02425 L7.597,30.43825 L13.187,24.84925 C13.577,24.45825 13.577,23.82525 13.187,23.43525 L7.597,17.84425 Z M18.81,29.23125 L29.108,29.23125 L29.108,18.93225 L18.81,18.93225 L18.81,29.23125 Z M30.892,17.81025 L32.743,17.81025 L32.743,19.81025 L31.108,19.81025 L31.108,21.32425 L32.743,21.32425 L32.743,23.32425 L31.108,23.32425 L31.108,24.83825 L32.743,24.83825 L32.743,26.83825 L31.108,26.83825 L31.108,28.35225 L32.743,28.35225 L32.743,30.35225 L30.892,30.35225 C30.737,30.63125 30.509,30.85925 30.23,31.01425 L30.23,32.86525 L28.23,32.86525 L28.23,31.23025 L26.717,31.23025 L26.717,32.86525 L24.717,32.86525 L24.717,31.23025 L23.203,31.23025 L23.203,32.86525 L21.203,32.86525 L21.203,31.23025 L19.69,31.23025 L19.69,32.86525 L17.69,32.86525 L17.69,31.01425 C17.411,30.85925 17.183,30.63125 17.028,30.35225 L15.176,30.35225 L15.176,28.35225 L16.811,28.35225 L16.811,26.83825 L15.176,26.83825 L15.176,24.83825 L16.811,24.83825 L16.811,23.32425 L15.176,23.32425 L15.176,21.32425 L16.811,21.32425 L16.811,19.81025 L15.176,19.81025 L15.176,17.81025 L17.028,17.81025 C17.183,17.53125 17.411,17.30325 17.69,17.14825 L17.69,15.29825 L19.69,15.29825 L19.69,16.93225 L21.203,16.93225 L21.203,15.29825 L23.203,15.29825 L23.203,16.93225 L24.717,16.93225 L24.717,15.29825 L26.717,15.29825 L26.717,16.93225 L28.23,16.93225 L28.23,15.29825 L30.23,15.29825 L30.23,17.14825 C30.509,17.30325 30.737,17.53125 30.892,17.81025 L30.892,17.81025 Z M24.961,42.74725 L24.961,34.62225 L22.961,34.62225 L22.961,42.75125 L19.075,38.86625 L17.661,40.28025 L23.251,45.87025 C23.446,46.06525 23.702,46.16325 23.958,46.16325 C24.214,46.16325 24.47,46.06525 24.665,45.87025 L30.256,40.28025 L28.842,38.86625 L24.961,42.74725 Z M19.075,9.29725 L17.661,7.88325 L23.251,2.29325 C23.642,1.90225 24.274,1.90225 24.665,2.29325 L30.256,7.88325 L28.842,9.29725 L24.961,5.41625 L24.961,13.54125 L22.961,13.54125 L22.961,5.41225 L19.075,9.29725 Z" id="Amazon-EC2-Auto-Scaling_Resource-Icon_light-bg" fill="#000000"></path>
    </g><g transform="translate(25, 83)" id="svgGroup" stroke-linecap="round" fill-rule="evenodd" font-size="9pt" stroke="#000" stroke-width="0.25mm" fill="#000" style="stroke:#000;stroke-width:0.25mm;fill:#000"><path d="M 3.617 2.839 L 3.617 3.529 L 0.844 3.529 L 0.844 5.796 L 4.065 5.796 L 4.065 6.486 L 0 6.486 L 0 0.088 L 4.021 0.088 L 4.021 0.782 L 0.844 0.782 L 0.844 2.839 L 3.617 2.839 Z M 8.974 4.456 L 9.822 4.456 A 3.016 3.016 0 0 1 9.661 5.152 A 2.099 2.099 0 0 1 9.073 6.023 Q 8.442 6.574 7.396 6.574 A 2.553 2.553 0 0 1 6.527 6.432 A 2.194 2.194 0 0 1 5.579 5.761 A 2.789 2.789 0 0 1 5.017 4.638 Q 4.911 4.22 4.897 3.728 A 5.262 5.262 0 0 1 4.896 3.586 L 4.896 2.971 A 4.251 4.251 0 0 1 4.966 2.182 A 3.229 3.229 0 0 1 5.214 1.402 A 2.539 2.539 0 0 1 5.67 0.726 A 2.26 2.26 0 0 1 6.117 0.363 A 2.415 2.415 0 0 1 7.143 0.017 A 3.027 3.027 0 0 1 7.471 0 A 2.962 2.962 0 0 1 8.177 0.08 A 2.065 2.065 0 0 1 9.105 0.569 A 2.16 2.16 0 0 1 9.7 1.531 A 3.086 3.086 0 0 1 9.822 2.145 L 8.974 2.145 Q 8.905 1.666 8.735 1.352 A 1.223 1.223 0 0 0 8.497 1.037 A 1.207 1.207 0 0 0 7.992 0.76 Q 7.804 0.707 7.581 0.697 A 2.396 2.396 0 0 0 7.471 0.694 A 1.753 1.753 0 0 0 6.892 0.786 A 1.463 1.463 0 0 0 6.203 1.292 A 1.989 1.989 0 0 0 5.889 1.912 Q 5.744 2.372 5.744 2.993 L 5.744 3.612 Q 5.744 4.654 6.179 5.269 A 1.38 1.38 0 0 0 7.177 5.872 A 1.814 1.814 0 0 0 7.396 5.884 A 2.497 2.497 0 0 0 7.803 5.853 Q 8.023 5.817 8.199 5.738 A 1.155 1.155 0 0 0 8.475 5.566 Q 8.851 5.247 8.974 4.456 Z M 14.955 5.823 L 14.955 6.486 L 10.762 6.486 L 10.762 5.902 L 12.977 3.441 A 9.853 9.853 0 0 0 13.23 3.144 Q 13.468 2.851 13.601 2.63 A 2.159 2.159 0 0 0 13.656 2.534 Q 13.843 2.184 13.843 1.811 A 1.354 1.354 0 0 0 13.791 1.427 A 1.067 1.067 0 0 0 13.54 0.989 Q 13.236 0.668 12.731 0.668 A 1.71 1.71 0 0 0 12.346 0.709 Q 12.009 0.787 11.788 1.013 Q 11.469 1.341 11.453 1.914 A 2.18 2.18 0 0 0 11.452 1.973 L 10.639 1.973 Q 10.639 1.09 11.208 0.545 A 1.914 1.914 0 0 1 12.166 0.055 A 2.782 2.782 0 0 1 12.731 0 A 2.749 2.749 0 0 1 13.312 0.058 Q 13.69 0.14 13.975 0.337 A 1.626 1.626 0 0 1 14.142 0.468 A 1.546 1.546 0 0 1 14.65 1.501 A 2.151 2.151 0 0 1 14.66 1.714 A 1.917 1.917 0 0 1 14.519 2.402 Q 14.298 2.978 13.725 3.659 A 8.818 8.818 0 0 1 13.456 3.964 L 11.742 5.823 L 14.955 5.823 Z M 26.903 6.486 L 26.886 6.016 A 1.526 1.526 0 0 1 26.06 6.511 Q 25.809 6.572 25.512 6.574 A 2.996 2.996 0 0 1 25.493 6.574 A 2.086 2.086 0 0 1 25.033 6.527 Q 24.602 6.429 24.335 6.133 A 1.41 1.41 0 0 1 24.052 5.635 Q 23.935 5.292 23.933 4.825 L 23.933 1.732 L 24.746 1.732 L 24.746 4.803 Q 24.746 5.773 25.453 5.873 A 1.229 1.229 0 0 0 25.625 5.884 A 1.927 1.927 0 0 0 26.075 5.835 Q 26.638 5.7 26.864 5.19 L 26.864 1.732 L 27.677 1.732 L 27.677 6.486 L 26.903 6.486 Z M 22.399 6.486 L 21.788 4.817 L 19.107 4.817 L 18.505 6.486 L 17.635 6.486 L 20.079 0.088 L 20.817 0.088 L 23.265 6.486 L 22.399 6.486 Z M 29.202 0.58 L 30.015 0.58 L 30.015 1.732 L 30.902 1.732 L 30.902 2.36 L 30.015 2.36 L 30.015 5.309 Q 30.015 5.594 30.133 5.737 Q 30.252 5.88 30.538 5.88 A 1.046 1.046 0 0 0 30.635 5.875 Q 30.738 5.865 30.878 5.837 A 4.024 4.024 0 0 0 30.924 5.827 L 30.924 6.486 A 2.463 2.463 0 0 1 30.492 6.566 A 2.157 2.157 0 0 1 30.3 6.574 Q 29.853 6.574 29.587 6.352 A 0.856 0.856 0 0 1 29.479 6.245 Q 29.251 5.974 29.21 5.516 A 2.351 2.351 0 0 1 29.202 5.309 L 29.202 2.36 L 28.336 2.36 L 28.336 1.732 L 29.202 1.732 L 29.202 0.58 Z M 31.548 4.122 L 31.548 4.065 A 3.057 3.057 0 0 1 31.635 3.323 A 2.573 2.573 0 0 1 31.823 2.808 A 2.16 2.16 0 0 1 32.238 2.223 A 1.957 1.957 0 0 1 32.588 1.947 A 2.036 2.036 0 0 1 33.532 1.65 A 2.491 2.491 0 0 1 33.706 1.644 A 2.277 2.277 0 0 1 34.459 1.763 A 1.937 1.937 0 0 1 35.277 2.316 A 2.29 2.29 0 0 1 35.796 3.345 A 3.373 3.373 0 0 1 35.877 4.105 L 35.877 4.162 A 3.114 3.114 0 0 1 35.797 4.878 A 2.577 2.577 0 0 1 35.611 5.408 A 2.056 2.056 0 0 1 35.084 6.098 A 2.001 2.001 0 0 1 34.851 6.267 A 2.045 2.045 0 0 1 33.931 6.565 A 2.529 2.529 0 0 1 33.715 6.574 A 2.262 2.262 0 0 1 32.964 6.455 A 1.938 1.938 0 0 1 32.148 5.902 A 2.297 2.297 0 0 1 31.622 4.847 A 3.357 3.357 0 0 1 31.548 4.122 Z M 32.366 4.162 A 2.772 2.772 0 0 0 32.413 4.69 Q 32.473 5.001 32.611 5.246 A 1.545 1.545 0 0 0 32.733 5.432 Q 33.1 5.911 33.715 5.911 A 1.269 1.269 0 0 0 34.204 5.819 Q 34.484 5.704 34.686 5.442 A 1.471 1.471 0 0 0 34.699 5.425 A 1.648 1.648 0 0 0 34.954 4.908 Q 35.023 4.681 35.049 4.409 A 3.655 3.655 0 0 0 35.064 4.065 A 2.687 2.687 0 0 0 35.013 3.525 Q 34.945 3.195 34.788 2.936 A 1.586 1.586 0 0 0 34.693 2.797 A 1.231 1.231 0 0 0 34.278 2.442 Q 34.024 2.312 33.706 2.312 Q 33.116 2.312 32.75 2.771 A 1.515 1.515 0 0 0 32.735 2.791 A 1.589 1.589 0 0 0 32.483 3.288 Q 32.413 3.509 32.385 3.775 A 3.676 3.676 0 0 0 32.366 4.162 Z M 20.448 1.129 L 19.362 4.122 L 21.538 4.122 L 20.448 1.129 Z" vector-effect="non-scaling-stroke"/></g><g transform="translate(25, 93)" id="svgGroup" stroke-linecap="round" fill-rule="evenodd" font-size="9pt" stroke="#000" stroke-width="0.25mm" fill="#000" style="stroke:#000;stroke-width:0.25mm;fill:#000"><path d="M 4.636 2.202 L 3.788 2.202 A 1.466 1.466 0 0 0 3.738 1.809 A 1.066 1.066 0 0 0 3.419 1.29 A 1.211 1.211 0 0 0 2.95 1.033 Q 2.698 0.958 2.378 0.958 A 2.286 2.286 0 0 0 1.998 0.988 Q 1.796 1.022 1.633 1.095 A 1.101 1.101 0 0 0 1.404 1.233 A 0.892 0.892 0 0 0 1.059 1.887 A 1.267 1.267 0 0 0 1.055 1.995 A 0.806 0.806 0 0 0 1.323 2.6 A 1.134 1.134 0 0 0 1.387 2.656 A 1.562 1.562 0 0 0 1.625 2.813 Q 1.955 2.993 2.516 3.151 A 8.228 8.228 0 0 1 2.981 3.295 Q 3.216 3.377 3.41 3.464 A 3.297 3.297 0 0 1 3.764 3.645 A 2.342 2.342 0 0 1 4.103 3.889 Q 4.293 4.056 4.415 4.248 A 1.45 1.45 0 0 1 4.432 4.276 A 1.498 1.498 0 0 1 4.628 4.832 A 1.948 1.948 0 0 1 4.65 5.124 A 1.606 1.606 0 0 1 4.527 5.76 Q 4.382 6.101 4.064 6.354 A 1.886 1.886 0 0 1 4.043 6.37 Q 3.437 6.838 2.422 6.838 A 3.023 3.023 0 0 1 1.281 6.623 A 2.917 2.917 0 0 1 1.191 6.585 A 2.383 2.383 0 0 1 0.713 6.307 A 1.874 1.874 0 0 1 0.31 5.893 A 1.689 1.689 0 0 1 0 4.896 L 0.848 4.896 A 1.261 1.261 0 0 0 0.918 5.323 A 1.074 1.074 0 0 0 1.277 5.812 Q 1.661 6.113 2.278 6.144 A 2.87 2.87 0 0 0 2.422 6.148 A 2.628 2.628 0 0 0 2.809 6.121 Q 3.005 6.092 3.164 6.031 A 1.129 1.129 0 0 0 3.445 5.875 Q 3.801 5.603 3.801 5.133 A 1.074 1.074 0 0 0 3.759 4.822 A 0.816 0.816 0 0 0 3.472 4.406 Q 3.142 4.148 2.277 3.898 Q 1.191 3.586 0.697 3.131 Q 0.202 2.676 0.202 2.008 Q 0.202 1.252 0.807 0.758 A 2.121 2.121 0 0 1 1.697 0.335 A 3.087 3.087 0 0 1 2.378 0.264 A 2.913 2.913 0 0 1 3.038 0.336 A 2.372 2.372 0 0 1 3.553 0.519 A 2.051 2.051 0 0 1 4.084 0.889 A 1.834 1.834 0 0 1 4.353 1.222 A 1.798 1.798 0 0 1 4.636 2.202 Z M 60.983 6.75 L 59.326 4.548 L 58.817 5.08 L 58.817 6.75 L 58.004 6.75 L 58.004 0 L 58.817 0 L 58.817 4.083 L 59.252 3.56 L 60.733 1.995 L 61.721 1.995 L 59.871 3.981 L 61.937 6.75 L 60.983 6.75 Z M 27.585 2.522 L 27.624 1.995 L 28.367 1.995 L 28.367 6.636 A 2.511 2.511 0 0 1 28.296 7.249 A 1.738 1.738 0 0 1 27.82 8.09 A 1.834 1.834 0 0 1 26.89 8.57 A 2.671 2.671 0 0 1 26.35 8.622 A 2.446 2.446 0 0 1 25.343 8.402 A 2.003 2.003 0 0 1 24.933 8.161 A 1.563 1.563 0 0 1 24.592 7.8 L 25.014 7.313 A 1.889 1.889 0 0 0 25.448 7.712 A 1.514 1.514 0 0 0 26.293 7.958 A 1.695 1.695 0 0 0 26.67 7.919 Q 26.938 7.858 27.132 7.702 A 1.037 1.037 0 0 0 27.218 7.625 A 1.09 1.09 0 0 0 27.495 7.132 Q 27.542 6.959 27.548 6.752 A 2.134 2.134 0 0 0 27.549 6.684 L 27.549 6.275 A 1.601 1.601 0 0 1 26.497 6.821 A 2.279 2.279 0 0 1 26.218 6.838 A 1.672 1.672 0 0 1 25.463 6.67 Q 25.141 6.51 24.891 6.197 A 2.14 2.14 0 0 1 24.867 6.166 A 2.316 2.316 0 0 1 24.483 5.386 Q 24.35 4.922 24.35 4.333 Q 24.35 3.472 24.659 2.884 A 2.096 2.096 0 0 1 24.864 2.564 Q 25.379 1.907 26.227 1.907 A 1.971 1.971 0 0 1 26.826 1.994 A 1.55 1.55 0 0 1 27.585 2.522 Z M 19.578 1.995 L 20.347 1.995 L 20.373 2.593 Q 20.91 1.918 21.769 1.907 A 2.234 2.234 0 0 1 21.797 1.907 A 1.905 1.905 0 0 1 22.431 2.004 Q 23.272 2.3 23.315 3.506 A 3.668 3.668 0 0 1 23.318 3.608 L 23.318 6.75 L 22.505 6.75 L 22.505 3.604 A 1.837 1.837 0 0 0 22.482 3.324 Q 22.432 3.017 22.269 2.843 Q 22.083 2.645 21.73 2.606 A 1.66 1.66 0 0 0 21.551 2.597 A 1.253 1.253 0 0 0 21.137 2.664 A 1.123 1.123 0 0 0 20.857 2.808 A 1.432 1.432 0 0 0 20.391 3.362 L 20.391 6.75 L 19.578 6.75 L 19.578 1.995 Z M 8.631 5.251 L 9.4 5.251 A 1.432 1.432 0 0 1 9.201 5.901 A 1.772 1.772 0 0 1 9.119 6.029 A 1.828 1.828 0 0 1 8.51 6.574 A 2.169 2.169 0 0 1 8.427 6.618 A 1.997 1.997 0 0 1 7.51 6.838 A 2.346 2.346 0 0 1 6.813 6.739 A 1.839 1.839 0 0 1 5.966 6.19 A 2.171 2.171 0 0 1 5.502 5.31 Q 5.392 4.909 5.392 4.417 L 5.392 4.28 A 3.24 3.24 0 0 1 5.456 3.624 A 2.57 2.57 0 0 1 5.647 3.045 A 2.008 2.008 0 0 1 6.087 2.431 A 1.892 1.892 0 0 1 6.379 2.206 A 1.943 1.943 0 0 1 7.135 1.934 A 2.529 2.529 0 0 1 7.506 1.907 A 2.196 2.196 0 0 1 8.154 1.999 A 1.786 1.786 0 0 1 8.835 2.386 A 1.693 1.693 0 0 1 9.394 3.535 A 2.239 2.239 0 0 1 9.4 3.63 L 8.631 3.63 Q 8.596 3.168 8.282 2.872 A 1.078 1.078 0 0 0 7.552 2.576 A 1.402 1.402 0 0 0 7.506 2.575 A 1.374 1.374 0 0 0 7.085 2.637 A 1.081 1.081 0 0 0 6.546 3.021 A 1.469 1.469 0 0 0 6.319 3.468 Q 6.253 3.674 6.225 3.923 A 3.514 3.514 0 0 0 6.205 4.311 L 6.205 4.465 Q 6.205 5.287 6.544 5.73 A 1.1 1.1 0 0 0 7.33 6.165 A 1.611 1.611 0 0 0 7.51 6.174 A 1.171 1.171 0 0 0 8.271 5.911 A 1.007 1.007 0 0 0 8.515 5.629 A 0.914 0.914 0 0 0 8.631 5.251 Z M 14.102 6.75 L 13.25 6.75 A 0.632 0.632 0 0 1 13.214 6.66 Q 13.183 6.562 13.158 6.41 A 3.997 3.997 0 0 1 13.135 6.249 Q 12.569 6.838 11.782 6.838 A 2.033 2.033 0 0 1 11.253 6.772 A 1.529 1.529 0 0 1 10.628 6.44 Q 10.178 6.042 10.178 5.432 Q 10.178 4.689 10.743 4.278 Q 11.307 3.867 12.331 3.867 L 13.122 3.867 L 13.122 3.494 A 1.152 1.152 0 0 0 13.086 3.199 A 0.828 0.828 0 0 0 12.867 2.815 Q 12.651 2.6 12.261 2.568 A 1.748 1.748 0 0 0 12.116 2.562 Q 11.681 2.562 11.386 2.782 Q 11.092 3.001 11.092 3.313 L 10.275 3.313 A 1.041 1.041 0 0 1 10.399 2.825 A 1.409 1.409 0 0 1 10.527 2.626 Q 10.78 2.294 11.213 2.101 A 2.249 2.249 0 0 1 11.988 1.913 A 2.669 2.669 0 0 1 12.164 1.907 A 2.65 2.65 0 0 1 12.682 1.955 Q 12.989 2.016 13.228 2.156 A 1.439 1.439 0 0 1 13.452 2.318 A 1.396 1.396 0 0 1 13.905 3.144 A 1.998 1.998 0 0 1 13.935 3.45 L 13.935 5.638 Q 13.935 6.073 14.009 6.39 A 1.707 1.707 0 0 0 14.102 6.68 L 14.102 6.75 Z M 53.846 6.75 L 52.994 6.75 A 0.632 0.632 0 0 1 52.958 6.66 Q 52.927 6.562 52.902 6.41 A 3.997 3.997 0 0 1 52.88 6.249 Q 52.313 6.838 51.526 6.838 A 2.033 2.033 0 0 1 50.997 6.772 A 1.529 1.529 0 0 1 50.372 6.44 Q 49.922 6.042 49.922 5.432 Q 49.922 4.689 50.487 4.278 Q 51.051 3.867 52.075 3.867 L 52.866 3.867 L 52.866 3.494 A 1.152 1.152 0 0 0 52.831 3.199 A 0.828 0.828 0 0 0 52.611 2.815 Q 52.395 2.6 52.005 2.568 A 1.748 1.748 0 0 0 51.86 2.562 Q 51.425 2.562 51.131 2.782 Q 50.836 3.001 50.836 3.313 L 50.019 3.313 A 1.041 1.041 0 0 1 50.144 2.825 A 1.409 1.409 0 0 1 50.271 2.626 Q 50.524 2.294 50.957 2.101 A 2.249 2.249 0 0 1 51.733 1.913 A 2.669 2.669 0 0 1 51.908 1.907 A 2.65 2.65 0 0 1 52.426 1.955 Q 52.733 2.016 52.972 2.156 A 1.439 1.439 0 0 1 53.196 2.318 A 1.396 1.396 0 0 1 53.649 3.144 A 1.998 1.998 0 0 1 53.679 3.45 L 53.679 5.638 Q 53.679 6.073 53.753 6.39 A 1.707 1.707 0 0 0 53.846 6.68 L 53.846 6.75 Z M 35.17 0.352 L 35.17 4.601 L 36.057 4.601 L 36.057 5.265 L 35.17 5.265 L 35.17 6.75 L 34.352 6.75 L 34.352 5.265 L 31.439 5.265 L 31.439 4.786 L 34.304 0.352 L 35.17 0.352 Z M 46.055 6.75 L 44.284 6.75 L 44.284 0.352 L 46.09 0.352 Q 46.925 0.352 47.567 0.721 Q 48.208 1.09 48.558 1.771 A 3.19 3.19 0 0 1 48.874 2.8 A 4.073 4.073 0 0 1 48.911 3.335 L 48.911 3.744 Q 48.911 4.649 48.562 5.331 A 2.457 2.457 0 0 1 47.564 6.376 Q 46.916 6.741 46.055 6.75 Z M 40.568 2.592 A 1.544 1.544 0 0 0 40.672 2.021 A 2.226 2.226 0 0 0 40.65 1.707 A 1.566 1.566 0 0 0 40.151 0.738 A 1.754 1.754 0 0 0 39.385 0.333 A 2.443 2.443 0 0 0 38.786 0.264 A 2.539 2.539 0 0 0 38.277 0.312 A 1.767 1.767 0 0 0 37.42 0.738 Q 36.901 1.213 36.901 2.021 A 1.808 1.808 0 0 0 36.901 2.058 A 1.499 1.499 0 0 0 37.147 2.87 A 1.626 1.626 0 0 0 37.309 3.077 A 1.726 1.726 0 0 0 37.819 3.454 A 2.119 2.119 0 0 0 37.72 3.5 A 1.738 1.738 0 0 0 37.035 4.087 A 1.629 1.629 0 0 0 36.752 5.023 A 2.272 2.272 0 0 0 36.761 5.237 A 1.63 1.63 0 0 0 37.308 6.344 A 1.895 1.895 0 0 0 38.158 6.771 A 2.797 2.797 0 0 0 38.786 6.838 A 2.796 2.796 0 0 0 39.385 6.777 A 1.925 1.925 0 0 0 40.261 6.346 A 1.578 1.578 0 0 0 40.735 5.62 A 1.989 1.989 0 0 0 40.821 5.023 A 1.581 1.581 0 0 0 40.529 4.087 Q 40.236 3.674 39.735 3.458 Q 40.166 3.248 40.419 2.874 A 1.449 1.449 0 0 0 40.568 2.592 Z M 16.093 0 L 16.093 6.75 L 15.28 6.75 L 15.28 0 L 16.093 0 Z M 57.252 1.969 L 57.252 2.725 A 2.251 2.251 0 0 0 57.009 2.698 A 2.782 2.782 0 0 0 56.852 2.694 Q 56.074 2.694 55.783 3.338 A 1.445 1.445 0 0 0 55.767 3.375 L 55.767 6.75 L 54.954 6.75 L 54.954 1.995 L 55.745 1.995 L 55.758 2.544 Q 56.138 1.938 56.821 1.909 A 1.636 1.636 0 0 1 56.892 1.907 Q 57.129 1.907 57.252 1.969 Z M 46.112 1.046 L 45.128 1.046 L 45.128 6.06 L 46.015 6.06 A 2.519 2.519 0 0 0 46.648 5.985 A 1.747 1.747 0 0 0 47.534 5.454 Q 47.993 4.94 48.063 4.059 A 4.165 4.165 0 0 0 48.076 3.727 L 48.076 3.353 Q 48.076 2.562 47.807 2.027 A 1.864 1.864 0 0 0 47.564 1.659 A 1.687 1.687 0 0 0 46.568 1.09 A 2.499 2.499 0 0 0 46.112 1.046 Z M 18.277 1.995 L 18.277 6.75 L 17.464 6.75 L 17.464 1.995 L 18.277 1.995 Z M 27.549 5.449 L 27.549 3.278 A 1.439 1.439 0 0 0 27.249 2.891 Q 26.945 2.62 26.504 2.599 A 1.578 1.578 0 0 0 26.429 2.597 Q 25.837 2.597 25.503 3.056 A 1.51 1.51 0 0 0 25.292 3.484 Q 25.227 3.689 25.196 3.939 A 3.955 3.955 0 0 0 25.168 4.425 Q 25.168 5.229 25.497 5.689 Q 25.827 6.148 26.42 6.148 A 1.32 1.32 0 0 0 26.93 6.054 Q 27.321 5.891 27.549 5.449 Z M 34.256 1.639 L 32.361 4.601 L 34.352 4.601 L 34.352 1.463 L 34.256 1.639 Z M 40.008 5.005 A 1.375 1.375 0 0 0 39.948 4.592 A 1.109 1.109 0 0 0 39.667 4.131 A 1.148 1.148 0 0 0 38.996 3.807 A 1.593 1.593 0 0 0 38.777 3.792 A 1.466 1.466 0 0 0 38.389 3.841 A 1.086 1.086 0 0 0 37.896 4.126 A 1.123 1.123 0 0 0 37.583 4.762 A 1.572 1.572 0 0 0 37.565 5.005 A 1.48 1.48 0 0 0 37.606 5.367 A 1.019 1.019 0 0 0 37.888 5.862 Q 38.194 6.158 38.727 6.173 A 2.053 2.053 0 0 0 38.786 6.174 Q 39.28 6.174 39.59 5.94 A 1.018 1.018 0 0 0 39.683 5.86 A 1.041 1.041 0 0 0 39.982 5.292 A 1.518 1.518 0 0 0 40.008 5.005 Z M 38.786 0.932 A 1.259 1.259 0 0 0 38.434 0.979 A 0.973 0.973 0 0 0 38.011 1.228 Q 37.714 1.525 37.714 2.035 A 1.325 1.325 0 0 0 37.759 2.387 A 0.994 0.994 0 0 0 38.006 2.823 A 0.974 0.974 0 0 0 38.568 3.108 A 1.382 1.382 0 0 0 38.786 3.125 A 1.279 1.279 0 0 0 39.131 3.08 A 0.952 0.952 0 0 0 39.566 2.823 A 1.018 1.018 0 0 0 39.841 2.26 A 1.426 1.426 0 0 0 39.859 2.035 A 1.282 1.282 0 0 0 39.809 1.668 A 1.013 1.013 0 0 0 39.555 1.239 Q 39.252 0.932 38.786 0.932 Z M 13.122 5.418 L 13.122 4.443 L 12.485 4.443 Q 10.991 4.443 10.991 5.317 Q 10.991 5.7 11.246 5.915 A 0.893 0.893 0 0 0 11.659 6.108 A 1.259 1.259 0 0 0 11.901 6.13 A 1.429 1.429 0 0 0 12.626 5.933 A 1.335 1.335 0 0 0 12.921 5.705 A 1.108 1.108 0 0 0 13.122 5.418 Z M 52.866 5.418 L 52.866 4.443 L 52.229 4.443 Q 50.735 4.443 50.735 5.317 Q 50.735 5.7 50.99 5.915 A 0.893 0.893 0 0 0 51.403 6.108 A 1.259 1.259 0 0 0 51.645 6.13 A 1.429 1.429 0 0 0 52.37 5.933 A 1.335 1.335 0 0 0 52.665 5.705 A 1.108 1.108 0 0 0 52.866 5.418 Z M 17.398 0.734 Q 17.398 0.536 17.519 0.4 Q 17.631 0.274 17.843 0.264 A 0.783 0.783 0 0 1 17.877 0.264 Q 18.114 0.264 18.237 0.4 A 0.474 0.474 0 0 1 18.36 0.703 A 0.614 0.614 0 0 1 18.36 0.734 A 0.523 0.523 0 0 1 18.335 0.9 A 0.442 0.442 0 0 1 18.237 1.063 Q 18.125 1.184 17.917 1.194 A 0.803 0.803 0 0 1 17.877 1.195 Q 17.705 1.195 17.594 1.126 A 0.362 0.362 0 0 1 17.519 1.063 A 0.456 0.456 0 0 1 17.4 0.788 A 0.605 0.605 0 0 1 17.398 0.734 Z" vector-effect="non-scaling-stroke"/></g>
</svg>