<?xml version="1.0" encoding="UTF-8"?>
<svg width="48px" height="48px" viewBox="0 0 48 48" version="1.1" xmlns="http://www.w3.org/2000/svg" xmlns:xlink="http://www.w3.org/1999/xlink">
    <title>Icon-Resource/Compute/Res_Amazon-EC2_Habana-Gaudi_48_Dark</title>
    <g id="Icon-Resource/Compute/Res_Amazon-EC2_Habana-Gaudi_48" stroke="none" stroke-width="1" fill="none" fill-rule="evenodd">
        <path transform="translate(12.000000, 8.000000), scale(.65)" d="M9,39 L39,39 L39,9 L9,9 L9,39 Z M41,13 L41,17 L46,17 L46,19 L41,19 L41,23 L46,23 L46,25 L41,25 L41,29 L46,29 L46,31 L41,31 L41,35 L46,35 L46,37 L41,37 L41,40 C41,40.552 40.553,41 40,41 L37,41 L37,46 L35,46 L35,41 L31,41 L31,46 L29,46 L29,41 L25,41 L25,46 L23,46 L23,41 L19,41 L19,46 L17,46 L17,41 L13,41 L13,46 L11,46 L11,41 L8,41 C7.447,41 7,40.552 7,40 L7,37 L2,37 L2,35 L7,35 L7,31 L2,31 L2,29 L7,29 L7,25 L2,25 L2,23 L7,23 L7,19 L2,19 L2,17 L7,17 L7,13 L2,13 L2,11 L7,11 L7,8 C7,7.448 7.447,7 8,7 L11,7 L11,2 L13,2 L13,7 L17,7 L17,2 L19,2 L19,7 L23,7 L23,2 L25,2 L25,7 L29,7 L29,2 L31,2 L31,7 L35,7 L35,2 L37,2 L37,7 L40,7 C40.553,7 41,7.448 41,8 L41,11 L46,11 L46,13 L41,13 Z M32.728,26.763 C32.728,26.934 32.778,27.067 32.88,27.163 C32.98,27.259 33.119,27.307 33.296,27.307 C33.472,27.307 33.61,27.259 33.712,27.163 C33.812,27.067 33.863,26.934 33.863,26.763 C33.863,26.593 33.812,26.459 33.712,26.363 C33.61,26.267 33.472,26.219 33.296,26.219 C33.119,26.219 32.98,26.267 32.88,26.363 C32.778,26.459 32.728,26.593 32.728,26.763 L32.728,26.763 Z M32.823,32.051 L33.767,32.051 L33.767,27.979 L32.823,27.979 L32.823,32.051 Z M28.912,29.987 C28.912,30.926 29.253,31.396 29.936,31.396 C30.25,31.396 30.557,31.294 30.855,31.091 L30.855,28.891 C30.584,28.699 30.282,28.603 29.952,28.603 C29.595,28.603 29.332,28.717 29.164,28.943 C28.996,29.17 28.912,29.518 28.912,29.987 L28.912,29.987 Z M28.76,28.135 C29.021,27.951 29.33,27.859 29.687,27.859 C30.114,27.859 30.504,27.998 30.855,28.275 L30.855,26.131 L31.8,26.131 L31.8,32.051 L30.992,32.051 L30.896,31.659 C30.533,31.979 30.114,32.139 29.64,32.139 C29.128,32.139 28.719,31.949 28.412,31.567 C28.105,31.186 27.952,30.673 27.952,30.027 C27.952,29.601 28.021,29.225 28.16,28.899 C28.299,28.574 28.498,28.319 28.76,28.135 L28.76,28.135 Z M23.607,27.979 L23.607,30.947 C23.607,31.342 23.71,31.645 23.916,31.855 C24.121,32.066 24.413,32.171 24.792,32.171 C25.287,32.171 25.786,31.982 26.287,31.603 L26.384,32.051 L27.168,32.051 L27.168,27.979 L26.224,27.979 L26.224,31.099 C25.888,31.318 25.554,31.427 25.224,31.427 C24.989,31.427 24.818,31.366 24.712,31.243 C24.604,31.121 24.552,30.929 24.552,30.667 L24.552,27.979 L23.607,27.979 Z M21.792,30.347 C21.516,30.289 21.271,30.259 21.059,30.259 C20.518,30.259 20.247,30.475 20.247,30.907 C20.247,31.094 20.3,31.239 20.403,31.343 C20.508,31.447 20.65,31.5 20.832,31.5 C20.983,31.5 21.142,31.466 21.308,31.399 C21.475,31.333 21.636,31.238 21.792,31.115 L21.792,30.347 Z M19.567,28.188 C19.769,28.086 20.014,28.006 20.305,27.947 C20.595,27.889 20.887,27.859 21.18,27.859 C21.712,27.859 22.104,27.966 22.356,28.179 C22.609,28.393 22.735,28.726 22.735,29.179 L22.735,32.051 L21.911,32.051 L21.84,31.659 C21.652,31.819 21.446,31.945 21.22,32.035 C20.993,32.126 20.768,32.171 20.544,32.171 C20.17,32.171 19.867,32.059 19.636,31.835 C19.403,31.611 19.287,31.321 19.287,30.963 C19.287,30.569 19.43,30.254 19.716,30.019 C20.001,29.785 20.384,29.667 20.863,29.667 C21.146,29.667 21.455,29.707 21.792,29.787 L21.792,29.315 C21.792,29.043 21.732,28.854 21.615,28.747 C21.498,28.641 21.293,28.587 21,28.587 C20.584,28.587 20.106,28.675 19.567,28.851 L19.567,28.188 Z M16.512,29.787 L17.656,29.787 L17.656,31.251 C17.41,31.299 17.16,31.323 16.903,31.323 C16.259,31.323 15.785,31.167 15.483,30.855 C15.183,30.543 15.032,30.054 15.032,29.387 L15.032,29.219 C15.032,28.542 15.184,28.043 15.488,27.723 C15.793,27.403 16.26,27.243 16.891,27.243 C17.363,27.243 17.88,27.336 18.439,27.523 L18.439,26.747 C17.969,26.529 17.431,26.419 16.824,26.419 C15.926,26.419 15.237,26.668 14.758,27.167 C14.279,27.666 14.04,28.382 14.04,29.315 C14.04,30.232 14.272,30.934 14.737,31.419 C15.203,31.905 15.879,32.147 16.766,32.147 C17.112,32.147 17.448,32.111 17.775,32.039 C18.104,31.967 18.389,31.867 18.632,31.739 L18.632,29.019 L16.512,29.019 L16.512,29.787 Z M36.248,20.747 C35.972,20.688 35.728,20.659 35.515,20.659 C34.974,20.659 34.703,20.875 34.703,21.307 C34.703,21.494 34.756,21.639 34.859,21.743 C34.964,21.847 35.106,21.899 35.288,21.899 C35.439,21.899 35.598,21.866 35.764,21.799 C35.931,21.732 36.092,21.638 36.248,21.515 L36.248,20.747 Z M36.248,20.187 L36.248,19.715 C36.248,19.443 36.188,19.254 36.071,19.147 C35.954,19.041 35.749,18.987 35.456,18.987 C35.04,18.987 34.563,19.075 34.023,19.251 L34.023,18.587 C34.225,18.486 34.47,18.406 34.761,18.347 C35.051,18.289 35.343,18.259 35.636,18.259 C36.168,18.259 36.561,18.366 36.813,18.579 C37.065,18.792 37.191,19.126 37.191,19.579 L37.191,22.451 L36.367,22.451 L36.296,22.059 C36.108,22.219 35.902,22.345 35.676,22.435 C35.449,22.526 35.224,22.571 35,22.571 C34.626,22.571 34.323,22.459 34.092,22.235 C33.859,22.011 33.743,21.721 33.743,21.363 C33.743,20.969 33.886,20.654 34.172,20.419 C34.457,20.185 34.84,20.067 35.319,20.067 C35.603,20.067 35.911,20.107 36.248,20.187 L36.248,20.187 Z M30.336,19.355 C30.704,19.121 31.063,19.003 31.416,19.003 C31.65,19.003 31.821,19.063 31.928,19.183 C32.034,19.303 32.088,19.494 32.088,19.755 L32.088,22.451 L33.031,22.451 L33.031,19.459 C33.031,19.07 32.931,18.772 32.728,18.567 C32.525,18.362 32.229,18.259 31.84,18.259 C31.296,18.259 30.772,18.449 30.271,18.827 L30.176,18.379 L29.392,18.379 L29.392,22.451 L30.336,22.451 L30.336,19.355 Z M27.536,20.747 C27.26,20.688 27.016,20.659 26.803,20.659 C26.262,20.659 25.991,20.875 25.991,21.307 C25.991,21.494 26.044,21.639 26.147,21.743 C26.252,21.847 26.395,21.899 26.576,21.899 C26.728,21.899 26.886,21.866 27.052,21.799 C27.219,21.732 27.38,21.638 27.536,21.515 L27.536,20.747 Z M27.536,20.187 L27.536,19.715 C27.536,19.443 27.477,19.254 27.359,19.147 C27.242,19.041 27.037,18.987 26.744,18.987 C26.328,18.987 25.851,19.075 25.312,19.251 L25.312,18.587 C25.513,18.486 25.758,18.406 26.049,18.347 C26.339,18.289 26.631,18.259 26.924,18.259 C27.456,18.259 27.849,18.366 28.101,18.579 C28.354,18.792 28.479,19.126 28.479,19.579 L28.479,22.451 L27.655,22.451 L27.584,22.059 C27.396,22.219 27.19,22.345 26.964,22.435 C26.737,22.526 26.512,22.571 26.288,22.571 C25.914,22.571 25.611,22.459 25.38,22.235 C25.147,22.011 25.031,21.721 25.031,21.363 C25.031,20.969 25.174,20.654 25.46,20.419 C25.745,20.185 26.128,20.067 26.607,20.067 C26.891,20.067 27.199,20.107 27.536,20.187 L27.536,20.187 Z M21.584,21.483 C21.883,21.691 22.2,21.795 22.536,21.795 C22.877,21.795 23.13,21.679 23.296,21.447 C23.461,21.215 23.544,20.862 23.544,20.387 C23.544,19.918 23.462,19.57 23.3,19.343 C23.137,19.117 22.885,19.003 22.544,19.003 C22.197,19.003 21.877,19.104 21.584,19.307 L21.584,21.483 Z M21.424,22.451 L20.64,22.451 L20.64,16.531 L21.584,16.531 L21.584,18.739 C21.962,18.419 22.381,18.259 22.84,18.259 C23.347,18.259 23.75,18.449 24.052,18.827 C24.353,19.206 24.504,19.715 24.504,20.355 C24.504,20.782 24.435,21.159 24.296,21.487 C24.157,21.815 23.957,22.073 23.695,22.259 C23.435,22.446 23.128,22.539 22.775,22.539 C22.536,22.539 22.307,22.495 22.088,22.407 C21.869,22.319 21.68,22.195 21.52,22.035 L21.424,22.451 Z M18.784,20.747 C18.508,20.688 18.264,20.659 18.051,20.659 C17.51,20.659 17.239,20.875 17.239,21.307 C17.239,21.494 17.292,21.639 17.396,21.743 C17.5,21.847 17.643,21.899 17.824,21.899 C17.976,21.899 18.134,21.866 18.3,21.799 C18.467,21.732 18.628,21.638 18.784,21.515 L18.784,20.747 Z M18.784,20.187 L18.784,19.715 C18.784,19.443 18.725,19.254 18.607,19.147 C18.49,19.041 18.285,18.987 17.992,18.987 C17.576,18.987 17.099,19.075 16.56,19.251 L16.56,18.587 C16.761,18.486 17.006,18.406 17.297,18.347 C17.587,18.289 17.879,18.259 18.172,18.259 C18.704,18.259 19.097,18.366 19.349,18.579 C19.602,18.792 19.728,19.126 19.728,19.579 L19.728,22.451 L18.903,22.451 L18.832,22.059 C18.645,22.219 18.438,22.345 18.212,22.435 C17.985,22.526 17.76,22.571 17.536,22.571 C17.162,22.571 16.859,22.459 16.628,22.235 C16.396,22.011 16.279,21.721 16.279,21.363 C16.279,20.969 16.422,20.654 16.708,20.419 C16.993,20.185 17.376,20.067 17.855,20.067 C18.139,20.067 18.447,20.107 18.784,20.187 L18.784,20.187 Z M11.943,22.451 L10.968,22.451 L10.968,16.907 L11.943,16.907 L11.943,19.235 L14.487,19.235 L14.487,16.907 L15.464,16.907 L15.464,22.451 L14.487,22.451 L14.487,20.019 L11.943,20.019 L11.943,22.451 Z" id="Fill-1" fill="#000000"></path>
    </g><g transform="translate(25, 83)" id="svgGroup" stroke-linecap="round" fill-rule="evenodd" font-size="9pt" stroke="#000" stroke-width="0.25mm" fill="#000" style="stroke:#000;stroke-width:0.25mm;fill:#000"><path d="M 23.172 0.352 L 23.172 6.75 L 22.324 6.75 L 22.324 3.792 L 19.099 3.792 L 19.099 6.75 L 18.255 6.75 L 18.255 0.352 L 19.099 0.352 L 19.099 3.103 L 22.324 3.103 L 22.324 0.352 L 23.172 0.352 Z M 3.617 3.103 L 3.617 3.792 L 0.844 3.792 L 0.844 6.06 L 4.065 6.06 L 4.065 6.75 L 0 6.75 L 0 0.352 L 4.021 0.352 L 4.021 1.046 L 0.844 1.046 L 0.844 3.103 L 3.617 3.103 Z M 8.974 4.72 L 9.822 4.72 A 3.016 3.016 0 0 1 9.661 5.416 A 2.099 2.099 0 0 1 9.073 6.286 Q 8.442 6.838 7.396 6.838 A 2.553 2.553 0 0 1 6.527 6.696 A 2.194 2.194 0 0 1 5.579 6.025 A 2.789 2.789 0 0 1 5.017 4.901 Q 4.911 4.484 4.897 3.992 A 5.262 5.262 0 0 1 4.896 3.85 L 4.896 3.234 A 4.251 4.251 0 0 1 4.966 2.445 A 3.229 3.229 0 0 1 5.214 1.666 A 2.539 2.539 0 0 1 5.67 0.99 A 2.26 2.26 0 0 1 6.117 0.626 A 2.415 2.415 0 0 1 7.143 0.281 A 3.027 3.027 0 0 1 7.471 0.264 A 2.962 2.962 0 0 1 8.177 0.343 A 2.065 2.065 0 0 1 9.105 0.833 A 2.16 2.16 0 0 1 9.7 1.795 A 3.086 3.086 0 0 1 9.822 2.408 L 8.974 2.408 Q 8.905 1.929 8.735 1.616 A 1.223 1.223 0 0 0 8.497 1.301 A 1.207 1.207 0 0 0 7.992 1.024 Q 7.804 0.971 7.581 0.961 A 2.396 2.396 0 0 0 7.471 0.958 A 1.753 1.753 0 0 0 6.892 1.049 A 1.463 1.463 0 0 0 6.203 1.556 A 1.989 1.989 0 0 0 5.889 2.175 Q 5.744 2.636 5.744 3.256 L 5.744 3.876 Q 5.744 4.917 6.179 5.533 A 1.38 1.38 0 0 0 7.177 6.135 A 1.814 1.814 0 0 0 7.396 6.148 A 2.497 2.497 0 0 0 7.803 6.117 Q 8.023 6.08 8.199 6.002 A 1.155 1.155 0 0 0 8.475 5.829 Q 8.851 5.511 8.974 4.72 Z M 14.955 6.086 L 14.955 6.75 L 10.762 6.75 L 10.762 6.166 L 12.977 3.705 A 9.853 9.853 0 0 0 13.23 3.407 Q 13.468 3.115 13.601 2.894 A 2.159 2.159 0 0 0 13.656 2.797 Q 13.843 2.448 13.843 2.074 A 1.354 1.354 0 0 0 13.791 1.69 A 1.067 1.067 0 0 0 13.54 1.252 Q 13.236 0.932 12.731 0.932 A 1.71 1.71 0 0 0 12.346 0.972 Q 12.009 1.05 11.788 1.277 Q 11.469 1.605 11.453 2.177 A 2.18 2.18 0 0 0 11.452 2.237 L 10.639 2.237 Q 10.639 1.354 11.208 0.809 A 1.914 1.914 0 0 1 12.166 0.318 A 2.782 2.782 0 0 1 12.731 0.264 A 2.749 2.749 0 0 1 13.312 0.322 Q 13.69 0.403 13.975 0.6 A 1.626 1.626 0 0 1 14.142 0.732 A 1.546 1.546 0 0 1 14.65 1.765 A 2.151 2.151 0 0 1 14.66 1.978 A 1.917 1.917 0 0 1 14.519 2.666 Q 14.298 3.241 13.725 3.922 A 8.818 8.818 0 0 1 13.456 4.228 L 11.742 6.086 L 14.955 6.086 Z M 39.384 1.995 L 40.153 1.995 L 40.179 2.593 Q 40.716 1.918 41.575 1.907 A 2.234 2.234 0 0 1 41.603 1.907 A 1.905 1.905 0 0 1 42.237 2.004 Q 43.078 2.3 43.121 3.506 A 3.668 3.668 0 0 1 43.124 3.608 L 43.124 6.75 L 42.311 6.75 L 42.311 3.604 A 1.837 1.837 0 0 0 42.288 3.324 Q 42.238 3.017 42.075 2.843 Q 41.889 2.645 41.536 2.606 A 1.66 1.66 0 0 0 41.357 2.597 A 1.253 1.253 0 0 0 40.943 2.664 A 1.123 1.123 0 0 0 40.663 2.808 A 1.432 1.432 0 0 0 40.197 3.362 L 40.197 6.75 L 39.384 6.75 L 39.384 1.995 Z M 28.332 6.75 L 27.479 6.75 A 0.632 0.632 0 0 1 27.444 6.66 Q 27.412 6.562 27.387 6.41 A 3.997 3.997 0 0 1 27.365 6.249 Q 26.798 6.838 26.011 6.838 A 2.033 2.033 0 0 1 25.482 6.772 A 1.529 1.529 0 0 1 24.858 6.44 Q 24.407 6.042 24.407 5.432 Q 24.407 4.689 24.972 4.278 Q 25.537 3.867 26.561 3.867 L 27.352 3.867 L 27.352 3.494 A 1.152 1.152 0 0 0 27.316 3.199 A 0.828 0.828 0 0 0 27.097 2.815 Q 26.88 2.6 26.49 2.568 A 1.748 1.748 0 0 0 26.345 2.562 Q 25.91 2.562 25.616 2.782 Q 25.321 3.001 25.321 3.313 L 24.504 3.313 A 1.041 1.041 0 0 1 24.629 2.825 A 1.409 1.409 0 0 1 24.757 2.626 Q 25.009 2.294 25.442 2.101 A 2.249 2.249 0 0 1 26.218 1.913 A 2.669 2.669 0 0 1 26.394 1.907 A 2.65 2.65 0 0 1 26.911 1.955 Q 27.218 2.016 27.457 2.156 A 1.439 1.439 0 0 1 27.681 2.318 A 1.396 1.396 0 0 1 28.135 3.144 A 1.998 1.998 0 0 1 28.165 3.45 L 28.165 5.638 Q 28.165 6.073 28.238 6.39 A 1.707 1.707 0 0 0 28.332 6.68 L 28.332 6.75 Z M 38.276 6.75 L 37.424 6.75 A 0.632 0.632 0 0 1 37.388 6.66 Q 37.357 6.562 37.332 6.41 A 3.997 3.997 0 0 1 37.31 6.249 Q 36.743 6.838 35.956 6.838 A 2.033 2.033 0 0 1 35.427 6.772 A 1.529 1.529 0 0 1 34.802 6.44 Q 34.352 6.042 34.352 5.432 Q 34.352 4.689 34.917 4.278 Q 35.481 3.867 36.505 3.867 L 37.296 3.867 L 37.296 3.494 A 1.152 1.152 0 0 0 37.261 3.199 A 0.828 0.828 0 0 0 37.042 2.815 Q 36.825 2.6 36.435 2.568 A 1.748 1.748 0 0 0 36.29 2.562 Q 35.855 2.562 35.561 2.782 Q 35.266 3.001 35.266 3.313 L 34.449 3.313 A 1.041 1.041 0 0 1 34.574 2.825 A 1.409 1.409 0 0 1 34.701 2.626 Q 34.954 2.294 35.387 2.101 A 2.249 2.249 0 0 1 36.163 1.913 A 2.669 2.669 0 0 1 36.338 1.907 A 2.65 2.65 0 0 1 36.856 1.955 Q 37.163 2.016 37.402 2.156 A 1.439 1.439 0 0 1 37.626 2.318 A 1.396 1.396 0 0 1 38.079 3.144 A 1.998 1.998 0 0 1 38.109 3.45 L 38.109 5.638 Q 38.109 6.073 38.183 6.39 A 1.707 1.707 0 0 0 38.276 6.68 L 38.276 6.75 Z M 48.138 6.75 L 47.285 6.75 A 0.632 0.632 0 0 1 47.25 6.66 Q 47.218 6.562 47.194 6.41 A 3.997 3.997 0 0 1 47.171 6.249 Q 46.604 6.838 45.817 6.838 A 2.033 2.033 0 0 1 45.288 6.772 A 1.529 1.529 0 0 1 44.664 6.44 Q 44.213 6.042 44.213 5.432 Q 44.213 4.689 44.778 4.278 Q 45.343 3.867 46.367 3.867 L 47.158 3.867 L 47.158 3.494 A 1.152 1.152 0 0 0 47.122 3.199 A 0.828 0.828 0 0 0 46.903 2.815 Q 46.687 2.6 46.296 2.568 A 1.748 1.748 0 0 0 46.151 2.562 Q 45.716 2.562 45.422 2.782 Q 45.127 3.001 45.127 3.313 L 44.31 3.313 A 1.041 1.041 0 0 1 44.435 2.825 A 1.409 1.409 0 0 1 44.563 2.626 Q 44.815 2.294 45.248 2.101 A 2.249 2.249 0 0 1 46.024 1.913 A 2.669 2.669 0 0 1 46.2 1.907 A 2.65 2.65 0 0 1 46.717 1.955 Q 47.024 2.016 47.263 2.156 A 1.439 1.439 0 0 1 47.487 2.318 A 1.396 1.396 0 0 1 47.941 3.144 A 1.998 1.998 0 0 1 47.971 3.45 L 47.971 5.638 Q 47.971 6.073 48.044 6.39 A 1.707 1.707 0 0 0 48.138 6.68 L 48.138 6.75 Z M 33.464 4.355 L 33.464 4.425 Q 33.464 5.308 33.136 5.909 A 2.141 2.141 0 0 1 32.963 6.177 A 1.647 1.647 0 0 1 32.377 6.673 Q 32.062 6.828 31.671 6.837 A 2.112 2.112 0 0 1 31.619 6.838 A 2.039 2.039 0 0 1 31.024 6.756 A 1.561 1.561 0 0 1 30.226 6.201 L 30.186 6.75 L 29.439 6.75 L 29.439 0 L 30.252 0 L 30.252 2.518 A 1.605 1.605 0 0 1 31.419 1.915 A 2.285 2.285 0 0 1 31.61 1.907 A 1.835 1.835 0 0 1 32.241 2.011 A 1.579 1.579 0 0 1 32.97 2.562 Q 33.384 3.11 33.451 3.998 A 4.727 4.727 0 0 1 33.464 4.355 Z M 30.252 3.344 L 30.252 5.401 A 1.528 1.528 0 0 0 30.538 5.807 Q 30.86 6.127 31.35 6.147 A 1.621 1.621 0 0 0 31.417 6.148 A 1.206 1.206 0 0 0 31.834 6.079 A 1.04 1.04 0 0 0 32.326 5.695 Q 32.651 5.243 32.651 4.333 Q 32.651 3.502 32.331 3.05 A 1.03 1.03 0 0 0 31.58 2.607 A 1.449 1.449 0 0 0 31.408 2.597 A 1.34 1.34 0 0 0 30.898 2.69 Q 30.48 2.86 30.252 3.344 Z M 27.352 5.418 L 27.352 4.443 L 26.714 4.443 Q 25.22 4.443 25.22 5.317 Q 25.22 5.7 25.475 5.915 A 0.893 0.893 0 0 0 25.889 6.108 A 1.259 1.259 0 0 0 26.13 6.13 A 1.429 1.429 0 0 0 26.855 5.933 A 1.335 1.335 0 0 0 27.151 5.705 A 1.108 1.108 0 0 0 27.352 5.418 Z M 37.296 5.418 L 37.296 4.443 L 36.659 4.443 Q 35.165 4.443 35.165 5.317 Q 35.165 5.7 35.42 5.915 A 0.893 0.893 0 0 0 35.833 6.108 A 1.259 1.259 0 0 0 36.075 6.13 A 1.429 1.429 0 0 0 36.8 5.933 A 1.335 1.335 0 0 0 37.095 5.705 A 1.108 1.108 0 0 0 37.296 5.418 Z M 47.158 5.418 L 47.158 4.443 L 46.521 4.443 Q 45.026 4.443 45.026 5.317 Q 45.026 5.7 45.281 5.915 A 0.893 0.893 0 0 0 45.695 6.108 A 1.259 1.259 0 0 0 45.936 6.13 A 1.429 1.429 0 0 0 46.661 5.933 A 1.335 1.335 0 0 0 46.957 5.705 A 1.108 1.108 0 0 0 47.158 5.418 Z" vector-effect="non-scaling-stroke"/></g><g transform="translate(25, 93)" id="svgGroup" stroke-linecap="round" fill-rule="evenodd" font-size="9pt" stroke="#000" stroke-width="0.25mm" fill="#000" style="stroke:#000;stroke-width:0.25mm;fill:#000"><path d="M 4.931 3.564 L 4.931 5.911 A 1.895 1.895 0 0 1 4.207 6.525 A 2.364 2.364 0 0 1 4.023 6.607 A 3.162 3.162 0 0 1 3.351 6.787 Q 3.04 6.836 2.69 6.838 A 5.148 5.148 0 0 1 2.668 6.838 A 2.838 2.838 0 0 1 1.845 6.722 A 2.459 2.459 0 0 1 1.279 6.471 A 2.43 2.43 0 0 1 0.372 5.49 A 2.924 2.924 0 0 1 0.341 5.427 A 3.277 3.277 0 0 1 0.052 4.497 A 4.307 4.307 0 0 1 0 3.858 L 0 3.3 Q 0 1.854 0.675 1.059 A 2.198 2.198 0 0 1 2.028 0.307 A 3.227 3.227 0 0 1 2.571 0.264 Q 3.573 0.264 4.184 0.776 A 2.047 2.047 0 0 1 4.806 1.701 A 2.896 2.896 0 0 1 4.931 2.228 L 4.087 2.228 Q 3.88 1.12 2.884 0.979 A 2.195 2.195 0 0 0 2.575 0.958 A 1.917 1.917 0 0 0 2.041 1.028 A 1.386 1.386 0 0 0 1.29 1.553 A 1.986 1.986 0 0 0 1.006 2.125 Q 0.919 2.396 0.88 2.726 A 4.871 4.871 0 0 0 0.848 3.278 L 0.848 3.801 A 3.827 3.827 0 0 0 0.906 4.489 Q 1.017 5.096 1.34 5.513 A 1.569 1.569 0 0 0 2.48 6.139 A 2.069 2.069 0 0 0 2.672 6.148 Q 3.105 6.148 3.439 6.06 A 2.106 2.106 0 0 0 3.503 6.042 A 1.357 1.357 0 0 0 3.891 5.86 A 1.217 1.217 0 0 0 4.091 5.687 L 4.091 4.25 L 2.61 4.25 L 2.61 3.564 L 4.931 3.564 Z M 54.716 6.75 L 53.06 4.548 L 52.55 5.08 L 52.55 6.75 L 51.737 6.75 L 51.737 0 L 52.55 0 L 52.55 4.083 L 52.985 3.56 L 54.466 1.995 L 55.455 1.995 L 53.605 3.981 L 55.67 6.75 L 54.716 6.75 Z M 14.058 6.75 L 14.041 6.28 A 1.526 1.526 0 0 1 13.215 6.775 Q 12.964 6.836 12.667 6.838 A 2.996 2.996 0 0 1 12.648 6.838 A 2.086 2.086 0 0 1 12.188 6.79 Q 11.757 6.693 11.49 6.396 A 1.41 1.41 0 0 1 11.207 5.899 Q 11.09 5.556 11.087 5.089 L 11.087 1.995 L 11.9 1.995 L 11.9 5.067 Q 11.9 6.037 12.608 6.137 A 1.229 1.229 0 0 0 12.779 6.148 A 1.927 1.927 0 0 0 13.23 6.099 Q 13.793 5.964 14.019 5.454 L 14.019 1.995 L 14.832 1.995 L 14.832 6.75 L 14.058 6.75 Z M 9.998 6.75 L 9.145 6.75 A 0.632 0.632 0 0 1 9.11 6.66 Q 9.078 6.562 9.054 6.41 A 3.997 3.997 0 0 1 9.031 6.249 Q 8.464 6.838 7.677 6.838 A 2.033 2.033 0 0 1 7.148 6.772 A 1.529 1.529 0 0 1 6.524 6.44 Q 6.073 6.042 6.073 5.432 Q 6.073 4.689 6.638 4.278 Q 7.203 3.867 8.227 3.867 L 9.018 3.867 L 9.018 3.494 A 1.152 1.152 0 0 0 8.982 3.199 A 0.828 0.828 0 0 0 8.763 2.815 Q 8.546 2.6 8.156 2.568 A 1.748 1.748 0 0 0 8.011 2.562 Q 7.576 2.562 7.282 2.782 Q 6.987 3.001 6.987 3.313 L 6.17 3.313 A 1.041 1.041 0 0 1 6.295 2.825 A 1.409 1.409 0 0 1 6.423 2.626 Q 6.675 2.294 7.108 2.101 A 2.249 2.249 0 0 1 7.884 1.913 A 2.669 2.669 0 0 1 8.06 1.907 A 2.65 2.65 0 0 1 8.577 1.955 Q 8.884 2.016 9.123 2.156 A 1.439 1.439 0 0 1 9.347 2.318 A 1.396 1.396 0 0 1 9.801 3.144 A 1.998 1.998 0 0 1 9.831 3.45 L 9.831 5.638 Q 9.831 6.073 9.904 6.39 A 1.707 1.707 0 0 0 9.998 6.68 L 9.998 6.75 Z M 47.58 6.75 L 46.727 6.75 A 0.632 0.632 0 0 1 46.692 6.66 Q 46.66 6.562 46.636 6.41 A 3.997 3.997 0 0 1 46.613 6.249 Q 46.046 6.838 45.259 6.838 A 2.033 2.033 0 0 1 44.73 6.772 A 1.529 1.529 0 0 1 44.106 6.44 Q 43.655 6.042 43.655 5.432 Q 43.655 4.689 44.22 4.278 Q 44.785 3.867 45.809 3.867 L 46.6 3.867 L 46.6 3.494 A 1.152 1.152 0 0 0 46.564 3.199 A 0.828 0.828 0 0 0 46.345 2.815 Q 46.129 2.6 45.738 2.568 A 1.748 1.748 0 0 0 45.593 2.562 Q 45.158 2.562 44.864 2.782 Q 44.569 3.001 44.569 3.313 L 43.752 3.313 A 1.041 1.041 0 0 1 43.877 2.825 A 1.409 1.409 0 0 1 44.005 2.626 Q 44.257 2.294 44.69 2.101 A 2.249 2.249 0 0 1 45.466 1.913 A 2.669 2.669 0 0 1 45.642 1.907 A 2.65 2.65 0 0 1 46.159 1.955 Q 46.466 2.016 46.705 2.156 A 1.439 1.439 0 0 1 46.929 2.318 A 1.396 1.396 0 0 1 47.383 3.144 A 1.998 1.998 0 0 1 47.413 3.45 L 47.413 5.638 Q 47.413 6.073 47.486 6.39 A 1.707 1.707 0 0 0 47.58 6.68 L 47.58 6.75 Z M 15.869 4.395 L 15.869 4.333 A 3.762 3.762 0 0 1 15.936 3.602 Q 16.023 3.16 16.226 2.812 A 2.148 2.148 0 0 1 16.387 2.573 Q 16.906 1.907 17.745 1.907 A 1.964 1.964 0 0 1 18.343 1.994 A 1.559 1.559 0 0 1 19.068 2.479 L 19.068 0 L 19.881 0 L 19.881 6.75 L 19.134 6.75 L 19.094 6.24 Q 18.607 6.838 17.736 6.838 A 1.6 1.6 0 0 1 16.516 6.31 A 2.078 2.078 0 0 1 16.39 6.161 A 2.405 2.405 0 0 1 15.965 5.255 Q 15.881 4.912 15.87 4.51 A 4.425 4.425 0 0 1 15.869 4.395 Z M 28.903 0.352 L 28.903 4.601 L 29.791 4.601 L 29.791 5.265 L 28.903 5.265 L 28.903 6.75 L 28.086 6.75 L 28.086 5.265 L 25.172 5.265 L 25.172 4.786 L 28.037 0.352 L 28.903 0.352 Z M 39.788 6.75 L 38.017 6.75 L 38.017 0.352 L 39.823 0.352 Q 40.658 0.352 41.3 0.721 Q 41.942 1.09 42.291 1.771 A 3.19 3.19 0 0 1 42.608 2.8 A 4.073 4.073 0 0 1 42.645 3.335 L 42.645 3.744 Q 42.645 4.649 42.295 5.331 A 2.457 2.457 0 0 1 41.298 6.376 Q 40.65 6.741 39.788 6.75 Z M 34.301 2.592 A 1.544 1.544 0 0 0 34.405 2.021 A 2.226 2.226 0 0 0 34.383 1.707 A 1.566 1.566 0 0 0 33.884 0.738 A 1.754 1.754 0 0 0 33.118 0.333 A 2.443 2.443 0 0 0 32.52 0.264 A 2.539 2.539 0 0 0 32.01 0.312 A 1.767 1.767 0 0 0 31.153 0.738 Q 30.634 1.213 30.634 2.021 A 1.808 1.808 0 0 0 30.635 2.058 A 1.499 1.499 0 0 0 30.88 2.87 A 1.626 1.626 0 0 0 31.042 3.077 A 1.726 1.726 0 0 0 31.553 3.454 A 2.119 2.119 0 0 0 31.453 3.5 A 1.738 1.738 0 0 0 30.768 4.087 A 1.629 1.629 0 0 0 30.485 5.023 A 2.272 2.272 0 0 0 30.495 5.237 A 1.63 1.63 0 0 0 31.041 6.344 A 1.895 1.895 0 0 0 31.891 6.771 A 2.797 2.797 0 0 0 32.52 6.838 A 2.796 2.796 0 0 0 33.119 6.777 A 1.925 1.925 0 0 0 33.994 6.346 A 1.578 1.578 0 0 0 34.469 5.62 A 1.989 1.989 0 0 0 34.554 5.023 A 1.581 1.581 0 0 0 34.262 4.087 Q 33.97 3.674 33.469 3.458 Q 33.9 3.248 34.152 2.874 A 1.449 1.449 0 0 0 34.301 2.592 Z M 50.985 1.969 L 50.985 2.725 A 2.251 2.251 0 0 0 50.743 2.698 A 2.782 2.782 0 0 0 50.586 2.694 Q 49.808 2.694 49.516 3.338 A 1.445 1.445 0 0 0 49.5 3.375 L 49.5 6.75 L 48.687 6.75 L 48.687 1.995 L 49.478 1.995 L 49.491 2.544 Q 49.872 1.938 50.554 1.909 A 1.636 1.636 0 0 1 50.625 1.907 Q 50.862 1.907 50.985 1.969 Z M 39.845 1.046 L 38.861 1.046 L 38.861 6.06 L 39.749 6.06 A 2.519 2.519 0 0 0 40.381 5.985 A 1.747 1.747 0 0 0 41.267 5.454 Q 41.726 4.94 41.797 4.059 A 4.165 4.165 0 0 0 41.81 3.727 L 41.81 3.353 Q 41.81 2.562 41.54 2.027 A 1.864 1.864 0 0 0 41.298 1.659 A 1.687 1.687 0 0 0 40.302 1.09 A 2.499 2.499 0 0 0 39.845 1.046 Z M 22.025 1.995 L 22.025 6.75 L 21.212 6.75 L 21.212 1.995 L 22.025 1.995 Z M 19.068 5.454 L 19.068 3.27 A 1.375 1.375 0 0 0 18.756 2.874 Q 18.432 2.597 17.947 2.597 A 1.238 1.238 0 0 0 17.521 2.668 A 1.068 1.068 0 0 0 17.016 3.059 A 1.51 1.51 0 0 0 16.807 3.484 Q 16.741 3.689 16.71 3.939 A 3.955 3.955 0 0 0 16.682 4.425 A 3.162 3.162 0 0 0 16.718 4.918 Q 16.759 5.178 16.847 5.389 A 1.474 1.474 0 0 0 17.016 5.691 A 1.06 1.06 0 0 0 17.778 6.139 A 1.391 1.391 0 0 0 17.939 6.148 Q 18.712 6.148 19.068 5.454 Z M 27.989 1.639 L 26.095 4.601 L 28.086 4.601 L 28.086 1.463 L 27.989 1.639 Z M 33.741 5.005 A 1.375 1.375 0 0 0 33.682 4.592 A 1.109 1.109 0 0 0 33.401 4.131 A 1.148 1.148 0 0 0 32.729 3.807 A 1.593 1.593 0 0 0 32.511 3.792 A 1.466 1.466 0 0 0 32.122 3.841 A 1.086 1.086 0 0 0 31.63 4.126 A 1.123 1.123 0 0 0 31.316 4.762 A 1.572 1.572 0 0 0 31.298 5.005 A 1.48 1.48 0 0 0 31.34 5.367 A 1.019 1.019 0 0 0 31.621 5.862 Q 31.927 6.158 32.46 6.173 A 2.053 2.053 0 0 0 32.52 6.174 Q 33.013 6.174 33.323 5.94 A 1.018 1.018 0 0 0 33.416 5.86 A 1.041 1.041 0 0 0 33.715 5.292 A 1.518 1.518 0 0 0 33.741 5.005 Z M 32.52 0.932 A 1.259 1.259 0 0 0 32.167 0.979 A 0.973 0.973 0 0 0 31.744 1.228 Q 31.447 1.525 31.447 2.035 A 1.325 1.325 0 0 0 31.492 2.387 A 0.994 0.994 0 0 0 31.74 2.823 A 0.974 0.974 0 0 0 32.302 3.108 A 1.382 1.382 0 0 0 32.52 3.125 A 1.279 1.279 0 0 0 32.864 3.08 A 0.952 0.952 0 0 0 33.3 2.823 A 1.018 1.018 0 0 0 33.575 2.26 A 1.426 1.426 0 0 0 33.592 2.035 A 1.282 1.282 0 0 0 33.542 1.668 A 1.013 1.013 0 0 0 33.289 1.239 Q 32.985 0.932 32.52 0.932 Z M 9.018 5.418 L 9.018 4.443 L 8.38 4.443 Q 6.886 4.443 6.886 5.317 Q 6.886 5.7 7.141 5.915 A 0.893 0.893 0 0 0 7.555 6.108 A 1.259 1.259 0 0 0 7.796 6.13 A 1.429 1.429 0 0 0 8.521 5.933 A 1.335 1.335 0 0 0 8.817 5.705 A 1.108 1.108 0 0 0 9.018 5.418 Z M 46.6 5.418 L 46.6 4.443 L 45.962 4.443 Q 44.468 4.443 44.468 5.317 Q 44.468 5.7 44.723 5.915 A 0.893 0.893 0 0 0 45.137 6.108 A 1.259 1.259 0 0 0 45.378 6.13 A 1.429 1.429 0 0 0 46.103 5.933 A 1.335 1.335 0 0 0 46.399 5.705 A 1.108 1.108 0 0 0 46.6 5.418 Z M 21.147 0.734 Q 21.147 0.536 21.267 0.4 Q 21.379 0.274 21.591 0.264 A 0.783 0.783 0 0 1 21.626 0.264 Q 21.863 0.264 21.986 0.4 A 0.474 0.474 0 0 1 22.108 0.703 A 0.614 0.614 0 0 1 22.109 0.734 A 0.523 0.523 0 0 1 22.084 0.9 A 0.442 0.442 0 0 1 21.986 1.063 Q 21.873 1.184 21.665 1.194 A 0.803 0.803 0 0 1 21.626 1.195 Q 21.453 1.195 21.342 1.126 A 0.362 0.362 0 0 1 21.267 1.063 A 0.456 0.456 0 0 1 21.149 0.788 A 0.605 0.605 0 0 1 21.147 0.734 Z" vector-effect="non-scaling-stroke"/></g>
</svgversion="1.0" encoding="UTF-8"?>
<svg width="48px" height="48px" viewBox="0 0 48 48" version="1.1" xmlns="http://www.w3.org/2000/svg" xmlns:xlink="http://www.w3.org/1999/xlink">
    <title>Icon-Resource/Compute/Res_Amazon-EC2_Habana-Gaudi_48_Dark</title>
    <g id="Icon-Resource/Compute/Res_Amazon-EC2_Habana-Gaudi_48" stroke="none" stroke-width="1" fill="none" fill-rule="evenodd">
        <path transform="translate(12.000000, 8.000000), scale(.65)" d="M9,39 L39,39 L39,9 L9,9 L9,39 Z M41,13 L41,17 L46,17 L46,19 L41,19 L41,23 L46,23 L46,25 L41,25 L41,29 L46,29 L46,31 L41,31 L41,35 L46,35 L46,37 L41,37 L41,40 C41,40.552 40.553,41 40,41 L37,41 L37,46 L35,46 L35,41 L31,41 L31,46 L29,46 L29,41 L25,41 L25,46 L23,46 L23,41 L19,41 L19,46 L17,46 L17,41 L13,41 L13,46 L11,46 L11,41 L8,41 C7.447,41 7,40.552 7,40 L7,37 L2,37 L2,35 L7,35 L7,31 L2,31 L2,29 L7,29 L7,25 L2,25 L2,23 L7,23 L7,19 L2,19 L2,17 L7,17 L7,13 L2,13 L2,11 L7,11 L7,8 C7,7.448 7.447,7 8,7 L11,7 L11,2 L13,2 L13,7 L17,7 L17,2 L19,2 L19,7 L23,7 L23,2 L25,2 L25,7 L29,7 L29,2 L31,2 L31,7 L35,7 L35,2 L37,2 L37,7 L40,7 C40.553,7 41,7.448 41,8 L41,11 L46,11 L46,13 L41,13 Z M32.728,26.763 C32.728,26.934 32.778,27.067 32.88,27.163 C32.98,27.259 33.119,27.307 33.296,27.307 C33.472,27.307 33.61,27.259 33.712,27.163 C33.812,27.067 33.863,26.934 33.863,26.763 C33.863,26.593 33.812,26.459 33.712,26.363 C33.61,26.267 33.472,26.219 33.296,26.219 C33.119,26.219 32.98,26.267 32.88,26.363 C32.778,26.459 32.728,26.593 32.728,26.763 L32.728,26.763 Z M32.823,32.051 L33.767,32.051 L33.767,27.979 L32.823,27.979 L32.823,32.051 Z M28.912,29.987 C28.912,30.926 29.253,31.396 29.936,31.396 C30.25,31.396 30.557,31.294 30.855,31.091 L30.855,28.891 C30.584,28.699 30.282,28.603 29.952,28.603 C29.595,28.603 29.332,28.717 29.164,28.943 C28.996,29.17 28.912,29.518 28.912,29.987 L28.912,29.987 Z M28.76,28.135 C29.021,27.951 29.33,27.859 29.687,27.859 C30.114,27.859 30.504,27.998 30.855,28.275 L30.855,26.131 L31.8,26.131 L31.8,32.051 L30.992,32.051 L30.896,31.659 C30.533,31.979 30.114,32.139 29.64,32.139 C29.128,32.139 28.719,31.949 28.412,31.567 C28.105,31.186 27.952,30.673 27.952,30.027 C27.952,29.601 28.021,29.225 28.16,28.899 C28.299,28.574 28.498,28.319 28.76,28.135 L28.76,28.135 Z M23.607,27.979 L23.607,30.947 C23.607,31.342 23.71,31.645 23.916,31.855 C24.121,32.066 24.413,32.171 24.792,32.171 C25.287,32.171 25.786,31.982 26.287,31.603 L26.384,32.051 L27.168,32.051 L27.168,27.979 L26.224,27.979 L26.224,31.099 C25.888,31.318 25.554,31.427 25.224,31.427 C24.989,31.427 24.818,31.366 24.712,31.243 C24.604,31.121 24.552,30.929 24.552,30.667 L24.552,27.979 L23.607,27.979 Z M21.792,30.347 C21.516,30.289 21.271,30.259 21.059,30.259 C20.518,30.259 20.247,30.475 20.247,30.907 C20.247,31.094 20.3,31.239 20.403,31.343 C20.508,31.447 20.65,31.5 20.832,31.5 C20.983,31.5 21.142,31.466 21.308,31.399 C21.475,31.333 21.636,31.238 21.792,31.115 L21.792,30.347 Z M19.567,28.188 C19.769,28.086 20.014,28.006 20.305,27.947 C20.595,27.889 20.887,27.859 21.18,27.859 C21.712,27.859 22.104,27.966 22.356,28.179 C22.609,28.393 22.735,28.726 22.735,29.179 L22.735,32.051 L21.911,32.051 L21.84,31.659 C21.652,31.819 21.446,31.945 21.22,32.035 C20.993,32.126 20.768,32.171 20.544,32.171 C20.17,32.171 19.867,32.059 19.636,31.835 C19.403,31.611 19.287,31.321 19.287,30.963 C19.287,30.569 19.43,30.254 19.716,30.019 C20.001,29.785 20.384,29.667 20.863,29.667 C21.146,29.667 21.455,29.707 21.792,29.787 L21.792,29.315 C21.792,29.043 21.732,28.854 21.615,28.747 C21.498,28.641 21.293,28.587 21,28.587 C20.584,28.587 20.106,28.675 19.567,28.851 L19.567,28.188 Z M16.512,29.787 L17.656,29.787 L17.656,31.251 C17.41,31.299 17.16,31.323 16.903,31.323 C16.259,31.323 15.785,31.167 15.483,30.855 C15.183,30.543 15.032,30.054 15.032,29.387 L15.032,29.219 C15.032,28.542 15.184,28.043 15.488,27.723 C15.793,27.403 16.26,27.243 16.891,27.243 C17.363,27.243 17.88,27.336 18.439,27.523 L18.439,26.747 C17.969,26.529 17.431,26.419 16.824,26.419 C15.926,26.419 15.237,26.668 14.758,27.167 C14.279,27.666 14.04,28.382 14.04,29.315 C14.04,30.232 14.272,30.934 14.737,31.419 C15.203,31.905 15.879,32.147 16.766,32.147 C17.112,32.147 17.448,32.111 17.775,32.039 C18.104,31.967 18.389,31.867 18.632,31.739 L18.632,29.019 L16.512,29.019 L16.512,29.787 Z M36.248,20.747 C35.972,20.688 35.728,20.659 35.515,20.659 C34.974,20.659 34.703,20.875 34.703,21.307 C34.703,21.494 34.756,21.639 34.859,21.743 C34.964,21.847 35.106,21.899 35.288,21.899 C35.439,21.899 35.598,21.866 35.764,21.799 C35.931,21.732 36.092,21.638 36.248,21.515 L36.248,20.747 Z M36.248,20.187 L36.248,19.715 C36.248,19.443 36.188,19.254 36.071,19.147 C35.954,19.041 35.749,18.987 35.456,18.987 C35.04,18.987 34.563,19.075 34.023,19.251 L34.023,18.587 C34.225,18.486 34.47,18.406 34.761,18.347 C35.051,18.289 35.343,18.259 35.636,18.259 C36.168,18.259 36.561,18.366 36.813,18.579 C37.065,18.792 37.191,19.126 37.191,19.579 L37.191,22.451 L36.367,22.451 L36.296,22.059 C36.108,22.219 35.902,22.345 35.676,22.435 C35.449,22.526 35.224,22.571 35,22.571 C34.626,22.571 34.323,22.459 34.092,22.235 C33.859,22.011 33.743,21.721 33.743,21.363 C33.743,20.969 33.886,20.654 34.172,20.419 C34.457,20.185 34.84,20.067 35.319,20.067 C35.603,20.067 35.911,20.107 36.248,20.187 L36.248,20.187 Z M30.336,19.355 C30.704,19.121 31.063,19.003 31.416,19.003 C31.65,19.003 31.821,19.063 31.928,19.183 C32.034,19.303 32.088,19.494 32.088,19.755 L32.088,22.451 L33.031,22.451 L33.031,19.459 C33.031,19.07 32.931,18.772 32.728,18.567 C32.525,18.362 32.229,18.259 31.84,18.259 C31.296,18.259 30.772,18.449 30.271,18.827 L30.176,18.379 L29.392,18.379 L29.392,22.451 L30.336,22.451 L30.336,19.355 Z M27.536,20.747 C27.26,20.688 27.016,20.659 26.803,20.659 C26.262,20.659 25.991,20.875 25.991,21.307 C25.991,21.494 26.044,21.639 26.147,21.743 C26.252,21.847 26.395,21.899 26.576,21.899 C26.728,21.899 26.886,21.866 27.052,21.799 C27.219,21.732 27.38,21.638 27.536,21.515 L27.536,20.747 Z M27.536,20.187 L27.536,19.715 C27.536,19.443 27.477,19.254 27.359,19.147 C27.242,19.041 27.037,18.987 26.744,18.987 C26.328,18.987 25.851,19.075 25.312,19.251 L25.312,18.587 C25.513,18.486 25.758,18.406 26.049,18.347 C26.339,18.289 26.631,18.259 26.924,18.259 C27.456,18.259 27.849,18.366 28.101,18.579 C28.354,18.792 28.479,19.126 28.479,19.579 L28.479,22.451 L27.655,22.451 L27.584,22.059 C27.396,22.219 27.19,22.345 26.964,22.435 C26.737,22.526 26.512,22.571 26.288,22.571 C25.914,22.571 25.611,22.459 25.38,22.235 C25.147,22.011 25.031,21.721 25.031,21.363 C25.031,20.969 25.174,20.654 25.46,20.419 C25.745,20.185 26.128,20.067 26.607,20.067 C26.891,20.067 27.199,20.107 27.536,20.187 L27.536,20.187 Z M21.584,21.483 C21.883,21.691 22.2,21.795 22.536,21.795 C22.877,21.795 23.13,21.679 23.296,21.447 C23.461,21.215 23.544,20.862 23.544,20.387 C23.544,19.918 23.462,19.57 23.3,19.343 C23.137,19.117 22.885,19.003 22.544,19.003 C22.197,19.003 21.877,19.104 21.584,19.307 L21.584,21.483 Z M21.424,22.451 L20.64,22.451 L20.64,16.531 L21.584,16.531 L21.584,18.739 C21.962,18.419 22.381,18.259 22.84,18.259 C23.347,18.259 23.75,18.449 24.052,18.827 C24.353,19.206 24.504,19.715 24.504,20.355 C24.504,20.782 24.435,21.159 24.296,21.487 C24.157,21.815 23.957,22.073 23.695,22.259 C23.435,22.446 23.128,22.539 22.775,22.539 C22.536,22.539 22.307,22.495 22.088,22.407 C21.869,22.319 21.68,22.195 21.52,22.035 L21.424,22.451 Z M18.784,20.747 C18.508,20.688 18.264,20.659 18.051,20.659 C17.51,20.659 17.239,20.875 17.239,21.307 C17.239,21.494 17.292,21.639 17.396,21.743 C17.5,21.847 17.643,21.899 17.824,21.899 C17.976,21.899 18.134,21.866 18.3,21.799 C18.467,21.732 18.628,21.638 18.784,21.515 L18.784,20.747 Z M18.784,20.187 L18.784,19.715 C18.784,19.443 18.725,19.254 18.607,19.147 C18.49,19.041 18.285,18.987 17.992,18.987 C17.576,18.987 17.099,19.075 16.56,19.251 L16.56,18.587 C16.761,18.486 17.006,18.406 17.297,18.347 C17.587,18.289 17.879,18.259 18.172,18.259 C18.704,18.259 19.097,18.366 19.349,18.579 C19.602,18.792 19.728,19.126 19.728,19.579 L19.728,22.451 L18.903,22.451 L18.832,22.059 C18.645,22.219 18.438,22.345 18.212,22.435 C17.985,22.526 17.76,22.571 17.536,22.571 C17.162,22.571 16.859,22.459 16.628,22.235 C16.396,22.011 16.279,21.721 16.279,21.363 C16.279,20.969 16.422,20.654 16.708,20.419 C16.993,20.185 17.376,20.067 17.855,20.067 C18.139,20.067 18.447,20.107 18.784,20.187 L18.784,20.187 Z M11.943,22.451 L10.968,22.451 L10.968,16.907 L11.943,16.907 L11.943,19.235 L14.487,19.235 L14.487,16.907 L15.464,16.907 L15.464,22.451 L14.487,22.451 L14.487,20.019 L11.943,20.019 L11.943,22.451 Z" id="Fill-1" fill="#000000"></path>
    </g><g transform="translate(25, 83)" id="svgGroup" stroke-linecap="round" fill-rule="evenodd" font-size="9pt" stroke="#000" stroke-width="0.25mm" fill="#000" style="stroke:#000;stroke-width:0.25mm;fill:#000"><path d="M 23.172 0.352 L 23.172 6.75 L 22.324 6.75 L 22.324 3.792 L 19.099 3.792 L 19.099 6.75 L 18.255 6.75 L 18.255 0.352 L 19.099 0.352 L 19.099 3.103 L 22.324 3.103 L 22.324 0.352 L 23.172 0.352 Z M 3.617 3.103 L 3.617 3.792 L 0.844 3.792 L 0.844 6.06 L 4.065 6.06 L 4.065 6.75 L 0 6.75 L 0 0.352 L 4.021 0.352 L 4.021 1.046 L 0.844 1.046 L 0.844 3.103 L 3.617 3.103 Z M 8.974 4.72 L 9.822 4.72 A 3.016 3.016 0 0 1 9.661 5.416 A 2.099 2.099 0 0 1 9.073 6.286 Q 8.442 6.838 7.396 6.838 A 2.553 2.553 0 0 1 6.527 6.696 A 2.194 2.194 0 0 1 5.579 6.025 A 2.789 2.789 0 0 1 5.017 4.901 Q 4.911 4.484 4.897 3.992 A 5.262 5.262 0 0 1 4.896 3.85 L 4.896 3.234 A 4.251 4.251 0 0 1 4.966 2.445 A 3.229 3.229 0 0 1 5.214 1.666 A 2.539 2.539 0 0 1 5.67 0.99 A 2.26 2.26 0 0 1 6.117 0.626 A 2.415 2.415 0 0 1 7.143 0.281 A 3.027 3.027 0 0 1 7.471 0.264 A 2.962 2.962 0 0 1 8.177 0.343 A 2.065 2.065 0 0 1 9.105 0.833 A 2.16 2.16 0 0 1 9.7 1.795 A 3.086 3.086 0 0 1 9.822 2.408 L 8.974 2.408 Q 8.905 1.929 8.735 1.616 A 1.223 1.223 0 0 0 8.497 1.301 A 1.207 1.207 0 0 0 7.992 1.024 Q 7.804 0.971 7.581 0.961 A 2.396 2.396 0 0 0 7.471 0.958 A 1.753 1.753 0 0 0 6.892 1.049 A 1.463 1.463 0 0 0 6.203 1.556 A 1.989 1.989 0 0 0 5.889 2.175 Q 5.744 2.636 5.744 3.256 L 5.744 3.876 Q 5.744 4.917 6.179 5.533 A 1.38 1.38 0 0 0 7.177 6.135 A 1.814 1.814 0 0 0 7.396 6.148 A 2.497 2.497 0 0 0 7.803 6.117 Q 8.023 6.08 8.199 6.002 A 1.155 1.155 0 0 0 8.475 5.829 Q 8.851 5.511 8.974 4.72 Z M 14.955 6.086 L 14.955 6.75 L 10.762 6.75 L 10.762 6.166 L 12.977 3.705 A 9.853 9.853 0 0 0 13.23 3.407 Q 13.468 3.115 13.601 2.894 A 2.159 2.159 0 0 0 13.656 2.797 Q 13.843 2.448 13.843 2.074 A 1.354 1.354 0 0 0 13.791 1.69 A 1.067 1.067 0 0 0 13.54 1.252 Q 13.236 0.932 12.731 0.932 A 1.71 1.71 0 0 0 12.346 0.972 Q 12.009 1.05 11.788 1.277 Q 11.469 1.605 11.453 2.177 A 2.18 2.18 0 0 0 11.452 2.237 L 10.639 2.237 Q 10.639 1.354 11.208 0.809 A 1.914 1.914 0 0 1 12.166 0.318 A 2.782 2.782 0 0 1 12.731 0.264 A 2.749 2.749 0 0 1 13.312 0.322 Q 13.69 0.403 13.975 0.6 A 1.626 1.626 0 0 1 14.142 0.732 A 1.546 1.546 0 0 1 14.65 1.765 A 2.151 2.151 0 0 1 14.66 1.978 A 1.917 1.917 0 0 1 14.519 2.666 Q 14.298 3.241 13.725 3.922 A 8.818 8.818 0 0 1 13.456 4.228 L 11.742 6.086 L 14.955 6.086 Z M 39.384 1.995 L 40.153 1.995 L 40.179 2.593 Q 40.716 1.918 41.575 1.907 A 2.234 2.234 0 0 1 41.603 1.907 A 1.905 1.905 0 0 1 42.237 2.004 Q 43.078 2.3 43.121 3.506 A 3.668 3.668 0 0 1 43.124 3.608 L 43.124 6.75 L 42.311 6.75 L 42.311 3.604 A 1.837 1.837 0 0 0 42.288 3.324 Q 42.238 3.017 42.075 2.843 Q 41.889 2.645 41.536 2.606 A 1.66 1.66 0 0 0 41.357 2.597 A 1.253 1.253 0 0 0 40.943 2.664 A 1.123 1.123 0 0 0 40.663 2.808 A 1.432 1.432 0 0 0 40.197 3.362 L 40.197 6.75 L 39.384 6.75 L 39.384 1.995 Z M 28.332 6.75 L 27.479 6.75 A 0.632 0.632 0 0 1 27.444 6.66 Q 27.412 6.562 27.387 6.41 A 3.997 3.997 0 0 1 27.365 6.249 Q 26.798 6.838 26.011 6.838 A 2.033 2.033 0 0 1 25.482 6.772 A 1.529 1.529 0 0 1 24.858 6.44 Q 24.407 6.042 24.407 5.432 Q 24.407 4.689 24.972 4.278 Q 25.537 3.867 26.561 3.867 L 27.352 3.867 L 27.352 3.494 A 1.152 1.152 0 0 0 27.316 3.199 A 0.828 0.828 0 0 0 27.097 2.815 Q 26.88 2.6 26.49 2.568 A 1.748 1.748 0 0 0 26.345 2.562 Q 25.91 2.562 25.616 2.782 Q 25.321 3.001 25.321 3.313 L 24.504 3.313 A 1.041 1.041 0 0 1 24.629 2.825 A 1.409 1.409 0 0 1 24.757 2.626 Q 25.009 2.294 25.442 2.101 A 2.249 2.249 0 0 1 26.218 1.913 A 2.669 2.669 0 0 1 26.394 1.907 A 2.65 2.65 0 0 1 26.911 1.955 Q 27.218 2.016 27.457 2.156 A 1.439 1.439 0 0 1 27.681 2.318 A 1.396 1.396 0 0 1 28.135 3.144 A 1.998 1.998 0 0 1 28.165 3.45 L 28.165 5.638 Q 28.165 6.073 28.238 6.39 A 1.707 1.707 0 0 0 28.332 6.68 L 28.332 6.75 Z M 38.276 6.75 L 37.424 6.75 A 0.632 0.632 0 0 1 37.388 6.66 Q 37.357 6.562 37.332 6.41 A 3.997 3.997 0 0 1 37.31 6.249 Q 36.743 6.838 35.956 6.838 A 2.033 2.033 0 0 1 35.427 6.772 A 1.529 1.529 0 0 1 34.802 6.44 Q 34.352 6.042 34.352 5.432 Q 34.352 4.689 34.917 4.278 Q 35.481 3.867 36.505 3.867 L 37.296 3.867 L 37.296 3.494 A 1.152 1.152 0 0 0 37.261 3.199 A 0.828 0.828 0 0 0 37.042 2.815 Q 36.825 2.6 36.435 2.568 A 1.748 1.748 0 0 0 36.29 2.562 Q 35.855 2.562 35.561 2.782 Q 35.266 3.001 35.266 3.313 L 34.449 3.313 A 1.041 1.041 0 0 1 34.574 2.825 A 1.409 1.409 0 0 1 34.701 2.626 Q 34.954 2.294 35.387 2.101 A 2.249 2.249 0 0 1 36.163 1.913 A 2.669 2.669 0 0 1 36.338 1.907 A 2.65 2.65 0 0 1 36.856 1.955 Q 37.163 2.016 37.402 2.156 A 1.439 1.439 0 0 1 37.626 2.318 A 1.396 1.396 0 0 1 38.079 3.144 A 1.998 1.998 0 0 1 38.109 3.45 L 38.109 5.638 Q 38.109 6.073 38.183 6.39 A 1.707 1.707 0 0 0 38.276 6.68 L 38.276 6.75 Z M 48.138 6.75 L 47.285 6.75 A 0.632 0.632 0 0 1 47.25 6.66 Q 47.218 6.562 47.194 6.41 A 3.997 3.997 0 0 1 47.171 6.249 Q 46.604 6.838 45.817 6.838 A 2.033 2.033 0 0 1 45.288 6.772 A 1.529 1.529 0 0 1 44.664 6.44 Q 44.213 6.042 44.213 5.432 Q 44.213 4.689 44.778 4.278 Q 45.343 3.867 46.367 3.867 L 47.158 3.867 L 47.158 3.494 A 1.152 1.152 0 0 0 47.122 3.199 A 0.828 0.828 0 0 0 46.903 2.815 Q 46.687 2.6 46.296 2.568 A 1.748 1.748 0 0 0 46.151 2.562 Q 45.716 2.562 45.422 2.782 Q 45.127 3.001 45.127 3.313 L 44.31 3.313 A 1.041 1.041 0 0 1 44.435 2.825 A 1.409 1.409 0 0 1 44.563 2.626 Q 44.815 2.294 45.248 2.101 A 2.249 2.249 0 0 1 46.024 1.913 A 2.669 2.669 0 0 1 46.2 1.907 A 2.65 2.65 0 0 1 46.717 1.955 Q 47.024 2.016 47.263 2.156 A 1.439 1.439 0 0 1 47.487 2.318 A 1.396 1.396 0 0 1 47.941 3.144 A 1.998 1.998 0 0 1 47.971 3.45 L 47.971 5.638 Q 47.971 6.073 48.044 6.39 A 1.707 1.707 0 0 0 48.138 6.68 L 48.138 6.75 Z M 33.464 4.355 L 33.464 4.425 Q 33.464 5.308 33.136 5.909 A 2.141 2.141 0 0 1 32.963 6.177 A 1.647 1.647 0 0 1 32.377 6.673 Q 32.062 6.828 31.671 6.837 A 2.112 2.112 0 0 1 31.619 6.838 A 2.039 2.039 0 0 1 31.024 6.756 A 1.561 1.561 0 0 1 30.226 6.201 L 30.186 6.75 L 29.439 6.75 L 29.439 0 L 30.252 0 L 30.252 2.518 A 1.605 1.605 0 0 1 31.419 1.915 A 2.285 2.285 0 0 1 31.61 1.907 A 1.835 1.835 0 0 1 32.241 2.011 A 1.579 1.579 0 0 1 32.97 2.562 Q 33.384 3.11 33.451 3.998 A 4.727 4.727 0 0 1 33.464 4.355 Z M 30.252 3.344 L 30.252 5.401 A 1.528 1.528 0 0 0 30.538 5.807 Q 30.86 6.127 31.35 6.147 A 1.621 1.621 0 0 0 31.417 6.148 A 1.206 1.206 0 0 0 31.834 6.079 A 1.04 1.04 0 0 0 32.326 5.695 Q 32.651 5.243 32.651 4.333 Q 32.651 3.502 32.331 3.05 A 1.03 1.03 0 0 0 31.58 2.607 A 1.449 1.449 0 0 0 31.408 2.597 A 1.34 1.34 0 0 0 30.898 2.69 Q 30.48 2.86 30.252 3.344 Z M 27.352 5.418 L 27.352 4.443 L 26.714 4.443 Q 25.22 4.443 25.22 5.317 Q 25.22 5.7 25.475 5.915 A 0.893 0.893 0 0 0 25.889 6.108 A 1.259 1.259 0 0 0 26.13 6.13 A 1.429 1.429 0 0 0 26.855 5.933 A 1.335 1.335 0 0 0 27.151 5.705 A 1.108 1.108 0 0 0 27.352 5.418 Z M 37.296 5.418 L 37.296 4.443 L 36.659 4.443 Q 35.165 4.443 35.165 5.317 Q 35.165 5.7 35.42 5.915 A 0.893 0.893 0 0 0 35.833 6.108 A 1.259 1.259 0 0 0 36.075 6.13 A 1.429 1.429 0 0 0 36.8 5.933 A 1.335 1.335 0 0 0 37.095 5.705 A 1.108 1.108 0 0 0 37.296 5.418 Z M 47.158 5.418 L 47.158 4.443 L 46.521 4.443 Q 45.026 4.443 45.026 5.317 Q 45.026 5.7 45.281 5.915 A 0.893 0.893 0 0 0 45.695 6.108 A 1.259 1.259 0 0 0 45.936 6.13 A 1.429 1.429 0 0 0 46.661 5.933 A 1.335 1.335 0 0 0 46.957 5.705 A 1.108 1.108 0 0 0 47.158 5.418 Z" vector-effect="non-scaling-stroke"/></g><g transform="translate(25, 93)" id="svgGroup" stroke-linecap="round" fill-rule="evenodd" font-size="9pt" stroke="#000" stroke-width="0.25mm" fill="#000" style="stroke:#000;stroke-width:0.25mm;fill:#000"><path d="M 4.931 3.564 L 4.931 5.911 A 1.895 1.895 0 0 1 4.207 6.525 A 2.364 2.364 0 0 1 4.023 6.607 A 3.162 3.162 0 0 1 3.351 6.787 Q 3.04 6.836 2.69 6.838 A 5.148 5.148 0 0 1 2.668 6.838 A 2.838 2.838 0 0 1 1.845 6.722 A 2.459 2.459 0 0 1 1.279 6.471 A 2.43 2.43 0 0 1 0.372 5.49 A 2.924 2.924 0 0 1 0.341 5.427 A 3.277 3.277 0 0 1 0.052 4.497 A 4.307 4.307 0 0 1 0 3.858 L 0 3.3 Q 0 1.854 0.675 1.059 A 2.198 2.198 0 0 1 2.028 0.307 A 3.227 3.227 0 0 1 2.571 0.264 Q 3.573 0.264 4.184 0.776 A 2.047 2.047 0 0 1 4.806 1.701 A 2.896 2.896 0 0 1 4.931 2.228 L 4.087 2.228 Q 3.88 1.12 2.884 0.979 A 2.195 2.195 0 0 0 2.575 0.958 A 1.917 1.917 0 0 0 2.041 1.028 A 1.386 1.386 0 0 0 1.29 1.553 A 1.986 1.986 0 0 0 1.006 2.125 Q 0.919 2.396 0.88 2.726 A 4.871 4.871 0 0 0 0.848 3.278 L 0.848 3.801 A 3.827 3.827 0 0 0 0.906 4.489 Q 1.017 5.096 1.34 5.513 A 1.569 1.569 0 0 0 2.48 6.139 A 2.069 2.069 0 0 0 2.672 6.148 Q 3.105 6.148 3.439 6.06 A 2.106 2.106 0 0 0 3.503 6.042 A 1.357 1.357 0 0 0 3.891 5.86 A 1.217 1.217 0 0 0 4.091 5.687 L 4.091 4.25 L 2.61 4.25 L 2.61 3.564 L 4.931 3.564 Z M 54.716 6.75 L 53.06 4.548 L 52.55 5.08 L 52.55 6.75 L 51.737 6.75 L 51.737 0 L 52.55 0 L 52.55 4.083 L 52.985 3.56 L 54.466 1.995 L 55.455 1.995 L 53.605 3.981 L 55.67 6.75 L 54.716 6.75 Z M 14.058 6.75 L 14.041 6.28 A 1.526 1.526 0 0 1 13.215 6.775 Q 12.964 6.836 12.667 6.838 A 2.996 2.996 0 0 1 12.648 6.838 A 2.086 2.086 0 0 1 12.188 6.79 Q 11.757 6.693 11.49 6.396 A 1.41 1.41 0 0 1 11.207 5.899 Q 11.09 5.556 11.087 5.089 L 11.087 1.995 L 11.9 1.995 L 11.9 5.067 Q 11.9 6.037 12.608 6.137 A 1.229 1.229 0 0 0 12.779 6.148 A 1.927 1.927 0 0 0 13.23 6.099 Q 13.793 5.964 14.019 5.454 L 14.019 1.995 L 14.832 1.995 L 14.832 6.75 L 14.058 6.75 Z M 9.998 6.75 L 9.145 6.75 A 0.632 0.632 0 0 1 9.11 6.66 Q 9.078 6.562 9.054 6.41 A 3.997 3.997 0 0 1 9.031 6.249 Q 8.464 6.838 7.677 6.838 A 2.033 2.033 0 0 1 7.148 6.772 A 1.529 1.529 0 0 1 6.524 6.44 Q 6.073 6.042 6.073 5.432 Q 6.073 4.689 6.638 4.278 Q 7.203 3.867 8.227 3.867 L 9.018 3.867 L 9.018 3.494 A 1.152 1.152 0 0 0 8.982 3.199 A 0.828 0.828 0 0 0 8.763 2.815 Q 8.546 2.6 8.156 2.568 A 1.748 1.748 0 0 0 8.011 2.562 Q 7.576 2.562 7.282 2.782 Q 6.987 3.001 6.987 3.313 L 6.17 3.313 A 1.041 1.041 0 0 1 6.295 2.825 A 1.409 1.409 0 0 1 6.423 2.626 Q 6.675 2.294 7.108 2.101 A 2.249 2.249 0 0 1 7.884 1.913 A 2.669 2.669 0 0 1 8.06 1.907 A 2.65 2.65 0 0 1 8.577 1.955 Q 8.884 2.016 9.123 2.156 A 1.439 1.439 0 0 1 9.347 2.318 A 1.396 1.396 0 0 1 9.801 3.144 A 1.998 1.998 0 0 1 9.831 3.45 L 9.831 5.638 Q 9.831 6.073 9.904 6.39 A 1.707 1.707 0 0 0 9.998 6.68 L 9.998 6.75 Z M 47.58 6.75 L 46.727 6.75 A 0.632 0.632 0 0 1 46.692 6.66 Q 46.66 6.562 46.636 6.41 A 3.997 3.997 0 0 1 46.613 6.249 Q 46.046 6.838 45.259 6.838 A 2.033 2.033 0 0 1 44.73 6.772 A 1.529 1.529 0 0 1 44.106 6.44 Q 43.655 6.042 43.655 5.432 Q 43.655 4.689 44.22 4.278 Q 44.785 3.867 45.809 3.867 L 46.6 3.867 L 46.6 3.494 A 1.152 1.152 0 0 0 46.564 3.199 A 0.828 0.828 0 0 0 46.345 2.815 Q 46.129 2.6 45.738 2.568 A 1.748 1.748 0 0 0 45.593 2.562 Q 45.158 2.562 44.864 2.782 Q 44.569 3.001 44.569 3.313 L 43.752 3.313 A 1.041 1.041 0 0 1 43.877 2.825 A 1.409 1.409 0 0 1 44.005 2.626 Q 44.257 2.294 44.69 2.101 A 2.249 2.249 0 0 1 45.466 1.913 A 2.669 2.669 0 0 1 45.642 1.907 A 2.65 2.65 0 0 1 46.159 1.955 Q 46.466 2.016 46.705 2.156 A 1.439 1.439 0 0 1 46.929 2.318 A 1.396 1.396 0 0 1 47.383 3.144 A 1.998 1.998 0 0 1 47.413 3.45 L 47.413 5.638 Q 47.413 6.073 47.486 6.39 A 1.707 1.707 0 0 0 47.58 6.68 L 47.58 6.75 Z M 15.869 4.395 L 15.869 4.333 A 3.762 3.762 0 0 1 15.936 3.602 Q 16.023 3.16 16.226 2.812 A 2.148 2.148 0 0 1 16.387 2.573 Q 16.906 1.907 17.745 1.907 A 1.964 1.964 0 0 1 18.343 1.994 A 1.559 1.559 0 0 1 19.068 2.479 L 19.068 0 L 19.881 0 L 19.881 6.75 L 19.134 6.75 L 19.094 6.24 Q 18.607 6.838 17.736 6.838 A 1.6 1.6 0 0 1 16.516 6.31 A 2.078 2.078 0 0 1 16.39 6.161 A 2.405 2.405 0 0 1 15.965 5.255 Q 15.881 4.912 15.87 4.51 A 4.425 4.425 0 0 1 15.869 4.395 Z M 28.903 0.352 L 28.903 4.601 L 29.791 4.601 L 29.791 5.265 L 28.903 5.265 L 28.903 6.75 L 28.086 6.75 L 28.086 5.265 L 25.172 5.265 L 25.172 4.786 L 28.037 0.352 L 28.903 0.352 Z M 39.788 6.75 L 38.017 6.75 L 38.017 0.352 L 39.823 0.352 Q 40.658 0.352 41.3 0.721 Q 41.942 1.09 42.291 1.771 A 3.19 3.19 0 0 1 42.608 2.8 A 4.073 4.073 0 0 1 42.645 3.335 L 42.645 3.744 Q 42.645 4.649 42.295 5.331 A 2.457 2.457 0 0 1 41.298 6.376 Q 40.65 6.741 39.788 6.75 Z M 34.301 2.592 A 1.544 1.544 0 0 0 34.405 2.021 A 2.226 2.226 0 0 0 34.383 1.707 A 1.566 1.566 0 0 0 33.884 0.738 A 1.754 1.754 0 0 0 33.118 0.333 A 2.443 2.443 0 0 0 32.52 0.264 A 2.539 2.539 0 0 0 32.01 0.312 A 1.767 1.767 0 0 0 31.153 0.738 Q 30.634 1.213 30.634 2.021 A 1.808 1.808 0 0 0 30.635 2.058 A 1.499 1.499 0 0 0 30.88 2.87 A 1.626 1.626 0 0 0 31.042 3.077 A 1.726 1.726 0 0 0 31.553 3.454 A 2.119 2.119 0 0 0 31.453 3.5 A 1.738 1.738 0 0 0 30.768 4.087 A 1.629 1.629 0 0 0 30.485 5.023 A 2.272 2.272 0 0 0 30.495 5.237 A 1.63 1.63 0 0 0 31.041 6.344 A 1.895 1.895 0 0 0 31.891 6.771 A 2.797 2.797 0 0 0 32.52 6.838 A 2.796 2.796 0 0 0 33.119 6.777 A 1.925 1.925 0 0 0 33.994 6.346 A 1.578 1.578 0 0 0 34.469 5.62 A 1.989 1.989 0 0 0 34.554 5.023 A 1.581 1.581 0 0 0 34.262 4.087 Q 33.97 3.674 33.469 3.458 Q 33.9 3.248 34.152 2.874 A 1.449 1.449 0 0 0 34.301 2.592 Z M 50.985 1.969 L 50.985 2.725 A 2.251 2.251 0 0 0 50.743 2.698 A 2.782 2.782 0 0 0 50.586 2.694 Q 49.808 2.694 49.516 3.338 A 1.445 1.445 0 0 0 49.5 3.375 L 49.5 6.75 L 48.687 6.75 L 48.687 1.995 L 49.478 1.995 L 49.491 2.544 Q 49.872 1.938 50.554 1.909 A 1.636 1.636 0 0 1 50.625 1.907 Q 50.862 1.907 50.985 1.969 Z M 39.845 1.046 L 38.861 1.046 L 38.861 6.06 L 39.749 6.06 A 2.519 2.519 0 0 0 40.381 5.985 A 1.747 1.747 0 0 0 41.267 5.454 Q 41.726 4.94 41.797 4.059 A 4.165 4.165 0 0 0 41.81 3.727 L 41.81 3.353 Q 41.81 2.562 41.54 2.027 A 1.864 1.864 0 0 0 41.298 1.659 A 1.687 1.687 0 0 0 40.302 1.09 A 2.499 2.499 0 0 0 39.845 1.046 Z M 22.025 1.995 L 22.025 6.75 L 21.212 6.75 L 21.212 1.995 L 22.025 1.995 Z M 19.068 5.454 L 19.068 3.27 A 1.375 1.375 0 0 0 18.756 2.874 Q 18.432 2.597 17.947 2.597 A 1.238 1.238 0 0 0 17.521 2.668 A 1.068 1.068 0 0 0 17.016 3.059 A 1.51 1.51 0 0 0 16.807 3.484 Q 16.741 3.689 16.71 3.939 A 3.955 3.955 0 0 0 16.682 4.425 A 3.162 3.162 0 0 0 16.718 4.918 Q 16.759 5.178 16.847 5.389 A 1.474 1.474 0 0 0 17.016 5.691 A 1.06 1.06 0 0 0 17.778 6.139 A 1.391 1.391 0 0 0 17.939 6.148 Q 18.712 6.148 19.068 5.454 Z M 27.989 1.639 L 26.095 4.601 L 28.086 4.601 L 28.086 1.463 L 27.989 1.639 Z M 33.741 5.005 A 1.375 1.375 0 0 0 33.682 4.592 A 1.109 1.109 0 0 0 33.401 4.131 A 1.148 1.148 0 0 0 32.729 3.807 A 1.593 1.593 0 0 0 32.511 3.792 A 1.466 1.466 0 0 0 32.122 3.841 A 1.086 1.086 0 0 0 31.63 4.126 A 1.123 1.123 0 0 0 31.316 4.762 A 1.572 1.572 0 0 0 31.298 5.005 A 1.48 1.48 0 0 0 31.34 5.367 A 1.019 1.019 0 0 0 31.621 5.862 Q 31.927 6.158 32.46 6.173 A 2.053 2.053 0 0 0 32.52 6.174 Q 33.013 6.174 33.323 5.94 A 1.018 1.018 0 0 0 33.416 5.86 A 1.041 1.041 0 0 0 33.715 5.292 A 1.518 1.518 0 0 0 33.741 5.005 Z M 32.52 0.932 A 1.259 1.259 0 0 0 32.167 0.979 A 0.973 0.973 0 0 0 31.744 1.228 Q 31.447 1.525 31.447 2.035 A 1.325 1.325 0 0 0 31.492 2.387 A 0.994 0.994 0 0 0 31.74 2.823 A 0.974 0.974 0 0 0 32.302 3.108 A 1.382 1.382 0 0 0 32.52 3.125 A 1.279 1.279 0 0 0 32.864 3.08 A 0.952 0.952 0 0 0 33.3 2.823 A 1.018 1.018 0 0 0 33.575 2.26 A 1.426 1.426 0 0 0 33.592 2.035 A 1.282 1.282 0 0 0 33.542 1.668 A 1.013 1.013 0 0 0 33.289 1.239 Q 32.985 0.932 32.52 0.932 Z M 9.018 5.418 L 9.018 4.443 L 8.38 4.443 Q 6.886 4.443 6.886 5.317 Q 6.886 5.7 7.141 5.915 A 0.893 0.893 0 0 0 7.555 6.108 A 1.259 1.259 0 0 0 7.796 6.13 A 1.429 1.429 0 0 0 8.521 5.933 A 1.335 1.335 0 0 0 8.817 5.705 A 1.108 1.108 0 0 0 9.018 5.418 Z M 46.6 5.418 L 46.6 4.443 L 45.962 4.443 Q 44.468 4.443 44.468 5.317 Q 44.468 5.7 44.723 5.915 A 0.893 0.893 0 0 0 45.137 6.108 A 1.259 1.259 0 0 0 45.378 6.13 A 1.429 1.429 0 0 0 46.103 5.933 A 1.335 1.335 0 0 0 46.399 5.705 A 1.108 1.108 0 0 0 46.6 5.418 Z M 21.147 0.734 Q 21.147 0.536 21.267 0.4 Q 21.379 0.274 21.591 0.264 A 0.783 0.783 0 0 1 21.626 0.264 Q 21.863 0.264 21.986 0.4 A 0.474 0.474 0 0 1 22.108 0.703 A 0.614 0.614 0 0 1 22.109 0.734 A 0.523 0.523 0 0 1 22.084 0.9 A 0.442 0.442 0 0 1 21.986 1.063 Q 21.873 1.184 21.665 1.194 A 0.803 0.803 0 0 1 21.626 1.195 Q 21.453 1.195 21.342 1.126 A 0.362 0.362 0 0 1 21.267 1.063 A 0.456 0.456 0 0 1 21.149 0.788 A 0.605 0.605 0 0 1 21.147 0.734 Z" vector-effect="non-scaling-stroke"/></g>
</svg>