<?xml version="1.0" encoding="UTF-8"?>
<svg width="48px" height="48px" viewBox="0 0 48 48" version="1.1" xmlns="http://www.w3.org/2000/svg" xmlns:xlink="http://www.w3.org/1999/xlink">
    <title>Icon-Resource/Compute/Res_Amazon-EC2_C6gd_48_Dark</title>
    <g id="Icon-Resource/Compute/Res_Amazon-EC2_C6gd_48" stroke="none" stroke-width="1" fill="none" fill-rule="evenodd">
        <path transform="translate(12.000000, 8.000000), scale(.65)" d="M9,39 L39,39 L39,9 L9,9 L9,39 Z M41,13 L41,17 L46,17 L46,19 L41,19 L41,23 L46,23 L46,25 L41,25 L41,29 L46,29 L46,31 L41,31 L41,35 L46,35 L46,37 L41,37 L41,40 C41,40.552 40.552,41 40,41 L37,41 L37,46 L35,46 L35,41 L31,41 L31,46 L29,46 L29,41 L25,41 L25,46 L23,46 L23,41 L19,41 L19,46 L17,46 L17,41 L13,41 L13,46 L11,46 L11,41 L8,41 C7.448,41 7,40.552 7,40 L7,37 L2,37 L2,35 L7,35 L7,31 L2,31 L2,29 L7,29 L7,25 L2,25 L2,23 L7,23 L7,19 L2,19 L2,17 L7,17 L7,13 L2,13 L2,11 L7,11 L7,8 C7,7.448 7.448,7 8,7 L11,7 L11,2 L13,2 L13,7 L17,7 L17,2 L19,2 L19,7 L23,7 L23,2 L25,2 L25,7 L29,7 L29,2 L31,2 L31,7 L35,7 L35,2 L37,2 L37,7 L40,7 C40.552,7 41,7.448 41,8 L41,11 L46,11 L46,13 L41,13 Z M32.502,24.633 C32.502,26.041 33.014,26.745 34.038,26.745 C34.51,26.745 34.97,26.593 35.418,26.289 L35.418,22.989 C35.01,22.701 34.558,22.557 34.062,22.557 C33.526,22.557 33.132,22.727 32.88,23.067 C32.628,23.407 32.502,23.929 32.502,24.633 L32.502,24.633 Z M31.752,27.003 C31.292,26.431 31.062,25.661 31.062,24.693 C31.062,24.053 31.166,23.489 31.374,23.001 C31.582,22.513 31.882,22.131 32.274,21.855 C32.666,21.579 33.13,21.441 33.666,21.441 C34.306,21.441 34.89,21.649 35.418,22.065 L35.418,18.849 L36.834,18.849 L36.834,27.729 L35.622,27.729 L35.478,27.141 C34.934,27.621 34.306,27.861 33.594,27.861 C32.826,27.861 32.212,27.575 31.752,27.003 L31.752,27.003 Z M25.782,24.501 C25.782,25.845 26.258,26.517 27.21,26.517 C27.682,26.517 28.13,26.361 28.554,26.049 L28.554,22.977 C28.138,22.689 27.694,22.545 27.222,22.545 C26.734,22.545 26.372,22.705 26.136,23.025 C25.9,23.345 25.782,23.837 25.782,24.501 L25.782,24.501 Z M25.008,26.775 C24.564,26.219 24.342,25.477 24.342,24.549 C24.342,23.941 24.442,23.403 24.642,22.935 C24.842,22.467 25.13,22.101 25.506,21.837 C25.882,21.573 26.326,21.441 26.838,21.441 C27.534,21.441 28.138,21.685 28.65,22.173 L28.77,21.621 L29.97,21.621 L29.97,27.309 C29.97,28.277 29.707,29.025 29.18,29.553 C28.654,30.081 27.904,30.345 26.932,30.345 C26.192,30.345 25.493,30.181 24.834,29.853 L24.834,28.845 C25.578,29.093 26.246,29.217 26.838,29.217 C27.438,29.217 27.874,29.079 28.146,28.803 C28.418,28.527 28.554,28.077 28.554,27.453 L28.554,26.937 C28.034,27.385 27.446,27.609 26.79,27.609 C26.046,27.609 25.452,27.331 25.008,26.775 L25.008,26.775 Z M19.086,24.213 C19.141,25.917 19.696,26.769 20.75,26.769 C21.18,26.769 21.517,26.637 21.759,26.373 C22.001,26.109 22.122,25.741 22.122,25.269 C22.122,24.789 21.997,24.423 21.747,24.171 C21.497,23.919 21.133,23.793 20.657,23.793 C20.141,23.793 19.618,23.933 19.086,24.213 L19.086,24.213 Z M18.396,26.889 C17.888,26.209 17.634,25.205 17.634,23.877 C17.634,22.405 17.936,21.261 18.54,20.445 C19.144,19.629 19.994,19.221 21.09,19.221 C21.434,19.221 21.78,19.259 22.128,19.335 C22.476,19.411 22.774,19.513 23.022,19.641 L23.022,20.685 C22.777,20.589 22.495,20.511 22.174,20.451 C21.854,20.391 21.56,20.361 21.292,20.361 C20.572,20.361 20.035,20.601 19.679,21.081 C19.323,21.561 19.125,22.301 19.086,23.301 C19.719,22.893 20.392,22.689 21.104,22.689 C21.849,22.689 22.446,22.915 22.897,23.367 C23.348,23.819 23.574,24.421 23.574,25.173 C23.574,25.701 23.456,26.171 23.22,26.583 C22.984,26.995 22.644,27.319 22.2,27.555 C21.756,27.791 21.238,27.909 20.646,27.909 C19.654,27.909 18.904,27.569 18.396,26.889 L18.396,26.889 Z M11.796,26.817 C11.12,26.113 10.782,25.073 10.782,23.697 C10.782,22.281 11.132,21.191 11.832,20.427 C12.532,19.663 13.538,19.281 14.85,19.281 C15.57,19.281 16.234,19.389 16.842,19.605 L16.842,20.805 C16.044,20.637 15.419,20.553 14.967,20.553 C14.056,20.553 13.379,20.789 12.936,21.261 C12.492,21.733 12.27,22.461 12.27,23.445 L12.27,23.733 C12.27,24.709 12.49,25.431 12.929,25.899 C13.369,26.367 14.04,26.601 14.943,26.601 C15.451,26.601 16.124,26.501 16.962,26.301 L16.962,27.501 C16.33,27.749 15.61,27.873 14.802,27.873 C13.474,27.873 12.472,27.521 11.796,26.817 L11.796,26.817 Z" id="Fill-1" fill="#000000"></path>
    </g><g transform="translate(25, 83)" id="svgGroup" stroke-linecap="round" fill-rule="evenodd" font-size="9pt" stroke="#000" stroke-width="0.25mm" fill="#000" style="stroke:#000;stroke-width:0.25mm;fill:#000"><path d="M 3.617 3.103 L 3.617 3.792 L 0.844 3.792 L 0.844 6.06 L 4.065 6.06 L 4.065 6.75 L 0 6.75 L 0 0.352 L 4.021 0.352 L 4.021 1.046 L 0.844 1.046 L 0.844 3.103 L 3.617 3.103 Z M 8.974 4.72 L 9.822 4.72 A 3.016 3.016 0 0 1 9.661 5.416 A 2.099 2.099 0 0 1 9.073 6.286 Q 8.442 6.838 7.396 6.838 A 2.553 2.553 0 0 1 6.527 6.696 A 2.194 2.194 0 0 1 5.579 6.025 A 2.789 2.789 0 0 1 5.017 4.901 Q 4.911 4.484 4.897 3.992 A 5.262 5.262 0 0 1 4.896 3.85 L 4.896 3.234 A 4.251 4.251 0 0 1 4.966 2.445 A 3.229 3.229 0 0 1 5.214 1.666 A 2.539 2.539 0 0 1 5.67 0.99 A 2.26 2.26 0 0 1 6.117 0.626 A 2.415 2.415 0 0 1 7.143 0.281 A 3.027 3.027 0 0 1 7.471 0.264 A 2.962 2.962 0 0 1 8.177 0.343 A 2.065 2.065 0 0 1 9.105 0.833 A 2.16 2.16 0 0 1 9.7 1.795 A 3.086 3.086 0 0 1 9.822 2.408 L 8.974 2.408 Q 8.905 1.929 8.735 1.616 A 1.223 1.223 0 0 0 8.497 1.301 A 1.207 1.207 0 0 0 7.992 1.024 Q 7.804 0.971 7.581 0.961 A 2.396 2.396 0 0 0 7.471 0.958 A 1.753 1.753 0 0 0 6.892 1.049 A 1.463 1.463 0 0 0 6.203 1.556 A 1.989 1.989 0 0 0 5.889 2.175 Q 5.744 2.636 5.744 3.256 L 5.744 3.876 Q 5.744 4.917 6.179 5.533 A 1.38 1.38 0 0 0 7.177 6.135 A 1.814 1.814 0 0 0 7.396 6.148 A 2.497 2.497 0 0 0 7.803 6.117 Q 8.023 6.08 8.199 6.002 A 1.155 1.155 0 0 0 8.475 5.829 Q 8.851 5.511 8.974 4.72 Z M 22.113 4.72 L 22.961 4.72 A 3.016 3.016 0 0 1 22.8 5.416 A 2.099 2.099 0 0 1 22.212 6.286 Q 21.582 6.838 20.536 6.838 A 2.553 2.553 0 0 1 19.667 6.696 A 2.194 2.194 0 0 1 18.719 6.025 A 2.789 2.789 0 0 1 18.157 4.901 Q 18.05 4.484 18.037 3.992 A 5.262 5.262 0 0 1 18.035 3.85 L 18.035 3.234 A 4.251 4.251 0 0 1 18.105 2.445 A 3.229 3.229 0 0 1 18.354 1.666 A 2.539 2.539 0 0 1 18.809 0.99 A 2.26 2.26 0 0 1 19.257 0.626 A 2.415 2.415 0 0 1 20.283 0.281 A 3.027 3.027 0 0 1 20.61 0.264 A 2.962 2.962 0 0 1 21.316 0.343 A 2.065 2.065 0 0 1 22.245 0.833 A 2.16 2.16 0 0 1 22.84 1.795 A 3.086 3.086 0 0 1 22.961 2.408 L 22.113 2.408 Q 22.044 1.929 21.875 1.616 A 1.223 1.223 0 0 0 21.636 1.301 A 1.207 1.207 0 0 0 21.131 1.024 Q 20.944 0.971 20.721 0.961 A 2.396 2.396 0 0 0 20.61 0.958 A 1.753 1.753 0 0 0 20.032 1.049 A 1.463 1.463 0 0 0 19.343 1.556 A 1.989 1.989 0 0 0 19.029 2.175 Q 18.883 2.636 18.883 3.256 L 18.883 3.876 Q 18.883 4.917 19.318 5.533 A 1.38 1.38 0 0 0 20.317 6.135 A 1.814 1.814 0 0 0 20.536 6.148 A 2.497 2.497 0 0 0 20.943 6.117 Q 21.163 6.08 21.338 6.002 A 1.155 1.155 0 0 0 21.615 5.829 Q 21.99 5.511 22.113 4.72 Z M 14.955 6.086 L 14.955 6.75 L 10.762 6.75 L 10.762 6.166 L 12.977 3.705 A 9.853 9.853 0 0 0 13.23 3.407 Q 13.468 3.115 13.601 2.894 A 2.159 2.159 0 0 0 13.656 2.797 Q 13.843 2.448 13.843 2.074 A 1.354 1.354 0 0 0 13.791 1.69 A 1.067 1.067 0 0 0 13.54 1.252 Q 13.236 0.932 12.731 0.932 A 1.71 1.71 0 0 0 12.346 0.972 Q 12.009 1.05 11.788 1.277 Q 11.469 1.605 11.453 2.177 A 2.18 2.18 0 0 0 11.452 2.237 L 10.639 2.237 Q 10.639 1.354 11.208 0.809 A 1.914 1.914 0 0 1 12.166 0.318 A 2.782 2.782 0 0 1 12.731 0.264 A 2.749 2.749 0 0 1 13.312 0.322 Q 13.69 0.403 13.975 0.6 A 1.626 1.626 0 0 1 14.142 0.732 A 1.546 1.546 0 0 1 14.65 1.765 A 2.151 2.151 0 0 1 14.66 1.978 A 1.917 1.917 0 0 1 14.519 2.666 Q 14.298 3.241 13.725 3.922 A 8.818 8.818 0 0 1 13.456 4.228 L 11.742 6.086 L 14.955 6.086 Z M 70.554 6.75 L 68.897 4.548 L 68.388 5.08 L 68.388 6.75 L 67.575 6.75 L 67.575 0 L 68.388 0 L 68.388 4.083 L 68.823 3.56 L 70.304 1.995 L 71.292 1.995 L 69.442 3.981 L 71.508 6.75 L 70.554 6.75 Z M 32.08 2.522 L 32.12 1.995 L 32.862 1.995 L 32.862 6.636 A 2.511 2.511 0 0 1 32.792 7.249 A 1.738 1.738 0 0 1 32.315 8.09 A 1.834 1.834 0 0 1 31.385 8.57 A 2.671 2.671 0 0 1 30.845 8.622 A 2.446 2.446 0 0 1 29.839 8.402 A 2.003 2.003 0 0 1 29.429 8.161 A 1.563 1.563 0 0 1 29.087 7.8 L 29.509 7.313 A 1.889 1.889 0 0 0 29.944 7.712 A 1.514 1.514 0 0 0 30.788 7.958 A 1.695 1.695 0 0 0 31.165 7.919 Q 31.433 7.858 31.628 7.702 A 1.037 1.037 0 0 0 31.713 7.625 A 1.09 1.09 0 0 0 31.99 7.132 Q 32.037 6.959 32.044 6.752 A 2.134 2.134 0 0 0 32.045 6.684 L 32.045 6.275 A 1.601 1.601 0 0 1 30.993 6.821 A 2.279 2.279 0 0 1 30.713 6.838 A 1.672 1.672 0 0 1 29.958 6.67 Q 29.636 6.51 29.386 6.197 A 2.14 2.14 0 0 1 29.362 6.166 A 2.316 2.316 0 0 1 28.979 5.386 Q 28.846 4.922 28.846 4.333 Q 28.846 3.472 29.154 2.884 A 2.096 2.096 0 0 1 29.36 2.564 Q 29.874 1.907 30.722 1.907 A 1.971 1.971 0 0 1 31.321 1.994 A 1.55 1.55 0 0 1 32.08 2.522 Z M 63.417 6.75 L 62.565 6.75 A 0.632 0.632 0 0 1 62.529 6.66 Q 62.498 6.562 62.473 6.41 A 3.997 3.997 0 0 1 62.451 6.249 Q 61.884 6.838 61.097 6.838 A 2.033 2.033 0 0 1 60.568 6.772 A 1.529 1.529 0 0 1 59.944 6.44 Q 59.493 6.042 59.493 5.432 Q 59.493 4.689 60.058 4.278 Q 60.623 3.867 61.646 3.867 L 62.438 3.867 L 62.438 3.494 A 1.152 1.152 0 0 0 62.402 3.199 A 0.828 0.828 0 0 0 62.183 2.815 Q 61.966 2.6 61.576 2.568 A 1.748 1.748 0 0 0 61.431 2.562 Q 60.996 2.562 60.702 2.782 Q 60.407 3.001 60.407 3.313 L 59.59 3.313 A 1.041 1.041 0 0 1 59.715 2.825 A 1.409 1.409 0 0 1 59.843 2.626 Q 60.095 2.294 60.528 2.101 A 2.249 2.249 0 0 1 61.304 1.913 A 2.669 2.669 0 0 1 61.479 1.907 A 2.65 2.65 0 0 1 61.997 1.955 Q 62.304 2.016 62.543 2.156 A 1.439 1.439 0 0 1 62.767 2.318 A 1.396 1.396 0 0 1 63.22 3.144 A 1.998 1.998 0 0 1 63.25 3.45 L 63.25 5.638 Q 63.25 6.073 63.324 6.39 A 1.707 1.707 0 0 0 63.417 6.68 L 63.417 6.75 Z M 26.947 0.347 L 27.092 0.347 L 27.092 1.037 L 26.943 1.037 A 2.735 2.735 0 0 0 26.286 1.124 A 1.916 1.916 0 0 0 25.431 1.6 Q 24.89 2.124 24.788 3.059 A 3.762 3.762 0 0 0 24.781 3.133 A 1.66 1.66 0 0 1 25.865 2.571 A 2.369 2.369 0 0 1 26.161 2.553 Q 26.996 2.553 27.494 3.142 Q 27.993 3.731 27.993 4.663 A 2.946 2.946 0 0 1 27.921 5.335 A 2.008 2.008 0 0 1 27.455 6.245 A 1.778 1.778 0 0 1 26.312 6.82 A 2.498 2.498 0 0 1 26.011 6.838 A 1.937 1.937 0 0 1 25.226 6.683 A 1.867 1.867 0 0 1 24.521 6.133 A 2.495 2.495 0 0 1 24.026 5.07 A 3.581 3.581 0 0 1 23.95 4.315 L 23.95 4.003 Q 23.95 2.237 24.704 1.303 A 2.468 2.468 0 0 1 26.068 0.455 A 3.849 3.849 0 0 1 26.947 0.347 Z M 33.891 4.395 L 33.891 4.333 A 3.762 3.762 0 0 1 33.958 3.602 Q 34.045 3.16 34.248 2.812 A 2.148 2.148 0 0 1 34.409 2.573 Q 34.928 1.907 35.767 1.907 A 1.964 1.964 0 0 1 36.365 1.994 A 1.559 1.559 0 0 1 37.09 2.479 L 37.09 0 L 37.903 0 L 37.903 6.75 L 37.156 6.75 L 37.116 6.24 Q 36.628 6.838 35.758 6.838 A 1.6 1.6 0 0 1 34.538 6.31 A 2.078 2.078 0 0 1 34.411 6.161 A 2.405 2.405 0 0 1 33.987 5.255 Q 33.903 4.912 33.892 4.51 A 4.425 4.425 0 0 1 33.891 4.395 Z M 44.741 0.352 L 44.741 4.601 L 45.628 4.601 L 45.628 5.265 L 44.741 5.265 L 44.741 6.75 L 43.923 6.75 L 43.923 5.265 L 41.01 5.265 L 41.01 4.786 L 43.875 0.352 L 44.741 0.352 Z M 55.626 6.75 L 53.855 6.75 L 53.855 0.352 L 55.661 0.352 Q 56.496 0.352 57.138 0.721 Q 57.779 1.09 58.129 1.771 A 3.19 3.19 0 0 1 58.446 2.8 A 4.073 4.073 0 0 1 58.482 3.335 L 58.482 3.744 Q 58.482 4.649 58.133 5.331 A 2.457 2.457 0 0 1 57.135 6.376 Q 56.487 6.741 55.626 6.75 Z M 50.139 2.592 A 1.544 1.544 0 0 0 50.243 2.021 A 2.226 2.226 0 0 0 50.221 1.707 A 1.566 1.566 0 0 0 49.722 0.738 A 1.754 1.754 0 0 0 48.956 0.333 A 2.443 2.443 0 0 0 48.357 0.264 A 2.539 2.539 0 0 0 47.848 0.312 A 1.767 1.767 0 0 0 46.991 0.738 Q 46.472 1.213 46.472 2.021 A 1.808 1.808 0 0 0 46.473 2.058 A 1.499 1.499 0 0 0 46.718 2.87 A 1.626 1.626 0 0 0 46.88 3.077 A 1.726 1.726 0 0 0 47.391 3.454 A 2.119 2.119 0 0 0 47.291 3.5 A 1.738 1.738 0 0 0 46.606 4.087 A 1.629 1.629 0 0 0 46.323 5.023 A 2.272 2.272 0 0 0 46.333 5.237 A 1.63 1.63 0 0 0 46.879 6.344 A 1.895 1.895 0 0 0 47.729 6.771 A 2.797 2.797 0 0 0 48.357 6.838 A 2.796 2.796 0 0 0 48.956 6.777 A 1.925 1.925 0 0 0 49.832 6.346 A 1.578 1.578 0 0 0 50.307 5.62 A 1.989 1.989 0 0 0 50.392 5.023 A 1.581 1.581 0 0 0 50.1 4.087 Q 49.808 3.674 49.307 3.458 Q 49.737 3.248 49.99 2.874 A 1.449 1.449 0 0 0 50.139 2.592 Z M 66.823 1.969 L 66.823 2.725 A 2.251 2.251 0 0 0 66.581 2.698 A 2.782 2.782 0 0 0 66.423 2.694 Q 65.646 2.694 65.354 3.338 A 1.445 1.445 0 0 0 65.338 3.375 L 65.338 6.75 L 64.525 6.75 L 64.525 1.995 L 65.316 1.995 L 65.329 2.544 Q 65.709 1.938 66.392 1.909 A 1.636 1.636 0 0 1 66.463 1.907 Q 66.7 1.907 66.823 1.969 Z M 55.683 1.046 L 54.699 1.046 L 54.699 6.06 L 55.586 6.06 A 2.519 2.519 0 0 0 56.219 5.985 A 1.747 1.747 0 0 0 57.105 5.454 Q 57.564 4.94 57.635 4.059 A 4.165 4.165 0 0 0 57.647 3.727 L 57.647 3.353 Q 57.647 2.562 57.378 2.027 A 1.864 1.864 0 0 0 57.135 1.659 A 1.687 1.687 0 0 0 56.14 1.09 A 2.499 2.499 0 0 0 55.683 1.046 Z M 37.09 5.454 L 37.09 3.27 A 1.375 1.375 0 0 0 36.778 2.874 Q 36.454 2.597 35.969 2.597 A 1.238 1.238 0 0 0 35.543 2.668 A 1.068 1.068 0 0 0 35.038 3.059 A 1.51 1.51 0 0 0 34.828 3.484 Q 34.763 3.689 34.731 3.939 A 3.955 3.955 0 0 0 34.704 4.425 A 3.162 3.162 0 0 0 34.74 4.918 Q 34.781 5.178 34.869 5.389 A 1.474 1.474 0 0 0 35.038 5.691 A 1.06 1.06 0 0 0 35.8 6.139 A 1.391 1.391 0 0 0 35.96 6.148 Q 36.734 6.148 37.09 5.454 Z M 32.045 5.449 L 32.045 3.278 A 1.439 1.439 0 0 0 31.744 2.891 Q 31.44 2.62 31 2.599 A 1.578 1.578 0 0 0 30.924 2.597 Q 30.332 2.597 29.999 3.056 A 1.51 1.51 0 0 0 29.788 3.484 Q 29.722 3.689 29.691 3.939 A 3.955 3.955 0 0 0 29.663 4.425 Q 29.663 5.229 29.993 5.689 Q 30.322 6.148 30.916 6.148 A 1.32 1.32 0 0 0 31.425 6.054 Q 31.817 5.891 32.045 5.449 Z M 43.827 1.639 L 41.933 4.601 L 43.923 4.601 L 43.923 1.463 L 43.827 1.639 Z M 24.768 4.109 L 24.768 4.408 Q 24.768 5.199 25.124 5.682 A 1.338 1.338 0 0 0 25.396 5.962 A 0.999 0.999 0 0 0 26.011 6.166 A 1.199 1.199 0 0 0 26.405 6.104 A 1.001 1.001 0 0 0 26.875 5.761 Q 27.171 5.38 27.188 4.777 A 2.64 2.64 0 0 0 27.189 4.702 Q 27.189 4.128 26.947 3.745 A 1.319 1.319 0 0 0 26.87 3.636 A 1.009 1.009 0 0 0 26.137 3.235 A 1.285 1.285 0 0 0 26.024 3.23 A 1.297 1.297 0 0 0 25.255 3.48 A 1.38 1.38 0 0 0 24.917 3.818 A 1.257 1.257 0 0 0 24.768 4.109 Z M 49.579 5.005 A 1.375 1.375 0 0 0 49.52 4.592 A 1.109 1.109 0 0 0 49.239 4.131 A 1.148 1.148 0 0 0 48.567 3.807 A 1.593 1.593 0 0 0 48.349 3.792 A 1.466 1.466 0 0 0 47.96 3.841 A 1.086 1.086 0 0 0 47.468 4.126 A 1.123 1.123 0 0 0 47.154 4.762 A 1.572 1.572 0 0 0 47.136 5.005 A 1.48 1.48 0 0 0 47.177 5.367 A 1.019 1.019 0 0 0 47.459 5.862 Q 47.765 6.158 48.298 6.173 A 2.053 2.053 0 0 0 48.357 6.174 Q 48.851 6.174 49.161 5.94 A 1.018 1.018 0 0 0 49.254 5.86 A 1.041 1.041 0 0 0 49.553 5.292 A 1.518 1.518 0 0 0 49.579 5.005 Z M 48.357 0.932 A 1.259 1.259 0 0 0 48.005 0.979 A 0.973 0.973 0 0 0 47.582 1.228 Q 47.285 1.525 47.285 2.035 A 1.325 1.325 0 0 0 47.33 2.387 A 0.994 0.994 0 0 0 47.577 2.823 A 0.974 0.974 0 0 0 48.14 3.108 A 1.382 1.382 0 0 0 48.357 3.125 A 1.279 1.279 0 0 0 48.702 3.08 A 0.952 0.952 0 0 0 49.137 2.823 A 1.018 1.018 0 0 0 49.413 2.26 A 1.426 1.426 0 0 0 49.43 2.035 A 1.282 1.282 0 0 0 49.38 1.668 A 1.013 1.013 0 0 0 49.126 1.239 Q 48.823 0.932 48.357 0.932 Z M 62.438 5.418 L 62.438 4.443 L 61.8 4.443 Q 60.306 4.443 60.306 5.317 Q 60.306 5.7 60.561 5.915 A 0.893 0.893 0 0 0 60.975 6.108 A 1.259 1.259 0 0 0 61.216 6.13 A 1.429 1.429 0 0 0 61.941 5.933 A 1.335 1.335 0 0 0 62.236 5.705 A 1.108 1.108 0 0 0 62.437 5.418 Z" vector-effect="non-scaling-stroke"/></g>
</svgversion="1.0" encoding="UTF-8"?>
<svg width="48px" height="48px" viewBox="0 0 48 48" version="1.1" xmlns="http://www.w3.org/2000/svg" xmlns:xlink="http://www.w3.org/1999/xlink">
    <title>Icon-Resource/Compute/Res_Amazon-EC2_C6gd_48_Dark</title>
    <g id="Icon-Resource/Compute/Res_Amazon-EC2_C6gd_48" stroke="none" stroke-width="1" fill="none" fill-rule="evenodd">
        <path transform="translate(12.000000, 8.000000), scale(.65)" d="M9,39 L39,39 L39,9 L9,9 L9,39 Z M41,13 L41,17 L46,17 L46,19 L41,19 L41,23 L46,23 L46,25 L41,25 L41,29 L46,29 L46,31 L41,31 L41,35 L46,35 L46,37 L41,37 L41,40 C41,40.552 40.552,41 40,41 L37,41 L37,46 L35,46 L35,41 L31,41 L31,46 L29,46 L29,41 L25,41 L25,46 L23,46 L23,41 L19,41 L19,46 L17,46 L17,41 L13,41 L13,46 L11,46 L11,41 L8,41 C7.448,41 7,40.552 7,40 L7,37 L2,37 L2,35 L7,35 L7,31 L2,31 L2,29 L7,29 L7,25 L2,25 L2,23 L7,23 L7,19 L2,19 L2,17 L7,17 L7,13 L2,13 L2,11 L7,11 L7,8 C7,7.448 7.448,7 8,7 L11,7 L11,2 L13,2 L13,7 L17,7 L17,2 L19,2 L19,7 L23,7 L23,2 L25,2 L25,7 L29,7 L29,2 L31,2 L31,7 L35,7 L35,2 L37,2 L37,7 L40,7 C40.552,7 41,7.448 41,8 L41,11 L46,11 L46,13 L41,13 Z M32.502,24.633 C32.502,26.041 33.014,26.745 34.038,26.745 C34.51,26.745 34.97,26.593 35.418,26.289 L35.418,22.989 C35.01,22.701 34.558,22.557 34.062,22.557 C33.526,22.557 33.132,22.727 32.88,23.067 C32.628,23.407 32.502,23.929 32.502,24.633 L32.502,24.633 Z M31.752,27.003 C31.292,26.431 31.062,25.661 31.062,24.693 C31.062,24.053 31.166,23.489 31.374,23.001 C31.582,22.513 31.882,22.131 32.274,21.855 C32.666,21.579 33.13,21.441 33.666,21.441 C34.306,21.441 34.89,21.649 35.418,22.065 L35.418,18.849 L36.834,18.849 L36.834,27.729 L35.622,27.729 L35.478,27.141 C34.934,27.621 34.306,27.861 33.594,27.861 C32.826,27.861 32.212,27.575 31.752,27.003 L31.752,27.003 Z M25.782,24.501 C25.782,25.845 26.258,26.517 27.21,26.517 C27.682,26.517 28.13,26.361 28.554,26.049 L28.554,22.977 C28.138,22.689 27.694,22.545 27.222,22.545 C26.734,22.545 26.372,22.705 26.136,23.025 C25.9,23.345 25.782,23.837 25.782,24.501 L25.782,24.501 Z M25.008,26.775 C24.564,26.219 24.342,25.477 24.342,24.549 C24.342,23.941 24.442,23.403 24.642,22.935 C24.842,22.467 25.13,22.101 25.506,21.837 C25.882,21.573 26.326,21.441 26.838,21.441 C27.534,21.441 28.138,21.685 28.65,22.173 L28.77,21.621 L29.97,21.621 L29.97,27.309 C29.97,28.277 29.707,29.025 29.18,29.553 C28.654,30.081 27.904,30.345 26.932,30.345 C26.192,30.345 25.493,30.181 24.834,29.853 L24.834,28.845 C25.578,29.093 26.246,29.217 26.838,29.217 C27.438,29.217 27.874,29.079 28.146,28.803 C28.418,28.527 28.554,28.077 28.554,27.453 L28.554,26.937 C28.034,27.385 27.446,27.609 26.79,27.609 C26.046,27.609 25.452,27.331 25.008,26.775 L25.008,26.775 Z M19.086,24.213 C19.141,25.917 19.696,26.769 20.75,26.769 C21.18,26.769 21.517,26.637 21.759,26.373 C22.001,26.109 22.122,25.741 22.122,25.269 C22.122,24.789 21.997,24.423 21.747,24.171 C21.497,23.919 21.133,23.793 20.657,23.793 C20.141,23.793 19.618,23.933 19.086,24.213 L19.086,24.213 Z M18.396,26.889 C17.888,26.209 17.634,25.205 17.634,23.877 C17.634,22.405 17.936,21.261 18.54,20.445 C19.144,19.629 19.994,19.221 21.09,19.221 C21.434,19.221 21.78,19.259 22.128,19.335 C22.476,19.411 22.774,19.513 23.022,19.641 L23.022,20.685 C22.777,20.589 22.495,20.511 22.174,20.451 C21.854,20.391 21.56,20.361 21.292,20.361 C20.572,20.361 20.035,20.601 19.679,21.081 C19.323,21.561 19.125,22.301 19.086,23.301 C19.719,22.893 20.392,22.689 21.104,22.689 C21.849,22.689 22.446,22.915 22.897,23.367 C23.348,23.819 23.574,24.421 23.574,25.173 C23.574,25.701 23.456,26.171 23.22,26.583 C22.984,26.995 22.644,27.319 22.2,27.555 C21.756,27.791 21.238,27.909 20.646,27.909 C19.654,27.909 18.904,27.569 18.396,26.889 L18.396,26.889 Z M11.796,26.817 C11.12,26.113 10.782,25.073 10.782,23.697 C10.782,22.281 11.132,21.191 11.832,20.427 C12.532,19.663 13.538,19.281 14.85,19.281 C15.57,19.281 16.234,19.389 16.842,19.605 L16.842,20.805 C16.044,20.637 15.419,20.553 14.967,20.553 C14.056,20.553 13.379,20.789 12.936,21.261 C12.492,21.733 12.27,22.461 12.27,23.445 L12.27,23.733 C12.27,24.709 12.49,25.431 12.929,25.899 C13.369,26.367 14.04,26.601 14.943,26.601 C15.451,26.601 16.124,26.501 16.962,26.301 L16.962,27.501 C16.33,27.749 15.61,27.873 14.802,27.873 C13.474,27.873 12.472,27.521 11.796,26.817 L11.796,26.817 Z" id="Fill-1" fill="#000000"></path>
    </g><g transform="translate(25, 83)" id="svgGroup" stroke-linecap="round" fill-rule="evenodd" font-size="9pt" stroke="#000" stroke-width="0.25mm" fill="#000" style="stroke:#000;stroke-width:0.25mm;fill:#000"><path d="M 3.617 3.103 L 3.617 3.792 L 0.844 3.792 L 0.844 6.06 L 4.065 6.06 L 4.065 6.75 L 0 6.75 L 0 0.352 L 4.021 0.352 L 4.021 1.046 L 0.844 1.046 L 0.844 3.103 L 3.617 3.103 Z M 8.974 4.72 L 9.822 4.72 A 3.016 3.016 0 0 1 9.661 5.416 A 2.099 2.099 0 0 1 9.073 6.286 Q 8.442 6.838 7.396 6.838 A 2.553 2.553 0 0 1 6.527 6.696 A 2.194 2.194 0 0 1 5.579 6.025 A 2.789 2.789 0 0 1 5.017 4.901 Q 4.911 4.484 4.897 3.992 A 5.262 5.262 0 0 1 4.896 3.85 L 4.896 3.234 A 4.251 4.251 0 0 1 4.966 2.445 A 3.229 3.229 0 0 1 5.214 1.666 A 2.539 2.539 0 0 1 5.67 0.99 A 2.26 2.26 0 0 1 6.117 0.626 A 2.415 2.415 0 0 1 7.143 0.281 A 3.027 3.027 0 0 1 7.471 0.264 A 2.962 2.962 0 0 1 8.177 0.343 A 2.065 2.065 0 0 1 9.105 0.833 A 2.16 2.16 0 0 1 9.7 1.795 A 3.086 3.086 0 0 1 9.822 2.408 L 8.974 2.408 Q 8.905 1.929 8.735 1.616 A 1.223 1.223 0 0 0 8.497 1.301 A 1.207 1.207 0 0 0 7.992 1.024 Q 7.804 0.971 7.581 0.961 A 2.396 2.396 0 0 0 7.471 0.958 A 1.753 1.753 0 0 0 6.892 1.049 A 1.463 1.463 0 0 0 6.203 1.556 A 1.989 1.989 0 0 0 5.889 2.175 Q 5.744 2.636 5.744 3.256 L 5.744 3.876 Q 5.744 4.917 6.179 5.533 A 1.38 1.38 0 0 0 7.177 6.135 A 1.814 1.814 0 0 0 7.396 6.148 A 2.497 2.497 0 0 0 7.803 6.117 Q 8.023 6.08 8.199 6.002 A 1.155 1.155 0 0 0 8.475 5.829 Q 8.851 5.511 8.974 4.72 Z M 22.113 4.72 L 22.961 4.72 A 3.016 3.016 0 0 1 22.8 5.416 A 2.099 2.099 0 0 1 22.212 6.286 Q 21.582 6.838 20.536 6.838 A 2.553 2.553 0 0 1 19.667 6.696 A 2.194 2.194 0 0 1 18.719 6.025 A 2.789 2.789 0 0 1 18.157 4.901 Q 18.05 4.484 18.037 3.992 A 5.262 5.262 0 0 1 18.035 3.85 L 18.035 3.234 A 4.251 4.251 0 0 1 18.105 2.445 A 3.229 3.229 0 0 1 18.354 1.666 A 2.539 2.539 0 0 1 18.809 0.99 A 2.26 2.26 0 0 1 19.257 0.626 A 2.415 2.415 0 0 1 20.283 0.281 A 3.027 3.027 0 0 1 20.61 0.264 A 2.962 2.962 0 0 1 21.316 0.343 A 2.065 2.065 0 0 1 22.245 0.833 A 2.16 2.16 0 0 1 22.84 1.795 A 3.086 3.086 0 0 1 22.961 2.408 L 22.113 2.408 Q 22.044 1.929 21.875 1.616 A 1.223 1.223 0 0 0 21.636 1.301 A 1.207 1.207 0 0 0 21.131 1.024 Q 20.944 0.971 20.721 0.961 A 2.396 2.396 0 0 0 20.61 0.958 A 1.753 1.753 0 0 0 20.032 1.049 A 1.463 1.463 0 0 0 19.343 1.556 A 1.989 1.989 0 0 0 19.029 2.175 Q 18.883 2.636 18.883 3.256 L 18.883 3.876 Q 18.883 4.917 19.318 5.533 A 1.38 1.38 0 0 0 20.317 6.135 A 1.814 1.814 0 0 0 20.536 6.148 A 2.497 2.497 0 0 0 20.943 6.117 Q 21.163 6.08 21.338 6.002 A 1.155 1.155 0 0 0 21.615 5.829 Q 21.99 5.511 22.113 4.72 Z M 14.955 6.086 L 14.955 6.75 L 10.762 6.75 L 10.762 6.166 L 12.977 3.705 A 9.853 9.853 0 0 0 13.23 3.407 Q 13.468 3.115 13.601 2.894 A 2.159 2.159 0 0 0 13.656 2.797 Q 13.843 2.448 13.843 2.074 A 1.354 1.354 0 0 0 13.791 1.69 A 1.067 1.067 0 0 0 13.54 1.252 Q 13.236 0.932 12.731 0.932 A 1.71 1.71 0 0 0 12.346 0.972 Q 12.009 1.05 11.788 1.277 Q 11.469 1.605 11.453 2.177 A 2.18 2.18 0 0 0 11.452 2.237 L 10.639 2.237 Q 10.639 1.354 11.208 0.809 A 1.914 1.914 0 0 1 12.166 0.318 A 2.782 2.782 0 0 1 12.731 0.264 A 2.749 2.749 0 0 1 13.312 0.322 Q 13.69 0.403 13.975 0.6 A 1.626 1.626 0 0 1 14.142 0.732 A 1.546 1.546 0 0 1 14.65 1.765 A 2.151 2.151 0 0 1 14.66 1.978 A 1.917 1.917 0 0 1 14.519 2.666 Q 14.298 3.241 13.725 3.922 A 8.818 8.818 0 0 1 13.456 4.228 L 11.742 6.086 L 14.955 6.086 Z M 70.554 6.75 L 68.897 4.548 L 68.388 5.08 L 68.388 6.75 L 67.575 6.75 L 67.575 0 L 68.388 0 L 68.388 4.083 L 68.823 3.56 L 70.304 1.995 L 71.292 1.995 L 69.442 3.981 L 71.508 6.75 L 70.554 6.75 Z M 32.08 2.522 L 32.12 1.995 L 32.862 1.995 L 32.862 6.636 A 2.511 2.511 0 0 1 32.792 7.249 A 1.738 1.738 0 0 1 32.315 8.09 A 1.834 1.834 0 0 1 31.385 8.57 A 2.671 2.671 0 0 1 30.845 8.622 A 2.446 2.446 0 0 1 29.839 8.402 A 2.003 2.003 0 0 1 29.429 8.161 A 1.563 1.563 0 0 1 29.087 7.8 L 29.509 7.313 A 1.889 1.889 0 0 0 29.944 7.712 A 1.514 1.514 0 0 0 30.788 7.958 A 1.695 1.695 0 0 0 31.165 7.919 Q 31.433 7.858 31.628 7.702 A 1.037 1.037 0 0 0 31.713 7.625 A 1.09 1.09 0 0 0 31.99 7.132 Q 32.037 6.959 32.044 6.752 A 2.134 2.134 0 0 0 32.045 6.684 L 32.045 6.275 A 1.601 1.601 0 0 1 30.993 6.821 A 2.279 2.279 0 0 1 30.713 6.838 A 1.672 1.672 0 0 1 29.958 6.67 Q 29.636 6.51 29.386 6.197 A 2.14 2.14 0 0 1 29.362 6.166 A 2.316 2.316 0 0 1 28.979 5.386 Q 28.846 4.922 28.846 4.333 Q 28.846 3.472 29.154 2.884 A 2.096 2.096 0 0 1 29.36 2.564 Q 29.874 1.907 30.722 1.907 A 1.971 1.971 0 0 1 31.321 1.994 A 1.55 1.55 0 0 1 32.08 2.522 Z M 63.417 6.75 L 62.565 6.75 A 0.632 0.632 0 0 1 62.529 6.66 Q 62.498 6.562 62.473 6.41 A 3.997 3.997 0 0 1 62.451 6.249 Q 61.884 6.838 61.097 6.838 A 2.033 2.033 0 0 1 60.568 6.772 A 1.529 1.529 0 0 1 59.944 6.44 Q 59.493 6.042 59.493 5.432 Q 59.493 4.689 60.058 4.278 Q 60.623 3.867 61.646 3.867 L 62.438 3.867 L 62.438 3.494 A 1.152 1.152 0 0 0 62.402 3.199 A 0.828 0.828 0 0 0 62.183 2.815 Q 61.966 2.6 61.576 2.568 A 1.748 1.748 0 0 0 61.431 2.562 Q 60.996 2.562 60.702 2.782 Q 60.407 3.001 60.407 3.313 L 59.59 3.313 A 1.041 1.041 0 0 1 59.715 2.825 A 1.409 1.409 0 0 1 59.843 2.626 Q 60.095 2.294 60.528 2.101 A 2.249 2.249 0 0 1 61.304 1.913 A 2.669 2.669 0 0 1 61.479 1.907 A 2.65 2.65 0 0 1 61.997 1.955 Q 62.304 2.016 62.543 2.156 A 1.439 1.439 0 0 1 62.767 2.318 A 1.396 1.396 0 0 1 63.22 3.144 A 1.998 1.998 0 0 1 63.25 3.45 L 63.25 5.638 Q 63.25 6.073 63.324 6.39 A 1.707 1.707 0 0 0 63.417 6.68 L 63.417 6.75 Z M 26.947 0.347 L 27.092 0.347 L 27.092 1.037 L 26.943 1.037 A 2.735 2.735 0 0 0 26.286 1.124 A 1.916 1.916 0 0 0 25.431 1.6 Q 24.89 2.124 24.788 3.059 A 3.762 3.762 0 0 0 24.781 3.133 A 1.66 1.66 0 0 1 25.865 2.571 A 2.369 2.369 0 0 1 26.161 2.553 Q 26.996 2.553 27.494 3.142 Q 27.993 3.731 27.993 4.663 A 2.946 2.946 0 0 1 27.921 5.335 A 2.008 2.008 0 0 1 27.455 6.245 A 1.778 1.778 0 0 1 26.312 6.82 A 2.498 2.498 0 0 1 26.011 6.838 A 1.937 1.937 0 0 1 25.226 6.683 A 1.867 1.867 0 0 1 24.521 6.133 A 2.495 2.495 0 0 1 24.026 5.07 A 3.581 3.581 0 0 1 23.95 4.315 L 23.95 4.003 Q 23.95 2.237 24.704 1.303 A 2.468 2.468 0 0 1 26.068 0.455 A 3.849 3.849 0 0 1 26.947 0.347 Z M 33.891 4.395 L 33.891 4.333 A 3.762 3.762 0 0 1 33.958 3.602 Q 34.045 3.16 34.248 2.812 A 2.148 2.148 0 0 1 34.409 2.573 Q 34.928 1.907 35.767 1.907 A 1.964 1.964 0 0 1 36.365 1.994 A 1.559 1.559 0 0 1 37.09 2.479 L 37.09 0 L 37.903 0 L 37.903 6.75 L 37.156 6.75 L 37.116 6.24 Q 36.628 6.838 35.758 6.838 A 1.6 1.6 0 0 1 34.538 6.31 A 2.078 2.078 0 0 1 34.411 6.161 A 2.405 2.405 0 0 1 33.987 5.255 Q 33.903 4.912 33.892 4.51 A 4.425 4.425 0 0 1 33.891 4.395 Z M 44.741 0.352 L 44.741 4.601 L 45.628 4.601 L 45.628 5.265 L 44.741 5.265 L 44.741 6.75 L 43.923 6.75 L 43.923 5.265 L 41.01 5.265 L 41.01 4.786 L 43.875 0.352 L 44.741 0.352 Z M 55.626 6.75 L 53.855 6.75 L 53.855 0.352 L 55.661 0.352 Q 56.496 0.352 57.138 0.721 Q 57.779 1.09 58.129 1.771 A 3.19 3.19 0 0 1 58.446 2.8 A 4.073 4.073 0 0 1 58.482 3.335 L 58.482 3.744 Q 58.482 4.649 58.133 5.331 A 2.457 2.457 0 0 1 57.135 6.376 Q 56.487 6.741 55.626 6.75 Z M 50.139 2.592 A 1.544 1.544 0 0 0 50.243 2.021 A 2.226 2.226 0 0 0 50.221 1.707 A 1.566 1.566 0 0 0 49.722 0.738 A 1.754 1.754 0 0 0 48.956 0.333 A 2.443 2.443 0 0 0 48.357 0.264 A 2.539 2.539 0 0 0 47.848 0.312 A 1.767 1.767 0 0 0 46.991 0.738 Q 46.472 1.213 46.472 2.021 A 1.808 1.808 0 0 0 46.473 2.058 A 1.499 1.499 0 0 0 46.718 2.87 A 1.626 1.626 0 0 0 46.88 3.077 A 1.726 1.726 0 0 0 47.391 3.454 A 2.119 2.119 0 0 0 47.291 3.5 A 1.738 1.738 0 0 0 46.606 4.087 A 1.629 1.629 0 0 0 46.323 5.023 A 2.272 2.272 0 0 0 46.333 5.237 A 1.63 1.63 0 0 0 46.879 6.344 A 1.895 1.895 0 0 0 47.729 6.771 A 2.797 2.797 0 0 0 48.357 6.838 A 2.796 2.796 0 0 0 48.956 6.777 A 1.925 1.925 0 0 0 49.832 6.346 A 1.578 1.578 0 0 0 50.307 5.62 A 1.989 1.989 0 0 0 50.392 5.023 A 1.581 1.581 0 0 0 50.1 4.087 Q 49.808 3.674 49.307 3.458 Q 49.737 3.248 49.99 2.874 A 1.449 1.449 0 0 0 50.139 2.592 Z M 66.823 1.969 L 66.823 2.725 A 2.251 2.251 0 0 0 66.581 2.698 A 2.782 2.782 0 0 0 66.423 2.694 Q 65.646 2.694 65.354 3.338 A 1.445 1.445 0 0 0 65.338 3.375 L 65.338 6.75 L 64.525 6.75 L 64.525 1.995 L 65.316 1.995 L 65.329 2.544 Q 65.709 1.938 66.392 1.909 A 1.636 1.636 0 0 1 66.463 1.907 Q 66.7 1.907 66.823 1.969 Z M 55.683 1.046 L 54.699 1.046 L 54.699 6.06 L 55.586 6.06 A 2.519 2.519 0 0 0 56.219 5.985 A 1.747 1.747 0 0 0 57.105 5.454 Q 57.564 4.94 57.635 4.059 A 4.165 4.165 0 0 0 57.647 3.727 L 57.647 3.353 Q 57.647 2.562 57.378 2.027 A 1.864 1.864 0 0 0 57.135 1.659 A 1.687 1.687 0 0 0 56.14 1.09 A 2.499 2.499 0 0 0 55.683 1.046 Z M 37.09 5.454 L 37.09 3.27 A 1.375 1.375 0 0 0 36.778 2.874 Q 36.454 2.597 35.969 2.597 A 1.238 1.238 0 0 0 35.543 2.668 A 1.068 1.068 0 0 0 35.038 3.059 A 1.51 1.51 0 0 0 34.828 3.484 Q 34.763 3.689 34.731 3.939 A 3.955 3.955 0 0 0 34.704 4.425 A 3.162 3.162 0 0 0 34.74 4.918 Q 34.781 5.178 34.869 5.389 A 1.474 1.474 0 0 0 35.038 5.691 A 1.06 1.06 0 0 0 35.8 6.139 A 1.391 1.391 0 0 0 35.96 6.148 Q 36.734 6.148 37.09 5.454 Z M 32.045 5.449 L 32.045 3.278 A 1.439 1.439 0 0 0 31.744 2.891 Q 31.44 2.62 31 2.599 A 1.578 1.578 0 0 0 30.924 2.597 Q 30.332 2.597 29.999 3.056 A 1.51 1.51 0 0 0 29.788 3.484 Q 29.722 3.689 29.691 3.939 A 3.955 3.955 0 0 0 29.663 4.425 Q 29.663 5.229 29.993 5.689 Q 30.322 6.148 30.916 6.148 A 1.32 1.32 0 0 0 31.425 6.054 Q 31.817 5.891 32.045 5.449 Z M 43.827 1.639 L 41.933 4.601 L 43.923 4.601 L 43.923 1.463 L 43.827 1.639 Z M 24.768 4.109 L 24.768 4.408 Q 24.768 5.199 25.124 5.682 A 1.338 1.338 0 0 0 25.396 5.962 A 0.999 0.999 0 0 0 26.011 6.166 A 1.199 1.199 0 0 0 26.405 6.104 A 1.001 1.001 0 0 0 26.875 5.761 Q 27.171 5.38 27.188 4.777 A 2.64 2.64 0 0 0 27.189 4.702 Q 27.189 4.128 26.947 3.745 A 1.319 1.319 0 0 0 26.87 3.636 A 1.009 1.009 0 0 0 26.137 3.235 A 1.285 1.285 0 0 0 26.024 3.23 A 1.297 1.297 0 0 0 25.255 3.48 A 1.38 1.38 0 0 0 24.917 3.818 A 1.257 1.257 0 0 0 24.768 4.109 Z M 49.579 5.005 A 1.375 1.375 0 0 0 49.52 4.592 A 1.109 1.109 0 0 0 49.239 4.131 A 1.148 1.148 0 0 0 48.567 3.807 A 1.593 1.593 0 0 0 48.349 3.792 A 1.466 1.466 0 0 0 47.96 3.841 A 1.086 1.086 0 0 0 47.468 4.126 A 1.123 1.123 0 0 0 47.154 4.762 A 1.572 1.572 0 0 0 47.136 5.005 A 1.48 1.48 0 0 0 47.177 5.367 A 1.019 1.019 0 0 0 47.459 5.862 Q 47.765 6.158 48.298 6.173 A 2.053 2.053 0 0 0 48.357 6.174 Q 48.851 6.174 49.161 5.94 A 1.018 1.018 0 0 0 49.254 5.86 A 1.041 1.041 0 0 0 49.553 5.292 A 1.518 1.518 0 0 0 49.579 5.005 Z M 48.357 0.932 A 1.259 1.259 0 0 0 48.005 0.979 A 0.973 0.973 0 0 0 47.582 1.228 Q 47.285 1.525 47.285 2.035 A 1.325 1.325 0 0 0 47.33 2.387 A 0.994 0.994 0 0 0 47.577 2.823 A 0.974 0.974 0 0 0 48.14 3.108 A 1.382 1.382 0 0 0 48.357 3.125 A 1.279 1.279 0 0 0 48.702 3.08 A 0.952 0.952 0 0 0 49.137 2.823 A 1.018 1.018 0 0 0 49.413 2.26 A 1.426 1.426 0 0 0 49.43 2.035 A 1.282 1.282 0 0 0 49.38 1.668 A 1.013 1.013 0 0 0 49.126 1.239 Q 48.823 0.932 48.357 0.932 Z M 62.438 5.418 L 62.438 4.443 L 61.8 4.443 Q 60.306 4.443 60.306 5.317 Q 60.306 5.7 60.561 5.915 A 0.893 0.893 0 0 0 60.975 6.108 A 1.259 1.259 0 0 0 61.216 6.13 A 1.429 1.429 0 0 0 61.941 5.933 A 1.335 1.335 0 0 0 62.236 5.705 A 1.108 1.108 0 0 0 62.437 5.418 Z" vector-effect="non-scaling-stroke"/></g>
</svg>