<?xml version="1.0" encoding="UTF-8"?>
<svg width="48px" height="48px" viewBox="0 0 48 48" version="1.1" xmlns="http://www.w3.org/2000/svg" xmlns:xlink="http://www.w3.org/1999/xlink">
    <title>Icon-Resource/Containers/Res_Amazon-ECS_ECS-Service-Connect_48_Light</title>
    <g id="Icon-Resource/Containers/Res_Amazon-ECS_ECS-Service-Connect_48" stroke="none" stroke-width="1" fill="none" fill-rule="evenodd">
        <path transform="translate(12.000000, 8.000000), scale(.65)" d="M44,37.5 C44,38.327 43.327,39 42.5,39 C41.673,39 41,38.327 41,37.5 C41,36.673 41.673,36 42.5,36 C43.327,36 44,36.673 44,37.5 L44,37.5 Z M42.5,16.001 C43.327,16.001 44,16.674 44,17.501 C44,18.328 43.327,19.001 42.5,19.001 C41.673,19.001 41,18.328 41,17.501 C41,16.674 41.673,16.001 42.5,16.001 L42.5,16.001 Z M10,42 L32,42 L32,12 L10,12 L10,42 Z M8,11 L8,36 L4,36 L4,6 L26,6 L26,10 L9,10 C8.447,10 8,10.448 8,11 L8,11 Z M42.5,26.001 C43.327,26.001 44,26.674 44,27.501 C44,28.328 43.327,29.001 42.5,29.001 C41.673,29.001 41,28.328 41,27.501 C41,26.674 41.673,26.001 42.5,26.001 L42.5,26.001 Z M42.5,31.001 C44.43,31.001 46,29.431 46,27.501 C46,25.571 44.43,24.001 42.5,24.001 C41.109,24.001 39.915,24.823 39.351,26.001 L36.204,26.001 L40.923,20.608 C41.399,20.851 41.93,21.001 42.5,21.001 C44.43,21.001 46,19.431 46,17.501 C46,15.571 44.43,14.001 42.5,14.001 C40.57,14.001 39,15.571 39,17.501 C39,18.131 39.181,18.715 39.474,19.226 L34,25.482 L34,11 C34,10.448 33.553,10 33,10 L28,10 L28,5 C28,4.448 27.553,4 27,4 L3,4 C2.447,4 2,4.448 2,5 L2,37 C2,37.552 2.447,38 3,38 L8,38 L8,43 C8,43.552 8.447,44 9,44 L33,44 C33.553,44 34,43.552 34,43 L34,28.628 L39.508,35.711 C39.193,36.236 39,36.844 39,37.5 C39,39.43 40.57,41 42.5,41 C44.43,41 46,39.43 46,37.5 C46,35.57 44.43,34 42.5,34 C41.957,34 41.448,34.135 40.989,34.357 L36.045,28.001 L39.051,28.001 C39.296,29.693 40.742,31.001 42.5,31.001 L42.5,31.001 Z M20,37 L30,37 L30,35 L20,35 L20,37 Z M20,28 L30,28 L30,26 L20,26 L20,28 Z M20,19 L30,19 L30,17 L20,17 L20,19 Z M14,37 L16,37 L16,35 L14,35 L14,37 Z M13,39 L17,39 C17.553,39 18,38.552 18,38 L18,34 C18,33.448 17.553,33 17,33 L13,33 C12.447,33 12,33.448 12,34 L12,38 C12,38.552 12.447,39 13,39 L13,39 Z M14,28 L16,28 L16,26 L14,26 L14,28 Z M13,30 L17,30 C17.553,30 18,29.552 18,29 L18,25 C18,24.448 17.553,24 17,24 L13,24 C12.447,24 12,24.448 12,25 L12,29 C12,29.552 12.447,30 13,30 L13,30 Z M14,19 L16,19 L16,17 L14,17 L14,19 Z M13,21 L17,21 C17.553,21 18,20.552 18,20 L18,16 C18,15.448 17.553,15 17,15 L13,15 C12.447,15 12,15.448 12,16 L12,20 C12,20.552 12.447,21 13,21 L13,21 Z" id="Fill-1" fill="#000000"></path>
    </g><g transform="translate(25, 83)" id="svgGroup" stroke-linecap="round" fill-rule="evenodd" font-size="9pt" stroke="#000" stroke-width="0.25mm" fill="#000" style="stroke:#000;stroke-width:0.25mm;fill:#000"><path d="M 3.617 3.103 L 3.617 3.792 L 0.844 3.792 L 0.844 6.06 L 4.065 6.06 L 4.065 6.75 L 0 6.75 L 0 0.352 L 4.021 0.352 L 4.021 1.046 L 0.844 1.046 L 0.844 3.103 L 3.617 3.103 Z M 32.757 4.72 L 33.605 4.72 A 3.016 3.016 0 0 1 33.444 5.416 A 2.099 2.099 0 0 1 32.856 6.286 Q 32.225 6.838 31.179 6.838 A 2.553 2.553 0 0 1 30.31 6.696 A 2.194 2.194 0 0 1 29.362 6.025 A 2.789 2.789 0 0 1 28.8 4.901 Q 28.694 4.484 28.681 3.992 A 5.262 5.262 0 0 1 28.679 3.85 L 28.679 3.234 A 4.251 4.251 0 0 1 28.749 2.445 A 3.229 3.229 0 0 1 28.997 1.666 A 2.539 2.539 0 0 1 29.453 0.99 A 2.26 2.26 0 0 1 29.9 0.626 A 2.415 2.415 0 0 1 30.926 0.281 A 3.027 3.027 0 0 1 31.254 0.264 A 2.962 2.962 0 0 1 31.96 0.343 A 2.065 2.065 0 0 1 32.889 0.833 A 2.16 2.16 0 0 1 33.483 1.795 A 3.086 3.086 0 0 1 33.605 2.408 L 32.757 2.408 Q 32.688 1.929 32.518 1.616 A 1.223 1.223 0 0 0 32.28 1.301 A 1.207 1.207 0 0 0 31.775 1.024 Q 31.588 0.971 31.364 0.961 A 2.396 2.396 0 0 0 31.254 0.958 A 1.753 1.753 0 0 0 30.676 1.049 A 1.463 1.463 0 0 0 29.986 1.556 A 1.989 1.989 0 0 0 29.672 2.175 Q 29.527 2.636 29.527 3.256 L 29.527 3.876 Q 29.527 4.917 29.962 5.533 A 1.38 1.38 0 0 0 30.96 6.135 A 1.814 1.814 0 0 0 31.179 6.148 A 2.497 2.497 0 0 0 31.587 6.117 Q 31.806 6.08 31.982 6.002 A 1.155 1.155 0 0 0 32.258 5.829 Q 32.634 5.511 32.757 4.72 Z M 15.605 3.393 L 14.788 3.393 Q 14.788 3.059 14.504 2.817 Q 14.221 2.575 13.79 2.575 Q 13.346 2.575 13.096 2.769 A 0.653 0.653 0 0 0 12.921 2.967 Q 12.848 3.098 12.845 3.263 A 0.771 0.771 0 0 0 12.845 3.274 A 0.588 0.588 0 0 0 12.875 3.467 A 0.48 0.48 0 0 0 13.078 3.718 A 1.093 1.093 0 0 0 13.228 3.796 Q 13.393 3.868 13.648 3.937 A 6.581 6.581 0 0 0 13.92 4.003 A 6.318 6.318 0 0 1 14.327 4.108 Q 14.664 4.208 14.906 4.329 A 1.901 1.901 0 0 1 15.162 4.481 Q 15.299 4.579 15.396 4.692 A 1.06 1.06 0 0 1 15.467 4.783 A 1.024 1.024 0 0 1 15.629 5.191 A 1.388 1.388 0 0 1 15.649 5.432 Q 15.649 6.069 15.139 6.453 Q 14.657 6.817 13.903 6.837 A 3.337 3.337 0 0 1 13.816 6.838 A 2.746 2.746 0 0 1 13.282 6.788 A 2.124 2.124 0 0 1 12.806 6.636 A 1.771 1.771 0 0 1 12.372 6.358 A 1.54 1.54 0 0 1 12.118 6.071 Q 11.87 5.708 11.87 5.287 L 12.683 5.287 A 0.932 0.932 0 0 0 12.756 5.612 A 0.827 0.827 0 0 0 13.01 5.935 A 1.072 1.072 0 0 0 13.412 6.128 Q 13.567 6.167 13.748 6.173 A 2.013 2.013 0 0 0 13.816 6.174 A 1.863 1.863 0 0 0 14.112 6.152 Q 14.274 6.126 14.405 6.07 A 0.941 0.941 0 0 0 14.557 5.988 A 0.689 0.689 0 0 0 14.721 5.837 A 0.554 0.554 0 0 0 14.836 5.489 A 0.698 0.698 0 0 0 14.8 5.258 A 0.581 0.581 0 0 0 14.588 4.977 A 1.05 1.05 0 0 0 14.419 4.878 Q 14.23 4.788 13.935 4.712 A 5.392 5.392 0 0 0 13.722 4.663 A 6.342 6.342 0 0 1 13.361 4.575 Q 12.991 4.473 12.742 4.346 Q 12.443 4.194 12.273 3.994 A 1.017 1.017 0 0 1 12.206 3.907 Q 12.032 3.652 12.032 3.3 A 1.206 1.206 0 0 1 12.431 2.396 A 1.694 1.694 0 0 1 12.527 2.312 A 1.752 1.752 0 0 1 13.31 1.952 A 2.471 2.471 0 0 1 13.79 1.907 A 2.559 2.559 0 0 1 14.354 1.966 A 1.757 1.757 0 0 1 15.102 2.325 Q 15.605 2.742 15.605 3.393 Z M 39.762 1.995 L 40.531 1.995 L 40.557 2.593 Q 41.093 1.918 41.953 1.907 A 2.234 2.234 0 0 1 41.981 1.907 A 1.905 1.905 0 0 1 42.614 2.004 Q 43.456 2.3 43.499 3.506 A 3.668 3.668 0 0 1 43.501 3.608 L 43.501 6.75 L 42.688 6.75 L 42.688 3.604 A 1.837 1.837 0 0 0 42.666 3.324 Q 42.616 3.017 42.453 2.843 Q 42.267 2.645 41.914 2.606 A 1.66 1.66 0 0 0 41.735 2.597 A 1.253 1.253 0 0 0 41.321 2.664 A 1.123 1.123 0 0 0 41.041 2.808 A 1.432 1.432 0 0 0 40.575 3.362 L 40.575 6.75 L 39.762 6.75 L 39.762 1.995 Z M 54.747 1.995 L 55.516 1.995 L 55.542 2.593 Q 56.079 1.918 56.939 1.907 A 2.234 2.234 0 0 1 56.966 1.907 A 1.905 1.905 0 0 1 57.6 2.004 Q 58.442 2.3 58.485 3.506 A 3.668 3.668 0 0 1 58.487 3.608 L 58.487 6.75 L 57.674 6.75 L 57.674 3.604 A 1.837 1.837 0 0 0 57.652 3.324 Q 57.601 3.017 57.439 2.843 Q 57.253 2.645 56.899 2.606 A 1.66 1.66 0 0 0 56.72 2.597 A 1.253 1.253 0 0 0 56.306 2.664 A 1.123 1.123 0 0 0 56.026 2.808 A 1.432 1.432 0 0 0 55.56 3.362 L 55.56 6.75 L 54.747 6.75 L 54.747 1.995 Z M 24.86 5.251 L 25.629 5.251 A 1.432 1.432 0 0 1 25.43 5.901 A 1.772 1.772 0 0 1 25.348 6.029 A 1.828 1.828 0 0 1 24.738 6.574 A 2.169 2.169 0 0 1 24.656 6.618 A 1.997 1.997 0 0 1 23.739 6.838 A 2.346 2.346 0 0 1 23.042 6.739 A 1.839 1.839 0 0 1 22.195 6.19 A 2.171 2.171 0 0 1 21.731 5.31 Q 21.621 4.909 21.621 4.417 L 21.621 4.28 A 3.24 3.24 0 0 1 21.685 3.624 A 2.57 2.57 0 0 1 21.876 3.045 A 2.008 2.008 0 0 1 22.316 2.431 A 1.892 1.892 0 0 1 22.608 2.206 A 1.943 1.943 0 0 1 23.364 1.934 A 2.529 2.529 0 0 1 23.735 1.907 A 2.196 2.196 0 0 1 24.383 1.999 A 1.786 1.786 0 0 1 25.064 2.386 A 1.693 1.693 0 0 1 25.623 3.535 A 2.239 2.239 0 0 1 25.629 3.63 L 24.86 3.63 Q 24.825 3.168 24.51 2.872 A 1.078 1.078 0 0 0 23.781 2.576 A 1.402 1.402 0 0 0 23.735 2.575 A 1.374 1.374 0 0 0 23.313 2.637 A 1.081 1.081 0 0 0 22.775 3.021 A 1.469 1.469 0 0 0 22.548 3.468 Q 22.482 3.674 22.454 3.923 A 3.514 3.514 0 0 0 22.434 4.311 L 22.434 4.465 Q 22.434 5.287 22.772 5.73 A 1.1 1.1 0 0 0 23.559 6.165 A 1.611 1.611 0 0 0 23.739 6.174 A 1.171 1.171 0 0 0 24.5 5.911 A 1.007 1.007 0 0 0 24.744 5.629 A 0.914 0.914 0 0 0 24.86 5.251 Z M 10.96 6.75 L 10.107 6.75 A 0.632 0.632 0 0 1 10.072 6.66 Q 10.041 6.562 10.016 6.41 A 3.997 3.997 0 0 1 9.993 6.249 Q 9.426 6.838 8.64 6.838 A 2.033 2.033 0 0 1 8.11 6.772 A 1.529 1.529 0 0 1 7.486 6.44 Q 7.036 6.042 7.036 5.432 Q 7.036 4.689 7.6 4.278 Q 8.165 3.867 9.189 3.867 L 9.98 3.867 L 9.98 3.494 A 1.152 1.152 0 0 0 9.944 3.199 A 0.828 0.828 0 0 0 9.725 2.815 Q 9.509 2.6 9.118 2.568 A 1.748 1.748 0 0 0 8.974 2.562 Q 8.539 2.562 8.244 2.782 Q 7.95 3.001 7.95 3.313 L 7.132 3.313 A 1.041 1.041 0 0 1 7.257 2.825 A 1.409 1.409 0 0 1 7.385 2.626 Q 7.638 2.294 8.071 2.101 A 2.249 2.249 0 0 1 8.846 1.913 A 2.669 2.669 0 0 1 9.022 1.907 A 2.65 2.65 0 0 1 9.539 1.955 Q 9.847 2.016 10.085 2.156 A 1.439 1.439 0 0 1 10.31 2.318 A 1.396 1.396 0 0 1 10.763 3.144 A 1.998 1.998 0 0 1 10.793 3.45 L 10.793 5.638 Q 10.793 6.073 10.867 6.39 A 1.707 1.707 0 0 0 10.96 6.68 L 10.96 6.75 Z M 51.456 6.75 L 50.603 6.75 A 0.632 0.632 0 0 1 50.568 6.66 Q 50.536 6.562 50.511 6.41 A 3.997 3.997 0 0 1 50.489 6.249 Q 49.922 6.838 49.135 6.838 A 2.033 2.033 0 0 1 48.606 6.772 A 1.529 1.529 0 0 1 47.982 6.44 Q 47.531 6.042 47.531 5.432 Q 47.531 4.689 48.096 4.278 Q 48.661 3.867 49.685 3.867 L 50.476 3.867 L 50.476 3.494 A 1.152 1.152 0 0 0 50.44 3.199 A 0.828 0.828 0 0 0 50.221 2.815 Q 50.004 2.6 49.614 2.568 A 1.748 1.748 0 0 0 49.469 2.562 Q 49.034 2.562 48.74 2.782 Q 48.445 3.001 48.445 3.313 L 47.628 3.313 A 1.041 1.041 0 0 1 47.753 2.825 A 1.409 1.409 0 0 1 47.881 2.626 Q 48.133 2.294 48.566 2.101 A 2.249 2.249 0 0 1 49.342 1.913 A 2.669 2.669 0 0 1 49.518 1.907 A 2.65 2.65 0 0 1 50.035 1.955 Q 50.342 2.016 50.581 2.156 A 1.439 1.439 0 0 1 50.805 2.318 A 1.396 1.396 0 0 1 51.259 3.144 A 1.998 1.998 0 0 1 51.289 3.45 L 51.289 5.638 Q 51.289 6.073 51.362 6.39 A 1.707 1.707 0 0 0 51.456 6.68 L 51.456 6.75 Z M 59.506 4.504 L 59.506 4.355 A 3.17 3.17 0 0 1 59.583 3.646 A 2.581 2.581 0 0 1 59.777 3.092 A 2.191 2.191 0 0 1 60.224 2.466 A 2.033 2.033 0 0 1 60.532 2.221 Q 61.018 1.907 61.585 1.907 A 2.254 2.254 0 0 1 62.198 1.986 A 1.639 1.639 0 0 1 63.026 2.518 Q 63.541 3.129 63.541 4.267 L 63.541 4.605 L 60.319 4.605 A 2.111 2.111 0 0 0 60.39 5.114 A 1.516 1.516 0 0 0 60.73 5.741 A 1.282 1.282 0 0 0 61.664 6.173 A 1.652 1.652 0 0 0 61.73 6.174 A 1.763 1.763 0 0 0 62.058 6.145 Q 62.282 6.103 62.459 5.999 A 1.827 1.827 0 0 0 62.968 5.551 A 2.068 2.068 0 0 0 62.982 5.533 L 63.479 5.919 A 1.926 1.926 0 0 1 62.079 6.811 A 2.749 2.749 0 0 1 61.686 6.838 A 2.394 2.394 0 0 1 60.935 6.725 A 1.974 1.974 0 0 1 60.113 6.203 Q 59.506 5.568 59.506 4.504 Z M 16.998 0.844 L 17.811 0.844 L 17.811 1.995 L 18.699 1.995 L 18.699 2.624 L 17.811 2.624 L 17.811 5.572 Q 17.811 5.858 17.93 6.001 Q 18.048 6.144 18.334 6.144 A 1.046 1.046 0 0 0 18.431 6.138 Q 18.534 6.129 18.674 6.101 A 4.024 4.024 0 0 0 18.721 6.091 L 18.721 6.75 A 2.463 2.463 0 0 1 18.288 6.829 A 2.157 2.157 0 0 1 18.097 6.838 Q 17.65 6.838 17.383 6.616 A 0.856 0.856 0 0 1 17.275 6.508 Q 17.047 6.238 17.007 5.78 A 2.351 2.351 0 0 1 16.998 5.572 L 16.998 2.624 L 16.132 2.624 L 16.132 1.995 L 16.998 1.995 L 16.998 0.844 Z M 45.018 0.844 L 45.831 0.844 L 45.831 1.995 L 46.718 1.995 L 46.718 2.624 L 45.831 2.624 L 45.831 5.572 Q 45.831 5.858 45.949 6.001 Q 46.068 6.144 46.354 6.144 A 1.046 1.046 0 0 0 46.451 6.138 Q 46.554 6.129 46.694 6.101 A 4.024 4.024 0 0 0 46.74 6.091 L 46.74 6.75 A 2.463 2.463 0 0 1 46.307 6.829 A 2.157 2.157 0 0 1 46.116 6.838 Q 45.669 6.838 45.402 6.616 A 0.856 0.856 0 0 1 45.294 6.508 Q 45.067 6.238 45.026 5.78 A 2.351 2.351 0 0 1 45.018 5.572 L 45.018 2.624 L 44.152 2.624 L 44.152 1.995 L 45.018 1.995 L 45.018 0.844 Z M 5.871 0 L 5.871 6.75 L 5.058 6.75 L 5.058 0 L 5.871 0 Z M 34.414 4.386 L 34.414 4.329 A 3.057 3.057 0 0 1 34.5 3.587 A 2.573 2.573 0 0 1 34.688 3.072 A 2.16 2.16 0 0 1 35.103 2.486 A 1.957 1.957 0 0 1 35.453 2.21 A 2.036 2.036 0 0 1 36.397 1.913 A 2.491 2.491 0 0 1 36.571 1.907 A 2.277 2.277 0 0 1 37.325 2.027 A 1.937 1.937 0 0 1 38.142 2.58 A 2.29 2.29 0 0 1 38.661 3.608 A 3.373 3.373 0 0 1 38.742 4.368 L 38.742 4.425 A 3.114 3.114 0 0 1 38.663 5.142 A 2.577 2.577 0 0 1 38.476 5.671 A 2.056 2.056 0 0 1 37.949 6.361 A 2.001 2.001 0 0 1 37.716 6.53 A 2.045 2.045 0 0 1 36.796 6.829 A 2.529 2.529 0 0 1 36.58 6.838 A 2.262 2.262 0 0 1 35.83 6.718 A 1.938 1.938 0 0 1 35.013 6.166 A 2.297 2.297 0 0 1 34.488 5.111 A 3.357 3.357 0 0 1 34.414 4.386 Z M 66.779 1.969 L 66.779 2.725 A 2.251 2.251 0 0 0 66.537 2.698 A 2.782 2.782 0 0 0 66.379 2.694 Q 65.602 2.694 65.31 3.338 A 1.445 1.445 0 0 0 65.294 3.375 L 65.294 6.75 L 64.481 6.75 L 64.481 1.995 L 65.272 1.995 L 65.285 2.544 Q 65.666 1.938 66.348 1.909 A 1.636 1.636 0 0 1 66.419 1.907 Q 66.656 1.907 66.779 1.969 Z M 20.531 1.995 L 20.531 6.75 L 19.718 6.75 L 19.718 1.995 L 20.531 1.995 Z M 53.446 1.995 L 53.446 6.75 L 52.633 6.75 L 52.633 1.995 L 53.446 1.995 Z M 35.231 4.425 A 2.772 2.772 0 0 0 35.278 4.954 Q 35.339 5.264 35.476 5.51 A 1.545 1.545 0 0 0 35.598 5.695 Q 35.965 6.174 36.58 6.174 A 1.269 1.269 0 0 0 37.069 6.083 Q 37.349 5.967 37.551 5.706 A 1.471 1.471 0 0 0 37.564 5.689 A 1.648 1.648 0 0 0 37.819 5.171 Q 37.888 4.945 37.914 4.672 A 3.655 3.655 0 0 0 37.929 4.329 A 2.687 2.687 0 0 0 37.878 3.789 Q 37.81 3.459 37.653 3.2 A 1.586 1.586 0 0 0 37.558 3.061 A 1.231 1.231 0 0 0 37.143 2.705 Q 36.89 2.575 36.571 2.575 Q 35.981 2.575 35.615 3.035 A 1.515 1.515 0 0 0 35.6 3.054 A 1.589 1.589 0 0 0 35.348 3.552 Q 35.278 3.772 35.25 4.039 A 3.676 3.676 0 0 0 35.231 4.425 Z M 9.98 5.418 L 9.98 4.443 L 9.343 4.443 Q 7.849 4.443 7.849 5.317 Q 7.849 5.7 8.104 5.915 A 0.893 0.893 0 0 0 8.517 6.108 A 1.259 1.259 0 0 0 8.758 6.13 A 1.429 1.429 0 0 0 9.483 5.933 A 1.335 1.335 0 0 0 9.779 5.705 A 1.108 1.108 0 0 0 9.98 5.418 Z M 50.476 5.418 L 50.476 4.443 L 49.838 4.443 Q 48.344 4.443 48.344 5.317 Q 48.344 5.7 48.599 5.915 A 0.893 0.893 0 0 0 49.013 6.108 A 1.259 1.259 0 0 0 49.254 6.13 A 1.429 1.429 0 0 0 49.979 5.933 A 1.335 1.335 0 0 0 50.275 5.705 A 1.108 1.108 0 0 0 50.476 5.418 Z M 60.346 3.938 L 62.728 3.938 L 62.728 3.876 Q 62.702 3.417 62.531 3.111 A 1.13 1.13 0 0 0 62.394 2.916 A 0.983 0.983 0 0 0 61.739 2.584 A 1.39 1.39 0 0 0 61.585 2.575 A 1.106 1.106 0 0 0 61.062 2.698 A 1.14 1.14 0 0 0 60.759 2.933 A 1.417 1.417 0 0 0 60.482 3.379 Q 60.409 3.563 60.369 3.785 A 2.741 2.741 0 0 0 60.346 3.938 Z M 19.652 0.734 Q 19.652 0.536 19.773 0.4 Q 19.885 0.274 20.097 0.264 A 0.783 0.783 0 0 1 20.131 0.264 Q 20.369 0.264 20.492 0.4 A 0.474 0.474 0 0 1 20.614 0.703 A 0.614 0.614 0 0 1 20.615 0.734 A 0.523 0.523 0 0 1 20.589 0.9 A 0.442 0.442 0 0 1 20.492 1.063 Q 20.379 1.184 20.171 1.194 A 0.803 0.803 0 0 1 20.131 1.195 Q 19.959 1.195 19.848 1.126 A 0.362 0.362 0 0 1 19.773 1.063 A 0.456 0.456 0 0 1 19.655 0.788 A 0.605 0.605 0 0 1 19.652 0.734 Z M 52.567 0.734 Q 52.567 0.536 52.688 0.4 Q 52.8 0.274 53.012 0.264 A 0.783 0.783 0 0 1 53.046 0.264 Q 53.284 0.264 53.407 0.4 A 0.474 0.474 0 0 1 53.529 0.703 A 0.614 0.614 0 0 1 53.53 0.734 A 0.523 0.523 0 0 1 53.505 0.9 A 0.442 0.442 0 0 1 53.407 1.063 Q 53.294 1.184 53.086 1.194 A 0.803 0.803 0 0 1 53.046 1.195 Q 52.874 1.195 52.763 1.126 A 0.362 0.362 0 0 1 52.688 1.063 A 0.456 0.456 0 0 1 52.57 0.788 A 0.605 0.605 0 0 1 52.567 0.734 Z" vector-effect="non-scaling-stroke"/></g><g transform="translate(25, 93)" id="svgGroup" stroke-linecap="round" fill-rule="evenodd" font-size="9pt" stroke="#000" stroke-width="0.25mm" fill="#000" style="stroke:#000;stroke-width:0.25mm;fill:#000"><path d="M 4.636 2.202 L 3.788 2.202 A 1.466 1.466 0 0 0 3.738 1.809 A 1.066 1.066 0 0 0 3.419 1.29 A 1.211 1.211 0 0 0 2.95 1.033 Q 2.698 0.958 2.378 0.958 A 2.286 2.286 0 0 0 1.998 0.988 Q 1.796 1.022 1.633 1.095 A 1.101 1.101 0 0 0 1.404 1.233 A 0.892 0.892 0 0 0 1.059 1.887 A 1.267 1.267 0 0 0 1.055 1.995 A 0.806 0.806 0 0 0 1.323 2.6 A 1.134 1.134 0 0 0 1.387 2.656 A 1.562 1.562 0 0 0 1.625 2.813 Q 1.955 2.993 2.516 3.151 A 8.228 8.228 0 0 1 2.981 3.295 Q 3.216 3.377 3.41 3.464 A 3.297 3.297 0 0 1 3.764 3.645 A 2.342 2.342 0 0 1 4.103 3.889 Q 4.293 4.056 4.415 4.248 A 1.45 1.45 0 0 1 4.432 4.276 A 1.498 1.498 0 0 1 4.628 4.832 A 1.948 1.948 0 0 1 4.65 5.124 A 1.606 1.606 0 0 1 4.527 5.76 Q 4.382 6.101 4.064 6.354 A 1.886 1.886 0 0 1 4.043 6.37 Q 3.437 6.838 2.422 6.838 A 3.023 3.023 0 0 1 1.281 6.623 A 2.917 2.917 0 0 1 1.191 6.585 A 2.383 2.383 0 0 1 0.713 6.307 A 1.874 1.874 0 0 1 0.31 5.893 A 1.689 1.689 0 0 1 0 4.896 L 0.848 4.896 A 1.261 1.261 0 0 0 0.918 5.323 A 1.074 1.074 0 0 0 1.277 5.812 Q 1.661 6.113 2.278 6.144 A 2.87 2.87 0 0 0 2.422 6.148 A 2.628 2.628 0 0 0 2.809 6.121 Q 3.005 6.092 3.164 6.031 A 1.129 1.129 0 0 0 3.445 5.875 Q 3.801 5.603 3.801 5.133 A 1.074 1.074 0 0 0 3.759 4.822 A 0.816 0.816 0 0 0 3.472 4.406 Q 3.142 4.148 2.277 3.898 Q 1.191 3.586 0.697 3.131 Q 0.202 2.676 0.202 2.008 Q 0.202 1.252 0.807 0.758 A 2.121 2.121 0 0 1 1.697 0.335 A 3.087 3.087 0 0 1 2.378 0.264 A 2.913 2.913 0 0 1 3.038 0.336 A 2.372 2.372 0 0 1 3.553 0.519 A 2.051 2.051 0 0 1 4.084 0.889 A 1.834 1.834 0 0 1 4.353 1.222 A 1.798 1.798 0 0 1 4.636 2.202 Z M 47.092 2.202 L 46.244 2.202 A 1.466 1.466 0 0 0 46.194 1.809 A 1.066 1.066 0 0 0 45.875 1.29 A 1.211 1.211 0 0 0 45.405 1.033 Q 45.154 0.958 44.833 0.958 A 2.286 2.286 0 0 0 44.453 0.988 Q 44.251 1.022 44.089 1.095 A 1.101 1.101 0 0 0 43.86 1.233 A 0.892 0.892 0 0 0 43.515 1.887 A 1.267 1.267 0 0 0 43.51 1.995 A 0.806 0.806 0 0 0 43.778 2.6 A 1.134 1.134 0 0 0 43.842 2.656 A 1.562 1.562 0 0 0 44.08 2.813 Q 44.411 2.993 44.972 3.151 A 8.228 8.228 0 0 1 45.436 3.295 Q 45.671 3.377 45.866 3.464 A 3.297 3.297 0 0 1 46.22 3.645 A 2.342 2.342 0 0 1 46.558 3.889 Q 46.748 4.056 46.871 4.248 A 1.45 1.45 0 0 1 46.888 4.276 A 1.498 1.498 0 0 1 47.084 4.832 A 1.948 1.948 0 0 1 47.105 5.124 A 1.606 1.606 0 0 1 46.983 5.76 Q 46.837 6.101 46.519 6.354 A 1.886 1.886 0 0 1 46.499 6.37 Q 45.892 6.838 44.877 6.838 A 3.023 3.023 0 0 1 43.736 6.623 A 2.917 2.917 0 0 1 43.647 6.585 A 2.383 2.383 0 0 1 43.169 6.307 A 1.874 1.874 0 0 1 42.766 5.893 A 1.689 1.689 0 0 1 42.456 4.896 L 43.304 4.896 A 1.261 1.261 0 0 0 43.373 5.323 A 1.074 1.074 0 0 0 43.732 5.812 Q 44.117 6.113 44.733 6.144 A 2.87 2.87 0 0 0 44.877 6.148 A 2.628 2.628 0 0 0 45.264 6.121 Q 45.46 6.092 45.619 6.031 A 1.129 1.129 0 0 0 45.901 5.875 Q 46.257 5.603 46.257 5.133 A 1.074 1.074 0 0 0 46.214 4.822 A 0.816 0.816 0 0 0 45.927 4.406 Q 45.598 4.148 44.732 3.898 Q 43.647 3.586 43.152 3.131 Q 42.658 2.676 42.658 2.008 Q 42.658 1.252 43.262 0.758 A 2.121 2.121 0 0 1 44.153 0.335 A 3.087 3.087 0 0 1 44.833 0.264 A 2.913 2.913 0 0 1 45.493 0.336 A 2.372 2.372 0 0 1 46.009 0.519 A 2.051 2.051 0 0 1 46.54 0.889 A 1.834 1.834 0 0 1 46.808 1.222 A 1.798 1.798 0 0 1 47.092 2.202 Z M 54.659 2.202 L 53.811 2.202 A 1.466 1.466 0 0 0 53.761 1.809 A 1.066 1.066 0 0 0 53.442 1.29 A 1.211 1.211 0 0 0 52.973 1.033 Q 52.721 0.958 52.401 0.958 A 2.286 2.286 0 0 0 52.021 0.988 Q 51.819 1.022 51.656 1.095 A 1.101 1.101 0 0 0 51.427 1.233 A 0.892 0.892 0 0 0 51.082 1.887 A 1.267 1.267 0 0 0 51.078 1.995 A 0.806 0.806 0 0 0 51.346 2.6 A 1.134 1.134 0 0 0 51.41 2.656 A 1.562 1.562 0 0 0 51.648 2.813 Q 51.978 2.993 52.539 3.151 A 8.228 8.228 0 0 1 53.004 3.295 Q 53.239 3.377 53.433 3.464 A 3.297 3.297 0 0 1 53.787 3.645 A 2.342 2.342 0 0 1 54.126 3.889 Q 54.316 4.056 54.438 4.248 A 1.45 1.45 0 0 1 54.455 4.276 A 1.498 1.498 0 0 1 54.651 4.832 A 1.948 1.948 0 0 1 54.673 5.124 A 1.606 1.606 0 0 1 54.55 5.76 Q 54.405 6.101 54.087 6.354 A 1.886 1.886 0 0 1 54.066 6.37 Q 53.46 6.838 52.444 6.838 A 3.023 3.023 0 0 1 51.304 6.623 A 2.917 2.917 0 0 1 51.214 6.585 A 2.383 2.383 0 0 1 50.736 6.307 A 1.874 1.874 0 0 1 50.333 5.893 A 1.689 1.689 0 0 1 50.023 4.896 L 50.871 4.896 A 1.261 1.261 0 0 0 50.941 5.323 A 1.074 1.074 0 0 0 51.3 5.812 Q 51.684 6.113 52.301 6.144 A 2.87 2.87 0 0 0 52.444 6.148 A 2.628 2.628 0 0 0 52.831 6.121 Q 53.028 6.092 53.187 6.031 A 1.129 1.129 0 0 0 53.468 5.875 Q 53.824 5.603 53.824 5.133 A 1.074 1.074 0 0 0 53.782 4.822 A 0.816 0.816 0 0 0 53.495 4.406 Q 53.165 4.148 52.299 3.898 Q 51.214 3.586 50.72 3.131 Q 50.225 2.676 50.225 2.008 Q 50.225 1.252 50.829 0.758 A 2.121 2.121 0 0 1 51.72 0.335 A 3.087 3.087 0 0 1 52.401 0.264 A 2.913 2.913 0 0 1 53.061 0.336 A 2.372 2.372 0 0 1 53.576 0.519 A 2.051 2.051 0 0 1 54.107 0.889 A 1.834 1.834 0 0 1 54.376 1.222 A 1.798 1.798 0 0 1 54.659 2.202 Z M 35.49 3.103 L 35.49 3.792 L 32.717 3.792 L 32.717 6.06 L 35.939 6.06 L 35.939 6.75 L 31.874 6.75 L 31.874 0.352 L 35.895 0.352 L 35.895 1.046 L 32.717 1.046 L 32.717 3.103 L 35.49 3.103 Z M 40.847 4.72 L 41.695 4.72 A 3.016 3.016 0 0 1 41.534 5.416 A 2.099 2.099 0 0 1 40.946 6.286 Q 40.316 6.838 39.27 6.838 A 2.553 2.553 0 0 1 38.401 6.696 A 2.194 2.194 0 0 1 37.453 6.025 A 2.789 2.789 0 0 1 36.891 4.901 Q 36.784 4.484 36.771 3.992 A 5.262 5.262 0 0 1 36.769 3.85 L 36.769 3.234 A 4.251 4.251 0 0 1 36.839 2.445 A 3.229 3.229 0 0 1 37.088 1.666 A 2.539 2.539 0 0 1 37.543 0.99 A 2.26 2.26 0 0 1 37.991 0.626 A 2.415 2.415 0 0 1 39.017 0.281 A 3.027 3.027 0 0 1 39.344 0.264 A 2.962 2.962 0 0 1 40.05 0.343 A 2.065 2.065 0 0 1 40.979 0.833 A 2.16 2.16 0 0 1 41.574 1.795 A 3.086 3.086 0 0 1 41.695 2.408 L 40.847 2.408 Q 40.778 1.929 40.609 1.616 A 1.223 1.223 0 0 0 40.371 1.301 A 1.207 1.207 0 0 0 39.865 1.024 Q 39.678 0.971 39.455 0.961 A 2.396 2.396 0 0 0 39.344 0.958 A 1.753 1.753 0 0 0 38.766 1.049 A 1.463 1.463 0 0 0 38.077 1.556 A 1.989 1.989 0 0 0 37.763 2.175 Q 37.617 2.636 37.617 3.256 L 37.617 3.876 Q 37.617 4.917 38.052 5.533 A 1.38 1.38 0 0 0 39.051 6.135 A 1.814 1.814 0 0 0 39.27 6.148 A 2.497 2.497 0 0 0 39.677 6.117 Q 39.897 6.08 40.072 6.002 A 1.155 1.155 0 0 0 40.349 5.829 Q 40.724 5.511 40.847 4.72 Z M 85.755 4.72 L 86.603 4.72 A 3.016 3.016 0 0 1 86.442 5.416 A 2.099 2.099 0 0 1 85.854 6.286 Q 85.223 6.838 84.177 6.838 A 2.553 2.553 0 0 1 83.308 6.696 A 2.194 2.194 0 0 1 82.36 6.025 A 2.789 2.789 0 0 1 81.799 4.901 Q 81.692 4.484 81.679 3.992 A 5.262 5.262 0 0 1 81.677 3.85 L 81.677 3.234 A 4.251 4.251 0 0 1 81.747 2.445 A 3.229 3.229 0 0 1 81.996 1.666 A 2.539 2.539 0 0 1 82.451 0.99 A 2.26 2.26 0 0 1 82.899 0.626 A 2.415 2.415 0 0 1 83.924 0.281 A 3.027 3.027 0 0 1 84.252 0.264 A 2.962 2.962 0 0 1 84.958 0.343 A 2.065 2.065 0 0 1 85.887 0.833 A 2.16 2.16 0 0 1 86.481 1.795 A 3.086 3.086 0 0 1 86.603 2.408 L 85.755 2.408 Q 85.686 1.929 85.516 1.616 A 1.223 1.223 0 0 0 85.278 1.301 A 1.207 1.207 0 0 0 84.773 1.024 Q 84.586 0.971 84.363 0.961 A 2.396 2.396 0 0 0 84.252 0.958 A 1.753 1.753 0 0 0 83.674 1.049 A 1.463 1.463 0 0 0 82.984 1.556 A 1.989 1.989 0 0 0 82.67 2.175 Q 82.525 2.636 82.525 3.256 L 82.525 3.876 Q 82.525 4.917 82.96 5.533 A 1.38 1.38 0 0 0 83.959 6.135 A 1.814 1.814 0 0 0 84.177 6.148 A 2.497 2.497 0 0 0 84.585 6.117 Q 84.804 6.08 84.98 6.002 A 1.155 1.155 0 0 0 85.256 5.829 Q 85.632 5.511 85.755 4.72 Z M 142.563 0 L 142.563 2.571 A 1.767 1.767 0 0 1 143.229 2.053 A 1.832 1.832 0 0 1 143.969 1.907 A 1.905 1.905 0 0 1 144.603 2.004 Q 145.445 2.3 145.488 3.506 A 3.668 3.668 0 0 1 145.49 3.608 L 145.49 6.75 L 144.677 6.75 L 144.677 3.604 A 1.837 1.837 0 0 0 144.655 3.324 Q 144.604 3.017 144.442 2.843 Q 144.256 2.645 143.902 2.606 A 1.66 1.66 0 0 0 143.723 2.597 A 1.253 1.253 0 0 0 143.309 2.664 A 1.123 1.123 0 0 0 143.029 2.808 A 1.432 1.432 0 0 0 142.563 3.362 L 142.563 6.75 L 141.75 6.75 L 141.75 0 L 142.563 0 Z M 139.742 2.522 L 139.781 1.995 L 140.524 1.995 L 140.524 6.636 A 2.511 2.511 0 0 1 140.453 7.249 A 1.738 1.738 0 0 1 139.977 8.09 A 1.834 1.834 0 0 1 139.047 8.57 A 2.671 2.671 0 0 1 138.507 8.622 A 2.446 2.446 0 0 1 137.501 8.402 A 2.003 2.003 0 0 1 137.09 8.161 A 1.563 1.563 0 0 1 136.749 7.8 L 137.171 7.313 A 1.889 1.889 0 0 0 137.606 7.712 A 1.514 1.514 0 0 0 138.45 7.958 A 1.695 1.695 0 0 0 138.827 7.919 Q 139.095 7.858 139.289 7.702 A 1.037 1.037 0 0 0 139.375 7.625 A 1.09 1.09 0 0 0 139.652 7.132 Q 139.699 6.959 139.706 6.752 A 2.134 2.134 0 0 0 139.707 6.684 L 139.707 6.275 A 1.601 1.601 0 0 1 138.655 6.821 A 2.279 2.279 0 0 1 138.375 6.838 A 1.672 1.672 0 0 1 137.62 6.67 Q 137.298 6.51 137.048 6.197 A 2.14 2.14 0 0 1 137.024 6.166 A 2.316 2.316 0 0 1 136.641 5.386 Q 136.507 4.922 136.507 4.333 Q 136.507 3.472 136.816 2.884 A 2.096 2.096 0 0 1 137.022 2.564 Q 137.536 1.907 138.384 1.907 A 1.971 1.971 0 0 1 138.983 1.994 A 1.55 1.55 0 0 1 139.742 2.522 Z M 92.76 1.995 L 93.529 1.995 L 93.555 2.593 Q 94.092 1.918 94.952 1.907 A 2.234 2.234 0 0 1 94.979 1.907 A 1.905 1.905 0 0 1 95.613 2.004 Q 96.455 2.3 96.497 3.506 A 3.668 3.668 0 0 1 96.5 3.608 L 96.5 6.75 L 95.687 6.75 L 95.687 3.604 A 1.837 1.837 0 0 0 95.664 3.324 Q 95.614 3.017 95.452 2.843 Q 95.265 2.645 94.912 2.606 A 1.66 1.66 0 0 0 94.733 2.597 A 1.253 1.253 0 0 0 94.319 2.664 A 1.123 1.123 0 0 0 94.039 2.808 A 1.432 1.432 0 0 0 93.573 3.362 L 93.573 6.75 L 92.76 6.75 L 92.76 1.995 Z M 97.726 1.995 L 98.495 1.995 L 98.521 2.593 Q 99.057 1.918 99.917 1.907 A 2.234 2.234 0 0 1 99.945 1.907 A 1.905 1.905 0 0 1 100.578 2.004 Q 101.42 2.3 101.463 3.506 A 3.668 3.668 0 0 1 101.465 3.608 L 101.465 6.75 L 100.652 6.75 L 100.652 3.604 A 1.837 1.837 0 0 0 100.63 3.324 Q 100.58 3.017 100.417 2.843 Q 100.231 2.645 99.878 2.606 A 1.66 1.66 0 0 0 99.699 2.597 A 1.253 1.253 0 0 0 99.285 2.664 A 1.123 1.123 0 0 0 99.005 2.808 A 1.432 1.432 0 0 0 98.539 3.362 L 98.539 6.75 L 97.726 6.75 L 97.726 1.995 Z M 23.067 5.251 L 23.836 5.251 A 1.432 1.432 0 0 1 23.637 5.901 A 1.772 1.772 0 0 1 23.555 6.029 A 1.828 1.828 0 0 1 22.946 6.574 A 2.169 2.169 0 0 1 22.863 6.618 A 1.997 1.997 0 0 1 21.946 6.838 A 2.346 2.346 0 0 1 21.249 6.739 A 1.839 1.839 0 0 1 20.402 6.19 A 2.171 2.171 0 0 1 19.938 5.31 Q 19.828 4.909 19.828 4.417 L 19.828 4.28 A 3.24 3.24 0 0 1 19.892 3.624 A 2.57 2.57 0 0 1 20.083 3.045 A 2.008 2.008 0 0 1 20.523 2.431 A 1.892 1.892 0 0 1 20.815 2.206 A 1.943 1.943 0 0 1 21.571 1.934 A 2.529 2.529 0 0 1 21.942 1.907 A 2.196 2.196 0 0 1 22.59 1.999 A 1.786 1.786 0 0 1 23.271 2.386 A 1.693 1.693 0 0 1 23.83 3.535 A 2.239 2.239 0 0 1 23.836 3.63 L 23.067 3.63 Q 23.032 3.168 22.718 2.872 A 1.078 1.078 0 0 0 21.989 2.576 A 1.402 1.402 0 0 0 21.942 2.575 A 1.374 1.374 0 0 0 21.521 2.637 A 1.081 1.081 0 0 0 20.982 3.021 A 1.469 1.469 0 0 0 20.755 3.468 Q 20.689 3.674 20.662 3.923 A 3.514 3.514 0 0 0 20.641 4.311 L 20.641 4.465 Q 20.641 5.287 20.98 5.73 A 1.1 1.1 0 0 0 21.766 6.165 A 1.611 1.611 0 0 0 21.946 6.174 A 1.171 1.171 0 0 0 22.707 5.911 A 1.007 1.007 0 0 0 22.951 5.629 A 0.914 0.914 0 0 0 23.067 5.251 Z M 73.09 5.251 L 73.859 5.251 A 1.432 1.432 0 0 1 73.66 5.901 A 1.772 1.772 0 0 1 73.578 6.029 A 1.828 1.828 0 0 1 72.969 6.574 A 2.169 2.169 0 0 1 72.886 6.618 A 1.997 1.997 0 0 1 71.969 6.838 A 2.346 2.346 0 0 1 71.272 6.739 A 1.839 1.839 0 0 1 70.425 6.19 A 2.171 2.171 0 0 1 69.961 5.31 Q 69.851 4.909 69.851 4.417 L 69.851 4.28 A 3.24 3.24 0 0 1 69.915 3.624 A 2.57 2.57 0 0 1 70.106 3.045 A 2.008 2.008 0 0 1 70.546 2.431 A 1.892 1.892 0 0 1 70.838 2.206 A 1.943 1.943 0 0 1 71.594 1.934 A 2.529 2.529 0 0 1 71.965 1.907 A 2.196 2.196 0 0 1 72.613 1.999 A 1.786 1.786 0 0 1 73.294 2.386 A 1.693 1.693 0 0 1 73.853 3.535 A 2.239 2.239 0 0 1 73.859 3.63 L 73.09 3.63 Q 73.055 3.168 72.741 2.872 A 1.078 1.078 0 0 0 72.011 2.576 A 1.402 1.402 0 0 0 71.965 2.575 A 1.374 1.374 0 0 0 71.544 2.637 A 1.081 1.081 0 0 0 71.005 3.021 A 1.469 1.469 0 0 0 70.778 3.468 Q 70.712 3.674 70.684 3.923 A 3.514 3.514 0 0 0 70.664 4.311 L 70.664 4.465 Q 70.664 5.287 71.003 5.73 A 1.1 1.1 0 0 0 71.789 6.165 A 1.611 1.611 0 0 0 71.969 6.174 A 1.171 1.171 0 0 0 72.73 5.911 A 1.007 1.007 0 0 0 72.974 5.629 A 0.914 0.914 0 0 0 73.09 5.251 Z M 110.487 5.251 L 111.256 5.251 A 1.432 1.432 0 0 1 111.057 5.901 A 1.772 1.772 0 0 1 110.975 6.029 A 1.828 1.828 0 0 1 110.366 6.574 A 2.169 2.169 0 0 1 110.283 6.618 A 1.997 1.997 0 0 1 109.367 6.838 A 2.346 2.346 0 0 1 108.67 6.739 A 1.839 1.839 0 0 1 107.822 6.19 A 2.171 2.171 0 0 1 107.358 5.31 Q 107.249 4.909 107.249 4.417 L 107.249 4.28 A 3.24 3.24 0 0 1 107.312 3.624 A 2.57 2.57 0 0 1 107.504 3.045 A 2.008 2.008 0 0 1 107.943 2.431 A 1.892 1.892 0 0 1 108.235 2.206 A 1.943 1.943 0 0 1 108.992 1.934 A 2.529 2.529 0 0 1 109.362 1.907 A 2.196 2.196 0 0 1 110.011 1.999 A 1.786 1.786 0 0 1 110.692 2.386 A 1.693 1.693 0 0 1 111.25 3.535 A 2.239 2.239 0 0 1 111.256 3.63 L 110.487 3.63 Q 110.452 3.168 110.138 2.872 A 1.078 1.078 0 0 0 109.409 2.576 A 1.402 1.402 0 0 0 109.362 2.575 A 1.374 1.374 0 0 0 108.941 2.637 A 1.081 1.081 0 0 0 108.402 3.021 A 1.469 1.469 0 0 0 108.176 3.468 Q 108.11 3.674 108.082 3.923 A 3.514 3.514 0 0 0 108.062 4.311 L 108.062 4.465 Q 108.062 5.287 108.4 5.73 A 1.1 1.1 0 0 0 109.187 6.165 A 1.611 1.611 0 0 0 109.367 6.174 A 1.171 1.171 0 0 0 110.127 5.911 A 1.007 1.007 0 0 0 110.371 5.629 A 0.914 0.914 0 0 0 110.487 5.251 Z M 5.397 4.504 L 5.397 4.355 A 3.17 3.17 0 0 1 5.473 3.646 A 2.581 2.581 0 0 1 5.667 3.092 A 2.191 2.191 0 0 1 6.114 2.466 A 2.033 2.033 0 0 1 6.423 2.221 Q 6.908 1.907 7.475 1.907 A 2.254 2.254 0 0 1 8.088 1.986 A 1.639 1.639 0 0 1 8.917 2.518 Q 9.431 3.129 9.431 4.267 L 9.431 4.605 L 6.21 4.605 A 2.111 2.111 0 0 0 6.281 5.114 A 1.516 1.516 0 0 0 6.621 5.741 A 1.282 1.282 0 0 0 7.555 6.173 A 1.652 1.652 0 0 0 7.62 6.174 A 1.763 1.763 0 0 0 7.948 6.145 Q 8.172 6.103 8.35 5.999 A 1.827 1.827 0 0 0 8.859 5.551 A 2.068 2.068 0 0 0 8.873 5.533 L 9.369 5.919 A 1.926 1.926 0 0 1 7.97 6.811 A 2.749 2.749 0 0 1 7.576 6.838 A 2.394 2.394 0 0 1 6.825 6.725 A 1.974 1.974 0 0 1 6.003 6.203 Q 5.397 5.568 5.397 4.504 Z M 24.544 4.504 L 24.544 4.355 A 3.17 3.17 0 0 1 24.62 3.646 A 2.581 2.581 0 0 1 24.814 3.092 A 2.191 2.191 0 0 1 25.261 2.466 A 2.033 2.033 0 0 1 25.57 2.221 Q 26.055 1.907 26.622 1.907 A 2.254 2.254 0 0 1 27.235 1.986 A 1.639 1.639 0 0 1 28.064 2.518 Q 28.578 3.129 28.578 4.267 L 28.578 4.605 L 25.357 4.605 A 2.111 2.111 0 0 0 25.428 5.114 A 1.516 1.516 0 0 0 25.767 5.741 A 1.282 1.282 0 0 0 26.702 6.173 A 1.652 1.652 0 0 0 26.767 6.174 A 1.763 1.763 0 0 0 27.095 6.145 Q 27.319 6.103 27.497 5.999 A 1.827 1.827 0 0 0 28.006 5.551 A 2.068 2.068 0 0 0 28.02 5.533 L 28.516 5.919 A 1.926 1.926 0 0 1 27.117 6.811 A 2.749 2.749 0 0 1 26.723 6.838 A 2.394 2.394 0 0 1 25.972 6.725 A 1.974 1.974 0 0 1 25.15 6.203 Q 24.544 5.568 24.544 4.504 Z M 55.42 4.504 L 55.42 4.355 A 3.17 3.17 0 0 1 55.496 3.646 A 2.581 2.581 0 0 1 55.69 3.092 A 2.191 2.191 0 0 1 56.137 2.466 A 2.033 2.033 0 0 1 56.446 2.221 Q 56.931 1.907 57.498 1.907 A 2.254 2.254 0 0 1 58.111 1.986 A 1.639 1.639 0 0 1 58.94 2.518 Q 59.454 3.129 59.454 4.267 L 59.454 4.605 L 56.233 4.605 A 2.111 2.111 0 0 0 56.304 5.114 A 1.516 1.516 0 0 0 56.643 5.741 A 1.282 1.282 0 0 0 57.578 6.173 A 1.652 1.652 0 0 0 57.643 6.174 A 1.763 1.763 0 0 0 57.971 6.145 Q 58.195 6.103 58.373 5.999 A 1.827 1.827 0 0 0 58.882 5.551 A 2.068 2.068 0 0 0 58.896 5.533 L 59.392 5.919 A 1.926 1.926 0 0 1 57.993 6.811 A 2.749 2.749 0 0 1 57.599 6.838 A 2.394 2.394 0 0 1 56.848 6.725 A 1.974 1.974 0 0 1 56.026 6.203 Q 55.42 5.568 55.42 4.504 Z M 74.567 4.504 L 74.567 4.355 A 3.17 3.17 0 0 1 74.643 3.646 A 2.581 2.581 0 0 1 74.837 3.092 A 2.191 2.191 0 0 1 75.284 2.466 A 2.033 2.033 0 0 1 75.593 2.221 Q 76.078 1.907 76.645 1.907 A 2.254 2.254 0 0 1 77.258 1.986 A 1.639 1.639 0 0 1 78.087 2.518 Q 78.601 3.129 78.601 4.267 L 78.601 4.605 L 75.38 4.605 A 2.111 2.111 0 0 0 75.451 5.114 A 1.516 1.516 0 0 0 75.79 5.741 A 1.282 1.282 0 0 0 76.724 6.173 A 1.652 1.652 0 0 0 76.79 6.174 A 1.763 1.763 0 0 0 77.118 6.145 Q 77.342 6.103 77.52 5.999 A 1.827 1.827 0 0 0 78.029 5.551 A 2.068 2.068 0 0 0 78.043 5.533 L 78.539 5.919 A 1.926 1.926 0 0 1 77.139 6.811 A 2.749 2.749 0 0 1 76.746 6.838 A 2.394 2.394 0 0 1 75.995 6.725 A 1.974 1.974 0 0 1 75.173 6.203 Q 74.567 5.568 74.567 4.504 Z M 102.485 4.504 L 102.485 4.355 A 3.17 3.17 0 0 1 102.561 3.646 A 2.581 2.581 0 0 1 102.755 3.092 A 2.191 2.191 0 0 1 103.203 2.466 A 2.033 2.033 0 0 1 103.511 2.221 Q 103.997 1.907 104.564 1.907 A 2.254 2.254 0 0 1 105.177 1.986 A 1.639 1.639 0 0 1 106.005 2.518 Q 106.519 3.129 106.519 4.267 L 106.519 4.605 L 103.298 4.605 A 2.111 2.111 0 0 0 103.369 5.114 A 1.516 1.516 0 0 0 103.709 5.741 A 1.282 1.282 0 0 0 104.643 6.173 A 1.652 1.652 0 0 0 104.709 6.174 A 1.763 1.763 0 0 0 105.037 6.145 Q 105.261 6.103 105.438 5.999 A 1.827 1.827 0 0 0 105.947 5.551 A 2.068 2.068 0 0 0 105.961 5.533 L 106.458 5.919 A 1.926 1.926 0 0 1 105.058 6.811 A 2.749 2.749 0 0 1 104.665 6.838 A 2.394 2.394 0 0 1 103.913 6.725 A 1.974 1.974 0 0 1 103.091 6.203 Q 102.485 5.568 102.485 4.504 Z M 130.65 0.352 L 130.65 6.06 L 133.682 6.06 L 133.682 6.75 L 129.801 6.75 L 129.801 0.352 L 130.65 0.352 Z M 13.856 1.995 L 15.065 5.647 L 16.242 1.995 L 17.073 1.995 L 15.368 6.75 L 14.748 6.75 L 13.026 1.995 L 13.856 1.995 Z M 63.879 1.995 L 65.088 5.647 L 66.265 1.995 L 67.096 1.995 L 65.391 6.75 L 64.771 6.75 L 63.048 1.995 L 63.879 1.995 Z M 120.687 0.352 L 120.687 4.601 L 121.575 4.601 L 121.575 5.265 L 120.687 5.265 L 120.687 6.75 L 119.87 6.75 L 119.87 5.265 L 116.956 5.265 L 116.956 4.786 L 119.821 0.352 L 120.687 0.352 Z M 126.085 2.592 A 1.544 1.544 0 0 0 126.189 2.021 A 2.226 2.226 0 0 0 126.168 1.707 A 1.566 1.566 0 0 0 125.668 0.738 A 1.754 1.754 0 0 0 124.903 0.333 A 2.443 2.443 0 0 0 124.304 0.264 A 2.539 2.539 0 0 0 123.794 0.312 A 1.767 1.767 0 0 0 122.937 0.738 Q 122.419 1.213 122.419 2.021 A 1.808 1.808 0 0 0 122.419 2.058 A 1.499 1.499 0 0 0 122.665 2.87 A 1.626 1.626 0 0 0 122.827 3.077 A 1.726 1.726 0 0 0 123.337 3.454 A 2.119 2.119 0 0 0 123.238 3.5 A 1.738 1.738 0 0 0 122.553 4.087 A 1.629 1.629 0 0 0 122.269 5.023 A 2.272 2.272 0 0 0 122.279 5.237 A 1.63 1.63 0 0 0 122.825 6.344 A 1.895 1.895 0 0 0 123.676 6.771 A 2.797 2.797 0 0 0 124.304 6.838 A 2.796 2.796 0 0 0 124.903 6.777 A 1.925 1.925 0 0 0 125.778 6.346 A 1.578 1.578 0 0 0 126.253 5.62 A 1.989 1.989 0 0 0 126.339 5.023 A 1.581 1.581 0 0 0 126.046 4.087 Q 125.754 3.674 125.253 3.458 Q 125.684 3.248 125.936 2.874 A 1.449 1.449 0 0 0 126.085 2.592 Z M 112.461 0.844 L 113.274 0.844 L 113.274 1.995 L 114.161 1.995 L 114.161 2.624 L 113.274 2.624 L 113.274 5.572 Q 113.274 5.858 113.392 6.001 Q 113.511 6.144 113.797 6.144 A 1.046 1.046 0 0 0 113.894 6.138 Q 113.997 6.129 114.137 6.101 A 4.024 4.024 0 0 0 114.183 6.091 L 114.183 6.75 A 2.463 2.463 0 0 1 113.75 6.829 A 2.157 2.157 0 0 1 113.559 6.838 Q 113.112 6.838 112.845 6.616 A 0.856 0.856 0 0 1 112.737 6.508 Q 112.51 6.238 112.469 5.78 A 2.351 2.351 0 0 1 112.461 5.572 L 112.461 2.624 L 111.595 2.624 L 111.595 1.995 L 112.461 1.995 L 112.461 0.844 Z M 146.997 0.844 L 147.81 0.844 L 147.81 1.995 L 148.698 1.995 L 148.698 2.624 L 147.81 2.624 L 147.81 5.572 Q 147.81 5.858 147.929 6.001 Q 148.048 6.144 148.333 6.144 A 1.046 1.046 0 0 0 148.431 6.138 Q 148.533 6.129 148.673 6.101 A 4.024 4.024 0 0 0 148.72 6.091 L 148.72 6.75 A 2.463 2.463 0 0 1 148.287 6.829 A 2.157 2.157 0 0 1 148.096 6.838 Q 147.649 6.838 147.382 6.616 A 0.856 0.856 0 0 1 147.274 6.508 Q 147.047 6.238 147.006 5.78 A 2.351 2.351 0 0 1 146.997 5.572 L 146.997 2.624 L 146.131 2.624 L 146.131 1.995 L 146.997 1.995 L 146.997 0.844 Z M 87.412 4.386 L 87.412 4.329 A 3.057 3.057 0 0 1 87.499 3.587 A 2.573 2.573 0 0 1 87.686 3.072 A 2.16 2.16 0 0 1 88.101 2.486 A 1.957 1.957 0 0 1 88.451 2.21 A 2.036 2.036 0 0 1 89.395 1.913 A 2.491 2.491 0 0 1 89.569 1.907 A 2.277 2.277 0 0 1 90.323 2.027 A 1.937 1.937 0 0 1 91.141 2.58 A 2.29 2.29 0 0 1 91.66 3.608 A 3.373 3.373 0 0 1 91.74 4.368 L 91.74 4.425 A 3.114 3.114 0 0 1 91.661 5.142 A 2.577 2.577 0 0 1 91.475 5.671 A 2.056 2.056 0 0 1 90.947 6.361 A 2.001 2.001 0 0 1 90.714 6.53 A 2.045 2.045 0 0 1 89.794 6.829 A 2.529 2.529 0 0 1 89.578 6.838 A 2.262 2.262 0 0 1 88.828 6.718 A 1.938 1.938 0 0 1 88.012 6.166 A 2.297 2.297 0 0 1 87.486 5.111 A 3.357 3.357 0 0 1 87.412 4.386 Z M 12.67 1.969 L 12.67 2.725 A 2.251 2.251 0 0 0 12.427 2.698 A 2.782 2.782 0 0 0 12.27 2.694 Q 11.492 2.694 11.2 3.338 A 1.445 1.445 0 0 0 11.184 3.375 L 11.184 6.75 L 10.371 6.75 L 10.371 1.995 L 11.162 1.995 L 11.175 2.544 Q 11.556 1.938 12.238 1.909 A 1.636 1.636 0 0 1 12.309 1.907 Q 12.547 1.907 12.67 1.969 Z M 62.693 1.969 L 62.693 2.725 A 2.251 2.251 0 0 0 62.45 2.698 A 2.782 2.782 0 0 0 62.293 2.694 Q 61.515 2.694 61.223 3.338 A 1.445 1.445 0 0 0 61.207 3.375 L 61.207 6.75 L 60.394 6.75 L 60.394 1.995 L 61.185 1.995 L 61.198 2.544 Q 61.579 1.938 62.261 1.909 A 1.636 1.636 0 0 1 62.332 1.907 Q 62.569 1.907 62.693 1.969 Z M 18.738 1.995 L 18.738 6.75 L 17.925 6.75 L 17.925 1.995 L 18.738 1.995 Z M 68.761 1.995 L 68.761 6.75 L 67.948 6.75 L 67.948 1.995 L 68.761 1.995 Z M 135.4 1.995 L 135.4 6.75 L 134.587 6.75 L 134.587 1.995 L 135.4 1.995 Z M 88.229 4.425 A 2.772 2.772 0 0 0 88.277 4.954 Q 88.337 5.264 88.474 5.51 A 1.545 1.545 0 0 0 88.596 5.695 Q 88.963 6.174 89.578 6.174 A 1.269 1.269 0 0 0 90.068 6.083 Q 90.347 5.967 90.55 5.706 A 1.471 1.471 0 0 0 90.563 5.689 A 1.648 1.648 0 0 0 90.818 5.171 Q 90.886 4.945 90.912 4.672 A 3.655 3.655 0 0 0 90.927 4.329 A 2.687 2.687 0 0 0 90.876 3.789 Q 90.809 3.459 90.651 3.2 A 1.586 1.586 0 0 0 90.556 3.061 A 1.231 1.231 0 0 0 90.141 2.705 Q 89.888 2.575 89.569 2.575 Q 88.98 2.575 88.613 3.035 A 1.515 1.515 0 0 0 88.598 3.054 A 1.589 1.589 0 0 0 88.346 3.552 Q 88.277 3.772 88.248 4.039 A 3.676 3.676 0 0 0 88.229 4.425 Z M 139.707 5.449 L 139.707 3.278 A 1.439 1.439 0 0 0 139.406 2.891 Q 139.102 2.62 138.662 2.599 A 1.578 1.578 0 0 0 138.586 2.597 Q 137.994 2.597 137.66 3.056 A 1.51 1.51 0 0 0 137.45 3.484 Q 137.384 3.689 137.353 3.939 A 3.955 3.955 0 0 0 137.325 4.425 Q 137.325 5.229 137.654 5.689 Q 137.984 6.148 138.577 6.148 A 1.32 1.32 0 0 0 139.087 6.054 Q 139.479 5.891 139.707 5.449 Z M 119.773 1.639 L 117.879 4.601 L 119.87 4.601 L 119.87 1.463 L 119.773 1.639 Z M 125.526 5.005 A 1.375 1.375 0 0 0 125.466 4.592 A 1.109 1.109 0 0 0 125.185 4.131 A 1.148 1.148 0 0 0 124.514 3.807 A 1.593 1.593 0 0 0 124.295 3.792 A 1.466 1.466 0 0 0 123.906 3.841 A 1.086 1.086 0 0 0 123.414 4.126 A 1.123 1.123 0 0 0 123.1 4.762 A 1.572 1.572 0 0 0 123.082 5.005 A 1.48 1.48 0 0 0 123.124 5.367 A 1.019 1.019 0 0 0 123.405 5.862 Q 123.711 6.158 124.244 6.173 A 2.053 2.053 0 0 0 124.304 6.174 Q 124.798 6.174 125.107 5.94 A 1.018 1.018 0 0 0 125.2 5.86 A 1.041 1.041 0 0 0 125.5 5.292 A 1.518 1.518 0 0 0 125.526 5.005 Z M 124.304 0.932 A 1.259 1.259 0 0 0 123.951 0.979 A 0.973 0.973 0 0 0 123.528 1.228 Q 123.232 1.525 123.232 2.035 A 1.325 1.325 0 0 0 123.276 2.387 A 0.994 0.994 0 0 0 123.524 2.823 A 0.974 0.974 0 0 0 124.086 3.108 A 1.382 1.382 0 0 0 124.304 3.125 A 1.279 1.279 0 0 0 124.649 3.08 A 0.952 0.952 0 0 0 125.084 2.823 A 1.018 1.018 0 0 0 125.359 2.26 A 1.426 1.426 0 0 0 125.376 2.035 A 1.282 1.282 0 0 0 125.326 1.668 A 1.013 1.013 0 0 0 125.073 1.239 Q 124.77 0.932 124.304 0.932 Z M 6.236 3.938 L 8.618 3.938 L 8.618 3.876 Q 8.592 3.417 8.421 3.111 A 1.13 1.13 0 0 0 8.284 2.916 A 0.983 0.983 0 0 0 7.629 2.584 A 1.39 1.39 0 0 0 7.475 2.575 A 1.106 1.106 0 0 0 6.953 2.698 A 1.14 1.14 0 0 0 6.649 2.933 A 1.417 1.417 0 0 0 6.372 3.379 Q 6.299 3.563 6.259 3.785 A 2.741 2.741 0 0 0 6.236 3.938 Z M 25.383 3.938 L 27.765 3.938 L 27.765 3.876 Q 27.739 3.417 27.568 3.111 A 1.13 1.13 0 0 0 27.431 2.916 A 0.983 0.983 0 0 0 26.776 2.584 A 1.39 1.39 0 0 0 26.622 2.575 A 1.106 1.106 0 0 0 26.1 2.698 A 1.14 1.14 0 0 0 25.796 2.933 A 1.417 1.417 0 0 0 25.519 3.379 Q 25.446 3.563 25.406 3.785 A 2.741 2.741 0 0 0 25.383 3.938 Z M 56.259 3.938 L 58.641 3.938 L 58.641 3.876 Q 58.615 3.417 58.444 3.111 A 1.13 1.13 0 0 0 58.307 2.916 A 0.983 0.983 0 0 0 57.652 2.584 A 1.39 1.39 0 0 0 57.498 2.575 A 1.106 1.106 0 0 0 56.976 2.698 A 1.14 1.14 0 0 0 56.672 2.933 A 1.417 1.417 0 0 0 56.395 3.379 Q 56.322 3.563 56.282 3.785 A 2.741 2.741 0 0 0 56.259 3.938 Z M 75.406 3.938 L 77.788 3.938 L 77.788 3.876 Q 77.762 3.417 77.591 3.111 A 1.13 1.13 0 0 0 77.454 2.916 A 0.983 0.983 0 0 0 76.799 2.584 A 1.39 1.39 0 0 0 76.645 2.575 A 1.106 1.106 0 0 0 76.123 2.698 A 1.14 1.14 0 0 0 75.819 2.933 A 1.417 1.417 0 0 0 75.542 3.379 Q 75.469 3.563 75.429 3.785 A 2.741 2.741 0 0 0 75.406 3.938 Z M 103.324 3.938 L 105.706 3.938 L 105.706 3.876 Q 105.68 3.417 105.51 3.111 A 1.13 1.13 0 0 0 105.372 2.916 A 0.983 0.983 0 0 0 104.718 2.584 A 1.39 1.39 0 0 0 104.564 2.575 A 1.106 1.106 0 0 0 104.041 2.698 A 1.14 1.14 0 0 0 103.737 2.933 A 1.417 1.417 0 0 0 103.461 3.379 Q 103.387 3.563 103.347 3.785 A 2.741 2.741 0 0 0 103.324 3.938 Z M 17.86 0.734 Q 17.86 0.536 17.98 0.4 Q 18.092 0.274 18.304 0.264 A 0.783 0.783 0 0 1 18.339 0.264 Q 18.576 0.264 18.699 0.4 A 0.474 0.474 0 0 1 18.821 0.703 A 0.614 0.614 0 0 1 18.822 0.734 A 0.523 0.523 0 0 1 18.797 0.9 A 0.442 0.442 0 0 1 18.699 1.063 Q 18.586 1.184 18.378 1.194 A 0.803 0.803 0 0 1 18.339 1.195 Q 18.166 1.195 18.055 1.126 A 0.362 0.362 0 0 1 17.98 1.063 A 0.456 0.456 0 0 1 17.862 0.788 A 0.605 0.605 0 0 1 17.86 0.734 Z M 67.882 0.734 Q 67.882 0.536 68.003 0.4 Q 68.115 0.274 68.327 0.264 A 0.783 0.783 0 0 1 68.361 0.264 Q 68.599 0.264 68.722 0.4 A 0.474 0.474 0 0 1 68.844 0.703 A 0.614 0.614 0 0 1 68.845 0.734 A 0.523 0.523 0 0 1 68.82 0.9 A 0.442 0.442 0 0 1 68.722 1.063 Q 68.609 1.184 68.401 1.194 A 0.803 0.803 0 0 1 68.361 1.195 Q 68.189 1.195 68.078 1.126 A 0.362 0.362 0 0 1 68.003 1.063 A 0.456 0.456 0 0 1 67.885 0.788 A 0.605 0.605 0 0 1 67.882 0.734 Z M 134.521 0.734 Q 134.521 0.536 134.642 0.4 Q 134.754 0.274 134.966 0.264 A 0.783 0.783 0 0 1 135 0.264 Q 135.237 0.264 135.36 0.4 A 0.474 0.474 0 0 1 135.483 0.703 A 0.614 0.614 0 0 1 135.484 0.734 A 0.523 0.523 0 0 1 135.458 0.9 A 0.442 0.442 0 0 1 135.36 1.063 Q 135.248 1.184 135.04 1.194 A 0.803 0.803 0 0 1 135 1.195 Q 134.828 1.195 134.717 1.126 A 0.362 0.362 0 0 1 134.642 1.063 A 0.456 0.456 0 0 1 134.524 0.788 A 0.605 0.605 0 0 1 134.521 0.734 Z" vector-effect="non-scaling-stroke"/></g>
</svgversion="1.0" encoding="UTF-8"?>
<svg width="48px" height="48px" viewBox="0 0 48 48" version="1.1" xmlns="http://www.w3.org/2000/svg" xmlns:xlink="http://www.w3.org/1999/xlink">
    <title>Icon-Resource/Containers/Res_Amazon-ECS_ECS-Service-Connect_48_Light</title>
    <g id="Icon-Resource/Containers/Res_Amazon-ECS_ECS-Service-Connect_48" stroke="none" stroke-width="1" fill="none" fill-rule="evenodd">
        <path transform="translate(12.000000, 8.000000), scale(.65)" d="M44,37.5 C44,38.327 43.327,39 42.5,39 C41.673,39 41,38.327 41,37.5 C41,36.673 41.673,36 42.5,36 C43.327,36 44,36.673 44,37.5 L44,37.5 Z M42.5,16.001 C43.327,16.001 44,16.674 44,17.501 C44,18.328 43.327,19.001 42.5,19.001 C41.673,19.001 41,18.328 41,17.501 C41,16.674 41.673,16.001 42.5,16.001 L42.5,16.001 Z M10,42 L32,42 L32,12 L10,12 L10,42 Z M8,11 L8,36 L4,36 L4,6 L26,6 L26,10 L9,10 C8.447,10 8,10.448 8,11 L8,11 Z M42.5,26.001 C43.327,26.001 44,26.674 44,27.501 C44,28.328 43.327,29.001 42.5,29.001 C41.673,29.001 41,28.328 41,27.501 C41,26.674 41.673,26.001 42.5,26.001 L42.5,26.001 Z M42.5,31.001 C44.43,31.001 46,29.431 46,27.501 C46,25.571 44.43,24.001 42.5,24.001 C41.109,24.001 39.915,24.823 39.351,26.001 L36.204,26.001 L40.923,20.608 C41.399,20.851 41.93,21.001 42.5,21.001 C44.43,21.001 46,19.431 46,17.501 C46,15.571 44.43,14.001 42.5,14.001 C40.57,14.001 39,15.571 39,17.501 C39,18.131 39.181,18.715 39.474,19.226 L34,25.482 L34,11 C34,10.448 33.553,10 33,10 L28,10 L28,5 C28,4.448 27.553,4 27,4 L3,4 C2.447,4 2,4.448 2,5 L2,37 C2,37.552 2.447,38 3,38 L8,38 L8,43 C8,43.552 8.447,44 9,44 L33,44 C33.553,44 34,43.552 34,43 L34,28.628 L39.508,35.711 C39.193,36.236 39,36.844 39,37.5 C39,39.43 40.57,41 42.5,41 C44.43,41 46,39.43 46,37.5 C46,35.57 44.43,34 42.5,34 C41.957,34 41.448,34.135 40.989,34.357 L36.045,28.001 L39.051,28.001 C39.296,29.693 40.742,31.001 42.5,31.001 L42.5,31.001 Z M20,37 L30,37 L30,35 L20,35 L20,37 Z M20,28 L30,28 L30,26 L20,26 L20,28 Z M20,19 L30,19 L30,17 L20,17 L20,19 Z M14,37 L16,37 L16,35 L14,35 L14,37 Z M13,39 L17,39 C17.553,39 18,38.552 18,38 L18,34 C18,33.448 17.553,33 17,33 L13,33 C12.447,33 12,33.448 12,34 L12,38 C12,38.552 12.447,39 13,39 L13,39 Z M14,28 L16,28 L16,26 L14,26 L14,28 Z M13,30 L17,30 C17.553,30 18,29.552 18,29 L18,25 C18,24.448 17.553,24 17,24 L13,24 C12.447,24 12,24.448 12,25 L12,29 C12,29.552 12.447,30 13,30 L13,30 Z M14,19 L16,19 L16,17 L14,17 L14,19 Z M13,21 L17,21 C17.553,21 18,20.552 18,20 L18,16 C18,15.448 17.553,15 17,15 L13,15 C12.447,15 12,15.448 12,16 L12,20 C12,20.552 12.447,21 13,21 L13,21 Z" id="Fill-1" fill="#000000"></path>
    </g><g transform="translate(25, 83)" id="svgGroup" stroke-linecap="round" fill-rule="evenodd" font-size="9pt" stroke="#000" stroke-width="0.25mm" fill="#000" style="stroke:#000;stroke-width:0.25mm;fill:#000"><path d="M 3.617 3.103 L 3.617 3.792 L 0.844 3.792 L 0.844 6.06 L 4.065 6.06 L 4.065 6.75 L 0 6.75 L 0 0.352 L 4.021 0.352 L 4.021 1.046 L 0.844 1.046 L 0.844 3.103 L 3.617 3.103 Z M 32.757 4.72 L 33.605 4.72 A 3.016 3.016 0 0 1 33.444 5.416 A 2.099 2.099 0 0 1 32.856 6.286 Q 32.225 6.838 31.179 6.838 A 2.553 2.553 0 0 1 30.31 6.696 A 2.194 2.194 0 0 1 29.362 6.025 A 2.789 2.789 0 0 1 28.8 4.901 Q 28.694 4.484 28.681 3.992 A 5.262 5.262 0 0 1 28.679 3.85 L 28.679 3.234 A 4.251 4.251 0 0 1 28.749 2.445 A 3.229 3.229 0 0 1 28.997 1.666 A 2.539 2.539 0 0 1 29.453 0.99 A 2.26 2.26 0 0 1 29.9 0.626 A 2.415 2.415 0 0 1 30.926 0.281 A 3.027 3.027 0 0 1 31.254 0.264 A 2.962 2.962 0 0 1 31.96 0.343 A 2.065 2.065 0 0 1 32.889 0.833 A 2.16 2.16 0 0 1 33.483 1.795 A 3.086 3.086 0 0 1 33.605 2.408 L 32.757 2.408 Q 32.688 1.929 32.518 1.616 A 1.223 1.223 0 0 0 32.28 1.301 A 1.207 1.207 0 0 0 31.775 1.024 Q 31.588 0.971 31.364 0.961 A 2.396 2.396 0 0 0 31.254 0.958 A 1.753 1.753 0 0 0 30.676 1.049 A 1.463 1.463 0 0 0 29.986 1.556 A 1.989 1.989 0 0 0 29.672 2.175 Q 29.527 2.636 29.527 3.256 L 29.527 3.876 Q 29.527 4.917 29.962 5.533 A 1.38 1.38 0 0 0 30.96 6.135 A 1.814 1.814 0 0 0 31.179 6.148 A 2.497 2.497 0 0 0 31.587 6.117 Q 31.806 6.08 31.982 6.002 A 1.155 1.155 0 0 0 32.258 5.829 Q 32.634 5.511 32.757 4.72 Z M 15.605 3.393 L 14.788 3.393 Q 14.788 3.059 14.504 2.817 Q 14.221 2.575 13.79 2.575 Q 13.346 2.575 13.096 2.769 A 0.653 0.653 0 0 0 12.921 2.967 Q 12.848 3.098 12.845 3.263 A 0.771 0.771 0 0 0 12.845 3.274 A 0.588 0.588 0 0 0 12.875 3.467 A 0.48 0.48 0 0 0 13.078 3.718 A 1.093 1.093 0 0 0 13.228 3.796 Q 13.393 3.868 13.648 3.937 A 6.581 6.581 0 0 0 13.92 4.003 A 6.318 6.318 0 0 1 14.327 4.108 Q 14.664 4.208 14.906 4.329 A 1.901 1.901 0 0 1 15.162 4.481 Q 15.299 4.579 15.396 4.692 A 1.06 1.06 0 0 1 15.467 4.783 A 1.024 1.024 0 0 1 15.629 5.191 A 1.388 1.388 0 0 1 15.649 5.432 Q 15.649 6.069 15.139 6.453 Q 14.657 6.817 13.903 6.837 A 3.337 3.337 0 0 1 13.816 6.838 A 2.746 2.746 0 0 1 13.282 6.788 A 2.124 2.124 0 0 1 12.806 6.636 A 1.771 1.771 0 0 1 12.372 6.358 A 1.54 1.54 0 0 1 12.118 6.071 Q 11.87 5.708 11.87 5.287 L 12.683 5.287 A 0.932 0.932 0 0 0 12.756 5.612 A 0.827 0.827 0 0 0 13.01 5.935 A 1.072 1.072 0 0 0 13.412 6.128 Q 13.567 6.167 13.748 6.173 A 2.013 2.013 0 0 0 13.816 6.174 A 1.863 1.863 0 0 0 14.112 6.152 Q 14.274 6.126 14.405 6.07 A 0.941 0.941 0 0 0 14.557 5.988 A 0.689 0.689 0 0 0 14.721 5.837 A 0.554 0.554 0 0 0 14.836 5.489 A 0.698 0.698 0 0 0 14.8 5.258 A 0.581 0.581 0 0 0 14.588 4.977 A 1.05 1.05 0 0 0 14.419 4.878 Q 14.23 4.788 13.935 4.712 A 5.392 5.392 0 0 0 13.722 4.663 A 6.342 6.342 0 0 1 13.361 4.575 Q 12.991 4.473 12.742 4.346 Q 12.443 4.194 12.273 3.994 A 1.017 1.017 0 0 1 12.206 3.907 Q 12.032 3.652 12.032 3.3 A 1.206 1.206 0 0 1 12.431 2.396 A 1.694 1.694 0 0 1 12.527 2.312 A 1.752 1.752 0 0 1 13.31 1.952 A 2.471 2.471 0 0 1 13.79 1.907 A 2.559 2.559 0 0 1 14.354 1.966 A 1.757 1.757 0 0 1 15.102 2.325 Q 15.605 2.742 15.605 3.393 Z M 39.762 1.995 L 40.531 1.995 L 40.557 2.593 Q 41.093 1.918 41.953 1.907 A 2.234 2.234 0 0 1 41.981 1.907 A 1.905 1.905 0 0 1 42.614 2.004 Q 43.456 2.3 43.499 3.506 A 3.668 3.668 0 0 1 43.501 3.608 L 43.501 6.75 L 42.688 6.75 L 42.688 3.604 A 1.837 1.837 0 0 0 42.666 3.324 Q 42.616 3.017 42.453 2.843 Q 42.267 2.645 41.914 2.606 A 1.66 1.66 0 0 0 41.735 2.597 A 1.253 1.253 0 0 0 41.321 2.664 A 1.123 1.123 0 0 0 41.041 2.808 A 1.432 1.432 0 0 0 40.575 3.362 L 40.575 6.75 L 39.762 6.75 L 39.762 1.995 Z M 54.747 1.995 L 55.516 1.995 L 55.542 2.593 Q 56.079 1.918 56.939 1.907 A 2.234 2.234 0 0 1 56.966 1.907 A 1.905 1.905 0 0 1 57.6 2.004 Q 58.442 2.3 58.485 3.506 A 3.668 3.668 0 0 1 58.487 3.608 L 58.487 6.75 L 57.674 6.75 L 57.674 3.604 A 1.837 1.837 0 0 0 57.652 3.324 Q 57.601 3.017 57.439 2.843 Q 57.253 2.645 56.899 2.606 A 1.66 1.66 0 0 0 56.72 2.597 A 1.253 1.253 0 0 0 56.306 2.664 A 1.123 1.123 0 0 0 56.026 2.808 A 1.432 1.432 0 0 0 55.56 3.362 L 55.56 6.75 L 54.747 6.75 L 54.747 1.995 Z M 24.86 5.251 L 25.629 5.251 A 1.432 1.432 0 0 1 25.43 5.901 A 1.772 1.772 0 0 1 25.348 6.029 A 1.828 1.828 0 0 1 24.738 6.574 A 2.169 2.169 0 0 1 24.656 6.618 A 1.997 1.997 0 0 1 23.739 6.838 A 2.346 2.346 0 0 1 23.042 6.739 A 1.839 1.839 0 0 1 22.195 6.19 A 2.171 2.171 0 0 1 21.731 5.31 Q 21.621 4.909 21.621 4.417 L 21.621 4.28 A 3.24 3.24 0 0 1 21.685 3.624 A 2.57 2.57 0 0 1 21.876 3.045 A 2.008 2.008 0 0 1 22.316 2.431 A 1.892 1.892 0 0 1 22.608 2.206 A 1.943 1.943 0 0 1 23.364 1.934 A 2.529 2.529 0 0 1 23.735 1.907 A 2.196 2.196 0 0 1 24.383 1.999 A 1.786 1.786 0 0 1 25.064 2.386 A 1.693 1.693 0 0 1 25.623 3.535 A 2.239 2.239 0 0 1 25.629 3.63 L 24.86 3.63 Q 24.825 3.168 24.51 2.872 A 1.078 1.078 0 0 0 23.781 2.576 A 1.402 1.402 0 0 0 23.735 2.575 A 1.374 1.374 0 0 0 23.313 2.637 A 1.081 1.081 0 0 0 22.775 3.021 A 1.469 1.469 0 0 0 22.548 3.468 Q 22.482 3.674 22.454 3.923 A 3.514 3.514 0 0 0 22.434 4.311 L 22.434 4.465 Q 22.434 5.287 22.772 5.73 A 1.1 1.1 0 0 0 23.559 6.165 A 1.611 1.611 0 0 0 23.739 6.174 A 1.171 1.171 0 0 0 24.5 5.911 A 1.007 1.007 0 0 0 24.744 5.629 A 0.914 0.914 0 0 0 24.86 5.251 Z M 10.96 6.75 L 10.107 6.75 A 0.632 0.632 0 0 1 10.072 6.66 Q 10.041 6.562 10.016 6.41 A 3.997 3.997 0 0 1 9.993 6.249 Q 9.426 6.838 8.64 6.838 A 2.033 2.033 0 0 1 8.11 6.772 A 1.529 1.529 0 0 1 7.486 6.44 Q 7.036 6.042 7.036 5.432 Q 7.036 4.689 7.6 4.278 Q 8.165 3.867 9.189 3.867 L 9.98 3.867 L 9.98 3.494 A 1.152 1.152 0 0 0 9.944 3.199 A 0.828 0.828 0 0 0 9.725 2.815 Q 9.509 2.6 9.118 2.568 A 1.748 1.748 0 0 0 8.974 2.562 Q 8.539 2.562 8.244 2.782 Q 7.95 3.001 7.95 3.313 L 7.132 3.313 A 1.041 1.041 0 0 1 7.257 2.825 A 1.409 1.409 0 0 1 7.385 2.626 Q 7.638 2.294 8.071 2.101 A 2.249 2.249 0 0 1 8.846 1.913 A 2.669 2.669 0 0 1 9.022 1.907 A 2.65 2.65 0 0 1 9.539 1.955 Q 9.847 2.016 10.085 2.156 A 1.439 1.439 0 0 1 10.31 2.318 A 1.396 1.396 0 0 1 10.763 3.144 A 1.998 1.998 0 0 1 10.793 3.45 L 10.793 5.638 Q 10.793 6.073 10.867 6.39 A 1.707 1.707 0 0 0 10.96 6.68 L 10.96 6.75 Z M 51.456 6.75 L 50.603 6.75 A 0.632 0.632 0 0 1 50.568 6.66 Q 50.536 6.562 50.511 6.41 A 3.997 3.997 0 0 1 50.489 6.249 Q 49.922 6.838 49.135 6.838 A 2.033 2.033 0 0 1 48.606 6.772 A 1.529 1.529 0 0 1 47.982 6.44 Q 47.531 6.042 47.531 5.432 Q 47.531 4.689 48.096 4.278 Q 48.661 3.867 49.685 3.867 L 50.476 3.867 L 50.476 3.494 A 1.152 1.152 0 0 0 50.44 3.199 A 0.828 0.828 0 0 0 50.221 2.815 Q 50.004 2.6 49.614 2.568 A 1.748 1.748 0 0 0 49.469 2.562 Q 49.034 2.562 48.74 2.782 Q 48.445 3.001 48.445 3.313 L 47.628 3.313 A 1.041 1.041 0 0 1 47.753 2.825 A 1.409 1.409 0 0 1 47.881 2.626 Q 48.133 2.294 48.566 2.101 A 2.249 2.249 0 0 1 49.342 1.913 A 2.669 2.669 0 0 1 49.518 1.907 A 2.65 2.65 0 0 1 50.035 1.955 Q 50.342 2.016 50.581 2.156 A 1.439 1.439 0 0 1 50.805 2.318 A 1.396 1.396 0 0 1 51.259 3.144 A 1.998 1.998 0 0 1 51.289 3.45 L 51.289 5.638 Q 51.289 6.073 51.362 6.39 A 1.707 1.707 0 0 0 51.456 6.68 L 51.456 6.75 Z M 59.506 4.504 L 59.506 4.355 A 3.17 3.17 0 0 1 59.583 3.646 A 2.581 2.581 0 0 1 59.777 3.092 A 2.191 2.191 0 0 1 60.224 2.466 A 2.033 2.033 0 0 1 60.532 2.221 Q 61.018 1.907 61.585 1.907 A 2.254 2.254 0 0 1 62.198 1.986 A 1.639 1.639 0 0 1 63.026 2.518 Q 63.541 3.129 63.541 4.267 L 63.541 4.605 L 60.319 4.605 A 2.111 2.111 0 0 0 60.39 5.114 A 1.516 1.516 0 0 0 60.73 5.741 A 1.282 1.282 0 0 0 61.664 6.173 A 1.652 1.652 0 0 0 61.73 6.174 A 1.763 1.763 0 0 0 62.058 6.145 Q 62.282 6.103 62.459 5.999 A 1.827 1.827 0 0 0 62.968 5.551 A 2.068 2.068 0 0 0 62.982 5.533 L 63.479 5.919 A 1.926 1.926 0 0 1 62.079 6.811 A 2.749 2.749 0 0 1 61.686 6.838 A 2.394 2.394 0 0 1 60.935 6.725 A 1.974 1.974 0 0 1 60.113 6.203 Q 59.506 5.568 59.506 4.504 Z M 16.998 0.844 L 17.811 0.844 L 17.811 1.995 L 18.699 1.995 L 18.699 2.624 L 17.811 2.624 L 17.811 5.572 Q 17.811 5.858 17.93 6.001 Q 18.048 6.144 18.334 6.144 A 1.046 1.046 0 0 0 18.431 6.138 Q 18.534 6.129 18.674 6.101 A 4.024 4.024 0 0 0 18.721 6.091 L 18.721 6.75 A 2.463 2.463 0 0 1 18.288 6.829 A 2.157 2.157 0 0 1 18.097 6.838 Q 17.65 6.838 17.383 6.616 A 0.856 0.856 0 0 1 17.275 6.508 Q 17.047 6.238 17.007 5.78 A 2.351 2.351 0 0 1 16.998 5.572 L 16.998 2.624 L 16.132 2.624 L 16.132 1.995 L 16.998 1.995 L 16.998 0.844 Z M 45.018 0.844 L 45.831 0.844 L 45.831 1.995 L 46.718 1.995 L 46.718 2.624 L 45.831 2.624 L 45.831 5.572 Q 45.831 5.858 45.949 6.001 Q 46.068 6.144 46.354 6.144 A 1.046 1.046 0 0 0 46.451 6.138 Q 46.554 6.129 46.694 6.101 A 4.024 4.024 0 0 0 46.74 6.091 L 46.74 6.75 A 2.463 2.463 0 0 1 46.307 6.829 A 2.157 2.157 0 0 1 46.116 6.838 Q 45.669 6.838 45.402 6.616 A 0.856 0.856 0 0 1 45.294 6.508 Q 45.067 6.238 45.026 5.78 A 2.351 2.351 0 0 1 45.018 5.572 L 45.018 2.624 L 44.152 2.624 L 44.152 1.995 L 45.018 1.995 L 45.018 0.844 Z M 5.871 0 L 5.871 6.75 L 5.058 6.75 L 5.058 0 L 5.871 0 Z M 34.414 4.386 L 34.414 4.329 A 3.057 3.057 0 0 1 34.5 3.587 A 2.573 2.573 0 0 1 34.688 3.072 A 2.16 2.16 0 0 1 35.103 2.486 A 1.957 1.957 0 0 1 35.453 2.21 A 2.036 2.036 0 0 1 36.397 1.913 A 2.491 2.491 0 0 1 36.571 1.907 A 2.277 2.277 0 0 1 37.325 2.027 A 1.937 1.937 0 0 1 38.142 2.58 A 2.29 2.29 0 0 1 38.661 3.608 A 3.373 3.373 0 0 1 38.742 4.368 L 38.742 4.425 A 3.114 3.114 0 0 1 38.663 5.142 A 2.577 2.577 0 0 1 38.476 5.671 A 2.056 2.056 0 0 1 37.949 6.361 A 2.001 2.001 0 0 1 37.716 6.53 A 2.045 2.045 0 0 1 36.796 6.829 A 2.529 2.529 0 0 1 36.58 6.838 A 2.262 2.262 0 0 1 35.83 6.718 A 1.938 1.938 0 0 1 35.013 6.166 A 2.297 2.297 0 0 1 34.488 5.111 A 3.357 3.357 0 0 1 34.414 4.386 Z M 66.779 1.969 L 66.779 2.725 A 2.251 2.251 0 0 0 66.537 2.698 A 2.782 2.782 0 0 0 66.379 2.694 Q 65.602 2.694 65.31 3.338 A 1.445 1.445 0 0 0 65.294 3.375 L 65.294 6.75 L 64.481 6.75 L 64.481 1.995 L 65.272 1.995 L 65.285 2.544 Q 65.666 1.938 66.348 1.909 A 1.636 1.636 0 0 1 66.419 1.907 Q 66.656 1.907 66.779 1.969 Z M 20.531 1.995 L 20.531 6.75 L 19.718 6.75 L 19.718 1.995 L 20.531 1.995 Z M 53.446 1.995 L 53.446 6.75 L 52.633 6.75 L 52.633 1.995 L 53.446 1.995 Z M 35.231 4.425 A 2.772 2.772 0 0 0 35.278 4.954 Q 35.339 5.264 35.476 5.51 A 1.545 1.545 0 0 0 35.598 5.695 Q 35.965 6.174 36.58 6.174 A 1.269 1.269 0 0 0 37.069 6.083 Q 37.349 5.967 37.551 5.706 A 1.471 1.471 0 0 0 37.564 5.689 A 1.648 1.648 0 0 0 37.819 5.171 Q 37.888 4.945 37.914 4.672 A 3.655 3.655 0 0 0 37.929 4.329 A 2.687 2.687 0 0 0 37.878 3.789 Q 37.81 3.459 37.653 3.2 A 1.586 1.586 0 0 0 37.558 3.061 A 1.231 1.231 0 0 0 37.143 2.705 Q 36.89 2.575 36.571 2.575 Q 35.981 2.575 35.615 3.035 A 1.515 1.515 0 0 0 35.6 3.054 A 1.589 1.589 0 0 0 35.348 3.552 Q 35.278 3.772 35.25 4.039 A 3.676 3.676 0 0 0 35.231 4.425 Z M 9.98 5.418 L 9.98 4.443 L 9.343 4.443 Q 7.849 4.443 7.849 5.317 Q 7.849 5.7 8.104 5.915 A 0.893 0.893 0 0 0 8.517 6.108 A 1.259 1.259 0 0 0 8.758 6.13 A 1.429 1.429 0 0 0 9.483 5.933 A 1.335 1.335 0 0 0 9.779 5.705 A 1.108 1.108 0 0 0 9.98 5.418 Z M 50.476 5.418 L 50.476 4.443 L 49.838 4.443 Q 48.344 4.443 48.344 5.317 Q 48.344 5.7 48.599 5.915 A 0.893 0.893 0 0 0 49.013 6.108 A 1.259 1.259 0 0 0 49.254 6.13 A 1.429 1.429 0 0 0 49.979 5.933 A 1.335 1.335 0 0 0 50.275 5.705 A 1.108 1.108 0 0 0 50.476 5.418 Z M 60.346 3.938 L 62.728 3.938 L 62.728 3.876 Q 62.702 3.417 62.531 3.111 A 1.13 1.13 0 0 0 62.394 2.916 A 0.983 0.983 0 0 0 61.739 2.584 A 1.39 1.39 0 0 0 61.585 2.575 A 1.106 1.106 0 0 0 61.062 2.698 A 1.14 1.14 0 0 0 60.759 2.933 A 1.417 1.417 0 0 0 60.482 3.379 Q 60.409 3.563 60.369 3.785 A 2.741 2.741 0 0 0 60.346 3.938 Z M 19.652 0.734 Q 19.652 0.536 19.773 0.4 Q 19.885 0.274 20.097 0.264 A 0.783 0.783 0 0 1 20.131 0.264 Q 20.369 0.264 20.492 0.4 A 0.474 0.474 0 0 1 20.614 0.703 A 0.614 0.614 0 0 1 20.615 0.734 A 0.523 0.523 0 0 1 20.589 0.9 A 0.442 0.442 0 0 1 20.492 1.063 Q 20.379 1.184 20.171 1.194 A 0.803 0.803 0 0 1 20.131 1.195 Q 19.959 1.195 19.848 1.126 A 0.362 0.362 0 0 1 19.773 1.063 A 0.456 0.456 0 0 1 19.655 0.788 A 0.605 0.605 0 0 1 19.652 0.734 Z M 52.567 0.734 Q 52.567 0.536 52.688 0.4 Q 52.8 0.274 53.012 0.264 A 0.783 0.783 0 0 1 53.046 0.264 Q 53.284 0.264 53.407 0.4 A 0.474 0.474 0 0 1 53.529 0.703 A 0.614 0.614 0 0 1 53.53 0.734 A 0.523 0.523 0 0 1 53.505 0.9 A 0.442 0.442 0 0 1 53.407 1.063 Q 53.294 1.184 53.086 1.194 A 0.803 0.803 0 0 1 53.046 1.195 Q 52.874 1.195 52.763 1.126 A 0.362 0.362 0 0 1 52.688 1.063 A 0.456 0.456 0 0 1 52.57 0.788 A 0.605 0.605 0 0 1 52.567 0.734 Z" vector-effect="non-scaling-stroke"/></g><g transform="translate(25, 93)" id="svgGroup" stroke-linecap="round" fill-rule="evenodd" font-size="9pt" stroke="#000" stroke-width="0.25mm" fill="#000" style="stroke:#000;stroke-width:0.25mm;fill:#000"><path d="M 4.636 2.202 L 3.788 2.202 A 1.466 1.466 0 0 0 3.738 1.809 A 1.066 1.066 0 0 0 3.419 1.29 A 1.211 1.211 0 0 0 2.95 1.033 Q 2.698 0.958 2.378 0.958 A 2.286 2.286 0 0 0 1.998 0.988 Q 1.796 1.022 1.633 1.095 A 1.101 1.101 0 0 0 1.404 1.233 A 0.892 0.892 0 0 0 1.059 1.887 A 1.267 1.267 0 0 0 1.055 1.995 A 0.806 0.806 0 0 0 1.323 2.6 A 1.134 1.134 0 0 0 1.387 2.656 A 1.562 1.562 0 0 0 1.625 2.813 Q 1.955 2.993 2.516 3.151 A 8.228 8.228 0 0 1 2.981 3.295 Q 3.216 3.377 3.41 3.464 A 3.297 3.297 0 0 1 3.764 3.645 A 2.342 2.342 0 0 1 4.103 3.889 Q 4.293 4.056 4.415 4.248 A 1.45 1.45 0 0 1 4.432 4.276 A 1.498 1.498 0 0 1 4.628 4.832 A 1.948 1.948 0 0 1 4.65 5.124 A 1.606 1.606 0 0 1 4.527 5.76 Q 4.382 6.101 4.064 6.354 A 1.886 1.886 0 0 1 4.043 6.37 Q 3.437 6.838 2.422 6.838 A 3.023 3.023 0 0 1 1.281 6.623 A 2.917 2.917 0 0 1 1.191 6.585 A 2.383 2.383 0 0 1 0.713 6.307 A 1.874 1.874 0 0 1 0.31 5.893 A 1.689 1.689 0 0 1 0 4.896 L 0.848 4.896 A 1.261 1.261 0 0 0 0.918 5.323 A 1.074 1.074 0 0 0 1.277 5.812 Q 1.661 6.113 2.278 6.144 A 2.87 2.87 0 0 0 2.422 6.148 A 2.628 2.628 0 0 0 2.809 6.121 Q 3.005 6.092 3.164 6.031 A 1.129 1.129 0 0 0 3.445 5.875 Q 3.801 5.603 3.801 5.133 A 1.074 1.074 0 0 0 3.759 4.822 A 0.816 0.816 0 0 0 3.472 4.406 Q 3.142 4.148 2.277 3.898 Q 1.191 3.586 0.697 3.131 Q 0.202 2.676 0.202 2.008 Q 0.202 1.252 0.807 0.758 A 2.121 2.121 0 0 1 1.697 0.335 A 3.087 3.087 0 0 1 2.378 0.264 A 2.913 2.913 0 0 1 3.038 0.336 A 2.372 2.372 0 0 1 3.553 0.519 A 2.051 2.051 0 0 1 4.084 0.889 A 1.834 1.834 0 0 1 4.353 1.222 A 1.798 1.798 0 0 1 4.636 2.202 Z M 47.092 2.202 L 46.244 2.202 A 1.466 1.466 0 0 0 46.194 1.809 A 1.066 1.066 0 0 0 45.875 1.29 A 1.211 1.211 0 0 0 45.405 1.033 Q 45.154 0.958 44.833 0.958 A 2.286 2.286 0 0 0 44.453 0.988 Q 44.251 1.022 44.089 1.095 A 1.101 1.101 0 0 0 43.86 1.233 A 0.892 0.892 0 0 0 43.515 1.887 A 1.267 1.267 0 0 0 43.51 1.995 A 0.806 0.806 0 0 0 43.778 2.6 A 1.134 1.134 0 0 0 43.842 2.656 A 1.562 1.562 0 0 0 44.08 2.813 Q 44.411 2.993 44.972 3.151 A 8.228 8.228 0 0 1 45.436 3.295 Q 45.671 3.377 45.866 3.464 A 3.297 3.297 0 0 1 46.22 3.645 A 2.342 2.342 0 0 1 46.558 3.889 Q 46.748 4.056 46.871 4.248 A 1.45 1.45 0 0 1 46.888 4.276 A 1.498 1.498 0 0 1 47.084 4.832 A 1.948 1.948 0 0 1 47.105 5.124 A 1.606 1.606 0 0 1 46.983 5.76 Q 46.837 6.101 46.519 6.354 A 1.886 1.886 0 0 1 46.499 6.37 Q 45.892 6.838 44.877 6.838 A 3.023 3.023 0 0 1 43.736 6.623 A 2.917 2.917 0 0 1 43.647 6.585 A 2.383 2.383 0 0 1 43.169 6.307 A 1.874 1.874 0 0 1 42.766 5.893 A 1.689 1.689 0 0 1 42.456 4.896 L 43.304 4.896 A 1.261 1.261 0 0 0 43.373 5.323 A 1.074 1.074 0 0 0 43.732 5.812 Q 44.117 6.113 44.733 6.144 A 2.87 2.87 0 0 0 44.877 6.148 A 2.628 2.628 0 0 0 45.264 6.121 Q 45.46 6.092 45.619 6.031 A 1.129 1.129 0 0 0 45.901 5.875 Q 46.257 5.603 46.257 5.133 A 1.074 1.074 0 0 0 46.214 4.822 A 0.816 0.816 0 0 0 45.927 4.406 Q 45.598 4.148 44.732 3.898 Q 43.647 3.586 43.152 3.131 Q 42.658 2.676 42.658 2.008 Q 42.658 1.252 43.262 0.758 A 2.121 2.121 0 0 1 44.153 0.335 A 3.087 3.087 0 0 1 44.833 0.264 A 2.913 2.913 0 0 1 45.493 0.336 A 2.372 2.372 0 0 1 46.009 0.519 A 2.051 2.051 0 0 1 46.54 0.889 A 1.834 1.834 0 0 1 46.808 1.222 A 1.798 1.798 0 0 1 47.092 2.202 Z M 54.659 2.202 L 53.811 2.202 A 1.466 1.466 0 0 0 53.761 1.809 A 1.066 1.066 0 0 0 53.442 1.29 A 1.211 1.211 0 0 0 52.973 1.033 Q 52.721 0.958 52.401 0.958 A 2.286 2.286 0 0 0 52.021 0.988 Q 51.819 1.022 51.656 1.095 A 1.101 1.101 0 0 0 51.427 1.233 A 0.892 0.892 0 0 0 51.082 1.887 A 1.267 1.267 0 0 0 51.078 1.995 A 0.806 0.806 0 0 0 51.346 2.6 A 1.134 1.134 0 0 0 51.41 2.656 A 1.562 1.562 0 0 0 51.648 2.813 Q 51.978 2.993 52.539 3.151 A 8.228 8.228 0 0 1 53.004 3.295 Q 53.239 3.377 53.433 3.464 A 3.297 3.297 0 0 1 53.787 3.645 A 2.342 2.342 0 0 1 54.126 3.889 Q 54.316 4.056 54.438 4.248 A 1.45 1.45 0 0 1 54.455 4.276 A 1.498 1.498 0 0 1 54.651 4.832 A 1.948 1.948 0 0 1 54.673 5.124 A 1.606 1.606 0 0 1 54.55 5.76 Q 54.405 6.101 54.087 6.354 A 1.886 1.886 0 0 1 54.066 6.37 Q 53.46 6.838 52.444 6.838 A 3.023 3.023 0 0 1 51.304 6.623 A 2.917 2.917 0 0 1 51.214 6.585 A 2.383 2.383 0 0 1 50.736 6.307 A 1.874 1.874 0 0 1 50.333 5.893 A 1.689 1.689 0 0 1 50.023 4.896 L 50.871 4.896 A 1.261 1.261 0 0 0 50.941 5.323 A 1.074 1.074 0 0 0 51.3 5.812 Q 51.684 6.113 52.301 6.144 A 2.87 2.87 0 0 0 52.444 6.148 A 2.628 2.628 0 0 0 52.831 6.121 Q 53.028 6.092 53.187 6.031 A 1.129 1.129 0 0 0 53.468 5.875 Q 53.824 5.603 53.824 5.133 A 1.074 1.074 0 0 0 53.782 4.822 A 0.816 0.816 0 0 0 53.495 4.406 Q 53.165 4.148 52.299 3.898 Q 51.214 3.586 50.72 3.131 Q 50.225 2.676 50.225 2.008 Q 50.225 1.252 50.829 0.758 A 2.121 2.121 0 0 1 51.72 0.335 A 3.087 3.087 0 0 1 52.401 0.264 A 2.913 2.913 0 0 1 53.061 0.336 A 2.372 2.372 0 0 1 53.576 0.519 A 2.051 2.051 0 0 1 54.107 0.889 A 1.834 1.834 0 0 1 54.376 1.222 A 1.798 1.798 0 0 1 54.659 2.202 Z M 35.49 3.103 L 35.49 3.792 L 32.717 3.792 L 32.717 6.06 L 35.939 6.06 L 35.939 6.75 L 31.874 6.75 L 31.874 0.352 L 35.895 0.352 L 35.895 1.046 L 32.717 1.046 L 32.717 3.103 L 35.49 3.103 Z M 40.847 4.72 L 41.695 4.72 A 3.016 3.016 0 0 1 41.534 5.416 A 2.099 2.099 0 0 1 40.946 6.286 Q 40.316 6.838 39.27 6.838 A 2.553 2.553 0 0 1 38.401 6.696 A 2.194 2.194 0 0 1 37.453 6.025 A 2.789 2.789 0 0 1 36.891 4.901 Q 36.784 4.484 36.771 3.992 A 5.262 5.262 0 0 1 36.769 3.85 L 36.769 3.234 A 4.251 4.251 0 0 1 36.839 2.445 A 3.229 3.229 0 0 1 37.088 1.666 A 2.539 2.539 0 0 1 37.543 0.99 A 2.26 2.26 0 0 1 37.991 0.626 A 2.415 2.415 0 0 1 39.017 0.281 A 3.027 3.027 0 0 1 39.344 0.264 A 2.962 2.962 0 0 1 40.05 0.343 A 2.065 2.065 0 0 1 40.979 0.833 A 2.16 2.16 0 0 1 41.574 1.795 A 3.086 3.086 0 0 1 41.695 2.408 L 40.847 2.408 Q 40.778 1.929 40.609 1.616 A 1.223 1.223 0 0 0 40.371 1.301 A 1.207 1.207 0 0 0 39.865 1.024 Q 39.678 0.971 39.455 0.961 A 2.396 2.396 0 0 0 39.344 0.958 A 1.753 1.753 0 0 0 38.766 1.049 A 1.463 1.463 0 0 0 38.077 1.556 A 1.989 1.989 0 0 0 37.763 2.175 Q 37.617 2.636 37.617 3.256 L 37.617 3.876 Q 37.617 4.917 38.052 5.533 A 1.38 1.38 0 0 0 39.051 6.135 A 1.814 1.814 0 0 0 39.27 6.148 A 2.497 2.497 0 0 0 39.677 6.117 Q 39.897 6.08 40.072 6.002 A 1.155 1.155 0 0 0 40.349 5.829 Q 40.724 5.511 40.847 4.72 Z M 85.755 4.72 L 86.603 4.72 A 3.016 3.016 0 0 1 86.442 5.416 A 2.099 2.099 0 0 1 85.854 6.286 Q 85.223 6.838 84.177 6.838 A 2.553 2.553 0 0 1 83.308 6.696 A 2.194 2.194 0 0 1 82.36 6.025 A 2.789 2.789 0 0 1 81.799 4.901 Q 81.692 4.484 81.679 3.992 A 5.262 5.262 0 0 1 81.677 3.85 L 81.677 3.234 A 4.251 4.251 0 0 1 81.747 2.445 A 3.229 3.229 0 0 1 81.996 1.666 A 2.539 2.539 0 0 1 82.451 0.99 A 2.26 2.26 0 0 1 82.899 0.626 A 2.415 2.415 0 0 1 83.924 0.281 A 3.027 3.027 0 0 1 84.252 0.264 A 2.962 2.962 0 0 1 84.958 0.343 A 2.065 2.065 0 0 1 85.887 0.833 A 2.16 2.16 0 0 1 86.481 1.795 A 3.086 3.086 0 0 1 86.603 2.408 L 85.755 2.408 Q 85.686 1.929 85.516 1.616 A 1.223 1.223 0 0 0 85.278 1.301 A 1.207 1.207 0 0 0 84.773 1.024 Q 84.586 0.971 84.363 0.961 A 2.396 2.396 0 0 0 84.252 0.958 A 1.753 1.753 0 0 0 83.674 1.049 A 1.463 1.463 0 0 0 82.984 1.556 A 1.989 1.989 0 0 0 82.67 2.175 Q 82.525 2.636 82.525 3.256 L 82.525 3.876 Q 82.525 4.917 82.96 5.533 A 1.38 1.38 0 0 0 83.959 6.135 A 1.814 1.814 0 0 0 84.177 6.148 A 2.497 2.497 0 0 0 84.585 6.117 Q 84.804 6.08 84.98 6.002 A 1.155 1.155 0 0 0 85.256 5.829 Q 85.632 5.511 85.755 4.72 Z M 142.563 0 L 142.563 2.571 A 1.767 1.767 0 0 1 143.229 2.053 A 1.832 1.832 0 0 1 143.969 1.907 A 1.905 1.905 0 0 1 144.603 2.004 Q 145.445 2.3 145.488 3.506 A 3.668 3.668 0 0 1 145.49 3.608 L 145.49 6.75 L 144.677 6.75 L 144.677 3.604 A 1.837 1.837 0 0 0 144.655 3.324 Q 144.604 3.017 144.442 2.843 Q 144.256 2.645 143.902 2.606 A 1.66 1.66 0 0 0 143.723 2.597 A 1.253 1.253 0 0 0 143.309 2.664 A 1.123 1.123 0 0 0 143.029 2.808 A 1.432 1.432 0 0 0 142.563 3.362 L 142.563 6.75 L 141.75 6.75 L 141.75 0 L 142.563 0 Z M 139.742 2.522 L 139.781 1.995 L 140.524 1.995 L 140.524 6.636 A 2.511 2.511 0 0 1 140.453 7.249 A 1.738 1.738 0 0 1 139.977 8.09 A 1.834 1.834 0 0 1 139.047 8.57 A 2.671 2.671 0 0 1 138.507 8.622 A 2.446 2.446 0 0 1 137.501 8.402 A 2.003 2.003 0 0 1 137.09 8.161 A 1.563 1.563 0 0 1 136.749 7.8 L 137.171 7.313 A 1.889 1.889 0 0 0 137.606 7.712 A 1.514 1.514 0 0 0 138.45 7.958 A 1.695 1.695 0 0 0 138.827 7.919 Q 139.095 7.858 139.289 7.702 A 1.037 1.037 0 0 0 139.375 7.625 A 1.09 1.09 0 0 0 139.652 7.132 Q 139.699 6.959 139.706 6.752 A 2.134 2.134 0 0 0 139.707 6.684 L 139.707 6.275 A 1.601 1.601 0 0 1 138.655 6.821 A 2.279 2.279 0 0 1 138.375 6.838 A 1.672 1.672 0 0 1 137.62 6.67 Q 137.298 6.51 137.048 6.197 A 2.14 2.14 0 0 1 137.024 6.166 A 2.316 2.316 0 0 1 136.641 5.386 Q 136.507 4.922 136.507 4.333 Q 136.507 3.472 136.816 2.884 A 2.096 2.096 0 0 1 137.022 2.564 Q 137.536 1.907 138.384 1.907 A 1.971 1.971 0 0 1 138.983 1.994 A 1.55 1.55 0 0 1 139.742 2.522 Z M 92.76 1.995 L 93.529 1.995 L 93.555 2.593 Q 94.092 1.918 94.952 1.907 A 2.234 2.234 0 0 1 94.979 1.907 A 1.905 1.905 0 0 1 95.613 2.004 Q 96.455 2.3 96.497 3.506 A 3.668 3.668 0 0 1 96.5 3.608 L 96.5 6.75 L 95.687 6.75 L 95.687 3.604 A 1.837 1.837 0 0 0 95.664 3.324 Q 95.614 3.017 95.452 2.843 Q 95.265 2.645 94.912 2.606 A 1.66 1.66 0 0 0 94.733 2.597 A 1.253 1.253 0 0 0 94.319 2.664 A 1.123 1.123 0 0 0 94.039 2.808 A 1.432 1.432 0 0 0 93.573 3.362 L 93.573 6.75 L 92.76 6.75 L 92.76 1.995 Z M 97.726 1.995 L 98.495 1.995 L 98.521 2.593 Q 99.057 1.918 99.917 1.907 A 2.234 2.234 0 0 1 99.945 1.907 A 1.905 1.905 0 0 1 100.578 2.004 Q 101.42 2.3 101.463 3.506 A 3.668 3.668 0 0 1 101.465 3.608 L 101.465 6.75 L 100.652 6.75 L 100.652 3.604 A 1.837 1.837 0 0 0 100.63 3.324 Q 100.58 3.017 100.417 2.843 Q 100.231 2.645 99.878 2.606 A 1.66 1.66 0 0 0 99.699 2.597 A 1.253 1.253 0 0 0 99.285 2.664 A 1.123 1.123 0 0 0 99.005 2.808 A 1.432 1.432 0 0 0 98.539 3.362 L 98.539 6.75 L 97.726 6.75 L 97.726 1.995 Z M 23.067 5.251 L 23.836 5.251 A 1.432 1.432 0 0 1 23.637 5.901 A 1.772 1.772 0 0 1 23.555 6.029 A 1.828 1.828 0 0 1 22.946 6.574 A 2.169 2.169 0 0 1 22.863 6.618 A 1.997 1.997 0 0 1 21.946 6.838 A 2.346 2.346 0 0 1 21.249 6.739 A 1.839 1.839 0 0 1 20.402 6.19 A 2.171 2.171 0 0 1 19.938 5.31 Q 19.828 4.909 19.828 4.417 L 19.828 4.28 A 3.24 3.24 0 0 1 19.892 3.624 A 2.57 2.57 0 0 1 20.083 3.045 A 2.008 2.008 0 0 1 20.523 2.431 A 1.892 1.892 0 0 1 20.815 2.206 A 1.943 1.943 0 0 1 21.571 1.934 A 2.529 2.529 0 0 1 21.942 1.907 A 2.196 2.196 0 0 1 22.59 1.999 A 1.786 1.786 0 0 1 23.271 2.386 A 1.693 1.693 0 0 1 23.83 3.535 A 2.239 2.239 0 0 1 23.836 3.63 L 23.067 3.63 Q 23.032 3.168 22.718 2.872 A 1.078 1.078 0 0 0 21.989 2.576 A 1.402 1.402 0 0 0 21.942 2.575 A 1.374 1.374 0 0 0 21.521 2.637 A 1.081 1.081 0 0 0 20.982 3.021 A 1.469 1.469 0 0 0 20.755 3.468 Q 20.689 3.674 20.662 3.923 A 3.514 3.514 0 0 0 20.641 4.311 L 20.641 4.465 Q 20.641 5.287 20.98 5.73 A 1.1 1.1 0 0 0 21.766 6.165 A 1.611 1.611 0 0 0 21.946 6.174 A 1.171 1.171 0 0 0 22.707 5.911 A 1.007 1.007 0 0 0 22.951 5.629 A 0.914 0.914 0 0 0 23.067 5.251 Z M 73.09 5.251 L 73.859 5.251 A 1.432 1.432 0 0 1 73.66 5.901 A 1.772 1.772 0 0 1 73.578 6.029 A 1.828 1.828 0 0 1 72.969 6.574 A 2.169 2.169 0 0 1 72.886 6.618 A 1.997 1.997 0 0 1 71.969 6.838 A 2.346 2.346 0 0 1 71.272 6.739 A 1.839 1.839 0 0 1 70.425 6.19 A 2.171 2.171 0 0 1 69.961 5.31 Q 69.851 4.909 69.851 4.417 L 69.851 4.28 A 3.24 3.24 0 0 1 69.915 3.624 A 2.57 2.57 0 0 1 70.106 3.045 A 2.008 2.008 0 0 1 70.546 2.431 A 1.892 1.892 0 0 1 70.838 2.206 A 1.943 1.943 0 0 1 71.594 1.934 A 2.529 2.529 0 0 1 71.965 1.907 A 2.196 2.196 0 0 1 72.613 1.999 A 1.786 1.786 0 0 1 73.294 2.386 A 1.693 1.693 0 0 1 73.853 3.535 A 2.239 2.239 0 0 1 73.859 3.63 L 73.09 3.63 Q 73.055 3.168 72.741 2.872 A 1.078 1.078 0 0 0 72.011 2.576 A 1.402 1.402 0 0 0 71.965 2.575 A 1.374 1.374 0 0 0 71.544 2.637 A 1.081 1.081 0 0 0 71.005 3.021 A 1.469 1.469 0 0 0 70.778 3.468 Q 70.712 3.674 70.684 3.923 A 3.514 3.514 0 0 0 70.664 4.311 L 70.664 4.465 Q 70.664 5.287 71.003 5.73 A 1.1 1.1 0 0 0 71.789 6.165 A 1.611 1.611 0 0 0 71.969 6.174 A 1.171 1.171 0 0 0 72.73 5.911 A 1.007 1.007 0 0 0 72.974 5.629 A 0.914 0.914 0 0 0 73.09 5.251 Z M 110.487 5.251 L 111.256 5.251 A 1.432 1.432 0 0 1 111.057 5.901 A 1.772 1.772 0 0 1 110.975 6.029 A 1.828 1.828 0 0 1 110.366 6.574 A 2.169 2.169 0 0 1 110.283 6.618 A 1.997 1.997 0 0 1 109.367 6.838 A 2.346 2.346 0 0 1 108.67 6.739 A 1.839 1.839 0 0 1 107.822 6.19 A 2.171 2.171 0 0 1 107.358 5.31 Q 107.249 4.909 107.249 4.417 L 107.249 4.28 A 3.24 3.24 0 0 1 107.312 3.624 A 2.57 2.57 0 0 1 107.504 3.045 A 2.008 2.008 0 0 1 107.943 2.431 A 1.892 1.892 0 0 1 108.235 2.206 A 1.943 1.943 0 0 1 108.992 1.934 A 2.529 2.529 0 0 1 109.362 1.907 A 2.196 2.196 0 0 1 110.011 1.999 A 1.786 1.786 0 0 1 110.692 2.386 A 1.693 1.693 0 0 1 111.25 3.535 A 2.239 2.239 0 0 1 111.256 3.63 L 110.487 3.63 Q 110.452 3.168 110.138 2.872 A 1.078 1.078 0 0 0 109.409 2.576 A 1.402 1.402 0 0 0 109.362 2.575 A 1.374 1.374 0 0 0 108.941 2.637 A 1.081 1.081 0 0 0 108.402 3.021 A 1.469 1.469 0 0 0 108.176 3.468 Q 108.11 3.674 108.082 3.923 A 3.514 3.514 0 0 0 108.062 4.311 L 108.062 4.465 Q 108.062 5.287 108.4 5.73 A 1.1 1.1 0 0 0 109.187 6.165 A 1.611 1.611 0 0 0 109.367 6.174 A 1.171 1.171 0 0 0 110.127 5.911 A 1.007 1.007 0 0 0 110.371 5.629 A 0.914 0.914 0 0 0 110.487 5.251 Z M 5.397 4.504 L 5.397 4.355 A 3.17 3.17 0 0 1 5.473 3.646 A 2.581 2.581 0 0 1 5.667 3.092 A 2.191 2.191 0 0 1 6.114 2.466 A 2.033 2.033 0 0 1 6.423 2.221 Q 6.908 1.907 7.475 1.907 A 2.254 2.254 0 0 1 8.088 1.986 A 1.639 1.639 0 0 1 8.917 2.518 Q 9.431 3.129 9.431 4.267 L 9.431 4.605 L 6.21 4.605 A 2.111 2.111 0 0 0 6.281 5.114 A 1.516 1.516 0 0 0 6.621 5.741 A 1.282 1.282 0 0 0 7.555 6.173 A 1.652 1.652 0 0 0 7.62 6.174 A 1.763 1.763 0 0 0 7.948 6.145 Q 8.172 6.103 8.35 5.999 A 1.827 1.827 0 0 0 8.859 5.551 A 2.068 2.068 0 0 0 8.873 5.533 L 9.369 5.919 A 1.926 1.926 0 0 1 7.97 6.811 A 2.749 2.749 0 0 1 7.576 6.838 A 2.394 2.394 0 0 1 6.825 6.725 A 1.974 1.974 0 0 1 6.003 6.203 Q 5.397 5.568 5.397 4.504 Z M 24.544 4.504 L 24.544 4.355 A 3.17 3.17 0 0 1 24.62 3.646 A 2.581 2.581 0 0 1 24.814 3.092 A 2.191 2.191 0 0 1 25.261 2.466 A 2.033 2.033 0 0 1 25.57 2.221 Q 26.055 1.907 26.622 1.907 A 2.254 2.254 0 0 1 27.235 1.986 A 1.639 1.639 0 0 1 28.064 2.518 Q 28.578 3.129 28.578 4.267 L 28.578 4.605 L 25.357 4.605 A 2.111 2.111 0 0 0 25.428 5.114 A 1.516 1.516 0 0 0 25.767 5.741 A 1.282 1.282 0 0 0 26.702 6.173 A 1.652 1.652 0 0 0 26.767 6.174 A 1.763 1.763 0 0 0 27.095 6.145 Q 27.319 6.103 27.497 5.999 A 1.827 1.827 0 0 0 28.006 5.551 A 2.068 2.068 0 0 0 28.02 5.533 L 28.516 5.919 A 1.926 1.926 0 0 1 27.117 6.811 A 2.749 2.749 0 0 1 26.723 6.838 A 2.394 2.394 0 0 1 25.972 6.725 A 1.974 1.974 0 0 1 25.15 6.203 Q 24.544 5.568 24.544 4.504 Z M 55.42 4.504 L 55.42 4.355 A 3.17 3.17 0 0 1 55.496 3.646 A 2.581 2.581 0 0 1 55.69 3.092 A 2.191 2.191 0 0 1 56.137 2.466 A 2.033 2.033 0 0 1 56.446 2.221 Q 56.931 1.907 57.498 1.907 A 2.254 2.254 0 0 1 58.111 1.986 A 1.639 1.639 0 0 1 58.94 2.518 Q 59.454 3.129 59.454 4.267 L 59.454 4.605 L 56.233 4.605 A 2.111 2.111 0 0 0 56.304 5.114 A 1.516 1.516 0 0 0 56.643 5.741 A 1.282 1.282 0 0 0 57.578 6.173 A 1.652 1.652 0 0 0 57.643 6.174 A 1.763 1.763 0 0 0 57.971 6.145 Q 58.195 6.103 58.373 5.999 A 1.827 1.827 0 0 0 58.882 5.551 A 2.068 2.068 0 0 0 58.896 5.533 L 59.392 5.919 A 1.926 1.926 0 0 1 57.993 6.811 A 2.749 2.749 0 0 1 57.599 6.838 A 2.394 2.394 0 0 1 56.848 6.725 A 1.974 1.974 0 0 1 56.026 6.203 Q 55.42 5.568 55.42 4.504 Z M 74.567 4.504 L 74.567 4.355 A 3.17 3.17 0 0 1 74.643 3.646 A 2.581 2.581 0 0 1 74.837 3.092 A 2.191 2.191 0 0 1 75.284 2.466 A 2.033 2.033 0 0 1 75.593 2.221 Q 76.078 1.907 76.645 1.907 A 2.254 2.254 0 0 1 77.258 1.986 A 1.639 1.639 0 0 1 78.087 2.518 Q 78.601 3.129 78.601 4.267 L 78.601 4.605 L 75.38 4.605 A 2.111 2.111 0 0 0 75.451 5.114 A 1.516 1.516 0 0 0 75.79 5.741 A 1.282 1.282 0 0 0 76.724 6.173 A 1.652 1.652 0 0 0 76.79 6.174 A 1.763 1.763 0 0 0 77.118 6.145 Q 77.342 6.103 77.52 5.999 A 1.827 1.827 0 0 0 78.029 5.551 A 2.068 2.068 0 0 0 78.043 5.533 L 78.539 5.919 A 1.926 1.926 0 0 1 77.139 6.811 A 2.749 2.749 0 0 1 76.746 6.838 A 2.394 2.394 0 0 1 75.995 6.725 A 1.974 1.974 0 0 1 75.173 6.203 Q 74.567 5.568 74.567 4.504 Z M 102.485 4.504 L 102.485 4.355 A 3.17 3.17 0 0 1 102.561 3.646 A 2.581 2.581 0 0 1 102.755 3.092 A 2.191 2.191 0 0 1 103.203 2.466 A 2.033 2.033 0 0 1 103.511 2.221 Q 103.997 1.907 104.564 1.907 A 2.254 2.254 0 0 1 105.177 1.986 A 1.639 1.639 0 0 1 106.005 2.518 Q 106.519 3.129 106.519 4.267 L 106.519 4.605 L 103.298 4.605 A 2.111 2.111 0 0 0 103.369 5.114 A 1.516 1.516 0 0 0 103.709 5.741 A 1.282 1.282 0 0 0 104.643 6.173 A 1.652 1.652 0 0 0 104.709 6.174 A 1.763 1.763 0 0 0 105.037 6.145 Q 105.261 6.103 105.438 5.999 A 1.827 1.827 0 0 0 105.947 5.551 A 2.068 2.068 0 0 0 105.961 5.533 L 106.458 5.919 A 1.926 1.926 0 0 1 105.058 6.811 A 2.749 2.749 0 0 1 104.665 6.838 A 2.394 2.394 0 0 1 103.913 6.725 A 1.974 1.974 0 0 1 103.091 6.203 Q 102.485 5.568 102.485 4.504 Z M 130.65 0.352 L 130.65 6.06 L 133.682 6.06 L 133.682 6.75 L 129.801 6.75 L 129.801 0.352 L 130.65 0.352 Z M 13.856 1.995 L 15.065 5.647 L 16.242 1.995 L 17.073 1.995 L 15.368 6.75 L 14.748 6.75 L 13.026 1.995 L 13.856 1.995 Z M 63.879 1.995 L 65.088 5.647 L 66.265 1.995 L 67.096 1.995 L 65.391 6.75 L 64.771 6.75 L 63.048 1.995 L 63.879 1.995 Z M 120.687 0.352 L 120.687 4.601 L 121.575 4.601 L 121.575 5.265 L 120.687 5.265 L 120.687 6.75 L 119.87 6.75 L 119.87 5.265 L 116.956 5.265 L 116.956 4.786 L 119.821 0.352 L 120.687 0.352 Z M 126.085 2.592 A 1.544 1.544 0 0 0 126.189 2.021 A 2.226 2.226 0 0 0 126.168 1.707 A 1.566 1.566 0 0 0 125.668 0.738 A 1.754 1.754 0 0 0 124.903 0.333 A 2.443 2.443 0 0 0 124.304 0.264 A 2.539 2.539 0 0 0 123.794 0.312 A 1.767 1.767 0 0 0 122.937 0.738 Q 122.419 1.213 122.419 2.021 A 1.808 1.808 0 0 0 122.419 2.058 A 1.499 1.499 0 0 0 122.665 2.87 A 1.626 1.626 0 0 0 122.827 3.077 A 1.726 1.726 0 0 0 123.337 3.454 A 2.119 2.119 0 0 0 123.238 3.5 A 1.738 1.738 0 0 0 122.553 4.087 A 1.629 1.629 0 0 0 122.269 5.023 A 2.272 2.272 0 0 0 122.279 5.237 A 1.63 1.63 0 0 0 122.825 6.344 A 1.895 1.895 0 0 0 123.676 6.771 A 2.797 2.797 0 0 0 124.304 6.838 A 2.796 2.796 0 0 0 124.903 6.777 A 1.925 1.925 0 0 0 125.778 6.346 A 1.578 1.578 0 0 0 126.253 5.62 A 1.989 1.989 0 0 0 126.339 5.023 A 1.581 1.581 0 0 0 126.046 4.087 Q 125.754 3.674 125.253 3.458 Q 125.684 3.248 125.936 2.874 A 1.449 1.449 0 0 0 126.085 2.592 Z M 112.461 0.844 L 113.274 0.844 L 113.274 1.995 L 114.161 1.995 L 114.161 2.624 L 113.274 2.624 L 113.274 5.572 Q 113.274 5.858 113.392 6.001 Q 113.511 6.144 113.797 6.144 A 1.046 1.046 0 0 0 113.894 6.138 Q 113.997 6.129 114.137 6.101 A 4.024 4.024 0 0 0 114.183 6.091 L 114.183 6.75 A 2.463 2.463 0 0 1 113.75 6.829 A 2.157 2.157 0 0 1 113.559 6.838 Q 113.112 6.838 112.845 6.616 A 0.856 0.856 0 0 1 112.737 6.508 Q 112.51 6.238 112.469 5.78 A 2.351 2.351 0 0 1 112.461 5.572 L 112.461 2.624 L 111.595 2.624 L 111.595 1.995 L 112.461 1.995 L 112.461 0.844 Z M 146.997 0.844 L 147.81 0.844 L 147.81 1.995 L 148.698 1.995 L 148.698 2.624 L 147.81 2.624 L 147.81 5.572 Q 147.81 5.858 147.929 6.001 Q 148.048 6.144 148.333 6.144 A 1.046 1.046 0 0 0 148.431 6.138 Q 148.533 6.129 148.673 6.101 A 4.024 4.024 0 0 0 148.72 6.091 L 148.72 6.75 A 2.463 2.463 0 0 1 148.287 6.829 A 2.157 2.157 0 0 1 148.096 6.838 Q 147.649 6.838 147.382 6.616 A 0.856 0.856 0 0 1 147.274 6.508 Q 147.047 6.238 147.006 5.78 A 2.351 2.351 0 0 1 146.997 5.572 L 146.997 2.624 L 146.131 2.624 L 146.131 1.995 L 146.997 1.995 L 146.997 0.844 Z M 87.412 4.386 L 87.412 4.329 A 3.057 3.057 0 0 1 87.499 3.587 A 2.573 2.573 0 0 1 87.686 3.072 A 2.16 2.16 0 0 1 88.101 2.486 A 1.957 1.957 0 0 1 88.451 2.21 A 2.036 2.036 0 0 1 89.395 1.913 A 2.491 2.491 0 0 1 89.569 1.907 A 2.277 2.277 0 0 1 90.323 2.027 A 1.937 1.937 0 0 1 91.141 2.58 A 2.29 2.29 0 0 1 91.66 3.608 A 3.373 3.373 0 0 1 91.74 4.368 L 91.74 4.425 A 3.114 3.114 0 0 1 91.661 5.142 A 2.577 2.577 0 0 1 91.475 5.671 A 2.056 2.056 0 0 1 90.947 6.361 A 2.001 2.001 0 0 1 90.714 6.53 A 2.045 2.045 0 0 1 89.794 6.829 A 2.529 2.529 0 0 1 89.578 6.838 A 2.262 2.262 0 0 1 88.828 6.718 A 1.938 1.938 0 0 1 88.012 6.166 A 2.297 2.297 0 0 1 87.486 5.111 A 3.357 3.357 0 0 1 87.412 4.386 Z M 12.67 1.969 L 12.67 2.725 A 2.251 2.251 0 0 0 12.427 2.698 A 2.782 2.782 0 0 0 12.27 2.694 Q 11.492 2.694 11.2 3.338 A 1.445 1.445 0 0 0 11.184 3.375 L 11.184 6.75 L 10.371 6.75 L 10.371 1.995 L 11.162 1.995 L 11.175 2.544 Q 11.556 1.938 12.238 1.909 A 1.636 1.636 0 0 1 12.309 1.907 Q 12.547 1.907 12.67 1.969 Z M 62.693 1.969 L 62.693 2.725 A 2.251 2.251 0 0 0 62.45 2.698 A 2.782 2.782 0 0 0 62.293 2.694 Q 61.515 2.694 61.223 3.338 A 1.445 1.445 0 0 0 61.207 3.375 L 61.207 6.75 L 60.394 6.75 L 60.394 1.995 L 61.185 1.995 L 61.198 2.544 Q 61.579 1.938 62.261 1.909 A 1.636 1.636 0 0 1 62.332 1.907 Q 62.569 1.907 62.693 1.969 Z M 18.738 1.995 L 18.738 6.75 L 17.925 6.75 L 17.925 1.995 L 18.738 1.995 Z M 68.761 1.995 L 68.761 6.75 L 67.948 6.75 L 67.948 1.995 L 68.761 1.995 Z M 135.4 1.995 L 135.4 6.75 L 134.587 6.75 L 134.587 1.995 L 135.4 1.995 Z M 88.229 4.425 A 2.772 2.772 0 0 0 88.277 4.954 Q 88.337 5.264 88.474 5.51 A 1.545 1.545 0 0 0 88.596 5.695 Q 88.963 6.174 89.578 6.174 A 1.269 1.269 0 0 0 90.068 6.083 Q 90.347 5.967 90.55 5.706 A 1.471 1.471 0 0 0 90.563 5.689 A 1.648 1.648 0 0 0 90.818 5.171 Q 90.886 4.945 90.912 4.672 A 3.655 3.655 0 0 0 90.927 4.329 A 2.687 2.687 0 0 0 90.876 3.789 Q 90.809 3.459 90.651 3.2 A 1.586 1.586 0 0 0 90.556 3.061 A 1.231 1.231 0 0 0 90.141 2.705 Q 89.888 2.575 89.569 2.575 Q 88.98 2.575 88.613 3.035 A 1.515 1.515 0 0 0 88.598 3.054 A 1.589 1.589 0 0 0 88.346 3.552 Q 88.277 3.772 88.248 4.039 A 3.676 3.676 0 0 0 88.229 4.425 Z M 139.707 5.449 L 139.707 3.278 A 1.439 1.439 0 0 0 139.406 2.891 Q 139.102 2.62 138.662 2.599 A 1.578 1.578 0 0 0 138.586 2.597 Q 137.994 2.597 137.66 3.056 A 1.51 1.51 0 0 0 137.45 3.484 Q 137.384 3.689 137.353 3.939 A 3.955 3.955 0 0 0 137.325 4.425 Q 137.325 5.229 137.654 5.689 Q 137.984 6.148 138.577 6.148 A 1.32 1.32 0 0 0 139.087 6.054 Q 139.479 5.891 139.707 5.449 Z M 119.773 1.639 L 117.879 4.601 L 119.87 4.601 L 119.87 1.463 L 119.773 1.639 Z M 125.526 5.005 A 1.375 1.375 0 0 0 125.466 4.592 A 1.109 1.109 0 0 0 125.185 4.131 A 1.148 1.148 0 0 0 124.514 3.807 A 1.593 1.593 0 0 0 124.295 3.792 A 1.466 1.466 0 0 0 123.906 3.841 A 1.086 1.086 0 0 0 123.414 4.126 A 1.123 1.123 0 0 0 123.1 4.762 A 1.572 1.572 0 0 0 123.082 5.005 A 1.48 1.48 0 0 0 123.124 5.367 A 1.019 1.019 0 0 0 123.405 5.862 Q 123.711 6.158 124.244 6.173 A 2.053 2.053 0 0 0 124.304 6.174 Q 124.798 6.174 125.107 5.94 A 1.018 1.018 0 0 0 125.2 5.86 A 1.041 1.041 0 0 0 125.5 5.292 A 1.518 1.518 0 0 0 125.526 5.005 Z M 124.304 0.932 A 1.259 1.259 0 0 0 123.951 0.979 A 0.973 0.973 0 0 0 123.528 1.228 Q 123.232 1.525 123.232 2.035 A 1.325 1.325 0 0 0 123.276 2.387 A 0.994 0.994 0 0 0 123.524 2.823 A 0.974 0.974 0 0 0 124.086 3.108 A 1.382 1.382 0 0 0 124.304 3.125 A 1.279 1.279 0 0 0 124.649 3.08 A 0.952 0.952 0 0 0 125.084 2.823 A 1.018 1.018 0 0 0 125.359 2.26 A 1.426 1.426 0 0 0 125.376 2.035 A 1.282 1.282 0 0 0 125.326 1.668 A 1.013 1.013 0 0 0 125.073 1.239 Q 124.77 0.932 124.304 0.932 Z M 6.236 3.938 L 8.618 3.938 L 8.618 3.876 Q 8.592 3.417 8.421 3.111 A 1.13 1.13 0 0 0 8.284 2.916 A 0.983 0.983 0 0 0 7.629 2.584 A 1.39 1.39 0 0 0 7.475 2.575 A 1.106 1.106 0 0 0 6.953 2.698 A 1.14 1.14 0 0 0 6.649 2.933 A 1.417 1.417 0 0 0 6.372 3.379 Q 6.299 3.563 6.259 3.785 A 2.741 2.741 0 0 0 6.236 3.938 Z M 25.383 3.938 L 27.765 3.938 L 27.765 3.876 Q 27.739 3.417 27.568 3.111 A 1.13 1.13 0 0 0 27.431 2.916 A 0.983 0.983 0 0 0 26.776 2.584 A 1.39 1.39 0 0 0 26.622 2.575 A 1.106 1.106 0 0 0 26.1 2.698 A 1.14 1.14 0 0 0 25.796 2.933 A 1.417 1.417 0 0 0 25.519 3.379 Q 25.446 3.563 25.406 3.785 A 2.741 2.741 0 0 0 25.383 3.938 Z M 56.259 3.938 L 58.641 3.938 L 58.641 3.876 Q 58.615 3.417 58.444 3.111 A 1.13 1.13 0 0 0 58.307 2.916 A 0.983 0.983 0 0 0 57.652 2.584 A 1.39 1.39 0 0 0 57.498 2.575 A 1.106 1.106 0 0 0 56.976 2.698 A 1.14 1.14 0 0 0 56.672 2.933 A 1.417 1.417 0 0 0 56.395 3.379 Q 56.322 3.563 56.282 3.785 A 2.741 2.741 0 0 0 56.259 3.938 Z M 75.406 3.938 L 77.788 3.938 L 77.788 3.876 Q 77.762 3.417 77.591 3.111 A 1.13 1.13 0 0 0 77.454 2.916 A 0.983 0.983 0 0 0 76.799 2.584 A 1.39 1.39 0 0 0 76.645 2.575 A 1.106 1.106 0 0 0 76.123 2.698 A 1.14 1.14 0 0 0 75.819 2.933 A 1.417 1.417 0 0 0 75.542 3.379 Q 75.469 3.563 75.429 3.785 A 2.741 2.741 0 0 0 75.406 3.938 Z M 103.324 3.938 L 105.706 3.938 L 105.706 3.876 Q 105.68 3.417 105.51 3.111 A 1.13 1.13 0 0 0 105.372 2.916 A 0.983 0.983 0 0 0 104.718 2.584 A 1.39 1.39 0 0 0 104.564 2.575 A 1.106 1.106 0 0 0 104.041 2.698 A 1.14 1.14 0 0 0 103.737 2.933 A 1.417 1.417 0 0 0 103.461 3.379 Q 103.387 3.563 103.347 3.785 A 2.741 2.741 0 0 0 103.324 3.938 Z M 17.86 0.734 Q 17.86 0.536 17.98 0.4 Q 18.092 0.274 18.304 0.264 A 0.783 0.783 0 0 1 18.339 0.264 Q 18.576 0.264 18.699 0.4 A 0.474 0.474 0 0 1 18.821 0.703 A 0.614 0.614 0 0 1 18.822 0.734 A 0.523 0.523 0 0 1 18.797 0.9 A 0.442 0.442 0 0 1 18.699 1.063 Q 18.586 1.184 18.378 1.194 A 0.803 0.803 0 0 1 18.339 1.195 Q 18.166 1.195 18.055 1.126 A 0.362 0.362 0 0 1 17.98 1.063 A 0.456 0.456 0 0 1 17.862 0.788 A 0.605 0.605 0 0 1 17.86 0.734 Z M 67.882 0.734 Q 67.882 0.536 68.003 0.4 Q 68.115 0.274 68.327 0.264 A 0.783 0.783 0 0 1 68.361 0.264 Q 68.599 0.264 68.722 0.4 A 0.474 0.474 0 0 1 68.844 0.703 A 0.614 0.614 0 0 1 68.845 0.734 A 0.523 0.523 0 0 1 68.82 0.9 A 0.442 0.442 0 0 1 68.722 1.063 Q 68.609 1.184 68.401 1.194 A 0.803 0.803 0 0 1 68.361 1.195 Q 68.189 1.195 68.078 1.126 A 0.362 0.362 0 0 1 68.003 1.063 A 0.456 0.456 0 0 1 67.885 0.788 A 0.605 0.605 0 0 1 67.882 0.734 Z M 134.521 0.734 Q 134.521 0.536 134.642 0.4 Q 134.754 0.274 134.966 0.264 A 0.783 0.783 0 0 1 135 0.264 Q 135.237 0.264 135.36 0.4 A 0.474 0.474 0 0 1 135.483 0.703 A 0.614 0.614 0 0 1 135.484 0.734 A 0.523 0.523 0 0 1 135.458 0.9 A 0.442 0.442 0 0 1 135.36 1.063 Q 135.248 1.184 135.04 1.194 A 0.803 0.803 0 0 1 135 1.195 Q 134.828 1.195 134.717 1.126 A 0.362 0.362 0 0 1 134.642 1.063 A 0.456 0.456 0 0 1 134.524 0.788 A 0.605 0.605 0 0 1 134.521 0.734 Z" vector-effect="non-scaling-stroke"/></g>
</svg>