<?xml version="1.0" encoding="UTF-8"?>
<svg width="80px" height="80px" viewBox="0 0 80 80" version="1.1" xmlns="http://www.w3.org/2000/svg" xmlns:xlink="http://www.w3.org/1999/xlink">
    <title>Icon-Architecture/64/Arch_AWS-Mainframe-Modernization_64</title>
    
    <g id="Icon-Architecture/64/Arch_AWS-Mainframe-Modernization_64" stroke="none" stroke-width="1" fill="none" fill-rule="evenodd">
        
        <g id="Icon-Service/64/AWS-Mainframe-Modernization_64" transform="translate(16, 8), scale(.65)" fill="#000000">
            <path d="M59.813,29.352 C59.813,29.679 59.799,30.004 59.772,30.324 C59.294,35.972 54.293,40.395 48.386,40.395 L48.386,38.395 C53.263,38.395 57.389,34.776 57.78,30.157 C57.801,29.893 57.813,29.623 57.813,29.352 C57.813,24.479 54.511,20.805 50.133,20.805 C49.581,20.805 49.133,20.357 49.133,19.805 C49.133,16.512 47.344,12.993 42.322,12.993 L41.455,12.993 C41.091,12.993 40.756,12.796 40.58,12.478 C38.349,8.453 34.134,6.05 29.303,6.05 C22.197,6.05 16.416,11.831 16.416,18.936 C16.416,19.489 15.968,19.936 15.416,19.936 C10.224,19.936 6,24.16 6,29.352 C6,38.167 14.145,38.422 15.074,38.422 L15.074,40.422 C7.424,40.422 4,34.862 4,29.352 C4,23.384 8.604,18.471 14.446,17.977 C14.942,10.214 21.417,4.05 29.303,4.05 C34.664,4.05 39.376,6.634 42.03,10.993 L42.322,10.993 C47.35,10.993 50.707,14.044 51.095,18.852 C56.128,19.345 59.813,23.694 59.813,29.352 L59.813,29.352 Z M45.187,49.52 L49.412,52.819 L40.228,59.993 L23.733,59.993 L14.55,52.819 L18.773,49.52 L20.003,51.097 L17.798,52.819 L24.422,57.993 L39.539,57.993 L46.162,52.819 L43.957,51.097 L45.187,49.52 Z M45.187,40.52 L49.412,43.819 L40.228,50.993 L23.733,50.993 L14.55,43.819 L18.773,40.52 L20.003,42.097 L17.798,43.819 L24.422,48.993 L39.539,48.993 L46.162,43.819 L43.957,42.097 L45.187,40.52 Z M24.004,27.993 L39.957,27.993 L46.998,33.493 L39.957,38.993 L24.004,38.993 L16.963,33.493 L24.004,27.993 Z M40.646,40.993 L50.246,33.493 L40.646,25.993 L23.315,25.993 L13.715,33.493 L23.315,40.993 L40.646,40.993 Z" id="Fill-1"></path>
        </g>
    </g><g transform="translate(6.023000000000003vw, 64vh)" id="svgGroup" stroke-linecap="round" fill-rule="evenodd" font-size="9pt" stroke="#000" stroke-width="0.15mm" fill="#000" style="stroke:#000;stroke-width:0.15mm;fill:#000"><path d="M 0 0.296 L 0.727 0.296 L 2.121 3.776 L 3.516 0.296 L 4.245 0.296 L 4.245 4.562 L 3.683 4.562 L 3.683 2.9 L 3.735 1.107 L 2.335 4.562 L 1.904 4.562 L 0.507 1.116 L 0.563 2.9 L 0.563 4.562 L 0 4.562 L 0 0.296 Z M 30.451 0.296 L 31.178 0.296 L 32.572 3.776 L 33.967 0.296 L 34.696 0.296 L 34.696 4.562 L 34.134 4.562 L 34.134 2.9 L 34.187 1.107 L 32.786 4.562 L 32.355 4.562 L 30.958 1.116 L 31.014 2.9 L 31.014 4.562 L 30.451 4.562 L 30.451 0.296 Z M 20.44 1.392 L 20.953 1.392 L 20.968 1.743 A 1.143 1.143 0 0 1 21.782 1.338 A 1.599 1.599 0 0 1 21.908 1.333 A 1.339 1.339 0 0 1 22.249 1.373 A 0.83 0.83 0 0 1 22.813 1.843 Q 22.972 1.614 23.225 1.474 A 1.1 1.1 0 0 1 23.578 1.353 A 1.473 1.473 0 0 1 23.824 1.333 Q 24.867 1.333 24.885 2.438 L 24.885 4.562 L 24.343 4.562 L 24.343 2.47 Q 24.343 2.13 24.188 1.961 A 0.453 0.453 0 0 0 24.019 1.849 Q 23.945 1.82 23.852 1.806 A 1.25 1.25 0 0 0 23.667 1.793 A 0.83 0.83 0 0 0 23.423 1.827 A 0.672 0.672 0 0 0 23.165 1.973 A 0.695 0.695 0 0 0 22.956 2.331 A 0.94 0.94 0 0 0 22.934 2.458 L 22.934 4.562 L 22.389 4.562 L 22.389 2.484 A 1.021 1.021 0 0 0 22.356 2.215 Q 22.272 1.907 21.967 1.824 A 0.971 0.971 0 0 0 21.712 1.793 A 0.96 0.96 0 0 0 21.422 1.834 Q 21.134 1.925 20.996 2.218 A 0.973 0.973 0 0 0 20.982 2.247 L 20.982 4.562 L 20.44 4.562 L 20.44 1.392 Z M 9.873 1.392 L 10.386 1.392 L 10.403 1.79 Q 10.767 1.333 11.353 1.333 Q 12.357 1.333 12.366 2.467 L 12.366 4.562 L 11.824 4.562 L 11.824 2.464 A 1.224 1.224 0 0 0 11.809 2.277 Q 11.794 2.181 11.762 2.105 A 0.494 0.494 0 0 0 11.667 1.957 A 0.472 0.472 0 0 0 11.478 1.837 Q 11.402 1.809 11.308 1.799 A 1.106 1.106 0 0 0 11.188 1.793 Q 10.925 1.793 10.726 1.934 Q 10.526 2.074 10.415 2.303 L 10.415 4.562 L 9.873 4.562 L 9.873 1.392 Z M 47.619 1.392 L 48.132 1.392 L 48.149 1.79 Q 48.513 1.333 49.099 1.333 Q 50.104 1.333 50.112 2.467 L 50.112 4.562 L 49.57 4.562 L 49.57 2.464 A 1.224 1.224 0 0 0 49.555 2.277 Q 49.54 2.181 49.508 2.105 A 0.494 0.494 0 0 0 49.414 1.957 A 0.472 0.472 0 0 0 49.224 1.837 Q 49.148 1.809 49.054 1.799 A 1.106 1.106 0 0 0 48.935 1.793 Q 48.671 1.793 48.472 1.934 Q 48.272 2.074 48.161 2.303 L 48.161 4.562 L 47.619 4.562 L 47.619 1.392 Z M 65.461 1.392 L 65.974 1.392 L 65.991 1.79 Q 66.354 1.333 66.94 1.333 Q 67.945 1.333 67.954 2.467 L 67.954 4.562 L 67.412 4.562 L 67.412 2.464 A 1.224 1.224 0 0 0 67.397 2.277 Q 67.382 2.181 67.349 2.105 A 0.494 0.494 0 0 0 67.255 1.957 A 0.472 0.472 0 0 0 67.066 1.837 Q 66.99 1.809 66.896 1.799 A 1.106 1.106 0 0 0 66.776 1.793 Q 66.513 1.793 66.313 1.934 Q 66.114 2.074 66.003 2.303 L 66.003 4.562 L 65.461 4.562 L 65.461 1.392 Z M 54.662 1.775 L 52.896 4.119 L 54.75 4.119 L 54.75 4.562 L 52.233 4.562 L 52.233 4.163 L 53.982 1.84 L 52.26 1.84 L 52.26 1.392 L 54.662 1.392 L 54.662 1.775 Z M 7.679 4.562 L 7.11 4.562 A 0.421 0.421 0 0 1 7.087 4.501 Q 7.056 4.404 7.034 4.228 A 1.289 1.289 0 0 1 6.62 4.522 A 1.209 1.209 0 0 1 6.132 4.62 A 1.356 1.356 0 0 1 5.779 4.576 A 1.019 1.019 0 0 1 5.363 4.355 A 0.852 0.852 0 0 1 5.064 3.735 A 1.069 1.069 0 0 1 5.063 3.683 A 1.038 1.038 0 0 1 5.119 3.333 A 0.873 0.873 0 0 1 5.439 2.914 A 1.282 1.282 0 0 1 5.823 2.728 Q 5.994 2.675 6.2 2.654 A 2.912 2.912 0 0 1 6.498 2.64 L 7.025 2.64 L 7.025 2.391 A 0.768 0.768 0 0 0 7.002 2.194 A 0.552 0.552 0 0 0 6.855 1.938 Q 6.711 1.795 6.451 1.773 A 1.166 1.166 0 0 0 6.354 1.77 A 0.95 0.95 0 0 0 6.126 1.796 A 0.712 0.712 0 0 0 5.868 1.916 A 0.57 0.57 0 0 0 5.758 2.021 A 0.395 0.395 0 0 0 5.672 2.271 L 5.127 2.271 Q 5.127 2.033 5.295 1.812 A 1.087 1.087 0 0 1 5.6 1.542 A 1.368 1.368 0 0 1 5.752 1.462 A 1.499 1.499 0 0 1 6.27 1.337 A 1.78 1.78 0 0 1 6.387 1.333 A 1.766 1.766 0 0 1 6.732 1.365 Q 7.04 1.426 7.245 1.607 A 0.931 0.931 0 0 1 7.547 2.158 A 1.332 1.332 0 0 1 7.567 2.361 L 7.567 3.82 A 2.785 2.785 0 0 0 7.579 4.088 Q 7.592 4.214 7.616 4.321 A 1.138 1.138 0 0 0 7.679 4.515 L 7.679 4.562 Z M 19.705 4.562 L 19.137 4.562 A 0.421 0.421 0 0 1 19.113 4.501 Q 19.082 4.404 19.061 4.228 A 1.289 1.289 0 0 1 18.646 4.522 A 1.209 1.209 0 0 1 18.158 4.62 A 1.356 1.356 0 0 1 17.805 4.576 A 1.019 1.019 0 0 1 17.389 4.355 A 0.852 0.852 0 0 1 17.09 3.735 A 1.069 1.069 0 0 1 17.089 3.683 A 1.038 1.038 0 0 1 17.145 3.333 A 0.873 0.873 0 0 1 17.465 2.914 A 1.282 1.282 0 0 1 17.849 2.728 Q 18.021 2.675 18.226 2.654 A 2.912 2.912 0 0 1 18.524 2.64 L 19.052 2.64 L 19.052 2.391 A 0.768 0.768 0 0 0 19.028 2.194 A 0.552 0.552 0 0 0 18.882 1.938 Q 18.738 1.795 18.477 1.773 A 1.166 1.166 0 0 0 18.381 1.77 A 0.95 0.95 0 0 0 18.153 1.796 A 0.712 0.712 0 0 0 17.895 1.916 A 0.57 0.57 0 0 0 17.785 2.021 A 0.395 0.395 0 0 0 17.698 2.271 L 17.153 2.271 Q 17.153 2.033 17.322 1.812 A 1.087 1.087 0 0 1 17.626 1.542 A 1.368 1.368 0 0 1 17.779 1.462 A 1.499 1.499 0 0 1 18.296 1.337 A 1.78 1.78 0 0 1 18.413 1.333 A 1.766 1.766 0 0 1 18.758 1.365 Q 19.066 1.426 19.271 1.607 A 0.931 0.931 0 0 1 19.574 2.158 A 1.332 1.332 0 0 1 19.594 2.361 L 19.594 3.82 A 2.785 2.785 0 0 0 19.606 4.088 Q 19.618 4.214 19.643 4.321 A 1.138 1.138 0 0 0 19.705 4.515 L 19.705 4.562 Z M 57.885 4.562 L 57.316 4.562 A 0.421 0.421 0 0 1 57.293 4.501 Q 57.262 4.404 57.24 4.228 A 1.289 1.289 0 0 1 56.826 4.522 A 1.209 1.209 0 0 1 56.338 4.62 A 1.356 1.356 0 0 1 55.985 4.576 A 1.019 1.019 0 0 1 55.569 4.355 A 0.852 0.852 0 0 1 55.27 3.735 A 1.069 1.069 0 0 1 55.269 3.683 A 1.038 1.038 0 0 1 55.325 3.333 A 0.873 0.873 0 0 1 55.645 2.914 A 1.282 1.282 0 0 1 56.029 2.728 Q 56.2 2.675 56.406 2.654 A 2.912 2.912 0 0 1 56.704 2.64 L 57.231 2.64 L 57.231 2.391 A 0.768 0.768 0 0 0 57.208 2.194 A 0.552 0.552 0 0 0 57.062 1.938 Q 56.917 1.795 56.657 1.773 A 1.166 1.166 0 0 0 56.561 1.77 A 0.95 0.95 0 0 0 56.333 1.796 A 0.712 0.712 0 0 0 56.074 1.916 A 0.57 0.57 0 0 0 55.964 2.021 A 0.395 0.395 0 0 0 55.878 2.271 L 55.333 2.271 Q 55.333 2.033 55.501 1.812 A 1.087 1.087 0 0 1 55.806 1.542 A 1.368 1.368 0 0 1 55.958 1.462 A 1.499 1.499 0 0 1 56.476 1.337 A 1.78 1.78 0 0 1 56.593 1.333 A 1.766 1.766 0 0 1 56.938 1.365 Q 57.246 1.426 57.451 1.607 A 0.931 0.931 0 0 1 57.753 2.158 A 1.332 1.332 0 0 1 57.773 2.361 L 57.773 3.82 A 2.785 2.785 0 0 0 57.785 4.088 Q 57.798 4.214 57.823 4.321 A 1.138 1.138 0 0 0 57.885 4.515 L 57.885 4.562 Z M 38.895 2.991 L 38.895 2.95 A 2.508 2.508 0 0 1 38.939 2.463 Q 38.998 2.168 39.133 1.936 A 1.432 1.432 0 0 1 39.24 1.777 A 1.156 1.156 0 0 1 39.611 1.458 Q 39.841 1.337 40.127 1.333 A 1.397 1.397 0 0 1 40.146 1.333 A 1.309 1.309 0 0 1 40.544 1.391 A 1.039 1.039 0 0 1 41.027 1.714 L 41.027 0.062 L 41.569 0.062 L 41.569 4.562 L 41.071 4.562 L 41.045 4.222 A 1.061 1.061 0 0 1 40.315 4.61 A 1.529 1.529 0 0 1 40.14 4.62 A 1.067 1.067 0 0 1 39.326 4.268 A 1.385 1.385 0 0 1 39.242 4.169 Q 38.913 3.742 38.896 3.068 A 2.95 2.95 0 0 1 38.895 2.991 Z M 25.564 3.064 L 25.564 2.965 Q 25.564 2.493 25.745 2.123 A 1.461 1.461 0 0 1 26.043 1.706 A 1.356 1.356 0 0 1 26.249 1.542 Q 26.572 1.333 26.95 1.333 A 1.503 1.503 0 0 1 27.359 1.386 A 1.093 1.093 0 0 1 27.911 1.74 A 1.33 1.33 0 0 1 28.157 2.199 Q 28.219 2.394 28.241 2.629 A 2.942 2.942 0 0 1 28.254 2.906 L 28.254 3.132 L 26.106 3.132 A 1.408 1.408 0 0 0 26.154 3.471 A 1.011 1.011 0 0 0 26.38 3.889 A 0.855 0.855 0 0 0 27.003 4.177 A 1.102 1.102 0 0 0 27.047 4.178 A 1.176 1.176 0 0 0 27.266 4.158 Q 27.405 4.132 27.517 4.07 A 0.737 0.737 0 0 0 27.533 4.061 A 1.218 1.218 0 0 0 27.872 3.762 A 1.384 1.384 0 0 0 27.882 3.75 L 28.213 4.008 A 1.284 1.284 0 0 1 27.28 4.602 A 1.833 1.833 0 0 1 27.018 4.62 A 1.596 1.596 0 0 1 26.517 4.545 A 1.316 1.316 0 0 1 25.969 4.197 A 1.424 1.424 0 0 1 25.606 3.489 A 2.069 2.069 0 0 1 25.564 3.064 Z M 42.272 3.064 L 42.272 2.965 Q 42.272 2.493 42.453 2.123 A 1.461 1.461 0 0 1 42.751 1.706 A 1.356 1.356 0 0 1 42.957 1.542 Q 43.28 1.333 43.658 1.333 A 1.503 1.503 0 0 1 44.067 1.386 A 1.093 1.093 0 0 1 44.619 1.74 A 1.33 1.33 0 0 1 44.865 2.199 Q 44.927 2.394 44.949 2.629 A 2.942 2.942 0 0 1 44.962 2.906 L 44.962 3.132 L 42.814 3.132 A 1.408 1.408 0 0 0 42.862 3.471 A 1.011 1.011 0 0 0 43.088 3.889 A 0.855 0.855 0 0 0 43.711 4.177 A 1.102 1.102 0 0 0 43.755 4.178 A 1.176 1.176 0 0 0 43.974 4.158 Q 44.113 4.132 44.225 4.07 A 0.737 0.737 0 0 0 44.241 4.061 A 1.218 1.218 0 0 0 44.58 3.762 A 1.384 1.384 0 0 0 44.59 3.75 L 44.921 4.008 A 1.284 1.284 0 0 1 43.988 4.602 A 1.833 1.833 0 0 1 43.726 4.62 A 1.596 1.596 0 0 1 43.225 4.545 A 1.316 1.316 0 0 1 42.677 4.197 A 1.424 1.424 0 0 1 42.314 3.489 A 2.069 2.069 0 0 1 42.272 3.064 Z M 13.992 4.562 L 13.45 4.562 L 13.45 1.811 L 12.949 1.811 L 12.949 1.392 L 13.45 1.392 L 13.45 1.066 A 1.535 1.535 0 0 1 13.48 0.757 Q 13.54 0.465 13.723 0.278 Q 13.982 0.014 14.445 0.001 A 1.724 1.724 0 0 1 14.493 0 A 1.422 1.422 0 0 1 14.865 0.05 L 14.836 0.489 A 1.494 1.494 0 0 0 14.624 0.465 A 1.749 1.749 0 0 0 14.543 0.463 Q 14.306 0.463 14.167 0.587 A 0.451 0.451 0 0 0 14.136 0.617 A 0.498 0.498 0 0 0 14.025 0.814 Q 13.992 0.921 13.992 1.058 L 13.992 1.392 L 14.669 1.392 L 14.669 1.811 L 13.992 1.811 L 13.992 4.562 Z M 58.816 0.624 L 59.358 0.624 L 59.358 1.392 L 59.95 1.392 L 59.95 1.811 L 59.358 1.811 L 59.358 3.776 A 0.732 0.732 0 0 0 59.365 3.881 Q 59.373 3.934 59.389 3.978 A 0.294 0.294 0 0 0 59.438 4.062 A 0.234 0.234 0 0 0 59.534 4.13 Q 59.574 4.145 59.623 4.152 A 0.618 0.618 0 0 0 59.707 4.157 Q 59.801 4.157 59.965 4.122 L 59.965 4.562 A 1.642 1.642 0 0 1 59.676 4.614 A 1.438 1.438 0 0 1 59.549 4.62 A 0.954 0.954 0 0 1 59.332 4.597 Q 59.181 4.562 59.073 4.472 A 0.571 0.571 0 0 1 59.001 4.4 A 0.723 0.723 0 0 1 58.866 4.147 Q 58.816 3.986 58.816 3.776 L 58.816 1.811 L 58.239 1.811 L 58.239 1.392 L 58.816 1.392 L 58.816 0.624 Z M 35.461 2.985 L 35.461 2.947 A 2.038 2.038 0 0 1 35.519 2.453 A 1.715 1.715 0 0 1 35.644 2.109 Q 35.827 1.737 36.154 1.535 A 1.358 1.358 0 0 1 36.783 1.337 A 1.66 1.66 0 0 1 36.899 1.333 A 1.518 1.518 0 0 1 37.402 1.413 A 1.291 1.291 0 0 1 37.947 1.781 A 1.526 1.526 0 0 1 38.293 2.467 A 2.248 2.248 0 0 1 38.347 2.974 L 38.347 3.012 A 2.076 2.076 0 0 1 38.294 3.49 A 1.718 1.718 0 0 1 38.169 3.842 A 1.371 1.371 0 0 1 37.818 4.302 A 1.334 1.334 0 0 1 37.663 4.415 A 1.364 1.364 0 0 1 37.049 4.614 A 1.686 1.686 0 0 1 36.905 4.62 A 1.508 1.508 0 0 1 36.405 4.54 A 1.292 1.292 0 0 1 35.861 4.172 Q 35.461 3.724 35.461 2.985 Z M 61.896 2.985 L 61.896 2.947 A 2.038 2.038 0 0 1 61.953 2.453 A 1.715 1.715 0 0 1 62.079 2.109 Q 62.262 1.737 62.588 1.535 A 1.358 1.358 0 0 1 63.218 1.337 A 1.66 1.66 0 0 1 63.334 1.333 A 1.518 1.518 0 0 1 63.836 1.413 A 1.291 1.291 0 0 1 64.381 1.781 A 1.526 1.526 0 0 1 64.727 2.467 A 2.248 2.248 0 0 1 64.781 2.974 L 64.781 3.012 A 2.076 2.076 0 0 1 64.728 3.49 A 1.718 1.718 0 0 1 64.604 3.842 A 1.371 1.371 0 0 1 64.252 4.302 A 1.334 1.334 0 0 1 64.097 4.415 A 1.364 1.364 0 0 1 63.484 4.614 A 1.686 1.686 0 0 1 63.34 4.62 A 1.508 1.508 0 0 1 62.84 4.54 A 1.292 1.292 0 0 1 62.295 4.172 Q 61.896 3.724 61.896 2.985 Z M 16.799 1.374 L 16.799 1.878 A 1.501 1.501 0 0 0 16.637 1.86 A 1.855 1.855 0 0 0 16.532 1.857 A 0.958 0.958 0 0 0 16.246 1.897 Q 15.954 1.988 15.819 2.287 A 0.963 0.963 0 0 0 15.809 2.312 L 15.809 4.562 L 15.267 4.562 L 15.267 1.392 L 15.794 1.392 L 15.803 1.758 A 0.961 0.961 0 0 1 16.034 1.499 Q 16.253 1.333 16.559 1.333 A 0.99 0.99 0 0 1 16.642 1.336 Q 16.74 1.345 16.799 1.374 Z M 47.121 1.374 L 47.121 1.878 A 1.501 1.501 0 0 0 46.959 1.86 A 1.855 1.855 0 0 0 46.854 1.857 A 0.958 0.958 0 0 0 46.568 1.897 Q 46.277 1.988 46.142 2.287 A 0.963 0.963 0 0 0 46.131 2.312 L 46.131 4.562 L 45.589 4.562 L 45.589 1.392 L 46.116 1.392 L 46.125 1.758 A 0.961 0.961 0 0 1 46.356 1.499 Q 46.575 1.333 46.881 1.333 A 0.99 0.99 0 0 1 46.964 1.336 Q 47.062 1.345 47.121 1.374 Z M 9.006 1.392 L 9.006 4.562 L 8.464 4.562 L 8.464 1.392 L 9.006 1.392 Z M 51.519 1.392 L 51.519 4.562 L 50.977 4.562 L 50.977 1.392 L 51.519 1.392 Z M 61.172 1.392 L 61.172 4.562 L 60.63 4.562 L 60.63 1.392 L 61.172 1.392 Z M 36.169 3.735 A 1.03 1.03 0 0 0 36.25 3.858 Q 36.495 4.178 36.905 4.178 Q 37.318 4.178 37.562 3.854 Q 37.805 3.53 37.805 2.947 A 1.792 1.792 0 0 0 37.771 2.587 Q 37.725 2.367 37.621 2.195 A 1.057 1.057 0 0 0 37.557 2.102 A 0.821 0.821 0 0 0 37.28 1.865 Q 37.112 1.778 36.899 1.778 A 0.813 0.813 0 0 0 36.548 1.853 Q 36.386 1.929 36.262 2.085 A 1.01 1.01 0 0 0 36.252 2.098 A 1.059 1.059 0 0 0 36.084 2.429 Q 36.038 2.576 36.019 2.754 A 2.451 2.451 0 0 0 36.006 3.012 Q 36.006 3.443 36.169 3.735 Z M 62.604 3.735 A 1.03 1.03 0 0 0 62.685 3.858 Q 62.93 4.178 63.34 4.178 Q 63.753 4.178 63.996 3.854 Q 64.239 3.53 64.239 2.947 A 1.792 1.792 0 0 0 64.205 2.587 Q 64.16 2.367 64.055 2.195 A 1.057 1.057 0 0 0 63.992 2.102 A 0.821 0.821 0 0 0 63.715 1.865 Q 63.546 1.778 63.334 1.778 A 0.813 0.813 0 0 0 62.983 1.853 Q 62.82 1.929 62.697 2.085 A 1.01 1.01 0 0 0 62.687 2.098 A 1.059 1.059 0 0 0 62.518 2.429 Q 62.472 2.576 62.453 2.754 A 2.451 2.451 0 0 0 62.44 3.012 Q 62.44 3.443 62.604 3.735 Z M 41.027 3.697 L 41.027 2.241 A 0.917 0.917 0 0 0 40.82 1.977 Q 40.604 1.793 40.28 1.793 Q 39.882 1.793 39.659 2.101 Q 39.437 2.408 39.437 3.012 A 2.108 2.108 0 0 0 39.46 3.34 Q 39.51 3.651 39.659 3.855 A 0.707 0.707 0 0 0 40.167 4.154 A 0.927 0.927 0 0 0 40.274 4.16 A 0.894 0.894 0 0 0 40.609 4.1 Q 40.83 4.012 40.972 3.794 A 1.08 1.08 0 0 0 41.027 3.697 Z M 7.025 3.674 L 7.025 3.023 L 6.601 3.023 A 2.544 2.544 0 0 0 6.262 3.044 Q 5.892 3.094 5.73 3.266 A 0.477 0.477 0 0 0 5.604 3.606 A 0.613 0.613 0 0 0 5.627 3.779 A 0.458 0.458 0 0 0 5.774 4.005 A 0.596 0.596 0 0 0 6.05 4.134 A 0.839 0.839 0 0 0 6.211 4.148 Q 6.466 4.148 6.694 4.017 A 0.89 0.89 0 0 0 6.891 3.865 A 0.738 0.738 0 0 0 7.025 3.674 Z M 19.052 3.674 L 19.052 3.023 L 18.627 3.023 A 2.544 2.544 0 0 0 18.288 3.044 Q 17.918 3.094 17.756 3.266 A 0.477 0.477 0 0 0 17.631 3.606 A 0.613 0.613 0 0 0 17.654 3.779 A 0.458 0.458 0 0 0 17.801 4.005 A 0.596 0.596 0 0 0 18.076 4.134 A 0.839 0.839 0 0 0 18.237 4.148 Q 18.492 4.148 18.721 4.017 A 0.89 0.89 0 0 0 18.918 3.865 A 0.738 0.738 0 0 0 19.052 3.674 Z M 57.231 3.674 L 57.231 3.023 L 56.807 3.023 A 2.544 2.544 0 0 0 56.468 3.044 Q 56.098 3.094 55.936 3.266 A 0.477 0.477 0 0 0 55.811 3.606 A 0.613 0.613 0 0 0 55.833 3.779 A 0.458 0.458 0 0 0 55.98 4.005 A 0.596 0.596 0 0 0 56.256 4.134 A 0.839 0.839 0 0 0 56.417 4.148 Q 56.672 4.148 56.9 4.017 A 0.89 0.89 0 0 0 57.097 3.865 A 0.738 0.738 0 0 0 57.231 3.674 Z M 26.124 2.687 L 27.712 2.687 L 27.712 2.646 A 1.489 1.489 0 0 0 27.676 2.389 Q 27.643 2.247 27.581 2.136 A 0.753 0.753 0 0 0 27.489 2.005 A 0.655 0.655 0 0 0 27.053 1.784 A 0.926 0.926 0 0 0 26.95 1.778 Q 26.622 1.778 26.399 2.017 Q 26.204 2.227 26.139 2.585 A 1.827 1.827 0 0 0 26.124 2.687 Z M 42.832 2.687 L 44.42 2.687 L 44.42 2.646 A 1.489 1.489 0 0 0 44.384 2.389 Q 44.351 2.247 44.289 2.136 A 0.753 0.753 0 0 0 44.197 2.005 A 0.655 0.655 0 0 0 43.761 1.784 A 0.926 0.926 0 0 0 43.658 1.778 Q 43.33 1.778 43.107 2.017 Q 42.912 2.227 42.847 2.585 A 1.827 1.827 0 0 0 42.832 2.687 Z M 8.439 0.434 A 0.357 0.357 0 0 0 8.42 0.551 A 0.403 0.403 0 0 0 8.422 0.587 A 0.304 0.304 0 0 0 8.5 0.771 Q 8.556 0.831 8.648 0.85 A 0.455 0.455 0 0 0 8.739 0.858 Q 8.897 0.858 8.979 0.771 A 0.295 0.295 0 0 0 9.045 0.661 A 0.349 0.349 0 0 0 9.062 0.551 A 0.409 0.409 0 0 0 9.061 0.53 A 0.316 0.316 0 0 0 8.979 0.328 Q 8.924 0.267 8.834 0.247 A 0.439 0.439 0 0 0 8.739 0.237 Q 8.677 0.237 8.627 0.251 A 0.257 0.257 0 0 0 8.5 0.328 A 0.31 0.31 0 0 0 8.439 0.434 Z M 50.951 0.434 A 0.357 0.357 0 0 0 50.933 0.551 A 0.403 0.403 0 0 0 50.934 0.587 A 0.304 0.304 0 0 0 51.013 0.771 Q 51.069 0.831 51.161 0.85 A 0.455 0.455 0 0 0 51.252 0.858 Q 51.41 0.858 51.492 0.771 A 0.295 0.295 0 0 0 51.557 0.661 A 0.349 0.349 0 0 0 51.574 0.551 A 0.409 0.409 0 0 0 51.574 0.53 A 0.316 0.316 0 0 0 51.492 0.328 Q 51.437 0.267 51.347 0.247 A 0.439 0.439 0 0 0 51.252 0.237 Q 51.19 0.237 51.139 0.251 A 0.257 0.257 0 0 0 51.013 0.328 A 0.31 0.31 0 0 0 50.951 0.434 Z M 60.605 0.434 A 0.357 0.357 0 0 0 60.586 0.551 A 0.403 0.403 0 0 0 60.588 0.587 A 0.304 0.304 0 0 0 60.667 0.771 Q 60.722 0.831 60.814 0.85 A 0.455 0.455 0 0 0 60.905 0.858 Q 61.063 0.858 61.146 0.771 A 0.295 0.295 0 0 0 61.211 0.661 A 0.349 0.349 0 0 0 61.228 0.551 A 0.409 0.409 0 0 0 61.227 0.53 A 0.316 0.316 0 0 0 61.146 0.328 Q 61.09 0.267 61 0.247 A 0.439 0.439 0 0 0 60.905 0.237 Q 60.843 0.237 60.793 0.251 A 0.257 0.257 0 0 0 60.667 0.328 A 0.31 0.31 0 0 0 60.605 0.434 Z" vector-effect="non-scaling-stroke"/></g>
</svg>