<?xml version="1.0" encoding="UTF-8"?>
<svg width="80px" height="80px" viewBox="0 0 80 80" version="1.1" xmlns="http://www.w3.org/2000/svg" xmlns:xlink="http://www.w3.org/1999/xlink">
    <!-- Generator: Sketch 64 (93537) - https://sketch.com -->
    <title>Icon-Architecture/64/Arch_AWS-Elemental-MediaTailor_64</title>
    <desc>Created with Sketch.</desc>
    
    <g id="Icon-Architecture/64/Arch_AWS-Elemental-MediaTailor_64" stroke="none" stroke-width="1" fill="none" fill-rule="evenodd">
        
        <path transform="translate(0vw, 0vh), scale(.65)" d="M19,36 L17,36 L17,27 C17,26.634 17.199,26.297 17.521,26.122 L28.521,20.113 L29.479,21.868 L19,27.593 L19,36 Z M63,36 L61,36 L61,27.593 L50.521,21.866 L51.479,20.111 L62.479,26.122 C62.801,26.297 63,26.634 63,27 L63,36 Z M33.508,62.871 L17.508,53.827 C17.194,53.65 17,53.317 17,52.957 L17,43 L19,43 L19,52.373 L34.492,61.129 L33.508,62.871 Z M46.492,62.871 L45.508,61.129 L61,52.373 L61,43 L63,43 L63,52.957 C63,53.317 62.806,53.65 62.492,53.827 L46.492,62.871 Z M35,26.382 L40,28.882 L45,26.382 L45,19.618 L40,17.118 L35,19.618 L35,26.382 Z M25.058,34.958 L40.002,42.869 L54.942,34.958 L44.502,28.867 L41,30.618 L41,35 L39,35 L39,30.618 L35.498,28.867 L25.058,34.958 Z M24.989,45.93 L39.999,53.962 L55.011,45.93 L47.461,41.182 L41,44.603 L41.001,47 L39.001,47 L39,44.601 L32.539,41.181 L24.989,45.93 Z M39.001,66 L39,55.696 L22.528,46.882 C22.214,46.713 22.013,46.391 22.001,46.035 C21.988,45.679 22.166,45.343 22.468,45.153 L30.499,40.101 L22.532,35.884 C22.211,35.714 22.008,35.384 21.999813,35.021 C21.993,34.658 22.183,34.319 22.496,34.136 L33.382,27.786 C33.144,27.599 33,27.311 33,27 L33,19 C33,18.621 33.214,18.275 33.553,18.105 L39.553,15.105 C39.834,14.965 40.166,14.965 40.447,15.105 L46.447,18.105 C46.786,18.275 47,18.621 47,19 L47,27 C47,27.311 46.856,27.599 46.618,27.786 L57.504,34.136 C57.817,34.319 58.007,34.658 58.000187,35.021 C57.992,35.383 57.789,35.714 57.468,35.884 L49.501,40.102 L57.532,45.153 C57.834,45.343 58.012,45.679 57.999,46.035 C57.987,46.391 57.786,46.714 57.472,46.882 L41,55.695 L41.001,66 L39.001,66 Z" id="AWS-Elemental-MediaTailor_Icon_64_Squid" fill="#000000"></path>
    </g><g transform="translate(12vw, 80vh)" id="svgGroup" stroke-linecap="round" fill-rule="evenodd" font-size="9pt" stroke="#000" stroke-width="0.25mm" fill="#000" style="stroke:#000;stroke-width:0.25mm;fill:#000"><path d="M 41.937 0.352 L 43.027 0.352 L 45.119 5.572 L 47.21 0.352 L 48.305 0.352 L 48.305 6.75 L 47.461 6.75 L 47.461 4.258 L 47.54 1.569 L 45.439 6.75 L 44.793 6.75 L 42.697 1.582 L 42.781 4.258 L 42.781 6.75 L 41.937 6.75 L 41.937 0.352 Z M 11.936 1.995 L 12.705 1.995 L 12.727 2.522 Q 13.25 1.907 14.137 1.907 A 2.009 2.009 0 0 1 14.648 1.968 A 1.244 1.244 0 0 1 15.495 2.672 A 1.801 1.801 0 0 1 16.113 2.118 A 1.65 1.65 0 0 1 16.642 1.937 A 2.209 2.209 0 0 1 17.011 1.907 A 2.119 2.119 0 0 1 17.655 1.997 Q 18.582 2.292 18.602 3.564 L 18.602 6.75 L 17.789 6.75 L 17.789 3.612 A 1.781 1.781 0 0 0 17.769 3.332 Q 17.745 3.185 17.694 3.067 A 0.758 0.758 0 0 0 17.556 2.85 A 0.68 0.68 0 0 0 17.303 2.682 Q 17.092 2.597 16.775 2.597 A 1.245 1.245 0 0 0 16.409 2.648 A 1.008 1.008 0 0 0 16.022 2.867 A 1.042 1.042 0 0 0 15.708 3.404 A 1.41 1.41 0 0 0 15.675 3.595 L 15.675 6.75 L 14.858 6.75 L 14.858 3.634 A 1.532 1.532 0 0 0 14.809 3.23 Q 14.683 2.768 14.225 2.643 A 1.457 1.457 0 0 0 13.843 2.597 Q 13.069 2.597 12.768 3.234 A 1.459 1.459 0 0 0 12.749 3.278 L 12.749 6.75 L 11.936 6.75 L 11.936 1.995 Z M 3.617 3.103 L 3.617 3.792 L 0.844 3.792 L 0.844 6.06 L 4.065 6.06 L 4.065 6.75 L 0 6.75 L 0 0.352 L 4.021 0.352 L 4.021 1.046 L 0.844 1.046 L 0.844 3.103 L 3.617 3.103 Z M 24.596 1.995 L 25.365 1.995 L 25.392 2.593 Q 25.928 1.918 26.788 1.907 A 2.234 2.234 0 0 1 26.815 1.907 A 1.905 1.905 0 0 1 27.449 2.004 Q 28.291 2.3 28.334 3.506 A 3.668 3.668 0 0 1 28.336 3.608 L 28.336 6.75 L 27.523 6.75 L 27.523 3.604 A 1.837 1.837 0 0 0 27.501 3.324 Q 27.451 3.017 27.288 2.843 Q 27.102 2.645 26.748 2.606 A 1.66 1.66 0 0 0 26.569 2.597 A 1.253 1.253 0 0 0 26.155 2.664 A 1.123 1.123 0 0 0 25.875 2.808 A 1.432 1.432 0 0 0 25.409 3.362 L 25.409 6.75 L 24.596 6.75 L 24.596 1.995 Z M 71.139 0.352 L 71.139 1.046 L 69.082 1.046 L 69.082 6.75 L 68.243 6.75 L 68.243 1.046 L 66.19 1.046 L 66.19 0.352 L 71.139 0.352 Z M 36.29 6.75 L 35.438 6.75 A 0.632 0.632 0 0 1 35.402 6.66 Q 35.371 6.562 35.346 6.41 A 3.997 3.997 0 0 1 35.323 6.249 Q 34.756 6.838 33.97 6.838 A 2.033 2.033 0 0 1 33.44 6.772 A 1.529 1.529 0 0 1 32.816 6.44 Q 32.366 6.042 32.366 5.432 Q 32.366 4.689 32.93 4.278 Q 33.495 3.867 34.519 3.867 L 35.31 3.867 L 35.31 3.494 A 1.152 1.152 0 0 0 35.274 3.199 A 0.828 0.828 0 0 0 35.055 2.815 Q 34.839 2.6 34.449 2.568 A 1.748 1.748 0 0 0 34.304 2.562 Q 33.869 2.562 33.574 2.782 Q 33.28 3.001 33.28 3.313 L 32.462 3.313 A 1.041 1.041 0 0 1 32.587 2.825 A 1.409 1.409 0 0 1 32.715 2.626 Q 32.968 2.294 33.401 2.101 A 2.249 2.249 0 0 1 34.176 1.913 A 2.669 2.669 0 0 1 34.352 1.907 A 2.65 2.65 0 0 1 34.869 1.955 Q 35.177 2.016 35.416 2.156 A 1.439 1.439 0 0 1 35.64 2.318 A 1.396 1.396 0 0 1 36.093 3.144 A 1.998 1.998 0 0 1 36.123 3.45 L 36.123 5.638 Q 36.123 6.073 36.197 6.39 A 1.707 1.707 0 0 0 36.29 6.68 L 36.29 6.75 Z M 65.483 6.75 L 64.63 6.75 A 0.632 0.632 0 0 1 64.595 6.66 Q 64.564 6.562 64.539 6.41 A 3.997 3.997 0 0 1 64.516 6.249 Q 63.949 6.838 63.163 6.838 A 2.033 2.033 0 0 1 62.633 6.772 A 1.529 1.529 0 0 1 62.009 6.44 Q 61.559 6.042 61.559 5.432 Q 61.559 4.689 62.123 4.278 Q 62.688 3.867 63.712 3.867 L 64.503 3.867 L 64.503 3.494 A 1.152 1.152 0 0 0 64.467 3.199 A 0.828 0.828 0 0 0 64.248 2.815 Q 64.032 2.6 63.641 2.568 A 1.748 1.748 0 0 0 63.497 2.562 Q 63.062 2.562 62.767 2.782 Q 62.473 3.001 62.473 3.313 L 61.655 3.313 A 1.041 1.041 0 0 1 61.78 2.825 A 1.409 1.409 0 0 1 61.908 2.626 Q 62.161 2.294 62.594 2.101 A 2.249 2.249 0 0 1 63.369 1.913 A 2.669 2.669 0 0 1 63.545 1.907 A 2.65 2.65 0 0 1 64.062 1.955 Q 64.37 2.016 64.608 2.156 A 1.439 1.439 0 0 1 64.833 2.318 A 1.396 1.396 0 0 1 65.286 3.144 A 1.998 1.998 0 0 1 65.316 3.45 L 65.316 5.638 Q 65.316 6.073 65.39 6.39 A 1.707 1.707 0 0 0 65.483 6.68 L 65.483 6.75 Z M 75.252 6.75 L 74.399 6.75 A 0.632 0.632 0 0 1 74.364 6.66 Q 74.333 6.562 74.308 6.41 A 3.997 3.997 0 0 1 74.285 6.249 Q 73.718 6.838 72.932 6.838 A 2.033 2.033 0 0 1 72.402 6.772 A 1.529 1.529 0 0 1 71.778 6.44 Q 71.328 6.042 71.328 5.432 Q 71.328 4.689 71.892 4.278 Q 72.457 3.867 73.481 3.867 L 74.272 3.867 L 74.272 3.494 A 1.152 1.152 0 0 0 74.236 3.199 A 0.828 0.828 0 0 0 74.017 2.815 Q 73.801 2.6 73.41 2.568 A 1.748 1.748 0 0 0 73.266 2.562 Q 72.831 2.562 72.536 2.782 Q 72.242 3.001 72.242 3.313 L 71.424 3.313 A 1.041 1.041 0 0 1 71.549 2.825 A 1.409 1.409 0 0 1 71.677 2.626 Q 71.93 2.294 72.363 2.101 A 2.249 2.249 0 0 1 73.138 1.913 A 2.669 2.669 0 0 1 73.314 1.907 A 2.65 2.65 0 0 1 73.831 1.955 Q 74.139 2.016 74.377 2.156 A 1.439 1.439 0 0 1 74.602 2.318 A 1.396 1.396 0 0 1 75.055 3.144 A 1.998 1.998 0 0 1 75.085 3.45 L 75.085 5.638 Q 75.085 6.073 75.159 6.39 A 1.707 1.707 0 0 0 75.252 6.68 L 75.252 6.75 Z M 54.237 4.395 L 54.237 4.333 A 3.762 3.762 0 0 1 54.304 3.602 Q 54.392 3.16 54.594 2.812 A 2.148 2.148 0 0 1 54.756 2.573 Q 55.274 1.907 56.114 1.907 A 1.964 1.964 0 0 1 56.712 1.994 A 1.559 1.559 0 0 1 57.437 2.479 L 57.437 0 L 58.25 0 L 58.25 6.75 L 57.502 6.75 L 57.463 6.24 Q 56.975 6.838 56.105 6.838 A 1.6 1.6 0 0 1 54.884 6.31 A 2.078 2.078 0 0 1 54.758 6.161 A 2.405 2.405 0 0 1 54.333 5.255 Q 54.249 4.912 54.239 4.51 A 4.425 4.425 0 0 1 54.237 4.395 Z M 6.965 4.504 L 6.965 4.355 A 3.17 3.17 0 0 1 7.042 3.646 A 2.581 2.581 0 0 1 7.236 3.092 A 2.191 2.191 0 0 1 7.683 2.466 A 2.033 2.033 0 0 1 7.991 2.221 Q 8.477 1.907 9.044 1.907 A 2.254 2.254 0 0 1 9.657 1.986 A 1.639 1.639 0 0 1 10.485 2.518 Q 11 3.129 11 4.267 L 11 4.605 L 7.778 4.605 A 2.111 2.111 0 0 0 7.849 5.114 A 1.516 1.516 0 0 0 8.189 5.741 A 1.282 1.282 0 0 0 9.123 6.173 A 1.652 1.652 0 0 0 9.189 6.174 A 1.763 1.763 0 0 0 9.517 6.145 Q 9.741 6.103 9.918 5.999 A 1.827 1.827 0 0 0 10.427 5.551 A 2.068 2.068 0 0 0 10.441 5.533 L 10.938 5.919 A 1.926 1.926 0 0 1 9.538 6.811 A 2.749 2.749 0 0 1 9.145 6.838 A 2.394 2.394 0 0 1 8.394 6.725 A 1.974 1.974 0 0 1 7.572 6.203 Q 6.965 5.568 6.965 4.504 Z M 19.622 4.504 L 19.622 4.355 A 3.17 3.17 0 0 1 19.698 3.646 A 2.581 2.581 0 0 1 19.892 3.092 A 2.191 2.191 0 0 1 20.339 2.466 A 2.033 2.033 0 0 1 20.648 2.221 Q 21.133 1.907 21.7 1.907 A 2.254 2.254 0 0 1 22.313 1.986 A 1.639 1.639 0 0 1 23.142 2.518 Q 23.656 3.129 23.656 4.267 L 23.656 4.605 L 20.435 4.605 A 2.111 2.111 0 0 0 20.506 5.114 A 1.516 1.516 0 0 0 20.845 5.741 A 1.282 1.282 0 0 0 21.78 6.173 A 1.652 1.652 0 0 0 21.845 6.174 A 1.763 1.763 0 0 0 22.173 6.145 Q 22.397 6.103 22.575 5.999 A 1.827 1.827 0 0 0 23.084 5.551 A 2.068 2.068 0 0 0 23.098 5.533 L 23.594 5.919 A 1.926 1.926 0 0 1 22.195 6.811 A 2.749 2.749 0 0 1 21.801 6.838 A 2.394 2.394 0 0 1 21.05 6.725 A 1.974 1.974 0 0 1 20.228 6.203 Q 19.622 5.568 19.622 4.504 Z M 49.46 4.504 L 49.46 4.355 A 3.17 3.17 0 0 1 49.537 3.646 A 2.581 2.581 0 0 1 49.731 3.092 A 2.191 2.191 0 0 1 50.178 2.466 A 2.033 2.033 0 0 1 50.487 2.221 Q 50.972 1.907 51.539 1.907 A 2.254 2.254 0 0 1 52.152 1.986 A 1.639 1.639 0 0 1 52.98 2.518 Q 53.495 3.129 53.495 4.267 L 53.495 4.605 L 50.273 4.605 A 2.111 2.111 0 0 0 50.345 5.114 A 1.516 1.516 0 0 0 50.684 5.741 A 1.282 1.282 0 0 0 51.618 6.173 A 1.652 1.652 0 0 0 51.684 6.174 A 1.763 1.763 0 0 0 52.012 6.145 Q 52.236 6.103 52.414 5.999 A 1.827 1.827 0 0 0 52.922 5.551 A 2.068 2.068 0 0 0 52.937 5.533 L 53.433 5.919 A 1.926 1.926 0 0 1 52.033 6.811 A 2.749 2.749 0 0 1 51.64 6.838 A 2.394 2.394 0 0 1 50.889 6.725 A 1.974 1.974 0 0 1 50.067 6.203 Q 49.46 5.568 49.46 4.504 Z M 29.852 0.844 L 30.665 0.844 L 30.665 1.995 L 31.553 1.995 L 31.553 2.624 L 30.665 2.624 L 30.665 5.572 Q 30.665 5.858 30.784 6.001 Q 30.902 6.144 31.188 6.144 A 1.046 1.046 0 0 0 31.286 6.138 Q 31.388 6.129 31.528 6.101 A 4.024 4.024 0 0 0 31.575 6.091 L 31.575 6.75 A 2.463 2.463 0 0 1 31.142 6.829 A 2.157 2.157 0 0 1 30.951 6.838 Q 30.504 6.838 30.237 6.616 A 0.856 0.856 0 0 1 30.129 6.508 Q 29.901 6.238 29.861 5.78 A 2.351 2.351 0 0 1 29.852 5.572 L 29.852 2.624 L 28.986 2.624 L 28.986 1.995 L 29.852 1.995 L 29.852 0.844 Z M 5.871 0 L 5.871 6.75 L 5.058 6.75 L 5.058 0 L 5.871 0 Z M 38.281 0 L 38.281 6.75 L 37.468 6.75 L 37.468 0 L 38.281 0 Z M 79.427 0 L 79.427 6.75 L 78.614 6.75 L 78.614 0 L 79.427 0 Z M 80.512 4.386 L 80.512 4.329 A 3.057 3.057 0 0 1 80.599 3.587 A 2.573 2.573 0 0 1 80.787 3.072 A 2.16 2.16 0 0 1 81.202 2.486 A 1.957 1.957 0 0 1 81.552 2.21 A 2.036 2.036 0 0 1 82.496 1.913 A 2.491 2.491 0 0 1 82.67 1.907 A 2.277 2.277 0 0 1 83.423 2.027 A 1.937 1.937 0 0 1 84.241 2.58 A 2.29 2.29 0 0 1 84.76 3.608 A 3.373 3.373 0 0 1 84.841 4.368 L 84.841 4.425 A 3.114 3.114 0 0 1 84.761 5.142 A 2.577 2.577 0 0 1 84.575 5.671 A 2.056 2.056 0 0 1 84.048 6.361 A 2.001 2.001 0 0 1 83.815 6.53 A 2.045 2.045 0 0 1 82.895 6.829 A 2.529 2.529 0 0 1 82.679 6.838 A 2.262 2.262 0 0 1 81.928 6.718 A 1.938 1.938 0 0 1 81.112 6.166 A 2.297 2.297 0 0 1 80.586 5.111 A 3.357 3.357 0 0 1 80.512 4.386 Z M 88.159 1.969 L 88.159 2.725 A 2.251 2.251 0 0 0 87.916 2.698 A 2.782 2.782 0 0 0 87.759 2.694 Q 86.981 2.694 86.689 3.338 A 1.445 1.445 0 0 0 86.673 3.375 L 86.673 6.75 L 85.86 6.75 L 85.86 1.995 L 86.651 1.995 L 86.665 2.544 Q 87.045 1.938 87.727 1.909 A 1.636 1.636 0 0 1 87.798 1.907 Q 88.036 1.907 88.159 1.969 Z M 60.394 1.995 L 60.394 6.75 L 59.581 6.75 L 59.581 1.995 L 60.394 1.995 Z M 77.243 1.995 L 77.243 6.75 L 76.43 6.75 L 76.43 1.995 L 77.243 1.995 Z M 81.33 4.425 A 2.772 2.772 0 0 0 81.377 4.954 Q 81.437 5.264 81.575 5.51 A 1.545 1.545 0 0 0 81.697 5.695 Q 82.063 6.174 82.679 6.174 A 1.269 1.269 0 0 0 83.168 6.083 Q 83.447 5.967 83.65 5.706 A 1.471 1.471 0 0 0 83.663 5.689 A 1.648 1.648 0 0 0 83.918 5.171 Q 83.987 4.945 84.012 4.672 A 3.655 3.655 0 0 0 84.028 4.329 A 2.687 2.687 0 0 0 83.977 3.789 Q 83.909 3.459 83.752 3.2 A 1.586 1.586 0 0 0 83.656 3.061 A 1.231 1.231 0 0 0 83.241 2.705 Q 82.988 2.575 82.67 2.575 Q 82.08 2.575 81.714 3.035 A 1.515 1.515 0 0 0 81.699 3.054 A 1.589 1.589 0 0 0 81.447 3.552 Q 81.377 3.772 81.349 4.039 A 3.676 3.676 0 0 0 81.33 4.425 Z M 57.437 5.454 L 57.437 3.27 A 1.375 1.375 0 0 0 57.125 2.874 Q 56.801 2.597 56.316 2.597 A 1.238 1.238 0 0 0 55.889 2.668 A 1.068 1.068 0 0 0 55.384 3.059 A 1.51 1.51 0 0 0 55.175 3.484 Q 55.109 3.689 55.078 3.939 A 3.955 3.955 0 0 0 55.05 4.425 A 3.162 3.162 0 0 0 55.086 4.918 Q 55.127 5.178 55.216 5.389 A 1.474 1.474 0 0 0 55.384 5.691 A 1.06 1.06 0 0 0 56.147 6.139 A 1.391 1.391 0 0 0 56.307 6.148 Q 57.081 6.148 57.437 5.454 Z M 35.31 5.418 L 35.31 4.443 L 34.673 4.443 Q 33.179 4.443 33.179 5.317 Q 33.179 5.7 33.434 5.915 A 0.893 0.893 0 0 0 33.847 6.108 A 1.259 1.259 0 0 0 34.088 6.13 A 1.429 1.429 0 0 0 34.813 5.933 A 1.335 1.335 0 0 0 35.109 5.705 A 1.108 1.108 0 0 0 35.31 5.418 Z M 64.503 5.418 L 64.503 4.443 L 63.866 4.443 Q 62.372 4.443 62.372 5.317 Q 62.372 5.7 62.626 5.915 A 0.893 0.893 0 0 0 63.04 6.108 A 1.259 1.259 0 0 0 63.281 6.13 A 1.429 1.429 0 0 0 64.006 5.933 A 1.335 1.335 0 0 0 64.302 5.705 A 1.108 1.108 0 0 0 64.503 5.418 Z M 74.272 5.418 L 74.272 4.443 L 73.635 4.443 Q 72.141 4.443 72.141 5.317 Q 72.141 5.7 72.396 5.915 A 0.893 0.893 0 0 0 72.809 6.108 A 1.259 1.259 0 0 0 73.05 6.13 A 1.429 1.429 0 0 0 73.775 5.933 A 1.335 1.335 0 0 0 74.071 5.705 A 1.108 1.108 0 0 0 74.272 5.418 Z M 7.805 3.938 L 10.187 3.938 L 10.187 3.876 Q 10.16 3.417 9.99 3.111 A 1.13 1.13 0 0 0 9.853 2.916 A 0.983 0.983 0 0 0 9.198 2.584 A 1.39 1.39 0 0 0 9.044 2.575 A 1.106 1.106 0 0 0 8.521 2.698 A 1.14 1.14 0 0 0 8.218 2.933 A 1.417 1.417 0 0 0 7.941 3.379 Q 7.868 3.563 7.828 3.785 A 2.741 2.741 0 0 0 7.805 3.938 Z M 20.461 3.938 L 22.843 3.938 L 22.843 3.876 Q 22.817 3.417 22.646 3.111 A 1.13 1.13 0 0 0 22.509 2.916 A 0.983 0.983 0 0 0 21.854 2.584 A 1.39 1.39 0 0 0 21.7 2.575 A 1.106 1.106 0 0 0 21.178 2.698 A 1.14 1.14 0 0 0 20.874 2.933 A 1.417 1.417 0 0 0 20.597 3.379 Q 20.524 3.563 20.484 3.785 A 2.741 2.741 0 0 0 20.461 3.938 Z M 50.3 3.938 L 52.682 3.938 L 52.682 3.876 Q 52.656 3.417 52.485 3.111 A 1.13 1.13 0 0 0 52.348 2.916 A 0.983 0.983 0 0 0 51.693 2.584 A 1.39 1.39 0 0 0 51.539 2.575 A 1.106 1.106 0 0 0 51.017 2.698 A 1.14 1.14 0 0 0 50.713 2.933 A 1.417 1.417 0 0 0 50.436 3.379 Q 50.363 3.563 50.323 3.785 A 2.741 2.741 0 0 0 50.3 3.938 Z M 59.515 0.734 Q 59.515 0.536 59.636 0.4 Q 59.748 0.274 59.96 0.264 A 0.783 0.783 0 0 1 59.994 0.264 Q 60.231 0.264 60.354 0.4 A 0.474 0.474 0 0 1 60.477 0.703 A 0.614 0.614 0 0 1 60.478 0.734 A 0.523 0.523 0 0 1 60.452 0.9 A 0.442 0.442 0 0 1 60.354 1.063 Q 60.242 1.184 60.034 1.194 A 0.803 0.803 0 0 1 59.994 1.195 Q 59.822 1.195 59.711 1.126 A 0.362 0.362 0 0 1 59.636 1.063 A 0.456 0.456 0 0 1 59.518 0.788 A 0.605 0.605 0 0 1 59.515 0.734 Z M 76.364 0.734 Q 76.364 0.536 76.485 0.4 Q 76.597 0.274 76.808 0.264 A 0.783 0.783 0 0 1 76.843 0.264 Q 77.08 0.264 77.203 0.4 A 0.474 0.474 0 0 1 77.325 0.703 A 0.614 0.614 0 0 1 77.326 0.734 A 0.523 0.523 0 0 1 77.301 0.9 A 0.442 0.442 0 0 1 77.203 1.063 Q 77.091 1.184 76.883 1.194 A 0.803 0.803 0 0 1 76.843 1.195 Q 76.67 1.195 76.56 1.126 A 0.362 0.362 0 0 1 76.485 1.063 A 0.456 0.456 0 0 1 76.366 0.788 A 0.605 0.605 0 0 1 76.364 0.734 Z" vector-effect="non-scaling-stroke"/></g>
</svg>