<?xml version="1.0" encoding="UTF-8"?>
<svg width="48px" height="48px" viewBox="0 0 48 48" version="1.1" xmlns="http://www.w3.org/2000/svg" xmlns:xlink="http://www.w3.org/1999/xlink">
    <title>Icon-Resource/Networking-and-Content-Delivery/Res_AWS-Amazon-Route-53-Hosted-Zone_48_Light</title>
    <g id="Icon-Resource/Networking-and-Content-Delivery/Res_AWS-Amazon-Route-53-Hosted-Zone_48" stroke="none" stroke-width="1" fill="none" fill-rule="evenodd">
        <path transform="translate(0vw, 0vh), scale(.65)" d="M33.4488,39.3643 C28.8848,40.1843 25.0338,42.5853 23.5848,43.5833 C22.1358,42.5853 18.2848,40.1843 13.7198,39.3643 C11.4398,38.9553 3.9998,37.1363 3.9998,30.9253 C3.9998,28.3293 4.9828,26.6353 6.0238,24.8433 C7.0038,23.1543 8.0158,21.4103 8.0158,19.0203 C8.0158,15.4343 6.0408,12.8533 4.9278,11.6843 C6.0608,10.3063 8.5278,7.2973 9.8918,5.5523 C11.9708,7.4423 14.3708,8.4703 16.7468,8.4703 C19.3928,8.4703 21.5918,7.4293 23.5848,5.2123 C25.5768,7.4293 27.7748,8.4703 30.4228,8.4703 C32.7988,8.4703 35.1968,7.4423 37.2758,5.5523 C38.6398,7.2963 41.1068,10.3063 42.2408,11.6843 C41.1278,12.8533 39.1518,15.4343 39.1518,19.0203 C39.1518,21.4103 40.1648,23.1543 41.1438,24.8433 C42.1848,26.6353 43.1688,28.3293 43.1688,30.9253 C43.1688,37.1363 35.7288,38.9553 33.4488,39.3643 M42.8748,23.8383 C41.9498,22.2463 41.1518,20.8713 41.1518,19.0203 C41.1518,15.1103 44.2038,12.5673 44.2328,12.5443 L45.0178,11.9093 L44.3758,11.1303 C44.3248,11.0693 39.3318,5.0173 38.1898,3.4543 L37.4768,2.4783 L36.6518,3.3613 C34.7758,5.3663 32.5638,6.4703 30.4228,6.4703 C28.0598,6.4703 26.1968,5.4123 24.3788,3.0373 L23.5848,2.0003 L22.7908,3.0363 C20.9718,5.4113 19.1078,6.4703 16.7468,6.4703 C14.6038,6.4703 12.3918,5.3663 10.5158,3.3613 L9.6898,2.4773 L8.9778,3.4553 C7.8378,5.0173 2.8448,11.0693 2.7938,11.1303 L2.1508,11.9093 L2.9358,12.5443 C2.9678,12.5693 6.0158,15.0803 6.0158,19.0203 C6.0158,20.8713 5.2188,22.2463 4.2938,23.8383 C3.2188,25.6913 1.9998,27.7913 1.9998,30.9253 C1.9998,36.1653 6.2488,40.0553 13.3668,41.3333 C18.5718,42.2673 22.9318,45.5733 22.9758,45.6063 L23.5858,46.0723 L24.1928,45.6063 C24.2368,45.5733 28.5968,42.2673 33.8028,41.3333 C40.9198,40.0553 45.1688,36.1653 45.1688,30.9253 C45.1688,27.7913 43.9498,25.6913 42.8748,23.8383" id="AWS-Amazon-Route-53-Hosted-zone_Resource-Icon_dark-bg" fill="#000000"></path>
    </g><g id="svgGroup" stroke-linecap="round" fill-rule="evenodd" font-size="9pt" stroke="#000" stroke-width="0.25mm" fill="#000" style="stroke:#000;stroke-width:0.25mm;fill:#000"><path d="M 26.389 3.445 L 25.739 3.278 L 26.064 0.088 L 29.342 0.088 L 29.342 0.839 L 26.754 0.839 L 26.561 2.584 A 2.014 2.014 0 0 1 27.445 2.314 A 2.459 2.459 0 0 1 27.628 2.307 A 2.137 2.137 0 0 1 28.245 2.392 A 1.65 1.65 0 0 1 29.017 2.885 Q 29.531 3.463 29.531 4.447 A 2.953 2.953 0 0 1 29.465 5.091 Q 29.344 5.636 28.997 6.005 A 1.745 1.745 0 0 1 28.088 6.513 A 2.621 2.621 0 0 1 27.505 6.574 A 2.504 2.504 0 0 1 26.89 6.503 A 1.827 1.827 0 0 1 26.121 6.104 A 1.753 1.753 0 0 1 25.579 5.208 A 2.458 2.458 0 0 1 25.51 4.803 L 26.279 4.803 A 1.8 1.8 0 0 0 26.359 5.149 Q 26.43 5.353 26.548 5.502 A 0.994 0.994 0 0 0 26.67 5.632 Q 26.987 5.911 27.505 5.911 A 1.335 1.335 0 0 0 27.896 5.856 A 1.029 1.029 0 0 0 28.395 5.524 Q 28.677 5.187 28.713 4.627 A 2.644 2.644 0 0 0 28.718 4.456 Q 28.718 3.815 28.369 3.426 A 1.154 1.154 0 0 0 27.589 3.044 A 1.602 1.602 0 0 0 27.439 3.037 A 1.968 1.968 0 0 0 27.115 3.062 Q 26.808 3.113 26.604 3.27 L 26.389 3.445 Z M 31.601 3.555 L 31.601 2.892 L 32.212 2.892 Q 32.67 2.885 32.972 2.697 A 1.045 1.045 0 0 0 33.117 2.588 A 0.97 0.97 0 0 0 33.437 1.961 A 1.373 1.373 0 0 0 33.447 1.793 A 1.626 1.626 0 0 0 33.391 1.348 Q 33.249 0.849 32.741 0.716 A 1.645 1.645 0 0 0 32.326 0.668 A 1.495 1.495 0 0 0 31.964 0.709 A 1.044 1.044 0 0 0 31.485 0.969 A 1.004 1.004 0 0 0 31.182 1.58 A 1.405 1.405 0 0 0 31.17 1.767 L 30.357 1.767 A 1.698 1.698 0 0 1 30.512 1.036 A 1.68 1.68 0 0 1 30.913 0.503 A 1.924 1.924 0 0 1 31.966 0.024 A 2.615 2.615 0 0 1 32.326 0 A 2.758 2.758 0 0 1 32.902 0.057 Q 33.27 0.135 33.548 0.323 A 1.593 1.593 0 0 1 33.746 0.479 A 1.57 1.57 0 0 1 34.212 1.326 A 2.336 2.336 0 0 1 34.26 1.811 A 1.332 1.332 0 0 1 34.108 2.422 A 1.725 1.725 0 0 1 33.99 2.619 A 1.624 1.624 0 0 1 33.29 3.188 A 1.952 1.952 0 0 1 33.253 3.204 A 1.81 1.81 0 0 1 33.689 3.404 A 1.44 1.44 0 0 1 34.069 3.757 Q 34.356 4.144 34.356 4.702 Q 34.356 5.564 33.794 6.069 A 1.935 1.935 0 0 1 32.837 6.529 A 2.738 2.738 0 0 1 32.331 6.574 A 2.716 2.716 0 0 1 31.684 6.501 A 1.936 1.936 0 0 1 30.865 6.086 Q 30.3 5.599 30.3 4.799 L 31.118 4.799 A 1.255 1.255 0 0 0 31.168 5.163 A 0.978 0.978 0 0 0 31.447 5.607 A 1.113 1.113 0 0 0 31.962 5.872 A 1.643 1.643 0 0 0 32.331 5.911 Q 32.919 5.911 33.231 5.603 Q 33.519 5.32 33.542 4.809 A 2.011 2.011 0 0 0 33.543 4.72 A 1.451 1.451 0 0 0 33.504 4.37 A 0.962 0.962 0 0 0 33.201 3.863 A 1.13 1.13 0 0 0 32.813 3.646 Q 32.555 3.56 32.212 3.555 L 31.601 3.555 Z M 3.74 6.486 L 2.351 3.898 L 0.848 3.898 L 0.848 6.486 L 0 6.486 L 0 0.088 L 2.118 0.088 A 3.809 3.809 0 0 1 2.76 0.138 Q 3.102 0.197 3.376 0.324 A 1.789 1.789 0 0 1 3.781 0.58 A 1.588 1.588 0 0 1 4.307 1.469 A 2.453 2.453 0 0 1 4.364 2.013 A 1.864 1.864 0 0 1 4.273 2.604 A 1.64 1.64 0 0 1 4.041 3.054 A 1.849 1.849 0 0 1 3.382 3.611 A 2.342 2.342 0 0 1 3.142 3.718 L 4.645 6.434 L 4.645 6.486 L 3.74 6.486 Z M 13.504 6.486 L 13.487 6.016 A 1.526 1.526 0 0 1 12.661 6.511 Q 12.41 6.572 12.113 6.574 A 2.996 2.996 0 0 1 12.094 6.574 A 2.086 2.086 0 0 1 11.634 6.527 Q 11.203 6.429 10.936 6.133 A 1.41 1.41 0 0 1 10.653 5.635 Q 10.536 5.292 10.534 4.825 L 10.534 1.732 L 11.347 1.732 L 11.347 4.803 Q 11.347 5.773 12.054 5.873 A 1.229 1.229 0 0 0 12.226 5.884 A 1.927 1.927 0 0 0 12.676 5.835 Q 13.239 5.7 13.465 5.19 L 13.465 1.732 L 14.278 1.732 L 14.278 6.486 L 13.504 6.486 Z M 18.246 4.241 L 18.246 4.091 A 3.17 3.17 0 0 1 18.322 3.382 A 2.581 2.581 0 0 1 18.516 2.828 A 2.191 2.191 0 0 1 18.964 2.202 A 2.033 2.033 0 0 1 19.272 1.958 Q 19.758 1.644 20.325 1.644 A 2.254 2.254 0 0 1 20.938 1.723 A 1.639 1.639 0 0 1 21.766 2.254 Q 22.28 2.865 22.28 4.003 L 22.28 4.342 L 19.059 4.342 A 2.111 2.111 0 0 0 19.13 4.85 A 1.516 1.516 0 0 0 19.47 5.478 A 1.282 1.282 0 0 0 20.404 5.909 A 1.652 1.652 0 0 0 20.47 5.911 A 1.763 1.763 0 0 0 20.798 5.882 Q 21.022 5.839 21.199 5.735 A 1.827 1.827 0 0 0 21.708 5.287 A 2.068 2.068 0 0 0 21.722 5.269 L 22.219 5.656 A 1.926 1.926 0 0 1 20.819 6.547 A 2.749 2.749 0 0 1 20.426 6.574 A 2.394 2.394 0 0 1 19.675 6.461 A 1.974 1.974 0 0 1 18.853 5.939 Q 18.246 5.304 18.246 4.241 Z M 15.803 0.58 L 16.616 0.58 L 16.616 1.732 L 17.503 1.732 L 17.503 2.36 L 16.616 2.36 L 16.616 5.309 Q 16.616 5.594 16.734 5.737 Q 16.853 5.88 17.139 5.88 A 1.046 1.046 0 0 0 17.236 5.875 Q 17.339 5.865 17.479 5.837 A 4.024 4.024 0 0 0 17.525 5.827 L 17.525 6.486 A 2.463 2.463 0 0 1 17.093 6.566 A 2.157 2.157 0 0 1 16.901 6.574 Q 16.454 6.574 16.188 6.352 A 0.856 0.856 0 0 1 16.08 6.245 Q 15.852 5.974 15.812 5.516 A 2.351 2.351 0 0 1 15.803 5.309 L 15.803 2.36 L 14.937 2.36 L 14.937 1.732 L 15.803 1.732 L 15.803 0.58 Z M 5.203 4.122 L 5.203 4.065 A 3.057 3.057 0 0 1 5.29 3.323 A 2.573 2.573 0 0 1 5.478 2.808 A 2.16 2.16 0 0 1 5.892 2.223 A 1.957 1.957 0 0 1 6.242 1.947 A 2.036 2.036 0 0 1 7.187 1.65 A 2.491 2.491 0 0 1 7.361 1.644 A 2.277 2.277 0 0 1 8.114 1.763 A 1.937 1.937 0 0 1 8.932 2.316 A 2.29 2.29 0 0 1 9.451 3.345 A 3.373 3.373 0 0 1 9.532 4.105 L 9.532 4.162 A 3.114 3.114 0 0 1 9.452 4.878 A 2.577 2.577 0 0 1 9.266 5.408 A 2.056 2.056 0 0 1 8.739 6.098 A 2.001 2.001 0 0 1 8.506 6.267 A 2.045 2.045 0 0 1 7.586 6.565 A 2.529 2.529 0 0 1 7.37 6.574 A 2.262 2.262 0 0 1 6.619 6.455 A 1.938 1.938 0 0 1 5.803 5.902 A 2.297 2.297 0 0 1 5.277 4.847 A 3.357 3.357 0 0 1 5.203 4.122 Z M 6.021 4.162 A 2.772 2.772 0 0 0 6.068 4.69 Q 6.128 5.001 6.266 5.246 A 1.545 1.545 0 0 0 6.387 5.432 Q 6.754 5.911 7.37 5.911 A 1.269 1.269 0 0 0 7.859 5.819 Q 8.138 5.704 8.341 5.442 A 1.471 1.471 0 0 0 8.354 5.425 A 1.648 1.648 0 0 0 8.609 4.908 Q 8.678 4.681 8.703 4.409 A 3.655 3.655 0 0 0 8.719 4.065 A 2.687 2.687 0 0 0 8.668 3.525 Q 8.6 3.195 8.443 2.936 A 1.586 1.586 0 0 0 8.347 2.797 A 1.231 1.231 0 0 0 7.932 2.442 Q 7.679 2.312 7.361 2.312 Q 6.771 2.312 6.405 2.771 A 1.515 1.515 0 0 0 6.39 2.791 A 1.589 1.589 0 0 0 6.138 3.288 Q 6.068 3.509 6.04 3.775 A 3.676 3.676 0 0 0 6.021 4.162 Z M 0.848 0.782 L 0.848 3.208 L 2.145 3.208 Q 2.685 3.208 3.035 2.968 A 1.174 1.174 0 0 0 3.144 2.883 A 1.069 1.069 0 0 0 3.51 2.146 A 1.486 1.486 0 0 0 3.516 2.013 Q 3.516 1.47 3.22 1.159 A 1 1 0 0 0 3.162 1.103 Q 2.808 0.787 2.14 0.782 L 0.848 0.782 Z M 19.085 3.674 L 21.467 3.674 L 21.467 3.612 Q 21.441 3.153 21.271 2.848 A 1.13 1.13 0 0 0 21.133 2.652 A 0.983 0.983 0 0 0 20.479 2.32 A 1.39 1.39 0 0 0 20.325 2.312 A 1.106 1.106 0 0 0 19.802 2.435 A 1.14 1.14 0 0 0 19.499 2.67 A 1.417 1.417 0 0 0 19.222 3.116 Q 19.148 3.3 19.108 3.522 A 2.741 2.741 0 0 0 19.085 3.674 Z" vector-effect="non-scaling-stroke"/></g><g transform="translate(22.822, 64), scale(0.75)" id="svgGroup" stroke-linecap="round" fill-rule="evenodd" font-size="9pt" stroke="#000" stroke-width="0.25mm" fill="#000" style="stroke:#000;stroke-width:0.25mm;fill:#000"><path d="M 4.917 0.352 L 4.917 6.75 L 4.069 6.75 L 4.069 3.792 L 0.844 3.792 L 0.844 6.75 L 0 6.75 L 0 0.352 L 0.844 0.352 L 0.844 3.103 L 4.069 3.103 L 4.069 0.352 L 4.917 0.352 Z M 35.354 0.971 L 31.834 6.06 L 35.495 6.06 L 35.495 6.75 L 30.836 6.75 L 30.836 6.117 L 34.343 1.046 L 30.894 1.046 L 30.894 0.352 L 35.354 0.352 L 35.354 0.971 Z M 78.688 0 L 78.688 2.571 A 1.767 1.767 0 0 1 79.355 2.053 A 1.832 1.832 0 0 1 80.095 1.907 A 1.905 1.905 0 0 1 80.728 2.004 Q 81.57 2.3 81.613 3.506 A 3.668 3.668 0 0 1 81.615 3.608 L 81.615 6.75 L 80.802 6.75 L 80.802 3.604 A 1.837 1.837 0 0 0 80.78 3.324 Q 80.73 3.017 80.567 2.843 Q 80.381 2.645 80.028 2.606 A 1.66 1.66 0 0 0 79.849 2.597 A 1.253 1.253 0 0 0 79.434 2.664 A 1.123 1.123 0 0 0 79.154 2.808 A 1.432 1.432 0 0 0 78.688 3.362 L 78.688 6.75 L 77.875 6.75 L 77.875 0 L 78.688 0 Z M 75.867 2.522 L 75.907 1.995 L 76.649 1.995 L 76.649 6.636 A 2.511 2.511 0 0 1 76.579 7.249 A 1.738 1.738 0 0 1 76.102 8.09 A 1.834 1.834 0 0 1 75.172 8.57 A 2.671 2.671 0 0 1 74.632 8.622 A 2.446 2.446 0 0 1 73.626 8.402 A 2.003 2.003 0 0 1 73.216 8.161 A 1.563 1.563 0 0 1 72.875 7.8 L 73.296 7.313 A 1.889 1.889 0 0 0 73.731 7.712 A 1.514 1.514 0 0 0 74.575 7.958 A 1.695 1.695 0 0 0 74.952 7.919 Q 75.221 7.858 75.415 7.702 A 1.037 1.037 0 0 0 75.5 7.625 A 1.09 1.09 0 0 0 75.777 7.132 Q 75.824 6.959 75.831 6.752 A 2.134 2.134 0 0 0 75.832 6.684 L 75.832 6.275 A 1.601 1.601 0 0 1 74.78 6.821 A 2.279 2.279 0 0 1 74.5 6.838 A 1.672 1.672 0 0 1 73.745 6.67 Q 73.423 6.51 73.174 6.197 A 2.14 2.14 0 0 1 73.149 6.166 A 2.316 2.316 0 0 1 72.766 5.386 Q 72.633 4.922 72.633 4.333 Q 72.633 3.472 72.941 2.884 A 2.096 2.096 0 0 1 73.147 2.564 Q 73.661 1.907 74.509 1.907 A 1.971 1.971 0 0 1 75.108 1.994 A 1.55 1.55 0 0 1 75.867 2.522 Z M 14.959 3.393 L 14.142 3.393 Q 14.142 3.059 13.858 2.817 Q 13.575 2.575 13.144 2.575 Q 12.7 2.575 12.45 2.769 A 0.653 0.653 0 0 0 12.275 2.967 Q 12.202 3.098 12.199 3.263 A 0.771 0.771 0 0 0 12.199 3.274 A 0.588 0.588 0 0 0 12.229 3.467 A 0.48 0.48 0 0 0 12.432 3.718 A 1.093 1.093 0 0 0 12.582 3.796 Q 12.747 3.868 13.002 3.937 A 6.581 6.581 0 0 0 13.274 4.003 A 6.318 6.318 0 0 1 13.681 4.108 Q 14.018 4.208 14.26 4.329 A 1.901 1.901 0 0 1 14.516 4.481 Q 14.653 4.579 14.75 4.692 A 1.06 1.06 0 0 1 14.821 4.783 A 1.024 1.024 0 0 1 14.983 5.191 A 1.388 1.388 0 0 1 15.003 5.432 Q 15.003 6.069 14.493 6.453 Q 14.011 6.817 13.257 6.837 A 3.337 3.337 0 0 1 13.17 6.838 A 2.746 2.746 0 0 1 12.636 6.788 A 2.124 2.124 0 0 1 12.16 6.636 A 1.771 1.771 0 0 1 11.726 6.358 A 1.54 1.54 0 0 1 11.472 6.071 Q 11.224 5.708 11.224 5.287 L 12.037 5.287 A 0.932 0.932 0 0 0 12.11 5.612 A 0.827 0.827 0 0 0 12.364 5.935 A 1.072 1.072 0 0 0 12.766 6.128 Q 12.921 6.167 13.102 6.173 A 2.013 2.013 0 0 0 13.17 6.174 A 1.863 1.863 0 0 0 13.466 6.152 Q 13.628 6.126 13.759 6.07 A 0.941 0.941 0 0 0 13.911 5.988 A 0.689 0.689 0 0 0 14.075 5.837 A 0.554 0.554 0 0 0 14.19 5.489 A 0.698 0.698 0 0 0 14.154 5.258 A 0.581 0.581 0 0 0 13.942 4.977 A 1.05 1.05 0 0 0 13.773 4.878 Q 13.584 4.788 13.289 4.712 A 5.392 5.392 0 0 0 13.076 4.663 A 6.342 6.342 0 0 1 12.715 4.575 Q 12.345 4.473 12.096 4.346 Q 11.797 4.194 11.627 3.994 A 1.017 1.017 0 0 1 11.56 3.907 Q 11.386 3.652 11.386 3.3 A 1.206 1.206 0 0 1 11.785 2.396 A 1.694 1.694 0 0 1 11.881 2.312 A 1.752 1.752 0 0 1 12.664 1.952 A 2.471 2.471 0 0 1 13.144 1.907 A 2.559 2.559 0 0 1 13.708 1.966 A 1.757 1.757 0 0 1 14.456 2.325 Q 14.959 2.742 14.959 3.393 Z M 41.502 1.995 L 42.271 1.995 L 42.297 2.593 Q 42.834 1.918 43.694 1.907 A 2.234 2.234 0 0 1 43.721 1.907 A 1.905 1.905 0 0 1 44.355 2.004 Q 45.197 2.3 45.24 3.506 A 3.668 3.668 0 0 1 45.242 3.608 L 45.242 6.75 L 44.429 6.75 L 44.429 3.604 A 1.837 1.837 0 0 0 44.406 3.324 Q 44.356 3.017 44.194 2.843 Q 44.008 2.645 43.654 2.606 A 1.66 1.66 0 0 0 43.475 2.597 A 1.253 1.253 0 0 0 43.061 2.664 A 1.123 1.123 0 0 0 42.781 2.808 A 1.432 1.432 0 0 0 42.315 3.362 L 42.315 6.75 L 41.502 6.75 L 41.502 1.995 Z M 23.572 4.395 L 23.572 4.333 A 3.762 3.762 0 0 1 23.639 3.602 Q 23.727 3.16 23.929 2.812 A 2.148 2.148 0 0 1 24.091 2.573 Q 24.609 1.907 25.449 1.907 A 1.964 1.964 0 0 1 26.047 1.994 A 1.559 1.559 0 0 1 26.771 2.479 L 26.771 0 L 27.584 0 L 27.584 6.75 L 26.837 6.75 L 26.798 6.24 Q 26.31 6.838 25.44 6.838 A 1.6 1.6 0 0 1 24.219 6.31 A 2.078 2.078 0 0 1 24.093 6.161 A 2.405 2.405 0 0 1 23.668 5.255 Q 23.584 4.912 23.574 4.51 A 4.425 4.425 0 0 1 23.572 4.395 Z M 18.795 4.504 L 18.795 4.355 A 3.17 3.17 0 0 1 18.872 3.646 A 2.581 2.581 0 0 1 19.066 3.092 A 2.191 2.191 0 0 1 19.513 2.466 A 2.033 2.033 0 0 1 19.822 2.221 Q 20.307 1.907 20.874 1.907 A 2.254 2.254 0 0 1 21.487 1.986 A 1.639 1.639 0 0 1 22.315 2.518 Q 22.83 3.129 22.83 4.267 L 22.83 4.605 L 19.608 4.605 A 2.111 2.111 0 0 0 19.679 5.114 A 1.516 1.516 0 0 0 20.019 5.741 A 1.282 1.282 0 0 0 20.953 6.173 A 1.652 1.652 0 0 0 21.019 6.174 A 1.763 1.763 0 0 0 21.347 6.145 Q 21.571 6.103 21.749 5.999 A 1.827 1.827 0 0 0 22.257 5.551 A 2.068 2.068 0 0 0 22.271 5.533 L 22.768 5.919 A 1.926 1.926 0 0 1 21.368 6.811 A 2.749 2.749 0 0 1 20.975 6.838 A 2.394 2.394 0 0 1 20.224 6.725 A 1.974 1.974 0 0 1 19.402 6.203 Q 18.795 5.568 18.795 4.504 Z M 46.261 4.504 L 46.261 4.355 A 3.17 3.17 0 0 1 46.338 3.646 A 2.581 2.581 0 0 1 46.531 3.092 A 2.191 2.191 0 0 1 46.979 2.466 A 2.033 2.033 0 0 1 47.287 2.221 Q 47.773 1.907 48.34 1.907 A 2.254 2.254 0 0 1 48.953 1.986 A 1.639 1.639 0 0 1 49.781 2.518 Q 50.295 3.129 50.295 4.267 L 50.295 4.605 L 47.074 4.605 A 2.111 2.111 0 0 0 47.145 5.114 A 1.516 1.516 0 0 0 47.485 5.741 A 1.282 1.282 0 0 0 48.419 6.173 A 1.652 1.652 0 0 0 48.485 6.174 A 1.763 1.763 0 0 0 48.813 6.145 Q 49.037 6.103 49.214 5.999 A 1.827 1.827 0 0 0 49.723 5.551 A 2.068 2.068 0 0 0 49.737 5.533 L 50.234 5.919 A 1.926 1.926 0 0 1 48.834 6.811 A 2.749 2.749 0 0 1 48.441 6.838 A 2.394 2.394 0 0 1 47.69 6.725 A 1.974 1.974 0 0 1 46.868 6.203 Q 46.261 5.568 46.261 4.504 Z M 66.775 0.352 L 66.775 6.06 L 69.807 6.06 L 69.807 6.75 L 65.927 6.75 L 65.927 0.352 L 66.775 0.352 Z M 56.813 0.352 L 56.813 4.601 L 57.7 4.601 L 57.7 5.265 L 56.813 5.265 L 56.813 6.75 L 55.995 6.75 L 55.995 5.265 L 53.082 5.265 L 53.082 4.786 L 55.947 0.352 L 56.813 0.352 Z M 62.211 2.592 A 1.544 1.544 0 0 0 62.314 2.021 A 2.226 2.226 0 0 0 62.293 1.707 A 1.566 1.566 0 0 0 61.794 0.738 A 1.754 1.754 0 0 0 61.028 0.333 A 2.443 2.443 0 0 0 60.429 0.264 A 2.539 2.539 0 0 0 59.92 0.312 A 1.767 1.767 0 0 0 59.063 0.738 Q 58.544 1.213 58.544 2.021 A 1.808 1.808 0 0 0 58.544 2.058 A 1.499 1.499 0 0 0 58.79 2.87 A 1.626 1.626 0 0 0 58.952 3.077 A 1.726 1.726 0 0 0 59.462 3.454 A 2.119 2.119 0 0 0 59.363 3.5 A 1.738 1.738 0 0 0 58.678 4.087 A 1.629 1.629 0 0 0 58.395 5.023 A 2.272 2.272 0 0 0 58.404 5.237 A 1.63 1.63 0 0 0 58.95 6.344 A 1.895 1.895 0 0 0 59.801 6.771 A 2.797 2.797 0 0 0 60.429 6.838 A 2.796 2.796 0 0 0 61.028 6.777 A 1.925 1.925 0 0 0 61.904 6.346 A 1.578 1.578 0 0 0 62.378 5.62 A 1.989 1.989 0 0 0 62.464 5.023 A 1.581 1.581 0 0 0 62.172 4.087 Q 61.879 3.674 61.378 3.458 Q 61.809 3.248 62.062 2.874 A 1.449 1.449 0 0 0 62.211 2.592 Z M 16.352 0.844 L 17.165 0.844 L 17.165 1.995 L 18.053 1.995 L 18.053 2.624 L 17.165 2.624 L 17.165 5.572 Q 17.165 5.858 17.284 6.001 Q 17.402 6.144 17.688 6.144 A 1.046 1.046 0 0 0 17.786 6.138 Q 17.888 6.129 18.028 6.101 A 4.024 4.024 0 0 0 18.075 6.091 L 18.075 6.75 A 2.463 2.463 0 0 1 17.642 6.829 A 2.157 2.157 0 0 1 17.451 6.838 Q 17.004 6.838 16.737 6.616 A 0.856 0.856 0 0 1 16.629 6.508 Q 16.401 6.238 16.361 5.78 A 2.351 2.351 0 0 1 16.352 5.572 L 16.352 2.624 L 15.486 2.624 L 15.486 1.995 L 16.352 1.995 L 16.352 0.844 Z M 83.123 0.844 L 83.936 0.844 L 83.936 1.995 L 84.823 1.995 L 84.823 2.624 L 83.936 2.624 L 83.936 5.572 Q 83.936 5.858 84.054 6.001 Q 84.173 6.144 84.458 6.144 A 1.046 1.046 0 0 0 84.556 6.138 Q 84.659 6.129 84.798 6.101 A 4.024 4.024 0 0 0 84.845 6.091 L 84.845 6.75 A 2.463 2.463 0 0 1 84.412 6.829 A 2.157 2.157 0 0 1 84.221 6.838 Q 83.774 6.838 83.507 6.616 A 0.856 0.856 0 0 1 83.399 6.508 Q 83.172 6.238 83.131 5.78 A 2.351 2.351 0 0 1 83.123 5.572 L 83.123 2.624 L 82.257 2.624 L 82.257 1.995 L 83.123 1.995 L 83.123 0.844 Z M 6.073 4.386 L 6.073 4.329 A 3.057 3.057 0 0 1 6.16 3.587 A 2.573 2.573 0 0 1 6.348 3.072 A 2.16 2.16 0 0 1 6.763 2.486 A 1.957 1.957 0 0 1 7.113 2.21 A 2.036 2.036 0 0 1 8.057 1.913 A 2.491 2.491 0 0 1 8.231 1.907 A 2.277 2.277 0 0 1 8.984 2.027 A 1.937 1.937 0 0 1 9.802 2.58 A 2.29 2.29 0 0 1 10.321 3.608 A 3.373 3.373 0 0 1 10.402 4.368 L 10.402 4.425 A 3.114 3.114 0 0 1 10.322 5.142 A 2.577 2.577 0 0 1 10.136 5.671 A 2.056 2.056 0 0 1 9.609 6.361 A 2.001 2.001 0 0 1 9.376 6.53 A 2.045 2.045 0 0 1 8.456 6.829 A 2.529 2.529 0 0 1 8.24 6.838 A 2.262 2.262 0 0 1 7.489 6.718 A 1.938 1.938 0 0 1 6.673 6.166 A 2.297 2.297 0 0 1 6.147 5.111 A 3.357 3.357 0 0 1 6.073 4.386 Z M 36.154 4.386 L 36.154 4.329 A 3.057 3.057 0 0 1 36.241 3.587 A 2.573 2.573 0 0 1 36.428 3.072 A 2.16 2.16 0 0 1 36.843 2.486 A 1.957 1.957 0 0 1 37.193 2.21 A 2.036 2.036 0 0 1 38.138 1.913 A 2.491 2.491 0 0 1 38.312 1.907 A 2.277 2.277 0 0 1 39.065 2.027 A 1.937 1.937 0 0 1 39.883 2.58 A 2.29 2.29 0 0 1 40.402 3.608 A 3.373 3.373 0 0 1 40.482 4.368 L 40.482 4.425 A 3.114 3.114 0 0 1 40.403 5.142 A 2.577 2.577 0 0 1 40.217 5.671 A 2.056 2.056 0 0 1 39.689 6.361 A 2.001 2.001 0 0 1 39.456 6.53 A 2.045 2.045 0 0 1 38.537 6.829 A 2.529 2.529 0 0 1 38.32 6.838 A 2.262 2.262 0 0 1 37.57 6.718 A 1.938 1.938 0 0 1 36.754 6.166 A 2.297 2.297 0 0 1 36.228 5.111 A 3.357 3.357 0 0 1 36.154 4.386 Z M 71.525 1.995 L 71.525 6.75 L 70.712 6.75 L 70.712 1.995 L 71.525 1.995 Z M 6.891 4.425 A 2.772 2.772 0 0 0 6.938 4.954 Q 6.998 5.264 7.136 5.51 A 1.545 1.545 0 0 0 7.258 5.695 Q 7.625 6.174 8.24 6.174 A 1.269 1.269 0 0 0 8.729 6.083 Q 9.009 5.967 9.211 5.706 A 1.471 1.471 0 0 0 9.224 5.689 A 1.648 1.648 0 0 0 9.479 5.171 Q 9.548 4.945 9.573 4.672 A 3.655 3.655 0 0 0 9.589 4.329 A 2.687 2.687 0 0 0 9.538 3.789 Q 9.47 3.459 9.313 3.2 A 1.586 1.586 0 0 0 9.218 3.061 A 1.231 1.231 0 0 0 8.802 2.705 Q 8.549 2.575 8.231 2.575 Q 7.641 2.575 7.275 3.035 A 1.515 1.515 0 0 0 7.26 3.054 A 1.589 1.589 0 0 0 7.008 3.552 Q 6.938 3.772 6.91 4.039 A 3.676 3.676 0 0 0 6.891 4.425 Z M 36.971 4.425 A 2.772 2.772 0 0 0 37.019 4.954 Q 37.079 5.264 37.216 5.51 A 1.545 1.545 0 0 0 37.338 5.695 Q 37.705 6.174 38.32 6.174 A 1.269 1.269 0 0 0 38.81 6.083 Q 39.089 5.967 39.292 5.706 A 1.471 1.471 0 0 0 39.305 5.689 A 1.648 1.648 0 0 0 39.56 5.171 Q 39.628 4.945 39.654 4.672 A 3.655 3.655 0 0 0 39.669 4.329 A 2.687 2.687 0 0 0 39.618 3.789 Q 39.551 3.459 39.393 3.2 A 1.586 1.586 0 0 0 39.298 3.061 A 1.231 1.231 0 0 0 38.883 2.705 Q 38.63 2.575 38.312 2.575 Q 37.722 2.575 37.355 3.035 A 1.515 1.515 0 0 0 37.34 3.054 A 1.589 1.589 0 0 0 37.088 3.552 Q 37.019 3.772 36.991 4.039 A 3.676 3.676 0 0 0 36.971 4.425 Z M 26.771 5.454 L 26.771 3.27 A 1.375 1.375 0 0 0 26.46 2.874 Q 26.136 2.597 25.651 2.597 A 1.238 1.238 0 0 0 25.224 2.668 A 1.068 1.068 0 0 0 24.719 3.059 A 1.51 1.51 0 0 0 24.51 3.484 Q 24.444 3.689 24.413 3.939 A 3.955 3.955 0 0 0 24.385 4.425 A 3.162 3.162 0 0 0 24.421 4.918 Q 24.462 5.178 24.551 5.389 A 1.474 1.474 0 0 0 24.719 5.691 A 1.06 1.06 0 0 0 25.482 6.139 A 1.391 1.391 0 0 0 25.642 6.148 Q 26.416 6.148 26.771 5.454 Z M 75.832 5.449 L 75.832 3.278 A 1.439 1.439 0 0 0 75.531 2.891 Q 75.227 2.62 74.787 2.599 A 1.578 1.578 0 0 0 74.711 2.597 Q 74.12 2.597 73.786 3.056 A 1.51 1.51 0 0 0 73.575 3.484 Q 73.509 3.689 73.478 3.939 A 3.955 3.955 0 0 0 73.45 4.425 Q 73.45 5.229 73.78 5.689 Q 74.109 6.148 74.703 6.148 A 1.32 1.32 0 0 0 75.212 6.054 Q 75.604 5.891 75.832 5.449 Z M 55.898 1.639 L 54.004 4.601 L 55.995 4.601 L 55.995 1.463 L 55.898 1.639 Z M 61.651 5.005 A 1.375 1.375 0 0 0 61.591 4.592 A 1.109 1.109 0 0 0 61.31 4.131 A 1.148 1.148 0 0 0 60.639 3.807 A 1.593 1.593 0 0 0 60.42 3.792 A 1.466 1.466 0 0 0 60.032 3.841 A 1.086 1.086 0 0 0 59.539 4.126 A 1.123 1.123 0 0 0 59.226 4.762 A 1.572 1.572 0 0 0 59.208 5.005 A 1.48 1.48 0 0 0 59.249 5.367 A 1.019 1.019 0 0 0 59.531 5.862 Q 59.837 6.158 60.37 6.173 A 2.053 2.053 0 0 0 60.429 6.174 Q 60.923 6.174 61.233 5.94 A 1.018 1.018 0 0 0 61.326 5.86 A 1.041 1.041 0 0 0 61.625 5.292 A 1.518 1.518 0 0 0 61.651 5.005 Z M 60.429 0.932 A 1.259 1.259 0 0 0 60.076 0.979 A 0.973 0.973 0 0 0 59.654 1.228 Q 59.357 1.525 59.357 2.035 A 1.325 1.325 0 0 0 59.402 2.387 A 0.994 0.994 0 0 0 59.649 2.823 A 0.974 0.974 0 0 0 60.211 3.108 A 1.382 1.382 0 0 0 60.429 3.125 A 1.279 1.279 0 0 0 60.774 3.08 A 0.952 0.952 0 0 0 61.209 2.823 A 1.018 1.018 0 0 0 61.484 2.26 A 1.426 1.426 0 0 0 61.501 2.035 A 1.282 1.282 0 0 0 61.451 1.668 A 1.013 1.013 0 0 0 61.198 1.239 Q 60.895 0.932 60.429 0.932 Z M 19.635 3.938 L 22.017 3.938 L 22.017 3.876 Q 21.991 3.417 21.82 3.111 A 1.13 1.13 0 0 0 21.683 2.916 A 0.983 0.983 0 0 0 21.028 2.584 A 1.39 1.39 0 0 0 20.874 2.575 A 1.106 1.106 0 0 0 20.352 2.698 A 1.14 1.14 0 0 0 20.048 2.933 A 1.417 1.417 0 0 0 19.771 3.379 Q 19.698 3.563 19.658 3.785 A 2.741 2.741 0 0 0 19.635 3.938 Z M 47.101 3.938 L 49.482 3.938 L 49.482 3.876 Q 49.456 3.417 49.286 3.111 A 1.13 1.13 0 0 0 49.148 2.916 A 0.983 0.983 0 0 0 48.494 2.584 A 1.39 1.39 0 0 0 48.34 2.575 A 1.106 1.106 0 0 0 47.817 2.698 A 1.14 1.14 0 0 0 47.514 2.933 A 1.417 1.417 0 0 0 47.237 3.379 Q 47.163 3.563 47.123 3.785 A 2.741 2.741 0 0 0 47.101 3.938 Z M 70.646 0.734 Q 70.646 0.536 70.767 0.4 Q 70.879 0.274 71.091 0.264 A 0.783 0.783 0 0 1 71.125 0.264 Q 71.363 0.264 71.486 0.4 A 0.474 0.474 0 0 1 71.608 0.703 A 0.614 0.614 0 0 1 71.609 0.734 A 0.523 0.523 0 0 1 71.584 0.9 A 0.442 0.442 0 0 1 71.486 1.063 Q 71.373 1.184 71.165 1.194 A 0.803 0.803 0 0 1 71.125 1.195 Q 70.953 1.195 70.842 1.126 A 0.362 0.362 0 0 1 70.767 1.063 A 0.456 0.456 0 0 1 70.649 0.788 A 0.605 0.605 0 0 1 70.646 0.734 Z" vector-effect="non-scaling-stroke"/></g>
</svgversion="1.0" encoding="UTF-8"?>
<svg width="48px" height="48px" viewBox="0 0 48 48" version="1.1" xmlns="http://www.w3.org/2000/svg" xmlns:xlink="http://www.w3.org/1999/xlink">
    <title>Icon-Resource/Networking-and-Content-Delivery/Res_AWS-Amazon-Route-53-Hosted-Zone_48_Light</title>
    <g id="Icon-Resource/Networking-and-Content-Delivery/Res_AWS-Amazon-Route-53-Hosted-Zone_48" stroke="none" stroke-width="1" fill="none" fill-rule="evenodd">
        <path transform="translate(0vw, 0vh), scale(.65)" d="M33.4488,39.3643 C28.8848,40.1843 25.0338,42.5853 23.5848,43.5833 C22.1358,42.5853 18.2848,40.1843 13.7198,39.3643 C11.4398,38.9553 3.9998,37.1363 3.9998,30.9253 C3.9998,28.3293 4.9828,26.6353 6.0238,24.8433 C7.0038,23.1543 8.0158,21.4103 8.0158,19.0203 C8.0158,15.4343 6.0408,12.8533 4.9278,11.6843 C6.0608,10.3063 8.5278,7.2973 9.8918,5.5523 C11.9708,7.4423 14.3708,8.4703 16.7468,8.4703 C19.3928,8.4703 21.5918,7.4293 23.5848,5.2123 C25.5768,7.4293 27.7748,8.4703 30.4228,8.4703 C32.7988,8.4703 35.1968,7.4423 37.2758,5.5523 C38.6398,7.2963 41.1068,10.3063 42.2408,11.6843 C41.1278,12.8533 39.1518,15.4343 39.1518,19.0203 C39.1518,21.4103 40.1648,23.1543 41.1438,24.8433 C42.1848,26.6353 43.1688,28.3293 43.1688,30.9253 C43.1688,37.1363 35.7288,38.9553 33.4488,39.3643 M42.8748,23.8383 C41.9498,22.2463 41.1518,20.8713 41.1518,19.0203 C41.1518,15.1103 44.2038,12.5673 44.2328,12.5443 L45.0178,11.9093 L44.3758,11.1303 C44.3248,11.0693 39.3318,5.0173 38.1898,3.4543 L37.4768,2.4783 L36.6518,3.3613 C34.7758,5.3663 32.5638,6.4703 30.4228,6.4703 C28.0598,6.4703 26.1968,5.4123 24.3788,3.0373 L23.5848,2.0003 L22.7908,3.0363 C20.9718,5.4113 19.1078,6.4703 16.7468,6.4703 C14.6038,6.4703 12.3918,5.3663 10.5158,3.3613 L9.6898,2.4773 L8.9778,3.4553 C7.8378,5.0173 2.8448,11.0693 2.7938,11.1303 L2.1508,11.9093 L2.9358,12.5443 C2.9678,12.5693 6.0158,15.0803 6.0158,19.0203 C6.0158,20.8713 5.2188,22.2463 4.2938,23.8383 C3.2188,25.6913 1.9998,27.7913 1.9998,30.9253 C1.9998,36.1653 6.2488,40.0553 13.3668,41.3333 C18.5718,42.2673 22.9318,45.5733 22.9758,45.6063 L23.5858,46.0723 L24.1928,45.6063 C24.2368,45.5733 28.5968,42.2673 33.8028,41.3333 C40.9198,40.0553 45.1688,36.1653 45.1688,30.9253 C45.1688,27.7913 43.9498,25.6913 42.8748,23.8383" id="AWS-Amazon-Route-53-Hosted-zone_Resource-Icon_dark-bg" fill="#000000"></path>
    </g><g id="svgGroup" stroke-linecap="round" fill-rule="evenodd" font-size="9pt" stroke="#000" stroke-width="0.25mm" fill="#000" style="stroke:#000;stroke-width:0.25mm;fill:#000"><path d="M 26.389 3.445 L 25.739 3.278 L 26.064 0.088 L 29.342 0.088 L 29.342 0.839 L 26.754 0.839 L 26.561 2.584 A 2.014 2.014 0 0 1 27.445 2.314 A 2.459 2.459 0 0 1 27.628 2.307 A 2.137 2.137 0 0 1 28.245 2.392 A 1.65 1.65 0 0 1 29.017 2.885 Q 29.531 3.463 29.531 4.447 A 2.953 2.953 0 0 1 29.465 5.091 Q 29.344 5.636 28.997 6.005 A 1.745 1.745 0 0 1 28.088 6.513 A 2.621 2.621 0 0 1 27.505 6.574 A 2.504 2.504 0 0 1 26.89 6.503 A 1.827 1.827 0 0 1 26.121 6.104 A 1.753 1.753 0 0 1 25.579 5.208 A 2.458 2.458 0 0 1 25.51 4.803 L 26.279 4.803 A 1.8 1.8 0 0 0 26.359 5.149 Q 26.43 5.353 26.548 5.502 A 0.994 0.994 0 0 0 26.67 5.632 Q 26.987 5.911 27.505 5.911 A 1.335 1.335 0 0 0 27.896 5.856 A 1.029 1.029 0 0 0 28.395 5.524 Q 28.677 5.187 28.713 4.627 A 2.644 2.644 0 0 0 28.718 4.456 Q 28.718 3.815 28.369 3.426 A 1.154 1.154 0 0 0 27.589 3.044 A 1.602 1.602 0 0 0 27.439 3.037 A 1.968 1.968 0 0 0 27.115 3.062 Q 26.808 3.113 26.604 3.27 L 26.389 3.445 Z M 31.601 3.555 L 31.601 2.892 L 32.212 2.892 Q 32.67 2.885 32.972 2.697 A 1.045 1.045 0 0 0 33.117 2.588 A 0.97 0.97 0 0 0 33.437 1.961 A 1.373 1.373 0 0 0 33.447 1.793 A 1.626 1.626 0 0 0 33.391 1.348 Q 33.249 0.849 32.741 0.716 A 1.645 1.645 0 0 0 32.326 0.668 A 1.495 1.495 0 0 0 31.964 0.709 A 1.044 1.044 0 0 0 31.485 0.969 A 1.004 1.004 0 0 0 31.182 1.58 A 1.405 1.405 0 0 0 31.17 1.767 L 30.357 1.767 A 1.698 1.698 0 0 1 30.512 1.036 A 1.68 1.68 0 0 1 30.913 0.503 A 1.924 1.924 0 0 1 31.966 0.024 A 2.615 2.615 0 0 1 32.326 0 A 2.758 2.758 0 0 1 32.902 0.057 Q 33.27 0.135 33.548 0.323 A 1.593 1.593 0 0 1 33.746 0.479 A 1.57 1.57 0 0 1 34.212 1.326 A 2.336 2.336 0 0 1 34.26 1.811 A 1.332 1.332 0 0 1 34.108 2.422 A 1.725 1.725 0 0 1 33.99 2.619 A 1.624 1.624 0 0 1 33.29 3.188 A 1.952 1.952 0 0 1 33.253 3.204 A 1.81 1.81 0 0 1 33.689 3.404 A 1.44 1.44 0 0 1 34.069 3.757 Q 34.356 4.144 34.356 4.702 Q 34.356 5.564 33.794 6.069 A 1.935 1.935 0 0 1 32.837 6.529 A 2.738 2.738 0 0 1 32.331 6.574 A 2.716 2.716 0 0 1 31.684 6.501 A 1.936 1.936 0 0 1 30.865 6.086 Q 30.3 5.599 30.3 4.799 L 31.118 4.799 A 1.255 1.255 0 0 0 31.168 5.163 A 0.978 0.978 0 0 0 31.447 5.607 A 1.113 1.113 0 0 0 31.962 5.872 A 1.643 1.643 0 0 0 32.331 5.911 Q 32.919 5.911 33.231 5.603 Q 33.519 5.32 33.542 4.809 A 2.011 2.011 0 0 0 33.543 4.72 A 1.451 1.451 0 0 0 33.504 4.37 A 0.962 0.962 0 0 0 33.201 3.863 A 1.13 1.13 0 0 0 32.813 3.646 Q 32.555 3.56 32.212 3.555 L 31.601 3.555 Z M 3.74 6.486 L 2.351 3.898 L 0.848 3.898 L 0.848 6.486 L 0 6.486 L 0 0.088 L 2.118 0.088 A 3.809 3.809 0 0 1 2.76 0.138 Q 3.102 0.197 3.376 0.324 A 1.789 1.789 0 0 1 3.781 0.58 A 1.588 1.588 0 0 1 4.307 1.469 A 2.453 2.453 0 0 1 4.364 2.013 A 1.864 1.864 0 0 1 4.273 2.604 A 1.64 1.64 0 0 1 4.041 3.054 A 1.849 1.849 0 0 1 3.382 3.611 A 2.342 2.342 0 0 1 3.142 3.718 L 4.645 6.434 L 4.645 6.486 L 3.74 6.486 Z M 13.504 6.486 L 13.487 6.016 A 1.526 1.526 0 0 1 12.661 6.511 Q 12.41 6.572 12.113 6.574 A 2.996 2.996 0 0 1 12.094 6.574 A 2.086 2.086 0 0 1 11.634 6.527 Q 11.203 6.429 10.936 6.133 A 1.41 1.41 0 0 1 10.653 5.635 Q 10.536 5.292 10.534 4.825 L 10.534 1.732 L 11.347 1.732 L 11.347 4.803 Q 11.347 5.773 12.054 5.873 A 1.229 1.229 0 0 0 12.226 5.884 A 1.927 1.927 0 0 0 12.676 5.835 Q 13.239 5.7 13.465 5.19 L 13.465 1.732 L 14.278 1.732 L 14.278 6.486 L 13.504 6.486 Z M 18.246 4.241 L 18.246 4.091 A 3.17 3.17 0 0 1 18.322 3.382 A 2.581 2.581 0 0 1 18.516 2.828 A 2.191 2.191 0 0 1 18.964 2.202 A 2.033 2.033 0 0 1 19.272 1.958 Q 19.758 1.644 20.325 1.644 A 2.254 2.254 0 0 1 20.938 1.723 A 1.639 1.639 0 0 1 21.766 2.254 Q 22.28 2.865 22.28 4.003 L 22.28 4.342 L 19.059 4.342 A 2.111 2.111 0 0 0 19.13 4.85 A 1.516 1.516 0 0 0 19.47 5.478 A 1.282 1.282 0 0 0 20.404 5.909 A 1.652 1.652 0 0 0 20.47 5.911 A 1.763 1.763 0 0 0 20.798 5.882 Q 21.022 5.839 21.199 5.735 A 1.827 1.827 0 0 0 21.708 5.287 A 2.068 2.068 0 0 0 21.722 5.269 L 22.219 5.656 A 1.926 1.926 0 0 1 20.819 6.547 A 2.749 2.749 0 0 1 20.426 6.574 A 2.394 2.394 0 0 1 19.675 6.461 A 1.974 1.974 0 0 1 18.853 5.939 Q 18.246 5.304 18.246 4.241 Z M 15.803 0.58 L 16.616 0.58 L 16.616 1.732 L 17.503 1.732 L 17.503 2.36 L 16.616 2.36 L 16.616 5.309 Q 16.616 5.594 16.734 5.737 Q 16.853 5.88 17.139 5.88 A 1.046 1.046 0 0 0 17.236 5.875 Q 17.339 5.865 17.479 5.837 A 4.024 4.024 0 0 0 17.525 5.827 L 17.525 6.486 A 2.463 2.463 0 0 1 17.093 6.566 A 2.157 2.157 0 0 1 16.901 6.574 Q 16.454 6.574 16.188 6.352 A 0.856 0.856 0 0 1 16.08 6.245 Q 15.852 5.974 15.812 5.516 A 2.351 2.351 0 0 1 15.803 5.309 L 15.803 2.36 L 14.937 2.36 L 14.937 1.732 L 15.803 1.732 L 15.803 0.58 Z M 5.203 4.122 L 5.203 4.065 A 3.057 3.057 0 0 1 5.29 3.323 A 2.573 2.573 0 0 1 5.478 2.808 A 2.16 2.16 0 0 1 5.892 2.223 A 1.957 1.957 0 0 1 6.242 1.947 A 2.036 2.036 0 0 1 7.187 1.65 A 2.491 2.491 0 0 1 7.361 1.644 A 2.277 2.277 0 0 1 8.114 1.763 A 1.937 1.937 0 0 1 8.932 2.316 A 2.29 2.29 0 0 1 9.451 3.345 A 3.373 3.373 0 0 1 9.532 4.105 L 9.532 4.162 A 3.114 3.114 0 0 1 9.452 4.878 A 2.577 2.577 0 0 1 9.266 5.408 A 2.056 2.056 0 0 1 8.739 6.098 A 2.001 2.001 0 0 1 8.506 6.267 A 2.045 2.045 0 0 1 7.586 6.565 A 2.529 2.529 0 0 1 7.37 6.574 A 2.262 2.262 0 0 1 6.619 6.455 A 1.938 1.938 0 0 1 5.803 5.902 A 2.297 2.297 0 0 1 5.277 4.847 A 3.357 3.357 0 0 1 5.203 4.122 Z M 6.021 4.162 A 2.772 2.772 0 0 0 6.068 4.69 Q 6.128 5.001 6.266 5.246 A 1.545 1.545 0 0 0 6.387 5.432 Q 6.754 5.911 7.37 5.911 A 1.269 1.269 0 0 0 7.859 5.819 Q 8.138 5.704 8.341 5.442 A 1.471 1.471 0 0 0 8.354 5.425 A 1.648 1.648 0 0 0 8.609 4.908 Q 8.678 4.681 8.703 4.409 A 3.655 3.655 0 0 0 8.719 4.065 A 2.687 2.687 0 0 0 8.668 3.525 Q 8.6 3.195 8.443 2.936 A 1.586 1.586 0 0 0 8.347 2.797 A 1.231 1.231 0 0 0 7.932 2.442 Q 7.679 2.312 7.361 2.312 Q 6.771 2.312 6.405 2.771 A 1.515 1.515 0 0 0 6.39 2.791 A 1.589 1.589 0 0 0 6.138 3.288 Q 6.068 3.509 6.04 3.775 A 3.676 3.676 0 0 0 6.021 4.162 Z M 0.848 0.782 L 0.848 3.208 L 2.145 3.208 Q 2.685 3.208 3.035 2.968 A 1.174 1.174 0 0 0 3.144 2.883 A 1.069 1.069 0 0 0 3.51 2.146 A 1.486 1.486 0 0 0 3.516 2.013 Q 3.516 1.47 3.22 1.159 A 1 1 0 0 0 3.162 1.103 Q 2.808 0.787 2.14 0.782 L 0.848 0.782 Z M 19.085 3.674 L 21.467 3.674 L 21.467 3.612 Q 21.441 3.153 21.271 2.848 A 1.13 1.13 0 0 0 21.133 2.652 A 0.983 0.983 0 0 0 20.479 2.32 A 1.39 1.39 0 0 0 20.325 2.312 A 1.106 1.106 0 0 0 19.802 2.435 A 1.14 1.14 0 0 0 19.499 2.67 A 1.417 1.417 0 0 0 19.222 3.116 Q 19.148 3.3 19.108 3.522 A 2.741 2.741 0 0 0 19.085 3.674 Z" vector-effect="non-scaling-stroke"/></g><g transform="translate(22.822, 64), scale(0.75)" id="svgGroup" stroke-linecap="round" fill-rule="evenodd" font-size="9pt" stroke="#000" stroke-width="0.25mm" fill="#000" style="stroke:#000;stroke-width:0.25mm;fill:#000"><path d="M 4.917 0.352 L 4.917 6.75 L 4.069 6.75 L 4.069 3.792 L 0.844 3.792 L 0.844 6.75 L 0 6.75 L 0 0.352 L 0.844 0.352 L 0.844 3.103 L 4.069 3.103 L 4.069 0.352 L 4.917 0.352 Z M 35.354 0.971 L 31.834 6.06 L 35.495 6.06 L 35.495 6.75 L 30.836 6.75 L 30.836 6.117 L 34.343 1.046 L 30.894 1.046 L 30.894 0.352 L 35.354 0.352 L 35.354 0.971 Z M 78.688 0 L 78.688 2.571 A 1.767 1.767 0 0 1 79.355 2.053 A 1.832 1.832 0 0 1 80.095 1.907 A 1.905 1.905 0 0 1 80.728 2.004 Q 81.57 2.3 81.613 3.506 A 3.668 3.668 0 0 1 81.615 3.608 L 81.615 6.75 L 80.802 6.75 L 80.802 3.604 A 1.837 1.837 0 0 0 80.78 3.324 Q 80.73 3.017 80.567 2.843 Q 80.381 2.645 80.028 2.606 A 1.66 1.66 0 0 0 79.849 2.597 A 1.253 1.253 0 0 0 79.434 2.664 A 1.123 1.123 0 0 0 79.154 2.808 A 1.432 1.432 0 0 0 78.688 3.362 L 78.688 6.75 L 77.875 6.75 L 77.875 0 L 78.688 0 Z M 75.867 2.522 L 75.907 1.995 L 76.649 1.995 L 76.649 6.636 A 2.511 2.511 0 0 1 76.579 7.249 A 1.738 1.738 0 0 1 76.102 8.09 A 1.834 1.834 0 0 1 75.172 8.57 A 2.671 2.671 0 0 1 74.632 8.622 A 2.446 2.446 0 0 1 73.626 8.402 A 2.003 2.003 0 0 1 73.216 8.161 A 1.563 1.563 0 0 1 72.875 7.8 L 73.296 7.313 A 1.889 1.889 0 0 0 73.731 7.712 A 1.514 1.514 0 0 0 74.575 7.958 A 1.695 1.695 0 0 0 74.952 7.919 Q 75.221 7.858 75.415 7.702 A 1.037 1.037 0 0 0 75.5 7.625 A 1.09 1.09 0 0 0 75.777 7.132 Q 75.824 6.959 75.831 6.752 A 2.134 2.134 0 0 0 75.832 6.684 L 75.832 6.275 A 1.601 1.601 0 0 1 74.78 6.821 A 2.279 2.279 0 0 1 74.5 6.838 A 1.672 1.672 0 0 1 73.745 6.67 Q 73.423 6.51 73.174 6.197 A 2.14 2.14 0 0 1 73.149 6.166 A 2.316 2.316 0 0 1 72.766 5.386 Q 72.633 4.922 72.633 4.333 Q 72.633 3.472 72.941 2.884 A 2.096 2.096 0 0 1 73.147 2.564 Q 73.661 1.907 74.509 1.907 A 1.971 1.971 0 0 1 75.108 1.994 A 1.55 1.55 0 0 1 75.867 2.522 Z M 14.959 3.393 L 14.142 3.393 Q 14.142 3.059 13.858 2.817 Q 13.575 2.575 13.144 2.575 Q 12.7 2.575 12.45 2.769 A 0.653 0.653 0 0 0 12.275 2.967 Q 12.202 3.098 12.199 3.263 A 0.771 0.771 0 0 0 12.199 3.274 A 0.588 0.588 0 0 0 12.229 3.467 A 0.48 0.48 0 0 0 12.432 3.718 A 1.093 1.093 0 0 0 12.582 3.796 Q 12.747 3.868 13.002 3.937 A 6.581 6.581 0 0 0 13.274 4.003 A 6.318 6.318 0 0 1 13.681 4.108 Q 14.018 4.208 14.26 4.329 A 1.901 1.901 0 0 1 14.516 4.481 Q 14.653 4.579 14.75 4.692 A 1.06 1.06 0 0 1 14.821 4.783 A 1.024 1.024 0 0 1 14.983 5.191 A 1.388 1.388 0 0 1 15.003 5.432 Q 15.003 6.069 14.493 6.453 Q 14.011 6.817 13.257 6.837 A 3.337 3.337 0 0 1 13.17 6.838 A 2.746 2.746 0 0 1 12.636 6.788 A 2.124 2.124 0 0 1 12.16 6.636 A 1.771 1.771 0 0 1 11.726 6.358 A 1.54 1.54 0 0 1 11.472 6.071 Q 11.224 5.708 11.224 5.287 L 12.037 5.287 A 0.932 0.932 0 0 0 12.11 5.612 A 0.827 0.827 0 0 0 12.364 5.935 A 1.072 1.072 0 0 0 12.766 6.128 Q 12.921 6.167 13.102 6.173 A 2.013 2.013 0 0 0 13.17 6.174 A 1.863 1.863 0 0 0 13.466 6.152 Q 13.628 6.126 13.759 6.07 A 0.941 0.941 0 0 0 13.911 5.988 A 0.689 0.689 0 0 0 14.075 5.837 A 0.554 0.554 0 0 0 14.19 5.489 A 0.698 0.698 0 0 0 14.154 5.258 A 0.581 0.581 0 0 0 13.942 4.977 A 1.05 1.05 0 0 0 13.773 4.878 Q 13.584 4.788 13.289 4.712 A 5.392 5.392 0 0 0 13.076 4.663 A 6.342 6.342 0 0 1 12.715 4.575 Q 12.345 4.473 12.096 4.346 Q 11.797 4.194 11.627 3.994 A 1.017 1.017 0 0 1 11.56 3.907 Q 11.386 3.652 11.386 3.3 A 1.206 1.206 0 0 1 11.785 2.396 A 1.694 1.694 0 0 1 11.881 2.312 A 1.752 1.752 0 0 1 12.664 1.952 A 2.471 2.471 0 0 1 13.144 1.907 A 2.559 2.559 0 0 1 13.708 1.966 A 1.757 1.757 0 0 1 14.456 2.325 Q 14.959 2.742 14.959 3.393 Z M 41.502 1.995 L 42.271 1.995 L 42.297 2.593 Q 42.834 1.918 43.694 1.907 A 2.234 2.234 0 0 1 43.721 1.907 A 1.905 1.905 0 0 1 44.355 2.004 Q 45.197 2.3 45.24 3.506 A 3.668 3.668 0 0 1 45.242 3.608 L 45.242 6.75 L 44.429 6.75 L 44.429 3.604 A 1.837 1.837 0 0 0 44.406 3.324 Q 44.356 3.017 44.194 2.843 Q 44.008 2.645 43.654 2.606 A 1.66 1.66 0 0 0 43.475 2.597 A 1.253 1.253 0 0 0 43.061 2.664 A 1.123 1.123 0 0 0 42.781 2.808 A 1.432 1.432 0 0 0 42.315 3.362 L 42.315 6.75 L 41.502 6.75 L 41.502 1.995 Z M 23.572 4.395 L 23.572 4.333 A 3.762 3.762 0 0 1 23.639 3.602 Q 23.727 3.16 23.929 2.812 A 2.148 2.148 0 0 1 24.091 2.573 Q 24.609 1.907 25.449 1.907 A 1.964 1.964 0 0 1 26.047 1.994 A 1.559 1.559 0 0 1 26.771 2.479 L 26.771 0 L 27.584 0 L 27.584 6.75 L 26.837 6.75 L 26.798 6.24 Q 26.31 6.838 25.44 6.838 A 1.6 1.6 0 0 1 24.219 6.31 A 2.078 2.078 0 0 1 24.093 6.161 A 2.405 2.405 0 0 1 23.668 5.255 Q 23.584 4.912 23.574 4.51 A 4.425 4.425 0 0 1 23.572 4.395 Z M 18.795 4.504 L 18.795 4.355 A 3.17 3.17 0 0 1 18.872 3.646 A 2.581 2.581 0 0 1 19.066 3.092 A 2.191 2.191 0 0 1 19.513 2.466 A 2.033 2.033 0 0 1 19.822 2.221 Q 20.307 1.907 20.874 1.907 A 2.254 2.254 0 0 1 21.487 1.986 A 1.639 1.639 0 0 1 22.315 2.518 Q 22.83 3.129 22.83 4.267 L 22.83 4.605 L 19.608 4.605 A 2.111 2.111 0 0 0 19.679 5.114 A 1.516 1.516 0 0 0 20.019 5.741 A 1.282 1.282 0 0 0 20.953 6.173 A 1.652 1.652 0 0 0 21.019 6.174 A 1.763 1.763 0 0 0 21.347 6.145 Q 21.571 6.103 21.749 5.999 A 1.827 1.827 0 0 0 22.257 5.551 A 2.068 2.068 0 0 0 22.271 5.533 L 22.768 5.919 A 1.926 1.926 0 0 1 21.368 6.811 A 2.749 2.749 0 0 1 20.975 6.838 A 2.394 2.394 0 0 1 20.224 6.725 A 1.974 1.974 0 0 1 19.402 6.203 Q 18.795 5.568 18.795 4.504 Z M 46.261 4.504 L 46.261 4.355 A 3.17 3.17 0 0 1 46.338 3.646 A 2.581 2.581 0 0 1 46.531 3.092 A 2.191 2.191 0 0 1 46.979 2.466 A 2.033 2.033 0 0 1 47.287 2.221 Q 47.773 1.907 48.34 1.907 A 2.254 2.254 0 0 1 48.953 1.986 A 1.639 1.639 0 0 1 49.781 2.518 Q 50.295 3.129 50.295 4.267 L 50.295 4.605 L 47.074 4.605 A 2.111 2.111 0 0 0 47.145 5.114 A 1.516 1.516 0 0 0 47.485 5.741 A 1.282 1.282 0 0 0 48.419 6.173 A 1.652 1.652 0 0 0 48.485 6.174 A 1.763 1.763 0 0 0 48.813 6.145 Q 49.037 6.103 49.214 5.999 A 1.827 1.827 0 0 0 49.723 5.551 A 2.068 2.068 0 0 0 49.737 5.533 L 50.234 5.919 A 1.926 1.926 0 0 1 48.834 6.811 A 2.749 2.749 0 0 1 48.441 6.838 A 2.394 2.394 0 0 1 47.69 6.725 A 1.974 1.974 0 0 1 46.868 6.203 Q 46.261 5.568 46.261 4.504 Z M 66.775 0.352 L 66.775 6.06 L 69.807 6.06 L 69.807 6.75 L 65.927 6.75 L 65.927 0.352 L 66.775 0.352 Z M 56.813 0.352 L 56.813 4.601 L 57.7 4.601 L 57.7 5.265 L 56.813 5.265 L 56.813 6.75 L 55.995 6.75 L 55.995 5.265 L 53.082 5.265 L 53.082 4.786 L 55.947 0.352 L 56.813 0.352 Z M 62.211 2.592 A 1.544 1.544 0 0 0 62.314 2.021 A 2.226 2.226 0 0 0 62.293 1.707 A 1.566 1.566 0 0 0 61.794 0.738 A 1.754 1.754 0 0 0 61.028 0.333 A 2.443 2.443 0 0 0 60.429 0.264 A 2.539 2.539 0 0 0 59.92 0.312 A 1.767 1.767 0 0 0 59.063 0.738 Q 58.544 1.213 58.544 2.021 A 1.808 1.808 0 0 0 58.544 2.058 A 1.499 1.499 0 0 0 58.79 2.87 A 1.626 1.626 0 0 0 58.952 3.077 A 1.726 1.726 0 0 0 59.462 3.454 A 2.119 2.119 0 0 0 59.363 3.5 A 1.738 1.738 0 0 0 58.678 4.087 A 1.629 1.629 0 0 0 58.395 5.023 A 2.272 2.272 0 0 0 58.404 5.237 A 1.63 1.63 0 0 0 58.95 6.344 A 1.895 1.895 0 0 0 59.801 6.771 A 2.797 2.797 0 0 0 60.429 6.838 A 2.796 2.796 0 0 0 61.028 6.777 A 1.925 1.925 0 0 0 61.904 6.346 A 1.578 1.578 0 0 0 62.378 5.62 A 1.989 1.989 0 0 0 62.464 5.023 A 1.581 1.581 0 0 0 62.172 4.087 Q 61.879 3.674 61.378 3.458 Q 61.809 3.248 62.062 2.874 A 1.449 1.449 0 0 0 62.211 2.592 Z M 16.352 0.844 L 17.165 0.844 L 17.165 1.995 L 18.053 1.995 L 18.053 2.624 L 17.165 2.624 L 17.165 5.572 Q 17.165 5.858 17.284 6.001 Q 17.402 6.144 17.688 6.144 A 1.046 1.046 0 0 0 17.786 6.138 Q 17.888 6.129 18.028 6.101 A 4.024 4.024 0 0 0 18.075 6.091 L 18.075 6.75 A 2.463 2.463 0 0 1 17.642 6.829 A 2.157 2.157 0 0 1 17.451 6.838 Q 17.004 6.838 16.737 6.616 A 0.856 0.856 0 0 1 16.629 6.508 Q 16.401 6.238 16.361 5.78 A 2.351 2.351 0 0 1 16.352 5.572 L 16.352 2.624 L 15.486 2.624 L 15.486 1.995 L 16.352 1.995 L 16.352 0.844 Z M 83.123 0.844 L 83.936 0.844 L 83.936 1.995 L 84.823 1.995 L 84.823 2.624 L 83.936 2.624 L 83.936 5.572 Q 83.936 5.858 84.054 6.001 Q 84.173 6.144 84.458 6.144 A 1.046 1.046 0 0 0 84.556 6.138 Q 84.659 6.129 84.798 6.101 A 4.024 4.024 0 0 0 84.845 6.091 L 84.845 6.75 A 2.463 2.463 0 0 1 84.412 6.829 A 2.157 2.157 0 0 1 84.221 6.838 Q 83.774 6.838 83.507 6.616 A 0.856 0.856 0 0 1 83.399 6.508 Q 83.172 6.238 83.131 5.78 A 2.351 2.351 0 0 1 83.123 5.572 L 83.123 2.624 L 82.257 2.624 L 82.257 1.995 L 83.123 1.995 L 83.123 0.844 Z M 6.073 4.386 L 6.073 4.329 A 3.057 3.057 0 0 1 6.16 3.587 A 2.573 2.573 0 0 1 6.348 3.072 A 2.16 2.16 0 0 1 6.763 2.486 A 1.957 1.957 0 0 1 7.113 2.21 A 2.036 2.036 0 0 1 8.057 1.913 A 2.491 2.491 0 0 1 8.231 1.907 A 2.277 2.277 0 0 1 8.984 2.027 A 1.937 1.937 0 0 1 9.802 2.58 A 2.29 2.29 0 0 1 10.321 3.608 A 3.373 3.373 0 0 1 10.402 4.368 L 10.402 4.425 A 3.114 3.114 0 0 1 10.322 5.142 A 2.577 2.577 0 0 1 10.136 5.671 A 2.056 2.056 0 0 1 9.609 6.361 A 2.001 2.001 0 0 1 9.376 6.53 A 2.045 2.045 0 0 1 8.456 6.829 A 2.529 2.529 0 0 1 8.24 6.838 A 2.262 2.262 0 0 1 7.489 6.718 A 1.938 1.938 0 0 1 6.673 6.166 A 2.297 2.297 0 0 1 6.147 5.111 A 3.357 3.357 0 0 1 6.073 4.386 Z M 36.154 4.386 L 36.154 4.329 A 3.057 3.057 0 0 1 36.241 3.587 A 2.573 2.573 0 0 1 36.428 3.072 A 2.16 2.16 0 0 1 36.843 2.486 A 1.957 1.957 0 0 1 37.193 2.21 A 2.036 2.036 0 0 1 38.138 1.913 A 2.491 2.491 0 0 1 38.312 1.907 A 2.277 2.277 0 0 1 39.065 2.027 A 1.937 1.937 0 0 1 39.883 2.58 A 2.29 2.29 0 0 1 40.402 3.608 A 3.373 3.373 0 0 1 40.482 4.368 L 40.482 4.425 A 3.114 3.114 0 0 1 40.403 5.142 A 2.577 2.577 0 0 1 40.217 5.671 A 2.056 2.056 0 0 1 39.689 6.361 A 2.001 2.001 0 0 1 39.456 6.53 A 2.045 2.045 0 0 1 38.537 6.829 A 2.529 2.529 0 0 1 38.32 6.838 A 2.262 2.262 0 0 1 37.57 6.718 A 1.938 1.938 0 0 1 36.754 6.166 A 2.297 2.297 0 0 1 36.228 5.111 A 3.357 3.357 0 0 1 36.154 4.386 Z M 71.525 1.995 L 71.525 6.75 L 70.712 6.75 L 70.712 1.995 L 71.525 1.995 Z M 6.891 4.425 A 2.772 2.772 0 0 0 6.938 4.954 Q 6.998 5.264 7.136 5.51 A 1.545 1.545 0 0 0 7.258 5.695 Q 7.625 6.174 8.24 6.174 A 1.269 1.269 0 0 0 8.729 6.083 Q 9.009 5.967 9.211 5.706 A 1.471 1.471 0 0 0 9.224 5.689 A 1.648 1.648 0 0 0 9.479 5.171 Q 9.548 4.945 9.573 4.672 A 3.655 3.655 0 0 0 9.589 4.329 A 2.687 2.687 0 0 0 9.538 3.789 Q 9.47 3.459 9.313 3.2 A 1.586 1.586 0 0 0 9.218 3.061 A 1.231 1.231 0 0 0 8.802 2.705 Q 8.549 2.575 8.231 2.575 Q 7.641 2.575 7.275 3.035 A 1.515 1.515 0 0 0 7.26 3.054 A 1.589 1.589 0 0 0 7.008 3.552 Q 6.938 3.772 6.91 4.039 A 3.676 3.676 0 0 0 6.891 4.425 Z M 36.971 4.425 A 2.772 2.772 0 0 0 37.019 4.954 Q 37.079 5.264 37.216 5.51 A 1.545 1.545 0 0 0 37.338 5.695 Q 37.705 6.174 38.32 6.174 A 1.269 1.269 0 0 0 38.81 6.083 Q 39.089 5.967 39.292 5.706 A 1.471 1.471 0 0 0 39.305 5.689 A 1.648 1.648 0 0 0 39.56 5.171 Q 39.628 4.945 39.654 4.672 A 3.655 3.655 0 0 0 39.669 4.329 A 2.687 2.687 0 0 0 39.618 3.789 Q 39.551 3.459 39.393 3.2 A 1.586 1.586 0 0 0 39.298 3.061 A 1.231 1.231 0 0 0 38.883 2.705 Q 38.63 2.575 38.312 2.575 Q 37.722 2.575 37.355 3.035 A 1.515 1.515 0 0 0 37.34 3.054 A 1.589 1.589 0 0 0 37.088 3.552 Q 37.019 3.772 36.991 4.039 A 3.676 3.676 0 0 0 36.971 4.425 Z M 26.771 5.454 L 26.771 3.27 A 1.375 1.375 0 0 0 26.46 2.874 Q 26.136 2.597 25.651 2.597 A 1.238 1.238 0 0 0 25.224 2.668 A 1.068 1.068 0 0 0 24.719 3.059 A 1.51 1.51 0 0 0 24.51 3.484 Q 24.444 3.689 24.413 3.939 A 3.955 3.955 0 0 0 24.385 4.425 A 3.162 3.162 0 0 0 24.421 4.918 Q 24.462 5.178 24.551 5.389 A 1.474 1.474 0 0 0 24.719 5.691 A 1.06 1.06 0 0 0 25.482 6.139 A 1.391 1.391 0 0 0 25.642 6.148 Q 26.416 6.148 26.771 5.454 Z M 75.832 5.449 L 75.832 3.278 A 1.439 1.439 0 0 0 75.531 2.891 Q 75.227 2.62 74.787 2.599 A 1.578 1.578 0 0 0 74.711 2.597 Q 74.12 2.597 73.786 3.056 A 1.51 1.51 0 0 0 73.575 3.484 Q 73.509 3.689 73.478 3.939 A 3.955 3.955 0 0 0 73.45 4.425 Q 73.45 5.229 73.78 5.689 Q 74.109 6.148 74.703 6.148 A 1.32 1.32 0 0 0 75.212 6.054 Q 75.604 5.891 75.832 5.449 Z M 55.898 1.639 L 54.004 4.601 L 55.995 4.601 L 55.995 1.463 L 55.898 1.639 Z M 61.651 5.005 A 1.375 1.375 0 0 0 61.591 4.592 A 1.109 1.109 0 0 0 61.31 4.131 A 1.148 1.148 0 0 0 60.639 3.807 A 1.593 1.593 0 0 0 60.42 3.792 A 1.466 1.466 0 0 0 60.032 3.841 A 1.086 1.086 0 0 0 59.539 4.126 A 1.123 1.123 0 0 0 59.226 4.762 A 1.572 1.572 0 0 0 59.208 5.005 A 1.48 1.48 0 0 0 59.249 5.367 A 1.019 1.019 0 0 0 59.531 5.862 Q 59.837 6.158 60.37 6.173 A 2.053 2.053 0 0 0 60.429 6.174 Q 60.923 6.174 61.233 5.94 A 1.018 1.018 0 0 0 61.326 5.86 A 1.041 1.041 0 0 0 61.625 5.292 A 1.518 1.518 0 0 0 61.651 5.005 Z M 60.429 0.932 A 1.259 1.259 0 0 0 60.076 0.979 A 0.973 0.973 0 0 0 59.654 1.228 Q 59.357 1.525 59.357 2.035 A 1.325 1.325 0 0 0 59.402 2.387 A 0.994 0.994 0 0 0 59.649 2.823 A 0.974 0.974 0 0 0 60.211 3.108 A 1.382 1.382 0 0 0 60.429 3.125 A 1.279 1.279 0 0 0 60.774 3.08 A 0.952 0.952 0 0 0 61.209 2.823 A 1.018 1.018 0 0 0 61.484 2.26 A 1.426 1.426 0 0 0 61.501 2.035 A 1.282 1.282 0 0 0 61.451 1.668 A 1.013 1.013 0 0 0 61.198 1.239 Q 60.895 0.932 60.429 0.932 Z M 19.635 3.938 L 22.017 3.938 L 22.017 3.876 Q 21.991 3.417 21.82 3.111 A 1.13 1.13 0 0 0 21.683 2.916 A 0.983 0.983 0 0 0 21.028 2.584 A 1.39 1.39 0 0 0 20.874 2.575 A 1.106 1.106 0 0 0 20.352 2.698 A 1.14 1.14 0 0 0 20.048 2.933 A 1.417 1.417 0 0 0 19.771 3.379 Q 19.698 3.563 19.658 3.785 A 2.741 2.741 0 0 0 19.635 3.938 Z M 47.101 3.938 L 49.482 3.938 L 49.482 3.876 Q 49.456 3.417 49.286 3.111 A 1.13 1.13 0 0 0 49.148 2.916 A 0.983 0.983 0 0 0 48.494 2.584 A 1.39 1.39 0 0 0 48.34 2.575 A 1.106 1.106 0 0 0 47.817 2.698 A 1.14 1.14 0 0 0 47.514 2.933 A 1.417 1.417 0 0 0 47.237 3.379 Q 47.163 3.563 47.123 3.785 A 2.741 2.741 0 0 0 47.101 3.938 Z M 70.646 0.734 Q 70.646 0.536 70.767 0.4 Q 70.879 0.274 71.091 0.264 A 0.783 0.783 0 0 1 71.125 0.264 Q 71.363 0.264 71.486 0.4 A 0.474 0.474 0 0 1 71.608 0.703 A 0.614 0.614 0 0 1 71.609 0.734 A 0.523 0.523 0 0 1 71.584 0.9 A 0.442 0.442 0 0 1 71.486 1.063 Q 71.373 1.184 71.165 1.194 A 0.803 0.803 0 0 1 71.125 1.195 Q 70.953 1.195 70.842 1.126 A 0.362 0.362 0 0 1 70.767 1.063 A 0.456 0.456 0 0 1 70.649 0.788 A 0.605 0.605 0 0 1 70.646 0.734 Z" vector-effect="non-scaling-stroke"/></g>
</svg>