<?xml version="1.0" encoding="UTF-8"?>
<svg width="48px" height="48px" viewBox="0 0 48 48" version="1.1" xmlns="http://www.w3.org/2000/svg" xmlns:xlink="http://www.w3.org/1999/xlink">
    <title>Icon-Resource/Networking-and-Content-Delivery/Res_AWS-Amazon-VPC_Peering-Connection_48_Light</title>
    <g id="Icon-Resource/Networking-and-Content-Delivery/Res_AWS-Amazon-VPC_Peering-Connection_48" stroke="none" stroke-width="1" fill="none" fill-rule="evenodd">
        <path transform="translate(0vw, 0vh), scale(.65)" d="M30.6055,25.6368 C30.6055,25.2538 30.6055,24.2358 28.9355,23.8938 C28.4915,23.8028 28.1645,23.4248 28.1375,22.9718 C28.0995,22.3148 27.8295,21.9068 27.4315,21.9068 C27.2485,21.9068 27.0725,22.0008 26.9485,22.1648 C26.7285,22.4588 26.3685,22.6078 26.0015,22.5548 C25.6375,22.4998 25.3335,22.2518 25.2085,21.9068 C25.0125,21.3658 24.7265,20.9008 24.3815,20.5608 C24.0655,20.2468 23.3415,19.6688 22.3165,19.6688 C21.9565,19.6688 21.5585,19.7408 21.1285,19.9188 C20.2085,20.3038 19.4595,21.4568 19.4595,22.4898 C19.4595,22.6118 19.4665,22.7288 19.4805,22.8458 C19.5405,23.3458 19.2185,23.8108 18.7315,23.9338 C17.8465,24.1568 17.3975,24.7208 17.3975,25.6118 L17.4025,25.7578 C17.4475,26.5858 18.4185,27.3468 19.4385,27.3468 L28.8285,27.3468 C30.6055,27.3468 30.6055,26.0598 30.6055,25.6368 L30.6055,25.6368 Z M32.6055,25.6368 C32.6055,28.3178 30.6755,29.3048 28.9765,29.3458 C28.9595,29.3468 28.9425,29.3468 28.9245,29.3468 L19.4385,29.3468 C17.3555,29.3468 15.5085,27.7498 15.4055,25.8598 C15.4005,25.7738 15.3975,25.6968 15.3975,25.6118 C15.3975,24.0768 16.1565,22.8738 17.4645,22.2678 C17.5605,20.5108 18.7725,18.7358 20.3585,18.0738 C22.2795,17.2768 24.3065,17.6718 25.7885,19.1388 C26.0665,19.4128 26.3145,19.7238 26.5315,20.0698 C27.7795,19.5998 29.5565,20.1578 30.0285,22.1208 C31.6755,22.6828 32.6055,23.9348 32.6055,25.6368 L32.6055,25.6368 Z M44.0015,24.0008 C44.0015,12.9728 35.0295,3.9998 24.0015,3.9998 C12.9725,3.9998 4.0005,12.9728 4.0005,24.0008 C4.0005,35.0298 12.9725,44.0018 24.0015,44.0018 C35.0295,44.0018 44.0015,35.0298 44.0015,24.0008 L44.0015,24.0008 Z M46.0015,24.0008 C46.0015,36.1328 36.1325,46.0018 24.0015,46.0018 C11.8695,46.0018 2.0005,36.1328 2.0005,24.0008 C2.0005,11.8688 11.8695,1.9998 24.0015,1.9998 C36.1325,1.9998 46.0015,11.8688 46.0015,24.0008 L46.0015,24.0008 Z M11.6735,20.3638 L10.2595,18.9498 L5.9145,23.2938 C5.7265,23.4818 5.6215,23.7358 5.6215,24.0008 C5.6215,24.2668 5.7265,24.5208 5.9145,24.7078 L10.2595,29.0538 L11.6735,27.6398 L9.0355,25.0008 L13.9905,25.0008 L13.9905,23.0008 L9.0355,23.0008 L11.6735,20.3638 Z M42.0885,23.2938 L37.7435,18.9498 L36.3295,20.3638 L38.9675,23.0008 L33.9855,23.0008 L33.9855,25.0008 L38.9675,25.0008 L36.3295,27.6398 L37.7435,29.0538 L42.0885,24.7078 C42.2765,24.5208 42.3815,24.2668 42.3815,24.0008 C42.3815,23.7358 42.2765,23.4818 42.0885,23.2938 L42.0885,23.2938 Z M25.0015,38.9678 L25.0015,30.9758 L23.0015,30.9758 L23.0015,38.9678 L20.3635,36.3288 L18.9495,37.7428 L23.2935,42.0888 C23.4815,42.2768 23.7355,42.3818 24.0015,42.3818 C24.2665,42.3818 24.5205,42.2768 24.7085,42.0888 L29.0535,37.7428 L27.6395,36.3288 L25.0015,38.9678 Z M20.3635,11.6728 L18.9495,10.2588 L23.2935,5.9138 C23.6845,5.5238 24.3175,5.5238 24.7085,5.9138 L29.0535,10.2588 L27.6395,11.6728 L25.0015,9.0348 L25.0015,16.2748 L23.0015,16.2748 L23.0015,9.0348 L20.3635,11.6728 Z" id="AWS-Amazon-VPC_Peering-connection_Resource-Icon_light-bg" fill="#000000"></path>
    </g><g transform="translate(12vw, 80vh)" id="svgGroup" stroke-linecap="round" fill-rule="evenodd" font-size="9pt" stroke="#000" stroke-width="0.25mm" fill="#000" style="stroke:#000;stroke-width:0.25mm;fill:#000"><path d="M 15.882 4.456 L 16.73 4.456 A 3.016 3.016 0 0 1 16.569 5.152 A 2.099 2.099 0 0 1 15.981 6.023 Q 15.35 6.574 14.304 6.574 A 2.553 2.553 0 0 1 13.435 6.432 A 2.194 2.194 0 0 1 12.487 5.761 A 2.789 2.789 0 0 1 11.925 4.638 Q 11.819 4.22 11.806 3.728 A 5.262 5.262 0 0 1 11.804 3.586 L 11.804 2.971 A 4.251 4.251 0 0 1 11.874 2.182 A 3.229 3.229 0 0 1 12.122 1.402 A 2.539 2.539 0 0 1 12.578 0.726 A 2.26 2.26 0 0 1 13.025 0.363 A 2.415 2.415 0 0 1 14.051 0.017 A 3.027 3.027 0 0 1 14.379 0 A 2.962 2.962 0 0 1 15.085 0.08 A 2.065 2.065 0 0 1 16.014 0.569 A 2.16 2.16 0 0 1 16.608 1.531 A 3.086 3.086 0 0 1 16.73 2.145 L 15.882 2.145 Q 15.813 1.666 15.643 1.352 A 1.223 1.223 0 0 0 15.405 1.037 A 1.207 1.207 0 0 0 14.9 0.76 Q 14.713 0.707 14.489 0.697 A 2.396 2.396 0 0 0 14.379 0.694 A 1.753 1.753 0 0 0 13.801 0.786 A 1.463 1.463 0 0 0 13.111 1.292 A 1.989 1.989 0 0 0 12.797 1.912 Q 12.652 2.372 12.652 2.993 L 12.652 3.612 Q 12.652 4.654 13.087 5.269 A 1.38 1.38 0 0 0 14.085 5.872 A 1.814 1.814 0 0 0 14.304 5.884 A 2.497 2.497 0 0 0 14.712 5.853 Q 14.931 5.817 15.107 5.738 A 1.155 1.155 0 0 0 15.383 5.566 Q 15.759 5.247 15.882 4.456 Z M 0.918 0.088 L 2.738 5.366 L 4.566 0.088 L 5.489 0.088 L 3.116 6.486 L 2.369 6.486 L 0 0.088 L 0.918 0.088 Z M 48.375 2.259 L 48.415 1.732 L 49.157 1.732 L 49.157 6.372 A 2.511 2.511 0 0 1 49.087 6.985 A 1.738 1.738 0 0 1 48.61 7.827 A 1.834 1.834 0 0 1 47.68 8.307 A 2.671 2.671 0 0 1 47.14 8.358 A 2.446 2.446 0 0 1 46.134 8.139 A 2.003 2.003 0 0 1 45.724 7.897 A 1.563 1.563 0 0 1 45.382 7.537 L 45.804 7.049 A 1.889 1.889 0 0 0 46.239 7.449 A 1.514 1.514 0 0 0 47.083 7.695 A 1.695 1.695 0 0 0 47.46 7.655 Q 47.728 7.594 47.922 7.438 A 1.037 1.037 0 0 0 48.008 7.361 A 1.09 1.09 0 0 0 48.285 6.868 Q 48.332 6.695 48.339 6.489 A 2.134 2.134 0 0 0 48.34 6.421 L 48.34 6.012 A 1.601 1.601 0 0 1 47.288 6.558 A 2.279 2.279 0 0 1 47.008 6.574 A 1.672 1.672 0 0 1 46.253 6.406 Q 45.931 6.246 45.681 5.933 A 2.14 2.14 0 0 1 45.657 5.902 A 2.316 2.316 0 0 1 45.274 5.122 Q 45.141 4.659 45.141 4.069 Q 45.141 3.208 45.449 2.62 A 2.096 2.096 0 0 1 45.655 2.301 Q 46.169 1.644 47.017 1.644 A 1.971 1.971 0 0 1 47.616 1.73 A 1.55 1.55 0 0 1 48.375 2.259 Z M 40.368 1.732 L 41.137 1.732 L 41.164 2.329 Q 41.7 1.654 42.56 1.644 A 2.234 2.234 0 0 1 42.587 1.644 A 1.905 1.905 0 0 1 43.221 1.74 Q 44.063 2.037 44.106 3.242 A 3.668 3.668 0 0 1 44.108 3.344 L 44.108 6.486 L 43.295 6.486 L 43.295 3.34 A 1.837 1.837 0 0 0 43.273 3.06 Q 43.222 2.753 43.06 2.58 Q 42.874 2.381 42.52 2.343 A 1.66 1.66 0 0 0 42.341 2.334 A 1.253 1.253 0 0 0 41.927 2.4 A 1.123 1.123 0 0 0 41.647 2.545 A 1.432 1.432 0 0 0 41.181 3.098 L 41.181 6.486 L 40.368 6.486 L 40.368 1.732 Z M 25.396 4.241 L 25.396 4.091 A 3.17 3.17 0 0 1 25.472 3.382 A 2.581 2.581 0 0 1 25.666 2.828 A 2.191 2.191 0 0 1 26.114 2.202 A 2.033 2.033 0 0 1 26.422 1.958 Q 26.908 1.644 27.475 1.644 A 2.254 2.254 0 0 1 28.088 1.723 A 1.639 1.639 0 0 1 28.916 2.254 Q 29.43 2.865 29.43 4.004 L 29.43 4.342 L 26.209 4.342 A 2.111 2.111 0 0 0 26.28 4.85 A 1.516 1.516 0 0 0 26.62 5.478 A 1.282 1.282 0 0 0 27.554 5.909 A 1.652 1.652 0 0 0 27.62 5.911 A 1.763 1.763 0 0 0 27.948 5.882 Q 28.172 5.839 28.349 5.735 A 1.827 1.827 0 0 0 28.858 5.287 A 2.068 2.068 0 0 0 28.872 5.269 L 29.369 5.656 A 1.926 1.926 0 0 1 27.969 6.547 A 2.749 2.749 0 0 1 27.576 6.574 A 2.394 2.394 0 0 1 26.824 6.461 A 1.974 1.974 0 0 1 26.002 5.939 Q 25.396 5.304 25.396 4.241 Z M 30.164 4.241 L 30.164 4.091 A 3.17 3.17 0 0 1 30.24 3.382 A 2.581 2.581 0 0 1 30.434 2.828 A 2.191 2.191 0 0 1 30.882 2.202 A 2.033 2.033 0 0 1 31.19 1.958 Q 31.676 1.644 32.243 1.644 A 2.254 2.254 0 0 1 32.856 1.723 A 1.639 1.639 0 0 1 33.684 2.254 Q 34.198 2.865 34.198 4.004 L 34.198 4.342 L 30.977 4.342 A 2.111 2.111 0 0 0 31.048 4.85 A 1.516 1.516 0 0 0 31.388 5.478 A 1.282 1.282 0 0 0 32.322 5.909 A 1.652 1.652 0 0 0 32.388 5.911 A 1.763 1.763 0 0 0 32.716 5.882 Q 32.94 5.839 33.117 5.735 A 1.827 1.827 0 0 0 33.626 5.287 A 2.068 2.068 0 0 0 33.64 5.269 L 34.137 5.656 A 1.926 1.926 0 0 1 32.737 6.547 A 2.749 2.749 0 0 1 32.344 6.574 A 2.394 2.394 0 0 1 31.593 6.461 A 1.974 1.974 0 0 1 30.771 5.939 Q 30.164 5.304 30.164 4.241 Z M 8.697 3.982 L 7.189 3.982 L 7.189 6.486 L 6.346 6.486 L 6.346 0.088 L 8.706 0.088 A 3.315 3.315 0 0 1 9.37 0.151 Q 9.773 0.233 10.084 0.424 A 1.839 1.839 0 0 1 10.351 0.624 A 1.772 1.772 0 0 1 10.939 1.841 A 2.45 2.45 0 0 1 10.947 2.044 Q 10.947 2.975 10.365 3.478 Q 9.886 3.892 9.066 3.966 A 4.14 4.14 0 0 1 8.697 3.982 Z M 22.46 3.982 L 20.953 3.982 L 20.953 6.486 L 20.109 6.486 L 20.109 0.088 L 22.469 0.088 A 3.315 3.315 0 0 1 23.134 0.151 Q 23.537 0.233 23.847 0.424 A 1.839 1.839 0 0 1 24.115 0.624 A 1.772 1.772 0 0 1 24.702 1.841 A 2.45 2.45 0 0 1 24.71 2.044 Q 24.71 2.975 24.128 3.478 Q 23.649 3.892 22.83 3.966 A 4.14 4.14 0 0 1 22.46 3.982 Z M 37.437 1.705 L 37.437 2.461 A 2.251 2.251 0 0 0 37.194 2.435 A 2.782 2.782 0 0 0 37.037 2.43 Q 36.259 2.43 35.968 3.075 A 1.445 1.445 0 0 0 35.952 3.111 L 35.952 6.486 L 35.139 6.486 L 35.139 1.732 L 35.93 1.732 L 35.943 2.281 Q 36.323 1.675 37.006 1.645 A 1.636 1.636 0 0 1 37.077 1.644 Q 37.314 1.644 37.437 1.705 Z M 39.067 1.732 L 39.067 6.486 L 38.254 6.486 L 38.254 1.732 L 39.067 1.732 Z M 48.34 5.186 L 48.34 3.015 A 1.439 1.439 0 0 0 48.039 2.627 Q 47.735 2.357 47.295 2.335 A 1.578 1.578 0 0 0 47.219 2.334 Q 46.627 2.334 46.294 2.793 A 1.51 1.51 0 0 0 46.083 3.221 Q 46.017 3.425 45.986 3.676 A 3.955 3.955 0 0 0 45.958 4.162 Q 45.958 4.966 46.288 5.425 Q 46.617 5.884 47.21 5.884 A 1.32 1.32 0 0 0 47.72 5.79 Q 48.112 5.628 48.34 5.186 Z M 7.189 0.782 L 7.189 3.292 L 8.706 3.292 A 2.313 2.313 0 0 0 9.098 3.26 Q 9.315 3.223 9.487 3.141 A 1.097 1.097 0 0 0 9.743 2.973 A 1.028 1.028 0 0 0 10.06 2.433 Q 10.102 2.265 10.103 2.065 A 1.996 1.996 0 0 0 10.103 2.052 A 1.466 1.466 0 0 0 10.049 1.645 A 1.112 1.112 0 0 0 9.743 1.138 Q 9.382 0.796 8.754 0.782 L 7.189 0.782 Z M 20.953 0.782 L 20.953 3.292 L 22.469 3.292 A 2.313 2.313 0 0 0 22.861 3.26 Q 23.079 3.223 23.251 3.141 A 1.097 1.097 0 0 0 23.506 2.973 A 1.028 1.028 0 0 0 23.824 2.433 Q 23.865 2.265 23.867 2.065 A 1.996 1.996 0 0 0 23.867 2.052 A 1.466 1.466 0 0 0 23.813 1.645 A 1.112 1.112 0 0 0 23.506 1.138 Q 23.146 0.796 22.518 0.782 L 20.953 0.782 Z M 26.235 3.674 L 28.617 3.674 L 28.617 3.612 Q 28.591 3.154 28.42 2.848 A 1.13 1.13 0 0 0 28.283 2.652 A 0.983 0.983 0 0 0 27.629 2.32 A 1.39 1.39 0 0 0 27.475 2.312 A 1.106 1.106 0 0 0 26.952 2.435 A 1.14 1.14 0 0 0 26.648 2.67 A 1.417 1.417 0 0 0 26.372 3.116 Q 26.298 3.3 26.258 3.522 A 2.741 2.741 0 0 0 26.235 3.674 Z M 31.003 3.674 L 33.385 3.674 L 33.385 3.612 Q 33.359 3.154 33.189 2.848 A 1.13 1.13 0 0 0 33.051 2.652 A 0.983 0.983 0 0 0 32.397 2.32 A 1.39 1.39 0 0 0 32.243 2.312 A 1.106 1.106 0 0 0 31.72 2.435 A 1.14 1.14 0 0 0 31.417 2.67 A 1.417 1.417 0 0 0 31.14 3.116 Q 31.066 3.3 31.026 3.522 A 2.741 2.741 0 0 0 31.003 3.674 Z M 38.188 0.47 Q 38.188 0.273 38.309 0.136 Q 38.421 0.01 38.633 0.001 A 0.783 0.783 0 0 1 38.667 0 Q 38.905 0 39.028 0.136 A 0.474 0.474 0 0 1 39.15 0.44 A 0.614 0.614 0 0 1 39.151 0.47 A 0.523 0.523 0 0 1 39.126 0.636 A 0.442 0.442 0 0 1 39.028 0.8 Q 38.915 0.92 38.707 0.931 A 0.803 0.803 0 0 1 38.667 0.932 Q 38.495 0.932 38.384 0.862 A 0.362 0.362 0 0 1 38.309 0.8 A 0.456 0.456 0 0 1 38.191 0.525 A 0.605 0.605 0 0 1 38.188 0.47 Z" vector-effect="non-scaling-stroke"/></g><g transform="translate(12vw, 90vh)" id="svgGroup" stroke-linecap="round" fill-rule="evenodd" font-size="9pt" stroke="#000" stroke-width="0.25mm" fill="#000" style="stroke:#000;stroke-width:0.25mm;fill:#000"><path d="M 4.078 4.72 L 4.926 4.72 A 3.016 3.016 0 0 1 4.765 5.416 A 2.099 2.099 0 0 1 4.177 6.286 Q 3.546 6.838 2.501 6.838 A 2.553 2.553 0 0 1 1.631 6.696 A 2.194 2.194 0 0 1 0.683 6.025 A 2.789 2.789 0 0 1 0.122 4.901 Q 0.015 4.484 0.002 3.992 A 5.262 5.262 0 0 1 0 3.85 L 0 3.234 A 4.251 4.251 0 0 1 0.07 2.445 A 3.229 3.229 0 0 1 0.319 1.666 A 2.539 2.539 0 0 1 0.774 0.99 A 2.26 2.26 0 0 1 1.222 0.626 A 2.415 2.415 0 0 1 2.248 0.281 A 3.027 3.027 0 0 1 2.575 0.264 A 2.962 2.962 0 0 1 3.281 0.343 A 2.065 2.065 0 0 1 4.21 0.833 A 2.16 2.16 0 0 1 4.805 1.795 A 3.086 3.086 0 0 1 4.926 2.408 L 4.078 2.408 Q 4.009 1.929 3.84 1.616 A 1.223 1.223 0 0 0 3.601 1.301 A 1.207 1.207 0 0 0 3.096 1.024 Q 2.909 0.971 2.686 0.961 A 2.396 2.396 0 0 0 2.575 0.958 A 1.753 1.753 0 0 0 1.997 1.049 A 1.463 1.463 0 0 0 1.307 1.556 A 1.989 1.989 0 0 0 0.993 2.175 Q 0.848 2.636 0.848 3.256 L 0.848 3.876 Q 0.848 4.917 1.283 5.533 A 1.38 1.38 0 0 0 2.282 6.135 A 1.814 1.814 0 0 0 2.501 6.148 A 2.497 2.497 0 0 0 2.908 6.117 Q 3.127 6.08 3.303 6.002 A 1.155 1.155 0 0 0 3.579 5.829 Q 3.955 5.511 4.078 4.72 Z M 73.169 0 L 73.169 2.571 A 1.767 1.767 0 0 1 73.835 2.053 A 1.832 1.832 0 0 1 74.575 1.907 A 1.905 1.905 0 0 1 75.209 2.004 Q 76.051 2.3 76.094 3.506 A 3.668 3.668 0 0 1 76.096 3.608 L 76.096 6.75 L 75.283 6.75 L 75.283 3.604 A 1.837 1.837 0 0 0 75.26 3.324 Q 75.21 3.017 75.048 2.843 Q 74.862 2.645 74.508 2.606 A 1.66 1.66 0 0 0 74.329 2.597 A 1.253 1.253 0 0 0 73.915 2.664 A 1.123 1.123 0 0 0 73.635 2.808 A 1.432 1.432 0 0 0 73.169 3.362 L 73.169 6.75 L 72.356 6.75 L 72.356 0 L 73.169 0 Z M 70.348 2.522 L 70.387 1.995 L 71.13 1.995 L 71.13 6.636 A 2.511 2.511 0 0 1 71.059 7.249 A 1.738 1.738 0 0 1 70.583 8.09 A 1.834 1.834 0 0 1 69.653 8.57 A 2.671 2.671 0 0 1 69.113 8.622 A 2.446 2.446 0 0 1 68.106 8.402 A 2.003 2.003 0 0 1 67.696 8.161 A 1.563 1.563 0 0 1 67.355 7.8 L 67.777 7.313 A 1.889 1.889 0 0 0 68.211 7.712 A 1.514 1.514 0 0 0 69.056 7.958 A 1.695 1.695 0 0 0 69.433 7.919 Q 69.701 7.858 69.895 7.702 A 1.037 1.037 0 0 0 69.981 7.625 A 1.09 1.09 0 0 0 70.258 7.132 Q 70.305 6.959 70.311 6.752 A 2.134 2.134 0 0 0 70.313 6.684 L 70.313 6.275 A 1.601 1.601 0 0 1 69.261 6.821 A 2.279 2.279 0 0 1 68.981 6.838 A 1.672 1.672 0 0 1 68.226 6.67 Q 67.904 6.51 67.654 6.197 A 2.14 2.14 0 0 1 67.63 6.166 A 2.316 2.316 0 0 1 67.246 5.386 Q 67.113 4.922 67.113 4.333 Q 67.113 3.472 67.422 2.884 A 2.096 2.096 0 0 1 67.627 2.564 Q 68.142 1.907 68.99 1.907 A 1.971 1.971 0 0 1 69.589 1.994 A 1.55 1.55 0 0 1 70.348 2.522 Z M 11.083 1.995 L 11.852 1.995 L 11.878 2.593 Q 12.415 1.918 13.275 1.907 A 2.234 2.234 0 0 1 13.302 1.907 A 1.905 1.905 0 0 1 13.936 2.004 Q 14.778 2.3 14.821 3.506 A 3.668 3.668 0 0 1 14.823 3.608 L 14.823 6.75 L 14.01 6.75 L 14.01 3.604 A 1.837 1.837 0 0 0 13.988 3.324 Q 13.937 3.017 13.775 2.843 Q 13.589 2.645 13.235 2.606 A 1.66 1.66 0 0 0 13.056 2.597 A 1.253 1.253 0 0 0 12.642 2.664 A 1.123 1.123 0 0 0 12.362 2.808 A 1.432 1.432 0 0 0 11.896 3.362 L 11.896 6.75 L 11.083 6.75 L 11.083 1.995 Z M 16.049 1.995 L 16.818 1.995 L 16.844 2.593 Q 17.381 1.918 18.241 1.907 A 2.234 2.234 0 0 1 18.268 1.907 A 1.905 1.905 0 0 1 18.902 2.004 Q 19.743 2.3 19.786 3.506 A 3.668 3.668 0 0 1 19.789 3.608 L 19.789 6.75 L 18.976 6.75 L 18.976 3.604 A 1.837 1.837 0 0 0 18.953 3.324 Q 18.903 3.017 18.741 2.843 Q 18.554 2.645 18.201 2.606 A 1.66 1.66 0 0 0 18.022 2.597 A 1.253 1.253 0 0 0 17.608 2.664 A 1.123 1.123 0 0 0 17.328 2.808 A 1.432 1.432 0 0 0 16.862 3.362 L 16.862 6.75 L 16.049 6.75 L 16.049 1.995 Z M 40.751 1.995 L 41.52 1.995 L 41.546 2.593 Q 42.082 1.918 42.942 1.907 A 2.234 2.234 0 0 1 42.97 1.907 A 1.905 1.905 0 0 1 43.603 2.004 Q 44.445 2.3 44.488 3.506 A 3.668 3.668 0 0 1 44.49 3.608 L 44.49 6.75 L 43.677 6.75 L 43.677 3.604 A 1.837 1.837 0 0 0 43.655 3.324 Q 43.605 3.017 43.442 2.843 Q 43.256 2.645 42.903 2.606 A 1.66 1.66 0 0 0 42.724 2.597 A 1.253 1.253 0 0 0 42.309 2.664 A 1.123 1.123 0 0 0 42.029 2.808 A 1.432 1.432 0 0 0 41.564 3.362 L 41.564 6.75 L 40.751 6.75 L 40.751 1.995 Z M 28.811 5.251 L 29.58 5.251 A 1.432 1.432 0 0 1 29.381 5.901 A 1.772 1.772 0 0 1 29.298 6.029 A 1.828 1.828 0 0 1 28.689 6.574 A 2.169 2.169 0 0 1 28.606 6.618 A 1.997 1.997 0 0 1 27.69 6.838 A 2.346 2.346 0 0 1 26.993 6.739 A 1.839 1.839 0 0 1 26.145 6.19 A 2.171 2.171 0 0 1 25.682 5.31 Q 25.572 4.909 25.572 4.417 L 25.572 4.28 A 3.24 3.24 0 0 1 25.636 3.624 A 2.57 2.57 0 0 1 25.827 3.045 A 2.008 2.008 0 0 1 26.266 2.431 A 1.892 1.892 0 0 1 26.558 2.206 A 1.943 1.943 0 0 1 27.315 1.934 A 2.529 2.529 0 0 1 27.686 1.907 A 2.196 2.196 0 0 1 28.334 1.999 A 1.786 1.786 0 0 1 29.015 2.386 A 1.693 1.693 0 0 1 29.573 3.535 A 2.239 2.239 0 0 1 29.58 3.63 L 28.811 3.63 Q 28.775 3.168 28.461 2.872 A 1.078 1.078 0 0 0 27.732 2.576 A 1.402 1.402 0 0 0 27.686 2.575 A 1.374 1.374 0 0 0 27.264 2.637 A 1.081 1.081 0 0 0 26.725 3.021 A 1.469 1.469 0 0 0 26.499 3.468 Q 26.433 3.674 26.405 3.923 A 3.514 3.514 0 0 0 26.385 4.311 L 26.385 4.465 Q 26.385 5.287 26.723 5.73 A 1.1 1.1 0 0 0 27.51 6.165 A 1.611 1.611 0 0 0 27.69 6.174 A 1.171 1.171 0 0 0 28.45 5.911 A 1.007 1.007 0 0 0 28.694 5.629 A 0.914 0.914 0 0 0 28.811 5.251 Z M 20.808 4.504 L 20.808 4.355 A 3.17 3.17 0 0 1 20.884 3.646 A 2.581 2.581 0 0 1 21.078 3.092 A 2.191 2.191 0 0 1 21.526 2.466 A 2.033 2.033 0 0 1 21.834 2.221 Q 22.32 1.907 22.887 1.907 A 2.254 2.254 0 0 1 23.5 1.986 A 1.639 1.639 0 0 1 24.328 2.518 Q 24.842 3.129 24.842 4.267 L 24.842 4.605 L 21.621 4.605 A 2.111 2.111 0 0 0 21.692 5.114 A 1.516 1.516 0 0 0 22.032 5.741 A 1.282 1.282 0 0 0 22.966 6.173 A 1.652 1.652 0 0 0 23.032 6.174 A 1.763 1.763 0 0 0 23.36 6.145 Q 23.584 6.103 23.761 5.999 A 1.827 1.827 0 0 0 24.27 5.551 A 2.068 2.068 0 0 0 24.284 5.533 L 24.781 5.919 A 1.926 1.926 0 0 1 23.381 6.811 A 2.749 2.749 0 0 1 22.988 6.838 A 2.394 2.394 0 0 1 22.237 6.725 A 1.974 1.974 0 0 1 21.415 6.203 Q 20.808 5.568 20.808 4.504 Z M 61.255 0.352 L 61.255 6.06 L 64.288 6.06 L 64.288 6.75 L 60.407 6.75 L 60.407 0.352 L 61.255 0.352 Z M 51.293 0.352 L 51.293 4.601 L 52.181 4.601 L 52.181 5.265 L 51.293 5.265 L 51.293 6.75 L 50.476 6.75 L 50.476 5.265 L 47.562 5.265 L 47.562 4.786 L 50.427 0.352 L 51.293 0.352 Z M 56.691 2.592 A 1.544 1.544 0 0 0 56.795 2.021 A 2.226 2.226 0 0 0 56.773 1.707 A 1.566 1.566 0 0 0 56.274 0.738 A 1.754 1.754 0 0 0 55.508 0.333 A 2.443 2.443 0 0 0 54.91 0.264 A 2.539 2.539 0 0 0 54.4 0.312 A 1.767 1.767 0 0 0 53.543 0.738 Q 53.024 1.213 53.024 2.021 A 1.808 1.808 0 0 0 53.025 2.058 A 1.499 1.499 0 0 0 53.271 2.87 A 1.626 1.626 0 0 0 53.433 3.077 A 1.726 1.726 0 0 0 53.943 3.454 A 2.119 2.119 0 0 0 53.843 3.5 A 1.738 1.738 0 0 0 53.158 4.087 A 1.629 1.629 0 0 0 52.875 5.023 A 2.272 2.272 0 0 0 52.885 5.237 A 1.63 1.63 0 0 0 53.431 6.344 A 1.895 1.895 0 0 0 54.281 6.771 A 2.797 2.797 0 0 0 54.91 6.838 A 2.796 2.796 0 0 0 55.509 6.777 A 1.925 1.925 0 0 0 56.384 6.346 A 1.578 1.578 0 0 0 56.859 5.62 A 1.989 1.989 0 0 0 56.944 5.023 A 1.581 1.581 0 0 0 56.652 4.087 Q 56.36 3.674 55.859 3.458 Q 56.29 3.248 56.542 2.874 A 1.449 1.449 0 0 0 56.691 2.592 Z M 30.784 0.844 L 31.597 0.844 L 31.597 1.995 L 32.484 1.995 L 32.484 2.624 L 31.597 2.624 L 31.597 5.572 Q 31.597 5.858 31.715 6.001 Q 31.834 6.144 32.12 6.144 A 1.046 1.046 0 0 0 32.217 6.138 Q 32.32 6.129 32.46 6.101 A 4.024 4.024 0 0 0 32.506 6.091 L 32.506 6.75 A 2.463 2.463 0 0 1 32.074 6.829 A 2.157 2.157 0 0 1 31.882 6.838 Q 31.435 6.838 31.169 6.616 A 0.856 0.856 0 0 1 31.061 6.508 Q 30.833 6.238 30.793 5.78 A 2.351 2.351 0 0 1 30.784 5.572 L 30.784 2.624 L 29.918 2.624 L 29.918 1.995 L 30.784 1.995 L 30.784 0.844 Z M 77.603 0.844 L 78.416 0.844 L 78.416 1.995 L 79.304 1.995 L 79.304 2.624 L 78.416 2.624 L 78.416 5.572 Q 78.416 5.858 78.535 6.001 Q 78.653 6.144 78.939 6.144 A 1.046 1.046 0 0 0 79.037 6.138 Q 79.139 6.129 79.279 6.101 A 4.024 4.024 0 0 0 79.326 6.091 L 79.326 6.75 A 2.463 2.463 0 0 1 78.893 6.829 A 2.157 2.157 0 0 1 78.702 6.838 Q 78.255 6.838 77.988 6.616 A 0.856 0.856 0 0 1 77.88 6.508 Q 77.653 6.238 77.612 5.78 A 2.351 2.351 0 0 1 77.603 5.572 L 77.603 2.624 L 76.737 2.624 L 76.737 1.995 L 77.603 1.995 L 77.603 0.844 Z M 5.735 4.386 L 5.735 4.329 A 3.057 3.057 0 0 1 5.822 3.587 A 2.573 2.573 0 0 1 6.01 3.072 A 2.16 2.16 0 0 1 6.424 2.486 A 1.957 1.957 0 0 1 6.774 2.21 A 2.036 2.036 0 0 1 7.719 1.913 A 2.491 2.491 0 0 1 7.893 1.907 A 2.277 2.277 0 0 1 8.646 2.027 A 1.937 1.937 0 0 1 9.464 2.58 A 2.29 2.29 0 0 1 9.983 3.608 A 3.373 3.373 0 0 1 10.064 4.368 L 10.064 4.425 A 3.114 3.114 0 0 1 9.984 5.142 A 2.577 2.577 0 0 1 9.798 5.671 A 2.056 2.056 0 0 1 9.27 6.361 A 2.001 2.001 0 0 1 9.037 6.53 A 2.045 2.045 0 0 1 8.118 6.829 A 2.529 2.529 0 0 1 7.901 6.838 A 2.262 2.262 0 0 1 7.151 6.718 A 1.938 1.938 0 0 1 6.335 6.166 A 2.297 2.297 0 0 1 5.809 5.111 A 3.357 3.357 0 0 1 5.735 4.386 Z M 35.402 4.386 L 35.402 4.329 A 3.057 3.057 0 0 1 35.489 3.587 A 2.573 2.573 0 0 1 35.677 3.072 A 2.16 2.16 0 0 1 36.092 2.486 A 1.957 1.957 0 0 1 36.442 2.21 A 2.036 2.036 0 0 1 37.386 1.913 A 2.491 2.491 0 0 1 37.56 1.907 A 2.277 2.277 0 0 1 38.313 2.027 A 1.937 1.937 0 0 1 39.131 2.58 A 2.29 2.29 0 0 1 39.65 3.608 A 3.373 3.373 0 0 1 39.731 4.368 L 39.731 4.425 A 3.114 3.114 0 0 1 39.651 5.142 A 2.577 2.577 0 0 1 39.465 5.671 A 2.056 2.056 0 0 1 38.938 6.361 A 2.001 2.001 0 0 1 38.705 6.53 A 2.045 2.045 0 0 1 37.785 6.829 A 2.529 2.529 0 0 1 37.569 6.838 A 2.262 2.262 0 0 1 36.818 6.718 A 1.938 1.938 0 0 1 36.002 6.166 A 2.297 2.297 0 0 1 35.477 5.111 A 3.357 3.357 0 0 1 35.402 4.386 Z M 34.317 1.995 L 34.317 6.75 L 33.504 6.75 L 33.504 1.995 L 34.317 1.995 Z M 66.006 1.995 L 66.006 6.75 L 65.193 6.75 L 65.193 1.995 L 66.006 1.995 Z M 6.552 4.425 A 2.772 2.772 0 0 0 6.6 4.954 Q 6.66 5.264 6.797 5.51 A 1.545 1.545 0 0 0 6.919 5.695 Q 7.286 6.174 7.901 6.174 A 1.269 1.269 0 0 0 8.391 6.083 Q 8.67 5.967 8.873 5.706 A 1.471 1.471 0 0 0 8.886 5.689 A 1.648 1.648 0 0 0 9.141 5.171 Q 9.209 4.945 9.235 4.672 A 3.655 3.655 0 0 0 9.251 4.329 A 2.687 2.687 0 0 0 9.199 3.789 Q 9.132 3.459 8.974 3.2 A 1.586 1.586 0 0 0 8.879 3.061 A 1.231 1.231 0 0 0 8.464 2.705 Q 8.211 2.575 7.893 2.575 Q 7.303 2.575 6.936 3.035 A 1.515 1.515 0 0 0 6.921 3.054 A 1.589 1.589 0 0 0 6.669 3.552 Q 6.6 3.772 6.572 4.039 A 3.676 3.676 0 0 0 6.552 4.425 Z M 36.22 4.425 A 2.772 2.772 0 0 0 36.267 4.954 Q 36.328 5.264 36.465 5.51 A 1.545 1.545 0 0 0 36.587 5.695 Q 36.954 6.174 37.569 6.174 A 1.269 1.269 0 0 0 38.058 6.083 Q 38.338 5.967 38.54 5.706 A 1.471 1.471 0 0 0 38.553 5.689 A 1.648 1.648 0 0 0 38.808 5.171 Q 38.877 4.945 38.903 4.672 A 3.655 3.655 0 0 0 38.918 4.329 A 2.687 2.687 0 0 0 38.867 3.789 Q 38.799 3.459 38.642 3.2 A 1.586 1.586 0 0 0 38.547 3.061 A 1.231 1.231 0 0 0 38.132 2.705 Q 37.879 2.575 37.56 2.575 Q 36.97 2.575 36.604 3.035 A 1.515 1.515 0 0 0 36.589 3.054 A 1.589 1.589 0 0 0 36.337 3.552 Q 36.267 3.772 36.239 4.039 A 3.676 3.676 0 0 0 36.22 4.425 Z M 70.313 5.449 L 70.313 3.278 A 1.439 1.439 0 0 0 70.012 2.891 Q 69.708 2.62 69.268 2.599 A 1.578 1.578 0 0 0 69.192 2.597 Q 68.6 2.597 68.266 3.056 A 1.51 1.51 0 0 0 68.056 3.484 Q 67.99 3.689 67.959 3.939 A 3.955 3.955 0 0 0 67.931 4.425 Q 67.931 5.229 68.26 5.689 Q 68.59 6.148 69.183 6.148 A 1.32 1.32 0 0 0 69.693 6.054 Q 70.085 5.891 70.313 5.449 Z M 50.379 1.639 L 48.485 4.601 L 50.476 4.601 L 50.476 1.463 L 50.379 1.639 Z M 56.131 5.005 A 1.375 1.375 0 0 0 56.072 4.592 A 1.109 1.109 0 0 0 55.791 4.131 A 1.148 1.148 0 0 0 55.119 3.807 A 1.593 1.593 0 0 0 54.901 3.792 A 1.466 1.466 0 0 0 54.512 3.841 A 1.086 1.086 0 0 0 54.02 4.126 A 1.123 1.123 0 0 0 53.706 4.762 A 1.572 1.572 0 0 0 53.688 5.005 A 1.48 1.48 0 0 0 53.73 5.367 A 1.019 1.019 0 0 0 54.011 5.862 Q 54.317 6.158 54.85 6.173 A 2.053 2.053 0 0 0 54.91 6.174 Q 55.403 6.174 55.713 5.94 A 1.018 1.018 0 0 0 55.806 5.86 A 1.041 1.041 0 0 0 56.106 5.292 A 1.518 1.518 0 0 0 56.131 5.005 Z M 54.91 0.932 A 1.259 1.259 0 0 0 54.557 0.979 A 0.973 0.973 0 0 0 54.134 1.228 Q 53.837 1.525 53.837 2.035 A 1.325 1.325 0 0 0 53.882 2.387 A 0.994 0.994 0 0 0 54.13 2.823 A 0.974 0.974 0 0 0 54.692 3.108 A 1.382 1.382 0 0 0 54.91 3.125 A 1.279 1.279 0 0 0 55.255 3.08 A 0.952 0.952 0 0 0 55.69 2.823 A 1.018 1.018 0 0 0 55.965 2.26 A 1.426 1.426 0 0 0 55.982 2.035 A 1.282 1.282 0 0 0 55.932 1.668 A 1.013 1.013 0 0 0 55.679 1.239 Q 55.376 0.932 54.91 0.932 Z M 21.648 3.938 L 24.029 3.938 L 24.029 3.876 Q 24.003 3.417 23.833 3.111 A 1.13 1.13 0 0 0 23.695 2.916 A 0.983 0.983 0 0 0 23.041 2.584 A 1.39 1.39 0 0 0 22.887 2.575 A 1.106 1.106 0 0 0 22.364 2.698 A 1.14 1.14 0 0 0 22.061 2.933 A 1.417 1.417 0 0 0 21.784 3.379 Q 21.71 3.563 21.67 3.785 A 2.741 2.741 0 0 0 21.648 3.938 Z M 33.438 0.734 Q 33.438 0.536 33.559 0.4 Q 33.671 0.274 33.883 0.264 A 0.783 0.783 0 0 1 33.917 0.264 Q 34.154 0.264 34.277 0.4 A 0.474 0.474 0 0 1 34.4 0.703 A 0.614 0.614 0 0 1 34.4 0.734 A 0.523 0.523 0 0 1 34.375 0.9 A 0.442 0.442 0 0 1 34.277 1.063 Q 34.165 1.184 33.957 1.194 A 0.803 0.803 0 0 1 33.917 1.195 Q 33.745 1.195 33.634 1.126 A 0.362 0.362 0 0 1 33.559 1.063 A 0.456 0.456 0 0 1 33.44 0.788 A 0.605 0.605 0 0 1 33.438 0.734 Z M 65.127 0.734 Q 65.127 0.536 65.248 0.4 Q 65.36 0.274 65.572 0.264 A 0.783 0.783 0 0 1 65.606 0.264 Q 65.843 0.264 65.966 0.4 A 0.474 0.474 0 0 1 66.089 0.703 A 0.614 0.614 0 0 1 66.089 0.734 A 0.523 0.523 0 0 1 66.064 0.9 A 0.442 0.442 0 0 1 65.966 1.063 Q 65.854 1.184 65.646 1.194 A 0.803 0.803 0 0 1 65.606 1.195 Q 65.434 1.195 65.323 1.126 A 0.362 0.362 0 0 1 65.248 1.063 A 0.456 0.456 0 0 1 65.129 0.788 A 0.605 0.605 0 0 1 65.127 0.734 Z" vector-effect="non-scaling-stroke"/></g>
</svgversion="1.0" encoding="UTF-8"?>
<svg width="48px" height="48px" viewBox="0 0 48 48" version="1.1" xmlns="http://www.w3.org/2000/svg" xmlns:xlink="http://www.w3.org/1999/xlink">
    <title>Icon-Resource/Networking-and-Content-Delivery/Res_AWS-Amazon-VPC_Peering-Connection_48_Light</title>
    <g id="Icon-Resource/Networking-and-Content-Delivery/Res_AWS-Amazon-VPC_Peering-Connection_48" stroke="none" stroke-width="1" fill="none" fill-rule="evenodd">
        <path transform="translate(0vw, 0vh), scale(.65)" d="M30.6055,25.6368 C30.6055,25.2538 30.6055,24.2358 28.9355,23.8938 C28.4915,23.8028 28.1645,23.4248 28.1375,22.9718 C28.0995,22.3148 27.8295,21.9068 27.4315,21.9068 C27.2485,21.9068 27.0725,22.0008 26.9485,22.1648 C26.7285,22.4588 26.3685,22.6078 26.0015,22.5548 C25.6375,22.4998 25.3335,22.2518 25.2085,21.9068 C25.0125,21.3658 24.7265,20.9008 24.3815,20.5608 C24.0655,20.2468 23.3415,19.6688 22.3165,19.6688 C21.9565,19.6688 21.5585,19.7408 21.1285,19.9188 C20.2085,20.3038 19.4595,21.4568 19.4595,22.4898 C19.4595,22.6118 19.4665,22.7288 19.4805,22.8458 C19.5405,23.3458 19.2185,23.8108 18.7315,23.9338 C17.8465,24.1568 17.3975,24.7208 17.3975,25.6118 L17.4025,25.7578 C17.4475,26.5858 18.4185,27.3468 19.4385,27.3468 L28.8285,27.3468 C30.6055,27.3468 30.6055,26.0598 30.6055,25.6368 L30.6055,25.6368 Z M32.6055,25.6368 C32.6055,28.3178 30.6755,29.3048 28.9765,29.3458 C28.9595,29.3468 28.9425,29.3468 28.9245,29.3468 L19.4385,29.3468 C17.3555,29.3468 15.5085,27.7498 15.4055,25.8598 C15.4005,25.7738 15.3975,25.6968 15.3975,25.6118 C15.3975,24.0768 16.1565,22.8738 17.4645,22.2678 C17.5605,20.5108 18.7725,18.7358 20.3585,18.0738 C22.2795,17.2768 24.3065,17.6718 25.7885,19.1388 C26.0665,19.4128 26.3145,19.7238 26.5315,20.0698 C27.7795,19.5998 29.5565,20.1578 30.0285,22.1208 C31.6755,22.6828 32.6055,23.9348 32.6055,25.6368 L32.6055,25.6368 Z M44.0015,24.0008 C44.0015,12.9728 35.0295,3.9998 24.0015,3.9998 C12.9725,3.9998 4.0005,12.9728 4.0005,24.0008 C4.0005,35.0298 12.9725,44.0018 24.0015,44.0018 C35.0295,44.0018 44.0015,35.0298 44.0015,24.0008 L44.0015,24.0008 Z M46.0015,24.0008 C46.0015,36.1328 36.1325,46.0018 24.0015,46.0018 C11.8695,46.0018 2.0005,36.1328 2.0005,24.0008 C2.0005,11.8688 11.8695,1.9998 24.0015,1.9998 C36.1325,1.9998 46.0015,11.8688 46.0015,24.0008 L46.0015,24.0008 Z M11.6735,20.3638 L10.2595,18.9498 L5.9145,23.2938 C5.7265,23.4818 5.6215,23.7358 5.6215,24.0008 C5.6215,24.2668 5.7265,24.5208 5.9145,24.7078 L10.2595,29.0538 L11.6735,27.6398 L9.0355,25.0008 L13.9905,25.0008 L13.9905,23.0008 L9.0355,23.0008 L11.6735,20.3638 Z M42.0885,23.2938 L37.7435,18.9498 L36.3295,20.3638 L38.9675,23.0008 L33.9855,23.0008 L33.9855,25.0008 L38.9675,25.0008 L36.3295,27.6398 L37.7435,29.0538 L42.0885,24.7078 C42.2765,24.5208 42.3815,24.2668 42.3815,24.0008 C42.3815,23.7358 42.2765,23.4818 42.0885,23.2938 L42.0885,23.2938 Z M25.0015,38.9678 L25.0015,30.9758 L23.0015,30.9758 L23.0015,38.9678 L20.3635,36.3288 L18.9495,37.7428 L23.2935,42.0888 C23.4815,42.2768 23.7355,42.3818 24.0015,42.3818 C24.2665,42.3818 24.5205,42.2768 24.7085,42.0888 L29.0535,37.7428 L27.6395,36.3288 L25.0015,38.9678 Z M20.3635,11.6728 L18.9495,10.2588 L23.2935,5.9138 C23.6845,5.5238 24.3175,5.5238 24.7085,5.9138 L29.0535,10.2588 L27.6395,11.6728 L25.0015,9.0348 L25.0015,16.2748 L23.0015,16.2748 L23.0015,9.0348 L20.3635,11.6728 Z" id="AWS-Amazon-VPC_Peering-connection_Resource-Icon_light-bg" fill="#000000"></path>
    </g><g transform="translate(12vw, 80vh)" id="svgGroup" stroke-linecap="round" fill-rule="evenodd" font-size="9pt" stroke="#000" stroke-width="0.25mm" fill="#000" style="stroke:#000;stroke-width:0.25mm;fill:#000"><path d="M 15.882 4.456 L 16.73 4.456 A 3.016 3.016 0 0 1 16.569 5.152 A 2.099 2.099 0 0 1 15.981 6.023 Q 15.35 6.574 14.304 6.574 A 2.553 2.553 0 0 1 13.435 6.432 A 2.194 2.194 0 0 1 12.487 5.761 A 2.789 2.789 0 0 1 11.925 4.638 Q 11.819 4.22 11.806 3.728 A 5.262 5.262 0 0 1 11.804 3.586 L 11.804 2.971 A 4.251 4.251 0 0 1 11.874 2.182 A 3.229 3.229 0 0 1 12.122 1.402 A 2.539 2.539 0 0 1 12.578 0.726 A 2.26 2.26 0 0 1 13.025 0.363 A 2.415 2.415 0 0 1 14.051 0.017 A 3.027 3.027 0 0 1 14.379 0 A 2.962 2.962 0 0 1 15.085 0.08 A 2.065 2.065 0 0 1 16.014 0.569 A 2.16 2.16 0 0 1 16.608 1.531 A 3.086 3.086 0 0 1 16.73 2.145 L 15.882 2.145 Q 15.813 1.666 15.643 1.352 A 1.223 1.223 0 0 0 15.405 1.037 A 1.207 1.207 0 0 0 14.9 0.76 Q 14.713 0.707 14.489 0.697 A 2.396 2.396 0 0 0 14.379 0.694 A 1.753 1.753 0 0 0 13.801 0.786 A 1.463 1.463 0 0 0 13.111 1.292 A 1.989 1.989 0 0 0 12.797 1.912 Q 12.652 2.372 12.652 2.993 L 12.652 3.612 Q 12.652 4.654 13.087 5.269 A 1.38 1.38 0 0 0 14.085 5.872 A 1.814 1.814 0 0 0 14.304 5.884 A 2.497 2.497 0 0 0 14.712 5.853 Q 14.931 5.817 15.107 5.738 A 1.155 1.155 0 0 0 15.383 5.566 Q 15.759 5.247 15.882 4.456 Z M 0.918 0.088 L 2.738 5.366 L 4.566 0.088 L 5.489 0.088 L 3.116 6.486 L 2.369 6.486 L 0 0.088 L 0.918 0.088 Z M 48.375 2.259 L 48.415 1.732 L 49.157 1.732 L 49.157 6.372 A 2.511 2.511 0 0 1 49.087 6.985 A 1.738 1.738 0 0 1 48.61 7.827 A 1.834 1.834 0 0 1 47.68 8.307 A 2.671 2.671 0 0 1 47.14 8.358 A 2.446 2.446 0 0 1 46.134 8.139 A 2.003 2.003 0 0 1 45.724 7.897 A 1.563 1.563 0 0 1 45.382 7.537 L 45.804 7.049 A 1.889 1.889 0 0 0 46.239 7.449 A 1.514 1.514 0 0 0 47.083 7.695 A 1.695 1.695 0 0 0 47.46 7.655 Q 47.728 7.594 47.922 7.438 A 1.037 1.037 0 0 0 48.008 7.361 A 1.09 1.09 0 0 0 48.285 6.868 Q 48.332 6.695 48.339 6.489 A 2.134 2.134 0 0 0 48.34 6.421 L 48.34 6.012 A 1.601 1.601 0 0 1 47.288 6.558 A 2.279 2.279 0 0 1 47.008 6.574 A 1.672 1.672 0 0 1 46.253 6.406 Q 45.931 6.246 45.681 5.933 A 2.14 2.14 0 0 1 45.657 5.902 A 2.316 2.316 0 0 1 45.274 5.122 Q 45.141 4.659 45.141 4.069 Q 45.141 3.208 45.449 2.62 A 2.096 2.096 0 0 1 45.655 2.301 Q 46.169 1.644 47.017 1.644 A 1.971 1.971 0 0 1 47.616 1.73 A 1.55 1.55 0 0 1 48.375 2.259 Z M 40.368 1.732 L 41.137 1.732 L 41.164 2.329 Q 41.7 1.654 42.56 1.644 A 2.234 2.234 0 0 1 42.587 1.644 A 1.905 1.905 0 0 1 43.221 1.74 Q 44.063 2.037 44.106 3.242 A 3.668 3.668 0 0 1 44.108 3.344 L 44.108 6.486 L 43.295 6.486 L 43.295 3.34 A 1.837 1.837 0 0 0 43.273 3.06 Q 43.222 2.753 43.06 2.58 Q 42.874 2.381 42.52 2.343 A 1.66 1.66 0 0 0 42.341 2.334 A 1.253 1.253 0 0 0 41.927 2.4 A 1.123 1.123 0 0 0 41.647 2.545 A 1.432 1.432 0 0 0 41.181 3.098 L 41.181 6.486 L 40.368 6.486 L 40.368 1.732 Z M 25.396 4.241 L 25.396 4.091 A 3.17 3.17 0 0 1 25.472 3.382 A 2.581 2.581 0 0 1 25.666 2.828 A 2.191 2.191 0 0 1 26.114 2.202 A 2.033 2.033 0 0 1 26.422 1.958 Q 26.908 1.644 27.475 1.644 A 2.254 2.254 0 0 1 28.088 1.723 A 1.639 1.639 0 0 1 28.916 2.254 Q 29.43 2.865 29.43 4.004 L 29.43 4.342 L 26.209 4.342 A 2.111 2.111 0 0 0 26.28 4.85 A 1.516 1.516 0 0 0 26.62 5.478 A 1.282 1.282 0 0 0 27.554 5.909 A 1.652 1.652 0 0 0 27.62 5.911 A 1.763 1.763 0 0 0 27.948 5.882 Q 28.172 5.839 28.349 5.735 A 1.827 1.827 0 0 0 28.858 5.287 A 2.068 2.068 0 0 0 28.872 5.269 L 29.369 5.656 A 1.926 1.926 0 0 1 27.969 6.547 A 2.749 2.749 0 0 1 27.576 6.574 A 2.394 2.394 0 0 1 26.824 6.461 A 1.974 1.974 0 0 1 26.002 5.939 Q 25.396 5.304 25.396 4.241 Z M 30.164 4.241 L 30.164 4.091 A 3.17 3.17 0 0 1 30.24 3.382 A 2.581 2.581 0 0 1 30.434 2.828 A 2.191 2.191 0 0 1 30.882 2.202 A 2.033 2.033 0 0 1 31.19 1.958 Q 31.676 1.644 32.243 1.644 A 2.254 2.254 0 0 1 32.856 1.723 A 1.639 1.639 0 0 1 33.684 2.254 Q 34.198 2.865 34.198 4.004 L 34.198 4.342 L 30.977 4.342 A 2.111 2.111 0 0 0 31.048 4.85 A 1.516 1.516 0 0 0 31.388 5.478 A 1.282 1.282 0 0 0 32.322 5.909 A 1.652 1.652 0 0 0 32.388 5.911 A 1.763 1.763 0 0 0 32.716 5.882 Q 32.94 5.839 33.117 5.735 A 1.827 1.827 0 0 0 33.626 5.287 A 2.068 2.068 0 0 0 33.64 5.269 L 34.137 5.656 A 1.926 1.926 0 0 1 32.737 6.547 A 2.749 2.749 0 0 1 32.344 6.574 A 2.394 2.394 0 0 1 31.593 6.461 A 1.974 1.974 0 0 1 30.771 5.939 Q 30.164 5.304 30.164 4.241 Z M 8.697 3.982 L 7.189 3.982 L 7.189 6.486 L 6.346 6.486 L 6.346 0.088 L 8.706 0.088 A 3.315 3.315 0 0 1 9.37 0.151 Q 9.773 0.233 10.084 0.424 A 1.839 1.839 0 0 1 10.351 0.624 A 1.772 1.772 0 0 1 10.939 1.841 A 2.45 2.45 0 0 1 10.947 2.044 Q 10.947 2.975 10.365 3.478 Q 9.886 3.892 9.066 3.966 A 4.14 4.14 0 0 1 8.697 3.982 Z M 22.46 3.982 L 20.953 3.982 L 20.953 6.486 L 20.109 6.486 L 20.109 0.088 L 22.469 0.088 A 3.315 3.315 0 0 1 23.134 0.151 Q 23.537 0.233 23.847 0.424 A 1.839 1.839 0 0 1 24.115 0.624 A 1.772 1.772 0 0 1 24.702 1.841 A 2.45 2.45 0 0 1 24.71 2.044 Q 24.71 2.975 24.128 3.478 Q 23.649 3.892 22.83 3.966 A 4.14 4.14 0 0 1 22.46 3.982 Z M 37.437 1.705 L 37.437 2.461 A 2.251 2.251 0 0 0 37.194 2.435 A 2.782 2.782 0 0 0 37.037 2.43 Q 36.259 2.43 35.968 3.075 A 1.445 1.445 0 0 0 35.952 3.111 L 35.952 6.486 L 35.139 6.486 L 35.139 1.732 L 35.93 1.732 L 35.943 2.281 Q 36.323 1.675 37.006 1.645 A 1.636 1.636 0 0 1 37.077 1.644 Q 37.314 1.644 37.437 1.705 Z M 39.067 1.732 L 39.067 6.486 L 38.254 6.486 L 38.254 1.732 L 39.067 1.732 Z M 48.34 5.186 L 48.34 3.015 A 1.439 1.439 0 0 0 48.039 2.627 Q 47.735 2.357 47.295 2.335 A 1.578 1.578 0 0 0 47.219 2.334 Q 46.627 2.334 46.294 2.793 A 1.51 1.51 0 0 0 46.083 3.221 Q 46.017 3.425 45.986 3.676 A 3.955 3.955 0 0 0 45.958 4.162 Q 45.958 4.966 46.288 5.425 Q 46.617 5.884 47.21 5.884 A 1.32 1.32 0 0 0 47.72 5.79 Q 48.112 5.628 48.34 5.186 Z M 7.189 0.782 L 7.189 3.292 L 8.706 3.292 A 2.313 2.313 0 0 0 9.098 3.26 Q 9.315 3.223 9.487 3.141 A 1.097 1.097 0 0 0 9.743 2.973 A 1.028 1.028 0 0 0 10.06 2.433 Q 10.102 2.265 10.103 2.065 A 1.996 1.996 0 0 0 10.103 2.052 A 1.466 1.466 0 0 0 10.049 1.645 A 1.112 1.112 0 0 0 9.743 1.138 Q 9.382 0.796 8.754 0.782 L 7.189 0.782 Z M 20.953 0.782 L 20.953 3.292 L 22.469 3.292 A 2.313 2.313 0 0 0 22.861 3.26 Q 23.079 3.223 23.251 3.141 A 1.097 1.097 0 0 0 23.506 2.973 A 1.028 1.028 0 0 0 23.824 2.433 Q 23.865 2.265 23.867 2.065 A 1.996 1.996 0 0 0 23.867 2.052 A 1.466 1.466 0 0 0 23.813 1.645 A 1.112 1.112 0 0 0 23.506 1.138 Q 23.146 0.796 22.518 0.782 L 20.953 0.782 Z M 26.235 3.674 L 28.617 3.674 L 28.617 3.612 Q 28.591 3.154 28.42 2.848 A 1.13 1.13 0 0 0 28.283 2.652 A 0.983 0.983 0 0 0 27.629 2.32 A 1.39 1.39 0 0 0 27.475 2.312 A 1.106 1.106 0 0 0 26.952 2.435 A 1.14 1.14 0 0 0 26.648 2.67 A 1.417 1.417 0 0 0 26.372 3.116 Q 26.298 3.3 26.258 3.522 A 2.741 2.741 0 0 0 26.235 3.674 Z M 31.003 3.674 L 33.385 3.674 L 33.385 3.612 Q 33.359 3.154 33.189 2.848 A 1.13 1.13 0 0 0 33.051 2.652 A 0.983 0.983 0 0 0 32.397 2.32 A 1.39 1.39 0 0 0 32.243 2.312 A 1.106 1.106 0 0 0 31.72 2.435 A 1.14 1.14 0 0 0 31.417 2.67 A 1.417 1.417 0 0 0 31.14 3.116 Q 31.066 3.3 31.026 3.522 A 2.741 2.741 0 0 0 31.003 3.674 Z M 38.188 0.47 Q 38.188 0.273 38.309 0.136 Q 38.421 0.01 38.633 0.001 A 0.783 0.783 0 0 1 38.667 0 Q 38.905 0 39.028 0.136 A 0.474 0.474 0 0 1 39.15 0.44 A 0.614 0.614 0 0 1 39.151 0.47 A 0.523 0.523 0 0 1 39.126 0.636 A 0.442 0.442 0 0 1 39.028 0.8 Q 38.915 0.92 38.707 0.931 A 0.803 0.803 0 0 1 38.667 0.932 Q 38.495 0.932 38.384 0.862 A 0.362 0.362 0 0 1 38.309 0.8 A 0.456 0.456 0 0 1 38.191 0.525 A 0.605 0.605 0 0 1 38.188 0.47 Z" vector-effect="non-scaling-stroke"/></g><g transform="translate(12vw, 90vh)" id="svgGroup" stroke-linecap="round" fill-rule="evenodd" font-size="9pt" stroke="#000" stroke-width="0.25mm" fill="#000" style="stroke:#000;stroke-width:0.25mm;fill:#000"><path d="M 4.078 4.72 L 4.926 4.72 A 3.016 3.016 0 0 1 4.765 5.416 A 2.099 2.099 0 0 1 4.177 6.286 Q 3.546 6.838 2.501 6.838 A 2.553 2.553 0 0 1 1.631 6.696 A 2.194 2.194 0 0 1 0.683 6.025 A 2.789 2.789 0 0 1 0.122 4.901 Q 0.015 4.484 0.002 3.992 A 5.262 5.262 0 0 1 0 3.85 L 0 3.234 A 4.251 4.251 0 0 1 0.07 2.445 A 3.229 3.229 0 0 1 0.319 1.666 A 2.539 2.539 0 0 1 0.774 0.99 A 2.26 2.26 0 0 1 1.222 0.626 A 2.415 2.415 0 0 1 2.248 0.281 A 3.027 3.027 0 0 1 2.575 0.264 A 2.962 2.962 0 0 1 3.281 0.343 A 2.065 2.065 0 0 1 4.21 0.833 A 2.16 2.16 0 0 1 4.805 1.795 A 3.086 3.086 0 0 1 4.926 2.408 L 4.078 2.408 Q 4.009 1.929 3.84 1.616 A 1.223 1.223 0 0 0 3.601 1.301 A 1.207 1.207 0 0 0 3.096 1.024 Q 2.909 0.971 2.686 0.961 A 2.396 2.396 0 0 0 2.575 0.958 A 1.753 1.753 0 0 0 1.997 1.049 A 1.463 1.463 0 0 0 1.307 1.556 A 1.989 1.989 0 0 0 0.993 2.175 Q 0.848 2.636 0.848 3.256 L 0.848 3.876 Q 0.848 4.917 1.283 5.533 A 1.38 1.38 0 0 0 2.282 6.135 A 1.814 1.814 0 0 0 2.501 6.148 A 2.497 2.497 0 0 0 2.908 6.117 Q 3.127 6.08 3.303 6.002 A 1.155 1.155 0 0 0 3.579 5.829 Q 3.955 5.511 4.078 4.72 Z M 73.169 0 L 73.169 2.571 A 1.767 1.767 0 0 1 73.835 2.053 A 1.832 1.832 0 0 1 74.575 1.907 A 1.905 1.905 0 0 1 75.209 2.004 Q 76.051 2.3 76.094 3.506 A 3.668 3.668 0 0 1 76.096 3.608 L 76.096 6.75 L 75.283 6.75 L 75.283 3.604 A 1.837 1.837 0 0 0 75.26 3.324 Q 75.21 3.017 75.048 2.843 Q 74.862 2.645 74.508 2.606 A 1.66 1.66 0 0 0 74.329 2.597 A 1.253 1.253 0 0 0 73.915 2.664 A 1.123 1.123 0 0 0 73.635 2.808 A 1.432 1.432 0 0 0 73.169 3.362 L 73.169 6.75 L 72.356 6.75 L 72.356 0 L 73.169 0 Z M 70.348 2.522 L 70.387 1.995 L 71.13 1.995 L 71.13 6.636 A 2.511 2.511 0 0 1 71.059 7.249 A 1.738 1.738 0 0 1 70.583 8.09 A 1.834 1.834 0 0 1 69.653 8.57 A 2.671 2.671 0 0 1 69.113 8.622 A 2.446 2.446 0 0 1 68.106 8.402 A 2.003 2.003 0 0 1 67.696 8.161 A 1.563 1.563 0 0 1 67.355 7.8 L 67.777 7.313 A 1.889 1.889 0 0 0 68.211 7.712 A 1.514 1.514 0 0 0 69.056 7.958 A 1.695 1.695 0 0 0 69.433 7.919 Q 69.701 7.858 69.895 7.702 A 1.037 1.037 0 0 0 69.981 7.625 A 1.09 1.09 0 0 0 70.258 7.132 Q 70.305 6.959 70.311 6.752 A 2.134 2.134 0 0 0 70.313 6.684 L 70.313 6.275 A 1.601 1.601 0 0 1 69.261 6.821 A 2.279 2.279 0 0 1 68.981 6.838 A 1.672 1.672 0 0 1 68.226 6.67 Q 67.904 6.51 67.654 6.197 A 2.14 2.14 0 0 1 67.63 6.166 A 2.316 2.316 0 0 1 67.246 5.386 Q 67.113 4.922 67.113 4.333 Q 67.113 3.472 67.422 2.884 A 2.096 2.096 0 0 1 67.627 2.564 Q 68.142 1.907 68.99 1.907 A 1.971 1.971 0 0 1 69.589 1.994 A 1.55 1.55 0 0 1 70.348 2.522 Z M 11.083 1.995 L 11.852 1.995 L 11.878 2.593 Q 12.415 1.918 13.275 1.907 A 2.234 2.234 0 0 1 13.302 1.907 A 1.905 1.905 0 0 1 13.936 2.004 Q 14.778 2.3 14.821 3.506 A 3.668 3.668 0 0 1 14.823 3.608 L 14.823 6.75 L 14.01 6.75 L 14.01 3.604 A 1.837 1.837 0 0 0 13.988 3.324 Q 13.937 3.017 13.775 2.843 Q 13.589 2.645 13.235 2.606 A 1.66 1.66 0 0 0 13.056 2.597 A 1.253 1.253 0 0 0 12.642 2.664 A 1.123 1.123 0 0 0 12.362 2.808 A 1.432 1.432 0 0 0 11.896 3.362 L 11.896 6.75 L 11.083 6.75 L 11.083 1.995 Z M 16.049 1.995 L 16.818 1.995 L 16.844 2.593 Q 17.381 1.918 18.241 1.907 A 2.234 2.234 0 0 1 18.268 1.907 A 1.905 1.905 0 0 1 18.902 2.004 Q 19.743 2.3 19.786 3.506 A 3.668 3.668 0 0 1 19.789 3.608 L 19.789 6.75 L 18.976 6.75 L 18.976 3.604 A 1.837 1.837 0 0 0 18.953 3.324 Q 18.903 3.017 18.741 2.843 Q 18.554 2.645 18.201 2.606 A 1.66 1.66 0 0 0 18.022 2.597 A 1.253 1.253 0 0 0 17.608 2.664 A 1.123 1.123 0 0 0 17.328 2.808 A 1.432 1.432 0 0 0 16.862 3.362 L 16.862 6.75 L 16.049 6.75 L 16.049 1.995 Z M 40.751 1.995 L 41.52 1.995 L 41.546 2.593 Q 42.082 1.918 42.942 1.907 A 2.234 2.234 0 0 1 42.97 1.907 A 1.905 1.905 0 0 1 43.603 2.004 Q 44.445 2.3 44.488 3.506 A 3.668 3.668 0 0 1 44.49 3.608 L 44.49 6.75 L 43.677 6.75 L 43.677 3.604 A 1.837 1.837 0 0 0 43.655 3.324 Q 43.605 3.017 43.442 2.843 Q 43.256 2.645 42.903 2.606 A 1.66 1.66 0 0 0 42.724 2.597 A 1.253 1.253 0 0 0 42.309 2.664 A 1.123 1.123 0 0 0 42.029 2.808 A 1.432 1.432 0 0 0 41.564 3.362 L 41.564 6.75 L 40.751 6.75 L 40.751 1.995 Z M 28.811 5.251 L 29.58 5.251 A 1.432 1.432 0 0 1 29.381 5.901 A 1.772 1.772 0 0 1 29.298 6.029 A 1.828 1.828 0 0 1 28.689 6.574 A 2.169 2.169 0 0 1 28.606 6.618 A 1.997 1.997 0 0 1 27.69 6.838 A 2.346 2.346 0 0 1 26.993 6.739 A 1.839 1.839 0 0 1 26.145 6.19 A 2.171 2.171 0 0 1 25.682 5.31 Q 25.572 4.909 25.572 4.417 L 25.572 4.28 A 3.24 3.24 0 0 1 25.636 3.624 A 2.57 2.57 0 0 1 25.827 3.045 A 2.008 2.008 0 0 1 26.266 2.431 A 1.892 1.892 0 0 1 26.558 2.206 A 1.943 1.943 0 0 1 27.315 1.934 A 2.529 2.529 0 0 1 27.686 1.907 A 2.196 2.196 0 0 1 28.334 1.999 A 1.786 1.786 0 0 1 29.015 2.386 A 1.693 1.693 0 0 1 29.573 3.535 A 2.239 2.239 0 0 1 29.58 3.63 L 28.811 3.63 Q 28.775 3.168 28.461 2.872 A 1.078 1.078 0 0 0 27.732 2.576 A 1.402 1.402 0 0 0 27.686 2.575 A 1.374 1.374 0 0 0 27.264 2.637 A 1.081 1.081 0 0 0 26.725 3.021 A 1.469 1.469 0 0 0 26.499 3.468 Q 26.433 3.674 26.405 3.923 A 3.514 3.514 0 0 0 26.385 4.311 L 26.385 4.465 Q 26.385 5.287 26.723 5.73 A 1.1 1.1 0 0 0 27.51 6.165 A 1.611 1.611 0 0 0 27.69 6.174 A 1.171 1.171 0 0 0 28.45 5.911 A 1.007 1.007 0 0 0 28.694 5.629 A 0.914 0.914 0 0 0 28.811 5.251 Z M 20.808 4.504 L 20.808 4.355 A 3.17 3.17 0 0 1 20.884 3.646 A 2.581 2.581 0 0 1 21.078 3.092 A 2.191 2.191 0 0 1 21.526 2.466 A 2.033 2.033 0 0 1 21.834 2.221 Q 22.32 1.907 22.887 1.907 A 2.254 2.254 0 0 1 23.5 1.986 A 1.639 1.639 0 0 1 24.328 2.518 Q 24.842 3.129 24.842 4.267 L 24.842 4.605 L 21.621 4.605 A 2.111 2.111 0 0 0 21.692 5.114 A 1.516 1.516 0 0 0 22.032 5.741 A 1.282 1.282 0 0 0 22.966 6.173 A 1.652 1.652 0 0 0 23.032 6.174 A 1.763 1.763 0 0 0 23.36 6.145 Q 23.584 6.103 23.761 5.999 A 1.827 1.827 0 0 0 24.27 5.551 A 2.068 2.068 0 0 0 24.284 5.533 L 24.781 5.919 A 1.926 1.926 0 0 1 23.381 6.811 A 2.749 2.749 0 0 1 22.988 6.838 A 2.394 2.394 0 0 1 22.237 6.725 A 1.974 1.974 0 0 1 21.415 6.203 Q 20.808 5.568 20.808 4.504 Z M 61.255 0.352 L 61.255 6.06 L 64.288 6.06 L 64.288 6.75 L 60.407 6.75 L 60.407 0.352 L 61.255 0.352 Z M 51.293 0.352 L 51.293 4.601 L 52.181 4.601 L 52.181 5.265 L 51.293 5.265 L 51.293 6.75 L 50.476 6.75 L 50.476 5.265 L 47.562 5.265 L 47.562 4.786 L 50.427 0.352 L 51.293 0.352 Z M 56.691 2.592 A 1.544 1.544 0 0 0 56.795 2.021 A 2.226 2.226 0 0 0 56.773 1.707 A 1.566 1.566 0 0 0 56.274 0.738 A 1.754 1.754 0 0 0 55.508 0.333 A 2.443 2.443 0 0 0 54.91 0.264 A 2.539 2.539 0 0 0 54.4 0.312 A 1.767 1.767 0 0 0 53.543 0.738 Q 53.024 1.213 53.024 2.021 A 1.808 1.808 0 0 0 53.025 2.058 A 1.499 1.499 0 0 0 53.271 2.87 A 1.626 1.626 0 0 0 53.433 3.077 A 1.726 1.726 0 0 0 53.943 3.454 A 2.119 2.119 0 0 0 53.843 3.5 A 1.738 1.738 0 0 0 53.158 4.087 A 1.629 1.629 0 0 0 52.875 5.023 A 2.272 2.272 0 0 0 52.885 5.237 A 1.63 1.63 0 0 0 53.431 6.344 A 1.895 1.895 0 0 0 54.281 6.771 A 2.797 2.797 0 0 0 54.91 6.838 A 2.796 2.796 0 0 0 55.509 6.777 A 1.925 1.925 0 0 0 56.384 6.346 A 1.578 1.578 0 0 0 56.859 5.62 A 1.989 1.989 0 0 0 56.944 5.023 A 1.581 1.581 0 0 0 56.652 4.087 Q 56.36 3.674 55.859 3.458 Q 56.29 3.248 56.542 2.874 A 1.449 1.449 0 0 0 56.691 2.592 Z M 30.784 0.844 L 31.597 0.844 L 31.597 1.995 L 32.484 1.995 L 32.484 2.624 L 31.597 2.624 L 31.597 5.572 Q 31.597 5.858 31.715 6.001 Q 31.834 6.144 32.12 6.144 A 1.046 1.046 0 0 0 32.217 6.138 Q 32.32 6.129 32.46 6.101 A 4.024 4.024 0 0 0 32.506 6.091 L 32.506 6.75 A 2.463 2.463 0 0 1 32.074 6.829 A 2.157 2.157 0 0 1 31.882 6.838 Q 31.435 6.838 31.169 6.616 A 0.856 0.856 0 0 1 31.061 6.508 Q 30.833 6.238 30.793 5.78 A 2.351 2.351 0 0 1 30.784 5.572 L 30.784 2.624 L 29.918 2.624 L 29.918 1.995 L 30.784 1.995 L 30.784 0.844 Z M 77.603 0.844 L 78.416 0.844 L 78.416 1.995 L 79.304 1.995 L 79.304 2.624 L 78.416 2.624 L 78.416 5.572 Q 78.416 5.858 78.535 6.001 Q 78.653 6.144 78.939 6.144 A 1.046 1.046 0 0 0 79.037 6.138 Q 79.139 6.129 79.279 6.101 A 4.024 4.024 0 0 0 79.326 6.091 L 79.326 6.75 A 2.463 2.463 0 0 1 78.893 6.829 A 2.157 2.157 0 0 1 78.702 6.838 Q 78.255 6.838 77.988 6.616 A 0.856 0.856 0 0 1 77.88 6.508 Q 77.653 6.238 77.612 5.78 A 2.351 2.351 0 0 1 77.603 5.572 L 77.603 2.624 L 76.737 2.624 L 76.737 1.995 L 77.603 1.995 L 77.603 0.844 Z M 5.735 4.386 L 5.735 4.329 A 3.057 3.057 0 0 1 5.822 3.587 A 2.573 2.573 0 0 1 6.01 3.072 A 2.16 2.16 0 0 1 6.424 2.486 A 1.957 1.957 0 0 1 6.774 2.21 A 2.036 2.036 0 0 1 7.719 1.913 A 2.491 2.491 0 0 1 7.893 1.907 A 2.277 2.277 0 0 1 8.646 2.027 A 1.937 1.937 0 0 1 9.464 2.58 A 2.29 2.29 0 0 1 9.983 3.608 A 3.373 3.373 0 0 1 10.064 4.368 L 10.064 4.425 A 3.114 3.114 0 0 1 9.984 5.142 A 2.577 2.577 0 0 1 9.798 5.671 A 2.056 2.056 0 0 1 9.27 6.361 A 2.001 2.001 0 0 1 9.037 6.53 A 2.045 2.045 0 0 1 8.118 6.829 A 2.529 2.529 0 0 1 7.901 6.838 A 2.262 2.262 0 0 1 7.151 6.718 A 1.938 1.938 0 0 1 6.335 6.166 A 2.297 2.297 0 0 1 5.809 5.111 A 3.357 3.357 0 0 1 5.735 4.386 Z M 35.402 4.386 L 35.402 4.329 A 3.057 3.057 0 0 1 35.489 3.587 A 2.573 2.573 0 0 1 35.677 3.072 A 2.16 2.16 0 0 1 36.092 2.486 A 1.957 1.957 0 0 1 36.442 2.21 A 2.036 2.036 0 0 1 37.386 1.913 A 2.491 2.491 0 0 1 37.56 1.907 A 2.277 2.277 0 0 1 38.313 2.027 A 1.937 1.937 0 0 1 39.131 2.58 A 2.29 2.29 0 0 1 39.65 3.608 A 3.373 3.373 0 0 1 39.731 4.368 L 39.731 4.425 A 3.114 3.114 0 0 1 39.651 5.142 A 2.577 2.577 0 0 1 39.465 5.671 A 2.056 2.056 0 0 1 38.938 6.361 A 2.001 2.001 0 0 1 38.705 6.53 A 2.045 2.045 0 0 1 37.785 6.829 A 2.529 2.529 0 0 1 37.569 6.838 A 2.262 2.262 0 0 1 36.818 6.718 A 1.938 1.938 0 0 1 36.002 6.166 A 2.297 2.297 0 0 1 35.477 5.111 A 3.357 3.357 0 0 1 35.402 4.386 Z M 34.317 1.995 L 34.317 6.75 L 33.504 6.75 L 33.504 1.995 L 34.317 1.995 Z M 66.006 1.995 L 66.006 6.75 L 65.193 6.75 L 65.193 1.995 L 66.006 1.995 Z M 6.552 4.425 A 2.772 2.772 0 0 0 6.6 4.954 Q 6.66 5.264 6.797 5.51 A 1.545 1.545 0 0 0 6.919 5.695 Q 7.286 6.174 7.901 6.174 A 1.269 1.269 0 0 0 8.391 6.083 Q 8.67 5.967 8.873 5.706 A 1.471 1.471 0 0 0 8.886 5.689 A 1.648 1.648 0 0 0 9.141 5.171 Q 9.209 4.945 9.235 4.672 A 3.655 3.655 0 0 0 9.251 4.329 A 2.687 2.687 0 0 0 9.199 3.789 Q 9.132 3.459 8.974 3.2 A 1.586 1.586 0 0 0 8.879 3.061 A 1.231 1.231 0 0 0 8.464 2.705 Q 8.211 2.575 7.893 2.575 Q 7.303 2.575 6.936 3.035 A 1.515 1.515 0 0 0 6.921 3.054 A 1.589 1.589 0 0 0 6.669 3.552 Q 6.6 3.772 6.572 4.039 A 3.676 3.676 0 0 0 6.552 4.425 Z M 36.22 4.425 A 2.772 2.772 0 0 0 36.267 4.954 Q 36.328 5.264 36.465 5.51 A 1.545 1.545 0 0 0 36.587 5.695 Q 36.954 6.174 37.569 6.174 A 1.269 1.269 0 0 0 38.058 6.083 Q 38.338 5.967 38.54 5.706 A 1.471 1.471 0 0 0 38.553 5.689 A 1.648 1.648 0 0 0 38.808 5.171 Q 38.877 4.945 38.903 4.672 A 3.655 3.655 0 0 0 38.918 4.329 A 2.687 2.687 0 0 0 38.867 3.789 Q 38.799 3.459 38.642 3.2 A 1.586 1.586 0 0 0 38.547 3.061 A 1.231 1.231 0 0 0 38.132 2.705 Q 37.879 2.575 37.56 2.575 Q 36.97 2.575 36.604 3.035 A 1.515 1.515 0 0 0 36.589 3.054 A 1.589 1.589 0 0 0 36.337 3.552 Q 36.267 3.772 36.239 4.039 A 3.676 3.676 0 0 0 36.22 4.425 Z M 70.313 5.449 L 70.313 3.278 A 1.439 1.439 0 0 0 70.012 2.891 Q 69.708 2.62 69.268 2.599 A 1.578 1.578 0 0 0 69.192 2.597 Q 68.6 2.597 68.266 3.056 A 1.51 1.51 0 0 0 68.056 3.484 Q 67.99 3.689 67.959 3.939 A 3.955 3.955 0 0 0 67.931 4.425 Q 67.931 5.229 68.26 5.689 Q 68.59 6.148 69.183 6.148 A 1.32 1.32 0 0 0 69.693 6.054 Q 70.085 5.891 70.313 5.449 Z M 50.379 1.639 L 48.485 4.601 L 50.476 4.601 L 50.476 1.463 L 50.379 1.639 Z M 56.131 5.005 A 1.375 1.375 0 0 0 56.072 4.592 A 1.109 1.109 0 0 0 55.791 4.131 A 1.148 1.148 0 0 0 55.119 3.807 A 1.593 1.593 0 0 0 54.901 3.792 A 1.466 1.466 0 0 0 54.512 3.841 A 1.086 1.086 0 0 0 54.02 4.126 A 1.123 1.123 0 0 0 53.706 4.762 A 1.572 1.572 0 0 0 53.688 5.005 A 1.48 1.48 0 0 0 53.73 5.367 A 1.019 1.019 0 0 0 54.011 5.862 Q 54.317 6.158 54.85 6.173 A 2.053 2.053 0 0 0 54.91 6.174 Q 55.403 6.174 55.713 5.94 A 1.018 1.018 0 0 0 55.806 5.86 A 1.041 1.041 0 0 0 56.106 5.292 A 1.518 1.518 0 0 0 56.131 5.005 Z M 54.91 0.932 A 1.259 1.259 0 0 0 54.557 0.979 A 0.973 0.973 0 0 0 54.134 1.228 Q 53.837 1.525 53.837 2.035 A 1.325 1.325 0 0 0 53.882 2.387 A 0.994 0.994 0 0 0 54.13 2.823 A 0.974 0.974 0 0 0 54.692 3.108 A 1.382 1.382 0 0 0 54.91 3.125 A 1.279 1.279 0 0 0 55.255 3.08 A 0.952 0.952 0 0 0 55.69 2.823 A 1.018 1.018 0 0 0 55.965 2.26 A 1.426 1.426 0 0 0 55.982 2.035 A 1.282 1.282 0 0 0 55.932 1.668 A 1.013 1.013 0 0 0 55.679 1.239 Q 55.376 0.932 54.91 0.932 Z M 21.648 3.938 L 24.029 3.938 L 24.029 3.876 Q 24.003 3.417 23.833 3.111 A 1.13 1.13 0 0 0 23.695 2.916 A 0.983 0.983 0 0 0 23.041 2.584 A 1.39 1.39 0 0 0 22.887 2.575 A 1.106 1.106 0 0 0 22.364 2.698 A 1.14 1.14 0 0 0 22.061 2.933 A 1.417 1.417 0 0 0 21.784 3.379 Q 21.71 3.563 21.67 3.785 A 2.741 2.741 0 0 0 21.648 3.938 Z M 33.438 0.734 Q 33.438 0.536 33.559 0.4 Q 33.671 0.274 33.883 0.264 A 0.783 0.783 0 0 1 33.917 0.264 Q 34.154 0.264 34.277 0.4 A 0.474 0.474 0 0 1 34.4 0.703 A 0.614 0.614 0 0 1 34.4 0.734 A 0.523 0.523 0 0 1 34.375 0.9 A 0.442 0.442 0 0 1 34.277 1.063 Q 34.165 1.184 33.957 1.194 A 0.803 0.803 0 0 1 33.917 1.195 Q 33.745 1.195 33.634 1.126 A 0.362 0.362 0 0 1 33.559 1.063 A 0.456 0.456 0 0 1 33.44 0.788 A 0.605 0.605 0 0 1 33.438 0.734 Z M 65.127 0.734 Q 65.127 0.536 65.248 0.4 Q 65.36 0.274 65.572 0.264 A 0.783 0.783 0 0 1 65.606 0.264 Q 65.843 0.264 65.966 0.4 A 0.474 0.474 0 0 1 66.089 0.703 A 0.614 0.614 0 0 1 66.089 0.734 A 0.523 0.523 0 0 1 66.064 0.9 A 0.442 0.442 0 0 1 65.966 1.063 Q 65.854 1.184 65.646 1.194 A 0.803 0.803 0 0 1 65.606 1.195 Q 65.434 1.195 65.323 1.126 A 0.362 0.362 0 0 1 65.248 1.063 A 0.456 0.456 0 0 1 65.129 0.788 A 0.605 0.605 0 0 1 65.127 0.734 Z" vector-effect="non-scaling-stroke"/></g>
</svg>