<?xml version="1.0" encoding="UTF-8"?>
<svg width="80px" height="80px" viewBox="0 0 80 80" version="1.1" xmlns="http://www.w3.org/2000/svg" xmlns:xlink="http://www.w3.org/1999/xlink">
    <title>Icon-Architecture/64/Arch_ Amazon-API-Gateway_64</title>
    
    <g id="Icon-Architecture/64/Arch_-Amazon-API-Gateway_64" stroke="none" stroke-width="1" fill="none" fill-rule="evenodd">
        
        <g id="Icon-Service/64/Amazon-API-Gateway_64" transform="translate(16, 8), scale(.65)" fill="#000000">
            <path d="M26.065,47.6323642 L29,47.6323642 L29,45.6152989 L26.065,45.6152989 L26.065,47.6323642 Z M31,47.6323642 L34,47.6323642 L34,45.6152989 L31,45.6152989 L31,47.6323642 Z M19,6.62946112 L6,13.082053 L6,53.1934132 L19,57.589607 L19,6.62946112 Z M21,19.3934502 L21,45.6152989 L24,45.6152989 L24,47.6323642 L21,47.6323642 L21,58.9914674 C21,59.3162149 20.845,59.6207917 20.584,59.8103959 C20.412,59.9354539 20.207,60 20,60 C19.894,60 19.786,59.9828549 19.682,59.9475563 L4.682,54.8756456 C4.274,54.7374767 4,54.3522172 4,53.9195567 L4,12.4537371 C4,12.0704947 4.217,11.7185168 4.559,11.5490833 L19.559,4.10409539 C19.868,3.94978989 20.235,3.96794348 20.528,4.15250495 C20.821,4.33605789 21,4.65979687 21,5.00874917 L21,17.376385 L24,17.376385 L24,19.3934502 L21,19.3934502 Z M36,47.6323642 L39,47.6323642 L39,45.6152989 L36,45.6152989 L36,47.6323642 Z M36.065,19.3934502 L39,19.3934502 L39,17.376385 L36.065,17.376385 L36.065,19.3934502 Z M31.065,19.3934502 L34,19.3934502 L34,17.376385 L31.065,17.376385 L31.065,19.3934502 Z M26.065,19.3934502 L29,19.3934502 L29,17.376385 L26.065,17.376385 L26.065,19.3934502 Z M58,13.082053 L45,6.62946112 L45,57.589607 L58,53.1934132 L58,13.082053 Z M60,53.9195567 C60,54.3522172 59.726,54.7374767 59.318,54.8756456 L44.318,59.9475563 C44.214,59.9828549 44.106,60 44,60 C43.793,60 43.588,59.9354539 43.416,59.8103959 C43.155,59.6207917 43,59.3162149 43,58.9914674 L43,47.6323642 L41.065,47.6323642 L41.065,45.6152989 L43,45.6152989 L43,19.3934502 L41.065,19.3934502 L41.065,17.376385 L43,17.376385 L43,5.00874917 C43,4.65979687 43.179,4.33605789 43.472,4.15250495 C43.765,3.96794348 44.131,3.94978989 44.441,4.10409539 L59.441,11.5490833 C59.783,11.7185168 60,12.0704947 60,12.4537371 L60,53.9195567 Z M34.934,25.8067093 L33.066,25.0825829 L28.066,38.1935072 L29.934,38.9176337 L34.934,25.8067093 Z M41.707,32.2088745 C42.098,31.8145383 42.098,31.1761371 41.707,30.7828094 L37.707,26.7486788 L36.293,28.174744 L39.586,31.4958419 L36.293,34.8169399 L37.707,36.2430051 L41.707,32.2088745 Z M26.293,36.2430051 L22.293,32.2088745 C21.902,31.8145383 21.902,31.1761371 22.293,30.7828094 L26.293,26.7486788 L27.707,28.174744 L24.414,31.4958419 L27.707,34.8169399 L26.293,36.2430051 Z" id="Amazon-API-Gateway_Icon_64_Squid"></path><g id="svgGroup" transform="translate(76.26445666200102, 74)" stroke-linecap="round" fill-rule="evenodd" font-size="9pt" stroke="#000" stroke-width="0.15mm" fill="#000" style="stroke:#000;stroke-width:0.15mm;fill:#000"><path d="M 8.739 3.563 L 9.252 3.563 A 0.955 0.955 0 0 1 9.119 3.996 A 1.181 1.181 0 0 1 9.065 4.081 A 1.219 1.219 0 0 1 8.658 4.444 A 1.446 1.446 0 0 1 8.603 4.474 A 1.331 1.331 0 0 1 7.992 4.62 A 1.564 1.564 0 0 1 7.527 4.554 A 1.226 1.226 0 0 1 6.962 4.188 Q 6.612 3.791 6.583 3.127 A 2.794 2.794 0 0 1 6.58 3.006 L 6.58 2.915 A 2.16 2.16 0 0 1 6.623 2.478 A 1.713 1.713 0 0 1 6.75 2.092 A 1.339 1.339 0 0 1 7.043 1.682 A 1.261 1.261 0 0 1 7.238 1.532 A 1.295 1.295 0 0 1 7.742 1.351 A 1.686 1.686 0 0 1 7.989 1.333 A 1.464 1.464 0 0 1 8.421 1.394 A 1.191 1.191 0 0 1 8.876 1.652 A 1.129 1.129 0 0 1 9.248 2.418 A 1.493 1.493 0 0 1 9.252 2.481 L 8.739 2.481 A 0.813 0.813 0 0 0 8.671 2.205 A 0.725 0.725 0 0 0 8.506 1.976 A 0.718 0.718 0 0 0 8.02 1.779 A 0.934 0.934 0 0 0 7.989 1.778 A 0.916 0.916 0 0 0 7.708 1.819 A 0.72 0.72 0 0 0 7.349 2.076 A 0.979 0.979 0 0 0 7.198 2.374 Q 7.122 2.61 7.122 2.936 L 7.122 3.038 Q 7.122 3.586 7.348 3.882 Q 7.573 4.178 7.992 4.178 A 0.781 0.781 0 0 0 8.499 4.002 A 0.672 0.672 0 0 0 8.662 3.814 A 0.609 0.609 0 0 0 8.739 3.563 Z M 2.616 4.562 L 2.048 4.562 A 0.421 0.421 0 0 1 2.024 4.501 Q 1.993 4.404 1.972 4.228 A 1.289 1.289 0 0 1 1.557 4.522 A 1.209 1.209 0 0 1 1.069 4.62 A 1.356 1.356 0 0 1 0.717 4.576 A 1.019 1.019 0 0 1 0.3 4.355 A 0.852 0.852 0 0 1 0.001 3.735 A 1.069 1.069 0 0 1 0 3.683 A 1.038 1.038 0 0 1 0.056 3.333 A 0.873 0.873 0 0 1 0.377 2.914 A 1.282 1.282 0 0 1 0.761 2.728 Q 0.932 2.675 1.138 2.654 A 2.912 2.912 0 0 1 1.436 2.64 L 1.963 2.64 L 1.963 2.391 A 0.768 0.768 0 0 0 1.939 2.194 A 0.552 0.552 0 0 0 1.793 1.938 Q 1.649 1.795 1.389 1.773 A 1.166 1.166 0 0 0 1.292 1.77 A 0.95 0.95 0 0 0 1.064 1.796 A 0.712 0.712 0 0 0 0.806 1.916 A 0.57 0.57 0 0 0 0.696 2.021 A 0.395 0.395 0 0 0 0.609 2.271 L 0.065 2.271 Q 0.065 2.033 0.233 1.812 A 1.087 1.087 0 0 1 0.537 1.542 A 1.368 1.368 0 0 1 0.69 1.462 A 1.499 1.499 0 0 1 1.207 1.337 A 1.78 1.78 0 0 1 1.324 1.333 A 1.766 1.766 0 0 1 1.669 1.365 Q 1.978 1.426 2.183 1.607 A 0.931 0.931 0 0 1 2.485 2.158 A 1.332 1.332 0 0 1 2.505 2.361 L 2.505 3.82 A 2.785 2.785 0 0 0 2.517 4.088 Q 2.529 4.214 2.554 4.321 A 1.138 1.138 0 0 0 2.616 4.515 L 2.616 4.562 Z M 6.038 2.965 L 6.038 3.012 Q 6.038 3.6 5.819 4.001 A 1.428 1.428 0 0 1 5.704 4.179 A 1.098 1.098 0 0 1 5.313 4.51 Q 5.089 4.62 4.808 4.62 A 1.36 1.36 0 0 1 4.411 4.565 A 1.041 1.041 0 0 1 3.879 4.195 L 3.853 4.562 L 3.355 4.562 L 3.355 0.062 L 3.897 0.062 L 3.897 1.74 Q 4.225 1.333 4.802 1.333 A 1.223 1.223 0 0 1 5.222 1.402 A 1.053 1.053 0 0 1 5.709 1.77 Q 5.985 2.135 6.029 2.727 A 3.151 3.151 0 0 1 6.038 2.965 Z M 9.73 2.991 L 9.73 2.95 A 2.508 2.508 0 0 1 9.774 2.463 Q 9.833 2.168 9.968 1.936 A 1.432 1.432 0 0 1 10.075 1.777 A 1.156 1.156 0 0 1 10.446 1.458 Q 10.676 1.337 10.962 1.333 A 1.397 1.397 0 0 1 10.981 1.333 A 1.309 1.309 0 0 1 11.379 1.391 A 1.039 1.039 0 0 1 11.862 1.714 L 11.862 0.062 L 12.404 0.062 L 12.404 4.562 L 11.906 4.562 L 11.88 4.222 A 1.061 1.061 0 0 1 11.15 4.61 A 1.529 1.529 0 0 1 10.975 4.62 A 1.067 1.067 0 0 1 10.161 4.268 A 1.385 1.385 0 0 1 10.077 4.169 Q 9.748 3.742 9.731 3.068 A 2.95 2.95 0 0 1 9.73 2.991 Z M 14.593 3.064 L 14.593 2.965 Q 14.593 2.493 14.773 2.123 A 1.461 1.461 0 0 1 15.071 1.706 A 1.356 1.356 0 0 1 15.277 1.542 Q 15.601 1.333 15.979 1.333 A 1.503 1.503 0 0 1 16.387 1.386 A 1.093 1.093 0 0 1 16.94 1.74 A 1.33 1.33 0 0 1 17.186 2.199 Q 17.248 2.394 17.27 2.629 A 2.942 2.942 0 0 1 17.282 2.906 L 17.282 3.132 L 15.135 3.132 A 1.408 1.408 0 0 0 15.182 3.471 A 1.011 1.011 0 0 0 15.409 3.889 A 0.855 0.855 0 0 0 16.031 4.177 A 1.102 1.102 0 0 0 16.075 4.178 A 1.176 1.176 0 0 0 16.294 4.158 Q 16.433 4.132 16.546 4.07 A 0.737 0.737 0 0 0 16.562 4.061 A 1.218 1.218 0 0 0 16.901 3.762 A 1.384 1.384 0 0 0 16.91 3.75 L 17.241 4.008 A 1.284 1.284 0 0 1 16.308 4.602 A 1.833 1.833 0 0 1 16.046 4.62 A 1.596 1.596 0 0 1 15.545 4.545 A 1.316 1.316 0 0 1 14.997 4.197 A 1.424 1.424 0 0 1 14.634 3.489 A 2.069 2.069 0 0 1 14.593 3.064 Z M 18.718 4.562 L 18.176 4.562 L 18.176 1.811 L 17.675 1.811 L 17.675 1.392 L 18.176 1.392 L 18.176 1.066 A 1.535 1.535 0 0 1 18.205 0.757 Q 18.265 0.465 18.448 0.278 Q 18.707 0.014 19.171 0.001 A 1.724 1.724 0 0 1 19.219 0 A 1.422 1.422 0 0 1 19.591 0.05 L 19.562 0.489 A 1.494 1.494 0 0 0 19.35 0.465 A 1.749 1.749 0 0 0 19.269 0.463 Q 19.032 0.463 18.892 0.587 A 0.451 0.451 0 0 0 18.861 0.617 A 0.498 0.498 0 0 0 18.75 0.814 Q 18.718 0.921 18.718 1.058 L 18.718 1.392 L 19.395 1.392 L 19.395 1.811 L 18.718 1.811 L 18.718 4.562 Z M 11.862 3.697 L 11.862 2.241 A 0.917 0.917 0 0 0 11.655 1.977 Q 11.439 1.793 11.115 1.793 Q 10.717 1.793 10.494 2.101 Q 10.272 2.408 10.272 3.012 A 2.108 2.108 0 0 0 10.296 3.34 Q 10.345 3.651 10.494 3.855 A 0.707 0.707 0 0 0 11.002 4.154 A 0.927 0.927 0 0 0 11.109 4.16 A 0.894 0.894 0 0 0 11.444 4.1 Q 11.665 4.012 11.807 3.794 A 1.08 1.08 0 0 0 11.862 3.697 Z M 3.897 2.291 L 3.897 3.662 A 1.019 1.019 0 0 0 4.087 3.933 Q 4.302 4.146 4.629 4.159 A 1.081 1.081 0 0 0 4.673 4.16 Q 5.063 4.16 5.279 3.858 A 0.976 0.976 0 0 0 5.411 3.589 Q 5.494 3.337 5.496 2.974 A 3.339 3.339 0 0 0 5.496 2.95 A 2.312 2.312 0 0 0 5.475 2.629 Q 5.452 2.465 5.404 2.332 A 0.989 0.989 0 0 0 5.282 2.095 A 0.687 0.687 0 0 0 4.782 1.8 A 0.966 0.966 0 0 0 4.667 1.793 A 0.894 0.894 0 0 0 4.327 1.855 Q 4.049 1.968 3.897 2.291 Z M 1.963 3.674 L 1.963 3.023 L 1.538 3.023 A 2.544 2.544 0 0 0 1.2 3.044 Q 0.829 3.094 0.667 3.266 A 0.477 0.477 0 0 0 0.542 3.606 A 0.613 0.613 0 0 0 0.565 3.779 A 0.458 0.458 0 0 0 0.712 4.005 A 0.596 0.596 0 0 0 0.988 4.134 A 0.839 0.839 0 0 0 1.149 4.148 Q 1.403 4.148 1.632 4.017 A 0.89 0.89 0 0 0 1.829 3.865 A 0.738 0.738 0 0 0 1.963 3.674 Z M 15.152 2.687 L 16.74 2.687 L 16.74 2.646 A 1.489 1.489 0 0 0 16.705 2.389 Q 16.671 2.247 16.609 2.136 A 0.753 0.753 0 0 0 16.518 2.005 A 0.655 0.655 0 0 0 16.081 1.784 A 0.926 0.926 0 0 0 15.979 1.778 Q 15.65 1.778 15.428 2.017 Q 15.232 2.227 15.168 2.585 A 1.827 1.827 0 0 0 15.152 2.687 Z" vector-effect="non-scaling-stroke"/></g>
        </g>
    </g>
</svg>