<?xml version="1.0" encoding="UTF-8"?>
<svg width="48px" height="48px" viewBox="0 0 48 48" version="1.1" xmlns="http://www.w3.org/2000/svg" xmlns:xlink="http://www.w3.org/1999/xlink">
    <title>Icon-Resource/Storage/Res_Amazon-Elastic-File-System_Elastic-Throughput_48_Dark</title>
    <g id="Icon-Resource/Storage/Res_Amazon-Elastic-File-System_Elastic-Throughput_48" stroke="none" stroke-width="1" fill="none" fill-rule="evenodd">
        <path transform="translate(0vw, 0vh), scale(.65)" d="M10.104,13 L11.433,13 C11.863,13 12.273,13.185 12.557,13.507 C12.842,13.829 12.975,14.259 12.921,14.686 L12.473,18.273 L17.036,12 L15,12 C14.664,12 14.35,11.831 14.165,11.55 C13.98,11.27 13.948,10.915 14.081,10.606 L16.483,5 L10.905,5 L10.104,13 Z M8.44,14.506 C8.156,14.193 8.017,13.772 8.059,13.351 L8.959,4.351 C9.036,3.581 9.677,3 10.452,3 L17.242,3 C17.748,3 18.215,3.252 18.494,3.675 C18.772,4.097 18.819,4.627 18.62,5.091 L16.516,10 L17.036,10 C17.791,10 18.474,10.418 18.818,11.092 C19.161,11.766 19.098,12.564 18.653,13.176 L11.808,22.588 C11.616,22.853 11.312,23 11,23 C10.876,23 10.751,22.978 10.631,22.93 C10.208,22.762 9.951,22.329 10.007,21.876 L10.867,15 L9.552,15 C9.129,15 8.724,14.82 8.44,14.506 L8.44,14.506 Z M19.618,31 L23.381,31 L21.5,27.236 L19.618,31 Z M17.105,31.553 L20.605,24.553 C20.945,23.875 22.054,23.875 22.394,24.553 L25.894,31.553 C26.049,31.863 26.033,32.231 25.85,32.526 C25.667,32.82 25.346,33 25,33 L18,33 C17.653,33 17.332,32.82 17.149,32.526 C16.966,32.231 16.95,31.863 17.105,31.553 L17.105,31.553 Z M33,35 C34.102,35 35,34.103 35,33 C35,31.897 34.102,31 33,31 C31.897,31 31,31.897 31,33 C31,34.103 31.897,35 33,35 L33,35 Z M33,37 C30.793,37 29,35.206 29,33 C29,30.794 30.793,29 33,29 C35.206,29 37,30.794 37,33 C37,35.206 35.206,37 33,37 L33,37 Z M8,35 L12,35 L12,31 L8,31 L8,35 Z M6,30 C6,29.448 6.447,29 7,29 L13,29 C13.552,29 14,29.448 14,30 L14,36 C14,36.552 13.552,37 13,37 L7,37 C6.447,37 6,36.552 6,36 L6,30 Z M45,19 L43,19 L43,21 L44,21 L44,44 L9,44 L9,43 L7,43 L7,45 C7,45.552 7.447,46 8,46 L45,46 C45.552,46 46,45.552 46,45 L46,20 C46,19.448 45.552,19 45,19 L45,19 Z M40,41 L3,41 C2.447,41 2,40.552 2,40 L2,17 C2,15.346 3.345,14 5,14 L6,14 L6,16 L5,16 C4.448,16 4,16.449 4,17 L4,39 L39,39 L39,17 C39,16.449 38.551,16 38,16 L34,16 C33.541,16 33.141,15.688 33.03,15.243 L32.219,12 L25.781,12 L24.969,15.243 C24.858,15.688 24.458,16 24,16 L21,16 L21,14 L23.218,14 L23.84,11.515 C24.063,10.623 24.861,10 25.781,10 L32.218,10 C33.138,10 33.936,10.623 34.159,11.515 L34.781,14 L38,14 C39.654,14 41,15.346 41,17 L41,40 C41,40.552 40.552,41 40,41 L40,41 Z" id="Fill-1" fill="#000000"></path>
    </g><g transform="translate(12vw, 80vh)" id="svgGroup" stroke-linecap="round" fill-rule="evenodd" font-size="9pt" stroke="#000" stroke-width="0.25mm" fill="#000" style="stroke:#000;stroke-width:0.25mm;fill:#000"><path d="M 3.617 3.103 L 3.617 3.792 L 0.844 3.792 L 0.844 6.06 L 4.065 6.06 L 4.065 6.75 L 0 6.75 L 0 0.352 L 4.021 0.352 L 4.021 1.046 L 0.844 1.046 L 0.844 3.103 L 3.617 3.103 Z M 32.427 3.234 L 32.427 3.924 L 29.742 3.924 L 29.742 6.75 L 28.898 6.75 L 28.898 0.352 L 32.862 0.352 L 32.862 1.046 L 29.742 1.046 L 29.742 3.234 L 32.427 3.234 Z M 15.605 3.393 L 14.788 3.393 Q 14.788 3.059 14.504 2.817 Q 14.221 2.575 13.79 2.575 Q 13.346 2.575 13.096 2.769 A 0.653 0.653 0 0 0 12.921 2.967 Q 12.848 3.098 12.845 3.263 A 0.771 0.771 0 0 0 12.845 3.274 A 0.588 0.588 0 0 0 12.875 3.467 A 0.48 0.48 0 0 0 13.078 3.718 A 1.093 1.093 0 0 0 13.228 3.796 Q 13.393 3.868 13.648 3.937 A 6.581 6.581 0 0 0 13.92 4.003 A 6.318 6.318 0 0 1 14.327 4.108 Q 14.664 4.208 14.906 4.329 A 1.901 1.901 0 0 1 15.162 4.481 Q 15.299 4.579 15.396 4.692 A 1.06 1.06 0 0 1 15.467 4.783 A 1.024 1.024 0 0 1 15.629 5.191 A 1.388 1.388 0 0 1 15.649 5.432 Q 15.649 6.069 15.139 6.453 Q 14.657 6.817 13.903 6.837 A 3.337 3.337 0 0 1 13.816 6.838 A 2.746 2.746 0 0 1 13.282 6.788 A 2.124 2.124 0 0 1 12.806 6.636 A 1.771 1.771 0 0 1 12.372 6.358 A 1.54 1.54 0 0 1 12.118 6.071 Q 11.87 5.708 11.87 5.287 L 12.683 5.287 A 0.932 0.932 0 0 0 12.756 5.612 A 0.827 0.827 0 0 0 13.01 5.935 A 1.072 1.072 0 0 0 13.412 6.128 Q 13.567 6.167 13.748 6.173 A 2.013 2.013 0 0 0 13.816 6.174 A 1.863 1.863 0 0 0 14.112 6.152 Q 14.274 6.126 14.405 6.07 A 0.941 0.941 0 0 0 14.557 5.988 A 0.689 0.689 0 0 0 14.721 5.837 A 0.554 0.554 0 0 0 14.836 5.489 A 0.698 0.698 0 0 0 14.8 5.258 A 0.581 0.581 0 0 0 14.588 4.977 A 1.05 1.05 0 0 0 14.419 4.878 Q 14.23 4.788 13.935 4.712 A 5.392 5.392 0 0 0 13.722 4.663 A 6.342 6.342 0 0 1 13.361 4.575 Q 12.991 4.473 12.742 4.346 Q 12.443 4.194 12.273 3.994 A 1.017 1.017 0 0 1 12.206 3.907 Q 12.032 3.652 12.032 3.3 A 1.206 1.206 0 0 1 12.431 2.396 A 1.694 1.694 0 0 1 12.527 2.312 A 1.752 1.752 0 0 1 13.31 1.952 A 2.471 2.471 0 0 1 13.79 1.907 A 2.559 2.559 0 0 1 14.354 1.966 A 1.757 1.757 0 0 1 15.102 2.325 Q 15.605 2.742 15.605 3.393 Z M 24.86 5.251 L 25.629 5.251 A 1.432 1.432 0 0 1 25.43 5.901 A 1.772 1.772 0 0 1 25.348 6.029 A 1.828 1.828 0 0 1 24.738 6.574 A 2.169 2.169 0 0 1 24.656 6.618 A 1.997 1.997 0 0 1 23.739 6.838 A 2.346 2.346 0 0 1 23.042 6.739 A 1.839 1.839 0 0 1 22.195 6.19 A 2.171 2.171 0 0 1 21.731 5.31 Q 21.621 4.909 21.621 4.417 L 21.621 4.28 A 3.24 3.24 0 0 1 21.685 3.624 A 2.57 2.57 0 0 1 21.876 3.045 A 2.008 2.008 0 0 1 22.316 2.431 A 1.892 1.892 0 0 1 22.608 2.206 A 1.943 1.943 0 0 1 23.364 1.934 A 2.529 2.529 0 0 1 23.735 1.907 A 2.196 2.196 0 0 1 24.383 1.999 A 1.786 1.786 0 0 1 25.064 2.386 A 1.693 1.693 0 0 1 25.623 3.535 A 2.239 2.239 0 0 1 25.629 3.63 L 24.86 3.63 Q 24.825 3.168 24.51 2.872 A 1.078 1.078 0 0 0 23.781 2.576 A 1.402 1.402 0 0 0 23.735 2.575 A 1.374 1.374 0 0 0 23.313 2.637 A 1.081 1.081 0 0 0 22.775 3.021 A 1.469 1.469 0 0 0 22.548 3.468 Q 22.482 3.674 22.454 3.923 A 3.514 3.514 0 0 0 22.434 4.311 L 22.434 4.465 Q 22.434 5.287 22.772 5.73 A 1.1 1.1 0 0 0 23.559 6.165 A 1.611 1.611 0 0 0 23.739 6.174 A 1.171 1.171 0 0 0 24.5 5.911 A 1.007 1.007 0 0 0 24.744 5.629 A 0.914 0.914 0 0 0 24.86 5.251 Z M 10.96 6.75 L 10.107 6.75 A 0.632 0.632 0 0 1 10.072 6.66 Q 10.041 6.562 10.016 6.41 A 3.997 3.997 0 0 1 9.993 6.249 Q 9.426 6.838 8.64 6.838 A 2.033 2.033 0 0 1 8.11 6.772 A 1.529 1.529 0 0 1 7.486 6.44 Q 7.036 6.042 7.036 5.432 Q 7.036 4.689 7.6 4.278 Q 8.165 3.867 9.189 3.867 L 9.98 3.867 L 9.98 3.494 A 1.152 1.152 0 0 0 9.944 3.199 A 0.828 0.828 0 0 0 9.725 2.815 Q 9.509 2.6 9.118 2.568 A 1.748 1.748 0 0 0 8.974 2.562 Q 8.539 2.562 8.244 2.782 Q 7.95 3.001 7.95 3.313 L 7.132 3.313 A 1.041 1.041 0 0 1 7.257 2.825 A 1.409 1.409 0 0 1 7.385 2.626 Q 7.638 2.294 8.071 2.101 A 2.249 2.249 0 0 1 8.846 1.913 A 2.669 2.669 0 0 1 9.022 1.907 A 2.65 2.65 0 0 1 9.539 1.955 Q 9.847 2.016 10.085 2.156 A 1.439 1.439 0 0 1 10.31 2.318 A 1.396 1.396 0 0 1 10.763 3.144 A 1.998 1.998 0 0 1 10.793 3.45 L 10.793 5.638 Q 10.793 6.073 10.867 6.39 A 1.707 1.707 0 0 0 10.96 6.68 L 10.96 6.75 Z M 37.907 4.504 L 37.907 4.355 A 3.17 3.17 0 0 1 37.984 3.646 A 2.581 2.581 0 0 1 38.177 3.092 A 2.191 2.191 0 0 1 38.625 2.466 A 2.033 2.033 0 0 1 38.933 2.221 Q 39.419 1.907 39.986 1.907 A 2.254 2.254 0 0 1 40.599 1.986 A 1.639 1.639 0 0 1 41.427 2.518 Q 41.941 3.129 41.941 4.267 L 41.941 4.605 L 38.72 4.605 A 2.111 2.111 0 0 0 38.791 5.114 A 1.516 1.516 0 0 0 39.131 5.741 A 1.282 1.282 0 0 0 40.065 6.173 A 1.652 1.652 0 0 0 40.131 6.174 A 1.763 1.763 0 0 0 40.459 6.145 Q 40.683 6.103 40.86 5.999 A 1.827 1.827 0 0 0 41.369 5.551 A 2.068 2.068 0 0 0 41.383 5.533 L 41.88 5.919 A 1.926 1.926 0 0 1 40.48 6.811 A 2.749 2.749 0 0 1 40.087 6.838 A 2.394 2.394 0 0 1 39.336 6.725 A 1.974 1.974 0 0 1 38.514 6.203 Q 37.907 5.568 37.907 4.504 Z M 16.998 0.844 L 17.811 0.844 L 17.811 1.995 L 18.699 1.995 L 18.699 2.624 L 17.811 2.624 L 17.811 5.572 Q 17.811 5.858 17.93 6.001 Q 18.048 6.144 18.334 6.144 A 1.046 1.046 0 0 0 18.431 6.138 Q 18.534 6.129 18.674 6.101 A 4.024 4.024 0 0 0 18.721 6.091 L 18.721 6.75 A 2.463 2.463 0 0 1 18.288 6.829 A 2.157 2.157 0 0 1 18.097 6.838 Q 17.65 6.838 17.383 6.616 A 0.856 0.856 0 0 1 17.275 6.508 Q 17.047 6.238 17.007 5.78 A 2.351 2.351 0 0 1 16.998 5.572 L 16.998 2.624 L 16.132 2.624 L 16.132 1.995 L 16.998 1.995 L 16.998 0.844 Z M 5.871 0 L 5.871 6.75 L 5.058 6.75 L 5.058 0 L 5.871 0 Z M 36.813 0 L 36.813 6.75 L 36 6.75 L 36 0 L 36.813 0 Z M 20.531 1.995 L 20.531 6.75 L 19.718 6.75 L 19.718 1.995 L 20.531 1.995 Z M 34.629 1.995 L 34.629 6.75 L 33.816 6.75 L 33.816 1.995 L 34.629 1.995 Z M 9.98 5.418 L 9.98 4.443 L 9.343 4.443 Q 7.849 4.443 7.849 5.317 Q 7.849 5.7 8.104 5.915 A 0.893 0.893 0 0 0 8.517 6.108 A 1.259 1.259 0 0 0 8.758 6.13 A 1.429 1.429 0 0 0 9.483 5.933 A 1.335 1.335 0 0 0 9.779 5.705 A 1.108 1.108 0 0 0 9.98 5.418 Z M 38.747 3.938 L 41.128 3.938 L 41.128 3.876 Q 41.102 3.417 40.932 3.111 A 1.13 1.13 0 0 0 40.794 2.916 A 0.983 0.983 0 0 0 40.14 2.584 A 1.39 1.39 0 0 0 39.986 2.575 A 1.106 1.106 0 0 0 39.463 2.698 A 1.14 1.14 0 0 0 39.16 2.933 A 1.417 1.417 0 0 0 38.883 3.379 Q 38.809 3.563 38.769 3.785 A 2.741 2.741 0 0 0 38.747 3.938 Z M 19.652 0.734 Q 19.652 0.536 19.773 0.4 Q 19.885 0.274 20.097 0.264 A 0.783 0.783 0 0 1 20.131 0.264 Q 20.369 0.264 20.492 0.4 A 0.474 0.474 0 0 1 20.614 0.703 A 0.614 0.614 0 0 1 20.615 0.734 A 0.523 0.523 0 0 1 20.589 0.9 A 0.442 0.442 0 0 1 20.492 1.063 Q 20.379 1.184 20.171 1.194 A 0.803 0.803 0 0 1 20.131 1.195 Q 19.959 1.195 19.848 1.126 A 0.362 0.362 0 0 1 19.773 1.063 A 0.456 0.456 0 0 1 19.655 0.788 A 0.605 0.605 0 0 1 19.652 0.734 Z M 33.75 0.734 Q 33.75 0.536 33.871 0.4 Q 33.983 0.274 34.195 0.264 A 0.783 0.783 0 0 1 34.229 0.264 Q 34.466 0.264 34.589 0.4 A 0.474 0.474 0 0 1 34.712 0.703 A 0.614 0.614 0 0 1 34.712 0.734 A 0.523 0.523 0 0 1 34.687 0.9 A 0.442 0.442 0 0 1 34.589 1.063 Q 34.477 1.184 34.269 1.194 A 0.803 0.803 0 0 1 34.229 1.195 Q 34.057 1.195 33.946 1.126 A 0.362 0.362 0 0 1 33.871 1.063 A 0.456 0.456 0 0 1 33.752 0.788 A 0.605 0.605 0 0 1 33.75 0.734 Z" vector-effect="non-scaling-stroke"/></g><g transform="translate(12vw, 90vh)" id="svgGroup" stroke-linecap="round" fill-rule="evenodd" font-size="9pt" stroke="#000" stroke-width="0.25mm" fill="#000" style="stroke:#000;stroke-width:0.25mm;fill:#000"><path d="M 22.206 1.995 L 22.975 1.995 L 22.997 2.522 Q 23.52 1.907 24.407 1.907 A 2.009 2.009 0 0 1 24.918 1.968 A 1.244 1.244 0 0 1 25.765 2.672 A 1.801 1.801 0 0 1 26.383 2.118 A 1.65 1.65 0 0 1 26.912 1.937 A 2.209 2.209 0 0 1 27.281 1.907 A 2.119 2.119 0 0 1 27.926 1.997 Q 28.852 2.292 28.872 3.564 L 28.872 6.75 L 28.059 6.75 L 28.059 3.612 A 1.781 1.781 0 0 0 28.039 3.332 Q 28.015 3.185 27.965 3.067 A 0.758 0.758 0 0 0 27.826 2.85 A 0.68 0.68 0 0 0 27.573 2.682 Q 27.362 2.597 27.045 2.597 A 1.245 1.245 0 0 0 26.679 2.648 A 1.008 1.008 0 0 0 26.293 2.867 A 1.042 1.042 0 0 0 25.979 3.404 A 1.41 1.41 0 0 0 25.945 3.595 L 25.945 6.75 L 25.128 6.75 L 25.128 3.634 A 1.532 1.532 0 0 0 25.08 3.23 Q 24.953 2.768 24.495 2.643 A 1.457 1.457 0 0 0 24.113 2.597 Q 23.339 2.597 23.039 3.234 A 1.459 1.459 0 0 0 23.019 3.278 L 23.019 6.75 L 22.206 6.75 L 22.206 1.995 Z M 4.636 2.202 L 3.788 2.202 A 1.466 1.466 0 0 0 3.738 1.809 A 1.066 1.066 0 0 0 3.419 1.29 A 1.211 1.211 0 0 0 2.95 1.033 Q 2.698 0.958 2.378 0.958 A 2.286 2.286 0 0 0 1.998 0.988 Q 1.796 1.022 1.633 1.095 A 1.101 1.101 0 0 0 1.404 1.233 A 0.892 0.892 0 0 0 1.059 1.887 A 1.267 1.267 0 0 0 1.055 1.995 A 0.806 0.806 0 0 0 1.323 2.6 A 1.134 1.134 0 0 0 1.387 2.656 A 1.562 1.562 0 0 0 1.625 2.813 Q 1.955 2.993 2.516 3.151 A 8.228 8.228 0 0 1 2.981 3.295 Q 3.216 3.377 3.41 3.464 A 3.297 3.297 0 0 1 3.764 3.645 A 2.342 2.342 0 0 1 4.103 3.889 Q 4.293 4.056 4.415 4.248 A 1.45 1.45 0 0 1 4.432 4.276 A 1.498 1.498 0 0 1 4.628 4.832 A 1.948 1.948 0 0 1 4.65 5.124 A 1.606 1.606 0 0 1 4.527 5.76 Q 4.382 6.101 4.064 6.354 A 1.886 1.886 0 0 1 4.043 6.37 Q 3.437 6.838 2.422 6.838 A 3.023 3.023 0 0 1 1.281 6.623 A 2.917 2.917 0 0 1 1.191 6.585 A 2.383 2.383 0 0 1 0.713 6.307 A 1.874 1.874 0 0 1 0.31 5.893 A 1.689 1.689 0 0 1 0 4.896 L 0.848 4.896 A 1.261 1.261 0 0 0 0.918 5.323 A 1.074 1.074 0 0 0 1.277 5.812 Q 1.661 6.113 2.278 6.144 A 2.87 2.87 0 0 0 2.422 6.148 A 2.628 2.628 0 0 0 2.809 6.121 Q 3.005 6.092 3.164 6.031 A 1.129 1.129 0 0 0 3.445 5.875 Q 3.801 5.603 3.801 5.133 A 1.074 1.074 0 0 0 3.759 4.822 A 0.816 0.816 0 0 0 3.472 4.406 Q 3.142 4.148 2.277 3.898 Q 1.191 3.586 0.697 3.131 Q 0.202 2.676 0.202 2.008 Q 0.202 1.252 0.807 0.758 A 2.121 2.121 0 0 1 1.697 0.335 A 3.087 3.087 0 0 1 2.378 0.264 A 2.913 2.913 0 0 1 3.038 0.336 A 2.372 2.372 0 0 1 3.553 0.519 A 2.051 2.051 0 0 1 4.084 0.889 A 1.834 1.834 0 0 1 4.353 1.222 A 1.798 1.798 0 0 1 4.636 2.202 Z M 36.07 3.103 L 36.07 3.792 L 33.298 3.792 L 33.298 6.06 L 36.519 6.06 L 36.519 6.75 L 32.454 6.75 L 32.454 0.352 L 36.475 0.352 L 36.475 1.046 L 33.298 1.046 L 33.298 3.103 L 36.07 3.103 Z M 67.232 0 L 67.232 2.571 A 1.767 1.767 0 0 1 67.898 2.053 A 1.832 1.832 0 0 1 68.638 1.907 A 1.905 1.905 0 0 1 69.272 2.004 Q 70.114 2.3 70.157 3.506 A 3.668 3.668 0 0 1 70.159 3.608 L 70.159 6.75 L 69.346 6.75 L 69.346 3.604 A 1.837 1.837 0 0 0 69.324 3.324 Q 69.273 3.017 69.111 2.843 Q 68.925 2.645 68.571 2.606 A 1.66 1.66 0 0 0 68.392 2.597 A 1.253 1.253 0 0 0 67.978 2.664 A 1.123 1.123 0 0 0 67.698 2.808 A 1.432 1.432 0 0 0 67.232 3.362 L 67.232 6.75 L 66.419 6.75 L 66.419 0 L 67.232 0 Z M 90.29 0 L 90.29 2.571 A 1.767 1.767 0 0 1 90.956 2.053 A 1.832 1.832 0 0 1 91.696 1.907 A 1.905 1.905 0 0 1 92.33 2.004 Q 93.172 2.3 93.215 3.506 A 3.668 3.668 0 0 1 93.217 3.608 L 93.217 6.75 L 92.404 6.75 L 92.404 3.604 A 1.837 1.837 0 0 0 92.382 3.324 Q 92.332 3.017 92.169 2.843 Q 91.983 2.645 91.629 2.606 A 1.66 1.66 0 0 0 91.45 2.597 A 1.253 1.253 0 0 0 91.036 2.664 A 1.123 1.123 0 0 0 90.756 2.808 A 1.432 1.432 0 0 0 90.29 3.362 L 90.29 6.75 L 89.477 6.75 L 89.477 0 L 90.29 0 Z M 138.775 6.75 L 137.118 4.548 L 136.609 5.08 L 136.609 6.75 L 135.796 6.75 L 135.796 0 L 136.609 0 L 136.609 4.083 L 137.044 3.56 L 138.525 1.995 L 139.513 1.995 L 137.663 3.981 L 139.729 6.75 L 138.775 6.75 Z M 87.469 2.522 L 87.508 1.995 L 88.251 1.995 L 88.251 6.636 A 2.511 2.511 0 0 1 88.18 7.249 A 1.738 1.738 0 0 1 87.704 8.09 A 1.834 1.834 0 0 1 86.774 8.57 A 2.671 2.671 0 0 1 86.234 8.622 A 2.446 2.446 0 0 1 85.228 8.402 A 2.003 2.003 0 0 1 84.817 8.161 A 1.563 1.563 0 0 1 84.476 7.8 L 84.898 7.313 A 1.889 1.889 0 0 0 85.333 7.712 A 1.514 1.514 0 0 0 86.177 7.958 A 1.695 1.695 0 0 0 86.554 7.919 Q 86.822 7.858 87.016 7.702 A 1.037 1.037 0 0 0 87.102 7.625 A 1.09 1.09 0 0 0 87.379 7.132 Q 87.426 6.959 87.433 6.752 A 2.134 2.134 0 0 0 87.434 6.684 L 87.434 6.275 A 1.601 1.601 0 0 1 86.382 6.821 A 2.279 2.279 0 0 1 86.102 6.838 A 1.672 1.672 0 0 1 85.347 6.67 Q 85.025 6.51 84.775 6.197 A 2.14 2.14 0 0 1 84.751 6.166 A 2.316 2.316 0 0 1 84.368 5.386 Q 84.235 4.922 84.235 4.333 Q 84.235 3.472 84.543 2.884 A 2.096 2.096 0 0 1 84.749 2.564 Q 85.263 1.907 86.111 1.907 A 1.971 1.971 0 0 1 86.71 1.994 A 1.55 1.55 0 0 1 87.469 2.522 Z M 13.399 3.393 L 12.582 3.393 Q 12.582 3.059 12.298 2.817 Q 12.015 2.575 11.584 2.575 Q 11.14 2.575 10.89 2.769 A 0.653 0.653 0 0 0 10.715 2.967 Q 10.642 3.098 10.639 3.263 A 0.771 0.771 0 0 0 10.639 3.274 A 0.588 0.588 0 0 0 10.669 3.467 A 0.48 0.48 0 0 0 10.872 3.718 A 1.093 1.093 0 0 0 11.022 3.796 Q 11.187 3.868 11.442 3.937 A 6.581 6.581 0 0 0 11.714 4.003 A 6.318 6.318 0 0 1 12.121 4.108 Q 12.458 4.208 12.7 4.329 A 1.901 1.901 0 0 1 12.956 4.481 Q 13.093 4.579 13.19 4.692 A 1.06 1.06 0 0 1 13.261 4.783 A 1.024 1.024 0 0 1 13.423 5.191 A 1.388 1.388 0 0 1 13.443 5.432 Q 13.443 6.069 12.933 6.453 Q 12.451 6.817 11.697 6.837 A 3.337 3.337 0 0 1 11.61 6.838 A 2.746 2.746 0 0 1 11.076 6.788 A 2.124 2.124 0 0 1 10.6 6.636 A 1.771 1.771 0 0 1 10.166 6.358 A 1.54 1.54 0 0 1 9.912 6.071 Q 9.664 5.708 9.664 5.287 L 10.477 5.287 A 0.932 0.932 0 0 0 10.55 5.612 A 0.827 0.827 0 0 0 10.804 5.935 A 1.072 1.072 0 0 0 11.206 6.128 Q 11.361 6.167 11.542 6.173 A 2.013 2.013 0 0 0 11.61 6.174 A 1.863 1.863 0 0 0 11.906 6.152 Q 12.068 6.126 12.199 6.07 A 0.941 0.941 0 0 0 12.351 5.988 A 0.689 0.689 0 0 0 12.516 5.837 A 0.554 0.554 0 0 0 12.63 5.489 A 0.698 0.698 0 0 0 12.594 5.258 A 0.581 0.581 0 0 0 12.382 4.977 A 1.05 1.05 0 0 0 12.213 4.878 Q 12.024 4.788 11.729 4.712 A 5.392 5.392 0 0 0 11.516 4.663 A 6.342 6.342 0 0 1 11.155 4.575 Q 10.785 4.473 10.536 4.346 Q 10.237 4.194 10.067 3.994 A 1.017 1.017 0 0 1 10 3.907 Q 9.826 3.652 9.826 3.3 A 1.206 1.206 0 0 1 10.225 2.396 A 1.694 1.694 0 0 1 10.321 2.312 A 1.752 1.752 0 0 1 11.104 1.952 A 2.471 2.471 0 0 1 11.584 1.907 A 2.559 2.559 0 0 1 12.148 1.966 A 1.757 1.757 0 0 1 12.896 2.325 Q 13.399 2.742 13.399 3.393 Z M 48.059 3.393 L 47.241 3.393 Q 47.241 3.059 46.958 2.817 Q 46.674 2.575 46.244 2.575 Q 45.8 2.575 45.549 2.769 A 0.653 0.653 0 0 0 45.374 2.967 Q 45.301 3.098 45.299 3.263 A 0.771 0.771 0 0 0 45.299 3.274 A 0.588 0.588 0 0 0 45.329 3.467 A 0.48 0.48 0 0 0 45.532 3.718 A 1.093 1.093 0 0 0 45.682 3.796 Q 45.846 3.868 46.102 3.937 A 6.581 6.581 0 0 0 46.373 4.003 A 6.318 6.318 0 0 1 46.781 4.108 Q 47.118 4.208 47.36 4.329 A 1.901 1.901 0 0 1 47.616 4.481 Q 47.753 4.579 47.85 4.692 A 1.06 1.06 0 0 1 47.92 4.783 A 1.024 1.024 0 0 1 48.083 5.191 A 1.388 1.388 0 0 1 48.103 5.432 Q 48.103 6.069 47.593 6.453 Q 47.111 6.817 46.357 6.837 A 3.337 3.337 0 0 1 46.27 6.838 A 2.746 2.746 0 0 1 45.736 6.788 A 2.124 2.124 0 0 1 45.259 6.636 A 1.771 1.771 0 0 1 44.826 6.358 A 1.54 1.54 0 0 1 44.572 6.071 Q 44.323 5.708 44.323 5.287 L 45.136 5.287 A 0.932 0.932 0 0 0 45.21 5.612 A 0.827 0.827 0 0 0 45.464 5.935 A 1.072 1.072 0 0 0 45.866 6.128 Q 46.02 6.167 46.202 6.173 A 2.013 2.013 0 0 0 46.27 6.174 A 1.863 1.863 0 0 0 46.566 6.152 Q 46.727 6.126 46.859 6.07 A 0.941 0.941 0 0 0 47.011 5.988 A 0.689 0.689 0 0 0 47.175 5.837 A 0.554 0.554 0 0 0 47.29 5.489 A 0.698 0.698 0 0 0 47.253 5.258 A 0.581 0.581 0 0 0 47.041 4.977 A 1.05 1.05 0 0 0 46.873 4.878 Q 46.684 4.788 46.389 4.712 A 5.392 5.392 0 0 0 46.176 4.663 A 6.342 6.342 0 0 1 45.815 4.575 Q 45.445 4.473 45.196 4.346 Q 44.897 4.194 44.726 3.994 A 1.017 1.017 0 0 1 44.66 3.907 Q 44.486 3.652 44.486 3.3 A 1.206 1.206 0 0 1 44.885 2.396 A 1.694 1.694 0 0 1 44.98 2.312 A 1.752 1.752 0 0 1 45.763 1.952 A 2.471 2.471 0 0 1 46.244 1.907 A 2.559 2.559 0 0 1 46.807 1.966 A 1.757 1.757 0 0 1 47.556 2.325 Q 48.059 2.742 48.059 3.393 Z M 5.972 1.995 L 7.159 5.559 L 8.266 1.995 L 9.136 1.995 L 7.225 7.484 Q 6.781 8.67 5.814 8.67 L 5.66 8.657 L 5.357 8.6 L 5.357 7.941 L 5.577 7.958 Q 5.857 7.958 6.053 7.882 A 0.75 0.75 0 0 0 6.221 7.792 A 0.749 0.749 0 0 0 6.381 7.629 Q 6.499 7.47 6.589 7.215 A 2.575 2.575 0 0 0 6.601 7.181 L 6.781 6.697 L 5.085 1.995 L 5.972 1.995 Z M 82.42 6.75 L 82.402 6.28 A 1.526 1.526 0 0 1 81.576 6.775 Q 81.326 6.836 81.028 6.838 A 2.996 2.996 0 0 1 81.009 6.838 A 2.086 2.086 0 0 1 80.549 6.79 Q 80.118 6.693 79.851 6.396 A 1.41 1.41 0 0 1 79.568 5.899 Q 79.451 5.556 79.449 5.089 L 79.449 1.995 L 80.262 1.995 L 80.262 5.067 Q 80.262 6.037 80.969 6.137 A 1.229 1.229 0 0 0 81.141 6.148 A 1.927 1.927 0 0 0 81.592 6.099 Q 82.154 5.964 82.38 5.454 L 82.38 1.995 L 83.193 1.995 L 83.193 6.75 L 82.42 6.75 Z M 102.437 6.75 L 102.419 6.28 A 1.526 1.526 0 0 1 101.593 6.775 Q 101.343 6.836 101.045 6.838 A 2.996 2.996 0 0 1 101.026 6.838 A 2.086 2.086 0 0 1 100.566 6.79 Q 100.135 6.693 99.868 6.396 A 1.41 1.41 0 0 1 99.585 5.899 Q 99.468 5.556 99.466 5.089 L 99.466 1.995 L 100.279 1.995 L 100.279 5.067 Q 100.279 6.037 100.987 6.137 A 1.229 1.229 0 0 0 101.158 6.148 A 1.927 1.927 0 0 0 101.609 6.099 Q 102.171 5.964 102.397 5.454 L 102.397 1.995 L 103.21 1.995 L 103.21 6.75 L 102.437 6.75 Z M 57.314 5.251 L 58.083 5.251 A 1.432 1.432 0 0 1 57.884 5.901 A 1.772 1.772 0 0 1 57.801 6.029 A 1.828 1.828 0 0 1 57.192 6.574 A 2.169 2.169 0 0 1 57.109 6.618 A 1.997 1.997 0 0 1 56.193 6.838 A 2.346 2.346 0 0 1 55.496 6.739 A 1.839 1.839 0 0 1 54.648 6.19 A 2.171 2.171 0 0 1 54.185 5.31 Q 54.075 4.909 54.075 4.417 L 54.075 4.28 A 3.24 3.24 0 0 1 54.139 3.624 A 2.57 2.57 0 0 1 54.33 3.045 A 2.008 2.008 0 0 1 54.769 2.431 A 1.892 1.892 0 0 1 55.061 2.206 A 1.943 1.943 0 0 1 55.818 1.934 A 2.529 2.529 0 0 1 56.189 1.907 A 2.196 2.196 0 0 1 56.837 1.999 A 1.786 1.786 0 0 1 57.518 2.386 A 1.693 1.693 0 0 1 58.076 3.535 A 2.239 2.239 0 0 1 58.083 3.63 L 57.314 3.63 Q 57.278 3.168 56.964 2.872 A 1.078 1.078 0 0 0 56.235 2.576 A 1.402 1.402 0 0 0 56.189 2.575 A 1.374 1.374 0 0 0 55.767 2.637 A 1.081 1.081 0 0 0 55.228 3.021 A 1.469 1.469 0 0 0 55.002 3.468 Q 54.936 3.674 54.908 3.923 A 3.514 3.514 0 0 0 54.888 4.311 L 54.888 4.465 Q 54.888 5.287 55.226 5.73 A 1.1 1.1 0 0 0 56.013 6.165 A 1.611 1.611 0 0 0 56.193 6.174 A 1.171 1.171 0 0 0 56.953 5.911 A 1.007 1.007 0 0 0 57.197 5.629 A 0.914 0.914 0 0 0 57.314 5.251 Z M 65.597 0.352 L 65.597 1.046 L 63.541 1.046 L 63.541 6.75 L 62.701 6.75 L 62.701 1.046 L 60.649 1.046 L 60.649 0.352 L 65.597 0.352 Z M 43.414 6.75 L 42.561 6.75 A 0.632 0.632 0 0 1 42.526 6.66 Q 42.494 6.562 42.47 6.41 A 3.997 3.997 0 0 1 42.447 6.249 Q 41.88 6.838 41.093 6.838 A 2.033 2.033 0 0 1 40.564 6.772 A 1.529 1.529 0 0 1 39.94 6.44 Q 39.489 6.042 39.489 5.432 Q 39.489 4.689 40.054 4.278 Q 40.619 3.867 41.643 3.867 L 42.434 3.867 L 42.434 3.494 A 1.152 1.152 0 0 0 42.398 3.199 A 0.828 0.828 0 0 0 42.179 2.815 Q 41.963 2.6 41.572 2.568 A 1.748 1.748 0 0 0 41.427 2.562 Q 40.992 2.562 40.698 2.782 Q 40.403 3.001 40.403 3.313 L 39.586 3.313 A 1.041 1.041 0 0 1 39.711 2.825 A 1.409 1.409 0 0 1 39.839 2.626 Q 40.091 2.294 40.524 2.101 A 2.249 2.249 0 0 1 41.3 1.913 A 2.669 2.669 0 0 1 41.476 1.907 A 2.65 2.65 0 0 1 41.993 1.955 Q 42.3 2.016 42.539 2.156 A 1.439 1.439 0 0 1 42.763 2.318 A 1.396 1.396 0 0 1 43.217 3.144 A 1.998 1.998 0 0 1 43.247 3.45 L 43.247 5.638 Q 43.247 6.073 43.32 6.39 A 1.707 1.707 0 0 0 43.414 6.68 L 43.414 6.75 Z M 131.638 6.75 L 130.786 6.75 A 0.632 0.632 0 0 1 130.75 6.66 Q 130.719 6.562 130.694 6.41 A 3.997 3.997 0 0 1 130.672 6.249 Q 130.105 6.838 129.318 6.838 A 2.033 2.033 0 0 1 128.789 6.772 A 1.529 1.529 0 0 1 128.164 6.44 Q 127.714 6.042 127.714 5.432 Q 127.714 4.689 128.279 4.278 Q 128.843 3.867 129.867 3.867 L 130.658 3.867 L 130.658 3.494 A 1.152 1.152 0 0 0 130.623 3.199 A 0.828 0.828 0 0 0 130.403 2.815 Q 130.187 2.6 129.797 2.568 A 1.748 1.748 0 0 0 129.652 2.562 Q 129.217 2.562 128.923 2.782 Q 128.628 3.001 128.628 3.313 L 127.811 3.313 A 1.041 1.041 0 0 1 127.936 2.825 A 1.409 1.409 0 0 1 128.063 2.626 Q 128.316 2.294 128.749 2.101 A 2.249 2.249 0 0 1 129.525 1.913 A 2.669 2.669 0 0 1 129.7 1.907 A 2.65 2.65 0 0 1 130.218 1.955 Q 130.525 2.016 130.764 2.156 A 1.439 1.439 0 0 1 130.988 2.318 A 1.396 1.396 0 0 1 131.441 3.144 A 1.998 1.998 0 0 1 131.471 3.45 L 131.471 5.638 Q 131.471 6.073 131.545 6.39 A 1.707 1.707 0 0 0 131.638 6.68 L 131.638 6.75 Z M 98.451 4.351 L 98.451 4.425 Q 98.451 5.511 97.954 6.174 A 1.57 1.57 0 0 1 96.816 6.828 A 2.013 2.013 0 0 1 96.61 6.838 A 2.196 2.196 0 0 1 96.024 6.764 A 1.598 1.598 0 0 1 95.247 6.289 L 95.247 8.578 L 94.434 8.578 L 94.434 1.995 L 95.177 1.995 L 95.216 2.522 A 1.619 1.619 0 0 1 96.356 1.919 A 2.319 2.319 0 0 1 96.596 1.907 A 1.829 1.829 0 0 1 97.233 2.014 A 1.597 1.597 0 0 1 97.952 2.553 Q 98.451 3.199 98.451 4.351 Z M 17.235 4.504 L 17.235 4.355 A 3.17 3.17 0 0 1 17.312 3.646 A 2.581 2.581 0 0 1 17.506 3.092 A 2.191 2.191 0 0 1 17.953 2.466 A 2.033 2.033 0 0 1 18.262 2.221 Q 18.747 1.907 19.314 1.907 A 2.254 2.254 0 0 1 19.927 1.986 A 1.639 1.639 0 0 1 20.756 2.518 Q 21.27 3.129 21.27 4.267 L 21.27 4.605 L 18.048 4.605 A 2.111 2.111 0 0 0 18.12 5.114 A 1.516 1.516 0 0 0 18.459 5.741 A 1.282 1.282 0 0 0 19.393 6.173 A 1.652 1.652 0 0 0 19.459 6.174 A 1.763 1.763 0 0 0 19.787 6.145 Q 20.011 6.103 20.189 5.999 A 1.827 1.827 0 0 0 20.697 5.551 A 2.068 2.068 0 0 0 20.712 5.533 L 21.208 5.919 A 1.926 1.926 0 0 1 19.808 6.811 A 2.749 2.749 0 0 1 19.415 6.838 A 2.394 2.394 0 0 1 18.664 6.725 A 1.974 1.974 0 0 1 17.842 6.203 Q 17.235 5.568 17.235 4.504 Z M 112.962 0.352 L 112.962 4.601 L 113.849 4.601 L 113.849 5.265 L 112.962 5.265 L 112.962 6.75 L 112.144 6.75 L 112.144 5.265 L 109.231 5.265 L 109.231 4.786 L 112.096 0.352 L 112.962 0.352 Z M 123.847 6.75 L 122.076 6.75 L 122.076 0.352 L 123.882 0.352 Q 124.717 0.352 125.359 0.721 Q 126 1.09 126.35 1.771 A 3.19 3.19 0 0 1 126.666 2.8 A 4.073 4.073 0 0 1 126.703 3.335 L 126.703 3.744 Q 126.703 4.649 126.354 5.331 A 2.457 2.457 0 0 1 125.356 6.376 Q 124.708 6.741 123.847 6.75 Z M 118.36 2.592 A 1.544 1.544 0 0 0 118.464 2.021 A 2.226 2.226 0 0 0 118.442 1.707 A 1.566 1.566 0 0 0 117.943 0.738 A 1.754 1.754 0 0 0 117.177 0.333 A 2.443 2.443 0 0 0 116.578 0.264 A 2.539 2.539 0 0 0 116.069 0.312 A 1.767 1.767 0 0 0 115.212 0.738 Q 114.693 1.213 114.693 2.021 A 1.808 1.808 0 0 0 114.693 2.058 A 1.499 1.499 0 0 0 114.939 2.87 A 1.626 1.626 0 0 0 115.101 3.077 A 1.726 1.726 0 0 0 115.611 3.454 A 2.119 2.119 0 0 0 115.512 3.5 A 1.738 1.738 0 0 0 114.827 4.087 A 1.629 1.629 0 0 0 114.544 5.023 A 2.272 2.272 0 0 0 114.553 5.237 A 1.63 1.63 0 0 0 115.1 6.344 A 1.895 1.895 0 0 0 115.95 6.771 A 2.797 2.797 0 0 0 116.578 6.838 A 2.796 2.796 0 0 0 117.177 6.777 A 1.925 1.925 0 0 0 118.053 6.346 A 1.578 1.578 0 0 0 118.527 5.62 A 1.989 1.989 0 0 0 118.613 5.023 A 1.581 1.581 0 0 0 118.321 4.087 Q 118.028 3.674 117.527 3.458 Q 117.958 3.248 118.211 2.874 A 1.449 1.449 0 0 0 118.36 2.592 Z M 14.792 0.844 L 15.605 0.844 L 15.605 1.995 L 16.493 1.995 L 16.493 2.624 L 15.605 2.624 L 15.605 5.572 Q 15.605 5.858 15.724 6.001 Q 15.842 6.144 16.128 6.144 A 1.046 1.046 0 0 0 16.226 6.138 Q 16.328 6.129 16.468 6.101 A 4.024 4.024 0 0 0 16.515 6.091 L 16.515 6.75 A 2.463 2.463 0 0 1 16.082 6.829 A 2.157 2.157 0 0 1 15.891 6.838 Q 15.444 6.838 15.177 6.616 A 0.856 0.856 0 0 1 15.069 6.508 Q 14.842 6.238 14.801 5.78 A 2.351 2.351 0 0 1 14.792 5.572 L 14.792 2.624 L 13.926 2.624 L 13.926 1.995 L 14.792 1.995 L 14.792 0.844 Z M 49.452 0.844 L 50.265 0.844 L 50.265 1.995 L 51.152 1.995 L 51.152 2.624 L 50.265 2.624 L 50.265 5.572 Q 50.265 5.858 50.383 6.001 Q 50.502 6.144 50.788 6.144 A 1.046 1.046 0 0 0 50.885 6.138 Q 50.988 6.129 51.128 6.101 A 4.024 4.024 0 0 0 51.174 6.091 L 51.174 6.75 A 2.463 2.463 0 0 1 50.742 6.829 A 2.157 2.157 0 0 1 50.55 6.838 Q 50.103 6.838 49.837 6.616 A 0.856 0.856 0 0 1 49.729 6.508 Q 49.501 6.238 49.461 5.78 A 2.351 2.351 0 0 1 49.452 5.572 L 49.452 2.624 L 48.586 2.624 L 48.586 1.995 L 49.452 1.995 L 49.452 0.844 Z M 104.735 0.844 L 105.548 0.844 L 105.548 1.995 L 106.436 1.995 L 106.436 2.624 L 105.548 2.624 L 105.548 5.572 Q 105.548 5.858 105.667 6.001 Q 105.785 6.144 106.071 6.144 A 1.046 1.046 0 0 0 106.168 6.138 Q 106.271 6.129 106.411 6.101 A 4.024 4.024 0 0 0 106.458 6.091 L 106.458 6.75 A 2.463 2.463 0 0 1 106.025 6.829 A 2.157 2.157 0 0 1 105.834 6.838 Q 105.387 6.838 105.12 6.616 A 0.856 0.856 0 0 1 105.012 6.508 Q 104.784 6.238 104.744 5.78 A 2.351 2.351 0 0 1 104.735 5.572 L 104.735 2.624 L 103.869 2.624 L 103.869 1.995 L 104.735 1.995 L 104.735 0.844 Z M 38.325 0 L 38.325 6.75 L 37.512 6.75 L 37.512 0 L 38.325 0 Z M 74.118 4.386 L 74.118 4.329 A 3.057 3.057 0 0 1 74.205 3.587 A 2.573 2.573 0 0 1 74.393 3.072 A 2.16 2.16 0 0 1 74.808 2.486 A 1.957 1.957 0 0 1 75.158 2.21 A 2.036 2.036 0 0 1 76.102 1.913 A 2.491 2.491 0 0 1 76.276 1.907 A 2.277 2.277 0 0 1 77.029 2.027 A 1.937 1.937 0 0 1 77.847 2.58 A 2.29 2.29 0 0 1 78.366 3.608 A 3.373 3.373 0 0 1 78.447 4.368 L 78.447 4.425 A 3.114 3.114 0 0 1 78.367 5.142 A 2.577 2.577 0 0 1 78.181 5.671 A 2.056 2.056 0 0 1 77.654 6.361 A 2.001 2.001 0 0 1 77.421 6.53 A 2.045 2.045 0 0 1 76.501 6.829 A 2.529 2.529 0 0 1 76.285 6.838 A 2.262 2.262 0 0 1 75.534 6.718 A 1.938 1.938 0 0 1 74.718 6.166 A 2.297 2.297 0 0 1 74.192 5.111 A 3.357 3.357 0 0 1 74.118 4.386 Z M 73.674 1.969 L 73.674 2.725 A 2.251 2.251 0 0 0 73.432 2.698 A 2.782 2.782 0 0 0 73.275 2.694 Q 72.497 2.694 72.205 3.338 A 1.445 1.445 0 0 0 72.189 3.375 L 72.189 6.75 L 71.376 6.75 L 71.376 1.995 L 72.167 1.995 L 72.18 2.544 Q 72.561 1.938 73.243 1.909 A 1.636 1.636 0 0 1 73.314 1.907 Q 73.551 1.907 73.674 1.969 Z M 135.044 1.969 L 135.044 2.725 A 2.251 2.251 0 0 0 134.801 2.698 A 2.782 2.782 0 0 0 134.644 2.694 Q 133.866 2.694 133.575 3.338 A 1.445 1.445 0 0 0 133.559 3.375 L 133.559 6.75 L 132.746 6.75 L 132.746 1.995 L 133.537 1.995 L 133.55 2.544 Q 133.93 1.938 134.613 1.909 A 1.636 1.636 0 0 1 134.684 1.907 Q 134.921 1.907 135.044 1.969 Z M 123.904 1.046 L 122.92 1.046 L 122.92 6.06 L 123.807 6.06 A 2.519 2.519 0 0 0 124.44 5.985 A 1.747 1.747 0 0 0 125.326 5.454 Q 125.785 4.94 125.855 4.059 A 4.165 4.165 0 0 0 125.868 3.727 L 125.868 3.353 Q 125.868 2.562 125.599 2.027 A 1.864 1.864 0 0 0 125.356 1.659 A 1.687 1.687 0 0 0 124.36 1.09 A 2.499 2.499 0 0 0 123.904 1.046 Z M 52.985 1.995 L 52.985 6.75 L 52.172 6.75 L 52.172 1.995 L 52.985 1.995 Z M 74.936 4.425 A 2.772 2.772 0 0 0 74.983 4.954 Q 75.043 5.264 75.181 5.51 A 1.545 1.545 0 0 0 75.303 5.695 Q 75.67 6.174 76.285 6.174 A 1.269 1.269 0 0 0 76.774 6.083 Q 77.054 5.967 77.256 5.706 A 1.471 1.471 0 0 0 77.269 5.689 A 1.648 1.648 0 0 0 77.524 5.171 Q 77.593 4.945 77.618 4.672 A 3.655 3.655 0 0 0 77.634 4.329 A 2.687 2.687 0 0 0 77.583 3.789 Q 77.515 3.459 77.358 3.2 A 1.586 1.586 0 0 0 77.263 3.061 A 1.231 1.231 0 0 0 76.848 2.705 Q 76.594 2.575 76.276 2.575 Q 75.686 2.575 75.32 3.035 A 1.515 1.515 0 0 0 75.305 3.054 A 1.589 1.589 0 0 0 75.053 3.552 Q 74.983 3.772 74.955 4.039 A 3.676 3.676 0 0 0 74.936 4.425 Z M 95.247 3.252 L 95.247 5.524 Q 95.612 6.174 96.363 6.174 A 1.184 1.184 0 0 0 96.829 6.086 Q 97.086 5.977 97.275 5.735 A 1.403 1.403 0 0 0 97.293 5.711 A 1.501 1.501 0 0 0 97.51 5.28 Q 97.578 5.073 97.61 4.818 A 3.91 3.91 0 0 0 97.638 4.333 Q 97.638 3.746 97.455 3.339 A 1.503 1.503 0 0 0 97.295 3.063 A 1.086 1.086 0 0 0 96.509 2.605 A 1.414 1.414 0 0 0 96.355 2.597 Q 95.694 2.597 95.329 3.121 A 1.623 1.623 0 0 0 95.247 3.252 Z M 87.434 5.449 L 87.434 3.278 A 1.439 1.439 0 0 0 87.133 2.891 Q 86.829 2.62 86.389 2.599 A 1.578 1.578 0 0 0 86.313 2.597 Q 85.721 2.597 85.387 3.056 A 1.51 1.51 0 0 0 85.177 3.484 Q 85.111 3.689 85.08 3.939 A 3.955 3.955 0 0 0 85.052 4.425 Q 85.052 5.229 85.381 5.689 Q 85.711 6.148 86.304 6.148 A 1.32 1.32 0 0 0 86.814 6.054 Q 87.206 5.891 87.434 5.449 Z M 112.048 1.639 L 110.153 4.601 L 112.144 4.601 L 112.144 1.463 L 112.048 1.639 Z M 117.8 5.005 A 1.375 1.375 0 0 0 117.74 4.592 A 1.109 1.109 0 0 0 117.459 4.131 A 1.148 1.148 0 0 0 116.788 3.807 A 1.593 1.593 0 0 0 116.569 3.792 A 1.466 1.466 0 0 0 116.181 3.841 A 1.086 1.086 0 0 0 115.688 4.126 A 1.123 1.123 0 0 0 115.375 4.762 A 1.572 1.572 0 0 0 115.357 5.005 A 1.48 1.48 0 0 0 115.398 5.367 A 1.019 1.019 0 0 0 115.68 5.862 Q 115.986 6.158 116.519 6.173 A 2.053 2.053 0 0 0 116.578 6.174 Q 117.072 6.174 117.382 5.94 A 1.018 1.018 0 0 0 117.475 5.86 A 1.041 1.041 0 0 0 117.774 5.292 A 1.518 1.518 0 0 0 117.8 5.005 Z M 116.578 0.932 A 1.259 1.259 0 0 0 116.226 0.979 A 0.973 0.973 0 0 0 115.803 1.228 Q 115.506 1.525 115.506 2.035 A 1.325 1.325 0 0 0 115.551 2.387 A 0.994 0.994 0 0 0 115.798 2.823 A 0.974 0.974 0 0 0 116.36 3.108 A 1.382 1.382 0 0 0 116.578 3.125 A 1.279 1.279 0 0 0 116.923 3.08 A 0.952 0.952 0 0 0 117.358 2.823 A 1.018 1.018 0 0 0 117.633 2.26 A 1.426 1.426 0 0 0 117.651 2.035 A 1.282 1.282 0 0 0 117.6 1.668 A 1.013 1.013 0 0 0 117.347 1.239 Q 117.044 0.932 116.578 0.932 Z M 42.434 5.418 L 42.434 4.443 L 41.797 4.443 Q 40.302 4.443 40.302 5.317 Q 40.302 5.7 40.557 5.915 A 0.893 0.893 0 0 0 40.971 6.108 A 1.259 1.259 0 0 0 41.212 6.13 A 1.429 1.429 0 0 0 41.937 5.933 A 1.335 1.335 0 0 0 42.233 5.705 A 1.108 1.108 0 0 0 42.434 5.418 Z M 130.658 5.418 L 130.658 4.443 L 130.021 4.443 Q 128.527 4.443 128.527 5.317 Q 128.527 5.7 128.782 5.915 A 0.893 0.893 0 0 0 129.195 6.108 A 1.259 1.259 0 0 0 129.437 6.13 A 1.429 1.429 0 0 0 130.162 5.933 A 1.335 1.335 0 0 0 130.457 5.705 A 1.108 1.108 0 0 0 130.658 5.418 Z M 18.075 3.938 L 20.457 3.938 L 20.457 3.876 Q 20.431 3.417 20.26 3.111 A 1.13 1.13 0 0 0 20.123 2.916 A 0.983 0.983 0 0 0 19.468 2.584 A 1.39 1.39 0 0 0 19.314 2.575 A 1.106 1.106 0 0 0 18.792 2.698 A 1.14 1.14 0 0 0 18.488 2.933 A 1.417 1.417 0 0 0 18.211 3.379 Q 18.138 3.563 18.098 3.785 A 2.741 2.741 0 0 0 18.075 3.938 Z M 52.106 0.734 Q 52.106 0.536 52.227 0.4 Q 52.339 0.274 52.551 0.264 A 0.783 0.783 0 0 1 52.585 0.264 Q 52.822 0.264 52.945 0.4 A 0.474 0.474 0 0 1 53.068 0.703 A 0.614 0.614 0 0 1 53.069 0.734 A 0.523 0.523 0 0 1 53.043 0.9 A 0.442 0.442 0 0 1 52.945 1.063 Q 52.833 1.184 52.625 1.194 A 0.803 0.803 0 0 1 52.585 1.195 Q 52.413 1.195 52.302 1.126 A 0.362 0.362 0 0 1 52.227 1.063 A 0.456 0.456 0 0 1 52.108 0.788 A 0.605 0.605 0 0 1 52.106 0.734 Z" vector-effect="non-scaling-stroke"/></g>
</svgversion="1.0" encoding="UTF-8"?>
<svg width="48px" height="48px" viewBox="0 0 48 48" version="1.1" xmlns="http://www.w3.org/2000/svg" xmlns:xlink="http://www.w3.org/1999/xlink">
    <title>Icon-Resource/Storage/Res_Amazon-Elastic-File-System_Elastic-Throughput_48_Dark</title>
    <g id="Icon-Resource/Storage/Res_Amazon-Elastic-File-System_Elastic-Throughput_48" stroke="none" stroke-width="1" fill="none" fill-rule="evenodd">
        <path transform="translate(0vw, 0vh), scale(.65)" d="M10.104,13 L11.433,13 C11.863,13 12.273,13.185 12.557,13.507 C12.842,13.829 12.975,14.259 12.921,14.686 L12.473,18.273 L17.036,12 L15,12 C14.664,12 14.35,11.831 14.165,11.55 C13.98,11.27 13.948,10.915 14.081,10.606 L16.483,5 L10.905,5 L10.104,13 Z M8.44,14.506 C8.156,14.193 8.017,13.772 8.059,13.351 L8.959,4.351 C9.036,3.581 9.677,3 10.452,3 L17.242,3 C17.748,3 18.215,3.252 18.494,3.675 C18.772,4.097 18.819,4.627 18.62,5.091 L16.516,10 L17.036,10 C17.791,10 18.474,10.418 18.818,11.092 C19.161,11.766 19.098,12.564 18.653,13.176 L11.808,22.588 C11.616,22.853 11.312,23 11,23 C10.876,23 10.751,22.978 10.631,22.93 C10.208,22.762 9.951,22.329 10.007,21.876 L10.867,15 L9.552,15 C9.129,15 8.724,14.82 8.44,14.506 L8.44,14.506 Z M19.618,31 L23.381,31 L21.5,27.236 L19.618,31 Z M17.105,31.553 L20.605,24.553 C20.945,23.875 22.054,23.875 22.394,24.553 L25.894,31.553 C26.049,31.863 26.033,32.231 25.85,32.526 C25.667,32.82 25.346,33 25,33 L18,33 C17.653,33 17.332,32.82 17.149,32.526 C16.966,32.231 16.95,31.863 17.105,31.553 L17.105,31.553 Z M33,35 C34.102,35 35,34.103 35,33 C35,31.897 34.102,31 33,31 C31.897,31 31,31.897 31,33 C31,34.103 31.897,35 33,35 L33,35 Z M33,37 C30.793,37 29,35.206 29,33 C29,30.794 30.793,29 33,29 C35.206,29 37,30.794 37,33 C37,35.206 35.206,37 33,37 L33,37 Z M8,35 L12,35 L12,31 L8,31 L8,35 Z M6,30 C6,29.448 6.447,29 7,29 L13,29 C13.552,29 14,29.448 14,30 L14,36 C14,36.552 13.552,37 13,37 L7,37 C6.447,37 6,36.552 6,36 L6,30 Z M45,19 L43,19 L43,21 L44,21 L44,44 L9,44 L9,43 L7,43 L7,45 C7,45.552 7.447,46 8,46 L45,46 C45.552,46 46,45.552 46,45 L46,20 C46,19.448 45.552,19 45,19 L45,19 Z M40,41 L3,41 C2.447,41 2,40.552 2,40 L2,17 C2,15.346 3.345,14 5,14 L6,14 L6,16 L5,16 C4.448,16 4,16.449 4,17 L4,39 L39,39 L39,17 C39,16.449 38.551,16 38,16 L34,16 C33.541,16 33.141,15.688 33.03,15.243 L32.219,12 L25.781,12 L24.969,15.243 C24.858,15.688 24.458,16 24,16 L21,16 L21,14 L23.218,14 L23.84,11.515 C24.063,10.623 24.861,10 25.781,10 L32.218,10 C33.138,10 33.936,10.623 34.159,11.515 L34.781,14 L38,14 C39.654,14 41,15.346 41,17 L41,40 C41,40.552 40.552,41 40,41 L40,41 Z" id="Fill-1" fill="#000000"></path>
    </g><g transform="translate(12vw, 80vh)" id="svgGroup" stroke-linecap="round" fill-rule="evenodd" font-size="9pt" stroke="#000" stroke-width="0.25mm" fill="#000" style="stroke:#000;stroke-width:0.25mm;fill:#000"><path d="M 3.617 3.103 L 3.617 3.792 L 0.844 3.792 L 0.844 6.06 L 4.065 6.06 L 4.065 6.75 L 0 6.75 L 0 0.352 L 4.021 0.352 L 4.021 1.046 L 0.844 1.046 L 0.844 3.103 L 3.617 3.103 Z M 32.427 3.234 L 32.427 3.924 L 29.742 3.924 L 29.742 6.75 L 28.898 6.75 L 28.898 0.352 L 32.862 0.352 L 32.862 1.046 L 29.742 1.046 L 29.742 3.234 L 32.427 3.234 Z M 15.605 3.393 L 14.788 3.393 Q 14.788 3.059 14.504 2.817 Q 14.221 2.575 13.79 2.575 Q 13.346 2.575 13.096 2.769 A 0.653 0.653 0 0 0 12.921 2.967 Q 12.848 3.098 12.845 3.263 A 0.771 0.771 0 0 0 12.845 3.274 A 0.588 0.588 0 0 0 12.875 3.467 A 0.48 0.48 0 0 0 13.078 3.718 A 1.093 1.093 0 0 0 13.228 3.796 Q 13.393 3.868 13.648 3.937 A 6.581 6.581 0 0 0 13.92 4.003 A 6.318 6.318 0 0 1 14.327 4.108 Q 14.664 4.208 14.906 4.329 A 1.901 1.901 0 0 1 15.162 4.481 Q 15.299 4.579 15.396 4.692 A 1.06 1.06 0 0 1 15.467 4.783 A 1.024 1.024 0 0 1 15.629 5.191 A 1.388 1.388 0 0 1 15.649 5.432 Q 15.649 6.069 15.139 6.453 Q 14.657 6.817 13.903 6.837 A 3.337 3.337 0 0 1 13.816 6.838 A 2.746 2.746 0 0 1 13.282 6.788 A 2.124 2.124 0 0 1 12.806 6.636 A 1.771 1.771 0 0 1 12.372 6.358 A 1.54 1.54 0 0 1 12.118 6.071 Q 11.87 5.708 11.87 5.287 L 12.683 5.287 A 0.932 0.932 0 0 0 12.756 5.612 A 0.827 0.827 0 0 0 13.01 5.935 A 1.072 1.072 0 0 0 13.412 6.128 Q 13.567 6.167 13.748 6.173 A 2.013 2.013 0 0 0 13.816 6.174 A 1.863 1.863 0 0 0 14.112 6.152 Q 14.274 6.126 14.405 6.07 A 0.941 0.941 0 0 0 14.557 5.988 A 0.689 0.689 0 0 0 14.721 5.837 A 0.554 0.554 0 0 0 14.836 5.489 A 0.698 0.698 0 0 0 14.8 5.258 A 0.581 0.581 0 0 0 14.588 4.977 A 1.05 1.05 0 0 0 14.419 4.878 Q 14.23 4.788 13.935 4.712 A 5.392 5.392 0 0 0 13.722 4.663 A 6.342 6.342 0 0 1 13.361 4.575 Q 12.991 4.473 12.742 4.346 Q 12.443 4.194 12.273 3.994 A 1.017 1.017 0 0 1 12.206 3.907 Q 12.032 3.652 12.032 3.3 A 1.206 1.206 0 0 1 12.431 2.396 A 1.694 1.694 0 0 1 12.527 2.312 A 1.752 1.752 0 0 1 13.31 1.952 A 2.471 2.471 0 0 1 13.79 1.907 A 2.559 2.559 0 0 1 14.354 1.966 A 1.757 1.757 0 0 1 15.102 2.325 Q 15.605 2.742 15.605 3.393 Z M 24.86 5.251 L 25.629 5.251 A 1.432 1.432 0 0 1 25.43 5.901 A 1.772 1.772 0 0 1 25.348 6.029 A 1.828 1.828 0 0 1 24.738 6.574 A 2.169 2.169 0 0 1 24.656 6.618 A 1.997 1.997 0 0 1 23.739 6.838 A 2.346 2.346 0 0 1 23.042 6.739 A 1.839 1.839 0 0 1 22.195 6.19 A 2.171 2.171 0 0 1 21.731 5.31 Q 21.621 4.909 21.621 4.417 L 21.621 4.28 A 3.24 3.24 0 0 1 21.685 3.624 A 2.57 2.57 0 0 1 21.876 3.045 A 2.008 2.008 0 0 1 22.316 2.431 A 1.892 1.892 0 0 1 22.608 2.206 A 1.943 1.943 0 0 1 23.364 1.934 A 2.529 2.529 0 0 1 23.735 1.907 A 2.196 2.196 0 0 1 24.383 1.999 A 1.786 1.786 0 0 1 25.064 2.386 A 1.693 1.693 0 0 1 25.623 3.535 A 2.239 2.239 0 0 1 25.629 3.63 L 24.86 3.63 Q 24.825 3.168 24.51 2.872 A 1.078 1.078 0 0 0 23.781 2.576 A 1.402 1.402 0 0 0 23.735 2.575 A 1.374 1.374 0 0 0 23.313 2.637 A 1.081 1.081 0 0 0 22.775 3.021 A 1.469 1.469 0 0 0 22.548 3.468 Q 22.482 3.674 22.454 3.923 A 3.514 3.514 0 0 0 22.434 4.311 L 22.434 4.465 Q 22.434 5.287 22.772 5.73 A 1.1 1.1 0 0 0 23.559 6.165 A 1.611 1.611 0 0 0 23.739 6.174 A 1.171 1.171 0 0 0 24.5 5.911 A 1.007 1.007 0 0 0 24.744 5.629 A 0.914 0.914 0 0 0 24.86 5.251 Z M 10.96 6.75 L 10.107 6.75 A 0.632 0.632 0 0 1 10.072 6.66 Q 10.041 6.562 10.016 6.41 A 3.997 3.997 0 0 1 9.993 6.249 Q 9.426 6.838 8.64 6.838 A 2.033 2.033 0 0 1 8.11 6.772 A 1.529 1.529 0 0 1 7.486 6.44 Q 7.036 6.042 7.036 5.432 Q 7.036 4.689 7.6 4.278 Q 8.165 3.867 9.189 3.867 L 9.98 3.867 L 9.98 3.494 A 1.152 1.152 0 0 0 9.944 3.199 A 0.828 0.828 0 0 0 9.725 2.815 Q 9.509 2.6 9.118 2.568 A 1.748 1.748 0 0 0 8.974 2.562 Q 8.539 2.562 8.244 2.782 Q 7.95 3.001 7.95 3.313 L 7.132 3.313 A 1.041 1.041 0 0 1 7.257 2.825 A 1.409 1.409 0 0 1 7.385 2.626 Q 7.638 2.294 8.071 2.101 A 2.249 2.249 0 0 1 8.846 1.913 A 2.669 2.669 0 0 1 9.022 1.907 A 2.65 2.65 0 0 1 9.539 1.955 Q 9.847 2.016 10.085 2.156 A 1.439 1.439 0 0 1 10.31 2.318 A 1.396 1.396 0 0 1 10.763 3.144 A 1.998 1.998 0 0 1 10.793 3.45 L 10.793 5.638 Q 10.793 6.073 10.867 6.39 A 1.707 1.707 0 0 0 10.96 6.68 L 10.96 6.75 Z M 37.907 4.504 L 37.907 4.355 A 3.17 3.17 0 0 1 37.984 3.646 A 2.581 2.581 0 0 1 38.177 3.092 A 2.191 2.191 0 0 1 38.625 2.466 A 2.033 2.033 0 0 1 38.933 2.221 Q 39.419 1.907 39.986 1.907 A 2.254 2.254 0 0 1 40.599 1.986 A 1.639 1.639 0 0 1 41.427 2.518 Q 41.941 3.129 41.941 4.267 L 41.941 4.605 L 38.72 4.605 A 2.111 2.111 0 0 0 38.791 5.114 A 1.516 1.516 0 0 0 39.131 5.741 A 1.282 1.282 0 0 0 40.065 6.173 A 1.652 1.652 0 0 0 40.131 6.174 A 1.763 1.763 0 0 0 40.459 6.145 Q 40.683 6.103 40.86 5.999 A 1.827 1.827 0 0 0 41.369 5.551 A 2.068 2.068 0 0 0 41.383 5.533 L 41.88 5.919 A 1.926 1.926 0 0 1 40.48 6.811 A 2.749 2.749 0 0 1 40.087 6.838 A 2.394 2.394 0 0 1 39.336 6.725 A 1.974 1.974 0 0 1 38.514 6.203 Q 37.907 5.568 37.907 4.504 Z M 16.998 0.844 L 17.811 0.844 L 17.811 1.995 L 18.699 1.995 L 18.699 2.624 L 17.811 2.624 L 17.811 5.572 Q 17.811 5.858 17.93 6.001 Q 18.048 6.144 18.334 6.144 A 1.046 1.046 0 0 0 18.431 6.138 Q 18.534 6.129 18.674 6.101 A 4.024 4.024 0 0 0 18.721 6.091 L 18.721 6.75 A 2.463 2.463 0 0 1 18.288 6.829 A 2.157 2.157 0 0 1 18.097 6.838 Q 17.65 6.838 17.383 6.616 A 0.856 0.856 0 0 1 17.275 6.508 Q 17.047 6.238 17.007 5.78 A 2.351 2.351 0 0 1 16.998 5.572 L 16.998 2.624 L 16.132 2.624 L 16.132 1.995 L 16.998 1.995 L 16.998 0.844 Z M 5.871 0 L 5.871 6.75 L 5.058 6.75 L 5.058 0 L 5.871 0 Z M 36.813 0 L 36.813 6.75 L 36 6.75 L 36 0 L 36.813 0 Z M 20.531 1.995 L 20.531 6.75 L 19.718 6.75 L 19.718 1.995 L 20.531 1.995 Z M 34.629 1.995 L 34.629 6.75 L 33.816 6.75 L 33.816 1.995 L 34.629 1.995 Z M 9.98 5.418 L 9.98 4.443 L 9.343 4.443 Q 7.849 4.443 7.849 5.317 Q 7.849 5.7 8.104 5.915 A 0.893 0.893 0 0 0 8.517 6.108 A 1.259 1.259 0 0 0 8.758 6.13 A 1.429 1.429 0 0 0 9.483 5.933 A 1.335 1.335 0 0 0 9.779 5.705 A 1.108 1.108 0 0 0 9.98 5.418 Z M 38.747 3.938 L 41.128 3.938 L 41.128 3.876 Q 41.102 3.417 40.932 3.111 A 1.13 1.13 0 0 0 40.794 2.916 A 0.983 0.983 0 0 0 40.14 2.584 A 1.39 1.39 0 0 0 39.986 2.575 A 1.106 1.106 0 0 0 39.463 2.698 A 1.14 1.14 0 0 0 39.16 2.933 A 1.417 1.417 0 0 0 38.883 3.379 Q 38.809 3.563 38.769 3.785 A 2.741 2.741 0 0 0 38.747 3.938 Z M 19.652 0.734 Q 19.652 0.536 19.773 0.4 Q 19.885 0.274 20.097 0.264 A 0.783 0.783 0 0 1 20.131 0.264 Q 20.369 0.264 20.492 0.4 A 0.474 0.474 0 0 1 20.614 0.703 A 0.614 0.614 0 0 1 20.615 0.734 A 0.523 0.523 0 0 1 20.589 0.9 A 0.442 0.442 0 0 1 20.492 1.063 Q 20.379 1.184 20.171 1.194 A 0.803 0.803 0 0 1 20.131 1.195 Q 19.959 1.195 19.848 1.126 A 0.362 0.362 0 0 1 19.773 1.063 A 0.456 0.456 0 0 1 19.655 0.788 A 0.605 0.605 0 0 1 19.652 0.734 Z M 33.75 0.734 Q 33.75 0.536 33.871 0.4 Q 33.983 0.274 34.195 0.264 A 0.783 0.783 0 0 1 34.229 0.264 Q 34.466 0.264 34.589 0.4 A 0.474 0.474 0 0 1 34.712 0.703 A 0.614 0.614 0 0 1 34.712 0.734 A 0.523 0.523 0 0 1 34.687 0.9 A 0.442 0.442 0 0 1 34.589 1.063 Q 34.477 1.184 34.269 1.194 A 0.803 0.803 0 0 1 34.229 1.195 Q 34.057 1.195 33.946 1.126 A 0.362 0.362 0 0 1 33.871 1.063 A 0.456 0.456 0 0 1 33.752 0.788 A 0.605 0.605 0 0 1 33.75 0.734 Z" vector-effect="non-scaling-stroke"/></g><g transform="translate(12vw, 90vh)" id="svgGroup" stroke-linecap="round" fill-rule="evenodd" font-size="9pt" stroke="#000" stroke-width="0.25mm" fill="#000" style="stroke:#000;stroke-width:0.25mm;fill:#000"><path d="M 22.206 1.995 L 22.975 1.995 L 22.997 2.522 Q 23.52 1.907 24.407 1.907 A 2.009 2.009 0 0 1 24.918 1.968 A 1.244 1.244 0 0 1 25.765 2.672 A 1.801 1.801 0 0 1 26.383 2.118 A 1.65 1.65 0 0 1 26.912 1.937 A 2.209 2.209 0 0 1 27.281 1.907 A 2.119 2.119 0 0 1 27.926 1.997 Q 28.852 2.292 28.872 3.564 L 28.872 6.75 L 28.059 6.75 L 28.059 3.612 A 1.781 1.781 0 0 0 28.039 3.332 Q 28.015 3.185 27.965 3.067 A 0.758 0.758 0 0 0 27.826 2.85 A 0.68 0.68 0 0 0 27.573 2.682 Q 27.362 2.597 27.045 2.597 A 1.245 1.245 0 0 0 26.679 2.648 A 1.008 1.008 0 0 0 26.293 2.867 A 1.042 1.042 0 0 0 25.979 3.404 A 1.41 1.41 0 0 0 25.945 3.595 L 25.945 6.75 L 25.128 6.75 L 25.128 3.634 A 1.532 1.532 0 0 0 25.08 3.23 Q 24.953 2.768 24.495 2.643 A 1.457 1.457 0 0 0 24.113 2.597 Q 23.339 2.597 23.039 3.234 A 1.459 1.459 0 0 0 23.019 3.278 L 23.019 6.75 L 22.206 6.75 L 22.206 1.995 Z M 4.636 2.202 L 3.788 2.202 A 1.466 1.466 0 0 0 3.738 1.809 A 1.066 1.066 0 0 0 3.419 1.29 A 1.211 1.211 0 0 0 2.95 1.033 Q 2.698 0.958 2.378 0.958 A 2.286 2.286 0 0 0 1.998 0.988 Q 1.796 1.022 1.633 1.095 A 1.101 1.101 0 0 0 1.404 1.233 A 0.892 0.892 0 0 0 1.059 1.887 A 1.267 1.267 0 0 0 1.055 1.995 A 0.806 0.806 0 0 0 1.323 2.6 A 1.134 1.134 0 0 0 1.387 2.656 A 1.562 1.562 0 0 0 1.625 2.813 Q 1.955 2.993 2.516 3.151 A 8.228 8.228 0 0 1 2.981 3.295 Q 3.216 3.377 3.41 3.464 A 3.297 3.297 0 0 1 3.764 3.645 A 2.342 2.342 0 0 1 4.103 3.889 Q 4.293 4.056 4.415 4.248 A 1.45 1.45 0 0 1 4.432 4.276 A 1.498 1.498 0 0 1 4.628 4.832 A 1.948 1.948 0 0 1 4.65 5.124 A 1.606 1.606 0 0 1 4.527 5.76 Q 4.382 6.101 4.064 6.354 A 1.886 1.886 0 0 1 4.043 6.37 Q 3.437 6.838 2.422 6.838 A 3.023 3.023 0 0 1 1.281 6.623 A 2.917 2.917 0 0 1 1.191 6.585 A 2.383 2.383 0 0 1 0.713 6.307 A 1.874 1.874 0 0 1 0.31 5.893 A 1.689 1.689 0 0 1 0 4.896 L 0.848 4.896 A 1.261 1.261 0 0 0 0.918 5.323 A 1.074 1.074 0 0 0 1.277 5.812 Q 1.661 6.113 2.278 6.144 A 2.87 2.87 0 0 0 2.422 6.148 A 2.628 2.628 0 0 0 2.809 6.121 Q 3.005 6.092 3.164 6.031 A 1.129 1.129 0 0 0 3.445 5.875 Q 3.801 5.603 3.801 5.133 A 1.074 1.074 0 0 0 3.759 4.822 A 0.816 0.816 0 0 0 3.472 4.406 Q 3.142 4.148 2.277 3.898 Q 1.191 3.586 0.697 3.131 Q 0.202 2.676 0.202 2.008 Q 0.202 1.252 0.807 0.758 A 2.121 2.121 0 0 1 1.697 0.335 A 3.087 3.087 0 0 1 2.378 0.264 A 2.913 2.913 0 0 1 3.038 0.336 A 2.372 2.372 0 0 1 3.553 0.519 A 2.051 2.051 0 0 1 4.084 0.889 A 1.834 1.834 0 0 1 4.353 1.222 A 1.798 1.798 0 0 1 4.636 2.202 Z M 36.07 3.103 L 36.07 3.792 L 33.298 3.792 L 33.298 6.06 L 36.519 6.06 L 36.519 6.75 L 32.454 6.75 L 32.454 0.352 L 36.475 0.352 L 36.475 1.046 L 33.298 1.046 L 33.298 3.103 L 36.07 3.103 Z M 67.232 0 L 67.232 2.571 A 1.767 1.767 0 0 1 67.898 2.053 A 1.832 1.832 0 0 1 68.638 1.907 A 1.905 1.905 0 0 1 69.272 2.004 Q 70.114 2.3 70.157 3.506 A 3.668 3.668 0 0 1 70.159 3.608 L 70.159 6.75 L 69.346 6.75 L 69.346 3.604 A 1.837 1.837 0 0 0 69.324 3.324 Q 69.273 3.017 69.111 2.843 Q 68.925 2.645 68.571 2.606 A 1.66 1.66 0 0 0 68.392 2.597 A 1.253 1.253 0 0 0 67.978 2.664 A 1.123 1.123 0 0 0 67.698 2.808 A 1.432 1.432 0 0 0 67.232 3.362 L 67.232 6.75 L 66.419 6.75 L 66.419 0 L 67.232 0 Z M 90.29 0 L 90.29 2.571 A 1.767 1.767 0 0 1 90.956 2.053 A 1.832 1.832 0 0 1 91.696 1.907 A 1.905 1.905 0 0 1 92.33 2.004 Q 93.172 2.3 93.215 3.506 A 3.668 3.668 0 0 1 93.217 3.608 L 93.217 6.75 L 92.404 6.75 L 92.404 3.604 A 1.837 1.837 0 0 0 92.382 3.324 Q 92.332 3.017 92.169 2.843 Q 91.983 2.645 91.629 2.606 A 1.66 1.66 0 0 0 91.45 2.597 A 1.253 1.253 0 0 0 91.036 2.664 A 1.123 1.123 0 0 0 90.756 2.808 A 1.432 1.432 0 0 0 90.29 3.362 L 90.29 6.75 L 89.477 6.75 L 89.477 0 L 90.29 0 Z M 138.775 6.75 L 137.118 4.548 L 136.609 5.08 L 136.609 6.75 L 135.796 6.75 L 135.796 0 L 136.609 0 L 136.609 4.083 L 137.044 3.56 L 138.525 1.995 L 139.513 1.995 L 137.663 3.981 L 139.729 6.75 L 138.775 6.75 Z M 87.469 2.522 L 87.508 1.995 L 88.251 1.995 L 88.251 6.636 A 2.511 2.511 0 0 1 88.18 7.249 A 1.738 1.738 0 0 1 87.704 8.09 A 1.834 1.834 0 0 1 86.774 8.57 A 2.671 2.671 0 0 1 86.234 8.622 A 2.446 2.446 0 0 1 85.228 8.402 A 2.003 2.003 0 0 1 84.817 8.161 A 1.563 1.563 0 0 1 84.476 7.8 L 84.898 7.313 A 1.889 1.889 0 0 0 85.333 7.712 A 1.514 1.514 0 0 0 86.177 7.958 A 1.695 1.695 0 0 0 86.554 7.919 Q 86.822 7.858 87.016 7.702 A 1.037 1.037 0 0 0 87.102 7.625 A 1.09 1.09 0 0 0 87.379 7.132 Q 87.426 6.959 87.433 6.752 A 2.134 2.134 0 0 0 87.434 6.684 L 87.434 6.275 A 1.601 1.601 0 0 1 86.382 6.821 A 2.279 2.279 0 0 1 86.102 6.838 A 1.672 1.672 0 0 1 85.347 6.67 Q 85.025 6.51 84.775 6.197 A 2.14 2.14 0 0 1 84.751 6.166 A 2.316 2.316 0 0 1 84.368 5.386 Q 84.235 4.922 84.235 4.333 Q 84.235 3.472 84.543 2.884 A 2.096 2.096 0 0 1 84.749 2.564 Q 85.263 1.907 86.111 1.907 A 1.971 1.971 0 0 1 86.71 1.994 A 1.55 1.55 0 0 1 87.469 2.522 Z M 13.399 3.393 L 12.582 3.393 Q 12.582 3.059 12.298 2.817 Q 12.015 2.575 11.584 2.575 Q 11.14 2.575 10.89 2.769 A 0.653 0.653 0 0 0 10.715 2.967 Q 10.642 3.098 10.639 3.263 A 0.771 0.771 0 0 0 10.639 3.274 A 0.588 0.588 0 0 0 10.669 3.467 A 0.48 0.48 0 0 0 10.872 3.718 A 1.093 1.093 0 0 0 11.022 3.796 Q 11.187 3.868 11.442 3.937 A 6.581 6.581 0 0 0 11.714 4.003 A 6.318 6.318 0 0 1 12.121 4.108 Q 12.458 4.208 12.7 4.329 A 1.901 1.901 0 0 1 12.956 4.481 Q 13.093 4.579 13.19 4.692 A 1.06 1.06 0 0 1 13.261 4.783 A 1.024 1.024 0 0 1 13.423 5.191 A 1.388 1.388 0 0 1 13.443 5.432 Q 13.443 6.069 12.933 6.453 Q 12.451 6.817 11.697 6.837 A 3.337 3.337 0 0 1 11.61 6.838 A 2.746 2.746 0 0 1 11.076 6.788 A 2.124 2.124 0 0 1 10.6 6.636 A 1.771 1.771 0 0 1 10.166 6.358 A 1.54 1.54 0 0 1 9.912 6.071 Q 9.664 5.708 9.664 5.287 L 10.477 5.287 A 0.932 0.932 0 0 0 10.55 5.612 A 0.827 0.827 0 0 0 10.804 5.935 A 1.072 1.072 0 0 0 11.206 6.128 Q 11.361 6.167 11.542 6.173 A 2.013 2.013 0 0 0 11.61 6.174 A 1.863 1.863 0 0 0 11.906 6.152 Q 12.068 6.126 12.199 6.07 A 0.941 0.941 0 0 0 12.351 5.988 A 0.689 0.689 0 0 0 12.516 5.837 A 0.554 0.554 0 0 0 12.63 5.489 A 0.698 0.698 0 0 0 12.594 5.258 A 0.581 0.581 0 0 0 12.382 4.977 A 1.05 1.05 0 0 0 12.213 4.878 Q 12.024 4.788 11.729 4.712 A 5.392 5.392 0 0 0 11.516 4.663 A 6.342 6.342 0 0 1 11.155 4.575 Q 10.785 4.473 10.536 4.346 Q 10.237 4.194 10.067 3.994 A 1.017 1.017 0 0 1 10 3.907 Q 9.826 3.652 9.826 3.3 A 1.206 1.206 0 0 1 10.225 2.396 A 1.694 1.694 0 0 1 10.321 2.312 A 1.752 1.752 0 0 1 11.104 1.952 A 2.471 2.471 0 0 1 11.584 1.907 A 2.559 2.559 0 0 1 12.148 1.966 A 1.757 1.757 0 0 1 12.896 2.325 Q 13.399 2.742 13.399 3.393 Z M 48.059 3.393 L 47.241 3.393 Q 47.241 3.059 46.958 2.817 Q 46.674 2.575 46.244 2.575 Q 45.8 2.575 45.549 2.769 A 0.653 0.653 0 0 0 45.374 2.967 Q 45.301 3.098 45.299 3.263 A 0.771 0.771 0 0 0 45.299 3.274 A 0.588 0.588 0 0 0 45.329 3.467 A 0.48 0.48 0 0 0 45.532 3.718 A 1.093 1.093 0 0 0 45.682 3.796 Q 45.846 3.868 46.102 3.937 A 6.581 6.581 0 0 0 46.373 4.003 A 6.318 6.318 0 0 1 46.781 4.108 Q 47.118 4.208 47.36 4.329 A 1.901 1.901 0 0 1 47.616 4.481 Q 47.753 4.579 47.85 4.692 A 1.06 1.06 0 0 1 47.92 4.783 A 1.024 1.024 0 0 1 48.083 5.191 A 1.388 1.388 0 0 1 48.103 5.432 Q 48.103 6.069 47.593 6.453 Q 47.111 6.817 46.357 6.837 A 3.337 3.337 0 0 1 46.27 6.838 A 2.746 2.746 0 0 1 45.736 6.788 A 2.124 2.124 0 0 1 45.259 6.636 A 1.771 1.771 0 0 1 44.826 6.358 A 1.54 1.54 0 0 1 44.572 6.071 Q 44.323 5.708 44.323 5.287 L 45.136 5.287 A 0.932 0.932 0 0 0 45.21 5.612 A 0.827 0.827 0 0 0 45.464 5.935 A 1.072 1.072 0 0 0 45.866 6.128 Q 46.02 6.167 46.202 6.173 A 2.013 2.013 0 0 0 46.27 6.174 A 1.863 1.863 0 0 0 46.566 6.152 Q 46.727 6.126 46.859 6.07 A 0.941 0.941 0 0 0 47.011 5.988 A 0.689 0.689 0 0 0 47.175 5.837 A 0.554 0.554 0 0 0 47.29 5.489 A 0.698 0.698 0 0 0 47.253 5.258 A 0.581 0.581 0 0 0 47.041 4.977 A 1.05 1.05 0 0 0 46.873 4.878 Q 46.684 4.788 46.389 4.712 A 5.392 5.392 0 0 0 46.176 4.663 A 6.342 6.342 0 0 1 45.815 4.575 Q 45.445 4.473 45.196 4.346 Q 44.897 4.194 44.726 3.994 A 1.017 1.017 0 0 1 44.66 3.907 Q 44.486 3.652 44.486 3.3 A 1.206 1.206 0 0 1 44.885 2.396 A 1.694 1.694 0 0 1 44.98 2.312 A 1.752 1.752 0 0 1 45.763 1.952 A 2.471 2.471 0 0 1 46.244 1.907 A 2.559 2.559 0 0 1 46.807 1.966 A 1.757 1.757 0 0 1 47.556 2.325 Q 48.059 2.742 48.059 3.393 Z M 5.972 1.995 L 7.159 5.559 L 8.266 1.995 L 9.136 1.995 L 7.225 7.484 Q 6.781 8.67 5.814 8.67 L 5.66 8.657 L 5.357 8.6 L 5.357 7.941 L 5.577 7.958 Q 5.857 7.958 6.053 7.882 A 0.75 0.75 0 0 0 6.221 7.792 A 0.749 0.749 0 0 0 6.381 7.629 Q 6.499 7.47 6.589 7.215 A 2.575 2.575 0 0 0 6.601 7.181 L 6.781 6.697 L 5.085 1.995 L 5.972 1.995 Z M 82.42 6.75 L 82.402 6.28 A 1.526 1.526 0 0 1 81.576 6.775 Q 81.326 6.836 81.028 6.838 A 2.996 2.996 0 0 1 81.009 6.838 A 2.086 2.086 0 0 1 80.549 6.79 Q 80.118 6.693 79.851 6.396 A 1.41 1.41 0 0 1 79.568 5.899 Q 79.451 5.556 79.449 5.089 L 79.449 1.995 L 80.262 1.995 L 80.262 5.067 Q 80.262 6.037 80.969 6.137 A 1.229 1.229 0 0 0 81.141 6.148 A 1.927 1.927 0 0 0 81.592 6.099 Q 82.154 5.964 82.38 5.454 L 82.38 1.995 L 83.193 1.995 L 83.193 6.75 L 82.42 6.75 Z M 102.437 6.75 L 102.419 6.28 A 1.526 1.526 0 0 1 101.593 6.775 Q 101.343 6.836 101.045 6.838 A 2.996 2.996 0 0 1 101.026 6.838 A 2.086 2.086 0 0 1 100.566 6.79 Q 100.135 6.693 99.868 6.396 A 1.41 1.41 0 0 1 99.585 5.899 Q 99.468 5.556 99.466 5.089 L 99.466 1.995 L 100.279 1.995 L 100.279 5.067 Q 100.279 6.037 100.987 6.137 A 1.229 1.229 0 0 0 101.158 6.148 A 1.927 1.927 0 0 0 101.609 6.099 Q 102.171 5.964 102.397 5.454 L 102.397 1.995 L 103.21 1.995 L 103.21 6.75 L 102.437 6.75 Z M 57.314 5.251 L 58.083 5.251 A 1.432 1.432 0 0 1 57.884 5.901 A 1.772 1.772 0 0 1 57.801 6.029 A 1.828 1.828 0 0 1 57.192 6.574 A 2.169 2.169 0 0 1 57.109 6.618 A 1.997 1.997 0 0 1 56.193 6.838 A 2.346 2.346 0 0 1 55.496 6.739 A 1.839 1.839 0 0 1 54.648 6.19 A 2.171 2.171 0 0 1 54.185 5.31 Q 54.075 4.909 54.075 4.417 L 54.075 4.28 A 3.24 3.24 0 0 1 54.139 3.624 A 2.57 2.57 0 0 1 54.33 3.045 A 2.008 2.008 0 0 1 54.769 2.431 A 1.892 1.892 0 0 1 55.061 2.206 A 1.943 1.943 0 0 1 55.818 1.934 A 2.529 2.529 0 0 1 56.189 1.907 A 2.196 2.196 0 0 1 56.837 1.999 A 1.786 1.786 0 0 1 57.518 2.386 A 1.693 1.693 0 0 1 58.076 3.535 A 2.239 2.239 0 0 1 58.083 3.63 L 57.314 3.63 Q 57.278 3.168 56.964 2.872 A 1.078 1.078 0 0 0 56.235 2.576 A 1.402 1.402 0 0 0 56.189 2.575 A 1.374 1.374 0 0 0 55.767 2.637 A 1.081 1.081 0 0 0 55.228 3.021 A 1.469 1.469 0 0 0 55.002 3.468 Q 54.936 3.674 54.908 3.923 A 3.514 3.514 0 0 0 54.888 4.311 L 54.888 4.465 Q 54.888 5.287 55.226 5.73 A 1.1 1.1 0 0 0 56.013 6.165 A 1.611 1.611 0 0 0 56.193 6.174 A 1.171 1.171 0 0 0 56.953 5.911 A 1.007 1.007 0 0 0 57.197 5.629 A 0.914 0.914 0 0 0 57.314 5.251 Z M 65.597 0.352 L 65.597 1.046 L 63.541 1.046 L 63.541 6.75 L 62.701 6.75 L 62.701 1.046 L 60.649 1.046 L 60.649 0.352 L 65.597 0.352 Z M 43.414 6.75 L 42.561 6.75 A 0.632 0.632 0 0 1 42.526 6.66 Q 42.494 6.562 42.47 6.41 A 3.997 3.997 0 0 1 42.447 6.249 Q 41.88 6.838 41.093 6.838 A 2.033 2.033 0 0 1 40.564 6.772 A 1.529 1.529 0 0 1 39.94 6.44 Q 39.489 6.042 39.489 5.432 Q 39.489 4.689 40.054 4.278 Q 40.619 3.867 41.643 3.867 L 42.434 3.867 L 42.434 3.494 A 1.152 1.152 0 0 0 42.398 3.199 A 0.828 0.828 0 0 0 42.179 2.815 Q 41.963 2.6 41.572 2.568 A 1.748 1.748 0 0 0 41.427 2.562 Q 40.992 2.562 40.698 2.782 Q 40.403 3.001 40.403 3.313 L 39.586 3.313 A 1.041 1.041 0 0 1 39.711 2.825 A 1.409 1.409 0 0 1 39.839 2.626 Q 40.091 2.294 40.524 2.101 A 2.249 2.249 0 0 1 41.3 1.913 A 2.669 2.669 0 0 1 41.476 1.907 A 2.65 2.65 0 0 1 41.993 1.955 Q 42.3 2.016 42.539 2.156 A 1.439 1.439 0 0 1 42.763 2.318 A 1.396 1.396 0 0 1 43.217 3.144 A 1.998 1.998 0 0 1 43.247 3.45 L 43.247 5.638 Q 43.247 6.073 43.32 6.39 A 1.707 1.707 0 0 0 43.414 6.68 L 43.414 6.75 Z M 131.638 6.75 L 130.786 6.75 A 0.632 0.632 0 0 1 130.75 6.66 Q 130.719 6.562 130.694 6.41 A 3.997 3.997 0 0 1 130.672 6.249 Q 130.105 6.838 129.318 6.838 A 2.033 2.033 0 0 1 128.789 6.772 A 1.529 1.529 0 0 1 128.164 6.44 Q 127.714 6.042 127.714 5.432 Q 127.714 4.689 128.279 4.278 Q 128.843 3.867 129.867 3.867 L 130.658 3.867 L 130.658 3.494 A 1.152 1.152 0 0 0 130.623 3.199 A 0.828 0.828 0 0 0 130.403 2.815 Q 130.187 2.6 129.797 2.568 A 1.748 1.748 0 0 0 129.652 2.562 Q 129.217 2.562 128.923 2.782 Q 128.628 3.001 128.628 3.313 L 127.811 3.313 A 1.041 1.041 0 0 1 127.936 2.825 A 1.409 1.409 0 0 1 128.063 2.626 Q 128.316 2.294 128.749 2.101 A 2.249 2.249 0 0 1 129.525 1.913 A 2.669 2.669 0 0 1 129.7 1.907 A 2.65 2.65 0 0 1 130.218 1.955 Q 130.525 2.016 130.764 2.156 A 1.439 1.439 0 0 1 130.988 2.318 A 1.396 1.396 0 0 1 131.441 3.144 A 1.998 1.998 0 0 1 131.471 3.45 L 131.471 5.638 Q 131.471 6.073 131.545 6.39 A 1.707 1.707 0 0 0 131.638 6.68 L 131.638 6.75 Z M 98.451 4.351 L 98.451 4.425 Q 98.451 5.511 97.954 6.174 A 1.57 1.57 0 0 1 96.816 6.828 A 2.013 2.013 0 0 1 96.61 6.838 A 2.196 2.196 0 0 1 96.024 6.764 A 1.598 1.598 0 0 1 95.247 6.289 L 95.247 8.578 L 94.434 8.578 L 94.434 1.995 L 95.177 1.995 L 95.216 2.522 A 1.619 1.619 0 0 1 96.356 1.919 A 2.319 2.319 0 0 1 96.596 1.907 A 1.829 1.829 0 0 1 97.233 2.014 A 1.597 1.597 0 0 1 97.952 2.553 Q 98.451 3.199 98.451 4.351 Z M 17.235 4.504 L 17.235 4.355 A 3.17 3.17 0 0 1 17.312 3.646 A 2.581 2.581 0 0 1 17.506 3.092 A 2.191 2.191 0 0 1 17.953 2.466 A 2.033 2.033 0 0 1 18.262 2.221 Q 18.747 1.907 19.314 1.907 A 2.254 2.254 0 0 1 19.927 1.986 A 1.639 1.639 0 0 1 20.756 2.518 Q 21.27 3.129 21.27 4.267 L 21.27 4.605 L 18.048 4.605 A 2.111 2.111 0 0 0 18.12 5.114 A 1.516 1.516 0 0 0 18.459 5.741 A 1.282 1.282 0 0 0 19.393 6.173 A 1.652 1.652 0 0 0 19.459 6.174 A 1.763 1.763 0 0 0 19.787 6.145 Q 20.011 6.103 20.189 5.999 A 1.827 1.827 0 0 0 20.697 5.551 A 2.068 2.068 0 0 0 20.712 5.533 L 21.208 5.919 A 1.926 1.926 0 0 1 19.808 6.811 A 2.749 2.749 0 0 1 19.415 6.838 A 2.394 2.394 0 0 1 18.664 6.725 A 1.974 1.974 0 0 1 17.842 6.203 Q 17.235 5.568 17.235 4.504 Z M 112.962 0.352 L 112.962 4.601 L 113.849 4.601 L 113.849 5.265 L 112.962 5.265 L 112.962 6.75 L 112.144 6.75 L 112.144 5.265 L 109.231 5.265 L 109.231 4.786 L 112.096 0.352 L 112.962 0.352 Z M 123.847 6.75 L 122.076 6.75 L 122.076 0.352 L 123.882 0.352 Q 124.717 0.352 125.359 0.721 Q 126 1.09 126.35 1.771 A 3.19 3.19 0 0 1 126.666 2.8 A 4.073 4.073 0 0 1 126.703 3.335 L 126.703 3.744 Q 126.703 4.649 126.354 5.331 A 2.457 2.457 0 0 1 125.356 6.376 Q 124.708 6.741 123.847 6.75 Z M 118.36 2.592 A 1.544 1.544 0 0 0 118.464 2.021 A 2.226 2.226 0 0 0 118.442 1.707 A 1.566 1.566 0 0 0 117.943 0.738 A 1.754 1.754 0 0 0 117.177 0.333 A 2.443 2.443 0 0 0 116.578 0.264 A 2.539 2.539 0 0 0 116.069 0.312 A 1.767 1.767 0 0 0 115.212 0.738 Q 114.693 1.213 114.693 2.021 A 1.808 1.808 0 0 0 114.693 2.058 A 1.499 1.499 0 0 0 114.939 2.87 A 1.626 1.626 0 0 0 115.101 3.077 A 1.726 1.726 0 0 0 115.611 3.454 A 2.119 2.119 0 0 0 115.512 3.5 A 1.738 1.738 0 0 0 114.827 4.087 A 1.629 1.629 0 0 0 114.544 5.023 A 2.272 2.272 0 0 0 114.553 5.237 A 1.63 1.63 0 0 0 115.1 6.344 A 1.895 1.895 0 0 0 115.95 6.771 A 2.797 2.797 0 0 0 116.578 6.838 A 2.796 2.796 0 0 0 117.177 6.777 A 1.925 1.925 0 0 0 118.053 6.346 A 1.578 1.578 0 0 0 118.527 5.62 A 1.989 1.989 0 0 0 118.613 5.023 A 1.581 1.581 0 0 0 118.321 4.087 Q 118.028 3.674 117.527 3.458 Q 117.958 3.248 118.211 2.874 A 1.449 1.449 0 0 0 118.36 2.592 Z M 14.792 0.844 L 15.605 0.844 L 15.605 1.995 L 16.493 1.995 L 16.493 2.624 L 15.605 2.624 L 15.605 5.572 Q 15.605 5.858 15.724 6.001 Q 15.842 6.144 16.128 6.144 A 1.046 1.046 0 0 0 16.226 6.138 Q 16.328 6.129 16.468 6.101 A 4.024 4.024 0 0 0 16.515 6.091 L 16.515 6.75 A 2.463 2.463 0 0 1 16.082 6.829 A 2.157 2.157 0 0 1 15.891 6.838 Q 15.444 6.838 15.177 6.616 A 0.856 0.856 0 0 1 15.069 6.508 Q 14.842 6.238 14.801 5.78 A 2.351 2.351 0 0 1 14.792 5.572 L 14.792 2.624 L 13.926 2.624 L 13.926 1.995 L 14.792 1.995 L 14.792 0.844 Z M 49.452 0.844 L 50.265 0.844 L 50.265 1.995 L 51.152 1.995 L 51.152 2.624 L 50.265 2.624 L 50.265 5.572 Q 50.265 5.858 50.383 6.001 Q 50.502 6.144 50.788 6.144 A 1.046 1.046 0 0 0 50.885 6.138 Q 50.988 6.129 51.128 6.101 A 4.024 4.024 0 0 0 51.174 6.091 L 51.174 6.75 A 2.463 2.463 0 0 1 50.742 6.829 A 2.157 2.157 0 0 1 50.55 6.838 Q 50.103 6.838 49.837 6.616 A 0.856 0.856 0 0 1 49.729 6.508 Q 49.501 6.238 49.461 5.78 A 2.351 2.351 0 0 1 49.452 5.572 L 49.452 2.624 L 48.586 2.624 L 48.586 1.995 L 49.452 1.995 L 49.452 0.844 Z M 104.735 0.844 L 105.548 0.844 L 105.548 1.995 L 106.436 1.995 L 106.436 2.624 L 105.548 2.624 L 105.548 5.572 Q 105.548 5.858 105.667 6.001 Q 105.785 6.144 106.071 6.144 A 1.046 1.046 0 0 0 106.168 6.138 Q 106.271 6.129 106.411 6.101 A 4.024 4.024 0 0 0 106.458 6.091 L 106.458 6.75 A 2.463 2.463 0 0 1 106.025 6.829 A 2.157 2.157 0 0 1 105.834 6.838 Q 105.387 6.838 105.12 6.616 A 0.856 0.856 0 0 1 105.012 6.508 Q 104.784 6.238 104.744 5.78 A 2.351 2.351 0 0 1 104.735 5.572 L 104.735 2.624 L 103.869 2.624 L 103.869 1.995 L 104.735 1.995 L 104.735 0.844 Z M 38.325 0 L 38.325 6.75 L 37.512 6.75 L 37.512 0 L 38.325 0 Z M 74.118 4.386 L 74.118 4.329 A 3.057 3.057 0 0 1 74.205 3.587 A 2.573 2.573 0 0 1 74.393 3.072 A 2.16 2.16 0 0 1 74.808 2.486 A 1.957 1.957 0 0 1 75.158 2.21 A 2.036 2.036 0 0 1 76.102 1.913 A 2.491 2.491 0 0 1 76.276 1.907 A 2.277 2.277 0 0 1 77.029 2.027 A 1.937 1.937 0 0 1 77.847 2.58 A 2.29 2.29 0 0 1 78.366 3.608 A 3.373 3.373 0 0 1 78.447 4.368 L 78.447 4.425 A 3.114 3.114 0 0 1 78.367 5.142 A 2.577 2.577 0 0 1 78.181 5.671 A 2.056 2.056 0 0 1 77.654 6.361 A 2.001 2.001 0 0 1 77.421 6.53 A 2.045 2.045 0 0 1 76.501 6.829 A 2.529 2.529 0 0 1 76.285 6.838 A 2.262 2.262 0 0 1 75.534 6.718 A 1.938 1.938 0 0 1 74.718 6.166 A 2.297 2.297 0 0 1 74.192 5.111 A 3.357 3.357 0 0 1 74.118 4.386 Z M 73.674 1.969 L 73.674 2.725 A 2.251 2.251 0 0 0 73.432 2.698 A 2.782 2.782 0 0 0 73.275 2.694 Q 72.497 2.694 72.205 3.338 A 1.445 1.445 0 0 0 72.189 3.375 L 72.189 6.75 L 71.376 6.75 L 71.376 1.995 L 72.167 1.995 L 72.18 2.544 Q 72.561 1.938 73.243 1.909 A 1.636 1.636 0 0 1 73.314 1.907 Q 73.551 1.907 73.674 1.969 Z M 135.044 1.969 L 135.044 2.725 A 2.251 2.251 0 0 0 134.801 2.698 A 2.782 2.782 0 0 0 134.644 2.694 Q 133.866 2.694 133.575 3.338 A 1.445 1.445 0 0 0 133.559 3.375 L 133.559 6.75 L 132.746 6.75 L 132.746 1.995 L 133.537 1.995 L 133.55 2.544 Q 133.93 1.938 134.613 1.909 A 1.636 1.636 0 0 1 134.684 1.907 Q 134.921 1.907 135.044 1.969 Z M 123.904 1.046 L 122.92 1.046 L 122.92 6.06 L 123.807 6.06 A 2.519 2.519 0 0 0 124.44 5.985 A 1.747 1.747 0 0 0 125.326 5.454 Q 125.785 4.94 125.855 4.059 A 4.165 4.165 0 0 0 125.868 3.727 L 125.868 3.353 Q 125.868 2.562 125.599 2.027 A 1.864 1.864 0 0 0 125.356 1.659 A 1.687 1.687 0 0 0 124.36 1.09 A 2.499 2.499 0 0 0 123.904 1.046 Z M 52.985 1.995 L 52.985 6.75 L 52.172 6.75 L 52.172 1.995 L 52.985 1.995 Z M 74.936 4.425 A 2.772 2.772 0 0 0 74.983 4.954 Q 75.043 5.264 75.181 5.51 A 1.545 1.545 0 0 0 75.303 5.695 Q 75.67 6.174 76.285 6.174 A 1.269 1.269 0 0 0 76.774 6.083 Q 77.054 5.967 77.256 5.706 A 1.471 1.471 0 0 0 77.269 5.689 A 1.648 1.648 0 0 0 77.524 5.171 Q 77.593 4.945 77.618 4.672 A 3.655 3.655 0 0 0 77.634 4.329 A 2.687 2.687 0 0 0 77.583 3.789 Q 77.515 3.459 77.358 3.2 A 1.586 1.586 0 0 0 77.263 3.061 A 1.231 1.231 0 0 0 76.848 2.705 Q 76.594 2.575 76.276 2.575 Q 75.686 2.575 75.32 3.035 A 1.515 1.515 0 0 0 75.305 3.054 A 1.589 1.589 0 0 0 75.053 3.552 Q 74.983 3.772 74.955 4.039 A 3.676 3.676 0 0 0 74.936 4.425 Z M 95.247 3.252 L 95.247 5.524 Q 95.612 6.174 96.363 6.174 A 1.184 1.184 0 0 0 96.829 6.086 Q 97.086 5.977 97.275 5.735 A 1.403 1.403 0 0 0 97.293 5.711 A 1.501 1.501 0 0 0 97.51 5.28 Q 97.578 5.073 97.61 4.818 A 3.91 3.91 0 0 0 97.638 4.333 Q 97.638 3.746 97.455 3.339 A 1.503 1.503 0 0 0 97.295 3.063 A 1.086 1.086 0 0 0 96.509 2.605 A 1.414 1.414 0 0 0 96.355 2.597 Q 95.694 2.597 95.329 3.121 A 1.623 1.623 0 0 0 95.247 3.252 Z M 87.434 5.449 L 87.434 3.278 A 1.439 1.439 0 0 0 87.133 2.891 Q 86.829 2.62 86.389 2.599 A 1.578 1.578 0 0 0 86.313 2.597 Q 85.721 2.597 85.387 3.056 A 1.51 1.51 0 0 0 85.177 3.484 Q 85.111 3.689 85.08 3.939 A 3.955 3.955 0 0 0 85.052 4.425 Q 85.052 5.229 85.381 5.689 Q 85.711 6.148 86.304 6.148 A 1.32 1.32 0 0 0 86.814 6.054 Q 87.206 5.891 87.434 5.449 Z M 112.048 1.639 L 110.153 4.601 L 112.144 4.601 L 112.144 1.463 L 112.048 1.639 Z M 117.8 5.005 A 1.375 1.375 0 0 0 117.74 4.592 A 1.109 1.109 0 0 0 117.459 4.131 A 1.148 1.148 0 0 0 116.788 3.807 A 1.593 1.593 0 0 0 116.569 3.792 A 1.466 1.466 0 0 0 116.181 3.841 A 1.086 1.086 0 0 0 115.688 4.126 A 1.123 1.123 0 0 0 115.375 4.762 A 1.572 1.572 0 0 0 115.357 5.005 A 1.48 1.48 0 0 0 115.398 5.367 A 1.019 1.019 0 0 0 115.68 5.862 Q 115.986 6.158 116.519 6.173 A 2.053 2.053 0 0 0 116.578 6.174 Q 117.072 6.174 117.382 5.94 A 1.018 1.018 0 0 0 117.475 5.86 A 1.041 1.041 0 0 0 117.774 5.292 A 1.518 1.518 0 0 0 117.8 5.005 Z M 116.578 0.932 A 1.259 1.259 0 0 0 116.226 0.979 A 0.973 0.973 0 0 0 115.803 1.228 Q 115.506 1.525 115.506 2.035 A 1.325 1.325 0 0 0 115.551 2.387 A 0.994 0.994 0 0 0 115.798 2.823 A 0.974 0.974 0 0 0 116.36 3.108 A 1.382 1.382 0 0 0 116.578 3.125 A 1.279 1.279 0 0 0 116.923 3.08 A 0.952 0.952 0 0 0 117.358 2.823 A 1.018 1.018 0 0 0 117.633 2.26 A 1.426 1.426 0 0 0 117.651 2.035 A 1.282 1.282 0 0 0 117.6 1.668 A 1.013 1.013 0 0 0 117.347 1.239 Q 117.044 0.932 116.578 0.932 Z M 42.434 5.418 L 42.434 4.443 L 41.797 4.443 Q 40.302 4.443 40.302 5.317 Q 40.302 5.7 40.557 5.915 A 0.893 0.893 0 0 0 40.971 6.108 A 1.259 1.259 0 0 0 41.212 6.13 A 1.429 1.429 0 0 0 41.937 5.933 A 1.335 1.335 0 0 0 42.233 5.705 A 1.108 1.108 0 0 0 42.434 5.418 Z M 130.658 5.418 L 130.658 4.443 L 130.021 4.443 Q 128.527 4.443 128.527 5.317 Q 128.527 5.7 128.782 5.915 A 0.893 0.893 0 0 0 129.195 6.108 A 1.259 1.259 0 0 0 129.437 6.13 A 1.429 1.429 0 0 0 130.162 5.933 A 1.335 1.335 0 0 0 130.457 5.705 A 1.108 1.108 0 0 0 130.658 5.418 Z M 18.075 3.938 L 20.457 3.938 L 20.457 3.876 Q 20.431 3.417 20.26 3.111 A 1.13 1.13 0 0 0 20.123 2.916 A 0.983 0.983 0 0 0 19.468 2.584 A 1.39 1.39 0 0 0 19.314 2.575 A 1.106 1.106 0 0 0 18.792 2.698 A 1.14 1.14 0 0 0 18.488 2.933 A 1.417 1.417 0 0 0 18.211 3.379 Q 18.138 3.563 18.098 3.785 A 2.741 2.741 0 0 0 18.075 3.938 Z M 52.106 0.734 Q 52.106 0.536 52.227 0.4 Q 52.339 0.274 52.551 0.264 A 0.783 0.783 0 0 1 52.585 0.264 Q 52.822 0.264 52.945 0.4 A 0.474 0.474 0 0 1 53.068 0.703 A 0.614 0.614 0 0 1 53.069 0.734 A 0.523 0.523 0 0 1 53.043 0.9 A 0.442 0.442 0 0 1 52.945 1.063 Q 52.833 1.184 52.625 1.194 A 0.803 0.803 0 0 1 52.585 1.195 Q 52.413 1.195 52.302 1.126 A 0.362 0.362 0 0 1 52.227 1.063 A 0.456 0.456 0 0 1 52.108 0.788 A 0.605 0.605 0 0 1 52.106 0.734 Z" vector-effect="non-scaling-stroke"/></g>
</svg>