<?xml version="1.0" encoding="UTF-8"?>
<svg width="48px" height="48px" viewBox="0 0 48 48" version="1.1" xmlns="http://www.w3.org/2000/svg" xmlns:xlink="http://www.w3.org/1999/xlink">
    <title>Icon-Resource/Storage/Res_AWS-Amazon-Simple-Storage_S3-Replication-Time-Control_48_Dark</title>
    <g id="Icon-Resource/Storage/Res_AWS-Amazon-Simple-Storage_S3-Replication-Time-Control_48" stroke="none" stroke-width="1" fill="none" fill-rule="evenodd">
        <path transform="translate(0vw, 0vh), scale(.65)" d="M24.4436,31.9717 L22.4436,31.9717 L22.4436,35.9677 C22.4436,36.5207 22.8906,36.9677 23.4436,36.9677 L26.4396,36.9677 L26.4396,34.9677 L24.4436,34.9677 L24.4436,31.9717 Z M27.9726,35.4677 C27.9726,32.9897 25.9576,30.9737 23.4786,30.9737 C21.0006,30.9737 18.9846,32.9897 18.9846,35.4677 C18.9846,37.9467 21.0006,39.9617 23.4786,39.9617 C25.9576,39.9617 27.9726,37.9467 27.9726,35.4677 L27.9726,35.4677 Z M29.9726,35.4677 C29.9726,39.0487 27.0596,41.9617 23.4786,41.9617 C19.8976,41.9617 16.9846,39.0487 16.9846,35.4677 C16.9846,31.8867 19.8976,28.9737 23.4786,28.9737 C27.0596,28.9737 29.9726,31.8867 29.9726,35.4677 L29.9726,35.4677 Z M43.7206,29.2257 C43.4796,28.9677 42.9866,28.5477 41.9926,27.9407 L41.8586,28.9517 C42.8216,29.1777 43.3986,29.2257 43.7206,29.2257 L43.7206,29.2257 Z M26.8416,24.0697 C26.7966,24.0697 26.7576,24.1067 26.7576,24.1527 C26.7576,24.2437 26.9246,24.2437 26.9246,24.1527 C26.9246,24.1067 26.8876,24.0697 26.8416,24.0697 L26.8416,24.0697 Z M39.6476,30.4187 C35.7366,29.2187 30.6566,26.9467 27.9686,25.6957 C27.6516,25.9277 27.2636,26.0697 26.8416,26.0697 C25.7856,26.0697 24.9246,25.2087 24.9246,24.1527 C24.9246,23.0957 25.7856,22.2367 26.8416,22.2367 C27.7926,22.2367 28.5776,22.9337 28.7266,23.8417 C31.0006,24.9017 36.0476,27.1777 39.9136,28.4047 L41.4276,16.9577 C38.2106,18.5977 32.2846,19.2397 26.9646,19.2397 C21.4506,19.2397 15.2996,18.5927 11.9936,16.9337 L15.4126,41.3597 C15.4196,41.4057 15.4226,41.4517 15.4226,41.4977 C15.6086,42.2247 19.7086,43.9577 26.8046,43.9577 C29.4806,43.9577 32.1506,43.6837 34.3236,43.1867 C35.1676,42.9937 35.9116,42.7737 36.5386,42.5277 C37.7976,42.0357 38.1636,41.5997 38.1916,41.4857 C38.1916,41.4417 38.1936,41.4097 38.1996,41.3677 L39.6476,30.4187 Z M11.5806,13.9877 L11.5936,14.0787 C11.7976,15.2207 17.0586,17.2397 26.9646,17.2397 C36.6726,17.2397 41.6246,15.2487 41.8086,14.0787 L41.8206,13.9877 C41.7616,12.7047 36.5266,10.2507 26.9646,10.2507 C16.2846,10.2507 11.6486,13.0597 11.5806,13.9877 L11.5806,13.9877 Z M45.5476,30.5367 C45.1576,30.9957 44.5546,31.2237 43.6656,31.2237 C43.0996,31.2237 42.4126,31.1267 41.5946,30.9437 L40.1896,41.5757 C40.1466,42.7027 39.1646,43.6497 37.2656,44.3907 C36.5476,44.6717 35.7076,44.9227 34.7686,45.1357 C32.4556,45.6657 29.6266,45.9577 26.8046,45.9577 C21.4696,45.9577 13.5556,44.7897 13.4236,41.5797 L9.5846,14.1487 L9.5946,14.1467 C9.5926,14.1007 9.5746,14.0577 9.5746,14.0097 C9.5746,10.2697 18.5346,8.2507 26.9646,8.2507 C35.3436,8.2507 43.8266,10.2297 43.8266,14.0097 C43.8266,14.0547 43.8096,14.0947 43.8066,14.1397 L43.8176,14.1407 L42.2766,25.7927 C44.6136,27.1127 45.7196,28.1357 45.9126,29.1627 C46.0056,29.6617 45.8756,30.1507 45.5476,30.5367 L45.5476,30.5367 Z M11.0956,37.7847 L10.5916,39.7207 C7.5016,38.9147 5.9066,37.7737 5.8496,36.3277 L2.0096,8.8977 L2.0206,8.8957 C2.0176,8.8497 2.0006,8.8057 2.0006,8.7587 C2.0006,5.0187 10.9606,2.9997 19.3906,2.9997 C26.6146,2.9997 32.8086,4.4107 35.1716,6.5947 L33.8136,8.0637 C32.2166,6.5877 27.0236,4.9997 19.3906,4.9997 C8.7106,4.9997 4.0746,7.8087 4.0066,8.7367 L4.0246,8.8647 C4.1786,9.2787 5.2126,10.2277 8.8206,11.0177 L8.3926,12.9707 C6.7506,12.6117 5.4296,12.1757 4.4176,11.6717 L7.8386,36.1087 C7.8446,36.1547 7.8476,36.2007 7.8476,36.2467 C7.8866,36.3927 8.5576,37.1227 11.0956,37.7847 L11.0956,37.7847 Z" id="AWS-Amazon-Simple-Storage_S3-Replication-Time-Control_Resource-Icon_light-bg" fill="#000000"></path>
    </g><g transform="translate(12vw, 80vh)" id="svgGroup" stroke-linecap="round" fill-rule="evenodd" font-size="9pt" stroke="#000" stroke-width="0.25mm" fill="#000" style="stroke:#000;stroke-width:0.25mm;fill:#000"><path d="M 7.783 1.995 L 8.552 1.995 L 8.574 2.522 Q 9.097 1.907 9.985 1.907 A 2.009 2.009 0 0 1 10.495 1.968 A 1.244 1.244 0 0 1 11.342 2.672 A 1.801 1.801 0 0 1 11.96 2.118 A 1.65 1.65 0 0 1 12.489 1.937 A 2.209 2.209 0 0 1 12.859 1.907 A 2.119 2.119 0 0 1 13.503 1.997 Q 14.429 2.292 14.449 3.564 L 14.449 6.75 L 13.636 6.75 L 13.636 3.612 A 1.781 1.781 0 0 0 13.616 3.332 Q 13.592 3.185 13.542 3.067 A 0.758 0.758 0 0 0 13.403 2.85 A 0.68 0.68 0 0 0 13.151 2.682 Q 12.939 2.597 12.622 2.597 A 1.245 1.245 0 0 0 12.256 2.648 A 1.008 1.008 0 0 0 11.87 2.867 A 1.042 1.042 0 0 0 11.556 3.404 A 1.41 1.41 0 0 0 11.523 3.595 L 11.523 6.75 L 10.705 6.75 L 10.705 3.634 A 1.532 1.532 0 0 0 10.657 3.23 Q 10.53 2.768 10.073 2.643 A 1.457 1.457 0 0 0 9.69 2.597 Q 8.916 2.597 8.616 3.234 A 1.459 1.459 0 0 0 8.596 3.278 L 8.596 6.75 L 7.783 6.75 L 7.783 1.995 Z M 4.636 2.202 L 3.788 2.202 A 1.466 1.466 0 0 0 3.738 1.809 A 1.066 1.066 0 0 0 3.419 1.29 A 1.211 1.211 0 0 0 2.95 1.033 Q 2.698 0.958 2.378 0.958 A 2.286 2.286 0 0 0 1.998 0.988 Q 1.796 1.022 1.633 1.095 A 1.101 1.101 0 0 0 1.404 1.233 A 0.892 0.892 0 0 0 1.059 1.887 A 1.267 1.267 0 0 0 1.055 1.995 A 0.806 0.806 0 0 0 1.323 2.6 A 1.134 1.134 0 0 0 1.387 2.656 A 1.562 1.562 0 0 0 1.625 2.813 Q 1.955 2.993 2.516 3.151 A 8.228 8.228 0 0 1 2.981 3.295 Q 3.216 3.377 3.41 3.464 A 3.297 3.297 0 0 1 3.764 3.645 A 2.342 2.342 0 0 1 4.103 3.889 Q 4.293 4.056 4.415 4.248 A 1.45 1.45 0 0 1 4.432 4.276 A 1.498 1.498 0 0 1 4.628 4.832 A 1.948 1.948 0 0 1 4.65 5.124 A 1.606 1.606 0 0 1 4.527 5.76 Q 4.382 6.101 4.064 6.354 A 1.886 1.886 0 0 1 4.043 6.37 Q 3.437 6.838 2.422 6.838 A 3.023 3.023 0 0 1 1.281 6.623 A 2.917 2.917 0 0 1 1.191 6.585 A 2.383 2.383 0 0 1 0.713 6.307 A 1.874 1.874 0 0 1 0.31 5.893 A 1.689 1.689 0 0 1 0 4.896 L 0.848 4.896 A 1.261 1.261 0 0 0 0.918 5.323 A 1.074 1.074 0 0 0 1.277 5.812 Q 1.661 6.113 2.278 6.144 A 2.87 2.87 0 0 0 2.422 6.148 A 2.628 2.628 0 0 0 2.809 6.121 Q 3.005 6.092 3.164 6.031 A 1.129 1.129 0 0 0 3.445 5.875 Q 3.801 5.603 3.801 5.133 A 1.074 1.074 0 0 0 3.759 4.822 A 0.816 0.816 0 0 0 3.472 4.406 Q 3.142 4.148 2.277 3.898 Q 1.191 3.586 0.697 3.131 Q 0.202 2.676 0.202 2.008 Q 0.202 1.252 0.807 0.758 A 2.121 2.121 0 0 1 1.697 0.335 A 3.087 3.087 0 0 1 2.378 0.264 A 2.913 2.913 0 0 1 3.038 0.336 A 2.372 2.372 0 0 1 3.553 0.519 A 2.051 2.051 0 0 1 4.084 0.889 A 1.834 1.834 0 0 1 4.353 1.222 A 1.798 1.798 0 0 1 4.636 2.202 Z M 34.277 2.202 L 33.429 2.202 A 1.466 1.466 0 0 0 33.38 1.809 A 1.066 1.066 0 0 0 33.06 1.29 A 1.211 1.211 0 0 0 32.591 1.033 Q 32.339 0.958 32.019 0.958 A 2.286 2.286 0 0 0 31.639 0.988 Q 31.437 1.022 31.274 1.095 A 1.101 1.101 0 0 0 31.045 1.233 A 0.892 0.892 0 0 0 30.7 1.887 A 1.267 1.267 0 0 0 30.696 1.995 A 0.806 0.806 0 0 0 30.964 2.6 A 1.134 1.134 0 0 0 31.028 2.656 A 1.562 1.562 0 0 0 31.266 2.813 Q 31.596 2.993 32.157 3.151 A 8.228 8.228 0 0 1 32.622 3.295 Q 32.857 3.377 33.051 3.464 A 3.297 3.297 0 0 1 33.405 3.645 A 2.342 2.342 0 0 1 33.744 3.889 Q 33.934 4.056 34.056 4.248 A 1.45 1.45 0 0 1 34.073 4.276 A 1.498 1.498 0 0 1 34.269 4.832 A 1.948 1.948 0 0 1 34.291 5.124 A 1.606 1.606 0 0 1 34.168 5.76 Q 34.023 6.101 33.705 6.354 A 1.886 1.886 0 0 1 33.684 6.37 Q 33.078 6.838 32.063 6.838 A 3.023 3.023 0 0 1 30.922 6.623 A 2.917 2.917 0 0 1 30.832 6.585 A 2.383 2.383 0 0 1 30.354 6.307 A 1.874 1.874 0 0 1 29.951 5.893 A 1.689 1.689 0 0 1 29.641 4.896 L 30.489 4.896 A 1.261 1.261 0 0 0 30.559 5.323 A 1.074 1.074 0 0 0 30.918 5.812 Q 31.302 6.113 31.919 6.144 A 2.87 2.87 0 0 0 32.063 6.148 A 2.628 2.628 0 0 0 32.45 6.121 Q 32.646 6.092 32.805 6.031 A 1.129 1.129 0 0 0 33.087 5.875 Q 33.443 5.603 33.443 5.133 A 1.074 1.074 0 0 0 33.4 4.822 A 0.816 0.816 0 0 0 33.113 4.406 Q 32.783 4.148 31.918 3.898 Q 30.832 3.586 30.338 3.131 Q 29.843 2.676 29.843 2.008 Q 29.843 1.252 30.448 0.758 A 2.121 2.121 0 0 1 31.338 0.335 A 3.087 3.087 0 0 1 32.019 0.264 A 2.913 2.913 0 0 1 32.679 0.336 A 2.372 2.372 0 0 1 33.194 0.519 A 2.051 2.051 0 0 1 33.725 0.889 A 1.834 1.834 0 0 1 33.994 1.222 A 1.798 1.798 0 0 1 34.277 2.202 Z M 54.035 2.522 L 54.075 1.995 L 54.818 1.995 L 54.818 6.636 A 2.511 2.511 0 0 1 54.747 7.249 A 1.738 1.738 0 0 1 54.27 8.09 A 1.834 1.834 0 0 1 53.341 8.57 A 2.671 2.671 0 0 1 52.8 8.622 A 2.446 2.446 0 0 1 51.794 8.402 A 2.003 2.003 0 0 1 51.384 8.161 A 1.563 1.563 0 0 1 51.043 7.8 L 51.465 7.313 A 1.889 1.889 0 0 0 51.899 7.712 A 1.514 1.514 0 0 0 52.743 7.958 A 1.695 1.695 0 0 0 53.12 7.919 Q 53.389 7.858 53.583 7.702 A 1.037 1.037 0 0 0 53.668 7.625 A 1.09 1.09 0 0 0 53.945 7.132 Q 53.992 6.959 53.999 6.752 A 2.134 2.134 0 0 0 54 6.684 L 54 6.275 A 1.601 1.601 0 0 1 52.948 6.821 A 2.279 2.279 0 0 1 52.669 6.838 A 1.672 1.672 0 0 1 51.913 6.67 Q 51.591 6.51 51.342 6.197 A 2.14 2.14 0 0 1 51.317 6.166 A 2.316 2.316 0 0 1 50.934 5.386 Q 50.801 4.922 50.801 4.333 Q 50.801 3.472 51.109 2.884 A 2.096 2.096 0 0 1 51.315 2.564 Q 51.829 1.907 52.677 1.907 A 1.971 1.971 0 0 1 53.276 1.994 A 1.55 1.55 0 0 1 54.035 2.522 Z M 49.887 6.75 L 49.034 6.75 A 0.632 0.632 0 0 1 48.999 6.66 Q 48.968 6.562 48.943 6.41 A 3.997 3.997 0 0 1 48.92 6.249 Q 48.353 6.838 47.567 6.838 A 2.033 2.033 0 0 1 47.037 6.772 A 1.529 1.529 0 0 1 46.413 6.44 Q 45.963 6.042 45.963 5.432 Q 45.963 4.689 46.527 4.278 Q 47.092 3.867 48.116 3.867 L 48.907 3.867 L 48.907 3.494 A 1.152 1.152 0 0 0 48.871 3.199 A 0.828 0.828 0 0 0 48.652 2.815 Q 48.436 2.6 48.045 2.568 A 1.748 1.748 0 0 0 47.901 2.562 Q 47.465 2.562 47.171 2.782 Q 46.877 3.001 46.877 3.313 L 46.059 3.313 A 1.041 1.041 0 0 1 46.184 2.825 A 1.409 1.409 0 0 1 46.312 2.626 Q 46.565 2.294 46.997 2.101 A 2.249 2.249 0 0 1 47.773 1.913 A 2.669 2.669 0 0 1 47.949 1.907 A 2.65 2.65 0 0 1 48.466 1.955 Q 48.774 2.016 49.012 2.156 A 1.439 1.439 0 0 1 49.236 2.318 A 1.396 1.396 0 0 1 49.69 3.144 A 1.998 1.998 0 0 1 49.72 3.45 L 49.72 5.638 Q 49.72 6.073 49.794 6.39 A 1.707 1.707 0 0 0 49.887 6.68 L 49.887 6.75 Z M 19.692 4.351 L 19.692 4.425 Q 19.692 5.511 19.195 6.174 A 1.57 1.57 0 0 1 18.057 6.828 A 2.013 2.013 0 0 1 17.851 6.838 A 2.196 2.196 0 0 1 17.265 6.764 A 1.598 1.598 0 0 1 16.488 6.289 L 16.488 8.578 L 15.675 8.578 L 15.675 1.995 L 16.418 1.995 L 16.458 2.522 A 1.619 1.619 0 0 1 17.597 1.919 A 2.319 2.319 0 0 1 17.838 1.907 A 1.829 1.829 0 0 1 18.475 2.014 A 1.597 1.597 0 0 1 19.193 2.553 Q 19.692 3.199 19.692 4.351 Z M 22.702 4.504 L 22.702 4.355 A 3.17 3.17 0 0 1 22.779 3.646 A 2.581 2.581 0 0 1 22.973 3.092 A 2.191 2.191 0 0 1 23.42 2.466 A 2.033 2.033 0 0 1 23.728 2.221 Q 24.214 1.907 24.781 1.907 A 2.254 2.254 0 0 1 25.394 1.986 A 1.639 1.639 0 0 1 26.222 2.518 Q 26.736 3.129 26.736 4.267 L 26.736 4.605 L 23.515 4.605 A 2.111 2.111 0 0 0 23.586 5.114 A 1.516 1.516 0 0 0 23.926 5.741 A 1.282 1.282 0 0 0 24.86 6.173 A 1.652 1.652 0 0 0 24.926 6.174 A 1.763 1.763 0 0 0 25.254 6.145 Q 25.478 6.103 25.655 5.999 A 1.827 1.827 0 0 0 26.164 5.551 A 2.068 2.068 0 0 0 26.178 5.533 L 26.675 5.919 A 1.926 1.926 0 0 1 25.275 6.811 A 2.749 2.749 0 0 1 24.882 6.838 A 2.394 2.394 0 0 1 24.131 6.725 A 1.974 1.974 0 0 1 23.309 6.203 Q 22.702 5.568 22.702 4.504 Z M 55.837 4.504 L 55.837 4.355 A 3.17 3.17 0 0 1 55.913 3.646 A 2.581 2.581 0 0 1 56.107 3.092 A 2.191 2.191 0 0 1 56.555 2.466 A 2.033 2.033 0 0 1 56.863 2.221 Q 57.349 1.907 57.916 1.907 A 2.254 2.254 0 0 1 58.529 1.986 A 1.639 1.639 0 0 1 59.357 2.518 Q 59.871 3.129 59.871 4.267 L 59.871 4.605 L 56.65 4.605 A 2.111 2.111 0 0 0 56.721 5.114 A 1.516 1.516 0 0 0 57.061 5.741 A 1.282 1.282 0 0 0 57.995 6.173 A 1.652 1.652 0 0 0 58.061 6.174 A 1.763 1.763 0 0 0 58.389 6.145 Q 58.613 6.103 58.79 5.999 A 1.827 1.827 0 0 0 59.299 5.551 A 2.068 2.068 0 0 0 59.313 5.533 L 59.81 5.919 A 1.926 1.926 0 0 1 58.41 6.811 A 2.749 2.749 0 0 1 58.017 6.838 A 2.394 2.394 0 0 1 57.266 6.725 A 1.974 1.974 0 0 1 56.444 6.203 Q 55.837 5.568 55.837 4.504 Z M 35.534 0.844 L 36.347 0.844 L 36.347 1.995 L 37.235 1.995 L 37.235 2.624 L 36.347 2.624 L 36.347 5.572 Q 36.347 5.858 36.466 6.001 Q 36.585 6.144 36.87 6.144 A 1.046 1.046 0 0 0 36.968 6.138 Q 37.071 6.129 37.21 6.101 A 4.024 4.024 0 0 0 37.257 6.091 L 37.257 6.75 A 2.463 2.463 0 0 1 36.824 6.829 A 2.157 2.157 0 0 1 36.633 6.838 Q 36.186 6.838 35.919 6.616 A 0.856 0.856 0 0 1 35.811 6.508 Q 35.584 6.238 35.543 5.78 A 2.351 2.351 0 0 1 35.534 5.572 L 35.534 2.624 L 34.669 2.624 L 34.669 1.995 L 35.534 1.995 L 35.534 0.844 Z M 21.608 0 L 21.608 6.75 L 20.795 6.75 L 20.795 0 L 21.608 0 Z M 37.881 4.386 L 37.881 4.329 A 3.057 3.057 0 0 1 37.968 3.587 A 2.573 2.573 0 0 1 38.156 3.072 A 2.16 2.16 0 0 1 38.57 2.486 A 1.957 1.957 0 0 1 38.92 2.21 A 2.036 2.036 0 0 1 39.865 1.913 A 2.491 2.491 0 0 1 40.039 1.907 A 2.277 2.277 0 0 1 40.792 2.027 A 1.937 1.937 0 0 1 41.61 2.58 A 2.29 2.29 0 0 1 42.129 3.608 A 3.373 3.373 0 0 1 42.21 4.368 L 42.21 4.425 A 3.114 3.114 0 0 1 42.13 5.142 A 2.577 2.577 0 0 1 41.944 5.671 A 2.056 2.056 0 0 1 41.416 6.361 A 2.001 2.001 0 0 1 41.183 6.53 A 2.045 2.045 0 0 1 40.264 6.829 A 2.529 2.529 0 0 1 40.048 6.838 A 2.262 2.262 0 0 1 39.297 6.718 A 1.938 1.938 0 0 1 38.481 6.166 A 2.297 2.297 0 0 1 37.955 5.111 A 3.357 3.357 0 0 1 37.881 4.386 Z M 45.527 1.969 L 45.527 2.725 A 2.251 2.251 0 0 0 45.285 2.698 A 2.782 2.782 0 0 0 45.128 2.694 Q 44.35 2.694 44.058 3.338 A 1.445 1.445 0 0 0 44.042 3.375 L 44.042 6.75 L 43.229 6.75 L 43.229 1.995 L 44.02 1.995 L 44.033 2.544 Q 44.414 1.938 45.096 1.909 A 1.636 1.636 0 0 1 45.167 1.907 Q 45.404 1.907 45.527 1.969 Z M 6.486 1.995 L 6.486 6.75 L 5.673 6.75 L 5.673 1.995 L 6.486 1.995 Z M 38.698 4.425 A 2.772 2.772 0 0 0 38.746 4.954 Q 38.806 5.264 38.944 5.51 A 1.545 1.545 0 0 0 39.065 5.695 Q 39.432 6.174 40.048 6.174 A 1.269 1.269 0 0 0 40.537 6.083 Q 40.816 5.967 41.019 5.706 A 1.471 1.471 0 0 0 41.032 5.689 A 1.648 1.648 0 0 0 41.287 5.171 Q 41.355 4.945 41.381 4.672 A 3.655 3.655 0 0 0 41.397 4.329 A 2.687 2.687 0 0 0 41.345 3.789 Q 41.278 3.459 41.12 3.2 A 1.586 1.586 0 0 0 41.025 3.061 A 1.231 1.231 0 0 0 40.61 2.705 Q 40.357 2.575 40.039 2.575 Q 39.449 2.575 39.083 3.035 A 1.515 1.515 0 0 0 39.068 3.054 A 1.589 1.589 0 0 0 38.815 3.552 Q 38.746 3.772 38.718 4.039 A 3.676 3.676 0 0 0 38.698 4.425 Z M 16.488 3.252 L 16.488 5.524 Q 16.853 6.174 17.605 6.174 A 1.184 1.184 0 0 0 18.07 6.086 Q 18.327 5.977 18.516 5.735 A 1.403 1.403 0 0 0 18.534 5.711 A 1.501 1.501 0 0 0 18.751 5.28 Q 18.819 5.073 18.851 4.818 A 3.91 3.91 0 0 0 18.879 4.333 Q 18.879 3.746 18.696 3.339 A 1.503 1.503 0 0 0 18.536 3.063 A 1.086 1.086 0 0 0 17.75 2.605 A 1.414 1.414 0 0 0 17.596 2.597 Q 16.935 2.597 16.57 3.121 A 1.623 1.623 0 0 0 16.488 3.252 Z M 54 5.449 L 54 3.278 A 1.439 1.439 0 0 0 53.699 2.891 Q 53.396 2.62 52.955 2.599 A 1.578 1.578 0 0 0 52.88 2.597 Q 52.288 2.597 51.954 3.056 A 1.51 1.51 0 0 0 51.743 3.484 Q 51.677 3.689 51.646 3.939 A 3.955 3.955 0 0 0 51.618 4.425 Q 51.618 5.229 51.948 5.689 Q 52.277 6.148 52.871 6.148 A 1.32 1.32 0 0 0 53.38 6.054 Q 53.772 5.891 54 5.449 Z M 48.907 5.418 L 48.907 4.443 L 48.27 4.443 Q 46.776 4.443 46.776 5.317 Q 46.776 5.7 47.03 5.915 A 0.893 0.893 0 0 0 47.444 6.108 A 1.259 1.259 0 0 0 47.685 6.13 A 1.429 1.429 0 0 0 48.41 5.933 A 1.335 1.335 0 0 0 48.706 5.705 A 1.108 1.108 0 0 0 48.907 5.418 Z M 23.542 3.938 L 25.923 3.938 L 25.923 3.876 Q 25.897 3.417 25.727 3.111 A 1.13 1.13 0 0 0 25.59 2.916 A 0.983 0.983 0 0 0 24.935 2.584 A 1.39 1.39 0 0 0 24.781 2.575 A 1.106 1.106 0 0 0 24.258 2.698 A 1.14 1.14 0 0 0 23.955 2.933 A 1.417 1.417 0 0 0 23.678 3.379 Q 23.604 3.563 23.565 3.785 A 2.741 2.741 0 0 0 23.542 3.938 Z M 56.676 3.938 L 59.058 3.938 L 59.058 3.876 Q 59.032 3.417 58.862 3.111 A 1.13 1.13 0 0 0 58.724 2.916 A 0.983 0.983 0 0 0 58.07 2.584 A 1.39 1.39 0 0 0 57.916 2.575 A 1.106 1.106 0 0 0 57.393 2.698 A 1.14 1.14 0 0 0 57.09 2.933 A 1.417 1.417 0 0 0 56.813 3.379 Q 56.739 3.563 56.699 3.785 A 2.741 2.741 0 0 0 56.676 3.938 Z M 5.608 0.734 Q 5.608 0.536 5.728 0.4 Q 5.84 0.274 6.052 0.264 A 0.783 0.783 0 0 1 6.087 0.264 Q 6.324 0.264 6.447 0.4 A 0.474 0.474 0 0 1 6.569 0.703 A 0.614 0.614 0 0 1 6.57 0.734 A 0.523 0.523 0 0 1 6.545 0.9 A 0.442 0.442 0 0 1 6.447 1.063 Q 6.334 1.184 6.126 1.194 A 0.803 0.803 0 0 1 6.087 1.195 Q 5.914 1.195 5.803 1.126 A 0.362 0.362 0 0 1 5.728 1.063 A 0.456 0.456 0 0 1 5.61 0.788 A 0.605 0.605 0 0 1 5.608 0.734 Z" vector-effect="non-scaling-stroke"/></g><g transform="translate(12vw, 90vh)" id="svgGroup" stroke-linecap="round" fill-rule="evenodd" font-size="9pt" stroke="#000" stroke-width="0.25mm" fill="#000" style="stroke:#000;stroke-width:0.25mm;fill:#000"><path d="M 98.526 1.995 L 99.295 1.995 L 99.317 2.522 Q 99.84 1.907 100.727 1.907 A 2.009 2.009 0 0 1 101.238 1.968 A 1.244 1.244 0 0 1 102.085 2.672 A 1.801 1.801 0 0 1 102.703 2.118 A 1.65 1.65 0 0 1 103.232 1.937 A 2.209 2.209 0 0 1 103.601 1.907 A 2.119 2.119 0 0 1 104.245 1.997 Q 105.172 2.292 105.192 3.564 L 105.192 6.75 L 104.379 6.75 L 104.379 3.612 A 1.781 1.781 0 0 0 104.359 3.332 Q 104.335 3.185 104.284 3.067 A 0.758 0.758 0 0 0 104.146 2.85 A 0.68 0.68 0 0 0 103.893 2.682 Q 103.682 2.597 103.365 2.597 A 1.245 1.245 0 0 0 102.999 2.648 A 1.008 1.008 0 0 0 102.612 2.867 A 1.042 1.042 0 0 0 102.298 3.404 A 1.41 1.41 0 0 0 102.265 3.595 L 102.265 6.75 L 101.448 6.75 L 101.448 3.634 A 1.532 1.532 0 0 0 101.399 3.23 Q 101.273 2.768 100.815 2.643 A 1.457 1.457 0 0 0 100.433 2.597 Q 99.659 2.597 99.358 3.234 A 1.459 1.459 0 0 0 99.339 3.278 L 99.339 6.75 L 98.526 6.75 L 98.526 1.995 Z M 4.636 2.202 L 3.788 2.202 A 1.466 1.466 0 0 0 3.738 1.809 A 1.066 1.066 0 0 0 3.419 1.29 A 1.211 1.211 0 0 0 2.95 1.033 Q 2.698 0.958 2.378 0.958 A 2.286 2.286 0 0 0 1.998 0.988 Q 1.796 1.022 1.633 1.095 A 1.101 1.101 0 0 0 1.404 1.233 A 0.892 0.892 0 0 0 1.059 1.887 A 1.267 1.267 0 0 0 1.055 1.995 A 0.806 0.806 0 0 0 1.323 2.6 A 1.134 1.134 0 0 0 1.387 2.656 A 1.562 1.562 0 0 0 1.625 2.813 Q 1.955 2.993 2.516 3.151 A 8.228 8.228 0 0 1 2.981 3.295 Q 3.216 3.377 3.41 3.464 A 3.297 3.297 0 0 1 3.764 3.645 A 2.342 2.342 0 0 1 4.103 3.889 Q 4.293 4.056 4.415 4.248 A 1.45 1.45 0 0 1 4.432 4.276 A 1.498 1.498 0 0 1 4.628 4.832 A 1.948 1.948 0 0 1 4.65 5.124 A 1.606 1.606 0 0 1 4.527 5.76 Q 4.382 6.101 4.064 6.354 A 1.886 1.886 0 0 1 4.043 6.37 Q 3.437 6.838 2.422 6.838 A 3.023 3.023 0 0 1 1.281 6.623 A 2.917 2.917 0 0 1 1.191 6.585 A 2.383 2.383 0 0 1 0.713 6.307 A 1.874 1.874 0 0 1 0.31 5.893 A 1.689 1.689 0 0 1 0 4.896 L 0.848 4.896 A 1.261 1.261 0 0 0 0.918 5.323 A 1.074 1.074 0 0 0 1.277 5.812 Q 1.661 6.113 2.278 6.144 A 2.87 2.87 0 0 0 2.422 6.148 A 2.628 2.628 0 0 0 2.809 6.121 Q 3.005 6.092 3.164 6.031 A 1.129 1.129 0 0 0 3.445 5.875 Q 3.801 5.603 3.801 5.133 A 1.074 1.074 0 0 0 3.759 4.822 A 0.816 0.816 0 0 0 3.472 4.406 Q 3.142 4.148 2.277 3.898 Q 1.191 3.586 0.697 3.131 Q 0.202 2.676 0.202 2.008 Q 0.202 1.252 0.807 0.758 A 2.121 2.121 0 0 1 1.697 0.335 A 3.087 3.087 0 0 1 2.378 0.264 A 2.913 2.913 0 0 1 3.038 0.336 A 2.372 2.372 0 0 1 3.553 0.519 A 2.051 2.051 0 0 1 4.084 0.889 A 1.834 1.834 0 0 1 4.353 1.222 A 1.798 1.798 0 0 1 4.636 2.202 Z M 36.119 2.202 L 35.271 2.202 A 1.466 1.466 0 0 0 35.221 1.809 A 1.066 1.066 0 0 0 34.902 1.29 A 1.211 1.211 0 0 0 34.432 1.033 Q 34.18 0.958 33.86 0.958 A 2.286 2.286 0 0 0 33.48 0.988 Q 33.278 1.022 33.116 1.095 A 1.101 1.101 0 0 0 32.887 1.233 A 0.892 0.892 0 0 0 32.542 1.887 A 1.267 1.267 0 0 0 32.537 1.995 A 0.806 0.806 0 0 0 32.805 2.6 A 1.134 1.134 0 0 0 32.869 2.656 A 1.562 1.562 0 0 0 33.107 2.813 Q 33.438 2.993 33.998 3.151 A 8.228 8.228 0 0 1 34.463 3.295 Q 34.698 3.377 34.893 3.464 A 3.297 3.297 0 0 1 35.246 3.645 A 2.342 2.342 0 0 1 35.585 3.889 Q 35.775 4.056 35.897 4.248 A 1.45 1.45 0 0 1 35.914 4.276 A 1.498 1.498 0 0 1 36.111 4.832 A 1.948 1.948 0 0 1 36.132 5.124 A 1.606 1.606 0 0 1 36.01 5.76 Q 35.864 6.101 35.546 6.354 A 1.886 1.886 0 0 1 35.526 6.37 Q 34.919 6.838 33.904 6.838 A 3.023 3.023 0 0 1 32.763 6.623 A 2.917 2.917 0 0 1 32.673 6.585 A 2.383 2.383 0 0 1 32.195 6.307 A 1.874 1.874 0 0 1 31.792 5.893 A 1.689 1.689 0 0 1 31.483 4.896 L 32.331 4.896 A 1.261 1.261 0 0 0 32.4 5.323 A 1.074 1.074 0 0 0 32.759 5.812 Q 33.144 6.113 33.76 6.144 A 2.87 2.87 0 0 0 33.904 6.148 A 2.628 2.628 0 0 0 34.291 6.121 Q 34.487 6.092 34.646 6.031 A 1.129 1.129 0 0 0 34.928 5.875 Q 35.284 5.603 35.284 5.133 A 1.074 1.074 0 0 0 35.241 4.822 A 0.816 0.816 0 0 0 34.954 4.406 Q 34.625 4.148 33.759 3.898 Q 32.673 3.586 32.179 3.131 Q 31.685 2.676 31.685 2.008 Q 31.685 1.252 32.289 0.758 A 2.121 2.121 0 0 1 33.179 0.335 A 3.087 3.087 0 0 1 33.86 0.264 A 2.913 2.913 0 0 1 34.52 0.336 A 2.372 2.372 0 0 1 35.036 0.519 A 2.051 2.051 0 0 1 35.567 0.889 A 1.834 1.834 0 0 1 35.835 1.222 A 1.798 1.798 0 0 1 36.119 2.202 Z M 38.184 3.819 L 38.184 3.155 L 38.795 3.155 Q 39.253 3.148 39.555 2.961 A 1.045 1.045 0 0 0 39.7 2.852 A 0.97 0.97 0 0 0 40.02 2.225 A 1.373 1.373 0 0 0 40.03 2.057 A 1.626 1.626 0 0 0 39.974 1.611 Q 39.832 1.112 39.324 0.98 A 1.645 1.645 0 0 0 38.909 0.932 A 1.495 1.495 0 0 0 38.547 0.973 A 1.044 1.044 0 0 0 38.068 1.233 A 1.004 1.004 0 0 0 37.766 1.844 A 1.405 1.405 0 0 0 37.754 2.03 L 36.941 2.03 A 1.698 1.698 0 0 1 37.095 1.3 A 1.68 1.68 0 0 1 37.496 0.767 A 1.924 1.924 0 0 1 38.549 0.288 A 2.615 2.615 0 0 1 38.909 0.264 A 2.758 2.758 0 0 1 39.485 0.32 Q 39.853 0.399 40.132 0.586 A 1.593 1.593 0 0 1 40.329 0.743 A 1.57 1.57 0 0 1 40.795 1.589 A 2.336 2.336 0 0 1 40.843 2.074 A 1.332 1.332 0 0 1 40.691 2.686 A 1.725 1.725 0 0 1 40.573 2.883 A 1.624 1.624 0 0 1 39.873 3.452 A 1.952 1.952 0 0 1 39.837 3.467 A 1.81 1.81 0 0 1 40.272 3.668 A 1.44 1.44 0 0 1 40.652 4.021 Q 40.94 4.408 40.94 4.966 Q 40.94 5.827 40.377 6.333 A 1.935 1.935 0 0 1 39.42 6.793 A 2.738 2.738 0 0 1 38.914 6.838 A 2.716 2.716 0 0 1 38.267 6.765 A 1.936 1.936 0 0 1 37.448 6.35 Q 36.883 5.862 36.883 5.063 L 37.701 5.063 A 1.255 1.255 0 0 0 37.751 5.426 A 0.978 0.978 0 0 0 38.03 5.871 A 1.113 1.113 0 0 0 38.545 6.135 A 1.643 1.643 0 0 0 38.914 6.174 Q 39.503 6.174 39.815 5.867 Q 40.102 5.583 40.125 5.073 A 2.011 2.011 0 0 0 40.127 4.983 A 1.451 1.451 0 0 0 40.087 4.634 A 0.962 0.962 0 0 0 39.784 4.126 A 1.13 1.13 0 0 0 39.396 3.91 Q 39.138 3.824 38.795 3.819 L 38.184 3.819 Z M 117.4 4.72 L 118.248 4.72 A 3.016 3.016 0 0 1 118.087 5.416 A 2.099 2.099 0 0 1 117.499 6.286 Q 116.868 6.838 115.822 6.838 A 2.553 2.553 0 0 1 114.953 6.696 A 2.194 2.194 0 0 1 114.005 6.025 A 2.789 2.789 0 0 1 113.444 4.901 Q 113.337 4.484 113.324 3.992 A 5.262 5.262 0 0 1 113.322 3.85 L 113.322 3.234 A 4.251 4.251 0 0 1 113.392 2.445 A 3.229 3.229 0 0 1 113.641 1.666 A 2.539 2.539 0 0 1 114.096 0.99 A 2.26 2.26 0 0 1 114.544 0.626 A 2.415 2.415 0 0 1 115.569 0.281 A 3.027 3.027 0 0 1 115.897 0.264 A 2.962 2.962 0 0 1 116.603 0.343 A 2.065 2.065 0 0 1 117.532 0.833 A 2.16 2.16 0 0 1 118.127 1.795 A 3.086 3.086 0 0 1 118.248 2.408 L 117.4 2.408 Q 117.331 1.929 117.162 1.616 A 1.223 1.223 0 0 0 116.923 1.301 A 1.207 1.207 0 0 0 116.418 1.024 Q 116.231 0.971 116.008 0.961 A 2.396 2.396 0 0 0 115.897 0.958 A 1.753 1.753 0 0 0 115.319 1.049 A 1.463 1.463 0 0 0 114.629 1.556 A 1.989 1.989 0 0 0 114.315 2.175 Q 114.17 2.636 114.17 3.256 L 114.17 3.876 Q 114.17 4.917 114.605 5.533 A 1.38 1.38 0 0 0 115.604 6.135 A 1.814 1.814 0 0 0 115.822 6.148 A 2.497 2.497 0 0 0 116.23 6.117 Q 116.449 6.08 116.625 6.002 A 1.155 1.155 0 0 0 116.901 5.829 Q 117.277 5.511 117.4 4.72 Z M 173.975 6.75 L 172.319 4.548 L 171.809 5.08 L 171.809 6.75 L 170.996 6.75 L 170.996 0 L 171.809 0 L 171.809 4.083 L 172.244 3.56 L 173.725 1.995 L 174.714 1.995 L 172.863 3.981 L 174.929 6.75 L 173.975 6.75 Z M 48.23 6.75 L 46.841 4.162 L 45.339 4.162 L 45.339 6.75 L 44.49 6.75 L 44.49 0.352 L 46.609 0.352 A 3.809 3.809 0 0 1 47.25 0.402 Q 47.592 0.461 47.866 0.587 A 1.789 1.789 0 0 1 48.272 0.844 A 1.588 1.588 0 0 1 48.797 1.732 A 2.453 2.453 0 0 1 48.854 2.276 A 1.864 1.864 0 0 1 48.763 2.868 A 1.64 1.64 0 0 1 48.531 3.318 A 1.849 1.849 0 0 1 47.872 3.875 A 2.342 2.342 0 0 1 47.632 3.981 L 49.135 6.697 L 49.135 6.75 L 48.23 6.75 Z M 83.958 1.995 L 84.727 1.995 L 84.753 2.593 Q 85.289 1.918 86.149 1.907 A 2.234 2.234 0 0 1 86.177 1.907 A 1.905 1.905 0 0 1 86.81 2.004 Q 87.652 2.3 87.695 3.506 A 3.668 3.668 0 0 1 87.697 3.608 L 87.697 6.75 L 86.884 6.75 L 86.884 3.604 A 1.837 1.837 0 0 0 86.862 3.324 Q 86.812 3.017 86.649 2.843 Q 86.463 2.645 86.11 2.606 A 1.66 1.66 0 0 0 85.931 2.597 A 1.253 1.253 0 0 0 85.516 2.664 A 1.123 1.123 0 0 0 85.236 2.808 A 1.432 1.432 0 0 0 84.771 3.362 L 84.771 6.75 L 83.958 6.75 L 83.958 1.995 Z M 124.405 1.995 L 125.174 1.995 L 125.2 2.593 Q 125.737 1.918 126.597 1.907 A 2.234 2.234 0 0 1 126.624 1.907 A 1.905 1.905 0 0 1 127.258 2.004 Q 128.1 2.3 128.142 3.506 A 3.668 3.668 0 0 1 128.145 3.608 L 128.145 6.75 L 127.332 6.75 L 127.332 3.604 A 1.837 1.837 0 0 0 127.309 3.324 Q 127.259 3.017 127.097 2.843 Q 126.91 2.645 126.557 2.606 A 1.66 1.66 0 0 0 126.378 2.597 A 1.253 1.253 0 0 0 125.964 2.664 A 1.123 1.123 0 0 0 125.684 2.808 A 1.432 1.432 0 0 0 125.218 3.362 L 125.218 6.75 L 124.405 6.75 L 124.405 1.995 Z M 23.067 5.251 L 23.836 5.251 A 1.432 1.432 0 0 1 23.637 5.901 A 1.772 1.772 0 0 1 23.555 6.029 A 1.828 1.828 0 0 1 22.946 6.574 A 2.169 2.169 0 0 1 22.863 6.618 A 1.997 1.997 0 0 1 21.946 6.838 A 2.346 2.346 0 0 1 21.249 6.739 A 1.839 1.839 0 0 1 20.402 6.19 A 2.171 2.171 0 0 1 19.938 5.31 Q 19.828 4.909 19.828 4.417 L 19.828 4.28 A 3.24 3.24 0 0 1 19.892 3.624 A 2.57 2.57 0 0 1 20.083 3.045 A 2.008 2.008 0 0 1 20.523 2.431 A 1.892 1.892 0 0 1 20.815 2.206 A 1.943 1.943 0 0 1 21.571 1.934 A 2.529 2.529 0 0 1 21.942 1.907 A 2.196 2.196 0 0 1 22.59 1.999 A 1.786 1.786 0 0 1 23.271 2.386 A 1.693 1.693 0 0 1 23.83 3.535 A 2.239 2.239 0 0 1 23.836 3.63 L 23.067 3.63 Q 23.032 3.168 22.718 2.872 A 1.078 1.078 0 0 0 21.989 2.576 A 1.402 1.402 0 0 0 21.942 2.575 A 1.374 1.374 0 0 0 21.521 2.637 A 1.081 1.081 0 0 0 20.982 3.021 A 1.469 1.469 0 0 0 20.755 3.468 Q 20.689 3.674 20.662 3.923 A 3.514 3.514 0 0 0 20.641 4.311 L 20.641 4.465 Q 20.641 5.287 20.98 5.73 A 1.1 1.1 0 0 0 21.766 6.165 A 1.611 1.611 0 0 0 21.946 6.174 A 1.171 1.171 0 0 0 22.707 5.911 A 1.007 1.007 0 0 0 22.951 5.629 A 0.914 0.914 0 0 0 23.067 5.251 Z M 67.122 5.251 L 67.891 5.251 A 1.432 1.432 0 0 1 67.692 5.901 A 1.772 1.772 0 0 1 67.61 6.029 A 1.828 1.828 0 0 1 67.001 6.574 A 2.169 2.169 0 0 1 66.918 6.618 A 1.997 1.997 0 0 1 66.002 6.838 A 2.346 2.346 0 0 1 65.304 6.739 A 1.839 1.839 0 0 1 64.457 6.19 A 2.171 2.171 0 0 1 63.993 5.31 Q 63.883 4.909 63.883 4.417 L 63.883 4.28 A 3.24 3.24 0 0 1 63.947 3.624 A 2.57 2.57 0 0 1 64.138 3.045 A 2.008 2.008 0 0 1 64.578 2.431 A 1.892 1.892 0 0 1 64.87 2.206 A 1.943 1.943 0 0 1 65.626 1.934 A 2.529 2.529 0 0 1 65.997 1.907 A 2.196 2.196 0 0 1 66.645 1.999 A 1.786 1.786 0 0 1 67.327 2.386 A 1.693 1.693 0 0 1 67.885 3.535 A 2.239 2.239 0 0 1 67.891 3.63 L 67.122 3.63 Q 67.087 3.168 66.773 2.872 A 1.078 1.078 0 0 0 66.044 2.576 A 1.402 1.402 0 0 0 65.997 2.575 A 1.374 1.374 0 0 0 65.576 2.637 A 1.081 1.081 0 0 0 65.037 3.021 A 1.469 1.469 0 0 0 64.81 3.468 Q 64.744 3.674 64.717 3.923 A 3.514 3.514 0 0 0 64.696 4.311 L 64.696 4.465 Q 64.696 5.287 65.035 5.73 A 1.1 1.1 0 0 0 65.821 6.165 A 1.611 1.611 0 0 0 66.002 6.174 A 1.171 1.171 0 0 0 66.762 5.911 A 1.007 1.007 0 0 0 67.006 5.629 A 0.914 0.914 0 0 0 67.122 5.251 Z M 95.524 0.352 L 95.524 1.046 L 93.467 1.046 L 93.467 6.75 L 92.628 6.75 L 92.628 1.046 L 90.576 1.046 L 90.576 0.352 L 95.524 0.352 Z M 72.593 6.75 L 71.741 6.75 A 0.632 0.632 0 0 1 71.705 6.66 Q 71.674 6.562 71.649 6.41 A 3.997 3.997 0 0 1 71.627 6.249 Q 71.06 6.838 70.273 6.838 A 2.033 2.033 0 0 1 69.744 6.772 A 1.529 1.529 0 0 1 69.12 6.44 Q 68.669 6.042 68.669 5.432 Q 68.669 4.689 69.234 4.278 Q 69.798 3.867 70.822 3.867 L 71.613 3.867 L 71.613 3.494 A 1.152 1.152 0 0 0 71.578 3.199 A 0.828 0.828 0 0 0 71.359 2.815 Q 71.142 2.6 70.752 2.568 A 1.748 1.748 0 0 0 70.607 2.562 Q 70.172 2.562 69.878 2.782 Q 69.583 3.001 69.583 3.313 L 68.766 3.313 A 1.041 1.041 0 0 1 68.891 2.825 A 1.409 1.409 0 0 1 69.018 2.626 Q 69.271 2.294 69.704 2.101 A 2.249 2.249 0 0 1 70.48 1.913 A 2.669 2.669 0 0 1 70.655 1.907 A 2.65 2.65 0 0 1 71.173 1.955 Q 71.48 2.016 71.719 2.156 A 1.439 1.439 0 0 1 71.943 2.318 A 1.396 1.396 0 0 1 72.396 3.144 A 1.998 1.998 0 0 1 72.426 3.45 L 72.426 5.638 Q 72.426 6.073 72.5 6.39 A 1.707 1.707 0 0 0 72.593 6.68 L 72.593 6.75 Z M 166.839 6.75 L 165.986 6.75 A 0.632 0.632 0 0 1 165.95 6.66 Q 165.919 6.562 165.894 6.41 A 3.997 3.997 0 0 1 165.872 6.249 Q 165.305 6.838 164.518 6.838 A 2.033 2.033 0 0 1 163.989 6.772 A 1.529 1.529 0 0 1 163.365 6.44 Q 162.914 6.042 162.914 5.432 Q 162.914 4.689 163.479 4.278 Q 164.044 3.867 165.068 3.867 L 165.859 3.867 L 165.859 3.494 A 1.152 1.152 0 0 0 165.823 3.199 A 0.828 0.828 0 0 0 165.604 2.815 Q 165.387 2.6 164.997 2.568 A 1.748 1.748 0 0 0 164.852 2.562 Q 164.417 2.562 164.123 2.782 Q 163.828 3.001 163.828 3.313 L 163.011 3.313 A 1.041 1.041 0 0 1 163.136 2.825 A 1.409 1.409 0 0 1 163.264 2.626 Q 163.516 2.294 163.949 2.101 A 2.249 2.249 0 0 1 164.725 1.913 A 2.669 2.669 0 0 1 164.901 1.907 A 2.65 2.65 0 0 1 165.418 1.955 Q 165.725 2.016 165.964 2.156 A 1.439 1.439 0 0 1 166.188 2.318 A 1.396 1.396 0 0 1 166.641 3.144 A 1.998 1.998 0 0 1 166.672 3.45 L 166.672 5.638 Q 166.672 6.073 166.745 6.39 A 1.707 1.707 0 0 0 166.839 6.68 L 166.839 6.75 Z M 58.694 4.351 L 58.694 4.425 Q 58.694 5.511 58.197 6.174 A 1.57 1.57 0 0 1 57.059 6.828 A 2.013 2.013 0 0 1 56.852 6.838 A 2.196 2.196 0 0 1 56.266 6.764 A 1.598 1.598 0 0 1 55.49 6.289 L 55.49 8.578 L 54.677 8.578 L 54.677 1.995 L 55.42 1.995 L 55.459 2.522 A 1.619 1.619 0 0 1 56.598 1.919 A 2.319 2.319 0 0 1 56.839 1.907 A 1.829 1.829 0 0 1 57.476 2.014 A 1.597 1.597 0 0 1 58.195 2.553 Q 58.694 3.199 58.694 4.351 Z M 5.397 4.504 L 5.397 4.355 A 3.17 3.17 0 0 1 5.473 3.646 A 2.581 2.581 0 0 1 5.667 3.092 A 2.191 2.191 0 0 1 6.114 2.466 A 2.033 2.033 0 0 1 6.423 2.221 Q 6.908 1.907 7.475 1.907 A 2.254 2.254 0 0 1 8.088 1.986 A 1.639 1.639 0 0 1 8.917 2.518 Q 9.431 3.129 9.431 4.267 L 9.431 4.605 L 6.21 4.605 A 2.111 2.111 0 0 0 6.281 5.114 A 1.516 1.516 0 0 0 6.621 5.741 A 1.282 1.282 0 0 0 7.555 6.173 A 1.652 1.652 0 0 0 7.62 6.174 A 1.763 1.763 0 0 0 7.948 6.145 Q 8.172 6.103 8.35 5.999 A 1.827 1.827 0 0 0 8.859 5.551 A 2.068 2.068 0 0 0 8.873 5.533 L 9.369 5.919 A 1.926 1.926 0 0 1 7.97 6.811 A 2.749 2.749 0 0 1 7.576 6.838 A 2.394 2.394 0 0 1 6.825 6.725 A 1.974 1.974 0 0 1 6.003 6.203 Q 5.397 5.568 5.397 4.504 Z M 24.544 4.504 L 24.544 4.355 A 3.17 3.17 0 0 1 24.62 3.646 A 2.581 2.581 0 0 1 24.814 3.092 A 2.191 2.191 0 0 1 25.261 2.466 A 2.033 2.033 0 0 1 25.57 2.221 Q 26.055 1.907 26.622 1.907 A 2.254 2.254 0 0 1 27.235 1.986 A 1.639 1.639 0 0 1 28.064 2.518 Q 28.578 3.129 28.578 4.267 L 28.578 4.605 L 25.357 4.605 A 2.111 2.111 0 0 0 25.428 5.114 A 1.516 1.516 0 0 0 25.767 5.741 A 1.282 1.282 0 0 0 26.702 6.173 A 1.652 1.652 0 0 0 26.767 6.174 A 1.763 1.763 0 0 0 27.095 6.145 Q 27.319 6.103 27.497 5.999 A 1.827 1.827 0 0 0 28.006 5.551 A 2.068 2.068 0 0 0 28.02 5.533 L 28.516 5.919 A 1.926 1.926 0 0 1 27.117 6.811 A 2.749 2.749 0 0 1 26.723 6.838 A 2.394 2.394 0 0 1 25.972 6.725 A 1.974 1.974 0 0 1 25.15 6.203 Q 24.544 5.568 24.544 4.504 Z M 49.702 4.504 L 49.702 4.355 A 3.17 3.17 0 0 1 49.779 3.646 A 2.581 2.581 0 0 1 49.973 3.092 A 2.191 2.191 0 0 1 50.42 2.466 A 2.033 2.033 0 0 1 50.728 2.221 Q 51.214 1.907 51.781 1.907 A 2.254 2.254 0 0 1 52.394 1.986 A 1.639 1.639 0 0 1 53.222 2.518 Q 53.736 3.129 53.736 4.267 L 53.736 4.605 L 50.515 4.605 A 2.111 2.111 0 0 0 50.586 5.114 A 1.516 1.516 0 0 0 50.926 5.741 A 1.282 1.282 0 0 0 51.86 6.173 A 1.652 1.652 0 0 0 51.926 6.174 A 1.763 1.763 0 0 0 52.254 6.145 Q 52.478 6.103 52.655 5.999 A 1.827 1.827 0 0 0 53.164 5.551 A 2.068 2.068 0 0 0 53.178 5.533 L 53.675 5.919 A 1.926 1.926 0 0 1 52.275 6.811 A 2.749 2.749 0 0 1 51.882 6.838 A 2.394 2.394 0 0 1 51.131 6.725 A 1.974 1.974 0 0 1 50.309 6.203 Q 49.702 5.568 49.702 4.504 Z M 106.212 4.504 L 106.212 4.355 A 3.17 3.17 0 0 1 106.288 3.646 A 2.581 2.581 0 0 1 106.482 3.092 A 2.191 2.191 0 0 1 106.929 2.466 A 2.033 2.033 0 0 1 107.238 2.221 Q 107.723 1.907 108.29 1.907 A 2.254 2.254 0 0 1 108.903 1.986 A 1.639 1.639 0 0 1 109.732 2.518 Q 110.246 3.129 110.246 4.267 L 110.246 4.605 L 107.025 4.605 A 2.111 2.111 0 0 0 107.096 5.114 A 1.516 1.516 0 0 0 107.435 5.741 A 1.282 1.282 0 0 0 108.37 6.173 A 1.652 1.652 0 0 0 108.435 6.174 A 1.763 1.763 0 0 0 108.763 6.145 Q 108.987 6.103 109.165 5.999 A 1.827 1.827 0 0 0 109.674 5.551 A 2.068 2.068 0 0 0 109.688 5.533 L 110.184 5.919 A 1.926 1.926 0 0 1 108.784 6.811 A 2.749 2.749 0 0 1 108.391 6.838 A 2.394 2.394 0 0 1 107.64 6.725 A 1.974 1.974 0 0 1 106.818 6.203 Q 106.212 5.568 106.212 4.504 Z M 13.856 1.995 L 15.065 5.647 L 16.242 1.995 L 17.073 1.995 L 15.368 6.75 L 14.748 6.75 L 13.026 1.995 L 13.856 1.995 Z M 148.162 0.352 L 148.162 4.601 L 149.049 4.601 L 149.049 5.265 L 148.162 5.265 L 148.162 6.75 L 147.344 6.75 L 147.344 5.265 L 144.431 5.265 L 144.431 4.786 L 147.296 0.352 L 148.162 0.352 Z M 159.047 6.75 L 157.276 6.75 L 157.276 0.352 L 159.082 0.352 Q 159.917 0.352 160.559 0.721 Q 161.2 1.09 161.55 1.771 A 3.19 3.19 0 0 1 161.867 2.8 A 4.073 4.073 0 0 1 161.903 3.335 L 161.903 3.744 Q 161.903 4.649 161.554 5.331 A 2.457 2.457 0 0 1 160.557 6.376 Q 159.908 6.741 159.047 6.75 Z M 153.56 2.592 A 1.544 1.544 0 0 0 153.664 2.021 A 2.226 2.226 0 0 0 153.642 1.707 A 1.566 1.566 0 0 0 153.143 0.738 A 1.754 1.754 0 0 0 152.377 0.333 A 2.443 2.443 0 0 0 151.778 0.264 A 2.539 2.539 0 0 0 151.269 0.312 A 1.767 1.767 0 0 0 150.412 0.738 Q 149.893 1.213 149.893 2.021 A 1.808 1.808 0 0 0 149.894 2.058 A 1.499 1.499 0 0 0 150.139 2.87 A 1.626 1.626 0 0 0 150.301 3.077 A 1.726 1.726 0 0 0 150.812 3.454 A 2.119 2.119 0 0 0 150.712 3.5 A 1.738 1.738 0 0 0 150.027 4.087 A 1.629 1.629 0 0 0 149.744 5.023 A 2.272 2.272 0 0 0 149.754 5.237 A 1.63 1.63 0 0 0 150.3 6.344 A 1.895 1.895 0 0 0 151.15 6.771 A 2.797 2.797 0 0 0 151.778 6.838 A 2.796 2.796 0 0 0 152.377 6.777 A 1.925 1.925 0 0 0 153.253 6.346 A 1.578 1.578 0 0 0 153.728 5.62 A 1.989 1.989 0 0 0 153.813 5.023 A 1.581 1.581 0 0 0 153.521 4.087 Q 153.229 3.674 152.728 3.458 Q 153.158 3.248 153.411 2.874 A 1.449 1.449 0 0 0 153.56 2.592 Z M 73.991 0.844 L 74.804 0.844 L 74.804 1.995 L 75.692 1.995 L 75.692 2.624 L 74.804 2.624 L 74.804 5.572 Q 74.804 5.858 74.923 6.001 Q 75.041 6.144 75.327 6.144 A 1.046 1.046 0 0 0 75.424 6.138 Q 75.527 6.129 75.667 6.101 A 4.024 4.024 0 0 0 75.714 6.091 L 75.714 6.75 A 2.463 2.463 0 0 1 75.281 6.829 A 2.157 2.157 0 0 1 75.09 6.838 Q 74.642 6.838 74.376 6.616 A 0.856 0.856 0 0 1 74.268 6.508 Q 74.04 6.238 74 5.78 A 2.351 2.351 0 0 1 73.991 5.572 L 73.991 2.624 L 73.125 2.624 L 73.125 1.995 L 73.991 1.995 L 73.991 0.844 Z M 129.661 0.844 L 130.474 0.844 L 130.474 1.995 L 131.361 1.995 L 131.361 2.624 L 130.474 2.624 L 130.474 5.572 Q 130.474 5.858 130.592 6.001 Q 130.711 6.144 130.997 6.144 A 1.046 1.046 0 0 0 131.094 6.138 Q 131.197 6.129 131.337 6.101 A 4.024 4.024 0 0 0 131.383 6.091 L 131.383 6.75 A 2.463 2.463 0 0 1 130.951 6.829 A 2.157 2.157 0 0 1 130.759 6.838 Q 130.312 6.838 130.046 6.616 A 0.856 0.856 0 0 1 129.938 6.508 Q 129.71 6.238 129.67 5.78 A 2.351 2.351 0 0 1 129.661 5.572 L 129.661 2.624 L 128.795 2.624 L 128.795 1.995 L 129.661 1.995 L 129.661 0.844 Z M 60.61 0 L 60.61 6.75 L 59.797 6.75 L 59.797 0 L 60.61 0 Z M 141.284 0 L 141.284 6.75 L 140.471 6.75 L 140.471 0 L 141.284 0 Z M 78.61 4.386 L 78.61 4.329 A 3.057 3.057 0 0 1 78.696 3.587 A 2.573 2.573 0 0 1 78.884 3.072 A 2.16 2.16 0 0 1 79.299 2.486 A 1.957 1.957 0 0 1 79.649 2.21 A 2.036 2.036 0 0 1 80.593 1.913 A 2.491 2.491 0 0 1 80.767 1.907 A 2.277 2.277 0 0 1 81.521 2.027 A 1.937 1.937 0 0 1 82.338 2.58 A 2.29 2.29 0 0 1 82.857 3.608 A 3.373 3.373 0 0 1 82.938 4.368 L 82.938 4.425 A 3.114 3.114 0 0 1 82.859 5.142 A 2.577 2.577 0 0 1 82.672 5.671 A 2.056 2.056 0 0 1 82.145 6.361 A 2.001 2.001 0 0 1 81.912 6.53 A 2.045 2.045 0 0 1 80.992 6.829 A 2.529 2.529 0 0 1 80.776 6.838 A 2.262 2.262 0 0 1 80.026 6.718 A 1.938 1.938 0 0 1 79.209 6.166 A 2.297 2.297 0 0 1 78.684 5.111 A 3.357 3.357 0 0 1 78.61 4.386 Z M 119.057 4.386 L 119.057 4.329 A 3.057 3.057 0 0 1 119.144 3.587 A 2.573 2.573 0 0 1 119.331 3.072 A 2.16 2.16 0 0 1 119.746 2.486 A 1.957 1.957 0 0 1 120.096 2.21 A 2.036 2.036 0 0 1 121.04 1.913 A 2.491 2.491 0 0 1 121.215 1.907 A 2.277 2.277 0 0 1 121.968 2.027 A 1.937 1.937 0 0 1 122.786 2.58 A 2.29 2.29 0 0 1 123.305 3.608 A 3.373 3.373 0 0 1 123.385 4.368 L 123.385 4.425 A 3.114 3.114 0 0 1 123.306 5.142 A 2.577 2.577 0 0 1 123.12 5.671 A 2.056 2.056 0 0 1 122.592 6.361 A 2.001 2.001 0 0 1 122.359 6.53 A 2.045 2.045 0 0 1 121.439 6.829 A 2.529 2.529 0 0 1 121.223 6.838 A 2.262 2.262 0 0 1 120.473 6.718 A 1.938 1.938 0 0 1 119.657 6.166 A 2.297 2.297 0 0 1 119.131 5.111 A 3.357 3.357 0 0 1 119.057 4.386 Z M 135.053 4.386 L 135.053 4.329 A 3.057 3.057 0 0 1 135.14 3.587 A 2.573 2.573 0 0 1 135.328 3.072 A 2.16 2.16 0 0 1 135.742 2.486 A 1.957 1.957 0 0 1 136.092 2.21 A 2.036 2.036 0 0 1 137.037 1.913 A 2.491 2.491 0 0 1 137.211 1.907 A 2.277 2.277 0 0 1 137.964 2.027 A 1.937 1.937 0 0 1 138.782 2.58 A 2.29 2.29 0 0 1 139.301 3.608 A 3.373 3.373 0 0 1 139.381 4.368 L 139.381 4.425 A 3.114 3.114 0 0 1 139.302 5.142 A 2.577 2.577 0 0 1 139.116 5.671 A 2.056 2.056 0 0 1 138.588 6.361 A 2.001 2.001 0 0 1 138.355 6.53 A 2.045 2.045 0 0 1 137.436 6.829 A 2.529 2.529 0 0 1 137.219 6.838 A 2.262 2.262 0 0 1 136.469 6.718 A 1.938 1.938 0 0 1 135.653 6.166 A 2.297 2.297 0 0 1 135.127 5.111 A 3.357 3.357 0 0 1 135.053 4.386 Z M 12.67 1.969 L 12.67 2.725 A 2.251 2.251 0 0 0 12.427 2.698 A 2.782 2.782 0 0 0 12.27 2.694 Q 11.492 2.694 11.2 3.338 A 1.445 1.445 0 0 0 11.184 3.375 L 11.184 6.75 L 10.371 6.75 L 10.371 1.995 L 11.162 1.995 L 11.175 2.544 Q 11.556 1.938 12.238 1.909 A 1.636 1.636 0 0 1 12.309 1.907 Q 12.547 1.907 12.67 1.969 Z M 134.609 1.969 L 134.609 2.725 A 2.251 2.251 0 0 0 134.366 2.698 A 2.782 2.782 0 0 0 134.209 2.694 Q 133.431 2.694 133.14 3.338 A 1.445 1.445 0 0 0 133.124 3.375 L 133.124 6.75 L 132.311 6.75 L 132.311 1.995 L 133.102 1.995 L 133.115 2.544 Q 133.495 1.938 134.178 1.909 A 1.636 1.636 0 0 1 134.249 1.907 Q 134.486 1.907 134.609 1.969 Z M 170.244 1.969 L 170.244 2.725 A 2.251 2.251 0 0 0 170.002 2.698 A 2.782 2.782 0 0 0 169.844 2.694 Q 169.067 2.694 168.775 3.338 A 1.445 1.445 0 0 0 168.759 3.375 L 168.759 6.75 L 167.946 6.75 L 167.946 1.995 L 168.737 1.995 L 168.75 2.544 Q 169.131 1.938 169.813 1.909 A 1.636 1.636 0 0 1 169.884 1.907 Q 170.121 1.907 170.244 1.969 Z M 159.104 1.046 L 158.12 1.046 L 158.12 6.06 L 159.007 6.06 A 2.519 2.519 0 0 0 159.64 5.985 A 1.747 1.747 0 0 0 160.526 5.454 Q 160.985 4.94 161.056 4.059 A 4.165 4.165 0 0 0 161.069 3.727 L 161.069 3.353 Q 161.069 2.562 160.799 2.027 A 1.864 1.864 0 0 0 160.557 1.659 A 1.687 1.687 0 0 0 159.561 1.09 A 2.499 2.499 0 0 0 159.104 1.046 Z M 18.738 1.995 L 18.738 6.75 L 17.925 6.75 L 17.925 1.995 L 18.738 1.995 Z M 62.794 1.995 L 62.794 6.75 L 61.981 6.75 L 61.981 1.995 L 62.794 1.995 Z M 77.524 1.995 L 77.524 6.75 L 76.711 6.75 L 76.711 1.995 L 77.524 1.995 Z M 97.229 1.995 L 97.229 6.75 L 96.416 6.75 L 96.416 1.995 L 97.229 1.995 Z M 79.427 4.425 A 2.772 2.772 0 0 0 79.474 4.954 Q 79.535 5.264 79.672 5.51 A 1.545 1.545 0 0 0 79.794 5.695 Q 80.161 6.174 80.776 6.174 A 1.269 1.269 0 0 0 81.265 6.083 Q 81.545 5.967 81.747 5.706 A 1.471 1.471 0 0 0 81.76 5.689 A 1.648 1.648 0 0 0 82.015 5.171 Q 82.084 4.945 82.11 4.672 A 3.655 3.655 0 0 0 82.125 4.329 A 2.687 2.687 0 0 0 82.074 3.789 Q 82.006 3.459 81.849 3.2 A 1.586 1.586 0 0 0 81.754 3.061 A 1.231 1.231 0 0 0 81.339 2.705 Q 81.086 2.575 80.767 2.575 Q 80.177 2.575 79.811 3.035 A 1.515 1.515 0 0 0 79.796 3.054 A 1.589 1.589 0 0 0 79.544 3.552 Q 79.474 3.772 79.446 4.039 A 3.676 3.676 0 0 0 79.427 4.425 Z M 119.874 4.425 A 2.772 2.772 0 0 0 119.922 4.954 Q 119.982 5.264 120.119 5.51 A 1.545 1.545 0 0 0 120.241 5.695 Q 120.608 6.174 121.223 6.174 A 1.269 1.269 0 0 0 121.713 6.083 Q 121.992 5.967 122.195 5.706 A 1.471 1.471 0 0 0 122.208 5.689 A 1.648 1.648 0 0 0 122.463 5.171 Q 122.531 4.945 122.557 4.672 A 3.655 3.655 0 0 0 122.572 4.329 A 2.687 2.687 0 0 0 122.521 3.789 Q 122.454 3.459 122.296 3.2 A 1.586 1.586 0 0 0 122.201 3.061 A 1.231 1.231 0 0 0 121.786 2.705 Q 121.533 2.575 121.215 2.575 Q 120.625 2.575 120.258 3.035 A 1.515 1.515 0 0 0 120.243 3.054 A 1.589 1.589 0 0 0 119.991 3.552 Q 119.922 3.772 119.893 4.039 A 3.676 3.676 0 0 0 119.874 4.425 Z M 135.87 4.425 A 2.772 2.772 0 0 0 135.918 4.954 Q 135.978 5.264 136.115 5.51 A 1.545 1.545 0 0 0 136.237 5.695 Q 136.604 6.174 137.219 6.174 A 1.269 1.269 0 0 0 137.709 6.083 Q 137.988 5.967 138.191 5.706 A 1.471 1.471 0 0 0 138.204 5.689 A 1.648 1.648 0 0 0 138.459 5.171 Q 138.527 4.945 138.553 4.672 A 3.655 3.655 0 0 0 138.569 4.329 A 2.687 2.687 0 0 0 138.517 3.789 Q 138.45 3.459 138.292 3.2 A 1.586 1.586 0 0 0 138.197 3.061 A 1.231 1.231 0 0 0 137.782 2.705 Q 137.529 2.575 137.211 2.575 Q 136.621 2.575 136.254 3.035 A 1.515 1.515 0 0 0 136.239 3.054 A 1.589 1.589 0 0 0 135.987 3.552 Q 135.918 3.772 135.89 4.039 A 3.676 3.676 0 0 0 135.87 4.425 Z M 55.49 3.252 L 55.49 5.524 Q 55.855 6.174 56.606 6.174 A 1.184 1.184 0 0 0 57.072 6.086 Q 57.329 5.977 57.517 5.735 A 1.403 1.403 0 0 0 57.536 5.711 A 1.501 1.501 0 0 0 57.752 5.28 Q 57.82 5.073 57.852 4.818 A 3.91 3.91 0 0 0 57.881 4.333 Q 57.881 3.746 57.698 3.339 A 1.503 1.503 0 0 0 57.538 3.063 A 1.086 1.086 0 0 0 56.752 2.605 A 1.414 1.414 0 0 0 56.597 2.597 Q 55.937 2.597 55.572 3.121 A 1.623 1.623 0 0 0 55.49 3.252 Z M 45.339 1.046 L 45.339 3.472 L 46.635 3.472 Q 47.175 3.472 47.525 3.231 A 1.174 1.174 0 0 0 47.635 3.146 A 1.069 1.069 0 0 0 48 2.409 A 1.486 1.486 0 0 0 48.006 2.276 Q 48.006 1.734 47.71 1.423 A 1 1 0 0 0 47.652 1.367 Q 47.298 1.05 46.631 1.046 L 45.339 1.046 Z M 147.248 1.639 L 145.354 4.601 L 147.344 4.601 L 147.344 1.463 L 147.248 1.639 Z M 153 5.005 A 1.375 1.375 0 0 0 152.941 4.592 A 1.109 1.109 0 0 0 152.66 4.131 A 1.148 1.148 0 0 0 151.988 3.807 A 1.593 1.593 0 0 0 151.77 3.792 A 1.466 1.466 0 0 0 151.381 3.841 A 1.086 1.086 0 0 0 150.889 4.126 A 1.123 1.123 0 0 0 150.575 4.762 A 1.572 1.572 0 0 0 150.557 5.005 A 1.48 1.48 0 0 0 150.599 5.367 A 1.019 1.019 0 0 0 150.88 5.862 Q 151.186 6.158 151.719 6.173 A 2.053 2.053 0 0 0 151.778 6.174 Q 152.272 6.174 152.582 5.94 A 1.018 1.018 0 0 0 152.675 5.86 A 1.041 1.041 0 0 0 152.974 5.292 A 1.518 1.518 0 0 0 153 5.005 Z M 151.778 0.932 A 1.259 1.259 0 0 0 151.426 0.979 A 0.973 0.973 0 0 0 151.003 1.228 Q 150.706 1.525 150.706 2.035 A 1.325 1.325 0 0 0 150.751 2.387 A 0.994 0.994 0 0 0 150.998 2.823 A 0.974 0.974 0 0 0 151.561 3.108 A 1.382 1.382 0 0 0 151.778 3.125 A 1.279 1.279 0 0 0 152.123 3.08 A 0.952 0.952 0 0 0 152.558 2.823 A 1.018 1.018 0 0 0 152.834 2.26 A 1.426 1.426 0 0 0 152.851 2.035 A 1.282 1.282 0 0 0 152.801 1.668 A 1.013 1.013 0 0 0 152.548 1.239 Q 152.244 0.932 151.778 0.932 Z M 71.613 5.418 L 71.613 4.443 L 70.976 4.443 Q 69.482 4.443 69.482 5.317 Q 69.482 5.7 69.737 5.915 A 0.893 0.893 0 0 0 70.15 6.108 A 1.259 1.259 0 0 0 70.392 6.13 A 1.429 1.429 0 0 0 71.117 5.933 A 1.335 1.335 0 0 0 71.412 5.705 A 1.108 1.108 0 0 0 71.613 5.418 Z M 165.859 5.418 L 165.859 4.443 L 165.221 4.443 Q 163.727 4.443 163.727 5.317 Q 163.727 5.7 163.982 5.915 A 0.893 0.893 0 0 0 164.396 6.108 A 1.259 1.259 0 0 0 164.637 6.13 A 1.429 1.429 0 0 0 165.362 5.933 A 1.335 1.335 0 0 0 165.657 5.705 A 1.108 1.108 0 0 0 165.859 5.418 Z M 6.236 3.938 L 8.618 3.938 L 8.618 3.876 Q 8.592 3.417 8.421 3.111 A 1.13 1.13 0 0 0 8.284 2.916 A 0.983 0.983 0 0 0 7.629 2.584 A 1.39 1.39 0 0 0 7.475 2.575 A 1.106 1.106 0 0 0 6.953 2.698 A 1.14 1.14 0 0 0 6.649 2.933 A 1.417 1.417 0 0 0 6.372 3.379 Q 6.299 3.563 6.259 3.785 A 2.741 2.741 0 0 0 6.236 3.938 Z M 25.383 3.938 L 27.765 3.938 L 27.765 3.876 Q 27.739 3.417 27.568 3.111 A 1.13 1.13 0 0 0 27.431 2.916 A 0.983 0.983 0 0 0 26.776 2.584 A 1.39 1.39 0 0 0 26.622 2.575 A 1.106 1.106 0 0 0 26.1 2.698 A 1.14 1.14 0 0 0 25.796 2.933 A 1.417 1.417 0 0 0 25.519 3.379 Q 25.446 3.563 25.406 3.785 A 2.741 2.741 0 0 0 25.383 3.938 Z M 50.542 3.938 L 52.923 3.938 L 52.923 3.876 Q 52.897 3.417 52.727 3.111 A 1.13 1.13 0 0 0 52.59 2.916 A 0.983 0.983 0 0 0 51.935 2.584 A 1.39 1.39 0 0 0 51.781 2.575 A 1.106 1.106 0 0 0 51.258 2.698 A 1.14 1.14 0 0 0 50.955 2.933 A 1.417 1.417 0 0 0 50.678 3.379 Q 50.604 3.563 50.565 3.785 A 2.741 2.741 0 0 0 50.542 3.938 Z M 107.051 3.938 L 109.433 3.938 L 109.433 3.876 Q 109.407 3.417 109.236 3.111 A 1.13 1.13 0 0 0 109.099 2.916 A 0.983 0.983 0 0 0 108.444 2.584 A 1.39 1.39 0 0 0 108.29 2.575 A 1.106 1.106 0 0 0 107.768 2.698 A 1.14 1.14 0 0 0 107.464 2.933 A 1.417 1.417 0 0 0 107.187 3.379 Q 107.114 3.563 107.074 3.785 A 2.741 2.741 0 0 0 107.051 3.938 Z M 17.86 0.734 Q 17.86 0.536 17.98 0.4 Q 18.092 0.274 18.304 0.264 A 0.783 0.783 0 0 1 18.339 0.264 Q 18.576 0.264 18.699 0.4 A 0.474 0.474 0 0 1 18.821 0.703 A 0.614 0.614 0 0 1 18.822 0.734 A 0.523 0.523 0 0 1 18.797 0.9 A 0.442 0.442 0 0 1 18.699 1.063 Q 18.586 1.184 18.378 1.194 A 0.803 0.803 0 0 1 18.339 1.195 Q 18.166 1.195 18.055 1.126 A 0.362 0.362 0 0 1 17.98 1.063 A 0.456 0.456 0 0 1 17.862 0.788 A 0.605 0.605 0 0 1 17.86 0.734 Z M 61.915 0.734 Q 61.915 0.536 62.036 0.4 Q 62.147 0.274 62.359 0.264 A 0.783 0.783 0 0 1 62.394 0.264 Q 62.631 0.264 62.754 0.4 A 0.474 0.474 0 0 1 62.876 0.703 A 0.614 0.614 0 0 1 62.877 0.734 A 0.523 0.523 0 0 1 62.852 0.9 A 0.442 0.442 0 0 1 62.754 1.063 Q 62.642 1.184 62.434 1.194 A 0.803 0.803 0 0 1 62.394 1.195 Q 62.221 1.195 62.11 1.126 A 0.362 0.362 0 0 1 62.036 1.063 A 0.456 0.456 0 0 1 61.917 0.788 A 0.605 0.605 0 0 1 61.915 0.734 Z M 76.645 0.734 Q 76.645 0.536 76.766 0.4 Q 76.878 0.274 77.09 0.264 A 0.783 0.783 0 0 1 77.124 0.264 Q 77.361 0.264 77.485 0.4 A 0.474 0.474 0 0 1 77.607 0.703 A 0.614 0.614 0 0 1 77.608 0.734 A 0.523 0.523 0 0 1 77.582 0.9 A 0.442 0.442 0 0 1 77.485 1.063 Q 77.372 1.184 77.164 1.194 A 0.803 0.803 0 0 1 77.124 1.195 Q 76.952 1.195 76.841 1.126 A 0.362 0.362 0 0 1 76.766 1.063 A 0.456 0.456 0 0 1 76.648 0.788 A 0.605 0.605 0 0 1 76.645 0.734 Z M 96.35 0.734 Q 96.35 0.536 96.471 0.4 Q 96.583 0.274 96.795 0.264 A 0.783 0.783 0 0 1 96.829 0.264 Q 97.067 0.264 97.19 0.4 A 0.474 0.474 0 0 1 97.312 0.703 A 0.614 0.614 0 0 1 97.313 0.734 A 0.523 0.523 0 0 1 97.287 0.9 A 0.442 0.442 0 0 1 97.19 1.063 Q 97.077 1.184 96.869 1.194 A 0.803 0.803 0 0 1 96.829 1.195 Q 96.657 1.195 96.546 1.126 A 0.362 0.362 0 0 1 96.471 1.063 A 0.456 0.456 0 0 1 96.353 0.788 A 0.605 0.605 0 0 1 96.35 0.734 Z" vector-effect="non-scaling-stroke"/></g>
</svgversion="1.0" encoding="UTF-8"?>
<svg width="48px" height="48px" viewBox="0 0 48 48" version="1.1" xmlns="http://www.w3.org/2000/svg" xmlns:xlink="http://www.w3.org/1999/xlink">
    <title>Icon-Resource/Storage/Res_AWS-Amazon-Simple-Storage_S3-Replication-Time-Control_48_Dark</title>
    <g id="Icon-Resource/Storage/Res_AWS-Amazon-Simple-Storage_S3-Replication-Time-Control_48" stroke="none" stroke-width="1" fill="none" fill-rule="evenodd">
        <path transform="translate(0vw, 0vh), scale(.65)" d="M24.4436,31.9717 L22.4436,31.9717 L22.4436,35.9677 C22.4436,36.5207 22.8906,36.9677 23.4436,36.9677 L26.4396,36.9677 L26.4396,34.9677 L24.4436,34.9677 L24.4436,31.9717 Z M27.9726,35.4677 C27.9726,32.9897 25.9576,30.9737 23.4786,30.9737 C21.0006,30.9737 18.9846,32.9897 18.9846,35.4677 C18.9846,37.9467 21.0006,39.9617 23.4786,39.9617 C25.9576,39.9617 27.9726,37.9467 27.9726,35.4677 L27.9726,35.4677 Z M29.9726,35.4677 C29.9726,39.0487 27.0596,41.9617 23.4786,41.9617 C19.8976,41.9617 16.9846,39.0487 16.9846,35.4677 C16.9846,31.8867 19.8976,28.9737 23.4786,28.9737 C27.0596,28.9737 29.9726,31.8867 29.9726,35.4677 L29.9726,35.4677 Z M43.7206,29.2257 C43.4796,28.9677 42.9866,28.5477 41.9926,27.9407 L41.8586,28.9517 C42.8216,29.1777 43.3986,29.2257 43.7206,29.2257 L43.7206,29.2257 Z M26.8416,24.0697 C26.7966,24.0697 26.7576,24.1067 26.7576,24.1527 C26.7576,24.2437 26.9246,24.2437 26.9246,24.1527 C26.9246,24.1067 26.8876,24.0697 26.8416,24.0697 L26.8416,24.0697 Z M39.6476,30.4187 C35.7366,29.2187 30.6566,26.9467 27.9686,25.6957 C27.6516,25.9277 27.2636,26.0697 26.8416,26.0697 C25.7856,26.0697 24.9246,25.2087 24.9246,24.1527 C24.9246,23.0957 25.7856,22.2367 26.8416,22.2367 C27.7926,22.2367 28.5776,22.9337 28.7266,23.8417 C31.0006,24.9017 36.0476,27.1777 39.9136,28.4047 L41.4276,16.9577 C38.2106,18.5977 32.2846,19.2397 26.9646,19.2397 C21.4506,19.2397 15.2996,18.5927 11.9936,16.9337 L15.4126,41.3597 C15.4196,41.4057 15.4226,41.4517 15.4226,41.4977 C15.6086,42.2247 19.7086,43.9577 26.8046,43.9577 C29.4806,43.9577 32.1506,43.6837 34.3236,43.1867 C35.1676,42.9937 35.9116,42.7737 36.5386,42.5277 C37.7976,42.0357 38.1636,41.5997 38.1916,41.4857 C38.1916,41.4417 38.1936,41.4097 38.1996,41.3677 L39.6476,30.4187 Z M11.5806,13.9877 L11.5936,14.0787 C11.7976,15.2207 17.0586,17.2397 26.9646,17.2397 C36.6726,17.2397 41.6246,15.2487 41.8086,14.0787 L41.8206,13.9877 C41.7616,12.7047 36.5266,10.2507 26.9646,10.2507 C16.2846,10.2507 11.6486,13.0597 11.5806,13.9877 L11.5806,13.9877 Z M45.5476,30.5367 C45.1576,30.9957 44.5546,31.2237 43.6656,31.2237 C43.0996,31.2237 42.4126,31.1267 41.5946,30.9437 L40.1896,41.5757 C40.1466,42.7027 39.1646,43.6497 37.2656,44.3907 C36.5476,44.6717 35.7076,44.9227 34.7686,45.1357 C32.4556,45.6657 29.6266,45.9577 26.8046,45.9577 C21.4696,45.9577 13.5556,44.7897 13.4236,41.5797 L9.5846,14.1487 L9.5946,14.1467 C9.5926,14.1007 9.5746,14.0577 9.5746,14.0097 C9.5746,10.2697 18.5346,8.2507 26.9646,8.2507 C35.3436,8.2507 43.8266,10.2297 43.8266,14.0097 C43.8266,14.0547 43.8096,14.0947 43.8066,14.1397 L43.8176,14.1407 L42.2766,25.7927 C44.6136,27.1127 45.7196,28.1357 45.9126,29.1627 C46.0056,29.6617 45.8756,30.1507 45.5476,30.5367 L45.5476,30.5367 Z M11.0956,37.7847 L10.5916,39.7207 C7.5016,38.9147 5.9066,37.7737 5.8496,36.3277 L2.0096,8.8977 L2.0206,8.8957 C2.0176,8.8497 2.0006,8.8057 2.0006,8.7587 C2.0006,5.0187 10.9606,2.9997 19.3906,2.9997 C26.6146,2.9997 32.8086,4.4107 35.1716,6.5947 L33.8136,8.0637 C32.2166,6.5877 27.0236,4.9997 19.3906,4.9997 C8.7106,4.9997 4.0746,7.8087 4.0066,8.7367 L4.0246,8.8647 C4.1786,9.2787 5.2126,10.2277 8.8206,11.0177 L8.3926,12.9707 C6.7506,12.6117 5.4296,12.1757 4.4176,11.6717 L7.8386,36.1087 C7.8446,36.1547 7.8476,36.2007 7.8476,36.2467 C7.8866,36.3927 8.5576,37.1227 11.0956,37.7847 L11.0956,37.7847 Z" id="AWS-Amazon-Simple-Storage_S3-Replication-Time-Control_Resource-Icon_light-bg" fill="#000000"></path>
    </g><g transform="translate(12vw, 80vh)" id="svgGroup" stroke-linecap="round" fill-rule="evenodd" font-size="9pt" stroke="#000" stroke-width="0.25mm" fill="#000" style="stroke:#000;stroke-width:0.25mm;fill:#000"><path d="M 7.783 1.995 L 8.552 1.995 L 8.574 2.522 Q 9.097 1.907 9.985 1.907 A 2.009 2.009 0 0 1 10.495 1.968 A 1.244 1.244 0 0 1 11.342 2.672 A 1.801 1.801 0 0 1 11.96 2.118 A 1.65 1.65 0 0 1 12.489 1.937 A 2.209 2.209 0 0 1 12.859 1.907 A 2.119 2.119 0 0 1 13.503 1.997 Q 14.429 2.292 14.449 3.564 L 14.449 6.75 L 13.636 6.75 L 13.636 3.612 A 1.781 1.781 0 0 0 13.616 3.332 Q 13.592 3.185 13.542 3.067 A 0.758 0.758 0 0 0 13.403 2.85 A 0.68 0.68 0 0 0 13.151 2.682 Q 12.939 2.597 12.622 2.597 A 1.245 1.245 0 0 0 12.256 2.648 A 1.008 1.008 0 0 0 11.87 2.867 A 1.042 1.042 0 0 0 11.556 3.404 A 1.41 1.41 0 0 0 11.523 3.595 L 11.523 6.75 L 10.705 6.75 L 10.705 3.634 A 1.532 1.532 0 0 0 10.657 3.23 Q 10.53 2.768 10.073 2.643 A 1.457 1.457 0 0 0 9.69 2.597 Q 8.916 2.597 8.616 3.234 A 1.459 1.459 0 0 0 8.596 3.278 L 8.596 6.75 L 7.783 6.75 L 7.783 1.995 Z M 4.636 2.202 L 3.788 2.202 A 1.466 1.466 0 0 0 3.738 1.809 A 1.066 1.066 0 0 0 3.419 1.29 A 1.211 1.211 0 0 0 2.95 1.033 Q 2.698 0.958 2.378 0.958 A 2.286 2.286 0 0 0 1.998 0.988 Q 1.796 1.022 1.633 1.095 A 1.101 1.101 0 0 0 1.404 1.233 A 0.892 0.892 0 0 0 1.059 1.887 A 1.267 1.267 0 0 0 1.055 1.995 A 0.806 0.806 0 0 0 1.323 2.6 A 1.134 1.134 0 0 0 1.387 2.656 A 1.562 1.562 0 0 0 1.625 2.813 Q 1.955 2.993 2.516 3.151 A 8.228 8.228 0 0 1 2.981 3.295 Q 3.216 3.377 3.41 3.464 A 3.297 3.297 0 0 1 3.764 3.645 A 2.342 2.342 0 0 1 4.103 3.889 Q 4.293 4.056 4.415 4.248 A 1.45 1.45 0 0 1 4.432 4.276 A 1.498 1.498 0 0 1 4.628 4.832 A 1.948 1.948 0 0 1 4.65 5.124 A 1.606 1.606 0 0 1 4.527 5.76 Q 4.382 6.101 4.064 6.354 A 1.886 1.886 0 0 1 4.043 6.37 Q 3.437 6.838 2.422 6.838 A 3.023 3.023 0 0 1 1.281 6.623 A 2.917 2.917 0 0 1 1.191 6.585 A 2.383 2.383 0 0 1 0.713 6.307 A 1.874 1.874 0 0 1 0.31 5.893 A 1.689 1.689 0 0 1 0 4.896 L 0.848 4.896 A 1.261 1.261 0 0 0 0.918 5.323 A 1.074 1.074 0 0 0 1.277 5.812 Q 1.661 6.113 2.278 6.144 A 2.87 2.87 0 0 0 2.422 6.148 A 2.628 2.628 0 0 0 2.809 6.121 Q 3.005 6.092 3.164 6.031 A 1.129 1.129 0 0 0 3.445 5.875 Q 3.801 5.603 3.801 5.133 A 1.074 1.074 0 0 0 3.759 4.822 A 0.816 0.816 0 0 0 3.472 4.406 Q 3.142 4.148 2.277 3.898 Q 1.191 3.586 0.697 3.131 Q 0.202 2.676 0.202 2.008 Q 0.202 1.252 0.807 0.758 A 2.121 2.121 0 0 1 1.697 0.335 A 3.087 3.087 0 0 1 2.378 0.264 A 2.913 2.913 0 0 1 3.038 0.336 A 2.372 2.372 0 0 1 3.553 0.519 A 2.051 2.051 0 0 1 4.084 0.889 A 1.834 1.834 0 0 1 4.353 1.222 A 1.798 1.798 0 0 1 4.636 2.202 Z M 34.277 2.202 L 33.429 2.202 A 1.466 1.466 0 0 0 33.38 1.809 A 1.066 1.066 0 0 0 33.06 1.29 A 1.211 1.211 0 0 0 32.591 1.033 Q 32.339 0.958 32.019 0.958 A 2.286 2.286 0 0 0 31.639 0.988 Q 31.437 1.022 31.274 1.095 A 1.101 1.101 0 0 0 31.045 1.233 A 0.892 0.892 0 0 0 30.7 1.887 A 1.267 1.267 0 0 0 30.696 1.995 A 0.806 0.806 0 0 0 30.964 2.6 A 1.134 1.134 0 0 0 31.028 2.656 A 1.562 1.562 0 0 0 31.266 2.813 Q 31.596 2.993 32.157 3.151 A 8.228 8.228 0 0 1 32.622 3.295 Q 32.857 3.377 33.051 3.464 A 3.297 3.297 0 0 1 33.405 3.645 A 2.342 2.342 0 0 1 33.744 3.889 Q 33.934 4.056 34.056 4.248 A 1.45 1.45 0 0 1 34.073 4.276 A 1.498 1.498 0 0 1 34.269 4.832 A 1.948 1.948 0 0 1 34.291 5.124 A 1.606 1.606 0 0 1 34.168 5.76 Q 34.023 6.101 33.705 6.354 A 1.886 1.886 0 0 1 33.684 6.37 Q 33.078 6.838 32.063 6.838 A 3.023 3.023 0 0 1 30.922 6.623 A 2.917 2.917 0 0 1 30.832 6.585 A 2.383 2.383 0 0 1 30.354 6.307 A 1.874 1.874 0 0 1 29.951 5.893 A 1.689 1.689 0 0 1 29.641 4.896 L 30.489 4.896 A 1.261 1.261 0 0 0 30.559 5.323 A 1.074 1.074 0 0 0 30.918 5.812 Q 31.302 6.113 31.919 6.144 A 2.87 2.87 0 0 0 32.063 6.148 A 2.628 2.628 0 0 0 32.45 6.121 Q 32.646 6.092 32.805 6.031 A 1.129 1.129 0 0 0 33.087 5.875 Q 33.443 5.603 33.443 5.133 A 1.074 1.074 0 0 0 33.4 4.822 A 0.816 0.816 0 0 0 33.113 4.406 Q 32.783 4.148 31.918 3.898 Q 30.832 3.586 30.338 3.131 Q 29.843 2.676 29.843 2.008 Q 29.843 1.252 30.448 0.758 A 2.121 2.121 0 0 1 31.338 0.335 A 3.087 3.087 0 0 1 32.019 0.264 A 2.913 2.913 0 0 1 32.679 0.336 A 2.372 2.372 0 0 1 33.194 0.519 A 2.051 2.051 0 0 1 33.725 0.889 A 1.834 1.834 0 0 1 33.994 1.222 A 1.798 1.798 0 0 1 34.277 2.202 Z M 54.035 2.522 L 54.075 1.995 L 54.818 1.995 L 54.818 6.636 A 2.511 2.511 0 0 1 54.747 7.249 A 1.738 1.738 0 0 1 54.27 8.09 A 1.834 1.834 0 0 1 53.341 8.57 A 2.671 2.671 0 0 1 52.8 8.622 A 2.446 2.446 0 0 1 51.794 8.402 A 2.003 2.003 0 0 1 51.384 8.161 A 1.563 1.563 0 0 1 51.043 7.8 L 51.465 7.313 A 1.889 1.889 0 0 0 51.899 7.712 A 1.514 1.514 0 0 0 52.743 7.958 A 1.695 1.695 0 0 0 53.12 7.919 Q 53.389 7.858 53.583 7.702 A 1.037 1.037 0 0 0 53.668 7.625 A 1.09 1.09 0 0 0 53.945 7.132 Q 53.992 6.959 53.999 6.752 A 2.134 2.134 0 0 0 54 6.684 L 54 6.275 A 1.601 1.601 0 0 1 52.948 6.821 A 2.279 2.279 0 0 1 52.669 6.838 A 1.672 1.672 0 0 1 51.913 6.67 Q 51.591 6.51 51.342 6.197 A 2.14 2.14 0 0 1 51.317 6.166 A 2.316 2.316 0 0 1 50.934 5.386 Q 50.801 4.922 50.801 4.333 Q 50.801 3.472 51.109 2.884 A 2.096 2.096 0 0 1 51.315 2.564 Q 51.829 1.907 52.677 1.907 A 1.971 1.971 0 0 1 53.276 1.994 A 1.55 1.55 0 0 1 54.035 2.522 Z M 49.887 6.75 L 49.034 6.75 A 0.632 0.632 0 0 1 48.999 6.66 Q 48.968 6.562 48.943 6.41 A 3.997 3.997 0 0 1 48.92 6.249 Q 48.353 6.838 47.567 6.838 A 2.033 2.033 0 0 1 47.037 6.772 A 1.529 1.529 0 0 1 46.413 6.44 Q 45.963 6.042 45.963 5.432 Q 45.963 4.689 46.527 4.278 Q 47.092 3.867 48.116 3.867 L 48.907 3.867 L 48.907 3.494 A 1.152 1.152 0 0 0 48.871 3.199 A 0.828 0.828 0 0 0 48.652 2.815 Q 48.436 2.6 48.045 2.568 A 1.748 1.748 0 0 0 47.901 2.562 Q 47.465 2.562 47.171 2.782 Q 46.877 3.001 46.877 3.313 L 46.059 3.313 A 1.041 1.041 0 0 1 46.184 2.825 A 1.409 1.409 0 0 1 46.312 2.626 Q 46.565 2.294 46.997 2.101 A 2.249 2.249 0 0 1 47.773 1.913 A 2.669 2.669 0 0 1 47.949 1.907 A 2.65 2.65 0 0 1 48.466 1.955 Q 48.774 2.016 49.012 2.156 A 1.439 1.439 0 0 1 49.236 2.318 A 1.396 1.396 0 0 1 49.69 3.144 A 1.998 1.998 0 0 1 49.72 3.45 L 49.72 5.638 Q 49.72 6.073 49.794 6.39 A 1.707 1.707 0 0 0 49.887 6.68 L 49.887 6.75 Z M 19.692 4.351 L 19.692 4.425 Q 19.692 5.511 19.195 6.174 A 1.57 1.57 0 0 1 18.057 6.828 A 2.013 2.013 0 0 1 17.851 6.838 A 2.196 2.196 0 0 1 17.265 6.764 A 1.598 1.598 0 0 1 16.488 6.289 L 16.488 8.578 L 15.675 8.578 L 15.675 1.995 L 16.418 1.995 L 16.458 2.522 A 1.619 1.619 0 0 1 17.597 1.919 A 2.319 2.319 0 0 1 17.838 1.907 A 1.829 1.829 0 0 1 18.475 2.014 A 1.597 1.597 0 0 1 19.193 2.553 Q 19.692 3.199 19.692 4.351 Z M 22.702 4.504 L 22.702 4.355 A 3.17 3.17 0 0 1 22.779 3.646 A 2.581 2.581 0 0 1 22.973 3.092 A 2.191 2.191 0 0 1 23.42 2.466 A 2.033 2.033 0 0 1 23.728 2.221 Q 24.214 1.907 24.781 1.907 A 2.254 2.254 0 0 1 25.394 1.986 A 1.639 1.639 0 0 1 26.222 2.518 Q 26.736 3.129 26.736 4.267 L 26.736 4.605 L 23.515 4.605 A 2.111 2.111 0 0 0 23.586 5.114 A 1.516 1.516 0 0 0 23.926 5.741 A 1.282 1.282 0 0 0 24.86 6.173 A 1.652 1.652 0 0 0 24.926 6.174 A 1.763 1.763 0 0 0 25.254 6.145 Q 25.478 6.103 25.655 5.999 A 1.827 1.827 0 0 0 26.164 5.551 A 2.068 2.068 0 0 0 26.178 5.533 L 26.675 5.919 A 1.926 1.926 0 0 1 25.275 6.811 A 2.749 2.749 0 0 1 24.882 6.838 A 2.394 2.394 0 0 1 24.131 6.725 A 1.974 1.974 0 0 1 23.309 6.203 Q 22.702 5.568 22.702 4.504 Z M 55.837 4.504 L 55.837 4.355 A 3.17 3.17 0 0 1 55.913 3.646 A 2.581 2.581 0 0 1 56.107 3.092 A 2.191 2.191 0 0 1 56.555 2.466 A 2.033 2.033 0 0 1 56.863 2.221 Q 57.349 1.907 57.916 1.907 A 2.254 2.254 0 0 1 58.529 1.986 A 1.639 1.639 0 0 1 59.357 2.518 Q 59.871 3.129 59.871 4.267 L 59.871 4.605 L 56.65 4.605 A 2.111 2.111 0 0 0 56.721 5.114 A 1.516 1.516 0 0 0 57.061 5.741 A 1.282 1.282 0 0 0 57.995 6.173 A 1.652 1.652 0 0 0 58.061 6.174 A 1.763 1.763 0 0 0 58.389 6.145 Q 58.613 6.103 58.79 5.999 A 1.827 1.827 0 0 0 59.299 5.551 A 2.068 2.068 0 0 0 59.313 5.533 L 59.81 5.919 A 1.926 1.926 0 0 1 58.41 6.811 A 2.749 2.749 0 0 1 58.017 6.838 A 2.394 2.394 0 0 1 57.266 6.725 A 1.974 1.974 0 0 1 56.444 6.203 Q 55.837 5.568 55.837 4.504 Z M 35.534 0.844 L 36.347 0.844 L 36.347 1.995 L 37.235 1.995 L 37.235 2.624 L 36.347 2.624 L 36.347 5.572 Q 36.347 5.858 36.466 6.001 Q 36.585 6.144 36.87 6.144 A 1.046 1.046 0 0 0 36.968 6.138 Q 37.071 6.129 37.21 6.101 A 4.024 4.024 0 0 0 37.257 6.091 L 37.257 6.75 A 2.463 2.463 0 0 1 36.824 6.829 A 2.157 2.157 0 0 1 36.633 6.838 Q 36.186 6.838 35.919 6.616 A 0.856 0.856 0 0 1 35.811 6.508 Q 35.584 6.238 35.543 5.78 A 2.351 2.351 0 0 1 35.534 5.572 L 35.534 2.624 L 34.669 2.624 L 34.669 1.995 L 35.534 1.995 L 35.534 0.844 Z M 21.608 0 L 21.608 6.75 L 20.795 6.75 L 20.795 0 L 21.608 0 Z M 37.881 4.386 L 37.881 4.329 A 3.057 3.057 0 0 1 37.968 3.587 A 2.573 2.573 0 0 1 38.156 3.072 A 2.16 2.16 0 0 1 38.57 2.486 A 1.957 1.957 0 0 1 38.92 2.21 A 2.036 2.036 0 0 1 39.865 1.913 A 2.491 2.491 0 0 1 40.039 1.907 A 2.277 2.277 0 0 1 40.792 2.027 A 1.937 1.937 0 0 1 41.61 2.58 A 2.29 2.29 0 0 1 42.129 3.608 A 3.373 3.373 0 0 1 42.21 4.368 L 42.21 4.425 A 3.114 3.114 0 0 1 42.13 5.142 A 2.577 2.577 0 0 1 41.944 5.671 A 2.056 2.056 0 0 1 41.416 6.361 A 2.001 2.001 0 0 1 41.183 6.53 A 2.045 2.045 0 0 1 40.264 6.829 A 2.529 2.529 0 0 1 40.048 6.838 A 2.262 2.262 0 0 1 39.297 6.718 A 1.938 1.938 0 0 1 38.481 6.166 A 2.297 2.297 0 0 1 37.955 5.111 A 3.357 3.357 0 0 1 37.881 4.386 Z M 45.527 1.969 L 45.527 2.725 A 2.251 2.251 0 0 0 45.285 2.698 A 2.782 2.782 0 0 0 45.128 2.694 Q 44.35 2.694 44.058 3.338 A 1.445 1.445 0 0 0 44.042 3.375 L 44.042 6.75 L 43.229 6.75 L 43.229 1.995 L 44.02 1.995 L 44.033 2.544 Q 44.414 1.938 45.096 1.909 A 1.636 1.636 0 0 1 45.167 1.907 Q 45.404 1.907 45.527 1.969 Z M 6.486 1.995 L 6.486 6.75 L 5.673 6.75 L 5.673 1.995 L 6.486 1.995 Z M 38.698 4.425 A 2.772 2.772 0 0 0 38.746 4.954 Q 38.806 5.264 38.944 5.51 A 1.545 1.545 0 0 0 39.065 5.695 Q 39.432 6.174 40.048 6.174 A 1.269 1.269 0 0 0 40.537 6.083 Q 40.816 5.967 41.019 5.706 A 1.471 1.471 0 0 0 41.032 5.689 A 1.648 1.648 0 0 0 41.287 5.171 Q 41.355 4.945 41.381 4.672 A 3.655 3.655 0 0 0 41.397 4.329 A 2.687 2.687 0 0 0 41.345 3.789 Q 41.278 3.459 41.12 3.2 A 1.586 1.586 0 0 0 41.025 3.061 A 1.231 1.231 0 0 0 40.61 2.705 Q 40.357 2.575 40.039 2.575 Q 39.449 2.575 39.083 3.035 A 1.515 1.515 0 0 0 39.068 3.054 A 1.589 1.589 0 0 0 38.815 3.552 Q 38.746 3.772 38.718 4.039 A 3.676 3.676 0 0 0 38.698 4.425 Z M 16.488 3.252 L 16.488 5.524 Q 16.853 6.174 17.605 6.174 A 1.184 1.184 0 0 0 18.07 6.086 Q 18.327 5.977 18.516 5.735 A 1.403 1.403 0 0 0 18.534 5.711 A 1.501 1.501 0 0 0 18.751 5.28 Q 18.819 5.073 18.851 4.818 A 3.91 3.91 0 0 0 18.879 4.333 Q 18.879 3.746 18.696 3.339 A 1.503 1.503 0 0 0 18.536 3.063 A 1.086 1.086 0 0 0 17.75 2.605 A 1.414 1.414 0 0 0 17.596 2.597 Q 16.935 2.597 16.57 3.121 A 1.623 1.623 0 0 0 16.488 3.252 Z M 54 5.449 L 54 3.278 A 1.439 1.439 0 0 0 53.699 2.891 Q 53.396 2.62 52.955 2.599 A 1.578 1.578 0 0 0 52.88 2.597 Q 52.288 2.597 51.954 3.056 A 1.51 1.51 0 0 0 51.743 3.484 Q 51.677 3.689 51.646 3.939 A 3.955 3.955 0 0 0 51.618 4.425 Q 51.618 5.229 51.948 5.689 Q 52.277 6.148 52.871 6.148 A 1.32 1.32 0 0 0 53.38 6.054 Q 53.772 5.891 54 5.449 Z M 48.907 5.418 L 48.907 4.443 L 48.27 4.443 Q 46.776 4.443 46.776 5.317 Q 46.776 5.7 47.03 5.915 A 0.893 0.893 0 0 0 47.444 6.108 A 1.259 1.259 0 0 0 47.685 6.13 A 1.429 1.429 0 0 0 48.41 5.933 A 1.335 1.335 0 0 0 48.706 5.705 A 1.108 1.108 0 0 0 48.907 5.418 Z M 23.542 3.938 L 25.923 3.938 L 25.923 3.876 Q 25.897 3.417 25.727 3.111 A 1.13 1.13 0 0 0 25.59 2.916 A 0.983 0.983 0 0 0 24.935 2.584 A 1.39 1.39 0 0 0 24.781 2.575 A 1.106 1.106 0 0 0 24.258 2.698 A 1.14 1.14 0 0 0 23.955 2.933 A 1.417 1.417 0 0 0 23.678 3.379 Q 23.604 3.563 23.565 3.785 A 2.741 2.741 0 0 0 23.542 3.938 Z M 56.676 3.938 L 59.058 3.938 L 59.058 3.876 Q 59.032 3.417 58.862 3.111 A 1.13 1.13 0 0 0 58.724 2.916 A 0.983 0.983 0 0 0 58.07 2.584 A 1.39 1.39 0 0 0 57.916 2.575 A 1.106 1.106 0 0 0 57.393 2.698 A 1.14 1.14 0 0 0 57.09 2.933 A 1.417 1.417 0 0 0 56.813 3.379 Q 56.739 3.563 56.699 3.785 A 2.741 2.741 0 0 0 56.676 3.938 Z M 5.608 0.734 Q 5.608 0.536 5.728 0.4 Q 5.84 0.274 6.052 0.264 A 0.783 0.783 0 0 1 6.087 0.264 Q 6.324 0.264 6.447 0.4 A 0.474 0.474 0 0 1 6.569 0.703 A 0.614 0.614 0 0 1 6.57 0.734 A 0.523 0.523 0 0 1 6.545 0.9 A 0.442 0.442 0 0 1 6.447 1.063 Q 6.334 1.184 6.126 1.194 A 0.803 0.803 0 0 1 6.087 1.195 Q 5.914 1.195 5.803 1.126 A 0.362 0.362 0 0 1 5.728 1.063 A 0.456 0.456 0 0 1 5.61 0.788 A 0.605 0.605 0 0 1 5.608 0.734 Z" vector-effect="non-scaling-stroke"/></g><g transform="translate(12vw, 90vh)" id="svgGroup" stroke-linecap="round" fill-rule="evenodd" font-size="9pt" stroke="#000" stroke-width="0.25mm" fill="#000" style="stroke:#000;stroke-width:0.25mm;fill:#000"><path d="M 98.526 1.995 L 99.295 1.995 L 99.317 2.522 Q 99.84 1.907 100.727 1.907 A 2.009 2.009 0 0 1 101.238 1.968 A 1.244 1.244 0 0 1 102.085 2.672 A 1.801 1.801 0 0 1 102.703 2.118 A 1.65 1.65 0 0 1 103.232 1.937 A 2.209 2.209 0 0 1 103.601 1.907 A 2.119 2.119 0 0 1 104.245 1.997 Q 105.172 2.292 105.192 3.564 L 105.192 6.75 L 104.379 6.75 L 104.379 3.612 A 1.781 1.781 0 0 0 104.359 3.332 Q 104.335 3.185 104.284 3.067 A 0.758 0.758 0 0 0 104.146 2.85 A 0.68 0.68 0 0 0 103.893 2.682 Q 103.682 2.597 103.365 2.597 A 1.245 1.245 0 0 0 102.999 2.648 A 1.008 1.008 0 0 0 102.612 2.867 A 1.042 1.042 0 0 0 102.298 3.404 A 1.41 1.41 0 0 0 102.265 3.595 L 102.265 6.75 L 101.448 6.75 L 101.448 3.634 A 1.532 1.532 0 0 0 101.399 3.23 Q 101.273 2.768 100.815 2.643 A 1.457 1.457 0 0 0 100.433 2.597 Q 99.659 2.597 99.358 3.234 A 1.459 1.459 0 0 0 99.339 3.278 L 99.339 6.75 L 98.526 6.75 L 98.526 1.995 Z M 4.636 2.202 L 3.788 2.202 A 1.466 1.466 0 0 0 3.738 1.809 A 1.066 1.066 0 0 0 3.419 1.29 A 1.211 1.211 0 0 0 2.95 1.033 Q 2.698 0.958 2.378 0.958 A 2.286 2.286 0 0 0 1.998 0.988 Q 1.796 1.022 1.633 1.095 A 1.101 1.101 0 0 0 1.404 1.233 A 0.892 0.892 0 0 0 1.059 1.887 A 1.267 1.267 0 0 0 1.055 1.995 A 0.806 0.806 0 0 0 1.323 2.6 A 1.134 1.134 0 0 0 1.387 2.656 A 1.562 1.562 0 0 0 1.625 2.813 Q 1.955 2.993 2.516 3.151 A 8.228 8.228 0 0 1 2.981 3.295 Q 3.216 3.377 3.41 3.464 A 3.297 3.297 0 0 1 3.764 3.645 A 2.342 2.342 0 0 1 4.103 3.889 Q 4.293 4.056 4.415 4.248 A 1.45 1.45 0 0 1 4.432 4.276 A 1.498 1.498 0 0 1 4.628 4.832 A 1.948 1.948 0 0 1 4.65 5.124 A 1.606 1.606 0 0 1 4.527 5.76 Q 4.382 6.101 4.064 6.354 A 1.886 1.886 0 0 1 4.043 6.37 Q 3.437 6.838 2.422 6.838 A 3.023 3.023 0 0 1 1.281 6.623 A 2.917 2.917 0 0 1 1.191 6.585 A 2.383 2.383 0 0 1 0.713 6.307 A 1.874 1.874 0 0 1 0.31 5.893 A 1.689 1.689 0 0 1 0 4.896 L 0.848 4.896 A 1.261 1.261 0 0 0 0.918 5.323 A 1.074 1.074 0 0 0 1.277 5.812 Q 1.661 6.113 2.278 6.144 A 2.87 2.87 0 0 0 2.422 6.148 A 2.628 2.628 0 0 0 2.809 6.121 Q 3.005 6.092 3.164 6.031 A 1.129 1.129 0 0 0 3.445 5.875 Q 3.801 5.603 3.801 5.133 A 1.074 1.074 0 0 0 3.759 4.822 A 0.816 0.816 0 0 0 3.472 4.406 Q 3.142 4.148 2.277 3.898 Q 1.191 3.586 0.697 3.131 Q 0.202 2.676 0.202 2.008 Q 0.202 1.252 0.807 0.758 A 2.121 2.121 0 0 1 1.697 0.335 A 3.087 3.087 0 0 1 2.378 0.264 A 2.913 2.913 0 0 1 3.038 0.336 A 2.372 2.372 0 0 1 3.553 0.519 A 2.051 2.051 0 0 1 4.084 0.889 A 1.834 1.834 0 0 1 4.353 1.222 A 1.798 1.798 0 0 1 4.636 2.202 Z M 36.119 2.202 L 35.271 2.202 A 1.466 1.466 0 0 0 35.221 1.809 A 1.066 1.066 0 0 0 34.902 1.29 A 1.211 1.211 0 0 0 34.432 1.033 Q 34.18 0.958 33.86 0.958 A 2.286 2.286 0 0 0 33.48 0.988 Q 33.278 1.022 33.116 1.095 A 1.101 1.101 0 0 0 32.887 1.233 A 0.892 0.892 0 0 0 32.542 1.887 A 1.267 1.267 0 0 0 32.537 1.995 A 0.806 0.806 0 0 0 32.805 2.6 A 1.134 1.134 0 0 0 32.869 2.656 A 1.562 1.562 0 0 0 33.107 2.813 Q 33.438 2.993 33.998 3.151 A 8.228 8.228 0 0 1 34.463 3.295 Q 34.698 3.377 34.893 3.464 A 3.297 3.297 0 0 1 35.246 3.645 A 2.342 2.342 0 0 1 35.585 3.889 Q 35.775 4.056 35.897 4.248 A 1.45 1.45 0 0 1 35.914 4.276 A 1.498 1.498 0 0 1 36.111 4.832 A 1.948 1.948 0 0 1 36.132 5.124 A 1.606 1.606 0 0 1 36.01 5.76 Q 35.864 6.101 35.546 6.354 A 1.886 1.886 0 0 1 35.526 6.37 Q 34.919 6.838 33.904 6.838 A 3.023 3.023 0 0 1 32.763 6.623 A 2.917 2.917 0 0 1 32.673 6.585 A 2.383 2.383 0 0 1 32.195 6.307 A 1.874 1.874 0 0 1 31.792 5.893 A 1.689 1.689 0 0 1 31.483 4.896 L 32.331 4.896 A 1.261 1.261 0 0 0 32.4 5.323 A 1.074 1.074 0 0 0 32.759 5.812 Q 33.144 6.113 33.76 6.144 A 2.87 2.87 0 0 0 33.904 6.148 A 2.628 2.628 0 0 0 34.291 6.121 Q 34.487 6.092 34.646 6.031 A 1.129 1.129 0 0 0 34.928 5.875 Q 35.284 5.603 35.284 5.133 A 1.074 1.074 0 0 0 35.241 4.822 A 0.816 0.816 0 0 0 34.954 4.406 Q 34.625 4.148 33.759 3.898 Q 32.673 3.586 32.179 3.131 Q 31.685 2.676 31.685 2.008 Q 31.685 1.252 32.289 0.758 A 2.121 2.121 0 0 1 33.179 0.335 A 3.087 3.087 0 0 1 33.86 0.264 A 2.913 2.913 0 0 1 34.52 0.336 A 2.372 2.372 0 0 1 35.036 0.519 A 2.051 2.051 0 0 1 35.567 0.889 A 1.834 1.834 0 0 1 35.835 1.222 A 1.798 1.798 0 0 1 36.119 2.202 Z M 38.184 3.819 L 38.184 3.155 L 38.795 3.155 Q 39.253 3.148 39.555 2.961 A 1.045 1.045 0 0 0 39.7 2.852 A 0.97 0.97 0 0 0 40.02 2.225 A 1.373 1.373 0 0 0 40.03 2.057 A 1.626 1.626 0 0 0 39.974 1.611 Q 39.832 1.112 39.324 0.98 A 1.645 1.645 0 0 0 38.909 0.932 A 1.495 1.495 0 0 0 38.547 0.973 A 1.044 1.044 0 0 0 38.068 1.233 A 1.004 1.004 0 0 0 37.766 1.844 A 1.405 1.405 0 0 0 37.754 2.03 L 36.941 2.03 A 1.698 1.698 0 0 1 37.095 1.3 A 1.68 1.68 0 0 1 37.496 0.767 A 1.924 1.924 0 0 1 38.549 0.288 A 2.615 2.615 0 0 1 38.909 0.264 A 2.758 2.758 0 0 1 39.485 0.32 Q 39.853 0.399 40.132 0.586 A 1.593 1.593 0 0 1 40.329 0.743 A 1.57 1.57 0 0 1 40.795 1.589 A 2.336 2.336 0 0 1 40.843 2.074 A 1.332 1.332 0 0 1 40.691 2.686 A 1.725 1.725 0 0 1 40.573 2.883 A 1.624 1.624 0 0 1 39.873 3.452 A 1.952 1.952 0 0 1 39.837 3.467 A 1.81 1.81 0 0 1 40.272 3.668 A 1.44 1.44 0 0 1 40.652 4.021 Q 40.94 4.408 40.94 4.966 Q 40.94 5.827 40.377 6.333 A 1.935 1.935 0 0 1 39.42 6.793 A 2.738 2.738 0 0 1 38.914 6.838 A 2.716 2.716 0 0 1 38.267 6.765 A 1.936 1.936 0 0 1 37.448 6.35 Q 36.883 5.862 36.883 5.063 L 37.701 5.063 A 1.255 1.255 0 0 0 37.751 5.426 A 0.978 0.978 0 0 0 38.03 5.871 A 1.113 1.113 0 0 0 38.545 6.135 A 1.643 1.643 0 0 0 38.914 6.174 Q 39.503 6.174 39.815 5.867 Q 40.102 5.583 40.125 5.073 A 2.011 2.011 0 0 0 40.127 4.983 A 1.451 1.451 0 0 0 40.087 4.634 A 0.962 0.962 0 0 0 39.784 4.126 A 1.13 1.13 0 0 0 39.396 3.91 Q 39.138 3.824 38.795 3.819 L 38.184 3.819 Z M 117.4 4.72 L 118.248 4.72 A 3.016 3.016 0 0 1 118.087 5.416 A 2.099 2.099 0 0 1 117.499 6.286 Q 116.868 6.838 115.822 6.838 A 2.553 2.553 0 0 1 114.953 6.696 A 2.194 2.194 0 0 1 114.005 6.025 A 2.789 2.789 0 0 1 113.444 4.901 Q 113.337 4.484 113.324 3.992 A 5.262 5.262 0 0 1 113.322 3.85 L 113.322 3.234 A 4.251 4.251 0 0 1 113.392 2.445 A 3.229 3.229 0 0 1 113.641 1.666 A 2.539 2.539 0 0 1 114.096 0.99 A 2.26 2.26 0 0 1 114.544 0.626 A 2.415 2.415 0 0 1 115.569 0.281 A 3.027 3.027 0 0 1 115.897 0.264 A 2.962 2.962 0 0 1 116.603 0.343 A 2.065 2.065 0 0 1 117.532 0.833 A 2.16 2.16 0 0 1 118.127 1.795 A 3.086 3.086 0 0 1 118.248 2.408 L 117.4 2.408 Q 117.331 1.929 117.162 1.616 A 1.223 1.223 0 0 0 116.923 1.301 A 1.207 1.207 0 0 0 116.418 1.024 Q 116.231 0.971 116.008 0.961 A 2.396 2.396 0 0 0 115.897 0.958 A 1.753 1.753 0 0 0 115.319 1.049 A 1.463 1.463 0 0 0 114.629 1.556 A 1.989 1.989 0 0 0 114.315 2.175 Q 114.17 2.636 114.17 3.256 L 114.17 3.876 Q 114.17 4.917 114.605 5.533 A 1.38 1.38 0 0 0 115.604 6.135 A 1.814 1.814 0 0 0 115.822 6.148 A 2.497 2.497 0 0 0 116.23 6.117 Q 116.449 6.08 116.625 6.002 A 1.155 1.155 0 0 0 116.901 5.829 Q 117.277 5.511 117.4 4.72 Z M 173.975 6.75 L 172.319 4.548 L 171.809 5.08 L 171.809 6.75 L 170.996 6.75 L 170.996 0 L 171.809 0 L 171.809 4.083 L 172.244 3.56 L 173.725 1.995 L 174.714 1.995 L 172.863 3.981 L 174.929 6.75 L 173.975 6.75 Z M 48.23 6.75 L 46.841 4.162 L 45.339 4.162 L 45.339 6.75 L 44.49 6.75 L 44.49 0.352 L 46.609 0.352 A 3.809 3.809 0 0 1 47.25 0.402 Q 47.592 0.461 47.866 0.587 A 1.789 1.789 0 0 1 48.272 0.844 A 1.588 1.588 0 0 1 48.797 1.732 A 2.453 2.453 0 0 1 48.854 2.276 A 1.864 1.864 0 0 1 48.763 2.868 A 1.64 1.64 0 0 1 48.531 3.318 A 1.849 1.849 0 0 1 47.872 3.875 A 2.342 2.342 0 0 1 47.632 3.981 L 49.135 6.697 L 49.135 6.75 L 48.23 6.75 Z M 83.958 1.995 L 84.727 1.995 L 84.753 2.593 Q 85.289 1.918 86.149 1.907 A 2.234 2.234 0 0 1 86.177 1.907 A 1.905 1.905 0 0 1 86.81 2.004 Q 87.652 2.3 87.695 3.506 A 3.668 3.668 0 0 1 87.697 3.608 L 87.697 6.75 L 86.884 6.75 L 86.884 3.604 A 1.837 1.837 0 0 0 86.862 3.324 Q 86.812 3.017 86.649 2.843 Q 86.463 2.645 86.11 2.606 A 1.66 1.66 0 0 0 85.931 2.597 A 1.253 1.253 0 0 0 85.516 2.664 A 1.123 1.123 0 0 0 85.236 2.808 A 1.432 1.432 0 0 0 84.771 3.362 L 84.771 6.75 L 83.958 6.75 L 83.958 1.995 Z M 124.405 1.995 L 125.174 1.995 L 125.2 2.593 Q 125.737 1.918 126.597 1.907 A 2.234 2.234 0 0 1 126.624 1.907 A 1.905 1.905 0 0 1 127.258 2.004 Q 128.1 2.3 128.142 3.506 A 3.668 3.668 0 0 1 128.145 3.608 L 128.145 6.75 L 127.332 6.75 L 127.332 3.604 A 1.837 1.837 0 0 0 127.309 3.324 Q 127.259 3.017 127.097 2.843 Q 126.91 2.645 126.557 2.606 A 1.66 1.66 0 0 0 126.378 2.597 A 1.253 1.253 0 0 0 125.964 2.664 A 1.123 1.123 0 0 0 125.684 2.808 A 1.432 1.432 0 0 0 125.218 3.362 L 125.218 6.75 L 124.405 6.75 L 124.405 1.995 Z M 23.067 5.251 L 23.836 5.251 A 1.432 1.432 0 0 1 23.637 5.901 A 1.772 1.772 0 0 1 23.555 6.029 A 1.828 1.828 0 0 1 22.946 6.574 A 2.169 2.169 0 0 1 22.863 6.618 A 1.997 1.997 0 0 1 21.946 6.838 A 2.346 2.346 0 0 1 21.249 6.739 A 1.839 1.839 0 0 1 20.402 6.19 A 2.171 2.171 0 0 1 19.938 5.31 Q 19.828 4.909 19.828 4.417 L 19.828 4.28 A 3.24 3.24 0 0 1 19.892 3.624 A 2.57 2.57 0 0 1 20.083 3.045 A 2.008 2.008 0 0 1 20.523 2.431 A 1.892 1.892 0 0 1 20.815 2.206 A 1.943 1.943 0 0 1 21.571 1.934 A 2.529 2.529 0 0 1 21.942 1.907 A 2.196 2.196 0 0 1 22.59 1.999 A 1.786 1.786 0 0 1 23.271 2.386 A 1.693 1.693 0 0 1 23.83 3.535 A 2.239 2.239 0 0 1 23.836 3.63 L 23.067 3.63 Q 23.032 3.168 22.718 2.872 A 1.078 1.078 0 0 0 21.989 2.576 A 1.402 1.402 0 0 0 21.942 2.575 A 1.374 1.374 0 0 0 21.521 2.637 A 1.081 1.081 0 0 0 20.982 3.021 A 1.469 1.469 0 0 0 20.755 3.468 Q 20.689 3.674 20.662 3.923 A 3.514 3.514 0 0 0 20.641 4.311 L 20.641 4.465 Q 20.641 5.287 20.98 5.73 A 1.1 1.1 0 0 0 21.766 6.165 A 1.611 1.611 0 0 0 21.946 6.174 A 1.171 1.171 0 0 0 22.707 5.911 A 1.007 1.007 0 0 0 22.951 5.629 A 0.914 0.914 0 0 0 23.067 5.251 Z M 67.122 5.251 L 67.891 5.251 A 1.432 1.432 0 0 1 67.692 5.901 A 1.772 1.772 0 0 1 67.61 6.029 A 1.828 1.828 0 0 1 67.001 6.574 A 2.169 2.169 0 0 1 66.918 6.618 A 1.997 1.997 0 0 1 66.002 6.838 A 2.346 2.346 0 0 1 65.304 6.739 A 1.839 1.839 0 0 1 64.457 6.19 A 2.171 2.171 0 0 1 63.993 5.31 Q 63.883 4.909 63.883 4.417 L 63.883 4.28 A 3.24 3.24 0 0 1 63.947 3.624 A 2.57 2.57 0 0 1 64.138 3.045 A 2.008 2.008 0 0 1 64.578 2.431 A 1.892 1.892 0 0 1 64.87 2.206 A 1.943 1.943 0 0 1 65.626 1.934 A 2.529 2.529 0 0 1 65.997 1.907 A 2.196 2.196 0 0 1 66.645 1.999 A 1.786 1.786 0 0 1 67.327 2.386 A 1.693 1.693 0 0 1 67.885 3.535 A 2.239 2.239 0 0 1 67.891 3.63 L 67.122 3.63 Q 67.087 3.168 66.773 2.872 A 1.078 1.078 0 0 0 66.044 2.576 A 1.402 1.402 0 0 0 65.997 2.575 A 1.374 1.374 0 0 0 65.576 2.637 A 1.081 1.081 0 0 0 65.037 3.021 A 1.469 1.469 0 0 0 64.81 3.468 Q 64.744 3.674 64.717 3.923 A 3.514 3.514 0 0 0 64.696 4.311 L 64.696 4.465 Q 64.696 5.287 65.035 5.73 A 1.1 1.1 0 0 0 65.821 6.165 A 1.611 1.611 0 0 0 66.002 6.174 A 1.171 1.171 0 0 0 66.762 5.911 A 1.007 1.007 0 0 0 67.006 5.629 A 0.914 0.914 0 0 0 67.122 5.251 Z M 95.524 0.352 L 95.524 1.046 L 93.467 1.046 L 93.467 6.75 L 92.628 6.75 L 92.628 1.046 L 90.576 1.046 L 90.576 0.352 L 95.524 0.352 Z M 72.593 6.75 L 71.741 6.75 A 0.632 0.632 0 0 1 71.705 6.66 Q 71.674 6.562 71.649 6.41 A 3.997 3.997 0 0 1 71.627 6.249 Q 71.06 6.838 70.273 6.838 A 2.033 2.033 0 0 1 69.744 6.772 A 1.529 1.529 0 0 1 69.12 6.44 Q 68.669 6.042 68.669 5.432 Q 68.669 4.689 69.234 4.278 Q 69.798 3.867 70.822 3.867 L 71.613 3.867 L 71.613 3.494 A 1.152 1.152 0 0 0 71.578 3.199 A 0.828 0.828 0 0 0 71.359 2.815 Q 71.142 2.6 70.752 2.568 A 1.748 1.748 0 0 0 70.607 2.562 Q 70.172 2.562 69.878 2.782 Q 69.583 3.001 69.583 3.313 L 68.766 3.313 A 1.041 1.041 0 0 1 68.891 2.825 A 1.409 1.409 0 0 1 69.018 2.626 Q 69.271 2.294 69.704 2.101 A 2.249 2.249 0 0 1 70.48 1.913 A 2.669 2.669 0 0 1 70.655 1.907 A 2.65 2.65 0 0 1 71.173 1.955 Q 71.48 2.016 71.719 2.156 A 1.439 1.439 0 0 1 71.943 2.318 A 1.396 1.396 0 0 1 72.396 3.144 A 1.998 1.998 0 0 1 72.426 3.45 L 72.426 5.638 Q 72.426 6.073 72.5 6.39 A 1.707 1.707 0 0 0 72.593 6.68 L 72.593 6.75 Z M 166.839 6.75 L 165.986 6.75 A 0.632 0.632 0 0 1 165.95 6.66 Q 165.919 6.562 165.894 6.41 A 3.997 3.997 0 0 1 165.872 6.249 Q 165.305 6.838 164.518 6.838 A 2.033 2.033 0 0 1 163.989 6.772 A 1.529 1.529 0 0 1 163.365 6.44 Q 162.914 6.042 162.914 5.432 Q 162.914 4.689 163.479 4.278 Q 164.044 3.867 165.068 3.867 L 165.859 3.867 L 165.859 3.494 A 1.152 1.152 0 0 0 165.823 3.199 A 0.828 0.828 0 0 0 165.604 2.815 Q 165.387 2.6 164.997 2.568 A 1.748 1.748 0 0 0 164.852 2.562 Q 164.417 2.562 164.123 2.782 Q 163.828 3.001 163.828 3.313 L 163.011 3.313 A 1.041 1.041 0 0 1 163.136 2.825 A 1.409 1.409 0 0 1 163.264 2.626 Q 163.516 2.294 163.949 2.101 A 2.249 2.249 0 0 1 164.725 1.913 A 2.669 2.669 0 0 1 164.901 1.907 A 2.65 2.65 0 0 1 165.418 1.955 Q 165.725 2.016 165.964 2.156 A 1.439 1.439 0 0 1 166.188 2.318 A 1.396 1.396 0 0 1 166.641 3.144 A 1.998 1.998 0 0 1 166.672 3.45 L 166.672 5.638 Q 166.672 6.073 166.745 6.39 A 1.707 1.707 0 0 0 166.839 6.68 L 166.839 6.75 Z M 58.694 4.351 L 58.694 4.425 Q 58.694 5.511 58.197 6.174 A 1.57 1.57 0 0 1 57.059 6.828 A 2.013 2.013 0 0 1 56.852 6.838 A 2.196 2.196 0 0 1 56.266 6.764 A 1.598 1.598 0 0 1 55.49 6.289 L 55.49 8.578 L 54.677 8.578 L 54.677 1.995 L 55.42 1.995 L 55.459 2.522 A 1.619 1.619 0 0 1 56.598 1.919 A 2.319 2.319 0 0 1 56.839 1.907 A 1.829 1.829 0 0 1 57.476 2.014 A 1.597 1.597 0 0 1 58.195 2.553 Q 58.694 3.199 58.694 4.351 Z M 5.397 4.504 L 5.397 4.355 A 3.17 3.17 0 0 1 5.473 3.646 A 2.581 2.581 0 0 1 5.667 3.092 A 2.191 2.191 0 0 1 6.114 2.466 A 2.033 2.033 0 0 1 6.423 2.221 Q 6.908 1.907 7.475 1.907 A 2.254 2.254 0 0 1 8.088 1.986 A 1.639 1.639 0 0 1 8.917 2.518 Q 9.431 3.129 9.431 4.267 L 9.431 4.605 L 6.21 4.605 A 2.111 2.111 0 0 0 6.281 5.114 A 1.516 1.516 0 0 0 6.621 5.741 A 1.282 1.282 0 0 0 7.555 6.173 A 1.652 1.652 0 0 0 7.62 6.174 A 1.763 1.763 0 0 0 7.948 6.145 Q 8.172 6.103 8.35 5.999 A 1.827 1.827 0 0 0 8.859 5.551 A 2.068 2.068 0 0 0 8.873 5.533 L 9.369 5.919 A 1.926 1.926 0 0 1 7.97 6.811 A 2.749 2.749 0 0 1 7.576 6.838 A 2.394 2.394 0 0 1 6.825 6.725 A 1.974 1.974 0 0 1 6.003 6.203 Q 5.397 5.568 5.397 4.504 Z M 24.544 4.504 L 24.544 4.355 A 3.17 3.17 0 0 1 24.62 3.646 A 2.581 2.581 0 0 1 24.814 3.092 A 2.191 2.191 0 0 1 25.261 2.466 A 2.033 2.033 0 0 1 25.57 2.221 Q 26.055 1.907 26.622 1.907 A 2.254 2.254 0 0 1 27.235 1.986 A 1.639 1.639 0 0 1 28.064 2.518 Q 28.578 3.129 28.578 4.267 L 28.578 4.605 L 25.357 4.605 A 2.111 2.111 0 0 0 25.428 5.114 A 1.516 1.516 0 0 0 25.767 5.741 A 1.282 1.282 0 0 0 26.702 6.173 A 1.652 1.652 0 0 0 26.767 6.174 A 1.763 1.763 0 0 0 27.095 6.145 Q 27.319 6.103 27.497 5.999 A 1.827 1.827 0 0 0 28.006 5.551 A 2.068 2.068 0 0 0 28.02 5.533 L 28.516 5.919 A 1.926 1.926 0 0 1 27.117 6.811 A 2.749 2.749 0 0 1 26.723 6.838 A 2.394 2.394 0 0 1 25.972 6.725 A 1.974 1.974 0 0 1 25.15 6.203 Q 24.544 5.568 24.544 4.504 Z M 49.702 4.504 L 49.702 4.355 A 3.17 3.17 0 0 1 49.779 3.646 A 2.581 2.581 0 0 1 49.973 3.092 A 2.191 2.191 0 0 1 50.42 2.466 A 2.033 2.033 0 0 1 50.728 2.221 Q 51.214 1.907 51.781 1.907 A 2.254 2.254 0 0 1 52.394 1.986 A 1.639 1.639 0 0 1 53.222 2.518 Q 53.736 3.129 53.736 4.267 L 53.736 4.605 L 50.515 4.605 A 2.111 2.111 0 0 0 50.586 5.114 A 1.516 1.516 0 0 0 50.926 5.741 A 1.282 1.282 0 0 0 51.86 6.173 A 1.652 1.652 0 0 0 51.926 6.174 A 1.763 1.763 0 0 0 52.254 6.145 Q 52.478 6.103 52.655 5.999 A 1.827 1.827 0 0 0 53.164 5.551 A 2.068 2.068 0 0 0 53.178 5.533 L 53.675 5.919 A 1.926 1.926 0 0 1 52.275 6.811 A 2.749 2.749 0 0 1 51.882 6.838 A 2.394 2.394 0 0 1 51.131 6.725 A 1.974 1.974 0 0 1 50.309 6.203 Q 49.702 5.568 49.702 4.504 Z M 106.212 4.504 L 106.212 4.355 A 3.17 3.17 0 0 1 106.288 3.646 A 2.581 2.581 0 0 1 106.482 3.092 A 2.191 2.191 0 0 1 106.929 2.466 A 2.033 2.033 0 0 1 107.238 2.221 Q 107.723 1.907 108.29 1.907 A 2.254 2.254 0 0 1 108.903 1.986 A 1.639 1.639 0 0 1 109.732 2.518 Q 110.246 3.129 110.246 4.267 L 110.246 4.605 L 107.025 4.605 A 2.111 2.111 0 0 0 107.096 5.114 A 1.516 1.516 0 0 0 107.435 5.741 A 1.282 1.282 0 0 0 108.37 6.173 A 1.652 1.652 0 0 0 108.435 6.174 A 1.763 1.763 0 0 0 108.763 6.145 Q 108.987 6.103 109.165 5.999 A 1.827 1.827 0 0 0 109.674 5.551 A 2.068 2.068 0 0 0 109.688 5.533 L 110.184 5.919 A 1.926 1.926 0 0 1 108.784 6.811 A 2.749 2.749 0 0 1 108.391 6.838 A 2.394 2.394 0 0 1 107.64 6.725 A 1.974 1.974 0 0 1 106.818 6.203 Q 106.212 5.568 106.212 4.504 Z M 13.856 1.995 L 15.065 5.647 L 16.242 1.995 L 17.073 1.995 L 15.368 6.75 L 14.748 6.75 L 13.026 1.995 L 13.856 1.995 Z M 148.162 0.352 L 148.162 4.601 L 149.049 4.601 L 149.049 5.265 L 148.162 5.265 L 148.162 6.75 L 147.344 6.75 L 147.344 5.265 L 144.431 5.265 L 144.431 4.786 L 147.296 0.352 L 148.162 0.352 Z M 159.047 6.75 L 157.276 6.75 L 157.276 0.352 L 159.082 0.352 Q 159.917 0.352 160.559 0.721 Q 161.2 1.09 161.55 1.771 A 3.19 3.19 0 0 1 161.867 2.8 A 4.073 4.073 0 0 1 161.903 3.335 L 161.903 3.744 Q 161.903 4.649 161.554 5.331 A 2.457 2.457 0 0 1 160.557 6.376 Q 159.908 6.741 159.047 6.75 Z M 153.56 2.592 A 1.544 1.544 0 0 0 153.664 2.021 A 2.226 2.226 0 0 0 153.642 1.707 A 1.566 1.566 0 0 0 153.143 0.738 A 1.754 1.754 0 0 0 152.377 0.333 A 2.443 2.443 0 0 0 151.778 0.264 A 2.539 2.539 0 0 0 151.269 0.312 A 1.767 1.767 0 0 0 150.412 0.738 Q 149.893 1.213 149.893 2.021 A 1.808 1.808 0 0 0 149.894 2.058 A 1.499 1.499 0 0 0 150.139 2.87 A 1.626 1.626 0 0 0 150.301 3.077 A 1.726 1.726 0 0 0 150.812 3.454 A 2.119 2.119 0 0 0 150.712 3.5 A 1.738 1.738 0 0 0 150.027 4.087 A 1.629 1.629 0 0 0 149.744 5.023 A 2.272 2.272 0 0 0 149.754 5.237 A 1.63 1.63 0 0 0 150.3 6.344 A 1.895 1.895 0 0 0 151.15 6.771 A 2.797 2.797 0 0 0 151.778 6.838 A 2.796 2.796 0 0 0 152.377 6.777 A 1.925 1.925 0 0 0 153.253 6.346 A 1.578 1.578 0 0 0 153.728 5.62 A 1.989 1.989 0 0 0 153.813 5.023 A 1.581 1.581 0 0 0 153.521 4.087 Q 153.229 3.674 152.728 3.458 Q 153.158 3.248 153.411 2.874 A 1.449 1.449 0 0 0 153.56 2.592 Z M 73.991 0.844 L 74.804 0.844 L 74.804 1.995 L 75.692 1.995 L 75.692 2.624 L 74.804 2.624 L 74.804 5.572 Q 74.804 5.858 74.923 6.001 Q 75.041 6.144 75.327 6.144 A 1.046 1.046 0 0 0 75.424 6.138 Q 75.527 6.129 75.667 6.101 A 4.024 4.024 0 0 0 75.714 6.091 L 75.714 6.75 A 2.463 2.463 0 0 1 75.281 6.829 A 2.157 2.157 0 0 1 75.09 6.838 Q 74.642 6.838 74.376 6.616 A 0.856 0.856 0 0 1 74.268 6.508 Q 74.04 6.238 74 5.78 A 2.351 2.351 0 0 1 73.991 5.572 L 73.991 2.624 L 73.125 2.624 L 73.125 1.995 L 73.991 1.995 L 73.991 0.844 Z M 129.661 0.844 L 130.474 0.844 L 130.474 1.995 L 131.361 1.995 L 131.361 2.624 L 130.474 2.624 L 130.474 5.572 Q 130.474 5.858 130.592 6.001 Q 130.711 6.144 130.997 6.144 A 1.046 1.046 0 0 0 131.094 6.138 Q 131.197 6.129 131.337 6.101 A 4.024 4.024 0 0 0 131.383 6.091 L 131.383 6.75 A 2.463 2.463 0 0 1 130.951 6.829 A 2.157 2.157 0 0 1 130.759 6.838 Q 130.312 6.838 130.046 6.616 A 0.856 0.856 0 0 1 129.938 6.508 Q 129.71 6.238 129.67 5.78 A 2.351 2.351 0 0 1 129.661 5.572 L 129.661 2.624 L 128.795 2.624 L 128.795 1.995 L 129.661 1.995 L 129.661 0.844 Z M 60.61 0 L 60.61 6.75 L 59.797 6.75 L 59.797 0 L 60.61 0 Z M 141.284 0 L 141.284 6.75 L 140.471 6.75 L 140.471 0 L 141.284 0 Z M 78.61 4.386 L 78.61 4.329 A 3.057 3.057 0 0 1 78.696 3.587 A 2.573 2.573 0 0 1 78.884 3.072 A 2.16 2.16 0 0 1 79.299 2.486 A 1.957 1.957 0 0 1 79.649 2.21 A 2.036 2.036 0 0 1 80.593 1.913 A 2.491 2.491 0 0 1 80.767 1.907 A 2.277 2.277 0 0 1 81.521 2.027 A 1.937 1.937 0 0 1 82.338 2.58 A 2.29 2.29 0 0 1 82.857 3.608 A 3.373 3.373 0 0 1 82.938 4.368 L 82.938 4.425 A 3.114 3.114 0 0 1 82.859 5.142 A 2.577 2.577 0 0 1 82.672 5.671 A 2.056 2.056 0 0 1 82.145 6.361 A 2.001 2.001 0 0 1 81.912 6.53 A 2.045 2.045 0 0 1 80.992 6.829 A 2.529 2.529 0 0 1 80.776 6.838 A 2.262 2.262 0 0 1 80.026 6.718 A 1.938 1.938 0 0 1 79.209 6.166 A 2.297 2.297 0 0 1 78.684 5.111 A 3.357 3.357 0 0 1 78.61 4.386 Z M 119.057 4.386 L 119.057 4.329 A 3.057 3.057 0 0 1 119.144 3.587 A 2.573 2.573 0 0 1 119.331 3.072 A 2.16 2.16 0 0 1 119.746 2.486 A 1.957 1.957 0 0 1 120.096 2.21 A 2.036 2.036 0 0 1 121.04 1.913 A 2.491 2.491 0 0 1 121.215 1.907 A 2.277 2.277 0 0 1 121.968 2.027 A 1.937 1.937 0 0 1 122.786 2.58 A 2.29 2.29 0 0 1 123.305 3.608 A 3.373 3.373 0 0 1 123.385 4.368 L 123.385 4.425 A 3.114 3.114 0 0 1 123.306 5.142 A 2.577 2.577 0 0 1 123.12 5.671 A 2.056 2.056 0 0 1 122.592 6.361 A 2.001 2.001 0 0 1 122.359 6.53 A 2.045 2.045 0 0 1 121.439 6.829 A 2.529 2.529 0 0 1 121.223 6.838 A 2.262 2.262 0 0 1 120.473 6.718 A 1.938 1.938 0 0 1 119.657 6.166 A 2.297 2.297 0 0 1 119.131 5.111 A 3.357 3.357 0 0 1 119.057 4.386 Z M 135.053 4.386 L 135.053 4.329 A 3.057 3.057 0 0 1 135.14 3.587 A 2.573 2.573 0 0 1 135.328 3.072 A 2.16 2.16 0 0 1 135.742 2.486 A 1.957 1.957 0 0 1 136.092 2.21 A 2.036 2.036 0 0 1 137.037 1.913 A 2.491 2.491 0 0 1 137.211 1.907 A 2.277 2.277 0 0 1 137.964 2.027 A 1.937 1.937 0 0 1 138.782 2.58 A 2.29 2.29 0 0 1 139.301 3.608 A 3.373 3.373 0 0 1 139.381 4.368 L 139.381 4.425 A 3.114 3.114 0 0 1 139.302 5.142 A 2.577 2.577 0 0 1 139.116 5.671 A 2.056 2.056 0 0 1 138.588 6.361 A 2.001 2.001 0 0 1 138.355 6.53 A 2.045 2.045 0 0 1 137.436 6.829 A 2.529 2.529 0 0 1 137.219 6.838 A 2.262 2.262 0 0 1 136.469 6.718 A 1.938 1.938 0 0 1 135.653 6.166 A 2.297 2.297 0 0 1 135.127 5.111 A 3.357 3.357 0 0 1 135.053 4.386 Z M 12.67 1.969 L 12.67 2.725 A 2.251 2.251 0 0 0 12.427 2.698 A 2.782 2.782 0 0 0 12.27 2.694 Q 11.492 2.694 11.2 3.338 A 1.445 1.445 0 0 0 11.184 3.375 L 11.184 6.75 L 10.371 6.75 L 10.371 1.995 L 11.162 1.995 L 11.175 2.544 Q 11.556 1.938 12.238 1.909 A 1.636 1.636 0 0 1 12.309 1.907 Q 12.547 1.907 12.67 1.969 Z M 134.609 1.969 L 134.609 2.725 A 2.251 2.251 0 0 0 134.366 2.698 A 2.782 2.782 0 0 0 134.209 2.694 Q 133.431 2.694 133.14 3.338 A 1.445 1.445 0 0 0 133.124 3.375 L 133.124 6.75 L 132.311 6.75 L 132.311 1.995 L 133.102 1.995 L 133.115 2.544 Q 133.495 1.938 134.178 1.909 A 1.636 1.636 0 0 1 134.249 1.907 Q 134.486 1.907 134.609 1.969 Z M 170.244 1.969 L 170.244 2.725 A 2.251 2.251 0 0 0 170.002 2.698 A 2.782 2.782 0 0 0 169.844 2.694 Q 169.067 2.694 168.775 3.338 A 1.445 1.445 0 0 0 168.759 3.375 L 168.759 6.75 L 167.946 6.75 L 167.946 1.995 L 168.737 1.995 L 168.75 2.544 Q 169.131 1.938 169.813 1.909 A 1.636 1.636 0 0 1 169.884 1.907 Q 170.121 1.907 170.244 1.969 Z M 159.104 1.046 L 158.12 1.046 L 158.12 6.06 L 159.007 6.06 A 2.519 2.519 0 0 0 159.64 5.985 A 1.747 1.747 0 0 0 160.526 5.454 Q 160.985 4.94 161.056 4.059 A 4.165 4.165 0 0 0 161.069 3.727 L 161.069 3.353 Q 161.069 2.562 160.799 2.027 A 1.864 1.864 0 0 0 160.557 1.659 A 1.687 1.687 0 0 0 159.561 1.09 A 2.499 2.499 0 0 0 159.104 1.046 Z M 18.738 1.995 L 18.738 6.75 L 17.925 6.75 L 17.925 1.995 L 18.738 1.995 Z M 62.794 1.995 L 62.794 6.75 L 61.981 6.75 L 61.981 1.995 L 62.794 1.995 Z M 77.524 1.995 L 77.524 6.75 L 76.711 6.75 L 76.711 1.995 L 77.524 1.995 Z M 97.229 1.995 L 97.229 6.75 L 96.416 6.75 L 96.416 1.995 L 97.229 1.995 Z M 79.427 4.425 A 2.772 2.772 0 0 0 79.474 4.954 Q 79.535 5.264 79.672 5.51 A 1.545 1.545 0 0 0 79.794 5.695 Q 80.161 6.174 80.776 6.174 A 1.269 1.269 0 0 0 81.265 6.083 Q 81.545 5.967 81.747 5.706 A 1.471 1.471 0 0 0 81.76 5.689 A 1.648 1.648 0 0 0 82.015 5.171 Q 82.084 4.945 82.11 4.672 A 3.655 3.655 0 0 0 82.125 4.329 A 2.687 2.687 0 0 0 82.074 3.789 Q 82.006 3.459 81.849 3.2 A 1.586 1.586 0 0 0 81.754 3.061 A 1.231 1.231 0 0 0 81.339 2.705 Q 81.086 2.575 80.767 2.575 Q 80.177 2.575 79.811 3.035 A 1.515 1.515 0 0 0 79.796 3.054 A 1.589 1.589 0 0 0 79.544 3.552 Q 79.474 3.772 79.446 4.039 A 3.676 3.676 0 0 0 79.427 4.425 Z M 119.874 4.425 A 2.772 2.772 0 0 0 119.922 4.954 Q 119.982 5.264 120.119 5.51 A 1.545 1.545 0 0 0 120.241 5.695 Q 120.608 6.174 121.223 6.174 A 1.269 1.269 0 0 0 121.713 6.083 Q 121.992 5.967 122.195 5.706 A 1.471 1.471 0 0 0 122.208 5.689 A 1.648 1.648 0 0 0 122.463 5.171 Q 122.531 4.945 122.557 4.672 A 3.655 3.655 0 0 0 122.572 4.329 A 2.687 2.687 0 0 0 122.521 3.789 Q 122.454 3.459 122.296 3.2 A 1.586 1.586 0 0 0 122.201 3.061 A 1.231 1.231 0 0 0 121.786 2.705 Q 121.533 2.575 121.215 2.575 Q 120.625 2.575 120.258 3.035 A 1.515 1.515 0 0 0 120.243 3.054 A 1.589 1.589 0 0 0 119.991 3.552 Q 119.922 3.772 119.893 4.039 A 3.676 3.676 0 0 0 119.874 4.425 Z M 135.87 4.425 A 2.772 2.772 0 0 0 135.918 4.954 Q 135.978 5.264 136.115 5.51 A 1.545 1.545 0 0 0 136.237 5.695 Q 136.604 6.174 137.219 6.174 A 1.269 1.269 0 0 0 137.709 6.083 Q 137.988 5.967 138.191 5.706 A 1.471 1.471 0 0 0 138.204 5.689 A 1.648 1.648 0 0 0 138.459 5.171 Q 138.527 4.945 138.553 4.672 A 3.655 3.655 0 0 0 138.569 4.329 A 2.687 2.687 0 0 0 138.517 3.789 Q 138.45 3.459 138.292 3.2 A 1.586 1.586 0 0 0 138.197 3.061 A 1.231 1.231 0 0 0 137.782 2.705 Q 137.529 2.575 137.211 2.575 Q 136.621 2.575 136.254 3.035 A 1.515 1.515 0 0 0 136.239 3.054 A 1.589 1.589 0 0 0 135.987 3.552 Q 135.918 3.772 135.89 4.039 A 3.676 3.676 0 0 0 135.87 4.425 Z M 55.49 3.252 L 55.49 5.524 Q 55.855 6.174 56.606 6.174 A 1.184 1.184 0 0 0 57.072 6.086 Q 57.329 5.977 57.517 5.735 A 1.403 1.403 0 0 0 57.536 5.711 A 1.501 1.501 0 0 0 57.752 5.28 Q 57.82 5.073 57.852 4.818 A 3.91 3.91 0 0 0 57.881 4.333 Q 57.881 3.746 57.698 3.339 A 1.503 1.503 0 0 0 57.538 3.063 A 1.086 1.086 0 0 0 56.752 2.605 A 1.414 1.414 0 0 0 56.597 2.597 Q 55.937 2.597 55.572 3.121 A 1.623 1.623 0 0 0 55.49 3.252 Z M 45.339 1.046 L 45.339 3.472 L 46.635 3.472 Q 47.175 3.472 47.525 3.231 A 1.174 1.174 0 0 0 47.635 3.146 A 1.069 1.069 0 0 0 48 2.409 A 1.486 1.486 0 0 0 48.006 2.276 Q 48.006 1.734 47.71 1.423 A 1 1 0 0 0 47.652 1.367 Q 47.298 1.05 46.631 1.046 L 45.339 1.046 Z M 147.248 1.639 L 145.354 4.601 L 147.344 4.601 L 147.344 1.463 L 147.248 1.639 Z M 153 5.005 A 1.375 1.375 0 0 0 152.941 4.592 A 1.109 1.109 0 0 0 152.66 4.131 A 1.148 1.148 0 0 0 151.988 3.807 A 1.593 1.593 0 0 0 151.77 3.792 A 1.466 1.466 0 0 0 151.381 3.841 A 1.086 1.086 0 0 0 150.889 4.126 A 1.123 1.123 0 0 0 150.575 4.762 A 1.572 1.572 0 0 0 150.557 5.005 A 1.48 1.48 0 0 0 150.599 5.367 A 1.019 1.019 0 0 0 150.88 5.862 Q 151.186 6.158 151.719 6.173 A 2.053 2.053 0 0 0 151.778 6.174 Q 152.272 6.174 152.582 5.94 A 1.018 1.018 0 0 0 152.675 5.86 A 1.041 1.041 0 0 0 152.974 5.292 A 1.518 1.518 0 0 0 153 5.005 Z M 151.778 0.932 A 1.259 1.259 0 0 0 151.426 0.979 A 0.973 0.973 0 0 0 151.003 1.228 Q 150.706 1.525 150.706 2.035 A 1.325 1.325 0 0 0 150.751 2.387 A 0.994 0.994 0 0 0 150.998 2.823 A 0.974 0.974 0 0 0 151.561 3.108 A 1.382 1.382 0 0 0 151.778 3.125 A 1.279 1.279 0 0 0 152.123 3.08 A 0.952 0.952 0 0 0 152.558 2.823 A 1.018 1.018 0 0 0 152.834 2.26 A 1.426 1.426 0 0 0 152.851 2.035 A 1.282 1.282 0 0 0 152.801 1.668 A 1.013 1.013 0 0 0 152.548 1.239 Q 152.244 0.932 151.778 0.932 Z M 71.613 5.418 L 71.613 4.443 L 70.976 4.443 Q 69.482 4.443 69.482 5.317 Q 69.482 5.7 69.737 5.915 A 0.893 0.893 0 0 0 70.15 6.108 A 1.259 1.259 0 0 0 70.392 6.13 A 1.429 1.429 0 0 0 71.117 5.933 A 1.335 1.335 0 0 0 71.412 5.705 A 1.108 1.108 0 0 0 71.613 5.418 Z M 165.859 5.418 L 165.859 4.443 L 165.221 4.443 Q 163.727 4.443 163.727 5.317 Q 163.727 5.7 163.982 5.915 A 0.893 0.893 0 0 0 164.396 6.108 A 1.259 1.259 0 0 0 164.637 6.13 A 1.429 1.429 0 0 0 165.362 5.933 A 1.335 1.335 0 0 0 165.657 5.705 A 1.108 1.108 0 0 0 165.859 5.418 Z M 6.236 3.938 L 8.618 3.938 L 8.618 3.876 Q 8.592 3.417 8.421 3.111 A 1.13 1.13 0 0 0 8.284 2.916 A 0.983 0.983 0 0 0 7.629 2.584 A 1.39 1.39 0 0 0 7.475 2.575 A 1.106 1.106 0 0 0 6.953 2.698 A 1.14 1.14 0 0 0 6.649 2.933 A 1.417 1.417 0 0 0 6.372 3.379 Q 6.299 3.563 6.259 3.785 A 2.741 2.741 0 0 0 6.236 3.938 Z M 25.383 3.938 L 27.765 3.938 L 27.765 3.876 Q 27.739 3.417 27.568 3.111 A 1.13 1.13 0 0 0 27.431 2.916 A 0.983 0.983 0 0 0 26.776 2.584 A 1.39 1.39 0 0 0 26.622 2.575 A 1.106 1.106 0 0 0 26.1 2.698 A 1.14 1.14 0 0 0 25.796 2.933 A 1.417 1.417 0 0 0 25.519 3.379 Q 25.446 3.563 25.406 3.785 A 2.741 2.741 0 0 0 25.383 3.938 Z M 50.542 3.938 L 52.923 3.938 L 52.923 3.876 Q 52.897 3.417 52.727 3.111 A 1.13 1.13 0 0 0 52.59 2.916 A 0.983 0.983 0 0 0 51.935 2.584 A 1.39 1.39 0 0 0 51.781 2.575 A 1.106 1.106 0 0 0 51.258 2.698 A 1.14 1.14 0 0 0 50.955 2.933 A 1.417 1.417 0 0 0 50.678 3.379 Q 50.604 3.563 50.565 3.785 A 2.741 2.741 0 0 0 50.542 3.938 Z M 107.051 3.938 L 109.433 3.938 L 109.433 3.876 Q 109.407 3.417 109.236 3.111 A 1.13 1.13 0 0 0 109.099 2.916 A 0.983 0.983 0 0 0 108.444 2.584 A 1.39 1.39 0 0 0 108.29 2.575 A 1.106 1.106 0 0 0 107.768 2.698 A 1.14 1.14 0 0 0 107.464 2.933 A 1.417 1.417 0 0 0 107.187 3.379 Q 107.114 3.563 107.074 3.785 A 2.741 2.741 0 0 0 107.051 3.938 Z M 17.86 0.734 Q 17.86 0.536 17.98 0.4 Q 18.092 0.274 18.304 0.264 A 0.783 0.783 0 0 1 18.339 0.264 Q 18.576 0.264 18.699 0.4 A 0.474 0.474 0 0 1 18.821 0.703 A 0.614 0.614 0 0 1 18.822 0.734 A 0.523 0.523 0 0 1 18.797 0.9 A 0.442 0.442 0 0 1 18.699 1.063 Q 18.586 1.184 18.378 1.194 A 0.803 0.803 0 0 1 18.339 1.195 Q 18.166 1.195 18.055 1.126 A 0.362 0.362 0 0 1 17.98 1.063 A 0.456 0.456 0 0 1 17.862 0.788 A 0.605 0.605 0 0 1 17.86 0.734 Z M 61.915 0.734 Q 61.915 0.536 62.036 0.4 Q 62.147 0.274 62.359 0.264 A 0.783 0.783 0 0 1 62.394 0.264 Q 62.631 0.264 62.754 0.4 A 0.474 0.474 0 0 1 62.876 0.703 A 0.614 0.614 0 0 1 62.877 0.734 A 0.523 0.523 0 0 1 62.852 0.9 A 0.442 0.442 0 0 1 62.754 1.063 Q 62.642 1.184 62.434 1.194 A 0.803 0.803 0 0 1 62.394 1.195 Q 62.221 1.195 62.11 1.126 A 0.362 0.362 0 0 1 62.036 1.063 A 0.456 0.456 0 0 1 61.917 0.788 A 0.605 0.605 0 0 1 61.915 0.734 Z M 76.645 0.734 Q 76.645 0.536 76.766 0.4 Q 76.878 0.274 77.09 0.264 A 0.783 0.783 0 0 1 77.124 0.264 Q 77.361 0.264 77.485 0.4 A 0.474 0.474 0 0 1 77.607 0.703 A 0.614 0.614 0 0 1 77.608 0.734 A 0.523 0.523 0 0 1 77.582 0.9 A 0.442 0.442 0 0 1 77.485 1.063 Q 77.372 1.184 77.164 1.194 A 0.803 0.803 0 0 1 77.124 1.195 Q 76.952 1.195 76.841 1.126 A 0.362 0.362 0 0 1 76.766 1.063 A 0.456 0.456 0 0 1 76.648 0.788 A 0.605 0.605 0 0 1 76.645 0.734 Z M 96.35 0.734 Q 96.35 0.536 96.471 0.4 Q 96.583 0.274 96.795 0.264 A 0.783 0.783 0 0 1 96.829 0.264 Q 97.067 0.264 97.19 0.4 A 0.474 0.474 0 0 1 97.312 0.703 A 0.614 0.614 0 0 1 97.313 0.734 A 0.523 0.523 0 0 1 97.287 0.9 A 0.442 0.442 0 0 1 97.19 1.063 Q 97.077 1.184 96.869 1.194 A 0.803 0.803 0 0 1 96.829 1.195 Q 96.657 1.195 96.546 1.126 A 0.362 0.362 0 0 1 96.471 1.063 A 0.456 0.456 0 0 1 96.353 0.788 A 0.605 0.605 0 0 1 96.35 0.734 Z" vector-effect="non-scaling-stroke"/></g>
</svg>