<?xml version="1.0" encoding="UTF-8"?>
<svg width="48px" height="48px" viewBox="0 0 48 48" version="1.1" xmlns="http://www.w3.org/2000/svg" xmlns:xlink="http://www.w3.org/1999/xlink">
    <title>Icon-Resource/Storage/Res_Amazon-S3-Glacier_Archive_48_Dark</title>
    <g id="Icon-Resource/Storage/Res_Amazon-S3-Glacier_Archive_48" stroke="none" stroke-width="1" fill="none" fill-rule="evenodd">
        <path transform="translate(0vw, 0vh), scale(.65)" d="M23.7007,25.3115 C25.2437,25.3115 26.4987,26.5665 26.4987,28.1095 C26.4987,29.6525 25.2437,30.9075 23.7007,30.9075 C22.1577,30.9075 20.9027,29.6525 20.9027,28.1095 C20.9027,26.5665 22.1577,25.3115 23.7007,25.3115 L23.7007,25.3115 Z M18.9027,28.1095 C18.9027,30.4225 20.5487,32.3585 22.7307,32.8085 L22.7307,39.8495 L24.7307,39.8495 L24.7307,32.7895 C26.8817,32.3155 28.4987,30.4005 28.4987,28.1095 C28.4987,27.5365 28.3807,26.9945 28.1947,26.4835 L34.7287,22.7085 L33.7287,20.9765 L27.1427,24.7815 C26.2697,23.8785 25.0527,23.3115 23.7007,23.3115 C22.3477,23.3115 21.1307,23.8775 20.2577,24.7815 L13.6727,20.9765 L12.6727,22.7085 L19.2057,26.4835 C19.0197,26.9935 18.9027,27.5365 18.9027,28.1095 L18.9027,28.1095 Z M31.9267,25.6205 C32.1727,26.4195 32.2977,27.2575 32.2977,28.1095 C32.2977,32.0315 29.6457,35.4535 25.8487,36.4305 L25.3507,34.4935 C28.2627,33.7445 30.2977,31.1185 30.2977,28.1095 C30.2977,27.4575 30.2027,26.8185 30.0137,26.2075 L31.9267,25.6205 Z M22.0517,34.4935 L21.5537,36.4305 C17.7567,35.4535 15.1047,32.0315 15.1047,28.1095 C15.1047,27.2555 15.2297,26.4175 15.4747,25.6205 L17.3877,26.2075 C17.1997,26.8155 17.1047,27.4555 17.1047,28.1095 C17.1047,31.1185 19.1387,33.7445 22.0517,34.4935 L22.0517,34.4935 Z M19.0977,23.3845 L17.6997,21.9555 C19.3097,20.3795 21.4417,19.5125 23.7007,19.5125 C25.9597,19.5125 28.0907,20.3795 29.7027,21.9555 L28.3047,23.3845 C27.0687,22.1775 25.4337,21.5125 23.7007,21.5125 C21.9677,21.5125 20.3327,22.1775 19.0977,23.3845 L19.0977,23.3845 Z M13.4377,3.9995 L33.9647,3.9995 L38.3977,9.8965 L9.0037,9.8965 L13.4377,3.9995 Z M7.0007,11.8965 L40.4007,11.8965 C40.7797,11.8965 41.1267,11.6825 41.2957,11.3425 C41.4657,11.0035 41.4287,10.5985 41.1997,10.2955 L35.2627,2.3995 C35.0737,2.1475 34.7777,1.9995 34.4637,1.9995 L12.9387,1.9995 C12.6247,1.9995 12.3287,2.1475 12.1397,2.3995 L6.2017,10.2955 C5.9727,10.5985 5.9357,11.0035 6.1057,11.3425 C6.2747,11.6825 6.6217,11.8965 7.0007,11.8965 L7.0007,11.8965 Z M8.0607,44.1135 L39.4007,44.1135 L39.4007,15.4055 L8.0607,15.4055 L8.0607,44.1135 Z M40.4007,13.4055 L7.0607,13.4055 C6.5087,13.4055 6.0607,13.8525 6.0607,14.4055 L6.0607,45.1135 C6.0607,45.6655 6.5087,46.1135 7.0607,46.1135 L40.4007,46.1135 C40.9537,46.1135 41.4007,45.6655 41.4007,45.1135 L41.4007,14.4055 C41.4007,13.8525 40.9537,13.4055 40.4007,13.4055 L40.4007,13.4055 Z" id="AWS-Amazon-S3-Glacier_Archive_Resource-Icon_dark-bg" fill="#000000"></path>
    </g><g transform="translate(12vw, 80vh)" id="svgGroup" stroke-linecap="round" fill-rule="evenodd" font-size="9pt" stroke="#000" stroke-width="0.25mm" fill="#000" style="stroke:#000;stroke-width:0.25mm;fill:#000"><path d="M 7.783 1.995 L 8.552 1.995 L 8.574 2.522 Q 9.097 1.907 9.985 1.907 A 2.009 2.009 0 0 1 10.495 1.968 A 1.244 1.244 0 0 1 11.342 2.672 A 1.801 1.801 0 0 1 11.96 2.118 A 1.65 1.65 0 0 1 12.489 1.937 A 2.209 2.209 0 0 1 12.859 1.907 A 2.119 2.119 0 0 1 13.503 1.997 Q 14.429 2.292 14.449 3.564 L 14.449 6.75 L 13.636 6.75 L 13.636 3.612 A 1.781 1.781 0 0 0 13.616 3.332 Q 13.592 3.185 13.542 3.067 A 0.758 0.758 0 0 0 13.403 2.85 A 0.68 0.68 0 0 0 13.151 2.682 Q 12.939 2.597 12.622 2.597 A 1.245 1.245 0 0 0 12.256 2.648 A 1.008 1.008 0 0 0 11.87 2.867 A 1.042 1.042 0 0 0 11.556 3.404 A 1.41 1.41 0 0 0 11.523 3.595 L 11.523 6.75 L 10.705 6.75 L 10.705 3.634 A 1.532 1.532 0 0 0 10.657 3.23 Q 10.53 2.768 10.073 2.643 A 1.457 1.457 0 0 0 9.69 2.597 Q 8.916 2.597 8.616 3.234 A 1.459 1.459 0 0 0 8.596 3.278 L 8.596 6.75 L 7.783 6.75 L 7.783 1.995 Z M 4.636 2.202 L 3.788 2.202 A 1.466 1.466 0 0 0 3.738 1.809 A 1.066 1.066 0 0 0 3.419 1.29 A 1.211 1.211 0 0 0 2.95 1.033 Q 2.698 0.958 2.378 0.958 A 2.286 2.286 0 0 0 1.998 0.988 Q 1.796 1.022 1.633 1.095 A 1.101 1.101 0 0 0 1.404 1.233 A 0.892 0.892 0 0 0 1.059 1.887 A 1.267 1.267 0 0 0 1.055 1.995 A 0.806 0.806 0 0 0 1.323 2.6 A 1.134 1.134 0 0 0 1.387 2.656 A 1.562 1.562 0 0 0 1.625 2.813 Q 1.955 2.993 2.516 3.151 A 8.228 8.228 0 0 1 2.981 3.295 Q 3.216 3.377 3.41 3.464 A 3.297 3.297 0 0 1 3.764 3.645 A 2.342 2.342 0 0 1 4.103 3.889 Q 4.293 4.056 4.415 4.248 A 1.45 1.45 0 0 1 4.432 4.276 A 1.498 1.498 0 0 1 4.628 4.832 A 1.948 1.948 0 0 1 4.65 5.124 A 1.606 1.606 0 0 1 4.527 5.76 Q 4.382 6.101 4.064 6.354 A 1.886 1.886 0 0 1 4.043 6.37 Q 3.437 6.838 2.422 6.838 A 3.023 3.023 0 0 1 1.281 6.623 A 2.917 2.917 0 0 1 1.191 6.585 A 2.383 2.383 0 0 1 0.713 6.307 A 1.874 1.874 0 0 1 0.31 5.893 A 1.689 1.689 0 0 1 0 4.896 L 0.848 4.896 A 1.261 1.261 0 0 0 0.918 5.323 A 1.074 1.074 0 0 0 1.277 5.812 Q 1.661 6.113 2.278 6.144 A 2.87 2.87 0 0 0 2.422 6.148 A 2.628 2.628 0 0 0 2.809 6.121 Q 3.005 6.092 3.164 6.031 A 1.129 1.129 0 0 0 3.445 5.875 Q 3.801 5.603 3.801 5.133 A 1.074 1.074 0 0 0 3.759 4.822 A 0.816 0.816 0 0 0 3.472 4.406 Q 3.142 4.148 2.277 3.898 Q 1.191 3.586 0.697 3.131 Q 0.202 2.676 0.202 2.008 Q 0.202 1.252 0.807 0.758 A 2.121 2.121 0 0 1 1.697 0.335 A 3.087 3.087 0 0 1 2.378 0.264 A 2.913 2.913 0 0 1 3.038 0.336 A 2.372 2.372 0 0 1 3.553 0.519 A 2.051 2.051 0 0 1 4.084 0.889 A 1.834 1.834 0 0 1 4.353 1.222 A 1.798 1.798 0 0 1 4.636 2.202 Z M 34.277 2.202 L 33.429 2.202 A 1.466 1.466 0 0 0 33.38 1.809 A 1.066 1.066 0 0 0 33.06 1.29 A 1.211 1.211 0 0 0 32.591 1.033 Q 32.339 0.958 32.019 0.958 A 2.286 2.286 0 0 0 31.639 0.988 Q 31.437 1.022 31.274 1.095 A 1.101 1.101 0 0 0 31.045 1.233 A 0.892 0.892 0 0 0 30.7 1.887 A 1.267 1.267 0 0 0 30.696 1.995 A 0.806 0.806 0 0 0 30.964 2.6 A 1.134 1.134 0 0 0 31.028 2.656 A 1.562 1.562 0 0 0 31.266 2.813 Q 31.596 2.993 32.157 3.151 A 8.228 8.228 0 0 1 32.622 3.295 Q 32.857 3.377 33.051 3.464 A 3.297 3.297 0 0 1 33.405 3.645 A 2.342 2.342 0 0 1 33.744 3.889 Q 33.934 4.056 34.056 4.248 A 1.45 1.45 0 0 1 34.073 4.276 A 1.498 1.498 0 0 1 34.269 4.832 A 1.948 1.948 0 0 1 34.291 5.124 A 1.606 1.606 0 0 1 34.168 5.76 Q 34.023 6.101 33.705 6.354 A 1.886 1.886 0 0 1 33.684 6.37 Q 33.078 6.838 32.063 6.838 A 3.023 3.023 0 0 1 30.922 6.623 A 2.917 2.917 0 0 1 30.832 6.585 A 2.383 2.383 0 0 1 30.354 6.307 A 1.874 1.874 0 0 1 29.951 5.893 A 1.689 1.689 0 0 1 29.641 4.896 L 30.489 4.896 A 1.261 1.261 0 0 0 30.559 5.323 A 1.074 1.074 0 0 0 30.918 5.812 Q 31.302 6.113 31.919 6.144 A 2.87 2.87 0 0 0 32.063 6.148 A 2.628 2.628 0 0 0 32.45 6.121 Q 32.646 6.092 32.805 6.031 A 1.129 1.129 0 0 0 33.087 5.875 Q 33.443 5.603 33.443 5.133 A 1.074 1.074 0 0 0 33.4 4.822 A 0.816 0.816 0 0 0 33.113 4.406 Q 32.783 4.148 31.918 3.898 Q 30.832 3.586 30.338 3.131 Q 29.843 2.676 29.843 2.008 Q 29.843 1.252 30.448 0.758 A 2.121 2.121 0 0 1 31.338 0.335 A 3.087 3.087 0 0 1 32.019 0.264 A 2.913 2.913 0 0 1 32.679 0.336 A 2.372 2.372 0 0 1 33.194 0.519 A 2.051 2.051 0 0 1 33.725 0.889 A 1.834 1.834 0 0 1 33.994 1.222 A 1.798 1.798 0 0 1 34.277 2.202 Z M 54.035 2.522 L 54.075 1.995 L 54.818 1.995 L 54.818 6.636 A 2.511 2.511 0 0 1 54.747 7.249 A 1.738 1.738 0 0 1 54.27 8.09 A 1.834 1.834 0 0 1 53.341 8.57 A 2.671 2.671 0 0 1 52.8 8.622 A 2.446 2.446 0 0 1 51.794 8.402 A 2.003 2.003 0 0 1 51.384 8.161 A 1.563 1.563 0 0 1 51.043 7.8 L 51.465 7.313 A 1.889 1.889 0 0 0 51.899 7.712 A 1.514 1.514 0 0 0 52.743 7.958 A 1.695 1.695 0 0 0 53.12 7.919 Q 53.389 7.858 53.583 7.702 A 1.037 1.037 0 0 0 53.668 7.625 A 1.09 1.09 0 0 0 53.945 7.132 Q 53.992 6.959 53.999 6.752 A 2.134 2.134 0 0 0 54 6.684 L 54 6.275 A 1.601 1.601 0 0 1 52.948 6.821 A 2.279 2.279 0 0 1 52.669 6.838 A 1.672 1.672 0 0 1 51.913 6.67 Q 51.591 6.51 51.342 6.197 A 2.14 2.14 0 0 1 51.317 6.166 A 2.316 2.316 0 0 1 50.934 5.386 Q 50.801 4.922 50.801 4.333 Q 50.801 3.472 51.109 2.884 A 2.096 2.096 0 0 1 51.315 2.564 Q 51.829 1.907 52.677 1.907 A 1.971 1.971 0 0 1 53.276 1.994 A 1.55 1.55 0 0 1 54.035 2.522 Z M 49.887 6.75 L 49.034 6.75 A 0.632 0.632 0 0 1 48.999 6.66 Q 48.968 6.562 48.943 6.41 A 3.997 3.997 0 0 1 48.92 6.249 Q 48.353 6.838 47.567 6.838 A 2.033 2.033 0 0 1 47.037 6.772 A 1.529 1.529 0 0 1 46.413 6.44 Q 45.963 6.042 45.963 5.432 Q 45.963 4.689 46.527 4.278 Q 47.092 3.867 48.116 3.867 L 48.907 3.867 L 48.907 3.494 A 1.152 1.152 0 0 0 48.871 3.199 A 0.828 0.828 0 0 0 48.652 2.815 Q 48.436 2.6 48.045 2.568 A 1.748 1.748 0 0 0 47.901 2.562 Q 47.465 2.562 47.171 2.782 Q 46.877 3.001 46.877 3.313 L 46.059 3.313 A 1.041 1.041 0 0 1 46.184 2.825 A 1.409 1.409 0 0 1 46.312 2.626 Q 46.565 2.294 46.997 2.101 A 2.249 2.249 0 0 1 47.773 1.913 A 2.669 2.669 0 0 1 47.949 1.907 A 2.65 2.65 0 0 1 48.466 1.955 Q 48.774 2.016 49.012 2.156 A 1.439 1.439 0 0 1 49.236 2.318 A 1.396 1.396 0 0 1 49.69 3.144 A 1.998 1.998 0 0 1 49.72 3.45 L 49.72 5.638 Q 49.72 6.073 49.794 6.39 A 1.707 1.707 0 0 0 49.887 6.68 L 49.887 6.75 Z M 19.692 4.351 L 19.692 4.425 Q 19.692 5.511 19.195 6.174 A 1.57 1.57 0 0 1 18.057 6.828 A 2.013 2.013 0 0 1 17.851 6.838 A 2.196 2.196 0 0 1 17.265 6.764 A 1.598 1.598 0 0 1 16.488 6.289 L 16.488 8.578 L 15.675 8.578 L 15.675 1.995 L 16.418 1.995 L 16.458 2.522 A 1.619 1.619 0 0 1 17.597 1.919 A 2.319 2.319 0 0 1 17.838 1.907 A 1.829 1.829 0 0 1 18.475 2.014 A 1.597 1.597 0 0 1 19.193 2.553 Q 19.692 3.199 19.692 4.351 Z M 22.702 4.504 L 22.702 4.355 A 3.17 3.17 0 0 1 22.779 3.646 A 2.581 2.581 0 0 1 22.973 3.092 A 2.191 2.191 0 0 1 23.42 2.466 A 2.033 2.033 0 0 1 23.728 2.221 Q 24.214 1.907 24.781 1.907 A 2.254 2.254 0 0 1 25.394 1.986 A 1.639 1.639 0 0 1 26.222 2.518 Q 26.736 3.129 26.736 4.267 L 26.736 4.605 L 23.515 4.605 A 2.111 2.111 0 0 0 23.586 5.114 A 1.516 1.516 0 0 0 23.926 5.741 A 1.282 1.282 0 0 0 24.86 6.173 A 1.652 1.652 0 0 0 24.926 6.174 A 1.763 1.763 0 0 0 25.254 6.145 Q 25.478 6.103 25.655 5.999 A 1.827 1.827 0 0 0 26.164 5.551 A 2.068 2.068 0 0 0 26.178 5.533 L 26.675 5.919 A 1.926 1.926 0 0 1 25.275 6.811 A 2.749 2.749 0 0 1 24.882 6.838 A 2.394 2.394 0 0 1 24.131 6.725 A 1.974 1.974 0 0 1 23.309 6.203 Q 22.702 5.568 22.702 4.504 Z M 55.837 4.504 L 55.837 4.355 A 3.17 3.17 0 0 1 55.913 3.646 A 2.581 2.581 0 0 1 56.107 3.092 A 2.191 2.191 0 0 1 56.555 2.466 A 2.033 2.033 0 0 1 56.863 2.221 Q 57.349 1.907 57.916 1.907 A 2.254 2.254 0 0 1 58.529 1.986 A 1.639 1.639 0 0 1 59.357 2.518 Q 59.871 3.129 59.871 4.267 L 59.871 4.605 L 56.65 4.605 A 2.111 2.111 0 0 0 56.721 5.114 A 1.516 1.516 0 0 0 57.061 5.741 A 1.282 1.282 0 0 0 57.995 6.173 A 1.652 1.652 0 0 0 58.061 6.174 A 1.763 1.763 0 0 0 58.389 6.145 Q 58.613 6.103 58.79 5.999 A 1.827 1.827 0 0 0 59.299 5.551 A 2.068 2.068 0 0 0 59.313 5.533 L 59.81 5.919 A 1.926 1.926 0 0 1 58.41 6.811 A 2.749 2.749 0 0 1 58.017 6.838 A 2.394 2.394 0 0 1 57.266 6.725 A 1.974 1.974 0 0 1 56.444 6.203 Q 55.837 5.568 55.837 4.504 Z M 35.534 0.844 L 36.347 0.844 L 36.347 1.995 L 37.235 1.995 L 37.235 2.624 L 36.347 2.624 L 36.347 5.572 Q 36.347 5.858 36.466 6.001 Q 36.585 6.144 36.87 6.144 A 1.046 1.046 0 0 0 36.968 6.138 Q 37.071 6.129 37.21 6.101 A 4.024 4.024 0 0 0 37.257 6.091 L 37.257 6.75 A 2.463 2.463 0 0 1 36.824 6.829 A 2.157 2.157 0 0 1 36.633 6.838 Q 36.186 6.838 35.919 6.616 A 0.856 0.856 0 0 1 35.811 6.508 Q 35.584 6.238 35.543 5.78 A 2.351 2.351 0 0 1 35.534 5.572 L 35.534 2.624 L 34.669 2.624 L 34.669 1.995 L 35.534 1.995 L 35.534 0.844 Z M 21.608 0 L 21.608 6.75 L 20.795 6.75 L 20.795 0 L 21.608 0 Z M 37.881 4.386 L 37.881 4.329 A 3.057 3.057 0 0 1 37.968 3.587 A 2.573 2.573 0 0 1 38.156 3.072 A 2.16 2.16 0 0 1 38.57 2.486 A 1.957 1.957 0 0 1 38.92 2.21 A 2.036 2.036 0 0 1 39.865 1.913 A 2.491 2.491 0 0 1 40.039 1.907 A 2.277 2.277 0 0 1 40.792 2.027 A 1.937 1.937 0 0 1 41.61 2.58 A 2.29 2.29 0 0 1 42.129 3.608 A 3.373 3.373 0 0 1 42.21 4.368 L 42.21 4.425 A 3.114 3.114 0 0 1 42.13 5.142 A 2.577 2.577 0 0 1 41.944 5.671 A 2.056 2.056 0 0 1 41.416 6.361 A 2.001 2.001 0 0 1 41.183 6.53 A 2.045 2.045 0 0 1 40.264 6.829 A 2.529 2.529 0 0 1 40.048 6.838 A 2.262 2.262 0 0 1 39.297 6.718 A 1.938 1.938 0 0 1 38.481 6.166 A 2.297 2.297 0 0 1 37.955 5.111 A 3.357 3.357 0 0 1 37.881 4.386 Z M 45.527 1.969 L 45.527 2.725 A 2.251 2.251 0 0 0 45.285 2.698 A 2.782 2.782 0 0 0 45.128 2.694 Q 44.35 2.694 44.058 3.338 A 1.445 1.445 0 0 0 44.042 3.375 L 44.042 6.75 L 43.229 6.75 L 43.229 1.995 L 44.02 1.995 L 44.033 2.544 Q 44.414 1.938 45.096 1.909 A 1.636 1.636 0 0 1 45.167 1.907 Q 45.404 1.907 45.527 1.969 Z M 6.486 1.995 L 6.486 6.75 L 5.673 6.75 L 5.673 1.995 L 6.486 1.995 Z M 38.698 4.425 A 2.772 2.772 0 0 0 38.746 4.954 Q 38.806 5.264 38.944 5.51 A 1.545 1.545 0 0 0 39.065 5.695 Q 39.432 6.174 40.048 6.174 A 1.269 1.269 0 0 0 40.537 6.083 Q 40.816 5.967 41.019 5.706 A 1.471 1.471 0 0 0 41.032 5.689 A 1.648 1.648 0 0 0 41.287 5.171 Q 41.355 4.945 41.381 4.672 A 3.655 3.655 0 0 0 41.397 4.329 A 2.687 2.687 0 0 0 41.345 3.789 Q 41.278 3.459 41.12 3.2 A 1.586 1.586 0 0 0 41.025 3.061 A 1.231 1.231 0 0 0 40.61 2.705 Q 40.357 2.575 40.039 2.575 Q 39.449 2.575 39.083 3.035 A 1.515 1.515 0 0 0 39.068 3.054 A 1.589 1.589 0 0 0 38.815 3.552 Q 38.746 3.772 38.718 4.039 A 3.676 3.676 0 0 0 38.698 4.425 Z M 16.488 3.252 L 16.488 5.524 Q 16.853 6.174 17.605 6.174 A 1.184 1.184 0 0 0 18.07 6.086 Q 18.327 5.977 18.516 5.735 A 1.403 1.403 0 0 0 18.534 5.711 A 1.501 1.501 0 0 0 18.751 5.28 Q 18.819 5.073 18.851 4.818 A 3.91 3.91 0 0 0 18.879 4.333 Q 18.879 3.746 18.696 3.339 A 1.503 1.503 0 0 0 18.536 3.063 A 1.086 1.086 0 0 0 17.75 2.605 A 1.414 1.414 0 0 0 17.596 2.597 Q 16.935 2.597 16.57 3.121 A 1.623 1.623 0 0 0 16.488 3.252 Z M 54 5.449 L 54 3.278 A 1.439 1.439 0 0 0 53.699 2.891 Q 53.396 2.62 52.955 2.599 A 1.578 1.578 0 0 0 52.88 2.597 Q 52.288 2.597 51.954 3.056 A 1.51 1.51 0 0 0 51.743 3.484 Q 51.677 3.689 51.646 3.939 A 3.955 3.955 0 0 0 51.618 4.425 Q 51.618 5.229 51.948 5.689 Q 52.277 6.148 52.871 6.148 A 1.32 1.32 0 0 0 53.38 6.054 Q 53.772 5.891 54 5.449 Z M 48.907 5.418 L 48.907 4.443 L 48.27 4.443 Q 46.776 4.443 46.776 5.317 Q 46.776 5.7 47.03 5.915 A 0.893 0.893 0 0 0 47.444 6.108 A 1.259 1.259 0 0 0 47.685 6.13 A 1.429 1.429 0 0 0 48.41 5.933 A 1.335 1.335 0 0 0 48.706 5.705 A 1.108 1.108 0 0 0 48.907 5.418 Z M 23.542 3.938 L 25.923 3.938 L 25.923 3.876 Q 25.897 3.417 25.727 3.111 A 1.13 1.13 0 0 0 25.59 2.916 A 0.983 0.983 0 0 0 24.935 2.584 A 1.39 1.39 0 0 0 24.781 2.575 A 1.106 1.106 0 0 0 24.258 2.698 A 1.14 1.14 0 0 0 23.955 2.933 A 1.417 1.417 0 0 0 23.678 3.379 Q 23.604 3.563 23.565 3.785 A 2.741 2.741 0 0 0 23.542 3.938 Z M 56.676 3.938 L 59.058 3.938 L 59.058 3.876 Q 59.032 3.417 58.862 3.111 A 1.13 1.13 0 0 0 58.724 2.916 A 0.983 0.983 0 0 0 58.07 2.584 A 1.39 1.39 0 0 0 57.916 2.575 A 1.106 1.106 0 0 0 57.393 2.698 A 1.14 1.14 0 0 0 57.09 2.933 A 1.417 1.417 0 0 0 56.813 3.379 Q 56.739 3.563 56.699 3.785 A 2.741 2.741 0 0 0 56.676 3.938 Z M 5.608 0.734 Q 5.608 0.536 5.728 0.4 Q 5.84 0.274 6.052 0.264 A 0.783 0.783 0 0 1 6.087 0.264 Q 6.324 0.264 6.447 0.4 A 0.474 0.474 0 0 1 6.569 0.703 A 0.614 0.614 0 0 1 6.57 0.734 A 0.523 0.523 0 0 1 6.545 0.9 A 0.442 0.442 0 0 1 6.447 1.063 Q 6.334 1.184 6.126 1.194 A 0.803 0.803 0 0 1 6.087 1.195 Q 5.914 1.195 5.803 1.126 A 0.362 0.362 0 0 1 5.728 1.063 A 0.456 0.456 0 0 1 5.61 0.788 A 0.605 0.605 0 0 1 5.608 0.734 Z" vector-effect="non-scaling-stroke"/></g><g transform="translate(12vw, 90vh)" id="svgGroup" stroke-linecap="round" fill-rule="evenodd" font-size="9pt" stroke="#000" stroke-width="0.25mm" fill="#000" style="stroke:#000;stroke-width:0.25mm;fill:#000"><path d="M 36.598 3.564 L 36.598 5.911 A 1.895 1.895 0 0 1 35.874 6.525 A 2.364 2.364 0 0 1 35.69 6.607 A 3.162 3.162 0 0 1 35.018 6.787 Q 34.707 6.836 34.357 6.838 A 5.148 5.148 0 0 1 34.335 6.838 A 2.838 2.838 0 0 1 33.512 6.722 A 2.459 2.459 0 0 1 32.946 6.471 A 2.43 2.43 0 0 1 32.039 5.49 A 2.924 2.924 0 0 1 32.008 5.427 A 3.277 3.277 0 0 1 31.719 4.497 A 4.307 4.307 0 0 1 31.667 3.858 L 31.667 3.3 Q 31.667 1.854 32.342 1.059 A 2.198 2.198 0 0 1 33.695 0.307 A 3.227 3.227 0 0 1 34.238 0.264 Q 35.24 0.264 35.851 0.776 A 2.047 2.047 0 0 1 36.473 1.701 A 2.896 2.896 0 0 1 36.598 2.228 L 35.754 2.228 Q 35.547 1.12 34.551 0.979 A 2.195 2.195 0 0 0 34.242 0.958 A 1.917 1.917 0 0 0 33.708 1.028 A 1.386 1.386 0 0 0 32.957 1.553 A 1.986 1.986 0 0 0 32.673 2.125 Q 32.586 2.396 32.547 2.726 A 4.871 4.871 0 0 0 32.515 3.278 L 32.515 3.801 A 3.827 3.827 0 0 0 32.573 4.489 Q 32.684 5.096 33.007 5.513 A 1.569 1.569 0 0 0 34.147 6.139 A 2.069 2.069 0 0 0 34.339 6.148 Q 34.772 6.148 35.106 6.06 A 2.106 2.106 0 0 0 35.17 6.042 A 1.357 1.357 0 0 0 35.558 5.86 A 1.217 1.217 0 0 0 35.758 5.687 L 35.758 4.25 L 34.277 4.25 L 34.277 3.564 L 36.598 3.564 Z M 4.636 2.202 L 3.788 2.202 A 1.466 1.466 0 0 0 3.738 1.809 A 1.066 1.066 0 0 0 3.419 1.29 A 1.211 1.211 0 0 0 2.95 1.033 Q 2.698 0.958 2.378 0.958 A 2.286 2.286 0 0 0 1.998 0.988 Q 1.796 1.022 1.633 1.095 A 1.101 1.101 0 0 0 1.404 1.233 A 0.892 0.892 0 0 0 1.059 1.887 A 1.267 1.267 0 0 0 1.055 1.995 A 0.806 0.806 0 0 0 1.323 2.6 A 1.134 1.134 0 0 0 1.387 2.656 A 1.562 1.562 0 0 0 1.625 2.813 Q 1.955 2.993 2.516 3.151 A 8.228 8.228 0 0 1 2.981 3.295 Q 3.216 3.377 3.41 3.464 A 3.297 3.297 0 0 1 3.764 3.645 A 2.342 2.342 0 0 1 4.103 3.889 Q 4.293 4.056 4.415 4.248 A 1.45 1.45 0 0 1 4.432 4.276 A 1.498 1.498 0 0 1 4.628 4.832 A 1.948 1.948 0 0 1 4.65 5.124 A 1.606 1.606 0 0 1 4.527 5.76 Q 4.382 6.101 4.064 6.354 A 1.886 1.886 0 0 1 4.043 6.37 Q 3.437 6.838 2.422 6.838 A 3.023 3.023 0 0 1 1.281 6.623 A 2.917 2.917 0 0 1 1.191 6.585 A 2.383 2.383 0 0 1 0.713 6.307 A 1.874 1.874 0 0 1 0.31 5.893 A 1.689 1.689 0 0 1 0 4.896 L 0.848 4.896 A 1.261 1.261 0 0 0 0.918 5.323 A 1.074 1.074 0 0 0 1.277 5.812 Q 1.661 6.113 2.278 6.144 A 2.87 2.87 0 0 0 2.422 6.148 A 2.628 2.628 0 0 0 2.809 6.121 Q 3.005 6.092 3.164 6.031 A 1.129 1.129 0 0 0 3.445 5.875 Q 3.801 5.603 3.801 5.133 A 1.074 1.074 0 0 0 3.759 4.822 A 0.816 0.816 0 0 0 3.472 4.406 Q 3.142 4.148 2.277 3.898 Q 1.191 3.586 0.697 3.131 Q 0.202 2.676 0.202 2.008 Q 0.202 1.252 0.807 0.758 A 2.121 2.121 0 0 1 1.697 0.335 A 3.087 3.087 0 0 1 2.378 0.264 A 2.913 2.913 0 0 1 3.038 0.336 A 2.372 2.372 0 0 1 3.553 0.519 A 2.051 2.051 0 0 1 4.084 0.889 A 1.834 1.834 0 0 1 4.353 1.222 A 1.798 1.798 0 0 1 4.636 2.202 Z M 76.25 0 L 76.25 2.571 A 1.767 1.767 0 0 1 76.916 2.053 A 1.832 1.832 0 0 1 77.656 1.907 A 1.905 1.905 0 0 1 78.289 2.004 Q 79.131 2.3 79.174 3.506 A 3.668 3.668 0 0 1 79.176 3.608 L 79.176 6.75 L 78.363 6.75 L 78.363 3.604 A 1.837 1.837 0 0 0 78.341 3.324 Q 78.291 3.017 78.128 2.843 Q 77.942 2.645 77.589 2.606 A 1.66 1.66 0 0 0 77.41 2.597 A 1.253 1.253 0 0 0 76.995 2.664 A 1.123 1.123 0 0 0 76.715 2.808 A 1.432 1.432 0 0 0 76.25 3.362 L 76.25 6.75 L 75.437 6.75 L 75.437 0 L 76.25 0 Z M 123.038 6.75 L 121.381 4.548 L 120.872 5.08 L 120.872 6.75 L 120.059 6.75 L 120.059 0 L 120.872 0 L 120.872 4.083 L 121.307 3.56 L 122.788 1.995 L 123.777 1.995 L 121.926 3.981 L 123.992 6.75 L 123.038 6.75 Z M 23.067 5.251 L 23.836 5.251 A 1.432 1.432 0 0 1 23.637 5.901 A 1.772 1.772 0 0 1 23.555 6.029 A 1.828 1.828 0 0 1 22.946 6.574 A 2.169 2.169 0 0 1 22.863 6.618 A 1.997 1.997 0 0 1 21.946 6.838 A 2.346 2.346 0 0 1 21.249 6.739 A 1.839 1.839 0 0 1 20.402 6.19 A 2.171 2.171 0 0 1 19.938 5.31 Q 19.828 4.909 19.828 4.417 L 19.828 4.28 A 3.24 3.24 0 0 1 19.892 3.624 A 2.57 2.57 0 0 1 20.083 3.045 A 2.008 2.008 0 0 1 20.523 2.431 A 1.892 1.892 0 0 1 20.815 2.206 A 1.943 1.943 0 0 1 21.571 1.934 A 2.529 2.529 0 0 1 21.942 1.907 A 2.196 2.196 0 0 1 22.59 1.999 A 1.786 1.786 0 0 1 23.271 2.386 A 1.693 1.693 0 0 1 23.83 3.535 A 2.239 2.239 0 0 1 23.836 3.63 L 23.067 3.63 Q 23.032 3.168 22.718 2.872 A 1.078 1.078 0 0 0 21.989 2.576 A 1.402 1.402 0 0 0 21.942 2.575 A 1.374 1.374 0 0 0 21.521 2.637 A 1.081 1.081 0 0 0 20.982 3.021 A 1.469 1.469 0 0 0 20.755 3.468 Q 20.689 3.674 20.662 3.923 A 3.514 3.514 0 0 0 20.641 4.311 L 20.641 4.465 Q 20.641 5.287 20.98 5.73 A 1.1 1.1 0 0 0 21.766 6.165 A 1.611 1.611 0 0 0 21.946 6.174 A 1.171 1.171 0 0 0 22.707 5.911 A 1.007 1.007 0 0 0 22.951 5.629 A 0.914 0.914 0 0 0 23.067 5.251 Z M 47.984 5.251 L 48.753 5.251 A 1.432 1.432 0 0 1 48.554 5.901 A 1.772 1.772 0 0 1 48.472 6.029 A 1.828 1.828 0 0 1 47.863 6.574 A 2.169 2.169 0 0 1 47.78 6.618 A 1.997 1.997 0 0 1 46.863 6.838 A 2.346 2.346 0 0 1 46.166 6.739 A 1.839 1.839 0 0 1 45.319 6.19 A 2.171 2.171 0 0 1 44.855 5.31 Q 44.745 4.909 44.745 4.417 L 44.745 4.28 A 3.24 3.24 0 0 1 44.809 3.624 A 2.57 2.57 0 0 1 45 3.045 A 2.008 2.008 0 0 1 45.44 2.431 A 1.892 1.892 0 0 1 45.732 2.206 A 1.943 1.943 0 0 1 46.488 1.934 A 2.529 2.529 0 0 1 46.859 1.907 A 2.196 2.196 0 0 1 47.507 1.999 A 1.786 1.786 0 0 1 48.188 2.386 A 1.693 1.693 0 0 1 48.747 3.535 A 2.239 2.239 0 0 1 48.753 3.63 L 47.984 3.63 Q 47.949 3.168 47.635 2.872 A 1.078 1.078 0 0 0 46.906 2.576 A 1.402 1.402 0 0 0 46.859 2.575 A 1.374 1.374 0 0 0 46.438 2.637 A 1.081 1.081 0 0 0 45.899 3.021 A 1.469 1.469 0 0 0 45.672 3.468 Q 45.606 3.674 45.579 3.923 A 3.514 3.514 0 0 0 45.558 4.311 L 45.558 4.465 Q 45.558 5.287 45.897 5.73 A 1.1 1.1 0 0 0 46.683 6.165 A 1.611 1.611 0 0 0 46.863 6.174 A 1.171 1.171 0 0 0 47.624 5.911 A 1.007 1.007 0 0 0 47.868 5.629 A 0.914 0.914 0 0 0 47.984 5.251 Z M 73.754 5.251 L 74.523 5.251 A 1.432 1.432 0 0 1 74.323 5.901 A 1.772 1.772 0 0 1 74.241 6.029 A 1.828 1.828 0 0 1 73.632 6.574 A 2.169 2.169 0 0 1 73.549 6.618 A 1.997 1.997 0 0 1 72.633 6.838 A 2.346 2.346 0 0 1 71.936 6.739 A 1.839 1.839 0 0 1 71.088 6.19 A 2.171 2.171 0 0 1 70.625 5.31 Q 70.515 4.909 70.515 4.417 L 70.515 4.28 A 3.24 3.24 0 0 1 70.579 3.624 A 2.57 2.57 0 0 1 70.77 3.045 A 2.008 2.008 0 0 1 71.209 2.431 A 1.892 1.892 0 0 1 71.501 2.206 A 1.943 1.943 0 0 1 72.258 1.934 A 2.529 2.529 0 0 1 72.629 1.907 A 2.196 2.196 0 0 1 73.277 1.999 A 1.786 1.786 0 0 1 73.958 2.386 A 1.693 1.693 0 0 1 74.516 3.535 A 2.239 2.239 0 0 1 74.523 3.63 L 73.754 3.63 Q 73.718 3.168 73.404 2.872 A 1.078 1.078 0 0 0 72.675 2.576 A 1.402 1.402 0 0 0 72.629 2.575 A 1.374 1.374 0 0 0 72.207 2.637 A 1.081 1.081 0 0 0 71.668 3.021 A 1.469 1.469 0 0 0 71.442 3.468 Q 71.376 3.674 71.348 3.923 A 3.514 3.514 0 0 0 71.328 4.311 L 71.328 4.465 Q 71.328 5.287 71.666 5.73 A 1.1 1.1 0 0 0 72.453 6.165 A 1.611 1.611 0 0 0 72.633 6.174 A 1.171 1.171 0 0 0 73.393 5.911 A 1.007 1.007 0 0 0 73.637 5.629 A 0.914 0.914 0 0 0 73.754 5.251 Z M 66.164 6.75 L 65.553 5.08 L 62.873 5.08 L 62.271 6.75 L 61.401 6.75 L 63.844 0.352 L 64.582 0.352 L 67.03 6.75 L 66.164 6.75 Z M 43.849 6.75 L 42.996 6.75 A 0.632 0.632 0 0 1 42.961 6.66 Q 42.93 6.562 42.905 6.41 A 3.997 3.997 0 0 1 42.882 6.249 Q 42.315 6.838 41.528 6.838 A 2.033 2.033 0 0 1 40.999 6.772 A 1.529 1.529 0 0 1 40.375 6.44 Q 39.924 6.042 39.924 5.432 Q 39.924 4.689 40.489 4.278 Q 41.054 3.867 42.078 3.867 L 42.869 3.867 L 42.869 3.494 A 1.152 1.152 0 0 0 42.833 3.199 A 0.828 0.828 0 0 0 42.614 2.815 Q 42.398 2.6 42.007 2.568 A 1.748 1.748 0 0 0 41.862 2.562 Q 41.427 2.562 41.133 2.782 Q 40.839 3.001 40.839 3.313 L 40.021 3.313 A 1.041 1.041 0 0 1 40.146 2.825 A 1.409 1.409 0 0 1 40.274 2.626 Q 40.527 2.294 40.959 2.101 A 2.249 2.249 0 0 1 41.735 1.913 A 2.669 2.669 0 0 1 41.911 1.907 A 2.65 2.65 0 0 1 42.428 1.955 Q 42.735 2.016 42.974 2.156 A 1.439 1.439 0 0 1 43.198 2.318 A 1.396 1.396 0 0 1 43.652 3.144 A 1.998 1.998 0 0 1 43.682 3.45 L 43.682 5.638 Q 43.682 6.073 43.755 6.39 A 1.707 1.707 0 0 0 43.849 6.68 L 43.849 6.75 Z M 115.902 6.75 L 115.049 6.75 A 0.632 0.632 0 0 1 115.013 6.66 Q 114.982 6.562 114.957 6.41 A 3.997 3.997 0 0 1 114.935 6.249 Q 114.368 6.838 113.581 6.838 A 2.033 2.033 0 0 1 113.052 6.772 A 1.529 1.529 0 0 1 112.428 6.44 Q 111.977 6.042 111.977 5.432 Q 111.977 4.689 112.542 4.278 Q 113.107 3.867 114.131 3.867 L 114.922 3.867 L 114.922 3.494 A 1.152 1.152 0 0 0 114.886 3.199 A 0.828 0.828 0 0 0 114.667 2.815 Q 114.45 2.6 114.06 2.568 A 1.748 1.748 0 0 0 113.915 2.562 Q 113.48 2.562 113.186 2.782 Q 112.891 3.001 112.891 3.313 L 112.074 3.313 A 1.041 1.041 0 0 1 112.199 2.825 A 1.409 1.409 0 0 1 112.327 2.626 Q 112.579 2.294 113.012 2.101 A 2.249 2.249 0 0 1 113.788 1.913 A 2.669 2.669 0 0 1 113.964 1.907 A 2.65 2.65 0 0 1 114.481 1.955 Q 114.788 2.016 115.027 2.156 A 1.439 1.439 0 0 1 115.251 2.318 A 1.396 1.396 0 0 1 115.704 3.144 A 1.998 1.998 0 0 1 115.735 3.45 L 115.735 5.638 Q 115.735 6.073 115.808 6.39 A 1.707 1.707 0 0 0 115.902 6.68 L 115.902 6.75 Z M 5.397 4.504 L 5.397 4.355 A 3.17 3.17 0 0 1 5.473 3.646 A 2.581 2.581 0 0 1 5.667 3.092 A 2.191 2.191 0 0 1 6.114 2.466 A 2.033 2.033 0 0 1 6.423 2.221 Q 6.908 1.907 7.475 1.907 A 2.254 2.254 0 0 1 8.088 1.986 A 1.639 1.639 0 0 1 8.917 2.518 Q 9.431 3.129 9.431 4.267 L 9.431 4.605 L 6.21 4.605 A 2.111 2.111 0 0 0 6.281 5.114 A 1.516 1.516 0 0 0 6.621 5.741 A 1.282 1.282 0 0 0 7.555 6.173 A 1.652 1.652 0 0 0 7.62 6.174 A 1.763 1.763 0 0 0 7.948 6.145 Q 8.172 6.103 8.35 5.999 A 1.827 1.827 0 0 0 8.859 5.551 A 2.068 2.068 0 0 0 8.873 5.533 L 9.369 5.919 A 1.926 1.926 0 0 1 7.97 6.811 A 2.749 2.749 0 0 1 7.576 6.838 A 2.394 2.394 0 0 1 6.825 6.725 A 1.974 1.974 0 0 1 6.003 6.203 Q 5.397 5.568 5.397 4.504 Z M 24.544 4.504 L 24.544 4.355 A 3.17 3.17 0 0 1 24.62 3.646 A 2.581 2.581 0 0 1 24.814 3.092 A 2.191 2.191 0 0 1 25.261 2.466 A 2.033 2.033 0 0 1 25.57 2.221 Q 26.055 1.907 26.622 1.907 A 2.254 2.254 0 0 1 27.235 1.986 A 1.639 1.639 0 0 1 28.064 2.518 Q 28.578 3.129 28.578 4.267 L 28.578 4.605 L 25.357 4.605 A 2.111 2.111 0 0 0 25.428 5.114 A 1.516 1.516 0 0 0 25.767 5.741 A 1.282 1.282 0 0 0 26.702 6.173 A 1.652 1.652 0 0 0 26.767 6.174 A 1.763 1.763 0 0 0 27.095 6.145 Q 27.319 6.103 27.497 5.999 A 1.827 1.827 0 0 0 28.006 5.551 A 2.068 2.068 0 0 0 28.02 5.533 L 28.516 5.919 A 1.926 1.926 0 0 1 27.117 6.811 A 2.749 2.749 0 0 1 26.723 6.838 A 2.394 2.394 0 0 1 25.972 6.725 A 1.974 1.974 0 0 1 25.15 6.203 Q 24.544 5.568 24.544 4.504 Z M 51.645 4.504 L 51.645 4.355 A 3.17 3.17 0 0 1 51.721 3.646 A 2.581 2.581 0 0 1 51.915 3.092 A 2.191 2.191 0 0 1 52.362 2.466 A 2.033 2.033 0 0 1 52.671 2.221 Q 53.156 1.907 53.723 1.907 A 2.254 2.254 0 0 1 54.336 1.986 A 1.639 1.639 0 0 1 55.165 2.518 Q 55.679 3.129 55.679 4.267 L 55.679 4.605 L 52.458 4.605 A 2.111 2.111 0 0 0 52.529 5.114 A 1.516 1.516 0 0 0 52.869 5.741 A 1.282 1.282 0 0 0 53.803 6.173 A 1.652 1.652 0 0 0 53.868 6.174 A 1.763 1.763 0 0 0 54.196 6.145 Q 54.42 6.103 54.598 5.999 A 1.827 1.827 0 0 0 55.107 5.551 A 2.068 2.068 0 0 0 55.121 5.533 L 55.617 5.919 A 1.926 1.926 0 0 1 54.218 6.811 A 2.749 2.749 0 0 1 53.824 6.838 A 2.394 2.394 0 0 1 53.073 6.725 A 1.974 1.974 0 0 1 52.251 6.203 Q 51.645 5.568 51.645 4.504 Z M 86.673 4.504 L 86.673 4.355 A 3.17 3.17 0 0 1 86.75 3.646 A 2.581 2.581 0 0 1 86.944 3.092 A 2.191 2.191 0 0 1 87.391 2.466 A 2.033 2.033 0 0 1 87.7 2.221 Q 88.185 1.907 88.752 1.907 A 2.254 2.254 0 0 1 89.365 1.986 A 1.639 1.639 0 0 1 90.194 2.518 Q 90.708 3.129 90.708 4.267 L 90.708 4.605 L 87.486 4.605 A 2.111 2.111 0 0 0 87.558 5.114 A 1.516 1.516 0 0 0 87.897 5.741 A 1.282 1.282 0 0 0 88.831 6.173 A 1.652 1.652 0 0 0 88.897 6.174 A 1.763 1.763 0 0 0 89.225 6.145 Q 89.449 6.103 89.627 5.999 A 1.827 1.827 0 0 0 90.135 5.551 A 2.068 2.068 0 0 0 90.15 5.533 L 90.646 5.919 A 1.926 1.926 0 0 1 89.246 6.811 A 2.749 2.749 0 0 1 88.853 6.838 A 2.394 2.394 0 0 1 88.102 6.725 A 1.974 1.974 0 0 1 87.28 6.203 Q 86.673 5.568 86.673 4.504 Z M 13.856 1.995 L 15.065 5.647 L 16.242 1.995 L 17.073 1.995 L 15.368 6.75 L 14.748 6.75 L 13.026 1.995 L 13.856 1.995 Z M 82.938 1.995 L 84.147 5.647 L 85.324 1.995 L 86.155 1.995 L 84.45 6.75 L 83.83 6.75 L 82.108 1.995 L 82.938 1.995 Z M 97.225 0.352 L 97.225 4.601 L 98.112 4.601 L 98.112 5.265 L 97.225 5.265 L 97.225 6.75 L 96.407 6.75 L 96.407 5.265 L 93.494 5.265 L 93.494 4.786 L 96.359 0.352 L 97.225 0.352 Z M 108.11 6.75 L 106.339 6.75 L 106.339 0.352 L 108.145 0.352 Q 108.98 0.352 109.622 0.721 Q 110.263 1.09 110.613 1.771 A 3.19 3.19 0 0 1 110.93 2.8 A 4.073 4.073 0 0 1 110.966 3.335 L 110.966 3.744 Q 110.966 4.649 110.617 5.331 A 2.457 2.457 0 0 1 109.62 6.376 Q 108.971 6.741 108.11 6.75 Z M 102.623 2.592 A 1.544 1.544 0 0 0 102.727 2.021 A 2.226 2.226 0 0 0 102.705 1.707 A 1.566 1.566 0 0 0 102.206 0.738 A 1.754 1.754 0 0 0 101.44 0.333 A 2.443 2.443 0 0 0 100.841 0.264 A 2.539 2.539 0 0 0 100.332 0.312 A 1.767 1.767 0 0 0 99.475 0.738 Q 98.956 1.213 98.956 2.021 A 1.808 1.808 0 0 0 98.957 2.058 A 1.499 1.499 0 0 0 99.202 2.87 A 1.626 1.626 0 0 0 99.364 3.077 A 1.726 1.726 0 0 0 99.875 3.454 A 2.119 2.119 0 0 0 99.775 3.5 A 1.738 1.738 0 0 0 99.09 4.087 A 1.629 1.629 0 0 0 98.807 5.023 A 2.272 2.272 0 0 0 98.817 5.237 A 1.63 1.63 0 0 0 99.363 6.344 A 1.895 1.895 0 0 0 100.213 6.771 A 2.797 2.797 0 0 0 100.841 6.838 A 2.796 2.796 0 0 0 101.44 6.777 A 1.925 1.925 0 0 0 102.316 6.346 A 1.578 1.578 0 0 0 102.791 5.62 A 1.989 1.989 0 0 0 102.876 5.023 A 1.581 1.581 0 0 0 102.584 4.087 Q 102.292 3.674 101.791 3.458 Q 102.221 3.248 102.474 2.874 A 1.449 1.449 0 0 0 102.623 2.592 Z M 38.76 0 L 38.76 6.75 L 37.947 6.75 L 37.947 0 L 38.76 0 Z M 12.67 1.969 L 12.67 2.725 A 2.251 2.251 0 0 0 12.427 2.698 A 2.782 2.782 0 0 0 12.27 2.694 Q 11.492 2.694 11.2 3.338 A 1.445 1.445 0 0 0 11.184 3.375 L 11.184 6.75 L 10.371 6.75 L 10.371 1.995 L 11.162 1.995 L 11.175 2.544 Q 11.556 1.938 12.238 1.909 A 1.636 1.636 0 0 1 12.309 1.907 Q 12.547 1.907 12.67 1.969 Z M 58.918 1.969 L 58.918 2.725 A 2.251 2.251 0 0 0 58.675 2.698 A 2.782 2.782 0 0 0 58.518 2.694 Q 57.74 2.694 57.448 3.338 A 1.445 1.445 0 0 0 57.432 3.375 L 57.432 6.75 L 56.619 6.75 L 56.619 1.995 L 57.41 1.995 L 57.423 2.544 Q 57.804 1.938 58.486 1.909 A 1.636 1.636 0 0 1 58.557 1.907 Q 58.795 1.907 58.918 1.969 Z M 70.062 1.969 L 70.062 2.725 A 2.251 2.251 0 0 0 69.819 2.698 A 2.782 2.782 0 0 0 69.662 2.694 Q 68.884 2.694 68.593 3.338 A 1.445 1.445 0 0 0 68.577 3.375 L 68.577 6.75 L 67.764 6.75 L 67.764 1.995 L 68.555 1.995 L 68.568 2.544 Q 68.948 1.938 69.631 1.909 A 1.636 1.636 0 0 1 69.702 1.907 Q 69.939 1.907 70.062 1.969 Z M 119.307 1.969 L 119.307 2.725 A 2.251 2.251 0 0 0 119.065 2.698 A 2.782 2.782 0 0 0 118.907 2.694 Q 118.13 2.694 117.838 3.338 A 1.445 1.445 0 0 0 117.822 3.375 L 117.822 6.75 L 117.009 6.75 L 117.009 1.995 L 117.8 1.995 L 117.813 2.544 Q 118.194 1.938 118.876 1.909 A 1.636 1.636 0 0 1 118.947 1.907 Q 119.184 1.907 119.307 1.969 Z M 108.167 1.046 L 107.183 1.046 L 107.183 6.06 L 108.07 6.06 A 2.519 2.519 0 0 0 108.703 5.985 A 1.747 1.747 0 0 0 109.589 5.454 Q 110.048 4.94 110.119 4.059 A 4.165 4.165 0 0 0 110.131 3.727 L 110.131 3.353 Q 110.131 2.562 109.862 2.027 A 1.864 1.864 0 0 0 109.62 1.659 A 1.687 1.687 0 0 0 108.624 1.09 A 2.499 2.499 0 0 0 108.167 1.046 Z M 18.738 1.995 L 18.738 6.75 L 17.925 6.75 L 17.925 1.995 L 18.738 1.995 Z M 50.55 1.995 L 50.55 6.75 L 49.737 6.75 L 49.737 1.995 L 50.55 1.995 Z M 81.277 1.995 L 81.277 6.75 L 80.464 6.75 L 80.464 1.995 L 81.277 1.995 Z M 96.311 1.639 L 94.417 4.601 L 96.407 4.601 L 96.407 1.463 L 96.311 1.639 Z M 64.213 1.393 L 63.128 4.386 L 65.303 4.386 L 64.213 1.393 Z M 102.063 5.005 A 1.375 1.375 0 0 0 102.004 4.592 A 1.109 1.109 0 0 0 101.723 4.131 A 1.148 1.148 0 0 0 101.051 3.807 A 1.593 1.593 0 0 0 100.833 3.792 A 1.466 1.466 0 0 0 100.444 3.841 A 1.086 1.086 0 0 0 99.952 4.126 A 1.123 1.123 0 0 0 99.638 4.762 A 1.572 1.572 0 0 0 99.62 5.005 A 1.48 1.48 0 0 0 99.661 5.367 A 1.019 1.019 0 0 0 99.943 5.862 Q 100.249 6.158 100.782 6.173 A 2.053 2.053 0 0 0 100.841 6.174 Q 101.335 6.174 101.645 5.94 A 1.018 1.018 0 0 0 101.738 5.86 A 1.041 1.041 0 0 0 102.037 5.292 A 1.518 1.518 0 0 0 102.063 5.005 Z M 100.841 0.932 A 1.259 1.259 0 0 0 100.489 0.979 A 0.973 0.973 0 0 0 100.066 1.228 Q 99.769 1.525 99.769 2.035 A 1.325 1.325 0 0 0 99.814 2.387 A 0.994 0.994 0 0 0 100.061 2.823 A 0.974 0.974 0 0 0 100.624 3.108 A 1.382 1.382 0 0 0 100.841 3.125 A 1.279 1.279 0 0 0 101.186 3.08 A 0.952 0.952 0 0 0 101.621 2.823 A 1.018 1.018 0 0 0 101.897 2.26 A 1.426 1.426 0 0 0 101.914 2.035 A 1.282 1.282 0 0 0 101.864 1.668 A 1.013 1.013 0 0 0 101.61 1.239 Q 101.307 0.932 100.841 0.932 Z M 42.869 5.418 L 42.869 4.443 L 42.232 4.443 Q 40.737 4.443 40.737 5.317 Q 40.737 5.7 40.992 5.915 A 0.893 0.893 0 0 0 41.406 6.108 A 1.259 1.259 0 0 0 41.647 6.13 A 1.429 1.429 0 0 0 42.372 5.933 A 1.335 1.335 0 0 0 42.668 5.705 A 1.108 1.108 0 0 0 42.869 5.418 Z M 114.922 5.418 L 114.922 4.443 L 114.284 4.443 Q 112.79 4.443 112.79 5.317 Q 112.79 5.7 113.045 5.915 A 0.893 0.893 0 0 0 113.459 6.108 A 1.259 1.259 0 0 0 113.7 6.13 A 1.429 1.429 0 0 0 114.425 5.933 A 1.335 1.335 0 0 0 114.72 5.705 A 1.108 1.108 0 0 0 114.922 5.418 Z M 6.236 3.938 L 8.618 3.938 L 8.618 3.876 Q 8.592 3.417 8.421 3.111 A 1.13 1.13 0 0 0 8.284 2.916 A 0.983 0.983 0 0 0 7.629 2.584 A 1.39 1.39 0 0 0 7.475 2.575 A 1.106 1.106 0 0 0 6.953 2.698 A 1.14 1.14 0 0 0 6.649 2.933 A 1.417 1.417 0 0 0 6.372 3.379 Q 6.299 3.563 6.259 3.785 A 2.741 2.741 0 0 0 6.236 3.938 Z M 25.383 3.938 L 27.765 3.938 L 27.765 3.876 Q 27.739 3.417 27.568 3.111 A 1.13 1.13 0 0 0 27.431 2.916 A 0.983 0.983 0 0 0 26.776 2.584 A 1.39 1.39 0 0 0 26.622 2.575 A 1.106 1.106 0 0 0 26.1 2.698 A 1.14 1.14 0 0 0 25.796 2.933 A 1.417 1.417 0 0 0 25.519 3.379 Q 25.446 3.563 25.406 3.785 A 2.741 2.741 0 0 0 25.383 3.938 Z M 52.484 3.938 L 54.866 3.938 L 54.866 3.876 Q 54.84 3.417 54.669 3.111 A 1.13 1.13 0 0 0 54.532 2.916 A 0.983 0.983 0 0 0 53.877 2.584 A 1.39 1.39 0 0 0 53.723 2.575 A 1.106 1.106 0 0 0 53.201 2.698 A 1.14 1.14 0 0 0 52.897 2.933 A 1.417 1.417 0 0 0 52.62 3.379 Q 52.547 3.563 52.507 3.785 A 2.741 2.741 0 0 0 52.484 3.938 Z M 87.513 3.938 L 89.895 3.938 L 89.895 3.876 Q 89.869 3.417 89.698 3.111 A 1.13 1.13 0 0 0 89.561 2.916 A 0.983 0.983 0 0 0 88.906 2.584 A 1.39 1.39 0 0 0 88.752 2.575 A 1.106 1.106 0 0 0 88.23 2.698 A 1.14 1.14 0 0 0 87.926 2.933 A 1.417 1.417 0 0 0 87.649 3.379 Q 87.576 3.563 87.536 3.785 A 2.741 2.741 0 0 0 87.513 3.938 Z M 17.86 0.734 Q 17.86 0.536 17.98 0.4 Q 18.092 0.274 18.304 0.264 A 0.783 0.783 0 0 1 18.339 0.264 Q 18.576 0.264 18.699 0.4 A 0.474 0.474 0 0 1 18.821 0.703 A 0.614 0.614 0 0 1 18.822 0.734 A 0.523 0.523 0 0 1 18.797 0.9 A 0.442 0.442 0 0 1 18.699 1.063 Q 18.586 1.184 18.378 1.194 A 0.803 0.803 0 0 1 18.339 1.195 Q 18.166 1.195 18.055 1.126 A 0.362 0.362 0 0 1 17.98 1.063 A 0.456 0.456 0 0 1 17.862 0.788 A 0.605 0.605 0 0 1 17.86 0.734 Z M 49.672 0.734 Q 49.672 0.536 49.792 0.4 Q 49.904 0.274 50.116 0.264 A 0.783 0.783 0 0 1 50.151 0.264 Q 50.388 0.264 50.511 0.4 A 0.474 0.474 0 0 1 50.633 0.703 A 0.614 0.614 0 0 1 50.634 0.734 A 0.523 0.523 0 0 1 50.609 0.9 A 0.442 0.442 0 0 1 50.511 1.063 Q 50.398 1.184 50.19 1.194 A 0.803 0.803 0 0 1 50.151 1.195 Q 49.978 1.195 49.867 1.126 A 0.362 0.362 0 0 1 49.792 1.063 A 0.456 0.456 0 0 1 49.674 0.788 A 0.605 0.605 0 0 1 49.672 0.734 Z M 80.398 0.734 Q 80.398 0.536 80.519 0.4 Q 80.631 0.274 80.843 0.264 A 0.783 0.783 0 0 1 80.877 0.264 Q 81.114 0.264 81.237 0.4 A 0.474 0.474 0 0 1 81.36 0.703 A 0.614 0.614 0 0 1 81.36 0.734 A 0.523 0.523 0 0 1 81.335 0.9 A 0.442 0.442 0 0 1 81.237 1.063 Q 81.125 1.184 80.917 1.194 A 0.803 0.803 0 0 1 80.877 1.195 Q 80.705 1.195 80.594 1.126 A 0.362 0.362 0 0 1 80.519 1.063 A 0.456 0.456 0 0 1 80.4 0.788 A 0.605 0.605 0 0 1 80.398 0.734 Z" vector-effect="non-scaling-stroke"/></g>
</svgversion="1.0" encoding="UTF-8"?>
<svg width="48px" height="48px" viewBox="0 0 48 48" version="1.1" xmlns="http://www.w3.org/2000/svg" xmlns:xlink="http://www.w3.org/1999/xlink">
    <title>Icon-Resource/Storage/Res_Amazon-S3-Glacier_Archive_48_Dark</title>
    <g id="Icon-Resource/Storage/Res_Amazon-S3-Glacier_Archive_48" stroke="none" stroke-width="1" fill="none" fill-rule="evenodd">
        <path transform="translate(0vw, 0vh), scale(.65)" d="M23.7007,25.3115 C25.2437,25.3115 26.4987,26.5665 26.4987,28.1095 C26.4987,29.6525 25.2437,30.9075 23.7007,30.9075 C22.1577,30.9075 20.9027,29.6525 20.9027,28.1095 C20.9027,26.5665 22.1577,25.3115 23.7007,25.3115 L23.7007,25.3115 Z M18.9027,28.1095 C18.9027,30.4225 20.5487,32.3585 22.7307,32.8085 L22.7307,39.8495 L24.7307,39.8495 L24.7307,32.7895 C26.8817,32.3155 28.4987,30.4005 28.4987,28.1095 C28.4987,27.5365 28.3807,26.9945 28.1947,26.4835 L34.7287,22.7085 L33.7287,20.9765 L27.1427,24.7815 C26.2697,23.8785 25.0527,23.3115 23.7007,23.3115 C22.3477,23.3115 21.1307,23.8775 20.2577,24.7815 L13.6727,20.9765 L12.6727,22.7085 L19.2057,26.4835 C19.0197,26.9935 18.9027,27.5365 18.9027,28.1095 L18.9027,28.1095 Z M31.9267,25.6205 C32.1727,26.4195 32.2977,27.2575 32.2977,28.1095 C32.2977,32.0315 29.6457,35.4535 25.8487,36.4305 L25.3507,34.4935 C28.2627,33.7445 30.2977,31.1185 30.2977,28.1095 C30.2977,27.4575 30.2027,26.8185 30.0137,26.2075 L31.9267,25.6205 Z M22.0517,34.4935 L21.5537,36.4305 C17.7567,35.4535 15.1047,32.0315 15.1047,28.1095 C15.1047,27.2555 15.2297,26.4175 15.4747,25.6205 L17.3877,26.2075 C17.1997,26.8155 17.1047,27.4555 17.1047,28.1095 C17.1047,31.1185 19.1387,33.7445 22.0517,34.4935 L22.0517,34.4935 Z M19.0977,23.3845 L17.6997,21.9555 C19.3097,20.3795 21.4417,19.5125 23.7007,19.5125 C25.9597,19.5125 28.0907,20.3795 29.7027,21.9555 L28.3047,23.3845 C27.0687,22.1775 25.4337,21.5125 23.7007,21.5125 C21.9677,21.5125 20.3327,22.1775 19.0977,23.3845 L19.0977,23.3845 Z M13.4377,3.9995 L33.9647,3.9995 L38.3977,9.8965 L9.0037,9.8965 L13.4377,3.9995 Z M7.0007,11.8965 L40.4007,11.8965 C40.7797,11.8965 41.1267,11.6825 41.2957,11.3425 C41.4657,11.0035 41.4287,10.5985 41.1997,10.2955 L35.2627,2.3995 C35.0737,2.1475 34.7777,1.9995 34.4637,1.9995 L12.9387,1.9995 C12.6247,1.9995 12.3287,2.1475 12.1397,2.3995 L6.2017,10.2955 C5.9727,10.5985 5.9357,11.0035 6.1057,11.3425 C6.2747,11.6825 6.6217,11.8965 7.0007,11.8965 L7.0007,11.8965 Z M8.0607,44.1135 L39.4007,44.1135 L39.4007,15.4055 L8.0607,15.4055 L8.0607,44.1135 Z M40.4007,13.4055 L7.0607,13.4055 C6.5087,13.4055 6.0607,13.8525 6.0607,14.4055 L6.0607,45.1135 C6.0607,45.6655 6.5087,46.1135 7.0607,46.1135 L40.4007,46.1135 C40.9537,46.1135 41.4007,45.6655 41.4007,45.1135 L41.4007,14.4055 C41.4007,13.8525 40.9537,13.4055 40.4007,13.4055 L40.4007,13.4055 Z" id="AWS-Amazon-S3-Glacier_Archive_Resource-Icon_dark-bg" fill="#000000"></path>
    </g><g transform="translate(12vw, 80vh)" id="svgGroup" stroke-linecap="round" fill-rule="evenodd" font-size="9pt" stroke="#000" stroke-width="0.25mm" fill="#000" style="stroke:#000;stroke-width:0.25mm;fill:#000"><path d="M 7.783 1.995 L 8.552 1.995 L 8.574 2.522 Q 9.097 1.907 9.985 1.907 A 2.009 2.009 0 0 1 10.495 1.968 A 1.244 1.244 0 0 1 11.342 2.672 A 1.801 1.801 0 0 1 11.96 2.118 A 1.65 1.65 0 0 1 12.489 1.937 A 2.209 2.209 0 0 1 12.859 1.907 A 2.119 2.119 0 0 1 13.503 1.997 Q 14.429 2.292 14.449 3.564 L 14.449 6.75 L 13.636 6.75 L 13.636 3.612 A 1.781 1.781 0 0 0 13.616 3.332 Q 13.592 3.185 13.542 3.067 A 0.758 0.758 0 0 0 13.403 2.85 A 0.68 0.68 0 0 0 13.151 2.682 Q 12.939 2.597 12.622 2.597 A 1.245 1.245 0 0 0 12.256 2.648 A 1.008 1.008 0 0 0 11.87 2.867 A 1.042 1.042 0 0 0 11.556 3.404 A 1.41 1.41 0 0 0 11.523 3.595 L 11.523 6.75 L 10.705 6.75 L 10.705 3.634 A 1.532 1.532 0 0 0 10.657 3.23 Q 10.53 2.768 10.073 2.643 A 1.457 1.457 0 0 0 9.69 2.597 Q 8.916 2.597 8.616 3.234 A 1.459 1.459 0 0 0 8.596 3.278 L 8.596 6.75 L 7.783 6.75 L 7.783 1.995 Z M 4.636 2.202 L 3.788 2.202 A 1.466 1.466 0 0 0 3.738 1.809 A 1.066 1.066 0 0 0 3.419 1.29 A 1.211 1.211 0 0 0 2.95 1.033 Q 2.698 0.958 2.378 0.958 A 2.286 2.286 0 0 0 1.998 0.988 Q 1.796 1.022 1.633 1.095 A 1.101 1.101 0 0 0 1.404 1.233 A 0.892 0.892 0 0 0 1.059 1.887 A 1.267 1.267 0 0 0 1.055 1.995 A 0.806 0.806 0 0 0 1.323 2.6 A 1.134 1.134 0 0 0 1.387 2.656 A 1.562 1.562 0 0 0 1.625 2.813 Q 1.955 2.993 2.516 3.151 A 8.228 8.228 0 0 1 2.981 3.295 Q 3.216 3.377 3.41 3.464 A 3.297 3.297 0 0 1 3.764 3.645 A 2.342 2.342 0 0 1 4.103 3.889 Q 4.293 4.056 4.415 4.248 A 1.45 1.45 0 0 1 4.432 4.276 A 1.498 1.498 0 0 1 4.628 4.832 A 1.948 1.948 0 0 1 4.65 5.124 A 1.606 1.606 0 0 1 4.527 5.76 Q 4.382 6.101 4.064 6.354 A 1.886 1.886 0 0 1 4.043 6.37 Q 3.437 6.838 2.422 6.838 A 3.023 3.023 0 0 1 1.281 6.623 A 2.917 2.917 0 0 1 1.191 6.585 A 2.383 2.383 0 0 1 0.713 6.307 A 1.874 1.874 0 0 1 0.31 5.893 A 1.689 1.689 0 0 1 0 4.896 L 0.848 4.896 A 1.261 1.261 0 0 0 0.918 5.323 A 1.074 1.074 0 0 0 1.277 5.812 Q 1.661 6.113 2.278 6.144 A 2.87 2.87 0 0 0 2.422 6.148 A 2.628 2.628 0 0 0 2.809 6.121 Q 3.005 6.092 3.164 6.031 A 1.129 1.129 0 0 0 3.445 5.875 Q 3.801 5.603 3.801 5.133 A 1.074 1.074 0 0 0 3.759 4.822 A 0.816 0.816 0 0 0 3.472 4.406 Q 3.142 4.148 2.277 3.898 Q 1.191 3.586 0.697 3.131 Q 0.202 2.676 0.202 2.008 Q 0.202 1.252 0.807 0.758 A 2.121 2.121 0 0 1 1.697 0.335 A 3.087 3.087 0 0 1 2.378 0.264 A 2.913 2.913 0 0 1 3.038 0.336 A 2.372 2.372 0 0 1 3.553 0.519 A 2.051 2.051 0 0 1 4.084 0.889 A 1.834 1.834 0 0 1 4.353 1.222 A 1.798 1.798 0 0 1 4.636 2.202 Z M 34.277 2.202 L 33.429 2.202 A 1.466 1.466 0 0 0 33.38 1.809 A 1.066 1.066 0 0 0 33.06 1.29 A 1.211 1.211 0 0 0 32.591 1.033 Q 32.339 0.958 32.019 0.958 A 2.286 2.286 0 0 0 31.639 0.988 Q 31.437 1.022 31.274 1.095 A 1.101 1.101 0 0 0 31.045 1.233 A 0.892 0.892 0 0 0 30.7 1.887 A 1.267 1.267 0 0 0 30.696 1.995 A 0.806 0.806 0 0 0 30.964 2.6 A 1.134 1.134 0 0 0 31.028 2.656 A 1.562 1.562 0 0 0 31.266 2.813 Q 31.596 2.993 32.157 3.151 A 8.228 8.228 0 0 1 32.622 3.295 Q 32.857 3.377 33.051 3.464 A 3.297 3.297 0 0 1 33.405 3.645 A 2.342 2.342 0 0 1 33.744 3.889 Q 33.934 4.056 34.056 4.248 A 1.45 1.45 0 0 1 34.073 4.276 A 1.498 1.498 0 0 1 34.269 4.832 A 1.948 1.948 0 0 1 34.291 5.124 A 1.606 1.606 0 0 1 34.168 5.76 Q 34.023 6.101 33.705 6.354 A 1.886 1.886 0 0 1 33.684 6.37 Q 33.078 6.838 32.063 6.838 A 3.023 3.023 0 0 1 30.922 6.623 A 2.917 2.917 0 0 1 30.832 6.585 A 2.383 2.383 0 0 1 30.354 6.307 A 1.874 1.874 0 0 1 29.951 5.893 A 1.689 1.689 0 0 1 29.641 4.896 L 30.489 4.896 A 1.261 1.261 0 0 0 30.559 5.323 A 1.074 1.074 0 0 0 30.918 5.812 Q 31.302 6.113 31.919 6.144 A 2.87 2.87 0 0 0 32.063 6.148 A 2.628 2.628 0 0 0 32.45 6.121 Q 32.646 6.092 32.805 6.031 A 1.129 1.129 0 0 0 33.087 5.875 Q 33.443 5.603 33.443 5.133 A 1.074 1.074 0 0 0 33.4 4.822 A 0.816 0.816 0 0 0 33.113 4.406 Q 32.783 4.148 31.918 3.898 Q 30.832 3.586 30.338 3.131 Q 29.843 2.676 29.843 2.008 Q 29.843 1.252 30.448 0.758 A 2.121 2.121 0 0 1 31.338 0.335 A 3.087 3.087 0 0 1 32.019 0.264 A 2.913 2.913 0 0 1 32.679 0.336 A 2.372 2.372 0 0 1 33.194 0.519 A 2.051 2.051 0 0 1 33.725 0.889 A 1.834 1.834 0 0 1 33.994 1.222 A 1.798 1.798 0 0 1 34.277 2.202 Z M 54.035 2.522 L 54.075 1.995 L 54.818 1.995 L 54.818 6.636 A 2.511 2.511 0 0 1 54.747 7.249 A 1.738 1.738 0 0 1 54.27 8.09 A 1.834 1.834 0 0 1 53.341 8.57 A 2.671 2.671 0 0 1 52.8 8.622 A 2.446 2.446 0 0 1 51.794 8.402 A 2.003 2.003 0 0 1 51.384 8.161 A 1.563 1.563 0 0 1 51.043 7.8 L 51.465 7.313 A 1.889 1.889 0 0 0 51.899 7.712 A 1.514 1.514 0 0 0 52.743 7.958 A 1.695 1.695 0 0 0 53.12 7.919 Q 53.389 7.858 53.583 7.702 A 1.037 1.037 0 0 0 53.668 7.625 A 1.09 1.09 0 0 0 53.945 7.132 Q 53.992 6.959 53.999 6.752 A 2.134 2.134 0 0 0 54 6.684 L 54 6.275 A 1.601 1.601 0 0 1 52.948 6.821 A 2.279 2.279 0 0 1 52.669 6.838 A 1.672 1.672 0 0 1 51.913 6.67 Q 51.591 6.51 51.342 6.197 A 2.14 2.14 0 0 1 51.317 6.166 A 2.316 2.316 0 0 1 50.934 5.386 Q 50.801 4.922 50.801 4.333 Q 50.801 3.472 51.109 2.884 A 2.096 2.096 0 0 1 51.315 2.564 Q 51.829 1.907 52.677 1.907 A 1.971 1.971 0 0 1 53.276 1.994 A 1.55 1.55 0 0 1 54.035 2.522 Z M 49.887 6.75 L 49.034 6.75 A 0.632 0.632 0 0 1 48.999 6.66 Q 48.968 6.562 48.943 6.41 A 3.997 3.997 0 0 1 48.92 6.249 Q 48.353 6.838 47.567 6.838 A 2.033 2.033 0 0 1 47.037 6.772 A 1.529 1.529 0 0 1 46.413 6.44 Q 45.963 6.042 45.963 5.432 Q 45.963 4.689 46.527 4.278 Q 47.092 3.867 48.116 3.867 L 48.907 3.867 L 48.907 3.494 A 1.152 1.152 0 0 0 48.871 3.199 A 0.828 0.828 0 0 0 48.652 2.815 Q 48.436 2.6 48.045 2.568 A 1.748 1.748 0 0 0 47.901 2.562 Q 47.465 2.562 47.171 2.782 Q 46.877 3.001 46.877 3.313 L 46.059 3.313 A 1.041 1.041 0 0 1 46.184 2.825 A 1.409 1.409 0 0 1 46.312 2.626 Q 46.565 2.294 46.997 2.101 A 2.249 2.249 0 0 1 47.773 1.913 A 2.669 2.669 0 0 1 47.949 1.907 A 2.65 2.65 0 0 1 48.466 1.955 Q 48.774 2.016 49.012 2.156 A 1.439 1.439 0 0 1 49.236 2.318 A 1.396 1.396 0 0 1 49.69 3.144 A 1.998 1.998 0 0 1 49.72 3.45 L 49.72 5.638 Q 49.72 6.073 49.794 6.39 A 1.707 1.707 0 0 0 49.887 6.68 L 49.887 6.75 Z M 19.692 4.351 L 19.692 4.425 Q 19.692 5.511 19.195 6.174 A 1.57 1.57 0 0 1 18.057 6.828 A 2.013 2.013 0 0 1 17.851 6.838 A 2.196 2.196 0 0 1 17.265 6.764 A 1.598 1.598 0 0 1 16.488 6.289 L 16.488 8.578 L 15.675 8.578 L 15.675 1.995 L 16.418 1.995 L 16.458 2.522 A 1.619 1.619 0 0 1 17.597 1.919 A 2.319 2.319 0 0 1 17.838 1.907 A 1.829 1.829 0 0 1 18.475 2.014 A 1.597 1.597 0 0 1 19.193 2.553 Q 19.692 3.199 19.692 4.351 Z M 22.702 4.504 L 22.702 4.355 A 3.17 3.17 0 0 1 22.779 3.646 A 2.581 2.581 0 0 1 22.973 3.092 A 2.191 2.191 0 0 1 23.42 2.466 A 2.033 2.033 0 0 1 23.728 2.221 Q 24.214 1.907 24.781 1.907 A 2.254 2.254 0 0 1 25.394 1.986 A 1.639 1.639 0 0 1 26.222 2.518 Q 26.736 3.129 26.736 4.267 L 26.736 4.605 L 23.515 4.605 A 2.111 2.111 0 0 0 23.586 5.114 A 1.516 1.516 0 0 0 23.926 5.741 A 1.282 1.282 0 0 0 24.86 6.173 A 1.652 1.652 0 0 0 24.926 6.174 A 1.763 1.763 0 0 0 25.254 6.145 Q 25.478 6.103 25.655 5.999 A 1.827 1.827 0 0 0 26.164 5.551 A 2.068 2.068 0 0 0 26.178 5.533 L 26.675 5.919 A 1.926 1.926 0 0 1 25.275 6.811 A 2.749 2.749 0 0 1 24.882 6.838 A 2.394 2.394 0 0 1 24.131 6.725 A 1.974 1.974 0 0 1 23.309 6.203 Q 22.702 5.568 22.702 4.504 Z M 55.837 4.504 L 55.837 4.355 A 3.17 3.17 0 0 1 55.913 3.646 A 2.581 2.581 0 0 1 56.107 3.092 A 2.191 2.191 0 0 1 56.555 2.466 A 2.033 2.033 0 0 1 56.863 2.221 Q 57.349 1.907 57.916 1.907 A 2.254 2.254 0 0 1 58.529 1.986 A 1.639 1.639 0 0 1 59.357 2.518 Q 59.871 3.129 59.871 4.267 L 59.871 4.605 L 56.65 4.605 A 2.111 2.111 0 0 0 56.721 5.114 A 1.516 1.516 0 0 0 57.061 5.741 A 1.282 1.282 0 0 0 57.995 6.173 A 1.652 1.652 0 0 0 58.061 6.174 A 1.763 1.763 0 0 0 58.389 6.145 Q 58.613 6.103 58.79 5.999 A 1.827 1.827 0 0 0 59.299 5.551 A 2.068 2.068 0 0 0 59.313 5.533 L 59.81 5.919 A 1.926 1.926 0 0 1 58.41 6.811 A 2.749 2.749 0 0 1 58.017 6.838 A 2.394 2.394 0 0 1 57.266 6.725 A 1.974 1.974 0 0 1 56.444 6.203 Q 55.837 5.568 55.837 4.504 Z M 35.534 0.844 L 36.347 0.844 L 36.347 1.995 L 37.235 1.995 L 37.235 2.624 L 36.347 2.624 L 36.347 5.572 Q 36.347 5.858 36.466 6.001 Q 36.585 6.144 36.87 6.144 A 1.046 1.046 0 0 0 36.968 6.138 Q 37.071 6.129 37.21 6.101 A 4.024 4.024 0 0 0 37.257 6.091 L 37.257 6.75 A 2.463 2.463 0 0 1 36.824 6.829 A 2.157 2.157 0 0 1 36.633 6.838 Q 36.186 6.838 35.919 6.616 A 0.856 0.856 0 0 1 35.811 6.508 Q 35.584 6.238 35.543 5.78 A 2.351 2.351 0 0 1 35.534 5.572 L 35.534 2.624 L 34.669 2.624 L 34.669 1.995 L 35.534 1.995 L 35.534 0.844 Z M 21.608 0 L 21.608 6.75 L 20.795 6.75 L 20.795 0 L 21.608 0 Z M 37.881 4.386 L 37.881 4.329 A 3.057 3.057 0 0 1 37.968 3.587 A 2.573 2.573 0 0 1 38.156 3.072 A 2.16 2.16 0 0 1 38.57 2.486 A 1.957 1.957 0 0 1 38.92 2.21 A 2.036 2.036 0 0 1 39.865 1.913 A 2.491 2.491 0 0 1 40.039 1.907 A 2.277 2.277 0 0 1 40.792 2.027 A 1.937 1.937 0 0 1 41.61 2.58 A 2.29 2.29 0 0 1 42.129 3.608 A 3.373 3.373 0 0 1 42.21 4.368 L 42.21 4.425 A 3.114 3.114 0 0 1 42.13 5.142 A 2.577 2.577 0 0 1 41.944 5.671 A 2.056 2.056 0 0 1 41.416 6.361 A 2.001 2.001 0 0 1 41.183 6.53 A 2.045 2.045 0 0 1 40.264 6.829 A 2.529 2.529 0 0 1 40.048 6.838 A 2.262 2.262 0 0 1 39.297 6.718 A 1.938 1.938 0 0 1 38.481 6.166 A 2.297 2.297 0 0 1 37.955 5.111 A 3.357 3.357 0 0 1 37.881 4.386 Z M 45.527 1.969 L 45.527 2.725 A 2.251 2.251 0 0 0 45.285 2.698 A 2.782 2.782 0 0 0 45.128 2.694 Q 44.35 2.694 44.058 3.338 A 1.445 1.445 0 0 0 44.042 3.375 L 44.042 6.75 L 43.229 6.75 L 43.229 1.995 L 44.02 1.995 L 44.033 2.544 Q 44.414 1.938 45.096 1.909 A 1.636 1.636 0 0 1 45.167 1.907 Q 45.404 1.907 45.527 1.969 Z M 6.486 1.995 L 6.486 6.75 L 5.673 6.75 L 5.673 1.995 L 6.486 1.995 Z M 38.698 4.425 A 2.772 2.772 0 0 0 38.746 4.954 Q 38.806 5.264 38.944 5.51 A 1.545 1.545 0 0 0 39.065 5.695 Q 39.432 6.174 40.048 6.174 A 1.269 1.269 0 0 0 40.537 6.083 Q 40.816 5.967 41.019 5.706 A 1.471 1.471 0 0 0 41.032 5.689 A 1.648 1.648 0 0 0 41.287 5.171 Q 41.355 4.945 41.381 4.672 A 3.655 3.655 0 0 0 41.397 4.329 A 2.687 2.687 0 0 0 41.345 3.789 Q 41.278 3.459 41.12 3.2 A 1.586 1.586 0 0 0 41.025 3.061 A 1.231 1.231 0 0 0 40.61 2.705 Q 40.357 2.575 40.039 2.575 Q 39.449 2.575 39.083 3.035 A 1.515 1.515 0 0 0 39.068 3.054 A 1.589 1.589 0 0 0 38.815 3.552 Q 38.746 3.772 38.718 4.039 A 3.676 3.676 0 0 0 38.698 4.425 Z M 16.488 3.252 L 16.488 5.524 Q 16.853 6.174 17.605 6.174 A 1.184 1.184 0 0 0 18.07 6.086 Q 18.327 5.977 18.516 5.735 A 1.403 1.403 0 0 0 18.534 5.711 A 1.501 1.501 0 0 0 18.751 5.28 Q 18.819 5.073 18.851 4.818 A 3.91 3.91 0 0 0 18.879 4.333 Q 18.879 3.746 18.696 3.339 A 1.503 1.503 0 0 0 18.536 3.063 A 1.086 1.086 0 0 0 17.75 2.605 A 1.414 1.414 0 0 0 17.596 2.597 Q 16.935 2.597 16.57 3.121 A 1.623 1.623 0 0 0 16.488 3.252 Z M 54 5.449 L 54 3.278 A 1.439 1.439 0 0 0 53.699 2.891 Q 53.396 2.62 52.955 2.599 A 1.578 1.578 0 0 0 52.88 2.597 Q 52.288 2.597 51.954 3.056 A 1.51 1.51 0 0 0 51.743 3.484 Q 51.677 3.689 51.646 3.939 A 3.955 3.955 0 0 0 51.618 4.425 Q 51.618 5.229 51.948 5.689 Q 52.277 6.148 52.871 6.148 A 1.32 1.32 0 0 0 53.38 6.054 Q 53.772 5.891 54 5.449 Z M 48.907 5.418 L 48.907 4.443 L 48.27 4.443 Q 46.776 4.443 46.776 5.317 Q 46.776 5.7 47.03 5.915 A 0.893 0.893 0 0 0 47.444 6.108 A 1.259 1.259 0 0 0 47.685 6.13 A 1.429 1.429 0 0 0 48.41 5.933 A 1.335 1.335 0 0 0 48.706 5.705 A 1.108 1.108 0 0 0 48.907 5.418 Z M 23.542 3.938 L 25.923 3.938 L 25.923 3.876 Q 25.897 3.417 25.727 3.111 A 1.13 1.13 0 0 0 25.59 2.916 A 0.983 0.983 0 0 0 24.935 2.584 A 1.39 1.39 0 0 0 24.781 2.575 A 1.106 1.106 0 0 0 24.258 2.698 A 1.14 1.14 0 0 0 23.955 2.933 A 1.417 1.417 0 0 0 23.678 3.379 Q 23.604 3.563 23.565 3.785 A 2.741 2.741 0 0 0 23.542 3.938 Z M 56.676 3.938 L 59.058 3.938 L 59.058 3.876 Q 59.032 3.417 58.862 3.111 A 1.13 1.13 0 0 0 58.724 2.916 A 0.983 0.983 0 0 0 58.07 2.584 A 1.39 1.39 0 0 0 57.916 2.575 A 1.106 1.106 0 0 0 57.393 2.698 A 1.14 1.14 0 0 0 57.09 2.933 A 1.417 1.417 0 0 0 56.813 3.379 Q 56.739 3.563 56.699 3.785 A 2.741 2.741 0 0 0 56.676 3.938 Z M 5.608 0.734 Q 5.608 0.536 5.728 0.4 Q 5.84 0.274 6.052 0.264 A 0.783 0.783 0 0 1 6.087 0.264 Q 6.324 0.264 6.447 0.4 A 0.474 0.474 0 0 1 6.569 0.703 A 0.614 0.614 0 0 1 6.57 0.734 A 0.523 0.523 0 0 1 6.545 0.9 A 0.442 0.442 0 0 1 6.447 1.063 Q 6.334 1.184 6.126 1.194 A 0.803 0.803 0 0 1 6.087 1.195 Q 5.914 1.195 5.803 1.126 A 0.362 0.362 0 0 1 5.728 1.063 A 0.456 0.456 0 0 1 5.61 0.788 A 0.605 0.605 0 0 1 5.608 0.734 Z" vector-effect="non-scaling-stroke"/></g><g transform="translate(12vw, 90vh)" id="svgGroup" stroke-linecap="round" fill-rule="evenodd" font-size="9pt" stroke="#000" stroke-width="0.25mm" fill="#000" style="stroke:#000;stroke-width:0.25mm;fill:#000"><path d="M 36.598 3.564 L 36.598 5.911 A 1.895 1.895 0 0 1 35.874 6.525 A 2.364 2.364 0 0 1 35.69 6.607 A 3.162 3.162 0 0 1 35.018 6.787 Q 34.707 6.836 34.357 6.838 A 5.148 5.148 0 0 1 34.335 6.838 A 2.838 2.838 0 0 1 33.512 6.722 A 2.459 2.459 0 0 1 32.946 6.471 A 2.43 2.43 0 0 1 32.039 5.49 A 2.924 2.924 0 0 1 32.008 5.427 A 3.277 3.277 0 0 1 31.719 4.497 A 4.307 4.307 0 0 1 31.667 3.858 L 31.667 3.3 Q 31.667 1.854 32.342 1.059 A 2.198 2.198 0 0 1 33.695 0.307 A 3.227 3.227 0 0 1 34.238 0.264 Q 35.24 0.264 35.851 0.776 A 2.047 2.047 0 0 1 36.473 1.701 A 2.896 2.896 0 0 1 36.598 2.228 L 35.754 2.228 Q 35.547 1.12 34.551 0.979 A 2.195 2.195 0 0 0 34.242 0.958 A 1.917 1.917 0 0 0 33.708 1.028 A 1.386 1.386 0 0 0 32.957 1.553 A 1.986 1.986 0 0 0 32.673 2.125 Q 32.586 2.396 32.547 2.726 A 4.871 4.871 0 0 0 32.515 3.278 L 32.515 3.801 A 3.827 3.827 0 0 0 32.573 4.489 Q 32.684 5.096 33.007 5.513 A 1.569 1.569 0 0 0 34.147 6.139 A 2.069 2.069 0 0 0 34.339 6.148 Q 34.772 6.148 35.106 6.06 A 2.106 2.106 0 0 0 35.17 6.042 A 1.357 1.357 0 0 0 35.558 5.86 A 1.217 1.217 0 0 0 35.758 5.687 L 35.758 4.25 L 34.277 4.25 L 34.277 3.564 L 36.598 3.564 Z M 4.636 2.202 L 3.788 2.202 A 1.466 1.466 0 0 0 3.738 1.809 A 1.066 1.066 0 0 0 3.419 1.29 A 1.211 1.211 0 0 0 2.95 1.033 Q 2.698 0.958 2.378 0.958 A 2.286 2.286 0 0 0 1.998 0.988 Q 1.796 1.022 1.633 1.095 A 1.101 1.101 0 0 0 1.404 1.233 A 0.892 0.892 0 0 0 1.059 1.887 A 1.267 1.267 0 0 0 1.055 1.995 A 0.806 0.806 0 0 0 1.323 2.6 A 1.134 1.134 0 0 0 1.387 2.656 A 1.562 1.562 0 0 0 1.625 2.813 Q 1.955 2.993 2.516 3.151 A 8.228 8.228 0 0 1 2.981 3.295 Q 3.216 3.377 3.41 3.464 A 3.297 3.297 0 0 1 3.764 3.645 A 2.342 2.342 0 0 1 4.103 3.889 Q 4.293 4.056 4.415 4.248 A 1.45 1.45 0 0 1 4.432 4.276 A 1.498 1.498 0 0 1 4.628 4.832 A 1.948 1.948 0 0 1 4.65 5.124 A 1.606 1.606 0 0 1 4.527 5.76 Q 4.382 6.101 4.064 6.354 A 1.886 1.886 0 0 1 4.043 6.37 Q 3.437 6.838 2.422 6.838 A 3.023 3.023 0 0 1 1.281 6.623 A 2.917 2.917 0 0 1 1.191 6.585 A 2.383 2.383 0 0 1 0.713 6.307 A 1.874 1.874 0 0 1 0.31 5.893 A 1.689 1.689 0 0 1 0 4.896 L 0.848 4.896 A 1.261 1.261 0 0 0 0.918 5.323 A 1.074 1.074 0 0 0 1.277 5.812 Q 1.661 6.113 2.278 6.144 A 2.87 2.87 0 0 0 2.422 6.148 A 2.628 2.628 0 0 0 2.809 6.121 Q 3.005 6.092 3.164 6.031 A 1.129 1.129 0 0 0 3.445 5.875 Q 3.801 5.603 3.801 5.133 A 1.074 1.074 0 0 0 3.759 4.822 A 0.816 0.816 0 0 0 3.472 4.406 Q 3.142 4.148 2.277 3.898 Q 1.191 3.586 0.697 3.131 Q 0.202 2.676 0.202 2.008 Q 0.202 1.252 0.807 0.758 A 2.121 2.121 0 0 1 1.697 0.335 A 3.087 3.087 0 0 1 2.378 0.264 A 2.913 2.913 0 0 1 3.038 0.336 A 2.372 2.372 0 0 1 3.553 0.519 A 2.051 2.051 0 0 1 4.084 0.889 A 1.834 1.834 0 0 1 4.353 1.222 A 1.798 1.798 0 0 1 4.636 2.202 Z M 76.25 0 L 76.25 2.571 A 1.767 1.767 0 0 1 76.916 2.053 A 1.832 1.832 0 0 1 77.656 1.907 A 1.905 1.905 0 0 1 78.289 2.004 Q 79.131 2.3 79.174 3.506 A 3.668 3.668 0 0 1 79.176 3.608 L 79.176 6.75 L 78.363 6.75 L 78.363 3.604 A 1.837 1.837 0 0 0 78.341 3.324 Q 78.291 3.017 78.128 2.843 Q 77.942 2.645 77.589 2.606 A 1.66 1.66 0 0 0 77.41 2.597 A 1.253 1.253 0 0 0 76.995 2.664 A 1.123 1.123 0 0 0 76.715 2.808 A 1.432 1.432 0 0 0 76.25 3.362 L 76.25 6.75 L 75.437 6.75 L 75.437 0 L 76.25 0 Z M 123.038 6.75 L 121.381 4.548 L 120.872 5.08 L 120.872 6.75 L 120.059 6.75 L 120.059 0 L 120.872 0 L 120.872 4.083 L 121.307 3.56 L 122.788 1.995 L 123.777 1.995 L 121.926 3.981 L 123.992 6.75 L 123.038 6.75 Z M 23.067 5.251 L 23.836 5.251 A 1.432 1.432 0 0 1 23.637 5.901 A 1.772 1.772 0 0 1 23.555 6.029 A 1.828 1.828 0 0 1 22.946 6.574 A 2.169 2.169 0 0 1 22.863 6.618 A 1.997 1.997 0 0 1 21.946 6.838 A 2.346 2.346 0 0 1 21.249 6.739 A 1.839 1.839 0 0 1 20.402 6.19 A 2.171 2.171 0 0 1 19.938 5.31 Q 19.828 4.909 19.828 4.417 L 19.828 4.28 A 3.24 3.24 0 0 1 19.892 3.624 A 2.57 2.57 0 0 1 20.083 3.045 A 2.008 2.008 0 0 1 20.523 2.431 A 1.892 1.892 0 0 1 20.815 2.206 A 1.943 1.943 0 0 1 21.571 1.934 A 2.529 2.529 0 0 1 21.942 1.907 A 2.196 2.196 0 0 1 22.59 1.999 A 1.786 1.786 0 0 1 23.271 2.386 A 1.693 1.693 0 0 1 23.83 3.535 A 2.239 2.239 0 0 1 23.836 3.63 L 23.067 3.63 Q 23.032 3.168 22.718 2.872 A 1.078 1.078 0 0 0 21.989 2.576 A 1.402 1.402 0 0 0 21.942 2.575 A 1.374 1.374 0 0 0 21.521 2.637 A 1.081 1.081 0 0 0 20.982 3.021 A 1.469 1.469 0 0 0 20.755 3.468 Q 20.689 3.674 20.662 3.923 A 3.514 3.514 0 0 0 20.641 4.311 L 20.641 4.465 Q 20.641 5.287 20.98 5.73 A 1.1 1.1 0 0 0 21.766 6.165 A 1.611 1.611 0 0 0 21.946 6.174 A 1.171 1.171 0 0 0 22.707 5.911 A 1.007 1.007 0 0 0 22.951 5.629 A 0.914 0.914 0 0 0 23.067 5.251 Z M 47.984 5.251 L 48.753 5.251 A 1.432 1.432 0 0 1 48.554 5.901 A 1.772 1.772 0 0 1 48.472 6.029 A 1.828 1.828 0 0 1 47.863 6.574 A 2.169 2.169 0 0 1 47.78 6.618 A 1.997 1.997 0 0 1 46.863 6.838 A 2.346 2.346 0 0 1 46.166 6.739 A 1.839 1.839 0 0 1 45.319 6.19 A 2.171 2.171 0 0 1 44.855 5.31 Q 44.745 4.909 44.745 4.417 L 44.745 4.28 A 3.24 3.24 0 0 1 44.809 3.624 A 2.57 2.57 0 0 1 45 3.045 A 2.008 2.008 0 0 1 45.44 2.431 A 1.892 1.892 0 0 1 45.732 2.206 A 1.943 1.943 0 0 1 46.488 1.934 A 2.529 2.529 0 0 1 46.859 1.907 A 2.196 2.196 0 0 1 47.507 1.999 A 1.786 1.786 0 0 1 48.188 2.386 A 1.693 1.693 0 0 1 48.747 3.535 A 2.239 2.239 0 0 1 48.753 3.63 L 47.984 3.63 Q 47.949 3.168 47.635 2.872 A 1.078 1.078 0 0 0 46.906 2.576 A 1.402 1.402 0 0 0 46.859 2.575 A 1.374 1.374 0 0 0 46.438 2.637 A 1.081 1.081 0 0 0 45.899 3.021 A 1.469 1.469 0 0 0 45.672 3.468 Q 45.606 3.674 45.579 3.923 A 3.514 3.514 0 0 0 45.558 4.311 L 45.558 4.465 Q 45.558 5.287 45.897 5.73 A 1.1 1.1 0 0 0 46.683 6.165 A 1.611 1.611 0 0 0 46.863 6.174 A 1.171 1.171 0 0 0 47.624 5.911 A 1.007 1.007 0 0 0 47.868 5.629 A 0.914 0.914 0 0 0 47.984 5.251 Z M 73.754 5.251 L 74.523 5.251 A 1.432 1.432 0 0 1 74.323 5.901 A 1.772 1.772 0 0 1 74.241 6.029 A 1.828 1.828 0 0 1 73.632 6.574 A 2.169 2.169 0 0 1 73.549 6.618 A 1.997 1.997 0 0 1 72.633 6.838 A 2.346 2.346 0 0 1 71.936 6.739 A 1.839 1.839 0 0 1 71.088 6.19 A 2.171 2.171 0 0 1 70.625 5.31 Q 70.515 4.909 70.515 4.417 L 70.515 4.28 A 3.24 3.24 0 0 1 70.579 3.624 A 2.57 2.57 0 0 1 70.77 3.045 A 2.008 2.008 0 0 1 71.209 2.431 A 1.892 1.892 0 0 1 71.501 2.206 A 1.943 1.943 0 0 1 72.258 1.934 A 2.529 2.529 0 0 1 72.629 1.907 A 2.196 2.196 0 0 1 73.277 1.999 A 1.786 1.786 0 0 1 73.958 2.386 A 1.693 1.693 0 0 1 74.516 3.535 A 2.239 2.239 0 0 1 74.523 3.63 L 73.754 3.63 Q 73.718 3.168 73.404 2.872 A 1.078 1.078 0 0 0 72.675 2.576 A 1.402 1.402 0 0 0 72.629 2.575 A 1.374 1.374 0 0 0 72.207 2.637 A 1.081 1.081 0 0 0 71.668 3.021 A 1.469 1.469 0 0 0 71.442 3.468 Q 71.376 3.674 71.348 3.923 A 3.514 3.514 0 0 0 71.328 4.311 L 71.328 4.465 Q 71.328 5.287 71.666 5.73 A 1.1 1.1 0 0 0 72.453 6.165 A 1.611 1.611 0 0 0 72.633 6.174 A 1.171 1.171 0 0 0 73.393 5.911 A 1.007 1.007 0 0 0 73.637 5.629 A 0.914 0.914 0 0 0 73.754 5.251 Z M 66.164 6.75 L 65.553 5.08 L 62.873 5.08 L 62.271 6.75 L 61.401 6.75 L 63.844 0.352 L 64.582 0.352 L 67.03 6.75 L 66.164 6.75 Z M 43.849 6.75 L 42.996 6.75 A 0.632 0.632 0 0 1 42.961 6.66 Q 42.93 6.562 42.905 6.41 A 3.997 3.997 0 0 1 42.882 6.249 Q 42.315 6.838 41.528 6.838 A 2.033 2.033 0 0 1 40.999 6.772 A 1.529 1.529 0 0 1 40.375 6.44 Q 39.924 6.042 39.924 5.432 Q 39.924 4.689 40.489 4.278 Q 41.054 3.867 42.078 3.867 L 42.869 3.867 L 42.869 3.494 A 1.152 1.152 0 0 0 42.833 3.199 A 0.828 0.828 0 0 0 42.614 2.815 Q 42.398 2.6 42.007 2.568 A 1.748 1.748 0 0 0 41.862 2.562 Q 41.427 2.562 41.133 2.782 Q 40.839 3.001 40.839 3.313 L 40.021 3.313 A 1.041 1.041 0 0 1 40.146 2.825 A 1.409 1.409 0 0 1 40.274 2.626 Q 40.527 2.294 40.959 2.101 A 2.249 2.249 0 0 1 41.735 1.913 A 2.669 2.669 0 0 1 41.911 1.907 A 2.65 2.65 0 0 1 42.428 1.955 Q 42.735 2.016 42.974 2.156 A 1.439 1.439 0 0 1 43.198 2.318 A 1.396 1.396 0 0 1 43.652 3.144 A 1.998 1.998 0 0 1 43.682 3.45 L 43.682 5.638 Q 43.682 6.073 43.755 6.39 A 1.707 1.707 0 0 0 43.849 6.68 L 43.849 6.75 Z M 115.902 6.75 L 115.049 6.75 A 0.632 0.632 0 0 1 115.013 6.66 Q 114.982 6.562 114.957 6.41 A 3.997 3.997 0 0 1 114.935 6.249 Q 114.368 6.838 113.581 6.838 A 2.033 2.033 0 0 1 113.052 6.772 A 1.529 1.529 0 0 1 112.428 6.44 Q 111.977 6.042 111.977 5.432 Q 111.977 4.689 112.542 4.278 Q 113.107 3.867 114.131 3.867 L 114.922 3.867 L 114.922 3.494 A 1.152 1.152 0 0 0 114.886 3.199 A 0.828 0.828 0 0 0 114.667 2.815 Q 114.45 2.6 114.06 2.568 A 1.748 1.748 0 0 0 113.915 2.562 Q 113.48 2.562 113.186 2.782 Q 112.891 3.001 112.891 3.313 L 112.074 3.313 A 1.041 1.041 0 0 1 112.199 2.825 A 1.409 1.409 0 0 1 112.327 2.626 Q 112.579 2.294 113.012 2.101 A 2.249 2.249 0 0 1 113.788 1.913 A 2.669 2.669 0 0 1 113.964 1.907 A 2.65 2.65 0 0 1 114.481 1.955 Q 114.788 2.016 115.027 2.156 A 1.439 1.439 0 0 1 115.251 2.318 A 1.396 1.396 0 0 1 115.704 3.144 A 1.998 1.998 0 0 1 115.735 3.45 L 115.735 5.638 Q 115.735 6.073 115.808 6.39 A 1.707 1.707 0 0 0 115.902 6.68 L 115.902 6.75 Z M 5.397 4.504 L 5.397 4.355 A 3.17 3.17 0 0 1 5.473 3.646 A 2.581 2.581 0 0 1 5.667 3.092 A 2.191 2.191 0 0 1 6.114 2.466 A 2.033 2.033 0 0 1 6.423 2.221 Q 6.908 1.907 7.475 1.907 A 2.254 2.254 0 0 1 8.088 1.986 A 1.639 1.639 0 0 1 8.917 2.518 Q 9.431 3.129 9.431 4.267 L 9.431 4.605 L 6.21 4.605 A 2.111 2.111 0 0 0 6.281 5.114 A 1.516 1.516 0 0 0 6.621 5.741 A 1.282 1.282 0 0 0 7.555 6.173 A 1.652 1.652 0 0 0 7.62 6.174 A 1.763 1.763 0 0 0 7.948 6.145 Q 8.172 6.103 8.35 5.999 A 1.827 1.827 0 0 0 8.859 5.551 A 2.068 2.068 0 0 0 8.873 5.533 L 9.369 5.919 A 1.926 1.926 0 0 1 7.97 6.811 A 2.749 2.749 0 0 1 7.576 6.838 A 2.394 2.394 0 0 1 6.825 6.725 A 1.974 1.974 0 0 1 6.003 6.203 Q 5.397 5.568 5.397 4.504 Z M 24.544 4.504 L 24.544 4.355 A 3.17 3.17 0 0 1 24.62 3.646 A 2.581 2.581 0 0 1 24.814 3.092 A 2.191 2.191 0 0 1 25.261 2.466 A 2.033 2.033 0 0 1 25.57 2.221 Q 26.055 1.907 26.622 1.907 A 2.254 2.254 0 0 1 27.235 1.986 A 1.639 1.639 0 0 1 28.064 2.518 Q 28.578 3.129 28.578 4.267 L 28.578 4.605 L 25.357 4.605 A 2.111 2.111 0 0 0 25.428 5.114 A 1.516 1.516 0 0 0 25.767 5.741 A 1.282 1.282 0 0 0 26.702 6.173 A 1.652 1.652 0 0 0 26.767 6.174 A 1.763 1.763 0 0 0 27.095 6.145 Q 27.319 6.103 27.497 5.999 A 1.827 1.827 0 0 0 28.006 5.551 A 2.068 2.068 0 0 0 28.02 5.533 L 28.516 5.919 A 1.926 1.926 0 0 1 27.117 6.811 A 2.749 2.749 0 0 1 26.723 6.838 A 2.394 2.394 0 0 1 25.972 6.725 A 1.974 1.974 0 0 1 25.15 6.203 Q 24.544 5.568 24.544 4.504 Z M 51.645 4.504 L 51.645 4.355 A 3.17 3.17 0 0 1 51.721 3.646 A 2.581 2.581 0 0 1 51.915 3.092 A 2.191 2.191 0 0 1 52.362 2.466 A 2.033 2.033 0 0 1 52.671 2.221 Q 53.156 1.907 53.723 1.907 A 2.254 2.254 0 0 1 54.336 1.986 A 1.639 1.639 0 0 1 55.165 2.518 Q 55.679 3.129 55.679 4.267 L 55.679 4.605 L 52.458 4.605 A 2.111 2.111 0 0 0 52.529 5.114 A 1.516 1.516 0 0 0 52.869 5.741 A 1.282 1.282 0 0 0 53.803 6.173 A 1.652 1.652 0 0 0 53.868 6.174 A 1.763 1.763 0 0 0 54.196 6.145 Q 54.42 6.103 54.598 5.999 A 1.827 1.827 0 0 0 55.107 5.551 A 2.068 2.068 0 0 0 55.121 5.533 L 55.617 5.919 A 1.926 1.926 0 0 1 54.218 6.811 A 2.749 2.749 0 0 1 53.824 6.838 A 2.394 2.394 0 0 1 53.073 6.725 A 1.974 1.974 0 0 1 52.251 6.203 Q 51.645 5.568 51.645 4.504 Z M 86.673 4.504 L 86.673 4.355 A 3.17 3.17 0 0 1 86.75 3.646 A 2.581 2.581 0 0 1 86.944 3.092 A 2.191 2.191 0 0 1 87.391 2.466 A 2.033 2.033 0 0 1 87.7 2.221 Q 88.185 1.907 88.752 1.907 A 2.254 2.254 0 0 1 89.365 1.986 A 1.639 1.639 0 0 1 90.194 2.518 Q 90.708 3.129 90.708 4.267 L 90.708 4.605 L 87.486 4.605 A 2.111 2.111 0 0 0 87.558 5.114 A 1.516 1.516 0 0 0 87.897 5.741 A 1.282 1.282 0 0 0 88.831 6.173 A 1.652 1.652 0 0 0 88.897 6.174 A 1.763 1.763 0 0 0 89.225 6.145 Q 89.449 6.103 89.627 5.999 A 1.827 1.827 0 0 0 90.135 5.551 A 2.068 2.068 0 0 0 90.15 5.533 L 90.646 5.919 A 1.926 1.926 0 0 1 89.246 6.811 A 2.749 2.749 0 0 1 88.853 6.838 A 2.394 2.394 0 0 1 88.102 6.725 A 1.974 1.974 0 0 1 87.28 6.203 Q 86.673 5.568 86.673 4.504 Z M 13.856 1.995 L 15.065 5.647 L 16.242 1.995 L 17.073 1.995 L 15.368 6.75 L 14.748 6.75 L 13.026 1.995 L 13.856 1.995 Z M 82.938 1.995 L 84.147 5.647 L 85.324 1.995 L 86.155 1.995 L 84.45 6.75 L 83.83 6.75 L 82.108 1.995 L 82.938 1.995 Z M 97.225 0.352 L 97.225 4.601 L 98.112 4.601 L 98.112 5.265 L 97.225 5.265 L 97.225 6.75 L 96.407 6.75 L 96.407 5.265 L 93.494 5.265 L 93.494 4.786 L 96.359 0.352 L 97.225 0.352 Z M 108.11 6.75 L 106.339 6.75 L 106.339 0.352 L 108.145 0.352 Q 108.98 0.352 109.622 0.721 Q 110.263 1.09 110.613 1.771 A 3.19 3.19 0 0 1 110.93 2.8 A 4.073 4.073 0 0 1 110.966 3.335 L 110.966 3.744 Q 110.966 4.649 110.617 5.331 A 2.457 2.457 0 0 1 109.62 6.376 Q 108.971 6.741 108.11 6.75 Z M 102.623 2.592 A 1.544 1.544 0 0 0 102.727 2.021 A 2.226 2.226 0 0 0 102.705 1.707 A 1.566 1.566 0 0 0 102.206 0.738 A 1.754 1.754 0 0 0 101.44 0.333 A 2.443 2.443 0 0 0 100.841 0.264 A 2.539 2.539 0 0 0 100.332 0.312 A 1.767 1.767 0 0 0 99.475 0.738 Q 98.956 1.213 98.956 2.021 A 1.808 1.808 0 0 0 98.957 2.058 A 1.499 1.499 0 0 0 99.202 2.87 A 1.626 1.626 0 0 0 99.364 3.077 A 1.726 1.726 0 0 0 99.875 3.454 A 2.119 2.119 0 0 0 99.775 3.5 A 1.738 1.738 0 0 0 99.09 4.087 A 1.629 1.629 0 0 0 98.807 5.023 A 2.272 2.272 0 0 0 98.817 5.237 A 1.63 1.63 0 0 0 99.363 6.344 A 1.895 1.895 0 0 0 100.213 6.771 A 2.797 2.797 0 0 0 100.841 6.838 A 2.796 2.796 0 0 0 101.44 6.777 A 1.925 1.925 0 0 0 102.316 6.346 A 1.578 1.578 0 0 0 102.791 5.62 A 1.989 1.989 0 0 0 102.876 5.023 A 1.581 1.581 0 0 0 102.584 4.087 Q 102.292 3.674 101.791 3.458 Q 102.221 3.248 102.474 2.874 A 1.449 1.449 0 0 0 102.623 2.592 Z M 38.76 0 L 38.76 6.75 L 37.947 6.75 L 37.947 0 L 38.76 0 Z M 12.67 1.969 L 12.67 2.725 A 2.251 2.251 0 0 0 12.427 2.698 A 2.782 2.782 0 0 0 12.27 2.694 Q 11.492 2.694 11.2 3.338 A 1.445 1.445 0 0 0 11.184 3.375 L 11.184 6.75 L 10.371 6.75 L 10.371 1.995 L 11.162 1.995 L 11.175 2.544 Q 11.556 1.938 12.238 1.909 A 1.636 1.636 0 0 1 12.309 1.907 Q 12.547 1.907 12.67 1.969 Z M 58.918 1.969 L 58.918 2.725 A 2.251 2.251 0 0 0 58.675 2.698 A 2.782 2.782 0 0 0 58.518 2.694 Q 57.74 2.694 57.448 3.338 A 1.445 1.445 0 0 0 57.432 3.375 L 57.432 6.75 L 56.619 6.75 L 56.619 1.995 L 57.41 1.995 L 57.423 2.544 Q 57.804 1.938 58.486 1.909 A 1.636 1.636 0 0 1 58.557 1.907 Q 58.795 1.907 58.918 1.969 Z M 70.062 1.969 L 70.062 2.725 A 2.251 2.251 0 0 0 69.819 2.698 A 2.782 2.782 0 0 0 69.662 2.694 Q 68.884 2.694 68.593 3.338 A 1.445 1.445 0 0 0 68.577 3.375 L 68.577 6.75 L 67.764 6.75 L 67.764 1.995 L 68.555 1.995 L 68.568 2.544 Q 68.948 1.938 69.631 1.909 A 1.636 1.636 0 0 1 69.702 1.907 Q 69.939 1.907 70.062 1.969 Z M 119.307 1.969 L 119.307 2.725 A 2.251 2.251 0 0 0 119.065 2.698 A 2.782 2.782 0 0 0 118.907 2.694 Q 118.13 2.694 117.838 3.338 A 1.445 1.445 0 0 0 117.822 3.375 L 117.822 6.75 L 117.009 6.75 L 117.009 1.995 L 117.8 1.995 L 117.813 2.544 Q 118.194 1.938 118.876 1.909 A 1.636 1.636 0 0 1 118.947 1.907 Q 119.184 1.907 119.307 1.969 Z M 108.167 1.046 L 107.183 1.046 L 107.183 6.06 L 108.07 6.06 A 2.519 2.519 0 0 0 108.703 5.985 A 1.747 1.747 0 0 0 109.589 5.454 Q 110.048 4.94 110.119 4.059 A 4.165 4.165 0 0 0 110.131 3.727 L 110.131 3.353 Q 110.131 2.562 109.862 2.027 A 1.864 1.864 0 0 0 109.62 1.659 A 1.687 1.687 0 0 0 108.624 1.09 A 2.499 2.499 0 0 0 108.167 1.046 Z M 18.738 1.995 L 18.738 6.75 L 17.925 6.75 L 17.925 1.995 L 18.738 1.995 Z M 50.55 1.995 L 50.55 6.75 L 49.737 6.75 L 49.737 1.995 L 50.55 1.995 Z M 81.277 1.995 L 81.277 6.75 L 80.464 6.75 L 80.464 1.995 L 81.277 1.995 Z M 96.311 1.639 L 94.417 4.601 L 96.407 4.601 L 96.407 1.463 L 96.311 1.639 Z M 64.213 1.393 L 63.128 4.386 L 65.303 4.386 L 64.213 1.393 Z M 102.063 5.005 A 1.375 1.375 0 0 0 102.004 4.592 A 1.109 1.109 0 0 0 101.723 4.131 A 1.148 1.148 0 0 0 101.051 3.807 A 1.593 1.593 0 0 0 100.833 3.792 A 1.466 1.466 0 0 0 100.444 3.841 A 1.086 1.086 0 0 0 99.952 4.126 A 1.123 1.123 0 0 0 99.638 4.762 A 1.572 1.572 0 0 0 99.62 5.005 A 1.48 1.48 0 0 0 99.661 5.367 A 1.019 1.019 0 0 0 99.943 5.862 Q 100.249 6.158 100.782 6.173 A 2.053 2.053 0 0 0 100.841 6.174 Q 101.335 6.174 101.645 5.94 A 1.018 1.018 0 0 0 101.738 5.86 A 1.041 1.041 0 0 0 102.037 5.292 A 1.518 1.518 0 0 0 102.063 5.005 Z M 100.841 0.932 A 1.259 1.259 0 0 0 100.489 0.979 A 0.973 0.973 0 0 0 100.066 1.228 Q 99.769 1.525 99.769 2.035 A 1.325 1.325 0 0 0 99.814 2.387 A 0.994 0.994 0 0 0 100.061 2.823 A 0.974 0.974 0 0 0 100.624 3.108 A 1.382 1.382 0 0 0 100.841 3.125 A 1.279 1.279 0 0 0 101.186 3.08 A 0.952 0.952 0 0 0 101.621 2.823 A 1.018 1.018 0 0 0 101.897 2.26 A 1.426 1.426 0 0 0 101.914 2.035 A 1.282 1.282 0 0 0 101.864 1.668 A 1.013 1.013 0 0 0 101.61 1.239 Q 101.307 0.932 100.841 0.932 Z M 42.869 5.418 L 42.869 4.443 L 42.232 4.443 Q 40.737 4.443 40.737 5.317 Q 40.737 5.7 40.992 5.915 A 0.893 0.893 0 0 0 41.406 6.108 A 1.259 1.259 0 0 0 41.647 6.13 A 1.429 1.429 0 0 0 42.372 5.933 A 1.335 1.335 0 0 0 42.668 5.705 A 1.108 1.108 0 0 0 42.869 5.418 Z M 114.922 5.418 L 114.922 4.443 L 114.284 4.443 Q 112.79 4.443 112.79 5.317 Q 112.79 5.7 113.045 5.915 A 0.893 0.893 0 0 0 113.459 6.108 A 1.259 1.259 0 0 0 113.7 6.13 A 1.429 1.429 0 0 0 114.425 5.933 A 1.335 1.335 0 0 0 114.72 5.705 A 1.108 1.108 0 0 0 114.922 5.418 Z M 6.236 3.938 L 8.618 3.938 L 8.618 3.876 Q 8.592 3.417 8.421 3.111 A 1.13 1.13 0 0 0 8.284 2.916 A 0.983 0.983 0 0 0 7.629 2.584 A 1.39 1.39 0 0 0 7.475 2.575 A 1.106 1.106 0 0 0 6.953 2.698 A 1.14 1.14 0 0 0 6.649 2.933 A 1.417 1.417 0 0 0 6.372 3.379 Q 6.299 3.563 6.259 3.785 A 2.741 2.741 0 0 0 6.236 3.938 Z M 25.383 3.938 L 27.765 3.938 L 27.765 3.876 Q 27.739 3.417 27.568 3.111 A 1.13 1.13 0 0 0 27.431 2.916 A 0.983 0.983 0 0 0 26.776 2.584 A 1.39 1.39 0 0 0 26.622 2.575 A 1.106 1.106 0 0 0 26.1 2.698 A 1.14 1.14 0 0 0 25.796 2.933 A 1.417 1.417 0 0 0 25.519 3.379 Q 25.446 3.563 25.406 3.785 A 2.741 2.741 0 0 0 25.383 3.938 Z M 52.484 3.938 L 54.866 3.938 L 54.866 3.876 Q 54.84 3.417 54.669 3.111 A 1.13 1.13 0 0 0 54.532 2.916 A 0.983 0.983 0 0 0 53.877 2.584 A 1.39 1.39 0 0 0 53.723 2.575 A 1.106 1.106 0 0 0 53.201 2.698 A 1.14 1.14 0 0 0 52.897 2.933 A 1.417 1.417 0 0 0 52.62 3.379 Q 52.547 3.563 52.507 3.785 A 2.741 2.741 0 0 0 52.484 3.938 Z M 87.513 3.938 L 89.895 3.938 L 89.895 3.876 Q 89.869 3.417 89.698 3.111 A 1.13 1.13 0 0 0 89.561 2.916 A 0.983 0.983 0 0 0 88.906 2.584 A 1.39 1.39 0 0 0 88.752 2.575 A 1.106 1.106 0 0 0 88.23 2.698 A 1.14 1.14 0 0 0 87.926 2.933 A 1.417 1.417 0 0 0 87.649 3.379 Q 87.576 3.563 87.536 3.785 A 2.741 2.741 0 0 0 87.513 3.938 Z M 17.86 0.734 Q 17.86 0.536 17.98 0.4 Q 18.092 0.274 18.304 0.264 A 0.783 0.783 0 0 1 18.339 0.264 Q 18.576 0.264 18.699 0.4 A 0.474 0.474 0 0 1 18.821 0.703 A 0.614 0.614 0 0 1 18.822 0.734 A 0.523 0.523 0 0 1 18.797 0.9 A 0.442 0.442 0 0 1 18.699 1.063 Q 18.586 1.184 18.378 1.194 A 0.803 0.803 0 0 1 18.339 1.195 Q 18.166 1.195 18.055 1.126 A 0.362 0.362 0 0 1 17.98 1.063 A 0.456 0.456 0 0 1 17.862 0.788 A 0.605 0.605 0 0 1 17.86 0.734 Z M 49.672 0.734 Q 49.672 0.536 49.792 0.4 Q 49.904 0.274 50.116 0.264 A 0.783 0.783 0 0 1 50.151 0.264 Q 50.388 0.264 50.511 0.4 A 0.474 0.474 0 0 1 50.633 0.703 A 0.614 0.614 0 0 1 50.634 0.734 A 0.523 0.523 0 0 1 50.609 0.9 A 0.442 0.442 0 0 1 50.511 1.063 Q 50.398 1.184 50.19 1.194 A 0.803 0.803 0 0 1 50.151 1.195 Q 49.978 1.195 49.867 1.126 A 0.362 0.362 0 0 1 49.792 1.063 A 0.456 0.456 0 0 1 49.674 0.788 A 0.605 0.605 0 0 1 49.672 0.734 Z M 80.398 0.734 Q 80.398 0.536 80.519 0.4 Q 80.631 0.274 80.843 0.264 A 0.783 0.783 0 0 1 80.877 0.264 Q 81.114 0.264 81.237 0.4 A 0.474 0.474 0 0 1 81.36 0.703 A 0.614 0.614 0 0 1 81.36 0.734 A 0.523 0.523 0 0 1 81.335 0.9 A 0.442 0.442 0 0 1 81.237 1.063 Q 81.125 1.184 80.917 1.194 A 0.803 0.803 0 0 1 80.877 1.195 Q 80.705 1.195 80.594 1.126 A 0.362 0.362 0 0 1 80.519 1.063 A 0.456 0.456 0 0 1 80.4 0.788 A 0.605 0.605 0 0 1 80.398 0.734 Z" vector-effect="non-scaling-stroke"/></g>
</svg>