<?xml version="1.0" encoding="UTF-8"?>
<svg width="48px" height="48px" viewBox="0 0 48 48" version="1.1" xmlns="http://www.w3.org/2000/svg" xmlns:xlink="http://www.w3.org/1999/xlink">
    <title>Icon-Resource/Migration-and-Transfer/Res_AWS-Mainframe-Modernization_Runtime_48_Light</title>
    <g id="Icon-Resource/Migration-and-Transfer/Res_AWS-Mainframe-Modernization_Runtime_48" stroke="none" stroke-width="1" fill="none" fill-rule="evenodd">
        <path transform="translate(12.000000, 8.000000), scale(.65)" d="M28.743,12 L22.343,17 L28.743,22 L39.673,22 L46.072,17 L39.673,12 L28.743,12 Z M25.591,17 L29.432,14 L38.984,14 L42.824,17 L38.984,20 L29.432,20 L25.591,17 Z M8.001,14 L22,14 L22,12 L8.001,12 L8.001,14 Z M3,18 L19,18 L19,16 L3,16 L3,18 Z M12,22 L23,22 L23,20 L12,20 L12,22 Z M22.743,27 L16.343,32 L22.743,37 L33.673,37 L40.073,32 L33.673,27 L22.743,27 Z M19.591,32 L23.432,29 L32.984,29 L36.825,32 L32.984,35 L23.432,35 L19.591,32 Z M9.001,29 L17.001,29 L17.001,27 L9.001,27 L9.001,29 Z M2,33.001 L13,33.001 L13,31 L2,31 L2,33.001 Z M5,37 L17.001,37 L17.001,35 L5,35 L5,37 Z" id="Fill-1" fill="#000000"></path>
    </g><g transform="translate(25, 83)" id="svgGroup" stroke-linecap="round" fill-rule="evenodd" font-size="9pt" stroke="#000" stroke-width="0.25mm" fill="#000" style="stroke:#000;stroke-width:0.25mm;fill:#000"><path d="M 23.12 0.088 L 24.13 4.469 L 24.253 5.313 L 24.434 4.553 L 25.699 0.088 L 26.411 0.088 L 27.646 4.553 L 27.822 5.326 L 27.958 4.465 L 28.951 0.088 L 29.799 0.088 L 28.248 6.486 L 27.479 6.486 L 26.161 1.824 L 26.06 1.336 L 25.958 1.824 L 24.592 6.486 L 23.823 6.486 L 22.276 0.088 L 23.12 0.088 Z M 34.98 1.938 L 34.132 1.938 A 1.466 1.466 0 0 0 34.083 1.546 A 1.066 1.066 0 0 0 33.763 1.026 A 1.211 1.211 0 0 0 33.294 0.77 Q 33.042 0.694 32.722 0.694 A 2.286 2.286 0 0 0 32.342 0.724 Q 32.14 0.758 31.977 0.831 A 1.101 1.101 0 0 0 31.748 0.969 A 0.892 0.892 0 0 0 31.403 1.624 A 1.267 1.267 0 0 0 31.399 1.732 A 0.806 0.806 0 0 0 31.667 2.337 A 1.134 1.134 0 0 0 31.731 2.393 A 1.562 1.562 0 0 0 31.969 2.549 Q 32.299 2.73 32.86 2.887 A 8.228 8.228 0 0 1 33.325 3.032 Q 33.56 3.113 33.754 3.2 A 3.297 3.297 0 0 1 34.108 3.382 A 2.342 2.342 0 0 1 34.447 3.626 Q 34.637 3.792 34.759 3.985 A 1.45 1.45 0 0 1 34.776 4.012 A 1.498 1.498 0 0 1 34.972 4.568 A 1.948 1.948 0 0 1 34.994 4.86 A 1.606 1.606 0 0 1 34.871 5.497 Q 34.726 5.838 34.408 6.09 A 1.886 1.886 0 0 1 34.387 6.106 Q 33.781 6.574 32.766 6.574 A 3.023 3.023 0 0 1 31.625 6.36 A 2.917 2.917 0 0 1 31.535 6.322 A 2.383 2.383 0 0 1 31.057 6.044 A 1.874 1.874 0 0 1 30.654 5.629 A 1.689 1.689 0 0 1 30.344 4.632 L 31.192 4.632 A 1.261 1.261 0 0 0 31.262 5.059 A 1.074 1.074 0 0 0 31.621 5.548 Q 32.005 5.85 32.622 5.881 A 2.87 2.87 0 0 0 32.766 5.884 A 2.628 2.628 0 0 0 33.153 5.858 Q 33.349 5.828 33.508 5.767 A 1.129 1.129 0 0 0 33.79 5.612 Q 34.146 5.339 34.146 4.869 A 1.074 1.074 0 0 0 34.103 4.559 A 0.816 0.816 0 0 0 33.816 4.142 Q 33.486 3.885 32.621 3.634 Q 31.535 3.322 31.041 2.868 Q 30.546 2.413 30.546 1.745 Q 30.546 0.989 31.151 0.494 A 2.121 2.121 0 0 1 32.041 0.071 A 3.087 3.087 0 0 1 32.722 0 A 2.913 2.913 0 0 1 33.382 0.072 A 2.372 2.372 0 0 1 33.897 0.255 A 2.051 2.051 0 0 1 34.428 0.626 A 1.834 1.834 0 0 1 34.697 0.958 A 1.798 1.798 0 0 1 34.98 1.938 Z M 3.74 6.486 L 2.351 3.898 L 0.848 3.898 L 0.848 6.486 L 0 6.486 L 0 0.088 L 2.118 0.088 A 3.809 3.809 0 0 1 2.76 0.138 Q 3.102 0.197 3.376 0.324 A 1.789 1.789 0 0 1 3.781 0.58 A 1.588 1.588 0 0 1 4.307 1.469 A 2.453 2.453 0 0 1 4.364 2.013 A 1.864 1.864 0 0 1 4.273 2.604 A 1.64 1.64 0 0 1 4.041 3.054 A 1.849 1.849 0 0 1 3.382 3.611 A 2.342 2.342 0 0 1 3.142 3.718 L 4.645 6.434 L 4.645 6.486 L 3.74 6.486 Z M 13.724 3.129 L 12.907 3.129 Q 12.907 2.795 12.623 2.553 Q 12.34 2.312 11.909 2.312 Q 11.465 2.312 11.215 2.505 A 0.653 0.653 0 0 0 11.04 2.704 Q 10.967 2.835 10.964 3 A 0.771 0.771 0 0 0 10.964 3.01 A 0.588 0.588 0 0 0 10.994 3.203 A 0.48 0.48 0 0 0 11.197 3.454 A 1.093 1.093 0 0 0 11.348 3.533 Q 11.512 3.605 11.767 3.673 A 6.581 6.581 0 0 0 12.039 3.74 A 6.318 6.318 0 0 1 12.446 3.845 Q 12.783 3.944 13.025 4.065 A 1.901 1.901 0 0 1 13.281 4.218 Q 13.418 4.315 13.516 4.429 A 1.06 1.06 0 0 1 13.586 4.52 A 1.024 1.024 0 0 1 13.748 4.927 A 1.388 1.388 0 0 1 13.768 5.168 Q 13.768 5.805 13.258 6.19 Q 12.776 6.554 12.022 6.573 A 3.337 3.337 0 0 1 11.936 6.574 A 2.746 2.746 0 0 1 11.401 6.525 A 2.124 2.124 0 0 1 10.925 6.372 A 1.771 1.771 0 0 1 10.491 6.094 A 1.54 1.54 0 0 1 10.237 5.807 Q 9.989 5.445 9.989 5.023 L 10.802 5.023 A 0.932 0.932 0 0 0 10.875 5.348 A 0.827 0.827 0 0 0 11.129 5.671 A 1.072 1.072 0 0 0 11.531 5.864 Q 11.686 5.903 11.867 5.91 A 2.013 2.013 0 0 0 11.936 5.911 A 1.863 1.863 0 0 0 12.231 5.889 Q 12.393 5.863 12.524 5.806 A 0.941 0.941 0 0 0 12.676 5.724 A 0.689 0.689 0 0 0 12.841 5.574 A 0.554 0.554 0 0 0 12.955 5.225 A 0.698 0.698 0 0 0 12.919 4.994 A 0.581 0.581 0 0 0 12.707 4.713 A 1.05 1.05 0 0 0 12.538 4.615 Q 12.349 4.524 12.054 4.449 A 5.392 5.392 0 0 0 11.841 4.399 A 6.342 6.342 0 0 1 11.48 4.311 Q 11.11 4.209 10.861 4.083 Q 10.562 3.93 10.392 3.731 A 1.017 1.017 0 0 1 10.325 3.643 Q 10.151 3.388 10.151 3.037 A 1.206 1.206 0 0 1 10.55 2.132 A 1.694 1.694 0 0 1 10.646 2.048 A 1.752 1.752 0 0 1 11.429 1.688 A 2.471 2.471 0 0 1 11.909 1.644 A 2.559 2.559 0 0 1 12.473 1.702 A 1.757 1.757 0 0 1 13.221 2.061 Q 13.724 2.479 13.724 3.129 Z M 21.327 6.486 L 20.716 4.816 L 18.035 4.816 L 17.433 6.486 L 16.563 6.486 L 19.006 0.088 L 19.745 0.088 L 22.192 6.486 L 21.327 6.486 Z M 5.212 4.241 L 5.212 4.091 A 3.17 3.17 0 0 1 5.288 3.382 A 2.581 2.581 0 0 1 5.482 2.828 A 2.191 2.191 0 0 1 5.93 2.202 A 2.033 2.033 0 0 1 6.238 1.958 Q 6.724 1.644 7.291 1.644 A 2.254 2.254 0 0 1 7.904 1.723 A 1.639 1.639 0 0 1 8.732 2.254 Q 9.246 2.865 9.246 4.003 L 9.246 4.342 L 6.025 4.342 A 2.111 2.111 0 0 0 6.096 4.85 A 1.516 1.516 0 0 0 6.436 5.478 A 1.282 1.282 0 0 0 7.37 5.909 A 1.652 1.652 0 0 0 7.436 5.911 A 1.763 1.763 0 0 0 7.764 5.882 Q 7.988 5.839 8.165 5.735 A 1.827 1.827 0 0 0 8.674 5.287 A 2.068 2.068 0 0 0 8.688 5.269 L 9.185 5.656 A 1.926 1.926 0 0 1 7.785 6.547 A 2.749 2.749 0 0 1 7.392 6.574 A 2.394 2.394 0 0 1 6.64 6.461 A 1.974 1.974 0 0 1 5.818 5.939 Q 5.212 5.304 5.212 4.241 Z M 0.848 0.782 L 0.848 3.208 L 2.145 3.208 Q 2.685 3.208 3.035 2.968 A 1.174 1.174 0 0 0 3.144 2.883 A 1.069 1.069 0 0 0 3.51 2.146 A 1.486 1.486 0 0 0 3.516 2.013 Q 3.516 1.47 3.22 1.159 A 1 1 0 0 0 3.162 1.103 Q 2.808 0.787 2.14 0.782 L 0.848 0.782 Z M 19.375 1.129 L 18.29 4.122 L 20.465 4.122 L 19.375 1.129 Z M 6.051 3.674 L 8.433 3.674 L 8.433 3.612 Q 8.407 3.153 8.236 2.848 A 1.13 1.13 0 0 0 8.099 2.652 A 0.983 0.983 0 0 0 7.445 2.32 A 1.39 1.39 0 0 0 7.291 2.312 A 1.106 1.106 0 0 0 6.768 2.435 A 1.14 1.14 0 0 0 6.464 2.67 A 1.417 1.417 0 0 0 6.188 3.116 Q 6.114 3.3 6.074 3.522 A 2.741 2.741 0 0 0 6.051 3.674 Z" vector-effect="non-scaling-stroke"/></g><g transform="translate(25, 93)" id="svgGroup" stroke-linecap="round" fill-rule="evenodd" font-size="9pt" stroke="#000" stroke-width="0.25mm" fill="#000" style="stroke:#000;stroke-width:0.25mm;fill:#000"><path d="M 0 0.444 L 1.09 0.444 L 3.182 5.665 L 5.273 0.444 L 6.368 0.444 L 6.368 6.842 L 5.524 6.842 L 5.524 4.351 L 5.603 1.661 L 3.502 6.842 L 2.856 6.842 L 0.76 1.674 L 0.844 4.351 L 0.844 6.842 L 0 6.842 L 0 0.444 Z M 45.677 0.444 L 46.767 0.444 L 48.858 5.665 L 50.95 0.444 L 52.044 0.444 L 52.044 6.842 L 51.201 6.842 L 51.201 4.351 L 51.28 1.661 L 49.179 6.842 L 48.533 6.842 L 46.437 1.674 L 46.521 4.351 L 46.521 6.842 L 45.677 6.842 L 45.677 0.444 Z M 30.661 2.087 L 31.43 2.087 L 31.452 2.615 Q 31.975 2 32.862 2 A 2.009 2.009 0 0 1 33.373 2.06 A 1.244 1.244 0 0 1 34.22 2.764 A 1.801 1.801 0 0 1 34.838 2.21 A 1.65 1.65 0 0 1 35.367 2.029 A 2.209 2.209 0 0 1 35.736 2 A 2.119 2.119 0 0 1 36.38 2.089 Q 37.307 2.385 37.327 3.656 L 37.327 6.842 L 36.514 6.842 L 36.514 3.705 A 1.781 1.781 0 0 0 36.494 3.425 Q 36.47 3.277 36.42 3.159 A 0.758 0.758 0 0 0 36.281 2.942 A 0.68 0.68 0 0 0 36.028 2.774 Q 35.817 2.69 35.5 2.689 A 1.245 1.245 0 0 0 35.134 2.741 A 1.008 1.008 0 0 0 34.748 2.96 A 1.042 1.042 0 0 0 34.434 3.496 A 1.41 1.41 0 0 0 34.4 3.687 L 34.4 6.842 L 33.583 6.842 L 33.583 3.727 A 1.532 1.532 0 0 0 33.534 3.322 Q 33.408 2.86 32.95 2.735 A 1.457 1.457 0 0 0 32.568 2.689 Q 31.794 2.689 31.493 3.327 A 1.459 1.459 0 0 0 31.474 3.371 L 31.474 6.842 L 30.661 6.842 L 30.661 2.087 Z M 125.974 2.087 L 126.743 2.087 L 126.765 2.615 Q 127.288 2 128.175 2 A 2.009 2.009 0 0 1 128.686 2.06 A 1.244 1.244 0 0 1 129.533 2.764 A 1.801 1.801 0 0 1 130.151 2.21 A 1.65 1.65 0 0 1 130.68 2.029 A 2.209 2.209 0 0 1 131.049 2 A 2.119 2.119 0 0 1 131.693 2.089 Q 132.62 2.385 132.64 3.656 L 132.64 6.842 L 131.827 6.842 L 131.827 3.705 A 1.781 1.781 0 0 0 131.807 3.425 Q 131.783 3.277 131.733 3.159 A 0.758 0.758 0 0 0 131.594 2.942 A 0.68 0.68 0 0 0 131.341 2.774 Q 131.13 2.69 130.813 2.689 A 1.245 1.245 0 0 0 130.447 2.741 A 1.008 1.008 0 0 0 130.061 2.96 A 1.042 1.042 0 0 0 129.747 3.496 A 1.41 1.41 0 0 0 129.713 3.687 L 129.713 6.842 L 128.896 6.842 L 128.896 3.727 A 1.532 1.532 0 0 0 128.847 3.322 Q 128.721 2.86 128.263 2.735 A 1.457 1.457 0 0 0 127.881 2.689 Q 127.107 2.689 126.806 3.327 A 1.459 1.459 0 0 0 126.787 3.371 L 126.787 6.842 L 125.974 6.842 L 125.974 2.087 Z M 166.087 0.092 L 166.087 2.663 A 1.767 1.767 0 0 1 166.753 2.145 A 1.832 1.832 0 0 1 167.493 2 A 1.905 1.905 0 0 1 168.127 2.096 Q 168.969 2.392 169.011 3.598 A 3.668 3.668 0 0 1 169.014 3.7 L 169.014 6.842 L 168.201 6.842 L 168.201 3.696 A 1.837 1.837 0 0 0 168.178 3.416 Q 168.128 3.109 167.966 2.936 Q 167.779 2.737 167.426 2.699 A 1.66 1.66 0 0 0 167.247 2.689 A 1.253 1.253 0 0 0 166.833 2.756 A 1.123 1.123 0 0 0 166.553 2.9 A 1.432 1.432 0 0 0 166.087 3.454 L 166.087 6.842 L 165.274 6.842 L 165.274 0.092 L 166.087 0.092 Z M 109.248 6.842 L 107.859 4.254 L 106.356 4.254 L 106.356 6.842 L 105.508 6.842 L 105.508 0.444 L 107.626 0.444 A 3.809 3.809 0 0 1 108.268 0.494 Q 108.61 0.553 108.884 0.68 A 1.789 1.789 0 0 1 109.29 0.936 A 1.588 1.588 0 0 1 109.815 1.825 A 2.453 2.453 0 0 1 109.872 2.369 A 1.864 1.864 0 0 1 109.781 2.96 A 1.64 1.64 0 0 1 109.549 3.41 A 1.849 1.849 0 0 1 108.89 3.967 A 2.342 2.342 0 0 1 108.65 4.074 L 110.153 6.79 L 110.153 6.842 L 109.248 6.842 Z M 163.266 2.615 L 163.305 2.087 L 164.048 2.087 L 164.048 6.728 A 2.511 2.511 0 0 1 163.977 7.341 A 1.738 1.738 0 0 1 163.501 8.183 A 1.834 1.834 0 0 1 162.571 8.662 A 2.671 2.671 0 0 1 162.031 8.714 A 2.446 2.446 0 0 1 161.024 8.495 A 2.003 2.003 0 0 1 160.614 8.253 A 1.563 1.563 0 0 1 160.273 7.893 L 160.695 7.405 A 1.889 1.889 0 0 0 161.129 7.805 A 1.514 1.514 0 0 0 161.974 8.051 A 1.695 1.695 0 0 0 162.351 8.011 Q 162.619 7.95 162.813 7.794 A 1.037 1.037 0 0 0 162.899 7.717 A 1.09 1.09 0 0 0 163.176 7.224 Q 163.223 7.051 163.229 6.845 A 2.134 2.134 0 0 0 163.23 6.776 L 163.23 6.368 A 1.601 1.601 0 0 1 162.178 6.914 A 2.279 2.279 0 0 1 161.899 6.93 A 1.672 1.672 0 0 1 161.144 6.762 Q 160.822 6.602 160.572 6.289 A 2.14 2.14 0 0 1 160.548 6.258 A 2.316 2.316 0 0 1 160.164 5.478 Q 160.031 5.014 160.031 4.425 Q 160.031 3.564 160.34 2.976 A 2.096 2.096 0 0 1 160.545 2.656 Q 161.06 2 161.908 2 A 1.971 1.971 0 0 1 162.507 2.086 A 1.55 1.55 0 0 1 163.266 2.615 Z M 14.81 2.087 L 15.579 2.087 L 15.605 2.685 Q 16.141 2.01 17.001 2 A 2.234 2.234 0 0 1 17.029 2 A 1.905 1.905 0 0 1 17.662 2.096 Q 18.504 2.392 18.547 3.598 A 3.668 3.668 0 0 1 18.549 3.7 L 18.549 6.842 L 17.736 6.842 L 17.736 3.696 A 1.837 1.837 0 0 0 17.714 3.416 Q 17.664 3.109 17.501 2.936 Q 17.315 2.737 16.962 2.699 A 1.66 1.66 0 0 0 16.783 2.689 A 1.253 1.253 0 0 0 16.368 2.756 A 1.123 1.123 0 0 0 16.088 2.9 A 1.432 1.432 0 0 0 15.623 3.454 L 15.623 6.842 L 14.81 6.842 L 14.81 2.087 Z M 71.429 2.087 L 72.198 2.087 L 72.224 2.685 Q 72.76 2.01 73.62 2 A 2.234 2.234 0 0 1 73.648 2 A 1.905 1.905 0 0 1 74.281 2.096 Q 75.123 2.392 75.166 3.598 A 3.668 3.668 0 0 1 75.168 3.7 L 75.168 6.842 L 74.355 6.842 L 74.355 3.696 A 1.837 1.837 0 0 0 74.333 3.416 Q 74.283 3.109 74.12 2.936 Q 73.934 2.737 73.581 2.699 A 1.66 1.66 0 0 0 73.402 2.689 A 1.253 1.253 0 0 0 72.987 2.756 A 1.123 1.123 0 0 0 72.708 2.9 A 1.432 1.432 0 0 0 72.242 3.454 L 72.242 6.842 L 71.429 6.842 L 71.429 2.087 Z M 98.191 2.087 L 98.96 2.087 L 98.987 2.685 Q 99.523 2.01 100.383 2 A 2.234 2.234 0 0 1 100.411 2 A 1.905 1.905 0 0 1 101.044 2.096 Q 101.886 2.392 101.929 3.598 A 3.668 3.668 0 0 1 101.931 3.7 L 101.931 6.842 L 101.118 6.842 L 101.118 3.696 A 1.837 1.837 0 0 0 101.096 3.416 Q 101.046 3.109 100.883 2.936 Q 100.697 2.737 100.344 2.699 A 1.66 1.66 0 0 0 100.165 2.689 A 1.253 1.253 0 0 0 99.75 2.756 A 1.123 1.123 0 0 0 99.47 2.9 A 1.432 1.432 0 0 0 99.004 3.454 L 99.004 6.842 L 98.191 6.842 L 98.191 2.087 Z M 115.888 2.087 L 116.657 2.087 L 116.684 2.685 Q 117.22 2.01 118.08 2 A 2.234 2.234 0 0 1 118.107 2 A 1.905 1.905 0 0 1 118.741 2.096 Q 119.583 2.392 119.626 3.598 A 3.668 3.668 0 0 1 119.628 3.7 L 119.628 6.842 L 118.815 6.842 L 118.815 3.696 A 1.837 1.837 0 0 0 118.793 3.416 Q 118.743 3.109 118.58 2.936 Q 118.394 2.737 118.04 2.699 A 1.66 1.66 0 0 0 117.861 2.689 A 1.253 1.253 0 0 0 117.447 2.756 A 1.123 1.123 0 0 0 117.167 2.9 A 1.432 1.432 0 0 0 116.701 3.454 L 116.701 6.842 L 115.888 6.842 L 115.888 2.087 Z M 113.88 6.842 L 113.862 6.372 A 1.526 1.526 0 0 1 113.036 6.867 Q 112.786 6.928 112.488 6.93 A 2.996 2.996 0 0 1 112.469 6.93 A 2.086 2.086 0 0 1 112.009 6.883 Q 111.578 6.785 111.311 6.489 A 1.41 1.41 0 0 1 111.028 5.991 Q 110.912 5.648 110.909 5.181 L 110.909 2.087 L 111.722 2.087 L 111.722 5.159 Q 111.722 6.129 112.43 6.229 A 1.229 1.229 0 0 0 112.601 6.24 A 1.927 1.927 0 0 0 113.052 6.191 Q 113.614 6.056 113.84 5.546 L 113.84 2.087 L 114.653 2.087 L 114.653 6.842 L 113.88 6.842 Z M 81.993 2.663 L 79.343 6.179 L 82.125 6.179 L 82.125 6.842 L 78.35 6.842 L 78.35 6.245 L 80.974 2.76 L 78.39 2.76 L 78.39 2.087 L 81.993 2.087 L 81.993 2.663 Z M 11.518 6.842 L 10.666 6.842 A 0.632 0.632 0 0 1 10.63 6.752 Q 10.599 6.654 10.574 6.502 A 3.997 3.997 0 0 1 10.551 6.341 Q 9.984 6.93 9.198 6.93 A 2.033 2.033 0 0 1 8.668 6.865 A 1.529 1.529 0 0 1 8.044 6.532 Q 7.594 6.135 7.594 5.524 Q 7.594 4.781 8.158 4.37 Q 8.723 3.959 9.747 3.959 L 10.538 3.959 L 10.538 3.586 A 1.152 1.152 0 0 0 10.502 3.291 A 0.828 0.828 0 0 0 10.283 2.907 Q 10.067 2.693 9.677 2.66 A 1.748 1.748 0 0 0 9.532 2.654 Q 9.097 2.654 8.802 2.874 Q 8.508 3.094 8.508 3.406 L 7.69 3.406 A 1.041 1.041 0 0 1 7.815 2.917 A 1.409 1.409 0 0 1 7.943 2.718 Q 8.196 2.386 8.629 2.193 A 2.249 2.249 0 0 1 9.404 2.005 A 2.669 2.669 0 0 1 9.58 2 A 2.65 2.65 0 0 1 10.098 2.047 Q 10.405 2.108 10.644 2.248 A 1.439 1.439 0 0 1 10.868 2.41 A 1.396 1.396 0 0 1 11.321 3.236 A 1.998 1.998 0 0 1 11.351 3.542 L 11.351 5.73 Q 11.351 6.165 11.425 6.482 A 1.707 1.707 0 0 0 11.518 6.772 L 11.518 6.842 Z M 29.558 6.842 L 28.705 6.842 A 0.632 0.632 0 0 1 28.67 6.752 Q 28.638 6.654 28.614 6.502 A 3.997 3.997 0 0 1 28.591 6.341 Q 28.024 6.93 27.237 6.93 A 2.033 2.033 0 0 1 26.708 6.865 A 1.529 1.529 0 0 1 26.084 6.532 Q 25.633 6.135 25.633 5.524 Q 25.633 4.781 26.198 4.37 Q 26.763 3.959 27.787 3.959 L 28.578 3.959 L 28.578 3.586 A 1.152 1.152 0 0 0 28.542 3.291 A 0.828 0.828 0 0 0 28.323 2.907 Q 28.106 2.693 27.716 2.66 A 1.748 1.748 0 0 0 27.571 2.654 Q 27.136 2.654 26.842 2.874 Q 26.547 3.094 26.547 3.406 L 25.73 3.406 A 1.041 1.041 0 0 1 25.855 2.917 A 1.409 1.409 0 0 1 25.983 2.718 Q 26.235 2.386 26.668 2.193 A 2.249 2.249 0 0 1 27.444 2.005 A 2.669 2.669 0 0 1 27.62 2 A 2.65 2.65 0 0 1 28.137 2.047 Q 28.444 2.108 28.683 2.248 A 1.439 1.439 0 0 1 28.907 2.41 A 1.396 1.396 0 0 1 29.361 3.236 A 1.998 1.998 0 0 1 29.391 3.542 L 29.391 5.73 Q 29.391 6.165 29.464 6.482 A 1.707 1.707 0 0 0 29.558 6.772 L 29.558 6.842 Z M 86.827 6.842 L 85.975 6.842 A 0.632 0.632 0 0 1 85.939 6.752 Q 85.908 6.654 85.883 6.502 A 3.997 3.997 0 0 1 85.86 6.341 Q 85.293 6.93 84.507 6.93 A 2.033 2.033 0 0 1 83.978 6.865 A 1.529 1.529 0 0 1 83.353 6.532 Q 82.903 6.135 82.903 5.524 Q 82.903 4.781 83.468 4.37 Q 84.032 3.959 85.056 3.959 L 85.847 3.959 L 85.847 3.586 A 1.152 1.152 0 0 0 85.811 3.291 A 0.828 0.828 0 0 0 85.592 2.907 Q 85.376 2.693 84.986 2.66 A 1.748 1.748 0 0 0 84.841 2.654 Q 84.406 2.654 84.111 2.874 Q 83.817 3.094 83.817 3.406 L 83 3.406 A 1.041 1.041 0 0 1 83.124 2.917 A 1.409 1.409 0 0 1 83.252 2.718 Q 83.505 2.386 83.938 2.193 A 2.249 2.249 0 0 1 84.713 2.005 A 2.669 2.669 0 0 1 84.889 2 A 2.65 2.65 0 0 1 85.407 2.047 Q 85.714 2.108 85.953 2.248 A 1.439 1.439 0 0 1 86.177 2.41 A 1.396 1.396 0 0 1 86.63 3.236 A 1.998 1.998 0 0 1 86.66 3.542 L 86.66 5.73 Q 86.66 6.165 86.734 6.482 A 1.707 1.707 0 0 0 86.827 6.772 L 86.827 6.842 Z M 58.342 4.487 L 58.342 4.425 A 3.762 3.762 0 0 1 58.409 3.694 Q 58.496 3.252 58.699 2.904 A 2.148 2.148 0 0 1 58.86 2.665 Q 59.379 2 60.218 2 A 1.964 1.964 0 0 1 60.816 2.086 A 1.559 1.559 0 0 1 61.541 2.571 L 61.541 0.092 L 62.354 0.092 L 62.354 6.842 L 61.607 6.842 L 61.567 6.333 Q 61.08 6.93 60.209 6.93 A 1.6 1.6 0 0 1 58.989 6.403 A 2.078 2.078 0 0 1 58.863 6.253 A 2.405 2.405 0 0 1 58.438 5.347 Q 58.354 5.004 58.343 4.603 A 4.425 4.425 0 0 1 58.342 4.487 Z M 38.347 4.597 L 38.347 4.447 A 3.17 3.17 0 0 1 38.423 3.738 A 2.581 2.581 0 0 1 38.617 3.184 A 2.191 2.191 0 0 1 39.064 2.558 A 2.033 2.033 0 0 1 39.373 2.314 Q 39.858 2 40.425 2 A 2.254 2.254 0 0 1 41.038 2.078 A 1.639 1.639 0 0 1 41.867 2.61 Q 42.381 3.221 42.381 4.359 L 42.381 4.698 L 39.16 4.698 A 2.111 2.111 0 0 0 39.231 5.206 A 1.516 1.516 0 0 0 39.571 5.834 A 1.282 1.282 0 0 0 40.505 6.265 A 1.652 1.652 0 0 0 40.57 6.267 A 1.763 1.763 0 0 0 40.898 6.238 Q 41.122 6.195 41.3 6.091 A 1.827 1.827 0 0 0 41.809 5.643 A 2.068 2.068 0 0 0 41.823 5.625 L 42.319 6.012 A 1.926 1.926 0 0 1 40.92 6.903 A 2.749 2.749 0 0 1 40.526 6.93 A 2.394 2.394 0 0 1 39.775 6.817 A 1.974 1.974 0 0 1 38.953 6.295 Q 38.347 5.66 38.347 4.597 Z M 63.409 4.597 L 63.409 4.447 A 3.17 3.17 0 0 1 63.485 3.738 A 2.581 2.581 0 0 1 63.679 3.184 A 2.191 2.191 0 0 1 64.126 2.558 A 2.033 2.033 0 0 1 64.435 2.314 Q 64.92 2 65.487 2 A 2.254 2.254 0 0 1 66.1 2.078 A 1.639 1.639 0 0 1 66.929 2.61 Q 67.443 3.221 67.443 4.359 L 67.443 4.698 L 64.222 4.698 A 2.111 2.111 0 0 0 64.293 5.206 A 1.516 1.516 0 0 0 64.633 5.834 A 1.282 1.282 0 0 0 65.567 6.265 A 1.652 1.652 0 0 0 65.632 6.267 A 1.763 1.763 0 0 0 65.96 6.238 Q 66.184 6.195 66.362 6.091 A 1.827 1.827 0 0 0 66.871 5.643 A 2.068 2.068 0 0 0 66.885 5.625 L 67.381 6.012 A 1.926 1.926 0 0 1 65.982 6.903 A 2.749 2.749 0 0 1 65.588 6.93 A 2.394 2.394 0 0 1 64.837 6.817 A 1.974 1.974 0 0 1 64.015 6.295 Q 63.409 5.66 63.409 4.597 Z M 133.66 4.597 L 133.66 4.447 A 3.17 3.17 0 0 1 133.736 3.738 A 2.581 2.581 0 0 1 133.93 3.184 A 2.191 2.191 0 0 1 134.377 2.558 A 2.033 2.033 0 0 1 134.686 2.314 Q 135.171 2 135.738 2 A 2.254 2.254 0 0 1 136.351 2.078 A 1.639 1.639 0 0 1 137.18 2.61 Q 137.694 3.221 137.694 4.359 L 137.694 4.698 L 134.473 4.698 A 2.111 2.111 0 0 0 134.544 5.206 A 1.516 1.516 0 0 0 134.884 5.834 A 1.282 1.282 0 0 0 135.818 6.265 A 1.652 1.652 0 0 0 135.883 6.267 A 1.763 1.763 0 0 0 136.211 6.238 Q 136.435 6.195 136.613 6.091 A 1.827 1.827 0 0 0 137.122 5.643 A 2.068 2.068 0 0 0 137.136 5.625 L 137.632 6.012 A 1.926 1.926 0 0 1 136.233 6.903 A 2.749 2.749 0 0 1 135.839 6.93 A 2.394 2.394 0 0 1 135.088 6.817 A 1.974 1.974 0 0 1 134.266 6.295 Q 133.66 5.66 133.66 4.597 Z M 154.173 0.444 L 154.173 6.152 L 157.206 6.152 L 157.206 6.842 L 153.325 6.842 L 153.325 0.444 L 154.173 0.444 Z M 20.988 6.842 L 20.175 6.842 L 20.175 2.716 L 19.424 2.716 L 19.424 2.087 L 20.175 2.087 L 20.175 1.6 Q 20.175 1.012 20.417 0.629 A 1.273 1.273 0 0 1 20.584 0.417 Q 20.993 0 21.74 0 A 2.134 2.134 0 0 1 22.298 0.075 L 22.254 0.734 Q 22.047 0.694 21.814 0.694 A 1.086 1.086 0 0 0 21.566 0.721 Q 21.346 0.773 21.204 0.925 A 0.747 0.747 0 0 0 21.037 1.221 Q 21.002 1.336 20.992 1.475 A 1.57 1.57 0 0 0 20.988 1.586 L 20.988 2.087 L 22.003 2.087 L 22.003 2.716 L 20.988 2.716 L 20.988 6.842 Z M 144.211 0.444 L 144.211 4.693 L 145.099 4.693 L 145.099 5.357 L 144.211 5.357 L 144.211 6.842 L 143.394 6.842 L 143.394 5.357 L 140.48 5.357 L 140.48 4.878 L 143.345 0.444 L 144.211 0.444 Z M 149.609 2.684 A 1.544 1.544 0 0 0 149.713 2.114 A 2.226 2.226 0 0 0 149.691 1.799 A 1.566 1.566 0 0 0 149.192 0.831 A 1.754 1.754 0 0 0 148.426 0.426 A 2.443 2.443 0 0 0 147.828 0.356 A 2.539 2.539 0 0 0 147.318 0.405 A 1.767 1.767 0 0 0 146.461 0.831 Q 145.942 1.305 145.942 2.114 A 1.808 1.808 0 0 0 145.943 2.151 A 1.499 1.499 0 0 0 146.188 2.962 A 1.626 1.626 0 0 0 146.35 3.169 A 1.726 1.726 0 0 0 146.861 3.546 A 2.119 2.119 0 0 0 146.761 3.592 A 1.738 1.738 0 0 0 146.076 4.179 A 1.629 1.629 0 0 0 145.793 5.115 A 2.272 2.272 0 0 0 145.803 5.329 A 1.63 1.63 0 0 0 146.349 6.436 A 1.895 1.895 0 0 0 147.199 6.864 A 2.797 2.797 0 0 0 147.828 6.93 A 2.796 2.796 0 0 0 148.427 6.869 A 1.925 1.925 0 0 0 149.302 6.438 A 1.578 1.578 0 0 0 149.777 5.712 A 1.989 1.989 0 0 0 149.862 5.115 A 1.581 1.581 0 0 0 149.57 4.179 Q 149.278 3.766 148.777 3.551 Q 149.208 3.34 149.46 2.966 A 1.449 1.449 0 0 0 149.609 2.684 Z M 88.225 0.936 L 89.038 0.936 L 89.038 2.087 L 89.925 2.087 L 89.925 2.716 L 89.038 2.716 L 89.038 5.665 Q 89.038 5.95 89.156 6.093 Q 89.275 6.236 89.561 6.236 A 1.046 1.046 0 0 0 89.658 6.231 Q 89.761 6.221 89.901 6.193 A 4.024 4.024 0 0 0 89.947 6.183 L 89.947 6.842 A 2.463 2.463 0 0 1 89.514 6.922 A 2.157 2.157 0 0 1 89.323 6.93 Q 88.876 6.93 88.609 6.708 A 0.856 0.856 0 0 1 88.501 6.601 Q 88.274 6.33 88.233 5.872 A 2.351 2.351 0 0 1 88.225 5.665 L 88.225 2.716 L 87.359 2.716 L 87.359 2.087 L 88.225 2.087 L 88.225 0.936 Z M 121.144 0.936 L 121.957 0.936 L 121.957 2.087 L 122.845 2.087 L 122.845 2.716 L 121.957 2.716 L 121.957 5.665 Q 121.957 5.95 122.076 6.093 Q 122.194 6.236 122.48 6.236 A 1.046 1.046 0 0 0 122.577 6.231 Q 122.68 6.221 122.82 6.193 A 4.024 4.024 0 0 0 122.867 6.183 L 122.867 6.842 A 2.463 2.463 0 0 1 122.434 6.922 A 2.157 2.157 0 0 1 122.243 6.93 Q 121.796 6.93 121.529 6.708 A 0.856 0.856 0 0 1 121.421 6.601 Q 121.193 6.33 121.153 5.872 A 2.351 2.351 0 0 1 121.144 5.665 L 121.144 2.716 L 120.278 2.716 L 120.278 2.087 L 121.144 2.087 L 121.144 0.936 Z M 170.521 0.936 L 171.334 0.936 L 171.334 2.087 L 172.222 2.087 L 172.222 2.716 L 171.334 2.716 L 171.334 5.665 Q 171.334 5.95 171.453 6.093 Q 171.571 6.236 171.857 6.236 A 1.046 1.046 0 0 0 171.954 6.231 Q 172.057 6.221 172.197 6.193 A 4.024 4.024 0 0 0 172.244 6.183 L 172.244 6.842 A 2.463 2.463 0 0 1 171.811 6.922 A 2.157 2.157 0 0 1 171.62 6.93 Q 171.173 6.93 170.906 6.708 A 0.856 0.856 0 0 1 170.798 6.601 Q 170.57 6.33 170.53 5.872 A 2.351 2.351 0 0 1 170.521 5.665 L 170.521 2.716 L 169.655 2.716 L 169.655 2.087 L 170.521 2.087 L 170.521 0.936 Z M 53.191 4.478 L 53.191 4.421 A 3.057 3.057 0 0 1 53.278 3.679 A 2.573 2.573 0 0 1 53.466 3.164 A 2.16 2.16 0 0 1 53.881 2.579 A 1.957 1.957 0 0 1 54.231 2.303 A 2.036 2.036 0 0 1 55.175 2.006 A 2.491 2.491 0 0 1 55.349 2 A 2.277 2.277 0 0 1 56.102 2.119 A 1.937 1.937 0 0 1 56.92 2.672 A 2.29 2.29 0 0 1 57.439 3.701 A 3.373 3.373 0 0 1 57.52 4.46 L 57.52 4.518 A 3.114 3.114 0 0 1 57.441 5.234 A 2.577 2.577 0 0 1 57.254 5.763 A 2.056 2.056 0 0 1 56.727 6.454 A 2.001 2.001 0 0 1 56.494 6.623 A 2.045 2.045 0 0 1 55.574 6.921 A 2.529 2.529 0 0 1 55.358 6.93 A 2.262 2.262 0 0 1 54.607 6.811 A 1.938 1.938 0 0 1 53.791 6.258 A 2.297 2.297 0 0 1 53.266 5.203 A 3.357 3.357 0 0 1 53.191 4.478 Z M 92.843 4.478 L 92.843 4.421 A 3.057 3.057 0 0 1 92.93 3.679 A 2.573 2.573 0 0 1 93.118 3.164 A 2.16 2.16 0 0 1 93.533 2.579 A 1.957 1.957 0 0 1 93.883 2.303 A 2.036 2.036 0 0 1 94.827 2.006 A 2.491 2.491 0 0 1 95.001 2 A 2.277 2.277 0 0 1 95.754 2.119 A 1.937 1.937 0 0 1 96.572 2.672 A 2.29 2.29 0 0 1 97.091 3.701 A 3.373 3.373 0 0 1 97.172 4.46 L 97.172 4.518 A 3.114 3.114 0 0 1 97.092 5.234 A 2.577 2.577 0 0 1 96.906 5.763 A 2.056 2.056 0 0 1 96.379 6.454 A 2.001 2.001 0 0 1 96.146 6.623 A 2.045 2.045 0 0 1 95.226 6.921 A 2.529 2.529 0 0 1 95.01 6.93 A 2.262 2.262 0 0 1 94.259 6.811 A 1.938 1.938 0 0 1 93.443 6.258 A 2.297 2.297 0 0 1 92.917 5.203 A 3.357 3.357 0 0 1 92.843 4.478 Z M 25.198 2.061 L 25.198 2.817 A 2.251 2.251 0 0 0 24.956 2.79 A 2.782 2.782 0 0 0 24.798 2.786 Q 24.021 2.786 23.729 3.43 A 1.445 1.445 0 0 0 23.713 3.467 L 23.713 6.842 L 22.9 6.842 L 22.9 2.087 L 23.691 2.087 L 23.704 2.637 Q 24.084 2.031 24.767 2.001 A 1.636 1.636 0 0 1 24.838 2 Q 25.075 2 25.198 2.061 Z M 70.682 2.061 L 70.682 2.817 A 2.251 2.251 0 0 0 70.439 2.79 A 2.782 2.782 0 0 0 70.282 2.786 Q 69.504 2.786 69.212 3.43 A 1.445 1.445 0 0 0 69.196 3.467 L 69.196 6.842 L 68.383 6.842 L 68.383 2.087 L 69.174 2.087 L 69.188 2.637 Q 69.568 2.031 70.25 2.001 A 1.636 1.636 0 0 1 70.321 2 Q 70.559 2 70.682 2.061 Z M 13.509 2.087 L 13.509 6.842 L 12.696 6.842 L 12.696 2.087 L 13.509 2.087 Z M 77.278 2.087 L 77.278 6.842 L 76.465 6.842 L 76.465 2.087 L 77.278 2.087 Z M 91.758 2.087 L 91.758 6.842 L 90.945 6.842 L 90.945 2.087 L 91.758 2.087 Z M 124.677 2.087 L 124.677 6.842 L 123.864 6.842 L 123.864 2.087 L 124.677 2.087 Z M 158.924 2.087 L 158.924 6.842 L 158.111 6.842 L 158.111 2.087 L 158.924 2.087 Z M 54.009 4.518 A 2.772 2.772 0 0 0 54.056 5.046 Q 54.117 5.357 54.254 5.602 A 1.545 1.545 0 0 0 54.376 5.788 Q 54.743 6.267 55.358 6.267 A 1.269 1.269 0 0 0 55.847 6.175 Q 56.127 6.06 56.329 5.798 A 1.471 1.471 0 0 0 56.342 5.781 A 1.648 1.648 0 0 0 56.597 5.264 Q 56.666 5.037 56.692 4.764 A 3.655 3.655 0 0 0 56.707 4.421 A 2.687 2.687 0 0 0 56.656 3.881 Q 56.588 3.551 56.431 3.292 A 1.586 1.586 0 0 0 56.336 3.153 A 1.231 1.231 0 0 0 55.921 2.798 Q 55.668 2.667 55.349 2.667 Q 54.759 2.667 54.393 3.127 A 1.515 1.515 0 0 0 54.378 3.146 A 1.589 1.589 0 0 0 54.126 3.644 Q 54.056 3.864 54.028 4.131 A 3.676 3.676 0 0 0 54.009 4.518 Z M 93.661 4.518 A 2.772 2.772 0 0 0 93.708 5.046 Q 93.768 5.357 93.906 5.602 A 1.545 1.545 0 0 0 94.028 5.788 Q 94.395 6.267 95.01 6.267 A 1.269 1.269 0 0 0 95.499 6.175 Q 95.779 6.06 95.981 5.798 A 1.471 1.471 0 0 0 95.994 5.781 A 1.648 1.648 0 0 0 96.249 5.264 Q 96.318 5.037 96.343 4.764 A 3.655 3.655 0 0 0 96.359 4.421 A 2.687 2.687 0 0 0 96.308 3.881 Q 96.24 3.551 96.083 3.292 A 1.586 1.586 0 0 0 95.988 3.153 A 1.231 1.231 0 0 0 95.573 2.798 Q 95.319 2.667 95.001 2.667 Q 94.411 2.667 94.045 3.127 A 1.515 1.515 0 0 0 94.03 3.146 A 1.589 1.589 0 0 0 93.778 3.644 Q 93.708 3.864 93.68 4.131 A 3.676 3.676 0 0 0 93.661 4.518 Z M 61.541 5.546 L 61.541 3.362 A 1.375 1.375 0 0 0 61.229 2.966 Q 60.905 2.689 60.42 2.689 A 1.238 1.238 0 0 0 59.994 2.76 A 1.068 1.068 0 0 0 59.489 3.151 A 1.51 1.51 0 0 0 59.28 3.577 Q 59.214 3.781 59.183 4.031 A 3.955 3.955 0 0 0 59.155 4.518 A 3.162 3.162 0 0 0 59.191 5.01 Q 59.232 5.271 59.32 5.481 A 1.474 1.474 0 0 0 59.489 5.783 A 1.06 1.06 0 0 0 60.251 6.231 A 1.391 1.391 0 0 0 60.412 6.24 Q 61.185 6.24 61.541 5.546 Z M 163.23 5.542 L 163.23 3.371 A 1.439 1.439 0 0 0 162.93 2.983 Q 162.626 2.712 162.185 2.691 A 1.578 1.578 0 0 0 162.11 2.689 Q 161.518 2.689 161.184 3.149 A 1.51 1.51 0 0 0 160.973 3.577 Q 160.908 3.781 160.877 4.031 A 3.955 3.955 0 0 0 160.849 4.518 Q 160.849 5.322 161.178 5.781 Q 161.508 6.24 162.101 6.24 A 1.32 1.32 0 0 0 162.611 6.146 Q 163.002 5.984 163.23 5.542 Z M 106.356 1.138 L 106.356 3.564 L 107.653 3.564 Q 108.193 3.564 108.543 3.324 A 1.174 1.174 0 0 0 108.653 3.239 A 1.069 1.069 0 0 0 109.018 2.501 A 1.486 1.486 0 0 0 109.024 2.369 Q 109.024 1.826 108.728 1.515 A 1 1 0 0 0 108.67 1.459 Q 108.316 1.143 107.648 1.138 L 106.356 1.138 Z M 143.297 1.731 L 141.403 4.693 L 143.394 4.693 L 143.394 1.556 L 143.297 1.731 Z M 149.049 5.098 A 1.375 1.375 0 0 0 148.99 4.684 A 1.109 1.109 0 0 0 148.709 4.223 A 1.148 1.148 0 0 0 148.037 3.899 A 1.593 1.593 0 0 0 147.819 3.885 A 1.466 1.466 0 0 0 147.43 3.934 A 1.086 1.086 0 0 0 146.938 4.219 A 1.123 1.123 0 0 0 146.624 4.854 A 1.572 1.572 0 0 0 146.606 5.098 A 1.48 1.48 0 0 0 146.648 5.459 A 1.019 1.019 0 0 0 146.929 5.955 Q 147.235 6.25 147.768 6.266 A 2.053 2.053 0 0 0 147.828 6.267 Q 148.321 6.267 148.631 6.032 A 1.018 1.018 0 0 0 148.724 5.952 A 1.041 1.041 0 0 0 149.024 5.384 A 1.518 1.518 0 0 0 149.049 5.098 Z M 147.828 1.024 A 1.259 1.259 0 0 0 147.475 1.071 A 0.973 0.973 0 0 0 147.052 1.321 Q 146.755 1.617 146.755 2.127 A 1.325 1.325 0 0 0 146.8 2.48 A 0.994 0.994 0 0 0 147.048 2.916 A 0.974 0.974 0 0 0 147.61 3.2 A 1.382 1.382 0 0 0 147.828 3.217 A 1.279 1.279 0 0 0 148.172 3.173 A 0.952 0.952 0 0 0 148.608 2.916 A 1.018 1.018 0 0 0 148.883 2.352 A 1.426 1.426 0 0 0 148.9 2.127 A 1.282 1.282 0 0 0 148.85 1.76 A 1.013 1.013 0 0 0 148.597 1.332 Q 148.293 1.024 147.828 1.024 Z M 10.538 5.511 L 10.538 4.535 L 9.901 4.535 Q 8.407 4.535 8.407 5.41 Q 8.407 5.792 8.662 6.007 A 0.893 0.893 0 0 0 9.075 6.201 A 1.259 1.259 0 0 0 9.316 6.223 A 1.429 1.429 0 0 0 10.042 6.025 A 1.335 1.335 0 0 0 10.337 5.797 A 1.108 1.108 0 0 0 10.538 5.511 Z M 28.578 5.511 L 28.578 4.535 L 27.94 4.535 Q 26.446 4.535 26.446 5.41 Q 26.446 5.792 26.701 6.007 A 0.893 0.893 0 0 0 27.115 6.201 A 1.259 1.259 0 0 0 27.356 6.223 A 1.429 1.429 0 0 0 28.081 6.025 A 1.335 1.335 0 0 0 28.377 5.797 A 1.108 1.108 0 0 0 28.578 5.511 Z M 85.847 5.511 L 85.847 4.535 L 85.21 4.535 Q 83.716 4.535 83.716 5.41 Q 83.716 5.792 83.971 6.007 A 0.893 0.893 0 0 0 84.384 6.201 A 1.259 1.259 0 0 0 84.625 6.223 A 1.429 1.429 0 0 0 85.351 6.025 A 1.335 1.335 0 0 0 85.646 5.797 A 1.108 1.108 0 0 0 85.847 5.511 Z M 39.186 4.03 L 41.568 4.03 L 41.568 3.968 Q 41.542 3.509 41.371 3.204 A 1.13 1.13 0 0 0 41.234 3.008 A 0.983 0.983 0 0 0 40.579 2.676 A 1.39 1.39 0 0 0 40.425 2.667 A 1.106 1.106 0 0 0 39.903 2.79 A 1.14 1.14 0 0 0 39.599 3.026 A 1.417 1.417 0 0 0 39.322 3.472 Q 39.249 3.656 39.209 3.878 A 2.741 2.741 0 0 0 39.186 4.03 Z M 64.248 4.03 L 66.63 4.03 L 66.63 3.968 Q 66.604 3.509 66.433 3.204 A 1.13 1.13 0 0 0 66.296 3.008 A 0.983 0.983 0 0 0 65.641 2.676 A 1.39 1.39 0 0 0 65.487 2.667 A 1.106 1.106 0 0 0 64.965 2.79 A 1.14 1.14 0 0 0 64.661 3.026 A 1.417 1.417 0 0 0 64.384 3.472 Q 64.311 3.656 64.271 3.878 A 2.741 2.741 0 0 0 64.248 4.03 Z M 134.499 4.03 L 136.881 4.03 L 136.881 3.968 Q 136.855 3.509 136.684 3.204 A 1.13 1.13 0 0 0 136.547 3.008 A 0.983 0.983 0 0 0 135.892 2.676 A 1.39 1.39 0 0 0 135.738 2.667 A 1.106 1.106 0 0 0 135.216 2.79 A 1.14 1.14 0 0 0 134.912 3.026 A 1.417 1.417 0 0 0 134.635 3.472 Q 134.562 3.656 134.522 3.878 A 2.741 2.741 0 0 0 134.499 4.03 Z M 12.63 0.826 Q 12.63 0.628 12.751 0.492 Q 12.863 0.366 13.074 0.357 A 0.783 0.783 0 0 1 13.109 0.356 Q 13.346 0.356 13.469 0.492 A 0.474 0.474 0 0 1 13.592 0.796 A 0.614 0.614 0 0 1 13.592 0.826 A 0.523 0.523 0 0 1 13.567 0.992 A 0.442 0.442 0 0 1 13.469 1.156 Q 13.357 1.276 13.149 1.287 A 0.803 0.803 0 0 1 13.109 1.288 Q 12.937 1.288 12.826 1.218 A 0.362 0.362 0 0 1 12.751 1.156 A 0.456 0.456 0 0 1 12.632 0.88 A 0.605 0.605 0 0 1 12.63 0.826 Z M 76.399 0.826 Q 76.399 0.628 76.52 0.492 Q 76.632 0.366 76.843 0.357 A 0.783 0.783 0 0 1 76.878 0.356 Q 77.115 0.356 77.238 0.492 A 0.474 0.474 0 0 1 77.361 0.796 A 0.614 0.614 0 0 1 77.361 0.826 A 0.523 0.523 0 0 1 77.336 0.992 A 0.442 0.442 0 0 1 77.238 1.156 Q 77.126 1.276 76.918 1.287 A 0.803 0.803 0 0 1 76.878 1.288 Q 76.706 1.288 76.595 1.218 A 0.362 0.362 0 0 1 76.52 1.156 A 0.456 0.456 0 0 1 76.401 0.88 A 0.605 0.605 0 0 1 76.399 0.826 Z M 90.879 0.826 Q 90.879 0.628 91 0.492 Q 91.112 0.366 91.323 0.357 A 0.783 0.783 0 0 1 91.358 0.356 Q 91.595 0.356 91.718 0.492 A 0.474 0.474 0 0 1 91.841 0.796 A 0.614 0.614 0 0 1 91.841 0.826 A 0.523 0.523 0 0 1 91.816 0.992 A 0.442 0.442 0 0 1 91.718 1.156 Q 91.606 1.276 91.398 1.287 A 0.803 0.803 0 0 1 91.358 1.288 Q 91.186 1.288 91.075 1.218 A 0.362 0.362 0 0 1 91 1.156 A 0.456 0.456 0 0 1 90.881 0.88 A 0.605 0.605 0 0 1 90.879 0.826 Z M 123.798 0.826 Q 123.798 0.628 123.919 0.492 Q 124.031 0.366 124.243 0.357 A 0.783 0.783 0 0 1 124.277 0.356 Q 124.515 0.356 124.638 0.492 A 0.474 0.474 0 0 1 124.76 0.796 A 0.614 0.614 0 0 1 124.761 0.826 A 0.523 0.523 0 0 1 124.735 0.992 A 0.442 0.442 0 0 1 124.638 1.156 Q 124.525 1.276 124.317 1.287 A 0.803 0.803 0 0 1 124.277 1.288 Q 124.105 1.288 123.994 1.218 A 0.362 0.362 0 0 1 123.919 1.156 A 0.456 0.456 0 0 1 123.801 0.88 A 0.605 0.605 0 0 1 123.798 0.826 Z M 158.045 0.826 Q 158.045 0.628 158.166 0.492 Q 158.278 0.366 158.489 0.357 A 0.783 0.783 0 0 1 158.524 0.356 Q 158.761 0.356 158.884 0.492 A 0.474 0.474 0 0 1 159.007 0.796 A 0.614 0.614 0 0 1 159.007 0.826 A 0.523 0.523 0 0 1 158.982 0.992 A 0.442 0.442 0 0 1 158.884 1.156 Q 158.772 1.276 158.564 1.287 A 0.803 0.803 0 0 1 158.524 1.288 Q 158.352 1.288 158.241 1.218 A 0.362 0.362 0 0 1 158.166 1.156 A 0.456 0.456 0 0 1 158.047 0.88 A 0.605 0.605 0 0 1 158.045 0.826 Z" vector-effect="non-scaling-stroke"/></g>
</svgversion="1.0" encoding="UTF-8"?>
<svg width="48px" height="48px" viewBox="0 0 48 48" version="1.1" xmlns="http://www.w3.org/2000/svg" xmlns:xlink="http://www.w3.org/1999/xlink">
    <title>Icon-Resource/Migration-and-Transfer/Res_AWS-Mainframe-Modernization_Runtime_48_Light</title>
    <g id="Icon-Resource/Migration-and-Transfer/Res_AWS-Mainframe-Modernization_Runtime_48" stroke="none" stroke-width="1" fill="none" fill-rule="evenodd">
        <path transform="translate(12.000000, 8.000000), scale(.65)" d="M28.743,12 L22.343,17 L28.743,22 L39.673,22 L46.072,17 L39.673,12 L28.743,12 Z M25.591,17 L29.432,14 L38.984,14 L42.824,17 L38.984,20 L29.432,20 L25.591,17 Z M8.001,14 L22,14 L22,12 L8.001,12 L8.001,14 Z M3,18 L19,18 L19,16 L3,16 L3,18 Z M12,22 L23,22 L23,20 L12,20 L12,22 Z M22.743,27 L16.343,32 L22.743,37 L33.673,37 L40.073,32 L33.673,27 L22.743,27 Z M19.591,32 L23.432,29 L32.984,29 L36.825,32 L32.984,35 L23.432,35 L19.591,32 Z M9.001,29 L17.001,29 L17.001,27 L9.001,27 L9.001,29 Z M2,33.001 L13,33.001 L13,31 L2,31 L2,33.001 Z M5,37 L17.001,37 L17.001,35 L5,35 L5,37 Z" id="Fill-1" fill="#000000"></path>
    </g><g transform="translate(25, 83)" id="svgGroup" stroke-linecap="round" fill-rule="evenodd" font-size="9pt" stroke="#000" stroke-width="0.25mm" fill="#000" style="stroke:#000;stroke-width:0.25mm;fill:#000"><path d="M 23.12 0.088 L 24.13 4.469 L 24.253 5.313 L 24.434 4.553 L 25.699 0.088 L 26.411 0.088 L 27.646 4.553 L 27.822 5.326 L 27.958 4.465 L 28.951 0.088 L 29.799 0.088 L 28.248 6.486 L 27.479 6.486 L 26.161 1.824 L 26.06 1.336 L 25.958 1.824 L 24.592 6.486 L 23.823 6.486 L 22.276 0.088 L 23.12 0.088 Z M 34.98 1.938 L 34.132 1.938 A 1.466 1.466 0 0 0 34.083 1.546 A 1.066 1.066 0 0 0 33.763 1.026 A 1.211 1.211 0 0 0 33.294 0.77 Q 33.042 0.694 32.722 0.694 A 2.286 2.286 0 0 0 32.342 0.724 Q 32.14 0.758 31.977 0.831 A 1.101 1.101 0 0 0 31.748 0.969 A 0.892 0.892 0 0 0 31.403 1.624 A 1.267 1.267 0 0 0 31.399 1.732 A 0.806 0.806 0 0 0 31.667 2.337 A 1.134 1.134 0 0 0 31.731 2.393 A 1.562 1.562 0 0 0 31.969 2.549 Q 32.299 2.73 32.86 2.887 A 8.228 8.228 0 0 1 33.325 3.032 Q 33.56 3.113 33.754 3.2 A 3.297 3.297 0 0 1 34.108 3.382 A 2.342 2.342 0 0 1 34.447 3.626 Q 34.637 3.792 34.759 3.985 A 1.45 1.45 0 0 1 34.776 4.012 A 1.498 1.498 0 0 1 34.972 4.568 A 1.948 1.948 0 0 1 34.994 4.86 A 1.606 1.606 0 0 1 34.871 5.497 Q 34.726 5.838 34.408 6.09 A 1.886 1.886 0 0 1 34.387 6.106 Q 33.781 6.574 32.766 6.574 A 3.023 3.023 0 0 1 31.625 6.36 A 2.917 2.917 0 0 1 31.535 6.322 A 2.383 2.383 0 0 1 31.057 6.044 A 1.874 1.874 0 0 1 30.654 5.629 A 1.689 1.689 0 0 1 30.344 4.632 L 31.192 4.632 A 1.261 1.261 0 0 0 31.262 5.059 A 1.074 1.074 0 0 0 31.621 5.548 Q 32.005 5.85 32.622 5.881 A 2.87 2.87 0 0 0 32.766 5.884 A 2.628 2.628 0 0 0 33.153 5.858 Q 33.349 5.828 33.508 5.767 A 1.129 1.129 0 0 0 33.79 5.612 Q 34.146 5.339 34.146 4.869 A 1.074 1.074 0 0 0 34.103 4.559 A 0.816 0.816 0 0 0 33.816 4.142 Q 33.486 3.885 32.621 3.634 Q 31.535 3.322 31.041 2.868 Q 30.546 2.413 30.546 1.745 Q 30.546 0.989 31.151 0.494 A 2.121 2.121 0 0 1 32.041 0.071 A 3.087 3.087 0 0 1 32.722 0 A 2.913 2.913 0 0 1 33.382 0.072 A 2.372 2.372 0 0 1 33.897 0.255 A 2.051 2.051 0 0 1 34.428 0.626 A 1.834 1.834 0 0 1 34.697 0.958 A 1.798 1.798 0 0 1 34.98 1.938 Z M 3.74 6.486 L 2.351 3.898 L 0.848 3.898 L 0.848 6.486 L 0 6.486 L 0 0.088 L 2.118 0.088 A 3.809 3.809 0 0 1 2.76 0.138 Q 3.102 0.197 3.376 0.324 A 1.789 1.789 0 0 1 3.781 0.58 A 1.588 1.588 0 0 1 4.307 1.469 A 2.453 2.453 0 0 1 4.364 2.013 A 1.864 1.864 0 0 1 4.273 2.604 A 1.64 1.64 0 0 1 4.041 3.054 A 1.849 1.849 0 0 1 3.382 3.611 A 2.342 2.342 0 0 1 3.142 3.718 L 4.645 6.434 L 4.645 6.486 L 3.74 6.486 Z M 13.724 3.129 L 12.907 3.129 Q 12.907 2.795 12.623 2.553 Q 12.34 2.312 11.909 2.312 Q 11.465 2.312 11.215 2.505 A 0.653 0.653 0 0 0 11.04 2.704 Q 10.967 2.835 10.964 3 A 0.771 0.771 0 0 0 10.964 3.01 A 0.588 0.588 0 0 0 10.994 3.203 A 0.48 0.48 0 0 0 11.197 3.454 A 1.093 1.093 0 0 0 11.348 3.533 Q 11.512 3.605 11.767 3.673 A 6.581 6.581 0 0 0 12.039 3.74 A 6.318 6.318 0 0 1 12.446 3.845 Q 12.783 3.944 13.025 4.065 A 1.901 1.901 0 0 1 13.281 4.218 Q 13.418 4.315 13.516 4.429 A 1.06 1.06 0 0 1 13.586 4.52 A 1.024 1.024 0 0 1 13.748 4.927 A 1.388 1.388 0 0 1 13.768 5.168 Q 13.768 5.805 13.258 6.19 Q 12.776 6.554 12.022 6.573 A 3.337 3.337 0 0 1 11.936 6.574 A 2.746 2.746 0 0 1 11.401 6.525 A 2.124 2.124 0 0 1 10.925 6.372 A 1.771 1.771 0 0 1 10.491 6.094 A 1.54 1.54 0 0 1 10.237 5.807 Q 9.989 5.445 9.989 5.023 L 10.802 5.023 A 0.932 0.932 0 0 0 10.875 5.348 A 0.827 0.827 0 0 0 11.129 5.671 A 1.072 1.072 0 0 0 11.531 5.864 Q 11.686 5.903 11.867 5.91 A 2.013 2.013 0 0 0 11.936 5.911 A 1.863 1.863 0 0 0 12.231 5.889 Q 12.393 5.863 12.524 5.806 A 0.941 0.941 0 0 0 12.676 5.724 A 0.689 0.689 0 0 0 12.841 5.574 A 0.554 0.554 0 0 0 12.955 5.225 A 0.698 0.698 0 0 0 12.919 4.994 A 0.581 0.581 0 0 0 12.707 4.713 A 1.05 1.05 0 0 0 12.538 4.615 Q 12.349 4.524 12.054 4.449 A 5.392 5.392 0 0 0 11.841 4.399 A 6.342 6.342 0 0 1 11.48 4.311 Q 11.11 4.209 10.861 4.083 Q 10.562 3.93 10.392 3.731 A 1.017 1.017 0 0 1 10.325 3.643 Q 10.151 3.388 10.151 3.037 A 1.206 1.206 0 0 1 10.55 2.132 A 1.694 1.694 0 0 1 10.646 2.048 A 1.752 1.752 0 0 1 11.429 1.688 A 2.471 2.471 0 0 1 11.909 1.644 A 2.559 2.559 0 0 1 12.473 1.702 A 1.757 1.757 0 0 1 13.221 2.061 Q 13.724 2.479 13.724 3.129 Z M 21.327 6.486 L 20.716 4.816 L 18.035 4.816 L 17.433 6.486 L 16.563 6.486 L 19.006 0.088 L 19.745 0.088 L 22.192 6.486 L 21.327 6.486 Z M 5.212 4.241 L 5.212 4.091 A 3.17 3.17 0 0 1 5.288 3.382 A 2.581 2.581 0 0 1 5.482 2.828 A 2.191 2.191 0 0 1 5.93 2.202 A 2.033 2.033 0 0 1 6.238 1.958 Q 6.724 1.644 7.291 1.644 A 2.254 2.254 0 0 1 7.904 1.723 A 1.639 1.639 0 0 1 8.732 2.254 Q 9.246 2.865 9.246 4.003 L 9.246 4.342 L 6.025 4.342 A 2.111 2.111 0 0 0 6.096 4.85 A 1.516 1.516 0 0 0 6.436 5.478 A 1.282 1.282 0 0 0 7.37 5.909 A 1.652 1.652 0 0 0 7.436 5.911 A 1.763 1.763 0 0 0 7.764 5.882 Q 7.988 5.839 8.165 5.735 A 1.827 1.827 0 0 0 8.674 5.287 A 2.068 2.068 0 0 0 8.688 5.269 L 9.185 5.656 A 1.926 1.926 0 0 1 7.785 6.547 A 2.749 2.749 0 0 1 7.392 6.574 A 2.394 2.394 0 0 1 6.64 6.461 A 1.974 1.974 0 0 1 5.818 5.939 Q 5.212 5.304 5.212 4.241 Z M 0.848 0.782 L 0.848 3.208 L 2.145 3.208 Q 2.685 3.208 3.035 2.968 A 1.174 1.174 0 0 0 3.144 2.883 A 1.069 1.069 0 0 0 3.51 2.146 A 1.486 1.486 0 0 0 3.516 2.013 Q 3.516 1.47 3.22 1.159 A 1 1 0 0 0 3.162 1.103 Q 2.808 0.787 2.14 0.782 L 0.848 0.782 Z M 19.375 1.129 L 18.29 4.122 L 20.465 4.122 L 19.375 1.129 Z M 6.051 3.674 L 8.433 3.674 L 8.433 3.612 Q 8.407 3.153 8.236 2.848 A 1.13 1.13 0 0 0 8.099 2.652 A 0.983 0.983 0 0 0 7.445 2.32 A 1.39 1.39 0 0 0 7.291 2.312 A 1.106 1.106 0 0 0 6.768 2.435 A 1.14 1.14 0 0 0 6.464 2.67 A 1.417 1.417 0 0 0 6.188 3.116 Q 6.114 3.3 6.074 3.522 A 2.741 2.741 0 0 0 6.051 3.674 Z" vector-effect="non-scaling-stroke"/></g><g transform="translate(25, 93)" id="svgGroup" stroke-linecap="round" fill-rule="evenodd" font-size="9pt" stroke="#000" stroke-width="0.25mm" fill="#000" style="stroke:#000;stroke-width:0.25mm;fill:#000"><path d="M 0 0.444 L 1.09 0.444 L 3.182 5.665 L 5.273 0.444 L 6.368 0.444 L 6.368 6.842 L 5.524 6.842 L 5.524 4.351 L 5.603 1.661 L 3.502 6.842 L 2.856 6.842 L 0.76 1.674 L 0.844 4.351 L 0.844 6.842 L 0 6.842 L 0 0.444 Z M 45.677 0.444 L 46.767 0.444 L 48.858 5.665 L 50.95 0.444 L 52.044 0.444 L 52.044 6.842 L 51.201 6.842 L 51.201 4.351 L 51.28 1.661 L 49.179 6.842 L 48.533 6.842 L 46.437 1.674 L 46.521 4.351 L 46.521 6.842 L 45.677 6.842 L 45.677 0.444 Z M 30.661 2.087 L 31.43 2.087 L 31.452 2.615 Q 31.975 2 32.862 2 A 2.009 2.009 0 0 1 33.373 2.06 A 1.244 1.244 0 0 1 34.22 2.764 A 1.801 1.801 0 0 1 34.838 2.21 A 1.65 1.65 0 0 1 35.367 2.029 A 2.209 2.209 0 0 1 35.736 2 A 2.119 2.119 0 0 1 36.38 2.089 Q 37.307 2.385 37.327 3.656 L 37.327 6.842 L 36.514 6.842 L 36.514 3.705 A 1.781 1.781 0 0 0 36.494 3.425 Q 36.47 3.277 36.42 3.159 A 0.758 0.758 0 0 0 36.281 2.942 A 0.68 0.68 0 0 0 36.028 2.774 Q 35.817 2.69 35.5 2.689 A 1.245 1.245 0 0 0 35.134 2.741 A 1.008 1.008 0 0 0 34.748 2.96 A 1.042 1.042 0 0 0 34.434 3.496 A 1.41 1.41 0 0 0 34.4 3.687 L 34.4 6.842 L 33.583 6.842 L 33.583 3.727 A 1.532 1.532 0 0 0 33.534 3.322 Q 33.408 2.86 32.95 2.735 A 1.457 1.457 0 0 0 32.568 2.689 Q 31.794 2.689 31.493 3.327 A 1.459 1.459 0 0 0 31.474 3.371 L 31.474 6.842 L 30.661 6.842 L 30.661 2.087 Z M 125.974 2.087 L 126.743 2.087 L 126.765 2.615 Q 127.288 2 128.175 2 A 2.009 2.009 0 0 1 128.686 2.06 A 1.244 1.244 0 0 1 129.533 2.764 A 1.801 1.801 0 0 1 130.151 2.21 A 1.65 1.65 0 0 1 130.68 2.029 A 2.209 2.209 0 0 1 131.049 2 A 2.119 2.119 0 0 1 131.693 2.089 Q 132.62 2.385 132.64 3.656 L 132.64 6.842 L 131.827 6.842 L 131.827 3.705 A 1.781 1.781 0 0 0 131.807 3.425 Q 131.783 3.277 131.733 3.159 A 0.758 0.758 0 0 0 131.594 2.942 A 0.68 0.68 0 0 0 131.341 2.774 Q 131.13 2.69 130.813 2.689 A 1.245 1.245 0 0 0 130.447 2.741 A 1.008 1.008 0 0 0 130.061 2.96 A 1.042 1.042 0 0 0 129.747 3.496 A 1.41 1.41 0 0 0 129.713 3.687 L 129.713 6.842 L 128.896 6.842 L 128.896 3.727 A 1.532 1.532 0 0 0 128.847 3.322 Q 128.721 2.86 128.263 2.735 A 1.457 1.457 0 0 0 127.881 2.689 Q 127.107 2.689 126.806 3.327 A 1.459 1.459 0 0 0 126.787 3.371 L 126.787 6.842 L 125.974 6.842 L 125.974 2.087 Z M 166.087 0.092 L 166.087 2.663 A 1.767 1.767 0 0 1 166.753 2.145 A 1.832 1.832 0 0 1 167.493 2 A 1.905 1.905 0 0 1 168.127 2.096 Q 168.969 2.392 169.011 3.598 A 3.668 3.668 0 0 1 169.014 3.7 L 169.014 6.842 L 168.201 6.842 L 168.201 3.696 A 1.837 1.837 0 0 0 168.178 3.416 Q 168.128 3.109 167.966 2.936 Q 167.779 2.737 167.426 2.699 A 1.66 1.66 0 0 0 167.247 2.689 A 1.253 1.253 0 0 0 166.833 2.756 A 1.123 1.123 0 0 0 166.553 2.9 A 1.432 1.432 0 0 0 166.087 3.454 L 166.087 6.842 L 165.274 6.842 L 165.274 0.092 L 166.087 0.092 Z M 109.248 6.842 L 107.859 4.254 L 106.356 4.254 L 106.356 6.842 L 105.508 6.842 L 105.508 0.444 L 107.626 0.444 A 3.809 3.809 0 0 1 108.268 0.494 Q 108.61 0.553 108.884 0.68 A 1.789 1.789 0 0 1 109.29 0.936 A 1.588 1.588 0 0 1 109.815 1.825 A 2.453 2.453 0 0 1 109.872 2.369 A 1.864 1.864 0 0 1 109.781 2.96 A 1.64 1.64 0 0 1 109.549 3.41 A 1.849 1.849 0 0 1 108.89 3.967 A 2.342 2.342 0 0 1 108.65 4.074 L 110.153 6.79 L 110.153 6.842 L 109.248 6.842 Z M 163.266 2.615 L 163.305 2.087 L 164.048 2.087 L 164.048 6.728 A 2.511 2.511 0 0 1 163.977 7.341 A 1.738 1.738 0 0 1 163.501 8.183 A 1.834 1.834 0 0 1 162.571 8.662 A 2.671 2.671 0 0 1 162.031 8.714 A 2.446 2.446 0 0 1 161.024 8.495 A 2.003 2.003 0 0 1 160.614 8.253 A 1.563 1.563 0 0 1 160.273 7.893 L 160.695 7.405 A 1.889 1.889 0 0 0 161.129 7.805 A 1.514 1.514 0 0 0 161.974 8.051 A 1.695 1.695 0 0 0 162.351 8.011 Q 162.619 7.95 162.813 7.794 A 1.037 1.037 0 0 0 162.899 7.717 A 1.09 1.09 0 0 0 163.176 7.224 Q 163.223 7.051 163.229 6.845 A 2.134 2.134 0 0 0 163.23 6.776 L 163.23 6.368 A 1.601 1.601 0 0 1 162.178 6.914 A 2.279 2.279 0 0 1 161.899 6.93 A 1.672 1.672 0 0 1 161.144 6.762 Q 160.822 6.602 160.572 6.289 A 2.14 2.14 0 0 1 160.548 6.258 A 2.316 2.316 0 0 1 160.164 5.478 Q 160.031 5.014 160.031 4.425 Q 160.031 3.564 160.34 2.976 A 2.096 2.096 0 0 1 160.545 2.656 Q 161.06 2 161.908 2 A 1.971 1.971 0 0 1 162.507 2.086 A 1.55 1.55 0 0 1 163.266 2.615 Z M 14.81 2.087 L 15.579 2.087 L 15.605 2.685 Q 16.141 2.01 17.001 2 A 2.234 2.234 0 0 1 17.029 2 A 1.905 1.905 0 0 1 17.662 2.096 Q 18.504 2.392 18.547 3.598 A 3.668 3.668 0 0 1 18.549 3.7 L 18.549 6.842 L 17.736 6.842 L 17.736 3.696 A 1.837 1.837 0 0 0 17.714 3.416 Q 17.664 3.109 17.501 2.936 Q 17.315 2.737 16.962 2.699 A 1.66 1.66 0 0 0 16.783 2.689 A 1.253 1.253 0 0 0 16.368 2.756 A 1.123 1.123 0 0 0 16.088 2.9 A 1.432 1.432 0 0 0 15.623 3.454 L 15.623 6.842 L 14.81 6.842 L 14.81 2.087 Z M 71.429 2.087 L 72.198 2.087 L 72.224 2.685 Q 72.76 2.01 73.62 2 A 2.234 2.234 0 0 1 73.648 2 A 1.905 1.905 0 0 1 74.281 2.096 Q 75.123 2.392 75.166 3.598 A 3.668 3.668 0 0 1 75.168 3.7 L 75.168 6.842 L 74.355 6.842 L 74.355 3.696 A 1.837 1.837 0 0 0 74.333 3.416 Q 74.283 3.109 74.12 2.936 Q 73.934 2.737 73.581 2.699 A 1.66 1.66 0 0 0 73.402 2.689 A 1.253 1.253 0 0 0 72.987 2.756 A 1.123 1.123 0 0 0 72.708 2.9 A 1.432 1.432 0 0 0 72.242 3.454 L 72.242 6.842 L 71.429 6.842 L 71.429 2.087 Z M 98.191 2.087 L 98.96 2.087 L 98.987 2.685 Q 99.523 2.01 100.383 2 A 2.234 2.234 0 0 1 100.411 2 A 1.905 1.905 0 0 1 101.044 2.096 Q 101.886 2.392 101.929 3.598 A 3.668 3.668 0 0 1 101.931 3.7 L 101.931 6.842 L 101.118 6.842 L 101.118 3.696 A 1.837 1.837 0 0 0 101.096 3.416 Q 101.046 3.109 100.883 2.936 Q 100.697 2.737 100.344 2.699 A 1.66 1.66 0 0 0 100.165 2.689 A 1.253 1.253 0 0 0 99.75 2.756 A 1.123 1.123 0 0 0 99.47 2.9 A 1.432 1.432 0 0 0 99.004 3.454 L 99.004 6.842 L 98.191 6.842 L 98.191 2.087 Z M 115.888 2.087 L 116.657 2.087 L 116.684 2.685 Q 117.22 2.01 118.08 2 A 2.234 2.234 0 0 1 118.107 2 A 1.905 1.905 0 0 1 118.741 2.096 Q 119.583 2.392 119.626 3.598 A 3.668 3.668 0 0 1 119.628 3.7 L 119.628 6.842 L 118.815 6.842 L 118.815 3.696 A 1.837 1.837 0 0 0 118.793 3.416 Q 118.743 3.109 118.58 2.936 Q 118.394 2.737 118.04 2.699 A 1.66 1.66 0 0 0 117.861 2.689 A 1.253 1.253 0 0 0 117.447 2.756 A 1.123 1.123 0 0 0 117.167 2.9 A 1.432 1.432 0 0 0 116.701 3.454 L 116.701 6.842 L 115.888 6.842 L 115.888 2.087 Z M 113.88 6.842 L 113.862 6.372 A 1.526 1.526 0 0 1 113.036 6.867 Q 112.786 6.928 112.488 6.93 A 2.996 2.996 0 0 1 112.469 6.93 A 2.086 2.086 0 0 1 112.009 6.883 Q 111.578 6.785 111.311 6.489 A 1.41 1.41 0 0 1 111.028 5.991 Q 110.912 5.648 110.909 5.181 L 110.909 2.087 L 111.722 2.087 L 111.722 5.159 Q 111.722 6.129 112.43 6.229 A 1.229 1.229 0 0 0 112.601 6.24 A 1.927 1.927 0 0 0 113.052 6.191 Q 113.614 6.056 113.84 5.546 L 113.84 2.087 L 114.653 2.087 L 114.653 6.842 L 113.88 6.842 Z M 81.993 2.663 L 79.343 6.179 L 82.125 6.179 L 82.125 6.842 L 78.35 6.842 L 78.35 6.245 L 80.974 2.76 L 78.39 2.76 L 78.39 2.087 L 81.993 2.087 L 81.993 2.663 Z M 11.518 6.842 L 10.666 6.842 A 0.632 0.632 0 0 1 10.63 6.752 Q 10.599 6.654 10.574 6.502 A 3.997 3.997 0 0 1 10.551 6.341 Q 9.984 6.93 9.198 6.93 A 2.033 2.033 0 0 1 8.668 6.865 A 1.529 1.529 0 0 1 8.044 6.532 Q 7.594 6.135 7.594 5.524 Q 7.594 4.781 8.158 4.37 Q 8.723 3.959 9.747 3.959 L 10.538 3.959 L 10.538 3.586 A 1.152 1.152 0 0 0 10.502 3.291 A 0.828 0.828 0 0 0 10.283 2.907 Q 10.067 2.693 9.677 2.66 A 1.748 1.748 0 0 0 9.532 2.654 Q 9.097 2.654 8.802 2.874 Q 8.508 3.094 8.508 3.406 L 7.69 3.406 A 1.041 1.041 0 0 1 7.815 2.917 A 1.409 1.409 0 0 1 7.943 2.718 Q 8.196 2.386 8.629 2.193 A 2.249 2.249 0 0 1 9.404 2.005 A 2.669 2.669 0 0 1 9.58 2 A 2.65 2.65 0 0 1 10.098 2.047 Q 10.405 2.108 10.644 2.248 A 1.439 1.439 0 0 1 10.868 2.41 A 1.396 1.396 0 0 1 11.321 3.236 A 1.998 1.998 0 0 1 11.351 3.542 L 11.351 5.73 Q 11.351 6.165 11.425 6.482 A 1.707 1.707 0 0 0 11.518 6.772 L 11.518 6.842 Z M 29.558 6.842 L 28.705 6.842 A 0.632 0.632 0 0 1 28.67 6.752 Q 28.638 6.654 28.614 6.502 A 3.997 3.997 0 0 1 28.591 6.341 Q 28.024 6.93 27.237 6.93 A 2.033 2.033 0 0 1 26.708 6.865 A 1.529 1.529 0 0 1 26.084 6.532 Q 25.633 6.135 25.633 5.524 Q 25.633 4.781 26.198 4.37 Q 26.763 3.959 27.787 3.959 L 28.578 3.959 L 28.578 3.586 A 1.152 1.152 0 0 0 28.542 3.291 A 0.828 0.828 0 0 0 28.323 2.907 Q 28.106 2.693 27.716 2.66 A 1.748 1.748 0 0 0 27.571 2.654 Q 27.136 2.654 26.842 2.874 Q 26.547 3.094 26.547 3.406 L 25.73 3.406 A 1.041 1.041 0 0 1 25.855 2.917 A 1.409 1.409 0 0 1 25.983 2.718 Q 26.235 2.386 26.668 2.193 A 2.249 2.249 0 0 1 27.444 2.005 A 2.669 2.669 0 0 1 27.62 2 A 2.65 2.65 0 0 1 28.137 2.047 Q 28.444 2.108 28.683 2.248 A 1.439 1.439 0 0 1 28.907 2.41 A 1.396 1.396 0 0 1 29.361 3.236 A 1.998 1.998 0 0 1 29.391 3.542 L 29.391 5.73 Q 29.391 6.165 29.464 6.482 A 1.707 1.707 0 0 0 29.558 6.772 L 29.558 6.842 Z M 86.827 6.842 L 85.975 6.842 A 0.632 0.632 0 0 1 85.939 6.752 Q 85.908 6.654 85.883 6.502 A 3.997 3.997 0 0 1 85.86 6.341 Q 85.293 6.93 84.507 6.93 A 2.033 2.033 0 0 1 83.978 6.865 A 1.529 1.529 0 0 1 83.353 6.532 Q 82.903 6.135 82.903 5.524 Q 82.903 4.781 83.468 4.37 Q 84.032 3.959 85.056 3.959 L 85.847 3.959 L 85.847 3.586 A 1.152 1.152 0 0 0 85.811 3.291 A 0.828 0.828 0 0 0 85.592 2.907 Q 85.376 2.693 84.986 2.66 A 1.748 1.748 0 0 0 84.841 2.654 Q 84.406 2.654 84.111 2.874 Q 83.817 3.094 83.817 3.406 L 83 3.406 A 1.041 1.041 0 0 1 83.124 2.917 A 1.409 1.409 0 0 1 83.252 2.718 Q 83.505 2.386 83.938 2.193 A 2.249 2.249 0 0 1 84.713 2.005 A 2.669 2.669 0 0 1 84.889 2 A 2.65 2.65 0 0 1 85.407 2.047 Q 85.714 2.108 85.953 2.248 A 1.439 1.439 0 0 1 86.177 2.41 A 1.396 1.396 0 0 1 86.63 3.236 A 1.998 1.998 0 0 1 86.66 3.542 L 86.66 5.73 Q 86.66 6.165 86.734 6.482 A 1.707 1.707 0 0 0 86.827 6.772 L 86.827 6.842 Z M 58.342 4.487 L 58.342 4.425 A 3.762 3.762 0 0 1 58.409 3.694 Q 58.496 3.252 58.699 2.904 A 2.148 2.148 0 0 1 58.86 2.665 Q 59.379 2 60.218 2 A 1.964 1.964 0 0 1 60.816 2.086 A 1.559 1.559 0 0 1 61.541 2.571 L 61.541 0.092 L 62.354 0.092 L 62.354 6.842 L 61.607 6.842 L 61.567 6.333 Q 61.08 6.93 60.209 6.93 A 1.6 1.6 0 0 1 58.989 6.403 A 2.078 2.078 0 0 1 58.863 6.253 A 2.405 2.405 0 0 1 58.438 5.347 Q 58.354 5.004 58.343 4.603 A 4.425 4.425 0 0 1 58.342 4.487 Z M 38.347 4.597 L 38.347 4.447 A 3.17 3.17 0 0 1 38.423 3.738 A 2.581 2.581 0 0 1 38.617 3.184 A 2.191 2.191 0 0 1 39.064 2.558 A 2.033 2.033 0 0 1 39.373 2.314 Q 39.858 2 40.425 2 A 2.254 2.254 0 0 1 41.038 2.078 A 1.639 1.639 0 0 1 41.867 2.61 Q 42.381 3.221 42.381 4.359 L 42.381 4.698 L 39.16 4.698 A 2.111 2.111 0 0 0 39.231 5.206 A 1.516 1.516 0 0 0 39.571 5.834 A 1.282 1.282 0 0 0 40.505 6.265 A 1.652 1.652 0 0 0 40.57 6.267 A 1.763 1.763 0 0 0 40.898 6.238 Q 41.122 6.195 41.3 6.091 A 1.827 1.827 0 0 0 41.809 5.643 A 2.068 2.068 0 0 0 41.823 5.625 L 42.319 6.012 A 1.926 1.926 0 0 1 40.92 6.903 A 2.749 2.749 0 0 1 40.526 6.93 A 2.394 2.394 0 0 1 39.775 6.817 A 1.974 1.974 0 0 1 38.953 6.295 Q 38.347 5.66 38.347 4.597 Z M 63.409 4.597 L 63.409 4.447 A 3.17 3.17 0 0 1 63.485 3.738 A 2.581 2.581 0 0 1 63.679 3.184 A 2.191 2.191 0 0 1 64.126 2.558 A 2.033 2.033 0 0 1 64.435 2.314 Q 64.92 2 65.487 2 A 2.254 2.254 0 0 1 66.1 2.078 A 1.639 1.639 0 0 1 66.929 2.61 Q 67.443 3.221 67.443 4.359 L 67.443 4.698 L 64.222 4.698 A 2.111 2.111 0 0 0 64.293 5.206 A 1.516 1.516 0 0 0 64.633 5.834 A 1.282 1.282 0 0 0 65.567 6.265 A 1.652 1.652 0 0 0 65.632 6.267 A 1.763 1.763 0 0 0 65.96 6.238 Q 66.184 6.195 66.362 6.091 A 1.827 1.827 0 0 0 66.871 5.643 A 2.068 2.068 0 0 0 66.885 5.625 L 67.381 6.012 A 1.926 1.926 0 0 1 65.982 6.903 A 2.749 2.749 0 0 1 65.588 6.93 A 2.394 2.394 0 0 1 64.837 6.817 A 1.974 1.974 0 0 1 64.015 6.295 Q 63.409 5.66 63.409 4.597 Z M 133.66 4.597 L 133.66 4.447 A 3.17 3.17 0 0 1 133.736 3.738 A 2.581 2.581 0 0 1 133.93 3.184 A 2.191 2.191 0 0 1 134.377 2.558 A 2.033 2.033 0 0 1 134.686 2.314 Q 135.171 2 135.738 2 A 2.254 2.254 0 0 1 136.351 2.078 A 1.639 1.639 0 0 1 137.18 2.61 Q 137.694 3.221 137.694 4.359 L 137.694 4.698 L 134.473 4.698 A 2.111 2.111 0 0 0 134.544 5.206 A 1.516 1.516 0 0 0 134.884 5.834 A 1.282 1.282 0 0 0 135.818 6.265 A 1.652 1.652 0 0 0 135.883 6.267 A 1.763 1.763 0 0 0 136.211 6.238 Q 136.435 6.195 136.613 6.091 A 1.827 1.827 0 0 0 137.122 5.643 A 2.068 2.068 0 0 0 137.136 5.625 L 137.632 6.012 A 1.926 1.926 0 0 1 136.233 6.903 A 2.749 2.749 0 0 1 135.839 6.93 A 2.394 2.394 0 0 1 135.088 6.817 A 1.974 1.974 0 0 1 134.266 6.295 Q 133.66 5.66 133.66 4.597 Z M 154.173 0.444 L 154.173 6.152 L 157.206 6.152 L 157.206 6.842 L 153.325 6.842 L 153.325 0.444 L 154.173 0.444 Z M 20.988 6.842 L 20.175 6.842 L 20.175 2.716 L 19.424 2.716 L 19.424 2.087 L 20.175 2.087 L 20.175 1.6 Q 20.175 1.012 20.417 0.629 A 1.273 1.273 0 0 1 20.584 0.417 Q 20.993 0 21.74 0 A 2.134 2.134 0 0 1 22.298 0.075 L 22.254 0.734 Q 22.047 0.694 21.814 0.694 A 1.086 1.086 0 0 0 21.566 0.721 Q 21.346 0.773 21.204 0.925 A 0.747 0.747 0 0 0 21.037 1.221 Q 21.002 1.336 20.992 1.475 A 1.57 1.57 0 0 0 20.988 1.586 L 20.988 2.087 L 22.003 2.087 L 22.003 2.716 L 20.988 2.716 L 20.988 6.842 Z M 144.211 0.444 L 144.211 4.693 L 145.099 4.693 L 145.099 5.357 L 144.211 5.357 L 144.211 6.842 L 143.394 6.842 L 143.394 5.357 L 140.48 5.357 L 140.48 4.878 L 143.345 0.444 L 144.211 0.444 Z M 149.609 2.684 A 1.544 1.544 0 0 0 149.713 2.114 A 2.226 2.226 0 0 0 149.691 1.799 A 1.566 1.566 0 0 0 149.192 0.831 A 1.754 1.754 0 0 0 148.426 0.426 A 2.443 2.443 0 0 0 147.828 0.356 A 2.539 2.539 0 0 0 147.318 0.405 A 1.767 1.767 0 0 0 146.461 0.831 Q 145.942 1.305 145.942 2.114 A 1.808 1.808 0 0 0 145.943 2.151 A 1.499 1.499 0 0 0 146.188 2.962 A 1.626 1.626 0 0 0 146.35 3.169 A 1.726 1.726 0 0 0 146.861 3.546 A 2.119 2.119 0 0 0 146.761 3.592 A 1.738 1.738 0 0 0 146.076 4.179 A 1.629 1.629 0 0 0 145.793 5.115 A 2.272 2.272 0 0 0 145.803 5.329 A 1.63 1.63 0 0 0 146.349 6.436 A 1.895 1.895 0 0 0 147.199 6.864 A 2.797 2.797 0 0 0 147.828 6.93 A 2.796 2.796 0 0 0 148.427 6.869 A 1.925 1.925 0 0 0 149.302 6.438 A 1.578 1.578 0 0 0 149.777 5.712 A 1.989 1.989 0 0 0 149.862 5.115 A 1.581 1.581 0 0 0 149.57 4.179 Q 149.278 3.766 148.777 3.551 Q 149.208 3.34 149.46 2.966 A 1.449 1.449 0 0 0 149.609 2.684 Z M 88.225 0.936 L 89.038 0.936 L 89.038 2.087 L 89.925 2.087 L 89.925 2.716 L 89.038 2.716 L 89.038 5.665 Q 89.038 5.95 89.156 6.093 Q 89.275 6.236 89.561 6.236 A 1.046 1.046 0 0 0 89.658 6.231 Q 89.761 6.221 89.901 6.193 A 4.024 4.024 0 0 0 89.947 6.183 L 89.947 6.842 A 2.463 2.463 0 0 1 89.514 6.922 A 2.157 2.157 0 0 1 89.323 6.93 Q 88.876 6.93 88.609 6.708 A 0.856 0.856 0 0 1 88.501 6.601 Q 88.274 6.33 88.233 5.872 A 2.351 2.351 0 0 1 88.225 5.665 L 88.225 2.716 L 87.359 2.716 L 87.359 2.087 L 88.225 2.087 L 88.225 0.936 Z M 121.144 0.936 L 121.957 0.936 L 121.957 2.087 L 122.845 2.087 L 122.845 2.716 L 121.957 2.716 L 121.957 5.665 Q 121.957 5.95 122.076 6.093 Q 122.194 6.236 122.48 6.236 A 1.046 1.046 0 0 0 122.577 6.231 Q 122.68 6.221 122.82 6.193 A 4.024 4.024 0 0 0 122.867 6.183 L 122.867 6.842 A 2.463 2.463 0 0 1 122.434 6.922 A 2.157 2.157 0 0 1 122.243 6.93 Q 121.796 6.93 121.529 6.708 A 0.856 0.856 0 0 1 121.421 6.601 Q 121.193 6.33 121.153 5.872 A 2.351 2.351 0 0 1 121.144 5.665 L 121.144 2.716 L 120.278 2.716 L 120.278 2.087 L 121.144 2.087 L 121.144 0.936 Z M 170.521 0.936 L 171.334 0.936 L 171.334 2.087 L 172.222 2.087 L 172.222 2.716 L 171.334 2.716 L 171.334 5.665 Q 171.334 5.95 171.453 6.093 Q 171.571 6.236 171.857 6.236 A 1.046 1.046 0 0 0 171.954 6.231 Q 172.057 6.221 172.197 6.193 A 4.024 4.024 0 0 0 172.244 6.183 L 172.244 6.842 A 2.463 2.463 0 0 1 171.811 6.922 A 2.157 2.157 0 0 1 171.62 6.93 Q 171.173 6.93 170.906 6.708 A 0.856 0.856 0 0 1 170.798 6.601 Q 170.57 6.33 170.53 5.872 A 2.351 2.351 0 0 1 170.521 5.665 L 170.521 2.716 L 169.655 2.716 L 169.655 2.087 L 170.521 2.087 L 170.521 0.936 Z M 53.191 4.478 L 53.191 4.421 A 3.057 3.057 0 0 1 53.278 3.679 A 2.573 2.573 0 0 1 53.466 3.164 A 2.16 2.16 0 0 1 53.881 2.579 A 1.957 1.957 0 0 1 54.231 2.303 A 2.036 2.036 0 0 1 55.175 2.006 A 2.491 2.491 0 0 1 55.349 2 A 2.277 2.277 0 0 1 56.102 2.119 A 1.937 1.937 0 0 1 56.92 2.672 A 2.29 2.29 0 0 1 57.439 3.701 A 3.373 3.373 0 0 1 57.52 4.46 L 57.52 4.518 A 3.114 3.114 0 0 1 57.441 5.234 A 2.577 2.577 0 0 1 57.254 5.763 A 2.056 2.056 0 0 1 56.727 6.454 A 2.001 2.001 0 0 1 56.494 6.623 A 2.045 2.045 0 0 1 55.574 6.921 A 2.529 2.529 0 0 1 55.358 6.93 A 2.262 2.262 0 0 1 54.607 6.811 A 1.938 1.938 0 0 1 53.791 6.258 A 2.297 2.297 0 0 1 53.266 5.203 A 3.357 3.357 0 0 1 53.191 4.478 Z M 92.843 4.478 L 92.843 4.421 A 3.057 3.057 0 0 1 92.93 3.679 A 2.573 2.573 0 0 1 93.118 3.164 A 2.16 2.16 0 0 1 93.533 2.579 A 1.957 1.957 0 0 1 93.883 2.303 A 2.036 2.036 0 0 1 94.827 2.006 A 2.491 2.491 0 0 1 95.001 2 A 2.277 2.277 0 0 1 95.754 2.119 A 1.937 1.937 0 0 1 96.572 2.672 A 2.29 2.29 0 0 1 97.091 3.701 A 3.373 3.373 0 0 1 97.172 4.46 L 97.172 4.518 A 3.114 3.114 0 0 1 97.092 5.234 A 2.577 2.577 0 0 1 96.906 5.763 A 2.056 2.056 0 0 1 96.379 6.454 A 2.001 2.001 0 0 1 96.146 6.623 A 2.045 2.045 0 0 1 95.226 6.921 A 2.529 2.529 0 0 1 95.01 6.93 A 2.262 2.262 0 0 1 94.259 6.811 A 1.938 1.938 0 0 1 93.443 6.258 A 2.297 2.297 0 0 1 92.917 5.203 A 3.357 3.357 0 0 1 92.843 4.478 Z M 25.198 2.061 L 25.198 2.817 A 2.251 2.251 0 0 0 24.956 2.79 A 2.782 2.782 0 0 0 24.798 2.786 Q 24.021 2.786 23.729 3.43 A 1.445 1.445 0 0 0 23.713 3.467 L 23.713 6.842 L 22.9 6.842 L 22.9 2.087 L 23.691 2.087 L 23.704 2.637 Q 24.084 2.031 24.767 2.001 A 1.636 1.636 0 0 1 24.838 2 Q 25.075 2 25.198 2.061 Z M 70.682 2.061 L 70.682 2.817 A 2.251 2.251 0 0 0 70.439 2.79 A 2.782 2.782 0 0 0 70.282 2.786 Q 69.504 2.786 69.212 3.43 A 1.445 1.445 0 0 0 69.196 3.467 L 69.196 6.842 L 68.383 6.842 L 68.383 2.087 L 69.174 2.087 L 69.188 2.637 Q 69.568 2.031 70.25 2.001 A 1.636 1.636 0 0 1 70.321 2 Q 70.559 2 70.682 2.061 Z M 13.509 2.087 L 13.509 6.842 L 12.696 6.842 L 12.696 2.087 L 13.509 2.087 Z M 77.278 2.087 L 77.278 6.842 L 76.465 6.842 L 76.465 2.087 L 77.278 2.087 Z M 91.758 2.087 L 91.758 6.842 L 90.945 6.842 L 90.945 2.087 L 91.758 2.087 Z M 124.677 2.087 L 124.677 6.842 L 123.864 6.842 L 123.864 2.087 L 124.677 2.087 Z M 158.924 2.087 L 158.924 6.842 L 158.111 6.842 L 158.111 2.087 L 158.924 2.087 Z M 54.009 4.518 A 2.772 2.772 0 0 0 54.056 5.046 Q 54.117 5.357 54.254 5.602 A 1.545 1.545 0 0 0 54.376 5.788 Q 54.743 6.267 55.358 6.267 A 1.269 1.269 0 0 0 55.847 6.175 Q 56.127 6.06 56.329 5.798 A 1.471 1.471 0 0 0 56.342 5.781 A 1.648 1.648 0 0 0 56.597 5.264 Q 56.666 5.037 56.692 4.764 A 3.655 3.655 0 0 0 56.707 4.421 A 2.687 2.687 0 0 0 56.656 3.881 Q 56.588 3.551 56.431 3.292 A 1.586 1.586 0 0 0 56.336 3.153 A 1.231 1.231 0 0 0 55.921 2.798 Q 55.668 2.667 55.349 2.667 Q 54.759 2.667 54.393 3.127 A 1.515 1.515 0 0 0 54.378 3.146 A 1.589 1.589 0 0 0 54.126 3.644 Q 54.056 3.864 54.028 4.131 A 3.676 3.676 0 0 0 54.009 4.518 Z M 93.661 4.518 A 2.772 2.772 0 0 0 93.708 5.046 Q 93.768 5.357 93.906 5.602 A 1.545 1.545 0 0 0 94.028 5.788 Q 94.395 6.267 95.01 6.267 A 1.269 1.269 0 0 0 95.499 6.175 Q 95.779 6.06 95.981 5.798 A 1.471 1.471 0 0 0 95.994 5.781 A 1.648 1.648 0 0 0 96.249 5.264 Q 96.318 5.037 96.343 4.764 A 3.655 3.655 0 0 0 96.359 4.421 A 2.687 2.687 0 0 0 96.308 3.881 Q 96.24 3.551 96.083 3.292 A 1.586 1.586 0 0 0 95.988 3.153 A 1.231 1.231 0 0 0 95.573 2.798 Q 95.319 2.667 95.001 2.667 Q 94.411 2.667 94.045 3.127 A 1.515 1.515 0 0 0 94.03 3.146 A 1.589 1.589 0 0 0 93.778 3.644 Q 93.708 3.864 93.68 4.131 A 3.676 3.676 0 0 0 93.661 4.518 Z M 61.541 5.546 L 61.541 3.362 A 1.375 1.375 0 0 0 61.229 2.966 Q 60.905 2.689 60.42 2.689 A 1.238 1.238 0 0 0 59.994 2.76 A 1.068 1.068 0 0 0 59.489 3.151 A 1.51 1.51 0 0 0 59.28 3.577 Q 59.214 3.781 59.183 4.031 A 3.955 3.955 0 0 0 59.155 4.518 A 3.162 3.162 0 0 0 59.191 5.01 Q 59.232 5.271 59.32 5.481 A 1.474 1.474 0 0 0 59.489 5.783 A 1.06 1.06 0 0 0 60.251 6.231 A 1.391 1.391 0 0 0 60.412 6.24 Q 61.185 6.24 61.541 5.546 Z M 163.23 5.542 L 163.23 3.371 A 1.439 1.439 0 0 0 162.93 2.983 Q 162.626 2.712 162.185 2.691 A 1.578 1.578 0 0 0 162.11 2.689 Q 161.518 2.689 161.184 3.149 A 1.51 1.51 0 0 0 160.973 3.577 Q 160.908 3.781 160.877 4.031 A 3.955 3.955 0 0 0 160.849 4.518 Q 160.849 5.322 161.178 5.781 Q 161.508 6.24 162.101 6.24 A 1.32 1.32 0 0 0 162.611 6.146 Q 163.002 5.984 163.23 5.542 Z M 106.356 1.138 L 106.356 3.564 L 107.653 3.564 Q 108.193 3.564 108.543 3.324 A 1.174 1.174 0 0 0 108.653 3.239 A 1.069 1.069 0 0 0 109.018 2.501 A 1.486 1.486 0 0 0 109.024 2.369 Q 109.024 1.826 108.728 1.515 A 1 1 0 0 0 108.67 1.459 Q 108.316 1.143 107.648 1.138 L 106.356 1.138 Z M 143.297 1.731 L 141.403 4.693 L 143.394 4.693 L 143.394 1.556 L 143.297 1.731 Z M 149.049 5.098 A 1.375 1.375 0 0 0 148.99 4.684 A 1.109 1.109 0 0 0 148.709 4.223 A 1.148 1.148 0 0 0 148.037 3.899 A 1.593 1.593 0 0 0 147.819 3.885 A 1.466 1.466 0 0 0 147.43 3.934 A 1.086 1.086 0 0 0 146.938 4.219 A 1.123 1.123 0 0 0 146.624 4.854 A 1.572 1.572 0 0 0 146.606 5.098 A 1.48 1.48 0 0 0 146.648 5.459 A 1.019 1.019 0 0 0 146.929 5.955 Q 147.235 6.25 147.768 6.266 A 2.053 2.053 0 0 0 147.828 6.267 Q 148.321 6.267 148.631 6.032 A 1.018 1.018 0 0 0 148.724 5.952 A 1.041 1.041 0 0 0 149.024 5.384 A 1.518 1.518 0 0 0 149.049 5.098 Z M 147.828 1.024 A 1.259 1.259 0 0 0 147.475 1.071 A 0.973 0.973 0 0 0 147.052 1.321 Q 146.755 1.617 146.755 2.127 A 1.325 1.325 0 0 0 146.8 2.48 A 0.994 0.994 0 0 0 147.048 2.916 A 0.974 0.974 0 0 0 147.61 3.2 A 1.382 1.382 0 0 0 147.828 3.217 A 1.279 1.279 0 0 0 148.172 3.173 A 0.952 0.952 0 0 0 148.608 2.916 A 1.018 1.018 0 0 0 148.883 2.352 A 1.426 1.426 0 0 0 148.9 2.127 A 1.282 1.282 0 0 0 148.85 1.76 A 1.013 1.013 0 0 0 148.597 1.332 Q 148.293 1.024 147.828 1.024 Z M 10.538 5.511 L 10.538 4.535 L 9.901 4.535 Q 8.407 4.535 8.407 5.41 Q 8.407 5.792 8.662 6.007 A 0.893 0.893 0 0 0 9.075 6.201 A 1.259 1.259 0 0 0 9.316 6.223 A 1.429 1.429 0 0 0 10.042 6.025 A 1.335 1.335 0 0 0 10.337 5.797 A 1.108 1.108 0 0 0 10.538 5.511 Z M 28.578 5.511 L 28.578 4.535 L 27.94 4.535 Q 26.446 4.535 26.446 5.41 Q 26.446 5.792 26.701 6.007 A 0.893 0.893 0 0 0 27.115 6.201 A 1.259 1.259 0 0 0 27.356 6.223 A 1.429 1.429 0 0 0 28.081 6.025 A 1.335 1.335 0 0 0 28.377 5.797 A 1.108 1.108 0 0 0 28.578 5.511 Z M 85.847 5.511 L 85.847 4.535 L 85.21 4.535 Q 83.716 4.535 83.716 5.41 Q 83.716 5.792 83.971 6.007 A 0.893 0.893 0 0 0 84.384 6.201 A 1.259 1.259 0 0 0 84.625 6.223 A 1.429 1.429 0 0 0 85.351 6.025 A 1.335 1.335 0 0 0 85.646 5.797 A 1.108 1.108 0 0 0 85.847 5.511 Z M 39.186 4.03 L 41.568 4.03 L 41.568 3.968 Q 41.542 3.509 41.371 3.204 A 1.13 1.13 0 0 0 41.234 3.008 A 0.983 0.983 0 0 0 40.579 2.676 A 1.39 1.39 0 0 0 40.425 2.667 A 1.106 1.106 0 0 0 39.903 2.79 A 1.14 1.14 0 0 0 39.599 3.026 A 1.417 1.417 0 0 0 39.322 3.472 Q 39.249 3.656 39.209 3.878 A 2.741 2.741 0 0 0 39.186 4.03 Z M 64.248 4.03 L 66.63 4.03 L 66.63 3.968 Q 66.604 3.509 66.433 3.204 A 1.13 1.13 0 0 0 66.296 3.008 A 0.983 0.983 0 0 0 65.641 2.676 A 1.39 1.39 0 0 0 65.487 2.667 A 1.106 1.106 0 0 0 64.965 2.79 A 1.14 1.14 0 0 0 64.661 3.026 A 1.417 1.417 0 0 0 64.384 3.472 Q 64.311 3.656 64.271 3.878 A 2.741 2.741 0 0 0 64.248 4.03 Z M 134.499 4.03 L 136.881 4.03 L 136.881 3.968 Q 136.855 3.509 136.684 3.204 A 1.13 1.13 0 0 0 136.547 3.008 A 0.983 0.983 0 0 0 135.892 2.676 A 1.39 1.39 0 0 0 135.738 2.667 A 1.106 1.106 0 0 0 135.216 2.79 A 1.14 1.14 0 0 0 134.912 3.026 A 1.417 1.417 0 0 0 134.635 3.472 Q 134.562 3.656 134.522 3.878 A 2.741 2.741 0 0 0 134.499 4.03 Z M 12.63 0.826 Q 12.63 0.628 12.751 0.492 Q 12.863 0.366 13.074 0.357 A 0.783 0.783 0 0 1 13.109 0.356 Q 13.346 0.356 13.469 0.492 A 0.474 0.474 0 0 1 13.592 0.796 A 0.614 0.614 0 0 1 13.592 0.826 A 0.523 0.523 0 0 1 13.567 0.992 A 0.442 0.442 0 0 1 13.469 1.156 Q 13.357 1.276 13.149 1.287 A 0.803 0.803 0 0 1 13.109 1.288 Q 12.937 1.288 12.826 1.218 A 0.362 0.362 0 0 1 12.751 1.156 A 0.456 0.456 0 0 1 12.632 0.88 A 0.605 0.605 0 0 1 12.63 0.826 Z M 76.399 0.826 Q 76.399 0.628 76.52 0.492 Q 76.632 0.366 76.843 0.357 A 0.783 0.783 0 0 1 76.878 0.356 Q 77.115 0.356 77.238 0.492 A 0.474 0.474 0 0 1 77.361 0.796 A 0.614 0.614 0 0 1 77.361 0.826 A 0.523 0.523 0 0 1 77.336 0.992 A 0.442 0.442 0 0 1 77.238 1.156 Q 77.126 1.276 76.918 1.287 A 0.803 0.803 0 0 1 76.878 1.288 Q 76.706 1.288 76.595 1.218 A 0.362 0.362 0 0 1 76.52 1.156 A 0.456 0.456 0 0 1 76.401 0.88 A 0.605 0.605 0 0 1 76.399 0.826 Z M 90.879 0.826 Q 90.879 0.628 91 0.492 Q 91.112 0.366 91.323 0.357 A 0.783 0.783 0 0 1 91.358 0.356 Q 91.595 0.356 91.718 0.492 A 0.474 0.474 0 0 1 91.841 0.796 A 0.614 0.614 0 0 1 91.841 0.826 A 0.523 0.523 0 0 1 91.816 0.992 A 0.442 0.442 0 0 1 91.718 1.156 Q 91.606 1.276 91.398 1.287 A 0.803 0.803 0 0 1 91.358 1.288 Q 91.186 1.288 91.075 1.218 A 0.362 0.362 0 0 1 91 1.156 A 0.456 0.456 0 0 1 90.881 0.88 A 0.605 0.605 0 0 1 90.879 0.826 Z M 123.798 0.826 Q 123.798 0.628 123.919 0.492 Q 124.031 0.366 124.243 0.357 A 0.783 0.783 0 0 1 124.277 0.356 Q 124.515 0.356 124.638 0.492 A 0.474 0.474 0 0 1 124.76 0.796 A 0.614 0.614 0 0 1 124.761 0.826 A 0.523 0.523 0 0 1 124.735 0.992 A 0.442 0.442 0 0 1 124.638 1.156 Q 124.525 1.276 124.317 1.287 A 0.803 0.803 0 0 1 124.277 1.288 Q 124.105 1.288 123.994 1.218 A 0.362 0.362 0 0 1 123.919 1.156 A 0.456 0.456 0 0 1 123.801 0.88 A 0.605 0.605 0 0 1 123.798 0.826 Z M 158.045 0.826 Q 158.045 0.628 158.166 0.492 Q 158.278 0.366 158.489 0.357 A 0.783 0.783 0 0 1 158.524 0.356 Q 158.761 0.356 158.884 0.492 A 0.474 0.474 0 0 1 159.007 0.796 A 0.614 0.614 0 0 1 159.007 0.826 A 0.523 0.523 0 0 1 158.982 0.992 A 0.442 0.442 0 0 1 158.884 1.156 Q 158.772 1.276 158.564 1.287 A 0.803 0.803 0 0 1 158.524 1.288 Q 158.352 1.288 158.241 1.218 A 0.362 0.362 0 0 1 158.166 1.156 A 0.456 0.456 0 0 1 158.047 0.88 A 0.605 0.605 0 0 1 158.045 0.826 Z" vector-effect="non-scaling-stroke"/></g>
</svg>