<?xml version="1.0" encoding="UTF-8"?>
<svg width="48px" height="48px" viewBox="0 0 48 48" version="1.1" xmlns="http://www.w3.org/2000/svg" xmlns:xlink="http://www.w3.org/1999/xlink">
    <title>Icon-Resource/Business-Applications/Res_Amazon-Pinpoint_Journey_48_Dark</title>
    <g id="Icon-Resource/Business-Applications/Res_Amazon-Pinpoint_Journey_48" stroke="none" stroke-width="1" fill="none" fill-rule="evenodd">
        <path transform="translate(12.000000, 8.000000), scale(.65)" d="M42.96,21 C42.96,19.897 42.063,19 40.96,19 C39.857,19 38.96,19.897 38.96,21 C38.96,22.103 39.857,23 40.96,23 C42.063,23 42.96,22.103 42.96,21 L42.96,21 Z M37.96,37 C37.96,35.897 37.063,35 35.96,35 C34.857,35 33.96,35.897 33.96,37 C33.96,38.103 34.857,39 35.96,39 C37.063,39 37.96,38.103 37.96,37 L37.96,37 Z M28.96,20.5 C28.96,19.122 27.839,18 26.46,18 C25.081,18 23.96,19.122 23.96,20.5 C23.96,21.878 25.081,23 26.46,23 C27.839,23 28.96,21.878 28.96,20.5 L28.96,20.5 Z M18.131,30.008 L14.522,33.609 L13.109,32.193 L16.65,28.661 C15.994,28.283 15.244,28.05 14.435,28.05 C11.967,28.05 9.96,30.057 9.96,32.525 C9.96,34.993 11.967,37 14.435,37 C16.902,37 18.91,34.993 18.91,32.525 C18.91,31.592 18.622,30.726 18.131,30.008 L18.131,30.008 Z M21.46,10 C22.839,10 23.96,8.878 23.96,7.5 C23.96,6.122 22.839,5 21.46,5 C20.081,5 18.96,6.122 18.96,7.5 C18.96,8.878 20.081,10 21.46,10 L21.46,10 Z M44.96,21 C44.96,23.206 43.166,25 40.96,25 C40.911,25 40.866,24.987 40.817,24.985 L38.149,33.659 C39.237,34.375 39.96,35.603 39.96,37 C39.96,39.206 38.166,41 35.96,41 C33.754,41 31.96,39.206 31.96,37 C31.96,34.794 33.754,33 35.96,33 C36.06,33 36.152,33.022 36.25,33.029 L38.901,24.412 C38.035,23.887 37.392,23.048 37.117,22.05 L30.668,22.05 C30.033,23.767 28.395,25 26.46,25 C25.523,25 24.654,24.711 23.934,24.22 L19.56,28.583 C20.403,29.676 20.91,31.041 20.91,32.525 C20.91,36.095 18.005,39 14.435,39 C10.864,39 7.96,36.095 7.96,32.525 C7.96,28.955 10.864,26.05 14.435,26.05 C15.801,26.05 17.066,26.478 18.112,27.202 L22.582,22.743 C22.197,22.08 21.96,21.32 21.96,20.5 C21.96,19.047 22.664,17.766 23.735,16.943 L21.611,11.985 C21.56,11.986 21.512,12 21.46,12 C18.979,12 16.96,9.981 16.96,7.5 C16.96,5.019 18.979,3 21.46,3 C23.941,3 25.96,5.019 25.96,7.5 C25.96,9.219 24.981,10.698 23.56,11.456 L25.548,16.094 C25.843,16.033 26.148,16 26.46,16 C28.787,16 30.685,17.782 30.914,20.05 L37.087,20.05 C37.516,18.304 39.083,17 40.96,17 C43.166,17 44.96,18.794 44.96,21 L44.96,21 Z M24.699,27.294 C25.524,28.901 25.96,30.711 25.96,32.53 C25.96,38.86 20.811,44.01 14.481,44.01 C8.15,44.01 3,38.86 3,32.53 C3,26.2 8.15,21.05 14.481,21.05 C16.326,21.05 18.088,21.475 19.719,22.313 L18.805,24.092 C17.46,23.4 16.005,23.05 14.481,23.05 C9.253,23.05 5,27.303 5,32.53 C5,37.757 9.253,42.01 14.481,42.01 C19.707,42.01 23.96,37.757 23.96,32.53 C23.96,31.006 23.61,29.552 22.92,28.208 L24.699,27.294 Z" id="Fill-1" fill="#000000"></path>
    </g><g transform="translate(25, 83)" id="svgGroup" stroke-linecap="round" fill-rule="evenodd" font-size="9pt" stroke="#000" stroke-width="0.25mm" fill="#000" style="stroke:#000;stroke-width:0.25mm;fill:#000"><path d="M 63.352 1.731 L 64.538 5.295 L 65.646 1.731 L 66.516 1.731 L 64.604 7.22 Q 64.16 8.407 63.193 8.407 L 63.04 8.394 L 62.736 8.336 L 62.736 7.677 L 62.956 7.695 Q 63.236 7.695 63.432 7.618 A 0.75 0.75 0 0 0 63.6 7.528 A 0.749 0.749 0 0 0 63.76 7.366 Q 63.878 7.207 63.968 6.951 A 2.575 2.575 0 0 0 63.98 6.917 L 64.16 6.434 L 62.464 1.731 L 63.352 1.731 Z M 7.734 1.731 L 8.503 1.731 L 8.53 2.329 Q 9.066 1.654 9.926 1.644 A 2.234 2.234 0 0 1 9.954 1.644 A 1.905 1.905 0 0 1 10.587 1.74 Q 11.429 2.036 11.472 3.242 A 3.668 3.668 0 0 1 11.474 3.344 L 11.474 6.486 L 10.661 6.486 L 10.661 3.34 A 1.837 1.837 0 0 0 10.639 3.06 Q 10.589 2.753 10.426 2.58 Q 10.24 2.381 9.887 2.343 A 1.66 1.66 0 0 0 9.708 2.334 A 1.253 1.253 0 0 0 9.293 2.4 A 1.123 1.123 0 0 0 9.013 2.544 A 1.432 1.432 0 0 0 8.547 3.098 L 8.547 6.486 L 7.734 6.486 L 7.734 1.731 Z M 25.066 1.731 L 25.835 1.731 L 25.862 2.329 Q 26.398 1.654 27.258 1.644 A 2.234 2.234 0 0 1 27.286 1.644 A 1.905 1.905 0 0 1 27.919 1.74 Q 28.761 2.036 28.804 3.242 A 3.668 3.668 0 0 1 28.806 3.344 L 28.806 6.486 L 27.993 6.486 L 27.993 3.34 A 1.837 1.837 0 0 0 27.971 3.06 Q 27.921 2.753 27.758 2.58 Q 27.572 2.381 27.219 2.343 A 1.66 1.66 0 0 0 27.04 2.334 A 1.253 1.253 0 0 0 26.625 2.4 A 1.123 1.123 0 0 0 26.345 2.544 A 1.432 1.432 0 0 0 25.879 3.098 L 25.879 6.486 L 25.066 6.486 L 25.066 1.731 Z M 53.306 1.731 L 54.075 1.731 L 54.101 2.329 Q 54.637 1.654 55.497 1.644 A 2.234 2.234 0 0 1 55.525 1.644 A 1.905 1.905 0 0 1 56.158 1.74 Q 57 2.036 57.043 3.242 A 3.668 3.668 0 0 1 57.045 3.344 L 57.045 6.486 L 56.232 6.486 L 56.232 3.34 A 1.837 1.837 0 0 0 56.21 3.06 Q 56.16 2.753 55.997 2.58 Q 55.811 2.381 55.458 2.343 A 1.66 1.66 0 0 0 55.279 2.334 A 1.253 1.253 0 0 0 54.864 2.4 A 1.123 1.123 0 0 0 54.584 2.544 A 1.432 1.432 0 0 0 54.119 3.098 L 54.119 6.486 L 53.306 6.486 L 53.306 1.731 Z M 48.252 6.486 L 48.234 6.016 A 1.526 1.526 0 0 1 47.408 6.511 Q 47.158 6.572 46.861 6.574 A 2.996 2.996 0 0 1 46.841 6.574 A 2.086 2.086 0 0 1 46.381 6.527 Q 45.951 6.429 45.683 6.133 A 1.41 1.41 0 0 1 45.4 5.635 Q 45.284 5.292 45.281 4.825 L 45.281 1.731 L 46.094 1.731 L 46.094 4.803 Q 46.094 5.773 46.802 5.873 A 1.229 1.229 0 0 0 46.973 5.884 A 1.927 1.927 0 0 0 47.424 5.835 Q 47.986 5.7 48.212 5.19 L 48.212 1.731 L 49.025 1.731 L 49.025 6.486 L 48.252 6.486 Z M 16.717 4.087 L 16.717 4.162 Q 16.717 5.247 16.22 5.911 A 1.57 1.57 0 0 1 15.082 6.564 A 2.013 2.013 0 0 1 14.875 6.574 A 2.196 2.196 0 0 1 14.289 6.5 A 1.598 1.598 0 0 1 13.513 6.025 L 13.513 8.314 L 12.7 8.314 L 12.7 1.731 L 13.443 1.731 L 13.482 2.259 A 1.619 1.619 0 0 1 14.622 1.656 A 2.319 2.319 0 0 1 14.862 1.644 A 1.829 1.829 0 0 1 15.499 1.75 A 1.597 1.597 0 0 1 16.218 2.29 Q 16.717 2.936 16.717 4.087 Z M 58.065 4.241 L 58.065 4.091 A 3.17 3.17 0 0 1 58.141 3.382 A 2.581 2.581 0 0 1 58.335 2.828 A 2.191 2.191 0 0 1 58.783 2.202 A 2.033 2.033 0 0 1 59.091 1.958 Q 59.577 1.644 60.144 1.644 A 2.254 2.254 0 0 1 60.757 1.722 A 1.639 1.639 0 0 1 61.585 2.254 Q 62.099 2.865 62.099 4.003 L 62.099 4.342 L 58.878 4.342 A 2.111 2.111 0 0 0 58.949 4.85 A 1.516 1.516 0 0 0 59.289 5.478 A 1.282 1.282 0 0 0 60.223 5.909 A 1.652 1.652 0 0 0 60.289 5.911 A 1.763 1.763 0 0 0 60.617 5.882 Q 60.841 5.839 61.018 5.735 A 1.827 1.827 0 0 0 61.527 5.287 A 2.068 2.068 0 0 0 61.541 5.269 L 62.038 5.656 A 1.926 1.926 0 0 1 60.638 6.547 A 2.749 2.749 0 0 1 60.245 6.574 A 2.394 2.394 0 0 1 59.493 6.461 A 1.974 1.974 0 0 1 58.671 5.939 Q 58.065 5.304 58.065 4.241 Z M 38.008 4.632 L 38.008 0.088 L 38.856 0.088 L 38.856 4.619 A 2.457 2.457 0 0 1 38.787 5.221 A 1.684 1.684 0 0 1 38.305 6.056 A 1.861 1.861 0 0 1 37.398 6.518 A 2.699 2.699 0 0 1 36.835 6.574 Q 35.881 6.574 35.35 6.086 A 1.592 1.592 0 0 1 34.87 5.231 A 2.381 2.381 0 0 1 34.818 4.72 L 35.662 4.72 Q 35.662 5.182 35.875 5.473 A 0.953 0.953 0 0 0 35.963 5.577 Q 36.235 5.855 36.728 5.881 A 1.983 1.983 0 0 0 36.835 5.884 Q 37.358 5.884 37.681 5.555 Q 37.986 5.243 38.007 4.695 A 2.119 2.119 0 0 0 38.008 4.632 Z M 2.351 3.981 L 0.844 3.981 L 0.844 6.486 L 0 6.486 L 0 0.088 L 2.36 0.088 A 3.315 3.315 0 0 1 3.025 0.151 Q 3.427 0.233 3.738 0.424 A 1.839 1.839 0 0 1 4.006 0.624 A 1.772 1.772 0 0 1 4.593 1.841 A 2.45 2.45 0 0 1 4.601 2.043 Q 4.601 2.975 4.019 3.478 Q 3.54 3.892 2.721 3.966 A 4.14 4.14 0 0 1 2.351 3.981 Z M 30.322 0.58 L 31.135 0.58 L 31.135 1.731 L 32.023 1.731 L 32.023 2.36 L 31.135 2.36 L 31.135 5.309 Q 31.135 5.594 31.254 5.737 Q 31.373 5.88 31.658 5.88 A 1.046 1.046 0 0 0 31.756 5.875 Q 31.858 5.865 31.998 5.837 A 4.024 4.024 0 0 0 32.045 5.827 L 32.045 6.486 A 2.463 2.463 0 0 1 31.612 6.566 A 2.157 2.157 0 0 1 31.421 6.574 Q 30.974 6.574 30.707 6.352 A 0.856 0.856 0 0 1 30.599 6.245 Q 30.372 5.974 30.331 5.516 A 2.351 2.351 0 0 1 30.322 5.309 L 30.322 2.36 L 29.457 2.36 L 29.457 1.731 L 30.322 1.731 L 30.322 0.58 Z M 17.534 4.122 L 17.534 4.065 A 3.057 3.057 0 0 1 17.621 3.323 A 2.573 2.573 0 0 1 17.809 2.808 A 2.16 2.16 0 0 1 18.224 2.223 A 1.957 1.957 0 0 1 18.573 1.947 A 2.036 2.036 0 0 1 19.518 1.65 A 2.491 2.491 0 0 1 19.692 1.644 A 2.277 2.277 0 0 1 20.445 1.763 A 1.937 1.937 0 0 1 21.263 2.316 A 2.29 2.29 0 0 1 21.782 3.345 A 3.373 3.373 0 0 1 21.863 4.105 L 21.863 4.162 A 3.114 3.114 0 0 1 21.783 4.878 A 2.577 2.577 0 0 1 21.597 5.407 A 2.056 2.056 0 0 1 21.07 6.098 A 2.001 2.001 0 0 1 20.837 6.267 A 2.045 2.045 0 0 1 19.917 6.565 A 2.529 2.529 0 0 1 19.701 6.574 A 2.262 2.262 0 0 1 18.95 6.455 A 1.938 1.938 0 0 1 18.134 5.902 A 2.297 2.297 0 0 1 17.608 4.847 A 3.357 3.357 0 0 1 17.534 4.122 Z M 39.951 4.122 L 39.951 4.065 A 3.057 3.057 0 0 1 40.038 3.323 A 2.573 2.573 0 0 1 40.225 2.808 A 2.16 2.16 0 0 1 40.64 2.223 A 1.957 1.957 0 0 1 40.99 1.947 A 2.036 2.036 0 0 1 41.934 1.65 A 2.491 2.491 0 0 1 42.108 1.644 A 2.277 2.277 0 0 1 42.862 1.763 A 1.937 1.937 0 0 1 43.679 2.316 A 2.29 2.29 0 0 1 44.198 3.345 A 3.373 3.373 0 0 1 44.279 4.105 L 44.279 4.162 A 3.114 3.114 0 0 1 44.2 4.878 A 2.577 2.577 0 0 1 44.013 5.407 A 2.056 2.056 0 0 1 43.486 6.098 A 2.001 2.001 0 0 1 43.253 6.267 A 2.045 2.045 0 0 1 42.333 6.565 A 2.529 2.529 0 0 1 42.117 6.574 A 2.262 2.262 0 0 1 41.367 6.455 A 1.938 1.938 0 0 1 40.551 5.902 A 2.297 2.297 0 0 1 40.025 4.847 A 3.357 3.357 0 0 1 39.951 4.122 Z M 52.559 1.705 L 52.559 2.461 A 2.251 2.251 0 0 0 52.316 2.435 A 2.782 2.782 0 0 0 52.159 2.43 Q 51.381 2.43 51.089 3.074 A 1.445 1.445 0 0 0 51.073 3.111 L 51.073 6.486 L 50.26 6.486 L 50.26 1.731 L 51.051 1.731 L 51.064 2.281 Q 51.445 1.675 52.127 1.645 A 1.636 1.636 0 0 1 52.198 1.644 Q 52.436 1.644 52.559 1.705 Z M 6.434 1.731 L 6.434 6.486 L 5.621 6.486 L 5.621 1.731 L 6.434 1.731 Z M 23.766 1.731 L 23.766 6.486 L 22.953 6.486 L 22.953 1.731 L 23.766 1.731 Z M 18.352 4.162 A 2.772 2.772 0 0 0 18.399 4.69 Q 18.459 5.001 18.597 5.246 A 1.545 1.545 0 0 0 18.719 5.432 Q 19.085 5.911 19.701 5.911 A 1.269 1.269 0 0 0 20.19 5.819 Q 20.469 5.704 20.672 5.442 A 1.471 1.471 0 0 0 20.685 5.425 A 1.648 1.648 0 0 0 20.94 4.908 Q 21.009 4.681 21.034 4.408 A 3.655 3.655 0 0 0 21.05 4.065 A 2.687 2.687 0 0 0 20.999 3.525 Q 20.931 3.195 20.774 2.936 A 1.586 1.586 0 0 0 20.678 2.797 A 1.231 1.231 0 0 0 20.263 2.442 Q 20.01 2.312 19.692 2.312 Q 19.102 2.312 18.736 2.771 A 1.515 1.515 0 0 0 18.721 2.791 A 1.589 1.589 0 0 0 18.469 3.288 Q 18.399 3.509 18.371 3.775 A 3.676 3.676 0 0 0 18.352 4.162 Z M 40.768 4.162 A 2.772 2.772 0 0 0 40.815 4.69 Q 40.876 5.001 41.013 5.246 A 1.545 1.545 0 0 0 41.135 5.432 Q 41.502 5.911 42.117 5.911 A 1.269 1.269 0 0 0 42.607 5.819 Q 42.886 5.704 43.089 5.442 A 1.471 1.471 0 0 0 43.102 5.425 A 1.648 1.648 0 0 0 43.356 4.908 Q 43.425 4.681 43.451 4.408 A 3.655 3.655 0 0 0 43.466 4.065 A 2.687 2.687 0 0 0 43.415 3.525 Q 43.347 3.195 43.19 2.936 A 1.586 1.586 0 0 0 43.095 2.797 A 1.231 1.231 0 0 0 42.68 2.442 Q 42.427 2.312 42.108 2.312 Q 41.519 2.312 41.152 2.771 A 1.515 1.515 0 0 0 41.137 2.791 A 1.589 1.589 0 0 0 40.885 3.288 Q 40.816 3.509 40.787 3.775 A 3.676 3.676 0 0 0 40.768 4.162 Z M 13.513 2.988 L 13.513 5.26 Q 13.878 5.911 14.629 5.911 A 1.184 1.184 0 0 0 15.095 5.822 Q 15.352 5.713 15.54 5.471 A 1.403 1.403 0 0 0 15.559 5.447 A 1.501 1.501 0 0 0 15.776 5.016 Q 15.844 4.809 15.876 4.555 A 3.91 3.91 0 0 0 15.904 4.069 Q 15.904 3.482 15.721 3.075 A 1.503 1.503 0 0 0 15.561 2.799 A 1.086 1.086 0 0 0 14.775 2.342 A 1.414 1.414 0 0 0 14.621 2.334 Q 13.96 2.334 13.595 2.858 A 1.623 1.623 0 0 0 13.513 2.988 Z M 0.844 0.782 L 0.844 3.292 L 2.36 3.292 A 2.313 2.313 0 0 0 2.752 3.26 Q 2.969 3.223 3.142 3.141 A 1.097 1.097 0 0 0 3.397 2.973 A 1.028 1.028 0 0 0 3.715 2.433 Q 3.756 2.265 3.757 2.065 A 1.996 1.996 0 0 0 3.757 2.052 A 1.466 1.466 0 0 0 3.703 1.645 A 1.112 1.112 0 0 0 3.397 1.138 Q 3.037 0.795 2.408 0.782 L 0.844 0.782 Z M 58.904 3.674 L 61.286 3.674 L 61.286 3.612 Q 61.26 3.153 61.089 2.848 A 1.13 1.13 0 0 0 60.952 2.652 A 0.983 0.983 0 0 0 60.298 2.32 A 1.39 1.39 0 0 0 60.144 2.312 A 1.106 1.106 0 0 0 59.621 2.435 A 1.14 1.14 0 0 0 59.317 2.67 A 1.417 1.417 0 0 0 59.041 3.116 Q 58.967 3.3 58.927 3.522 A 2.741 2.741 0 0 0 58.904 3.674 Z M 5.555 0.47 Q 5.555 0.272 5.676 0.136 Q 5.787 0.01 5.999 0.001 A 0.783 0.783 0 0 1 6.034 0 Q 6.271 0 6.394 0.136 A 0.474 0.474 0 0 1 6.516 0.44 A 0.614 0.614 0 0 1 6.517 0.47 A 0.523 0.523 0 0 1 6.492 0.636 A 0.442 0.442 0 0 1 6.394 0.8 Q 6.282 0.92 6.074 0.931 A 0.803 0.803 0 0 1 6.034 0.932 Q 5.861 0.932 5.75 0.862 A 0.362 0.362 0 0 1 5.676 0.8 A 0.456 0.456 0 0 1 5.557 0.525 A 0.605 0.605 0 0 1 5.555 0.47 Z M 22.887 0.47 Q 22.887 0.272 23.008 0.136 Q 23.119 0.01 23.331 0.001 A 0.783 0.783 0 0 1 23.366 0 Q 23.603 0 23.726 0.136 A 0.474 0.474 0 0 1 23.848 0.44 A 0.614 0.614 0 0 1 23.849 0.47 A 0.523 0.523 0 0 1 23.824 0.636 A 0.442 0.442 0 0 1 23.726 0.8 Q 23.614 0.92 23.406 0.931 A 0.803 0.803 0 0 1 23.366 0.932 Q 23.193 0.932 23.083 0.862 A 0.362 0.362 0 0 1 23.008 0.8 A 0.456 0.456 0 0 1 22.889 0.525 A 0.605 0.605 0 0 1 22.887 0.47 Z" vector-effect="non-scaling-stroke"/></g><g transform="translate(25, 93)" id="svgGroup" stroke-linecap="round" fill-rule="evenodd" font-size="9pt" stroke="#000" stroke-width="0.25mm" fill="#000" style="stroke:#000;stroke-width:0.25mm;fill:#000"><path d="M 29.544 6.75 L 27.888 4.548 L 27.378 5.08 L 27.378 6.75 L 26.565 6.75 L 26.565 0 L 27.378 0 L 27.378 4.083 L 27.813 3.56 L 29.294 1.995 L 30.283 1.995 L 28.433 3.981 L 30.498 6.75 L 29.544 6.75 Z M 22.408 6.75 L 21.555 6.75 A 0.632 0.632 0 0 1 21.52 6.66 Q 21.488 6.562 21.464 6.41 A 3.997 3.997 0 0 1 21.441 6.249 Q 20.874 6.838 20.087 6.838 A 2.033 2.033 0 0 1 19.558 6.772 A 1.529 1.529 0 0 1 18.934 6.44 Q 18.483 6.042 18.483 5.432 Q 18.483 4.689 19.048 4.278 Q 19.613 3.867 20.637 3.867 L 21.428 3.867 L 21.428 3.494 A 1.152 1.152 0 0 0 21.392 3.199 A 0.828 0.828 0 0 0 21.173 2.815 Q 20.957 2.6 20.566 2.568 A 1.748 1.748 0 0 0 20.421 2.562 Q 19.986 2.562 19.692 2.782 Q 19.397 3.001 19.397 3.313 L 18.58 3.313 A 1.041 1.041 0 0 1 18.705 2.825 A 1.409 1.409 0 0 1 18.833 2.626 Q 19.085 2.294 19.518 2.101 A 2.249 2.249 0 0 1 20.294 1.913 A 2.669 2.669 0 0 1 20.47 1.907 A 2.65 2.65 0 0 1 20.987 1.955 Q 21.294 2.016 21.533 2.156 A 1.439 1.439 0 0 1 21.757 2.318 A 1.396 1.396 0 0 1 22.211 3.144 A 1.998 1.998 0 0 1 22.241 3.45 L 22.241 5.638 Q 22.241 6.073 22.314 6.39 A 1.707 1.707 0 0 0 22.408 6.68 L 22.408 6.75 Z M 3.731 0.352 L 3.731 4.601 L 4.619 4.601 L 4.619 5.265 L 3.731 5.265 L 3.731 6.75 L 2.914 6.75 L 2.914 5.265 L 0 5.265 L 0 4.786 L 2.865 0.352 L 3.731 0.352 Z M 14.616 6.75 L 12.845 6.75 L 12.845 0.352 L 14.651 0.352 Q 15.486 0.352 16.128 0.721 Q 16.77 1.09 17.119 1.771 A 3.19 3.19 0 0 1 17.436 2.8 A 4.073 4.073 0 0 1 17.473 3.335 L 17.473 3.744 Q 17.473 4.649 17.123 5.331 A 2.457 2.457 0 0 1 16.126 6.376 Q 15.478 6.741 14.616 6.75 Z M 9.129 2.592 A 1.544 1.544 0 0 0 9.233 2.021 A 2.226 2.226 0 0 0 9.211 1.707 A 1.566 1.566 0 0 0 8.712 0.738 A 1.754 1.754 0 0 0 7.946 0.333 A 2.443 2.443 0 0 0 7.348 0.264 A 2.539 2.539 0 0 0 6.838 0.312 A 1.767 1.767 0 0 0 5.981 0.738 Q 5.462 1.213 5.462 2.021 A 1.808 1.808 0 0 0 5.463 2.058 A 1.499 1.499 0 0 0 5.708 2.87 A 1.626 1.626 0 0 0 5.87 3.077 A 1.726 1.726 0 0 0 6.381 3.454 A 2.119 2.119 0 0 0 6.281 3.5 A 1.738 1.738 0 0 0 5.596 4.087 A 1.629 1.629 0 0 0 5.313 5.023 A 2.272 2.272 0 0 0 5.323 5.237 A 1.63 1.63 0 0 0 5.869 6.344 A 1.895 1.895 0 0 0 6.719 6.771 A 2.797 2.797 0 0 0 7.348 6.838 A 2.796 2.796 0 0 0 7.947 6.777 A 1.925 1.925 0 0 0 8.822 6.346 A 1.578 1.578 0 0 0 9.297 5.62 A 1.989 1.989 0 0 0 9.382 5.023 A 1.581 1.581 0 0 0 9.09 4.087 Q 8.798 3.674 8.297 3.458 Q 8.728 3.248 8.98 2.874 A 1.449 1.449 0 0 0 9.129 2.592 Z M 25.813 1.969 L 25.813 2.725 A 2.251 2.251 0 0 0 25.571 2.698 A 2.782 2.782 0 0 0 25.414 2.694 Q 24.636 2.694 24.344 3.338 A 1.445 1.445 0 0 0 24.328 3.375 L 24.328 6.75 L 23.515 6.75 L 23.515 1.995 L 24.306 1.995 L 24.319 2.544 Q 24.7 1.938 25.382 1.909 A 1.636 1.636 0 0 1 25.453 1.907 Q 25.69 1.907 25.813 1.969 Z M 14.673 1.046 L 13.689 1.046 L 13.689 6.06 L 14.577 6.06 A 2.519 2.519 0 0 0 15.209 5.985 A 1.747 1.747 0 0 0 16.095 5.454 Q 16.554 4.94 16.625 4.059 A 4.165 4.165 0 0 0 16.638 3.727 L 16.638 3.353 Q 16.638 2.562 16.368 2.027 A 1.864 1.864 0 0 0 16.126 1.659 A 1.687 1.687 0 0 0 15.13 1.09 A 2.499 2.499 0 0 0 14.673 1.046 Z M 2.817 1.639 L 0.923 4.601 L 2.914 4.601 L 2.914 1.463 L 2.817 1.639 Z M 8.569 5.005 A 1.375 1.375 0 0 0 8.51 4.592 A 1.109 1.109 0 0 0 8.229 4.131 A 1.148 1.148 0 0 0 7.557 3.807 A 1.593 1.593 0 0 0 7.339 3.792 A 1.466 1.466 0 0 0 6.95 3.841 A 1.086 1.086 0 0 0 6.458 4.126 A 1.123 1.123 0 0 0 6.144 4.762 A 1.572 1.572 0 0 0 6.126 5.005 A 1.48 1.48 0 0 0 6.168 5.367 A 1.019 1.019 0 0 0 6.449 5.862 Q 6.755 6.158 7.288 6.173 A 2.053 2.053 0 0 0 7.348 6.174 Q 7.841 6.174 8.151 5.94 A 1.018 1.018 0 0 0 8.244 5.86 A 1.041 1.041 0 0 0 8.544 5.292 A 1.518 1.518 0 0 0 8.569 5.005 Z M 7.348 0.932 A 1.259 1.259 0 0 0 6.995 0.979 A 0.973 0.973 0 0 0 6.572 1.228 Q 6.275 1.525 6.275 2.035 A 1.325 1.325 0 0 0 6.32 2.387 A 0.994 0.994 0 0 0 6.568 2.823 A 0.974 0.974 0 0 0 7.13 3.108 A 1.382 1.382 0 0 0 7.348 3.125 A 1.279 1.279 0 0 0 7.692 3.08 A 0.952 0.952 0 0 0 8.128 2.823 A 1.018 1.018 0 0 0 8.403 2.26 A 1.426 1.426 0 0 0 8.42 2.035 A 1.282 1.282 0 0 0 8.37 1.668 A 1.013 1.013 0 0 0 8.117 1.239 Q 7.813 0.932 7.348 0.932 Z M 21.428 5.418 L 21.428 4.443 L 20.791 4.443 Q 19.296 4.443 19.296 5.317 Q 19.296 5.7 19.551 5.915 A 0.893 0.893 0 0 0 19.965 6.108 A 1.259 1.259 0 0 0 20.206 6.13 A 1.429 1.429 0 0 0 20.931 5.933 A 1.335 1.335 0 0 0 21.227 5.705 A 1.108 1.108 0 0 0 21.428 5.418 Z" vector-effect="non-scaling-stroke"/></g>
</svgversion="1.0" encoding="UTF-8"?>
<svg width="48px" height="48px" viewBox="0 0 48 48" version="1.1" xmlns="http://www.w3.org/2000/svg" xmlns:xlink="http://www.w3.org/1999/xlink">
    <title>Icon-Resource/Business-Applications/Res_Amazon-Pinpoint_Journey_48_Dark</title>
    <g id="Icon-Resource/Business-Applications/Res_Amazon-Pinpoint_Journey_48" stroke="none" stroke-width="1" fill="none" fill-rule="evenodd">
        <path transform="translate(12.000000, 8.000000), scale(.65)" d="M42.96,21 C42.96,19.897 42.063,19 40.96,19 C39.857,19 38.96,19.897 38.96,21 C38.96,22.103 39.857,23 40.96,23 C42.063,23 42.96,22.103 42.96,21 L42.96,21 Z M37.96,37 C37.96,35.897 37.063,35 35.96,35 C34.857,35 33.96,35.897 33.96,37 C33.96,38.103 34.857,39 35.96,39 C37.063,39 37.96,38.103 37.96,37 L37.96,37 Z M28.96,20.5 C28.96,19.122 27.839,18 26.46,18 C25.081,18 23.96,19.122 23.96,20.5 C23.96,21.878 25.081,23 26.46,23 C27.839,23 28.96,21.878 28.96,20.5 L28.96,20.5 Z M18.131,30.008 L14.522,33.609 L13.109,32.193 L16.65,28.661 C15.994,28.283 15.244,28.05 14.435,28.05 C11.967,28.05 9.96,30.057 9.96,32.525 C9.96,34.993 11.967,37 14.435,37 C16.902,37 18.91,34.993 18.91,32.525 C18.91,31.592 18.622,30.726 18.131,30.008 L18.131,30.008 Z M21.46,10 C22.839,10 23.96,8.878 23.96,7.5 C23.96,6.122 22.839,5 21.46,5 C20.081,5 18.96,6.122 18.96,7.5 C18.96,8.878 20.081,10 21.46,10 L21.46,10 Z M44.96,21 C44.96,23.206 43.166,25 40.96,25 C40.911,25 40.866,24.987 40.817,24.985 L38.149,33.659 C39.237,34.375 39.96,35.603 39.96,37 C39.96,39.206 38.166,41 35.96,41 C33.754,41 31.96,39.206 31.96,37 C31.96,34.794 33.754,33 35.96,33 C36.06,33 36.152,33.022 36.25,33.029 L38.901,24.412 C38.035,23.887 37.392,23.048 37.117,22.05 L30.668,22.05 C30.033,23.767 28.395,25 26.46,25 C25.523,25 24.654,24.711 23.934,24.22 L19.56,28.583 C20.403,29.676 20.91,31.041 20.91,32.525 C20.91,36.095 18.005,39 14.435,39 C10.864,39 7.96,36.095 7.96,32.525 C7.96,28.955 10.864,26.05 14.435,26.05 C15.801,26.05 17.066,26.478 18.112,27.202 L22.582,22.743 C22.197,22.08 21.96,21.32 21.96,20.5 C21.96,19.047 22.664,17.766 23.735,16.943 L21.611,11.985 C21.56,11.986 21.512,12 21.46,12 C18.979,12 16.96,9.981 16.96,7.5 C16.96,5.019 18.979,3 21.46,3 C23.941,3 25.96,5.019 25.96,7.5 C25.96,9.219 24.981,10.698 23.56,11.456 L25.548,16.094 C25.843,16.033 26.148,16 26.46,16 C28.787,16 30.685,17.782 30.914,20.05 L37.087,20.05 C37.516,18.304 39.083,17 40.96,17 C43.166,17 44.96,18.794 44.96,21 L44.96,21 Z M24.699,27.294 C25.524,28.901 25.96,30.711 25.96,32.53 C25.96,38.86 20.811,44.01 14.481,44.01 C8.15,44.01 3,38.86 3,32.53 C3,26.2 8.15,21.05 14.481,21.05 C16.326,21.05 18.088,21.475 19.719,22.313 L18.805,24.092 C17.46,23.4 16.005,23.05 14.481,23.05 C9.253,23.05 5,27.303 5,32.53 C5,37.757 9.253,42.01 14.481,42.01 C19.707,42.01 23.96,37.757 23.96,32.53 C23.96,31.006 23.61,29.552 22.92,28.208 L24.699,27.294 Z" id="Fill-1" fill="#000000"></path>
    </g><g transform="translate(25, 83)" id="svgGroup" stroke-linecap="round" fill-rule="evenodd" font-size="9pt" stroke="#000" stroke-width="0.25mm" fill="#000" style="stroke:#000;stroke-width:0.25mm;fill:#000"><path d="M 63.352 1.731 L 64.538 5.295 L 65.646 1.731 L 66.516 1.731 L 64.604 7.22 Q 64.16 8.407 63.193 8.407 L 63.04 8.394 L 62.736 8.336 L 62.736 7.677 L 62.956 7.695 Q 63.236 7.695 63.432 7.618 A 0.75 0.75 0 0 0 63.6 7.528 A 0.749 0.749 0 0 0 63.76 7.366 Q 63.878 7.207 63.968 6.951 A 2.575 2.575 0 0 0 63.98 6.917 L 64.16 6.434 L 62.464 1.731 L 63.352 1.731 Z M 7.734 1.731 L 8.503 1.731 L 8.53 2.329 Q 9.066 1.654 9.926 1.644 A 2.234 2.234 0 0 1 9.954 1.644 A 1.905 1.905 0 0 1 10.587 1.74 Q 11.429 2.036 11.472 3.242 A 3.668 3.668 0 0 1 11.474 3.344 L 11.474 6.486 L 10.661 6.486 L 10.661 3.34 A 1.837 1.837 0 0 0 10.639 3.06 Q 10.589 2.753 10.426 2.58 Q 10.24 2.381 9.887 2.343 A 1.66 1.66 0 0 0 9.708 2.334 A 1.253 1.253 0 0 0 9.293 2.4 A 1.123 1.123 0 0 0 9.013 2.544 A 1.432 1.432 0 0 0 8.547 3.098 L 8.547 6.486 L 7.734 6.486 L 7.734 1.731 Z M 25.066 1.731 L 25.835 1.731 L 25.862 2.329 Q 26.398 1.654 27.258 1.644 A 2.234 2.234 0 0 1 27.286 1.644 A 1.905 1.905 0 0 1 27.919 1.74 Q 28.761 2.036 28.804 3.242 A 3.668 3.668 0 0 1 28.806 3.344 L 28.806 6.486 L 27.993 6.486 L 27.993 3.34 A 1.837 1.837 0 0 0 27.971 3.06 Q 27.921 2.753 27.758 2.58 Q 27.572 2.381 27.219 2.343 A 1.66 1.66 0 0 0 27.04 2.334 A 1.253 1.253 0 0 0 26.625 2.4 A 1.123 1.123 0 0 0 26.345 2.544 A 1.432 1.432 0 0 0 25.879 3.098 L 25.879 6.486 L 25.066 6.486 L 25.066 1.731 Z M 53.306 1.731 L 54.075 1.731 L 54.101 2.329 Q 54.637 1.654 55.497 1.644 A 2.234 2.234 0 0 1 55.525 1.644 A 1.905 1.905 0 0 1 56.158 1.74 Q 57 2.036 57.043 3.242 A 3.668 3.668 0 0 1 57.045 3.344 L 57.045 6.486 L 56.232 6.486 L 56.232 3.34 A 1.837 1.837 0 0 0 56.21 3.06 Q 56.16 2.753 55.997 2.58 Q 55.811 2.381 55.458 2.343 A 1.66 1.66 0 0 0 55.279 2.334 A 1.253 1.253 0 0 0 54.864 2.4 A 1.123 1.123 0 0 0 54.584 2.544 A 1.432 1.432 0 0 0 54.119 3.098 L 54.119 6.486 L 53.306 6.486 L 53.306 1.731 Z M 48.252 6.486 L 48.234 6.016 A 1.526 1.526 0 0 1 47.408 6.511 Q 47.158 6.572 46.861 6.574 A 2.996 2.996 0 0 1 46.841 6.574 A 2.086 2.086 0 0 1 46.381 6.527 Q 45.951 6.429 45.683 6.133 A 1.41 1.41 0 0 1 45.4 5.635 Q 45.284 5.292 45.281 4.825 L 45.281 1.731 L 46.094 1.731 L 46.094 4.803 Q 46.094 5.773 46.802 5.873 A 1.229 1.229 0 0 0 46.973 5.884 A 1.927 1.927 0 0 0 47.424 5.835 Q 47.986 5.7 48.212 5.19 L 48.212 1.731 L 49.025 1.731 L 49.025 6.486 L 48.252 6.486 Z M 16.717 4.087 L 16.717 4.162 Q 16.717 5.247 16.22 5.911 A 1.57 1.57 0 0 1 15.082 6.564 A 2.013 2.013 0 0 1 14.875 6.574 A 2.196 2.196 0 0 1 14.289 6.5 A 1.598 1.598 0 0 1 13.513 6.025 L 13.513 8.314 L 12.7 8.314 L 12.7 1.731 L 13.443 1.731 L 13.482 2.259 A 1.619 1.619 0 0 1 14.622 1.656 A 2.319 2.319 0 0 1 14.862 1.644 A 1.829 1.829 0 0 1 15.499 1.75 A 1.597 1.597 0 0 1 16.218 2.29 Q 16.717 2.936 16.717 4.087 Z M 58.065 4.241 L 58.065 4.091 A 3.17 3.17 0 0 1 58.141 3.382 A 2.581 2.581 0 0 1 58.335 2.828 A 2.191 2.191 0 0 1 58.783 2.202 A 2.033 2.033 0 0 1 59.091 1.958 Q 59.577 1.644 60.144 1.644 A 2.254 2.254 0 0 1 60.757 1.722 A 1.639 1.639 0 0 1 61.585 2.254 Q 62.099 2.865 62.099 4.003 L 62.099 4.342 L 58.878 4.342 A 2.111 2.111 0 0 0 58.949 4.85 A 1.516 1.516 0 0 0 59.289 5.478 A 1.282 1.282 0 0 0 60.223 5.909 A 1.652 1.652 0 0 0 60.289 5.911 A 1.763 1.763 0 0 0 60.617 5.882 Q 60.841 5.839 61.018 5.735 A 1.827 1.827 0 0 0 61.527 5.287 A 2.068 2.068 0 0 0 61.541 5.269 L 62.038 5.656 A 1.926 1.926 0 0 1 60.638 6.547 A 2.749 2.749 0 0 1 60.245 6.574 A 2.394 2.394 0 0 1 59.493 6.461 A 1.974 1.974 0 0 1 58.671 5.939 Q 58.065 5.304 58.065 4.241 Z M 38.008 4.632 L 38.008 0.088 L 38.856 0.088 L 38.856 4.619 A 2.457 2.457 0 0 1 38.787 5.221 A 1.684 1.684 0 0 1 38.305 6.056 A 1.861 1.861 0 0 1 37.398 6.518 A 2.699 2.699 0 0 1 36.835 6.574 Q 35.881 6.574 35.35 6.086 A 1.592 1.592 0 0 1 34.87 5.231 A 2.381 2.381 0 0 1 34.818 4.72 L 35.662 4.72 Q 35.662 5.182 35.875 5.473 A 0.953 0.953 0 0 0 35.963 5.577 Q 36.235 5.855 36.728 5.881 A 1.983 1.983 0 0 0 36.835 5.884 Q 37.358 5.884 37.681 5.555 Q 37.986 5.243 38.007 4.695 A 2.119 2.119 0 0 0 38.008 4.632 Z M 2.351 3.981 L 0.844 3.981 L 0.844 6.486 L 0 6.486 L 0 0.088 L 2.36 0.088 A 3.315 3.315 0 0 1 3.025 0.151 Q 3.427 0.233 3.738 0.424 A 1.839 1.839 0 0 1 4.006 0.624 A 1.772 1.772 0 0 1 4.593 1.841 A 2.45 2.45 0 0 1 4.601 2.043 Q 4.601 2.975 4.019 3.478 Q 3.54 3.892 2.721 3.966 A 4.14 4.14 0 0 1 2.351 3.981 Z M 30.322 0.58 L 31.135 0.58 L 31.135 1.731 L 32.023 1.731 L 32.023 2.36 L 31.135 2.36 L 31.135 5.309 Q 31.135 5.594 31.254 5.737 Q 31.373 5.88 31.658 5.88 A 1.046 1.046 0 0 0 31.756 5.875 Q 31.858 5.865 31.998 5.837 A 4.024 4.024 0 0 0 32.045 5.827 L 32.045 6.486 A 2.463 2.463 0 0 1 31.612 6.566 A 2.157 2.157 0 0 1 31.421 6.574 Q 30.974 6.574 30.707 6.352 A 0.856 0.856 0 0 1 30.599 6.245 Q 30.372 5.974 30.331 5.516 A 2.351 2.351 0 0 1 30.322 5.309 L 30.322 2.36 L 29.457 2.36 L 29.457 1.731 L 30.322 1.731 L 30.322 0.58 Z M 17.534 4.122 L 17.534 4.065 A 3.057 3.057 0 0 1 17.621 3.323 A 2.573 2.573 0 0 1 17.809 2.808 A 2.16 2.16 0 0 1 18.224 2.223 A 1.957 1.957 0 0 1 18.573 1.947 A 2.036 2.036 0 0 1 19.518 1.65 A 2.491 2.491 0 0 1 19.692 1.644 A 2.277 2.277 0 0 1 20.445 1.763 A 1.937 1.937 0 0 1 21.263 2.316 A 2.29 2.29 0 0 1 21.782 3.345 A 3.373 3.373 0 0 1 21.863 4.105 L 21.863 4.162 A 3.114 3.114 0 0 1 21.783 4.878 A 2.577 2.577 0 0 1 21.597 5.407 A 2.056 2.056 0 0 1 21.07 6.098 A 2.001 2.001 0 0 1 20.837 6.267 A 2.045 2.045 0 0 1 19.917 6.565 A 2.529 2.529 0 0 1 19.701 6.574 A 2.262 2.262 0 0 1 18.95 6.455 A 1.938 1.938 0 0 1 18.134 5.902 A 2.297 2.297 0 0 1 17.608 4.847 A 3.357 3.357 0 0 1 17.534 4.122 Z M 39.951 4.122 L 39.951 4.065 A 3.057 3.057 0 0 1 40.038 3.323 A 2.573 2.573 0 0 1 40.225 2.808 A 2.16 2.16 0 0 1 40.64 2.223 A 1.957 1.957 0 0 1 40.99 1.947 A 2.036 2.036 0 0 1 41.934 1.65 A 2.491 2.491 0 0 1 42.108 1.644 A 2.277 2.277 0 0 1 42.862 1.763 A 1.937 1.937 0 0 1 43.679 2.316 A 2.29 2.29 0 0 1 44.198 3.345 A 3.373 3.373 0 0 1 44.279 4.105 L 44.279 4.162 A 3.114 3.114 0 0 1 44.2 4.878 A 2.577 2.577 0 0 1 44.013 5.407 A 2.056 2.056 0 0 1 43.486 6.098 A 2.001 2.001 0 0 1 43.253 6.267 A 2.045 2.045 0 0 1 42.333 6.565 A 2.529 2.529 0 0 1 42.117 6.574 A 2.262 2.262 0 0 1 41.367 6.455 A 1.938 1.938 0 0 1 40.551 5.902 A 2.297 2.297 0 0 1 40.025 4.847 A 3.357 3.357 0 0 1 39.951 4.122 Z M 52.559 1.705 L 52.559 2.461 A 2.251 2.251 0 0 0 52.316 2.435 A 2.782 2.782 0 0 0 52.159 2.43 Q 51.381 2.43 51.089 3.074 A 1.445 1.445 0 0 0 51.073 3.111 L 51.073 6.486 L 50.26 6.486 L 50.26 1.731 L 51.051 1.731 L 51.064 2.281 Q 51.445 1.675 52.127 1.645 A 1.636 1.636 0 0 1 52.198 1.644 Q 52.436 1.644 52.559 1.705 Z M 6.434 1.731 L 6.434 6.486 L 5.621 6.486 L 5.621 1.731 L 6.434 1.731 Z M 23.766 1.731 L 23.766 6.486 L 22.953 6.486 L 22.953 1.731 L 23.766 1.731 Z M 18.352 4.162 A 2.772 2.772 0 0 0 18.399 4.69 Q 18.459 5.001 18.597 5.246 A 1.545 1.545 0 0 0 18.719 5.432 Q 19.085 5.911 19.701 5.911 A 1.269 1.269 0 0 0 20.19 5.819 Q 20.469 5.704 20.672 5.442 A 1.471 1.471 0 0 0 20.685 5.425 A 1.648 1.648 0 0 0 20.94 4.908 Q 21.009 4.681 21.034 4.408 A 3.655 3.655 0 0 0 21.05 4.065 A 2.687 2.687 0 0 0 20.999 3.525 Q 20.931 3.195 20.774 2.936 A 1.586 1.586 0 0 0 20.678 2.797 A 1.231 1.231 0 0 0 20.263 2.442 Q 20.01 2.312 19.692 2.312 Q 19.102 2.312 18.736 2.771 A 1.515 1.515 0 0 0 18.721 2.791 A 1.589 1.589 0 0 0 18.469 3.288 Q 18.399 3.509 18.371 3.775 A 3.676 3.676 0 0 0 18.352 4.162 Z M 40.768 4.162 A 2.772 2.772 0 0 0 40.815 4.69 Q 40.876 5.001 41.013 5.246 A 1.545 1.545 0 0 0 41.135 5.432 Q 41.502 5.911 42.117 5.911 A 1.269 1.269 0 0 0 42.607 5.819 Q 42.886 5.704 43.089 5.442 A 1.471 1.471 0 0 0 43.102 5.425 A 1.648 1.648 0 0 0 43.356 4.908 Q 43.425 4.681 43.451 4.408 A 3.655 3.655 0 0 0 43.466 4.065 A 2.687 2.687 0 0 0 43.415 3.525 Q 43.347 3.195 43.19 2.936 A 1.586 1.586 0 0 0 43.095 2.797 A 1.231 1.231 0 0 0 42.68 2.442 Q 42.427 2.312 42.108 2.312 Q 41.519 2.312 41.152 2.771 A 1.515 1.515 0 0 0 41.137 2.791 A 1.589 1.589 0 0 0 40.885 3.288 Q 40.816 3.509 40.787 3.775 A 3.676 3.676 0 0 0 40.768 4.162 Z M 13.513 2.988 L 13.513 5.26 Q 13.878 5.911 14.629 5.911 A 1.184 1.184 0 0 0 15.095 5.822 Q 15.352 5.713 15.54 5.471 A 1.403 1.403 0 0 0 15.559 5.447 A 1.501 1.501 0 0 0 15.776 5.016 Q 15.844 4.809 15.876 4.555 A 3.91 3.91 0 0 0 15.904 4.069 Q 15.904 3.482 15.721 3.075 A 1.503 1.503 0 0 0 15.561 2.799 A 1.086 1.086 0 0 0 14.775 2.342 A 1.414 1.414 0 0 0 14.621 2.334 Q 13.96 2.334 13.595 2.858 A 1.623 1.623 0 0 0 13.513 2.988 Z M 0.844 0.782 L 0.844 3.292 L 2.36 3.292 A 2.313 2.313 0 0 0 2.752 3.26 Q 2.969 3.223 3.142 3.141 A 1.097 1.097 0 0 0 3.397 2.973 A 1.028 1.028 0 0 0 3.715 2.433 Q 3.756 2.265 3.757 2.065 A 1.996 1.996 0 0 0 3.757 2.052 A 1.466 1.466 0 0 0 3.703 1.645 A 1.112 1.112 0 0 0 3.397 1.138 Q 3.037 0.795 2.408 0.782 L 0.844 0.782 Z M 58.904 3.674 L 61.286 3.674 L 61.286 3.612 Q 61.26 3.153 61.089 2.848 A 1.13 1.13 0 0 0 60.952 2.652 A 0.983 0.983 0 0 0 60.298 2.32 A 1.39 1.39 0 0 0 60.144 2.312 A 1.106 1.106 0 0 0 59.621 2.435 A 1.14 1.14 0 0 0 59.317 2.67 A 1.417 1.417 0 0 0 59.041 3.116 Q 58.967 3.3 58.927 3.522 A 2.741 2.741 0 0 0 58.904 3.674 Z M 5.555 0.47 Q 5.555 0.272 5.676 0.136 Q 5.787 0.01 5.999 0.001 A 0.783 0.783 0 0 1 6.034 0 Q 6.271 0 6.394 0.136 A 0.474 0.474 0 0 1 6.516 0.44 A 0.614 0.614 0 0 1 6.517 0.47 A 0.523 0.523 0 0 1 6.492 0.636 A 0.442 0.442 0 0 1 6.394 0.8 Q 6.282 0.92 6.074 0.931 A 0.803 0.803 0 0 1 6.034 0.932 Q 5.861 0.932 5.75 0.862 A 0.362 0.362 0 0 1 5.676 0.8 A 0.456 0.456 0 0 1 5.557 0.525 A 0.605 0.605 0 0 1 5.555 0.47 Z M 22.887 0.47 Q 22.887 0.272 23.008 0.136 Q 23.119 0.01 23.331 0.001 A 0.783 0.783 0 0 1 23.366 0 Q 23.603 0 23.726 0.136 A 0.474 0.474 0 0 1 23.848 0.44 A 0.614 0.614 0 0 1 23.849 0.47 A 0.523 0.523 0 0 1 23.824 0.636 A 0.442 0.442 0 0 1 23.726 0.8 Q 23.614 0.92 23.406 0.931 A 0.803 0.803 0 0 1 23.366 0.932 Q 23.193 0.932 23.083 0.862 A 0.362 0.362 0 0 1 23.008 0.8 A 0.456 0.456 0 0 1 22.889 0.525 A 0.605 0.605 0 0 1 22.887 0.47 Z" vector-effect="non-scaling-stroke"/></g><g transform="translate(25, 93)" id="svgGroup" stroke-linecap="round" fill-rule="evenodd" font-size="9pt" stroke="#000" stroke-width="0.25mm" fill="#000" style="stroke:#000;stroke-width:0.25mm;fill:#000"><path d="M 29.544 6.75 L 27.888 4.548 L 27.378 5.08 L 27.378 6.75 L 26.565 6.75 L 26.565 0 L 27.378 0 L 27.378 4.083 L 27.813 3.56 L 29.294 1.995 L 30.283 1.995 L 28.433 3.981 L 30.498 6.75 L 29.544 6.75 Z M 22.408 6.75 L 21.555 6.75 A 0.632 0.632 0 0 1 21.52 6.66 Q 21.488 6.562 21.464 6.41 A 3.997 3.997 0 0 1 21.441 6.249 Q 20.874 6.838 20.087 6.838 A 2.033 2.033 0 0 1 19.558 6.772 A 1.529 1.529 0 0 1 18.934 6.44 Q 18.483 6.042 18.483 5.432 Q 18.483 4.689 19.048 4.278 Q 19.613 3.867 20.637 3.867 L 21.428 3.867 L 21.428 3.494 A 1.152 1.152 0 0 0 21.392 3.199 A 0.828 0.828 0 0 0 21.173 2.815 Q 20.957 2.6 20.566 2.568 A 1.748 1.748 0 0 0 20.421 2.562 Q 19.986 2.562 19.692 2.782 Q 19.397 3.001 19.397 3.313 L 18.58 3.313 A 1.041 1.041 0 0 1 18.705 2.825 A 1.409 1.409 0 0 1 18.833 2.626 Q 19.085 2.294 19.518 2.101 A 2.249 2.249 0 0 1 20.294 1.913 A 2.669 2.669 0 0 1 20.47 1.907 A 2.65 2.65 0 0 1 20.987 1.955 Q 21.294 2.016 21.533 2.156 A 1.439 1.439 0 0 1 21.757 2.318 A 1.396 1.396 0 0 1 22.211 3.144 A 1.998 1.998 0 0 1 22.241 3.45 L 22.241 5.638 Q 22.241 6.073 22.314 6.39 A 1.707 1.707 0 0 0 22.408 6.68 L 22.408 6.75 Z M 3.731 0.352 L 3.731 4.601 L 4.619 4.601 L 4.619 5.265 L 3.731 5.265 L 3.731 6.75 L 2.914 6.75 L 2.914 5.265 L 0 5.265 L 0 4.786 L 2.865 0.352 L 3.731 0.352 Z M 14.616 6.75 L 12.845 6.75 L 12.845 0.352 L 14.651 0.352 Q 15.486 0.352 16.128 0.721 Q 16.77 1.09 17.119 1.771 A 3.19 3.19 0 0 1 17.436 2.8 A 4.073 4.073 0 0 1 17.473 3.335 L 17.473 3.744 Q 17.473 4.649 17.123 5.331 A 2.457 2.457 0 0 1 16.126 6.376 Q 15.478 6.741 14.616 6.75 Z M 9.129 2.592 A 1.544 1.544 0 0 0 9.233 2.021 A 2.226 2.226 0 0 0 9.211 1.707 A 1.566 1.566 0 0 0 8.712 0.738 A 1.754 1.754 0 0 0 7.946 0.333 A 2.443 2.443 0 0 0 7.348 0.264 A 2.539 2.539 0 0 0 6.838 0.312 A 1.767 1.767 0 0 0 5.981 0.738 Q 5.462 1.213 5.462 2.021 A 1.808 1.808 0 0 0 5.463 2.058 A 1.499 1.499 0 0 0 5.708 2.87 A 1.626 1.626 0 0 0 5.87 3.077 A 1.726 1.726 0 0 0 6.381 3.454 A 2.119 2.119 0 0 0 6.281 3.5 A 1.738 1.738 0 0 0 5.596 4.087 A 1.629 1.629 0 0 0 5.313 5.023 A 2.272 2.272 0 0 0 5.323 5.237 A 1.63 1.63 0 0 0 5.869 6.344 A 1.895 1.895 0 0 0 6.719 6.771 A 2.797 2.797 0 0 0 7.348 6.838 A 2.796 2.796 0 0 0 7.947 6.777 A 1.925 1.925 0 0 0 8.822 6.346 A 1.578 1.578 0 0 0 9.297 5.62 A 1.989 1.989 0 0 0 9.382 5.023 A 1.581 1.581 0 0 0 9.09 4.087 Q 8.798 3.674 8.297 3.458 Q 8.728 3.248 8.98 2.874 A 1.449 1.449 0 0 0 9.129 2.592 Z M 25.813 1.969 L 25.813 2.725 A 2.251 2.251 0 0 0 25.571 2.698 A 2.782 2.782 0 0 0 25.414 2.694 Q 24.636 2.694 24.344 3.338 A 1.445 1.445 0 0 0 24.328 3.375 L 24.328 6.75 L 23.515 6.75 L 23.515 1.995 L 24.306 1.995 L 24.319 2.544 Q 24.7 1.938 25.382 1.909 A 1.636 1.636 0 0 1 25.453 1.907 Q 25.69 1.907 25.813 1.969 Z M 14.673 1.046 L 13.689 1.046 L 13.689 6.06 L 14.577 6.06 A 2.519 2.519 0 0 0 15.209 5.985 A 1.747 1.747 0 0 0 16.095 5.454 Q 16.554 4.94 16.625 4.059 A 4.165 4.165 0 0 0 16.638 3.727 L 16.638 3.353 Q 16.638 2.562 16.368 2.027 A 1.864 1.864 0 0 0 16.126 1.659 A 1.687 1.687 0 0 0 15.13 1.09 A 2.499 2.499 0 0 0 14.673 1.046 Z M 2.817 1.639 L 0.923 4.601 L 2.914 4.601 L 2.914 1.463 L 2.817 1.639 Z M 8.569 5.005 A 1.375 1.375 0 0 0 8.51 4.592 A 1.109 1.109 0 0 0 8.229 4.131 A 1.148 1.148 0 0 0 7.557 3.807 A 1.593 1.593 0 0 0 7.339 3.792 A 1.466 1.466 0 0 0 6.95 3.841 A 1.086 1.086 0 0 0 6.458 4.126 A 1.123 1.123 0 0 0 6.144 4.762 A 1.572 1.572 0 0 0 6.126 5.005 A 1.48 1.48 0 0 0 6.168 5.367 A 1.019 1.019 0 0 0 6.449 5.862 Q 6.755 6.158 7.288 6.173 A 2.053 2.053 0 0 0 7.348 6.174 Q 7.841 6.174 8.151 5.94 A 1.018 1.018 0 0 0 8.244 5.86 A 1.041 1.041 0 0 0 8.544 5.292 A 1.518 1.518 0 0 0 8.569 5.005 Z M 7.348 0.932 A 1.259 1.259 0 0 0 6.995 0.979 A 0.973 0.973 0 0 0 6.572 1.228 Q 6.275 1.525 6.275 2.035 A 1.325 1.325 0 0 0 6.32 2.387 A 0.994 0.994 0 0 0 6.568 2.823 A 0.974 0.974 0 0 0 7.13 3.108 A 1.382 1.382 0 0 0 7.348 3.125 A 1.279 1.279 0 0 0 7.692 3.08 A 0.952 0.952 0 0 0 8.128 2.823 A 1.018 1.018 0 0 0 8.403 2.26 A 1.426 1.426 0 0 0 8.42 2.035 A 1.282 1.282 0 0 0 8.37 1.668 A 1.013 1.013 0 0 0 8.117 1.239 Q 7.813 0.932 7.348 0.932 Z M 21.428 5.418 L 21.428 4.443 L 20.791 4.443 Q 19.296 4.443 19.296 5.317 Q 19.296 5.7 19.551 5.915 A 0.893 0.893 0 0 0 19.965 6.108 A 1.259 1.259 0 0 0 20.206 6.13 A 1.429 1.429 0 0 0 20.931 5.933 A 1.335 1.335 0 0 0 21.227 5.705 A 1.108 1.108 0 0 0 21.428 5.418 Z" vector-effect="non-scaling-stroke"/></g>
</svg>