<?xml version="1.0" encoding="UTF-8"?>
<svg width="48px" height="48px" viewBox="0 0 48 48" version="1.1" xmlns="http://www.w3.org/2000/svg" xmlns:xlink="http://www.w3.org/1999/xlink">
    <title>Icon-Resource/IoT/Res_AWS-IoT-Analytics_Notebook_48_Dark</title>
    <g id="Icon-Resource/IoT/Res_AWS-IoT-Analytics_Notebook_48" stroke="none" stroke-width="1" fill="none" fill-rule="evenodd">
        <path transform="translate(12.000000, 8.000000), scale(.65)" d="M7.972,2 L7.972,7.206 L5,7.206 L5,9.206 L7.972,9.206 L7.972,12.467 L5,12.467 L5,14.467 L7.972,14.467 L7.972,17.781 L5,17.781 L5,19.78 L7.972,19.78 L7.972,23.055 L5,23.055 L5,25.054 L7.972,25.054 L7.972,28.247 L5,28.247 L5,30.247 L7.972,30.247 L7.972,33.48 L5,33.48 L5,35.48 L7.972,35.48 L7.972,38.794 L5,38.794 L5,40.794 L7.972,40.794 L7.972,45.973 L43.586,45.973 L43.586,2 L7.972,2 Z M9.972,4.001 L41.586,4.001 L41.586,43.973 L9.972,43.973 L9.972,40.794 L13.051,40.794 L13.051,38.794 L9.972,38.794 L9.972,35.48 L13.051,35.48 L13.051,33.48 L9.972,33.48 L9.972,30.247 L13.051,30.247 L13.051,28.247 L9.972,28.247 L9.972,25.054 L13.051,25.054 L13.051,23.055 L9.972,23.055 L9.972,19.78 L13.051,19.78 L13.051,17.781 L9.972,17.781 L9.972,14.467 L13.051,14.467 L13.051,12.467 L9.972,12.467 L9.972,9.206 L13.051,9.206 L13.051,7.206 L9.972,7.206 L9.972,4.001 Z M16.861,9.206 L36.559,9.206 L36.559,7.206 L16.861,7.206 L16.861,9.206 Z M16.861,15.594 L36.559,15.594 L36.559,13.593 L16.861,13.593 L16.861,15.594 Z M16.861,21.927 L36.559,21.927 L36.559,19.927 L16.861,19.927 L16.861,21.927 Z M16.861,28.314 L26.764,28.314 L26.764,26.313 L16.861,26.313 L16.861,28.314 Z" id="AWS-IoT-Analytics-Notebook_Resource-Icon_light-bg" fill="#000000"></path>
    </g><g transform="translate(25, 83)" id="svgGroup" stroke-linecap="round" fill-rule="evenodd" font-size="9pt" stroke="#000" stroke-width="0.25mm" fill="#000" style="stroke:#000;stroke-width:0.25mm;fill:#000"><path d="M 23.12 0.088 L 24.13 4.469 L 24.253 5.313 L 24.434 4.553 L 25.699 0.088 L 26.411 0.088 L 27.646 4.553 L 27.822 5.326 L 27.958 4.465 L 28.951 0.088 L 29.799 0.088 L 28.248 6.486 L 27.479 6.486 L 26.161 1.824 L 26.06 1.336 L 25.958 1.824 L 24.592 6.486 L 23.823 6.486 L 22.276 0.088 L 23.12 0.088 Z M 34.98 1.938 L 34.132 1.938 A 1.466 1.466 0 0 0 34.083 1.546 A 1.066 1.066 0 0 0 33.763 1.026 A 1.211 1.211 0 0 0 33.294 0.77 Q 33.042 0.694 32.722 0.694 A 2.286 2.286 0 0 0 32.342 0.724 Q 32.14 0.758 31.977 0.831 A 1.101 1.101 0 0 0 31.748 0.969 A 0.892 0.892 0 0 0 31.403 1.624 A 1.267 1.267 0 0 0 31.399 1.732 A 0.806 0.806 0 0 0 31.667 2.337 A 1.134 1.134 0 0 0 31.731 2.393 A 1.562 1.562 0 0 0 31.969 2.549 Q 32.299 2.73 32.86 2.887 A 8.228 8.228 0 0 1 33.325 3.032 Q 33.56 3.113 33.754 3.2 A 3.297 3.297 0 0 1 34.108 3.382 A 2.342 2.342 0 0 1 34.447 3.626 Q 34.637 3.792 34.759 3.985 A 1.45 1.45 0 0 1 34.776 4.012 A 1.498 1.498 0 0 1 34.972 4.568 A 1.948 1.948 0 0 1 34.994 4.86 A 1.606 1.606 0 0 1 34.871 5.497 Q 34.726 5.838 34.408 6.09 A 1.886 1.886 0 0 1 34.387 6.106 Q 33.781 6.574 32.766 6.574 A 3.023 3.023 0 0 1 31.625 6.36 A 2.917 2.917 0 0 1 31.535 6.322 A 2.383 2.383 0 0 1 31.057 6.044 A 1.874 1.874 0 0 1 30.654 5.629 A 1.689 1.689 0 0 1 30.344 4.632 L 31.192 4.632 A 1.261 1.261 0 0 0 31.262 5.059 A 1.074 1.074 0 0 0 31.621 5.548 Q 32.005 5.85 32.622 5.881 A 2.87 2.87 0 0 0 32.766 5.884 A 2.628 2.628 0 0 0 33.153 5.858 Q 33.349 5.828 33.508 5.767 A 1.129 1.129 0 0 0 33.79 5.612 Q 34.146 5.339 34.146 4.869 A 1.074 1.074 0 0 0 34.103 4.559 A 0.816 0.816 0 0 0 33.816 4.142 Q 33.486 3.885 32.621 3.634 Q 31.535 3.322 31.041 2.868 Q 30.546 2.413 30.546 1.745 Q 30.546 0.989 31.151 0.494 A 2.121 2.121 0 0 1 32.041 0.071 A 3.087 3.087 0 0 1 32.722 0 A 2.913 2.913 0 0 1 33.382 0.072 A 2.372 2.372 0 0 1 33.897 0.255 A 2.051 2.051 0 0 1 34.428 0.626 A 1.834 1.834 0 0 1 34.697 0.958 A 1.798 1.798 0 0 1 34.98 1.938 Z M 3.74 6.486 L 2.351 3.898 L 0.848 3.898 L 0.848 6.486 L 0 6.486 L 0 0.088 L 2.118 0.088 A 3.809 3.809 0 0 1 2.76 0.138 Q 3.102 0.197 3.376 0.324 A 1.789 1.789 0 0 1 3.781 0.58 A 1.588 1.588 0 0 1 4.307 1.469 A 2.453 2.453 0 0 1 4.364 2.013 A 1.864 1.864 0 0 1 4.273 2.604 A 1.64 1.64 0 0 1 4.041 3.054 A 1.849 1.849 0 0 1 3.382 3.611 A 2.342 2.342 0 0 1 3.142 3.718 L 4.645 6.434 L 4.645 6.486 L 3.74 6.486 Z M 13.724 3.129 L 12.907 3.129 Q 12.907 2.795 12.623 2.553 Q 12.34 2.312 11.909 2.312 Q 11.465 2.312 11.215 2.505 A 0.653 0.653 0 0 0 11.04 2.704 Q 10.967 2.835 10.964 3 A 0.771 0.771 0 0 0 10.964 3.01 A 0.588 0.588 0 0 0 10.994 3.203 A 0.48 0.48 0 0 0 11.197 3.454 A 1.093 1.093 0 0 0 11.348 3.533 Q 11.512 3.605 11.767 3.673 A 6.581 6.581 0 0 0 12.039 3.74 A 6.318 6.318 0 0 1 12.446 3.845 Q 12.783 3.944 13.025 4.065 A 1.901 1.901 0 0 1 13.281 4.218 Q 13.418 4.315 13.516 4.429 A 1.06 1.06 0 0 1 13.586 4.52 A 1.024 1.024 0 0 1 13.748 4.927 A 1.388 1.388 0 0 1 13.768 5.168 Q 13.768 5.805 13.258 6.19 Q 12.776 6.554 12.022 6.573 A 3.337 3.337 0 0 1 11.936 6.574 A 2.746 2.746 0 0 1 11.401 6.525 A 2.124 2.124 0 0 1 10.925 6.372 A 1.771 1.771 0 0 1 10.491 6.094 A 1.54 1.54 0 0 1 10.237 5.807 Q 9.989 5.445 9.989 5.023 L 10.802 5.023 A 0.932 0.932 0 0 0 10.875 5.348 A 0.827 0.827 0 0 0 11.129 5.671 A 1.072 1.072 0 0 0 11.531 5.864 Q 11.686 5.903 11.867 5.91 A 2.013 2.013 0 0 0 11.936 5.911 A 1.863 1.863 0 0 0 12.231 5.889 Q 12.393 5.863 12.524 5.806 A 0.941 0.941 0 0 0 12.676 5.724 A 0.689 0.689 0 0 0 12.841 5.574 A 0.554 0.554 0 0 0 12.955 5.225 A 0.698 0.698 0 0 0 12.919 4.994 A 0.581 0.581 0 0 0 12.707 4.713 A 1.05 1.05 0 0 0 12.538 4.615 Q 12.349 4.524 12.054 4.449 A 5.392 5.392 0 0 0 11.841 4.399 A 6.342 6.342 0 0 1 11.48 4.311 Q 11.11 4.209 10.861 4.083 Q 10.562 3.93 10.392 3.731 A 1.017 1.017 0 0 1 10.325 3.643 Q 10.151 3.388 10.151 3.037 A 1.206 1.206 0 0 1 10.55 2.132 A 1.694 1.694 0 0 1 10.646 2.048 A 1.752 1.752 0 0 1 11.429 1.688 A 2.471 2.471 0 0 1 11.909 1.644 A 2.559 2.559 0 0 1 12.473 1.702 A 1.757 1.757 0 0 1 13.221 2.061 Q 13.724 2.479 13.724 3.129 Z M 21.327 6.486 L 20.716 4.816 L 18.035 4.816 L 17.433 6.486 L 16.563 6.486 L 19.006 0.088 L 19.745 0.088 L 22.192 6.486 L 21.327 6.486 Z M 5.212 4.241 L 5.212 4.091 A 3.17 3.17 0 0 1 5.288 3.382 A 2.581 2.581 0 0 1 5.482 2.828 A 2.191 2.191 0 0 1 5.93 2.202 A 2.033 2.033 0 0 1 6.238 1.958 Q 6.724 1.644 7.291 1.644 A 2.254 2.254 0 0 1 7.904 1.723 A 1.639 1.639 0 0 1 8.732 2.254 Q 9.246 2.865 9.246 4.003 L 9.246 4.342 L 6.025 4.342 A 2.111 2.111 0 0 0 6.096 4.85 A 1.516 1.516 0 0 0 6.436 5.478 A 1.282 1.282 0 0 0 7.37 5.909 A 1.652 1.652 0 0 0 7.436 5.911 A 1.763 1.763 0 0 0 7.764 5.882 Q 7.988 5.839 8.165 5.735 A 1.827 1.827 0 0 0 8.674 5.287 A 2.068 2.068 0 0 0 8.688 5.269 L 9.185 5.656 A 1.926 1.926 0 0 1 7.785 6.547 A 2.749 2.749 0 0 1 7.392 6.574 A 2.394 2.394 0 0 1 6.64 6.461 A 1.974 1.974 0 0 1 5.818 5.939 Q 5.212 5.304 5.212 4.241 Z M 0.848 0.782 L 0.848 3.208 L 2.145 3.208 Q 2.685 3.208 3.035 2.968 A 1.174 1.174 0 0 0 3.144 2.883 A 1.069 1.069 0 0 0 3.51 2.146 A 1.486 1.486 0 0 0 3.516 2.013 Q 3.516 1.47 3.22 1.159 A 1 1 0 0 0 3.162 1.103 Q 2.808 0.787 2.14 0.782 L 0.848 0.782 Z M 19.375 1.129 L 18.29 4.122 L 20.465 4.122 L 19.375 1.129 Z M 6.051 3.674 L 8.433 3.674 L 8.433 3.612 Q 8.407 3.153 8.236 2.848 A 1.13 1.13 0 0 0 8.099 2.652 A 0.983 0.983 0 0 0 7.445 2.32 A 1.39 1.39 0 0 0 7.291 2.312 A 1.106 1.106 0 0 0 6.768 2.435 A 1.14 1.14 0 0 0 6.464 2.67 A 1.417 1.417 0 0 0 6.188 3.116 Q 6.114 3.3 6.074 3.522 A 2.741 2.741 0 0 0 6.051 3.674 Z" vector-effect="non-scaling-stroke"/></g><g transform="translate(25, 93)" id="svgGroup" stroke-linecap="round" fill-rule="evenodd" font-size="9pt" stroke="#000" stroke-width="0.25mm" fill="#000" style="stroke:#000;stroke-width:0.25mm;fill:#000"><path d="M 58.913 0.352 L 58.913 6.75 L 58.065 6.75 L 54.844 1.819 L 54.844 6.75 L 53.996 6.75 L 53.996 0.352 L 54.844 0.352 L 58.074 5.304 L 58.074 0.352 L 58.913 0.352 Z M 91.424 6.75 L 89.767 4.548 L 89.257 5.08 L 89.257 6.75 L 88.444 6.75 L 88.444 0 L 89.257 0 L 89.257 4.083 L 89.692 3.56 L 91.173 1.995 L 92.162 1.995 L 90.312 3.981 L 92.377 6.75 L 91.424 6.75 Z M 124.392 6.75 L 122.735 4.548 L 122.225 5.08 L 122.225 6.75 L 121.412 6.75 L 121.412 0 L 122.225 0 L 122.225 4.083 L 122.66 3.56 L 124.141 1.995 L 125.13 1.995 L 123.28 3.981 L 125.345 6.75 L 124.392 6.75 Z M 50.537 3.393 L 49.72 3.393 Q 49.72 3.059 49.436 2.817 Q 49.153 2.575 48.722 2.575 Q 48.278 2.575 48.028 2.769 A 0.653 0.653 0 0 0 47.853 2.967 Q 47.78 3.098 47.777 3.263 A 0.771 0.771 0 0 0 47.777 3.274 A 0.588 0.588 0 0 0 47.807 3.467 A 0.48 0.48 0 0 0 48.01 3.718 A 1.093 1.093 0 0 0 48.16 3.796 Q 48.325 3.868 48.58 3.937 A 6.581 6.581 0 0 0 48.852 4.003 A 6.318 6.318 0 0 1 49.259 4.108 Q 49.596 4.208 49.838 4.329 A 1.901 1.901 0 0 1 50.094 4.481 Q 50.231 4.579 50.329 4.692 A 1.06 1.06 0 0 1 50.399 4.783 A 1.024 1.024 0 0 1 50.561 5.191 A 1.388 1.388 0 0 1 50.581 5.432 Q 50.581 6.069 50.071 6.453 Q 49.589 6.817 48.835 6.837 A 3.337 3.337 0 0 1 48.749 6.838 A 2.746 2.746 0 0 1 48.214 6.788 A 2.124 2.124 0 0 1 47.738 6.636 A 1.771 1.771 0 0 1 47.304 6.358 A 1.54 1.54 0 0 1 47.05 6.071 Q 46.802 5.708 46.802 5.287 L 47.615 5.287 A 0.932 0.932 0 0 0 47.688 5.612 A 0.827 0.827 0 0 0 47.942 5.935 A 1.072 1.072 0 0 0 48.344 6.128 Q 48.499 6.167 48.68 6.173 A 2.013 2.013 0 0 0 48.749 6.174 A 1.863 1.863 0 0 0 49.044 6.152 Q 49.206 6.126 49.337 6.07 A 0.941 0.941 0 0 0 49.489 5.988 A 0.689 0.689 0 0 0 49.654 5.837 A 0.554 0.554 0 0 0 49.768 5.489 A 0.698 0.698 0 0 0 49.732 5.258 A 0.581 0.581 0 0 0 49.52 4.977 A 1.05 1.05 0 0 0 49.351 4.878 Q 49.162 4.788 48.867 4.712 A 5.392 5.392 0 0 0 48.654 4.663 A 6.342 6.342 0 0 1 48.293 4.575 Q 47.923 4.473 47.674 4.346 Q 47.375 4.194 47.205 3.994 A 1.017 1.017 0 0 1 47.138 3.907 Q 46.964 3.652 46.964 3.3 A 1.206 1.206 0 0 1 47.363 2.396 A 1.694 1.694 0 0 1 47.459 2.312 A 1.752 1.752 0 0 1 48.242 1.952 A 2.471 2.471 0 0 1 48.722 1.907 A 2.559 2.559 0 0 1 49.286 1.966 A 1.757 1.757 0 0 1 50.034 2.325 Q 50.537 2.742 50.537 3.393 Z M 33.275 1.995 L 34.462 5.559 L 35.569 1.995 L 36.439 1.995 L 34.528 7.484 Q 34.084 8.67 33.117 8.67 L 32.963 8.657 L 32.66 8.6 L 32.66 7.941 L 32.88 7.958 Q 33.16 7.958 33.356 7.882 A 0.75 0.75 0 0 0 33.524 7.792 A 0.749 0.749 0 0 0 33.684 7.629 Q 33.802 7.47 33.892 7.215 A 2.575 2.575 0 0 0 33.904 7.181 L 34.084 6.697 L 32.388 1.995 L 33.275 1.995 Z M 20.861 1.995 L 21.63 1.995 L 21.656 2.593 Q 22.193 1.918 23.052 1.907 A 2.234 2.234 0 0 1 23.08 1.907 A 1.905 1.905 0 0 1 23.714 2.004 Q 24.555 2.3 24.598 3.506 A 3.668 3.668 0 0 1 24.601 3.608 L 24.601 6.75 L 23.788 6.75 L 23.788 3.604 A 1.837 1.837 0 0 0 23.765 3.324 Q 23.715 3.017 23.552 2.843 Q 23.366 2.645 23.013 2.606 A 1.66 1.66 0 0 0 22.834 2.597 A 1.253 1.253 0 0 0 22.42 2.664 A 1.123 1.123 0 0 0 22.14 2.808 A 1.432 1.432 0 0 0 21.674 3.362 L 21.674 6.75 L 20.861 6.75 L 20.861 1.995 Z M 45.316 5.251 L 46.085 5.251 A 1.432 1.432 0 0 1 45.886 5.901 A 1.772 1.772 0 0 1 45.804 6.029 A 1.828 1.828 0 0 1 45.195 6.574 A 2.169 2.169 0 0 1 45.112 6.618 A 1.997 1.997 0 0 1 44.196 6.838 A 2.346 2.346 0 0 1 43.499 6.739 A 1.839 1.839 0 0 1 42.651 6.19 A 2.171 2.171 0 0 1 42.187 5.31 Q 42.078 4.909 42.078 4.417 L 42.078 4.28 A 3.24 3.24 0 0 1 42.141 3.624 A 2.57 2.57 0 0 1 42.333 3.045 A 2.008 2.008 0 0 1 42.772 2.431 A 1.892 1.892 0 0 1 43.064 2.206 A 1.943 1.943 0 0 1 43.821 1.934 A 2.529 2.529 0 0 1 44.191 1.907 A 2.196 2.196 0 0 1 44.84 1.999 A 1.786 1.786 0 0 1 45.521 2.386 A 1.693 1.693 0 0 1 46.079 3.535 A 2.239 2.239 0 0 1 46.085 3.63 L 45.316 3.63 Q 45.281 3.168 44.967 2.872 A 1.078 1.078 0 0 0 44.238 2.576 A 1.402 1.402 0 0 0 44.191 2.575 A 1.374 1.374 0 0 0 43.77 2.637 A 1.081 1.081 0 0 0 43.231 3.021 A 1.469 1.469 0 0 0 43.004 3.468 Q 42.939 3.674 42.911 3.923 A 3.514 3.514 0 0 0 42.891 4.311 L 42.891 4.465 Q 42.891 5.287 43.229 5.73 A 1.1 1.1 0 0 0 44.016 6.165 A 1.611 1.611 0 0 0 44.196 6.174 A 1.171 1.171 0 0 0 44.956 5.911 A 1.007 1.007 0 0 0 45.2 5.629 A 0.914 0.914 0 0 0 45.316 5.251 Z M 11.94 0.352 L 11.94 1.046 L 9.883 1.046 L 9.883 6.75 L 9.044 6.75 L 9.044 1.046 L 6.992 1.046 L 6.992 0.352 L 11.94 0.352 Z M 19.261 6.75 L 18.65 5.08 L 15.97 5.08 L 15.368 6.75 L 14.498 6.75 L 16.941 0.352 L 17.679 0.352 L 20.127 6.75 L 19.261 6.75 Z M 29.615 6.75 L 28.762 6.75 A 0.632 0.632 0 0 1 28.727 6.66 Q 28.695 6.562 28.671 6.41 A 3.997 3.997 0 0 1 28.648 6.249 Q 28.081 6.838 27.294 6.838 A 2.033 2.033 0 0 1 26.765 6.772 A 1.529 1.529 0 0 1 26.141 6.44 Q 25.69 6.042 25.69 5.432 Q 25.69 4.689 26.255 4.278 Q 26.82 3.867 27.844 3.867 L 28.635 3.867 L 28.635 3.494 A 1.152 1.152 0 0 0 28.599 3.199 A 0.828 0.828 0 0 0 28.38 2.815 Q 28.164 2.6 27.773 2.568 A 1.748 1.748 0 0 0 27.628 2.562 Q 27.193 2.562 26.899 2.782 Q 26.604 3.001 26.604 3.313 L 25.787 3.313 A 1.041 1.041 0 0 1 25.912 2.825 A 1.409 1.409 0 0 1 26.04 2.626 Q 26.292 2.294 26.725 2.101 A 2.249 2.249 0 0 1 27.501 1.913 A 2.669 2.669 0 0 1 27.677 1.907 A 2.65 2.65 0 0 1 28.194 1.955 Q 28.501 2.016 28.74 2.156 A 1.439 1.439 0 0 1 28.964 2.318 A 1.396 1.396 0 0 1 29.418 3.144 A 1.998 1.998 0 0 1 29.448 3.45 L 29.448 5.638 Q 29.448 6.073 29.521 6.39 A 1.707 1.707 0 0 0 29.615 6.68 L 29.615 6.75 Z M 117.255 6.75 L 116.402 6.75 A 0.632 0.632 0 0 1 116.367 6.66 Q 116.336 6.562 116.311 6.41 A 3.997 3.997 0 0 1 116.288 6.249 Q 115.721 6.838 114.935 6.838 A 2.033 2.033 0 0 1 114.405 6.772 A 1.529 1.529 0 0 1 113.781 6.44 Q 113.331 6.042 113.331 5.432 Q 113.331 4.689 113.895 4.278 Q 114.46 3.867 115.484 3.867 L 116.275 3.867 L 116.275 3.494 A 1.152 1.152 0 0 0 116.239 3.199 A 0.828 0.828 0 0 0 116.02 2.815 Q 115.804 2.6 115.413 2.568 A 1.748 1.748 0 0 0 115.269 2.562 Q 114.833 2.562 114.539 2.782 Q 114.245 3.001 114.245 3.313 L 113.427 3.313 A 1.041 1.041 0 0 1 113.552 2.825 A 1.409 1.409 0 0 1 113.68 2.626 Q 113.933 2.294 114.365 2.101 A 2.249 2.249 0 0 1 115.141 1.913 A 2.669 2.669 0 0 1 115.317 1.907 A 2.65 2.65 0 0 1 115.834 1.955 Q 116.142 2.016 116.38 2.156 A 1.439 1.439 0 0 1 116.604 2.318 A 1.396 1.396 0 0 1 117.058 3.144 A 1.998 1.998 0 0 1 117.088 3.45 L 117.088 5.638 Q 117.088 6.073 117.162 6.39 A 1.707 1.707 0 0 0 117.255 6.68 L 117.255 6.75 Z M 77.15 4.355 L 77.15 4.425 Q 77.15 5.308 76.822 5.909 A 2.141 2.141 0 0 1 76.649 6.177 A 1.647 1.647 0 0 1 76.063 6.673 Q 75.748 6.828 75.357 6.837 A 2.112 2.112 0 0 1 75.305 6.838 A 2.039 2.039 0 0 1 74.71 6.756 A 1.561 1.561 0 0 1 73.912 6.201 L 73.872 6.75 L 73.125 6.75 L 73.125 0 L 73.938 0 L 73.938 2.518 A 1.605 1.605 0 0 1 75.105 1.915 A 2.285 2.285 0 0 1 75.296 1.907 A 1.835 1.835 0 0 1 75.927 2.011 A 1.579 1.579 0 0 1 76.656 2.562 Q 77.07 3.11 77.137 3.998 A 4.727 4.727 0 0 1 77.15 4.355 Z M 68.15 4.504 L 68.15 4.355 A 3.17 3.17 0 0 1 68.227 3.646 A 2.581 2.581 0 0 1 68.421 3.092 A 2.191 2.191 0 0 1 68.868 2.466 A 2.033 2.033 0 0 1 69.177 2.221 Q 69.662 1.907 70.229 1.907 A 2.254 2.254 0 0 1 70.842 1.986 A 1.639 1.639 0 0 1 71.67 2.518 Q 72.185 3.129 72.185 4.267 L 72.185 4.605 L 68.963 4.605 A 2.111 2.111 0 0 0 69.034 5.114 A 1.516 1.516 0 0 0 69.374 5.741 A 1.282 1.282 0 0 0 70.308 6.173 A 1.652 1.652 0 0 0 70.374 6.174 A 1.763 1.763 0 0 0 70.702 6.145 Q 70.926 6.103 71.104 5.999 A 1.827 1.827 0 0 0 71.612 5.551 A 2.068 2.068 0 0 0 71.626 5.533 L 72.123 5.919 A 1.926 1.926 0 0 1 70.723 6.811 A 2.749 2.749 0 0 1 70.33 6.838 A 2.394 2.394 0 0 1 69.579 6.725 A 1.974 1.974 0 0 1 68.757 6.203 Q 68.15 5.568 68.15 4.504 Z M 98.578 0.352 L 98.578 4.601 L 99.466 4.601 L 99.466 5.265 L 98.578 5.265 L 98.578 6.75 L 97.761 6.75 L 97.761 5.265 L 94.847 5.265 L 94.847 4.786 L 97.712 0.352 L 98.578 0.352 Z M 109.463 6.75 L 107.692 6.75 L 107.692 0.352 L 109.499 0.352 Q 110.333 0.352 110.975 0.721 Q 111.617 1.09 111.966 1.771 A 3.19 3.19 0 0 1 112.283 2.8 A 4.073 4.073 0 0 1 112.32 3.335 L 112.32 3.744 Q 112.32 4.649 111.97 5.331 A 2.457 2.457 0 0 1 110.973 6.376 Q 110.325 6.741 109.463 6.75 Z M 103.976 2.592 A 1.544 1.544 0 0 0 104.08 2.021 A 2.226 2.226 0 0 0 104.059 1.707 A 1.566 1.566 0 0 0 103.559 0.738 A 1.754 1.754 0 0 0 102.793 0.333 A 2.443 2.443 0 0 0 102.195 0.264 A 2.539 2.539 0 0 0 101.685 0.312 A 1.767 1.767 0 0 0 100.828 0.738 Q 100.31 1.213 100.31 2.021 A 1.808 1.808 0 0 0 100.31 2.058 A 1.499 1.499 0 0 0 100.556 2.87 A 1.626 1.626 0 0 0 100.718 3.077 A 1.726 1.726 0 0 0 101.228 3.454 A 2.119 2.119 0 0 0 101.129 3.5 A 1.738 1.738 0 0 0 100.444 4.087 A 1.629 1.629 0 0 0 100.16 5.023 A 2.272 2.272 0 0 0 100.17 5.237 A 1.63 1.63 0 0 0 100.716 6.344 A 1.895 1.895 0 0 0 101.567 6.771 A 2.797 2.797 0 0 0 102.195 6.838 A 2.796 2.796 0 0 0 102.794 6.777 A 1.925 1.925 0 0 0 103.669 6.346 A 1.578 1.578 0 0 0 104.144 5.62 A 1.989 1.989 0 0 0 104.229 5.023 A 1.581 1.581 0 0 0 103.937 4.087 Q 103.645 3.674 103.144 3.458 Q 103.575 3.248 103.827 2.874 A 1.449 1.449 0 0 0 103.976 2.592 Z M 37.455 0.844 L 38.268 0.844 L 38.268 1.995 L 39.155 1.995 L 39.155 2.624 L 38.268 2.624 L 38.268 5.572 Q 38.268 5.858 38.386 6.001 Q 38.505 6.144 38.791 6.144 A 1.046 1.046 0 0 0 38.888 6.138 Q 38.991 6.129 39.131 6.101 A 4.024 4.024 0 0 0 39.177 6.091 L 39.177 6.75 A 2.463 2.463 0 0 1 38.744 6.829 A 2.157 2.157 0 0 1 38.553 6.838 Q 38.106 6.838 37.839 6.616 A 0.856 0.856 0 0 1 37.731 6.508 Q 37.504 6.238 37.463 5.78 A 2.351 2.351 0 0 1 37.455 5.572 L 37.455 2.624 L 36.589 2.624 L 36.589 1.995 L 37.455 1.995 L 37.455 0.844 Z M 65.707 0.844 L 66.52 0.844 L 66.52 1.995 L 67.408 1.995 L 67.408 2.624 L 66.52 2.624 L 66.52 5.572 Q 66.52 5.858 66.639 6.001 Q 66.757 6.144 67.043 6.144 A 1.046 1.046 0 0 0 67.14 6.138 Q 67.243 6.129 67.383 6.101 A 4.024 4.024 0 0 0 67.43 6.091 L 67.43 6.75 A 2.463 2.463 0 0 1 66.997 6.829 A 2.157 2.157 0 0 1 66.806 6.838 Q 66.359 6.838 66.092 6.616 A 0.856 0.856 0 0 1 65.984 6.508 Q 65.756 6.238 65.716 5.78 A 2.351 2.351 0 0 1 65.707 5.572 L 65.707 2.624 L 64.841 2.624 L 64.841 1.995 L 65.707 1.995 L 65.707 0.844 Z M 31.605 0 L 31.605 6.75 L 30.792 6.75 L 30.792 0 L 31.605 0 Z M 2.043 4.386 L 2.043 4.329 A 3.057 3.057 0 0 1 2.13 3.587 A 2.573 2.573 0 0 1 2.318 3.072 A 2.16 2.16 0 0 1 2.733 2.486 A 1.957 1.957 0 0 1 3.083 2.21 A 2.036 2.036 0 0 1 4.027 1.913 A 2.491 2.491 0 0 1 4.201 1.907 A 2.277 2.277 0 0 1 4.955 2.027 A 1.937 1.937 0 0 1 5.772 2.58 A 2.29 2.29 0 0 1 6.291 3.608 A 3.373 3.373 0 0 1 6.372 4.368 L 6.372 4.425 A 3.114 3.114 0 0 1 6.293 5.142 A 2.577 2.577 0 0 1 6.106 5.671 A 2.056 2.056 0 0 1 5.579 6.361 A 2.001 2.001 0 0 1 5.346 6.53 A 2.045 2.045 0 0 1 4.426 6.829 A 2.529 2.529 0 0 1 4.21 6.838 A 2.262 2.262 0 0 1 3.46 6.718 A 1.938 1.938 0 0 1 2.643 6.166 A 2.297 2.297 0 0 1 2.118 5.111 A 3.357 3.357 0 0 1 2.043 4.386 Z M 60.069 4.386 L 60.069 4.329 A 3.057 3.057 0 0 1 60.156 3.587 A 2.573 2.573 0 0 1 60.344 3.072 A 2.16 2.16 0 0 1 60.758 2.486 A 1.957 1.957 0 0 1 61.108 2.21 A 2.036 2.036 0 0 1 62.053 1.913 A 2.491 2.491 0 0 1 62.227 1.907 A 2.277 2.277 0 0 1 62.98 2.027 A 1.937 1.937 0 0 1 63.798 2.58 A 2.29 2.29 0 0 1 64.317 3.608 A 3.373 3.373 0 0 1 64.397 4.368 L 64.397 4.425 A 3.114 3.114 0 0 1 64.318 5.142 A 2.577 2.577 0 0 1 64.132 5.671 A 2.056 2.056 0 0 1 63.604 6.361 A 2.001 2.001 0 0 1 63.371 6.53 A 2.045 2.045 0 0 1 62.452 6.829 A 2.529 2.529 0 0 1 62.235 6.838 A 2.262 2.262 0 0 1 61.485 6.718 A 1.938 1.938 0 0 1 60.669 6.166 A 2.297 2.297 0 0 1 60.143 5.111 A 3.357 3.357 0 0 1 60.069 4.386 Z M 77.959 4.386 L 77.959 4.329 A 3.057 3.057 0 0 1 78.046 3.587 A 2.573 2.573 0 0 1 78.234 3.072 A 2.16 2.16 0 0 1 78.648 2.486 A 1.957 1.957 0 0 1 78.998 2.21 A 2.036 2.036 0 0 1 79.943 1.913 A 2.491 2.491 0 0 1 80.117 1.907 A 2.277 2.277 0 0 1 80.87 2.027 A 1.937 1.937 0 0 1 81.688 2.58 A 2.29 2.29 0 0 1 82.207 3.608 A 3.373 3.373 0 0 1 82.288 4.368 L 82.288 4.425 A 3.114 3.114 0 0 1 82.208 5.142 A 2.577 2.577 0 0 1 82.022 5.671 A 2.056 2.056 0 0 1 81.494 6.361 A 2.001 2.001 0 0 1 81.261 6.53 A 2.045 2.045 0 0 1 80.342 6.829 A 2.529 2.529 0 0 1 80.125 6.838 A 2.262 2.262 0 0 1 79.375 6.718 A 1.938 1.938 0 0 1 78.559 6.166 A 2.297 2.297 0 0 1 78.033 5.111 A 3.357 3.357 0 0 1 77.959 4.386 Z M 83.092 4.386 L 83.092 4.329 A 3.057 3.057 0 0 1 83.179 3.587 A 2.573 2.573 0 0 1 83.366 3.072 A 2.16 2.16 0 0 1 83.781 2.486 A 1.957 1.957 0 0 1 84.131 2.21 A 2.036 2.036 0 0 1 85.076 1.913 A 2.491 2.491 0 0 1 85.25 1.907 A 2.277 2.277 0 0 1 86.003 2.027 A 1.937 1.937 0 0 1 86.821 2.58 A 2.29 2.29 0 0 1 87.34 3.608 A 3.373 3.373 0 0 1 87.42 4.368 L 87.42 4.425 A 3.114 3.114 0 0 1 87.341 5.142 A 2.577 2.577 0 0 1 87.155 5.671 A 2.056 2.056 0 0 1 86.627 6.361 A 2.001 2.001 0 0 1 86.394 6.53 A 2.045 2.045 0 0 1 85.475 6.829 A 2.529 2.529 0 0 1 85.258 6.838 A 2.262 2.262 0 0 1 84.508 6.718 A 1.938 1.938 0 0 1 83.692 6.166 A 2.297 2.297 0 0 1 83.166 5.111 A 3.357 3.357 0 0 1 83.092 4.386 Z M 120.661 1.969 L 120.661 2.725 A 2.251 2.251 0 0 0 120.418 2.698 A 2.782 2.782 0 0 0 120.261 2.694 Q 119.483 2.694 119.191 3.338 A 1.445 1.445 0 0 0 119.175 3.375 L 119.175 6.75 L 118.362 6.75 L 118.362 1.995 L 119.153 1.995 L 119.167 2.544 Q 119.547 1.938 120.229 1.909 A 1.636 1.636 0 0 1 120.3 1.907 Q 120.538 1.907 120.661 1.969 Z M 0.844 0.352 L 0.844 6.75 L 0 6.75 L 0 0.352 L 0.844 0.352 Z M 109.521 1.046 L 108.536 1.046 L 108.536 6.06 L 109.424 6.06 A 2.519 2.519 0 0 0 110.056 5.985 A 1.747 1.747 0 0 0 110.942 5.454 Q 111.401 4.94 111.472 4.059 A 4.165 4.165 0 0 0 111.485 3.727 L 111.485 3.353 Q 111.485 2.562 111.215 2.027 A 1.864 1.864 0 0 0 110.973 1.659 A 1.687 1.687 0 0 0 109.977 1.09 A 2.499 2.499 0 0 0 109.521 1.046 Z M 40.988 1.995 L 40.988 6.75 L 40.175 6.75 L 40.175 1.995 L 40.988 1.995 Z M 2.861 4.425 A 2.772 2.772 0 0 0 2.908 4.954 Q 2.969 5.264 3.106 5.51 A 1.545 1.545 0 0 0 3.228 5.695 Q 3.595 6.174 4.21 6.174 A 1.269 1.269 0 0 0 4.699 6.083 Q 4.979 5.967 5.181 5.706 A 1.471 1.471 0 0 0 5.194 5.689 A 1.648 1.648 0 0 0 5.449 5.171 Q 5.518 4.945 5.544 4.672 A 3.655 3.655 0 0 0 5.559 4.329 A 2.687 2.687 0 0 0 5.508 3.789 Q 5.44 3.459 5.283 3.2 A 1.586 1.586 0 0 0 5.188 3.061 A 1.231 1.231 0 0 0 4.773 2.705 Q 4.52 2.575 4.201 2.575 Q 3.611 2.575 3.245 3.035 A 1.515 1.515 0 0 0 3.23 3.054 A 1.589 1.589 0 0 0 2.978 3.552 Q 2.908 3.772 2.88 4.039 A 3.676 3.676 0 0 0 2.861 4.425 Z M 60.886 4.425 A 2.772 2.772 0 0 0 60.934 4.954 Q 60.994 5.264 61.131 5.51 A 1.545 1.545 0 0 0 61.253 5.695 Q 61.62 6.174 62.235 6.174 A 1.269 1.269 0 0 0 62.725 6.083 Q 63.004 5.967 63.207 5.706 A 1.471 1.471 0 0 0 63.22 5.689 A 1.648 1.648 0 0 0 63.475 5.171 Q 63.543 4.945 63.569 4.672 A 3.655 3.655 0 0 0 63.584 4.329 A 2.687 2.687 0 0 0 63.533 3.789 Q 63.466 3.459 63.308 3.2 A 1.586 1.586 0 0 0 63.213 3.061 A 1.231 1.231 0 0 0 62.798 2.705 Q 62.545 2.575 62.227 2.575 Q 61.637 2.575 61.27 3.035 A 1.515 1.515 0 0 0 61.255 3.054 A 1.589 1.589 0 0 0 61.003 3.552 Q 60.934 3.772 60.906 4.039 A 3.676 3.676 0 0 0 60.886 4.425 Z M 78.776 4.425 A 2.772 2.772 0 0 0 78.824 4.954 Q 78.884 5.264 79.021 5.51 A 1.545 1.545 0 0 0 79.143 5.695 Q 79.51 6.174 80.125 6.174 A 1.269 1.269 0 0 0 80.615 6.083 Q 80.894 5.967 81.097 5.706 A 1.471 1.471 0 0 0 81.11 5.689 A 1.648 1.648 0 0 0 81.365 5.171 Q 81.433 4.945 81.459 4.672 A 3.655 3.655 0 0 0 81.475 4.329 A 2.687 2.687 0 0 0 81.423 3.789 Q 81.356 3.459 81.198 3.2 A 1.586 1.586 0 0 0 81.103 3.061 A 1.231 1.231 0 0 0 80.688 2.705 Q 80.435 2.575 80.117 2.575 Q 79.527 2.575 79.161 3.035 A 1.515 1.515 0 0 0 79.146 3.054 A 1.589 1.589 0 0 0 78.893 3.552 Q 78.824 3.772 78.796 4.039 A 3.676 3.676 0 0 0 78.776 4.425 Z M 83.909 4.425 A 2.772 2.772 0 0 0 83.957 4.954 Q 84.017 5.264 84.154 5.51 A 1.545 1.545 0 0 0 84.276 5.695 Q 84.643 6.174 85.258 6.174 A 1.269 1.269 0 0 0 85.748 6.083 Q 86.027 5.967 86.23 5.706 A 1.471 1.471 0 0 0 86.243 5.689 A 1.648 1.648 0 0 0 86.498 5.171 Q 86.566 4.945 86.592 4.672 A 3.655 3.655 0 0 0 86.607 4.329 A 2.687 2.687 0 0 0 86.556 3.789 Q 86.489 3.459 86.331 3.2 A 1.586 1.586 0 0 0 86.236 3.061 A 1.231 1.231 0 0 0 85.821 2.705 Q 85.568 2.575 85.25 2.575 Q 84.66 2.575 84.293 3.035 A 1.515 1.515 0 0 0 84.278 3.054 A 1.589 1.589 0 0 0 84.026 3.552 Q 83.957 3.772 83.928 4.039 A 3.676 3.676 0 0 0 83.909 4.425 Z M 73.938 3.344 L 73.938 5.401 A 1.528 1.528 0 0 0 74.224 5.807 Q 74.546 6.127 75.036 6.147 A 1.621 1.621 0 0 0 75.103 6.148 A 1.206 1.206 0 0 0 75.52 6.079 A 1.04 1.04 0 0 0 76.012 5.695 Q 76.337 5.243 76.337 4.333 Q 76.337 3.502 76.017 3.05 A 1.03 1.03 0 0 0 75.266 2.607 A 1.449 1.449 0 0 0 75.094 2.597 A 1.34 1.34 0 0 0 74.584 2.69 Q 74.166 2.86 73.938 3.344 Z M 97.664 1.639 L 95.77 4.601 L 97.761 4.601 L 97.761 1.463 L 97.664 1.639 Z M 17.31 1.393 L 16.225 4.386 L 18.4 4.386 L 17.31 1.393 Z M 103.417 5.005 A 1.375 1.375 0 0 0 103.357 4.592 A 1.109 1.109 0 0 0 103.076 4.131 A 1.148 1.148 0 0 0 102.405 3.807 A 1.593 1.593 0 0 0 102.186 3.792 A 1.466 1.466 0 0 0 101.797 3.841 A 1.086 1.086 0 0 0 101.305 4.126 A 1.123 1.123 0 0 0 100.991 4.762 A 1.572 1.572 0 0 0 100.973 5.005 A 1.48 1.48 0 0 0 101.015 5.367 A 1.019 1.019 0 0 0 101.296 5.862 Q 101.602 6.158 102.135 6.173 A 2.053 2.053 0 0 0 102.195 6.174 Q 102.688 6.174 102.998 5.94 A 1.018 1.018 0 0 0 103.091 5.86 A 1.041 1.041 0 0 0 103.391 5.292 A 1.518 1.518 0 0 0 103.417 5.005 Z M 102.195 0.932 A 1.259 1.259 0 0 0 101.842 0.979 A 0.973 0.973 0 0 0 101.419 1.228 Q 101.123 1.525 101.123 2.035 A 1.325 1.325 0 0 0 101.167 2.387 A 0.994 0.994 0 0 0 101.415 2.823 A 0.974 0.974 0 0 0 101.977 3.108 A 1.382 1.382 0 0 0 102.195 3.125 A 1.279 1.279 0 0 0 102.54 3.08 A 0.952 0.952 0 0 0 102.975 2.823 A 1.018 1.018 0 0 0 103.25 2.26 A 1.426 1.426 0 0 0 103.267 2.035 A 1.282 1.282 0 0 0 103.217 1.668 A 1.013 1.013 0 0 0 102.964 1.239 Q 102.661 0.932 102.195 0.932 Z M 28.635 5.418 L 28.635 4.443 L 27.998 4.443 Q 26.503 4.443 26.503 5.317 Q 26.503 5.7 26.758 5.915 A 0.893 0.893 0 0 0 27.172 6.108 A 1.259 1.259 0 0 0 27.413 6.13 A 1.429 1.429 0 0 0 28.138 5.933 A 1.335 1.335 0 0 0 28.434 5.705 A 1.108 1.108 0 0 0 28.635 5.418 Z M 116.275 5.418 L 116.275 4.443 L 115.638 4.443 Q 114.144 4.443 114.144 5.317 Q 114.144 5.7 114.398 5.915 A 0.893 0.893 0 0 0 114.812 6.108 A 1.259 1.259 0 0 0 115.053 6.13 A 1.429 1.429 0 0 0 115.778 5.933 A 1.335 1.335 0 0 0 116.074 5.705 A 1.108 1.108 0 0 0 116.275 5.418 Z M 68.99 3.938 L 71.372 3.938 L 71.372 3.876 Q 71.346 3.417 71.175 3.111 A 1.13 1.13 0 0 0 71.038 2.916 A 0.983 0.983 0 0 0 70.383 2.584 A 1.39 1.39 0 0 0 70.229 2.575 A 1.106 1.106 0 0 0 69.707 2.698 A 1.14 1.14 0 0 0 69.403 2.933 A 1.417 1.417 0 0 0 69.126 3.379 Q 69.053 3.563 69.013 3.785 A 2.741 2.741 0 0 0 68.99 3.938 Z M 40.109 0.734 Q 40.109 0.536 40.23 0.4 Q 40.342 0.274 40.553 0.264 A 0.783 0.783 0 0 1 40.588 0.264 Q 40.825 0.264 40.948 0.4 A 0.474 0.474 0 0 1 41.071 0.703 A 0.614 0.614 0 0 1 41.071 0.734 A 0.523 0.523 0 0 1 41.046 0.9 A 0.442 0.442 0 0 1 40.948 1.063 Q 40.836 1.184 40.628 1.194 A 0.803 0.803 0 0 1 40.588 1.195 Q 40.416 1.195 40.305 1.126 A 0.362 0.362 0 0 1 40.23 1.063 A 0.456 0.456 0 0 1 40.111 0.788 A 0.605 0.605 0 0 1 40.109 0.734 Z" vector-effect="non-scaling-stroke"/></g>
</svgversion="1.0" encoding="UTF-8"?>
<svg width="48px" height="48px" viewBox="0 0 48 48" version="1.1" xmlns="http://www.w3.org/2000/svg" xmlns:xlink="http://www.w3.org/1999/xlink">
    <title>Icon-Resource/IoT/Res_AWS-IoT-Analytics_Notebook_48_Dark</title>
    <g id="Icon-Resource/IoT/Res_AWS-IoT-Analytics_Notebook_48" stroke="none" stroke-width="1" fill="none" fill-rule="evenodd">
        <path transform="translate(12.000000, 8.000000), scale(.65)" d="M7.972,2 L7.972,7.206 L5,7.206 L5,9.206 L7.972,9.206 L7.972,12.467 L5,12.467 L5,14.467 L7.972,14.467 L7.972,17.781 L5,17.781 L5,19.78 L7.972,19.78 L7.972,23.055 L5,23.055 L5,25.054 L7.972,25.054 L7.972,28.247 L5,28.247 L5,30.247 L7.972,30.247 L7.972,33.48 L5,33.48 L5,35.48 L7.972,35.48 L7.972,38.794 L5,38.794 L5,40.794 L7.972,40.794 L7.972,45.973 L43.586,45.973 L43.586,2 L7.972,2 Z M9.972,4.001 L41.586,4.001 L41.586,43.973 L9.972,43.973 L9.972,40.794 L13.051,40.794 L13.051,38.794 L9.972,38.794 L9.972,35.48 L13.051,35.48 L13.051,33.48 L9.972,33.48 L9.972,30.247 L13.051,30.247 L13.051,28.247 L9.972,28.247 L9.972,25.054 L13.051,25.054 L13.051,23.055 L9.972,23.055 L9.972,19.78 L13.051,19.78 L13.051,17.781 L9.972,17.781 L9.972,14.467 L13.051,14.467 L13.051,12.467 L9.972,12.467 L9.972,9.206 L13.051,9.206 L13.051,7.206 L9.972,7.206 L9.972,4.001 Z M16.861,9.206 L36.559,9.206 L36.559,7.206 L16.861,7.206 L16.861,9.206 Z M16.861,15.594 L36.559,15.594 L36.559,13.593 L16.861,13.593 L16.861,15.594 Z M16.861,21.927 L36.559,21.927 L36.559,19.927 L16.861,19.927 L16.861,21.927 Z M16.861,28.314 L26.764,28.314 L26.764,26.313 L16.861,26.313 L16.861,28.314 Z" id="AWS-IoT-Analytics-Notebook_Resource-Icon_light-bg" fill="#000000"></path>
    </g><g transform="translate(25, 83)" id="svgGroup" stroke-linecap="round" fill-rule="evenodd" font-size="9pt" stroke="#000" stroke-width="0.25mm" fill="#000" style="stroke:#000;stroke-width:0.25mm;fill:#000"><path d="M 23.12 0.088 L 24.13 4.469 L 24.253 5.313 L 24.434 4.553 L 25.699 0.088 L 26.411 0.088 L 27.646 4.553 L 27.822 5.326 L 27.958 4.465 L 28.951 0.088 L 29.799 0.088 L 28.248 6.486 L 27.479 6.486 L 26.161 1.824 L 26.06 1.336 L 25.958 1.824 L 24.592 6.486 L 23.823 6.486 L 22.276 0.088 L 23.12 0.088 Z M 34.98 1.938 L 34.132 1.938 A 1.466 1.466 0 0 0 34.083 1.546 A 1.066 1.066 0 0 0 33.763 1.026 A 1.211 1.211 0 0 0 33.294 0.77 Q 33.042 0.694 32.722 0.694 A 2.286 2.286 0 0 0 32.342 0.724 Q 32.14 0.758 31.977 0.831 A 1.101 1.101 0 0 0 31.748 0.969 A 0.892 0.892 0 0 0 31.403 1.624 A 1.267 1.267 0 0 0 31.399 1.732 A 0.806 0.806 0 0 0 31.667 2.337 A 1.134 1.134 0 0 0 31.731 2.393 A 1.562 1.562 0 0 0 31.969 2.549 Q 32.299 2.73 32.86 2.887 A 8.228 8.228 0 0 1 33.325 3.032 Q 33.56 3.113 33.754 3.2 A 3.297 3.297 0 0 1 34.108 3.382 A 2.342 2.342 0 0 1 34.447 3.626 Q 34.637 3.792 34.759 3.985 A 1.45 1.45 0 0 1 34.776 4.012 A 1.498 1.498 0 0 1 34.972 4.568 A 1.948 1.948 0 0 1 34.994 4.86 A 1.606 1.606 0 0 1 34.871 5.497 Q 34.726 5.838 34.408 6.09 A 1.886 1.886 0 0 1 34.387 6.106 Q 33.781 6.574 32.766 6.574 A 3.023 3.023 0 0 1 31.625 6.36 A 2.917 2.917 0 0 1 31.535 6.322 A 2.383 2.383 0 0 1 31.057 6.044 A 1.874 1.874 0 0 1 30.654 5.629 A 1.689 1.689 0 0 1 30.344 4.632 L 31.192 4.632 A 1.261 1.261 0 0 0 31.262 5.059 A 1.074 1.074 0 0 0 31.621 5.548 Q 32.005 5.85 32.622 5.881 A 2.87 2.87 0 0 0 32.766 5.884 A 2.628 2.628 0 0 0 33.153 5.858 Q 33.349 5.828 33.508 5.767 A 1.129 1.129 0 0 0 33.79 5.612 Q 34.146 5.339 34.146 4.869 A 1.074 1.074 0 0 0 34.103 4.559 A 0.816 0.816 0 0 0 33.816 4.142 Q 33.486 3.885 32.621 3.634 Q 31.535 3.322 31.041 2.868 Q 30.546 2.413 30.546 1.745 Q 30.546 0.989 31.151 0.494 A 2.121 2.121 0 0 1 32.041 0.071 A 3.087 3.087 0 0 1 32.722 0 A 2.913 2.913 0 0 1 33.382 0.072 A 2.372 2.372 0 0 1 33.897 0.255 A 2.051 2.051 0 0 1 34.428 0.626 A 1.834 1.834 0 0 1 34.697 0.958 A 1.798 1.798 0 0 1 34.98 1.938 Z M 3.74 6.486 L 2.351 3.898 L 0.848 3.898 L 0.848 6.486 L 0 6.486 L 0 0.088 L 2.118 0.088 A 3.809 3.809 0 0 1 2.76 0.138 Q 3.102 0.197 3.376 0.324 A 1.789 1.789 0 0 1 3.781 0.58 A 1.588 1.588 0 0 1 4.307 1.469 A 2.453 2.453 0 0 1 4.364 2.013 A 1.864 1.864 0 0 1 4.273 2.604 A 1.64 1.64 0 0 1 4.041 3.054 A 1.849 1.849 0 0 1 3.382 3.611 A 2.342 2.342 0 0 1 3.142 3.718 L 4.645 6.434 L 4.645 6.486 L 3.74 6.486 Z M 13.724 3.129 L 12.907 3.129 Q 12.907 2.795 12.623 2.553 Q 12.34 2.312 11.909 2.312 Q 11.465 2.312 11.215 2.505 A 0.653 0.653 0 0 0 11.04 2.704 Q 10.967 2.835 10.964 3 A 0.771 0.771 0 0 0 10.964 3.01 A 0.588 0.588 0 0 0 10.994 3.203 A 0.48 0.48 0 0 0 11.197 3.454 A 1.093 1.093 0 0 0 11.348 3.533 Q 11.512 3.605 11.767 3.673 A 6.581 6.581 0 0 0 12.039 3.74 A 6.318 6.318 0 0 1 12.446 3.845 Q 12.783 3.944 13.025 4.065 A 1.901 1.901 0 0 1 13.281 4.218 Q 13.418 4.315 13.516 4.429 A 1.06 1.06 0 0 1 13.586 4.52 A 1.024 1.024 0 0 1 13.748 4.927 A 1.388 1.388 0 0 1 13.768 5.168 Q 13.768 5.805 13.258 6.19 Q 12.776 6.554 12.022 6.573 A 3.337 3.337 0 0 1 11.936 6.574 A 2.746 2.746 0 0 1 11.401 6.525 A 2.124 2.124 0 0 1 10.925 6.372 A 1.771 1.771 0 0 1 10.491 6.094 A 1.54 1.54 0 0 1 10.237 5.807 Q 9.989 5.445 9.989 5.023 L 10.802 5.023 A 0.932 0.932 0 0 0 10.875 5.348 A 0.827 0.827 0 0 0 11.129 5.671 A 1.072 1.072 0 0 0 11.531 5.864 Q 11.686 5.903 11.867 5.91 A 2.013 2.013 0 0 0 11.936 5.911 A 1.863 1.863 0 0 0 12.231 5.889 Q 12.393 5.863 12.524 5.806 A 0.941 0.941 0 0 0 12.676 5.724 A 0.689 0.689 0 0 0 12.841 5.574 A 0.554 0.554 0 0 0 12.955 5.225 A 0.698 0.698 0 0 0 12.919 4.994 A 0.581 0.581 0 0 0 12.707 4.713 A 1.05 1.05 0 0 0 12.538 4.615 Q 12.349 4.524 12.054 4.449 A 5.392 5.392 0 0 0 11.841 4.399 A 6.342 6.342 0 0 1 11.48 4.311 Q 11.11 4.209 10.861 4.083 Q 10.562 3.93 10.392 3.731 A 1.017 1.017 0 0 1 10.325 3.643 Q 10.151 3.388 10.151 3.037 A 1.206 1.206 0 0 1 10.55 2.132 A 1.694 1.694 0 0 1 10.646 2.048 A 1.752 1.752 0 0 1 11.429 1.688 A 2.471 2.471 0 0 1 11.909 1.644 A 2.559 2.559 0 0 1 12.473 1.702 A 1.757 1.757 0 0 1 13.221 2.061 Q 13.724 2.479 13.724 3.129 Z M 21.327 6.486 L 20.716 4.816 L 18.035 4.816 L 17.433 6.486 L 16.563 6.486 L 19.006 0.088 L 19.745 0.088 L 22.192 6.486 L 21.327 6.486 Z M 5.212 4.241 L 5.212 4.091 A 3.17 3.17 0 0 1 5.288 3.382 A 2.581 2.581 0 0 1 5.482 2.828 A 2.191 2.191 0 0 1 5.93 2.202 A 2.033 2.033 0 0 1 6.238 1.958 Q 6.724 1.644 7.291 1.644 A 2.254 2.254 0 0 1 7.904 1.723 A 1.639 1.639 0 0 1 8.732 2.254 Q 9.246 2.865 9.246 4.003 L 9.246 4.342 L 6.025 4.342 A 2.111 2.111 0 0 0 6.096 4.85 A 1.516 1.516 0 0 0 6.436 5.478 A 1.282 1.282 0 0 0 7.37 5.909 A 1.652 1.652 0 0 0 7.436 5.911 A 1.763 1.763 0 0 0 7.764 5.882 Q 7.988 5.839 8.165 5.735 A 1.827 1.827 0 0 0 8.674 5.287 A 2.068 2.068 0 0 0 8.688 5.269 L 9.185 5.656 A 1.926 1.926 0 0 1 7.785 6.547 A 2.749 2.749 0 0 1 7.392 6.574 A 2.394 2.394 0 0 1 6.64 6.461 A 1.974 1.974 0 0 1 5.818 5.939 Q 5.212 5.304 5.212 4.241 Z M 0.848 0.782 L 0.848 3.208 L 2.145 3.208 Q 2.685 3.208 3.035 2.968 A 1.174 1.174 0 0 0 3.144 2.883 A 1.069 1.069 0 0 0 3.51 2.146 A 1.486 1.486 0 0 0 3.516 2.013 Q 3.516 1.47 3.22 1.159 A 1 1 0 0 0 3.162 1.103 Q 2.808 0.787 2.14 0.782 L 0.848 0.782 Z M 19.375 1.129 L 18.29 4.122 L 20.465 4.122 L 19.375 1.129 Z M 6.051 3.674 L 8.433 3.674 L 8.433 3.612 Q 8.407 3.153 8.236 2.848 A 1.13 1.13 0 0 0 8.099 2.652 A 0.983 0.983 0 0 0 7.445 2.32 A 1.39 1.39 0 0 0 7.291 2.312 A 1.106 1.106 0 0 0 6.768 2.435 A 1.14 1.14 0 0 0 6.464 2.67 A 1.417 1.417 0 0 0 6.188 3.116 Q 6.114 3.3 6.074 3.522 A 2.741 2.741 0 0 0 6.051 3.674 Z" vector-effect="non-scaling-stroke"/></g><g transform="translate(25, 93)" id="svgGroup" stroke-linecap="round" fill-rule="evenodd" font-size="9pt" stroke="#000" stroke-width="0.25mm" fill="#000" style="stroke:#000;stroke-width:0.25mm;fill:#000"><path d="M 58.913 0.352 L 58.913 6.75 L 58.065 6.75 L 54.844 1.819 L 54.844 6.75 L 53.996 6.75 L 53.996 0.352 L 54.844 0.352 L 58.074 5.304 L 58.074 0.352 L 58.913 0.352 Z M 91.424 6.75 L 89.767 4.548 L 89.257 5.08 L 89.257 6.75 L 88.444 6.75 L 88.444 0 L 89.257 0 L 89.257 4.083 L 89.692 3.56 L 91.173 1.995 L 92.162 1.995 L 90.312 3.981 L 92.377 6.75 L 91.424 6.75 Z M 124.392 6.75 L 122.735 4.548 L 122.225 5.08 L 122.225 6.75 L 121.412 6.75 L 121.412 0 L 122.225 0 L 122.225 4.083 L 122.66 3.56 L 124.141 1.995 L 125.13 1.995 L 123.28 3.981 L 125.345 6.75 L 124.392 6.75 Z M 50.537 3.393 L 49.72 3.393 Q 49.72 3.059 49.436 2.817 Q 49.153 2.575 48.722 2.575 Q 48.278 2.575 48.028 2.769 A 0.653 0.653 0 0 0 47.853 2.967 Q 47.78 3.098 47.777 3.263 A 0.771 0.771 0 0 0 47.777 3.274 A 0.588 0.588 0 0 0 47.807 3.467 A 0.48 0.48 0 0 0 48.01 3.718 A 1.093 1.093 0 0 0 48.16 3.796 Q 48.325 3.868 48.58 3.937 A 6.581 6.581 0 0 0 48.852 4.003 A 6.318 6.318 0 0 1 49.259 4.108 Q 49.596 4.208 49.838 4.329 A 1.901 1.901 0 0 1 50.094 4.481 Q 50.231 4.579 50.329 4.692 A 1.06 1.06 0 0 1 50.399 4.783 A 1.024 1.024 0 0 1 50.561 5.191 A 1.388 1.388 0 0 1 50.581 5.432 Q 50.581 6.069 50.071 6.453 Q 49.589 6.817 48.835 6.837 A 3.337 3.337 0 0 1 48.749 6.838 A 2.746 2.746 0 0 1 48.214 6.788 A 2.124 2.124 0 0 1 47.738 6.636 A 1.771 1.771 0 0 1 47.304 6.358 A 1.54 1.54 0 0 1 47.05 6.071 Q 46.802 5.708 46.802 5.287 L 47.615 5.287 A 0.932 0.932 0 0 0 47.688 5.612 A 0.827 0.827 0 0 0 47.942 5.935 A 1.072 1.072 0 0 0 48.344 6.128 Q 48.499 6.167 48.68 6.173 A 2.013 2.013 0 0 0 48.749 6.174 A 1.863 1.863 0 0 0 49.044 6.152 Q 49.206 6.126 49.337 6.07 A 0.941 0.941 0 0 0 49.489 5.988 A 0.689 0.689 0 0 0 49.654 5.837 A 0.554 0.554 0 0 0 49.768 5.489 A 0.698 0.698 0 0 0 49.732 5.258 A 0.581 0.581 0 0 0 49.52 4.977 A 1.05 1.05 0 0 0 49.351 4.878 Q 49.162 4.788 48.867 4.712 A 5.392 5.392 0 0 0 48.654 4.663 A 6.342 6.342 0 0 1 48.293 4.575 Q 47.923 4.473 47.674 4.346 Q 47.375 4.194 47.205 3.994 A 1.017 1.017 0 0 1 47.138 3.907 Q 46.964 3.652 46.964 3.3 A 1.206 1.206 0 0 1 47.363 2.396 A 1.694 1.694 0 0 1 47.459 2.312 A 1.752 1.752 0 0 1 48.242 1.952 A 2.471 2.471 0 0 1 48.722 1.907 A 2.559 2.559 0 0 1 49.286 1.966 A 1.757 1.757 0 0 1 50.034 2.325 Q 50.537 2.742 50.537 3.393 Z M 33.275 1.995 L 34.462 5.559 L 35.569 1.995 L 36.439 1.995 L 34.528 7.484 Q 34.084 8.67 33.117 8.67 L 32.963 8.657 L 32.66 8.6 L 32.66 7.941 L 32.88 7.958 Q 33.16 7.958 33.356 7.882 A 0.75 0.75 0 0 0 33.524 7.792 A 0.749 0.749 0 0 0 33.684 7.629 Q 33.802 7.47 33.892 7.215 A 2.575 2.575 0 0 0 33.904 7.181 L 34.084 6.697 L 32.388 1.995 L 33.275 1.995 Z M 20.861 1.995 L 21.63 1.995 L 21.656 2.593 Q 22.193 1.918 23.052 1.907 A 2.234 2.234 0 0 1 23.08 1.907 A 1.905 1.905 0 0 1 23.714 2.004 Q 24.555 2.3 24.598 3.506 A 3.668 3.668 0 0 1 24.601 3.608 L 24.601 6.75 L 23.788 6.75 L 23.788 3.604 A 1.837 1.837 0 0 0 23.765 3.324 Q 23.715 3.017 23.552 2.843 Q 23.366 2.645 23.013 2.606 A 1.66 1.66 0 0 0 22.834 2.597 A 1.253 1.253 0 0 0 22.42 2.664 A 1.123 1.123 0 0 0 22.14 2.808 A 1.432 1.432 0 0 0 21.674 3.362 L 21.674 6.75 L 20.861 6.75 L 20.861 1.995 Z M 45.316 5.251 L 46.085 5.251 A 1.432 1.432 0 0 1 45.886 5.901 A 1.772 1.772 0 0 1 45.804 6.029 A 1.828 1.828 0 0 1 45.195 6.574 A 2.169 2.169 0 0 1 45.112 6.618 A 1.997 1.997 0 0 1 44.196 6.838 A 2.346 2.346 0 0 1 43.499 6.739 A 1.839 1.839 0 0 1 42.651 6.19 A 2.171 2.171 0 0 1 42.187 5.31 Q 42.078 4.909 42.078 4.417 L 42.078 4.28 A 3.24 3.24 0 0 1 42.141 3.624 A 2.57 2.57 0 0 1 42.333 3.045 A 2.008 2.008 0 0 1 42.772 2.431 A 1.892 1.892 0 0 1 43.064 2.206 A 1.943 1.943 0 0 1 43.821 1.934 A 2.529 2.529 0 0 1 44.191 1.907 A 2.196 2.196 0 0 1 44.84 1.999 A 1.786 1.786 0 0 1 45.521 2.386 A 1.693 1.693 0 0 1 46.079 3.535 A 2.239 2.239 0 0 1 46.085 3.63 L 45.316 3.63 Q 45.281 3.168 44.967 2.872 A 1.078 1.078 0 0 0 44.238 2.576 A 1.402 1.402 0 0 0 44.191 2.575 A 1.374 1.374 0 0 0 43.77 2.637 A 1.081 1.081 0 0 0 43.231 3.021 A 1.469 1.469 0 0 0 43.004 3.468 Q 42.939 3.674 42.911 3.923 A 3.514 3.514 0 0 0 42.891 4.311 L 42.891 4.465 Q 42.891 5.287 43.229 5.73 A 1.1 1.1 0 0 0 44.016 6.165 A 1.611 1.611 0 0 0 44.196 6.174 A 1.171 1.171 0 0 0 44.956 5.911 A 1.007 1.007 0 0 0 45.2 5.629 A 0.914 0.914 0 0 0 45.316 5.251 Z M 11.94 0.352 L 11.94 1.046 L 9.883 1.046 L 9.883 6.75 L 9.044 6.75 L 9.044 1.046 L 6.992 1.046 L 6.992 0.352 L 11.94 0.352 Z M 19.261 6.75 L 18.65 5.08 L 15.97 5.08 L 15.368 6.75 L 14.498 6.75 L 16.941 0.352 L 17.679 0.352 L 20.127 6.75 L 19.261 6.75 Z M 29.615 6.75 L 28.762 6.75 A 0.632 0.632 0 0 1 28.727 6.66 Q 28.695 6.562 28.671 6.41 A 3.997 3.997 0 0 1 28.648 6.249 Q 28.081 6.838 27.294 6.838 A 2.033 2.033 0 0 1 26.765 6.772 A 1.529 1.529 0 0 1 26.141 6.44 Q 25.69 6.042 25.69 5.432 Q 25.69 4.689 26.255 4.278 Q 26.82 3.867 27.844 3.867 L 28.635 3.867 L 28.635 3.494 A 1.152 1.152 0 0 0 28.599 3.199 A 0.828 0.828 0 0 0 28.38 2.815 Q 28.164 2.6 27.773 2.568 A 1.748 1.748 0 0 0 27.628 2.562 Q 27.193 2.562 26.899 2.782 Q 26.604 3.001 26.604 3.313 L 25.787 3.313 A 1.041 1.041 0 0 1 25.912 2.825 A 1.409 1.409 0 0 1 26.04 2.626 Q 26.292 2.294 26.725 2.101 A 2.249 2.249 0 0 1 27.501 1.913 A 2.669 2.669 0 0 1 27.677 1.907 A 2.65 2.65 0 0 1 28.194 1.955 Q 28.501 2.016 28.74 2.156 A 1.439 1.439 0 0 1 28.964 2.318 A 1.396 1.396 0 0 1 29.418 3.144 A 1.998 1.998 0 0 1 29.448 3.45 L 29.448 5.638 Q 29.448 6.073 29.521 6.39 A 1.707 1.707 0 0 0 29.615 6.68 L 29.615 6.75 Z M 117.255 6.75 L 116.402 6.75 A 0.632 0.632 0 0 1 116.367 6.66 Q 116.336 6.562 116.311 6.41 A 3.997 3.997 0 0 1 116.288 6.249 Q 115.721 6.838 114.935 6.838 A 2.033 2.033 0 0 1 114.405 6.772 A 1.529 1.529 0 0 1 113.781 6.44 Q 113.331 6.042 113.331 5.432 Q 113.331 4.689 113.895 4.278 Q 114.46 3.867 115.484 3.867 L 116.275 3.867 L 116.275 3.494 A 1.152 1.152 0 0 0 116.239 3.199 A 0.828 0.828 0 0 0 116.02 2.815 Q 115.804 2.6 115.413 2.568 A 1.748 1.748 0 0 0 115.269 2.562 Q 114.833 2.562 114.539 2.782 Q 114.245 3.001 114.245 3.313 L 113.427 3.313 A 1.041 1.041 0 0 1 113.552 2.825 A 1.409 1.409 0 0 1 113.68 2.626 Q 113.933 2.294 114.365 2.101 A 2.249 2.249 0 0 1 115.141 1.913 A 2.669 2.669 0 0 1 115.317 1.907 A 2.65 2.65 0 0 1 115.834 1.955 Q 116.142 2.016 116.38 2.156 A 1.439 1.439 0 0 1 116.604 2.318 A 1.396 1.396 0 0 1 117.058 3.144 A 1.998 1.998 0 0 1 117.088 3.45 L 117.088 5.638 Q 117.088 6.073 117.162 6.39 A 1.707 1.707 0 0 0 117.255 6.68 L 117.255 6.75 Z M 77.15 4.355 L 77.15 4.425 Q 77.15 5.308 76.822 5.909 A 2.141 2.141 0 0 1 76.649 6.177 A 1.647 1.647 0 0 1 76.063 6.673 Q 75.748 6.828 75.357 6.837 A 2.112 2.112 0 0 1 75.305 6.838 A 2.039 2.039 0 0 1 74.71 6.756 A 1.561 1.561 0 0 1 73.912 6.201 L 73.872 6.75 L 73.125 6.75 L 73.125 0 L 73.938 0 L 73.938 2.518 A 1.605 1.605 0 0 1 75.105 1.915 A 2.285 2.285 0 0 1 75.296 1.907 A 1.835 1.835 0 0 1 75.927 2.011 A 1.579 1.579 0 0 1 76.656 2.562 Q 77.07 3.11 77.137 3.998 A 4.727 4.727 0 0 1 77.15 4.355 Z M 68.15 4.504 L 68.15 4.355 A 3.17 3.17 0 0 1 68.227 3.646 A 2.581 2.581 0 0 1 68.421 3.092 A 2.191 2.191 0 0 1 68.868 2.466 A 2.033 2.033 0 0 1 69.177 2.221 Q 69.662 1.907 70.229 1.907 A 2.254 2.254 0 0 1 70.842 1.986 A 1.639 1.639 0 0 1 71.67 2.518 Q 72.185 3.129 72.185 4.267 L 72.185 4.605 L 68.963 4.605 A 2.111 2.111 0 0 0 69.034 5.114 A 1.516 1.516 0 0 0 69.374 5.741 A 1.282 1.282 0 0 0 70.308 6.173 A 1.652 1.652 0 0 0 70.374 6.174 A 1.763 1.763 0 0 0 70.702 6.145 Q 70.926 6.103 71.104 5.999 A 1.827 1.827 0 0 0 71.612 5.551 A 2.068 2.068 0 0 0 71.626 5.533 L 72.123 5.919 A 1.926 1.926 0 0 1 70.723 6.811 A 2.749 2.749 0 0 1 70.33 6.838 A 2.394 2.394 0 0 1 69.579 6.725 A 1.974 1.974 0 0 1 68.757 6.203 Q 68.15 5.568 68.15 4.504 Z M 98.578 0.352 L 98.578 4.601 L 99.466 4.601 L 99.466 5.265 L 98.578 5.265 L 98.578 6.75 L 97.761 6.75 L 97.761 5.265 L 94.847 5.265 L 94.847 4.786 L 97.712 0.352 L 98.578 0.352 Z M 109.463 6.75 L 107.692 6.75 L 107.692 0.352 L 109.499 0.352 Q 110.333 0.352 110.975 0.721 Q 111.617 1.09 111.966 1.771 A 3.19 3.19 0 0 1 112.283 2.8 A 4.073 4.073 0 0 1 112.32 3.335 L 112.32 3.744 Q 112.32 4.649 111.97 5.331 A 2.457 2.457 0 0 1 110.973 6.376 Q 110.325 6.741 109.463 6.75 Z M 103.976 2.592 A 1.544 1.544 0 0 0 104.08 2.021 A 2.226 2.226 0 0 0 104.059 1.707 A 1.566 1.566 0 0 0 103.559 0.738 A 1.754 1.754 0 0 0 102.793 0.333 A 2.443 2.443 0 0 0 102.195 0.264 A 2.539 2.539 0 0 0 101.685 0.312 A 1.767 1.767 0 0 0 100.828 0.738 Q 100.31 1.213 100.31 2.021 A 1.808 1.808 0 0 0 100.31 2.058 A 1.499 1.499 0 0 0 100.556 2.87 A 1.626 1.626 0 0 0 100.718 3.077 A 1.726 1.726 0 0 0 101.228 3.454 A 2.119 2.119 0 0 0 101.129 3.5 A 1.738 1.738 0 0 0 100.444 4.087 A 1.629 1.629 0 0 0 100.16 5.023 A 2.272 2.272 0 0 0 100.17 5.237 A 1.63 1.63 0 0 0 100.716 6.344 A 1.895 1.895 0 0 0 101.567 6.771 A 2.797 2.797 0 0 0 102.195 6.838 A 2.796 2.796 0 0 0 102.794 6.777 A 1.925 1.925 0 0 0 103.669 6.346 A 1.578 1.578 0 0 0 104.144 5.62 A 1.989 1.989 0 0 0 104.229 5.023 A 1.581 1.581 0 0 0 103.937 4.087 Q 103.645 3.674 103.144 3.458 Q 103.575 3.248 103.827 2.874 A 1.449 1.449 0 0 0 103.976 2.592 Z M 37.455 0.844 L 38.268 0.844 L 38.268 1.995 L 39.155 1.995 L 39.155 2.624 L 38.268 2.624 L 38.268 5.572 Q 38.268 5.858 38.386 6.001 Q 38.505 6.144 38.791 6.144 A 1.046 1.046 0 0 0 38.888 6.138 Q 38.991 6.129 39.131 6.101 A 4.024 4.024 0 0 0 39.177 6.091 L 39.177 6.75 A 2.463 2.463 0 0 1 38.744 6.829 A 2.157 2.157 0 0 1 38.553 6.838 Q 38.106 6.838 37.839 6.616 A 0.856 0.856 0 0 1 37.731 6.508 Q 37.504 6.238 37.463 5.78 A 2.351 2.351 0 0 1 37.455 5.572 L 37.455 2.624 L 36.589 2.624 L 36.589 1.995 L 37.455 1.995 L 37.455 0.844 Z M 65.707 0.844 L 66.52 0.844 L 66.52 1.995 L 67.408 1.995 L 67.408 2.624 L 66.52 2.624 L 66.52 5.572 Q 66.52 5.858 66.639 6.001 Q 66.757 6.144 67.043 6.144 A 1.046 1.046 0 0 0 67.14 6.138 Q 67.243 6.129 67.383 6.101 A 4.024 4.024 0 0 0 67.43 6.091 L 67.43 6.75 A 2.463 2.463 0 0 1 66.997 6.829 A 2.157 2.157 0 0 1 66.806 6.838 Q 66.359 6.838 66.092 6.616 A 0.856 0.856 0 0 1 65.984 6.508 Q 65.756 6.238 65.716 5.78 A 2.351 2.351 0 0 1 65.707 5.572 L 65.707 2.624 L 64.841 2.624 L 64.841 1.995 L 65.707 1.995 L 65.707 0.844 Z M 31.605 0 L 31.605 6.75 L 30.792 6.75 L 30.792 0 L 31.605 0 Z M 2.043 4.386 L 2.043 4.329 A 3.057 3.057 0 0 1 2.13 3.587 A 2.573 2.573 0 0 1 2.318 3.072 A 2.16 2.16 0 0 1 2.733 2.486 A 1.957 1.957 0 0 1 3.083 2.21 A 2.036 2.036 0 0 1 4.027 1.913 A 2.491 2.491 0 0 1 4.201 1.907 A 2.277 2.277 0 0 1 4.955 2.027 A 1.937 1.937 0 0 1 5.772 2.58 A 2.29 2.29 0 0 1 6.291 3.608 A 3.373 3.373 0 0 1 6.372 4.368 L 6.372 4.425 A 3.114 3.114 0 0 1 6.293 5.142 A 2.577 2.577 0 0 1 6.106 5.671 A 2.056 2.056 0 0 1 5.579 6.361 A 2.001 2.001 0 0 1 5.346 6.53 A 2.045 2.045 0 0 1 4.426 6.829 A 2.529 2.529 0 0 1 4.21 6.838 A 2.262 2.262 0 0 1 3.46 6.718 A 1.938 1.938 0 0 1 2.643 6.166 A 2.297 2.297 0 0 1 2.118 5.111 A 3.357 3.357 0 0 1 2.043 4.386 Z M 60.069 4.386 L 60.069 4.329 A 3.057 3.057 0 0 1 60.156 3.587 A 2.573 2.573 0 0 1 60.344 3.072 A 2.16 2.16 0 0 1 60.758 2.486 A 1.957 1.957 0 0 1 61.108 2.21 A 2.036 2.036 0 0 1 62.053 1.913 A 2.491 2.491 0 0 1 62.227 1.907 A 2.277 2.277 0 0 1 62.98 2.027 A 1.937 1.937 0 0 1 63.798 2.58 A 2.29 2.29 0 0 1 64.317 3.608 A 3.373 3.373 0 0 1 64.397 4.368 L 64.397 4.425 A 3.114 3.114 0 0 1 64.318 5.142 A 2.577 2.577 0 0 1 64.132 5.671 A 2.056 2.056 0 0 1 63.604 6.361 A 2.001 2.001 0 0 1 63.371 6.53 A 2.045 2.045 0 0 1 62.452 6.829 A 2.529 2.529 0 0 1 62.235 6.838 A 2.262 2.262 0 0 1 61.485 6.718 A 1.938 1.938 0 0 1 60.669 6.166 A 2.297 2.297 0 0 1 60.143 5.111 A 3.357 3.357 0 0 1 60.069 4.386 Z M 77.959 4.386 L 77.959 4.329 A 3.057 3.057 0 0 1 78.046 3.587 A 2.573 2.573 0 0 1 78.234 3.072 A 2.16 2.16 0 0 1 78.648 2.486 A 1.957 1.957 0 0 1 78.998 2.21 A 2.036 2.036 0 0 1 79.943 1.913 A 2.491 2.491 0 0 1 80.117 1.907 A 2.277 2.277 0 0 1 80.87 2.027 A 1.937 1.937 0 0 1 81.688 2.58 A 2.29 2.29 0 0 1 82.207 3.608 A 3.373 3.373 0 0 1 82.288 4.368 L 82.288 4.425 A 3.114 3.114 0 0 1 82.208 5.142 A 2.577 2.577 0 0 1 82.022 5.671 A 2.056 2.056 0 0 1 81.494 6.361 A 2.001 2.001 0 0 1 81.261 6.53 A 2.045 2.045 0 0 1 80.342 6.829 A 2.529 2.529 0 0 1 80.125 6.838 A 2.262 2.262 0 0 1 79.375 6.718 A 1.938 1.938 0 0 1 78.559 6.166 A 2.297 2.297 0 0 1 78.033 5.111 A 3.357 3.357 0 0 1 77.959 4.386 Z M 83.092 4.386 L 83.092 4.329 A 3.057 3.057 0 0 1 83.179 3.587 A 2.573 2.573 0 0 1 83.366 3.072 A 2.16 2.16 0 0 1 83.781 2.486 A 1.957 1.957 0 0 1 84.131 2.21 A 2.036 2.036 0 0 1 85.076 1.913 A 2.491 2.491 0 0 1 85.25 1.907 A 2.277 2.277 0 0 1 86.003 2.027 A 1.937 1.937 0 0 1 86.821 2.58 A 2.29 2.29 0 0 1 87.34 3.608 A 3.373 3.373 0 0 1 87.42 4.368 L 87.42 4.425 A 3.114 3.114 0 0 1 87.341 5.142 A 2.577 2.577 0 0 1 87.155 5.671 A 2.056 2.056 0 0 1 86.627 6.361 A 2.001 2.001 0 0 1 86.394 6.53 A 2.045 2.045 0 0 1 85.475 6.829 A 2.529 2.529 0 0 1 85.258 6.838 A 2.262 2.262 0 0 1 84.508 6.718 A 1.938 1.938 0 0 1 83.692 6.166 A 2.297 2.297 0 0 1 83.166 5.111 A 3.357 3.357 0 0 1 83.092 4.386 Z M 120.661 1.969 L 120.661 2.725 A 2.251 2.251 0 0 0 120.418 2.698 A 2.782 2.782 0 0 0 120.261 2.694 Q 119.483 2.694 119.191 3.338 A 1.445 1.445 0 0 0 119.175 3.375 L 119.175 6.75 L 118.362 6.75 L 118.362 1.995 L 119.153 1.995 L 119.167 2.544 Q 119.547 1.938 120.229 1.909 A 1.636 1.636 0 0 1 120.3 1.907 Q 120.538 1.907 120.661 1.969 Z M 0.844 0.352 L 0.844 6.75 L 0 6.75 L 0 0.352 L 0.844 0.352 Z M 109.521 1.046 L 108.536 1.046 L 108.536 6.06 L 109.424 6.06 A 2.519 2.519 0 0 0 110.056 5.985 A 1.747 1.747 0 0 0 110.942 5.454 Q 111.401 4.94 111.472 4.059 A 4.165 4.165 0 0 0 111.485 3.727 L 111.485 3.353 Q 111.485 2.562 111.215 2.027 A 1.864 1.864 0 0 0 110.973 1.659 A 1.687 1.687 0 0 0 109.977 1.09 A 2.499 2.499 0 0 0 109.521 1.046 Z M 40.988 1.995 L 40.988 6.75 L 40.175 6.75 L 40.175 1.995 L 40.988 1.995 Z M 2.861 4.425 A 2.772 2.772 0 0 0 2.908 4.954 Q 2.969 5.264 3.106 5.51 A 1.545 1.545 0 0 0 3.228 5.695 Q 3.595 6.174 4.21 6.174 A 1.269 1.269 0 0 0 4.699 6.083 Q 4.979 5.967 5.181 5.706 A 1.471 1.471 0 0 0 5.194 5.689 A 1.648 1.648 0 0 0 5.449 5.171 Q 5.518 4.945 5.544 4.672 A 3.655 3.655 0 0 0 5.559 4.329 A 2.687 2.687 0 0 0 5.508 3.789 Q 5.44 3.459 5.283 3.2 A 1.586 1.586 0 0 0 5.188 3.061 A 1.231 1.231 0 0 0 4.773 2.705 Q 4.52 2.575 4.201 2.575 Q 3.611 2.575 3.245 3.035 A 1.515 1.515 0 0 0 3.23 3.054 A 1.589 1.589 0 0 0 2.978 3.552 Q 2.908 3.772 2.88 4.039 A 3.676 3.676 0 0 0 2.861 4.425 Z M 60.886 4.425 A 2.772 2.772 0 0 0 60.934 4.954 Q 60.994 5.264 61.131 5.51 A 1.545 1.545 0 0 0 61.253 5.695 Q 61.62 6.174 62.235 6.174 A 1.269 1.269 0 0 0 62.725 6.083 Q 63.004 5.967 63.207 5.706 A 1.471 1.471 0 0 0 63.22 5.689 A 1.648 1.648 0 0 0 63.475 5.171 Q 63.543 4.945 63.569 4.672 A 3.655 3.655 0 0 0 63.584 4.329 A 2.687 2.687 0 0 0 63.533 3.789 Q 63.466 3.459 63.308 3.2 A 1.586 1.586 0 0 0 63.213 3.061 A 1.231 1.231 0 0 0 62.798 2.705 Q 62.545 2.575 62.227 2.575 Q 61.637 2.575 61.27 3.035 A 1.515 1.515 0 0 0 61.255 3.054 A 1.589 1.589 0 0 0 61.003 3.552 Q 60.934 3.772 60.906 4.039 A 3.676 3.676 0 0 0 60.886 4.425 Z M 78.776 4.425 A 2.772 2.772 0 0 0 78.824 4.954 Q 78.884 5.264 79.021 5.51 A 1.545 1.545 0 0 0 79.143 5.695 Q 79.51 6.174 80.125 6.174 A 1.269 1.269 0 0 0 80.615 6.083 Q 80.894 5.967 81.097 5.706 A 1.471 1.471 0 0 0 81.11 5.689 A 1.648 1.648 0 0 0 81.365 5.171 Q 81.433 4.945 81.459 4.672 A 3.655 3.655 0 0 0 81.475 4.329 A 2.687 2.687 0 0 0 81.423 3.789 Q 81.356 3.459 81.198 3.2 A 1.586 1.586 0 0 0 81.103 3.061 A 1.231 1.231 0 0 0 80.688 2.705 Q 80.435 2.575 80.117 2.575 Q 79.527 2.575 79.161 3.035 A 1.515 1.515 0 0 0 79.146 3.054 A 1.589 1.589 0 0 0 78.893 3.552 Q 78.824 3.772 78.796 4.039 A 3.676 3.676 0 0 0 78.776 4.425 Z M 83.909 4.425 A 2.772 2.772 0 0 0 83.957 4.954 Q 84.017 5.264 84.154 5.51 A 1.545 1.545 0 0 0 84.276 5.695 Q 84.643 6.174 85.258 6.174 A 1.269 1.269 0 0 0 85.748 6.083 Q 86.027 5.967 86.23 5.706 A 1.471 1.471 0 0 0 86.243 5.689 A 1.648 1.648 0 0 0 86.498 5.171 Q 86.566 4.945 86.592 4.672 A 3.655 3.655 0 0 0 86.607 4.329 A 2.687 2.687 0 0 0 86.556 3.789 Q 86.489 3.459 86.331 3.2 A 1.586 1.586 0 0 0 86.236 3.061 A 1.231 1.231 0 0 0 85.821 2.705 Q 85.568 2.575 85.25 2.575 Q 84.66 2.575 84.293 3.035 A 1.515 1.515 0 0 0 84.278 3.054 A 1.589 1.589 0 0 0 84.026 3.552 Q 83.957 3.772 83.928 4.039 A 3.676 3.676 0 0 0 83.909 4.425 Z M 73.938 3.344 L 73.938 5.401 A 1.528 1.528 0 0 0 74.224 5.807 Q 74.546 6.127 75.036 6.147 A 1.621 1.621 0 0 0 75.103 6.148 A 1.206 1.206 0 0 0 75.52 6.079 A 1.04 1.04 0 0 0 76.012 5.695 Q 76.337 5.243 76.337 4.333 Q 76.337 3.502 76.017 3.05 A 1.03 1.03 0 0 0 75.266 2.607 A 1.449 1.449 0 0 0 75.094 2.597 A 1.34 1.34 0 0 0 74.584 2.69 Q 74.166 2.86 73.938 3.344 Z M 97.664 1.639 L 95.77 4.601 L 97.761 4.601 L 97.761 1.463 L 97.664 1.639 Z M 17.31 1.393 L 16.225 4.386 L 18.4 4.386 L 17.31 1.393 Z M 103.417 5.005 A 1.375 1.375 0 0 0 103.357 4.592 A 1.109 1.109 0 0 0 103.076 4.131 A 1.148 1.148 0 0 0 102.405 3.807 A 1.593 1.593 0 0 0 102.186 3.792 A 1.466 1.466 0 0 0 101.797 3.841 A 1.086 1.086 0 0 0 101.305 4.126 A 1.123 1.123 0 0 0 100.991 4.762 A 1.572 1.572 0 0 0 100.973 5.005 A 1.48 1.48 0 0 0 101.015 5.367 A 1.019 1.019 0 0 0 101.296 5.862 Q 101.602 6.158 102.135 6.173 A 2.053 2.053 0 0 0 102.195 6.174 Q 102.688 6.174 102.998 5.94 A 1.018 1.018 0 0 0 103.091 5.86 A 1.041 1.041 0 0 0 103.391 5.292 A 1.518 1.518 0 0 0 103.417 5.005 Z M 102.195 0.932 A 1.259 1.259 0 0 0 101.842 0.979 A 0.973 0.973 0 0 0 101.419 1.228 Q 101.123 1.525 101.123 2.035 A 1.325 1.325 0 0 0 101.167 2.387 A 0.994 0.994 0 0 0 101.415 2.823 A 0.974 0.974 0 0 0 101.977 3.108 A 1.382 1.382 0 0 0 102.195 3.125 A 1.279 1.279 0 0 0 102.54 3.08 A 0.952 0.952 0 0 0 102.975 2.823 A 1.018 1.018 0 0 0 103.25 2.26 A 1.426 1.426 0 0 0 103.267 2.035 A 1.282 1.282 0 0 0 103.217 1.668 A 1.013 1.013 0 0 0 102.964 1.239 Q 102.661 0.932 102.195 0.932 Z M 28.635 5.418 L 28.635 4.443 L 27.998 4.443 Q 26.503 4.443 26.503 5.317 Q 26.503 5.7 26.758 5.915 A 0.893 0.893 0 0 0 27.172 6.108 A 1.259 1.259 0 0 0 27.413 6.13 A 1.429 1.429 0 0 0 28.138 5.933 A 1.335 1.335 0 0 0 28.434 5.705 A 1.108 1.108 0 0 0 28.635 5.418 Z M 116.275 5.418 L 116.275 4.443 L 115.638 4.443 Q 114.144 4.443 114.144 5.317 Q 114.144 5.7 114.398 5.915 A 0.893 0.893 0 0 0 114.812 6.108 A 1.259 1.259 0 0 0 115.053 6.13 A 1.429 1.429 0 0 0 115.778 5.933 A 1.335 1.335 0 0 0 116.074 5.705 A 1.108 1.108 0 0 0 116.275 5.418 Z M 68.99 3.938 L 71.372 3.938 L 71.372 3.876 Q 71.346 3.417 71.175 3.111 A 1.13 1.13 0 0 0 71.038 2.916 A 0.983 0.983 0 0 0 70.383 2.584 A 1.39 1.39 0 0 0 70.229 2.575 A 1.106 1.106 0 0 0 69.707 2.698 A 1.14 1.14 0 0 0 69.403 2.933 A 1.417 1.417 0 0 0 69.126 3.379 Q 69.053 3.563 69.013 3.785 A 2.741 2.741 0 0 0 68.99 3.938 Z M 40.109 0.734 Q 40.109 0.536 40.23 0.4 Q 40.342 0.274 40.553 0.264 A 0.783 0.783 0 0 1 40.588 0.264 Q 40.825 0.264 40.948 0.4 A 0.474 0.474 0 0 1 41.071 0.703 A 0.614 0.614 0 0 1 41.071 0.734 A 0.523 0.523 0 0 1 41.046 0.9 A 0.442 0.442 0 0 1 40.948 1.063 Q 40.836 1.184 40.628 1.194 A 0.803 0.803 0 0 1 40.588 1.195 Q 40.416 1.195 40.305 1.126 A 0.362 0.362 0 0 1 40.23 1.063 A 0.456 0.456 0 0 1 40.111 0.788 A 0.605 0.605 0 0 1 40.109 0.734 Z" vector-effect="non-scaling-stroke"/></g>
</svg>