<?xml version="1.0" encoding="UTF-8"?>
<svg width="48px" height="48px" viewBox="0 0 48 48" version="1.1" xmlns="http://www.w3.org/2000/svg" xmlns:xlink="http://www.w3.org/1999/xlink">
    <title>Icon-Resource/IoT/Res_IoT_Thing_Car_48_Dark</title>
    <g id="Icon-Resource/IoT/Res_IoT_Thing_Car_48" stroke="none" stroke-width="1" fill="none" fill-rule="evenodd">
        <path transform="translate(12.000000, 8.000000), scale(.65)" d="M37.0351,28.2461 L36.0801,28.2461 C35.6381,26.6351 34.1751,25.4411 32.4261,25.4411 C30.6771,25.4411 29.2141,26.6351 28.7711,28.2461 L20.5961,28.2461 C20.1531,26.6351 18.6901,25.4411 16.9411,25.4411 C15.1921,25.4411 13.7291,26.6351 13.2871,28.2461 L12.6681,28.2461 L12.6681,25.3521 C12.6681,25.1981 12.7721,25.0821 12.8661,25.0741 C12.9381,25.0681 13.0111,25.0551 13.0801,25.0331 L19.3801,23.0651 C19.9311,22.8621 20.3381,22.3891 20.4631,21.8171 L21.7111,18.0271 C21.7301,17.9691 21.7831,17.9411 21.8241,17.9411 L31.2761,17.9411 C31.4311,17.9411 31.5711,18.0261 31.6181,18.1071 L33.9601,23.1781 C34.0951,23.4681 34.3591,23.6771 34.6731,23.7391 C36.3061,24.0651 37.0351,25.0211 37.0351,26.8381 L37.0351,28.2461 Z M30.6211,29.2461 C30.6211,28.2511 31.4311,27.4411 32.4261,27.4411 C33.4211,27.4411 34.2301,28.2511 34.2301,29.2461 C34.2301,30.2411 33.4211,31.0511 32.4261,31.0511 C31.4311,31.0511 30.6211,30.2411 30.6211,29.2461 Z M15.1371,29.2461 C15.1371,28.2511 15.9461,27.4411 16.9411,27.4411 C17.9361,27.4411 18.7461,28.2511 18.7461,29.2461 C18.7461,30.2411 17.9361,31.0511 16.9411,31.0511 C15.9461,31.0511 15.1371,30.2411 15.1371,29.2461 Z M33.4031,17.2081 C32.9751,16.4271 32.1611,15.9411 31.2761,15.9411 L21.8241,15.9411 C20.9071,15.9411 20.0981,16.5281 19.8101,17.4021 L18.5511,21.2301 L12.5721,23.0961 C11.4951,23.2521 10.6681,24.2191 10.6681,25.3521 L10.6681,27.3671 L9.0311,27.3671 L9.0311,29.3671 L10.8091,29.3671 C11.0491,29.8851 11.5661,30.2461 12.1701,30.2461 L13.2871,30.2461 C13.7291,31.8571 15.1921,33.0511 16.9411,33.0511 C18.6901,33.0511 20.1531,31.8571 20.5961,30.2461 L28.7711,30.2461 C29.2141,31.8571 30.6771,33.0511 32.4261,33.0511 C34.1751,33.0511 35.6381,31.8571 36.0801,30.2461 L37.5421,30.2461 C38.3651,30.2461 39.0351,29.5681 39.0351,28.7361 L39.0351,26.8381 C39.0351,24.2741 37.8111,22.5401 35.5731,21.9011 L33.4031,17.2081 Z M39.6711,38.5371 C39.6711,39.1631 39.1611,39.6721 38.5351,39.6721 L9.4101,39.6721 C8.7841,39.6721 8.2751,39.1631 8.2751,38.5371 L8.2751,9.4231 C8.2751,8.7971 8.7841,8.2881 9.4101,8.2881 L38.5361,8.2881 C39.1621,8.2881 39.6711,8.7971 39.6711,9.4231 L39.6711,38.5371 Z M45.9451,14.4261 L45.9451,12.4261 L41.6711,12.4261 L41.6711,9.4231 C41.6711,7.6941 40.2641,6.2881 38.5361,6.2881 L35.5191,6.2881 L35.5191,2.0001 L33.5191,2.0001 L33.5191,6.2881 L30.2461,6.2881 L30.2461,2.0001 L28.2461,2.0001 L28.2461,6.2881 L24.9721,6.2881 L24.9721,2.0001 L22.9721,2.0001 L22.9721,6.2881 L19.6991,6.2881 L19.6991,2.0001 L17.6991,2.0001 L17.6991,6.2881 L14.4261,6.2881 L14.4261,2.0001 L12.4261,2.0001 L12.4261,6.2881 L9.4101,6.2881 C7.6811,6.2881 6.2751,7.6941 6.2751,9.4231 L6.2751,12.4261 L2.0001,12.4261 L2.0001,14.4261 L6.2751,14.4261 L6.2751,17.6991 L2.0001,17.6991 L2.0001,19.6991 L6.2751,19.6991 L6.2751,22.9731 L2.0001,22.9731 L2.0001,24.9731 L6.2751,24.9731 L6.2751,28.2461 L2.0001,28.2461 L2.0001,30.2461 L6.2751,30.2461 L6.2751,33.5191 L2.0001,33.5191 L2.0001,35.5191 L6.2751,35.5191 L6.2751,38.5371 C6.2751,40.2661 7.6811,41.6721 9.4101,41.6721 L12.4261,41.6721 L12.4261,45.9451 L14.4261,45.9451 L14.4261,41.6721 L17.6991,41.6721 L17.6991,45.9451 L19.6991,45.9451 L19.6991,41.6721 L22.9721,41.6721 L22.9721,45.9451 L24.9721,45.9451 L24.9721,41.6721 L28.2461,41.6721 L28.2461,45.9451 L30.2461,45.9451 L30.2461,41.6721 L33.5191,41.6721 L33.5191,45.9451 L35.5191,45.9451 L35.5191,41.6721 L38.5351,41.6721 C40.2641,41.6721 41.6711,40.2661 41.6711,38.5371 L41.6711,35.5191 L45.9451,35.5191 L45.9451,33.5191 L41.6711,33.5191 L41.6711,30.2461 L45.9451,30.2461 L45.9451,28.2461 L41.6711,28.2461 L41.6711,24.9731 L45.9451,24.9731 L45.9451,22.9731 L41.6711,22.9731 L41.6711,19.6991 L45.9451,19.6991 L45.9451,17.6991 L41.6711,17.6991 L41.6711,14.4261 L45.9451,14.4261 Z" id="Amazon-IOT-RESOURCES-IoT-thing-car_Resource-Icon_light-bg" fill="#000000"></path>
    </g><g transform="translate(25, 83)" id="svgGroup" stroke-linecap="round" fill-rule="evenodd" font-size="9pt" stroke="#000" stroke-width="0.25mm" fill="#000" style="stroke:#000;stroke-width:0.25mm;fill:#000"><path d="M 23.12 0.088 L 24.13 4.469 L 24.253 5.313 L 24.434 4.553 L 25.699 0.088 L 26.411 0.088 L 27.646 4.553 L 27.822 5.326 L 27.958 4.465 L 28.951 0.088 L 29.799 0.088 L 28.248 6.486 L 27.479 6.486 L 26.161 1.824 L 26.06 1.336 L 25.958 1.824 L 24.592 6.486 L 23.823 6.486 L 22.276 0.088 L 23.12 0.088 Z M 34.98 1.938 L 34.132 1.938 A 1.466 1.466 0 0 0 34.083 1.546 A 1.066 1.066 0 0 0 33.763 1.026 A 1.211 1.211 0 0 0 33.294 0.77 Q 33.042 0.694 32.722 0.694 A 2.286 2.286 0 0 0 32.342 0.724 Q 32.14 0.758 31.977 0.831 A 1.101 1.101 0 0 0 31.748 0.969 A 0.892 0.892 0 0 0 31.403 1.624 A 1.267 1.267 0 0 0 31.399 1.732 A 0.806 0.806 0 0 0 31.667 2.337 A 1.134 1.134 0 0 0 31.731 2.393 A 1.562 1.562 0 0 0 31.969 2.549 Q 32.299 2.73 32.86 2.887 A 8.228 8.228 0 0 1 33.325 3.032 Q 33.56 3.113 33.754 3.2 A 3.297 3.297 0 0 1 34.108 3.382 A 2.342 2.342 0 0 1 34.447 3.626 Q 34.637 3.792 34.759 3.985 A 1.45 1.45 0 0 1 34.776 4.012 A 1.498 1.498 0 0 1 34.972 4.568 A 1.948 1.948 0 0 1 34.994 4.86 A 1.606 1.606 0 0 1 34.871 5.497 Q 34.726 5.838 34.408 6.09 A 1.886 1.886 0 0 1 34.387 6.106 Q 33.781 6.574 32.766 6.574 A 3.023 3.023 0 0 1 31.625 6.36 A 2.917 2.917 0 0 1 31.535 6.322 A 2.383 2.383 0 0 1 31.057 6.044 A 1.874 1.874 0 0 1 30.654 5.629 A 1.689 1.689 0 0 1 30.344 4.632 L 31.192 4.632 A 1.261 1.261 0 0 0 31.262 5.059 A 1.074 1.074 0 0 0 31.621 5.548 Q 32.005 5.85 32.622 5.881 A 2.87 2.87 0 0 0 32.766 5.884 A 2.628 2.628 0 0 0 33.153 5.858 Q 33.349 5.828 33.508 5.767 A 1.129 1.129 0 0 0 33.79 5.612 Q 34.146 5.339 34.146 4.869 A 1.074 1.074 0 0 0 34.103 4.559 A 0.816 0.816 0 0 0 33.816 4.142 Q 33.486 3.885 32.621 3.634 Q 31.535 3.322 31.041 2.868 Q 30.546 2.413 30.546 1.745 Q 30.546 0.989 31.151 0.494 A 2.121 2.121 0 0 1 32.041 0.071 A 3.087 3.087 0 0 1 32.722 0 A 2.913 2.913 0 0 1 33.382 0.072 A 2.372 2.372 0 0 1 33.897 0.255 A 2.051 2.051 0 0 1 34.428 0.626 A 1.834 1.834 0 0 1 34.697 0.958 A 1.798 1.798 0 0 1 34.98 1.938 Z M 3.74 6.486 L 2.351 3.898 L 0.848 3.898 L 0.848 6.486 L 0 6.486 L 0 0.088 L 2.118 0.088 A 3.809 3.809 0 0 1 2.76 0.138 Q 3.102 0.197 3.376 0.324 A 1.789 1.789 0 0 1 3.781 0.58 A 1.588 1.588 0 0 1 4.307 1.469 A 2.453 2.453 0 0 1 4.364 2.013 A 1.864 1.864 0 0 1 4.273 2.604 A 1.64 1.64 0 0 1 4.041 3.054 A 1.849 1.849 0 0 1 3.382 3.611 A 2.342 2.342 0 0 1 3.142 3.718 L 4.645 6.434 L 4.645 6.486 L 3.74 6.486 Z M 13.724 3.129 L 12.907 3.129 Q 12.907 2.795 12.623 2.553 Q 12.34 2.312 11.909 2.312 Q 11.465 2.312 11.215 2.505 A 0.653 0.653 0 0 0 11.04 2.704 Q 10.967 2.835 10.964 3 A 0.771 0.771 0 0 0 10.964 3.01 A 0.588 0.588 0 0 0 10.994 3.203 A 0.48 0.48 0 0 0 11.197 3.454 A 1.093 1.093 0 0 0 11.348 3.533 Q 11.512 3.605 11.767 3.673 A 6.581 6.581 0 0 0 12.039 3.74 A 6.318 6.318 0 0 1 12.446 3.845 Q 12.783 3.944 13.025 4.065 A 1.901 1.901 0 0 1 13.281 4.218 Q 13.418 4.315 13.516 4.429 A 1.06 1.06 0 0 1 13.586 4.52 A 1.024 1.024 0 0 1 13.748 4.927 A 1.388 1.388 0 0 1 13.768 5.168 Q 13.768 5.805 13.258 6.19 Q 12.776 6.554 12.022 6.573 A 3.337 3.337 0 0 1 11.936 6.574 A 2.746 2.746 0 0 1 11.401 6.525 A 2.124 2.124 0 0 1 10.925 6.372 A 1.771 1.771 0 0 1 10.491 6.094 A 1.54 1.54 0 0 1 10.237 5.807 Q 9.989 5.445 9.989 5.023 L 10.802 5.023 A 0.932 0.932 0 0 0 10.875 5.348 A 0.827 0.827 0 0 0 11.129 5.671 A 1.072 1.072 0 0 0 11.531 5.864 Q 11.686 5.903 11.867 5.91 A 2.013 2.013 0 0 0 11.936 5.911 A 1.863 1.863 0 0 0 12.231 5.889 Q 12.393 5.863 12.524 5.806 A 0.941 0.941 0 0 0 12.676 5.724 A 0.689 0.689 0 0 0 12.841 5.574 A 0.554 0.554 0 0 0 12.955 5.225 A 0.698 0.698 0 0 0 12.919 4.994 A 0.581 0.581 0 0 0 12.707 4.713 A 1.05 1.05 0 0 0 12.538 4.615 Q 12.349 4.524 12.054 4.449 A 5.392 5.392 0 0 0 11.841 4.399 A 6.342 6.342 0 0 1 11.48 4.311 Q 11.11 4.209 10.861 4.083 Q 10.562 3.93 10.392 3.731 A 1.017 1.017 0 0 1 10.325 3.643 Q 10.151 3.388 10.151 3.037 A 1.206 1.206 0 0 1 10.55 2.132 A 1.694 1.694 0 0 1 10.646 2.048 A 1.752 1.752 0 0 1 11.429 1.688 A 2.471 2.471 0 0 1 11.909 1.644 A 2.559 2.559 0 0 1 12.473 1.702 A 1.757 1.757 0 0 1 13.221 2.061 Q 13.724 2.479 13.724 3.129 Z M 21.327 6.486 L 20.716 4.816 L 18.035 4.816 L 17.433 6.486 L 16.563 6.486 L 19.006 0.088 L 19.745 0.088 L 22.192 6.486 L 21.327 6.486 Z M 5.212 4.241 L 5.212 4.091 A 3.17 3.17 0 0 1 5.288 3.382 A 2.581 2.581 0 0 1 5.482 2.828 A 2.191 2.191 0 0 1 5.93 2.202 A 2.033 2.033 0 0 1 6.238 1.958 Q 6.724 1.644 7.291 1.644 A 2.254 2.254 0 0 1 7.904 1.723 A 1.639 1.639 0 0 1 8.732 2.254 Q 9.246 2.865 9.246 4.003 L 9.246 4.342 L 6.025 4.342 A 2.111 2.111 0 0 0 6.096 4.85 A 1.516 1.516 0 0 0 6.436 5.478 A 1.282 1.282 0 0 0 7.37 5.909 A 1.652 1.652 0 0 0 7.436 5.911 A 1.763 1.763 0 0 0 7.764 5.882 Q 7.988 5.839 8.165 5.735 A 1.827 1.827 0 0 0 8.674 5.287 A 2.068 2.068 0 0 0 8.688 5.269 L 9.185 5.656 A 1.926 1.926 0 0 1 7.785 6.547 A 2.749 2.749 0 0 1 7.392 6.574 A 2.394 2.394 0 0 1 6.64 6.461 A 1.974 1.974 0 0 1 5.818 5.939 Q 5.212 5.304 5.212 4.241 Z M 0.848 0.782 L 0.848 3.208 L 2.145 3.208 Q 2.685 3.208 3.035 2.968 A 1.174 1.174 0 0 0 3.144 2.883 A 1.069 1.069 0 0 0 3.51 2.146 A 1.486 1.486 0 0 0 3.516 2.013 Q 3.516 1.47 3.22 1.159 A 1 1 0 0 0 3.162 1.103 Q 2.808 0.787 2.14 0.782 L 0.848 0.782 Z M 19.375 1.129 L 18.29 4.122 L 20.465 4.122 L 19.375 1.129 Z M 6.051 3.674 L 8.433 3.674 L 8.433 3.612 Q 8.407 3.153 8.236 2.848 A 1.13 1.13 0 0 0 8.099 2.652 A 0.983 0.983 0 0 0 7.445 2.32 A 1.39 1.39 0 0 0 7.291 2.312 A 1.106 1.106 0 0 0 6.768 2.435 A 1.14 1.14 0 0 0 6.464 2.67 A 1.417 1.417 0 0 0 6.188 3.116 Q 6.114 3.3 6.074 3.522 A 2.741 2.741 0 0 0 6.051 3.674 Z" vector-effect="non-scaling-stroke"/></g><g transform="translate(25, 93)" id="svgGroup" stroke-linecap="round" fill-rule="evenodd" font-size="9pt" stroke="#000" stroke-width="0.25mm" fill="#000" style="stroke:#000;stroke-width:0.25mm;fill:#000"><path d="M 43.554 4.72 L 44.402 4.72 A 3.016 3.016 0 0 1 44.241 5.416 A 2.099 2.099 0 0 1 43.653 6.286 Q 43.022 6.838 41.977 6.838 A 2.553 2.553 0 0 1 41.107 6.696 A 2.194 2.194 0 0 1 40.159 6.025 A 2.789 2.789 0 0 1 39.598 4.901 Q 39.491 4.484 39.478 3.992 A 5.262 5.262 0 0 1 39.476 3.85 L 39.476 3.234 A 4.251 4.251 0 0 1 39.546 2.445 A 3.229 3.229 0 0 1 39.795 1.666 A 2.539 2.539 0 0 1 40.25 0.99 A 2.26 2.26 0 0 1 40.698 0.626 A 2.415 2.415 0 0 1 41.724 0.281 A 3.027 3.027 0 0 1 42.051 0.264 A 2.962 2.962 0 0 1 42.757 0.343 A 2.065 2.065 0 0 1 43.686 0.833 A 2.16 2.16 0 0 1 44.281 1.795 A 3.086 3.086 0 0 1 44.402 2.408 L 43.554 2.408 Q 43.485 1.929 43.316 1.616 A 1.223 1.223 0 0 0 43.077 1.301 A 1.207 1.207 0 0 0 42.572 1.024 Q 42.385 0.971 42.162 0.961 A 2.396 2.396 0 0 0 42.051 0.958 A 1.753 1.753 0 0 0 41.473 1.049 A 1.463 1.463 0 0 0 40.783 1.556 A 1.989 1.989 0 0 0 40.47 2.175 Q 40.324 2.636 40.324 3.256 L 40.324 3.876 Q 40.324 4.917 40.759 5.533 A 1.38 1.38 0 0 0 41.758 6.135 A 1.814 1.814 0 0 0 41.977 6.148 A 2.497 2.497 0 0 0 42.384 6.117 Q 42.603 6.08 42.779 6.002 A 1.155 1.155 0 0 0 43.055 5.829 Q 43.431 5.511 43.554 4.72 Z M 20.997 0 L 20.997 2.571 A 1.767 1.767 0 0 1 21.663 2.053 A 1.832 1.832 0 0 1 22.403 1.907 A 1.905 1.905 0 0 1 23.037 2.004 Q 23.879 2.3 23.922 3.506 A 3.668 3.668 0 0 1 23.924 3.608 L 23.924 6.75 L 23.111 6.75 L 23.111 3.604 A 1.837 1.837 0 0 0 23.089 3.324 Q 23.038 3.017 22.876 2.843 Q 22.69 2.645 22.336 2.606 A 1.66 1.66 0 0 0 22.157 2.597 A 1.253 1.253 0 0 0 21.743 2.664 A 1.123 1.123 0 0 0 21.463 2.808 A 1.432 1.432 0 0 0 20.997 3.362 L 20.997 6.75 L 20.184 6.75 L 20.184 0 L 20.997 0 Z M 84.757 6.75 L 83.101 4.548 L 82.591 5.08 L 82.591 6.75 L 81.778 6.75 L 81.778 0 L 82.591 0 L 82.591 4.083 L 83.026 3.56 L 84.507 1.995 L 85.496 1.995 L 83.646 3.981 L 85.711 6.75 L 84.757 6.75 Z M 35.332 2.522 L 35.372 1.995 L 36.114 1.995 L 36.114 6.636 A 2.511 2.511 0 0 1 36.044 7.249 A 1.738 1.738 0 0 1 35.567 8.09 A 1.834 1.834 0 0 1 34.637 8.57 A 2.671 2.671 0 0 1 34.097 8.622 A 2.446 2.446 0 0 1 33.091 8.402 A 2.003 2.003 0 0 1 32.681 8.161 A 1.563 1.563 0 0 1 32.339 7.8 L 32.761 7.313 A 1.889 1.889 0 0 0 33.196 7.712 A 1.514 1.514 0 0 0 34.04 7.958 A 1.695 1.695 0 0 0 34.417 7.919 Q 34.685 7.858 34.879 7.702 A 1.037 1.037 0 0 0 34.965 7.625 A 1.09 1.09 0 0 0 35.242 7.132 Q 35.289 6.959 35.296 6.752 A 2.134 2.134 0 0 0 35.297 6.684 L 35.297 6.275 A 1.601 1.601 0 0 1 34.245 6.821 A 2.279 2.279 0 0 1 33.965 6.838 A 1.672 1.672 0 0 1 33.21 6.67 Q 32.888 6.51 32.638 6.197 A 2.14 2.14 0 0 1 32.614 6.166 A 2.316 2.316 0 0 1 32.231 5.386 Q 32.098 4.922 32.098 4.333 Q 32.098 3.472 32.406 2.884 A 2.096 2.096 0 0 1 32.612 2.564 Q 33.126 1.907 33.974 1.907 A 1.971 1.971 0 0 1 34.573 1.994 A 1.55 1.55 0 0 1 35.332 2.522 Z M 27.325 1.995 L 28.094 1.995 L 28.121 2.593 Q 28.657 1.918 29.517 1.907 A 2.234 2.234 0 0 1 29.544 1.907 A 1.905 1.905 0 0 1 30.178 2.004 Q 31.02 2.3 31.063 3.506 A 3.668 3.668 0 0 1 31.065 3.608 L 31.065 6.75 L 30.252 6.75 L 30.252 3.604 A 1.837 1.837 0 0 0 30.23 3.324 Q 30.18 3.017 30.017 2.843 Q 29.831 2.645 29.477 2.606 A 1.66 1.66 0 0 0 29.298 2.597 A 1.253 1.253 0 0 0 28.884 2.664 A 1.123 1.123 0 0 0 28.604 2.808 A 1.432 1.432 0 0 0 28.138 3.362 L 28.138 6.75 L 27.325 6.75 L 27.325 1.995 Z M 11.94 0.352 L 11.94 1.046 L 9.883 1.046 L 9.883 6.75 L 9.044 6.75 L 9.044 1.046 L 6.992 1.046 L 6.992 0.352 L 11.94 0.352 Z M 19.362 0.352 L 19.362 1.046 L 17.306 1.046 L 17.306 6.75 L 16.466 6.75 L 16.466 1.046 L 14.414 1.046 L 14.414 0.352 L 19.362 0.352 Z M 49.214 6.75 L 48.362 6.75 A 0.632 0.632 0 0 1 48.326 6.66 Q 48.295 6.562 48.27 6.41 A 3.997 3.997 0 0 1 48.248 6.249 Q 47.681 6.838 46.894 6.838 A 2.033 2.033 0 0 1 46.365 6.772 A 1.529 1.529 0 0 1 45.74 6.44 Q 45.29 6.042 45.29 5.432 Q 45.29 4.689 45.855 4.278 Q 46.419 3.867 47.443 3.867 L 48.234 3.867 L 48.234 3.494 A 1.152 1.152 0 0 0 48.199 3.199 A 0.828 0.828 0 0 0 47.979 2.815 Q 47.763 2.6 47.373 2.568 A 1.748 1.748 0 0 0 47.228 2.562 Q 46.793 2.562 46.499 2.782 Q 46.204 3.001 46.204 3.313 L 45.387 3.313 A 1.041 1.041 0 0 1 45.512 2.825 A 1.409 1.409 0 0 1 45.639 2.626 Q 45.892 2.294 46.325 2.101 A 2.249 2.249 0 0 1 47.101 1.913 A 2.669 2.669 0 0 1 47.276 1.907 A 2.65 2.65 0 0 1 47.794 1.955 Q 48.101 2.016 48.34 2.156 A 1.439 1.439 0 0 1 48.564 2.318 A 1.396 1.396 0 0 1 49.017 3.144 A 1.998 1.998 0 0 1 49.047 3.45 L 49.047 5.638 Q 49.047 6.073 49.121 6.39 A 1.707 1.707 0 0 0 49.214 6.68 L 49.214 6.75 Z M 77.621 6.75 L 76.768 6.75 A 0.632 0.632 0 0 1 76.733 6.66 Q 76.701 6.562 76.677 6.41 A 3.997 3.997 0 0 1 76.654 6.249 Q 76.087 6.838 75.3 6.838 A 2.033 2.033 0 0 1 74.771 6.772 A 1.529 1.529 0 0 1 74.147 6.44 Q 73.696 6.042 73.696 5.432 Q 73.696 4.689 74.261 4.278 Q 74.826 3.867 75.85 3.867 L 76.641 3.867 L 76.641 3.494 A 1.152 1.152 0 0 0 76.605 3.199 A 0.828 0.828 0 0 0 76.386 2.815 Q 76.169 2.6 75.779 2.568 A 1.748 1.748 0 0 0 75.634 2.562 Q 75.199 2.562 74.905 2.782 Q 74.61 3.001 74.61 3.313 L 73.793 3.313 A 1.041 1.041 0 0 1 73.918 2.825 A 1.409 1.409 0 0 1 74.046 2.626 Q 74.298 2.294 74.731 2.101 A 2.249 2.249 0 0 1 75.507 1.913 A 2.669 2.669 0 0 1 75.683 1.907 A 2.65 2.65 0 0 1 76.2 1.955 Q 76.507 2.016 76.746 2.156 A 1.439 1.439 0 0 1 76.97 2.318 A 1.396 1.396 0 0 1 77.424 3.144 A 1.998 1.998 0 0 1 77.454 3.45 L 77.454 5.638 Q 77.454 6.073 77.527 6.39 A 1.707 1.707 0 0 0 77.621 6.68 L 77.621 6.75 Z M 58.944 0.352 L 58.944 4.601 L 59.832 4.601 L 59.832 5.265 L 58.944 5.265 L 58.944 6.75 L 58.126 6.75 L 58.126 5.265 L 55.213 5.265 L 55.213 4.786 L 58.078 0.352 L 58.944 0.352 Z M 69.829 6.75 L 68.058 6.75 L 68.058 0.352 L 69.864 0.352 Q 70.699 0.352 71.341 0.721 Q 71.982 1.09 72.332 1.771 A 3.19 3.19 0 0 1 72.649 2.8 A 4.073 4.073 0 0 1 72.686 3.335 L 72.686 3.744 Q 72.686 4.649 72.336 5.331 A 2.457 2.457 0 0 1 71.339 6.376 Q 70.69 6.741 69.829 6.75 Z M 64.342 2.592 A 1.544 1.544 0 0 0 64.446 2.021 A 2.226 2.226 0 0 0 64.424 1.707 A 1.566 1.566 0 0 0 63.925 0.738 A 1.754 1.754 0 0 0 63.159 0.333 A 2.443 2.443 0 0 0 62.561 0.264 A 2.539 2.539 0 0 0 62.051 0.312 A 1.767 1.767 0 0 0 61.194 0.738 Q 60.675 1.213 60.675 2.021 A 1.808 1.808 0 0 0 60.676 2.058 A 1.499 1.499 0 0 0 60.921 2.87 A 1.626 1.626 0 0 0 61.083 3.077 A 1.726 1.726 0 0 0 61.594 3.454 A 2.119 2.119 0 0 0 61.494 3.5 A 1.738 1.738 0 0 0 60.809 4.087 A 1.629 1.629 0 0 0 60.526 5.023 A 2.272 2.272 0 0 0 60.536 5.237 A 1.63 1.63 0 0 0 61.082 6.344 A 1.895 1.895 0 0 0 61.932 6.771 A 2.797 2.797 0 0 0 62.561 6.838 A 2.796 2.796 0 0 0 63.16 6.777 A 1.925 1.925 0 0 0 64.035 6.346 A 1.578 1.578 0 0 0 64.51 5.62 A 1.989 1.989 0 0 0 64.595 5.023 A 1.581 1.581 0 0 0 64.303 4.087 Q 64.011 3.674 63.51 3.458 Q 63.94 3.248 64.193 2.874 A 1.449 1.449 0 0 0 64.342 2.592 Z M 2.043 4.386 L 2.043 4.329 A 3.057 3.057 0 0 1 2.13 3.587 A 2.573 2.573 0 0 1 2.318 3.072 A 2.16 2.16 0 0 1 2.733 2.486 A 1.957 1.957 0 0 1 3.083 2.21 A 2.036 2.036 0 0 1 4.027 1.913 A 2.491 2.491 0 0 1 4.201 1.907 A 2.277 2.277 0 0 1 4.955 2.027 A 1.937 1.937 0 0 1 5.772 2.58 A 2.29 2.29 0 0 1 6.291 3.608 A 3.373 3.373 0 0 1 6.372 4.368 L 6.372 4.425 A 3.114 3.114 0 0 1 6.293 5.142 A 2.577 2.577 0 0 1 6.106 5.671 A 2.056 2.056 0 0 1 5.579 6.361 A 2.001 2.001 0 0 1 5.346 6.53 A 2.045 2.045 0 0 1 4.426 6.829 A 2.529 2.529 0 0 1 4.21 6.838 A 2.262 2.262 0 0 1 3.46 6.718 A 1.938 1.938 0 0 1 2.643 6.166 A 2.297 2.297 0 0 1 2.118 5.111 A 3.357 3.357 0 0 1 2.043 4.386 Z M 52.62 1.969 L 52.62 2.725 A 2.251 2.251 0 0 0 52.377 2.698 A 2.782 2.782 0 0 0 52.22 2.694 Q 51.442 2.694 51.151 3.338 A 1.445 1.445 0 0 0 51.135 3.375 L 51.135 6.75 L 50.322 6.75 L 50.322 1.995 L 51.113 1.995 L 51.126 2.544 Q 51.506 1.938 52.189 1.909 A 1.636 1.636 0 0 1 52.26 1.907 Q 52.497 1.907 52.62 1.969 Z M 81.026 1.969 L 81.026 2.725 A 2.251 2.251 0 0 0 80.784 2.698 A 2.782 2.782 0 0 0 80.626 2.694 Q 79.849 2.694 79.557 3.338 A 1.445 1.445 0 0 0 79.541 3.375 L 79.541 6.75 L 78.728 6.75 L 78.728 1.995 L 79.519 1.995 L 79.532 2.544 Q 79.913 1.938 80.595 1.909 A 1.636 1.636 0 0 1 80.666 1.907 Q 80.903 1.907 81.026 1.969 Z M 0.844 0.352 L 0.844 6.75 L 0 6.75 L 0 0.352 L 0.844 0.352 Z M 69.886 1.046 L 68.902 1.046 L 68.902 6.06 L 69.79 6.06 A 2.519 2.519 0 0 0 70.422 5.985 A 1.747 1.747 0 0 0 71.308 5.454 Q 71.767 4.94 71.838 4.059 A 4.165 4.165 0 0 0 71.851 3.727 L 71.851 3.353 Q 71.851 2.562 71.581 2.027 A 1.864 1.864 0 0 0 71.339 1.659 A 1.687 1.687 0 0 0 70.343 1.09 A 2.499 2.499 0 0 0 69.886 1.046 Z M 26.024 1.995 L 26.024 6.75 L 25.211 6.75 L 25.211 1.995 L 26.024 1.995 Z M 2.861 4.425 A 2.772 2.772 0 0 0 2.908 4.954 Q 2.969 5.264 3.106 5.51 A 1.545 1.545 0 0 0 3.228 5.695 Q 3.595 6.174 4.21 6.174 A 1.269 1.269 0 0 0 4.699 6.083 Q 4.979 5.967 5.181 5.706 A 1.471 1.471 0 0 0 5.194 5.689 A 1.648 1.648 0 0 0 5.449 5.171 Q 5.518 4.945 5.544 4.672 A 3.655 3.655 0 0 0 5.559 4.329 A 2.687 2.687 0 0 0 5.508 3.789 Q 5.44 3.459 5.283 3.2 A 1.586 1.586 0 0 0 5.188 3.061 A 1.231 1.231 0 0 0 4.773 2.705 Q 4.52 2.575 4.201 2.575 Q 3.611 2.575 3.245 3.035 A 1.515 1.515 0 0 0 3.23 3.054 A 1.589 1.589 0 0 0 2.978 3.552 Q 2.908 3.772 2.88 4.039 A 3.676 3.676 0 0 0 2.861 4.425 Z M 35.297 5.449 L 35.297 3.278 A 1.439 1.439 0 0 0 34.996 2.891 Q 34.692 2.62 34.252 2.599 A 1.578 1.578 0 0 0 34.176 2.597 Q 33.584 2.597 33.251 3.056 A 1.51 1.51 0 0 0 33.04 3.484 Q 32.974 3.689 32.943 3.939 A 3.955 3.955 0 0 0 32.915 4.425 Q 32.915 5.229 33.245 5.689 Q 33.574 6.148 34.167 6.148 A 1.32 1.32 0 0 0 34.677 6.054 Q 35.069 5.891 35.297 5.449 Z M 58.03 1.639 L 56.136 4.601 L 58.126 4.601 L 58.126 1.463 L 58.03 1.639 Z M 63.782 5.005 A 1.375 1.375 0 0 0 63.723 4.592 A 1.109 1.109 0 0 0 63.442 4.131 A 1.148 1.148 0 0 0 62.77 3.807 A 1.593 1.593 0 0 0 62.552 3.792 A 1.466 1.466 0 0 0 62.163 3.841 A 1.086 1.086 0 0 0 61.671 4.126 A 1.123 1.123 0 0 0 61.357 4.762 A 1.572 1.572 0 0 0 61.339 5.005 A 1.48 1.48 0 0 0 61.381 5.367 A 1.019 1.019 0 0 0 61.662 5.862 Q 61.968 6.158 62.501 6.173 A 2.053 2.053 0 0 0 62.561 6.174 Q 63.054 6.174 63.364 5.94 A 1.018 1.018 0 0 0 63.457 5.86 A 1.041 1.041 0 0 0 63.756 5.292 A 1.518 1.518 0 0 0 63.782 5.005 Z M 62.561 0.932 A 1.259 1.259 0 0 0 62.208 0.979 A 0.973 0.973 0 0 0 61.785 1.228 Q 61.488 1.525 61.488 2.035 A 1.325 1.325 0 0 0 61.533 2.387 A 0.994 0.994 0 0 0 61.781 2.823 A 0.974 0.974 0 0 0 62.343 3.108 A 1.382 1.382 0 0 0 62.561 3.125 A 1.279 1.279 0 0 0 62.905 3.08 A 0.952 0.952 0 0 0 63.341 2.823 A 1.018 1.018 0 0 0 63.616 2.26 A 1.426 1.426 0 0 0 63.633 2.035 A 1.282 1.282 0 0 0 63.583 1.668 A 1.013 1.013 0 0 0 63.33 1.239 Q 63.026 0.932 62.561 0.932 Z M 48.234 5.418 L 48.234 4.443 L 47.597 4.443 Q 46.103 4.443 46.103 5.317 Q 46.103 5.7 46.358 5.915 A 0.893 0.893 0 0 0 46.771 6.108 A 1.259 1.259 0 0 0 47.013 6.13 A 1.429 1.429 0 0 0 47.738 5.933 A 1.335 1.335 0 0 0 48.033 5.705 A 1.108 1.108 0 0 0 48.234 5.418 Z M 76.641 5.418 L 76.641 4.443 L 76.003 4.443 Q 74.509 4.443 74.509 5.317 Q 74.509 5.7 74.764 5.915 A 0.893 0.893 0 0 0 75.178 6.108 A 1.259 1.259 0 0 0 75.419 6.13 A 1.429 1.429 0 0 0 76.144 5.933 A 1.335 1.335 0 0 0 76.44 5.705 A 1.108 1.108 0 0 0 76.641 5.418 Z M 25.146 0.734 Q 25.146 0.536 25.266 0.4 Q 25.378 0.274 25.59 0.264 A 0.783 0.783 0 0 1 25.625 0.264 Q 25.862 0.264 25.985 0.4 A 0.474 0.474 0 0 1 26.107 0.703 A 0.614 0.614 0 0 1 26.108 0.734 A 0.523 0.523 0 0 1 26.083 0.9 A 0.442 0.442 0 0 1 25.985 1.063 Q 25.872 1.184 25.664 1.194 A 0.803 0.803 0 0 1 25.625 1.195 Q 25.452 1.195 25.341 1.126 A 0.362 0.362 0 0 1 25.266 1.063 A 0.456 0.456 0 0 1 25.148 0.788 A 0.605 0.605 0 0 1 25.146 0.734 Z" vector-effect="non-scaling-stroke"/></g>
</svgversion="1.0" encoding="UTF-8"?>
<svg width="48px" height="48px" viewBox="0 0 48 48" version="1.1" xmlns="http://www.w3.org/2000/svg" xmlns:xlink="http://www.w3.org/1999/xlink">
    <title>Icon-Resource/IoT/Res_IoT_Thing_Car_48_Dark</title>
    <g id="Icon-Resource/IoT/Res_IoT_Thing_Car_48" stroke="none" stroke-width="1" fill="none" fill-rule="evenodd">
        <path transform="translate(12.000000, 8.000000), scale(.65)" d="M37.0351,28.2461 L36.0801,28.2461 C35.6381,26.6351 34.1751,25.4411 32.4261,25.4411 C30.6771,25.4411 29.2141,26.6351 28.7711,28.2461 L20.5961,28.2461 C20.1531,26.6351 18.6901,25.4411 16.9411,25.4411 C15.1921,25.4411 13.7291,26.6351 13.2871,28.2461 L12.6681,28.2461 L12.6681,25.3521 C12.6681,25.1981 12.7721,25.0821 12.8661,25.0741 C12.9381,25.0681 13.0111,25.0551 13.0801,25.0331 L19.3801,23.0651 C19.9311,22.8621 20.3381,22.3891 20.4631,21.8171 L21.7111,18.0271 C21.7301,17.9691 21.7831,17.9411 21.8241,17.9411 L31.2761,17.9411 C31.4311,17.9411 31.5711,18.0261 31.6181,18.1071 L33.9601,23.1781 C34.0951,23.4681 34.3591,23.6771 34.6731,23.7391 C36.3061,24.0651 37.0351,25.0211 37.0351,26.8381 L37.0351,28.2461 Z M30.6211,29.2461 C30.6211,28.2511 31.4311,27.4411 32.4261,27.4411 C33.4211,27.4411 34.2301,28.2511 34.2301,29.2461 C34.2301,30.2411 33.4211,31.0511 32.4261,31.0511 C31.4311,31.0511 30.6211,30.2411 30.6211,29.2461 Z M15.1371,29.2461 C15.1371,28.2511 15.9461,27.4411 16.9411,27.4411 C17.9361,27.4411 18.7461,28.2511 18.7461,29.2461 C18.7461,30.2411 17.9361,31.0511 16.9411,31.0511 C15.9461,31.0511 15.1371,30.2411 15.1371,29.2461 Z M33.4031,17.2081 C32.9751,16.4271 32.1611,15.9411 31.2761,15.9411 L21.8241,15.9411 C20.9071,15.9411 20.0981,16.5281 19.8101,17.4021 L18.5511,21.2301 L12.5721,23.0961 C11.4951,23.2521 10.6681,24.2191 10.6681,25.3521 L10.6681,27.3671 L9.0311,27.3671 L9.0311,29.3671 L10.8091,29.3671 C11.0491,29.8851 11.5661,30.2461 12.1701,30.2461 L13.2871,30.2461 C13.7291,31.8571 15.1921,33.0511 16.9411,33.0511 C18.6901,33.0511 20.1531,31.8571 20.5961,30.2461 L28.7711,30.2461 C29.2141,31.8571 30.6771,33.0511 32.4261,33.0511 C34.1751,33.0511 35.6381,31.8571 36.0801,30.2461 L37.5421,30.2461 C38.3651,30.2461 39.0351,29.5681 39.0351,28.7361 L39.0351,26.8381 C39.0351,24.2741 37.8111,22.5401 35.5731,21.9011 L33.4031,17.2081 Z M39.6711,38.5371 C39.6711,39.1631 39.1611,39.6721 38.5351,39.6721 L9.4101,39.6721 C8.7841,39.6721 8.2751,39.1631 8.2751,38.5371 L8.2751,9.4231 C8.2751,8.7971 8.7841,8.2881 9.4101,8.2881 L38.5361,8.2881 C39.1621,8.2881 39.6711,8.7971 39.6711,9.4231 L39.6711,38.5371 Z M45.9451,14.4261 L45.9451,12.4261 L41.6711,12.4261 L41.6711,9.4231 C41.6711,7.6941 40.2641,6.2881 38.5361,6.2881 L35.5191,6.2881 L35.5191,2.0001 L33.5191,2.0001 L33.5191,6.2881 L30.2461,6.2881 L30.2461,2.0001 L28.2461,2.0001 L28.2461,6.2881 L24.9721,6.2881 L24.9721,2.0001 L22.9721,2.0001 L22.9721,6.2881 L19.6991,6.2881 L19.6991,2.0001 L17.6991,2.0001 L17.6991,6.2881 L14.4261,6.2881 L14.4261,2.0001 L12.4261,2.0001 L12.4261,6.2881 L9.4101,6.2881 C7.6811,6.2881 6.2751,7.6941 6.2751,9.4231 L6.2751,12.4261 L2.0001,12.4261 L2.0001,14.4261 L6.2751,14.4261 L6.2751,17.6991 L2.0001,17.6991 L2.0001,19.6991 L6.2751,19.6991 L6.2751,22.9731 L2.0001,22.9731 L2.0001,24.9731 L6.2751,24.9731 L6.2751,28.2461 L2.0001,28.2461 L2.0001,30.2461 L6.2751,30.2461 L6.2751,33.5191 L2.0001,33.5191 L2.0001,35.5191 L6.2751,35.5191 L6.2751,38.5371 C6.2751,40.2661 7.6811,41.6721 9.4101,41.6721 L12.4261,41.6721 L12.4261,45.9451 L14.4261,45.9451 L14.4261,41.6721 L17.6991,41.6721 L17.6991,45.9451 L19.6991,45.9451 L19.6991,41.6721 L22.9721,41.6721 L22.9721,45.9451 L24.9721,45.9451 L24.9721,41.6721 L28.2461,41.6721 L28.2461,45.9451 L30.2461,45.9451 L30.2461,41.6721 L33.5191,41.6721 L33.5191,45.9451 L35.5191,45.9451 L35.5191,41.6721 L38.5351,41.6721 C40.2641,41.6721 41.6711,40.2661 41.6711,38.5371 L41.6711,35.5191 L45.9451,35.5191 L45.9451,33.5191 L41.6711,33.5191 L41.6711,30.2461 L45.9451,30.2461 L45.9451,28.2461 L41.6711,28.2461 L41.6711,24.9731 L45.9451,24.9731 L45.9451,22.9731 L41.6711,22.9731 L41.6711,19.6991 L45.9451,19.6991 L45.9451,17.6991 L41.6711,17.6991 L41.6711,14.4261 L45.9451,14.4261 Z" id="Amazon-IOT-RESOURCES-IoT-thing-car_Resource-Icon_light-bg" fill="#000000"></path>
    </g><g transform="translate(25, 83)" id="svgGroup" stroke-linecap="round" fill-rule="evenodd" font-size="9pt" stroke="#000" stroke-width="0.25mm" fill="#000" style="stroke:#000;stroke-width:0.25mm;fill:#000"><path d="M 23.12 0.088 L 24.13 4.469 L 24.253 5.313 L 24.434 4.553 L 25.699 0.088 L 26.411 0.088 L 27.646 4.553 L 27.822 5.326 L 27.958 4.465 L 28.951 0.088 L 29.799 0.088 L 28.248 6.486 L 27.479 6.486 L 26.161 1.824 L 26.06 1.336 L 25.958 1.824 L 24.592 6.486 L 23.823 6.486 L 22.276 0.088 L 23.12 0.088 Z M 34.98 1.938 L 34.132 1.938 A 1.466 1.466 0 0 0 34.083 1.546 A 1.066 1.066 0 0 0 33.763 1.026 A 1.211 1.211 0 0 0 33.294 0.77 Q 33.042 0.694 32.722 0.694 A 2.286 2.286 0 0 0 32.342 0.724 Q 32.14 0.758 31.977 0.831 A 1.101 1.101 0 0 0 31.748 0.969 A 0.892 0.892 0 0 0 31.403 1.624 A 1.267 1.267 0 0 0 31.399 1.732 A 0.806 0.806 0 0 0 31.667 2.337 A 1.134 1.134 0 0 0 31.731 2.393 A 1.562 1.562 0 0 0 31.969 2.549 Q 32.299 2.73 32.86 2.887 A 8.228 8.228 0 0 1 33.325 3.032 Q 33.56 3.113 33.754 3.2 A 3.297 3.297 0 0 1 34.108 3.382 A 2.342 2.342 0 0 1 34.447 3.626 Q 34.637 3.792 34.759 3.985 A 1.45 1.45 0 0 1 34.776 4.012 A 1.498 1.498 0 0 1 34.972 4.568 A 1.948 1.948 0 0 1 34.994 4.86 A 1.606 1.606 0 0 1 34.871 5.497 Q 34.726 5.838 34.408 6.09 A 1.886 1.886 0 0 1 34.387 6.106 Q 33.781 6.574 32.766 6.574 A 3.023 3.023 0 0 1 31.625 6.36 A 2.917 2.917 0 0 1 31.535 6.322 A 2.383 2.383 0 0 1 31.057 6.044 A 1.874 1.874 0 0 1 30.654 5.629 A 1.689 1.689 0 0 1 30.344 4.632 L 31.192 4.632 A 1.261 1.261 0 0 0 31.262 5.059 A 1.074 1.074 0 0 0 31.621 5.548 Q 32.005 5.85 32.622 5.881 A 2.87 2.87 0 0 0 32.766 5.884 A 2.628 2.628 0 0 0 33.153 5.858 Q 33.349 5.828 33.508 5.767 A 1.129 1.129 0 0 0 33.79 5.612 Q 34.146 5.339 34.146 4.869 A 1.074 1.074 0 0 0 34.103 4.559 A 0.816 0.816 0 0 0 33.816 4.142 Q 33.486 3.885 32.621 3.634 Q 31.535 3.322 31.041 2.868 Q 30.546 2.413 30.546 1.745 Q 30.546 0.989 31.151 0.494 A 2.121 2.121 0 0 1 32.041 0.071 A 3.087 3.087 0 0 1 32.722 0 A 2.913 2.913 0 0 1 33.382 0.072 A 2.372 2.372 0 0 1 33.897 0.255 A 2.051 2.051 0 0 1 34.428 0.626 A 1.834 1.834 0 0 1 34.697 0.958 A 1.798 1.798 0 0 1 34.98 1.938 Z M 3.74 6.486 L 2.351 3.898 L 0.848 3.898 L 0.848 6.486 L 0 6.486 L 0 0.088 L 2.118 0.088 A 3.809 3.809 0 0 1 2.76 0.138 Q 3.102 0.197 3.376 0.324 A 1.789 1.789 0 0 1 3.781 0.58 A 1.588 1.588 0 0 1 4.307 1.469 A 2.453 2.453 0 0 1 4.364 2.013 A 1.864 1.864 0 0 1 4.273 2.604 A 1.64 1.64 0 0 1 4.041 3.054 A 1.849 1.849 0 0 1 3.382 3.611 A 2.342 2.342 0 0 1 3.142 3.718 L 4.645 6.434 L 4.645 6.486 L 3.74 6.486 Z M 13.724 3.129 L 12.907 3.129 Q 12.907 2.795 12.623 2.553 Q 12.34 2.312 11.909 2.312 Q 11.465 2.312 11.215 2.505 A 0.653 0.653 0 0 0 11.04 2.704 Q 10.967 2.835 10.964 3 A 0.771 0.771 0 0 0 10.964 3.01 A 0.588 0.588 0 0 0 10.994 3.203 A 0.48 0.48 0 0 0 11.197 3.454 A 1.093 1.093 0 0 0 11.348 3.533 Q 11.512 3.605 11.767 3.673 A 6.581 6.581 0 0 0 12.039 3.74 A 6.318 6.318 0 0 1 12.446 3.845 Q 12.783 3.944 13.025 4.065 A 1.901 1.901 0 0 1 13.281 4.218 Q 13.418 4.315 13.516 4.429 A 1.06 1.06 0 0 1 13.586 4.52 A 1.024 1.024 0 0 1 13.748 4.927 A 1.388 1.388 0 0 1 13.768 5.168 Q 13.768 5.805 13.258 6.19 Q 12.776 6.554 12.022 6.573 A 3.337 3.337 0 0 1 11.936 6.574 A 2.746 2.746 0 0 1 11.401 6.525 A 2.124 2.124 0 0 1 10.925 6.372 A 1.771 1.771 0 0 1 10.491 6.094 A 1.54 1.54 0 0 1 10.237 5.807 Q 9.989 5.445 9.989 5.023 L 10.802 5.023 A 0.932 0.932 0 0 0 10.875 5.348 A 0.827 0.827 0 0 0 11.129 5.671 A 1.072 1.072 0 0 0 11.531 5.864 Q 11.686 5.903 11.867 5.91 A 2.013 2.013 0 0 0 11.936 5.911 A 1.863 1.863 0 0 0 12.231 5.889 Q 12.393 5.863 12.524 5.806 A 0.941 0.941 0 0 0 12.676 5.724 A 0.689 0.689 0 0 0 12.841 5.574 A 0.554 0.554 0 0 0 12.955 5.225 A 0.698 0.698 0 0 0 12.919 4.994 A 0.581 0.581 0 0 0 12.707 4.713 A 1.05 1.05 0 0 0 12.538 4.615 Q 12.349 4.524 12.054 4.449 A 5.392 5.392 0 0 0 11.841 4.399 A 6.342 6.342 0 0 1 11.48 4.311 Q 11.11 4.209 10.861 4.083 Q 10.562 3.93 10.392 3.731 A 1.017 1.017 0 0 1 10.325 3.643 Q 10.151 3.388 10.151 3.037 A 1.206 1.206 0 0 1 10.55 2.132 A 1.694 1.694 0 0 1 10.646 2.048 A 1.752 1.752 0 0 1 11.429 1.688 A 2.471 2.471 0 0 1 11.909 1.644 A 2.559 2.559 0 0 1 12.473 1.702 A 1.757 1.757 0 0 1 13.221 2.061 Q 13.724 2.479 13.724 3.129 Z M 21.327 6.486 L 20.716 4.816 L 18.035 4.816 L 17.433 6.486 L 16.563 6.486 L 19.006 0.088 L 19.745 0.088 L 22.192 6.486 L 21.327 6.486 Z M 5.212 4.241 L 5.212 4.091 A 3.17 3.17 0 0 1 5.288 3.382 A 2.581 2.581 0 0 1 5.482 2.828 A 2.191 2.191 0 0 1 5.93 2.202 A 2.033 2.033 0 0 1 6.238 1.958 Q 6.724 1.644 7.291 1.644 A 2.254 2.254 0 0 1 7.904 1.723 A 1.639 1.639 0 0 1 8.732 2.254 Q 9.246 2.865 9.246 4.003 L 9.246 4.342 L 6.025 4.342 A 2.111 2.111 0 0 0 6.096 4.85 A 1.516 1.516 0 0 0 6.436 5.478 A 1.282 1.282 0 0 0 7.37 5.909 A 1.652 1.652 0 0 0 7.436 5.911 A 1.763 1.763 0 0 0 7.764 5.882 Q 7.988 5.839 8.165 5.735 A 1.827 1.827 0 0 0 8.674 5.287 A 2.068 2.068 0 0 0 8.688 5.269 L 9.185 5.656 A 1.926 1.926 0 0 1 7.785 6.547 A 2.749 2.749 0 0 1 7.392 6.574 A 2.394 2.394 0 0 1 6.64 6.461 A 1.974 1.974 0 0 1 5.818 5.939 Q 5.212 5.304 5.212 4.241 Z M 0.848 0.782 L 0.848 3.208 L 2.145 3.208 Q 2.685 3.208 3.035 2.968 A 1.174 1.174 0 0 0 3.144 2.883 A 1.069 1.069 0 0 0 3.51 2.146 A 1.486 1.486 0 0 0 3.516 2.013 Q 3.516 1.47 3.22 1.159 A 1 1 0 0 0 3.162 1.103 Q 2.808 0.787 2.14 0.782 L 0.848 0.782 Z M 19.375 1.129 L 18.29 4.122 L 20.465 4.122 L 19.375 1.129 Z M 6.051 3.674 L 8.433 3.674 L 8.433 3.612 Q 8.407 3.153 8.236 2.848 A 1.13 1.13 0 0 0 8.099 2.652 A 0.983 0.983 0 0 0 7.445 2.32 A 1.39 1.39 0 0 0 7.291 2.312 A 1.106 1.106 0 0 0 6.768 2.435 A 1.14 1.14 0 0 0 6.464 2.67 A 1.417 1.417 0 0 0 6.188 3.116 Q 6.114 3.3 6.074 3.522 A 2.741 2.741 0 0 0 6.051 3.674 Z" vector-effect="non-scaling-stroke"/></g><g transform="translate(25, 93)" id="svgGroup" stroke-linecap="round" fill-rule="evenodd" font-size="9pt" stroke="#000" stroke-width="0.25mm" fill="#000" style="stroke:#000;stroke-width:0.25mm;fill:#000"><path d="M 43.554 4.72 L 44.402 4.72 A 3.016 3.016 0 0 1 44.241 5.416 A 2.099 2.099 0 0 1 43.653 6.286 Q 43.022 6.838 41.977 6.838 A 2.553 2.553 0 0 1 41.107 6.696 A 2.194 2.194 0 0 1 40.159 6.025 A 2.789 2.789 0 0 1 39.598 4.901 Q 39.491 4.484 39.478 3.992 A 5.262 5.262 0 0 1 39.476 3.85 L 39.476 3.234 A 4.251 4.251 0 0 1 39.546 2.445 A 3.229 3.229 0 0 1 39.795 1.666 A 2.539 2.539 0 0 1 40.25 0.99 A 2.26 2.26 0 0 1 40.698 0.626 A 2.415 2.415 0 0 1 41.724 0.281 A 3.027 3.027 0 0 1 42.051 0.264 A 2.962 2.962 0 0 1 42.757 0.343 A 2.065 2.065 0 0 1 43.686 0.833 A 2.16 2.16 0 0 1 44.281 1.795 A 3.086 3.086 0 0 1 44.402 2.408 L 43.554 2.408 Q 43.485 1.929 43.316 1.616 A 1.223 1.223 0 0 0 43.077 1.301 A 1.207 1.207 0 0 0 42.572 1.024 Q 42.385 0.971 42.162 0.961 A 2.396 2.396 0 0 0 42.051 0.958 A 1.753 1.753 0 0 0 41.473 1.049 A 1.463 1.463 0 0 0 40.783 1.556 A 1.989 1.989 0 0 0 40.47 2.175 Q 40.324 2.636 40.324 3.256 L 40.324 3.876 Q 40.324 4.917 40.759 5.533 A 1.38 1.38 0 0 0 41.758 6.135 A 1.814 1.814 0 0 0 41.977 6.148 A 2.497 2.497 0 0 0 42.384 6.117 Q 42.603 6.08 42.779 6.002 A 1.155 1.155 0 0 0 43.055 5.829 Q 43.431 5.511 43.554 4.72 Z M 20.997 0 L 20.997 2.571 A 1.767 1.767 0 0 1 21.663 2.053 A 1.832 1.832 0 0 1 22.403 1.907 A 1.905 1.905 0 0 1 23.037 2.004 Q 23.879 2.3 23.922 3.506 A 3.668 3.668 0 0 1 23.924 3.608 L 23.924 6.75 L 23.111 6.75 L 23.111 3.604 A 1.837 1.837 0 0 0 23.089 3.324 Q 23.038 3.017 22.876 2.843 Q 22.69 2.645 22.336 2.606 A 1.66 1.66 0 0 0 22.157 2.597 A 1.253 1.253 0 0 0 21.743 2.664 A 1.123 1.123 0 0 0 21.463 2.808 A 1.432 1.432 0 0 0 20.997 3.362 L 20.997 6.75 L 20.184 6.75 L 20.184 0 L 20.997 0 Z M 84.757 6.75 L 83.101 4.548 L 82.591 5.08 L 82.591 6.75 L 81.778 6.75 L 81.778 0 L 82.591 0 L 82.591 4.083 L 83.026 3.56 L 84.507 1.995 L 85.496 1.995 L 83.646 3.981 L 85.711 6.75 L 84.757 6.75 Z M 35.332 2.522 L 35.372 1.995 L 36.114 1.995 L 36.114 6.636 A 2.511 2.511 0 0 1 36.044 7.249 A 1.738 1.738 0 0 1 35.567 8.09 A 1.834 1.834 0 0 1 34.637 8.57 A 2.671 2.671 0 0 1 34.097 8.622 A 2.446 2.446 0 0 1 33.091 8.402 A 2.003 2.003 0 0 1 32.681 8.161 A 1.563 1.563 0 0 1 32.339 7.8 L 32.761 7.313 A 1.889 1.889 0 0 0 33.196 7.712 A 1.514 1.514 0 0 0 34.04 7.958 A 1.695 1.695 0 0 0 34.417 7.919 Q 34.685 7.858 34.879 7.702 A 1.037 1.037 0 0 0 34.965 7.625 A 1.09 1.09 0 0 0 35.242 7.132 Q 35.289 6.959 35.296 6.752 A 2.134 2.134 0 0 0 35.297 6.684 L 35.297 6.275 A 1.601 1.601 0 0 1 34.245 6.821 A 2.279 2.279 0 0 1 33.965 6.838 A 1.672 1.672 0 0 1 33.21 6.67 Q 32.888 6.51 32.638 6.197 A 2.14 2.14 0 0 1 32.614 6.166 A 2.316 2.316 0 0 1 32.231 5.386 Q 32.098 4.922 32.098 4.333 Q 32.098 3.472 32.406 2.884 A 2.096 2.096 0 0 1 32.612 2.564 Q 33.126 1.907 33.974 1.907 A 1.971 1.971 0 0 1 34.573 1.994 A 1.55 1.55 0 0 1 35.332 2.522 Z M 27.325 1.995 L 28.094 1.995 L 28.121 2.593 Q 28.657 1.918 29.517 1.907 A 2.234 2.234 0 0 1 29.544 1.907 A 1.905 1.905 0 0 1 30.178 2.004 Q 31.02 2.3 31.063 3.506 A 3.668 3.668 0 0 1 31.065 3.608 L 31.065 6.75 L 30.252 6.75 L 30.252 3.604 A 1.837 1.837 0 0 0 30.23 3.324 Q 30.18 3.017 30.017 2.843 Q 29.831 2.645 29.477 2.606 A 1.66 1.66 0 0 0 29.298 2.597 A 1.253 1.253 0 0 0 28.884 2.664 A 1.123 1.123 0 0 0 28.604 2.808 A 1.432 1.432 0 0 0 28.138 3.362 L 28.138 6.75 L 27.325 6.75 L 27.325 1.995 Z M 11.94 0.352 L 11.94 1.046 L 9.883 1.046 L 9.883 6.75 L 9.044 6.75 L 9.044 1.046 L 6.992 1.046 L 6.992 0.352 L 11.94 0.352 Z M 19.362 0.352 L 19.362 1.046 L 17.306 1.046 L 17.306 6.75 L 16.466 6.75 L 16.466 1.046 L 14.414 1.046 L 14.414 0.352 L 19.362 0.352 Z M 49.214 6.75 L 48.362 6.75 A 0.632 0.632 0 0 1 48.326 6.66 Q 48.295 6.562 48.27 6.41 A 3.997 3.997 0 0 1 48.248 6.249 Q 47.681 6.838 46.894 6.838 A 2.033 2.033 0 0 1 46.365 6.772 A 1.529 1.529 0 0 1 45.74 6.44 Q 45.29 6.042 45.29 5.432 Q 45.29 4.689 45.855 4.278 Q 46.419 3.867 47.443 3.867 L 48.234 3.867 L 48.234 3.494 A 1.152 1.152 0 0 0 48.199 3.199 A 0.828 0.828 0 0 0 47.979 2.815 Q 47.763 2.6 47.373 2.568 A 1.748 1.748 0 0 0 47.228 2.562 Q 46.793 2.562 46.499 2.782 Q 46.204 3.001 46.204 3.313 L 45.387 3.313 A 1.041 1.041 0 0 1 45.512 2.825 A 1.409 1.409 0 0 1 45.639 2.626 Q 45.892 2.294 46.325 2.101 A 2.249 2.249 0 0 1 47.101 1.913 A 2.669 2.669 0 0 1 47.276 1.907 A 2.65 2.65 0 0 1 47.794 1.955 Q 48.101 2.016 48.34 2.156 A 1.439 1.439 0 0 1 48.564 2.318 A 1.396 1.396 0 0 1 49.017 3.144 A 1.998 1.998 0 0 1 49.047 3.45 L 49.047 5.638 Q 49.047 6.073 49.121 6.39 A 1.707 1.707 0 0 0 49.214 6.68 L 49.214 6.75 Z M 77.621 6.75 L 76.768 6.75 A 0.632 0.632 0 0 1 76.733 6.66 Q 76.701 6.562 76.677 6.41 A 3.997 3.997 0 0 1 76.654 6.249 Q 76.087 6.838 75.3 6.838 A 2.033 2.033 0 0 1 74.771 6.772 A 1.529 1.529 0 0 1 74.147 6.44 Q 73.696 6.042 73.696 5.432 Q 73.696 4.689 74.261 4.278 Q 74.826 3.867 75.85 3.867 L 76.641 3.867 L 76.641 3.494 A 1.152 1.152 0 0 0 76.605 3.199 A 0.828 0.828 0 0 0 76.386 2.815 Q 76.169 2.6 75.779 2.568 A 1.748 1.748 0 0 0 75.634 2.562 Q 75.199 2.562 74.905 2.782 Q 74.61 3.001 74.61 3.313 L 73.793 3.313 A 1.041 1.041 0 0 1 73.918 2.825 A 1.409 1.409 0 0 1 74.046 2.626 Q 74.298 2.294 74.731 2.101 A 2.249 2.249 0 0 1 75.507 1.913 A 2.669 2.669 0 0 1 75.683 1.907 A 2.65 2.65 0 0 1 76.2 1.955 Q 76.507 2.016 76.746 2.156 A 1.439 1.439 0 0 1 76.97 2.318 A 1.396 1.396 0 0 1 77.424 3.144 A 1.998 1.998 0 0 1 77.454 3.45 L 77.454 5.638 Q 77.454 6.073 77.527 6.39 A 1.707 1.707 0 0 0 77.621 6.68 L 77.621 6.75 Z M 58.944 0.352 L 58.944 4.601 L 59.832 4.601 L 59.832 5.265 L 58.944 5.265 L 58.944 6.75 L 58.126 6.75 L 58.126 5.265 L 55.213 5.265 L 55.213 4.786 L 58.078 0.352 L 58.944 0.352 Z M 69.829 6.75 L 68.058 6.75 L 68.058 0.352 L 69.864 0.352 Q 70.699 0.352 71.341 0.721 Q 71.982 1.09 72.332 1.771 A 3.19 3.19 0 0 1 72.649 2.8 A 4.073 4.073 0 0 1 72.686 3.335 L 72.686 3.744 Q 72.686 4.649 72.336 5.331 A 2.457 2.457 0 0 1 71.339 6.376 Q 70.69 6.741 69.829 6.75 Z M 64.342 2.592 A 1.544 1.544 0 0 0 64.446 2.021 A 2.226 2.226 0 0 0 64.424 1.707 A 1.566 1.566 0 0 0 63.925 0.738 A 1.754 1.754 0 0 0 63.159 0.333 A 2.443 2.443 0 0 0 62.561 0.264 A 2.539 2.539 0 0 0 62.051 0.312 A 1.767 1.767 0 0 0 61.194 0.738 Q 60.675 1.213 60.675 2.021 A 1.808 1.808 0 0 0 60.676 2.058 A 1.499 1.499 0 0 0 60.921 2.87 A 1.626 1.626 0 0 0 61.083 3.077 A 1.726 1.726 0 0 0 61.594 3.454 A 2.119 2.119 0 0 0 61.494 3.5 A 1.738 1.738 0 0 0 60.809 4.087 A 1.629 1.629 0 0 0 60.526 5.023 A 2.272 2.272 0 0 0 60.536 5.237 A 1.63 1.63 0 0 0 61.082 6.344 A 1.895 1.895 0 0 0 61.932 6.771 A 2.797 2.797 0 0 0 62.561 6.838 A 2.796 2.796 0 0 0 63.16 6.777 A 1.925 1.925 0 0 0 64.035 6.346 A 1.578 1.578 0 0 0 64.51 5.62 A 1.989 1.989 0 0 0 64.595 5.023 A 1.581 1.581 0 0 0 64.303 4.087 Q 64.011 3.674 63.51 3.458 Q 63.94 3.248 64.193 2.874 A 1.449 1.449 0 0 0 64.342 2.592 Z M 2.043 4.386 L 2.043 4.329 A 3.057 3.057 0 0 1 2.13 3.587 A 2.573 2.573 0 0 1 2.318 3.072 A 2.16 2.16 0 0 1 2.733 2.486 A 1.957 1.957 0 0 1 3.083 2.21 A 2.036 2.036 0 0 1 4.027 1.913 A 2.491 2.491 0 0 1 4.201 1.907 A 2.277 2.277 0 0 1 4.955 2.027 A 1.937 1.937 0 0 1 5.772 2.58 A 2.29 2.29 0 0 1 6.291 3.608 A 3.373 3.373 0 0 1 6.372 4.368 L 6.372 4.425 A 3.114 3.114 0 0 1 6.293 5.142 A 2.577 2.577 0 0 1 6.106 5.671 A 2.056 2.056 0 0 1 5.579 6.361 A 2.001 2.001 0 0 1 5.346 6.53 A 2.045 2.045 0 0 1 4.426 6.829 A 2.529 2.529 0 0 1 4.21 6.838 A 2.262 2.262 0 0 1 3.46 6.718 A 1.938 1.938 0 0 1 2.643 6.166 A 2.297 2.297 0 0 1 2.118 5.111 A 3.357 3.357 0 0 1 2.043 4.386 Z M 52.62 1.969 L 52.62 2.725 A 2.251 2.251 0 0 0 52.377 2.698 A 2.782 2.782 0 0 0 52.22 2.694 Q 51.442 2.694 51.151 3.338 A 1.445 1.445 0 0 0 51.135 3.375 L 51.135 6.75 L 50.322 6.75 L 50.322 1.995 L 51.113 1.995 L 51.126 2.544 Q 51.506 1.938 52.189 1.909 A 1.636 1.636 0 0 1 52.26 1.907 Q 52.497 1.907 52.62 1.969 Z M 81.026 1.969 L 81.026 2.725 A 2.251 2.251 0 0 0 80.784 2.698 A 2.782 2.782 0 0 0 80.626 2.694 Q 79.849 2.694 79.557 3.338 A 1.445 1.445 0 0 0 79.541 3.375 L 79.541 6.75 L 78.728 6.75 L 78.728 1.995 L 79.519 1.995 L 79.532 2.544 Q 79.913 1.938 80.595 1.909 A 1.636 1.636 0 0 1 80.666 1.907 Q 80.903 1.907 81.026 1.969 Z M 0.844 0.352 L 0.844 6.75 L 0 6.75 L 0 0.352 L 0.844 0.352 Z M 69.886 1.046 L 68.902 1.046 L 68.902 6.06 L 69.79 6.06 A 2.519 2.519 0 0 0 70.422 5.985 A 1.747 1.747 0 0 0 71.308 5.454 Q 71.767 4.94 71.838 4.059 A 4.165 4.165 0 0 0 71.851 3.727 L 71.851 3.353 Q 71.851 2.562 71.581 2.027 A 1.864 1.864 0 0 0 71.339 1.659 A 1.687 1.687 0 0 0 70.343 1.09 A 2.499 2.499 0 0 0 69.886 1.046 Z M 26.024 1.995 L 26.024 6.75 L 25.211 6.75 L 25.211 1.995 L 26.024 1.995 Z M 2.861 4.425 A 2.772 2.772 0 0 0 2.908 4.954 Q 2.969 5.264 3.106 5.51 A 1.545 1.545 0 0 0 3.228 5.695 Q 3.595 6.174 4.21 6.174 A 1.269 1.269 0 0 0 4.699 6.083 Q 4.979 5.967 5.181 5.706 A 1.471 1.471 0 0 0 5.194 5.689 A 1.648 1.648 0 0 0 5.449 5.171 Q 5.518 4.945 5.544 4.672 A 3.655 3.655 0 0 0 5.559 4.329 A 2.687 2.687 0 0 0 5.508 3.789 Q 5.44 3.459 5.283 3.2 A 1.586 1.586 0 0 0 5.188 3.061 A 1.231 1.231 0 0 0 4.773 2.705 Q 4.52 2.575 4.201 2.575 Q 3.611 2.575 3.245 3.035 A 1.515 1.515 0 0 0 3.23 3.054 A 1.589 1.589 0 0 0 2.978 3.552 Q 2.908 3.772 2.88 4.039 A 3.676 3.676 0 0 0 2.861 4.425 Z M 35.297 5.449 L 35.297 3.278 A 1.439 1.439 0 0 0 34.996 2.891 Q 34.692 2.62 34.252 2.599 A 1.578 1.578 0 0 0 34.176 2.597 Q 33.584 2.597 33.251 3.056 A 1.51 1.51 0 0 0 33.04 3.484 Q 32.974 3.689 32.943 3.939 A 3.955 3.955 0 0 0 32.915 4.425 Q 32.915 5.229 33.245 5.689 Q 33.574 6.148 34.167 6.148 A 1.32 1.32 0 0 0 34.677 6.054 Q 35.069 5.891 35.297 5.449 Z M 58.03 1.639 L 56.136 4.601 L 58.126 4.601 L 58.126 1.463 L 58.03 1.639 Z M 63.782 5.005 A 1.375 1.375 0 0 0 63.723 4.592 A 1.109 1.109 0 0 0 63.442 4.131 A 1.148 1.148 0 0 0 62.77 3.807 A 1.593 1.593 0 0 0 62.552 3.792 A 1.466 1.466 0 0 0 62.163 3.841 A 1.086 1.086 0 0 0 61.671 4.126 A 1.123 1.123 0 0 0 61.357 4.762 A 1.572 1.572 0 0 0 61.339 5.005 A 1.48 1.48 0 0 0 61.381 5.367 A 1.019 1.019 0 0 0 61.662 5.862 Q 61.968 6.158 62.501 6.173 A 2.053 2.053 0 0 0 62.561 6.174 Q 63.054 6.174 63.364 5.94 A 1.018 1.018 0 0 0 63.457 5.86 A 1.041 1.041 0 0 0 63.756 5.292 A 1.518 1.518 0 0 0 63.782 5.005 Z M 62.561 0.932 A 1.259 1.259 0 0 0 62.208 0.979 A 0.973 0.973 0 0 0 61.785 1.228 Q 61.488 1.525 61.488 2.035 A 1.325 1.325 0 0 0 61.533 2.387 A 0.994 0.994 0 0 0 61.781 2.823 A 0.974 0.974 0 0 0 62.343 3.108 A 1.382 1.382 0 0 0 62.561 3.125 A 1.279 1.279 0 0 0 62.905 3.08 A 0.952 0.952 0 0 0 63.341 2.823 A 1.018 1.018 0 0 0 63.616 2.26 A 1.426 1.426 0 0 0 63.633 2.035 A 1.282 1.282 0 0 0 63.583 1.668 A 1.013 1.013 0 0 0 63.33 1.239 Q 63.026 0.932 62.561 0.932 Z M 48.234 5.418 L 48.234 4.443 L 47.597 4.443 Q 46.103 4.443 46.103 5.317 Q 46.103 5.7 46.358 5.915 A 0.893 0.893 0 0 0 46.771 6.108 A 1.259 1.259 0 0 0 47.013 6.13 A 1.429 1.429 0 0 0 47.738 5.933 A 1.335 1.335 0 0 0 48.033 5.705 A 1.108 1.108 0 0 0 48.234 5.418 Z M 76.641 5.418 L 76.641 4.443 L 76.003 4.443 Q 74.509 4.443 74.509 5.317 Q 74.509 5.7 74.764 5.915 A 0.893 0.893 0 0 0 75.178 6.108 A 1.259 1.259 0 0 0 75.419 6.13 A 1.429 1.429 0 0 0 76.144 5.933 A 1.335 1.335 0 0 0 76.44 5.705 A 1.108 1.108 0 0 0 76.641 5.418 Z M 25.146 0.734 Q 25.146 0.536 25.266 0.4 Q 25.378 0.274 25.59 0.264 A 0.783 0.783 0 0 1 25.625 0.264 Q 25.862 0.264 25.985 0.4 A 0.474 0.474 0 0 1 26.107 0.703 A 0.614 0.614 0 0 1 26.108 0.734 A 0.523 0.523 0 0 1 26.083 0.9 A 0.442 0.442 0 0 1 25.985 1.063 Q 25.872 1.184 25.664 1.194 A 0.803 0.803 0 0 1 25.625 1.195 Q 25.452 1.195 25.341 1.126 A 0.362 0.362 0 0 1 25.266 1.063 A 0.456 0.456 0 0 1 25.148 0.788 A 0.605 0.605 0 0 1 25.146 0.734 Z" vector-effect="non-scaling-stroke"/></g>
</svg>