<?xml version="1.0" encoding="UTF-8"?>
<svg width="90px" height="90px" viewBox="0 0 90 90" version="1.1" xmlns="http://www.w3.org/2000/svg" xmlns:xlink="http://www.w3.org/1999/xlink">
    <title>Icon-Architecture-Category/64/End-User-Computing_64</title>
    
    <g id="Icon-Architecture-Category/64/End-User-Computing_64" stroke="none" stroke-width="1" fill="none" fill-rule="evenodd">
        <rect id="Rectangle" x="5" y="5" width="80" height="80"></rect>
        <rect id="#879196-Border-Copy-10" stroke="#879196" stroke-width="2" x="1" y="1" width="88" height="88"></rect>
        
    </g><g transform="translate(0.0, 64), scale(0.75)" id="svgGroup" stroke-linecap="round" fill-rule="evenodd" font-size="9pt" stroke="#000" stroke-width="0.25mm" fill="#000" style="stroke:#000;stroke-width:0.25mm;fill:#000"><path d="M 48.762 1.995 L 49.531 1.995 L 49.553 2.522 Q 50.076 1.907 50.963 1.907 A 2.009 2.009 0 0 1 51.474 1.968 A 1.244 1.244 0 0 1 52.321 2.672 A 1.801 1.801 0 0 1 52.939 2.118 A 1.65 1.65 0 0 1 53.468 1.937 A 2.209 2.209 0 0 1 53.837 1.907 A 2.119 2.119 0 0 1 54.482 1.997 Q 55.408 2.292 55.428 3.564 L 55.428 6.75 L 54.615 6.75 L 54.615 3.612 A 1.781 1.781 0 0 0 54.595 3.332 Q 54.571 3.185 54.521 3.067 A 0.758 0.758 0 0 0 54.382 2.85 A 0.68 0.68 0 0 0 54.129 2.682 Q 53.918 2.597 53.601 2.597 A 1.245 1.245 0 0 0 53.235 2.648 A 1.008 1.008 0 0 0 52.849 2.867 A 1.042 1.042 0 0 0 52.535 3.404 A 1.41 1.41 0 0 0 52.501 3.595 L 52.501 6.75 L 51.684 6.75 L 51.684 3.634 A 1.532 1.532 0 0 0 51.636 3.23 Q 51.509 2.768 51.051 2.643 A 1.457 1.457 0 0 0 50.669 2.597 Q 49.895 2.597 49.595 3.234 A 1.459 1.459 0 0 0 49.575 3.278 L 49.575 6.75 L 48.762 6.75 L 48.762 1.995 Z M 3.617 3.103 L 3.617 3.792 L 0.844 3.792 L 0.844 6.06 L 4.065 6.06 L 4.065 6.75 L 0 6.75 L 0 0.352 L 4.021 0.352 L 4.021 1.046 L 0.844 1.046 L 0.844 3.103 L 3.617 3.103 Z M 21.041 0.352 L 21.889 0.352 L 21.889 4.702 Q 21.885 5.607 21.32 6.183 A 2.088 2.088 0 0 1 20.367 6.732 A 2.969 2.969 0 0 1 19.789 6.829 L 19.564 6.838 Q 18.514 6.838 17.89 6.271 A 1.887 1.887 0 0 1 17.3 5.181 A 2.738 2.738 0 0 1 17.257 4.711 L 17.257 0.352 L 18.092 0.352 L 18.092 4.685 A 2.025 2.025 0 0 0 18.136 5.121 Q 18.222 5.51 18.475 5.763 A 1.238 1.238 0 0 0 19.025 6.08 Q 19.221 6.135 19.455 6.146 A 2.466 2.466 0 0 0 19.564 6.148 A 2.145 2.145 0 0 0 19.996 6.107 Q 20.251 6.055 20.447 5.934 A 1.145 1.145 0 0 0 20.661 5.766 A 1.247 1.247 0 0 0 20.978 5.202 Q 21.041 4.971 21.041 4.689 L 21.041 0.352 Z M 41.761 4.72 L 42.609 4.72 A 3.016 3.016 0 0 1 42.448 5.416 A 2.099 2.099 0 0 1 41.86 6.286 Q 41.229 6.838 40.184 6.838 A 2.553 2.553 0 0 1 39.315 6.696 A 2.194 2.194 0 0 1 38.366 6.025 A 2.789 2.789 0 0 1 37.805 4.901 Q 37.698 4.484 37.685 3.992 A 5.262 5.262 0 0 1 37.683 3.85 L 37.683 3.234 A 4.251 4.251 0 0 1 37.753 2.445 A 3.229 3.229 0 0 1 38.002 1.666 A 2.539 2.539 0 0 1 38.457 0.99 A 2.26 2.26 0 0 1 38.905 0.626 A 2.415 2.415 0 0 1 39.931 0.281 A 3.027 3.027 0 0 1 40.258 0.264 A 2.962 2.962 0 0 1 40.964 0.343 A 2.065 2.065 0 0 1 41.893 0.833 A 2.16 2.16 0 0 1 42.488 1.795 A 3.086 3.086 0 0 1 42.609 2.408 L 41.761 2.408 Q 41.692 1.929 41.523 1.616 A 1.223 1.223 0 0 0 41.284 1.301 A 1.207 1.207 0 0 0 40.779 1.024 Q 40.592 0.971 40.369 0.961 A 2.396 2.396 0 0 0 40.258 0.958 A 1.753 1.753 0 0 0 39.68 1.049 A 1.463 1.463 0 0 0 38.99 1.556 A 1.989 1.989 0 0 0 38.677 2.175 Q 38.531 2.636 38.531 3.256 L 38.531 3.876 Q 38.531 4.917 38.966 5.533 A 1.38 1.38 0 0 0 39.965 6.135 A 1.814 1.814 0 0 0 40.184 6.148 A 2.497 2.497 0 0 0 40.591 6.117 Q 40.811 6.08 40.986 6.002 A 1.155 1.155 0 0 0 41.262 5.829 Q 41.638 5.511 41.761 4.72 Z M 79.796 2.522 L 79.835 1.995 L 80.578 1.995 L 80.578 6.636 A 2.511 2.511 0 0 1 80.507 7.249 A 1.738 1.738 0 0 1 80.031 8.09 A 1.834 1.834 0 0 1 79.101 8.57 A 2.671 2.671 0 0 1 78.561 8.622 A 2.446 2.446 0 0 1 77.555 8.402 A 2.003 2.003 0 0 1 77.144 8.161 A 1.563 1.563 0 0 1 76.803 7.8 L 77.225 7.313 A 1.889 1.889 0 0 0 77.66 7.712 A 1.514 1.514 0 0 0 78.504 7.958 A 1.695 1.695 0 0 0 78.881 7.919 Q 79.149 7.858 79.343 7.702 A 1.037 1.037 0 0 0 79.429 7.625 A 1.09 1.09 0 0 0 79.706 7.132 Q 79.753 6.959 79.76 6.752 A 2.134 2.134 0 0 0 79.761 6.684 L 79.761 6.275 A 1.601 1.601 0 0 1 78.709 6.821 A 2.279 2.279 0 0 1 78.429 6.838 A 1.672 1.672 0 0 1 77.674 6.67 Q 77.352 6.51 77.102 6.197 A 2.14 2.14 0 0 1 77.078 6.166 A 2.316 2.316 0 0 1 76.695 5.386 Q 76.562 4.922 76.562 4.333 Q 76.562 3.472 76.87 2.884 A 2.096 2.096 0 0 1 77.076 2.564 Q 77.59 1.907 78.438 1.907 A 1.971 1.971 0 0 1 79.037 1.994 A 1.55 1.55 0 0 1 79.796 2.522 Z M 26.631 3.393 L 25.813 3.393 Q 25.813 3.059 25.53 2.817 Q 25.247 2.575 24.816 2.575 Q 24.372 2.575 24.122 2.769 A 0.653 0.653 0 0 0 23.947 2.967 Q 23.873 3.098 23.871 3.263 A 0.771 0.771 0 0 0 23.871 3.274 A 0.588 0.588 0 0 0 23.901 3.467 A 0.48 0.48 0 0 0 24.104 3.718 A 1.093 1.093 0 0 0 24.254 3.796 Q 24.418 3.868 24.674 3.937 A 6.581 6.581 0 0 0 24.946 4.003 A 6.318 6.318 0 0 1 25.353 4.108 Q 25.69 4.208 25.932 4.329 A 1.901 1.901 0 0 1 26.188 4.481 Q 26.325 4.579 26.422 4.692 A 1.06 1.06 0 0 1 26.492 4.783 A 1.024 1.024 0 0 1 26.655 5.191 A 1.388 1.388 0 0 1 26.675 5.432 Q 26.675 6.069 26.165 6.453 Q 25.683 6.817 24.929 6.837 A 3.337 3.337 0 0 1 24.842 6.838 A 2.746 2.746 0 0 1 24.308 6.788 A 2.124 2.124 0 0 1 23.832 6.636 A 1.771 1.771 0 0 1 23.398 6.358 A 1.54 1.54 0 0 1 23.144 6.071 Q 22.896 5.708 22.896 5.287 L 23.708 5.287 A 0.932 0.932 0 0 0 23.782 5.612 A 0.827 0.827 0 0 0 24.036 5.935 A 1.072 1.072 0 0 0 24.438 6.128 Q 24.593 6.167 24.774 6.173 A 2.013 2.013 0 0 0 24.842 6.174 A 1.863 1.863 0 0 0 25.138 6.152 Q 25.299 6.126 25.431 6.07 A 0.941 0.941 0 0 0 25.583 5.988 A 0.689 0.689 0 0 0 25.747 5.837 A 0.554 0.554 0 0 0 25.862 5.489 A 0.698 0.698 0 0 0 25.825 5.258 A 0.581 0.581 0 0 0 25.614 4.977 A 1.05 1.05 0 0 0 25.445 4.878 Q 25.256 4.788 24.961 4.712 A 5.392 5.392 0 0 0 24.748 4.663 A 6.342 6.342 0 0 1 24.387 4.575 Q 24.017 4.473 23.768 4.346 Q 23.469 4.194 23.299 3.994 A 1.017 1.017 0 0 1 23.232 3.907 Q 23.058 3.652 23.058 3.3 A 1.206 1.206 0 0 1 23.457 2.396 A 1.694 1.694 0 0 1 23.552 2.312 A 1.752 1.752 0 0 1 24.336 1.952 A 2.471 2.471 0 0 1 24.816 1.907 A 2.559 2.559 0 0 1 25.379 1.966 A 1.757 1.757 0 0 1 26.128 2.325 Q 26.631 2.742 26.631 3.393 Z M 4.988 1.995 L 5.757 1.995 L 5.783 2.593 Q 6.32 1.918 7.179 1.907 A 2.234 2.234 0 0 1 7.207 1.907 A 1.905 1.905 0 0 1 7.841 2.004 Q 8.682 2.3 8.725 3.506 A 3.668 3.668 0 0 1 8.728 3.608 L 8.728 6.75 L 7.915 6.75 L 7.915 3.604 A 1.837 1.837 0 0 0 7.892 3.324 Q 7.842 3.017 7.679 2.843 Q 7.493 2.645 7.14 2.606 A 1.66 1.66 0 0 0 6.961 2.597 A 1.253 1.253 0 0 0 6.547 2.664 A 1.123 1.123 0 0 0 6.267 2.808 A 1.432 1.432 0 0 0 5.801 3.362 L 5.801 6.75 L 4.988 6.75 L 4.988 1.995 Z M 71.789 1.995 L 72.558 1.995 L 72.584 2.593 Q 73.121 1.918 73.981 1.907 A 2.234 2.234 0 0 1 74.008 1.907 A 1.905 1.905 0 0 1 74.642 2.004 Q 75.484 2.3 75.527 3.506 A 3.668 3.668 0 0 1 75.529 3.608 L 75.529 6.75 L 74.716 6.75 L 74.716 3.604 A 1.837 1.837 0 0 0 74.694 3.324 Q 74.643 3.017 74.481 2.843 Q 74.295 2.645 73.941 2.606 A 1.66 1.66 0 0 0 73.762 2.597 A 1.253 1.253 0 0 0 73.348 2.664 A 1.123 1.123 0 0 0 73.068 2.808 A 1.432 1.432 0 0 0 72.602 3.362 L 72.602 6.75 L 71.789 6.75 L 71.789 1.995 Z M 64.657 6.75 L 64.639 6.28 A 1.526 1.526 0 0 1 63.813 6.775 Q 63.563 6.836 63.265 6.838 A 2.996 2.996 0 0 1 63.246 6.838 A 2.086 2.086 0 0 1 62.786 6.79 Q 62.355 6.693 62.088 6.396 A 1.41 1.41 0 0 1 61.805 5.899 Q 61.688 5.556 61.686 5.089 L 61.686 1.995 L 62.499 1.995 L 62.499 5.067 Q 62.499 6.037 63.207 6.137 A 1.229 1.229 0 0 0 63.378 6.148 A 1.927 1.927 0 0 0 63.829 6.099 Q 64.391 5.964 64.617 5.454 L 64.617 1.995 L 65.43 1.995 L 65.43 6.75 L 64.657 6.75 Z M 9.756 4.395 L 9.756 4.333 A 3.762 3.762 0 0 1 9.823 3.602 Q 9.911 3.16 10.113 2.812 A 2.148 2.148 0 0 1 10.274 2.573 Q 10.793 1.907 11.632 1.907 A 1.964 1.964 0 0 1 12.23 1.994 A 1.559 1.559 0 0 1 12.955 2.479 L 12.955 0 L 13.768 0 L 13.768 6.75 L 13.021 6.75 L 12.981 6.24 Q 12.494 6.838 11.624 6.838 A 1.6 1.6 0 0 1 10.403 6.31 A 2.078 2.078 0 0 1 10.277 6.161 A 2.405 2.405 0 0 1 9.852 5.255 Q 9.768 4.912 9.757 4.51 A 4.425 4.425 0 0 1 9.756 4.395 Z M 60.671 4.351 L 60.671 4.425 Q 60.671 5.511 60.174 6.174 A 1.57 1.57 0 0 1 59.036 6.828 A 2.013 2.013 0 0 1 58.83 6.838 A 2.196 2.196 0 0 1 58.244 6.764 A 1.598 1.598 0 0 1 57.467 6.289 L 57.467 8.578 L 56.654 8.578 L 56.654 1.995 L 57.397 1.995 L 57.437 2.522 A 1.619 1.619 0 0 1 58.576 1.919 A 2.319 2.319 0 0 1 58.816 1.907 A 1.829 1.829 0 0 1 59.454 2.014 A 1.597 1.597 0 0 1 60.172 2.553 Q 60.671 3.199 60.671 4.351 Z M 27.527 4.504 L 27.527 4.355 A 3.17 3.17 0 0 1 27.604 3.646 A 2.581 2.581 0 0 1 27.798 3.092 A 2.191 2.191 0 0 1 28.245 2.466 A 2.033 2.033 0 0 1 28.553 2.221 Q 29.039 1.907 29.606 1.907 A 2.254 2.254 0 0 1 30.219 1.986 A 1.639 1.639 0 0 1 31.047 2.518 Q 31.562 3.129 31.562 4.267 L 31.562 4.605 L 28.34 4.605 A 2.111 2.111 0 0 0 28.411 5.114 A 1.516 1.516 0 0 0 28.751 5.741 A 1.282 1.282 0 0 0 29.685 6.173 A 1.652 1.652 0 0 0 29.751 6.174 A 1.763 1.763 0 0 0 30.079 6.145 Q 30.303 6.103 30.48 5.999 A 1.827 1.827 0 0 0 30.989 5.551 A 2.068 2.068 0 0 0 31.003 5.533 L 31.5 5.919 A 1.926 1.926 0 0 1 30.1 6.811 A 2.749 2.749 0 0 1 29.707 6.838 A 2.394 2.394 0 0 1 28.956 6.725 A 1.974 1.974 0 0 1 28.134 6.203 Q 27.527 5.568 27.527 4.504 Z M 66.955 0.844 L 67.768 0.844 L 67.768 1.995 L 68.656 1.995 L 68.656 2.624 L 67.768 2.624 L 67.768 5.572 Q 67.768 5.858 67.887 6.001 Q 68.005 6.144 68.291 6.144 A 1.046 1.046 0 0 0 68.389 6.138 Q 68.491 6.129 68.631 6.101 A 4.024 4.024 0 0 0 68.678 6.091 L 68.678 6.75 A 2.463 2.463 0 0 1 68.245 6.829 A 2.157 2.157 0 0 1 68.054 6.838 Q 67.607 6.838 67.34 6.616 A 0.856 0.856 0 0 1 67.232 6.508 Q 67.005 6.238 66.964 5.78 A 2.351 2.351 0 0 1 66.955 5.572 L 66.955 2.624 L 66.089 2.624 L 66.089 1.995 L 66.955 1.995 L 66.955 0.844 Z M 43.418 4.386 L 43.418 4.329 A 3.057 3.057 0 0 1 43.505 3.587 A 2.573 2.573 0 0 1 43.693 3.072 A 2.16 2.16 0 0 1 44.107 2.486 A 1.957 1.957 0 0 1 44.457 2.21 A 2.036 2.036 0 0 1 45.402 1.913 A 2.491 2.491 0 0 1 45.576 1.907 A 2.277 2.277 0 0 1 46.329 2.027 A 1.937 1.937 0 0 1 47.147 2.58 A 2.29 2.29 0 0 1 47.666 3.608 A 3.373 3.373 0 0 1 47.747 4.368 L 47.747 4.425 A 3.114 3.114 0 0 1 47.667 5.142 A 2.577 2.577 0 0 1 47.481 5.671 A 2.056 2.056 0 0 1 46.953 6.361 A 2.001 2.001 0 0 1 46.72 6.53 A 2.045 2.045 0 0 1 45.801 6.829 A 2.529 2.529 0 0 1 45.584 6.838 A 2.262 2.262 0 0 1 44.834 6.718 A 1.938 1.938 0 0 1 44.018 6.166 A 2.297 2.297 0 0 1 43.492 5.111 A 3.357 3.357 0 0 1 43.418 4.386 Z M 34.8 1.969 L 34.8 2.725 A 2.251 2.251 0 0 0 34.558 2.698 A 2.782 2.782 0 0 0 34.4 2.694 Q 33.623 2.694 33.331 3.338 A 1.445 1.445 0 0 0 33.315 3.375 L 33.315 6.75 L 32.502 6.75 L 32.502 1.995 L 33.293 1.995 L 33.306 2.544 Q 33.687 1.938 34.369 1.909 A 1.636 1.636 0 0 1 34.44 1.907 Q 34.677 1.907 34.8 1.969 Z M 70.488 1.995 L 70.488 6.75 L 69.675 6.75 L 69.675 1.995 L 70.488 1.995 Z M 44.235 4.425 A 2.772 2.772 0 0 0 44.283 4.954 Q 44.343 5.264 44.48 5.51 A 1.545 1.545 0 0 0 44.602 5.695 Q 44.969 6.174 45.584 6.174 A 1.269 1.269 0 0 0 46.074 6.083 Q 46.353 5.967 46.556 5.706 A 1.471 1.471 0 0 0 46.569 5.689 A 1.648 1.648 0 0 0 46.824 5.171 Q 46.892 4.945 46.918 4.672 A 3.655 3.655 0 0 0 46.934 4.329 A 2.687 2.687 0 0 0 46.882 3.789 Q 46.815 3.459 46.657 3.2 A 1.586 1.586 0 0 0 46.562 3.061 A 1.231 1.231 0 0 0 46.147 2.705 Q 45.894 2.575 45.576 2.575 Q 44.986 2.575 44.62 3.035 A 1.515 1.515 0 0 0 44.604 3.054 A 1.589 1.589 0 0 0 44.352 3.552 Q 44.283 3.772 44.255 4.039 A 3.676 3.676 0 0 0 44.235 4.425 Z M 57.467 3.252 L 57.467 5.524 Q 57.832 6.174 58.583 6.174 A 1.184 1.184 0 0 0 59.049 6.086 Q 59.306 5.977 59.495 5.735 A 1.403 1.403 0 0 0 59.513 5.711 A 1.501 1.501 0 0 0 59.73 5.28 Q 59.798 5.073 59.83 4.818 A 3.91 3.91 0 0 0 59.858 4.333 Q 59.858 3.746 59.675 3.339 A 1.503 1.503 0 0 0 59.515 3.063 A 1.086 1.086 0 0 0 58.729 2.605 A 1.414 1.414 0 0 0 58.575 2.597 Q 57.914 2.597 57.549 3.121 A 1.623 1.623 0 0 0 57.467 3.252 Z M 12.955 5.454 L 12.955 3.27 A 1.375 1.375 0 0 0 12.643 2.874 Q 12.319 2.597 11.834 2.597 A 1.238 1.238 0 0 0 11.408 2.668 A 1.068 1.068 0 0 0 10.903 3.059 A 1.51 1.51 0 0 0 10.694 3.484 Q 10.628 3.689 10.597 3.939 A 3.955 3.955 0 0 0 10.569 4.425 A 3.162 3.162 0 0 0 10.605 4.918 Q 10.646 5.178 10.734 5.389 A 1.474 1.474 0 0 0 10.903 5.691 A 1.06 1.06 0 0 0 11.665 6.139 A 1.391 1.391 0 0 0 11.826 6.148 Q 12.599 6.148 12.955 5.454 Z M 79.761 5.449 L 79.761 3.278 A 1.439 1.439 0 0 0 79.46 2.891 Q 79.156 2.62 78.716 2.599 A 1.578 1.578 0 0 0 78.64 2.597 Q 78.048 2.597 77.714 3.056 A 1.51 1.51 0 0 0 77.504 3.484 Q 77.438 3.689 77.407 3.939 A 3.955 3.955 0 0 0 77.379 4.425 Q 77.379 5.229 77.708 5.689 Q 78.038 6.148 78.631 6.148 A 1.32 1.32 0 0 0 79.141 6.054 Q 79.533 5.891 79.761 5.449 Z M 28.367 3.938 L 30.749 3.938 L 30.749 3.876 Q 30.722 3.417 30.552 3.111 A 1.13 1.13 0 0 0 30.415 2.916 A 0.983 0.983 0 0 0 29.76 2.584 A 1.39 1.39 0 0 0 29.606 2.575 A 1.106 1.106 0 0 0 29.083 2.698 A 1.14 1.14 0 0 0 28.78 2.933 A 1.417 1.417 0 0 0 28.503 3.379 Q 28.43 3.563 28.39 3.785 A 2.741 2.741 0 0 0 28.367 3.938 Z M 69.609 0.734 Q 69.609 0.536 69.73 0.4 Q 69.842 0.274 70.054 0.264 A 0.783 0.783 0 0 1 70.088 0.264 Q 70.326 0.264 70.449 0.4 A 0.474 0.474 0 0 1 70.571 0.703 A 0.614 0.614 0 0 1 70.572 0.734 A 0.523 0.523 0 0 1 70.547 0.9 A 0.442 0.442 0 0 1 70.449 1.063 Q 70.336 1.184 70.128 1.194 A 0.803 0.803 0 0 1 70.088 1.195 Q 69.916 1.195 69.805 1.126 A 0.362 0.362 0 0 1 69.73 1.063 A 0.456 0.456 0 0 1 69.612 0.788 A 0.605 0.605 0 0 1 69.609 0.734 Z" vector-effect="non-scaling-stroke"/></g>
</svg>