<?xml version="1.0" encoding="UTF-8"?>
<svg width="90px" height="90px" viewBox="0 0 90 90" version="1.1" xmlns="http://www.w3.org/2000/svg" xmlns:xlink="http://www.w3.org/1999/xlink">
    <title>Icon-Architecture-Category/64/Quantum-Technologies_64</title>
    
    <g id="Icon-Architecture-Category/64/Quantum-Technologies_64" stroke="none" stroke-width="1" fill="none" fill-rule="evenodd">
        <rect id="Rectangle" x="5" y="5" width="80" height="80"></rect>
        <rect id="#879196-Border-Copy-19" stroke="#879196" stroke-width="2" x="1" y="1" width="88" height="88"></rect>
        
    </g><g id="svgGroup" stroke-linecap="round" fill-rule="evenodd" font-size="9pt" stroke="#000" stroke-width="0.15mm" fill="#000" style="stroke:#000;stroke-width:0.15mm;fill:#000"><path d="M 19.362 1.33 L 19.875 1.33 L 19.89 1.682 A 1.143 1.143 0 0 1 20.704 1.276 A 1.599 1.599 0 0 1 20.83 1.271 A 1.339 1.339 0 0 1 21.171 1.312 A 0.83 0.83 0 0 1 21.735 1.781 Q 21.894 1.553 22.147 1.412 A 1.1 1.1 0 0 1 22.5 1.291 A 1.473 1.473 0 0 1 22.746 1.271 Q 23.789 1.271 23.807 2.376 L 23.807 4.5 L 23.265 4.5 L 23.265 2.408 Q 23.265 2.068 23.109 1.9 A 0.453 0.453 0 0 0 22.941 1.788 Q 22.867 1.758 22.774 1.744 A 1.25 1.25 0 0 0 22.589 1.731 A 0.83 0.83 0 0 0 22.345 1.766 A 0.672 0.672 0 0 0 22.087 1.912 A 0.695 0.695 0 0 0 21.878 2.269 A 0.94 0.94 0 0 0 21.856 2.396 L 21.856 4.5 L 21.311 4.5 L 21.311 2.423 A 1.021 1.021 0 0 0 21.278 2.153 Q 21.194 1.845 20.889 1.762 A 0.971 0.971 0 0 0 20.634 1.731 A 0.96 0.96 0 0 0 20.344 1.773 Q 20.056 1.864 19.918 2.156 A 0.973 0.973 0 0 0 19.904 2.186 L 19.904 4.5 L 19.362 4.5 L 19.362 1.33 Z M 36.144 0 L 36.144 1.714 A 1.178 1.178 0 0 1 36.588 1.369 A 1.221 1.221 0 0 1 37.081 1.271 Q 38.086 1.271 38.095 2.405 L 38.095 4.5 L 37.553 4.5 L 37.553 2.402 A 1.224 1.224 0 0 0 37.538 2.216 Q 37.522 2.12 37.49 2.043 A 0.494 0.494 0 0 0 37.396 1.896 A 0.472 0.472 0 0 0 37.207 1.775 Q 37.13 1.748 37.036 1.738 A 1.106 1.106 0 0 0 36.917 1.731 Q 36.653 1.731 36.454 1.872 Q 36.255 2.013 36.144 2.241 L 36.144 4.5 L 35.602 4.5 L 35.602 0 L 36.144 0 Z M 52.544 1.682 L 52.57 1.33 L 53.065 1.33 L 53.065 4.424 A 1.674 1.674 0 0 1 53.018 4.832 A 1.159 1.159 0 0 1 52.701 5.394 Q 52.336 5.748 51.721 5.748 A 1.63 1.63 0 0 1 51.05 5.602 A 1.335 1.335 0 0 1 50.776 5.44 A 1.042 1.042 0 0 1 50.549 5.2 L 50.83 4.875 A 1.259 1.259 0 0 0 51.12 5.142 A 1.009 1.009 0 0 0 51.683 5.306 A 1.13 1.13 0 0 0 51.934 5.279 Q 52.113 5.239 52.242 5.134 A 0.691 0.691 0 0 0 52.299 5.083 A 0.727 0.727 0 0 0 52.484 4.755 Q 52.515 4.639 52.52 4.502 A 1.422 1.422 0 0 0 52.521 4.456 L 52.521 4.184 A 1.067 1.067 0 0 1 51.819 4.548 A 1.52 1.52 0 0 1 51.633 4.559 A 1.115 1.115 0 0 1 51.129 4.447 Q 50.915 4.34 50.748 4.131 A 1.426 1.426 0 0 1 50.732 4.11 A 1.544 1.544 0 0 1 50.477 3.59 Q 50.415 3.378 50.396 3.126 A 3.146 3.146 0 0 1 50.388 2.889 A 2.607 2.607 0 0 1 50.428 2.415 Q 50.479 2.141 50.593 1.923 A 1.397 1.397 0 0 1 50.731 1.709 A 1.084 1.084 0 0 1 51.518 1.277 A 1.372 1.372 0 0 1 51.639 1.271 A 1.314 1.314 0 0 1 52.038 1.329 A 1.033 1.033 0 0 1 52.544 1.682 Z M 60.876 2.262 L 60.331 2.262 A 0.473 0.473 0 0 0 60.192 1.924 A 0.668 0.668 0 0 0 60.142 1.878 A 0.666 0.666 0 0 0 59.803 1.727 A 0.906 0.906 0 0 0 59.666 1.717 A 1.098 1.098 0 0 0 59.486 1.731 Q 59.39 1.747 59.312 1.781 A 0.53 0.53 0 0 0 59.203 1.846 A 0.435 0.435 0 0 0 59.086 1.978 Q 59.038 2.066 59.036 2.176 A 0.512 0.512 0 0 0 59.036 2.183 A 0.392 0.392 0 0 0 59.056 2.311 A 0.32 0.32 0 0 0 59.191 2.479 Q 59.309 2.554 59.571 2.625 A 4.387 4.387 0 0 0 59.752 2.669 A 4.212 4.212 0 0 1 60.024 2.739 Q 60.151 2.776 60.257 2.818 A 1.895 1.895 0 0 1 60.41 2.886 Q 60.618 2.99 60.737 3.128 A 0.707 0.707 0 0 1 60.784 3.189 Q 60.905 3.366 60.905 3.621 A 0.853 0.853 0 0 1 60.831 3.982 Q 60.746 4.166 60.565 4.302 A 1.219 1.219 0 0 1 60.112 4.511 Q 59.941 4.553 59.741 4.558 A 2.224 2.224 0 0 1 59.684 4.559 Q 59.303 4.559 59.01 4.424 Q 58.717 4.289 58.551 4.047 Q 58.386 3.806 58.386 3.524 L 58.928 3.524 A 0.622 0.622 0 0 0 58.977 3.741 A 0.552 0.552 0 0 0 59.146 3.957 Q 59.336 4.105 59.638 4.115 A 1.342 1.342 0 0 0 59.684 4.116 Q 59.991 4.116 60.177 3.992 A 0.459 0.459 0 0 0 60.287 3.891 A 0.369 0.369 0 0 0 60.363 3.659 A 0.466 0.466 0 0 0 60.339 3.505 A 0.387 0.387 0 0 0 60.198 3.318 Q 60.062 3.218 59.763 3.142 A 3.595 3.595 0 0 0 59.621 3.108 A 4.228 4.228 0 0 1 59.38 3.05 Q 59.133 2.982 58.967 2.897 Q 58.768 2.796 58.654 2.663 A 0.678 0.678 0 0 1 58.61 2.604 A 0.664 0.664 0 0 1 58.501 2.313 A 0.861 0.861 0 0 1 58.494 2.2 A 0.804 0.804 0 0 1 58.76 1.597 A 1.129 1.129 0 0 1 58.824 1.541 A 1.168 1.168 0 0 1 59.346 1.301 A 1.647 1.647 0 0 1 59.666 1.271 A 1.706 1.706 0 0 1 60.042 1.311 A 1.172 1.172 0 0 1 60.541 1.55 A 0.923 0.923 0 0 1 60.792 1.867 A 0.915 0.915 0 0 1 60.876 2.262 Z M 10.787 1.33 L 11.3 1.33 L 11.317 1.729 Q 11.681 1.271 12.267 1.271 Q 13.272 1.271 13.28 2.405 L 13.28 4.5 L 12.738 4.5 L 12.738 2.402 A 1.224 1.224 0 0 0 12.723 2.216 Q 12.708 2.12 12.676 2.043 A 0.494 0.494 0 0 0 12.582 1.896 A 0.472 0.472 0 0 0 12.392 1.775 Q 12.316 1.748 12.222 1.738 A 1.106 1.106 0 0 0 12.103 1.731 Q 11.839 1.731 11.64 1.872 Q 11.44 2.013 11.329 2.241 L 11.329 4.5 L 10.787 4.5 L 10.787 1.33 Z M 38.906 1.33 L 39.419 1.33 L 39.437 1.729 Q 39.8 1.271 40.386 1.271 Q 41.391 1.271 41.399 2.405 L 41.399 4.5 L 40.857 4.5 L 40.857 2.402 A 1.224 1.224 0 0 0 40.843 2.216 Q 40.827 2.12 40.795 2.043 A 0.494 0.494 0 0 0 40.701 1.896 A 0.472 0.472 0 0 0 40.512 1.775 Q 40.435 1.748 40.341 1.738 A 1.106 1.106 0 0 0 40.222 1.731 Q 39.958 1.731 39.759 1.872 Q 39.56 2.013 39.448 2.241 L 39.448 4.5 L 38.906 4.5 L 38.906 1.33 Z M 6.185 4.5 L 6.173 4.187 A 1.017 1.017 0 0 1 5.622 4.517 Q 5.455 4.557 5.257 4.559 A 1.991 1.991 0 0 1 5.244 4.559 A 1.391 1.391 0 0 1 4.938 4.527 Q 4.733 4.481 4.584 4.367 A 0.811 0.811 0 0 1 4.472 4.264 Q 4.262 4.03 4.217 3.619 A 2.173 2.173 0 0 1 4.204 3.393 L 4.204 1.33 L 4.746 1.33 L 4.746 3.378 A 1.302 1.302 0 0 0 4.77 3.641 Q 4.865 4.099 5.332 4.099 Q 5.953 4.099 6.158 3.636 L 6.158 1.33 L 6.7 1.33 L 6.7 4.5 L 6.185 4.5 Z M 18.026 4.5 L 18.015 4.187 A 1.017 1.017 0 0 1 17.464 4.517 Q 17.297 4.557 17.099 4.559 A 1.991 1.991 0 0 1 17.086 4.559 A 1.391 1.391 0 0 1 16.779 4.527 Q 16.575 4.481 16.426 4.367 A 0.811 0.811 0 0 1 16.314 4.264 Q 16.104 4.03 16.058 3.619 A 2.173 2.173 0 0 1 16.046 3.393 L 16.046 1.33 L 16.588 1.33 L 16.588 3.378 A 1.302 1.302 0 0 0 16.612 3.641 Q 16.707 4.099 17.174 4.099 Q 17.795 4.099 18 3.636 L 18 1.33 L 18.542 1.33 L 18.542 4.5 L 18.026 4.5 Z M 34.48 3.501 L 34.992 3.501 A 0.955 0.955 0 0 1 34.859 3.934 A 1.181 1.181 0 0 1 34.805 4.02 A 1.219 1.219 0 0 1 34.399 4.383 A 1.446 1.446 0 0 1 34.343 4.412 A 1.331 1.331 0 0 1 33.732 4.559 A 1.564 1.564 0 0 1 33.268 4.493 A 1.226 1.226 0 0 1 32.703 4.126 Q 32.352 3.73 32.323 3.065 A 2.794 2.794 0 0 1 32.32 2.944 L 32.32 2.854 A 2.16 2.16 0 0 1 32.363 2.416 A 1.713 1.713 0 0 1 32.49 2.03 A 1.339 1.339 0 0 1 32.783 1.621 A 1.261 1.261 0 0 1 32.978 1.471 A 1.295 1.295 0 0 1 33.482 1.289 A 1.686 1.686 0 0 1 33.73 1.271 A 1.464 1.464 0 0 1 34.162 1.333 A 1.191 1.191 0 0 1 34.616 1.591 A 1.129 1.129 0 0 1 34.988 2.357 A 1.493 1.493 0 0 1 34.992 2.42 L 34.48 2.42 A 0.813 0.813 0 0 0 34.411 2.144 A 0.725 0.725 0 0 0 34.247 1.915 A 0.718 0.718 0 0 0 33.761 1.717 A 0.934 0.934 0 0 0 33.73 1.717 A 0.916 0.916 0 0 0 33.449 1.758 A 0.72 0.72 0 0 0 33.089 2.014 A 0.979 0.979 0 0 0 32.938 2.312 Q 32.862 2.549 32.862 2.874 L 32.862 2.977 Q 32.862 3.524 33.088 3.82 Q 33.314 4.116 33.732 4.116 A 0.781 0.781 0 0 0 34.239 3.94 A 0.672 0.672 0 0 0 34.402 3.753 A 0.609 0.609 0 0 0 34.48 3.501 Z M 29.024 0.234 L 29.024 0.697 L 27.653 0.697 L 27.653 4.5 L 27.094 4.5 L 27.094 0.697 L 25.726 0.697 L 25.726 0.234 L 29.024 0.234 Z M 3.434 2.232 L 3.434 2.505 A 3.266 3.266 0 0 1 3.397 3.004 Q 3.355 3.276 3.264 3.505 A 1.949 1.949 0 0 1 3.237 3.57 Q 3.041 4.017 2.687 4.269 L 3.448 4.866 L 3.064 5.221 L 2.165 4.506 A 1.8 1.8 0 0 1 1.785 4.558 A 2.041 2.041 0 0 1 1.72 4.559 A 1.745 1.745 0 0 1 1.182 4.478 A 1.542 1.542 0 0 1 0.826 4.311 A 1.594 1.594 0 0 1 0.293 3.743 A 1.969 1.969 0 0 1 0.221 3.605 Q 0.006 3.146 0 2.543 L 0 2.235 A 3.013 3.013 0 0 1 0.05 1.673 A 2.308 2.308 0 0 1 0.214 1.148 A 1.793 1.793 0 0 1 0.486 0.715 A 1.517 1.517 0 0 1 0.819 0.426 A 1.593 1.593 0 0 1 1.59 0.18 A 1.947 1.947 0 0 1 1.714 0.176 Q 2.23 0.176 2.621 0.425 A 1.559 1.559 0 0 1 3.145 0.987 A 1.949 1.949 0 0 1 3.223 1.141 A 2.314 2.314 0 0 1 3.393 1.716 A 3.148 3.148 0 0 1 3.434 2.232 Z M 10.049 4.5 L 9.481 4.5 A 0.421 0.421 0 0 1 9.457 4.44 Q 9.426 4.342 9.404 4.166 A 1.289 1.289 0 0 1 8.99 4.46 A 1.209 1.209 0 0 1 8.502 4.559 A 1.356 1.356 0 0 1 8.149 4.515 A 1.019 1.019 0 0 1 7.733 4.293 A 0.852 0.852 0 0 1 7.434 3.673 A 1.069 1.069 0 0 1 7.433 3.621 A 1.038 1.038 0 0 1 7.489 3.271 A 0.873 0.873 0 0 1 7.809 2.852 A 1.282 1.282 0 0 1 8.193 2.666 Q 8.364 2.614 8.57 2.593 A 2.912 2.912 0 0 1 8.868 2.578 L 9.396 2.578 L 9.396 2.329 A 0.768 0.768 0 0 0 9.372 2.132 A 0.552 0.552 0 0 0 9.226 1.876 Q 9.081 1.734 8.821 1.712 A 1.166 1.166 0 0 0 8.725 1.708 A 0.95 0.95 0 0 0 8.497 1.734 A 0.712 0.712 0 0 0 8.238 1.854 A 0.57 0.57 0 0 0 8.129 1.96 A 0.395 0.395 0 0 0 8.042 2.209 L 7.497 2.209 Q 7.497 1.972 7.666 1.75 A 1.087 1.087 0 0 1 7.97 1.48 A 1.368 1.368 0 0 1 8.123 1.4 A 1.499 1.499 0 0 1 8.64 1.275 A 1.78 1.78 0 0 1 8.757 1.271 A 1.766 1.766 0 0 1 9.102 1.303 Q 9.41 1.365 9.615 1.545 A 0.931 0.931 0 0 1 9.918 2.096 A 1.332 1.332 0 0 1 9.938 2.3 L 9.938 3.759 A 2.785 2.785 0 0 0 9.95 4.026 Q 9.962 4.153 9.987 4.26 A 1.138 1.138 0 0 0 10.049 4.453 L 10.049 4.5 Z M 29.145 3.003 L 29.145 2.903 Q 29.145 2.432 29.325 2.061 A 1.461 1.461 0 0 1 29.623 1.644 A 1.356 1.356 0 0 1 29.829 1.481 Q 30.152 1.271 30.53 1.271 A 1.503 1.503 0 0 1 30.939 1.324 A 1.093 1.093 0 0 1 31.491 1.679 A 1.33 1.33 0 0 1 31.737 2.138 Q 31.799 2.332 31.822 2.568 A 2.942 2.942 0 0 1 31.834 2.845 L 31.834 3.07 L 29.687 3.07 A 1.408 1.408 0 0 0 29.734 3.409 A 1.011 1.011 0 0 0 29.96 3.828 A 0.855 0.855 0 0 0 30.583 4.115 A 1.102 1.102 0 0 0 30.627 4.116 A 1.176 1.176 0 0 0 30.846 4.097 Q 30.985 4.07 31.097 4.008 A 0.737 0.737 0 0 0 31.113 3.999 A 1.218 1.218 0 0 0 31.453 3.7 A 1.384 1.384 0 0 0 31.462 3.688 L 31.793 3.946 A 1.284 1.284 0 0 1 30.86 4.541 A 1.833 1.833 0 0 1 30.598 4.559 A 1.596 1.596 0 0 1 30.097 4.483 A 1.316 1.316 0 0 1 29.549 4.135 A 1.424 1.424 0 0 1 29.186 3.428 A 2.069 2.069 0 0 1 29.145 3.003 Z M 55.201 3.003 L 55.201 2.903 Q 55.201 2.432 55.381 2.061 A 1.461 1.461 0 0 1 55.68 1.644 A 1.356 1.356 0 0 1 55.885 1.481 Q 56.209 1.271 56.587 1.271 A 1.503 1.503 0 0 1 56.996 1.324 A 1.093 1.093 0 0 1 57.548 1.679 A 1.33 1.33 0 0 1 57.794 2.138 Q 57.856 2.332 57.878 2.568 A 2.942 2.942 0 0 1 57.891 2.845 L 57.891 3.07 L 55.743 3.07 A 1.408 1.408 0 0 0 55.791 3.409 A 1.011 1.011 0 0 0 56.017 3.828 A 0.855 0.855 0 0 0 56.64 4.115 A 1.102 1.102 0 0 0 56.684 4.116 A 1.176 1.176 0 0 0 56.902 4.097 Q 57.042 4.07 57.154 4.008 A 0.737 0.737 0 0 0 57.17 3.999 A 1.218 1.218 0 0 0 57.509 3.7 A 1.384 1.384 0 0 0 57.519 3.688 L 57.85 3.946 A 1.284 1.284 0 0 1 56.916 4.541 A 1.833 1.833 0 0 1 56.654 4.559 A 1.596 1.596 0 0 1 56.154 4.483 A 1.316 1.316 0 0 1 55.606 4.135 A 1.424 1.424 0 0 1 55.243 3.428 A 2.069 2.069 0 0 1 55.201 3.003 Z M 14.291 0.563 L 14.833 0.563 L 14.833 1.33 L 15.425 1.33 L 15.425 1.749 L 14.833 1.749 L 14.833 3.715 A 0.732 0.732 0 0 0 14.84 3.82 Q 14.848 3.873 14.864 3.916 A 0.294 0.294 0 0 0 14.912 4 A 0.234 0.234 0 0 0 15.009 4.068 Q 15.048 4.084 15.098 4.09 A 0.618 0.618 0 0 0 15.182 4.096 Q 15.275 4.096 15.439 4.061 L 15.439 4.5 A 1.642 1.642 0 0 1 15.151 4.553 A 1.438 1.438 0 0 1 15.023 4.559 A 0.954 0.954 0 0 1 14.807 4.535 Q 14.655 4.5 14.548 4.411 A 0.571 0.571 0 0 1 14.476 4.339 A 0.723 0.723 0 0 1 14.341 4.085 Q 14.291 3.925 14.291 3.715 L 14.291 1.749 L 13.714 1.749 L 13.714 1.33 L 14.291 1.33 L 14.291 0.563 Z M 46.228 0 L 46.228 4.5 L 45.686 4.5 L 45.686 0 L 46.228 0 Z M 42.073 2.924 L 42.073 2.886 A 2.038 2.038 0 0 1 42.131 2.391 A 1.715 1.715 0 0 1 42.256 2.048 Q 42.439 1.676 42.766 1.474 A 1.358 1.358 0 0 1 43.396 1.275 A 1.66 1.66 0 0 1 43.512 1.271 A 1.518 1.518 0 0 1 44.014 1.351 A 1.291 1.291 0 0 1 44.559 1.72 A 1.526 1.526 0 0 1 44.905 2.406 A 2.248 2.248 0 0 1 44.959 2.912 L 44.959 2.95 A 2.076 2.076 0 0 1 44.906 3.428 A 1.718 1.718 0 0 1 44.782 3.781 A 1.371 1.371 0 0 1 44.43 4.241 A 1.334 1.334 0 0 1 44.275 4.354 A 1.364 1.364 0 0 1 43.662 4.553 A 1.686 1.686 0 0 1 43.518 4.559 A 1.508 1.508 0 0 1 43.017 4.479 A 1.292 1.292 0 0 1 42.473 4.11 Q 42.073 3.662 42.073 2.924 Z M 46.951 2.924 L 46.951 2.886 A 2.038 2.038 0 0 1 47.009 2.391 A 1.715 1.715 0 0 1 47.134 2.048 Q 47.317 1.676 47.644 1.474 A 1.358 1.358 0 0 1 48.274 1.275 A 1.66 1.66 0 0 1 48.39 1.271 A 1.518 1.518 0 0 1 48.892 1.351 A 1.291 1.291 0 0 1 49.437 1.72 A 1.526 1.526 0 0 1 49.783 2.406 A 2.248 2.248 0 0 1 49.837 2.912 L 49.837 2.95 A 2.076 2.076 0 0 1 49.784 3.428 A 1.718 1.718 0 0 1 49.66 3.781 A 1.371 1.371 0 0 1 49.308 4.241 A 1.334 1.334 0 0 1 49.153 4.354 A 1.364 1.364 0 0 1 48.54 4.553 A 1.686 1.686 0 0 1 48.396 4.559 A 1.508 1.508 0 0 1 47.895 4.479 A 1.292 1.292 0 0 1 47.351 4.11 Q 46.951 3.662 46.951 2.924 Z M 2.871 2.546 L 2.871 2.229 A 3.043 3.043 0 0 0 2.842 1.793 Q 2.777 1.349 2.571 1.068 A 0.969 0.969 0 0 0 1.865 0.667 A 1.38 1.38 0 0 0 1.714 0.659 A 1.113 1.113 0 0 0 1.32 0.726 A 0.981 0.981 0 0 0 0.877 1.065 Q 0.634 1.387 0.579 1.909 A 3.021 3.021 0 0 0 0.563 2.191 L 0.563 2.505 A 2.833 2.833 0 0 0 0.597 2.962 Q 0.637 3.203 0.721 3.398 A 1.367 1.367 0 0 0 0.869 3.659 A 0.973 0.973 0 0 0 1.571 4.073 A 1.288 1.288 0 0 0 1.72 4.081 A 1.193 1.193 0 0 0 2.092 4.026 A 0.949 0.949 0 0 0 2.564 3.684 A 1.345 1.345 0 0 0 2.764 3.288 Q 2.824 3.104 2.85 2.881 A 3.165 3.165 0 0 0 2.871 2.546 Z M 54.472 1.33 L 54.472 4.5 L 53.93 4.5 L 53.93 1.33 L 54.472 1.33 Z M 42.782 3.673 A 1.03 1.03 0 0 0 42.863 3.797 Q 43.107 4.116 43.518 4.116 Q 43.931 4.116 44.174 3.792 Q 44.417 3.469 44.417 2.886 A 1.792 1.792 0 0 0 44.383 2.526 Q 44.338 2.306 44.233 2.133 A 1.057 1.057 0 0 0 44.169 2.041 A 0.821 0.821 0 0 0 43.893 1.804 Q 43.724 1.717 43.512 1.717 A 0.813 0.813 0 0 0 43.161 1.791 Q 42.998 1.868 42.874 2.023 A 1.01 1.01 0 0 0 42.864 2.036 A 1.059 1.059 0 0 0 42.696 2.368 Q 42.65 2.515 42.631 2.693 A 2.451 2.451 0 0 0 42.618 2.95 Q 42.618 3.381 42.782 3.673 Z M 47.66 3.673 A 1.03 1.03 0 0 0 47.741 3.797 Q 47.985 4.116 48.396 4.116 Q 48.809 4.116 49.052 3.792 Q 49.295 3.469 49.295 2.886 A 1.792 1.792 0 0 0 49.261 2.526 Q 49.216 2.306 49.111 2.133 A 1.057 1.057 0 0 0 49.047 2.041 A 0.821 0.821 0 0 0 48.771 1.804 Q 48.602 1.717 48.39 1.717 A 0.813 0.813 0 0 0 48.039 1.791 Q 47.876 1.868 47.752 2.023 A 1.01 1.01 0 0 0 47.742 2.036 A 1.059 1.059 0 0 0 47.574 2.368 Q 47.528 2.515 47.509 2.693 A 2.451 2.451 0 0 0 47.496 2.95 Q 47.496 3.381 47.66 3.673 Z M 52.521 3.633 L 52.521 2.186 A 0.959 0.959 0 0 0 52.32 1.927 Q 52.117 1.747 51.824 1.733 A 1.052 1.052 0 0 0 51.773 1.731 A 0.812 0.812 0 0 0 51.483 1.781 A 0.713 0.713 0 0 0 51.156 2.038 Q 50.933 2.347 50.933 2.95 A 2.119 2.119 0 0 0 50.956 3.277 Q 50.984 3.451 51.042 3.593 A 0.996 0.996 0 0 0 51.152 3.792 A 0.699 0.699 0 0 0 51.66 4.093 A 0.934 0.934 0 0 0 51.768 4.099 A 0.88 0.88 0 0 0 52.107 4.036 Q 52.369 3.928 52.521 3.633 Z M 9.396 3.612 L 9.396 2.962 L 8.971 2.962 A 2.544 2.544 0 0 0 8.632 2.982 Q 8.262 3.032 8.1 3.205 A 0.477 0.477 0 0 0 7.975 3.545 A 0.613 0.613 0 0 0 7.998 3.717 A 0.458 0.458 0 0 0 8.145 3.943 A 0.596 0.596 0 0 0 8.42 4.072 A 0.839 0.839 0 0 0 8.581 4.087 Q 8.836 4.087 9.064 3.955 A 0.89 0.89 0 0 0 9.262 3.803 A 0.738 0.738 0 0 0 9.396 3.612 Z M 29.704 2.625 L 31.292 2.625 L 31.292 2.584 A 1.489 1.489 0 0 0 31.256 2.327 Q 31.223 2.186 31.161 2.074 A 0.753 0.753 0 0 0 31.069 1.944 A 0.655 0.655 0 0 0 30.633 1.722 A 0.926 0.926 0 0 0 30.53 1.717 Q 30.202 1.717 29.98 1.956 Q 29.784 2.165 29.719 2.524 A 1.827 1.827 0 0 0 29.704 2.625 Z M 55.761 2.625 L 57.349 2.625 L 57.349 2.584 A 1.489 1.489 0 0 0 57.313 2.327 Q 57.28 2.186 57.218 2.074 A 0.753 0.753 0 0 0 57.126 1.944 A 0.655 0.655 0 0 0 56.69 1.722 A 0.926 0.926 0 0 0 56.587 1.717 Q 56.259 1.717 56.036 1.956 Q 55.84 2.165 55.776 2.524 A 1.827 1.827 0 0 0 55.761 2.625 Z M 53.904 0.372 A 0.357 0.357 0 0 0 53.886 0.489 A 0.403 0.403 0 0 0 53.887 0.525 A 0.304 0.304 0 0 0 53.966 0.709 Q 54.022 0.769 54.114 0.788 A 0.455 0.455 0 0 0 54.205 0.797 Q 54.363 0.797 54.445 0.709 A 0.295 0.295 0 0 0 54.511 0.6 A 0.349 0.349 0 0 0 54.527 0.489 A 0.409 0.409 0 0 0 54.527 0.469 A 0.316 0.316 0 0 0 54.445 0.267 Q 54.39 0.205 54.3 0.185 A 0.439 0.439 0 0 0 54.205 0.176 Q 54.143 0.176 54.092 0.19 A 0.257 0.257 0 0 0 53.966 0.267 A 0.31 0.31 0 0 0 53.904 0.372 Z" vector-effect="non-scaling-stroke"/></g>
</svg>