<?xml version="1.0" encoding="UTF-8"?>
<svg width="90px" height="90px" viewBox="0 0 90 90" version="1.1" xmlns="http://www.w3.org/2000/svg" xmlns:xlink="http://www.w3.org/1999/xlink">
    <title>Icon-Architecture-Category/64/Security-Identity-Compliance_64</title>
    
    <g id="Icon-Architecture-Category/64/Security-Identity-Compliance_64" stroke="none" stroke-width="1" fill="none" fill-rule="evenodd">
        <rect id="Rectangle" x="5" y="5" width="80" height="80"></rect>
        <rect id="#879196-Border-Copy-22" stroke="#879196" stroke-width="2" x="1" y="1" width="88" height="88"></rect>
        
    </g><g id="svgGroup" stroke-linecap="round" fill-rule="evenodd" font-size="9pt" stroke="#000" stroke-width="0.15mm" fill="#000" style="stroke:#000;stroke-width:0.15mm;fill:#000"><path d="M 3.091 1.468 L 2.525 1.468 A 0.977 0.977 0 0 0 2.492 1.206 A 0.711 0.711 0 0 0 2.279 0.86 Q 2.064 0.667 1.695 0.642 A 1.668 1.668 0 0 0 1.585 0.639 A 1.524 1.524 0 0 0 1.332 0.658 Q 1.197 0.681 1.089 0.73 A 0.734 0.734 0 0 0 0.936 0.822 A 0.595 0.595 0 0 0 0.706 1.258 A 0.845 0.845 0 0 0 0.703 1.33 Q 0.703 1.591 0.924 1.771 A 1.041 1.041 0 0 0 1.083 1.875 Q 1.303 1.996 1.677 2.101 A 5.485 5.485 0 0 1 1.987 2.197 Q 2.144 2.251 2.274 2.309 A 2.198 2.198 0 0 1 2.509 2.43 A 1.561 1.561 0 0 1 2.735 2.593 Q 2.862 2.704 2.943 2.832 A 0.965 0.965 0 0 1 2.955 2.851 A 0.999 0.999 0 0 1 3.086 3.221 A 1.299 1.299 0 0 1 3.1 3.416 A 1.071 1.071 0 0 1 3.018 3.84 Q 2.921 4.067 2.709 4.236 A 1.257 1.257 0 0 1 2.695 4.247 Q 2.333 4.526 1.751 4.555 A 2.759 2.759 0 0 1 1.614 4.559 Q 1.175 4.559 0.794 4.39 A 1.589 1.589 0 0 1 0.475 4.205 A 1.249 1.249 0 0 1 0.207 3.929 Q 0 3.636 0 3.264 L 0.566 3.264 A 0.841 0.841 0 0 0 0.612 3.549 A 0.716 0.716 0 0 0 0.851 3.875 Q 1.108 4.076 1.518 4.096 A 1.914 1.914 0 0 0 1.614 4.099 Q 1.907 4.099 2.109 4.02 A 0.752 0.752 0 0 0 2.297 3.917 A 0.579 0.579 0 0 0 2.531 3.498 A 0.768 0.768 0 0 0 2.534 3.422 A 0.716 0.716 0 0 0 2.506 3.215 A 0.544 0.544 0 0 0 2.315 2.937 A 1.04 1.04 0 0 0 2.165 2.842 Q 1.998 2.753 1.733 2.665 A 5.851 5.851 0 0 0 1.518 2.599 A 4.568 4.568 0 0 1 1.123 2.467 Q 0.696 2.301 0.464 2.087 A 1 1 0 0 1 0.196 1.695 A 1.023 1.023 0 0 1 0.135 1.339 A 1.02 1.02 0 0 1 0.466 0.569 A 1.318 1.318 0 0 1 0.538 0.505 Q 0.941 0.176 1.585 0.176 A 1.942 1.942 0 0 1 2.025 0.224 A 1.581 1.581 0 0 1 2.369 0.346 A 1.367 1.367 0 0 1 2.723 0.593 A 1.223 1.223 0 0 1 2.902 0.814 A 1.199 1.199 0 0 1 3.091 1.468 Z M 19.055 1.33 L 19.846 3.706 L 20.584 1.33 L 21.164 1.33 L 19.89 4.989 A 1.799 1.799 0 0 1 19.72 5.335 Q 19.433 5.78 18.949 5.78 L 18.847 5.771 L 18.645 5.733 L 18.645 5.294 L 18.791 5.306 A 1.107 1.107 0 0 0 18.951 5.295 Q 19.038 5.282 19.108 5.255 A 0.5 0.5 0 0 0 19.22 5.194 A 0.5 0.5 0 0 0 19.327 5.086 Q 19.406 4.98 19.466 4.81 A 1.715 1.715 0 0 0 19.474 4.787 L 19.594 4.465 L 18.463 1.33 L 19.055 1.33 Z M 40.26 1.33 L 41.051 3.706 L 41.789 1.33 L 42.369 1.33 L 41.095 4.989 A 1.799 1.799 0 0 1 40.925 5.335 Q 40.638 5.78 40.154 5.78 L 40.052 5.771 L 39.85 5.733 L 39.85 5.294 L 39.996 5.306 A 1.107 1.107 0 0 0 40.156 5.295 Q 40.243 5.282 40.314 5.255 A 0.5 0.5 0 0 0 40.425 5.194 A 0.5 0.5 0 0 0 40.532 5.086 Q 40.611 4.98 40.671 4.81 A 1.715 1.715 0 0 0 40.679 4.787 L 40.799 4.465 L 39.668 1.33 L 40.26 1.33 Z M 31.327 1.33 L 31.84 1.33 L 31.858 1.729 Q 32.221 1.271 32.807 1.271 Q 33.812 1.271 33.82 2.405 L 33.82 4.5 L 33.278 4.5 L 33.278 2.402 A 1.224 1.224 0 0 0 33.264 2.216 Q 33.248 2.12 33.216 2.043 A 0.494 0.494 0 0 0 33.122 1.896 A 0.472 0.472 0 0 0 32.932 1.775 Q 32.856 1.748 32.762 1.738 A 1.106 1.106 0 0 0 32.643 1.731 Q 32.379 1.731 32.18 1.872 Q 31.981 2.013 31.869 2.241 L 31.869 4.5 L 31.327 4.5 L 31.327 1.33 Z M 12.024 4.5 L 12.012 4.187 A 1.017 1.017 0 0 1 11.461 4.517 Q 11.294 4.557 11.096 4.559 A 1.991 1.991 0 0 1 11.083 4.559 A 1.391 1.391 0 0 1 10.777 4.527 Q 10.572 4.481 10.423 4.367 A 0.811 0.811 0 0 1 10.311 4.264 Q 10.101 4.03 10.055 3.619 A 2.173 2.173 0 0 1 10.043 3.393 L 10.043 1.33 L 10.585 1.33 L 10.585 3.378 A 1.302 1.302 0 0 0 10.609 3.641 Q 10.704 4.099 11.171 4.099 Q 11.792 4.099 11.997 3.636 L 11.997 1.33 L 12.539 1.33 L 12.539 4.5 L 12.024 4.5 Z M 8.933 3.501 L 9.445 3.501 A 0.955 0.955 0 0 1 9.313 3.934 A 1.181 1.181 0 0 1 9.258 4.02 A 1.219 1.219 0 0 1 8.852 4.383 A 1.446 1.446 0 0 1 8.796 4.412 A 1.331 1.331 0 0 1 8.186 4.559 A 1.564 1.564 0 0 1 7.721 4.493 A 1.226 1.226 0 0 1 7.156 4.126 Q 6.805 3.73 6.776 3.065 A 2.794 2.794 0 0 1 6.774 2.944 L 6.774 2.854 A 2.16 2.16 0 0 1 6.816 2.416 A 1.713 1.713 0 0 1 6.943 2.03 A 1.339 1.339 0 0 1 7.236 1.621 A 1.261 1.261 0 0 1 7.431 1.471 A 1.295 1.295 0 0 1 7.935 1.289 A 1.686 1.686 0 0 1 8.183 1.271 A 1.464 1.464 0 0 1 8.615 1.333 A 1.191 1.191 0 0 1 9.069 1.591 A 1.129 1.129 0 0 1 9.441 2.357 A 1.493 1.493 0 0 1 9.445 2.42 L 8.933 2.42 A 0.813 0.813 0 0 0 8.865 2.144 A 0.725 0.725 0 0 0 8.7 1.915 A 0.718 0.718 0 0 0 8.214 1.717 A 0.934 0.934 0 0 0 8.183 1.717 A 0.916 0.916 0 0 0 7.902 1.758 A 0.72 0.72 0 0 0 7.543 2.014 A 0.979 0.979 0 0 0 7.391 2.312 Q 7.316 2.549 7.316 2.874 L 7.316 2.977 Q 7.316 3.524 7.541 3.82 Q 7.767 4.116 8.186 4.116 A 0.781 0.781 0 0 0 8.692 3.94 A 0.672 0.672 0 0 0 8.855 3.753 A 0.609 0.609 0 0 0 8.933 3.501 Z M 24.633 2.93 L 24.633 2.889 A 2.508 2.508 0 0 1 24.678 2.401 Q 24.736 2.106 24.871 1.875 A 1.432 1.432 0 0 1 24.979 1.715 A 1.156 1.156 0 0 1 25.35 1.397 Q 25.579 1.275 25.865 1.272 A 1.397 1.397 0 0 1 25.884 1.271 A 1.309 1.309 0 0 1 26.283 1.329 A 1.039 1.039 0 0 1 26.766 1.652 L 26.766 0 L 27.308 0 L 27.308 4.5 L 26.81 4.5 L 26.783 4.16 A 1.061 1.061 0 0 1 26.053 4.549 A 1.529 1.529 0 0 1 25.878 4.559 A 1.067 1.067 0 0 1 25.064 4.207 A 1.385 1.385 0 0 1 24.98 4.107 Q 24.652 3.68 24.634 3.007 A 2.95 2.95 0 0 1 24.633 2.93 Z M 3.598 3.003 L 3.598 2.903 Q 3.598 2.432 3.778 2.061 A 1.461 1.461 0 0 1 4.076 1.644 A 1.356 1.356 0 0 1 4.282 1.481 Q 4.606 1.271 4.983 1.271 A 1.503 1.503 0 0 1 5.392 1.324 A 1.093 1.093 0 0 1 5.944 1.679 A 1.33 1.33 0 0 1 6.19 2.138 Q 6.252 2.332 6.275 2.568 A 2.942 2.942 0 0 1 6.287 2.845 L 6.287 3.07 L 4.14 3.07 A 1.408 1.408 0 0 0 4.187 3.409 A 1.011 1.011 0 0 0 4.414 3.828 A 0.855 0.855 0 0 0 5.036 4.115 A 1.102 1.102 0 0 0 5.08 4.116 A 1.176 1.176 0 0 0 5.299 4.097 Q 5.438 4.07 5.551 4.008 A 0.737 0.737 0 0 0 5.567 3.999 A 1.218 1.218 0 0 0 5.906 3.7 A 1.384 1.384 0 0 0 5.915 3.688 L 6.246 3.946 A 1.284 1.284 0 0 1 5.313 4.541 A 1.833 1.833 0 0 1 5.051 4.559 A 1.596 1.596 0 0 1 4.55 4.483 A 1.316 1.316 0 0 1 4.002 4.135 A 1.424 1.424 0 0 1 3.639 3.428 A 2.069 2.069 0 0 1 3.598 3.003 Z M 28.011 3.003 L 28.011 2.903 Q 28.011 2.432 28.191 2.061 A 1.461 1.461 0 0 1 28.489 1.644 A 1.356 1.356 0 0 1 28.695 1.481 Q 29.019 1.271 29.397 1.271 A 1.503 1.503 0 0 1 29.805 1.324 A 1.093 1.093 0 0 1 30.358 1.679 A 1.33 1.33 0 0 1 30.604 2.138 Q 30.666 2.332 30.688 2.568 A 2.942 2.942 0 0 1 30.7 2.845 L 30.7 3.07 L 28.553 3.07 A 1.408 1.408 0 0 0 28.6 3.409 A 1.011 1.011 0 0 0 28.827 3.828 A 0.855 0.855 0 0 0 29.449 4.115 A 1.102 1.102 0 0 0 29.493 4.116 A 1.176 1.176 0 0 0 29.712 4.097 Q 29.851 4.07 29.964 4.008 A 0.737 0.737 0 0 0 29.98 3.999 A 1.218 1.218 0 0 0 30.319 3.7 A 1.384 1.384 0 0 0 30.328 3.688 L 30.659 3.946 A 1.284 1.284 0 0 1 29.726 4.541 A 1.833 1.833 0 0 1 29.464 4.559 A 1.596 1.596 0 0 1 28.963 4.483 A 1.316 1.316 0 0 1 28.415 4.135 A 1.424 1.424 0 0 1 28.052 3.428 A 2.069 2.069 0 0 1 28.011 3.003 Z M 17.042 0.563 L 17.584 0.563 L 17.584 1.33 L 18.176 1.33 L 18.176 1.749 L 17.584 1.749 L 17.584 3.715 A 0.732 0.732 0 0 0 17.591 3.82 Q 17.599 3.873 17.615 3.916 A 0.294 0.294 0 0 0 17.663 4 A 0.234 0.234 0 0 0 17.76 4.068 Q 17.799 4.084 17.849 4.09 A 0.618 0.618 0 0 0 17.933 4.096 Q 18.026 4.096 18.191 4.061 L 18.191 4.5 A 1.642 1.642 0 0 1 17.902 4.553 A 1.438 1.438 0 0 1 17.775 4.559 A 0.954 0.954 0 0 1 17.558 4.535 Q 17.406 4.5 17.299 4.411 A 0.571 0.571 0 0 1 17.227 4.339 A 0.723 0.723 0 0 1 17.092 4.085 Q 17.042 3.925 17.042 3.715 L 17.042 1.749 L 16.465 1.749 L 16.465 1.33 L 17.042 1.33 L 17.042 0.563 Z M 34.831 0.563 L 35.373 0.563 L 35.373 1.33 L 35.965 1.33 L 35.965 1.749 L 35.373 1.749 L 35.373 3.715 A 0.732 0.732 0 0 0 35.38 3.82 Q 35.388 3.873 35.404 3.916 A 0.294 0.294 0 0 0 35.452 4 A 0.234 0.234 0 0 0 35.549 4.068 Q 35.588 4.084 35.638 4.09 A 0.618 0.618 0 0 0 35.722 4.096 Q 35.816 4.096 35.98 4.061 L 35.98 4.5 A 1.642 1.642 0 0 1 35.691 4.553 A 1.438 1.438 0 0 1 35.564 4.559 A 0.954 0.954 0 0 1 35.347 4.535 Q 35.195 4.5 35.088 4.411 A 0.571 0.571 0 0 1 35.016 4.339 A 0.723 0.723 0 0 1 34.881 4.085 Q 34.831 3.925 34.831 3.715 L 34.831 1.749 L 34.254 1.749 L 34.254 1.33 L 34.831 1.33 L 34.831 0.563 Z M 38.247 0.563 L 38.789 0.563 L 38.789 1.33 L 39.381 1.33 L 39.381 1.749 L 38.789 1.749 L 38.789 3.715 A 0.732 0.732 0 0 0 38.796 3.82 Q 38.804 3.873 38.82 3.916 A 0.294 0.294 0 0 0 38.868 4 A 0.234 0.234 0 0 0 38.965 4.068 Q 39.004 4.084 39.054 4.09 A 0.618 0.618 0 0 0 39.138 4.096 Q 39.232 4.096 39.396 4.061 L 39.396 4.5 A 1.642 1.642 0 0 1 39.107 4.553 A 1.438 1.438 0 0 1 38.98 4.559 A 0.954 0.954 0 0 1 38.763 4.535 Q 38.611 4.5 38.504 4.411 A 0.571 0.571 0 0 1 38.432 4.339 A 0.723 0.723 0 0 1 38.297 4.085 Q 38.247 3.925 38.247 3.715 L 38.247 1.749 L 37.67 1.749 L 37.67 1.33 L 38.247 1.33 L 38.247 0.563 Z M 14.895 1.313 L 14.895 1.816 A 1.501 1.501 0 0 0 14.733 1.799 A 1.855 1.855 0 0 0 14.628 1.796 A 0.958 0.958 0 0 0 14.342 1.836 Q 14.05 1.927 13.915 2.225 A 0.963 0.963 0 0 0 13.904 2.25 L 13.904 4.5 L 13.362 4.5 L 13.362 1.33 L 13.89 1.33 L 13.899 1.696 A 0.961 0.961 0 0 1 14.13 1.437 Q 14.349 1.271 14.654 1.271 A 0.99 0.99 0 0 1 14.737 1.275 Q 14.836 1.283 14.895 1.313 Z M 23.821 0.234 L 23.821 4.5 L 23.259 4.5 L 23.259 0.234 L 23.821 0.234 Z M 15.982 1.33 L 15.982 4.5 L 15.44 4.5 L 15.44 1.33 L 15.982 1.33 Z M 37.187 1.33 L 37.187 4.5 L 36.645 4.5 L 36.645 1.33 L 37.187 1.33 Z M 26.766 3.636 L 26.766 2.18 A 0.917 0.917 0 0 0 26.558 1.916 Q 26.342 1.731 26.019 1.731 Q 25.62 1.731 25.398 2.039 Q 25.175 2.347 25.175 2.95 A 2.108 2.108 0 0 0 25.199 3.279 Q 25.248 3.589 25.398 3.794 A 0.707 0.707 0 0 0 25.906 4.093 A 0.927 0.927 0 0 0 26.013 4.099 A 0.894 0.894 0 0 0 26.347 4.039 Q 26.568 3.951 26.71 3.732 A 1.08 1.08 0 0 0 26.766 3.636 Z M 4.157 2.625 L 5.745 2.625 L 5.745 2.584 A 1.489 1.489 0 0 0 5.71 2.327 Q 5.676 2.186 5.614 2.074 A 0.753 0.753 0 0 0 5.523 1.944 A 0.655 0.655 0 0 0 5.086 1.722 A 0.926 0.926 0 0 0 4.983 1.717 Q 4.655 1.717 4.433 1.956 Q 4.237 2.165 4.173 2.524 A 1.827 1.827 0 0 0 4.157 2.625 Z M 28.57 2.625 L 30.158 2.625 L 30.158 2.584 A 1.489 1.489 0 0 0 30.123 2.327 Q 30.089 2.186 30.027 2.074 A 0.753 0.753 0 0 0 29.936 1.944 A 0.655 0.655 0 0 0 29.499 1.722 A 0.926 0.926 0 0 0 29.397 1.717 Q 29.068 1.717 28.846 1.956 Q 28.65 2.165 28.586 2.524 A 1.827 1.827 0 0 0 28.57 2.625 Z M 15.414 0.372 A 0.357 0.357 0 0 0 15.396 0.489 A 0.403 0.403 0 0 0 15.397 0.525 A 0.304 0.304 0 0 0 15.476 0.709 Q 15.532 0.769 15.624 0.788 A 0.455 0.455 0 0 0 15.715 0.797 Q 15.873 0.797 15.955 0.709 A 0.295 0.295 0 0 0 16.02 0.6 A 0.349 0.349 0 0 0 16.037 0.489 A 0.409 0.409 0 0 0 16.037 0.469 A 0.316 0.316 0 0 0 15.955 0.267 Q 15.9 0.205 15.81 0.185 A 0.439 0.439 0 0 0 15.715 0.176 Q 15.653 0.176 15.602 0.19 A 0.257 0.257 0 0 0 15.476 0.267 A 0.31 0.31 0 0 0 15.414 0.372 Z M 36.619 0.372 A 0.357 0.357 0 0 0 36.601 0.489 A 0.403 0.403 0 0 0 36.602 0.525 A 0.304 0.304 0 0 0 36.681 0.709 Q 36.737 0.769 36.829 0.788 A 0.455 0.455 0 0 0 36.92 0.797 Q 37.078 0.797 37.16 0.709 A 0.295 0.295 0 0 0 37.225 0.6 A 0.349 0.349 0 0 0 37.242 0.489 A 0.409 0.409 0 0 0 37.242 0.469 A 0.316 0.316 0 0 0 37.16 0.267 Q 37.105 0.205 37.015 0.185 A 0.439 0.439 0 0 0 36.92 0.176 Q 36.858 0.176 36.807 0.19 A 0.257 0.257 0 0 0 36.681 0.267 A 0.31 0.31 0 0 0 36.619 0.372 Z" vector-effect="non-scaling-stroke"/></g><g transform="translate(24.403976693523084vw, 64vh)" id="svgGroup" stroke-linecap="round" fill-rule="evenodd" font-size="9pt" stroke="#000" stroke-width="0.15mm" fill="#000" style="stroke:#000;stroke-width:0.15mm;fill:#000"><path d="M 7.386 1.33 L 7.898 1.33 L 7.913 1.682 A 1.143 1.143 0 0 1 8.727 1.276 A 1.599 1.599 0 0 1 8.854 1.271 A 1.339 1.339 0 0 1 9.194 1.312 A 0.83 0.83 0 0 1 9.759 1.781 Q 9.917 1.553 10.17 1.412 A 1.1 1.1 0 0 1 10.523 1.291 A 1.473 1.473 0 0 1 10.77 1.271 Q 11.813 1.271 11.83 2.376 L 11.83 4.5 L 11.288 4.5 L 11.288 2.408 Q 11.288 2.068 11.133 1.9 A 0.453 0.453 0 0 0 10.964 1.788 Q 10.89 1.758 10.797 1.744 A 1.25 1.25 0 0 0 10.612 1.731 A 0.83 0.83 0 0 0 10.368 1.766 A 0.672 0.672 0 0 0 10.11 1.912 A 0.695 0.695 0 0 0 9.901 2.269 A 0.94 0.94 0 0 0 9.879 2.396 L 9.879 4.5 L 9.334 4.5 L 9.334 2.423 A 1.021 1.021 0 0 0 9.302 2.153 Q 9.217 1.845 8.912 1.762 A 0.971 0.971 0 0 0 8.657 1.731 A 0.96 0.96 0 0 0 8.367 1.773 Q 8.079 1.864 7.941 2.156 A 0.973 0.973 0 0 0 7.928 2.186 L 7.928 4.5 L 7.386 4.5 L 7.386 1.33 Z M 2.719 3.146 L 3.284 3.146 A 2.011 2.011 0 0 1 3.177 3.611 A 1.399 1.399 0 0 1 2.785 4.191 A 1.438 1.438 0 0 1 2.156 4.506 Q 1.938 4.557 1.683 4.559 A 2.623 2.623 0 0 1 1.667 4.559 A 1.702 1.702 0 0 1 1.088 4.464 A 1.463 1.463 0 0 1 0.456 4.017 Q 0.024 3.503 0.001 2.661 A 3.508 3.508 0 0 1 0 2.566 L 0 2.156 A 2.834 2.834 0 0 1 0.047 1.63 A 2.152 2.152 0 0 1 0.212 1.11 Q 0.425 0.659 0.814 0.417 A 1.61 1.61 0 0 1 1.498 0.187 A 2.018 2.018 0 0 1 1.717 0.176 A 1.975 1.975 0 0 1 2.188 0.229 A 1.377 1.377 0 0 1 2.807 0.555 Q 3.217 0.935 3.284 1.605 L 2.719 1.605 A 2.027 2.027 0 0 0 2.66 1.328 Q 2.573 1.028 2.401 0.867 Q 2.177 0.658 1.791 0.64 A 1.597 1.597 0 0 0 1.717 0.639 A 1.169 1.169 0 0 0 1.331 0.699 A 0.975 0.975 0 0 0 0.872 1.037 Q 0.633 1.348 0.58 1.864 A 3.036 3.036 0 0 0 0.565 2.171 L 0.565 2.584 Q 0.565 3.278 0.856 3.688 A 0.92 0.92 0 0 0 1.521 4.09 A 1.21 1.21 0 0 0 1.667 4.099 Q 2.136 4.099 2.386 3.886 A 0.752 0.752 0 0 0 2.556 3.672 Q 2.665 3.474 2.716 3.166 A 2.608 2.608 0 0 0 2.719 3.146 Z M 22.189 1.33 L 22.702 1.33 L 22.72 1.729 Q 23.083 1.271 23.669 1.271 Q 24.674 1.271 24.683 2.405 L 24.683 4.5 L 24.141 4.5 L 24.141 2.402 A 1.224 1.224 0 0 0 24.126 2.216 Q 24.11 2.12 24.078 2.043 A 0.494 0.494 0 0 0 23.984 1.896 A 0.472 0.472 0 0 0 23.795 1.775 Q 23.718 1.748 23.624 1.738 A 1.106 1.106 0 0 0 23.505 1.731 Q 23.241 1.731 23.042 1.872 Q 22.843 2.013 22.731 2.241 L 22.731 4.5 L 22.189 4.5 L 22.189 1.33 Z M 27.519 3.501 L 28.031 3.501 A 0.955 0.955 0 0 1 27.899 3.934 A 1.181 1.181 0 0 1 27.844 4.02 A 1.219 1.219 0 0 1 27.438 4.383 A 1.446 1.446 0 0 1 27.382 4.412 A 1.331 1.331 0 0 1 26.772 4.559 A 1.564 1.564 0 0 1 26.307 4.493 A 1.226 1.226 0 0 1 25.742 4.126 Q 25.391 3.73 25.362 3.065 A 2.794 2.794 0 0 1 25.359 2.944 L 25.359 2.854 A 2.16 2.16 0 0 1 25.402 2.416 A 1.713 1.713 0 0 1 25.529 2.03 A 1.339 1.339 0 0 1 25.822 1.621 A 1.261 1.261 0 0 1 26.017 1.471 A 1.295 1.295 0 0 1 26.521 1.289 A 1.686 1.686 0 0 1 26.769 1.271 A 1.464 1.464 0 0 1 27.201 1.333 A 1.191 1.191 0 0 1 27.655 1.591 A 1.129 1.129 0 0 1 28.027 2.357 A 1.493 1.493 0 0 1 28.031 2.42 L 27.519 2.42 A 0.813 0.813 0 0 0 27.45 2.144 A 0.725 0.725 0 0 0 27.286 1.915 A 0.718 0.718 0 0 0 26.8 1.717 A 0.934 0.934 0 0 0 26.769 1.717 A 0.916 0.916 0 0 0 26.488 1.758 A 0.72 0.72 0 0 0 26.128 2.014 A 0.979 0.979 0 0 0 25.977 2.312 Q 25.901 2.549 25.901 2.874 L 25.901 2.977 Q 25.901 3.524 26.127 3.82 Q 26.353 4.116 26.772 4.116 A 0.781 0.781 0 0 0 27.278 3.94 A 0.672 0.672 0 0 0 27.441 3.753 A 0.609 0.609 0 0 0 27.519 3.501 Z M 21.451 4.5 L 20.883 4.5 A 0.421 0.421 0 0 1 20.859 4.44 Q 20.828 4.342 20.807 4.166 A 1.289 1.289 0 0 1 20.392 4.46 A 1.209 1.209 0 0 1 19.904 4.559 A 1.356 1.356 0 0 1 19.551 4.515 A 1.019 1.019 0 0 1 19.135 4.293 A 0.852 0.852 0 0 1 18.836 3.673 A 1.069 1.069 0 0 1 18.835 3.621 A 1.038 1.038 0 0 1 18.891 3.271 A 0.873 0.873 0 0 1 19.211 2.852 A 1.282 1.282 0 0 1 19.595 2.666 Q 19.767 2.614 19.973 2.593 A 2.912 2.912 0 0 1 20.271 2.578 L 20.798 2.578 L 20.798 2.329 A 0.768 0.768 0 0 0 20.774 2.132 A 0.552 0.552 0 0 0 20.628 1.876 Q 20.484 1.734 20.224 1.712 A 1.166 1.166 0 0 0 20.127 1.708 A 0.95 0.95 0 0 0 19.899 1.734 A 0.712 0.712 0 0 0 19.641 1.854 A 0.57 0.57 0 0 0 19.531 1.96 A 0.395 0.395 0 0 0 19.444 2.209 L 18.899 2.209 Q 18.899 1.972 19.068 1.75 A 1.087 1.087 0 0 1 19.372 1.48 A 1.368 1.368 0 0 1 19.525 1.4 A 1.499 1.499 0 0 1 20.042 1.275 A 1.78 1.78 0 0 1 20.159 1.271 A 1.766 1.766 0 0 1 20.504 1.303 Q 20.813 1.365 21.018 1.545 A 0.931 0.931 0 0 1 21.32 2.096 A 1.332 1.332 0 0 1 21.34 2.3 L 21.34 3.759 A 2.785 2.785 0 0 0 21.352 4.026 Q 21.364 4.153 21.389 4.26 A 1.138 1.138 0 0 0 21.451 4.453 L 21.451 4.5 Z M 15.325 2.9 L 15.325 2.95 A 2.579 2.579 0 0 1 15.282 3.434 Q 15.228 3.719 15.104 3.945 A 1.44 1.44 0 0 1 14.994 4.116 A 1.047 1.047 0 0 1 14.235 4.552 A 1.342 1.342 0 0 1 14.098 4.559 Q 13.521 4.559 13.189 4.192 L 13.189 5.719 L 12.647 5.719 L 12.647 1.33 L 13.143 1.33 L 13.169 1.682 A 1.079 1.079 0 0 1 13.928 1.28 A 1.546 1.546 0 0 1 14.089 1.271 A 1.219 1.219 0 0 1 14.514 1.343 A 1.064 1.064 0 0 1 14.993 1.702 A 1.46 1.46 0 0 1 15.231 2.18 Q 15.293 2.385 15.314 2.631 A 3.143 3.143 0 0 1 15.325 2.9 Z M 28.503 3.003 L 28.503 2.903 Q 28.503 2.432 28.683 2.061 A 1.461 1.461 0 0 1 28.981 1.644 A 1.356 1.356 0 0 1 29.187 1.481 Q 29.511 1.271 29.889 1.271 A 1.503 1.503 0 0 1 30.297 1.324 A 1.093 1.093 0 0 1 30.85 1.679 A 1.33 1.33 0 0 1 31.096 2.138 Q 31.158 2.332 31.18 2.568 A 2.942 2.942 0 0 1 31.192 2.845 L 31.192 3.07 L 29.045 3.07 A 1.408 1.408 0 0 0 29.092 3.409 A 1.011 1.011 0 0 0 29.319 3.828 A 0.855 0.855 0 0 0 29.942 4.115 A 1.102 1.102 0 0 0 29.985 4.116 A 1.176 1.176 0 0 0 30.204 4.097 Q 30.344 4.07 30.456 4.008 A 0.737 0.737 0 0 0 30.472 3.999 A 1.218 1.218 0 0 0 30.811 3.7 A 1.384 1.384 0 0 0 30.82 3.688 L 31.151 3.946 A 1.284 1.284 0 0 1 30.218 4.541 A 1.833 1.833 0 0 1 29.956 4.559 A 1.596 1.596 0 0 1 29.455 4.483 A 1.316 1.316 0 0 1 28.907 4.135 A 1.424 1.424 0 0 1 28.544 3.428 A 2.069 2.069 0 0 1 28.503 3.003 Z M 16.603 0 L 16.603 4.5 L 16.061 4.5 L 16.061 0 L 16.603 0 Z M 3.823 2.924 L 3.823 2.886 A 2.038 2.038 0 0 1 3.881 2.391 A 1.715 1.715 0 0 1 4.006 2.048 Q 4.189 1.676 4.516 1.474 A 1.358 1.358 0 0 1 5.146 1.275 A 1.66 1.66 0 0 1 5.262 1.271 A 1.518 1.518 0 0 1 5.764 1.351 A 1.291 1.291 0 0 1 6.309 1.72 A 1.526 1.526 0 0 1 6.655 2.406 A 2.248 2.248 0 0 1 6.709 2.912 L 6.709 2.95 A 2.076 2.076 0 0 1 6.656 3.428 A 1.718 1.718 0 0 1 6.532 3.781 A 1.371 1.371 0 0 1 6.18 4.241 A 1.334 1.334 0 0 1 6.025 4.354 A 1.364 1.364 0 0 1 5.412 4.553 A 1.686 1.686 0 0 1 5.268 4.559 A 1.508 1.508 0 0 1 4.767 4.479 A 1.292 1.292 0 0 1 4.223 4.11 Q 3.823 3.662 3.823 2.924 Z M 18.059 1.33 L 18.059 4.5 L 17.517 4.5 L 17.517 1.33 L 18.059 1.33 Z M 4.532 3.673 A 1.03 1.03 0 0 0 4.613 3.797 Q 4.857 4.116 5.268 4.116 Q 5.681 4.116 5.924 3.792 Q 6.167 3.469 6.167 2.886 A 1.792 1.792 0 0 0 6.133 2.526 Q 6.088 2.306 5.983 2.133 A 1.057 1.057 0 0 0 5.919 2.041 A 0.821 0.821 0 0 0 5.643 1.804 Q 5.474 1.717 5.262 1.717 A 0.813 0.813 0 0 0 4.911 1.791 Q 4.748 1.868 4.624 2.023 A 1.01 1.01 0 0 0 4.614 2.036 A 1.059 1.059 0 0 0 4.446 2.368 Q 4.4 2.515 4.381 2.693 A 2.451 2.451 0 0 0 4.368 2.95 Q 4.368 3.381 4.532 3.673 Z M 13.189 2.168 L 13.189 3.683 A 0.888 0.888 0 0 0 13.408 3.947 Q 13.587 4.09 13.838 4.112 A 1.076 1.076 0 0 0 13.934 4.116 Q 14.313 4.116 14.541 3.823 A 0.933 0.933 0 0 0 14.553 3.807 Q 14.718 3.586 14.764 3.212 A 2.607 2.607 0 0 0 14.783 2.889 A 2.038 2.038 0 0 0 14.757 2.554 Q 14.706 2.248 14.555 2.042 A 0.724 0.724 0 0 0 14.031 1.737 A 0.942 0.942 0 0 0 13.928 1.731 A 0.871 0.871 0 0 0 13.584 1.797 Q 13.382 1.882 13.244 2.081 A 1.082 1.082 0 0 0 13.189 2.168 Z M 20.798 3.612 L 20.798 2.962 L 20.373 2.962 A 2.544 2.544 0 0 0 20.035 2.982 Q 19.664 3.032 19.502 3.205 A 0.477 0.477 0 0 0 19.377 3.545 A 0.613 0.613 0 0 0 19.4 3.717 A 0.458 0.458 0 0 0 19.547 3.943 A 0.596 0.596 0 0 0 19.823 4.072 A 0.839 0.839 0 0 0 19.983 4.087 Q 20.238 4.087 20.467 3.955 A 0.89 0.89 0 0 0 20.664 3.803 A 0.738 0.738 0 0 0 20.798 3.612 Z M 29.063 2.625 L 30.65 2.625 L 30.65 2.584 A 1.489 1.489 0 0 0 30.615 2.327 Q 30.581 2.186 30.519 2.074 A 0.753 0.753 0 0 0 30.428 1.944 A 0.655 0.655 0 0 0 29.991 1.722 A 0.926 0.926 0 0 0 29.889 1.717 Q 29.561 1.717 29.338 1.956 Q 29.142 2.165 29.078 2.524 A 1.827 1.827 0 0 0 29.063 2.625 Z M 17.491 0.372 A 0.357 0.357 0 0 0 17.473 0.489 A 0.403 0.403 0 0 0 17.474 0.525 A 0.304 0.304 0 0 0 17.553 0.709 Q 17.609 0.769 17.701 0.788 A 0.455 0.455 0 0 0 17.792 0.797 Q 17.95 0.797 18.032 0.709 A 0.295 0.295 0 0 0 18.097 0.6 A 0.349 0.349 0 0 0 18.114 0.489 A 0.409 0.409 0 0 0 18.114 0.469 A 0.316 0.316 0 0 0 18.032 0.267 Q 17.977 0.205 17.887 0.185 A 0.439 0.439 0 0 0 17.792 0.176 Q 17.73 0.176 17.679 0.19 A 0.257 0.257 0 0 0 17.553 0.267 A 0.31 0.31 0 0 0 17.491 0.372 Z" vector-effect="non-scaling-stroke"/></g>
</svg>