<?xml version="1.0" encoding="UTF-8"?>
<svg width="80px" height="80px" viewBox="0 0 80 80" version="1.1" xmlns="http://www.w3.org/2000/svg" xmlns:xlink="http://www.w3.org/1999/xlink">
    <!-- Generator: Sketch 64 (93537) - https://sketch.com -->
    <title>Icon-Architecture/64/Arch_AWS-Amplify-Console_64</title>
    <desc>Created with Sketch.</desc>
    
    <g id="Icon-Architecture/64/Arch_AWS-Amplify-Console_64" stroke="none" stroke-width="1" fill="none" fill-rule="evenodd">
        
        <path transform="translate(0vw, 0vh), scale(.65)" d="M59.6107389,59.179 L39.5067389,20 L45.2577389,20 L65.3627389,59.179 L59.6107389,59.179 Z M67.8887389,59.722 L46.7587389,18.544 C46.5887389,18.21 46.2447389,18 45.8697389,18 L37.8697389,18 C37.5207389,18 37.1977389,18.181 37.0157389,18.479 C36.8347389,18.776 36.8207389,19.147 36.9797389,19.457 L58.1097389,60.636 C58.2807389,60.969 58.6247389,61.179 58.9997389,61.179 L66.9997389,61.179 C67.3477389,61.179 67.6717389,60.998 67.8527389,60.7 C68.0347389,60.403 68.0487389,60.033 67.8887389,59.722 L67.8887389,59.722 Z M47.5987389,59.179 L32.2147389,30.332 L35.3657389,25.121 L53.3407389,59.179 L47.5987389,59.179 Z M36.3097389,22.624 C36.1407389,22.305 35.8147389,22.101 35.4547389,22.091 C35.1087389,22.07 34.7567389,22.265 34.5697389,22.573 L30.2097389,29.784 C30.0267389,30.086 30.0167389,30.461 30.1817389,30.772 L46.1167389,60.65 C46.2907389,60.975 46.6307389,61.179 46.9997389,61.179 L54.9997389,61.179 C55.3497389,61.179 55.6747389,60.995 55.8557389,60.695 C56.0367389,60.395 56.0477389,60.022 55.8837389,59.712 L36.3097389,22.624 Z M14.7727389,59.179 L28.8847389,35.84 L31.7597389,41.229 L25.1337389,52.678 C24.9547389,52.988 24.9547389,53.369 25.1327389,53.679 C25.3117389,53.988 25.6417389,54.179 25.9997389,54.179 L38.6667389,54.179 L41.3327389,59.179 L14.7727389,59.179 Z M40.1487389,52.708 C39.9747389,52.383 39.6347389,52.179 39.2657389,52.179 L27.7337389,52.179 L33.7687389,41.75 C33.9427389,41.451 33.9487389,41.084 33.7867389,40.779 L29.8227389,33.346 C29.6527389,33.029 29.3267389,32.827 28.9667389,32.817 C28.5827389,32.8 28.2697389,32.992 28.0847389,33.299 L12.1437389,59.661 C11.9577389,59.971 11.9517389,60.356 12.1287389,60.67 C12.3057389,60.985 12.6377389,61.179 12.9997389,61.179 L42.9997389,61.179 C43.3507389,61.179 43.6757389,60.995 43.8567389,60.694 C44.0377389,60.392 44.0477389,60.018 43.8817389,59.708 L40.1487389,52.708 Z" id="AWS-Amplify-Console_Icon_64_Squid" fill="#000000"></path>
    </g><g transform="translate(33vw, 80vh)" id="svgGroup" stroke-linecap="round" fill-rule="evenodd" font-size="9pt" stroke="#000" stroke-width="0.25mm" fill="#000" style="stroke:#000;stroke-width:0.25mm;fill:#000"><path d="M 6.359 2.087 L 7.128 2.087 L 7.15 2.615 Q 7.673 2 8.561 2 A 2.009 2.009 0 0 1 9.071 2.06 A 1.244 1.244 0 0 1 9.918 2.764 A 1.801 1.801 0 0 1 10.536 2.21 A 1.65 1.65 0 0 1 11.065 2.029 A 2.209 2.209 0 0 1 11.435 2 A 2.119 2.119 0 0 1 12.079 2.089 Q 13.005 2.385 13.025 3.656 L 13.025 6.842 L 12.212 6.842 L 12.212 3.705 A 1.781 1.781 0 0 0 12.192 3.425 Q 12.168 3.277 12.118 3.159 A 0.758 0.758 0 0 0 11.979 2.942 A 0.68 0.68 0 0 0 11.727 2.774 Q 11.515 2.69 11.198 2.689 A 1.245 1.245 0 0 0 10.832 2.741 A 1.008 1.008 0 0 0 10.446 2.96 A 1.042 1.042 0 0 0 10.132 3.496 A 1.41 1.41 0 0 0 10.099 3.687 L 10.099 6.842 L 9.281 6.842 L 9.281 3.727 A 1.532 1.532 0 0 0 9.233 3.322 Q 9.106 2.86 8.649 2.735 A 1.457 1.457 0 0 0 8.266 2.689 Q 7.493 2.689 7.192 3.327 A 1.459 1.459 0 0 0 7.172 3.371 L 7.172 6.842 L 6.359 6.842 L 6.359 2.087 Z M 27.163 2.087 L 28.349 5.651 L 29.457 2.087 L 30.327 2.087 L 28.415 7.576 Q 27.971 8.763 27.004 8.763 L 26.851 8.75 L 26.547 8.692 L 26.547 8.033 L 26.767 8.051 Q 27.047 8.051 27.243 7.974 A 0.75 0.75 0 0 0 27.411 7.884 A 0.749 0.749 0 0 0 27.571 7.722 Q 27.689 7.563 27.779 7.307 A 2.575 2.575 0 0 0 27.791 7.273 L 27.971 6.79 L 26.275 2.087 L 27.163 2.087 Z M 4.764 6.842 L 4.153 5.172 L 1.472 5.172 L 0.87 6.842 L 0 6.842 L 2.443 0.444 L 3.182 0.444 L 5.629 6.842 L 4.764 6.842 Z M 18.268 4.443 L 18.268 4.518 Q 18.268 5.603 17.771 6.267 A 1.57 1.57 0 0 1 16.633 6.92 A 2.013 2.013 0 0 1 16.427 6.93 A 2.196 2.196 0 0 1 15.841 6.856 A 1.598 1.598 0 0 1 15.064 6.381 L 15.064 8.67 L 14.251 8.67 L 14.251 2.087 L 14.994 2.087 L 15.034 2.615 A 1.619 1.619 0 0 1 16.173 2.012 A 2.319 2.319 0 0 1 16.414 2 A 1.829 1.829 0 0 1 17.051 2.106 A 1.597 1.597 0 0 1 17.769 2.646 Q 18.268 3.292 18.268 4.443 Z M 24.882 6.842 L 24.069 6.842 L 24.069 2.716 L 23.317 2.716 L 23.317 2.087 L 24.069 2.087 L 24.069 1.6 Q 24.069 1.012 24.311 0.629 A 1.273 1.273 0 0 1 24.478 0.417 Q 24.886 0 25.633 0 A 2.134 2.134 0 0 1 26.191 0.075 L 26.147 0.734 Q 25.941 0.694 25.708 0.694 A 1.086 1.086 0 0 0 25.46 0.721 Q 25.239 0.773 25.097 0.925 A 0.747 0.747 0 0 0 24.931 1.221 Q 24.896 1.336 24.886 1.475 A 1.57 1.57 0 0 0 24.882 1.586 L 24.882 2.087 L 25.897 2.087 L 25.897 2.716 L 24.882 2.716 L 24.882 6.842 Z M 20.184 0.092 L 20.184 6.842 L 19.371 6.842 L 19.371 0.092 L 20.184 0.092 Z M 22.368 2.087 L 22.368 6.842 L 21.555 6.842 L 21.555 2.087 L 22.368 2.087 Z M 15.064 3.344 L 15.064 5.616 Q 15.429 6.267 16.181 6.267 A 1.184 1.184 0 0 0 16.646 6.178 Q 16.903 6.069 17.092 5.827 A 1.403 1.403 0 0 0 17.11 5.803 A 1.501 1.501 0 0 0 17.327 5.372 Q 17.395 5.165 17.427 4.911 A 3.91 3.91 0 0 0 17.455 4.425 Q 17.455 3.838 17.272 3.431 A 1.503 1.503 0 0 0 17.112 3.155 A 1.086 1.086 0 0 0 16.326 2.698 A 1.414 1.414 0 0 0 16.172 2.689 Q 15.511 2.689 15.146 3.213 A 1.623 1.623 0 0 0 15.064 3.344 Z M 2.813 1.485 L 1.727 4.478 L 3.902 4.478 L 2.813 1.485 Z M 21.489 0.826 Q 21.489 0.628 21.61 0.492 Q 21.722 0.366 21.934 0.357 A 0.783 0.783 0 0 1 21.968 0.356 Q 22.206 0.356 22.329 0.492 A 0.474 0.474 0 0 1 22.451 0.796 A 0.614 0.614 0 0 1 22.452 0.826 A 0.523 0.523 0 0 1 22.426 0.992 A 0.442 0.442 0 0 1 22.329 1.156 Q 22.216 1.276 22.008 1.287 A 0.803 0.803 0 0 1 21.968 1.288 Q 21.796 1.288 21.685 1.218 A 0.362 0.362 0 0 1 21.61 1.156 A 0.456 0.456 0 0 1 21.492 0.88 A 0.605 0.605 0 0 1 21.489 0.826 Z" vector-effect="non-scaling-stroke"/></g>
</svg>