<?xml version="1.0" encoding="UTF-8"?>
<svg width="48px" height="48px" viewBox="0 0 48 48" version="1.1" xmlns="http://www.w3.org/2000/svg" xmlns:xlink="http://www.w3.org/1999/xlink">
    <title>Icon-Resource/Machine-Learning/Res_Amazon-Rekognition_Image_48_Light</title>
    <g id="Icon-Resource/Machine-Learning/Res_Amazon-Rekognition_Image_48" stroke="none" stroke-width="1" fill="none" fill-rule="evenodd">
        <path transform="translate(0vw, 0vh), scale(.65)" d="M17.0609,34.4258 C15.6959,33.4518 14.5009,32.2578 13.5289,30.8918 L4.7299,39.6928 C3.7559,40.6658 3.7559,42.2508 4.7299,43.2248 C5.6709,44.1658 7.3219,44.1658 8.2629,43.2248 L17.0609,34.4258 Z M12.7489,22.2298 C12.7489,29.3888 18.5749,35.2138 25.7349,35.2138 C32.8939,35.2138 38.7189,29.3888 38.7189,22.2298 C38.7189,15.0698 32.8939,9.2438 25.7349,9.2438 C18.5749,9.2438 12.7489,15.0698 12.7489,22.2298 L12.7489,22.2298 Z M18.8099,35.5048 L9.6769,44.6388 C8.8299,45.4878 7.6999,45.9548 6.4969,45.9548 C5.2929,45.9548 4.1639,45.4878 3.3159,44.6388 C1.5619,42.8848 1.5619,40.0318 3.3159,38.2788 L12.4519,29.1408 C11.3699,27.0708 10.7489,24.7228 10.7489,22.2298 C10.7489,13.9668 17.4719,7.2438 25.7349,7.2438 C33.9979,7.2438 40.7189,13.9668 40.7189,22.2298 C40.7189,30.4918 33.9979,37.2138 25.7349,37.2138 C23.2359,37.2138 20.8829,36.5908 18.8099,35.5048 L18.8099,35.5048 Z M9.4089,30.3368 C8.1459,27.8268 7.5049,25.0998 7.5049,22.2298 C7.5049,19.1028 8.3099,16.0198 9.8319,13.3148 L8.0899,12.3338 C6.3989,15.3388 5.5049,18.7598 5.5049,22.2298 C5.5049,25.3698 6.2369,28.4848 7.6219,31.2358 L9.4089,30.3368 Z M28.7849,19.6068 C29.5079,19.6068 30.0959,19.0198 30.0959,18.2958 C30.0959,17.5718 29.5079,16.9848 28.7849,16.9848 C28.0599,16.9848 27.4729,17.5718 27.4729,18.2958 C27.4729,19.0198 28.0599,19.6068 28.7849,19.6068 L28.7849,19.6068 Z M19.7329,16.2368 L19.7329,25.6378 L24.0059,20.8588 C24.2639,20.5608 24.6529,20.4098 25.0629,20.3908 C25.4719,20.3968 25.8559,20.5828 26.1159,20.9008 L28.4549,23.7508 L31.7179,20.1548 L31.7179,16.2368 L19.7329,16.2368 Z M31.7179,28.2218 L31.7179,23.1298 L29.4649,25.6118 C29.2249,25.8988 28.8389,26.0768 28.4299,26.0768 L28.4199,26.0768 C28.0069,26.0738 27.6209,25.8888 27.3579,25.5688 L25.0229,22.7218 L20.1049,28.2218 L31.7179,28.2218 Z M17.7329,28.3078 L17.7329,16.1508 C17.7329,15.0958 18.5919,14.2368 19.6479,14.2368 L31.8039,14.2368 C32.8599,14.2368 33.7179,15.0958 33.7179,16.1508 L33.7179,28.3078 C33.7179,29.3638 32.8599,30.2218 31.8039,30.2218 L19.6479,30.2218 C18.5919,30.2218 17.7329,29.3638 17.7329,28.3078 L17.7329,28.3078 Z M45.9629,22.2298 C45.9629,33.3838 36.8889,42.4588 25.7349,42.4588 C22.5659,42.4588 19.5309,41.7468 16.7129,40.3438 L17.6059,38.5528 C20.1429,39.8178 22.8779,40.4588 25.7349,40.4588 C35.7859,40.4588 43.9629,32.2808 43.9629,22.2298 C43.9629,12.1778 35.7859,3.9998 25.7349,3.9998 C23.2099,3.9998 20.7679,4.5078 18.4779,5.5078 L17.6769,3.6748 C20.2219,2.5638 22.9329,1.9998 25.7349,1.9998 C36.8889,1.9998 45.9629,11.0748 45.9629,22.2298 L45.9629,22.2298 Z" id="Amazon-Rekognition_Amazon-Rekognition-image_Resource-Icon_light-bg" fill="#000000"></path>
    </g><g transform="translate(12vw, 80vh)" id="svgGroup" stroke-linecap="round" fill-rule="evenodd" font-size="9pt" stroke="#000" stroke-width="0.25mm" fill="#000" style="stroke:#000;stroke-width:0.25mm;fill:#000"><path d="M 51.974 1.995 L 52.743 1.995 L 52.765 2.522 Q 53.288 1.907 54.176 1.907 A 2.009 2.009 0 0 1 54.687 1.968 A 1.244 1.244 0 0 1 55.534 2.672 A 1.801 1.801 0 0 1 56.151 2.118 A 1.65 1.65 0 0 1 56.68 1.937 A 2.209 2.209 0 0 1 57.05 1.907 A 2.119 2.119 0 0 1 57.694 1.997 Q 58.62 2.292 58.641 3.564 L 58.641 6.75 L 57.828 6.75 L 57.828 3.612 A 1.781 1.781 0 0 0 57.807 3.332 Q 57.784 3.185 57.733 3.067 A 0.758 0.758 0 0 0 57.595 2.85 A 0.68 0.68 0 0 0 57.342 2.682 Q 57.13 2.597 56.814 2.597 A 1.245 1.245 0 0 0 56.447 2.648 A 1.008 1.008 0 0 0 56.061 2.867 A 1.042 1.042 0 0 0 55.747 3.404 A 1.41 1.41 0 0 0 55.714 3.595 L 55.714 6.75 L 54.896 6.75 L 54.896 3.634 A 1.532 1.532 0 0 0 54.848 3.23 Q 54.721 2.768 54.264 2.643 A 1.457 1.457 0 0 0 53.881 2.597 Q 53.108 2.597 52.807 3.234 A 1.459 1.459 0 0 0 52.787 3.278 L 52.787 6.75 L 51.974 6.75 L 51.974 1.995 Z M 13.17 6.75 L 11.514 4.548 L 11.004 5.08 L 11.004 6.75 L 10.191 6.75 L 10.191 0 L 11.004 0 L 11.004 4.083 L 11.439 3.56 L 12.92 1.995 L 13.909 1.995 L 12.059 3.981 L 14.124 6.75 L 13.17 6.75 Z M 3.74 6.75 L 2.351 4.162 L 0.848 4.162 L 0.848 6.75 L 0 6.75 L 0 0.352 L 2.118 0.352 A 3.809 3.809 0 0 1 2.76 0.402 Q 3.102 0.461 3.376 0.587 A 1.789 1.789 0 0 1 3.781 0.844 A 1.588 1.588 0 0 1 4.307 1.732 A 2.453 2.453 0 0 1 4.364 2.276 A 1.864 1.864 0 0 1 4.273 2.868 A 1.64 1.64 0 0 1 4.041 3.318 A 1.849 1.849 0 0 1 3.382 3.875 A 2.342 2.342 0 0 1 3.142 3.981 L 4.645 6.697 L 4.645 6.75 L 3.74 6.75 Z M 22.922 2.522 L 22.961 1.995 L 23.704 1.995 L 23.704 6.636 A 2.511 2.511 0 0 1 23.633 7.249 A 1.738 1.738 0 0 1 23.157 8.09 A 1.834 1.834 0 0 1 22.227 8.57 A 2.671 2.671 0 0 1 21.687 8.622 A 2.446 2.446 0 0 1 20.681 8.402 A 2.003 2.003 0 0 1 20.27 8.161 A 1.563 1.563 0 0 1 19.929 7.8 L 20.351 7.313 A 1.889 1.889 0 0 0 20.786 7.712 A 1.514 1.514 0 0 0 21.63 7.958 A 1.695 1.695 0 0 0 22.007 7.919 Q 22.275 7.858 22.469 7.702 A 1.037 1.037 0 0 0 22.555 7.625 A 1.09 1.09 0 0 0 22.832 7.132 Q 22.879 6.959 22.886 6.752 A 2.134 2.134 0 0 0 22.887 6.684 L 22.887 6.275 A 1.601 1.601 0 0 1 21.835 6.821 A 2.279 2.279 0 0 1 21.555 6.838 A 1.672 1.672 0 0 1 20.8 6.67 Q 20.478 6.51 20.228 6.197 A 2.14 2.14 0 0 1 20.204 6.166 A 2.316 2.316 0 0 1 19.821 5.386 Q 19.688 4.922 19.688 4.333 Q 19.688 3.472 19.996 2.884 A 2.096 2.096 0 0 1 20.202 2.564 Q 20.716 1.907 21.564 1.907 A 1.971 1.971 0 0 1 22.163 1.994 A 1.55 1.55 0 0 1 22.922 2.522 Z M 67.803 2.522 L 67.843 1.995 L 68.585 1.995 L 68.585 6.636 A 2.511 2.511 0 0 1 68.515 7.249 A 1.738 1.738 0 0 1 68.038 8.09 A 1.834 1.834 0 0 1 67.108 8.57 A 2.671 2.671 0 0 1 66.568 8.622 A 2.446 2.446 0 0 1 65.562 8.402 A 2.003 2.003 0 0 1 65.152 8.161 A 1.563 1.563 0 0 1 64.811 7.8 L 65.232 7.313 A 1.889 1.889 0 0 0 65.667 7.712 A 1.514 1.514 0 0 0 66.511 7.958 A 1.695 1.695 0 0 0 66.888 7.919 Q 67.157 7.858 67.351 7.702 A 1.037 1.037 0 0 0 67.436 7.625 A 1.09 1.09 0 0 0 67.713 7.132 Q 67.76 6.959 67.767 6.752 A 2.134 2.134 0 0 0 67.768 6.684 L 67.768 6.275 A 1.601 1.601 0 0 1 66.716 6.821 A 2.279 2.279 0 0 1 66.437 6.838 A 1.672 1.672 0 0 1 65.681 6.67 Q 65.359 6.51 65.11 6.197 A 2.14 2.14 0 0 1 65.085 6.166 A 2.316 2.316 0 0 1 64.702 5.386 Q 64.569 4.922 64.569 4.333 Q 64.569 3.472 64.877 2.884 A 2.096 2.096 0 0 1 65.083 2.564 Q 65.597 1.907 66.445 1.907 A 1.971 1.971 0 0 1 67.044 1.994 A 1.55 1.55 0 0 1 67.803 2.522 Z M 24.93 1.995 L 25.699 1.995 L 25.726 2.593 Q 26.262 1.918 27.122 1.907 A 2.234 2.234 0 0 1 27.149 1.907 A 1.905 1.905 0 0 1 27.783 2.004 Q 28.625 2.3 28.668 3.506 A 3.668 3.668 0 0 1 28.67 3.608 L 28.67 6.75 L 27.857 6.75 L 27.857 3.604 A 1.837 1.837 0 0 0 27.835 3.324 Q 27.784 3.017 27.622 2.843 Q 27.436 2.645 27.082 2.606 A 1.66 1.66 0 0 0 26.903 2.597 A 1.253 1.253 0 0 0 26.489 2.664 A 1.123 1.123 0 0 0 26.209 2.808 A 1.432 1.432 0 0 0 25.743 3.362 L 25.743 6.75 L 24.93 6.75 L 24.93 1.995 Z M 42.337 1.995 L 43.106 1.995 L 43.132 2.593 Q 43.669 1.918 44.529 1.907 A 2.234 2.234 0 0 1 44.556 1.907 A 1.905 1.905 0 0 1 45.19 2.004 Q 46.032 2.3 46.074 3.506 A 3.668 3.668 0 0 1 46.077 3.608 L 46.077 6.75 L 45.264 6.75 L 45.264 3.604 A 1.837 1.837 0 0 0 45.241 3.324 Q 45.191 3.017 45.029 2.843 Q 44.842 2.645 44.489 2.606 A 1.66 1.66 0 0 0 44.31 2.597 A 1.253 1.253 0 0 0 43.896 2.664 A 1.123 1.123 0 0 0 43.616 2.808 A 1.432 1.432 0 0 0 43.15 3.362 L 43.15 6.75 L 42.337 6.75 L 42.337 1.995 Z M 63.655 6.75 L 62.802 6.75 A 0.632 0.632 0 0 1 62.767 6.66 Q 62.736 6.562 62.711 6.41 A 3.997 3.997 0 0 1 62.688 6.249 Q 62.121 6.838 61.334 6.838 A 2.033 2.033 0 0 1 60.805 6.772 A 1.529 1.529 0 0 1 60.181 6.44 Q 59.73 6.042 59.73 5.432 Q 59.73 4.689 60.295 4.278 Q 60.86 3.867 61.884 3.867 L 62.675 3.867 L 62.675 3.494 A 1.152 1.152 0 0 0 62.639 3.199 A 0.828 0.828 0 0 0 62.42 2.815 Q 62.204 2.6 61.813 2.568 A 1.748 1.748 0 0 0 61.668 2.562 Q 61.233 2.562 60.939 2.782 Q 60.645 3.001 60.645 3.313 L 59.827 3.313 A 1.041 1.041 0 0 1 59.952 2.825 A 1.409 1.409 0 0 1 60.08 2.626 Q 60.333 2.294 60.765 2.101 A 2.249 2.249 0 0 1 61.541 1.913 A 2.669 2.669 0 0 1 61.717 1.907 A 2.65 2.65 0 0 1 62.234 1.955 Q 62.541 2.016 62.78 2.156 A 1.439 1.439 0 0 1 63.004 2.318 A 1.396 1.396 0 0 1 63.458 3.144 A 1.998 1.998 0 0 1 63.488 3.45 L 63.488 5.638 Q 63.488 6.073 63.561 6.39 A 1.707 1.707 0 0 0 63.655 6.68 L 63.655 6.75 Z M 5.212 4.504 L 5.212 4.355 A 3.17 3.17 0 0 1 5.288 3.646 A 2.581 2.581 0 0 1 5.482 3.092 A 2.191 2.191 0 0 1 5.93 2.466 A 2.033 2.033 0 0 1 6.238 2.221 Q 6.724 1.907 7.291 1.907 A 2.254 2.254 0 0 1 7.904 1.986 A 1.639 1.639 0 0 1 8.732 2.518 Q 9.246 3.129 9.246 4.267 L 9.246 4.605 L 6.025 4.605 A 2.111 2.111 0 0 0 6.096 5.114 A 1.516 1.516 0 0 0 6.436 5.741 A 1.282 1.282 0 0 0 7.37 6.173 A 1.652 1.652 0 0 0 7.436 6.174 A 1.763 1.763 0 0 0 7.764 6.145 Q 7.988 6.103 8.165 5.999 A 1.827 1.827 0 0 0 8.674 5.551 A 2.068 2.068 0 0 0 8.688 5.533 L 9.185 5.919 A 1.926 1.926 0 0 1 7.785 6.811 A 2.749 2.749 0 0 1 7.392 6.838 A 2.394 2.394 0 0 1 6.64 6.725 A 1.974 1.974 0 0 1 5.818 6.203 Q 5.212 5.568 5.212 4.504 Z M 69.605 4.504 L 69.605 4.355 A 3.17 3.17 0 0 1 69.681 3.646 A 2.581 2.581 0 0 1 69.875 3.092 A 2.191 2.191 0 0 1 70.323 2.466 A 2.033 2.033 0 0 1 70.631 2.221 Q 71.117 1.907 71.684 1.907 A 2.254 2.254 0 0 1 72.297 1.986 A 1.639 1.639 0 0 1 73.125 2.518 Q 73.639 3.129 73.639 4.267 L 73.639 4.605 L 70.418 4.605 A 2.111 2.111 0 0 0 70.489 5.114 A 1.516 1.516 0 0 0 70.829 5.741 A 1.282 1.282 0 0 0 71.763 6.173 A 1.652 1.652 0 0 0 71.829 6.174 A 1.763 1.763 0 0 0 72.157 6.145 Q 72.381 6.103 72.558 5.999 A 1.827 1.827 0 0 0 73.067 5.551 A 2.068 2.068 0 0 0 73.081 5.533 L 73.578 5.919 A 1.926 1.926 0 0 1 72.178 6.811 A 2.749 2.749 0 0 1 71.785 6.838 A 2.394 2.394 0 0 1 71.033 6.725 A 1.974 1.974 0 0 1 70.211 6.203 Q 69.605 5.568 69.605 4.504 Z M 32.37 0.844 L 33.183 0.844 L 33.183 1.995 L 34.071 1.995 L 34.071 2.624 L 33.183 2.624 L 33.183 5.572 Q 33.183 5.858 33.302 6.001 Q 33.42 6.144 33.706 6.144 A 1.046 1.046 0 0 0 33.804 6.138 Q 33.906 6.129 34.046 6.101 A 4.024 4.024 0 0 0 34.093 6.091 L 34.093 6.75 A 2.463 2.463 0 0 1 33.66 6.829 A 2.157 2.157 0 0 1 33.469 6.838 Q 33.022 6.838 32.755 6.616 A 0.856 0.856 0 0 1 32.647 6.508 Q 32.42 6.238 32.379 5.78 A 2.351 2.351 0 0 1 32.37 5.572 L 32.37 2.624 L 31.504 2.624 L 31.504 1.995 L 32.37 1.995 L 32.37 0.844 Z M 14.533 4.386 L 14.533 4.329 A 3.057 3.057 0 0 1 14.62 3.587 A 2.573 2.573 0 0 1 14.807 3.072 A 2.16 2.16 0 0 1 15.222 2.486 A 1.957 1.957 0 0 1 15.572 2.21 A 2.036 2.036 0 0 1 16.516 1.913 A 2.491 2.491 0 0 1 16.69 1.907 A 2.277 2.277 0 0 1 17.444 2.027 A 1.937 1.937 0 0 1 18.261 2.58 A 2.29 2.29 0 0 1 18.78 3.608 A 3.373 3.373 0 0 1 18.861 4.368 L 18.861 4.425 A 3.114 3.114 0 0 1 18.782 5.142 A 2.577 2.577 0 0 1 18.595 5.671 A 2.056 2.056 0 0 1 18.068 6.361 A 2.001 2.001 0 0 1 17.835 6.53 A 2.045 2.045 0 0 1 16.915 6.829 A 2.529 2.529 0 0 1 16.699 6.838 A 2.262 2.262 0 0 1 15.949 6.718 A 1.938 1.938 0 0 1 15.133 6.166 A 2.297 2.297 0 0 1 14.607 5.111 A 3.357 3.357 0 0 1 14.533 4.386 Z M 36.989 4.386 L 36.989 4.329 A 3.057 3.057 0 0 1 37.076 3.587 A 2.573 2.573 0 0 1 37.263 3.072 A 2.16 2.16 0 0 1 37.678 2.486 A 1.957 1.957 0 0 1 38.028 2.21 A 2.036 2.036 0 0 1 38.972 1.913 A 2.491 2.491 0 0 1 39.146 1.907 A 2.277 2.277 0 0 1 39.9 2.027 A 1.937 1.937 0 0 1 40.718 2.58 A 2.29 2.29 0 0 1 41.237 3.608 A 3.373 3.373 0 0 1 41.317 4.368 L 41.317 4.425 A 3.114 3.114 0 0 1 41.238 5.142 A 2.577 2.577 0 0 1 41.052 5.671 A 2.056 2.056 0 0 1 40.524 6.361 A 2.001 2.001 0 0 1 40.291 6.53 A 2.045 2.045 0 0 1 39.371 6.829 A 2.529 2.529 0 0 1 39.155 6.838 A 2.262 2.262 0 0 1 38.405 6.718 A 1.938 1.938 0 0 1 37.589 6.166 A 2.297 2.297 0 0 1 37.063 5.111 A 3.357 3.357 0 0 1 36.989 4.386 Z M 50.563 0.352 L 50.563 6.75 L 49.72 6.75 L 49.72 0.352 L 50.563 0.352 Z M 30.779 1.995 L 30.779 6.75 L 29.966 6.75 L 29.966 1.995 L 30.779 1.995 Z M 35.903 1.995 L 35.903 6.75 L 35.09 6.75 L 35.09 1.995 L 35.903 1.995 Z M 15.35 4.425 A 2.772 2.772 0 0 0 15.397 4.954 Q 15.458 5.264 15.595 5.51 A 1.545 1.545 0 0 0 15.717 5.695 Q 16.084 6.174 16.699 6.174 A 1.269 1.269 0 0 0 17.189 6.083 Q 17.468 5.967 17.671 5.706 A 1.471 1.471 0 0 0 17.684 5.689 A 1.648 1.648 0 0 0 17.938 5.171 Q 18.007 4.945 18.033 4.672 A 3.655 3.655 0 0 0 18.048 4.329 A 2.687 2.687 0 0 0 17.997 3.789 Q 17.929 3.459 17.772 3.2 A 1.586 1.586 0 0 0 17.677 3.061 A 1.231 1.231 0 0 0 17.262 2.705 Q 17.009 2.575 16.69 2.575 Q 16.101 2.575 15.734 3.035 A 1.515 1.515 0 0 0 15.719 3.054 A 1.589 1.589 0 0 0 15.467 3.552 Q 15.398 3.772 15.369 4.039 A 3.676 3.676 0 0 0 15.35 4.425 Z M 37.806 4.425 A 2.772 2.772 0 0 0 37.854 4.954 Q 37.914 5.264 38.051 5.51 A 1.545 1.545 0 0 0 38.173 5.695 Q 38.54 6.174 39.155 6.174 A 1.269 1.269 0 0 0 39.645 6.083 Q 39.924 5.967 40.127 5.706 A 1.471 1.471 0 0 0 40.14 5.689 A 1.648 1.648 0 0 0 40.395 5.171 Q 40.463 4.945 40.489 4.672 A 3.655 3.655 0 0 0 40.504 4.329 A 2.687 2.687 0 0 0 40.453 3.789 Q 40.386 3.459 40.228 3.2 A 1.586 1.586 0 0 0 40.133 3.061 A 1.231 1.231 0 0 0 39.718 2.705 Q 39.465 2.575 39.146 2.575 Q 38.557 2.575 38.19 3.035 A 1.515 1.515 0 0 0 38.175 3.054 A 1.589 1.589 0 0 0 37.923 3.552 Q 37.854 3.772 37.825 4.039 A 3.676 3.676 0 0 0 37.806 4.425 Z M 22.887 5.449 L 22.887 3.278 A 1.439 1.439 0 0 0 22.586 2.891 Q 22.282 2.62 21.842 2.599 A 1.578 1.578 0 0 0 21.766 2.597 Q 21.174 2.597 20.84 3.056 A 1.51 1.51 0 0 0 20.63 3.484 Q 20.564 3.689 20.533 3.939 A 3.955 3.955 0 0 0 20.505 4.425 Q 20.505 5.229 20.834 5.689 Q 21.164 6.148 21.757 6.148 A 1.32 1.32 0 0 0 22.267 6.054 Q 22.659 5.891 22.887 5.449 Z M 67.768 5.449 L 67.768 3.278 A 1.439 1.439 0 0 0 67.467 2.891 Q 67.163 2.62 66.723 2.599 A 1.578 1.578 0 0 0 66.647 2.597 Q 66.056 2.597 65.722 3.056 A 1.51 1.51 0 0 0 65.511 3.484 Q 65.445 3.689 65.414 3.939 A 3.955 3.955 0 0 0 65.386 4.425 Q 65.386 5.229 65.716 5.689 Q 66.045 6.148 66.639 6.148 A 1.32 1.32 0 0 0 67.148 6.054 Q 67.54 5.891 67.768 5.449 Z M 0.848 1.046 L 0.848 3.472 L 2.145 3.472 Q 2.685 3.472 3.035 3.231 A 1.174 1.174 0 0 0 3.144 3.146 A 1.069 1.069 0 0 0 3.51 2.409 A 1.486 1.486 0 0 0 3.516 2.276 Q 3.516 1.734 3.22 1.423 A 1 1 0 0 0 3.162 1.367 Q 2.808 1.05 2.14 1.046 L 0.848 1.046 Z M 62.675 5.418 L 62.675 4.443 L 62.038 4.443 Q 60.543 4.443 60.543 5.317 Q 60.543 5.7 60.798 5.915 A 0.893 0.893 0 0 0 61.212 6.108 A 1.259 1.259 0 0 0 61.453 6.13 A 1.429 1.429 0 0 0 62.178 5.933 A 1.335 1.335 0 0 0 62.474 5.705 A 1.108 1.108 0 0 0 62.675 5.418 Z M 6.051 3.938 L 8.433 3.938 L 8.433 3.876 Q 8.407 3.417 8.236 3.111 A 1.13 1.13 0 0 0 8.099 2.916 A 0.983 0.983 0 0 0 7.445 2.584 A 1.39 1.39 0 0 0 7.291 2.575 A 1.106 1.106 0 0 0 6.768 2.698 A 1.14 1.14 0 0 0 6.464 2.933 A 1.417 1.417 0 0 0 6.188 3.379 Q 6.114 3.563 6.074 3.785 A 2.741 2.741 0 0 0 6.051 3.938 Z M 70.444 3.938 L 72.826 3.938 L 72.826 3.876 Q 72.8 3.417 72.629 3.111 A 1.13 1.13 0 0 0 72.492 2.916 A 0.983 0.983 0 0 0 71.838 2.584 A 1.39 1.39 0 0 0 71.684 2.575 A 1.106 1.106 0 0 0 71.161 2.698 A 1.14 1.14 0 0 0 70.857 2.933 A 1.417 1.417 0 0 0 70.581 3.379 Q 70.507 3.563 70.467 3.785 A 2.741 2.741 0 0 0 70.444 3.938 Z M 29.9 0.734 Q 29.9 0.536 30.021 0.4 Q 30.133 0.274 30.345 0.264 A 0.783 0.783 0 0 1 30.379 0.264 Q 30.617 0.264 30.74 0.4 A 0.474 0.474 0 0 1 30.862 0.703 A 0.614 0.614 0 0 1 30.863 0.734 A 0.523 0.523 0 0 1 30.838 0.9 A 0.442 0.442 0 0 1 30.74 1.063 Q 30.627 1.184 30.419 1.194 A 0.803 0.803 0 0 1 30.379 1.195 Q 30.207 1.195 30.096 1.126 A 0.362 0.362 0 0 1 30.021 1.063 A 0.456 0.456 0 0 1 29.903 0.788 A 0.605 0.605 0 0 1 29.9 0.734 Z M 35.024 0.734 Q 35.024 0.536 35.145 0.4 Q 35.257 0.274 35.469 0.264 A 0.783 0.783 0 0 1 35.503 0.264 Q 35.741 0.264 35.864 0.4 A 0.474 0.474 0 0 1 35.986 0.703 A 0.614 0.614 0 0 1 35.987 0.734 A 0.523 0.523 0 0 1 35.962 0.9 A 0.442 0.442 0 0 1 35.864 1.063 Q 35.751 1.184 35.543 1.194 A 0.803 0.803 0 0 1 35.503 1.195 Q 35.331 1.195 35.22 1.126 A 0.362 0.362 0 0 1 35.145 1.063 A 0.456 0.456 0 0 1 35.027 0.788 A 0.605 0.605 0 0 1 35.024 0.734 Z" vector-effect="non-scaling-stroke"/></g><g transform="translate(33vw, 90vh)" id="svgGroup" stroke-linecap="round" fill-rule="evenodd" font-size="9pt" stroke="#000" stroke-width="0.25mm" fill="#000" style="stroke:#000;stroke-width:0.25mm;fill:#000"><path d="M 25.607 0 L 25.607 2.571 A 1.767 1.767 0 0 1 26.273 2.053 A 1.832 1.832 0 0 1 27.013 1.907 A 1.905 1.905 0 0 1 27.647 2.004 Q 28.489 2.3 28.531 3.506 A 3.668 3.668 0 0 1 28.534 3.608 L 28.534 6.75 L 27.721 6.75 L 27.721 3.604 A 1.837 1.837 0 0 0 27.698 3.324 Q 27.648 3.017 27.486 2.843 Q 27.299 2.645 26.946 2.606 A 1.66 1.66 0 0 0 26.767 2.597 A 1.253 1.253 0 0 0 26.353 2.664 A 1.123 1.123 0 0 0 26.073 2.808 A 1.432 1.432 0 0 0 25.607 3.362 L 25.607 6.75 L 24.794 6.75 L 24.794 0 L 25.607 0 Z M 22.786 2.522 L 22.825 1.995 L 23.568 1.995 L 23.568 6.636 A 2.511 2.511 0 0 1 23.497 7.249 A 1.738 1.738 0 0 1 23.021 8.09 A 1.834 1.834 0 0 1 22.091 8.57 A 2.671 2.671 0 0 1 21.551 8.622 A 2.446 2.446 0 0 1 20.544 8.402 A 2.003 2.003 0 0 1 20.134 8.161 A 1.563 1.563 0 0 1 19.793 7.8 L 20.215 7.313 A 1.889 1.889 0 0 0 20.649 7.712 A 1.514 1.514 0 0 0 21.494 7.958 A 1.695 1.695 0 0 0 21.871 7.919 Q 22.139 7.858 22.333 7.702 A 1.037 1.037 0 0 0 22.419 7.625 A 1.09 1.09 0 0 0 22.696 7.132 Q 22.743 6.959 22.749 6.752 A 2.134 2.134 0 0 0 22.75 6.684 L 22.75 6.275 A 1.601 1.601 0 0 1 21.698 6.821 A 2.279 2.279 0 0 1 21.419 6.838 A 1.672 1.672 0 0 1 20.664 6.67 Q 20.342 6.51 20.092 6.197 A 2.14 2.14 0 0 1 20.068 6.166 A 2.316 2.316 0 0 1 19.684 5.386 Q 19.551 4.922 19.551 4.333 Q 19.551 3.472 19.86 2.884 A 2.096 2.096 0 0 1 20.065 2.564 Q 20.58 1.907 21.428 1.907 A 1.971 1.971 0 0 1 22.027 1.994 A 1.55 1.55 0 0 1 22.786 2.522 Z M 13.693 0.352 L 13.693 6.06 L 16.726 6.06 L 16.726 6.75 L 12.845 6.75 L 12.845 0.352 L 13.693 0.352 Z M 3.731 0.352 L 3.731 4.601 L 4.619 4.601 L 4.619 5.265 L 3.731 5.265 L 3.731 6.75 L 2.914 6.75 L 2.914 5.265 L 0 5.265 L 0 4.786 L 2.865 0.352 L 3.731 0.352 Z M 9.129 2.592 A 1.544 1.544 0 0 0 9.233 2.021 A 2.226 2.226 0 0 0 9.211 1.707 A 1.566 1.566 0 0 0 8.712 0.738 A 1.754 1.754 0 0 0 7.946 0.333 A 2.443 2.443 0 0 0 7.348 0.264 A 2.539 2.539 0 0 0 6.838 0.312 A 1.767 1.767 0 0 0 5.981 0.738 Q 5.462 1.213 5.462 2.021 A 1.808 1.808 0 0 0 5.463 2.058 A 1.499 1.499 0 0 0 5.708 2.87 A 1.626 1.626 0 0 0 5.87 3.077 A 1.726 1.726 0 0 0 6.381 3.454 A 2.119 2.119 0 0 0 6.281 3.5 A 1.738 1.738 0 0 0 5.596 4.087 A 1.629 1.629 0 0 0 5.313 5.023 A 2.272 2.272 0 0 0 5.323 5.237 A 1.63 1.63 0 0 0 5.869 6.344 A 1.895 1.895 0 0 0 6.719 6.771 A 2.797 2.797 0 0 0 7.348 6.838 A 2.796 2.796 0 0 0 7.947 6.777 A 1.925 1.925 0 0 0 8.822 6.346 A 1.578 1.578 0 0 0 9.297 5.62 A 1.989 1.989 0 0 0 9.382 5.023 A 1.581 1.581 0 0 0 9.09 4.087 Q 8.798 3.674 8.297 3.458 Q 8.728 3.248 8.98 2.874 A 1.449 1.449 0 0 0 9.129 2.592 Z M 30.041 0.844 L 30.854 0.844 L 30.854 1.995 L 31.742 1.995 L 31.742 2.624 L 30.854 2.624 L 30.854 5.572 Q 30.854 5.858 30.973 6.001 Q 31.091 6.144 31.377 6.144 A 1.046 1.046 0 0 0 31.474 6.138 Q 31.577 6.129 31.717 6.101 A 4.024 4.024 0 0 0 31.764 6.091 L 31.764 6.75 A 2.463 2.463 0 0 1 31.331 6.829 A 2.157 2.157 0 0 1 31.14 6.838 Q 30.693 6.838 30.426 6.616 A 0.856 0.856 0 0 1 30.318 6.508 Q 30.09 6.238 30.05 5.78 A 2.351 2.351 0 0 1 30.041 5.572 L 30.041 2.624 L 29.175 2.624 L 29.175 1.995 L 30.041 1.995 L 30.041 0.844 Z M 18.444 1.995 L 18.444 6.75 L 17.631 6.75 L 17.631 1.995 L 18.444 1.995 Z M 22.75 5.449 L 22.75 3.278 A 1.439 1.439 0 0 0 22.45 2.891 Q 22.146 2.62 21.706 2.599 A 1.578 1.578 0 0 0 21.63 2.597 Q 21.038 2.597 20.704 3.056 A 1.51 1.51 0 0 0 20.493 3.484 Q 20.428 3.689 20.397 3.939 A 3.955 3.955 0 0 0 20.369 4.425 Q 20.369 5.229 20.698 5.689 Q 21.028 6.148 21.621 6.148 A 1.32 1.32 0 0 0 22.131 6.054 Q 22.522 5.891 22.75 5.449 Z M 2.817 1.639 L 0.923 4.601 L 2.914 4.601 L 2.914 1.463 L 2.817 1.639 Z M 8.569 5.005 A 1.375 1.375 0 0 0 8.51 4.592 A 1.109 1.109 0 0 0 8.229 4.131 A 1.148 1.148 0 0 0 7.557 3.807 A 1.593 1.593 0 0 0 7.339 3.792 A 1.466 1.466 0 0 0 6.95 3.841 A 1.086 1.086 0 0 0 6.458 4.126 A 1.123 1.123 0 0 0 6.144 4.762 A 1.572 1.572 0 0 0 6.126 5.005 A 1.48 1.48 0 0 0 6.168 5.367 A 1.019 1.019 0 0 0 6.449 5.862 Q 6.755 6.158 7.288 6.173 A 2.053 2.053 0 0 0 7.348 6.174 Q 7.841 6.174 8.151 5.94 A 1.018 1.018 0 0 0 8.244 5.86 A 1.041 1.041 0 0 0 8.544 5.292 A 1.518 1.518 0 0 0 8.569 5.005 Z M 7.348 0.932 A 1.259 1.259 0 0 0 6.995 0.979 A 0.973 0.973 0 0 0 6.572 1.228 Q 6.275 1.525 6.275 2.035 A 1.325 1.325 0 0 0 6.32 2.387 A 0.994 0.994 0 0 0 6.568 2.823 A 0.974 0.974 0 0 0 7.13 3.108 A 1.382 1.382 0 0 0 7.348 3.125 A 1.279 1.279 0 0 0 7.692 3.08 A 0.952 0.952 0 0 0 8.128 2.823 A 1.018 1.018 0 0 0 8.403 2.26 A 1.426 1.426 0 0 0 8.42 2.035 A 1.282 1.282 0 0 0 8.37 1.668 A 1.013 1.013 0 0 0 8.117 1.239 Q 7.813 0.932 7.348 0.932 Z M 17.565 0.734 Q 17.565 0.536 17.686 0.4 Q 17.798 0.274 18.009 0.264 A 0.783 0.783 0 0 1 18.044 0.264 Q 18.281 0.264 18.404 0.4 A 0.474 0.474 0 0 1 18.527 0.703 A 0.614 0.614 0 0 1 18.527 0.734 A 0.523 0.523 0 0 1 18.502 0.9 A 0.442 0.442 0 0 1 18.404 1.063 Q 18.292 1.184 18.084 1.194 A 0.803 0.803 0 0 1 18.044 1.195 Q 17.872 1.195 17.761 1.126 A 0.362 0.362 0 0 1 17.686 1.063 A 0.456 0.456 0 0 1 17.567 0.788 A 0.605 0.605 0 0 1 17.565 0.734 Z" vector-effect="non-scaling-stroke"/></g>
</svgversion="1.0" encoding="UTF-8"?>
<svg width="48px" height="48px" viewBox="0 0 48 48" version="1.1" xmlns="http://www.w3.org/2000/svg" xmlns:xlink="http://www.w3.org/1999/xlink">
    <title>Icon-Resource/Machine-Learning/Res_Amazon-Rekognition_Image_48_Light</title>
    <g id="Icon-Resource/Machine-Learning/Res_Amazon-Rekognition_Image_48" stroke="none" stroke-width="1" fill="none" fill-rule="evenodd">
        <path transform="translate(0vw, 0vh), scale(.65)" d="M17.0609,34.4258 C15.6959,33.4518 14.5009,32.2578 13.5289,30.8918 L4.7299,39.6928 C3.7559,40.6658 3.7559,42.2508 4.7299,43.2248 C5.6709,44.1658 7.3219,44.1658 8.2629,43.2248 L17.0609,34.4258 Z M12.7489,22.2298 C12.7489,29.3888 18.5749,35.2138 25.7349,35.2138 C32.8939,35.2138 38.7189,29.3888 38.7189,22.2298 C38.7189,15.0698 32.8939,9.2438 25.7349,9.2438 C18.5749,9.2438 12.7489,15.0698 12.7489,22.2298 L12.7489,22.2298 Z M18.8099,35.5048 L9.6769,44.6388 C8.8299,45.4878 7.6999,45.9548 6.4969,45.9548 C5.2929,45.9548 4.1639,45.4878 3.3159,44.6388 C1.5619,42.8848 1.5619,40.0318 3.3159,38.2788 L12.4519,29.1408 C11.3699,27.0708 10.7489,24.7228 10.7489,22.2298 C10.7489,13.9668 17.4719,7.2438 25.7349,7.2438 C33.9979,7.2438 40.7189,13.9668 40.7189,22.2298 C40.7189,30.4918 33.9979,37.2138 25.7349,37.2138 C23.2359,37.2138 20.8829,36.5908 18.8099,35.5048 L18.8099,35.5048 Z M9.4089,30.3368 C8.1459,27.8268 7.5049,25.0998 7.5049,22.2298 C7.5049,19.1028 8.3099,16.0198 9.8319,13.3148 L8.0899,12.3338 C6.3989,15.3388 5.5049,18.7598 5.5049,22.2298 C5.5049,25.3698 6.2369,28.4848 7.6219,31.2358 L9.4089,30.3368 Z M28.7849,19.6068 C29.5079,19.6068 30.0959,19.0198 30.0959,18.2958 C30.0959,17.5718 29.5079,16.9848 28.7849,16.9848 C28.0599,16.9848 27.4729,17.5718 27.4729,18.2958 C27.4729,19.0198 28.0599,19.6068 28.7849,19.6068 L28.7849,19.6068 Z M19.7329,16.2368 L19.7329,25.6378 L24.0059,20.8588 C24.2639,20.5608 24.6529,20.4098 25.0629,20.3908 C25.4719,20.3968 25.8559,20.5828 26.1159,20.9008 L28.4549,23.7508 L31.7179,20.1548 L31.7179,16.2368 L19.7329,16.2368 Z M31.7179,28.2218 L31.7179,23.1298 L29.4649,25.6118 C29.2249,25.8988 28.8389,26.0768 28.4299,26.0768 L28.4199,26.0768 C28.0069,26.0738 27.6209,25.8888 27.3579,25.5688 L25.0229,22.7218 L20.1049,28.2218 L31.7179,28.2218 Z M17.7329,28.3078 L17.7329,16.1508 C17.7329,15.0958 18.5919,14.2368 19.6479,14.2368 L31.8039,14.2368 C32.8599,14.2368 33.7179,15.0958 33.7179,16.1508 L33.7179,28.3078 C33.7179,29.3638 32.8599,30.2218 31.8039,30.2218 L19.6479,30.2218 C18.5919,30.2218 17.7329,29.3638 17.7329,28.3078 L17.7329,28.3078 Z M45.9629,22.2298 C45.9629,33.3838 36.8889,42.4588 25.7349,42.4588 C22.5659,42.4588 19.5309,41.7468 16.7129,40.3438 L17.6059,38.5528 C20.1429,39.8178 22.8779,40.4588 25.7349,40.4588 C35.7859,40.4588 43.9629,32.2808 43.9629,22.2298 C43.9629,12.1778 35.7859,3.9998 25.7349,3.9998 C23.2099,3.9998 20.7679,4.5078 18.4779,5.5078 L17.6769,3.6748 C20.2219,2.5638 22.9329,1.9998 25.7349,1.9998 C36.8889,1.9998 45.9629,11.0748 45.9629,22.2298 L45.9629,22.2298 Z" id="Amazon-Rekognition_Amazon-Rekognition-image_Resource-Icon_light-bg" fill="#000000"></path>
    </g><g transform="translate(12vw, 80vh)" id="svgGroup" stroke-linecap="round" fill-rule="evenodd" font-size="9pt" stroke="#000" stroke-width="0.25mm" fill="#000" style="stroke:#000;stroke-width:0.25mm;fill:#000"><path d="M 51.974 1.995 L 52.743 1.995 L 52.765 2.522 Q 53.288 1.907 54.176 1.907 A 2.009 2.009 0 0 1 54.687 1.968 A 1.244 1.244 0 0 1 55.534 2.672 A 1.801 1.801 0 0 1 56.151 2.118 A 1.65 1.65 0 0 1 56.68 1.937 A 2.209 2.209 0 0 1 57.05 1.907 A 2.119 2.119 0 0 1 57.694 1.997 Q 58.62 2.292 58.641 3.564 L 58.641 6.75 L 57.828 6.75 L 57.828 3.612 A 1.781 1.781 0 0 0 57.807 3.332 Q 57.784 3.185 57.733 3.067 A 0.758 0.758 0 0 0 57.595 2.85 A 0.68 0.68 0 0 0 57.342 2.682 Q 57.13 2.597 56.814 2.597 A 1.245 1.245 0 0 0 56.447 2.648 A 1.008 1.008 0 0 0 56.061 2.867 A 1.042 1.042 0 0 0 55.747 3.404 A 1.41 1.41 0 0 0 55.714 3.595 L 55.714 6.75 L 54.896 6.75 L 54.896 3.634 A 1.532 1.532 0 0 0 54.848 3.23 Q 54.721 2.768 54.264 2.643 A 1.457 1.457 0 0 0 53.881 2.597 Q 53.108 2.597 52.807 3.234 A 1.459 1.459 0 0 0 52.787 3.278 L 52.787 6.75 L 51.974 6.75 L 51.974 1.995 Z M 13.17 6.75 L 11.514 4.548 L 11.004 5.08 L 11.004 6.75 L 10.191 6.75 L 10.191 0 L 11.004 0 L 11.004 4.083 L 11.439 3.56 L 12.92 1.995 L 13.909 1.995 L 12.059 3.981 L 14.124 6.75 L 13.17 6.75 Z M 3.74 6.75 L 2.351 4.162 L 0.848 4.162 L 0.848 6.75 L 0 6.75 L 0 0.352 L 2.118 0.352 A 3.809 3.809 0 0 1 2.76 0.402 Q 3.102 0.461 3.376 0.587 A 1.789 1.789 0 0 1 3.781 0.844 A 1.588 1.588 0 0 1 4.307 1.732 A 2.453 2.453 0 0 1 4.364 2.276 A 1.864 1.864 0 0 1 4.273 2.868 A 1.64 1.64 0 0 1 4.041 3.318 A 1.849 1.849 0 0 1 3.382 3.875 A 2.342 2.342 0 0 1 3.142 3.981 L 4.645 6.697 L 4.645 6.75 L 3.74 6.75 Z M 22.922 2.522 L 22.961 1.995 L 23.704 1.995 L 23.704 6.636 A 2.511 2.511 0 0 1 23.633 7.249 A 1.738 1.738 0 0 1 23.157 8.09 A 1.834 1.834 0 0 1 22.227 8.57 A 2.671 2.671 0 0 1 21.687 8.622 A 2.446 2.446 0 0 1 20.681 8.402 A 2.003 2.003 0 0 1 20.27 8.161 A 1.563 1.563 0 0 1 19.929 7.8 L 20.351 7.313 A 1.889 1.889 0 0 0 20.786 7.712 A 1.514 1.514 0 0 0 21.63 7.958 A 1.695 1.695 0 0 0 22.007 7.919 Q 22.275 7.858 22.469 7.702 A 1.037 1.037 0 0 0 22.555 7.625 A 1.09 1.09 0 0 0 22.832 7.132 Q 22.879 6.959 22.886 6.752 A 2.134 2.134 0 0 0 22.887 6.684 L 22.887 6.275 A 1.601 1.601 0 0 1 21.835 6.821 A 2.279 2.279 0 0 1 21.555 6.838 A 1.672 1.672 0 0 1 20.8 6.67 Q 20.478 6.51 20.228 6.197 A 2.14 2.14 0 0 1 20.204 6.166 A 2.316 2.316 0 0 1 19.821 5.386 Q 19.688 4.922 19.688 4.333 Q 19.688 3.472 19.996 2.884 A 2.096 2.096 0 0 1 20.202 2.564 Q 20.716 1.907 21.564 1.907 A 1.971 1.971 0 0 1 22.163 1.994 A 1.55 1.55 0 0 1 22.922 2.522 Z M 67.803 2.522 L 67.843 1.995 L 68.585 1.995 L 68.585 6.636 A 2.511 2.511 0 0 1 68.515 7.249 A 1.738 1.738 0 0 1 68.038 8.09 A 1.834 1.834 0 0 1 67.108 8.57 A 2.671 2.671 0 0 1 66.568 8.622 A 2.446 2.446 0 0 1 65.562 8.402 A 2.003 2.003 0 0 1 65.152 8.161 A 1.563 1.563 0 0 1 64.811 7.8 L 65.232 7.313 A 1.889 1.889 0 0 0 65.667 7.712 A 1.514 1.514 0 0 0 66.511 7.958 A 1.695 1.695 0 0 0 66.888 7.919 Q 67.157 7.858 67.351 7.702 A 1.037 1.037 0 0 0 67.436 7.625 A 1.09 1.09 0 0 0 67.713 7.132 Q 67.76 6.959 67.767 6.752 A 2.134 2.134 0 0 0 67.768 6.684 L 67.768 6.275 A 1.601 1.601 0 0 1 66.716 6.821 A 2.279 2.279 0 0 1 66.437 6.838 A 1.672 1.672 0 0 1 65.681 6.67 Q 65.359 6.51 65.11 6.197 A 2.14 2.14 0 0 1 65.085 6.166 A 2.316 2.316 0 0 1 64.702 5.386 Q 64.569 4.922 64.569 4.333 Q 64.569 3.472 64.877 2.884 A 2.096 2.096 0 0 1 65.083 2.564 Q 65.597 1.907 66.445 1.907 A 1.971 1.971 0 0 1 67.044 1.994 A 1.55 1.55 0 0 1 67.803 2.522 Z M 24.93 1.995 L 25.699 1.995 L 25.726 2.593 Q 26.262 1.918 27.122 1.907 A 2.234 2.234 0 0 1 27.149 1.907 A 1.905 1.905 0 0 1 27.783 2.004 Q 28.625 2.3 28.668 3.506 A 3.668 3.668 0 0 1 28.67 3.608 L 28.67 6.75 L 27.857 6.75 L 27.857 3.604 A 1.837 1.837 0 0 0 27.835 3.324 Q 27.784 3.017 27.622 2.843 Q 27.436 2.645 27.082 2.606 A 1.66 1.66 0 0 0 26.903 2.597 A 1.253 1.253 0 0 0 26.489 2.664 A 1.123 1.123 0 0 0 26.209 2.808 A 1.432 1.432 0 0 0 25.743 3.362 L 25.743 6.75 L 24.93 6.75 L 24.93 1.995 Z M 42.337 1.995 L 43.106 1.995 L 43.132 2.593 Q 43.669 1.918 44.529 1.907 A 2.234 2.234 0 0 1 44.556 1.907 A 1.905 1.905 0 0 1 45.19 2.004 Q 46.032 2.3 46.074 3.506 A 3.668 3.668 0 0 1 46.077 3.608 L 46.077 6.75 L 45.264 6.75 L 45.264 3.604 A 1.837 1.837 0 0 0 45.241 3.324 Q 45.191 3.017 45.029 2.843 Q 44.842 2.645 44.489 2.606 A 1.66 1.66 0 0 0 44.31 2.597 A 1.253 1.253 0 0 0 43.896 2.664 A 1.123 1.123 0 0 0 43.616 2.808 A 1.432 1.432 0 0 0 43.15 3.362 L 43.15 6.75 L 42.337 6.75 L 42.337 1.995 Z M 63.655 6.75 L 62.802 6.75 A 0.632 0.632 0 0 1 62.767 6.66 Q 62.736 6.562 62.711 6.41 A 3.997 3.997 0 0 1 62.688 6.249 Q 62.121 6.838 61.334 6.838 A 2.033 2.033 0 0 1 60.805 6.772 A 1.529 1.529 0 0 1 60.181 6.44 Q 59.73 6.042 59.73 5.432 Q 59.73 4.689 60.295 4.278 Q 60.86 3.867 61.884 3.867 L 62.675 3.867 L 62.675 3.494 A 1.152 1.152 0 0 0 62.639 3.199 A 0.828 0.828 0 0 0 62.42 2.815 Q 62.204 2.6 61.813 2.568 A 1.748 1.748 0 0 0 61.668 2.562 Q 61.233 2.562 60.939 2.782 Q 60.645 3.001 60.645 3.313 L 59.827 3.313 A 1.041 1.041 0 0 1 59.952 2.825 A 1.409 1.409 0 0 1 60.08 2.626 Q 60.333 2.294 60.765 2.101 A 2.249 2.249 0 0 1 61.541 1.913 A 2.669 2.669 0 0 1 61.717 1.907 A 2.65 2.65 0 0 1 62.234 1.955 Q 62.541 2.016 62.78 2.156 A 1.439 1.439 0 0 1 63.004 2.318 A 1.396 1.396 0 0 1 63.458 3.144 A 1.998 1.998 0 0 1 63.488 3.45 L 63.488 5.638 Q 63.488 6.073 63.561 6.39 A 1.707 1.707 0 0 0 63.655 6.68 L 63.655 6.75 Z M 5.212 4.504 L 5.212 4.355 A 3.17 3.17 0 0 1 5.288 3.646 A 2.581 2.581 0 0 1 5.482 3.092 A 2.191 2.191 0 0 1 5.93 2.466 A 2.033 2.033 0 0 1 6.238 2.221 Q 6.724 1.907 7.291 1.907 A 2.254 2.254 0 0 1 7.904 1.986 A 1.639 1.639 0 0 1 8.732 2.518 Q 9.246 3.129 9.246 4.267 L 9.246 4.605 L 6.025 4.605 A 2.111 2.111 0 0 0 6.096 5.114 A 1.516 1.516 0 0 0 6.436 5.741 A 1.282 1.282 0 0 0 7.37 6.173 A 1.652 1.652 0 0 0 7.436 6.174 A 1.763 1.763 0 0 0 7.764 6.145 Q 7.988 6.103 8.165 5.999 A 1.827 1.827 0 0 0 8.674 5.551 A 2.068 2.068 0 0 0 8.688 5.533 L 9.185 5.919 A 1.926 1.926 0 0 1 7.785 6.811 A 2.749 2.749 0 0 1 7.392 6.838 A 2.394 2.394 0 0 1 6.64 6.725 A 1.974 1.974 0 0 1 5.818 6.203 Q 5.212 5.568 5.212 4.504 Z M 69.605 4.504 L 69.605 4.355 A 3.17 3.17 0 0 1 69.681 3.646 A 2.581 2.581 0 0 1 69.875 3.092 A 2.191 2.191 0 0 1 70.323 2.466 A 2.033 2.033 0 0 1 70.631 2.221 Q 71.117 1.907 71.684 1.907 A 2.254 2.254 0 0 1 72.297 1.986 A 1.639 1.639 0 0 1 73.125 2.518 Q 73.639 3.129 73.639 4.267 L 73.639 4.605 L 70.418 4.605 A 2.111 2.111 0 0 0 70.489 5.114 A 1.516 1.516 0 0 0 70.829 5.741 A 1.282 1.282 0 0 0 71.763 6.173 A 1.652 1.652 0 0 0 71.829 6.174 A 1.763 1.763 0 0 0 72.157 6.145 Q 72.381 6.103 72.558 5.999 A 1.827 1.827 0 0 0 73.067 5.551 A 2.068 2.068 0 0 0 73.081 5.533 L 73.578 5.919 A 1.926 1.926 0 0 1 72.178 6.811 A 2.749 2.749 0 0 1 71.785 6.838 A 2.394 2.394 0 0 1 71.033 6.725 A 1.974 1.974 0 0 1 70.211 6.203 Q 69.605 5.568 69.605 4.504 Z M 32.37 0.844 L 33.183 0.844 L 33.183 1.995 L 34.071 1.995 L 34.071 2.624 L 33.183 2.624 L 33.183 5.572 Q 33.183 5.858 33.302 6.001 Q 33.42 6.144 33.706 6.144 A 1.046 1.046 0 0 0 33.804 6.138 Q 33.906 6.129 34.046 6.101 A 4.024 4.024 0 0 0 34.093 6.091 L 34.093 6.75 A 2.463 2.463 0 0 1 33.66 6.829 A 2.157 2.157 0 0 1 33.469 6.838 Q 33.022 6.838 32.755 6.616 A 0.856 0.856 0 0 1 32.647 6.508 Q 32.42 6.238 32.379 5.78 A 2.351 2.351 0 0 1 32.37 5.572 L 32.37 2.624 L 31.504 2.624 L 31.504 1.995 L 32.37 1.995 L 32.37 0.844 Z M 14.533 4.386 L 14.533 4.329 A 3.057 3.057 0 0 1 14.62 3.587 A 2.573 2.573 0 0 1 14.807 3.072 A 2.16 2.16 0 0 1 15.222 2.486 A 1.957 1.957 0 0 1 15.572 2.21 A 2.036 2.036 0 0 1 16.516 1.913 A 2.491 2.491 0 0 1 16.69 1.907 A 2.277 2.277 0 0 1 17.444 2.027 A 1.937 1.937 0 0 1 18.261 2.58 A 2.29 2.29 0 0 1 18.78 3.608 A 3.373 3.373 0 0 1 18.861 4.368 L 18.861 4.425 A 3.114 3.114 0 0 1 18.782 5.142 A 2.577 2.577 0 0 1 18.595 5.671 A 2.056 2.056 0 0 1 18.068 6.361 A 2.001 2.001 0 0 1 17.835 6.53 A 2.045 2.045 0 0 1 16.915 6.829 A 2.529 2.529 0 0 1 16.699 6.838 A 2.262 2.262 0 0 1 15.949 6.718 A 1.938 1.938 0 0 1 15.133 6.166 A 2.297 2.297 0 0 1 14.607 5.111 A 3.357 3.357 0 0 1 14.533 4.386 Z M 36.989 4.386 L 36.989 4.329 A 3.057 3.057 0 0 1 37.076 3.587 A 2.573 2.573 0 0 1 37.263 3.072 A 2.16 2.16 0 0 1 37.678 2.486 A 1.957 1.957 0 0 1 38.028 2.21 A 2.036 2.036 0 0 1 38.972 1.913 A 2.491 2.491 0 0 1 39.146 1.907 A 2.277 2.277 0 0 1 39.9 2.027 A 1.937 1.937 0 0 1 40.718 2.58 A 2.29 2.29 0 0 1 41.237 3.608 A 3.373 3.373 0 0 1 41.317 4.368 L 41.317 4.425 A 3.114 3.114 0 0 1 41.238 5.142 A 2.577 2.577 0 0 1 41.052 5.671 A 2.056 2.056 0 0 1 40.524 6.361 A 2.001 2.001 0 0 1 40.291 6.53 A 2.045 2.045 0 0 1 39.371 6.829 A 2.529 2.529 0 0 1 39.155 6.838 A 2.262 2.262 0 0 1 38.405 6.718 A 1.938 1.938 0 0 1 37.589 6.166 A 2.297 2.297 0 0 1 37.063 5.111 A 3.357 3.357 0 0 1 36.989 4.386 Z M 50.563 0.352 L 50.563 6.75 L 49.72 6.75 L 49.72 0.352 L 50.563 0.352 Z M 30.779 1.995 L 30.779 6.75 L 29.966 6.75 L 29.966 1.995 L 30.779 1.995 Z M 35.903 1.995 L 35.903 6.75 L 35.09 6.75 L 35.09 1.995 L 35.903 1.995 Z M 15.35 4.425 A 2.772 2.772 0 0 0 15.397 4.954 Q 15.458 5.264 15.595 5.51 A 1.545 1.545 0 0 0 15.717 5.695 Q 16.084 6.174 16.699 6.174 A 1.269 1.269 0 0 0 17.189 6.083 Q 17.468 5.967 17.671 5.706 A 1.471 1.471 0 0 0 17.684 5.689 A 1.648 1.648 0 0 0 17.938 5.171 Q 18.007 4.945 18.033 4.672 A 3.655 3.655 0 0 0 18.048 4.329 A 2.687 2.687 0 0 0 17.997 3.789 Q 17.929 3.459 17.772 3.2 A 1.586 1.586 0 0 0 17.677 3.061 A 1.231 1.231 0 0 0 17.262 2.705 Q 17.009 2.575 16.69 2.575 Q 16.101 2.575 15.734 3.035 A 1.515 1.515 0 0 0 15.719 3.054 A 1.589 1.589 0 0 0 15.467 3.552 Q 15.398 3.772 15.369 4.039 A 3.676 3.676 0 0 0 15.35 4.425 Z M 37.806 4.425 A 2.772 2.772 0 0 0 37.854 4.954 Q 37.914 5.264 38.051 5.51 A 1.545 1.545 0 0 0 38.173 5.695 Q 38.54 6.174 39.155 6.174 A 1.269 1.269 0 0 0 39.645 6.083 Q 39.924 5.967 40.127 5.706 A 1.471 1.471 0 0 0 40.14 5.689 A 1.648 1.648 0 0 0 40.395 5.171 Q 40.463 4.945 40.489 4.672 A 3.655 3.655 0 0 0 40.504 4.329 A 2.687 2.687 0 0 0 40.453 3.789 Q 40.386 3.459 40.228 3.2 A 1.586 1.586 0 0 0 40.133 3.061 A 1.231 1.231 0 0 0 39.718 2.705 Q 39.465 2.575 39.146 2.575 Q 38.557 2.575 38.19 3.035 A 1.515 1.515 0 0 0 38.175 3.054 A 1.589 1.589 0 0 0 37.923 3.552 Q 37.854 3.772 37.825 4.039 A 3.676 3.676 0 0 0 37.806 4.425 Z M 22.887 5.449 L 22.887 3.278 A 1.439 1.439 0 0 0 22.586 2.891 Q 22.282 2.62 21.842 2.599 A 1.578 1.578 0 0 0 21.766 2.597 Q 21.174 2.597 20.84 3.056 A 1.51 1.51 0 0 0 20.63 3.484 Q 20.564 3.689 20.533 3.939 A 3.955 3.955 0 0 0 20.505 4.425 Q 20.505 5.229 20.834 5.689 Q 21.164 6.148 21.757 6.148 A 1.32 1.32 0 0 0 22.267 6.054 Q 22.659 5.891 22.887 5.449 Z M 67.768 5.449 L 67.768 3.278 A 1.439 1.439 0 0 0 67.467 2.891 Q 67.163 2.62 66.723 2.599 A 1.578 1.578 0 0 0 66.647 2.597 Q 66.056 2.597 65.722 3.056 A 1.51 1.51 0 0 0 65.511 3.484 Q 65.445 3.689 65.414 3.939 A 3.955 3.955 0 0 0 65.386 4.425 Q 65.386 5.229 65.716 5.689 Q 66.045 6.148 66.639 6.148 A 1.32 1.32 0 0 0 67.148 6.054 Q 67.54 5.891 67.768 5.449 Z M 0.848 1.046 L 0.848 3.472 L 2.145 3.472 Q 2.685 3.472 3.035 3.231 A 1.174 1.174 0 0 0 3.144 3.146 A 1.069 1.069 0 0 0 3.51 2.409 A 1.486 1.486 0 0 0 3.516 2.276 Q 3.516 1.734 3.22 1.423 A 1 1 0 0 0 3.162 1.367 Q 2.808 1.05 2.14 1.046 L 0.848 1.046 Z M 62.675 5.418 L 62.675 4.443 L 62.038 4.443 Q 60.543 4.443 60.543 5.317 Q 60.543 5.7 60.798 5.915 A 0.893 0.893 0 0 0 61.212 6.108 A 1.259 1.259 0 0 0 61.453 6.13 A 1.429 1.429 0 0 0 62.178 5.933 A 1.335 1.335 0 0 0 62.474 5.705 A 1.108 1.108 0 0 0 62.675 5.418 Z M 6.051 3.938 L 8.433 3.938 L 8.433 3.876 Q 8.407 3.417 8.236 3.111 A 1.13 1.13 0 0 0 8.099 2.916 A 0.983 0.983 0 0 0 7.445 2.584 A 1.39 1.39 0 0 0 7.291 2.575 A 1.106 1.106 0 0 0 6.768 2.698 A 1.14 1.14 0 0 0 6.464 2.933 A 1.417 1.417 0 0 0 6.188 3.379 Q 6.114 3.563 6.074 3.785 A 2.741 2.741 0 0 0 6.051 3.938 Z M 70.444 3.938 L 72.826 3.938 L 72.826 3.876 Q 72.8 3.417 72.629 3.111 A 1.13 1.13 0 0 0 72.492 2.916 A 0.983 0.983 0 0 0 71.838 2.584 A 1.39 1.39 0 0 0 71.684 2.575 A 1.106 1.106 0 0 0 71.161 2.698 A 1.14 1.14 0 0 0 70.857 2.933 A 1.417 1.417 0 0 0 70.581 3.379 Q 70.507 3.563 70.467 3.785 A 2.741 2.741 0 0 0 70.444 3.938 Z M 29.9 0.734 Q 29.9 0.536 30.021 0.4 Q 30.133 0.274 30.345 0.264 A 0.783 0.783 0 0 1 30.379 0.264 Q 30.617 0.264 30.74 0.4 A 0.474 0.474 0 0 1 30.862 0.703 A 0.614 0.614 0 0 1 30.863 0.734 A 0.523 0.523 0 0 1 30.838 0.9 A 0.442 0.442 0 0 1 30.74 1.063 Q 30.627 1.184 30.419 1.194 A 0.803 0.803 0 0 1 30.379 1.195 Q 30.207 1.195 30.096 1.126 A 0.362 0.362 0 0 1 30.021 1.063 A 0.456 0.456 0 0 1 29.903 0.788 A 0.605 0.605 0 0 1 29.9 0.734 Z M 35.024 0.734 Q 35.024 0.536 35.145 0.4 Q 35.257 0.274 35.469 0.264 A 0.783 0.783 0 0 1 35.503 0.264 Q 35.741 0.264 35.864 0.4 A 0.474 0.474 0 0 1 35.986 0.703 A 0.614 0.614 0 0 1 35.987 0.734 A 0.523 0.523 0 0 1 35.962 0.9 A 0.442 0.442 0 0 1 35.864 1.063 Q 35.751 1.184 35.543 1.194 A 0.803 0.803 0 0 1 35.503 1.195 Q 35.331 1.195 35.22 1.126 A 0.362 0.362 0 0 1 35.145 1.063 A 0.456 0.456 0 0 1 35.027 0.788 A 0.605 0.605 0 0 1 35.024 0.734 Z" vector-effect="non-scaling-stroke"/></g><g transform="translate(33vw, 90vh)" id="svgGroup" stroke-linecap="round" fill-rule="evenodd" font-size="9pt" stroke="#000" stroke-width="0.25mm" fill="#000" style="stroke:#000;stroke-width:0.25mm;fill:#000"><path d="M 25.607 0 L 25.607 2.571 A 1.767 1.767 0 0 1 26.273 2.053 A 1.832 1.832 0 0 1 27.013 1.907 A 1.905 1.905 0 0 1 27.647 2.004 Q 28.489 2.3 28.531 3.506 A 3.668 3.668 0 0 1 28.534 3.608 L 28.534 6.75 L 27.721 6.75 L 27.721 3.604 A 1.837 1.837 0 0 0 27.698 3.324 Q 27.648 3.017 27.486 2.843 Q 27.299 2.645 26.946 2.606 A 1.66 1.66 0 0 0 26.767 2.597 A 1.253 1.253 0 0 0 26.353 2.664 A 1.123 1.123 0 0 0 26.073 2.808 A 1.432 1.432 0 0 0 25.607 3.362 L 25.607 6.75 L 24.794 6.75 L 24.794 0 L 25.607 0 Z M 22.786 2.522 L 22.825 1.995 L 23.568 1.995 L 23.568 6.636 A 2.511 2.511 0 0 1 23.497 7.249 A 1.738 1.738 0 0 1 23.021 8.09 A 1.834 1.834 0 0 1 22.091 8.57 A 2.671 2.671 0 0 1 21.551 8.622 A 2.446 2.446 0 0 1 20.544 8.402 A 2.003 2.003 0 0 1 20.134 8.161 A 1.563 1.563 0 0 1 19.793 7.8 L 20.215 7.313 A 1.889 1.889 0 0 0 20.649 7.712 A 1.514 1.514 0 0 0 21.494 7.958 A 1.695 1.695 0 0 0 21.871 7.919 Q 22.139 7.858 22.333 7.702 A 1.037 1.037 0 0 0 22.419 7.625 A 1.09 1.09 0 0 0 22.696 7.132 Q 22.743 6.959 22.749 6.752 A 2.134 2.134 0 0 0 22.75 6.684 L 22.75 6.275 A 1.601 1.601 0 0 1 21.698 6.821 A 2.279 2.279 0 0 1 21.419 6.838 A 1.672 1.672 0 0 1 20.664 6.67 Q 20.342 6.51 20.092 6.197 A 2.14 2.14 0 0 1 20.068 6.166 A 2.316 2.316 0 0 1 19.684 5.386 Q 19.551 4.922 19.551 4.333 Q 19.551 3.472 19.86 2.884 A 2.096 2.096 0 0 1 20.065 2.564 Q 20.58 1.907 21.428 1.907 A 1.971 1.971 0 0 1 22.027 1.994 A 1.55 1.55 0 0 1 22.786 2.522 Z M 13.693 0.352 L 13.693 6.06 L 16.726 6.06 L 16.726 6.75 L 12.845 6.75 L 12.845 0.352 L 13.693 0.352 Z M 3.731 0.352 L 3.731 4.601 L 4.619 4.601 L 4.619 5.265 L 3.731 5.265 L 3.731 6.75 L 2.914 6.75 L 2.914 5.265 L 0 5.265 L 0 4.786 L 2.865 0.352 L 3.731 0.352 Z M 9.129 2.592 A 1.544 1.544 0 0 0 9.233 2.021 A 2.226 2.226 0 0 0 9.211 1.707 A 1.566 1.566 0 0 0 8.712 0.738 A 1.754 1.754 0 0 0 7.946 0.333 A 2.443 2.443 0 0 0 7.348 0.264 A 2.539 2.539 0 0 0 6.838 0.312 A 1.767 1.767 0 0 0 5.981 0.738 Q 5.462 1.213 5.462 2.021 A 1.808 1.808 0 0 0 5.463 2.058 A 1.499 1.499 0 0 0 5.708 2.87 A 1.626 1.626 0 0 0 5.87 3.077 A 1.726 1.726 0 0 0 6.381 3.454 A 2.119 2.119 0 0 0 6.281 3.5 A 1.738 1.738 0 0 0 5.596 4.087 A 1.629 1.629 0 0 0 5.313 5.023 A 2.272 2.272 0 0 0 5.323 5.237 A 1.63 1.63 0 0 0 5.869 6.344 A 1.895 1.895 0 0 0 6.719 6.771 A 2.797 2.797 0 0 0 7.348 6.838 A 2.796 2.796 0 0 0 7.947 6.777 A 1.925 1.925 0 0 0 8.822 6.346 A 1.578 1.578 0 0 0 9.297 5.62 A 1.989 1.989 0 0 0 9.382 5.023 A 1.581 1.581 0 0 0 9.09 4.087 Q 8.798 3.674 8.297 3.458 Q 8.728 3.248 8.98 2.874 A 1.449 1.449 0 0 0 9.129 2.592 Z M 30.041 0.844 L 30.854 0.844 L 30.854 1.995 L 31.742 1.995 L 31.742 2.624 L 30.854 2.624 L 30.854 5.572 Q 30.854 5.858 30.973 6.001 Q 31.091 6.144 31.377 6.144 A 1.046 1.046 0 0 0 31.474 6.138 Q 31.577 6.129 31.717 6.101 A 4.024 4.024 0 0 0 31.764 6.091 L 31.764 6.75 A 2.463 2.463 0 0 1 31.331 6.829 A 2.157 2.157 0 0 1 31.14 6.838 Q 30.693 6.838 30.426 6.616 A 0.856 0.856 0 0 1 30.318 6.508 Q 30.09 6.238 30.05 5.78 A 2.351 2.351 0 0 1 30.041 5.572 L 30.041 2.624 L 29.175 2.624 L 29.175 1.995 L 30.041 1.995 L 30.041 0.844 Z M 18.444 1.995 L 18.444 6.75 L 17.631 6.75 L 17.631 1.995 L 18.444 1.995 Z M 22.75 5.449 L 22.75 3.278 A 1.439 1.439 0 0 0 22.45 2.891 Q 22.146 2.62 21.706 2.599 A 1.578 1.578 0 0 0 21.63 2.597 Q 21.038 2.597 20.704 3.056 A 1.51 1.51 0 0 0 20.493 3.484 Q 20.428 3.689 20.397 3.939 A 3.955 3.955 0 0 0 20.369 4.425 Q 20.369 5.229 20.698 5.689 Q 21.028 6.148 21.621 6.148 A 1.32 1.32 0 0 0 22.131 6.054 Q 22.522 5.891 22.75 5.449 Z M 2.817 1.639 L 0.923 4.601 L 2.914 4.601 L 2.914 1.463 L 2.817 1.639 Z M 8.569 5.005 A 1.375 1.375 0 0 0 8.51 4.592 A 1.109 1.109 0 0 0 8.229 4.131 A 1.148 1.148 0 0 0 7.557 3.807 A 1.593 1.593 0 0 0 7.339 3.792 A 1.466 1.466 0 0 0 6.95 3.841 A 1.086 1.086 0 0 0 6.458 4.126 A 1.123 1.123 0 0 0 6.144 4.762 A 1.572 1.572 0 0 0 6.126 5.005 A 1.48 1.48 0 0 0 6.168 5.367 A 1.019 1.019 0 0 0 6.449 5.862 Q 6.755 6.158 7.288 6.173 A 2.053 2.053 0 0 0 7.348 6.174 Q 7.841 6.174 8.151 5.94 A 1.018 1.018 0 0 0 8.244 5.86 A 1.041 1.041 0 0 0 8.544 5.292 A 1.518 1.518 0 0 0 8.569 5.005 Z M 7.348 0.932 A 1.259 1.259 0 0 0 6.995 0.979 A 0.973 0.973 0 0 0 6.572 1.228 Q 6.275 1.525 6.275 2.035 A 1.325 1.325 0 0 0 6.32 2.387 A 0.994 0.994 0 0 0 6.568 2.823 A 0.974 0.974 0 0 0 7.13 3.108 A 1.382 1.382 0 0 0 7.348 3.125 A 1.279 1.279 0 0 0 7.692 3.08 A 0.952 0.952 0 0 0 8.128 2.823 A 1.018 1.018 0 0 0 8.403 2.26 A 1.426 1.426 0 0 0 8.42 2.035 A 1.282 1.282 0 0 0 8.37 1.668 A 1.013 1.013 0 0 0 8.117 1.239 Q 7.813 0.932 7.348 0.932 Z M 17.565 0.734 Q 17.565 0.536 17.686 0.4 Q 17.798 0.274 18.009 0.264 A 0.783 0.783 0 0 1 18.044 0.264 Q 18.281 0.264 18.404 0.4 A 0.474 0.474 0 0 1 18.527 0.703 A 0.614 0.614 0 0 1 18.527 0.734 A 0.523 0.523 0 0 1 18.502 0.9 A 0.442 0.442 0 0 1 18.404 1.063 Q 18.292 1.184 18.084 1.194 A 0.803 0.803 0 0 1 18.044 1.195 Q 17.872 1.195 17.761 1.126 A 0.362 0.362 0 0 1 17.686 1.063 A 0.456 0.456 0 0 1 17.567 0.788 A 0.605 0.605 0 0 1 17.565 0.734 Z" vector-effect="non-scaling-stroke"/></g>
</svg>