<?xml version="1.0" encoding="UTF-8"?>
<svg width="80px" height="80px" viewBox="0 0 80 80" version="1.1" xmlns="http://www.w3.org/2000/svg" xmlns:xlink="http://www.w3.org/1999/xlink">
    <title>Icon-Architecture/64/Arch_Amazon-WorkSpaces-Family_64</title>
    
    <g id="Icon-Architecture/64/Arch_Amazon-WorkSpaces-Family_64" stroke="none" stroke-width="1" fill="none" fill-rule="evenodd">
        
        <g id="Icon-Service/64/Amazon-WorkSpaces-Family_64" transform="translate(12.000000, 12.000000)" fill="#000000">
            <path d="M27,56 L29,56 L29,49 L27,49 L27,56 Z M27,7 L29,7 L29,0.159 L27,0.159 L27,7 Z M47,29 L56,29 L56,27 L47,27 L47,29 Z M0,29 L9,29 L9,27 L0,27 L0,29 Z M2,24 L0,24 L0,1 C0,0.448 0.447,0 1,0 L24,0 L24,2 L2,2 L2,24 Z M56,1 L56,24 L54,24 L54,2 L32,2 L32,0 L55,0 C55.553,0 56,0.448 56,1 L56,1 Z M54,32 L56,32 L56,55 C56,55.552 55.553,56 55,56 L32,56 L32,54 L54,54 L54,32 Z M2,54 L24,54 L24,56 L1,56 C0.447,56 0,55.552 0,55 L0,32 L2,32 L2,54 Z M29,43.288 L29,28.583 L42,21.216 L42,35.92 L29,43.288 Z M14,21.216 L27,28.583 L27,43.288 L14,35.92 L14,21.216 Z M28.001,12.145 L40.974,19.499 L28,26.851 L15.043,19.508 L28.001,12.145 Z M27.506,10.126 L12.598,18.596 C12.338,18.713 12.128,18.937 12.038,19.223 C11.994,19.364 11.982,19.508 12,19.648 L12,36.502 C12,36.862 12.194,37.195 12.507,37.372 L27.507,45.874 C27.66,45.961 27.83,46.004 28,46.004 C28.17,46.004 28.34,45.961 28.493,45.874 L43.493,37.372 C43.806,37.195 44,36.862 44,36.502 L44,19.498 C44,19.137 43.806,18.805 43.493,18.628 L28.493,10.125 C28.186,9.952 27.812,9.953 27.506,10.126 L27.506,10.126 Z" id="Fill-4"></path>
        </g>
    </g><g transform="translate(12vw, 80vh)" id="svgGroup" stroke-linecap="round" fill-rule="evenodd" font-size="9pt" stroke="#000" stroke-width="0.25mm" fill="#000" style="stroke:#000;stroke-width:0.25mm;fill:#000"><path d="M 0.844 0.352 L 1.854 4.733 L 1.978 5.577 L 2.158 4.816 L 3.423 0.352 L 4.135 0.352 L 5.37 4.816 L 5.546 5.59 L 5.682 4.729 L 6.675 0.352 L 7.523 0.352 L 5.972 6.75 L 5.203 6.75 L 3.885 2.087 L 3.784 1.6 L 3.683 2.087 L 2.316 6.75 L 1.547 6.75 L 0 0.352 L 0.844 0.352 Z M 62.284 1.995 L 63.053 1.995 L 63.075 2.522 Q 63.598 1.907 64.485 1.907 A 2.009 2.009 0 0 1 64.996 1.968 A 1.244 1.244 0 0 1 65.843 2.672 A 1.801 1.801 0 0 1 66.461 2.118 A 1.65 1.65 0 0 1 66.99 1.937 A 2.209 2.209 0 0 1 67.359 1.907 A 2.119 2.119 0 0 1 68.004 1.997 Q 68.93 2.292 68.95 3.564 L 68.95 6.75 L 68.137 6.75 L 68.137 3.612 A 1.781 1.781 0 0 0 68.117 3.332 Q 68.093 3.185 68.043 3.067 A 0.758 0.758 0 0 0 67.904 2.85 A 0.68 0.68 0 0 0 67.651 2.682 Q 67.44 2.597 67.123 2.597 A 1.245 1.245 0 0 0 66.757 2.648 A 1.008 1.008 0 0 0 66.371 2.867 A 1.042 1.042 0 0 0 66.057 3.404 A 1.41 1.41 0 0 0 66.023 3.595 L 66.023 6.75 L 65.206 6.75 L 65.206 3.634 A 1.532 1.532 0 0 0 65.157 3.23 Q 65.031 2.768 64.573 2.643 A 1.457 1.457 0 0 0 64.191 2.597 Q 63.417 2.597 63.117 3.234 A 1.459 1.459 0 0 0 63.097 3.278 L 63.097 6.75 L 62.284 6.75 L 62.284 1.995 Z M 25.308 2.202 L 24.46 2.202 A 1.466 1.466 0 0 0 24.41 1.809 A 1.066 1.066 0 0 0 24.091 1.29 A 1.211 1.211 0 0 0 23.621 1.033 Q 23.37 0.958 23.049 0.958 A 2.286 2.286 0 0 0 22.669 0.988 Q 22.468 1.022 22.305 1.095 A 1.101 1.101 0 0 0 22.076 1.233 A 0.892 0.892 0 0 0 21.731 1.887 A 1.267 1.267 0 0 0 21.727 1.995 A 0.806 0.806 0 0 0 21.994 2.6 A 1.134 1.134 0 0 0 22.058 2.656 A 1.562 1.562 0 0 0 22.296 2.813 Q 22.627 2.993 23.188 3.151 A 8.228 8.228 0 0 1 23.652 3.295 Q 23.887 3.377 24.082 3.464 A 3.297 3.297 0 0 1 24.436 3.645 A 2.342 2.342 0 0 1 24.774 3.889 Q 24.964 4.056 25.087 4.248 A 1.45 1.45 0 0 1 25.104 4.276 A 1.498 1.498 0 0 1 25.3 4.832 A 1.948 1.948 0 0 1 25.321 5.124 A 1.606 1.606 0 0 1 25.199 5.76 Q 25.054 6.101 24.736 6.354 A 1.886 1.886 0 0 1 24.715 6.37 Q 24.108 6.838 23.093 6.838 A 3.023 3.023 0 0 1 21.953 6.623 A 2.917 2.917 0 0 1 21.863 6.585 A 2.383 2.383 0 0 1 21.385 6.307 A 1.874 1.874 0 0 1 20.982 5.893 A 1.689 1.689 0 0 1 20.672 4.896 L 21.52 4.896 A 1.261 1.261 0 0 0 21.589 5.323 A 1.074 1.074 0 0 0 21.948 5.812 Q 22.333 6.113 22.949 6.144 A 2.87 2.87 0 0 0 23.093 6.148 A 2.628 2.628 0 0 0 23.48 6.121 Q 23.676 6.092 23.836 6.031 A 1.129 1.129 0 0 0 24.117 5.875 Q 24.473 5.603 24.473 5.133 A 1.074 1.074 0 0 0 24.431 4.822 A 0.816 0.816 0 0 0 24.144 4.406 Q 23.814 4.148 22.948 3.898 Q 21.863 3.586 21.368 3.131 Q 20.874 2.676 20.874 2.008 Q 20.874 1.252 21.478 0.758 A 2.121 2.121 0 0 1 22.369 0.335 A 3.087 3.087 0 0 1 23.049 0.264 A 2.913 2.913 0 0 1 23.709 0.336 A 2.372 2.372 0 0 1 24.225 0.519 A 2.051 2.051 0 0 1 24.756 0.889 A 1.834 1.834 0 0 1 25.025 1.222 A 1.798 1.798 0 0 1 25.308 2.202 Z M 19.358 6.75 L 17.701 4.548 L 17.191 5.08 L 17.191 6.75 L 16.378 6.75 L 16.378 0 L 17.191 0 L 17.191 4.083 L 17.626 3.56 L 19.107 1.995 L 20.096 1.995 L 18.246 3.981 L 20.312 6.75 L 19.358 6.75 Z M 56.224 3.234 L 56.224 3.924 L 53.539 3.924 L 53.539 6.75 L 52.695 6.75 L 52.695 0.352 L 56.659 0.352 L 56.659 1.046 L 53.539 1.046 L 53.539 3.234 L 56.224 3.234 Z M 49.236 3.393 L 48.419 3.393 Q 48.419 3.059 48.135 2.817 Q 47.852 2.575 47.421 2.575 Q 46.978 2.575 46.727 2.769 A 0.653 0.653 0 0 0 46.552 2.967 Q 46.479 3.098 46.477 3.263 A 0.771 0.771 0 0 0 46.477 3.274 A 0.588 0.588 0 0 0 46.507 3.467 A 0.48 0.48 0 0 0 46.709 3.718 A 1.093 1.093 0 0 0 46.86 3.796 Q 47.024 3.868 47.28 3.937 A 6.581 6.581 0 0 0 47.551 4.003 A 6.318 6.318 0 0 1 47.959 4.108 Q 48.295 4.208 48.538 4.329 A 1.901 1.901 0 0 1 48.794 4.481 Q 48.93 4.579 49.028 4.692 A 1.06 1.06 0 0 1 49.098 4.783 A 1.024 1.024 0 0 1 49.26 5.191 A 1.388 1.388 0 0 1 49.28 5.432 Q 49.28 6.069 48.771 6.453 Q 48.288 6.817 47.534 6.837 A 3.337 3.337 0 0 1 47.448 6.838 A 2.746 2.746 0 0 1 46.913 6.788 A 2.124 2.124 0 0 1 46.437 6.636 A 1.771 1.771 0 0 1 46.003 6.358 A 1.54 1.54 0 0 1 45.749 6.071 Q 45.501 5.708 45.501 5.287 L 46.314 5.287 A 0.932 0.932 0 0 0 46.387 5.612 A 0.827 0.827 0 0 0 46.641 5.935 A 1.072 1.072 0 0 0 47.044 6.128 Q 47.198 6.167 47.38 6.173 A 2.013 2.013 0 0 0 47.448 6.174 A 1.863 1.863 0 0 0 47.743 6.152 Q 47.905 6.126 48.037 6.07 A 0.941 0.941 0 0 0 48.188 5.988 A 0.689 0.689 0 0 0 48.353 5.837 A 0.554 0.554 0 0 0 48.467 5.489 A 0.698 0.698 0 0 0 48.431 5.258 A 0.581 0.581 0 0 0 48.219 4.977 A 1.05 1.05 0 0 0 48.05 4.878 Q 47.861 4.788 47.566 4.712 A 5.392 5.392 0 0 0 47.353 4.663 A 6.342 6.342 0 0 1 46.992 4.575 Q 46.623 4.473 46.373 4.346 Q 46.074 4.194 45.904 3.994 A 1.017 1.017 0 0 1 45.837 3.907 Q 45.664 3.652 45.664 3.3 A 1.206 1.206 0 0 1 46.063 2.396 A 1.694 1.694 0 0 1 46.158 2.312 A 1.752 1.752 0 0 1 46.941 1.952 A 2.471 2.471 0 0 1 47.421 1.907 A 2.559 2.559 0 0 1 47.985 1.966 A 1.757 1.757 0 0 1 48.733 2.325 Q 49.236 2.742 49.236 3.393 Z M 74.914 1.995 L 76.1 5.559 L 77.208 1.995 L 78.078 1.995 L 76.166 7.484 Q 75.722 8.67 74.755 8.67 L 74.602 8.657 L 74.298 8.6 L 74.298 7.941 L 74.518 7.958 Q 74.798 7.958 74.994 7.882 A 0.75 0.75 0 0 0 75.162 7.792 A 0.749 0.749 0 0 0 75.322 7.629 Q 75.44 7.47 75.53 7.215 A 2.575 2.575 0 0 0 75.542 7.181 L 75.722 6.697 L 74.026 1.995 L 74.914 1.995 Z M 39.248 5.251 L 40.017 5.251 A 1.432 1.432 0 0 1 39.817 5.901 A 1.772 1.772 0 0 1 39.735 6.029 A 1.828 1.828 0 0 1 39.126 6.574 A 2.169 2.169 0 0 1 39.043 6.618 A 1.997 1.997 0 0 1 38.127 6.838 A 2.346 2.346 0 0 1 37.43 6.739 A 1.839 1.839 0 0 1 36.582 6.19 A 2.171 2.171 0 0 1 36.119 5.31 Q 36.009 4.909 36.009 4.417 L 36.009 4.28 A 3.24 3.24 0 0 1 36.073 3.624 A 2.57 2.57 0 0 1 36.264 3.045 A 2.008 2.008 0 0 1 36.703 2.431 A 1.892 1.892 0 0 1 36.995 2.206 A 1.943 1.943 0 0 1 37.752 1.934 A 2.529 2.529 0 0 1 38.123 1.907 A 2.196 2.196 0 0 1 38.771 1.999 A 1.786 1.786 0 0 1 39.452 2.386 A 1.693 1.693 0 0 1 40.01 3.535 A 2.239 2.239 0 0 1 40.017 3.63 L 39.248 3.63 Q 39.212 3.168 38.898 2.872 A 1.078 1.078 0 0 0 38.169 2.576 A 1.402 1.402 0 0 0 38.123 2.575 A 1.374 1.374 0 0 0 37.701 2.637 A 1.081 1.081 0 0 0 37.162 3.021 A 1.469 1.469 0 0 0 36.936 3.468 Q 36.87 3.674 36.842 3.923 A 3.514 3.514 0 0 0 36.822 4.311 L 36.822 4.465 Q 36.822 5.287 37.16 5.73 A 1.1 1.1 0 0 0 37.947 6.165 A 1.611 1.611 0 0 0 38.127 6.174 A 1.171 1.171 0 0 0 38.887 5.911 A 1.007 1.007 0 0 0 39.131 5.629 A 0.914 0.914 0 0 0 39.248 5.251 Z M 35.112 6.75 L 34.26 6.75 A 0.632 0.632 0 0 1 34.224 6.66 Q 34.193 6.562 34.168 6.41 A 3.997 3.997 0 0 1 34.146 6.249 Q 33.579 6.838 32.792 6.838 A 2.033 2.033 0 0 1 32.263 6.772 A 1.529 1.529 0 0 1 31.638 6.44 Q 31.188 6.042 31.188 5.432 Q 31.188 4.689 31.753 4.278 Q 32.317 3.867 33.341 3.867 L 34.132 3.867 L 34.132 3.494 A 1.152 1.152 0 0 0 34.097 3.199 A 0.828 0.828 0 0 0 33.877 2.815 Q 33.661 2.6 33.271 2.568 A 1.748 1.748 0 0 0 33.126 2.562 Q 32.691 2.562 32.396 2.782 Q 32.102 3.001 32.102 3.313 L 31.285 3.313 A 1.041 1.041 0 0 1 31.41 2.825 A 1.409 1.409 0 0 1 31.537 2.626 Q 31.79 2.294 32.223 2.101 A 2.249 2.249 0 0 1 32.999 1.913 A 2.669 2.669 0 0 1 33.174 1.907 A 2.65 2.65 0 0 1 33.692 1.955 Q 33.999 2.016 34.238 2.156 A 1.439 1.439 0 0 1 34.462 2.318 A 1.396 1.396 0 0 1 34.915 3.144 A 1.998 1.998 0 0 1 34.945 3.45 L 34.945 5.638 Q 34.945 6.073 35.019 6.39 A 1.707 1.707 0 0 0 35.112 6.68 L 35.112 6.75 Z M 61.181 6.75 L 60.328 6.75 A 0.632 0.632 0 0 1 60.293 6.66 Q 60.261 6.562 60.237 6.41 A 3.997 3.997 0 0 1 60.214 6.249 Q 59.647 6.838 58.86 6.838 A 2.033 2.033 0 0 1 58.331 6.772 A 1.529 1.529 0 0 1 57.707 6.44 Q 57.256 6.042 57.256 5.432 Q 57.256 4.689 57.821 4.278 Q 58.386 3.867 59.41 3.867 L 60.201 3.867 L 60.201 3.494 A 1.152 1.152 0 0 0 60.165 3.199 A 0.828 0.828 0 0 0 59.946 2.815 Q 59.729 2.6 59.339 2.568 A 1.748 1.748 0 0 0 59.194 2.562 Q 58.759 2.562 58.465 2.782 Q 58.17 3.001 58.17 3.313 L 57.353 3.313 A 1.041 1.041 0 0 1 57.478 2.825 A 1.409 1.409 0 0 1 57.606 2.626 Q 57.858 2.294 58.291 2.101 A 2.249 2.249 0 0 1 59.067 1.913 A 2.669 2.669 0 0 1 59.243 1.907 A 2.65 2.65 0 0 1 59.76 1.955 Q 60.067 2.016 60.306 2.156 A 1.439 1.439 0 0 1 60.53 2.318 A 1.396 1.396 0 0 1 60.984 3.144 A 1.998 1.998 0 0 1 61.014 3.45 L 61.014 5.638 Q 61.014 6.073 61.087 6.39 A 1.707 1.707 0 0 0 61.181 6.68 L 61.181 6.75 Z M 30.292 4.351 L 30.292 4.425 Q 30.292 5.511 29.795 6.174 A 1.57 1.57 0 0 1 28.657 6.828 A 2.013 2.013 0 0 1 28.45 6.838 A 2.196 2.196 0 0 1 27.864 6.764 A 1.598 1.598 0 0 1 27.088 6.289 L 27.088 8.578 L 26.275 8.578 L 26.275 1.995 L 27.018 1.995 L 27.057 2.522 A 1.619 1.619 0 0 1 28.196 1.919 A 2.319 2.319 0 0 1 28.437 1.907 A 1.829 1.829 0 0 1 29.074 2.014 A 1.597 1.597 0 0 1 29.793 2.553 Q 30.292 3.199 30.292 4.351 Z M 40.724 4.504 L 40.724 4.355 A 3.17 3.17 0 0 1 40.8 3.646 A 2.581 2.581 0 0 1 40.994 3.092 A 2.191 2.191 0 0 1 41.442 2.466 A 2.033 2.033 0 0 1 41.75 2.221 Q 42.236 1.907 42.803 1.907 A 2.254 2.254 0 0 1 43.416 1.986 A 1.639 1.639 0 0 1 44.244 2.518 Q 44.758 3.129 44.758 4.267 L 44.758 4.605 L 41.537 4.605 A 2.111 2.111 0 0 0 41.608 5.114 A 1.516 1.516 0 0 0 41.948 5.741 A 1.282 1.282 0 0 0 42.882 6.173 A 1.652 1.652 0 0 0 42.948 6.174 A 1.763 1.763 0 0 0 43.276 6.145 Q 43.5 6.103 43.677 5.999 A 1.827 1.827 0 0 0 44.186 5.551 A 2.068 2.068 0 0 0 44.2 5.533 L 44.697 5.919 A 1.926 1.926 0 0 1 43.297 6.811 A 2.749 2.749 0 0 1 42.904 6.838 A 2.394 2.394 0 0 1 42.153 6.725 A 1.974 1.974 0 0 1 41.331 6.203 Q 40.724 5.568 40.724 4.504 Z M 73.244 0 L 73.244 6.75 L 72.431 6.75 L 72.431 0 L 73.244 0 Z M 7.98 4.386 L 7.98 4.329 A 3.057 3.057 0 0 1 8.067 3.587 A 2.573 2.573 0 0 1 8.255 3.072 A 2.16 2.16 0 0 1 8.67 2.486 A 1.957 1.957 0 0 1 9.02 2.21 A 2.036 2.036 0 0 1 9.964 1.913 A 2.491 2.491 0 0 1 10.138 1.907 A 2.277 2.277 0 0 1 10.892 2.027 A 1.937 1.937 0 0 1 11.709 2.58 A 2.29 2.29 0 0 1 12.228 3.608 A 3.373 3.373 0 0 1 12.309 4.368 L 12.309 4.425 A 3.114 3.114 0 0 1 12.23 5.142 A 2.577 2.577 0 0 1 12.043 5.671 A 2.056 2.056 0 0 1 11.516 6.361 A 2.001 2.001 0 0 1 11.283 6.53 A 2.045 2.045 0 0 1 10.363 6.829 A 2.529 2.529 0 0 1 10.147 6.838 A 2.262 2.262 0 0 1 9.397 6.718 A 1.938 1.938 0 0 1 8.58 6.166 A 2.297 2.297 0 0 1 8.055 5.111 A 3.357 3.357 0 0 1 7.98 4.386 Z M 15.627 1.969 L 15.627 2.725 A 2.251 2.251 0 0 0 15.384 2.698 A 2.782 2.782 0 0 0 15.227 2.694 Q 14.449 2.694 14.158 3.338 A 1.445 1.445 0 0 0 14.142 3.375 L 14.142 6.75 L 13.329 6.75 L 13.329 1.995 L 14.12 1.995 L 14.133 2.544 Q 14.513 1.938 15.196 1.909 A 1.636 1.636 0 0 1 15.267 1.907 Q 15.504 1.907 15.627 1.969 Z M 71.06 1.995 L 71.06 6.75 L 70.247 6.75 L 70.247 1.995 L 71.06 1.995 Z M 8.798 4.425 A 2.772 2.772 0 0 0 8.845 4.954 Q 8.906 5.264 9.043 5.51 A 1.545 1.545 0 0 0 9.165 5.695 Q 9.532 6.174 10.147 6.174 A 1.269 1.269 0 0 0 10.636 6.083 Q 10.916 5.967 11.118 5.706 A 1.471 1.471 0 0 0 11.131 5.689 A 1.648 1.648 0 0 0 11.386 5.171 Q 11.455 4.945 11.481 4.672 A 3.655 3.655 0 0 0 11.496 4.329 A 2.687 2.687 0 0 0 11.445 3.789 Q 11.377 3.459 11.22 3.2 A 1.586 1.586 0 0 0 11.125 3.061 A 1.231 1.231 0 0 0 10.71 2.705 Q 10.457 2.575 10.138 2.575 Q 9.548 2.575 9.182 3.035 A 1.515 1.515 0 0 0 9.167 3.054 A 1.589 1.589 0 0 0 8.915 3.552 Q 8.845 3.772 8.817 4.039 A 3.676 3.676 0 0 0 8.798 4.425 Z M 27.088 3.252 L 27.088 5.524 Q 27.453 6.174 28.204 6.174 A 1.184 1.184 0 0 0 28.67 6.086 Q 28.927 5.977 29.115 5.735 A 1.403 1.403 0 0 0 29.134 5.711 A 1.501 1.501 0 0 0 29.35 5.28 Q 29.418 5.073 29.45 4.818 A 3.91 3.91 0 0 0 29.479 4.333 Q 29.479 3.746 29.296 3.339 A 1.503 1.503 0 0 0 29.136 3.063 A 1.086 1.086 0 0 0 28.35 2.605 A 1.414 1.414 0 0 0 28.195 2.597 Q 27.535 2.597 27.17 3.121 A 1.623 1.623 0 0 0 27.088 3.252 Z M 34.132 5.418 L 34.132 4.443 L 33.495 4.443 Q 32.001 4.443 32.001 5.317 Q 32.001 5.7 32.256 5.915 A 0.893 0.893 0 0 0 32.669 6.108 A 1.259 1.259 0 0 0 32.911 6.13 A 1.429 1.429 0 0 0 33.636 5.933 A 1.335 1.335 0 0 0 33.931 5.705 A 1.108 1.108 0 0 0 34.132 5.418 Z M 60.201 5.418 L 60.201 4.443 L 59.563 4.443 Q 58.069 4.443 58.069 5.317 Q 58.069 5.7 58.324 5.915 A 0.893 0.893 0 0 0 58.738 6.108 A 1.259 1.259 0 0 0 58.979 6.13 A 1.429 1.429 0 0 0 59.704 5.933 A 1.335 1.335 0 0 0 60 5.705 A 1.108 1.108 0 0 0 60.201 5.418 Z M 41.563 3.938 L 43.945 3.938 L 43.945 3.876 Q 43.919 3.417 43.749 3.111 A 1.13 1.13 0 0 0 43.611 2.916 A 0.983 0.983 0 0 0 42.957 2.584 A 1.39 1.39 0 0 0 42.803 2.575 A 1.106 1.106 0 0 0 42.28 2.698 A 1.14 1.14 0 0 0 41.977 2.933 A 1.417 1.417 0 0 0 41.7 3.379 Q 41.626 3.563 41.586 3.785 A 2.741 2.741 0 0 0 41.563 3.938 Z M 70.181 0.734 Q 70.181 0.536 70.302 0.4 Q 70.413 0.274 70.625 0.264 A 0.783 0.783 0 0 1 70.66 0.264 Q 70.897 0.264 71.02 0.4 A 0.474 0.474 0 0 1 71.142 0.703 A 0.614 0.614 0 0 1 71.143 0.734 A 0.523 0.523 0 0 1 71.118 0.9 A 0.442 0.442 0 0 1 71.02 1.063 Q 70.908 1.184 70.699 1.194 A 0.803 0.803 0 0 1 70.66 1.195 Q 70.487 1.195 70.376 1.126 A 0.362 0.362 0 0 1 70.302 1.063 A 0.456 0.456 0 0 1 70.183 0.788 A 0.605 0.605 0 0 1 70.181 0.734 Z" vector-effect="non-scaling-stroke"/></g>
</svg>