<?xml version="1.0" encoding="UTF-8"?>
<svg width="80px" height="80px" viewBox="0 0 80 80" version="1.1" xmlns="http://www.w3.org/2000/svg" xmlns:xlink="http://www.w3.org/1999/xlink">
    <title>Icon-Architecture/64/Arch_AWS-rePost_64</title>
    
    <g id="Icon-Architecture/64/Arch_AWS-rePost_64" stroke="none" stroke-width="1" fill="none" fill-rule="evenodd">
        
        <g id="Icon-Service/64/AWS-rePost_64" transform="translate(16, 8), scale(.65)" fill="#000000">
            <path d="M30.6240719,40 L45.6240719,40 L45.6240719,38 L30.6240719,38 L30.6240719,40 Z M30.6240719,25 L43.6240719,25 L43.6240719,23 L30.6240719,23 L30.6240719,25 Z M30.6240719,17 L49.6240719,17 L49.6240719,15 L30.6240719,15 L30.6240719,17 Z M55.2830719,44.002 C54.3850719,42.467 52.7370719,41.423 50.8340719,41.423 C48.5410719,41.423 46.6160719,42.931 45.9380719,45 L38.6240719,45 C38.0710719,45 37.6240719,45.448 37.6240719,46 L37.6240719,49.4 L34.5740719,45.394 C34.3840719,45.146 34.0900719,45 33.7780719,45 L30.3510719,45 C28.6350719,45 26.9960719,44.255 25.8510719,42.956 C24.6950719,41.643 24.1790719,39.962 24.4010719,38.222 C24.7800719,35.245 27.4660719,33 30.6520719,33 L51.7790719,33 C54.6530719,33 57.1920719,34.915 57.8160719,37.553 C58.4140719,40.084 57.3650719,42.629 55.2830719,44.002 L55.2830719,44.002 Z M50.8340719,49.768 C49.0840719,49.768 47.6610719,48.345 47.6610719,46.596 C47.6610719,44.846 49.0840719,43.423 50.8340719,43.423 C52.5840719,43.423 54.0060719,44.846 54.0060719,46.596 C54.0060719,48.345 52.5840719,49.768 50.8340719,49.768 L50.8340719,49.768 Z M57.0670719,58 L44.5990719,58 C45.0460719,54.703 47.6710719,52.163 50.8340719,52.163 C51.9610719,52.163 53.0690719,52.491 54.0350719,53.11 C55.6790719,54.165 56.7890719,55.982 57.0670719,58 L57.0670719,58 Z M6.44307191,23.007 C5.38107191,18.855 6.25207191,14.569 8.83007191,11.25 C11.4200719,7.914 15.3070719,6 19.4950719,6 L44.5400719,6 C50.6370719,6 56.0280719,9.931 57.6470719,15.559 C59.3110719,21.345 57.2310719,27.248 52.3450719,30.618 L51.5500719,31 L30.6520719,31 C28.5540719,31 26.6200719,31.751 25.1480719,33 L19.7010719,33 C13.3990719,33 7.94707191,28.891 6.44307191,23.007 L6.44307191,23.007 Z M59.7620719,37.092 C59.1380719,34.455 57.1050719,32.358 54.5360719,31.466 C59.3760719,27.511 61.3500719,21.2 59.5690719,15.006 C57.7050719,8.526 51.5240719,4 44.5400719,4 L19.4950719,4 C14.6850719,4 10.2220719,6.195 7.25007191,10.023 C4.29107191,13.834 3.29007191,18.748 4.50507191,23.502 C6.23607191,30.272 12.4840719,35 19.7010719,35 L23.4550719,35 C22.9190719,35.893 22.5540719,36.894 22.4170719,37.97 C22.1270719,40.254 22.8310719,42.553 24.3500719,44.278 C25.8750719,46.008 28.0610719,47 30.3510719,47 L33.2830719,47 L37.8280719,52.97 C38.0210719,53.223 38.3180719,53.364 38.6240719,53.364 C38.7300719,53.364 38.8380719,53.347 38.9430719,53.312 C39.3500719,53.174 39.6240719,52.793 39.6240719,52.364 L39.6240719,47 L45.7020719,47 C45.8240719,48.553 46.6200719,49.912 47.8140719,50.777 C44.7270719,52.066 42.5320719,55.262 42.5320719,59 C42.5320719,59.552 42.9790719,60 43.5320719,60 L58.1350719,60 C58.6880719,60 59.1350719,59.552 59.1350719,59 C59.1350719,55.873 57.6320719,53.042 55.1150719,51.426 C54.7110719,51.168 54.2840719,50.962 53.8480719,50.781 C55.1500719,49.84 56.0060719,48.32 56.0060719,46.596 C56.0060719,46.372 55.9680719,46.158 55.9400719,45.942 C59.0080719,44.195 60.6000719,40.633 59.7620719,37.092 L59.7620719,37.092 Z M14.2200719,27 C14.6620719,24.036 17.0350719,21.766 19.8860719,21.766 C20.9140719,21.766 21.9200719,22.064 22.7990719,22.628 C24.2750719,23.574 25.2780719,25.194 25.5510719,27 L14.2200719,27 Z M19.8870719,13.967 C21.4600719,13.967 22.7380719,15.246 22.7380719,16.818 C22.7380719,18.391 21.4600719,19.67 19.8870719,19.67 C18.3140719,19.67 17.0350719,18.391 17.0350719,16.818 C17.0350719,15.246 18.3140719,13.967 19.8870719,13.967 L19.8870719,13.967 Z M27.6270719,28 C27.6270719,25.087 26.2260719,22.449 23.8790719,20.944 C23.6060719,20.769 23.3220719,20.619 23.0320719,20.482 C24.0670719,19.591 24.7380719,18.288 24.7380719,16.818 C24.7380719,14.143 22.5620719,11.967 19.8870719,11.967 C17.2110719,11.967 15.0350719,14.143 15.0350719,16.818 C15.0350719,18.289 15.7060719,19.592 16.7430719,20.483 C14.0380719,21.768 12.1460719,24.651 12.1460719,28 C12.1460719,28.552 12.5930719,29 13.1460719,29 L26.6270719,29 C27.1790719,29 27.6270719,28.552 27.6270719,28 L27.6270719,28 Z" id="Fill-1"></path>
        </g>
    </g><g transform="translate(33vw, 80vh)" id="svgGroup" stroke-linecap="round" fill-rule="evenodd" font-size="9pt" stroke="#000" stroke-width="0.25mm" fill="#000" style="stroke:#000;stroke-width:0.25mm;fill:#000"><path d="M 22.021 3.041 L 21.204 3.041 Q 21.204 2.707 20.92 2.465 Q 20.637 2.224 20.206 2.224 Q 19.762 2.224 19.512 2.417 A 0.653 0.653 0 0 0 19.337 2.616 Q 19.264 2.747 19.261 2.912 A 0.771 0.771 0 0 0 19.261 2.922 A 0.588 0.588 0 0 0 19.291 3.115 A 0.48 0.48 0 0 0 19.494 3.366 A 1.093 1.093 0 0 0 19.644 3.445 Q 19.809 3.517 20.064 3.586 A 6.581 6.581 0 0 0 20.336 3.652 A 6.318 6.318 0 0 1 20.743 3.757 Q 21.08 3.856 21.322 3.977 A 1.901 1.901 0 0 1 21.578 4.13 Q 21.715 4.228 21.812 4.341 A 1.06 1.06 0 0 1 21.883 4.432 A 1.024 1.024 0 0 1 22.045 4.839 A 1.388 1.388 0 0 1 22.065 5.08 Q 22.065 5.717 21.555 6.102 Q 21.073 6.466 20.319 6.485 A 3.337 3.337 0 0 1 20.232 6.486 A 2.746 2.746 0 0 1 19.698 6.437 A 2.124 2.124 0 0 1 19.222 6.284 A 1.771 1.771 0 0 1 18.788 6.006 A 1.54 1.54 0 0 1 18.534 5.72 Q 18.286 5.357 18.286 4.935 L 19.099 4.935 A 0.932 0.932 0 0 0 19.172 5.26 A 0.827 0.827 0 0 0 19.426 5.583 A 1.072 1.072 0 0 0 19.828 5.776 Q 19.983 5.816 20.164 5.822 A 2.013 2.013 0 0 0 20.232 5.823 A 1.863 1.863 0 0 0 20.528 5.801 Q 20.69 5.775 20.821 5.718 A 0.941 0.941 0 0 0 20.973 5.636 A 0.689 0.689 0 0 0 21.137 5.486 A 0.554 0.554 0 0 0 21.252 5.137 A 0.698 0.698 0 0 0 21.216 4.907 A 0.581 0.581 0 0 0 21.004 4.625 A 1.05 1.05 0 0 0 20.835 4.527 Q 20.646 4.437 20.351 4.361 A 5.392 5.392 0 0 0 20.138 4.311 A 6.342 6.342 0 0 1 19.777 4.224 Q 19.407 4.122 19.158 3.995 Q 18.859 3.843 18.689 3.643 A 1.017 1.017 0 0 1 18.622 3.555 Q 18.448 3.3 18.448 2.949 A 1.206 1.206 0 0 1 18.847 2.044 A 1.694 1.694 0 0 1 18.943 1.96 A 1.752 1.752 0 0 1 19.726 1.6 A 2.471 2.471 0 0 1 20.206 1.556 A 2.559 2.559 0 0 1 20.77 1.614 A 1.757 1.757 0 0 1 21.518 1.973 Q 22.021 2.391 22.021 3.041 Z M 2.755 4.153 L 2.755 4.003 A 3.17 3.17 0 0 1 2.832 3.295 A 2.581 2.581 0 0 1 3.026 2.74 A 2.191 2.191 0 0 1 3.473 2.115 A 2.033 2.033 0 0 1 3.781 1.87 Q 4.267 1.556 4.834 1.556 A 2.254 2.254 0 0 1 5.447 1.635 A 1.639 1.639 0 0 1 6.275 2.167 Q 6.79 2.777 6.79 3.916 L 6.79 4.254 L 3.568 4.254 A 2.111 2.111 0 0 0 3.639 4.762 A 1.516 1.516 0 0 0 3.979 5.39 A 1.282 1.282 0 0 0 4.913 5.822 A 1.652 1.652 0 0 0 4.979 5.823 A 1.763 1.763 0 0 0 5.307 5.794 Q 5.531 5.751 5.708 5.647 A 1.827 1.827 0 0 0 6.217 5.199 A 2.068 2.068 0 0 0 6.231 5.181 L 6.728 5.568 A 1.926 1.926 0 0 1 5.328 6.459 A 2.749 2.749 0 0 1 4.935 6.486 A 2.394 2.394 0 0 1 4.184 6.374 A 1.974 1.974 0 0 1 3.362 5.851 Q 2.755 5.216 2.755 4.153 Z M 10.208 3.894 L 8.701 3.894 L 8.701 6.399 L 7.857 6.399 L 7.857 0 L 10.217 0 A 3.315 3.315 0 0 1 10.882 0.063 Q 11.285 0.145 11.595 0.336 A 1.839 1.839 0 0 1 11.863 0.536 A 1.772 1.772 0 0 1 12.45 1.753 A 2.45 2.45 0 0 1 12.458 1.956 Q 12.458 2.887 11.876 3.39 Q 11.397 3.804 10.578 3.878 A 4.14 4.14 0 0 1 10.208 3.894 Z M 23.414 0.492 L 24.227 0.492 L 24.227 1.644 L 25.115 1.644 L 25.115 2.272 L 24.227 2.272 L 24.227 5.221 Q 24.227 5.506 24.346 5.649 Q 24.464 5.792 24.75 5.792 A 1.046 1.046 0 0 0 24.848 5.787 Q 24.95 5.777 25.09 5.749 A 4.024 4.024 0 0 0 25.137 5.739 L 25.137 6.399 A 2.463 2.463 0 0 1 24.704 6.478 A 2.157 2.157 0 0 1 24.513 6.486 Q 24.066 6.486 23.799 6.265 A 0.856 0.856 0 0 1 23.691 6.157 Q 23.464 5.886 23.423 5.429 A 2.351 2.351 0 0 1 23.414 5.221 L 23.414 2.272 L 22.548 2.272 L 22.548 1.644 L 23.414 1.644 L 23.414 0.492 Z M 13.135 4.034 L 13.135 3.977 A 3.057 3.057 0 0 1 13.222 3.236 A 2.573 2.573 0 0 1 13.41 2.72 A 2.16 2.16 0 0 1 13.825 2.135 A 1.957 1.957 0 0 1 14.175 1.859 A 2.036 2.036 0 0 1 15.119 1.562 A 2.491 2.491 0 0 1 15.293 1.556 A 2.277 2.277 0 0 1 16.046 1.675 A 1.937 1.937 0 0 1 16.864 2.228 A 2.29 2.29 0 0 1 17.383 3.257 A 3.373 3.373 0 0 1 17.464 4.017 L 17.464 4.074 A 3.114 3.114 0 0 1 17.384 4.791 A 2.577 2.577 0 0 1 17.198 5.32 A 2.056 2.056 0 0 1 16.671 6.01 A 2.001 2.001 0 0 1 16.438 6.179 A 2.045 2.045 0 0 1 15.518 6.477 A 2.529 2.529 0 0 1 15.302 6.486 A 2.262 2.262 0 0 1 14.551 6.367 A 1.938 1.938 0 0 1 13.735 5.814 A 2.297 2.297 0 0 1 13.209 4.759 A 3.357 3.357 0 0 1 13.135 4.034 Z M 2.298 1.617 L 2.298 2.373 A 2.251 2.251 0 0 0 2.056 2.347 A 2.782 2.782 0 0 0 1.898 2.342 Q 1.121 2.342 0.829 2.987 A 1.445 1.445 0 0 0 0.813 3.024 L 0.813 6.399 L 0 6.399 L 0 1.644 L 0.791 1.644 L 0.804 2.193 Q 1.185 1.587 1.867 1.557 A 1.636 1.636 0 0 1 1.938 1.556 Q 2.175 1.556 2.298 1.617 Z M 13.953 4.074 A 2.772 2.772 0 0 0 14 4.602 Q 14.06 4.913 14.198 5.158 A 1.545 1.545 0 0 0 14.32 5.344 Q 14.687 5.823 15.302 5.823 A 1.269 1.269 0 0 0 15.791 5.732 Q 16.071 5.616 16.273 5.354 A 1.471 1.471 0 0 0 16.286 5.337 A 1.648 1.648 0 0 0 16.541 4.82 Q 16.61 4.593 16.635 4.321 A 3.655 3.655 0 0 0 16.651 3.977 A 2.687 2.687 0 0 0 16.6 3.437 Q 16.532 3.107 16.375 2.849 A 1.586 1.586 0 0 0 16.28 2.709 A 1.231 1.231 0 0 0 15.864 2.354 Q 15.611 2.224 15.293 2.224 Q 14.703 2.224 14.337 2.684 A 1.515 1.515 0 0 0 14.322 2.703 A 1.589 1.589 0 0 0 14.07 3.2 Q 14 3.421 13.972 3.687 A 3.676 3.676 0 0 0 13.953 4.074 Z M 8.701 0.694 L 8.701 3.204 L 10.217 3.204 A 2.313 2.313 0 0 0 10.609 3.173 Q 10.827 3.135 10.999 3.053 A 1.097 1.097 0 0 0 11.254 2.885 A 1.028 1.028 0 0 0 11.572 2.345 Q 11.613 2.177 11.615 1.977 A 1.996 1.996 0 0 0 11.615 1.964 A 1.466 1.466 0 0 0 11.561 1.557 A 1.112 1.112 0 0 0 11.254 1.05 Q 10.894 0.708 10.266 0.694 L 8.701 0.694 Z M 3.595 3.586 L 5.977 3.586 L 5.977 3.524 Q 5.951 3.066 5.78 2.76 A 1.13 1.13 0 0 0 5.643 2.564 A 0.983 0.983 0 0 0 4.988 2.232 A 1.39 1.39 0 0 0 4.834 2.224 A 1.106 1.106 0 0 0 4.312 2.347 A 1.14 1.14 0 0 0 4.008 2.582 A 1.417 1.417 0 0 0 3.731 3.028 Q 3.658 3.212 3.618 3.434 A 2.741 2.741 0 0 0 3.595 3.586 Z" vector-effect="non-scaling-stroke"/></g>
</svg>