<?xml version="1.0" encoding="UTF-8"?>
<svg width="80px" height="80px" viewBox="0 0 80 80" version="1.1" xmlns="http://www.w3.org/2000/svg" xmlns:xlink="http://www.w3.org/1999/xlink">
    <!-- Generator: Sketch 64 (93537) - https://sketch.com -->
    <title>Icon-Architecture/64/Arch_AWS-IoT-Greengrass-Core_64</title>
    <desc>Created with Sketch.</desc>
    
    <g id="Icon-Architecture/64/Arch_AWS-IoT-Greengrass-Core_64" stroke="none" stroke-width="1" fill="none" fill-rule="evenodd">
        
        <path transform="translate(0vw, 0vh), scale(.65)" d="M25,21 C26.654,21 28,22.346 28,24 C28,25.654 26.654,27 25,27 C23.346,27 22,25.654 22,24 C22,22.346 23.346,21 25,21 L25,21 Z M25,29 C26.012,29 26.952,28.693 27.74,28.174 L49.653,51 L47,51 L47,53 L52,53 C52.553,53 53,52.552 53,52 L53,47 L51,47 L51,49.514 L29.16,26.765 C29.689,25.972 30,25.022 30,24 C30,21.243 27.757,19 25,19 C22.243,19 20,21.243 20,24 C20,26.757 22.243,29 25,29 L25,29 Z M51,44 L53,44 L53,39 L51,39 L51,44 Z M51,36 L53,36 L53,31 L51,31 L51,36 Z M39,53 L44,53 L44,51 L39,51 L39,53 Z M31,53 L36,53 L36,51 L31,51 L31,53 Z M17,52 C17,50.346 18.346,49 20,49 C21.654,49 23,50.346 23,52 C23,53.654 21.654,55 20,55 C18.346,55 17,53.654 17,52 L17,52 Z M52,23 C50.346,23 49,21.654 49,20 C49,18.346 50.346,17 52,17 C53.654,17 55,18.346 55,20 C55,21.654 53.654,23 52,23 L52,23 Z M56.572,22.007 C56.844,21.392 57,20.715 57,20 C57,17.243 54.757,15 52,15 C49.243,15 47,17.243 47,20 C47,22.415 48.721,24.434 51,24.899 L51,28 L53,28 L53,24.899 C53.922,24.711 54.743,24.26 55.405,23.64 C60.183,27.875 63,34.111 63,40.584 C63,52.944 52.875,63 40.43,63 C33.963,63 27.916,60.248 23.64,55.405 C24.26,54.743 24.711,53.922 24.898,53 L28,53 L28,51 L24.898,51 C24.435,48.721 22.414,47 20,47 C17.243,47 15,49.243 15,52 C15,54.757 17.243,57 20,57 C20.715,57 21.392,56.844 22.008,56.572 C26.67,61.941 33.314,65 40.43,65 C53.978,65 65,54.047 65,40.584 C65,33.472 61.869,26.621 56.572,22.007 L56.572,22.007 Z" id="AWS-IoT-Greengrass-Core_Icon_64_Squid" fill="#000000"></path>
    </g><g transform="translate(12vw, 80vh)" id="svgGroup" stroke-linecap="round" fill-rule="evenodd" font-size="9pt" stroke="#000" stroke-width="0.25mm" fill="#000" style="stroke:#000;stroke-width:0.25mm;fill:#000"><path d="M 19.841 3.3 L 19.841 5.647 A 1.895 1.895 0 0 1 19.118 6.262 A 2.364 2.364 0 0 1 18.934 6.344 A 3.162 3.162 0 0 1 18.261 6.524 Q 17.951 6.573 17.601 6.574 A 5.148 5.148 0 0 1 17.578 6.574 A 2.838 2.838 0 0 1 16.755 6.459 A 2.459 2.459 0 0 1 16.189 6.207 A 2.43 2.43 0 0 1 15.283 5.226 A 2.924 2.924 0 0 1 15.251 5.164 A 3.277 3.277 0 0 1 14.963 4.234 A 4.307 4.307 0 0 1 14.911 3.595 L 14.911 3.037 Q 14.911 1.591 15.585 0.795 A 2.198 2.198 0 0 1 16.939 0.044 A 3.227 3.227 0 0 1 17.481 0 Q 18.483 0 19.094 0.512 A 2.047 2.047 0 0 1 19.716 1.437 A 2.896 2.896 0 0 1 19.841 1.964 L 18.998 1.964 Q 18.791 0.857 17.795 0.715 A 2.195 2.195 0 0 0 17.486 0.694 A 1.917 1.917 0 0 0 16.951 0.765 A 1.386 1.386 0 0 0 16.2 1.29 A 1.986 1.986 0 0 0 15.917 1.862 Q 15.829 2.133 15.79 2.463 A 4.871 4.871 0 0 0 15.759 3.015 L 15.759 3.538 A 3.827 3.827 0 0 0 15.817 4.226 Q 15.928 4.833 16.251 5.249 A 1.569 1.569 0 0 0 17.391 5.876 A 2.069 2.069 0 0 0 17.583 5.884 Q 18.015 5.884 18.35 5.797 A 2.106 2.106 0 0 0 18.413 5.779 A 1.357 1.357 0 0 0 18.801 5.596 A 1.217 1.217 0 0 0 19.002 5.423 L 19.002 3.986 L 17.521 3.986 L 17.521 3.3 L 19.841 3.3 Z M 41.625 2.259 L 41.665 1.732 L 42.407 1.732 L 42.407 6.372 A 2.511 2.511 0 0 1 42.337 6.985 A 1.738 1.738 0 0 1 41.86 7.827 A 1.834 1.834 0 0 1 40.93 8.307 A 2.671 2.671 0 0 1 40.39 8.358 A 2.446 2.446 0 0 1 39.384 8.139 A 2.003 2.003 0 0 1 38.974 7.897 A 1.563 1.563 0 0 1 38.632 7.537 L 39.054 7.049 A 1.889 1.889 0 0 0 39.489 7.449 A 1.514 1.514 0 0 0 40.333 7.695 A 1.695 1.695 0 0 0 40.71 7.655 Q 40.978 7.594 41.172 7.438 A 1.037 1.037 0 0 0 41.258 7.361 A 1.09 1.09 0 0 0 41.535 6.868 Q 41.582 6.695 41.589 6.489 A 2.134 2.134 0 0 0 41.59 6.42 L 41.59 6.012 A 1.601 1.601 0 0 1 40.538 6.558 A 2.279 2.279 0 0 1 40.258 6.574 A 1.672 1.672 0 0 1 39.503 6.406 Q 39.181 6.246 38.931 5.933 A 2.14 2.14 0 0 1 38.907 5.902 A 2.316 2.316 0 0 1 38.524 5.122 Q 38.391 4.659 38.391 4.069 Q 38.391 3.208 38.699 2.62 A 2.096 2.096 0 0 1 38.905 2.301 Q 39.419 1.644 40.267 1.644 A 1.971 1.971 0 0 1 40.866 1.73 A 1.55 1.55 0 0 1 41.625 2.259 Z M 54.936 3.129 L 54.119 3.129 Q 54.119 2.795 53.835 2.553 Q 53.552 2.312 53.121 2.312 Q 52.677 2.312 52.427 2.505 A 0.653 0.653 0 0 0 52.252 2.704 Q 52.179 2.835 52.176 3 A 0.771 0.771 0 0 0 52.176 3.01 A 0.588 0.588 0 0 0 52.206 3.203 A 0.48 0.48 0 0 0 52.409 3.454 A 1.093 1.093 0 0 0 52.559 3.533 Q 52.724 3.605 52.979 3.673 A 6.581 6.581 0 0 0 53.251 3.74 A 6.318 6.318 0 0 1 53.658 3.845 Q 53.995 3.944 54.237 4.065 A 1.901 1.901 0 0 1 54.493 4.218 Q 54.63 4.315 54.727 4.429 A 1.06 1.06 0 0 1 54.798 4.52 A 1.024 1.024 0 0 1 54.96 4.927 A 1.388 1.388 0 0 1 54.98 5.168 Q 54.98 5.805 54.47 6.19 Q 53.988 6.554 53.234 6.573 A 3.337 3.337 0 0 1 53.147 6.574 A 2.746 2.746 0 0 1 52.613 6.525 A 2.124 2.124 0 0 1 52.137 6.372 A 1.771 1.771 0 0 1 51.703 6.094 A 1.54 1.54 0 0 1 51.449 5.807 Q 51.201 5.445 51.201 5.023 L 52.014 5.023 A 0.932 0.932 0 0 0 52.087 5.348 A 0.827 0.827 0 0 0 52.341 5.671 A 1.072 1.072 0 0 0 52.743 5.864 Q 52.898 5.903 53.079 5.91 A 2.013 2.013 0 0 0 53.147 5.911 A 1.863 1.863 0 0 0 53.443 5.889 Q 53.605 5.863 53.736 5.806 A 0.941 0.941 0 0 0 53.888 5.724 A 0.689 0.689 0 0 0 54.052 5.574 A 0.554 0.554 0 0 0 54.167 5.225 A 0.698 0.698 0 0 0 54.131 4.994 A 0.581 0.581 0 0 0 53.919 4.713 A 1.05 1.05 0 0 0 53.75 4.615 Q 53.561 4.524 53.266 4.449 A 5.392 5.392 0 0 0 53.053 4.399 A 6.342 6.342 0 0 1 52.692 4.311 Q 52.322 4.209 52.073 4.083 Q 51.774 3.93 51.604 3.731 A 1.017 1.017 0 0 1 51.537 3.643 Q 51.363 3.388 51.363 3.037 A 1.206 1.206 0 0 1 51.762 2.132 A 1.694 1.694 0 0 1 51.858 2.048 A 1.752 1.752 0 0 1 52.641 1.688 A 2.471 2.471 0 0 1 53.121 1.644 A 2.559 2.559 0 0 1 53.685 1.702 A 1.757 1.757 0 0 1 54.433 2.061 Q 54.936 2.479 54.936 3.129 Z M 59.577 3.129 L 58.759 3.129 Q 58.759 2.795 58.476 2.553 Q 58.192 2.312 57.762 2.312 Q 57.318 2.312 57.067 2.505 A 0.653 0.653 0 0 0 56.892 2.704 Q 56.819 2.835 56.817 3 A 0.771 0.771 0 0 0 56.817 3.01 A 0.588 0.588 0 0 0 56.847 3.203 A 0.48 0.48 0 0 0 57.05 3.454 A 1.093 1.093 0 0 0 57.2 3.533 Q 57.364 3.605 57.62 3.673 A 6.581 6.581 0 0 0 57.891 3.74 A 6.318 6.318 0 0 1 58.299 3.845 Q 58.636 3.944 58.878 4.065 A 1.901 1.901 0 0 1 59.134 4.218 Q 59.271 4.315 59.368 4.429 A 1.06 1.06 0 0 1 59.438 4.52 A 1.024 1.024 0 0 1 59.6 4.927 A 1.388 1.388 0 0 1 59.621 5.168 Q 59.621 5.805 59.111 6.19 Q 58.628 6.554 57.875 6.573 A 3.337 3.337 0 0 1 57.788 6.574 A 2.746 2.746 0 0 1 57.254 6.525 A 2.124 2.124 0 0 1 56.777 6.372 A 1.771 1.771 0 0 1 56.343 6.094 A 1.54 1.54 0 0 1 56.09 5.807 Q 55.841 5.445 55.841 5.023 L 56.654 5.023 A 0.932 0.932 0 0 0 56.728 5.348 A 0.827 0.827 0 0 0 56.982 5.671 A 1.072 1.072 0 0 0 57.384 5.864 Q 57.538 5.903 57.72 5.91 A 2.013 2.013 0 0 0 57.788 5.911 A 1.863 1.863 0 0 0 58.084 5.889 Q 58.245 5.863 58.377 5.806 A 0.941 0.941 0 0 0 58.529 5.724 A 0.689 0.689 0 0 0 58.693 5.574 A 0.554 0.554 0 0 0 58.808 5.225 A 0.698 0.698 0 0 0 58.771 4.994 A 0.581 0.581 0 0 0 58.559 4.713 A 1.05 1.05 0 0 0 58.39 4.615 Q 58.202 4.524 57.907 4.449 A 5.392 5.392 0 0 0 57.694 4.399 A 6.342 6.342 0 0 1 57.333 4.311 Q 56.963 4.209 56.714 4.083 Q 56.415 3.93 56.244 3.731 A 1.017 1.017 0 0 1 56.177 3.643 Q 56.004 3.388 56.004 3.037 A 1.206 1.206 0 0 1 56.403 2.132 A 1.694 1.694 0 0 1 56.498 2.048 A 1.752 1.752 0 0 1 57.281 1.688 A 2.471 2.471 0 0 1 57.762 1.644 A 2.559 2.559 0 0 1 58.325 1.702 A 1.757 1.757 0 0 1 59.073 2.061 Q 59.577 2.479 59.577 3.129 Z M 33.618 1.732 L 34.387 1.732 L 34.414 2.329 Q 34.95 1.654 35.81 1.644 A 2.234 2.234 0 0 1 35.837 1.644 A 1.905 1.905 0 0 1 36.471 1.74 Q 37.313 2.037 37.356 3.242 A 3.668 3.668 0 0 1 37.358 3.344 L 37.358 6.486 L 36.545 6.486 L 36.545 3.34 A 1.837 1.837 0 0 0 36.523 3.06 Q 36.472 2.753 36.31 2.58 Q 36.124 2.381 35.77 2.343 A 1.66 1.66 0 0 0 35.591 2.334 A 1.253 1.253 0 0 0 35.177 2.4 A 1.123 1.123 0 0 0 34.897 2.545 A 1.432 1.432 0 0 0 34.431 3.098 L 34.431 6.486 L 33.618 6.486 L 33.618 1.732 Z M 11.94 0.088 L 11.94 0.782 L 9.883 0.782 L 9.883 6.486 L 9.044 6.486 L 9.044 0.782 L 6.992 0.782 L 6.992 0.088 L 11.94 0.088 Z M 50.291 6.486 L 49.438 6.486 A 0.632 0.632 0 0 1 49.403 6.396 Q 49.372 6.298 49.347 6.146 A 3.997 3.997 0 0 1 49.324 5.985 Q 48.757 6.574 47.971 6.574 A 2.033 2.033 0 0 1 47.441 6.509 A 1.529 1.529 0 0 1 46.817 6.177 Q 46.367 5.779 46.367 5.168 Q 46.367 4.425 46.931 4.014 Q 47.496 3.604 48.52 3.604 L 49.311 3.604 L 49.311 3.23 A 1.152 1.152 0 0 0 49.275 2.935 A 0.828 0.828 0 0 0 49.056 2.551 Q 48.84 2.337 48.449 2.304 A 1.748 1.748 0 0 0 48.305 2.298 Q 47.87 2.298 47.575 2.518 Q 47.281 2.738 47.281 3.05 L 46.463 3.05 A 1.041 1.041 0 0 1 46.588 2.561 A 1.409 1.409 0 0 1 46.716 2.362 Q 46.969 2.03 47.402 1.837 A 2.249 2.249 0 0 1 48.177 1.649 A 2.669 2.669 0 0 1 48.353 1.644 A 2.65 2.65 0 0 1 48.87 1.691 Q 49.178 1.752 49.417 1.892 A 1.439 1.439 0 0 1 49.641 2.055 A 1.396 1.396 0 0 1 50.094 2.881 A 1.998 1.998 0 0 1 50.124 3.186 L 50.124 5.375 Q 50.124 5.809 50.198 6.126 A 1.707 1.707 0 0 0 50.291 6.416 L 50.291 6.486 Z M 23.875 4.241 L 23.875 4.091 A 3.17 3.17 0 0 1 23.952 3.382 A 2.581 2.581 0 0 1 24.146 2.828 A 2.191 2.191 0 0 1 24.593 2.202 A 2.033 2.033 0 0 1 24.902 1.958 Q 25.387 1.644 25.954 1.644 A 2.254 2.254 0 0 1 26.567 1.723 A 1.639 1.639 0 0 1 27.396 2.254 Q 27.91 2.865 27.91 4.003 L 27.91 4.342 L 24.688 4.342 A 2.111 2.111 0 0 0 24.76 4.85 A 1.516 1.516 0 0 0 25.099 5.478 A 1.282 1.282 0 0 0 26.033 5.909 A 1.652 1.652 0 0 0 26.099 5.911 A 1.763 1.763 0 0 0 26.427 5.882 Q 26.651 5.839 26.829 5.735 A 1.827 1.827 0 0 0 27.337 5.287 A 2.068 2.068 0 0 0 27.352 5.269 L 27.848 5.656 A 1.926 1.926 0 0 1 26.448 6.547 A 2.749 2.749 0 0 1 26.055 6.574 A 2.394 2.394 0 0 1 25.304 6.461 A 1.974 1.974 0 0 1 24.482 5.939 Q 23.875 5.304 23.875 4.241 Z M 28.644 4.241 L 28.644 4.091 A 3.17 3.17 0 0 1 28.72 3.382 A 2.581 2.581 0 0 1 28.914 2.828 A 2.191 2.191 0 0 1 29.361 2.202 A 2.033 2.033 0 0 1 29.67 1.958 Q 30.155 1.644 30.722 1.644 A 2.254 2.254 0 0 1 31.335 1.723 A 1.639 1.639 0 0 1 32.164 2.254 Q 32.678 2.865 32.678 4.003 L 32.678 4.342 L 29.457 4.342 A 2.111 2.111 0 0 0 29.528 4.85 A 1.516 1.516 0 0 0 29.867 5.478 A 1.282 1.282 0 0 0 30.801 5.909 A 1.652 1.652 0 0 0 30.867 5.911 A 1.763 1.763 0 0 0 31.195 5.882 Q 31.419 5.839 31.597 5.735 A 1.827 1.827 0 0 0 32.106 5.287 A 2.068 2.068 0 0 0 32.12 5.269 L 32.616 5.656 A 1.926 1.926 0 0 1 31.216 6.547 A 2.749 2.749 0 0 1 30.823 6.574 A 2.394 2.394 0 0 1 30.072 6.461 A 1.974 1.974 0 0 1 29.25 5.939 Q 28.644 5.304 28.644 4.241 Z M 2.043 4.122 L 2.043 4.065 A 3.057 3.057 0 0 1 2.13 3.323 A 2.573 2.573 0 0 1 2.318 2.808 A 2.16 2.16 0 0 1 2.733 2.223 A 1.957 1.957 0 0 1 3.083 1.947 A 2.036 2.036 0 0 1 4.027 1.65 A 2.491 2.491 0 0 1 4.201 1.644 A 2.277 2.277 0 0 1 4.955 1.763 A 1.937 1.937 0 0 1 5.772 2.316 A 2.29 2.29 0 0 1 6.291 3.345 A 3.373 3.373 0 0 1 6.372 4.105 L 6.372 4.162 A 3.114 3.114 0 0 1 6.293 4.878 A 2.577 2.577 0 0 1 6.106 5.408 A 2.056 2.056 0 0 1 5.579 6.098 A 2.001 2.001 0 0 1 5.346 6.267 A 2.045 2.045 0 0 1 4.426 6.565 A 2.529 2.529 0 0 1 4.21 6.574 A 2.262 2.262 0 0 1 3.46 6.455 A 1.938 1.938 0 0 1 2.643 5.902 A 2.297 2.297 0 0 1 2.118 4.847 A 3.357 3.357 0 0 1 2.043 4.122 Z M 23.418 1.705 L 23.418 2.461 A 2.251 2.251 0 0 0 23.176 2.435 A 2.782 2.782 0 0 0 23.019 2.43 Q 22.241 2.43 21.949 3.074 A 1.445 1.445 0 0 0 21.933 3.111 L 21.933 6.486 L 21.12 6.486 L 21.12 1.732 L 21.911 1.732 L 21.924 2.281 Q 22.305 1.675 22.987 1.645 A 1.636 1.636 0 0 1 23.058 1.644 Q 23.295 1.644 23.418 1.705 Z M 45.932 1.705 L 45.932 2.461 A 2.251 2.251 0 0 0 45.689 2.435 A 2.782 2.782 0 0 0 45.532 2.43 Q 44.754 2.43 44.462 3.074 A 1.445 1.445 0 0 0 44.446 3.111 L 44.446 6.486 L 43.633 6.486 L 43.633 1.732 L 44.424 1.732 L 44.438 2.281 Q 44.818 1.675 45.5 1.645 A 1.636 1.636 0 0 1 45.571 1.644 Q 45.809 1.644 45.932 1.705 Z M 0.844 0.088 L 0.844 6.486 L 0 6.486 L 0 0.088 L 0.844 0.088 Z M 2.861 4.162 A 2.772 2.772 0 0 0 2.908 4.69 Q 2.969 5.001 3.106 5.246 A 1.545 1.545 0 0 0 3.228 5.432 Q 3.595 5.911 4.21 5.911 A 1.269 1.269 0 0 0 4.699 5.819 Q 4.979 5.704 5.181 5.442 A 1.471 1.471 0 0 0 5.194 5.425 A 1.648 1.648 0 0 0 5.449 4.908 Q 5.518 4.681 5.544 4.409 A 3.655 3.655 0 0 0 5.559 4.065 A 2.687 2.687 0 0 0 5.508 3.525 Q 5.44 3.195 5.283 2.936 A 1.586 1.586 0 0 0 5.188 2.797 A 1.231 1.231 0 0 0 4.773 2.442 Q 4.52 2.312 4.201 2.312 Q 3.611 2.312 3.245 2.771 A 1.515 1.515 0 0 0 3.23 2.791 A 1.589 1.589 0 0 0 2.978 3.288 Q 2.908 3.509 2.88 3.775 A 3.676 3.676 0 0 0 2.861 4.162 Z M 41.59 5.186 L 41.59 3.015 A 1.439 1.439 0 0 0 41.289 2.627 Q 40.985 2.356 40.545 2.335 A 1.578 1.578 0 0 0 40.469 2.334 Q 39.877 2.334 39.544 2.793 A 1.51 1.51 0 0 0 39.333 3.221 Q 39.267 3.425 39.236 3.676 A 3.955 3.955 0 0 0 39.208 4.162 Q 39.208 4.966 39.538 5.425 Q 39.867 5.884 40.46 5.884 A 1.32 1.32 0 0 0 40.97 5.79 Q 41.362 5.628 41.59 5.186 Z M 49.311 5.155 L 49.311 4.179 L 48.674 4.179 Q 47.18 4.179 47.18 5.054 Q 47.18 5.436 47.435 5.651 A 0.893 0.893 0 0 0 47.848 5.845 A 1.259 1.259 0 0 0 48.089 5.867 A 1.429 1.429 0 0 0 48.814 5.669 A 1.335 1.335 0 0 0 49.11 5.442 A 1.108 1.108 0 0 0 49.311 5.155 Z M 24.715 3.674 L 27.097 3.674 L 27.097 3.612 Q 27.071 3.153 26.9 2.848 A 1.13 1.13 0 0 0 26.763 2.652 A 0.983 0.983 0 0 0 26.108 2.32 A 1.39 1.39 0 0 0 25.954 2.312 A 1.106 1.106 0 0 0 25.432 2.435 A 1.14 1.14 0 0 0 25.128 2.67 A 1.417 1.417 0 0 0 24.851 3.116 Q 24.778 3.3 24.738 3.522 A 2.741 2.741 0 0 0 24.715 3.674 Z M 29.483 3.674 L 31.865 3.674 L 31.865 3.612 Q 31.839 3.153 31.668 2.848 A 1.13 1.13 0 0 0 31.531 2.652 A 0.983 0.983 0 0 0 30.876 2.32 A 1.39 1.39 0 0 0 30.722 2.312 A 1.106 1.106 0 0 0 30.2 2.435 A 1.14 1.14 0 0 0 29.896 2.67 A 1.417 1.417 0 0 0 29.619 3.116 Q 29.546 3.3 29.506 3.522 A 2.741 2.741 0 0 0 29.483 3.674 Z" vector-effect="non-scaling-stroke"/></g>
</svg>