<?xml version="1.0" encoding="UTF-8"?>
<svg width="80px" height="80px" viewBox="0 0 80 80" version="1.1" xmlns="http://www.w3.org/2000/svg" xmlns:xlink="http://www.w3.org/1999/xlink">
    <!-- Generator: Sketch 64 (93537) - https://sketch.com -->
    <title>Icon-Architecture/64/Arch_AWS-IoT-Button_64</title>
    <desc>Created with Sketch.</desc>
    
    <g id="Icon-Architecture/64/Arch_AWS-IoT-Button_64" stroke="none" stroke-width="1" fill="none" fill-rule="evenodd">
        
        <path transform="translate(0vw, 0vh), scale(.65)" d="M41.5,42.502 C42.881,42.502 44,41.383 44,40.002 C44,38.621 42.881,37.502 41.5,37.502 C40.119,37.502 39,38.621 39,40.002 C39,41.383 40.119,42.502 41.5,42.502 L41.5,42.502 Z M48,40 C48,43.309 50.691,46 54,46 C57.309,46 60,43.309 60,40 C60,36.691 57.309,34 54,34 C50.691,34 48,36.691 48,40 L48,40 Z M46,40 C46,35.589 49.589,32 54,32 C58.411,32 62,35.589 62,40 C62,44.411 58.411,48 54,48 C49.589,48 46,44.411 46,40 L46,40 Z M15,40 C15,45.794 18.785,50 24,50 C24.03,50 24.06,50.002 24.089,50.004 L55.911,50.004 C55.94,50.002 55.97,50 56,50 C61.215,50 65,45.794 65,40 C65,34.208 61.215,30.004 56,30.004 C55.97,30.004 55.94,30.002 55.911,30 L24.089,30 C24.06,30.002 24.03,30.004 24,30.004 C18.785,30.004 15,34.208 15,40 L15,40 Z M13,40 C13,33.083 17.581,28.053 23.907,28.004 C23.938,28.002 23.969,28 24,28 L56,28 C56.031,28 56.063,28.002 56.093,28.004 C62.419,28.053 67,33.083 67,40 C67,46.92 62.419,51.951 56.093,52 C56.063,52.002 56.031,52.004 56,52.004 L24,52.004 C23.969,52.004 23.938,52.002 23.907,52 C17.581,51.951 13,46.919 13,40 L13,40 Z M17,17 L26,17 L26,15 L16,15 C15.447,15 15,15.448 15,16 L15,26 L17,26 L17,17 Z M63,26 L65,26 L65,16 C65,15.448 64.553,15 64,15 L54,15 L54,17 L63,17 L63,26 Z M17,54 L15,54 L15,64 C15,64.552 15.447,65 16,65 L26,65 L26,63 L17,63 L17,54 Z M63,54 L65,54 L65,64 C65,64.552 64.553,65 64,65 L54,65 L54,63 L63,63 L63,54 Z" id="AWS-IoT-Button_Icon_64_Squid" fill="#000000"></path>
    </g><g transform="translate(13vw, 80vh)" id="svgGroup" stroke-linecap="round" fill-rule="evenodd" font-size="9pt" stroke="#000" stroke-width="0.25mm" fill="#000" style="stroke:#000;stroke-width:0.25mm;fill:#000"><path d="M 36.479 1.644 L 37.248 1.644 L 37.274 2.241 Q 37.811 1.567 38.671 1.556 A 2.234 2.234 0 0 1 38.698 1.556 A 1.905 1.905 0 0 1 39.332 1.652 Q 40.174 1.949 40.217 3.154 A 3.668 3.668 0 0 1 40.219 3.256 L 40.219 6.398 L 39.406 6.398 L 39.406 3.252 A 1.837 1.837 0 0 0 39.383 2.972 Q 39.333 2.665 39.171 2.492 Q 38.985 2.293 38.631 2.255 A 1.66 1.66 0 0 0 38.452 2.246 A 1.253 1.253 0 0 0 38.038 2.312 A 1.123 1.123 0 0 0 37.758 2.457 A 1.432 1.432 0 0 0 37.292 3.01 L 37.292 6.398 L 36.479 6.398 L 36.479 1.644 Z M 23.546 6.398 L 23.528 5.928 A 1.526 1.526 0 0 1 22.702 6.423 Q 22.452 6.484 22.154 6.486 A 2.996 2.996 0 0 1 22.135 6.486 A 2.086 2.086 0 0 1 21.675 6.439 Q 21.245 6.341 20.977 6.045 A 1.41 1.41 0 0 1 20.694 5.547 Q 20.578 5.204 20.575 4.737 L 20.575 1.644 L 21.388 1.644 L 21.388 4.715 Q 21.388 5.685 22.096 5.785 A 1.229 1.229 0 0 0 22.267 5.796 A 1.927 1.927 0 0 0 22.718 5.747 Q 23.28 5.612 23.506 5.102 L 23.506 1.644 L 24.319 1.644 L 24.319 6.398 L 23.546 6.398 Z M 11.94 0 L 11.94 0.694 L 9.883 0.694 L 9.883 6.398 L 9.044 6.398 L 9.044 0.694 L 6.992 0.694 L 6.992 0 L 11.94 0 Z M 17.336 6.398 L 15.117 6.398 L 15.117 0 L 17.209 0 A 4.031 4.031 0 0 1 17.782 0.038 Q 18.075 0.08 18.311 0.169 A 1.629 1.629 0 0 1 18.776 0.431 A 1.383 1.383 0 0 1 19.247 1.207 A 2.164 2.164 0 0 1 19.301 1.705 A 1.3 1.3 0 0 1 19.046 2.498 A 1.589 1.589 0 0 1 18.535 2.942 A 1.972 1.972 0 0 1 18.352 3.032 A 1.571 1.571 0 0 1 18.866 3.278 A 1.446 1.446 0 0 1 19.171 3.584 A 1.531 1.531 0 0 1 19.463 4.362 A 1.961 1.961 0 0 1 19.472 4.553 A 2.139 2.139 0 0 1 19.397 5.136 A 1.577 1.577 0 0 1 18.914 5.906 A 1.832 1.832 0 0 1 18.222 6.281 Q 17.955 6.362 17.637 6.387 A 3.81 3.81 0 0 1 17.336 6.398 Z M 25.844 0.492 L 26.657 0.492 L 26.657 1.644 L 27.545 1.644 L 27.545 2.272 L 26.657 2.272 L 26.657 5.221 Q 26.657 5.506 26.776 5.649 Q 26.895 5.792 27.18 5.792 A 1.046 1.046 0 0 0 27.278 5.787 Q 27.38 5.777 27.52 5.749 A 4.024 4.024 0 0 0 27.567 5.739 L 27.567 6.398 A 2.463 2.463 0 0 1 27.134 6.478 A 2.157 2.157 0 0 1 26.943 6.486 Q 26.496 6.486 26.229 6.264 A 0.856 0.856 0 0 1 26.121 6.157 Q 25.894 5.886 25.853 5.429 A 2.351 2.351 0 0 1 25.844 5.221 L 25.844 2.272 L 24.979 2.272 L 24.979 1.644 L 25.844 1.644 L 25.844 0.492 Z M 28.784 0.492 L 29.597 0.492 L 29.597 1.644 L 30.485 1.644 L 30.485 2.272 L 29.597 2.272 L 29.597 5.221 Q 29.597 5.506 29.716 5.649 Q 29.834 5.792 30.12 5.792 A 1.046 1.046 0 0 0 30.218 5.787 Q 30.32 5.777 30.46 5.749 A 4.024 4.024 0 0 0 30.507 5.739 L 30.507 6.398 A 2.463 2.463 0 0 1 30.074 6.478 A 2.157 2.157 0 0 1 29.883 6.486 Q 29.436 6.486 29.169 6.264 A 0.856 0.856 0 0 1 29.061 6.157 Q 28.834 5.886 28.793 5.429 A 2.351 2.351 0 0 1 28.784 5.221 L 28.784 2.272 L 27.918 2.272 L 27.918 1.644 L 28.784 1.644 L 28.784 0.492 Z M 2.043 4.034 L 2.043 3.977 A 3.057 3.057 0 0 1 2.13 3.236 A 2.573 2.573 0 0 1 2.318 2.72 A 2.16 2.16 0 0 1 2.733 2.135 A 1.957 1.957 0 0 1 3.083 1.859 A 2.036 2.036 0 0 1 4.027 1.562 A 2.491 2.491 0 0 1 4.201 1.556 A 2.277 2.277 0 0 1 4.955 1.675 A 1.937 1.937 0 0 1 5.772 2.228 A 2.29 2.29 0 0 1 6.291 3.257 A 3.373 3.373 0 0 1 6.372 4.017 L 6.372 4.074 A 3.114 3.114 0 0 1 6.293 4.79 A 2.577 2.577 0 0 1 6.106 5.32 A 2.056 2.056 0 0 1 5.579 6.01 A 2.001 2.001 0 0 1 5.346 6.179 A 2.045 2.045 0 0 1 4.426 6.477 A 2.529 2.529 0 0 1 4.21 6.486 A 2.262 2.262 0 0 1 3.46 6.367 A 1.938 1.938 0 0 1 2.643 5.814 A 2.297 2.297 0 0 1 2.118 4.759 A 3.357 3.357 0 0 1 2.043 4.034 Z M 31.131 4.034 L 31.131 3.977 A 3.057 3.057 0 0 1 31.218 3.236 A 2.573 2.573 0 0 1 31.406 2.72 A 2.16 2.16 0 0 1 31.82 2.135 A 1.957 1.957 0 0 1 32.17 1.859 A 2.036 2.036 0 0 1 33.115 1.562 A 2.491 2.491 0 0 1 33.289 1.556 A 2.277 2.277 0 0 1 34.042 1.675 A 1.937 1.937 0 0 1 34.86 2.228 A 2.29 2.29 0 0 1 35.379 3.257 A 3.373 3.373 0 0 1 35.459 4.017 L 35.459 4.074 A 3.114 3.114 0 0 1 35.38 4.79 A 2.577 2.577 0 0 1 35.194 5.32 A 2.056 2.056 0 0 1 34.666 6.01 A 2.001 2.001 0 0 1 34.433 6.179 A 2.045 2.045 0 0 1 33.514 6.477 A 2.529 2.529 0 0 1 33.297 6.486 A 2.262 2.262 0 0 1 32.547 6.367 A 1.938 1.938 0 0 1 31.731 5.814 A 2.297 2.297 0 0 1 31.205 4.759 A 3.357 3.357 0 0 1 31.131 4.034 Z M 0.844 0 L 0.844 6.398 L 0 6.398 L 0 0 L 0.844 0 Z M 2.861 4.074 A 2.772 2.772 0 0 0 2.908 4.602 Q 2.969 4.913 3.106 5.158 A 1.545 1.545 0 0 0 3.228 5.344 Q 3.595 5.823 4.21 5.823 A 1.269 1.269 0 0 0 4.699 5.732 Q 4.979 5.616 5.181 5.354 A 1.471 1.471 0 0 0 5.194 5.337 A 1.648 1.648 0 0 0 5.449 4.82 Q 5.518 4.593 5.544 4.321 A 3.655 3.655 0 0 0 5.559 3.977 A 2.687 2.687 0 0 0 5.508 3.437 Q 5.44 3.107 5.283 2.849 A 1.586 1.586 0 0 0 5.188 2.709 A 1.231 1.231 0 0 0 4.773 2.354 Q 4.52 2.224 4.201 2.224 Q 3.611 2.224 3.245 2.684 A 1.515 1.515 0 0 0 3.23 2.703 A 1.589 1.589 0 0 0 2.978 3.2 Q 2.908 3.421 2.88 3.687 A 3.676 3.676 0 0 0 2.861 4.074 Z M 31.948 4.074 A 2.772 2.772 0 0 0 31.996 4.602 Q 32.056 4.913 32.193 5.158 A 1.545 1.545 0 0 0 32.315 5.344 Q 32.682 5.823 33.297 5.823 A 1.269 1.269 0 0 0 33.787 5.732 Q 34.066 5.616 34.269 5.354 A 1.471 1.471 0 0 0 34.282 5.337 A 1.648 1.648 0 0 0 34.537 4.82 Q 34.605 4.593 34.631 4.321 A 3.655 3.655 0 0 0 34.646 3.977 A 2.687 2.687 0 0 0 34.595 3.437 Q 34.528 3.107 34.37 2.849 A 1.586 1.586 0 0 0 34.275 2.709 A 1.231 1.231 0 0 0 33.86 2.354 Q 33.607 2.224 33.289 2.224 Q 32.699 2.224 32.332 2.684 A 1.515 1.515 0 0 0 32.317 2.703 A 1.589 1.589 0 0 0 32.065 3.2 Q 31.996 3.421 31.968 3.687 A 3.676 3.676 0 0 0 31.948 4.074 Z M 17.367 3.406 L 15.961 3.406 L 15.961 5.709 L 17.354 5.709 A 1.84 1.84 0 0 0 17.73 5.672 Q 17.97 5.622 18.153 5.503 A 1.064 1.064 0 0 0 18.283 5.403 A 1.003 1.003 0 0 0 18.605 4.802 A 1.459 1.459 0 0 0 18.624 4.562 Q 18.624 3.656 17.852 3.46 A 1.977 1.977 0 0 0 17.368 3.406 Z M 15.961 0.694 L 15.961 2.729 L 17.235 2.729 Q 17.789 2.729 18.121 2.452 A 0.905 0.905 0 0 0 18.449 1.802 A 1.27 1.27 0 0 0 18.453 1.701 Q 18.453 1.344 18.312 1.119 A 0.71 0.71 0 0 0 18.145 0.934 A 0.969 0.969 0 0 0 17.859 0.784 Q 17.596 0.695 17.215 0.694 A 3.261 3.261 0 0 0 17.209 0.694 L 15.961 0.694 Z" vector-effect="non-scaling-stroke"/></g>
</svg>