<?xml version="1.0" encoding="UTF-8"?>
<svg width="80px" height="80px" viewBox="0 0 80 80" version="1.1" xmlns="http://www.w3.org/2000/svg" xmlns:xlink="http://www.w3.org/1999/xlink">
    <!-- Generator: Sketch 64 (93537) - https://sketch.com -->
    <title>Icon-Architecture/64/Arch_AWS-IoT-SiteWise_64</title>
    <desc>Created with Sketch.</desc>
    
    <g id="Icon-Architecture/64/Arch_AWS-IoT-SiteWise_64" stroke="none" stroke-width="1" fill="none" fill-rule="evenodd">
        
        <path transform="translate(0vw, 0vh), scale(.65)" d="M57.9998228,48.912 L53.2018526,46.856 L54.6808434,45.978 C55.4538386,46.607 56.4278326,47 57.4998259,47 C58.7078185,47 59.8018117,46.516 60.6098067,45.738 L62.7167936,46.891 L57.9998228,48.912 Z M57.4998259,40 C58.8788174,40 59.9998104,41.121 59.9998104,42.5 C59.9998104,43.878 58.8788174,45 57.4998259,45 C56.1208345,45 54.9998414,43.878 54.9998414,42.5 C54.9998414,41.121 56.1208345,40 57.4998259,40 L57.4998259,40 Z M39.9999344,36 C36.1409583,36 32.9999778,32.86 32.9999778,29 C32.9999778,25.14 36.1409583,22 39.9999344,22 C43.8589105,22 46.999891,25.14 46.999891,29 C46.999891,32.86 43.8589105,36 39.9999344,36 L39.9999344,36 Z M42.9999158,51 C42.9999158,52.654 41.6539241,54 39.9999344,54 C38.3459447,54 36.999953,52.654 36.999953,51 C36.999953,49.346 38.3459447,48 39.9999344,48 C41.6539241,48 42.9999158,49.346 42.9999158,51 L42.9999158,51 Z M39.9999344,58.848 L35.1179647,56.058 L37.1079523,55.064 C37.9269472,55.648 38.9209411,56 39.9999344,56 C41.0789277,56 42.0729216,55.648 42.8919165,55.064 L44.8819041,56.058 L39.9999344,58.848 Z M22.0990453,48.912 L17.319075,46.894 L19.4260619,45.768 C20.2310569,46.526 21.3090502,47 22.5000429,47 C23.5840361,47 24.5650301,46.599 25.3430252,45.959 L26.826016,46.855 L22.0990453,48.912 Z M22.5000429,40 C23.8790343,40 25.0000274,41.121 25.0000274,42.5 C25.0000274,43.878 23.8790343,45 22.5000429,45 C21.1210514,45 20.0000584,43.878 20.0000584,42.5 C20.0000584,41.121 21.1210514,40 22.5000429,40 L22.5000429,40 Z M65.4797765,46.122 L61.7057999,44.057 C61.8867988,43.57 61.9997981,43.049 61.9997981,42.5 C61.9997981,40.018 59.9808106,38 57.4998259,38 C56.6018315,38 55.7678367,38.271 55.062841,38.727 L48.1888836,32.712 C48.7048804,31.579 48.9998786,30.324 48.9998786,29 C48.9998786,24.037 44.9629036,20 39.9999344,20 C35.0369652,20 31,24.037 31,29 C31,30.324 31.2949884,31.579 31.8109852,32.712 L24.9370278,38.727 C24.2320321,38.271 23.3980373,38 22.5000429,38 C20.0190582,38 18.0000707,40.018 18.0000707,42.5 C18.0000707,43.064 18.11607,43.6 18.3070688,44.099 L14.5280923,46.118 C14.1880944,46.3 13.9830956,46.661 14.0010955,47.045 C14.0190954,47.431 14.256094,47.771 14.6110918,47.921 L21.7160477,50.921 C21.840047,50.974 21.9730461,51 22.1040453,51 C22.2400445,51 22.3760436,50.972 22.5040428,50.917 L29.3990001,47.917 C29.741998,47.767 29.9729965,47.439 29.9979964,47.066 C30.0219962,46.693 29.8369974,46.337 29.5179994,46.144 L26.5810176,44.37 C26.8440159,43.798 27.000015,43.169 27.000015,42.5 C27.000015,41.642 26.7460165,40.849 26.3280191,40.166 L32.8569787,34.454 C34.3119697,36.354 36.4999561,37.663 38.9999406,37.941 L38.9999406,46.101 C36.7209547,46.566 34.9999654,48.585 34.9999654,51 C34.9999654,51.926 35.2699637,52.782 35.709961,53.527 L32.5529806,55.105 C32.2229826,55.27 32.0109839,55.603 31.999984,55.972 C31.989984,56.341 32.1839828,56.685 32.5039809,56.868 L39.5039375,60.868 C39.6569365,60.956 39.8289355,61 39.9999344,61 C40.1709333,61 40.3429323,60.956 40.4959313,60.868 L47.4958879,56.868 C47.815886,56.685 48.0098848,56.341 47.9998848,55.972 C47.9888849,55.603 47.7768862,55.27 47.4468882,55.105 L44.2899078,53.527 C44.7299051,52.782 44.9999034,51.926 44.9999034,51 C44.9999034,48.585 43.2789141,46.566 40.9999282,46.101 L40.9999282,37.941 C43.4999127,37.663 45.6878991,36.354 47.1428901,34.454 L53.6718497,40.166 C53.2538523,40.849 52.9998538,41.642 52.9998538,42.5 C52.9998538,43.179 53.1618528,43.816 53.4318512,44.393 L50.4888694,46.14 C50.1658714,46.332 49.9778726,46.69 50.0018724,47.065 C50.0258723,47.441 50.2598708,47.771 50.6058687,47.919 L57.6058253,50.919 C57.7308245,50.973 57.8658237,51 57.9998228,51 C58.133822,51 58.2688212,50.973 58.3938204,50.919 L65.393777,47.919 C65.7457748,47.768 65.9797734,47.43 65.9987733,47.048 C66.0177731,46.665 65.8147744,46.307 65.4797765,46.122 L65.4797765,46.122 Z" id="AWS-IoT-SiteWise_Icon_64_Squid" fill="#000000"></path>
    </g><g transform="translate(12vw, 80vh)" id="svgGroup" stroke-linecap="round" fill-rule="evenodd" font-size="9pt" stroke="#000" stroke-width="0.25mm" fill="#000" style="stroke:#000;stroke-width:0.25mm;fill:#000"><path d="M 30.718 0.088 L 31.729 4.469 L 31.852 5.313 L 32.032 4.553 L 33.297 0.088 L 34.009 0.088 L 35.244 4.553 L 35.42 5.326 L 35.556 4.465 L 36.549 0.088 L 37.397 0.088 L 35.846 6.486 L 35.077 6.486 L 33.759 1.824 L 33.658 1.336 L 33.557 1.824 L 32.19 6.486 L 31.421 6.486 L 29.874 0.088 L 30.718 0.088 Z M 19.362 1.938 L 18.514 1.938 A 1.466 1.466 0 0 0 18.464 1.546 A 1.066 1.066 0 0 0 18.145 1.026 A 1.211 1.211 0 0 0 17.675 0.77 Q 17.424 0.694 17.104 0.694 A 2.286 2.286 0 0 0 16.724 0.724 Q 16.522 0.758 16.359 0.831 A 1.101 1.101 0 0 0 16.13 0.969 A 0.892 0.892 0 0 0 15.785 1.624 A 1.267 1.267 0 0 0 15.781 1.732 A 0.806 0.806 0 0 0 16.049 2.337 A 1.134 1.134 0 0 0 16.113 2.393 A 1.562 1.562 0 0 0 16.351 2.549 Q 16.681 2.73 17.242 2.887 A 8.228 8.228 0 0 1 17.707 3.032 Q 17.942 3.113 18.136 3.2 A 3.297 3.297 0 0 1 18.49 3.382 A 2.342 2.342 0 0 1 18.829 3.626 Q 19.019 3.792 19.141 3.985 A 1.45 1.45 0 0 1 19.158 4.012 A 1.498 1.498 0 0 1 19.354 4.568 A 1.948 1.948 0 0 1 19.375 4.86 A 1.606 1.606 0 0 1 19.253 5.497 Q 19.108 5.838 18.79 6.09 A 1.886 1.886 0 0 1 18.769 6.106 Q 18.163 6.574 17.147 6.574 A 3.023 3.023 0 0 1 16.007 6.36 A 2.917 2.917 0 0 1 15.917 6.322 A 2.383 2.383 0 0 1 15.439 6.044 A 1.874 1.874 0 0 1 15.036 5.629 A 1.689 1.689 0 0 1 14.726 4.632 L 15.574 4.632 A 1.261 1.261 0 0 0 15.644 5.059 A 1.074 1.074 0 0 0 16.003 5.548 Q 16.387 5.85 17.004 5.881 A 2.87 2.87 0 0 0 17.147 5.884 A 2.628 2.628 0 0 0 17.534 5.858 Q 17.731 5.828 17.89 5.767 A 1.129 1.129 0 0 0 18.171 5.612 Q 18.527 5.339 18.527 4.869 A 1.074 1.074 0 0 0 18.485 4.559 A 0.816 0.816 0 0 0 18.198 4.142 Q 17.868 3.885 17.002 3.634 Q 15.917 3.322 15.423 2.868 Q 14.928 2.413 14.928 1.745 Q 14.928 0.989 15.532 0.494 A 2.121 2.121 0 0 1 16.423 0.071 A 3.087 3.087 0 0 1 17.104 0 A 2.913 2.913 0 0 1 17.764 0.072 A 2.372 2.372 0 0 1 18.279 0.255 A 2.051 2.051 0 0 1 18.81 0.626 A 1.834 1.834 0 0 1 19.079 0.958 A 1.798 1.798 0 0 1 19.362 1.938 Z M 43.928 3.129 L 43.11 3.129 Q 43.11 2.795 42.827 2.553 Q 42.543 2.312 42.113 2.312 Q 41.669 2.312 41.418 2.505 A 0.653 0.653 0 0 0 41.243 2.704 Q 41.17 2.835 41.168 3 A 0.771 0.771 0 0 0 41.168 3.01 A 0.588 0.588 0 0 0 41.198 3.203 A 0.48 0.48 0 0 0 41.401 3.454 A 1.093 1.093 0 0 0 41.551 3.533 Q 41.715 3.605 41.971 3.673 A 6.581 6.581 0 0 0 42.242 3.74 A 6.318 6.318 0 0 1 42.65 3.845 Q 42.987 3.944 43.229 4.065 A 1.901 1.901 0 0 1 43.485 4.218 Q 43.622 4.315 43.719 4.429 A 1.06 1.06 0 0 1 43.789 4.52 A 1.024 1.024 0 0 1 43.952 4.927 A 1.388 1.388 0 0 1 43.972 5.168 Q 43.972 5.805 43.462 6.19 Q 42.98 6.554 42.226 6.573 A 3.337 3.337 0 0 1 42.139 6.574 A 2.746 2.746 0 0 1 41.605 6.525 A 2.124 2.124 0 0 1 41.128 6.372 A 1.771 1.771 0 0 1 40.695 6.094 A 1.54 1.54 0 0 1 40.441 5.807 Q 40.192 5.445 40.192 5.023 L 41.005 5.023 A 0.932 0.932 0 0 0 41.079 5.348 A 0.827 0.827 0 0 0 41.333 5.671 A 1.072 1.072 0 0 0 41.735 5.864 Q 41.889 5.903 42.071 5.91 A 2.013 2.013 0 0 0 42.139 5.911 A 1.863 1.863 0 0 0 42.435 5.889 Q 42.596 5.863 42.728 5.806 A 0.941 0.941 0 0 0 42.88 5.724 A 0.689 0.689 0 0 0 43.044 5.574 A 0.554 0.554 0 0 0 43.159 5.225 A 0.698 0.698 0 0 0 43.122 4.994 A 0.581 0.581 0 0 0 42.91 4.713 A 1.05 1.05 0 0 0 42.742 4.615 Q 42.553 4.524 42.258 4.449 A 5.392 5.392 0 0 0 42.045 4.399 A 6.342 6.342 0 0 1 41.684 4.311 Q 41.314 4.209 41.065 4.083 Q 40.766 3.93 40.595 3.731 A 1.017 1.017 0 0 1 40.529 3.643 Q 40.355 3.388 40.355 3.037 A 1.206 1.206 0 0 1 40.754 2.132 A 1.694 1.694 0 0 1 40.849 2.048 A 1.752 1.752 0 0 1 41.632 1.688 A 2.471 2.471 0 0 1 42.113 1.644 A 2.559 2.559 0 0 1 42.676 1.702 A 1.757 1.757 0 0 1 43.425 2.061 Q 43.928 2.479 43.928 3.129 Z M 11.94 0.088 L 11.94 0.782 L 9.883 0.782 L 9.883 6.486 L 9.044 6.486 L 9.044 0.782 L 6.992 0.782 L 6.992 0.088 L 11.94 0.088 Z M 25.247 4.241 L 25.247 4.091 A 3.17 3.17 0 0 1 25.323 3.382 A 2.581 2.581 0 0 1 25.517 2.828 A 2.191 2.191 0 0 1 25.964 2.202 A 2.033 2.033 0 0 1 26.273 1.958 Q 26.758 1.644 27.325 1.644 A 2.254 2.254 0 0 1 27.938 1.723 A 1.639 1.639 0 0 1 28.767 2.254 Q 29.281 2.865 29.281 4.003 L 29.281 4.342 L 26.06 4.342 A 2.111 2.111 0 0 0 26.131 4.85 A 1.516 1.516 0 0 0 26.47 5.478 A 1.282 1.282 0 0 0 27.405 5.909 A 1.652 1.652 0 0 0 27.47 5.911 A 1.763 1.763 0 0 0 27.798 5.882 Q 28.022 5.839 28.2 5.735 A 1.827 1.827 0 0 0 28.709 5.287 A 2.068 2.068 0 0 0 28.723 5.269 L 29.219 5.656 A 1.926 1.926 0 0 1 27.82 6.547 A 2.749 2.749 0 0 1 27.426 6.574 A 2.394 2.394 0 0 1 26.675 6.461 A 1.974 1.974 0 0 1 25.853 5.939 Q 25.247 5.304 25.247 4.241 Z M 44.824 4.241 L 44.824 4.091 A 3.17 3.17 0 0 1 44.9 3.382 A 2.581 2.581 0 0 1 45.094 2.828 A 2.191 2.191 0 0 1 45.542 2.202 A 2.033 2.033 0 0 1 45.85 1.958 Q 46.336 1.644 46.903 1.644 A 2.254 2.254 0 0 1 47.516 1.723 A 1.639 1.639 0 0 1 48.344 2.254 Q 48.858 2.865 48.858 4.003 L 48.858 4.342 L 45.637 4.342 A 2.111 2.111 0 0 0 45.708 4.85 A 1.516 1.516 0 0 0 46.048 5.478 A 1.282 1.282 0 0 0 46.982 5.909 A 1.652 1.652 0 0 0 47.048 5.911 A 1.763 1.763 0 0 0 47.376 5.882 Q 47.6 5.839 47.777 5.735 A 1.827 1.827 0 0 0 48.286 5.287 A 2.068 2.068 0 0 0 48.3 5.269 L 48.797 5.656 A 1.926 1.926 0 0 1 47.397 6.547 A 2.749 2.749 0 0 1 47.004 6.574 A 2.394 2.394 0 0 1 46.253 6.461 A 1.974 1.974 0 0 1 45.431 5.939 Q 44.824 5.304 44.824 4.241 Z M 22.803 0.58 L 23.616 0.58 L 23.616 1.732 L 24.504 1.732 L 24.504 2.36 L 23.616 2.36 L 23.616 5.309 Q 23.616 5.594 23.735 5.737 Q 23.854 5.88 24.139 5.88 A 1.046 1.046 0 0 0 24.237 5.875 Q 24.339 5.865 24.479 5.837 A 4.024 4.024 0 0 0 24.526 5.827 L 24.526 6.486 A 2.463 2.463 0 0 1 24.093 6.566 A 2.157 2.157 0 0 1 23.902 6.574 Q 23.455 6.574 23.188 6.352 A 0.856 0.856 0 0 1 23.08 6.245 Q 22.853 5.974 22.812 5.516 A 2.351 2.351 0 0 1 22.803 5.309 L 22.803 2.36 L 21.938 2.36 L 21.938 1.732 L 22.803 1.732 L 22.803 0.58 Z M 2.043 4.122 L 2.043 4.065 A 3.057 3.057 0 0 1 2.13 3.323 A 2.573 2.573 0 0 1 2.318 2.808 A 2.16 2.16 0 0 1 2.733 2.223 A 1.957 1.957 0 0 1 3.083 1.947 A 2.036 2.036 0 0 1 4.027 1.65 A 2.491 2.491 0 0 1 4.201 1.644 A 2.277 2.277 0 0 1 4.955 1.763 A 1.937 1.937 0 0 1 5.772 2.316 A 2.29 2.29 0 0 1 6.291 3.345 A 3.373 3.373 0 0 1 6.372 4.105 L 6.372 4.162 A 3.114 3.114 0 0 1 6.293 4.878 A 2.577 2.577 0 0 1 6.106 5.408 A 2.056 2.056 0 0 1 5.579 6.098 A 2.001 2.001 0 0 1 5.346 6.267 A 2.045 2.045 0 0 1 4.426 6.565 A 2.529 2.529 0 0 1 4.21 6.574 A 2.262 2.262 0 0 1 3.46 6.455 A 1.938 1.938 0 0 1 2.643 5.902 A 2.297 2.297 0 0 1 2.118 4.847 A 3.357 3.357 0 0 1 2.043 4.122 Z M 0.844 0.088 L 0.844 6.486 L 0 6.486 L 0 0.088 L 0.844 0.088 Z M 21.212 1.732 L 21.212 6.486 L 20.399 6.486 L 20.399 1.732 L 21.212 1.732 Z M 39.089 1.732 L 39.089 6.486 L 38.276 6.486 L 38.276 1.732 L 39.089 1.732 Z M 2.861 4.162 A 2.772 2.772 0 0 0 2.908 4.69 Q 2.969 5.001 3.106 5.246 A 1.545 1.545 0 0 0 3.228 5.432 Q 3.595 5.911 4.21 5.911 A 1.269 1.269 0 0 0 4.699 5.819 Q 4.979 5.704 5.181 5.442 A 1.471 1.471 0 0 0 5.194 5.425 A 1.648 1.648 0 0 0 5.449 4.908 Q 5.518 4.681 5.544 4.409 A 3.655 3.655 0 0 0 5.559 4.065 A 2.687 2.687 0 0 0 5.508 3.525 Q 5.44 3.195 5.283 2.936 A 1.586 1.586 0 0 0 5.188 2.797 A 1.231 1.231 0 0 0 4.773 2.442 Q 4.52 2.312 4.201 2.312 Q 3.611 2.312 3.245 2.771 A 1.515 1.515 0 0 0 3.23 2.791 A 1.589 1.589 0 0 0 2.978 3.288 Q 2.908 3.509 2.88 3.775 A 3.676 3.676 0 0 0 2.861 4.162 Z M 26.086 3.674 L 28.468 3.674 L 28.468 3.612 Q 28.442 3.153 28.271 2.848 A 1.13 1.13 0 0 0 28.134 2.652 A 0.983 0.983 0 0 0 27.479 2.32 A 1.39 1.39 0 0 0 27.325 2.312 A 1.106 1.106 0 0 0 26.803 2.435 A 1.14 1.14 0 0 0 26.499 2.67 A 1.417 1.417 0 0 0 26.222 3.116 Q 26.149 3.3 26.109 3.522 A 2.741 2.741 0 0 0 26.086 3.674 Z M 45.664 3.674 L 48.045 3.674 L 48.045 3.612 Q 48.019 3.153 47.849 2.848 A 1.13 1.13 0 0 0 47.711 2.652 A 0.983 0.983 0 0 0 47.057 2.32 A 1.39 1.39 0 0 0 46.903 2.312 A 1.106 1.106 0 0 0 46.38 2.435 A 1.14 1.14 0 0 0 46.077 2.67 A 1.417 1.417 0 0 0 45.8 3.116 Q 45.726 3.3 45.686 3.522 A 2.741 2.741 0 0 0 45.664 3.674 Z M 20.333 0.47 Q 20.333 0.273 20.454 0.136 Q 20.566 0.01 20.778 0.001 A 0.783 0.783 0 0 1 20.812 0 Q 21.05 0 21.173 0.136 A 0.474 0.474 0 0 1 21.295 0.44 A 0.614 0.614 0 0 1 21.296 0.47 A 0.523 0.523 0 0 1 21.271 0.636 A 0.442 0.442 0 0 1 21.173 0.8 Q 21.06 0.92 20.852 0.931 A 0.803 0.803 0 0 1 20.813 0.932 Q 20.64 0.932 20.529 0.862 A 0.362 0.362 0 0 1 20.454 0.8 A 0.456 0.456 0 0 1 20.336 0.525 A 0.605 0.605 0 0 1 20.333 0.47 Z M 38.21 0.47 Q 38.21 0.273 38.331 0.136 Q 38.443 0.01 38.655 0.001 A 0.783 0.783 0 0 1 38.689 0 Q 38.927 0 39.05 0.136 A 0.474 0.474 0 0 1 39.172 0.44 A 0.614 0.614 0 0 1 39.173 0.47 A 0.523 0.523 0 0 1 39.148 0.636 A 0.442 0.442 0 0 1 39.05 0.8 Q 38.937 0.92 38.729 0.931 A 0.803 0.803 0 0 1 38.689 0.932 Q 38.517 0.932 38.406 0.862 A 0.362 0.362 0 0 1 38.331 0.8 A 0.456 0.456 0 0 1 38.213 0.525 A 0.605 0.605 0 0 1 38.21 0.47 Z" vector-effect="non-scaling-stroke"/></g>
</svg>