<?xml version="1.0" encoding="UTF-8"?>
<svg width="48px" height="48px" viewBox="0 0 48 48" version="1.1" xmlns="http://www.w3.org/2000/svg" xmlns:xlink="http://www.w3.org/1999/xlink">
    <title>Icon-Resource/Application-Integration/Res_Amazon-EventBridge_Schema_48_Dark</title>
    <g id="Icon-Resource/Application-Integration/Res_Amazon-EventBridge_Schema_48" stroke="none" stroke-width="1" fill="none" fill-rule="evenodd">
        <path transform="translate(12.000000, 8.000000), scale(.65)" d="M19,27.25 L19,21.476 L24,18.589 L29,21.476 L29,27.25 L24,30.136 L19,27.25 Z M24,32.291 C24.173,32.291 24.346,32.247 24.5,32.157 L30.5,28.693 C30.81,28.515 31,28.185 31,27.827 L31,20.899 C31,20.542 30.81,20.211 30.5,20.033 L24.5,16.568 C24.191,16.39 23.809,16.39 23.5,16.568 L17.5,20.033 C17.19,20.211 17,20.542 17,20.899 L17,27.827 C17,28.185 17.19,28.515 17.5,28.693 L23.5,32.157 C23.654,32.247 23.827,32.291 24,32.291 L24,32.291 Z M32.707,17.707 L31.293,16.293 L37.293,10.293 L38.707,11.707 L32.707,17.707 Z M15.293,31.293 L16.707,32.707 L10.707,38.707 L9.293,37.293 L15.293,31.293 Z M16.293,17.707 L10.293,11.707 L11.707,10.293 L17.707,16.293 L16.293,17.707 Z M32.707,31.293 L38.707,37.293 L37.293,38.707 L31.293,32.707 L32.707,31.293 Z M34,26 L40,26 L40,24 L34,24 L34,26 Z M8,26 L14,26 L14,24 L8,24 L8,26 Z M23,13 L25,13 L25,7 L23,7 L23,13 Z M23,41 L25,41 L25,36 L23,36 L23,41 Z M4,44 L44,44 L44,4 L4,4 L4,44 Z M46,3 C46,2.448 45.553,2 45,2 L3,2 C2.447,2 2,2.448 2,3 L2,45 C2,45.552 2.447,46 3,46 L45,46 C45.553,46 46,45.552 46,45 L46,3 Z" id="Fill-4" fill="#000000"></path>
    </g><g transform="translate(25, 83)" id="svgGroup" stroke-linecap="round" fill-rule="evenodd" font-size="9pt" stroke="#000" stroke-width="0.25mm" fill="#000" style="stroke:#000;stroke-width:0.25mm;fill:#000"><path d="M 69.574 1.995 L 70.343 1.995 L 70.365 2.522 Q 70.888 1.907 71.776 1.907 A 2.009 2.009 0 0 1 72.287 1.968 A 1.244 1.244 0 0 1 73.134 2.672 A 1.801 1.801 0 0 1 73.751 2.118 A 1.65 1.65 0 0 1 74.28 1.937 A 2.209 2.209 0 0 1 74.65 1.907 A 2.119 2.119 0 0 1 75.294 1.997 Q 76.22 2.292 76.241 3.564 L 76.241 6.75 L 75.428 6.75 L 75.428 3.612 A 1.781 1.781 0 0 0 75.407 3.332 Q 75.384 3.185 75.333 3.067 A 0.758 0.758 0 0 0 75.195 2.85 A 0.68 0.68 0 0 0 74.942 2.682 Q 74.731 2.597 74.414 2.597 A 1.245 1.245 0 0 0 74.047 2.648 A 1.008 1.008 0 0 0 73.661 2.867 A 1.042 1.042 0 0 0 73.347 3.404 A 1.41 1.41 0 0 0 73.314 3.595 L 73.314 6.75 L 72.497 6.75 L 72.497 3.634 A 1.532 1.532 0 0 0 72.448 3.23 Q 72.321 2.768 71.864 2.643 A 1.457 1.457 0 0 0 71.481 2.597 Q 70.708 2.597 70.407 3.234 A 1.459 1.459 0 0 0 70.387 3.278 L 70.387 6.75 L 69.574 6.75 L 69.574 1.995 Z M 54.176 2.202 L 53.328 2.202 A 1.466 1.466 0 0 0 53.278 1.809 A 1.066 1.066 0 0 0 52.958 1.29 A 1.211 1.211 0 0 0 52.489 1.033 Q 52.237 0.958 51.917 0.958 A 2.286 2.286 0 0 0 51.537 0.988 Q 51.335 1.022 51.173 1.095 A 1.101 1.101 0 0 0 50.944 1.233 A 0.892 0.892 0 0 0 50.599 1.887 A 1.267 1.267 0 0 0 50.594 1.995 A 0.806 0.806 0 0 0 50.862 2.6 A 1.134 1.134 0 0 0 50.926 2.656 A 1.562 1.562 0 0 0 51.164 2.813 Q 51.495 2.993 52.055 3.151 A 8.228 8.228 0 0 1 52.52 3.295 Q 52.755 3.377 52.95 3.464 A 3.297 3.297 0 0 1 53.303 3.645 A 2.342 2.342 0 0 1 53.642 3.889 Q 53.832 4.056 53.954 4.248 A 1.45 1.45 0 0 1 53.971 4.276 A 1.498 1.498 0 0 1 54.168 4.832 A 1.948 1.948 0 0 1 54.189 5.124 A 1.606 1.606 0 0 1 54.067 5.76 Q 53.921 6.101 53.603 6.354 A 1.886 1.886 0 0 1 53.583 6.37 Q 52.976 6.838 51.961 6.838 A 3.023 3.023 0 0 1 50.82 6.623 A 2.917 2.917 0 0 1 50.73 6.585 A 2.383 2.383 0 0 1 50.252 6.307 A 1.874 1.874 0 0 1 49.849 5.893 A 1.689 1.689 0 0 1 49.54 4.896 L 50.388 4.896 A 1.261 1.261 0 0 0 50.457 5.323 A 1.074 1.074 0 0 0 50.816 5.812 Q 51.201 6.113 51.817 6.144 A 2.87 2.87 0 0 0 51.961 6.148 A 2.628 2.628 0 0 0 52.348 6.121 Q 52.544 6.092 52.703 6.031 A 1.129 1.129 0 0 0 52.985 5.875 Q 53.341 5.603 53.341 5.133 A 1.074 1.074 0 0 0 53.298 4.822 A 0.816 0.816 0 0 0 53.011 4.406 Q 52.682 4.148 51.816 3.898 Q 50.73 3.586 50.236 3.131 Q 49.742 2.676 49.742 2.008 Q 49.742 1.252 50.346 0.758 A 2.121 2.121 0 0 1 51.236 0.335 A 3.087 3.087 0 0 1 51.917 0.264 A 2.913 2.913 0 0 1 52.577 0.336 A 2.372 2.372 0 0 1 53.093 0.519 A 2.051 2.051 0 0 1 53.624 0.889 A 1.834 1.834 0 0 1 53.892 1.222 A 1.798 1.798 0 0 1 54.176 2.202 Z M 3.617 3.103 L 3.617 3.792 L 0.844 3.792 L 0.844 6.06 L 4.065 6.06 L 4.065 6.75 L 0 6.75 L 0 0.352 L 4.021 0.352 L 4.021 1.046 L 0.844 1.046 L 0.844 3.103 L 3.617 3.103 Z M 60.667 0 L 60.667 2.571 A 1.767 1.767 0 0 1 61.333 2.053 A 1.832 1.832 0 0 1 62.073 1.907 A 1.905 1.905 0 0 1 62.706 2.004 Q 63.548 2.3 63.591 3.506 A 3.668 3.668 0 0 1 63.593 3.608 L 63.593 6.75 L 62.78 6.75 L 62.78 3.604 A 1.837 1.837 0 0 0 62.758 3.324 Q 62.708 3.017 62.545 2.843 Q 62.359 2.645 62.006 2.606 A 1.66 1.66 0 0 0 61.827 2.597 A 1.253 1.253 0 0 0 61.412 2.664 A 1.123 1.123 0 0 0 61.132 2.808 A 1.432 1.432 0 0 0 60.667 3.362 L 60.667 6.75 L 59.854 6.75 L 59.854 0 L 60.667 0 Z M 40.799 2.522 L 40.838 1.995 L 41.581 1.995 L 41.581 6.636 A 2.511 2.511 0 0 1 41.51 7.249 A 1.738 1.738 0 0 1 41.034 8.09 A 1.834 1.834 0 0 1 40.104 8.57 A 2.671 2.671 0 0 1 39.564 8.622 A 2.446 2.446 0 0 1 38.558 8.402 A 2.003 2.003 0 0 1 38.147 8.161 A 1.563 1.563 0 0 1 37.806 7.8 L 38.228 7.313 A 1.889 1.889 0 0 0 38.663 7.712 A 1.514 1.514 0 0 0 39.507 7.958 A 1.695 1.695 0 0 0 39.884 7.919 Q 40.152 7.858 40.346 7.702 A 1.037 1.037 0 0 0 40.432 7.625 A 1.09 1.09 0 0 0 40.709 7.132 Q 40.756 6.959 40.763 6.752 A 2.134 2.134 0 0 0 40.764 6.684 L 40.764 6.275 A 1.601 1.601 0 0 1 39.712 6.821 A 2.279 2.279 0 0 1 39.432 6.838 A 1.672 1.672 0 0 1 38.677 6.67 Q 38.355 6.51 38.105 6.197 A 2.14 2.14 0 0 1 38.081 6.166 A 2.316 2.316 0 0 1 37.698 5.386 Q 37.564 4.922 37.564 4.333 Q 37.564 3.472 37.873 2.884 A 2.096 2.096 0 0 1 38.079 2.564 Q 38.593 1.907 39.441 1.907 A 1.971 1.971 0 0 1 40.04 1.994 A 1.55 1.55 0 0 1 40.799 2.522 Z M 13.944 1.995 L 14.713 1.995 L 14.739 2.593 Q 15.276 1.918 16.135 1.907 A 2.234 2.234 0 0 1 16.163 1.907 A 1.905 1.905 0 0 1 16.797 2.004 Q 17.638 2.3 17.681 3.506 A 3.668 3.668 0 0 1 17.684 3.608 L 17.684 6.75 L 16.871 6.75 L 16.871 3.604 A 1.837 1.837 0 0 0 16.848 3.324 Q 16.798 3.017 16.635 2.843 Q 16.449 2.645 16.096 2.606 A 1.66 1.66 0 0 0 15.917 2.597 A 1.253 1.253 0 0 0 15.503 2.664 A 1.123 1.123 0 0 0 15.223 2.808 A 1.432 1.432 0 0 0 14.757 3.362 L 14.757 6.75 L 13.944 6.75 L 13.944 1.995 Z M 58.17 5.251 L 58.939 5.251 A 1.432 1.432 0 0 1 58.74 5.901 A 1.772 1.772 0 0 1 58.658 6.029 A 1.828 1.828 0 0 1 58.049 6.574 A 2.169 2.169 0 0 1 57.966 6.618 A 1.997 1.997 0 0 1 57.05 6.838 A 2.346 2.346 0 0 1 56.353 6.739 A 1.839 1.839 0 0 1 55.505 6.19 A 2.171 2.171 0 0 1 55.041 5.31 Q 54.932 4.909 54.932 4.417 L 54.932 4.28 A 3.24 3.24 0 0 1 54.995 3.624 A 2.57 2.57 0 0 1 55.187 3.045 A 2.008 2.008 0 0 1 55.626 2.431 A 1.892 1.892 0 0 1 55.918 2.206 A 1.943 1.943 0 0 1 56.675 1.934 A 2.529 2.529 0 0 1 57.045 1.907 A 2.196 2.196 0 0 1 57.694 1.999 A 1.786 1.786 0 0 1 58.375 2.386 A 1.693 1.693 0 0 1 58.933 3.535 A 2.239 2.239 0 0 1 58.939 3.63 L 58.17 3.63 Q 58.135 3.168 57.821 2.872 A 1.078 1.078 0 0 0 57.092 2.576 A 1.402 1.402 0 0 0 57.045 2.575 A 1.374 1.374 0 0 0 56.624 2.637 A 1.081 1.081 0 0 0 56.085 3.021 A 1.469 1.469 0 0 0 55.858 3.468 Q 55.793 3.674 55.765 3.923 A 3.514 3.514 0 0 0 55.745 4.311 L 55.745 4.465 Q 55.745 5.287 56.083 5.73 A 1.1 1.1 0 0 0 56.87 6.165 A 1.611 1.611 0 0 0 57.05 6.174 A 1.171 1.171 0 0 0 57.81 5.911 A 1.007 1.007 0 0 0 58.054 5.629 A 0.914 0.914 0 0 0 58.17 5.251 Z M 81.255 6.75 L 80.402 6.75 A 0.632 0.632 0 0 1 80.367 6.66 Q 80.336 6.562 80.311 6.41 A 3.997 3.997 0 0 1 80.288 6.249 Q 79.721 6.838 78.935 6.838 A 2.033 2.033 0 0 1 78.405 6.772 A 1.529 1.529 0 0 1 77.781 6.44 Q 77.331 6.042 77.331 5.432 Q 77.331 4.689 77.895 4.278 Q 78.46 3.867 79.484 3.867 L 80.275 3.867 L 80.275 3.494 A 1.152 1.152 0 0 0 80.239 3.199 A 0.828 0.828 0 0 0 80.02 2.815 Q 79.804 2.6 79.413 2.568 A 1.748 1.748 0 0 0 79.269 2.562 Q 78.833 2.562 78.539 2.782 Q 78.245 3.001 78.245 3.313 L 77.427 3.313 A 1.041 1.041 0 0 1 77.552 2.825 A 1.409 1.409 0 0 1 77.68 2.626 Q 77.933 2.294 78.365 2.101 A 2.249 2.249 0 0 1 79.141 1.913 A 2.669 2.669 0 0 1 79.317 1.907 A 2.65 2.65 0 0 1 79.834 1.955 Q 80.142 2.016 80.38 2.156 A 1.439 1.439 0 0 1 80.604 2.318 A 1.396 1.396 0 0 1 81.058 3.144 A 1.998 1.998 0 0 1 81.088 3.45 L 81.088 5.638 Q 81.088 6.073 81.162 6.39 A 1.707 1.707 0 0 0 81.255 6.68 L 81.255 6.75 Z M 32.484 4.395 L 32.484 4.333 A 3.762 3.762 0 0 1 32.551 3.602 Q 32.639 3.16 32.841 2.812 A 2.148 2.148 0 0 1 33.003 2.573 Q 33.521 1.907 34.361 1.907 A 1.964 1.964 0 0 1 34.959 1.994 A 1.559 1.559 0 0 1 35.684 2.479 L 35.684 0 L 36.497 0 L 36.497 6.75 L 35.75 6.75 L 35.71 6.24 Q 35.222 6.838 34.352 6.838 A 1.6 1.6 0 0 1 33.131 6.31 A 2.078 2.078 0 0 1 33.005 6.161 A 2.405 2.405 0 0 1 32.581 5.255 Q 32.496 4.912 32.486 4.51 A 4.425 4.425 0 0 1 32.484 4.395 Z M 8.969 4.504 L 8.969 4.355 A 3.17 3.17 0 0 1 9.046 3.646 A 2.581 2.581 0 0 1 9.24 3.092 A 2.191 2.191 0 0 1 9.687 2.466 A 2.033 2.033 0 0 1 9.995 2.221 Q 10.481 1.907 11.048 1.907 A 2.254 2.254 0 0 1 11.661 1.986 A 1.639 1.639 0 0 1 12.489 2.518 Q 13.003 3.129 13.003 4.267 L 13.003 4.605 L 9.782 4.605 A 2.111 2.111 0 0 0 9.853 5.114 A 1.516 1.516 0 0 0 10.193 5.741 A 1.282 1.282 0 0 0 11.127 6.173 A 1.652 1.652 0 0 0 11.193 6.174 A 1.763 1.763 0 0 0 11.521 6.145 Q 11.745 6.103 11.922 5.999 A 1.827 1.827 0 0 0 12.431 5.551 A 2.068 2.068 0 0 0 12.445 5.533 L 12.942 5.919 A 1.926 1.926 0 0 1 11.542 6.811 A 2.749 2.749 0 0 1 11.149 6.838 A 2.394 2.394 0 0 1 10.398 6.725 A 1.974 1.974 0 0 1 9.576 6.203 Q 8.969 5.568 8.969 4.504 Z M 42.601 4.504 L 42.601 4.355 A 3.17 3.17 0 0 1 42.677 3.646 A 2.581 2.581 0 0 1 42.871 3.092 A 2.191 2.191 0 0 1 43.318 2.466 A 2.033 2.033 0 0 1 43.627 2.221 Q 44.112 1.907 44.679 1.907 A 2.254 2.254 0 0 1 45.292 1.986 A 1.639 1.639 0 0 1 46.121 2.518 Q 46.635 3.129 46.635 4.267 L 46.635 4.605 L 43.414 4.605 A 2.111 2.111 0 0 0 43.485 5.114 A 1.516 1.516 0 0 0 43.824 5.741 A 1.282 1.282 0 0 0 44.759 6.173 A 1.652 1.652 0 0 0 44.824 6.174 A 1.763 1.763 0 0 0 45.152 6.145 Q 45.376 6.103 45.554 5.999 A 1.827 1.827 0 0 0 46.063 5.551 A 2.068 2.068 0 0 0 46.077 5.533 L 46.573 5.919 A 1.926 1.926 0 0 1 45.174 6.811 A 2.749 2.749 0 0 1 44.78 6.838 A 2.394 2.394 0 0 1 44.029 6.725 A 1.974 1.974 0 0 1 43.207 6.203 Q 42.601 5.568 42.601 4.504 Z M 64.604 4.504 L 64.604 4.355 A 3.17 3.17 0 0 1 64.68 3.646 A 2.581 2.581 0 0 1 64.874 3.092 A 2.191 2.191 0 0 1 65.322 2.466 A 2.033 2.033 0 0 1 65.63 2.221 Q 66.116 1.907 66.683 1.907 A 2.254 2.254 0 0 1 67.296 1.986 A 1.639 1.639 0 0 1 68.124 2.518 Q 68.638 3.129 68.638 4.267 L 68.638 4.605 L 65.417 4.605 A 2.111 2.111 0 0 0 65.488 5.114 A 1.516 1.516 0 0 0 65.828 5.741 A 1.282 1.282 0 0 0 66.762 6.173 A 1.652 1.652 0 0 0 66.828 6.174 A 1.763 1.763 0 0 0 67.156 6.145 Q 67.38 6.103 67.557 5.999 A 1.827 1.827 0 0 0 68.066 5.551 A 2.068 2.068 0 0 0 68.08 5.533 L 68.577 5.919 A 1.926 1.926 0 0 1 67.177 6.811 A 2.749 2.749 0 0 1 66.784 6.838 A 2.394 2.394 0 0 1 66.032 6.725 A 1.974 1.974 0 0 1 65.21 6.203 Q 64.604 5.568 64.604 4.504 Z M 24.196 6.75 L 21.977 6.75 L 21.977 0.352 L 24.069 0.352 A 4.031 4.031 0 0 1 24.642 0.39 Q 24.934 0.432 25.171 0.521 A 1.629 1.629 0 0 1 25.635 0.782 A 1.383 1.383 0 0 1 26.107 1.558 A 2.164 2.164 0 0 1 26.161 2.057 A 1.3 1.3 0 0 1 25.906 2.85 A 1.589 1.589 0 0 1 25.395 3.294 A 1.972 1.972 0 0 1 25.211 3.384 A 1.571 1.571 0 0 1 25.726 3.63 A 1.446 1.446 0 0 1 26.031 3.935 A 1.531 1.531 0 0 1 26.323 4.713 A 1.961 1.961 0 0 1 26.332 4.904 A 2.139 2.139 0 0 1 26.257 5.487 A 1.577 1.577 0 0 1 25.774 6.258 A 1.832 1.832 0 0 1 25.082 6.633 Q 24.815 6.713 24.497 6.739 A 3.81 3.81 0 0 1 24.196 6.75 Z M 5.234 1.995 L 6.442 5.647 L 7.62 1.995 L 8.451 1.995 L 6.746 6.75 L 6.126 6.75 L 4.403 1.995 L 5.234 1.995 Z M 19.2 0.844 L 20.013 0.844 L 20.013 1.995 L 20.9 1.995 L 20.9 2.624 L 20.013 2.624 L 20.013 5.572 Q 20.013 5.858 20.131 6.001 Q 20.25 6.144 20.536 6.144 A 1.046 1.046 0 0 0 20.633 6.138 Q 20.736 6.129 20.876 6.101 A 4.024 4.024 0 0 0 20.922 6.091 L 20.922 6.75 A 2.463 2.463 0 0 1 20.49 6.829 A 2.157 2.157 0 0 1 20.298 6.838 Q 19.851 6.838 19.585 6.616 A 0.856 0.856 0 0 1 19.477 6.508 Q 19.249 6.238 19.209 5.78 A 2.351 2.351 0 0 1 19.2 5.572 L 19.2 2.624 L 18.334 2.624 L 18.334 1.995 L 19.2 1.995 L 19.2 0.844 Z M 29.751 1.969 L 29.751 2.725 A 2.251 2.251 0 0 0 29.508 2.698 A 2.782 2.782 0 0 0 29.351 2.694 Q 28.573 2.694 28.282 3.338 A 1.445 1.445 0 0 0 28.266 3.375 L 28.266 6.75 L 27.453 6.75 L 27.453 1.995 L 28.244 1.995 L 28.257 2.544 Q 28.637 1.938 29.32 1.909 A 1.636 1.636 0 0 1 29.391 1.907 Q 29.628 1.907 29.751 1.969 Z M 31.381 1.995 L 31.381 6.75 L 30.568 6.75 L 30.568 1.995 L 31.381 1.995 Z M 35.684 5.454 L 35.684 3.27 A 1.375 1.375 0 0 0 35.372 2.874 Q 35.048 2.597 34.563 2.597 A 1.238 1.238 0 0 0 34.136 2.668 A 1.068 1.068 0 0 0 33.631 3.059 A 1.51 1.51 0 0 0 33.422 3.484 Q 33.356 3.689 33.325 3.939 A 3.955 3.955 0 0 0 33.297 4.425 A 3.162 3.162 0 0 0 33.333 4.918 Q 33.374 5.178 33.463 5.389 A 1.474 1.474 0 0 0 33.631 5.691 A 1.06 1.06 0 0 0 34.394 6.139 A 1.391 1.391 0 0 0 34.554 6.148 Q 35.328 6.148 35.684 5.454 Z M 40.764 5.449 L 40.764 3.278 A 1.439 1.439 0 0 0 40.463 2.891 Q 40.159 2.62 39.719 2.599 A 1.578 1.578 0 0 0 39.643 2.597 Q 39.051 2.597 38.717 3.056 A 1.51 1.51 0 0 0 38.507 3.484 Q 38.441 3.689 38.41 3.939 A 3.955 3.955 0 0 0 38.382 4.425 Q 38.382 5.229 38.711 5.689 Q 39.041 6.148 39.634 6.148 A 1.32 1.32 0 0 0 40.144 6.054 Q 40.536 5.891 40.764 5.449 Z M 24.227 3.757 L 22.821 3.757 L 22.821 6.06 L 24.214 6.06 A 1.84 1.84 0 0 0 24.589 6.024 Q 24.829 5.974 25.013 5.854 A 1.064 1.064 0 0 0 25.143 5.755 A 1.003 1.003 0 0 0 25.465 5.154 A 1.459 1.459 0 0 0 25.484 4.913 Q 25.484 4.007 24.712 3.811 A 1.977 1.977 0 0 0 24.228 3.757 Z M 22.821 1.046 L 22.821 3.081 L 24.095 3.081 Q 24.649 3.081 24.981 2.804 A 0.905 0.905 0 0 0 25.309 2.154 A 1.27 1.27 0 0 0 25.312 2.052 Q 25.313 1.696 25.172 1.471 A 0.71 0.71 0 0 0 25.005 1.285 A 0.969 0.969 0 0 0 24.719 1.136 Q 24.456 1.047 24.075 1.046 A 3.261 3.261 0 0 0 24.069 1.046 L 22.821 1.046 Z M 80.275 5.418 L 80.275 4.443 L 79.638 4.443 Q 78.144 4.443 78.144 5.317 Q 78.144 5.7 78.398 5.915 A 0.893 0.893 0 0 0 78.812 6.108 A 1.259 1.259 0 0 0 79.053 6.13 A 1.429 1.429 0 0 0 79.778 5.933 A 1.335 1.335 0 0 0 80.074 5.705 A 1.108 1.108 0 0 0 80.275 5.418 Z M 9.809 3.938 L 12.19 3.938 L 12.19 3.876 Q 12.164 3.417 11.994 3.111 A 1.13 1.13 0 0 0 11.856 2.916 A 0.983 0.983 0 0 0 11.202 2.584 A 1.39 1.39 0 0 0 11.048 2.575 A 1.106 1.106 0 0 0 10.525 2.698 A 1.14 1.14 0 0 0 10.222 2.933 A 1.417 1.417 0 0 0 9.945 3.379 Q 9.871 3.563 9.831 3.785 A 2.741 2.741 0 0 0 9.809 3.938 Z M 43.44 3.938 L 45.822 3.938 L 45.822 3.876 Q 45.796 3.417 45.625 3.111 A 1.13 1.13 0 0 0 45.488 2.916 A 0.983 0.983 0 0 0 44.833 2.584 A 1.39 1.39 0 0 0 44.679 2.575 A 1.106 1.106 0 0 0 44.157 2.698 A 1.14 1.14 0 0 0 43.853 2.933 A 1.417 1.417 0 0 0 43.576 3.379 Q 43.503 3.563 43.463 3.785 A 2.741 2.741 0 0 0 43.44 3.938 Z M 65.443 3.938 L 67.825 3.938 L 67.825 3.876 Q 67.799 3.417 67.629 3.111 A 1.13 1.13 0 0 0 67.491 2.916 A 0.983 0.983 0 0 0 66.837 2.584 A 1.39 1.39 0 0 0 66.683 2.575 A 1.106 1.106 0 0 0 66.16 2.698 A 1.14 1.14 0 0 0 65.856 2.933 A 1.417 1.417 0 0 0 65.58 3.379 Q 65.506 3.563 65.466 3.785 A 2.741 2.741 0 0 0 65.443 3.938 Z M 30.502 0.734 Q 30.502 0.536 30.623 0.4 Q 30.735 0.274 30.947 0.264 A 0.783 0.783 0 0 1 30.981 0.264 Q 31.219 0.264 31.342 0.4 A 0.474 0.474 0 0 1 31.464 0.703 A 0.614 0.614 0 0 1 31.465 0.734 A 0.523 0.523 0 0 1 31.44 0.9 A 0.442 0.442 0 0 1 31.342 1.063 Q 31.229 1.184 31.021 1.194 A 0.803 0.803 0 0 1 30.981 1.195 Q 30.809 1.195 30.698 1.126 A 0.362 0.362 0 0 1 30.623 1.063 A 0.456 0.456 0 0 1 30.505 0.788 A 0.605 0.605 0 0 1 30.502 0.734 Z" vector-effect="non-scaling-stroke"/></g><g transform="translate(25, 93)" id="svgGroup" stroke-linecap="round" fill-rule="evenodd" font-size="9pt" stroke="#000" stroke-width="0.25mm" fill="#000" style="stroke:#000;stroke-width:0.25mm;fill:#000"><path d="M 29.544 6.75 L 27.888 4.548 L 27.378 5.08 L 27.378 6.75 L 26.565 6.75 L 26.565 0 L 27.378 0 L 27.378 4.083 L 27.813 3.56 L 29.294 1.995 L 30.283 1.995 L 28.433 3.981 L 30.498 6.75 L 29.544 6.75 Z M 22.408 6.75 L 21.555 6.75 A 0.632 0.632 0 0 1 21.52 6.66 Q 21.488 6.562 21.464 6.41 A 3.997 3.997 0 0 1 21.441 6.249 Q 20.874 6.838 20.087 6.838 A 2.033 2.033 0 0 1 19.558 6.772 A 1.529 1.529 0 0 1 18.934 6.44 Q 18.483 6.042 18.483 5.432 Q 18.483 4.689 19.048 4.278 Q 19.613 3.867 20.637 3.867 L 21.428 3.867 L 21.428 3.494 A 1.152 1.152 0 0 0 21.392 3.199 A 0.828 0.828 0 0 0 21.173 2.815 Q 20.957 2.6 20.566 2.568 A 1.748 1.748 0 0 0 20.421 2.562 Q 19.986 2.562 19.692 2.782 Q 19.397 3.001 19.397 3.313 L 18.58 3.313 A 1.041 1.041 0 0 1 18.705 2.825 A 1.409 1.409 0 0 1 18.833 2.626 Q 19.085 2.294 19.518 2.101 A 2.249 2.249 0 0 1 20.294 1.913 A 2.669 2.669 0 0 1 20.47 1.907 A 2.65 2.65 0 0 1 20.987 1.955 Q 21.294 2.016 21.533 2.156 A 1.439 1.439 0 0 1 21.757 2.318 A 1.396 1.396 0 0 1 22.211 3.144 A 1.998 1.998 0 0 1 22.241 3.45 L 22.241 5.638 Q 22.241 6.073 22.314 6.39 A 1.707 1.707 0 0 0 22.408 6.68 L 22.408 6.75 Z M 3.731 0.352 L 3.731 4.601 L 4.619 4.601 L 4.619 5.265 L 3.731 5.265 L 3.731 6.75 L 2.914 6.75 L 2.914 5.265 L 0 5.265 L 0 4.786 L 2.865 0.352 L 3.731 0.352 Z M 14.616 6.75 L 12.845 6.75 L 12.845 0.352 L 14.651 0.352 Q 15.486 0.352 16.128 0.721 Q 16.77 1.09 17.119 1.771 A 3.19 3.19 0 0 1 17.436 2.8 A 4.073 4.073 0 0 1 17.473 3.335 L 17.473 3.744 Q 17.473 4.649 17.123 5.331 A 2.457 2.457 0 0 1 16.126 6.376 Q 15.478 6.741 14.616 6.75 Z M 9.129 2.592 A 1.544 1.544 0 0 0 9.233 2.021 A 2.226 2.226 0 0 0 9.211 1.707 A 1.566 1.566 0 0 0 8.712 0.738 A 1.754 1.754 0 0 0 7.946 0.333 A 2.443 2.443 0 0 0 7.348 0.264 A 2.539 2.539 0 0 0 6.838 0.312 A 1.767 1.767 0 0 0 5.981 0.738 Q 5.462 1.213 5.462 2.021 A 1.808 1.808 0 0 0 5.463 2.058 A 1.499 1.499 0 0 0 5.708 2.87 A 1.626 1.626 0 0 0 5.87 3.077 A 1.726 1.726 0 0 0 6.381 3.454 A 2.119 2.119 0 0 0 6.281 3.5 A 1.738 1.738 0 0 0 5.596 4.087 A 1.629 1.629 0 0 0 5.313 5.023 A 2.272 2.272 0 0 0 5.323 5.237 A 1.63 1.63 0 0 0 5.869 6.344 A 1.895 1.895 0 0 0 6.719 6.771 A 2.797 2.797 0 0 0 7.348 6.838 A 2.796 2.796 0 0 0 7.947 6.777 A 1.925 1.925 0 0 0 8.822 6.346 A 1.578 1.578 0 0 0 9.297 5.62 A 1.989 1.989 0 0 0 9.382 5.023 A 1.581 1.581 0 0 0 9.09 4.087 Q 8.798 3.674 8.297 3.458 Q 8.728 3.248 8.98 2.874 A 1.449 1.449 0 0 0 9.129 2.592 Z M 25.813 1.969 L 25.813 2.725 A 2.251 2.251 0 0 0 25.571 2.698 A 2.782 2.782 0 0 0 25.414 2.694 Q 24.636 2.694 24.344 3.338 A 1.445 1.445 0 0 0 24.328 3.375 L 24.328 6.75 L 23.515 6.75 L 23.515 1.995 L 24.306 1.995 L 24.319 2.544 Q 24.7 1.938 25.382 1.909 A 1.636 1.636 0 0 1 25.453 1.907 Q 25.69 1.907 25.813 1.969 Z M 14.673 1.046 L 13.689 1.046 L 13.689 6.06 L 14.577 6.06 A 2.519 2.519 0 0 0 15.209 5.985 A 1.747 1.747 0 0 0 16.095 5.454 Q 16.554 4.94 16.625 4.059 A 4.165 4.165 0 0 0 16.638 3.727 L 16.638 3.353 Q 16.638 2.562 16.368 2.027 A 1.864 1.864 0 0 0 16.126 1.659 A 1.687 1.687 0 0 0 15.13 1.09 A 2.499 2.499 0 0 0 14.673 1.046 Z M 2.817 1.639 L 0.923 4.601 L 2.914 4.601 L 2.914 1.463 L 2.817 1.639 Z M 8.569 5.005 A 1.375 1.375 0 0 0 8.51 4.592 A 1.109 1.109 0 0 0 8.229 4.131 A 1.148 1.148 0 0 0 7.557 3.807 A 1.593 1.593 0 0 0 7.339 3.792 A 1.466 1.466 0 0 0 6.95 3.841 A 1.086 1.086 0 0 0 6.458 4.126 A 1.123 1.123 0 0 0 6.144 4.762 A 1.572 1.572 0 0 0 6.126 5.005 A 1.48 1.48 0 0 0 6.168 5.367 A 1.019 1.019 0 0 0 6.449 5.862 Q 6.755 6.158 7.288 6.173 A 2.053 2.053 0 0 0 7.348 6.174 Q 7.841 6.174 8.151 5.94 A 1.018 1.018 0 0 0 8.244 5.86 A 1.041 1.041 0 0 0 8.544 5.292 A 1.518 1.518 0 0 0 8.569 5.005 Z M 7.348 0.932 A 1.259 1.259 0 0 0 6.995 0.979 A 0.973 0.973 0 0 0 6.572 1.228 Q 6.275 1.525 6.275 2.035 A 1.325 1.325 0 0 0 6.32 2.387 A 0.994 0.994 0 0 0 6.568 2.823 A 0.974 0.974 0 0 0 7.13 3.108 A 1.382 1.382 0 0 0 7.348 3.125 A 1.279 1.279 0 0 0 7.692 3.08 A 0.952 0.952 0 0 0 8.128 2.823 A 1.018 1.018 0 0 0 8.403 2.26 A 1.426 1.426 0 0 0 8.42 2.035 A 1.282 1.282 0 0 0 8.37 1.668 A 1.013 1.013 0 0 0 8.117 1.239 Q 7.813 0.932 7.348 0.932 Z M 21.428 5.418 L 21.428 4.443 L 20.791 4.443 Q 19.296 4.443 19.296 5.317 Q 19.296 5.7 19.551 5.915 A 0.893 0.893 0 0 0 19.965 6.108 A 1.259 1.259 0 0 0 20.206 6.13 A 1.429 1.429 0 0 0 20.931 5.933 A 1.335 1.335 0 0 0 21.227 5.705 A 1.108 1.108 0 0 0 21.428 5.418 Z" vector-effect="non-scaling-stroke"/></g>
</svgversion="1.0" encoding="UTF-8"?>
<svg width="48px" height="48px" viewBox="0 0 48 48" version="1.1" xmlns="http://www.w3.org/2000/svg" xmlns:xlink="http://www.w3.org/1999/xlink">
    <title>Icon-Resource/Application-Integration/Res_Amazon-EventBridge_Schema_48_Dark</title>
    <g id="Icon-Resource/Application-Integration/Res_Amazon-EventBridge_Schema_48" stroke="none" stroke-width="1" fill="none" fill-rule="evenodd">
        <path transform="translate(12.000000, 8.000000), scale(.65)" d="M19,27.25 L19,21.476 L24,18.589 L29,21.476 L29,27.25 L24,30.136 L19,27.25 Z M24,32.291 C24.173,32.291 24.346,32.247 24.5,32.157 L30.5,28.693 C30.81,28.515 31,28.185 31,27.827 L31,20.899 C31,20.542 30.81,20.211 30.5,20.033 L24.5,16.568 C24.191,16.39 23.809,16.39 23.5,16.568 L17.5,20.033 C17.19,20.211 17,20.542 17,20.899 L17,27.827 C17,28.185 17.19,28.515 17.5,28.693 L23.5,32.157 C23.654,32.247 23.827,32.291 24,32.291 L24,32.291 Z M32.707,17.707 L31.293,16.293 L37.293,10.293 L38.707,11.707 L32.707,17.707 Z M15.293,31.293 L16.707,32.707 L10.707,38.707 L9.293,37.293 L15.293,31.293 Z M16.293,17.707 L10.293,11.707 L11.707,10.293 L17.707,16.293 L16.293,17.707 Z M32.707,31.293 L38.707,37.293 L37.293,38.707 L31.293,32.707 L32.707,31.293 Z M34,26 L40,26 L40,24 L34,24 L34,26 Z M8,26 L14,26 L14,24 L8,24 L8,26 Z M23,13 L25,13 L25,7 L23,7 L23,13 Z M23,41 L25,41 L25,36 L23,36 L23,41 Z M4,44 L44,44 L44,4 L4,4 L4,44 Z M46,3 C46,2.448 45.553,2 45,2 L3,2 C2.447,2 2,2.448 2,3 L2,45 C2,45.552 2.447,46 3,46 L45,46 C45.553,46 46,45.552 46,45 L46,3 Z" id="Fill-4" fill="#000000"></path>
    </g><g transform="translate(25, 83)" id="svgGroup" stroke-linecap="round" fill-rule="evenodd" font-size="9pt" stroke="#000" stroke-width="0.25mm" fill="#000" style="stroke:#000;stroke-width:0.25mm;fill:#000"><path d="M 69.574 1.995 L 70.343 1.995 L 70.365 2.522 Q 70.888 1.907 71.776 1.907 A 2.009 2.009 0 0 1 72.287 1.968 A 1.244 1.244 0 0 1 73.134 2.672 A 1.801 1.801 0 0 1 73.751 2.118 A 1.65 1.65 0 0 1 74.28 1.937 A 2.209 2.209 0 0 1 74.65 1.907 A 2.119 2.119 0 0 1 75.294 1.997 Q 76.22 2.292 76.241 3.564 L 76.241 6.75 L 75.428 6.75 L 75.428 3.612 A 1.781 1.781 0 0 0 75.407 3.332 Q 75.384 3.185 75.333 3.067 A 0.758 0.758 0 0 0 75.195 2.85 A 0.68 0.68 0 0 0 74.942 2.682 Q 74.731 2.597 74.414 2.597 A 1.245 1.245 0 0 0 74.047 2.648 A 1.008 1.008 0 0 0 73.661 2.867 A 1.042 1.042 0 0 0 73.347 3.404 A 1.41 1.41 0 0 0 73.314 3.595 L 73.314 6.75 L 72.497 6.75 L 72.497 3.634 A 1.532 1.532 0 0 0 72.448 3.23 Q 72.321 2.768 71.864 2.643 A 1.457 1.457 0 0 0 71.481 2.597 Q 70.708 2.597 70.407 3.234 A 1.459 1.459 0 0 0 70.387 3.278 L 70.387 6.75 L 69.574 6.75 L 69.574 1.995 Z M 54.176 2.202 L 53.328 2.202 A 1.466 1.466 0 0 0 53.278 1.809 A 1.066 1.066 0 0 0 52.958 1.29 A 1.211 1.211 0 0 0 52.489 1.033 Q 52.237 0.958 51.917 0.958 A 2.286 2.286 0 0 0 51.537 0.988 Q 51.335 1.022 51.173 1.095 A 1.101 1.101 0 0 0 50.944 1.233 A 0.892 0.892 0 0 0 50.599 1.887 A 1.267 1.267 0 0 0 50.594 1.995 A 0.806 0.806 0 0 0 50.862 2.6 A 1.134 1.134 0 0 0 50.926 2.656 A 1.562 1.562 0 0 0 51.164 2.813 Q 51.495 2.993 52.055 3.151 A 8.228 8.228 0 0 1 52.52 3.295 Q 52.755 3.377 52.95 3.464 A 3.297 3.297 0 0 1 53.303 3.645 A 2.342 2.342 0 0 1 53.642 3.889 Q 53.832 4.056 53.954 4.248 A 1.45 1.45 0 0 1 53.971 4.276 A 1.498 1.498 0 0 1 54.168 4.832 A 1.948 1.948 0 0 1 54.189 5.124 A 1.606 1.606 0 0 1 54.067 5.76 Q 53.921 6.101 53.603 6.354 A 1.886 1.886 0 0 1 53.583 6.37 Q 52.976 6.838 51.961 6.838 A 3.023 3.023 0 0 1 50.82 6.623 A 2.917 2.917 0 0 1 50.73 6.585 A 2.383 2.383 0 0 1 50.252 6.307 A 1.874 1.874 0 0 1 49.849 5.893 A 1.689 1.689 0 0 1 49.54 4.896 L 50.388 4.896 A 1.261 1.261 0 0 0 50.457 5.323 A 1.074 1.074 0 0 0 50.816 5.812 Q 51.201 6.113 51.817 6.144 A 2.87 2.87 0 0 0 51.961 6.148 A 2.628 2.628 0 0 0 52.348 6.121 Q 52.544 6.092 52.703 6.031 A 1.129 1.129 0 0 0 52.985 5.875 Q 53.341 5.603 53.341 5.133 A 1.074 1.074 0 0 0 53.298 4.822 A 0.816 0.816 0 0 0 53.011 4.406 Q 52.682 4.148 51.816 3.898 Q 50.73 3.586 50.236 3.131 Q 49.742 2.676 49.742 2.008 Q 49.742 1.252 50.346 0.758 A 2.121 2.121 0 0 1 51.236 0.335 A 3.087 3.087 0 0 1 51.917 0.264 A 2.913 2.913 0 0 1 52.577 0.336 A 2.372 2.372 0 0 1 53.093 0.519 A 2.051 2.051 0 0 1 53.624 0.889 A 1.834 1.834 0 0 1 53.892 1.222 A 1.798 1.798 0 0 1 54.176 2.202 Z M 3.617 3.103 L 3.617 3.792 L 0.844 3.792 L 0.844 6.06 L 4.065 6.06 L 4.065 6.75 L 0 6.75 L 0 0.352 L 4.021 0.352 L 4.021 1.046 L 0.844 1.046 L 0.844 3.103 L 3.617 3.103 Z M 60.667 0 L 60.667 2.571 A 1.767 1.767 0 0 1 61.333 2.053 A 1.832 1.832 0 0 1 62.073 1.907 A 1.905 1.905 0 0 1 62.706 2.004 Q 63.548 2.3 63.591 3.506 A 3.668 3.668 0 0 1 63.593 3.608 L 63.593 6.75 L 62.78 6.75 L 62.78 3.604 A 1.837 1.837 0 0 0 62.758 3.324 Q 62.708 3.017 62.545 2.843 Q 62.359 2.645 62.006 2.606 A 1.66 1.66 0 0 0 61.827 2.597 A 1.253 1.253 0 0 0 61.412 2.664 A 1.123 1.123 0 0 0 61.132 2.808 A 1.432 1.432 0 0 0 60.667 3.362 L 60.667 6.75 L 59.854 6.75 L 59.854 0 L 60.667 0 Z M 40.799 2.522 L 40.838 1.995 L 41.581 1.995 L 41.581 6.636 A 2.511 2.511 0 0 1 41.51 7.249 A 1.738 1.738 0 0 1 41.034 8.09 A 1.834 1.834 0 0 1 40.104 8.57 A 2.671 2.671 0 0 1 39.564 8.622 A 2.446 2.446 0 0 1 38.558 8.402 A 2.003 2.003 0 0 1 38.147 8.161 A 1.563 1.563 0 0 1 37.806 7.8 L 38.228 7.313 A 1.889 1.889 0 0 0 38.663 7.712 A 1.514 1.514 0 0 0 39.507 7.958 A 1.695 1.695 0 0 0 39.884 7.919 Q 40.152 7.858 40.346 7.702 A 1.037 1.037 0 0 0 40.432 7.625 A 1.09 1.09 0 0 0 40.709 7.132 Q 40.756 6.959 40.763 6.752 A 2.134 2.134 0 0 0 40.764 6.684 L 40.764 6.275 A 1.601 1.601 0 0 1 39.712 6.821 A 2.279 2.279 0 0 1 39.432 6.838 A 1.672 1.672 0 0 1 38.677 6.67 Q 38.355 6.51 38.105 6.197 A 2.14 2.14 0 0 1 38.081 6.166 A 2.316 2.316 0 0 1 37.698 5.386 Q 37.564 4.922 37.564 4.333 Q 37.564 3.472 37.873 2.884 A 2.096 2.096 0 0 1 38.079 2.564 Q 38.593 1.907 39.441 1.907 A 1.971 1.971 0 0 1 40.04 1.994 A 1.55 1.55 0 0 1 40.799 2.522 Z M 13.944 1.995 L 14.713 1.995 L 14.739 2.593 Q 15.276 1.918 16.135 1.907 A 2.234 2.234 0 0 1 16.163 1.907 A 1.905 1.905 0 0 1 16.797 2.004 Q 17.638 2.3 17.681 3.506 A 3.668 3.668 0 0 1 17.684 3.608 L 17.684 6.75 L 16.871 6.75 L 16.871 3.604 A 1.837 1.837 0 0 0 16.848 3.324 Q 16.798 3.017 16.635 2.843 Q 16.449 2.645 16.096 2.606 A 1.66 1.66 0 0 0 15.917 2.597 A 1.253 1.253 0 0 0 15.503 2.664 A 1.123 1.123 0 0 0 15.223 2.808 A 1.432 1.432 0 0 0 14.757 3.362 L 14.757 6.75 L 13.944 6.75 L 13.944 1.995 Z M 58.17 5.251 L 58.939 5.251 A 1.432 1.432 0 0 1 58.74 5.901 A 1.772 1.772 0 0 1 58.658 6.029 A 1.828 1.828 0 0 1 58.049 6.574 A 2.169 2.169 0 0 1 57.966 6.618 A 1.997 1.997 0 0 1 57.05 6.838 A 2.346 2.346 0 0 1 56.353 6.739 A 1.839 1.839 0 0 1 55.505 6.19 A 2.171 2.171 0 0 1 55.041 5.31 Q 54.932 4.909 54.932 4.417 L 54.932 4.28 A 3.24 3.24 0 0 1 54.995 3.624 A 2.57 2.57 0 0 1 55.187 3.045 A 2.008 2.008 0 0 1 55.626 2.431 A 1.892 1.892 0 0 1 55.918 2.206 A 1.943 1.943 0 0 1 56.675 1.934 A 2.529 2.529 0 0 1 57.045 1.907 A 2.196 2.196 0 0 1 57.694 1.999 A 1.786 1.786 0 0 1 58.375 2.386 A 1.693 1.693 0 0 1 58.933 3.535 A 2.239 2.239 0 0 1 58.939 3.63 L 58.17 3.63 Q 58.135 3.168 57.821 2.872 A 1.078 1.078 0 0 0 57.092 2.576 A 1.402 1.402 0 0 0 57.045 2.575 A 1.374 1.374 0 0 0 56.624 2.637 A 1.081 1.081 0 0 0 56.085 3.021 A 1.469 1.469 0 0 0 55.858 3.468 Q 55.793 3.674 55.765 3.923 A 3.514 3.514 0 0 0 55.745 4.311 L 55.745 4.465 Q 55.745 5.287 56.083 5.73 A 1.1 1.1 0 0 0 56.87 6.165 A 1.611 1.611 0 0 0 57.05 6.174 A 1.171 1.171 0 0 0 57.81 5.911 A 1.007 1.007 0 0 0 58.054 5.629 A 0.914 0.914 0 0 0 58.17 5.251 Z M 81.255 6.75 L 80.402 6.75 A 0.632 0.632 0 0 1 80.367 6.66 Q 80.336 6.562 80.311 6.41 A 3.997 3.997 0 0 1 80.288 6.249 Q 79.721 6.838 78.935 6.838 A 2.033 2.033 0 0 1 78.405 6.772 A 1.529 1.529 0 0 1 77.781 6.44 Q 77.331 6.042 77.331 5.432 Q 77.331 4.689 77.895 4.278 Q 78.46 3.867 79.484 3.867 L 80.275 3.867 L 80.275 3.494 A 1.152 1.152 0 0 0 80.239 3.199 A 0.828 0.828 0 0 0 80.02 2.815 Q 79.804 2.6 79.413 2.568 A 1.748 1.748 0 0 0 79.269 2.562 Q 78.833 2.562 78.539 2.782 Q 78.245 3.001 78.245 3.313 L 77.427 3.313 A 1.041 1.041 0 0 1 77.552 2.825 A 1.409 1.409 0 0 1 77.68 2.626 Q 77.933 2.294 78.365 2.101 A 2.249 2.249 0 0 1 79.141 1.913 A 2.669 2.669 0 0 1 79.317 1.907 A 2.65 2.65 0 0 1 79.834 1.955 Q 80.142 2.016 80.38 2.156 A 1.439 1.439 0 0 1 80.604 2.318 A 1.396 1.396 0 0 1 81.058 3.144 A 1.998 1.998 0 0 1 81.088 3.45 L 81.088 5.638 Q 81.088 6.073 81.162 6.39 A 1.707 1.707 0 0 0 81.255 6.68 L 81.255 6.75 Z M 32.484 4.395 L 32.484 4.333 A 3.762 3.762 0 0 1 32.551 3.602 Q 32.639 3.16 32.841 2.812 A 2.148 2.148 0 0 1 33.003 2.573 Q 33.521 1.907 34.361 1.907 A 1.964 1.964 0 0 1 34.959 1.994 A 1.559 1.559 0 0 1 35.684 2.479 L 35.684 0 L 36.497 0 L 36.497 6.75 L 35.75 6.75 L 35.71 6.24 Q 35.222 6.838 34.352 6.838 A 1.6 1.6 0 0 1 33.131 6.31 A 2.078 2.078 0 0 1 33.005 6.161 A 2.405 2.405 0 0 1 32.581 5.255 Q 32.496 4.912 32.486 4.51 A 4.425 4.425 0 0 1 32.484 4.395 Z M 8.969 4.504 L 8.969 4.355 A 3.17 3.17 0 0 1 9.046 3.646 A 2.581 2.581 0 0 1 9.24 3.092 A 2.191 2.191 0 0 1 9.687 2.466 A 2.033 2.033 0 0 1 9.995 2.221 Q 10.481 1.907 11.048 1.907 A 2.254 2.254 0 0 1 11.661 1.986 A 1.639 1.639 0 0 1 12.489 2.518 Q 13.003 3.129 13.003 4.267 L 13.003 4.605 L 9.782 4.605 A 2.111 2.111 0 0 0 9.853 5.114 A 1.516 1.516 0 0 0 10.193 5.741 A 1.282 1.282 0 0 0 11.127 6.173 A 1.652 1.652 0 0 0 11.193 6.174 A 1.763 1.763 0 0 0 11.521 6.145 Q 11.745 6.103 11.922 5.999 A 1.827 1.827 0 0 0 12.431 5.551 A 2.068 2.068 0 0 0 12.445 5.533 L 12.942 5.919 A 1.926 1.926 0 0 1 11.542 6.811 A 2.749 2.749 0 0 1 11.149 6.838 A 2.394 2.394 0 0 1 10.398 6.725 A 1.974 1.974 0 0 1 9.576 6.203 Q 8.969 5.568 8.969 4.504 Z M 42.601 4.504 L 42.601 4.355 A 3.17 3.17 0 0 1 42.677 3.646 A 2.581 2.581 0 0 1 42.871 3.092 A 2.191 2.191 0 0 1 43.318 2.466 A 2.033 2.033 0 0 1 43.627 2.221 Q 44.112 1.907 44.679 1.907 A 2.254 2.254 0 0 1 45.292 1.986 A 1.639 1.639 0 0 1 46.121 2.518 Q 46.635 3.129 46.635 4.267 L 46.635 4.605 L 43.414 4.605 A 2.111 2.111 0 0 0 43.485 5.114 A 1.516 1.516 0 0 0 43.824 5.741 A 1.282 1.282 0 0 0 44.759 6.173 A 1.652 1.652 0 0 0 44.824 6.174 A 1.763 1.763 0 0 0 45.152 6.145 Q 45.376 6.103 45.554 5.999 A 1.827 1.827 0 0 0 46.063 5.551 A 2.068 2.068 0 0 0 46.077 5.533 L 46.573 5.919 A 1.926 1.926 0 0 1 45.174 6.811 A 2.749 2.749 0 0 1 44.78 6.838 A 2.394 2.394 0 0 1 44.029 6.725 A 1.974 1.974 0 0 1 43.207 6.203 Q 42.601 5.568 42.601 4.504 Z M 64.604 4.504 L 64.604 4.355 A 3.17 3.17 0 0 1 64.68 3.646 A 2.581 2.581 0 0 1 64.874 3.092 A 2.191 2.191 0 0 1 65.322 2.466 A 2.033 2.033 0 0 1 65.63 2.221 Q 66.116 1.907 66.683 1.907 A 2.254 2.254 0 0 1 67.296 1.986 A 1.639 1.639 0 0 1 68.124 2.518 Q 68.638 3.129 68.638 4.267 L 68.638 4.605 L 65.417 4.605 A 2.111 2.111 0 0 0 65.488 5.114 A 1.516 1.516 0 0 0 65.828 5.741 A 1.282 1.282 0 0 0 66.762 6.173 A 1.652 1.652 0 0 0 66.828 6.174 A 1.763 1.763 0 0 0 67.156 6.145 Q 67.38 6.103 67.557 5.999 A 1.827 1.827 0 0 0 68.066 5.551 A 2.068 2.068 0 0 0 68.08 5.533 L 68.577 5.919 A 1.926 1.926 0 0 1 67.177 6.811 A 2.749 2.749 0 0 1 66.784 6.838 A 2.394 2.394 0 0 1 66.032 6.725 A 1.974 1.974 0 0 1 65.21 6.203 Q 64.604 5.568 64.604 4.504 Z M 24.196 6.75 L 21.977 6.75 L 21.977 0.352 L 24.069 0.352 A 4.031 4.031 0 0 1 24.642 0.39 Q 24.934 0.432 25.171 0.521 A 1.629 1.629 0 0 1 25.635 0.782 A 1.383 1.383 0 0 1 26.107 1.558 A 2.164 2.164 0 0 1 26.161 2.057 A 1.3 1.3 0 0 1 25.906 2.85 A 1.589 1.589 0 0 1 25.395 3.294 A 1.972 1.972 0 0 1 25.211 3.384 A 1.571 1.571 0 0 1 25.726 3.63 A 1.446 1.446 0 0 1 26.031 3.935 A 1.531 1.531 0 0 1 26.323 4.713 A 1.961 1.961 0 0 1 26.332 4.904 A 2.139 2.139 0 0 1 26.257 5.487 A 1.577 1.577 0 0 1 25.774 6.258 A 1.832 1.832 0 0 1 25.082 6.633 Q 24.815 6.713 24.497 6.739 A 3.81 3.81 0 0 1 24.196 6.75 Z M 5.234 1.995 L 6.442 5.647 L 7.62 1.995 L 8.451 1.995 L 6.746 6.75 L 6.126 6.75 L 4.403 1.995 L 5.234 1.995 Z M 19.2 0.844 L 20.013 0.844 L 20.013 1.995 L 20.9 1.995 L 20.9 2.624 L 20.013 2.624 L 20.013 5.572 Q 20.013 5.858 20.131 6.001 Q 20.25 6.144 20.536 6.144 A 1.046 1.046 0 0 0 20.633 6.138 Q 20.736 6.129 20.876 6.101 A 4.024 4.024 0 0 0 20.922 6.091 L 20.922 6.75 A 2.463 2.463 0 0 1 20.49 6.829 A 2.157 2.157 0 0 1 20.298 6.838 Q 19.851 6.838 19.585 6.616 A 0.856 0.856 0 0 1 19.477 6.508 Q 19.249 6.238 19.209 5.78 A 2.351 2.351 0 0 1 19.2 5.572 L 19.2 2.624 L 18.334 2.624 L 18.334 1.995 L 19.2 1.995 L 19.2 0.844 Z M 29.751 1.969 L 29.751 2.725 A 2.251 2.251 0 0 0 29.508 2.698 A 2.782 2.782 0 0 0 29.351 2.694 Q 28.573 2.694 28.282 3.338 A 1.445 1.445 0 0 0 28.266 3.375 L 28.266 6.75 L 27.453 6.75 L 27.453 1.995 L 28.244 1.995 L 28.257 2.544 Q 28.637 1.938 29.32 1.909 A 1.636 1.636 0 0 1 29.391 1.907 Q 29.628 1.907 29.751 1.969 Z M 31.381 1.995 L 31.381 6.75 L 30.568 6.75 L 30.568 1.995 L 31.381 1.995 Z M 35.684 5.454 L 35.684 3.27 A 1.375 1.375 0 0 0 35.372 2.874 Q 35.048 2.597 34.563 2.597 A 1.238 1.238 0 0 0 34.136 2.668 A 1.068 1.068 0 0 0 33.631 3.059 A 1.51 1.51 0 0 0 33.422 3.484 Q 33.356 3.689 33.325 3.939 A 3.955 3.955 0 0 0 33.297 4.425 A 3.162 3.162 0 0 0 33.333 4.918 Q 33.374 5.178 33.463 5.389 A 1.474 1.474 0 0 0 33.631 5.691 A 1.06 1.06 0 0 0 34.394 6.139 A 1.391 1.391 0 0 0 34.554 6.148 Q 35.328 6.148 35.684 5.454 Z M 40.764 5.449 L 40.764 3.278 A 1.439 1.439 0 0 0 40.463 2.891 Q 40.159 2.62 39.719 2.599 A 1.578 1.578 0 0 0 39.643 2.597 Q 39.051 2.597 38.717 3.056 A 1.51 1.51 0 0 0 38.507 3.484 Q 38.441 3.689 38.41 3.939 A 3.955 3.955 0 0 0 38.382 4.425 Q 38.382 5.229 38.711 5.689 Q 39.041 6.148 39.634 6.148 A 1.32 1.32 0 0 0 40.144 6.054 Q 40.536 5.891 40.764 5.449 Z M 24.227 3.757 L 22.821 3.757 L 22.821 6.06 L 24.214 6.06 A 1.84 1.84 0 0 0 24.589 6.024 Q 24.829 5.974 25.013 5.854 A 1.064 1.064 0 0 0 25.143 5.755 A 1.003 1.003 0 0 0 25.465 5.154 A 1.459 1.459 0 0 0 25.484 4.913 Q 25.484 4.007 24.712 3.811 A 1.977 1.977 0 0 0 24.228 3.757 Z M 22.821 1.046 L 22.821 3.081 L 24.095 3.081 Q 24.649 3.081 24.981 2.804 A 0.905 0.905 0 0 0 25.309 2.154 A 1.27 1.27 0 0 0 25.312 2.052 Q 25.313 1.696 25.172 1.471 A 0.71 0.71 0 0 0 25.005 1.285 A 0.969 0.969 0 0 0 24.719 1.136 Q 24.456 1.047 24.075 1.046 A 3.261 3.261 0 0 0 24.069 1.046 L 22.821 1.046 Z M 80.275 5.418 L 80.275 4.443 L 79.638 4.443 Q 78.144 4.443 78.144 5.317 Q 78.144 5.7 78.398 5.915 A 0.893 0.893 0 0 0 78.812 6.108 A 1.259 1.259 0 0 0 79.053 6.13 A 1.429 1.429 0 0 0 79.778 5.933 A 1.335 1.335 0 0 0 80.074 5.705 A 1.108 1.108 0 0 0 80.275 5.418 Z M 9.809 3.938 L 12.19 3.938 L 12.19 3.876 Q 12.164 3.417 11.994 3.111 A 1.13 1.13 0 0 0 11.856 2.916 A 0.983 0.983 0 0 0 11.202 2.584 A 1.39 1.39 0 0 0 11.048 2.575 A 1.106 1.106 0 0 0 10.525 2.698 A 1.14 1.14 0 0 0 10.222 2.933 A 1.417 1.417 0 0 0 9.945 3.379 Q 9.871 3.563 9.831 3.785 A 2.741 2.741 0 0 0 9.809 3.938 Z M 43.44 3.938 L 45.822 3.938 L 45.822 3.876 Q 45.796 3.417 45.625 3.111 A 1.13 1.13 0 0 0 45.488 2.916 A 0.983 0.983 0 0 0 44.833 2.584 A 1.39 1.39 0 0 0 44.679 2.575 A 1.106 1.106 0 0 0 44.157 2.698 A 1.14 1.14 0 0 0 43.853 2.933 A 1.417 1.417 0 0 0 43.576 3.379 Q 43.503 3.563 43.463 3.785 A 2.741 2.741 0 0 0 43.44 3.938 Z M 65.443 3.938 L 67.825 3.938 L 67.825 3.876 Q 67.799 3.417 67.629 3.111 A 1.13 1.13 0 0 0 67.491 2.916 A 0.983 0.983 0 0 0 66.837 2.584 A 1.39 1.39 0 0 0 66.683 2.575 A 1.106 1.106 0 0 0 66.16 2.698 A 1.14 1.14 0 0 0 65.856 2.933 A 1.417 1.417 0 0 0 65.58 3.379 Q 65.506 3.563 65.466 3.785 A 2.741 2.741 0 0 0 65.443 3.938 Z M 30.502 0.734 Q 30.502 0.536 30.623 0.4 Q 30.735 0.274 30.947 0.264 A 0.783 0.783 0 0 1 30.981 0.264 Q 31.219 0.264 31.342 0.4 A 0.474 0.474 0 0 1 31.464 0.703 A 0.614 0.614 0 0 1 31.465 0.734 A 0.523 0.523 0 0 1 31.44 0.9 A 0.442 0.442 0 0 1 31.342 1.063 Q 31.229 1.184 31.021 1.194 A 0.803 0.803 0 0 1 30.981 1.195 Q 30.809 1.195 30.698 1.126 A 0.362 0.362 0 0 1 30.623 1.063 A 0.456 0.456 0 0 1 30.505 0.788 A 0.605 0.605 0 0 1 30.502 0.734 Z" vector-effect="non-scaling-stroke"/></g><g transform="translate(25, 93)" id="svgGroup" stroke-linecap="round" fill-rule="evenodd" font-size="9pt" stroke="#000" stroke-width="0.25mm" fill="#000" style="stroke:#000;stroke-width:0.25mm;fill:#000"><path d="M 29.544 6.75 L 27.888 4.548 L 27.378 5.08 L 27.378 6.75 L 26.565 6.75 L 26.565 0 L 27.378 0 L 27.378 4.083 L 27.813 3.56 L 29.294 1.995 L 30.283 1.995 L 28.433 3.981 L 30.498 6.75 L 29.544 6.75 Z M 22.408 6.75 L 21.555 6.75 A 0.632 0.632 0 0 1 21.52 6.66 Q 21.488 6.562 21.464 6.41 A 3.997 3.997 0 0 1 21.441 6.249 Q 20.874 6.838 20.087 6.838 A 2.033 2.033 0 0 1 19.558 6.772 A 1.529 1.529 0 0 1 18.934 6.44 Q 18.483 6.042 18.483 5.432 Q 18.483 4.689 19.048 4.278 Q 19.613 3.867 20.637 3.867 L 21.428 3.867 L 21.428 3.494 A 1.152 1.152 0 0 0 21.392 3.199 A 0.828 0.828 0 0 0 21.173 2.815 Q 20.957 2.6 20.566 2.568 A 1.748 1.748 0 0 0 20.421 2.562 Q 19.986 2.562 19.692 2.782 Q 19.397 3.001 19.397 3.313 L 18.58 3.313 A 1.041 1.041 0 0 1 18.705 2.825 A 1.409 1.409 0 0 1 18.833 2.626 Q 19.085 2.294 19.518 2.101 A 2.249 2.249 0 0 1 20.294 1.913 A 2.669 2.669 0 0 1 20.47 1.907 A 2.65 2.65 0 0 1 20.987 1.955 Q 21.294 2.016 21.533 2.156 A 1.439 1.439 0 0 1 21.757 2.318 A 1.396 1.396 0 0 1 22.211 3.144 A 1.998 1.998 0 0 1 22.241 3.45 L 22.241 5.638 Q 22.241 6.073 22.314 6.39 A 1.707 1.707 0 0 0 22.408 6.68 L 22.408 6.75 Z M 3.731 0.352 L 3.731 4.601 L 4.619 4.601 L 4.619 5.265 L 3.731 5.265 L 3.731 6.75 L 2.914 6.75 L 2.914 5.265 L 0 5.265 L 0 4.786 L 2.865 0.352 L 3.731 0.352 Z M 14.616 6.75 L 12.845 6.75 L 12.845 0.352 L 14.651 0.352 Q 15.486 0.352 16.128 0.721 Q 16.77 1.09 17.119 1.771 A 3.19 3.19 0 0 1 17.436 2.8 A 4.073 4.073 0 0 1 17.473 3.335 L 17.473 3.744 Q 17.473 4.649 17.123 5.331 A 2.457 2.457 0 0 1 16.126 6.376 Q 15.478 6.741 14.616 6.75 Z M 9.129 2.592 A 1.544 1.544 0 0 0 9.233 2.021 A 2.226 2.226 0 0 0 9.211 1.707 A 1.566 1.566 0 0 0 8.712 0.738 A 1.754 1.754 0 0 0 7.946 0.333 A 2.443 2.443 0 0 0 7.348 0.264 A 2.539 2.539 0 0 0 6.838 0.312 A 1.767 1.767 0 0 0 5.981 0.738 Q 5.462 1.213 5.462 2.021 A 1.808 1.808 0 0 0 5.463 2.058 A 1.499 1.499 0 0 0 5.708 2.87 A 1.626 1.626 0 0 0 5.87 3.077 A 1.726 1.726 0 0 0 6.381 3.454 A 2.119 2.119 0 0 0 6.281 3.5 A 1.738 1.738 0 0 0 5.596 4.087 A 1.629 1.629 0 0 0 5.313 5.023 A 2.272 2.272 0 0 0 5.323 5.237 A 1.63 1.63 0 0 0 5.869 6.344 A 1.895 1.895 0 0 0 6.719 6.771 A 2.797 2.797 0 0 0 7.348 6.838 A 2.796 2.796 0 0 0 7.947 6.777 A 1.925 1.925 0 0 0 8.822 6.346 A 1.578 1.578 0 0 0 9.297 5.62 A 1.989 1.989 0 0 0 9.382 5.023 A 1.581 1.581 0 0 0 9.09 4.087 Q 8.798 3.674 8.297 3.458 Q 8.728 3.248 8.98 2.874 A 1.449 1.449 0 0 0 9.129 2.592 Z M 25.813 1.969 L 25.813 2.725 A 2.251 2.251 0 0 0 25.571 2.698 A 2.782 2.782 0 0 0 25.414 2.694 Q 24.636 2.694 24.344 3.338 A 1.445 1.445 0 0 0 24.328 3.375 L 24.328 6.75 L 23.515 6.75 L 23.515 1.995 L 24.306 1.995 L 24.319 2.544 Q 24.7 1.938 25.382 1.909 A 1.636 1.636 0 0 1 25.453 1.907 Q 25.69 1.907 25.813 1.969 Z M 14.673 1.046 L 13.689 1.046 L 13.689 6.06 L 14.577 6.06 A 2.519 2.519 0 0 0 15.209 5.985 A 1.747 1.747 0 0 0 16.095 5.454 Q 16.554 4.94 16.625 4.059 A 4.165 4.165 0 0 0 16.638 3.727 L 16.638 3.353 Q 16.638 2.562 16.368 2.027 A 1.864 1.864 0 0 0 16.126 1.659 A 1.687 1.687 0 0 0 15.13 1.09 A 2.499 2.499 0 0 0 14.673 1.046 Z M 2.817 1.639 L 0.923 4.601 L 2.914 4.601 L 2.914 1.463 L 2.817 1.639 Z M 8.569 5.005 A 1.375 1.375 0 0 0 8.51 4.592 A 1.109 1.109 0 0 0 8.229 4.131 A 1.148 1.148 0 0 0 7.557 3.807 A 1.593 1.593 0 0 0 7.339 3.792 A 1.466 1.466 0 0 0 6.95 3.841 A 1.086 1.086 0 0 0 6.458 4.126 A 1.123 1.123 0 0 0 6.144 4.762 A 1.572 1.572 0 0 0 6.126 5.005 A 1.48 1.48 0 0 0 6.168 5.367 A 1.019 1.019 0 0 0 6.449 5.862 Q 6.755 6.158 7.288 6.173 A 2.053 2.053 0 0 0 7.348 6.174 Q 7.841 6.174 8.151 5.94 A 1.018 1.018 0 0 0 8.244 5.86 A 1.041 1.041 0 0 0 8.544 5.292 A 1.518 1.518 0 0 0 8.569 5.005 Z M 7.348 0.932 A 1.259 1.259 0 0 0 6.995 0.979 A 0.973 0.973 0 0 0 6.572 1.228 Q 6.275 1.525 6.275 2.035 A 1.325 1.325 0 0 0 6.32 2.387 A 0.994 0.994 0 0 0 6.568 2.823 A 0.974 0.974 0 0 0 7.13 3.108 A 1.382 1.382 0 0 0 7.348 3.125 A 1.279 1.279 0 0 0 7.692 3.08 A 0.952 0.952 0 0 0 8.128 2.823 A 1.018 1.018 0 0 0 8.403 2.26 A 1.426 1.426 0 0 0 8.42 2.035 A 1.282 1.282 0 0 0 8.37 1.668 A 1.013 1.013 0 0 0 8.117 1.239 Q 7.813 0.932 7.348 0.932 Z M 21.428 5.418 L 21.428 4.443 L 20.791 4.443 Q 19.296 4.443 19.296 5.317 Q 19.296 5.7 19.551 5.915 A 0.893 0.893 0 0 0 19.965 6.108 A 1.259 1.259 0 0 0 20.206 6.13 A 1.429 1.429 0 0 0 20.931 5.933 A 1.335 1.335 0 0 0 21.227 5.705 A 1.108 1.108 0 0 0 21.428 5.418 Z" vector-effect="non-scaling-stroke"/></g>
</svg>