<?xml version="1.0" encoding="UTF-8"?>
<svg width="90px" height="90px" viewBox="0 0 90 90" version="1.1" xmlns="http://www.w3.org/2000/svg" xmlns:xlink="http://www.w3.org/1999/xlink">
    <title>Icon-Architecture-Category/64/Satellite_64</title>
    
    <g id="Icon-Architecture-Category/64/Satellite_64" stroke="none" stroke-width="1" fill="none" fill-rule="evenodd">
        <rect id="Rectangle" x="5" y="5" width="80" height="80"></rect>
        <rect id="#879196-Border-Copy-21" stroke="#879196" stroke-width="2" x="1" y="1" width="88" height="88"></rect>
        
    </g><g transform="translate(33vw, 80vh)" id="svgGroup" stroke-linecap="round" fill-rule="evenodd" font-size="9pt" stroke="#000" stroke-width="0.25mm" fill="#000" style="stroke:#000;stroke-width:0.25mm;fill:#000"><path d="M 4.636 2.202 L 3.788 2.202 A 1.466 1.466 0 0 0 3.738 1.809 A 1.066 1.066 0 0 0 3.419 1.29 A 1.211 1.211 0 0 0 2.95 1.033 Q 2.698 0.958 2.378 0.958 A 2.286 2.286 0 0 0 1.998 0.988 Q 1.796 1.022 1.633 1.095 A 1.101 1.101 0 0 0 1.404 1.233 A 0.892 0.892 0 0 0 1.059 1.887 A 1.267 1.267 0 0 0 1.055 1.995 A 0.806 0.806 0 0 0 1.323 2.6 A 1.134 1.134 0 0 0 1.387 2.656 A 1.562 1.562 0 0 0 1.625 2.813 Q 1.955 2.993 2.516 3.151 A 8.228 8.228 0 0 1 2.981 3.295 Q 3.216 3.377 3.41 3.464 A 3.297 3.297 0 0 1 3.764 3.645 A 2.342 2.342 0 0 1 4.103 3.889 Q 4.293 4.056 4.415 4.248 A 1.45 1.45 0 0 1 4.432 4.276 A 1.498 1.498 0 0 1 4.628 4.832 A 1.948 1.948 0 0 1 4.65 5.124 A 1.606 1.606 0 0 1 4.527 5.76 Q 4.382 6.101 4.064 6.354 A 1.886 1.886 0 0 1 4.043 6.37 Q 3.437 6.838 2.422 6.838 A 3.023 3.023 0 0 1 1.281 6.623 A 2.917 2.917 0 0 1 1.191 6.585 A 2.383 2.383 0 0 1 0.713 6.307 A 1.874 1.874 0 0 1 0.31 5.893 A 1.689 1.689 0 0 1 0 4.896 L 0.848 4.896 A 1.261 1.261 0 0 0 0.918 5.323 A 1.074 1.074 0 0 0 1.277 5.812 Q 1.661 6.113 2.278 6.144 A 2.87 2.87 0 0 0 2.422 6.148 A 2.628 2.628 0 0 0 2.809 6.121 Q 3.005 6.092 3.164 6.031 A 1.129 1.129 0 0 0 3.445 5.875 Q 3.801 5.603 3.801 5.133 A 1.074 1.074 0 0 0 3.759 4.822 A 0.816 0.816 0 0 0 3.472 4.406 Q 3.142 4.148 2.277 3.898 Q 1.191 3.586 0.697 3.131 Q 0.202 2.676 0.202 2.008 Q 0.202 1.252 0.807 0.758 A 2.121 2.121 0 0 1 1.697 0.335 A 3.087 3.087 0 0 1 2.378 0.264 A 2.913 2.913 0 0 1 3.038 0.336 A 2.372 2.372 0 0 1 3.553 0.519 A 2.051 2.051 0 0 1 4.084 0.889 A 1.834 1.834 0 0 1 4.353 1.222 A 1.798 1.798 0 0 1 4.636 2.202 Z M 9.391 6.75 L 8.539 6.75 A 0.632 0.632 0 0 1 8.503 6.66 Q 8.472 6.562 8.447 6.41 A 3.997 3.997 0 0 1 8.424 6.249 Q 7.858 6.838 7.071 6.838 A 2.033 2.033 0 0 1 6.542 6.772 A 1.529 1.529 0 0 1 5.917 6.44 Q 5.467 6.042 5.467 5.432 Q 5.467 4.689 6.032 4.278 Q 6.596 3.867 7.62 3.867 L 8.411 3.867 L 8.411 3.494 A 1.152 1.152 0 0 0 8.376 3.199 A 0.828 0.828 0 0 0 8.156 2.815 Q 7.94 2.6 7.55 2.568 A 1.748 1.748 0 0 0 7.405 2.562 Q 6.97 2.562 6.675 2.782 Q 6.381 3.001 6.381 3.313 L 5.564 3.313 A 1.041 1.041 0 0 1 5.689 2.825 A 1.409 1.409 0 0 1 5.816 2.626 Q 6.069 2.294 6.502 2.101 A 2.249 2.249 0 0 1 7.278 1.913 A 2.669 2.669 0 0 1 7.453 1.907 A 2.65 2.65 0 0 1 7.971 1.955 Q 8.278 2.016 8.517 2.156 A 1.439 1.439 0 0 1 8.741 2.318 A 1.396 1.396 0 0 1 9.194 3.144 A 1.998 1.998 0 0 1 9.224 3.45 L 9.224 5.638 Q 9.224 6.073 9.298 6.39 A 1.707 1.707 0 0 0 9.391 6.68 L 9.391 6.75 Z M 13.232 4.504 L 13.232 4.355 A 3.17 3.17 0 0 1 13.308 3.646 A 2.581 2.581 0 0 1 13.502 3.092 A 2.191 2.191 0 0 1 13.95 2.466 A 2.033 2.033 0 0 1 14.258 2.221 Q 14.744 1.907 15.311 1.907 A 2.254 2.254 0 0 1 15.924 1.986 A 1.639 1.639 0 0 1 16.752 2.518 Q 17.266 3.129 17.266 4.267 L 17.266 4.605 L 14.045 4.605 A 2.111 2.111 0 0 0 14.116 5.114 A 1.516 1.516 0 0 0 14.456 5.741 A 1.282 1.282 0 0 0 15.39 6.173 A 1.652 1.652 0 0 0 15.456 6.174 A 1.763 1.763 0 0 0 15.784 6.145 Q 16.008 6.103 16.185 5.999 A 1.827 1.827 0 0 0 16.694 5.551 A 2.068 2.068 0 0 0 16.708 5.533 L 17.205 5.919 A 1.926 1.926 0 0 1 15.805 6.811 A 2.749 2.749 0 0 1 15.412 6.838 A 2.394 2.394 0 0 1 14.661 6.725 A 1.974 1.974 0 0 1 13.839 6.203 Q 13.232 5.568 13.232 4.504 Z M 27.492 4.504 L 27.492 4.355 A 3.17 3.17 0 0 1 27.569 3.646 A 2.581 2.581 0 0 1 27.763 3.092 A 2.191 2.191 0 0 1 28.21 2.466 A 2.033 2.033 0 0 1 28.518 2.221 Q 29.004 1.907 29.571 1.907 A 2.254 2.254 0 0 1 30.184 1.986 A 1.639 1.639 0 0 1 31.012 2.518 Q 31.527 3.129 31.527 4.267 L 31.527 4.605 L 28.305 4.605 A 2.111 2.111 0 0 0 28.376 5.114 A 1.516 1.516 0 0 0 28.716 5.741 A 1.282 1.282 0 0 0 29.65 6.173 A 1.652 1.652 0 0 0 29.716 6.174 A 1.763 1.763 0 0 0 30.044 6.145 Q 30.268 6.103 30.445 5.999 A 1.827 1.827 0 0 0 30.954 5.551 A 2.068 2.068 0 0 0 30.968 5.533 L 31.465 5.919 A 1.926 1.926 0 0 1 30.065 6.811 A 2.749 2.749 0 0 1 29.672 6.838 A 2.394 2.394 0 0 1 28.921 6.725 A 1.974 1.974 0 0 1 28.099 6.203 Q 27.492 5.568 27.492 4.504 Z M 10.789 0.844 L 11.602 0.844 L 11.602 1.995 L 12.489 1.995 L 12.489 2.624 L 11.602 2.624 L 11.602 5.572 Q 11.602 5.858 11.72 6.001 Q 11.839 6.144 12.125 6.144 A 1.046 1.046 0 0 0 12.222 6.138 Q 12.325 6.129 12.465 6.101 A 4.024 4.024 0 0 0 12.511 6.091 L 12.511 6.75 A 2.463 2.463 0 0 1 12.079 6.829 A 2.157 2.157 0 0 1 11.887 6.838 Q 11.44 6.838 11.174 6.616 A 0.856 0.856 0 0 1 11.066 6.508 Q 10.838 6.238 10.798 5.78 A 2.351 2.351 0 0 1 10.789 5.572 L 10.789 2.624 L 9.923 2.624 L 9.923 1.995 L 10.789 1.995 L 10.789 0.844 Z M 25.049 0.844 L 25.862 0.844 L 25.862 1.995 L 26.75 1.995 L 26.75 2.624 L 25.862 2.624 L 25.862 5.572 Q 25.862 5.858 25.981 6.001 Q 26.099 6.144 26.385 6.144 A 1.046 1.046 0 0 0 26.482 6.138 Q 26.585 6.129 26.725 6.101 A 4.024 4.024 0 0 0 26.772 6.091 L 26.772 6.75 A 2.463 2.463 0 0 1 26.339 6.829 A 2.157 2.157 0 0 1 26.148 6.838 Q 25.701 6.838 25.434 6.616 A 0.856 0.856 0 0 1 25.326 6.508 Q 25.098 6.238 25.058 5.78 A 2.351 2.351 0 0 1 25.049 5.572 L 25.049 2.624 L 24.183 2.624 L 24.183 1.995 L 25.049 1.995 L 25.049 0.844 Z M 19.09 0 L 19.09 6.75 L 18.277 6.75 L 18.277 0 L 19.09 0 Z M 21.274 0 L 21.274 6.75 L 20.461 6.75 L 20.461 0 L 21.274 0 Z M 23.458 1.995 L 23.458 6.75 L 22.645 6.75 L 22.645 1.995 L 23.458 1.995 Z M 8.411 5.418 L 8.411 4.443 L 7.774 4.443 Q 6.28 4.443 6.28 5.317 Q 6.28 5.7 6.535 5.915 A 0.893 0.893 0 0 0 6.948 6.108 A 1.259 1.259 0 0 0 7.19 6.13 A 1.429 1.429 0 0 0 7.915 5.933 A 1.335 1.335 0 0 0 8.21 5.705 A 1.108 1.108 0 0 0 8.411 5.418 Z M 14.071 3.938 L 16.453 3.938 L 16.453 3.876 Q 16.427 3.417 16.257 3.111 A 1.13 1.13 0 0 0 16.119 2.916 A 0.983 0.983 0 0 0 15.465 2.584 A 1.39 1.39 0 0 0 15.311 2.575 A 1.106 1.106 0 0 0 14.788 2.698 A 1.14 1.14 0 0 0 14.485 2.933 A 1.417 1.417 0 0 0 14.208 3.379 Q 14.134 3.563 14.094 3.785 A 2.741 2.741 0 0 0 14.071 3.938 Z M 28.332 3.938 L 30.714 3.938 L 30.714 3.876 Q 30.687 3.417 30.517 3.111 A 1.13 1.13 0 0 0 30.38 2.916 A 0.983 0.983 0 0 0 29.725 2.584 A 1.39 1.39 0 0 0 29.571 2.575 A 1.106 1.106 0 0 0 29.048 2.698 A 1.14 1.14 0 0 0 28.745 2.933 A 1.417 1.417 0 0 0 28.468 3.379 Q 28.395 3.563 28.355 3.785 A 2.741 2.741 0 0 0 28.332 3.938 Z M 22.579 0.734 Q 22.579 0.536 22.7 0.4 Q 22.812 0.274 23.024 0.264 A 0.783 0.783 0 0 1 23.058 0.264 Q 23.296 0.264 23.419 0.4 A 0.474 0.474 0 0 1 23.541 0.703 A 0.614 0.614 0 0 1 23.542 0.734 A 0.523 0.523 0 0 1 23.516 0.9 A 0.442 0.442 0 0 1 23.419 1.063 Q 23.306 1.184 23.098 1.194 A 0.803 0.803 0 0 1 23.058 1.195 Q 22.886 1.195 22.775 1.126 A 0.362 0.362 0 0 1 22.7 1.063 A 0.456 0.456 0 0 1 22.582 0.788 A 0.605 0.605 0 0 1 22.579 0.734 Z" vector-effect="non-scaling-stroke"/></g>
</svg>