<?xml version="1.0" encoding="UTF-8"?>
<svg width="80px" height="80px" viewBox="0 0 80 80" version="1.1" xmlns="http://www.w3.org/2000/svg" xmlns:xlink="http://www.w3.org/1999/xlink">
    <title>Icon-Architecture/64/Arch_AWS-Parallel-Cluster_64</title>
    
    <g id="Icon-Architecture/64/Arch_AWS-Parallel-Cluster_64" stroke="none" stroke-width="1" fill="none" fill-rule="evenodd">
        
        <g id="Icon-Service/64/AWS-ParallelClusters_64" transform="translate(16, 8), scale(.65)" fill="#000000">
            <path d="M40.7707956,54 L48.7707956,54 L48.7707956,46 L40.7707956,46 L40.7707956,54 Z M50.7707956,45 L50.7707956,55 C50.7707956,55.552 50.3227956,56 49.7707956,56 L39.7707956,56 C39.2177956,56 38.7707956,55.552 38.7707956,55 L38.7707956,45 C38.7707956,44.448 39.2177956,44 39.7707956,44 L49.7707956,44 C50.3227956,44 50.7707956,44.448 50.7707956,45 L50.7707956,45 Z M55.7707956,38 L45.7707956,38 C45.2177956,38 44.7707956,38.448 44.7707956,39 L44.7707956,42 C44.7707956,42.552 45.2177956,43 45.7707956,43 C46.3227956,43 46.7707956,42.552 46.7707956,42 L46.7707956,40 L54.7707956,40 L54.7707956,48 L53.7707956,48 C53.2177956,48 52.7707956,48.448 52.7707956,49 C52.7707956,49.552 53.2177956,50 53.7707956,50 L55.7707956,50 C56.3227956,50 56.7707956,49.552 56.7707956,49 L56.7707956,39 C56.7707956,38.448 56.3227956,38 55.7707956,38 L55.7707956,38 Z M14.7707956,18 L22.7707956,18 L22.7707956,10 L14.7707956,10 L14.7707956,18 Z M12.7707956,19 L12.7707956,9 C12.7707956,8.448 13.2177956,8 13.7707956,8 L23.7707956,8 C24.3227956,8 24.7707956,8.448 24.7707956,9 L24.7707956,19 C24.7707956,19.552 24.3227956,20 23.7707956,20 L13.7707956,20 C13.2177956,20 12.7707956,19.552 12.7707956,19 L12.7707956,19 Z M6.77079565,26 L16.7707956,26 C17.3227956,26 17.7707956,25.552 17.7707956,25 L17.7707956,23 C17.7707956,22.448 17.3227956,22 16.7707956,22 C16.2177956,22 15.7707956,22.448 15.7707956,23 L15.7707956,24 L7.77079565,24 L7.77079565,16 L9.77079565,16 C10.3227956,16 10.7707956,15.552 10.7707956,15 C10.7707956,14.448 10.3227956,14 9.77079565,14 L6.77079565,14 C6.21779565,14 5.77079565,14.448 5.77079565,15 L5.77079565,25 C5.77079565,25.552 6.21779565,26 6.77079565,26 L6.77079565,26 Z M59.0797956,36.135 C58.9287956,36.667 58.3687956,36.973 57.8457956,36.824 C57.3147956,36.674 57.0057956,36.121 57.1557956,35.589 C57.9717956,32.712 57.4427956,29.554 55.7757956,27.348 C54.2157956,25.285 51.8307956,24.194 48.8777956,24.194 C41.2627956,24.194 37.1047956,28.44 32.9877956,33.214 C35.5707956,36.166 38.2937956,39.068 41.6967956,40.702 C42.1947956,40.941 42.4047956,41.539 42.1657956,42.036 C41.9937956,42.395 41.6367956,42.604 41.2637956,42.604 C41.1187956,42.604 40.9717956,42.572 40.8317956,42.505 C37.1637956,40.744 34.3337956,37.778 31.6727956,34.748 C27.6587956,39.436 23.4207956,44.125 16.0747956,44.125 C12.0037956,44.125 8.52779565,42.472 6.28779565,39.471 C4.14979565,36.606 3.45679565,32.927 4.43579565,29.628 C4.59179565,29.099 5.14879565,28.796 5.67879565,28.954 C6.20779565,29.11 6.51079565,29.667 6.35379565,30.196 C5.56579565,32.853 6.15379565,35.949 7.89079565,38.274 C9.74379565,40.757 12.6507956,42.125 16.0747956,42.125 C22.6277956,42.125 26.4027956,37.833 30.3437956,33.225 C27.3687956,29.8 24.5267956,26.6 20.7747956,25.09 C20.2617956,24.884 20.0137956,24.301 20.2197956,23.789 C20.4267956,23.276 21.0137956,23.028 21.5207956,23.234 C25.6197956,24.884 28.7087956,28.298 31.6607956,31.692 C35.8767956,26.824 40.5147956,22.194 48.8777956,22.194 C52.4307956,22.194 55.4467956,23.596 57.3707956,26.142 C59.4087956,28.837 60.0637956,32.667 59.0797956,36.135 L59.0797956,36.135 Z" id="AWS-ParallelClusters_Icon_64_Squid"></path>
        </g>
    </g><g transform="translate(12vw, 80vh)" id="svgGroup" stroke-linecap="round" fill-rule="evenodd" font-size="9pt" stroke="#000" stroke-width="0.25mm" fill="#000" style="stroke:#000;stroke-width:0.25mm;fill:#000"><path d="M 33.469 4.72 L 34.317 4.72 A 3.016 3.016 0 0 1 34.156 5.416 A 2.099 2.099 0 0 1 33.568 6.286 Q 32.937 6.838 31.891 6.838 A 2.553 2.553 0 0 1 31.022 6.696 A 2.194 2.194 0 0 1 30.074 6.025 A 2.789 2.789 0 0 1 29.512 4.901 Q 29.406 4.484 29.393 3.992 A 5.262 5.262 0 0 1 29.391 3.85 L 29.391 3.234 A 4.251 4.251 0 0 1 29.461 2.445 A 3.229 3.229 0 0 1 29.709 1.666 A 2.539 2.539 0 0 1 30.165 0.99 A 2.26 2.26 0 0 1 30.612 0.626 A 2.415 2.415 0 0 1 31.638 0.281 A 3.027 3.027 0 0 1 31.966 0.264 A 2.962 2.962 0 0 1 32.672 0.343 A 2.065 2.065 0 0 1 33.601 0.833 A 2.16 2.16 0 0 1 34.195 1.795 A 3.086 3.086 0 0 1 34.317 2.408 L 33.469 2.408 Q 33.4 1.929 33.23 1.616 A 1.223 1.223 0 0 0 32.992 1.301 A 1.207 1.207 0 0 0 32.487 1.024 Q 32.3 0.971 32.076 0.961 A 2.396 2.396 0 0 0 31.966 0.958 A 1.753 1.753 0 0 0 31.387 1.049 A 1.463 1.463 0 0 0 30.698 1.556 A 1.989 1.989 0 0 0 30.384 2.175 Q 30.239 2.636 30.239 3.256 L 30.239 3.876 Q 30.239 4.917 30.674 5.533 A 1.38 1.38 0 0 0 31.672 6.135 A 1.814 1.814 0 0 0 31.891 6.148 A 2.497 2.497 0 0 0 32.299 6.117 Q 32.518 6.08 32.694 6.002 A 1.155 1.155 0 0 0 32.97 5.829 Q 33.346 5.511 33.469 4.72 Z M 46.024 3.393 L 45.207 3.393 Q 45.207 3.059 44.923 2.817 Q 44.64 2.575 44.209 2.575 Q 43.765 2.575 43.515 2.769 A 0.653 0.653 0 0 0 43.34 2.967 Q 43.267 3.098 43.264 3.263 A 0.771 0.771 0 0 0 43.264 3.274 A 0.588 0.588 0 0 0 43.294 3.467 A 0.48 0.48 0 0 0 43.497 3.718 A 1.093 1.093 0 0 0 43.647 3.796 Q 43.811 3.868 44.067 3.937 A 6.581 6.581 0 0 0 44.339 4.003 A 6.318 6.318 0 0 1 44.746 4.108 Q 45.083 4.208 45.325 4.329 A 1.901 1.901 0 0 1 45.581 4.481 Q 45.718 4.579 45.815 4.692 A 1.06 1.06 0 0 1 45.885 4.783 A 1.024 1.024 0 0 1 46.048 5.191 A 1.388 1.388 0 0 1 46.068 5.432 Q 46.068 6.069 45.558 6.453 Q 45.076 6.817 44.322 6.837 A 3.337 3.337 0 0 1 44.235 6.838 A 2.746 2.746 0 0 1 43.701 6.788 A 2.124 2.124 0 0 1 43.225 6.636 A 1.771 1.771 0 0 1 42.791 6.358 A 1.54 1.54 0 0 1 42.537 6.071 Q 42.289 5.708 42.289 5.287 L 43.102 5.287 A 0.932 0.932 0 0 0 43.175 5.612 A 0.827 0.827 0 0 0 43.429 5.935 A 1.072 1.072 0 0 0 43.831 6.128 Q 43.986 6.167 44.167 6.173 A 2.013 2.013 0 0 0 44.235 6.174 A 1.863 1.863 0 0 0 44.531 6.152 Q 44.693 6.126 44.824 6.07 A 0.941 0.941 0 0 0 44.976 5.988 A 0.689 0.689 0 0 0 45.14 5.837 A 0.554 0.554 0 0 0 45.255 5.489 A 0.698 0.698 0 0 0 45.218 5.258 A 0.581 0.581 0 0 0 45.007 4.977 A 1.05 1.05 0 0 0 44.838 4.878 Q 44.649 4.788 44.354 4.712 A 5.392 5.392 0 0 0 44.141 4.663 A 6.342 6.342 0 0 1 43.78 4.575 Q 43.41 4.473 43.161 4.346 Q 42.862 4.194 42.692 3.994 A 1.017 1.017 0 0 1 42.625 3.907 Q 42.451 3.652 42.451 3.3 A 1.206 1.206 0 0 1 42.85 2.396 A 1.694 1.694 0 0 1 42.946 2.312 A 1.752 1.752 0 0 1 43.729 1.952 A 2.471 2.471 0 0 1 44.209 1.907 A 2.559 2.559 0 0 1 44.772 1.966 A 1.757 1.757 0 0 1 45.521 2.325 Q 46.024 2.742 46.024 3.393 Z M 40.478 6.75 L 40.46 6.28 A 1.526 1.526 0 0 1 39.634 6.775 Q 39.384 6.836 39.087 6.838 A 2.996 2.996 0 0 1 39.067 6.838 A 2.086 2.086 0 0 1 38.608 6.79 Q 38.177 6.693 37.909 6.396 A 1.41 1.41 0 0 1 37.626 5.899 Q 37.51 5.556 37.507 5.089 L 37.507 1.995 L 38.32 1.995 L 38.32 5.067 Q 38.32 6.037 39.028 6.137 A 1.229 1.229 0 0 0 39.199 6.148 A 1.927 1.927 0 0 0 39.65 6.099 Q 40.213 5.964 40.438 5.454 L 40.438 1.995 L 41.251 1.995 L 41.251 6.75 L 40.478 6.75 Z M 9.29 6.75 L 8.438 6.75 A 0.632 0.632 0 0 1 8.402 6.66 Q 8.371 6.562 8.346 6.41 A 3.997 3.997 0 0 1 8.323 6.249 Q 7.756 6.838 6.97 6.838 A 2.033 2.033 0 0 1 6.44 6.772 A 1.529 1.529 0 0 1 5.816 6.44 Q 5.366 6.042 5.366 5.432 Q 5.366 4.689 5.93 4.278 Q 6.495 3.867 7.519 3.867 L 8.31 3.867 L 8.31 3.494 A 1.152 1.152 0 0 0 8.274 3.199 A 0.828 0.828 0 0 0 8.055 2.815 Q 7.839 2.6 7.449 2.568 A 1.748 1.748 0 0 0 7.304 2.562 Q 6.869 2.562 6.574 2.782 Q 6.28 3.001 6.28 3.313 L 5.462 3.313 A 1.041 1.041 0 0 1 5.587 2.825 A 1.409 1.409 0 0 1 5.715 2.626 Q 5.968 2.294 6.401 2.101 A 2.249 2.249 0 0 1 7.176 1.913 A 2.669 2.669 0 0 1 7.352 1.907 A 2.65 2.65 0 0 1 7.869 1.955 Q 8.177 2.016 8.416 2.156 A 1.439 1.439 0 0 1 8.64 2.318 A 1.396 1.396 0 0 1 9.093 3.144 A 1.998 1.998 0 0 1 9.123 3.45 L 9.123 5.638 Q 9.123 6.073 9.197 6.39 A 1.707 1.707 0 0 0 9.29 6.68 L 9.29 6.75 Z M 17.055 6.75 L 16.203 6.75 A 0.632 0.632 0 0 1 16.167 6.66 Q 16.136 6.562 16.111 6.41 A 3.997 3.997 0 0 1 16.088 6.249 Q 15.521 6.838 14.735 6.838 A 2.033 2.033 0 0 1 14.206 6.772 A 1.529 1.529 0 0 1 13.581 6.44 Q 13.131 6.042 13.131 5.432 Q 13.131 4.689 13.696 4.278 Q 14.26 3.867 15.284 3.867 L 16.075 3.867 L 16.075 3.494 A 1.152 1.152 0 0 0 16.039 3.199 A 0.828 0.828 0 0 0 15.82 2.815 Q 15.604 2.6 15.214 2.568 A 1.748 1.748 0 0 0 15.069 2.562 Q 14.634 2.562 14.339 2.782 Q 14.045 3.001 14.045 3.313 L 13.228 3.313 A 1.041 1.041 0 0 1 13.352 2.825 A 1.409 1.409 0 0 1 13.48 2.626 Q 13.733 2.294 14.166 2.101 A 2.249 2.249 0 0 1 14.941 1.913 A 2.669 2.669 0 0 1 15.117 1.907 A 2.65 2.65 0 0 1 15.635 1.955 Q 15.942 2.016 16.181 2.156 A 1.439 1.439 0 0 1 16.405 2.318 A 1.396 1.396 0 0 1 16.858 3.144 A 1.998 1.998 0 0 1 16.888 3.45 L 16.888 5.638 Q 16.888 6.073 16.962 6.39 A 1.707 1.707 0 0 0 17.055 6.68 L 17.055 6.75 Z M 22.324 4.504 L 22.324 4.355 A 3.17 3.17 0 0 1 22.4 3.646 A 2.581 2.581 0 0 1 22.594 3.092 A 2.191 2.191 0 0 1 23.042 2.466 A 2.033 2.033 0 0 1 23.35 2.221 Q 23.836 1.907 24.403 1.907 A 2.254 2.254 0 0 1 25.016 1.986 A 1.639 1.639 0 0 1 25.844 2.518 Q 26.358 3.129 26.358 4.267 L 26.358 4.605 L 23.137 4.605 A 2.111 2.111 0 0 0 23.208 5.114 A 1.516 1.516 0 0 0 23.548 5.741 A 1.282 1.282 0 0 0 24.482 6.173 A 1.652 1.652 0 0 0 24.548 6.174 A 1.763 1.763 0 0 0 24.876 6.145 Q 25.1 6.103 25.277 5.999 A 1.827 1.827 0 0 0 25.786 5.551 A 2.068 2.068 0 0 0 25.8 5.533 L 26.297 5.919 A 1.926 1.926 0 0 1 24.897 6.811 A 2.749 2.749 0 0 1 24.504 6.838 A 2.394 2.394 0 0 1 23.753 6.725 A 1.974 1.974 0 0 1 22.931 6.203 Q 22.324 5.568 22.324 4.504 Z M 49.86 4.504 L 49.86 4.355 A 3.17 3.17 0 0 1 49.937 3.646 A 2.581 2.581 0 0 1 50.131 3.092 A 2.191 2.191 0 0 1 50.578 2.466 A 2.033 2.033 0 0 1 50.886 2.221 Q 51.372 1.907 51.939 1.907 A 2.254 2.254 0 0 1 52.552 1.986 A 1.639 1.639 0 0 1 53.38 2.518 Q 53.895 3.129 53.895 4.267 L 53.895 4.605 L 50.673 4.605 A 2.111 2.111 0 0 0 50.744 5.114 A 1.516 1.516 0 0 0 51.084 5.741 A 1.282 1.282 0 0 0 52.018 6.173 A 1.652 1.652 0 0 0 52.084 6.174 A 1.763 1.763 0 0 0 52.412 6.145 Q 52.636 6.103 52.813 5.999 A 1.827 1.827 0 0 0 53.322 5.551 A 2.068 2.068 0 0 0 53.336 5.533 L 53.833 5.919 A 1.926 1.926 0 0 1 52.433 6.811 A 2.749 2.749 0 0 1 52.04 6.838 A 2.394 2.394 0 0 1 51.289 6.725 A 1.974 1.974 0 0 1 50.467 6.203 Q 49.86 5.568 49.86 4.504 Z M 2.351 4.245 L 0.844 4.245 L 0.844 6.75 L 0 6.75 L 0 0.352 L 2.36 0.352 A 3.315 3.315 0 0 1 3.025 0.414 Q 3.427 0.497 3.738 0.688 A 1.839 1.839 0 0 1 4.006 0.888 A 1.772 1.772 0 0 1 4.593 2.105 A 2.45 2.45 0 0 1 4.601 2.307 Q 4.601 3.239 4.019 3.742 Q 3.54 4.156 2.721 4.229 A 4.14 4.14 0 0 1 2.351 4.245 Z M 47.417 0.844 L 48.23 0.844 L 48.23 1.995 L 49.118 1.995 L 49.118 2.624 L 48.23 2.624 L 48.23 5.572 Q 48.23 5.858 48.349 6.001 Q 48.467 6.144 48.753 6.144 A 1.046 1.046 0 0 0 48.85 6.138 Q 48.953 6.129 49.093 6.101 A 4.024 4.024 0 0 0 49.14 6.091 L 49.14 6.75 A 2.463 2.463 0 0 1 48.707 6.829 A 2.157 2.157 0 0 1 48.516 6.838 Q 48.069 6.838 47.802 6.616 A 0.856 0.856 0 0 1 47.694 6.508 Q 47.466 6.238 47.426 5.78 A 2.351 2.351 0 0 1 47.417 5.572 L 47.417 2.624 L 46.551 2.624 L 46.551 1.995 L 47.417 1.995 L 47.417 0.844 Z M 19.046 0 L 19.046 6.75 L 18.233 6.75 L 18.233 0 L 19.046 0 Z M 21.23 0 L 21.23 6.75 L 20.417 6.75 L 20.417 0 L 21.23 0 Z M 28.182 0 L 28.182 6.75 L 27.369 6.75 L 27.369 0 L 28.182 0 Z M 36.224 0 L 36.224 6.75 L 35.411 6.75 L 35.411 0 L 36.224 0 Z M 12.696 1.969 L 12.696 2.725 A 2.251 2.251 0 0 0 12.453 2.698 A 2.782 2.782 0 0 0 12.296 2.694 Q 11.518 2.694 11.227 3.338 A 1.445 1.445 0 0 0 11.21 3.375 L 11.21 6.75 L 10.397 6.75 L 10.397 1.995 L 11.188 1.995 L 11.202 2.544 Q 11.582 1.938 12.265 1.909 A 1.636 1.636 0 0 1 12.335 1.907 Q 12.573 1.907 12.696 1.969 Z M 57.133 1.969 L 57.133 2.725 A 2.251 2.251 0 0 0 56.891 2.698 A 2.782 2.782 0 0 0 56.733 2.694 Q 55.956 2.694 55.664 3.338 A 1.445 1.445 0 0 0 55.648 3.375 L 55.648 6.75 L 54.835 6.75 L 54.835 1.995 L 55.626 1.995 L 55.639 2.544 Q 56.02 1.938 56.702 1.909 A 1.636 1.636 0 0 1 56.773 1.907 Q 57.01 1.907 57.133 1.969 Z M 0.844 1.046 L 0.844 3.555 L 2.36 3.555 A 2.313 2.313 0 0 0 2.752 3.524 Q 2.969 3.487 3.142 3.404 A 1.097 1.097 0 0 0 3.397 3.237 A 1.028 1.028 0 0 0 3.715 2.696 Q 3.756 2.528 3.757 2.329 A 1.996 1.996 0 0 0 3.757 2.316 A 1.466 1.466 0 0 0 3.703 1.908 A 1.112 1.112 0 0 0 3.397 1.402 Q 3.037 1.059 2.408 1.046 L 0.844 1.046 Z M 8.31 5.418 L 8.31 4.443 L 7.673 4.443 Q 6.179 4.443 6.179 5.317 Q 6.179 5.7 6.434 5.915 A 0.893 0.893 0 0 0 6.847 6.108 A 1.259 1.259 0 0 0 7.088 6.13 A 1.429 1.429 0 0 0 7.813 5.933 A 1.335 1.335 0 0 0 8.109 5.705 A 1.108 1.108 0 0 0 8.31 5.418 Z M 16.075 5.418 L 16.075 4.443 L 15.438 4.443 Q 13.944 4.443 13.944 5.317 Q 13.944 5.7 14.199 5.915 A 0.893 0.893 0 0 0 14.612 6.108 A 1.259 1.259 0 0 0 14.854 6.13 A 1.429 1.429 0 0 0 15.579 5.933 A 1.335 1.335 0 0 0 15.874 5.705 A 1.108 1.108 0 0 0 16.075 5.418 Z M 23.164 3.938 L 25.545 3.938 L 25.545 3.876 Q 25.519 3.417 25.349 3.111 A 1.13 1.13 0 0 0 25.211 2.916 A 0.983 0.983 0 0 0 24.557 2.584 A 1.39 1.39 0 0 0 24.403 2.575 A 1.106 1.106 0 0 0 23.88 2.698 A 1.14 1.14 0 0 0 23.577 2.933 A 1.417 1.417 0 0 0 23.3 3.379 Q 23.226 3.563 23.186 3.785 A 2.741 2.741 0 0 0 23.164 3.938 Z M 50.7 3.938 L 53.082 3.938 L 53.082 3.876 Q 53.056 3.417 52.885 3.111 A 1.13 1.13 0 0 0 52.748 2.916 A 0.983 0.983 0 0 0 52.093 2.584 A 1.39 1.39 0 0 0 51.939 2.575 A 1.106 1.106 0 0 0 51.416 2.698 A 1.14 1.14 0 0 0 51.113 2.933 A 1.417 1.417 0 0 0 50.836 3.379 Q 50.763 3.563 50.723 3.785 A 2.741 2.741 0 0 0 50.7 3.938 Z" vector-effect="non-scaling-stroke"/></g>
</svg>