<?xml version="1.0" encoding="UTF-8"?>
<svg width="48px" height="48px" viewBox="0 0 48 48" version="1.1" xmlns="http://www.w3.org/2000/svg" xmlns:xlink="http://www.w3.org/1999/xlink">
    <title>Icon-Resource/Storage/Res_AWS-Backup_Recovery-Time-Objective_48_Dark</title>
    <g id="Icon-Resource/Storage/Res_AWS-Backup_Recovery-Time-Objective_48" stroke="none" stroke-width="1" fill="none" fill-rule="evenodd">
        <path transform="translate(0vw, 0vh), scale(.65)" d="M26.606,38.281 C29.163,38.281 31.593,37.474 33.636,35.947 C33.938,35.721 34.228,35.482 34.506,35.229 C34.646,35.102 34.782,34.972 34.914,34.84 C35.717,34.037 36.398,33.126 36.939,32.13 C37.031,31.963 37.116,31.796 37.197,31.626 C37.967,30.03 38.357,28.316 38.357,26.53 C38.357,21.024 34.614,16.316 29.255,15.081 L29.705,13.132 C35.976,14.577 40.357,20.087 40.357,26.53 C40.357,28.619 39.9,30.625 39,32.492 C38.905,32.691 38.802,32.891 38.696,33.087 C38.064,34.25 37.267,35.316 36.329,36.254 C36.174,36.408 36.015,36.561 35.851,36.709 C35.527,37.004 35.186,37.285 34.834,37.549 C32.443,39.336 29.597,40.281 26.606,40.281 C19.023,40.281 12.853,34.112 12.853,26.53 L14.855,26.468 L14.853,26.546 C14.853,33.01 20.126,38.281 26.606,38.281 L26.606,38.281 Z M26.056,25.182 C26.755,25.182 27.325,25.751 27.325,26.45 C27.325,27.149 26.755,27.718 26.056,27.718 C25.357,27.718 24.789,27.149 24.789,26.45 C24.789,25.751 25.357,25.182 26.056,25.182 L26.056,25.182 Z M22.789,26.45 C22.789,28.252 24.254,29.718 26.056,29.718 C27.859,29.718 29.325,28.252 29.325,26.45 C29.325,24.976 28.338,23.742 26.996,23.336 L26.939,13.994 L24.939,14.006 L24.996,23.374 C23.716,23.817 22.789,25.021 22.789,26.45 L22.789,26.45 Z M5,20 L16,20 L16,18 L5,18 L5,20 Z M2,24 L13,24 L13,22 L2,22 L2,24 Z M23,7.497 L23,4.654 C23,4.294 23.293,4 23.654,4 L28.345,4 C28.706,4 29,4.294 29,4.655 L29,7.337 C26.998,7.082 24.974,7.135 23,7.497 L23,7.497 Z M39.314,11.988 L41.015,10.288 L42.129,11.402 L43.543,9.988 L39.901,6.345 L38.487,7.76 L39.601,8.874 L37.735,10.74 C35.652,9.262 33.365,8.253 31,7.696 L31,4.655 C31,3.191 29.809,2 28.345,2 L23.654,2 C22.19,2 21,3.191 21,4.654 L21,7.965 C18.057,8.832 15.299,10.397 13,12.633 L13,11 L11,11 L11,15 C11,15.552 11.447,16 12,16 L16,16 L16,14 L14.457,14 C20.503,8.177 30.052,7.479 36.917,12.597 C44.61,18.331 46.204,29.256 40.469,36.949 C34.735,44.642 23.809,46.235 16.117,40.502 C11.704,37.213 9.152,32.166 9.114,26.655 L7.114,26.668 C7.156,32.812 10.002,38.438 14.921,42.105 C18.395,44.695 22.46,45.944 26.492,45.944 C32.416,45.944 38.268,43.248 42.073,38.144 C48.152,29.989 46.831,18.587 39.314,11.988 L39.314,11.988 Z" id="Fill-1" fill="#000000"></path>
    </g><g transform="translate(33vw, 80vh)" id="svgGroup" stroke-linecap="round" fill-rule="evenodd" font-size="9pt" stroke="#000" stroke-width="0.25mm" fill="#000" style="stroke:#000;stroke-width:0.25mm;fill:#000"><path d="M 23.12 0.088 L 24.13 4.469 L 24.253 5.313 L 24.434 4.553 L 25.699 0.088 L 26.411 0.088 L 27.646 4.553 L 27.822 5.326 L 27.958 4.465 L 28.951 0.088 L 29.799 0.088 L 28.248 6.486 L 27.479 6.486 L 26.161 1.824 L 26.06 1.336 L 25.958 1.824 L 24.592 6.486 L 23.823 6.486 L 22.276 0.088 L 23.12 0.088 Z M 34.98 1.938 L 34.132 1.938 A 1.466 1.466 0 0 0 34.083 1.546 A 1.066 1.066 0 0 0 33.763 1.026 A 1.211 1.211 0 0 0 33.294 0.77 Q 33.042 0.694 32.722 0.694 A 2.286 2.286 0 0 0 32.342 0.724 Q 32.14 0.758 31.977 0.831 A 1.101 1.101 0 0 0 31.748 0.969 A 0.892 0.892 0 0 0 31.403 1.624 A 1.267 1.267 0 0 0 31.399 1.732 A 0.806 0.806 0 0 0 31.667 2.337 A 1.134 1.134 0 0 0 31.731 2.393 A 1.562 1.562 0 0 0 31.969 2.549 Q 32.299 2.73 32.86 2.887 A 8.228 8.228 0 0 1 33.325 3.032 Q 33.56 3.113 33.754 3.2 A 3.297 3.297 0 0 1 34.108 3.382 A 2.342 2.342 0 0 1 34.447 3.626 Q 34.637 3.792 34.759 3.985 A 1.45 1.45 0 0 1 34.776 4.012 A 1.498 1.498 0 0 1 34.972 4.568 A 1.948 1.948 0 0 1 34.994 4.86 A 1.606 1.606 0 0 1 34.871 5.497 Q 34.726 5.838 34.408 6.09 A 1.886 1.886 0 0 1 34.387 6.106 Q 33.781 6.574 32.766 6.574 A 3.023 3.023 0 0 1 31.625 6.36 A 2.917 2.917 0 0 1 31.535 6.322 A 2.383 2.383 0 0 1 31.057 6.044 A 1.874 1.874 0 0 1 30.654 5.629 A 1.689 1.689 0 0 1 30.344 4.632 L 31.192 4.632 A 1.261 1.261 0 0 0 31.262 5.059 A 1.074 1.074 0 0 0 31.621 5.548 Q 32.005 5.85 32.622 5.881 A 2.87 2.87 0 0 0 32.766 5.884 A 2.628 2.628 0 0 0 33.153 5.858 Q 33.349 5.828 33.508 5.767 A 1.129 1.129 0 0 0 33.79 5.612 Q 34.146 5.339 34.146 4.869 A 1.074 1.074 0 0 0 34.103 4.559 A 0.816 0.816 0 0 0 33.816 4.142 Q 33.486 3.885 32.621 3.634 Q 31.535 3.322 31.041 2.868 Q 30.546 2.413 30.546 1.745 Q 30.546 0.989 31.151 0.494 A 2.121 2.121 0 0 1 32.041 0.071 A 3.087 3.087 0 0 1 32.722 0 A 2.913 2.913 0 0 1 33.382 0.072 A 2.372 2.372 0 0 1 33.897 0.255 A 2.051 2.051 0 0 1 34.428 0.626 A 1.834 1.834 0 0 1 34.697 0.958 A 1.798 1.798 0 0 1 34.98 1.938 Z M 3.74 6.486 L 2.351 3.898 L 0.848 3.898 L 0.848 6.486 L 0 6.486 L 0 0.088 L 2.118 0.088 A 3.809 3.809 0 0 1 2.76 0.138 Q 3.102 0.197 3.376 0.324 A 1.789 1.789 0 0 1 3.781 0.58 A 1.588 1.588 0 0 1 4.307 1.469 A 2.453 2.453 0 0 1 4.364 2.013 A 1.864 1.864 0 0 1 4.273 2.604 A 1.64 1.64 0 0 1 4.041 3.054 A 1.849 1.849 0 0 1 3.382 3.611 A 2.342 2.342 0 0 1 3.142 3.718 L 4.645 6.434 L 4.645 6.486 L 3.74 6.486 Z M 13.724 3.129 L 12.907 3.129 Q 12.907 2.795 12.623 2.553 Q 12.34 2.312 11.909 2.312 Q 11.465 2.312 11.215 2.505 A 0.653 0.653 0 0 0 11.04 2.704 Q 10.967 2.835 10.964 3 A 0.771 0.771 0 0 0 10.964 3.01 A 0.588 0.588 0 0 0 10.994 3.203 A 0.48 0.48 0 0 0 11.197 3.454 A 1.093 1.093 0 0 0 11.348 3.533 Q 11.512 3.605 11.767 3.673 A 6.581 6.581 0 0 0 12.039 3.74 A 6.318 6.318 0 0 1 12.446 3.845 Q 12.783 3.944 13.025 4.065 A 1.901 1.901 0 0 1 13.281 4.218 Q 13.418 4.315 13.516 4.429 A 1.06 1.06 0 0 1 13.586 4.52 A 1.024 1.024 0 0 1 13.748 4.927 A 1.388 1.388 0 0 1 13.768 5.168 Q 13.768 5.805 13.258 6.19 Q 12.776 6.554 12.022 6.573 A 3.337 3.337 0 0 1 11.936 6.574 A 2.746 2.746 0 0 1 11.401 6.525 A 2.124 2.124 0 0 1 10.925 6.372 A 1.771 1.771 0 0 1 10.491 6.094 A 1.54 1.54 0 0 1 10.237 5.807 Q 9.989 5.445 9.989 5.023 L 10.802 5.023 A 0.932 0.932 0 0 0 10.875 5.348 A 0.827 0.827 0 0 0 11.129 5.671 A 1.072 1.072 0 0 0 11.531 5.864 Q 11.686 5.903 11.867 5.91 A 2.013 2.013 0 0 0 11.936 5.911 A 1.863 1.863 0 0 0 12.231 5.889 Q 12.393 5.863 12.524 5.806 A 0.941 0.941 0 0 0 12.676 5.724 A 0.689 0.689 0 0 0 12.841 5.574 A 0.554 0.554 0 0 0 12.955 5.225 A 0.698 0.698 0 0 0 12.919 4.994 A 0.581 0.581 0 0 0 12.707 4.713 A 1.05 1.05 0 0 0 12.538 4.615 Q 12.349 4.524 12.054 4.449 A 5.392 5.392 0 0 0 11.841 4.399 A 6.342 6.342 0 0 1 11.48 4.311 Q 11.11 4.209 10.861 4.083 Q 10.562 3.93 10.392 3.731 A 1.017 1.017 0 0 1 10.325 3.643 Q 10.151 3.388 10.151 3.037 A 1.206 1.206 0 0 1 10.55 2.132 A 1.694 1.694 0 0 1 10.646 2.048 A 1.752 1.752 0 0 1 11.429 1.688 A 2.471 2.471 0 0 1 11.909 1.644 A 2.559 2.559 0 0 1 12.473 1.702 A 1.757 1.757 0 0 1 13.221 2.061 Q 13.724 2.479 13.724 3.129 Z M 21.327 6.486 L 20.716 4.816 L 18.035 4.816 L 17.433 6.486 L 16.563 6.486 L 19.006 0.088 L 19.745 0.088 L 22.192 6.486 L 21.327 6.486 Z M 5.212 4.241 L 5.212 4.091 A 3.17 3.17 0 0 1 5.288 3.382 A 2.581 2.581 0 0 1 5.482 2.828 A 2.191 2.191 0 0 1 5.93 2.202 A 2.033 2.033 0 0 1 6.238 1.958 Q 6.724 1.644 7.291 1.644 A 2.254 2.254 0 0 1 7.904 1.723 A 1.639 1.639 0 0 1 8.732 2.254 Q 9.246 2.865 9.246 4.003 L 9.246 4.342 L 6.025 4.342 A 2.111 2.111 0 0 0 6.096 4.85 A 1.516 1.516 0 0 0 6.436 5.478 A 1.282 1.282 0 0 0 7.37 5.909 A 1.652 1.652 0 0 0 7.436 5.911 A 1.763 1.763 0 0 0 7.764 5.882 Q 7.988 5.839 8.165 5.735 A 1.827 1.827 0 0 0 8.674 5.287 A 2.068 2.068 0 0 0 8.688 5.269 L 9.185 5.656 A 1.926 1.926 0 0 1 7.785 6.547 A 2.749 2.749 0 0 1 7.392 6.574 A 2.394 2.394 0 0 1 6.64 6.461 A 1.974 1.974 0 0 1 5.818 5.939 Q 5.212 5.304 5.212 4.241 Z M 0.848 0.782 L 0.848 3.208 L 2.145 3.208 Q 2.685 3.208 3.035 2.968 A 1.174 1.174 0 0 0 3.144 2.883 A 1.069 1.069 0 0 0 3.51 2.146 A 1.486 1.486 0 0 0 3.516 2.013 Q 3.516 1.47 3.22 1.159 A 1 1 0 0 0 3.162 1.103 Q 2.808 0.787 2.14 0.782 L 0.848 0.782 Z M 19.375 1.129 L 18.29 4.122 L 20.465 4.122 L 19.375 1.129 Z M 6.051 3.674 L 8.433 3.674 L 8.433 3.612 Q 8.407 3.153 8.236 2.848 A 1.13 1.13 0 0 0 8.099 2.652 A 0.983 0.983 0 0 0 7.445 2.32 A 1.39 1.39 0 0 0 7.291 2.312 A 1.106 1.106 0 0 0 6.768 2.435 A 1.14 1.14 0 0 0 6.464 2.67 A 1.417 1.417 0 0 0 6.188 3.116 Q 6.114 3.3 6.074 3.522 A 2.741 2.741 0 0 0 6.051 3.674 Z" vector-effect="non-scaling-stroke"/></g><g transform="translate(12vw, 90vh)" id="svgGroup" stroke-linecap="round" fill-rule="evenodd" font-size="9pt" stroke="#000" stroke-width="0.25mm" fill="#000" style="stroke:#000;stroke-width:0.25mm;fill:#000"><path d="M 78.025 1.995 L 78.794 1.995 L 78.816 2.522 Q 79.339 1.907 80.227 1.907 A 2.009 2.009 0 0 1 80.737 1.968 A 1.244 1.244 0 0 1 81.584 2.672 A 1.801 1.801 0 0 1 82.202 2.118 A 1.65 1.65 0 0 1 82.731 1.937 A 2.209 2.209 0 0 1 83.101 1.907 A 2.119 2.119 0 0 1 83.745 1.997 Q 84.671 2.292 84.691 3.564 L 84.691 6.75 L 83.878 6.75 L 83.878 3.612 A 1.781 1.781 0 0 0 83.858 3.332 Q 83.834 3.185 83.784 3.067 A 0.758 0.758 0 0 0 83.646 2.85 A 0.68 0.68 0 0 0 83.393 2.682 Q 83.181 2.597 82.864 2.597 A 1.245 1.245 0 0 0 82.498 2.648 A 1.008 1.008 0 0 0 82.112 2.867 A 1.042 1.042 0 0 0 81.798 3.404 A 1.41 1.41 0 0 0 81.765 3.595 L 81.765 6.75 L 80.947 6.75 L 80.947 3.634 A 1.532 1.532 0 0 0 80.899 3.23 Q 80.772 2.768 80.315 2.643 A 1.457 1.457 0 0 0 79.932 2.597 Q 79.159 2.597 78.858 3.234 A 1.459 1.459 0 0 0 78.838 3.278 L 78.838 6.75 L 78.025 6.75 L 78.025 1.995 Z M 18.066 6.75 L 16.409 4.548 L 15.899 5.08 L 15.899 6.75 L 15.086 6.75 L 15.086 0 L 15.899 0 L 15.899 4.083 L 16.334 3.56 L 17.815 1.995 L 18.804 1.995 L 16.954 3.981 L 19.02 6.75 L 18.066 6.75 Z M 161.363 6.75 L 159.706 4.548 L 159.196 5.08 L 159.196 6.75 L 158.383 6.75 L 158.383 0 L 159.196 0 L 159.196 4.083 L 159.631 3.56 L 161.112 1.995 L 162.101 1.995 L 160.251 3.981 L 162.316 6.75 L 161.363 6.75 Z M 35.745 6.75 L 34.356 4.162 L 32.854 4.162 L 32.854 6.75 L 32.005 6.75 L 32.005 0.352 L 34.124 0.352 A 3.809 3.809 0 0 1 34.765 0.402 Q 35.107 0.461 35.381 0.587 A 1.789 1.789 0 0 1 35.787 0.844 A 1.588 1.588 0 0 1 36.312 1.732 A 2.453 2.453 0 0 1 36.369 2.276 A 1.864 1.864 0 0 1 36.278 2.868 A 1.64 1.64 0 0 1 36.046 3.318 A 1.849 1.849 0 0 1 35.387 3.875 A 2.342 2.342 0 0 1 35.147 3.981 L 36.65 6.697 L 36.65 6.75 L 35.745 6.75 Z M 64.534 1.995 L 65.72 5.559 L 66.828 1.995 L 67.698 1.995 L 65.786 7.484 Q 65.342 8.67 64.375 8.67 L 64.222 8.657 L 63.918 8.6 L 63.918 7.941 L 64.138 7.958 Q 64.418 7.958 64.614 7.882 A 0.75 0.75 0 0 0 64.782 7.792 A 0.749 0.749 0 0 0 64.942 7.629 Q 65.06 7.47 65.15 7.215 A 2.575 2.575 0 0 0 65.162 7.181 L 65.342 6.697 L 63.646 1.995 L 64.534 1.995 Z M 22.597 6.75 L 22.579 6.28 A 1.526 1.526 0 0 1 21.753 6.775 Q 21.503 6.836 21.205 6.838 A 2.996 2.996 0 0 1 21.186 6.838 A 2.086 2.086 0 0 1 20.726 6.79 Q 20.295 6.693 20.028 6.396 A 1.41 1.41 0 0 1 19.745 5.899 Q 19.628 5.556 19.626 5.089 L 19.626 1.995 L 20.439 1.995 L 20.439 5.067 Q 20.439 6.037 21.147 6.137 A 1.229 1.229 0 0 0 21.318 6.148 A 1.927 1.927 0 0 0 21.769 6.099 Q 22.331 5.964 22.557 5.454 L 22.557 1.995 L 23.37 1.995 L 23.37 6.75 L 22.597 6.75 Z M 13.399 5.251 L 14.168 5.251 A 1.432 1.432 0 0 1 13.969 5.901 A 1.772 1.772 0 0 1 13.887 6.029 A 1.828 1.828 0 0 1 13.277 6.574 A 2.169 2.169 0 0 1 13.195 6.618 A 1.997 1.997 0 0 1 12.278 6.838 A 2.346 2.346 0 0 1 11.581 6.739 A 1.839 1.839 0 0 1 10.734 6.19 A 2.171 2.171 0 0 1 10.27 5.31 Q 10.16 4.909 10.16 4.417 L 10.16 4.28 A 3.24 3.24 0 0 1 10.224 3.624 A 2.57 2.57 0 0 1 10.415 3.045 A 2.008 2.008 0 0 1 10.855 2.431 A 1.892 1.892 0 0 1 11.147 2.206 A 1.943 1.943 0 0 1 11.903 1.934 A 2.529 2.529 0 0 1 12.274 1.907 A 2.196 2.196 0 0 1 12.922 1.999 A 1.786 1.786 0 0 1 13.603 2.386 A 1.693 1.693 0 0 1 14.162 3.535 A 2.239 2.239 0 0 1 14.168 3.63 L 13.399 3.63 Q 13.364 3.168 13.05 2.872 A 1.078 1.078 0 0 0 12.32 2.576 A 1.402 1.402 0 0 0 12.274 2.575 A 1.374 1.374 0 0 0 11.852 2.637 A 1.081 1.081 0 0 0 11.314 3.021 A 1.469 1.469 0 0 0 11.087 3.468 Q 11.021 3.674 10.993 3.923 A 3.514 3.514 0 0 0 10.973 4.311 L 10.973 4.465 Q 10.973 5.287 11.312 5.73 A 1.1 1.1 0 0 0 12.098 6.165 A 1.611 1.611 0 0 0 12.278 6.174 A 1.171 1.171 0 0 0 13.039 5.911 A 1.007 1.007 0 0 0 13.283 5.629 A 0.914 0.914 0 0 0 13.399 5.251 Z M 45.22 5.251 L 45.989 5.251 A 1.432 1.432 0 0 1 45.79 5.901 A 1.772 1.772 0 0 1 45.708 6.029 A 1.828 1.828 0 0 1 45.098 6.574 A 2.169 2.169 0 0 1 45.015 6.618 A 1.997 1.997 0 0 1 44.099 6.838 A 2.346 2.346 0 0 1 43.402 6.739 A 1.839 1.839 0 0 1 42.554 6.19 A 2.171 2.171 0 0 1 42.091 5.31 Q 41.981 4.909 41.981 4.417 L 41.981 4.28 A 3.24 3.24 0 0 1 42.045 3.624 A 2.57 2.57 0 0 1 42.236 3.045 A 2.008 2.008 0 0 1 42.675 2.431 A 1.892 1.892 0 0 1 42.968 2.206 A 1.943 1.943 0 0 1 43.724 1.934 A 2.529 2.529 0 0 1 44.095 1.907 A 2.196 2.196 0 0 1 44.743 1.999 A 1.786 1.786 0 0 1 45.424 2.386 A 1.693 1.693 0 0 1 45.982 3.535 A 2.239 2.239 0 0 1 45.989 3.63 L 45.22 3.63 Q 45.185 3.168 44.87 2.872 A 1.078 1.078 0 0 0 44.141 2.576 A 1.402 1.402 0 0 0 44.095 2.575 A 1.374 1.374 0 0 0 43.673 2.637 A 1.081 1.081 0 0 0 43.135 3.021 A 1.469 1.469 0 0 0 42.908 3.468 Q 42.842 3.674 42.814 3.923 A 3.514 3.514 0 0 0 42.794 4.311 L 42.794 4.465 Q 42.794 5.287 43.132 5.73 A 1.1 1.1 0 0 0 43.919 6.165 A 1.611 1.611 0 0 0 44.099 6.174 A 1.171 1.171 0 0 0 44.859 5.911 A 1.007 1.007 0 0 0 45.103 5.629 A 0.914 0.914 0 0 0 45.22 5.251 Z M 114.095 5.251 L 114.864 5.251 A 1.432 1.432 0 0 1 114.665 5.901 A 1.772 1.772 0 0 1 114.583 6.029 A 1.828 1.828 0 0 1 113.974 6.574 A 2.169 2.169 0 0 1 113.891 6.618 A 1.997 1.997 0 0 1 112.975 6.838 A 2.346 2.346 0 0 1 112.277 6.739 A 1.839 1.839 0 0 1 111.43 6.19 A 2.171 2.171 0 0 1 110.966 5.31 Q 110.856 4.909 110.856 4.417 L 110.856 4.28 A 3.24 3.24 0 0 1 110.92 3.624 A 2.57 2.57 0 0 1 111.111 3.045 A 2.008 2.008 0 0 1 111.551 2.431 A 1.892 1.892 0 0 1 111.843 2.206 A 1.943 1.943 0 0 1 112.599 1.934 A 2.529 2.529 0 0 1 112.97 1.907 A 2.196 2.196 0 0 1 113.618 1.999 A 1.786 1.786 0 0 1 114.3 2.386 A 1.693 1.693 0 0 1 114.858 3.535 A 2.239 2.239 0 0 1 114.864 3.63 L 114.095 3.63 Q 114.06 3.168 113.746 2.872 A 1.078 1.078 0 0 0 113.017 2.576 A 1.402 1.402 0 0 0 112.97 2.575 A 1.374 1.374 0 0 0 112.549 2.637 A 1.081 1.081 0 0 0 112.01 3.021 A 1.469 1.469 0 0 0 111.783 3.468 Q 111.717 3.674 111.69 3.923 A 3.514 3.514 0 0 0 111.669 4.311 L 111.669 4.465 Q 111.669 5.287 112.008 5.73 A 1.1 1.1 0 0 0 112.794 6.165 A 1.611 1.611 0 0 0 112.975 6.174 A 1.171 1.171 0 0 0 113.735 5.911 A 1.007 1.007 0 0 0 113.979 5.629 A 0.914 0.914 0 0 0 114.095 5.251 Z M 75.023 0.352 L 75.023 1.046 L 72.967 1.046 L 72.967 6.75 L 72.127 6.75 L 72.127 1.046 L 70.075 1.046 L 70.075 0.352 L 75.023 0.352 Z M 9.264 6.75 L 8.411 6.75 A 0.632 0.632 0 0 1 8.376 6.66 Q 8.344 6.562 8.32 6.41 A 3.997 3.997 0 0 1 8.297 6.249 Q 7.73 6.838 6.943 6.838 A 2.033 2.033 0 0 1 6.414 6.772 A 1.529 1.529 0 0 1 5.79 6.44 Q 5.339 6.042 5.339 5.432 Q 5.339 4.689 5.904 4.278 Q 6.469 3.867 7.493 3.867 L 8.284 3.867 L 8.284 3.494 A 1.152 1.152 0 0 0 8.248 3.199 A 0.828 0.828 0 0 0 8.029 2.815 Q 7.813 2.6 7.422 2.568 A 1.748 1.748 0 0 0 7.277 2.562 Q 6.842 2.562 6.548 2.782 Q 6.253 3.001 6.253 3.313 L 5.436 3.313 A 1.041 1.041 0 0 1 5.561 2.825 A 1.409 1.409 0 0 1 5.689 2.626 Q 5.941 2.294 6.374 2.101 A 2.249 2.249 0 0 1 7.15 1.913 A 2.669 2.669 0 0 1 7.326 1.907 A 2.65 2.65 0 0 1 7.843 1.955 Q 8.15 2.016 8.389 2.156 A 1.439 1.439 0 0 1 8.613 2.318 A 1.396 1.396 0 0 1 9.067 3.144 A 1.998 1.998 0 0 1 9.097 3.45 L 9.097 5.638 Q 9.097 6.073 9.17 6.39 A 1.707 1.707 0 0 0 9.264 6.68 L 9.264 6.75 Z M 154.226 6.75 L 153.374 6.75 A 0.632 0.632 0 0 1 153.338 6.66 Q 153.307 6.562 153.282 6.41 A 3.997 3.997 0 0 1 153.259 6.249 Q 152.692 6.838 151.906 6.838 A 2.033 2.033 0 0 1 151.376 6.772 A 1.529 1.529 0 0 1 150.752 6.44 Q 150.302 6.042 150.302 5.432 Q 150.302 4.689 150.866 4.278 Q 151.431 3.867 152.455 3.867 L 153.246 3.867 L 153.246 3.494 A 1.152 1.152 0 0 0 153.21 3.199 A 0.828 0.828 0 0 0 152.991 2.815 Q 152.775 2.6 152.385 2.568 A 1.748 1.748 0 0 0 152.24 2.562 Q 151.805 2.562 151.51 2.782 Q 151.216 3.001 151.216 3.313 L 150.398 3.313 A 1.041 1.041 0 0 1 150.523 2.825 A 1.409 1.409 0 0 1 150.651 2.626 Q 150.904 2.294 151.337 2.101 A 2.249 2.249 0 0 1 152.112 1.913 A 2.669 2.669 0 0 1 152.288 1.907 A 2.65 2.65 0 0 1 152.806 1.955 Q 153.113 2.016 153.352 2.156 A 1.439 1.439 0 0 1 153.576 2.318 A 1.396 1.396 0 0 1 154.029 3.144 A 1.998 1.998 0 0 1 154.059 3.45 L 154.059 5.638 Q 154.059 6.073 154.133 6.39 A 1.707 1.707 0 0 0 154.226 6.68 L 154.226 6.75 Z M 103.126 4.355 L 103.126 4.425 Q 103.126 5.308 102.798 5.909 A 2.141 2.141 0 0 1 102.625 6.177 A 1.647 1.647 0 0 1 102.039 6.673 Q 101.724 6.828 101.333 6.837 A 2.112 2.112 0 0 1 101.281 6.838 A 2.039 2.039 0 0 1 100.686 6.756 A 1.561 1.561 0 0 1 99.888 6.201 L 99.848 6.75 L 99.101 6.75 L 99.101 0 L 99.914 0 L 99.914 2.518 A 1.605 1.605 0 0 1 101.081 1.915 A 2.285 2.285 0 0 1 101.272 1.907 A 1.835 1.835 0 0 1 101.903 2.011 A 1.579 1.579 0 0 1 102.632 2.562 Q 103.046 3.11 103.113 3.998 A 4.727 4.727 0 0 1 103.126 4.355 Z M 28.622 4.351 L 28.622 4.425 Q 28.622 5.511 28.125 6.174 A 1.57 1.57 0 0 1 26.987 6.828 A 2.013 2.013 0 0 1 26.78 6.838 A 2.196 2.196 0 0 1 26.194 6.764 A 1.598 1.598 0 0 1 25.418 6.289 L 25.418 8.578 L 24.605 8.578 L 24.605 1.995 L 25.348 1.995 L 25.387 2.522 A 1.619 1.619 0 0 1 26.526 1.919 A 2.319 2.319 0 0 1 26.767 1.907 A 1.829 1.829 0 0 1 27.404 2.014 A 1.597 1.597 0 0 1 28.123 2.553 Q 28.622 3.199 28.622 4.351 Z M 37.217 4.504 L 37.217 4.355 A 3.17 3.17 0 0 1 37.294 3.646 A 2.581 2.581 0 0 1 37.488 3.092 A 2.191 2.191 0 0 1 37.935 2.466 A 2.033 2.033 0 0 1 38.243 2.221 Q 38.729 1.907 39.296 1.907 A 2.254 2.254 0 0 1 39.909 1.986 A 1.639 1.639 0 0 1 40.737 2.518 Q 41.251 3.129 41.251 4.267 L 41.251 4.605 L 38.03 4.605 A 2.111 2.111 0 0 0 38.101 5.114 A 1.516 1.516 0 0 0 38.441 5.741 A 1.282 1.282 0 0 0 39.375 6.173 A 1.652 1.652 0 0 0 39.441 6.174 A 1.763 1.763 0 0 0 39.769 6.145 Q 39.993 6.103 40.17 5.999 A 1.827 1.827 0 0 0 40.679 5.551 A 2.068 2.068 0 0 0 40.693 5.533 L 41.19 5.919 A 1.926 1.926 0 0 1 39.79 6.811 A 2.749 2.749 0 0 1 39.397 6.838 A 2.394 2.394 0 0 1 38.646 6.725 A 1.974 1.974 0 0 1 37.824 6.203 Q 37.217 5.568 37.217 4.504 Z M 56.065 4.504 L 56.065 4.355 A 3.17 3.17 0 0 1 56.142 3.646 A 2.581 2.581 0 0 1 56.336 3.092 A 2.191 2.191 0 0 1 56.783 2.466 A 2.033 2.033 0 0 1 57.092 2.221 Q 57.577 1.907 58.144 1.907 A 2.254 2.254 0 0 1 58.757 1.986 A 1.639 1.639 0 0 1 59.585 2.518 Q 60.1 3.129 60.1 4.267 L 60.1 4.605 L 56.878 4.605 A 2.111 2.111 0 0 0 56.949 5.114 A 1.516 1.516 0 0 0 57.289 5.741 A 1.282 1.282 0 0 0 58.223 6.173 A 1.652 1.652 0 0 0 58.289 6.174 A 1.763 1.763 0 0 0 58.617 6.145 Q 58.841 6.103 59.019 5.999 A 1.827 1.827 0 0 0 59.527 5.551 A 2.068 2.068 0 0 0 59.542 5.533 L 60.038 5.919 A 1.926 1.926 0 0 1 58.638 6.811 A 2.749 2.749 0 0 1 58.245 6.838 A 2.394 2.394 0 0 1 57.494 6.725 A 1.974 1.974 0 0 1 56.672 6.203 Q 56.065 5.568 56.065 4.504 Z M 85.711 4.504 L 85.711 4.355 A 3.17 3.17 0 0 1 85.787 3.646 A 2.581 2.581 0 0 1 85.981 3.092 A 2.191 2.191 0 0 1 86.429 2.466 A 2.033 2.033 0 0 1 86.737 2.221 Q 87.223 1.907 87.79 1.907 A 2.254 2.254 0 0 1 88.403 1.986 A 1.639 1.639 0 0 1 89.231 2.518 Q 89.745 3.129 89.745 4.267 L 89.745 4.605 L 86.524 4.605 A 2.111 2.111 0 0 0 86.595 5.114 A 1.516 1.516 0 0 0 86.935 5.741 A 1.282 1.282 0 0 0 87.869 6.173 A 1.652 1.652 0 0 0 87.935 6.174 A 1.763 1.763 0 0 0 88.263 6.145 Q 88.487 6.103 88.664 5.999 A 1.827 1.827 0 0 0 89.173 5.551 A 2.068 2.068 0 0 0 89.187 5.533 L 89.684 5.919 A 1.926 1.926 0 0 1 88.284 6.811 A 2.749 2.749 0 0 1 87.891 6.838 A 2.394 2.394 0 0 1 87.139 6.725 A 1.974 1.974 0 0 1 86.317 6.203 Q 85.711 5.568 85.711 4.504 Z M 106.093 4.504 L 106.093 4.355 A 3.17 3.17 0 0 1 106.169 3.646 A 2.581 2.581 0 0 1 106.363 3.092 A 2.191 2.191 0 0 1 106.81 2.466 A 2.033 2.033 0 0 1 107.119 2.221 Q 107.604 1.907 108.171 1.907 A 2.254 2.254 0 0 1 108.784 1.986 A 1.639 1.639 0 0 1 109.613 2.518 Q 110.127 3.129 110.127 4.267 L 110.127 4.605 L 106.906 4.605 A 2.111 2.111 0 0 0 106.977 5.114 A 1.516 1.516 0 0 0 107.317 5.741 A 1.282 1.282 0 0 0 108.251 6.173 A 1.652 1.652 0 0 0 108.316 6.174 A 1.763 1.763 0 0 0 108.645 6.145 Q 108.868 6.103 109.046 5.999 A 1.827 1.827 0 0 0 109.555 5.551 A 2.068 2.068 0 0 0 109.569 5.533 L 110.065 5.919 A 1.926 1.926 0 0 1 108.666 6.811 A 2.749 2.749 0 0 1 108.272 6.838 A 2.394 2.394 0 0 1 107.521 6.725 A 1.974 1.974 0 0 1 106.699 6.203 Q 106.093 5.568 106.093 4.504 Z M 124.998 4.504 L 124.998 4.355 A 3.17 3.17 0 0 1 125.074 3.646 A 2.581 2.581 0 0 1 125.268 3.092 A 2.191 2.191 0 0 1 125.716 2.466 A 2.033 2.033 0 0 1 126.024 2.221 Q 126.51 1.907 127.077 1.907 A 2.254 2.254 0 0 1 127.69 1.986 A 1.639 1.639 0 0 1 128.518 2.518 Q 129.032 3.129 129.032 4.267 L 129.032 4.605 L 125.811 4.605 A 2.111 2.111 0 0 0 125.882 5.114 A 1.516 1.516 0 0 0 126.222 5.741 A 1.282 1.282 0 0 0 127.156 6.173 A 1.652 1.652 0 0 0 127.222 6.174 A 1.763 1.763 0 0 0 127.55 6.145 Q 127.774 6.103 127.951 5.999 A 1.827 1.827 0 0 0 128.46 5.551 A 2.068 2.068 0 0 0 128.474 5.533 L 128.971 5.919 A 1.926 1.926 0 0 1 127.571 6.811 A 2.749 2.749 0 0 1 127.178 6.838 A 2.394 2.394 0 0 1 126.427 6.725 A 1.974 1.974 0 0 1 125.604 6.203 Q 124.998 5.568 124.998 4.504 Z M 2.219 6.75 L 0 6.75 L 0 0.352 L 2.092 0.352 A 4.031 4.031 0 0 1 2.665 0.39 Q 2.957 0.432 3.194 0.521 A 1.629 1.629 0 0 1 3.658 0.782 A 1.383 1.383 0 0 1 4.13 1.558 A 2.164 2.164 0 0 1 4.184 2.057 A 1.3 1.3 0 0 1 3.929 2.85 A 1.589 1.589 0 0 1 3.418 3.294 A 1.972 1.972 0 0 1 3.234 3.384 A 1.571 1.571 0 0 1 3.749 3.63 A 1.446 1.446 0 0 1 4.054 3.935 A 1.531 1.531 0 0 1 4.346 4.713 A 1.961 1.961 0 0 1 4.355 4.904 A 2.139 2.139 0 0 1 4.28 5.487 A 1.577 1.577 0 0 1 3.797 6.258 A 1.832 1.832 0 0 1 3.105 6.633 Q 2.838 6.713 2.52 6.739 A 3.81 3.81 0 0 1 2.219 6.75 Z M 52.33 1.995 L 53.539 5.647 L 54.716 1.995 L 55.547 1.995 L 53.842 6.75 L 53.222 6.75 L 51.5 1.995 L 52.33 1.995 Z M 121.263 1.995 L 122.471 5.647 L 123.649 1.995 L 124.479 1.995 L 122.774 6.75 L 122.155 6.75 L 120.432 1.995 L 121.263 1.995 Z M 135.549 0.352 L 135.549 4.601 L 136.437 4.601 L 136.437 5.265 L 135.549 5.265 L 135.549 6.75 L 134.732 6.75 L 134.732 5.265 L 131.818 5.265 L 131.818 4.786 L 134.684 0.352 L 135.549 0.352 Z M 146.435 6.75 L 144.664 6.75 L 144.664 0.352 L 146.47 0.352 Q 147.305 0.352 147.946 0.721 Q 148.588 1.09 148.937 1.771 A 3.19 3.19 0 0 1 149.254 2.8 A 4.073 4.073 0 0 1 149.291 3.335 L 149.291 3.744 Q 149.291 4.649 148.942 5.331 A 2.457 2.457 0 0 1 147.944 6.376 Q 147.296 6.741 146.435 6.75 Z M 140.948 2.592 A 1.544 1.544 0 0 0 141.051 2.021 A 2.226 2.226 0 0 0 141.03 1.707 A 1.566 1.566 0 0 0 140.531 0.738 A 1.754 1.754 0 0 0 139.765 0.333 A 2.443 2.443 0 0 0 139.166 0.264 A 2.539 2.539 0 0 0 138.656 0.312 A 1.767 1.767 0 0 0 137.799 0.738 Q 137.281 1.213 137.281 2.021 A 1.808 1.808 0 0 0 137.281 2.058 A 1.499 1.499 0 0 0 137.527 2.87 A 1.626 1.626 0 0 0 137.689 3.077 A 1.726 1.726 0 0 0 138.199 3.454 A 2.119 2.119 0 0 0 138.1 3.5 A 1.738 1.738 0 0 0 137.415 4.087 A 1.629 1.629 0 0 0 137.131 5.023 A 2.272 2.272 0 0 0 137.141 5.237 A 1.63 1.63 0 0 0 137.687 6.344 A 1.895 1.895 0 0 0 138.538 6.771 A 2.797 2.797 0 0 0 139.166 6.838 A 2.796 2.796 0 0 0 139.765 6.777 A 1.925 1.925 0 0 0 140.64 6.346 A 1.578 1.578 0 0 0 141.115 5.62 A 1.989 1.989 0 0 0 141.201 5.023 A 1.581 1.581 0 0 0 140.908 4.087 Q 140.616 3.674 140.115 3.458 Q 140.546 3.248 140.799 2.874 A 1.449 1.449 0 0 0 140.948 2.592 Z M 97.963 3.353 L 97.963 3.757 A 4.729 4.729 0 0 1 97.898 4.56 A 3.455 3.455 0 0 1 97.646 5.399 A 2.648 2.648 0 0 1 97.25 6.033 A 2.226 2.226 0 0 1 96.75 6.469 A 2.362 2.362 0 0 1 95.731 6.82 A 2.993 2.993 0 0 1 95.396 6.838 A 2.618 2.618 0 0 1 94.59 6.717 A 2.313 2.313 0 0 1 94.056 6.467 A 2.392 2.392 0 0 1 93.256 5.615 A 2.953 2.953 0 0 1 93.149 5.407 A 3.426 3.426 0 0 1 92.872 4.489 A 4.535 4.535 0 0 1 92.817 3.814 L 92.817 3.353 A 4.52 4.52 0 0 1 92.892 2.51 A 3.461 3.461 0 0 1 93.138 1.723 Q 93.458 1.015 94.045 0.639 A 2.389 2.389 0 0 1 95.201 0.27 A 2.92 2.92 0 0 1 95.388 0.264 A 2.702 2.702 0 0 1 96.164 0.372 A 2.318 2.318 0 0 1 96.743 0.635 A 2.31 2.31 0 0 1 97.517 1.456 A 2.912 2.912 0 0 1 97.646 1.712 A 3.525 3.525 0 0 1 97.907 2.604 A 4.763 4.763 0 0 1 97.963 3.353 Z M 116.068 0.844 L 116.881 0.844 L 116.881 1.995 L 117.769 1.995 L 117.769 2.624 L 116.881 2.624 L 116.881 5.572 Q 116.881 5.858 117 6.001 Q 117.119 6.144 117.404 6.144 A 1.046 1.046 0 0 0 117.502 6.138 Q 117.605 6.129 117.744 6.101 A 4.024 4.024 0 0 0 117.791 6.091 L 117.791 6.75 A 2.463 2.463 0 0 1 117.358 6.829 A 2.157 2.157 0 0 1 117.167 6.838 Q 116.72 6.838 116.453 6.616 A 0.856 0.856 0 0 1 116.345 6.508 Q 116.118 6.238 116.077 5.78 A 2.351 2.351 0 0 1 116.068 5.572 L 116.068 2.624 L 115.203 2.624 L 115.203 1.995 L 116.068 1.995 L 116.068 0.844 Z M 104.177 1.995 L 104.99 1.995 L 104.99 7.299 A 2.203 2.203 0 0 1 104.934 7.817 Q 104.766 8.51 104.088 8.64 A 1.813 1.813 0 0 1 103.746 8.67 A 1.594 1.594 0 0 1 103.412 8.636 A 1.376 1.376 0 0 1 103.25 8.591 L 103.25 7.941 A 0.989 0.989 0 0 0 103.357 7.961 Q 103.413 7.969 103.478 7.972 A 2.444 2.444 0 0 0 103.619 7.976 A 0.807 0.807 0 0 0 103.78 7.961 Q 103.877 7.941 103.951 7.896 A 0.429 0.429 0 0 0 104.034 7.829 A 0.412 0.412 0 0 0 104.118 7.695 Q 104.169 7.57 104.176 7.379 A 1.721 1.721 0 0 0 104.177 7.317 L 104.177 1.995 Z M 46.688 4.386 L 46.688 4.329 A 3.057 3.057 0 0 1 46.774 3.587 A 2.573 2.573 0 0 1 46.962 3.072 A 2.16 2.16 0 0 1 47.377 2.486 A 1.957 1.957 0 0 1 47.727 2.21 A 2.036 2.036 0 0 1 48.671 1.913 A 2.491 2.491 0 0 1 48.845 1.907 A 2.277 2.277 0 0 1 49.599 2.027 A 1.937 1.937 0 0 1 50.416 2.58 A 2.29 2.29 0 0 1 50.935 3.608 A 3.373 3.373 0 0 1 51.016 4.368 L 51.016 4.425 A 3.114 3.114 0 0 1 50.937 5.142 A 2.577 2.577 0 0 1 50.75 5.671 A 2.056 2.056 0 0 1 50.223 6.361 A 2.001 2.001 0 0 1 49.99 6.53 A 2.045 2.045 0 0 1 49.07 6.829 A 2.529 2.529 0 0 1 48.854 6.838 A 2.262 2.262 0 0 1 48.104 6.718 A 1.938 1.938 0 0 1 47.287 6.166 A 2.297 2.297 0 0 1 46.762 5.111 A 3.357 3.357 0 0 1 46.687 4.386 Z M 63.338 1.969 L 63.338 2.725 A 2.251 2.251 0 0 0 63.096 2.698 A 2.782 2.782 0 0 0 62.938 2.694 Q 62.161 2.694 61.869 3.338 A 1.445 1.445 0 0 0 61.853 3.375 L 61.853 6.75 L 61.04 6.75 L 61.04 1.995 L 61.831 1.995 L 61.844 2.544 Q 62.225 1.938 62.907 1.909 A 1.636 1.636 0 0 1 62.978 1.907 Q 63.215 1.907 63.338 1.969 Z M 157.632 1.969 L 157.632 2.725 A 2.251 2.251 0 0 0 157.389 2.698 A 2.782 2.782 0 0 0 157.232 2.694 Q 156.454 2.694 156.163 3.338 A 1.445 1.445 0 0 0 156.146 3.375 L 156.146 6.75 L 155.333 6.75 L 155.333 1.995 L 156.125 1.995 L 156.138 2.544 Q 156.518 1.938 157.201 1.909 A 1.636 1.636 0 0 1 157.271 1.907 Q 157.509 1.907 157.632 1.969 Z M 146.492 1.046 L 145.507 1.046 L 145.507 6.06 L 146.395 6.06 A 2.519 2.519 0 0 0 147.027 5.985 A 1.747 1.747 0 0 0 147.913 5.454 Q 148.373 4.94 148.443 4.059 A 4.165 4.165 0 0 0 148.456 3.727 L 148.456 3.353 Q 148.456 2.562 148.186 2.027 A 1.864 1.864 0 0 0 147.944 1.659 A 1.687 1.687 0 0 0 146.948 1.09 A 2.499 2.499 0 0 0 146.492 1.046 Z M 97.124 3.819 L 97.124 3.344 A 4.551 4.551 0 0 0 97.079 2.685 Q 97.03 2.35 96.927 2.078 A 1.944 1.944 0 0 0 96.667 1.597 Q 96.209 0.989 95.388 0.989 Q 94.588 0.989 94.129 1.597 A 2.112 2.112 0 0 0 93.804 2.246 Q 93.716 2.527 93.68 2.864 A 4.531 4.531 0 0 0 93.656 3.287 L 93.656 3.757 A 4.254 4.254 0 0 0 93.706 4.43 Q 93.764 4.789 93.887 5.079 A 2.039 2.039 0 0 0 94.12 5.491 A 1.472 1.472 0 0 0 95.187 6.11 A 1.931 1.931 0 0 0 95.396 6.122 A 1.79 1.79 0 0 0 95.955 6.039 A 1.423 1.423 0 0 0 96.662 5.526 A 2.017 2.017 0 0 0 96.963 4.932 Q 97.116 4.462 97.124 3.819 Z M 76.729 1.995 L 76.729 6.75 L 75.916 6.75 L 75.916 1.995 L 76.729 1.995 Z M 119.602 1.995 L 119.602 6.75 L 118.789 6.75 L 118.789 1.995 L 119.602 1.995 Z M 47.505 4.425 A 2.772 2.772 0 0 0 47.552 4.954 Q 47.613 5.264 47.75 5.51 A 1.545 1.545 0 0 0 47.872 5.695 Q 48.239 6.174 48.854 6.174 A 1.269 1.269 0 0 0 49.343 6.083 Q 49.623 5.967 49.825 5.706 A 1.471 1.471 0 0 0 49.838 5.689 A 1.648 1.648 0 0 0 50.093 5.171 Q 50.162 4.945 50.188 4.672 A 3.655 3.655 0 0 0 50.203 4.329 A 2.687 2.687 0 0 0 50.152 3.789 Q 50.084 3.459 49.927 3.2 A 1.586 1.586 0 0 0 49.832 3.061 A 1.231 1.231 0 0 0 49.417 2.705 Q 49.164 2.575 48.845 2.575 Q 48.255 2.575 47.889 3.035 A 1.515 1.515 0 0 0 47.874 3.054 A 1.589 1.589 0 0 0 47.622 3.552 Q 47.552 3.772 47.524 4.039 A 3.676 3.676 0 0 0 47.505 4.425 Z M 25.418 3.252 L 25.418 5.524 Q 25.783 6.174 26.534 6.174 A 1.184 1.184 0 0 0 27 6.086 Q 27.257 5.977 27.445 5.735 A 1.403 1.403 0 0 0 27.464 5.711 A 1.501 1.501 0 0 0 27.68 5.28 Q 27.749 5.073 27.78 4.818 A 3.91 3.91 0 0 0 27.809 4.333 Q 27.809 3.746 27.626 3.339 A 1.503 1.503 0 0 0 27.466 3.063 A 1.086 1.086 0 0 0 26.68 2.605 A 1.414 1.414 0 0 0 26.525 2.597 Q 25.865 2.597 25.5 3.121 A 1.623 1.623 0 0 0 25.418 3.252 Z M 99.914 3.344 L 99.914 5.401 A 1.528 1.528 0 0 0 100.2 5.807 Q 100.523 6.127 101.013 6.147 A 1.621 1.621 0 0 0 101.079 6.148 A 1.206 1.206 0 0 0 101.496 6.079 A 1.04 1.04 0 0 0 101.988 5.695 Q 102.313 5.243 102.313 4.333 Q 102.313 3.502 101.993 3.05 A 1.03 1.03 0 0 0 101.242 2.607 A 1.449 1.449 0 0 0 101.07 2.597 A 1.34 1.34 0 0 0 100.56 2.69 Q 100.142 2.86 99.914 3.344 Z M 32.854 1.046 L 32.854 3.472 L 34.15 3.472 Q 34.69 3.472 35.04 3.231 A 1.174 1.174 0 0 0 35.15 3.146 A 1.069 1.069 0 0 0 35.515 2.409 A 1.486 1.486 0 0 0 35.521 2.276 Q 35.521 1.734 35.225 1.423 A 1 1 0 0 0 35.167 1.367 Q 34.813 1.05 34.146 1.046 L 32.854 1.046 Z M 2.25 3.757 L 0.844 3.757 L 0.844 6.06 L 2.237 6.06 A 1.84 1.84 0 0 0 2.612 6.024 Q 2.852 5.974 3.036 5.854 A 1.064 1.064 0 0 0 3.166 5.755 A 1.003 1.003 0 0 0 3.488 5.154 A 1.459 1.459 0 0 0 3.507 4.913 Q 3.507 4.007 2.734 3.811 A 1.977 1.977 0 0 0 2.251 3.757 Z M 134.635 1.639 L 132.741 4.601 L 134.732 4.601 L 134.732 1.463 L 134.635 1.639 Z M 0.844 1.046 L 0.844 3.081 L 2.118 3.081 Q 2.672 3.081 3.004 2.804 A 0.905 0.905 0 0 0 3.331 2.154 A 1.27 1.27 0 0 0 3.335 2.052 Q 3.335 1.696 3.195 1.471 A 0.71 0.71 0 0 0 3.028 1.285 A 0.969 0.969 0 0 0 2.742 1.136 Q 2.479 1.047 2.098 1.046 A 3.261 3.261 0 0 0 2.092 1.046 L 0.844 1.046 Z M 140.388 5.005 A 1.375 1.375 0 0 0 140.328 4.592 A 1.109 1.109 0 0 0 140.047 4.131 A 1.148 1.148 0 0 0 139.376 3.807 A 1.593 1.593 0 0 0 139.157 3.792 A 1.466 1.466 0 0 0 138.769 3.841 A 1.086 1.086 0 0 0 138.276 4.126 A 1.123 1.123 0 0 0 137.963 4.762 A 1.572 1.572 0 0 0 137.944 5.005 A 1.48 1.48 0 0 0 137.986 5.367 A 1.019 1.019 0 0 0 138.267 5.862 Q 138.573 6.158 139.106 6.173 A 2.053 2.053 0 0 0 139.166 6.174 Q 139.66 6.174 139.97 5.94 A 1.018 1.018 0 0 0 140.062 5.86 A 1.041 1.041 0 0 0 140.362 5.292 A 1.518 1.518 0 0 0 140.388 5.005 Z M 139.166 0.932 A 1.259 1.259 0 0 0 138.813 0.979 A 0.973 0.973 0 0 0 138.39 1.228 Q 138.094 1.525 138.094 2.035 A 1.325 1.325 0 0 0 138.138 2.387 A 0.994 0.994 0 0 0 138.386 2.823 A 0.974 0.974 0 0 0 138.948 3.108 A 1.382 1.382 0 0 0 139.166 3.125 A 1.279 1.279 0 0 0 139.511 3.08 A 0.952 0.952 0 0 0 139.946 2.823 A 1.018 1.018 0 0 0 140.221 2.26 A 1.426 1.426 0 0 0 140.238 2.035 A 1.282 1.282 0 0 0 140.188 1.668 A 1.013 1.013 0 0 0 139.935 1.239 Q 139.632 0.932 139.166 0.932 Z M 8.284 5.418 L 8.284 4.443 L 7.646 4.443 Q 6.152 4.443 6.152 5.317 Q 6.152 5.7 6.407 5.915 A 0.893 0.893 0 0 0 6.821 6.108 A 1.259 1.259 0 0 0 7.062 6.13 A 1.429 1.429 0 0 0 7.787 5.933 A 1.335 1.335 0 0 0 8.083 5.705 A 1.108 1.108 0 0 0 8.284 5.418 Z M 153.246 5.418 L 153.246 4.443 L 152.609 4.443 Q 151.115 4.443 151.115 5.317 Q 151.115 5.7 151.37 5.915 A 0.893 0.893 0 0 0 151.783 6.108 A 1.259 1.259 0 0 0 152.024 6.13 A 1.429 1.429 0 0 0 152.75 5.933 A 1.335 1.335 0 0 0 153.045 5.705 A 1.108 1.108 0 0 0 153.246 5.418 Z M 38.057 3.938 L 40.438 3.938 L 40.438 3.876 Q 40.412 3.417 40.242 3.111 A 1.13 1.13 0 0 0 40.104 2.916 A 0.983 0.983 0 0 0 39.45 2.584 A 1.39 1.39 0 0 0 39.296 2.575 A 1.106 1.106 0 0 0 38.773 2.698 A 1.14 1.14 0 0 0 38.47 2.933 A 1.417 1.417 0 0 0 38.193 3.379 Q 38.119 3.563 38.08 3.785 A 2.741 2.741 0 0 0 38.057 3.938 Z M 56.905 3.938 L 59.287 3.938 L 59.287 3.876 Q 59.261 3.417 59.09 3.111 A 1.13 1.13 0 0 0 58.953 2.916 A 0.983 0.983 0 0 0 58.298 2.584 A 1.39 1.39 0 0 0 58.144 2.575 A 1.106 1.106 0 0 0 57.622 2.698 A 1.14 1.14 0 0 0 57.318 2.933 A 1.417 1.417 0 0 0 57.041 3.379 Q 56.968 3.563 56.928 3.785 A 2.741 2.741 0 0 0 56.905 3.938 Z M 86.55 3.938 L 88.932 3.938 L 88.932 3.876 Q 88.906 3.417 88.735 3.111 A 1.13 1.13 0 0 0 88.598 2.916 A 0.983 0.983 0 0 0 87.944 2.584 A 1.39 1.39 0 0 0 87.79 2.575 A 1.106 1.106 0 0 0 87.267 2.698 A 1.14 1.14 0 0 0 86.963 2.933 A 1.417 1.417 0 0 0 86.687 3.379 Q 86.613 3.563 86.573 3.785 A 2.741 2.741 0 0 0 86.55 3.938 Z M 106.932 3.938 L 109.314 3.938 L 109.314 3.876 Q 109.288 3.417 109.117 3.111 A 1.13 1.13 0 0 0 108.98 2.916 A 0.983 0.983 0 0 0 108.326 2.584 A 1.39 1.39 0 0 0 108.171 2.575 A 1.106 1.106 0 0 0 107.649 2.698 A 1.14 1.14 0 0 0 107.345 2.933 A 1.417 1.417 0 0 0 107.069 3.379 Q 106.995 3.563 106.955 3.785 A 2.741 2.741 0 0 0 106.932 3.938 Z M 125.837 3.938 L 128.219 3.938 L 128.219 3.876 Q 128.193 3.417 128.023 3.111 A 1.13 1.13 0 0 0 127.885 2.916 A 0.983 0.983 0 0 0 127.231 2.584 A 1.39 1.39 0 0 0 127.077 2.575 A 1.106 1.106 0 0 0 126.554 2.698 A 1.14 1.14 0 0 0 126.25 2.933 A 1.417 1.417 0 0 0 125.974 3.379 Q 125.9 3.563 125.86 3.785 A 2.741 2.741 0 0 0 125.837 3.938 Z M 75.85 0.734 Q 75.85 0.536 75.97 0.4 Q 76.082 0.274 76.294 0.264 A 0.783 0.783 0 0 1 76.329 0.264 Q 76.566 0.264 76.689 0.4 A 0.474 0.474 0 0 1 76.811 0.703 A 0.614 0.614 0 0 1 76.812 0.734 A 0.523 0.523 0 0 1 76.787 0.9 A 0.442 0.442 0 0 1 76.689 1.063 Q 76.576 1.184 76.368 1.194 A 0.803 0.803 0 0 1 76.329 1.195 Q 76.156 1.195 76.045 1.126 A 0.362 0.362 0 0 1 75.97 1.063 A 0.456 0.456 0 0 1 75.852 0.788 A 0.605 0.605 0 0 1 75.85 0.734 Z M 118.723 0.734 Q 118.723 0.536 118.844 0.4 Q 118.955 0.274 119.167 0.264 A 0.783 0.783 0 0 1 119.202 0.264 Q 119.439 0.264 119.562 0.4 A 0.474 0.474 0 0 1 119.684 0.703 A 0.614 0.614 0 0 1 119.685 0.734 A 0.523 0.523 0 0 1 119.66 0.9 A 0.442 0.442 0 0 1 119.562 1.063 Q 119.45 1.184 119.241 1.194 A 0.803 0.803 0 0 1 119.202 1.195 Q 119.029 1.195 118.918 1.126 A 0.362 0.362 0 0 1 118.844 1.063 A 0.456 0.456 0 0 1 118.725 0.788 A 0.605 0.605 0 0 1 118.723 0.734 Z M 104.129 0.539 A 0.515 0.515 0 0 0 104.093 0.734 Q 104.093 0.932 104.212 1.063 Q 104.293 1.154 104.431 1.182 A 0.679 0.679 0 0 0 104.568 1.195 A 0.803 0.803 0 0 0 104.608 1.194 Q 104.816 1.184 104.928 1.063 A 0.442 0.442 0 0 0 105.026 0.9 A 0.523 0.523 0 0 0 105.051 0.734 A 0.614 0.614 0 0 0 105.051 0.703 A 0.474 0.474 0 0 0 104.928 0.4 Q 104.805 0.264 104.568 0.264 A 0.768 0.768 0 0 0 104.555 0.264 Q 104.332 0.268 104.214 0.402 A 0.482 0.482 0 0 0 104.129 0.539 Z" vector-effect="non-scaling-stroke"/></g>
</svgversion="1.0" encoding="UTF-8"?>
<svg width="48px" height="48px" viewBox="0 0 48 48" version="1.1" xmlns="http://www.w3.org/2000/svg" xmlns:xlink="http://www.w3.org/1999/xlink">
    <title>Icon-Resource/Storage/Res_AWS-Backup_Recovery-Time-Objective_48_Dark</title>
    <g id="Icon-Resource/Storage/Res_AWS-Backup_Recovery-Time-Objective_48" stroke="none" stroke-width="1" fill="none" fill-rule="evenodd">
        <path transform="translate(0vw, 0vh), scale(.65)" d="M26.606,38.281 C29.163,38.281 31.593,37.474 33.636,35.947 C33.938,35.721 34.228,35.482 34.506,35.229 C34.646,35.102 34.782,34.972 34.914,34.84 C35.717,34.037 36.398,33.126 36.939,32.13 C37.031,31.963 37.116,31.796 37.197,31.626 C37.967,30.03 38.357,28.316 38.357,26.53 C38.357,21.024 34.614,16.316 29.255,15.081 L29.705,13.132 C35.976,14.577 40.357,20.087 40.357,26.53 C40.357,28.619 39.9,30.625 39,32.492 C38.905,32.691 38.802,32.891 38.696,33.087 C38.064,34.25 37.267,35.316 36.329,36.254 C36.174,36.408 36.015,36.561 35.851,36.709 C35.527,37.004 35.186,37.285 34.834,37.549 C32.443,39.336 29.597,40.281 26.606,40.281 C19.023,40.281 12.853,34.112 12.853,26.53 L14.855,26.468 L14.853,26.546 C14.853,33.01 20.126,38.281 26.606,38.281 L26.606,38.281 Z M26.056,25.182 C26.755,25.182 27.325,25.751 27.325,26.45 C27.325,27.149 26.755,27.718 26.056,27.718 C25.357,27.718 24.789,27.149 24.789,26.45 C24.789,25.751 25.357,25.182 26.056,25.182 L26.056,25.182 Z M22.789,26.45 C22.789,28.252 24.254,29.718 26.056,29.718 C27.859,29.718 29.325,28.252 29.325,26.45 C29.325,24.976 28.338,23.742 26.996,23.336 L26.939,13.994 L24.939,14.006 L24.996,23.374 C23.716,23.817 22.789,25.021 22.789,26.45 L22.789,26.45 Z M5,20 L16,20 L16,18 L5,18 L5,20 Z M2,24 L13,24 L13,22 L2,22 L2,24 Z M23,7.497 L23,4.654 C23,4.294 23.293,4 23.654,4 L28.345,4 C28.706,4 29,4.294 29,4.655 L29,7.337 C26.998,7.082 24.974,7.135 23,7.497 L23,7.497 Z M39.314,11.988 L41.015,10.288 L42.129,11.402 L43.543,9.988 L39.901,6.345 L38.487,7.76 L39.601,8.874 L37.735,10.74 C35.652,9.262 33.365,8.253 31,7.696 L31,4.655 C31,3.191 29.809,2 28.345,2 L23.654,2 C22.19,2 21,3.191 21,4.654 L21,7.965 C18.057,8.832 15.299,10.397 13,12.633 L13,11 L11,11 L11,15 C11,15.552 11.447,16 12,16 L16,16 L16,14 L14.457,14 C20.503,8.177 30.052,7.479 36.917,12.597 C44.61,18.331 46.204,29.256 40.469,36.949 C34.735,44.642 23.809,46.235 16.117,40.502 C11.704,37.213 9.152,32.166 9.114,26.655 L7.114,26.668 C7.156,32.812 10.002,38.438 14.921,42.105 C18.395,44.695 22.46,45.944 26.492,45.944 C32.416,45.944 38.268,43.248 42.073,38.144 C48.152,29.989 46.831,18.587 39.314,11.988 L39.314,11.988 Z" id="Fill-1" fill="#000000"></path>
    </g><g transform="translate(33vw, 80vh)" id="svgGroup" stroke-linecap="round" fill-rule="evenodd" font-size="9pt" stroke="#000" stroke-width="0.25mm" fill="#000" style="stroke:#000;stroke-width:0.25mm;fill:#000"><path d="M 23.12 0.088 L 24.13 4.469 L 24.253 5.313 L 24.434 4.553 L 25.699 0.088 L 26.411 0.088 L 27.646 4.553 L 27.822 5.326 L 27.958 4.465 L 28.951 0.088 L 29.799 0.088 L 28.248 6.486 L 27.479 6.486 L 26.161 1.824 L 26.06 1.336 L 25.958 1.824 L 24.592 6.486 L 23.823 6.486 L 22.276 0.088 L 23.12 0.088 Z M 34.98 1.938 L 34.132 1.938 A 1.466 1.466 0 0 0 34.083 1.546 A 1.066 1.066 0 0 0 33.763 1.026 A 1.211 1.211 0 0 0 33.294 0.77 Q 33.042 0.694 32.722 0.694 A 2.286 2.286 0 0 0 32.342 0.724 Q 32.14 0.758 31.977 0.831 A 1.101 1.101 0 0 0 31.748 0.969 A 0.892 0.892 0 0 0 31.403 1.624 A 1.267 1.267 0 0 0 31.399 1.732 A 0.806 0.806 0 0 0 31.667 2.337 A 1.134 1.134 0 0 0 31.731 2.393 A 1.562 1.562 0 0 0 31.969 2.549 Q 32.299 2.73 32.86 2.887 A 8.228 8.228 0 0 1 33.325 3.032 Q 33.56 3.113 33.754 3.2 A 3.297 3.297 0 0 1 34.108 3.382 A 2.342 2.342 0 0 1 34.447 3.626 Q 34.637 3.792 34.759 3.985 A 1.45 1.45 0 0 1 34.776 4.012 A 1.498 1.498 0 0 1 34.972 4.568 A 1.948 1.948 0 0 1 34.994 4.86 A 1.606 1.606 0 0 1 34.871 5.497 Q 34.726 5.838 34.408 6.09 A 1.886 1.886 0 0 1 34.387 6.106 Q 33.781 6.574 32.766 6.574 A 3.023 3.023 0 0 1 31.625 6.36 A 2.917 2.917 0 0 1 31.535 6.322 A 2.383 2.383 0 0 1 31.057 6.044 A 1.874 1.874 0 0 1 30.654 5.629 A 1.689 1.689 0 0 1 30.344 4.632 L 31.192 4.632 A 1.261 1.261 0 0 0 31.262 5.059 A 1.074 1.074 0 0 0 31.621 5.548 Q 32.005 5.85 32.622 5.881 A 2.87 2.87 0 0 0 32.766 5.884 A 2.628 2.628 0 0 0 33.153 5.858 Q 33.349 5.828 33.508 5.767 A 1.129 1.129 0 0 0 33.79 5.612 Q 34.146 5.339 34.146 4.869 A 1.074 1.074 0 0 0 34.103 4.559 A 0.816 0.816 0 0 0 33.816 4.142 Q 33.486 3.885 32.621 3.634 Q 31.535 3.322 31.041 2.868 Q 30.546 2.413 30.546 1.745 Q 30.546 0.989 31.151 0.494 A 2.121 2.121 0 0 1 32.041 0.071 A 3.087 3.087 0 0 1 32.722 0 A 2.913 2.913 0 0 1 33.382 0.072 A 2.372 2.372 0 0 1 33.897 0.255 A 2.051 2.051 0 0 1 34.428 0.626 A 1.834 1.834 0 0 1 34.697 0.958 A 1.798 1.798 0 0 1 34.98 1.938 Z M 3.74 6.486 L 2.351 3.898 L 0.848 3.898 L 0.848 6.486 L 0 6.486 L 0 0.088 L 2.118 0.088 A 3.809 3.809 0 0 1 2.76 0.138 Q 3.102 0.197 3.376 0.324 A 1.789 1.789 0 0 1 3.781 0.58 A 1.588 1.588 0 0 1 4.307 1.469 A 2.453 2.453 0 0 1 4.364 2.013 A 1.864 1.864 0 0 1 4.273 2.604 A 1.64 1.64 0 0 1 4.041 3.054 A 1.849 1.849 0 0 1 3.382 3.611 A 2.342 2.342 0 0 1 3.142 3.718 L 4.645 6.434 L 4.645 6.486 L 3.74 6.486 Z M 13.724 3.129 L 12.907 3.129 Q 12.907 2.795 12.623 2.553 Q 12.34 2.312 11.909 2.312 Q 11.465 2.312 11.215 2.505 A 0.653 0.653 0 0 0 11.04 2.704 Q 10.967 2.835 10.964 3 A 0.771 0.771 0 0 0 10.964 3.01 A 0.588 0.588 0 0 0 10.994 3.203 A 0.48 0.48 0 0 0 11.197 3.454 A 1.093 1.093 0 0 0 11.348 3.533 Q 11.512 3.605 11.767 3.673 A 6.581 6.581 0 0 0 12.039 3.74 A 6.318 6.318 0 0 1 12.446 3.845 Q 12.783 3.944 13.025 4.065 A 1.901 1.901 0 0 1 13.281 4.218 Q 13.418 4.315 13.516 4.429 A 1.06 1.06 0 0 1 13.586 4.52 A 1.024 1.024 0 0 1 13.748 4.927 A 1.388 1.388 0 0 1 13.768 5.168 Q 13.768 5.805 13.258 6.19 Q 12.776 6.554 12.022 6.573 A 3.337 3.337 0 0 1 11.936 6.574 A 2.746 2.746 0 0 1 11.401 6.525 A 2.124 2.124 0 0 1 10.925 6.372 A 1.771 1.771 0 0 1 10.491 6.094 A 1.54 1.54 0 0 1 10.237 5.807 Q 9.989 5.445 9.989 5.023 L 10.802 5.023 A 0.932 0.932 0 0 0 10.875 5.348 A 0.827 0.827 0 0 0 11.129 5.671 A 1.072 1.072 0 0 0 11.531 5.864 Q 11.686 5.903 11.867 5.91 A 2.013 2.013 0 0 0 11.936 5.911 A 1.863 1.863 0 0 0 12.231 5.889 Q 12.393 5.863 12.524 5.806 A 0.941 0.941 0 0 0 12.676 5.724 A 0.689 0.689 0 0 0 12.841 5.574 A 0.554 0.554 0 0 0 12.955 5.225 A 0.698 0.698 0 0 0 12.919 4.994 A 0.581 0.581 0 0 0 12.707 4.713 A 1.05 1.05 0 0 0 12.538 4.615 Q 12.349 4.524 12.054 4.449 A 5.392 5.392 0 0 0 11.841 4.399 A 6.342 6.342 0 0 1 11.48 4.311 Q 11.11 4.209 10.861 4.083 Q 10.562 3.93 10.392 3.731 A 1.017 1.017 0 0 1 10.325 3.643 Q 10.151 3.388 10.151 3.037 A 1.206 1.206 0 0 1 10.55 2.132 A 1.694 1.694 0 0 1 10.646 2.048 A 1.752 1.752 0 0 1 11.429 1.688 A 2.471 2.471 0 0 1 11.909 1.644 A 2.559 2.559 0 0 1 12.473 1.702 A 1.757 1.757 0 0 1 13.221 2.061 Q 13.724 2.479 13.724 3.129 Z M 21.327 6.486 L 20.716 4.816 L 18.035 4.816 L 17.433 6.486 L 16.563 6.486 L 19.006 0.088 L 19.745 0.088 L 22.192 6.486 L 21.327 6.486 Z M 5.212 4.241 L 5.212 4.091 A 3.17 3.17 0 0 1 5.288 3.382 A 2.581 2.581 0 0 1 5.482 2.828 A 2.191 2.191 0 0 1 5.93 2.202 A 2.033 2.033 0 0 1 6.238 1.958 Q 6.724 1.644 7.291 1.644 A 2.254 2.254 0 0 1 7.904 1.723 A 1.639 1.639 0 0 1 8.732 2.254 Q 9.246 2.865 9.246 4.003 L 9.246 4.342 L 6.025 4.342 A 2.111 2.111 0 0 0 6.096 4.85 A 1.516 1.516 0 0 0 6.436 5.478 A 1.282 1.282 0 0 0 7.37 5.909 A 1.652 1.652 0 0 0 7.436 5.911 A 1.763 1.763 0 0 0 7.764 5.882 Q 7.988 5.839 8.165 5.735 A 1.827 1.827 0 0 0 8.674 5.287 A 2.068 2.068 0 0 0 8.688 5.269 L 9.185 5.656 A 1.926 1.926 0 0 1 7.785 6.547 A 2.749 2.749 0 0 1 7.392 6.574 A 2.394 2.394 0 0 1 6.64 6.461 A 1.974 1.974 0 0 1 5.818 5.939 Q 5.212 5.304 5.212 4.241 Z M 0.848 0.782 L 0.848 3.208 L 2.145 3.208 Q 2.685 3.208 3.035 2.968 A 1.174 1.174 0 0 0 3.144 2.883 A 1.069 1.069 0 0 0 3.51 2.146 A 1.486 1.486 0 0 0 3.516 2.013 Q 3.516 1.47 3.22 1.159 A 1 1 0 0 0 3.162 1.103 Q 2.808 0.787 2.14 0.782 L 0.848 0.782 Z M 19.375 1.129 L 18.29 4.122 L 20.465 4.122 L 19.375 1.129 Z M 6.051 3.674 L 8.433 3.674 L 8.433 3.612 Q 8.407 3.153 8.236 2.848 A 1.13 1.13 0 0 0 8.099 2.652 A 0.983 0.983 0 0 0 7.445 2.32 A 1.39 1.39 0 0 0 7.291 2.312 A 1.106 1.106 0 0 0 6.768 2.435 A 1.14 1.14 0 0 0 6.464 2.67 A 1.417 1.417 0 0 0 6.188 3.116 Q 6.114 3.3 6.074 3.522 A 2.741 2.741 0 0 0 6.051 3.674 Z" vector-effect="non-scaling-stroke"/></g><g transform="translate(12vw, 90vh)" id="svgGroup" stroke-linecap="round" fill-rule="evenodd" font-size="9pt" stroke="#000" stroke-width="0.25mm" fill="#000" style="stroke:#000;stroke-width:0.25mm;fill:#000"><path d="M 78.025 1.995 L 78.794 1.995 L 78.816 2.522 Q 79.339 1.907 80.227 1.907 A 2.009 2.009 0 0 1 80.737 1.968 A 1.244 1.244 0 0 1 81.584 2.672 A 1.801 1.801 0 0 1 82.202 2.118 A 1.65 1.65 0 0 1 82.731 1.937 A 2.209 2.209 0 0 1 83.101 1.907 A 2.119 2.119 0 0 1 83.745 1.997 Q 84.671 2.292 84.691 3.564 L 84.691 6.75 L 83.878 6.75 L 83.878 3.612 A 1.781 1.781 0 0 0 83.858 3.332 Q 83.834 3.185 83.784 3.067 A 0.758 0.758 0 0 0 83.646 2.85 A 0.68 0.68 0 0 0 83.393 2.682 Q 83.181 2.597 82.864 2.597 A 1.245 1.245 0 0 0 82.498 2.648 A 1.008 1.008 0 0 0 82.112 2.867 A 1.042 1.042 0 0 0 81.798 3.404 A 1.41 1.41 0 0 0 81.765 3.595 L 81.765 6.75 L 80.947 6.75 L 80.947 3.634 A 1.532 1.532 0 0 0 80.899 3.23 Q 80.772 2.768 80.315 2.643 A 1.457 1.457 0 0 0 79.932 2.597 Q 79.159 2.597 78.858 3.234 A 1.459 1.459 0 0 0 78.838 3.278 L 78.838 6.75 L 78.025 6.75 L 78.025 1.995 Z M 18.066 6.75 L 16.409 4.548 L 15.899 5.08 L 15.899 6.75 L 15.086 6.75 L 15.086 0 L 15.899 0 L 15.899 4.083 L 16.334 3.56 L 17.815 1.995 L 18.804 1.995 L 16.954 3.981 L 19.02 6.75 L 18.066 6.75 Z M 161.363 6.75 L 159.706 4.548 L 159.196 5.08 L 159.196 6.75 L 158.383 6.75 L 158.383 0 L 159.196 0 L 159.196 4.083 L 159.631 3.56 L 161.112 1.995 L 162.101 1.995 L 160.251 3.981 L 162.316 6.75 L 161.363 6.75 Z M 35.745 6.75 L 34.356 4.162 L 32.854 4.162 L 32.854 6.75 L 32.005 6.75 L 32.005 0.352 L 34.124 0.352 A 3.809 3.809 0 0 1 34.765 0.402 Q 35.107 0.461 35.381 0.587 A 1.789 1.789 0 0 1 35.787 0.844 A 1.588 1.588 0 0 1 36.312 1.732 A 2.453 2.453 0 0 1 36.369 2.276 A 1.864 1.864 0 0 1 36.278 2.868 A 1.64 1.64 0 0 1 36.046 3.318 A 1.849 1.849 0 0 1 35.387 3.875 A 2.342 2.342 0 0 1 35.147 3.981 L 36.65 6.697 L 36.65 6.75 L 35.745 6.75 Z M 64.534 1.995 L 65.72 5.559 L 66.828 1.995 L 67.698 1.995 L 65.786 7.484 Q 65.342 8.67 64.375 8.67 L 64.222 8.657 L 63.918 8.6 L 63.918 7.941 L 64.138 7.958 Q 64.418 7.958 64.614 7.882 A 0.75 0.75 0 0 0 64.782 7.792 A 0.749 0.749 0 0 0 64.942 7.629 Q 65.06 7.47 65.15 7.215 A 2.575 2.575 0 0 0 65.162 7.181 L 65.342 6.697 L 63.646 1.995 L 64.534 1.995 Z M 22.597 6.75 L 22.579 6.28 A 1.526 1.526 0 0 1 21.753 6.775 Q 21.503 6.836 21.205 6.838 A 2.996 2.996 0 0 1 21.186 6.838 A 2.086 2.086 0 0 1 20.726 6.79 Q 20.295 6.693 20.028 6.396 A 1.41 1.41 0 0 1 19.745 5.899 Q 19.628 5.556 19.626 5.089 L 19.626 1.995 L 20.439 1.995 L 20.439 5.067 Q 20.439 6.037 21.147 6.137 A 1.229 1.229 0 0 0 21.318 6.148 A 1.927 1.927 0 0 0 21.769 6.099 Q 22.331 5.964 22.557 5.454 L 22.557 1.995 L 23.37 1.995 L 23.37 6.75 L 22.597 6.75 Z M 13.399 5.251 L 14.168 5.251 A 1.432 1.432 0 0 1 13.969 5.901 A 1.772 1.772 0 0 1 13.887 6.029 A 1.828 1.828 0 0 1 13.277 6.574 A 2.169 2.169 0 0 1 13.195 6.618 A 1.997 1.997 0 0 1 12.278 6.838 A 2.346 2.346 0 0 1 11.581 6.739 A 1.839 1.839 0 0 1 10.734 6.19 A 2.171 2.171 0 0 1 10.27 5.31 Q 10.16 4.909 10.16 4.417 L 10.16 4.28 A 3.24 3.24 0 0 1 10.224 3.624 A 2.57 2.57 0 0 1 10.415 3.045 A 2.008 2.008 0 0 1 10.855 2.431 A 1.892 1.892 0 0 1 11.147 2.206 A 1.943 1.943 0 0 1 11.903 1.934 A 2.529 2.529 0 0 1 12.274 1.907 A 2.196 2.196 0 0 1 12.922 1.999 A 1.786 1.786 0 0 1 13.603 2.386 A 1.693 1.693 0 0 1 14.162 3.535 A 2.239 2.239 0 0 1 14.168 3.63 L 13.399 3.63 Q 13.364 3.168 13.05 2.872 A 1.078 1.078 0 0 0 12.32 2.576 A 1.402 1.402 0 0 0 12.274 2.575 A 1.374 1.374 0 0 0 11.852 2.637 A 1.081 1.081 0 0 0 11.314 3.021 A 1.469 1.469 0 0 0 11.087 3.468 Q 11.021 3.674 10.993 3.923 A 3.514 3.514 0 0 0 10.973 4.311 L 10.973 4.465 Q 10.973 5.287 11.312 5.73 A 1.1 1.1 0 0 0 12.098 6.165 A 1.611 1.611 0 0 0 12.278 6.174 A 1.171 1.171 0 0 0 13.039 5.911 A 1.007 1.007 0 0 0 13.283 5.629 A 0.914 0.914 0 0 0 13.399 5.251 Z M 45.22 5.251 L 45.989 5.251 A 1.432 1.432 0 0 1 45.79 5.901 A 1.772 1.772 0 0 1 45.708 6.029 A 1.828 1.828 0 0 1 45.098 6.574 A 2.169 2.169 0 0 1 45.015 6.618 A 1.997 1.997 0 0 1 44.099 6.838 A 2.346 2.346 0 0 1 43.402 6.739 A 1.839 1.839 0 0 1 42.554 6.19 A 2.171 2.171 0 0 1 42.091 5.31 Q 41.981 4.909 41.981 4.417 L 41.981 4.28 A 3.24 3.24 0 0 1 42.045 3.624 A 2.57 2.57 0 0 1 42.236 3.045 A 2.008 2.008 0 0 1 42.675 2.431 A 1.892 1.892 0 0 1 42.968 2.206 A 1.943 1.943 0 0 1 43.724 1.934 A 2.529 2.529 0 0 1 44.095 1.907 A 2.196 2.196 0 0 1 44.743 1.999 A 1.786 1.786 0 0 1 45.424 2.386 A 1.693 1.693 0 0 1 45.982 3.535 A 2.239 2.239 0 0 1 45.989 3.63 L 45.22 3.63 Q 45.185 3.168 44.87 2.872 A 1.078 1.078 0 0 0 44.141 2.576 A 1.402 1.402 0 0 0 44.095 2.575 A 1.374 1.374 0 0 0 43.673 2.637 A 1.081 1.081 0 0 0 43.135 3.021 A 1.469 1.469 0 0 0 42.908 3.468 Q 42.842 3.674 42.814 3.923 A 3.514 3.514 0 0 0 42.794 4.311 L 42.794 4.465 Q 42.794 5.287 43.132 5.73 A 1.1 1.1 0 0 0 43.919 6.165 A 1.611 1.611 0 0 0 44.099 6.174 A 1.171 1.171 0 0 0 44.859 5.911 A 1.007 1.007 0 0 0 45.103 5.629 A 0.914 0.914 0 0 0 45.22 5.251 Z M 114.095 5.251 L 114.864 5.251 A 1.432 1.432 0 0 1 114.665 5.901 A 1.772 1.772 0 0 1 114.583 6.029 A 1.828 1.828 0 0 1 113.974 6.574 A 2.169 2.169 0 0 1 113.891 6.618 A 1.997 1.997 0 0 1 112.975 6.838 A 2.346 2.346 0 0 1 112.277 6.739 A 1.839 1.839 0 0 1 111.43 6.19 A 2.171 2.171 0 0 1 110.966 5.31 Q 110.856 4.909 110.856 4.417 L 110.856 4.28 A 3.24 3.24 0 0 1 110.92 3.624 A 2.57 2.57 0 0 1 111.111 3.045 A 2.008 2.008 0 0 1 111.551 2.431 A 1.892 1.892 0 0 1 111.843 2.206 A 1.943 1.943 0 0 1 112.599 1.934 A 2.529 2.529 0 0 1 112.97 1.907 A 2.196 2.196 0 0 1 113.618 1.999 A 1.786 1.786 0 0 1 114.3 2.386 A 1.693 1.693 0 0 1 114.858 3.535 A 2.239 2.239 0 0 1 114.864 3.63 L 114.095 3.63 Q 114.06 3.168 113.746 2.872 A 1.078 1.078 0 0 0 113.017 2.576 A 1.402 1.402 0 0 0 112.97 2.575 A 1.374 1.374 0 0 0 112.549 2.637 A 1.081 1.081 0 0 0 112.01 3.021 A 1.469 1.469 0 0 0 111.783 3.468 Q 111.717 3.674 111.69 3.923 A 3.514 3.514 0 0 0 111.669 4.311 L 111.669 4.465 Q 111.669 5.287 112.008 5.73 A 1.1 1.1 0 0 0 112.794 6.165 A 1.611 1.611 0 0 0 112.975 6.174 A 1.171 1.171 0 0 0 113.735 5.911 A 1.007 1.007 0 0 0 113.979 5.629 A 0.914 0.914 0 0 0 114.095 5.251 Z M 75.023 0.352 L 75.023 1.046 L 72.967 1.046 L 72.967 6.75 L 72.127 6.75 L 72.127 1.046 L 70.075 1.046 L 70.075 0.352 L 75.023 0.352 Z M 9.264 6.75 L 8.411 6.75 A 0.632 0.632 0 0 1 8.376 6.66 Q 8.344 6.562 8.32 6.41 A 3.997 3.997 0 0 1 8.297 6.249 Q 7.73 6.838 6.943 6.838 A 2.033 2.033 0 0 1 6.414 6.772 A 1.529 1.529 0 0 1 5.79 6.44 Q 5.339 6.042 5.339 5.432 Q 5.339 4.689 5.904 4.278 Q 6.469 3.867 7.493 3.867 L 8.284 3.867 L 8.284 3.494 A 1.152 1.152 0 0 0 8.248 3.199 A 0.828 0.828 0 0 0 8.029 2.815 Q 7.813 2.6 7.422 2.568 A 1.748 1.748 0 0 0 7.277 2.562 Q 6.842 2.562 6.548 2.782 Q 6.253 3.001 6.253 3.313 L 5.436 3.313 A 1.041 1.041 0 0 1 5.561 2.825 A 1.409 1.409 0 0 1 5.689 2.626 Q 5.941 2.294 6.374 2.101 A 2.249 2.249 0 0 1 7.15 1.913 A 2.669 2.669 0 0 1 7.326 1.907 A 2.65 2.65 0 0 1 7.843 1.955 Q 8.15 2.016 8.389 2.156 A 1.439 1.439 0 0 1 8.613 2.318 A 1.396 1.396 0 0 1 9.067 3.144 A 1.998 1.998 0 0 1 9.097 3.45 L 9.097 5.638 Q 9.097 6.073 9.17 6.39 A 1.707 1.707 0 0 0 9.264 6.68 L 9.264 6.75 Z M 154.226 6.75 L 153.374 6.75 A 0.632 0.632 0 0 1 153.338 6.66 Q 153.307 6.562 153.282 6.41 A 3.997 3.997 0 0 1 153.259 6.249 Q 152.692 6.838 151.906 6.838 A 2.033 2.033 0 0 1 151.376 6.772 A 1.529 1.529 0 0 1 150.752 6.44 Q 150.302 6.042 150.302 5.432 Q 150.302 4.689 150.866 4.278 Q 151.431 3.867 152.455 3.867 L 153.246 3.867 L 153.246 3.494 A 1.152 1.152 0 0 0 153.21 3.199 A 0.828 0.828 0 0 0 152.991 2.815 Q 152.775 2.6 152.385 2.568 A 1.748 1.748 0 0 0 152.24 2.562 Q 151.805 2.562 151.51 2.782 Q 151.216 3.001 151.216 3.313 L 150.398 3.313 A 1.041 1.041 0 0 1 150.523 2.825 A 1.409 1.409 0 0 1 150.651 2.626 Q 150.904 2.294 151.337 2.101 A 2.249 2.249 0 0 1 152.112 1.913 A 2.669 2.669 0 0 1 152.288 1.907 A 2.65 2.65 0 0 1 152.806 1.955 Q 153.113 2.016 153.352 2.156 A 1.439 1.439 0 0 1 153.576 2.318 A 1.396 1.396 0 0 1 154.029 3.144 A 1.998 1.998 0 0 1 154.059 3.45 L 154.059 5.638 Q 154.059 6.073 154.133 6.39 A 1.707 1.707 0 0 0 154.226 6.68 L 154.226 6.75 Z M 103.126 4.355 L 103.126 4.425 Q 103.126 5.308 102.798 5.909 A 2.141 2.141 0 0 1 102.625 6.177 A 1.647 1.647 0 0 1 102.039 6.673 Q 101.724 6.828 101.333 6.837 A 2.112 2.112 0 0 1 101.281 6.838 A 2.039 2.039 0 0 1 100.686 6.756 A 1.561 1.561 0 0 1 99.888 6.201 L 99.848 6.75 L 99.101 6.75 L 99.101 0 L 99.914 0 L 99.914 2.518 A 1.605 1.605 0 0 1 101.081 1.915 A 2.285 2.285 0 0 1 101.272 1.907 A 1.835 1.835 0 0 1 101.903 2.011 A 1.579 1.579 0 0 1 102.632 2.562 Q 103.046 3.11 103.113 3.998 A 4.727 4.727 0 0 1 103.126 4.355 Z M 28.622 4.351 L 28.622 4.425 Q 28.622 5.511 28.125 6.174 A 1.57 1.57 0 0 1 26.987 6.828 A 2.013 2.013 0 0 1 26.78 6.838 A 2.196 2.196 0 0 1 26.194 6.764 A 1.598 1.598 0 0 1 25.418 6.289 L 25.418 8.578 L 24.605 8.578 L 24.605 1.995 L 25.348 1.995 L 25.387 2.522 A 1.619 1.619 0 0 1 26.526 1.919 A 2.319 2.319 0 0 1 26.767 1.907 A 1.829 1.829 0 0 1 27.404 2.014 A 1.597 1.597 0 0 1 28.123 2.553 Q 28.622 3.199 28.622 4.351 Z M 37.217 4.504 L 37.217 4.355 A 3.17 3.17 0 0 1 37.294 3.646 A 2.581 2.581 0 0 1 37.488 3.092 A 2.191 2.191 0 0 1 37.935 2.466 A 2.033 2.033 0 0 1 38.243 2.221 Q 38.729 1.907 39.296 1.907 A 2.254 2.254 0 0 1 39.909 1.986 A 1.639 1.639 0 0 1 40.737 2.518 Q 41.251 3.129 41.251 4.267 L 41.251 4.605 L 38.03 4.605 A 2.111 2.111 0 0 0 38.101 5.114 A 1.516 1.516 0 0 0 38.441 5.741 A 1.282 1.282 0 0 0 39.375 6.173 A 1.652 1.652 0 0 0 39.441 6.174 A 1.763 1.763 0 0 0 39.769 6.145 Q 39.993 6.103 40.17 5.999 A 1.827 1.827 0 0 0 40.679 5.551 A 2.068 2.068 0 0 0 40.693 5.533 L 41.19 5.919 A 1.926 1.926 0 0 1 39.79 6.811 A 2.749 2.749 0 0 1 39.397 6.838 A 2.394 2.394 0 0 1 38.646 6.725 A 1.974 1.974 0 0 1 37.824 6.203 Q 37.217 5.568 37.217 4.504 Z M 56.065 4.504 L 56.065 4.355 A 3.17 3.17 0 0 1 56.142 3.646 A 2.581 2.581 0 0 1 56.336 3.092 A 2.191 2.191 0 0 1 56.783 2.466 A 2.033 2.033 0 0 1 57.092 2.221 Q 57.577 1.907 58.144 1.907 A 2.254 2.254 0 0 1 58.757 1.986 A 1.639 1.639 0 0 1 59.585 2.518 Q 60.1 3.129 60.1 4.267 L 60.1 4.605 L 56.878 4.605 A 2.111 2.111 0 0 0 56.949 5.114 A 1.516 1.516 0 0 0 57.289 5.741 A 1.282 1.282 0 0 0 58.223 6.173 A 1.652 1.652 0 0 0 58.289 6.174 A 1.763 1.763 0 0 0 58.617 6.145 Q 58.841 6.103 59.019 5.999 A 1.827 1.827 0 0 0 59.527 5.551 A 2.068 2.068 0 0 0 59.542 5.533 L 60.038 5.919 A 1.926 1.926 0 0 1 58.638 6.811 A 2.749 2.749 0 0 1 58.245 6.838 A 2.394 2.394 0 0 1 57.494 6.725 A 1.974 1.974 0 0 1 56.672 6.203 Q 56.065 5.568 56.065 4.504 Z M 85.711 4.504 L 85.711 4.355 A 3.17 3.17 0 0 1 85.787 3.646 A 2.581 2.581 0 0 1 85.981 3.092 A 2.191 2.191 0 0 1 86.429 2.466 A 2.033 2.033 0 0 1 86.737 2.221 Q 87.223 1.907 87.79 1.907 A 2.254 2.254 0 0 1 88.403 1.986 A 1.639 1.639 0 0 1 89.231 2.518 Q 89.745 3.129 89.745 4.267 L 89.745 4.605 L 86.524 4.605 A 2.111 2.111 0 0 0 86.595 5.114 A 1.516 1.516 0 0 0 86.935 5.741 A 1.282 1.282 0 0 0 87.869 6.173 A 1.652 1.652 0 0 0 87.935 6.174 A 1.763 1.763 0 0 0 88.263 6.145 Q 88.487 6.103 88.664 5.999 A 1.827 1.827 0 0 0 89.173 5.551 A 2.068 2.068 0 0 0 89.187 5.533 L 89.684 5.919 A 1.926 1.926 0 0 1 88.284 6.811 A 2.749 2.749 0 0 1 87.891 6.838 A 2.394 2.394 0 0 1 87.139 6.725 A 1.974 1.974 0 0 1 86.317 6.203 Q 85.711 5.568 85.711 4.504 Z M 106.093 4.504 L 106.093 4.355 A 3.17 3.17 0 0 1 106.169 3.646 A 2.581 2.581 0 0 1 106.363 3.092 A 2.191 2.191 0 0 1 106.81 2.466 A 2.033 2.033 0 0 1 107.119 2.221 Q 107.604 1.907 108.171 1.907 A 2.254 2.254 0 0 1 108.784 1.986 A 1.639 1.639 0 0 1 109.613 2.518 Q 110.127 3.129 110.127 4.267 L 110.127 4.605 L 106.906 4.605 A 2.111 2.111 0 0 0 106.977 5.114 A 1.516 1.516 0 0 0 107.317 5.741 A 1.282 1.282 0 0 0 108.251 6.173 A 1.652 1.652 0 0 0 108.316 6.174 A 1.763 1.763 0 0 0 108.645 6.145 Q 108.868 6.103 109.046 5.999 A 1.827 1.827 0 0 0 109.555 5.551 A 2.068 2.068 0 0 0 109.569 5.533 L 110.065 5.919 A 1.926 1.926 0 0 1 108.666 6.811 A 2.749 2.749 0 0 1 108.272 6.838 A 2.394 2.394 0 0 1 107.521 6.725 A 1.974 1.974 0 0 1 106.699 6.203 Q 106.093 5.568 106.093 4.504 Z M 124.998 4.504 L 124.998 4.355 A 3.17 3.17 0 0 1 125.074 3.646 A 2.581 2.581 0 0 1 125.268 3.092 A 2.191 2.191 0 0 1 125.716 2.466 A 2.033 2.033 0 0 1 126.024 2.221 Q 126.51 1.907 127.077 1.907 A 2.254 2.254 0 0 1 127.69 1.986 A 1.639 1.639 0 0 1 128.518 2.518 Q 129.032 3.129 129.032 4.267 L 129.032 4.605 L 125.811 4.605 A 2.111 2.111 0 0 0 125.882 5.114 A 1.516 1.516 0 0 0 126.222 5.741 A 1.282 1.282 0 0 0 127.156 6.173 A 1.652 1.652 0 0 0 127.222 6.174 A 1.763 1.763 0 0 0 127.55 6.145 Q 127.774 6.103 127.951 5.999 A 1.827 1.827 0 0 0 128.46 5.551 A 2.068 2.068 0 0 0 128.474 5.533 L 128.971 5.919 A 1.926 1.926 0 0 1 127.571 6.811 A 2.749 2.749 0 0 1 127.178 6.838 A 2.394 2.394 0 0 1 126.427 6.725 A 1.974 1.974 0 0 1 125.604 6.203 Q 124.998 5.568 124.998 4.504 Z M 2.219 6.75 L 0 6.75 L 0 0.352 L 2.092 0.352 A 4.031 4.031 0 0 1 2.665 0.39 Q 2.957 0.432 3.194 0.521 A 1.629 1.629 0 0 1 3.658 0.782 A 1.383 1.383 0 0 1 4.13 1.558 A 2.164 2.164 0 0 1 4.184 2.057 A 1.3 1.3 0 0 1 3.929 2.85 A 1.589 1.589 0 0 1 3.418 3.294 A 1.972 1.972 0 0 1 3.234 3.384 A 1.571 1.571 0 0 1 3.749 3.63 A 1.446 1.446 0 0 1 4.054 3.935 A 1.531 1.531 0 0 1 4.346 4.713 A 1.961 1.961 0 0 1 4.355 4.904 A 2.139 2.139 0 0 1 4.28 5.487 A 1.577 1.577 0 0 1 3.797 6.258 A 1.832 1.832 0 0 1 3.105 6.633 Q 2.838 6.713 2.52 6.739 A 3.81 3.81 0 0 1 2.219 6.75 Z M 52.33 1.995 L 53.539 5.647 L 54.716 1.995 L 55.547 1.995 L 53.842 6.75 L 53.222 6.75 L 51.5 1.995 L 52.33 1.995 Z M 121.263 1.995 L 122.471 5.647 L 123.649 1.995 L 124.479 1.995 L 122.774 6.75 L 122.155 6.75 L 120.432 1.995 L 121.263 1.995 Z M 135.549 0.352 L 135.549 4.601 L 136.437 4.601 L 136.437 5.265 L 135.549 5.265 L 135.549 6.75 L 134.732 6.75 L 134.732 5.265 L 131.818 5.265 L 131.818 4.786 L 134.684 0.352 L 135.549 0.352 Z M 146.435 6.75 L 144.664 6.75 L 144.664 0.352 L 146.47 0.352 Q 147.305 0.352 147.946 0.721 Q 148.588 1.09 148.937 1.771 A 3.19 3.19 0 0 1 149.254 2.8 A 4.073 4.073 0 0 1 149.291 3.335 L 149.291 3.744 Q 149.291 4.649 148.942 5.331 A 2.457 2.457 0 0 1 147.944 6.376 Q 147.296 6.741 146.435 6.75 Z M 140.948 2.592 A 1.544 1.544 0 0 0 141.051 2.021 A 2.226 2.226 0 0 0 141.03 1.707 A 1.566 1.566 0 0 0 140.531 0.738 A 1.754 1.754 0 0 0 139.765 0.333 A 2.443 2.443 0 0 0 139.166 0.264 A 2.539 2.539 0 0 0 138.656 0.312 A 1.767 1.767 0 0 0 137.799 0.738 Q 137.281 1.213 137.281 2.021 A 1.808 1.808 0 0 0 137.281 2.058 A 1.499 1.499 0 0 0 137.527 2.87 A 1.626 1.626 0 0 0 137.689 3.077 A 1.726 1.726 0 0 0 138.199 3.454 A 2.119 2.119 0 0 0 138.1 3.5 A 1.738 1.738 0 0 0 137.415 4.087 A 1.629 1.629 0 0 0 137.131 5.023 A 2.272 2.272 0 0 0 137.141 5.237 A 1.63 1.63 0 0 0 137.687 6.344 A 1.895 1.895 0 0 0 138.538 6.771 A 2.797 2.797 0 0 0 139.166 6.838 A 2.796 2.796 0 0 0 139.765 6.777 A 1.925 1.925 0 0 0 140.64 6.346 A 1.578 1.578 0 0 0 141.115 5.62 A 1.989 1.989 0 0 0 141.201 5.023 A 1.581 1.581 0 0 0 140.908 4.087 Q 140.616 3.674 140.115 3.458 Q 140.546 3.248 140.799 2.874 A 1.449 1.449 0 0 0 140.948 2.592 Z M 97.963 3.353 L 97.963 3.757 A 4.729 4.729 0 0 1 97.898 4.56 A 3.455 3.455 0 0 1 97.646 5.399 A 2.648 2.648 0 0 1 97.25 6.033 A 2.226 2.226 0 0 1 96.75 6.469 A 2.362 2.362 0 0 1 95.731 6.82 A 2.993 2.993 0 0 1 95.396 6.838 A 2.618 2.618 0 0 1 94.59 6.717 A 2.313 2.313 0 0 1 94.056 6.467 A 2.392 2.392 0 0 1 93.256 5.615 A 2.953 2.953 0 0 1 93.149 5.407 A 3.426 3.426 0 0 1 92.872 4.489 A 4.535 4.535 0 0 1 92.817 3.814 L 92.817 3.353 A 4.52 4.52 0 0 1 92.892 2.51 A 3.461 3.461 0 0 1 93.138 1.723 Q 93.458 1.015 94.045 0.639 A 2.389 2.389 0 0 1 95.201 0.27 A 2.92 2.92 0 0 1 95.388 0.264 A 2.702 2.702 0 0 1 96.164 0.372 A 2.318 2.318 0 0 1 96.743 0.635 A 2.31 2.31 0 0 1 97.517 1.456 A 2.912 2.912 0 0 1 97.646 1.712 A 3.525 3.525 0 0 1 97.907 2.604 A 4.763 4.763 0 0 1 97.963 3.353 Z M 116.068 0.844 L 116.881 0.844 L 116.881 1.995 L 117.769 1.995 L 117.769 2.624 L 116.881 2.624 L 116.881 5.572 Q 116.881 5.858 117 6.001 Q 117.119 6.144 117.404 6.144 A 1.046 1.046 0 0 0 117.502 6.138 Q 117.605 6.129 117.744 6.101 A 4.024 4.024 0 0 0 117.791 6.091 L 117.791 6.75 A 2.463 2.463 0 0 1 117.358 6.829 A 2.157 2.157 0 0 1 117.167 6.838 Q 116.72 6.838 116.453 6.616 A 0.856 0.856 0 0 1 116.345 6.508 Q 116.118 6.238 116.077 5.78 A 2.351 2.351 0 0 1 116.068 5.572 L 116.068 2.624 L 115.203 2.624 L 115.203 1.995 L 116.068 1.995 L 116.068 0.844 Z M 104.177 1.995 L 104.99 1.995 L 104.99 7.299 A 2.203 2.203 0 0 1 104.934 7.817 Q 104.766 8.51 104.088 8.64 A 1.813 1.813 0 0 1 103.746 8.67 A 1.594 1.594 0 0 1 103.412 8.636 A 1.376 1.376 0 0 1 103.25 8.591 L 103.25 7.941 A 0.989 0.989 0 0 0 103.357 7.961 Q 103.413 7.969 103.478 7.972 A 2.444 2.444 0 0 0 103.619 7.976 A 0.807 0.807 0 0 0 103.78 7.961 Q 103.877 7.941 103.951 7.896 A 0.429 0.429 0 0 0 104.034 7.829 A 0.412 0.412 0 0 0 104.118 7.695 Q 104.169 7.57 104.176 7.379 A 1.721 1.721 0 0 0 104.177 7.317 L 104.177 1.995 Z M 46.688 4.386 L 46.688 4.329 A 3.057 3.057 0 0 1 46.774 3.587 A 2.573 2.573 0 0 1 46.962 3.072 A 2.16 2.16 0 0 1 47.377 2.486 A 1.957 1.957 0 0 1 47.727 2.21 A 2.036 2.036 0 0 1 48.671 1.913 A 2.491 2.491 0 0 1 48.845 1.907 A 2.277 2.277 0 0 1 49.599 2.027 A 1.937 1.937 0 0 1 50.416 2.58 A 2.29 2.29 0 0 1 50.935 3.608 A 3.373 3.373 0 0 1 51.016 4.368 L 51.016 4.425 A 3.114 3.114 0 0 1 50.937 5.142 A 2.577 2.577 0 0 1 50.75 5.671 A 2.056 2.056 0 0 1 50.223 6.361 A 2.001 2.001 0 0 1 49.99 6.53 A 2.045 2.045 0 0 1 49.07 6.829 A 2.529 2.529 0 0 1 48.854 6.838 A 2.262 2.262 0 0 1 48.104 6.718 A 1.938 1.938 0 0 1 47.287 6.166 A 2.297 2.297 0 0 1 46.762 5.111 A 3.357 3.357 0 0 1 46.687 4.386 Z M 63.338 1.969 L 63.338 2.725 A 2.251 2.251 0 0 0 63.096 2.698 A 2.782 2.782 0 0 0 62.938 2.694 Q 62.161 2.694 61.869 3.338 A 1.445 1.445 0 0 0 61.853 3.375 L 61.853 6.75 L 61.04 6.75 L 61.04 1.995 L 61.831 1.995 L 61.844 2.544 Q 62.225 1.938 62.907 1.909 A 1.636 1.636 0 0 1 62.978 1.907 Q 63.215 1.907 63.338 1.969 Z M 157.632 1.969 L 157.632 2.725 A 2.251 2.251 0 0 0 157.389 2.698 A 2.782 2.782 0 0 0 157.232 2.694 Q 156.454 2.694 156.163 3.338 A 1.445 1.445 0 0 0 156.146 3.375 L 156.146 6.75 L 155.333 6.75 L 155.333 1.995 L 156.125 1.995 L 156.138 2.544 Q 156.518 1.938 157.201 1.909 A 1.636 1.636 0 0 1 157.271 1.907 Q 157.509 1.907 157.632 1.969 Z M 146.492 1.046 L 145.507 1.046 L 145.507 6.06 L 146.395 6.06 A 2.519 2.519 0 0 0 147.027 5.985 A 1.747 1.747 0 0 0 147.913 5.454 Q 148.373 4.94 148.443 4.059 A 4.165 4.165 0 0 0 148.456 3.727 L 148.456 3.353 Q 148.456 2.562 148.186 2.027 A 1.864 1.864 0 0 0 147.944 1.659 A 1.687 1.687 0 0 0 146.948 1.09 A 2.499 2.499 0 0 0 146.492 1.046 Z M 97.124 3.819 L 97.124 3.344 A 4.551 4.551 0 0 0 97.079 2.685 Q 97.03 2.35 96.927 2.078 A 1.944 1.944 0 0 0 96.667 1.597 Q 96.209 0.989 95.388 0.989 Q 94.588 0.989 94.129 1.597 A 2.112 2.112 0 0 0 93.804 2.246 Q 93.716 2.527 93.68 2.864 A 4.531 4.531 0 0 0 93.656 3.287 L 93.656 3.757 A 4.254 4.254 0 0 0 93.706 4.43 Q 93.764 4.789 93.887 5.079 A 2.039 2.039 0 0 0 94.12 5.491 A 1.472 1.472 0 0 0 95.187 6.11 A 1.931 1.931 0 0 0 95.396 6.122 A 1.79 1.79 0 0 0 95.955 6.039 A 1.423 1.423 0 0 0 96.662 5.526 A 2.017 2.017 0 0 0 96.963 4.932 Q 97.116 4.462 97.124 3.819 Z M 76.729 1.995 L 76.729 6.75 L 75.916 6.75 L 75.916 1.995 L 76.729 1.995 Z M 119.602 1.995 L 119.602 6.75 L 118.789 6.75 L 118.789 1.995 L 119.602 1.995 Z M 47.505 4.425 A 2.772 2.772 0 0 0 47.552 4.954 Q 47.613 5.264 47.75 5.51 A 1.545 1.545 0 0 0 47.872 5.695 Q 48.239 6.174 48.854 6.174 A 1.269 1.269 0 0 0 49.343 6.083 Q 49.623 5.967 49.825 5.706 A 1.471 1.471 0 0 0 49.838 5.689 A 1.648 1.648 0 0 0 50.093 5.171 Q 50.162 4.945 50.188 4.672 A 3.655 3.655 0 0 0 50.203 4.329 A 2.687 2.687 0 0 0 50.152 3.789 Q 50.084 3.459 49.927 3.2 A 1.586 1.586 0 0 0 49.832 3.061 A 1.231 1.231 0 0 0 49.417 2.705 Q 49.164 2.575 48.845 2.575 Q 48.255 2.575 47.889 3.035 A 1.515 1.515 0 0 0 47.874 3.054 A 1.589 1.589 0 0 0 47.622 3.552 Q 47.552 3.772 47.524 4.039 A 3.676 3.676 0 0 0 47.505 4.425 Z M 25.418 3.252 L 25.418 5.524 Q 25.783 6.174 26.534 6.174 A 1.184 1.184 0 0 0 27 6.086 Q 27.257 5.977 27.445 5.735 A 1.403 1.403 0 0 0 27.464 5.711 A 1.501 1.501 0 0 0 27.68 5.28 Q 27.749 5.073 27.78 4.818 A 3.91 3.91 0 0 0 27.809 4.333 Q 27.809 3.746 27.626 3.339 A 1.503 1.503 0 0 0 27.466 3.063 A 1.086 1.086 0 0 0 26.68 2.605 A 1.414 1.414 0 0 0 26.525 2.597 Q 25.865 2.597 25.5 3.121 A 1.623 1.623 0 0 0 25.418 3.252 Z M 99.914 3.344 L 99.914 5.401 A 1.528 1.528 0 0 0 100.2 5.807 Q 100.523 6.127 101.013 6.147 A 1.621 1.621 0 0 0 101.079 6.148 A 1.206 1.206 0 0 0 101.496 6.079 A 1.04 1.04 0 0 0 101.988 5.695 Q 102.313 5.243 102.313 4.333 Q 102.313 3.502 101.993 3.05 A 1.03 1.03 0 0 0 101.242 2.607 A 1.449 1.449 0 0 0 101.07 2.597 A 1.34 1.34 0 0 0 100.56 2.69 Q 100.142 2.86 99.914 3.344 Z M 32.854 1.046 L 32.854 3.472 L 34.15 3.472 Q 34.69 3.472 35.04 3.231 A 1.174 1.174 0 0 0 35.15 3.146 A 1.069 1.069 0 0 0 35.515 2.409 A 1.486 1.486 0 0 0 35.521 2.276 Q 35.521 1.734 35.225 1.423 A 1 1 0 0 0 35.167 1.367 Q 34.813 1.05 34.146 1.046 L 32.854 1.046 Z M 2.25 3.757 L 0.844 3.757 L 0.844 6.06 L 2.237 6.06 A 1.84 1.84 0 0 0 2.612 6.024 Q 2.852 5.974 3.036 5.854 A 1.064 1.064 0 0 0 3.166 5.755 A 1.003 1.003 0 0 0 3.488 5.154 A 1.459 1.459 0 0 0 3.507 4.913 Q 3.507 4.007 2.734 3.811 A 1.977 1.977 0 0 0 2.251 3.757 Z M 134.635 1.639 L 132.741 4.601 L 134.732 4.601 L 134.732 1.463 L 134.635 1.639 Z M 0.844 1.046 L 0.844 3.081 L 2.118 3.081 Q 2.672 3.081 3.004 2.804 A 0.905 0.905 0 0 0 3.331 2.154 A 1.27 1.27 0 0 0 3.335 2.052 Q 3.335 1.696 3.195 1.471 A 0.71 0.71 0 0 0 3.028 1.285 A 0.969 0.969 0 0 0 2.742 1.136 Q 2.479 1.047 2.098 1.046 A 3.261 3.261 0 0 0 2.092 1.046 L 0.844 1.046 Z M 140.388 5.005 A 1.375 1.375 0 0 0 140.328 4.592 A 1.109 1.109 0 0 0 140.047 4.131 A 1.148 1.148 0 0 0 139.376 3.807 A 1.593 1.593 0 0 0 139.157 3.792 A 1.466 1.466 0 0 0 138.769 3.841 A 1.086 1.086 0 0 0 138.276 4.126 A 1.123 1.123 0 0 0 137.963 4.762 A 1.572 1.572 0 0 0 137.944 5.005 A 1.48 1.48 0 0 0 137.986 5.367 A 1.019 1.019 0 0 0 138.267 5.862 Q 138.573 6.158 139.106 6.173 A 2.053 2.053 0 0 0 139.166 6.174 Q 139.66 6.174 139.97 5.94 A 1.018 1.018 0 0 0 140.062 5.86 A 1.041 1.041 0 0 0 140.362 5.292 A 1.518 1.518 0 0 0 140.388 5.005 Z M 139.166 0.932 A 1.259 1.259 0 0 0 138.813 0.979 A 0.973 0.973 0 0 0 138.39 1.228 Q 138.094 1.525 138.094 2.035 A 1.325 1.325 0 0 0 138.138 2.387 A 0.994 0.994 0 0 0 138.386 2.823 A 0.974 0.974 0 0 0 138.948 3.108 A 1.382 1.382 0 0 0 139.166 3.125 A 1.279 1.279 0 0 0 139.511 3.08 A 0.952 0.952 0 0 0 139.946 2.823 A 1.018 1.018 0 0 0 140.221 2.26 A 1.426 1.426 0 0 0 140.238 2.035 A 1.282 1.282 0 0 0 140.188 1.668 A 1.013 1.013 0 0 0 139.935 1.239 Q 139.632 0.932 139.166 0.932 Z M 8.284 5.418 L 8.284 4.443 L 7.646 4.443 Q 6.152 4.443 6.152 5.317 Q 6.152 5.7 6.407 5.915 A 0.893 0.893 0 0 0 6.821 6.108 A 1.259 1.259 0 0 0 7.062 6.13 A 1.429 1.429 0 0 0 7.787 5.933 A 1.335 1.335 0 0 0 8.083 5.705 A 1.108 1.108 0 0 0 8.284 5.418 Z M 153.246 5.418 L 153.246 4.443 L 152.609 4.443 Q 151.115 4.443 151.115 5.317 Q 151.115 5.7 151.37 5.915 A 0.893 0.893 0 0 0 151.783 6.108 A 1.259 1.259 0 0 0 152.024 6.13 A 1.429 1.429 0 0 0 152.75 5.933 A 1.335 1.335 0 0 0 153.045 5.705 A 1.108 1.108 0 0 0 153.246 5.418 Z M 38.057 3.938 L 40.438 3.938 L 40.438 3.876 Q 40.412 3.417 40.242 3.111 A 1.13 1.13 0 0 0 40.104 2.916 A 0.983 0.983 0 0 0 39.45 2.584 A 1.39 1.39 0 0 0 39.296 2.575 A 1.106 1.106 0 0 0 38.773 2.698 A 1.14 1.14 0 0 0 38.47 2.933 A 1.417 1.417 0 0 0 38.193 3.379 Q 38.119 3.563 38.08 3.785 A 2.741 2.741 0 0 0 38.057 3.938 Z M 56.905 3.938 L 59.287 3.938 L 59.287 3.876 Q 59.261 3.417 59.09 3.111 A 1.13 1.13 0 0 0 58.953 2.916 A 0.983 0.983 0 0 0 58.298 2.584 A 1.39 1.39 0 0 0 58.144 2.575 A 1.106 1.106 0 0 0 57.622 2.698 A 1.14 1.14 0 0 0 57.318 2.933 A 1.417 1.417 0 0 0 57.041 3.379 Q 56.968 3.563 56.928 3.785 A 2.741 2.741 0 0 0 56.905 3.938 Z M 86.55 3.938 L 88.932 3.938 L 88.932 3.876 Q 88.906 3.417 88.735 3.111 A 1.13 1.13 0 0 0 88.598 2.916 A 0.983 0.983 0 0 0 87.944 2.584 A 1.39 1.39 0 0 0 87.79 2.575 A 1.106 1.106 0 0 0 87.267 2.698 A 1.14 1.14 0 0 0 86.963 2.933 A 1.417 1.417 0 0 0 86.687 3.379 Q 86.613 3.563 86.573 3.785 A 2.741 2.741 0 0 0 86.55 3.938 Z M 106.932 3.938 L 109.314 3.938 L 109.314 3.876 Q 109.288 3.417 109.117 3.111 A 1.13 1.13 0 0 0 108.98 2.916 A 0.983 0.983 0 0 0 108.326 2.584 A 1.39 1.39 0 0 0 108.171 2.575 A 1.106 1.106 0 0 0 107.649 2.698 A 1.14 1.14 0 0 0 107.345 2.933 A 1.417 1.417 0 0 0 107.069 3.379 Q 106.995 3.563 106.955 3.785 A 2.741 2.741 0 0 0 106.932 3.938 Z M 125.837 3.938 L 128.219 3.938 L 128.219 3.876 Q 128.193 3.417 128.023 3.111 A 1.13 1.13 0 0 0 127.885 2.916 A 0.983 0.983 0 0 0 127.231 2.584 A 1.39 1.39 0 0 0 127.077 2.575 A 1.106 1.106 0 0 0 126.554 2.698 A 1.14 1.14 0 0 0 126.25 2.933 A 1.417 1.417 0 0 0 125.974 3.379 Q 125.9 3.563 125.86 3.785 A 2.741 2.741 0 0 0 125.837 3.938 Z M 75.85 0.734 Q 75.85 0.536 75.97 0.4 Q 76.082 0.274 76.294 0.264 A 0.783 0.783 0 0 1 76.329 0.264 Q 76.566 0.264 76.689 0.4 A 0.474 0.474 0 0 1 76.811 0.703 A 0.614 0.614 0 0 1 76.812 0.734 A 0.523 0.523 0 0 1 76.787 0.9 A 0.442 0.442 0 0 1 76.689 1.063 Q 76.576 1.184 76.368 1.194 A 0.803 0.803 0 0 1 76.329 1.195 Q 76.156 1.195 76.045 1.126 A 0.362 0.362 0 0 1 75.97 1.063 A 0.456 0.456 0 0 1 75.852 0.788 A 0.605 0.605 0 0 1 75.85 0.734 Z M 118.723 0.734 Q 118.723 0.536 118.844 0.4 Q 118.955 0.274 119.167 0.264 A 0.783 0.783 0 0 1 119.202 0.264 Q 119.439 0.264 119.562 0.4 A 0.474 0.474 0 0 1 119.684 0.703 A 0.614 0.614 0 0 1 119.685 0.734 A 0.523 0.523 0 0 1 119.66 0.9 A 0.442 0.442 0 0 1 119.562 1.063 Q 119.45 1.184 119.241 1.194 A 0.803 0.803 0 0 1 119.202 1.195 Q 119.029 1.195 118.918 1.126 A 0.362 0.362 0 0 1 118.844 1.063 A 0.456 0.456 0 0 1 118.725 0.788 A 0.605 0.605 0 0 1 118.723 0.734 Z M 104.129 0.539 A 0.515 0.515 0 0 0 104.093 0.734 Q 104.093 0.932 104.212 1.063 Q 104.293 1.154 104.431 1.182 A 0.679 0.679 0 0 0 104.568 1.195 A 0.803 0.803 0 0 0 104.608 1.194 Q 104.816 1.184 104.928 1.063 A 0.442 0.442 0 0 0 105.026 0.9 A 0.523 0.523 0 0 0 105.051 0.734 A 0.614 0.614 0 0 0 105.051 0.703 A 0.474 0.474 0 0 0 104.928 0.4 Q 104.805 0.264 104.568 0.264 A 0.768 0.768 0 0 0 104.555 0.264 Q 104.332 0.268 104.214 0.402 A 0.482 0.482 0 0 0 104.129 0.539 Z" vector-effect="non-scaling-stroke"/></g>
</svg>