<?xml version="1.0" encoding="UTF-8"?>
<svg width="48px" height="48px" viewBox="0 0 48 48" version="1.1" xmlns="http://www.w3.org/2000/svg" xmlns:xlink="http://www.w3.org/1999/xlink">
    <title>Icon-Resource/Storage/Res_AWS-Backup_AWS-Backup-support-for-Amazon-S3_48_Dark</title>
    <g id="Icon-Resource/Storage/Res_AWS-Backup_AWS-Backup-support-for-Amazon-S3_48" stroke="none" stroke-width="1" fill="none" fill-rule="evenodd">
        <path transform="translate(0vw, 0vh), scale(.65)" d="M39.5230246,40.8829 C39.5170246,40.9259 39.5150246,40.9589 39.5150246,41.0029 C39.4880246,41.1189 39.1210246,41.5609 37.8450246,42.0599 C37.2100246,42.3069 36.4590246,42.5309 35.6110246,42.7239 C33.4170246,43.2259 30.7240246,43.5019 28.0290246,43.5019 C20.8510246,43.5019 16.7250246,41.7499 16.5450246,41.0139 C16.5450246,40.9679 16.5430246,40.9219 16.5360246,40.8759 L15.4330246,32.9969 C16.1480246,33.0979 16.8720246,33.1539 17.6010246,33.1539 C19.0610246,33.1539 20.5400246,32.9399 21.9970246,32.5079 L20.2840246,35.7629 L22.0530246,36.6949 L24.8450246,31.3899 C25.1030246,30.9009 24.9150246,30.2969 24.4260246,30.0389 L19.1220246,27.2469 L18.1900246,29.0169 L21.2730246,30.6389 C19.2250246,31.2199 17.1350246,31.2819 15.1420246,30.9139 L13.0880246,16.2369 C16.4150246,17.9139 22.6230246,18.5679 28.1900246,18.5679 C33.5590246,18.5679 39.5420246,17.9199 42.7800246,16.2639 L39.5230246,40.8829 Z M45.1710246,13.4349 L45.1610246,13.4339 C45.1630246,13.3889 45.1800246,13.3489 45.1800246,13.3039 C45.1800246,9.5649 37.0570246,8.2219 34.5670246,7.8999 L34.3110246,9.8829 C40.8690246,10.7319 43.1230246,12.5469 43.1750246,13.2769 L43.1620246,13.3739 C42.9760246,14.5559 37.9820246,16.5679 28.1900246,16.5679 C18.1970246,16.5679 12.8900246,14.5269 12.6870246,13.3739 L12.6730246,13.2769 C12.7350246,12.4439 15.7980246,10.5419 22.7980246,9.7889 L22.5840246,7.7999 C16.8230246,8.4209 10.6680246,10.1919 10.6680246,13.3039 C10.6680246,13.3519 10.6860246,13.3939 10.6890246,13.4409 L10.6770246,13.4429 L13.0440246,30.3539 C9.45802457,29.0769 6.41902457,26.3219 4.93302457,22.5059 C2.21802457,15.5309 5.68302457,7.6479 12.6580246,4.9329 C16.0380246,3.6169 19.7240246,3.6959 23.0440246,5.1549 C26.3620246,6.6129 28.9150246,9.2779 30.2280246,12.6509 L30.3060246,12.8559 L32.1750246,12.1449 L32.0930246,11.9299 C30.5850246,8.0539 27.6560246,4.9979 23.8480246,3.3239 C20.0390246,1.6499 15.8070246,1.5609 11.9310246,3.0699 C8.05502457,4.5779 4.99902457,7.5069 3.32502457,11.3149 C1.65102457,15.1229 1.56002457,19.3549 3.07002457,23.2309 C4.90902457,27.9539 8.81602457,31.2649 13.3520246,32.5529 L14.5470246,41.0959 C14.6790246,44.3269 22.6540246,45.5019 28.0290246,45.5019 C30.8700246,45.5019 33.7210246,45.2079 36.0550246,44.6739 C37.0000246,44.4589 37.8460246,44.2059 38.5730246,43.9229 C40.4820246,43.1759 41.4700246,42.2239 41.5130246,41.0909 L45.1710246,13.4349 Z" id="Fill-1" fill="#000000"></path>
    </g><g transform="translate(33vw, 80vh)" id="svgGroup" stroke-linecap="round" fill-rule="evenodd" font-size="9pt" stroke="#000" stroke-width="0.25mm" fill="#000" style="stroke:#000;stroke-width:0.25mm;fill:#000"><path d="M 23.12 0.088 L 24.13 4.469 L 24.253 5.313 L 24.434 4.553 L 25.699 0.088 L 26.411 0.088 L 27.646 4.553 L 27.822 5.326 L 27.958 4.465 L 28.951 0.088 L 29.799 0.088 L 28.248 6.486 L 27.479 6.486 L 26.161 1.824 L 26.06 1.336 L 25.958 1.824 L 24.592 6.486 L 23.823 6.486 L 22.276 0.088 L 23.12 0.088 Z M 34.98 1.938 L 34.132 1.938 A 1.466 1.466 0 0 0 34.083 1.546 A 1.066 1.066 0 0 0 33.763 1.026 A 1.211 1.211 0 0 0 33.294 0.77 Q 33.042 0.694 32.722 0.694 A 2.286 2.286 0 0 0 32.342 0.724 Q 32.14 0.758 31.977 0.831 A 1.101 1.101 0 0 0 31.748 0.969 A 0.892 0.892 0 0 0 31.403 1.624 A 1.267 1.267 0 0 0 31.399 1.732 A 0.806 0.806 0 0 0 31.667 2.337 A 1.134 1.134 0 0 0 31.731 2.393 A 1.562 1.562 0 0 0 31.969 2.549 Q 32.299 2.73 32.86 2.887 A 8.228 8.228 0 0 1 33.325 3.032 Q 33.56 3.113 33.754 3.2 A 3.297 3.297 0 0 1 34.108 3.382 A 2.342 2.342 0 0 1 34.447 3.626 Q 34.637 3.792 34.759 3.985 A 1.45 1.45 0 0 1 34.776 4.012 A 1.498 1.498 0 0 1 34.972 4.568 A 1.948 1.948 0 0 1 34.994 4.86 A 1.606 1.606 0 0 1 34.871 5.497 Q 34.726 5.838 34.408 6.09 A 1.886 1.886 0 0 1 34.387 6.106 Q 33.781 6.574 32.766 6.574 A 3.023 3.023 0 0 1 31.625 6.36 A 2.917 2.917 0 0 1 31.535 6.322 A 2.383 2.383 0 0 1 31.057 6.044 A 1.874 1.874 0 0 1 30.654 5.629 A 1.689 1.689 0 0 1 30.344 4.632 L 31.192 4.632 A 1.261 1.261 0 0 0 31.262 5.059 A 1.074 1.074 0 0 0 31.621 5.548 Q 32.005 5.85 32.622 5.881 A 2.87 2.87 0 0 0 32.766 5.884 A 2.628 2.628 0 0 0 33.153 5.858 Q 33.349 5.828 33.508 5.767 A 1.129 1.129 0 0 0 33.79 5.612 Q 34.146 5.339 34.146 4.869 A 1.074 1.074 0 0 0 34.103 4.559 A 0.816 0.816 0 0 0 33.816 4.142 Q 33.486 3.885 32.621 3.634 Q 31.535 3.322 31.041 2.868 Q 30.546 2.413 30.546 1.745 Q 30.546 0.989 31.151 0.494 A 2.121 2.121 0 0 1 32.041 0.071 A 3.087 3.087 0 0 1 32.722 0 A 2.913 2.913 0 0 1 33.382 0.072 A 2.372 2.372 0 0 1 33.897 0.255 A 2.051 2.051 0 0 1 34.428 0.626 A 1.834 1.834 0 0 1 34.697 0.958 A 1.798 1.798 0 0 1 34.98 1.938 Z M 3.74 6.486 L 2.351 3.898 L 0.848 3.898 L 0.848 6.486 L 0 6.486 L 0 0.088 L 2.118 0.088 A 3.809 3.809 0 0 1 2.76 0.138 Q 3.102 0.197 3.376 0.324 A 1.789 1.789 0 0 1 3.781 0.58 A 1.588 1.588 0 0 1 4.307 1.469 A 2.453 2.453 0 0 1 4.364 2.013 A 1.864 1.864 0 0 1 4.273 2.604 A 1.64 1.64 0 0 1 4.041 3.054 A 1.849 1.849 0 0 1 3.382 3.611 A 2.342 2.342 0 0 1 3.142 3.718 L 4.645 6.434 L 4.645 6.486 L 3.74 6.486 Z M 13.724 3.129 L 12.907 3.129 Q 12.907 2.795 12.623 2.553 Q 12.34 2.312 11.909 2.312 Q 11.465 2.312 11.215 2.505 A 0.653 0.653 0 0 0 11.04 2.704 Q 10.967 2.835 10.964 3 A 0.771 0.771 0 0 0 10.964 3.01 A 0.588 0.588 0 0 0 10.994 3.203 A 0.48 0.48 0 0 0 11.197 3.454 A 1.093 1.093 0 0 0 11.348 3.533 Q 11.512 3.605 11.767 3.673 A 6.581 6.581 0 0 0 12.039 3.74 A 6.318 6.318 0 0 1 12.446 3.845 Q 12.783 3.944 13.025 4.065 A 1.901 1.901 0 0 1 13.281 4.218 Q 13.418 4.315 13.516 4.429 A 1.06 1.06 0 0 1 13.586 4.52 A 1.024 1.024 0 0 1 13.748 4.927 A 1.388 1.388 0 0 1 13.768 5.168 Q 13.768 5.805 13.258 6.19 Q 12.776 6.554 12.022 6.573 A 3.337 3.337 0 0 1 11.936 6.574 A 2.746 2.746 0 0 1 11.401 6.525 A 2.124 2.124 0 0 1 10.925 6.372 A 1.771 1.771 0 0 1 10.491 6.094 A 1.54 1.54 0 0 1 10.237 5.807 Q 9.989 5.445 9.989 5.023 L 10.802 5.023 A 0.932 0.932 0 0 0 10.875 5.348 A 0.827 0.827 0 0 0 11.129 5.671 A 1.072 1.072 0 0 0 11.531 5.864 Q 11.686 5.903 11.867 5.91 A 2.013 2.013 0 0 0 11.936 5.911 A 1.863 1.863 0 0 0 12.231 5.889 Q 12.393 5.863 12.524 5.806 A 0.941 0.941 0 0 0 12.676 5.724 A 0.689 0.689 0 0 0 12.841 5.574 A 0.554 0.554 0 0 0 12.955 5.225 A 0.698 0.698 0 0 0 12.919 4.994 A 0.581 0.581 0 0 0 12.707 4.713 A 1.05 1.05 0 0 0 12.538 4.615 Q 12.349 4.524 12.054 4.449 A 5.392 5.392 0 0 0 11.841 4.399 A 6.342 6.342 0 0 1 11.48 4.311 Q 11.11 4.209 10.861 4.083 Q 10.562 3.93 10.392 3.731 A 1.017 1.017 0 0 1 10.325 3.643 Q 10.151 3.388 10.151 3.037 A 1.206 1.206 0 0 1 10.55 2.132 A 1.694 1.694 0 0 1 10.646 2.048 A 1.752 1.752 0 0 1 11.429 1.688 A 2.471 2.471 0 0 1 11.909 1.644 A 2.559 2.559 0 0 1 12.473 1.702 A 1.757 1.757 0 0 1 13.221 2.061 Q 13.724 2.479 13.724 3.129 Z M 21.327 6.486 L 20.716 4.816 L 18.035 4.816 L 17.433 6.486 L 16.563 6.486 L 19.006 0.088 L 19.745 0.088 L 22.192 6.486 L 21.327 6.486 Z M 5.212 4.241 L 5.212 4.091 A 3.17 3.17 0 0 1 5.288 3.382 A 2.581 2.581 0 0 1 5.482 2.828 A 2.191 2.191 0 0 1 5.93 2.202 A 2.033 2.033 0 0 1 6.238 1.958 Q 6.724 1.644 7.291 1.644 A 2.254 2.254 0 0 1 7.904 1.723 A 1.639 1.639 0 0 1 8.732 2.254 Q 9.246 2.865 9.246 4.003 L 9.246 4.342 L 6.025 4.342 A 2.111 2.111 0 0 0 6.096 4.85 A 1.516 1.516 0 0 0 6.436 5.478 A 1.282 1.282 0 0 0 7.37 5.909 A 1.652 1.652 0 0 0 7.436 5.911 A 1.763 1.763 0 0 0 7.764 5.882 Q 7.988 5.839 8.165 5.735 A 1.827 1.827 0 0 0 8.674 5.287 A 2.068 2.068 0 0 0 8.688 5.269 L 9.185 5.656 A 1.926 1.926 0 0 1 7.785 6.547 A 2.749 2.749 0 0 1 7.392 6.574 A 2.394 2.394 0 0 1 6.64 6.461 A 1.974 1.974 0 0 1 5.818 5.939 Q 5.212 5.304 5.212 4.241 Z M 0.848 0.782 L 0.848 3.208 L 2.145 3.208 Q 2.685 3.208 3.035 2.968 A 1.174 1.174 0 0 0 3.144 2.883 A 1.069 1.069 0 0 0 3.51 2.146 A 1.486 1.486 0 0 0 3.516 2.013 Q 3.516 1.47 3.22 1.159 A 1 1 0 0 0 3.162 1.103 Q 2.808 0.787 2.14 0.782 L 0.848 0.782 Z M 19.375 1.129 L 18.29 4.122 L 20.465 4.122 L 19.375 1.129 Z M 6.051 3.674 L 8.433 3.674 L 8.433 3.612 Q 8.407 3.153 8.236 2.848 A 1.13 1.13 0 0 0 8.099 2.652 A 0.983 0.983 0 0 0 7.445 2.32 A 1.39 1.39 0 0 0 7.291 2.312 A 1.106 1.106 0 0 0 6.768 2.435 A 1.14 1.14 0 0 0 6.464 2.67 A 1.417 1.417 0 0 0 6.188 3.116 Q 6.114 3.3 6.074 3.522 A 2.741 2.741 0 0 0 6.051 3.674 Z" vector-effect="non-scaling-stroke"/></g><g transform="translate(12vw, 90vh)" id="svgGroup" stroke-linecap="round" fill-rule="evenodd" font-size="9pt" stroke="#000" stroke-width="0.25mm" fill="#000" style="stroke:#000;stroke-width:0.25mm;fill:#000"><path d="M 37.947 0.444 L 38.958 4.825 L 39.081 5.669 L 39.261 4.909 L 40.526 0.444 L 41.238 0.444 L 42.473 4.909 L 42.649 5.682 L 42.785 4.821 L 43.778 0.444 L 44.626 0.444 L 43.075 6.842 L 42.306 6.842 L 40.988 2.18 L 40.887 1.692 L 40.786 2.18 L 39.419 6.842 L 38.65 6.842 L 37.103 0.444 L 37.947 0.444 Z M 137.457 2.087 L 138.226 2.087 L 138.248 2.615 Q 138.771 2 139.658 2 A 2.009 2.009 0 0 1 140.169 2.06 A 1.244 1.244 0 0 1 141.016 2.764 A 1.801 1.801 0 0 1 141.634 2.21 A 1.65 1.65 0 0 1 142.163 2.029 A 2.209 2.209 0 0 1 142.532 2 A 2.119 2.119 0 0 1 143.176 2.089 Q 144.103 2.385 144.123 3.656 L 144.123 6.842 L 143.31 6.842 L 143.31 3.705 A 1.781 1.781 0 0 0 143.29 3.425 Q 143.266 3.277 143.215 3.159 A 0.758 0.758 0 0 0 143.077 2.942 A 0.68 0.68 0 0 0 142.824 2.774 Q 142.613 2.69 142.296 2.689 A 1.245 1.245 0 0 0 141.93 2.741 A 1.008 1.008 0 0 0 141.543 2.96 A 1.042 1.042 0 0 0 141.229 3.496 A 1.41 1.41 0 0 0 141.196 3.687 L 141.196 6.842 L 140.379 6.842 L 140.379 3.727 A 1.532 1.532 0 0 0 140.33 3.322 Q 140.204 2.86 139.746 2.735 A 1.457 1.457 0 0 0 139.364 2.689 Q 138.59 2.689 138.289 3.327 A 1.459 1.459 0 0 0 138.27 3.371 L 138.27 6.842 L 137.457 6.842 L 137.457 2.087 Z M 49.808 2.294 L 48.959 2.294 A 1.466 1.466 0 0 0 48.91 1.901 A 1.066 1.066 0 0 0 48.59 1.382 A 1.211 1.211 0 0 0 48.121 1.126 Q 47.869 1.05 47.549 1.05 A 2.286 2.286 0 0 0 47.169 1.08 Q 46.967 1.114 46.805 1.187 A 1.101 1.101 0 0 0 46.575 1.325 A 0.892 0.892 0 0 0 46.231 1.98 A 1.267 1.267 0 0 0 46.226 2.087 A 0.806 0.806 0 0 0 46.494 2.693 A 1.134 1.134 0 0 0 46.558 2.749 A 1.562 1.562 0 0 0 46.796 2.905 Q 47.126 3.086 47.687 3.243 A 8.228 8.228 0 0 1 48.152 3.388 Q 48.387 3.469 48.582 3.556 A 3.297 3.297 0 0 1 48.935 3.738 A 2.342 2.342 0 0 1 49.274 3.982 Q 49.464 4.148 49.586 4.341 A 1.45 1.45 0 0 1 49.603 4.368 A 1.498 1.498 0 0 1 49.8 4.924 A 1.948 1.948 0 0 1 49.821 5.216 A 1.606 1.606 0 0 1 49.698 5.853 Q 49.553 6.193 49.235 6.446 A 1.886 1.886 0 0 1 49.214 6.462 Q 48.608 6.93 47.593 6.93 A 3.023 3.023 0 0 1 46.452 6.715 A 2.917 2.917 0 0 1 46.362 6.677 A 2.383 2.383 0 0 1 45.884 6.4 A 1.874 1.874 0 0 1 45.481 5.985 A 1.689 1.689 0 0 1 45.171 4.988 L 46.02 4.988 A 1.261 1.261 0 0 0 46.089 5.415 A 1.074 1.074 0 0 0 46.448 5.904 Q 46.833 6.206 47.449 6.237 A 2.87 2.87 0 0 0 47.593 6.24 A 2.628 2.628 0 0 0 47.98 6.214 Q 48.176 6.184 48.335 6.123 A 1.129 1.129 0 0 0 48.617 5.968 Q 48.973 5.695 48.973 5.225 A 1.074 1.074 0 0 0 48.93 4.915 A 0.816 0.816 0 0 0 48.643 4.498 Q 48.313 4.241 47.448 3.99 Q 46.362 3.678 45.868 3.223 Q 45.374 2.769 45.374 2.101 Q 45.374 1.345 45.978 0.85 A 2.121 2.121 0 0 1 46.868 0.427 A 3.087 3.087 0 0 1 47.549 0.356 A 2.913 2.913 0 0 1 48.209 0.428 A 2.372 2.372 0 0 1 48.724 0.611 A 2.051 2.051 0 0 1 49.255 0.982 A 1.834 1.834 0 0 1 49.524 1.314 A 1.798 1.798 0 0 1 49.808 2.294 Z M 171.334 2.294 L 170.486 2.294 A 1.466 1.466 0 0 0 170.436 1.901 A 1.066 1.066 0 0 0 170.117 1.382 A 1.211 1.211 0 0 0 169.647 1.126 Q 169.396 1.05 169.075 1.05 A 2.286 2.286 0 0 0 168.695 1.08 Q 168.493 1.114 168.331 1.187 A 1.101 1.101 0 0 0 168.102 1.325 A 0.892 0.892 0 0 0 167.757 1.98 A 1.267 1.267 0 0 0 167.752 2.087 A 0.806 0.806 0 0 0 168.02 2.693 A 1.134 1.134 0 0 0 168.084 2.749 A 1.562 1.562 0 0 0 168.322 2.905 Q 168.653 3.086 169.214 3.243 A 8.228 8.228 0 0 1 169.678 3.388 Q 169.913 3.469 170.108 3.556 A 3.297 3.297 0 0 1 170.462 3.738 A 2.342 2.342 0 0 1 170.8 3.982 Q 170.99 4.148 171.113 4.341 A 1.45 1.45 0 0 1 171.13 4.368 A 1.498 1.498 0 0 1 171.326 4.924 A 1.948 1.948 0 0 1 171.347 5.216 A 1.606 1.606 0 0 1 171.225 5.853 Q 171.079 6.193 170.761 6.446 A 1.886 1.886 0 0 1 170.741 6.462 Q 170.134 6.93 169.119 6.93 A 3.023 3.023 0 0 1 167.978 6.715 A 2.917 2.917 0 0 1 167.889 6.677 A 2.383 2.383 0 0 1 167.411 6.4 A 1.874 1.874 0 0 1 167.008 5.985 A 1.689 1.689 0 0 1 166.698 4.988 L 167.546 4.988 A 1.261 1.261 0 0 0 167.615 5.415 A 1.074 1.074 0 0 0 167.974 5.904 Q 168.359 6.206 168.975 6.237 A 2.87 2.87 0 0 0 169.119 6.24 A 2.628 2.628 0 0 0 169.506 6.214 Q 169.702 6.184 169.861 6.123 A 1.129 1.129 0 0 0 170.143 5.968 Q 170.499 5.695 170.499 5.225 A 1.074 1.074 0 0 0 170.456 4.915 A 0.816 0.816 0 0 0 170.169 4.498 Q 169.84 4.241 168.974 3.99 Q 167.889 3.678 167.394 3.223 Q 166.9 2.769 166.9 2.101 Q 166.9 1.345 167.504 0.85 A 2.121 2.121 0 0 1 168.395 0.427 A 3.087 3.087 0 0 1 169.075 0.356 A 2.913 2.913 0 0 1 169.735 0.428 A 2.372 2.372 0 0 1 170.251 0.611 A 2.051 2.051 0 0 1 170.782 0.982 A 1.834 1.834 0 0 1 171.051 1.314 A 1.798 1.798 0 0 1 171.334 2.294 Z M 173.399 3.911 L 173.399 3.248 L 174.01 3.248 Q 174.468 3.241 174.77 3.053 A 1.045 1.045 0 0 0 174.916 2.944 A 0.97 0.97 0 0 0 175.235 2.317 A 1.373 1.373 0 0 0 175.245 2.149 A 1.626 1.626 0 0 0 175.19 1.704 Q 175.047 1.204 174.54 1.072 A 1.645 1.645 0 0 0 174.125 1.024 A 1.495 1.495 0 0 0 173.762 1.065 A 1.044 1.044 0 0 0 173.283 1.325 A 1.004 1.004 0 0 0 172.981 1.936 A 1.405 1.405 0 0 0 172.969 2.123 L 172.156 2.123 A 1.698 1.698 0 0 1 172.31 1.392 A 1.68 1.68 0 0 1 172.712 0.859 A 1.924 1.924 0 0 1 173.764 0.38 A 2.615 2.615 0 0 1 174.125 0.356 A 2.758 2.758 0 0 1 174.701 0.413 Q 175.068 0.491 175.347 0.678 A 1.593 1.593 0 0 1 175.544 0.835 A 1.57 1.57 0 0 1 176.01 1.682 A 2.336 2.336 0 0 1 176.058 2.167 A 1.332 1.332 0 0 1 175.906 2.778 A 1.725 1.725 0 0 1 175.788 2.975 A 1.624 1.624 0 0 1 175.088 3.544 A 1.952 1.952 0 0 1 175.052 3.56 A 1.81 1.81 0 0 1 175.487 3.76 A 1.44 1.44 0 0 1 175.867 4.113 Q 176.155 4.5 176.155 5.058 Q 176.155 5.919 175.592 6.425 A 1.935 1.935 0 0 1 174.636 6.885 A 2.738 2.738 0 0 1 174.129 6.93 A 2.716 2.716 0 0 1 173.482 6.857 A 1.936 1.936 0 0 1 172.663 6.442 Q 172.099 5.955 172.099 5.155 L 172.916 5.155 A 1.255 1.255 0 0 0 172.966 5.519 A 0.978 0.978 0 0 0 173.246 5.963 A 1.113 1.113 0 0 0 173.76 6.227 A 1.643 1.643 0 0 0 174.129 6.267 Q 174.718 6.267 175.03 5.959 Q 175.317 5.676 175.34 5.165 A 2.011 2.011 0 0 0 175.342 5.076 A 1.451 1.451 0 0 0 175.302 4.726 A 0.962 0.962 0 0 0 174.999 4.219 A 1.13 1.13 0 0 0 174.611 4.002 Q 174.353 3.916 174.01 3.911 L 173.399 3.911 Z M 18.066 6.842 L 16.409 4.641 L 15.899 5.172 L 15.899 6.842 L 15.086 6.842 L 15.086 0.092 L 15.899 0.092 L 15.899 4.175 L 16.334 3.652 L 17.815 2.087 L 18.804 2.087 L 16.954 4.074 L 19.02 6.842 L 18.066 6.842 Z M 71.196 6.842 L 69.539 4.641 L 69.029 5.172 L 69.029 6.842 L 68.216 6.842 L 68.216 0.092 L 69.029 0.092 L 69.029 4.175 L 69.464 3.652 L 70.945 2.087 L 71.934 2.087 L 70.084 4.074 L 72.149 6.842 L 71.196 6.842 Z M 208.745 6.842 L 207.088 4.641 L 206.578 5.172 L 206.578 6.842 L 205.765 6.842 L 205.765 0.092 L 206.578 0.092 L 206.578 4.175 L 207.013 3.652 L 208.494 2.087 L 209.483 2.087 L 207.633 4.074 L 209.698 6.842 L 208.745 6.842 Z M 88.55 3.485 L 87.732 3.485 Q 87.732 3.151 87.449 2.909 Q 87.166 2.667 86.735 2.667 Q 86.291 2.667 86.041 2.861 A 0.653 0.653 0 0 0 85.865 3.059 Q 85.792 3.191 85.79 3.356 A 0.771 0.771 0 0 0 85.79 3.366 A 0.588 0.588 0 0 0 85.82 3.559 A 0.48 0.48 0 0 0 86.023 3.81 A 1.093 1.093 0 0 0 86.173 3.889 Q 86.337 3.96 86.593 4.029 A 6.581 6.581 0 0 0 86.865 4.096 A 6.318 6.318 0 0 1 87.272 4.2 Q 87.609 4.3 87.851 4.421 A 1.901 1.901 0 0 1 88.107 4.573 Q 88.244 4.671 88.341 4.785 A 1.06 1.06 0 0 1 88.411 4.876 A 1.024 1.024 0 0 1 88.574 5.283 A 1.388 1.388 0 0 1 88.594 5.524 Q 88.594 6.161 88.084 6.546 Q 87.602 6.91 86.848 6.929 A 3.337 3.337 0 0 1 86.761 6.93 A 2.746 2.746 0 0 1 86.227 6.88 A 2.124 2.124 0 0 1 85.75 6.728 A 1.771 1.771 0 0 1 85.317 6.45 A 1.54 1.54 0 0 1 85.063 6.163 Q 84.814 5.801 84.814 5.379 L 85.627 5.379 A 0.932 0.932 0 0 0 85.701 5.704 A 0.827 0.827 0 0 0 85.955 6.027 A 1.072 1.072 0 0 0 86.357 6.22 Q 86.511 6.259 86.693 6.265 A 2.013 2.013 0 0 0 86.761 6.267 A 1.863 1.863 0 0 0 87.057 6.245 Q 87.218 6.219 87.35 6.162 A 0.941 0.941 0 0 0 87.502 6.08 A 0.689 0.689 0 0 0 87.666 5.929 A 0.554 0.554 0 0 0 87.781 5.581 A 0.698 0.698 0 0 0 87.744 5.35 A 0.581 0.581 0 0 0 87.532 5.069 A 1.05 1.05 0 0 0 87.364 4.971 Q 87.175 4.88 86.88 4.805 A 5.392 5.392 0 0 0 86.667 4.755 A 6.342 6.342 0 0 1 86.306 4.667 Q 85.936 4.565 85.687 4.438 Q 85.388 4.286 85.217 4.086 A 1.017 1.017 0 0 1 85.151 3.999 Q 84.977 3.744 84.977 3.393 A 1.206 1.206 0 0 1 85.376 2.488 A 1.694 1.694 0 0 1 85.471 2.404 A 1.752 1.752 0 0 1 86.254 2.044 A 2.471 2.471 0 0 1 86.735 2 A 2.559 2.559 0 0 1 87.298 2.058 A 1.757 1.757 0 0 1 88.047 2.417 Q 88.55 2.834 88.55 3.485 Z M 159.768 2.087 L 160.537 2.087 L 160.563 2.685 Q 161.099 2.01 161.959 2 A 2.234 2.234 0 0 1 161.987 2 A 1.905 1.905 0 0 1 162.62 2.096 Q 163.462 2.392 163.505 3.598 A 3.668 3.668 0 0 1 163.507 3.7 L 163.507 6.842 L 162.694 6.842 L 162.694 3.696 A 1.837 1.837 0 0 0 162.672 3.416 Q 162.622 3.109 162.459 2.936 Q 162.273 2.737 161.92 2.699 A 1.66 1.66 0 0 0 161.741 2.689 A 1.253 1.253 0 0 0 161.326 2.756 A 1.123 1.123 0 0 0 161.046 2.9 A 1.432 1.432 0 0 0 160.581 3.454 L 160.581 6.842 L 159.768 6.842 L 159.768 2.087 Z M 22.597 6.842 L 22.579 6.372 A 1.526 1.526 0 0 1 21.753 6.867 Q 21.503 6.928 21.205 6.93 A 2.996 2.996 0 0 1 21.186 6.93 A 2.086 2.086 0 0 1 20.726 6.883 Q 20.295 6.785 20.028 6.489 A 1.41 1.41 0 0 1 19.745 5.991 Q 19.628 5.648 19.626 5.181 L 19.626 2.087 L 20.439 2.087 L 20.439 5.159 Q 20.439 6.129 21.147 6.229 A 1.229 1.229 0 0 0 21.318 6.24 A 1.927 1.927 0 0 0 21.769 6.191 Q 22.331 6.056 22.557 5.546 L 22.557 2.087 L 23.37 2.087 L 23.37 6.842 L 22.597 6.842 Z M 75.727 6.842 L 75.709 6.372 A 1.526 1.526 0 0 1 74.883 6.867 Q 74.633 6.928 74.335 6.93 A 2.996 2.996 0 0 1 74.316 6.93 A 2.086 2.086 0 0 1 73.856 6.883 Q 73.425 6.785 73.158 6.489 A 1.41 1.41 0 0 1 72.875 5.991 Q 72.758 5.648 72.756 5.181 L 72.756 2.087 L 73.569 2.087 L 73.569 5.159 Q 73.569 6.129 74.276 6.229 A 1.229 1.229 0 0 0 74.448 6.24 A 1.927 1.927 0 0 0 74.899 6.191 Q 75.461 6.056 75.687 5.546 L 75.687 2.087 L 76.5 2.087 L 76.5 6.842 L 75.727 6.842 Z M 92.606 6.842 L 92.588 6.372 A 1.526 1.526 0 0 1 91.762 6.867 Q 91.512 6.928 91.215 6.93 A 2.996 2.996 0 0 1 91.195 6.93 A 2.086 2.086 0 0 1 90.735 6.883 Q 90.305 6.785 90.037 6.489 A 1.41 1.41 0 0 1 89.754 5.991 Q 89.638 5.648 89.635 5.181 L 89.635 2.087 L 90.448 2.087 L 90.448 5.159 Q 90.448 6.129 91.156 6.229 A 1.229 1.229 0 0 0 91.327 6.24 A 1.927 1.927 0 0 0 91.778 6.191 Q 92.34 6.056 92.566 5.546 L 92.566 2.087 L 93.379 2.087 L 93.379 6.842 L 92.606 6.842 Z M 153.659 2.663 L 151.009 6.179 L 153.791 6.179 L 153.791 6.842 L 150.016 6.842 L 150.016 6.245 L 152.64 2.76 L 150.056 2.76 L 150.056 2.087 L 153.659 2.087 L 153.659 2.663 Z M 13.399 5.344 L 14.168 5.344 A 1.432 1.432 0 0 1 13.969 5.994 A 1.772 1.772 0 0 1 13.887 6.122 A 1.828 1.828 0 0 1 13.277 6.666 A 2.169 2.169 0 0 1 13.195 6.71 A 1.997 1.997 0 0 1 12.278 6.93 A 2.346 2.346 0 0 1 11.581 6.832 A 1.839 1.839 0 0 1 10.734 6.282 A 2.171 2.171 0 0 1 10.27 5.402 Q 10.16 5.001 10.16 4.509 L 10.16 4.373 A 3.24 3.24 0 0 1 10.224 3.717 A 2.57 2.57 0 0 1 10.415 3.138 A 2.008 2.008 0 0 1 10.855 2.523 A 1.892 1.892 0 0 1 11.147 2.298 A 1.943 1.943 0 0 1 11.903 2.026 A 2.529 2.529 0 0 1 12.274 2 A 2.196 2.196 0 0 1 12.922 2.091 A 1.786 1.786 0 0 1 13.603 2.479 A 1.693 1.693 0 0 1 14.162 3.628 A 2.239 2.239 0 0 1 14.168 3.722 L 13.399 3.722 Q 13.364 3.261 13.05 2.964 A 1.078 1.078 0 0 0 12.32 2.668 A 1.402 1.402 0 0 0 12.274 2.667 A 1.374 1.374 0 0 0 11.852 2.729 A 1.081 1.081 0 0 0 11.314 3.114 A 1.469 1.469 0 0 0 11.087 3.561 Q 11.021 3.766 10.993 4.015 A 3.514 3.514 0 0 0 10.973 4.403 L 10.973 4.557 Q 10.973 5.379 11.312 5.823 A 1.1 1.1 0 0 0 12.098 6.257 A 1.611 1.611 0 0 0 12.278 6.267 A 1.171 1.171 0 0 0 13.039 6.003 A 1.007 1.007 0 0 0 13.283 5.722 A 0.914 0.914 0 0 0 13.399 5.344 Z M 66.529 5.344 L 67.298 5.344 A 1.432 1.432 0 0 1 67.099 5.994 A 1.772 1.772 0 0 1 67.017 6.122 A 1.828 1.828 0 0 1 66.407 6.666 A 2.169 2.169 0 0 1 66.324 6.71 A 1.997 1.997 0 0 1 65.408 6.93 A 2.346 2.346 0 0 1 64.711 6.832 A 1.839 1.839 0 0 1 63.864 6.282 A 2.171 2.171 0 0 1 63.4 5.402 Q 63.29 5.001 63.29 4.509 L 63.29 4.373 A 3.24 3.24 0 0 1 63.354 3.717 A 2.57 2.57 0 0 1 63.545 3.138 A 2.008 2.008 0 0 1 63.984 2.523 A 1.892 1.892 0 0 1 64.277 2.298 A 1.943 1.943 0 0 1 65.033 2.026 A 2.529 2.529 0 0 1 65.404 2 A 2.196 2.196 0 0 1 66.052 2.091 A 1.786 1.786 0 0 1 66.733 2.479 A 1.693 1.693 0 0 1 67.292 3.628 A 2.239 2.239 0 0 1 67.298 3.722 L 66.529 3.722 Q 66.494 3.261 66.179 2.964 A 1.078 1.078 0 0 0 65.45 2.668 A 1.402 1.402 0 0 0 65.404 2.667 A 1.374 1.374 0 0 0 64.982 2.729 A 1.081 1.081 0 0 0 64.444 3.114 A 1.469 1.469 0 0 0 64.217 3.561 Q 64.151 3.766 64.123 4.015 A 3.514 3.514 0 0 0 64.103 4.403 L 64.103 4.557 Q 64.103 5.379 64.441 5.823 A 1.1 1.1 0 0 0 65.228 6.257 A 1.611 1.611 0 0 0 65.408 6.267 A 1.171 1.171 0 0 0 66.168 6.003 A 1.007 1.007 0 0 0 66.413 5.722 A 0.914 0.914 0 0 0 66.529 5.344 Z M 36.154 6.842 L 35.543 5.172 L 32.862 5.172 L 32.26 6.842 L 31.39 6.842 L 33.833 0.444 L 34.572 0.444 L 37.02 6.842 L 36.154 6.842 Z M 135.861 6.842 L 135.25 5.172 L 132.57 5.172 L 131.968 6.842 L 131.098 6.842 L 133.541 0.444 L 134.279 0.444 L 136.727 6.842 L 135.861 6.842 Z M 9.264 6.842 L 8.411 6.842 A 0.632 0.632 0 0 1 8.376 6.752 Q 8.344 6.654 8.32 6.502 A 3.997 3.997 0 0 1 8.297 6.341 Q 7.73 6.93 6.943 6.93 A 2.033 2.033 0 0 1 6.414 6.865 A 1.529 1.529 0 0 1 5.79 6.532 Q 5.339 6.135 5.339 5.524 Q 5.339 4.781 5.904 4.37 Q 6.469 3.959 7.493 3.959 L 8.284 3.959 L 8.284 3.586 A 1.152 1.152 0 0 0 8.248 3.291 A 0.828 0.828 0 0 0 8.029 2.907 Q 7.813 2.693 7.422 2.66 A 1.748 1.748 0 0 0 7.277 2.654 Q 6.842 2.654 6.548 2.874 Q 6.253 3.094 6.253 3.406 L 5.436 3.406 A 1.041 1.041 0 0 1 5.561 2.917 A 1.409 1.409 0 0 1 5.689 2.718 Q 5.941 2.386 6.374 2.193 A 2.249 2.249 0 0 1 7.15 2.005 A 2.669 2.669 0 0 1 7.326 2 A 2.65 2.65 0 0 1 7.843 2.047 Q 8.15 2.108 8.389 2.248 A 1.439 1.439 0 0 1 8.613 2.41 A 1.396 1.396 0 0 1 9.067 3.236 A 1.998 1.998 0 0 1 9.097 3.542 L 9.097 5.73 Q 9.097 6.165 9.17 6.482 A 1.707 1.707 0 0 0 9.264 6.772 L 9.264 6.842 Z M 62.394 6.842 L 61.541 6.842 A 0.632 0.632 0 0 1 61.506 6.752 Q 61.474 6.654 61.449 6.502 A 3.997 3.997 0 0 1 61.427 6.341 Q 60.86 6.93 60.073 6.93 A 2.033 2.033 0 0 1 59.544 6.865 A 1.529 1.529 0 0 1 58.92 6.532 Q 58.469 6.135 58.469 5.524 Q 58.469 4.781 59.034 4.37 Q 59.599 3.959 60.623 3.959 L 61.414 3.959 L 61.414 3.586 A 1.152 1.152 0 0 0 61.378 3.291 A 0.828 0.828 0 0 0 61.159 2.907 Q 60.942 2.693 60.552 2.66 A 1.748 1.748 0 0 0 60.407 2.654 Q 59.972 2.654 59.678 2.874 Q 59.383 3.094 59.383 3.406 L 58.566 3.406 A 1.041 1.041 0 0 1 58.691 2.917 A 1.409 1.409 0 0 1 58.819 2.718 Q 59.071 2.386 59.504 2.193 A 2.249 2.249 0 0 1 60.28 2.005 A 2.669 2.669 0 0 1 60.456 2 A 2.65 2.65 0 0 1 60.973 2.047 Q 61.28 2.108 61.519 2.248 A 1.439 1.439 0 0 1 61.743 2.41 A 1.396 1.396 0 0 1 62.197 3.236 A 1.998 1.998 0 0 1 62.227 3.542 L 62.227 5.73 Q 62.227 6.165 62.3 6.482 A 1.707 1.707 0 0 0 62.394 6.772 L 62.394 6.842 Z M 149.137 6.842 L 148.285 6.842 A 0.632 0.632 0 0 1 148.249 6.752 Q 148.218 6.654 148.193 6.502 A 3.997 3.997 0 0 1 148.17 6.341 Q 147.604 6.93 146.817 6.93 A 2.033 2.033 0 0 1 146.288 6.865 A 1.529 1.529 0 0 1 145.663 6.532 Q 145.213 6.135 145.213 5.524 Q 145.213 4.781 145.778 4.37 Q 146.342 3.959 147.366 3.959 L 148.157 3.959 L 148.157 3.586 A 1.152 1.152 0 0 0 148.121 3.291 A 0.828 0.828 0 0 0 147.902 2.907 Q 147.686 2.693 147.296 2.66 A 1.748 1.748 0 0 0 147.151 2.654 Q 146.716 2.654 146.421 2.874 Q 146.127 3.094 146.127 3.406 L 145.31 3.406 A 1.041 1.041 0 0 1 145.434 2.917 A 1.409 1.409 0 0 1 145.562 2.718 Q 145.815 2.386 146.248 2.193 A 2.249 2.249 0 0 1 147.023 2.005 A 2.669 2.669 0 0 1 147.199 2 A 2.65 2.65 0 0 1 147.717 2.047 Q 148.024 2.108 148.263 2.248 A 1.439 1.439 0 0 1 148.487 2.41 A 1.396 1.396 0 0 1 148.94 3.236 A 1.998 1.998 0 0 1 148.97 3.542 L 148.97 5.73 Q 148.97 6.165 149.044 6.482 A 1.707 1.707 0 0 0 149.137 6.772 L 149.137 6.842 Z M 201.608 6.842 L 200.755 6.842 A 0.632 0.632 0 0 1 200.72 6.752 Q 200.689 6.654 200.664 6.502 A 3.997 3.997 0 0 1 200.641 6.341 Q 200.074 6.93 199.288 6.93 A 2.033 2.033 0 0 1 198.758 6.865 A 1.529 1.529 0 0 1 198.134 6.532 Q 197.684 6.135 197.684 5.524 Q 197.684 4.781 198.248 4.37 Q 198.813 3.959 199.837 3.959 L 200.628 3.959 L 200.628 3.586 A 1.152 1.152 0 0 0 200.592 3.291 A 0.828 0.828 0 0 0 200.373 2.907 Q 200.157 2.693 199.766 2.66 A 1.748 1.748 0 0 0 199.622 2.654 Q 199.187 2.654 198.892 2.874 Q 198.598 3.094 198.598 3.406 L 197.78 3.406 A 1.041 1.041 0 0 1 197.905 2.917 A 1.409 1.409 0 0 1 198.033 2.718 Q 198.286 2.386 198.719 2.193 A 2.249 2.249 0 0 1 199.494 2.005 A 2.669 2.669 0 0 1 199.67 2 A 2.65 2.65 0 0 1 200.187 2.047 Q 200.495 2.108 200.733 2.248 A 1.439 1.439 0 0 1 200.958 2.41 A 1.396 1.396 0 0 1 201.411 3.236 A 1.998 1.998 0 0 1 201.441 3.542 L 201.441 5.73 Q 201.441 6.165 201.515 6.482 A 1.707 1.707 0 0 0 201.608 6.772 L 201.608 6.842 Z M 28.622 4.443 L 28.622 4.518 Q 28.622 5.603 28.125 6.267 A 1.57 1.57 0 0 1 26.987 6.92 A 2.013 2.013 0 0 1 26.78 6.93 A 2.196 2.196 0 0 1 26.194 6.856 A 1.598 1.598 0 0 1 25.418 6.381 L 25.418 8.67 L 24.605 8.67 L 24.605 2.087 L 25.348 2.087 L 25.387 2.615 A 1.619 1.619 0 0 1 26.526 2.012 A 2.319 2.319 0 0 1 26.767 2 A 1.829 1.829 0 0 1 27.404 2.106 A 1.597 1.597 0 0 1 28.123 2.646 Q 28.622 3.292 28.622 4.443 Z M 81.751 4.443 L 81.751 4.518 Q 81.751 5.603 81.255 6.267 A 1.57 1.57 0 0 1 80.117 6.92 A 2.013 2.013 0 0 1 79.91 6.93 A 2.196 2.196 0 0 1 79.324 6.856 A 1.598 1.598 0 0 1 78.548 6.381 L 78.548 8.67 L 77.735 8.67 L 77.735 2.087 L 78.478 2.087 L 78.517 2.615 A 1.619 1.619 0 0 1 79.656 2.012 A 2.319 2.319 0 0 1 79.897 2 A 1.829 1.829 0 0 1 80.534 2.106 A 1.597 1.597 0 0 1 81.253 2.646 Q 81.751 3.292 81.751 4.443 Z M 98.631 4.443 L 98.631 4.518 Q 98.631 5.603 98.134 6.267 A 1.57 1.57 0 0 1 96.996 6.92 A 2.013 2.013 0 0 1 96.79 6.93 A 2.196 2.196 0 0 1 96.204 6.856 A 1.598 1.598 0 0 1 95.427 6.381 L 95.427 8.67 L 94.614 8.67 L 94.614 2.087 L 95.357 2.087 L 95.396 2.615 A 1.619 1.619 0 0 1 96.536 2.012 A 2.319 2.319 0 0 1 96.776 2 A 1.829 1.829 0 0 1 97.414 2.106 A 1.597 1.597 0 0 1 98.132 2.646 Q 98.631 3.292 98.631 4.443 Z M 103.68 4.443 L 103.68 4.518 Q 103.68 5.603 103.184 6.267 A 1.57 1.57 0 0 1 102.045 6.92 A 2.013 2.013 0 0 1 101.839 6.93 A 2.196 2.196 0 0 1 101.253 6.856 A 1.598 1.598 0 0 1 100.477 6.381 L 100.477 8.67 L 99.664 8.67 L 99.664 2.087 L 100.406 2.087 L 100.446 2.615 A 1.619 1.619 0 0 1 101.585 2.012 A 2.319 2.319 0 0 1 101.826 2 A 1.829 1.829 0 0 1 102.463 2.106 A 1.597 1.597 0 0 1 103.181 2.646 Q 103.68 3.292 103.68 4.443 Z M 2.219 6.842 L 0 6.842 L 0 0.444 L 2.092 0.444 A 4.031 4.031 0 0 1 2.665 0.482 Q 2.957 0.524 3.194 0.613 A 1.629 1.629 0 0 1 3.658 0.875 A 1.383 1.383 0 0 1 4.13 1.651 A 2.164 2.164 0 0 1 4.184 2.149 A 1.3 1.3 0 0 1 3.929 2.942 A 1.589 1.589 0 0 1 3.418 3.386 A 1.972 1.972 0 0 1 3.234 3.476 A 1.571 1.571 0 0 1 3.749 3.722 A 1.446 1.446 0 0 1 4.054 4.028 A 1.531 1.531 0 0 1 4.346 4.806 A 1.961 1.961 0 0 1 4.355 4.997 A 2.139 2.139 0 0 1 4.28 5.579 A 1.577 1.577 0 0 1 3.797 6.35 A 1.832 1.832 0 0 1 3.105 6.725 Q 2.838 6.806 2.52 6.831 A 3.81 3.81 0 0 1 2.219 6.842 Z M 55.349 6.842 L 53.13 6.842 L 53.13 0.444 L 55.222 0.444 A 4.031 4.031 0 0 1 55.795 0.482 Q 56.087 0.524 56.324 0.613 A 1.629 1.629 0 0 1 56.788 0.875 A 1.383 1.383 0 0 1 57.26 1.651 A 2.164 2.164 0 0 1 57.313 2.149 A 1.3 1.3 0 0 1 57.059 2.942 A 1.589 1.589 0 0 1 56.548 3.386 A 1.972 1.972 0 0 1 56.364 3.476 A 1.571 1.571 0 0 1 56.879 3.722 A 1.446 1.446 0 0 1 57.184 4.028 A 1.531 1.531 0 0 1 57.476 4.806 A 1.961 1.961 0 0 1 57.485 4.997 A 2.139 2.139 0 0 1 57.41 5.579 A 1.577 1.577 0 0 1 56.927 6.35 A 1.832 1.832 0 0 1 56.235 6.725 Q 55.968 6.806 55.65 6.831 A 3.81 3.81 0 0 1 55.349 6.842 Z M 119.272 6.842 L 118.459 6.842 L 118.459 2.716 L 117.708 2.716 L 117.708 2.087 L 118.459 2.087 L 118.459 1.6 Q 118.459 1.012 118.701 0.629 A 1.273 1.273 0 0 1 118.868 0.417 Q 119.276 0 120.023 0 A 2.134 2.134 0 0 1 120.582 0.075 L 120.538 0.734 Q 120.331 0.694 120.098 0.694 A 1.086 1.086 0 0 0 119.85 0.721 Q 119.629 0.773 119.487 0.925 A 0.747 0.747 0 0 0 119.321 1.221 Q 119.286 1.336 119.276 1.475 A 1.57 1.57 0 0 0 119.272 1.586 L 119.272 2.087 L 120.287 2.087 L 120.287 2.716 L 119.272 2.716 L 119.272 6.842 Z M 182.931 0.444 L 182.931 4.693 L 183.819 4.693 L 183.819 5.357 L 182.931 5.357 L 182.931 6.842 L 182.114 6.842 L 182.114 5.357 L 179.2 5.357 L 179.2 4.878 L 182.065 0.444 L 182.931 0.444 Z M 193.816 6.842 L 192.045 6.842 L 192.045 0.444 L 193.852 0.444 Q 194.687 0.444 195.328 0.813 Q 195.97 1.182 196.319 1.863 A 3.19 3.19 0 0 1 196.636 2.892 A 4.073 4.073 0 0 1 196.673 3.428 L 196.673 3.836 Q 196.673 4.742 196.323 5.423 A 2.457 2.457 0 0 1 195.326 6.469 Q 194.678 6.833 193.816 6.842 Z M 188.329 2.684 A 1.544 1.544 0 0 0 188.433 2.114 A 2.226 2.226 0 0 0 188.412 1.799 A 1.566 1.566 0 0 0 187.912 0.831 A 1.754 1.754 0 0 0 187.147 0.426 A 2.443 2.443 0 0 0 186.548 0.356 A 2.539 2.539 0 0 0 186.038 0.405 A 1.767 1.767 0 0 0 185.181 0.831 Q 184.663 1.305 184.663 2.114 A 1.808 1.808 0 0 0 184.663 2.151 A 1.499 1.499 0 0 0 184.909 2.962 A 1.626 1.626 0 0 0 185.071 3.169 A 1.726 1.726 0 0 0 185.581 3.546 A 2.119 2.119 0 0 0 185.482 3.592 A 1.738 1.738 0 0 0 184.797 4.179 A 1.629 1.629 0 0 0 184.513 5.115 A 2.272 2.272 0 0 0 184.523 5.329 A 1.63 1.63 0 0 0 185.069 6.436 A 1.895 1.895 0 0 0 185.92 6.864 A 2.797 2.797 0 0 0 186.548 6.93 A 2.796 2.796 0 0 0 187.147 6.869 A 1.925 1.925 0 0 0 188.022 6.438 A 1.578 1.578 0 0 0 188.497 5.712 A 1.989 1.989 0 0 0 188.583 5.115 A 1.581 1.581 0 0 0 188.29 4.179 Q 187.998 3.766 187.497 3.551 Q 187.928 3.34 188.18 2.966 A 1.449 1.449 0 0 0 188.329 2.684 Z M 113.181 0.936 L 113.994 0.936 L 113.994 2.087 L 114.882 2.087 L 114.882 2.716 L 113.994 2.716 L 113.994 5.665 Q 113.994 5.95 114.113 6.093 Q 114.231 6.236 114.517 6.236 A 1.046 1.046 0 0 0 114.615 6.231 Q 114.717 6.221 114.857 6.193 A 4.024 4.024 0 0 0 114.904 6.183 L 114.904 6.842 A 2.463 2.463 0 0 1 114.471 6.922 A 2.157 2.157 0 0 1 114.28 6.93 Q 113.833 6.93 113.566 6.708 A 0.856 0.856 0 0 1 113.458 6.601 Q 113.231 6.33 113.19 5.872 A 2.351 2.351 0 0 1 113.181 5.665 L 113.181 2.716 L 112.315 2.716 L 112.315 2.087 L 113.181 2.087 L 113.181 0.936 Z M 104.498 4.478 L 104.498 4.421 A 3.057 3.057 0 0 1 104.584 3.679 A 2.573 2.573 0 0 1 104.772 3.164 A 2.16 2.16 0 0 1 105.187 2.579 A 1.957 1.957 0 0 1 105.537 2.303 A 2.036 2.036 0 0 1 106.481 2.006 A 2.491 2.491 0 0 1 106.655 2 A 2.277 2.277 0 0 1 107.409 2.119 A 1.937 1.937 0 0 1 108.226 2.672 A 2.29 2.29 0 0 1 108.745 3.701 A 3.373 3.373 0 0 1 108.826 4.46 L 108.826 4.518 A 3.114 3.114 0 0 1 108.747 5.234 A 2.577 2.577 0 0 1 108.56 5.763 A 2.056 2.056 0 0 1 108.033 6.454 A 2.001 2.001 0 0 1 107.8 6.623 A 2.045 2.045 0 0 1 106.88 6.921 A 2.529 2.529 0 0 1 106.664 6.93 A 2.262 2.262 0 0 1 105.914 6.811 A 1.938 1.938 0 0 1 105.097 6.258 A 2.297 2.297 0 0 1 104.572 5.203 A 3.357 3.357 0 0 1 104.498 4.478 Z M 120.968 4.478 L 120.968 4.421 A 3.057 3.057 0 0 1 121.055 3.679 A 2.573 2.573 0 0 1 121.243 3.164 A 2.16 2.16 0 0 1 121.658 2.579 A 1.957 1.957 0 0 1 122.008 2.303 A 2.036 2.036 0 0 1 122.952 2.006 A 2.491 2.491 0 0 1 123.126 2 A 2.277 2.277 0 0 1 123.879 2.119 A 1.937 1.937 0 0 1 124.697 2.672 A 2.29 2.29 0 0 1 125.216 3.701 A 3.373 3.373 0 0 1 125.297 4.46 L 125.297 4.518 A 3.114 3.114 0 0 1 125.217 5.234 A 2.577 2.577 0 0 1 125.031 5.763 A 2.056 2.056 0 0 1 124.504 6.454 A 2.001 2.001 0 0 1 124.271 6.623 A 2.045 2.045 0 0 1 123.351 6.921 A 2.529 2.529 0 0 1 123.135 6.93 A 2.262 2.262 0 0 1 122.384 6.811 A 1.938 1.938 0 0 1 121.568 6.258 A 2.297 2.297 0 0 1 121.042 5.203 A 3.357 3.357 0 0 1 120.968 4.478 Z M 154.419 4.478 L 154.419 4.421 A 3.057 3.057 0 0 1 154.506 3.679 A 2.573 2.573 0 0 1 154.694 3.164 A 2.16 2.16 0 0 1 155.109 2.579 A 1.957 1.957 0 0 1 155.459 2.303 A 2.036 2.036 0 0 1 156.403 2.006 A 2.491 2.491 0 0 1 156.577 2 A 2.277 2.277 0 0 1 157.331 2.119 A 1.937 1.937 0 0 1 158.148 2.672 A 2.29 2.29 0 0 1 158.667 3.701 A 3.373 3.373 0 0 1 158.748 4.46 L 158.748 4.518 A 3.114 3.114 0 0 1 158.669 5.234 A 2.577 2.577 0 0 1 158.482 5.763 A 2.056 2.056 0 0 1 157.955 6.454 A 2.001 2.001 0 0 1 157.722 6.623 A 2.045 2.045 0 0 1 156.802 6.921 A 2.529 2.529 0 0 1 156.586 6.93 A 2.262 2.262 0 0 1 155.836 6.811 A 1.938 1.938 0 0 1 155.019 6.258 A 2.297 2.297 0 0 1 154.494 5.203 A 3.357 3.357 0 0 1 154.419 4.478 Z M 112.144 2.061 L 112.144 2.817 A 2.251 2.251 0 0 0 111.901 2.79 A 2.782 2.782 0 0 0 111.744 2.786 Q 110.966 2.786 110.675 3.43 A 1.445 1.445 0 0 0 110.659 3.467 L 110.659 6.842 L 109.846 6.842 L 109.846 2.087 L 110.637 2.087 L 110.65 2.637 Q 111.03 2.031 111.713 2.001 A 1.636 1.636 0 0 1 111.784 2 Q 112.021 2 112.144 2.061 Z M 128.615 2.061 L 128.615 2.817 A 2.251 2.251 0 0 0 128.372 2.79 A 2.782 2.782 0 0 0 128.215 2.786 Q 127.437 2.786 127.145 3.43 A 1.445 1.445 0 0 0 127.129 3.467 L 127.129 6.842 L 126.316 6.842 L 126.316 2.087 L 127.107 2.087 L 127.121 2.637 Q 127.501 2.031 128.184 2.001 A 1.636 1.636 0 0 1 128.254 2 Q 128.492 2 128.615 2.061 Z M 205.014 2.061 L 205.014 2.817 A 2.251 2.251 0 0 0 204.771 2.79 A 2.782 2.782 0 0 0 204.614 2.786 Q 203.836 2.786 203.544 3.43 A 1.445 1.445 0 0 0 203.528 3.467 L 203.528 6.842 L 202.715 6.842 L 202.715 2.087 L 203.506 2.087 L 203.52 2.637 Q 203.9 2.031 204.582 2.001 A 1.636 1.636 0 0 1 204.653 2 Q 204.891 2 205.014 2.061 Z M 193.874 1.138 L 192.889 1.138 L 192.889 6.152 L 193.777 6.152 A 2.519 2.519 0 0 0 194.409 6.077 A 1.747 1.747 0 0 0 195.295 5.546 Q 195.754 5.033 195.825 4.151 A 4.165 4.165 0 0 0 195.838 3.819 L 195.838 3.445 Q 195.838 2.654 195.568 2.119 A 1.864 1.864 0 0 0 195.326 1.751 A 1.687 1.687 0 0 0 194.33 1.182 A 2.499 2.499 0 0 0 193.874 1.138 Z M 105.315 4.518 A 2.772 2.772 0 0 0 105.362 5.046 Q 105.423 5.357 105.56 5.602 A 1.545 1.545 0 0 0 105.682 5.788 Q 106.049 6.267 106.664 6.267 A 1.269 1.269 0 0 0 107.153 6.175 Q 107.433 6.06 107.635 5.798 A 1.471 1.471 0 0 0 107.648 5.781 A 1.648 1.648 0 0 0 107.903 5.264 Q 107.972 5.037 107.998 4.764 A 3.655 3.655 0 0 0 108.013 4.421 A 2.687 2.687 0 0 0 107.962 3.881 Q 107.894 3.551 107.737 3.292 A 1.586 1.586 0 0 0 107.642 3.153 A 1.231 1.231 0 0 0 107.227 2.798 Q 106.974 2.667 106.655 2.667 Q 106.065 2.667 105.699 3.127 A 1.515 1.515 0 0 0 105.684 3.146 A 1.589 1.589 0 0 0 105.432 3.644 Q 105.362 3.864 105.334 4.131 A 3.676 3.676 0 0 0 105.315 4.518 Z M 121.786 4.518 A 2.772 2.772 0 0 0 121.833 5.046 Q 121.893 5.357 122.031 5.602 A 1.545 1.545 0 0 0 122.153 5.788 Q 122.52 6.267 123.135 6.267 A 1.269 1.269 0 0 0 123.624 6.175 Q 123.904 6.06 124.106 5.798 A 1.471 1.471 0 0 0 124.119 5.781 A 1.648 1.648 0 0 0 124.374 5.264 Q 124.443 5.037 124.468 4.764 A 3.655 3.655 0 0 0 124.484 4.421 A 2.687 2.687 0 0 0 124.433 3.881 Q 124.365 3.551 124.208 3.292 A 1.586 1.586 0 0 0 124.113 3.153 A 1.231 1.231 0 0 0 123.698 2.798 Q 123.444 2.667 123.126 2.667 Q 122.536 2.667 122.17 3.127 A 1.515 1.515 0 0 0 122.155 3.146 A 1.589 1.589 0 0 0 121.903 3.644 Q 121.833 3.864 121.805 4.131 A 3.676 3.676 0 0 0 121.786 4.518 Z M 155.237 4.518 A 2.772 2.772 0 0 0 155.284 5.046 Q 155.345 5.357 155.482 5.602 A 1.545 1.545 0 0 0 155.604 5.788 Q 155.971 6.267 156.586 6.267 A 1.269 1.269 0 0 0 157.075 6.175 Q 157.355 6.06 157.557 5.798 A 1.471 1.471 0 0 0 157.57 5.781 A 1.648 1.648 0 0 0 157.825 5.264 Q 157.894 5.037 157.92 4.764 A 3.655 3.655 0 0 0 157.935 4.421 A 2.687 2.687 0 0 0 157.884 3.881 Q 157.816 3.551 157.659 3.292 A 1.586 1.586 0 0 0 157.564 3.153 A 1.231 1.231 0 0 0 157.149 2.798 Q 156.896 2.667 156.577 2.667 Q 155.987 2.667 155.621 3.127 A 1.515 1.515 0 0 0 155.606 3.146 A 1.589 1.589 0 0 0 155.354 3.644 Q 155.284 3.864 155.256 4.131 A 3.676 3.676 0 0 0 155.237 4.518 Z M 25.418 3.344 L 25.418 5.616 Q 25.783 6.267 26.534 6.267 A 1.184 1.184 0 0 0 27 6.178 Q 27.257 6.069 27.445 5.827 A 1.403 1.403 0 0 0 27.464 5.803 A 1.501 1.501 0 0 0 27.68 5.372 Q 27.749 5.165 27.78 4.911 A 3.91 3.91 0 0 0 27.809 4.425 Q 27.809 3.838 27.626 3.431 A 1.503 1.503 0 0 0 27.466 3.155 A 1.086 1.086 0 0 0 26.68 2.698 A 1.414 1.414 0 0 0 26.525 2.689 Q 25.865 2.689 25.5 3.213 A 1.623 1.623 0 0 0 25.418 3.344 Z M 78.548 3.344 L 78.548 5.616 Q 78.913 6.267 79.664 6.267 A 1.184 1.184 0 0 0 80.13 6.178 Q 80.387 6.069 80.575 5.827 A 1.403 1.403 0 0 0 80.594 5.803 A 1.501 1.501 0 0 0 80.81 5.372 Q 80.878 5.165 80.91 4.911 A 3.91 3.91 0 0 0 80.938 4.425 Q 80.938 3.838 80.756 3.431 A 1.503 1.503 0 0 0 80.596 3.155 A 1.086 1.086 0 0 0 79.81 2.698 A 1.414 1.414 0 0 0 79.655 2.689 Q 78.995 2.689 78.63 3.213 A 1.623 1.623 0 0 0 78.548 3.344 Z M 95.427 3.344 L 95.427 5.616 Q 95.792 6.267 96.543 6.267 A 1.184 1.184 0 0 0 97.009 6.178 Q 97.266 6.069 97.455 5.827 A 1.403 1.403 0 0 0 97.473 5.803 A 1.501 1.501 0 0 0 97.69 5.372 Q 97.758 5.165 97.79 4.911 A 3.91 3.91 0 0 0 97.818 4.425 Q 97.818 3.838 97.635 3.431 A 1.503 1.503 0 0 0 97.475 3.155 A 1.086 1.086 0 0 0 96.689 2.698 A 1.414 1.414 0 0 0 96.535 2.689 Q 95.874 2.689 95.509 3.213 A 1.623 1.623 0 0 0 95.427 3.344 Z M 100.477 3.344 L 100.477 5.616 Q 100.841 6.267 101.593 6.267 A 1.184 1.184 0 0 0 102.058 6.178 Q 102.316 6.069 102.504 5.827 A 1.403 1.403 0 0 0 102.522 5.803 A 1.501 1.501 0 0 0 102.739 5.372 Q 102.807 5.165 102.839 4.911 A 3.91 3.91 0 0 0 102.867 4.425 Q 102.867 3.838 102.684 3.431 A 1.503 1.503 0 0 0 102.524 3.155 A 1.086 1.086 0 0 0 101.738 2.698 A 1.414 1.414 0 0 0 101.584 2.689 Q 100.924 2.689 100.558 3.213 A 1.623 1.623 0 0 0 100.477 3.344 Z M 2.25 3.85 L 0.844 3.85 L 0.844 6.152 L 2.237 6.152 A 1.84 1.84 0 0 0 2.612 6.116 Q 2.852 6.066 3.036 5.947 A 1.064 1.064 0 0 0 3.166 5.847 A 1.003 1.003 0 0 0 3.488 5.246 A 1.459 1.459 0 0 0 3.507 5.005 Q 3.507 4.099 2.734 3.904 A 1.977 1.977 0 0 0 2.251 3.85 Z M 55.38 3.85 L 53.974 3.85 L 53.974 6.152 L 55.367 6.152 A 1.84 1.84 0 0 0 55.742 6.116 Q 55.982 6.066 56.166 5.947 A 1.064 1.064 0 0 0 56.296 5.847 A 1.003 1.003 0 0 0 56.618 5.246 A 1.459 1.459 0 0 0 56.637 5.005 Q 56.637 4.099 55.864 3.904 A 1.977 1.977 0 0 0 55.38 3.85 Z M 182.017 1.731 L 180.123 4.693 L 182.114 4.693 L 182.114 1.556 L 182.017 1.731 Z M 34.203 1.485 L 33.117 4.478 L 35.292 4.478 L 34.203 1.485 Z M 133.91 1.485 L 132.825 4.478 L 135 4.478 L 133.91 1.485 Z M 0.844 1.138 L 0.844 3.173 L 2.118 3.173 Q 2.672 3.173 3.004 2.896 A 0.905 0.905 0 0 0 3.331 2.246 A 1.27 1.27 0 0 0 3.335 2.145 Q 3.335 1.788 3.195 1.563 A 0.71 0.71 0 0 0 3.028 1.378 A 0.969 0.969 0 0 0 2.742 1.228 Q 2.479 1.139 2.098 1.138 A 3.261 3.261 0 0 0 2.092 1.138 L 0.844 1.138 Z M 53.974 1.138 L 53.974 3.173 L 55.248 3.173 Q 55.802 3.173 56.134 2.896 A 0.905 0.905 0 0 0 56.461 2.246 A 1.27 1.27 0 0 0 56.465 2.145 Q 56.465 1.788 56.325 1.563 A 0.71 0.71 0 0 0 56.158 1.378 A 0.969 0.969 0 0 0 55.872 1.228 Q 55.609 1.139 55.228 1.138 A 3.261 3.261 0 0 0 55.222 1.138 L 53.974 1.138 Z M 187.77 5.098 A 1.375 1.375 0 0 0 187.71 4.684 A 1.109 1.109 0 0 0 187.429 4.223 A 1.148 1.148 0 0 0 186.758 3.899 A 1.593 1.593 0 0 0 186.539 3.885 A 1.466 1.466 0 0 0 186.15 3.934 A 1.086 1.086 0 0 0 185.658 4.219 A 1.123 1.123 0 0 0 185.344 4.854 A 1.572 1.572 0 0 0 185.326 5.098 A 1.48 1.48 0 0 0 185.368 5.459 A 1.019 1.019 0 0 0 185.649 5.955 Q 185.955 6.25 186.488 6.266 A 2.053 2.053 0 0 0 186.548 6.267 Q 187.042 6.267 187.351 6.032 A 1.018 1.018 0 0 0 187.444 5.952 A 1.041 1.041 0 0 0 187.744 5.384 A 1.518 1.518 0 0 0 187.77 5.098 Z M 186.548 1.024 A 1.259 1.259 0 0 0 186.195 1.071 A 0.973 0.973 0 0 0 185.772 1.321 Q 185.476 1.617 185.476 2.127 A 1.325 1.325 0 0 0 185.52 2.48 A 0.994 0.994 0 0 0 185.768 2.916 A 0.974 0.974 0 0 0 186.33 3.2 A 1.382 1.382 0 0 0 186.548 3.217 A 1.279 1.279 0 0 0 186.893 3.173 A 0.952 0.952 0 0 0 187.328 2.916 A 1.018 1.018 0 0 0 187.603 2.352 A 1.426 1.426 0 0 0 187.62 2.127 A 1.282 1.282 0 0 0 187.57 1.76 A 1.013 1.013 0 0 0 187.317 1.332 Q 187.014 1.024 186.548 1.024 Z M 8.284 5.511 L 8.284 4.535 L 7.646 4.535 Q 6.152 4.535 6.152 5.41 Q 6.152 5.792 6.407 6.007 A 0.893 0.893 0 0 0 6.821 6.201 A 1.259 1.259 0 0 0 7.062 6.223 A 1.429 1.429 0 0 0 7.787 6.025 A 1.335 1.335 0 0 0 8.083 5.797 A 1.108 1.108 0 0 0 8.284 5.511 Z M 61.414 5.511 L 61.414 4.535 L 60.776 4.535 Q 59.282 4.535 59.282 5.41 Q 59.282 5.792 59.537 6.007 A 0.893 0.893 0 0 0 59.951 6.201 A 1.259 1.259 0 0 0 60.192 6.223 A 1.429 1.429 0 0 0 60.917 6.025 A 1.335 1.335 0 0 0 61.213 5.797 A 1.108 1.108 0 0 0 61.414 5.511 Z M 148.157 5.511 L 148.157 4.535 L 147.52 4.535 Q 146.026 4.535 146.026 5.41 Q 146.026 5.792 146.281 6.007 A 0.893 0.893 0 0 0 146.694 6.201 A 1.259 1.259 0 0 0 146.936 6.223 A 1.429 1.429 0 0 0 147.661 6.025 A 1.335 1.335 0 0 0 147.956 5.797 A 1.108 1.108 0 0 0 148.157 5.511 Z M 200.628 5.511 L 200.628 4.535 L 199.991 4.535 Q 198.497 4.535 198.497 5.41 Q 198.497 5.792 198.751 6.007 A 0.893 0.893 0 0 0 199.165 6.201 A 1.259 1.259 0 0 0 199.406 6.223 A 1.429 1.429 0 0 0 200.131 6.025 A 1.335 1.335 0 0 0 200.427 5.797 A 1.108 1.108 0 0 0 200.628 5.511 Z" vector-effect="non-scaling-stroke"/></g>
</svgversion="1.0" encoding="UTF-8"?>
<svg width="48px" height="48px" viewBox="0 0 48 48" version="1.1" xmlns="http://www.w3.org/2000/svg" xmlns:xlink="http://www.w3.org/1999/xlink">
    <title>Icon-Resource/Storage/Res_AWS-Backup_AWS-Backup-support-for-Amazon-S3_48_Dark</title>
    <g id="Icon-Resource/Storage/Res_AWS-Backup_AWS-Backup-support-for-Amazon-S3_48" stroke="none" stroke-width="1" fill="none" fill-rule="evenodd">
        <path transform="translate(0vw, 0vh), scale(.65)" d="M39.5230246,40.8829 C39.5170246,40.9259 39.5150246,40.9589 39.5150246,41.0029 C39.4880246,41.1189 39.1210246,41.5609 37.8450246,42.0599 C37.2100246,42.3069 36.4590246,42.5309 35.6110246,42.7239 C33.4170246,43.2259 30.7240246,43.5019 28.0290246,43.5019 C20.8510246,43.5019 16.7250246,41.7499 16.5450246,41.0139 C16.5450246,40.9679 16.5430246,40.9219 16.5360246,40.8759 L15.4330246,32.9969 C16.1480246,33.0979 16.8720246,33.1539 17.6010246,33.1539 C19.0610246,33.1539 20.5400246,32.9399 21.9970246,32.5079 L20.2840246,35.7629 L22.0530246,36.6949 L24.8450246,31.3899 C25.1030246,30.9009 24.9150246,30.2969 24.4260246,30.0389 L19.1220246,27.2469 L18.1900246,29.0169 L21.2730246,30.6389 C19.2250246,31.2199 17.1350246,31.2819 15.1420246,30.9139 L13.0880246,16.2369 C16.4150246,17.9139 22.6230246,18.5679 28.1900246,18.5679 C33.5590246,18.5679 39.5420246,17.9199 42.7800246,16.2639 L39.5230246,40.8829 Z M45.1710246,13.4349 L45.1610246,13.4339 C45.1630246,13.3889 45.1800246,13.3489 45.1800246,13.3039 C45.1800246,9.5649 37.0570246,8.2219 34.5670246,7.8999 L34.3110246,9.8829 C40.8690246,10.7319 43.1230246,12.5469 43.1750246,13.2769 L43.1620246,13.3739 C42.9760246,14.5559 37.9820246,16.5679 28.1900246,16.5679 C18.1970246,16.5679 12.8900246,14.5269 12.6870246,13.3739 L12.6730246,13.2769 C12.7350246,12.4439 15.7980246,10.5419 22.7980246,9.7889 L22.5840246,7.7999 C16.8230246,8.4209 10.6680246,10.1919 10.6680246,13.3039 C10.6680246,13.3519 10.6860246,13.3939 10.6890246,13.4409 L10.6770246,13.4429 L13.0440246,30.3539 C9.45802457,29.0769 6.41902457,26.3219 4.93302457,22.5059 C2.21802457,15.5309 5.68302457,7.6479 12.6580246,4.9329 C16.0380246,3.6169 19.7240246,3.6959 23.0440246,5.1549 C26.3620246,6.6129 28.9150246,9.2779 30.2280246,12.6509 L30.3060246,12.8559 L32.1750246,12.1449 L32.0930246,11.9299 C30.5850246,8.0539 27.6560246,4.9979 23.8480246,3.3239 C20.0390246,1.6499 15.8070246,1.5609 11.9310246,3.0699 C8.05502457,4.5779 4.99902457,7.5069 3.32502457,11.3149 C1.65102457,15.1229 1.56002457,19.3549 3.07002457,23.2309 C4.90902457,27.9539 8.81602457,31.2649 13.3520246,32.5529 L14.5470246,41.0959 C14.6790246,44.3269 22.6540246,45.5019 28.0290246,45.5019 C30.8700246,45.5019 33.7210246,45.2079 36.0550246,44.6739 C37.0000246,44.4589 37.8460246,44.2059 38.5730246,43.9229 C40.4820246,43.1759 41.4700246,42.2239 41.5130246,41.0909 L45.1710246,13.4349 Z" id="Fill-1" fill="#000000"></path>
    </g><g transform="translate(33vw, 80vh)" id="svgGroup" stroke-linecap="round" fill-rule="evenodd" font-size="9pt" stroke="#000" stroke-width="0.25mm" fill="#000" style="stroke:#000;stroke-width:0.25mm;fill:#000"><path d="M 23.12 0.088 L 24.13 4.469 L 24.253 5.313 L 24.434 4.553 L 25.699 0.088 L 26.411 0.088 L 27.646 4.553 L 27.822 5.326 L 27.958 4.465 L 28.951 0.088 L 29.799 0.088 L 28.248 6.486 L 27.479 6.486 L 26.161 1.824 L 26.06 1.336 L 25.958 1.824 L 24.592 6.486 L 23.823 6.486 L 22.276 0.088 L 23.12 0.088 Z M 34.98 1.938 L 34.132 1.938 A 1.466 1.466 0 0 0 34.083 1.546 A 1.066 1.066 0 0 0 33.763 1.026 A 1.211 1.211 0 0 0 33.294 0.77 Q 33.042 0.694 32.722 0.694 A 2.286 2.286 0 0 0 32.342 0.724 Q 32.14 0.758 31.977 0.831 A 1.101 1.101 0 0 0 31.748 0.969 A 0.892 0.892 0 0 0 31.403 1.624 A 1.267 1.267 0 0 0 31.399 1.732 A 0.806 0.806 0 0 0 31.667 2.337 A 1.134 1.134 0 0 0 31.731 2.393 A 1.562 1.562 0 0 0 31.969 2.549 Q 32.299 2.73 32.86 2.887 A 8.228 8.228 0 0 1 33.325 3.032 Q 33.56 3.113 33.754 3.2 A 3.297 3.297 0 0 1 34.108 3.382 A 2.342 2.342 0 0 1 34.447 3.626 Q 34.637 3.792 34.759 3.985 A 1.45 1.45 0 0 1 34.776 4.012 A 1.498 1.498 0 0 1 34.972 4.568 A 1.948 1.948 0 0 1 34.994 4.86 A 1.606 1.606 0 0 1 34.871 5.497 Q 34.726 5.838 34.408 6.09 A 1.886 1.886 0 0 1 34.387 6.106 Q 33.781 6.574 32.766 6.574 A 3.023 3.023 0 0 1 31.625 6.36 A 2.917 2.917 0 0 1 31.535 6.322 A 2.383 2.383 0 0 1 31.057 6.044 A 1.874 1.874 0 0 1 30.654 5.629 A 1.689 1.689 0 0 1 30.344 4.632 L 31.192 4.632 A 1.261 1.261 0 0 0 31.262 5.059 A 1.074 1.074 0 0 0 31.621 5.548 Q 32.005 5.85 32.622 5.881 A 2.87 2.87 0 0 0 32.766 5.884 A 2.628 2.628 0 0 0 33.153 5.858 Q 33.349 5.828 33.508 5.767 A 1.129 1.129 0 0 0 33.79 5.612 Q 34.146 5.339 34.146 4.869 A 1.074 1.074 0 0 0 34.103 4.559 A 0.816 0.816 0 0 0 33.816 4.142 Q 33.486 3.885 32.621 3.634 Q 31.535 3.322 31.041 2.868 Q 30.546 2.413 30.546 1.745 Q 30.546 0.989 31.151 0.494 A 2.121 2.121 0 0 1 32.041 0.071 A 3.087 3.087 0 0 1 32.722 0 A 2.913 2.913 0 0 1 33.382 0.072 A 2.372 2.372 0 0 1 33.897 0.255 A 2.051 2.051 0 0 1 34.428 0.626 A 1.834 1.834 0 0 1 34.697 0.958 A 1.798 1.798 0 0 1 34.98 1.938 Z M 3.74 6.486 L 2.351 3.898 L 0.848 3.898 L 0.848 6.486 L 0 6.486 L 0 0.088 L 2.118 0.088 A 3.809 3.809 0 0 1 2.76 0.138 Q 3.102 0.197 3.376 0.324 A 1.789 1.789 0 0 1 3.781 0.58 A 1.588 1.588 0 0 1 4.307 1.469 A 2.453 2.453 0 0 1 4.364 2.013 A 1.864 1.864 0 0 1 4.273 2.604 A 1.64 1.64 0 0 1 4.041 3.054 A 1.849 1.849 0 0 1 3.382 3.611 A 2.342 2.342 0 0 1 3.142 3.718 L 4.645 6.434 L 4.645 6.486 L 3.74 6.486 Z M 13.724 3.129 L 12.907 3.129 Q 12.907 2.795 12.623 2.553 Q 12.34 2.312 11.909 2.312 Q 11.465 2.312 11.215 2.505 A 0.653 0.653 0 0 0 11.04 2.704 Q 10.967 2.835 10.964 3 A 0.771 0.771 0 0 0 10.964 3.01 A 0.588 0.588 0 0 0 10.994 3.203 A 0.48 0.48 0 0 0 11.197 3.454 A 1.093 1.093 0 0 0 11.348 3.533 Q 11.512 3.605 11.767 3.673 A 6.581 6.581 0 0 0 12.039 3.74 A 6.318 6.318 0 0 1 12.446 3.845 Q 12.783 3.944 13.025 4.065 A 1.901 1.901 0 0 1 13.281 4.218 Q 13.418 4.315 13.516 4.429 A 1.06 1.06 0 0 1 13.586 4.52 A 1.024 1.024 0 0 1 13.748 4.927 A 1.388 1.388 0 0 1 13.768 5.168 Q 13.768 5.805 13.258 6.19 Q 12.776 6.554 12.022 6.573 A 3.337 3.337 0 0 1 11.936 6.574 A 2.746 2.746 0 0 1 11.401 6.525 A 2.124 2.124 0 0 1 10.925 6.372 A 1.771 1.771 0 0 1 10.491 6.094 A 1.54 1.54 0 0 1 10.237 5.807 Q 9.989 5.445 9.989 5.023 L 10.802 5.023 A 0.932 0.932 0 0 0 10.875 5.348 A 0.827 0.827 0 0 0 11.129 5.671 A 1.072 1.072 0 0 0 11.531 5.864 Q 11.686 5.903 11.867 5.91 A 2.013 2.013 0 0 0 11.936 5.911 A 1.863 1.863 0 0 0 12.231 5.889 Q 12.393 5.863 12.524 5.806 A 0.941 0.941 0 0 0 12.676 5.724 A 0.689 0.689 0 0 0 12.841 5.574 A 0.554 0.554 0 0 0 12.955 5.225 A 0.698 0.698 0 0 0 12.919 4.994 A 0.581 0.581 0 0 0 12.707 4.713 A 1.05 1.05 0 0 0 12.538 4.615 Q 12.349 4.524 12.054 4.449 A 5.392 5.392 0 0 0 11.841 4.399 A 6.342 6.342 0 0 1 11.48 4.311 Q 11.11 4.209 10.861 4.083 Q 10.562 3.93 10.392 3.731 A 1.017 1.017 0 0 1 10.325 3.643 Q 10.151 3.388 10.151 3.037 A 1.206 1.206 0 0 1 10.55 2.132 A 1.694 1.694 0 0 1 10.646 2.048 A 1.752 1.752 0 0 1 11.429 1.688 A 2.471 2.471 0 0 1 11.909 1.644 A 2.559 2.559 0 0 1 12.473 1.702 A 1.757 1.757 0 0 1 13.221 2.061 Q 13.724 2.479 13.724 3.129 Z M 21.327 6.486 L 20.716 4.816 L 18.035 4.816 L 17.433 6.486 L 16.563 6.486 L 19.006 0.088 L 19.745 0.088 L 22.192 6.486 L 21.327 6.486 Z M 5.212 4.241 L 5.212 4.091 A 3.17 3.17 0 0 1 5.288 3.382 A 2.581 2.581 0 0 1 5.482 2.828 A 2.191 2.191 0 0 1 5.93 2.202 A 2.033 2.033 0 0 1 6.238 1.958 Q 6.724 1.644 7.291 1.644 A 2.254 2.254 0 0 1 7.904 1.723 A 1.639 1.639 0 0 1 8.732 2.254 Q 9.246 2.865 9.246 4.003 L 9.246 4.342 L 6.025 4.342 A 2.111 2.111 0 0 0 6.096 4.85 A 1.516 1.516 0 0 0 6.436 5.478 A 1.282 1.282 0 0 0 7.37 5.909 A 1.652 1.652 0 0 0 7.436 5.911 A 1.763 1.763 0 0 0 7.764 5.882 Q 7.988 5.839 8.165 5.735 A 1.827 1.827 0 0 0 8.674 5.287 A 2.068 2.068 0 0 0 8.688 5.269 L 9.185 5.656 A 1.926 1.926 0 0 1 7.785 6.547 A 2.749 2.749 0 0 1 7.392 6.574 A 2.394 2.394 0 0 1 6.64 6.461 A 1.974 1.974 0 0 1 5.818 5.939 Q 5.212 5.304 5.212 4.241 Z M 0.848 0.782 L 0.848 3.208 L 2.145 3.208 Q 2.685 3.208 3.035 2.968 A 1.174 1.174 0 0 0 3.144 2.883 A 1.069 1.069 0 0 0 3.51 2.146 A 1.486 1.486 0 0 0 3.516 2.013 Q 3.516 1.47 3.22 1.159 A 1 1 0 0 0 3.162 1.103 Q 2.808 0.787 2.14 0.782 L 0.848 0.782 Z M 19.375 1.129 L 18.29 4.122 L 20.465 4.122 L 19.375 1.129 Z M 6.051 3.674 L 8.433 3.674 L 8.433 3.612 Q 8.407 3.153 8.236 2.848 A 1.13 1.13 0 0 0 8.099 2.652 A 0.983 0.983 0 0 0 7.445 2.32 A 1.39 1.39 0 0 0 7.291 2.312 A 1.106 1.106 0 0 0 6.768 2.435 A 1.14 1.14 0 0 0 6.464 2.67 A 1.417 1.417 0 0 0 6.188 3.116 Q 6.114 3.3 6.074 3.522 A 2.741 2.741 0 0 0 6.051 3.674 Z" vector-effect="non-scaling-stroke"/></g><g transform="translate(12vw, 90vh)" id="svgGroup" stroke-linecap="round" fill-rule="evenodd" font-size="9pt" stroke="#000" stroke-width="0.25mm" fill="#000" style="stroke:#000;stroke-width:0.25mm;fill:#000"><path d="M 37.947 0.444 L 38.958 4.825 L 39.081 5.669 L 39.261 4.909 L 40.526 0.444 L 41.238 0.444 L 42.473 4.909 L 42.649 5.682 L 42.785 4.821 L 43.778 0.444 L 44.626 0.444 L 43.075 6.842 L 42.306 6.842 L 40.988 2.18 L 40.887 1.692 L 40.786 2.18 L 39.419 6.842 L 38.65 6.842 L 37.103 0.444 L 37.947 0.444 Z M 137.457 2.087 L 138.226 2.087 L 138.248 2.615 Q 138.771 2 139.658 2 A 2.009 2.009 0 0 1 140.169 2.06 A 1.244 1.244 0 0 1 141.016 2.764 A 1.801 1.801 0 0 1 141.634 2.21 A 1.65 1.65 0 0 1 142.163 2.029 A 2.209 2.209 0 0 1 142.532 2 A 2.119 2.119 0 0 1 143.176 2.089 Q 144.103 2.385 144.123 3.656 L 144.123 6.842 L 143.31 6.842 L 143.31 3.705 A 1.781 1.781 0 0 0 143.29 3.425 Q 143.266 3.277 143.215 3.159 A 0.758 0.758 0 0 0 143.077 2.942 A 0.68 0.68 0 0 0 142.824 2.774 Q 142.613 2.69 142.296 2.689 A 1.245 1.245 0 0 0 141.93 2.741 A 1.008 1.008 0 0 0 141.543 2.96 A 1.042 1.042 0 0 0 141.229 3.496 A 1.41 1.41 0 0 0 141.196 3.687 L 141.196 6.842 L 140.379 6.842 L 140.379 3.727 A 1.532 1.532 0 0 0 140.33 3.322 Q 140.204 2.86 139.746 2.735 A 1.457 1.457 0 0 0 139.364 2.689 Q 138.59 2.689 138.289 3.327 A 1.459 1.459 0 0 0 138.27 3.371 L 138.27 6.842 L 137.457 6.842 L 137.457 2.087 Z M 49.808 2.294 L 48.959 2.294 A 1.466 1.466 0 0 0 48.91 1.901 A 1.066 1.066 0 0 0 48.59 1.382 A 1.211 1.211 0 0 0 48.121 1.126 Q 47.869 1.05 47.549 1.05 A 2.286 2.286 0 0 0 47.169 1.08 Q 46.967 1.114 46.805 1.187 A 1.101 1.101 0 0 0 46.575 1.325 A 0.892 0.892 0 0 0 46.231 1.98 A 1.267 1.267 0 0 0 46.226 2.087 A 0.806 0.806 0 0 0 46.494 2.693 A 1.134 1.134 0 0 0 46.558 2.749 A 1.562 1.562 0 0 0 46.796 2.905 Q 47.126 3.086 47.687 3.243 A 8.228 8.228 0 0 1 48.152 3.388 Q 48.387 3.469 48.582 3.556 A 3.297 3.297 0 0 1 48.935 3.738 A 2.342 2.342 0 0 1 49.274 3.982 Q 49.464 4.148 49.586 4.341 A 1.45 1.45 0 0 1 49.603 4.368 A 1.498 1.498 0 0 1 49.8 4.924 A 1.948 1.948 0 0 1 49.821 5.216 A 1.606 1.606 0 0 1 49.698 5.853 Q 49.553 6.193 49.235 6.446 A 1.886 1.886 0 0 1 49.214 6.462 Q 48.608 6.93 47.593 6.93 A 3.023 3.023 0 0 1 46.452 6.715 A 2.917 2.917 0 0 1 46.362 6.677 A 2.383 2.383 0 0 1 45.884 6.4 A 1.874 1.874 0 0 1 45.481 5.985 A 1.689 1.689 0 0 1 45.171 4.988 L 46.02 4.988 A 1.261 1.261 0 0 0 46.089 5.415 A 1.074 1.074 0 0 0 46.448 5.904 Q 46.833 6.206 47.449 6.237 A 2.87 2.87 0 0 0 47.593 6.24 A 2.628 2.628 0 0 0 47.98 6.214 Q 48.176 6.184 48.335 6.123 A 1.129 1.129 0 0 0 48.617 5.968 Q 48.973 5.695 48.973 5.225 A 1.074 1.074 0 0 0 48.93 4.915 A 0.816 0.816 0 0 0 48.643 4.498 Q 48.313 4.241 47.448 3.99 Q 46.362 3.678 45.868 3.223 Q 45.374 2.769 45.374 2.101 Q 45.374 1.345 45.978 0.85 A 2.121 2.121 0 0 1 46.868 0.427 A 3.087 3.087 0 0 1 47.549 0.356 A 2.913 2.913 0 0 1 48.209 0.428 A 2.372 2.372 0 0 1 48.724 0.611 A 2.051 2.051 0 0 1 49.255 0.982 A 1.834 1.834 0 0 1 49.524 1.314 A 1.798 1.798 0 0 1 49.808 2.294 Z M 171.334 2.294 L 170.486 2.294 A 1.466 1.466 0 0 0 170.436 1.901 A 1.066 1.066 0 0 0 170.117 1.382 A 1.211 1.211 0 0 0 169.647 1.126 Q 169.396 1.05 169.075 1.05 A 2.286 2.286 0 0 0 168.695 1.08 Q 168.493 1.114 168.331 1.187 A 1.101 1.101 0 0 0 168.102 1.325 A 0.892 0.892 0 0 0 167.757 1.98 A 1.267 1.267 0 0 0 167.752 2.087 A 0.806 0.806 0 0 0 168.02 2.693 A 1.134 1.134 0 0 0 168.084 2.749 A 1.562 1.562 0 0 0 168.322 2.905 Q 168.653 3.086 169.214 3.243 A 8.228 8.228 0 0 1 169.678 3.388 Q 169.913 3.469 170.108 3.556 A 3.297 3.297 0 0 1 170.462 3.738 A 2.342 2.342 0 0 1 170.8 3.982 Q 170.99 4.148 171.113 4.341 A 1.45 1.45 0 0 1 171.13 4.368 A 1.498 1.498 0 0 1 171.326 4.924 A 1.948 1.948 0 0 1 171.347 5.216 A 1.606 1.606 0 0 1 171.225 5.853 Q 171.079 6.193 170.761 6.446 A 1.886 1.886 0 0 1 170.741 6.462 Q 170.134 6.93 169.119 6.93 A 3.023 3.023 0 0 1 167.978 6.715 A 2.917 2.917 0 0 1 167.889 6.677 A 2.383 2.383 0 0 1 167.411 6.4 A 1.874 1.874 0 0 1 167.008 5.985 A 1.689 1.689 0 0 1 166.698 4.988 L 167.546 4.988 A 1.261 1.261 0 0 0 167.615 5.415 A 1.074 1.074 0 0 0 167.974 5.904 Q 168.359 6.206 168.975 6.237 A 2.87 2.87 0 0 0 169.119 6.24 A 2.628 2.628 0 0 0 169.506 6.214 Q 169.702 6.184 169.861 6.123 A 1.129 1.129 0 0 0 170.143 5.968 Q 170.499 5.695 170.499 5.225 A 1.074 1.074 0 0 0 170.456 4.915 A 0.816 0.816 0 0 0 170.169 4.498 Q 169.84 4.241 168.974 3.99 Q 167.889 3.678 167.394 3.223 Q 166.9 2.769 166.9 2.101 Q 166.9 1.345 167.504 0.85 A 2.121 2.121 0 0 1 168.395 0.427 A 3.087 3.087 0 0 1 169.075 0.356 A 2.913 2.913 0 0 1 169.735 0.428 A 2.372 2.372 0 0 1 170.251 0.611 A 2.051 2.051 0 0 1 170.782 0.982 A 1.834 1.834 0 0 1 171.051 1.314 A 1.798 1.798 0 0 1 171.334 2.294 Z M 173.399 3.911 L 173.399 3.248 L 174.01 3.248 Q 174.468 3.241 174.77 3.053 A 1.045 1.045 0 0 0 174.916 2.944 A 0.97 0.97 0 0 0 175.235 2.317 A 1.373 1.373 0 0 0 175.245 2.149 A 1.626 1.626 0 0 0 175.19 1.704 Q 175.047 1.204 174.54 1.072 A 1.645 1.645 0 0 0 174.125 1.024 A 1.495 1.495 0 0 0 173.762 1.065 A 1.044 1.044 0 0 0 173.283 1.325 A 1.004 1.004 0 0 0 172.981 1.936 A 1.405 1.405 0 0 0 172.969 2.123 L 172.156 2.123 A 1.698 1.698 0 0 1 172.31 1.392 A 1.68 1.68 0 0 1 172.712 0.859 A 1.924 1.924 0 0 1 173.764 0.38 A 2.615 2.615 0 0 1 174.125 0.356 A 2.758 2.758 0 0 1 174.701 0.413 Q 175.068 0.491 175.347 0.678 A 1.593 1.593 0 0 1 175.544 0.835 A 1.57 1.57 0 0 1 176.01 1.682 A 2.336 2.336 0 0 1 176.058 2.167 A 1.332 1.332 0 0 1 175.906 2.778 A 1.725 1.725 0 0 1 175.788 2.975 A 1.624 1.624 0 0 1 175.088 3.544 A 1.952 1.952 0 0 1 175.052 3.56 A 1.81 1.81 0 0 1 175.487 3.76 A 1.44 1.44 0 0 1 175.867 4.113 Q 176.155 4.5 176.155 5.058 Q 176.155 5.919 175.592 6.425 A 1.935 1.935 0 0 1 174.636 6.885 A 2.738 2.738 0 0 1 174.129 6.93 A 2.716 2.716 0 0 1 173.482 6.857 A 1.936 1.936 0 0 1 172.663 6.442 Q 172.099 5.955 172.099 5.155 L 172.916 5.155 A 1.255 1.255 0 0 0 172.966 5.519 A 0.978 0.978 0 0 0 173.246 5.963 A 1.113 1.113 0 0 0 173.76 6.227 A 1.643 1.643 0 0 0 174.129 6.267 Q 174.718 6.267 175.03 5.959 Q 175.317 5.676 175.34 5.165 A 2.011 2.011 0 0 0 175.342 5.076 A 1.451 1.451 0 0 0 175.302 4.726 A 0.962 0.962 0 0 0 174.999 4.219 A 1.13 1.13 0 0 0 174.611 4.002 Q 174.353 3.916 174.01 3.911 L 173.399 3.911 Z M 18.066 6.842 L 16.409 4.641 L 15.899 5.172 L 15.899 6.842 L 15.086 6.842 L 15.086 0.092 L 15.899 0.092 L 15.899 4.175 L 16.334 3.652 L 17.815 2.087 L 18.804 2.087 L 16.954 4.074 L 19.02 6.842 L 18.066 6.842 Z M 71.196 6.842 L 69.539 4.641 L 69.029 5.172 L 69.029 6.842 L 68.216 6.842 L 68.216 0.092 L 69.029 0.092 L 69.029 4.175 L 69.464 3.652 L 70.945 2.087 L 71.934 2.087 L 70.084 4.074 L 72.149 6.842 L 71.196 6.842 Z M 208.745 6.842 L 207.088 4.641 L 206.578 5.172 L 206.578 6.842 L 205.765 6.842 L 205.765 0.092 L 206.578 0.092 L 206.578 4.175 L 207.013 3.652 L 208.494 2.087 L 209.483 2.087 L 207.633 4.074 L 209.698 6.842 L 208.745 6.842 Z M 88.55 3.485 L 87.732 3.485 Q 87.732 3.151 87.449 2.909 Q 87.166 2.667 86.735 2.667 Q 86.291 2.667 86.041 2.861 A 0.653 0.653 0 0 0 85.865 3.059 Q 85.792 3.191 85.79 3.356 A 0.771 0.771 0 0 0 85.79 3.366 A 0.588 0.588 0 0 0 85.82 3.559 A 0.48 0.48 0 0 0 86.023 3.81 A 1.093 1.093 0 0 0 86.173 3.889 Q 86.337 3.96 86.593 4.029 A 6.581 6.581 0 0 0 86.865 4.096 A 6.318 6.318 0 0 1 87.272 4.2 Q 87.609 4.3 87.851 4.421 A 1.901 1.901 0 0 1 88.107 4.573 Q 88.244 4.671 88.341 4.785 A 1.06 1.06 0 0 1 88.411 4.876 A 1.024 1.024 0 0 1 88.574 5.283 A 1.388 1.388 0 0 1 88.594 5.524 Q 88.594 6.161 88.084 6.546 Q 87.602 6.91 86.848 6.929 A 3.337 3.337 0 0 1 86.761 6.93 A 2.746 2.746 0 0 1 86.227 6.88 A 2.124 2.124 0 0 1 85.75 6.728 A 1.771 1.771 0 0 1 85.317 6.45 A 1.54 1.54 0 0 1 85.063 6.163 Q 84.814 5.801 84.814 5.379 L 85.627 5.379 A 0.932 0.932 0 0 0 85.701 5.704 A 0.827 0.827 0 0 0 85.955 6.027 A 1.072 1.072 0 0 0 86.357 6.22 Q 86.511 6.259 86.693 6.265 A 2.013 2.013 0 0 0 86.761 6.267 A 1.863 1.863 0 0 0 87.057 6.245 Q 87.218 6.219 87.35 6.162 A 0.941 0.941 0 0 0 87.502 6.08 A 0.689 0.689 0 0 0 87.666 5.929 A 0.554 0.554 0 0 0 87.781 5.581 A 0.698 0.698 0 0 0 87.744 5.35 A 0.581 0.581 0 0 0 87.532 5.069 A 1.05 1.05 0 0 0 87.364 4.971 Q 87.175 4.88 86.88 4.805 A 5.392 5.392 0 0 0 86.667 4.755 A 6.342 6.342 0 0 1 86.306 4.667 Q 85.936 4.565 85.687 4.438 Q 85.388 4.286 85.217 4.086 A 1.017 1.017 0 0 1 85.151 3.999 Q 84.977 3.744 84.977 3.393 A 1.206 1.206 0 0 1 85.376 2.488 A 1.694 1.694 0 0 1 85.471 2.404 A 1.752 1.752 0 0 1 86.254 2.044 A 2.471 2.471 0 0 1 86.735 2 A 2.559 2.559 0 0 1 87.298 2.058 A 1.757 1.757 0 0 1 88.047 2.417 Q 88.55 2.834 88.55 3.485 Z M 159.768 2.087 L 160.537 2.087 L 160.563 2.685 Q 161.099 2.01 161.959 2 A 2.234 2.234 0 0 1 161.987 2 A 1.905 1.905 0 0 1 162.62 2.096 Q 163.462 2.392 163.505 3.598 A 3.668 3.668 0 0 1 163.507 3.7 L 163.507 6.842 L 162.694 6.842 L 162.694 3.696 A 1.837 1.837 0 0 0 162.672 3.416 Q 162.622 3.109 162.459 2.936 Q 162.273 2.737 161.92 2.699 A 1.66 1.66 0 0 0 161.741 2.689 A 1.253 1.253 0 0 0 161.326 2.756 A 1.123 1.123 0 0 0 161.046 2.9 A 1.432 1.432 0 0 0 160.581 3.454 L 160.581 6.842 L 159.768 6.842 L 159.768 2.087 Z M 22.597 6.842 L 22.579 6.372 A 1.526 1.526 0 0 1 21.753 6.867 Q 21.503 6.928 21.205 6.93 A 2.996 2.996 0 0 1 21.186 6.93 A 2.086 2.086 0 0 1 20.726 6.883 Q 20.295 6.785 20.028 6.489 A 1.41 1.41 0 0 1 19.745 5.991 Q 19.628 5.648 19.626 5.181 L 19.626 2.087 L 20.439 2.087 L 20.439 5.159 Q 20.439 6.129 21.147 6.229 A 1.229 1.229 0 0 0 21.318 6.24 A 1.927 1.927 0 0 0 21.769 6.191 Q 22.331 6.056 22.557 5.546 L 22.557 2.087 L 23.37 2.087 L 23.37 6.842 L 22.597 6.842 Z M 75.727 6.842 L 75.709 6.372 A 1.526 1.526 0 0 1 74.883 6.867 Q 74.633 6.928 74.335 6.93 A 2.996 2.996 0 0 1 74.316 6.93 A 2.086 2.086 0 0 1 73.856 6.883 Q 73.425 6.785 73.158 6.489 A 1.41 1.41 0 0 1 72.875 5.991 Q 72.758 5.648 72.756 5.181 L 72.756 2.087 L 73.569 2.087 L 73.569 5.159 Q 73.569 6.129 74.276 6.229 A 1.229 1.229 0 0 0 74.448 6.24 A 1.927 1.927 0 0 0 74.899 6.191 Q 75.461 6.056 75.687 5.546 L 75.687 2.087 L 76.5 2.087 L 76.5 6.842 L 75.727 6.842 Z M 92.606 6.842 L 92.588 6.372 A 1.526 1.526 0 0 1 91.762 6.867 Q 91.512 6.928 91.215 6.93 A 2.996 2.996 0 0 1 91.195 6.93 A 2.086 2.086 0 0 1 90.735 6.883 Q 90.305 6.785 90.037 6.489 A 1.41 1.41 0 0 1 89.754 5.991 Q 89.638 5.648 89.635 5.181 L 89.635 2.087 L 90.448 2.087 L 90.448 5.159 Q 90.448 6.129 91.156 6.229 A 1.229 1.229 0 0 0 91.327 6.24 A 1.927 1.927 0 0 0 91.778 6.191 Q 92.34 6.056 92.566 5.546 L 92.566 2.087 L 93.379 2.087 L 93.379 6.842 L 92.606 6.842 Z M 153.659 2.663 L 151.009 6.179 L 153.791 6.179 L 153.791 6.842 L 150.016 6.842 L 150.016 6.245 L 152.64 2.76 L 150.056 2.76 L 150.056 2.087 L 153.659 2.087 L 153.659 2.663 Z M 13.399 5.344 L 14.168 5.344 A 1.432 1.432 0 0 1 13.969 5.994 A 1.772 1.772 0 0 1 13.887 6.122 A 1.828 1.828 0 0 1 13.277 6.666 A 2.169 2.169 0 0 1 13.195 6.71 A 1.997 1.997 0 0 1 12.278 6.93 A 2.346 2.346 0 0 1 11.581 6.832 A 1.839 1.839 0 0 1 10.734 6.282 A 2.171 2.171 0 0 1 10.27 5.402 Q 10.16 5.001 10.16 4.509 L 10.16 4.373 A 3.24 3.24 0 0 1 10.224 3.717 A 2.57 2.57 0 0 1 10.415 3.138 A 2.008 2.008 0 0 1 10.855 2.523 A 1.892 1.892 0 0 1 11.147 2.298 A 1.943 1.943 0 0 1 11.903 2.026 A 2.529 2.529 0 0 1 12.274 2 A 2.196 2.196 0 0 1 12.922 2.091 A 1.786 1.786 0 0 1 13.603 2.479 A 1.693 1.693 0 0 1 14.162 3.628 A 2.239 2.239 0 0 1 14.168 3.722 L 13.399 3.722 Q 13.364 3.261 13.05 2.964 A 1.078 1.078 0 0 0 12.32 2.668 A 1.402 1.402 0 0 0 12.274 2.667 A 1.374 1.374 0 0 0 11.852 2.729 A 1.081 1.081 0 0 0 11.314 3.114 A 1.469 1.469 0 0 0 11.087 3.561 Q 11.021 3.766 10.993 4.015 A 3.514 3.514 0 0 0 10.973 4.403 L 10.973 4.557 Q 10.973 5.379 11.312 5.823 A 1.1 1.1 0 0 0 12.098 6.257 A 1.611 1.611 0 0 0 12.278 6.267 A 1.171 1.171 0 0 0 13.039 6.003 A 1.007 1.007 0 0 0 13.283 5.722 A 0.914 0.914 0 0 0 13.399 5.344 Z M 66.529 5.344 L 67.298 5.344 A 1.432 1.432 0 0 1 67.099 5.994 A 1.772 1.772 0 0 1 67.017 6.122 A 1.828 1.828 0 0 1 66.407 6.666 A 2.169 2.169 0 0 1 66.324 6.71 A 1.997 1.997 0 0 1 65.408 6.93 A 2.346 2.346 0 0 1 64.711 6.832 A 1.839 1.839 0 0 1 63.864 6.282 A 2.171 2.171 0 0 1 63.4 5.402 Q 63.29 5.001 63.29 4.509 L 63.29 4.373 A 3.24 3.24 0 0 1 63.354 3.717 A 2.57 2.57 0 0 1 63.545 3.138 A 2.008 2.008 0 0 1 63.984 2.523 A 1.892 1.892 0 0 1 64.277 2.298 A 1.943 1.943 0 0 1 65.033 2.026 A 2.529 2.529 0 0 1 65.404 2 A 2.196 2.196 0 0 1 66.052 2.091 A 1.786 1.786 0 0 1 66.733 2.479 A 1.693 1.693 0 0 1 67.292 3.628 A 2.239 2.239 0 0 1 67.298 3.722 L 66.529 3.722 Q 66.494 3.261 66.179 2.964 A 1.078 1.078 0 0 0 65.45 2.668 A 1.402 1.402 0 0 0 65.404 2.667 A 1.374 1.374 0 0 0 64.982 2.729 A 1.081 1.081 0 0 0 64.444 3.114 A 1.469 1.469 0 0 0 64.217 3.561 Q 64.151 3.766 64.123 4.015 A 3.514 3.514 0 0 0 64.103 4.403 L 64.103 4.557 Q 64.103 5.379 64.441 5.823 A 1.1 1.1 0 0 0 65.228 6.257 A 1.611 1.611 0 0 0 65.408 6.267 A 1.171 1.171 0 0 0 66.168 6.003 A 1.007 1.007 0 0 0 66.413 5.722 A 0.914 0.914 0 0 0 66.529 5.344 Z M 36.154 6.842 L 35.543 5.172 L 32.862 5.172 L 32.26 6.842 L 31.39 6.842 L 33.833 0.444 L 34.572 0.444 L 37.02 6.842 L 36.154 6.842 Z M 135.861 6.842 L 135.25 5.172 L 132.57 5.172 L 131.968 6.842 L 131.098 6.842 L 133.541 0.444 L 134.279 0.444 L 136.727 6.842 L 135.861 6.842 Z M 9.264 6.842 L 8.411 6.842 A 0.632 0.632 0 0 1 8.376 6.752 Q 8.344 6.654 8.32 6.502 A 3.997 3.997 0 0 1 8.297 6.341 Q 7.73 6.93 6.943 6.93 A 2.033 2.033 0 0 1 6.414 6.865 A 1.529 1.529 0 0 1 5.79 6.532 Q 5.339 6.135 5.339 5.524 Q 5.339 4.781 5.904 4.37 Q 6.469 3.959 7.493 3.959 L 8.284 3.959 L 8.284 3.586 A 1.152 1.152 0 0 0 8.248 3.291 A 0.828 0.828 0 0 0 8.029 2.907 Q 7.813 2.693 7.422 2.66 A 1.748 1.748 0 0 0 7.277 2.654 Q 6.842 2.654 6.548 2.874 Q 6.253 3.094 6.253 3.406 L 5.436 3.406 A 1.041 1.041 0 0 1 5.561 2.917 A 1.409 1.409 0 0 1 5.689 2.718 Q 5.941 2.386 6.374 2.193 A 2.249 2.249 0 0 1 7.15 2.005 A 2.669 2.669 0 0 1 7.326 2 A 2.65 2.65 0 0 1 7.843 2.047 Q 8.15 2.108 8.389 2.248 A 1.439 1.439 0 0 1 8.613 2.41 A 1.396 1.396 0 0 1 9.067 3.236 A 1.998 1.998 0 0 1 9.097 3.542 L 9.097 5.73 Q 9.097 6.165 9.17 6.482 A 1.707 1.707 0 0 0 9.264 6.772 L 9.264 6.842 Z M 62.394 6.842 L 61.541 6.842 A 0.632 0.632 0 0 1 61.506 6.752 Q 61.474 6.654 61.449 6.502 A 3.997 3.997 0 0 1 61.427 6.341 Q 60.86 6.93 60.073 6.93 A 2.033 2.033 0 0 1 59.544 6.865 A 1.529 1.529 0 0 1 58.92 6.532 Q 58.469 6.135 58.469 5.524 Q 58.469 4.781 59.034 4.37 Q 59.599 3.959 60.623 3.959 L 61.414 3.959 L 61.414 3.586 A 1.152 1.152 0 0 0 61.378 3.291 A 0.828 0.828 0 0 0 61.159 2.907 Q 60.942 2.693 60.552 2.66 A 1.748 1.748 0 0 0 60.407 2.654 Q 59.972 2.654 59.678 2.874 Q 59.383 3.094 59.383 3.406 L 58.566 3.406 A 1.041 1.041 0 0 1 58.691 2.917 A 1.409 1.409 0 0 1 58.819 2.718 Q 59.071 2.386 59.504 2.193 A 2.249 2.249 0 0 1 60.28 2.005 A 2.669 2.669 0 0 1 60.456 2 A 2.65 2.65 0 0 1 60.973 2.047 Q 61.28 2.108 61.519 2.248 A 1.439 1.439 0 0 1 61.743 2.41 A 1.396 1.396 0 0 1 62.197 3.236 A 1.998 1.998 0 0 1 62.227 3.542 L 62.227 5.73 Q 62.227 6.165 62.3 6.482 A 1.707 1.707 0 0 0 62.394 6.772 L 62.394 6.842 Z M 149.137 6.842 L 148.285 6.842 A 0.632 0.632 0 0 1 148.249 6.752 Q 148.218 6.654 148.193 6.502 A 3.997 3.997 0 0 1 148.17 6.341 Q 147.604 6.93 146.817 6.93 A 2.033 2.033 0 0 1 146.288 6.865 A 1.529 1.529 0 0 1 145.663 6.532 Q 145.213 6.135 145.213 5.524 Q 145.213 4.781 145.778 4.37 Q 146.342 3.959 147.366 3.959 L 148.157 3.959 L 148.157 3.586 A 1.152 1.152 0 0 0 148.121 3.291 A 0.828 0.828 0 0 0 147.902 2.907 Q 147.686 2.693 147.296 2.66 A 1.748 1.748 0 0 0 147.151 2.654 Q 146.716 2.654 146.421 2.874 Q 146.127 3.094 146.127 3.406 L 145.31 3.406 A 1.041 1.041 0 0 1 145.434 2.917 A 1.409 1.409 0 0 1 145.562 2.718 Q 145.815 2.386 146.248 2.193 A 2.249 2.249 0 0 1 147.023 2.005 A 2.669 2.669 0 0 1 147.199 2 A 2.65 2.65 0 0 1 147.717 2.047 Q 148.024 2.108 148.263 2.248 A 1.439 1.439 0 0 1 148.487 2.41 A 1.396 1.396 0 0 1 148.94 3.236 A 1.998 1.998 0 0 1 148.97 3.542 L 148.97 5.73 Q 148.97 6.165 149.044 6.482 A 1.707 1.707 0 0 0 149.137 6.772 L 149.137 6.842 Z M 201.608 6.842 L 200.755 6.842 A 0.632 0.632 0 0 1 200.72 6.752 Q 200.689 6.654 200.664 6.502 A 3.997 3.997 0 0 1 200.641 6.341 Q 200.074 6.93 199.288 6.93 A 2.033 2.033 0 0 1 198.758 6.865 A 1.529 1.529 0 0 1 198.134 6.532 Q 197.684 6.135 197.684 5.524 Q 197.684 4.781 198.248 4.37 Q 198.813 3.959 199.837 3.959 L 200.628 3.959 L 200.628 3.586 A 1.152 1.152 0 0 0 200.592 3.291 A 0.828 0.828 0 0 0 200.373 2.907 Q 200.157 2.693 199.766 2.66 A 1.748 1.748 0 0 0 199.622 2.654 Q 199.187 2.654 198.892 2.874 Q 198.598 3.094 198.598 3.406 L 197.78 3.406 A 1.041 1.041 0 0 1 197.905 2.917 A 1.409 1.409 0 0 1 198.033 2.718 Q 198.286 2.386 198.719 2.193 A 2.249 2.249 0 0 1 199.494 2.005 A 2.669 2.669 0 0 1 199.67 2 A 2.65 2.65 0 0 1 200.187 2.047 Q 200.495 2.108 200.733 2.248 A 1.439 1.439 0 0 1 200.958 2.41 A 1.396 1.396 0 0 1 201.411 3.236 A 1.998 1.998 0 0 1 201.441 3.542 L 201.441 5.73 Q 201.441 6.165 201.515 6.482 A 1.707 1.707 0 0 0 201.608 6.772 L 201.608 6.842 Z M 28.622 4.443 L 28.622 4.518 Q 28.622 5.603 28.125 6.267 A 1.57 1.57 0 0 1 26.987 6.92 A 2.013 2.013 0 0 1 26.78 6.93 A 2.196 2.196 0 0 1 26.194 6.856 A 1.598 1.598 0 0 1 25.418 6.381 L 25.418 8.67 L 24.605 8.67 L 24.605 2.087 L 25.348 2.087 L 25.387 2.615 A 1.619 1.619 0 0 1 26.526 2.012 A 2.319 2.319 0 0 1 26.767 2 A 1.829 1.829 0 0 1 27.404 2.106 A 1.597 1.597 0 0 1 28.123 2.646 Q 28.622 3.292 28.622 4.443 Z M 81.751 4.443 L 81.751 4.518 Q 81.751 5.603 81.255 6.267 A 1.57 1.57 0 0 1 80.117 6.92 A 2.013 2.013 0 0 1 79.91 6.93 A 2.196 2.196 0 0 1 79.324 6.856 A 1.598 1.598 0 0 1 78.548 6.381 L 78.548 8.67 L 77.735 8.67 L 77.735 2.087 L 78.478 2.087 L 78.517 2.615 A 1.619 1.619 0 0 1 79.656 2.012 A 2.319 2.319 0 0 1 79.897 2 A 1.829 1.829 0 0 1 80.534 2.106 A 1.597 1.597 0 0 1 81.253 2.646 Q 81.751 3.292 81.751 4.443 Z M 98.631 4.443 L 98.631 4.518 Q 98.631 5.603 98.134 6.267 A 1.57 1.57 0 0 1 96.996 6.92 A 2.013 2.013 0 0 1 96.79 6.93 A 2.196 2.196 0 0 1 96.204 6.856 A 1.598 1.598 0 0 1 95.427 6.381 L 95.427 8.67 L 94.614 8.67 L 94.614 2.087 L 95.357 2.087 L 95.396 2.615 A 1.619 1.619 0 0 1 96.536 2.012 A 2.319 2.319 0 0 1 96.776 2 A 1.829 1.829 0 0 1 97.414 2.106 A 1.597 1.597 0 0 1 98.132 2.646 Q 98.631 3.292 98.631 4.443 Z M 103.68 4.443 L 103.68 4.518 Q 103.68 5.603 103.184 6.267 A 1.57 1.57 0 0 1 102.045 6.92 A 2.013 2.013 0 0 1 101.839 6.93 A 2.196 2.196 0 0 1 101.253 6.856 A 1.598 1.598 0 0 1 100.477 6.381 L 100.477 8.67 L 99.664 8.67 L 99.664 2.087 L 100.406 2.087 L 100.446 2.615 A 1.619 1.619 0 0 1 101.585 2.012 A 2.319 2.319 0 0 1 101.826 2 A 1.829 1.829 0 0 1 102.463 2.106 A 1.597 1.597 0 0 1 103.181 2.646 Q 103.68 3.292 103.68 4.443 Z M 2.219 6.842 L 0 6.842 L 0 0.444 L 2.092 0.444 A 4.031 4.031 0 0 1 2.665 0.482 Q 2.957 0.524 3.194 0.613 A 1.629 1.629 0 0 1 3.658 0.875 A 1.383 1.383 0 0 1 4.13 1.651 A 2.164 2.164 0 0 1 4.184 2.149 A 1.3 1.3 0 0 1 3.929 2.942 A 1.589 1.589 0 0 1 3.418 3.386 A 1.972 1.972 0 0 1 3.234 3.476 A 1.571 1.571 0 0 1 3.749 3.722 A 1.446 1.446 0 0 1 4.054 4.028 A 1.531 1.531 0 0 1 4.346 4.806 A 1.961 1.961 0 0 1 4.355 4.997 A 2.139 2.139 0 0 1 4.28 5.579 A 1.577 1.577 0 0 1 3.797 6.35 A 1.832 1.832 0 0 1 3.105 6.725 Q 2.838 6.806 2.52 6.831 A 3.81 3.81 0 0 1 2.219 6.842 Z M 55.349 6.842 L 53.13 6.842 L 53.13 0.444 L 55.222 0.444 A 4.031 4.031 0 0 1 55.795 0.482 Q 56.087 0.524 56.324 0.613 A 1.629 1.629 0 0 1 56.788 0.875 A 1.383 1.383 0 0 1 57.26 1.651 A 2.164 2.164 0 0 1 57.313 2.149 A 1.3 1.3 0 0 1 57.059 2.942 A 1.589 1.589 0 0 1 56.548 3.386 A 1.972 1.972 0 0 1 56.364 3.476 A 1.571 1.571 0 0 1 56.879 3.722 A 1.446 1.446 0 0 1 57.184 4.028 A 1.531 1.531 0 0 1 57.476 4.806 A 1.961 1.961 0 0 1 57.485 4.997 A 2.139 2.139 0 0 1 57.41 5.579 A 1.577 1.577 0 0 1 56.927 6.35 A 1.832 1.832 0 0 1 56.235 6.725 Q 55.968 6.806 55.65 6.831 A 3.81 3.81 0 0 1 55.349 6.842 Z M 119.272 6.842 L 118.459 6.842 L 118.459 2.716 L 117.708 2.716 L 117.708 2.087 L 118.459 2.087 L 118.459 1.6 Q 118.459 1.012 118.701 0.629 A 1.273 1.273 0 0 1 118.868 0.417 Q 119.276 0 120.023 0 A 2.134 2.134 0 0 1 120.582 0.075 L 120.538 0.734 Q 120.331 0.694 120.098 0.694 A 1.086 1.086 0 0 0 119.85 0.721 Q 119.629 0.773 119.487 0.925 A 0.747 0.747 0 0 0 119.321 1.221 Q 119.286 1.336 119.276 1.475 A 1.57 1.57 0 0 0 119.272 1.586 L 119.272 2.087 L 120.287 2.087 L 120.287 2.716 L 119.272 2.716 L 119.272 6.842 Z M 182.931 0.444 L 182.931 4.693 L 183.819 4.693 L 183.819 5.357 L 182.931 5.357 L 182.931 6.842 L 182.114 6.842 L 182.114 5.357 L 179.2 5.357 L 179.2 4.878 L 182.065 0.444 L 182.931 0.444 Z M 193.816 6.842 L 192.045 6.842 L 192.045 0.444 L 193.852 0.444 Q 194.687 0.444 195.328 0.813 Q 195.97 1.182 196.319 1.863 A 3.19 3.19 0 0 1 196.636 2.892 A 4.073 4.073 0 0 1 196.673 3.428 L 196.673 3.836 Q 196.673 4.742 196.323 5.423 A 2.457 2.457 0 0 1 195.326 6.469 Q 194.678 6.833 193.816 6.842 Z M 188.329 2.684 A 1.544 1.544 0 0 0 188.433 2.114 A 2.226 2.226 0 0 0 188.412 1.799 A 1.566 1.566 0 0 0 187.912 0.831 A 1.754 1.754 0 0 0 187.147 0.426 A 2.443 2.443 0 0 0 186.548 0.356 A 2.539 2.539 0 0 0 186.038 0.405 A 1.767 1.767 0 0 0 185.181 0.831 Q 184.663 1.305 184.663 2.114 A 1.808 1.808 0 0 0 184.663 2.151 A 1.499 1.499 0 0 0 184.909 2.962 A 1.626 1.626 0 0 0 185.071 3.169 A 1.726 1.726 0 0 0 185.581 3.546 A 2.119 2.119 0 0 0 185.482 3.592 A 1.738 1.738 0 0 0 184.797 4.179 A 1.629 1.629 0 0 0 184.513 5.115 A 2.272 2.272 0 0 0 184.523 5.329 A 1.63 1.63 0 0 0 185.069 6.436 A 1.895 1.895 0 0 0 185.92 6.864 A 2.797 2.797 0 0 0 186.548 6.93 A 2.796 2.796 0 0 0 187.147 6.869 A 1.925 1.925 0 0 0 188.022 6.438 A 1.578 1.578 0 0 0 188.497 5.712 A 1.989 1.989 0 0 0 188.583 5.115 A 1.581 1.581 0 0 0 188.29 4.179 Q 187.998 3.766 187.497 3.551 Q 187.928 3.34 188.18 2.966 A 1.449 1.449 0 0 0 188.329 2.684 Z M 113.181 0.936 L 113.994 0.936 L 113.994 2.087 L 114.882 2.087 L 114.882 2.716 L 113.994 2.716 L 113.994 5.665 Q 113.994 5.95 114.113 6.093 Q 114.231 6.236 114.517 6.236 A 1.046 1.046 0 0 0 114.615 6.231 Q 114.717 6.221 114.857 6.193 A 4.024 4.024 0 0 0 114.904 6.183 L 114.904 6.842 A 2.463 2.463 0 0 1 114.471 6.922 A 2.157 2.157 0 0 1 114.28 6.93 Q 113.833 6.93 113.566 6.708 A 0.856 0.856 0 0 1 113.458 6.601 Q 113.231 6.33 113.19 5.872 A 2.351 2.351 0 0 1 113.181 5.665 L 113.181 2.716 L 112.315 2.716 L 112.315 2.087 L 113.181 2.087 L 113.181 0.936 Z M 104.498 4.478 L 104.498 4.421 A 3.057 3.057 0 0 1 104.584 3.679 A 2.573 2.573 0 0 1 104.772 3.164 A 2.16 2.16 0 0 1 105.187 2.579 A 1.957 1.957 0 0 1 105.537 2.303 A 2.036 2.036 0 0 1 106.481 2.006 A 2.491 2.491 0 0 1 106.655 2 A 2.277 2.277 0 0 1 107.409 2.119 A 1.937 1.937 0 0 1 108.226 2.672 A 2.29 2.29 0 0 1 108.745 3.701 A 3.373 3.373 0 0 1 108.826 4.46 L 108.826 4.518 A 3.114 3.114 0 0 1 108.747 5.234 A 2.577 2.577 0 0 1 108.56 5.763 A 2.056 2.056 0 0 1 108.033 6.454 A 2.001 2.001 0 0 1 107.8 6.623 A 2.045 2.045 0 0 1 106.88 6.921 A 2.529 2.529 0 0 1 106.664 6.93 A 2.262 2.262 0 0 1 105.914 6.811 A 1.938 1.938 0 0 1 105.097 6.258 A 2.297 2.297 0 0 1 104.572 5.203 A 3.357 3.357 0 0 1 104.498 4.478 Z M 120.968 4.478 L 120.968 4.421 A 3.057 3.057 0 0 1 121.055 3.679 A 2.573 2.573 0 0 1 121.243 3.164 A 2.16 2.16 0 0 1 121.658 2.579 A 1.957 1.957 0 0 1 122.008 2.303 A 2.036 2.036 0 0 1 122.952 2.006 A 2.491 2.491 0 0 1 123.126 2 A 2.277 2.277 0 0 1 123.879 2.119 A 1.937 1.937 0 0 1 124.697 2.672 A 2.29 2.29 0 0 1 125.216 3.701 A 3.373 3.373 0 0 1 125.297 4.46 L 125.297 4.518 A 3.114 3.114 0 0 1 125.217 5.234 A 2.577 2.577 0 0 1 125.031 5.763 A 2.056 2.056 0 0 1 124.504 6.454 A 2.001 2.001 0 0 1 124.271 6.623 A 2.045 2.045 0 0 1 123.351 6.921 A 2.529 2.529 0 0 1 123.135 6.93 A 2.262 2.262 0 0 1 122.384 6.811 A 1.938 1.938 0 0 1 121.568 6.258 A 2.297 2.297 0 0 1 121.042 5.203 A 3.357 3.357 0 0 1 120.968 4.478 Z M 154.419 4.478 L 154.419 4.421 A 3.057 3.057 0 0 1 154.506 3.679 A 2.573 2.573 0 0 1 154.694 3.164 A 2.16 2.16 0 0 1 155.109 2.579 A 1.957 1.957 0 0 1 155.459 2.303 A 2.036 2.036 0 0 1 156.403 2.006 A 2.491 2.491 0 0 1 156.577 2 A 2.277 2.277 0 0 1 157.331 2.119 A 1.937 1.937 0 0 1 158.148 2.672 A 2.29 2.29 0 0 1 158.667 3.701 A 3.373 3.373 0 0 1 158.748 4.46 L 158.748 4.518 A 3.114 3.114 0 0 1 158.669 5.234 A 2.577 2.577 0 0 1 158.482 5.763 A 2.056 2.056 0 0 1 157.955 6.454 A 2.001 2.001 0 0 1 157.722 6.623 A 2.045 2.045 0 0 1 156.802 6.921 A 2.529 2.529 0 0 1 156.586 6.93 A 2.262 2.262 0 0 1 155.836 6.811 A 1.938 1.938 0 0 1 155.019 6.258 A 2.297 2.297 0 0 1 154.494 5.203 A 3.357 3.357 0 0 1 154.419 4.478 Z M 112.144 2.061 L 112.144 2.817 A 2.251 2.251 0 0 0 111.901 2.79 A 2.782 2.782 0 0 0 111.744 2.786 Q 110.966 2.786 110.675 3.43 A 1.445 1.445 0 0 0 110.659 3.467 L 110.659 6.842 L 109.846 6.842 L 109.846 2.087 L 110.637 2.087 L 110.65 2.637 Q 111.03 2.031 111.713 2.001 A 1.636 1.636 0 0 1 111.784 2 Q 112.021 2 112.144 2.061 Z M 128.615 2.061 L 128.615 2.817 A 2.251 2.251 0 0 0 128.372 2.79 A 2.782 2.782 0 0 0 128.215 2.786 Q 127.437 2.786 127.145 3.43 A 1.445 1.445 0 0 0 127.129 3.467 L 127.129 6.842 L 126.316 6.842 L 126.316 2.087 L 127.107 2.087 L 127.121 2.637 Q 127.501 2.031 128.184 2.001 A 1.636 1.636 0 0 1 128.254 2 Q 128.492 2 128.615 2.061 Z M 205.014 2.061 L 205.014 2.817 A 2.251 2.251 0 0 0 204.771 2.79 A 2.782 2.782 0 0 0 204.614 2.786 Q 203.836 2.786 203.544 3.43 A 1.445 1.445 0 0 0 203.528 3.467 L 203.528 6.842 L 202.715 6.842 L 202.715 2.087 L 203.506 2.087 L 203.52 2.637 Q 203.9 2.031 204.582 2.001 A 1.636 1.636 0 0 1 204.653 2 Q 204.891 2 205.014 2.061 Z M 193.874 1.138 L 192.889 1.138 L 192.889 6.152 L 193.777 6.152 A 2.519 2.519 0 0 0 194.409 6.077 A 1.747 1.747 0 0 0 195.295 5.546 Q 195.754 5.033 195.825 4.151 A 4.165 4.165 0 0 0 195.838 3.819 L 195.838 3.445 Q 195.838 2.654 195.568 2.119 A 1.864 1.864 0 0 0 195.326 1.751 A 1.687 1.687 0 0 0 194.33 1.182 A 2.499 2.499 0 0 0 193.874 1.138 Z M 105.315 4.518 A 2.772 2.772 0 0 0 105.362 5.046 Q 105.423 5.357 105.56 5.602 A 1.545 1.545 0 0 0 105.682 5.788 Q 106.049 6.267 106.664 6.267 A 1.269 1.269 0 0 0 107.153 6.175 Q 107.433 6.06 107.635 5.798 A 1.471 1.471 0 0 0 107.648 5.781 A 1.648 1.648 0 0 0 107.903 5.264 Q 107.972 5.037 107.998 4.764 A 3.655 3.655 0 0 0 108.013 4.421 A 2.687 2.687 0 0 0 107.962 3.881 Q 107.894 3.551 107.737 3.292 A 1.586 1.586 0 0 0 107.642 3.153 A 1.231 1.231 0 0 0 107.227 2.798 Q 106.974 2.667 106.655 2.667 Q 106.065 2.667 105.699 3.127 A 1.515 1.515 0 0 0 105.684 3.146 A 1.589 1.589 0 0 0 105.432 3.644 Q 105.362 3.864 105.334 4.131 A 3.676 3.676 0 0 0 105.315 4.518 Z M 121.786 4.518 A 2.772 2.772 0 0 0 121.833 5.046 Q 121.893 5.357 122.031 5.602 A 1.545 1.545 0 0 0 122.153 5.788 Q 122.52 6.267 123.135 6.267 A 1.269 1.269 0 0 0 123.624 6.175 Q 123.904 6.06 124.106 5.798 A 1.471 1.471 0 0 0 124.119 5.781 A 1.648 1.648 0 0 0 124.374 5.264 Q 124.443 5.037 124.468 4.764 A 3.655 3.655 0 0 0 124.484 4.421 A 2.687 2.687 0 0 0 124.433 3.881 Q 124.365 3.551 124.208 3.292 A 1.586 1.586 0 0 0 124.113 3.153 A 1.231 1.231 0 0 0 123.698 2.798 Q 123.444 2.667 123.126 2.667 Q 122.536 2.667 122.17 3.127 A 1.515 1.515 0 0 0 122.155 3.146 A 1.589 1.589 0 0 0 121.903 3.644 Q 121.833 3.864 121.805 4.131 A 3.676 3.676 0 0 0 121.786 4.518 Z M 155.237 4.518 A 2.772 2.772 0 0 0 155.284 5.046 Q 155.345 5.357 155.482 5.602 A 1.545 1.545 0 0 0 155.604 5.788 Q 155.971 6.267 156.586 6.267 A 1.269 1.269 0 0 0 157.075 6.175 Q 157.355 6.06 157.557 5.798 A 1.471 1.471 0 0 0 157.57 5.781 A 1.648 1.648 0 0 0 157.825 5.264 Q 157.894 5.037 157.92 4.764 A 3.655 3.655 0 0 0 157.935 4.421 A 2.687 2.687 0 0 0 157.884 3.881 Q 157.816 3.551 157.659 3.292 A 1.586 1.586 0 0 0 157.564 3.153 A 1.231 1.231 0 0 0 157.149 2.798 Q 156.896 2.667 156.577 2.667 Q 155.987 2.667 155.621 3.127 A 1.515 1.515 0 0 0 155.606 3.146 A 1.589 1.589 0 0 0 155.354 3.644 Q 155.284 3.864 155.256 4.131 A 3.676 3.676 0 0 0 155.237 4.518 Z M 25.418 3.344 L 25.418 5.616 Q 25.783 6.267 26.534 6.267 A 1.184 1.184 0 0 0 27 6.178 Q 27.257 6.069 27.445 5.827 A 1.403 1.403 0 0 0 27.464 5.803 A 1.501 1.501 0 0 0 27.68 5.372 Q 27.749 5.165 27.78 4.911 A 3.91 3.91 0 0 0 27.809 4.425 Q 27.809 3.838 27.626 3.431 A 1.503 1.503 0 0 0 27.466 3.155 A 1.086 1.086 0 0 0 26.68 2.698 A 1.414 1.414 0 0 0 26.525 2.689 Q 25.865 2.689 25.5 3.213 A 1.623 1.623 0 0 0 25.418 3.344 Z M 78.548 3.344 L 78.548 5.616 Q 78.913 6.267 79.664 6.267 A 1.184 1.184 0 0 0 80.13 6.178 Q 80.387 6.069 80.575 5.827 A 1.403 1.403 0 0 0 80.594 5.803 A 1.501 1.501 0 0 0 80.81 5.372 Q 80.878 5.165 80.91 4.911 A 3.91 3.91 0 0 0 80.938 4.425 Q 80.938 3.838 80.756 3.431 A 1.503 1.503 0 0 0 80.596 3.155 A 1.086 1.086 0 0 0 79.81 2.698 A 1.414 1.414 0 0 0 79.655 2.689 Q 78.995 2.689 78.63 3.213 A 1.623 1.623 0 0 0 78.548 3.344 Z M 95.427 3.344 L 95.427 5.616 Q 95.792 6.267 96.543 6.267 A 1.184 1.184 0 0 0 97.009 6.178 Q 97.266 6.069 97.455 5.827 A 1.403 1.403 0 0 0 97.473 5.803 A 1.501 1.501 0 0 0 97.69 5.372 Q 97.758 5.165 97.79 4.911 A 3.91 3.91 0 0 0 97.818 4.425 Q 97.818 3.838 97.635 3.431 A 1.503 1.503 0 0 0 97.475 3.155 A 1.086 1.086 0 0 0 96.689 2.698 A 1.414 1.414 0 0 0 96.535 2.689 Q 95.874 2.689 95.509 3.213 A 1.623 1.623 0 0 0 95.427 3.344 Z M 100.477 3.344 L 100.477 5.616 Q 100.841 6.267 101.593 6.267 A 1.184 1.184 0 0 0 102.058 6.178 Q 102.316 6.069 102.504 5.827 A 1.403 1.403 0 0 0 102.522 5.803 A 1.501 1.501 0 0 0 102.739 5.372 Q 102.807 5.165 102.839 4.911 A 3.91 3.91 0 0 0 102.867 4.425 Q 102.867 3.838 102.684 3.431 A 1.503 1.503 0 0 0 102.524 3.155 A 1.086 1.086 0 0 0 101.738 2.698 A 1.414 1.414 0 0 0 101.584 2.689 Q 100.924 2.689 100.558 3.213 A 1.623 1.623 0 0 0 100.477 3.344 Z M 2.25 3.85 L 0.844 3.85 L 0.844 6.152 L 2.237 6.152 A 1.84 1.84 0 0 0 2.612 6.116 Q 2.852 6.066 3.036 5.947 A 1.064 1.064 0 0 0 3.166 5.847 A 1.003 1.003 0 0 0 3.488 5.246 A 1.459 1.459 0 0 0 3.507 5.005 Q 3.507 4.099 2.734 3.904 A 1.977 1.977 0 0 0 2.251 3.85 Z M 55.38 3.85 L 53.974 3.85 L 53.974 6.152 L 55.367 6.152 A 1.84 1.84 0 0 0 55.742 6.116 Q 55.982 6.066 56.166 5.947 A 1.064 1.064 0 0 0 56.296 5.847 A 1.003 1.003 0 0 0 56.618 5.246 A 1.459 1.459 0 0 0 56.637 5.005 Q 56.637 4.099 55.864 3.904 A 1.977 1.977 0 0 0 55.38 3.85 Z M 182.017 1.731 L 180.123 4.693 L 182.114 4.693 L 182.114 1.556 L 182.017 1.731 Z M 34.203 1.485 L 33.117 4.478 L 35.292 4.478 L 34.203 1.485 Z M 133.91 1.485 L 132.825 4.478 L 135 4.478 L 133.91 1.485 Z M 0.844 1.138 L 0.844 3.173 L 2.118 3.173 Q 2.672 3.173 3.004 2.896 A 0.905 0.905 0 0 0 3.331 2.246 A 1.27 1.27 0 0 0 3.335 2.145 Q 3.335 1.788 3.195 1.563 A 0.71 0.71 0 0 0 3.028 1.378 A 0.969 0.969 0 0 0 2.742 1.228 Q 2.479 1.139 2.098 1.138 A 3.261 3.261 0 0 0 2.092 1.138 L 0.844 1.138 Z M 53.974 1.138 L 53.974 3.173 L 55.248 3.173 Q 55.802 3.173 56.134 2.896 A 0.905 0.905 0 0 0 56.461 2.246 A 1.27 1.27 0 0 0 56.465 2.145 Q 56.465 1.788 56.325 1.563 A 0.71 0.71 0 0 0 56.158 1.378 A 0.969 0.969 0 0 0 55.872 1.228 Q 55.609 1.139 55.228 1.138 A 3.261 3.261 0 0 0 55.222 1.138 L 53.974 1.138 Z M 187.77 5.098 A 1.375 1.375 0 0 0 187.71 4.684 A 1.109 1.109 0 0 0 187.429 4.223 A 1.148 1.148 0 0 0 186.758 3.899 A 1.593 1.593 0 0 0 186.539 3.885 A 1.466 1.466 0 0 0 186.15 3.934 A 1.086 1.086 0 0 0 185.658 4.219 A 1.123 1.123 0 0 0 185.344 4.854 A 1.572 1.572 0 0 0 185.326 5.098 A 1.48 1.48 0 0 0 185.368 5.459 A 1.019 1.019 0 0 0 185.649 5.955 Q 185.955 6.25 186.488 6.266 A 2.053 2.053 0 0 0 186.548 6.267 Q 187.042 6.267 187.351 6.032 A 1.018 1.018 0 0 0 187.444 5.952 A 1.041 1.041 0 0 0 187.744 5.384 A 1.518 1.518 0 0 0 187.77 5.098 Z M 186.548 1.024 A 1.259 1.259 0 0 0 186.195 1.071 A 0.973 0.973 0 0 0 185.772 1.321 Q 185.476 1.617 185.476 2.127 A 1.325 1.325 0 0 0 185.52 2.48 A 0.994 0.994 0 0 0 185.768 2.916 A 0.974 0.974 0 0 0 186.33 3.2 A 1.382 1.382 0 0 0 186.548 3.217 A 1.279 1.279 0 0 0 186.893 3.173 A 0.952 0.952 0 0 0 187.328 2.916 A 1.018 1.018 0 0 0 187.603 2.352 A 1.426 1.426 0 0 0 187.62 2.127 A 1.282 1.282 0 0 0 187.57 1.76 A 1.013 1.013 0 0 0 187.317 1.332 Q 187.014 1.024 186.548 1.024 Z M 8.284 5.511 L 8.284 4.535 L 7.646 4.535 Q 6.152 4.535 6.152 5.41 Q 6.152 5.792 6.407 6.007 A 0.893 0.893 0 0 0 6.821 6.201 A 1.259 1.259 0 0 0 7.062 6.223 A 1.429 1.429 0 0 0 7.787 6.025 A 1.335 1.335 0 0 0 8.083 5.797 A 1.108 1.108 0 0 0 8.284 5.511 Z M 61.414 5.511 L 61.414 4.535 L 60.776 4.535 Q 59.282 4.535 59.282 5.41 Q 59.282 5.792 59.537 6.007 A 0.893 0.893 0 0 0 59.951 6.201 A 1.259 1.259 0 0 0 60.192 6.223 A 1.429 1.429 0 0 0 60.917 6.025 A 1.335 1.335 0 0 0 61.213 5.797 A 1.108 1.108 0 0 0 61.414 5.511 Z M 148.157 5.511 L 148.157 4.535 L 147.52 4.535 Q 146.026 4.535 146.026 5.41 Q 146.026 5.792 146.281 6.007 A 0.893 0.893 0 0 0 146.694 6.201 A 1.259 1.259 0 0 0 146.936 6.223 A 1.429 1.429 0 0 0 147.661 6.025 A 1.335 1.335 0 0 0 147.956 5.797 A 1.108 1.108 0 0 0 148.157 5.511 Z M 200.628 5.511 L 200.628 4.535 L 199.991 4.535 Q 198.497 4.535 198.497 5.41 Q 198.497 5.792 198.751 6.007 A 0.893 0.893 0 0 0 199.165 6.201 A 1.259 1.259 0 0 0 199.406 6.223 A 1.429 1.429 0 0 0 200.131 6.025 A 1.335 1.335 0 0 0 200.427 5.797 A 1.108 1.108 0 0 0 200.628 5.511 Z" vector-effect="non-scaling-stroke"/></g>
</svg>