<?xml version="1.0" encoding="UTF-8"?>
<svg width="48px" height="48px" viewBox="0 0 48 48" version="1.1" xmlns="http://www.w3.org/2000/svg" xmlns:xlink="http://www.w3.org/1999/xlink">
    <title>Icon-Resource/Storage/Res_Amazon-Simple-Storage_Bucket_48_Dark</title>
    <g id="Icon-Resource/Storage/Res_Amazon-Simple-Storage_Bucket_48" stroke="none" stroke-width="1" fill="none" fill-rule="evenodd">
        <path transform="translate(0vw, 0vh), scale(.65)" d="M40.5038,26.1601 L40.7278,24.4941 C42.5118,25.5811 43.0628,26.2091 43.2228,26.4741 C42.7498,26.6171 41.7948,26.4911 40.5038,26.1601 L40.5038,26.1601 Z M22.8018,20.1111 C22.8018,20.0581 22.8448,20.0151 22.8978,20.0151 C22.9128,20.0151 22.9238,20.0251 22.9368,20.0321 L22.8638,20.1791 C22.8308,20.1691 22.8018,20.1491 22.8018,20.1111 L22.8018,20.1111 Z M36.5138,40.7981 C36.5078,40.8431 36.5048,40.8871 36.5048,40.9311 C36.5048,41.0861 36.1258,41.6751 34.4408,42.3401 C33.6898,42.6371 32.8028,42.9031 31.8028,43.1331 C29.2278,43.7291 26.0638,44.0571 22.8958,44.0571 C14.4298,44.0571 9.2888,41.8871 9.2888,40.9311 C9.2888,40.8871 9.2858,40.8431 9.2798,40.7981 L5.4408,12.2851 C5.6878,12.4291 5.9528,12.5661 6.2308,12.7001 C6.3098,12.7381 6.3958,12.7741 6.4778,12.8121 C6.7178,12.9231 6.9668,13.0301 7.2268,13.1341 C7.3388,13.1781 7.4518,13.2221 7.5668,13.2651 C7.8428,13.3691 8.1278,13.4691 8.4228,13.5651 C8.5098,13.5941 8.5928,13.6241 8.6808,13.6511 C9.0598,13.7701 9.4528,13.8841 9.8578,13.9911 C9.9708,14.0211 10.0878,14.0501 10.2028,14.0781 C10.5148,14.1581 10.8328,14.2341 11.1578,14.3061 C11.2988,14.3381 11.4388,14.3691 11.5808,14.3981 C11.9458,14.4751 12.3188,14.5491 12.6978,14.6181 C12.7798,14.6331 12.8588,14.6491 12.9418,14.6641 C13.3998,14.7441 13.8688,14.8181 14.3448,14.8881 C14.4788,14.9071 14.6148,14.9241 14.7508,14.9421 C15.1108,14.9921 15.4758,15.0381 15.8438,15.0811 C15.9938,15.0981 16.1448,15.1161 16.2968,15.1331 C16.7408,15.1801 17.1888,15.2231 17.6398,15.2621 C17.6928,15.2661 17.7468,15.2721 17.8018,15.2761 C18.3058,15.3171 18.8128,15.3501 19.3208,15.3801 C19.4658,15.3881 19.6108,15.3941 19.7568,15.4011 C20.1408,15.4201 20.5248,15.4351 20.9088,15.4481 C21.0598,15.4531 21.2088,15.4581 21.3588,15.4621 C21.8718,15.4731 22.3848,15.4821 22.8958,15.4821 C23.4058,15.4821 23.9188,15.4731 24.4318,15.4621 C24.5818,15.4581 24.7328,15.4531 24.8828,15.4481 C25.2678,15.4351 25.6508,15.4201 26.0338,15.4011 C26.1808,15.3941 26.3258,15.3881 26.4718,15.3801 C26.9808,15.3501 27.4868,15.3171 27.9898,15.2761 C28.0458,15.2711 28.1008,15.2651 28.1558,15.2621 C28.6068,15.2231 29.0518,15.1801 29.4938,15.1331 C29.6478,15.1161 29.7988,15.0981 29.9508,15.0811 C30.3168,15.0381 30.6808,14.9921 31.0398,14.9431 C31.1768,14.9251 31.3148,14.9071 31.4498,14.8871 C31.9248,14.8181 32.3928,14.7441 32.8518,14.6641 C32.9348,14.6491 33.0158,14.6331 33.0988,14.6171 C33.4768,14.5491 33.8478,14.4751 34.2128,14.3981 C34.3558,14.3691 34.4948,14.3381 34.6358,14.3061 C34.9608,14.2331 35.2788,14.1571 35.5918,14.0781 C35.7058,14.0491 35.8228,14.0211 35.9358,13.9921 C36.3418,13.8841 36.7348,13.7701 37.1138,13.6511 C37.2008,13.6241 37.2828,13.5951 37.3678,13.5661 C37.6648,13.4701 37.9518,13.3691 38.2298,13.2641 C38.3428,13.2221 38.4548,13.1791 38.5658,13.1351 C38.8278,13.0301 39.0788,12.9221 39.3218,12.8101 C39.4008,12.7731 39.4848,12.7381 39.5628,12.7011 C39.8408,12.5671 40.1068,12.4291 40.3538,12.2851 L38.5618,25.5911 C34.9248,24.4241 29.8168,22.3071 24.9818,20.0081 C24.9268,18.9011 24.0178,18.0151 22.8978,18.0151 C21.7418,18.0151 20.8018,18.9561 20.8018,20.1111 C20.8018,21.2661 21.7418,22.2061 22.8978,22.2061 C23.3518,22.2061 23.7698,22.0571 24.1128,21.8101 C28.4448,23.8891 33.9758,26.3421 38.2928,27.5881 L36.5138,40.7981 Z M22.8958,4.0001 C33.3148,4.0001 40.6558,7.2281 40.7918,9.0211 L40.7658,9.2291 C40.7478,9.2911 40.7088,9.3541 40.6758,9.4181 C40.6488,9.4701 40.6288,9.5201 40.5918,9.5731 C40.5478,9.6351 40.4828,9.6981 40.4258,9.7611 C40.3748,9.8161 40.3318,9.8711 40.2708,9.9271 C40.2028,9.9881 40.1158,10.0511 40.0348,10.1131 C39.9598,10.1711 39.8938,10.2281 39.8078,10.2871 C39.7168,10.3471 39.6078,10.4091 39.5058,10.4711 C39.4068,10.5301 39.3158,10.5901 39.2048,10.6491 C39.0948,10.7091 38.9658,10.7671 38.8448,10.8271 C38.7208,10.8881 38.6048,10.9481 38.4688,11.0091 C38.3398,11.0661 38.1928,11.1231 38.0548,11.1801 C37.9048,11.2401 37.7638,11.3021 37.6038,11.3611 C37.4558,11.4171 37.2898,11.4711 37.1328,11.5251 C36.9618,11.5841 36.7978,11.6441 36.6158,11.7021 C36.4468,11.7561 36.2608,11.8061 36.0818,11.8591 C35.8918,11.9151 35.7088,11.9721 35.5088,12.0261 C35.3168,12.0781 35.1098,12.1261 34.9098,12.1761 C34.7028,12.2271 34.5028,12.2801 34.2858,12.3301 C34.0698,12.3791 33.8378,12.4241 33.6118,12.4711 C33.3938,12.5161 33.1818,12.5641 32.9538,12.6071 C32.7138,12.6531 32.4568,12.6941 32.2068,12.7371 C31.9768,12.7761 31.7538,12.8181 31.5148,12.8551 C31.2548,12.8951 30.9788,12.9311 30.7088,12.9681 C30.4648,13.0011 30.2268,13.0381 29.9748,13.0681 C29.6818,13.1041 29.3728,13.1341 29.0698,13.1651 C28.8258,13.1911 28.5898,13.2201 28.3398,13.2421 C28.0038,13.2731 27.6518,13.2961 27.3058,13.3201 C27.0728,13.3381 26.8478,13.3581 26.6098,13.3731 C26.2308,13.3951 25.8338,13.4091 25.4408,13.4261 C25.2248,13.4341 25.0148,13.4471 24.7938,13.4541 C24.1748,13.4721 23.5418,13.4821 22.8958,13.4821 C22.2498,13.4821 21.6168,13.4721 20.9968,13.4541 C20.7748,13.4471 20.5628,13.4331 20.3428,13.4251 C19.9528,13.4091 19.5598,13.3951 19.1818,13.3731 C18.9318,13.3571 18.6938,13.3361 18.4488,13.3181 C18.1158,13.2941 17.7758,13.2721 17.4528,13.2421 C17.2018,13.2201 16.9658,13.1901 16.7208,13.1651 C16.4178,13.1341 16.1088,13.1041 15.8168,13.0681 C15.5668,13.0381 15.3298,13.0021 15.0868,12.9681 C14.8168,12.9311 14.5388,12.8961 14.2778,12.8551 C14.0298,12.8171 13.7978,12.7731 13.5588,12.7321 C13.3178,12.6901 13.0708,12.6511 12.8398,12.6071 C12.6078,12.5631 12.3928,12.5151 12.1688,12.4691 C11.9468,12.4221 11.7188,12.3781 11.5058,12.3291 C11.2898,12.2801 11.0908,12.2271 10.8838,12.1761 C10.6838,12.1261 10.4758,12.0781 10.2848,12.0261 C10.0818,11.9721 9.8968,11.9141 9.7038,11.8571 C9.5278,11.8061 9.3448,11.7551 9.1778,11.7021 C8.9928,11.6431 8.8268,11.5831 8.6538,11.5221 C8.4988,11.4691 8.3358,11.4161 8.1908,11.3611 C8.0288,11.3021 7.8878,11.2391 7.7378,11.1791 C7.5998,11.1221 7.4528,11.0651 7.3248,11.0091 C7.1908,10.9481 7.0738,10.8881 6.9498,10.8271 C6.8288,10.7671 6.6988,10.7091 6.5888,10.6481 C6.4788,10.5891 6.3868,10.5291 6.2868,10.4691 C6.1858,10.4081 6.0768,10.3471 5.9868,10.2871 C5.8998,10.2271 5.8318,10.1691 5.7558,10.1101 C5.6768,10.0491 5.5908,9.9871 5.5248,9.9271 C5.4618,9.8701 5.4178,9.8131 5.3658,9.7581 C5.3098,9.6961 5.2468,9.6341 5.2028,9.5731 C5.1648,9.5191 5.1458,9.4671 5.1178,9.4131 C5.0858,9.3511 5.0468,9.2891 5.0298,9.2291 L5.0018,9.0201 C5.1408,7.2271 12.4798,4.0001 22.8958,4.0001 L22.8958,4.0001 Z M45.2548,26.2571 C45.0418,25.1071 43.7168,23.8891 41.0178,22.3471 L42.7338,9.5951 L42.7338,9.5911 L42.7338,9.5901 L42.7848,9.2001 C42.7908,9.1571 42.7938,9.1141 42.7938,9.0711 C42.7938,4.9041 32.3078,2.0001 22.8958,2.0001 C13.4848,2.0001 2.9998,4.9041 2.9998,9.0711 C2.9998,9.1151 3.0028,9.1591 3.0088,9.2031 L3.0608,9.5931 L3.0608,9.5951 L7.2898,41.0091 C7.4208,44.6851 16.9028,46.0571 22.8958,46.0571 C26.2108,46.0571 29.5338,45.7111 32.2528,45.0821 C33.3478,44.8301 34.3308,44.5331 35.1748,44.2001 C37.3408,43.3451 38.4598,42.2711 38.5038,41.0091 L40.2448,28.0801 C41.1968,28.2821 42.0618,28.4051 42.7808,28.4051 C43.7498,28.4051 44.4748,28.2001 44.8668,27.7321 C45.2168,27.3161 45.3548,26.7921 45.2548,26.2571 L45.2548,26.2571 Z" id="AWS-Amazon-Simple-Storage_Bucket_Resource-Icon_light-bg" fill="#000000"></path>
    </g><g transform="translate(12vw, 80vh)" id="svgGroup" stroke-linecap="round" fill-rule="evenodd" font-size="9pt" stroke="#000" stroke-width="0.25mm" fill="#000" style="stroke:#000;stroke-width:0.25mm;fill:#000"><path d="M 7.783 1.995 L 8.552 1.995 L 8.574 2.522 Q 9.097 1.907 9.985 1.907 A 2.009 2.009 0 0 1 10.495 1.968 A 1.244 1.244 0 0 1 11.342 2.672 A 1.801 1.801 0 0 1 11.96 2.118 A 1.65 1.65 0 0 1 12.489 1.937 A 2.209 2.209 0 0 1 12.859 1.907 A 2.119 2.119 0 0 1 13.503 1.997 Q 14.429 2.292 14.449 3.564 L 14.449 6.75 L 13.636 6.75 L 13.636 3.612 A 1.781 1.781 0 0 0 13.616 3.332 Q 13.592 3.185 13.542 3.067 A 0.758 0.758 0 0 0 13.403 2.85 A 0.68 0.68 0 0 0 13.151 2.682 Q 12.939 2.597 12.622 2.597 A 1.245 1.245 0 0 0 12.256 2.648 A 1.008 1.008 0 0 0 11.87 2.867 A 1.042 1.042 0 0 0 11.556 3.404 A 1.41 1.41 0 0 0 11.523 3.595 L 11.523 6.75 L 10.705 6.75 L 10.705 3.634 A 1.532 1.532 0 0 0 10.657 3.23 Q 10.53 2.768 10.073 2.643 A 1.457 1.457 0 0 0 9.69 2.597 Q 8.916 2.597 8.616 3.234 A 1.459 1.459 0 0 0 8.596 3.278 L 8.596 6.75 L 7.783 6.75 L 7.783 1.995 Z M 4.636 2.202 L 3.788 2.202 A 1.466 1.466 0 0 0 3.738 1.809 A 1.066 1.066 0 0 0 3.419 1.29 A 1.211 1.211 0 0 0 2.95 1.033 Q 2.698 0.958 2.378 0.958 A 2.286 2.286 0 0 0 1.998 0.988 Q 1.796 1.022 1.633 1.095 A 1.101 1.101 0 0 0 1.404 1.233 A 0.892 0.892 0 0 0 1.059 1.887 A 1.267 1.267 0 0 0 1.055 1.995 A 0.806 0.806 0 0 0 1.323 2.6 A 1.134 1.134 0 0 0 1.387 2.656 A 1.562 1.562 0 0 0 1.625 2.813 Q 1.955 2.993 2.516 3.151 A 8.228 8.228 0 0 1 2.981 3.295 Q 3.216 3.377 3.41 3.464 A 3.297 3.297 0 0 1 3.764 3.645 A 2.342 2.342 0 0 1 4.103 3.889 Q 4.293 4.056 4.415 4.248 A 1.45 1.45 0 0 1 4.432 4.276 A 1.498 1.498 0 0 1 4.628 4.832 A 1.948 1.948 0 0 1 4.65 5.124 A 1.606 1.606 0 0 1 4.527 5.76 Q 4.382 6.101 4.064 6.354 A 1.886 1.886 0 0 1 4.043 6.37 Q 3.437 6.838 2.422 6.838 A 3.023 3.023 0 0 1 1.281 6.623 A 2.917 2.917 0 0 1 1.191 6.585 A 2.383 2.383 0 0 1 0.713 6.307 A 1.874 1.874 0 0 1 0.31 5.893 A 1.689 1.689 0 0 1 0 4.896 L 0.848 4.896 A 1.261 1.261 0 0 0 0.918 5.323 A 1.074 1.074 0 0 0 1.277 5.812 Q 1.661 6.113 2.278 6.144 A 2.87 2.87 0 0 0 2.422 6.148 A 2.628 2.628 0 0 0 2.809 6.121 Q 3.005 6.092 3.164 6.031 A 1.129 1.129 0 0 0 3.445 5.875 Q 3.801 5.603 3.801 5.133 A 1.074 1.074 0 0 0 3.759 4.822 A 0.816 0.816 0 0 0 3.472 4.406 Q 3.142 4.148 2.277 3.898 Q 1.191 3.586 0.697 3.131 Q 0.202 2.676 0.202 2.008 Q 0.202 1.252 0.807 0.758 A 2.121 2.121 0 0 1 1.697 0.335 A 3.087 3.087 0 0 1 2.378 0.264 A 2.913 2.913 0 0 1 3.038 0.336 A 2.372 2.372 0 0 1 3.553 0.519 A 2.051 2.051 0 0 1 4.084 0.889 A 1.834 1.834 0 0 1 4.353 1.222 A 1.798 1.798 0 0 1 4.636 2.202 Z M 34.277 2.202 L 33.429 2.202 A 1.466 1.466 0 0 0 33.38 1.809 A 1.066 1.066 0 0 0 33.06 1.29 A 1.211 1.211 0 0 0 32.591 1.033 Q 32.339 0.958 32.019 0.958 A 2.286 2.286 0 0 0 31.639 0.988 Q 31.437 1.022 31.274 1.095 A 1.101 1.101 0 0 0 31.045 1.233 A 0.892 0.892 0 0 0 30.7 1.887 A 1.267 1.267 0 0 0 30.696 1.995 A 0.806 0.806 0 0 0 30.964 2.6 A 1.134 1.134 0 0 0 31.028 2.656 A 1.562 1.562 0 0 0 31.266 2.813 Q 31.596 2.993 32.157 3.151 A 8.228 8.228 0 0 1 32.622 3.295 Q 32.857 3.377 33.051 3.464 A 3.297 3.297 0 0 1 33.405 3.645 A 2.342 2.342 0 0 1 33.744 3.889 Q 33.934 4.056 34.056 4.248 A 1.45 1.45 0 0 1 34.073 4.276 A 1.498 1.498 0 0 1 34.269 4.832 A 1.948 1.948 0 0 1 34.291 5.124 A 1.606 1.606 0 0 1 34.168 5.76 Q 34.023 6.101 33.705 6.354 A 1.886 1.886 0 0 1 33.684 6.37 Q 33.078 6.838 32.063 6.838 A 3.023 3.023 0 0 1 30.922 6.623 A 2.917 2.917 0 0 1 30.832 6.585 A 2.383 2.383 0 0 1 30.354 6.307 A 1.874 1.874 0 0 1 29.951 5.893 A 1.689 1.689 0 0 1 29.641 4.896 L 30.489 4.896 A 1.261 1.261 0 0 0 30.559 5.323 A 1.074 1.074 0 0 0 30.918 5.812 Q 31.302 6.113 31.919 6.144 A 2.87 2.87 0 0 0 32.063 6.148 A 2.628 2.628 0 0 0 32.45 6.121 Q 32.646 6.092 32.805 6.031 A 1.129 1.129 0 0 0 33.087 5.875 Q 33.443 5.603 33.443 5.133 A 1.074 1.074 0 0 0 33.4 4.822 A 0.816 0.816 0 0 0 33.113 4.406 Q 32.783 4.148 31.918 3.898 Q 30.832 3.586 30.338 3.131 Q 29.843 2.676 29.843 2.008 Q 29.843 1.252 30.448 0.758 A 2.121 2.121 0 0 1 31.338 0.335 A 3.087 3.087 0 0 1 32.019 0.264 A 2.913 2.913 0 0 1 32.679 0.336 A 2.372 2.372 0 0 1 33.194 0.519 A 2.051 2.051 0 0 1 33.725 0.889 A 1.834 1.834 0 0 1 33.994 1.222 A 1.798 1.798 0 0 1 34.277 2.202 Z M 54.035 2.522 L 54.075 1.995 L 54.818 1.995 L 54.818 6.636 A 2.511 2.511 0 0 1 54.747 7.249 A 1.738 1.738 0 0 1 54.27 8.09 A 1.834 1.834 0 0 1 53.341 8.57 A 2.671 2.671 0 0 1 52.8 8.622 A 2.446 2.446 0 0 1 51.794 8.402 A 2.003 2.003 0 0 1 51.384 8.161 A 1.563 1.563 0 0 1 51.043 7.8 L 51.465 7.313 A 1.889 1.889 0 0 0 51.899 7.712 A 1.514 1.514 0 0 0 52.743 7.958 A 1.695 1.695 0 0 0 53.12 7.919 Q 53.389 7.858 53.583 7.702 A 1.037 1.037 0 0 0 53.668 7.625 A 1.09 1.09 0 0 0 53.945 7.132 Q 53.992 6.959 53.999 6.752 A 2.134 2.134 0 0 0 54 6.684 L 54 6.275 A 1.601 1.601 0 0 1 52.948 6.821 A 2.279 2.279 0 0 1 52.669 6.838 A 1.672 1.672 0 0 1 51.913 6.67 Q 51.591 6.51 51.342 6.197 A 2.14 2.14 0 0 1 51.317 6.166 A 2.316 2.316 0 0 1 50.934 5.386 Q 50.801 4.922 50.801 4.333 Q 50.801 3.472 51.109 2.884 A 2.096 2.096 0 0 1 51.315 2.564 Q 51.829 1.907 52.677 1.907 A 1.971 1.971 0 0 1 53.276 1.994 A 1.55 1.55 0 0 1 54.035 2.522 Z M 49.887 6.75 L 49.034 6.75 A 0.632 0.632 0 0 1 48.999 6.66 Q 48.968 6.562 48.943 6.41 A 3.997 3.997 0 0 1 48.92 6.249 Q 48.353 6.838 47.567 6.838 A 2.033 2.033 0 0 1 47.037 6.772 A 1.529 1.529 0 0 1 46.413 6.44 Q 45.963 6.042 45.963 5.432 Q 45.963 4.689 46.527 4.278 Q 47.092 3.867 48.116 3.867 L 48.907 3.867 L 48.907 3.494 A 1.152 1.152 0 0 0 48.871 3.199 A 0.828 0.828 0 0 0 48.652 2.815 Q 48.436 2.6 48.045 2.568 A 1.748 1.748 0 0 0 47.901 2.562 Q 47.465 2.562 47.171 2.782 Q 46.877 3.001 46.877 3.313 L 46.059 3.313 A 1.041 1.041 0 0 1 46.184 2.825 A 1.409 1.409 0 0 1 46.312 2.626 Q 46.565 2.294 46.997 2.101 A 2.249 2.249 0 0 1 47.773 1.913 A 2.669 2.669 0 0 1 47.949 1.907 A 2.65 2.65 0 0 1 48.466 1.955 Q 48.774 2.016 49.012 2.156 A 1.439 1.439 0 0 1 49.236 2.318 A 1.396 1.396 0 0 1 49.69 3.144 A 1.998 1.998 0 0 1 49.72 3.45 L 49.72 5.638 Q 49.72 6.073 49.794 6.39 A 1.707 1.707 0 0 0 49.887 6.68 L 49.887 6.75 Z M 19.692 4.351 L 19.692 4.425 Q 19.692 5.511 19.195 6.174 A 1.57 1.57 0 0 1 18.057 6.828 A 2.013 2.013 0 0 1 17.851 6.838 A 2.196 2.196 0 0 1 17.265 6.764 A 1.598 1.598 0 0 1 16.488 6.289 L 16.488 8.578 L 15.675 8.578 L 15.675 1.995 L 16.418 1.995 L 16.458 2.522 A 1.619 1.619 0 0 1 17.597 1.919 A 2.319 2.319 0 0 1 17.838 1.907 A 1.829 1.829 0 0 1 18.475 2.014 A 1.597 1.597 0 0 1 19.193 2.553 Q 19.692 3.199 19.692 4.351 Z M 22.702 4.504 L 22.702 4.355 A 3.17 3.17 0 0 1 22.779 3.646 A 2.581 2.581 0 0 1 22.973 3.092 A 2.191 2.191 0 0 1 23.42 2.466 A 2.033 2.033 0 0 1 23.728 2.221 Q 24.214 1.907 24.781 1.907 A 2.254 2.254 0 0 1 25.394 1.986 A 1.639 1.639 0 0 1 26.222 2.518 Q 26.736 3.129 26.736 4.267 L 26.736 4.605 L 23.515 4.605 A 2.111 2.111 0 0 0 23.586 5.114 A 1.516 1.516 0 0 0 23.926 5.741 A 1.282 1.282 0 0 0 24.86 6.173 A 1.652 1.652 0 0 0 24.926 6.174 A 1.763 1.763 0 0 0 25.254 6.145 Q 25.478 6.103 25.655 5.999 A 1.827 1.827 0 0 0 26.164 5.551 A 2.068 2.068 0 0 0 26.178 5.533 L 26.675 5.919 A 1.926 1.926 0 0 1 25.275 6.811 A 2.749 2.749 0 0 1 24.882 6.838 A 2.394 2.394 0 0 1 24.131 6.725 A 1.974 1.974 0 0 1 23.309 6.203 Q 22.702 5.568 22.702 4.504 Z M 55.837 4.504 L 55.837 4.355 A 3.17 3.17 0 0 1 55.913 3.646 A 2.581 2.581 0 0 1 56.107 3.092 A 2.191 2.191 0 0 1 56.555 2.466 A 2.033 2.033 0 0 1 56.863 2.221 Q 57.349 1.907 57.916 1.907 A 2.254 2.254 0 0 1 58.529 1.986 A 1.639 1.639 0 0 1 59.357 2.518 Q 59.871 3.129 59.871 4.267 L 59.871 4.605 L 56.65 4.605 A 2.111 2.111 0 0 0 56.721 5.114 A 1.516 1.516 0 0 0 57.061 5.741 A 1.282 1.282 0 0 0 57.995 6.173 A 1.652 1.652 0 0 0 58.061 6.174 A 1.763 1.763 0 0 0 58.389 6.145 Q 58.613 6.103 58.79 5.999 A 1.827 1.827 0 0 0 59.299 5.551 A 2.068 2.068 0 0 0 59.313 5.533 L 59.81 5.919 A 1.926 1.926 0 0 1 58.41 6.811 A 2.749 2.749 0 0 1 58.017 6.838 A 2.394 2.394 0 0 1 57.266 6.725 A 1.974 1.974 0 0 1 56.444 6.203 Q 55.837 5.568 55.837 4.504 Z M 35.534 0.844 L 36.347 0.844 L 36.347 1.995 L 37.235 1.995 L 37.235 2.624 L 36.347 2.624 L 36.347 5.572 Q 36.347 5.858 36.466 6.001 Q 36.585 6.144 36.87 6.144 A 1.046 1.046 0 0 0 36.968 6.138 Q 37.071 6.129 37.21 6.101 A 4.024 4.024 0 0 0 37.257 6.091 L 37.257 6.75 A 2.463 2.463 0 0 1 36.824 6.829 A 2.157 2.157 0 0 1 36.633 6.838 Q 36.186 6.838 35.919 6.616 A 0.856 0.856 0 0 1 35.811 6.508 Q 35.584 6.238 35.543 5.78 A 2.351 2.351 0 0 1 35.534 5.572 L 35.534 2.624 L 34.669 2.624 L 34.669 1.995 L 35.534 1.995 L 35.534 0.844 Z M 21.608 0 L 21.608 6.75 L 20.795 6.75 L 20.795 0 L 21.608 0 Z M 37.881 4.386 L 37.881 4.329 A 3.057 3.057 0 0 1 37.968 3.587 A 2.573 2.573 0 0 1 38.156 3.072 A 2.16 2.16 0 0 1 38.57 2.486 A 1.957 1.957 0 0 1 38.92 2.21 A 2.036 2.036 0 0 1 39.865 1.913 A 2.491 2.491 0 0 1 40.039 1.907 A 2.277 2.277 0 0 1 40.792 2.027 A 1.937 1.937 0 0 1 41.61 2.58 A 2.29 2.29 0 0 1 42.129 3.608 A 3.373 3.373 0 0 1 42.21 4.368 L 42.21 4.425 A 3.114 3.114 0 0 1 42.13 5.142 A 2.577 2.577 0 0 1 41.944 5.671 A 2.056 2.056 0 0 1 41.416 6.361 A 2.001 2.001 0 0 1 41.183 6.53 A 2.045 2.045 0 0 1 40.264 6.829 A 2.529 2.529 0 0 1 40.048 6.838 A 2.262 2.262 0 0 1 39.297 6.718 A 1.938 1.938 0 0 1 38.481 6.166 A 2.297 2.297 0 0 1 37.955 5.111 A 3.357 3.357 0 0 1 37.881 4.386 Z M 45.527 1.969 L 45.527 2.725 A 2.251 2.251 0 0 0 45.285 2.698 A 2.782 2.782 0 0 0 45.128 2.694 Q 44.35 2.694 44.058 3.338 A 1.445 1.445 0 0 0 44.042 3.375 L 44.042 6.75 L 43.229 6.75 L 43.229 1.995 L 44.02 1.995 L 44.033 2.544 Q 44.414 1.938 45.096 1.909 A 1.636 1.636 0 0 1 45.167 1.907 Q 45.404 1.907 45.527 1.969 Z M 6.486 1.995 L 6.486 6.75 L 5.673 6.75 L 5.673 1.995 L 6.486 1.995 Z M 38.698 4.425 A 2.772 2.772 0 0 0 38.746 4.954 Q 38.806 5.264 38.944 5.51 A 1.545 1.545 0 0 0 39.065 5.695 Q 39.432 6.174 40.048 6.174 A 1.269 1.269 0 0 0 40.537 6.083 Q 40.816 5.967 41.019 5.706 A 1.471 1.471 0 0 0 41.032 5.689 A 1.648 1.648 0 0 0 41.287 5.171 Q 41.355 4.945 41.381 4.672 A 3.655 3.655 0 0 0 41.397 4.329 A 2.687 2.687 0 0 0 41.345 3.789 Q 41.278 3.459 41.12 3.2 A 1.586 1.586 0 0 0 41.025 3.061 A 1.231 1.231 0 0 0 40.61 2.705 Q 40.357 2.575 40.039 2.575 Q 39.449 2.575 39.083 3.035 A 1.515 1.515 0 0 0 39.068 3.054 A 1.589 1.589 0 0 0 38.815 3.552 Q 38.746 3.772 38.718 4.039 A 3.676 3.676 0 0 0 38.698 4.425 Z M 16.488 3.252 L 16.488 5.524 Q 16.853 6.174 17.605 6.174 A 1.184 1.184 0 0 0 18.07 6.086 Q 18.327 5.977 18.516 5.735 A 1.403 1.403 0 0 0 18.534 5.711 A 1.501 1.501 0 0 0 18.751 5.28 Q 18.819 5.073 18.851 4.818 A 3.91 3.91 0 0 0 18.879 4.333 Q 18.879 3.746 18.696 3.339 A 1.503 1.503 0 0 0 18.536 3.063 A 1.086 1.086 0 0 0 17.75 2.605 A 1.414 1.414 0 0 0 17.596 2.597 Q 16.935 2.597 16.57 3.121 A 1.623 1.623 0 0 0 16.488 3.252 Z M 54 5.449 L 54 3.278 A 1.439 1.439 0 0 0 53.699 2.891 Q 53.396 2.62 52.955 2.599 A 1.578 1.578 0 0 0 52.88 2.597 Q 52.288 2.597 51.954 3.056 A 1.51 1.51 0 0 0 51.743 3.484 Q 51.677 3.689 51.646 3.939 A 3.955 3.955 0 0 0 51.618 4.425 Q 51.618 5.229 51.948 5.689 Q 52.277 6.148 52.871 6.148 A 1.32 1.32 0 0 0 53.38 6.054 Q 53.772 5.891 54 5.449 Z M 48.907 5.418 L 48.907 4.443 L 48.27 4.443 Q 46.776 4.443 46.776 5.317 Q 46.776 5.7 47.03 5.915 A 0.893 0.893 0 0 0 47.444 6.108 A 1.259 1.259 0 0 0 47.685 6.13 A 1.429 1.429 0 0 0 48.41 5.933 A 1.335 1.335 0 0 0 48.706 5.705 A 1.108 1.108 0 0 0 48.907 5.418 Z M 23.542 3.938 L 25.923 3.938 L 25.923 3.876 Q 25.897 3.417 25.727 3.111 A 1.13 1.13 0 0 0 25.59 2.916 A 0.983 0.983 0 0 0 24.935 2.584 A 1.39 1.39 0 0 0 24.781 2.575 A 1.106 1.106 0 0 0 24.258 2.698 A 1.14 1.14 0 0 0 23.955 2.933 A 1.417 1.417 0 0 0 23.678 3.379 Q 23.604 3.563 23.565 3.785 A 2.741 2.741 0 0 0 23.542 3.938 Z M 56.676 3.938 L 59.058 3.938 L 59.058 3.876 Q 59.032 3.417 58.862 3.111 A 1.13 1.13 0 0 0 58.724 2.916 A 0.983 0.983 0 0 0 58.07 2.584 A 1.39 1.39 0 0 0 57.916 2.575 A 1.106 1.106 0 0 0 57.393 2.698 A 1.14 1.14 0 0 0 57.09 2.933 A 1.417 1.417 0 0 0 56.813 3.379 Q 56.739 3.563 56.699 3.785 A 2.741 2.741 0 0 0 56.676 3.938 Z M 5.608 0.734 Q 5.608 0.536 5.728 0.4 Q 5.84 0.274 6.052 0.264 A 0.783 0.783 0 0 1 6.087 0.264 Q 6.324 0.264 6.447 0.4 A 0.474 0.474 0 0 1 6.569 0.703 A 0.614 0.614 0 0 1 6.57 0.734 A 0.523 0.523 0 0 1 6.545 0.9 A 0.442 0.442 0 0 1 6.447 1.063 Q 6.334 1.184 6.126 1.194 A 0.803 0.803 0 0 1 6.087 1.195 Q 5.914 1.195 5.803 1.126 A 0.362 0.362 0 0 1 5.728 1.063 A 0.456 0.456 0 0 1 5.61 0.788 A 0.605 0.605 0 0 1 5.608 0.734 Z" vector-effect="non-scaling-stroke"/></g><g transform="translate(12vw, 90vh)" id="svgGroup" stroke-linecap="round" fill-rule="evenodd" font-size="9pt" stroke="#000" stroke-width="0.25mm" fill="#000" style="stroke:#000;stroke-width:0.25mm;fill:#000"><path d="M 4.636 2.202 L 3.788 2.202 A 1.466 1.466 0 0 0 3.738 1.809 A 1.066 1.066 0 0 0 3.419 1.29 A 1.211 1.211 0 0 0 2.95 1.033 Q 2.698 0.958 2.378 0.958 A 2.286 2.286 0 0 0 1.998 0.988 Q 1.796 1.022 1.633 1.095 A 1.101 1.101 0 0 0 1.404 1.233 A 0.892 0.892 0 0 0 1.059 1.887 A 1.267 1.267 0 0 0 1.055 1.995 A 0.806 0.806 0 0 0 1.323 2.6 A 1.134 1.134 0 0 0 1.387 2.656 A 1.562 1.562 0 0 0 1.625 2.813 Q 1.955 2.993 2.516 3.151 A 8.228 8.228 0 0 1 2.981 3.295 Q 3.216 3.377 3.41 3.464 A 3.297 3.297 0 0 1 3.764 3.645 A 2.342 2.342 0 0 1 4.103 3.889 Q 4.293 4.056 4.415 4.248 A 1.45 1.45 0 0 1 4.432 4.276 A 1.498 1.498 0 0 1 4.628 4.832 A 1.948 1.948 0 0 1 4.65 5.124 A 1.606 1.606 0 0 1 4.527 5.76 Q 4.382 6.101 4.064 6.354 A 1.886 1.886 0 0 1 4.043 6.37 Q 3.437 6.838 2.422 6.838 A 3.023 3.023 0 0 1 1.281 6.623 A 2.917 2.917 0 0 1 1.191 6.585 A 2.383 2.383 0 0 1 0.713 6.307 A 1.874 1.874 0 0 1 0.31 5.893 A 1.689 1.689 0 0 1 0 4.896 L 0.848 4.896 A 1.261 1.261 0 0 0 0.918 5.323 A 1.074 1.074 0 0 0 1.277 5.812 Q 1.661 6.113 2.278 6.144 A 2.87 2.87 0 0 0 2.422 6.148 A 2.628 2.628 0 0 0 2.809 6.121 Q 3.005 6.092 3.164 6.031 A 1.129 1.129 0 0 0 3.445 5.875 Q 3.801 5.603 3.801 5.133 A 1.074 1.074 0 0 0 3.759 4.822 A 0.816 0.816 0 0 0 3.472 4.406 Q 3.142 4.148 2.277 3.898 Q 1.191 3.586 0.697 3.131 Q 0.202 2.676 0.202 2.008 Q 0.202 1.252 0.807 0.758 A 2.121 2.121 0 0 1 1.697 0.335 A 3.087 3.087 0 0 1 2.378 0.264 A 2.913 2.913 0 0 1 3.038 0.336 A 2.372 2.372 0 0 1 3.553 0.519 A 2.051 2.051 0 0 1 4.084 0.889 A 1.834 1.834 0 0 1 4.353 1.222 A 1.798 1.798 0 0 1 4.636 2.202 Z M 50.006 6.75 L 48.349 4.548 L 47.839 5.08 L 47.839 6.75 L 47.026 6.75 L 47.026 0 L 47.839 0 L 47.839 4.083 L 48.274 3.56 L 49.755 1.995 L 50.744 1.995 L 48.894 3.981 L 50.959 6.75 L 50.006 6.75 Z M 90.593 6.75 L 88.937 4.548 L 88.427 5.08 L 88.427 6.75 L 87.614 6.75 L 87.614 0 L 88.427 0 L 88.427 4.083 L 88.862 3.56 L 90.343 1.995 L 91.332 1.995 L 89.482 3.981 L 91.547 6.75 L 90.593 6.75 Z M 40.302 6.75 L 40.285 6.28 A 1.526 1.526 0 0 1 39.459 6.775 Q 39.208 6.836 38.911 6.838 A 2.996 2.996 0 0 1 38.892 6.838 A 2.086 2.086 0 0 1 38.432 6.79 Q 38.001 6.693 37.734 6.396 A 1.41 1.41 0 0 1 37.451 5.899 Q 37.334 5.556 37.332 5.089 L 37.332 1.995 L 38.145 1.995 L 38.145 5.067 Q 38.145 6.037 38.852 6.137 A 1.229 1.229 0 0 0 39.024 6.148 A 1.927 1.927 0 0 0 39.474 6.099 Q 40.037 5.964 40.263 5.454 L 40.263 1.995 L 41.076 1.995 L 41.076 6.75 L 40.302 6.75 Z M 23.067 5.251 L 23.836 5.251 A 1.432 1.432 0 0 1 23.637 5.901 A 1.772 1.772 0 0 1 23.555 6.029 A 1.828 1.828 0 0 1 22.946 6.574 A 2.169 2.169 0 0 1 22.863 6.618 A 1.997 1.997 0 0 1 21.946 6.838 A 2.346 2.346 0 0 1 21.249 6.739 A 1.839 1.839 0 0 1 20.402 6.19 A 2.171 2.171 0 0 1 19.938 5.31 Q 19.828 4.909 19.828 4.417 L 19.828 4.28 A 3.24 3.24 0 0 1 19.892 3.624 A 2.57 2.57 0 0 1 20.083 3.045 A 2.008 2.008 0 0 1 20.523 2.431 A 1.892 1.892 0 0 1 20.815 2.206 A 1.943 1.943 0 0 1 21.571 1.934 A 2.529 2.529 0 0 1 21.942 1.907 A 2.196 2.196 0 0 1 22.59 1.999 A 1.786 1.786 0 0 1 23.271 2.386 A 1.693 1.693 0 0 1 23.83 3.535 A 2.239 2.239 0 0 1 23.836 3.63 L 23.067 3.63 Q 23.032 3.168 22.718 2.872 A 1.078 1.078 0 0 0 21.989 2.576 A 1.402 1.402 0 0 0 21.942 2.575 A 1.374 1.374 0 0 0 21.521 2.637 A 1.081 1.081 0 0 0 20.982 3.021 A 1.469 1.469 0 0 0 20.755 3.468 Q 20.689 3.674 20.662 3.923 A 3.514 3.514 0 0 0 20.641 4.311 L 20.641 4.465 Q 20.641 5.287 20.98 5.73 A 1.1 1.1 0 0 0 21.766 6.165 A 1.611 1.611 0 0 0 21.946 6.174 A 1.171 1.171 0 0 0 22.707 5.911 A 1.007 1.007 0 0 0 22.951 5.629 A 0.914 0.914 0 0 0 23.067 5.251 Z M 45.339 5.251 L 46.108 5.251 A 1.432 1.432 0 0 1 45.908 5.901 A 1.772 1.772 0 0 1 45.826 6.029 A 1.828 1.828 0 0 1 45.217 6.574 A 2.169 2.169 0 0 1 45.134 6.618 A 1.997 1.997 0 0 1 44.218 6.838 A 2.346 2.346 0 0 1 43.521 6.739 A 1.839 1.839 0 0 1 42.673 6.19 A 2.171 2.171 0 0 1 42.21 5.31 Q 42.1 4.909 42.1 4.417 L 42.1 4.28 A 3.24 3.24 0 0 1 42.163 3.624 A 2.57 2.57 0 0 1 42.355 3.045 A 2.008 2.008 0 0 1 42.794 2.431 A 1.892 1.892 0 0 1 43.086 2.206 A 1.943 1.943 0 0 1 43.843 1.934 A 2.529 2.529 0 0 1 44.214 1.907 A 2.196 2.196 0 0 1 44.862 1.999 A 1.786 1.786 0 0 1 45.543 2.386 A 1.693 1.693 0 0 1 46.101 3.535 A 2.239 2.239 0 0 1 46.108 3.63 L 45.339 3.63 Q 45.303 3.168 44.989 2.872 A 1.078 1.078 0 0 0 44.26 2.576 A 1.402 1.402 0 0 0 44.214 2.575 A 1.374 1.374 0 0 0 43.792 2.637 A 1.081 1.081 0 0 0 43.253 3.021 A 1.469 1.469 0 0 0 43.027 3.468 Q 42.961 3.674 42.933 3.923 A 3.514 3.514 0 0 0 42.913 4.311 L 42.913 4.465 Q 42.913 5.287 43.251 5.73 A 1.1 1.1 0 0 0 44.038 6.165 A 1.611 1.611 0 0 0 44.218 6.174 A 1.171 1.171 0 0 0 44.978 5.911 A 1.007 1.007 0 0 0 45.222 5.629 A 0.914 0.914 0 0 0 45.339 5.251 Z M 83.457 6.75 L 82.604 6.75 A 0.632 0.632 0 0 1 82.569 6.66 Q 82.537 6.562 82.513 6.41 A 3.997 3.997 0 0 1 82.49 6.249 Q 81.923 6.838 81.136 6.838 A 2.033 2.033 0 0 1 80.607 6.772 A 1.529 1.529 0 0 1 79.983 6.44 Q 79.532 6.042 79.532 5.432 Q 79.532 4.689 80.097 4.278 Q 80.662 3.867 81.686 3.867 L 82.477 3.867 L 82.477 3.494 A 1.152 1.152 0 0 0 82.441 3.199 A 0.828 0.828 0 0 0 82.222 2.815 Q 82.006 2.6 81.615 2.568 A 1.748 1.748 0 0 0 81.47 2.562 Q 81.035 2.562 80.741 2.782 Q 80.446 3.001 80.446 3.313 L 79.629 3.313 A 1.041 1.041 0 0 1 79.754 2.825 A 1.409 1.409 0 0 1 79.882 2.626 Q 80.134 2.294 80.567 2.101 A 2.249 2.249 0 0 1 81.343 1.913 A 2.669 2.669 0 0 1 81.519 1.907 A 2.65 2.65 0 0 1 82.036 1.955 Q 82.343 2.016 82.582 2.156 A 1.439 1.439 0 0 1 82.806 2.318 A 1.396 1.396 0 0 1 83.26 3.144 A 1.998 1.998 0 0 1 83.29 3.45 L 83.29 5.638 Q 83.29 6.073 83.363 6.39 A 1.707 1.707 0 0 0 83.457 6.68 L 83.457 6.75 Z M 5.397 4.504 L 5.397 4.355 A 3.17 3.17 0 0 1 5.473 3.646 A 2.581 2.581 0 0 1 5.667 3.092 A 2.191 2.191 0 0 1 6.114 2.466 A 2.033 2.033 0 0 1 6.423 2.221 Q 6.908 1.907 7.475 1.907 A 2.254 2.254 0 0 1 8.088 1.986 A 1.639 1.639 0 0 1 8.917 2.518 Q 9.431 3.129 9.431 4.267 L 9.431 4.605 L 6.21 4.605 A 2.111 2.111 0 0 0 6.281 5.114 A 1.516 1.516 0 0 0 6.621 5.741 A 1.282 1.282 0 0 0 7.555 6.173 A 1.652 1.652 0 0 0 7.62 6.174 A 1.763 1.763 0 0 0 7.948 6.145 Q 8.172 6.103 8.35 5.999 A 1.827 1.827 0 0 0 8.859 5.551 A 2.068 2.068 0 0 0 8.873 5.533 L 9.369 5.919 A 1.926 1.926 0 0 1 7.97 6.811 A 2.749 2.749 0 0 1 7.576 6.838 A 2.394 2.394 0 0 1 6.825 6.725 A 1.974 1.974 0 0 1 6.003 6.203 Q 5.397 5.568 5.397 4.504 Z M 24.544 4.504 L 24.544 4.355 A 3.17 3.17 0 0 1 24.62 3.646 A 2.581 2.581 0 0 1 24.814 3.092 A 2.191 2.191 0 0 1 25.261 2.466 A 2.033 2.033 0 0 1 25.57 2.221 Q 26.055 1.907 26.622 1.907 A 2.254 2.254 0 0 1 27.235 1.986 A 1.639 1.639 0 0 1 28.064 2.518 Q 28.578 3.129 28.578 4.267 L 28.578 4.605 L 25.357 4.605 A 2.111 2.111 0 0 0 25.428 5.114 A 1.516 1.516 0 0 0 25.767 5.741 A 1.282 1.282 0 0 0 26.702 6.173 A 1.652 1.652 0 0 0 26.767 6.174 A 1.763 1.763 0 0 0 27.095 6.145 Q 27.319 6.103 27.497 5.999 A 1.827 1.827 0 0 0 28.006 5.551 A 2.068 2.068 0 0 0 28.02 5.533 L 28.516 5.919 A 1.926 1.926 0 0 1 27.117 6.811 A 2.749 2.749 0 0 1 26.723 6.838 A 2.394 2.394 0 0 1 25.972 6.725 A 1.974 1.974 0 0 1 25.15 6.203 Q 24.544 5.568 24.544 4.504 Z M 51.289 4.504 L 51.289 4.355 A 3.17 3.17 0 0 1 51.365 3.646 A 2.581 2.581 0 0 1 51.559 3.092 A 2.191 2.191 0 0 1 52.006 2.466 A 2.033 2.033 0 0 1 52.315 2.221 Q 52.8 1.907 53.367 1.907 A 2.254 2.254 0 0 1 53.98 1.986 A 1.639 1.639 0 0 1 54.809 2.518 Q 55.323 3.129 55.323 4.267 L 55.323 4.605 L 52.102 4.605 A 2.111 2.111 0 0 0 52.173 5.114 A 1.516 1.516 0 0 0 52.513 5.741 A 1.282 1.282 0 0 0 53.447 6.173 A 1.652 1.652 0 0 0 53.512 6.174 A 1.763 1.763 0 0 0 53.841 6.145 Q 54.064 6.103 54.242 5.999 A 1.827 1.827 0 0 0 54.751 5.551 A 2.068 2.068 0 0 0 54.765 5.533 L 55.261 5.919 A 1.926 1.926 0 0 1 53.862 6.811 A 2.749 2.749 0 0 1 53.468 6.838 A 2.394 2.394 0 0 1 52.717 6.725 A 1.974 1.974 0 0 1 51.895 6.203 Q 51.289 5.568 51.289 4.504 Z M 34.093 6.75 L 31.874 6.75 L 31.874 0.352 L 33.965 0.352 A 4.031 4.031 0 0 1 34.538 0.39 Q 34.831 0.432 35.068 0.521 A 1.629 1.629 0 0 1 35.532 0.782 A 1.383 1.383 0 0 1 36.003 1.558 A 2.164 2.164 0 0 1 36.057 2.057 A 1.3 1.3 0 0 1 35.802 2.85 A 1.589 1.589 0 0 1 35.291 3.294 A 1.972 1.972 0 0 1 35.108 3.384 A 1.571 1.571 0 0 1 35.623 3.63 A 1.446 1.446 0 0 1 35.928 3.935 A 1.531 1.531 0 0 1 36.22 4.713 A 1.961 1.961 0 0 1 36.229 4.904 A 2.139 2.139 0 0 1 36.153 5.487 A 1.577 1.577 0 0 1 35.671 6.258 A 1.832 1.832 0 0 1 34.979 6.633 Q 34.712 6.713 34.393 6.739 A 3.81 3.81 0 0 1 34.093 6.75 Z M 13.856 1.995 L 15.065 5.647 L 16.242 1.995 L 17.073 1.995 L 15.368 6.75 L 14.748 6.75 L 13.026 1.995 L 13.856 1.995 Z M 64.78 0.352 L 64.78 4.601 L 65.668 4.601 L 65.668 5.265 L 64.78 5.265 L 64.78 6.75 L 63.963 6.75 L 63.963 5.265 L 61.049 5.265 L 61.049 4.786 L 63.914 0.352 L 64.78 0.352 Z M 75.665 6.75 L 73.894 6.75 L 73.894 0.352 L 75.7 0.352 Q 76.535 0.352 77.177 0.721 Q 77.819 1.09 78.168 1.771 A 3.19 3.19 0 0 1 78.485 2.8 A 4.073 4.073 0 0 1 78.522 3.335 L 78.522 3.744 Q 78.522 4.649 78.172 5.331 A 2.457 2.457 0 0 1 77.175 6.376 Q 76.527 6.741 75.665 6.75 Z M 70.178 2.592 A 1.544 1.544 0 0 0 70.282 2.021 A 2.226 2.226 0 0 0 70.26 1.707 A 1.566 1.566 0 0 0 69.761 0.738 A 1.754 1.754 0 0 0 68.995 0.333 A 2.443 2.443 0 0 0 68.397 0.264 A 2.539 2.539 0 0 0 67.887 0.312 A 1.767 1.767 0 0 0 67.03 0.738 Q 66.511 1.213 66.511 2.021 A 1.808 1.808 0 0 0 66.512 2.058 A 1.499 1.499 0 0 0 66.757 2.87 A 1.626 1.626 0 0 0 66.919 3.077 A 1.726 1.726 0 0 0 67.43 3.454 A 2.119 2.119 0 0 0 67.33 3.5 A 1.738 1.738 0 0 0 66.645 4.087 A 1.629 1.629 0 0 0 66.362 5.023 A 2.272 2.272 0 0 0 66.372 5.237 A 1.63 1.63 0 0 0 66.918 6.344 A 1.895 1.895 0 0 0 67.768 6.771 A 2.797 2.797 0 0 0 68.397 6.838 A 2.796 2.796 0 0 0 68.996 6.777 A 1.925 1.925 0 0 0 69.871 6.346 A 1.578 1.578 0 0 0 70.346 5.62 A 1.989 1.989 0 0 0 70.431 5.023 A 1.581 1.581 0 0 0 70.139 4.087 Q 69.847 3.674 69.346 3.458 Q 69.777 3.248 70.029 2.874 A 1.449 1.449 0 0 0 70.178 2.592 Z M 56.553 0.844 L 57.366 0.844 L 57.366 1.995 L 58.254 1.995 L 58.254 2.624 L 57.366 2.624 L 57.366 5.572 Q 57.366 5.858 57.485 6.001 Q 57.604 6.144 57.889 6.144 A 1.046 1.046 0 0 0 57.987 6.138 Q 58.09 6.129 58.229 6.101 A 4.024 4.024 0 0 0 58.276 6.091 L 58.276 6.75 A 2.463 2.463 0 0 1 57.843 6.829 A 2.157 2.157 0 0 1 57.652 6.838 Q 57.205 6.838 56.938 6.616 A 0.856 0.856 0 0 1 56.83 6.508 Q 56.603 6.238 56.562 5.78 A 2.351 2.351 0 0 1 56.553 5.572 L 56.553 2.624 L 55.688 2.624 L 55.688 1.995 L 56.553 1.995 L 56.553 0.844 Z M 12.67 1.969 L 12.67 2.725 A 2.251 2.251 0 0 0 12.427 2.698 A 2.782 2.782 0 0 0 12.27 2.694 Q 11.492 2.694 11.2 3.338 A 1.445 1.445 0 0 0 11.184 3.375 L 11.184 6.75 L 10.371 6.75 L 10.371 1.995 L 11.162 1.995 L 11.175 2.544 Q 11.556 1.938 12.238 1.909 A 1.636 1.636 0 0 1 12.309 1.907 Q 12.547 1.907 12.67 1.969 Z M 86.862 1.969 L 86.862 2.725 A 2.251 2.251 0 0 0 86.62 2.698 A 2.782 2.782 0 0 0 86.463 2.694 Q 85.685 2.694 85.393 3.338 A 1.445 1.445 0 0 0 85.377 3.375 L 85.377 6.75 L 84.564 6.75 L 84.564 1.995 L 85.355 1.995 L 85.368 2.544 Q 85.749 1.938 86.431 1.909 A 1.636 1.636 0 0 1 86.502 1.907 Q 86.739 1.907 86.862 1.969 Z M 75.722 1.046 L 74.738 1.046 L 74.738 6.06 L 75.626 6.06 A 2.519 2.519 0 0 0 76.258 5.985 A 1.747 1.747 0 0 0 77.144 5.454 Q 77.603 4.94 77.674 4.059 A 4.165 4.165 0 0 0 77.687 3.727 L 77.687 3.353 Q 77.687 2.562 77.417 2.027 A 1.864 1.864 0 0 0 77.175 1.659 A 1.687 1.687 0 0 0 76.179 1.09 A 2.499 2.499 0 0 0 75.722 1.046 Z M 18.738 1.995 L 18.738 6.75 L 17.925 6.75 L 17.925 1.995 L 18.738 1.995 Z M 34.124 3.757 L 32.717 3.757 L 32.717 6.06 L 34.11 6.06 A 1.84 1.84 0 0 0 34.486 6.024 Q 34.726 5.974 34.91 5.854 A 1.064 1.064 0 0 0 35.04 5.755 A 1.003 1.003 0 0 0 35.361 5.154 A 1.459 1.459 0 0 0 35.381 4.913 Q 35.381 4.007 34.608 3.811 A 1.977 1.977 0 0 0 34.124 3.757 Z M 63.866 1.639 L 61.972 4.601 L 63.963 4.601 L 63.963 1.463 L 63.866 1.639 Z M 32.717 1.046 L 32.717 3.081 L 33.992 3.081 Q 34.546 3.081 34.877 2.804 A 0.905 0.905 0 0 0 35.205 2.154 A 1.27 1.27 0 0 0 35.209 2.052 Q 35.209 1.696 35.069 1.471 A 0.71 0.71 0 0 0 34.902 1.285 A 0.969 0.969 0 0 0 34.616 1.136 Q 34.353 1.047 33.971 1.046 A 3.261 3.261 0 0 0 33.965 1.046 L 32.717 1.046 Z M 69.618 5.005 A 1.375 1.375 0 0 0 69.559 4.592 A 1.109 1.109 0 0 0 69.278 4.131 A 1.148 1.148 0 0 0 68.606 3.807 A 1.593 1.593 0 0 0 68.388 3.792 A 1.466 1.466 0 0 0 67.999 3.841 A 1.086 1.086 0 0 0 67.507 4.126 A 1.123 1.123 0 0 0 67.193 4.762 A 1.572 1.572 0 0 0 67.175 5.005 A 1.48 1.48 0 0 0 67.217 5.367 A 1.019 1.019 0 0 0 67.498 5.862 Q 67.804 6.158 68.337 6.173 A 2.053 2.053 0 0 0 68.397 6.174 Q 68.89 6.174 69.2 5.94 A 1.018 1.018 0 0 0 69.293 5.86 A 1.041 1.041 0 0 0 69.592 5.292 A 1.518 1.518 0 0 0 69.618 5.005 Z M 68.397 0.932 A 1.259 1.259 0 0 0 68.044 0.979 A 0.973 0.973 0 0 0 67.621 1.228 Q 67.324 1.525 67.324 2.035 A 1.325 1.325 0 0 0 67.369 2.387 A 0.994 0.994 0 0 0 67.617 2.823 A 0.974 0.974 0 0 0 68.179 3.108 A 1.382 1.382 0 0 0 68.397 3.125 A 1.279 1.279 0 0 0 68.741 3.08 A 0.952 0.952 0 0 0 69.177 2.823 A 1.018 1.018 0 0 0 69.452 2.26 A 1.426 1.426 0 0 0 69.469 2.035 A 1.282 1.282 0 0 0 69.419 1.668 A 1.013 1.013 0 0 0 69.166 1.239 Q 68.862 0.932 68.397 0.932 Z M 82.477 5.418 L 82.477 4.443 L 81.84 4.443 Q 80.345 4.443 80.345 5.317 Q 80.345 5.7 80.6 5.915 A 0.893 0.893 0 0 0 81.014 6.108 A 1.259 1.259 0 0 0 81.255 6.13 A 1.429 1.429 0 0 0 81.98 5.933 A 1.335 1.335 0 0 0 82.276 5.705 A 1.108 1.108 0 0 0 82.477 5.418 Z M 6.236 3.938 L 8.618 3.938 L 8.618 3.876 Q 8.592 3.417 8.421 3.111 A 1.13 1.13 0 0 0 8.284 2.916 A 0.983 0.983 0 0 0 7.629 2.584 A 1.39 1.39 0 0 0 7.475 2.575 A 1.106 1.106 0 0 0 6.953 2.698 A 1.14 1.14 0 0 0 6.649 2.933 A 1.417 1.417 0 0 0 6.372 3.379 Q 6.299 3.563 6.259 3.785 A 2.741 2.741 0 0 0 6.236 3.938 Z M 25.383 3.938 L 27.765 3.938 L 27.765 3.876 Q 27.739 3.417 27.568 3.111 A 1.13 1.13 0 0 0 27.431 2.916 A 0.983 0.983 0 0 0 26.776 2.584 A 1.39 1.39 0 0 0 26.622 2.575 A 1.106 1.106 0 0 0 26.1 2.698 A 1.14 1.14 0 0 0 25.796 2.933 A 1.417 1.417 0 0 0 25.519 3.379 Q 25.446 3.563 25.406 3.785 A 2.741 2.741 0 0 0 25.383 3.938 Z M 52.128 3.938 L 54.51 3.938 L 54.51 3.876 Q 54.484 3.417 54.313 3.111 A 1.13 1.13 0 0 0 54.176 2.916 A 0.983 0.983 0 0 0 53.521 2.584 A 1.39 1.39 0 0 0 53.367 2.575 A 1.106 1.106 0 0 0 52.845 2.698 A 1.14 1.14 0 0 0 52.541 2.933 A 1.417 1.417 0 0 0 52.265 3.379 Q 52.191 3.563 52.151 3.785 A 2.741 2.741 0 0 0 52.128 3.938 Z M 17.86 0.734 Q 17.86 0.536 17.98 0.4 Q 18.092 0.274 18.304 0.264 A 0.783 0.783 0 0 1 18.339 0.264 Q 18.576 0.264 18.699 0.4 A 0.474 0.474 0 0 1 18.821 0.703 A 0.614 0.614 0 0 1 18.822 0.734 A 0.523 0.523 0 0 1 18.797 0.9 A 0.442 0.442 0 0 1 18.699 1.063 Q 18.586 1.184 18.378 1.194 A 0.803 0.803 0 0 1 18.339 1.195 Q 18.166 1.195 18.055 1.126 A 0.362 0.362 0 0 1 17.98 1.063 A 0.456 0.456 0 0 1 17.862 0.788 A 0.605 0.605 0 0 1 17.86 0.734 Z" vector-effect="non-scaling-stroke"/></g>
</svgversion="1.0" encoding="UTF-8"?>
<svg width="48px" height="48px" viewBox="0 0 48 48" version="1.1" xmlns="http://www.w3.org/2000/svg" xmlns:xlink="http://www.w3.org/1999/xlink">
    <title>Icon-Resource/Storage/Res_Amazon-Simple-Storage_Bucket_48_Dark</title>
    <g id="Icon-Resource/Storage/Res_Amazon-Simple-Storage_Bucket_48" stroke="none" stroke-width="1" fill="none" fill-rule="evenodd">
        <path transform="translate(0vw, 0vh), scale(.65)" d="M40.5038,26.1601 L40.7278,24.4941 C42.5118,25.5811 43.0628,26.2091 43.2228,26.4741 C42.7498,26.6171 41.7948,26.4911 40.5038,26.1601 L40.5038,26.1601 Z M22.8018,20.1111 C22.8018,20.0581 22.8448,20.0151 22.8978,20.0151 C22.9128,20.0151 22.9238,20.0251 22.9368,20.0321 L22.8638,20.1791 C22.8308,20.1691 22.8018,20.1491 22.8018,20.1111 L22.8018,20.1111 Z M36.5138,40.7981 C36.5078,40.8431 36.5048,40.8871 36.5048,40.9311 C36.5048,41.0861 36.1258,41.6751 34.4408,42.3401 C33.6898,42.6371 32.8028,42.9031 31.8028,43.1331 C29.2278,43.7291 26.0638,44.0571 22.8958,44.0571 C14.4298,44.0571 9.2888,41.8871 9.2888,40.9311 C9.2888,40.8871 9.2858,40.8431 9.2798,40.7981 L5.4408,12.2851 C5.6878,12.4291 5.9528,12.5661 6.2308,12.7001 C6.3098,12.7381 6.3958,12.7741 6.4778,12.8121 C6.7178,12.9231 6.9668,13.0301 7.2268,13.1341 C7.3388,13.1781 7.4518,13.2221 7.5668,13.2651 C7.8428,13.3691 8.1278,13.4691 8.4228,13.5651 C8.5098,13.5941 8.5928,13.6241 8.6808,13.6511 C9.0598,13.7701 9.4528,13.8841 9.8578,13.9911 C9.9708,14.0211 10.0878,14.0501 10.2028,14.0781 C10.5148,14.1581 10.8328,14.2341 11.1578,14.3061 C11.2988,14.3381 11.4388,14.3691 11.5808,14.3981 C11.9458,14.4751 12.3188,14.5491 12.6978,14.6181 C12.7798,14.6331 12.8588,14.6491 12.9418,14.6641 C13.3998,14.7441 13.8688,14.8181 14.3448,14.8881 C14.4788,14.9071 14.6148,14.9241 14.7508,14.9421 C15.1108,14.9921 15.4758,15.0381 15.8438,15.0811 C15.9938,15.0981 16.1448,15.1161 16.2968,15.1331 C16.7408,15.1801 17.1888,15.2231 17.6398,15.2621 C17.6928,15.2661 17.7468,15.2721 17.8018,15.2761 C18.3058,15.3171 18.8128,15.3501 19.3208,15.3801 C19.4658,15.3881 19.6108,15.3941 19.7568,15.4011 C20.1408,15.4201 20.5248,15.4351 20.9088,15.4481 C21.0598,15.4531 21.2088,15.4581 21.3588,15.4621 C21.8718,15.4731 22.3848,15.4821 22.8958,15.4821 C23.4058,15.4821 23.9188,15.4731 24.4318,15.4621 C24.5818,15.4581 24.7328,15.4531 24.8828,15.4481 C25.2678,15.4351 25.6508,15.4201 26.0338,15.4011 C26.1808,15.3941 26.3258,15.3881 26.4718,15.3801 C26.9808,15.3501 27.4868,15.3171 27.9898,15.2761 C28.0458,15.2711 28.1008,15.2651 28.1558,15.2621 C28.6068,15.2231 29.0518,15.1801 29.4938,15.1331 C29.6478,15.1161 29.7988,15.0981 29.9508,15.0811 C30.3168,15.0381 30.6808,14.9921 31.0398,14.9431 C31.1768,14.9251 31.3148,14.9071 31.4498,14.8871 C31.9248,14.8181 32.3928,14.7441 32.8518,14.6641 C32.9348,14.6491 33.0158,14.6331 33.0988,14.6171 C33.4768,14.5491 33.8478,14.4751 34.2128,14.3981 C34.3558,14.3691 34.4948,14.3381 34.6358,14.3061 C34.9608,14.2331 35.2788,14.1571 35.5918,14.0781 C35.7058,14.0491 35.8228,14.0211 35.9358,13.9921 C36.3418,13.8841 36.7348,13.7701 37.1138,13.6511 C37.2008,13.6241 37.2828,13.5951 37.3678,13.5661 C37.6648,13.4701 37.9518,13.3691 38.2298,13.2641 C38.3428,13.2221 38.4548,13.1791 38.5658,13.1351 C38.8278,13.0301 39.0788,12.9221 39.3218,12.8101 C39.4008,12.7731 39.4848,12.7381 39.5628,12.7011 C39.8408,12.5671 40.1068,12.4291 40.3538,12.2851 L38.5618,25.5911 C34.9248,24.4241 29.8168,22.3071 24.9818,20.0081 C24.9268,18.9011 24.0178,18.0151 22.8978,18.0151 C21.7418,18.0151 20.8018,18.9561 20.8018,20.1111 C20.8018,21.2661 21.7418,22.2061 22.8978,22.2061 C23.3518,22.2061 23.7698,22.0571 24.1128,21.8101 C28.4448,23.8891 33.9758,26.3421 38.2928,27.5881 L36.5138,40.7981 Z M22.8958,4.0001 C33.3148,4.0001 40.6558,7.2281 40.7918,9.0211 L40.7658,9.2291 C40.7478,9.2911 40.7088,9.3541 40.6758,9.4181 C40.6488,9.4701 40.6288,9.5201 40.5918,9.5731 C40.5478,9.6351 40.4828,9.6981 40.4258,9.7611 C40.3748,9.8161 40.3318,9.8711 40.2708,9.9271 C40.2028,9.9881 40.1158,10.0511 40.0348,10.1131 C39.9598,10.1711 39.8938,10.2281 39.8078,10.2871 C39.7168,10.3471 39.6078,10.4091 39.5058,10.4711 C39.4068,10.5301 39.3158,10.5901 39.2048,10.6491 C39.0948,10.7091 38.9658,10.7671 38.8448,10.8271 C38.7208,10.8881 38.6048,10.9481 38.4688,11.0091 C38.3398,11.0661 38.1928,11.1231 38.0548,11.1801 C37.9048,11.2401 37.7638,11.3021 37.6038,11.3611 C37.4558,11.4171 37.2898,11.4711 37.1328,11.5251 C36.9618,11.5841 36.7978,11.6441 36.6158,11.7021 C36.4468,11.7561 36.2608,11.8061 36.0818,11.8591 C35.8918,11.9151 35.7088,11.9721 35.5088,12.0261 C35.3168,12.0781 35.1098,12.1261 34.9098,12.1761 C34.7028,12.2271 34.5028,12.2801 34.2858,12.3301 C34.0698,12.3791 33.8378,12.4241 33.6118,12.4711 C33.3938,12.5161 33.1818,12.5641 32.9538,12.6071 C32.7138,12.6531 32.4568,12.6941 32.2068,12.7371 C31.9768,12.7761 31.7538,12.8181 31.5148,12.8551 C31.2548,12.8951 30.9788,12.9311 30.7088,12.9681 C30.4648,13.0011 30.2268,13.0381 29.9748,13.0681 C29.6818,13.1041 29.3728,13.1341 29.0698,13.1651 C28.8258,13.1911 28.5898,13.2201 28.3398,13.2421 C28.0038,13.2731 27.6518,13.2961 27.3058,13.3201 C27.0728,13.3381 26.8478,13.3581 26.6098,13.3731 C26.2308,13.3951 25.8338,13.4091 25.4408,13.4261 C25.2248,13.4341 25.0148,13.4471 24.7938,13.4541 C24.1748,13.4721 23.5418,13.4821 22.8958,13.4821 C22.2498,13.4821 21.6168,13.4721 20.9968,13.4541 C20.7748,13.4471 20.5628,13.4331 20.3428,13.4251 C19.9528,13.4091 19.5598,13.3951 19.1818,13.3731 C18.9318,13.3571 18.6938,13.3361 18.4488,13.3181 C18.1158,13.2941 17.7758,13.2721 17.4528,13.2421 C17.2018,13.2201 16.9658,13.1901 16.7208,13.1651 C16.4178,13.1341 16.1088,13.1041 15.8168,13.0681 C15.5668,13.0381 15.3298,13.0021 15.0868,12.9681 C14.8168,12.9311 14.5388,12.8961 14.2778,12.8551 C14.0298,12.8171 13.7978,12.7731 13.5588,12.7321 C13.3178,12.6901 13.0708,12.6511 12.8398,12.6071 C12.6078,12.5631 12.3928,12.5151 12.1688,12.4691 C11.9468,12.4221 11.7188,12.3781 11.5058,12.3291 C11.2898,12.2801 11.0908,12.2271 10.8838,12.1761 C10.6838,12.1261 10.4758,12.0781 10.2848,12.0261 C10.0818,11.9721 9.8968,11.9141 9.7038,11.8571 C9.5278,11.8061 9.3448,11.7551 9.1778,11.7021 C8.9928,11.6431 8.8268,11.5831 8.6538,11.5221 C8.4988,11.4691 8.3358,11.4161 8.1908,11.3611 C8.0288,11.3021 7.8878,11.2391 7.7378,11.1791 C7.5998,11.1221 7.4528,11.0651 7.3248,11.0091 C7.1908,10.9481 7.0738,10.8881 6.9498,10.8271 C6.8288,10.7671 6.6988,10.7091 6.5888,10.6481 C6.4788,10.5891 6.3868,10.5291 6.2868,10.4691 C6.1858,10.4081 6.0768,10.3471 5.9868,10.2871 C5.8998,10.2271 5.8318,10.1691 5.7558,10.1101 C5.6768,10.0491 5.5908,9.9871 5.5248,9.9271 C5.4618,9.8701 5.4178,9.8131 5.3658,9.7581 C5.3098,9.6961 5.2468,9.6341 5.2028,9.5731 C5.1648,9.5191 5.1458,9.4671 5.1178,9.4131 C5.0858,9.3511 5.0468,9.2891 5.0298,9.2291 L5.0018,9.0201 C5.1408,7.2271 12.4798,4.0001 22.8958,4.0001 L22.8958,4.0001 Z M45.2548,26.2571 C45.0418,25.1071 43.7168,23.8891 41.0178,22.3471 L42.7338,9.5951 L42.7338,9.5911 L42.7338,9.5901 L42.7848,9.2001 C42.7908,9.1571 42.7938,9.1141 42.7938,9.0711 C42.7938,4.9041 32.3078,2.0001 22.8958,2.0001 C13.4848,2.0001 2.9998,4.9041 2.9998,9.0711 C2.9998,9.1151 3.0028,9.1591 3.0088,9.2031 L3.0608,9.5931 L3.0608,9.5951 L7.2898,41.0091 C7.4208,44.6851 16.9028,46.0571 22.8958,46.0571 C26.2108,46.0571 29.5338,45.7111 32.2528,45.0821 C33.3478,44.8301 34.3308,44.5331 35.1748,44.2001 C37.3408,43.3451 38.4598,42.2711 38.5038,41.0091 L40.2448,28.0801 C41.1968,28.2821 42.0618,28.4051 42.7808,28.4051 C43.7498,28.4051 44.4748,28.2001 44.8668,27.7321 C45.2168,27.3161 45.3548,26.7921 45.2548,26.2571 L45.2548,26.2571 Z" id="AWS-Amazon-Simple-Storage_Bucket_Resource-Icon_light-bg" fill="#000000"></path>
    </g><g transform="translate(12vw, 80vh)" id="svgGroup" stroke-linecap="round" fill-rule="evenodd" font-size="9pt" stroke="#000" stroke-width="0.25mm" fill="#000" style="stroke:#000;stroke-width:0.25mm;fill:#000"><path d="M 7.783 1.995 L 8.552 1.995 L 8.574 2.522 Q 9.097 1.907 9.985 1.907 A 2.009 2.009 0 0 1 10.495 1.968 A 1.244 1.244 0 0 1 11.342 2.672 A 1.801 1.801 0 0 1 11.96 2.118 A 1.65 1.65 0 0 1 12.489 1.937 A 2.209 2.209 0 0 1 12.859 1.907 A 2.119 2.119 0 0 1 13.503 1.997 Q 14.429 2.292 14.449 3.564 L 14.449 6.75 L 13.636 6.75 L 13.636 3.612 A 1.781 1.781 0 0 0 13.616 3.332 Q 13.592 3.185 13.542 3.067 A 0.758 0.758 0 0 0 13.403 2.85 A 0.68 0.68 0 0 0 13.151 2.682 Q 12.939 2.597 12.622 2.597 A 1.245 1.245 0 0 0 12.256 2.648 A 1.008 1.008 0 0 0 11.87 2.867 A 1.042 1.042 0 0 0 11.556 3.404 A 1.41 1.41 0 0 0 11.523 3.595 L 11.523 6.75 L 10.705 6.75 L 10.705 3.634 A 1.532 1.532 0 0 0 10.657 3.23 Q 10.53 2.768 10.073 2.643 A 1.457 1.457 0 0 0 9.69 2.597 Q 8.916 2.597 8.616 3.234 A 1.459 1.459 0 0 0 8.596 3.278 L 8.596 6.75 L 7.783 6.75 L 7.783 1.995 Z M 4.636 2.202 L 3.788 2.202 A 1.466 1.466 0 0 0 3.738 1.809 A 1.066 1.066 0 0 0 3.419 1.29 A 1.211 1.211 0 0 0 2.95 1.033 Q 2.698 0.958 2.378 0.958 A 2.286 2.286 0 0 0 1.998 0.988 Q 1.796 1.022 1.633 1.095 A 1.101 1.101 0 0 0 1.404 1.233 A 0.892 0.892 0 0 0 1.059 1.887 A 1.267 1.267 0 0 0 1.055 1.995 A 0.806 0.806 0 0 0 1.323 2.6 A 1.134 1.134 0 0 0 1.387 2.656 A 1.562 1.562 0 0 0 1.625 2.813 Q 1.955 2.993 2.516 3.151 A 8.228 8.228 0 0 1 2.981 3.295 Q 3.216 3.377 3.41 3.464 A 3.297 3.297 0 0 1 3.764 3.645 A 2.342 2.342 0 0 1 4.103 3.889 Q 4.293 4.056 4.415 4.248 A 1.45 1.45 0 0 1 4.432 4.276 A 1.498 1.498 0 0 1 4.628 4.832 A 1.948 1.948 0 0 1 4.65 5.124 A 1.606 1.606 0 0 1 4.527 5.76 Q 4.382 6.101 4.064 6.354 A 1.886 1.886 0 0 1 4.043 6.37 Q 3.437 6.838 2.422 6.838 A 3.023 3.023 0 0 1 1.281 6.623 A 2.917 2.917 0 0 1 1.191 6.585 A 2.383 2.383 0 0 1 0.713 6.307 A 1.874 1.874 0 0 1 0.31 5.893 A 1.689 1.689 0 0 1 0 4.896 L 0.848 4.896 A 1.261 1.261 0 0 0 0.918 5.323 A 1.074 1.074 0 0 0 1.277 5.812 Q 1.661 6.113 2.278 6.144 A 2.87 2.87 0 0 0 2.422 6.148 A 2.628 2.628 0 0 0 2.809 6.121 Q 3.005 6.092 3.164 6.031 A 1.129 1.129 0 0 0 3.445 5.875 Q 3.801 5.603 3.801 5.133 A 1.074 1.074 0 0 0 3.759 4.822 A 0.816 0.816 0 0 0 3.472 4.406 Q 3.142 4.148 2.277 3.898 Q 1.191 3.586 0.697 3.131 Q 0.202 2.676 0.202 2.008 Q 0.202 1.252 0.807 0.758 A 2.121 2.121 0 0 1 1.697 0.335 A 3.087 3.087 0 0 1 2.378 0.264 A 2.913 2.913 0 0 1 3.038 0.336 A 2.372 2.372 0 0 1 3.553 0.519 A 2.051 2.051 0 0 1 4.084 0.889 A 1.834 1.834 0 0 1 4.353 1.222 A 1.798 1.798 0 0 1 4.636 2.202 Z M 34.277 2.202 L 33.429 2.202 A 1.466 1.466 0 0 0 33.38 1.809 A 1.066 1.066 0 0 0 33.06 1.29 A 1.211 1.211 0 0 0 32.591 1.033 Q 32.339 0.958 32.019 0.958 A 2.286 2.286 0 0 0 31.639 0.988 Q 31.437 1.022 31.274 1.095 A 1.101 1.101 0 0 0 31.045 1.233 A 0.892 0.892 0 0 0 30.7 1.887 A 1.267 1.267 0 0 0 30.696 1.995 A 0.806 0.806 0 0 0 30.964 2.6 A 1.134 1.134 0 0 0 31.028 2.656 A 1.562 1.562 0 0 0 31.266 2.813 Q 31.596 2.993 32.157 3.151 A 8.228 8.228 0 0 1 32.622 3.295 Q 32.857 3.377 33.051 3.464 A 3.297 3.297 0 0 1 33.405 3.645 A 2.342 2.342 0 0 1 33.744 3.889 Q 33.934 4.056 34.056 4.248 A 1.45 1.45 0 0 1 34.073 4.276 A 1.498 1.498 0 0 1 34.269 4.832 A 1.948 1.948 0 0 1 34.291 5.124 A 1.606 1.606 0 0 1 34.168 5.76 Q 34.023 6.101 33.705 6.354 A 1.886 1.886 0 0 1 33.684 6.37 Q 33.078 6.838 32.063 6.838 A 3.023 3.023 0 0 1 30.922 6.623 A 2.917 2.917 0 0 1 30.832 6.585 A 2.383 2.383 0 0 1 30.354 6.307 A 1.874 1.874 0 0 1 29.951 5.893 A 1.689 1.689 0 0 1 29.641 4.896 L 30.489 4.896 A 1.261 1.261 0 0 0 30.559 5.323 A 1.074 1.074 0 0 0 30.918 5.812 Q 31.302 6.113 31.919 6.144 A 2.87 2.87 0 0 0 32.063 6.148 A 2.628 2.628 0 0 0 32.45 6.121 Q 32.646 6.092 32.805 6.031 A 1.129 1.129 0 0 0 33.087 5.875 Q 33.443 5.603 33.443 5.133 A 1.074 1.074 0 0 0 33.4 4.822 A 0.816 0.816 0 0 0 33.113 4.406 Q 32.783 4.148 31.918 3.898 Q 30.832 3.586 30.338 3.131 Q 29.843 2.676 29.843 2.008 Q 29.843 1.252 30.448 0.758 A 2.121 2.121 0 0 1 31.338 0.335 A 3.087 3.087 0 0 1 32.019 0.264 A 2.913 2.913 0 0 1 32.679 0.336 A 2.372 2.372 0 0 1 33.194 0.519 A 2.051 2.051 0 0 1 33.725 0.889 A 1.834 1.834 0 0 1 33.994 1.222 A 1.798 1.798 0 0 1 34.277 2.202 Z M 54.035 2.522 L 54.075 1.995 L 54.818 1.995 L 54.818 6.636 A 2.511 2.511 0 0 1 54.747 7.249 A 1.738 1.738 0 0 1 54.27 8.09 A 1.834 1.834 0 0 1 53.341 8.57 A 2.671 2.671 0 0 1 52.8 8.622 A 2.446 2.446 0 0 1 51.794 8.402 A 2.003 2.003 0 0 1 51.384 8.161 A 1.563 1.563 0 0 1 51.043 7.8 L 51.465 7.313 A 1.889 1.889 0 0 0 51.899 7.712 A 1.514 1.514 0 0 0 52.743 7.958 A 1.695 1.695 0 0 0 53.12 7.919 Q 53.389 7.858 53.583 7.702 A 1.037 1.037 0 0 0 53.668 7.625 A 1.09 1.09 0 0 0 53.945 7.132 Q 53.992 6.959 53.999 6.752 A 2.134 2.134 0 0 0 54 6.684 L 54 6.275 A 1.601 1.601 0 0 1 52.948 6.821 A 2.279 2.279 0 0 1 52.669 6.838 A 1.672 1.672 0 0 1 51.913 6.67 Q 51.591 6.51 51.342 6.197 A 2.14 2.14 0 0 1 51.317 6.166 A 2.316 2.316 0 0 1 50.934 5.386 Q 50.801 4.922 50.801 4.333 Q 50.801 3.472 51.109 2.884 A 2.096 2.096 0 0 1 51.315 2.564 Q 51.829 1.907 52.677 1.907 A 1.971 1.971 0 0 1 53.276 1.994 A 1.55 1.55 0 0 1 54.035 2.522 Z M 49.887 6.75 L 49.034 6.75 A 0.632 0.632 0 0 1 48.999 6.66 Q 48.968 6.562 48.943 6.41 A 3.997 3.997 0 0 1 48.92 6.249 Q 48.353 6.838 47.567 6.838 A 2.033 2.033 0 0 1 47.037 6.772 A 1.529 1.529 0 0 1 46.413 6.44 Q 45.963 6.042 45.963 5.432 Q 45.963 4.689 46.527 4.278 Q 47.092 3.867 48.116 3.867 L 48.907 3.867 L 48.907 3.494 A 1.152 1.152 0 0 0 48.871 3.199 A 0.828 0.828 0 0 0 48.652 2.815 Q 48.436 2.6 48.045 2.568 A 1.748 1.748 0 0 0 47.901 2.562 Q 47.465 2.562 47.171 2.782 Q 46.877 3.001 46.877 3.313 L 46.059 3.313 A 1.041 1.041 0 0 1 46.184 2.825 A 1.409 1.409 0 0 1 46.312 2.626 Q 46.565 2.294 46.997 2.101 A 2.249 2.249 0 0 1 47.773 1.913 A 2.669 2.669 0 0 1 47.949 1.907 A 2.65 2.65 0 0 1 48.466 1.955 Q 48.774 2.016 49.012 2.156 A 1.439 1.439 0 0 1 49.236 2.318 A 1.396 1.396 0 0 1 49.69 3.144 A 1.998 1.998 0 0 1 49.72 3.45 L 49.72 5.638 Q 49.72 6.073 49.794 6.39 A 1.707 1.707 0 0 0 49.887 6.68 L 49.887 6.75 Z M 19.692 4.351 L 19.692 4.425 Q 19.692 5.511 19.195 6.174 A 1.57 1.57 0 0 1 18.057 6.828 A 2.013 2.013 0 0 1 17.851 6.838 A 2.196 2.196 0 0 1 17.265 6.764 A 1.598 1.598 0 0 1 16.488 6.289 L 16.488 8.578 L 15.675 8.578 L 15.675 1.995 L 16.418 1.995 L 16.458 2.522 A 1.619 1.619 0 0 1 17.597 1.919 A 2.319 2.319 0 0 1 17.838 1.907 A 1.829 1.829 0 0 1 18.475 2.014 A 1.597 1.597 0 0 1 19.193 2.553 Q 19.692 3.199 19.692 4.351 Z M 22.702 4.504 L 22.702 4.355 A 3.17 3.17 0 0 1 22.779 3.646 A 2.581 2.581 0 0 1 22.973 3.092 A 2.191 2.191 0 0 1 23.42 2.466 A 2.033 2.033 0 0 1 23.728 2.221 Q 24.214 1.907 24.781 1.907 A 2.254 2.254 0 0 1 25.394 1.986 A 1.639 1.639 0 0 1 26.222 2.518 Q 26.736 3.129 26.736 4.267 L 26.736 4.605 L 23.515 4.605 A 2.111 2.111 0 0 0 23.586 5.114 A 1.516 1.516 0 0 0 23.926 5.741 A 1.282 1.282 0 0 0 24.86 6.173 A 1.652 1.652 0 0 0 24.926 6.174 A 1.763 1.763 0 0 0 25.254 6.145 Q 25.478 6.103 25.655 5.999 A 1.827 1.827 0 0 0 26.164 5.551 A 2.068 2.068 0 0 0 26.178 5.533 L 26.675 5.919 A 1.926 1.926 0 0 1 25.275 6.811 A 2.749 2.749 0 0 1 24.882 6.838 A 2.394 2.394 0 0 1 24.131 6.725 A 1.974 1.974 0 0 1 23.309 6.203 Q 22.702 5.568 22.702 4.504 Z M 55.837 4.504 L 55.837 4.355 A 3.17 3.17 0 0 1 55.913 3.646 A 2.581 2.581 0 0 1 56.107 3.092 A 2.191 2.191 0 0 1 56.555 2.466 A 2.033 2.033 0 0 1 56.863 2.221 Q 57.349 1.907 57.916 1.907 A 2.254 2.254 0 0 1 58.529 1.986 A 1.639 1.639 0 0 1 59.357 2.518 Q 59.871 3.129 59.871 4.267 L 59.871 4.605 L 56.65 4.605 A 2.111 2.111 0 0 0 56.721 5.114 A 1.516 1.516 0 0 0 57.061 5.741 A 1.282 1.282 0 0 0 57.995 6.173 A 1.652 1.652 0 0 0 58.061 6.174 A 1.763 1.763 0 0 0 58.389 6.145 Q 58.613 6.103 58.79 5.999 A 1.827 1.827 0 0 0 59.299 5.551 A 2.068 2.068 0 0 0 59.313 5.533 L 59.81 5.919 A 1.926 1.926 0 0 1 58.41 6.811 A 2.749 2.749 0 0 1 58.017 6.838 A 2.394 2.394 0 0 1 57.266 6.725 A 1.974 1.974 0 0 1 56.444 6.203 Q 55.837 5.568 55.837 4.504 Z M 35.534 0.844 L 36.347 0.844 L 36.347 1.995 L 37.235 1.995 L 37.235 2.624 L 36.347 2.624 L 36.347 5.572 Q 36.347 5.858 36.466 6.001 Q 36.585 6.144 36.87 6.144 A 1.046 1.046 0 0 0 36.968 6.138 Q 37.071 6.129 37.21 6.101 A 4.024 4.024 0 0 0 37.257 6.091 L 37.257 6.75 A 2.463 2.463 0 0 1 36.824 6.829 A 2.157 2.157 0 0 1 36.633 6.838 Q 36.186 6.838 35.919 6.616 A 0.856 0.856 0 0 1 35.811 6.508 Q 35.584 6.238 35.543 5.78 A 2.351 2.351 0 0 1 35.534 5.572 L 35.534 2.624 L 34.669 2.624 L 34.669 1.995 L 35.534 1.995 L 35.534 0.844 Z M 21.608 0 L 21.608 6.75 L 20.795 6.75 L 20.795 0 L 21.608 0 Z M 37.881 4.386 L 37.881 4.329 A 3.057 3.057 0 0 1 37.968 3.587 A 2.573 2.573 0 0 1 38.156 3.072 A 2.16 2.16 0 0 1 38.57 2.486 A 1.957 1.957 0 0 1 38.92 2.21 A 2.036 2.036 0 0 1 39.865 1.913 A 2.491 2.491 0 0 1 40.039 1.907 A 2.277 2.277 0 0 1 40.792 2.027 A 1.937 1.937 0 0 1 41.61 2.58 A 2.29 2.29 0 0 1 42.129 3.608 A 3.373 3.373 0 0 1 42.21 4.368 L 42.21 4.425 A 3.114 3.114 0 0 1 42.13 5.142 A 2.577 2.577 0 0 1 41.944 5.671 A 2.056 2.056 0 0 1 41.416 6.361 A 2.001 2.001 0 0 1 41.183 6.53 A 2.045 2.045 0 0 1 40.264 6.829 A 2.529 2.529 0 0 1 40.048 6.838 A 2.262 2.262 0 0 1 39.297 6.718 A 1.938 1.938 0 0 1 38.481 6.166 A 2.297 2.297 0 0 1 37.955 5.111 A 3.357 3.357 0 0 1 37.881 4.386 Z M 45.527 1.969 L 45.527 2.725 A 2.251 2.251 0 0 0 45.285 2.698 A 2.782 2.782 0 0 0 45.128 2.694 Q 44.35 2.694 44.058 3.338 A 1.445 1.445 0 0 0 44.042 3.375 L 44.042 6.75 L 43.229 6.75 L 43.229 1.995 L 44.02 1.995 L 44.033 2.544 Q 44.414 1.938 45.096 1.909 A 1.636 1.636 0 0 1 45.167 1.907 Q 45.404 1.907 45.527 1.969 Z M 6.486 1.995 L 6.486 6.75 L 5.673 6.75 L 5.673 1.995 L 6.486 1.995 Z M 38.698 4.425 A 2.772 2.772 0 0 0 38.746 4.954 Q 38.806 5.264 38.944 5.51 A 1.545 1.545 0 0 0 39.065 5.695 Q 39.432 6.174 40.048 6.174 A 1.269 1.269 0 0 0 40.537 6.083 Q 40.816 5.967 41.019 5.706 A 1.471 1.471 0 0 0 41.032 5.689 A 1.648 1.648 0 0 0 41.287 5.171 Q 41.355 4.945 41.381 4.672 A 3.655 3.655 0 0 0 41.397 4.329 A 2.687 2.687 0 0 0 41.345 3.789 Q 41.278 3.459 41.12 3.2 A 1.586 1.586 0 0 0 41.025 3.061 A 1.231 1.231 0 0 0 40.61 2.705 Q 40.357 2.575 40.039 2.575 Q 39.449 2.575 39.083 3.035 A 1.515 1.515 0 0 0 39.068 3.054 A 1.589 1.589 0 0 0 38.815 3.552 Q 38.746 3.772 38.718 4.039 A 3.676 3.676 0 0 0 38.698 4.425 Z M 16.488 3.252 L 16.488 5.524 Q 16.853 6.174 17.605 6.174 A 1.184 1.184 0 0 0 18.07 6.086 Q 18.327 5.977 18.516 5.735 A 1.403 1.403 0 0 0 18.534 5.711 A 1.501 1.501 0 0 0 18.751 5.28 Q 18.819 5.073 18.851 4.818 A 3.91 3.91 0 0 0 18.879 4.333 Q 18.879 3.746 18.696 3.339 A 1.503 1.503 0 0 0 18.536 3.063 A 1.086 1.086 0 0 0 17.75 2.605 A 1.414 1.414 0 0 0 17.596 2.597 Q 16.935 2.597 16.57 3.121 A 1.623 1.623 0 0 0 16.488 3.252 Z M 54 5.449 L 54 3.278 A 1.439 1.439 0 0 0 53.699 2.891 Q 53.396 2.62 52.955 2.599 A 1.578 1.578 0 0 0 52.88 2.597 Q 52.288 2.597 51.954 3.056 A 1.51 1.51 0 0 0 51.743 3.484 Q 51.677 3.689 51.646 3.939 A 3.955 3.955 0 0 0 51.618 4.425 Q 51.618 5.229 51.948 5.689 Q 52.277 6.148 52.871 6.148 A 1.32 1.32 0 0 0 53.38 6.054 Q 53.772 5.891 54 5.449 Z M 48.907 5.418 L 48.907 4.443 L 48.27 4.443 Q 46.776 4.443 46.776 5.317 Q 46.776 5.7 47.03 5.915 A 0.893 0.893 0 0 0 47.444 6.108 A 1.259 1.259 0 0 0 47.685 6.13 A 1.429 1.429 0 0 0 48.41 5.933 A 1.335 1.335 0 0 0 48.706 5.705 A 1.108 1.108 0 0 0 48.907 5.418 Z M 23.542 3.938 L 25.923 3.938 L 25.923 3.876 Q 25.897 3.417 25.727 3.111 A 1.13 1.13 0 0 0 25.59 2.916 A 0.983 0.983 0 0 0 24.935 2.584 A 1.39 1.39 0 0 0 24.781 2.575 A 1.106 1.106 0 0 0 24.258 2.698 A 1.14 1.14 0 0 0 23.955 2.933 A 1.417 1.417 0 0 0 23.678 3.379 Q 23.604 3.563 23.565 3.785 A 2.741 2.741 0 0 0 23.542 3.938 Z M 56.676 3.938 L 59.058 3.938 L 59.058 3.876 Q 59.032 3.417 58.862 3.111 A 1.13 1.13 0 0 0 58.724 2.916 A 0.983 0.983 0 0 0 58.07 2.584 A 1.39 1.39 0 0 0 57.916 2.575 A 1.106 1.106 0 0 0 57.393 2.698 A 1.14 1.14 0 0 0 57.09 2.933 A 1.417 1.417 0 0 0 56.813 3.379 Q 56.739 3.563 56.699 3.785 A 2.741 2.741 0 0 0 56.676 3.938 Z M 5.608 0.734 Q 5.608 0.536 5.728 0.4 Q 5.84 0.274 6.052 0.264 A 0.783 0.783 0 0 1 6.087 0.264 Q 6.324 0.264 6.447 0.4 A 0.474 0.474 0 0 1 6.569 0.703 A 0.614 0.614 0 0 1 6.57 0.734 A 0.523 0.523 0 0 1 6.545 0.9 A 0.442 0.442 0 0 1 6.447 1.063 Q 6.334 1.184 6.126 1.194 A 0.803 0.803 0 0 1 6.087 1.195 Q 5.914 1.195 5.803 1.126 A 0.362 0.362 0 0 1 5.728 1.063 A 0.456 0.456 0 0 1 5.61 0.788 A 0.605 0.605 0 0 1 5.608 0.734 Z" vector-effect="non-scaling-stroke"/></g><g transform="translate(12vw, 90vh)" id="svgGroup" stroke-linecap="round" fill-rule="evenodd" font-size="9pt" stroke="#000" stroke-width="0.25mm" fill="#000" style="stroke:#000;stroke-width:0.25mm;fill:#000"><path d="M 4.636 2.202 L 3.788 2.202 A 1.466 1.466 0 0 0 3.738 1.809 A 1.066 1.066 0 0 0 3.419 1.29 A 1.211 1.211 0 0 0 2.95 1.033 Q 2.698 0.958 2.378 0.958 A 2.286 2.286 0 0 0 1.998 0.988 Q 1.796 1.022 1.633 1.095 A 1.101 1.101 0 0 0 1.404 1.233 A 0.892 0.892 0 0 0 1.059 1.887 A 1.267 1.267 0 0 0 1.055 1.995 A 0.806 0.806 0 0 0 1.323 2.6 A 1.134 1.134 0 0 0 1.387 2.656 A 1.562 1.562 0 0 0 1.625 2.813 Q 1.955 2.993 2.516 3.151 A 8.228 8.228 0 0 1 2.981 3.295 Q 3.216 3.377 3.41 3.464 A 3.297 3.297 0 0 1 3.764 3.645 A 2.342 2.342 0 0 1 4.103 3.889 Q 4.293 4.056 4.415 4.248 A 1.45 1.45 0 0 1 4.432 4.276 A 1.498 1.498 0 0 1 4.628 4.832 A 1.948 1.948 0 0 1 4.65 5.124 A 1.606 1.606 0 0 1 4.527 5.76 Q 4.382 6.101 4.064 6.354 A 1.886 1.886 0 0 1 4.043 6.37 Q 3.437 6.838 2.422 6.838 A 3.023 3.023 0 0 1 1.281 6.623 A 2.917 2.917 0 0 1 1.191 6.585 A 2.383 2.383 0 0 1 0.713 6.307 A 1.874 1.874 0 0 1 0.31 5.893 A 1.689 1.689 0 0 1 0 4.896 L 0.848 4.896 A 1.261 1.261 0 0 0 0.918 5.323 A 1.074 1.074 0 0 0 1.277 5.812 Q 1.661 6.113 2.278 6.144 A 2.87 2.87 0 0 0 2.422 6.148 A 2.628 2.628 0 0 0 2.809 6.121 Q 3.005 6.092 3.164 6.031 A 1.129 1.129 0 0 0 3.445 5.875 Q 3.801 5.603 3.801 5.133 A 1.074 1.074 0 0 0 3.759 4.822 A 0.816 0.816 0 0 0 3.472 4.406 Q 3.142 4.148 2.277 3.898 Q 1.191 3.586 0.697 3.131 Q 0.202 2.676 0.202 2.008 Q 0.202 1.252 0.807 0.758 A 2.121 2.121 0 0 1 1.697 0.335 A 3.087 3.087 0 0 1 2.378 0.264 A 2.913 2.913 0 0 1 3.038 0.336 A 2.372 2.372 0 0 1 3.553 0.519 A 2.051 2.051 0 0 1 4.084 0.889 A 1.834 1.834 0 0 1 4.353 1.222 A 1.798 1.798 0 0 1 4.636 2.202 Z M 50.006 6.75 L 48.349 4.548 L 47.839 5.08 L 47.839 6.75 L 47.026 6.75 L 47.026 0 L 47.839 0 L 47.839 4.083 L 48.274 3.56 L 49.755 1.995 L 50.744 1.995 L 48.894 3.981 L 50.959 6.75 L 50.006 6.75 Z M 90.593 6.75 L 88.937 4.548 L 88.427 5.08 L 88.427 6.75 L 87.614 6.75 L 87.614 0 L 88.427 0 L 88.427 4.083 L 88.862 3.56 L 90.343 1.995 L 91.332 1.995 L 89.482 3.981 L 91.547 6.75 L 90.593 6.75 Z M 40.302 6.75 L 40.285 6.28 A 1.526 1.526 0 0 1 39.459 6.775 Q 39.208 6.836 38.911 6.838 A 2.996 2.996 0 0 1 38.892 6.838 A 2.086 2.086 0 0 1 38.432 6.79 Q 38.001 6.693 37.734 6.396 A 1.41 1.41 0 0 1 37.451 5.899 Q 37.334 5.556 37.332 5.089 L 37.332 1.995 L 38.145 1.995 L 38.145 5.067 Q 38.145 6.037 38.852 6.137 A 1.229 1.229 0 0 0 39.024 6.148 A 1.927 1.927 0 0 0 39.474 6.099 Q 40.037 5.964 40.263 5.454 L 40.263 1.995 L 41.076 1.995 L 41.076 6.75 L 40.302 6.75 Z M 23.067 5.251 L 23.836 5.251 A 1.432 1.432 0 0 1 23.637 5.901 A 1.772 1.772 0 0 1 23.555 6.029 A 1.828 1.828 0 0 1 22.946 6.574 A 2.169 2.169 0 0 1 22.863 6.618 A 1.997 1.997 0 0 1 21.946 6.838 A 2.346 2.346 0 0 1 21.249 6.739 A 1.839 1.839 0 0 1 20.402 6.19 A 2.171 2.171 0 0 1 19.938 5.31 Q 19.828 4.909 19.828 4.417 L 19.828 4.28 A 3.24 3.24 0 0 1 19.892 3.624 A 2.57 2.57 0 0 1 20.083 3.045 A 2.008 2.008 0 0 1 20.523 2.431 A 1.892 1.892 0 0 1 20.815 2.206 A 1.943 1.943 0 0 1 21.571 1.934 A 2.529 2.529 0 0 1 21.942 1.907 A 2.196 2.196 0 0 1 22.59 1.999 A 1.786 1.786 0 0 1 23.271 2.386 A 1.693 1.693 0 0 1 23.83 3.535 A 2.239 2.239 0 0 1 23.836 3.63 L 23.067 3.63 Q 23.032 3.168 22.718 2.872 A 1.078 1.078 0 0 0 21.989 2.576 A 1.402 1.402 0 0 0 21.942 2.575 A 1.374 1.374 0 0 0 21.521 2.637 A 1.081 1.081 0 0 0 20.982 3.021 A 1.469 1.469 0 0 0 20.755 3.468 Q 20.689 3.674 20.662 3.923 A 3.514 3.514 0 0 0 20.641 4.311 L 20.641 4.465 Q 20.641 5.287 20.98 5.73 A 1.1 1.1 0 0 0 21.766 6.165 A 1.611 1.611 0 0 0 21.946 6.174 A 1.171 1.171 0 0 0 22.707 5.911 A 1.007 1.007 0 0 0 22.951 5.629 A 0.914 0.914 0 0 0 23.067 5.251 Z M 45.339 5.251 L 46.108 5.251 A 1.432 1.432 0 0 1 45.908 5.901 A 1.772 1.772 0 0 1 45.826 6.029 A 1.828 1.828 0 0 1 45.217 6.574 A 2.169 2.169 0 0 1 45.134 6.618 A 1.997 1.997 0 0 1 44.218 6.838 A 2.346 2.346 0 0 1 43.521 6.739 A 1.839 1.839 0 0 1 42.673 6.19 A 2.171 2.171 0 0 1 42.21 5.31 Q 42.1 4.909 42.1 4.417 L 42.1 4.28 A 3.24 3.24 0 0 1 42.163 3.624 A 2.57 2.57 0 0 1 42.355 3.045 A 2.008 2.008 0 0 1 42.794 2.431 A 1.892 1.892 0 0 1 43.086 2.206 A 1.943 1.943 0 0 1 43.843 1.934 A 2.529 2.529 0 0 1 44.214 1.907 A 2.196 2.196 0 0 1 44.862 1.999 A 1.786 1.786 0 0 1 45.543 2.386 A 1.693 1.693 0 0 1 46.101 3.535 A 2.239 2.239 0 0 1 46.108 3.63 L 45.339 3.63 Q 45.303 3.168 44.989 2.872 A 1.078 1.078 0 0 0 44.26 2.576 A 1.402 1.402 0 0 0 44.214 2.575 A 1.374 1.374 0 0 0 43.792 2.637 A 1.081 1.081 0 0 0 43.253 3.021 A 1.469 1.469 0 0 0 43.027 3.468 Q 42.961 3.674 42.933 3.923 A 3.514 3.514 0 0 0 42.913 4.311 L 42.913 4.465 Q 42.913 5.287 43.251 5.73 A 1.1 1.1 0 0 0 44.038 6.165 A 1.611 1.611 0 0 0 44.218 6.174 A 1.171 1.171 0 0 0 44.978 5.911 A 1.007 1.007 0 0 0 45.222 5.629 A 0.914 0.914 0 0 0 45.339 5.251 Z M 83.457 6.75 L 82.604 6.75 A 0.632 0.632 0 0 1 82.569 6.66 Q 82.537 6.562 82.513 6.41 A 3.997 3.997 0 0 1 82.49 6.249 Q 81.923 6.838 81.136 6.838 A 2.033 2.033 0 0 1 80.607 6.772 A 1.529 1.529 0 0 1 79.983 6.44 Q 79.532 6.042 79.532 5.432 Q 79.532 4.689 80.097 4.278 Q 80.662 3.867 81.686 3.867 L 82.477 3.867 L 82.477 3.494 A 1.152 1.152 0 0 0 82.441 3.199 A 0.828 0.828 0 0 0 82.222 2.815 Q 82.006 2.6 81.615 2.568 A 1.748 1.748 0 0 0 81.47 2.562 Q 81.035 2.562 80.741 2.782 Q 80.446 3.001 80.446 3.313 L 79.629 3.313 A 1.041 1.041 0 0 1 79.754 2.825 A 1.409 1.409 0 0 1 79.882 2.626 Q 80.134 2.294 80.567 2.101 A 2.249 2.249 0 0 1 81.343 1.913 A 2.669 2.669 0 0 1 81.519 1.907 A 2.65 2.65 0 0 1 82.036 1.955 Q 82.343 2.016 82.582 2.156 A 1.439 1.439 0 0 1 82.806 2.318 A 1.396 1.396 0 0 1 83.26 3.144 A 1.998 1.998 0 0 1 83.29 3.45 L 83.29 5.638 Q 83.29 6.073 83.363 6.39 A 1.707 1.707 0 0 0 83.457 6.68 L 83.457 6.75 Z M 5.397 4.504 L 5.397 4.355 A 3.17 3.17 0 0 1 5.473 3.646 A 2.581 2.581 0 0 1 5.667 3.092 A 2.191 2.191 0 0 1 6.114 2.466 A 2.033 2.033 0 0 1 6.423 2.221 Q 6.908 1.907 7.475 1.907 A 2.254 2.254 0 0 1 8.088 1.986 A 1.639 1.639 0 0 1 8.917 2.518 Q 9.431 3.129 9.431 4.267 L 9.431 4.605 L 6.21 4.605 A 2.111 2.111 0 0 0 6.281 5.114 A 1.516 1.516 0 0 0 6.621 5.741 A 1.282 1.282 0 0 0 7.555 6.173 A 1.652 1.652 0 0 0 7.62 6.174 A 1.763 1.763 0 0 0 7.948 6.145 Q 8.172 6.103 8.35 5.999 A 1.827 1.827 0 0 0 8.859 5.551 A 2.068 2.068 0 0 0 8.873 5.533 L 9.369 5.919 A 1.926 1.926 0 0 1 7.97 6.811 A 2.749 2.749 0 0 1 7.576 6.838 A 2.394 2.394 0 0 1 6.825 6.725 A 1.974 1.974 0 0 1 6.003 6.203 Q 5.397 5.568 5.397 4.504 Z M 24.544 4.504 L 24.544 4.355 A 3.17 3.17 0 0 1 24.62 3.646 A 2.581 2.581 0 0 1 24.814 3.092 A 2.191 2.191 0 0 1 25.261 2.466 A 2.033 2.033 0 0 1 25.57 2.221 Q 26.055 1.907 26.622 1.907 A 2.254 2.254 0 0 1 27.235 1.986 A 1.639 1.639 0 0 1 28.064 2.518 Q 28.578 3.129 28.578 4.267 L 28.578 4.605 L 25.357 4.605 A 2.111 2.111 0 0 0 25.428 5.114 A 1.516 1.516 0 0 0 25.767 5.741 A 1.282 1.282 0 0 0 26.702 6.173 A 1.652 1.652 0 0 0 26.767 6.174 A 1.763 1.763 0 0 0 27.095 6.145 Q 27.319 6.103 27.497 5.999 A 1.827 1.827 0 0 0 28.006 5.551 A 2.068 2.068 0 0 0 28.02 5.533 L 28.516 5.919 A 1.926 1.926 0 0 1 27.117 6.811 A 2.749 2.749 0 0 1 26.723 6.838 A 2.394 2.394 0 0 1 25.972 6.725 A 1.974 1.974 0 0 1 25.15 6.203 Q 24.544 5.568 24.544 4.504 Z M 51.289 4.504 L 51.289 4.355 A 3.17 3.17 0 0 1 51.365 3.646 A 2.581 2.581 0 0 1 51.559 3.092 A 2.191 2.191 0 0 1 52.006 2.466 A 2.033 2.033 0 0 1 52.315 2.221 Q 52.8 1.907 53.367 1.907 A 2.254 2.254 0 0 1 53.98 1.986 A 1.639 1.639 0 0 1 54.809 2.518 Q 55.323 3.129 55.323 4.267 L 55.323 4.605 L 52.102 4.605 A 2.111 2.111 0 0 0 52.173 5.114 A 1.516 1.516 0 0 0 52.513 5.741 A 1.282 1.282 0 0 0 53.447 6.173 A 1.652 1.652 0 0 0 53.512 6.174 A 1.763 1.763 0 0 0 53.841 6.145 Q 54.064 6.103 54.242 5.999 A 1.827 1.827 0 0 0 54.751 5.551 A 2.068 2.068 0 0 0 54.765 5.533 L 55.261 5.919 A 1.926 1.926 0 0 1 53.862 6.811 A 2.749 2.749 0 0 1 53.468 6.838 A 2.394 2.394 0 0 1 52.717 6.725 A 1.974 1.974 0 0 1 51.895 6.203 Q 51.289 5.568 51.289 4.504 Z M 34.093 6.75 L 31.874 6.75 L 31.874 0.352 L 33.965 0.352 A 4.031 4.031 0 0 1 34.538 0.39 Q 34.831 0.432 35.068 0.521 A 1.629 1.629 0 0 1 35.532 0.782 A 1.383 1.383 0 0 1 36.003 1.558 A 2.164 2.164 0 0 1 36.057 2.057 A 1.3 1.3 0 0 1 35.802 2.85 A 1.589 1.589 0 0 1 35.291 3.294 A 1.972 1.972 0 0 1 35.108 3.384 A 1.571 1.571 0 0 1 35.623 3.63 A 1.446 1.446 0 0 1 35.928 3.935 A 1.531 1.531 0 0 1 36.22 4.713 A 1.961 1.961 0 0 1 36.229 4.904 A 2.139 2.139 0 0 1 36.153 5.487 A 1.577 1.577 0 0 1 35.671 6.258 A 1.832 1.832 0 0 1 34.979 6.633 Q 34.712 6.713 34.393 6.739 A 3.81 3.81 0 0 1 34.093 6.75 Z M 13.856 1.995 L 15.065 5.647 L 16.242 1.995 L 17.073 1.995 L 15.368 6.75 L 14.748 6.75 L 13.026 1.995 L 13.856 1.995 Z M 64.78 0.352 L 64.78 4.601 L 65.668 4.601 L 65.668 5.265 L 64.78 5.265 L 64.78 6.75 L 63.963 6.75 L 63.963 5.265 L 61.049 5.265 L 61.049 4.786 L 63.914 0.352 L 64.78 0.352 Z M 75.665 6.75 L 73.894 6.75 L 73.894 0.352 L 75.7 0.352 Q 76.535 0.352 77.177 0.721 Q 77.819 1.09 78.168 1.771 A 3.19 3.19 0 0 1 78.485 2.8 A 4.073 4.073 0 0 1 78.522 3.335 L 78.522 3.744 Q 78.522 4.649 78.172 5.331 A 2.457 2.457 0 0 1 77.175 6.376 Q 76.527 6.741 75.665 6.75 Z M 70.178 2.592 A 1.544 1.544 0 0 0 70.282 2.021 A 2.226 2.226 0 0 0 70.26 1.707 A 1.566 1.566 0 0 0 69.761 0.738 A 1.754 1.754 0 0 0 68.995 0.333 A 2.443 2.443 0 0 0 68.397 0.264 A 2.539 2.539 0 0 0 67.887 0.312 A 1.767 1.767 0 0 0 67.03 0.738 Q 66.511 1.213 66.511 2.021 A 1.808 1.808 0 0 0 66.512 2.058 A 1.499 1.499 0 0 0 66.757 2.87 A 1.626 1.626 0 0 0 66.919 3.077 A 1.726 1.726 0 0 0 67.43 3.454 A 2.119 2.119 0 0 0 67.33 3.5 A 1.738 1.738 0 0 0 66.645 4.087 A 1.629 1.629 0 0 0 66.362 5.023 A 2.272 2.272 0 0 0 66.372 5.237 A 1.63 1.63 0 0 0 66.918 6.344 A 1.895 1.895 0 0 0 67.768 6.771 A 2.797 2.797 0 0 0 68.397 6.838 A 2.796 2.796 0 0 0 68.996 6.777 A 1.925 1.925 0 0 0 69.871 6.346 A 1.578 1.578 0 0 0 70.346 5.62 A 1.989 1.989 0 0 0 70.431 5.023 A 1.581 1.581 0 0 0 70.139 4.087 Q 69.847 3.674 69.346 3.458 Q 69.777 3.248 70.029 2.874 A 1.449 1.449 0 0 0 70.178 2.592 Z M 56.553 0.844 L 57.366 0.844 L 57.366 1.995 L 58.254 1.995 L 58.254 2.624 L 57.366 2.624 L 57.366 5.572 Q 57.366 5.858 57.485 6.001 Q 57.604 6.144 57.889 6.144 A 1.046 1.046 0 0 0 57.987 6.138 Q 58.09 6.129 58.229 6.101 A 4.024 4.024 0 0 0 58.276 6.091 L 58.276 6.75 A 2.463 2.463 0 0 1 57.843 6.829 A 2.157 2.157 0 0 1 57.652 6.838 Q 57.205 6.838 56.938 6.616 A 0.856 0.856 0 0 1 56.83 6.508 Q 56.603 6.238 56.562 5.78 A 2.351 2.351 0 0 1 56.553 5.572 L 56.553 2.624 L 55.688 2.624 L 55.688 1.995 L 56.553 1.995 L 56.553 0.844 Z M 12.67 1.969 L 12.67 2.725 A 2.251 2.251 0 0 0 12.427 2.698 A 2.782 2.782 0 0 0 12.27 2.694 Q 11.492 2.694 11.2 3.338 A 1.445 1.445 0 0 0 11.184 3.375 L 11.184 6.75 L 10.371 6.75 L 10.371 1.995 L 11.162 1.995 L 11.175 2.544 Q 11.556 1.938 12.238 1.909 A 1.636 1.636 0 0 1 12.309 1.907 Q 12.547 1.907 12.67 1.969 Z M 86.862 1.969 L 86.862 2.725 A 2.251 2.251 0 0 0 86.62 2.698 A 2.782 2.782 0 0 0 86.463 2.694 Q 85.685 2.694 85.393 3.338 A 1.445 1.445 0 0 0 85.377 3.375 L 85.377 6.75 L 84.564 6.75 L 84.564 1.995 L 85.355 1.995 L 85.368 2.544 Q 85.749 1.938 86.431 1.909 A 1.636 1.636 0 0 1 86.502 1.907 Q 86.739 1.907 86.862 1.969 Z M 75.722 1.046 L 74.738 1.046 L 74.738 6.06 L 75.626 6.06 A 2.519 2.519 0 0 0 76.258 5.985 A 1.747 1.747 0 0 0 77.144 5.454 Q 77.603 4.94 77.674 4.059 A 4.165 4.165 0 0 0 77.687 3.727 L 77.687 3.353 Q 77.687 2.562 77.417 2.027 A 1.864 1.864 0 0 0 77.175 1.659 A 1.687 1.687 0 0 0 76.179 1.09 A 2.499 2.499 0 0 0 75.722 1.046 Z M 18.738 1.995 L 18.738 6.75 L 17.925 6.75 L 17.925 1.995 L 18.738 1.995 Z M 34.124 3.757 L 32.717 3.757 L 32.717 6.06 L 34.11 6.06 A 1.84 1.84 0 0 0 34.486 6.024 Q 34.726 5.974 34.91 5.854 A 1.064 1.064 0 0 0 35.04 5.755 A 1.003 1.003 0 0 0 35.361 5.154 A 1.459 1.459 0 0 0 35.381 4.913 Q 35.381 4.007 34.608 3.811 A 1.977 1.977 0 0 0 34.124 3.757 Z M 63.866 1.639 L 61.972 4.601 L 63.963 4.601 L 63.963 1.463 L 63.866 1.639 Z M 32.717 1.046 L 32.717 3.081 L 33.992 3.081 Q 34.546 3.081 34.877 2.804 A 0.905 0.905 0 0 0 35.205 2.154 A 1.27 1.27 0 0 0 35.209 2.052 Q 35.209 1.696 35.069 1.471 A 0.71 0.71 0 0 0 34.902 1.285 A 0.969 0.969 0 0 0 34.616 1.136 Q 34.353 1.047 33.971 1.046 A 3.261 3.261 0 0 0 33.965 1.046 L 32.717 1.046 Z M 69.618 5.005 A 1.375 1.375 0 0 0 69.559 4.592 A 1.109 1.109 0 0 0 69.278 4.131 A 1.148 1.148 0 0 0 68.606 3.807 A 1.593 1.593 0 0 0 68.388 3.792 A 1.466 1.466 0 0 0 67.999 3.841 A 1.086 1.086 0 0 0 67.507 4.126 A 1.123 1.123 0 0 0 67.193 4.762 A 1.572 1.572 0 0 0 67.175 5.005 A 1.48 1.48 0 0 0 67.217 5.367 A 1.019 1.019 0 0 0 67.498 5.862 Q 67.804 6.158 68.337 6.173 A 2.053 2.053 0 0 0 68.397 6.174 Q 68.89 6.174 69.2 5.94 A 1.018 1.018 0 0 0 69.293 5.86 A 1.041 1.041 0 0 0 69.592 5.292 A 1.518 1.518 0 0 0 69.618 5.005 Z M 68.397 0.932 A 1.259 1.259 0 0 0 68.044 0.979 A 0.973 0.973 0 0 0 67.621 1.228 Q 67.324 1.525 67.324 2.035 A 1.325 1.325 0 0 0 67.369 2.387 A 0.994 0.994 0 0 0 67.617 2.823 A 0.974 0.974 0 0 0 68.179 3.108 A 1.382 1.382 0 0 0 68.397 3.125 A 1.279 1.279 0 0 0 68.741 3.08 A 0.952 0.952 0 0 0 69.177 2.823 A 1.018 1.018 0 0 0 69.452 2.26 A 1.426 1.426 0 0 0 69.469 2.035 A 1.282 1.282 0 0 0 69.419 1.668 A 1.013 1.013 0 0 0 69.166 1.239 Q 68.862 0.932 68.397 0.932 Z M 82.477 5.418 L 82.477 4.443 L 81.84 4.443 Q 80.345 4.443 80.345 5.317 Q 80.345 5.7 80.6 5.915 A 0.893 0.893 0 0 0 81.014 6.108 A 1.259 1.259 0 0 0 81.255 6.13 A 1.429 1.429 0 0 0 81.98 5.933 A 1.335 1.335 0 0 0 82.276 5.705 A 1.108 1.108 0 0 0 82.477 5.418 Z M 6.236 3.938 L 8.618 3.938 L 8.618 3.876 Q 8.592 3.417 8.421 3.111 A 1.13 1.13 0 0 0 8.284 2.916 A 0.983 0.983 0 0 0 7.629 2.584 A 1.39 1.39 0 0 0 7.475 2.575 A 1.106 1.106 0 0 0 6.953 2.698 A 1.14 1.14 0 0 0 6.649 2.933 A 1.417 1.417 0 0 0 6.372 3.379 Q 6.299 3.563 6.259 3.785 A 2.741 2.741 0 0 0 6.236 3.938 Z M 25.383 3.938 L 27.765 3.938 L 27.765 3.876 Q 27.739 3.417 27.568 3.111 A 1.13 1.13 0 0 0 27.431 2.916 A 0.983 0.983 0 0 0 26.776 2.584 A 1.39 1.39 0 0 0 26.622 2.575 A 1.106 1.106 0 0 0 26.1 2.698 A 1.14 1.14 0 0 0 25.796 2.933 A 1.417 1.417 0 0 0 25.519 3.379 Q 25.446 3.563 25.406 3.785 A 2.741 2.741 0 0 0 25.383 3.938 Z M 52.128 3.938 L 54.51 3.938 L 54.51 3.876 Q 54.484 3.417 54.313 3.111 A 1.13 1.13 0 0 0 54.176 2.916 A 0.983 0.983 0 0 0 53.521 2.584 A 1.39 1.39 0 0 0 53.367 2.575 A 1.106 1.106 0 0 0 52.845 2.698 A 1.14 1.14 0 0 0 52.541 2.933 A 1.417 1.417 0 0 0 52.265 3.379 Q 52.191 3.563 52.151 3.785 A 2.741 2.741 0 0 0 52.128 3.938 Z M 17.86 0.734 Q 17.86 0.536 17.98 0.4 Q 18.092 0.274 18.304 0.264 A 0.783 0.783 0 0 1 18.339 0.264 Q 18.576 0.264 18.699 0.4 A 0.474 0.474 0 0 1 18.821 0.703 A 0.614 0.614 0 0 1 18.822 0.734 A 0.523 0.523 0 0 1 18.797 0.9 A 0.442 0.442 0 0 1 18.699 1.063 Q 18.586 1.184 18.378 1.194 A 0.803 0.803 0 0 1 18.339 1.195 Q 18.166 1.195 18.055 1.126 A 0.362 0.362 0 0 1 17.98 1.063 A 0.456 0.456 0 0 1 17.862 0.788 A 0.605 0.605 0 0 1 17.86 0.734 Z" vector-effect="non-scaling-stroke"/></g>
</svg>