<?xml version="1.0" encoding="UTF-8"?>
<svg width="48px" height="48px" viewBox="0 0 48 48" version="1.1" xmlns="http://www.w3.org/2000/svg" xmlns:xlink="http://www.w3.org/1999/xlink">
    <title>Icon-Resource/Storage/Res_Amazon-Simple-Storage-Service_S3-Batch-Operations_48_Dark</title>
    <g id="Icon-Resource/Storage/Res_Amazon-Simple-Storage-Service_S3-Batch-Operations_48" stroke="none" stroke-width="1" fill="none" fill-rule="evenodd">
        <path transform="translate(0vw, 0vh), scale(.65)" d="M9.584,39.43 L13.421,35.593 L14.835,37.007 L10.302,41.54 C10.106,41.736 9.851,41.833 9.595,41.833 C9.344,41.833 9.093,41.74 8.898,41.552 L6.834,39.552 L8.227,38.115 L9.584,39.43 Z M14.835,27.34 L10.302,31.873 C10.106,32.069 9.851,32.166 9.595,32.166 C9.344,32.166 9.093,32.073 8.898,31.885 L6.834,29.885 L8.227,28.448 L9.584,29.763 L13.421,25.926 L14.835,27.34 Z M14.835,17.674 L10.302,22.207 C10.106,22.402 9.851,22.5 9.595,22.5 C9.344,22.5 9.093,22.406 8.898,22.218 L6.834,20.218 L8.227,18.782 L9.584,20.097 L13.421,16.26 L14.835,17.674 Z M14.835,8.007 L10.302,12.54 C10.106,12.736 9.851,12.833 9.595,12.833 C9.344,12.833 9.093,12.74 8.898,12.552 L6.834,10.552 L8.227,9.115 L9.584,10.43 L13.421,6.593 L14.835,8.007 Z M34,37 L36,37 L36,45 C36,45.552 35.553,46 35,46 L3,46 C2.447,46 2,45.552 2,45 L2,3 C2,2.448 2.447,2 3,2 L35,2 C35.553,2 36,2.448 36,3 L36,14 L34,14 L34,4 L4,4 L4,44 L34,44 L34,37 Z M25,26 L24,26 L24,24 L25,24 L25,20 L27,20 L27,24 L28,24 L28,26 L27,26 L27,31 L25,31 L25,26 Z M32,29 L31,29 L31,27 L32,27 L32,20 L34,20 L34,27 L35,27 L35,29 L34,29 L34,31 L32,31 L32,29 Z M39,24 L38,24 L38,22 L39,22 L39,20 L41,20 L41,22 L42,22 L42,24 L41,24 L41,31 L39,31 L39,24 Z M22,33 L44,33 L44,18 L22,18 L22,33 Z M45,16 L21,16 C20.447,16 20,16.448 20,17 L20,34 C20,34.552 20.447,35 21,35 L45,35 C45.553,35 46,34.552 46,34 L46,17 C46,16.448 45.553,16 45,16 L45,16 Z" id="Fill-1" fill="#000000"></path>
    </g><g transform="translate(12vw, 80vh)" id="svgGroup" stroke-linecap="round" fill-rule="evenodd" font-size="9pt" stroke="#000" stroke-width="0.25mm" fill="#000" style="stroke:#000;stroke-width:0.25mm;fill:#000"><path d="M 7.783 1.995 L 8.552 1.995 L 8.574 2.522 Q 9.097 1.907 9.985 1.907 A 2.009 2.009 0 0 1 10.495 1.968 A 1.244 1.244 0 0 1 11.342 2.672 A 1.801 1.801 0 0 1 11.96 2.118 A 1.65 1.65 0 0 1 12.489 1.937 A 2.209 2.209 0 0 1 12.859 1.907 A 2.119 2.119 0 0 1 13.503 1.997 Q 14.429 2.292 14.449 3.564 L 14.449 6.75 L 13.636 6.75 L 13.636 3.612 A 1.781 1.781 0 0 0 13.616 3.332 Q 13.592 3.185 13.542 3.067 A 0.758 0.758 0 0 0 13.403 2.85 A 0.68 0.68 0 0 0 13.151 2.682 Q 12.939 2.597 12.622 2.597 A 1.245 1.245 0 0 0 12.256 2.648 A 1.008 1.008 0 0 0 11.87 2.867 A 1.042 1.042 0 0 0 11.556 3.404 A 1.41 1.41 0 0 0 11.523 3.595 L 11.523 6.75 L 10.705 6.75 L 10.705 3.634 A 1.532 1.532 0 0 0 10.657 3.23 Q 10.53 2.768 10.073 2.643 A 1.457 1.457 0 0 0 9.69 2.597 Q 8.916 2.597 8.616 3.234 A 1.459 1.459 0 0 0 8.596 3.278 L 8.596 6.75 L 7.783 6.75 L 7.783 1.995 Z M 4.636 2.202 L 3.788 2.202 A 1.466 1.466 0 0 0 3.738 1.809 A 1.066 1.066 0 0 0 3.419 1.29 A 1.211 1.211 0 0 0 2.95 1.033 Q 2.698 0.958 2.378 0.958 A 2.286 2.286 0 0 0 1.998 0.988 Q 1.796 1.022 1.633 1.095 A 1.101 1.101 0 0 0 1.404 1.233 A 0.892 0.892 0 0 0 1.059 1.887 A 1.267 1.267 0 0 0 1.055 1.995 A 0.806 0.806 0 0 0 1.323 2.6 A 1.134 1.134 0 0 0 1.387 2.656 A 1.562 1.562 0 0 0 1.625 2.813 Q 1.955 2.993 2.516 3.151 A 8.228 8.228 0 0 1 2.981 3.295 Q 3.216 3.377 3.41 3.464 A 3.297 3.297 0 0 1 3.764 3.645 A 2.342 2.342 0 0 1 4.103 3.889 Q 4.293 4.056 4.415 4.248 A 1.45 1.45 0 0 1 4.432 4.276 A 1.498 1.498 0 0 1 4.628 4.832 A 1.948 1.948 0 0 1 4.65 5.124 A 1.606 1.606 0 0 1 4.527 5.76 Q 4.382 6.101 4.064 6.354 A 1.886 1.886 0 0 1 4.043 6.37 Q 3.437 6.838 2.422 6.838 A 3.023 3.023 0 0 1 1.281 6.623 A 2.917 2.917 0 0 1 1.191 6.585 A 2.383 2.383 0 0 1 0.713 6.307 A 1.874 1.874 0 0 1 0.31 5.893 A 1.689 1.689 0 0 1 0 4.896 L 0.848 4.896 A 1.261 1.261 0 0 0 0.918 5.323 A 1.074 1.074 0 0 0 1.277 5.812 Q 1.661 6.113 2.278 6.144 A 2.87 2.87 0 0 0 2.422 6.148 A 2.628 2.628 0 0 0 2.809 6.121 Q 3.005 6.092 3.164 6.031 A 1.129 1.129 0 0 0 3.445 5.875 Q 3.801 5.603 3.801 5.133 A 1.074 1.074 0 0 0 3.759 4.822 A 0.816 0.816 0 0 0 3.472 4.406 Q 3.142 4.148 2.277 3.898 Q 1.191 3.586 0.697 3.131 Q 0.202 2.676 0.202 2.008 Q 0.202 1.252 0.807 0.758 A 2.121 2.121 0 0 1 1.697 0.335 A 3.087 3.087 0 0 1 2.378 0.264 A 2.913 2.913 0 0 1 3.038 0.336 A 2.372 2.372 0 0 1 3.553 0.519 A 2.051 2.051 0 0 1 4.084 0.889 A 1.834 1.834 0 0 1 4.353 1.222 A 1.798 1.798 0 0 1 4.636 2.202 Z M 34.277 2.202 L 33.429 2.202 A 1.466 1.466 0 0 0 33.38 1.809 A 1.066 1.066 0 0 0 33.06 1.29 A 1.211 1.211 0 0 0 32.591 1.033 Q 32.339 0.958 32.019 0.958 A 2.286 2.286 0 0 0 31.639 0.988 Q 31.437 1.022 31.274 1.095 A 1.101 1.101 0 0 0 31.045 1.233 A 0.892 0.892 0 0 0 30.7 1.887 A 1.267 1.267 0 0 0 30.696 1.995 A 0.806 0.806 0 0 0 30.964 2.6 A 1.134 1.134 0 0 0 31.028 2.656 A 1.562 1.562 0 0 0 31.266 2.813 Q 31.596 2.993 32.157 3.151 A 8.228 8.228 0 0 1 32.622 3.295 Q 32.857 3.377 33.051 3.464 A 3.297 3.297 0 0 1 33.405 3.645 A 2.342 2.342 0 0 1 33.744 3.889 Q 33.934 4.056 34.056 4.248 A 1.45 1.45 0 0 1 34.073 4.276 A 1.498 1.498 0 0 1 34.269 4.832 A 1.948 1.948 0 0 1 34.291 5.124 A 1.606 1.606 0 0 1 34.168 5.76 Q 34.023 6.101 33.705 6.354 A 1.886 1.886 0 0 1 33.684 6.37 Q 33.078 6.838 32.063 6.838 A 3.023 3.023 0 0 1 30.922 6.623 A 2.917 2.917 0 0 1 30.832 6.585 A 2.383 2.383 0 0 1 30.354 6.307 A 1.874 1.874 0 0 1 29.951 5.893 A 1.689 1.689 0 0 1 29.641 4.896 L 30.489 4.896 A 1.261 1.261 0 0 0 30.559 5.323 A 1.074 1.074 0 0 0 30.918 5.812 Q 31.302 6.113 31.919 6.144 A 2.87 2.87 0 0 0 32.063 6.148 A 2.628 2.628 0 0 0 32.45 6.121 Q 32.646 6.092 32.805 6.031 A 1.129 1.129 0 0 0 33.087 5.875 Q 33.443 5.603 33.443 5.133 A 1.074 1.074 0 0 0 33.4 4.822 A 0.816 0.816 0 0 0 33.113 4.406 Q 32.783 4.148 31.918 3.898 Q 30.832 3.586 30.338 3.131 Q 29.843 2.676 29.843 2.008 Q 29.843 1.252 30.448 0.758 A 2.121 2.121 0 0 1 31.338 0.335 A 3.087 3.087 0 0 1 32.019 0.264 A 2.913 2.913 0 0 1 32.679 0.336 A 2.372 2.372 0 0 1 33.194 0.519 A 2.051 2.051 0 0 1 33.725 0.889 A 1.834 1.834 0 0 1 33.994 1.222 A 1.798 1.798 0 0 1 34.277 2.202 Z M 54.035 2.522 L 54.075 1.995 L 54.818 1.995 L 54.818 6.636 A 2.511 2.511 0 0 1 54.747 7.249 A 1.738 1.738 0 0 1 54.27 8.09 A 1.834 1.834 0 0 1 53.341 8.57 A 2.671 2.671 0 0 1 52.8 8.622 A 2.446 2.446 0 0 1 51.794 8.402 A 2.003 2.003 0 0 1 51.384 8.161 A 1.563 1.563 0 0 1 51.043 7.8 L 51.465 7.313 A 1.889 1.889 0 0 0 51.899 7.712 A 1.514 1.514 0 0 0 52.743 7.958 A 1.695 1.695 0 0 0 53.12 7.919 Q 53.389 7.858 53.583 7.702 A 1.037 1.037 0 0 0 53.668 7.625 A 1.09 1.09 0 0 0 53.945 7.132 Q 53.992 6.959 53.999 6.752 A 2.134 2.134 0 0 0 54 6.684 L 54 6.275 A 1.601 1.601 0 0 1 52.948 6.821 A 2.279 2.279 0 0 1 52.669 6.838 A 1.672 1.672 0 0 1 51.913 6.67 Q 51.591 6.51 51.342 6.197 A 2.14 2.14 0 0 1 51.317 6.166 A 2.316 2.316 0 0 1 50.934 5.386 Q 50.801 4.922 50.801 4.333 Q 50.801 3.472 51.109 2.884 A 2.096 2.096 0 0 1 51.315 2.564 Q 51.829 1.907 52.677 1.907 A 1.971 1.971 0 0 1 53.276 1.994 A 1.55 1.55 0 0 1 54.035 2.522 Z M 49.887 6.75 L 49.034 6.75 A 0.632 0.632 0 0 1 48.999 6.66 Q 48.968 6.562 48.943 6.41 A 3.997 3.997 0 0 1 48.92 6.249 Q 48.353 6.838 47.567 6.838 A 2.033 2.033 0 0 1 47.037 6.772 A 1.529 1.529 0 0 1 46.413 6.44 Q 45.963 6.042 45.963 5.432 Q 45.963 4.689 46.527 4.278 Q 47.092 3.867 48.116 3.867 L 48.907 3.867 L 48.907 3.494 A 1.152 1.152 0 0 0 48.871 3.199 A 0.828 0.828 0 0 0 48.652 2.815 Q 48.436 2.6 48.045 2.568 A 1.748 1.748 0 0 0 47.901 2.562 Q 47.465 2.562 47.171 2.782 Q 46.877 3.001 46.877 3.313 L 46.059 3.313 A 1.041 1.041 0 0 1 46.184 2.825 A 1.409 1.409 0 0 1 46.312 2.626 Q 46.565 2.294 46.997 2.101 A 2.249 2.249 0 0 1 47.773 1.913 A 2.669 2.669 0 0 1 47.949 1.907 A 2.65 2.65 0 0 1 48.466 1.955 Q 48.774 2.016 49.012 2.156 A 1.439 1.439 0 0 1 49.236 2.318 A 1.396 1.396 0 0 1 49.69 3.144 A 1.998 1.998 0 0 1 49.72 3.45 L 49.72 5.638 Q 49.72 6.073 49.794 6.39 A 1.707 1.707 0 0 0 49.887 6.68 L 49.887 6.75 Z M 19.692 4.351 L 19.692 4.425 Q 19.692 5.511 19.195 6.174 A 1.57 1.57 0 0 1 18.057 6.828 A 2.013 2.013 0 0 1 17.851 6.838 A 2.196 2.196 0 0 1 17.265 6.764 A 1.598 1.598 0 0 1 16.488 6.289 L 16.488 8.578 L 15.675 8.578 L 15.675 1.995 L 16.418 1.995 L 16.458 2.522 A 1.619 1.619 0 0 1 17.597 1.919 A 2.319 2.319 0 0 1 17.838 1.907 A 1.829 1.829 0 0 1 18.475 2.014 A 1.597 1.597 0 0 1 19.193 2.553 Q 19.692 3.199 19.692 4.351 Z M 22.702 4.504 L 22.702 4.355 A 3.17 3.17 0 0 1 22.779 3.646 A 2.581 2.581 0 0 1 22.973 3.092 A 2.191 2.191 0 0 1 23.42 2.466 A 2.033 2.033 0 0 1 23.728 2.221 Q 24.214 1.907 24.781 1.907 A 2.254 2.254 0 0 1 25.394 1.986 A 1.639 1.639 0 0 1 26.222 2.518 Q 26.736 3.129 26.736 4.267 L 26.736 4.605 L 23.515 4.605 A 2.111 2.111 0 0 0 23.586 5.114 A 1.516 1.516 0 0 0 23.926 5.741 A 1.282 1.282 0 0 0 24.86 6.173 A 1.652 1.652 0 0 0 24.926 6.174 A 1.763 1.763 0 0 0 25.254 6.145 Q 25.478 6.103 25.655 5.999 A 1.827 1.827 0 0 0 26.164 5.551 A 2.068 2.068 0 0 0 26.178 5.533 L 26.675 5.919 A 1.926 1.926 0 0 1 25.275 6.811 A 2.749 2.749 0 0 1 24.882 6.838 A 2.394 2.394 0 0 1 24.131 6.725 A 1.974 1.974 0 0 1 23.309 6.203 Q 22.702 5.568 22.702 4.504 Z M 55.837 4.504 L 55.837 4.355 A 3.17 3.17 0 0 1 55.913 3.646 A 2.581 2.581 0 0 1 56.107 3.092 A 2.191 2.191 0 0 1 56.555 2.466 A 2.033 2.033 0 0 1 56.863 2.221 Q 57.349 1.907 57.916 1.907 A 2.254 2.254 0 0 1 58.529 1.986 A 1.639 1.639 0 0 1 59.357 2.518 Q 59.871 3.129 59.871 4.267 L 59.871 4.605 L 56.65 4.605 A 2.111 2.111 0 0 0 56.721 5.114 A 1.516 1.516 0 0 0 57.061 5.741 A 1.282 1.282 0 0 0 57.995 6.173 A 1.652 1.652 0 0 0 58.061 6.174 A 1.763 1.763 0 0 0 58.389 6.145 Q 58.613 6.103 58.79 5.999 A 1.827 1.827 0 0 0 59.299 5.551 A 2.068 2.068 0 0 0 59.313 5.533 L 59.81 5.919 A 1.926 1.926 0 0 1 58.41 6.811 A 2.749 2.749 0 0 1 58.017 6.838 A 2.394 2.394 0 0 1 57.266 6.725 A 1.974 1.974 0 0 1 56.444 6.203 Q 55.837 5.568 55.837 4.504 Z M 35.534 0.844 L 36.347 0.844 L 36.347 1.995 L 37.235 1.995 L 37.235 2.624 L 36.347 2.624 L 36.347 5.572 Q 36.347 5.858 36.466 6.001 Q 36.585 6.144 36.87 6.144 A 1.046 1.046 0 0 0 36.968 6.138 Q 37.071 6.129 37.21 6.101 A 4.024 4.024 0 0 0 37.257 6.091 L 37.257 6.75 A 2.463 2.463 0 0 1 36.824 6.829 A 2.157 2.157 0 0 1 36.633 6.838 Q 36.186 6.838 35.919 6.616 A 0.856 0.856 0 0 1 35.811 6.508 Q 35.584 6.238 35.543 5.78 A 2.351 2.351 0 0 1 35.534 5.572 L 35.534 2.624 L 34.669 2.624 L 34.669 1.995 L 35.534 1.995 L 35.534 0.844 Z M 21.608 0 L 21.608 6.75 L 20.795 6.75 L 20.795 0 L 21.608 0 Z M 37.881 4.386 L 37.881 4.329 A 3.057 3.057 0 0 1 37.968 3.587 A 2.573 2.573 0 0 1 38.156 3.072 A 2.16 2.16 0 0 1 38.57 2.486 A 1.957 1.957 0 0 1 38.92 2.21 A 2.036 2.036 0 0 1 39.865 1.913 A 2.491 2.491 0 0 1 40.039 1.907 A 2.277 2.277 0 0 1 40.792 2.027 A 1.937 1.937 0 0 1 41.61 2.58 A 2.29 2.29 0 0 1 42.129 3.608 A 3.373 3.373 0 0 1 42.21 4.368 L 42.21 4.425 A 3.114 3.114 0 0 1 42.13 5.142 A 2.577 2.577 0 0 1 41.944 5.671 A 2.056 2.056 0 0 1 41.416 6.361 A 2.001 2.001 0 0 1 41.183 6.53 A 2.045 2.045 0 0 1 40.264 6.829 A 2.529 2.529 0 0 1 40.048 6.838 A 2.262 2.262 0 0 1 39.297 6.718 A 1.938 1.938 0 0 1 38.481 6.166 A 2.297 2.297 0 0 1 37.955 5.111 A 3.357 3.357 0 0 1 37.881 4.386 Z M 45.527 1.969 L 45.527 2.725 A 2.251 2.251 0 0 0 45.285 2.698 A 2.782 2.782 0 0 0 45.128 2.694 Q 44.35 2.694 44.058 3.338 A 1.445 1.445 0 0 0 44.042 3.375 L 44.042 6.75 L 43.229 6.75 L 43.229 1.995 L 44.02 1.995 L 44.033 2.544 Q 44.414 1.938 45.096 1.909 A 1.636 1.636 0 0 1 45.167 1.907 Q 45.404 1.907 45.527 1.969 Z M 6.486 1.995 L 6.486 6.75 L 5.673 6.75 L 5.673 1.995 L 6.486 1.995 Z M 38.698 4.425 A 2.772 2.772 0 0 0 38.746 4.954 Q 38.806 5.264 38.944 5.51 A 1.545 1.545 0 0 0 39.065 5.695 Q 39.432 6.174 40.048 6.174 A 1.269 1.269 0 0 0 40.537 6.083 Q 40.816 5.967 41.019 5.706 A 1.471 1.471 0 0 0 41.032 5.689 A 1.648 1.648 0 0 0 41.287 5.171 Q 41.355 4.945 41.381 4.672 A 3.655 3.655 0 0 0 41.397 4.329 A 2.687 2.687 0 0 0 41.345 3.789 Q 41.278 3.459 41.12 3.2 A 1.586 1.586 0 0 0 41.025 3.061 A 1.231 1.231 0 0 0 40.61 2.705 Q 40.357 2.575 40.039 2.575 Q 39.449 2.575 39.083 3.035 A 1.515 1.515 0 0 0 39.068 3.054 A 1.589 1.589 0 0 0 38.815 3.552 Q 38.746 3.772 38.718 4.039 A 3.676 3.676 0 0 0 38.698 4.425 Z M 16.488 3.252 L 16.488 5.524 Q 16.853 6.174 17.605 6.174 A 1.184 1.184 0 0 0 18.07 6.086 Q 18.327 5.977 18.516 5.735 A 1.403 1.403 0 0 0 18.534 5.711 A 1.501 1.501 0 0 0 18.751 5.28 Q 18.819 5.073 18.851 4.818 A 3.91 3.91 0 0 0 18.879 4.333 Q 18.879 3.746 18.696 3.339 A 1.503 1.503 0 0 0 18.536 3.063 A 1.086 1.086 0 0 0 17.75 2.605 A 1.414 1.414 0 0 0 17.596 2.597 Q 16.935 2.597 16.57 3.121 A 1.623 1.623 0 0 0 16.488 3.252 Z M 54 5.449 L 54 3.278 A 1.439 1.439 0 0 0 53.699 2.891 Q 53.396 2.62 52.955 2.599 A 1.578 1.578 0 0 0 52.88 2.597 Q 52.288 2.597 51.954 3.056 A 1.51 1.51 0 0 0 51.743 3.484 Q 51.677 3.689 51.646 3.939 A 3.955 3.955 0 0 0 51.618 4.425 Q 51.618 5.229 51.948 5.689 Q 52.277 6.148 52.871 6.148 A 1.32 1.32 0 0 0 53.38 6.054 Q 53.772 5.891 54 5.449 Z M 48.907 5.418 L 48.907 4.443 L 48.27 4.443 Q 46.776 4.443 46.776 5.317 Q 46.776 5.7 47.03 5.915 A 0.893 0.893 0 0 0 47.444 6.108 A 1.259 1.259 0 0 0 47.685 6.13 A 1.429 1.429 0 0 0 48.41 5.933 A 1.335 1.335 0 0 0 48.706 5.705 A 1.108 1.108 0 0 0 48.907 5.418 Z M 23.542 3.938 L 25.923 3.938 L 25.923 3.876 Q 25.897 3.417 25.727 3.111 A 1.13 1.13 0 0 0 25.59 2.916 A 0.983 0.983 0 0 0 24.935 2.584 A 1.39 1.39 0 0 0 24.781 2.575 A 1.106 1.106 0 0 0 24.258 2.698 A 1.14 1.14 0 0 0 23.955 2.933 A 1.417 1.417 0 0 0 23.678 3.379 Q 23.604 3.563 23.565 3.785 A 2.741 2.741 0 0 0 23.542 3.938 Z M 56.676 3.938 L 59.058 3.938 L 59.058 3.876 Q 59.032 3.417 58.862 3.111 A 1.13 1.13 0 0 0 58.724 2.916 A 0.983 0.983 0 0 0 58.07 2.584 A 1.39 1.39 0 0 0 57.916 2.575 A 1.106 1.106 0 0 0 57.393 2.698 A 1.14 1.14 0 0 0 57.09 2.933 A 1.417 1.417 0 0 0 56.813 3.379 Q 56.739 3.563 56.699 3.785 A 2.741 2.741 0 0 0 56.676 3.938 Z M 5.608 0.734 Q 5.608 0.536 5.728 0.4 Q 5.84 0.274 6.052 0.264 A 0.783 0.783 0 0 1 6.087 0.264 Q 6.324 0.264 6.447 0.4 A 0.474 0.474 0 0 1 6.569 0.703 A 0.614 0.614 0 0 1 6.57 0.734 A 0.523 0.523 0 0 1 6.545 0.9 A 0.442 0.442 0 0 1 6.447 1.063 Q 6.334 1.184 6.126 1.194 A 0.803 0.803 0 0 1 6.087 1.195 Q 5.914 1.195 5.803 1.126 A 0.362 0.362 0 0 1 5.728 1.063 A 0.456 0.456 0 0 1 5.61 0.788 A 0.605 0.605 0 0 1 5.608 0.734 Z" vector-effect="non-scaling-stroke"/></g><g transform="translate(12vw, 90vh)" id="svgGroup" stroke-linecap="round" fill-rule="evenodd" font-size="9pt" stroke="#000" stroke-width="0.25mm" fill="#000" style="stroke:#000;stroke-width:0.25mm;fill:#000"><path d="M 4.636 2.202 L 3.788 2.202 A 1.466 1.466 0 0 0 3.738 1.809 A 1.066 1.066 0 0 0 3.419 1.29 A 1.211 1.211 0 0 0 2.95 1.033 Q 2.698 0.958 2.378 0.958 A 2.286 2.286 0 0 0 1.998 0.988 Q 1.796 1.022 1.633 1.095 A 1.101 1.101 0 0 0 1.404 1.233 A 0.892 0.892 0 0 0 1.059 1.887 A 1.267 1.267 0 0 0 1.055 1.995 A 0.806 0.806 0 0 0 1.323 2.6 A 1.134 1.134 0 0 0 1.387 2.656 A 1.562 1.562 0 0 0 1.625 2.813 Q 1.955 2.993 2.516 3.151 A 8.228 8.228 0 0 1 2.981 3.295 Q 3.216 3.377 3.41 3.464 A 3.297 3.297 0 0 1 3.764 3.645 A 2.342 2.342 0 0 1 4.103 3.889 Q 4.293 4.056 4.415 4.248 A 1.45 1.45 0 0 1 4.432 4.276 A 1.498 1.498 0 0 1 4.628 4.832 A 1.948 1.948 0 0 1 4.65 5.124 A 1.606 1.606 0 0 1 4.527 5.76 Q 4.382 6.101 4.064 6.354 A 1.886 1.886 0 0 1 4.043 6.37 Q 3.437 6.838 2.422 6.838 A 3.023 3.023 0 0 1 1.281 6.623 A 2.917 2.917 0 0 1 1.191 6.585 A 2.383 2.383 0 0 1 0.713 6.307 A 1.874 1.874 0 0 1 0.31 5.893 A 1.689 1.689 0 0 1 0 4.896 L 0.848 4.896 A 1.261 1.261 0 0 0 0.918 5.323 A 1.074 1.074 0 0 0 1.277 5.812 Q 1.661 6.113 2.278 6.144 A 2.87 2.87 0 0 0 2.422 6.148 A 2.628 2.628 0 0 0 2.809 6.121 Q 3.005 6.092 3.164 6.031 A 1.129 1.129 0 0 0 3.445 5.875 Q 3.801 5.603 3.801 5.133 A 1.074 1.074 0 0 0 3.759 4.822 A 0.816 0.816 0 0 0 3.472 4.406 Q 3.142 4.148 2.277 3.898 Q 1.191 3.586 0.697 3.131 Q 0.202 2.676 0.202 2.008 Q 0.202 1.252 0.807 0.758 A 2.121 2.121 0 0 1 1.697 0.335 A 3.087 3.087 0 0 1 2.378 0.264 A 2.913 2.913 0 0 1 3.038 0.336 A 2.372 2.372 0 0 1 3.553 0.519 A 2.051 2.051 0 0 1 4.084 0.889 A 1.834 1.834 0 0 1 4.353 1.222 A 1.798 1.798 0 0 1 4.636 2.202 Z M 36.119 2.202 L 35.271 2.202 A 1.466 1.466 0 0 0 35.221 1.809 A 1.066 1.066 0 0 0 34.902 1.29 A 1.211 1.211 0 0 0 34.432 1.033 Q 34.18 0.958 33.86 0.958 A 2.286 2.286 0 0 0 33.48 0.988 Q 33.278 1.022 33.116 1.095 A 1.101 1.101 0 0 0 32.887 1.233 A 0.892 0.892 0 0 0 32.542 1.887 A 1.267 1.267 0 0 0 32.537 1.995 A 0.806 0.806 0 0 0 32.805 2.6 A 1.134 1.134 0 0 0 32.869 2.656 A 1.562 1.562 0 0 0 33.107 2.813 Q 33.438 2.993 33.998 3.151 A 8.228 8.228 0 0 1 34.463 3.295 Q 34.698 3.377 34.893 3.464 A 3.297 3.297 0 0 1 35.246 3.645 A 2.342 2.342 0 0 1 35.585 3.889 Q 35.775 4.056 35.897 4.248 A 1.45 1.45 0 0 1 35.914 4.276 A 1.498 1.498 0 0 1 36.111 4.832 A 1.948 1.948 0 0 1 36.132 5.124 A 1.606 1.606 0 0 1 36.01 5.76 Q 35.864 6.101 35.546 6.354 A 1.886 1.886 0 0 1 35.526 6.37 Q 34.919 6.838 33.904 6.838 A 3.023 3.023 0 0 1 32.763 6.623 A 2.917 2.917 0 0 1 32.673 6.585 A 2.383 2.383 0 0 1 32.195 6.307 A 1.874 1.874 0 0 1 31.792 5.893 A 1.689 1.689 0 0 1 31.483 4.896 L 32.331 4.896 A 1.261 1.261 0 0 0 32.4 5.323 A 1.074 1.074 0 0 0 32.759 5.812 Q 33.144 6.113 33.76 6.144 A 2.87 2.87 0 0 0 33.904 6.148 A 2.628 2.628 0 0 0 34.291 6.121 Q 34.487 6.092 34.646 6.031 A 1.129 1.129 0 0 0 34.928 5.875 Q 35.284 5.603 35.284 5.133 A 1.074 1.074 0 0 0 35.241 4.822 A 0.816 0.816 0 0 0 34.954 4.406 Q 34.625 4.148 33.759 3.898 Q 32.673 3.586 32.179 3.131 Q 31.685 2.676 31.685 2.008 Q 31.685 1.252 32.289 0.758 A 2.121 2.121 0 0 1 33.179 0.335 A 3.087 3.087 0 0 1 33.86 0.264 A 2.913 2.913 0 0 1 34.52 0.336 A 2.372 2.372 0 0 1 35.036 0.519 A 2.051 2.051 0 0 1 35.567 0.889 A 1.834 1.834 0 0 1 35.835 1.222 A 1.798 1.798 0 0 1 36.119 2.202 Z M 38.184 3.819 L 38.184 3.155 L 38.795 3.155 Q 39.253 3.148 39.555 2.961 A 1.045 1.045 0 0 0 39.7 2.852 A 0.97 0.97 0 0 0 40.02 2.225 A 1.373 1.373 0 0 0 40.03 2.057 A 1.626 1.626 0 0 0 39.974 1.611 Q 39.832 1.112 39.324 0.98 A 1.645 1.645 0 0 0 38.909 0.932 A 1.495 1.495 0 0 0 38.547 0.973 A 1.044 1.044 0 0 0 38.068 1.233 A 1.004 1.004 0 0 0 37.766 1.844 A 1.405 1.405 0 0 0 37.754 2.03 L 36.941 2.03 A 1.698 1.698 0 0 1 37.095 1.3 A 1.68 1.68 0 0 1 37.496 0.767 A 1.924 1.924 0 0 1 38.549 0.288 A 2.615 2.615 0 0 1 38.909 0.264 A 2.758 2.758 0 0 1 39.485 0.32 Q 39.853 0.399 40.132 0.586 A 1.593 1.593 0 0 1 40.329 0.743 A 1.57 1.57 0 0 1 40.795 1.589 A 2.336 2.336 0 0 1 40.843 2.074 A 1.332 1.332 0 0 1 40.691 2.686 A 1.725 1.725 0 0 1 40.573 2.883 A 1.624 1.624 0 0 1 39.873 3.452 A 1.952 1.952 0 0 1 39.837 3.467 A 1.81 1.81 0 0 1 40.272 3.668 A 1.44 1.44 0 0 1 40.652 4.021 Q 40.94 4.408 40.94 4.966 Q 40.94 5.827 40.377 6.333 A 1.935 1.935 0 0 1 39.42 6.793 A 2.738 2.738 0 0 1 38.914 6.838 A 2.716 2.716 0 0 1 38.267 6.765 A 1.936 1.936 0 0 1 37.448 6.35 Q 36.883 5.862 36.883 5.063 L 37.701 5.063 A 1.255 1.255 0 0 0 37.751 5.426 A 0.978 0.978 0 0 0 38.03 5.871 A 1.113 1.113 0 0 0 38.545 6.135 A 1.643 1.643 0 0 0 38.914 6.174 Q 39.503 6.174 39.815 5.867 Q 40.102 5.583 40.125 5.073 A 2.011 2.011 0 0 0 40.127 4.983 A 1.451 1.451 0 0 0 40.087 4.634 A 0.962 0.962 0 0 0 39.784 4.126 A 1.13 1.13 0 0 0 39.396 3.91 Q 39.138 3.824 38.795 3.819 L 38.184 3.819 Z M 63.33 0 L 63.33 2.571 A 1.767 1.767 0 0 1 63.996 2.053 A 1.832 1.832 0 0 1 64.736 1.907 A 1.905 1.905 0 0 1 65.369 2.004 Q 66.211 2.3 66.254 3.506 A 3.668 3.668 0 0 1 66.256 3.608 L 66.256 6.75 L 65.444 6.75 L 65.444 3.604 A 1.837 1.837 0 0 0 65.421 3.324 Q 65.371 3.017 65.208 2.843 Q 65.022 2.645 64.669 2.606 A 1.66 1.66 0 0 0 64.49 2.597 A 1.253 1.253 0 0 0 64.076 2.664 A 1.123 1.123 0 0 0 63.796 2.808 A 1.432 1.432 0 0 0 63.33 3.362 L 63.33 6.75 L 62.517 6.75 L 62.517 0 L 63.33 0 Z M 144.725 6.75 L 143.069 4.548 L 142.559 5.08 L 142.559 6.75 L 141.746 6.75 L 141.746 0 L 142.559 0 L 142.559 4.083 L 142.994 3.56 L 144.475 1.995 L 145.464 1.995 L 143.613 3.981 L 145.679 6.75 L 144.725 6.75 Z M 112.232 3.393 L 111.415 3.393 Q 111.415 3.059 111.131 2.817 Q 110.848 2.575 110.417 2.575 Q 109.973 2.575 109.723 2.769 A 0.653 0.653 0 0 0 109.548 2.967 Q 109.475 3.098 109.472 3.263 A 0.771 0.771 0 0 0 109.472 3.274 A 0.588 0.588 0 0 0 109.502 3.467 A 0.48 0.48 0 0 0 109.705 3.718 A 1.093 1.093 0 0 0 109.855 3.796 Q 110.02 3.868 110.275 3.937 A 6.581 6.581 0 0 0 110.547 4.003 A 6.318 6.318 0 0 1 110.954 4.108 Q 111.291 4.208 111.533 4.329 A 1.901 1.901 0 0 1 111.789 4.481 Q 111.926 4.579 112.023 4.692 A 1.06 1.06 0 0 1 112.094 4.783 A 1.024 1.024 0 0 1 112.256 5.191 A 1.388 1.388 0 0 1 112.276 5.432 Q 112.276 6.069 111.766 6.453 Q 111.284 6.817 110.53 6.837 A 3.337 3.337 0 0 1 110.444 6.838 A 2.746 2.746 0 0 1 109.909 6.788 A 2.124 2.124 0 0 1 109.433 6.636 A 1.771 1.771 0 0 1 108.999 6.358 A 1.54 1.54 0 0 1 108.745 6.071 Q 108.497 5.708 108.497 5.287 L 109.31 5.287 A 0.932 0.932 0 0 0 109.383 5.612 A 0.827 0.827 0 0 0 109.637 5.935 A 1.072 1.072 0 0 0 110.039 6.128 Q 110.194 6.167 110.375 6.173 A 2.013 2.013 0 0 0 110.444 6.174 A 1.863 1.863 0 0 0 110.739 6.152 Q 110.901 6.126 111.032 6.07 A 0.941 0.941 0 0 0 111.184 5.988 A 0.689 0.689 0 0 0 111.349 5.837 A 0.554 0.554 0 0 0 111.463 5.489 A 0.698 0.698 0 0 0 111.427 5.258 A 0.581 0.581 0 0 0 111.215 4.977 A 1.05 1.05 0 0 0 111.046 4.878 Q 110.857 4.788 110.562 4.712 A 5.392 5.392 0 0 0 110.349 4.663 A 6.342 6.342 0 0 1 109.988 4.575 Q 109.618 4.473 109.369 4.346 Q 109.07 4.194 108.9 3.994 A 1.017 1.017 0 0 1 108.833 3.907 Q 108.659 3.652 108.659 3.3 A 1.206 1.206 0 0 1 109.058 2.396 A 1.694 1.694 0 0 1 109.154 2.312 A 1.752 1.752 0 0 1 109.937 1.952 A 2.471 2.471 0 0 1 110.417 1.907 A 2.559 2.559 0 0 1 110.981 1.966 A 1.757 1.757 0 0 1 111.729 2.325 Q 112.232 2.742 112.232 3.393 Z M 103.729 1.995 L 104.498 1.995 L 104.524 2.593 Q 105.06 1.918 105.92 1.907 A 2.234 2.234 0 0 1 105.948 1.907 A 1.905 1.905 0 0 1 106.581 2.004 Q 107.423 2.3 107.466 3.506 A 3.668 3.668 0 0 1 107.468 3.608 L 107.468 6.75 L 106.655 6.75 L 106.655 3.604 A 1.837 1.837 0 0 0 106.633 3.324 Q 106.583 3.017 106.42 2.843 Q 106.234 2.645 105.881 2.606 A 1.66 1.66 0 0 0 105.702 2.597 A 1.253 1.253 0 0 0 105.287 2.664 A 1.123 1.123 0 0 0 105.007 2.808 A 1.432 1.432 0 0 0 104.542 3.362 L 104.542 6.75 L 103.729 6.75 L 103.729 1.995 Z M 23.067 5.251 L 23.836 5.251 A 1.432 1.432 0 0 1 23.637 5.901 A 1.772 1.772 0 0 1 23.555 6.029 A 1.828 1.828 0 0 1 22.946 6.574 A 2.169 2.169 0 0 1 22.863 6.618 A 1.997 1.997 0 0 1 21.946 6.838 A 2.346 2.346 0 0 1 21.249 6.739 A 1.839 1.839 0 0 1 20.402 6.19 A 2.171 2.171 0 0 1 19.938 5.31 Q 19.828 4.909 19.828 4.417 L 19.828 4.28 A 3.24 3.24 0 0 1 19.892 3.624 A 2.57 2.57 0 0 1 20.083 3.045 A 2.008 2.008 0 0 1 20.523 2.431 A 1.892 1.892 0 0 1 20.815 2.206 A 1.943 1.943 0 0 1 21.571 1.934 A 2.529 2.529 0 0 1 21.942 1.907 A 2.196 2.196 0 0 1 22.59 1.999 A 1.786 1.786 0 0 1 23.271 2.386 A 1.693 1.693 0 0 1 23.83 3.535 A 2.239 2.239 0 0 1 23.836 3.63 L 23.067 3.63 Q 23.032 3.168 22.718 2.872 A 1.078 1.078 0 0 0 21.989 2.576 A 1.402 1.402 0 0 0 21.942 2.575 A 1.374 1.374 0 0 0 21.521 2.637 A 1.081 1.081 0 0 0 20.982 3.021 A 1.469 1.469 0 0 0 20.755 3.468 Q 20.689 3.674 20.662 3.923 A 3.514 3.514 0 0 0 20.641 4.311 L 20.641 4.465 Q 20.641 5.287 20.98 5.73 A 1.1 1.1 0 0 0 21.766 6.165 A 1.611 1.611 0 0 0 21.946 6.174 A 1.171 1.171 0 0 0 22.707 5.911 A 1.007 1.007 0 0 0 22.951 5.629 A 0.914 0.914 0 0 0 23.067 5.251 Z M 60.834 5.251 L 61.603 5.251 A 1.432 1.432 0 0 1 61.404 5.901 A 1.772 1.772 0 0 1 61.321 6.029 A 1.828 1.828 0 0 1 60.712 6.574 A 2.169 2.169 0 0 1 60.629 6.618 A 1.997 1.997 0 0 1 59.713 6.838 A 2.346 2.346 0 0 1 59.016 6.739 A 1.839 1.839 0 0 1 58.168 6.19 A 2.171 2.171 0 0 1 57.705 5.31 Q 57.595 4.909 57.595 4.417 L 57.595 4.28 A 3.24 3.24 0 0 1 57.659 3.624 A 2.57 2.57 0 0 1 57.85 3.045 A 2.008 2.008 0 0 1 58.289 2.431 A 1.892 1.892 0 0 1 58.581 2.206 A 1.943 1.943 0 0 1 59.338 1.934 A 2.529 2.529 0 0 1 59.709 1.907 A 2.196 2.196 0 0 1 60.357 1.999 A 1.786 1.786 0 0 1 61.038 2.386 A 1.693 1.693 0 0 1 61.596 3.535 A 2.239 2.239 0 0 1 61.603 3.63 L 60.834 3.63 Q 60.798 3.168 60.484 2.872 A 1.078 1.078 0 0 0 59.755 2.576 A 1.402 1.402 0 0 0 59.709 2.575 A 1.374 1.374 0 0 0 59.287 2.637 A 1.081 1.081 0 0 0 58.748 3.021 A 1.469 1.469 0 0 0 58.522 3.468 Q 58.456 3.674 58.428 3.923 A 3.514 3.514 0 0 0 58.408 4.311 L 58.408 4.465 Q 58.408 5.287 58.746 5.73 A 1.1 1.1 0 0 0 59.533 6.165 A 1.611 1.611 0 0 0 59.713 6.174 A 1.171 1.171 0 0 0 60.473 5.911 A 1.007 1.007 0 0 0 60.717 5.629 A 0.914 0.914 0 0 0 60.834 5.251 Z M 53.758 6.75 L 52.906 6.75 A 0.632 0.632 0 0 1 52.87 6.66 Q 52.839 6.562 52.814 6.41 A 3.997 3.997 0 0 1 52.792 6.249 Q 52.225 6.838 51.438 6.838 A 2.033 2.033 0 0 1 50.909 6.772 A 1.529 1.529 0 0 1 50.285 6.44 Q 49.834 6.042 49.834 5.432 Q 49.834 4.689 50.399 4.278 Q 50.964 3.867 51.987 3.867 L 52.778 3.867 L 52.778 3.494 A 1.152 1.152 0 0 0 52.743 3.199 A 0.828 0.828 0 0 0 52.524 2.815 Q 52.307 2.6 51.917 2.568 A 1.748 1.748 0 0 0 51.772 2.562 Q 51.337 2.562 51.043 2.782 Q 50.748 3.001 50.748 3.313 L 49.931 3.313 A 1.041 1.041 0 0 1 50.056 2.825 A 1.409 1.409 0 0 1 50.183 2.626 Q 50.436 2.294 50.869 2.101 A 2.249 2.249 0 0 1 51.645 1.913 A 2.669 2.669 0 0 1 51.82 1.907 A 2.65 2.65 0 0 1 52.338 1.955 Q 52.645 2.016 52.884 2.156 A 1.439 1.439 0 0 1 53.108 2.318 A 1.396 1.396 0 0 1 53.561 3.144 A 1.998 1.998 0 0 1 53.591 3.45 L 53.591 5.638 Q 53.591 6.073 53.665 6.39 A 1.707 1.707 0 0 0 53.758 6.68 L 53.758 6.75 Z M 92.364 6.75 L 91.512 6.75 A 0.632 0.632 0 0 1 91.476 6.66 Q 91.445 6.562 91.42 6.41 A 3.997 3.997 0 0 1 91.398 6.249 Q 90.831 6.838 90.044 6.838 A 2.033 2.033 0 0 1 89.515 6.772 A 1.529 1.529 0 0 1 88.891 6.44 Q 88.44 6.042 88.44 5.432 Q 88.44 4.689 89.005 4.278 Q 89.569 3.867 90.593 3.867 L 91.384 3.867 L 91.384 3.494 A 1.152 1.152 0 0 0 91.349 3.199 A 0.828 0.828 0 0 0 91.13 2.815 Q 90.913 2.6 90.523 2.568 A 1.748 1.748 0 0 0 90.378 2.562 Q 89.943 2.562 89.649 2.782 Q 89.354 3.001 89.354 3.313 L 88.537 3.313 A 1.041 1.041 0 0 1 88.662 2.825 A 1.409 1.409 0 0 1 88.789 2.626 Q 89.042 2.294 89.475 2.101 A 2.249 2.249 0 0 1 90.251 1.913 A 2.669 2.669 0 0 1 90.426 1.907 A 2.65 2.65 0 0 1 90.944 1.955 Q 91.251 2.016 91.49 2.156 A 1.439 1.439 0 0 1 91.714 2.318 A 1.396 1.396 0 0 1 92.167 3.144 A 1.998 1.998 0 0 1 92.197 3.45 L 92.197 5.638 Q 92.197 6.073 92.271 6.39 A 1.707 1.707 0 0 0 92.364 6.68 L 92.364 6.75 Z M 137.589 6.75 L 136.736 6.75 A 0.632 0.632 0 0 1 136.7 6.66 Q 136.669 6.562 136.644 6.41 A 3.997 3.997 0 0 1 136.622 6.249 Q 136.055 6.838 135.268 6.838 A 2.033 2.033 0 0 1 134.739 6.772 A 1.529 1.529 0 0 1 134.115 6.44 Q 133.664 6.042 133.664 5.432 Q 133.664 4.689 134.229 4.278 Q 134.794 3.867 135.818 3.867 L 136.609 3.867 L 136.609 3.494 A 1.152 1.152 0 0 0 136.573 3.199 A 0.828 0.828 0 0 0 136.354 2.815 Q 136.137 2.6 135.747 2.568 A 1.748 1.748 0 0 0 135.602 2.562 Q 135.167 2.562 134.873 2.782 Q 134.578 3.001 134.578 3.313 L 133.761 3.313 A 1.041 1.041 0 0 1 133.886 2.825 A 1.409 1.409 0 0 1 134.014 2.626 Q 134.266 2.294 134.699 2.101 A 2.249 2.249 0 0 1 135.475 1.913 A 2.669 2.669 0 0 1 135.651 1.907 A 2.65 2.65 0 0 1 136.168 1.955 Q 136.475 2.016 136.714 2.156 A 1.439 1.439 0 0 1 136.938 2.318 A 1.396 1.396 0 0 1 137.391 3.144 A 1.998 1.998 0 0 1 137.422 3.45 L 137.422 5.638 Q 137.422 6.073 137.495 6.39 A 1.707 1.707 0 0 0 137.589 6.68 L 137.589 6.75 Z M 79.906 4.351 L 79.906 4.425 Q 79.906 5.511 79.409 6.174 A 1.57 1.57 0 0 1 78.271 6.828 A 2.013 2.013 0 0 1 78.065 6.838 A 2.196 2.196 0 0 1 77.479 6.764 A 1.598 1.598 0 0 1 76.702 6.289 L 76.702 8.578 L 75.889 8.578 L 75.889 1.995 L 76.632 1.995 L 76.672 2.522 A 1.619 1.619 0 0 1 77.811 1.919 A 2.319 2.319 0 0 1 78.051 1.907 A 1.829 1.829 0 0 1 78.689 2.014 A 1.597 1.597 0 0 1 79.407 2.553 Q 79.906 3.199 79.906 4.351 Z M 5.397 4.504 L 5.397 4.355 A 3.17 3.17 0 0 1 5.473 3.646 A 2.581 2.581 0 0 1 5.667 3.092 A 2.191 2.191 0 0 1 6.114 2.466 A 2.033 2.033 0 0 1 6.423 2.221 Q 6.908 1.907 7.475 1.907 A 2.254 2.254 0 0 1 8.088 1.986 A 1.639 1.639 0 0 1 8.917 2.518 Q 9.431 3.129 9.431 4.267 L 9.431 4.605 L 6.21 4.605 A 2.111 2.111 0 0 0 6.281 5.114 A 1.516 1.516 0 0 0 6.621 5.741 A 1.282 1.282 0 0 0 7.555 6.173 A 1.652 1.652 0 0 0 7.62 6.174 A 1.763 1.763 0 0 0 7.948 6.145 Q 8.172 6.103 8.35 5.999 A 1.827 1.827 0 0 0 8.859 5.551 A 2.068 2.068 0 0 0 8.873 5.533 L 9.369 5.919 A 1.926 1.926 0 0 1 7.97 6.811 A 2.749 2.749 0 0 1 7.576 6.838 A 2.394 2.394 0 0 1 6.825 6.725 A 1.974 1.974 0 0 1 6.003 6.203 Q 5.397 5.568 5.397 4.504 Z M 24.544 4.504 L 24.544 4.355 A 3.17 3.17 0 0 1 24.62 3.646 A 2.581 2.581 0 0 1 24.814 3.092 A 2.191 2.191 0 0 1 25.261 2.466 A 2.033 2.033 0 0 1 25.57 2.221 Q 26.055 1.907 26.622 1.907 A 2.254 2.254 0 0 1 27.235 1.986 A 1.639 1.639 0 0 1 28.064 2.518 Q 28.578 3.129 28.578 4.267 L 28.578 4.605 L 25.357 4.605 A 2.111 2.111 0 0 0 25.428 5.114 A 1.516 1.516 0 0 0 25.767 5.741 A 1.282 1.282 0 0 0 26.702 6.173 A 1.652 1.652 0 0 0 26.767 6.174 A 1.763 1.763 0 0 0 27.095 6.145 Q 27.319 6.103 27.497 5.999 A 1.827 1.827 0 0 0 28.006 5.551 A 2.068 2.068 0 0 0 28.02 5.533 L 28.516 5.919 A 1.926 1.926 0 0 1 27.117 6.811 A 2.749 2.749 0 0 1 26.723 6.838 A 2.394 2.394 0 0 1 25.972 6.725 A 1.974 1.974 0 0 1 25.15 6.203 Q 24.544 5.568 24.544 4.504 Z M 80.732 4.504 L 80.732 4.355 A 3.17 3.17 0 0 1 80.808 3.646 A 2.581 2.581 0 0 1 81.002 3.092 A 2.191 2.191 0 0 1 81.45 2.466 A 2.033 2.033 0 0 1 81.758 2.221 Q 82.244 1.907 82.811 1.907 A 2.254 2.254 0 0 1 83.424 1.986 A 1.639 1.639 0 0 1 84.252 2.518 Q 84.766 3.129 84.766 4.267 L 84.766 4.605 L 81.545 4.605 A 2.111 2.111 0 0 0 81.616 5.114 A 1.516 1.516 0 0 0 81.956 5.741 A 1.282 1.282 0 0 0 82.89 6.173 A 1.652 1.652 0 0 0 82.956 6.174 A 1.763 1.763 0 0 0 83.284 6.145 Q 83.508 6.103 83.685 5.999 A 1.827 1.827 0 0 0 84.194 5.551 A 2.068 2.068 0 0 0 84.208 5.533 L 84.705 5.919 A 1.926 1.926 0 0 1 83.305 6.811 A 2.749 2.749 0 0 1 82.912 6.838 A 2.394 2.394 0 0 1 82.161 6.725 A 1.974 1.974 0 0 1 81.339 6.203 Q 80.732 5.568 80.732 4.504 Z M 46.714 6.75 L 44.495 6.75 L 44.495 0.352 L 46.587 0.352 A 4.031 4.031 0 0 1 47.159 0.39 Q 47.452 0.432 47.689 0.521 A 1.629 1.629 0 0 1 48.153 0.782 A 1.383 1.383 0 0 1 48.624 1.558 A 2.164 2.164 0 0 1 48.678 2.057 A 1.3 1.3 0 0 1 48.423 2.85 A 1.589 1.589 0 0 1 47.913 3.294 A 1.972 1.972 0 0 1 47.729 3.384 A 1.571 1.571 0 0 1 48.244 3.63 A 1.446 1.446 0 0 1 48.549 3.935 A 1.531 1.531 0 0 1 48.841 4.713 A 1.961 1.961 0 0 1 48.85 4.904 A 2.139 2.139 0 0 1 48.775 5.487 A 1.577 1.577 0 0 1 48.292 6.258 A 1.832 1.832 0 0 1 47.6 6.633 Q 47.333 6.713 47.014 6.739 A 3.81 3.81 0 0 1 46.714 6.75 Z M 13.856 1.995 L 15.065 5.647 L 16.242 1.995 L 17.073 1.995 L 15.368 6.75 L 14.748 6.75 L 13.026 1.995 L 13.856 1.995 Z M 118.912 0.352 L 118.912 4.601 L 119.799 4.601 L 119.799 5.265 L 118.912 5.265 L 118.912 6.75 L 118.094 6.75 L 118.094 5.265 L 115.181 5.265 L 115.181 4.786 L 118.046 0.352 L 118.912 0.352 Z M 129.797 6.75 L 128.026 6.75 L 128.026 0.352 L 129.832 0.352 Q 130.667 0.352 131.309 0.721 Q 131.95 1.09 132.3 1.771 A 3.19 3.19 0 0 1 132.617 2.8 A 4.073 4.073 0 0 1 132.653 3.335 L 132.653 3.744 Q 132.653 4.649 132.304 5.331 A 2.457 2.457 0 0 1 131.307 6.376 Q 130.658 6.741 129.797 6.75 Z M 124.31 2.592 A 1.544 1.544 0 0 0 124.414 2.021 A 2.226 2.226 0 0 0 124.392 1.707 A 1.566 1.566 0 0 0 123.893 0.738 A 1.754 1.754 0 0 0 123.127 0.333 A 2.443 2.443 0 0 0 122.528 0.264 A 2.539 2.539 0 0 0 122.019 0.312 A 1.767 1.767 0 0 0 121.162 0.738 Q 120.643 1.213 120.643 2.021 A 1.808 1.808 0 0 0 120.644 2.058 A 1.499 1.499 0 0 0 120.889 2.87 A 1.626 1.626 0 0 0 121.051 3.077 A 1.726 1.726 0 0 0 121.562 3.454 A 2.119 2.119 0 0 0 121.462 3.5 A 1.738 1.738 0 0 0 120.777 4.087 A 1.629 1.629 0 0 0 120.494 5.023 A 2.272 2.272 0 0 0 120.504 5.237 A 1.63 1.63 0 0 0 121.05 6.344 A 1.895 1.895 0 0 0 121.9 6.771 A 2.797 2.797 0 0 0 122.528 6.838 A 2.796 2.796 0 0 0 123.127 6.777 A 1.925 1.925 0 0 0 124.003 6.346 A 1.578 1.578 0 0 0 124.478 5.62 A 1.989 1.989 0 0 0 124.563 5.023 A 1.581 1.581 0 0 0 124.271 4.087 Q 123.979 3.674 123.478 3.458 Q 123.908 3.248 124.161 2.874 A 1.449 1.449 0 0 0 124.31 2.592 Z M 74.751 3.353 L 74.751 3.757 A 4.729 4.729 0 0 1 74.686 4.56 A 3.455 3.455 0 0 1 74.435 5.399 A 2.648 2.648 0 0 1 74.038 6.033 A 2.226 2.226 0 0 1 73.538 6.469 A 2.362 2.362 0 0 1 72.52 6.82 A 2.993 2.993 0 0 1 72.185 6.838 A 2.618 2.618 0 0 1 71.378 6.717 A 2.313 2.313 0 0 1 70.844 6.467 A 2.392 2.392 0 0 1 70.044 5.615 A 2.953 2.953 0 0 1 69.937 5.407 A 3.426 3.426 0 0 1 69.66 4.489 A 4.535 4.535 0 0 1 69.605 3.814 L 69.605 3.353 A 4.52 4.52 0 0 1 69.68 2.51 A 3.461 3.461 0 0 1 69.926 1.723 Q 70.247 1.015 70.833 0.639 A 2.389 2.389 0 0 1 71.99 0.27 A 2.92 2.92 0 0 1 72.176 0.264 A 2.702 2.702 0 0 1 72.952 0.372 A 2.318 2.318 0 0 1 73.532 0.635 A 2.31 2.31 0 0 1 74.305 1.456 A 2.912 2.912 0 0 1 74.435 1.712 A 3.525 3.525 0 0 1 74.695 2.604 A 4.763 4.763 0 0 1 74.751 3.353 Z M 55.156 0.844 L 55.969 0.844 L 55.969 1.995 L 56.857 1.995 L 56.857 2.624 L 55.969 2.624 L 55.969 5.572 Q 55.969 5.858 56.088 6.001 Q 56.206 6.144 56.492 6.144 A 1.046 1.046 0 0 0 56.589 6.138 Q 56.692 6.129 56.832 6.101 A 4.024 4.024 0 0 0 56.879 6.091 L 56.879 6.75 A 2.463 2.463 0 0 1 56.446 6.829 A 2.157 2.157 0 0 1 56.255 6.838 Q 55.807 6.838 55.541 6.616 A 0.856 0.856 0 0 1 55.433 6.508 Q 55.205 6.238 55.165 5.78 A 2.351 2.351 0 0 1 55.156 5.572 L 55.156 2.624 L 54.29 2.624 L 54.29 1.995 L 55.156 1.995 L 55.156 0.844 Z M 93.762 0.844 L 94.575 0.844 L 94.575 1.995 L 95.463 1.995 L 95.463 2.624 L 94.575 2.624 L 94.575 5.572 Q 94.575 5.858 94.694 6.001 Q 94.812 6.144 95.098 6.144 A 1.046 1.046 0 0 0 95.195 6.138 Q 95.298 6.129 95.438 6.101 A 4.024 4.024 0 0 0 95.485 6.091 L 95.485 6.75 A 2.463 2.463 0 0 1 95.052 6.829 A 2.157 2.157 0 0 1 94.86 6.838 Q 94.413 6.838 94.147 6.616 A 0.856 0.856 0 0 1 94.039 6.508 Q 93.811 6.238 93.771 5.78 A 2.351 2.351 0 0 1 93.762 5.572 L 93.762 2.624 L 92.896 2.624 L 92.896 1.995 L 93.762 1.995 L 93.762 0.844 Z M 98.381 4.386 L 98.381 4.329 A 3.057 3.057 0 0 1 98.467 3.587 A 2.573 2.573 0 0 1 98.655 3.072 A 2.16 2.16 0 0 1 99.07 2.486 A 1.957 1.957 0 0 1 99.42 2.21 A 2.036 2.036 0 0 1 100.364 1.913 A 2.491 2.491 0 0 1 100.538 1.907 A 2.277 2.277 0 0 1 101.292 2.027 A 1.937 1.937 0 0 1 102.109 2.58 A 2.29 2.29 0 0 1 102.628 3.608 A 3.373 3.373 0 0 1 102.709 4.368 L 102.709 4.425 A 3.114 3.114 0 0 1 102.63 5.142 A 2.577 2.577 0 0 1 102.443 5.671 A 2.056 2.056 0 0 1 101.916 6.361 A 2.001 2.001 0 0 1 101.683 6.53 A 2.045 2.045 0 0 1 100.763 6.829 A 2.529 2.529 0 0 1 100.547 6.838 A 2.262 2.262 0 0 1 99.797 6.718 A 1.938 1.938 0 0 1 98.98 6.166 A 2.297 2.297 0 0 1 98.455 5.111 A 3.357 3.357 0 0 1 98.381 4.386 Z M 12.67 1.969 L 12.67 2.725 A 2.251 2.251 0 0 0 12.427 2.698 A 2.782 2.782 0 0 0 12.27 2.694 Q 11.492 2.694 11.2 3.338 A 1.445 1.445 0 0 0 11.184 3.375 L 11.184 6.75 L 10.371 6.75 L 10.371 1.995 L 11.162 1.995 L 11.175 2.544 Q 11.556 1.938 12.238 1.909 A 1.636 1.636 0 0 1 12.309 1.907 Q 12.547 1.907 12.67 1.969 Z M 88.005 1.969 L 88.005 2.725 A 2.251 2.251 0 0 0 87.762 2.698 A 2.782 2.782 0 0 0 87.605 2.694 Q 86.827 2.694 86.536 3.338 A 1.445 1.445 0 0 0 86.52 3.375 L 86.52 6.75 L 85.707 6.75 L 85.707 1.995 L 86.498 1.995 L 86.511 2.544 Q 86.891 1.938 87.574 1.909 A 1.636 1.636 0 0 1 87.645 1.907 Q 87.882 1.907 88.005 1.969 Z M 140.994 1.969 L 140.994 2.725 A 2.251 2.251 0 0 0 140.752 2.698 A 2.782 2.782 0 0 0 140.594 2.694 Q 139.817 2.694 139.525 3.338 A 1.445 1.445 0 0 0 139.509 3.375 L 139.509 6.75 L 138.696 6.75 L 138.696 1.995 L 139.487 1.995 L 139.5 2.544 Q 139.881 1.938 140.563 1.909 A 1.636 1.636 0 0 1 140.634 1.907 Q 140.871 1.907 140.994 1.969 Z M 129.854 1.046 L 128.87 1.046 L 128.87 6.06 L 129.757 6.06 A 2.519 2.519 0 0 0 130.39 5.985 A 1.747 1.747 0 0 0 131.276 5.454 Q 131.735 4.94 131.806 4.059 A 4.165 4.165 0 0 0 131.819 3.727 L 131.819 3.353 Q 131.819 2.562 131.549 2.027 A 1.864 1.864 0 0 0 131.307 1.659 A 1.687 1.687 0 0 0 130.311 1.09 A 2.499 2.499 0 0 0 129.854 1.046 Z M 73.912 3.819 L 73.912 3.344 A 4.551 4.551 0 0 0 73.867 2.685 Q 73.818 2.35 73.715 2.078 A 1.944 1.944 0 0 0 73.455 1.597 Q 72.998 0.989 72.176 0.989 Q 71.376 0.989 70.917 1.597 A 2.112 2.112 0 0 0 70.592 2.246 Q 70.504 2.527 70.469 2.864 A 4.531 4.531 0 0 0 70.444 3.287 L 70.444 3.757 A 4.254 4.254 0 0 0 70.494 4.43 Q 70.552 4.789 70.676 5.079 A 2.039 2.039 0 0 0 70.908 5.491 A 1.472 1.472 0 0 0 71.975 6.11 A 1.931 1.931 0 0 0 72.185 6.122 A 1.79 1.79 0 0 0 72.743 6.039 A 1.423 1.423 0 0 0 73.45 5.526 A 2.017 2.017 0 0 0 73.751 4.932 Q 73.904 4.462 73.912 3.819 Z M 18.738 1.995 L 18.738 6.75 L 17.925 6.75 L 17.925 1.995 L 18.738 1.995 Z M 97.295 1.995 L 97.295 6.75 L 96.482 6.75 L 96.482 1.995 L 97.295 1.995 Z M 99.198 4.425 A 2.772 2.772 0 0 0 99.245 4.954 Q 99.306 5.264 99.443 5.51 A 1.545 1.545 0 0 0 99.565 5.695 Q 99.932 6.174 100.547 6.174 A 1.269 1.269 0 0 0 101.036 6.083 Q 101.316 5.967 101.518 5.706 A 1.471 1.471 0 0 0 101.531 5.689 A 1.648 1.648 0 0 0 101.786 5.171 Q 101.855 4.945 101.881 4.672 A 3.655 3.655 0 0 0 101.896 4.329 A 2.687 2.687 0 0 0 101.845 3.789 Q 101.777 3.459 101.62 3.2 A 1.586 1.586 0 0 0 101.525 3.061 A 1.231 1.231 0 0 0 101.11 2.705 Q 100.857 2.575 100.538 2.575 Q 99.948 2.575 99.582 3.035 A 1.515 1.515 0 0 0 99.567 3.054 A 1.589 1.589 0 0 0 99.315 3.552 Q 99.245 3.772 99.217 4.039 A 3.676 3.676 0 0 0 99.198 4.425 Z M 76.702 3.252 L 76.702 5.524 Q 77.067 6.174 77.819 6.174 A 1.184 1.184 0 0 0 78.284 6.086 Q 78.541 5.977 78.73 5.735 A 1.403 1.403 0 0 0 78.748 5.711 A 1.501 1.501 0 0 0 78.965 5.28 Q 79.033 5.073 79.065 4.818 A 3.91 3.91 0 0 0 79.093 4.333 Q 79.093 3.746 78.91 3.339 A 1.503 1.503 0 0 0 78.75 3.063 A 1.086 1.086 0 0 0 77.964 2.605 A 1.414 1.414 0 0 0 77.81 2.597 Q 77.149 2.597 76.784 3.121 A 1.623 1.623 0 0 0 76.702 3.252 Z M 46.745 3.757 L 45.339 3.757 L 45.339 6.06 L 46.732 6.06 A 1.84 1.84 0 0 0 47.107 6.024 Q 47.347 5.974 47.531 5.854 A 1.064 1.064 0 0 0 47.661 5.755 A 1.003 1.003 0 0 0 47.983 5.154 A 1.459 1.459 0 0 0 48.002 4.913 Q 48.002 4.007 47.229 3.811 A 1.977 1.977 0 0 0 46.745 3.757 Z M 117.998 1.639 L 116.104 4.601 L 118.094 4.601 L 118.094 1.463 L 117.998 1.639 Z M 45.339 1.046 L 45.339 3.081 L 46.613 3.081 Q 47.167 3.081 47.498 2.804 A 0.905 0.905 0 0 0 47.826 2.154 A 1.27 1.27 0 0 0 47.83 2.052 Q 47.83 1.696 47.69 1.471 A 0.71 0.71 0 0 0 47.523 1.285 A 0.969 0.969 0 0 0 47.237 1.136 Q 46.974 1.047 46.592 1.046 A 3.261 3.261 0 0 0 46.587 1.046 L 45.339 1.046 Z M 123.75 5.005 A 1.375 1.375 0 0 0 123.691 4.592 A 1.109 1.109 0 0 0 123.41 4.131 A 1.148 1.148 0 0 0 122.738 3.807 A 1.593 1.593 0 0 0 122.52 3.792 A 1.466 1.466 0 0 0 122.131 3.841 A 1.086 1.086 0 0 0 121.639 4.126 A 1.123 1.123 0 0 0 121.325 4.762 A 1.572 1.572 0 0 0 121.307 5.005 A 1.48 1.48 0 0 0 121.349 5.367 A 1.019 1.019 0 0 0 121.63 5.862 Q 121.936 6.158 122.469 6.173 A 2.053 2.053 0 0 0 122.528 6.174 Q 123.022 6.174 123.332 5.94 A 1.018 1.018 0 0 0 123.425 5.86 A 1.041 1.041 0 0 0 123.724 5.292 A 1.518 1.518 0 0 0 123.75 5.005 Z M 122.528 0.932 A 1.259 1.259 0 0 0 122.176 0.979 A 0.973 0.973 0 0 0 121.753 1.228 Q 121.456 1.525 121.456 2.035 A 1.325 1.325 0 0 0 121.501 2.387 A 0.994 0.994 0 0 0 121.748 2.823 A 0.974 0.974 0 0 0 122.311 3.108 A 1.382 1.382 0 0 0 122.528 3.125 A 1.279 1.279 0 0 0 122.873 3.08 A 0.952 0.952 0 0 0 123.308 2.823 A 1.018 1.018 0 0 0 123.584 2.26 A 1.426 1.426 0 0 0 123.601 2.035 A 1.282 1.282 0 0 0 123.551 1.668 A 1.013 1.013 0 0 0 123.298 1.239 Q 122.994 0.932 122.528 0.932 Z M 52.778 5.418 L 52.778 4.443 L 52.141 4.443 Q 50.647 4.443 50.647 5.317 Q 50.647 5.7 50.902 5.915 A 0.893 0.893 0 0 0 51.315 6.108 A 1.259 1.259 0 0 0 51.557 6.13 A 1.429 1.429 0 0 0 52.282 5.933 A 1.335 1.335 0 0 0 52.577 5.705 A 1.108 1.108 0 0 0 52.778 5.418 Z M 91.384 5.418 L 91.384 4.443 L 90.747 4.443 Q 89.253 4.443 89.253 5.317 Q 89.253 5.7 89.508 5.915 A 0.893 0.893 0 0 0 89.921 6.108 A 1.259 1.259 0 0 0 90.163 6.13 A 1.429 1.429 0 0 0 90.888 5.933 A 1.335 1.335 0 0 0 91.183 5.705 A 1.108 1.108 0 0 0 91.384 5.418 Z M 136.609 5.418 L 136.609 4.443 L 135.971 4.443 Q 134.477 4.443 134.477 5.317 Q 134.477 5.7 134.732 5.915 A 0.893 0.893 0 0 0 135.146 6.108 A 1.259 1.259 0 0 0 135.387 6.13 A 1.429 1.429 0 0 0 136.112 5.933 A 1.335 1.335 0 0 0 136.407 5.705 A 1.108 1.108 0 0 0 136.609 5.418 Z M 6.236 3.938 L 8.618 3.938 L 8.618 3.876 Q 8.592 3.417 8.421 3.111 A 1.13 1.13 0 0 0 8.284 2.916 A 0.983 0.983 0 0 0 7.629 2.584 A 1.39 1.39 0 0 0 7.475 2.575 A 1.106 1.106 0 0 0 6.953 2.698 A 1.14 1.14 0 0 0 6.649 2.933 A 1.417 1.417 0 0 0 6.372 3.379 Q 6.299 3.563 6.259 3.785 A 2.741 2.741 0 0 0 6.236 3.938 Z M 25.383 3.938 L 27.765 3.938 L 27.765 3.876 Q 27.739 3.417 27.568 3.111 A 1.13 1.13 0 0 0 27.431 2.916 A 0.983 0.983 0 0 0 26.776 2.584 A 1.39 1.39 0 0 0 26.622 2.575 A 1.106 1.106 0 0 0 26.1 2.698 A 1.14 1.14 0 0 0 25.796 2.933 A 1.417 1.417 0 0 0 25.519 3.379 Q 25.446 3.563 25.406 3.785 A 2.741 2.741 0 0 0 25.383 3.938 Z M 81.571 3.938 L 83.953 3.938 L 83.953 3.876 Q 83.927 3.417 83.757 3.111 A 1.13 1.13 0 0 0 83.619 2.916 A 0.983 0.983 0 0 0 82.965 2.584 A 1.39 1.39 0 0 0 82.811 2.575 A 1.106 1.106 0 0 0 82.288 2.698 A 1.14 1.14 0 0 0 81.985 2.933 A 1.417 1.417 0 0 0 81.708 3.379 Q 81.634 3.563 81.594 3.785 A 2.741 2.741 0 0 0 81.571 3.938 Z M 17.86 0.734 Q 17.86 0.536 17.98 0.4 Q 18.092 0.274 18.304 0.264 A 0.783 0.783 0 0 1 18.339 0.264 Q 18.576 0.264 18.699 0.4 A 0.474 0.474 0 0 1 18.821 0.703 A 0.614 0.614 0 0 1 18.822 0.734 A 0.523 0.523 0 0 1 18.797 0.9 A 0.442 0.442 0 0 1 18.699 1.063 Q 18.586 1.184 18.378 1.194 A 0.803 0.803 0 0 1 18.339 1.195 Q 18.166 1.195 18.055 1.126 A 0.362 0.362 0 0 1 17.98 1.063 A 0.456 0.456 0 0 1 17.862 0.788 A 0.605 0.605 0 0 1 17.86 0.734 Z M 96.416 0.734 Q 96.416 0.536 96.537 0.4 Q 96.649 0.274 96.861 0.264 A 0.783 0.783 0 0 1 96.895 0.264 Q 97.132 0.264 97.256 0.4 A 0.474 0.474 0 0 1 97.378 0.703 A 0.614 0.614 0 0 1 97.379 0.734 A 0.523 0.523 0 0 1 97.353 0.9 A 0.442 0.442 0 0 1 97.256 1.063 Q 97.143 1.184 96.935 1.194 A 0.803 0.803 0 0 1 96.895 1.195 Q 96.723 1.195 96.612 1.126 A 0.362 0.362 0 0 1 96.537 1.063 A 0.456 0.456 0 0 1 96.419 0.788 A 0.605 0.605 0 0 1 96.416 0.734 Z" vector-effect="non-scaling-stroke"/></g>
</svgversion="1.0" encoding="UTF-8"?>
<svg width="48px" height="48px" viewBox="0 0 48 48" version="1.1" xmlns="http://www.w3.org/2000/svg" xmlns:xlink="http://www.w3.org/1999/xlink">
    <title>Icon-Resource/Storage/Res_Amazon-Simple-Storage-Service_S3-Batch-Operations_48_Dark</title>
    <g id="Icon-Resource/Storage/Res_Amazon-Simple-Storage-Service_S3-Batch-Operations_48" stroke="none" stroke-width="1" fill="none" fill-rule="evenodd">
        <path transform="translate(0vw, 0vh), scale(.65)" d="M9.584,39.43 L13.421,35.593 L14.835,37.007 L10.302,41.54 C10.106,41.736 9.851,41.833 9.595,41.833 C9.344,41.833 9.093,41.74 8.898,41.552 L6.834,39.552 L8.227,38.115 L9.584,39.43 Z M14.835,27.34 L10.302,31.873 C10.106,32.069 9.851,32.166 9.595,32.166 C9.344,32.166 9.093,32.073 8.898,31.885 L6.834,29.885 L8.227,28.448 L9.584,29.763 L13.421,25.926 L14.835,27.34 Z M14.835,17.674 L10.302,22.207 C10.106,22.402 9.851,22.5 9.595,22.5 C9.344,22.5 9.093,22.406 8.898,22.218 L6.834,20.218 L8.227,18.782 L9.584,20.097 L13.421,16.26 L14.835,17.674 Z M14.835,8.007 L10.302,12.54 C10.106,12.736 9.851,12.833 9.595,12.833 C9.344,12.833 9.093,12.74 8.898,12.552 L6.834,10.552 L8.227,9.115 L9.584,10.43 L13.421,6.593 L14.835,8.007 Z M34,37 L36,37 L36,45 C36,45.552 35.553,46 35,46 L3,46 C2.447,46 2,45.552 2,45 L2,3 C2,2.448 2.447,2 3,2 L35,2 C35.553,2 36,2.448 36,3 L36,14 L34,14 L34,4 L4,4 L4,44 L34,44 L34,37 Z M25,26 L24,26 L24,24 L25,24 L25,20 L27,20 L27,24 L28,24 L28,26 L27,26 L27,31 L25,31 L25,26 Z M32,29 L31,29 L31,27 L32,27 L32,20 L34,20 L34,27 L35,27 L35,29 L34,29 L34,31 L32,31 L32,29 Z M39,24 L38,24 L38,22 L39,22 L39,20 L41,20 L41,22 L42,22 L42,24 L41,24 L41,31 L39,31 L39,24 Z M22,33 L44,33 L44,18 L22,18 L22,33 Z M45,16 L21,16 C20.447,16 20,16.448 20,17 L20,34 C20,34.552 20.447,35 21,35 L45,35 C45.553,35 46,34.552 46,34 L46,17 C46,16.448 45.553,16 45,16 L45,16 Z" id="Fill-1" fill="#000000"></path>
    </g><g transform="translate(12vw, 80vh)" id="svgGroup" stroke-linecap="round" fill-rule="evenodd" font-size="9pt" stroke="#000" stroke-width="0.25mm" fill="#000" style="stroke:#000;stroke-width:0.25mm;fill:#000"><path d="M 7.783 1.995 L 8.552 1.995 L 8.574 2.522 Q 9.097 1.907 9.985 1.907 A 2.009 2.009 0 0 1 10.495 1.968 A 1.244 1.244 0 0 1 11.342 2.672 A 1.801 1.801 0 0 1 11.96 2.118 A 1.65 1.65 0 0 1 12.489 1.937 A 2.209 2.209 0 0 1 12.859 1.907 A 2.119 2.119 0 0 1 13.503 1.997 Q 14.429 2.292 14.449 3.564 L 14.449 6.75 L 13.636 6.75 L 13.636 3.612 A 1.781 1.781 0 0 0 13.616 3.332 Q 13.592 3.185 13.542 3.067 A 0.758 0.758 0 0 0 13.403 2.85 A 0.68 0.68 0 0 0 13.151 2.682 Q 12.939 2.597 12.622 2.597 A 1.245 1.245 0 0 0 12.256 2.648 A 1.008 1.008 0 0 0 11.87 2.867 A 1.042 1.042 0 0 0 11.556 3.404 A 1.41 1.41 0 0 0 11.523 3.595 L 11.523 6.75 L 10.705 6.75 L 10.705 3.634 A 1.532 1.532 0 0 0 10.657 3.23 Q 10.53 2.768 10.073 2.643 A 1.457 1.457 0 0 0 9.69 2.597 Q 8.916 2.597 8.616 3.234 A 1.459 1.459 0 0 0 8.596 3.278 L 8.596 6.75 L 7.783 6.75 L 7.783 1.995 Z M 4.636 2.202 L 3.788 2.202 A 1.466 1.466 0 0 0 3.738 1.809 A 1.066 1.066 0 0 0 3.419 1.29 A 1.211 1.211 0 0 0 2.95 1.033 Q 2.698 0.958 2.378 0.958 A 2.286 2.286 0 0 0 1.998 0.988 Q 1.796 1.022 1.633 1.095 A 1.101 1.101 0 0 0 1.404 1.233 A 0.892 0.892 0 0 0 1.059 1.887 A 1.267 1.267 0 0 0 1.055 1.995 A 0.806 0.806 0 0 0 1.323 2.6 A 1.134 1.134 0 0 0 1.387 2.656 A 1.562 1.562 0 0 0 1.625 2.813 Q 1.955 2.993 2.516 3.151 A 8.228 8.228 0 0 1 2.981 3.295 Q 3.216 3.377 3.41 3.464 A 3.297 3.297 0 0 1 3.764 3.645 A 2.342 2.342 0 0 1 4.103 3.889 Q 4.293 4.056 4.415 4.248 A 1.45 1.45 0 0 1 4.432 4.276 A 1.498 1.498 0 0 1 4.628 4.832 A 1.948 1.948 0 0 1 4.65 5.124 A 1.606 1.606 0 0 1 4.527 5.76 Q 4.382 6.101 4.064 6.354 A 1.886 1.886 0 0 1 4.043 6.37 Q 3.437 6.838 2.422 6.838 A 3.023 3.023 0 0 1 1.281 6.623 A 2.917 2.917 0 0 1 1.191 6.585 A 2.383 2.383 0 0 1 0.713 6.307 A 1.874 1.874 0 0 1 0.31 5.893 A 1.689 1.689 0 0 1 0 4.896 L 0.848 4.896 A 1.261 1.261 0 0 0 0.918 5.323 A 1.074 1.074 0 0 0 1.277 5.812 Q 1.661 6.113 2.278 6.144 A 2.87 2.87 0 0 0 2.422 6.148 A 2.628 2.628 0 0 0 2.809 6.121 Q 3.005 6.092 3.164 6.031 A 1.129 1.129 0 0 0 3.445 5.875 Q 3.801 5.603 3.801 5.133 A 1.074 1.074 0 0 0 3.759 4.822 A 0.816 0.816 0 0 0 3.472 4.406 Q 3.142 4.148 2.277 3.898 Q 1.191 3.586 0.697 3.131 Q 0.202 2.676 0.202 2.008 Q 0.202 1.252 0.807 0.758 A 2.121 2.121 0 0 1 1.697 0.335 A 3.087 3.087 0 0 1 2.378 0.264 A 2.913 2.913 0 0 1 3.038 0.336 A 2.372 2.372 0 0 1 3.553 0.519 A 2.051 2.051 0 0 1 4.084 0.889 A 1.834 1.834 0 0 1 4.353 1.222 A 1.798 1.798 0 0 1 4.636 2.202 Z M 34.277 2.202 L 33.429 2.202 A 1.466 1.466 0 0 0 33.38 1.809 A 1.066 1.066 0 0 0 33.06 1.29 A 1.211 1.211 0 0 0 32.591 1.033 Q 32.339 0.958 32.019 0.958 A 2.286 2.286 0 0 0 31.639 0.988 Q 31.437 1.022 31.274 1.095 A 1.101 1.101 0 0 0 31.045 1.233 A 0.892 0.892 0 0 0 30.7 1.887 A 1.267 1.267 0 0 0 30.696 1.995 A 0.806 0.806 0 0 0 30.964 2.6 A 1.134 1.134 0 0 0 31.028 2.656 A 1.562 1.562 0 0 0 31.266 2.813 Q 31.596 2.993 32.157 3.151 A 8.228 8.228 0 0 1 32.622 3.295 Q 32.857 3.377 33.051 3.464 A 3.297 3.297 0 0 1 33.405 3.645 A 2.342 2.342 0 0 1 33.744 3.889 Q 33.934 4.056 34.056 4.248 A 1.45 1.45 0 0 1 34.073 4.276 A 1.498 1.498 0 0 1 34.269 4.832 A 1.948 1.948 0 0 1 34.291 5.124 A 1.606 1.606 0 0 1 34.168 5.76 Q 34.023 6.101 33.705 6.354 A 1.886 1.886 0 0 1 33.684 6.37 Q 33.078 6.838 32.063 6.838 A 3.023 3.023 0 0 1 30.922 6.623 A 2.917 2.917 0 0 1 30.832 6.585 A 2.383 2.383 0 0 1 30.354 6.307 A 1.874 1.874 0 0 1 29.951 5.893 A 1.689 1.689 0 0 1 29.641 4.896 L 30.489 4.896 A 1.261 1.261 0 0 0 30.559 5.323 A 1.074 1.074 0 0 0 30.918 5.812 Q 31.302 6.113 31.919 6.144 A 2.87 2.87 0 0 0 32.063 6.148 A 2.628 2.628 0 0 0 32.45 6.121 Q 32.646 6.092 32.805 6.031 A 1.129 1.129 0 0 0 33.087 5.875 Q 33.443 5.603 33.443 5.133 A 1.074 1.074 0 0 0 33.4 4.822 A 0.816 0.816 0 0 0 33.113 4.406 Q 32.783 4.148 31.918 3.898 Q 30.832 3.586 30.338 3.131 Q 29.843 2.676 29.843 2.008 Q 29.843 1.252 30.448 0.758 A 2.121 2.121 0 0 1 31.338 0.335 A 3.087 3.087 0 0 1 32.019 0.264 A 2.913 2.913 0 0 1 32.679 0.336 A 2.372 2.372 0 0 1 33.194 0.519 A 2.051 2.051 0 0 1 33.725 0.889 A 1.834 1.834 0 0 1 33.994 1.222 A 1.798 1.798 0 0 1 34.277 2.202 Z M 54.035 2.522 L 54.075 1.995 L 54.818 1.995 L 54.818 6.636 A 2.511 2.511 0 0 1 54.747 7.249 A 1.738 1.738 0 0 1 54.27 8.09 A 1.834 1.834 0 0 1 53.341 8.57 A 2.671 2.671 0 0 1 52.8 8.622 A 2.446 2.446 0 0 1 51.794 8.402 A 2.003 2.003 0 0 1 51.384 8.161 A 1.563 1.563 0 0 1 51.043 7.8 L 51.465 7.313 A 1.889 1.889 0 0 0 51.899 7.712 A 1.514 1.514 0 0 0 52.743 7.958 A 1.695 1.695 0 0 0 53.12 7.919 Q 53.389 7.858 53.583 7.702 A 1.037 1.037 0 0 0 53.668 7.625 A 1.09 1.09 0 0 0 53.945 7.132 Q 53.992 6.959 53.999 6.752 A 2.134 2.134 0 0 0 54 6.684 L 54 6.275 A 1.601 1.601 0 0 1 52.948 6.821 A 2.279 2.279 0 0 1 52.669 6.838 A 1.672 1.672 0 0 1 51.913 6.67 Q 51.591 6.51 51.342 6.197 A 2.14 2.14 0 0 1 51.317 6.166 A 2.316 2.316 0 0 1 50.934 5.386 Q 50.801 4.922 50.801 4.333 Q 50.801 3.472 51.109 2.884 A 2.096 2.096 0 0 1 51.315 2.564 Q 51.829 1.907 52.677 1.907 A 1.971 1.971 0 0 1 53.276 1.994 A 1.55 1.55 0 0 1 54.035 2.522 Z M 49.887 6.75 L 49.034 6.75 A 0.632 0.632 0 0 1 48.999 6.66 Q 48.968 6.562 48.943 6.41 A 3.997 3.997 0 0 1 48.92 6.249 Q 48.353 6.838 47.567 6.838 A 2.033 2.033 0 0 1 47.037 6.772 A 1.529 1.529 0 0 1 46.413 6.44 Q 45.963 6.042 45.963 5.432 Q 45.963 4.689 46.527 4.278 Q 47.092 3.867 48.116 3.867 L 48.907 3.867 L 48.907 3.494 A 1.152 1.152 0 0 0 48.871 3.199 A 0.828 0.828 0 0 0 48.652 2.815 Q 48.436 2.6 48.045 2.568 A 1.748 1.748 0 0 0 47.901 2.562 Q 47.465 2.562 47.171 2.782 Q 46.877 3.001 46.877 3.313 L 46.059 3.313 A 1.041 1.041 0 0 1 46.184 2.825 A 1.409 1.409 0 0 1 46.312 2.626 Q 46.565 2.294 46.997 2.101 A 2.249 2.249 0 0 1 47.773 1.913 A 2.669 2.669 0 0 1 47.949 1.907 A 2.65 2.65 0 0 1 48.466 1.955 Q 48.774 2.016 49.012 2.156 A 1.439 1.439 0 0 1 49.236 2.318 A 1.396 1.396 0 0 1 49.69 3.144 A 1.998 1.998 0 0 1 49.72 3.45 L 49.72 5.638 Q 49.72 6.073 49.794 6.39 A 1.707 1.707 0 0 0 49.887 6.68 L 49.887 6.75 Z M 19.692 4.351 L 19.692 4.425 Q 19.692 5.511 19.195 6.174 A 1.57 1.57 0 0 1 18.057 6.828 A 2.013 2.013 0 0 1 17.851 6.838 A 2.196 2.196 0 0 1 17.265 6.764 A 1.598 1.598 0 0 1 16.488 6.289 L 16.488 8.578 L 15.675 8.578 L 15.675 1.995 L 16.418 1.995 L 16.458 2.522 A 1.619 1.619 0 0 1 17.597 1.919 A 2.319 2.319 0 0 1 17.838 1.907 A 1.829 1.829 0 0 1 18.475 2.014 A 1.597 1.597 0 0 1 19.193 2.553 Q 19.692 3.199 19.692 4.351 Z M 22.702 4.504 L 22.702 4.355 A 3.17 3.17 0 0 1 22.779 3.646 A 2.581 2.581 0 0 1 22.973 3.092 A 2.191 2.191 0 0 1 23.42 2.466 A 2.033 2.033 0 0 1 23.728 2.221 Q 24.214 1.907 24.781 1.907 A 2.254 2.254 0 0 1 25.394 1.986 A 1.639 1.639 0 0 1 26.222 2.518 Q 26.736 3.129 26.736 4.267 L 26.736 4.605 L 23.515 4.605 A 2.111 2.111 0 0 0 23.586 5.114 A 1.516 1.516 0 0 0 23.926 5.741 A 1.282 1.282 0 0 0 24.86 6.173 A 1.652 1.652 0 0 0 24.926 6.174 A 1.763 1.763 0 0 0 25.254 6.145 Q 25.478 6.103 25.655 5.999 A 1.827 1.827 0 0 0 26.164 5.551 A 2.068 2.068 0 0 0 26.178 5.533 L 26.675 5.919 A 1.926 1.926 0 0 1 25.275 6.811 A 2.749 2.749 0 0 1 24.882 6.838 A 2.394 2.394 0 0 1 24.131 6.725 A 1.974 1.974 0 0 1 23.309 6.203 Q 22.702 5.568 22.702 4.504 Z M 55.837 4.504 L 55.837 4.355 A 3.17 3.17 0 0 1 55.913 3.646 A 2.581 2.581 0 0 1 56.107 3.092 A 2.191 2.191 0 0 1 56.555 2.466 A 2.033 2.033 0 0 1 56.863 2.221 Q 57.349 1.907 57.916 1.907 A 2.254 2.254 0 0 1 58.529 1.986 A 1.639 1.639 0 0 1 59.357 2.518 Q 59.871 3.129 59.871 4.267 L 59.871 4.605 L 56.65 4.605 A 2.111 2.111 0 0 0 56.721 5.114 A 1.516 1.516 0 0 0 57.061 5.741 A 1.282 1.282 0 0 0 57.995 6.173 A 1.652 1.652 0 0 0 58.061 6.174 A 1.763 1.763 0 0 0 58.389 6.145 Q 58.613 6.103 58.79 5.999 A 1.827 1.827 0 0 0 59.299 5.551 A 2.068 2.068 0 0 0 59.313 5.533 L 59.81 5.919 A 1.926 1.926 0 0 1 58.41 6.811 A 2.749 2.749 0 0 1 58.017 6.838 A 2.394 2.394 0 0 1 57.266 6.725 A 1.974 1.974 0 0 1 56.444 6.203 Q 55.837 5.568 55.837 4.504 Z M 35.534 0.844 L 36.347 0.844 L 36.347 1.995 L 37.235 1.995 L 37.235 2.624 L 36.347 2.624 L 36.347 5.572 Q 36.347 5.858 36.466 6.001 Q 36.585 6.144 36.87 6.144 A 1.046 1.046 0 0 0 36.968 6.138 Q 37.071 6.129 37.21 6.101 A 4.024 4.024 0 0 0 37.257 6.091 L 37.257 6.75 A 2.463 2.463 0 0 1 36.824 6.829 A 2.157 2.157 0 0 1 36.633 6.838 Q 36.186 6.838 35.919 6.616 A 0.856 0.856 0 0 1 35.811 6.508 Q 35.584 6.238 35.543 5.78 A 2.351 2.351 0 0 1 35.534 5.572 L 35.534 2.624 L 34.669 2.624 L 34.669 1.995 L 35.534 1.995 L 35.534 0.844 Z M 21.608 0 L 21.608 6.75 L 20.795 6.75 L 20.795 0 L 21.608 0 Z M 37.881 4.386 L 37.881 4.329 A 3.057 3.057 0 0 1 37.968 3.587 A 2.573 2.573 0 0 1 38.156 3.072 A 2.16 2.16 0 0 1 38.57 2.486 A 1.957 1.957 0 0 1 38.92 2.21 A 2.036 2.036 0 0 1 39.865 1.913 A 2.491 2.491 0 0 1 40.039 1.907 A 2.277 2.277 0 0 1 40.792 2.027 A 1.937 1.937 0 0 1 41.61 2.58 A 2.29 2.29 0 0 1 42.129 3.608 A 3.373 3.373 0 0 1 42.21 4.368 L 42.21 4.425 A 3.114 3.114 0 0 1 42.13 5.142 A 2.577 2.577 0 0 1 41.944 5.671 A 2.056 2.056 0 0 1 41.416 6.361 A 2.001 2.001 0 0 1 41.183 6.53 A 2.045 2.045 0 0 1 40.264 6.829 A 2.529 2.529 0 0 1 40.048 6.838 A 2.262 2.262 0 0 1 39.297 6.718 A 1.938 1.938 0 0 1 38.481 6.166 A 2.297 2.297 0 0 1 37.955 5.111 A 3.357 3.357 0 0 1 37.881 4.386 Z M 45.527 1.969 L 45.527 2.725 A 2.251 2.251 0 0 0 45.285 2.698 A 2.782 2.782 0 0 0 45.128 2.694 Q 44.35 2.694 44.058 3.338 A 1.445 1.445 0 0 0 44.042 3.375 L 44.042 6.75 L 43.229 6.75 L 43.229 1.995 L 44.02 1.995 L 44.033 2.544 Q 44.414 1.938 45.096 1.909 A 1.636 1.636 0 0 1 45.167 1.907 Q 45.404 1.907 45.527 1.969 Z M 6.486 1.995 L 6.486 6.75 L 5.673 6.75 L 5.673 1.995 L 6.486 1.995 Z M 38.698 4.425 A 2.772 2.772 0 0 0 38.746 4.954 Q 38.806 5.264 38.944 5.51 A 1.545 1.545 0 0 0 39.065 5.695 Q 39.432 6.174 40.048 6.174 A 1.269 1.269 0 0 0 40.537 6.083 Q 40.816 5.967 41.019 5.706 A 1.471 1.471 0 0 0 41.032 5.689 A 1.648 1.648 0 0 0 41.287 5.171 Q 41.355 4.945 41.381 4.672 A 3.655 3.655 0 0 0 41.397 4.329 A 2.687 2.687 0 0 0 41.345 3.789 Q 41.278 3.459 41.12 3.2 A 1.586 1.586 0 0 0 41.025 3.061 A 1.231 1.231 0 0 0 40.61 2.705 Q 40.357 2.575 40.039 2.575 Q 39.449 2.575 39.083 3.035 A 1.515 1.515 0 0 0 39.068 3.054 A 1.589 1.589 0 0 0 38.815 3.552 Q 38.746 3.772 38.718 4.039 A 3.676 3.676 0 0 0 38.698 4.425 Z M 16.488 3.252 L 16.488 5.524 Q 16.853 6.174 17.605 6.174 A 1.184 1.184 0 0 0 18.07 6.086 Q 18.327 5.977 18.516 5.735 A 1.403 1.403 0 0 0 18.534 5.711 A 1.501 1.501 0 0 0 18.751 5.28 Q 18.819 5.073 18.851 4.818 A 3.91 3.91 0 0 0 18.879 4.333 Q 18.879 3.746 18.696 3.339 A 1.503 1.503 0 0 0 18.536 3.063 A 1.086 1.086 0 0 0 17.75 2.605 A 1.414 1.414 0 0 0 17.596 2.597 Q 16.935 2.597 16.57 3.121 A 1.623 1.623 0 0 0 16.488 3.252 Z M 54 5.449 L 54 3.278 A 1.439 1.439 0 0 0 53.699 2.891 Q 53.396 2.62 52.955 2.599 A 1.578 1.578 0 0 0 52.88 2.597 Q 52.288 2.597 51.954 3.056 A 1.51 1.51 0 0 0 51.743 3.484 Q 51.677 3.689 51.646 3.939 A 3.955 3.955 0 0 0 51.618 4.425 Q 51.618 5.229 51.948 5.689 Q 52.277 6.148 52.871 6.148 A 1.32 1.32 0 0 0 53.38 6.054 Q 53.772 5.891 54 5.449 Z M 48.907 5.418 L 48.907 4.443 L 48.27 4.443 Q 46.776 4.443 46.776 5.317 Q 46.776 5.7 47.03 5.915 A 0.893 0.893 0 0 0 47.444 6.108 A 1.259 1.259 0 0 0 47.685 6.13 A 1.429 1.429 0 0 0 48.41 5.933 A 1.335 1.335 0 0 0 48.706 5.705 A 1.108 1.108 0 0 0 48.907 5.418 Z M 23.542 3.938 L 25.923 3.938 L 25.923 3.876 Q 25.897 3.417 25.727 3.111 A 1.13 1.13 0 0 0 25.59 2.916 A 0.983 0.983 0 0 0 24.935 2.584 A 1.39 1.39 0 0 0 24.781 2.575 A 1.106 1.106 0 0 0 24.258 2.698 A 1.14 1.14 0 0 0 23.955 2.933 A 1.417 1.417 0 0 0 23.678 3.379 Q 23.604 3.563 23.565 3.785 A 2.741 2.741 0 0 0 23.542 3.938 Z M 56.676 3.938 L 59.058 3.938 L 59.058 3.876 Q 59.032 3.417 58.862 3.111 A 1.13 1.13 0 0 0 58.724 2.916 A 0.983 0.983 0 0 0 58.07 2.584 A 1.39 1.39 0 0 0 57.916 2.575 A 1.106 1.106 0 0 0 57.393 2.698 A 1.14 1.14 0 0 0 57.09 2.933 A 1.417 1.417 0 0 0 56.813 3.379 Q 56.739 3.563 56.699 3.785 A 2.741 2.741 0 0 0 56.676 3.938 Z M 5.608 0.734 Q 5.608 0.536 5.728 0.4 Q 5.84 0.274 6.052 0.264 A 0.783 0.783 0 0 1 6.087 0.264 Q 6.324 0.264 6.447 0.4 A 0.474 0.474 0 0 1 6.569 0.703 A 0.614 0.614 0 0 1 6.57 0.734 A 0.523 0.523 0 0 1 6.545 0.9 A 0.442 0.442 0 0 1 6.447 1.063 Q 6.334 1.184 6.126 1.194 A 0.803 0.803 0 0 1 6.087 1.195 Q 5.914 1.195 5.803 1.126 A 0.362 0.362 0 0 1 5.728 1.063 A 0.456 0.456 0 0 1 5.61 0.788 A 0.605 0.605 0 0 1 5.608 0.734 Z" vector-effect="non-scaling-stroke"/></g><g transform="translate(12vw, 90vh)" id="svgGroup" stroke-linecap="round" fill-rule="evenodd" font-size="9pt" stroke="#000" stroke-width="0.25mm" fill="#000" style="stroke:#000;stroke-width:0.25mm;fill:#000"><path d="M 4.636 2.202 L 3.788 2.202 A 1.466 1.466 0 0 0 3.738 1.809 A 1.066 1.066 0 0 0 3.419 1.29 A 1.211 1.211 0 0 0 2.95 1.033 Q 2.698 0.958 2.378 0.958 A 2.286 2.286 0 0 0 1.998 0.988 Q 1.796 1.022 1.633 1.095 A 1.101 1.101 0 0 0 1.404 1.233 A 0.892 0.892 0 0 0 1.059 1.887 A 1.267 1.267 0 0 0 1.055 1.995 A 0.806 0.806 0 0 0 1.323 2.6 A 1.134 1.134 0 0 0 1.387 2.656 A 1.562 1.562 0 0 0 1.625 2.813 Q 1.955 2.993 2.516 3.151 A 8.228 8.228 0 0 1 2.981 3.295 Q 3.216 3.377 3.41 3.464 A 3.297 3.297 0 0 1 3.764 3.645 A 2.342 2.342 0 0 1 4.103 3.889 Q 4.293 4.056 4.415 4.248 A 1.45 1.45 0 0 1 4.432 4.276 A 1.498 1.498 0 0 1 4.628 4.832 A 1.948 1.948 0 0 1 4.65 5.124 A 1.606 1.606 0 0 1 4.527 5.76 Q 4.382 6.101 4.064 6.354 A 1.886 1.886 0 0 1 4.043 6.37 Q 3.437 6.838 2.422 6.838 A 3.023 3.023 0 0 1 1.281 6.623 A 2.917 2.917 0 0 1 1.191 6.585 A 2.383 2.383 0 0 1 0.713 6.307 A 1.874 1.874 0 0 1 0.31 5.893 A 1.689 1.689 0 0 1 0 4.896 L 0.848 4.896 A 1.261 1.261 0 0 0 0.918 5.323 A 1.074 1.074 0 0 0 1.277 5.812 Q 1.661 6.113 2.278 6.144 A 2.87 2.87 0 0 0 2.422 6.148 A 2.628 2.628 0 0 0 2.809 6.121 Q 3.005 6.092 3.164 6.031 A 1.129 1.129 0 0 0 3.445 5.875 Q 3.801 5.603 3.801 5.133 A 1.074 1.074 0 0 0 3.759 4.822 A 0.816 0.816 0 0 0 3.472 4.406 Q 3.142 4.148 2.277 3.898 Q 1.191 3.586 0.697 3.131 Q 0.202 2.676 0.202 2.008 Q 0.202 1.252 0.807 0.758 A 2.121 2.121 0 0 1 1.697 0.335 A 3.087 3.087 0 0 1 2.378 0.264 A 2.913 2.913 0 0 1 3.038 0.336 A 2.372 2.372 0 0 1 3.553 0.519 A 2.051 2.051 0 0 1 4.084 0.889 A 1.834 1.834 0 0 1 4.353 1.222 A 1.798 1.798 0 0 1 4.636 2.202 Z M 36.119 2.202 L 35.271 2.202 A 1.466 1.466 0 0 0 35.221 1.809 A 1.066 1.066 0 0 0 34.902 1.29 A 1.211 1.211 0 0 0 34.432 1.033 Q 34.18 0.958 33.86 0.958 A 2.286 2.286 0 0 0 33.48 0.988 Q 33.278 1.022 33.116 1.095 A 1.101 1.101 0 0 0 32.887 1.233 A 0.892 0.892 0 0 0 32.542 1.887 A 1.267 1.267 0 0 0 32.537 1.995 A 0.806 0.806 0 0 0 32.805 2.6 A 1.134 1.134 0 0 0 32.869 2.656 A 1.562 1.562 0 0 0 33.107 2.813 Q 33.438 2.993 33.998 3.151 A 8.228 8.228 0 0 1 34.463 3.295 Q 34.698 3.377 34.893 3.464 A 3.297 3.297 0 0 1 35.246 3.645 A 2.342 2.342 0 0 1 35.585 3.889 Q 35.775 4.056 35.897 4.248 A 1.45 1.45 0 0 1 35.914 4.276 A 1.498 1.498 0 0 1 36.111 4.832 A 1.948 1.948 0 0 1 36.132 5.124 A 1.606 1.606 0 0 1 36.01 5.76 Q 35.864 6.101 35.546 6.354 A 1.886 1.886 0 0 1 35.526 6.37 Q 34.919 6.838 33.904 6.838 A 3.023 3.023 0 0 1 32.763 6.623 A 2.917 2.917 0 0 1 32.673 6.585 A 2.383 2.383 0 0 1 32.195 6.307 A 1.874 1.874 0 0 1 31.792 5.893 A 1.689 1.689 0 0 1 31.483 4.896 L 32.331 4.896 A 1.261 1.261 0 0 0 32.4 5.323 A 1.074 1.074 0 0 0 32.759 5.812 Q 33.144 6.113 33.76 6.144 A 2.87 2.87 0 0 0 33.904 6.148 A 2.628 2.628 0 0 0 34.291 6.121 Q 34.487 6.092 34.646 6.031 A 1.129 1.129 0 0 0 34.928 5.875 Q 35.284 5.603 35.284 5.133 A 1.074 1.074 0 0 0 35.241 4.822 A 0.816 0.816 0 0 0 34.954 4.406 Q 34.625 4.148 33.759 3.898 Q 32.673 3.586 32.179 3.131 Q 31.685 2.676 31.685 2.008 Q 31.685 1.252 32.289 0.758 A 2.121 2.121 0 0 1 33.179 0.335 A 3.087 3.087 0 0 1 33.86 0.264 A 2.913 2.913 0 0 1 34.52 0.336 A 2.372 2.372 0 0 1 35.036 0.519 A 2.051 2.051 0 0 1 35.567 0.889 A 1.834 1.834 0 0 1 35.835 1.222 A 1.798 1.798 0 0 1 36.119 2.202 Z M 38.184 3.819 L 38.184 3.155 L 38.795 3.155 Q 39.253 3.148 39.555 2.961 A 1.045 1.045 0 0 0 39.7 2.852 A 0.97 0.97 0 0 0 40.02 2.225 A 1.373 1.373 0 0 0 40.03 2.057 A 1.626 1.626 0 0 0 39.974 1.611 Q 39.832 1.112 39.324 0.98 A 1.645 1.645 0 0 0 38.909 0.932 A 1.495 1.495 0 0 0 38.547 0.973 A 1.044 1.044 0 0 0 38.068 1.233 A 1.004 1.004 0 0 0 37.766 1.844 A 1.405 1.405 0 0 0 37.754 2.03 L 36.941 2.03 A 1.698 1.698 0 0 1 37.095 1.3 A 1.68 1.68 0 0 1 37.496 0.767 A 1.924 1.924 0 0 1 38.549 0.288 A 2.615 2.615 0 0 1 38.909 0.264 A 2.758 2.758 0 0 1 39.485 0.32 Q 39.853 0.399 40.132 0.586 A 1.593 1.593 0 0 1 40.329 0.743 A 1.57 1.57 0 0 1 40.795 1.589 A 2.336 2.336 0 0 1 40.843 2.074 A 1.332 1.332 0 0 1 40.691 2.686 A 1.725 1.725 0 0 1 40.573 2.883 A 1.624 1.624 0 0 1 39.873 3.452 A 1.952 1.952 0 0 1 39.837 3.467 A 1.81 1.81 0 0 1 40.272 3.668 A 1.44 1.44 0 0 1 40.652 4.021 Q 40.94 4.408 40.94 4.966 Q 40.94 5.827 40.377 6.333 A 1.935 1.935 0 0 1 39.42 6.793 A 2.738 2.738 0 0 1 38.914 6.838 A 2.716 2.716 0 0 1 38.267 6.765 A 1.936 1.936 0 0 1 37.448 6.35 Q 36.883 5.862 36.883 5.063 L 37.701 5.063 A 1.255 1.255 0 0 0 37.751 5.426 A 0.978 0.978 0 0 0 38.03 5.871 A 1.113 1.113 0 0 0 38.545 6.135 A 1.643 1.643 0 0 0 38.914 6.174 Q 39.503 6.174 39.815 5.867 Q 40.102 5.583 40.125 5.073 A 2.011 2.011 0 0 0 40.127 4.983 A 1.451 1.451 0 0 0 40.087 4.634 A 0.962 0.962 0 0 0 39.784 4.126 A 1.13 1.13 0 0 0 39.396 3.91 Q 39.138 3.824 38.795 3.819 L 38.184 3.819 Z M 63.33 0 L 63.33 2.571 A 1.767 1.767 0 0 1 63.996 2.053 A 1.832 1.832 0 0 1 64.736 1.907 A 1.905 1.905 0 0 1 65.369 2.004 Q 66.211 2.3 66.254 3.506 A 3.668 3.668 0 0 1 66.256 3.608 L 66.256 6.75 L 65.444 6.75 L 65.444 3.604 A 1.837 1.837 0 0 0 65.421 3.324 Q 65.371 3.017 65.208 2.843 Q 65.022 2.645 64.669 2.606 A 1.66 1.66 0 0 0 64.49 2.597 A 1.253 1.253 0 0 0 64.076 2.664 A 1.123 1.123 0 0 0 63.796 2.808 A 1.432 1.432 0 0 0 63.33 3.362 L 63.33 6.75 L 62.517 6.75 L 62.517 0 L 63.33 0 Z M 144.725 6.75 L 143.069 4.548 L 142.559 5.08 L 142.559 6.75 L 141.746 6.75 L 141.746 0 L 142.559 0 L 142.559 4.083 L 142.994 3.56 L 144.475 1.995 L 145.464 1.995 L 143.613 3.981 L 145.679 6.75 L 144.725 6.75 Z M 112.232 3.393 L 111.415 3.393 Q 111.415 3.059 111.131 2.817 Q 110.848 2.575 110.417 2.575 Q 109.973 2.575 109.723 2.769 A 0.653 0.653 0 0 0 109.548 2.967 Q 109.475 3.098 109.472 3.263 A 0.771 0.771 0 0 0 109.472 3.274 A 0.588 0.588 0 0 0 109.502 3.467 A 0.48 0.48 0 0 0 109.705 3.718 A 1.093 1.093 0 0 0 109.855 3.796 Q 110.02 3.868 110.275 3.937 A 6.581 6.581 0 0 0 110.547 4.003 A 6.318 6.318 0 0 1 110.954 4.108 Q 111.291 4.208 111.533 4.329 A 1.901 1.901 0 0 1 111.789 4.481 Q 111.926 4.579 112.023 4.692 A 1.06 1.06 0 0 1 112.094 4.783 A 1.024 1.024 0 0 1 112.256 5.191 A 1.388 1.388 0 0 1 112.276 5.432 Q 112.276 6.069 111.766 6.453 Q 111.284 6.817 110.53 6.837 A 3.337 3.337 0 0 1 110.444 6.838 A 2.746 2.746 0 0 1 109.909 6.788 A 2.124 2.124 0 0 1 109.433 6.636 A 1.771 1.771 0 0 1 108.999 6.358 A 1.54 1.54 0 0 1 108.745 6.071 Q 108.497 5.708 108.497 5.287 L 109.31 5.287 A 0.932 0.932 0 0 0 109.383 5.612 A 0.827 0.827 0 0 0 109.637 5.935 A 1.072 1.072 0 0 0 110.039 6.128 Q 110.194 6.167 110.375 6.173 A 2.013 2.013 0 0 0 110.444 6.174 A 1.863 1.863 0 0 0 110.739 6.152 Q 110.901 6.126 111.032 6.07 A 0.941 0.941 0 0 0 111.184 5.988 A 0.689 0.689 0 0 0 111.349 5.837 A 0.554 0.554 0 0 0 111.463 5.489 A 0.698 0.698 0 0 0 111.427 5.258 A 0.581 0.581 0 0 0 111.215 4.977 A 1.05 1.05 0 0 0 111.046 4.878 Q 110.857 4.788 110.562 4.712 A 5.392 5.392 0 0 0 110.349 4.663 A 6.342 6.342 0 0 1 109.988 4.575 Q 109.618 4.473 109.369 4.346 Q 109.07 4.194 108.9 3.994 A 1.017 1.017 0 0 1 108.833 3.907 Q 108.659 3.652 108.659 3.3 A 1.206 1.206 0 0 1 109.058 2.396 A 1.694 1.694 0 0 1 109.154 2.312 A 1.752 1.752 0 0 1 109.937 1.952 A 2.471 2.471 0 0 1 110.417 1.907 A 2.559 2.559 0 0 1 110.981 1.966 A 1.757 1.757 0 0 1 111.729 2.325 Q 112.232 2.742 112.232 3.393 Z M 103.729 1.995 L 104.498 1.995 L 104.524 2.593 Q 105.06 1.918 105.92 1.907 A 2.234 2.234 0 0 1 105.948 1.907 A 1.905 1.905 0 0 1 106.581 2.004 Q 107.423 2.3 107.466 3.506 A 3.668 3.668 0 0 1 107.468 3.608 L 107.468 6.75 L 106.655 6.75 L 106.655 3.604 A 1.837 1.837 0 0 0 106.633 3.324 Q 106.583 3.017 106.42 2.843 Q 106.234 2.645 105.881 2.606 A 1.66 1.66 0 0 0 105.702 2.597 A 1.253 1.253 0 0 0 105.287 2.664 A 1.123 1.123 0 0 0 105.007 2.808 A 1.432 1.432 0 0 0 104.542 3.362 L 104.542 6.75 L 103.729 6.75 L 103.729 1.995 Z M 23.067 5.251 L 23.836 5.251 A 1.432 1.432 0 0 1 23.637 5.901 A 1.772 1.772 0 0 1 23.555 6.029 A 1.828 1.828 0 0 1 22.946 6.574 A 2.169 2.169 0 0 1 22.863 6.618 A 1.997 1.997 0 0 1 21.946 6.838 A 2.346 2.346 0 0 1 21.249 6.739 A 1.839 1.839 0 0 1 20.402 6.19 A 2.171 2.171 0 0 1 19.938 5.31 Q 19.828 4.909 19.828 4.417 L 19.828 4.28 A 3.24 3.24 0 0 1 19.892 3.624 A 2.57 2.57 0 0 1 20.083 3.045 A 2.008 2.008 0 0 1 20.523 2.431 A 1.892 1.892 0 0 1 20.815 2.206 A 1.943 1.943 0 0 1 21.571 1.934 A 2.529 2.529 0 0 1 21.942 1.907 A 2.196 2.196 0 0 1 22.59 1.999 A 1.786 1.786 0 0 1 23.271 2.386 A 1.693 1.693 0 0 1 23.83 3.535 A 2.239 2.239 0 0 1 23.836 3.63 L 23.067 3.63 Q 23.032 3.168 22.718 2.872 A 1.078 1.078 0 0 0 21.989 2.576 A 1.402 1.402 0 0 0 21.942 2.575 A 1.374 1.374 0 0 0 21.521 2.637 A 1.081 1.081 0 0 0 20.982 3.021 A 1.469 1.469 0 0 0 20.755 3.468 Q 20.689 3.674 20.662 3.923 A 3.514 3.514 0 0 0 20.641 4.311 L 20.641 4.465 Q 20.641 5.287 20.98 5.73 A 1.1 1.1 0 0 0 21.766 6.165 A 1.611 1.611 0 0 0 21.946 6.174 A 1.171 1.171 0 0 0 22.707 5.911 A 1.007 1.007 0 0 0 22.951 5.629 A 0.914 0.914 0 0 0 23.067 5.251 Z M 60.834 5.251 L 61.603 5.251 A 1.432 1.432 0 0 1 61.404 5.901 A 1.772 1.772 0 0 1 61.321 6.029 A 1.828 1.828 0 0 1 60.712 6.574 A 2.169 2.169 0 0 1 60.629 6.618 A 1.997 1.997 0 0 1 59.713 6.838 A 2.346 2.346 0 0 1 59.016 6.739 A 1.839 1.839 0 0 1 58.168 6.19 A 2.171 2.171 0 0 1 57.705 5.31 Q 57.595 4.909 57.595 4.417 L 57.595 4.28 A 3.24 3.24 0 0 1 57.659 3.624 A 2.57 2.57 0 0 1 57.85 3.045 A 2.008 2.008 0 0 1 58.289 2.431 A 1.892 1.892 0 0 1 58.581 2.206 A 1.943 1.943 0 0 1 59.338 1.934 A 2.529 2.529 0 0 1 59.709 1.907 A 2.196 2.196 0 0 1 60.357 1.999 A 1.786 1.786 0 0 1 61.038 2.386 A 1.693 1.693 0 0 1 61.596 3.535 A 2.239 2.239 0 0 1 61.603 3.63 L 60.834 3.63 Q 60.798 3.168 60.484 2.872 A 1.078 1.078 0 0 0 59.755 2.576 A 1.402 1.402 0 0 0 59.709 2.575 A 1.374 1.374 0 0 0 59.287 2.637 A 1.081 1.081 0 0 0 58.748 3.021 A 1.469 1.469 0 0 0 58.522 3.468 Q 58.456 3.674 58.428 3.923 A 3.514 3.514 0 0 0 58.408 4.311 L 58.408 4.465 Q 58.408 5.287 58.746 5.73 A 1.1 1.1 0 0 0 59.533 6.165 A 1.611 1.611 0 0 0 59.713 6.174 A 1.171 1.171 0 0 0 60.473 5.911 A 1.007 1.007 0 0 0 60.717 5.629 A 0.914 0.914 0 0 0 60.834 5.251 Z M 53.758 6.75 L 52.906 6.75 A 0.632 0.632 0 0 1 52.87 6.66 Q 52.839 6.562 52.814 6.41 A 3.997 3.997 0 0 1 52.792 6.249 Q 52.225 6.838 51.438 6.838 A 2.033 2.033 0 0 1 50.909 6.772 A 1.529 1.529 0 0 1 50.285 6.44 Q 49.834 6.042 49.834 5.432 Q 49.834 4.689 50.399 4.278 Q 50.964 3.867 51.987 3.867 L 52.778 3.867 L 52.778 3.494 A 1.152 1.152 0 0 0 52.743 3.199 A 0.828 0.828 0 0 0 52.524 2.815 Q 52.307 2.6 51.917 2.568 A 1.748 1.748 0 0 0 51.772 2.562 Q 51.337 2.562 51.043 2.782 Q 50.748 3.001 50.748 3.313 L 49.931 3.313 A 1.041 1.041 0 0 1 50.056 2.825 A 1.409 1.409 0 0 1 50.183 2.626 Q 50.436 2.294 50.869 2.101 A 2.249 2.249 0 0 1 51.645 1.913 A 2.669 2.669 0 0 1 51.82 1.907 A 2.65 2.65 0 0 1 52.338 1.955 Q 52.645 2.016 52.884 2.156 A 1.439 1.439 0 0 1 53.108 2.318 A 1.396 1.396 0 0 1 53.561 3.144 A 1.998 1.998 0 0 1 53.591 3.45 L 53.591 5.638 Q 53.591 6.073 53.665 6.39 A 1.707 1.707 0 0 0 53.758 6.68 L 53.758 6.75 Z M 92.364 6.75 L 91.512 6.75 A 0.632 0.632 0 0 1 91.476 6.66 Q 91.445 6.562 91.42 6.41 A 3.997 3.997 0 0 1 91.398 6.249 Q 90.831 6.838 90.044 6.838 A 2.033 2.033 0 0 1 89.515 6.772 A 1.529 1.529 0 0 1 88.891 6.44 Q 88.44 6.042 88.44 5.432 Q 88.44 4.689 89.005 4.278 Q 89.569 3.867 90.593 3.867 L 91.384 3.867 L 91.384 3.494 A 1.152 1.152 0 0 0 91.349 3.199 A 0.828 0.828 0 0 0 91.13 2.815 Q 90.913 2.6 90.523 2.568 A 1.748 1.748 0 0 0 90.378 2.562 Q 89.943 2.562 89.649 2.782 Q 89.354 3.001 89.354 3.313 L 88.537 3.313 A 1.041 1.041 0 0 1 88.662 2.825 A 1.409 1.409 0 0 1 88.789 2.626 Q 89.042 2.294 89.475 2.101 A 2.249 2.249 0 0 1 90.251 1.913 A 2.669 2.669 0 0 1 90.426 1.907 A 2.65 2.65 0 0 1 90.944 1.955 Q 91.251 2.016 91.49 2.156 A 1.439 1.439 0 0 1 91.714 2.318 A 1.396 1.396 0 0 1 92.167 3.144 A 1.998 1.998 0 0 1 92.197 3.45 L 92.197 5.638 Q 92.197 6.073 92.271 6.39 A 1.707 1.707 0 0 0 92.364 6.68 L 92.364 6.75 Z M 137.589 6.75 L 136.736 6.75 A 0.632 0.632 0 0 1 136.7 6.66 Q 136.669 6.562 136.644 6.41 A 3.997 3.997 0 0 1 136.622 6.249 Q 136.055 6.838 135.268 6.838 A 2.033 2.033 0 0 1 134.739 6.772 A 1.529 1.529 0 0 1 134.115 6.44 Q 133.664 6.042 133.664 5.432 Q 133.664 4.689 134.229 4.278 Q 134.794 3.867 135.818 3.867 L 136.609 3.867 L 136.609 3.494 A 1.152 1.152 0 0 0 136.573 3.199 A 0.828 0.828 0 0 0 136.354 2.815 Q 136.137 2.6 135.747 2.568 A 1.748 1.748 0 0 0 135.602 2.562 Q 135.167 2.562 134.873 2.782 Q 134.578 3.001 134.578 3.313 L 133.761 3.313 A 1.041 1.041 0 0 1 133.886 2.825 A 1.409 1.409 0 0 1 134.014 2.626 Q 134.266 2.294 134.699 2.101 A 2.249 2.249 0 0 1 135.475 1.913 A 2.669 2.669 0 0 1 135.651 1.907 A 2.65 2.65 0 0 1 136.168 1.955 Q 136.475 2.016 136.714 2.156 A 1.439 1.439 0 0 1 136.938 2.318 A 1.396 1.396 0 0 1 137.391 3.144 A 1.998 1.998 0 0 1 137.422 3.45 L 137.422 5.638 Q 137.422 6.073 137.495 6.39 A 1.707 1.707 0 0 0 137.589 6.68 L 137.589 6.75 Z M 79.906 4.351 L 79.906 4.425 Q 79.906 5.511 79.409 6.174 A 1.57 1.57 0 0 1 78.271 6.828 A 2.013 2.013 0 0 1 78.065 6.838 A 2.196 2.196 0 0 1 77.479 6.764 A 1.598 1.598 0 0 1 76.702 6.289 L 76.702 8.578 L 75.889 8.578 L 75.889 1.995 L 76.632 1.995 L 76.672 2.522 A 1.619 1.619 0 0 1 77.811 1.919 A 2.319 2.319 0 0 1 78.051 1.907 A 1.829 1.829 0 0 1 78.689 2.014 A 1.597 1.597 0 0 1 79.407 2.553 Q 79.906 3.199 79.906 4.351 Z M 5.397 4.504 L 5.397 4.355 A 3.17 3.17 0 0 1 5.473 3.646 A 2.581 2.581 0 0 1 5.667 3.092 A 2.191 2.191 0 0 1 6.114 2.466 A 2.033 2.033 0 0 1 6.423 2.221 Q 6.908 1.907 7.475 1.907 A 2.254 2.254 0 0 1 8.088 1.986 A 1.639 1.639 0 0 1 8.917 2.518 Q 9.431 3.129 9.431 4.267 L 9.431 4.605 L 6.21 4.605 A 2.111 2.111 0 0 0 6.281 5.114 A 1.516 1.516 0 0 0 6.621 5.741 A 1.282 1.282 0 0 0 7.555 6.173 A 1.652 1.652 0 0 0 7.62 6.174 A 1.763 1.763 0 0 0 7.948 6.145 Q 8.172 6.103 8.35 5.999 A 1.827 1.827 0 0 0 8.859 5.551 A 2.068 2.068 0 0 0 8.873 5.533 L 9.369 5.919 A 1.926 1.926 0 0 1 7.97 6.811 A 2.749 2.749 0 0 1 7.576 6.838 A 2.394 2.394 0 0 1 6.825 6.725 A 1.974 1.974 0 0 1 6.003 6.203 Q 5.397 5.568 5.397 4.504 Z M 24.544 4.504 L 24.544 4.355 A 3.17 3.17 0 0 1 24.62 3.646 A 2.581 2.581 0 0 1 24.814 3.092 A 2.191 2.191 0 0 1 25.261 2.466 A 2.033 2.033 0 0 1 25.57 2.221 Q 26.055 1.907 26.622 1.907 A 2.254 2.254 0 0 1 27.235 1.986 A 1.639 1.639 0 0 1 28.064 2.518 Q 28.578 3.129 28.578 4.267 L 28.578 4.605 L 25.357 4.605 A 2.111 2.111 0 0 0 25.428 5.114 A 1.516 1.516 0 0 0 25.767 5.741 A 1.282 1.282 0 0 0 26.702 6.173 A 1.652 1.652 0 0 0 26.767 6.174 A 1.763 1.763 0 0 0 27.095 6.145 Q 27.319 6.103 27.497 5.999 A 1.827 1.827 0 0 0 28.006 5.551 A 2.068 2.068 0 0 0 28.02 5.533 L 28.516 5.919 A 1.926 1.926 0 0 1 27.117 6.811 A 2.749 2.749 0 0 1 26.723 6.838 A 2.394 2.394 0 0 1 25.972 6.725 A 1.974 1.974 0 0 1 25.15 6.203 Q 24.544 5.568 24.544 4.504 Z M 80.732 4.504 L 80.732 4.355 A 3.17 3.17 0 0 1 80.808 3.646 A 2.581 2.581 0 0 1 81.002 3.092 A 2.191 2.191 0 0 1 81.45 2.466 A 2.033 2.033 0 0 1 81.758 2.221 Q 82.244 1.907 82.811 1.907 A 2.254 2.254 0 0 1 83.424 1.986 A 1.639 1.639 0 0 1 84.252 2.518 Q 84.766 3.129 84.766 4.267 L 84.766 4.605 L 81.545 4.605 A 2.111 2.111 0 0 0 81.616 5.114 A 1.516 1.516 0 0 0 81.956 5.741 A 1.282 1.282 0 0 0 82.89 6.173 A 1.652 1.652 0 0 0 82.956 6.174 A 1.763 1.763 0 0 0 83.284 6.145 Q 83.508 6.103 83.685 5.999 A 1.827 1.827 0 0 0 84.194 5.551 A 2.068 2.068 0 0 0 84.208 5.533 L 84.705 5.919 A 1.926 1.926 0 0 1 83.305 6.811 A 2.749 2.749 0 0 1 82.912 6.838 A 2.394 2.394 0 0 1 82.161 6.725 A 1.974 1.974 0 0 1 81.339 6.203 Q 80.732 5.568 80.732 4.504 Z M 46.714 6.75 L 44.495 6.75 L 44.495 0.352 L 46.587 0.352 A 4.031 4.031 0 0 1 47.159 0.39 Q 47.452 0.432 47.689 0.521 A 1.629 1.629 0 0 1 48.153 0.782 A 1.383 1.383 0 0 1 48.624 1.558 A 2.164 2.164 0 0 1 48.678 2.057 A 1.3 1.3 0 0 1 48.423 2.85 A 1.589 1.589 0 0 1 47.913 3.294 A 1.972 1.972 0 0 1 47.729 3.384 A 1.571 1.571 0 0 1 48.244 3.63 A 1.446 1.446 0 0 1 48.549 3.935 A 1.531 1.531 0 0 1 48.841 4.713 A 1.961 1.961 0 0 1 48.85 4.904 A 2.139 2.139 0 0 1 48.775 5.487 A 1.577 1.577 0 0 1 48.292 6.258 A 1.832 1.832 0 0 1 47.6 6.633 Q 47.333 6.713 47.014 6.739 A 3.81 3.81 0 0 1 46.714 6.75 Z M 13.856 1.995 L 15.065 5.647 L 16.242 1.995 L 17.073 1.995 L 15.368 6.75 L 14.748 6.75 L 13.026 1.995 L 13.856 1.995 Z M 118.912 0.352 L 118.912 4.601 L 119.799 4.601 L 119.799 5.265 L 118.912 5.265 L 118.912 6.75 L 118.094 6.75 L 118.094 5.265 L 115.181 5.265 L 115.181 4.786 L 118.046 0.352 L 118.912 0.352 Z M 129.797 6.75 L 128.026 6.75 L 128.026 0.352 L 129.832 0.352 Q 130.667 0.352 131.309 0.721 Q 131.95 1.09 132.3 1.771 A 3.19 3.19 0 0 1 132.617 2.8 A 4.073 4.073 0 0 1 132.653 3.335 L 132.653 3.744 Q 132.653 4.649 132.304 5.331 A 2.457 2.457 0 0 1 131.307 6.376 Q 130.658 6.741 129.797 6.75 Z M 124.31 2.592 A 1.544 1.544 0 0 0 124.414 2.021 A 2.226 2.226 0 0 0 124.392 1.707 A 1.566 1.566 0 0 0 123.893 0.738 A 1.754 1.754 0 0 0 123.127 0.333 A 2.443 2.443 0 0 0 122.528 0.264 A 2.539 2.539 0 0 0 122.019 0.312 A 1.767 1.767 0 0 0 121.162 0.738 Q 120.643 1.213 120.643 2.021 A 1.808 1.808 0 0 0 120.644 2.058 A 1.499 1.499 0 0 0 120.889 2.87 A 1.626 1.626 0 0 0 121.051 3.077 A 1.726 1.726 0 0 0 121.562 3.454 A 2.119 2.119 0 0 0 121.462 3.5 A 1.738 1.738 0 0 0 120.777 4.087 A 1.629 1.629 0 0 0 120.494 5.023 A 2.272 2.272 0 0 0 120.504 5.237 A 1.63 1.63 0 0 0 121.05 6.344 A 1.895 1.895 0 0 0 121.9 6.771 A 2.797 2.797 0 0 0 122.528 6.838 A 2.796 2.796 0 0 0 123.127 6.777 A 1.925 1.925 0 0 0 124.003 6.346 A 1.578 1.578 0 0 0 124.478 5.62 A 1.989 1.989 0 0 0 124.563 5.023 A 1.581 1.581 0 0 0 124.271 4.087 Q 123.979 3.674 123.478 3.458 Q 123.908 3.248 124.161 2.874 A 1.449 1.449 0 0 0 124.31 2.592 Z M 74.751 3.353 L 74.751 3.757 A 4.729 4.729 0 0 1 74.686 4.56 A 3.455 3.455 0 0 1 74.435 5.399 A 2.648 2.648 0 0 1 74.038 6.033 A 2.226 2.226 0 0 1 73.538 6.469 A 2.362 2.362 0 0 1 72.52 6.82 A 2.993 2.993 0 0 1 72.185 6.838 A 2.618 2.618 0 0 1 71.378 6.717 A 2.313 2.313 0 0 1 70.844 6.467 A 2.392 2.392 0 0 1 70.044 5.615 A 2.953 2.953 0 0 1 69.937 5.407 A 3.426 3.426 0 0 1 69.66 4.489 A 4.535 4.535 0 0 1 69.605 3.814 L 69.605 3.353 A 4.52 4.52 0 0 1 69.68 2.51 A 3.461 3.461 0 0 1 69.926 1.723 Q 70.247 1.015 70.833 0.639 A 2.389 2.389 0 0 1 71.99 0.27 A 2.92 2.92 0 0 1 72.176 0.264 A 2.702 2.702 0 0 1 72.952 0.372 A 2.318 2.318 0 0 1 73.532 0.635 A 2.31 2.31 0 0 1 74.305 1.456 A 2.912 2.912 0 0 1 74.435 1.712 A 3.525 3.525 0 0 1 74.695 2.604 A 4.763 4.763 0 0 1 74.751 3.353 Z M 55.156 0.844 L 55.969 0.844 L 55.969 1.995 L 56.857 1.995 L 56.857 2.624 L 55.969 2.624 L 55.969 5.572 Q 55.969 5.858 56.088 6.001 Q 56.206 6.144 56.492 6.144 A 1.046 1.046 0 0 0 56.589 6.138 Q 56.692 6.129 56.832 6.101 A 4.024 4.024 0 0 0 56.879 6.091 L 56.879 6.75 A 2.463 2.463 0 0 1 56.446 6.829 A 2.157 2.157 0 0 1 56.255 6.838 Q 55.807 6.838 55.541 6.616 A 0.856 0.856 0 0 1 55.433 6.508 Q 55.205 6.238 55.165 5.78 A 2.351 2.351 0 0 1 55.156 5.572 L 55.156 2.624 L 54.29 2.624 L 54.29 1.995 L 55.156 1.995 L 55.156 0.844 Z M 93.762 0.844 L 94.575 0.844 L 94.575 1.995 L 95.463 1.995 L 95.463 2.624 L 94.575 2.624 L 94.575 5.572 Q 94.575 5.858 94.694 6.001 Q 94.812 6.144 95.098 6.144 A 1.046 1.046 0 0 0 95.195 6.138 Q 95.298 6.129 95.438 6.101 A 4.024 4.024 0 0 0 95.485 6.091 L 95.485 6.75 A 2.463 2.463 0 0 1 95.052 6.829 A 2.157 2.157 0 0 1 94.86 6.838 Q 94.413 6.838 94.147 6.616 A 0.856 0.856 0 0 1 94.039 6.508 Q 93.811 6.238 93.771 5.78 A 2.351 2.351 0 0 1 93.762 5.572 L 93.762 2.624 L 92.896 2.624 L 92.896 1.995 L 93.762 1.995 L 93.762 0.844 Z M 98.381 4.386 L 98.381 4.329 A 3.057 3.057 0 0 1 98.467 3.587 A 2.573 2.573 0 0 1 98.655 3.072 A 2.16 2.16 0 0 1 99.07 2.486 A 1.957 1.957 0 0 1 99.42 2.21 A 2.036 2.036 0 0 1 100.364 1.913 A 2.491 2.491 0 0 1 100.538 1.907 A 2.277 2.277 0 0 1 101.292 2.027 A 1.937 1.937 0 0 1 102.109 2.58 A 2.29 2.29 0 0 1 102.628 3.608 A 3.373 3.373 0 0 1 102.709 4.368 L 102.709 4.425 A 3.114 3.114 0 0 1 102.63 5.142 A 2.577 2.577 0 0 1 102.443 5.671 A 2.056 2.056 0 0 1 101.916 6.361 A 2.001 2.001 0 0 1 101.683 6.53 A 2.045 2.045 0 0 1 100.763 6.829 A 2.529 2.529 0 0 1 100.547 6.838 A 2.262 2.262 0 0 1 99.797 6.718 A 1.938 1.938 0 0 1 98.98 6.166 A 2.297 2.297 0 0 1 98.455 5.111 A 3.357 3.357 0 0 1 98.381 4.386 Z M 12.67 1.969 L 12.67 2.725 A 2.251 2.251 0 0 0 12.427 2.698 A 2.782 2.782 0 0 0 12.27 2.694 Q 11.492 2.694 11.2 3.338 A 1.445 1.445 0 0 0 11.184 3.375 L 11.184 6.75 L 10.371 6.75 L 10.371 1.995 L 11.162 1.995 L 11.175 2.544 Q 11.556 1.938 12.238 1.909 A 1.636 1.636 0 0 1 12.309 1.907 Q 12.547 1.907 12.67 1.969 Z M 88.005 1.969 L 88.005 2.725 A 2.251 2.251 0 0 0 87.762 2.698 A 2.782 2.782 0 0 0 87.605 2.694 Q 86.827 2.694 86.536 3.338 A 1.445 1.445 0 0 0 86.52 3.375 L 86.52 6.75 L 85.707 6.75 L 85.707 1.995 L 86.498 1.995 L 86.511 2.544 Q 86.891 1.938 87.574 1.909 A 1.636 1.636 0 0 1 87.645 1.907 Q 87.882 1.907 88.005 1.969 Z M 140.994 1.969 L 140.994 2.725 A 2.251 2.251 0 0 0 140.752 2.698 A 2.782 2.782 0 0 0 140.594 2.694 Q 139.817 2.694 139.525 3.338 A 1.445 1.445 0 0 0 139.509 3.375 L 139.509 6.75 L 138.696 6.75 L 138.696 1.995 L 139.487 1.995 L 139.5 2.544 Q 139.881 1.938 140.563 1.909 A 1.636 1.636 0 0 1 140.634 1.907 Q 140.871 1.907 140.994 1.969 Z M 129.854 1.046 L 128.87 1.046 L 128.87 6.06 L 129.757 6.06 A 2.519 2.519 0 0 0 130.39 5.985 A 1.747 1.747 0 0 0 131.276 5.454 Q 131.735 4.94 131.806 4.059 A 4.165 4.165 0 0 0 131.819 3.727 L 131.819 3.353 Q 131.819 2.562 131.549 2.027 A 1.864 1.864 0 0 0 131.307 1.659 A 1.687 1.687 0 0 0 130.311 1.09 A 2.499 2.499 0 0 0 129.854 1.046 Z M 73.912 3.819 L 73.912 3.344 A 4.551 4.551 0 0 0 73.867 2.685 Q 73.818 2.35 73.715 2.078 A 1.944 1.944 0 0 0 73.455 1.597 Q 72.998 0.989 72.176 0.989 Q 71.376 0.989 70.917 1.597 A 2.112 2.112 0 0 0 70.592 2.246 Q 70.504 2.527 70.469 2.864 A 4.531 4.531 0 0 0 70.444 3.287 L 70.444 3.757 A 4.254 4.254 0 0 0 70.494 4.43 Q 70.552 4.789 70.676 5.079 A 2.039 2.039 0 0 0 70.908 5.491 A 1.472 1.472 0 0 0 71.975 6.11 A 1.931 1.931 0 0 0 72.185 6.122 A 1.79 1.79 0 0 0 72.743 6.039 A 1.423 1.423 0 0 0 73.45 5.526 A 2.017 2.017 0 0 0 73.751 4.932 Q 73.904 4.462 73.912 3.819 Z M 18.738 1.995 L 18.738 6.75 L 17.925 6.75 L 17.925 1.995 L 18.738 1.995 Z M 97.295 1.995 L 97.295 6.75 L 96.482 6.75 L 96.482 1.995 L 97.295 1.995 Z M 99.198 4.425 A 2.772 2.772 0 0 0 99.245 4.954 Q 99.306 5.264 99.443 5.51 A 1.545 1.545 0 0 0 99.565 5.695 Q 99.932 6.174 100.547 6.174 A 1.269 1.269 0 0 0 101.036 6.083 Q 101.316 5.967 101.518 5.706 A 1.471 1.471 0 0 0 101.531 5.689 A 1.648 1.648 0 0 0 101.786 5.171 Q 101.855 4.945 101.881 4.672 A 3.655 3.655 0 0 0 101.896 4.329 A 2.687 2.687 0 0 0 101.845 3.789 Q 101.777 3.459 101.62 3.2 A 1.586 1.586 0 0 0 101.525 3.061 A 1.231 1.231 0 0 0 101.11 2.705 Q 100.857 2.575 100.538 2.575 Q 99.948 2.575 99.582 3.035 A 1.515 1.515 0 0 0 99.567 3.054 A 1.589 1.589 0 0 0 99.315 3.552 Q 99.245 3.772 99.217 4.039 A 3.676 3.676 0 0 0 99.198 4.425 Z M 76.702 3.252 L 76.702 5.524 Q 77.067 6.174 77.819 6.174 A 1.184 1.184 0 0 0 78.284 6.086 Q 78.541 5.977 78.73 5.735 A 1.403 1.403 0 0 0 78.748 5.711 A 1.501 1.501 0 0 0 78.965 5.28 Q 79.033 5.073 79.065 4.818 A 3.91 3.91 0 0 0 79.093 4.333 Q 79.093 3.746 78.91 3.339 A 1.503 1.503 0 0 0 78.75 3.063 A 1.086 1.086 0 0 0 77.964 2.605 A 1.414 1.414 0 0 0 77.81 2.597 Q 77.149 2.597 76.784 3.121 A 1.623 1.623 0 0 0 76.702 3.252 Z M 46.745 3.757 L 45.339 3.757 L 45.339 6.06 L 46.732 6.06 A 1.84 1.84 0 0 0 47.107 6.024 Q 47.347 5.974 47.531 5.854 A 1.064 1.064 0 0 0 47.661 5.755 A 1.003 1.003 0 0 0 47.983 5.154 A 1.459 1.459 0 0 0 48.002 4.913 Q 48.002 4.007 47.229 3.811 A 1.977 1.977 0 0 0 46.745 3.757 Z M 117.998 1.639 L 116.104 4.601 L 118.094 4.601 L 118.094 1.463 L 117.998 1.639 Z M 45.339 1.046 L 45.339 3.081 L 46.613 3.081 Q 47.167 3.081 47.498 2.804 A 0.905 0.905 0 0 0 47.826 2.154 A 1.27 1.27 0 0 0 47.83 2.052 Q 47.83 1.696 47.69 1.471 A 0.71 0.71 0 0 0 47.523 1.285 A 0.969 0.969 0 0 0 47.237 1.136 Q 46.974 1.047 46.592 1.046 A 3.261 3.261 0 0 0 46.587 1.046 L 45.339 1.046 Z M 123.75 5.005 A 1.375 1.375 0 0 0 123.691 4.592 A 1.109 1.109 0 0 0 123.41 4.131 A 1.148 1.148 0 0 0 122.738 3.807 A 1.593 1.593 0 0 0 122.52 3.792 A 1.466 1.466 0 0 0 122.131 3.841 A 1.086 1.086 0 0 0 121.639 4.126 A 1.123 1.123 0 0 0 121.325 4.762 A 1.572 1.572 0 0 0 121.307 5.005 A 1.48 1.48 0 0 0 121.349 5.367 A 1.019 1.019 0 0 0 121.63 5.862 Q 121.936 6.158 122.469 6.173 A 2.053 2.053 0 0 0 122.528 6.174 Q 123.022 6.174 123.332 5.94 A 1.018 1.018 0 0 0 123.425 5.86 A 1.041 1.041 0 0 0 123.724 5.292 A 1.518 1.518 0 0 0 123.75 5.005 Z M 122.528 0.932 A 1.259 1.259 0 0 0 122.176 0.979 A 0.973 0.973 0 0 0 121.753 1.228 Q 121.456 1.525 121.456 2.035 A 1.325 1.325 0 0 0 121.501 2.387 A 0.994 0.994 0 0 0 121.748 2.823 A 0.974 0.974 0 0 0 122.311 3.108 A 1.382 1.382 0 0 0 122.528 3.125 A 1.279 1.279 0 0 0 122.873 3.08 A 0.952 0.952 0 0 0 123.308 2.823 A 1.018 1.018 0 0 0 123.584 2.26 A 1.426 1.426 0 0 0 123.601 2.035 A 1.282 1.282 0 0 0 123.551 1.668 A 1.013 1.013 0 0 0 123.298 1.239 Q 122.994 0.932 122.528 0.932 Z M 52.778 5.418 L 52.778 4.443 L 52.141 4.443 Q 50.647 4.443 50.647 5.317 Q 50.647 5.7 50.902 5.915 A 0.893 0.893 0 0 0 51.315 6.108 A 1.259 1.259 0 0 0 51.557 6.13 A 1.429 1.429 0 0 0 52.282 5.933 A 1.335 1.335 0 0 0 52.577 5.705 A 1.108 1.108 0 0 0 52.778 5.418 Z M 91.384 5.418 L 91.384 4.443 L 90.747 4.443 Q 89.253 4.443 89.253 5.317 Q 89.253 5.7 89.508 5.915 A 0.893 0.893 0 0 0 89.921 6.108 A 1.259 1.259 0 0 0 90.163 6.13 A 1.429 1.429 0 0 0 90.888 5.933 A 1.335 1.335 0 0 0 91.183 5.705 A 1.108 1.108 0 0 0 91.384 5.418 Z M 136.609 5.418 L 136.609 4.443 L 135.971 4.443 Q 134.477 4.443 134.477 5.317 Q 134.477 5.7 134.732 5.915 A 0.893 0.893 0 0 0 135.146 6.108 A 1.259 1.259 0 0 0 135.387 6.13 A 1.429 1.429 0 0 0 136.112 5.933 A 1.335 1.335 0 0 0 136.407 5.705 A 1.108 1.108 0 0 0 136.609 5.418 Z M 6.236 3.938 L 8.618 3.938 L 8.618 3.876 Q 8.592 3.417 8.421 3.111 A 1.13 1.13 0 0 0 8.284 2.916 A 0.983 0.983 0 0 0 7.629 2.584 A 1.39 1.39 0 0 0 7.475 2.575 A 1.106 1.106 0 0 0 6.953 2.698 A 1.14 1.14 0 0 0 6.649 2.933 A 1.417 1.417 0 0 0 6.372 3.379 Q 6.299 3.563 6.259 3.785 A 2.741 2.741 0 0 0 6.236 3.938 Z M 25.383 3.938 L 27.765 3.938 L 27.765 3.876 Q 27.739 3.417 27.568 3.111 A 1.13 1.13 0 0 0 27.431 2.916 A 0.983 0.983 0 0 0 26.776 2.584 A 1.39 1.39 0 0 0 26.622 2.575 A 1.106 1.106 0 0 0 26.1 2.698 A 1.14 1.14 0 0 0 25.796 2.933 A 1.417 1.417 0 0 0 25.519 3.379 Q 25.446 3.563 25.406 3.785 A 2.741 2.741 0 0 0 25.383 3.938 Z M 81.571 3.938 L 83.953 3.938 L 83.953 3.876 Q 83.927 3.417 83.757 3.111 A 1.13 1.13 0 0 0 83.619 2.916 A 0.983 0.983 0 0 0 82.965 2.584 A 1.39 1.39 0 0 0 82.811 2.575 A 1.106 1.106 0 0 0 82.288 2.698 A 1.14 1.14 0 0 0 81.985 2.933 A 1.417 1.417 0 0 0 81.708 3.379 Q 81.634 3.563 81.594 3.785 A 2.741 2.741 0 0 0 81.571 3.938 Z M 17.86 0.734 Q 17.86 0.536 17.98 0.4 Q 18.092 0.274 18.304 0.264 A 0.783 0.783 0 0 1 18.339 0.264 Q 18.576 0.264 18.699 0.4 A 0.474 0.474 0 0 1 18.821 0.703 A 0.614 0.614 0 0 1 18.822 0.734 A 0.523 0.523 0 0 1 18.797 0.9 A 0.442 0.442 0 0 1 18.699 1.063 Q 18.586 1.184 18.378 1.194 A 0.803 0.803 0 0 1 18.339 1.195 Q 18.166 1.195 18.055 1.126 A 0.362 0.362 0 0 1 17.98 1.063 A 0.456 0.456 0 0 1 17.862 0.788 A 0.605 0.605 0 0 1 17.86 0.734 Z M 96.416 0.734 Q 96.416 0.536 96.537 0.4 Q 96.649 0.274 96.861 0.264 A 0.783 0.783 0 0 1 96.895 0.264 Q 97.132 0.264 97.256 0.4 A 0.474 0.474 0 0 1 97.378 0.703 A 0.614 0.614 0 0 1 97.379 0.734 A 0.523 0.523 0 0 1 97.353 0.9 A 0.442 0.442 0 0 1 97.256 1.063 Q 97.143 1.184 96.935 1.194 A 0.803 0.803 0 0 1 96.895 1.195 Q 96.723 1.195 96.612 1.126 A 0.362 0.362 0 0 1 96.537 1.063 A 0.456 0.456 0 0 1 96.419 0.788 A 0.605 0.605 0 0 1 96.416 0.734 Z" vector-effect="non-scaling-stroke"/></g>
</svg>