<?xml version="1.0" encoding="UTF-8"?>
<svg width="80px" height="80px" viewBox="0 0 80 80" version="1.1" xmlns="http://www.w3.org/2000/svg" xmlns:xlink="http://www.w3.org/1999/xlink">
    <title>Icon-Architecture/64/Arch_Amazon-Lumberyard_64</title>
    
    <g id="Icon-Architecture/64/Arch_Amazon-Lumberyard_64" stroke="none" stroke-width="1" fill="none" fill-rule="evenodd">
        
        <g id="Icon-Service/64/Amazon-Lumberyard_64" transform="translate(16, 8), scale(.65)" fill="#000000">
            <path d="M58.5757,25.9089 L58.4507,25.2399 L46.2527,30.1119 L47.5167,33.0709 C47.5427,33.1509 48.0547,33.1999 48.1387,33.2079 L48.2517,33.2189 C48.3477,33.2279 48.4387,33.1719 48.4727,33.0799 L48.9017,31.9389 L50.2757,32.0769 L50.7607,30.7829 L52.1357,30.9199 L52.6177,29.6259 L53.9917,29.7639 L54.4747,28.4709 L55.8487,28.6089 L56.3317,27.3159 L57.7057,27.4539 L58.1527,26.2549 C58.1797,26.1839 58.2547,26.1579 58.3287,26.1729 C58.4867,26.2049 58.6177,26.0589 58.5757,25.9089 L58.5757,25.9089 Z M46.3927,34.4359 C46.4147,34.4789 45.3007,31.6639 45.2697,31.6399 C45.0777,31.2559 44.7967,31.0469 44.3657,31.0769 C43.9597,31.1059 43.6607,31.3009 43.4707,31.6439 C43.4397,31.7009 43.5097,31.8289 43.5477,31.8459 L43.5917,31.8489 C43.6837,31.8559 43.7777,31.8629 43.8677,31.8809 C43.9617,31.8949 44.0517,31.9209 44.1407,31.9459 C44.2257,31.9759 44.3157,32.0039 44.3947,32.0419 C44.4777,32.0779 44.5557,32.1179 44.6317,32.1619 C44.7827,32.2469 44.9157,32.3459 45.0427,32.4469 C45.1537,32.5359 45.2357,32.6579 45.2767,32.7949 L45.2777,32.7989 C45.2957,32.8549 45.3007,32.8769 45.3087,32.9119 L45.3307,33.0039 C45.3437,33.0649 45.3537,33.1229 45.3627,33.1819 C45.3817,33.2999 45.3947,33.4169 45.4017,33.5349 C45.4167,33.7699 45.4117,34.0089 45.3797,34.2479 C45.3477,34.4869 45.2917,34.7269 45.2067,34.9599 C45.1637,35.0769 45.1137,35.1909 45.0567,35.3029 C45.0397,35.3369 45.0197,35.3709 45.0007,35.4049 C45.0617,35.5779 45.1097,35.7129 45.1267,35.7619 C45.1817,35.9199 45.1857,36.0139 45.3427,35.9509 C45.6257,35.8349 46.0827,35.6829 46.2737,35.4599 C46.5367,35.1529 46.5807,34.8019 46.3927,34.4359 L46.3927,34.4359 Z M43.9137,33.6309 C43.9107,33.5729 43.9027,33.5149 43.8947,33.4589 C43.8927,33.4579 43.8917,33.4569 43.8897,33.4559 C43.8577,33.4359 43.8257,33.4199 43.7937,33.4069 C43.7627,33.3889 43.7307,33.3839 43.6997,33.3699 C43.5777,33.3349 43.4667,33.3269 43.3387,33.3549 C43.2117,33.3809 43.0667,33.4449 42.9247,33.5429 C42.8537,33.5909 42.7827,33.6469 42.7157,33.7079 C42.6817,33.7389 42.6487,33.7709 42.6187,33.8029 C42.5067,33.8999 42.3817,33.9669 42.3817,33.9669 L42.2567,34.0319 C42.0767,34.1239 41.8777,34.1749 41.6757,34.1799 L41.4537,34.1849 C41.2777,34.1849 41.0997,34.1719 40.9227,34.1659 C40.5677,34.1409 40.2137,34.0979 39.8617,34.0339 C39.6847,34.0049 39.5127,33.9569 39.3377,33.9179 C39.1647,33.8739 38.9947,33.8189 38.8227,33.7689 C38.6537,33.7109 38.4857,33.6519 38.3187,33.5889 C38.1567,33.5189 37.9907,33.4529 37.8307,33.3779 C37.5127,33.2279 37.1987,33.0679 36.9007,32.8899 C36.7517,32.8019 36.6017,32.7129 36.4597,32.6179 C36.3137,32.5269 36.1717,32.4319 36.0317,32.3349 C35.4697,31.9509 34.9467,31.5359 34.4317,31.1299 L33.6677,30.5219 C33.4157,30.3209 33.1617,30.1239 32.9077,29.9299 L32.5257,29.6439 L32.1397,29.3659 L31.7497,29.0979 L31.3527,28.8409 C31.0867,28.6739 30.8167,28.5119 30.5417,28.3609 C30.2657,28.2099 29.9877,28.0639 29.7017,27.9329 C29.5607,27.8629 29.4177,27.7989 29.2717,27.7369 C29.1277,27.6729 28.9827,27.6099 28.8387,27.5569 C28.5557,27.4419 28.2407,27.3389 27.9317,27.2309 L28.1337,26.4839 L28.6147,26.5779 C28.7727,26.6079 28.9437,26.6589 29.1087,26.6989 C29.2777,26.7399 29.4387,26.7879 29.5997,26.8379 C29.7637,26.8869 29.9267,26.9349 30.0847,26.9949 C30.4047,27.1059 30.7197,27.2339 31.0317,27.3679 C31.3427,27.5059 31.6457,27.6549 31.9477,27.8109 L32.3927,28.0549 L32.8287,28.3119 C33.1157,28.4879 33.3997,28.6669 33.6767,28.8539 C33.7327,28.8919 33.7877,28.9319 33.8447,28.9709 C34.1947,26.1729 35.0257,24.2449 36.3247,23.2409 C37.3387,22.4559 38.2847,22.5139 38.5267,22.5449 C38.5457,22.5069 38.5627,22.4679 38.5817,22.4289 C38.6697,22.2479 38.7607,22.0729 38.8467,21.9049 C38.8877,21.8219 38.9317,21.7369 38.9697,21.6559 C39.0077,21.5749 39.0527,21.4929 39.0867,21.4139 C39.1207,21.3339 39.1607,21.2539 39.1897,21.1749 C39.2207,21.0969 39.2607,21.0129 39.2807,20.9429 L39.3197,20.8349 L39.3397,20.7799 L39.3597,20.7099 L39.3697,20.6759 C39.2667,20.4529 39.0957,20.2279 38.8757,20.0219 C38.5997,19.7619 38.2577,19.5339 37.8907,19.3359 C37.1527,18.9419 36.3137,18.6719 35.4647,18.5099 C35.0427,18.4289 34.5997,18.3779 34.1897,18.3589 L34.0137,18.3529 L33.9717,18.3509 C33.9777,18.3519 33.9507,18.3519 33.9417,18.3519 L33.8647,18.3519 C33.7617,18.3509 33.6577,18.3539 33.5547,18.3609 C33.3477,18.3699 33.1437,18.3969 32.9397,18.4269 C32.5337,18.4969 32.1337,18.6049 31.7507,18.7609 C31.5587,18.8379 31.3707,18.9239 31.1887,19.0199 L31.0547,19.0949 L30.9387,19.1619 C30.9417,19.1679 30.9447,19.1729 30.9477,19.1799 C30.9787,19.2339 31.0137,19.3219 31.0747,19.4219 C31.1427,19.5179 31.2107,19.6479 31.3247,19.7709 C31.4277,19.9039 31.5657,20.0379 31.7287,20.1779 C31.8937,20.3139 32.0887,20.4519 32.3157,20.5759 C32.4297,20.6389 32.5467,20.7029 32.6767,20.7569 C32.8017,20.8159 32.9347,20.8679 33.0737,20.9169 C33.3487,21.0199 33.6497,21.0979 33.9587,21.1709 C34.2697,21.2349 34.5917,21.2909 34.9187,21.3269 C35.1217,21.3499 35.3257,21.3679 35.5297,21.3819 L35.5377,22.0329 C35.3277,22.0469 35.1147,22.0569 34.9007,22.0609 C34.5517,22.0709 34.1987,22.0579 33.8487,22.0339 C33.4997,22.0009 33.1527,21.9589 32.8167,21.8839 C32.6477,21.8489 32.4827,21.8089 32.3207,21.7579 C32.1587,21.7149 32.0027,21.6569 31.8497,21.5969 C31.5447,21.4809 31.2627,21.3359 31.0107,21.1799 C30.7607,21.0209 30.5367,20.8559 30.3587,20.6849 C30.1697,20.5249 30.0377,20.3529 29.9177,20.2199 C29.8897,20.1859 29.8657,20.1549 29.8427,20.1239 L29.7627,20.2069 C29.4307,20.5479 29.0957,20.8819 28.7577,21.2129 C28.0797,21.8719 27.3897,22.5119 26.7047,23.1459 C25.3347,24.4149 23.9727,25.6639 22.7997,27.0329 C22.2167,27.7189 21.6857,28.4359 21.2367,29.1929 C20.7977,29.9519 20.4367,30.7499 20.1947,31.5829 C20.0797,32.0009 19.9737,32.4219 19.9147,32.8529 C19.8757,33.0699 19.8567,33.2789 19.8357,33.4869 L19.8187,33.6439 L19.8097,33.8189 L19.7927,34.1679 L19.7877,34.2559 L19.7867,34.3189 L19.7847,34.4829 L19.7887,34.8109 C19.7957,35.0289 19.8047,35.2459 19.8257,35.4609 C19.8627,35.8919 19.9327,36.3149 20.0337,36.7269 C20.0847,36.9319 20.1427,37.1359 20.2117,37.3329 C20.2777,37.5339 20.3597,37.7249 20.4367,37.9019 L20.5867,38.2149 C20.6417,38.3319 20.7007,38.4489 20.7477,38.5699 C20.7987,38.6909 20.8477,38.8109 20.8897,38.9349 C20.9357,39.0569 20.9767,39.1819 21.0127,39.3079 C21.3127,40.3109 21.3827,41.3989 21.1527,42.4529 C21.0367,42.9789 20.8407,43.4929 20.5667,43.9709 C20.3957,44.2629 20.1897,44.5379 19.9597,44.7909 C20.2977,44.7669 20.6367,44.7269 20.9767,44.6689 C21.0797,44.6509 21.1807,44.6319 21.2827,44.6129 C21.3547,44.5979 21.4267,44.5849 21.4987,44.5699 C21.5017,44.5689 21.5047,44.5689 21.5067,44.5689 C23.5877,44.1439 25.4877,43.4469 27.1217,42.5529 C27.6777,41.4279 27.6657,39.0689 27.0867,36.0699 C26.8957,35.0829 26.8997,34.2549 27.0967,33.6099 C27.4297,32.5239 28.5747,31.9199 29.7037,32.2339 C31.4217,32.7119 32.7607,33.1999 33.9417,33.6309 C35.8007,34.3089 37.2677,34.8439 39.3397,35.0329 C39.9067,35.0839 41.3047,35.0979 42.3627,35.0859 C42.3877,35.2739 42.4167,35.4569 42.4487,35.6209 L42.6297,35.5519 C42.6977,35.5189 42.7727,35.4919 42.8387,35.4559 C42.9047,35.4209 42.9717,35.3879 43.0327,35.3469 C43.0537,35.3349 43.0727,35.3219 43.0937,35.3089 C43.1327,35.2829 43.1707,35.2569 43.2077,35.2299 C43.2097,35.2289 43.2107,35.2279 43.2117,35.2269 C43.2667,35.1849 43.3207,35.1409 43.3707,35.0949 C43.4207,35.0489 43.4677,35.0009 43.5107,34.9509 C43.5527,34.8999 43.5947,34.8489 43.6297,34.7939 C43.7757,34.5799 43.8647,34.3299 43.9007,34.0549 C43.9197,33.9179 43.9237,33.7739 43.9137,33.6309 L43.9137,33.6309 Z M33.6777,38.3109 C32.9887,39.6579 31.9587,40.9149 30.6517,42.0229 C32.2337,43.0829 34.9517,45.1549 35.9567,47.4409 L36.4577,47.3359 C36.6337,46.2029 37.2197,40.9839 33.6777,38.3109 L33.6777,38.3109 Z M33.0557,34.8959 C31.9927,34.5089 30.7887,34.0839 29.3037,33.6709 C28.9667,33.5769 28.6157,33.7449 28.5227,34.0469 C28.4367,34.3279 28.3717,34.8589 28.5517,35.7869 C28.8817,37.4979 29.1547,39.6379 28.9467,41.3879 C31.3597,39.5979 32.8797,37.3119 33.0557,34.8959 L33.0557,34.8959 Z M31.1897,17.3699 C31.1907,17.3689 31.1917,17.3689 31.1937,17.3679 C31.6767,17.1739 32.1817,17.0359 32.6957,16.9489 C32.9537,16.9099 33.2137,16.8779 33.4727,16.8659 C33.5337,16.8619 33.5947,16.8629 33.6547,16.8609 L33.6547,16.8549 C33.6547,16.8549 33.7687,16.8499 33.9687,16.8419 C34.0687,16.8399 34.1857,16.8339 34.3307,16.8329 C34.4747,16.8309 34.6367,16.8299 34.8127,16.8279 C35.1627,16.8289 35.5667,16.8369 36.0007,16.8499 C36.4327,16.8619 36.8927,16.8909 37.3527,16.9189 C37.6567,16.9389 37.9597,16.9589 38.2547,16.9819 C37.7547,15.5849 36.4517,14.6199 34.9927,14.5059 C35.0157,14.5229 35.0417,14.5409 35.0637,14.5579 C35.1657,14.6299 35.2537,14.7139 35.3407,14.7859 C35.4217,14.8669 35.5017,14.9369 35.5667,15.0129 C35.7027,15.1559 35.8017,15.2889 35.8697,15.3849 C35.9027,15.4329 35.9297,15.4719 35.9507,15.5059 C35.9717,15.5389 35.9737,15.5459 35.9757,15.5479 L35.3767,15.9649 C35.3777,15.9669 35.3637,15.9499 35.3517,15.9389 C35.3367,15.9249 35.3137,15.9029 35.2857,15.8749 C35.2207,15.8169 35.1257,15.7309 34.9987,15.6429 C34.9377,15.5969 34.8637,15.5559 34.7917,15.5079 C34.7127,15.4679 34.6357,15.4169 34.5477,15.3809 C34.4617,15.3399 34.3727,15.3009 34.2787,15.2689 C34.1877,15.2309 34.0897,15.2089 33.9947,15.1819 C33.8997,15.1539 33.8007,15.1429 33.7067,15.1229 C33.6097,15.1099 33.5137,15.1039 33.4247,15.0939 C33.3327,15.0889 33.2427,15.0919 33.1597,15.0909 C33.0767,15.0859 32.9947,15.1019 32.9227,15.1059 C32.8487,15.1139 32.7837,15.1149 32.7227,15.1289 C32.6807,15.1369 32.6447,15.1429 32.6117,15.1489 C32.2587,15.3989 31.9497,15.7109 31.7067,16.0809 C31.4457,16.4769 31.2717,16.9149 31.1897,17.3699 L31.1897,17.3699 Z M18.8927,38.1349 C18.8517,38.0329 18.8127,37.9309 18.7777,37.8279 C18.6927,37.5859 18.6217,37.3389 18.5597,37.0919 C18.5517,37.0559 18.5437,37.0199 18.5357,36.9839 C16.6897,36.2059 13.4707,35.6539 10.8507,35.6839 C8.4647,35.7099 6.6687,36.1739 5.9227,36.9549 C5.6797,37.2089 5.5667,37.4789 5.5777,37.7809 C5.6287,39.2149 8.3517,39.8239 11.0347,39.7969 C13.9927,39.7639 17.3037,38.9509 18.8927,38.1349 L18.8927,38.1349 Z M60.1837,26.5929 L60.1797,26.6359 L59.9807,27.8219 L59.9807,27.8219 L59.1727,27.7409 L58.6897,29.0339 L57.3147,28.8959 L56.8327,30.1899 L55.4577,30.0519 L54.9737,31.3459 L53.6017,31.2069 L53.1197,32.4999 L51.7437,32.3619 L51.2597,33.6559 L49.8837,33.5189 L49.3977,34.8139 L49.3897,34.8259 L47.7707,34.6909 C47.8327,34.8939 47.8307,35.4319 47.7897,35.6379 C47.6937,36.1149 47.4577,36.6059 46.9677,36.8139 C45.9427,37.2469 44.8257,37.8639 43.7997,38.2909 C43.7897,38.2949 43.5887,38.3899 43.4337,38.4599 C43.2547,38.5319 43.1757,38.4539 43.1907,38.3089 L43.2587,37.9179 C43.3207,37.6069 43.3267,37.5599 43.3887,37.2479 C43.4047,37.1839 43.4337,37.0179 43.4437,36.9009 C43.4427,36.8589 43.4147,36.8609 43.3617,36.8739 C43.3167,36.8869 43.2487,36.9079 43.2007,36.9299 L42.6017,37.1469 C42.5887,37.1509 42.5737,37.1429 42.5697,37.1289 L42.4187,36.5769 C41.3167,36.5899 39.8497,36.5759 39.2037,36.5169 C37.4127,36.3539 36.0197,35.9489 34.5837,35.4469 C34.5197,35.9369 34.4117,36.4209 34.2607,36.8969 C36.3327,38.3089 37.6197,40.5729 37.9907,43.4929 C38.1897,45.0599 38.0817,46.4439 37.9817,47.2149 C37.9867,47.2209 37.9907,47.2249 37.9907,47.2259 C37.8627,48.2479 39.5547,47.1839 40.2227,47.0629 C40.8907,46.9419 41.5867,47.3459 41.8647,48.4039 C42.0907,49.2629 41.1857,50.1059 40.8347,50.3269 L40.6287,50.3979 C40.5717,50.3629 40.6287,50.3979 40.5647,50.3619 L40.1467,50.1479 C38.9377,49.5889 37.1697,48.8959 34.7037,50.1419 L33.9277,48.6979 L33.9287,48.6979 C34.2147,48.6669 34.4617,48.3549 34.5317,48.0589 C33.7637,46.2939 31.4587,44.3689 29.3387,43.0229 C27.2737,44.4359 24.7137,45.5169 21.8457,46.1069 C21.8417,46.1079 21.8387,46.1099 21.8347,46.1109 C21.6507,46.1509 21.4687,46.1839 21.2847,46.2159 C21.2467,46.2219 21.2087,46.2299 21.1707,46.2369 C21.1297,46.2439 21.0907,46.2529 21.0497,46.2599 C21.0107,46.2659 20.9717,46.2679 20.9337,46.2689 C20.7487,46.2959 20.5637,46.3189 20.3787,46.3369 C21.3857,46.7739 22.4517,47.4409 22.6527,48.3579 C22.9937,49.9169 21.1037,50.5989 20.6017,50.3499 C20.2227,50.1619 19.5837,48.1759 16.5267,46.3699 L16.5007,46.3719 L16.3907,44.8849 C16.8357,44.8519 17.1877,44.7859 17.5587,44.6539 C17.9207,44.5189 18.2517,44.3279 18.5427,44.0879 C18.8307,43.8439 19.0747,43.5489 19.2677,43.2179 C19.4577,42.8839 19.5987,42.5159 19.6827,42.1299 C19.8497,41.3569 19.8017,40.5229 19.5627,39.7389 C19.5487,39.6849 19.5287,39.6339 19.5117,39.5809 C17.5177,40.5609 13.9947,41.3419 11.0527,41.3739 C10.9757,41.3749 10.9007,41.3749 10.8257,41.3749 C6.6257,41.3749 4.0807,40.0599 4.0017,37.8369 C3.9757,37.1089 4.2457,36.4279 4.7817,35.8659 C5.8487,34.7469 7.9417,34.1389 10.8337,34.1069 C13.3157,34.0789 16.2187,34.5239 18.2857,35.2099 C18.2797,35.0889 18.2747,34.9689 18.2707,34.8489 L18.2667,34.4759 L18.2697,34.2899 L18.2717,34.1789 L18.2767,34.0909 L18.2947,33.7419 L18.3047,33.5669 L18.3227,33.3749 C18.3477,33.1189 18.3737,32.8629 18.4167,32.6199 C18.4867,32.1259 18.6067,31.6379 18.7407,31.1579 C19.0207,30.1969 19.4357,29.2809 19.9327,28.4259 C20.4377,27.5759 21.0237,26.7879 21.6507,26.0529 C22.9127,24.5849 24.3137,23.3079 25.6817,22.0409 C26.3677,21.4079 27.0477,20.7779 27.7097,20.1349 C28.0397,19.8129 28.3657,19.4899 28.6857,19.1609 L29.1787,18.6499 C29.3237,18.5039 29.4827,18.3659 29.6507,18.2339 C29.5977,17.1839 29.8747,16.1529 30.4607,15.2619 C31.2077,14.1249 32.3657,13.3549 33.7197,13.0939 C36.4897,12.5599 39.2367,14.3589 39.8427,17.1049 L39.7287,17.1299 C39.7757,17.1359 39.8257,17.1419 39.8717,17.1479 C40.2137,17.1929 40.4977,17.2349 40.6967,17.2699 C40.8957,17.3019 41.0117,17.3259 41.0117,17.3259 L40.8887,18.5619 C40.8887,18.5619 40.7777,18.5639 40.5787,18.5599 C40.3817,18.5589 40.0977,18.5519 39.7587,18.5409 C39.6467,18.5379 39.5267,18.5339 39.4047,18.5299 C39.5737,18.6549 39.7407,18.7869 39.8987,18.9369 C40.2857,19.3019 40.6497,19.7659 40.8427,20.3599 C40.8507,20.3809 40.8577,20.4019 40.8637,20.4219 C40.8637,20.4229 40.8647,20.4229 40.8647,20.4239 C40.8737,20.4529 40.8797,20.4789 40.8817,20.4889 C40.8947,20.5609 40.8927,20.5739 40.8957,20.6109 L40.8957,20.6649 L40.8937,20.6999 C40.8907,20.7349 40.8887,20.7569 40.8857,20.7719 C40.8807,20.8049 40.8767,20.8209 40.8727,20.8379 L40.8577,20.8959 L40.8517,20.9139 L40.8317,20.9839 L40.7907,21.1249 L40.7697,21.1949 L40.7407,21.2789 L40.6817,21.4459 C40.6417,21.5619 40.5987,21.6549 40.5557,21.7579 C40.5137,21.8609 40.4647,21.9539 40.4187,22.0529 C40.3247,22.2449 40.2227,22.4269 40.1207,22.6019 C40.0187,22.7759 39.9187,22.9419 39.8187,23.1029 C39.7217,23.2619 39.6337,23.4199 39.5477,23.5729 C39.5087,23.6499 39.4617,23.7269 39.4277,23.8039 C39.3907,23.8809 39.3477,23.9569 39.3177,24.0349 C39.2877,24.1139 39.2457,24.1899 39.2197,24.2699 C39.1917,24.3499 39.1547,24.4279 39.1337,24.5109 C39.1117,24.5929 39.0787,24.6739 39.0567,24.7579 C39.0367,24.8429 39.0147,24.9279 38.9897,25.0129 L37.9717,24.9359 C37.9647,24.7199 37.9657,24.4999 37.9917,24.2799 C37.9967,24.2009 38.0107,24.1239 38.0237,24.0459 C37.8127,24.0879 37.5137,24.1929 37.1887,24.4579 C36.4597,25.0519 35.5337,26.4909 35.2387,29.9619 C35.2567,29.9739 35.2737,29.9869 35.2917,29.9989 C35.5537,30.1909 35.8147,30.3799 36.0767,30.5629 C36.3387,30.7459 36.5977,30.9269 36.8597,31.0959 C36.9907,31.1819 37.1227,31.2639 37.2557,31.3439 C37.3877,31.4259 37.5197,31.4999 37.6537,31.5749 C37.9207,31.7249 38.1907,31.8609 38.4637,31.9849 C38.5997,32.0459 38.7397,32.0979 38.8777,32.1569 L39.2967,32.3049 C39.4377,32.3449 39.5787,32.3909 39.7217,32.4279 C39.8657,32.4589 40.0087,32.4979 40.1537,32.5259 C40.4427,32.5839 40.7367,32.6239 41.0327,32.6499 C41.1817,32.6579 41.3657,32.6719 41.5147,32.6779 L41.6297,32.6829 C41.7507,32.6829 41.7277,32.6119 41.7277,32.6119 L41.5047,32.0679 C41.4547,31.9479 41.3197,31.8879 41.1977,31.9319 L40.7987,32.0639 C40.7737,32.0729 40.7467,32.0659 40.7277,32.0479 L39.8407,31.1519 C39.8047,31.1169 39.8177,31.0579 39.8637,31.0399 L59.4867,23.2839 L60.1837,26.5929 Z M35.1517,20.6789 C34.6397,20.6959 34.2097,20.4449 34.1897,20.1169 C34.1707,19.7879 34.5687,19.5079 35.0817,19.4899 C35.5937,19.4719 36.0237,19.7229 36.0437,20.0519 C36.0627,20.3799 35.6637,20.6599 35.1517,20.6789 L35.1517,20.6789 Z" id="Fill-1"></path>
        </g>
    </g><g transform="translate(13vw, 80vh)" id="svgGroup" stroke-linecap="round" fill-rule="evenodd" font-size="9pt" stroke="#000" stroke-width="0.25mm" fill="#000" style="stroke:#000;stroke-width:0.25mm;fill:#000"><path d="M 9.479 1.995 L 10.248 1.995 L 10.27 2.522 Q 10.793 1.907 11.681 1.907 A 2.009 2.009 0 0 1 12.191 1.968 A 1.244 1.244 0 0 1 13.039 2.672 A 1.801 1.801 0 0 1 13.656 2.118 A 1.65 1.65 0 0 1 14.185 1.937 A 2.209 2.209 0 0 1 14.555 1.907 A 2.119 2.119 0 0 1 15.199 1.997 Q 16.125 2.292 16.146 3.564 L 16.146 6.75 L 15.333 6.75 L 15.333 3.612 A 1.781 1.781 0 0 0 15.312 3.332 Q 15.288 3.185 15.238 3.067 A 0.758 0.758 0 0 0 15.1 2.85 A 0.68 0.68 0 0 0 14.847 2.682 Q 14.635 2.597 14.319 2.597 A 1.245 1.245 0 0 0 13.952 2.648 A 1.008 1.008 0 0 0 13.566 2.867 A 1.042 1.042 0 0 0 13.252 3.404 A 1.41 1.41 0 0 0 13.219 3.595 L 13.219 6.75 L 12.401 6.75 L 12.401 3.634 A 1.532 1.532 0 0 0 12.353 3.23 Q 12.226 2.768 11.769 2.643 A 1.457 1.457 0 0 0 11.386 2.597 Q 10.613 2.597 10.312 3.234 A 1.459 1.459 0 0 0 10.292 3.278 L 10.292 6.75 L 9.479 6.75 L 9.479 1.995 Z M 30.683 1.995 L 31.869 5.559 L 32.977 1.995 L 33.847 1.995 L 31.935 7.484 Q 31.491 8.67 30.524 8.67 L 30.371 8.657 L 30.067 8.6 L 30.067 7.941 L 30.287 7.958 Q 30.567 7.958 30.763 7.882 A 0.75 0.75 0 0 0 30.931 7.792 A 0.749 0.749 0 0 0 31.091 7.629 Q 31.209 7.47 31.299 7.215 A 2.575 2.575 0 0 0 31.311 7.181 L 31.491 6.697 L 29.795 1.995 L 30.683 1.995 Z M 7.475 6.75 L 7.458 6.28 A 1.526 1.526 0 0 1 6.631 6.775 Q 6.381 6.836 6.084 6.838 A 2.996 2.996 0 0 1 6.064 6.838 A 2.086 2.086 0 0 1 5.605 6.79 Q 5.174 6.693 4.906 6.396 A 1.41 1.41 0 0 1 4.623 5.899 Q 4.507 5.556 4.504 5.089 L 4.504 1.995 L 5.317 1.995 L 5.317 5.067 Q 5.317 6.037 6.025 6.137 A 1.229 1.229 0 0 0 6.196 6.148 A 1.927 1.927 0 0 0 6.647 6.099 Q 7.21 5.964 7.436 5.454 L 7.436 1.995 L 8.249 1.995 L 8.249 6.75 L 7.475 6.75 Z M 38.294 6.75 L 37.441 6.75 A 0.632 0.632 0 0 1 37.406 6.66 Q 37.375 6.562 37.35 6.41 A 3.997 3.997 0 0 1 37.327 6.249 Q 36.76 6.838 35.974 6.838 A 2.033 2.033 0 0 1 35.444 6.772 A 1.529 1.529 0 0 1 34.82 6.44 Q 34.37 6.042 34.37 5.432 Q 34.37 4.689 34.934 4.278 Q 35.499 3.867 36.523 3.867 L 37.314 3.867 L 37.314 3.494 A 1.152 1.152 0 0 0 37.278 3.199 A 0.828 0.828 0 0 0 37.059 2.815 Q 36.843 2.6 36.452 2.568 A 1.748 1.748 0 0 0 36.308 2.562 Q 35.873 2.562 35.578 2.782 Q 35.284 3.001 35.284 3.313 L 34.466 3.313 A 1.041 1.041 0 0 1 34.591 2.825 A 1.409 1.409 0 0 1 34.719 2.626 Q 34.972 2.294 35.405 2.101 A 2.249 2.249 0 0 1 36.18 1.913 A 2.669 2.669 0 0 1 36.356 1.907 A 2.65 2.65 0 0 1 36.873 1.955 Q 37.181 2.016 37.419 2.156 A 1.439 1.439 0 0 1 37.644 2.318 A 1.396 1.396 0 0 1 38.097 3.144 A 1.998 1.998 0 0 1 38.127 3.45 L 38.127 5.638 Q 38.127 6.073 38.201 6.39 A 1.707 1.707 0 0 0 38.294 6.68 L 38.294 6.75 Z M 21.397 4.355 L 21.397 4.425 Q 21.397 5.308 21.068 5.909 A 2.141 2.141 0 0 1 20.896 6.177 A 1.647 1.647 0 0 1 20.309 6.673 Q 19.994 6.828 19.604 6.837 A 2.112 2.112 0 0 1 19.551 6.838 A 2.039 2.039 0 0 1 18.957 6.756 A 1.561 1.561 0 0 1 18.158 6.201 L 18.119 6.75 L 17.372 6.75 L 17.372 0 L 18.185 0 L 18.185 2.518 A 1.605 1.605 0 0 1 19.351 1.915 A 2.285 2.285 0 0 1 19.542 1.907 A 1.835 1.835 0 0 1 20.173 2.011 A 1.579 1.579 0 0 1 20.903 2.562 Q 21.317 3.11 21.384 3.998 A 4.727 4.727 0 0 1 21.397 4.355 Z M 42.166 4.395 L 42.166 4.333 A 3.762 3.762 0 0 1 42.232 3.602 Q 42.32 3.16 42.523 2.812 A 2.148 2.148 0 0 1 42.684 2.573 Q 43.203 1.907 44.042 1.907 A 1.964 1.964 0 0 1 44.64 1.994 A 1.559 1.559 0 0 1 45.365 2.479 L 45.365 0 L 46.178 0 L 46.178 6.75 L 45.431 6.75 L 45.391 6.24 Q 44.903 6.838 44.033 6.838 A 1.6 1.6 0 0 1 42.813 6.31 A 2.078 2.078 0 0 1 42.686 6.161 A 2.405 2.405 0 0 1 42.262 5.255 Q 42.178 4.912 42.167 4.51 A 4.425 4.425 0 0 1 42.166 4.395 Z M 22.214 4.504 L 22.214 4.355 A 3.17 3.17 0 0 1 22.291 3.646 A 2.581 2.581 0 0 1 22.485 3.092 A 2.191 2.191 0 0 1 22.932 2.466 A 2.033 2.033 0 0 1 23.24 2.221 Q 23.726 1.907 24.293 1.907 A 2.254 2.254 0 0 1 24.906 1.986 A 1.639 1.639 0 0 1 25.734 2.518 Q 26.249 3.129 26.249 4.267 L 26.249 4.605 L 23.027 4.605 A 2.111 2.111 0 0 0 23.098 5.114 A 1.516 1.516 0 0 0 23.438 5.741 A 1.282 1.282 0 0 0 24.372 6.173 A 1.652 1.652 0 0 0 24.438 6.174 A 1.763 1.763 0 0 0 24.766 6.145 Q 24.99 6.103 25.167 5.999 A 1.827 1.827 0 0 0 25.676 5.551 A 2.068 2.068 0 0 0 25.69 5.533 L 26.187 5.919 A 1.926 1.926 0 0 1 24.787 6.811 A 2.749 2.749 0 0 1 24.394 6.838 A 2.394 2.394 0 0 1 23.643 6.725 A 1.974 1.974 0 0 1 22.821 6.203 Q 22.214 5.568 22.214 4.504 Z M 0.848 0.352 L 0.848 6.06 L 3.88 6.06 L 3.88 6.75 L 0 6.75 L 0 0.352 L 0.848 0.352 Z M 29.487 1.969 L 29.487 2.725 A 2.251 2.251 0 0 0 29.245 2.698 A 2.782 2.782 0 0 0 29.087 2.694 Q 28.31 2.694 28.018 3.338 A 1.445 1.445 0 0 0 28.002 3.375 L 28.002 6.75 L 27.189 6.75 L 27.189 1.995 L 27.98 1.995 L 27.993 2.544 Q 28.374 1.938 29.056 1.909 A 1.636 1.636 0 0 1 29.127 1.907 Q 29.364 1.907 29.487 1.969 Z M 41.7 1.969 L 41.7 2.725 A 2.251 2.251 0 0 0 41.457 2.698 A 2.782 2.782 0 0 0 41.3 2.694 Q 40.522 2.694 40.23 3.338 A 1.445 1.445 0 0 0 40.214 3.375 L 40.214 6.75 L 39.401 6.75 L 39.401 1.995 L 40.192 1.995 L 40.206 2.544 Q 40.586 1.938 41.268 1.909 A 1.636 1.636 0 0 1 41.339 1.907 Q 41.577 1.907 41.7 1.969 Z M 45.365 5.454 L 45.365 3.27 A 1.375 1.375 0 0 0 45.053 2.874 Q 44.729 2.597 44.244 2.597 A 1.238 1.238 0 0 0 43.817 2.668 A 1.068 1.068 0 0 0 43.312 3.059 A 1.51 1.51 0 0 0 43.103 3.484 Q 43.038 3.689 43.006 3.939 A 3.955 3.955 0 0 0 42.979 4.425 A 3.162 3.162 0 0 0 43.014 4.918 Q 43.056 5.178 43.144 5.389 A 1.474 1.474 0 0 0 43.313 5.691 A 1.06 1.06 0 0 0 44.075 6.139 A 1.391 1.391 0 0 0 44.235 6.148 Q 45.009 6.148 45.365 5.454 Z M 18.185 3.344 L 18.185 5.401 A 1.528 1.528 0 0 0 18.471 5.807 Q 18.793 6.127 19.283 6.147 A 1.621 1.621 0 0 0 19.349 6.148 A 1.206 1.206 0 0 0 19.766 6.079 A 1.04 1.04 0 0 0 20.259 5.695 Q 20.584 5.243 20.584 4.333 Q 20.584 3.502 20.263 3.05 A 1.03 1.03 0 0 0 19.513 2.607 A 1.449 1.449 0 0 0 19.34 2.597 A 1.34 1.34 0 0 0 18.831 2.69 Q 18.413 2.86 18.185 3.344 Z M 37.314 5.418 L 37.314 4.443 L 36.677 4.443 Q 35.183 4.443 35.183 5.317 Q 35.183 5.7 35.438 5.915 A 0.893 0.893 0 0 0 35.851 6.108 A 1.259 1.259 0 0 0 36.092 6.13 A 1.429 1.429 0 0 0 36.817 5.933 A 1.335 1.335 0 0 0 37.113 5.705 A 1.108 1.108 0 0 0 37.314 5.418 Z M 23.054 3.938 L 25.436 3.938 L 25.436 3.876 Q 25.41 3.417 25.239 3.111 A 1.13 1.13 0 0 0 25.102 2.916 A 0.983 0.983 0 0 0 24.447 2.584 A 1.39 1.39 0 0 0 24.293 2.575 A 1.106 1.106 0 0 0 23.771 2.698 A 1.14 1.14 0 0 0 23.467 2.933 A 1.417 1.417 0 0 0 23.19 3.379 Q 23.117 3.563 23.077 3.785 A 2.741 2.741 0 0 0 23.054 3.938 Z" vector-effect="non-scaling-stroke"/></g>
</svg>