<?xml version="1.0" encoding="UTF-8"?>
<svg width="80px" height="80px" viewBox="0 0 80 80" version="1.1" xmlns="http://www.w3.org/2000/svg" xmlns:xlink="http://www.w3.org/1999/xlink">
    <title>Icon-Architecture/64/Arch_AWS-Console-Mobile-Application _64</title>
    
    <g id="Icon-Architecture/64/Arch_AWS-Console-Mobile-Application-_64" stroke="none" stroke-width="1" fill="none" fill-rule="evenodd">
        
        <g id="Icon-Service/64/AWS-Console-Mobile-Application_64" transform="translate(16, 8), scale(.65)" fill="#000000">
            <path d="M6,37.823 L30.442,37.823 L30.442,35.823 L6,35.823 L6,37.823 Z M14.452,31.92 L32.243,31.92 L32.243,29.92 L14.452,29.92 L14.452,31.92 Z M37.182,32.906 C37.668,32.782 37.987,32.317 37.928,31.818 C37.908,31.662 37.898,31.502 37.898,31.34 C37.898,29.939 38.896,28.376 40.123,27.857 C40.689,27.617 41.213,27.521 41.688,27.521 C43.04,27.521 43.995,28.296 44.412,28.715 C44.878,29.181 45.244,29.785 45.5,30.509 C45.623,30.858 45.929,31.11 46.295,31.165 C46.659,31.217 47.027,31.067 47.247,30.77 C47.504,30.421 47.897,30.269 48.272,30.382 C48.754,30.522 49.079,31.057 49.149,31.821 C49.122,32.322 49.474,32.774 49.979,32.861 C50.813,33.004 52.214,33.513 52.214,35.305 C52.214,37.416 50.35,37.702 50.064,37.735 L37.816,37.722 C36.492,37.721 35.407,36.721 35.345,35.439 L35.341,35.276 C35.341,33.705 36.342,33.12 37.182,32.906 L37.182,32.906 Z M37.814,39.722 L50.145,39.731 C51.552,39.617 54.214,38.545 54.214,35.305 C54.214,32.903 52.691,31.584 51.056,31.069 C50.73,29.544 49.737,28.726 48.834,28.462 C48.149,28.262 47.444,28.325 46.822,28.61 C46.541,28.121 46.209,27.684 45.828,27.303 C44.06,25.527 41.635,25.045 39.344,26.015 C37.41,26.834 35.945,29.064 35.899,31.236 C34.282,31.94 33.341,33.401 33.341,35.276 C33.341,35.368 33.344,35.459 33.348,35.542 C33.461,37.884 35.423,39.72 37.814,39.722 L37.814,39.722 Z M38.509,9.465 L40.588,9.465 L40.588,7.465 L38.509,7.465 L38.509,9.465 Z M41.975,9.465 L48.905,9.465 L48.905,7.465 L41.975,7.465 L41.975,9.465 Z M54.279,58.055 L33.134,58.055 C31.682,58.055 30.5,56.894 30.5,55.467 L30.5,53.818 L56.913,53.818 L56.913,55.467 C56.913,56.894 55.731,58.055 54.279,58.055 L54.279,58.055 Z M30.5,10.93 L30.5,9.653 C30.5,7.639 32.165,6 34.212,6 L53.201,6 C55.248,6 56.913,7.639 56.913,9.653 L56.913,10.93 L30.5,10.93 Z M58.913,9.649 C58.913,6.729 56.661,4.319 53.784,4.03 C53.593,4.01 53.398,4 53.201,4 L34.212,4 C31.062,4 28.5,6.536 28.5,9.653 L28.5,13.135 L28.5,26.763 L30.5,26.763 L30.5,13.135 L30.5,12.93 L56.913,12.93 L56.913,51.818 L30.5,51.818 L30.5,41.727 L28.5,41.727 L28.5,55.467 C28.5,57.997 30.579,60.055 33.134,60.055 L54.279,60.055 C56.834,60.055 58.913,57.997 58.913,55.467 L58.913,9.653 L58.913,9.649 Z" id="Fill-1"></path>
        </g>
    </g><g transform="translate(12vw, 80vh)" id="svgGroup" stroke-linecap="round" fill-rule="evenodd" font-size="9pt" stroke="#000" stroke-width="0.25mm" fill="#000" style="stroke:#000;stroke-width:0.25mm;fill:#000"><path d="M 35.13 0.352 L 36.22 0.352 L 38.312 5.572 L 40.403 0.352 L 41.498 0.352 L 41.498 6.75 L 40.654 6.75 L 40.654 4.258 L 40.733 1.569 L 38.632 6.75 L 37.986 6.75 L 35.89 1.582 L 35.974 4.258 L 35.974 6.75 L 35.13 6.75 L 35.13 0.352 Z M 4.078 4.72 L 4.926 4.72 A 3.016 3.016 0 0 1 4.765 5.416 A 2.099 2.099 0 0 1 4.177 6.286 Q 3.546 6.838 2.501 6.838 A 2.553 2.553 0 0 1 1.631 6.696 A 2.194 2.194 0 0 1 0.683 6.025 A 2.789 2.789 0 0 1 0.122 4.901 Q 0.015 4.484 0.002 3.992 A 5.262 5.262 0 0 1 0 3.85 L 0 3.234 A 4.251 4.251 0 0 1 0.07 2.445 A 3.229 3.229 0 0 1 0.319 1.666 A 2.539 2.539 0 0 1 0.774 0.99 A 2.26 2.26 0 0 1 1.222 0.626 A 2.415 2.415 0 0 1 2.248 0.281 A 3.027 3.027 0 0 1 2.575 0.264 A 2.962 2.962 0 0 1 3.281 0.343 A 2.065 2.065 0 0 1 4.21 0.833 A 2.16 2.16 0 0 1 4.805 1.795 A 3.086 3.086 0 0 1 4.926 2.408 L 4.078 2.408 Q 4.009 1.929 3.84 1.616 A 1.223 1.223 0 0 0 3.601 1.301 A 1.207 1.207 0 0 0 3.096 1.024 Q 2.909 0.971 2.686 0.961 A 2.396 2.396 0 0 0 2.575 0.958 A 1.753 1.753 0 0 0 1.997 1.049 A 1.463 1.463 0 0 0 1.307 1.556 A 1.989 1.989 0 0 0 0.993 2.175 Q 0.848 2.636 0.848 3.256 L 0.848 3.876 Q 0.848 4.917 1.283 5.533 A 1.38 1.38 0 0 0 2.282 6.135 A 1.814 1.814 0 0 0 2.501 6.148 A 2.497 2.497 0 0 0 2.908 6.117 Q 3.127 6.08 3.303 6.002 A 1.155 1.155 0 0 0 3.579 5.829 Q 3.955 5.511 4.078 4.72 Z M 19.586 3.393 L 18.769 3.393 Q 18.769 3.059 18.486 2.817 Q 18.202 2.575 17.772 2.575 Q 17.328 2.575 17.077 2.769 A 0.653 0.653 0 0 0 16.902 2.967 Q 16.829 3.098 16.827 3.263 A 0.771 0.771 0 0 0 16.827 3.274 A 0.588 0.588 0 0 0 16.857 3.467 A 0.48 0.48 0 0 0 17.06 3.718 A 1.093 1.093 0 0 0 17.21 3.796 Q 17.374 3.868 17.63 3.937 A 6.581 6.581 0 0 0 17.901 4.003 A 6.318 6.318 0 0 1 18.309 4.108 Q 18.646 4.208 18.888 4.329 A 1.901 1.901 0 0 1 19.144 4.481 Q 19.281 4.579 19.378 4.692 A 1.06 1.06 0 0 1 19.448 4.783 A 1.024 1.024 0 0 1 19.61 5.191 A 1.388 1.388 0 0 1 19.63 5.432 Q 19.63 6.069 19.121 6.453 Q 18.638 6.817 17.884 6.837 A 3.337 3.337 0 0 1 17.798 6.838 A 2.746 2.746 0 0 1 17.264 6.788 A 2.124 2.124 0 0 1 16.787 6.636 A 1.771 1.771 0 0 1 16.353 6.358 A 1.54 1.54 0 0 1 16.099 6.071 Q 15.851 5.708 15.851 5.287 L 16.664 5.287 A 0.932 0.932 0 0 0 16.738 5.612 A 0.827 0.827 0 0 0 16.992 5.935 A 1.072 1.072 0 0 0 17.394 6.128 Q 17.548 6.167 17.73 6.173 A 2.013 2.013 0 0 0 17.798 6.174 A 1.863 1.863 0 0 0 18.094 6.152 Q 18.255 6.126 18.387 6.07 A 0.941 0.941 0 0 0 18.538 5.988 A 0.689 0.689 0 0 0 18.703 5.837 A 0.554 0.554 0 0 0 18.817 5.489 A 0.698 0.698 0 0 0 18.781 5.258 A 0.581 0.581 0 0 0 18.569 4.977 A 1.05 1.05 0 0 0 18.4 4.878 Q 18.211 4.788 17.916 4.712 A 5.392 5.392 0 0 0 17.703 4.663 A 6.342 6.342 0 0 1 17.342 4.575 Q 16.973 4.473 16.723 4.346 Q 16.425 4.194 16.254 3.994 A 1.017 1.017 0 0 1 16.187 3.907 Q 16.014 3.652 16.014 3.3 A 1.206 1.206 0 0 1 16.413 2.396 A 1.694 1.694 0 0 1 16.508 2.312 A 1.752 1.752 0 0 1 17.291 1.952 A 2.471 2.471 0 0 1 17.772 1.907 A 2.559 2.559 0 0 1 18.335 1.966 A 1.757 1.757 0 0 1 19.083 2.325 Q 19.586 2.742 19.586 3.393 Z M 11.083 1.995 L 11.852 1.995 L 11.878 2.593 Q 12.415 1.918 13.275 1.907 A 2.234 2.234 0 0 1 13.302 1.907 A 1.905 1.905 0 0 1 13.936 2.004 Q 14.778 2.3 14.821 3.506 A 3.668 3.668 0 0 1 14.823 3.608 L 14.823 6.75 L 14.01 6.75 L 14.01 3.604 A 1.837 1.837 0 0 0 13.988 3.324 Q 13.937 3.017 13.775 2.843 Q 13.589 2.645 13.235 2.606 A 1.66 1.66 0 0 0 13.056 2.597 A 1.253 1.253 0 0 0 12.642 2.664 A 1.123 1.123 0 0 0 12.362 2.808 A 1.432 1.432 0 0 0 11.896 3.362 L 11.896 6.75 L 11.083 6.75 L 11.083 1.995 Z M 52.018 4.355 L 52.018 4.425 Q 52.018 5.308 51.69 5.909 A 2.141 2.141 0 0 1 51.517 6.177 A 1.647 1.647 0 0 1 50.93 6.673 Q 50.615 6.828 50.225 6.837 A 2.112 2.112 0 0 1 50.172 6.838 A 2.039 2.039 0 0 1 49.578 6.756 A 1.561 1.561 0 0 1 48.779 6.201 L 48.74 6.75 L 47.993 6.75 L 47.993 0 L 48.806 0 L 48.806 2.518 A 1.605 1.605 0 0 1 49.972 1.915 A 2.285 2.285 0 0 1 50.164 1.907 A 1.835 1.835 0 0 1 50.795 2.011 A 1.579 1.579 0 0 1 51.524 2.562 Q 51.938 3.11 52.005 3.998 A 4.727 4.727 0 0 1 52.018 4.355 Z M 27.8 4.504 L 27.8 4.355 A 3.17 3.17 0 0 1 27.876 3.646 A 2.581 2.581 0 0 1 28.07 3.092 A 2.191 2.191 0 0 1 28.518 2.466 A 2.033 2.033 0 0 1 28.826 2.221 Q 29.312 1.907 29.878 1.907 A 2.254 2.254 0 0 1 30.492 1.986 A 1.639 1.639 0 0 1 31.32 2.518 Q 31.834 3.129 31.834 4.267 L 31.834 4.605 L 28.613 4.605 A 2.111 2.111 0 0 0 28.684 5.114 A 1.516 1.516 0 0 0 29.024 5.741 A 1.282 1.282 0 0 0 29.958 6.173 A 1.652 1.652 0 0 0 30.023 6.174 A 1.763 1.763 0 0 0 30.352 6.145 Q 30.576 6.103 30.753 5.999 A 1.827 1.827 0 0 0 31.262 5.551 A 2.068 2.068 0 0 0 31.276 5.533 L 31.773 5.919 A 1.926 1.926 0 0 1 30.373 6.811 A 2.749 2.749 0 0 1 29.98 6.838 A 2.394 2.394 0 0 1 29.228 6.725 A 1.974 1.974 0 0 1 28.406 6.203 Q 27.8 5.568 27.8 4.504 Z M 57.204 4.504 L 57.204 4.355 A 3.17 3.17 0 0 1 57.28 3.646 A 2.581 2.581 0 0 1 57.474 3.092 A 2.191 2.191 0 0 1 57.921 2.466 A 2.033 2.033 0 0 1 58.23 2.221 Q 58.715 1.907 59.282 1.907 A 2.254 2.254 0 0 1 59.895 1.986 A 1.639 1.639 0 0 1 60.724 2.518 Q 61.238 3.129 61.238 4.267 L 61.238 4.605 L 58.017 4.605 A 2.111 2.111 0 0 0 58.088 5.114 A 1.516 1.516 0 0 0 58.428 5.741 A 1.282 1.282 0 0 0 59.362 6.173 A 1.652 1.652 0 0 0 59.427 6.174 A 1.763 1.763 0 0 0 59.755 6.145 Q 59.979 6.103 60.157 5.999 A 1.827 1.827 0 0 0 60.666 5.551 A 2.068 2.068 0 0 0 60.68 5.533 L 61.176 5.919 A 1.926 1.926 0 0 1 59.777 6.811 A 2.749 2.749 0 0 1 59.383 6.838 A 2.394 2.394 0 0 1 58.632 6.725 A 1.974 1.974 0 0 1 57.81 6.203 Q 57.204 5.568 57.204 4.504 Z M 26.706 0 L 26.706 6.75 L 25.893 6.75 L 25.893 0 L 26.706 0 Z M 56.109 0 L 56.109 6.75 L 55.296 6.75 L 55.296 0 L 56.109 0 Z M 5.735 4.386 L 5.735 4.329 A 3.057 3.057 0 0 1 5.822 3.587 A 2.573 2.573 0 0 1 6.01 3.072 A 2.16 2.16 0 0 1 6.424 2.486 A 1.957 1.957 0 0 1 6.774 2.21 A 2.036 2.036 0 0 1 7.719 1.913 A 2.491 2.491 0 0 1 7.893 1.907 A 2.277 2.277 0 0 1 8.646 2.027 A 1.937 1.937 0 0 1 9.464 2.58 A 2.29 2.29 0 0 1 9.983 3.608 A 3.373 3.373 0 0 1 10.064 4.368 L 10.064 4.425 A 3.114 3.114 0 0 1 9.984 5.142 A 2.577 2.577 0 0 1 9.798 5.671 A 2.056 2.056 0 0 1 9.27 6.361 A 2.001 2.001 0 0 1 9.037 6.53 A 2.045 2.045 0 0 1 8.118 6.829 A 2.529 2.529 0 0 1 7.901 6.838 A 2.262 2.262 0 0 1 7.151 6.718 A 1.938 1.938 0 0 1 6.335 6.166 A 2.297 2.297 0 0 1 5.809 5.111 A 3.357 3.357 0 0 1 5.735 4.386 Z M 20.474 4.386 L 20.474 4.329 A 3.057 3.057 0 0 1 20.561 3.587 A 2.573 2.573 0 0 1 20.749 3.072 A 2.16 2.16 0 0 1 21.164 2.486 A 1.957 1.957 0 0 1 21.513 2.21 A 2.036 2.036 0 0 1 22.458 1.913 A 2.491 2.491 0 0 1 22.632 1.907 A 2.277 2.277 0 0 1 23.385 2.027 A 1.937 1.937 0 0 1 24.203 2.58 A 2.29 2.29 0 0 1 24.722 3.608 A 3.373 3.373 0 0 1 24.803 4.368 L 24.803 4.425 A 3.114 3.114 0 0 1 24.723 5.142 A 2.577 2.577 0 0 1 24.537 5.671 A 2.056 2.056 0 0 1 24.01 6.361 A 2.001 2.001 0 0 1 23.777 6.53 A 2.045 2.045 0 0 1 22.857 6.829 A 2.529 2.529 0 0 1 22.641 6.838 A 2.262 2.262 0 0 1 21.89 6.718 A 1.938 1.938 0 0 1 21.074 6.166 A 2.297 2.297 0 0 1 20.548 5.111 A 3.357 3.357 0 0 1 20.474 4.386 Z M 42.645 4.386 L 42.645 4.329 A 3.057 3.057 0 0 1 42.731 3.587 A 2.573 2.573 0 0 1 42.919 3.072 A 2.16 2.16 0 0 1 43.334 2.486 A 1.957 1.957 0 0 1 43.684 2.21 A 2.036 2.036 0 0 1 44.628 1.913 A 2.491 2.491 0 0 1 44.802 1.907 A 2.277 2.277 0 0 1 45.556 2.027 A 1.937 1.937 0 0 1 46.373 2.58 A 2.29 2.29 0 0 1 46.892 3.608 A 3.373 3.373 0 0 1 46.973 4.368 L 46.973 4.425 A 3.114 3.114 0 0 1 46.894 5.142 A 2.577 2.577 0 0 1 46.707 5.671 A 2.056 2.056 0 0 1 46.18 6.361 A 2.001 2.001 0 0 1 45.947 6.53 A 2.045 2.045 0 0 1 45.027 6.829 A 2.529 2.529 0 0 1 44.811 6.838 A 2.262 2.262 0 0 1 44.061 6.718 A 1.938 1.938 0 0 1 43.244 6.166 A 2.297 2.297 0 0 1 42.719 5.111 A 3.357 3.357 0 0 1 42.645 4.386 Z M 53.925 1.995 L 53.925 6.75 L 53.112 6.75 L 53.112 1.995 L 53.925 1.995 Z M 6.552 4.425 A 2.772 2.772 0 0 0 6.6 4.954 Q 6.66 5.264 6.797 5.51 A 1.545 1.545 0 0 0 6.919 5.695 Q 7.286 6.174 7.901 6.174 A 1.269 1.269 0 0 0 8.391 6.083 Q 8.67 5.967 8.873 5.706 A 1.471 1.471 0 0 0 8.886 5.689 A 1.648 1.648 0 0 0 9.141 5.171 Q 9.209 4.945 9.235 4.672 A 3.655 3.655 0 0 0 9.251 4.329 A 2.687 2.687 0 0 0 9.199 3.789 Q 9.132 3.459 8.974 3.2 A 1.586 1.586 0 0 0 8.879 3.061 A 1.231 1.231 0 0 0 8.464 2.705 Q 8.211 2.575 7.893 2.575 Q 7.303 2.575 6.936 3.035 A 1.515 1.515 0 0 0 6.921 3.054 A 1.589 1.589 0 0 0 6.669 3.552 Q 6.6 3.772 6.572 4.039 A 3.676 3.676 0 0 0 6.552 4.425 Z M 21.292 4.425 A 2.772 2.772 0 0 0 21.339 4.954 Q 21.399 5.264 21.537 5.51 A 1.545 1.545 0 0 0 21.658 5.695 Q 22.025 6.174 22.641 6.174 A 1.269 1.269 0 0 0 23.13 6.083 Q 23.409 5.967 23.612 5.706 A 1.471 1.471 0 0 0 23.625 5.689 A 1.648 1.648 0 0 0 23.88 5.171 Q 23.949 4.945 23.974 4.672 A 3.655 3.655 0 0 0 23.99 4.329 A 2.687 2.687 0 0 0 23.939 3.789 Q 23.871 3.459 23.714 3.2 A 1.586 1.586 0 0 0 23.618 3.061 A 1.231 1.231 0 0 0 23.203 2.705 Q 22.95 2.575 22.632 2.575 Q 22.042 2.575 21.676 3.035 A 1.515 1.515 0 0 0 21.661 3.054 A 1.589 1.589 0 0 0 21.409 3.552 Q 21.339 3.772 21.311 4.039 A 3.676 3.676 0 0 0 21.292 4.425 Z M 43.462 4.425 A 2.772 2.772 0 0 0 43.509 4.954 Q 43.57 5.264 43.707 5.51 A 1.545 1.545 0 0 0 43.829 5.695 Q 44.196 6.174 44.811 6.174 A 1.269 1.269 0 0 0 45.301 6.083 Q 45.58 5.967 45.782 5.706 A 1.471 1.471 0 0 0 45.795 5.689 A 1.648 1.648 0 0 0 46.05 5.171 Q 46.119 4.945 46.145 4.672 A 3.655 3.655 0 0 0 46.16 4.329 A 2.687 2.687 0 0 0 46.109 3.789 Q 46.041 3.459 45.884 3.2 A 1.586 1.586 0 0 0 45.789 3.061 A 1.231 1.231 0 0 0 45.374 2.705 Q 45.121 2.575 44.802 2.575 Q 44.212 2.575 43.846 3.035 A 1.515 1.515 0 0 0 43.831 3.054 A 1.589 1.589 0 0 0 43.579 3.552 Q 43.509 3.772 43.481 4.039 A 3.676 3.676 0 0 0 43.462 4.425 Z M 48.806 3.344 L 48.806 5.401 A 1.528 1.528 0 0 0 49.092 5.807 Q 49.414 6.127 49.904 6.147 A 1.621 1.621 0 0 0 49.97 6.148 A 1.206 1.206 0 0 0 50.387 6.079 A 1.04 1.04 0 0 0 50.88 5.695 Q 51.205 5.243 51.205 4.333 Q 51.205 3.502 50.884 3.05 A 1.03 1.03 0 0 0 50.134 2.607 A 1.449 1.449 0 0 0 49.961 2.597 A 1.34 1.34 0 0 0 49.452 2.69 Q 49.034 2.86 48.806 3.344 Z M 28.639 3.938 L 31.021 3.938 L 31.021 3.876 Q 30.995 3.417 30.824 3.111 A 1.13 1.13 0 0 0 30.687 2.916 A 0.983 0.983 0 0 0 30.033 2.584 A 1.39 1.39 0 0 0 29.878 2.575 A 1.106 1.106 0 0 0 29.356 2.698 A 1.14 1.14 0 0 0 29.052 2.933 A 1.417 1.417 0 0 0 28.776 3.379 Q 28.702 3.563 28.662 3.785 A 2.741 2.741 0 0 0 28.639 3.938 Z M 58.043 3.938 L 60.425 3.938 L 60.425 3.876 Q 60.399 3.417 60.228 3.111 A 1.13 1.13 0 0 0 60.091 2.916 A 0.983 0.983 0 0 0 59.436 2.584 A 1.39 1.39 0 0 0 59.282 2.575 A 1.106 1.106 0 0 0 58.76 2.698 A 1.14 1.14 0 0 0 58.456 2.933 A 1.417 1.417 0 0 0 58.179 3.379 Q 58.106 3.563 58.066 3.785 A 2.741 2.741 0 0 0 58.043 3.938 Z M 53.046 0.734 Q 53.046 0.536 53.167 0.4 Q 53.279 0.274 53.491 0.264 A 0.783 0.783 0 0 1 53.525 0.264 Q 53.763 0.264 53.886 0.4 A 0.474 0.474 0 0 1 54.008 0.703 A 0.614 0.614 0 0 1 54.009 0.734 A 0.523 0.523 0 0 1 53.984 0.9 A 0.442 0.442 0 0 1 53.886 1.063 Q 53.773 1.184 53.565 1.194 A 0.803 0.803 0 0 1 53.525 1.195 Q 53.353 1.195 53.242 1.126 A 0.362 0.362 0 0 1 53.167 1.063 A 0.456 0.456 0 0 1 53.049 0.788 A 0.605 0.605 0 0 1 53.046 0.734 Z" vector-effect="non-scaling-stroke"/></g><g transform="translate(12vw, 90vh)" id="svgGroup" stroke-linecap="round" fill-rule="evenodd" font-size="9pt" stroke="#000" stroke-width="0.25mm" fill="#000" style="stroke:#000;stroke-width:0.25mm;fill:#000"><path d="M 40.693 1.995 L 41.462 1.995 L 41.489 2.593 Q 42.025 1.918 42.885 1.907 A 2.234 2.234 0 0 1 42.913 1.907 A 1.905 1.905 0 0 1 43.546 2.004 Q 44.388 2.3 44.431 3.506 A 3.668 3.668 0 0 1 44.433 3.608 L 44.433 6.75 L 43.62 6.75 L 43.62 3.604 A 1.837 1.837 0 0 0 43.598 3.324 Q 43.548 3.017 43.385 2.843 Q 43.199 2.645 42.846 2.606 A 1.66 1.66 0 0 0 42.667 2.597 A 1.253 1.253 0 0 0 42.252 2.664 A 1.123 1.123 0 0 0 41.972 2.808 A 1.432 1.432 0 0 0 41.506 3.362 L 41.506 6.75 L 40.693 6.75 L 40.693 1.995 Z M 23.858 5.251 L 24.627 5.251 A 1.432 1.432 0 0 1 24.428 5.901 A 1.772 1.772 0 0 1 24.346 6.029 A 1.828 1.828 0 0 1 23.736 6.574 A 2.169 2.169 0 0 1 23.654 6.618 A 1.997 1.997 0 0 1 22.737 6.838 A 2.346 2.346 0 0 1 22.04 6.739 A 1.839 1.839 0 0 1 21.193 6.19 A 2.171 2.171 0 0 1 20.729 5.31 Q 20.619 4.909 20.619 4.417 L 20.619 4.28 A 3.24 3.24 0 0 1 20.683 3.624 A 2.57 2.57 0 0 1 20.874 3.045 A 2.008 2.008 0 0 1 21.314 2.431 A 1.892 1.892 0 0 1 21.606 2.206 A 1.943 1.943 0 0 1 22.362 1.934 A 2.529 2.529 0 0 1 22.733 1.907 A 2.196 2.196 0 0 1 23.381 1.999 A 1.786 1.786 0 0 1 24.062 2.386 A 1.693 1.693 0 0 1 24.621 3.535 A 2.239 2.239 0 0 1 24.627 3.63 L 23.858 3.63 Q 23.823 3.168 23.509 2.872 A 1.078 1.078 0 0 0 22.779 2.576 A 1.402 1.402 0 0 0 22.733 2.575 A 1.374 1.374 0 0 0 22.311 2.637 A 1.081 1.081 0 0 0 21.773 3.021 A 1.469 1.469 0 0 0 21.546 3.468 Q 21.48 3.674 21.452 3.923 A 3.514 3.514 0 0 0 21.432 4.311 L 21.432 4.465 Q 21.432 5.287 21.771 5.73 A 1.1 1.1 0 0 0 22.557 6.165 A 1.611 1.611 0 0 0 22.737 6.174 A 1.171 1.171 0 0 0 23.498 5.911 A 1.007 1.007 0 0 0 23.742 5.629 A 0.914 0.914 0 0 0 23.858 5.251 Z M 4.764 6.75 L 4.153 5.08 L 1.472 5.08 L 0.87 6.75 L 0 6.75 L 2.443 0.352 L 3.182 0.352 L 5.629 6.75 L 4.764 6.75 Z M 29.329 6.75 L 28.477 6.75 A 0.632 0.632 0 0 1 28.441 6.66 Q 28.41 6.562 28.385 6.41 A 3.997 3.997 0 0 1 28.362 6.249 Q 27.795 6.838 27.009 6.838 A 2.033 2.033 0 0 1 26.479 6.772 A 1.529 1.529 0 0 1 25.855 6.44 Q 25.405 6.042 25.405 5.432 Q 25.405 4.689 25.969 4.278 Q 26.534 3.867 27.558 3.867 L 28.349 3.867 L 28.349 3.494 A 1.152 1.152 0 0 0 28.313 3.199 A 0.828 0.828 0 0 0 28.094 2.815 Q 27.878 2.6 27.488 2.568 A 1.748 1.748 0 0 0 27.343 2.562 Q 26.908 2.562 26.613 2.782 Q 26.319 3.001 26.319 3.313 L 25.501 3.313 A 1.041 1.041 0 0 1 25.626 2.825 A 1.409 1.409 0 0 1 25.754 2.626 Q 26.007 2.294 26.44 2.101 A 2.249 2.249 0 0 1 27.215 1.913 A 2.669 2.669 0 0 1 27.391 1.907 A 2.65 2.65 0 0 1 27.909 1.955 Q 28.216 2.016 28.455 2.156 A 1.439 1.439 0 0 1 28.679 2.318 A 1.396 1.396 0 0 1 29.132 3.144 A 1.998 1.998 0 0 1 29.162 3.45 L 29.162 5.638 Q 29.162 6.073 29.236 6.39 A 1.707 1.707 0 0 0 29.329 6.68 L 29.329 6.75 Z M 10.38 4.351 L 10.38 4.425 Q 10.38 5.511 9.883 6.174 A 1.57 1.57 0 0 1 8.745 6.828 A 2.013 2.013 0 0 1 8.539 6.838 A 2.196 2.196 0 0 1 7.953 6.764 A 1.598 1.598 0 0 1 7.176 6.289 L 7.176 8.578 L 6.363 8.578 L 6.363 1.995 L 7.106 1.995 L 7.146 2.522 A 1.619 1.619 0 0 1 8.285 1.919 A 2.319 2.319 0 0 1 8.525 1.907 A 1.829 1.829 0 0 1 9.163 2.014 A 1.597 1.597 0 0 1 9.881 2.553 Q 10.38 3.199 10.38 4.351 Z M 15.429 4.351 L 15.429 4.425 Q 15.429 5.511 14.933 6.174 A 1.57 1.57 0 0 1 13.794 6.828 A 2.013 2.013 0 0 1 13.588 6.838 A 2.196 2.196 0 0 1 13.002 6.764 A 1.598 1.598 0 0 1 12.226 6.289 L 12.226 8.578 L 11.413 8.578 L 11.413 1.995 L 12.155 1.995 L 12.195 2.522 A 1.619 1.619 0 0 1 13.334 1.919 A 2.319 2.319 0 0 1 13.575 1.907 A 1.829 1.829 0 0 1 14.212 2.014 A 1.597 1.597 0 0 1 14.93 2.553 Q 15.429 3.199 15.429 4.351 Z M 30.727 0.844 L 31.54 0.844 L 31.54 1.995 L 32.427 1.995 L 32.427 2.624 L 31.54 2.624 L 31.54 5.572 Q 31.54 5.858 31.658 6.001 Q 31.777 6.144 32.063 6.144 A 1.046 1.046 0 0 0 32.16 6.138 Q 32.263 6.129 32.402 6.101 A 4.024 4.024 0 0 0 32.449 6.091 L 32.449 6.75 A 2.463 2.463 0 0 1 32.016 6.829 A 2.157 2.157 0 0 1 31.825 6.838 Q 31.378 6.838 31.111 6.616 A 0.856 0.856 0 0 1 31.003 6.508 Q 30.776 6.238 30.735 5.78 A 2.351 2.351 0 0 1 30.727 5.572 L 30.727 2.624 L 29.861 2.624 L 29.861 1.995 L 30.727 1.995 L 30.727 0.844 Z M 17.345 0 L 17.345 6.75 L 16.532 6.75 L 16.532 0 L 17.345 0 Z M 35.345 4.386 L 35.345 4.329 A 3.057 3.057 0 0 1 35.432 3.587 A 2.573 2.573 0 0 1 35.62 3.072 A 2.16 2.16 0 0 1 36.035 2.486 A 1.957 1.957 0 0 1 36.385 2.21 A 2.036 2.036 0 0 1 37.329 1.913 A 2.491 2.491 0 0 1 37.503 1.907 A 2.277 2.277 0 0 1 38.256 2.027 A 1.937 1.937 0 0 1 39.074 2.58 A 2.29 2.29 0 0 1 39.593 3.608 A 3.373 3.373 0 0 1 39.674 4.368 L 39.674 4.425 A 3.114 3.114 0 0 1 39.594 5.142 A 2.577 2.577 0 0 1 39.408 5.671 A 2.056 2.056 0 0 1 38.881 6.361 A 2.001 2.001 0 0 1 38.648 6.53 A 2.045 2.045 0 0 1 37.728 6.829 A 2.529 2.529 0 0 1 37.512 6.838 A 2.262 2.262 0 0 1 36.761 6.718 A 1.938 1.938 0 0 1 35.945 6.166 A 2.297 2.297 0 0 1 35.419 5.111 A 3.357 3.357 0 0 1 35.345 4.386 Z M 19.529 1.995 L 19.529 6.75 L 18.716 6.75 L 18.716 1.995 L 19.529 1.995 Z M 34.26 1.995 L 34.26 6.75 L 33.447 6.75 L 33.447 1.995 L 34.26 1.995 Z M 36.163 4.425 A 2.772 2.772 0 0 0 36.21 4.954 Q 36.27 5.264 36.408 5.51 A 1.545 1.545 0 0 0 36.53 5.695 Q 36.896 6.174 37.512 6.174 A 1.269 1.269 0 0 0 38.001 6.083 Q 38.28 5.967 38.483 5.706 A 1.471 1.471 0 0 0 38.496 5.689 A 1.648 1.648 0 0 0 38.751 5.171 Q 38.82 4.945 38.845 4.672 A 3.655 3.655 0 0 0 38.861 4.329 A 2.687 2.687 0 0 0 38.81 3.789 Q 38.742 3.459 38.585 3.2 A 1.586 1.586 0 0 0 38.49 3.061 A 1.231 1.231 0 0 0 38.074 2.705 Q 37.821 2.575 37.503 2.575 Q 36.913 2.575 36.547 3.035 A 1.515 1.515 0 0 0 36.532 3.054 A 1.589 1.589 0 0 0 36.28 3.552 Q 36.21 3.772 36.182 4.039 A 3.676 3.676 0 0 0 36.163 4.425 Z M 7.176 3.252 L 7.176 5.524 Q 7.541 6.174 8.292 6.174 A 1.184 1.184 0 0 0 8.758 6.086 Q 9.015 5.977 9.204 5.735 A 1.403 1.403 0 0 0 9.222 5.711 A 1.501 1.501 0 0 0 9.439 5.28 Q 9.507 5.073 9.539 4.818 A 3.91 3.91 0 0 0 9.567 4.333 Q 9.567 3.746 9.384 3.339 A 1.503 1.503 0 0 0 9.224 3.063 A 1.086 1.086 0 0 0 8.438 2.605 A 1.414 1.414 0 0 0 8.284 2.597 Q 7.623 2.597 7.258 3.121 A 1.623 1.623 0 0 0 7.176 3.252 Z M 12.226 3.252 L 12.226 5.524 Q 12.59 6.174 13.342 6.174 A 1.184 1.184 0 0 0 13.807 6.086 Q 14.065 5.977 14.253 5.735 A 1.403 1.403 0 0 0 14.271 5.711 A 1.501 1.501 0 0 0 14.488 5.28 Q 14.556 5.073 14.588 4.818 A 3.91 3.91 0 0 0 14.616 4.333 Q 14.616 3.746 14.433 3.339 A 1.503 1.503 0 0 0 14.273 3.063 A 1.086 1.086 0 0 0 13.487 2.605 A 1.414 1.414 0 0 0 13.333 2.597 Q 12.673 2.597 12.308 3.121 A 1.623 1.623 0 0 0 12.226 3.252 Z M 2.813 1.393 L 1.727 4.386 L 3.902 4.386 L 2.813 1.393 Z M 28.349 5.418 L 28.349 4.443 L 27.712 4.443 Q 26.218 4.443 26.218 5.317 Q 26.218 5.7 26.473 5.915 A 0.893 0.893 0 0 0 26.886 6.108 A 1.259 1.259 0 0 0 27.127 6.13 A 1.429 1.429 0 0 0 27.853 5.933 A 1.335 1.335 0 0 0 28.148 5.705 A 1.108 1.108 0 0 0 28.349 5.418 Z M 18.65 0.734 Q 18.65 0.536 18.771 0.4 Q 18.883 0.274 19.095 0.264 A 0.783 0.783 0 0 1 19.129 0.264 Q 19.367 0.264 19.49 0.4 A 0.474 0.474 0 0 1 19.612 0.703 A 0.614 0.614 0 0 1 19.613 0.734 A 0.523 0.523 0 0 1 19.588 0.9 A 0.442 0.442 0 0 1 19.49 1.063 Q 19.377 1.184 19.169 1.194 A 0.803 0.803 0 0 1 19.129 1.195 Q 18.957 1.195 18.846 1.126 A 0.362 0.362 0 0 1 18.771 1.063 A 0.456 0.456 0 0 1 18.653 0.788 A 0.605 0.605 0 0 1 18.65 0.734 Z M 33.381 0.734 Q 33.381 0.536 33.502 0.4 Q 33.614 0.274 33.825 0.264 A 0.783 0.783 0 0 1 33.86 0.264 Q 34.097 0.264 34.22 0.4 A 0.474 0.474 0 0 1 34.343 0.703 A 0.614 0.614 0 0 1 34.343 0.734 A 0.523 0.523 0 0 1 34.318 0.9 A 0.442 0.442 0 0 1 34.22 1.063 Q 34.108 1.184 33.9 1.194 A 0.803 0.803 0 0 1 33.86 1.195 Q 33.688 1.195 33.577 1.126 A 0.362 0.362 0 0 1 33.502 1.063 A 0.456 0.456 0 0 1 33.383 0.788 A 0.605 0.605 0 0 1 33.381 0.734 Z" vector-effect="non-scaling-stroke"/></g>
</svg>