<?xml version="1.0" encoding="UTF-8"?>
<svg width="48px" height="48px" viewBox="0 0 48 48" version="1.1" xmlns="http://www.w3.org/2000/svg" xmlns:xlink="http://www.w3.org/1999/xlink">
    <title>Icon-Resource/Management-Governance/Res_Amazon-CloudWatch_Evidently_48_Dark</title>
    <g id="Icon-Resource/Management-Governance/Res_Amazon-CloudWatch_Evidently_48" stroke="none" stroke-width="1" fill="none" fill-rule="evenodd">
        <path transform="translate(12.000000, 8.000000), scale(.65)" d="M9.5,21 C10.879,21 12,22.122 12,23.5 C12,24.878 10.879,26 9.5,26 C8.121,26 7,24.878 7,23.5 C7,22.122 8.121,21 9.5,21 L9.5,21 Z M23.5,12 C24.879,12 26,13.122 26,14.5 C26,15.878 24.879,17 23.5,17 C22.121,17 21,15.878 21,14.5 C21,13.122 22.121,12 23.5,12 L23.5,12 Z M39.5,4 C40.879,4 42,5.122 42,6.5 C42,7.878 40.879,9 39.5,9 C38.121,9 37,7.878 37,6.5 C37,5.122 38.121,4 39.5,4 L39.5,4 Z M9.5,28 C11.981,28 14,25.981 14,23.5 C14,22.89 13.875,22.309 13.654,21.778 L20.496,17.868 L20.451,17.789 C21.254,18.534 22.32,19 23.5,19 C25.981,19 28,16.981 28,14.5 C28,14.053 27.914,13.63 27.793,13.222 L35.898,9.169 C36.718,10.274 38.021,11 39.5,11 C41.981,11 44,8.981 44,6.5 C44,4.019 41.981,2 39.5,2 C37.019,2 35,4.019 35,6.5 C35,6.787 35.033,7.067 35.085,7.339 L26.81,11.477 C25.987,10.576 24.814,10 23.5,10 C21.019,10 19,12.019 19,14.5 C19,15.11 19.125,15.691 19.346,16.222 L12.504,20.132 L12.549,20.211 C11.746,19.466 10.68,19 9.5,19 C7.019,19 5,21.019 5,23.5 C5,25.981 7.019,28 9.5,28 L9.5,28 Z M42,41 C42,42.654 40.654,44 39,44 C37.346,44 36,42.654 36,41 L36,15 L42,15 L42,41 Z M46,13 L32,13 L32,15 L34,15 L34,41 C34,43.757 36.243,46 39,46 C41.757,46 44,43.757 44,41 L44,15 L46,15 L46,13 Z M27,41 C27,42.654 25.654,44 24,44 C22.346,44 21,42.654 21,41 L21,23 L27,23 L27,41 Z M17,23 L19,23 L19,41 C19,43.757 21.243,46 24,46 C26.757,46 29,43.757 29,41 L29,23 L31,23 L31,21 L17,21 L17,23 Z M12,41 C12,42.654 10.654,44 9,44 C7.346,44 6,42.654 6,41 L6,31 L12,31 L12,41 Z M2,31 L4,31 L4,41 C4,43.757 6.243,46 9,46 C11.757,46 14,43.757 14,41 L14,31 L16,31 L16,29 L2,29 L2,31 Z" id="Fill-3" fill="#000000"></path>
    </g><g transform="translate(25, 83)" id="svgGroup" stroke-linecap="round" fill-rule="evenodd" font-size="9pt" stroke="#000" stroke-width="0.25mm" fill="#000" style="stroke:#000;stroke-width:0.25mm;fill:#000"><path d="M 23.801 0.352 L 24.812 4.733 L 24.935 5.577 L 25.115 4.816 L 26.38 0.352 L 27.092 0.352 L 28.327 4.816 L 28.503 5.59 L 28.639 4.729 L 29.632 0.352 L 30.481 0.352 L 28.929 6.75 L 28.16 6.75 L 26.842 2.087 L 26.741 1.6 L 26.64 2.087 L 25.273 6.75 L 24.504 6.75 L 22.957 0.352 L 23.801 0.352 Z M 54.62 3.103 L 54.62 3.792 L 51.847 3.792 L 51.847 6.06 L 55.068 6.06 L 55.068 6.75 L 51.003 6.75 L 51.003 0.352 L 55.024 0.352 L 55.024 1.046 L 51.847 1.046 L 51.847 3.103 L 54.62 3.103 Z M 4.078 4.72 L 4.926 4.72 A 3.016 3.016 0 0 1 4.765 5.416 A 2.099 2.099 0 0 1 4.177 6.286 Q 3.546 6.838 2.501 6.838 A 2.553 2.553 0 0 1 1.631 6.696 A 2.194 2.194 0 0 1 0.683 6.025 A 2.789 2.789 0 0 1 0.122 4.901 Q 0.015 4.484 0.002 3.992 A 5.262 5.262 0 0 1 0 3.85 L 0 3.234 A 4.251 4.251 0 0 1 0.07 2.445 A 3.229 3.229 0 0 1 0.319 1.666 A 2.539 2.539 0 0 1 0.774 0.99 A 2.26 2.26 0 0 1 1.222 0.626 A 2.415 2.415 0 0 1 2.248 0.281 A 3.027 3.027 0 0 1 2.575 0.264 A 2.962 2.962 0 0 1 3.281 0.343 A 2.065 2.065 0 0 1 4.21 0.833 A 2.16 2.16 0 0 1 4.805 1.795 A 3.086 3.086 0 0 1 4.926 2.408 L 4.078 2.408 Q 4.009 1.929 3.84 1.616 A 1.223 1.223 0 0 0 3.601 1.301 A 1.207 1.207 0 0 0 3.096 1.024 Q 2.909 0.971 2.686 0.961 A 2.396 2.396 0 0 0 2.575 0.958 A 1.753 1.753 0 0 0 1.997 1.049 A 1.463 1.463 0 0 0 1.307 1.556 A 1.989 1.989 0 0 0 0.993 2.175 Q 0.848 2.636 0.848 3.256 L 0.848 3.876 Q 0.848 4.917 1.283 5.533 A 1.38 1.38 0 0 0 2.282 6.135 A 1.814 1.814 0 0 0 2.501 6.148 A 2.497 2.497 0 0 0 2.908 6.117 Q 3.127 6.08 3.303 6.002 A 1.155 1.155 0 0 0 3.579 5.829 Q 3.955 5.511 4.078 4.72 Z M 44.503 0 L 44.503 2.571 A 1.767 1.767 0 0 1 45.17 2.053 A 1.832 1.832 0 0 1 45.91 1.907 A 1.905 1.905 0 0 1 46.543 2.004 Q 47.385 2.3 47.428 3.506 A 3.668 3.668 0 0 1 47.43 3.608 L 47.43 6.75 L 46.617 6.75 L 46.617 3.604 A 1.837 1.837 0 0 0 46.595 3.324 Q 46.545 3.017 46.382 2.843 Q 46.196 2.645 45.843 2.606 A 1.66 1.66 0 0 0 45.664 2.597 A 1.253 1.253 0 0 0 45.249 2.664 A 1.123 1.123 0 0 0 44.969 2.808 A 1.432 1.432 0 0 0 44.503 3.362 L 44.503 6.75 L 43.69 6.75 L 43.69 0 L 44.503 0 Z M 82.723 1.995 L 83.909 5.559 L 85.017 1.995 L 85.887 1.995 L 83.975 7.484 Q 83.531 8.67 82.565 8.67 L 82.411 8.657 L 82.107 8.6 L 82.107 7.941 L 82.327 7.958 Q 82.607 7.958 82.803 7.882 A 0.75 0.75 0 0 0 82.971 7.792 A 0.749 0.749 0 0 0 83.131 7.629 Q 83.249 7.47 83.339 7.215 A 2.575 2.575 0 0 0 83.351 7.181 L 83.531 6.697 L 81.835 1.995 L 82.723 1.995 Z M 72.264 1.995 L 73.033 1.995 L 73.059 2.593 Q 73.595 1.918 74.455 1.907 A 2.234 2.234 0 0 1 74.483 1.907 A 1.905 1.905 0 0 1 75.116 2.004 Q 75.958 2.3 76.001 3.506 A 3.668 3.668 0 0 1 76.003 3.608 L 76.003 6.75 L 75.19 6.75 L 75.19 3.604 A 1.837 1.837 0 0 0 75.168 3.324 Q 75.118 3.017 74.955 2.843 Q 74.769 2.645 74.416 2.606 A 1.66 1.66 0 0 0 74.237 2.597 A 1.253 1.253 0 0 0 73.823 2.664 A 1.123 1.123 0 0 0 73.543 2.808 A 1.432 1.432 0 0 0 73.077 3.362 L 73.077 6.75 L 72.264 6.75 L 72.264 1.995 Z M 16.22 6.75 L 16.203 6.28 A 1.526 1.526 0 0 1 15.377 6.775 Q 15.126 6.836 14.829 6.838 A 2.996 2.996 0 0 1 14.81 6.838 A 2.086 2.086 0 0 1 14.35 6.79 Q 13.919 6.693 13.652 6.396 A 1.41 1.41 0 0 1 13.369 5.899 Q 13.252 5.556 13.25 5.089 L 13.25 1.995 L 14.063 1.995 L 14.063 5.067 Q 14.063 6.037 14.77 6.137 A 1.229 1.229 0 0 0 14.941 6.148 A 1.927 1.927 0 0 0 15.392 6.099 Q 15.955 5.964 16.181 5.454 L 16.181 1.995 L 16.994 1.995 L 16.994 6.75 L 16.22 6.75 Z M 42.007 5.251 L 42.776 5.251 A 1.432 1.432 0 0 1 42.577 5.901 A 1.772 1.772 0 0 1 42.495 6.029 A 1.828 1.828 0 0 1 41.886 6.574 A 2.169 2.169 0 0 1 41.803 6.618 A 1.997 1.997 0 0 1 40.887 6.838 A 2.346 2.346 0 0 1 40.19 6.739 A 1.839 1.839 0 0 1 39.342 6.19 A 2.171 2.171 0 0 1 38.878 5.31 Q 38.769 4.909 38.769 4.417 L 38.769 4.28 A 3.24 3.24 0 0 1 38.832 3.624 A 2.57 2.57 0 0 1 39.023 3.045 A 2.008 2.008 0 0 1 39.463 2.431 A 1.892 1.892 0 0 1 39.755 2.206 A 1.943 1.943 0 0 1 40.512 1.934 A 2.529 2.529 0 0 1 40.882 1.907 A 2.196 2.196 0 0 1 41.53 1.999 A 1.786 1.786 0 0 1 42.212 2.386 A 1.693 1.693 0 0 1 42.77 3.535 A 2.239 2.239 0 0 1 42.776 3.63 L 42.007 3.63 Q 41.972 3.168 41.658 2.872 A 1.078 1.078 0 0 0 40.929 2.576 A 1.402 1.402 0 0 0 40.882 2.575 A 1.374 1.374 0 0 0 40.461 2.637 A 1.081 1.081 0 0 0 39.922 3.021 A 1.469 1.469 0 0 0 39.695 3.468 Q 39.63 3.674 39.602 3.923 A 3.514 3.514 0 0 0 39.582 4.311 L 39.582 4.465 Q 39.582 5.287 39.92 5.73 A 1.1 1.1 0 0 0 40.707 6.165 A 1.611 1.611 0 0 0 40.887 6.174 A 1.171 1.171 0 0 0 41.647 5.911 A 1.007 1.007 0 0 0 41.891 5.629 A 0.914 0.914 0 0 0 42.007 5.251 Z M 34.932 6.75 L 34.08 6.75 A 0.632 0.632 0 0 1 34.044 6.66 Q 34.013 6.562 33.988 6.41 A 3.997 3.997 0 0 1 33.965 6.249 Q 33.398 6.838 32.612 6.838 A 2.033 2.033 0 0 1 32.083 6.772 A 1.529 1.529 0 0 1 31.458 6.44 Q 31.008 6.042 31.008 5.432 Q 31.008 4.689 31.573 4.278 Q 32.137 3.867 33.161 3.867 L 33.952 3.867 L 33.952 3.494 A 1.152 1.152 0 0 0 33.916 3.199 A 0.828 0.828 0 0 0 33.697 2.815 Q 33.481 2.6 33.091 2.568 A 1.748 1.748 0 0 0 32.946 2.562 Q 32.511 2.562 32.216 2.782 Q 31.922 3.001 31.922 3.313 L 31.105 3.313 A 1.041 1.041 0 0 1 31.229 2.825 A 1.409 1.409 0 0 1 31.357 2.626 Q 31.61 2.294 32.043 2.101 A 2.249 2.249 0 0 1 32.818 1.913 A 2.669 2.669 0 0 1 32.994 1.907 A 2.65 2.65 0 0 1 33.512 1.955 Q 33.819 2.016 34.058 2.156 A 1.439 1.439 0 0 1 34.282 2.318 A 1.396 1.396 0 0 1 34.735 3.144 A 1.998 1.998 0 0 1 34.765 3.45 L 34.765 5.638 Q 34.765 6.073 34.839 6.39 A 1.707 1.707 0 0 0 34.932 6.68 L 34.932 6.75 Z M 18.031 4.395 L 18.031 4.333 A 3.762 3.762 0 0 1 18.098 3.602 Q 18.185 3.16 18.388 2.812 A 2.148 2.148 0 0 1 18.549 2.573 Q 19.068 1.907 19.907 1.907 A 1.964 1.964 0 0 1 20.505 1.994 A 1.559 1.559 0 0 1 21.23 2.479 L 21.23 0 L 22.043 0 L 22.043 6.75 L 21.296 6.75 L 21.256 6.24 Q 20.769 6.838 19.898 6.838 A 1.6 1.6 0 0 1 18.678 6.31 A 2.078 2.078 0 0 1 18.552 6.161 A 2.405 2.405 0 0 1 18.127 5.255 Q 18.043 4.912 18.032 4.51 A 4.425 4.425 0 0 1 18.031 4.395 Z M 62.222 4.395 L 62.222 4.333 A 3.762 3.762 0 0 1 62.289 3.602 Q 62.377 3.16 62.579 2.812 A 2.148 2.148 0 0 1 62.741 2.573 Q 63.259 1.907 64.099 1.907 A 1.964 1.964 0 0 1 64.697 1.994 A 1.559 1.559 0 0 1 65.421 2.479 L 65.421 0 L 66.234 0 L 66.234 6.75 L 65.487 6.75 L 65.448 6.24 Q 64.96 6.838 64.09 6.838 A 1.6 1.6 0 0 1 62.869 6.31 A 2.078 2.078 0 0 1 62.743 6.161 A 2.405 2.405 0 0 1 62.318 5.255 Q 62.234 4.912 62.224 4.51 A 4.425 4.425 0 0 1 62.222 4.395 Z M 67.289 4.504 L 67.289 4.355 A 3.17 3.17 0 0 1 67.365 3.646 A 2.581 2.581 0 0 1 67.559 3.092 A 2.191 2.191 0 0 1 68.007 2.466 A 2.033 2.033 0 0 1 68.315 2.221 Q 68.801 1.907 69.368 1.907 A 2.254 2.254 0 0 1 69.981 1.986 A 1.639 1.639 0 0 1 70.809 2.518 Q 71.323 3.129 71.323 4.267 L 71.323 4.605 L 68.102 4.605 A 2.111 2.111 0 0 0 68.173 5.114 A 1.516 1.516 0 0 0 68.513 5.741 A 1.282 1.282 0 0 0 69.447 6.173 A 1.652 1.652 0 0 0 69.513 6.174 A 1.763 1.763 0 0 0 69.841 6.145 Q 70.065 6.103 70.242 5.999 A 1.827 1.827 0 0 0 70.751 5.551 A 2.068 2.068 0 0 0 70.765 5.533 L 71.262 5.919 A 1.926 1.926 0 0 1 69.862 6.811 A 2.749 2.749 0 0 1 69.469 6.838 A 2.394 2.394 0 0 1 68.718 6.725 A 1.974 1.974 0 0 1 67.896 6.203 Q 67.289 5.568 67.289 4.504 Z M 56.237 1.995 L 57.445 5.647 L 58.623 1.995 L 59.454 1.995 L 57.749 6.75 L 57.129 6.75 L 55.406 1.995 L 56.237 1.995 Z M 36.33 0.844 L 37.143 0.844 L 37.143 1.995 L 38.03 1.995 L 38.03 2.624 L 37.143 2.624 L 37.143 5.572 Q 37.143 5.858 37.261 6.001 Q 37.38 6.144 37.666 6.144 A 1.046 1.046 0 0 0 37.763 6.138 Q 37.866 6.129 38.006 6.101 A 4.024 4.024 0 0 0 38.052 6.091 L 38.052 6.75 A 2.463 2.463 0 0 1 37.62 6.829 A 2.157 2.157 0 0 1 37.428 6.838 Q 36.981 6.838 36.715 6.616 A 0.856 0.856 0 0 1 36.606 6.508 Q 36.379 6.238 36.338 5.78 A 2.351 2.351 0 0 1 36.33 5.572 L 36.33 2.624 L 35.464 2.624 L 35.464 1.995 L 36.33 1.995 L 36.33 0.844 Z M 77.52 0.844 L 78.333 0.844 L 78.333 1.995 L 79.22 1.995 L 79.22 2.624 L 78.333 2.624 L 78.333 5.572 Q 78.333 5.858 78.451 6.001 Q 78.57 6.144 78.856 6.144 A 1.046 1.046 0 0 0 78.953 6.138 Q 79.056 6.129 79.196 6.101 A 4.024 4.024 0 0 0 79.242 6.091 L 79.242 6.75 A 2.463 2.463 0 0 1 78.809 6.829 A 2.157 2.157 0 0 1 78.618 6.838 Q 78.171 6.838 77.904 6.616 A 0.856 0.856 0 0 1 77.796 6.508 Q 77.569 6.238 77.528 5.78 A 2.351 2.351 0 0 1 77.52 5.572 L 77.52 2.624 L 76.654 2.624 L 76.654 1.995 L 77.52 1.995 L 77.52 0.844 Z M 6.834 0 L 6.834 6.75 L 6.021 6.75 L 6.021 0 L 6.834 0 Z M 81.053 0 L 81.053 6.75 L 80.24 6.75 L 80.24 0 L 81.053 0 Z M 7.919 4.386 L 7.919 4.329 A 3.057 3.057 0 0 1 8.006 3.587 A 2.573 2.573 0 0 1 8.194 3.072 A 2.16 2.16 0 0 1 8.608 2.486 A 1.957 1.957 0 0 1 8.958 2.21 A 2.036 2.036 0 0 1 9.903 1.913 A 2.491 2.491 0 0 1 10.077 1.907 A 2.277 2.277 0 0 1 10.83 2.027 A 1.937 1.937 0 0 1 11.648 2.58 A 2.29 2.29 0 0 1 12.167 3.608 A 3.373 3.373 0 0 1 12.248 4.368 L 12.248 4.425 A 3.114 3.114 0 0 1 12.168 5.142 A 2.577 2.577 0 0 1 11.982 5.671 A 2.056 2.056 0 0 1 11.454 6.361 A 2.001 2.001 0 0 1 11.221 6.53 A 2.045 2.045 0 0 1 10.302 6.829 A 2.529 2.529 0 0 1 10.085 6.838 A 2.262 2.262 0 0 1 9.335 6.718 A 1.938 1.938 0 0 1 8.519 6.166 A 2.297 2.297 0 0 1 7.993 5.111 A 3.357 3.357 0 0 1 7.919 4.386 Z M 61.119 1.995 L 61.119 6.75 L 60.306 6.75 L 60.306 1.995 L 61.119 1.995 Z M 8.736 4.425 A 2.772 2.772 0 0 0 8.784 4.954 Q 8.844 5.264 8.981 5.51 A 1.545 1.545 0 0 0 9.103 5.695 Q 9.47 6.174 10.085 6.174 A 1.269 1.269 0 0 0 10.575 6.083 Q 10.854 5.967 11.057 5.706 A 1.471 1.471 0 0 0 11.07 5.689 A 1.648 1.648 0 0 0 11.325 5.171 Q 11.393 4.945 11.419 4.672 A 3.655 3.655 0 0 0 11.435 4.329 A 2.687 2.687 0 0 0 11.383 3.789 Q 11.316 3.459 11.158 3.2 A 1.586 1.586 0 0 0 11.063 3.061 A 1.231 1.231 0 0 0 10.648 2.705 Q 10.395 2.575 10.077 2.575 Q 9.487 2.575 9.121 3.035 A 1.515 1.515 0 0 0 9.106 3.054 A 1.589 1.589 0 0 0 8.853 3.552 Q 8.784 3.772 8.756 4.039 A 3.676 3.676 0 0 0 8.736 4.425 Z M 21.23 5.454 L 21.23 3.27 A 1.375 1.375 0 0 0 20.918 2.874 Q 20.594 2.597 20.109 2.597 A 1.238 1.238 0 0 0 19.683 2.668 A 1.068 1.068 0 0 0 19.178 3.059 A 1.51 1.51 0 0 0 18.969 3.484 Q 18.903 3.689 18.872 3.939 A 3.955 3.955 0 0 0 18.844 4.425 A 3.162 3.162 0 0 0 18.88 4.918 Q 18.921 5.178 19.009 5.389 A 1.474 1.474 0 0 0 19.178 5.691 A 1.06 1.06 0 0 0 19.94 6.139 A 1.391 1.391 0 0 0 20.101 6.148 Q 20.874 6.148 21.23 5.454 Z M 65.421 5.454 L 65.421 3.27 A 1.375 1.375 0 0 0 65.11 2.874 Q 64.786 2.597 64.301 2.597 A 1.238 1.238 0 0 0 63.874 2.668 A 1.068 1.068 0 0 0 63.369 3.059 A 1.51 1.51 0 0 0 63.16 3.484 Q 63.094 3.689 63.063 3.939 A 3.955 3.955 0 0 0 63.035 4.425 A 3.162 3.162 0 0 0 63.071 4.918 Q 63.112 5.178 63.2 5.389 A 1.474 1.474 0 0 0 63.369 5.691 A 1.06 1.06 0 0 0 64.131 6.139 A 1.391 1.391 0 0 0 64.292 6.148 Q 65.065 6.148 65.421 5.454 Z M 33.952 5.418 L 33.952 4.443 L 33.315 4.443 Q 31.821 4.443 31.821 5.317 Q 31.821 5.7 32.076 5.915 A 0.893 0.893 0 0 0 32.489 6.108 A 1.259 1.259 0 0 0 32.731 6.13 A 1.429 1.429 0 0 0 33.456 5.933 A 1.335 1.335 0 0 0 33.751 5.705 A 1.108 1.108 0 0 0 33.952 5.418 Z M 68.128 3.938 L 70.51 3.938 L 70.51 3.876 Q 70.484 3.417 70.314 3.111 A 1.13 1.13 0 0 0 70.176 2.916 A 0.983 0.983 0 0 0 69.522 2.584 A 1.39 1.39 0 0 0 69.368 2.575 A 1.106 1.106 0 0 0 68.845 2.698 A 1.14 1.14 0 0 0 68.542 2.933 A 1.417 1.417 0 0 0 68.265 3.379 Q 68.191 3.563 68.151 3.785 A 2.741 2.741 0 0 0 68.128 3.938 Z M 60.24 0.734 Q 60.24 0.536 60.361 0.4 Q 60.473 0.274 60.685 0.264 A 0.783 0.783 0 0 1 60.719 0.264 Q 60.957 0.264 61.08 0.4 A 0.474 0.474 0 0 1 61.202 0.703 A 0.614 0.614 0 0 1 61.203 0.734 A 0.523 0.523 0 0 1 61.177 0.9 A 0.442 0.442 0 0 1 61.08 1.063 Q 60.967 1.184 60.759 1.194 A 0.803 0.803 0 0 1 60.719 1.195 Q 60.547 1.195 60.436 1.126 A 0.362 0.362 0 0 1 60.361 1.063 A 0.456 0.456 0 0 1 60.243 0.788 A 0.605 0.605 0 0 1 60.24 0.734 Z" vector-effect="non-scaling-stroke"/></g><g transform="translate(25, 93)" id="svgGroup" stroke-linecap="round" fill-rule="evenodd" font-size="9pt" stroke="#000" stroke-width="0.25mm" fill="#000" style="stroke:#000;stroke-width:0.25mm;fill:#000"><path d="M 29.544 6.75 L 27.888 4.548 L 27.378 5.08 L 27.378 6.75 L 26.565 6.75 L 26.565 0 L 27.378 0 L 27.378 4.083 L 27.813 3.56 L 29.294 1.995 L 30.283 1.995 L 28.433 3.981 L 30.498 6.75 L 29.544 6.75 Z M 22.408 6.75 L 21.555 6.75 A 0.632 0.632 0 0 1 21.52 6.66 Q 21.488 6.562 21.464 6.41 A 3.997 3.997 0 0 1 21.441 6.249 Q 20.874 6.838 20.087 6.838 A 2.033 2.033 0 0 1 19.558 6.772 A 1.529 1.529 0 0 1 18.934 6.44 Q 18.483 6.042 18.483 5.432 Q 18.483 4.689 19.048 4.278 Q 19.613 3.867 20.637 3.867 L 21.428 3.867 L 21.428 3.494 A 1.152 1.152 0 0 0 21.392 3.199 A 0.828 0.828 0 0 0 21.173 2.815 Q 20.957 2.6 20.566 2.568 A 1.748 1.748 0 0 0 20.421 2.562 Q 19.986 2.562 19.692 2.782 Q 19.397 3.001 19.397 3.313 L 18.58 3.313 A 1.041 1.041 0 0 1 18.705 2.825 A 1.409 1.409 0 0 1 18.833 2.626 Q 19.085 2.294 19.518 2.101 A 2.249 2.249 0 0 1 20.294 1.913 A 2.669 2.669 0 0 1 20.47 1.907 A 2.65 2.65 0 0 1 20.987 1.955 Q 21.294 2.016 21.533 2.156 A 1.439 1.439 0 0 1 21.757 2.318 A 1.396 1.396 0 0 1 22.211 3.144 A 1.998 1.998 0 0 1 22.241 3.45 L 22.241 5.638 Q 22.241 6.073 22.314 6.39 A 1.707 1.707 0 0 0 22.408 6.68 L 22.408 6.75 Z M 3.731 0.352 L 3.731 4.601 L 4.619 4.601 L 4.619 5.265 L 3.731 5.265 L 3.731 6.75 L 2.914 6.75 L 2.914 5.265 L 0 5.265 L 0 4.786 L 2.865 0.352 L 3.731 0.352 Z M 14.616 6.75 L 12.845 6.75 L 12.845 0.352 L 14.651 0.352 Q 15.486 0.352 16.128 0.721 Q 16.77 1.09 17.119 1.771 A 3.19 3.19 0 0 1 17.436 2.8 A 4.073 4.073 0 0 1 17.473 3.335 L 17.473 3.744 Q 17.473 4.649 17.123 5.331 A 2.457 2.457 0 0 1 16.126 6.376 Q 15.478 6.741 14.616 6.75 Z M 9.129 2.592 A 1.544 1.544 0 0 0 9.233 2.021 A 2.226 2.226 0 0 0 9.211 1.707 A 1.566 1.566 0 0 0 8.712 0.738 A 1.754 1.754 0 0 0 7.946 0.333 A 2.443 2.443 0 0 0 7.348 0.264 A 2.539 2.539 0 0 0 6.838 0.312 A 1.767 1.767 0 0 0 5.981 0.738 Q 5.462 1.213 5.462 2.021 A 1.808 1.808 0 0 0 5.463 2.058 A 1.499 1.499 0 0 0 5.708 2.87 A 1.626 1.626 0 0 0 5.87 3.077 A 1.726 1.726 0 0 0 6.381 3.454 A 2.119 2.119 0 0 0 6.281 3.5 A 1.738 1.738 0 0 0 5.596 4.087 A 1.629 1.629 0 0 0 5.313 5.023 A 2.272 2.272 0 0 0 5.323 5.237 A 1.63 1.63 0 0 0 5.869 6.344 A 1.895 1.895 0 0 0 6.719 6.771 A 2.797 2.797 0 0 0 7.348 6.838 A 2.796 2.796 0 0 0 7.947 6.777 A 1.925 1.925 0 0 0 8.822 6.346 A 1.578 1.578 0 0 0 9.297 5.62 A 1.989 1.989 0 0 0 9.382 5.023 A 1.581 1.581 0 0 0 9.09 4.087 Q 8.798 3.674 8.297 3.458 Q 8.728 3.248 8.98 2.874 A 1.449 1.449 0 0 0 9.129 2.592 Z M 25.813 1.969 L 25.813 2.725 A 2.251 2.251 0 0 0 25.571 2.698 A 2.782 2.782 0 0 0 25.414 2.694 Q 24.636 2.694 24.344 3.338 A 1.445 1.445 0 0 0 24.328 3.375 L 24.328 6.75 L 23.515 6.75 L 23.515 1.995 L 24.306 1.995 L 24.319 2.544 Q 24.7 1.938 25.382 1.909 A 1.636 1.636 0 0 1 25.453 1.907 Q 25.69 1.907 25.813 1.969 Z M 14.673 1.046 L 13.689 1.046 L 13.689 6.06 L 14.577 6.06 A 2.519 2.519 0 0 0 15.209 5.985 A 1.747 1.747 0 0 0 16.095 5.454 Q 16.554 4.94 16.625 4.059 A 4.165 4.165 0 0 0 16.638 3.727 L 16.638 3.353 Q 16.638 2.562 16.368 2.027 A 1.864 1.864 0 0 0 16.126 1.659 A 1.687 1.687 0 0 0 15.13 1.09 A 2.499 2.499 0 0 0 14.673 1.046 Z M 2.817 1.639 L 0.923 4.601 L 2.914 4.601 L 2.914 1.463 L 2.817 1.639 Z M 8.569 5.005 A 1.375 1.375 0 0 0 8.51 4.592 A 1.109 1.109 0 0 0 8.229 4.131 A 1.148 1.148 0 0 0 7.557 3.807 A 1.593 1.593 0 0 0 7.339 3.792 A 1.466 1.466 0 0 0 6.95 3.841 A 1.086 1.086 0 0 0 6.458 4.126 A 1.123 1.123 0 0 0 6.144 4.762 A 1.572 1.572 0 0 0 6.126 5.005 A 1.48 1.48 0 0 0 6.168 5.367 A 1.019 1.019 0 0 0 6.449 5.862 Q 6.755 6.158 7.288 6.173 A 2.053 2.053 0 0 0 7.348 6.174 Q 7.841 6.174 8.151 5.94 A 1.018 1.018 0 0 0 8.244 5.86 A 1.041 1.041 0 0 0 8.544 5.292 A 1.518 1.518 0 0 0 8.569 5.005 Z M 7.348 0.932 A 1.259 1.259 0 0 0 6.995 0.979 A 0.973 0.973 0 0 0 6.572 1.228 Q 6.275 1.525 6.275 2.035 A 1.325 1.325 0 0 0 6.32 2.387 A 0.994 0.994 0 0 0 6.568 2.823 A 0.974 0.974 0 0 0 7.13 3.108 A 1.382 1.382 0 0 0 7.348 3.125 A 1.279 1.279 0 0 0 7.692 3.08 A 0.952 0.952 0 0 0 8.128 2.823 A 1.018 1.018 0 0 0 8.403 2.26 A 1.426 1.426 0 0 0 8.42 2.035 A 1.282 1.282 0 0 0 8.37 1.668 A 1.013 1.013 0 0 0 8.117 1.239 Q 7.813 0.932 7.348 0.932 Z M 21.428 5.418 L 21.428 4.443 L 20.791 4.443 Q 19.296 4.443 19.296 5.317 Q 19.296 5.7 19.551 5.915 A 0.893 0.893 0 0 0 19.965 6.108 A 1.259 1.259 0 0 0 20.206 6.13 A 1.429 1.429 0 0 0 20.931 5.933 A 1.335 1.335 0 0 0 21.227 5.705 A 1.108 1.108 0 0 0 21.428 5.418 Z" vector-effect="non-scaling-stroke"/></g>
</svgversion="1.0" encoding="UTF-8"?>
<svg width="48px" height="48px" viewBox="0 0 48 48" version="1.1" xmlns="http://www.w3.org/2000/svg" xmlns:xlink="http://www.w3.org/1999/xlink">
    <title>Icon-Resource/Management-Governance/Res_Amazon-CloudWatch_Evidently_48_Dark</title>
    <g id="Icon-Resource/Management-Governance/Res_Amazon-CloudWatch_Evidently_48" stroke="none" stroke-width="1" fill="none" fill-rule="evenodd">
        <path transform="translate(12.000000, 8.000000), scale(.65)" d="M9.5,21 C10.879,21 12,22.122 12,23.5 C12,24.878 10.879,26 9.5,26 C8.121,26 7,24.878 7,23.5 C7,22.122 8.121,21 9.5,21 L9.5,21 Z M23.5,12 C24.879,12 26,13.122 26,14.5 C26,15.878 24.879,17 23.5,17 C22.121,17 21,15.878 21,14.5 C21,13.122 22.121,12 23.5,12 L23.5,12 Z M39.5,4 C40.879,4 42,5.122 42,6.5 C42,7.878 40.879,9 39.5,9 C38.121,9 37,7.878 37,6.5 C37,5.122 38.121,4 39.5,4 L39.5,4 Z M9.5,28 C11.981,28 14,25.981 14,23.5 C14,22.89 13.875,22.309 13.654,21.778 L20.496,17.868 L20.451,17.789 C21.254,18.534 22.32,19 23.5,19 C25.981,19 28,16.981 28,14.5 C28,14.053 27.914,13.63 27.793,13.222 L35.898,9.169 C36.718,10.274 38.021,11 39.5,11 C41.981,11 44,8.981 44,6.5 C44,4.019 41.981,2 39.5,2 C37.019,2 35,4.019 35,6.5 C35,6.787 35.033,7.067 35.085,7.339 L26.81,11.477 C25.987,10.576 24.814,10 23.5,10 C21.019,10 19,12.019 19,14.5 C19,15.11 19.125,15.691 19.346,16.222 L12.504,20.132 L12.549,20.211 C11.746,19.466 10.68,19 9.5,19 C7.019,19 5,21.019 5,23.5 C5,25.981 7.019,28 9.5,28 L9.5,28 Z M42,41 C42,42.654 40.654,44 39,44 C37.346,44 36,42.654 36,41 L36,15 L42,15 L42,41 Z M46,13 L32,13 L32,15 L34,15 L34,41 C34,43.757 36.243,46 39,46 C41.757,46 44,43.757 44,41 L44,15 L46,15 L46,13 Z M27,41 C27,42.654 25.654,44 24,44 C22.346,44 21,42.654 21,41 L21,23 L27,23 L27,41 Z M17,23 L19,23 L19,41 C19,43.757 21.243,46 24,46 C26.757,46 29,43.757 29,41 L29,23 L31,23 L31,21 L17,21 L17,23 Z M12,41 C12,42.654 10.654,44 9,44 C7.346,44 6,42.654 6,41 L6,31 L12,31 L12,41 Z M2,31 L4,31 L4,41 C4,43.757 6.243,46 9,46 C11.757,46 14,43.757 14,41 L14,31 L16,31 L16,29 L2,29 L2,31 Z" id="Fill-3" fill="#000000"></path>
    </g><g transform="translate(25, 83)" id="svgGroup" stroke-linecap="round" fill-rule="evenodd" font-size="9pt" stroke="#000" stroke-width="0.25mm" fill="#000" style="stroke:#000;stroke-width:0.25mm;fill:#000"><path d="M 23.801 0.352 L 24.812 4.733 L 24.935 5.577 L 25.115 4.816 L 26.38 0.352 L 27.092 0.352 L 28.327 4.816 L 28.503 5.59 L 28.639 4.729 L 29.632 0.352 L 30.481 0.352 L 28.929 6.75 L 28.16 6.75 L 26.842 2.087 L 26.741 1.6 L 26.64 2.087 L 25.273 6.75 L 24.504 6.75 L 22.957 0.352 L 23.801 0.352 Z M 54.62 3.103 L 54.62 3.792 L 51.847 3.792 L 51.847 6.06 L 55.068 6.06 L 55.068 6.75 L 51.003 6.75 L 51.003 0.352 L 55.024 0.352 L 55.024 1.046 L 51.847 1.046 L 51.847 3.103 L 54.62 3.103 Z M 4.078 4.72 L 4.926 4.72 A 3.016 3.016 0 0 1 4.765 5.416 A 2.099 2.099 0 0 1 4.177 6.286 Q 3.546 6.838 2.501 6.838 A 2.553 2.553 0 0 1 1.631 6.696 A 2.194 2.194 0 0 1 0.683 6.025 A 2.789 2.789 0 0 1 0.122 4.901 Q 0.015 4.484 0.002 3.992 A 5.262 5.262 0 0 1 0 3.85 L 0 3.234 A 4.251 4.251 0 0 1 0.07 2.445 A 3.229 3.229 0 0 1 0.319 1.666 A 2.539 2.539 0 0 1 0.774 0.99 A 2.26 2.26 0 0 1 1.222 0.626 A 2.415 2.415 0 0 1 2.248 0.281 A 3.027 3.027 0 0 1 2.575 0.264 A 2.962 2.962 0 0 1 3.281 0.343 A 2.065 2.065 0 0 1 4.21 0.833 A 2.16 2.16 0 0 1 4.805 1.795 A 3.086 3.086 0 0 1 4.926 2.408 L 4.078 2.408 Q 4.009 1.929 3.84 1.616 A 1.223 1.223 0 0 0 3.601 1.301 A 1.207 1.207 0 0 0 3.096 1.024 Q 2.909 0.971 2.686 0.961 A 2.396 2.396 0 0 0 2.575 0.958 A 1.753 1.753 0 0 0 1.997 1.049 A 1.463 1.463 0 0 0 1.307 1.556 A 1.989 1.989 0 0 0 0.993 2.175 Q 0.848 2.636 0.848 3.256 L 0.848 3.876 Q 0.848 4.917 1.283 5.533 A 1.38 1.38 0 0 0 2.282 6.135 A 1.814 1.814 0 0 0 2.501 6.148 A 2.497 2.497 0 0 0 2.908 6.117 Q 3.127 6.08 3.303 6.002 A 1.155 1.155 0 0 0 3.579 5.829 Q 3.955 5.511 4.078 4.72 Z M 44.503 0 L 44.503 2.571 A 1.767 1.767 0 0 1 45.17 2.053 A 1.832 1.832 0 0 1 45.91 1.907 A 1.905 1.905 0 0 1 46.543 2.004 Q 47.385 2.3 47.428 3.506 A 3.668 3.668 0 0 1 47.43 3.608 L 47.43 6.75 L 46.617 6.75 L 46.617 3.604 A 1.837 1.837 0 0 0 46.595 3.324 Q 46.545 3.017 46.382 2.843 Q 46.196 2.645 45.843 2.606 A 1.66 1.66 0 0 0 45.664 2.597 A 1.253 1.253 0 0 0 45.249 2.664 A 1.123 1.123 0 0 0 44.969 2.808 A 1.432 1.432 0 0 0 44.503 3.362 L 44.503 6.75 L 43.69 6.75 L 43.69 0 L 44.503 0 Z M 82.723 1.995 L 83.909 5.559 L 85.017 1.995 L 85.887 1.995 L 83.975 7.484 Q 83.531 8.67 82.565 8.67 L 82.411 8.657 L 82.107 8.6 L 82.107 7.941 L 82.327 7.958 Q 82.607 7.958 82.803 7.882 A 0.75 0.75 0 0 0 82.971 7.792 A 0.749 0.749 0 0 0 83.131 7.629 Q 83.249 7.47 83.339 7.215 A 2.575 2.575 0 0 0 83.351 7.181 L 83.531 6.697 L 81.835 1.995 L 82.723 1.995 Z M 72.264 1.995 L 73.033 1.995 L 73.059 2.593 Q 73.595 1.918 74.455 1.907 A 2.234 2.234 0 0 1 74.483 1.907 A 1.905 1.905 0 0 1 75.116 2.004 Q 75.958 2.3 76.001 3.506 A 3.668 3.668 0 0 1 76.003 3.608 L 76.003 6.75 L 75.19 6.75 L 75.19 3.604 A 1.837 1.837 0 0 0 75.168 3.324 Q 75.118 3.017 74.955 2.843 Q 74.769 2.645 74.416 2.606 A 1.66 1.66 0 0 0 74.237 2.597 A 1.253 1.253 0 0 0 73.823 2.664 A 1.123 1.123 0 0 0 73.543 2.808 A 1.432 1.432 0 0 0 73.077 3.362 L 73.077 6.75 L 72.264 6.75 L 72.264 1.995 Z M 16.22 6.75 L 16.203 6.28 A 1.526 1.526 0 0 1 15.377 6.775 Q 15.126 6.836 14.829 6.838 A 2.996 2.996 0 0 1 14.81 6.838 A 2.086 2.086 0 0 1 14.35 6.79 Q 13.919 6.693 13.652 6.396 A 1.41 1.41 0 0 1 13.369 5.899 Q 13.252 5.556 13.25 5.089 L 13.25 1.995 L 14.063 1.995 L 14.063 5.067 Q 14.063 6.037 14.77 6.137 A 1.229 1.229 0 0 0 14.941 6.148 A 1.927 1.927 0 0 0 15.392 6.099 Q 15.955 5.964 16.181 5.454 L 16.181 1.995 L 16.994 1.995 L 16.994 6.75 L 16.22 6.75 Z M 42.007 5.251 L 42.776 5.251 A 1.432 1.432 0 0 1 42.577 5.901 A 1.772 1.772 0 0 1 42.495 6.029 A 1.828 1.828 0 0 1 41.886 6.574 A 2.169 2.169 0 0 1 41.803 6.618 A 1.997 1.997 0 0 1 40.887 6.838 A 2.346 2.346 0 0 1 40.19 6.739 A 1.839 1.839 0 0 1 39.342 6.19 A 2.171 2.171 0 0 1 38.878 5.31 Q 38.769 4.909 38.769 4.417 L 38.769 4.28 A 3.24 3.24 0 0 1 38.832 3.624 A 2.57 2.57 0 0 1 39.023 3.045 A 2.008 2.008 0 0 1 39.463 2.431 A 1.892 1.892 0 0 1 39.755 2.206 A 1.943 1.943 0 0 1 40.512 1.934 A 2.529 2.529 0 0 1 40.882 1.907 A 2.196 2.196 0 0 1 41.53 1.999 A 1.786 1.786 0 0 1 42.212 2.386 A 1.693 1.693 0 0 1 42.77 3.535 A 2.239 2.239 0 0 1 42.776 3.63 L 42.007 3.63 Q 41.972 3.168 41.658 2.872 A 1.078 1.078 0 0 0 40.929 2.576 A 1.402 1.402 0 0 0 40.882 2.575 A 1.374 1.374 0 0 0 40.461 2.637 A 1.081 1.081 0 0 0 39.922 3.021 A 1.469 1.469 0 0 0 39.695 3.468 Q 39.63 3.674 39.602 3.923 A 3.514 3.514 0 0 0 39.582 4.311 L 39.582 4.465 Q 39.582 5.287 39.92 5.73 A 1.1 1.1 0 0 0 40.707 6.165 A 1.611 1.611 0 0 0 40.887 6.174 A 1.171 1.171 0 0 0 41.647 5.911 A 1.007 1.007 0 0 0 41.891 5.629 A 0.914 0.914 0 0 0 42.007 5.251 Z M 34.932 6.75 L 34.08 6.75 A 0.632 0.632 0 0 1 34.044 6.66 Q 34.013 6.562 33.988 6.41 A 3.997 3.997 0 0 1 33.965 6.249 Q 33.398 6.838 32.612 6.838 A 2.033 2.033 0 0 1 32.083 6.772 A 1.529 1.529 0 0 1 31.458 6.44 Q 31.008 6.042 31.008 5.432 Q 31.008 4.689 31.573 4.278 Q 32.137 3.867 33.161 3.867 L 33.952 3.867 L 33.952 3.494 A 1.152 1.152 0 0 0 33.916 3.199 A 0.828 0.828 0 0 0 33.697 2.815 Q 33.481 2.6 33.091 2.568 A 1.748 1.748 0 0 0 32.946 2.562 Q 32.511 2.562 32.216 2.782 Q 31.922 3.001 31.922 3.313 L 31.105 3.313 A 1.041 1.041 0 0 1 31.229 2.825 A 1.409 1.409 0 0 1 31.357 2.626 Q 31.61 2.294 32.043 2.101 A 2.249 2.249 0 0 1 32.818 1.913 A 2.669 2.669 0 0 1 32.994 1.907 A 2.65 2.65 0 0 1 33.512 1.955 Q 33.819 2.016 34.058 2.156 A 1.439 1.439 0 0 1 34.282 2.318 A 1.396 1.396 0 0 1 34.735 3.144 A 1.998 1.998 0 0 1 34.765 3.45 L 34.765 5.638 Q 34.765 6.073 34.839 6.39 A 1.707 1.707 0 0 0 34.932 6.68 L 34.932 6.75 Z M 18.031 4.395 L 18.031 4.333 A 3.762 3.762 0 0 1 18.098 3.602 Q 18.185 3.16 18.388 2.812 A 2.148 2.148 0 0 1 18.549 2.573 Q 19.068 1.907 19.907 1.907 A 1.964 1.964 0 0 1 20.505 1.994 A 1.559 1.559 0 0 1 21.23 2.479 L 21.23 0 L 22.043 0 L 22.043 6.75 L 21.296 6.75 L 21.256 6.24 Q 20.769 6.838 19.898 6.838 A 1.6 1.6 0 0 1 18.678 6.31 A 2.078 2.078 0 0 1 18.552 6.161 A 2.405 2.405 0 0 1 18.127 5.255 Q 18.043 4.912 18.032 4.51 A 4.425 4.425 0 0 1 18.031 4.395 Z M 62.222 4.395 L 62.222 4.333 A 3.762 3.762 0 0 1 62.289 3.602 Q 62.377 3.16 62.579 2.812 A 2.148 2.148 0 0 1 62.741 2.573 Q 63.259 1.907 64.099 1.907 A 1.964 1.964 0 0 1 64.697 1.994 A 1.559 1.559 0 0 1 65.421 2.479 L 65.421 0 L 66.234 0 L 66.234 6.75 L 65.487 6.75 L 65.448 6.24 Q 64.96 6.838 64.09 6.838 A 1.6 1.6 0 0 1 62.869 6.31 A 2.078 2.078 0 0 1 62.743 6.161 A 2.405 2.405 0 0 1 62.318 5.255 Q 62.234 4.912 62.224 4.51 A 4.425 4.425 0 0 1 62.222 4.395 Z M 67.289 4.504 L 67.289 4.355 A 3.17 3.17 0 0 1 67.365 3.646 A 2.581 2.581 0 0 1 67.559 3.092 A 2.191 2.191 0 0 1 68.007 2.466 A 2.033 2.033 0 0 1 68.315 2.221 Q 68.801 1.907 69.368 1.907 A 2.254 2.254 0 0 1 69.981 1.986 A 1.639 1.639 0 0 1 70.809 2.518 Q 71.323 3.129 71.323 4.267 L 71.323 4.605 L 68.102 4.605 A 2.111 2.111 0 0 0 68.173 5.114 A 1.516 1.516 0 0 0 68.513 5.741 A 1.282 1.282 0 0 0 69.447 6.173 A 1.652 1.652 0 0 0 69.513 6.174 A 1.763 1.763 0 0 0 69.841 6.145 Q 70.065 6.103 70.242 5.999 A 1.827 1.827 0 0 0 70.751 5.551 A 2.068 2.068 0 0 0 70.765 5.533 L 71.262 5.919 A 1.926 1.926 0 0 1 69.862 6.811 A 2.749 2.749 0 0 1 69.469 6.838 A 2.394 2.394 0 0 1 68.718 6.725 A 1.974 1.974 0 0 1 67.896 6.203 Q 67.289 5.568 67.289 4.504 Z M 56.237 1.995 L 57.445 5.647 L 58.623 1.995 L 59.454 1.995 L 57.749 6.75 L 57.129 6.75 L 55.406 1.995 L 56.237 1.995 Z M 36.33 0.844 L 37.143 0.844 L 37.143 1.995 L 38.03 1.995 L 38.03 2.624 L 37.143 2.624 L 37.143 5.572 Q 37.143 5.858 37.261 6.001 Q 37.38 6.144 37.666 6.144 A 1.046 1.046 0 0 0 37.763 6.138 Q 37.866 6.129 38.006 6.101 A 4.024 4.024 0 0 0 38.052 6.091 L 38.052 6.75 A 2.463 2.463 0 0 1 37.62 6.829 A 2.157 2.157 0 0 1 37.428 6.838 Q 36.981 6.838 36.715 6.616 A 0.856 0.856 0 0 1 36.606 6.508 Q 36.379 6.238 36.338 5.78 A 2.351 2.351 0 0 1 36.33 5.572 L 36.33 2.624 L 35.464 2.624 L 35.464 1.995 L 36.33 1.995 L 36.33 0.844 Z M 77.52 0.844 L 78.333 0.844 L 78.333 1.995 L 79.22 1.995 L 79.22 2.624 L 78.333 2.624 L 78.333 5.572 Q 78.333 5.858 78.451 6.001 Q 78.57 6.144 78.856 6.144 A 1.046 1.046 0 0 0 78.953 6.138 Q 79.056 6.129 79.196 6.101 A 4.024 4.024 0 0 0 79.242 6.091 L 79.242 6.75 A 2.463 2.463 0 0 1 78.809 6.829 A 2.157 2.157 0 0 1 78.618 6.838 Q 78.171 6.838 77.904 6.616 A 0.856 0.856 0 0 1 77.796 6.508 Q 77.569 6.238 77.528 5.78 A 2.351 2.351 0 0 1 77.52 5.572 L 77.52 2.624 L 76.654 2.624 L 76.654 1.995 L 77.52 1.995 L 77.52 0.844 Z M 6.834 0 L 6.834 6.75 L 6.021 6.75 L 6.021 0 L 6.834 0 Z M 81.053 0 L 81.053 6.75 L 80.24 6.75 L 80.24 0 L 81.053 0 Z M 7.919 4.386 L 7.919 4.329 A 3.057 3.057 0 0 1 8.006 3.587 A 2.573 2.573 0 0 1 8.194 3.072 A 2.16 2.16 0 0 1 8.608 2.486 A 1.957 1.957 0 0 1 8.958 2.21 A 2.036 2.036 0 0 1 9.903 1.913 A 2.491 2.491 0 0 1 10.077 1.907 A 2.277 2.277 0 0 1 10.83 2.027 A 1.937 1.937 0 0 1 11.648 2.58 A 2.29 2.29 0 0 1 12.167 3.608 A 3.373 3.373 0 0 1 12.248 4.368 L 12.248 4.425 A 3.114 3.114 0 0 1 12.168 5.142 A 2.577 2.577 0 0 1 11.982 5.671 A 2.056 2.056 0 0 1 11.454 6.361 A 2.001 2.001 0 0 1 11.221 6.53 A 2.045 2.045 0 0 1 10.302 6.829 A 2.529 2.529 0 0 1 10.085 6.838 A 2.262 2.262 0 0 1 9.335 6.718 A 1.938 1.938 0 0 1 8.519 6.166 A 2.297 2.297 0 0 1 7.993 5.111 A 3.357 3.357 0 0 1 7.919 4.386 Z M 61.119 1.995 L 61.119 6.75 L 60.306 6.75 L 60.306 1.995 L 61.119 1.995 Z M 8.736 4.425 A 2.772 2.772 0 0 0 8.784 4.954 Q 8.844 5.264 8.981 5.51 A 1.545 1.545 0 0 0 9.103 5.695 Q 9.47 6.174 10.085 6.174 A 1.269 1.269 0 0 0 10.575 6.083 Q 10.854 5.967 11.057 5.706 A 1.471 1.471 0 0 0 11.07 5.689 A 1.648 1.648 0 0 0 11.325 5.171 Q 11.393 4.945 11.419 4.672 A 3.655 3.655 0 0 0 11.435 4.329 A 2.687 2.687 0 0 0 11.383 3.789 Q 11.316 3.459 11.158 3.2 A 1.586 1.586 0 0 0 11.063 3.061 A 1.231 1.231 0 0 0 10.648 2.705 Q 10.395 2.575 10.077 2.575 Q 9.487 2.575 9.121 3.035 A 1.515 1.515 0 0 0 9.106 3.054 A 1.589 1.589 0 0 0 8.853 3.552 Q 8.784 3.772 8.756 4.039 A 3.676 3.676 0 0 0 8.736 4.425 Z M 21.23 5.454 L 21.23 3.27 A 1.375 1.375 0 0 0 20.918 2.874 Q 20.594 2.597 20.109 2.597 A 1.238 1.238 0 0 0 19.683 2.668 A 1.068 1.068 0 0 0 19.178 3.059 A 1.51 1.51 0 0 0 18.969 3.484 Q 18.903 3.689 18.872 3.939 A 3.955 3.955 0 0 0 18.844 4.425 A 3.162 3.162 0 0 0 18.88 4.918 Q 18.921 5.178 19.009 5.389 A 1.474 1.474 0 0 0 19.178 5.691 A 1.06 1.06 0 0 0 19.94 6.139 A 1.391 1.391 0 0 0 20.101 6.148 Q 20.874 6.148 21.23 5.454 Z M 65.421 5.454 L 65.421 3.27 A 1.375 1.375 0 0 0 65.11 2.874 Q 64.786 2.597 64.301 2.597 A 1.238 1.238 0 0 0 63.874 2.668 A 1.068 1.068 0 0 0 63.369 3.059 A 1.51 1.51 0 0 0 63.16 3.484 Q 63.094 3.689 63.063 3.939 A 3.955 3.955 0 0 0 63.035 4.425 A 3.162 3.162 0 0 0 63.071 4.918 Q 63.112 5.178 63.2 5.389 A 1.474 1.474 0 0 0 63.369 5.691 A 1.06 1.06 0 0 0 64.131 6.139 A 1.391 1.391 0 0 0 64.292 6.148 Q 65.065 6.148 65.421 5.454 Z M 33.952 5.418 L 33.952 4.443 L 33.315 4.443 Q 31.821 4.443 31.821 5.317 Q 31.821 5.7 32.076 5.915 A 0.893 0.893 0 0 0 32.489 6.108 A 1.259 1.259 0 0 0 32.731 6.13 A 1.429 1.429 0 0 0 33.456 5.933 A 1.335 1.335 0 0 0 33.751 5.705 A 1.108 1.108 0 0 0 33.952 5.418 Z M 68.128 3.938 L 70.51 3.938 L 70.51 3.876 Q 70.484 3.417 70.314 3.111 A 1.13 1.13 0 0 0 70.176 2.916 A 0.983 0.983 0 0 0 69.522 2.584 A 1.39 1.39 0 0 0 69.368 2.575 A 1.106 1.106 0 0 0 68.845 2.698 A 1.14 1.14 0 0 0 68.542 2.933 A 1.417 1.417 0 0 0 68.265 3.379 Q 68.191 3.563 68.151 3.785 A 2.741 2.741 0 0 0 68.128 3.938 Z M 60.24 0.734 Q 60.24 0.536 60.361 0.4 Q 60.473 0.274 60.685 0.264 A 0.783 0.783 0 0 1 60.719 0.264 Q 60.957 0.264 61.08 0.4 A 0.474 0.474 0 0 1 61.202 0.703 A 0.614 0.614 0 0 1 61.203 0.734 A 0.523 0.523 0 0 1 61.177 0.9 A 0.442 0.442 0 0 1 61.08 1.063 Q 60.967 1.184 60.759 1.194 A 0.803 0.803 0 0 1 60.719 1.195 Q 60.547 1.195 60.436 1.126 A 0.362 0.362 0 0 1 60.361 1.063 A 0.456 0.456 0 0 1 60.243 0.788 A 0.605 0.605 0 0 1 60.24 0.734 Z" vector-effect="non-scaling-stroke"/></g><g transform="translate(25, 93)" id="svgGroup" stroke-linecap="round" fill-rule="evenodd" font-size="9pt" stroke="#000" stroke-width="0.25mm" fill="#000" style="stroke:#000;stroke-width:0.25mm;fill:#000"><path d="M 29.544 6.75 L 27.888 4.548 L 27.378 5.08 L 27.378 6.75 L 26.565 6.75 L 26.565 0 L 27.378 0 L 27.378 4.083 L 27.813 3.56 L 29.294 1.995 L 30.283 1.995 L 28.433 3.981 L 30.498 6.75 L 29.544 6.75 Z M 22.408 6.75 L 21.555 6.75 A 0.632 0.632 0 0 1 21.52 6.66 Q 21.488 6.562 21.464 6.41 A 3.997 3.997 0 0 1 21.441 6.249 Q 20.874 6.838 20.087 6.838 A 2.033 2.033 0 0 1 19.558 6.772 A 1.529 1.529 0 0 1 18.934 6.44 Q 18.483 6.042 18.483 5.432 Q 18.483 4.689 19.048 4.278 Q 19.613 3.867 20.637 3.867 L 21.428 3.867 L 21.428 3.494 A 1.152 1.152 0 0 0 21.392 3.199 A 0.828 0.828 0 0 0 21.173 2.815 Q 20.957 2.6 20.566 2.568 A 1.748 1.748 0 0 0 20.421 2.562 Q 19.986 2.562 19.692 2.782 Q 19.397 3.001 19.397 3.313 L 18.58 3.313 A 1.041 1.041 0 0 1 18.705 2.825 A 1.409 1.409 0 0 1 18.833 2.626 Q 19.085 2.294 19.518 2.101 A 2.249 2.249 0 0 1 20.294 1.913 A 2.669 2.669 0 0 1 20.47 1.907 A 2.65 2.65 0 0 1 20.987 1.955 Q 21.294 2.016 21.533 2.156 A 1.439 1.439 0 0 1 21.757 2.318 A 1.396 1.396 0 0 1 22.211 3.144 A 1.998 1.998 0 0 1 22.241 3.45 L 22.241 5.638 Q 22.241 6.073 22.314 6.39 A 1.707 1.707 0 0 0 22.408 6.68 L 22.408 6.75 Z M 3.731 0.352 L 3.731 4.601 L 4.619 4.601 L 4.619 5.265 L 3.731 5.265 L 3.731 6.75 L 2.914 6.75 L 2.914 5.265 L 0 5.265 L 0 4.786 L 2.865 0.352 L 3.731 0.352 Z M 14.616 6.75 L 12.845 6.75 L 12.845 0.352 L 14.651 0.352 Q 15.486 0.352 16.128 0.721 Q 16.77 1.09 17.119 1.771 A 3.19 3.19 0 0 1 17.436 2.8 A 4.073 4.073 0 0 1 17.473 3.335 L 17.473 3.744 Q 17.473 4.649 17.123 5.331 A 2.457 2.457 0 0 1 16.126 6.376 Q 15.478 6.741 14.616 6.75 Z M 9.129 2.592 A 1.544 1.544 0 0 0 9.233 2.021 A 2.226 2.226 0 0 0 9.211 1.707 A 1.566 1.566 0 0 0 8.712 0.738 A 1.754 1.754 0 0 0 7.946 0.333 A 2.443 2.443 0 0 0 7.348 0.264 A 2.539 2.539 0 0 0 6.838 0.312 A 1.767 1.767 0 0 0 5.981 0.738 Q 5.462 1.213 5.462 2.021 A 1.808 1.808 0 0 0 5.463 2.058 A 1.499 1.499 0 0 0 5.708 2.87 A 1.626 1.626 0 0 0 5.87 3.077 A 1.726 1.726 0 0 0 6.381 3.454 A 2.119 2.119 0 0 0 6.281 3.5 A 1.738 1.738 0 0 0 5.596 4.087 A 1.629 1.629 0 0 0 5.313 5.023 A 2.272 2.272 0 0 0 5.323 5.237 A 1.63 1.63 0 0 0 5.869 6.344 A 1.895 1.895 0 0 0 6.719 6.771 A 2.797 2.797 0 0 0 7.348 6.838 A 2.796 2.796 0 0 0 7.947 6.777 A 1.925 1.925 0 0 0 8.822 6.346 A 1.578 1.578 0 0 0 9.297 5.62 A 1.989 1.989 0 0 0 9.382 5.023 A 1.581 1.581 0 0 0 9.09 4.087 Q 8.798 3.674 8.297 3.458 Q 8.728 3.248 8.98 2.874 A 1.449 1.449 0 0 0 9.129 2.592 Z M 25.813 1.969 L 25.813 2.725 A 2.251 2.251 0 0 0 25.571 2.698 A 2.782 2.782 0 0 0 25.414 2.694 Q 24.636 2.694 24.344 3.338 A 1.445 1.445 0 0 0 24.328 3.375 L 24.328 6.75 L 23.515 6.75 L 23.515 1.995 L 24.306 1.995 L 24.319 2.544 Q 24.7 1.938 25.382 1.909 A 1.636 1.636 0 0 1 25.453 1.907 Q 25.69 1.907 25.813 1.969 Z M 14.673 1.046 L 13.689 1.046 L 13.689 6.06 L 14.577 6.06 A 2.519 2.519 0 0 0 15.209 5.985 A 1.747 1.747 0 0 0 16.095 5.454 Q 16.554 4.94 16.625 4.059 A 4.165 4.165 0 0 0 16.638 3.727 L 16.638 3.353 Q 16.638 2.562 16.368 2.027 A 1.864 1.864 0 0 0 16.126 1.659 A 1.687 1.687 0 0 0 15.13 1.09 A 2.499 2.499 0 0 0 14.673 1.046 Z M 2.817 1.639 L 0.923 4.601 L 2.914 4.601 L 2.914 1.463 L 2.817 1.639 Z M 8.569 5.005 A 1.375 1.375 0 0 0 8.51 4.592 A 1.109 1.109 0 0 0 8.229 4.131 A 1.148 1.148 0 0 0 7.557 3.807 A 1.593 1.593 0 0 0 7.339 3.792 A 1.466 1.466 0 0 0 6.95 3.841 A 1.086 1.086 0 0 0 6.458 4.126 A 1.123 1.123 0 0 0 6.144 4.762 A 1.572 1.572 0 0 0 6.126 5.005 A 1.48 1.48 0 0 0 6.168 5.367 A 1.019 1.019 0 0 0 6.449 5.862 Q 6.755 6.158 7.288 6.173 A 2.053 2.053 0 0 0 7.348 6.174 Q 7.841 6.174 8.151 5.94 A 1.018 1.018 0 0 0 8.244 5.86 A 1.041 1.041 0 0 0 8.544 5.292 A 1.518 1.518 0 0 0 8.569 5.005 Z M 7.348 0.932 A 1.259 1.259 0 0 0 6.995 0.979 A 0.973 0.973 0 0 0 6.572 1.228 Q 6.275 1.525 6.275 2.035 A 1.325 1.325 0 0 0 6.32 2.387 A 0.994 0.994 0 0 0 6.568 2.823 A 0.974 0.974 0 0 0 7.13 3.108 A 1.382 1.382 0 0 0 7.348 3.125 A 1.279 1.279 0 0 0 7.692 3.08 A 0.952 0.952 0 0 0 8.128 2.823 A 1.018 1.018 0 0 0 8.403 2.26 A 1.426 1.426 0 0 0 8.42 2.035 A 1.282 1.282 0 0 0 8.37 1.668 A 1.013 1.013 0 0 0 8.117 1.239 Q 7.813 0.932 7.348 0.932 Z M 21.428 5.418 L 21.428 4.443 L 20.791 4.443 Q 19.296 4.443 19.296 5.317 Q 19.296 5.7 19.551 5.915 A 0.893 0.893 0 0 0 19.965 6.108 A 1.259 1.259 0 0 0 20.206 6.13 A 1.429 1.429 0 0 0 20.931 5.933 A 1.335 1.335 0 0 0 21.227 5.705 A 1.108 1.108 0 0 0 21.428 5.418 Z" vector-effect="non-scaling-stroke"/></g>
</svg>