<?xml version="1.0" encoding="UTF-8"?>
<svg width="48px" height="48px" viewBox="0 0 48 48" version="1.1" xmlns="http://www.w3.org/2000/svg" xmlns:xlink="http://www.w3.org/1999/xlink">
    <title>Icon-Resource/Management-Governance/Res_Amazon-CloudWatch_Cross-account-Observability_48_Dark</title>
    <g id="Icon-Resource/Management-Governance/Res_Amazon-CloudWatch_Cross-account-Observability_48" stroke="none" stroke-width="1" fill="none" fill-rule="evenodd">
        <path transform="translate(12.000000, 8.000000), scale(.65)" d="M26.014,43.982 C24.911,43.982 24.014,43.085 24.014,41.982 C24.014,40.879 24.911,39.982 26.014,39.982 C27.117,39.982 28.014,40.879 28.014,41.982 C28.014,43.085 27.117,43.982 26.014,43.982 L26.014,43.982 Z M14.014,32.982 C12.911,32.982 12.014,32.085 12.014,30.982 C12.014,29.879 12.911,28.982 14.014,28.982 C15.117,28.982 16.014,29.879 16.014,30.982 C16.014,32.085 15.117,32.982 14.014,32.982 L14.014,32.982 Z M37.014,24.982 C38.117,24.982 39.014,25.879 39.014,26.982 C39.014,28.085 38.117,28.982 37.014,28.982 C35.911,28.982 35.014,28.085 35.014,26.982 C35.014,25.879 35.911,24.982 37.014,24.982 L37.014,24.982 Z M35.851,30.789 C36.222,30.903 36.607,30.982 37.014,30.982 C39.22,30.982 41.014,29.188 41.014,26.982 C41.014,24.776 39.22,22.982 37.014,22.982 C34.808,22.982 33.014,24.776 33.014,26.982 C33.014,28.052 33.442,29.02 34.129,29.739 L27.338,38.225 C26.922,38.077 26.481,37.982 26.014,37.982 C25.455,37.982 24.923,38.099 24.439,38.307 L17.768,32.315 C17.918,31.896 18.014,31.452 18.014,30.982 C18.014,28.776 16.22,26.982 14.014,26.982 C11.808,26.982 10.014,28.776 10.014,30.982 C10.014,31.382 10.091,31.761 10.201,32.125 L2.4,38.192 L3.628,39.772 L11.239,33.852 C11.959,34.549 12.935,34.982 14.014,34.982 C15.019,34.982 15.928,34.597 16.631,33.982 L22.848,39.566 C22.332,40.239 22.014,41.071 22.014,41.982 C22.014,44.188 23.808,45.982 26.014,45.982 C28.22,45.982 30.014,44.188 30.014,41.982 C30.014,40.97 29.624,40.054 29.002,39.349 L35.851,30.789 Z M46.012,27.154 C45.966,29.554 44.986,31.795 43.252,33.464 C41.561,35.092 39.353,35.982 37.018,35.982 C36.959,35.982 36.901,35.982 36.841,35.981 C36.523,35.974 36.206,35.951 35.896,35.913 L36.142,33.928 C36.384,33.958 36.63,33.976 36.879,33.981 C38.742,34.029 40.516,33.321 41.866,32.023 C43.214,30.725 43.977,28.982 44.012,27.116 C44.048,25.25 43.353,23.48 42.055,22.13 C40.756,20.782 39.014,20.019 37.148,19.983 C35.335,19.951 33.512,20.643 32.162,21.941 C30.814,23.239 30.051,24.982 30.016,26.848 C29.992,28.077 30.293,29.293 30.888,30.364 L29.138,31.334 C28.373,29.955 27.986,28.39 28.016,26.809 C28.062,24.41 29.042,22.169 30.776,20.5 C32.509,18.832 34.768,17.943 37.187,17.983 C39.586,18.03 41.827,19.01 43.495,20.744 C45.164,22.478 46.058,24.754 46.012,27.154 L46.012,27.154 Z M25.386,4 C27.28,4 28.821,5.511 28.821,7.37 C28.821,9.228 27.28,10.74 25.386,10.74 C23.492,10.74 21.951,9.228 21.951,7.37 C21.951,5.511 23.492,4 25.386,4 L25.386,4 Z M25.373,13.036 C26.57,13.036 27.742,13.371 28.764,14.006 C29.737,14.61 30.552,15.469 31.121,16.489 L32.868,15.514 C32.133,14.198 31.079,13.089 29.819,12.307 C29.429,12.065 29.018,11.866 28.599,11.692 C29.943,10.713 30.821,9.143 30.821,7.37 C30.821,4.409 28.383,2 25.386,2 C22.389,2 19.951,4.409 19.951,7.37 C19.951,9.139 20.825,10.706 22.165,11.685 C20.398,12.419 18.876,13.741 17.892,15.491 L19.636,16.471 C20.826,14.352 23.025,13.036 25.373,13.036 L25.373,13.036 Z M11.373,17.036 C12.57,17.036 13.742,17.371 14.764,18.006 C16.495,19.081 17.662,20.931 17.951,22.982 L4.793,22.982 C5.259,19.624 8.033,17.036 11.373,17.036 L11.373,17.036 Z M11.386,8 C13.28,8 14.821,9.511 14.821,11.37 C14.821,13.228 13.28,14.74 11.386,14.74 C9.492,14.74 7.951,13.228 7.951,11.37 C7.951,9.511 9.492,8 11.386,8 L11.386,8 Z M3.725,24.982 L19.022,24.982 C19.575,24.982 20.022,24.534 20.022,23.982 C20.022,20.857 18.411,17.916 15.819,16.307 C15.429,16.065 15.018,15.866 14.599,15.692 C15.943,14.713 16.821,13.143 16.821,11.37 C16.821,8.409 14.383,6 11.386,6 C8.389,6 5.951,8.409 5.951,11.37 C5.951,13.137 6.823,14.703 8.161,15.683 C4.98,17.005 2.725,20.224 2.725,23.982 C2.725,24.534 3.172,24.982 3.725,24.982 L3.725,24.982 Z" id="Fill-1" fill="#000000"></path>
    </g><g transform="translate(25, 83)" id="svgGroup" stroke-linecap="round" fill-rule="evenodd" font-size="9pt" stroke="#000" stroke-width="0.25mm" fill="#000" style="stroke:#000;stroke-width:0.25mm;fill:#000"><path d="M 23.801 0.352 L 24.812 4.733 L 24.935 5.577 L 25.115 4.816 L 26.38 0.352 L 27.092 0.352 L 28.327 4.816 L 28.503 5.59 L 28.639 4.729 L 29.632 0.352 L 30.481 0.352 L 28.929 6.75 L 28.16 6.75 L 26.842 2.087 L 26.741 1.6 L 26.64 2.087 L 25.273 6.75 L 24.504 6.75 L 22.957 0.352 L 23.801 0.352 Z M 4.078 4.72 L 4.926 4.72 A 3.016 3.016 0 0 1 4.765 5.416 A 2.099 2.099 0 0 1 4.177 6.286 Q 3.546 6.838 2.501 6.838 A 2.553 2.553 0 0 1 1.631 6.696 A 2.194 2.194 0 0 1 0.683 6.025 A 2.789 2.789 0 0 1 0.122 4.901 Q 0.015 4.484 0.002 3.992 A 5.262 5.262 0 0 1 0 3.85 L 0 3.234 A 4.251 4.251 0 0 1 0.07 2.445 A 3.229 3.229 0 0 1 0.319 1.666 A 2.539 2.539 0 0 1 0.774 0.99 A 2.26 2.26 0 0 1 1.222 0.626 A 2.415 2.415 0 0 1 2.248 0.281 A 3.027 3.027 0 0 1 2.575 0.264 A 2.962 2.962 0 0 1 3.281 0.343 A 2.065 2.065 0 0 1 4.21 0.833 A 2.16 2.16 0 0 1 4.805 1.795 A 3.086 3.086 0 0 1 4.926 2.408 L 4.078 2.408 Q 4.009 1.929 3.84 1.616 A 1.223 1.223 0 0 0 3.601 1.301 A 1.207 1.207 0 0 0 3.096 1.024 Q 2.909 0.971 2.686 0.961 A 2.396 2.396 0 0 0 2.575 0.958 A 1.753 1.753 0 0 0 1.997 1.049 A 1.463 1.463 0 0 0 1.307 1.556 A 1.989 1.989 0 0 0 0.993 2.175 Q 0.848 2.636 0.848 3.256 L 0.848 3.876 Q 0.848 4.917 1.283 5.533 A 1.38 1.38 0 0 0 2.282 6.135 A 1.814 1.814 0 0 0 2.501 6.148 A 2.497 2.497 0 0 0 2.908 6.117 Q 3.127 6.08 3.303 6.002 A 1.155 1.155 0 0 0 3.579 5.829 Q 3.955 5.511 4.078 4.72 Z M 54.861 4.72 L 55.71 4.72 A 3.016 3.016 0 0 1 55.549 5.416 A 2.099 2.099 0 0 1 54.96 6.286 Q 54.33 6.838 53.284 6.838 A 2.553 2.553 0 0 1 52.415 6.696 A 2.194 2.194 0 0 1 51.467 6.025 A 2.789 2.789 0 0 1 50.905 4.901 Q 50.798 4.484 50.785 3.992 A 5.262 5.262 0 0 1 50.783 3.85 L 50.783 3.234 A 4.251 4.251 0 0 1 50.853 2.445 A 3.229 3.229 0 0 1 51.102 1.666 A 2.539 2.539 0 0 1 51.557 0.99 A 2.26 2.26 0 0 1 52.005 0.626 A 2.415 2.415 0 0 1 53.031 0.281 A 3.027 3.027 0 0 1 53.358 0.264 A 2.962 2.962 0 0 1 54.065 0.343 A 2.065 2.065 0 0 1 54.993 0.833 A 2.16 2.16 0 0 1 55.588 1.795 A 3.086 3.086 0 0 1 55.71 2.408 L 54.861 2.408 Q 54.793 1.929 54.623 1.616 A 1.223 1.223 0 0 0 54.385 1.301 A 1.207 1.207 0 0 0 53.879 1.024 Q 53.692 0.971 53.469 0.961 A 2.396 2.396 0 0 0 53.358 0.958 A 1.753 1.753 0 0 0 52.78 1.049 A 1.463 1.463 0 0 0 52.091 1.556 A 1.989 1.989 0 0 0 51.777 2.175 Q 51.631 2.636 51.631 3.256 L 51.631 3.876 Q 51.631 4.917 52.066 5.533 A 1.38 1.38 0 0 0 53.065 6.135 A 1.814 1.814 0 0 0 53.284 6.148 A 2.497 2.497 0 0 0 53.691 6.117 Q 53.911 6.08 54.086 6.002 A 1.155 1.155 0 0 0 54.363 5.829 Q 54.738 5.511 54.861 4.72 Z M 44.503 0 L 44.503 2.571 A 1.767 1.767 0 0 1 45.17 2.053 A 1.832 1.832 0 0 1 45.91 1.907 A 1.905 1.905 0 0 1 46.543 2.004 Q 47.385 2.3 47.428 3.506 A 3.668 3.668 0 0 1 47.43 3.608 L 47.43 6.75 L 46.617 6.75 L 46.617 3.604 A 1.837 1.837 0 0 0 46.595 3.324 Q 46.545 3.017 46.382 2.843 Q 46.196 2.645 45.843 2.606 A 1.66 1.66 0 0 0 45.664 2.597 A 1.253 1.253 0 0 0 45.249 2.664 A 1.123 1.123 0 0 0 44.969 2.808 A 1.432 1.432 0 0 0 44.503 3.362 L 44.503 6.75 L 43.69 6.75 L 43.69 0 L 44.503 0 Z M 68.361 3.393 L 67.544 3.393 Q 67.544 3.059 67.261 2.817 Q 66.977 2.575 66.546 2.575 Q 66.103 2.575 65.852 2.769 A 0.653 0.653 0 0 0 65.677 2.967 Q 65.604 3.098 65.602 3.263 A 0.771 0.771 0 0 0 65.602 3.274 A 0.588 0.588 0 0 0 65.632 3.467 A 0.48 0.48 0 0 0 65.835 3.718 A 1.093 1.093 0 0 0 65.985 3.796 Q 66.149 3.868 66.405 3.937 A 6.581 6.581 0 0 0 66.676 4.003 A 6.318 6.318 0 0 1 67.084 4.108 Q 67.421 4.208 67.663 4.329 A 1.901 1.901 0 0 1 67.919 4.481 Q 68.055 4.579 68.153 4.692 A 1.06 1.06 0 0 1 68.223 4.783 A 1.024 1.024 0 0 1 68.385 5.191 A 1.388 1.388 0 0 1 68.405 5.432 Q 68.405 6.069 67.896 6.453 Q 67.413 6.817 66.659 6.837 A 3.337 3.337 0 0 1 66.573 6.838 A 2.746 2.746 0 0 1 66.038 6.788 A 2.124 2.124 0 0 1 65.562 6.636 A 1.771 1.771 0 0 1 65.128 6.358 A 1.54 1.54 0 0 1 64.874 6.071 Q 64.626 5.708 64.626 5.287 L 65.439 5.287 A 0.932 0.932 0 0 0 65.512 5.612 A 0.827 0.827 0 0 0 65.766 5.935 A 1.072 1.072 0 0 0 66.169 6.128 Q 66.323 6.167 66.505 6.173 A 2.013 2.013 0 0 0 66.573 6.174 A 1.863 1.863 0 0 0 66.868 6.152 Q 67.03 6.126 67.162 6.07 A 0.941 0.941 0 0 0 67.313 5.988 A 0.689 0.689 0 0 0 67.478 5.837 A 0.554 0.554 0 0 0 67.592 5.489 A 0.698 0.698 0 0 0 67.556 5.258 A 0.581 0.581 0 0 0 67.344 4.977 A 1.05 1.05 0 0 0 67.175 4.878 Q 66.986 4.788 66.691 4.712 A 5.392 5.392 0 0 0 66.478 4.663 A 6.342 6.342 0 0 1 66.117 4.575 Q 65.748 4.473 65.498 4.346 Q 65.2 4.194 65.029 3.994 A 1.017 1.017 0 0 1 64.962 3.907 Q 64.789 3.652 64.789 3.3 A 1.206 1.206 0 0 1 65.188 2.396 A 1.694 1.694 0 0 1 65.283 2.312 A 1.752 1.752 0 0 1 66.066 1.952 A 2.471 2.471 0 0 1 66.546 1.907 A 2.559 2.559 0 0 1 67.11 1.966 A 1.757 1.757 0 0 1 67.858 2.325 Q 68.361 2.742 68.361 3.393 Z M 73.002 3.393 L 72.185 3.393 Q 72.185 3.059 71.901 2.817 Q 71.618 2.575 71.187 2.575 Q 70.743 2.575 70.493 2.769 A 0.653 0.653 0 0 0 70.318 2.967 Q 70.245 3.098 70.242 3.263 A 0.771 0.771 0 0 0 70.242 3.274 A 0.588 0.588 0 0 0 70.272 3.467 A 0.48 0.48 0 0 0 70.475 3.718 A 1.093 1.093 0 0 0 70.625 3.796 Q 70.79 3.868 71.045 3.937 A 6.581 6.581 0 0 0 71.317 4.003 A 6.318 6.318 0 0 1 71.724 4.108 Q 72.061 4.208 72.303 4.329 A 1.901 1.901 0 0 1 72.559 4.481 Q 72.696 4.579 72.793 4.692 A 1.06 1.06 0 0 1 72.864 4.783 A 1.024 1.024 0 0 1 73.026 5.191 A 1.388 1.388 0 0 1 73.046 5.432 Q 73.046 6.069 72.536 6.453 Q 72.054 6.817 71.3 6.837 A 3.337 3.337 0 0 1 71.213 6.838 A 2.746 2.746 0 0 1 70.679 6.788 A 2.124 2.124 0 0 1 70.203 6.636 A 1.771 1.771 0 0 1 69.769 6.358 A 1.54 1.54 0 0 1 69.515 6.071 Q 69.267 5.708 69.267 5.287 L 70.08 5.287 A 0.932 0.932 0 0 0 70.153 5.612 A 0.827 0.827 0 0 0 70.407 5.935 A 1.072 1.072 0 0 0 70.809 6.128 Q 70.964 6.167 71.145 6.173 A 2.013 2.013 0 0 0 71.213 6.174 A 1.863 1.863 0 0 0 71.509 6.152 Q 71.671 6.126 71.802 6.07 A 0.941 0.941 0 0 0 71.954 5.988 A 0.689 0.689 0 0 0 72.118 5.837 A 0.554 0.554 0 0 0 72.233 5.489 A 0.698 0.698 0 0 0 72.197 5.258 A 0.581 0.581 0 0 0 71.985 4.977 A 1.05 1.05 0 0 0 71.816 4.878 Q 71.627 4.788 71.332 4.712 A 5.392 5.392 0 0 0 71.119 4.663 A 6.342 6.342 0 0 1 70.758 4.575 Q 70.388 4.473 70.139 4.346 Q 69.84 4.194 69.67 3.994 A 1.017 1.017 0 0 1 69.603 3.907 Q 69.429 3.652 69.429 3.3 A 1.206 1.206 0 0 1 69.828 2.396 A 1.694 1.694 0 0 1 69.924 2.312 A 1.752 1.752 0 0 1 70.707 1.952 A 2.471 2.471 0 0 1 71.187 1.907 A 2.559 2.559 0 0 1 71.751 1.966 A 1.757 1.757 0 0 1 72.499 2.325 Q 73.002 2.742 73.002 3.393 Z M 16.22 6.75 L 16.203 6.28 A 1.526 1.526 0 0 1 15.377 6.775 Q 15.126 6.836 14.829 6.838 A 2.996 2.996 0 0 1 14.81 6.838 A 2.086 2.086 0 0 1 14.35 6.79 Q 13.919 6.693 13.652 6.396 A 1.41 1.41 0 0 1 13.369 5.899 Q 13.252 5.556 13.25 5.089 L 13.25 1.995 L 14.063 1.995 L 14.063 5.067 Q 14.063 6.037 14.77 6.137 A 1.229 1.229 0 0 0 14.941 6.148 A 1.927 1.927 0 0 0 15.392 6.099 Q 15.955 5.964 16.181 5.454 L 16.181 1.995 L 16.994 1.995 L 16.994 6.75 L 16.22 6.75 Z M 42.007 5.251 L 42.776 5.251 A 1.432 1.432 0 0 1 42.577 5.901 A 1.772 1.772 0 0 1 42.495 6.029 A 1.828 1.828 0 0 1 41.886 6.574 A 2.169 2.169 0 0 1 41.803 6.618 A 1.997 1.997 0 0 1 40.887 6.838 A 2.346 2.346 0 0 1 40.19 6.739 A 1.839 1.839 0 0 1 39.342 6.19 A 2.171 2.171 0 0 1 38.878 5.31 Q 38.769 4.909 38.769 4.417 L 38.769 4.28 A 3.24 3.24 0 0 1 38.832 3.624 A 2.57 2.57 0 0 1 39.023 3.045 A 2.008 2.008 0 0 1 39.463 2.431 A 1.892 1.892 0 0 1 39.755 2.206 A 1.943 1.943 0 0 1 40.512 1.934 A 2.529 2.529 0 0 1 40.882 1.907 A 2.196 2.196 0 0 1 41.53 1.999 A 1.786 1.786 0 0 1 42.212 2.386 A 1.693 1.693 0 0 1 42.77 3.535 A 2.239 2.239 0 0 1 42.776 3.63 L 42.007 3.63 Q 41.972 3.168 41.658 2.872 A 1.078 1.078 0 0 0 40.929 2.576 A 1.402 1.402 0 0 0 40.882 2.575 A 1.374 1.374 0 0 0 40.461 2.637 A 1.081 1.081 0 0 0 39.922 3.021 A 1.469 1.469 0 0 0 39.695 3.468 Q 39.63 3.674 39.602 3.923 A 3.514 3.514 0 0 0 39.582 4.311 L 39.582 4.465 Q 39.582 5.287 39.92 5.73 A 1.1 1.1 0 0 0 40.707 6.165 A 1.611 1.611 0 0 0 40.887 6.174 A 1.171 1.171 0 0 0 41.647 5.911 A 1.007 1.007 0 0 0 41.891 5.629 A 0.914 0.914 0 0 0 42.007 5.251 Z M 34.932 6.75 L 34.08 6.75 A 0.632 0.632 0 0 1 34.044 6.66 Q 34.013 6.562 33.988 6.41 A 3.997 3.997 0 0 1 33.965 6.249 Q 33.398 6.838 32.612 6.838 A 2.033 2.033 0 0 1 32.083 6.772 A 1.529 1.529 0 0 1 31.458 6.44 Q 31.008 6.042 31.008 5.432 Q 31.008 4.689 31.573 4.278 Q 32.137 3.867 33.161 3.867 L 33.952 3.867 L 33.952 3.494 A 1.152 1.152 0 0 0 33.916 3.199 A 0.828 0.828 0 0 0 33.697 2.815 Q 33.481 2.6 33.091 2.568 A 1.748 1.748 0 0 0 32.946 2.562 Q 32.511 2.562 32.216 2.782 Q 31.922 3.001 31.922 3.313 L 31.105 3.313 A 1.041 1.041 0 0 1 31.229 2.825 A 1.409 1.409 0 0 1 31.357 2.626 Q 31.61 2.294 32.043 2.101 A 2.249 2.249 0 0 1 32.818 1.913 A 2.669 2.669 0 0 1 32.994 1.907 A 2.65 2.65 0 0 1 33.512 1.955 Q 33.819 2.016 34.058 2.156 A 1.439 1.439 0 0 1 34.282 2.318 A 1.396 1.396 0 0 1 34.735 3.144 A 1.998 1.998 0 0 1 34.765 3.45 L 34.765 5.638 Q 34.765 6.073 34.839 6.39 A 1.707 1.707 0 0 0 34.932 6.68 L 34.932 6.75 Z M 18.031 4.395 L 18.031 4.333 A 3.762 3.762 0 0 1 18.098 3.602 Q 18.185 3.16 18.388 2.812 A 2.148 2.148 0 0 1 18.549 2.573 Q 19.068 1.907 19.907 1.907 A 1.964 1.964 0 0 1 20.505 1.994 A 1.559 1.559 0 0 1 21.23 2.479 L 21.23 0 L 22.043 0 L 22.043 6.75 L 21.296 6.75 L 21.256 6.24 Q 20.769 6.838 19.898 6.838 A 1.6 1.6 0 0 1 18.678 6.31 A 2.078 2.078 0 0 1 18.552 6.161 A 2.405 2.405 0 0 1 18.127 5.255 Q 18.043 4.912 18.032 4.51 A 4.425 4.425 0 0 1 18.031 4.395 Z M 36.33 0.844 L 37.143 0.844 L 37.143 1.995 L 38.03 1.995 L 38.03 2.624 L 37.143 2.624 L 37.143 5.572 Q 37.143 5.858 37.261 6.001 Q 37.38 6.144 37.666 6.144 A 1.046 1.046 0 0 0 37.763 6.138 Q 37.866 6.129 38.006 6.101 A 4.024 4.024 0 0 0 38.052 6.091 L 38.052 6.75 A 2.463 2.463 0 0 1 37.62 6.829 A 2.157 2.157 0 0 1 37.428 6.838 Q 36.981 6.838 36.715 6.616 A 0.856 0.856 0 0 1 36.606 6.508 Q 36.379 6.238 36.338 5.78 A 2.351 2.351 0 0 1 36.33 5.572 L 36.33 2.624 L 35.464 2.624 L 35.464 1.995 L 36.33 1.995 L 36.33 0.844 Z M 6.834 0 L 6.834 6.75 L 6.021 6.75 L 6.021 0 L 6.834 0 Z M 7.919 4.386 L 7.919 4.329 A 3.057 3.057 0 0 1 8.006 3.587 A 2.573 2.573 0 0 1 8.194 3.072 A 2.16 2.16 0 0 1 8.608 2.486 A 1.957 1.957 0 0 1 8.958 2.21 A 2.036 2.036 0 0 1 9.903 1.913 A 2.491 2.491 0 0 1 10.077 1.907 A 2.277 2.277 0 0 1 10.83 2.027 A 1.937 1.937 0 0 1 11.648 2.58 A 2.29 2.29 0 0 1 12.167 3.608 A 3.373 3.373 0 0 1 12.248 4.368 L 12.248 4.425 A 3.114 3.114 0 0 1 12.168 5.142 A 2.577 2.577 0 0 1 11.982 5.671 A 2.056 2.056 0 0 1 11.454 6.361 A 2.001 2.001 0 0 1 11.221 6.53 A 2.045 2.045 0 0 1 10.302 6.829 A 2.529 2.529 0 0 1 10.085 6.838 A 2.262 2.262 0 0 1 9.335 6.718 A 1.938 1.938 0 0 1 8.519 6.166 A 2.297 2.297 0 0 1 7.993 5.111 A 3.357 3.357 0 0 1 7.919 4.386 Z M 59.476 4.386 L 59.476 4.329 A 3.057 3.057 0 0 1 59.563 3.587 A 2.573 2.573 0 0 1 59.75 3.072 A 2.16 2.16 0 0 1 60.165 2.486 A 1.957 1.957 0 0 1 60.515 2.21 A 2.036 2.036 0 0 1 61.459 1.913 A 2.491 2.491 0 0 1 61.633 1.907 A 2.277 2.277 0 0 1 62.387 2.027 A 1.937 1.937 0 0 1 63.204 2.58 A 2.29 2.29 0 0 1 63.723 3.608 A 3.373 3.373 0 0 1 63.804 4.368 L 63.804 4.425 A 3.114 3.114 0 0 1 63.725 5.142 A 2.577 2.577 0 0 1 63.538 5.671 A 2.056 2.056 0 0 1 63.011 6.361 A 2.001 2.001 0 0 1 62.778 6.53 A 2.045 2.045 0 0 1 61.858 6.829 A 2.529 2.529 0 0 1 61.642 6.838 A 2.262 2.262 0 0 1 60.892 6.718 A 1.938 1.938 0 0 1 60.075 6.166 A 2.297 2.297 0 0 1 59.55 5.111 A 3.357 3.357 0 0 1 59.476 4.386 Z M 59.032 1.969 L 59.032 2.725 A 2.251 2.251 0 0 0 58.789 2.698 A 2.782 2.782 0 0 0 58.632 2.694 Q 57.854 2.694 57.563 3.338 A 1.445 1.445 0 0 0 57.546 3.375 L 57.546 6.75 L 56.733 6.75 L 56.733 1.995 L 57.524 1.995 L 57.538 2.544 Q 57.918 1.938 58.601 1.909 A 1.636 1.636 0 0 1 58.671 1.907 Q 58.909 1.907 59.032 1.969 Z M 8.736 4.425 A 2.772 2.772 0 0 0 8.784 4.954 Q 8.844 5.264 8.981 5.51 A 1.545 1.545 0 0 0 9.103 5.695 Q 9.47 6.174 10.085 6.174 A 1.269 1.269 0 0 0 10.575 6.083 Q 10.854 5.967 11.057 5.706 A 1.471 1.471 0 0 0 11.07 5.689 A 1.648 1.648 0 0 0 11.325 5.171 Q 11.393 4.945 11.419 4.672 A 3.655 3.655 0 0 0 11.435 4.329 A 2.687 2.687 0 0 0 11.383 3.789 Q 11.316 3.459 11.158 3.2 A 1.586 1.586 0 0 0 11.063 3.061 A 1.231 1.231 0 0 0 10.648 2.705 Q 10.395 2.575 10.077 2.575 Q 9.487 2.575 9.121 3.035 A 1.515 1.515 0 0 0 9.106 3.054 A 1.589 1.589 0 0 0 8.853 3.552 Q 8.784 3.772 8.756 4.039 A 3.676 3.676 0 0 0 8.736 4.425 Z M 60.293 4.425 A 2.772 2.772 0 0 0 60.34 4.954 Q 60.401 5.264 60.538 5.51 A 1.545 1.545 0 0 0 60.66 5.695 Q 61.027 6.174 61.642 6.174 A 1.269 1.269 0 0 0 62.132 6.083 Q 62.411 5.967 62.614 5.706 A 1.471 1.471 0 0 0 62.627 5.689 A 1.648 1.648 0 0 0 62.881 5.171 Q 62.95 4.945 62.976 4.672 A 3.655 3.655 0 0 0 62.991 4.329 A 2.687 2.687 0 0 0 62.94 3.789 Q 62.872 3.459 62.715 3.2 A 1.586 1.586 0 0 0 62.62 3.061 A 1.231 1.231 0 0 0 62.205 2.705 Q 61.952 2.575 61.633 2.575 Q 61.043 2.575 60.677 3.035 A 1.515 1.515 0 0 0 60.662 3.054 A 1.589 1.589 0 0 0 60.41 3.552 Q 60.341 3.772 60.312 4.039 A 3.676 3.676 0 0 0 60.293 4.425 Z M 21.23 5.454 L 21.23 3.27 A 1.375 1.375 0 0 0 20.918 2.874 Q 20.594 2.597 20.109 2.597 A 1.238 1.238 0 0 0 19.683 2.668 A 1.068 1.068 0 0 0 19.178 3.059 A 1.51 1.51 0 0 0 18.969 3.484 Q 18.903 3.689 18.872 3.939 A 3.955 3.955 0 0 0 18.844 4.425 A 3.162 3.162 0 0 0 18.88 4.918 Q 18.921 5.178 19.009 5.389 A 1.474 1.474 0 0 0 19.178 5.691 A 1.06 1.06 0 0 0 19.94 6.139 A 1.391 1.391 0 0 0 20.101 6.148 Q 20.874 6.148 21.23 5.454 Z M 33.952 5.418 L 33.952 4.443 L 33.315 4.443 Q 31.821 4.443 31.821 5.317 Q 31.821 5.7 32.076 5.915 A 0.893 0.893 0 0 0 32.489 6.108 A 1.259 1.259 0 0 0 32.731 6.13 A 1.429 1.429 0 0 0 33.456 5.933 A 1.335 1.335 0 0 0 33.751 5.705 A 1.108 1.108 0 0 0 33.952 5.418 Z" vector-effect="non-scaling-stroke"/></g><g transform="translate(25, 93)" id="svgGroup" stroke-linecap="round" fill-rule="evenodd" font-size="9pt" stroke="#000" stroke-width="0.25mm" fill="#000" style="stroke:#000;stroke-width:0.25mm;fill:#000"><path d="M 117.831 6.75 L 116.174 4.548 L 115.664 5.08 L 115.664 6.75 L 114.851 6.75 L 114.851 0 L 115.664 0 L 115.664 4.083 L 116.099 3.56 L 117.58 1.995 L 118.569 1.995 L 116.719 3.981 L 118.784 6.75 L 117.831 6.75 Z M 49.456 3.393 L 48.639 3.393 Q 48.639 3.059 48.355 2.817 Q 48.072 2.575 47.641 2.575 Q 47.197 2.575 46.947 2.769 A 0.653 0.653 0 0 0 46.772 2.967 Q 46.699 3.098 46.696 3.263 A 0.771 0.771 0 0 0 46.696 3.274 A 0.588 0.588 0 0 0 46.726 3.467 A 0.48 0.48 0 0 0 46.929 3.718 A 1.093 1.093 0 0 0 47.08 3.796 Q 47.244 3.868 47.499 3.937 A 6.581 6.581 0 0 0 47.771 4.003 A 6.318 6.318 0 0 1 48.179 4.108 Q 48.515 4.208 48.757 4.329 A 1.901 1.901 0 0 1 49.013 4.481 Q 49.15 4.579 49.248 4.692 A 1.06 1.06 0 0 1 49.318 4.783 A 1.024 1.024 0 0 1 49.48 5.191 A 1.388 1.388 0 0 1 49.5 5.432 Q 49.5 6.069 48.99 6.453 Q 48.508 6.817 47.754 6.837 A 3.337 3.337 0 0 1 47.668 6.838 A 2.746 2.746 0 0 1 47.133 6.788 A 2.124 2.124 0 0 1 46.657 6.636 A 1.771 1.771 0 0 1 46.223 6.358 A 1.54 1.54 0 0 1 45.969 6.071 Q 45.721 5.708 45.721 5.287 L 46.534 5.287 A 0.932 0.932 0 0 0 46.607 5.612 A 0.827 0.827 0 0 0 46.861 5.935 A 1.072 1.072 0 0 0 47.263 6.128 Q 47.418 6.167 47.599 6.173 A 2.013 2.013 0 0 0 47.668 6.174 A 1.863 1.863 0 0 0 47.963 6.152 Q 48.125 6.126 48.256 6.07 A 0.941 0.941 0 0 0 48.408 5.988 A 0.689 0.689 0 0 0 48.573 5.837 A 0.554 0.554 0 0 0 48.687 5.489 A 0.698 0.698 0 0 0 48.651 5.258 A 0.581 0.581 0 0 0 48.439 4.977 A 1.05 1.05 0 0 0 48.27 4.878 Q 48.081 4.788 47.786 4.712 A 5.392 5.392 0 0 0 47.573 4.663 A 6.342 6.342 0 0 1 47.212 4.575 Q 46.842 4.473 46.593 4.346 Q 46.294 4.194 46.124 3.994 A 1.017 1.017 0 0 1 46.057 3.907 Q 45.883 3.652 45.883 3.3 A 1.206 1.206 0 0 1 46.282 2.396 A 1.694 1.694 0 0 1 46.378 2.312 A 1.752 1.752 0 0 1 47.161 1.952 A 2.471 2.471 0 0 1 47.641 1.907 A 2.559 2.559 0 0 1 48.205 1.966 A 1.757 1.757 0 0 1 48.953 2.325 Q 49.456 2.742 49.456 3.393 Z M 82.551 1.995 L 83.738 5.559 L 84.845 1.995 L 85.715 1.995 L 83.804 7.484 Q 83.36 8.67 82.393 8.67 L 82.239 8.657 L 81.936 8.6 L 81.936 7.941 L 82.156 7.958 Q 82.436 7.958 82.632 7.882 A 0.75 0.75 0 0 0 82.8 7.792 A 0.749 0.749 0 0 0 82.96 7.629 Q 83.078 7.47 83.168 7.215 A 2.575 2.575 0 0 0 83.18 7.181 L 83.36 6.697 L 81.664 1.995 L 82.551 1.995 Z M 24.548 1.995 L 25.317 1.995 L 25.343 2.593 Q 25.88 1.918 26.74 1.907 A 2.234 2.234 0 0 1 26.767 1.907 A 1.905 1.905 0 0 1 27.401 2.004 Q 28.243 2.3 28.286 3.506 A 3.668 3.668 0 0 1 28.288 3.608 L 28.288 6.75 L 27.475 6.75 L 27.475 3.604 A 1.837 1.837 0 0 0 27.452 3.324 Q 27.402 3.017 27.24 2.843 Q 27.054 2.645 26.7 2.606 A 1.66 1.66 0 0 0 26.521 2.597 A 1.253 1.253 0 0 0 26.107 2.664 A 1.123 1.123 0 0 0 25.827 2.808 A 1.432 1.432 0 0 0 25.361 3.362 L 25.361 6.75 L 24.548 6.75 L 24.548 1.995 Z M 22.54 6.75 L 22.522 6.28 A 1.526 1.526 0 0 1 21.696 6.775 Q 21.446 6.836 21.148 6.838 A 2.996 2.996 0 0 1 21.129 6.838 A 2.086 2.086 0 0 1 20.669 6.79 Q 20.238 6.693 19.971 6.396 A 1.41 1.41 0 0 1 19.688 5.899 Q 19.571 5.556 19.569 5.089 L 19.569 1.995 L 20.382 1.995 L 20.382 5.067 Q 20.382 6.037 21.09 6.137 A 1.229 1.229 0 0 0 21.261 6.148 A 1.927 1.927 0 0 0 21.712 6.099 Q 22.274 5.964 22.5 5.454 L 22.5 1.995 L 23.313 1.995 L 23.313 6.75 L 22.54 6.75 Z M 8.06 5.251 L 8.829 5.251 A 1.432 1.432 0 0 1 8.63 5.901 A 1.772 1.772 0 0 1 8.547 6.029 A 1.828 1.828 0 0 1 7.938 6.574 A 2.169 2.169 0 0 1 7.855 6.618 A 1.997 1.997 0 0 1 6.939 6.838 A 2.346 2.346 0 0 1 6.242 6.739 A 1.839 1.839 0 0 1 5.394 6.19 A 2.171 2.171 0 0 1 4.931 5.31 Q 4.821 4.909 4.821 4.417 L 4.821 4.28 A 3.24 3.24 0 0 1 4.885 3.624 A 2.57 2.57 0 0 1 5.076 3.045 A 2.008 2.008 0 0 1 5.515 2.431 A 1.892 1.892 0 0 1 5.807 2.206 A 1.943 1.943 0 0 1 6.564 1.934 A 2.529 2.529 0 0 1 6.935 1.907 A 2.196 2.196 0 0 1 7.583 1.999 A 1.786 1.786 0 0 1 8.264 2.386 A 1.693 1.693 0 0 1 8.822 3.535 A 2.239 2.239 0 0 1 8.829 3.63 L 8.06 3.63 Q 8.025 3.168 7.71 2.872 A 1.078 1.078 0 0 0 6.981 2.576 A 1.402 1.402 0 0 0 6.935 2.575 A 1.374 1.374 0 0 0 6.513 2.637 A 1.081 1.081 0 0 0 5.974 3.021 A 1.469 1.469 0 0 0 5.748 3.468 Q 5.682 3.674 5.654 3.923 A 3.514 3.514 0 0 0 5.634 4.311 L 5.634 4.465 Q 5.634 5.287 5.972 5.73 A 1.1 1.1 0 0 0 6.759 6.165 A 1.611 1.611 0 0 0 6.939 6.174 A 1.171 1.171 0 0 0 7.699 5.911 A 1.007 1.007 0 0 0 7.943 5.629 A 0.914 0.914 0 0 0 8.06 5.251 Z M 12.771 5.251 L 13.54 5.251 A 1.432 1.432 0 0 1 13.341 5.901 A 1.772 1.772 0 0 1 13.258 6.029 A 1.828 1.828 0 0 1 12.649 6.574 A 2.169 2.169 0 0 1 12.566 6.618 A 1.997 1.997 0 0 1 11.65 6.838 A 2.346 2.346 0 0 1 10.953 6.739 A 1.839 1.839 0 0 1 10.105 6.19 A 2.171 2.171 0 0 1 9.642 5.31 Q 9.532 4.909 9.532 4.417 L 9.532 4.28 A 3.24 3.24 0 0 1 9.596 3.624 A 2.57 2.57 0 0 1 9.787 3.045 A 2.008 2.008 0 0 1 10.226 2.431 A 1.892 1.892 0 0 1 10.518 2.206 A 1.943 1.943 0 0 1 11.275 1.934 A 2.529 2.529 0 0 1 11.646 1.907 A 2.196 2.196 0 0 1 12.294 1.999 A 1.786 1.786 0 0 1 12.975 2.386 A 1.693 1.693 0 0 1 13.533 3.535 A 2.239 2.239 0 0 1 13.54 3.63 L 12.771 3.63 Q 12.735 3.168 12.421 2.872 A 1.078 1.078 0 0 0 11.692 2.576 A 1.402 1.402 0 0 0 11.646 2.575 A 1.374 1.374 0 0 0 11.224 2.637 A 1.081 1.081 0 0 0 10.685 3.021 A 1.469 1.469 0 0 0 10.459 3.468 Q 10.393 3.674 10.365 3.923 A 3.514 3.514 0 0 0 10.345 4.311 L 10.345 4.465 Q 10.345 5.287 10.683 5.73 A 1.1 1.1 0 0 0 11.47 6.165 A 1.611 1.611 0 0 0 11.65 6.174 A 1.171 1.171 0 0 0 12.41 5.911 A 1.007 1.007 0 0 0 12.654 5.629 A 0.914 0.914 0 0 0 12.771 5.251 Z M 3.924 6.75 L 3.072 6.75 A 0.632 0.632 0 0 1 3.036 6.66 Q 3.005 6.562 2.98 6.41 A 3.997 3.997 0 0 1 2.958 6.249 Q 2.391 6.838 1.604 6.838 A 2.033 2.033 0 0 1 1.075 6.772 A 1.529 1.529 0 0 1 0.451 6.44 Q 0 6.042 0 5.432 Q 0 4.689 0.565 4.278 Q 1.13 3.867 2.153 3.867 L 2.944 3.867 L 2.944 3.494 A 1.152 1.152 0 0 0 2.909 3.199 A 0.828 0.828 0 0 0 2.69 2.815 Q 2.473 2.6 2.083 2.568 A 1.748 1.748 0 0 0 1.938 2.562 Q 1.503 2.562 1.209 2.782 Q 0.914 3.001 0.914 3.313 L 0.097 3.313 A 1.041 1.041 0 0 1 0.222 2.825 A 1.409 1.409 0 0 1 0.349 2.626 Q 0.602 2.294 1.035 2.101 A 2.249 2.249 0 0 1 1.811 1.913 A 2.669 2.669 0 0 1 1.986 1.907 A 2.65 2.65 0 0 1 2.504 1.955 Q 2.811 2.016 3.05 2.156 A 1.439 1.439 0 0 1 3.274 2.318 A 1.396 1.396 0 0 1 3.727 3.144 A 1.998 1.998 0 0 1 3.757 3.45 L 3.757 5.638 Q 3.757 6.073 3.831 6.39 A 1.707 1.707 0 0 0 3.924 6.68 L 3.924 6.75 Z M 66.533 6.75 L 65.681 6.75 A 0.632 0.632 0 0 1 65.645 6.66 Q 65.614 6.562 65.589 6.41 A 3.997 3.997 0 0 1 65.567 6.249 Q 65 6.838 64.213 6.838 A 2.033 2.033 0 0 1 63.684 6.772 A 1.529 1.529 0 0 1 63.059 6.44 Q 62.609 6.042 62.609 5.432 Q 62.609 4.689 63.174 4.278 Q 63.738 3.867 64.762 3.867 L 65.553 3.867 L 65.553 3.494 A 1.152 1.152 0 0 0 65.518 3.199 A 0.828 0.828 0 0 0 65.298 2.815 Q 65.082 2.6 64.692 2.568 A 1.748 1.748 0 0 0 64.547 2.562 Q 64.112 2.562 63.817 2.782 Q 63.523 3.001 63.523 3.313 L 62.706 3.313 A 1.041 1.041 0 0 1 62.831 2.825 A 1.409 1.409 0 0 1 62.958 2.626 Q 63.211 2.294 63.644 2.101 A 2.249 2.249 0 0 1 64.42 1.913 A 2.669 2.669 0 0 1 64.595 1.907 A 2.65 2.65 0 0 1 65.113 1.955 Q 65.42 2.016 65.659 2.156 A 1.439 1.439 0 0 1 65.883 2.318 A 1.396 1.396 0 0 1 66.336 3.144 A 1.998 1.998 0 0 1 66.366 3.45 L 66.366 5.638 Q 66.366 6.073 66.44 6.39 A 1.707 1.707 0 0 0 66.533 6.68 L 66.533 6.75 Z M 110.694 6.75 L 109.841 6.75 A 0.632 0.632 0 0 1 109.806 6.66 Q 109.775 6.562 109.75 6.41 A 3.997 3.997 0 0 1 109.727 6.249 Q 109.16 6.838 108.374 6.838 A 2.033 2.033 0 0 1 107.844 6.772 A 1.529 1.529 0 0 1 107.22 6.44 Q 106.77 6.042 106.77 5.432 Q 106.77 4.689 107.334 4.278 Q 107.899 3.867 108.923 3.867 L 109.714 3.867 L 109.714 3.494 A 1.152 1.152 0 0 0 109.678 3.199 A 0.828 0.828 0 0 0 109.459 2.815 Q 109.243 2.6 108.852 2.568 A 1.748 1.748 0 0 0 108.708 2.562 Q 108.273 2.562 107.978 2.782 Q 107.684 3.001 107.684 3.313 L 106.866 3.313 A 1.041 1.041 0 0 1 106.991 2.825 A 1.409 1.409 0 0 1 107.119 2.626 Q 107.372 2.294 107.805 2.101 A 2.249 2.249 0 0 1 108.58 1.913 A 2.669 2.669 0 0 1 108.756 1.907 A 2.65 2.65 0 0 1 109.273 1.955 Q 109.581 2.016 109.819 2.156 A 1.439 1.439 0 0 1 110.044 2.318 A 1.396 1.396 0 0 1 110.497 3.144 A 1.998 1.998 0 0 1 110.527 3.45 L 110.527 5.638 Q 110.527 6.073 110.601 6.39 A 1.707 1.707 0 0 0 110.694 6.68 L 110.694 6.75 Z M 44.895 4.355 L 44.895 4.425 Q 44.895 5.308 44.566 5.909 A 2.141 2.141 0 0 1 44.394 6.177 A 1.647 1.647 0 0 1 43.807 6.673 Q 43.492 6.828 43.101 6.837 A 2.112 2.112 0 0 1 43.049 6.838 A 2.039 2.039 0 0 1 42.454 6.756 A 1.561 1.561 0 0 1 41.656 6.201 L 41.616 6.75 L 40.869 6.75 L 40.869 0 L 41.682 0 L 41.682 2.518 A 1.605 1.605 0 0 1 42.849 1.915 A 2.285 2.285 0 0 1 43.04 1.907 A 1.835 1.835 0 0 1 43.671 2.011 A 1.579 1.579 0 0 1 44.4 2.562 Q 44.814 3.11 44.882 3.998 A 4.727 4.727 0 0 1 44.895 4.355 Z M 71.666 4.355 L 71.666 4.425 Q 71.666 5.308 71.338 5.909 A 2.141 2.141 0 0 1 71.165 6.177 A 1.647 1.647 0 0 1 70.578 6.673 Q 70.263 6.828 69.873 6.837 A 2.112 2.112 0 0 1 69.82 6.838 A 2.039 2.039 0 0 1 69.226 6.756 A 1.561 1.561 0 0 1 68.427 6.201 L 68.388 6.75 L 67.641 6.75 L 67.641 0 L 68.454 0 L 68.454 2.518 A 1.605 1.605 0 0 1 69.62 1.915 A 2.285 2.285 0 0 1 69.812 1.907 A 1.835 1.835 0 0 1 70.443 2.011 A 1.579 1.579 0 0 1 71.172 2.562 Q 71.586 3.11 71.653 3.998 A 4.727 4.727 0 0 1 71.666 4.355 Z M 50.353 4.504 L 50.353 4.355 A 3.17 3.17 0 0 1 50.429 3.646 A 2.581 2.581 0 0 1 50.623 3.092 A 2.191 2.191 0 0 1 51.07 2.466 A 2.033 2.033 0 0 1 51.379 2.221 Q 51.864 1.907 52.431 1.907 A 2.254 2.254 0 0 1 53.044 1.986 A 1.639 1.639 0 0 1 53.873 2.518 Q 54.387 3.129 54.387 4.267 L 54.387 4.605 L 51.166 4.605 A 2.111 2.111 0 0 0 51.237 5.114 A 1.516 1.516 0 0 0 51.577 5.741 A 1.282 1.282 0 0 0 52.511 6.173 A 1.652 1.652 0 0 0 52.576 6.174 A 1.763 1.763 0 0 0 52.904 6.145 Q 53.128 6.103 53.306 5.999 A 1.827 1.827 0 0 0 53.815 5.551 A 2.068 2.068 0 0 0 53.829 5.533 L 54.325 5.919 A 1.926 1.926 0 0 1 52.926 6.811 A 2.749 2.749 0 0 1 52.532 6.838 A 2.394 2.394 0 0 1 51.781 6.725 A 1.974 1.974 0 0 1 50.959 6.203 Q 50.353 5.568 50.353 4.504 Z M 58.812 1.995 L 60.021 5.647 L 61.198 1.995 L 62.029 1.995 L 60.324 6.75 L 59.704 6.75 L 57.982 1.995 L 58.812 1.995 Z M 92.017 0.352 L 92.017 4.601 L 92.905 4.601 L 92.905 5.265 L 92.017 5.265 L 92.017 6.75 L 91.2 6.75 L 91.2 5.265 L 88.286 5.265 L 88.286 4.786 L 91.151 0.352 L 92.017 0.352 Z M 102.902 6.75 L 101.131 6.75 L 101.131 0.352 L 102.938 0.352 Q 103.773 0.352 104.414 0.721 Q 105.056 1.09 105.405 1.771 A 3.19 3.19 0 0 1 105.722 2.8 A 4.073 4.073 0 0 1 105.759 3.335 L 105.759 3.744 Q 105.759 4.649 105.41 5.331 A 2.457 2.457 0 0 1 104.412 6.376 Q 103.764 6.741 102.902 6.75 Z M 97.415 2.592 A 1.544 1.544 0 0 0 97.519 2.021 A 2.226 2.226 0 0 0 97.498 1.707 A 1.566 1.566 0 0 0 96.998 0.738 A 1.754 1.754 0 0 0 96.233 0.333 A 2.443 2.443 0 0 0 95.634 0.264 A 2.539 2.539 0 0 0 95.124 0.312 A 1.767 1.767 0 0 0 94.267 0.738 Q 93.749 1.213 93.749 2.021 A 1.808 1.808 0 0 0 93.749 2.058 A 1.499 1.499 0 0 0 93.995 2.87 A 1.626 1.626 0 0 0 94.157 3.077 A 1.726 1.726 0 0 0 94.667 3.454 A 2.119 2.119 0 0 0 94.568 3.5 A 1.738 1.738 0 0 0 93.883 4.087 A 1.629 1.629 0 0 0 93.599 5.023 A 2.272 2.272 0 0 0 93.609 5.237 A 1.63 1.63 0 0 0 94.155 6.344 A 1.895 1.895 0 0 0 95.006 6.771 A 2.797 2.797 0 0 0 95.634 6.838 A 2.796 2.796 0 0 0 96.233 6.777 A 1.925 1.925 0 0 0 97.108 6.346 A 1.578 1.578 0 0 0 97.583 5.62 A 1.989 1.989 0 0 0 97.669 5.023 A 1.581 1.581 0 0 0 97.376 4.087 Q 97.084 3.674 96.583 3.458 Q 97.014 3.248 97.266 2.874 A 1.449 1.449 0 0 0 97.415 2.592 Z M 39.731 3.353 L 39.731 3.757 A 4.729 4.729 0 0 1 39.666 4.56 A 3.455 3.455 0 0 1 39.415 5.399 A 2.648 2.648 0 0 1 39.018 6.033 A 2.226 2.226 0 0 1 38.518 6.469 A 2.362 2.362 0 0 1 37.499 6.82 A 2.993 2.993 0 0 1 37.165 6.838 A 2.618 2.618 0 0 1 36.358 6.717 A 2.313 2.313 0 0 1 35.824 6.467 A 2.392 2.392 0 0 1 35.024 5.615 A 2.953 2.953 0 0 1 34.917 5.407 A 3.426 3.426 0 0 1 34.64 4.489 A 4.535 4.535 0 0 1 34.585 3.814 L 34.585 3.353 A 4.52 4.52 0 0 1 34.66 2.51 A 3.461 3.461 0 0 1 34.906 1.723 Q 35.227 1.015 35.813 0.639 A 2.389 2.389 0 0 1 36.97 0.27 A 2.92 2.92 0 0 1 37.156 0.264 A 2.702 2.702 0 0 1 37.932 0.372 A 2.318 2.318 0 0 1 38.512 0.635 A 2.31 2.31 0 0 1 39.285 1.456 A 2.912 2.912 0 0 1 39.415 1.712 A 3.525 3.525 0 0 1 39.675 2.604 A 4.763 4.763 0 0 1 39.731 3.353 Z M 29.804 0.844 L 30.617 0.844 L 30.617 1.995 L 31.505 1.995 L 31.505 2.624 L 30.617 2.624 L 30.617 5.572 Q 30.617 5.858 30.735 6.001 Q 30.854 6.144 31.14 6.144 A 1.046 1.046 0 0 0 31.237 6.138 Q 31.34 6.129 31.48 6.101 A 4.024 4.024 0 0 0 31.526 6.091 L 31.526 6.75 A 2.463 2.463 0 0 1 31.094 6.829 A 2.157 2.157 0 0 1 30.902 6.838 Q 30.455 6.838 30.189 6.616 A 0.856 0.856 0 0 1 30.081 6.508 Q 29.853 6.238 29.813 5.78 A 2.351 2.351 0 0 1 29.804 5.572 L 29.804 2.624 L 28.938 2.624 L 28.938 1.995 L 29.804 1.995 L 29.804 0.844 Z M 79.532 0.844 L 80.345 0.844 L 80.345 1.995 L 81.233 1.995 L 81.233 2.624 L 80.345 2.624 L 80.345 5.572 Q 80.345 5.858 80.464 6.001 Q 80.583 6.144 80.868 6.144 A 1.046 1.046 0 0 0 80.966 6.138 Q 81.069 6.129 81.208 6.101 A 4.024 4.024 0 0 0 81.255 6.091 L 81.255 6.75 A 2.463 2.463 0 0 1 80.822 6.829 A 2.157 2.157 0 0 1 80.631 6.838 Q 80.184 6.838 79.917 6.616 A 0.856 0.856 0 0 1 79.809 6.508 Q 79.582 6.238 79.541 5.78 A 2.351 2.351 0 0 1 79.532 5.572 L 79.532 2.624 L 78.667 2.624 L 78.667 1.995 L 79.532 1.995 L 79.532 0.844 Z M 75.757 0 L 75.757 6.75 L 74.944 6.75 L 74.944 0 L 75.757 0 Z M 14.238 4.386 L 14.238 4.329 A 3.057 3.057 0 0 1 14.325 3.587 A 2.573 2.573 0 0 1 14.513 3.072 A 2.16 2.16 0 0 1 14.928 2.486 A 1.957 1.957 0 0 1 15.278 2.21 A 2.036 2.036 0 0 1 16.222 1.913 A 2.491 2.491 0 0 1 16.396 1.907 A 2.277 2.277 0 0 1 17.149 2.027 A 1.937 1.937 0 0 1 17.967 2.58 A 2.29 2.29 0 0 1 18.486 3.608 A 3.373 3.373 0 0 1 18.567 4.368 L 18.567 4.425 A 3.114 3.114 0 0 1 18.487 5.142 A 2.577 2.577 0 0 1 18.301 5.671 A 2.056 2.056 0 0 1 17.774 6.361 A 2.001 2.001 0 0 1 17.541 6.53 A 2.045 2.045 0 0 1 16.621 6.829 A 2.529 2.529 0 0 1 16.405 6.838 A 2.262 2.262 0 0 1 15.654 6.718 A 1.938 1.938 0 0 1 14.838 6.166 A 2.297 2.297 0 0 1 14.313 5.111 A 3.357 3.357 0 0 1 14.238 4.386 Z M 57.626 1.969 L 57.626 2.725 A 2.251 2.251 0 0 0 57.383 2.698 A 2.782 2.782 0 0 0 57.226 2.694 Q 56.448 2.694 56.156 3.338 A 1.445 1.445 0 0 0 56.14 3.375 L 56.14 6.75 L 55.327 6.75 L 55.327 1.995 L 56.118 1.995 L 56.131 2.544 Q 56.512 1.938 57.194 1.909 A 1.636 1.636 0 0 1 57.265 1.907 Q 57.503 1.907 57.626 1.969 Z M 114.1 1.969 L 114.1 2.725 A 2.251 2.251 0 0 0 113.857 2.698 A 2.782 2.782 0 0 0 113.7 2.694 Q 112.922 2.694 112.63 3.338 A 1.445 1.445 0 0 0 112.614 3.375 L 112.614 6.75 L 111.801 6.75 L 111.801 1.995 L 112.592 1.995 L 112.606 2.544 Q 112.986 1.938 113.668 1.909 A 1.636 1.636 0 0 1 113.739 1.907 Q 113.977 1.907 114.1 1.969 Z M 102.96 1.046 L 101.975 1.046 L 101.975 6.06 L 102.863 6.06 A 2.519 2.519 0 0 0 103.495 5.985 A 1.747 1.747 0 0 0 104.381 5.454 Q 104.84 4.94 104.911 4.059 A 4.165 4.165 0 0 0 104.924 3.727 L 104.924 3.353 Q 104.924 2.562 104.654 2.027 A 1.864 1.864 0 0 0 104.412 1.659 A 1.687 1.687 0 0 0 103.416 1.09 A 2.499 2.499 0 0 0 102.96 1.046 Z M 38.892 3.819 L 38.892 3.344 A 4.551 4.551 0 0 0 38.847 2.685 Q 38.798 2.35 38.695 2.078 A 1.944 1.944 0 0 0 38.435 1.597 Q 37.978 0.989 37.156 0.989 Q 36.356 0.989 35.897 1.597 A 2.112 2.112 0 0 0 35.572 2.246 Q 35.484 2.527 35.449 2.864 A 4.531 4.531 0 0 0 35.424 3.287 L 35.424 3.757 A 4.254 4.254 0 0 0 35.474 4.43 Q 35.532 4.789 35.656 5.079 A 2.039 2.039 0 0 0 35.888 5.491 A 1.472 1.472 0 0 0 36.955 6.11 A 1.931 1.931 0 0 0 37.165 6.122 A 1.79 1.79 0 0 0 37.723 6.039 A 1.423 1.423 0 0 0 38.43 5.526 A 2.017 2.017 0 0 0 38.731 4.932 Q 38.884 4.462 38.892 3.819 Z M 73.573 1.995 L 73.573 6.75 L 72.76 6.75 L 72.76 1.995 L 73.573 1.995 Z M 77.942 1.995 L 77.942 6.75 L 77.129 6.75 L 77.129 1.995 L 77.942 1.995 Z M 15.056 4.425 A 2.772 2.772 0 0 0 15.103 4.954 Q 15.164 5.264 15.301 5.51 A 1.545 1.545 0 0 0 15.423 5.695 Q 15.79 6.174 16.405 6.174 A 1.269 1.269 0 0 0 16.894 6.083 Q 17.174 5.967 17.376 5.706 A 1.471 1.471 0 0 0 17.389 5.689 A 1.648 1.648 0 0 0 17.644 5.171 Q 17.713 4.945 17.739 4.672 A 3.655 3.655 0 0 0 17.754 4.329 A 2.687 2.687 0 0 0 17.703 3.789 Q 17.635 3.459 17.478 3.2 A 1.586 1.586 0 0 0 17.383 3.061 A 1.231 1.231 0 0 0 16.968 2.705 Q 16.715 2.575 16.396 2.575 Q 15.806 2.575 15.44 3.035 A 1.515 1.515 0 0 0 15.425 3.054 A 1.589 1.589 0 0 0 15.173 3.552 Q 15.103 3.772 15.075 4.039 A 3.676 3.676 0 0 0 15.056 4.425 Z M 41.682 3.344 L 41.682 5.401 A 1.528 1.528 0 0 0 41.968 5.807 Q 42.291 6.127 42.781 6.147 A 1.621 1.621 0 0 0 42.847 6.148 A 1.206 1.206 0 0 0 43.264 6.079 A 1.04 1.04 0 0 0 43.756 5.695 Q 44.082 5.243 44.082 4.333 Q 44.082 3.502 43.761 3.05 A 1.03 1.03 0 0 0 43.011 2.607 A 1.449 1.449 0 0 0 42.838 2.597 A 1.34 1.34 0 0 0 42.328 2.69 Q 41.91 2.86 41.682 3.344 Z M 68.454 3.344 L 68.454 5.401 A 1.528 1.528 0 0 0 68.74 5.807 Q 69.062 6.127 69.552 6.147 A 1.621 1.621 0 0 0 69.618 6.148 A 1.206 1.206 0 0 0 70.035 6.079 A 1.04 1.04 0 0 0 70.528 5.695 Q 70.853 5.243 70.853 4.333 Q 70.853 3.502 70.532 3.05 A 1.03 1.03 0 0 0 69.782 2.607 A 1.449 1.449 0 0 0 69.609 2.597 A 1.34 1.34 0 0 0 69.1 2.69 Q 68.682 2.86 68.454 3.344 Z M 91.103 1.639 L 89.209 4.601 L 91.2 4.601 L 91.2 1.463 L 91.103 1.639 Z M 96.856 5.005 A 1.375 1.375 0 0 0 96.796 4.592 A 1.109 1.109 0 0 0 96.515 4.131 A 1.148 1.148 0 0 0 95.844 3.807 A 1.593 1.593 0 0 0 95.625 3.792 A 1.466 1.466 0 0 0 95.236 3.841 A 1.086 1.086 0 0 0 94.744 4.126 A 1.123 1.123 0 0 0 94.43 4.762 A 1.572 1.572 0 0 0 94.412 5.005 A 1.48 1.48 0 0 0 94.454 5.367 A 1.019 1.019 0 0 0 94.735 5.862 Q 95.041 6.158 95.574 6.173 A 2.053 2.053 0 0 0 95.634 6.174 Q 96.128 6.174 96.437 5.94 A 1.018 1.018 0 0 0 96.53 5.86 A 1.041 1.041 0 0 0 96.83 5.292 A 1.518 1.518 0 0 0 96.856 5.005 Z M 95.634 0.932 A 1.259 1.259 0 0 0 95.281 0.979 A 0.973 0.973 0 0 0 94.858 1.228 Q 94.562 1.525 94.562 2.035 A 1.325 1.325 0 0 0 94.606 2.387 A 0.994 0.994 0 0 0 94.854 2.823 A 0.974 0.974 0 0 0 95.416 3.108 A 1.382 1.382 0 0 0 95.634 3.125 A 1.279 1.279 0 0 0 95.979 3.08 A 0.952 0.952 0 0 0 96.414 2.823 A 1.018 1.018 0 0 0 96.689 2.26 A 1.426 1.426 0 0 0 96.706 2.035 A 1.282 1.282 0 0 0 96.656 1.668 A 1.013 1.013 0 0 0 96.403 1.239 Q 96.1 0.932 95.634 0.932 Z M 2.944 5.418 L 2.944 4.443 L 2.307 4.443 Q 0.813 4.443 0.813 5.317 Q 0.813 5.7 1.068 5.915 A 0.893 0.893 0 0 0 1.481 6.108 A 1.259 1.259 0 0 0 1.723 6.13 A 1.429 1.429 0 0 0 2.448 5.933 A 1.335 1.335 0 0 0 2.743 5.705 A 1.108 1.108 0 0 0 2.944 5.418 Z M 65.553 5.418 L 65.553 4.443 L 64.916 4.443 Q 63.422 4.443 63.422 5.317 Q 63.422 5.7 63.677 5.915 A 0.893 0.893 0 0 0 64.09 6.108 A 1.259 1.259 0 0 0 64.332 6.13 A 1.429 1.429 0 0 0 65.057 5.933 A 1.335 1.335 0 0 0 65.352 5.705 A 1.108 1.108 0 0 0 65.553 5.418 Z M 109.714 5.418 L 109.714 4.443 L 109.077 4.443 Q 107.583 4.443 107.583 5.317 Q 107.583 5.7 107.838 5.915 A 0.893 0.893 0 0 0 108.251 6.108 A 1.259 1.259 0 0 0 108.492 6.13 A 1.429 1.429 0 0 0 109.217 5.933 A 1.335 1.335 0 0 0 109.513 5.705 A 1.108 1.108 0 0 0 109.714 5.418 Z M 51.192 3.938 L 53.574 3.938 L 53.574 3.876 Q 53.548 3.417 53.377 3.111 A 1.13 1.13 0 0 0 53.24 2.916 A 0.983 0.983 0 0 0 52.585 2.584 A 1.39 1.39 0 0 0 52.431 2.575 A 1.106 1.106 0 0 0 51.909 2.698 A 1.14 1.14 0 0 0 51.605 2.933 A 1.417 1.417 0 0 0 51.328 3.379 Q 51.255 3.563 51.215 3.785 A 2.741 2.741 0 0 0 51.192 3.938 Z M 72.694 0.734 Q 72.694 0.536 72.815 0.4 Q 72.927 0.274 73.139 0.264 A 0.783 0.783 0 0 1 73.173 0.264 Q 73.411 0.264 73.534 0.4 A 0.474 0.474 0 0 1 73.656 0.703 A 0.614 0.614 0 0 1 73.657 0.734 A 0.523 0.523 0 0 1 73.632 0.9 A 0.442 0.442 0 0 1 73.534 1.063 Q 73.421 1.184 73.213 1.194 A 0.803 0.803 0 0 1 73.173 1.195 Q 73.001 1.195 72.89 1.126 A 0.362 0.362 0 0 1 72.815 1.063 A 0.456 0.456 0 0 1 72.697 0.788 A 0.605 0.605 0 0 1 72.694 0.734 Z M 77.063 0.734 Q 77.063 0.536 77.183 0.4 Q 77.295 0.274 77.507 0.264 A 0.783 0.783 0 0 1 77.542 0.264 Q 77.779 0.264 77.902 0.4 A 0.474 0.474 0 0 1 78.024 0.703 A 0.614 0.614 0 0 1 78.025 0.734 A 0.523 0.523 0 0 1 78 0.9 A 0.442 0.442 0 0 1 77.902 1.063 Q 77.789 1.184 77.581 1.194 A 0.803 0.803 0 0 1 77.542 1.195 Q 77.369 1.195 77.258 1.126 A 0.362 0.362 0 0 1 77.183 1.063 A 0.456 0.456 0 0 1 77.065 0.788 A 0.605 0.605 0 0 1 77.063 0.734 Z" vector-effect="non-scaling-stroke"/></g>
</svgversion="1.0" encoding="UTF-8"?>
<svg width="48px" height="48px" viewBox="0 0 48 48" version="1.1" xmlns="http://www.w3.org/2000/svg" xmlns:xlink="http://www.w3.org/1999/xlink">
    <title>Icon-Resource/Management-Governance/Res_Amazon-CloudWatch_Cross-account-Observability_48_Dark</title>
    <g id="Icon-Resource/Management-Governance/Res_Amazon-CloudWatch_Cross-account-Observability_48" stroke="none" stroke-width="1" fill="none" fill-rule="evenodd">
        <path transform="translate(12.000000, 8.000000), scale(.65)" d="M26.014,43.982 C24.911,43.982 24.014,43.085 24.014,41.982 C24.014,40.879 24.911,39.982 26.014,39.982 C27.117,39.982 28.014,40.879 28.014,41.982 C28.014,43.085 27.117,43.982 26.014,43.982 L26.014,43.982 Z M14.014,32.982 C12.911,32.982 12.014,32.085 12.014,30.982 C12.014,29.879 12.911,28.982 14.014,28.982 C15.117,28.982 16.014,29.879 16.014,30.982 C16.014,32.085 15.117,32.982 14.014,32.982 L14.014,32.982 Z M37.014,24.982 C38.117,24.982 39.014,25.879 39.014,26.982 C39.014,28.085 38.117,28.982 37.014,28.982 C35.911,28.982 35.014,28.085 35.014,26.982 C35.014,25.879 35.911,24.982 37.014,24.982 L37.014,24.982 Z M35.851,30.789 C36.222,30.903 36.607,30.982 37.014,30.982 C39.22,30.982 41.014,29.188 41.014,26.982 C41.014,24.776 39.22,22.982 37.014,22.982 C34.808,22.982 33.014,24.776 33.014,26.982 C33.014,28.052 33.442,29.02 34.129,29.739 L27.338,38.225 C26.922,38.077 26.481,37.982 26.014,37.982 C25.455,37.982 24.923,38.099 24.439,38.307 L17.768,32.315 C17.918,31.896 18.014,31.452 18.014,30.982 C18.014,28.776 16.22,26.982 14.014,26.982 C11.808,26.982 10.014,28.776 10.014,30.982 C10.014,31.382 10.091,31.761 10.201,32.125 L2.4,38.192 L3.628,39.772 L11.239,33.852 C11.959,34.549 12.935,34.982 14.014,34.982 C15.019,34.982 15.928,34.597 16.631,33.982 L22.848,39.566 C22.332,40.239 22.014,41.071 22.014,41.982 C22.014,44.188 23.808,45.982 26.014,45.982 C28.22,45.982 30.014,44.188 30.014,41.982 C30.014,40.97 29.624,40.054 29.002,39.349 L35.851,30.789 Z M46.012,27.154 C45.966,29.554 44.986,31.795 43.252,33.464 C41.561,35.092 39.353,35.982 37.018,35.982 C36.959,35.982 36.901,35.982 36.841,35.981 C36.523,35.974 36.206,35.951 35.896,35.913 L36.142,33.928 C36.384,33.958 36.63,33.976 36.879,33.981 C38.742,34.029 40.516,33.321 41.866,32.023 C43.214,30.725 43.977,28.982 44.012,27.116 C44.048,25.25 43.353,23.48 42.055,22.13 C40.756,20.782 39.014,20.019 37.148,19.983 C35.335,19.951 33.512,20.643 32.162,21.941 C30.814,23.239 30.051,24.982 30.016,26.848 C29.992,28.077 30.293,29.293 30.888,30.364 L29.138,31.334 C28.373,29.955 27.986,28.39 28.016,26.809 C28.062,24.41 29.042,22.169 30.776,20.5 C32.509,18.832 34.768,17.943 37.187,17.983 C39.586,18.03 41.827,19.01 43.495,20.744 C45.164,22.478 46.058,24.754 46.012,27.154 L46.012,27.154 Z M25.386,4 C27.28,4 28.821,5.511 28.821,7.37 C28.821,9.228 27.28,10.74 25.386,10.74 C23.492,10.74 21.951,9.228 21.951,7.37 C21.951,5.511 23.492,4 25.386,4 L25.386,4 Z M25.373,13.036 C26.57,13.036 27.742,13.371 28.764,14.006 C29.737,14.61 30.552,15.469 31.121,16.489 L32.868,15.514 C32.133,14.198 31.079,13.089 29.819,12.307 C29.429,12.065 29.018,11.866 28.599,11.692 C29.943,10.713 30.821,9.143 30.821,7.37 C30.821,4.409 28.383,2 25.386,2 C22.389,2 19.951,4.409 19.951,7.37 C19.951,9.139 20.825,10.706 22.165,11.685 C20.398,12.419 18.876,13.741 17.892,15.491 L19.636,16.471 C20.826,14.352 23.025,13.036 25.373,13.036 L25.373,13.036 Z M11.373,17.036 C12.57,17.036 13.742,17.371 14.764,18.006 C16.495,19.081 17.662,20.931 17.951,22.982 L4.793,22.982 C5.259,19.624 8.033,17.036 11.373,17.036 L11.373,17.036 Z M11.386,8 C13.28,8 14.821,9.511 14.821,11.37 C14.821,13.228 13.28,14.74 11.386,14.74 C9.492,14.74 7.951,13.228 7.951,11.37 C7.951,9.511 9.492,8 11.386,8 L11.386,8 Z M3.725,24.982 L19.022,24.982 C19.575,24.982 20.022,24.534 20.022,23.982 C20.022,20.857 18.411,17.916 15.819,16.307 C15.429,16.065 15.018,15.866 14.599,15.692 C15.943,14.713 16.821,13.143 16.821,11.37 C16.821,8.409 14.383,6 11.386,6 C8.389,6 5.951,8.409 5.951,11.37 C5.951,13.137 6.823,14.703 8.161,15.683 C4.98,17.005 2.725,20.224 2.725,23.982 C2.725,24.534 3.172,24.982 3.725,24.982 L3.725,24.982 Z" id="Fill-1" fill="#000000"></path>
    </g><g transform="translate(25, 83)" id="svgGroup" stroke-linecap="round" fill-rule="evenodd" font-size="9pt" stroke="#000" stroke-width="0.25mm" fill="#000" style="stroke:#000;stroke-width:0.25mm;fill:#000"><path d="M 23.801 0.352 L 24.812 4.733 L 24.935 5.577 L 25.115 4.816 L 26.38 0.352 L 27.092 0.352 L 28.327 4.816 L 28.503 5.59 L 28.639 4.729 L 29.632 0.352 L 30.481 0.352 L 28.929 6.75 L 28.16 6.75 L 26.842 2.087 L 26.741 1.6 L 26.64 2.087 L 25.273 6.75 L 24.504 6.75 L 22.957 0.352 L 23.801 0.352 Z M 4.078 4.72 L 4.926 4.72 A 3.016 3.016 0 0 1 4.765 5.416 A 2.099 2.099 0 0 1 4.177 6.286 Q 3.546 6.838 2.501 6.838 A 2.553 2.553 0 0 1 1.631 6.696 A 2.194 2.194 0 0 1 0.683 6.025 A 2.789 2.789 0 0 1 0.122 4.901 Q 0.015 4.484 0.002 3.992 A 5.262 5.262 0 0 1 0 3.85 L 0 3.234 A 4.251 4.251 0 0 1 0.07 2.445 A 3.229 3.229 0 0 1 0.319 1.666 A 2.539 2.539 0 0 1 0.774 0.99 A 2.26 2.26 0 0 1 1.222 0.626 A 2.415 2.415 0 0 1 2.248 0.281 A 3.027 3.027 0 0 1 2.575 0.264 A 2.962 2.962 0 0 1 3.281 0.343 A 2.065 2.065 0 0 1 4.21 0.833 A 2.16 2.16 0 0 1 4.805 1.795 A 3.086 3.086 0 0 1 4.926 2.408 L 4.078 2.408 Q 4.009 1.929 3.84 1.616 A 1.223 1.223 0 0 0 3.601 1.301 A 1.207 1.207 0 0 0 3.096 1.024 Q 2.909 0.971 2.686 0.961 A 2.396 2.396 0 0 0 2.575 0.958 A 1.753 1.753 0 0 0 1.997 1.049 A 1.463 1.463 0 0 0 1.307 1.556 A 1.989 1.989 0 0 0 0.993 2.175 Q 0.848 2.636 0.848 3.256 L 0.848 3.876 Q 0.848 4.917 1.283 5.533 A 1.38 1.38 0 0 0 2.282 6.135 A 1.814 1.814 0 0 0 2.501 6.148 A 2.497 2.497 0 0 0 2.908 6.117 Q 3.127 6.08 3.303 6.002 A 1.155 1.155 0 0 0 3.579 5.829 Q 3.955 5.511 4.078 4.72 Z M 54.861 4.72 L 55.71 4.72 A 3.016 3.016 0 0 1 55.549 5.416 A 2.099 2.099 0 0 1 54.96 6.286 Q 54.33 6.838 53.284 6.838 A 2.553 2.553 0 0 1 52.415 6.696 A 2.194 2.194 0 0 1 51.467 6.025 A 2.789 2.789 0 0 1 50.905 4.901 Q 50.798 4.484 50.785 3.992 A 5.262 5.262 0 0 1 50.783 3.85 L 50.783 3.234 A 4.251 4.251 0 0 1 50.853 2.445 A 3.229 3.229 0 0 1 51.102 1.666 A 2.539 2.539 0 0 1 51.557 0.99 A 2.26 2.26 0 0 1 52.005 0.626 A 2.415 2.415 0 0 1 53.031 0.281 A 3.027 3.027 0 0 1 53.358 0.264 A 2.962 2.962 0 0 1 54.065 0.343 A 2.065 2.065 0 0 1 54.993 0.833 A 2.16 2.16 0 0 1 55.588 1.795 A 3.086 3.086 0 0 1 55.71 2.408 L 54.861 2.408 Q 54.793 1.929 54.623 1.616 A 1.223 1.223 0 0 0 54.385 1.301 A 1.207 1.207 0 0 0 53.879 1.024 Q 53.692 0.971 53.469 0.961 A 2.396 2.396 0 0 0 53.358 0.958 A 1.753 1.753 0 0 0 52.78 1.049 A 1.463 1.463 0 0 0 52.091 1.556 A 1.989 1.989 0 0 0 51.777 2.175 Q 51.631 2.636 51.631 3.256 L 51.631 3.876 Q 51.631 4.917 52.066 5.533 A 1.38 1.38 0 0 0 53.065 6.135 A 1.814 1.814 0 0 0 53.284 6.148 A 2.497 2.497 0 0 0 53.691 6.117 Q 53.911 6.08 54.086 6.002 A 1.155 1.155 0 0 0 54.363 5.829 Q 54.738 5.511 54.861 4.72 Z M 44.503 0 L 44.503 2.571 A 1.767 1.767 0 0 1 45.17 2.053 A 1.832 1.832 0 0 1 45.91 1.907 A 1.905 1.905 0 0 1 46.543 2.004 Q 47.385 2.3 47.428 3.506 A 3.668 3.668 0 0 1 47.43 3.608 L 47.43 6.75 L 46.617 6.75 L 46.617 3.604 A 1.837 1.837 0 0 0 46.595 3.324 Q 46.545 3.017 46.382 2.843 Q 46.196 2.645 45.843 2.606 A 1.66 1.66 0 0 0 45.664 2.597 A 1.253 1.253 0 0 0 45.249 2.664 A 1.123 1.123 0 0 0 44.969 2.808 A 1.432 1.432 0 0 0 44.503 3.362 L 44.503 6.75 L 43.69 6.75 L 43.69 0 L 44.503 0 Z M 68.361 3.393 L 67.544 3.393 Q 67.544 3.059 67.261 2.817 Q 66.977 2.575 66.546 2.575 Q 66.103 2.575 65.852 2.769 A 0.653 0.653 0 0 0 65.677 2.967 Q 65.604 3.098 65.602 3.263 A 0.771 0.771 0 0 0 65.602 3.274 A 0.588 0.588 0 0 0 65.632 3.467 A 0.48 0.48 0 0 0 65.835 3.718 A 1.093 1.093 0 0 0 65.985 3.796 Q 66.149 3.868 66.405 3.937 A 6.581 6.581 0 0 0 66.676 4.003 A 6.318 6.318 0 0 1 67.084 4.108 Q 67.421 4.208 67.663 4.329 A 1.901 1.901 0 0 1 67.919 4.481 Q 68.055 4.579 68.153 4.692 A 1.06 1.06 0 0 1 68.223 4.783 A 1.024 1.024 0 0 1 68.385 5.191 A 1.388 1.388 0 0 1 68.405 5.432 Q 68.405 6.069 67.896 6.453 Q 67.413 6.817 66.659 6.837 A 3.337 3.337 0 0 1 66.573 6.838 A 2.746 2.746 0 0 1 66.038 6.788 A 2.124 2.124 0 0 1 65.562 6.636 A 1.771 1.771 0 0 1 65.128 6.358 A 1.54 1.54 0 0 1 64.874 6.071 Q 64.626 5.708 64.626 5.287 L 65.439 5.287 A 0.932 0.932 0 0 0 65.512 5.612 A 0.827 0.827 0 0 0 65.766 5.935 A 1.072 1.072 0 0 0 66.169 6.128 Q 66.323 6.167 66.505 6.173 A 2.013 2.013 0 0 0 66.573 6.174 A 1.863 1.863 0 0 0 66.868 6.152 Q 67.03 6.126 67.162 6.07 A 0.941 0.941 0 0 0 67.313 5.988 A 0.689 0.689 0 0 0 67.478 5.837 A 0.554 0.554 0 0 0 67.592 5.489 A 0.698 0.698 0 0 0 67.556 5.258 A 0.581 0.581 0 0 0 67.344 4.977 A 1.05 1.05 0 0 0 67.175 4.878 Q 66.986 4.788 66.691 4.712 A 5.392 5.392 0 0 0 66.478 4.663 A 6.342 6.342 0 0 1 66.117 4.575 Q 65.748 4.473 65.498 4.346 Q 65.2 4.194 65.029 3.994 A 1.017 1.017 0 0 1 64.962 3.907 Q 64.789 3.652 64.789 3.3 A 1.206 1.206 0 0 1 65.188 2.396 A 1.694 1.694 0 0 1 65.283 2.312 A 1.752 1.752 0 0 1 66.066 1.952 A 2.471 2.471 0 0 1 66.546 1.907 A 2.559 2.559 0 0 1 67.11 1.966 A 1.757 1.757 0 0 1 67.858 2.325 Q 68.361 2.742 68.361 3.393 Z M 73.002 3.393 L 72.185 3.393 Q 72.185 3.059 71.901 2.817 Q 71.618 2.575 71.187 2.575 Q 70.743 2.575 70.493 2.769 A 0.653 0.653 0 0 0 70.318 2.967 Q 70.245 3.098 70.242 3.263 A 0.771 0.771 0 0 0 70.242 3.274 A 0.588 0.588 0 0 0 70.272 3.467 A 0.48 0.48 0 0 0 70.475 3.718 A 1.093 1.093 0 0 0 70.625 3.796 Q 70.79 3.868 71.045 3.937 A 6.581 6.581 0 0 0 71.317 4.003 A 6.318 6.318 0 0 1 71.724 4.108 Q 72.061 4.208 72.303 4.329 A 1.901 1.901 0 0 1 72.559 4.481 Q 72.696 4.579 72.793 4.692 A 1.06 1.06 0 0 1 72.864 4.783 A 1.024 1.024 0 0 1 73.026 5.191 A 1.388 1.388 0 0 1 73.046 5.432 Q 73.046 6.069 72.536 6.453 Q 72.054 6.817 71.3 6.837 A 3.337 3.337 0 0 1 71.213 6.838 A 2.746 2.746 0 0 1 70.679 6.788 A 2.124 2.124 0 0 1 70.203 6.636 A 1.771 1.771 0 0 1 69.769 6.358 A 1.54 1.54 0 0 1 69.515 6.071 Q 69.267 5.708 69.267 5.287 L 70.08 5.287 A 0.932 0.932 0 0 0 70.153 5.612 A 0.827 0.827 0 0 0 70.407 5.935 A 1.072 1.072 0 0 0 70.809 6.128 Q 70.964 6.167 71.145 6.173 A 2.013 2.013 0 0 0 71.213 6.174 A 1.863 1.863 0 0 0 71.509 6.152 Q 71.671 6.126 71.802 6.07 A 0.941 0.941 0 0 0 71.954 5.988 A 0.689 0.689 0 0 0 72.118 5.837 A 0.554 0.554 0 0 0 72.233 5.489 A 0.698 0.698 0 0 0 72.197 5.258 A 0.581 0.581 0 0 0 71.985 4.977 A 1.05 1.05 0 0 0 71.816 4.878 Q 71.627 4.788 71.332 4.712 A 5.392 5.392 0 0 0 71.119 4.663 A 6.342 6.342 0 0 1 70.758 4.575 Q 70.388 4.473 70.139 4.346 Q 69.84 4.194 69.67 3.994 A 1.017 1.017 0 0 1 69.603 3.907 Q 69.429 3.652 69.429 3.3 A 1.206 1.206 0 0 1 69.828 2.396 A 1.694 1.694 0 0 1 69.924 2.312 A 1.752 1.752 0 0 1 70.707 1.952 A 2.471 2.471 0 0 1 71.187 1.907 A 2.559 2.559 0 0 1 71.751 1.966 A 1.757 1.757 0 0 1 72.499 2.325 Q 73.002 2.742 73.002 3.393 Z M 16.22 6.75 L 16.203 6.28 A 1.526 1.526 0 0 1 15.377 6.775 Q 15.126 6.836 14.829 6.838 A 2.996 2.996 0 0 1 14.81 6.838 A 2.086 2.086 0 0 1 14.35 6.79 Q 13.919 6.693 13.652 6.396 A 1.41 1.41 0 0 1 13.369 5.899 Q 13.252 5.556 13.25 5.089 L 13.25 1.995 L 14.063 1.995 L 14.063 5.067 Q 14.063 6.037 14.77 6.137 A 1.229 1.229 0 0 0 14.941 6.148 A 1.927 1.927 0 0 0 15.392 6.099 Q 15.955 5.964 16.181 5.454 L 16.181 1.995 L 16.994 1.995 L 16.994 6.75 L 16.22 6.75 Z M 42.007 5.251 L 42.776 5.251 A 1.432 1.432 0 0 1 42.577 5.901 A 1.772 1.772 0 0 1 42.495 6.029 A 1.828 1.828 0 0 1 41.886 6.574 A 2.169 2.169 0 0 1 41.803 6.618 A 1.997 1.997 0 0 1 40.887 6.838 A 2.346 2.346 0 0 1 40.19 6.739 A 1.839 1.839 0 0 1 39.342 6.19 A 2.171 2.171 0 0 1 38.878 5.31 Q 38.769 4.909 38.769 4.417 L 38.769 4.28 A 3.24 3.24 0 0 1 38.832 3.624 A 2.57 2.57 0 0 1 39.023 3.045 A 2.008 2.008 0 0 1 39.463 2.431 A 1.892 1.892 0 0 1 39.755 2.206 A 1.943 1.943 0 0 1 40.512 1.934 A 2.529 2.529 0 0 1 40.882 1.907 A 2.196 2.196 0 0 1 41.53 1.999 A 1.786 1.786 0 0 1 42.212 2.386 A 1.693 1.693 0 0 1 42.77 3.535 A 2.239 2.239 0 0 1 42.776 3.63 L 42.007 3.63 Q 41.972 3.168 41.658 2.872 A 1.078 1.078 0 0 0 40.929 2.576 A 1.402 1.402 0 0 0 40.882 2.575 A 1.374 1.374 0 0 0 40.461 2.637 A 1.081 1.081 0 0 0 39.922 3.021 A 1.469 1.469 0 0 0 39.695 3.468 Q 39.63 3.674 39.602 3.923 A 3.514 3.514 0 0 0 39.582 4.311 L 39.582 4.465 Q 39.582 5.287 39.92 5.73 A 1.1 1.1 0 0 0 40.707 6.165 A 1.611 1.611 0 0 0 40.887 6.174 A 1.171 1.171 0 0 0 41.647 5.911 A 1.007 1.007 0 0 0 41.891 5.629 A 0.914 0.914 0 0 0 42.007 5.251 Z M 34.932 6.75 L 34.08 6.75 A 0.632 0.632 0 0 1 34.044 6.66 Q 34.013 6.562 33.988 6.41 A 3.997 3.997 0 0 1 33.965 6.249 Q 33.398 6.838 32.612 6.838 A 2.033 2.033 0 0 1 32.083 6.772 A 1.529 1.529 0 0 1 31.458 6.44 Q 31.008 6.042 31.008 5.432 Q 31.008 4.689 31.573 4.278 Q 32.137 3.867 33.161 3.867 L 33.952 3.867 L 33.952 3.494 A 1.152 1.152 0 0 0 33.916 3.199 A 0.828 0.828 0 0 0 33.697 2.815 Q 33.481 2.6 33.091 2.568 A 1.748 1.748 0 0 0 32.946 2.562 Q 32.511 2.562 32.216 2.782 Q 31.922 3.001 31.922 3.313 L 31.105 3.313 A 1.041 1.041 0 0 1 31.229 2.825 A 1.409 1.409 0 0 1 31.357 2.626 Q 31.61 2.294 32.043 2.101 A 2.249 2.249 0 0 1 32.818 1.913 A 2.669 2.669 0 0 1 32.994 1.907 A 2.65 2.65 0 0 1 33.512 1.955 Q 33.819 2.016 34.058 2.156 A 1.439 1.439 0 0 1 34.282 2.318 A 1.396 1.396 0 0 1 34.735 3.144 A 1.998 1.998 0 0 1 34.765 3.45 L 34.765 5.638 Q 34.765 6.073 34.839 6.39 A 1.707 1.707 0 0 0 34.932 6.68 L 34.932 6.75 Z M 18.031 4.395 L 18.031 4.333 A 3.762 3.762 0 0 1 18.098 3.602 Q 18.185 3.16 18.388 2.812 A 2.148 2.148 0 0 1 18.549 2.573 Q 19.068 1.907 19.907 1.907 A 1.964 1.964 0 0 1 20.505 1.994 A 1.559 1.559 0 0 1 21.23 2.479 L 21.23 0 L 22.043 0 L 22.043 6.75 L 21.296 6.75 L 21.256 6.24 Q 20.769 6.838 19.898 6.838 A 1.6 1.6 0 0 1 18.678 6.31 A 2.078 2.078 0 0 1 18.552 6.161 A 2.405 2.405 0 0 1 18.127 5.255 Q 18.043 4.912 18.032 4.51 A 4.425 4.425 0 0 1 18.031 4.395 Z M 36.33 0.844 L 37.143 0.844 L 37.143 1.995 L 38.03 1.995 L 38.03 2.624 L 37.143 2.624 L 37.143 5.572 Q 37.143 5.858 37.261 6.001 Q 37.38 6.144 37.666 6.144 A 1.046 1.046 0 0 0 37.763 6.138 Q 37.866 6.129 38.006 6.101 A 4.024 4.024 0 0 0 38.052 6.091 L 38.052 6.75 A 2.463 2.463 0 0 1 37.62 6.829 A 2.157 2.157 0 0 1 37.428 6.838 Q 36.981 6.838 36.715 6.616 A 0.856 0.856 0 0 1 36.606 6.508 Q 36.379 6.238 36.338 5.78 A 2.351 2.351 0 0 1 36.33 5.572 L 36.33 2.624 L 35.464 2.624 L 35.464 1.995 L 36.33 1.995 L 36.33 0.844 Z M 6.834 0 L 6.834 6.75 L 6.021 6.75 L 6.021 0 L 6.834 0 Z M 7.919 4.386 L 7.919 4.329 A 3.057 3.057 0 0 1 8.006 3.587 A 2.573 2.573 0 0 1 8.194 3.072 A 2.16 2.16 0 0 1 8.608 2.486 A 1.957 1.957 0 0 1 8.958 2.21 A 2.036 2.036 0 0 1 9.903 1.913 A 2.491 2.491 0 0 1 10.077 1.907 A 2.277 2.277 0 0 1 10.83 2.027 A 1.937 1.937 0 0 1 11.648 2.58 A 2.29 2.29 0 0 1 12.167 3.608 A 3.373 3.373 0 0 1 12.248 4.368 L 12.248 4.425 A 3.114 3.114 0 0 1 12.168 5.142 A 2.577 2.577 0 0 1 11.982 5.671 A 2.056 2.056 0 0 1 11.454 6.361 A 2.001 2.001 0 0 1 11.221 6.53 A 2.045 2.045 0 0 1 10.302 6.829 A 2.529 2.529 0 0 1 10.085 6.838 A 2.262 2.262 0 0 1 9.335 6.718 A 1.938 1.938 0 0 1 8.519 6.166 A 2.297 2.297 0 0 1 7.993 5.111 A 3.357 3.357 0 0 1 7.919 4.386 Z M 59.476 4.386 L 59.476 4.329 A 3.057 3.057 0 0 1 59.563 3.587 A 2.573 2.573 0 0 1 59.75 3.072 A 2.16 2.16 0 0 1 60.165 2.486 A 1.957 1.957 0 0 1 60.515 2.21 A 2.036 2.036 0 0 1 61.459 1.913 A 2.491 2.491 0 0 1 61.633 1.907 A 2.277 2.277 0 0 1 62.387 2.027 A 1.937 1.937 0 0 1 63.204 2.58 A 2.29 2.29 0 0 1 63.723 3.608 A 3.373 3.373 0 0 1 63.804 4.368 L 63.804 4.425 A 3.114 3.114 0 0 1 63.725 5.142 A 2.577 2.577 0 0 1 63.538 5.671 A 2.056 2.056 0 0 1 63.011 6.361 A 2.001 2.001 0 0 1 62.778 6.53 A 2.045 2.045 0 0 1 61.858 6.829 A 2.529 2.529 0 0 1 61.642 6.838 A 2.262 2.262 0 0 1 60.892 6.718 A 1.938 1.938 0 0 1 60.075 6.166 A 2.297 2.297 0 0 1 59.55 5.111 A 3.357 3.357 0 0 1 59.476 4.386 Z M 59.032 1.969 L 59.032 2.725 A 2.251 2.251 0 0 0 58.789 2.698 A 2.782 2.782 0 0 0 58.632 2.694 Q 57.854 2.694 57.563 3.338 A 1.445 1.445 0 0 0 57.546 3.375 L 57.546 6.75 L 56.733 6.75 L 56.733 1.995 L 57.524 1.995 L 57.538 2.544 Q 57.918 1.938 58.601 1.909 A 1.636 1.636 0 0 1 58.671 1.907 Q 58.909 1.907 59.032 1.969 Z M 8.736 4.425 A 2.772 2.772 0 0 0 8.784 4.954 Q 8.844 5.264 8.981 5.51 A 1.545 1.545 0 0 0 9.103 5.695 Q 9.47 6.174 10.085 6.174 A 1.269 1.269 0 0 0 10.575 6.083 Q 10.854 5.967 11.057 5.706 A 1.471 1.471 0 0 0 11.07 5.689 A 1.648 1.648 0 0 0 11.325 5.171 Q 11.393 4.945 11.419 4.672 A 3.655 3.655 0 0 0 11.435 4.329 A 2.687 2.687 0 0 0 11.383 3.789 Q 11.316 3.459 11.158 3.2 A 1.586 1.586 0 0 0 11.063 3.061 A 1.231 1.231 0 0 0 10.648 2.705 Q 10.395 2.575 10.077 2.575 Q 9.487 2.575 9.121 3.035 A 1.515 1.515 0 0 0 9.106 3.054 A 1.589 1.589 0 0 0 8.853 3.552 Q 8.784 3.772 8.756 4.039 A 3.676 3.676 0 0 0 8.736 4.425 Z M 60.293 4.425 A 2.772 2.772 0 0 0 60.34 4.954 Q 60.401 5.264 60.538 5.51 A 1.545 1.545 0 0 0 60.66 5.695 Q 61.027 6.174 61.642 6.174 A 1.269 1.269 0 0 0 62.132 6.083 Q 62.411 5.967 62.614 5.706 A 1.471 1.471 0 0 0 62.627 5.689 A 1.648 1.648 0 0 0 62.881 5.171 Q 62.95 4.945 62.976 4.672 A 3.655 3.655 0 0 0 62.991 4.329 A 2.687 2.687 0 0 0 62.94 3.789 Q 62.872 3.459 62.715 3.2 A 1.586 1.586 0 0 0 62.62 3.061 A 1.231 1.231 0 0 0 62.205 2.705 Q 61.952 2.575 61.633 2.575 Q 61.043 2.575 60.677 3.035 A 1.515 1.515 0 0 0 60.662 3.054 A 1.589 1.589 0 0 0 60.41 3.552 Q 60.341 3.772 60.312 4.039 A 3.676 3.676 0 0 0 60.293 4.425 Z M 21.23 5.454 L 21.23 3.27 A 1.375 1.375 0 0 0 20.918 2.874 Q 20.594 2.597 20.109 2.597 A 1.238 1.238 0 0 0 19.683 2.668 A 1.068 1.068 0 0 0 19.178 3.059 A 1.51 1.51 0 0 0 18.969 3.484 Q 18.903 3.689 18.872 3.939 A 3.955 3.955 0 0 0 18.844 4.425 A 3.162 3.162 0 0 0 18.88 4.918 Q 18.921 5.178 19.009 5.389 A 1.474 1.474 0 0 0 19.178 5.691 A 1.06 1.06 0 0 0 19.94 6.139 A 1.391 1.391 0 0 0 20.101 6.148 Q 20.874 6.148 21.23 5.454 Z M 33.952 5.418 L 33.952 4.443 L 33.315 4.443 Q 31.821 4.443 31.821 5.317 Q 31.821 5.7 32.076 5.915 A 0.893 0.893 0 0 0 32.489 6.108 A 1.259 1.259 0 0 0 32.731 6.13 A 1.429 1.429 0 0 0 33.456 5.933 A 1.335 1.335 0 0 0 33.751 5.705 A 1.108 1.108 0 0 0 33.952 5.418 Z" vector-effect="non-scaling-stroke"/></g><g transform="translate(25, 93)" id="svgGroup" stroke-linecap="round" fill-rule="evenodd" font-size="9pt" stroke="#000" stroke-width="0.25mm" fill="#000" style="stroke:#000;stroke-width:0.25mm;fill:#000"><path d="M 117.831 6.75 L 116.174 4.548 L 115.664 5.08 L 115.664 6.75 L 114.851 6.75 L 114.851 0 L 115.664 0 L 115.664 4.083 L 116.099 3.56 L 117.58 1.995 L 118.569 1.995 L 116.719 3.981 L 118.784 6.75 L 117.831 6.75 Z M 49.456 3.393 L 48.639 3.393 Q 48.639 3.059 48.355 2.817 Q 48.072 2.575 47.641 2.575 Q 47.197 2.575 46.947 2.769 A 0.653 0.653 0 0 0 46.772 2.967 Q 46.699 3.098 46.696 3.263 A 0.771 0.771 0 0 0 46.696 3.274 A 0.588 0.588 0 0 0 46.726 3.467 A 0.48 0.48 0 0 0 46.929 3.718 A 1.093 1.093 0 0 0 47.08 3.796 Q 47.244 3.868 47.499 3.937 A 6.581 6.581 0 0 0 47.771 4.003 A 6.318 6.318 0 0 1 48.179 4.108 Q 48.515 4.208 48.757 4.329 A 1.901 1.901 0 0 1 49.013 4.481 Q 49.15 4.579 49.248 4.692 A 1.06 1.06 0 0 1 49.318 4.783 A 1.024 1.024 0 0 1 49.48 5.191 A 1.388 1.388 0 0 1 49.5 5.432 Q 49.5 6.069 48.99 6.453 Q 48.508 6.817 47.754 6.837 A 3.337 3.337 0 0 1 47.668 6.838 A 2.746 2.746 0 0 1 47.133 6.788 A 2.124 2.124 0 0 1 46.657 6.636 A 1.771 1.771 0 0 1 46.223 6.358 A 1.54 1.54 0 0 1 45.969 6.071 Q 45.721 5.708 45.721 5.287 L 46.534 5.287 A 0.932 0.932 0 0 0 46.607 5.612 A 0.827 0.827 0 0 0 46.861 5.935 A 1.072 1.072 0 0 0 47.263 6.128 Q 47.418 6.167 47.599 6.173 A 2.013 2.013 0 0 0 47.668 6.174 A 1.863 1.863 0 0 0 47.963 6.152 Q 48.125 6.126 48.256 6.07 A 0.941 0.941 0 0 0 48.408 5.988 A 0.689 0.689 0 0 0 48.573 5.837 A 0.554 0.554 0 0 0 48.687 5.489 A 0.698 0.698 0 0 0 48.651 5.258 A 0.581 0.581 0 0 0 48.439 4.977 A 1.05 1.05 0 0 0 48.27 4.878 Q 48.081 4.788 47.786 4.712 A 5.392 5.392 0 0 0 47.573 4.663 A 6.342 6.342 0 0 1 47.212 4.575 Q 46.842 4.473 46.593 4.346 Q 46.294 4.194 46.124 3.994 A 1.017 1.017 0 0 1 46.057 3.907 Q 45.883 3.652 45.883 3.3 A 1.206 1.206 0 0 1 46.282 2.396 A 1.694 1.694 0 0 1 46.378 2.312 A 1.752 1.752 0 0 1 47.161 1.952 A 2.471 2.471 0 0 1 47.641 1.907 A 2.559 2.559 0 0 1 48.205 1.966 A 1.757 1.757 0 0 1 48.953 2.325 Q 49.456 2.742 49.456 3.393 Z M 82.551 1.995 L 83.738 5.559 L 84.845 1.995 L 85.715 1.995 L 83.804 7.484 Q 83.36 8.67 82.393 8.67 L 82.239 8.657 L 81.936 8.6 L 81.936 7.941 L 82.156 7.958 Q 82.436 7.958 82.632 7.882 A 0.75 0.75 0 0 0 82.8 7.792 A 0.749 0.749 0 0 0 82.96 7.629 Q 83.078 7.47 83.168 7.215 A 2.575 2.575 0 0 0 83.18 7.181 L 83.36 6.697 L 81.664 1.995 L 82.551 1.995 Z M 24.548 1.995 L 25.317 1.995 L 25.343 2.593 Q 25.88 1.918 26.74 1.907 A 2.234 2.234 0 0 1 26.767 1.907 A 1.905 1.905 0 0 1 27.401 2.004 Q 28.243 2.3 28.286 3.506 A 3.668 3.668 0 0 1 28.288 3.608 L 28.288 6.75 L 27.475 6.75 L 27.475 3.604 A 1.837 1.837 0 0 0 27.452 3.324 Q 27.402 3.017 27.24 2.843 Q 27.054 2.645 26.7 2.606 A 1.66 1.66 0 0 0 26.521 2.597 A 1.253 1.253 0 0 0 26.107 2.664 A 1.123 1.123 0 0 0 25.827 2.808 A 1.432 1.432 0 0 0 25.361 3.362 L 25.361 6.75 L 24.548 6.75 L 24.548 1.995 Z M 22.54 6.75 L 22.522 6.28 A 1.526 1.526 0 0 1 21.696 6.775 Q 21.446 6.836 21.148 6.838 A 2.996 2.996 0 0 1 21.129 6.838 A 2.086 2.086 0 0 1 20.669 6.79 Q 20.238 6.693 19.971 6.396 A 1.41 1.41 0 0 1 19.688 5.899 Q 19.571 5.556 19.569 5.089 L 19.569 1.995 L 20.382 1.995 L 20.382 5.067 Q 20.382 6.037 21.09 6.137 A 1.229 1.229 0 0 0 21.261 6.148 A 1.927 1.927 0 0 0 21.712 6.099 Q 22.274 5.964 22.5 5.454 L 22.5 1.995 L 23.313 1.995 L 23.313 6.75 L 22.54 6.75 Z M 8.06 5.251 L 8.829 5.251 A 1.432 1.432 0 0 1 8.63 5.901 A 1.772 1.772 0 0 1 8.547 6.029 A 1.828 1.828 0 0 1 7.938 6.574 A 2.169 2.169 0 0 1 7.855 6.618 A 1.997 1.997 0 0 1 6.939 6.838 A 2.346 2.346 0 0 1 6.242 6.739 A 1.839 1.839 0 0 1 5.394 6.19 A 2.171 2.171 0 0 1 4.931 5.31 Q 4.821 4.909 4.821 4.417 L 4.821 4.28 A 3.24 3.24 0 0 1 4.885 3.624 A 2.57 2.57 0 0 1 5.076 3.045 A 2.008 2.008 0 0 1 5.515 2.431 A 1.892 1.892 0 0 1 5.807 2.206 A 1.943 1.943 0 0 1 6.564 1.934 A 2.529 2.529 0 0 1 6.935 1.907 A 2.196 2.196 0 0 1 7.583 1.999 A 1.786 1.786 0 0 1 8.264 2.386 A 1.693 1.693 0 0 1 8.822 3.535 A 2.239 2.239 0 0 1 8.829 3.63 L 8.06 3.63 Q 8.025 3.168 7.71 2.872 A 1.078 1.078 0 0 0 6.981 2.576 A 1.402 1.402 0 0 0 6.935 2.575 A 1.374 1.374 0 0 0 6.513 2.637 A 1.081 1.081 0 0 0 5.974 3.021 A 1.469 1.469 0 0 0 5.748 3.468 Q 5.682 3.674 5.654 3.923 A 3.514 3.514 0 0 0 5.634 4.311 L 5.634 4.465 Q 5.634 5.287 5.972 5.73 A 1.1 1.1 0 0 0 6.759 6.165 A 1.611 1.611 0 0 0 6.939 6.174 A 1.171 1.171 0 0 0 7.699 5.911 A 1.007 1.007 0 0 0 7.943 5.629 A 0.914 0.914 0 0 0 8.06 5.251 Z M 12.771 5.251 L 13.54 5.251 A 1.432 1.432 0 0 1 13.341 5.901 A 1.772 1.772 0 0 1 13.258 6.029 A 1.828 1.828 0 0 1 12.649 6.574 A 2.169 2.169 0 0 1 12.566 6.618 A 1.997 1.997 0 0 1 11.65 6.838 A 2.346 2.346 0 0 1 10.953 6.739 A 1.839 1.839 0 0 1 10.105 6.19 A 2.171 2.171 0 0 1 9.642 5.31 Q 9.532 4.909 9.532 4.417 L 9.532 4.28 A 3.24 3.24 0 0 1 9.596 3.624 A 2.57 2.57 0 0 1 9.787 3.045 A 2.008 2.008 0 0 1 10.226 2.431 A 1.892 1.892 0 0 1 10.518 2.206 A 1.943 1.943 0 0 1 11.275 1.934 A 2.529 2.529 0 0 1 11.646 1.907 A 2.196 2.196 0 0 1 12.294 1.999 A 1.786 1.786 0 0 1 12.975 2.386 A 1.693 1.693 0 0 1 13.533 3.535 A 2.239 2.239 0 0 1 13.54 3.63 L 12.771 3.63 Q 12.735 3.168 12.421 2.872 A 1.078 1.078 0 0 0 11.692 2.576 A 1.402 1.402 0 0 0 11.646 2.575 A 1.374 1.374 0 0 0 11.224 2.637 A 1.081 1.081 0 0 0 10.685 3.021 A 1.469 1.469 0 0 0 10.459 3.468 Q 10.393 3.674 10.365 3.923 A 3.514 3.514 0 0 0 10.345 4.311 L 10.345 4.465 Q 10.345 5.287 10.683 5.73 A 1.1 1.1 0 0 0 11.47 6.165 A 1.611 1.611 0 0 0 11.65 6.174 A 1.171 1.171 0 0 0 12.41 5.911 A 1.007 1.007 0 0 0 12.654 5.629 A 0.914 0.914 0 0 0 12.771 5.251 Z M 3.924 6.75 L 3.072 6.75 A 0.632 0.632 0 0 1 3.036 6.66 Q 3.005 6.562 2.98 6.41 A 3.997 3.997 0 0 1 2.958 6.249 Q 2.391 6.838 1.604 6.838 A 2.033 2.033 0 0 1 1.075 6.772 A 1.529 1.529 0 0 1 0.451 6.44 Q 0 6.042 0 5.432 Q 0 4.689 0.565 4.278 Q 1.13 3.867 2.153 3.867 L 2.944 3.867 L 2.944 3.494 A 1.152 1.152 0 0 0 2.909 3.199 A 0.828 0.828 0 0 0 2.69 2.815 Q 2.473 2.6 2.083 2.568 A 1.748 1.748 0 0 0 1.938 2.562 Q 1.503 2.562 1.209 2.782 Q 0.914 3.001 0.914 3.313 L 0.097 3.313 A 1.041 1.041 0 0 1 0.222 2.825 A 1.409 1.409 0 0 1 0.349 2.626 Q 0.602 2.294 1.035 2.101 A 2.249 2.249 0 0 1 1.811 1.913 A 2.669 2.669 0 0 1 1.986 1.907 A 2.65 2.65 0 0 1 2.504 1.955 Q 2.811 2.016 3.05 2.156 A 1.439 1.439 0 0 1 3.274 2.318 A 1.396 1.396 0 0 1 3.727 3.144 A 1.998 1.998 0 0 1 3.757 3.45 L 3.757 5.638 Q 3.757 6.073 3.831 6.39 A 1.707 1.707 0 0 0 3.924 6.68 L 3.924 6.75 Z M 66.533 6.75 L 65.681 6.75 A 0.632 0.632 0 0 1 65.645 6.66 Q 65.614 6.562 65.589 6.41 A 3.997 3.997 0 0 1 65.567 6.249 Q 65 6.838 64.213 6.838 A 2.033 2.033 0 0 1 63.684 6.772 A 1.529 1.529 0 0 1 63.059 6.44 Q 62.609 6.042 62.609 5.432 Q 62.609 4.689 63.174 4.278 Q 63.738 3.867 64.762 3.867 L 65.553 3.867 L 65.553 3.494 A 1.152 1.152 0 0 0 65.518 3.199 A 0.828 0.828 0 0 0 65.298 2.815 Q 65.082 2.6 64.692 2.568 A 1.748 1.748 0 0 0 64.547 2.562 Q 64.112 2.562 63.817 2.782 Q 63.523 3.001 63.523 3.313 L 62.706 3.313 A 1.041 1.041 0 0 1 62.831 2.825 A 1.409 1.409 0 0 1 62.958 2.626 Q 63.211 2.294 63.644 2.101 A 2.249 2.249 0 0 1 64.42 1.913 A 2.669 2.669 0 0 1 64.595 1.907 A 2.65 2.65 0 0 1 65.113 1.955 Q 65.42 2.016 65.659 2.156 A 1.439 1.439 0 0 1 65.883 2.318 A 1.396 1.396 0 0 1 66.336 3.144 A 1.998 1.998 0 0 1 66.366 3.45 L 66.366 5.638 Q 66.366 6.073 66.44 6.39 A 1.707 1.707 0 0 0 66.533 6.68 L 66.533 6.75 Z M 110.694 6.75 L 109.841 6.75 A 0.632 0.632 0 0 1 109.806 6.66 Q 109.775 6.562 109.75 6.41 A 3.997 3.997 0 0 1 109.727 6.249 Q 109.16 6.838 108.374 6.838 A 2.033 2.033 0 0 1 107.844 6.772 A 1.529 1.529 0 0 1 107.22 6.44 Q 106.77 6.042 106.77 5.432 Q 106.77 4.689 107.334 4.278 Q 107.899 3.867 108.923 3.867 L 109.714 3.867 L 109.714 3.494 A 1.152 1.152 0 0 0 109.678 3.199 A 0.828 0.828 0 0 0 109.459 2.815 Q 109.243 2.6 108.852 2.568 A 1.748 1.748 0 0 0 108.708 2.562 Q 108.273 2.562 107.978 2.782 Q 107.684 3.001 107.684 3.313 L 106.866 3.313 A 1.041 1.041 0 0 1 106.991 2.825 A 1.409 1.409 0 0 1 107.119 2.626 Q 107.372 2.294 107.805 2.101 A 2.249 2.249 0 0 1 108.58 1.913 A 2.669 2.669 0 0 1 108.756 1.907 A 2.65 2.65 0 0 1 109.273 1.955 Q 109.581 2.016 109.819 2.156 A 1.439 1.439 0 0 1 110.044 2.318 A 1.396 1.396 0 0 1 110.497 3.144 A 1.998 1.998 0 0 1 110.527 3.45 L 110.527 5.638 Q 110.527 6.073 110.601 6.39 A 1.707 1.707 0 0 0 110.694 6.68 L 110.694 6.75 Z M 44.895 4.355 L 44.895 4.425 Q 44.895 5.308 44.566 5.909 A 2.141 2.141 0 0 1 44.394 6.177 A 1.647 1.647 0 0 1 43.807 6.673 Q 43.492 6.828 43.101 6.837 A 2.112 2.112 0 0 1 43.049 6.838 A 2.039 2.039 0 0 1 42.454 6.756 A 1.561 1.561 0 0 1 41.656 6.201 L 41.616 6.75 L 40.869 6.75 L 40.869 0 L 41.682 0 L 41.682 2.518 A 1.605 1.605 0 0 1 42.849 1.915 A 2.285 2.285 0 0 1 43.04 1.907 A 1.835 1.835 0 0 1 43.671 2.011 A 1.579 1.579 0 0 1 44.4 2.562 Q 44.814 3.11 44.882 3.998 A 4.727 4.727 0 0 1 44.895 4.355 Z M 71.666 4.355 L 71.666 4.425 Q 71.666 5.308 71.338 5.909 A 2.141 2.141 0 0 1 71.165 6.177 A 1.647 1.647 0 0 1 70.578 6.673 Q 70.263 6.828 69.873 6.837 A 2.112 2.112 0 0 1 69.82 6.838 A 2.039 2.039 0 0 1 69.226 6.756 A 1.561 1.561 0 0 1 68.427 6.201 L 68.388 6.75 L 67.641 6.75 L 67.641 0 L 68.454 0 L 68.454 2.518 A 1.605 1.605 0 0 1 69.62 1.915 A 2.285 2.285 0 0 1 69.812 1.907 A 1.835 1.835 0 0 1 70.443 2.011 A 1.579 1.579 0 0 1 71.172 2.562 Q 71.586 3.11 71.653 3.998 A 4.727 4.727 0 0 1 71.666 4.355 Z M 50.353 4.504 L 50.353 4.355 A 3.17 3.17 0 0 1 50.429 3.646 A 2.581 2.581 0 0 1 50.623 3.092 A 2.191 2.191 0 0 1 51.07 2.466 A 2.033 2.033 0 0 1 51.379 2.221 Q 51.864 1.907 52.431 1.907 A 2.254 2.254 0 0 1 53.044 1.986 A 1.639 1.639 0 0 1 53.873 2.518 Q 54.387 3.129 54.387 4.267 L 54.387 4.605 L 51.166 4.605 A 2.111 2.111 0 0 0 51.237 5.114 A 1.516 1.516 0 0 0 51.577 5.741 A 1.282 1.282 0 0 0 52.511 6.173 A 1.652 1.652 0 0 0 52.576 6.174 A 1.763 1.763 0 0 0 52.904 6.145 Q 53.128 6.103 53.306 5.999 A 1.827 1.827 0 0 0 53.815 5.551 A 2.068 2.068 0 0 0 53.829 5.533 L 54.325 5.919 A 1.926 1.926 0 0 1 52.926 6.811 A 2.749 2.749 0 0 1 52.532 6.838 A 2.394 2.394 0 0 1 51.781 6.725 A 1.974 1.974 0 0 1 50.959 6.203 Q 50.353 5.568 50.353 4.504 Z M 58.812 1.995 L 60.021 5.647 L 61.198 1.995 L 62.029 1.995 L 60.324 6.75 L 59.704 6.75 L 57.982 1.995 L 58.812 1.995 Z M 92.017 0.352 L 92.017 4.601 L 92.905 4.601 L 92.905 5.265 L 92.017 5.265 L 92.017 6.75 L 91.2 6.75 L 91.2 5.265 L 88.286 5.265 L 88.286 4.786 L 91.151 0.352 L 92.017 0.352 Z M 102.902 6.75 L 101.131 6.75 L 101.131 0.352 L 102.938 0.352 Q 103.773 0.352 104.414 0.721 Q 105.056 1.09 105.405 1.771 A 3.19 3.19 0 0 1 105.722 2.8 A 4.073 4.073 0 0 1 105.759 3.335 L 105.759 3.744 Q 105.759 4.649 105.41 5.331 A 2.457 2.457 0 0 1 104.412 6.376 Q 103.764 6.741 102.902 6.75 Z M 97.415 2.592 A 1.544 1.544 0 0 0 97.519 2.021 A 2.226 2.226 0 0 0 97.498 1.707 A 1.566 1.566 0 0 0 96.998 0.738 A 1.754 1.754 0 0 0 96.233 0.333 A 2.443 2.443 0 0 0 95.634 0.264 A 2.539 2.539 0 0 0 95.124 0.312 A 1.767 1.767 0 0 0 94.267 0.738 Q 93.749 1.213 93.749 2.021 A 1.808 1.808 0 0 0 93.749 2.058 A 1.499 1.499 0 0 0 93.995 2.87 A 1.626 1.626 0 0 0 94.157 3.077 A 1.726 1.726 0 0 0 94.667 3.454 A 2.119 2.119 0 0 0 94.568 3.5 A 1.738 1.738 0 0 0 93.883 4.087 A 1.629 1.629 0 0 0 93.599 5.023 A 2.272 2.272 0 0 0 93.609 5.237 A 1.63 1.63 0 0 0 94.155 6.344 A 1.895 1.895 0 0 0 95.006 6.771 A 2.797 2.797 0 0 0 95.634 6.838 A 2.796 2.796 0 0 0 96.233 6.777 A 1.925 1.925 0 0 0 97.108 6.346 A 1.578 1.578 0 0 0 97.583 5.62 A 1.989 1.989 0 0 0 97.669 5.023 A 1.581 1.581 0 0 0 97.376 4.087 Q 97.084 3.674 96.583 3.458 Q 97.014 3.248 97.266 2.874 A 1.449 1.449 0 0 0 97.415 2.592 Z M 39.731 3.353 L 39.731 3.757 A 4.729 4.729 0 0 1 39.666 4.56 A 3.455 3.455 0 0 1 39.415 5.399 A 2.648 2.648 0 0 1 39.018 6.033 A 2.226 2.226 0 0 1 38.518 6.469 A 2.362 2.362 0 0 1 37.499 6.82 A 2.993 2.993 0 0 1 37.165 6.838 A 2.618 2.618 0 0 1 36.358 6.717 A 2.313 2.313 0 0 1 35.824 6.467 A 2.392 2.392 0 0 1 35.024 5.615 A 2.953 2.953 0 0 1 34.917 5.407 A 3.426 3.426 0 0 1 34.64 4.489 A 4.535 4.535 0 0 1 34.585 3.814 L 34.585 3.353 A 4.52 4.52 0 0 1 34.66 2.51 A 3.461 3.461 0 0 1 34.906 1.723 Q 35.227 1.015 35.813 0.639 A 2.389 2.389 0 0 1 36.97 0.27 A 2.92 2.92 0 0 1 37.156 0.264 A 2.702 2.702 0 0 1 37.932 0.372 A 2.318 2.318 0 0 1 38.512 0.635 A 2.31 2.31 0 0 1 39.285 1.456 A 2.912 2.912 0 0 1 39.415 1.712 A 3.525 3.525 0 0 1 39.675 2.604 A 4.763 4.763 0 0 1 39.731 3.353 Z M 29.804 0.844 L 30.617 0.844 L 30.617 1.995 L 31.505 1.995 L 31.505 2.624 L 30.617 2.624 L 30.617 5.572 Q 30.617 5.858 30.735 6.001 Q 30.854 6.144 31.14 6.144 A 1.046 1.046 0 0 0 31.237 6.138 Q 31.34 6.129 31.48 6.101 A 4.024 4.024 0 0 0 31.526 6.091 L 31.526 6.75 A 2.463 2.463 0 0 1 31.094 6.829 A 2.157 2.157 0 0 1 30.902 6.838 Q 30.455 6.838 30.189 6.616 A 0.856 0.856 0 0 1 30.081 6.508 Q 29.853 6.238 29.813 5.78 A 2.351 2.351 0 0 1 29.804 5.572 L 29.804 2.624 L 28.938 2.624 L 28.938 1.995 L 29.804 1.995 L 29.804 0.844 Z M 79.532 0.844 L 80.345 0.844 L 80.345 1.995 L 81.233 1.995 L 81.233 2.624 L 80.345 2.624 L 80.345 5.572 Q 80.345 5.858 80.464 6.001 Q 80.583 6.144 80.868 6.144 A 1.046 1.046 0 0 0 80.966 6.138 Q 81.069 6.129 81.208 6.101 A 4.024 4.024 0 0 0 81.255 6.091 L 81.255 6.75 A 2.463 2.463 0 0 1 80.822 6.829 A 2.157 2.157 0 0 1 80.631 6.838 Q 80.184 6.838 79.917 6.616 A 0.856 0.856 0 0 1 79.809 6.508 Q 79.582 6.238 79.541 5.78 A 2.351 2.351 0 0 1 79.532 5.572 L 79.532 2.624 L 78.667 2.624 L 78.667 1.995 L 79.532 1.995 L 79.532 0.844 Z M 75.757 0 L 75.757 6.75 L 74.944 6.75 L 74.944 0 L 75.757 0 Z M 14.238 4.386 L 14.238 4.329 A 3.057 3.057 0 0 1 14.325 3.587 A 2.573 2.573 0 0 1 14.513 3.072 A 2.16 2.16 0 0 1 14.928 2.486 A 1.957 1.957 0 0 1 15.278 2.21 A 2.036 2.036 0 0 1 16.222 1.913 A 2.491 2.491 0 0 1 16.396 1.907 A 2.277 2.277 0 0 1 17.149 2.027 A 1.937 1.937 0 0 1 17.967 2.58 A 2.29 2.29 0 0 1 18.486 3.608 A 3.373 3.373 0 0 1 18.567 4.368 L 18.567 4.425 A 3.114 3.114 0 0 1 18.487 5.142 A 2.577 2.577 0 0 1 18.301 5.671 A 2.056 2.056 0 0 1 17.774 6.361 A 2.001 2.001 0 0 1 17.541 6.53 A 2.045 2.045 0 0 1 16.621 6.829 A 2.529 2.529 0 0 1 16.405 6.838 A 2.262 2.262 0 0 1 15.654 6.718 A 1.938 1.938 0 0 1 14.838 6.166 A 2.297 2.297 0 0 1 14.313 5.111 A 3.357 3.357 0 0 1 14.238 4.386 Z M 57.626 1.969 L 57.626 2.725 A 2.251 2.251 0 0 0 57.383 2.698 A 2.782 2.782 0 0 0 57.226 2.694 Q 56.448 2.694 56.156 3.338 A 1.445 1.445 0 0 0 56.14 3.375 L 56.14 6.75 L 55.327 6.75 L 55.327 1.995 L 56.118 1.995 L 56.131 2.544 Q 56.512 1.938 57.194 1.909 A 1.636 1.636 0 0 1 57.265 1.907 Q 57.503 1.907 57.626 1.969 Z M 114.1 1.969 L 114.1 2.725 A 2.251 2.251 0 0 0 113.857 2.698 A 2.782 2.782 0 0 0 113.7 2.694 Q 112.922 2.694 112.63 3.338 A 1.445 1.445 0 0 0 112.614 3.375 L 112.614 6.75 L 111.801 6.75 L 111.801 1.995 L 112.592 1.995 L 112.606 2.544 Q 112.986 1.938 113.668 1.909 A 1.636 1.636 0 0 1 113.739 1.907 Q 113.977 1.907 114.1 1.969 Z M 102.96 1.046 L 101.975 1.046 L 101.975 6.06 L 102.863 6.06 A 2.519 2.519 0 0 0 103.495 5.985 A 1.747 1.747 0 0 0 104.381 5.454 Q 104.84 4.94 104.911 4.059 A 4.165 4.165 0 0 0 104.924 3.727 L 104.924 3.353 Q 104.924 2.562 104.654 2.027 A 1.864 1.864 0 0 0 104.412 1.659 A 1.687 1.687 0 0 0 103.416 1.09 A 2.499 2.499 0 0 0 102.96 1.046 Z M 38.892 3.819 L 38.892 3.344 A 4.551 4.551 0 0 0 38.847 2.685 Q 38.798 2.35 38.695 2.078 A 1.944 1.944 0 0 0 38.435 1.597 Q 37.978 0.989 37.156 0.989 Q 36.356 0.989 35.897 1.597 A 2.112 2.112 0 0 0 35.572 2.246 Q 35.484 2.527 35.449 2.864 A 4.531 4.531 0 0 0 35.424 3.287 L 35.424 3.757 A 4.254 4.254 0 0 0 35.474 4.43 Q 35.532 4.789 35.656 5.079 A 2.039 2.039 0 0 0 35.888 5.491 A 1.472 1.472 0 0 0 36.955 6.11 A 1.931 1.931 0 0 0 37.165 6.122 A 1.79 1.79 0 0 0 37.723 6.039 A 1.423 1.423 0 0 0 38.43 5.526 A 2.017 2.017 0 0 0 38.731 4.932 Q 38.884 4.462 38.892 3.819 Z M 73.573 1.995 L 73.573 6.75 L 72.76 6.75 L 72.76 1.995 L 73.573 1.995 Z M 77.942 1.995 L 77.942 6.75 L 77.129 6.75 L 77.129 1.995 L 77.942 1.995 Z M 15.056 4.425 A 2.772 2.772 0 0 0 15.103 4.954 Q 15.164 5.264 15.301 5.51 A 1.545 1.545 0 0 0 15.423 5.695 Q 15.79 6.174 16.405 6.174 A 1.269 1.269 0 0 0 16.894 6.083 Q 17.174 5.967 17.376 5.706 A 1.471 1.471 0 0 0 17.389 5.689 A 1.648 1.648 0 0 0 17.644 5.171 Q 17.713 4.945 17.739 4.672 A 3.655 3.655 0 0 0 17.754 4.329 A 2.687 2.687 0 0 0 17.703 3.789 Q 17.635 3.459 17.478 3.2 A 1.586 1.586 0 0 0 17.383 3.061 A 1.231 1.231 0 0 0 16.968 2.705 Q 16.715 2.575 16.396 2.575 Q 15.806 2.575 15.44 3.035 A 1.515 1.515 0 0 0 15.425 3.054 A 1.589 1.589 0 0 0 15.173 3.552 Q 15.103 3.772 15.075 4.039 A 3.676 3.676 0 0 0 15.056 4.425 Z M 41.682 3.344 L 41.682 5.401 A 1.528 1.528 0 0 0 41.968 5.807 Q 42.291 6.127 42.781 6.147 A 1.621 1.621 0 0 0 42.847 6.148 A 1.206 1.206 0 0 0 43.264 6.079 A 1.04 1.04 0 0 0 43.756 5.695 Q 44.082 5.243 44.082 4.333 Q 44.082 3.502 43.761 3.05 A 1.03 1.03 0 0 0 43.011 2.607 A 1.449 1.449 0 0 0 42.838 2.597 A 1.34 1.34 0 0 0 42.328 2.69 Q 41.91 2.86 41.682 3.344 Z M 68.454 3.344 L 68.454 5.401 A 1.528 1.528 0 0 0 68.74 5.807 Q 69.062 6.127 69.552 6.147 A 1.621 1.621 0 0 0 69.618 6.148 A 1.206 1.206 0 0 0 70.035 6.079 A 1.04 1.04 0 0 0 70.528 5.695 Q 70.853 5.243 70.853 4.333 Q 70.853 3.502 70.532 3.05 A 1.03 1.03 0 0 0 69.782 2.607 A 1.449 1.449 0 0 0 69.609 2.597 A 1.34 1.34 0 0 0 69.1 2.69 Q 68.682 2.86 68.454 3.344 Z M 91.103 1.639 L 89.209 4.601 L 91.2 4.601 L 91.2 1.463 L 91.103 1.639 Z M 96.856 5.005 A 1.375 1.375 0 0 0 96.796 4.592 A 1.109 1.109 0 0 0 96.515 4.131 A 1.148 1.148 0 0 0 95.844 3.807 A 1.593 1.593 0 0 0 95.625 3.792 A 1.466 1.466 0 0 0 95.236 3.841 A 1.086 1.086 0 0 0 94.744 4.126 A 1.123 1.123 0 0 0 94.43 4.762 A 1.572 1.572 0 0 0 94.412 5.005 A 1.48 1.48 0 0 0 94.454 5.367 A 1.019 1.019 0 0 0 94.735 5.862 Q 95.041 6.158 95.574 6.173 A 2.053 2.053 0 0 0 95.634 6.174 Q 96.128 6.174 96.437 5.94 A 1.018 1.018 0 0 0 96.53 5.86 A 1.041 1.041 0 0 0 96.83 5.292 A 1.518 1.518 0 0 0 96.856 5.005 Z M 95.634 0.932 A 1.259 1.259 0 0 0 95.281 0.979 A 0.973 0.973 0 0 0 94.858 1.228 Q 94.562 1.525 94.562 2.035 A 1.325 1.325 0 0 0 94.606 2.387 A 0.994 0.994 0 0 0 94.854 2.823 A 0.974 0.974 0 0 0 95.416 3.108 A 1.382 1.382 0 0 0 95.634 3.125 A 1.279 1.279 0 0 0 95.979 3.08 A 0.952 0.952 0 0 0 96.414 2.823 A 1.018 1.018 0 0 0 96.689 2.26 A 1.426 1.426 0 0 0 96.706 2.035 A 1.282 1.282 0 0 0 96.656 1.668 A 1.013 1.013 0 0 0 96.403 1.239 Q 96.1 0.932 95.634 0.932 Z M 2.944 5.418 L 2.944 4.443 L 2.307 4.443 Q 0.813 4.443 0.813 5.317 Q 0.813 5.7 1.068 5.915 A 0.893 0.893 0 0 0 1.481 6.108 A 1.259 1.259 0 0 0 1.723 6.13 A 1.429 1.429 0 0 0 2.448 5.933 A 1.335 1.335 0 0 0 2.743 5.705 A 1.108 1.108 0 0 0 2.944 5.418 Z M 65.553 5.418 L 65.553 4.443 L 64.916 4.443 Q 63.422 4.443 63.422 5.317 Q 63.422 5.7 63.677 5.915 A 0.893 0.893 0 0 0 64.09 6.108 A 1.259 1.259 0 0 0 64.332 6.13 A 1.429 1.429 0 0 0 65.057 5.933 A 1.335 1.335 0 0 0 65.352 5.705 A 1.108 1.108 0 0 0 65.553 5.418 Z M 109.714 5.418 L 109.714 4.443 L 109.077 4.443 Q 107.583 4.443 107.583 5.317 Q 107.583 5.7 107.838 5.915 A 0.893 0.893 0 0 0 108.251 6.108 A 1.259 1.259 0 0 0 108.492 6.13 A 1.429 1.429 0 0 0 109.217 5.933 A 1.335 1.335 0 0 0 109.513 5.705 A 1.108 1.108 0 0 0 109.714 5.418 Z M 51.192 3.938 L 53.574 3.938 L 53.574 3.876 Q 53.548 3.417 53.377 3.111 A 1.13 1.13 0 0 0 53.24 2.916 A 0.983 0.983 0 0 0 52.585 2.584 A 1.39 1.39 0 0 0 52.431 2.575 A 1.106 1.106 0 0 0 51.909 2.698 A 1.14 1.14 0 0 0 51.605 2.933 A 1.417 1.417 0 0 0 51.328 3.379 Q 51.255 3.563 51.215 3.785 A 2.741 2.741 0 0 0 51.192 3.938 Z M 72.694 0.734 Q 72.694 0.536 72.815 0.4 Q 72.927 0.274 73.139 0.264 A 0.783 0.783 0 0 1 73.173 0.264 Q 73.411 0.264 73.534 0.4 A 0.474 0.474 0 0 1 73.656 0.703 A 0.614 0.614 0 0 1 73.657 0.734 A 0.523 0.523 0 0 1 73.632 0.9 A 0.442 0.442 0 0 1 73.534 1.063 Q 73.421 1.184 73.213 1.194 A 0.803 0.803 0 0 1 73.173 1.195 Q 73.001 1.195 72.89 1.126 A 0.362 0.362 0 0 1 72.815 1.063 A 0.456 0.456 0 0 1 72.697 0.788 A 0.605 0.605 0 0 1 72.694 0.734 Z M 77.063 0.734 Q 77.063 0.536 77.183 0.4 Q 77.295 0.274 77.507 0.264 A 0.783 0.783 0 0 1 77.542 0.264 Q 77.779 0.264 77.902 0.4 A 0.474 0.474 0 0 1 78.024 0.703 A 0.614 0.614 0 0 1 78.025 0.734 A 0.523 0.523 0 0 1 78 0.9 A 0.442 0.442 0 0 1 77.902 1.063 Q 77.789 1.184 77.581 1.194 A 0.803 0.803 0 0 1 77.542 1.195 Q 77.369 1.195 77.258 1.126 A 0.362 0.362 0 0 1 77.183 1.063 A 0.456 0.456 0 0 1 77.065 0.788 A 0.605 0.605 0 0 1 77.063 0.734 Z" vector-effect="non-scaling-stroke"/></g>
</svg>