<?xml version="1.0" encoding="UTF-8"?>
<svg width="48px" height="48px" viewBox="0 0 48 48" version="1.1" xmlns="http://www.w3.org/2000/svg" xmlns:xlink="http://www.w3.org/1999/xlink">
    <title>Icon-Resource/Managment-Governance/Res_Amazon-Cloudwatch_Event-Time-Based_48_Dark</title>
    <g id="Icon-Resource/Managment-Governance/Res_Amazon-Cloudwatch_Event-Time-Based_48" stroke="none" stroke-width="1" fill="none" fill-rule="evenodd">
        <path transform="translate(12.000000, 8.000000), scale(.65)" d="M39.0691,11.9052 L33.6821,11.9052 L33.6821,9.9052 L37.0691,9.9052 L37.0691,5.6392 L39.0691,5.6392 L39.0691,11.9052 Z M38.0691,4.0002 C41.3981,4.0002 44.1061,6.7092 44.1061,10.0382 C44.1061,13.3672 41.3981,16.0762 38.0691,16.0762 C34.7401,16.0762 32.0311,13.3672 32.0311,10.0382 C32.0311,6.7092 34.7401,4.0002 38.0691,4.0002 L38.0691,4.0002 Z M38.0691,18.0762 C42.5011,18.0762 46.1061,14.4702 46.1061,10.0382 C46.1061,5.6052 42.5011,2.0002 38.0691,2.0002 C33.6361,2.0002 30.0311,5.6052 30.0311,10.0382 C30.0311,14.4702 33.6361,18.0762 38.0691,18.0762 L38.0691,18.0762 Z M41.4671,40.7092 L34.6701,40.7092 L34.6701,21.1552 C36.8571,21.8152 39.2801,21.8152 41.4671,21.1552 L41.4671,40.7092 Z M42.0571,18.8022 C39.5511,19.9292 36.5881,19.9292 34.0801,18.8022 C33.7721,18.6652 33.4121,18.6902 33.1271,18.8752 C32.8411,19.0592 32.6701,19.3762 32.6701,19.7152 L32.6701,41.7092 C32.6701,42.2612 33.1171,42.7092 33.6701,42.7092 L42.4671,42.7092 C43.0201,42.7092 43.4671,42.2612 43.4671,41.7092 L43.4671,19.7152 C43.4671,19.3762 43.2961,19.0592 43.0101,18.8752 C42.7251,18.6892 42.3651,18.6642 42.0571,18.8022 L42.0571,18.8022 Z M2.0001,46.2272 L45.9861,46.2272 L45.9861,44.2272 L2.0001,44.2272 L2.0001,46.2272 Z M20.5941,40.7092 L27.3911,40.7092 L27.3911,27.7532 L20.5941,27.7532 L20.5941,40.7092 Z M19.5941,42.7092 L28.3911,42.7092 C28.9441,42.7092 29.3911,42.2612 29.3911,41.7092 L29.3911,26.7532 C29.3911,26.2002 28.9441,25.7532 28.3911,25.7532 L19.5941,25.7532 C19.0421,25.7532 18.5941,26.2002 18.5941,26.7532 L18.5941,41.7092 C18.5941,42.2612 19.0421,42.7092 19.5941,42.7092 L19.5941,42.7092 Z M6.5181,40.7082 L13.3161,40.7082 L13.3161,23.3542 L6.5181,23.3542 L6.5181,40.7082 Z M5.5181,42.7092 L14.3161,42.7092 C14.8691,42.7092 15.3161,42.2612 15.3161,41.7092 L15.3161,22.3542 C15.3161,21.8012 14.8691,21.3542 14.3161,21.3542 L5.5181,21.3542 C4.9651,21.3542 4.5181,21.8012 4.5181,22.3542 L4.5181,41.7092 C4.5181,42.2612 4.9651,42.7092 5.5181,42.7092 L5.5181,42.7092 Z" id="Amazon-Cloudwatch_Event-time-based_Resource-Icon_light-bg" fill="#000000"></path>
    </g><g transform="translate(25, 83)" id="svgGroup" stroke-linecap="round" fill-rule="evenodd" font-size="9pt" stroke="#000" stroke-width="0.25mm" fill="#000" style="stroke:#000;stroke-width:0.25mm;fill:#000"><path d="M 23.801 0.352 L 24.812 4.733 L 24.935 5.577 L 25.115 4.816 L 26.38 0.352 L 27.092 0.352 L 28.327 4.816 L 28.503 5.59 L 28.639 4.729 L 29.632 0.352 L 30.481 0.352 L 28.929 6.75 L 28.16 6.75 L 26.842 2.087 L 26.741 1.6 L 26.64 2.087 L 25.273 6.75 L 24.504 6.75 L 22.957 0.352 L 23.801 0.352 Z M 54.62 3.103 L 54.62 3.792 L 51.847 3.792 L 51.847 6.06 L 55.068 6.06 L 55.068 6.75 L 51.003 6.75 L 51.003 0.352 L 55.024 0.352 L 55.024 1.046 L 51.847 1.046 L 51.847 3.103 L 54.62 3.103 Z M 4.078 4.72 L 4.926 4.72 A 3.016 3.016 0 0 1 4.765 5.416 A 2.099 2.099 0 0 1 4.177 6.286 Q 3.546 6.838 2.501 6.838 A 2.553 2.553 0 0 1 1.631 6.696 A 2.194 2.194 0 0 1 0.683 6.025 A 2.789 2.789 0 0 1 0.122 4.901 Q 0.015 4.484 0.002 3.992 A 5.262 5.262 0 0 1 0 3.85 L 0 3.234 A 4.251 4.251 0 0 1 0.07 2.445 A 3.229 3.229 0 0 1 0.319 1.666 A 2.539 2.539 0 0 1 0.774 0.99 A 2.26 2.26 0 0 1 1.222 0.626 A 2.415 2.415 0 0 1 2.248 0.281 A 3.027 3.027 0 0 1 2.575 0.264 A 2.962 2.962 0 0 1 3.281 0.343 A 2.065 2.065 0 0 1 4.21 0.833 A 2.16 2.16 0 0 1 4.805 1.795 A 3.086 3.086 0 0 1 4.926 2.408 L 4.078 2.408 Q 4.009 1.929 3.84 1.616 A 1.223 1.223 0 0 0 3.601 1.301 A 1.207 1.207 0 0 0 3.096 1.024 Q 2.909 0.971 2.686 0.961 A 2.396 2.396 0 0 0 2.575 0.958 A 1.753 1.753 0 0 0 1.997 1.049 A 1.463 1.463 0 0 0 1.307 1.556 A 1.989 1.989 0 0 0 0.993 2.175 Q 0.848 2.636 0.848 3.256 L 0.848 3.876 Q 0.848 4.917 1.283 5.533 A 1.38 1.38 0 0 0 2.282 6.135 A 1.814 1.814 0 0 0 2.501 6.148 A 2.497 2.497 0 0 0 2.908 6.117 Q 3.127 6.08 3.303 6.002 A 1.155 1.155 0 0 0 3.579 5.829 Q 3.955 5.511 4.078 4.72 Z M 44.503 0 L 44.503 2.571 A 1.767 1.767 0 0 1 45.17 2.053 A 1.832 1.832 0 0 1 45.91 1.907 A 1.905 1.905 0 0 1 46.543 2.004 Q 47.385 2.3 47.428 3.506 A 3.668 3.668 0 0 1 47.43 3.608 L 47.43 6.75 L 46.617 6.75 L 46.617 3.604 A 1.837 1.837 0 0 0 46.595 3.324 Q 46.545 3.017 46.382 2.843 Q 46.196 2.645 45.843 2.606 A 1.66 1.66 0 0 0 45.664 2.597 A 1.253 1.253 0 0 0 45.249 2.664 A 1.123 1.123 0 0 0 44.969 2.808 A 1.432 1.432 0 0 0 44.503 3.362 L 44.503 6.75 L 43.69 6.75 L 43.69 0 L 44.503 0 Z M 64.947 1.995 L 65.716 1.995 L 65.742 2.593 Q 66.279 1.918 67.138 1.907 A 2.234 2.234 0 0 1 67.166 1.907 A 1.905 1.905 0 0 1 67.8 2.004 Q 68.641 2.3 68.684 3.506 A 3.668 3.668 0 0 1 68.687 3.608 L 68.687 6.75 L 67.874 6.75 L 67.874 3.604 A 1.837 1.837 0 0 0 67.851 3.324 Q 67.801 3.017 67.638 2.843 Q 67.452 2.645 67.099 2.606 A 1.66 1.66 0 0 0 66.92 2.597 A 1.253 1.253 0 0 0 66.506 2.664 A 1.123 1.123 0 0 0 66.226 2.808 A 1.432 1.432 0 0 0 65.76 3.362 L 65.76 6.75 L 64.947 6.75 L 64.947 1.995 Z M 16.22 6.75 L 16.203 6.28 A 1.526 1.526 0 0 1 15.377 6.775 Q 15.126 6.836 14.829 6.838 A 2.996 2.996 0 0 1 14.81 6.838 A 2.086 2.086 0 0 1 14.35 6.79 Q 13.919 6.693 13.652 6.396 A 1.41 1.41 0 0 1 13.369 5.899 Q 13.252 5.556 13.25 5.089 L 13.25 1.995 L 14.063 1.995 L 14.063 5.067 Q 14.063 6.037 14.77 6.137 A 1.229 1.229 0 0 0 14.941 6.148 A 1.927 1.927 0 0 0 15.392 6.099 Q 15.955 5.964 16.181 5.454 L 16.181 1.995 L 16.994 1.995 L 16.994 6.75 L 16.22 6.75 Z M 42.007 5.251 L 42.776 5.251 A 1.432 1.432 0 0 1 42.577 5.901 A 1.772 1.772 0 0 1 42.495 6.029 A 1.828 1.828 0 0 1 41.886 6.574 A 2.169 2.169 0 0 1 41.803 6.618 A 1.997 1.997 0 0 1 40.887 6.838 A 2.346 2.346 0 0 1 40.19 6.739 A 1.839 1.839 0 0 1 39.342 6.19 A 2.171 2.171 0 0 1 38.878 5.31 Q 38.769 4.909 38.769 4.417 L 38.769 4.28 A 3.24 3.24 0 0 1 38.832 3.624 A 2.57 2.57 0 0 1 39.023 3.045 A 2.008 2.008 0 0 1 39.463 2.431 A 1.892 1.892 0 0 1 39.755 2.206 A 1.943 1.943 0 0 1 40.512 1.934 A 2.529 2.529 0 0 1 40.882 1.907 A 2.196 2.196 0 0 1 41.53 1.999 A 1.786 1.786 0 0 1 42.212 2.386 A 1.693 1.693 0 0 1 42.77 3.535 A 2.239 2.239 0 0 1 42.776 3.63 L 42.007 3.63 Q 41.972 3.168 41.658 2.872 A 1.078 1.078 0 0 0 40.929 2.576 A 1.402 1.402 0 0 0 40.882 2.575 A 1.374 1.374 0 0 0 40.461 2.637 A 1.081 1.081 0 0 0 39.922 3.021 A 1.469 1.469 0 0 0 39.695 3.468 Q 39.63 3.674 39.602 3.923 A 3.514 3.514 0 0 0 39.582 4.311 L 39.582 4.465 Q 39.582 5.287 39.92 5.73 A 1.1 1.1 0 0 0 40.707 6.165 A 1.611 1.611 0 0 0 40.887 6.174 A 1.171 1.171 0 0 0 41.647 5.911 A 1.007 1.007 0 0 0 41.891 5.629 A 0.914 0.914 0 0 0 42.007 5.251 Z M 34.932 6.75 L 34.08 6.75 A 0.632 0.632 0 0 1 34.044 6.66 Q 34.013 6.562 33.988 6.41 A 3.997 3.997 0 0 1 33.965 6.249 Q 33.398 6.838 32.612 6.838 A 2.033 2.033 0 0 1 32.083 6.772 A 1.529 1.529 0 0 1 31.458 6.44 Q 31.008 6.042 31.008 5.432 Q 31.008 4.689 31.573 4.278 Q 32.137 3.867 33.161 3.867 L 33.952 3.867 L 33.952 3.494 A 1.152 1.152 0 0 0 33.916 3.199 A 0.828 0.828 0 0 0 33.697 2.815 Q 33.481 2.6 33.091 2.568 A 1.748 1.748 0 0 0 32.946 2.562 Q 32.511 2.562 32.216 2.782 Q 31.922 3.001 31.922 3.313 L 31.105 3.313 A 1.041 1.041 0 0 1 31.229 2.825 A 1.409 1.409 0 0 1 31.357 2.626 Q 31.61 2.294 32.043 2.101 A 2.249 2.249 0 0 1 32.818 1.913 A 2.669 2.669 0 0 1 32.994 1.907 A 2.65 2.65 0 0 1 33.512 1.955 Q 33.819 2.016 34.058 2.156 A 1.439 1.439 0 0 1 34.282 2.318 A 1.396 1.396 0 0 1 34.735 3.144 A 1.998 1.998 0 0 1 34.765 3.45 L 34.765 5.638 Q 34.765 6.073 34.839 6.39 A 1.707 1.707 0 0 0 34.932 6.68 L 34.932 6.75 Z M 18.031 4.395 L 18.031 4.333 A 3.762 3.762 0 0 1 18.098 3.602 Q 18.185 3.16 18.388 2.812 A 2.148 2.148 0 0 1 18.549 2.573 Q 19.068 1.907 19.907 1.907 A 1.964 1.964 0 0 1 20.505 1.994 A 1.559 1.559 0 0 1 21.23 2.479 L 21.23 0 L 22.043 0 L 22.043 6.75 L 21.296 6.75 L 21.256 6.24 Q 20.769 6.838 19.898 6.838 A 1.6 1.6 0 0 1 18.678 6.31 A 2.078 2.078 0 0 1 18.552 6.161 A 2.405 2.405 0 0 1 18.127 5.255 Q 18.043 4.912 18.032 4.51 A 4.425 4.425 0 0 1 18.031 4.395 Z M 59.972 4.504 L 59.972 4.355 A 3.17 3.17 0 0 1 60.048 3.646 A 2.581 2.581 0 0 1 60.242 3.092 A 2.191 2.191 0 0 1 60.69 2.466 A 2.033 2.033 0 0 1 60.998 2.221 Q 61.484 1.907 62.051 1.907 A 2.254 2.254 0 0 1 62.664 1.986 A 1.639 1.639 0 0 1 63.492 2.518 Q 64.006 3.129 64.006 4.267 L 64.006 4.605 L 60.785 4.605 A 2.111 2.111 0 0 0 60.856 5.114 A 1.516 1.516 0 0 0 61.196 5.741 A 1.282 1.282 0 0 0 62.13 6.173 A 1.652 1.652 0 0 0 62.196 6.174 A 1.763 1.763 0 0 0 62.524 6.145 Q 62.748 6.103 62.925 5.999 A 1.827 1.827 0 0 0 63.434 5.551 A 2.068 2.068 0 0 0 63.448 5.533 L 63.945 5.919 A 1.926 1.926 0 0 1 62.545 6.811 A 2.749 2.749 0 0 1 62.152 6.838 A 2.394 2.394 0 0 1 61.401 6.725 A 1.974 1.974 0 0 1 60.579 6.203 Q 59.972 5.568 59.972 4.504 Z M 56.237 1.995 L 57.445 5.647 L 58.623 1.995 L 59.454 1.995 L 57.749 6.75 L 57.129 6.75 L 55.406 1.995 L 56.237 1.995 Z M 36.33 0.844 L 37.143 0.844 L 37.143 1.995 L 38.03 1.995 L 38.03 2.624 L 37.143 2.624 L 37.143 5.572 Q 37.143 5.858 37.261 6.001 Q 37.38 6.144 37.666 6.144 A 1.046 1.046 0 0 0 37.763 6.138 Q 37.866 6.129 38.006 6.101 A 4.024 4.024 0 0 0 38.052 6.091 L 38.052 6.75 A 2.463 2.463 0 0 1 37.62 6.829 A 2.157 2.157 0 0 1 37.428 6.838 Q 36.981 6.838 36.715 6.616 A 0.856 0.856 0 0 1 36.606 6.508 Q 36.379 6.238 36.338 5.78 A 2.351 2.351 0 0 1 36.33 5.572 L 36.33 2.624 L 35.464 2.624 L 35.464 1.995 L 36.33 1.995 L 36.33 0.844 Z M 70.203 0.844 L 71.016 0.844 L 71.016 1.995 L 71.903 1.995 L 71.903 2.624 L 71.016 2.624 L 71.016 5.572 Q 71.016 5.858 71.134 6.001 Q 71.253 6.144 71.539 6.144 A 1.046 1.046 0 0 0 71.636 6.138 Q 71.739 6.129 71.879 6.101 A 4.024 4.024 0 0 0 71.925 6.091 L 71.925 6.75 A 2.463 2.463 0 0 1 71.493 6.829 A 2.157 2.157 0 0 1 71.301 6.838 Q 70.854 6.838 70.588 6.616 A 0.856 0.856 0 0 1 70.48 6.508 Q 70.252 6.238 70.212 5.78 A 2.351 2.351 0 0 1 70.203 5.572 L 70.203 2.624 L 69.337 2.624 L 69.337 1.995 L 70.203 1.995 L 70.203 0.844 Z M 6.834 0 L 6.834 6.75 L 6.021 6.75 L 6.021 0 L 6.834 0 Z M 7.919 4.386 L 7.919 4.329 A 3.057 3.057 0 0 1 8.006 3.587 A 2.573 2.573 0 0 1 8.194 3.072 A 2.16 2.16 0 0 1 8.608 2.486 A 1.957 1.957 0 0 1 8.958 2.21 A 2.036 2.036 0 0 1 9.903 1.913 A 2.491 2.491 0 0 1 10.077 1.907 A 2.277 2.277 0 0 1 10.83 2.027 A 1.937 1.937 0 0 1 11.648 2.58 A 2.29 2.29 0 0 1 12.167 3.608 A 3.373 3.373 0 0 1 12.248 4.368 L 12.248 4.425 A 3.114 3.114 0 0 1 12.168 5.142 A 2.577 2.577 0 0 1 11.982 5.671 A 2.056 2.056 0 0 1 11.454 6.361 A 2.001 2.001 0 0 1 11.221 6.53 A 2.045 2.045 0 0 1 10.302 6.829 A 2.529 2.529 0 0 1 10.085 6.838 A 2.262 2.262 0 0 1 9.335 6.718 A 1.938 1.938 0 0 1 8.519 6.166 A 2.297 2.297 0 0 1 7.993 5.111 A 3.357 3.357 0 0 1 7.919 4.386 Z M 8.736 4.425 A 2.772 2.772 0 0 0 8.784 4.954 Q 8.844 5.264 8.981 5.51 A 1.545 1.545 0 0 0 9.103 5.695 Q 9.47 6.174 10.085 6.174 A 1.269 1.269 0 0 0 10.575 6.083 Q 10.854 5.967 11.057 5.706 A 1.471 1.471 0 0 0 11.07 5.689 A 1.648 1.648 0 0 0 11.325 5.171 Q 11.393 4.945 11.419 4.672 A 3.655 3.655 0 0 0 11.435 4.329 A 2.687 2.687 0 0 0 11.383 3.789 Q 11.316 3.459 11.158 3.2 A 1.586 1.586 0 0 0 11.063 3.061 A 1.231 1.231 0 0 0 10.648 2.705 Q 10.395 2.575 10.077 2.575 Q 9.487 2.575 9.121 3.035 A 1.515 1.515 0 0 0 9.106 3.054 A 1.589 1.589 0 0 0 8.853 3.552 Q 8.784 3.772 8.756 4.039 A 3.676 3.676 0 0 0 8.736 4.425 Z M 21.23 5.454 L 21.23 3.27 A 1.375 1.375 0 0 0 20.918 2.874 Q 20.594 2.597 20.109 2.597 A 1.238 1.238 0 0 0 19.683 2.668 A 1.068 1.068 0 0 0 19.178 3.059 A 1.51 1.51 0 0 0 18.969 3.484 Q 18.903 3.689 18.872 3.939 A 3.955 3.955 0 0 0 18.844 4.425 A 3.162 3.162 0 0 0 18.88 4.918 Q 18.921 5.178 19.009 5.389 A 1.474 1.474 0 0 0 19.178 5.691 A 1.06 1.06 0 0 0 19.94 6.139 A 1.391 1.391 0 0 0 20.101 6.148 Q 20.874 6.148 21.23 5.454 Z M 33.952 5.418 L 33.952 4.443 L 33.315 4.443 Q 31.821 4.443 31.821 5.317 Q 31.821 5.7 32.076 5.915 A 0.893 0.893 0 0 0 32.489 6.108 A 1.259 1.259 0 0 0 32.731 6.13 A 1.429 1.429 0 0 0 33.456 5.933 A 1.335 1.335 0 0 0 33.751 5.705 A 1.108 1.108 0 0 0 33.952 5.418 Z M 60.812 3.938 L 63.193 3.938 L 63.193 3.876 Q 63.167 3.417 62.997 3.111 A 1.13 1.13 0 0 0 62.859 2.916 A 0.983 0.983 0 0 0 62.205 2.584 A 1.39 1.39 0 0 0 62.051 2.575 A 1.106 1.106 0 0 0 61.528 2.698 A 1.14 1.14 0 0 0 61.225 2.933 A 1.417 1.417 0 0 0 60.948 3.379 Q 60.874 3.563 60.834 3.785 A 2.741 2.741 0 0 0 60.812 3.938 Z" vector-effect="non-scaling-stroke"/></g><g transform="translate(25, 93)" id="svgGroup" stroke-linecap="round" fill-rule="evenodd" font-size="9pt" stroke="#000" stroke-width="0.25mm" fill="#000" style="stroke:#000;stroke-width:0.25mm;fill:#000"><path d="M 7.95 1.995 L 8.719 1.995 L 8.741 2.522 Q 9.264 1.907 10.151 1.907 A 2.009 2.009 0 0 1 10.662 1.968 A 1.244 1.244 0 0 1 11.509 2.672 A 1.801 1.801 0 0 1 12.127 2.118 A 1.65 1.65 0 0 1 12.656 1.937 A 2.209 2.209 0 0 1 13.025 1.907 A 2.119 2.119 0 0 1 13.67 1.997 Q 14.596 2.292 14.616 3.564 L 14.616 6.75 L 13.803 6.75 L 13.803 3.612 A 1.781 1.781 0 0 0 13.783 3.332 Q 13.759 3.185 13.709 3.067 A 0.758 0.758 0 0 0 13.57 2.85 A 0.68 0.68 0 0 0 13.317 2.682 Q 13.106 2.597 12.789 2.597 A 1.245 1.245 0 0 0 12.423 2.648 A 1.008 1.008 0 0 0 12.037 2.867 A 1.042 1.042 0 0 0 11.723 3.404 A 1.41 1.41 0 0 0 11.689 3.595 L 11.689 6.75 L 10.872 6.75 L 10.872 3.634 A 1.532 1.532 0 0 0 10.823 3.23 Q 10.697 2.768 10.239 2.643 A 1.457 1.457 0 0 0 9.857 2.597 Q 9.083 2.597 8.783 3.234 A 1.459 1.459 0 0 0 8.763 3.278 L 8.763 6.75 L 7.95 6.75 L 7.95 1.995 Z M 79.211 6.75 L 77.555 4.548 L 77.045 5.08 L 77.045 6.75 L 76.232 6.75 L 76.232 0 L 77.045 0 L 77.045 4.083 L 77.48 3.56 L 78.961 1.995 L 79.95 1.995 L 78.1 3.981 L 80.165 6.75 L 79.211 6.75 Z M 36.875 3.393 L 36.057 3.393 Q 36.057 3.059 35.774 2.817 Q 35.49 2.575 35.06 2.575 Q 34.616 2.575 34.365 2.769 A 0.653 0.653 0 0 0 34.19 2.967 Q 34.117 3.098 34.115 3.263 A 0.771 0.771 0 0 0 34.115 3.274 A 0.588 0.588 0 0 0 34.145 3.467 A 0.48 0.48 0 0 0 34.348 3.718 A 1.093 1.093 0 0 0 34.498 3.796 Q 34.662 3.868 34.918 3.937 A 6.581 6.581 0 0 0 35.189 4.003 A 6.318 6.318 0 0 1 35.597 4.108 Q 35.934 4.208 36.176 4.329 A 1.901 1.901 0 0 1 36.432 4.481 Q 36.569 4.579 36.666 4.692 A 1.06 1.06 0 0 1 36.736 4.783 A 1.024 1.024 0 0 1 36.898 5.191 A 1.388 1.388 0 0 1 36.918 5.432 Q 36.918 6.069 36.409 6.453 Q 35.926 6.817 35.172 6.837 A 3.337 3.337 0 0 1 35.086 6.838 A 2.746 2.746 0 0 1 34.552 6.788 A 2.124 2.124 0 0 1 34.075 6.636 A 1.771 1.771 0 0 1 33.641 6.358 A 1.54 1.54 0 0 1 33.387 6.071 Q 33.139 5.708 33.139 5.287 L 33.952 5.287 A 0.932 0.932 0 0 0 34.026 5.612 A 0.827 0.827 0 0 0 34.28 5.935 A 1.072 1.072 0 0 0 34.682 6.128 Q 34.836 6.167 35.018 6.173 A 2.013 2.013 0 0 0 35.086 6.174 A 1.863 1.863 0 0 0 35.382 6.152 Q 35.543 6.126 35.675 6.07 A 0.941 0.941 0 0 0 35.826 5.988 A 0.689 0.689 0 0 0 35.991 5.837 A 0.554 0.554 0 0 0 36.105 5.489 A 0.698 0.698 0 0 0 36.069 5.258 A 0.581 0.581 0 0 0 35.857 4.977 A 1.05 1.05 0 0 0 35.688 4.878 Q 35.499 4.788 35.205 4.712 A 5.392 5.392 0 0 0 34.991 4.663 A 6.342 6.342 0 0 1 34.63 4.575 Q 34.261 4.473 34.011 4.346 Q 33.713 4.194 33.542 3.994 A 1.017 1.017 0 0 1 33.475 3.907 Q 33.302 3.652 33.302 3.3 A 1.206 1.206 0 0 1 33.701 2.396 A 1.694 1.694 0 0 1 33.796 2.312 A 1.752 1.752 0 0 1 34.579 1.952 A 2.471 2.471 0 0 1 35.06 1.907 A 2.559 2.559 0 0 1 35.623 1.966 A 1.757 1.757 0 0 1 36.371 2.325 Q 36.875 2.742 36.875 3.393 Z M 4.948 0.352 L 4.948 1.046 L 2.892 1.046 L 2.892 6.75 L 2.052 6.75 L 2.052 1.046 L 0 1.046 L 0 0.352 L 4.948 0.352 Z M 32.229 6.75 L 31.377 6.75 A 0.632 0.632 0 0 1 31.341 6.66 Q 31.31 6.562 31.285 6.41 A 3.997 3.997 0 0 1 31.263 6.249 Q 30.696 6.838 29.909 6.838 A 2.033 2.033 0 0 1 29.38 6.772 A 1.529 1.529 0 0 1 28.756 6.44 Q 28.305 6.042 28.305 5.432 Q 28.305 4.689 28.87 4.278 Q 29.435 3.867 30.458 3.867 L 31.25 3.867 L 31.25 3.494 A 1.152 1.152 0 0 0 31.214 3.199 A 0.828 0.828 0 0 0 30.995 2.815 Q 30.778 2.6 30.388 2.568 A 1.748 1.748 0 0 0 30.243 2.562 Q 29.808 2.562 29.514 2.782 Q 29.219 3.001 29.219 3.313 L 28.402 3.313 A 1.041 1.041 0 0 1 28.527 2.825 A 1.409 1.409 0 0 1 28.655 2.626 Q 28.907 2.294 29.34 2.101 A 2.249 2.249 0 0 1 30.116 1.913 A 2.669 2.669 0 0 1 30.292 1.907 A 2.65 2.65 0 0 1 30.809 1.955 Q 31.116 2.016 31.355 2.156 A 1.439 1.439 0 0 1 31.579 2.318 A 1.396 1.396 0 0 1 32.032 3.144 A 1.998 1.998 0 0 1 32.063 3.45 L 32.063 5.638 Q 32.063 6.073 32.136 6.39 A 1.707 1.707 0 0 0 32.229 6.68 L 32.229 6.75 Z M 72.075 6.75 L 71.222 6.75 A 0.632 0.632 0 0 1 71.187 6.66 Q 71.155 6.562 71.131 6.41 A 3.997 3.997 0 0 1 71.108 6.249 Q 70.541 6.838 69.754 6.838 A 2.033 2.033 0 0 1 69.225 6.772 A 1.529 1.529 0 0 1 68.601 6.44 Q 68.15 6.042 68.15 5.432 Q 68.15 4.689 68.715 4.278 Q 69.28 3.867 70.304 3.867 L 71.095 3.867 L 71.095 3.494 A 1.152 1.152 0 0 0 71.059 3.199 A 0.828 0.828 0 0 0 70.84 2.815 Q 70.624 2.6 70.233 2.568 A 1.748 1.748 0 0 0 70.088 2.562 Q 69.653 2.562 69.359 2.782 Q 69.064 3.001 69.064 3.313 L 68.247 3.313 A 1.041 1.041 0 0 1 68.372 2.825 A 1.409 1.409 0 0 1 68.5 2.626 Q 68.752 2.294 69.185 2.101 A 2.249 2.249 0 0 1 69.961 1.913 A 2.669 2.669 0 0 1 70.137 1.907 A 2.65 2.65 0 0 1 70.654 1.955 Q 70.961 2.016 71.2 2.156 A 1.439 1.439 0 0 1 71.424 2.318 A 1.396 1.396 0 0 1 71.878 3.144 A 1.998 1.998 0 0 1 71.908 3.45 L 71.908 5.638 Q 71.908 6.073 71.981 6.39 A 1.707 1.707 0 0 0 72.075 6.68 L 72.075 6.75 Z M 42.548 4.395 L 42.548 4.333 A 3.762 3.762 0 0 1 42.615 3.602 Q 42.702 3.16 42.905 2.812 A 2.148 2.148 0 0 1 43.066 2.573 Q 43.585 1.907 44.424 1.907 A 1.964 1.964 0 0 1 45.022 1.994 A 1.559 1.559 0 0 1 45.747 2.479 L 45.747 0 L 46.56 0 L 46.56 6.75 L 45.813 6.75 L 45.773 6.24 Q 45.286 6.838 44.416 6.838 A 1.6 1.6 0 0 1 43.195 6.31 A 2.078 2.078 0 0 1 43.069 6.161 A 2.405 2.405 0 0 1 42.644 5.255 Q 42.56 4.912 42.549 4.51 A 4.425 4.425 0 0 1 42.548 4.395 Z M 15.636 4.504 L 15.636 4.355 A 3.17 3.17 0 0 1 15.712 3.646 A 2.581 2.581 0 0 1 15.906 3.092 A 2.191 2.191 0 0 1 16.353 2.466 A 2.033 2.033 0 0 1 16.662 2.221 Q 17.147 1.907 17.714 1.907 A 2.254 2.254 0 0 1 18.327 1.986 A 1.639 1.639 0 0 1 19.156 2.518 Q 19.67 3.129 19.67 4.267 L 19.67 4.605 L 16.449 4.605 A 2.111 2.111 0 0 0 16.52 5.114 A 1.516 1.516 0 0 0 16.86 5.741 A 1.282 1.282 0 0 0 17.794 6.173 A 1.652 1.652 0 0 0 17.859 6.174 A 1.763 1.763 0 0 0 18.188 6.145 Q 18.411 6.103 18.589 5.999 A 1.827 1.827 0 0 0 19.098 5.551 A 2.068 2.068 0 0 0 19.112 5.533 L 19.608 5.919 A 1.926 1.926 0 0 1 18.209 6.811 A 2.749 2.749 0 0 1 17.815 6.838 A 2.394 2.394 0 0 1 17.064 6.725 A 1.974 1.974 0 0 1 16.242 6.203 Q 15.636 5.568 15.636 4.504 Z M 37.771 4.504 L 37.771 4.355 A 3.17 3.17 0 0 1 37.847 3.646 A 2.581 2.581 0 0 1 38.041 3.092 A 2.191 2.191 0 0 1 38.489 2.466 A 2.033 2.033 0 0 1 38.797 2.221 Q 39.283 1.907 39.85 1.907 A 2.254 2.254 0 0 1 40.463 1.986 A 1.639 1.639 0 0 1 41.291 2.518 Q 41.805 3.129 41.805 4.267 L 41.805 4.605 L 38.584 4.605 A 2.111 2.111 0 0 0 38.655 5.114 A 1.516 1.516 0 0 0 38.995 5.741 A 1.282 1.282 0 0 0 39.929 6.173 A 1.652 1.652 0 0 0 39.995 6.174 A 1.763 1.763 0 0 0 40.323 6.145 Q 40.547 6.103 40.724 5.999 A 1.827 1.827 0 0 0 41.233 5.551 A 2.068 2.068 0 0 0 41.247 5.533 L 41.744 5.919 A 1.926 1.926 0 0 1 40.344 6.811 A 2.749 2.749 0 0 1 39.951 6.838 A 2.394 2.394 0 0 1 39.199 6.725 A 1.974 1.974 0 0 1 38.377 6.203 Q 37.771 5.568 37.771 4.504 Z M 25.185 6.75 L 22.966 6.75 L 22.966 0.352 L 25.058 0.352 A 4.031 4.031 0 0 1 25.631 0.39 Q 25.923 0.432 26.16 0.521 A 1.629 1.629 0 0 1 26.624 0.782 A 1.383 1.383 0 0 1 27.096 1.558 A 2.164 2.164 0 0 1 27.149 2.057 A 1.3 1.3 0 0 1 26.895 2.85 A 1.589 1.589 0 0 1 26.384 3.294 A 1.972 1.972 0 0 1 26.2 3.384 A 1.571 1.571 0 0 1 26.715 3.63 A 1.446 1.446 0 0 1 27.02 3.935 A 1.531 1.531 0 0 1 27.312 4.713 A 1.961 1.961 0 0 1 27.321 4.904 A 2.139 2.139 0 0 1 27.246 5.487 A 1.577 1.577 0 0 1 26.763 6.258 A 1.832 1.832 0 0 1 26.071 6.633 Q 25.804 6.713 25.485 6.739 A 3.81 3.81 0 0 1 25.185 6.75 Z M 53.398 0.352 L 53.398 4.601 L 54.286 4.601 L 54.286 5.265 L 53.398 5.265 L 53.398 6.75 L 52.581 6.75 L 52.581 5.265 L 49.667 5.265 L 49.667 4.786 L 52.532 0.352 L 53.398 0.352 Z M 64.283 6.75 L 62.512 6.75 L 62.512 0.352 L 64.318 0.352 Q 65.153 0.352 65.795 0.721 Q 66.437 1.09 66.786 1.771 A 3.19 3.19 0 0 1 67.103 2.8 A 4.073 4.073 0 0 1 67.14 3.335 L 67.14 3.744 Q 67.14 4.649 66.79 5.331 A 2.457 2.457 0 0 1 65.793 6.376 Q 65.145 6.741 64.283 6.75 Z M 58.796 2.592 A 1.544 1.544 0 0 0 58.9 2.021 A 2.226 2.226 0 0 0 58.878 1.707 A 1.566 1.566 0 0 0 58.379 0.738 A 1.754 1.754 0 0 0 57.613 0.333 A 2.443 2.443 0 0 0 57.015 0.264 A 2.539 2.539 0 0 0 56.505 0.312 A 1.767 1.767 0 0 0 55.648 0.738 Q 55.129 1.213 55.129 2.021 A 1.808 1.808 0 0 0 55.13 2.058 A 1.499 1.499 0 0 0 55.375 2.87 A 1.626 1.626 0 0 0 55.537 3.077 A 1.726 1.726 0 0 0 56.048 3.454 A 2.119 2.119 0 0 0 55.948 3.5 A 1.738 1.738 0 0 0 55.263 4.087 A 1.629 1.629 0 0 0 54.98 5.023 A 2.272 2.272 0 0 0 54.99 5.237 A 1.63 1.63 0 0 0 55.536 6.344 A 1.895 1.895 0 0 0 56.386 6.771 A 2.797 2.797 0 0 0 57.015 6.838 A 2.796 2.796 0 0 0 57.614 6.777 A 1.925 1.925 0 0 0 58.489 6.346 A 1.578 1.578 0 0 0 58.964 5.62 A 1.989 1.989 0 0 0 59.049 5.023 A 1.581 1.581 0 0 0 58.757 4.087 Q 58.465 3.674 57.964 3.458 Q 58.395 3.248 58.647 2.874 A 1.449 1.449 0 0 0 58.796 2.592 Z M 75.48 1.969 L 75.48 2.725 A 2.251 2.251 0 0 0 75.238 2.698 A 2.782 2.782 0 0 0 75.081 2.694 Q 74.303 2.694 74.011 3.338 A 1.445 1.445 0 0 0 73.995 3.375 L 73.995 6.75 L 73.182 6.75 L 73.182 1.995 L 73.973 1.995 L 73.986 2.544 Q 74.367 1.938 75.049 1.909 A 1.636 1.636 0 0 1 75.12 1.907 Q 75.357 1.907 75.48 1.969 Z M 64.34 1.046 L 63.356 1.046 L 63.356 6.06 L 64.244 6.06 A 2.519 2.519 0 0 0 64.876 5.985 A 1.747 1.747 0 0 0 65.762 5.454 Q 66.221 4.94 66.292 4.059 A 4.165 4.165 0 0 0 66.305 3.727 L 66.305 3.353 Q 66.305 2.562 66.035 2.027 A 1.864 1.864 0 0 0 65.793 1.659 A 1.687 1.687 0 0 0 64.797 1.09 A 2.499 2.499 0 0 0 64.34 1.046 Z M 6.653 1.995 L 6.653 6.75 L 5.84 6.75 L 5.84 1.995 L 6.653 1.995 Z M 45.747 5.454 L 45.747 3.27 A 1.375 1.375 0 0 0 45.435 2.874 Q 45.111 2.597 44.626 2.597 A 1.238 1.238 0 0 0 44.2 2.668 A 1.068 1.068 0 0 0 43.695 3.059 A 1.51 1.51 0 0 0 43.486 3.484 Q 43.42 3.689 43.389 3.939 A 3.955 3.955 0 0 0 43.361 4.425 A 3.162 3.162 0 0 0 43.397 4.918 Q 43.438 5.178 43.526 5.389 A 1.474 1.474 0 0 0 43.695 5.691 A 1.06 1.06 0 0 0 44.457 6.139 A 1.391 1.391 0 0 0 44.618 6.148 Q 45.391 6.148 45.747 5.454 Z M 25.216 3.757 L 23.81 3.757 L 23.81 6.06 L 25.203 6.06 A 1.84 1.84 0 0 0 25.578 6.024 Q 25.818 5.974 26.002 5.854 A 1.064 1.064 0 0 0 26.132 5.755 A 1.003 1.003 0 0 0 26.454 5.154 A 1.459 1.459 0 0 0 26.473 4.913 Q 26.473 4.007 25.7 3.811 A 1.977 1.977 0 0 0 25.216 3.757 Z M 52.484 1.639 L 50.59 4.601 L 52.581 4.601 L 52.581 1.463 L 52.484 1.639 Z M 23.81 1.046 L 23.81 3.081 L 25.084 3.081 Q 25.638 3.081 25.969 2.804 A 0.905 0.905 0 0 0 26.297 2.154 A 1.27 1.27 0 0 0 26.301 2.052 Q 26.301 1.696 26.161 1.471 A 0.71 0.71 0 0 0 25.994 1.285 A 0.969 0.969 0 0 0 25.708 1.136 Q 25.445 1.047 25.063 1.046 A 3.261 3.261 0 0 0 25.058 1.046 L 23.81 1.046 Z M 58.236 5.005 A 1.375 1.375 0 0 0 58.177 4.592 A 1.109 1.109 0 0 0 57.896 4.131 A 1.148 1.148 0 0 0 57.224 3.807 A 1.593 1.593 0 0 0 57.006 3.792 A 1.466 1.466 0 0 0 56.617 3.841 A 1.086 1.086 0 0 0 56.125 4.126 A 1.123 1.123 0 0 0 55.811 4.762 A 1.572 1.572 0 0 0 55.793 5.005 A 1.48 1.48 0 0 0 55.835 5.367 A 1.019 1.019 0 0 0 56.116 5.862 Q 56.422 6.158 56.955 6.173 A 2.053 2.053 0 0 0 57.015 6.174 Q 57.508 6.174 57.818 5.94 A 1.018 1.018 0 0 0 57.911 5.86 A 1.041 1.041 0 0 0 58.211 5.292 A 1.518 1.518 0 0 0 58.236 5.005 Z M 57.015 0.932 A 1.259 1.259 0 0 0 56.662 0.979 A 0.973 0.973 0 0 0 56.239 1.228 Q 55.942 1.525 55.942 2.035 A 1.325 1.325 0 0 0 55.987 2.387 A 0.994 0.994 0 0 0 56.235 2.823 A 0.974 0.974 0 0 0 56.797 3.108 A 1.382 1.382 0 0 0 57.015 3.125 A 1.279 1.279 0 0 0 57.359 3.08 A 0.952 0.952 0 0 0 57.795 2.823 A 1.018 1.018 0 0 0 58.07 2.26 A 1.426 1.426 0 0 0 58.087 2.035 A 1.282 1.282 0 0 0 58.037 1.668 A 1.013 1.013 0 0 0 57.784 1.239 Q 57.48 0.932 57.015 0.932 Z M 31.25 5.418 L 31.25 4.443 L 30.612 4.443 Q 29.118 4.443 29.118 5.317 Q 29.118 5.7 29.373 5.915 A 0.893 0.893 0 0 0 29.787 6.108 A 1.259 1.259 0 0 0 30.028 6.13 A 1.429 1.429 0 0 0 30.753 5.933 A 1.335 1.335 0 0 0 31.048 5.705 A 1.108 1.108 0 0 0 31.25 5.418 Z M 71.095 5.418 L 71.095 4.443 L 70.458 4.443 Q 68.963 4.443 68.963 5.317 Q 68.963 5.7 69.218 5.915 A 0.893 0.893 0 0 0 69.632 6.108 A 1.259 1.259 0 0 0 69.873 6.13 A 1.429 1.429 0 0 0 70.598 5.933 A 1.335 1.335 0 0 0 70.894 5.705 A 1.108 1.108 0 0 0 71.095 5.418 Z M 16.475 3.938 L 18.857 3.938 L 18.857 3.876 Q 18.831 3.417 18.66 3.111 A 1.13 1.13 0 0 0 18.523 2.916 A 0.983 0.983 0 0 0 17.869 2.584 A 1.39 1.39 0 0 0 17.714 2.575 A 1.106 1.106 0 0 0 17.192 2.698 A 1.14 1.14 0 0 0 16.888 2.933 A 1.417 1.417 0 0 0 16.612 3.379 Q 16.538 3.563 16.498 3.785 A 2.741 2.741 0 0 0 16.475 3.938 Z M 38.61 3.938 L 40.992 3.938 L 40.992 3.876 Q 40.966 3.417 40.795 3.111 A 1.13 1.13 0 0 0 40.658 2.916 A 0.983 0.983 0 0 0 40.004 2.584 A 1.39 1.39 0 0 0 39.85 2.575 A 1.106 1.106 0 0 0 39.327 2.698 A 1.14 1.14 0 0 0 39.023 2.933 A 1.417 1.417 0 0 0 38.747 3.379 Q 38.673 3.563 38.633 3.785 A 2.741 2.741 0 0 0 38.61 3.938 Z M 5.774 0.734 Q 5.774 0.536 5.895 0.4 Q 6.007 0.274 6.219 0.264 A 0.783 0.783 0 0 1 6.253 0.264 Q 6.491 0.264 6.614 0.4 A 0.474 0.474 0 0 1 6.736 0.703 A 0.614 0.614 0 0 1 6.737 0.734 A 0.523 0.523 0 0 1 6.712 0.9 A 0.442 0.442 0 0 1 6.614 1.063 Q 6.501 1.184 6.293 1.194 A 0.803 0.803 0 0 1 6.253 1.195 Q 6.081 1.195 5.97 1.126 A 0.362 0.362 0 0 1 5.895 1.063 A 0.456 0.456 0 0 1 5.777 0.788 A 0.605 0.605 0 0 1 5.774 0.734 Z" vector-effect="non-scaling-stroke"/></g>
</svgversion="1.0" encoding="UTF-8"?>
<svg width="48px" height="48px" viewBox="0 0 48 48" version="1.1" xmlns="http://www.w3.org/2000/svg" xmlns:xlink="http://www.w3.org/1999/xlink">
    <title>Icon-Resource/Managment-Governance/Res_Amazon-Cloudwatch_Event-Time-Based_48_Dark</title>
    <g id="Icon-Resource/Managment-Governance/Res_Amazon-Cloudwatch_Event-Time-Based_48" stroke="none" stroke-width="1" fill="none" fill-rule="evenodd">
        <path transform="translate(12.000000, 8.000000), scale(.65)" d="M39.0691,11.9052 L33.6821,11.9052 L33.6821,9.9052 L37.0691,9.9052 L37.0691,5.6392 L39.0691,5.6392 L39.0691,11.9052 Z M38.0691,4.0002 C41.3981,4.0002 44.1061,6.7092 44.1061,10.0382 C44.1061,13.3672 41.3981,16.0762 38.0691,16.0762 C34.7401,16.0762 32.0311,13.3672 32.0311,10.0382 C32.0311,6.7092 34.7401,4.0002 38.0691,4.0002 L38.0691,4.0002 Z M38.0691,18.0762 C42.5011,18.0762 46.1061,14.4702 46.1061,10.0382 C46.1061,5.6052 42.5011,2.0002 38.0691,2.0002 C33.6361,2.0002 30.0311,5.6052 30.0311,10.0382 C30.0311,14.4702 33.6361,18.0762 38.0691,18.0762 L38.0691,18.0762 Z M41.4671,40.7092 L34.6701,40.7092 L34.6701,21.1552 C36.8571,21.8152 39.2801,21.8152 41.4671,21.1552 L41.4671,40.7092 Z M42.0571,18.8022 C39.5511,19.9292 36.5881,19.9292 34.0801,18.8022 C33.7721,18.6652 33.4121,18.6902 33.1271,18.8752 C32.8411,19.0592 32.6701,19.3762 32.6701,19.7152 L32.6701,41.7092 C32.6701,42.2612 33.1171,42.7092 33.6701,42.7092 L42.4671,42.7092 C43.0201,42.7092 43.4671,42.2612 43.4671,41.7092 L43.4671,19.7152 C43.4671,19.3762 43.2961,19.0592 43.0101,18.8752 C42.7251,18.6892 42.3651,18.6642 42.0571,18.8022 L42.0571,18.8022 Z M2.0001,46.2272 L45.9861,46.2272 L45.9861,44.2272 L2.0001,44.2272 L2.0001,46.2272 Z M20.5941,40.7092 L27.3911,40.7092 L27.3911,27.7532 L20.5941,27.7532 L20.5941,40.7092 Z M19.5941,42.7092 L28.3911,42.7092 C28.9441,42.7092 29.3911,42.2612 29.3911,41.7092 L29.3911,26.7532 C29.3911,26.2002 28.9441,25.7532 28.3911,25.7532 L19.5941,25.7532 C19.0421,25.7532 18.5941,26.2002 18.5941,26.7532 L18.5941,41.7092 C18.5941,42.2612 19.0421,42.7092 19.5941,42.7092 L19.5941,42.7092 Z M6.5181,40.7082 L13.3161,40.7082 L13.3161,23.3542 L6.5181,23.3542 L6.5181,40.7082 Z M5.5181,42.7092 L14.3161,42.7092 C14.8691,42.7092 15.3161,42.2612 15.3161,41.7092 L15.3161,22.3542 C15.3161,21.8012 14.8691,21.3542 14.3161,21.3542 L5.5181,21.3542 C4.9651,21.3542 4.5181,21.8012 4.5181,22.3542 L4.5181,41.7092 C4.5181,42.2612 4.9651,42.7092 5.5181,42.7092 L5.5181,42.7092 Z" id="Amazon-Cloudwatch_Event-time-based_Resource-Icon_light-bg" fill="#000000"></path>
    </g><g transform="translate(25, 83)" id="svgGroup" stroke-linecap="round" fill-rule="evenodd" font-size="9pt" stroke="#000" stroke-width="0.25mm" fill="#000" style="stroke:#000;stroke-width:0.25mm;fill:#000"><path d="M 23.801 0.352 L 24.812 4.733 L 24.935 5.577 L 25.115 4.816 L 26.38 0.352 L 27.092 0.352 L 28.327 4.816 L 28.503 5.59 L 28.639 4.729 L 29.632 0.352 L 30.481 0.352 L 28.929 6.75 L 28.16 6.75 L 26.842 2.087 L 26.741 1.6 L 26.64 2.087 L 25.273 6.75 L 24.504 6.75 L 22.957 0.352 L 23.801 0.352 Z M 54.62 3.103 L 54.62 3.792 L 51.847 3.792 L 51.847 6.06 L 55.068 6.06 L 55.068 6.75 L 51.003 6.75 L 51.003 0.352 L 55.024 0.352 L 55.024 1.046 L 51.847 1.046 L 51.847 3.103 L 54.62 3.103 Z M 4.078 4.72 L 4.926 4.72 A 3.016 3.016 0 0 1 4.765 5.416 A 2.099 2.099 0 0 1 4.177 6.286 Q 3.546 6.838 2.501 6.838 A 2.553 2.553 0 0 1 1.631 6.696 A 2.194 2.194 0 0 1 0.683 6.025 A 2.789 2.789 0 0 1 0.122 4.901 Q 0.015 4.484 0.002 3.992 A 5.262 5.262 0 0 1 0 3.85 L 0 3.234 A 4.251 4.251 0 0 1 0.07 2.445 A 3.229 3.229 0 0 1 0.319 1.666 A 2.539 2.539 0 0 1 0.774 0.99 A 2.26 2.26 0 0 1 1.222 0.626 A 2.415 2.415 0 0 1 2.248 0.281 A 3.027 3.027 0 0 1 2.575 0.264 A 2.962 2.962 0 0 1 3.281 0.343 A 2.065 2.065 0 0 1 4.21 0.833 A 2.16 2.16 0 0 1 4.805 1.795 A 3.086 3.086 0 0 1 4.926 2.408 L 4.078 2.408 Q 4.009 1.929 3.84 1.616 A 1.223 1.223 0 0 0 3.601 1.301 A 1.207 1.207 0 0 0 3.096 1.024 Q 2.909 0.971 2.686 0.961 A 2.396 2.396 0 0 0 2.575 0.958 A 1.753 1.753 0 0 0 1.997 1.049 A 1.463 1.463 0 0 0 1.307 1.556 A 1.989 1.989 0 0 0 0.993 2.175 Q 0.848 2.636 0.848 3.256 L 0.848 3.876 Q 0.848 4.917 1.283 5.533 A 1.38 1.38 0 0 0 2.282 6.135 A 1.814 1.814 0 0 0 2.501 6.148 A 2.497 2.497 0 0 0 2.908 6.117 Q 3.127 6.08 3.303 6.002 A 1.155 1.155 0 0 0 3.579 5.829 Q 3.955 5.511 4.078 4.72 Z M 44.503 0 L 44.503 2.571 A 1.767 1.767 0 0 1 45.17 2.053 A 1.832 1.832 0 0 1 45.91 1.907 A 1.905 1.905 0 0 1 46.543 2.004 Q 47.385 2.3 47.428 3.506 A 3.668 3.668 0 0 1 47.43 3.608 L 47.43 6.75 L 46.617 6.75 L 46.617 3.604 A 1.837 1.837 0 0 0 46.595 3.324 Q 46.545 3.017 46.382 2.843 Q 46.196 2.645 45.843 2.606 A 1.66 1.66 0 0 0 45.664 2.597 A 1.253 1.253 0 0 0 45.249 2.664 A 1.123 1.123 0 0 0 44.969 2.808 A 1.432 1.432 0 0 0 44.503 3.362 L 44.503 6.75 L 43.69 6.75 L 43.69 0 L 44.503 0 Z M 64.947 1.995 L 65.716 1.995 L 65.742 2.593 Q 66.279 1.918 67.138 1.907 A 2.234 2.234 0 0 1 67.166 1.907 A 1.905 1.905 0 0 1 67.8 2.004 Q 68.641 2.3 68.684 3.506 A 3.668 3.668 0 0 1 68.687 3.608 L 68.687 6.75 L 67.874 6.75 L 67.874 3.604 A 1.837 1.837 0 0 0 67.851 3.324 Q 67.801 3.017 67.638 2.843 Q 67.452 2.645 67.099 2.606 A 1.66 1.66 0 0 0 66.92 2.597 A 1.253 1.253 0 0 0 66.506 2.664 A 1.123 1.123 0 0 0 66.226 2.808 A 1.432 1.432 0 0 0 65.76 3.362 L 65.76 6.75 L 64.947 6.75 L 64.947 1.995 Z M 16.22 6.75 L 16.203 6.28 A 1.526 1.526 0 0 1 15.377 6.775 Q 15.126 6.836 14.829 6.838 A 2.996 2.996 0 0 1 14.81 6.838 A 2.086 2.086 0 0 1 14.35 6.79 Q 13.919 6.693 13.652 6.396 A 1.41 1.41 0 0 1 13.369 5.899 Q 13.252 5.556 13.25 5.089 L 13.25 1.995 L 14.063 1.995 L 14.063 5.067 Q 14.063 6.037 14.77 6.137 A 1.229 1.229 0 0 0 14.941 6.148 A 1.927 1.927 0 0 0 15.392 6.099 Q 15.955 5.964 16.181 5.454 L 16.181 1.995 L 16.994 1.995 L 16.994 6.75 L 16.22 6.75 Z M 42.007 5.251 L 42.776 5.251 A 1.432 1.432 0 0 1 42.577 5.901 A 1.772 1.772 0 0 1 42.495 6.029 A 1.828 1.828 0 0 1 41.886 6.574 A 2.169 2.169 0 0 1 41.803 6.618 A 1.997 1.997 0 0 1 40.887 6.838 A 2.346 2.346 0 0 1 40.19 6.739 A 1.839 1.839 0 0 1 39.342 6.19 A 2.171 2.171 0 0 1 38.878 5.31 Q 38.769 4.909 38.769 4.417 L 38.769 4.28 A 3.24 3.24 0 0 1 38.832 3.624 A 2.57 2.57 0 0 1 39.023 3.045 A 2.008 2.008 0 0 1 39.463 2.431 A 1.892 1.892 0 0 1 39.755 2.206 A 1.943 1.943 0 0 1 40.512 1.934 A 2.529 2.529 0 0 1 40.882 1.907 A 2.196 2.196 0 0 1 41.53 1.999 A 1.786 1.786 0 0 1 42.212 2.386 A 1.693 1.693 0 0 1 42.77 3.535 A 2.239 2.239 0 0 1 42.776 3.63 L 42.007 3.63 Q 41.972 3.168 41.658 2.872 A 1.078 1.078 0 0 0 40.929 2.576 A 1.402 1.402 0 0 0 40.882 2.575 A 1.374 1.374 0 0 0 40.461 2.637 A 1.081 1.081 0 0 0 39.922 3.021 A 1.469 1.469 0 0 0 39.695 3.468 Q 39.63 3.674 39.602 3.923 A 3.514 3.514 0 0 0 39.582 4.311 L 39.582 4.465 Q 39.582 5.287 39.92 5.73 A 1.1 1.1 0 0 0 40.707 6.165 A 1.611 1.611 0 0 0 40.887 6.174 A 1.171 1.171 0 0 0 41.647 5.911 A 1.007 1.007 0 0 0 41.891 5.629 A 0.914 0.914 0 0 0 42.007 5.251 Z M 34.932 6.75 L 34.08 6.75 A 0.632 0.632 0 0 1 34.044 6.66 Q 34.013 6.562 33.988 6.41 A 3.997 3.997 0 0 1 33.965 6.249 Q 33.398 6.838 32.612 6.838 A 2.033 2.033 0 0 1 32.083 6.772 A 1.529 1.529 0 0 1 31.458 6.44 Q 31.008 6.042 31.008 5.432 Q 31.008 4.689 31.573 4.278 Q 32.137 3.867 33.161 3.867 L 33.952 3.867 L 33.952 3.494 A 1.152 1.152 0 0 0 33.916 3.199 A 0.828 0.828 0 0 0 33.697 2.815 Q 33.481 2.6 33.091 2.568 A 1.748 1.748 0 0 0 32.946 2.562 Q 32.511 2.562 32.216 2.782 Q 31.922 3.001 31.922 3.313 L 31.105 3.313 A 1.041 1.041 0 0 1 31.229 2.825 A 1.409 1.409 0 0 1 31.357 2.626 Q 31.61 2.294 32.043 2.101 A 2.249 2.249 0 0 1 32.818 1.913 A 2.669 2.669 0 0 1 32.994 1.907 A 2.65 2.65 0 0 1 33.512 1.955 Q 33.819 2.016 34.058 2.156 A 1.439 1.439 0 0 1 34.282 2.318 A 1.396 1.396 0 0 1 34.735 3.144 A 1.998 1.998 0 0 1 34.765 3.45 L 34.765 5.638 Q 34.765 6.073 34.839 6.39 A 1.707 1.707 0 0 0 34.932 6.68 L 34.932 6.75 Z M 18.031 4.395 L 18.031 4.333 A 3.762 3.762 0 0 1 18.098 3.602 Q 18.185 3.16 18.388 2.812 A 2.148 2.148 0 0 1 18.549 2.573 Q 19.068 1.907 19.907 1.907 A 1.964 1.964 0 0 1 20.505 1.994 A 1.559 1.559 0 0 1 21.23 2.479 L 21.23 0 L 22.043 0 L 22.043 6.75 L 21.296 6.75 L 21.256 6.24 Q 20.769 6.838 19.898 6.838 A 1.6 1.6 0 0 1 18.678 6.31 A 2.078 2.078 0 0 1 18.552 6.161 A 2.405 2.405 0 0 1 18.127 5.255 Q 18.043 4.912 18.032 4.51 A 4.425 4.425 0 0 1 18.031 4.395 Z M 59.972 4.504 L 59.972 4.355 A 3.17 3.17 0 0 1 60.048 3.646 A 2.581 2.581 0 0 1 60.242 3.092 A 2.191 2.191 0 0 1 60.69 2.466 A 2.033 2.033 0 0 1 60.998 2.221 Q 61.484 1.907 62.051 1.907 A 2.254 2.254 0 0 1 62.664 1.986 A 1.639 1.639 0 0 1 63.492 2.518 Q 64.006 3.129 64.006 4.267 L 64.006 4.605 L 60.785 4.605 A 2.111 2.111 0 0 0 60.856 5.114 A 1.516 1.516 0 0 0 61.196 5.741 A 1.282 1.282 0 0 0 62.13 6.173 A 1.652 1.652 0 0 0 62.196 6.174 A 1.763 1.763 0 0 0 62.524 6.145 Q 62.748 6.103 62.925 5.999 A 1.827 1.827 0 0 0 63.434 5.551 A 2.068 2.068 0 0 0 63.448 5.533 L 63.945 5.919 A 1.926 1.926 0 0 1 62.545 6.811 A 2.749 2.749 0 0 1 62.152 6.838 A 2.394 2.394 0 0 1 61.401 6.725 A 1.974 1.974 0 0 1 60.579 6.203 Q 59.972 5.568 59.972 4.504 Z M 56.237 1.995 L 57.445 5.647 L 58.623 1.995 L 59.454 1.995 L 57.749 6.75 L 57.129 6.75 L 55.406 1.995 L 56.237 1.995 Z M 36.33 0.844 L 37.143 0.844 L 37.143 1.995 L 38.03 1.995 L 38.03 2.624 L 37.143 2.624 L 37.143 5.572 Q 37.143 5.858 37.261 6.001 Q 37.38 6.144 37.666 6.144 A 1.046 1.046 0 0 0 37.763 6.138 Q 37.866 6.129 38.006 6.101 A 4.024 4.024 0 0 0 38.052 6.091 L 38.052 6.75 A 2.463 2.463 0 0 1 37.62 6.829 A 2.157 2.157 0 0 1 37.428 6.838 Q 36.981 6.838 36.715 6.616 A 0.856 0.856 0 0 1 36.606 6.508 Q 36.379 6.238 36.338 5.78 A 2.351 2.351 0 0 1 36.33 5.572 L 36.33 2.624 L 35.464 2.624 L 35.464 1.995 L 36.33 1.995 L 36.33 0.844 Z M 70.203 0.844 L 71.016 0.844 L 71.016 1.995 L 71.903 1.995 L 71.903 2.624 L 71.016 2.624 L 71.016 5.572 Q 71.016 5.858 71.134 6.001 Q 71.253 6.144 71.539 6.144 A 1.046 1.046 0 0 0 71.636 6.138 Q 71.739 6.129 71.879 6.101 A 4.024 4.024 0 0 0 71.925 6.091 L 71.925 6.75 A 2.463 2.463 0 0 1 71.493 6.829 A 2.157 2.157 0 0 1 71.301 6.838 Q 70.854 6.838 70.588 6.616 A 0.856 0.856 0 0 1 70.48 6.508 Q 70.252 6.238 70.212 5.78 A 2.351 2.351 0 0 1 70.203 5.572 L 70.203 2.624 L 69.337 2.624 L 69.337 1.995 L 70.203 1.995 L 70.203 0.844 Z M 6.834 0 L 6.834 6.75 L 6.021 6.75 L 6.021 0 L 6.834 0 Z M 7.919 4.386 L 7.919 4.329 A 3.057 3.057 0 0 1 8.006 3.587 A 2.573 2.573 0 0 1 8.194 3.072 A 2.16 2.16 0 0 1 8.608 2.486 A 1.957 1.957 0 0 1 8.958 2.21 A 2.036 2.036 0 0 1 9.903 1.913 A 2.491 2.491 0 0 1 10.077 1.907 A 2.277 2.277 0 0 1 10.83 2.027 A 1.937 1.937 0 0 1 11.648 2.58 A 2.29 2.29 0 0 1 12.167 3.608 A 3.373 3.373 0 0 1 12.248 4.368 L 12.248 4.425 A 3.114 3.114 0 0 1 12.168 5.142 A 2.577 2.577 0 0 1 11.982 5.671 A 2.056 2.056 0 0 1 11.454 6.361 A 2.001 2.001 0 0 1 11.221 6.53 A 2.045 2.045 0 0 1 10.302 6.829 A 2.529 2.529 0 0 1 10.085 6.838 A 2.262 2.262 0 0 1 9.335 6.718 A 1.938 1.938 0 0 1 8.519 6.166 A 2.297 2.297 0 0 1 7.993 5.111 A 3.357 3.357 0 0 1 7.919 4.386 Z M 8.736 4.425 A 2.772 2.772 0 0 0 8.784 4.954 Q 8.844 5.264 8.981 5.51 A 1.545 1.545 0 0 0 9.103 5.695 Q 9.47 6.174 10.085 6.174 A 1.269 1.269 0 0 0 10.575 6.083 Q 10.854 5.967 11.057 5.706 A 1.471 1.471 0 0 0 11.07 5.689 A 1.648 1.648 0 0 0 11.325 5.171 Q 11.393 4.945 11.419 4.672 A 3.655 3.655 0 0 0 11.435 4.329 A 2.687 2.687 0 0 0 11.383 3.789 Q 11.316 3.459 11.158 3.2 A 1.586 1.586 0 0 0 11.063 3.061 A 1.231 1.231 0 0 0 10.648 2.705 Q 10.395 2.575 10.077 2.575 Q 9.487 2.575 9.121 3.035 A 1.515 1.515 0 0 0 9.106 3.054 A 1.589 1.589 0 0 0 8.853 3.552 Q 8.784 3.772 8.756 4.039 A 3.676 3.676 0 0 0 8.736 4.425 Z M 21.23 5.454 L 21.23 3.27 A 1.375 1.375 0 0 0 20.918 2.874 Q 20.594 2.597 20.109 2.597 A 1.238 1.238 0 0 0 19.683 2.668 A 1.068 1.068 0 0 0 19.178 3.059 A 1.51 1.51 0 0 0 18.969 3.484 Q 18.903 3.689 18.872 3.939 A 3.955 3.955 0 0 0 18.844 4.425 A 3.162 3.162 0 0 0 18.88 4.918 Q 18.921 5.178 19.009 5.389 A 1.474 1.474 0 0 0 19.178 5.691 A 1.06 1.06 0 0 0 19.94 6.139 A 1.391 1.391 0 0 0 20.101 6.148 Q 20.874 6.148 21.23 5.454 Z M 33.952 5.418 L 33.952 4.443 L 33.315 4.443 Q 31.821 4.443 31.821 5.317 Q 31.821 5.7 32.076 5.915 A 0.893 0.893 0 0 0 32.489 6.108 A 1.259 1.259 0 0 0 32.731 6.13 A 1.429 1.429 0 0 0 33.456 5.933 A 1.335 1.335 0 0 0 33.751 5.705 A 1.108 1.108 0 0 0 33.952 5.418 Z M 60.812 3.938 L 63.193 3.938 L 63.193 3.876 Q 63.167 3.417 62.997 3.111 A 1.13 1.13 0 0 0 62.859 2.916 A 0.983 0.983 0 0 0 62.205 2.584 A 1.39 1.39 0 0 0 62.051 2.575 A 1.106 1.106 0 0 0 61.528 2.698 A 1.14 1.14 0 0 0 61.225 2.933 A 1.417 1.417 0 0 0 60.948 3.379 Q 60.874 3.563 60.834 3.785 A 2.741 2.741 0 0 0 60.812 3.938 Z" vector-effect="non-scaling-stroke"/></g><g transform="translate(25, 93)" id="svgGroup" stroke-linecap="round" fill-rule="evenodd" font-size="9pt" stroke="#000" stroke-width="0.25mm" fill="#000" style="stroke:#000;stroke-width:0.25mm;fill:#000"><path d="M 7.95 1.995 L 8.719 1.995 L 8.741 2.522 Q 9.264 1.907 10.151 1.907 A 2.009 2.009 0 0 1 10.662 1.968 A 1.244 1.244 0 0 1 11.509 2.672 A 1.801 1.801 0 0 1 12.127 2.118 A 1.65 1.65 0 0 1 12.656 1.937 A 2.209 2.209 0 0 1 13.025 1.907 A 2.119 2.119 0 0 1 13.67 1.997 Q 14.596 2.292 14.616 3.564 L 14.616 6.75 L 13.803 6.75 L 13.803 3.612 A 1.781 1.781 0 0 0 13.783 3.332 Q 13.759 3.185 13.709 3.067 A 0.758 0.758 0 0 0 13.57 2.85 A 0.68 0.68 0 0 0 13.317 2.682 Q 13.106 2.597 12.789 2.597 A 1.245 1.245 0 0 0 12.423 2.648 A 1.008 1.008 0 0 0 12.037 2.867 A 1.042 1.042 0 0 0 11.723 3.404 A 1.41 1.41 0 0 0 11.689 3.595 L 11.689 6.75 L 10.872 6.75 L 10.872 3.634 A 1.532 1.532 0 0 0 10.823 3.23 Q 10.697 2.768 10.239 2.643 A 1.457 1.457 0 0 0 9.857 2.597 Q 9.083 2.597 8.783 3.234 A 1.459 1.459 0 0 0 8.763 3.278 L 8.763 6.75 L 7.95 6.75 L 7.95 1.995 Z M 79.211 6.75 L 77.555 4.548 L 77.045 5.08 L 77.045 6.75 L 76.232 6.75 L 76.232 0 L 77.045 0 L 77.045 4.083 L 77.48 3.56 L 78.961 1.995 L 79.95 1.995 L 78.1 3.981 L 80.165 6.75 L 79.211 6.75 Z M 36.875 3.393 L 36.057 3.393 Q 36.057 3.059 35.774 2.817 Q 35.49 2.575 35.06 2.575 Q 34.616 2.575 34.365 2.769 A 0.653 0.653 0 0 0 34.19 2.967 Q 34.117 3.098 34.115 3.263 A 0.771 0.771 0 0 0 34.115 3.274 A 0.588 0.588 0 0 0 34.145 3.467 A 0.48 0.48 0 0 0 34.348 3.718 A 1.093 1.093 0 0 0 34.498 3.796 Q 34.662 3.868 34.918 3.937 A 6.581 6.581 0 0 0 35.189 4.003 A 6.318 6.318 0 0 1 35.597 4.108 Q 35.934 4.208 36.176 4.329 A 1.901 1.901 0 0 1 36.432 4.481 Q 36.569 4.579 36.666 4.692 A 1.06 1.06 0 0 1 36.736 4.783 A 1.024 1.024 0 0 1 36.898 5.191 A 1.388 1.388 0 0 1 36.918 5.432 Q 36.918 6.069 36.409 6.453 Q 35.926 6.817 35.172 6.837 A 3.337 3.337 0 0 1 35.086 6.838 A 2.746 2.746 0 0 1 34.552 6.788 A 2.124 2.124 0 0 1 34.075 6.636 A 1.771 1.771 0 0 1 33.641 6.358 A 1.54 1.54 0 0 1 33.387 6.071 Q 33.139 5.708 33.139 5.287 L 33.952 5.287 A 0.932 0.932 0 0 0 34.026 5.612 A 0.827 0.827 0 0 0 34.28 5.935 A 1.072 1.072 0 0 0 34.682 6.128 Q 34.836 6.167 35.018 6.173 A 2.013 2.013 0 0 0 35.086 6.174 A 1.863 1.863 0 0 0 35.382 6.152 Q 35.543 6.126 35.675 6.07 A 0.941 0.941 0 0 0 35.826 5.988 A 0.689 0.689 0 0 0 35.991 5.837 A 0.554 0.554 0 0 0 36.105 5.489 A 0.698 0.698 0 0 0 36.069 5.258 A 0.581 0.581 0 0 0 35.857 4.977 A 1.05 1.05 0 0 0 35.688 4.878 Q 35.499 4.788 35.205 4.712 A 5.392 5.392 0 0 0 34.991 4.663 A 6.342 6.342 0 0 1 34.63 4.575 Q 34.261 4.473 34.011 4.346 Q 33.713 4.194 33.542 3.994 A 1.017 1.017 0 0 1 33.475 3.907 Q 33.302 3.652 33.302 3.3 A 1.206 1.206 0 0 1 33.701 2.396 A 1.694 1.694 0 0 1 33.796 2.312 A 1.752 1.752 0 0 1 34.579 1.952 A 2.471 2.471 0 0 1 35.06 1.907 A 2.559 2.559 0 0 1 35.623 1.966 A 1.757 1.757 0 0 1 36.371 2.325 Q 36.875 2.742 36.875 3.393 Z M 4.948 0.352 L 4.948 1.046 L 2.892 1.046 L 2.892 6.75 L 2.052 6.75 L 2.052 1.046 L 0 1.046 L 0 0.352 L 4.948 0.352 Z M 32.229 6.75 L 31.377 6.75 A 0.632 0.632 0 0 1 31.341 6.66 Q 31.31 6.562 31.285 6.41 A 3.997 3.997 0 0 1 31.263 6.249 Q 30.696 6.838 29.909 6.838 A 2.033 2.033 0 0 1 29.38 6.772 A 1.529 1.529 0 0 1 28.756 6.44 Q 28.305 6.042 28.305 5.432 Q 28.305 4.689 28.87 4.278 Q 29.435 3.867 30.458 3.867 L 31.25 3.867 L 31.25 3.494 A 1.152 1.152 0 0 0 31.214 3.199 A 0.828 0.828 0 0 0 30.995 2.815 Q 30.778 2.6 30.388 2.568 A 1.748 1.748 0 0 0 30.243 2.562 Q 29.808 2.562 29.514 2.782 Q 29.219 3.001 29.219 3.313 L 28.402 3.313 A 1.041 1.041 0 0 1 28.527 2.825 A 1.409 1.409 0 0 1 28.655 2.626 Q 28.907 2.294 29.34 2.101 A 2.249 2.249 0 0 1 30.116 1.913 A 2.669 2.669 0 0 1 30.292 1.907 A 2.65 2.65 0 0 1 30.809 1.955 Q 31.116 2.016 31.355 2.156 A 1.439 1.439 0 0 1 31.579 2.318 A 1.396 1.396 0 0 1 32.032 3.144 A 1.998 1.998 0 0 1 32.063 3.45 L 32.063 5.638 Q 32.063 6.073 32.136 6.39 A 1.707 1.707 0 0 0 32.229 6.68 L 32.229 6.75 Z M 72.075 6.75 L 71.222 6.75 A 0.632 0.632 0 0 1 71.187 6.66 Q 71.155 6.562 71.131 6.41 A 3.997 3.997 0 0 1 71.108 6.249 Q 70.541 6.838 69.754 6.838 A 2.033 2.033 0 0 1 69.225 6.772 A 1.529 1.529 0 0 1 68.601 6.44 Q 68.15 6.042 68.15 5.432 Q 68.15 4.689 68.715 4.278 Q 69.28 3.867 70.304 3.867 L 71.095 3.867 L 71.095 3.494 A 1.152 1.152 0 0 0 71.059 3.199 A 0.828 0.828 0 0 0 70.84 2.815 Q 70.624 2.6 70.233 2.568 A 1.748 1.748 0 0 0 70.088 2.562 Q 69.653 2.562 69.359 2.782 Q 69.064 3.001 69.064 3.313 L 68.247 3.313 A 1.041 1.041 0 0 1 68.372 2.825 A 1.409 1.409 0 0 1 68.5 2.626 Q 68.752 2.294 69.185 2.101 A 2.249 2.249 0 0 1 69.961 1.913 A 2.669 2.669 0 0 1 70.137 1.907 A 2.65 2.65 0 0 1 70.654 1.955 Q 70.961 2.016 71.2 2.156 A 1.439 1.439 0 0 1 71.424 2.318 A 1.396 1.396 0 0 1 71.878 3.144 A 1.998 1.998 0 0 1 71.908 3.45 L 71.908 5.638 Q 71.908 6.073 71.981 6.39 A 1.707 1.707 0 0 0 72.075 6.68 L 72.075 6.75 Z M 42.548 4.395 L 42.548 4.333 A 3.762 3.762 0 0 1 42.615 3.602 Q 42.702 3.16 42.905 2.812 A 2.148 2.148 0 0 1 43.066 2.573 Q 43.585 1.907 44.424 1.907 A 1.964 1.964 0 0 1 45.022 1.994 A 1.559 1.559 0 0 1 45.747 2.479 L 45.747 0 L 46.56 0 L 46.56 6.75 L 45.813 6.75 L 45.773 6.24 Q 45.286 6.838 44.416 6.838 A 1.6 1.6 0 0 1 43.195 6.31 A 2.078 2.078 0 0 1 43.069 6.161 A 2.405 2.405 0 0 1 42.644 5.255 Q 42.56 4.912 42.549 4.51 A 4.425 4.425 0 0 1 42.548 4.395 Z M 15.636 4.504 L 15.636 4.355 A 3.17 3.17 0 0 1 15.712 3.646 A 2.581 2.581 0 0 1 15.906 3.092 A 2.191 2.191 0 0 1 16.353 2.466 A 2.033 2.033 0 0 1 16.662 2.221 Q 17.147 1.907 17.714 1.907 A 2.254 2.254 0 0 1 18.327 1.986 A 1.639 1.639 0 0 1 19.156 2.518 Q 19.67 3.129 19.67 4.267 L 19.67 4.605 L 16.449 4.605 A 2.111 2.111 0 0 0 16.52 5.114 A 1.516 1.516 0 0 0 16.86 5.741 A 1.282 1.282 0 0 0 17.794 6.173 A 1.652 1.652 0 0 0 17.859 6.174 A 1.763 1.763 0 0 0 18.188 6.145 Q 18.411 6.103 18.589 5.999 A 1.827 1.827 0 0 0 19.098 5.551 A 2.068 2.068 0 0 0 19.112 5.533 L 19.608 5.919 A 1.926 1.926 0 0 1 18.209 6.811 A 2.749 2.749 0 0 1 17.815 6.838 A 2.394 2.394 0 0 1 17.064 6.725 A 1.974 1.974 0 0 1 16.242 6.203 Q 15.636 5.568 15.636 4.504 Z M 37.771 4.504 L 37.771 4.355 A 3.17 3.17 0 0 1 37.847 3.646 A 2.581 2.581 0 0 1 38.041 3.092 A 2.191 2.191 0 0 1 38.489 2.466 A 2.033 2.033 0 0 1 38.797 2.221 Q 39.283 1.907 39.85 1.907 A 2.254 2.254 0 0 1 40.463 1.986 A 1.639 1.639 0 0 1 41.291 2.518 Q 41.805 3.129 41.805 4.267 L 41.805 4.605 L 38.584 4.605 A 2.111 2.111 0 0 0 38.655 5.114 A 1.516 1.516 0 0 0 38.995 5.741 A 1.282 1.282 0 0 0 39.929 6.173 A 1.652 1.652 0 0 0 39.995 6.174 A 1.763 1.763 0 0 0 40.323 6.145 Q 40.547 6.103 40.724 5.999 A 1.827 1.827 0 0 0 41.233 5.551 A 2.068 2.068 0 0 0 41.247 5.533 L 41.744 5.919 A 1.926 1.926 0 0 1 40.344 6.811 A 2.749 2.749 0 0 1 39.951 6.838 A 2.394 2.394 0 0 1 39.199 6.725 A 1.974 1.974 0 0 1 38.377 6.203 Q 37.771 5.568 37.771 4.504 Z M 25.185 6.75 L 22.966 6.75 L 22.966 0.352 L 25.058 0.352 A 4.031 4.031 0 0 1 25.631 0.39 Q 25.923 0.432 26.16 0.521 A 1.629 1.629 0 0 1 26.624 0.782 A 1.383 1.383 0 0 1 27.096 1.558 A 2.164 2.164 0 0 1 27.149 2.057 A 1.3 1.3 0 0 1 26.895 2.85 A 1.589 1.589 0 0 1 26.384 3.294 A 1.972 1.972 0 0 1 26.2 3.384 A 1.571 1.571 0 0 1 26.715 3.63 A 1.446 1.446 0 0 1 27.02 3.935 A 1.531 1.531 0 0 1 27.312 4.713 A 1.961 1.961 0 0 1 27.321 4.904 A 2.139 2.139 0 0 1 27.246 5.487 A 1.577 1.577 0 0 1 26.763 6.258 A 1.832 1.832 0 0 1 26.071 6.633 Q 25.804 6.713 25.485 6.739 A 3.81 3.81 0 0 1 25.185 6.75 Z M 53.398 0.352 L 53.398 4.601 L 54.286 4.601 L 54.286 5.265 L 53.398 5.265 L 53.398 6.75 L 52.581 6.75 L 52.581 5.265 L 49.667 5.265 L 49.667 4.786 L 52.532 0.352 L 53.398 0.352 Z M 64.283 6.75 L 62.512 6.75 L 62.512 0.352 L 64.318 0.352 Q 65.153 0.352 65.795 0.721 Q 66.437 1.09 66.786 1.771 A 3.19 3.19 0 0 1 67.103 2.8 A 4.073 4.073 0 0 1 67.14 3.335 L 67.14 3.744 Q 67.14 4.649 66.79 5.331 A 2.457 2.457 0 0 1 65.793 6.376 Q 65.145 6.741 64.283 6.75 Z M 58.796 2.592 A 1.544 1.544 0 0 0 58.9 2.021 A 2.226 2.226 0 0 0 58.878 1.707 A 1.566 1.566 0 0 0 58.379 0.738 A 1.754 1.754 0 0 0 57.613 0.333 A 2.443 2.443 0 0 0 57.015 0.264 A 2.539 2.539 0 0 0 56.505 0.312 A 1.767 1.767 0 0 0 55.648 0.738 Q 55.129 1.213 55.129 2.021 A 1.808 1.808 0 0 0 55.13 2.058 A 1.499 1.499 0 0 0 55.375 2.87 A 1.626 1.626 0 0 0 55.537 3.077 A 1.726 1.726 0 0 0 56.048 3.454 A 2.119 2.119 0 0 0 55.948 3.5 A 1.738 1.738 0 0 0 55.263 4.087 A 1.629 1.629 0 0 0 54.98 5.023 A 2.272 2.272 0 0 0 54.99 5.237 A 1.63 1.63 0 0 0 55.536 6.344 A 1.895 1.895 0 0 0 56.386 6.771 A 2.797 2.797 0 0 0 57.015 6.838 A 2.796 2.796 0 0 0 57.614 6.777 A 1.925 1.925 0 0 0 58.489 6.346 A 1.578 1.578 0 0 0 58.964 5.62 A 1.989 1.989 0 0 0 59.049 5.023 A 1.581 1.581 0 0 0 58.757 4.087 Q 58.465 3.674 57.964 3.458 Q 58.395 3.248 58.647 2.874 A 1.449 1.449 0 0 0 58.796 2.592 Z M 75.48 1.969 L 75.48 2.725 A 2.251 2.251 0 0 0 75.238 2.698 A 2.782 2.782 0 0 0 75.081 2.694 Q 74.303 2.694 74.011 3.338 A 1.445 1.445 0 0 0 73.995 3.375 L 73.995 6.75 L 73.182 6.75 L 73.182 1.995 L 73.973 1.995 L 73.986 2.544 Q 74.367 1.938 75.049 1.909 A 1.636 1.636 0 0 1 75.12 1.907 Q 75.357 1.907 75.48 1.969 Z M 64.34 1.046 L 63.356 1.046 L 63.356 6.06 L 64.244 6.06 A 2.519 2.519 0 0 0 64.876 5.985 A 1.747 1.747 0 0 0 65.762 5.454 Q 66.221 4.94 66.292 4.059 A 4.165 4.165 0 0 0 66.305 3.727 L 66.305 3.353 Q 66.305 2.562 66.035 2.027 A 1.864 1.864 0 0 0 65.793 1.659 A 1.687 1.687 0 0 0 64.797 1.09 A 2.499 2.499 0 0 0 64.34 1.046 Z M 6.653 1.995 L 6.653 6.75 L 5.84 6.75 L 5.84 1.995 L 6.653 1.995 Z M 45.747 5.454 L 45.747 3.27 A 1.375 1.375 0 0 0 45.435 2.874 Q 45.111 2.597 44.626 2.597 A 1.238 1.238 0 0 0 44.2 2.668 A 1.068 1.068 0 0 0 43.695 3.059 A 1.51 1.51 0 0 0 43.486 3.484 Q 43.42 3.689 43.389 3.939 A 3.955 3.955 0 0 0 43.361 4.425 A 3.162 3.162 0 0 0 43.397 4.918 Q 43.438 5.178 43.526 5.389 A 1.474 1.474 0 0 0 43.695 5.691 A 1.06 1.06 0 0 0 44.457 6.139 A 1.391 1.391 0 0 0 44.618 6.148 Q 45.391 6.148 45.747 5.454 Z M 25.216 3.757 L 23.81 3.757 L 23.81 6.06 L 25.203 6.06 A 1.84 1.84 0 0 0 25.578 6.024 Q 25.818 5.974 26.002 5.854 A 1.064 1.064 0 0 0 26.132 5.755 A 1.003 1.003 0 0 0 26.454 5.154 A 1.459 1.459 0 0 0 26.473 4.913 Q 26.473 4.007 25.7 3.811 A 1.977 1.977 0 0 0 25.216 3.757 Z M 52.484 1.639 L 50.59 4.601 L 52.581 4.601 L 52.581 1.463 L 52.484 1.639 Z M 23.81 1.046 L 23.81 3.081 L 25.084 3.081 Q 25.638 3.081 25.969 2.804 A 0.905 0.905 0 0 0 26.297 2.154 A 1.27 1.27 0 0 0 26.301 2.052 Q 26.301 1.696 26.161 1.471 A 0.71 0.71 0 0 0 25.994 1.285 A 0.969 0.969 0 0 0 25.708 1.136 Q 25.445 1.047 25.063 1.046 A 3.261 3.261 0 0 0 25.058 1.046 L 23.81 1.046 Z M 58.236 5.005 A 1.375 1.375 0 0 0 58.177 4.592 A 1.109 1.109 0 0 0 57.896 4.131 A 1.148 1.148 0 0 0 57.224 3.807 A 1.593 1.593 0 0 0 57.006 3.792 A 1.466 1.466 0 0 0 56.617 3.841 A 1.086 1.086 0 0 0 56.125 4.126 A 1.123 1.123 0 0 0 55.811 4.762 A 1.572 1.572 0 0 0 55.793 5.005 A 1.48 1.48 0 0 0 55.835 5.367 A 1.019 1.019 0 0 0 56.116 5.862 Q 56.422 6.158 56.955 6.173 A 2.053 2.053 0 0 0 57.015 6.174 Q 57.508 6.174 57.818 5.94 A 1.018 1.018 0 0 0 57.911 5.86 A 1.041 1.041 0 0 0 58.211 5.292 A 1.518 1.518 0 0 0 58.236 5.005 Z M 57.015 0.932 A 1.259 1.259 0 0 0 56.662 0.979 A 0.973 0.973 0 0 0 56.239 1.228 Q 55.942 1.525 55.942 2.035 A 1.325 1.325 0 0 0 55.987 2.387 A 0.994 0.994 0 0 0 56.235 2.823 A 0.974 0.974 0 0 0 56.797 3.108 A 1.382 1.382 0 0 0 57.015 3.125 A 1.279 1.279 0 0 0 57.359 3.08 A 0.952 0.952 0 0 0 57.795 2.823 A 1.018 1.018 0 0 0 58.07 2.26 A 1.426 1.426 0 0 0 58.087 2.035 A 1.282 1.282 0 0 0 58.037 1.668 A 1.013 1.013 0 0 0 57.784 1.239 Q 57.48 0.932 57.015 0.932 Z M 31.25 5.418 L 31.25 4.443 L 30.612 4.443 Q 29.118 4.443 29.118 5.317 Q 29.118 5.7 29.373 5.915 A 0.893 0.893 0 0 0 29.787 6.108 A 1.259 1.259 0 0 0 30.028 6.13 A 1.429 1.429 0 0 0 30.753 5.933 A 1.335 1.335 0 0 0 31.048 5.705 A 1.108 1.108 0 0 0 31.25 5.418 Z M 71.095 5.418 L 71.095 4.443 L 70.458 4.443 Q 68.963 4.443 68.963 5.317 Q 68.963 5.7 69.218 5.915 A 0.893 0.893 0 0 0 69.632 6.108 A 1.259 1.259 0 0 0 69.873 6.13 A 1.429 1.429 0 0 0 70.598 5.933 A 1.335 1.335 0 0 0 70.894 5.705 A 1.108 1.108 0 0 0 71.095 5.418 Z M 16.475 3.938 L 18.857 3.938 L 18.857 3.876 Q 18.831 3.417 18.66 3.111 A 1.13 1.13 0 0 0 18.523 2.916 A 0.983 0.983 0 0 0 17.869 2.584 A 1.39 1.39 0 0 0 17.714 2.575 A 1.106 1.106 0 0 0 17.192 2.698 A 1.14 1.14 0 0 0 16.888 2.933 A 1.417 1.417 0 0 0 16.612 3.379 Q 16.538 3.563 16.498 3.785 A 2.741 2.741 0 0 0 16.475 3.938 Z M 38.61 3.938 L 40.992 3.938 L 40.992 3.876 Q 40.966 3.417 40.795 3.111 A 1.13 1.13 0 0 0 40.658 2.916 A 0.983 0.983 0 0 0 40.004 2.584 A 1.39 1.39 0 0 0 39.85 2.575 A 1.106 1.106 0 0 0 39.327 2.698 A 1.14 1.14 0 0 0 39.023 2.933 A 1.417 1.417 0 0 0 38.747 3.379 Q 38.673 3.563 38.633 3.785 A 2.741 2.741 0 0 0 38.61 3.938 Z M 5.774 0.734 Q 5.774 0.536 5.895 0.4 Q 6.007 0.274 6.219 0.264 A 0.783 0.783 0 0 1 6.253 0.264 Q 6.491 0.264 6.614 0.4 A 0.474 0.474 0 0 1 6.736 0.703 A 0.614 0.614 0 0 1 6.737 0.734 A 0.523 0.523 0 0 1 6.712 0.9 A 0.442 0.442 0 0 1 6.614 1.063 Q 6.501 1.184 6.293 1.194 A 0.803 0.803 0 0 1 6.253 1.195 Q 6.081 1.195 5.97 1.126 A 0.362 0.362 0 0 1 5.895 1.063 A 0.456 0.456 0 0 1 5.777 0.788 A 0.605 0.605 0 0 1 5.774 0.734 Z" vector-effect="non-scaling-stroke"/></g>
</svg>