<?xml version="1.0" encoding="UTF-8"?>
<svg width="48px" height="48px" viewBox="0 0 48 48" version="1.1" xmlns="http://www.w3.org/2000/svg" xmlns:xlink="http://www.w3.org/1999/xlink">
    <title>Icon-Resource/Managment-Governance/Res_AWS-OpsWorks_Layers_48_Dark</title>
    <g id="Icon-Resource/Managment-Governance/Res_AWS-OpsWorks_Layers_48" stroke="none" stroke-width="1" fill="none" fill-rule="evenodd">
        <path transform="translate(12.000000, 8.000000), scale(.65)" d="M4,43.92 L43.92,43.92 L43.92,30.199 L4,30.199 L4,43.92 Z M44.92,28.199 L3,28.199 C2.448,28.199 2,28.647 2,29.199 L2,44.92 C2,45.473 2.448,45.92 3,45.92 L44.92,45.92 C45.473,45.92 45.92,45.473 45.92,44.92 L45.92,29.199 C45.92,28.647 45.473,28.199 44.92,28.199 L44.92,28.199 Z M4,17.72 L43.92,17.72 L43.92,4 L4,4 L4,17.72 Z M44.92,2 L3,2 C2.448,2 2,2.447 2,3 L2,18.72 C2,19.273 2.448,19.72 3,19.72 L44.92,19.72 C45.473,19.72 45.92,19.273 45.92,18.72 L45.92,3 C45.92,2.447 45.473,2 44.92,2 L44.92,2 Z" id="AWS-OpsWorks-layers_Resource-Icon_light-bg" fill="#000000"></path>
    </g><g transform="translate(25, 83)" id="svgGroup" stroke-linecap="round" fill-rule="evenodd" font-size="9pt" stroke="#000" stroke-width="0.25mm" fill="#000" style="stroke:#000;stroke-width:0.25mm;fill:#000"><path d="M 23.12 0.088 L 24.13 4.469 L 24.253 5.313 L 24.434 4.553 L 25.699 0.088 L 26.411 0.088 L 27.646 4.553 L 27.822 5.326 L 27.958 4.465 L 28.951 0.088 L 29.799 0.088 L 28.248 6.486 L 27.479 6.486 L 26.161 1.824 L 26.06 1.336 L 25.958 1.824 L 24.592 6.486 L 23.823 6.486 L 22.276 0.088 L 23.12 0.088 Z M 34.98 1.938 L 34.132 1.938 A 1.466 1.466 0 0 0 34.083 1.546 A 1.066 1.066 0 0 0 33.763 1.026 A 1.211 1.211 0 0 0 33.294 0.77 Q 33.042 0.694 32.722 0.694 A 2.286 2.286 0 0 0 32.342 0.724 Q 32.14 0.758 31.977 0.831 A 1.101 1.101 0 0 0 31.748 0.969 A 0.892 0.892 0 0 0 31.403 1.624 A 1.267 1.267 0 0 0 31.399 1.732 A 0.806 0.806 0 0 0 31.667 2.337 A 1.134 1.134 0 0 0 31.731 2.393 A 1.562 1.562 0 0 0 31.969 2.549 Q 32.299 2.73 32.86 2.887 A 8.228 8.228 0 0 1 33.325 3.032 Q 33.56 3.113 33.754 3.2 A 3.297 3.297 0 0 1 34.108 3.382 A 2.342 2.342 0 0 1 34.447 3.626 Q 34.637 3.792 34.759 3.985 A 1.45 1.45 0 0 1 34.776 4.012 A 1.498 1.498 0 0 1 34.972 4.568 A 1.948 1.948 0 0 1 34.994 4.86 A 1.606 1.606 0 0 1 34.871 5.497 Q 34.726 5.838 34.408 6.09 A 1.886 1.886 0 0 1 34.387 6.106 Q 33.781 6.574 32.766 6.574 A 3.023 3.023 0 0 1 31.625 6.36 A 2.917 2.917 0 0 1 31.535 6.322 A 2.383 2.383 0 0 1 31.057 6.044 A 1.874 1.874 0 0 1 30.654 5.629 A 1.689 1.689 0 0 1 30.344 4.632 L 31.192 4.632 A 1.261 1.261 0 0 0 31.262 5.059 A 1.074 1.074 0 0 0 31.621 5.548 Q 32.005 5.85 32.622 5.881 A 2.87 2.87 0 0 0 32.766 5.884 A 2.628 2.628 0 0 0 33.153 5.858 Q 33.349 5.828 33.508 5.767 A 1.129 1.129 0 0 0 33.79 5.612 Q 34.146 5.339 34.146 4.869 A 1.074 1.074 0 0 0 34.103 4.559 A 0.816 0.816 0 0 0 33.816 4.142 Q 33.486 3.885 32.621 3.634 Q 31.535 3.322 31.041 2.868 Q 30.546 2.413 30.546 1.745 Q 30.546 0.989 31.151 0.494 A 2.121 2.121 0 0 1 32.041 0.071 A 3.087 3.087 0 0 1 32.722 0 A 2.913 2.913 0 0 1 33.382 0.072 A 2.372 2.372 0 0 1 33.897 0.255 A 2.051 2.051 0 0 1 34.428 0.626 A 1.834 1.834 0 0 1 34.697 0.958 A 1.798 1.798 0 0 1 34.98 1.938 Z M 3.74 6.486 L 2.351 3.898 L 0.848 3.898 L 0.848 6.486 L 0 6.486 L 0 0.088 L 2.118 0.088 A 3.809 3.809 0 0 1 2.76 0.138 Q 3.102 0.197 3.376 0.324 A 1.789 1.789 0 0 1 3.781 0.58 A 1.588 1.588 0 0 1 4.307 1.469 A 2.453 2.453 0 0 1 4.364 2.013 A 1.864 1.864 0 0 1 4.273 2.604 A 1.64 1.64 0 0 1 4.041 3.054 A 1.849 1.849 0 0 1 3.382 3.611 A 2.342 2.342 0 0 1 3.142 3.718 L 4.645 6.434 L 4.645 6.486 L 3.74 6.486 Z M 13.724 3.129 L 12.907 3.129 Q 12.907 2.795 12.623 2.553 Q 12.34 2.312 11.909 2.312 Q 11.465 2.312 11.215 2.505 A 0.653 0.653 0 0 0 11.04 2.704 Q 10.967 2.835 10.964 3 A 0.771 0.771 0 0 0 10.964 3.01 A 0.588 0.588 0 0 0 10.994 3.203 A 0.48 0.48 0 0 0 11.197 3.454 A 1.093 1.093 0 0 0 11.348 3.533 Q 11.512 3.605 11.767 3.673 A 6.581 6.581 0 0 0 12.039 3.74 A 6.318 6.318 0 0 1 12.446 3.845 Q 12.783 3.944 13.025 4.065 A 1.901 1.901 0 0 1 13.281 4.218 Q 13.418 4.315 13.516 4.429 A 1.06 1.06 0 0 1 13.586 4.52 A 1.024 1.024 0 0 1 13.748 4.927 A 1.388 1.388 0 0 1 13.768 5.168 Q 13.768 5.805 13.258 6.19 Q 12.776 6.554 12.022 6.573 A 3.337 3.337 0 0 1 11.936 6.574 A 2.746 2.746 0 0 1 11.401 6.525 A 2.124 2.124 0 0 1 10.925 6.372 A 1.771 1.771 0 0 1 10.491 6.094 A 1.54 1.54 0 0 1 10.237 5.807 Q 9.989 5.445 9.989 5.023 L 10.802 5.023 A 0.932 0.932 0 0 0 10.875 5.348 A 0.827 0.827 0 0 0 11.129 5.671 A 1.072 1.072 0 0 0 11.531 5.864 Q 11.686 5.903 11.867 5.91 A 2.013 2.013 0 0 0 11.936 5.911 A 1.863 1.863 0 0 0 12.231 5.889 Q 12.393 5.863 12.524 5.806 A 0.941 0.941 0 0 0 12.676 5.724 A 0.689 0.689 0 0 0 12.841 5.574 A 0.554 0.554 0 0 0 12.955 5.225 A 0.698 0.698 0 0 0 12.919 4.994 A 0.581 0.581 0 0 0 12.707 4.713 A 1.05 1.05 0 0 0 12.538 4.615 Q 12.349 4.524 12.054 4.449 A 5.392 5.392 0 0 0 11.841 4.399 A 6.342 6.342 0 0 1 11.48 4.311 Q 11.11 4.209 10.861 4.083 Q 10.562 3.93 10.392 3.731 A 1.017 1.017 0 0 1 10.325 3.643 Q 10.151 3.388 10.151 3.037 A 1.206 1.206 0 0 1 10.55 2.132 A 1.694 1.694 0 0 1 10.646 2.048 A 1.752 1.752 0 0 1 11.429 1.688 A 2.471 2.471 0 0 1 11.909 1.644 A 2.559 2.559 0 0 1 12.473 1.702 A 1.757 1.757 0 0 1 13.221 2.061 Q 13.724 2.479 13.724 3.129 Z M 21.327 6.486 L 20.716 4.816 L 18.035 4.816 L 17.433 6.486 L 16.563 6.486 L 19.006 0.088 L 19.745 0.088 L 22.192 6.486 L 21.327 6.486 Z M 5.212 4.241 L 5.212 4.091 A 3.17 3.17 0 0 1 5.288 3.382 A 2.581 2.581 0 0 1 5.482 2.828 A 2.191 2.191 0 0 1 5.93 2.202 A 2.033 2.033 0 0 1 6.238 1.958 Q 6.724 1.644 7.291 1.644 A 2.254 2.254 0 0 1 7.904 1.723 A 1.639 1.639 0 0 1 8.732 2.254 Q 9.246 2.865 9.246 4.003 L 9.246 4.342 L 6.025 4.342 A 2.111 2.111 0 0 0 6.096 4.85 A 1.516 1.516 0 0 0 6.436 5.478 A 1.282 1.282 0 0 0 7.37 5.909 A 1.652 1.652 0 0 0 7.436 5.911 A 1.763 1.763 0 0 0 7.764 5.882 Q 7.988 5.839 8.165 5.735 A 1.827 1.827 0 0 0 8.674 5.287 A 2.068 2.068 0 0 0 8.688 5.269 L 9.185 5.656 A 1.926 1.926 0 0 1 7.785 6.547 A 2.749 2.749 0 0 1 7.392 6.574 A 2.394 2.394 0 0 1 6.64 6.461 A 1.974 1.974 0 0 1 5.818 5.939 Q 5.212 5.304 5.212 4.241 Z M 0.848 0.782 L 0.848 3.208 L 2.145 3.208 Q 2.685 3.208 3.035 2.968 A 1.174 1.174 0 0 0 3.144 2.883 A 1.069 1.069 0 0 0 3.51 2.146 A 1.486 1.486 0 0 0 3.516 2.013 Q 3.516 1.47 3.22 1.159 A 1 1 0 0 0 3.162 1.103 Q 2.808 0.787 2.14 0.782 L 0.848 0.782 Z M 19.375 1.129 L 18.29 4.122 L 20.465 4.122 L 19.375 1.129 Z M 6.051 3.674 L 8.433 3.674 L 8.433 3.612 Q 8.407 3.153 8.236 2.848 A 1.13 1.13 0 0 0 8.099 2.652 A 0.983 0.983 0 0 0 7.445 2.32 A 1.39 1.39 0 0 0 7.291 2.312 A 1.106 1.106 0 0 0 6.768 2.435 A 1.14 1.14 0 0 0 6.464 2.67 A 1.417 1.417 0 0 0 6.188 3.116 Q 6.114 3.3 6.074 3.522 A 2.741 2.741 0 0 0 6.051 3.674 Z" vector-effect="non-scaling-stroke"/></g><g transform="translate(25, 93)" id="svgGroup" stroke-linecap="round" fill-rule="evenodd" font-size="9pt" stroke="#000" stroke-width="0.25mm" fill="#000" style="stroke:#000;stroke-width:0.25mm;fill:#000"><path d="M 16.471 0.352 L 17.481 4.733 L 17.605 5.577 L 17.785 4.816 L 19.05 0.352 L 19.762 0.352 L 20.997 4.816 L 21.173 5.59 L 21.309 4.729 L 22.302 0.352 L 23.15 0.352 L 21.599 6.75 L 20.83 6.75 L 19.512 2.087 L 19.411 1.6 L 19.31 2.087 L 17.943 6.75 L 17.174 6.75 L 15.627 0.352 L 16.471 0.352 Z M 34.985 6.75 L 33.328 4.548 L 32.818 5.08 L 32.818 6.75 L 32.005 6.75 L 32.005 0 L 32.818 0 L 32.818 4.083 L 33.253 3.56 L 34.734 1.995 L 35.723 1.995 L 33.873 3.981 L 35.939 6.75 L 34.985 6.75 Z M 101.149 6.75 L 99.492 4.548 L 98.982 5.08 L 98.982 6.75 L 98.169 6.75 L 98.169 0 L 98.982 0 L 98.982 4.083 L 99.418 3.56 L 100.898 1.995 L 101.887 1.995 L 100.037 3.981 L 102.103 6.75 L 101.149 6.75 Z M 14.871 3.393 L 14.054 3.393 Q 14.054 3.059 13.77 2.817 Q 13.487 2.575 13.056 2.575 Q 12.612 2.575 12.362 2.769 A 0.653 0.653 0 0 0 12.187 2.967 Q 12.114 3.098 12.111 3.263 A 0.771 0.771 0 0 0 12.111 3.274 A 0.588 0.588 0 0 0 12.141 3.467 A 0.48 0.48 0 0 0 12.344 3.718 A 1.093 1.093 0 0 0 12.495 3.796 Q 12.659 3.868 12.914 3.937 A 6.581 6.581 0 0 0 13.186 4.003 A 6.318 6.318 0 0 1 13.594 4.108 Q 13.93 4.208 14.172 4.329 A 1.901 1.901 0 0 1 14.428 4.481 Q 14.565 4.579 14.663 4.692 A 1.06 1.06 0 0 1 14.733 4.783 A 1.024 1.024 0 0 1 14.895 5.191 A 1.388 1.388 0 0 1 14.915 5.432 Q 14.915 6.069 14.405 6.453 Q 13.923 6.817 13.169 6.837 A 3.337 3.337 0 0 1 13.083 6.838 A 2.746 2.746 0 0 1 12.548 6.788 A 2.124 2.124 0 0 1 12.072 6.636 A 1.771 1.771 0 0 1 11.638 6.358 A 1.54 1.54 0 0 1 11.384 6.071 Q 11.136 5.708 11.136 5.287 L 11.949 5.287 A 0.932 0.932 0 0 0 12.022 5.612 A 0.827 0.827 0 0 0 12.276 5.935 A 1.072 1.072 0 0 0 12.678 6.128 Q 12.833 6.167 13.014 6.173 A 2.013 2.013 0 0 0 13.083 6.174 A 1.863 1.863 0 0 0 13.378 6.152 Q 13.54 6.126 13.671 6.07 A 0.941 0.941 0 0 0 13.823 5.988 A 0.689 0.689 0 0 0 13.988 5.837 A 0.554 0.554 0 0 0 14.102 5.489 A 0.698 0.698 0 0 0 14.066 5.258 A 0.581 0.581 0 0 0 13.854 4.977 A 1.05 1.05 0 0 0 13.685 4.878 Q 13.496 4.788 13.201 4.712 A 5.392 5.392 0 0 0 12.988 4.663 A 6.342 6.342 0 0 1 12.627 4.575 Q 12.257 4.473 12.008 4.346 Q 11.709 4.194 11.539 3.994 A 1.017 1.017 0 0 1 11.472 3.907 Q 11.298 3.652 11.298 3.3 A 1.206 1.206 0 0 1 11.697 2.396 A 1.694 1.694 0 0 1 11.793 2.312 A 1.752 1.752 0 0 1 12.576 1.952 A 2.471 2.471 0 0 1 13.056 1.907 A 2.559 2.559 0 0 1 13.62 1.966 A 1.757 1.757 0 0 1 14.368 2.325 Q 14.871 2.742 14.871 3.393 Z M 40.1 3.393 L 39.283 3.393 Q 39.283 3.059 38.999 2.817 Q 38.716 2.575 38.285 2.575 Q 37.841 2.575 37.591 2.769 A 0.653 0.653 0 0 0 37.416 2.967 Q 37.343 3.098 37.34 3.263 A 0.771 0.771 0 0 0 37.34 3.274 A 0.588 0.588 0 0 0 37.37 3.467 A 0.48 0.48 0 0 0 37.573 3.718 A 1.093 1.093 0 0 0 37.724 3.796 Q 37.888 3.868 38.143 3.937 A 6.581 6.581 0 0 0 38.415 4.003 A 6.318 6.318 0 0 1 38.823 4.108 Q 39.159 4.208 39.401 4.329 A 1.901 1.901 0 0 1 39.657 4.481 Q 39.794 4.579 39.892 4.692 A 1.06 1.06 0 0 1 39.962 4.783 A 1.024 1.024 0 0 1 40.124 5.191 A 1.388 1.388 0 0 1 40.144 5.432 Q 40.144 6.069 39.634 6.453 Q 39.152 6.817 38.398 6.837 A 3.337 3.337 0 0 1 38.312 6.838 A 2.746 2.746 0 0 1 37.777 6.788 A 2.124 2.124 0 0 1 37.301 6.636 A 1.771 1.771 0 0 1 36.867 6.358 A 1.54 1.54 0 0 1 36.613 6.071 Q 36.365 5.708 36.365 5.287 L 37.178 5.287 A 0.932 0.932 0 0 0 37.251 5.612 A 0.827 0.827 0 0 0 37.505 5.935 A 1.072 1.072 0 0 0 37.907 6.128 Q 38.062 6.167 38.243 6.173 A 2.013 2.013 0 0 0 38.312 6.174 A 1.863 1.863 0 0 0 38.607 6.152 Q 38.769 6.126 38.9 6.07 A 0.941 0.941 0 0 0 39.052 5.988 A 0.689 0.689 0 0 0 39.217 5.837 A 0.554 0.554 0 0 0 39.331 5.489 A 0.698 0.698 0 0 0 39.295 5.258 A 0.581 0.581 0 0 0 39.083 4.977 A 1.05 1.05 0 0 0 38.914 4.878 Q 38.725 4.788 38.43 4.712 A 5.392 5.392 0 0 0 38.217 4.663 A 6.342 6.342 0 0 1 37.856 4.575 Q 37.486 4.473 37.237 4.346 Q 36.938 4.194 36.768 3.994 A 1.017 1.017 0 0 1 36.701 3.907 Q 36.527 3.652 36.527 3.3 A 1.206 1.206 0 0 1 36.926 2.396 A 1.694 1.694 0 0 1 37.022 2.312 A 1.752 1.752 0 0 1 37.805 1.952 A 2.471 2.471 0 0 1 38.285 1.907 A 2.559 2.559 0 0 1 38.849 1.966 A 1.757 1.757 0 0 1 39.597 2.325 Q 40.1 2.742 40.1 3.393 Z M 68.656 3.393 L 67.838 3.393 Q 67.838 3.059 67.555 2.817 Q 67.272 2.575 66.841 2.575 Q 66.397 2.575 66.147 2.769 A 0.653 0.653 0 0 0 65.971 2.967 Q 65.898 3.098 65.896 3.263 A 0.771 0.771 0 0 0 65.896 3.274 A 0.588 0.588 0 0 0 65.926 3.467 A 0.48 0.48 0 0 0 66.129 3.718 A 1.093 1.093 0 0 0 66.279 3.796 Q 66.443 3.868 66.699 3.937 A 6.581 6.581 0 0 0 66.971 4.003 A 6.318 6.318 0 0 1 67.378 4.108 Q 67.715 4.208 67.957 4.329 A 1.901 1.901 0 0 1 68.213 4.481 Q 68.35 4.579 68.447 4.692 A 1.06 1.06 0 0 1 68.517 4.783 A 1.024 1.024 0 0 1 68.68 5.191 A 1.388 1.388 0 0 1 68.7 5.432 Q 68.7 6.069 68.19 6.453 Q 67.708 6.817 66.954 6.837 A 3.337 3.337 0 0 1 66.867 6.838 A 2.746 2.746 0 0 1 66.333 6.788 A 2.124 2.124 0 0 1 65.856 6.636 A 1.771 1.771 0 0 1 65.423 6.358 A 1.54 1.54 0 0 1 65.169 6.071 Q 64.92 5.708 64.92 5.287 L 65.733 5.287 A 0.932 0.932 0 0 0 65.807 5.612 A 0.827 0.827 0 0 0 66.061 5.935 A 1.072 1.072 0 0 0 66.463 6.128 Q 66.618 6.167 66.799 6.173 A 2.013 2.013 0 0 0 66.867 6.174 A 1.863 1.863 0 0 0 67.163 6.152 Q 67.324 6.126 67.456 6.07 A 0.941 0.941 0 0 0 67.608 5.988 A 0.689 0.689 0 0 0 67.772 5.837 A 0.554 0.554 0 0 0 67.887 5.489 A 0.698 0.698 0 0 0 67.85 5.258 A 0.581 0.581 0 0 0 67.638 4.977 A 1.05 1.05 0 0 0 67.47 4.878 Q 67.281 4.788 66.986 4.712 A 5.392 5.392 0 0 0 66.773 4.663 A 6.342 6.342 0 0 1 66.412 4.575 Q 66.042 4.473 65.793 4.346 Q 65.494 4.194 65.324 3.994 A 1.017 1.017 0 0 1 65.257 3.907 Q 65.083 3.652 65.083 3.3 A 1.206 1.206 0 0 1 65.482 2.396 A 1.694 1.694 0 0 1 65.577 2.312 A 1.752 1.752 0 0 1 66.36 1.952 A 2.471 2.471 0 0 1 66.841 1.907 A 2.559 2.559 0 0 1 67.404 1.966 A 1.757 1.757 0 0 1 68.153 2.325 Q 68.656 2.742 68.656 3.393 Z M 53.473 1.995 L 54.659 5.559 L 55.767 1.995 L 56.637 1.995 L 54.725 7.484 Q 54.281 8.67 53.315 8.67 L 53.161 8.657 L 52.857 8.6 L 52.857 7.941 L 53.077 7.958 Q 53.357 7.958 53.553 7.882 A 0.75 0.75 0 0 0 53.721 7.792 A 0.749 0.749 0 0 0 53.881 7.629 Q 53.999 7.47 54.089 7.215 A 2.575 2.575 0 0 0 54.101 7.181 L 54.281 6.697 L 52.585 1.995 L 53.473 1.995 Z M 52.062 6.75 L 51.21 6.75 A 0.632 0.632 0 0 1 51.174 6.66 Q 51.143 6.562 51.118 6.41 A 3.997 3.997 0 0 1 51.095 6.249 Q 50.528 6.838 49.742 6.838 A 2.033 2.033 0 0 1 49.212 6.772 A 1.529 1.529 0 0 1 48.588 6.44 Q 48.138 6.042 48.138 5.432 Q 48.138 4.689 48.702 4.278 Q 49.267 3.867 50.291 3.867 L 51.082 3.867 L 51.082 3.494 A 1.152 1.152 0 0 0 51.046 3.199 A 0.828 0.828 0 0 0 50.827 2.815 Q 50.611 2.6 50.221 2.568 A 1.748 1.748 0 0 0 50.076 2.562 Q 49.641 2.562 49.346 2.782 Q 49.052 3.001 49.052 3.313 L 48.234 3.313 A 1.041 1.041 0 0 1 48.359 2.825 A 1.409 1.409 0 0 1 48.487 2.626 Q 48.74 2.294 49.173 2.101 A 2.249 2.249 0 0 1 49.948 1.913 A 2.669 2.669 0 0 1 50.124 1.907 A 2.65 2.65 0 0 1 50.642 1.955 Q 50.949 2.016 51.188 2.156 A 1.439 1.439 0 0 1 51.412 2.318 A 1.396 1.396 0 0 1 51.865 3.144 A 1.998 1.998 0 0 1 51.895 3.45 L 51.895 5.638 Q 51.895 6.073 51.969 6.39 A 1.707 1.707 0 0 0 52.062 6.68 L 52.062 6.75 Z M 94.012 6.75 L 93.16 6.75 A 0.632 0.632 0 0 1 93.124 6.66 Q 93.093 6.562 93.068 6.41 A 3.997 3.997 0 0 1 93.045 6.249 Q 92.479 6.838 91.692 6.838 A 2.033 2.033 0 0 1 91.163 6.772 A 1.529 1.529 0 0 1 90.538 6.44 Q 90.088 6.042 90.088 5.432 Q 90.088 4.689 90.653 4.278 Q 91.217 3.867 92.241 3.867 L 93.032 3.867 L 93.032 3.494 A 1.152 1.152 0 0 0 92.997 3.199 A 0.828 0.828 0 0 0 92.777 2.815 Q 92.561 2.6 92.171 2.568 A 1.748 1.748 0 0 0 92.026 2.562 Q 91.591 2.562 91.296 2.782 Q 91.002 3.001 91.002 3.313 L 90.185 3.313 A 1.041 1.041 0 0 1 90.31 2.825 A 1.409 1.409 0 0 1 90.437 2.626 Q 90.69 2.294 91.123 2.101 A 2.249 2.249 0 0 1 91.899 1.913 A 2.669 2.669 0 0 1 92.074 1.907 A 2.65 2.65 0 0 1 92.592 1.955 Q 92.899 2.016 93.138 2.156 A 1.439 1.439 0 0 1 93.362 2.318 A 1.396 1.396 0 0 1 93.815 3.144 A 1.998 1.998 0 0 1 93.845 3.45 L 93.845 5.638 Q 93.845 6.073 93.919 6.39 A 1.707 1.707 0 0 0 94.012 6.68 L 94.012 6.75 Z M 10.301 4.351 L 10.301 4.425 Q 10.301 5.511 9.804 6.174 A 1.57 1.57 0 0 1 8.666 6.828 A 2.013 2.013 0 0 1 8.46 6.838 A 2.196 2.196 0 0 1 7.874 6.764 A 1.598 1.598 0 0 1 7.097 6.289 L 7.097 8.578 L 6.284 8.578 L 6.284 1.995 L 7.027 1.995 L 7.066 2.522 A 1.619 1.619 0 0 1 8.206 1.919 A 2.319 2.319 0 0 1 8.446 1.907 A 1.829 1.829 0 0 1 9.083 2.014 A 1.597 1.597 0 0 1 9.802 2.553 Q 10.301 3.199 10.301 4.351 Z M 57.098 4.504 L 57.098 4.355 A 3.17 3.17 0 0 1 57.174 3.646 A 2.581 2.581 0 0 1 57.368 3.092 A 2.191 2.191 0 0 1 57.816 2.466 A 2.033 2.033 0 0 1 58.124 2.221 Q 58.61 1.907 59.177 1.907 A 2.254 2.254 0 0 1 59.79 1.986 A 1.639 1.639 0 0 1 60.618 2.518 Q 61.132 3.129 61.132 4.267 L 61.132 4.605 L 57.911 4.605 A 2.111 2.111 0 0 0 57.982 5.114 A 1.516 1.516 0 0 0 58.322 5.741 A 1.282 1.282 0 0 0 59.256 6.173 A 1.652 1.652 0 0 0 59.322 6.174 A 1.763 1.763 0 0 0 59.65 6.145 Q 59.874 6.103 60.051 5.999 A 1.827 1.827 0 0 0 60.56 5.551 A 2.068 2.068 0 0 0 60.574 5.533 L 61.071 5.919 A 1.926 1.926 0 0 1 59.671 6.811 A 2.749 2.749 0 0 1 59.278 6.838 A 2.394 2.394 0 0 1 58.527 6.725 A 1.974 1.974 0 0 1 57.705 6.203 Q 57.098 5.568 57.098 4.504 Z M 44.407 0.352 L 44.407 6.06 L 47.439 6.06 L 47.439 6.75 L 43.559 6.75 L 43.559 0.352 L 44.407 0.352 Z M 75.336 0.352 L 75.336 4.601 L 76.223 4.601 L 76.223 5.265 L 75.336 5.265 L 75.336 6.75 L 74.518 6.75 L 74.518 5.265 L 71.605 5.265 L 71.605 4.786 L 74.47 0.352 L 75.336 0.352 Z M 86.221 6.75 L 84.45 6.75 L 84.45 0.352 L 86.256 0.352 Q 87.091 0.352 87.732 0.721 Q 88.374 1.09 88.723 1.771 A 3.19 3.19 0 0 1 89.04 2.8 A 4.073 4.073 0 0 1 89.077 3.335 L 89.077 3.744 Q 89.077 4.649 88.728 5.331 A 2.457 2.457 0 0 1 87.73 6.376 Q 87.082 6.741 86.221 6.75 Z M 80.734 2.592 A 1.544 1.544 0 0 0 80.837 2.021 A 2.226 2.226 0 0 0 80.816 1.707 A 1.566 1.566 0 0 0 80.317 0.738 A 1.754 1.754 0 0 0 79.551 0.333 A 2.443 2.443 0 0 0 78.952 0.264 A 2.539 2.539 0 0 0 78.443 0.312 A 1.767 1.767 0 0 0 77.586 0.738 Q 77.067 1.213 77.067 2.021 A 1.808 1.808 0 0 0 77.067 2.058 A 1.499 1.499 0 0 0 77.313 2.87 A 1.626 1.626 0 0 0 77.475 3.077 A 1.726 1.726 0 0 0 77.985 3.454 A 2.119 2.119 0 0 0 77.886 3.5 A 1.738 1.738 0 0 0 77.201 4.087 A 1.629 1.629 0 0 0 76.918 5.023 A 2.272 2.272 0 0 0 76.927 5.237 A 1.63 1.63 0 0 0 77.473 6.344 A 1.895 1.895 0 0 0 78.324 6.771 A 2.797 2.797 0 0 0 78.952 6.838 A 2.796 2.796 0 0 0 79.551 6.777 A 1.925 1.925 0 0 0 80.427 6.346 A 1.578 1.578 0 0 0 80.901 5.62 A 1.989 1.989 0 0 0 80.987 5.023 A 1.581 1.581 0 0 0 80.695 4.087 Q 80.402 3.674 79.901 3.458 Q 80.332 3.248 80.585 2.874 A 1.449 1.449 0 0 0 80.734 2.592 Z M 5.146 3.353 L 5.146 3.757 A 4.729 4.729 0 0 1 5.081 4.56 A 3.455 3.455 0 0 1 4.83 5.399 A 2.648 2.648 0 0 1 4.433 6.033 A 2.226 2.226 0 0 1 3.933 6.469 A 2.362 2.362 0 0 1 2.914 6.82 A 2.993 2.993 0 0 1 2.58 6.838 A 2.618 2.618 0 0 1 1.773 6.717 A 2.313 2.313 0 0 1 1.239 6.467 A 2.392 2.392 0 0 1 0.439 5.615 A 2.953 2.953 0 0 1 0.332 5.407 A 3.426 3.426 0 0 1 0.055 4.489 A 4.535 4.535 0 0 1 0 3.814 L 0 3.353 A 4.52 4.52 0 0 1 0.075 2.51 A 3.461 3.461 0 0 1 0.321 1.723 Q 0.642 1.015 1.228 0.639 A 2.389 2.389 0 0 1 2.385 0.27 A 2.92 2.92 0 0 1 2.571 0.264 A 2.702 2.702 0 0 1 3.347 0.372 A 2.318 2.318 0 0 1 3.927 0.635 A 2.31 2.31 0 0 1 4.7 1.456 A 2.912 2.912 0 0 1 4.83 1.712 A 3.525 3.525 0 0 1 5.09 2.604 A 4.763 4.763 0 0 1 5.146 3.353 Z M 23.607 4.386 L 23.607 4.329 A 3.057 3.057 0 0 1 23.694 3.587 A 2.573 2.573 0 0 1 23.882 3.072 A 2.16 2.16 0 0 1 24.297 2.486 A 1.957 1.957 0 0 1 24.647 2.21 A 2.036 2.036 0 0 1 25.591 1.913 A 2.491 2.491 0 0 1 25.765 1.907 A 2.277 2.277 0 0 1 26.519 2.027 A 1.937 1.937 0 0 1 27.336 2.58 A 2.29 2.29 0 0 1 27.855 3.608 A 3.373 3.373 0 0 1 27.936 4.368 L 27.936 4.425 A 3.114 3.114 0 0 1 27.857 5.142 A 2.577 2.577 0 0 1 27.67 5.671 A 2.056 2.056 0 0 1 27.143 6.361 A 2.001 2.001 0 0 1 26.91 6.53 A 2.045 2.045 0 0 1 25.99 6.829 A 2.529 2.529 0 0 1 25.774 6.838 A 2.262 2.262 0 0 1 25.024 6.718 A 1.938 1.938 0 0 1 24.207 6.166 A 2.297 2.297 0 0 1 23.682 5.111 A 3.357 3.357 0 0 1 23.607 4.386 Z M 31.254 1.969 L 31.254 2.725 A 2.251 2.251 0 0 0 31.011 2.698 A 2.782 2.782 0 0 0 30.854 2.694 Q 30.076 2.694 29.785 3.338 A 1.445 1.445 0 0 0 29.769 3.375 L 29.769 6.75 L 28.956 6.75 L 28.956 1.995 L 29.747 1.995 L 29.76 2.544 Q 30.14 1.938 30.823 1.909 A 1.636 1.636 0 0 1 30.894 1.907 Q 31.131 1.907 31.254 1.969 Z M 64.371 1.969 L 64.371 2.725 A 2.251 2.251 0 0 0 64.128 2.698 A 2.782 2.782 0 0 0 63.971 2.694 Q 63.193 2.694 62.902 3.338 A 1.445 1.445 0 0 0 62.886 3.375 L 62.886 6.75 L 62.073 6.75 L 62.073 1.995 L 62.864 1.995 L 62.877 2.544 Q 63.257 1.938 63.94 1.909 A 1.636 1.636 0 0 1 64.011 1.907 Q 64.248 1.907 64.371 1.969 Z M 97.418 1.969 L 97.418 2.725 A 2.251 2.251 0 0 0 97.175 2.698 A 2.782 2.782 0 0 0 97.018 2.694 Q 96.24 2.694 95.949 3.338 A 1.445 1.445 0 0 0 95.933 3.375 L 95.933 6.75 L 95.12 6.75 L 95.12 1.995 L 95.911 1.995 L 95.924 2.544 Q 96.304 1.938 96.987 1.909 A 1.636 1.636 0 0 1 97.058 1.907 Q 97.295 1.907 97.418 1.969 Z M 86.278 1.046 L 85.294 1.046 L 85.294 6.06 L 86.181 6.06 A 2.519 2.519 0 0 0 86.814 5.985 A 1.747 1.747 0 0 0 87.7 5.454 Q 88.159 4.94 88.229 4.059 A 4.165 4.165 0 0 0 88.242 3.727 L 88.242 3.353 Q 88.242 2.562 87.973 2.027 A 1.864 1.864 0 0 0 87.73 1.659 A 1.687 1.687 0 0 0 86.734 1.09 A 2.499 2.499 0 0 0 86.278 1.046 Z M 4.307 3.819 L 4.307 3.344 A 4.551 4.551 0 0 0 4.262 2.685 Q 4.213 2.35 4.11 2.078 A 1.944 1.944 0 0 0 3.85 1.597 Q 3.393 0.989 2.571 0.989 Q 1.771 0.989 1.312 1.597 A 2.112 2.112 0 0 0 0.987 2.246 Q 0.899 2.527 0.864 2.864 A 4.531 4.531 0 0 0 0.839 3.287 L 0.839 3.757 A 4.254 4.254 0 0 0 0.889 4.43 Q 0.947 4.789 1.071 5.079 A 2.039 2.039 0 0 0 1.303 5.491 A 1.472 1.472 0 0 0 2.37 6.11 A 1.931 1.931 0 0 0 2.58 6.122 A 1.79 1.79 0 0 0 3.138 6.039 A 1.423 1.423 0 0 0 3.845 5.526 A 2.017 2.017 0 0 0 4.146 4.932 Q 4.299 4.462 4.307 3.819 Z M 24.425 4.425 A 2.772 2.772 0 0 0 24.472 4.954 Q 24.533 5.264 24.67 5.51 A 1.545 1.545 0 0 0 24.792 5.695 Q 25.159 6.174 25.774 6.174 A 1.269 1.269 0 0 0 26.263 6.083 Q 26.543 5.967 26.745 5.706 A 1.471 1.471 0 0 0 26.758 5.689 A 1.648 1.648 0 0 0 27.013 5.171 Q 27.082 4.945 27.108 4.672 A 3.655 3.655 0 0 0 27.123 4.329 A 2.687 2.687 0 0 0 27.072 3.789 Q 27.004 3.459 26.847 3.2 A 1.586 1.586 0 0 0 26.752 3.061 A 1.231 1.231 0 0 0 26.337 2.705 Q 26.084 2.575 25.765 2.575 Q 25.175 2.575 24.809 3.035 A 1.515 1.515 0 0 0 24.794 3.054 A 1.589 1.589 0 0 0 24.542 3.552 Q 24.472 3.772 24.444 4.039 A 3.676 3.676 0 0 0 24.425 4.425 Z M 7.097 3.252 L 7.097 5.524 Q 7.462 6.174 8.213 6.174 A 1.184 1.184 0 0 0 8.679 6.086 Q 8.936 5.977 9.125 5.735 A 1.403 1.403 0 0 0 9.143 5.711 A 1.501 1.501 0 0 0 9.36 5.28 Q 9.428 5.073 9.46 4.818 A 3.91 3.91 0 0 0 9.488 4.333 Q 9.488 3.746 9.305 3.339 A 1.503 1.503 0 0 0 9.145 3.063 A 1.086 1.086 0 0 0 8.359 2.605 A 1.414 1.414 0 0 0 8.205 2.597 Q 7.544 2.597 7.179 3.121 A 1.623 1.623 0 0 0 7.097 3.252 Z M 74.421 1.639 L 72.527 4.601 L 74.518 4.601 L 74.518 1.463 L 74.421 1.639 Z M 80.174 5.005 A 1.375 1.375 0 0 0 80.114 4.592 A 1.109 1.109 0 0 0 79.833 4.131 A 1.148 1.148 0 0 0 79.162 3.807 A 1.593 1.593 0 0 0 78.943 3.792 A 1.466 1.466 0 0 0 78.555 3.841 A 1.086 1.086 0 0 0 78.062 4.126 A 1.123 1.123 0 0 0 77.749 4.762 A 1.572 1.572 0 0 0 77.731 5.005 A 1.48 1.48 0 0 0 77.772 5.367 A 1.019 1.019 0 0 0 78.054 5.862 Q 78.36 6.158 78.893 6.173 A 2.053 2.053 0 0 0 78.952 6.174 Q 79.446 6.174 79.756 5.94 A 1.018 1.018 0 0 0 79.849 5.86 A 1.041 1.041 0 0 0 80.148 5.292 A 1.518 1.518 0 0 0 80.174 5.005 Z M 78.952 0.932 A 1.259 1.259 0 0 0 78.599 0.979 A 0.973 0.973 0 0 0 78.177 1.228 Q 77.88 1.525 77.88 2.035 A 1.325 1.325 0 0 0 77.925 2.387 A 0.994 0.994 0 0 0 78.172 2.823 A 0.974 0.974 0 0 0 78.734 3.108 A 1.382 1.382 0 0 0 78.952 3.125 A 1.279 1.279 0 0 0 79.297 3.08 A 0.952 0.952 0 0 0 79.732 2.823 A 1.018 1.018 0 0 0 80.007 2.26 A 1.426 1.426 0 0 0 80.024 2.035 A 1.282 1.282 0 0 0 79.974 1.668 A 1.013 1.013 0 0 0 79.721 1.239 Q 79.418 0.932 78.952 0.932 Z M 51.082 5.418 L 51.082 4.443 L 50.445 4.443 Q 48.951 4.443 48.951 5.317 Q 48.951 5.7 49.206 5.915 A 0.893 0.893 0 0 0 49.619 6.108 A 1.259 1.259 0 0 0 49.86 6.13 A 1.429 1.429 0 0 0 50.586 5.933 A 1.335 1.335 0 0 0 50.881 5.705 A 1.108 1.108 0 0 0 51.082 5.418 Z M 93.032 5.418 L 93.032 4.443 L 92.395 4.443 Q 90.901 4.443 90.901 5.317 Q 90.901 5.7 91.156 5.915 A 0.893 0.893 0 0 0 91.569 6.108 A 1.259 1.259 0 0 0 91.811 6.13 A 1.429 1.429 0 0 0 92.536 5.933 A 1.335 1.335 0 0 0 92.831 5.705 A 1.108 1.108 0 0 0 93.032 5.418 Z M 57.938 3.938 L 60.319 3.938 L 60.319 3.876 Q 60.293 3.417 60.123 3.111 A 1.13 1.13 0 0 0 59.985 2.916 A 0.983 0.983 0 0 0 59.331 2.584 A 1.39 1.39 0 0 0 59.177 2.575 A 1.106 1.106 0 0 0 58.654 2.698 A 1.14 1.14 0 0 0 58.351 2.933 A 1.417 1.417 0 0 0 58.074 3.379 Q 58 3.563 57.96 3.785 A 2.741 2.741 0 0 0 57.938 3.938 Z" vector-effect="non-scaling-stroke"/></g>
</svgversion="1.0" encoding="UTF-8"?>
<svg width="48px" height="48px" viewBox="0 0 48 48" version="1.1" xmlns="http://www.w3.org/2000/svg" xmlns:xlink="http://www.w3.org/1999/xlink">
    <title>Icon-Resource/Managment-Governance/Res_AWS-OpsWorks_Layers_48_Dark</title>
    <g id="Icon-Resource/Managment-Governance/Res_AWS-OpsWorks_Layers_48" stroke="none" stroke-width="1" fill="none" fill-rule="evenodd">
        <path transform="translate(12.000000, 8.000000), scale(.65)" d="M4,43.92 L43.92,43.92 L43.92,30.199 L4,30.199 L4,43.92 Z M44.92,28.199 L3,28.199 C2.448,28.199 2,28.647 2,29.199 L2,44.92 C2,45.473 2.448,45.92 3,45.92 L44.92,45.92 C45.473,45.92 45.92,45.473 45.92,44.92 L45.92,29.199 C45.92,28.647 45.473,28.199 44.92,28.199 L44.92,28.199 Z M4,17.72 L43.92,17.72 L43.92,4 L4,4 L4,17.72 Z M44.92,2 L3,2 C2.448,2 2,2.447 2,3 L2,18.72 C2,19.273 2.448,19.72 3,19.72 L44.92,19.72 C45.473,19.72 45.92,19.273 45.92,18.72 L45.92,3 C45.92,2.447 45.473,2 44.92,2 L44.92,2 Z" id="AWS-OpsWorks-layers_Resource-Icon_light-bg" fill="#000000"></path>
    </g><g transform="translate(25, 83)" id="svgGroup" stroke-linecap="round" fill-rule="evenodd" font-size="9pt" stroke="#000" stroke-width="0.25mm" fill="#000" style="stroke:#000;stroke-width:0.25mm;fill:#000"><path d="M 23.12 0.088 L 24.13 4.469 L 24.253 5.313 L 24.434 4.553 L 25.699 0.088 L 26.411 0.088 L 27.646 4.553 L 27.822 5.326 L 27.958 4.465 L 28.951 0.088 L 29.799 0.088 L 28.248 6.486 L 27.479 6.486 L 26.161 1.824 L 26.06 1.336 L 25.958 1.824 L 24.592 6.486 L 23.823 6.486 L 22.276 0.088 L 23.12 0.088 Z M 34.98 1.938 L 34.132 1.938 A 1.466 1.466 0 0 0 34.083 1.546 A 1.066 1.066 0 0 0 33.763 1.026 A 1.211 1.211 0 0 0 33.294 0.77 Q 33.042 0.694 32.722 0.694 A 2.286 2.286 0 0 0 32.342 0.724 Q 32.14 0.758 31.977 0.831 A 1.101 1.101 0 0 0 31.748 0.969 A 0.892 0.892 0 0 0 31.403 1.624 A 1.267 1.267 0 0 0 31.399 1.732 A 0.806 0.806 0 0 0 31.667 2.337 A 1.134 1.134 0 0 0 31.731 2.393 A 1.562 1.562 0 0 0 31.969 2.549 Q 32.299 2.73 32.86 2.887 A 8.228 8.228 0 0 1 33.325 3.032 Q 33.56 3.113 33.754 3.2 A 3.297 3.297 0 0 1 34.108 3.382 A 2.342 2.342 0 0 1 34.447 3.626 Q 34.637 3.792 34.759 3.985 A 1.45 1.45 0 0 1 34.776 4.012 A 1.498 1.498 0 0 1 34.972 4.568 A 1.948 1.948 0 0 1 34.994 4.86 A 1.606 1.606 0 0 1 34.871 5.497 Q 34.726 5.838 34.408 6.09 A 1.886 1.886 0 0 1 34.387 6.106 Q 33.781 6.574 32.766 6.574 A 3.023 3.023 0 0 1 31.625 6.36 A 2.917 2.917 0 0 1 31.535 6.322 A 2.383 2.383 0 0 1 31.057 6.044 A 1.874 1.874 0 0 1 30.654 5.629 A 1.689 1.689 0 0 1 30.344 4.632 L 31.192 4.632 A 1.261 1.261 0 0 0 31.262 5.059 A 1.074 1.074 0 0 0 31.621 5.548 Q 32.005 5.85 32.622 5.881 A 2.87 2.87 0 0 0 32.766 5.884 A 2.628 2.628 0 0 0 33.153 5.858 Q 33.349 5.828 33.508 5.767 A 1.129 1.129 0 0 0 33.79 5.612 Q 34.146 5.339 34.146 4.869 A 1.074 1.074 0 0 0 34.103 4.559 A 0.816 0.816 0 0 0 33.816 4.142 Q 33.486 3.885 32.621 3.634 Q 31.535 3.322 31.041 2.868 Q 30.546 2.413 30.546 1.745 Q 30.546 0.989 31.151 0.494 A 2.121 2.121 0 0 1 32.041 0.071 A 3.087 3.087 0 0 1 32.722 0 A 2.913 2.913 0 0 1 33.382 0.072 A 2.372 2.372 0 0 1 33.897 0.255 A 2.051 2.051 0 0 1 34.428 0.626 A 1.834 1.834 0 0 1 34.697 0.958 A 1.798 1.798 0 0 1 34.98 1.938 Z M 3.74 6.486 L 2.351 3.898 L 0.848 3.898 L 0.848 6.486 L 0 6.486 L 0 0.088 L 2.118 0.088 A 3.809 3.809 0 0 1 2.76 0.138 Q 3.102 0.197 3.376 0.324 A 1.789 1.789 0 0 1 3.781 0.58 A 1.588 1.588 0 0 1 4.307 1.469 A 2.453 2.453 0 0 1 4.364 2.013 A 1.864 1.864 0 0 1 4.273 2.604 A 1.64 1.64 0 0 1 4.041 3.054 A 1.849 1.849 0 0 1 3.382 3.611 A 2.342 2.342 0 0 1 3.142 3.718 L 4.645 6.434 L 4.645 6.486 L 3.74 6.486 Z M 13.724 3.129 L 12.907 3.129 Q 12.907 2.795 12.623 2.553 Q 12.34 2.312 11.909 2.312 Q 11.465 2.312 11.215 2.505 A 0.653 0.653 0 0 0 11.04 2.704 Q 10.967 2.835 10.964 3 A 0.771 0.771 0 0 0 10.964 3.01 A 0.588 0.588 0 0 0 10.994 3.203 A 0.48 0.48 0 0 0 11.197 3.454 A 1.093 1.093 0 0 0 11.348 3.533 Q 11.512 3.605 11.767 3.673 A 6.581 6.581 0 0 0 12.039 3.74 A 6.318 6.318 0 0 1 12.446 3.845 Q 12.783 3.944 13.025 4.065 A 1.901 1.901 0 0 1 13.281 4.218 Q 13.418 4.315 13.516 4.429 A 1.06 1.06 0 0 1 13.586 4.52 A 1.024 1.024 0 0 1 13.748 4.927 A 1.388 1.388 0 0 1 13.768 5.168 Q 13.768 5.805 13.258 6.19 Q 12.776 6.554 12.022 6.573 A 3.337 3.337 0 0 1 11.936 6.574 A 2.746 2.746 0 0 1 11.401 6.525 A 2.124 2.124 0 0 1 10.925 6.372 A 1.771 1.771 0 0 1 10.491 6.094 A 1.54 1.54 0 0 1 10.237 5.807 Q 9.989 5.445 9.989 5.023 L 10.802 5.023 A 0.932 0.932 0 0 0 10.875 5.348 A 0.827 0.827 0 0 0 11.129 5.671 A 1.072 1.072 0 0 0 11.531 5.864 Q 11.686 5.903 11.867 5.91 A 2.013 2.013 0 0 0 11.936 5.911 A 1.863 1.863 0 0 0 12.231 5.889 Q 12.393 5.863 12.524 5.806 A 0.941 0.941 0 0 0 12.676 5.724 A 0.689 0.689 0 0 0 12.841 5.574 A 0.554 0.554 0 0 0 12.955 5.225 A 0.698 0.698 0 0 0 12.919 4.994 A 0.581 0.581 0 0 0 12.707 4.713 A 1.05 1.05 0 0 0 12.538 4.615 Q 12.349 4.524 12.054 4.449 A 5.392 5.392 0 0 0 11.841 4.399 A 6.342 6.342 0 0 1 11.48 4.311 Q 11.11 4.209 10.861 4.083 Q 10.562 3.93 10.392 3.731 A 1.017 1.017 0 0 1 10.325 3.643 Q 10.151 3.388 10.151 3.037 A 1.206 1.206 0 0 1 10.55 2.132 A 1.694 1.694 0 0 1 10.646 2.048 A 1.752 1.752 0 0 1 11.429 1.688 A 2.471 2.471 0 0 1 11.909 1.644 A 2.559 2.559 0 0 1 12.473 1.702 A 1.757 1.757 0 0 1 13.221 2.061 Q 13.724 2.479 13.724 3.129 Z M 21.327 6.486 L 20.716 4.816 L 18.035 4.816 L 17.433 6.486 L 16.563 6.486 L 19.006 0.088 L 19.745 0.088 L 22.192 6.486 L 21.327 6.486 Z M 5.212 4.241 L 5.212 4.091 A 3.17 3.17 0 0 1 5.288 3.382 A 2.581 2.581 0 0 1 5.482 2.828 A 2.191 2.191 0 0 1 5.93 2.202 A 2.033 2.033 0 0 1 6.238 1.958 Q 6.724 1.644 7.291 1.644 A 2.254 2.254 0 0 1 7.904 1.723 A 1.639 1.639 0 0 1 8.732 2.254 Q 9.246 2.865 9.246 4.003 L 9.246 4.342 L 6.025 4.342 A 2.111 2.111 0 0 0 6.096 4.85 A 1.516 1.516 0 0 0 6.436 5.478 A 1.282 1.282 0 0 0 7.37 5.909 A 1.652 1.652 0 0 0 7.436 5.911 A 1.763 1.763 0 0 0 7.764 5.882 Q 7.988 5.839 8.165 5.735 A 1.827 1.827 0 0 0 8.674 5.287 A 2.068 2.068 0 0 0 8.688 5.269 L 9.185 5.656 A 1.926 1.926 0 0 1 7.785 6.547 A 2.749 2.749 0 0 1 7.392 6.574 A 2.394 2.394 0 0 1 6.64 6.461 A 1.974 1.974 0 0 1 5.818 5.939 Q 5.212 5.304 5.212 4.241 Z M 0.848 0.782 L 0.848 3.208 L 2.145 3.208 Q 2.685 3.208 3.035 2.968 A 1.174 1.174 0 0 0 3.144 2.883 A 1.069 1.069 0 0 0 3.51 2.146 A 1.486 1.486 0 0 0 3.516 2.013 Q 3.516 1.47 3.22 1.159 A 1 1 0 0 0 3.162 1.103 Q 2.808 0.787 2.14 0.782 L 0.848 0.782 Z M 19.375 1.129 L 18.29 4.122 L 20.465 4.122 L 19.375 1.129 Z M 6.051 3.674 L 8.433 3.674 L 8.433 3.612 Q 8.407 3.153 8.236 2.848 A 1.13 1.13 0 0 0 8.099 2.652 A 0.983 0.983 0 0 0 7.445 2.32 A 1.39 1.39 0 0 0 7.291 2.312 A 1.106 1.106 0 0 0 6.768 2.435 A 1.14 1.14 0 0 0 6.464 2.67 A 1.417 1.417 0 0 0 6.188 3.116 Q 6.114 3.3 6.074 3.522 A 2.741 2.741 0 0 0 6.051 3.674 Z" vector-effect="non-scaling-stroke"/></g><g transform="translate(25, 93)" id="svgGroup" stroke-linecap="round" fill-rule="evenodd" font-size="9pt" stroke="#000" stroke-width="0.25mm" fill="#000" style="stroke:#000;stroke-width:0.25mm;fill:#000"><path d="M 16.471 0.352 L 17.481 4.733 L 17.605 5.577 L 17.785 4.816 L 19.05 0.352 L 19.762 0.352 L 20.997 4.816 L 21.173 5.59 L 21.309 4.729 L 22.302 0.352 L 23.15 0.352 L 21.599 6.75 L 20.83 6.75 L 19.512 2.087 L 19.411 1.6 L 19.31 2.087 L 17.943 6.75 L 17.174 6.75 L 15.627 0.352 L 16.471 0.352 Z M 34.985 6.75 L 33.328 4.548 L 32.818 5.08 L 32.818 6.75 L 32.005 6.75 L 32.005 0 L 32.818 0 L 32.818 4.083 L 33.253 3.56 L 34.734 1.995 L 35.723 1.995 L 33.873 3.981 L 35.939 6.75 L 34.985 6.75 Z M 101.149 6.75 L 99.492 4.548 L 98.982 5.08 L 98.982 6.75 L 98.169 6.75 L 98.169 0 L 98.982 0 L 98.982 4.083 L 99.418 3.56 L 100.898 1.995 L 101.887 1.995 L 100.037 3.981 L 102.103 6.75 L 101.149 6.75 Z M 14.871 3.393 L 14.054 3.393 Q 14.054 3.059 13.77 2.817 Q 13.487 2.575 13.056 2.575 Q 12.612 2.575 12.362 2.769 A 0.653 0.653 0 0 0 12.187 2.967 Q 12.114 3.098 12.111 3.263 A 0.771 0.771 0 0 0 12.111 3.274 A 0.588 0.588 0 0 0 12.141 3.467 A 0.48 0.48 0 0 0 12.344 3.718 A 1.093 1.093 0 0 0 12.495 3.796 Q 12.659 3.868 12.914 3.937 A 6.581 6.581 0 0 0 13.186 4.003 A 6.318 6.318 0 0 1 13.594 4.108 Q 13.93 4.208 14.172 4.329 A 1.901 1.901 0 0 1 14.428 4.481 Q 14.565 4.579 14.663 4.692 A 1.06 1.06 0 0 1 14.733 4.783 A 1.024 1.024 0 0 1 14.895 5.191 A 1.388 1.388 0 0 1 14.915 5.432 Q 14.915 6.069 14.405 6.453 Q 13.923 6.817 13.169 6.837 A 3.337 3.337 0 0 1 13.083 6.838 A 2.746 2.746 0 0 1 12.548 6.788 A 2.124 2.124 0 0 1 12.072 6.636 A 1.771 1.771 0 0 1 11.638 6.358 A 1.54 1.54 0 0 1 11.384 6.071 Q 11.136 5.708 11.136 5.287 L 11.949 5.287 A 0.932 0.932 0 0 0 12.022 5.612 A 0.827 0.827 0 0 0 12.276 5.935 A 1.072 1.072 0 0 0 12.678 6.128 Q 12.833 6.167 13.014 6.173 A 2.013 2.013 0 0 0 13.083 6.174 A 1.863 1.863 0 0 0 13.378 6.152 Q 13.54 6.126 13.671 6.07 A 0.941 0.941 0 0 0 13.823 5.988 A 0.689 0.689 0 0 0 13.988 5.837 A 0.554 0.554 0 0 0 14.102 5.489 A 0.698 0.698 0 0 0 14.066 5.258 A 0.581 0.581 0 0 0 13.854 4.977 A 1.05 1.05 0 0 0 13.685 4.878 Q 13.496 4.788 13.201 4.712 A 5.392 5.392 0 0 0 12.988 4.663 A 6.342 6.342 0 0 1 12.627 4.575 Q 12.257 4.473 12.008 4.346 Q 11.709 4.194 11.539 3.994 A 1.017 1.017 0 0 1 11.472 3.907 Q 11.298 3.652 11.298 3.3 A 1.206 1.206 0 0 1 11.697 2.396 A 1.694 1.694 0 0 1 11.793 2.312 A 1.752 1.752 0 0 1 12.576 1.952 A 2.471 2.471 0 0 1 13.056 1.907 A 2.559 2.559 0 0 1 13.62 1.966 A 1.757 1.757 0 0 1 14.368 2.325 Q 14.871 2.742 14.871 3.393 Z M 40.1 3.393 L 39.283 3.393 Q 39.283 3.059 38.999 2.817 Q 38.716 2.575 38.285 2.575 Q 37.841 2.575 37.591 2.769 A 0.653 0.653 0 0 0 37.416 2.967 Q 37.343 3.098 37.34 3.263 A 0.771 0.771 0 0 0 37.34 3.274 A 0.588 0.588 0 0 0 37.37 3.467 A 0.48 0.48 0 0 0 37.573 3.718 A 1.093 1.093 0 0 0 37.724 3.796 Q 37.888 3.868 38.143 3.937 A 6.581 6.581 0 0 0 38.415 4.003 A 6.318 6.318 0 0 1 38.823 4.108 Q 39.159 4.208 39.401 4.329 A 1.901 1.901 0 0 1 39.657 4.481 Q 39.794 4.579 39.892 4.692 A 1.06 1.06 0 0 1 39.962 4.783 A 1.024 1.024 0 0 1 40.124 5.191 A 1.388 1.388 0 0 1 40.144 5.432 Q 40.144 6.069 39.634 6.453 Q 39.152 6.817 38.398 6.837 A 3.337 3.337 0 0 1 38.312 6.838 A 2.746 2.746 0 0 1 37.777 6.788 A 2.124 2.124 0 0 1 37.301 6.636 A 1.771 1.771 0 0 1 36.867 6.358 A 1.54 1.54 0 0 1 36.613 6.071 Q 36.365 5.708 36.365 5.287 L 37.178 5.287 A 0.932 0.932 0 0 0 37.251 5.612 A 0.827 0.827 0 0 0 37.505 5.935 A 1.072 1.072 0 0 0 37.907 6.128 Q 38.062 6.167 38.243 6.173 A 2.013 2.013 0 0 0 38.312 6.174 A 1.863 1.863 0 0 0 38.607 6.152 Q 38.769 6.126 38.9 6.07 A 0.941 0.941 0 0 0 39.052 5.988 A 0.689 0.689 0 0 0 39.217 5.837 A 0.554 0.554 0 0 0 39.331 5.489 A 0.698 0.698 0 0 0 39.295 5.258 A 0.581 0.581 0 0 0 39.083 4.977 A 1.05 1.05 0 0 0 38.914 4.878 Q 38.725 4.788 38.43 4.712 A 5.392 5.392 0 0 0 38.217 4.663 A 6.342 6.342 0 0 1 37.856 4.575 Q 37.486 4.473 37.237 4.346 Q 36.938 4.194 36.768 3.994 A 1.017 1.017 0 0 1 36.701 3.907 Q 36.527 3.652 36.527 3.3 A 1.206 1.206 0 0 1 36.926 2.396 A 1.694 1.694 0 0 1 37.022 2.312 A 1.752 1.752 0 0 1 37.805 1.952 A 2.471 2.471 0 0 1 38.285 1.907 A 2.559 2.559 0 0 1 38.849 1.966 A 1.757 1.757 0 0 1 39.597 2.325 Q 40.1 2.742 40.1 3.393 Z M 68.656 3.393 L 67.838 3.393 Q 67.838 3.059 67.555 2.817 Q 67.272 2.575 66.841 2.575 Q 66.397 2.575 66.147 2.769 A 0.653 0.653 0 0 0 65.971 2.967 Q 65.898 3.098 65.896 3.263 A 0.771 0.771 0 0 0 65.896 3.274 A 0.588 0.588 0 0 0 65.926 3.467 A 0.48 0.48 0 0 0 66.129 3.718 A 1.093 1.093 0 0 0 66.279 3.796 Q 66.443 3.868 66.699 3.937 A 6.581 6.581 0 0 0 66.971 4.003 A 6.318 6.318 0 0 1 67.378 4.108 Q 67.715 4.208 67.957 4.329 A 1.901 1.901 0 0 1 68.213 4.481 Q 68.35 4.579 68.447 4.692 A 1.06 1.06 0 0 1 68.517 4.783 A 1.024 1.024 0 0 1 68.68 5.191 A 1.388 1.388 0 0 1 68.7 5.432 Q 68.7 6.069 68.19 6.453 Q 67.708 6.817 66.954 6.837 A 3.337 3.337 0 0 1 66.867 6.838 A 2.746 2.746 0 0 1 66.333 6.788 A 2.124 2.124 0 0 1 65.856 6.636 A 1.771 1.771 0 0 1 65.423 6.358 A 1.54 1.54 0 0 1 65.169 6.071 Q 64.92 5.708 64.92 5.287 L 65.733 5.287 A 0.932 0.932 0 0 0 65.807 5.612 A 0.827 0.827 0 0 0 66.061 5.935 A 1.072 1.072 0 0 0 66.463 6.128 Q 66.618 6.167 66.799 6.173 A 2.013 2.013 0 0 0 66.867 6.174 A 1.863 1.863 0 0 0 67.163 6.152 Q 67.324 6.126 67.456 6.07 A 0.941 0.941 0 0 0 67.608 5.988 A 0.689 0.689 0 0 0 67.772 5.837 A 0.554 0.554 0 0 0 67.887 5.489 A 0.698 0.698 0 0 0 67.85 5.258 A 0.581 0.581 0 0 0 67.638 4.977 A 1.05 1.05 0 0 0 67.47 4.878 Q 67.281 4.788 66.986 4.712 A 5.392 5.392 0 0 0 66.773 4.663 A 6.342 6.342 0 0 1 66.412 4.575 Q 66.042 4.473 65.793 4.346 Q 65.494 4.194 65.324 3.994 A 1.017 1.017 0 0 1 65.257 3.907 Q 65.083 3.652 65.083 3.3 A 1.206 1.206 0 0 1 65.482 2.396 A 1.694 1.694 0 0 1 65.577 2.312 A 1.752 1.752 0 0 1 66.36 1.952 A 2.471 2.471 0 0 1 66.841 1.907 A 2.559 2.559 0 0 1 67.404 1.966 A 1.757 1.757 0 0 1 68.153 2.325 Q 68.656 2.742 68.656 3.393 Z M 53.473 1.995 L 54.659 5.559 L 55.767 1.995 L 56.637 1.995 L 54.725 7.484 Q 54.281 8.67 53.315 8.67 L 53.161 8.657 L 52.857 8.6 L 52.857 7.941 L 53.077 7.958 Q 53.357 7.958 53.553 7.882 A 0.75 0.75 0 0 0 53.721 7.792 A 0.749 0.749 0 0 0 53.881 7.629 Q 53.999 7.47 54.089 7.215 A 2.575 2.575 0 0 0 54.101 7.181 L 54.281 6.697 L 52.585 1.995 L 53.473 1.995 Z M 52.062 6.75 L 51.21 6.75 A 0.632 0.632 0 0 1 51.174 6.66 Q 51.143 6.562 51.118 6.41 A 3.997 3.997 0 0 1 51.095 6.249 Q 50.528 6.838 49.742 6.838 A 2.033 2.033 0 0 1 49.212 6.772 A 1.529 1.529 0 0 1 48.588 6.44 Q 48.138 6.042 48.138 5.432 Q 48.138 4.689 48.702 4.278 Q 49.267 3.867 50.291 3.867 L 51.082 3.867 L 51.082 3.494 A 1.152 1.152 0 0 0 51.046 3.199 A 0.828 0.828 0 0 0 50.827 2.815 Q 50.611 2.6 50.221 2.568 A 1.748 1.748 0 0 0 50.076 2.562 Q 49.641 2.562 49.346 2.782 Q 49.052 3.001 49.052 3.313 L 48.234 3.313 A 1.041 1.041 0 0 1 48.359 2.825 A 1.409 1.409 0 0 1 48.487 2.626 Q 48.74 2.294 49.173 2.101 A 2.249 2.249 0 0 1 49.948 1.913 A 2.669 2.669 0 0 1 50.124 1.907 A 2.65 2.65 0 0 1 50.642 1.955 Q 50.949 2.016 51.188 2.156 A 1.439 1.439 0 0 1 51.412 2.318 A 1.396 1.396 0 0 1 51.865 3.144 A 1.998 1.998 0 0 1 51.895 3.45 L 51.895 5.638 Q 51.895 6.073 51.969 6.39 A 1.707 1.707 0 0 0 52.062 6.68 L 52.062 6.75 Z M 94.012 6.75 L 93.16 6.75 A 0.632 0.632 0 0 1 93.124 6.66 Q 93.093 6.562 93.068 6.41 A 3.997 3.997 0 0 1 93.045 6.249 Q 92.479 6.838 91.692 6.838 A 2.033 2.033 0 0 1 91.163 6.772 A 1.529 1.529 0 0 1 90.538 6.44 Q 90.088 6.042 90.088 5.432 Q 90.088 4.689 90.653 4.278 Q 91.217 3.867 92.241 3.867 L 93.032 3.867 L 93.032 3.494 A 1.152 1.152 0 0 0 92.997 3.199 A 0.828 0.828 0 0 0 92.777 2.815 Q 92.561 2.6 92.171 2.568 A 1.748 1.748 0 0 0 92.026 2.562 Q 91.591 2.562 91.296 2.782 Q 91.002 3.001 91.002 3.313 L 90.185 3.313 A 1.041 1.041 0 0 1 90.31 2.825 A 1.409 1.409 0 0 1 90.437 2.626 Q 90.69 2.294 91.123 2.101 A 2.249 2.249 0 0 1 91.899 1.913 A 2.669 2.669 0 0 1 92.074 1.907 A 2.65 2.65 0 0 1 92.592 1.955 Q 92.899 2.016 93.138 2.156 A 1.439 1.439 0 0 1 93.362 2.318 A 1.396 1.396 0 0 1 93.815 3.144 A 1.998 1.998 0 0 1 93.845 3.45 L 93.845 5.638 Q 93.845 6.073 93.919 6.39 A 1.707 1.707 0 0 0 94.012 6.68 L 94.012 6.75 Z M 10.301 4.351 L 10.301 4.425 Q 10.301 5.511 9.804 6.174 A 1.57 1.57 0 0 1 8.666 6.828 A 2.013 2.013 0 0 1 8.46 6.838 A 2.196 2.196 0 0 1 7.874 6.764 A 1.598 1.598 0 0 1 7.097 6.289 L 7.097 8.578 L 6.284 8.578 L 6.284 1.995 L 7.027 1.995 L 7.066 2.522 A 1.619 1.619 0 0 1 8.206 1.919 A 2.319 2.319 0 0 1 8.446 1.907 A 1.829 1.829 0 0 1 9.083 2.014 A 1.597 1.597 0 0 1 9.802 2.553 Q 10.301 3.199 10.301 4.351 Z M 57.098 4.504 L 57.098 4.355 A 3.17 3.17 0 0 1 57.174 3.646 A 2.581 2.581 0 0 1 57.368 3.092 A 2.191 2.191 0 0 1 57.816 2.466 A 2.033 2.033 0 0 1 58.124 2.221 Q 58.61 1.907 59.177 1.907 A 2.254 2.254 0 0 1 59.79 1.986 A 1.639 1.639 0 0 1 60.618 2.518 Q 61.132 3.129 61.132 4.267 L 61.132 4.605 L 57.911 4.605 A 2.111 2.111 0 0 0 57.982 5.114 A 1.516 1.516 0 0 0 58.322 5.741 A 1.282 1.282 0 0 0 59.256 6.173 A 1.652 1.652 0 0 0 59.322 6.174 A 1.763 1.763 0 0 0 59.65 6.145 Q 59.874 6.103 60.051 5.999 A 1.827 1.827 0 0 0 60.56 5.551 A 2.068 2.068 0 0 0 60.574 5.533 L 61.071 5.919 A 1.926 1.926 0 0 1 59.671 6.811 A 2.749 2.749 0 0 1 59.278 6.838 A 2.394 2.394 0 0 1 58.527 6.725 A 1.974 1.974 0 0 1 57.705 6.203 Q 57.098 5.568 57.098 4.504 Z M 44.407 0.352 L 44.407 6.06 L 47.439 6.06 L 47.439 6.75 L 43.559 6.75 L 43.559 0.352 L 44.407 0.352 Z M 75.336 0.352 L 75.336 4.601 L 76.223 4.601 L 76.223 5.265 L 75.336 5.265 L 75.336 6.75 L 74.518 6.75 L 74.518 5.265 L 71.605 5.265 L 71.605 4.786 L 74.47 0.352 L 75.336 0.352 Z M 86.221 6.75 L 84.45 6.75 L 84.45 0.352 L 86.256 0.352 Q 87.091 0.352 87.732 0.721 Q 88.374 1.09 88.723 1.771 A 3.19 3.19 0 0 1 89.04 2.8 A 4.073 4.073 0 0 1 89.077 3.335 L 89.077 3.744 Q 89.077 4.649 88.728 5.331 A 2.457 2.457 0 0 1 87.73 6.376 Q 87.082 6.741 86.221 6.75 Z M 80.734 2.592 A 1.544 1.544 0 0 0 80.837 2.021 A 2.226 2.226 0 0 0 80.816 1.707 A 1.566 1.566 0 0 0 80.317 0.738 A 1.754 1.754 0 0 0 79.551 0.333 A 2.443 2.443 0 0 0 78.952 0.264 A 2.539 2.539 0 0 0 78.443 0.312 A 1.767 1.767 0 0 0 77.586 0.738 Q 77.067 1.213 77.067 2.021 A 1.808 1.808 0 0 0 77.067 2.058 A 1.499 1.499 0 0 0 77.313 2.87 A 1.626 1.626 0 0 0 77.475 3.077 A 1.726 1.726 0 0 0 77.985 3.454 A 2.119 2.119 0 0 0 77.886 3.5 A 1.738 1.738 0 0 0 77.201 4.087 A 1.629 1.629 0 0 0 76.918 5.023 A 2.272 2.272 0 0 0 76.927 5.237 A 1.63 1.63 0 0 0 77.473 6.344 A 1.895 1.895 0 0 0 78.324 6.771 A 2.797 2.797 0 0 0 78.952 6.838 A 2.796 2.796 0 0 0 79.551 6.777 A 1.925 1.925 0 0 0 80.427 6.346 A 1.578 1.578 0 0 0 80.901 5.62 A 1.989 1.989 0 0 0 80.987 5.023 A 1.581 1.581 0 0 0 80.695 4.087 Q 80.402 3.674 79.901 3.458 Q 80.332 3.248 80.585 2.874 A 1.449 1.449 0 0 0 80.734 2.592 Z M 5.146 3.353 L 5.146 3.757 A 4.729 4.729 0 0 1 5.081 4.56 A 3.455 3.455 0 0 1 4.83 5.399 A 2.648 2.648 0 0 1 4.433 6.033 A 2.226 2.226 0 0 1 3.933 6.469 A 2.362 2.362 0 0 1 2.914 6.82 A 2.993 2.993 0 0 1 2.58 6.838 A 2.618 2.618 0 0 1 1.773 6.717 A 2.313 2.313 0 0 1 1.239 6.467 A 2.392 2.392 0 0 1 0.439 5.615 A 2.953 2.953 0 0 1 0.332 5.407 A 3.426 3.426 0 0 1 0.055 4.489 A 4.535 4.535 0 0 1 0 3.814 L 0 3.353 A 4.52 4.52 0 0 1 0.075 2.51 A 3.461 3.461 0 0 1 0.321 1.723 Q 0.642 1.015 1.228 0.639 A 2.389 2.389 0 0 1 2.385 0.27 A 2.92 2.92 0 0 1 2.571 0.264 A 2.702 2.702 0 0 1 3.347 0.372 A 2.318 2.318 0 0 1 3.927 0.635 A 2.31 2.31 0 0 1 4.7 1.456 A 2.912 2.912 0 0 1 4.83 1.712 A 3.525 3.525 0 0 1 5.09 2.604 A 4.763 4.763 0 0 1 5.146 3.353 Z M 23.607 4.386 L 23.607 4.329 A 3.057 3.057 0 0 1 23.694 3.587 A 2.573 2.573 0 0 1 23.882 3.072 A 2.16 2.16 0 0 1 24.297 2.486 A 1.957 1.957 0 0 1 24.647 2.21 A 2.036 2.036 0 0 1 25.591 1.913 A 2.491 2.491 0 0 1 25.765 1.907 A 2.277 2.277 0 0 1 26.519 2.027 A 1.937 1.937 0 0 1 27.336 2.58 A 2.29 2.29 0 0 1 27.855 3.608 A 3.373 3.373 0 0 1 27.936 4.368 L 27.936 4.425 A 3.114 3.114 0 0 1 27.857 5.142 A 2.577 2.577 0 0 1 27.67 5.671 A 2.056 2.056 0 0 1 27.143 6.361 A 2.001 2.001 0 0 1 26.91 6.53 A 2.045 2.045 0 0 1 25.99 6.829 A 2.529 2.529 0 0 1 25.774 6.838 A 2.262 2.262 0 0 1 25.024 6.718 A 1.938 1.938 0 0 1 24.207 6.166 A 2.297 2.297 0 0 1 23.682 5.111 A 3.357 3.357 0 0 1 23.607 4.386 Z M 31.254 1.969 L 31.254 2.725 A 2.251 2.251 0 0 0 31.011 2.698 A 2.782 2.782 0 0 0 30.854 2.694 Q 30.076 2.694 29.785 3.338 A 1.445 1.445 0 0 0 29.769 3.375 L 29.769 6.75 L 28.956 6.75 L 28.956 1.995 L 29.747 1.995 L 29.76 2.544 Q 30.14 1.938 30.823 1.909 A 1.636 1.636 0 0 1 30.894 1.907 Q 31.131 1.907 31.254 1.969 Z M 64.371 1.969 L 64.371 2.725 A 2.251 2.251 0 0 0 64.128 2.698 A 2.782 2.782 0 0 0 63.971 2.694 Q 63.193 2.694 62.902 3.338 A 1.445 1.445 0 0 0 62.886 3.375 L 62.886 6.75 L 62.073 6.75 L 62.073 1.995 L 62.864 1.995 L 62.877 2.544 Q 63.257 1.938 63.94 1.909 A 1.636 1.636 0 0 1 64.011 1.907 Q 64.248 1.907 64.371 1.969 Z M 97.418 1.969 L 97.418 2.725 A 2.251 2.251 0 0 0 97.175 2.698 A 2.782 2.782 0 0 0 97.018 2.694 Q 96.24 2.694 95.949 3.338 A 1.445 1.445 0 0 0 95.933 3.375 L 95.933 6.75 L 95.12 6.75 L 95.12 1.995 L 95.911 1.995 L 95.924 2.544 Q 96.304 1.938 96.987 1.909 A 1.636 1.636 0 0 1 97.058 1.907 Q 97.295 1.907 97.418 1.969 Z M 86.278 1.046 L 85.294 1.046 L 85.294 6.06 L 86.181 6.06 A 2.519 2.519 0 0 0 86.814 5.985 A 1.747 1.747 0 0 0 87.7 5.454 Q 88.159 4.94 88.229 4.059 A 4.165 4.165 0 0 0 88.242 3.727 L 88.242 3.353 Q 88.242 2.562 87.973 2.027 A 1.864 1.864 0 0 0 87.73 1.659 A 1.687 1.687 0 0 0 86.734 1.09 A 2.499 2.499 0 0 0 86.278 1.046 Z M 4.307 3.819 L 4.307 3.344 A 4.551 4.551 0 0 0 4.262 2.685 Q 4.213 2.35 4.11 2.078 A 1.944 1.944 0 0 0 3.85 1.597 Q 3.393 0.989 2.571 0.989 Q 1.771 0.989 1.312 1.597 A 2.112 2.112 0 0 0 0.987 2.246 Q 0.899 2.527 0.864 2.864 A 4.531 4.531 0 0 0 0.839 3.287 L 0.839 3.757 A 4.254 4.254 0 0 0 0.889 4.43 Q 0.947 4.789 1.071 5.079 A 2.039 2.039 0 0 0 1.303 5.491 A 1.472 1.472 0 0 0 2.37 6.11 A 1.931 1.931 0 0 0 2.58 6.122 A 1.79 1.79 0 0 0 3.138 6.039 A 1.423 1.423 0 0 0 3.845 5.526 A 2.017 2.017 0 0 0 4.146 4.932 Q 4.299 4.462 4.307 3.819 Z M 24.425 4.425 A 2.772 2.772 0 0 0 24.472 4.954 Q 24.533 5.264 24.67 5.51 A 1.545 1.545 0 0 0 24.792 5.695 Q 25.159 6.174 25.774 6.174 A 1.269 1.269 0 0 0 26.263 6.083 Q 26.543 5.967 26.745 5.706 A 1.471 1.471 0 0 0 26.758 5.689 A 1.648 1.648 0 0 0 27.013 5.171 Q 27.082 4.945 27.108 4.672 A 3.655 3.655 0 0 0 27.123 4.329 A 2.687 2.687 0 0 0 27.072 3.789 Q 27.004 3.459 26.847 3.2 A 1.586 1.586 0 0 0 26.752 3.061 A 1.231 1.231 0 0 0 26.337 2.705 Q 26.084 2.575 25.765 2.575 Q 25.175 2.575 24.809 3.035 A 1.515 1.515 0 0 0 24.794 3.054 A 1.589 1.589 0 0 0 24.542 3.552 Q 24.472 3.772 24.444 4.039 A 3.676 3.676 0 0 0 24.425 4.425 Z M 7.097 3.252 L 7.097 5.524 Q 7.462 6.174 8.213 6.174 A 1.184 1.184 0 0 0 8.679 6.086 Q 8.936 5.977 9.125 5.735 A 1.403 1.403 0 0 0 9.143 5.711 A 1.501 1.501 0 0 0 9.36 5.28 Q 9.428 5.073 9.46 4.818 A 3.91 3.91 0 0 0 9.488 4.333 Q 9.488 3.746 9.305 3.339 A 1.503 1.503 0 0 0 9.145 3.063 A 1.086 1.086 0 0 0 8.359 2.605 A 1.414 1.414 0 0 0 8.205 2.597 Q 7.544 2.597 7.179 3.121 A 1.623 1.623 0 0 0 7.097 3.252 Z M 74.421 1.639 L 72.527 4.601 L 74.518 4.601 L 74.518 1.463 L 74.421 1.639 Z M 80.174 5.005 A 1.375 1.375 0 0 0 80.114 4.592 A 1.109 1.109 0 0 0 79.833 4.131 A 1.148 1.148 0 0 0 79.162 3.807 A 1.593 1.593 0 0 0 78.943 3.792 A 1.466 1.466 0 0 0 78.555 3.841 A 1.086 1.086 0 0 0 78.062 4.126 A 1.123 1.123 0 0 0 77.749 4.762 A 1.572 1.572 0 0 0 77.731 5.005 A 1.48 1.48 0 0 0 77.772 5.367 A 1.019 1.019 0 0 0 78.054 5.862 Q 78.36 6.158 78.893 6.173 A 2.053 2.053 0 0 0 78.952 6.174 Q 79.446 6.174 79.756 5.94 A 1.018 1.018 0 0 0 79.849 5.86 A 1.041 1.041 0 0 0 80.148 5.292 A 1.518 1.518 0 0 0 80.174 5.005 Z M 78.952 0.932 A 1.259 1.259 0 0 0 78.599 0.979 A 0.973 0.973 0 0 0 78.177 1.228 Q 77.88 1.525 77.88 2.035 A 1.325 1.325 0 0 0 77.925 2.387 A 0.994 0.994 0 0 0 78.172 2.823 A 0.974 0.974 0 0 0 78.734 3.108 A 1.382 1.382 0 0 0 78.952 3.125 A 1.279 1.279 0 0 0 79.297 3.08 A 0.952 0.952 0 0 0 79.732 2.823 A 1.018 1.018 0 0 0 80.007 2.26 A 1.426 1.426 0 0 0 80.024 2.035 A 1.282 1.282 0 0 0 79.974 1.668 A 1.013 1.013 0 0 0 79.721 1.239 Q 79.418 0.932 78.952 0.932 Z M 51.082 5.418 L 51.082 4.443 L 50.445 4.443 Q 48.951 4.443 48.951 5.317 Q 48.951 5.7 49.206 5.915 A 0.893 0.893 0 0 0 49.619 6.108 A 1.259 1.259 0 0 0 49.86 6.13 A 1.429 1.429 0 0 0 50.586 5.933 A 1.335 1.335 0 0 0 50.881 5.705 A 1.108 1.108 0 0 0 51.082 5.418 Z M 93.032 5.418 L 93.032 4.443 L 92.395 4.443 Q 90.901 4.443 90.901 5.317 Q 90.901 5.7 91.156 5.915 A 0.893 0.893 0 0 0 91.569 6.108 A 1.259 1.259 0 0 0 91.811 6.13 A 1.429 1.429 0 0 0 92.536 5.933 A 1.335 1.335 0 0 0 92.831 5.705 A 1.108 1.108 0 0 0 93.032 5.418 Z M 57.938 3.938 L 60.319 3.938 L 60.319 3.876 Q 60.293 3.417 60.123 3.111 A 1.13 1.13 0 0 0 59.985 2.916 A 0.983 0.983 0 0 0 59.331 2.584 A 1.39 1.39 0 0 0 59.177 2.575 A 1.106 1.106 0 0 0 58.654 2.698 A 1.14 1.14 0 0 0 58.351 2.933 A 1.417 1.417 0 0 0 58.074 3.379 Q 58 3.563 57.96 3.785 A 2.741 2.741 0 0 0 57.938 3.938 Z" vector-effect="non-scaling-stroke"/></g>
</svg>