<?xml version="1.0" encoding="UTF-8"?>
<svg width="48px" height="48px" viewBox="0 0 48 48" version="1.1" xmlns="http://www.w3.org/2000/svg" xmlns:xlink="http://www.w3.org/1999/xlink">
    <title>Icon-Resource/Managment-Governance/Res_AWS-System-Manager_Automation_48_Dark</title>
    <g id="Icon-Resource/Managment-Governance/Res_AWS-System-Manager_Automation_48" stroke="none" stroke-width="1" fill="none" fill-rule="evenodd">
        <path transform="translate(12.000000, 8.000000), scale(.65)" d="M36.1575,15.6748 L37.9405,16.5808 L34.9715,22.4158 C34.7965,22.7618 34.4455,22.9628 34.0795,22.9628 C33.9435,22.9628 33.8045,22.9348 33.6735,22.8758 L27.4805,20.1118 L28.2955,18.2848 L32.1665,20.0128 C30.6755,16.9678 27.5405,14.9228 24.0335,14.9228 C19.7535,14.9228 16.0235,17.9678 15.1655,22.1628 L13.2065,21.7628 C14.2545,16.6408 18.8075,12.9228 24.0335,12.9228 C28.4855,12.9228 32.4405,15.6248 34.1655,19.5908 L36.1575,15.6748 Z M32.9025,25.7818 L34.8615,26.1828 C33.8165,31.3038 29.2625,35.0218 24.0345,35.0218 C19.9175,35.0218 16.2675,32.7818 14.3675,29.3268 L13.6235,32.8868 L11.6665,32.4768 L13.0065,26.0688 C13.1155,25.5478 13.6265,25.2118 14.1385,25.2848 L20.8385,26.3338 L20.5295,28.3108 L15.7215,27.5578 C17.1235,30.8378 20.3525,33.0218 24.0345,33.0218 C28.3165,33.0218 32.0465,29.9768 32.9025,25.7818 L32.9025,25.7818 Z M43.9455,27.0818 L41.5225,26.9448 C41.0565,26.9208 40.5975,27.2438 40.4905,27.7228 C40.0675,29.5958 39.3325,31.3708 38.3035,33.0018 C38.0435,33.4148 38.1195,33.9558 38.4835,34.2808 L40.2945,35.8968 L35.8975,40.2938 L34.2875,38.4888 C33.9615,38.1238 33.4185,38.0498 33.0075,38.3098 C31.3805,39.3388 29.6015,40.0748 27.7215,40.4998 C27.2455,40.6088 26.9165,41.0448 26.9445,41.5318 L27.0825,43.9448 L20.8635,43.9448 L21.0015,41.5298 C21.0295,41.0428 20.7005,40.6068 20.2235,40.4978 C18.3505,40.0738 16.5735,39.3368 14.9405,38.3068 C14.5285,38.0468 13.9855,38.1218 13.6615,38.4868 L12.0495,40.2938 L7.6515,35.8968 L9.4585,34.2848 C9.8225,33.9598 9.8985,33.4188 9.6375,33.0058 C8.6115,31.3788 7.8765,29.6018 7.4525,27.7228 C7.3445,27.2438 6.8815,26.9208 6.4205,26.9448 L4.0005,27.0818 L4.0005,20.8628 L6.4275,21.0008 C6.9045,21.0238 7.3495,20.6998 7.4595,20.2248 C7.8835,18.3538 8.6205,16.5798 9.6485,14.9508 C9.9095,14.5378 9.8335,13.9958 9.4695,13.6708 L7.6505,12.0488 L12.0495,7.6508 L13.6705,9.4678 C13.9945,9.8318 14.5375,9.9058 14.9495,9.6478 C16.5755,8.6218 18.3495,7.8878 20.2225,7.4648 C20.7005,7.3578 21.0295,6.9208 21.0015,6.4328 L20.8635,3.9998 L27.0825,3.9998 L26.9445,6.4348 C26.9165,6.9228 27.2455,7.3588 27.7215,7.4668 C29.5925,7.8898 31.3655,8.6238 32.9935,9.6518 C33.4035,9.9098 33.9465,9.8348 34.2725,9.4718 L35.8965,7.6518 L40.2945,12.0478 L38.4795,13.6668 C38.1155,13.9918 38.0395,14.5338 38.3005,14.9468 C39.3285,16.5738 40.0645,18.3498 40.4885,20.2238 C40.5955,20.6998 41.0565,21.0238 41.5205,21.0008 L43.9455,20.8628 L43.9455,27.0818 Z M45.6325,19.0778 C45.4325,18.8898 45.1575,18.7888 44.8885,18.8068 L42.2335,18.9568 C41.8165,17.4368 41.2125,15.9798 40.4285,14.6088 L42.4165,12.8358 C42.6215,12.6538 42.7425,12.3938 42.7505,12.1178 C42.7585,11.8438 42.6515,11.5768 42.4575,11.3828 L36.5625,5.4878 C36.3685,5.2938 36.0905,5.2018 35.8275,5.1958 C35.5525,5.2028 35.2925,5.3238 35.1095,5.5288 L33.3315,7.5228 C31.9605,6.7408 30.5055,6.1378 28.9875,5.7218 L29.1385,3.0568 C29.1545,2.7818 29.0565,2.5128 28.8675,2.3138 C28.6785,2.1128 28.4165,1.9998 28.1405,1.9998 L19.8045,1.9998 C19.5295,1.9998 19.2665,2.1128 19.0785,2.3138 C18.8885,2.5128 18.7915,2.7818 18.8065,3.0568 L18.9585,5.7198 C17.4375,6.1348 15.9815,6.7378 14.6115,7.5188 L12.8365,5.5288 C12.6525,5.3238 12.3935,5.2028 12.1185,5.1958 C11.8355,5.2048 11.5775,5.2938 11.3835,5.4878 L5.4885,11.3828 C5.2945,11.5768 5.1875,11.8428 5.1955,12.1178 C5.2035,12.3938 5.3245,12.6528 5.5295,12.8358 L7.5195,14.6128 C6.7365,15.9838 6.1325,17.4398 5.7155,18.9578 L3.0565,18.8068 C2.7885,18.7878 2.5125,18.8898 2.3135,19.0778 C2.1135,19.2668 2.0005,19.5288 2.0005,19.8048 L2.0005,28.1408 C2.0005,28.4158 2.1135,28.6788 2.3135,28.8668 C2.5125,29.0558 2.7895,29.1518 3.0565,29.1388 L5.7075,28.9878 C6.1235,30.5128 6.7275,31.9718 7.5095,33.3438 L5.5295,35.1098 C5.3245,35.2918 5.2035,35.5518 5.1955,35.8268 C5.1875,36.1018 5.2945,36.3678 5.4885,36.5628 L11.3835,42.4568 C11.5775,42.6518 11.8325,42.7418 12.1185,42.7498 C12.3935,42.7418 12.6535,42.6208 12.8365,42.4158 L14.6025,40.4358 C15.9775,41.2198 17.4365,41.8248 18.9575,42.2418 L18.8065,44.8878 C18.7915,45.1618 18.8885,45.4308 19.0785,45.6308 C19.2665,45.8308 19.5295,45.9448 19.8045,45.9448 L28.1405,45.9448 C28.4165,45.9448 28.6785,45.8308 28.8675,45.6308 C29.0565,45.4308 29.1545,45.1618 29.1385,44.8878 L28.9885,42.2448 C30.5135,41.8268 31.9735,41.2228 33.3455,40.4388 L35.1095,42.4158 C35.2925,42.6208 35.5525,42.7418 35.8275,42.7498 C36.0935,42.7448 36.3685,42.6518 36.5625,42.4568 L42.4575,36.5628 C42.6515,36.3678 42.7585,36.1018 42.7505,35.8268 C42.7425,35.5518 42.6215,35.2918 42.4165,35.1098 L40.4325,33.3398 C41.2165,31.9668 41.8195,30.5088 42.2355,28.9878 L44.8885,29.1388 C45.1565,29.1508 45.4325,29.0558 45.6325,28.8668 C45.8325,28.6788 45.9455,28.4158 45.9455,28.1408 L45.9455,19.8048 C45.9455,19.5288 45.8325,19.2668 45.6325,19.0778 L45.6325,19.0778 Z" id="AWS-System-Manager_automation_Resource-Icon_light-bg" fill="#000000"></path>
    </g><g transform="translate(25, 83)" id="svgGroup" stroke-linecap="round" fill-rule="evenodd" font-size="9pt" stroke="#000" stroke-width="0.25mm" fill="#000" style="stroke:#000;stroke-width:0.25mm;fill:#000"><path d="M 23.12 0.088 L 24.13 4.469 L 24.253 5.313 L 24.434 4.553 L 25.699 0.088 L 26.411 0.088 L 27.646 4.553 L 27.822 5.326 L 27.958 4.465 L 28.951 0.088 L 29.799 0.088 L 28.248 6.486 L 27.479 6.486 L 26.161 1.824 L 26.06 1.336 L 25.958 1.824 L 24.592 6.486 L 23.823 6.486 L 22.276 0.088 L 23.12 0.088 Z M 34.98 1.938 L 34.132 1.938 A 1.466 1.466 0 0 0 34.083 1.546 A 1.066 1.066 0 0 0 33.763 1.026 A 1.211 1.211 0 0 0 33.294 0.77 Q 33.042 0.694 32.722 0.694 A 2.286 2.286 0 0 0 32.342 0.724 Q 32.14 0.758 31.977 0.831 A 1.101 1.101 0 0 0 31.748 0.969 A 0.892 0.892 0 0 0 31.403 1.624 A 1.267 1.267 0 0 0 31.399 1.732 A 0.806 0.806 0 0 0 31.667 2.337 A 1.134 1.134 0 0 0 31.731 2.393 A 1.562 1.562 0 0 0 31.969 2.549 Q 32.299 2.73 32.86 2.887 A 8.228 8.228 0 0 1 33.325 3.032 Q 33.56 3.113 33.754 3.2 A 3.297 3.297 0 0 1 34.108 3.382 A 2.342 2.342 0 0 1 34.447 3.626 Q 34.637 3.792 34.759 3.985 A 1.45 1.45 0 0 1 34.776 4.012 A 1.498 1.498 0 0 1 34.972 4.568 A 1.948 1.948 0 0 1 34.994 4.86 A 1.606 1.606 0 0 1 34.871 5.497 Q 34.726 5.838 34.408 6.09 A 1.886 1.886 0 0 1 34.387 6.106 Q 33.781 6.574 32.766 6.574 A 3.023 3.023 0 0 1 31.625 6.36 A 2.917 2.917 0 0 1 31.535 6.322 A 2.383 2.383 0 0 1 31.057 6.044 A 1.874 1.874 0 0 1 30.654 5.629 A 1.689 1.689 0 0 1 30.344 4.632 L 31.192 4.632 A 1.261 1.261 0 0 0 31.262 5.059 A 1.074 1.074 0 0 0 31.621 5.548 Q 32.005 5.85 32.622 5.881 A 2.87 2.87 0 0 0 32.766 5.884 A 2.628 2.628 0 0 0 33.153 5.858 Q 33.349 5.828 33.508 5.767 A 1.129 1.129 0 0 0 33.79 5.612 Q 34.146 5.339 34.146 4.869 A 1.074 1.074 0 0 0 34.103 4.559 A 0.816 0.816 0 0 0 33.816 4.142 Q 33.486 3.885 32.621 3.634 Q 31.535 3.322 31.041 2.868 Q 30.546 2.413 30.546 1.745 Q 30.546 0.989 31.151 0.494 A 2.121 2.121 0 0 1 32.041 0.071 A 3.087 3.087 0 0 1 32.722 0 A 2.913 2.913 0 0 1 33.382 0.072 A 2.372 2.372 0 0 1 33.897 0.255 A 2.051 2.051 0 0 1 34.428 0.626 A 1.834 1.834 0 0 1 34.697 0.958 A 1.798 1.798 0 0 1 34.98 1.938 Z M 3.74 6.486 L 2.351 3.898 L 0.848 3.898 L 0.848 6.486 L 0 6.486 L 0 0.088 L 2.118 0.088 A 3.809 3.809 0 0 1 2.76 0.138 Q 3.102 0.197 3.376 0.324 A 1.789 1.789 0 0 1 3.781 0.58 A 1.588 1.588 0 0 1 4.307 1.469 A 2.453 2.453 0 0 1 4.364 2.013 A 1.864 1.864 0 0 1 4.273 2.604 A 1.64 1.64 0 0 1 4.041 3.054 A 1.849 1.849 0 0 1 3.382 3.611 A 2.342 2.342 0 0 1 3.142 3.718 L 4.645 6.434 L 4.645 6.486 L 3.74 6.486 Z M 13.724 3.129 L 12.907 3.129 Q 12.907 2.795 12.623 2.553 Q 12.34 2.312 11.909 2.312 Q 11.465 2.312 11.215 2.505 A 0.653 0.653 0 0 0 11.04 2.704 Q 10.967 2.835 10.964 3 A 0.771 0.771 0 0 0 10.964 3.01 A 0.588 0.588 0 0 0 10.994 3.203 A 0.48 0.48 0 0 0 11.197 3.454 A 1.093 1.093 0 0 0 11.348 3.533 Q 11.512 3.605 11.767 3.673 A 6.581 6.581 0 0 0 12.039 3.74 A 6.318 6.318 0 0 1 12.446 3.845 Q 12.783 3.944 13.025 4.065 A 1.901 1.901 0 0 1 13.281 4.218 Q 13.418 4.315 13.516 4.429 A 1.06 1.06 0 0 1 13.586 4.52 A 1.024 1.024 0 0 1 13.748 4.927 A 1.388 1.388 0 0 1 13.768 5.168 Q 13.768 5.805 13.258 6.19 Q 12.776 6.554 12.022 6.573 A 3.337 3.337 0 0 1 11.936 6.574 A 2.746 2.746 0 0 1 11.401 6.525 A 2.124 2.124 0 0 1 10.925 6.372 A 1.771 1.771 0 0 1 10.491 6.094 A 1.54 1.54 0 0 1 10.237 5.807 Q 9.989 5.445 9.989 5.023 L 10.802 5.023 A 0.932 0.932 0 0 0 10.875 5.348 A 0.827 0.827 0 0 0 11.129 5.671 A 1.072 1.072 0 0 0 11.531 5.864 Q 11.686 5.903 11.867 5.91 A 2.013 2.013 0 0 0 11.936 5.911 A 1.863 1.863 0 0 0 12.231 5.889 Q 12.393 5.863 12.524 5.806 A 0.941 0.941 0 0 0 12.676 5.724 A 0.689 0.689 0 0 0 12.841 5.574 A 0.554 0.554 0 0 0 12.955 5.225 A 0.698 0.698 0 0 0 12.919 4.994 A 0.581 0.581 0 0 0 12.707 4.713 A 1.05 1.05 0 0 0 12.538 4.615 Q 12.349 4.524 12.054 4.449 A 5.392 5.392 0 0 0 11.841 4.399 A 6.342 6.342 0 0 1 11.48 4.311 Q 11.11 4.209 10.861 4.083 Q 10.562 3.93 10.392 3.731 A 1.017 1.017 0 0 1 10.325 3.643 Q 10.151 3.388 10.151 3.037 A 1.206 1.206 0 0 1 10.55 2.132 A 1.694 1.694 0 0 1 10.646 2.048 A 1.752 1.752 0 0 1 11.429 1.688 A 2.471 2.471 0 0 1 11.909 1.644 A 2.559 2.559 0 0 1 12.473 1.702 A 1.757 1.757 0 0 1 13.221 2.061 Q 13.724 2.479 13.724 3.129 Z M 21.327 6.486 L 20.716 4.816 L 18.035 4.816 L 17.433 6.486 L 16.563 6.486 L 19.006 0.088 L 19.745 0.088 L 22.192 6.486 L 21.327 6.486 Z M 5.212 4.241 L 5.212 4.091 A 3.17 3.17 0 0 1 5.288 3.382 A 2.581 2.581 0 0 1 5.482 2.828 A 2.191 2.191 0 0 1 5.93 2.202 A 2.033 2.033 0 0 1 6.238 1.958 Q 6.724 1.644 7.291 1.644 A 2.254 2.254 0 0 1 7.904 1.723 A 1.639 1.639 0 0 1 8.732 2.254 Q 9.246 2.865 9.246 4.003 L 9.246 4.342 L 6.025 4.342 A 2.111 2.111 0 0 0 6.096 4.85 A 1.516 1.516 0 0 0 6.436 5.478 A 1.282 1.282 0 0 0 7.37 5.909 A 1.652 1.652 0 0 0 7.436 5.911 A 1.763 1.763 0 0 0 7.764 5.882 Q 7.988 5.839 8.165 5.735 A 1.827 1.827 0 0 0 8.674 5.287 A 2.068 2.068 0 0 0 8.688 5.269 L 9.185 5.656 A 1.926 1.926 0 0 1 7.785 6.547 A 2.749 2.749 0 0 1 7.392 6.574 A 2.394 2.394 0 0 1 6.64 6.461 A 1.974 1.974 0 0 1 5.818 5.939 Q 5.212 5.304 5.212 4.241 Z M 0.848 0.782 L 0.848 3.208 L 2.145 3.208 Q 2.685 3.208 3.035 2.968 A 1.174 1.174 0 0 0 3.144 2.883 A 1.069 1.069 0 0 0 3.51 2.146 A 1.486 1.486 0 0 0 3.516 2.013 Q 3.516 1.47 3.22 1.159 A 1 1 0 0 0 3.162 1.103 Q 2.808 0.787 2.14 0.782 L 0.848 0.782 Z M 19.375 1.129 L 18.29 4.122 L 20.465 4.122 L 19.375 1.129 Z M 6.051 3.674 L 8.433 3.674 L 8.433 3.612 Q 8.407 3.153 8.236 2.848 A 1.13 1.13 0 0 0 8.099 2.652 A 0.983 0.983 0 0 0 7.445 2.32 A 1.39 1.39 0 0 0 7.291 2.312 A 1.106 1.106 0 0 0 6.768 2.435 A 1.14 1.14 0 0 0 6.464 2.67 A 1.417 1.417 0 0 0 6.188 3.116 Q 6.114 3.3 6.074 3.522 A 2.741 2.741 0 0 0 6.051 3.674 Z" vector-effect="non-scaling-stroke"/></g><g transform="translate(25, 93)" id="svgGroup" stroke-linecap="round" fill-rule="evenodd" font-size="9pt" stroke="#000" stroke-width="0.25mm" fill="#000" style="stroke:#000;stroke-width:0.25mm;fill:#000"><path d="M 37.094 0.352 L 38.184 0.352 L 40.276 5.572 L 42.368 0.352 L 43.462 0.352 L 43.462 6.75 L 42.618 6.75 L 42.618 4.258 L 42.697 1.569 L 40.597 6.75 L 39.951 6.75 L 37.855 1.582 L 37.938 4.258 L 37.938 6.75 L 37.094 6.75 L 37.094 0.352 Z M 22.206 1.995 L 22.975 1.995 L 22.997 2.522 Q 23.52 1.907 24.407 1.907 A 2.009 2.009 0 0 1 24.918 1.968 A 1.244 1.244 0 0 1 25.765 2.672 A 1.801 1.801 0 0 1 26.383 2.118 A 1.65 1.65 0 0 1 26.912 1.937 A 2.209 2.209 0 0 1 27.281 1.907 A 2.119 2.119 0 0 1 27.926 1.997 Q 28.852 2.292 28.872 3.564 L 28.872 6.75 L 28.059 6.75 L 28.059 3.612 A 1.781 1.781 0 0 0 28.039 3.332 Q 28.015 3.185 27.965 3.067 A 0.758 0.758 0 0 0 27.826 2.85 A 0.68 0.68 0 0 0 27.573 2.682 Q 27.362 2.597 27.045 2.597 A 1.245 1.245 0 0 0 26.679 2.648 A 1.008 1.008 0 0 0 26.293 2.867 A 1.042 1.042 0 0 0 25.979 3.404 A 1.41 1.41 0 0 0 25.945 3.595 L 25.945 6.75 L 25.128 6.75 L 25.128 3.634 A 1.532 1.532 0 0 0 25.08 3.23 Q 24.953 2.768 24.495 2.643 A 1.457 1.457 0 0 0 24.113 2.597 Q 23.339 2.597 23.039 3.234 A 1.459 1.459 0 0 0 23.019 3.278 L 23.019 6.75 L 22.206 6.75 L 22.206 1.995 Z M 93.437 1.995 L 94.206 1.995 L 94.228 2.522 Q 94.751 1.907 95.638 1.907 A 2.009 2.009 0 0 1 96.149 1.968 A 1.244 1.244 0 0 1 96.996 2.672 A 1.801 1.801 0 0 1 97.614 2.118 A 1.65 1.65 0 0 1 98.143 1.937 A 2.209 2.209 0 0 1 98.512 1.907 A 2.119 2.119 0 0 1 99.156 1.997 Q 100.083 2.292 100.103 3.564 L 100.103 6.75 L 99.29 6.75 L 99.29 3.612 A 1.781 1.781 0 0 0 99.27 3.332 Q 99.246 3.185 99.196 3.067 A 0.758 0.758 0 0 0 99.057 2.85 A 0.68 0.68 0 0 0 98.804 2.682 Q 98.593 2.597 98.276 2.597 A 1.245 1.245 0 0 0 97.91 2.648 A 1.008 1.008 0 0 0 97.524 2.867 A 1.042 1.042 0 0 0 97.21 3.404 A 1.41 1.41 0 0 0 97.176 3.595 L 97.176 6.75 L 96.359 6.75 L 96.359 3.634 A 1.532 1.532 0 0 0 96.31 3.23 Q 96.184 2.768 95.726 2.643 A 1.457 1.457 0 0 0 95.344 2.597 Q 94.57 2.597 94.27 3.234 A 1.459 1.459 0 0 0 94.25 3.278 L 94.25 6.75 L 93.437 6.75 L 93.437 1.995 Z M 4.636 2.202 L 3.788 2.202 A 1.466 1.466 0 0 0 3.738 1.809 A 1.066 1.066 0 0 0 3.419 1.29 A 1.211 1.211 0 0 0 2.95 1.033 Q 2.698 0.958 2.378 0.958 A 2.286 2.286 0 0 0 1.998 0.988 Q 1.796 1.022 1.633 1.095 A 1.101 1.101 0 0 0 1.404 1.233 A 0.892 0.892 0 0 0 1.059 1.887 A 1.267 1.267 0 0 0 1.055 1.995 A 0.806 0.806 0 0 0 1.323 2.6 A 1.134 1.134 0 0 0 1.387 2.656 A 1.562 1.562 0 0 0 1.625 2.813 Q 1.955 2.993 2.516 3.151 A 8.228 8.228 0 0 1 2.981 3.295 Q 3.216 3.377 3.41 3.464 A 3.297 3.297 0 0 1 3.764 3.645 A 2.342 2.342 0 0 1 4.103 3.889 Q 4.293 4.056 4.415 4.248 A 1.45 1.45 0 0 1 4.432 4.276 A 1.498 1.498 0 0 1 4.628 4.832 A 1.948 1.948 0 0 1 4.65 5.124 A 1.606 1.606 0 0 1 4.527 5.76 Q 4.382 6.101 4.064 6.354 A 1.886 1.886 0 0 1 4.043 6.37 Q 3.437 6.838 2.422 6.838 A 3.023 3.023 0 0 1 1.281 6.623 A 2.917 2.917 0 0 1 1.191 6.585 A 2.383 2.383 0 0 1 0.713 6.307 A 1.874 1.874 0 0 1 0.31 5.893 A 1.689 1.689 0 0 1 0 4.896 L 0.848 4.896 A 1.261 1.261 0 0 0 0.918 5.323 A 1.074 1.074 0 0 0 1.277 5.812 Q 1.661 6.113 2.278 6.144 A 2.87 2.87 0 0 0 2.422 6.148 A 2.628 2.628 0 0 0 2.809 6.121 Q 3.005 6.092 3.164 6.031 A 1.129 1.129 0 0 0 3.445 5.875 Q 3.801 5.603 3.801 5.133 A 1.074 1.074 0 0 0 3.759 4.822 A 0.816 0.816 0 0 0 3.472 4.406 Q 3.142 4.148 2.277 3.898 Q 1.191 3.586 0.697 3.131 Q 0.202 2.676 0.202 2.008 Q 0.202 1.252 0.807 0.758 A 2.121 2.121 0 0 1 1.697 0.335 A 3.087 3.087 0 0 1 2.378 0.264 A 2.913 2.913 0 0 1 3.038 0.336 A 2.372 2.372 0 0 1 3.553 0.519 A 2.051 2.051 0 0 1 4.084 0.889 A 1.834 1.834 0 0 1 4.353 1.222 A 1.798 1.798 0 0 1 4.636 2.202 Z M 152.838 6.75 L 151.181 4.548 L 150.671 5.08 L 150.671 6.75 L 149.858 6.75 L 149.858 0 L 150.671 0 L 150.671 4.083 L 151.106 3.56 L 152.587 1.995 L 153.576 1.995 L 151.726 3.981 L 153.791 6.75 L 152.838 6.75 Z M 62.622 2.522 L 62.662 1.995 L 63.404 1.995 L 63.404 6.636 A 2.511 2.511 0 0 1 63.334 7.249 A 1.738 1.738 0 0 1 62.857 8.09 A 1.834 1.834 0 0 1 61.927 8.57 A 2.671 2.671 0 0 1 61.387 8.622 A 2.446 2.446 0 0 1 60.381 8.402 A 2.003 2.003 0 0 1 59.971 8.161 A 1.563 1.563 0 0 1 59.63 7.8 L 60.051 7.313 A 1.889 1.889 0 0 0 60.486 7.712 A 1.514 1.514 0 0 0 61.33 7.958 A 1.695 1.695 0 0 0 61.707 7.919 Q 61.976 7.858 62.17 7.702 A 1.037 1.037 0 0 0 62.255 7.625 A 1.09 1.09 0 0 0 62.532 7.132 Q 62.579 6.959 62.586 6.752 A 2.134 2.134 0 0 0 62.587 6.684 L 62.587 6.275 A 1.601 1.601 0 0 1 61.535 6.821 A 2.279 2.279 0 0 1 61.256 6.838 A 1.672 1.672 0 0 1 60.5 6.67 Q 60.178 6.51 59.929 6.197 A 2.14 2.14 0 0 1 59.904 6.166 A 2.316 2.316 0 0 1 59.521 5.386 Q 59.388 4.922 59.388 4.333 Q 59.388 3.472 59.696 2.884 A 2.096 2.096 0 0 1 59.902 2.564 Q 60.416 1.907 61.264 1.907 A 1.971 1.971 0 0 1 61.863 1.994 A 1.55 1.55 0 0 1 62.622 2.522 Z M 13.399 3.393 L 12.582 3.393 Q 12.582 3.059 12.298 2.817 Q 12.015 2.575 11.584 2.575 Q 11.14 2.575 10.89 2.769 A 0.653 0.653 0 0 0 10.715 2.967 Q 10.642 3.098 10.639 3.263 A 0.771 0.771 0 0 0 10.639 3.274 A 0.588 0.588 0 0 0 10.669 3.467 A 0.48 0.48 0 0 0 10.872 3.718 A 1.093 1.093 0 0 0 11.022 3.796 Q 11.187 3.868 11.442 3.937 A 6.581 6.581 0 0 0 11.714 4.003 A 6.318 6.318 0 0 1 12.121 4.108 Q 12.458 4.208 12.7 4.329 A 1.901 1.901 0 0 1 12.956 4.481 Q 13.093 4.579 13.19 4.692 A 1.06 1.06 0 0 1 13.261 4.783 A 1.024 1.024 0 0 1 13.423 5.191 A 1.388 1.388 0 0 1 13.443 5.432 Q 13.443 6.069 12.933 6.453 Q 12.451 6.817 11.697 6.837 A 3.337 3.337 0 0 1 11.61 6.838 A 2.746 2.746 0 0 1 11.076 6.788 A 2.124 2.124 0 0 1 10.6 6.636 A 1.771 1.771 0 0 1 10.166 6.358 A 1.54 1.54 0 0 1 9.912 6.071 Q 9.664 5.708 9.664 5.287 L 10.477 5.287 A 0.932 0.932 0 0 0 10.55 5.612 A 0.827 0.827 0 0 0 10.804 5.935 A 1.072 1.072 0 0 0 11.206 6.128 Q 11.361 6.167 11.542 6.173 A 2.013 2.013 0 0 0 11.61 6.174 A 1.863 1.863 0 0 0 11.906 6.152 Q 12.068 6.126 12.199 6.07 A 0.941 0.941 0 0 0 12.351 5.988 A 0.689 0.689 0 0 0 12.516 5.837 A 0.554 0.554 0 0 0 12.63 5.489 A 0.698 0.698 0 0 0 12.594 5.258 A 0.581 0.581 0 0 0 12.382 4.977 A 1.05 1.05 0 0 0 12.213 4.878 Q 12.024 4.788 11.729 4.712 A 5.392 5.392 0 0 0 11.516 4.663 A 6.342 6.342 0 0 1 11.155 4.575 Q 10.785 4.473 10.536 4.346 Q 10.237 4.194 10.067 3.994 A 1.017 1.017 0 0 1 10 3.907 Q 9.826 3.652 9.826 3.3 A 1.206 1.206 0 0 1 10.225 2.396 A 1.694 1.694 0 0 1 10.321 2.312 A 1.752 1.752 0 0 1 11.104 1.952 A 2.471 2.471 0 0 1 11.584 1.907 A 2.559 2.559 0 0 1 12.148 1.966 A 1.757 1.757 0 0 1 12.896 2.325 Q 13.399 2.742 13.399 3.393 Z M 33.636 3.393 L 32.819 3.393 Q 32.819 3.059 32.535 2.817 Q 32.252 2.575 31.821 2.575 Q 31.377 2.575 31.127 2.769 A 0.653 0.653 0 0 0 30.952 2.967 Q 30.878 3.098 30.876 3.263 A 0.771 0.771 0 0 0 30.876 3.274 A 0.588 0.588 0 0 0 30.906 3.467 A 0.48 0.48 0 0 0 31.109 3.718 A 1.093 1.093 0 0 0 31.259 3.796 Q 31.423 3.868 31.679 3.937 A 6.581 6.581 0 0 0 31.951 4.003 A 6.318 6.318 0 0 1 32.358 4.108 Q 32.695 4.208 32.937 4.329 A 1.901 1.901 0 0 1 33.193 4.481 Q 33.33 4.579 33.427 4.692 A 1.06 1.06 0 0 1 33.497 4.783 A 1.024 1.024 0 0 1 33.66 5.191 A 1.388 1.388 0 0 1 33.68 5.432 Q 33.68 6.069 33.17 6.453 Q 32.688 6.817 31.934 6.837 A 3.337 3.337 0 0 1 31.847 6.838 A 2.746 2.746 0 0 1 31.313 6.788 A 2.124 2.124 0 0 1 30.837 6.636 A 1.771 1.771 0 0 1 30.403 6.358 A 1.54 1.54 0 0 1 30.149 6.071 Q 29.901 5.708 29.901 5.287 L 30.714 5.287 A 0.932 0.932 0 0 0 30.787 5.612 A 0.827 0.827 0 0 0 31.041 5.935 A 1.072 1.072 0 0 0 31.443 6.128 Q 31.598 6.167 31.779 6.173 A 2.013 2.013 0 0 0 31.847 6.174 A 1.863 1.863 0 0 0 32.143 6.152 Q 32.304 6.126 32.436 6.07 A 0.941 0.941 0 0 0 32.588 5.988 A 0.689 0.689 0 0 0 32.752 5.837 A 0.554 0.554 0 0 0 32.867 5.489 A 0.698 0.698 0 0 0 32.83 5.258 A 0.581 0.581 0 0 0 32.619 4.977 A 1.05 1.05 0 0 0 32.45 4.878 Q 32.261 4.788 31.966 4.712 A 5.392 5.392 0 0 0 31.753 4.663 A 6.342 6.342 0 0 1 31.392 4.575 Q 31.022 4.473 30.773 4.346 Q 30.474 4.194 30.304 3.994 A 1.017 1.017 0 0 1 30.237 3.907 Q 30.063 3.652 30.063 3.3 A 1.206 1.206 0 0 1 30.462 2.396 A 1.694 1.694 0 0 1 30.558 2.312 A 1.752 1.752 0 0 1 31.341 1.952 A 2.471 2.471 0 0 1 31.821 1.907 A 2.559 2.559 0 0 1 32.384 1.966 A 1.757 1.757 0 0 1 33.133 2.325 Q 33.636 2.742 33.636 3.393 Z M 5.972 1.995 L 7.159 5.559 L 8.266 1.995 L 9.136 1.995 L 7.225 7.484 Q 6.781 8.67 5.814 8.67 L 5.66 8.657 L 5.357 8.6 L 5.357 7.941 L 5.577 7.958 Q 5.857 7.958 6.053 7.882 A 0.75 0.75 0 0 0 6.221 7.792 A 0.749 0.749 0 0 0 6.381 7.629 Q 6.499 7.47 6.589 7.215 A 2.575 2.575 0 0 0 6.601 7.181 L 6.781 6.697 L 5.085 1.995 L 5.972 1.995 Z M 49.72 1.995 L 50.489 1.995 L 50.515 2.593 Q 51.052 1.918 51.912 1.907 A 2.234 2.234 0 0 1 51.939 1.907 A 1.905 1.905 0 0 1 52.573 2.004 Q 53.414 2.3 53.457 3.506 A 3.668 3.668 0 0 1 53.46 3.608 L 53.46 6.75 L 52.647 6.75 L 52.647 3.604 A 1.837 1.837 0 0 0 52.624 3.324 Q 52.574 3.017 52.412 2.843 Q 52.225 2.645 51.872 2.606 A 1.66 1.66 0 0 0 51.693 2.597 A 1.253 1.253 0 0 0 51.279 2.664 A 1.123 1.123 0 0 0 50.999 2.808 A 1.432 1.432 0 0 0 50.533 3.362 L 50.533 6.75 L 49.72 6.75 L 49.72 1.995 Z M 116.482 1.995 L 117.251 1.995 L 117.277 2.593 Q 117.813 1.918 118.673 1.907 A 2.234 2.234 0 0 1 118.701 1.907 A 1.905 1.905 0 0 1 119.334 2.004 Q 120.176 2.3 120.219 3.506 A 3.668 3.668 0 0 1 120.221 3.608 L 120.221 6.75 L 119.408 6.75 L 119.408 3.604 A 1.837 1.837 0 0 0 119.386 3.324 Q 119.336 3.017 119.173 2.843 Q 118.987 2.645 118.634 2.606 A 1.66 1.66 0 0 0 118.455 2.597 A 1.253 1.253 0 0 0 118.04 2.664 A 1.123 1.123 0 0 0 117.76 2.808 A 1.432 1.432 0 0 0 117.295 3.362 L 117.295 6.75 L 116.482 6.75 L 116.482 1.995 Z M 83.448 6.75 L 83.43 6.28 A 1.526 1.526 0 0 1 82.604 6.775 Q 82.354 6.836 82.056 6.838 A 2.996 2.996 0 0 1 82.037 6.838 A 2.086 2.086 0 0 1 81.577 6.79 Q 81.147 6.693 80.879 6.396 A 1.41 1.41 0 0 1 80.596 5.899 Q 80.48 5.556 80.477 5.089 L 80.477 1.995 L 81.29 1.995 L 81.29 5.067 Q 81.29 6.037 81.998 6.137 A 1.229 1.229 0 0 0 82.169 6.148 A 1.927 1.927 0 0 0 82.62 6.099 Q 83.182 5.964 83.408 5.454 L 83.408 1.995 L 84.221 1.995 L 84.221 6.75 L 83.448 6.75 Z M 78.944 6.75 L 78.333 5.08 L 75.652 5.08 L 75.05 6.75 L 74.18 6.75 L 76.623 0.352 L 77.361 0.352 L 79.809 6.75 L 78.944 6.75 Z M 48.612 6.75 L 47.76 6.75 A 0.632 0.632 0 0 1 47.724 6.66 Q 47.693 6.562 47.668 6.41 A 3.997 3.997 0 0 1 47.646 6.249 Q 47.079 6.838 46.292 6.838 A 2.033 2.033 0 0 1 45.763 6.772 A 1.529 1.529 0 0 1 45.139 6.44 Q 44.688 6.042 44.688 5.432 Q 44.688 4.689 45.253 4.278 Q 45.818 3.867 46.841 3.867 L 47.632 3.867 L 47.632 3.494 A 1.152 1.152 0 0 0 47.597 3.199 A 0.828 0.828 0 0 0 47.378 2.815 Q 47.161 2.6 46.771 2.568 A 1.748 1.748 0 0 0 46.626 2.562 Q 46.191 2.562 45.897 2.782 Q 45.602 3.001 45.602 3.313 L 44.785 3.313 A 1.041 1.041 0 0 1 44.91 2.825 A 1.409 1.409 0 0 1 45.038 2.626 Q 45.29 2.294 45.723 2.101 A 2.249 2.249 0 0 1 46.499 1.913 A 2.669 2.669 0 0 1 46.674 1.907 A 2.65 2.65 0 0 1 47.192 1.955 Q 47.499 2.016 47.738 2.156 A 1.439 1.439 0 0 1 47.962 2.318 A 1.396 1.396 0 0 1 48.415 3.144 A 1.998 1.998 0 0 1 48.445 3.45 L 48.445 5.638 Q 48.445 6.073 48.519 6.39 A 1.707 1.707 0 0 0 48.612 6.68 L 48.612 6.75 Z M 58.474 6.75 L 57.621 6.75 A 0.632 0.632 0 0 1 57.586 6.66 Q 57.555 6.562 57.53 6.41 A 3.997 3.997 0 0 1 57.507 6.249 Q 56.94 6.838 56.153 6.838 A 2.033 2.033 0 0 1 55.624 6.772 A 1.529 1.529 0 0 1 55 6.44 Q 54.549 6.042 54.549 5.432 Q 54.549 4.689 55.114 4.278 Q 55.679 3.867 56.703 3.867 L 57.494 3.867 L 57.494 3.494 A 1.152 1.152 0 0 0 57.458 3.199 A 0.828 0.828 0 0 0 57.239 2.815 Q 57.023 2.6 56.632 2.568 A 1.748 1.748 0 0 0 56.487 2.562 Q 56.052 2.562 55.758 2.782 Q 55.464 3.001 55.464 3.313 L 54.646 3.313 A 1.041 1.041 0 0 1 54.771 2.825 A 1.409 1.409 0 0 1 54.899 2.626 Q 55.152 2.294 55.584 2.101 A 2.249 2.249 0 0 1 56.36 1.913 A 2.669 2.669 0 0 1 56.536 1.907 A 2.65 2.65 0 0 1 57.053 1.955 Q 57.36 2.016 57.599 2.156 A 1.439 1.439 0 0 1 57.823 2.318 A 1.396 1.396 0 0 1 58.277 3.144 A 1.998 1.998 0 0 1 58.307 3.45 L 58.307 5.638 Q 58.307 6.073 58.38 6.39 A 1.707 1.707 0 0 0 58.474 6.68 L 58.474 6.75 Z M 105.117 6.75 L 104.265 6.75 A 0.632 0.632 0 0 1 104.229 6.66 Q 104.198 6.562 104.173 6.41 A 3.997 3.997 0 0 1 104.151 6.249 Q 103.584 6.838 102.797 6.838 A 2.033 2.033 0 0 1 102.268 6.772 A 1.529 1.529 0 0 1 101.643 6.44 Q 101.193 6.042 101.193 5.432 Q 101.193 4.689 101.758 4.278 Q 102.322 3.867 103.346 3.867 L 104.137 3.867 L 104.137 3.494 A 1.152 1.152 0 0 0 104.102 3.199 A 0.828 0.828 0 0 0 103.882 2.815 Q 103.666 2.6 103.276 2.568 A 1.748 1.748 0 0 0 103.131 2.562 Q 102.696 2.562 102.402 2.782 Q 102.107 3.001 102.107 3.313 L 101.29 3.313 A 1.041 1.041 0 0 1 101.415 2.825 A 1.409 1.409 0 0 1 101.542 2.626 Q 101.795 2.294 102.228 2.101 A 2.249 2.249 0 0 1 103.004 1.913 A 2.669 2.669 0 0 1 103.179 1.907 A 2.65 2.65 0 0 1 103.697 1.955 Q 104.004 2.016 104.243 2.156 A 1.439 1.439 0 0 1 104.467 2.318 A 1.396 1.396 0 0 1 104.92 3.144 A 1.998 1.998 0 0 1 104.95 3.45 L 104.95 5.638 Q 104.95 6.073 105.024 6.39 A 1.707 1.707 0 0 0 105.117 6.68 L 105.117 6.75 Z M 145.701 6.75 L 144.848 6.75 A 0.632 0.632 0 0 1 144.813 6.66 Q 144.782 6.562 144.757 6.41 A 3.997 3.997 0 0 1 144.734 6.249 Q 144.167 6.838 143.381 6.838 A 2.033 2.033 0 0 1 142.851 6.772 A 1.529 1.529 0 0 1 142.227 6.44 Q 141.777 6.042 141.777 5.432 Q 141.777 4.689 142.341 4.278 Q 142.906 3.867 143.93 3.867 L 144.721 3.867 L 144.721 3.494 A 1.152 1.152 0 0 0 144.685 3.199 A 0.828 0.828 0 0 0 144.466 2.815 Q 144.25 2.6 143.859 2.568 A 1.748 1.748 0 0 0 143.715 2.562 Q 143.279 2.562 142.985 2.782 Q 142.691 3.001 142.691 3.313 L 141.873 3.313 A 1.041 1.041 0 0 1 141.998 2.825 A 1.409 1.409 0 0 1 142.126 2.626 Q 142.379 2.294 142.811 2.101 A 2.249 2.249 0 0 1 143.587 1.913 A 2.669 2.669 0 0 1 143.763 1.907 A 2.65 2.65 0 0 1 144.28 1.955 Q 144.588 2.016 144.826 2.156 A 1.439 1.439 0 0 1 145.05 2.318 A 1.396 1.396 0 0 1 145.504 3.144 A 1.998 1.998 0 0 1 145.534 3.45 L 145.534 5.638 Q 145.534 6.073 145.607 6.39 A 1.707 1.707 0 0 0 145.701 6.68 L 145.701 6.75 Z M 17.235 4.504 L 17.235 4.355 A 3.17 3.17 0 0 1 17.312 3.646 A 2.581 2.581 0 0 1 17.506 3.092 A 2.191 2.191 0 0 1 17.953 2.466 A 2.033 2.033 0 0 1 18.262 2.221 Q 18.747 1.907 19.314 1.907 A 2.254 2.254 0 0 1 19.927 1.986 A 1.639 1.639 0 0 1 20.756 2.518 Q 21.27 3.129 21.27 4.267 L 21.27 4.605 L 18.048 4.605 A 2.111 2.111 0 0 0 18.12 5.114 A 1.516 1.516 0 0 0 18.459 5.741 A 1.282 1.282 0 0 0 19.393 6.173 A 1.652 1.652 0 0 0 19.459 6.174 A 1.763 1.763 0 0 0 19.787 6.145 Q 20.011 6.103 20.189 5.999 A 1.827 1.827 0 0 0 20.697 5.551 A 2.068 2.068 0 0 0 20.712 5.533 L 21.208 5.919 A 1.926 1.926 0 0 1 19.808 6.811 A 2.749 2.749 0 0 1 19.415 6.838 A 2.394 2.394 0 0 1 18.664 6.725 A 1.974 1.974 0 0 1 17.842 6.203 Q 17.235 5.568 17.235 4.504 Z M 64.424 4.504 L 64.424 4.355 A 3.17 3.17 0 0 1 64.5 3.646 A 2.581 2.581 0 0 1 64.694 3.092 A 2.191 2.191 0 0 1 65.142 2.466 A 2.033 2.033 0 0 1 65.45 2.221 Q 65.936 1.907 66.503 1.907 A 2.254 2.254 0 0 1 67.116 1.986 A 1.639 1.639 0 0 1 67.944 2.518 Q 68.458 3.129 68.458 4.267 L 68.458 4.605 L 65.237 4.605 A 2.111 2.111 0 0 0 65.308 5.114 A 1.516 1.516 0 0 0 65.648 5.741 A 1.282 1.282 0 0 0 66.582 6.173 A 1.652 1.652 0 0 0 66.648 6.174 A 1.763 1.763 0 0 0 66.976 6.145 Q 67.2 6.103 67.377 5.999 A 1.827 1.827 0 0 0 67.886 5.551 A 2.068 2.068 0 0 0 67.9 5.533 L 68.397 5.919 A 1.926 1.926 0 0 1 66.997 6.811 A 2.749 2.749 0 0 1 66.604 6.838 A 2.394 2.394 0 0 1 65.852 6.725 A 1.974 1.974 0 0 1 65.03 6.203 Q 64.424 5.568 64.424 4.504 Z M 127.024 0.352 L 127.024 4.601 L 127.912 4.601 L 127.912 5.265 L 127.024 5.265 L 127.024 6.75 L 126.207 6.75 L 126.207 5.265 L 123.293 5.265 L 123.293 4.786 L 126.158 0.352 L 127.024 0.352 Z M 137.909 6.75 L 136.138 6.75 L 136.138 0.352 L 137.944 0.352 Q 138.779 0.352 139.421 0.721 Q 140.063 1.09 140.412 1.771 A 3.19 3.19 0 0 1 140.729 2.8 A 4.073 4.073 0 0 1 140.766 3.335 L 140.766 3.744 Q 140.766 4.649 140.416 5.331 A 2.457 2.457 0 0 1 139.419 6.376 Q 138.771 6.741 137.909 6.75 Z M 132.422 2.592 A 1.544 1.544 0 0 0 132.526 2.021 A 2.226 2.226 0 0 0 132.505 1.707 A 1.566 1.566 0 0 0 132.005 0.738 A 1.754 1.754 0 0 0 131.239 0.333 A 2.443 2.443 0 0 0 130.641 0.264 A 2.539 2.539 0 0 0 130.131 0.312 A 1.767 1.767 0 0 0 129.274 0.738 Q 128.756 1.213 128.756 2.021 A 1.808 1.808 0 0 0 128.756 2.058 A 1.499 1.499 0 0 0 129.002 2.87 A 1.626 1.626 0 0 0 129.164 3.077 A 1.726 1.726 0 0 0 129.674 3.454 A 2.119 2.119 0 0 0 129.574 3.5 A 1.738 1.738 0 0 0 128.89 4.087 A 1.629 1.629 0 0 0 128.606 5.023 A 2.272 2.272 0 0 0 128.616 5.237 A 1.63 1.63 0 0 0 129.162 6.344 A 1.895 1.895 0 0 0 130.013 6.771 A 2.797 2.797 0 0 0 130.641 6.838 A 2.796 2.796 0 0 0 131.24 6.777 A 1.925 1.925 0 0 0 132.115 6.346 A 1.578 1.578 0 0 0 132.59 5.62 A 1.989 1.989 0 0 0 132.675 5.023 A 1.581 1.581 0 0 0 132.383 4.087 Q 132.091 3.674 131.59 3.458 Q 132.021 3.248 132.273 2.874 A 1.449 1.449 0 0 0 132.422 2.592 Z M 14.792 0.844 L 15.605 0.844 L 15.605 1.995 L 16.493 1.995 L 16.493 2.624 L 15.605 2.624 L 15.605 5.572 Q 15.605 5.858 15.724 6.001 Q 15.842 6.144 16.128 6.144 A 1.046 1.046 0 0 0 16.226 6.138 Q 16.328 6.129 16.468 6.101 A 4.024 4.024 0 0 0 16.515 6.091 L 16.515 6.75 A 2.463 2.463 0 0 1 16.082 6.829 A 2.157 2.157 0 0 1 15.891 6.838 Q 15.444 6.838 15.177 6.616 A 0.856 0.856 0 0 1 15.069 6.508 Q 14.842 6.238 14.801 5.78 A 2.351 2.351 0 0 1 14.792 5.572 L 14.792 2.624 L 13.926 2.624 L 13.926 1.995 L 14.792 1.995 L 14.792 0.844 Z M 85.746 0.844 L 86.559 0.844 L 86.559 1.995 L 87.447 1.995 L 87.447 2.624 L 86.559 2.624 L 86.559 5.572 Q 86.559 5.858 86.678 6.001 Q 86.797 6.144 87.082 6.144 A 1.046 1.046 0 0 0 87.18 6.138 Q 87.282 6.129 87.422 6.101 A 4.024 4.024 0 0 0 87.469 6.091 L 87.469 6.75 A 2.463 2.463 0 0 1 87.036 6.829 A 2.157 2.157 0 0 1 86.845 6.838 Q 86.398 6.838 86.131 6.616 A 0.856 0.856 0 0 1 86.023 6.508 Q 85.796 6.238 85.755 5.78 A 2.351 2.351 0 0 1 85.746 5.572 L 85.746 2.624 L 84.881 2.624 L 84.881 1.995 L 85.746 1.995 L 85.746 0.844 Z M 106.515 0.844 L 107.328 0.844 L 107.328 1.995 L 108.215 1.995 L 108.215 2.624 L 107.328 2.624 L 107.328 5.572 Q 107.328 5.858 107.446 6.001 Q 107.565 6.144 107.851 6.144 A 1.046 1.046 0 0 0 107.948 6.138 Q 108.051 6.129 108.191 6.101 A 4.024 4.024 0 0 0 108.237 6.091 L 108.237 6.75 A 2.463 2.463 0 0 1 107.805 6.829 A 2.157 2.157 0 0 1 107.613 6.838 Q 107.166 6.838 106.9 6.616 A 0.856 0.856 0 0 1 106.792 6.508 Q 106.564 6.238 106.524 5.78 A 2.351 2.351 0 0 1 106.515 5.572 L 106.515 2.624 L 105.649 2.624 L 105.649 1.995 L 106.515 1.995 L 106.515 0.844 Z M 88.093 4.386 L 88.093 4.329 A 3.057 3.057 0 0 1 88.18 3.587 A 2.573 2.573 0 0 1 88.368 3.072 A 2.16 2.16 0 0 1 88.782 2.486 A 1.957 1.957 0 0 1 89.132 2.21 A 2.036 2.036 0 0 1 90.077 1.913 A 2.491 2.491 0 0 1 90.251 1.907 A 2.277 2.277 0 0 1 91.004 2.027 A 1.937 1.937 0 0 1 91.822 2.58 A 2.29 2.29 0 0 1 92.341 3.608 A 3.373 3.373 0 0 1 92.422 4.368 L 92.422 4.425 A 3.114 3.114 0 0 1 92.342 5.142 A 2.577 2.577 0 0 1 92.156 5.671 A 2.056 2.056 0 0 1 91.628 6.361 A 2.001 2.001 0 0 1 91.395 6.53 A 2.045 2.045 0 0 1 90.476 6.829 A 2.529 2.529 0 0 1 90.259 6.838 A 2.262 2.262 0 0 1 89.509 6.718 A 1.938 1.938 0 0 1 88.693 6.166 A 2.297 2.297 0 0 1 88.167 5.111 A 3.357 3.357 0 0 1 88.093 4.386 Z M 111.133 4.386 L 111.133 4.329 A 3.057 3.057 0 0 1 111.22 3.587 A 2.573 2.573 0 0 1 111.408 3.072 A 2.16 2.16 0 0 1 111.823 2.486 A 1.957 1.957 0 0 1 112.173 2.21 A 2.036 2.036 0 0 1 113.117 1.913 A 2.491 2.491 0 0 1 113.291 1.907 A 2.277 2.277 0 0 1 114.045 2.027 A 1.937 1.937 0 0 1 114.862 2.58 A 2.29 2.29 0 0 1 115.381 3.608 A 3.373 3.373 0 0 1 115.462 4.368 L 115.462 4.425 A 3.114 3.114 0 0 1 115.383 5.142 A 2.577 2.577 0 0 1 115.196 5.671 A 2.056 2.056 0 0 1 114.669 6.361 A 2.001 2.001 0 0 1 114.436 6.53 A 2.045 2.045 0 0 1 113.516 6.829 A 2.529 2.529 0 0 1 113.3 6.838 A 2.262 2.262 0 0 1 112.55 6.718 A 1.938 1.938 0 0 1 111.733 6.166 A 2.297 2.297 0 0 1 111.208 5.111 A 3.357 3.357 0 0 1 111.133 4.386 Z M 71.697 1.969 L 71.697 2.725 A 2.251 2.251 0 0 0 71.454 2.698 A 2.782 2.782 0 0 0 71.297 2.694 Q 70.519 2.694 70.228 3.338 A 1.445 1.445 0 0 0 70.212 3.375 L 70.212 6.75 L 69.399 6.75 L 69.399 1.995 L 70.19 1.995 L 70.203 2.544 Q 70.583 1.938 71.266 1.909 A 1.636 1.636 0 0 1 71.337 1.907 Q 71.574 1.907 71.697 1.969 Z M 149.107 1.969 L 149.107 2.725 A 2.251 2.251 0 0 0 148.864 2.698 A 2.782 2.782 0 0 0 148.707 2.694 Q 147.929 2.694 147.637 3.338 A 1.445 1.445 0 0 0 147.621 3.375 L 147.621 6.75 L 146.808 6.75 L 146.808 1.995 L 147.599 1.995 L 147.612 2.544 Q 147.993 1.938 148.675 1.909 A 1.636 1.636 0 0 1 148.746 1.907 Q 148.984 1.907 149.107 1.969 Z M 137.966 1.046 L 136.982 1.046 L 136.982 6.06 L 137.87 6.06 A 2.519 2.519 0 0 0 138.502 5.985 A 1.747 1.747 0 0 0 139.388 5.454 Q 139.847 4.94 139.918 4.059 A 4.165 4.165 0 0 0 139.931 3.727 L 139.931 3.353 Q 139.931 2.562 139.661 2.027 A 1.864 1.864 0 0 0 139.419 1.659 A 1.687 1.687 0 0 0 138.423 1.09 A 2.499 2.499 0 0 0 137.966 1.046 Z M 110.048 1.995 L 110.048 6.75 L 109.235 6.75 L 109.235 1.995 L 110.048 1.995 Z M 88.91 4.425 A 2.772 2.772 0 0 0 88.958 4.954 Q 89.018 5.264 89.155 5.51 A 1.545 1.545 0 0 0 89.277 5.695 Q 89.644 6.174 90.259 6.174 A 1.269 1.269 0 0 0 90.749 6.083 Q 91.028 5.967 91.231 5.706 A 1.471 1.471 0 0 0 91.244 5.689 A 1.648 1.648 0 0 0 91.499 5.171 Q 91.567 4.945 91.593 4.672 A 3.655 3.655 0 0 0 91.609 4.329 A 2.687 2.687 0 0 0 91.557 3.789 Q 91.49 3.459 91.332 3.2 A 1.586 1.586 0 0 0 91.237 3.061 A 1.231 1.231 0 0 0 90.822 2.705 Q 90.569 2.575 90.251 2.575 Q 89.661 2.575 89.294 3.035 A 1.515 1.515 0 0 0 89.279 3.054 A 1.589 1.589 0 0 0 89.027 3.552 Q 88.958 3.772 88.93 4.039 A 3.676 3.676 0 0 0 88.91 4.425 Z M 111.951 4.425 A 2.772 2.772 0 0 0 111.998 4.954 Q 112.059 5.264 112.196 5.51 A 1.545 1.545 0 0 0 112.318 5.695 Q 112.685 6.174 113.3 6.174 A 1.269 1.269 0 0 0 113.789 6.083 Q 114.069 5.967 114.271 5.706 A 1.471 1.471 0 0 0 114.284 5.689 A 1.648 1.648 0 0 0 114.539 5.171 Q 114.608 4.945 114.634 4.672 A 3.655 3.655 0 0 0 114.649 4.329 A 2.687 2.687 0 0 0 114.598 3.789 Q 114.53 3.459 114.373 3.2 A 1.586 1.586 0 0 0 114.278 3.061 A 1.231 1.231 0 0 0 113.863 2.705 Q 113.61 2.575 113.291 2.575 Q 112.701 2.575 112.335 3.035 A 1.515 1.515 0 0 0 112.32 3.054 A 1.589 1.589 0 0 0 112.068 3.552 Q 111.998 3.772 111.97 4.039 A 3.676 3.676 0 0 0 111.951 4.425 Z M 62.587 5.449 L 62.587 3.278 A 1.439 1.439 0 0 0 62.286 2.891 Q 61.982 2.62 61.542 2.599 A 1.578 1.578 0 0 0 61.466 2.597 Q 60.875 2.597 60.541 3.056 A 1.51 1.51 0 0 0 60.33 3.484 Q 60.264 3.689 60.233 3.939 A 3.955 3.955 0 0 0 60.205 4.425 Q 60.205 5.229 60.535 5.689 Q 60.864 6.148 61.458 6.148 A 1.32 1.32 0 0 0 61.967 6.054 Q 62.359 5.891 62.587 5.449 Z M 126.11 1.639 L 124.216 4.601 L 126.207 4.601 L 126.207 1.463 L 126.11 1.639 Z M 76.992 1.393 L 75.907 4.386 L 78.082 4.386 L 76.992 1.393 Z M 131.862 5.005 A 1.375 1.375 0 0 0 131.803 4.592 A 1.109 1.109 0 0 0 131.522 4.131 A 1.148 1.148 0 0 0 130.85 3.807 A 1.593 1.593 0 0 0 130.632 3.792 A 1.466 1.466 0 0 0 130.243 3.841 A 1.086 1.086 0 0 0 129.751 4.126 A 1.123 1.123 0 0 0 129.437 4.762 A 1.572 1.572 0 0 0 129.419 5.005 A 1.48 1.48 0 0 0 129.461 5.367 A 1.019 1.019 0 0 0 129.742 5.862 Q 130.048 6.158 130.581 6.173 A 2.053 2.053 0 0 0 130.641 6.174 Q 131.134 6.174 131.444 5.94 A 1.018 1.018 0 0 0 131.537 5.86 A 1.041 1.041 0 0 0 131.837 5.292 A 1.518 1.518 0 0 0 131.862 5.005 Z M 130.641 0.932 A 1.259 1.259 0 0 0 130.288 0.979 A 0.973 0.973 0 0 0 129.865 1.228 Q 129.569 1.525 129.569 2.035 A 1.325 1.325 0 0 0 129.613 2.387 A 0.994 0.994 0 0 0 129.861 2.823 A 0.974 0.974 0 0 0 130.423 3.108 A 1.382 1.382 0 0 0 130.641 3.125 A 1.279 1.279 0 0 0 130.986 3.08 A 0.952 0.952 0 0 0 131.421 2.823 A 1.018 1.018 0 0 0 131.696 2.26 A 1.426 1.426 0 0 0 131.713 2.035 A 1.282 1.282 0 0 0 131.663 1.668 A 1.013 1.013 0 0 0 131.41 1.239 Q 131.107 0.932 130.641 0.932 Z M 47.632 5.418 L 47.632 4.443 L 46.995 4.443 Q 45.501 4.443 45.501 5.317 Q 45.501 5.7 45.756 5.915 A 0.893 0.893 0 0 0 46.169 6.108 A 1.259 1.259 0 0 0 46.411 6.13 A 1.429 1.429 0 0 0 47.136 5.933 A 1.335 1.335 0 0 0 47.431 5.705 A 1.108 1.108 0 0 0 47.632 5.418 Z M 57.494 5.418 L 57.494 4.443 L 56.857 4.443 Q 55.362 4.443 55.362 5.317 Q 55.362 5.7 55.617 5.915 A 0.893 0.893 0 0 0 56.031 6.108 A 1.259 1.259 0 0 0 56.272 6.13 A 1.429 1.429 0 0 0 56.997 5.933 A 1.335 1.335 0 0 0 57.293 5.705 A 1.108 1.108 0 0 0 57.494 5.418 Z M 104.137 5.418 L 104.137 4.443 L 103.5 4.443 Q 102.006 4.443 102.006 5.317 Q 102.006 5.7 102.261 5.915 A 0.893 0.893 0 0 0 102.674 6.108 A 1.259 1.259 0 0 0 102.916 6.13 A 1.429 1.429 0 0 0 103.641 5.933 A 1.335 1.335 0 0 0 103.936 5.705 A 1.108 1.108 0 0 0 104.137 5.418 Z M 144.721 5.418 L 144.721 4.443 L 144.084 4.443 Q 142.59 4.443 142.59 5.317 Q 142.59 5.7 142.844 5.915 A 0.893 0.893 0 0 0 143.258 6.108 A 1.259 1.259 0 0 0 143.499 6.13 A 1.429 1.429 0 0 0 144.224 5.933 A 1.335 1.335 0 0 0 144.52 5.705 A 1.108 1.108 0 0 0 144.721 5.418 Z M 18.075 3.938 L 20.457 3.938 L 20.457 3.876 Q 20.431 3.417 20.26 3.111 A 1.13 1.13 0 0 0 20.123 2.916 A 0.983 0.983 0 0 0 19.468 2.584 A 1.39 1.39 0 0 0 19.314 2.575 A 1.106 1.106 0 0 0 18.792 2.698 A 1.14 1.14 0 0 0 18.488 2.933 A 1.417 1.417 0 0 0 18.211 3.379 Q 18.138 3.563 18.098 3.785 A 2.741 2.741 0 0 0 18.075 3.938 Z M 65.263 3.938 L 67.645 3.938 L 67.645 3.876 Q 67.619 3.417 67.448 3.111 A 1.13 1.13 0 0 0 67.311 2.916 A 0.983 0.983 0 0 0 66.657 2.584 A 1.39 1.39 0 0 0 66.503 2.575 A 1.106 1.106 0 0 0 65.98 2.698 A 1.14 1.14 0 0 0 65.676 2.933 A 1.417 1.417 0 0 0 65.4 3.379 Q 65.326 3.563 65.286 3.785 A 2.741 2.741 0 0 0 65.263 3.938 Z M 109.169 0.734 Q 109.169 0.536 109.29 0.4 Q 109.402 0.274 109.614 0.264 A 0.783 0.783 0 0 1 109.648 0.264 Q 109.885 0.264 110.008 0.4 A 0.474 0.474 0 0 1 110.131 0.703 A 0.614 0.614 0 0 1 110.131 0.734 A 0.523 0.523 0 0 1 110.106 0.9 A 0.442 0.442 0 0 1 110.008 1.063 Q 109.896 1.184 109.688 1.194 A 0.803 0.803 0 0 1 109.648 1.195 Q 109.476 1.195 109.365 1.126 A 0.362 0.362 0 0 1 109.29 1.063 A 0.456 0.456 0 0 1 109.171 0.788 A 0.605 0.605 0 0 1 109.169 0.734 Z" vector-effect="non-scaling-stroke"/></g>
</svgversion="1.0" encoding="UTF-8"?>
<svg width="48px" height="48px" viewBox="0 0 48 48" version="1.1" xmlns="http://www.w3.org/2000/svg" xmlns:xlink="http://www.w3.org/1999/xlink">
    <title>Icon-Resource/Managment-Governance/Res_AWS-System-Manager_Automation_48_Dark</title>
    <g id="Icon-Resource/Managment-Governance/Res_AWS-System-Manager_Automation_48" stroke="none" stroke-width="1" fill="none" fill-rule="evenodd">
        <path transform="translate(12.000000, 8.000000), scale(.65)" d="M36.1575,15.6748 L37.9405,16.5808 L34.9715,22.4158 C34.7965,22.7618 34.4455,22.9628 34.0795,22.9628 C33.9435,22.9628 33.8045,22.9348 33.6735,22.8758 L27.4805,20.1118 L28.2955,18.2848 L32.1665,20.0128 C30.6755,16.9678 27.5405,14.9228 24.0335,14.9228 C19.7535,14.9228 16.0235,17.9678 15.1655,22.1628 L13.2065,21.7628 C14.2545,16.6408 18.8075,12.9228 24.0335,12.9228 C28.4855,12.9228 32.4405,15.6248 34.1655,19.5908 L36.1575,15.6748 Z M32.9025,25.7818 L34.8615,26.1828 C33.8165,31.3038 29.2625,35.0218 24.0345,35.0218 C19.9175,35.0218 16.2675,32.7818 14.3675,29.3268 L13.6235,32.8868 L11.6665,32.4768 L13.0065,26.0688 C13.1155,25.5478 13.6265,25.2118 14.1385,25.2848 L20.8385,26.3338 L20.5295,28.3108 L15.7215,27.5578 C17.1235,30.8378 20.3525,33.0218 24.0345,33.0218 C28.3165,33.0218 32.0465,29.9768 32.9025,25.7818 L32.9025,25.7818 Z M43.9455,27.0818 L41.5225,26.9448 C41.0565,26.9208 40.5975,27.2438 40.4905,27.7228 C40.0675,29.5958 39.3325,31.3708 38.3035,33.0018 C38.0435,33.4148 38.1195,33.9558 38.4835,34.2808 L40.2945,35.8968 L35.8975,40.2938 L34.2875,38.4888 C33.9615,38.1238 33.4185,38.0498 33.0075,38.3098 C31.3805,39.3388 29.6015,40.0748 27.7215,40.4998 C27.2455,40.6088 26.9165,41.0448 26.9445,41.5318 L27.0825,43.9448 L20.8635,43.9448 L21.0015,41.5298 C21.0295,41.0428 20.7005,40.6068 20.2235,40.4978 C18.3505,40.0738 16.5735,39.3368 14.9405,38.3068 C14.5285,38.0468 13.9855,38.1218 13.6615,38.4868 L12.0495,40.2938 L7.6515,35.8968 L9.4585,34.2848 C9.8225,33.9598 9.8985,33.4188 9.6375,33.0058 C8.6115,31.3788 7.8765,29.6018 7.4525,27.7228 C7.3445,27.2438 6.8815,26.9208 6.4205,26.9448 L4.0005,27.0818 L4.0005,20.8628 L6.4275,21.0008 C6.9045,21.0238 7.3495,20.6998 7.4595,20.2248 C7.8835,18.3538 8.6205,16.5798 9.6485,14.9508 C9.9095,14.5378 9.8335,13.9958 9.4695,13.6708 L7.6505,12.0488 L12.0495,7.6508 L13.6705,9.4678 C13.9945,9.8318 14.5375,9.9058 14.9495,9.6478 C16.5755,8.6218 18.3495,7.8878 20.2225,7.4648 C20.7005,7.3578 21.0295,6.9208 21.0015,6.4328 L20.8635,3.9998 L27.0825,3.9998 L26.9445,6.4348 C26.9165,6.9228 27.2455,7.3588 27.7215,7.4668 C29.5925,7.8898 31.3655,8.6238 32.9935,9.6518 C33.4035,9.9098 33.9465,9.8348 34.2725,9.4718 L35.8965,7.6518 L40.2945,12.0478 L38.4795,13.6668 C38.1155,13.9918 38.0395,14.5338 38.3005,14.9468 C39.3285,16.5738 40.0645,18.3498 40.4885,20.2238 C40.5955,20.6998 41.0565,21.0238 41.5205,21.0008 L43.9455,20.8628 L43.9455,27.0818 Z M45.6325,19.0778 C45.4325,18.8898 45.1575,18.7888 44.8885,18.8068 L42.2335,18.9568 C41.8165,17.4368 41.2125,15.9798 40.4285,14.6088 L42.4165,12.8358 C42.6215,12.6538 42.7425,12.3938 42.7505,12.1178 C42.7585,11.8438 42.6515,11.5768 42.4575,11.3828 L36.5625,5.4878 C36.3685,5.2938 36.0905,5.2018 35.8275,5.1958 C35.5525,5.2028 35.2925,5.3238 35.1095,5.5288 L33.3315,7.5228 C31.9605,6.7408 30.5055,6.1378 28.9875,5.7218 L29.1385,3.0568 C29.1545,2.7818 29.0565,2.5128 28.8675,2.3138 C28.6785,2.1128 28.4165,1.9998 28.1405,1.9998 L19.8045,1.9998 C19.5295,1.9998 19.2665,2.1128 19.0785,2.3138 C18.8885,2.5128 18.7915,2.7818 18.8065,3.0568 L18.9585,5.7198 C17.4375,6.1348 15.9815,6.7378 14.6115,7.5188 L12.8365,5.5288 C12.6525,5.3238 12.3935,5.2028 12.1185,5.1958 C11.8355,5.2048 11.5775,5.2938 11.3835,5.4878 L5.4885,11.3828 C5.2945,11.5768 5.1875,11.8428 5.1955,12.1178 C5.2035,12.3938 5.3245,12.6528 5.5295,12.8358 L7.5195,14.6128 C6.7365,15.9838 6.1325,17.4398 5.7155,18.9578 L3.0565,18.8068 C2.7885,18.7878 2.5125,18.8898 2.3135,19.0778 C2.1135,19.2668 2.0005,19.5288 2.0005,19.8048 L2.0005,28.1408 C2.0005,28.4158 2.1135,28.6788 2.3135,28.8668 C2.5125,29.0558 2.7895,29.1518 3.0565,29.1388 L5.7075,28.9878 C6.1235,30.5128 6.7275,31.9718 7.5095,33.3438 L5.5295,35.1098 C5.3245,35.2918 5.2035,35.5518 5.1955,35.8268 C5.1875,36.1018 5.2945,36.3678 5.4885,36.5628 L11.3835,42.4568 C11.5775,42.6518 11.8325,42.7418 12.1185,42.7498 C12.3935,42.7418 12.6535,42.6208 12.8365,42.4158 L14.6025,40.4358 C15.9775,41.2198 17.4365,41.8248 18.9575,42.2418 L18.8065,44.8878 C18.7915,45.1618 18.8885,45.4308 19.0785,45.6308 C19.2665,45.8308 19.5295,45.9448 19.8045,45.9448 L28.1405,45.9448 C28.4165,45.9448 28.6785,45.8308 28.8675,45.6308 C29.0565,45.4308 29.1545,45.1618 29.1385,44.8878 L28.9885,42.2448 C30.5135,41.8268 31.9735,41.2228 33.3455,40.4388 L35.1095,42.4158 C35.2925,42.6208 35.5525,42.7418 35.8275,42.7498 C36.0935,42.7448 36.3685,42.6518 36.5625,42.4568 L42.4575,36.5628 C42.6515,36.3678 42.7585,36.1018 42.7505,35.8268 C42.7425,35.5518 42.6215,35.2918 42.4165,35.1098 L40.4325,33.3398 C41.2165,31.9668 41.8195,30.5088 42.2355,28.9878 L44.8885,29.1388 C45.1565,29.1508 45.4325,29.0558 45.6325,28.8668 C45.8325,28.6788 45.9455,28.4158 45.9455,28.1408 L45.9455,19.8048 C45.9455,19.5288 45.8325,19.2668 45.6325,19.0778 L45.6325,19.0778 Z" id="AWS-System-Manager_automation_Resource-Icon_light-bg" fill="#000000"></path>
    </g><g transform="translate(25, 83)" id="svgGroup" stroke-linecap="round" fill-rule="evenodd" font-size="9pt" stroke="#000" stroke-width="0.25mm" fill="#000" style="stroke:#000;stroke-width:0.25mm;fill:#000"><path d="M 23.12 0.088 L 24.13 4.469 L 24.253 5.313 L 24.434 4.553 L 25.699 0.088 L 26.411 0.088 L 27.646 4.553 L 27.822 5.326 L 27.958 4.465 L 28.951 0.088 L 29.799 0.088 L 28.248 6.486 L 27.479 6.486 L 26.161 1.824 L 26.06 1.336 L 25.958 1.824 L 24.592 6.486 L 23.823 6.486 L 22.276 0.088 L 23.12 0.088 Z M 34.98 1.938 L 34.132 1.938 A 1.466 1.466 0 0 0 34.083 1.546 A 1.066 1.066 0 0 0 33.763 1.026 A 1.211 1.211 0 0 0 33.294 0.77 Q 33.042 0.694 32.722 0.694 A 2.286 2.286 0 0 0 32.342 0.724 Q 32.14 0.758 31.977 0.831 A 1.101 1.101 0 0 0 31.748 0.969 A 0.892 0.892 0 0 0 31.403 1.624 A 1.267 1.267 0 0 0 31.399 1.732 A 0.806 0.806 0 0 0 31.667 2.337 A 1.134 1.134 0 0 0 31.731 2.393 A 1.562 1.562 0 0 0 31.969 2.549 Q 32.299 2.73 32.86 2.887 A 8.228 8.228 0 0 1 33.325 3.032 Q 33.56 3.113 33.754 3.2 A 3.297 3.297 0 0 1 34.108 3.382 A 2.342 2.342 0 0 1 34.447 3.626 Q 34.637 3.792 34.759 3.985 A 1.45 1.45 0 0 1 34.776 4.012 A 1.498 1.498 0 0 1 34.972 4.568 A 1.948 1.948 0 0 1 34.994 4.86 A 1.606 1.606 0 0 1 34.871 5.497 Q 34.726 5.838 34.408 6.09 A 1.886 1.886 0 0 1 34.387 6.106 Q 33.781 6.574 32.766 6.574 A 3.023 3.023 0 0 1 31.625 6.36 A 2.917 2.917 0 0 1 31.535 6.322 A 2.383 2.383 0 0 1 31.057 6.044 A 1.874 1.874 0 0 1 30.654 5.629 A 1.689 1.689 0 0 1 30.344 4.632 L 31.192 4.632 A 1.261 1.261 0 0 0 31.262 5.059 A 1.074 1.074 0 0 0 31.621 5.548 Q 32.005 5.85 32.622 5.881 A 2.87 2.87 0 0 0 32.766 5.884 A 2.628 2.628 0 0 0 33.153 5.858 Q 33.349 5.828 33.508 5.767 A 1.129 1.129 0 0 0 33.79 5.612 Q 34.146 5.339 34.146 4.869 A 1.074 1.074 0 0 0 34.103 4.559 A 0.816 0.816 0 0 0 33.816 4.142 Q 33.486 3.885 32.621 3.634 Q 31.535 3.322 31.041 2.868 Q 30.546 2.413 30.546 1.745 Q 30.546 0.989 31.151 0.494 A 2.121 2.121 0 0 1 32.041 0.071 A 3.087 3.087 0 0 1 32.722 0 A 2.913 2.913 0 0 1 33.382 0.072 A 2.372 2.372 0 0 1 33.897 0.255 A 2.051 2.051 0 0 1 34.428 0.626 A 1.834 1.834 0 0 1 34.697 0.958 A 1.798 1.798 0 0 1 34.98 1.938 Z M 3.74 6.486 L 2.351 3.898 L 0.848 3.898 L 0.848 6.486 L 0 6.486 L 0 0.088 L 2.118 0.088 A 3.809 3.809 0 0 1 2.76 0.138 Q 3.102 0.197 3.376 0.324 A 1.789 1.789 0 0 1 3.781 0.58 A 1.588 1.588 0 0 1 4.307 1.469 A 2.453 2.453 0 0 1 4.364 2.013 A 1.864 1.864 0 0 1 4.273 2.604 A 1.64 1.64 0 0 1 4.041 3.054 A 1.849 1.849 0 0 1 3.382 3.611 A 2.342 2.342 0 0 1 3.142 3.718 L 4.645 6.434 L 4.645 6.486 L 3.74 6.486 Z M 13.724 3.129 L 12.907 3.129 Q 12.907 2.795 12.623 2.553 Q 12.34 2.312 11.909 2.312 Q 11.465 2.312 11.215 2.505 A 0.653 0.653 0 0 0 11.04 2.704 Q 10.967 2.835 10.964 3 A 0.771 0.771 0 0 0 10.964 3.01 A 0.588 0.588 0 0 0 10.994 3.203 A 0.48 0.48 0 0 0 11.197 3.454 A 1.093 1.093 0 0 0 11.348 3.533 Q 11.512 3.605 11.767 3.673 A 6.581 6.581 0 0 0 12.039 3.74 A 6.318 6.318 0 0 1 12.446 3.845 Q 12.783 3.944 13.025 4.065 A 1.901 1.901 0 0 1 13.281 4.218 Q 13.418 4.315 13.516 4.429 A 1.06 1.06 0 0 1 13.586 4.52 A 1.024 1.024 0 0 1 13.748 4.927 A 1.388 1.388 0 0 1 13.768 5.168 Q 13.768 5.805 13.258 6.19 Q 12.776 6.554 12.022 6.573 A 3.337 3.337 0 0 1 11.936 6.574 A 2.746 2.746 0 0 1 11.401 6.525 A 2.124 2.124 0 0 1 10.925 6.372 A 1.771 1.771 0 0 1 10.491 6.094 A 1.54 1.54 0 0 1 10.237 5.807 Q 9.989 5.445 9.989 5.023 L 10.802 5.023 A 0.932 0.932 0 0 0 10.875 5.348 A 0.827 0.827 0 0 0 11.129 5.671 A 1.072 1.072 0 0 0 11.531 5.864 Q 11.686 5.903 11.867 5.91 A 2.013 2.013 0 0 0 11.936 5.911 A 1.863 1.863 0 0 0 12.231 5.889 Q 12.393 5.863 12.524 5.806 A 0.941 0.941 0 0 0 12.676 5.724 A 0.689 0.689 0 0 0 12.841 5.574 A 0.554 0.554 0 0 0 12.955 5.225 A 0.698 0.698 0 0 0 12.919 4.994 A 0.581 0.581 0 0 0 12.707 4.713 A 1.05 1.05 0 0 0 12.538 4.615 Q 12.349 4.524 12.054 4.449 A 5.392 5.392 0 0 0 11.841 4.399 A 6.342 6.342 0 0 1 11.48 4.311 Q 11.11 4.209 10.861 4.083 Q 10.562 3.93 10.392 3.731 A 1.017 1.017 0 0 1 10.325 3.643 Q 10.151 3.388 10.151 3.037 A 1.206 1.206 0 0 1 10.55 2.132 A 1.694 1.694 0 0 1 10.646 2.048 A 1.752 1.752 0 0 1 11.429 1.688 A 2.471 2.471 0 0 1 11.909 1.644 A 2.559 2.559 0 0 1 12.473 1.702 A 1.757 1.757 0 0 1 13.221 2.061 Q 13.724 2.479 13.724 3.129 Z M 21.327 6.486 L 20.716 4.816 L 18.035 4.816 L 17.433 6.486 L 16.563 6.486 L 19.006 0.088 L 19.745 0.088 L 22.192 6.486 L 21.327 6.486 Z M 5.212 4.241 L 5.212 4.091 A 3.17 3.17 0 0 1 5.288 3.382 A 2.581 2.581 0 0 1 5.482 2.828 A 2.191 2.191 0 0 1 5.93 2.202 A 2.033 2.033 0 0 1 6.238 1.958 Q 6.724 1.644 7.291 1.644 A 2.254 2.254 0 0 1 7.904 1.723 A 1.639 1.639 0 0 1 8.732 2.254 Q 9.246 2.865 9.246 4.003 L 9.246 4.342 L 6.025 4.342 A 2.111 2.111 0 0 0 6.096 4.85 A 1.516 1.516 0 0 0 6.436 5.478 A 1.282 1.282 0 0 0 7.37 5.909 A 1.652 1.652 0 0 0 7.436 5.911 A 1.763 1.763 0 0 0 7.764 5.882 Q 7.988 5.839 8.165 5.735 A 1.827 1.827 0 0 0 8.674 5.287 A 2.068 2.068 0 0 0 8.688 5.269 L 9.185 5.656 A 1.926 1.926 0 0 1 7.785 6.547 A 2.749 2.749 0 0 1 7.392 6.574 A 2.394 2.394 0 0 1 6.64 6.461 A 1.974 1.974 0 0 1 5.818 5.939 Q 5.212 5.304 5.212 4.241 Z M 0.848 0.782 L 0.848 3.208 L 2.145 3.208 Q 2.685 3.208 3.035 2.968 A 1.174 1.174 0 0 0 3.144 2.883 A 1.069 1.069 0 0 0 3.51 2.146 A 1.486 1.486 0 0 0 3.516 2.013 Q 3.516 1.47 3.22 1.159 A 1 1 0 0 0 3.162 1.103 Q 2.808 0.787 2.14 0.782 L 0.848 0.782 Z M 19.375 1.129 L 18.29 4.122 L 20.465 4.122 L 19.375 1.129 Z M 6.051 3.674 L 8.433 3.674 L 8.433 3.612 Q 8.407 3.153 8.236 2.848 A 1.13 1.13 0 0 0 8.099 2.652 A 0.983 0.983 0 0 0 7.445 2.32 A 1.39 1.39 0 0 0 7.291 2.312 A 1.106 1.106 0 0 0 6.768 2.435 A 1.14 1.14 0 0 0 6.464 2.67 A 1.417 1.417 0 0 0 6.188 3.116 Q 6.114 3.3 6.074 3.522 A 2.741 2.741 0 0 0 6.051 3.674 Z" vector-effect="non-scaling-stroke"/></g><g transform="translate(25, 93)" id="svgGroup" stroke-linecap="round" fill-rule="evenodd" font-size="9pt" stroke="#000" stroke-width="0.25mm" fill="#000" style="stroke:#000;stroke-width:0.25mm;fill:#000"><path d="M 37.094 0.352 L 38.184 0.352 L 40.276 5.572 L 42.368 0.352 L 43.462 0.352 L 43.462 6.75 L 42.618 6.75 L 42.618 4.258 L 42.697 1.569 L 40.597 6.75 L 39.951 6.75 L 37.855 1.582 L 37.938 4.258 L 37.938 6.75 L 37.094 6.75 L 37.094 0.352 Z M 22.206 1.995 L 22.975 1.995 L 22.997 2.522 Q 23.52 1.907 24.407 1.907 A 2.009 2.009 0 0 1 24.918 1.968 A 1.244 1.244 0 0 1 25.765 2.672 A 1.801 1.801 0 0 1 26.383 2.118 A 1.65 1.65 0 0 1 26.912 1.937 A 2.209 2.209 0 0 1 27.281 1.907 A 2.119 2.119 0 0 1 27.926 1.997 Q 28.852 2.292 28.872 3.564 L 28.872 6.75 L 28.059 6.75 L 28.059 3.612 A 1.781 1.781 0 0 0 28.039 3.332 Q 28.015 3.185 27.965 3.067 A 0.758 0.758 0 0 0 27.826 2.85 A 0.68 0.68 0 0 0 27.573 2.682 Q 27.362 2.597 27.045 2.597 A 1.245 1.245 0 0 0 26.679 2.648 A 1.008 1.008 0 0 0 26.293 2.867 A 1.042 1.042 0 0 0 25.979 3.404 A 1.41 1.41 0 0 0 25.945 3.595 L 25.945 6.75 L 25.128 6.75 L 25.128 3.634 A 1.532 1.532 0 0 0 25.08 3.23 Q 24.953 2.768 24.495 2.643 A 1.457 1.457 0 0 0 24.113 2.597 Q 23.339 2.597 23.039 3.234 A 1.459 1.459 0 0 0 23.019 3.278 L 23.019 6.75 L 22.206 6.75 L 22.206 1.995 Z M 93.437 1.995 L 94.206 1.995 L 94.228 2.522 Q 94.751 1.907 95.638 1.907 A 2.009 2.009 0 0 1 96.149 1.968 A 1.244 1.244 0 0 1 96.996 2.672 A 1.801 1.801 0 0 1 97.614 2.118 A 1.65 1.65 0 0 1 98.143 1.937 A 2.209 2.209 0 0 1 98.512 1.907 A 2.119 2.119 0 0 1 99.156 1.997 Q 100.083 2.292 100.103 3.564 L 100.103 6.75 L 99.29 6.75 L 99.29 3.612 A 1.781 1.781 0 0 0 99.27 3.332 Q 99.246 3.185 99.196 3.067 A 0.758 0.758 0 0 0 99.057 2.85 A 0.68 0.68 0 0 0 98.804 2.682 Q 98.593 2.597 98.276 2.597 A 1.245 1.245 0 0 0 97.91 2.648 A 1.008 1.008 0 0 0 97.524 2.867 A 1.042 1.042 0 0 0 97.21 3.404 A 1.41 1.41 0 0 0 97.176 3.595 L 97.176 6.75 L 96.359 6.75 L 96.359 3.634 A 1.532 1.532 0 0 0 96.31 3.23 Q 96.184 2.768 95.726 2.643 A 1.457 1.457 0 0 0 95.344 2.597 Q 94.57 2.597 94.27 3.234 A 1.459 1.459 0 0 0 94.25 3.278 L 94.25 6.75 L 93.437 6.75 L 93.437 1.995 Z M 4.636 2.202 L 3.788 2.202 A 1.466 1.466 0 0 0 3.738 1.809 A 1.066 1.066 0 0 0 3.419 1.29 A 1.211 1.211 0 0 0 2.95 1.033 Q 2.698 0.958 2.378 0.958 A 2.286 2.286 0 0 0 1.998 0.988 Q 1.796 1.022 1.633 1.095 A 1.101 1.101 0 0 0 1.404 1.233 A 0.892 0.892 0 0 0 1.059 1.887 A 1.267 1.267 0 0 0 1.055 1.995 A 0.806 0.806 0 0 0 1.323 2.6 A 1.134 1.134 0 0 0 1.387 2.656 A 1.562 1.562 0 0 0 1.625 2.813 Q 1.955 2.993 2.516 3.151 A 8.228 8.228 0 0 1 2.981 3.295 Q 3.216 3.377 3.41 3.464 A 3.297 3.297 0 0 1 3.764 3.645 A 2.342 2.342 0 0 1 4.103 3.889 Q 4.293 4.056 4.415 4.248 A 1.45 1.45 0 0 1 4.432 4.276 A 1.498 1.498 0 0 1 4.628 4.832 A 1.948 1.948 0 0 1 4.65 5.124 A 1.606 1.606 0 0 1 4.527 5.76 Q 4.382 6.101 4.064 6.354 A 1.886 1.886 0 0 1 4.043 6.37 Q 3.437 6.838 2.422 6.838 A 3.023 3.023 0 0 1 1.281 6.623 A 2.917 2.917 0 0 1 1.191 6.585 A 2.383 2.383 0 0 1 0.713 6.307 A 1.874 1.874 0 0 1 0.31 5.893 A 1.689 1.689 0 0 1 0 4.896 L 0.848 4.896 A 1.261 1.261 0 0 0 0.918 5.323 A 1.074 1.074 0 0 0 1.277 5.812 Q 1.661 6.113 2.278 6.144 A 2.87 2.87 0 0 0 2.422 6.148 A 2.628 2.628 0 0 0 2.809 6.121 Q 3.005 6.092 3.164 6.031 A 1.129 1.129 0 0 0 3.445 5.875 Q 3.801 5.603 3.801 5.133 A 1.074 1.074 0 0 0 3.759 4.822 A 0.816 0.816 0 0 0 3.472 4.406 Q 3.142 4.148 2.277 3.898 Q 1.191 3.586 0.697 3.131 Q 0.202 2.676 0.202 2.008 Q 0.202 1.252 0.807 0.758 A 2.121 2.121 0 0 1 1.697 0.335 A 3.087 3.087 0 0 1 2.378 0.264 A 2.913 2.913 0 0 1 3.038 0.336 A 2.372 2.372 0 0 1 3.553 0.519 A 2.051 2.051 0 0 1 4.084 0.889 A 1.834 1.834 0 0 1 4.353 1.222 A 1.798 1.798 0 0 1 4.636 2.202 Z M 152.838 6.75 L 151.181 4.548 L 150.671 5.08 L 150.671 6.75 L 149.858 6.75 L 149.858 0 L 150.671 0 L 150.671 4.083 L 151.106 3.56 L 152.587 1.995 L 153.576 1.995 L 151.726 3.981 L 153.791 6.75 L 152.838 6.75 Z M 62.622 2.522 L 62.662 1.995 L 63.404 1.995 L 63.404 6.636 A 2.511 2.511 0 0 1 63.334 7.249 A 1.738 1.738 0 0 1 62.857 8.09 A 1.834 1.834 0 0 1 61.927 8.57 A 2.671 2.671 0 0 1 61.387 8.622 A 2.446 2.446 0 0 1 60.381 8.402 A 2.003 2.003 0 0 1 59.971 8.161 A 1.563 1.563 0 0 1 59.63 7.8 L 60.051 7.313 A 1.889 1.889 0 0 0 60.486 7.712 A 1.514 1.514 0 0 0 61.33 7.958 A 1.695 1.695 0 0 0 61.707 7.919 Q 61.976 7.858 62.17 7.702 A 1.037 1.037 0 0 0 62.255 7.625 A 1.09 1.09 0 0 0 62.532 7.132 Q 62.579 6.959 62.586 6.752 A 2.134 2.134 0 0 0 62.587 6.684 L 62.587 6.275 A 1.601 1.601 0 0 1 61.535 6.821 A 2.279 2.279 0 0 1 61.256 6.838 A 1.672 1.672 0 0 1 60.5 6.67 Q 60.178 6.51 59.929 6.197 A 2.14 2.14 0 0 1 59.904 6.166 A 2.316 2.316 0 0 1 59.521 5.386 Q 59.388 4.922 59.388 4.333 Q 59.388 3.472 59.696 2.884 A 2.096 2.096 0 0 1 59.902 2.564 Q 60.416 1.907 61.264 1.907 A 1.971 1.971 0 0 1 61.863 1.994 A 1.55 1.55 0 0 1 62.622 2.522 Z M 13.399 3.393 L 12.582 3.393 Q 12.582 3.059 12.298 2.817 Q 12.015 2.575 11.584 2.575 Q 11.14 2.575 10.89 2.769 A 0.653 0.653 0 0 0 10.715 2.967 Q 10.642 3.098 10.639 3.263 A 0.771 0.771 0 0 0 10.639 3.274 A 0.588 0.588 0 0 0 10.669 3.467 A 0.48 0.48 0 0 0 10.872 3.718 A 1.093 1.093 0 0 0 11.022 3.796 Q 11.187 3.868 11.442 3.937 A 6.581 6.581 0 0 0 11.714 4.003 A 6.318 6.318 0 0 1 12.121 4.108 Q 12.458 4.208 12.7 4.329 A 1.901 1.901 0 0 1 12.956 4.481 Q 13.093 4.579 13.19 4.692 A 1.06 1.06 0 0 1 13.261 4.783 A 1.024 1.024 0 0 1 13.423 5.191 A 1.388 1.388 0 0 1 13.443 5.432 Q 13.443 6.069 12.933 6.453 Q 12.451 6.817 11.697 6.837 A 3.337 3.337 0 0 1 11.61 6.838 A 2.746 2.746 0 0 1 11.076 6.788 A 2.124 2.124 0 0 1 10.6 6.636 A 1.771 1.771 0 0 1 10.166 6.358 A 1.54 1.54 0 0 1 9.912 6.071 Q 9.664 5.708 9.664 5.287 L 10.477 5.287 A 0.932 0.932 0 0 0 10.55 5.612 A 0.827 0.827 0 0 0 10.804 5.935 A 1.072 1.072 0 0 0 11.206 6.128 Q 11.361 6.167 11.542 6.173 A 2.013 2.013 0 0 0 11.61 6.174 A 1.863 1.863 0 0 0 11.906 6.152 Q 12.068 6.126 12.199 6.07 A 0.941 0.941 0 0 0 12.351 5.988 A 0.689 0.689 0 0 0 12.516 5.837 A 0.554 0.554 0 0 0 12.63 5.489 A 0.698 0.698 0 0 0 12.594 5.258 A 0.581 0.581 0 0 0 12.382 4.977 A 1.05 1.05 0 0 0 12.213 4.878 Q 12.024 4.788 11.729 4.712 A 5.392 5.392 0 0 0 11.516 4.663 A 6.342 6.342 0 0 1 11.155 4.575 Q 10.785 4.473 10.536 4.346 Q 10.237 4.194 10.067 3.994 A 1.017 1.017 0 0 1 10 3.907 Q 9.826 3.652 9.826 3.3 A 1.206 1.206 0 0 1 10.225 2.396 A 1.694 1.694 0 0 1 10.321 2.312 A 1.752 1.752 0 0 1 11.104 1.952 A 2.471 2.471 0 0 1 11.584 1.907 A 2.559 2.559 0 0 1 12.148 1.966 A 1.757 1.757 0 0 1 12.896 2.325 Q 13.399 2.742 13.399 3.393 Z M 33.636 3.393 L 32.819 3.393 Q 32.819 3.059 32.535 2.817 Q 32.252 2.575 31.821 2.575 Q 31.377 2.575 31.127 2.769 A 0.653 0.653 0 0 0 30.952 2.967 Q 30.878 3.098 30.876 3.263 A 0.771 0.771 0 0 0 30.876 3.274 A 0.588 0.588 0 0 0 30.906 3.467 A 0.48 0.48 0 0 0 31.109 3.718 A 1.093 1.093 0 0 0 31.259 3.796 Q 31.423 3.868 31.679 3.937 A 6.581 6.581 0 0 0 31.951 4.003 A 6.318 6.318 0 0 1 32.358 4.108 Q 32.695 4.208 32.937 4.329 A 1.901 1.901 0 0 1 33.193 4.481 Q 33.33 4.579 33.427 4.692 A 1.06 1.06 0 0 1 33.497 4.783 A 1.024 1.024 0 0 1 33.66 5.191 A 1.388 1.388 0 0 1 33.68 5.432 Q 33.68 6.069 33.17 6.453 Q 32.688 6.817 31.934 6.837 A 3.337 3.337 0 0 1 31.847 6.838 A 2.746 2.746 0 0 1 31.313 6.788 A 2.124 2.124 0 0 1 30.837 6.636 A 1.771 1.771 0 0 1 30.403 6.358 A 1.54 1.54 0 0 1 30.149 6.071 Q 29.901 5.708 29.901 5.287 L 30.714 5.287 A 0.932 0.932 0 0 0 30.787 5.612 A 0.827 0.827 0 0 0 31.041 5.935 A 1.072 1.072 0 0 0 31.443 6.128 Q 31.598 6.167 31.779 6.173 A 2.013 2.013 0 0 0 31.847 6.174 A 1.863 1.863 0 0 0 32.143 6.152 Q 32.304 6.126 32.436 6.07 A 0.941 0.941 0 0 0 32.588 5.988 A 0.689 0.689 0 0 0 32.752 5.837 A 0.554 0.554 0 0 0 32.867 5.489 A 0.698 0.698 0 0 0 32.83 5.258 A 0.581 0.581 0 0 0 32.619 4.977 A 1.05 1.05 0 0 0 32.45 4.878 Q 32.261 4.788 31.966 4.712 A 5.392 5.392 0 0 0 31.753 4.663 A 6.342 6.342 0 0 1 31.392 4.575 Q 31.022 4.473 30.773 4.346 Q 30.474 4.194 30.304 3.994 A 1.017 1.017 0 0 1 30.237 3.907 Q 30.063 3.652 30.063 3.3 A 1.206 1.206 0 0 1 30.462 2.396 A 1.694 1.694 0 0 1 30.558 2.312 A 1.752 1.752 0 0 1 31.341 1.952 A 2.471 2.471 0 0 1 31.821 1.907 A 2.559 2.559 0 0 1 32.384 1.966 A 1.757 1.757 0 0 1 33.133 2.325 Q 33.636 2.742 33.636 3.393 Z M 5.972 1.995 L 7.159 5.559 L 8.266 1.995 L 9.136 1.995 L 7.225 7.484 Q 6.781 8.67 5.814 8.67 L 5.66 8.657 L 5.357 8.6 L 5.357 7.941 L 5.577 7.958 Q 5.857 7.958 6.053 7.882 A 0.75 0.75 0 0 0 6.221 7.792 A 0.749 0.749 0 0 0 6.381 7.629 Q 6.499 7.47 6.589 7.215 A 2.575 2.575 0 0 0 6.601 7.181 L 6.781 6.697 L 5.085 1.995 L 5.972 1.995 Z M 49.72 1.995 L 50.489 1.995 L 50.515 2.593 Q 51.052 1.918 51.912 1.907 A 2.234 2.234 0 0 1 51.939 1.907 A 1.905 1.905 0 0 1 52.573 2.004 Q 53.414 2.3 53.457 3.506 A 3.668 3.668 0 0 1 53.46 3.608 L 53.46 6.75 L 52.647 6.75 L 52.647 3.604 A 1.837 1.837 0 0 0 52.624 3.324 Q 52.574 3.017 52.412 2.843 Q 52.225 2.645 51.872 2.606 A 1.66 1.66 0 0 0 51.693 2.597 A 1.253 1.253 0 0 0 51.279 2.664 A 1.123 1.123 0 0 0 50.999 2.808 A 1.432 1.432 0 0 0 50.533 3.362 L 50.533 6.75 L 49.72 6.75 L 49.72 1.995 Z M 116.482 1.995 L 117.251 1.995 L 117.277 2.593 Q 117.813 1.918 118.673 1.907 A 2.234 2.234 0 0 1 118.701 1.907 A 1.905 1.905 0 0 1 119.334 2.004 Q 120.176 2.3 120.219 3.506 A 3.668 3.668 0 0 1 120.221 3.608 L 120.221 6.75 L 119.408 6.75 L 119.408 3.604 A 1.837 1.837 0 0 0 119.386 3.324 Q 119.336 3.017 119.173 2.843 Q 118.987 2.645 118.634 2.606 A 1.66 1.66 0 0 0 118.455 2.597 A 1.253 1.253 0 0 0 118.04 2.664 A 1.123 1.123 0 0 0 117.76 2.808 A 1.432 1.432 0 0 0 117.295 3.362 L 117.295 6.75 L 116.482 6.75 L 116.482 1.995 Z M 83.448 6.75 L 83.43 6.28 A 1.526 1.526 0 0 1 82.604 6.775 Q 82.354 6.836 82.056 6.838 A 2.996 2.996 0 0 1 82.037 6.838 A 2.086 2.086 0 0 1 81.577 6.79 Q 81.147 6.693 80.879 6.396 A 1.41 1.41 0 0 1 80.596 5.899 Q 80.48 5.556 80.477 5.089 L 80.477 1.995 L 81.29 1.995 L 81.29 5.067 Q 81.29 6.037 81.998 6.137 A 1.229 1.229 0 0 0 82.169 6.148 A 1.927 1.927 0 0 0 82.62 6.099 Q 83.182 5.964 83.408 5.454 L 83.408 1.995 L 84.221 1.995 L 84.221 6.75 L 83.448 6.75 Z M 78.944 6.75 L 78.333 5.08 L 75.652 5.08 L 75.05 6.75 L 74.18 6.75 L 76.623 0.352 L 77.361 0.352 L 79.809 6.75 L 78.944 6.75 Z M 48.612 6.75 L 47.76 6.75 A 0.632 0.632 0 0 1 47.724 6.66 Q 47.693 6.562 47.668 6.41 A 3.997 3.997 0 0 1 47.646 6.249 Q 47.079 6.838 46.292 6.838 A 2.033 2.033 0 0 1 45.763 6.772 A 1.529 1.529 0 0 1 45.139 6.44 Q 44.688 6.042 44.688 5.432 Q 44.688 4.689 45.253 4.278 Q 45.818 3.867 46.841 3.867 L 47.632 3.867 L 47.632 3.494 A 1.152 1.152 0 0 0 47.597 3.199 A 0.828 0.828 0 0 0 47.378 2.815 Q 47.161 2.6 46.771 2.568 A 1.748 1.748 0 0 0 46.626 2.562 Q 46.191 2.562 45.897 2.782 Q 45.602 3.001 45.602 3.313 L 44.785 3.313 A 1.041 1.041 0 0 1 44.91 2.825 A 1.409 1.409 0 0 1 45.038 2.626 Q 45.29 2.294 45.723 2.101 A 2.249 2.249 0 0 1 46.499 1.913 A 2.669 2.669 0 0 1 46.674 1.907 A 2.65 2.65 0 0 1 47.192 1.955 Q 47.499 2.016 47.738 2.156 A 1.439 1.439 0 0 1 47.962 2.318 A 1.396 1.396 0 0 1 48.415 3.144 A 1.998 1.998 0 0 1 48.445 3.45 L 48.445 5.638 Q 48.445 6.073 48.519 6.39 A 1.707 1.707 0 0 0 48.612 6.68 L 48.612 6.75 Z M 58.474 6.75 L 57.621 6.75 A 0.632 0.632 0 0 1 57.586 6.66 Q 57.555 6.562 57.53 6.41 A 3.997 3.997 0 0 1 57.507 6.249 Q 56.94 6.838 56.153 6.838 A 2.033 2.033 0 0 1 55.624 6.772 A 1.529 1.529 0 0 1 55 6.44 Q 54.549 6.042 54.549 5.432 Q 54.549 4.689 55.114 4.278 Q 55.679 3.867 56.703 3.867 L 57.494 3.867 L 57.494 3.494 A 1.152 1.152 0 0 0 57.458 3.199 A 0.828 0.828 0 0 0 57.239 2.815 Q 57.023 2.6 56.632 2.568 A 1.748 1.748 0 0 0 56.487 2.562 Q 56.052 2.562 55.758 2.782 Q 55.464 3.001 55.464 3.313 L 54.646 3.313 A 1.041 1.041 0 0 1 54.771 2.825 A 1.409 1.409 0 0 1 54.899 2.626 Q 55.152 2.294 55.584 2.101 A 2.249 2.249 0 0 1 56.36 1.913 A 2.669 2.669 0 0 1 56.536 1.907 A 2.65 2.65 0 0 1 57.053 1.955 Q 57.36 2.016 57.599 2.156 A 1.439 1.439 0 0 1 57.823 2.318 A 1.396 1.396 0 0 1 58.277 3.144 A 1.998 1.998 0 0 1 58.307 3.45 L 58.307 5.638 Q 58.307 6.073 58.38 6.39 A 1.707 1.707 0 0 0 58.474 6.68 L 58.474 6.75 Z M 105.117 6.75 L 104.265 6.75 A 0.632 0.632 0 0 1 104.229 6.66 Q 104.198 6.562 104.173 6.41 A 3.997 3.997 0 0 1 104.151 6.249 Q 103.584 6.838 102.797 6.838 A 2.033 2.033 0 0 1 102.268 6.772 A 1.529 1.529 0 0 1 101.643 6.44 Q 101.193 6.042 101.193 5.432 Q 101.193 4.689 101.758 4.278 Q 102.322 3.867 103.346 3.867 L 104.137 3.867 L 104.137 3.494 A 1.152 1.152 0 0 0 104.102 3.199 A 0.828 0.828 0 0 0 103.882 2.815 Q 103.666 2.6 103.276 2.568 A 1.748 1.748 0 0 0 103.131 2.562 Q 102.696 2.562 102.402 2.782 Q 102.107 3.001 102.107 3.313 L 101.29 3.313 A 1.041 1.041 0 0 1 101.415 2.825 A 1.409 1.409 0 0 1 101.542 2.626 Q 101.795 2.294 102.228 2.101 A 2.249 2.249 0 0 1 103.004 1.913 A 2.669 2.669 0 0 1 103.179 1.907 A 2.65 2.65 0 0 1 103.697 1.955 Q 104.004 2.016 104.243 2.156 A 1.439 1.439 0 0 1 104.467 2.318 A 1.396 1.396 0 0 1 104.92 3.144 A 1.998 1.998 0 0 1 104.95 3.45 L 104.95 5.638 Q 104.95 6.073 105.024 6.39 A 1.707 1.707 0 0 0 105.117 6.68 L 105.117 6.75 Z M 145.701 6.75 L 144.848 6.75 A 0.632 0.632 0 0 1 144.813 6.66 Q 144.782 6.562 144.757 6.41 A 3.997 3.997 0 0 1 144.734 6.249 Q 144.167 6.838 143.381 6.838 A 2.033 2.033 0 0 1 142.851 6.772 A 1.529 1.529 0 0 1 142.227 6.44 Q 141.777 6.042 141.777 5.432 Q 141.777 4.689 142.341 4.278 Q 142.906 3.867 143.93 3.867 L 144.721 3.867 L 144.721 3.494 A 1.152 1.152 0 0 0 144.685 3.199 A 0.828 0.828 0 0 0 144.466 2.815 Q 144.25 2.6 143.859 2.568 A 1.748 1.748 0 0 0 143.715 2.562 Q 143.279 2.562 142.985 2.782 Q 142.691 3.001 142.691 3.313 L 141.873 3.313 A 1.041 1.041 0 0 1 141.998 2.825 A 1.409 1.409 0 0 1 142.126 2.626 Q 142.379 2.294 142.811 2.101 A 2.249 2.249 0 0 1 143.587 1.913 A 2.669 2.669 0 0 1 143.763 1.907 A 2.65 2.65 0 0 1 144.28 1.955 Q 144.588 2.016 144.826 2.156 A 1.439 1.439 0 0 1 145.05 2.318 A 1.396 1.396 0 0 1 145.504 3.144 A 1.998 1.998 0 0 1 145.534 3.45 L 145.534 5.638 Q 145.534 6.073 145.607 6.39 A 1.707 1.707 0 0 0 145.701 6.68 L 145.701 6.75 Z M 17.235 4.504 L 17.235 4.355 A 3.17 3.17 0 0 1 17.312 3.646 A 2.581 2.581 0 0 1 17.506 3.092 A 2.191 2.191 0 0 1 17.953 2.466 A 2.033 2.033 0 0 1 18.262 2.221 Q 18.747 1.907 19.314 1.907 A 2.254 2.254 0 0 1 19.927 1.986 A 1.639 1.639 0 0 1 20.756 2.518 Q 21.27 3.129 21.27 4.267 L 21.27 4.605 L 18.048 4.605 A 2.111 2.111 0 0 0 18.12 5.114 A 1.516 1.516 0 0 0 18.459 5.741 A 1.282 1.282 0 0 0 19.393 6.173 A 1.652 1.652 0 0 0 19.459 6.174 A 1.763 1.763 0 0 0 19.787 6.145 Q 20.011 6.103 20.189 5.999 A 1.827 1.827 0 0 0 20.697 5.551 A 2.068 2.068 0 0 0 20.712 5.533 L 21.208 5.919 A 1.926 1.926 0 0 1 19.808 6.811 A 2.749 2.749 0 0 1 19.415 6.838 A 2.394 2.394 0 0 1 18.664 6.725 A 1.974 1.974 0 0 1 17.842 6.203 Q 17.235 5.568 17.235 4.504 Z M 64.424 4.504 L 64.424 4.355 A 3.17 3.17 0 0 1 64.5 3.646 A 2.581 2.581 0 0 1 64.694 3.092 A 2.191 2.191 0 0 1 65.142 2.466 A 2.033 2.033 0 0 1 65.45 2.221 Q 65.936 1.907 66.503 1.907 A 2.254 2.254 0 0 1 67.116 1.986 A 1.639 1.639 0 0 1 67.944 2.518 Q 68.458 3.129 68.458 4.267 L 68.458 4.605 L 65.237 4.605 A 2.111 2.111 0 0 0 65.308 5.114 A 1.516 1.516 0 0 0 65.648 5.741 A 1.282 1.282 0 0 0 66.582 6.173 A 1.652 1.652 0 0 0 66.648 6.174 A 1.763 1.763 0 0 0 66.976 6.145 Q 67.2 6.103 67.377 5.999 A 1.827 1.827 0 0 0 67.886 5.551 A 2.068 2.068 0 0 0 67.9 5.533 L 68.397 5.919 A 1.926 1.926 0 0 1 66.997 6.811 A 2.749 2.749 0 0 1 66.604 6.838 A 2.394 2.394 0 0 1 65.852 6.725 A 1.974 1.974 0 0 1 65.03 6.203 Q 64.424 5.568 64.424 4.504 Z M 127.024 0.352 L 127.024 4.601 L 127.912 4.601 L 127.912 5.265 L 127.024 5.265 L 127.024 6.75 L 126.207 6.75 L 126.207 5.265 L 123.293 5.265 L 123.293 4.786 L 126.158 0.352 L 127.024 0.352 Z M 137.909 6.75 L 136.138 6.75 L 136.138 0.352 L 137.944 0.352 Q 138.779 0.352 139.421 0.721 Q 140.063 1.09 140.412 1.771 A 3.19 3.19 0 0 1 140.729 2.8 A 4.073 4.073 0 0 1 140.766 3.335 L 140.766 3.744 Q 140.766 4.649 140.416 5.331 A 2.457 2.457 0 0 1 139.419 6.376 Q 138.771 6.741 137.909 6.75 Z M 132.422 2.592 A 1.544 1.544 0 0 0 132.526 2.021 A 2.226 2.226 0 0 0 132.505 1.707 A 1.566 1.566 0 0 0 132.005 0.738 A 1.754 1.754 0 0 0 131.239 0.333 A 2.443 2.443 0 0 0 130.641 0.264 A 2.539 2.539 0 0 0 130.131 0.312 A 1.767 1.767 0 0 0 129.274 0.738 Q 128.756 1.213 128.756 2.021 A 1.808 1.808 0 0 0 128.756 2.058 A 1.499 1.499 0 0 0 129.002 2.87 A 1.626 1.626 0 0 0 129.164 3.077 A 1.726 1.726 0 0 0 129.674 3.454 A 2.119 2.119 0 0 0 129.574 3.5 A 1.738 1.738 0 0 0 128.89 4.087 A 1.629 1.629 0 0 0 128.606 5.023 A 2.272 2.272 0 0 0 128.616 5.237 A 1.63 1.63 0 0 0 129.162 6.344 A 1.895 1.895 0 0 0 130.013 6.771 A 2.797 2.797 0 0 0 130.641 6.838 A 2.796 2.796 0 0 0 131.24 6.777 A 1.925 1.925 0 0 0 132.115 6.346 A 1.578 1.578 0 0 0 132.59 5.62 A 1.989 1.989 0 0 0 132.675 5.023 A 1.581 1.581 0 0 0 132.383 4.087 Q 132.091 3.674 131.59 3.458 Q 132.021 3.248 132.273 2.874 A 1.449 1.449 0 0 0 132.422 2.592 Z M 14.792 0.844 L 15.605 0.844 L 15.605 1.995 L 16.493 1.995 L 16.493 2.624 L 15.605 2.624 L 15.605 5.572 Q 15.605 5.858 15.724 6.001 Q 15.842 6.144 16.128 6.144 A 1.046 1.046 0 0 0 16.226 6.138 Q 16.328 6.129 16.468 6.101 A 4.024 4.024 0 0 0 16.515 6.091 L 16.515 6.75 A 2.463 2.463 0 0 1 16.082 6.829 A 2.157 2.157 0 0 1 15.891 6.838 Q 15.444 6.838 15.177 6.616 A 0.856 0.856 0 0 1 15.069 6.508 Q 14.842 6.238 14.801 5.78 A 2.351 2.351 0 0 1 14.792 5.572 L 14.792 2.624 L 13.926 2.624 L 13.926 1.995 L 14.792 1.995 L 14.792 0.844 Z M 85.746 0.844 L 86.559 0.844 L 86.559 1.995 L 87.447 1.995 L 87.447 2.624 L 86.559 2.624 L 86.559 5.572 Q 86.559 5.858 86.678 6.001 Q 86.797 6.144 87.082 6.144 A 1.046 1.046 0 0 0 87.18 6.138 Q 87.282 6.129 87.422 6.101 A 4.024 4.024 0 0 0 87.469 6.091 L 87.469 6.75 A 2.463 2.463 0 0 1 87.036 6.829 A 2.157 2.157 0 0 1 86.845 6.838 Q 86.398 6.838 86.131 6.616 A 0.856 0.856 0 0 1 86.023 6.508 Q 85.796 6.238 85.755 5.78 A 2.351 2.351 0 0 1 85.746 5.572 L 85.746 2.624 L 84.881 2.624 L 84.881 1.995 L 85.746 1.995 L 85.746 0.844 Z M 106.515 0.844 L 107.328 0.844 L 107.328 1.995 L 108.215 1.995 L 108.215 2.624 L 107.328 2.624 L 107.328 5.572 Q 107.328 5.858 107.446 6.001 Q 107.565 6.144 107.851 6.144 A 1.046 1.046 0 0 0 107.948 6.138 Q 108.051 6.129 108.191 6.101 A 4.024 4.024 0 0 0 108.237 6.091 L 108.237 6.75 A 2.463 2.463 0 0 1 107.805 6.829 A 2.157 2.157 0 0 1 107.613 6.838 Q 107.166 6.838 106.9 6.616 A 0.856 0.856 0 0 1 106.792 6.508 Q 106.564 6.238 106.524 5.78 A 2.351 2.351 0 0 1 106.515 5.572 L 106.515 2.624 L 105.649 2.624 L 105.649 1.995 L 106.515 1.995 L 106.515 0.844 Z M 88.093 4.386 L 88.093 4.329 A 3.057 3.057 0 0 1 88.18 3.587 A 2.573 2.573 0 0 1 88.368 3.072 A 2.16 2.16 0 0 1 88.782 2.486 A 1.957 1.957 0 0 1 89.132 2.21 A 2.036 2.036 0 0 1 90.077 1.913 A 2.491 2.491 0 0 1 90.251 1.907 A 2.277 2.277 0 0 1 91.004 2.027 A 1.937 1.937 0 0 1 91.822 2.58 A 2.29 2.29 0 0 1 92.341 3.608 A 3.373 3.373 0 0 1 92.422 4.368 L 92.422 4.425 A 3.114 3.114 0 0 1 92.342 5.142 A 2.577 2.577 0 0 1 92.156 5.671 A 2.056 2.056 0 0 1 91.628 6.361 A 2.001 2.001 0 0 1 91.395 6.53 A 2.045 2.045 0 0 1 90.476 6.829 A 2.529 2.529 0 0 1 90.259 6.838 A 2.262 2.262 0 0 1 89.509 6.718 A 1.938 1.938 0 0 1 88.693 6.166 A 2.297 2.297 0 0 1 88.167 5.111 A 3.357 3.357 0 0 1 88.093 4.386 Z M 111.133 4.386 L 111.133 4.329 A 3.057 3.057 0 0 1 111.22 3.587 A 2.573 2.573 0 0 1 111.408 3.072 A 2.16 2.16 0 0 1 111.823 2.486 A 1.957 1.957 0 0 1 112.173 2.21 A 2.036 2.036 0 0 1 113.117 1.913 A 2.491 2.491 0 0 1 113.291 1.907 A 2.277 2.277 0 0 1 114.045 2.027 A 1.937 1.937 0 0 1 114.862 2.58 A 2.29 2.29 0 0 1 115.381 3.608 A 3.373 3.373 0 0 1 115.462 4.368 L 115.462 4.425 A 3.114 3.114 0 0 1 115.383 5.142 A 2.577 2.577 0 0 1 115.196 5.671 A 2.056 2.056 0 0 1 114.669 6.361 A 2.001 2.001 0 0 1 114.436 6.53 A 2.045 2.045 0 0 1 113.516 6.829 A 2.529 2.529 0 0 1 113.3 6.838 A 2.262 2.262 0 0 1 112.55 6.718 A 1.938 1.938 0 0 1 111.733 6.166 A 2.297 2.297 0 0 1 111.208 5.111 A 3.357 3.357 0 0 1 111.133 4.386 Z M 71.697 1.969 L 71.697 2.725 A 2.251 2.251 0 0 0 71.454 2.698 A 2.782 2.782 0 0 0 71.297 2.694 Q 70.519 2.694 70.228 3.338 A 1.445 1.445 0 0 0 70.212 3.375 L 70.212 6.75 L 69.399 6.75 L 69.399 1.995 L 70.19 1.995 L 70.203 2.544 Q 70.583 1.938 71.266 1.909 A 1.636 1.636 0 0 1 71.337 1.907 Q 71.574 1.907 71.697 1.969 Z M 149.107 1.969 L 149.107 2.725 A 2.251 2.251 0 0 0 148.864 2.698 A 2.782 2.782 0 0 0 148.707 2.694 Q 147.929 2.694 147.637 3.338 A 1.445 1.445 0 0 0 147.621 3.375 L 147.621 6.75 L 146.808 6.75 L 146.808 1.995 L 147.599 1.995 L 147.612 2.544 Q 147.993 1.938 148.675 1.909 A 1.636 1.636 0 0 1 148.746 1.907 Q 148.984 1.907 149.107 1.969 Z M 137.966 1.046 L 136.982 1.046 L 136.982 6.06 L 137.87 6.06 A 2.519 2.519 0 0 0 138.502 5.985 A 1.747 1.747 0 0 0 139.388 5.454 Q 139.847 4.94 139.918 4.059 A 4.165 4.165 0 0 0 139.931 3.727 L 139.931 3.353 Q 139.931 2.562 139.661 2.027 A 1.864 1.864 0 0 0 139.419 1.659 A 1.687 1.687 0 0 0 138.423 1.09 A 2.499 2.499 0 0 0 137.966 1.046 Z M 110.048 1.995 L 110.048 6.75 L 109.235 6.75 L 109.235 1.995 L 110.048 1.995 Z M 88.91 4.425 A 2.772 2.772 0 0 0 88.958 4.954 Q 89.018 5.264 89.155 5.51 A 1.545 1.545 0 0 0 89.277 5.695 Q 89.644 6.174 90.259 6.174 A 1.269 1.269 0 0 0 90.749 6.083 Q 91.028 5.967 91.231 5.706 A 1.471 1.471 0 0 0 91.244 5.689 A 1.648 1.648 0 0 0 91.499 5.171 Q 91.567 4.945 91.593 4.672 A 3.655 3.655 0 0 0 91.609 4.329 A 2.687 2.687 0 0 0 91.557 3.789 Q 91.49 3.459 91.332 3.2 A 1.586 1.586 0 0 0 91.237 3.061 A 1.231 1.231 0 0 0 90.822 2.705 Q 90.569 2.575 90.251 2.575 Q 89.661 2.575 89.294 3.035 A 1.515 1.515 0 0 0 89.279 3.054 A 1.589 1.589 0 0 0 89.027 3.552 Q 88.958 3.772 88.93 4.039 A 3.676 3.676 0 0 0 88.91 4.425 Z M 111.951 4.425 A 2.772 2.772 0 0 0 111.998 4.954 Q 112.059 5.264 112.196 5.51 A 1.545 1.545 0 0 0 112.318 5.695 Q 112.685 6.174 113.3 6.174 A 1.269 1.269 0 0 0 113.789 6.083 Q 114.069 5.967 114.271 5.706 A 1.471 1.471 0 0 0 114.284 5.689 A 1.648 1.648 0 0 0 114.539 5.171 Q 114.608 4.945 114.634 4.672 A 3.655 3.655 0 0 0 114.649 4.329 A 2.687 2.687 0 0 0 114.598 3.789 Q 114.53 3.459 114.373 3.2 A 1.586 1.586 0 0 0 114.278 3.061 A 1.231 1.231 0 0 0 113.863 2.705 Q 113.61 2.575 113.291 2.575 Q 112.701 2.575 112.335 3.035 A 1.515 1.515 0 0 0 112.32 3.054 A 1.589 1.589 0 0 0 112.068 3.552 Q 111.998 3.772 111.97 4.039 A 3.676 3.676 0 0 0 111.951 4.425 Z M 62.587 5.449 L 62.587 3.278 A 1.439 1.439 0 0 0 62.286 2.891 Q 61.982 2.62 61.542 2.599 A 1.578 1.578 0 0 0 61.466 2.597 Q 60.875 2.597 60.541 3.056 A 1.51 1.51 0 0 0 60.33 3.484 Q 60.264 3.689 60.233 3.939 A 3.955 3.955 0 0 0 60.205 4.425 Q 60.205 5.229 60.535 5.689 Q 60.864 6.148 61.458 6.148 A 1.32 1.32 0 0 0 61.967 6.054 Q 62.359 5.891 62.587 5.449 Z M 126.11 1.639 L 124.216 4.601 L 126.207 4.601 L 126.207 1.463 L 126.11 1.639 Z M 76.992 1.393 L 75.907 4.386 L 78.082 4.386 L 76.992 1.393 Z M 131.862 5.005 A 1.375 1.375 0 0 0 131.803 4.592 A 1.109 1.109 0 0 0 131.522 4.131 A 1.148 1.148 0 0 0 130.85 3.807 A 1.593 1.593 0 0 0 130.632 3.792 A 1.466 1.466 0 0 0 130.243 3.841 A 1.086 1.086 0 0 0 129.751 4.126 A 1.123 1.123 0 0 0 129.437 4.762 A 1.572 1.572 0 0 0 129.419 5.005 A 1.48 1.48 0 0 0 129.461 5.367 A 1.019 1.019 0 0 0 129.742 5.862 Q 130.048 6.158 130.581 6.173 A 2.053 2.053 0 0 0 130.641 6.174 Q 131.134 6.174 131.444 5.94 A 1.018 1.018 0 0 0 131.537 5.86 A 1.041 1.041 0 0 0 131.837 5.292 A 1.518 1.518 0 0 0 131.862 5.005 Z M 130.641 0.932 A 1.259 1.259 0 0 0 130.288 0.979 A 0.973 0.973 0 0 0 129.865 1.228 Q 129.569 1.525 129.569 2.035 A 1.325 1.325 0 0 0 129.613 2.387 A 0.994 0.994 0 0 0 129.861 2.823 A 0.974 0.974 0 0 0 130.423 3.108 A 1.382 1.382 0 0 0 130.641 3.125 A 1.279 1.279 0 0 0 130.986 3.08 A 0.952 0.952 0 0 0 131.421 2.823 A 1.018 1.018 0 0 0 131.696 2.26 A 1.426 1.426 0 0 0 131.713 2.035 A 1.282 1.282 0 0 0 131.663 1.668 A 1.013 1.013 0 0 0 131.41 1.239 Q 131.107 0.932 130.641 0.932 Z M 47.632 5.418 L 47.632 4.443 L 46.995 4.443 Q 45.501 4.443 45.501 5.317 Q 45.501 5.7 45.756 5.915 A 0.893 0.893 0 0 0 46.169 6.108 A 1.259 1.259 0 0 0 46.411 6.13 A 1.429 1.429 0 0 0 47.136 5.933 A 1.335 1.335 0 0 0 47.431 5.705 A 1.108 1.108 0 0 0 47.632 5.418 Z M 57.494 5.418 L 57.494 4.443 L 56.857 4.443 Q 55.362 4.443 55.362 5.317 Q 55.362 5.7 55.617 5.915 A 0.893 0.893 0 0 0 56.031 6.108 A 1.259 1.259 0 0 0 56.272 6.13 A 1.429 1.429 0 0 0 56.997 5.933 A 1.335 1.335 0 0 0 57.293 5.705 A 1.108 1.108 0 0 0 57.494 5.418 Z M 104.137 5.418 L 104.137 4.443 L 103.5 4.443 Q 102.006 4.443 102.006 5.317 Q 102.006 5.7 102.261 5.915 A 0.893 0.893 0 0 0 102.674 6.108 A 1.259 1.259 0 0 0 102.916 6.13 A 1.429 1.429 0 0 0 103.641 5.933 A 1.335 1.335 0 0 0 103.936 5.705 A 1.108 1.108 0 0 0 104.137 5.418 Z M 144.721 5.418 L 144.721 4.443 L 144.084 4.443 Q 142.59 4.443 142.59 5.317 Q 142.59 5.7 142.844 5.915 A 0.893 0.893 0 0 0 143.258 6.108 A 1.259 1.259 0 0 0 143.499 6.13 A 1.429 1.429 0 0 0 144.224 5.933 A 1.335 1.335 0 0 0 144.52 5.705 A 1.108 1.108 0 0 0 144.721 5.418 Z M 18.075 3.938 L 20.457 3.938 L 20.457 3.876 Q 20.431 3.417 20.26 3.111 A 1.13 1.13 0 0 0 20.123 2.916 A 0.983 0.983 0 0 0 19.468 2.584 A 1.39 1.39 0 0 0 19.314 2.575 A 1.106 1.106 0 0 0 18.792 2.698 A 1.14 1.14 0 0 0 18.488 2.933 A 1.417 1.417 0 0 0 18.211 3.379 Q 18.138 3.563 18.098 3.785 A 2.741 2.741 0 0 0 18.075 3.938 Z M 65.263 3.938 L 67.645 3.938 L 67.645 3.876 Q 67.619 3.417 67.448 3.111 A 1.13 1.13 0 0 0 67.311 2.916 A 0.983 0.983 0 0 0 66.657 2.584 A 1.39 1.39 0 0 0 66.503 2.575 A 1.106 1.106 0 0 0 65.98 2.698 A 1.14 1.14 0 0 0 65.676 2.933 A 1.417 1.417 0 0 0 65.4 3.379 Q 65.326 3.563 65.286 3.785 A 2.741 2.741 0 0 0 65.263 3.938 Z M 109.169 0.734 Q 109.169 0.536 109.29 0.4 Q 109.402 0.274 109.614 0.264 A 0.783 0.783 0 0 1 109.648 0.264 Q 109.885 0.264 110.008 0.4 A 0.474 0.474 0 0 1 110.131 0.703 A 0.614 0.614 0 0 1 110.131 0.734 A 0.523 0.523 0 0 1 110.106 0.9 A 0.442 0.442 0 0 1 110.008 1.063 Q 109.896 1.184 109.688 1.194 A 0.803 0.803 0 0 1 109.648 1.195 Q 109.476 1.195 109.365 1.126 A 0.362 0.362 0 0 1 109.29 1.063 A 0.456 0.456 0 0 1 109.171 0.788 A 0.605 0.605 0 0 1 109.169 0.734 Z" vector-effect="non-scaling-stroke"/></g>
</svg>