<?xml version="1.0" encoding="UTF-8"?>
<svg width="48px" height="48px" viewBox="0 0 48 48" version="1.1" xmlns="http://www.w3.org/2000/svg" xmlns:xlink="http://www.w3.org/1999/xlink">
    <title>Icon-Resource/Managment-Governance/Res_AWS-System-Manager_Run-Command_48_Dark</title>
    <g id="Icon-Resource/Managment-Governance/Res_AWS-System-Manager_Run-Command_48" stroke="none" stroke-width="1" fill="none" fill-rule="evenodd">
        <path transform="translate(12.000000, 8.000000), scale(.65)" d="M2,27.6299 L10.815,27.6299 L10.815,25.6299 L2,25.6299 L2,27.6299 Z M2,21.4599 L12.578,21.4599 L12.578,19.4599 L2,19.4599 L2,21.4599 Z M2,15.2889 L14.341,15.2889 L14.341,13.2889 L2,13.2889 L2,15.2889 Z M34.715,25.6299 L20.91,25.6299 L22.174,20.5779 L35.979,20.5779 L34.715,25.6299 Z M20.611,18.5779 L18.35,27.6299 L36.277,27.6299 L38.539,18.5779 L20.611,18.5779 Z M38.279,36.7729 C38.24,36.9559 38.076,37.0889 37.889,37.0889 L13.424,37.0889 C13.258,37.0889 13.158,36.9959 13.113,36.9409 C13.069,36.8859 12.999,36.7689 13.033,36.6069 L17.566,15.2399 L42.846,15.2399 L38.279,36.7729 Z M19,9.9999 L43.466,9.9999 C43.631,9.9999 43.731,10.0929 43.776,10.1479 C43.82,10.2029 43.891,10.3189 43.856,10.4829 L43.271,13.2399 L17.99,13.2399 L18.611,10.3169 C18.65,10.1329 18.813,9.9999 19,9.9999 L19,9.9999 Z M45.329,8.8889 C44.872,8.3239 44.193,7.9999 43.466,7.9999 L19,7.9999 C17.873,7.9999 16.887,8.7999 16.653,9.9019 L11.076,36.1929 C10.926,36.9029 11.102,37.6349 11.56,38.1999 C12.017,38.7649 12.696,39.0889 13.424,39.0889 L37.889,39.0889 C39.015,39.0889 40.001,38.2899 40.236,37.1879 L45.813,10.8969 C45.963,10.1859 45.787,9.4529 45.329,8.8889 L45.329,8.8889 Z" id="AWS-System-Manager_run-command_Resource-Icon_light-bg" fill="#000000"></path>
    </g><g transform="translate(25, 83)" id="svgGroup" stroke-linecap="round" fill-rule="evenodd" font-size="9pt" stroke="#000" stroke-width="0.25mm" fill="#000" style="stroke:#000;stroke-width:0.25mm;fill:#000"><path d="M 23.12 0.088 L 24.13 4.469 L 24.253 5.313 L 24.434 4.553 L 25.699 0.088 L 26.411 0.088 L 27.646 4.553 L 27.822 5.326 L 27.958 4.465 L 28.951 0.088 L 29.799 0.088 L 28.248 6.486 L 27.479 6.486 L 26.161 1.824 L 26.06 1.336 L 25.958 1.824 L 24.592 6.486 L 23.823 6.486 L 22.276 0.088 L 23.12 0.088 Z M 34.98 1.938 L 34.132 1.938 A 1.466 1.466 0 0 0 34.083 1.546 A 1.066 1.066 0 0 0 33.763 1.026 A 1.211 1.211 0 0 0 33.294 0.77 Q 33.042 0.694 32.722 0.694 A 2.286 2.286 0 0 0 32.342 0.724 Q 32.14 0.758 31.977 0.831 A 1.101 1.101 0 0 0 31.748 0.969 A 0.892 0.892 0 0 0 31.403 1.624 A 1.267 1.267 0 0 0 31.399 1.732 A 0.806 0.806 0 0 0 31.667 2.337 A 1.134 1.134 0 0 0 31.731 2.393 A 1.562 1.562 0 0 0 31.969 2.549 Q 32.299 2.73 32.86 2.887 A 8.228 8.228 0 0 1 33.325 3.032 Q 33.56 3.113 33.754 3.2 A 3.297 3.297 0 0 1 34.108 3.382 A 2.342 2.342 0 0 1 34.447 3.626 Q 34.637 3.792 34.759 3.985 A 1.45 1.45 0 0 1 34.776 4.012 A 1.498 1.498 0 0 1 34.972 4.568 A 1.948 1.948 0 0 1 34.994 4.86 A 1.606 1.606 0 0 1 34.871 5.497 Q 34.726 5.838 34.408 6.09 A 1.886 1.886 0 0 1 34.387 6.106 Q 33.781 6.574 32.766 6.574 A 3.023 3.023 0 0 1 31.625 6.36 A 2.917 2.917 0 0 1 31.535 6.322 A 2.383 2.383 0 0 1 31.057 6.044 A 1.874 1.874 0 0 1 30.654 5.629 A 1.689 1.689 0 0 1 30.344 4.632 L 31.192 4.632 A 1.261 1.261 0 0 0 31.262 5.059 A 1.074 1.074 0 0 0 31.621 5.548 Q 32.005 5.85 32.622 5.881 A 2.87 2.87 0 0 0 32.766 5.884 A 2.628 2.628 0 0 0 33.153 5.858 Q 33.349 5.828 33.508 5.767 A 1.129 1.129 0 0 0 33.79 5.612 Q 34.146 5.339 34.146 4.869 A 1.074 1.074 0 0 0 34.103 4.559 A 0.816 0.816 0 0 0 33.816 4.142 Q 33.486 3.885 32.621 3.634 Q 31.535 3.322 31.041 2.868 Q 30.546 2.413 30.546 1.745 Q 30.546 0.989 31.151 0.494 A 2.121 2.121 0 0 1 32.041 0.071 A 3.087 3.087 0 0 1 32.722 0 A 2.913 2.913 0 0 1 33.382 0.072 A 2.372 2.372 0 0 1 33.897 0.255 A 2.051 2.051 0 0 1 34.428 0.626 A 1.834 1.834 0 0 1 34.697 0.958 A 1.798 1.798 0 0 1 34.98 1.938 Z M 3.74 6.486 L 2.351 3.898 L 0.848 3.898 L 0.848 6.486 L 0 6.486 L 0 0.088 L 2.118 0.088 A 3.809 3.809 0 0 1 2.76 0.138 Q 3.102 0.197 3.376 0.324 A 1.789 1.789 0 0 1 3.781 0.58 A 1.588 1.588 0 0 1 4.307 1.469 A 2.453 2.453 0 0 1 4.364 2.013 A 1.864 1.864 0 0 1 4.273 2.604 A 1.64 1.64 0 0 1 4.041 3.054 A 1.849 1.849 0 0 1 3.382 3.611 A 2.342 2.342 0 0 1 3.142 3.718 L 4.645 6.434 L 4.645 6.486 L 3.74 6.486 Z M 13.724 3.129 L 12.907 3.129 Q 12.907 2.795 12.623 2.553 Q 12.34 2.312 11.909 2.312 Q 11.465 2.312 11.215 2.505 A 0.653 0.653 0 0 0 11.04 2.704 Q 10.967 2.835 10.964 3 A 0.771 0.771 0 0 0 10.964 3.01 A 0.588 0.588 0 0 0 10.994 3.203 A 0.48 0.48 0 0 0 11.197 3.454 A 1.093 1.093 0 0 0 11.348 3.533 Q 11.512 3.605 11.767 3.673 A 6.581 6.581 0 0 0 12.039 3.74 A 6.318 6.318 0 0 1 12.446 3.845 Q 12.783 3.944 13.025 4.065 A 1.901 1.901 0 0 1 13.281 4.218 Q 13.418 4.315 13.516 4.429 A 1.06 1.06 0 0 1 13.586 4.52 A 1.024 1.024 0 0 1 13.748 4.927 A 1.388 1.388 0 0 1 13.768 5.168 Q 13.768 5.805 13.258 6.19 Q 12.776 6.554 12.022 6.573 A 3.337 3.337 0 0 1 11.936 6.574 A 2.746 2.746 0 0 1 11.401 6.525 A 2.124 2.124 0 0 1 10.925 6.372 A 1.771 1.771 0 0 1 10.491 6.094 A 1.54 1.54 0 0 1 10.237 5.807 Q 9.989 5.445 9.989 5.023 L 10.802 5.023 A 0.932 0.932 0 0 0 10.875 5.348 A 0.827 0.827 0 0 0 11.129 5.671 A 1.072 1.072 0 0 0 11.531 5.864 Q 11.686 5.903 11.867 5.91 A 2.013 2.013 0 0 0 11.936 5.911 A 1.863 1.863 0 0 0 12.231 5.889 Q 12.393 5.863 12.524 5.806 A 0.941 0.941 0 0 0 12.676 5.724 A 0.689 0.689 0 0 0 12.841 5.574 A 0.554 0.554 0 0 0 12.955 5.225 A 0.698 0.698 0 0 0 12.919 4.994 A 0.581 0.581 0 0 0 12.707 4.713 A 1.05 1.05 0 0 0 12.538 4.615 Q 12.349 4.524 12.054 4.449 A 5.392 5.392 0 0 0 11.841 4.399 A 6.342 6.342 0 0 1 11.48 4.311 Q 11.11 4.209 10.861 4.083 Q 10.562 3.93 10.392 3.731 A 1.017 1.017 0 0 1 10.325 3.643 Q 10.151 3.388 10.151 3.037 A 1.206 1.206 0 0 1 10.55 2.132 A 1.694 1.694 0 0 1 10.646 2.048 A 1.752 1.752 0 0 1 11.429 1.688 A 2.471 2.471 0 0 1 11.909 1.644 A 2.559 2.559 0 0 1 12.473 1.702 A 1.757 1.757 0 0 1 13.221 2.061 Q 13.724 2.479 13.724 3.129 Z M 21.327 6.486 L 20.716 4.816 L 18.035 4.816 L 17.433 6.486 L 16.563 6.486 L 19.006 0.088 L 19.745 0.088 L 22.192 6.486 L 21.327 6.486 Z M 5.212 4.241 L 5.212 4.091 A 3.17 3.17 0 0 1 5.288 3.382 A 2.581 2.581 0 0 1 5.482 2.828 A 2.191 2.191 0 0 1 5.93 2.202 A 2.033 2.033 0 0 1 6.238 1.958 Q 6.724 1.644 7.291 1.644 A 2.254 2.254 0 0 1 7.904 1.723 A 1.639 1.639 0 0 1 8.732 2.254 Q 9.246 2.865 9.246 4.003 L 9.246 4.342 L 6.025 4.342 A 2.111 2.111 0 0 0 6.096 4.85 A 1.516 1.516 0 0 0 6.436 5.478 A 1.282 1.282 0 0 0 7.37 5.909 A 1.652 1.652 0 0 0 7.436 5.911 A 1.763 1.763 0 0 0 7.764 5.882 Q 7.988 5.839 8.165 5.735 A 1.827 1.827 0 0 0 8.674 5.287 A 2.068 2.068 0 0 0 8.688 5.269 L 9.185 5.656 A 1.926 1.926 0 0 1 7.785 6.547 A 2.749 2.749 0 0 1 7.392 6.574 A 2.394 2.394 0 0 1 6.64 6.461 A 1.974 1.974 0 0 1 5.818 5.939 Q 5.212 5.304 5.212 4.241 Z M 0.848 0.782 L 0.848 3.208 L 2.145 3.208 Q 2.685 3.208 3.035 2.968 A 1.174 1.174 0 0 0 3.144 2.883 A 1.069 1.069 0 0 0 3.51 2.146 A 1.486 1.486 0 0 0 3.516 2.013 Q 3.516 1.47 3.22 1.159 A 1 1 0 0 0 3.162 1.103 Q 2.808 0.787 2.14 0.782 L 0.848 0.782 Z M 19.375 1.129 L 18.29 4.122 L 20.465 4.122 L 19.375 1.129 Z M 6.051 3.674 L 8.433 3.674 L 8.433 3.612 Q 8.407 3.153 8.236 2.848 A 1.13 1.13 0 0 0 8.099 2.652 A 0.983 0.983 0 0 0 7.445 2.32 A 1.39 1.39 0 0 0 7.291 2.312 A 1.106 1.106 0 0 0 6.768 2.435 A 1.14 1.14 0 0 0 6.464 2.67 A 1.417 1.417 0 0 0 6.188 3.116 Q 6.114 3.3 6.074 3.522 A 2.741 2.741 0 0 0 6.051 3.674 Z" vector-effect="non-scaling-stroke"/></g><g transform="translate(25, 93)" id="svgGroup" stroke-linecap="round" fill-rule="evenodd" font-size="9pt" stroke="#000" stroke-width="0.25mm" fill="#000" style="stroke:#000;stroke-width:0.25mm;fill:#000"><path d="M 37.094 0.352 L 38.184 0.352 L 40.276 5.572 L 42.368 0.352 L 43.462 0.352 L 43.462 6.75 L 42.618 6.75 L 42.618 4.258 L 42.697 1.569 L 40.597 6.75 L 39.951 6.75 L 37.855 1.582 L 37.938 4.258 L 37.938 6.75 L 37.094 6.75 L 37.094 0.352 Z M 22.206 1.995 L 22.975 1.995 L 22.997 2.522 Q 23.52 1.907 24.407 1.907 A 2.009 2.009 0 0 1 24.918 1.968 A 1.244 1.244 0 0 1 25.765 2.672 A 1.801 1.801 0 0 1 26.383 2.118 A 1.65 1.65 0 0 1 26.912 1.937 A 2.209 2.209 0 0 1 27.281 1.907 A 2.119 2.119 0 0 1 27.926 1.997 Q 28.852 2.292 28.872 3.564 L 28.872 6.75 L 28.059 6.75 L 28.059 3.612 A 1.781 1.781 0 0 0 28.039 3.332 Q 28.015 3.185 27.965 3.067 A 0.758 0.758 0 0 0 27.826 2.85 A 0.68 0.68 0 0 0 27.573 2.682 Q 27.362 2.597 27.045 2.597 A 1.245 1.245 0 0 0 26.679 2.648 A 1.008 1.008 0 0 0 26.293 2.867 A 1.042 1.042 0 0 0 25.979 3.404 A 1.41 1.41 0 0 0 25.945 3.595 L 25.945 6.75 L 25.128 6.75 L 25.128 3.634 A 1.532 1.532 0 0 0 25.08 3.23 Q 24.953 2.768 24.495 2.643 A 1.457 1.457 0 0 0 24.113 2.597 Q 23.339 2.597 23.039 3.234 A 1.459 1.459 0 0 0 23.019 3.278 L 23.019 6.75 L 22.206 6.75 L 22.206 1.995 Z M 103.355 1.995 L 104.124 1.995 L 104.146 2.522 Q 104.669 1.907 105.557 1.907 A 2.009 2.009 0 0 1 106.068 1.968 A 1.244 1.244 0 0 1 106.915 2.672 A 1.801 1.801 0 0 1 107.532 2.118 A 1.65 1.65 0 0 1 108.061 1.937 A 2.209 2.209 0 0 1 108.431 1.907 A 2.119 2.119 0 0 1 109.075 1.997 Q 110.001 2.292 110.022 3.564 L 110.022 6.75 L 109.209 6.75 L 109.209 3.612 A 1.781 1.781 0 0 0 109.188 3.332 Q 109.165 3.185 109.114 3.067 A 0.758 0.758 0 0 0 108.976 2.85 A 0.68 0.68 0 0 0 108.723 2.682 Q 108.511 2.597 108.195 2.597 A 1.245 1.245 0 0 0 107.828 2.648 A 1.008 1.008 0 0 0 107.442 2.867 A 1.042 1.042 0 0 0 107.128 3.404 A 1.41 1.41 0 0 0 107.095 3.595 L 107.095 6.75 L 106.277 6.75 L 106.277 3.634 A 1.532 1.532 0 0 0 106.229 3.23 Q 106.102 2.768 105.645 2.643 A 1.457 1.457 0 0 0 105.262 2.597 Q 104.489 2.597 104.188 3.234 A 1.459 1.459 0 0 0 104.168 3.278 L 104.168 6.75 L 103.355 6.75 L 103.355 1.995 Z M 111.243 1.995 L 112.012 1.995 L 112.034 2.522 Q 112.557 1.907 113.445 1.907 A 2.009 2.009 0 0 1 113.956 1.968 A 1.244 1.244 0 0 1 114.803 2.672 A 1.801 1.801 0 0 1 115.42 2.118 A 1.65 1.65 0 0 1 115.95 1.937 A 2.209 2.209 0 0 1 116.319 1.907 A 2.119 2.119 0 0 1 116.963 1.997 Q 117.89 2.292 117.91 3.564 L 117.91 6.75 L 117.097 6.75 L 117.097 3.612 A 1.781 1.781 0 0 0 117.076 3.332 Q 117.053 3.185 117.002 3.067 A 0.758 0.758 0 0 0 116.864 2.85 A 0.68 0.68 0 0 0 116.611 2.682 Q 116.4 2.597 116.083 2.597 A 1.245 1.245 0 0 0 115.717 2.648 A 1.008 1.008 0 0 0 115.33 2.867 A 1.042 1.042 0 0 0 115.016 3.404 A 1.41 1.41 0 0 0 114.983 3.595 L 114.983 6.75 L 114.166 6.75 L 114.166 3.634 A 1.532 1.532 0 0 0 114.117 3.23 Q 113.99 2.768 113.533 2.643 A 1.457 1.457 0 0 0 113.151 2.597 Q 112.377 2.597 112.076 3.234 A 1.459 1.459 0 0 0 112.056 3.278 L 112.056 6.75 L 111.243 6.75 L 111.243 1.995 Z M 4.636 2.202 L 3.788 2.202 A 1.466 1.466 0 0 0 3.738 1.809 A 1.066 1.066 0 0 0 3.419 1.29 A 1.211 1.211 0 0 0 2.95 1.033 Q 2.698 0.958 2.378 0.958 A 2.286 2.286 0 0 0 1.998 0.988 Q 1.796 1.022 1.633 1.095 A 1.101 1.101 0 0 0 1.404 1.233 A 0.892 0.892 0 0 0 1.059 1.887 A 1.267 1.267 0 0 0 1.055 1.995 A 0.806 0.806 0 0 0 1.323 2.6 A 1.134 1.134 0 0 0 1.387 2.656 A 1.562 1.562 0 0 0 1.625 2.813 Q 1.955 2.993 2.516 3.151 A 8.228 8.228 0 0 1 2.981 3.295 Q 3.216 3.377 3.41 3.464 A 3.297 3.297 0 0 1 3.764 3.645 A 2.342 2.342 0 0 1 4.103 3.889 Q 4.293 4.056 4.415 4.248 A 1.45 1.45 0 0 1 4.432 4.276 A 1.498 1.498 0 0 1 4.628 4.832 A 1.948 1.948 0 0 1 4.65 5.124 A 1.606 1.606 0 0 1 4.527 5.76 Q 4.382 6.101 4.064 6.354 A 1.886 1.886 0 0 1 4.043 6.37 Q 3.437 6.838 2.422 6.838 A 3.023 3.023 0 0 1 1.281 6.623 A 2.917 2.917 0 0 1 1.191 6.585 A 2.383 2.383 0 0 1 0.713 6.307 A 1.874 1.874 0 0 1 0.31 5.893 A 1.689 1.689 0 0 1 0 4.896 L 0.848 4.896 A 1.261 1.261 0 0 0 0.918 5.323 A 1.074 1.074 0 0 0 1.277 5.812 Q 1.661 6.113 2.278 6.144 A 2.87 2.87 0 0 0 2.422 6.148 A 2.628 2.628 0 0 0 2.809 6.121 Q 3.005 6.092 3.164 6.031 A 1.129 1.129 0 0 0 3.445 5.875 Q 3.801 5.603 3.801 5.133 A 1.074 1.074 0 0 0 3.759 4.822 A 0.816 0.816 0 0 0 3.472 4.406 Q 3.142 4.148 2.277 3.898 Q 1.191 3.586 0.697 3.131 Q 0.202 2.676 0.202 2.008 Q 0.202 1.252 0.807 0.758 A 2.121 2.121 0 0 1 1.697 0.335 A 3.087 3.087 0 0 1 2.378 0.264 A 2.913 2.913 0 0 1 3.038 0.336 A 2.372 2.372 0 0 1 3.553 0.519 A 2.051 2.051 0 0 1 4.084 0.889 A 1.834 1.834 0 0 1 4.353 1.222 A 1.798 1.798 0 0 1 4.636 2.202 Z M 96.355 4.72 L 97.203 4.72 A 3.016 3.016 0 0 1 97.042 5.416 A 2.099 2.099 0 0 1 96.454 6.286 Q 95.823 6.838 94.777 6.838 A 2.553 2.553 0 0 1 93.908 6.696 A 2.194 2.194 0 0 1 92.96 6.025 A 2.789 2.789 0 0 1 92.398 4.901 Q 92.292 4.484 92.278 3.992 A 5.262 5.262 0 0 1 92.277 3.85 L 92.277 3.234 A 4.251 4.251 0 0 1 92.347 2.445 A 3.229 3.229 0 0 1 92.595 1.666 A 2.539 2.539 0 0 1 93.051 0.99 A 2.26 2.26 0 0 1 93.498 0.626 A 2.415 2.415 0 0 1 94.524 0.281 A 3.027 3.027 0 0 1 94.852 0.264 A 2.962 2.962 0 0 1 95.558 0.343 A 2.065 2.065 0 0 1 96.486 0.833 A 2.16 2.16 0 0 1 97.081 1.795 A 3.086 3.086 0 0 1 97.203 2.408 L 96.355 2.408 Q 96.286 1.929 96.116 1.616 A 1.223 1.223 0 0 0 95.878 1.301 A 1.207 1.207 0 0 0 95.373 1.024 Q 95.186 0.971 94.962 0.961 A 2.396 2.396 0 0 0 94.852 0.958 A 1.753 1.753 0 0 0 94.273 1.049 A 1.463 1.463 0 0 0 93.584 1.556 A 1.989 1.989 0 0 0 93.27 2.175 Q 93.125 2.636 93.125 3.256 L 93.125 3.876 Q 93.125 4.917 93.56 5.533 A 1.38 1.38 0 0 0 94.558 6.135 A 1.814 1.814 0 0 0 94.777 6.148 A 2.497 2.497 0 0 0 95.184 6.117 Q 95.404 6.08 95.58 6.002 A 1.155 1.155 0 0 0 95.856 5.829 Q 96.232 5.511 96.355 4.72 Z M 165.463 6.75 L 163.806 4.548 L 163.297 5.08 L 163.297 6.75 L 162.484 6.75 L 162.484 0 L 163.297 0 L 163.297 4.083 L 163.732 3.56 L 165.213 1.995 L 166.201 1.995 L 164.351 3.981 L 166.417 6.75 L 165.463 6.75 Z M 78.535 6.75 L 77.146 4.162 L 75.643 4.162 L 75.643 6.75 L 74.795 6.75 L 74.795 0.352 L 76.913 0.352 A 3.809 3.809 0 0 1 77.555 0.402 Q 77.897 0.461 78.171 0.587 A 1.789 1.789 0 0 1 78.577 0.844 A 1.588 1.588 0 0 1 79.102 1.732 A 2.453 2.453 0 0 1 79.159 2.276 A 1.864 1.864 0 0 1 79.068 2.868 A 1.64 1.64 0 0 1 78.836 3.318 A 1.849 1.849 0 0 1 78.177 3.875 A 2.342 2.342 0 0 1 77.937 3.981 L 79.44 6.697 L 79.44 6.75 L 78.535 6.75 Z M 62.622 2.522 L 62.662 1.995 L 63.404 1.995 L 63.404 6.636 A 2.511 2.511 0 0 1 63.334 7.249 A 1.738 1.738 0 0 1 62.857 8.09 A 1.834 1.834 0 0 1 61.927 8.57 A 2.671 2.671 0 0 1 61.387 8.622 A 2.446 2.446 0 0 1 60.381 8.402 A 2.003 2.003 0 0 1 59.971 8.161 A 1.563 1.563 0 0 1 59.63 7.8 L 60.051 7.313 A 1.889 1.889 0 0 0 60.486 7.712 A 1.514 1.514 0 0 0 61.33 7.958 A 1.695 1.695 0 0 0 61.707 7.919 Q 61.976 7.858 62.17 7.702 A 1.037 1.037 0 0 0 62.255 7.625 A 1.09 1.09 0 0 0 62.532 7.132 Q 62.579 6.959 62.586 6.752 A 2.134 2.134 0 0 0 62.587 6.684 L 62.587 6.275 A 1.601 1.601 0 0 1 61.535 6.821 A 2.279 2.279 0 0 1 61.256 6.838 A 1.672 1.672 0 0 1 60.5 6.67 Q 60.178 6.51 59.929 6.197 A 2.14 2.14 0 0 1 59.904 6.166 A 2.316 2.316 0 0 1 59.521 5.386 Q 59.388 4.922 59.388 4.333 Q 59.388 3.472 59.696 2.884 A 2.096 2.096 0 0 1 59.902 2.564 Q 60.416 1.907 61.264 1.907 A 1.971 1.971 0 0 1 61.863 1.994 A 1.55 1.55 0 0 1 62.622 2.522 Z M 13.399 3.393 L 12.582 3.393 Q 12.582 3.059 12.298 2.817 Q 12.015 2.575 11.584 2.575 Q 11.14 2.575 10.89 2.769 A 0.653 0.653 0 0 0 10.715 2.967 Q 10.642 3.098 10.639 3.263 A 0.771 0.771 0 0 0 10.639 3.274 A 0.588 0.588 0 0 0 10.669 3.467 A 0.48 0.48 0 0 0 10.872 3.718 A 1.093 1.093 0 0 0 11.022 3.796 Q 11.187 3.868 11.442 3.937 A 6.581 6.581 0 0 0 11.714 4.003 A 6.318 6.318 0 0 1 12.121 4.108 Q 12.458 4.208 12.7 4.329 A 1.901 1.901 0 0 1 12.956 4.481 Q 13.093 4.579 13.19 4.692 A 1.06 1.06 0 0 1 13.261 4.783 A 1.024 1.024 0 0 1 13.423 5.191 A 1.388 1.388 0 0 1 13.443 5.432 Q 13.443 6.069 12.933 6.453 Q 12.451 6.817 11.697 6.837 A 3.337 3.337 0 0 1 11.61 6.838 A 2.746 2.746 0 0 1 11.076 6.788 A 2.124 2.124 0 0 1 10.6 6.636 A 1.771 1.771 0 0 1 10.166 6.358 A 1.54 1.54 0 0 1 9.912 6.071 Q 9.664 5.708 9.664 5.287 L 10.477 5.287 A 0.932 0.932 0 0 0 10.55 5.612 A 0.827 0.827 0 0 0 10.804 5.935 A 1.072 1.072 0 0 0 11.206 6.128 Q 11.361 6.167 11.542 6.173 A 2.013 2.013 0 0 0 11.61 6.174 A 1.863 1.863 0 0 0 11.906 6.152 Q 12.068 6.126 12.199 6.07 A 0.941 0.941 0 0 0 12.351 5.988 A 0.689 0.689 0 0 0 12.516 5.837 A 0.554 0.554 0 0 0 12.63 5.489 A 0.698 0.698 0 0 0 12.594 5.258 A 0.581 0.581 0 0 0 12.382 4.977 A 1.05 1.05 0 0 0 12.213 4.878 Q 12.024 4.788 11.729 4.712 A 5.392 5.392 0 0 0 11.516 4.663 A 6.342 6.342 0 0 1 11.155 4.575 Q 10.785 4.473 10.536 4.346 Q 10.237 4.194 10.067 3.994 A 1.017 1.017 0 0 1 10 3.907 Q 9.826 3.652 9.826 3.3 A 1.206 1.206 0 0 1 10.225 2.396 A 1.694 1.694 0 0 1 10.321 2.312 A 1.752 1.752 0 0 1 11.104 1.952 A 2.471 2.471 0 0 1 11.584 1.907 A 2.559 2.559 0 0 1 12.148 1.966 A 1.757 1.757 0 0 1 12.896 2.325 Q 13.399 2.742 13.399 3.393 Z M 33.636 3.393 L 32.819 3.393 Q 32.819 3.059 32.535 2.817 Q 32.252 2.575 31.821 2.575 Q 31.377 2.575 31.127 2.769 A 0.653 0.653 0 0 0 30.952 2.967 Q 30.878 3.098 30.876 3.263 A 0.771 0.771 0 0 0 30.876 3.274 A 0.588 0.588 0 0 0 30.906 3.467 A 0.48 0.48 0 0 0 31.109 3.718 A 1.093 1.093 0 0 0 31.259 3.796 Q 31.423 3.868 31.679 3.937 A 6.581 6.581 0 0 0 31.951 4.003 A 6.318 6.318 0 0 1 32.358 4.108 Q 32.695 4.208 32.937 4.329 A 1.901 1.901 0 0 1 33.193 4.481 Q 33.33 4.579 33.427 4.692 A 1.06 1.06 0 0 1 33.497 4.783 A 1.024 1.024 0 0 1 33.66 5.191 A 1.388 1.388 0 0 1 33.68 5.432 Q 33.68 6.069 33.17 6.453 Q 32.688 6.817 31.934 6.837 A 3.337 3.337 0 0 1 31.847 6.838 A 2.746 2.746 0 0 1 31.313 6.788 A 2.124 2.124 0 0 1 30.837 6.636 A 1.771 1.771 0 0 1 30.403 6.358 A 1.54 1.54 0 0 1 30.149 6.071 Q 29.901 5.708 29.901 5.287 L 30.714 5.287 A 0.932 0.932 0 0 0 30.787 5.612 A 0.827 0.827 0 0 0 31.041 5.935 A 1.072 1.072 0 0 0 31.443 6.128 Q 31.598 6.167 31.779 6.173 A 2.013 2.013 0 0 0 31.847 6.174 A 1.863 1.863 0 0 0 32.143 6.152 Q 32.304 6.126 32.436 6.07 A 0.941 0.941 0 0 0 32.588 5.988 A 0.689 0.689 0 0 0 32.752 5.837 A 0.554 0.554 0 0 0 32.867 5.489 A 0.698 0.698 0 0 0 32.83 5.258 A 0.581 0.581 0 0 0 32.619 4.977 A 1.05 1.05 0 0 0 32.45 4.878 Q 32.261 4.788 31.966 4.712 A 5.392 5.392 0 0 0 31.753 4.663 A 6.342 6.342 0 0 1 31.392 4.575 Q 31.022 4.473 30.773 4.346 Q 30.474 4.194 30.304 3.994 A 1.017 1.017 0 0 1 30.237 3.907 Q 30.063 3.652 30.063 3.3 A 1.206 1.206 0 0 1 30.462 2.396 A 1.694 1.694 0 0 1 30.558 2.312 A 1.752 1.752 0 0 1 31.341 1.952 A 2.471 2.471 0 0 1 31.821 1.907 A 2.559 2.559 0 0 1 32.384 1.966 A 1.757 1.757 0 0 1 33.133 2.325 Q 33.636 2.742 33.636 3.393 Z M 5.972 1.995 L 7.159 5.559 L 8.266 1.995 L 9.136 1.995 L 7.225 7.484 Q 6.781 8.67 5.814 8.67 L 5.66 8.657 L 5.357 8.6 L 5.357 7.941 L 5.577 7.958 Q 5.857 7.958 6.053 7.882 A 0.75 0.75 0 0 0 6.221 7.792 A 0.749 0.749 0 0 0 6.381 7.629 Q 6.499 7.47 6.589 7.215 A 2.575 2.575 0 0 0 6.601 7.181 L 6.781 6.697 L 5.085 1.995 L 5.972 1.995 Z M 49.72 1.995 L 50.489 1.995 L 50.515 2.593 Q 51.052 1.918 51.912 1.907 A 2.234 2.234 0 0 1 51.939 1.907 A 1.905 1.905 0 0 1 52.573 2.004 Q 53.414 2.3 53.457 3.506 A 3.668 3.668 0 0 1 53.46 3.608 L 53.46 6.75 L 52.647 6.75 L 52.647 3.604 A 1.837 1.837 0 0 0 52.624 3.324 Q 52.574 3.017 52.412 2.843 Q 52.225 2.645 51.872 2.606 A 1.66 1.66 0 0 0 51.693 2.597 A 1.253 1.253 0 0 0 51.279 2.664 A 1.123 1.123 0 0 0 50.999 2.808 A 1.432 1.432 0 0 0 50.533 3.362 L 50.533 6.75 L 49.72 6.75 L 49.72 1.995 Z M 85.175 1.995 L 85.944 1.995 L 85.97 2.593 Q 86.507 1.918 87.367 1.907 A 2.234 2.234 0 0 1 87.394 1.907 A 1.905 1.905 0 0 1 88.028 2.004 Q 88.87 2.3 88.913 3.506 A 3.668 3.668 0 0 1 88.915 3.608 L 88.915 6.75 L 88.102 6.75 L 88.102 3.604 A 1.837 1.837 0 0 0 88.079 3.324 Q 88.029 3.017 87.867 2.843 Q 87.681 2.645 87.327 2.606 A 1.66 1.66 0 0 0 87.148 2.597 A 1.253 1.253 0 0 0 86.734 2.664 A 1.123 1.123 0 0 0 86.454 2.808 A 1.432 1.432 0 0 0 85.988 3.362 L 85.988 6.75 L 85.175 6.75 L 85.175 1.995 Z M 124.031 1.995 L 124.8 1.995 L 124.827 2.593 Q 125.363 1.918 126.223 1.907 A 2.234 2.234 0 0 1 126.251 1.907 A 1.905 1.905 0 0 1 126.884 2.004 Q 127.726 2.3 127.769 3.506 A 3.668 3.668 0 0 1 127.771 3.608 L 127.771 6.75 L 126.958 6.75 L 126.958 3.604 A 1.837 1.837 0 0 0 126.936 3.324 Q 126.886 3.017 126.723 2.843 Q 126.537 2.645 126.184 2.606 A 1.66 1.66 0 0 0 126.005 2.597 A 1.253 1.253 0 0 0 125.59 2.664 A 1.123 1.123 0 0 0 125.31 2.808 A 1.432 1.432 0 0 0 124.844 3.362 L 124.844 6.75 L 124.031 6.75 L 124.031 1.995 Z M 83.167 6.75 L 83.149 6.28 A 1.526 1.526 0 0 1 82.323 6.775 Q 82.073 6.836 81.775 6.838 A 2.996 2.996 0 0 1 81.756 6.838 A 2.086 2.086 0 0 1 81.296 6.79 Q 80.865 6.693 80.598 6.396 A 1.41 1.41 0 0 1 80.315 5.899 Q 80.198 5.556 80.196 5.089 L 80.196 1.995 L 81.009 1.995 L 81.009 5.067 Q 81.009 6.037 81.717 6.137 A 1.229 1.229 0 0 0 81.888 6.148 A 1.927 1.927 0 0 0 82.339 6.099 Q 82.901 5.964 83.127 5.454 L 83.127 1.995 L 83.94 1.995 L 83.94 6.75 L 83.167 6.75 Z M 48.612 6.75 L 47.76 6.75 A 0.632 0.632 0 0 1 47.724 6.66 Q 47.693 6.562 47.668 6.41 A 3.997 3.997 0 0 1 47.646 6.249 Q 47.079 6.838 46.292 6.838 A 2.033 2.033 0 0 1 45.763 6.772 A 1.529 1.529 0 0 1 45.139 6.44 Q 44.688 6.042 44.688 5.432 Q 44.688 4.689 45.253 4.278 Q 45.818 3.867 46.841 3.867 L 47.632 3.867 L 47.632 3.494 A 1.152 1.152 0 0 0 47.597 3.199 A 0.828 0.828 0 0 0 47.378 2.815 Q 47.161 2.6 46.771 2.568 A 1.748 1.748 0 0 0 46.626 2.562 Q 46.191 2.562 45.897 2.782 Q 45.602 3.001 45.602 3.313 L 44.785 3.313 A 1.041 1.041 0 0 1 44.91 2.825 A 1.409 1.409 0 0 1 45.038 2.626 Q 45.29 2.294 45.723 2.101 A 2.249 2.249 0 0 1 46.499 1.913 A 2.669 2.669 0 0 1 46.674 1.907 A 2.65 2.65 0 0 1 47.192 1.955 Q 47.499 2.016 47.738 2.156 A 1.439 1.439 0 0 1 47.962 2.318 A 1.396 1.396 0 0 1 48.415 3.144 A 1.998 1.998 0 0 1 48.445 3.45 L 48.445 5.638 Q 48.445 6.073 48.519 6.39 A 1.707 1.707 0 0 0 48.612 6.68 L 48.612 6.75 Z M 58.474 6.75 L 57.621 6.75 A 0.632 0.632 0 0 1 57.586 6.66 Q 57.555 6.562 57.53 6.41 A 3.997 3.997 0 0 1 57.507 6.249 Q 56.94 6.838 56.153 6.838 A 2.033 2.033 0 0 1 55.624 6.772 A 1.529 1.529 0 0 1 55 6.44 Q 54.549 6.042 54.549 5.432 Q 54.549 4.689 55.114 4.278 Q 55.679 3.867 56.703 3.867 L 57.494 3.867 L 57.494 3.494 A 1.152 1.152 0 0 0 57.458 3.199 A 0.828 0.828 0 0 0 57.239 2.815 Q 57.023 2.6 56.632 2.568 A 1.748 1.748 0 0 0 56.487 2.562 Q 56.052 2.562 55.758 2.782 Q 55.464 3.001 55.464 3.313 L 54.646 3.313 A 1.041 1.041 0 0 1 54.771 2.825 A 1.409 1.409 0 0 1 54.899 2.626 Q 55.152 2.294 55.584 2.101 A 2.249 2.249 0 0 1 56.36 1.913 A 2.669 2.669 0 0 1 56.536 1.907 A 2.65 2.65 0 0 1 57.053 1.955 Q 57.36 2.016 57.599 2.156 A 1.439 1.439 0 0 1 57.823 2.318 A 1.396 1.396 0 0 1 58.277 3.144 A 1.998 1.998 0 0 1 58.307 3.45 L 58.307 5.638 Q 58.307 6.073 58.38 6.39 A 1.707 1.707 0 0 0 58.474 6.68 L 58.474 6.75 Z M 122.924 6.75 L 122.071 6.75 A 0.632 0.632 0 0 1 122.036 6.66 Q 122.005 6.562 121.98 6.41 A 3.997 3.997 0 0 1 121.957 6.249 Q 121.39 6.838 120.604 6.838 A 2.033 2.033 0 0 1 120.074 6.772 A 1.529 1.529 0 0 1 119.45 6.44 Q 119 6.042 119 5.432 Q 119 4.689 119.564 4.278 Q 120.129 3.867 121.153 3.867 L 121.944 3.867 L 121.944 3.494 A 1.152 1.152 0 0 0 121.908 3.199 A 0.828 0.828 0 0 0 121.689 2.815 Q 121.473 2.6 121.082 2.568 A 1.748 1.748 0 0 0 120.938 2.562 Q 120.503 2.562 120.208 2.782 Q 119.914 3.001 119.914 3.313 L 119.096 3.313 A 1.041 1.041 0 0 1 119.221 2.825 A 1.409 1.409 0 0 1 119.349 2.626 Q 119.602 2.294 120.035 2.101 A 2.249 2.249 0 0 1 120.81 1.913 A 2.669 2.669 0 0 1 120.986 1.907 A 2.65 2.65 0 0 1 121.503 1.955 Q 121.811 2.016 122.049 2.156 A 1.439 1.439 0 0 1 122.274 2.318 A 1.396 1.396 0 0 1 122.727 3.144 A 1.998 1.998 0 0 1 122.757 3.45 L 122.757 5.638 Q 122.757 6.073 122.831 6.39 A 1.707 1.707 0 0 0 122.924 6.68 L 122.924 6.75 Z M 158.326 6.75 L 157.474 6.75 A 0.632 0.632 0 0 1 157.438 6.66 Q 157.407 6.562 157.382 6.41 A 3.997 3.997 0 0 1 157.36 6.249 Q 156.793 6.838 156.006 6.838 A 2.033 2.033 0 0 1 155.477 6.772 A 1.529 1.529 0 0 1 154.852 6.44 Q 154.402 6.042 154.402 5.432 Q 154.402 4.689 154.967 4.278 Q 155.531 3.867 156.555 3.867 L 157.346 3.867 L 157.346 3.494 A 1.152 1.152 0 0 0 157.311 3.199 A 0.828 0.828 0 0 0 157.091 2.815 Q 156.875 2.6 156.485 2.568 A 1.748 1.748 0 0 0 156.34 2.562 Q 155.905 2.562 155.61 2.782 Q 155.316 3.001 155.316 3.313 L 154.499 3.313 A 1.041 1.041 0 0 1 154.624 2.825 A 1.409 1.409 0 0 1 154.751 2.626 Q 155.004 2.294 155.437 2.101 A 2.249 2.249 0 0 1 156.213 1.913 A 2.669 2.669 0 0 1 156.388 1.907 A 2.65 2.65 0 0 1 156.906 1.955 Q 157.213 2.016 157.452 2.156 A 1.439 1.439 0 0 1 157.676 2.318 A 1.396 1.396 0 0 1 158.129 3.144 A 1.998 1.998 0 0 1 158.159 3.45 L 158.159 5.638 Q 158.159 6.073 158.233 6.39 A 1.707 1.707 0 0 0 158.326 6.68 L 158.326 6.75 Z M 128.799 4.395 L 128.799 4.333 A 3.762 3.762 0 0 1 128.866 3.602 Q 128.954 3.16 129.157 2.812 A 2.148 2.148 0 0 1 129.318 2.573 Q 129.837 1.907 130.676 1.907 A 1.964 1.964 0 0 1 131.274 1.994 A 1.559 1.559 0 0 1 131.999 2.479 L 131.999 0 L 132.812 0 L 132.812 6.75 L 132.065 6.75 L 132.025 6.24 Q 131.537 6.838 130.667 6.838 A 1.6 1.6 0 0 1 129.446 6.31 A 2.078 2.078 0 0 1 129.32 6.161 A 2.405 2.405 0 0 1 128.896 5.255 Q 128.811 4.912 128.801 4.51 A 4.425 4.425 0 0 1 128.799 4.395 Z M 17.235 4.504 L 17.235 4.355 A 3.17 3.17 0 0 1 17.312 3.646 A 2.581 2.581 0 0 1 17.506 3.092 A 2.191 2.191 0 0 1 17.953 2.466 A 2.033 2.033 0 0 1 18.262 2.221 Q 18.747 1.907 19.314 1.907 A 2.254 2.254 0 0 1 19.927 1.986 A 1.639 1.639 0 0 1 20.756 2.518 Q 21.27 3.129 21.27 4.267 L 21.27 4.605 L 18.048 4.605 A 2.111 2.111 0 0 0 18.12 5.114 A 1.516 1.516 0 0 0 18.459 5.741 A 1.282 1.282 0 0 0 19.393 6.173 A 1.652 1.652 0 0 0 19.459 6.174 A 1.763 1.763 0 0 0 19.787 6.145 Q 20.011 6.103 20.189 5.999 A 1.827 1.827 0 0 0 20.697 5.551 A 2.068 2.068 0 0 0 20.712 5.533 L 21.208 5.919 A 1.926 1.926 0 0 1 19.808 6.811 A 2.749 2.749 0 0 1 19.415 6.838 A 2.394 2.394 0 0 1 18.664 6.725 A 1.974 1.974 0 0 1 17.842 6.203 Q 17.235 5.568 17.235 4.504 Z M 64.424 4.504 L 64.424 4.355 A 3.17 3.17 0 0 1 64.5 3.646 A 2.581 2.581 0 0 1 64.694 3.092 A 2.191 2.191 0 0 1 65.142 2.466 A 2.033 2.033 0 0 1 65.45 2.221 Q 65.936 1.907 66.503 1.907 A 2.254 2.254 0 0 1 67.116 1.986 A 1.639 1.639 0 0 1 67.944 2.518 Q 68.458 3.129 68.458 4.267 L 68.458 4.605 L 65.237 4.605 A 2.111 2.111 0 0 0 65.308 5.114 A 1.516 1.516 0 0 0 65.648 5.741 A 1.282 1.282 0 0 0 66.582 6.173 A 1.652 1.652 0 0 0 66.648 6.174 A 1.763 1.763 0 0 0 66.976 6.145 Q 67.2 6.103 67.377 5.999 A 1.827 1.827 0 0 0 67.886 5.551 A 2.068 2.068 0 0 0 67.9 5.533 L 68.397 5.919 A 1.926 1.926 0 0 1 66.997 6.811 A 2.749 2.749 0 0 1 66.604 6.838 A 2.394 2.394 0 0 1 65.852 6.725 A 1.974 1.974 0 0 1 65.03 6.203 Q 64.424 5.568 64.424 4.504 Z M 139.65 0.352 L 139.65 4.601 L 140.537 4.601 L 140.537 5.265 L 139.65 5.265 L 139.65 6.75 L 138.832 6.75 L 138.832 5.265 L 135.919 5.265 L 135.919 4.786 L 138.784 0.352 L 139.65 0.352 Z M 150.535 6.75 L 148.764 6.75 L 148.764 0.352 L 150.57 0.352 Q 151.405 0.352 152.047 0.721 Q 152.688 1.09 153.038 1.771 A 3.19 3.19 0 0 1 153.354 2.8 A 4.073 4.073 0 0 1 153.391 3.335 L 153.391 3.744 Q 153.391 4.649 153.042 5.331 A 2.457 2.457 0 0 1 152.044 6.376 Q 151.396 6.741 150.535 6.75 Z M 145.048 2.592 A 1.544 1.544 0 0 0 145.152 2.021 A 2.226 2.226 0 0 0 145.13 1.707 A 1.566 1.566 0 0 0 144.631 0.738 A 1.754 1.754 0 0 0 143.865 0.333 A 2.443 2.443 0 0 0 143.266 0.264 A 2.539 2.539 0 0 0 142.757 0.312 A 1.767 1.767 0 0 0 141.9 0.738 Q 141.381 1.213 141.381 2.021 A 1.808 1.808 0 0 0 141.381 2.058 A 1.499 1.499 0 0 0 141.627 2.87 A 1.626 1.626 0 0 0 141.789 3.077 A 1.726 1.726 0 0 0 142.299 3.454 A 2.119 2.119 0 0 0 142.2 3.5 A 1.738 1.738 0 0 0 141.515 4.087 A 1.629 1.629 0 0 0 141.232 5.023 A 2.272 2.272 0 0 0 141.241 5.237 A 1.63 1.63 0 0 0 141.788 6.344 A 1.895 1.895 0 0 0 142.638 6.771 A 2.797 2.797 0 0 0 143.266 6.838 A 2.796 2.796 0 0 0 143.865 6.777 A 1.925 1.925 0 0 0 144.741 6.346 A 1.578 1.578 0 0 0 145.215 5.62 A 1.989 1.989 0 0 0 145.301 5.023 A 1.581 1.581 0 0 0 145.009 4.087 Q 144.716 3.674 144.215 3.458 Q 144.646 3.248 144.899 2.874 A 1.449 1.449 0 0 0 145.048 2.592 Z M 14.792 0.844 L 15.605 0.844 L 15.605 1.995 L 16.493 1.995 L 16.493 2.624 L 15.605 2.624 L 15.605 5.572 Q 15.605 5.858 15.724 6.001 Q 15.842 6.144 16.128 6.144 A 1.046 1.046 0 0 0 16.226 6.138 Q 16.328 6.129 16.468 6.101 A 4.024 4.024 0 0 0 16.515 6.091 L 16.515 6.75 A 2.463 2.463 0 0 1 16.082 6.829 A 2.157 2.157 0 0 1 15.891 6.838 Q 15.444 6.838 15.177 6.616 A 0.856 0.856 0 0 1 15.069 6.508 Q 14.842 6.238 14.801 5.78 A 2.351 2.351 0 0 1 14.792 5.572 L 14.792 2.624 L 13.926 2.624 L 13.926 1.995 L 14.792 1.995 L 14.792 0.844 Z M 98.011 4.386 L 98.011 4.329 A 3.057 3.057 0 0 1 98.098 3.587 A 2.573 2.573 0 0 1 98.286 3.072 A 2.16 2.16 0 0 1 98.701 2.486 A 1.957 1.957 0 0 1 99.051 2.21 A 2.036 2.036 0 0 1 99.995 1.913 A 2.491 2.491 0 0 1 100.169 1.907 A 2.277 2.277 0 0 1 100.922 2.027 A 1.937 1.937 0 0 1 101.74 2.58 A 2.29 2.29 0 0 1 102.259 3.608 A 3.373 3.373 0 0 1 102.34 4.368 L 102.34 4.425 A 3.114 3.114 0 0 1 102.26 5.142 A 2.577 2.577 0 0 1 102.074 5.671 A 2.056 2.056 0 0 1 101.547 6.361 A 2.001 2.001 0 0 1 101.314 6.53 A 2.045 2.045 0 0 1 100.394 6.829 A 2.529 2.529 0 0 1 100.178 6.838 A 2.262 2.262 0 0 1 99.427 6.718 A 1.938 1.938 0 0 1 98.611 6.166 A 2.297 2.297 0 0 1 98.086 5.111 A 3.357 3.357 0 0 1 98.011 4.386 Z M 71.697 1.969 L 71.697 2.725 A 2.251 2.251 0 0 0 71.454 2.698 A 2.782 2.782 0 0 0 71.297 2.694 Q 70.519 2.694 70.228 3.338 A 1.445 1.445 0 0 0 70.212 3.375 L 70.212 6.75 L 69.399 6.75 L 69.399 1.995 L 70.19 1.995 L 70.203 2.544 Q 70.583 1.938 71.266 1.909 A 1.636 1.636 0 0 1 71.337 1.907 Q 71.574 1.907 71.697 1.969 Z M 161.732 1.969 L 161.732 2.725 A 2.251 2.251 0 0 0 161.489 2.698 A 2.782 2.782 0 0 0 161.332 2.694 Q 160.554 2.694 160.263 3.338 A 1.445 1.445 0 0 0 160.247 3.375 L 160.247 6.75 L 159.434 6.75 L 159.434 1.995 L 160.225 1.995 L 160.238 2.544 Q 160.618 1.938 161.301 1.909 A 1.636 1.636 0 0 1 161.372 1.907 Q 161.609 1.907 161.732 1.969 Z M 150.592 1.046 L 149.608 1.046 L 149.608 6.06 L 150.495 6.06 A 2.519 2.519 0 0 0 151.128 5.985 A 1.747 1.747 0 0 0 152.014 5.454 Q 152.473 4.94 152.543 4.059 A 4.165 4.165 0 0 0 152.556 3.727 L 152.556 3.353 Q 152.556 2.562 152.287 2.027 A 1.864 1.864 0 0 0 152.044 1.659 A 1.687 1.687 0 0 0 151.048 1.09 A 2.499 2.499 0 0 0 150.592 1.046 Z M 98.829 4.425 A 2.772 2.772 0 0 0 98.876 4.954 Q 98.937 5.264 99.074 5.51 A 1.545 1.545 0 0 0 99.196 5.695 Q 99.563 6.174 100.178 6.174 A 1.269 1.269 0 0 0 100.667 6.083 Q 100.947 5.967 101.149 5.706 A 1.471 1.471 0 0 0 101.162 5.689 A 1.648 1.648 0 0 0 101.417 5.171 Q 101.486 4.945 101.512 4.672 A 3.655 3.655 0 0 0 101.527 4.329 A 2.687 2.687 0 0 0 101.476 3.789 Q 101.408 3.459 101.251 3.2 A 1.586 1.586 0 0 0 101.156 3.061 A 1.231 1.231 0 0 0 100.741 2.705 Q 100.488 2.575 100.169 2.575 Q 99.579 2.575 99.213 3.035 A 1.515 1.515 0 0 0 99.198 3.054 A 1.589 1.589 0 0 0 98.946 3.552 Q 98.876 3.772 98.848 4.039 A 3.676 3.676 0 0 0 98.829 4.425 Z M 131.999 5.454 L 131.999 3.27 A 1.375 1.375 0 0 0 131.687 2.874 Q 131.363 2.597 130.878 2.597 A 1.238 1.238 0 0 0 130.451 2.668 A 1.068 1.068 0 0 0 129.946 3.059 A 1.51 1.51 0 0 0 129.737 3.484 Q 129.671 3.689 129.64 3.939 A 3.955 3.955 0 0 0 129.612 4.425 A 3.162 3.162 0 0 0 129.648 4.918 Q 129.69 5.178 129.778 5.389 A 1.474 1.474 0 0 0 129.946 5.691 A 1.06 1.06 0 0 0 130.709 6.139 A 1.391 1.391 0 0 0 130.869 6.148 Q 131.643 6.148 131.999 5.454 Z M 62.587 5.449 L 62.587 3.278 A 1.439 1.439 0 0 0 62.286 2.891 Q 61.982 2.62 61.542 2.599 A 1.578 1.578 0 0 0 61.466 2.597 Q 60.875 2.597 60.541 3.056 A 1.51 1.51 0 0 0 60.33 3.484 Q 60.264 3.689 60.233 3.939 A 3.955 3.955 0 0 0 60.205 4.425 Q 60.205 5.229 60.535 5.689 Q 60.864 6.148 61.458 6.148 A 1.32 1.32 0 0 0 61.967 6.054 Q 62.359 5.891 62.587 5.449 Z M 75.643 1.046 L 75.643 3.472 L 76.94 3.472 Q 77.48 3.472 77.83 3.231 A 1.174 1.174 0 0 0 77.939 3.146 A 1.069 1.069 0 0 0 78.305 2.409 A 1.486 1.486 0 0 0 78.311 2.276 Q 78.311 1.734 78.015 1.423 A 1 1 0 0 0 77.957 1.367 Q 77.603 1.05 76.935 1.046 L 75.643 1.046 Z M 138.735 1.639 L 136.841 4.601 L 138.832 4.601 L 138.832 1.463 L 138.735 1.639 Z M 144.488 5.005 A 1.375 1.375 0 0 0 144.428 4.592 A 1.109 1.109 0 0 0 144.147 4.131 A 1.148 1.148 0 0 0 143.476 3.807 A 1.593 1.593 0 0 0 143.257 3.792 A 1.466 1.466 0 0 0 142.869 3.841 A 1.086 1.086 0 0 0 142.376 4.126 A 1.123 1.123 0 0 0 142.063 4.762 A 1.572 1.572 0 0 0 142.045 5.005 A 1.48 1.48 0 0 0 142.086 5.367 A 1.019 1.019 0 0 0 142.368 5.862 Q 142.674 6.158 143.207 6.173 A 2.053 2.053 0 0 0 143.266 6.174 Q 143.76 6.174 144.07 5.94 A 1.018 1.018 0 0 0 144.163 5.86 A 1.041 1.041 0 0 0 144.462 5.292 A 1.518 1.518 0 0 0 144.488 5.005 Z M 143.266 0.932 A 1.259 1.259 0 0 0 142.914 0.979 A 0.973 0.973 0 0 0 142.491 1.228 Q 142.194 1.525 142.194 2.035 A 1.325 1.325 0 0 0 142.239 2.387 A 0.994 0.994 0 0 0 142.486 2.823 A 0.974 0.974 0 0 0 143.048 3.108 A 1.382 1.382 0 0 0 143.266 3.125 A 1.279 1.279 0 0 0 143.611 3.08 A 0.952 0.952 0 0 0 144.046 2.823 A 1.018 1.018 0 0 0 144.321 2.26 A 1.426 1.426 0 0 0 144.339 2.035 A 1.282 1.282 0 0 0 144.288 1.668 A 1.013 1.013 0 0 0 144.035 1.239 Q 143.732 0.932 143.266 0.932 Z M 47.632 5.418 L 47.632 4.443 L 46.995 4.443 Q 45.501 4.443 45.501 5.317 Q 45.501 5.7 45.756 5.915 A 0.893 0.893 0 0 0 46.169 6.108 A 1.259 1.259 0 0 0 46.411 6.13 A 1.429 1.429 0 0 0 47.136 5.933 A 1.335 1.335 0 0 0 47.431 5.705 A 1.108 1.108 0 0 0 47.632 5.418 Z M 57.494 5.418 L 57.494 4.443 L 56.857 4.443 Q 55.362 4.443 55.362 5.317 Q 55.362 5.7 55.617 5.915 A 0.893 0.893 0 0 0 56.031 6.108 A 1.259 1.259 0 0 0 56.272 6.13 A 1.429 1.429 0 0 0 56.997 5.933 A 1.335 1.335 0 0 0 57.293 5.705 A 1.108 1.108 0 0 0 57.494 5.418 Z M 121.944 5.418 L 121.944 4.443 L 121.307 4.443 Q 119.813 4.443 119.813 5.317 Q 119.813 5.7 120.068 5.915 A 0.893 0.893 0 0 0 120.481 6.108 A 1.259 1.259 0 0 0 120.722 6.13 A 1.429 1.429 0 0 0 121.447 5.933 A 1.335 1.335 0 0 0 121.743 5.705 A 1.108 1.108 0 0 0 121.944 5.418 Z M 157.346 5.418 L 157.346 4.443 L 156.709 4.443 Q 155.215 4.443 155.215 5.317 Q 155.215 5.7 155.47 5.915 A 0.893 0.893 0 0 0 155.883 6.108 A 1.259 1.259 0 0 0 156.125 6.13 A 1.429 1.429 0 0 0 156.85 5.933 A 1.335 1.335 0 0 0 157.145 5.705 A 1.108 1.108 0 0 0 157.346 5.418 Z M 18.075 3.938 L 20.457 3.938 L 20.457 3.876 Q 20.431 3.417 20.26 3.111 A 1.13 1.13 0 0 0 20.123 2.916 A 0.983 0.983 0 0 0 19.468 2.584 A 1.39 1.39 0 0 0 19.314 2.575 A 1.106 1.106 0 0 0 18.792 2.698 A 1.14 1.14 0 0 0 18.488 2.933 A 1.417 1.417 0 0 0 18.211 3.379 Q 18.138 3.563 18.098 3.785 A 2.741 2.741 0 0 0 18.075 3.938 Z M 65.263 3.938 L 67.645 3.938 L 67.645 3.876 Q 67.619 3.417 67.448 3.111 A 1.13 1.13 0 0 0 67.311 2.916 A 0.983 0.983 0 0 0 66.657 2.584 A 1.39 1.39 0 0 0 66.503 2.575 A 1.106 1.106 0 0 0 65.98 2.698 A 1.14 1.14 0 0 0 65.676 2.933 A 1.417 1.417 0 0 0 65.4 3.379 Q 65.326 3.563 65.286 3.785 A 2.741 2.741 0 0 0 65.263 3.938 Z" vector-effect="non-scaling-stroke"/></g>
</svgversion="1.0" encoding="UTF-8"?>
<svg width="48px" height="48px" viewBox="0 0 48 48" version="1.1" xmlns="http://www.w3.org/2000/svg" xmlns:xlink="http://www.w3.org/1999/xlink">
    <title>Icon-Resource/Managment-Governance/Res_AWS-System-Manager_Run-Command_48_Dark</title>
    <g id="Icon-Resource/Managment-Governance/Res_AWS-System-Manager_Run-Command_48" stroke="none" stroke-width="1" fill="none" fill-rule="evenodd">
        <path transform="translate(12.000000, 8.000000), scale(.65)" d="M2,27.6299 L10.815,27.6299 L10.815,25.6299 L2,25.6299 L2,27.6299 Z M2,21.4599 L12.578,21.4599 L12.578,19.4599 L2,19.4599 L2,21.4599 Z M2,15.2889 L14.341,15.2889 L14.341,13.2889 L2,13.2889 L2,15.2889 Z M34.715,25.6299 L20.91,25.6299 L22.174,20.5779 L35.979,20.5779 L34.715,25.6299 Z M20.611,18.5779 L18.35,27.6299 L36.277,27.6299 L38.539,18.5779 L20.611,18.5779 Z M38.279,36.7729 C38.24,36.9559 38.076,37.0889 37.889,37.0889 L13.424,37.0889 C13.258,37.0889 13.158,36.9959 13.113,36.9409 C13.069,36.8859 12.999,36.7689 13.033,36.6069 L17.566,15.2399 L42.846,15.2399 L38.279,36.7729 Z M19,9.9999 L43.466,9.9999 C43.631,9.9999 43.731,10.0929 43.776,10.1479 C43.82,10.2029 43.891,10.3189 43.856,10.4829 L43.271,13.2399 L17.99,13.2399 L18.611,10.3169 C18.65,10.1329 18.813,9.9999 19,9.9999 L19,9.9999 Z M45.329,8.8889 C44.872,8.3239 44.193,7.9999 43.466,7.9999 L19,7.9999 C17.873,7.9999 16.887,8.7999 16.653,9.9019 L11.076,36.1929 C10.926,36.9029 11.102,37.6349 11.56,38.1999 C12.017,38.7649 12.696,39.0889 13.424,39.0889 L37.889,39.0889 C39.015,39.0889 40.001,38.2899 40.236,37.1879 L45.813,10.8969 C45.963,10.1859 45.787,9.4529 45.329,8.8889 L45.329,8.8889 Z" id="AWS-System-Manager_run-command_Resource-Icon_light-bg" fill="#000000"></path>
    </g><g transform="translate(25, 83)" id="svgGroup" stroke-linecap="round" fill-rule="evenodd" font-size="9pt" stroke="#000" stroke-width="0.25mm" fill="#000" style="stroke:#000;stroke-width:0.25mm;fill:#000"><path d="M 23.12 0.088 L 24.13 4.469 L 24.253 5.313 L 24.434 4.553 L 25.699 0.088 L 26.411 0.088 L 27.646 4.553 L 27.822 5.326 L 27.958 4.465 L 28.951 0.088 L 29.799 0.088 L 28.248 6.486 L 27.479 6.486 L 26.161 1.824 L 26.06 1.336 L 25.958 1.824 L 24.592 6.486 L 23.823 6.486 L 22.276 0.088 L 23.12 0.088 Z M 34.98 1.938 L 34.132 1.938 A 1.466 1.466 0 0 0 34.083 1.546 A 1.066 1.066 0 0 0 33.763 1.026 A 1.211 1.211 0 0 0 33.294 0.77 Q 33.042 0.694 32.722 0.694 A 2.286 2.286 0 0 0 32.342 0.724 Q 32.14 0.758 31.977 0.831 A 1.101 1.101 0 0 0 31.748 0.969 A 0.892 0.892 0 0 0 31.403 1.624 A 1.267 1.267 0 0 0 31.399 1.732 A 0.806 0.806 0 0 0 31.667 2.337 A 1.134 1.134 0 0 0 31.731 2.393 A 1.562 1.562 0 0 0 31.969 2.549 Q 32.299 2.73 32.86 2.887 A 8.228 8.228 0 0 1 33.325 3.032 Q 33.56 3.113 33.754 3.2 A 3.297 3.297 0 0 1 34.108 3.382 A 2.342 2.342 0 0 1 34.447 3.626 Q 34.637 3.792 34.759 3.985 A 1.45 1.45 0 0 1 34.776 4.012 A 1.498 1.498 0 0 1 34.972 4.568 A 1.948 1.948 0 0 1 34.994 4.86 A 1.606 1.606 0 0 1 34.871 5.497 Q 34.726 5.838 34.408 6.09 A 1.886 1.886 0 0 1 34.387 6.106 Q 33.781 6.574 32.766 6.574 A 3.023 3.023 0 0 1 31.625 6.36 A 2.917 2.917 0 0 1 31.535 6.322 A 2.383 2.383 0 0 1 31.057 6.044 A 1.874 1.874 0 0 1 30.654 5.629 A 1.689 1.689 0 0 1 30.344 4.632 L 31.192 4.632 A 1.261 1.261 0 0 0 31.262 5.059 A 1.074 1.074 0 0 0 31.621 5.548 Q 32.005 5.85 32.622 5.881 A 2.87 2.87 0 0 0 32.766 5.884 A 2.628 2.628 0 0 0 33.153 5.858 Q 33.349 5.828 33.508 5.767 A 1.129 1.129 0 0 0 33.79 5.612 Q 34.146 5.339 34.146 4.869 A 1.074 1.074 0 0 0 34.103 4.559 A 0.816 0.816 0 0 0 33.816 4.142 Q 33.486 3.885 32.621 3.634 Q 31.535 3.322 31.041 2.868 Q 30.546 2.413 30.546 1.745 Q 30.546 0.989 31.151 0.494 A 2.121 2.121 0 0 1 32.041 0.071 A 3.087 3.087 0 0 1 32.722 0 A 2.913 2.913 0 0 1 33.382 0.072 A 2.372 2.372 0 0 1 33.897 0.255 A 2.051 2.051 0 0 1 34.428 0.626 A 1.834 1.834 0 0 1 34.697 0.958 A 1.798 1.798 0 0 1 34.98 1.938 Z M 3.74 6.486 L 2.351 3.898 L 0.848 3.898 L 0.848 6.486 L 0 6.486 L 0 0.088 L 2.118 0.088 A 3.809 3.809 0 0 1 2.76 0.138 Q 3.102 0.197 3.376 0.324 A 1.789 1.789 0 0 1 3.781 0.58 A 1.588 1.588 0 0 1 4.307 1.469 A 2.453 2.453 0 0 1 4.364 2.013 A 1.864 1.864 0 0 1 4.273 2.604 A 1.64 1.64 0 0 1 4.041 3.054 A 1.849 1.849 0 0 1 3.382 3.611 A 2.342 2.342 0 0 1 3.142 3.718 L 4.645 6.434 L 4.645 6.486 L 3.74 6.486 Z M 13.724 3.129 L 12.907 3.129 Q 12.907 2.795 12.623 2.553 Q 12.34 2.312 11.909 2.312 Q 11.465 2.312 11.215 2.505 A 0.653 0.653 0 0 0 11.04 2.704 Q 10.967 2.835 10.964 3 A 0.771 0.771 0 0 0 10.964 3.01 A 0.588 0.588 0 0 0 10.994 3.203 A 0.48 0.48 0 0 0 11.197 3.454 A 1.093 1.093 0 0 0 11.348 3.533 Q 11.512 3.605 11.767 3.673 A 6.581 6.581 0 0 0 12.039 3.74 A 6.318 6.318 0 0 1 12.446 3.845 Q 12.783 3.944 13.025 4.065 A 1.901 1.901 0 0 1 13.281 4.218 Q 13.418 4.315 13.516 4.429 A 1.06 1.06 0 0 1 13.586 4.52 A 1.024 1.024 0 0 1 13.748 4.927 A 1.388 1.388 0 0 1 13.768 5.168 Q 13.768 5.805 13.258 6.19 Q 12.776 6.554 12.022 6.573 A 3.337 3.337 0 0 1 11.936 6.574 A 2.746 2.746 0 0 1 11.401 6.525 A 2.124 2.124 0 0 1 10.925 6.372 A 1.771 1.771 0 0 1 10.491 6.094 A 1.54 1.54 0 0 1 10.237 5.807 Q 9.989 5.445 9.989 5.023 L 10.802 5.023 A 0.932 0.932 0 0 0 10.875 5.348 A 0.827 0.827 0 0 0 11.129 5.671 A 1.072 1.072 0 0 0 11.531 5.864 Q 11.686 5.903 11.867 5.91 A 2.013 2.013 0 0 0 11.936 5.911 A 1.863 1.863 0 0 0 12.231 5.889 Q 12.393 5.863 12.524 5.806 A 0.941 0.941 0 0 0 12.676 5.724 A 0.689 0.689 0 0 0 12.841 5.574 A 0.554 0.554 0 0 0 12.955 5.225 A 0.698 0.698 0 0 0 12.919 4.994 A 0.581 0.581 0 0 0 12.707 4.713 A 1.05 1.05 0 0 0 12.538 4.615 Q 12.349 4.524 12.054 4.449 A 5.392 5.392 0 0 0 11.841 4.399 A 6.342 6.342 0 0 1 11.48 4.311 Q 11.11 4.209 10.861 4.083 Q 10.562 3.93 10.392 3.731 A 1.017 1.017 0 0 1 10.325 3.643 Q 10.151 3.388 10.151 3.037 A 1.206 1.206 0 0 1 10.55 2.132 A 1.694 1.694 0 0 1 10.646 2.048 A 1.752 1.752 0 0 1 11.429 1.688 A 2.471 2.471 0 0 1 11.909 1.644 A 2.559 2.559 0 0 1 12.473 1.702 A 1.757 1.757 0 0 1 13.221 2.061 Q 13.724 2.479 13.724 3.129 Z M 21.327 6.486 L 20.716 4.816 L 18.035 4.816 L 17.433 6.486 L 16.563 6.486 L 19.006 0.088 L 19.745 0.088 L 22.192 6.486 L 21.327 6.486 Z M 5.212 4.241 L 5.212 4.091 A 3.17 3.17 0 0 1 5.288 3.382 A 2.581 2.581 0 0 1 5.482 2.828 A 2.191 2.191 0 0 1 5.93 2.202 A 2.033 2.033 0 0 1 6.238 1.958 Q 6.724 1.644 7.291 1.644 A 2.254 2.254 0 0 1 7.904 1.723 A 1.639 1.639 0 0 1 8.732 2.254 Q 9.246 2.865 9.246 4.003 L 9.246 4.342 L 6.025 4.342 A 2.111 2.111 0 0 0 6.096 4.85 A 1.516 1.516 0 0 0 6.436 5.478 A 1.282 1.282 0 0 0 7.37 5.909 A 1.652 1.652 0 0 0 7.436 5.911 A 1.763 1.763 0 0 0 7.764 5.882 Q 7.988 5.839 8.165 5.735 A 1.827 1.827 0 0 0 8.674 5.287 A 2.068 2.068 0 0 0 8.688 5.269 L 9.185 5.656 A 1.926 1.926 0 0 1 7.785 6.547 A 2.749 2.749 0 0 1 7.392 6.574 A 2.394 2.394 0 0 1 6.64 6.461 A 1.974 1.974 0 0 1 5.818 5.939 Q 5.212 5.304 5.212 4.241 Z M 0.848 0.782 L 0.848 3.208 L 2.145 3.208 Q 2.685 3.208 3.035 2.968 A 1.174 1.174 0 0 0 3.144 2.883 A 1.069 1.069 0 0 0 3.51 2.146 A 1.486 1.486 0 0 0 3.516 2.013 Q 3.516 1.47 3.22 1.159 A 1 1 0 0 0 3.162 1.103 Q 2.808 0.787 2.14 0.782 L 0.848 0.782 Z M 19.375 1.129 L 18.29 4.122 L 20.465 4.122 L 19.375 1.129 Z M 6.051 3.674 L 8.433 3.674 L 8.433 3.612 Q 8.407 3.153 8.236 2.848 A 1.13 1.13 0 0 0 8.099 2.652 A 0.983 0.983 0 0 0 7.445 2.32 A 1.39 1.39 0 0 0 7.291 2.312 A 1.106 1.106 0 0 0 6.768 2.435 A 1.14 1.14 0 0 0 6.464 2.67 A 1.417 1.417 0 0 0 6.188 3.116 Q 6.114 3.3 6.074 3.522 A 2.741 2.741 0 0 0 6.051 3.674 Z" vector-effect="non-scaling-stroke"/></g><g transform="translate(25, 93)" id="svgGroup" stroke-linecap="round" fill-rule="evenodd" font-size="9pt" stroke="#000" stroke-width="0.25mm" fill="#000" style="stroke:#000;stroke-width:0.25mm;fill:#000"><path d="M 37.094 0.352 L 38.184 0.352 L 40.276 5.572 L 42.368 0.352 L 43.462 0.352 L 43.462 6.75 L 42.618 6.75 L 42.618 4.258 L 42.697 1.569 L 40.597 6.75 L 39.951 6.75 L 37.855 1.582 L 37.938 4.258 L 37.938 6.75 L 37.094 6.75 L 37.094 0.352 Z M 22.206 1.995 L 22.975 1.995 L 22.997 2.522 Q 23.52 1.907 24.407 1.907 A 2.009 2.009 0 0 1 24.918 1.968 A 1.244 1.244 0 0 1 25.765 2.672 A 1.801 1.801 0 0 1 26.383 2.118 A 1.65 1.65 0 0 1 26.912 1.937 A 2.209 2.209 0 0 1 27.281 1.907 A 2.119 2.119 0 0 1 27.926 1.997 Q 28.852 2.292 28.872 3.564 L 28.872 6.75 L 28.059 6.75 L 28.059 3.612 A 1.781 1.781 0 0 0 28.039 3.332 Q 28.015 3.185 27.965 3.067 A 0.758 0.758 0 0 0 27.826 2.85 A 0.68 0.68 0 0 0 27.573 2.682 Q 27.362 2.597 27.045 2.597 A 1.245 1.245 0 0 0 26.679 2.648 A 1.008 1.008 0 0 0 26.293 2.867 A 1.042 1.042 0 0 0 25.979 3.404 A 1.41 1.41 0 0 0 25.945 3.595 L 25.945 6.75 L 25.128 6.75 L 25.128 3.634 A 1.532 1.532 0 0 0 25.08 3.23 Q 24.953 2.768 24.495 2.643 A 1.457 1.457 0 0 0 24.113 2.597 Q 23.339 2.597 23.039 3.234 A 1.459 1.459 0 0 0 23.019 3.278 L 23.019 6.75 L 22.206 6.75 L 22.206 1.995 Z M 103.355 1.995 L 104.124 1.995 L 104.146 2.522 Q 104.669 1.907 105.557 1.907 A 2.009 2.009 0 0 1 106.068 1.968 A 1.244 1.244 0 0 1 106.915 2.672 A 1.801 1.801 0 0 1 107.532 2.118 A 1.65 1.65 0 0 1 108.061 1.937 A 2.209 2.209 0 0 1 108.431 1.907 A 2.119 2.119 0 0 1 109.075 1.997 Q 110.001 2.292 110.022 3.564 L 110.022 6.75 L 109.209 6.75 L 109.209 3.612 A 1.781 1.781 0 0 0 109.188 3.332 Q 109.165 3.185 109.114 3.067 A 0.758 0.758 0 0 0 108.976 2.85 A 0.68 0.68 0 0 0 108.723 2.682 Q 108.511 2.597 108.195 2.597 A 1.245 1.245 0 0 0 107.828 2.648 A 1.008 1.008 0 0 0 107.442 2.867 A 1.042 1.042 0 0 0 107.128 3.404 A 1.41 1.41 0 0 0 107.095 3.595 L 107.095 6.75 L 106.277 6.75 L 106.277 3.634 A 1.532 1.532 0 0 0 106.229 3.23 Q 106.102 2.768 105.645 2.643 A 1.457 1.457 0 0 0 105.262 2.597 Q 104.489 2.597 104.188 3.234 A 1.459 1.459 0 0 0 104.168 3.278 L 104.168 6.75 L 103.355 6.75 L 103.355 1.995 Z M 111.243 1.995 L 112.012 1.995 L 112.034 2.522 Q 112.557 1.907 113.445 1.907 A 2.009 2.009 0 0 1 113.956 1.968 A 1.244 1.244 0 0 1 114.803 2.672 A 1.801 1.801 0 0 1 115.42 2.118 A 1.65 1.65 0 0 1 115.95 1.937 A 2.209 2.209 0 0 1 116.319 1.907 A 2.119 2.119 0 0 1 116.963 1.997 Q 117.89 2.292 117.91 3.564 L 117.91 6.75 L 117.097 6.75 L 117.097 3.612 A 1.781 1.781 0 0 0 117.076 3.332 Q 117.053 3.185 117.002 3.067 A 0.758 0.758 0 0 0 116.864 2.85 A 0.68 0.68 0 0 0 116.611 2.682 Q 116.4 2.597 116.083 2.597 A 1.245 1.245 0 0 0 115.717 2.648 A 1.008 1.008 0 0 0 115.33 2.867 A 1.042 1.042 0 0 0 115.016 3.404 A 1.41 1.41 0 0 0 114.983 3.595 L 114.983 6.75 L 114.166 6.75 L 114.166 3.634 A 1.532 1.532 0 0 0 114.117 3.23 Q 113.99 2.768 113.533 2.643 A 1.457 1.457 0 0 0 113.151 2.597 Q 112.377 2.597 112.076 3.234 A 1.459 1.459 0 0 0 112.056 3.278 L 112.056 6.75 L 111.243 6.75 L 111.243 1.995 Z M 4.636 2.202 L 3.788 2.202 A 1.466 1.466 0 0 0 3.738 1.809 A 1.066 1.066 0 0 0 3.419 1.29 A 1.211 1.211 0 0 0 2.95 1.033 Q 2.698 0.958 2.378 0.958 A 2.286 2.286 0 0 0 1.998 0.988 Q 1.796 1.022 1.633 1.095 A 1.101 1.101 0 0 0 1.404 1.233 A 0.892 0.892 0 0 0 1.059 1.887 A 1.267 1.267 0 0 0 1.055 1.995 A 0.806 0.806 0 0 0 1.323 2.6 A 1.134 1.134 0 0 0 1.387 2.656 A 1.562 1.562 0 0 0 1.625 2.813 Q 1.955 2.993 2.516 3.151 A 8.228 8.228 0 0 1 2.981 3.295 Q 3.216 3.377 3.41 3.464 A 3.297 3.297 0 0 1 3.764 3.645 A 2.342 2.342 0 0 1 4.103 3.889 Q 4.293 4.056 4.415 4.248 A 1.45 1.45 0 0 1 4.432 4.276 A 1.498 1.498 0 0 1 4.628 4.832 A 1.948 1.948 0 0 1 4.65 5.124 A 1.606 1.606 0 0 1 4.527 5.76 Q 4.382 6.101 4.064 6.354 A 1.886 1.886 0 0 1 4.043 6.37 Q 3.437 6.838 2.422 6.838 A 3.023 3.023 0 0 1 1.281 6.623 A 2.917 2.917 0 0 1 1.191 6.585 A 2.383 2.383 0 0 1 0.713 6.307 A 1.874 1.874 0 0 1 0.31 5.893 A 1.689 1.689 0 0 1 0 4.896 L 0.848 4.896 A 1.261 1.261 0 0 0 0.918 5.323 A 1.074 1.074 0 0 0 1.277 5.812 Q 1.661 6.113 2.278 6.144 A 2.87 2.87 0 0 0 2.422 6.148 A 2.628 2.628 0 0 0 2.809 6.121 Q 3.005 6.092 3.164 6.031 A 1.129 1.129 0 0 0 3.445 5.875 Q 3.801 5.603 3.801 5.133 A 1.074 1.074 0 0 0 3.759 4.822 A 0.816 0.816 0 0 0 3.472 4.406 Q 3.142 4.148 2.277 3.898 Q 1.191 3.586 0.697 3.131 Q 0.202 2.676 0.202 2.008 Q 0.202 1.252 0.807 0.758 A 2.121 2.121 0 0 1 1.697 0.335 A 3.087 3.087 0 0 1 2.378 0.264 A 2.913 2.913 0 0 1 3.038 0.336 A 2.372 2.372 0 0 1 3.553 0.519 A 2.051 2.051 0 0 1 4.084 0.889 A 1.834 1.834 0 0 1 4.353 1.222 A 1.798 1.798 0 0 1 4.636 2.202 Z M 96.355 4.72 L 97.203 4.72 A 3.016 3.016 0 0 1 97.042 5.416 A 2.099 2.099 0 0 1 96.454 6.286 Q 95.823 6.838 94.777 6.838 A 2.553 2.553 0 0 1 93.908 6.696 A 2.194 2.194 0 0 1 92.96 6.025 A 2.789 2.789 0 0 1 92.398 4.901 Q 92.292 4.484 92.278 3.992 A 5.262 5.262 0 0 1 92.277 3.85 L 92.277 3.234 A 4.251 4.251 0 0 1 92.347 2.445 A 3.229 3.229 0 0 1 92.595 1.666 A 2.539 2.539 0 0 1 93.051 0.99 A 2.26 2.26 0 0 1 93.498 0.626 A 2.415 2.415 0 0 1 94.524 0.281 A 3.027 3.027 0 0 1 94.852 0.264 A 2.962 2.962 0 0 1 95.558 0.343 A 2.065 2.065 0 0 1 96.486 0.833 A 2.16 2.16 0 0 1 97.081 1.795 A 3.086 3.086 0 0 1 97.203 2.408 L 96.355 2.408 Q 96.286 1.929 96.116 1.616 A 1.223 1.223 0 0 0 95.878 1.301 A 1.207 1.207 0 0 0 95.373 1.024 Q 95.186 0.971 94.962 0.961 A 2.396 2.396 0 0 0 94.852 0.958 A 1.753 1.753 0 0 0 94.273 1.049 A 1.463 1.463 0 0 0 93.584 1.556 A 1.989 1.989 0 0 0 93.27 2.175 Q 93.125 2.636 93.125 3.256 L 93.125 3.876 Q 93.125 4.917 93.56 5.533 A 1.38 1.38 0 0 0 94.558 6.135 A 1.814 1.814 0 0 0 94.777 6.148 A 2.497 2.497 0 0 0 95.184 6.117 Q 95.404 6.08 95.58 6.002 A 1.155 1.155 0 0 0 95.856 5.829 Q 96.232 5.511 96.355 4.72 Z M 165.463 6.75 L 163.806 4.548 L 163.297 5.08 L 163.297 6.75 L 162.484 6.75 L 162.484 0 L 163.297 0 L 163.297 4.083 L 163.732 3.56 L 165.213 1.995 L 166.201 1.995 L 164.351 3.981 L 166.417 6.75 L 165.463 6.75 Z M 78.535 6.75 L 77.146 4.162 L 75.643 4.162 L 75.643 6.75 L 74.795 6.75 L 74.795 0.352 L 76.913 0.352 A 3.809 3.809 0 0 1 77.555 0.402 Q 77.897 0.461 78.171 0.587 A 1.789 1.789 0 0 1 78.577 0.844 A 1.588 1.588 0 0 1 79.102 1.732 A 2.453 2.453 0 0 1 79.159 2.276 A 1.864 1.864 0 0 1 79.068 2.868 A 1.64 1.64 0 0 1 78.836 3.318 A 1.849 1.849 0 0 1 78.177 3.875 A 2.342 2.342 0 0 1 77.937 3.981 L 79.44 6.697 L 79.44 6.75 L 78.535 6.75 Z M 62.622 2.522 L 62.662 1.995 L 63.404 1.995 L 63.404 6.636 A 2.511 2.511 0 0 1 63.334 7.249 A 1.738 1.738 0 0 1 62.857 8.09 A 1.834 1.834 0 0 1 61.927 8.57 A 2.671 2.671 0 0 1 61.387 8.622 A 2.446 2.446 0 0 1 60.381 8.402 A 2.003 2.003 0 0 1 59.971 8.161 A 1.563 1.563 0 0 1 59.63 7.8 L 60.051 7.313 A 1.889 1.889 0 0 0 60.486 7.712 A 1.514 1.514 0 0 0 61.33 7.958 A 1.695 1.695 0 0 0 61.707 7.919 Q 61.976 7.858 62.17 7.702 A 1.037 1.037 0 0 0 62.255 7.625 A 1.09 1.09 0 0 0 62.532 7.132 Q 62.579 6.959 62.586 6.752 A 2.134 2.134 0 0 0 62.587 6.684 L 62.587 6.275 A 1.601 1.601 0 0 1 61.535 6.821 A 2.279 2.279 0 0 1 61.256 6.838 A 1.672 1.672 0 0 1 60.5 6.67 Q 60.178 6.51 59.929 6.197 A 2.14 2.14 0 0 1 59.904 6.166 A 2.316 2.316 0 0 1 59.521 5.386 Q 59.388 4.922 59.388 4.333 Q 59.388 3.472 59.696 2.884 A 2.096 2.096 0 0 1 59.902 2.564 Q 60.416 1.907 61.264 1.907 A 1.971 1.971 0 0 1 61.863 1.994 A 1.55 1.55 0 0 1 62.622 2.522 Z M 13.399 3.393 L 12.582 3.393 Q 12.582 3.059 12.298 2.817 Q 12.015 2.575 11.584 2.575 Q 11.14 2.575 10.89 2.769 A 0.653 0.653 0 0 0 10.715 2.967 Q 10.642 3.098 10.639 3.263 A 0.771 0.771 0 0 0 10.639 3.274 A 0.588 0.588 0 0 0 10.669 3.467 A 0.48 0.48 0 0 0 10.872 3.718 A 1.093 1.093 0 0 0 11.022 3.796 Q 11.187 3.868 11.442 3.937 A 6.581 6.581 0 0 0 11.714 4.003 A 6.318 6.318 0 0 1 12.121 4.108 Q 12.458 4.208 12.7 4.329 A 1.901 1.901 0 0 1 12.956 4.481 Q 13.093 4.579 13.19 4.692 A 1.06 1.06 0 0 1 13.261 4.783 A 1.024 1.024 0 0 1 13.423 5.191 A 1.388 1.388 0 0 1 13.443 5.432 Q 13.443 6.069 12.933 6.453 Q 12.451 6.817 11.697 6.837 A 3.337 3.337 0 0 1 11.61 6.838 A 2.746 2.746 0 0 1 11.076 6.788 A 2.124 2.124 0 0 1 10.6 6.636 A 1.771 1.771 0 0 1 10.166 6.358 A 1.54 1.54 0 0 1 9.912 6.071 Q 9.664 5.708 9.664 5.287 L 10.477 5.287 A 0.932 0.932 0 0 0 10.55 5.612 A 0.827 0.827 0 0 0 10.804 5.935 A 1.072 1.072 0 0 0 11.206 6.128 Q 11.361 6.167 11.542 6.173 A 2.013 2.013 0 0 0 11.61 6.174 A 1.863 1.863 0 0 0 11.906 6.152 Q 12.068 6.126 12.199 6.07 A 0.941 0.941 0 0 0 12.351 5.988 A 0.689 0.689 0 0 0 12.516 5.837 A 0.554 0.554 0 0 0 12.63 5.489 A 0.698 0.698 0 0 0 12.594 5.258 A 0.581 0.581 0 0 0 12.382 4.977 A 1.05 1.05 0 0 0 12.213 4.878 Q 12.024 4.788 11.729 4.712 A 5.392 5.392 0 0 0 11.516 4.663 A 6.342 6.342 0 0 1 11.155 4.575 Q 10.785 4.473 10.536 4.346 Q 10.237 4.194 10.067 3.994 A 1.017 1.017 0 0 1 10 3.907 Q 9.826 3.652 9.826 3.3 A 1.206 1.206 0 0 1 10.225 2.396 A 1.694 1.694 0 0 1 10.321 2.312 A 1.752 1.752 0 0 1 11.104 1.952 A 2.471 2.471 0 0 1 11.584 1.907 A 2.559 2.559 0 0 1 12.148 1.966 A 1.757 1.757 0 0 1 12.896 2.325 Q 13.399 2.742 13.399 3.393 Z M 33.636 3.393 L 32.819 3.393 Q 32.819 3.059 32.535 2.817 Q 32.252 2.575 31.821 2.575 Q 31.377 2.575 31.127 2.769 A 0.653 0.653 0 0 0 30.952 2.967 Q 30.878 3.098 30.876 3.263 A 0.771 0.771 0 0 0 30.876 3.274 A 0.588 0.588 0 0 0 30.906 3.467 A 0.48 0.48 0 0 0 31.109 3.718 A 1.093 1.093 0 0 0 31.259 3.796 Q 31.423 3.868 31.679 3.937 A 6.581 6.581 0 0 0 31.951 4.003 A 6.318 6.318 0 0 1 32.358 4.108 Q 32.695 4.208 32.937 4.329 A 1.901 1.901 0 0 1 33.193 4.481 Q 33.33 4.579 33.427 4.692 A 1.06 1.06 0 0 1 33.497 4.783 A 1.024 1.024 0 0 1 33.66 5.191 A 1.388 1.388 0 0 1 33.68 5.432 Q 33.68 6.069 33.17 6.453 Q 32.688 6.817 31.934 6.837 A 3.337 3.337 0 0 1 31.847 6.838 A 2.746 2.746 0 0 1 31.313 6.788 A 2.124 2.124 0 0 1 30.837 6.636 A 1.771 1.771 0 0 1 30.403 6.358 A 1.54 1.54 0 0 1 30.149 6.071 Q 29.901 5.708 29.901 5.287 L 30.714 5.287 A 0.932 0.932 0 0 0 30.787 5.612 A 0.827 0.827 0 0 0 31.041 5.935 A 1.072 1.072 0 0 0 31.443 6.128 Q 31.598 6.167 31.779 6.173 A 2.013 2.013 0 0 0 31.847 6.174 A 1.863 1.863 0 0 0 32.143 6.152 Q 32.304 6.126 32.436 6.07 A 0.941 0.941 0 0 0 32.588 5.988 A 0.689 0.689 0 0 0 32.752 5.837 A 0.554 0.554 0 0 0 32.867 5.489 A 0.698 0.698 0 0 0 32.83 5.258 A 0.581 0.581 0 0 0 32.619 4.977 A 1.05 1.05 0 0 0 32.45 4.878 Q 32.261 4.788 31.966 4.712 A 5.392 5.392 0 0 0 31.753 4.663 A 6.342 6.342 0 0 1 31.392 4.575 Q 31.022 4.473 30.773 4.346 Q 30.474 4.194 30.304 3.994 A 1.017 1.017 0 0 1 30.237 3.907 Q 30.063 3.652 30.063 3.3 A 1.206 1.206 0 0 1 30.462 2.396 A 1.694 1.694 0 0 1 30.558 2.312 A 1.752 1.752 0 0 1 31.341 1.952 A 2.471 2.471 0 0 1 31.821 1.907 A 2.559 2.559 0 0 1 32.384 1.966 A 1.757 1.757 0 0 1 33.133 2.325 Q 33.636 2.742 33.636 3.393 Z M 5.972 1.995 L 7.159 5.559 L 8.266 1.995 L 9.136 1.995 L 7.225 7.484 Q 6.781 8.67 5.814 8.67 L 5.66 8.657 L 5.357 8.6 L 5.357 7.941 L 5.577 7.958 Q 5.857 7.958 6.053 7.882 A 0.75 0.75 0 0 0 6.221 7.792 A 0.749 0.749 0 0 0 6.381 7.629 Q 6.499 7.47 6.589 7.215 A 2.575 2.575 0 0 0 6.601 7.181 L 6.781 6.697 L 5.085 1.995 L 5.972 1.995 Z M 49.72 1.995 L 50.489 1.995 L 50.515 2.593 Q 51.052 1.918 51.912 1.907 A 2.234 2.234 0 0 1 51.939 1.907 A 1.905 1.905 0 0 1 52.573 2.004 Q 53.414 2.3 53.457 3.506 A 3.668 3.668 0 0 1 53.46 3.608 L 53.46 6.75 L 52.647 6.75 L 52.647 3.604 A 1.837 1.837 0 0 0 52.624 3.324 Q 52.574 3.017 52.412 2.843 Q 52.225 2.645 51.872 2.606 A 1.66 1.66 0 0 0 51.693 2.597 A 1.253 1.253 0 0 0 51.279 2.664 A 1.123 1.123 0 0 0 50.999 2.808 A 1.432 1.432 0 0 0 50.533 3.362 L 50.533 6.75 L 49.72 6.75 L 49.72 1.995 Z M 85.175 1.995 L 85.944 1.995 L 85.97 2.593 Q 86.507 1.918 87.367 1.907 A 2.234 2.234 0 0 1 87.394 1.907 A 1.905 1.905 0 0 1 88.028 2.004 Q 88.87 2.3 88.913 3.506 A 3.668 3.668 0 0 1 88.915 3.608 L 88.915 6.75 L 88.102 6.75 L 88.102 3.604 A 1.837 1.837 0 0 0 88.079 3.324 Q 88.029 3.017 87.867 2.843 Q 87.681 2.645 87.327 2.606 A 1.66 1.66 0 0 0 87.148 2.597 A 1.253 1.253 0 0 0 86.734 2.664 A 1.123 1.123 0 0 0 86.454 2.808 A 1.432 1.432 0 0 0 85.988 3.362 L 85.988 6.75 L 85.175 6.75 L 85.175 1.995 Z M 124.031 1.995 L 124.8 1.995 L 124.827 2.593 Q 125.363 1.918 126.223 1.907 A 2.234 2.234 0 0 1 126.251 1.907 A 1.905 1.905 0 0 1 126.884 2.004 Q 127.726 2.3 127.769 3.506 A 3.668 3.668 0 0 1 127.771 3.608 L 127.771 6.75 L 126.958 6.75 L 126.958 3.604 A 1.837 1.837 0 0 0 126.936 3.324 Q 126.886 3.017 126.723 2.843 Q 126.537 2.645 126.184 2.606 A 1.66 1.66 0 0 0 126.005 2.597 A 1.253 1.253 0 0 0 125.59 2.664 A 1.123 1.123 0 0 0 125.31 2.808 A 1.432 1.432 0 0 0 124.844 3.362 L 124.844 6.75 L 124.031 6.75 L 124.031 1.995 Z M 83.167 6.75 L 83.149 6.28 A 1.526 1.526 0 0 1 82.323 6.775 Q 82.073 6.836 81.775 6.838 A 2.996 2.996 0 0 1 81.756 6.838 A 2.086 2.086 0 0 1 81.296 6.79 Q 80.865 6.693 80.598 6.396 A 1.41 1.41 0 0 1 80.315 5.899 Q 80.198 5.556 80.196 5.089 L 80.196 1.995 L 81.009 1.995 L 81.009 5.067 Q 81.009 6.037 81.717 6.137 A 1.229 1.229 0 0 0 81.888 6.148 A 1.927 1.927 0 0 0 82.339 6.099 Q 82.901 5.964 83.127 5.454 L 83.127 1.995 L 83.94 1.995 L 83.94 6.75 L 83.167 6.75 Z M 48.612 6.75 L 47.76 6.75 A 0.632 0.632 0 0 1 47.724 6.66 Q 47.693 6.562 47.668 6.41 A 3.997 3.997 0 0 1 47.646 6.249 Q 47.079 6.838 46.292 6.838 A 2.033 2.033 0 0 1 45.763 6.772 A 1.529 1.529 0 0 1 45.139 6.44 Q 44.688 6.042 44.688 5.432 Q 44.688 4.689 45.253 4.278 Q 45.818 3.867 46.841 3.867 L 47.632 3.867 L 47.632 3.494 A 1.152 1.152 0 0 0 47.597 3.199 A 0.828 0.828 0 0 0 47.378 2.815 Q 47.161 2.6 46.771 2.568 A 1.748 1.748 0 0 0 46.626 2.562 Q 46.191 2.562 45.897 2.782 Q 45.602 3.001 45.602 3.313 L 44.785 3.313 A 1.041 1.041 0 0 1 44.91 2.825 A 1.409 1.409 0 0 1 45.038 2.626 Q 45.29 2.294 45.723 2.101 A 2.249 2.249 0 0 1 46.499 1.913 A 2.669 2.669 0 0 1 46.674 1.907 A 2.65 2.65 0 0 1 47.192 1.955 Q 47.499 2.016 47.738 2.156 A 1.439 1.439 0 0 1 47.962 2.318 A 1.396 1.396 0 0 1 48.415 3.144 A 1.998 1.998 0 0 1 48.445 3.45 L 48.445 5.638 Q 48.445 6.073 48.519 6.39 A 1.707 1.707 0 0 0 48.612 6.68 L 48.612 6.75 Z M 58.474 6.75 L 57.621 6.75 A 0.632 0.632 0 0 1 57.586 6.66 Q 57.555 6.562 57.53 6.41 A 3.997 3.997 0 0 1 57.507 6.249 Q 56.94 6.838 56.153 6.838 A 2.033 2.033 0 0 1 55.624 6.772 A 1.529 1.529 0 0 1 55 6.44 Q 54.549 6.042 54.549 5.432 Q 54.549 4.689 55.114 4.278 Q 55.679 3.867 56.703 3.867 L 57.494 3.867 L 57.494 3.494 A 1.152 1.152 0 0 0 57.458 3.199 A 0.828 0.828 0 0 0 57.239 2.815 Q 57.023 2.6 56.632 2.568 A 1.748 1.748 0 0 0 56.487 2.562 Q 56.052 2.562 55.758 2.782 Q 55.464 3.001 55.464 3.313 L 54.646 3.313 A 1.041 1.041 0 0 1 54.771 2.825 A 1.409 1.409 0 0 1 54.899 2.626 Q 55.152 2.294 55.584 2.101 A 2.249 2.249 0 0 1 56.36 1.913 A 2.669 2.669 0 0 1 56.536 1.907 A 2.65 2.65 0 0 1 57.053 1.955 Q 57.36 2.016 57.599 2.156 A 1.439 1.439 0 0 1 57.823 2.318 A 1.396 1.396 0 0 1 58.277 3.144 A 1.998 1.998 0 0 1 58.307 3.45 L 58.307 5.638 Q 58.307 6.073 58.38 6.39 A 1.707 1.707 0 0 0 58.474 6.68 L 58.474 6.75 Z M 122.924 6.75 L 122.071 6.75 A 0.632 0.632 0 0 1 122.036 6.66 Q 122.005 6.562 121.98 6.41 A 3.997 3.997 0 0 1 121.957 6.249 Q 121.39 6.838 120.604 6.838 A 2.033 2.033 0 0 1 120.074 6.772 A 1.529 1.529 0 0 1 119.45 6.44 Q 119 6.042 119 5.432 Q 119 4.689 119.564 4.278 Q 120.129 3.867 121.153 3.867 L 121.944 3.867 L 121.944 3.494 A 1.152 1.152 0 0 0 121.908 3.199 A 0.828 0.828 0 0 0 121.689 2.815 Q 121.473 2.6 121.082 2.568 A 1.748 1.748 0 0 0 120.938 2.562 Q 120.503 2.562 120.208 2.782 Q 119.914 3.001 119.914 3.313 L 119.096 3.313 A 1.041 1.041 0 0 1 119.221 2.825 A 1.409 1.409 0 0 1 119.349 2.626 Q 119.602 2.294 120.035 2.101 A 2.249 2.249 0 0 1 120.81 1.913 A 2.669 2.669 0 0 1 120.986 1.907 A 2.65 2.65 0 0 1 121.503 1.955 Q 121.811 2.016 122.049 2.156 A 1.439 1.439 0 0 1 122.274 2.318 A 1.396 1.396 0 0 1 122.727 3.144 A 1.998 1.998 0 0 1 122.757 3.45 L 122.757 5.638 Q 122.757 6.073 122.831 6.39 A 1.707 1.707 0 0 0 122.924 6.68 L 122.924 6.75 Z M 158.326 6.75 L 157.474 6.75 A 0.632 0.632 0 0 1 157.438 6.66 Q 157.407 6.562 157.382 6.41 A 3.997 3.997 0 0 1 157.36 6.249 Q 156.793 6.838 156.006 6.838 A 2.033 2.033 0 0 1 155.477 6.772 A 1.529 1.529 0 0 1 154.852 6.44 Q 154.402 6.042 154.402 5.432 Q 154.402 4.689 154.967 4.278 Q 155.531 3.867 156.555 3.867 L 157.346 3.867 L 157.346 3.494 A 1.152 1.152 0 0 0 157.311 3.199 A 0.828 0.828 0 0 0 157.091 2.815 Q 156.875 2.6 156.485 2.568 A 1.748 1.748 0 0 0 156.34 2.562 Q 155.905 2.562 155.61 2.782 Q 155.316 3.001 155.316 3.313 L 154.499 3.313 A 1.041 1.041 0 0 1 154.624 2.825 A 1.409 1.409 0 0 1 154.751 2.626 Q 155.004 2.294 155.437 2.101 A 2.249 2.249 0 0 1 156.213 1.913 A 2.669 2.669 0 0 1 156.388 1.907 A 2.65 2.65 0 0 1 156.906 1.955 Q 157.213 2.016 157.452 2.156 A 1.439 1.439 0 0 1 157.676 2.318 A 1.396 1.396 0 0 1 158.129 3.144 A 1.998 1.998 0 0 1 158.159 3.45 L 158.159 5.638 Q 158.159 6.073 158.233 6.39 A 1.707 1.707 0 0 0 158.326 6.68 L 158.326 6.75 Z M 128.799 4.395 L 128.799 4.333 A 3.762 3.762 0 0 1 128.866 3.602 Q 128.954 3.16 129.157 2.812 A 2.148 2.148 0 0 1 129.318 2.573 Q 129.837 1.907 130.676 1.907 A 1.964 1.964 0 0 1 131.274 1.994 A 1.559 1.559 0 0 1 131.999 2.479 L 131.999 0 L 132.812 0 L 132.812 6.75 L 132.065 6.75 L 132.025 6.24 Q 131.537 6.838 130.667 6.838 A 1.6 1.6 0 0 1 129.446 6.31 A 2.078 2.078 0 0 1 129.32 6.161 A 2.405 2.405 0 0 1 128.896 5.255 Q 128.811 4.912 128.801 4.51 A 4.425 4.425 0 0 1 128.799 4.395 Z M 17.235 4.504 L 17.235 4.355 A 3.17 3.17 0 0 1 17.312 3.646 A 2.581 2.581 0 0 1 17.506 3.092 A 2.191 2.191 0 0 1 17.953 2.466 A 2.033 2.033 0 0 1 18.262 2.221 Q 18.747 1.907 19.314 1.907 A 2.254 2.254 0 0 1 19.927 1.986 A 1.639 1.639 0 0 1 20.756 2.518 Q 21.27 3.129 21.27 4.267 L 21.27 4.605 L 18.048 4.605 A 2.111 2.111 0 0 0 18.12 5.114 A 1.516 1.516 0 0 0 18.459 5.741 A 1.282 1.282 0 0 0 19.393 6.173 A 1.652 1.652 0 0 0 19.459 6.174 A 1.763 1.763 0 0 0 19.787 6.145 Q 20.011 6.103 20.189 5.999 A 1.827 1.827 0 0 0 20.697 5.551 A 2.068 2.068 0 0 0 20.712 5.533 L 21.208 5.919 A 1.926 1.926 0 0 1 19.808 6.811 A 2.749 2.749 0 0 1 19.415 6.838 A 2.394 2.394 0 0 1 18.664 6.725 A 1.974 1.974 0 0 1 17.842 6.203 Q 17.235 5.568 17.235 4.504 Z M 64.424 4.504 L 64.424 4.355 A 3.17 3.17 0 0 1 64.5 3.646 A 2.581 2.581 0 0 1 64.694 3.092 A 2.191 2.191 0 0 1 65.142 2.466 A 2.033 2.033 0 0 1 65.45 2.221 Q 65.936 1.907 66.503 1.907 A 2.254 2.254 0 0 1 67.116 1.986 A 1.639 1.639 0 0 1 67.944 2.518 Q 68.458 3.129 68.458 4.267 L 68.458 4.605 L 65.237 4.605 A 2.111 2.111 0 0 0 65.308 5.114 A 1.516 1.516 0 0 0 65.648 5.741 A 1.282 1.282 0 0 0 66.582 6.173 A 1.652 1.652 0 0 0 66.648 6.174 A 1.763 1.763 0 0 0 66.976 6.145 Q 67.2 6.103 67.377 5.999 A 1.827 1.827 0 0 0 67.886 5.551 A 2.068 2.068 0 0 0 67.9 5.533 L 68.397 5.919 A 1.926 1.926 0 0 1 66.997 6.811 A 2.749 2.749 0 0 1 66.604 6.838 A 2.394 2.394 0 0 1 65.852 6.725 A 1.974 1.974 0 0 1 65.03 6.203 Q 64.424 5.568 64.424 4.504 Z M 139.65 0.352 L 139.65 4.601 L 140.537 4.601 L 140.537 5.265 L 139.65 5.265 L 139.65 6.75 L 138.832 6.75 L 138.832 5.265 L 135.919 5.265 L 135.919 4.786 L 138.784 0.352 L 139.65 0.352 Z M 150.535 6.75 L 148.764 6.75 L 148.764 0.352 L 150.57 0.352 Q 151.405 0.352 152.047 0.721 Q 152.688 1.09 153.038 1.771 A 3.19 3.19 0 0 1 153.354 2.8 A 4.073 4.073 0 0 1 153.391 3.335 L 153.391 3.744 Q 153.391 4.649 153.042 5.331 A 2.457 2.457 0 0 1 152.044 6.376 Q 151.396 6.741 150.535 6.75 Z M 145.048 2.592 A 1.544 1.544 0 0 0 145.152 2.021 A 2.226 2.226 0 0 0 145.13 1.707 A 1.566 1.566 0 0 0 144.631 0.738 A 1.754 1.754 0 0 0 143.865 0.333 A 2.443 2.443 0 0 0 143.266 0.264 A 2.539 2.539 0 0 0 142.757 0.312 A 1.767 1.767 0 0 0 141.9 0.738 Q 141.381 1.213 141.381 2.021 A 1.808 1.808 0 0 0 141.381 2.058 A 1.499 1.499 0 0 0 141.627 2.87 A 1.626 1.626 0 0 0 141.789 3.077 A 1.726 1.726 0 0 0 142.299 3.454 A 2.119 2.119 0 0 0 142.2 3.5 A 1.738 1.738 0 0 0 141.515 4.087 A 1.629 1.629 0 0 0 141.232 5.023 A 2.272 2.272 0 0 0 141.241 5.237 A 1.63 1.63 0 0 0 141.788 6.344 A 1.895 1.895 0 0 0 142.638 6.771 A 2.797 2.797 0 0 0 143.266 6.838 A 2.796 2.796 0 0 0 143.865 6.777 A 1.925 1.925 0 0 0 144.741 6.346 A 1.578 1.578 0 0 0 145.215 5.62 A 1.989 1.989 0 0 0 145.301 5.023 A 1.581 1.581 0 0 0 145.009 4.087 Q 144.716 3.674 144.215 3.458 Q 144.646 3.248 144.899 2.874 A 1.449 1.449 0 0 0 145.048 2.592 Z M 14.792 0.844 L 15.605 0.844 L 15.605 1.995 L 16.493 1.995 L 16.493 2.624 L 15.605 2.624 L 15.605 5.572 Q 15.605 5.858 15.724 6.001 Q 15.842 6.144 16.128 6.144 A 1.046 1.046 0 0 0 16.226 6.138 Q 16.328 6.129 16.468 6.101 A 4.024 4.024 0 0 0 16.515 6.091 L 16.515 6.75 A 2.463 2.463 0 0 1 16.082 6.829 A 2.157 2.157 0 0 1 15.891 6.838 Q 15.444 6.838 15.177 6.616 A 0.856 0.856 0 0 1 15.069 6.508 Q 14.842 6.238 14.801 5.78 A 2.351 2.351 0 0 1 14.792 5.572 L 14.792 2.624 L 13.926 2.624 L 13.926 1.995 L 14.792 1.995 L 14.792 0.844 Z M 98.011 4.386 L 98.011 4.329 A 3.057 3.057 0 0 1 98.098 3.587 A 2.573 2.573 0 0 1 98.286 3.072 A 2.16 2.16 0 0 1 98.701 2.486 A 1.957 1.957 0 0 1 99.051 2.21 A 2.036 2.036 0 0 1 99.995 1.913 A 2.491 2.491 0 0 1 100.169 1.907 A 2.277 2.277 0 0 1 100.922 2.027 A 1.937 1.937 0 0 1 101.74 2.58 A 2.29 2.29 0 0 1 102.259 3.608 A 3.373 3.373 0 0 1 102.34 4.368 L 102.34 4.425 A 3.114 3.114 0 0 1 102.26 5.142 A 2.577 2.577 0 0 1 102.074 5.671 A 2.056 2.056 0 0 1 101.547 6.361 A 2.001 2.001 0 0 1 101.314 6.53 A 2.045 2.045 0 0 1 100.394 6.829 A 2.529 2.529 0 0 1 100.178 6.838 A 2.262 2.262 0 0 1 99.427 6.718 A 1.938 1.938 0 0 1 98.611 6.166 A 2.297 2.297 0 0 1 98.086 5.111 A 3.357 3.357 0 0 1 98.011 4.386 Z M 71.697 1.969 L 71.697 2.725 A 2.251 2.251 0 0 0 71.454 2.698 A 2.782 2.782 0 0 0 71.297 2.694 Q 70.519 2.694 70.228 3.338 A 1.445 1.445 0 0 0 70.212 3.375 L 70.212 6.75 L 69.399 6.75 L 69.399 1.995 L 70.19 1.995 L 70.203 2.544 Q 70.583 1.938 71.266 1.909 A 1.636 1.636 0 0 1 71.337 1.907 Q 71.574 1.907 71.697 1.969 Z M 161.732 1.969 L 161.732 2.725 A 2.251 2.251 0 0 0 161.489 2.698 A 2.782 2.782 0 0 0 161.332 2.694 Q 160.554 2.694 160.263 3.338 A 1.445 1.445 0 0 0 160.247 3.375 L 160.247 6.75 L 159.434 6.75 L 159.434 1.995 L 160.225 1.995 L 160.238 2.544 Q 160.618 1.938 161.301 1.909 A 1.636 1.636 0 0 1 161.372 1.907 Q 161.609 1.907 161.732 1.969 Z M 150.592 1.046 L 149.608 1.046 L 149.608 6.06 L 150.495 6.06 A 2.519 2.519 0 0 0 151.128 5.985 A 1.747 1.747 0 0 0 152.014 5.454 Q 152.473 4.94 152.543 4.059 A 4.165 4.165 0 0 0 152.556 3.727 L 152.556 3.353 Q 152.556 2.562 152.287 2.027 A 1.864 1.864 0 0 0 152.044 1.659 A 1.687 1.687 0 0 0 151.048 1.09 A 2.499 2.499 0 0 0 150.592 1.046 Z M 98.829 4.425 A 2.772 2.772 0 0 0 98.876 4.954 Q 98.937 5.264 99.074 5.51 A 1.545 1.545 0 0 0 99.196 5.695 Q 99.563 6.174 100.178 6.174 A 1.269 1.269 0 0 0 100.667 6.083 Q 100.947 5.967 101.149 5.706 A 1.471 1.471 0 0 0 101.162 5.689 A 1.648 1.648 0 0 0 101.417 5.171 Q 101.486 4.945 101.512 4.672 A 3.655 3.655 0 0 0 101.527 4.329 A 2.687 2.687 0 0 0 101.476 3.789 Q 101.408 3.459 101.251 3.2 A 1.586 1.586 0 0 0 101.156 3.061 A 1.231 1.231 0 0 0 100.741 2.705 Q 100.488 2.575 100.169 2.575 Q 99.579 2.575 99.213 3.035 A 1.515 1.515 0 0 0 99.198 3.054 A 1.589 1.589 0 0 0 98.946 3.552 Q 98.876 3.772 98.848 4.039 A 3.676 3.676 0 0 0 98.829 4.425 Z M 131.999 5.454 L 131.999 3.27 A 1.375 1.375 0 0 0 131.687 2.874 Q 131.363 2.597 130.878 2.597 A 1.238 1.238 0 0 0 130.451 2.668 A 1.068 1.068 0 0 0 129.946 3.059 A 1.51 1.51 0 0 0 129.737 3.484 Q 129.671 3.689 129.64 3.939 A 3.955 3.955 0 0 0 129.612 4.425 A 3.162 3.162 0 0 0 129.648 4.918 Q 129.69 5.178 129.778 5.389 A 1.474 1.474 0 0 0 129.946 5.691 A 1.06 1.06 0 0 0 130.709 6.139 A 1.391 1.391 0 0 0 130.869 6.148 Q 131.643 6.148 131.999 5.454 Z M 62.587 5.449 L 62.587 3.278 A 1.439 1.439 0 0 0 62.286 2.891 Q 61.982 2.62 61.542 2.599 A 1.578 1.578 0 0 0 61.466 2.597 Q 60.875 2.597 60.541 3.056 A 1.51 1.51 0 0 0 60.33 3.484 Q 60.264 3.689 60.233 3.939 A 3.955 3.955 0 0 0 60.205 4.425 Q 60.205 5.229 60.535 5.689 Q 60.864 6.148 61.458 6.148 A 1.32 1.32 0 0 0 61.967 6.054 Q 62.359 5.891 62.587 5.449 Z M 75.643 1.046 L 75.643 3.472 L 76.94 3.472 Q 77.48 3.472 77.83 3.231 A 1.174 1.174 0 0 0 77.939 3.146 A 1.069 1.069 0 0 0 78.305 2.409 A 1.486 1.486 0 0 0 78.311 2.276 Q 78.311 1.734 78.015 1.423 A 1 1 0 0 0 77.957 1.367 Q 77.603 1.05 76.935 1.046 L 75.643 1.046 Z M 138.735 1.639 L 136.841 4.601 L 138.832 4.601 L 138.832 1.463 L 138.735 1.639 Z M 144.488 5.005 A 1.375 1.375 0 0 0 144.428 4.592 A 1.109 1.109 0 0 0 144.147 4.131 A 1.148 1.148 0 0 0 143.476 3.807 A 1.593 1.593 0 0 0 143.257 3.792 A 1.466 1.466 0 0 0 142.869 3.841 A 1.086 1.086 0 0 0 142.376 4.126 A 1.123 1.123 0 0 0 142.063 4.762 A 1.572 1.572 0 0 0 142.045 5.005 A 1.48 1.48 0 0 0 142.086 5.367 A 1.019 1.019 0 0 0 142.368 5.862 Q 142.674 6.158 143.207 6.173 A 2.053 2.053 0 0 0 143.266 6.174 Q 143.76 6.174 144.07 5.94 A 1.018 1.018 0 0 0 144.163 5.86 A 1.041 1.041 0 0 0 144.462 5.292 A 1.518 1.518 0 0 0 144.488 5.005 Z M 143.266 0.932 A 1.259 1.259 0 0 0 142.914 0.979 A 0.973 0.973 0 0 0 142.491 1.228 Q 142.194 1.525 142.194 2.035 A 1.325 1.325 0 0 0 142.239 2.387 A 0.994 0.994 0 0 0 142.486 2.823 A 0.974 0.974 0 0 0 143.048 3.108 A 1.382 1.382 0 0 0 143.266 3.125 A 1.279 1.279 0 0 0 143.611 3.08 A 0.952 0.952 0 0 0 144.046 2.823 A 1.018 1.018 0 0 0 144.321 2.26 A 1.426 1.426 0 0 0 144.339 2.035 A 1.282 1.282 0 0 0 144.288 1.668 A 1.013 1.013 0 0 0 144.035 1.239 Q 143.732 0.932 143.266 0.932 Z M 47.632 5.418 L 47.632 4.443 L 46.995 4.443 Q 45.501 4.443 45.501 5.317 Q 45.501 5.7 45.756 5.915 A 0.893 0.893 0 0 0 46.169 6.108 A 1.259 1.259 0 0 0 46.411 6.13 A 1.429 1.429 0 0 0 47.136 5.933 A 1.335 1.335 0 0 0 47.431 5.705 A 1.108 1.108 0 0 0 47.632 5.418 Z M 57.494 5.418 L 57.494 4.443 L 56.857 4.443 Q 55.362 4.443 55.362 5.317 Q 55.362 5.7 55.617 5.915 A 0.893 0.893 0 0 0 56.031 6.108 A 1.259 1.259 0 0 0 56.272 6.13 A 1.429 1.429 0 0 0 56.997 5.933 A 1.335 1.335 0 0 0 57.293 5.705 A 1.108 1.108 0 0 0 57.494 5.418 Z M 121.944 5.418 L 121.944 4.443 L 121.307 4.443 Q 119.813 4.443 119.813 5.317 Q 119.813 5.7 120.068 5.915 A 0.893 0.893 0 0 0 120.481 6.108 A 1.259 1.259 0 0 0 120.722 6.13 A 1.429 1.429 0 0 0 121.447 5.933 A 1.335 1.335 0 0 0 121.743 5.705 A 1.108 1.108 0 0 0 121.944 5.418 Z M 157.346 5.418 L 157.346 4.443 L 156.709 4.443 Q 155.215 4.443 155.215 5.317 Q 155.215 5.7 155.47 5.915 A 0.893 0.893 0 0 0 155.883 6.108 A 1.259 1.259 0 0 0 156.125 6.13 A 1.429 1.429 0 0 0 156.85 5.933 A 1.335 1.335 0 0 0 157.145 5.705 A 1.108 1.108 0 0 0 157.346 5.418 Z M 18.075 3.938 L 20.457 3.938 L 20.457 3.876 Q 20.431 3.417 20.26 3.111 A 1.13 1.13 0 0 0 20.123 2.916 A 0.983 0.983 0 0 0 19.468 2.584 A 1.39 1.39 0 0 0 19.314 2.575 A 1.106 1.106 0 0 0 18.792 2.698 A 1.14 1.14 0 0 0 18.488 2.933 A 1.417 1.417 0 0 0 18.211 3.379 Q 18.138 3.563 18.098 3.785 A 2.741 2.741 0 0 0 18.075 3.938 Z M 65.263 3.938 L 67.645 3.938 L 67.645 3.876 Q 67.619 3.417 67.448 3.111 A 1.13 1.13 0 0 0 67.311 2.916 A 0.983 0.983 0 0 0 66.657 2.584 A 1.39 1.39 0 0 0 66.503 2.575 A 1.106 1.106 0 0 0 65.98 2.698 A 1.14 1.14 0 0 0 65.676 2.933 A 1.417 1.417 0 0 0 65.4 3.379 Q 65.326 3.563 65.286 3.785 A 2.741 2.741 0 0 0 65.263 3.938 Z" vector-effect="non-scaling-stroke"/></g>
</svg>