<?xml version="1.0" encoding="UTF-8"?>
<svg width="48px" height="48px" viewBox="0 0 48 48" version="1.1" xmlns="http://www.w3.org/2000/svg" xmlns:xlink="http://www.w3.org/1999/xlink">
    <title>Icon-Resource/Compute/Res_Amazon-EC2_Instance-with-CloudWatch_48_Light</title>
    <g id="Icon-Resource/Compute/Res_Amazon-EC2_Instance-with-CloudWatch_48" stroke="none" stroke-width="1" fill="none" fill-rule="evenodd">
        <path transform="translate(12.000000, 8.000000), scale(.65)" d="M37.545,37.089 C37.325,37.308 36.971,37.308 36.753,37.089 L32.934,33.272 C33.216,33.019 33.48,32.746 33.718,32.451 L37.547,36.298 C37.764,36.516 37.763,36.87 37.545,37.089 L37.545,37.089 Z M23.418,28.123 C23.418,25.413 25.623,23.208 28.333,23.208 C31.043,23.208 33.248,25.413 33.248,28.123 C33.248,30.833 31.043,33.038 28.333,33.038 C25.623,33.038 23.418,30.833 23.418,28.123 L23.418,28.123 Z M34.759,30.662 C35.071,29.875 35.248,29.02 35.248,28.123 C35.248,24.311 32.146,21.208 28.333,21.208 C24.521,21.208 21.418,24.311 21.418,28.123 C21.418,31.936 24.521,35.038 28.333,35.038 C29.367,35.038 30.346,34.803 31.229,34.395 L35.339,38.503 C35.838,39.002 36.493,39.252 37.149,39.252 C37.805,39.252 38.46,39.002 38.959,38.503 C39.956,37.506 39.958,35.884 38.964,34.887 L34.759,30.662 Z M30.254,24.945 L29.065,26.553 C28.309,25.994 27.246,26.155 26.691,26.905 C26.42,27.27 26.309,27.717 26.375,28.165 C26.441,28.613 26.679,29.009 27.043,29.278 L25.852,30.886 C25.059,30.298 24.542,29.436 24.397,28.459 C24.252,27.483 24.495,26.507 25.083,25.714 C26.298,24.076 28.617,23.733 30.254,24.945 L30.254,24.945 Z M39.76,25.443 C39.76,28.56 38.066,30.161 36.647,30.956 L35.67,29.21 C37.057,28.435 37.76,27.167 37.76,25.443 C37.76,22.107 34.975,21.274 33.777,21.07 C33.511,21.025 33.273,20.872 33.12,20.649 C32.984,20.45 32.926,20.211 32.951,19.975 C32.778,18.01 31.664,17.128 30.619,17.128 C29.969,17.128 29.355,17.453 28.935,18.02 C28.714,18.316 28.351,18.463 27.983,18.413 C27.619,18.359 27.314,18.108 27.19,17.76 C26.757,16.55 26.136,15.535 25.344,14.742 C24.378,13.777 21.73,11.704 17.991,13.283 C15.838,14.191 14.151,16.81 14.151,19.245 C14.151,19.52 14.167,19.794 14.199,20.059 C14.233,20.342 14.144,20.627 13.954,20.841 C13.809,21.004 13.615,21.114 13.403,21.157 C12.161,21.484 10.133,22.467 10.133,25.399 C10.133,27.642 11.355,28.878 12.38,29.52 C12.694,29.72 13.066,29.826 13.458,29.83 L20.244,29.837 L20.242,31.837 L13.446,31.83 C12.671,31.822 11.936,31.609 11.312,31.211 C10.128,30.47 8.133,28.724 8.133,25.399 C8.133,22.576 9.619,20.408 12.154,19.458 C12.152,19.387 12.151,19.317 12.151,19.245 C12.151,16.012 14.327,12.656 17.213,11.441 C20.587,10.017 24.153,10.723 26.758,13.328 C27.444,14.015 28.025,14.822 28.494,15.741 C29.129,15.344 29.858,15.128 30.619,15.128 C32.41,15.128 34.417,16.429 34.877,19.266 C37.36,19.936 39.76,21.842 39.76,25.443 L39.76,25.443 Z M43.827,39.38 C43.827,41.832 41.832,43.827 39.379,43.827 L8.448,43.827 C5.995,43.827 4,41.832 4,39.38 L4,8.448 C4,5.995 5.995,4 8.448,4 L39.379,4 C41.832,4 43.827,5.995 43.827,8.448 L43.827,39.38 Z M39.379,2 L8.448,2 C4.893,2 2,4.893 2,8.448 L2,39.38 C2,42.935 4.893,45.827 8.448,45.827 L39.379,45.827 C42.935,45.827 45.827,42.935 45.827,39.38 L45.827,8.448 C45.827,4.893 42.935,2 39.379,2 L39.379,2 Z" id="Amazon-EC2-Instance-with-CloudWatch_Resource-Icon_light-bg" fill="#000000"></path>
    </g><g transform="translate(25, 83)" id="svgGroup" stroke-linecap="round" fill-rule="evenodd" font-size="9pt" stroke="#000" stroke-width="0.25mm" fill="#000" style="stroke:#000;stroke-width:0.25mm;fill:#000"><path d="M 3.617 2.839 L 3.617 3.529 L 0.844 3.529 L 0.844 5.796 L 4.065 5.796 L 4.065 6.486 L 0 6.486 L 0 0.088 L 4.021 0.088 L 4.021 0.782 L 0.844 0.782 L 0.844 2.839 L 3.617 2.839 Z M 8.974 4.456 L 9.822 4.456 A 3.016 3.016 0 0 1 9.661 5.152 A 2.099 2.099 0 0 1 9.073 6.023 Q 8.442 6.574 7.396 6.574 A 2.553 2.553 0 0 1 6.527 6.432 A 2.194 2.194 0 0 1 5.579 5.761 A 2.789 2.789 0 0 1 5.017 4.638 Q 4.911 4.22 4.897 3.728 A 5.262 5.262 0 0 1 4.896 3.586 L 4.896 2.971 A 4.251 4.251 0 0 1 4.966 2.182 A 3.229 3.229 0 0 1 5.214 1.402 A 2.539 2.539 0 0 1 5.67 0.726 A 2.26 2.26 0 0 1 6.117 0.363 A 2.415 2.415 0 0 1 7.143 0.017 A 3.027 3.027 0 0 1 7.471 0 A 2.962 2.962 0 0 1 8.177 0.08 A 2.065 2.065 0 0 1 9.105 0.569 A 2.16 2.16 0 0 1 9.7 1.531 A 3.086 3.086 0 0 1 9.822 2.145 L 8.974 2.145 Q 8.905 1.666 8.735 1.352 A 1.223 1.223 0 0 0 8.497 1.037 A 1.207 1.207 0 0 0 7.992 0.76 Q 7.804 0.707 7.581 0.697 A 2.396 2.396 0 0 0 7.471 0.694 A 1.753 1.753 0 0 0 6.892 0.786 A 1.463 1.463 0 0 0 6.203 1.292 A 1.989 1.989 0 0 0 5.889 1.912 Q 5.744 2.372 5.744 2.993 L 5.744 3.612 Q 5.744 4.654 6.179 5.269 A 1.38 1.38 0 0 0 7.177 5.872 A 1.814 1.814 0 0 0 7.396 5.884 A 2.497 2.497 0 0 0 7.803 5.853 Q 8.023 5.817 8.199 5.738 A 1.155 1.155 0 0 0 8.475 5.566 Q 8.851 5.247 8.974 4.456 Z M 14.955 5.823 L 14.955 6.486 L 10.762 6.486 L 10.762 5.902 L 12.977 3.441 A 9.853 9.853 0 0 0 13.23 3.144 Q 13.468 2.851 13.601 2.63 A 2.159 2.159 0 0 0 13.656 2.534 Q 13.843 2.184 13.843 1.811 A 1.354 1.354 0 0 0 13.791 1.427 A 1.067 1.067 0 0 0 13.54 0.989 Q 13.236 0.668 12.731 0.668 A 1.71 1.71 0 0 0 12.346 0.709 Q 12.009 0.787 11.788 1.013 Q 11.469 1.341 11.453 1.914 A 2.18 2.18 0 0 0 11.452 1.973 L 10.639 1.973 Q 10.639 1.09 11.208 0.545 A 1.914 1.914 0 0 1 12.166 0.055 A 2.782 2.782 0 0 1 12.731 0 A 2.749 2.749 0 0 1 13.312 0.058 Q 13.69 0.14 13.975 0.337 A 1.626 1.626 0 0 1 14.142 0.468 A 1.546 1.546 0 0 1 14.65 1.501 A 2.151 2.151 0 0 1 14.66 1.714 A 1.917 1.917 0 0 1 14.519 2.402 Q 14.298 2.978 13.725 3.659 A 8.818 8.818 0 0 1 13.456 3.964 L 11.742 5.823 L 14.955 5.823 Z M 29.079 3.129 L 28.261 3.129 Q 28.261 2.795 27.978 2.553 Q 27.694 2.312 27.264 2.312 Q 26.82 2.312 26.569 2.505 A 0.653 0.653 0 0 0 26.394 2.704 Q 26.321 2.835 26.319 3 A 0.771 0.771 0 0 0 26.319 3.01 A 0.588 0.588 0 0 0 26.349 3.203 A 0.48 0.48 0 0 0 26.552 3.454 A 1.093 1.093 0 0 0 26.702 3.533 Q 26.866 3.605 27.122 3.673 A 6.581 6.581 0 0 0 27.393 3.74 A 6.318 6.318 0 0 1 27.801 3.845 Q 28.138 3.944 28.38 4.065 A 1.901 1.901 0 0 1 28.636 4.218 Q 28.773 4.315 28.87 4.429 A 1.06 1.06 0 0 1 28.94 4.52 A 1.024 1.024 0 0 1 29.102 4.927 A 1.388 1.388 0 0 1 29.123 5.168 Q 29.123 5.805 28.613 6.19 Q 28.13 6.554 27.376 6.573 A 3.337 3.337 0 0 1 27.29 6.574 A 2.746 2.746 0 0 1 26.756 6.525 A 2.124 2.124 0 0 1 26.279 6.372 A 1.771 1.771 0 0 1 25.845 6.094 A 1.54 1.54 0 0 1 25.592 5.807 Q 25.343 5.445 25.343 5.023 L 26.156 5.023 A 0.932 0.932 0 0 0 26.23 5.348 A 0.827 0.827 0 0 0 26.484 5.671 A 1.072 1.072 0 0 0 26.886 5.864 Q 27.04 5.903 27.222 5.91 A 2.013 2.013 0 0 0 27.29 5.911 A 1.863 1.863 0 0 0 27.586 5.889 Q 27.747 5.863 27.879 5.806 A 0.941 0.941 0 0 0 28.031 5.724 A 0.689 0.689 0 0 0 28.195 5.574 A 0.554 0.554 0 0 0 28.31 5.225 A 0.698 0.698 0 0 0 28.273 4.994 A 0.581 0.581 0 0 0 28.061 4.713 A 1.05 1.05 0 0 0 27.892 4.615 Q 27.704 4.524 27.409 4.449 A 5.392 5.392 0 0 0 27.196 4.399 A 6.342 6.342 0 0 1 26.835 4.311 Q 26.465 4.21 26.216 4.083 Q 25.917 3.93 25.746 3.731 A 1.017 1.017 0 0 1 25.679 3.643 Q 25.506 3.388 25.506 3.037 A 1.206 1.206 0 0 1 25.905 2.132 A 1.694 1.694 0 0 1 26 2.048 A 1.752 1.752 0 0 1 26.783 1.688 A 2.471 2.471 0 0 1 27.264 1.644 A 2.559 2.559 0 0 1 27.827 1.702 A 1.757 1.757 0 0 1 28.575 2.061 Q 29.079 2.479 29.079 3.129 Z M 20.575 1.732 L 21.344 1.732 L 21.371 2.329 Q 21.907 1.654 22.767 1.644 A 2.234 2.234 0 0 1 22.794 1.644 A 1.905 1.905 0 0 1 23.428 1.74 Q 24.27 2.037 24.313 3.242 A 3.668 3.668 0 0 1 24.315 3.344 L 24.315 6.486 L 23.502 6.486 L 23.502 3.34 A 1.837 1.837 0 0 0 23.48 3.06 Q 23.43 2.753 23.267 2.58 Q 23.081 2.381 22.727 2.343 A 1.66 1.66 0 0 0 22.548 2.334 A 1.253 1.253 0 0 0 22.134 2.4 A 1.123 1.123 0 0 0 21.854 2.545 A 1.432 1.432 0 0 0 21.388 3.098 L 21.388 6.486 L 20.575 6.486 L 20.575 1.732 Z M 38.017 1.732 L 38.786 1.732 L 38.813 2.329 Q 39.349 1.654 40.209 1.644 A 2.234 2.234 0 0 1 40.236 1.644 A 1.905 1.905 0 0 1 40.87 1.74 Q 41.712 2.037 41.755 3.242 A 3.668 3.668 0 0 1 41.757 3.344 L 41.757 6.486 L 40.944 6.486 L 40.944 3.34 A 1.837 1.837 0 0 0 40.922 3.06 Q 40.871 2.753 40.709 2.58 Q 40.523 2.381 40.169 2.343 A 1.66 1.66 0 0 0 39.99 2.334 A 1.253 1.253 0 0 0 39.576 2.4 A 1.123 1.123 0 0 0 39.296 2.545 A 1.432 1.432 0 0 0 38.83 3.098 L 38.83 6.486 L 38.017 6.486 L 38.017 1.732 Z M 46.011 4.988 L 46.78 4.988 A 1.432 1.432 0 0 1 46.581 5.638 A 1.772 1.772 0 0 1 46.499 5.766 A 1.828 1.828 0 0 1 45.889 6.31 A 2.169 2.169 0 0 1 45.806 6.355 A 1.997 1.997 0 0 1 44.89 6.574 A 2.346 2.346 0 0 1 44.193 6.476 A 1.839 1.839 0 0 1 43.345 5.926 A 2.171 2.171 0 0 1 42.882 5.046 Q 42.772 4.645 42.772 4.153 L 42.772 4.017 A 3.24 3.24 0 0 1 42.836 3.361 A 2.57 2.57 0 0 1 43.027 2.782 A 2.008 2.008 0 0 1 43.466 2.168 A 1.892 1.892 0 0 1 43.759 1.942 A 1.943 1.943 0 0 1 44.515 1.67 A 2.529 2.529 0 0 1 44.886 1.644 A 2.196 2.196 0 0 1 45.534 1.735 A 1.786 1.786 0 0 1 46.215 2.123 A 1.693 1.693 0 0 1 46.773 3.272 A 2.239 2.239 0 0 1 46.78 3.366 L 46.011 3.366 Q 45.976 2.905 45.661 2.608 A 1.078 1.078 0 0 0 44.932 2.312 A 1.402 1.402 0 0 0 44.886 2.312 A 1.374 1.374 0 0 0 44.464 2.373 A 1.081 1.081 0 0 0 43.926 2.758 A 1.469 1.469 0 0 0 43.699 3.205 Q 43.633 3.41 43.605 3.66 A 3.514 3.514 0 0 0 43.585 4.047 L 43.585 4.201 Q 43.585 5.023 43.923 5.467 A 1.1 1.1 0 0 0 44.71 5.901 A 1.611 1.611 0 0 0 44.89 5.911 A 1.171 1.171 0 0 0 45.65 5.647 A 1.007 1.007 0 0 0 45.894 5.366 A 0.914 0.914 0 0 0 46.011 4.988 Z M 36.91 6.486 L 36.057 6.486 A 0.632 0.632 0 0 1 36.022 6.396 Q 35.99 6.298 35.966 6.146 A 3.997 3.997 0 0 1 35.943 5.985 Q 35.376 6.574 34.589 6.574 A 2.033 2.033 0 0 1 34.06 6.509 A 1.529 1.529 0 0 1 33.436 6.177 Q 32.985 5.779 32.985 5.168 Q 32.985 4.425 33.55 4.014 Q 34.115 3.604 35.139 3.604 L 35.93 3.604 L 35.93 3.23 A 1.152 1.152 0 0 0 35.894 2.935 A 0.828 0.828 0 0 0 35.675 2.551 Q 35.459 2.337 35.068 2.304 A 1.748 1.748 0 0 0 34.923 2.298 Q 34.488 2.298 34.194 2.518 Q 33.899 2.738 33.899 3.05 L 33.082 3.05 A 1.041 1.041 0 0 1 33.207 2.561 A 1.409 1.409 0 0 1 33.335 2.362 Q 33.587 2.03 34.02 1.837 A 2.249 2.249 0 0 1 34.796 1.649 A 2.669 2.669 0 0 1 34.972 1.644 A 2.65 2.65 0 0 1 35.489 1.691 Q 35.796 1.752 36.035 1.892 A 1.439 1.439 0 0 1 36.259 2.055 A 1.396 1.396 0 0 1 36.713 2.881 A 1.998 1.998 0 0 1 36.743 3.186 L 36.743 5.375 Q 36.743 5.809 36.816 6.126 A 1.707 1.707 0 0 0 36.91 6.416 L 36.91 6.486 Z M 47.487 4.241 L 47.487 4.091 A 3.17 3.17 0 0 1 47.564 3.382 A 2.581 2.581 0 0 1 47.758 2.828 A 2.191 2.191 0 0 1 48.205 2.202 A 2.033 2.033 0 0 1 48.513 1.958 Q 48.999 1.644 49.566 1.644 A 2.254 2.254 0 0 1 50.179 1.723 A 1.639 1.639 0 0 1 51.007 2.254 Q 51.521 2.865 51.521 4.004 L 51.521 4.342 L 48.3 4.342 A 2.111 2.111 0 0 0 48.371 4.85 A 1.516 1.516 0 0 0 48.711 5.478 A 1.282 1.282 0 0 0 49.645 5.909 A 1.652 1.652 0 0 0 49.711 5.911 A 1.763 1.763 0 0 0 50.039 5.882 Q 50.263 5.839 50.44 5.735 A 1.827 1.827 0 0 0 50.949 5.287 A 2.068 2.068 0 0 0 50.963 5.269 L 51.46 5.656 A 1.926 1.926 0 0 1 50.06 6.547 A 2.749 2.749 0 0 1 49.667 6.574 A 2.394 2.394 0 0 1 48.916 6.461 A 1.974 1.974 0 0 1 48.094 5.939 Q 47.487 5.304 47.487 4.241 Z M 30.472 0.58 L 31.285 0.58 L 31.285 1.732 L 32.172 1.732 L 32.172 2.36 L 31.285 2.36 L 31.285 5.309 Q 31.285 5.594 31.403 5.737 Q 31.522 5.88 31.808 5.88 A 1.046 1.046 0 0 0 31.905 5.875 Q 32.008 5.865 32.148 5.837 A 4.024 4.024 0 0 0 32.194 5.827 L 32.194 6.486 A 2.463 2.463 0 0 1 31.762 6.566 A 2.157 2.157 0 0 1 31.57 6.574 Q 31.123 6.574 30.857 6.352 A 0.856 0.856 0 0 1 30.749 6.245 Q 30.521 5.974 30.481 5.516 A 2.351 2.351 0 0 1 30.472 5.309 L 30.472 2.36 L 29.606 2.36 L 29.606 1.732 L 30.472 1.732 L 30.472 0.58 Z M 19.16 0.088 L 19.16 6.486 L 18.316 6.486 L 18.316 0.088 L 19.16 0.088 Z M 35.93 5.155 L 35.93 4.179 L 35.292 4.179 Q 33.798 4.179 33.798 5.054 Q 33.798 5.436 34.053 5.651 A 0.893 0.893 0 0 0 34.467 5.845 A 1.259 1.259 0 0 0 34.708 5.867 A 1.429 1.429 0 0 0 35.433 5.669 A 1.335 1.335 0 0 0 35.729 5.442 A 1.108 1.108 0 0 0 35.93 5.155 Z M 48.327 3.674 L 50.708 3.674 L 50.708 3.612 Q 50.682 3.154 50.512 2.848 A 1.13 1.13 0 0 0 50.375 2.652 A 0.983 0.983 0 0 0 49.72 2.32 A 1.39 1.39 0 0 0 49.566 2.312 A 1.106 1.106 0 0 0 49.043 2.435 A 1.14 1.14 0 0 0 48.74 2.67 A 1.417 1.417 0 0 0 48.463 3.116 Q 48.39 3.3 48.35 3.522 A 2.741 2.741 0 0 0 48.327 3.674 Z" vector-effect="non-scaling-stroke"/></g><g transform="translate(25, 93)" id="svgGroup" stroke-linecap="round" fill-rule="evenodd" font-size="9pt" stroke="#000" stroke-width="0.25mm" fill="#000" style="stroke:#000;stroke-width:0.25mm;fill:#000"><path d="M 43.207 0.352 L 44.218 4.733 L 44.341 5.577 L 44.521 4.816 L 45.787 0.352 L 46.499 0.352 L 47.733 4.816 L 47.909 5.59 L 48.045 4.729 L 49.039 0.352 L 49.887 0.352 L 48.335 6.75 L 47.566 6.75 L 46.248 2.087 L 46.147 1.6 L 46.046 2.087 L 44.679 6.75 L 43.91 6.75 L 42.363 0.352 L 43.207 0.352 Z M 3.507 1.995 L 4.636 5.629 L 5.55 1.995 L 6.363 1.995 L 4.979 6.75 L 4.32 6.75 L 3.164 3.146 L 2.039 6.75 L 1.38 6.75 L 0 1.995 L 0.809 1.995 L 1.745 5.555 L 2.852 1.995 L 3.507 1.995 Z M 23.484 4.72 L 24.333 4.72 A 3.016 3.016 0 0 1 24.172 5.416 A 2.099 2.099 0 0 1 23.583 6.286 Q 22.953 6.838 21.907 6.838 A 2.553 2.553 0 0 1 21.038 6.696 A 2.194 2.194 0 0 1 20.09 6.025 A 2.789 2.789 0 0 1 19.528 4.901 Q 19.421 4.484 19.408 3.992 A 5.262 5.262 0 0 1 19.406 3.85 L 19.406 3.234 A 4.251 4.251 0 0 1 19.476 2.445 A 3.229 3.229 0 0 1 19.725 1.666 A 2.539 2.539 0 0 1 20.18 0.99 A 2.26 2.26 0 0 1 20.628 0.626 A 2.415 2.415 0 0 1 21.654 0.281 A 3.027 3.027 0 0 1 21.981 0.264 A 2.962 2.962 0 0 1 22.688 0.343 A 2.065 2.065 0 0 1 23.616 0.833 A 2.16 2.16 0 0 1 24.211 1.795 A 3.086 3.086 0 0 1 24.333 2.408 L 23.484 2.408 Q 23.416 1.929 23.246 1.616 A 1.223 1.223 0 0 0 23.008 1.301 A 1.207 1.207 0 0 0 22.502 1.024 Q 22.315 0.971 22.092 0.961 A 2.396 2.396 0 0 0 21.981 0.958 A 1.753 1.753 0 0 0 21.403 1.049 A 1.463 1.463 0 0 0 20.714 1.556 A 1.989 1.989 0 0 0 20.4 2.175 Q 20.254 2.636 20.254 3.256 L 20.254 3.876 Q 20.254 4.917 20.689 5.533 A 1.38 1.38 0 0 0 21.688 6.135 A 1.814 1.814 0 0 0 21.907 6.148 A 2.497 2.497 0 0 0 22.314 6.117 Q 22.534 6.08 22.709 6.002 A 1.155 1.155 0 0 0 22.986 5.829 Q 23.361 5.511 23.484 4.72 Z M 13.126 0 L 13.126 2.571 A 1.767 1.767 0 0 1 13.793 2.053 A 1.832 1.832 0 0 1 14.533 1.907 A 1.905 1.905 0 0 1 15.166 2.004 Q 16.008 2.3 16.051 3.506 A 3.668 3.668 0 0 1 16.053 3.608 L 16.053 6.75 L 15.24 6.75 L 15.24 3.604 A 1.837 1.837 0 0 0 15.218 3.324 Q 15.168 3.017 15.005 2.843 Q 14.819 2.645 14.466 2.606 A 1.66 1.66 0 0 0 14.287 2.597 A 1.253 1.253 0 0 0 13.872 2.664 A 1.123 1.123 0 0 0 13.592 2.808 A 1.432 1.432 0 0 0 13.126 3.362 L 13.126 6.75 L 12.313 6.75 L 12.313 0 L 13.126 0 Z M 63.91 0 L 63.91 2.571 A 1.767 1.767 0 0 1 64.576 2.053 A 1.832 1.832 0 0 1 65.316 1.907 A 1.905 1.905 0 0 1 65.949 2.004 Q 66.791 2.3 66.834 3.506 A 3.668 3.668 0 0 1 66.836 3.608 L 66.836 6.75 L 66.023 6.75 L 66.023 3.604 A 1.837 1.837 0 0 0 66.001 3.324 Q 65.951 3.017 65.788 2.843 Q 65.602 2.645 65.249 2.606 A 1.66 1.66 0 0 0 65.07 2.597 A 1.253 1.253 0 0 0 64.655 2.664 A 1.123 1.123 0 0 0 64.375 2.808 A 1.432 1.432 0 0 0 63.91 3.362 L 63.91 6.75 L 63.097 6.75 L 63.097 0 L 63.91 0 Z M 95.506 0 L 95.506 2.571 A 1.767 1.767 0 0 1 96.172 2.053 A 1.832 1.832 0 0 1 96.913 1.907 A 1.905 1.905 0 0 1 97.546 2.004 Q 98.388 2.3 98.431 3.506 A 3.668 3.668 0 0 1 98.433 3.608 L 98.433 6.75 L 97.62 6.75 L 97.62 3.604 A 1.837 1.837 0 0 0 97.598 3.324 Q 97.548 3.017 97.385 2.843 Q 97.199 2.645 96.846 2.606 A 1.66 1.66 0 0 0 96.667 2.597 A 1.253 1.253 0 0 0 96.252 2.664 A 1.123 1.123 0 0 0 95.972 2.808 A 1.432 1.432 0 0 0 95.506 3.362 L 95.506 6.75 L 94.693 6.75 L 94.693 0 L 95.506 0 Z M 92.685 2.522 L 92.725 1.995 L 93.467 1.995 L 93.467 6.636 A 2.511 2.511 0 0 1 93.397 7.249 A 1.738 1.738 0 0 1 92.92 8.09 A 1.834 1.834 0 0 1 91.99 8.57 A 2.671 2.671 0 0 1 91.45 8.622 A 2.446 2.446 0 0 1 90.444 8.402 A 2.003 2.003 0 0 1 90.034 8.161 A 1.563 1.563 0 0 1 89.692 7.8 L 90.114 7.313 A 1.889 1.889 0 0 0 90.549 7.712 A 1.514 1.514 0 0 0 91.393 7.958 A 1.695 1.695 0 0 0 91.77 7.919 Q 92.038 7.858 92.233 7.702 A 1.037 1.037 0 0 0 92.318 7.625 A 1.09 1.09 0 0 0 92.595 7.132 Q 92.642 6.959 92.649 6.752 A 2.134 2.134 0 0 0 92.65 6.684 L 92.65 6.275 A 1.601 1.601 0 0 1 91.598 6.821 A 2.279 2.279 0 0 1 91.318 6.838 A 1.672 1.672 0 0 1 90.563 6.67 Q 90.241 6.51 89.991 6.197 A 2.14 2.14 0 0 1 89.967 6.166 A 2.316 2.316 0 0 1 89.584 5.386 Q 89.451 4.922 89.451 4.333 Q 89.451 3.472 89.759 2.884 A 2.096 2.096 0 0 1 89.965 2.564 Q 90.479 1.907 91.327 1.907 A 1.971 1.971 0 0 1 91.926 1.994 A 1.55 1.55 0 0 1 92.685 2.522 Z M 35.626 6.75 L 35.609 6.28 A 1.526 1.526 0 0 1 34.783 6.775 Q 34.532 6.836 34.235 6.838 A 2.996 2.996 0 0 1 34.216 6.838 A 2.086 2.086 0 0 1 33.756 6.79 Q 33.325 6.693 33.058 6.396 A 1.41 1.41 0 0 1 32.775 5.899 Q 32.658 5.556 32.656 5.089 L 32.656 1.995 L 33.469 1.995 L 33.469 5.067 Q 33.469 6.037 34.176 6.137 A 1.229 1.229 0 0 0 34.348 6.148 A 1.927 1.927 0 0 0 34.799 6.099 Q 35.361 5.964 35.587 5.454 L 35.587 1.995 L 36.4 1.995 L 36.4 6.75 L 35.626 6.75 Z M 61.414 5.251 L 62.183 5.251 A 1.432 1.432 0 0 1 61.983 5.901 A 1.772 1.772 0 0 1 61.901 6.029 A 1.828 1.828 0 0 1 61.292 6.574 A 2.169 2.169 0 0 1 61.209 6.618 A 1.997 1.997 0 0 1 60.293 6.838 A 2.346 2.346 0 0 1 59.596 6.739 A 1.839 1.839 0 0 1 58.748 6.19 A 2.171 2.171 0 0 1 58.285 5.31 Q 58.175 4.909 58.175 4.417 L 58.175 4.28 A 3.24 3.24 0 0 1 58.239 3.624 A 2.57 2.57 0 0 1 58.43 3.045 A 2.008 2.008 0 0 1 58.869 2.431 A 1.892 1.892 0 0 1 59.161 2.206 A 1.943 1.943 0 0 1 59.918 1.934 A 2.529 2.529 0 0 1 60.289 1.907 A 2.196 2.196 0 0 1 60.937 1.999 A 1.786 1.786 0 0 1 61.618 2.386 A 1.693 1.693 0 0 1 62.176 3.535 A 2.239 2.239 0 0 1 62.183 3.63 L 61.414 3.63 Q 61.378 3.168 61.064 2.872 A 1.078 1.078 0 0 0 60.335 2.576 A 1.402 1.402 0 0 0 60.289 2.575 A 1.374 1.374 0 0 0 59.867 2.637 A 1.081 1.081 0 0 0 59.328 3.021 A 1.469 1.469 0 0 0 59.102 3.468 Q 59.036 3.674 59.008 3.923 A 3.514 3.514 0 0 0 58.988 4.311 L 58.988 4.465 Q 58.988 5.287 59.326 5.73 A 1.1 1.1 0 0 0 60.113 6.165 A 1.611 1.611 0 0 0 60.293 6.174 A 1.171 1.171 0 0 0 61.053 5.911 A 1.007 1.007 0 0 0 61.297 5.629 A 0.914 0.914 0 0 0 61.414 5.251 Z M 54.338 6.75 L 53.486 6.75 A 0.632 0.632 0 0 1 53.45 6.66 Q 53.419 6.562 53.394 6.41 A 3.997 3.997 0 0 1 53.372 6.249 Q 52.805 6.838 52.018 6.838 A 2.033 2.033 0 0 1 51.489 6.772 A 1.529 1.529 0 0 1 50.865 6.44 Q 50.414 6.042 50.414 5.432 Q 50.414 4.689 50.979 4.278 Q 51.543 3.867 52.567 3.867 L 53.358 3.867 L 53.358 3.494 A 1.152 1.152 0 0 0 53.323 3.199 A 0.828 0.828 0 0 0 53.104 2.815 Q 52.887 2.6 52.497 2.568 A 1.748 1.748 0 0 0 52.352 2.562 Q 51.917 2.562 51.623 2.782 Q 51.328 3.001 51.328 3.313 L 50.511 3.313 A 1.041 1.041 0 0 1 50.636 2.825 A 1.409 1.409 0 0 1 50.763 2.626 Q 51.016 2.294 51.449 2.101 A 2.249 2.249 0 0 1 52.225 1.913 A 2.669 2.669 0 0 1 52.4 1.907 A 2.65 2.65 0 0 1 52.918 1.955 Q 53.225 2.016 53.464 2.156 A 1.439 1.439 0 0 1 53.688 2.318 A 1.396 1.396 0 0 1 54.141 3.144 A 1.998 1.998 0 0 1 54.171 3.45 L 54.171 5.638 Q 54.171 6.073 54.245 6.39 A 1.707 1.707 0 0 0 54.338 6.68 L 54.338 6.75 Z M 37.437 4.395 L 37.437 4.333 A 3.762 3.762 0 0 1 37.504 3.602 Q 37.592 3.16 37.794 2.812 A 2.148 2.148 0 0 1 37.956 2.573 Q 38.474 1.907 39.313 1.907 A 1.964 1.964 0 0 1 39.911 1.994 A 1.559 1.559 0 0 1 40.636 2.479 L 40.636 0 L 41.449 0 L 41.449 6.75 L 40.702 6.75 L 40.663 6.24 Q 40.175 6.838 39.305 6.838 A 1.6 1.6 0 0 1 38.084 6.31 A 2.078 2.078 0 0 1 37.958 6.161 A 2.405 2.405 0 0 1 37.533 5.255 Q 37.449 4.912 37.439 4.51 A 4.425 4.425 0 0 1 37.437 4.395 Z M 83.593 0.352 L 83.593 6.06 L 86.625 6.06 L 86.625 6.75 L 82.745 6.75 L 82.745 0.352 L 83.593 0.352 Z M 73.63 0.352 L 73.63 4.601 L 74.518 4.601 L 74.518 5.265 L 73.63 5.265 L 73.63 6.75 L 72.813 6.75 L 72.813 5.265 L 69.899 5.265 L 69.899 4.786 L 72.765 0.352 L 73.63 0.352 Z M 79.029 2.592 A 1.544 1.544 0 0 0 79.132 2.021 A 2.226 2.226 0 0 0 79.111 1.707 A 1.566 1.566 0 0 0 78.612 0.738 A 1.754 1.754 0 0 0 77.846 0.333 A 2.443 2.443 0 0 0 77.247 0.264 A 2.539 2.539 0 0 0 76.738 0.312 A 1.767 1.767 0 0 0 75.88 0.738 Q 75.362 1.213 75.362 2.021 A 1.808 1.808 0 0 0 75.362 2.058 A 1.499 1.499 0 0 0 75.608 2.87 A 1.626 1.626 0 0 0 75.77 3.077 A 1.726 1.726 0 0 0 76.28 3.454 A 2.119 2.119 0 0 0 76.181 3.5 A 1.738 1.738 0 0 0 75.496 4.087 A 1.629 1.629 0 0 0 75.212 5.023 A 2.272 2.272 0 0 0 75.222 5.237 A 1.63 1.63 0 0 0 75.768 6.344 A 1.895 1.895 0 0 0 76.619 6.771 A 2.797 2.797 0 0 0 77.247 6.838 A 2.796 2.796 0 0 0 77.846 6.777 A 1.925 1.925 0 0 0 78.721 6.346 A 1.578 1.578 0 0 0 79.196 5.62 A 1.989 1.989 0 0 0 79.282 5.023 A 1.581 1.581 0 0 0 78.99 4.087 Q 78.697 3.674 78.196 3.458 Q 78.627 3.248 78.88 2.874 A 1.449 1.449 0 0 0 79.029 2.592 Z M 9.664 0.844 L 10.477 0.844 L 10.477 1.995 L 11.364 1.995 L 11.364 2.624 L 10.477 2.624 L 10.477 5.572 Q 10.477 5.858 10.595 6.001 Q 10.714 6.144 11 6.144 A 1.046 1.046 0 0 0 11.097 6.138 Q 11.2 6.129 11.34 6.101 A 4.024 4.024 0 0 0 11.386 6.091 L 11.386 6.75 A 2.463 2.463 0 0 1 10.953 6.829 A 2.157 2.157 0 0 1 10.762 6.838 Q 10.315 6.838 10.048 6.616 A 0.856 0.856 0 0 1 9.94 6.508 Q 9.713 6.238 9.672 5.78 A 2.351 2.351 0 0 1 9.664 5.572 L 9.664 2.624 L 8.798 2.624 L 8.798 1.995 L 9.664 1.995 L 9.664 0.844 Z M 55.736 0.844 L 56.549 0.844 L 56.549 1.995 L 57.437 1.995 L 57.437 2.624 L 56.549 2.624 L 56.549 5.572 Q 56.549 5.858 56.667 6.001 Q 56.786 6.144 57.072 6.144 A 1.046 1.046 0 0 0 57.169 6.138 Q 57.272 6.129 57.412 6.101 A 4.024 4.024 0 0 0 57.458 6.091 L 57.458 6.75 A 2.463 2.463 0 0 1 57.026 6.829 A 2.157 2.157 0 0 1 56.834 6.838 Q 56.387 6.838 56.121 6.616 A 0.856 0.856 0 0 1 56.013 6.508 Q 55.785 6.238 55.745 5.78 A 2.351 2.351 0 0 1 55.736 5.572 L 55.736 2.624 L 54.87 2.624 L 54.87 1.995 L 55.736 1.995 L 55.736 0.844 Z M 99.94 0.844 L 100.753 0.844 L 100.753 1.995 L 101.641 1.995 L 101.641 2.624 L 100.753 2.624 L 100.753 5.572 Q 100.753 5.858 100.872 6.001 Q 100.991 6.144 101.276 6.144 A 1.046 1.046 0 0 0 101.374 6.138 Q 101.477 6.129 101.616 6.101 A 4.024 4.024 0 0 0 101.663 6.091 L 101.663 6.75 A 2.463 2.463 0 0 1 101.23 6.829 A 2.157 2.157 0 0 1 101.039 6.838 Q 100.592 6.838 100.325 6.616 A 0.856 0.856 0 0 1 100.217 6.508 Q 99.99 6.238 99.949 5.78 A 2.351 2.351 0 0 1 99.94 5.572 L 99.94 2.624 L 99.075 2.624 L 99.075 1.995 L 99.94 1.995 L 99.94 0.844 Z M 26.24 0 L 26.24 6.75 L 25.427 6.75 L 25.427 0 L 26.24 0 Z M 27.325 4.386 L 27.325 4.329 A 3.057 3.057 0 0 1 27.412 3.587 A 2.573 2.573 0 0 1 27.6 3.072 A 2.16 2.16 0 0 1 28.015 2.486 A 1.957 1.957 0 0 1 28.365 2.21 A 2.036 2.036 0 0 1 29.309 1.913 A 2.491 2.491 0 0 1 29.483 1.907 A 2.277 2.277 0 0 1 30.236 2.027 A 1.937 1.937 0 0 1 31.054 2.58 A 2.29 2.29 0 0 1 31.573 3.608 A 3.373 3.373 0 0 1 31.654 4.368 L 31.654 4.425 A 3.114 3.114 0 0 1 31.574 5.142 A 2.577 2.577 0 0 1 31.388 5.671 A 2.056 2.056 0 0 1 30.861 6.361 A 2.001 2.001 0 0 1 30.628 6.53 A 2.045 2.045 0 0 1 29.708 6.829 A 2.529 2.529 0 0 1 29.492 6.838 A 2.262 2.262 0 0 1 28.741 6.718 A 1.938 1.938 0 0 1 27.925 6.166 A 2.297 2.297 0 0 1 27.399 5.111 A 3.357 3.357 0 0 1 27.325 4.386 Z M 8.073 1.995 L 8.073 6.75 L 7.26 6.75 L 7.26 1.995 L 8.073 1.995 Z M 88.343 1.995 L 88.343 6.75 L 87.53 6.75 L 87.53 1.995 L 88.343 1.995 Z M 28.143 4.425 A 2.772 2.772 0 0 0 28.19 4.954 Q 28.25 5.264 28.388 5.51 A 1.545 1.545 0 0 0 28.51 5.695 Q 28.876 6.174 29.492 6.174 A 1.269 1.269 0 0 0 29.981 6.083 Q 30.26 5.967 30.463 5.706 A 1.471 1.471 0 0 0 30.476 5.689 A 1.648 1.648 0 0 0 30.731 5.171 Q 30.8 4.945 30.825 4.672 A 3.655 3.655 0 0 0 30.841 4.329 A 2.687 2.687 0 0 0 30.79 3.789 Q 30.722 3.459 30.565 3.2 A 1.586 1.586 0 0 0 30.469 3.061 A 1.231 1.231 0 0 0 30.054 2.705 Q 29.801 2.575 29.483 2.575 Q 28.893 2.575 28.527 3.035 A 1.515 1.515 0 0 0 28.512 3.054 A 1.589 1.589 0 0 0 28.26 3.552 Q 28.19 3.772 28.162 4.039 A 3.676 3.676 0 0 0 28.143 4.425 Z M 40.636 5.454 L 40.636 3.27 A 1.375 1.375 0 0 0 40.325 2.874 Q 40.001 2.597 39.516 2.597 A 1.238 1.238 0 0 0 39.089 2.668 A 1.068 1.068 0 0 0 38.584 3.059 A 1.51 1.51 0 0 0 38.375 3.484 Q 38.309 3.689 38.278 3.939 A 3.955 3.955 0 0 0 38.25 4.425 A 3.162 3.162 0 0 0 38.286 4.918 Q 38.327 5.178 38.415 5.389 A 1.474 1.474 0 0 0 38.584 5.691 A 1.06 1.06 0 0 0 39.346 6.139 A 1.391 1.391 0 0 0 39.507 6.148 Q 40.28 6.148 40.636 5.454 Z M 92.65 5.449 L 92.65 3.278 A 1.439 1.439 0 0 0 92.349 2.891 Q 92.045 2.62 91.605 2.599 A 1.578 1.578 0 0 0 91.529 2.597 Q 90.937 2.597 90.604 3.056 A 1.51 1.51 0 0 0 90.393 3.484 Q 90.327 3.689 90.296 3.939 A 3.955 3.955 0 0 0 90.268 4.425 Q 90.268 5.229 90.598 5.689 Q 90.927 6.148 91.521 6.148 A 1.32 1.32 0 0 0 92.03 6.054 Q 92.422 5.891 92.65 5.449 Z M 72.716 1.639 L 70.822 4.601 L 72.813 4.601 L 72.813 1.463 L 72.716 1.639 Z M 78.469 5.005 A 1.375 1.375 0 0 0 78.409 4.592 A 1.109 1.109 0 0 0 78.128 4.131 A 1.148 1.148 0 0 0 77.457 3.807 A 1.593 1.593 0 0 0 77.238 3.792 A 1.466 1.466 0 0 0 76.85 3.841 A 1.086 1.086 0 0 0 76.357 4.126 A 1.123 1.123 0 0 0 76.044 4.762 A 1.572 1.572 0 0 0 76.025 5.005 A 1.48 1.48 0 0 0 76.067 5.367 A 1.019 1.019 0 0 0 76.348 5.862 Q 76.654 6.158 77.187 6.173 A 2.053 2.053 0 0 0 77.247 6.174 Q 77.741 6.174 78.051 5.94 A 1.018 1.018 0 0 0 78.144 5.86 A 1.041 1.041 0 0 0 78.443 5.292 A 1.518 1.518 0 0 0 78.469 5.005 Z M 77.247 0.932 A 1.259 1.259 0 0 0 76.894 0.979 A 0.973 0.973 0 0 0 76.471 1.228 Q 76.175 1.525 76.175 2.035 A 1.325 1.325 0 0 0 76.219 2.387 A 0.994 0.994 0 0 0 76.467 2.823 A 0.974 0.974 0 0 0 77.029 3.108 A 1.382 1.382 0 0 0 77.247 3.125 A 1.279 1.279 0 0 0 77.592 3.08 A 0.952 0.952 0 0 0 78.027 2.823 A 1.018 1.018 0 0 0 78.302 2.26 A 1.426 1.426 0 0 0 78.319 2.035 A 1.282 1.282 0 0 0 78.269 1.668 A 1.013 1.013 0 0 0 78.016 1.239 Q 77.713 0.932 77.247 0.932 Z M 53.358 5.418 L 53.358 4.443 L 52.721 4.443 Q 51.227 4.443 51.227 5.317 Q 51.227 5.7 51.482 5.915 A 0.893 0.893 0 0 0 51.895 6.108 A 1.259 1.259 0 0 0 52.137 6.13 A 1.429 1.429 0 0 0 52.862 5.933 A 1.335 1.335 0 0 0 53.157 5.705 A 1.108 1.108 0 0 0 53.358 5.418 Z M 7.194 0.734 Q 7.194 0.536 7.315 0.4 Q 7.427 0.274 7.638 0.264 A 0.783 0.783 0 0 1 7.673 0.264 Q 7.91 0.264 8.033 0.4 A 0.474 0.474 0 0 1 8.155 0.703 A 0.614 0.614 0 0 1 8.156 0.734 A 0.523 0.523 0 0 1 8.131 0.9 A 0.442 0.442 0 0 1 8.033 1.063 Q 7.921 1.184 7.713 1.194 A 0.803 0.803 0 0 1 7.673 1.195 Q 7.501 1.195 7.39 1.126 A 0.362 0.362 0 0 1 7.315 1.063 A 0.456 0.456 0 0 1 7.196 0.788 A 0.605 0.605 0 0 1 7.194 0.734 Z M 87.464 0.734 Q 87.464 0.536 87.585 0.4 Q 87.697 0.274 87.909 0.264 A 0.783 0.783 0 0 1 87.943 0.264 Q 88.181 0.264 88.304 0.4 A 0.474 0.474 0 0 1 88.426 0.703 A 0.614 0.614 0 0 1 88.427 0.734 A 0.523 0.523 0 0 1 88.401 0.9 A 0.442 0.442 0 0 1 88.304 1.063 Q 88.191 1.184 87.983 1.194 A 0.803 0.803 0 0 1 87.943 1.195 Q 87.771 1.195 87.66 1.126 A 0.362 0.362 0 0 1 87.585 1.063 A 0.456 0.456 0 0 1 87.467 0.788 A 0.605 0.605 0 0 1 87.464 0.734 Z" vector-effect="non-scaling-stroke"/></g>
</svgversion="1.0" encoding="UTF-8"?>
<svg width="48px" height="48px" viewBox="0 0 48 48" version="1.1" xmlns="http://www.w3.org/2000/svg" xmlns:xlink="http://www.w3.org/1999/xlink">
    <title>Icon-Resource/Compute/Res_Amazon-EC2_Instance-with-CloudWatch_48_Light</title>
    <g id="Icon-Resource/Compute/Res_Amazon-EC2_Instance-with-CloudWatch_48" stroke="none" stroke-width="1" fill="none" fill-rule="evenodd">
        <path transform="translate(12.000000, 8.000000), scale(.65)" d="M37.545,37.089 C37.325,37.308 36.971,37.308 36.753,37.089 L32.934,33.272 C33.216,33.019 33.48,32.746 33.718,32.451 L37.547,36.298 C37.764,36.516 37.763,36.87 37.545,37.089 L37.545,37.089 Z M23.418,28.123 C23.418,25.413 25.623,23.208 28.333,23.208 C31.043,23.208 33.248,25.413 33.248,28.123 C33.248,30.833 31.043,33.038 28.333,33.038 C25.623,33.038 23.418,30.833 23.418,28.123 L23.418,28.123 Z M34.759,30.662 C35.071,29.875 35.248,29.02 35.248,28.123 C35.248,24.311 32.146,21.208 28.333,21.208 C24.521,21.208 21.418,24.311 21.418,28.123 C21.418,31.936 24.521,35.038 28.333,35.038 C29.367,35.038 30.346,34.803 31.229,34.395 L35.339,38.503 C35.838,39.002 36.493,39.252 37.149,39.252 C37.805,39.252 38.46,39.002 38.959,38.503 C39.956,37.506 39.958,35.884 38.964,34.887 L34.759,30.662 Z M30.254,24.945 L29.065,26.553 C28.309,25.994 27.246,26.155 26.691,26.905 C26.42,27.27 26.309,27.717 26.375,28.165 C26.441,28.613 26.679,29.009 27.043,29.278 L25.852,30.886 C25.059,30.298 24.542,29.436 24.397,28.459 C24.252,27.483 24.495,26.507 25.083,25.714 C26.298,24.076 28.617,23.733 30.254,24.945 L30.254,24.945 Z M39.76,25.443 C39.76,28.56 38.066,30.161 36.647,30.956 L35.67,29.21 C37.057,28.435 37.76,27.167 37.76,25.443 C37.76,22.107 34.975,21.274 33.777,21.07 C33.511,21.025 33.273,20.872 33.12,20.649 C32.984,20.45 32.926,20.211 32.951,19.975 C32.778,18.01 31.664,17.128 30.619,17.128 C29.969,17.128 29.355,17.453 28.935,18.02 C28.714,18.316 28.351,18.463 27.983,18.413 C27.619,18.359 27.314,18.108 27.19,17.76 C26.757,16.55 26.136,15.535 25.344,14.742 C24.378,13.777 21.73,11.704 17.991,13.283 C15.838,14.191 14.151,16.81 14.151,19.245 C14.151,19.52 14.167,19.794 14.199,20.059 C14.233,20.342 14.144,20.627 13.954,20.841 C13.809,21.004 13.615,21.114 13.403,21.157 C12.161,21.484 10.133,22.467 10.133,25.399 C10.133,27.642 11.355,28.878 12.38,29.52 C12.694,29.72 13.066,29.826 13.458,29.83 L20.244,29.837 L20.242,31.837 L13.446,31.83 C12.671,31.822 11.936,31.609 11.312,31.211 C10.128,30.47 8.133,28.724 8.133,25.399 C8.133,22.576 9.619,20.408 12.154,19.458 C12.152,19.387 12.151,19.317 12.151,19.245 C12.151,16.012 14.327,12.656 17.213,11.441 C20.587,10.017 24.153,10.723 26.758,13.328 C27.444,14.015 28.025,14.822 28.494,15.741 C29.129,15.344 29.858,15.128 30.619,15.128 C32.41,15.128 34.417,16.429 34.877,19.266 C37.36,19.936 39.76,21.842 39.76,25.443 L39.76,25.443 Z M43.827,39.38 C43.827,41.832 41.832,43.827 39.379,43.827 L8.448,43.827 C5.995,43.827 4,41.832 4,39.38 L4,8.448 C4,5.995 5.995,4 8.448,4 L39.379,4 C41.832,4 43.827,5.995 43.827,8.448 L43.827,39.38 Z M39.379,2 L8.448,2 C4.893,2 2,4.893 2,8.448 L2,39.38 C2,42.935 4.893,45.827 8.448,45.827 L39.379,45.827 C42.935,45.827 45.827,42.935 45.827,39.38 L45.827,8.448 C45.827,4.893 42.935,2 39.379,2 L39.379,2 Z" id="Amazon-EC2-Instance-with-CloudWatch_Resource-Icon_light-bg" fill="#000000"></path>
    </g><g transform="translate(25, 83)" id="svgGroup" stroke-linecap="round" fill-rule="evenodd" font-size="9pt" stroke="#000" stroke-width="0.25mm" fill="#000" style="stroke:#000;stroke-width:0.25mm;fill:#000"><path d="M 3.617 2.839 L 3.617 3.529 L 0.844 3.529 L 0.844 5.796 L 4.065 5.796 L 4.065 6.486 L 0 6.486 L 0 0.088 L 4.021 0.088 L 4.021 0.782 L 0.844 0.782 L 0.844 2.839 L 3.617 2.839 Z M 8.974 4.456 L 9.822 4.456 A 3.016 3.016 0 0 1 9.661 5.152 A 2.099 2.099 0 0 1 9.073 6.023 Q 8.442 6.574 7.396 6.574 A 2.553 2.553 0 0 1 6.527 6.432 A 2.194 2.194 0 0 1 5.579 5.761 A 2.789 2.789 0 0 1 5.017 4.638 Q 4.911 4.22 4.897 3.728 A 5.262 5.262 0 0 1 4.896 3.586 L 4.896 2.971 A 4.251 4.251 0 0 1 4.966 2.182 A 3.229 3.229 0 0 1 5.214 1.402 A 2.539 2.539 0 0 1 5.67 0.726 A 2.26 2.26 0 0 1 6.117 0.363 A 2.415 2.415 0 0 1 7.143 0.017 A 3.027 3.027 0 0 1 7.471 0 A 2.962 2.962 0 0 1 8.177 0.08 A 2.065 2.065 0 0 1 9.105 0.569 A 2.16 2.16 0 0 1 9.7 1.531 A 3.086 3.086 0 0 1 9.822 2.145 L 8.974 2.145 Q 8.905 1.666 8.735 1.352 A 1.223 1.223 0 0 0 8.497 1.037 A 1.207 1.207 0 0 0 7.992 0.76 Q 7.804 0.707 7.581 0.697 A 2.396 2.396 0 0 0 7.471 0.694 A 1.753 1.753 0 0 0 6.892 0.786 A 1.463 1.463 0 0 0 6.203 1.292 A 1.989 1.989 0 0 0 5.889 1.912 Q 5.744 2.372 5.744 2.993 L 5.744 3.612 Q 5.744 4.654 6.179 5.269 A 1.38 1.38 0 0 0 7.177 5.872 A 1.814 1.814 0 0 0 7.396 5.884 A 2.497 2.497 0 0 0 7.803 5.853 Q 8.023 5.817 8.199 5.738 A 1.155 1.155 0 0 0 8.475 5.566 Q 8.851 5.247 8.974 4.456 Z M 14.955 5.823 L 14.955 6.486 L 10.762 6.486 L 10.762 5.902 L 12.977 3.441 A 9.853 9.853 0 0 0 13.23 3.144 Q 13.468 2.851 13.601 2.63 A 2.159 2.159 0 0 0 13.656 2.534 Q 13.843 2.184 13.843 1.811 A 1.354 1.354 0 0 0 13.791 1.427 A 1.067 1.067 0 0 0 13.54 0.989 Q 13.236 0.668 12.731 0.668 A 1.71 1.71 0 0 0 12.346 0.709 Q 12.009 0.787 11.788 1.013 Q 11.469 1.341 11.453 1.914 A 2.18 2.18 0 0 0 11.452 1.973 L 10.639 1.973 Q 10.639 1.09 11.208 0.545 A 1.914 1.914 0 0 1 12.166 0.055 A 2.782 2.782 0 0 1 12.731 0 A 2.749 2.749 0 0 1 13.312 0.058 Q 13.69 0.14 13.975 0.337 A 1.626 1.626 0 0 1 14.142 0.468 A 1.546 1.546 0 0 1 14.65 1.501 A 2.151 2.151 0 0 1 14.66 1.714 A 1.917 1.917 0 0 1 14.519 2.402 Q 14.298 2.978 13.725 3.659 A 8.818 8.818 0 0 1 13.456 3.964 L 11.742 5.823 L 14.955 5.823 Z M 29.079 3.129 L 28.261 3.129 Q 28.261 2.795 27.978 2.553 Q 27.694 2.312 27.264 2.312 Q 26.82 2.312 26.569 2.505 A 0.653 0.653 0 0 0 26.394 2.704 Q 26.321 2.835 26.319 3 A 0.771 0.771 0 0 0 26.319 3.01 A 0.588 0.588 0 0 0 26.349 3.203 A 0.48 0.48 0 0 0 26.552 3.454 A 1.093 1.093 0 0 0 26.702 3.533 Q 26.866 3.605 27.122 3.673 A 6.581 6.581 0 0 0 27.393 3.74 A 6.318 6.318 0 0 1 27.801 3.845 Q 28.138 3.944 28.38 4.065 A 1.901 1.901 0 0 1 28.636 4.218 Q 28.773 4.315 28.87 4.429 A 1.06 1.06 0 0 1 28.94 4.52 A 1.024 1.024 0 0 1 29.102 4.927 A 1.388 1.388 0 0 1 29.123 5.168 Q 29.123 5.805 28.613 6.19 Q 28.13 6.554 27.376 6.573 A 3.337 3.337 0 0 1 27.29 6.574 A 2.746 2.746 0 0 1 26.756 6.525 A 2.124 2.124 0 0 1 26.279 6.372 A 1.771 1.771 0 0 1 25.845 6.094 A 1.54 1.54 0 0 1 25.592 5.807 Q 25.343 5.445 25.343 5.023 L 26.156 5.023 A 0.932 0.932 0 0 0 26.23 5.348 A 0.827 0.827 0 0 0 26.484 5.671 A 1.072 1.072 0 0 0 26.886 5.864 Q 27.04 5.903 27.222 5.91 A 2.013 2.013 0 0 0 27.29 5.911 A 1.863 1.863 0 0 0 27.586 5.889 Q 27.747 5.863 27.879 5.806 A 0.941 0.941 0 0 0 28.031 5.724 A 0.689 0.689 0 0 0 28.195 5.574 A 0.554 0.554 0 0 0 28.31 5.225 A 0.698 0.698 0 0 0 28.273 4.994 A 0.581 0.581 0 0 0 28.061 4.713 A 1.05 1.05 0 0 0 27.892 4.615 Q 27.704 4.524 27.409 4.449 A 5.392 5.392 0 0 0 27.196 4.399 A 6.342 6.342 0 0 1 26.835 4.311 Q 26.465 4.21 26.216 4.083 Q 25.917 3.93 25.746 3.731 A 1.017 1.017 0 0 1 25.679 3.643 Q 25.506 3.388 25.506 3.037 A 1.206 1.206 0 0 1 25.905 2.132 A 1.694 1.694 0 0 1 26 2.048 A 1.752 1.752 0 0 1 26.783 1.688 A 2.471 2.471 0 0 1 27.264 1.644 A 2.559 2.559 0 0 1 27.827 1.702 A 1.757 1.757 0 0 1 28.575 2.061 Q 29.079 2.479 29.079 3.129 Z M 20.575 1.732 L 21.344 1.732 L 21.371 2.329 Q 21.907 1.654 22.767 1.644 A 2.234 2.234 0 0 1 22.794 1.644 A 1.905 1.905 0 0 1 23.428 1.74 Q 24.27 2.037 24.313 3.242 A 3.668 3.668 0 0 1 24.315 3.344 L 24.315 6.486 L 23.502 6.486 L 23.502 3.34 A 1.837 1.837 0 0 0 23.48 3.06 Q 23.43 2.753 23.267 2.58 Q 23.081 2.381 22.727 2.343 A 1.66 1.66 0 0 0 22.548 2.334 A 1.253 1.253 0 0 0 22.134 2.4 A 1.123 1.123 0 0 0 21.854 2.545 A 1.432 1.432 0 0 0 21.388 3.098 L 21.388 6.486 L 20.575 6.486 L 20.575 1.732 Z M 38.017 1.732 L 38.786 1.732 L 38.813 2.329 Q 39.349 1.654 40.209 1.644 A 2.234 2.234 0 0 1 40.236 1.644 A 1.905 1.905 0 0 1 40.87 1.74 Q 41.712 2.037 41.755 3.242 A 3.668 3.668 0 0 1 41.757 3.344 L 41.757 6.486 L 40.944 6.486 L 40.944 3.34 A 1.837 1.837 0 0 0 40.922 3.06 Q 40.871 2.753 40.709 2.58 Q 40.523 2.381 40.169 2.343 A 1.66 1.66 0 0 0 39.99 2.334 A 1.253 1.253 0 0 0 39.576 2.4 A 1.123 1.123 0 0 0 39.296 2.545 A 1.432 1.432 0 0 0 38.83 3.098 L 38.83 6.486 L 38.017 6.486 L 38.017 1.732 Z M 46.011 4.988 L 46.78 4.988 A 1.432 1.432 0 0 1 46.581 5.638 A 1.772 1.772 0 0 1 46.499 5.766 A 1.828 1.828 0 0 1 45.889 6.31 A 2.169 2.169 0 0 1 45.806 6.355 A 1.997 1.997 0 0 1 44.89 6.574 A 2.346 2.346 0 0 1 44.193 6.476 A 1.839 1.839 0 0 1 43.345 5.926 A 2.171 2.171 0 0 1 42.882 5.046 Q 42.772 4.645 42.772 4.153 L 42.772 4.017 A 3.24 3.24 0 0 1 42.836 3.361 A 2.57 2.57 0 0 1 43.027 2.782 A 2.008 2.008 0 0 1 43.466 2.168 A 1.892 1.892 0 0 1 43.759 1.942 A 1.943 1.943 0 0 1 44.515 1.67 A 2.529 2.529 0 0 1 44.886 1.644 A 2.196 2.196 0 0 1 45.534 1.735 A 1.786 1.786 0 0 1 46.215 2.123 A 1.693 1.693 0 0 1 46.773 3.272 A 2.239 2.239 0 0 1 46.78 3.366 L 46.011 3.366 Q 45.976 2.905 45.661 2.608 A 1.078 1.078 0 0 0 44.932 2.312 A 1.402 1.402 0 0 0 44.886 2.312 A 1.374 1.374 0 0 0 44.464 2.373 A 1.081 1.081 0 0 0 43.926 2.758 A 1.469 1.469 0 0 0 43.699 3.205 Q 43.633 3.41 43.605 3.66 A 3.514 3.514 0 0 0 43.585 4.047 L 43.585 4.201 Q 43.585 5.023 43.923 5.467 A 1.1 1.1 0 0 0 44.71 5.901 A 1.611 1.611 0 0 0 44.89 5.911 A 1.171 1.171 0 0 0 45.65 5.647 A 1.007 1.007 0 0 0 45.894 5.366 A 0.914 0.914 0 0 0 46.011 4.988 Z M 36.91 6.486 L 36.057 6.486 A 0.632 0.632 0 0 1 36.022 6.396 Q 35.99 6.298 35.966 6.146 A 3.997 3.997 0 0 1 35.943 5.985 Q 35.376 6.574 34.589 6.574 A 2.033 2.033 0 0 1 34.06 6.509 A 1.529 1.529 0 0 1 33.436 6.177 Q 32.985 5.779 32.985 5.168 Q 32.985 4.425 33.55 4.014 Q 34.115 3.604 35.139 3.604 L 35.93 3.604 L 35.93 3.23 A 1.152 1.152 0 0 0 35.894 2.935 A 0.828 0.828 0 0 0 35.675 2.551 Q 35.459 2.337 35.068 2.304 A 1.748 1.748 0 0 0 34.923 2.298 Q 34.488 2.298 34.194 2.518 Q 33.899 2.738 33.899 3.05 L 33.082 3.05 A 1.041 1.041 0 0 1 33.207 2.561 A 1.409 1.409 0 0 1 33.335 2.362 Q 33.587 2.03 34.02 1.837 A 2.249 2.249 0 0 1 34.796 1.649 A 2.669 2.669 0 0 1 34.972 1.644 A 2.65 2.65 0 0 1 35.489 1.691 Q 35.796 1.752 36.035 1.892 A 1.439 1.439 0 0 1 36.259 2.055 A 1.396 1.396 0 0 1 36.713 2.881 A 1.998 1.998 0 0 1 36.743 3.186 L 36.743 5.375 Q 36.743 5.809 36.816 6.126 A 1.707 1.707 0 0 0 36.91 6.416 L 36.91 6.486 Z M 47.487 4.241 L 47.487 4.091 A 3.17 3.17 0 0 1 47.564 3.382 A 2.581 2.581 0 0 1 47.758 2.828 A 2.191 2.191 0 0 1 48.205 2.202 A 2.033 2.033 0 0 1 48.513 1.958 Q 48.999 1.644 49.566 1.644 A 2.254 2.254 0 0 1 50.179 1.723 A 1.639 1.639 0 0 1 51.007 2.254 Q 51.521 2.865 51.521 4.004 L 51.521 4.342 L 48.3 4.342 A 2.111 2.111 0 0 0 48.371 4.85 A 1.516 1.516 0 0 0 48.711 5.478 A 1.282 1.282 0 0 0 49.645 5.909 A 1.652 1.652 0 0 0 49.711 5.911 A 1.763 1.763 0 0 0 50.039 5.882 Q 50.263 5.839 50.44 5.735 A 1.827 1.827 0 0 0 50.949 5.287 A 2.068 2.068 0 0 0 50.963 5.269 L 51.46 5.656 A 1.926 1.926 0 0 1 50.06 6.547 A 2.749 2.749 0 0 1 49.667 6.574 A 2.394 2.394 0 0 1 48.916 6.461 A 1.974 1.974 0 0 1 48.094 5.939 Q 47.487 5.304 47.487 4.241 Z M 30.472 0.58 L 31.285 0.58 L 31.285 1.732 L 32.172 1.732 L 32.172 2.36 L 31.285 2.36 L 31.285 5.309 Q 31.285 5.594 31.403 5.737 Q 31.522 5.88 31.808 5.88 A 1.046 1.046 0 0 0 31.905 5.875 Q 32.008 5.865 32.148 5.837 A 4.024 4.024 0 0 0 32.194 5.827 L 32.194 6.486 A 2.463 2.463 0 0 1 31.762 6.566 A 2.157 2.157 0 0 1 31.57 6.574 Q 31.123 6.574 30.857 6.352 A 0.856 0.856 0 0 1 30.749 6.245 Q 30.521 5.974 30.481 5.516 A 2.351 2.351 0 0 1 30.472 5.309 L 30.472 2.36 L 29.606 2.36 L 29.606 1.732 L 30.472 1.732 L 30.472 0.58 Z M 19.16 0.088 L 19.16 6.486 L 18.316 6.486 L 18.316 0.088 L 19.16 0.088 Z M 35.93 5.155 L 35.93 4.179 L 35.292 4.179 Q 33.798 4.179 33.798 5.054 Q 33.798 5.436 34.053 5.651 A 0.893 0.893 0 0 0 34.467 5.845 A 1.259 1.259 0 0 0 34.708 5.867 A 1.429 1.429 0 0 0 35.433 5.669 A 1.335 1.335 0 0 0 35.729 5.442 A 1.108 1.108 0 0 0 35.93 5.155 Z M 48.327 3.674 L 50.708 3.674 L 50.708 3.612 Q 50.682 3.154 50.512 2.848 A 1.13 1.13 0 0 0 50.375 2.652 A 0.983 0.983 0 0 0 49.72 2.32 A 1.39 1.39 0 0 0 49.566 2.312 A 1.106 1.106 0 0 0 49.043 2.435 A 1.14 1.14 0 0 0 48.74 2.67 A 1.417 1.417 0 0 0 48.463 3.116 Q 48.39 3.3 48.35 3.522 A 2.741 2.741 0 0 0 48.327 3.674 Z" vector-effect="non-scaling-stroke"/></g><g transform="translate(25, 93)" id="svgGroup" stroke-linecap="round" fill-rule="evenodd" font-size="9pt" stroke="#000" stroke-width="0.25mm" fill="#000" style="stroke:#000;stroke-width:0.25mm;fill:#000"><path d="M 43.207 0.352 L 44.218 4.733 L 44.341 5.577 L 44.521 4.816 L 45.787 0.352 L 46.499 0.352 L 47.733 4.816 L 47.909 5.59 L 48.045 4.729 L 49.039 0.352 L 49.887 0.352 L 48.335 6.75 L 47.566 6.75 L 46.248 2.087 L 46.147 1.6 L 46.046 2.087 L 44.679 6.75 L 43.91 6.75 L 42.363 0.352 L 43.207 0.352 Z M 3.507 1.995 L 4.636 5.629 L 5.55 1.995 L 6.363 1.995 L 4.979 6.75 L 4.32 6.75 L 3.164 3.146 L 2.039 6.75 L 1.38 6.75 L 0 1.995 L 0.809 1.995 L 1.745 5.555 L 2.852 1.995 L 3.507 1.995 Z M 23.484 4.72 L 24.333 4.72 A 3.016 3.016 0 0 1 24.172 5.416 A 2.099 2.099 0 0 1 23.583 6.286 Q 22.953 6.838 21.907 6.838 A 2.553 2.553 0 0 1 21.038 6.696 A 2.194 2.194 0 0 1 20.09 6.025 A 2.789 2.789 0 0 1 19.528 4.901 Q 19.421 4.484 19.408 3.992 A 5.262 5.262 0 0 1 19.406 3.85 L 19.406 3.234 A 4.251 4.251 0 0 1 19.476 2.445 A 3.229 3.229 0 0 1 19.725 1.666 A 2.539 2.539 0 0 1 20.18 0.99 A 2.26 2.26 0 0 1 20.628 0.626 A 2.415 2.415 0 0 1 21.654 0.281 A 3.027 3.027 0 0 1 21.981 0.264 A 2.962 2.962 0 0 1 22.688 0.343 A 2.065 2.065 0 0 1 23.616 0.833 A 2.16 2.16 0 0 1 24.211 1.795 A 3.086 3.086 0 0 1 24.333 2.408 L 23.484 2.408 Q 23.416 1.929 23.246 1.616 A 1.223 1.223 0 0 0 23.008 1.301 A 1.207 1.207 0 0 0 22.502 1.024 Q 22.315 0.971 22.092 0.961 A 2.396 2.396 0 0 0 21.981 0.958 A 1.753 1.753 0 0 0 21.403 1.049 A 1.463 1.463 0 0 0 20.714 1.556 A 1.989 1.989 0 0 0 20.4 2.175 Q 20.254 2.636 20.254 3.256 L 20.254 3.876 Q 20.254 4.917 20.689 5.533 A 1.38 1.38 0 0 0 21.688 6.135 A 1.814 1.814 0 0 0 21.907 6.148 A 2.497 2.497 0 0 0 22.314 6.117 Q 22.534 6.08 22.709 6.002 A 1.155 1.155 0 0 0 22.986 5.829 Q 23.361 5.511 23.484 4.72 Z M 13.126 0 L 13.126 2.571 A 1.767 1.767 0 0 1 13.793 2.053 A 1.832 1.832 0 0 1 14.533 1.907 A 1.905 1.905 0 0 1 15.166 2.004 Q 16.008 2.3 16.051 3.506 A 3.668 3.668 0 0 1 16.053 3.608 L 16.053 6.75 L 15.24 6.75 L 15.24 3.604 A 1.837 1.837 0 0 0 15.218 3.324 Q 15.168 3.017 15.005 2.843 Q 14.819 2.645 14.466 2.606 A 1.66 1.66 0 0 0 14.287 2.597 A 1.253 1.253 0 0 0 13.872 2.664 A 1.123 1.123 0 0 0 13.592 2.808 A 1.432 1.432 0 0 0 13.126 3.362 L 13.126 6.75 L 12.313 6.75 L 12.313 0 L 13.126 0 Z M 63.91 0 L 63.91 2.571 A 1.767 1.767 0 0 1 64.576 2.053 A 1.832 1.832 0 0 1 65.316 1.907 A 1.905 1.905 0 0 1 65.949 2.004 Q 66.791 2.3 66.834 3.506 A 3.668 3.668 0 0 1 66.836 3.608 L 66.836 6.75 L 66.023 6.75 L 66.023 3.604 A 1.837 1.837 0 0 0 66.001 3.324 Q 65.951 3.017 65.788 2.843 Q 65.602 2.645 65.249 2.606 A 1.66 1.66 0 0 0 65.07 2.597 A 1.253 1.253 0 0 0 64.655 2.664 A 1.123 1.123 0 0 0 64.375 2.808 A 1.432 1.432 0 0 0 63.91 3.362 L 63.91 6.75 L 63.097 6.75 L 63.097 0 L 63.91 0 Z M 95.506 0 L 95.506 2.571 A 1.767 1.767 0 0 1 96.172 2.053 A 1.832 1.832 0 0 1 96.913 1.907 A 1.905 1.905 0 0 1 97.546 2.004 Q 98.388 2.3 98.431 3.506 A 3.668 3.668 0 0 1 98.433 3.608 L 98.433 6.75 L 97.62 6.75 L 97.62 3.604 A 1.837 1.837 0 0 0 97.598 3.324 Q 97.548 3.017 97.385 2.843 Q 97.199 2.645 96.846 2.606 A 1.66 1.66 0 0 0 96.667 2.597 A 1.253 1.253 0 0 0 96.252 2.664 A 1.123 1.123 0 0 0 95.972 2.808 A 1.432 1.432 0 0 0 95.506 3.362 L 95.506 6.75 L 94.693 6.75 L 94.693 0 L 95.506 0 Z M 92.685 2.522 L 92.725 1.995 L 93.467 1.995 L 93.467 6.636 A 2.511 2.511 0 0 1 93.397 7.249 A 1.738 1.738 0 0 1 92.92 8.09 A 1.834 1.834 0 0 1 91.99 8.57 A 2.671 2.671 0 0 1 91.45 8.622 A 2.446 2.446 0 0 1 90.444 8.402 A 2.003 2.003 0 0 1 90.034 8.161 A 1.563 1.563 0 0 1 89.692 7.8 L 90.114 7.313 A 1.889 1.889 0 0 0 90.549 7.712 A 1.514 1.514 0 0 0 91.393 7.958 A 1.695 1.695 0 0 0 91.77 7.919 Q 92.038 7.858 92.233 7.702 A 1.037 1.037 0 0 0 92.318 7.625 A 1.09 1.09 0 0 0 92.595 7.132 Q 92.642 6.959 92.649 6.752 A 2.134 2.134 0 0 0 92.65 6.684 L 92.65 6.275 A 1.601 1.601 0 0 1 91.598 6.821 A 2.279 2.279 0 0 1 91.318 6.838 A 1.672 1.672 0 0 1 90.563 6.67 Q 90.241 6.51 89.991 6.197 A 2.14 2.14 0 0 1 89.967 6.166 A 2.316 2.316 0 0 1 89.584 5.386 Q 89.451 4.922 89.451 4.333 Q 89.451 3.472 89.759 2.884 A 2.096 2.096 0 0 1 89.965 2.564 Q 90.479 1.907 91.327 1.907 A 1.971 1.971 0 0 1 91.926 1.994 A 1.55 1.55 0 0 1 92.685 2.522 Z M 35.626 6.75 L 35.609 6.28 A 1.526 1.526 0 0 1 34.783 6.775 Q 34.532 6.836 34.235 6.838 A 2.996 2.996 0 0 1 34.216 6.838 A 2.086 2.086 0 0 1 33.756 6.79 Q 33.325 6.693 33.058 6.396 A 1.41 1.41 0 0 1 32.775 5.899 Q 32.658 5.556 32.656 5.089 L 32.656 1.995 L 33.469 1.995 L 33.469 5.067 Q 33.469 6.037 34.176 6.137 A 1.229 1.229 0 0 0 34.348 6.148 A 1.927 1.927 0 0 0 34.799 6.099 Q 35.361 5.964 35.587 5.454 L 35.587 1.995 L 36.4 1.995 L 36.4 6.75 L 35.626 6.75 Z M 61.414 5.251 L 62.183 5.251 A 1.432 1.432 0 0 1 61.983 5.901 A 1.772 1.772 0 0 1 61.901 6.029 A 1.828 1.828 0 0 1 61.292 6.574 A 2.169 2.169 0 0 1 61.209 6.618 A 1.997 1.997 0 0 1 60.293 6.838 A 2.346 2.346 0 0 1 59.596 6.739 A 1.839 1.839 0 0 1 58.748 6.19 A 2.171 2.171 0 0 1 58.285 5.31 Q 58.175 4.909 58.175 4.417 L 58.175 4.28 A 3.24 3.24 0 0 1 58.239 3.624 A 2.57 2.57 0 0 1 58.43 3.045 A 2.008 2.008 0 0 1 58.869 2.431 A 1.892 1.892 0 0 1 59.161 2.206 A 1.943 1.943 0 0 1 59.918 1.934 A 2.529 2.529 0 0 1 60.289 1.907 A 2.196 2.196 0 0 1 60.937 1.999 A 1.786 1.786 0 0 1 61.618 2.386 A 1.693 1.693 0 0 1 62.176 3.535 A 2.239 2.239 0 0 1 62.183 3.63 L 61.414 3.63 Q 61.378 3.168 61.064 2.872 A 1.078 1.078 0 0 0 60.335 2.576 A 1.402 1.402 0 0 0 60.289 2.575 A 1.374 1.374 0 0 0 59.867 2.637 A 1.081 1.081 0 0 0 59.328 3.021 A 1.469 1.469 0 0 0 59.102 3.468 Q 59.036 3.674 59.008 3.923 A 3.514 3.514 0 0 0 58.988 4.311 L 58.988 4.465 Q 58.988 5.287 59.326 5.73 A 1.1 1.1 0 0 0 60.113 6.165 A 1.611 1.611 0 0 0 60.293 6.174 A 1.171 1.171 0 0 0 61.053 5.911 A 1.007 1.007 0 0 0 61.297 5.629 A 0.914 0.914 0 0 0 61.414 5.251 Z M 54.338 6.75 L 53.486 6.75 A 0.632 0.632 0 0 1 53.45 6.66 Q 53.419 6.562 53.394 6.41 A 3.997 3.997 0 0 1 53.372 6.249 Q 52.805 6.838 52.018 6.838 A 2.033 2.033 0 0 1 51.489 6.772 A 1.529 1.529 0 0 1 50.865 6.44 Q 50.414 6.042 50.414 5.432 Q 50.414 4.689 50.979 4.278 Q 51.543 3.867 52.567 3.867 L 53.358 3.867 L 53.358 3.494 A 1.152 1.152 0 0 0 53.323 3.199 A 0.828 0.828 0 0 0 53.104 2.815 Q 52.887 2.6 52.497 2.568 A 1.748 1.748 0 0 0 52.352 2.562 Q 51.917 2.562 51.623 2.782 Q 51.328 3.001 51.328 3.313 L 50.511 3.313 A 1.041 1.041 0 0 1 50.636 2.825 A 1.409 1.409 0 0 1 50.763 2.626 Q 51.016 2.294 51.449 2.101 A 2.249 2.249 0 0 1 52.225 1.913 A 2.669 2.669 0 0 1 52.4 1.907 A 2.65 2.65 0 0 1 52.918 1.955 Q 53.225 2.016 53.464 2.156 A 1.439 1.439 0 0 1 53.688 2.318 A 1.396 1.396 0 0 1 54.141 3.144 A 1.998 1.998 0 0 1 54.171 3.45 L 54.171 5.638 Q 54.171 6.073 54.245 6.39 A 1.707 1.707 0 0 0 54.338 6.68 L 54.338 6.75 Z M 37.437 4.395 L 37.437 4.333 A 3.762 3.762 0 0 1 37.504 3.602 Q 37.592 3.16 37.794 2.812 A 2.148 2.148 0 0 1 37.956 2.573 Q 38.474 1.907 39.313 1.907 A 1.964 1.964 0 0 1 39.911 1.994 A 1.559 1.559 0 0 1 40.636 2.479 L 40.636 0 L 41.449 0 L 41.449 6.75 L 40.702 6.75 L 40.663 6.24 Q 40.175 6.838 39.305 6.838 A 1.6 1.6 0 0 1 38.084 6.31 A 2.078 2.078 0 0 1 37.958 6.161 A 2.405 2.405 0 0 1 37.533 5.255 Q 37.449 4.912 37.439 4.51 A 4.425 4.425 0 0 1 37.437 4.395 Z M 83.593 0.352 L 83.593 6.06 L 86.625 6.06 L 86.625 6.75 L 82.745 6.75 L 82.745 0.352 L 83.593 0.352 Z M 73.63 0.352 L 73.63 4.601 L 74.518 4.601 L 74.518 5.265 L 73.63 5.265 L 73.63 6.75 L 72.813 6.75 L 72.813 5.265 L 69.899 5.265 L 69.899 4.786 L 72.765 0.352 L 73.63 0.352 Z M 79.029 2.592 A 1.544 1.544 0 0 0 79.132 2.021 A 2.226 2.226 0 0 0 79.111 1.707 A 1.566 1.566 0 0 0 78.612 0.738 A 1.754 1.754 0 0 0 77.846 0.333 A 2.443 2.443 0 0 0 77.247 0.264 A 2.539 2.539 0 0 0 76.738 0.312 A 1.767 1.767 0 0 0 75.88 0.738 Q 75.362 1.213 75.362 2.021 A 1.808 1.808 0 0 0 75.362 2.058 A 1.499 1.499 0 0 0 75.608 2.87 A 1.626 1.626 0 0 0 75.77 3.077 A 1.726 1.726 0 0 0 76.28 3.454 A 2.119 2.119 0 0 0 76.181 3.5 A 1.738 1.738 0 0 0 75.496 4.087 A 1.629 1.629 0 0 0 75.212 5.023 A 2.272 2.272 0 0 0 75.222 5.237 A 1.63 1.63 0 0 0 75.768 6.344 A 1.895 1.895 0 0 0 76.619 6.771 A 2.797 2.797 0 0 0 77.247 6.838 A 2.796 2.796 0 0 0 77.846 6.777 A 1.925 1.925 0 0 0 78.721 6.346 A 1.578 1.578 0 0 0 79.196 5.62 A 1.989 1.989 0 0 0 79.282 5.023 A 1.581 1.581 0 0 0 78.99 4.087 Q 78.697 3.674 78.196 3.458 Q 78.627 3.248 78.88 2.874 A 1.449 1.449 0 0 0 79.029 2.592 Z M 9.664 0.844 L 10.477 0.844 L 10.477 1.995 L 11.364 1.995 L 11.364 2.624 L 10.477 2.624 L 10.477 5.572 Q 10.477 5.858 10.595 6.001 Q 10.714 6.144 11 6.144 A 1.046 1.046 0 0 0 11.097 6.138 Q 11.2 6.129 11.34 6.101 A 4.024 4.024 0 0 0 11.386 6.091 L 11.386 6.75 A 2.463 2.463 0 0 1 10.953 6.829 A 2.157 2.157 0 0 1 10.762 6.838 Q 10.315 6.838 10.048 6.616 A 0.856 0.856 0 0 1 9.94 6.508 Q 9.713 6.238 9.672 5.78 A 2.351 2.351 0 0 1 9.664 5.572 L 9.664 2.624 L 8.798 2.624 L 8.798 1.995 L 9.664 1.995 L 9.664 0.844 Z M 55.736 0.844 L 56.549 0.844 L 56.549 1.995 L 57.437 1.995 L 57.437 2.624 L 56.549 2.624 L 56.549 5.572 Q 56.549 5.858 56.667 6.001 Q 56.786 6.144 57.072 6.144 A 1.046 1.046 0 0 0 57.169 6.138 Q 57.272 6.129 57.412 6.101 A 4.024 4.024 0 0 0 57.458 6.091 L 57.458 6.75 A 2.463 2.463 0 0 1 57.026 6.829 A 2.157 2.157 0 0 1 56.834 6.838 Q 56.387 6.838 56.121 6.616 A 0.856 0.856 0 0 1 56.013 6.508 Q 55.785 6.238 55.745 5.78 A 2.351 2.351 0 0 1 55.736 5.572 L 55.736 2.624 L 54.87 2.624 L 54.87 1.995 L 55.736 1.995 L 55.736 0.844 Z M 99.94 0.844 L 100.753 0.844 L 100.753 1.995 L 101.641 1.995 L 101.641 2.624 L 100.753 2.624 L 100.753 5.572 Q 100.753 5.858 100.872 6.001 Q 100.991 6.144 101.276 6.144 A 1.046 1.046 0 0 0 101.374 6.138 Q 101.477 6.129 101.616 6.101 A 4.024 4.024 0 0 0 101.663 6.091 L 101.663 6.75 A 2.463 2.463 0 0 1 101.23 6.829 A 2.157 2.157 0 0 1 101.039 6.838 Q 100.592 6.838 100.325 6.616 A 0.856 0.856 0 0 1 100.217 6.508 Q 99.99 6.238 99.949 5.78 A 2.351 2.351 0 0 1 99.94 5.572 L 99.94 2.624 L 99.075 2.624 L 99.075 1.995 L 99.94 1.995 L 99.94 0.844 Z M 26.24 0 L 26.24 6.75 L 25.427 6.75 L 25.427 0 L 26.24 0 Z M 27.325 4.386 L 27.325 4.329 A 3.057 3.057 0 0 1 27.412 3.587 A 2.573 2.573 0 0 1 27.6 3.072 A 2.16 2.16 0 0 1 28.015 2.486 A 1.957 1.957 0 0 1 28.365 2.21 A 2.036 2.036 0 0 1 29.309 1.913 A 2.491 2.491 0 0 1 29.483 1.907 A 2.277 2.277 0 0 1 30.236 2.027 A 1.937 1.937 0 0 1 31.054 2.58 A 2.29 2.29 0 0 1 31.573 3.608 A 3.373 3.373 0 0 1 31.654 4.368 L 31.654 4.425 A 3.114 3.114 0 0 1 31.574 5.142 A 2.577 2.577 0 0 1 31.388 5.671 A 2.056 2.056 0 0 1 30.861 6.361 A 2.001 2.001 0 0 1 30.628 6.53 A 2.045 2.045 0 0 1 29.708 6.829 A 2.529 2.529 0 0 1 29.492 6.838 A 2.262 2.262 0 0 1 28.741 6.718 A 1.938 1.938 0 0 1 27.925 6.166 A 2.297 2.297 0 0 1 27.399 5.111 A 3.357 3.357 0 0 1 27.325 4.386 Z M 8.073 1.995 L 8.073 6.75 L 7.26 6.75 L 7.26 1.995 L 8.073 1.995 Z M 88.343 1.995 L 88.343 6.75 L 87.53 6.75 L 87.53 1.995 L 88.343 1.995 Z M 28.143 4.425 A 2.772 2.772 0 0 0 28.19 4.954 Q 28.25 5.264 28.388 5.51 A 1.545 1.545 0 0 0 28.51 5.695 Q 28.876 6.174 29.492 6.174 A 1.269 1.269 0 0 0 29.981 6.083 Q 30.26 5.967 30.463 5.706 A 1.471 1.471 0 0 0 30.476 5.689 A 1.648 1.648 0 0 0 30.731 5.171 Q 30.8 4.945 30.825 4.672 A 3.655 3.655 0 0 0 30.841 4.329 A 2.687 2.687 0 0 0 30.79 3.789 Q 30.722 3.459 30.565 3.2 A 1.586 1.586 0 0 0 30.469 3.061 A 1.231 1.231 0 0 0 30.054 2.705 Q 29.801 2.575 29.483 2.575 Q 28.893 2.575 28.527 3.035 A 1.515 1.515 0 0 0 28.512 3.054 A 1.589 1.589 0 0 0 28.26 3.552 Q 28.19 3.772 28.162 4.039 A 3.676 3.676 0 0 0 28.143 4.425 Z M 40.636 5.454 L 40.636 3.27 A 1.375 1.375 0 0 0 40.325 2.874 Q 40.001 2.597 39.516 2.597 A 1.238 1.238 0 0 0 39.089 2.668 A 1.068 1.068 0 0 0 38.584 3.059 A 1.51 1.51 0 0 0 38.375 3.484 Q 38.309 3.689 38.278 3.939 A 3.955 3.955 0 0 0 38.25 4.425 A 3.162 3.162 0 0 0 38.286 4.918 Q 38.327 5.178 38.415 5.389 A 1.474 1.474 0 0 0 38.584 5.691 A 1.06 1.06 0 0 0 39.346 6.139 A 1.391 1.391 0 0 0 39.507 6.148 Q 40.28 6.148 40.636 5.454 Z M 92.65 5.449 L 92.65 3.278 A 1.439 1.439 0 0 0 92.349 2.891 Q 92.045 2.62 91.605 2.599 A 1.578 1.578 0 0 0 91.529 2.597 Q 90.937 2.597 90.604 3.056 A 1.51 1.51 0 0 0 90.393 3.484 Q 90.327 3.689 90.296 3.939 A 3.955 3.955 0 0 0 90.268 4.425 Q 90.268 5.229 90.598 5.689 Q 90.927 6.148 91.521 6.148 A 1.32 1.32 0 0 0 92.03 6.054 Q 92.422 5.891 92.65 5.449 Z M 72.716 1.639 L 70.822 4.601 L 72.813 4.601 L 72.813 1.463 L 72.716 1.639 Z M 78.469 5.005 A 1.375 1.375 0 0 0 78.409 4.592 A 1.109 1.109 0 0 0 78.128 4.131 A 1.148 1.148 0 0 0 77.457 3.807 A 1.593 1.593 0 0 0 77.238 3.792 A 1.466 1.466 0 0 0 76.85 3.841 A 1.086 1.086 0 0 0 76.357 4.126 A 1.123 1.123 0 0 0 76.044 4.762 A 1.572 1.572 0 0 0 76.025 5.005 A 1.48 1.48 0 0 0 76.067 5.367 A 1.019 1.019 0 0 0 76.348 5.862 Q 76.654 6.158 77.187 6.173 A 2.053 2.053 0 0 0 77.247 6.174 Q 77.741 6.174 78.051 5.94 A 1.018 1.018 0 0 0 78.144 5.86 A 1.041 1.041 0 0 0 78.443 5.292 A 1.518 1.518 0 0 0 78.469 5.005 Z M 77.247 0.932 A 1.259 1.259 0 0 0 76.894 0.979 A 0.973 0.973 0 0 0 76.471 1.228 Q 76.175 1.525 76.175 2.035 A 1.325 1.325 0 0 0 76.219 2.387 A 0.994 0.994 0 0 0 76.467 2.823 A 0.974 0.974 0 0 0 77.029 3.108 A 1.382 1.382 0 0 0 77.247 3.125 A 1.279 1.279 0 0 0 77.592 3.08 A 0.952 0.952 0 0 0 78.027 2.823 A 1.018 1.018 0 0 0 78.302 2.26 A 1.426 1.426 0 0 0 78.319 2.035 A 1.282 1.282 0 0 0 78.269 1.668 A 1.013 1.013 0 0 0 78.016 1.239 Q 77.713 0.932 77.247 0.932 Z M 53.358 5.418 L 53.358 4.443 L 52.721 4.443 Q 51.227 4.443 51.227 5.317 Q 51.227 5.7 51.482 5.915 A 0.893 0.893 0 0 0 51.895 6.108 A 1.259 1.259 0 0 0 52.137 6.13 A 1.429 1.429 0 0 0 52.862 5.933 A 1.335 1.335 0 0 0 53.157 5.705 A 1.108 1.108 0 0 0 53.358 5.418 Z M 7.194 0.734 Q 7.194 0.536 7.315 0.4 Q 7.427 0.274 7.638 0.264 A 0.783 0.783 0 0 1 7.673 0.264 Q 7.91 0.264 8.033 0.4 A 0.474 0.474 0 0 1 8.155 0.703 A 0.614 0.614 0 0 1 8.156 0.734 A 0.523 0.523 0 0 1 8.131 0.9 A 0.442 0.442 0 0 1 8.033 1.063 Q 7.921 1.184 7.713 1.194 A 0.803 0.803 0 0 1 7.673 1.195 Q 7.501 1.195 7.39 1.126 A 0.362 0.362 0 0 1 7.315 1.063 A 0.456 0.456 0 0 1 7.196 0.788 A 0.605 0.605 0 0 1 7.194 0.734 Z M 87.464 0.734 Q 87.464 0.536 87.585 0.4 Q 87.697 0.274 87.909 0.264 A 0.783 0.783 0 0 1 87.943 0.264 Q 88.181 0.264 88.304 0.4 A 0.474 0.474 0 0 1 88.426 0.703 A 0.614 0.614 0 0 1 88.427 0.734 A 0.523 0.523 0 0 1 88.401 0.9 A 0.442 0.442 0 0 1 88.304 1.063 Q 88.191 1.184 87.983 1.194 A 0.803 0.803 0 0 1 87.943 1.195 Q 87.771 1.195 87.66 1.126 A 0.362 0.362 0 0 1 87.585 1.063 A 0.456 0.456 0 0 1 87.467 0.788 A 0.605 0.605 0 0 1 87.464 0.734 Z" vector-effect="non-scaling-stroke"/></g>
</svg>