<?xml version="1.0" encoding="UTF-8"?>
<svg width="48px" height="48px" viewBox="0 0 48 48" version="1.1" xmlns="http://www.w3.org/2000/svg" xmlns:xlink="http://www.w3.org/1999/xlink">
    <title>Icon-Resource/Compute/Res_Amazon-EC2_Rescue_48_Light</title>
    <g id="Icon-Resource/Compute/Res_Amazon-EC2_Rescue_48" stroke="none" stroke-width="1" fill="none" fill-rule="evenodd">
        <path transform="translate(12.000000, 8.000000), scale(.65)" d="M31.073,26.453 L39.553,26.453 L39.553,21.467 L31.073,21.467 L31.073,26.453 Z M28.453,36.367 L28.453,32.09 C29.989,31.241 31.243,29.987 32.091,28.453 L36.367,28.453 C35.041,32.115 32.116,35.04 28.453,36.367 L28.453,36.367 Z M21.467,39.554 L26.453,39.554 L26.453,31.074 L21.467,31.074 L21.467,39.554 Z M11.553,28.453 L15.831,28.453 C16.678,29.987 17.933,31.242 19.466,32.09 L19.466,36.367 C15.805,35.04 12.881,32.115 11.553,28.453 L11.553,28.453 Z M8.367,26.453 L16.846,26.453 L16.846,21.467 L8.367,21.467 L8.367,26.453 Z M19.466,11.553 L19.466,15.83 C17.933,16.677 16.679,17.931 15.83,19.467 L11.553,19.467 C12.88,15.805 15.804,12.879 19.466,11.553 L19.466,11.553 Z M21.466,16.846 L26.452,16.846 L26.452,8.366 L21.466,8.366 L21.466,16.846 Z M28.388,29.75 C28.253,29.359 27.891,29.073 27.453,29.073 L20.466,29.073 C20.029,29.073 19.668,29.359 19.532,29.75 C19.019,29.359 18.562,28.902 18.17,28.388 C18.561,28.253 18.846,27.892 18.846,27.453 L18.846,20.467 C18.846,20.029 18.561,19.667 18.17,19.532 C18.562,19.019 19.019,18.562 19.532,18.17 C19.668,18.562 20.029,18.847 20.466,18.847 L27.453,18.847 C27.891,18.847 28.253,18.562 28.388,18.169 C28.901,18.562 29.359,19.019 29.751,19.531 C29.359,19.667 29.073,20.029 29.073,20.467 L29.073,27.453 C29.073,27.892 29.359,28.253 29.751,28.388 C29.359,28.901 28.901,29.359 28.388,29.75 L28.388,29.75 Z M36.367,19.467 L32.091,19.467 C31.243,17.931 29.987,16.677 28.453,15.83 L28.453,11.553 C32.116,12.879 35.041,15.804 36.367,19.467 L36.367,19.467 Z M40.553,19.467 L38.498,19.467 C37.031,14.7 33.22,10.889 28.453,9.423 L28.453,7.366 C28.453,6.814 28.006,6.366 27.453,6.366 L20.466,6.366 C19.914,6.366 19.466,6.814 19.466,7.366 L19.466,9.423 C14.701,10.89 10.89,14.699 9.423,19.467 L7.367,19.467 C6.814,19.467 6.367,19.914 6.367,20.467 L6.367,27.453 C6.367,28.006 6.814,28.453 7.367,28.453 L9.424,28.453 C10.89,33.22 14.701,37.029 19.466,38.497 L19.466,40.554 C19.466,41.107 19.914,41.554 20.466,41.554 L27.453,41.554 C28.006,41.554 28.453,41.107 28.453,40.554 L28.453,38.497 C33.22,37.03 37.03,33.22 38.497,28.453 L40.553,28.453 C41.106,28.453 41.553,28.006 41.553,27.453 L41.553,20.467 C41.553,19.914 41.106,19.467 40.553,19.467 L40.553,19.467 Z M43.92,39.472 C43.92,41.925 41.925,43.92 39.472,43.92 L8.448,43.92 C5.995,43.92 4,41.925 4,39.472 L4,8.447 C4,5.995 5.995,4 8.448,4 L39.472,4 C41.925,4 43.92,5.995 43.92,8.447 L43.92,39.472 Z M39.472,2 L8.448,2 C4.892,2 2,4.893 2,8.447 L2,39.472 C2,43.028 4.892,45.92 8.448,45.92 L39.472,45.92 C43.027,45.92 45.92,43.028 45.92,39.472 L45.92,8.447 C45.92,4.893 43.027,2 39.472,2 L39.472,2 Z" id="Amazon-EC2-Rescue_Resource-Icon_light-bg" fill="#000000"></path>
    </g><g transform="translate(25, 83)" id="svgGroup" stroke-linecap="round" fill-rule="evenodd" font-size="9pt" stroke="#000" stroke-width="0.25mm" fill="#000" style="stroke:#000;stroke-width:0.25mm;fill:#000"><path d="M 3.617 3.103 L 3.617 3.792 L 0.844 3.792 L 0.844 6.06 L 4.065 6.06 L 4.065 6.75 L 0 6.75 L 0 0.352 L 4.021 0.352 L 4.021 1.046 L 0.844 1.046 L 0.844 3.103 L 3.617 3.103 Z M 8.974 4.72 L 9.822 4.72 A 3.016 3.016 0 0 1 9.661 5.416 A 2.099 2.099 0 0 1 9.073 6.286 Q 8.442 6.838 7.396 6.838 A 2.553 2.553 0 0 1 6.527 6.696 A 2.194 2.194 0 0 1 5.579 6.025 A 2.789 2.789 0 0 1 5.017 4.901 Q 4.911 4.484 4.897 3.992 A 5.262 5.262 0 0 1 4.896 3.85 L 4.896 3.234 A 4.251 4.251 0 0 1 4.966 2.445 A 3.229 3.229 0 0 1 5.214 1.666 A 2.539 2.539 0 0 1 5.67 0.99 A 2.26 2.26 0 0 1 6.117 0.626 A 2.415 2.415 0 0 1 7.143 0.281 A 3.027 3.027 0 0 1 7.471 0.264 A 2.962 2.962 0 0 1 8.177 0.343 A 2.065 2.065 0 0 1 9.105 0.833 A 2.16 2.16 0 0 1 9.7 1.795 A 3.086 3.086 0 0 1 9.822 2.408 L 8.974 2.408 Q 8.905 1.929 8.735 1.616 A 1.223 1.223 0 0 0 8.497 1.301 A 1.207 1.207 0 0 0 7.992 1.024 Q 7.804 0.971 7.581 0.961 A 2.396 2.396 0 0 0 7.471 0.958 A 1.753 1.753 0 0 0 6.892 1.049 A 1.463 1.463 0 0 0 6.203 1.556 A 1.989 1.989 0 0 0 5.889 2.175 Q 5.744 2.636 5.744 3.256 L 5.744 3.876 Q 5.744 4.917 6.179 5.533 A 1.38 1.38 0 0 0 7.177 6.135 A 1.814 1.814 0 0 0 7.396 6.148 A 2.497 2.497 0 0 0 7.803 6.117 Q 8.023 6.08 8.199 6.002 A 1.155 1.155 0 0 0 8.475 5.829 Q 8.851 5.511 8.974 4.72 Z M 14.955 6.086 L 14.955 6.75 L 10.762 6.75 L 10.762 6.166 L 12.977 3.705 A 9.853 9.853 0 0 0 13.23 3.407 Q 13.468 3.115 13.601 2.894 A 2.159 2.159 0 0 0 13.656 2.797 Q 13.843 2.448 13.843 2.074 A 1.354 1.354 0 0 0 13.791 1.69 A 1.067 1.067 0 0 0 13.54 1.252 Q 13.236 0.932 12.731 0.932 A 1.71 1.71 0 0 0 12.346 0.972 Q 12.009 1.05 11.788 1.277 Q 11.469 1.605 11.453 2.177 A 2.18 2.18 0 0 0 11.452 2.237 L 10.639 2.237 Q 10.639 1.354 11.208 0.809 A 1.914 1.914 0 0 1 12.166 0.318 A 2.782 2.782 0 0 1 12.731 0.264 A 2.749 2.749 0 0 1 13.312 0.322 Q 13.69 0.403 13.975 0.6 A 1.626 1.626 0 0 1 14.142 0.732 A 1.546 1.546 0 0 1 14.65 1.765 A 2.151 2.151 0 0 1 14.66 1.978 A 1.917 1.917 0 0 1 14.519 2.666 Q 14.298 3.241 13.725 3.922 A 8.818 8.818 0 0 1 13.456 4.228 L 11.742 6.086 L 14.955 6.086 Z M 74.971 0 L 74.971 2.571 A 1.767 1.767 0 0 1 75.637 2.053 A 1.832 1.832 0 0 1 76.377 1.907 A 1.905 1.905 0 0 1 77.01 2.004 Q 77.852 2.3 77.895 3.506 A 3.668 3.668 0 0 1 77.897 3.608 L 77.897 6.75 L 77.084 6.75 L 77.084 3.604 A 1.837 1.837 0 0 0 77.062 3.324 Q 77.012 3.017 76.849 2.843 Q 76.663 2.645 76.31 2.606 A 1.66 1.66 0 0 0 76.131 2.597 A 1.253 1.253 0 0 0 75.717 2.664 A 1.123 1.123 0 0 0 75.437 2.808 A 1.432 1.432 0 0 0 74.971 3.362 L 74.971 6.75 L 74.158 6.75 L 74.158 0 L 74.971 0 Z M 21.99 6.75 L 20.602 4.162 L 19.099 4.162 L 19.099 6.75 L 18.25 6.75 L 18.25 0.352 L 20.369 0.352 A 3.809 3.809 0 0 1 21.01 0.402 Q 21.352 0.461 21.626 0.587 A 1.789 1.789 0 0 1 22.032 0.844 A 1.588 1.588 0 0 1 22.557 1.732 A 2.453 2.453 0 0 1 22.614 2.276 A 1.864 1.864 0 0 1 22.523 2.868 A 1.64 1.64 0 0 1 22.291 3.318 A 1.849 1.849 0 0 1 21.632 3.875 A 2.342 2.342 0 0 1 21.393 3.981 L 22.896 6.697 L 22.896 6.75 L 21.99 6.75 Z M 72.149 2.522 L 72.189 1.995 L 72.932 1.995 L 72.932 6.636 A 2.511 2.511 0 0 1 72.861 7.249 A 1.738 1.738 0 0 1 72.385 8.09 A 1.834 1.834 0 0 1 71.455 8.57 A 2.671 2.671 0 0 1 70.915 8.622 A 2.446 2.446 0 0 1 69.908 8.402 A 2.003 2.003 0 0 1 69.498 8.161 A 1.563 1.563 0 0 1 69.157 7.8 L 69.579 7.313 A 1.889 1.889 0 0 0 70.013 7.712 A 1.514 1.514 0 0 0 70.857 7.958 A 1.695 1.695 0 0 0 71.234 7.919 Q 71.503 7.858 71.697 7.702 A 1.037 1.037 0 0 0 71.782 7.625 A 1.09 1.09 0 0 0 72.059 7.132 Q 72.107 6.959 72.113 6.752 A 2.134 2.134 0 0 0 72.114 6.684 L 72.114 6.275 A 1.601 1.601 0 0 1 71.062 6.821 A 2.279 2.279 0 0 1 70.783 6.838 A 1.672 1.672 0 0 1 70.027 6.67 Q 69.705 6.51 69.456 6.197 A 2.14 2.14 0 0 1 69.431 6.166 A 2.316 2.316 0 0 1 69.048 5.386 Q 68.915 4.922 68.915 4.333 Q 68.915 3.472 69.223 2.884 A 2.096 2.096 0 0 1 69.429 2.564 Q 69.943 1.907 70.792 1.907 A 1.971 1.971 0 0 1 71.39 1.994 A 1.55 1.55 0 0 1 72.149 2.522 Z M 31.975 3.393 L 31.157 3.393 Q 31.157 3.059 30.874 2.817 Q 30.59 2.575 30.16 2.575 Q 29.716 2.575 29.465 2.769 A 0.653 0.653 0 0 0 29.29 2.967 Q 29.217 3.098 29.215 3.263 A 0.771 0.771 0 0 0 29.215 3.274 A 0.588 0.588 0 0 0 29.245 3.467 A 0.48 0.48 0 0 0 29.448 3.718 A 1.093 1.093 0 0 0 29.598 3.796 Q 29.762 3.868 30.018 3.937 A 6.581 6.581 0 0 0 30.289 4.003 A 6.318 6.318 0 0 1 30.697 4.108 Q 31.034 4.208 31.276 4.329 A 1.901 1.901 0 0 1 31.532 4.481 Q 31.669 4.579 31.766 4.692 A 1.06 1.06 0 0 1 31.836 4.783 A 1.024 1.024 0 0 1 31.998 5.191 A 1.388 1.388 0 0 1 32.019 5.432 Q 32.019 6.069 31.509 6.453 Q 31.026 6.817 30.272 6.837 A 3.337 3.337 0 0 1 30.186 6.838 A 2.746 2.746 0 0 1 29.652 6.788 A 2.124 2.124 0 0 1 29.175 6.636 A 1.771 1.771 0 0 1 28.741 6.358 A 1.54 1.54 0 0 1 28.488 6.071 Q 28.239 5.708 28.239 5.287 L 29.052 5.287 A 0.932 0.932 0 0 0 29.126 5.612 A 0.827 0.827 0 0 0 29.38 5.935 A 1.072 1.072 0 0 0 29.782 6.128 Q 29.936 6.167 30.118 6.173 A 2.013 2.013 0 0 0 30.186 6.174 A 1.863 1.863 0 0 0 30.482 6.152 Q 30.643 6.126 30.775 6.07 A 0.941 0.941 0 0 0 30.927 5.988 A 0.689 0.689 0 0 0 31.091 5.837 A 0.554 0.554 0 0 0 31.206 5.489 A 0.698 0.698 0 0 0 31.169 5.258 A 0.581 0.581 0 0 0 30.957 4.977 A 1.05 1.05 0 0 0 30.788 4.878 Q 30.6 4.788 30.305 4.712 A 5.392 5.392 0 0 0 30.092 4.663 A 6.342 6.342 0 0 1 29.731 4.575 Q 29.361 4.473 29.112 4.346 Q 28.813 4.194 28.642 3.994 A 1.017 1.017 0 0 1 28.575 3.907 Q 28.402 3.652 28.402 3.3 A 1.206 1.206 0 0 1 28.801 2.396 A 1.694 1.694 0 0 1 28.896 2.312 A 1.752 1.752 0 0 1 29.679 1.952 A 2.471 2.471 0 0 1 30.16 1.907 A 2.559 2.559 0 0 1 30.723 1.966 A 1.757 1.757 0 0 1 31.471 2.325 Q 31.975 2.742 31.975 3.393 Z M 40.742 6.75 L 40.724 6.28 A 1.526 1.526 0 0 1 39.898 6.775 Q 39.648 6.836 39.35 6.838 A 2.996 2.996 0 0 1 39.331 6.838 A 2.086 2.086 0 0 1 38.871 6.79 Q 38.44 6.693 38.173 6.396 A 1.41 1.41 0 0 1 37.89 5.899 Q 37.773 5.556 37.771 5.089 L 37.771 1.995 L 38.584 1.995 L 38.584 5.067 Q 38.584 6.037 39.292 6.137 A 1.229 1.229 0 0 0 39.463 6.148 A 1.927 1.927 0 0 0 39.914 6.099 Q 40.476 5.964 40.702 5.454 L 40.702 1.995 L 41.515 1.995 L 41.515 6.75 L 40.742 6.75 Z M 36.105 5.251 L 36.875 5.251 A 1.432 1.432 0 0 1 36.675 5.901 A 1.772 1.772 0 0 1 36.593 6.029 A 1.828 1.828 0 0 1 35.984 6.574 A 2.169 2.169 0 0 1 35.901 6.618 A 1.997 1.997 0 0 1 34.985 6.838 A 2.346 2.346 0 0 1 34.288 6.739 A 1.839 1.839 0 0 1 33.44 6.19 A 2.171 2.171 0 0 1 32.976 5.31 Q 32.867 4.909 32.867 4.417 L 32.867 4.28 A 3.24 3.24 0 0 1 32.93 3.624 A 2.57 2.57 0 0 1 33.122 3.045 A 2.008 2.008 0 0 1 33.561 2.431 A 1.892 1.892 0 0 1 33.853 2.206 A 1.943 1.943 0 0 1 34.61 1.934 A 2.529 2.529 0 0 1 34.98 1.907 A 2.196 2.196 0 0 1 35.629 1.999 A 1.786 1.786 0 0 1 36.31 2.386 A 1.693 1.693 0 0 1 36.868 3.535 A 2.239 2.239 0 0 1 36.875 3.63 L 36.105 3.63 Q 36.07 3.168 35.756 2.872 A 1.078 1.078 0 0 0 35.027 2.576 A 1.402 1.402 0 0 0 34.98 2.575 A 1.374 1.374 0 0 0 34.559 2.637 A 1.081 1.081 0 0 0 34.02 3.021 A 1.469 1.469 0 0 0 33.794 3.468 Q 33.728 3.674 33.7 3.923 A 3.514 3.514 0 0 0 33.68 4.311 L 33.68 4.465 Q 33.68 5.287 34.018 5.73 A 1.1 1.1 0 0 0 34.805 6.165 A 1.611 1.611 0 0 0 34.985 6.174 A 1.171 1.171 0 0 0 35.745 5.911 A 1.007 1.007 0 0 0 35.989 5.629 A 0.914 0.914 0 0 0 36.105 5.251 Z M 23.462 4.504 L 23.462 4.355 A 3.17 3.17 0 0 1 23.539 3.646 A 2.581 2.581 0 0 1 23.733 3.092 A 2.191 2.191 0 0 1 24.18 2.466 A 2.033 2.033 0 0 1 24.489 2.221 Q 24.974 1.907 25.541 1.907 A 2.254 2.254 0 0 1 26.154 1.986 A 1.639 1.639 0 0 1 26.982 2.518 Q 27.497 3.129 27.497 4.267 L 27.497 4.605 L 24.275 4.605 A 2.111 2.111 0 0 0 24.346 5.114 A 1.516 1.516 0 0 0 24.686 5.741 A 1.282 1.282 0 0 0 25.62 6.173 A 1.652 1.652 0 0 0 25.686 6.174 A 1.763 1.763 0 0 0 26.014 6.145 Q 26.238 6.103 26.416 5.999 A 1.827 1.827 0 0 0 26.924 5.551 A 2.068 2.068 0 0 0 26.938 5.533 L 27.435 5.919 A 1.926 1.926 0 0 1 26.035 6.811 A 2.749 2.749 0 0 1 25.642 6.838 A 2.394 2.394 0 0 1 24.891 6.725 A 1.974 1.974 0 0 1 24.069 6.203 Q 23.462 5.568 23.462 4.504 Z M 42.543 4.504 L 42.543 4.355 A 3.17 3.17 0 0 1 42.62 3.646 A 2.581 2.581 0 0 1 42.814 3.092 A 2.191 2.191 0 0 1 43.261 2.466 A 2.033 2.033 0 0 1 43.57 2.221 Q 44.055 1.907 44.622 1.907 A 2.254 2.254 0 0 1 45.235 1.986 A 1.639 1.639 0 0 1 46.063 2.518 Q 46.578 3.129 46.578 4.267 L 46.578 4.605 L 43.356 4.605 A 2.111 2.111 0 0 0 43.428 5.114 A 1.516 1.516 0 0 0 43.767 5.741 A 1.282 1.282 0 0 0 44.701 6.173 A 1.652 1.652 0 0 0 44.767 6.174 A 1.763 1.763 0 0 0 45.095 6.145 Q 45.319 6.103 45.497 5.999 A 1.827 1.827 0 0 0 46.005 5.551 A 2.068 2.068 0 0 0 46.02 5.533 L 46.516 5.919 A 1.926 1.926 0 0 1 45.116 6.811 A 2.749 2.749 0 0 1 44.723 6.838 A 2.394 2.394 0 0 1 43.972 6.725 A 1.974 1.974 0 0 1 43.15 6.203 Q 42.543 5.568 42.543 4.504 Z M 63.057 0.352 L 63.057 6.06 L 66.089 6.06 L 66.089 6.75 L 62.209 6.75 L 62.209 0.352 L 63.057 0.352 Z M 53.095 0.352 L 53.095 4.601 L 53.982 4.601 L 53.982 5.265 L 53.095 5.265 L 53.095 6.75 L 52.277 6.75 L 52.277 5.265 L 49.364 5.265 L 49.364 4.786 L 52.229 0.352 L 53.095 0.352 Z M 58.493 2.592 A 1.544 1.544 0 0 0 58.597 2.021 A 2.226 2.226 0 0 0 58.575 1.707 A 1.566 1.566 0 0 0 58.076 0.738 A 1.754 1.754 0 0 0 57.31 0.333 A 2.443 2.443 0 0 0 56.711 0.264 A 2.539 2.539 0 0 0 56.202 0.312 A 1.767 1.767 0 0 0 55.345 0.738 Q 54.826 1.213 54.826 2.021 A 1.808 1.808 0 0 0 54.827 2.058 A 1.499 1.499 0 0 0 55.072 2.87 A 1.626 1.626 0 0 0 55.234 3.077 A 1.726 1.726 0 0 0 55.745 3.454 A 2.119 2.119 0 0 0 55.645 3.5 A 1.738 1.738 0 0 0 54.96 4.087 A 1.629 1.629 0 0 0 54.677 5.023 A 2.272 2.272 0 0 0 54.687 5.237 A 1.63 1.63 0 0 0 55.233 6.344 A 1.895 1.895 0 0 0 56.083 6.771 A 2.797 2.797 0 0 0 56.711 6.838 A 2.796 2.796 0 0 0 57.31 6.777 A 1.925 1.925 0 0 0 58.186 6.346 A 1.578 1.578 0 0 0 58.661 5.62 A 1.989 1.989 0 0 0 58.746 5.023 A 1.581 1.581 0 0 0 58.454 4.087 Q 58.162 3.674 57.661 3.458 Q 58.091 3.248 58.344 2.874 A 1.449 1.449 0 0 0 58.493 2.592 Z M 79.405 0.844 L 80.218 0.844 L 80.218 1.995 L 81.105 1.995 L 81.105 2.624 L 80.218 2.624 L 80.218 5.572 Q 80.218 5.858 80.336 6.001 Q 80.455 6.144 80.741 6.144 A 1.046 1.046 0 0 0 80.838 6.138 Q 80.941 6.129 81.081 6.101 A 4.024 4.024 0 0 0 81.127 6.091 L 81.127 6.75 A 2.463 2.463 0 0 1 80.695 6.829 A 2.157 2.157 0 0 1 80.503 6.838 Q 80.056 6.838 79.79 6.616 A 0.856 0.856 0 0 1 79.682 6.508 Q 79.454 6.238 79.414 5.78 A 2.351 2.351 0 0 1 79.405 5.572 L 79.405 2.624 L 78.539 2.624 L 78.539 1.995 L 79.405 1.995 L 79.405 0.844 Z M 67.808 1.995 L 67.808 6.75 L 66.995 6.75 L 66.995 1.995 L 67.808 1.995 Z M 72.114 5.449 L 72.114 3.278 A 1.439 1.439 0 0 0 71.813 2.891 Q 71.51 2.62 71.069 2.599 A 1.578 1.578 0 0 0 70.994 2.597 Q 70.402 2.597 70.068 3.056 A 1.51 1.51 0 0 0 69.857 3.484 Q 69.791 3.689 69.76 3.939 A 3.955 3.955 0 0 0 69.732 4.425 Q 69.732 5.229 70.062 5.689 Q 70.392 6.148 70.985 6.148 A 1.32 1.32 0 0 0 71.495 6.054 Q 71.886 5.891 72.114 5.449 Z M 19.099 1.046 L 19.099 3.472 L 20.395 3.472 Q 20.935 3.472 21.285 3.231 A 1.174 1.174 0 0 0 21.395 3.146 A 1.069 1.069 0 0 0 21.76 2.409 A 1.486 1.486 0 0 0 21.766 2.276 Q 21.766 1.734 21.47 1.423 A 1 1 0 0 0 21.412 1.367 Q 21.059 1.05 20.391 1.046 L 19.099 1.046 Z M 52.181 1.639 L 50.287 4.601 L 52.277 4.601 L 52.277 1.463 L 52.181 1.639 Z M 57.933 5.005 A 1.375 1.375 0 0 0 57.874 4.592 A 1.109 1.109 0 0 0 57.593 4.131 A 1.148 1.148 0 0 0 56.921 3.807 A 1.593 1.593 0 0 0 56.703 3.792 A 1.466 1.466 0 0 0 56.314 3.841 A 1.086 1.086 0 0 0 55.822 4.126 A 1.123 1.123 0 0 0 55.508 4.762 A 1.572 1.572 0 0 0 55.49 5.005 A 1.48 1.48 0 0 0 55.531 5.367 A 1.019 1.019 0 0 0 55.813 5.862 Q 56.119 6.158 56.652 6.173 A 2.053 2.053 0 0 0 56.711 6.174 Q 57.205 6.174 57.515 5.94 A 1.018 1.018 0 0 0 57.608 5.86 A 1.041 1.041 0 0 0 57.907 5.292 A 1.518 1.518 0 0 0 57.933 5.005 Z M 56.711 0.932 A 1.259 1.259 0 0 0 56.359 0.979 A 0.973 0.973 0 0 0 55.936 1.228 Q 55.639 1.525 55.639 2.035 A 1.325 1.325 0 0 0 55.684 2.387 A 0.994 0.994 0 0 0 55.931 2.823 A 0.974 0.974 0 0 0 56.494 3.108 A 1.382 1.382 0 0 0 56.711 3.125 A 1.279 1.279 0 0 0 57.056 3.08 A 0.952 0.952 0 0 0 57.491 2.823 A 1.018 1.018 0 0 0 57.767 2.26 A 1.426 1.426 0 0 0 57.784 2.035 A 1.282 1.282 0 0 0 57.734 1.668 A 1.013 1.013 0 0 0 57.48 1.239 Q 57.177 0.932 56.711 0.932 Z M 24.302 3.938 L 26.684 3.938 L 26.684 3.876 Q 26.658 3.417 26.487 3.111 A 1.13 1.13 0 0 0 26.35 2.916 A 0.983 0.983 0 0 0 25.695 2.584 A 1.39 1.39 0 0 0 25.541 2.575 A 1.106 1.106 0 0 0 25.019 2.698 A 1.14 1.14 0 0 0 24.715 2.933 A 1.417 1.417 0 0 0 24.438 3.379 Q 24.365 3.563 24.325 3.785 A 2.741 2.741 0 0 0 24.302 3.938 Z M 43.383 3.938 L 45.765 3.938 L 45.765 3.876 Q 45.739 3.417 45.568 3.111 A 1.13 1.13 0 0 0 45.431 2.916 A 0.983 0.983 0 0 0 44.776 2.584 A 1.39 1.39 0 0 0 44.622 2.575 A 1.106 1.106 0 0 0 44.1 2.698 A 1.14 1.14 0 0 0 43.796 2.933 A 1.417 1.417 0 0 0 43.519 3.379 Q 43.446 3.563 43.406 3.785 A 2.741 2.741 0 0 0 43.383 3.938 Z M 66.929 0.734 Q 66.929 0.536 67.05 0.4 Q 67.161 0.274 67.373 0.264 A 0.783 0.783 0 0 1 67.408 0.264 Q 67.645 0.264 67.768 0.4 A 0.474 0.474 0 0 1 67.89 0.703 A 0.614 0.614 0 0 1 67.891 0.734 A 0.523 0.523 0 0 1 67.866 0.9 A 0.442 0.442 0 0 1 67.768 1.063 Q 67.656 1.184 67.448 1.194 A 0.803 0.803 0 0 1 67.408 1.195 Q 67.235 1.195 67.125 1.126 A 0.362 0.362 0 0 1 67.05 1.063 A 0.456 0.456 0 0 1 66.931 0.788 A 0.605 0.605 0 0 1 66.929 0.734 Z" vector-effect="non-scaling-stroke"/></g>
</svgversion="1.0" encoding="UTF-8"?>
<svg width="48px" height="48px" viewBox="0 0 48 48" version="1.1" xmlns="http://www.w3.org/2000/svg" xmlns:xlink="http://www.w3.org/1999/xlink">
    <title>Icon-Resource/Compute/Res_Amazon-EC2_Rescue_48_Light</title>
    <g id="Icon-Resource/Compute/Res_Amazon-EC2_Rescue_48" stroke="none" stroke-width="1" fill="none" fill-rule="evenodd">
        <path transform="translate(12.000000, 8.000000), scale(.65)" d="M31.073,26.453 L39.553,26.453 L39.553,21.467 L31.073,21.467 L31.073,26.453 Z M28.453,36.367 L28.453,32.09 C29.989,31.241 31.243,29.987 32.091,28.453 L36.367,28.453 C35.041,32.115 32.116,35.04 28.453,36.367 L28.453,36.367 Z M21.467,39.554 L26.453,39.554 L26.453,31.074 L21.467,31.074 L21.467,39.554 Z M11.553,28.453 L15.831,28.453 C16.678,29.987 17.933,31.242 19.466,32.09 L19.466,36.367 C15.805,35.04 12.881,32.115 11.553,28.453 L11.553,28.453 Z M8.367,26.453 L16.846,26.453 L16.846,21.467 L8.367,21.467 L8.367,26.453 Z M19.466,11.553 L19.466,15.83 C17.933,16.677 16.679,17.931 15.83,19.467 L11.553,19.467 C12.88,15.805 15.804,12.879 19.466,11.553 L19.466,11.553 Z M21.466,16.846 L26.452,16.846 L26.452,8.366 L21.466,8.366 L21.466,16.846 Z M28.388,29.75 C28.253,29.359 27.891,29.073 27.453,29.073 L20.466,29.073 C20.029,29.073 19.668,29.359 19.532,29.75 C19.019,29.359 18.562,28.902 18.17,28.388 C18.561,28.253 18.846,27.892 18.846,27.453 L18.846,20.467 C18.846,20.029 18.561,19.667 18.17,19.532 C18.562,19.019 19.019,18.562 19.532,18.17 C19.668,18.562 20.029,18.847 20.466,18.847 L27.453,18.847 C27.891,18.847 28.253,18.562 28.388,18.169 C28.901,18.562 29.359,19.019 29.751,19.531 C29.359,19.667 29.073,20.029 29.073,20.467 L29.073,27.453 C29.073,27.892 29.359,28.253 29.751,28.388 C29.359,28.901 28.901,29.359 28.388,29.75 L28.388,29.75 Z M36.367,19.467 L32.091,19.467 C31.243,17.931 29.987,16.677 28.453,15.83 L28.453,11.553 C32.116,12.879 35.041,15.804 36.367,19.467 L36.367,19.467 Z M40.553,19.467 L38.498,19.467 C37.031,14.7 33.22,10.889 28.453,9.423 L28.453,7.366 C28.453,6.814 28.006,6.366 27.453,6.366 L20.466,6.366 C19.914,6.366 19.466,6.814 19.466,7.366 L19.466,9.423 C14.701,10.89 10.89,14.699 9.423,19.467 L7.367,19.467 C6.814,19.467 6.367,19.914 6.367,20.467 L6.367,27.453 C6.367,28.006 6.814,28.453 7.367,28.453 L9.424,28.453 C10.89,33.22 14.701,37.029 19.466,38.497 L19.466,40.554 C19.466,41.107 19.914,41.554 20.466,41.554 L27.453,41.554 C28.006,41.554 28.453,41.107 28.453,40.554 L28.453,38.497 C33.22,37.03 37.03,33.22 38.497,28.453 L40.553,28.453 C41.106,28.453 41.553,28.006 41.553,27.453 L41.553,20.467 C41.553,19.914 41.106,19.467 40.553,19.467 L40.553,19.467 Z M43.92,39.472 C43.92,41.925 41.925,43.92 39.472,43.92 L8.448,43.92 C5.995,43.92 4,41.925 4,39.472 L4,8.447 C4,5.995 5.995,4 8.448,4 L39.472,4 C41.925,4 43.92,5.995 43.92,8.447 L43.92,39.472 Z M39.472,2 L8.448,2 C4.892,2 2,4.893 2,8.447 L2,39.472 C2,43.028 4.892,45.92 8.448,45.92 L39.472,45.92 C43.027,45.92 45.92,43.028 45.92,39.472 L45.92,8.447 C45.92,4.893 43.027,2 39.472,2 L39.472,2 Z" id="Amazon-EC2-Rescue_Resource-Icon_light-bg" fill="#000000"></path>
    </g><g transform="translate(25, 83)" id="svgGroup" stroke-linecap="round" fill-rule="evenodd" font-size="9pt" stroke="#000" stroke-width="0.25mm" fill="#000" style="stroke:#000;stroke-width:0.25mm;fill:#000"><path d="M 3.617 3.103 L 3.617 3.792 L 0.844 3.792 L 0.844 6.06 L 4.065 6.06 L 4.065 6.75 L 0 6.75 L 0 0.352 L 4.021 0.352 L 4.021 1.046 L 0.844 1.046 L 0.844 3.103 L 3.617 3.103 Z M 8.974 4.72 L 9.822 4.72 A 3.016 3.016 0 0 1 9.661 5.416 A 2.099 2.099 0 0 1 9.073 6.286 Q 8.442 6.838 7.396 6.838 A 2.553 2.553 0 0 1 6.527 6.696 A 2.194 2.194 0 0 1 5.579 6.025 A 2.789 2.789 0 0 1 5.017 4.901 Q 4.911 4.484 4.897 3.992 A 5.262 5.262 0 0 1 4.896 3.85 L 4.896 3.234 A 4.251 4.251 0 0 1 4.966 2.445 A 3.229 3.229 0 0 1 5.214 1.666 A 2.539 2.539 0 0 1 5.67 0.99 A 2.26 2.26 0 0 1 6.117 0.626 A 2.415 2.415 0 0 1 7.143 0.281 A 3.027 3.027 0 0 1 7.471 0.264 A 2.962 2.962 0 0 1 8.177 0.343 A 2.065 2.065 0 0 1 9.105 0.833 A 2.16 2.16 0 0 1 9.7 1.795 A 3.086 3.086 0 0 1 9.822 2.408 L 8.974 2.408 Q 8.905 1.929 8.735 1.616 A 1.223 1.223 0 0 0 8.497 1.301 A 1.207 1.207 0 0 0 7.992 1.024 Q 7.804 0.971 7.581 0.961 A 2.396 2.396 0 0 0 7.471 0.958 A 1.753 1.753 0 0 0 6.892 1.049 A 1.463 1.463 0 0 0 6.203 1.556 A 1.989 1.989 0 0 0 5.889 2.175 Q 5.744 2.636 5.744 3.256 L 5.744 3.876 Q 5.744 4.917 6.179 5.533 A 1.38 1.38 0 0 0 7.177 6.135 A 1.814 1.814 0 0 0 7.396 6.148 A 2.497 2.497 0 0 0 7.803 6.117 Q 8.023 6.08 8.199 6.002 A 1.155 1.155 0 0 0 8.475 5.829 Q 8.851 5.511 8.974 4.72 Z M 14.955 6.086 L 14.955 6.75 L 10.762 6.75 L 10.762 6.166 L 12.977 3.705 A 9.853 9.853 0 0 0 13.23 3.407 Q 13.468 3.115 13.601 2.894 A 2.159 2.159 0 0 0 13.656 2.797 Q 13.843 2.448 13.843 2.074 A 1.354 1.354 0 0 0 13.791 1.69 A 1.067 1.067 0 0 0 13.54 1.252 Q 13.236 0.932 12.731 0.932 A 1.71 1.71 0 0 0 12.346 0.972 Q 12.009 1.05 11.788 1.277 Q 11.469 1.605 11.453 2.177 A 2.18 2.18 0 0 0 11.452 2.237 L 10.639 2.237 Q 10.639 1.354 11.208 0.809 A 1.914 1.914 0 0 1 12.166 0.318 A 2.782 2.782 0 0 1 12.731 0.264 A 2.749 2.749 0 0 1 13.312 0.322 Q 13.69 0.403 13.975 0.6 A 1.626 1.626 0 0 1 14.142 0.732 A 1.546 1.546 0 0 1 14.65 1.765 A 2.151 2.151 0 0 1 14.66 1.978 A 1.917 1.917 0 0 1 14.519 2.666 Q 14.298 3.241 13.725 3.922 A 8.818 8.818 0 0 1 13.456 4.228 L 11.742 6.086 L 14.955 6.086 Z M 74.971 0 L 74.971 2.571 A 1.767 1.767 0 0 1 75.637 2.053 A 1.832 1.832 0 0 1 76.377 1.907 A 1.905 1.905 0 0 1 77.01 2.004 Q 77.852 2.3 77.895 3.506 A 3.668 3.668 0 0 1 77.897 3.608 L 77.897 6.75 L 77.084 6.75 L 77.084 3.604 A 1.837 1.837 0 0 0 77.062 3.324 Q 77.012 3.017 76.849 2.843 Q 76.663 2.645 76.31 2.606 A 1.66 1.66 0 0 0 76.131 2.597 A 1.253 1.253 0 0 0 75.717 2.664 A 1.123 1.123 0 0 0 75.437 2.808 A 1.432 1.432 0 0 0 74.971 3.362 L 74.971 6.75 L 74.158 6.75 L 74.158 0 L 74.971 0 Z M 21.99 6.75 L 20.602 4.162 L 19.099 4.162 L 19.099 6.75 L 18.25 6.75 L 18.25 0.352 L 20.369 0.352 A 3.809 3.809 0 0 1 21.01 0.402 Q 21.352 0.461 21.626 0.587 A 1.789 1.789 0 0 1 22.032 0.844 A 1.588 1.588 0 0 1 22.557 1.732 A 2.453 2.453 0 0 1 22.614 2.276 A 1.864 1.864 0 0 1 22.523 2.868 A 1.64 1.64 0 0 1 22.291 3.318 A 1.849 1.849 0 0 1 21.632 3.875 A 2.342 2.342 0 0 1 21.393 3.981 L 22.896 6.697 L 22.896 6.75 L 21.99 6.75 Z M 72.149 2.522 L 72.189 1.995 L 72.932 1.995 L 72.932 6.636 A 2.511 2.511 0 0 1 72.861 7.249 A 1.738 1.738 0 0 1 72.385 8.09 A 1.834 1.834 0 0 1 71.455 8.57 A 2.671 2.671 0 0 1 70.915 8.622 A 2.446 2.446 0 0 1 69.908 8.402 A 2.003 2.003 0 0 1 69.498 8.161 A 1.563 1.563 0 0 1 69.157 7.8 L 69.579 7.313 A 1.889 1.889 0 0 0 70.013 7.712 A 1.514 1.514 0 0 0 70.857 7.958 A 1.695 1.695 0 0 0 71.234 7.919 Q 71.503 7.858 71.697 7.702 A 1.037 1.037 0 0 0 71.782 7.625 A 1.09 1.09 0 0 0 72.059 7.132 Q 72.107 6.959 72.113 6.752 A 2.134 2.134 0 0 0 72.114 6.684 L 72.114 6.275 A 1.601 1.601 0 0 1 71.062 6.821 A 2.279 2.279 0 0 1 70.783 6.838 A 1.672 1.672 0 0 1 70.027 6.67 Q 69.705 6.51 69.456 6.197 A 2.14 2.14 0 0 1 69.431 6.166 A 2.316 2.316 0 0 1 69.048 5.386 Q 68.915 4.922 68.915 4.333 Q 68.915 3.472 69.223 2.884 A 2.096 2.096 0 0 1 69.429 2.564 Q 69.943 1.907 70.792 1.907 A 1.971 1.971 0 0 1 71.39 1.994 A 1.55 1.55 0 0 1 72.149 2.522 Z M 31.975 3.393 L 31.157 3.393 Q 31.157 3.059 30.874 2.817 Q 30.59 2.575 30.16 2.575 Q 29.716 2.575 29.465 2.769 A 0.653 0.653 0 0 0 29.29 2.967 Q 29.217 3.098 29.215 3.263 A 0.771 0.771 0 0 0 29.215 3.274 A 0.588 0.588 0 0 0 29.245 3.467 A 0.48 0.48 0 0 0 29.448 3.718 A 1.093 1.093 0 0 0 29.598 3.796 Q 29.762 3.868 30.018 3.937 A 6.581 6.581 0 0 0 30.289 4.003 A 6.318 6.318 0 0 1 30.697 4.108 Q 31.034 4.208 31.276 4.329 A 1.901 1.901 0 0 1 31.532 4.481 Q 31.669 4.579 31.766 4.692 A 1.06 1.06 0 0 1 31.836 4.783 A 1.024 1.024 0 0 1 31.998 5.191 A 1.388 1.388 0 0 1 32.019 5.432 Q 32.019 6.069 31.509 6.453 Q 31.026 6.817 30.272 6.837 A 3.337 3.337 0 0 1 30.186 6.838 A 2.746 2.746 0 0 1 29.652 6.788 A 2.124 2.124 0 0 1 29.175 6.636 A 1.771 1.771 0 0 1 28.741 6.358 A 1.54 1.54 0 0 1 28.488 6.071 Q 28.239 5.708 28.239 5.287 L 29.052 5.287 A 0.932 0.932 0 0 0 29.126 5.612 A 0.827 0.827 0 0 0 29.38 5.935 A 1.072 1.072 0 0 0 29.782 6.128 Q 29.936 6.167 30.118 6.173 A 2.013 2.013 0 0 0 30.186 6.174 A 1.863 1.863 0 0 0 30.482 6.152 Q 30.643 6.126 30.775 6.07 A 0.941 0.941 0 0 0 30.927 5.988 A 0.689 0.689 0 0 0 31.091 5.837 A 0.554 0.554 0 0 0 31.206 5.489 A 0.698 0.698 0 0 0 31.169 5.258 A 0.581 0.581 0 0 0 30.957 4.977 A 1.05 1.05 0 0 0 30.788 4.878 Q 30.6 4.788 30.305 4.712 A 5.392 5.392 0 0 0 30.092 4.663 A 6.342 6.342 0 0 1 29.731 4.575 Q 29.361 4.473 29.112 4.346 Q 28.813 4.194 28.642 3.994 A 1.017 1.017 0 0 1 28.575 3.907 Q 28.402 3.652 28.402 3.3 A 1.206 1.206 0 0 1 28.801 2.396 A 1.694 1.694 0 0 1 28.896 2.312 A 1.752 1.752 0 0 1 29.679 1.952 A 2.471 2.471 0 0 1 30.16 1.907 A 2.559 2.559 0 0 1 30.723 1.966 A 1.757 1.757 0 0 1 31.471 2.325 Q 31.975 2.742 31.975 3.393 Z M 40.742 6.75 L 40.724 6.28 A 1.526 1.526 0 0 1 39.898 6.775 Q 39.648 6.836 39.35 6.838 A 2.996 2.996 0 0 1 39.331 6.838 A 2.086 2.086 0 0 1 38.871 6.79 Q 38.44 6.693 38.173 6.396 A 1.41 1.41 0 0 1 37.89 5.899 Q 37.773 5.556 37.771 5.089 L 37.771 1.995 L 38.584 1.995 L 38.584 5.067 Q 38.584 6.037 39.292 6.137 A 1.229 1.229 0 0 0 39.463 6.148 A 1.927 1.927 0 0 0 39.914 6.099 Q 40.476 5.964 40.702 5.454 L 40.702 1.995 L 41.515 1.995 L 41.515 6.75 L 40.742 6.75 Z M 36.105 5.251 L 36.875 5.251 A 1.432 1.432 0 0 1 36.675 5.901 A 1.772 1.772 0 0 1 36.593 6.029 A 1.828 1.828 0 0 1 35.984 6.574 A 2.169 2.169 0 0 1 35.901 6.618 A 1.997 1.997 0 0 1 34.985 6.838 A 2.346 2.346 0 0 1 34.288 6.739 A 1.839 1.839 0 0 1 33.44 6.19 A 2.171 2.171 0 0 1 32.976 5.31 Q 32.867 4.909 32.867 4.417 L 32.867 4.28 A 3.24 3.24 0 0 1 32.93 3.624 A 2.57 2.57 0 0 1 33.122 3.045 A 2.008 2.008 0 0 1 33.561 2.431 A 1.892 1.892 0 0 1 33.853 2.206 A 1.943 1.943 0 0 1 34.61 1.934 A 2.529 2.529 0 0 1 34.98 1.907 A 2.196 2.196 0 0 1 35.629 1.999 A 1.786 1.786 0 0 1 36.31 2.386 A 1.693 1.693 0 0 1 36.868 3.535 A 2.239 2.239 0 0 1 36.875 3.63 L 36.105 3.63 Q 36.07 3.168 35.756 2.872 A 1.078 1.078 0 0 0 35.027 2.576 A 1.402 1.402 0 0 0 34.98 2.575 A 1.374 1.374 0 0 0 34.559 2.637 A 1.081 1.081 0 0 0 34.02 3.021 A 1.469 1.469 0 0 0 33.794 3.468 Q 33.728 3.674 33.7 3.923 A 3.514 3.514 0 0 0 33.68 4.311 L 33.68 4.465 Q 33.68 5.287 34.018 5.73 A 1.1 1.1 0 0 0 34.805 6.165 A 1.611 1.611 0 0 0 34.985 6.174 A 1.171 1.171 0 0 0 35.745 5.911 A 1.007 1.007 0 0 0 35.989 5.629 A 0.914 0.914 0 0 0 36.105 5.251 Z M 23.462 4.504 L 23.462 4.355 A 3.17 3.17 0 0 1 23.539 3.646 A 2.581 2.581 0 0 1 23.733 3.092 A 2.191 2.191 0 0 1 24.18 2.466 A 2.033 2.033 0 0 1 24.489 2.221 Q 24.974 1.907 25.541 1.907 A 2.254 2.254 0 0 1 26.154 1.986 A 1.639 1.639 0 0 1 26.982 2.518 Q 27.497 3.129 27.497 4.267 L 27.497 4.605 L 24.275 4.605 A 2.111 2.111 0 0 0 24.346 5.114 A 1.516 1.516 0 0 0 24.686 5.741 A 1.282 1.282 0 0 0 25.62 6.173 A 1.652 1.652 0 0 0 25.686 6.174 A 1.763 1.763 0 0 0 26.014 6.145 Q 26.238 6.103 26.416 5.999 A 1.827 1.827 0 0 0 26.924 5.551 A 2.068 2.068 0 0 0 26.938 5.533 L 27.435 5.919 A 1.926 1.926 0 0 1 26.035 6.811 A 2.749 2.749 0 0 1 25.642 6.838 A 2.394 2.394 0 0 1 24.891 6.725 A 1.974 1.974 0 0 1 24.069 6.203 Q 23.462 5.568 23.462 4.504 Z M 42.543 4.504 L 42.543 4.355 A 3.17 3.17 0 0 1 42.62 3.646 A 2.581 2.581 0 0 1 42.814 3.092 A 2.191 2.191 0 0 1 43.261 2.466 A 2.033 2.033 0 0 1 43.57 2.221 Q 44.055 1.907 44.622 1.907 A 2.254 2.254 0 0 1 45.235 1.986 A 1.639 1.639 0 0 1 46.063 2.518 Q 46.578 3.129 46.578 4.267 L 46.578 4.605 L 43.356 4.605 A 2.111 2.111 0 0 0 43.428 5.114 A 1.516 1.516 0 0 0 43.767 5.741 A 1.282 1.282 0 0 0 44.701 6.173 A 1.652 1.652 0 0 0 44.767 6.174 A 1.763 1.763 0 0 0 45.095 6.145 Q 45.319 6.103 45.497 5.999 A 1.827 1.827 0 0 0 46.005 5.551 A 2.068 2.068 0 0 0 46.02 5.533 L 46.516 5.919 A 1.926 1.926 0 0 1 45.116 6.811 A 2.749 2.749 0 0 1 44.723 6.838 A 2.394 2.394 0 0 1 43.972 6.725 A 1.974 1.974 0 0 1 43.15 6.203 Q 42.543 5.568 42.543 4.504 Z M 63.057 0.352 L 63.057 6.06 L 66.089 6.06 L 66.089 6.75 L 62.209 6.75 L 62.209 0.352 L 63.057 0.352 Z M 53.095 0.352 L 53.095 4.601 L 53.982 4.601 L 53.982 5.265 L 53.095 5.265 L 53.095 6.75 L 52.277 6.75 L 52.277 5.265 L 49.364 5.265 L 49.364 4.786 L 52.229 0.352 L 53.095 0.352 Z M 58.493 2.592 A 1.544 1.544 0 0 0 58.597 2.021 A 2.226 2.226 0 0 0 58.575 1.707 A 1.566 1.566 0 0 0 58.076 0.738 A 1.754 1.754 0 0 0 57.31 0.333 A 2.443 2.443 0 0 0 56.711 0.264 A 2.539 2.539 0 0 0 56.202 0.312 A 1.767 1.767 0 0 0 55.345 0.738 Q 54.826 1.213 54.826 2.021 A 1.808 1.808 0 0 0 54.827 2.058 A 1.499 1.499 0 0 0 55.072 2.87 A 1.626 1.626 0 0 0 55.234 3.077 A 1.726 1.726 0 0 0 55.745 3.454 A 2.119 2.119 0 0 0 55.645 3.5 A 1.738 1.738 0 0 0 54.96 4.087 A 1.629 1.629 0 0 0 54.677 5.023 A 2.272 2.272 0 0 0 54.687 5.237 A 1.63 1.63 0 0 0 55.233 6.344 A 1.895 1.895 0 0 0 56.083 6.771 A 2.797 2.797 0 0 0 56.711 6.838 A 2.796 2.796 0 0 0 57.31 6.777 A 1.925 1.925 0 0 0 58.186 6.346 A 1.578 1.578 0 0 0 58.661 5.62 A 1.989 1.989 0 0 0 58.746 5.023 A 1.581 1.581 0 0 0 58.454 4.087 Q 58.162 3.674 57.661 3.458 Q 58.091 3.248 58.344 2.874 A 1.449 1.449 0 0 0 58.493 2.592 Z M 79.405 0.844 L 80.218 0.844 L 80.218 1.995 L 81.105 1.995 L 81.105 2.624 L 80.218 2.624 L 80.218 5.572 Q 80.218 5.858 80.336 6.001 Q 80.455 6.144 80.741 6.144 A 1.046 1.046 0 0 0 80.838 6.138 Q 80.941 6.129 81.081 6.101 A 4.024 4.024 0 0 0 81.127 6.091 L 81.127 6.75 A 2.463 2.463 0 0 1 80.695 6.829 A 2.157 2.157 0 0 1 80.503 6.838 Q 80.056 6.838 79.79 6.616 A 0.856 0.856 0 0 1 79.682 6.508 Q 79.454 6.238 79.414 5.78 A 2.351 2.351 0 0 1 79.405 5.572 L 79.405 2.624 L 78.539 2.624 L 78.539 1.995 L 79.405 1.995 L 79.405 0.844 Z M 67.808 1.995 L 67.808 6.75 L 66.995 6.75 L 66.995 1.995 L 67.808 1.995 Z M 72.114 5.449 L 72.114 3.278 A 1.439 1.439 0 0 0 71.813 2.891 Q 71.51 2.62 71.069 2.599 A 1.578 1.578 0 0 0 70.994 2.597 Q 70.402 2.597 70.068 3.056 A 1.51 1.51 0 0 0 69.857 3.484 Q 69.791 3.689 69.76 3.939 A 3.955 3.955 0 0 0 69.732 4.425 Q 69.732 5.229 70.062 5.689 Q 70.392 6.148 70.985 6.148 A 1.32 1.32 0 0 0 71.495 6.054 Q 71.886 5.891 72.114 5.449 Z M 19.099 1.046 L 19.099 3.472 L 20.395 3.472 Q 20.935 3.472 21.285 3.231 A 1.174 1.174 0 0 0 21.395 3.146 A 1.069 1.069 0 0 0 21.76 2.409 A 1.486 1.486 0 0 0 21.766 2.276 Q 21.766 1.734 21.47 1.423 A 1 1 0 0 0 21.412 1.367 Q 21.059 1.05 20.391 1.046 L 19.099 1.046 Z M 52.181 1.639 L 50.287 4.601 L 52.277 4.601 L 52.277 1.463 L 52.181 1.639 Z M 57.933 5.005 A 1.375 1.375 0 0 0 57.874 4.592 A 1.109 1.109 0 0 0 57.593 4.131 A 1.148 1.148 0 0 0 56.921 3.807 A 1.593 1.593 0 0 0 56.703 3.792 A 1.466 1.466 0 0 0 56.314 3.841 A 1.086 1.086 0 0 0 55.822 4.126 A 1.123 1.123 0 0 0 55.508 4.762 A 1.572 1.572 0 0 0 55.49 5.005 A 1.48 1.48 0 0 0 55.531 5.367 A 1.019 1.019 0 0 0 55.813 5.862 Q 56.119 6.158 56.652 6.173 A 2.053 2.053 0 0 0 56.711 6.174 Q 57.205 6.174 57.515 5.94 A 1.018 1.018 0 0 0 57.608 5.86 A 1.041 1.041 0 0 0 57.907 5.292 A 1.518 1.518 0 0 0 57.933 5.005 Z M 56.711 0.932 A 1.259 1.259 0 0 0 56.359 0.979 A 0.973 0.973 0 0 0 55.936 1.228 Q 55.639 1.525 55.639 2.035 A 1.325 1.325 0 0 0 55.684 2.387 A 0.994 0.994 0 0 0 55.931 2.823 A 0.974 0.974 0 0 0 56.494 3.108 A 1.382 1.382 0 0 0 56.711 3.125 A 1.279 1.279 0 0 0 57.056 3.08 A 0.952 0.952 0 0 0 57.491 2.823 A 1.018 1.018 0 0 0 57.767 2.26 A 1.426 1.426 0 0 0 57.784 2.035 A 1.282 1.282 0 0 0 57.734 1.668 A 1.013 1.013 0 0 0 57.48 1.239 Q 57.177 0.932 56.711 0.932 Z M 24.302 3.938 L 26.684 3.938 L 26.684 3.876 Q 26.658 3.417 26.487 3.111 A 1.13 1.13 0 0 0 26.35 2.916 A 0.983 0.983 0 0 0 25.695 2.584 A 1.39 1.39 0 0 0 25.541 2.575 A 1.106 1.106 0 0 0 25.019 2.698 A 1.14 1.14 0 0 0 24.715 2.933 A 1.417 1.417 0 0 0 24.438 3.379 Q 24.365 3.563 24.325 3.785 A 2.741 2.741 0 0 0 24.302 3.938 Z M 43.383 3.938 L 45.765 3.938 L 45.765 3.876 Q 45.739 3.417 45.568 3.111 A 1.13 1.13 0 0 0 45.431 2.916 A 0.983 0.983 0 0 0 44.776 2.584 A 1.39 1.39 0 0 0 44.622 2.575 A 1.106 1.106 0 0 0 44.1 2.698 A 1.14 1.14 0 0 0 43.796 2.933 A 1.417 1.417 0 0 0 43.519 3.379 Q 43.446 3.563 43.406 3.785 A 2.741 2.741 0 0 0 43.383 3.938 Z M 66.929 0.734 Q 66.929 0.536 67.05 0.4 Q 67.161 0.274 67.373 0.264 A 0.783 0.783 0 0 1 67.408 0.264 Q 67.645 0.264 67.768 0.4 A 0.474 0.474 0 0 1 67.89 0.703 A 0.614 0.614 0 0 1 67.891 0.734 A 0.523 0.523 0 0 1 67.866 0.9 A 0.442 0.442 0 0 1 67.768 1.063 Q 67.656 1.184 67.448 1.194 A 0.803 0.803 0 0 1 67.408 1.195 Q 67.235 1.195 67.125 1.126 A 0.362 0.362 0 0 1 67.05 1.063 A 0.456 0.456 0 0 1 66.931 0.788 A 0.605 0.605 0 0 1 66.929 0.734 Z" vector-effect="non-scaling-stroke"/></g>
</svg>