<?xml version="1.0" encoding="UTF-8"?>
<svg width="48px" height="48px" viewBox="0 0 48 48" version="1.1" xmlns="http://www.w3.org/2000/svg" xmlns:xlink="http://www.w3.org/1999/xlink">
    <title>Icon-Resource/Quantum-Technologies/Res_Amazon-Braket_State-Vector_48_Light</title>
    <g id="Icon-Resource/Quantum-Technologies/Res_Amazon-Braket_State-Vector_48" stroke="none" stroke-width="1" fill="none" fill-rule="evenodd">
        <path transform="translate(12.000000, 8.000000), scale(.65)" d="M19.22,25.571 C18.236,25.793 17.155,25.926 16,25.976 L16,33 L14,33 L14,25.966 C10.235,25.802 7.301,24.716 5.293,22.707 C2.985,20.399 2,18.094 2,15 L2,4 L4,4 L4,15 C4,17.58 4.759,19.344 6.707,21.293 C8.336,22.923 10.793,23.815 14,23.968 L14,4 L16,4 L16,23.976 C17.003,23.929 17.936,23.81 18.781,23.62 L19.22,25.571 Z M27.101,19.421 L25.286,18.578 C25.774,17.531 26,16.394 26,15 L26,4 L28,4 L28,15 C28,16.673 27.706,18.119 27.101,19.421 L27.101,19.421 Z M39.296,29.35 C39.574,29.571 39.841,29.793 40.101,30.017 C39.842,30.24 39.574,30.463 39.296,30.683 C39.301,30.461 39.309,30.238 39.309,30.017 C39.309,29.792 39.3,29.572 39.296,29.35 L39.296,29.35 Z M36.795,35.724 C36.477,35.613 36.156,35.494 35.83,35.365 C36.022,35.259 36.213,35.158 36.405,35.048 C36.596,34.937 36.782,34.821 36.969,34.708 C36.916,35.058 36.859,35.396 36.795,35.724 L36.795,35.724 Z M33.5,42 C32.601,42 31.468,40.426 30.672,37.687 C31.593,37.373 32.542,36.986 33.498,36.547 C34.459,36.989 35.407,37.369 36.329,37.684 C35.533,40.425 34.4,42 33.5,42 L33.5,42 Z M30.032,34.708 C30.219,34.821 30.405,34.937 30.596,35.048 C30.79,35.16 30.985,35.262 31.18,35.37 C30.852,35.499 30.528,35.618 30.206,35.731 C30.143,35.401 30.084,35.06 30.032,34.708 L30.032,34.708 Z M26.9,30.017 C27.158,29.794 27.426,29.571 27.704,29.35 C27.699,29.573 27.692,29.795 27.692,30.017 C27.692,30.238 27.699,30.461 27.704,30.683 C27.426,30.463 27.158,30.24 26.9,30.017 L26.9,30.017 Z M23.123,24.026 C23.437,23.483 24.646,23.053 27.081,23.468 C27.471,23.534 27.876,23.626 28.288,23.728 C28.096,24.696 27.953,25.713 27.854,26.747 C26.99,27.36 26.174,27.992 25.436,28.636 C25.146,28.335 24.868,28.033 24.619,27.733 C23.038,25.827 22.81,24.568 23.123,24.026 L23.123,24.026 Z M31.179,24.664 C30.985,24.772 30.789,24.875 30.596,24.987 C30.405,25.097 30.219,25.213 30.032,25.326 C30.084,24.974 30.143,24.634 30.206,24.303 C30.528,24.416 30.851,24.535 31.179,24.664 L31.179,24.664 Z M37.309,30.017 C37.309,30.767 37.28,31.483 37.236,32.175 C36.647,32.567 36.038,32.949 35.405,33.315 C34.772,33.681 34.136,34.016 33.504,34.33 C32.867,34.015 32.229,33.68 31.596,33.315 C30.962,32.949 30.354,32.567 29.765,32.175 C29.721,31.483 29.692,30.767 29.692,30.017 C29.692,29.266 29.721,28.551 29.765,27.859 C30.354,27.467 30.962,27.085 31.596,26.719 C32.231,26.353 32.866,26.016 33.5,25.702 C34.134,26.016 34.77,26.353 35.405,26.719 C36.037,27.085 36.646,27.467 37.235,27.858 C37.28,28.567 37.309,29.286 37.309,30.017 L37.309,30.017 Z M36.794,24.303 C36.858,24.637 36.916,24.977 36.968,25.325 C36.78,25.213 36.596,25.097 36.405,24.987 C36.211,24.875 36.016,24.772 35.822,24.664 C36.15,24.535 36.473,24.415 36.794,24.303 L36.794,24.303 Z M39.919,23.468 C42.358,23.053 43.565,23.484 43.877,24.026 C44.191,24.568 43.962,25.827 42.381,27.733 C42.132,28.033 41.854,28.335 41.564,28.637 C40.829,27.994 40.018,27.364 39.156,26.754 C39.058,25.697 38.913,24.683 38.724,23.725 C39.132,23.624 39.533,23.534 39.919,23.468 L39.919,23.468 Z M43.009,30.017 C43.332,29.681 43.642,29.345 43.92,29.01 C46.427,25.988 46.223,24.088 45.61,23.026 C44.996,21.964 43.452,20.837 39.582,21.497 C39.153,21.57 38.707,21.67 38.254,21.782 C38.074,21.162 37.879,20.568 37.657,20.023 L35.805,20.778 C36,21.257 36.174,21.788 36.334,22.345 C35.41,22.66 34.459,23.048 33.5,23.488 C32.543,23.049 31.594,22.662 30.672,22.347 C31.468,19.608 32.601,18.034 33.5,18.034 C33.983,18.034 34.442,18.483 34.741,18.86 L36.306,17.613 C35.265,16.308 34.205,16.034 33.5,16.034 C31.32,16.034 29.724,18.446 28.761,21.786 C28.304,21.673 27.853,21.571 27.418,21.497 C23.551,20.838 22.004,21.964 21.391,23.026 C20.778,24.087 20.574,25.988 23.08,29.01 C23.358,29.345 23.667,29.681 23.991,30.016 C23.681,30.338 23.384,30.66 23.116,30.981 L24.651,32.263 C24.891,31.975 25.157,31.686 25.436,31.397 C26.174,32.042 26.989,32.674 27.854,33.287 C27.953,34.321 28.096,35.338 28.288,36.306 C27.876,36.408 27.471,36.5 27.081,36.566 C24.644,36.98 23.437,36.551 23.123,36.008 C22.827,35.496 23.136,34.669 23.346,34.222 L21.535,33.371 C20.703,35.143 20.997,36.327 21.391,37.009 C21.877,37.851 22.949,38.734 25.302,38.734 C25.916,38.734 26.617,38.674 27.418,38.537 C27.853,38.463 28.304,38.362 28.762,38.248 C29.724,41.588 31.32,44 33.5,44 C35.68,44 37.277,41.588 38.239,38.248 C38.879,38.406 39.503,38.535 40.097,38.616 L40.366,36.634 C39.844,36.564 39.287,36.447 38.713,36.303 C38.906,35.336 39.047,34.32 39.147,33.287 C40.012,32.675 40.826,32.042 41.564,31.397 C41.854,31.699 42.132,32.001 42.381,32.301 C43.962,34.207 44.191,35.466 43.877,36.008 C43.63,36.436 42.991,36.608 42.496,36.677 L42.776,38.658 C44.467,38.42 45.25,37.63 45.61,37.009 C46.223,35.946 46.427,34.047 43.92,31.024 C43.642,30.689 43.332,30.353 43.009,30.017 L43.009,30.017 Z" id="Fill-1" fill="#000000"></path>
    </g><g transform="translate(25, 83)" id="svgGroup" stroke-linecap="round" fill-rule="evenodd" font-size="9pt" stroke="#000" stroke-width="0.25mm" fill="#000" style="stroke:#000;stroke-width:0.25mm;fill:#000"><path d="M 32.023 2.202 L 31.175 2.202 A 1.466 1.466 0 0 0 31.125 1.809 A 1.066 1.066 0 0 0 30.806 1.29 A 1.211 1.211 0 0 0 30.336 1.033 Q 30.085 0.958 29.764 0.958 A 2.286 2.286 0 0 0 29.384 0.988 Q 29.182 1.022 29.02 1.095 A 1.101 1.101 0 0 0 28.791 1.233 A 0.892 0.892 0 0 0 28.446 1.887 A 1.267 1.267 0 0 0 28.441 1.995 A 0.806 0.806 0 0 0 28.709 2.6 A 1.134 1.134 0 0 0 28.773 2.656 A 1.562 1.562 0 0 0 29.011 2.813 Q 29.342 2.993 29.903 3.151 A 8.228 8.228 0 0 1 30.367 3.295 Q 30.602 3.377 30.797 3.464 A 3.297 3.297 0 0 1 31.151 3.645 A 2.342 2.342 0 0 1 31.489 3.889 Q 31.679 4.056 31.802 4.248 A 1.45 1.45 0 0 1 31.819 4.276 A 1.498 1.498 0 0 1 32.015 4.832 A 1.948 1.948 0 0 1 32.036 5.124 A 1.606 1.606 0 0 1 31.914 5.76 Q 31.768 6.101 31.45 6.354 A 1.886 1.886 0 0 1 31.43 6.37 Q 30.823 6.838 29.808 6.838 A 3.023 3.023 0 0 1 28.667 6.623 A 2.917 2.917 0 0 1 28.578 6.585 A 2.383 2.383 0 0 1 28.1 6.307 A 1.874 1.874 0 0 1 27.697 5.893 A 1.689 1.689 0 0 1 27.387 4.896 L 28.235 4.896 A 1.261 1.261 0 0 0 28.304 5.323 A 1.074 1.074 0 0 0 28.663 5.812 Q 29.048 6.113 29.664 6.144 A 2.87 2.87 0 0 0 29.808 6.148 A 2.628 2.628 0 0 0 30.195 6.121 Q 30.391 6.092 30.55 6.031 A 1.129 1.129 0 0 0 30.832 5.875 Q 31.188 5.603 31.188 5.133 A 1.074 1.074 0 0 0 31.145 4.822 A 0.816 0.816 0 0 0 30.858 4.406 Q 30.529 4.148 29.663 3.898 Q 28.578 3.586 28.083 3.131 Q 27.589 2.676 27.589 2.008 Q 27.589 1.252 28.193 0.758 A 2.121 2.121 0 0 1 29.084 0.335 A 3.087 3.087 0 0 1 29.764 0.264 A 2.913 2.913 0 0 1 30.424 0.336 A 2.372 2.372 0 0 1 30.94 0.519 A 2.051 2.051 0 0 1 31.471 0.889 A 1.834 1.834 0 0 1 31.74 1.222 A 1.798 1.798 0 0 1 32.023 2.202 Z M 16.225 6.75 L 14.568 4.548 L 14.058 5.08 L 14.058 6.75 L 13.245 6.75 L 13.245 0 L 14.058 0 L 14.058 4.083 L 14.493 3.56 L 15.974 1.995 L 16.963 1.995 L 15.113 3.981 L 17.178 6.75 L 16.225 6.75 Z M 12.133 6.75 L 11.281 6.75 A 0.632 0.632 0 0 1 11.245 6.66 Q 11.214 6.562 11.189 6.41 A 3.997 3.997 0 0 1 11.167 6.249 Q 10.6 6.838 9.813 6.838 A 2.033 2.033 0 0 1 9.284 6.772 A 1.529 1.529 0 0 1 8.659 6.44 Q 8.209 6.042 8.209 5.432 Q 8.209 4.689 8.774 4.278 Q 9.338 3.867 10.362 3.867 L 11.153 3.867 L 11.153 3.494 A 1.152 1.152 0 0 0 11.118 3.199 A 0.828 0.828 0 0 0 10.898 2.815 Q 10.682 2.6 10.292 2.568 A 1.748 1.748 0 0 0 10.147 2.562 Q 9.712 2.562 9.417 2.782 Q 9.123 3.001 9.123 3.313 L 8.306 3.313 A 1.041 1.041 0 0 1 8.431 2.825 A 1.409 1.409 0 0 1 8.558 2.626 Q 8.811 2.294 9.244 2.101 A 2.249 2.249 0 0 1 10.02 1.913 A 2.669 2.669 0 0 1 10.195 1.907 A 2.65 2.65 0 0 1 10.713 1.955 Q 11.02 2.016 11.259 2.156 A 1.439 1.439 0 0 1 11.483 2.318 A 1.396 1.396 0 0 1 11.936 3.144 A 1.998 1.998 0 0 1 11.966 3.45 L 11.966 5.638 Q 11.966 6.073 12.04 6.39 A 1.707 1.707 0 0 0 12.133 6.68 L 12.133 6.75 Z M 39.718 6.75 L 38.865 6.75 A 0.632 0.632 0 0 1 38.83 6.66 Q 38.799 6.562 38.774 6.41 A 3.997 3.997 0 0 1 38.751 6.249 Q 38.184 6.838 37.397 6.838 A 2.033 2.033 0 0 1 36.868 6.772 A 1.529 1.529 0 0 1 36.244 6.44 Q 35.793 6.042 35.793 5.432 Q 35.793 4.689 36.358 4.278 Q 36.923 3.867 37.947 3.867 L 38.738 3.867 L 38.738 3.494 A 1.152 1.152 0 0 0 38.702 3.199 A 0.828 0.828 0 0 0 38.483 2.815 Q 38.267 2.6 37.876 2.568 A 1.748 1.748 0 0 0 37.731 2.562 Q 37.296 2.562 37.002 2.782 Q 36.708 3.001 36.708 3.313 L 35.89 3.313 A 1.041 1.041 0 0 1 36.015 2.825 A 1.409 1.409 0 0 1 36.143 2.626 Q 36.396 2.294 36.828 2.101 A 2.249 2.249 0 0 1 37.604 1.913 A 2.669 2.669 0 0 1 37.78 1.907 A 2.65 2.65 0 0 1 38.297 1.955 Q 38.604 2.016 38.843 2.156 A 1.439 1.439 0 0 1 39.067 2.318 A 1.396 1.396 0 0 1 39.521 3.144 A 1.998 1.998 0 0 1 39.551 3.45 L 39.551 5.638 Q 39.551 6.073 39.624 6.39 A 1.707 1.707 0 0 0 39.718 6.68 L 39.718 6.75 Z M 17.508 4.504 L 17.508 4.355 A 3.17 3.17 0 0 1 17.584 3.646 A 2.581 2.581 0 0 1 17.778 3.092 A 2.191 2.191 0 0 1 18.226 2.466 A 2.033 2.033 0 0 1 18.534 2.221 Q 19.02 1.907 19.586 1.907 A 2.254 2.254 0 0 1 20.2 1.986 A 1.639 1.639 0 0 1 21.028 2.518 Q 21.542 3.129 21.542 4.267 L 21.542 4.605 L 18.321 4.605 A 2.111 2.111 0 0 0 18.392 5.114 A 1.516 1.516 0 0 0 18.732 5.741 A 1.282 1.282 0 0 0 19.666 6.173 A 1.652 1.652 0 0 0 19.731 6.174 A 1.763 1.763 0 0 0 20.06 6.145 Q 20.284 6.103 20.461 5.999 A 1.827 1.827 0 0 0 20.97 5.551 A 2.068 2.068 0 0 0 20.984 5.533 L 21.48 5.919 A 1.926 1.926 0 0 1 20.081 6.811 A 2.749 2.749 0 0 1 19.688 6.838 A 2.394 2.394 0 0 1 18.936 6.725 A 1.974 1.974 0 0 1 18.114 6.203 Q 17.508 5.568 17.508 4.504 Z M 43.559 4.504 L 43.559 4.355 A 3.17 3.17 0 0 1 43.635 3.646 A 2.581 2.581 0 0 1 43.829 3.092 A 2.191 2.191 0 0 1 44.276 2.466 A 2.033 2.033 0 0 1 44.585 2.221 Q 45.07 1.907 45.637 1.907 A 2.254 2.254 0 0 1 46.25 1.986 A 1.639 1.639 0 0 1 47.079 2.518 Q 47.593 3.129 47.593 4.267 L 47.593 4.605 L 44.372 4.605 A 2.111 2.111 0 0 0 44.443 5.114 A 1.516 1.516 0 0 0 44.782 5.741 A 1.282 1.282 0 0 0 45.717 6.173 A 1.652 1.652 0 0 0 45.782 6.174 A 1.763 1.763 0 0 0 46.11 6.145 Q 46.334 6.103 46.512 5.999 A 1.827 1.827 0 0 0 47.021 5.551 A 2.068 2.068 0 0 0 47.035 5.533 L 47.531 5.919 A 1.926 1.926 0 0 1 46.132 6.811 A 2.749 2.749 0 0 1 45.738 6.838 A 2.394 2.394 0 0 1 44.987 6.725 A 1.974 1.974 0 0 1 44.165 6.203 Q 43.559 5.568 43.559 4.504 Z M 2.219 6.75 L 0 6.75 L 0 0.352 L 2.092 0.352 A 4.031 4.031 0 0 1 2.665 0.39 Q 2.957 0.432 3.194 0.521 A 1.629 1.629 0 0 1 3.658 0.782 A 1.383 1.383 0 0 1 4.13 1.558 A 2.164 2.164 0 0 1 4.184 2.057 A 1.3 1.3 0 0 1 3.929 2.85 A 1.589 1.589 0 0 1 3.418 3.294 A 1.972 1.972 0 0 1 3.234 3.384 A 1.571 1.571 0 0 1 3.749 3.63 A 1.446 1.446 0 0 1 4.054 3.935 A 1.531 1.531 0 0 1 4.346 4.713 A 1.961 1.961 0 0 1 4.355 4.904 A 2.139 2.139 0 0 1 4.28 5.487 A 1.577 1.577 0 0 1 3.797 6.258 A 1.832 1.832 0 0 1 3.105 6.633 Q 2.838 6.713 2.52 6.739 A 3.81 3.81 0 0 1 2.219 6.75 Z M 22.772 0.844 L 23.585 0.844 L 23.585 1.995 L 24.473 1.995 L 24.473 2.624 L 23.585 2.624 L 23.585 5.572 Q 23.585 5.858 23.704 6.001 Q 23.823 6.144 24.108 6.144 A 1.046 1.046 0 0 0 24.206 6.138 Q 24.309 6.129 24.448 6.101 A 4.024 4.024 0 0 0 24.495 6.091 L 24.495 6.75 A 2.463 2.463 0 0 1 24.062 6.829 A 2.157 2.157 0 0 1 23.871 6.838 Q 23.424 6.838 23.157 6.616 A 0.856 0.856 0 0 1 23.049 6.508 Q 22.822 6.238 22.781 5.78 A 2.351 2.351 0 0 1 22.772 5.572 L 22.772 2.624 L 21.907 2.624 L 21.907 1.995 L 22.772 1.995 L 22.772 0.844 Z M 33.28 0.844 L 34.093 0.844 L 34.093 1.995 L 34.98 1.995 L 34.98 2.624 L 34.093 2.624 L 34.093 5.572 Q 34.093 5.858 34.211 6.001 Q 34.33 6.144 34.616 6.144 A 1.046 1.046 0 0 0 34.713 6.138 Q 34.816 6.129 34.956 6.101 A 4.024 4.024 0 0 0 35.002 6.091 L 35.002 6.75 A 2.463 2.463 0 0 1 34.57 6.829 A 2.157 2.157 0 0 1 34.378 6.838 Q 33.931 6.838 33.665 6.616 A 0.856 0.856 0 0 1 33.557 6.508 Q 33.329 6.238 33.289 5.78 A 2.351 2.351 0 0 1 33.28 5.572 L 33.28 2.624 L 32.414 2.624 L 32.414 1.995 L 33.28 1.995 L 33.28 0.844 Z M 41.115 0.844 L 41.928 0.844 L 41.928 1.995 L 42.816 1.995 L 42.816 2.624 L 41.928 2.624 L 41.928 5.572 Q 41.928 5.858 42.047 6.001 Q 42.166 6.144 42.451 6.144 A 1.046 1.046 0 0 0 42.549 6.138 Q 42.651 6.129 42.791 6.101 A 4.024 4.024 0 0 0 42.838 6.091 L 42.838 6.75 A 2.463 2.463 0 0 1 42.405 6.829 A 2.157 2.157 0 0 1 42.214 6.838 Q 41.767 6.838 41.5 6.616 A 0.856 0.856 0 0 1 41.392 6.508 Q 41.165 6.238 41.124 5.78 A 2.351 2.351 0 0 1 41.115 5.572 L 41.115 2.624 L 40.25 2.624 L 40.25 1.995 L 41.115 1.995 L 41.115 0.844 Z M 7.774 1.969 L 7.774 2.725 A 2.251 2.251 0 0 0 7.531 2.698 A 2.782 2.782 0 0 0 7.374 2.694 Q 6.596 2.694 6.305 3.338 A 1.445 1.445 0 0 0 6.289 3.375 L 6.289 6.75 L 5.476 6.75 L 5.476 1.995 L 6.267 1.995 L 6.28 2.544 Q 6.66 1.938 7.343 1.909 A 1.636 1.636 0 0 1 7.414 1.907 Q 7.651 1.907 7.774 1.969 Z M 2.25 3.757 L 0.844 3.757 L 0.844 6.06 L 2.237 6.06 A 1.84 1.84 0 0 0 2.612 6.024 Q 2.852 5.974 3.036 5.854 A 1.064 1.064 0 0 0 3.166 5.755 A 1.003 1.003 0 0 0 3.488 5.154 A 1.459 1.459 0 0 0 3.507 4.913 Q 3.507 4.007 2.734 3.811 A 1.977 1.977 0 0 0 2.251 3.757 Z M 0.844 1.046 L 0.844 3.081 L 2.118 3.081 Q 2.672 3.081 3.004 2.804 A 0.905 0.905 0 0 0 3.331 2.154 A 1.27 1.27 0 0 0 3.335 2.052 Q 3.335 1.696 3.195 1.471 A 0.71 0.71 0 0 0 3.028 1.285 A 0.969 0.969 0 0 0 2.742 1.136 Q 2.479 1.047 2.098 1.046 A 3.261 3.261 0 0 0 2.092 1.046 L 0.844 1.046 Z M 11.153 5.418 L 11.153 4.443 L 10.516 4.443 Q 9.022 4.443 9.022 5.317 Q 9.022 5.7 9.277 5.915 A 0.893 0.893 0 0 0 9.69 6.108 A 1.259 1.259 0 0 0 9.932 6.13 A 1.429 1.429 0 0 0 10.657 5.933 A 1.335 1.335 0 0 0 10.952 5.705 A 1.108 1.108 0 0 0 11.153 5.418 Z M 38.738 5.418 L 38.738 4.443 L 38.101 4.443 Q 36.606 4.443 36.606 5.317 Q 36.606 5.7 36.861 5.915 A 0.893 0.893 0 0 0 37.275 6.108 A 1.259 1.259 0 0 0 37.516 6.13 A 1.429 1.429 0 0 0 38.241 5.933 A 1.335 1.335 0 0 0 38.537 5.705 A 1.108 1.108 0 0 0 38.738 5.418 Z M 18.347 3.938 L 20.729 3.938 L 20.729 3.876 Q 20.703 3.417 20.532 3.111 A 1.13 1.13 0 0 0 20.395 2.916 A 0.983 0.983 0 0 0 19.741 2.584 A 1.39 1.39 0 0 0 19.586 2.575 A 1.106 1.106 0 0 0 19.064 2.698 A 1.14 1.14 0 0 0 18.76 2.933 A 1.417 1.417 0 0 0 18.484 3.379 Q 18.41 3.563 18.37 3.785 A 2.741 2.741 0 0 0 18.347 3.938 Z M 44.398 3.938 L 46.78 3.938 L 46.78 3.876 Q 46.754 3.417 46.583 3.111 A 1.13 1.13 0 0 0 46.446 2.916 A 0.983 0.983 0 0 0 45.791 2.584 A 1.39 1.39 0 0 0 45.637 2.575 A 1.106 1.106 0 0 0 45.115 2.698 A 1.14 1.14 0 0 0 44.811 2.933 A 1.417 1.417 0 0 0 44.534 3.379 Q 44.461 3.563 44.421 3.785 A 2.741 2.741 0 0 0 44.398 3.938 Z" vector-effect="non-scaling-stroke"/></g><g transform="translate(25, 93)" id="svgGroup" stroke-linecap="round" fill-rule="evenodd" font-size="9pt" stroke="#000" stroke-width="0.25mm" fill="#000" style="stroke:#000;stroke-width:0.25mm;fill:#000"><path d="M 53.987 0 L 53.987 2.571 A 1.767 1.767 0 0 1 54.653 2.053 A 1.832 1.832 0 0 1 55.393 1.907 A 1.905 1.905 0 0 1 56.027 2.004 Q 56.868 2.3 56.911 3.506 A 3.668 3.668 0 0 1 56.914 3.608 L 56.914 6.75 L 56.101 6.75 L 56.101 3.604 A 1.837 1.837 0 0 0 56.078 3.324 Q 56.028 3.017 55.865 2.843 Q 55.679 2.645 55.326 2.606 A 1.66 1.66 0 0 0 55.147 2.597 A 1.253 1.253 0 0 0 54.733 2.664 A 1.123 1.123 0 0 0 54.453 2.808 A 1.432 1.432 0 0 0 53.987 3.362 L 53.987 6.75 L 53.174 6.75 L 53.174 0 L 53.987 0 Z M 0.918 0.352 L 2.738 5.629 L 4.566 0.352 L 5.489 0.352 L 3.116 6.75 L 2.369 6.75 L 0 0.352 L 0.918 0.352 Z M 51.166 2.522 L 51.205 1.995 L 51.948 1.995 L 51.948 6.636 A 2.511 2.511 0 0 1 51.877 7.249 A 1.738 1.738 0 0 1 51.401 8.09 A 1.834 1.834 0 0 1 50.471 8.57 A 2.671 2.671 0 0 1 49.931 8.622 A 2.446 2.446 0 0 1 48.924 8.402 A 2.003 2.003 0 0 1 48.514 8.161 A 1.563 1.563 0 0 1 48.173 7.8 L 48.595 7.313 A 1.889 1.889 0 0 0 49.029 7.712 A 1.514 1.514 0 0 0 49.874 7.958 A 1.695 1.695 0 0 0 50.251 7.919 Q 50.519 7.858 50.713 7.702 A 1.037 1.037 0 0 0 50.799 7.625 A 1.09 1.09 0 0 0 51.076 7.132 Q 51.123 6.959 51.129 6.752 A 2.134 2.134 0 0 0 51.13 6.684 L 51.13 6.275 A 1.601 1.601 0 0 1 50.078 6.821 A 2.279 2.279 0 0 1 49.799 6.838 A 1.672 1.672 0 0 1 49.044 6.67 Q 48.722 6.51 48.472 6.197 A 2.14 2.14 0 0 1 48.448 6.166 A 2.316 2.316 0 0 1 48.064 5.386 Q 47.931 4.922 47.931 4.333 Q 47.931 3.472 48.24 2.884 A 2.096 2.096 0 0 1 48.445 2.564 Q 48.959 1.907 49.808 1.907 A 1.971 1.971 0 0 1 50.406 1.994 A 1.55 1.55 0 0 1 51.166 2.522 Z M 13.821 5.251 L 14.59 5.251 A 1.432 1.432 0 0 1 14.391 5.901 A 1.772 1.772 0 0 1 14.309 6.029 A 1.828 1.828 0 0 1 13.699 6.574 A 2.169 2.169 0 0 1 13.616 6.618 A 1.997 1.997 0 0 1 12.7 6.838 A 2.346 2.346 0 0 1 12.003 6.739 A 1.839 1.839 0 0 1 11.156 6.19 A 2.171 2.171 0 0 1 10.692 5.31 Q 10.582 4.909 10.582 4.417 L 10.582 4.28 A 3.24 3.24 0 0 1 10.646 3.624 A 2.57 2.57 0 0 1 10.837 3.045 A 2.008 2.008 0 0 1 11.276 2.431 A 1.892 1.892 0 0 1 11.569 2.206 A 1.943 1.943 0 0 1 12.325 1.934 A 2.529 2.529 0 0 1 12.696 1.907 A 2.196 2.196 0 0 1 13.344 1.999 A 1.786 1.786 0 0 1 14.025 2.386 A 1.693 1.693 0 0 1 14.584 3.535 A 2.239 2.239 0 0 1 14.59 3.63 L 13.821 3.63 Q 13.786 3.168 13.471 2.872 A 1.078 1.078 0 0 0 12.742 2.576 A 1.402 1.402 0 0 0 12.696 2.575 A 1.374 1.374 0 0 0 12.274 2.637 A 1.081 1.081 0 0 0 11.736 3.021 A 1.469 1.469 0 0 0 11.509 3.468 Q 11.443 3.674 11.415 3.923 A 3.514 3.514 0 0 0 11.395 4.311 L 11.395 4.465 Q 11.395 5.287 11.733 5.73 A 1.1 1.1 0 0 0 12.52 6.165 A 1.611 1.611 0 0 0 12.7 6.174 A 1.171 1.171 0 0 0 13.46 5.911 A 1.007 1.007 0 0 0 13.705 5.629 A 0.914 0.914 0 0 0 13.821 5.251 Z M 5.818 4.504 L 5.818 4.355 A 3.17 3.17 0 0 1 5.895 3.646 A 2.581 2.581 0 0 1 6.089 3.092 A 2.191 2.191 0 0 1 6.536 2.466 A 2.033 2.033 0 0 1 6.844 2.221 Q 7.33 1.907 7.897 1.907 A 2.254 2.254 0 0 1 8.51 1.986 A 1.639 1.639 0 0 1 9.338 2.518 Q 9.853 3.129 9.853 4.267 L 9.853 4.605 L 6.631 4.605 A 2.111 2.111 0 0 0 6.702 5.114 A 1.516 1.516 0 0 0 7.042 5.741 A 1.282 1.282 0 0 0 7.976 6.173 A 1.652 1.652 0 0 0 8.042 6.174 A 1.763 1.763 0 0 0 8.37 6.145 Q 8.594 6.103 8.771 5.999 A 1.827 1.827 0 0 0 9.28 5.551 A 2.068 2.068 0 0 0 9.294 5.533 L 9.791 5.919 A 1.926 1.926 0 0 1 8.391 6.811 A 2.749 2.749 0 0 1 7.998 6.838 A 2.394 2.394 0 0 1 7.247 6.725 A 1.974 1.974 0 0 1 6.425 6.203 Q 5.818 5.568 5.818 4.504 Z M 42.073 0.352 L 42.073 6.06 L 45.105 6.06 L 45.105 6.75 L 41.225 6.75 L 41.225 0.352 L 42.073 0.352 Z M 32.111 0.352 L 32.111 4.601 L 32.999 4.601 L 32.999 5.265 L 32.111 5.265 L 32.111 6.75 L 31.293 6.75 L 31.293 5.265 L 28.38 5.265 L 28.38 4.786 L 31.245 0.352 L 32.111 0.352 Z M 37.509 2.592 A 1.544 1.544 0 0 0 37.613 2.021 A 2.226 2.226 0 0 0 37.591 1.707 A 1.566 1.566 0 0 0 37.092 0.738 A 1.754 1.754 0 0 0 36.326 0.333 A 2.443 2.443 0 0 0 35.728 0.264 A 2.539 2.539 0 0 0 35.218 0.312 A 1.767 1.767 0 0 0 34.361 0.738 Q 33.842 1.213 33.842 2.021 A 1.808 1.808 0 0 0 33.843 2.058 A 1.499 1.499 0 0 0 34.088 2.87 A 1.626 1.626 0 0 0 34.25 3.077 A 1.726 1.726 0 0 0 34.761 3.454 A 2.119 2.119 0 0 0 34.661 3.5 A 1.738 1.738 0 0 0 33.976 4.087 A 1.629 1.629 0 0 0 33.693 5.023 A 2.272 2.272 0 0 0 33.703 5.237 A 1.63 1.63 0 0 0 34.249 6.344 A 1.895 1.895 0 0 0 35.099 6.771 A 2.797 2.797 0 0 0 35.728 6.838 A 2.796 2.796 0 0 0 36.327 6.777 A 1.925 1.925 0 0 0 37.202 6.346 A 1.578 1.578 0 0 0 37.677 5.62 A 1.989 1.989 0 0 0 37.762 5.023 A 1.581 1.581 0 0 0 37.47 4.087 Q 37.178 3.674 36.677 3.458 Q 37.107 3.248 37.36 2.874 A 1.449 1.449 0 0 0 37.509 2.592 Z M 15.794 0.844 L 16.607 0.844 L 16.607 1.995 L 17.495 1.995 L 17.495 2.624 L 16.607 2.624 L 16.607 5.572 Q 16.607 5.858 16.726 6.001 Q 16.844 6.144 17.13 6.144 A 1.046 1.046 0 0 0 17.227 6.138 Q 17.33 6.129 17.47 6.101 A 4.024 4.024 0 0 0 17.517 6.091 L 17.517 6.75 A 2.463 2.463 0 0 1 17.084 6.829 A 2.157 2.157 0 0 1 16.893 6.838 Q 16.445 6.838 16.179 6.616 A 0.856 0.856 0 0 1 16.071 6.508 Q 15.843 6.238 15.803 5.78 A 2.351 2.351 0 0 1 15.794 5.572 L 15.794 2.624 L 14.928 2.624 L 14.928 1.995 L 15.794 1.995 L 15.794 0.844 Z M 58.421 0.844 L 59.234 0.844 L 59.234 1.995 L 60.122 1.995 L 60.122 2.624 L 59.234 2.624 L 59.234 5.572 Q 59.234 5.858 59.353 6.001 Q 59.471 6.144 59.757 6.144 A 1.046 1.046 0 0 0 59.854 6.138 Q 59.957 6.129 60.097 6.101 A 4.024 4.024 0 0 0 60.144 6.091 L 60.144 6.75 A 2.463 2.463 0 0 1 59.711 6.829 A 2.157 2.157 0 0 1 59.52 6.838 Q 59.072 6.838 58.806 6.616 A 0.856 0.856 0 0 1 58.698 6.508 Q 58.47 6.238 58.43 5.78 A 2.351 2.351 0 0 1 58.421 5.572 L 58.421 2.624 L 57.555 2.624 L 57.555 1.995 L 58.421 1.995 L 58.421 0.844 Z M 18.141 4.386 L 18.141 4.329 A 3.057 3.057 0 0 1 18.228 3.587 A 2.573 2.573 0 0 1 18.415 3.072 A 2.16 2.16 0 0 1 18.83 2.486 A 1.957 1.957 0 0 1 19.18 2.21 A 2.036 2.036 0 0 1 20.124 1.913 A 2.491 2.491 0 0 1 20.298 1.907 A 2.277 2.277 0 0 1 21.052 2.027 A 1.937 1.937 0 0 1 21.869 2.58 A 2.29 2.29 0 0 1 22.388 3.608 A 3.373 3.373 0 0 1 22.469 4.368 L 22.469 4.425 A 3.114 3.114 0 0 1 22.39 5.142 A 2.577 2.577 0 0 1 22.203 5.671 A 2.056 2.056 0 0 1 21.676 6.361 A 2.001 2.001 0 0 1 21.443 6.53 A 2.045 2.045 0 0 1 20.523 6.829 A 2.529 2.529 0 0 1 20.307 6.838 A 2.262 2.262 0 0 1 19.557 6.718 A 1.938 1.938 0 0 1 18.74 6.166 A 2.297 2.297 0 0 1 18.215 5.111 A 3.357 3.357 0 0 1 18.141 4.386 Z M 25.787 1.969 L 25.787 2.725 A 2.251 2.251 0 0 0 25.544 2.698 A 2.782 2.782 0 0 0 25.387 2.694 Q 24.609 2.694 24.318 3.338 A 1.445 1.445 0 0 0 24.302 3.375 L 24.302 6.75 L 23.489 6.75 L 23.489 1.995 L 24.28 1.995 L 24.293 2.544 Q 24.673 1.938 25.356 1.909 A 1.636 1.636 0 0 1 25.427 1.907 Q 25.664 1.907 25.787 1.969 Z M 46.824 1.995 L 46.824 6.75 L 46.011 6.75 L 46.011 1.995 L 46.824 1.995 Z M 18.958 4.425 A 2.772 2.772 0 0 0 19.005 4.954 Q 19.066 5.264 19.203 5.51 A 1.545 1.545 0 0 0 19.325 5.695 Q 19.692 6.174 20.307 6.174 A 1.269 1.269 0 0 0 20.797 6.083 Q 21.076 5.967 21.279 5.706 A 1.471 1.471 0 0 0 21.292 5.689 A 1.648 1.648 0 0 0 21.546 5.171 Q 21.615 4.945 21.641 4.672 A 3.655 3.655 0 0 0 21.656 4.329 A 2.687 2.687 0 0 0 21.605 3.789 Q 21.537 3.459 21.38 3.2 A 1.586 1.586 0 0 0 21.285 3.061 A 1.231 1.231 0 0 0 20.87 2.705 Q 20.617 2.575 20.298 2.575 Q 19.708 2.575 19.342 3.035 A 1.515 1.515 0 0 0 19.327 3.054 A 1.589 1.589 0 0 0 19.075 3.552 Q 19.006 3.772 18.977 4.039 A 3.676 3.676 0 0 0 18.958 4.425 Z M 51.13 5.449 L 51.13 3.278 A 1.439 1.439 0 0 0 50.829 2.891 Q 50.526 2.62 50.085 2.599 A 1.578 1.578 0 0 0 50.01 2.597 Q 49.418 2.597 49.084 3.056 A 1.51 1.51 0 0 0 48.873 3.484 Q 48.808 3.689 48.776 3.939 A 3.955 3.955 0 0 0 48.749 4.425 Q 48.749 5.229 49.078 5.689 Q 49.408 6.148 50.001 6.148 A 1.32 1.32 0 0 0 50.511 6.054 Q 50.902 5.891 51.13 5.449 Z M 31.197 1.639 L 29.303 4.601 L 31.293 4.601 L 31.293 1.463 L 31.197 1.639 Z M 36.949 5.005 A 1.375 1.375 0 0 0 36.89 4.592 A 1.109 1.109 0 0 0 36.609 4.131 A 1.148 1.148 0 0 0 35.937 3.807 A 1.593 1.593 0 0 0 35.719 3.792 A 1.466 1.466 0 0 0 35.33 3.841 A 1.086 1.086 0 0 0 34.838 4.126 A 1.123 1.123 0 0 0 34.524 4.762 A 1.572 1.572 0 0 0 34.506 5.005 A 1.48 1.48 0 0 0 34.548 5.367 A 1.019 1.019 0 0 0 34.829 5.862 Q 35.135 6.158 35.668 6.173 A 2.053 2.053 0 0 0 35.728 6.174 Q 36.221 6.174 36.531 5.94 A 1.018 1.018 0 0 0 36.624 5.86 A 1.041 1.041 0 0 0 36.923 5.292 A 1.518 1.518 0 0 0 36.949 5.005 Z M 35.728 0.932 A 1.259 1.259 0 0 0 35.375 0.979 A 0.973 0.973 0 0 0 34.952 1.228 Q 34.655 1.525 34.655 2.035 A 1.325 1.325 0 0 0 34.7 2.387 A 0.994 0.994 0 0 0 34.948 2.823 A 0.974 0.974 0 0 0 35.51 3.108 A 1.382 1.382 0 0 0 35.728 3.125 A 1.279 1.279 0 0 0 36.072 3.08 A 0.952 0.952 0 0 0 36.508 2.823 A 1.018 1.018 0 0 0 36.783 2.26 A 1.426 1.426 0 0 0 36.8 2.035 A 1.282 1.282 0 0 0 36.75 1.668 A 1.013 1.013 0 0 0 36.497 1.239 Q 36.193 0.932 35.728 0.932 Z M 6.658 3.938 L 9.04 3.938 L 9.04 3.876 Q 9.014 3.417 8.843 3.111 A 1.13 1.13 0 0 0 8.706 2.916 A 0.983 0.983 0 0 0 8.051 2.584 A 1.39 1.39 0 0 0 7.897 2.575 A 1.106 1.106 0 0 0 7.375 2.698 A 1.14 1.14 0 0 0 7.071 2.933 A 1.417 1.417 0 0 0 6.794 3.379 Q 6.721 3.563 6.681 3.785 A 2.741 2.741 0 0 0 6.658 3.938 Z M 45.945 0.734 Q 45.945 0.536 46.066 0.4 Q 46.178 0.274 46.389 0.264 A 0.783 0.783 0 0 1 46.424 0.264 Q 46.661 0.264 46.784 0.4 A 0.474 0.474 0 0 1 46.906 0.703 A 0.614 0.614 0 0 1 46.907 0.734 A 0.523 0.523 0 0 1 46.882 0.9 A 0.442 0.442 0 0 1 46.784 1.063 Q 46.672 1.184 46.464 1.194 A 0.803 0.803 0 0 1 46.424 1.195 Q 46.252 1.195 46.141 1.126 A 0.362 0.362 0 0 1 46.066 1.063 A 0.456 0.456 0 0 1 45.947 0.788 A 0.605 0.605 0 0 1 45.945 0.734 Z" vector-effect="non-scaling-stroke"/></g>
</svgversion="1.0" encoding="UTF-8"?>
<svg width="48px" height="48px" viewBox="0 0 48 48" version="1.1" xmlns="http://www.w3.org/2000/svg" xmlns:xlink="http://www.w3.org/1999/xlink">
    <title>Icon-Resource/Quantum-Technologies/Res_Amazon-Braket_State-Vector_48_Light</title>
    <g id="Icon-Resource/Quantum-Technologies/Res_Amazon-Braket_State-Vector_48" stroke="none" stroke-width="1" fill="none" fill-rule="evenodd">
        <path transform="translate(12.000000, 8.000000), scale(.65)" d="M19.22,25.571 C18.236,25.793 17.155,25.926 16,25.976 L16,33 L14,33 L14,25.966 C10.235,25.802 7.301,24.716 5.293,22.707 C2.985,20.399 2,18.094 2,15 L2,4 L4,4 L4,15 C4,17.58 4.759,19.344 6.707,21.293 C8.336,22.923 10.793,23.815 14,23.968 L14,4 L16,4 L16,23.976 C17.003,23.929 17.936,23.81 18.781,23.62 L19.22,25.571 Z M27.101,19.421 L25.286,18.578 C25.774,17.531 26,16.394 26,15 L26,4 L28,4 L28,15 C28,16.673 27.706,18.119 27.101,19.421 L27.101,19.421 Z M39.296,29.35 C39.574,29.571 39.841,29.793 40.101,30.017 C39.842,30.24 39.574,30.463 39.296,30.683 C39.301,30.461 39.309,30.238 39.309,30.017 C39.309,29.792 39.3,29.572 39.296,29.35 L39.296,29.35 Z M36.795,35.724 C36.477,35.613 36.156,35.494 35.83,35.365 C36.022,35.259 36.213,35.158 36.405,35.048 C36.596,34.937 36.782,34.821 36.969,34.708 C36.916,35.058 36.859,35.396 36.795,35.724 L36.795,35.724 Z M33.5,42 C32.601,42 31.468,40.426 30.672,37.687 C31.593,37.373 32.542,36.986 33.498,36.547 C34.459,36.989 35.407,37.369 36.329,37.684 C35.533,40.425 34.4,42 33.5,42 L33.5,42 Z M30.032,34.708 C30.219,34.821 30.405,34.937 30.596,35.048 C30.79,35.16 30.985,35.262 31.18,35.37 C30.852,35.499 30.528,35.618 30.206,35.731 C30.143,35.401 30.084,35.06 30.032,34.708 L30.032,34.708 Z M26.9,30.017 C27.158,29.794 27.426,29.571 27.704,29.35 C27.699,29.573 27.692,29.795 27.692,30.017 C27.692,30.238 27.699,30.461 27.704,30.683 C27.426,30.463 27.158,30.24 26.9,30.017 L26.9,30.017 Z M23.123,24.026 C23.437,23.483 24.646,23.053 27.081,23.468 C27.471,23.534 27.876,23.626 28.288,23.728 C28.096,24.696 27.953,25.713 27.854,26.747 C26.99,27.36 26.174,27.992 25.436,28.636 C25.146,28.335 24.868,28.033 24.619,27.733 C23.038,25.827 22.81,24.568 23.123,24.026 L23.123,24.026 Z M31.179,24.664 C30.985,24.772 30.789,24.875 30.596,24.987 C30.405,25.097 30.219,25.213 30.032,25.326 C30.084,24.974 30.143,24.634 30.206,24.303 C30.528,24.416 30.851,24.535 31.179,24.664 L31.179,24.664 Z M37.309,30.017 C37.309,30.767 37.28,31.483 37.236,32.175 C36.647,32.567 36.038,32.949 35.405,33.315 C34.772,33.681 34.136,34.016 33.504,34.33 C32.867,34.015 32.229,33.68 31.596,33.315 C30.962,32.949 30.354,32.567 29.765,32.175 C29.721,31.483 29.692,30.767 29.692,30.017 C29.692,29.266 29.721,28.551 29.765,27.859 C30.354,27.467 30.962,27.085 31.596,26.719 C32.231,26.353 32.866,26.016 33.5,25.702 C34.134,26.016 34.77,26.353 35.405,26.719 C36.037,27.085 36.646,27.467 37.235,27.858 C37.28,28.567 37.309,29.286 37.309,30.017 L37.309,30.017 Z M36.794,24.303 C36.858,24.637 36.916,24.977 36.968,25.325 C36.78,25.213 36.596,25.097 36.405,24.987 C36.211,24.875 36.016,24.772 35.822,24.664 C36.15,24.535 36.473,24.415 36.794,24.303 L36.794,24.303 Z M39.919,23.468 C42.358,23.053 43.565,23.484 43.877,24.026 C44.191,24.568 43.962,25.827 42.381,27.733 C42.132,28.033 41.854,28.335 41.564,28.637 C40.829,27.994 40.018,27.364 39.156,26.754 C39.058,25.697 38.913,24.683 38.724,23.725 C39.132,23.624 39.533,23.534 39.919,23.468 L39.919,23.468 Z M43.009,30.017 C43.332,29.681 43.642,29.345 43.92,29.01 C46.427,25.988 46.223,24.088 45.61,23.026 C44.996,21.964 43.452,20.837 39.582,21.497 C39.153,21.57 38.707,21.67 38.254,21.782 C38.074,21.162 37.879,20.568 37.657,20.023 L35.805,20.778 C36,21.257 36.174,21.788 36.334,22.345 C35.41,22.66 34.459,23.048 33.5,23.488 C32.543,23.049 31.594,22.662 30.672,22.347 C31.468,19.608 32.601,18.034 33.5,18.034 C33.983,18.034 34.442,18.483 34.741,18.86 L36.306,17.613 C35.265,16.308 34.205,16.034 33.5,16.034 C31.32,16.034 29.724,18.446 28.761,21.786 C28.304,21.673 27.853,21.571 27.418,21.497 C23.551,20.838 22.004,21.964 21.391,23.026 C20.778,24.087 20.574,25.988 23.08,29.01 C23.358,29.345 23.667,29.681 23.991,30.016 C23.681,30.338 23.384,30.66 23.116,30.981 L24.651,32.263 C24.891,31.975 25.157,31.686 25.436,31.397 C26.174,32.042 26.989,32.674 27.854,33.287 C27.953,34.321 28.096,35.338 28.288,36.306 C27.876,36.408 27.471,36.5 27.081,36.566 C24.644,36.98 23.437,36.551 23.123,36.008 C22.827,35.496 23.136,34.669 23.346,34.222 L21.535,33.371 C20.703,35.143 20.997,36.327 21.391,37.009 C21.877,37.851 22.949,38.734 25.302,38.734 C25.916,38.734 26.617,38.674 27.418,38.537 C27.853,38.463 28.304,38.362 28.762,38.248 C29.724,41.588 31.32,44 33.5,44 C35.68,44 37.277,41.588 38.239,38.248 C38.879,38.406 39.503,38.535 40.097,38.616 L40.366,36.634 C39.844,36.564 39.287,36.447 38.713,36.303 C38.906,35.336 39.047,34.32 39.147,33.287 C40.012,32.675 40.826,32.042 41.564,31.397 C41.854,31.699 42.132,32.001 42.381,32.301 C43.962,34.207 44.191,35.466 43.877,36.008 C43.63,36.436 42.991,36.608 42.496,36.677 L42.776,38.658 C44.467,38.42 45.25,37.63 45.61,37.009 C46.223,35.946 46.427,34.047 43.92,31.024 C43.642,30.689 43.332,30.353 43.009,30.017 L43.009,30.017 Z" id="Fill-1" fill="#000000"></path>
    </g><g transform="translate(25, 83)" id="svgGroup" stroke-linecap="round" fill-rule="evenodd" font-size="9pt" stroke="#000" stroke-width="0.25mm" fill="#000" style="stroke:#000;stroke-width:0.25mm;fill:#000"><path d="M 32.023 2.202 L 31.175 2.202 A 1.466 1.466 0 0 0 31.125 1.809 A 1.066 1.066 0 0 0 30.806 1.29 A 1.211 1.211 0 0 0 30.336 1.033 Q 30.085 0.958 29.764 0.958 A 2.286 2.286 0 0 0 29.384 0.988 Q 29.182 1.022 29.02 1.095 A 1.101 1.101 0 0 0 28.791 1.233 A 0.892 0.892 0 0 0 28.446 1.887 A 1.267 1.267 0 0 0 28.441 1.995 A 0.806 0.806 0 0 0 28.709 2.6 A 1.134 1.134 0 0 0 28.773 2.656 A 1.562 1.562 0 0 0 29.011 2.813 Q 29.342 2.993 29.903 3.151 A 8.228 8.228 0 0 1 30.367 3.295 Q 30.602 3.377 30.797 3.464 A 3.297 3.297 0 0 1 31.151 3.645 A 2.342 2.342 0 0 1 31.489 3.889 Q 31.679 4.056 31.802 4.248 A 1.45 1.45 0 0 1 31.819 4.276 A 1.498 1.498 0 0 1 32.015 4.832 A 1.948 1.948 0 0 1 32.036 5.124 A 1.606 1.606 0 0 1 31.914 5.76 Q 31.768 6.101 31.45 6.354 A 1.886 1.886 0 0 1 31.43 6.37 Q 30.823 6.838 29.808 6.838 A 3.023 3.023 0 0 1 28.667 6.623 A 2.917 2.917 0 0 1 28.578 6.585 A 2.383 2.383 0 0 1 28.1 6.307 A 1.874 1.874 0 0 1 27.697 5.893 A 1.689 1.689 0 0 1 27.387 4.896 L 28.235 4.896 A 1.261 1.261 0 0 0 28.304 5.323 A 1.074 1.074 0 0 0 28.663 5.812 Q 29.048 6.113 29.664 6.144 A 2.87 2.87 0 0 0 29.808 6.148 A 2.628 2.628 0 0 0 30.195 6.121 Q 30.391 6.092 30.55 6.031 A 1.129 1.129 0 0 0 30.832 5.875 Q 31.188 5.603 31.188 5.133 A 1.074 1.074 0 0 0 31.145 4.822 A 0.816 0.816 0 0 0 30.858 4.406 Q 30.529 4.148 29.663 3.898 Q 28.578 3.586 28.083 3.131 Q 27.589 2.676 27.589 2.008 Q 27.589 1.252 28.193 0.758 A 2.121 2.121 0 0 1 29.084 0.335 A 3.087 3.087 0 0 1 29.764 0.264 A 2.913 2.913 0 0 1 30.424 0.336 A 2.372 2.372 0 0 1 30.94 0.519 A 2.051 2.051 0 0 1 31.471 0.889 A 1.834 1.834 0 0 1 31.74 1.222 A 1.798 1.798 0 0 1 32.023 2.202 Z M 16.225 6.75 L 14.568 4.548 L 14.058 5.08 L 14.058 6.75 L 13.245 6.75 L 13.245 0 L 14.058 0 L 14.058 4.083 L 14.493 3.56 L 15.974 1.995 L 16.963 1.995 L 15.113 3.981 L 17.178 6.75 L 16.225 6.75 Z M 12.133 6.75 L 11.281 6.75 A 0.632 0.632 0 0 1 11.245 6.66 Q 11.214 6.562 11.189 6.41 A 3.997 3.997 0 0 1 11.167 6.249 Q 10.6 6.838 9.813 6.838 A 2.033 2.033 0 0 1 9.284 6.772 A 1.529 1.529 0 0 1 8.659 6.44 Q 8.209 6.042 8.209 5.432 Q 8.209 4.689 8.774 4.278 Q 9.338 3.867 10.362 3.867 L 11.153 3.867 L 11.153 3.494 A 1.152 1.152 0 0 0 11.118 3.199 A 0.828 0.828 0 0 0 10.898 2.815 Q 10.682 2.6 10.292 2.568 A 1.748 1.748 0 0 0 10.147 2.562 Q 9.712 2.562 9.417 2.782 Q 9.123 3.001 9.123 3.313 L 8.306 3.313 A 1.041 1.041 0 0 1 8.431 2.825 A 1.409 1.409 0 0 1 8.558 2.626 Q 8.811 2.294 9.244 2.101 A 2.249 2.249 0 0 1 10.02 1.913 A 2.669 2.669 0 0 1 10.195 1.907 A 2.65 2.65 0 0 1 10.713 1.955 Q 11.02 2.016 11.259 2.156 A 1.439 1.439 0 0 1 11.483 2.318 A 1.396 1.396 0 0 1 11.936 3.144 A 1.998 1.998 0 0 1 11.966 3.45 L 11.966 5.638 Q 11.966 6.073 12.04 6.39 A 1.707 1.707 0 0 0 12.133 6.68 L 12.133 6.75 Z M 39.718 6.75 L 38.865 6.75 A 0.632 0.632 0 0 1 38.83 6.66 Q 38.799 6.562 38.774 6.41 A 3.997 3.997 0 0 1 38.751 6.249 Q 38.184 6.838 37.397 6.838 A 2.033 2.033 0 0 1 36.868 6.772 A 1.529 1.529 0 0 1 36.244 6.44 Q 35.793 6.042 35.793 5.432 Q 35.793 4.689 36.358 4.278 Q 36.923 3.867 37.947 3.867 L 38.738 3.867 L 38.738 3.494 A 1.152 1.152 0 0 0 38.702 3.199 A 0.828 0.828 0 0 0 38.483 2.815 Q 38.267 2.6 37.876 2.568 A 1.748 1.748 0 0 0 37.731 2.562 Q 37.296 2.562 37.002 2.782 Q 36.708 3.001 36.708 3.313 L 35.89 3.313 A 1.041 1.041 0 0 1 36.015 2.825 A 1.409 1.409 0 0 1 36.143 2.626 Q 36.396 2.294 36.828 2.101 A 2.249 2.249 0 0 1 37.604 1.913 A 2.669 2.669 0 0 1 37.78 1.907 A 2.65 2.65 0 0 1 38.297 1.955 Q 38.604 2.016 38.843 2.156 A 1.439 1.439 0 0 1 39.067 2.318 A 1.396 1.396 0 0 1 39.521 3.144 A 1.998 1.998 0 0 1 39.551 3.45 L 39.551 5.638 Q 39.551 6.073 39.624 6.39 A 1.707 1.707 0 0 0 39.718 6.68 L 39.718 6.75 Z M 17.508 4.504 L 17.508 4.355 A 3.17 3.17 0 0 1 17.584 3.646 A 2.581 2.581 0 0 1 17.778 3.092 A 2.191 2.191 0 0 1 18.226 2.466 A 2.033 2.033 0 0 1 18.534 2.221 Q 19.02 1.907 19.586 1.907 A 2.254 2.254 0 0 1 20.2 1.986 A 1.639 1.639 0 0 1 21.028 2.518 Q 21.542 3.129 21.542 4.267 L 21.542 4.605 L 18.321 4.605 A 2.111 2.111 0 0 0 18.392 5.114 A 1.516 1.516 0 0 0 18.732 5.741 A 1.282 1.282 0 0 0 19.666 6.173 A 1.652 1.652 0 0 0 19.731 6.174 A 1.763 1.763 0 0 0 20.06 6.145 Q 20.284 6.103 20.461 5.999 A 1.827 1.827 0 0 0 20.97 5.551 A 2.068 2.068 0 0 0 20.984 5.533 L 21.48 5.919 A 1.926 1.926 0 0 1 20.081 6.811 A 2.749 2.749 0 0 1 19.688 6.838 A 2.394 2.394 0 0 1 18.936 6.725 A 1.974 1.974 0 0 1 18.114 6.203 Q 17.508 5.568 17.508 4.504 Z M 43.559 4.504 L 43.559 4.355 A 3.17 3.17 0 0 1 43.635 3.646 A 2.581 2.581 0 0 1 43.829 3.092 A 2.191 2.191 0 0 1 44.276 2.466 A 2.033 2.033 0 0 1 44.585 2.221 Q 45.07 1.907 45.637 1.907 A 2.254 2.254 0 0 1 46.25 1.986 A 1.639 1.639 0 0 1 47.079 2.518 Q 47.593 3.129 47.593 4.267 L 47.593 4.605 L 44.372 4.605 A 2.111 2.111 0 0 0 44.443 5.114 A 1.516 1.516 0 0 0 44.782 5.741 A 1.282 1.282 0 0 0 45.717 6.173 A 1.652 1.652 0 0 0 45.782 6.174 A 1.763 1.763 0 0 0 46.11 6.145 Q 46.334 6.103 46.512 5.999 A 1.827 1.827 0 0 0 47.021 5.551 A 2.068 2.068 0 0 0 47.035 5.533 L 47.531 5.919 A 1.926 1.926 0 0 1 46.132 6.811 A 2.749 2.749 0 0 1 45.738 6.838 A 2.394 2.394 0 0 1 44.987 6.725 A 1.974 1.974 0 0 1 44.165 6.203 Q 43.559 5.568 43.559 4.504 Z M 2.219 6.75 L 0 6.75 L 0 0.352 L 2.092 0.352 A 4.031 4.031 0 0 1 2.665 0.39 Q 2.957 0.432 3.194 0.521 A 1.629 1.629 0 0 1 3.658 0.782 A 1.383 1.383 0 0 1 4.13 1.558 A 2.164 2.164 0 0 1 4.184 2.057 A 1.3 1.3 0 0 1 3.929 2.85 A 1.589 1.589 0 0 1 3.418 3.294 A 1.972 1.972 0 0 1 3.234 3.384 A 1.571 1.571 0 0 1 3.749 3.63 A 1.446 1.446 0 0 1 4.054 3.935 A 1.531 1.531 0 0 1 4.346 4.713 A 1.961 1.961 0 0 1 4.355 4.904 A 2.139 2.139 0 0 1 4.28 5.487 A 1.577 1.577 0 0 1 3.797 6.258 A 1.832 1.832 0 0 1 3.105 6.633 Q 2.838 6.713 2.52 6.739 A 3.81 3.81 0 0 1 2.219 6.75 Z M 22.772 0.844 L 23.585 0.844 L 23.585 1.995 L 24.473 1.995 L 24.473 2.624 L 23.585 2.624 L 23.585 5.572 Q 23.585 5.858 23.704 6.001 Q 23.823 6.144 24.108 6.144 A 1.046 1.046 0 0 0 24.206 6.138 Q 24.309 6.129 24.448 6.101 A 4.024 4.024 0 0 0 24.495 6.091 L 24.495 6.75 A 2.463 2.463 0 0 1 24.062 6.829 A 2.157 2.157 0 0 1 23.871 6.838 Q 23.424 6.838 23.157 6.616 A 0.856 0.856 0 0 1 23.049 6.508 Q 22.822 6.238 22.781 5.78 A 2.351 2.351 0 0 1 22.772 5.572 L 22.772 2.624 L 21.907 2.624 L 21.907 1.995 L 22.772 1.995 L 22.772 0.844 Z M 33.28 0.844 L 34.093 0.844 L 34.093 1.995 L 34.98 1.995 L 34.98 2.624 L 34.093 2.624 L 34.093 5.572 Q 34.093 5.858 34.211 6.001 Q 34.33 6.144 34.616 6.144 A 1.046 1.046 0 0 0 34.713 6.138 Q 34.816 6.129 34.956 6.101 A 4.024 4.024 0 0 0 35.002 6.091 L 35.002 6.75 A 2.463 2.463 0 0 1 34.57 6.829 A 2.157 2.157 0 0 1 34.378 6.838 Q 33.931 6.838 33.665 6.616 A 0.856 0.856 0 0 1 33.557 6.508 Q 33.329 6.238 33.289 5.78 A 2.351 2.351 0 0 1 33.28 5.572 L 33.28 2.624 L 32.414 2.624 L 32.414 1.995 L 33.28 1.995 L 33.28 0.844 Z M 41.115 0.844 L 41.928 0.844 L 41.928 1.995 L 42.816 1.995 L 42.816 2.624 L 41.928 2.624 L 41.928 5.572 Q 41.928 5.858 42.047 6.001 Q 42.166 6.144 42.451 6.144 A 1.046 1.046 0 0 0 42.549 6.138 Q 42.651 6.129 42.791 6.101 A 4.024 4.024 0 0 0 42.838 6.091 L 42.838 6.75 A 2.463 2.463 0 0 1 42.405 6.829 A 2.157 2.157 0 0 1 42.214 6.838 Q 41.767 6.838 41.5 6.616 A 0.856 0.856 0 0 1 41.392 6.508 Q 41.165 6.238 41.124 5.78 A 2.351 2.351 0 0 1 41.115 5.572 L 41.115 2.624 L 40.25 2.624 L 40.25 1.995 L 41.115 1.995 L 41.115 0.844 Z M 7.774 1.969 L 7.774 2.725 A 2.251 2.251 0 0 0 7.531 2.698 A 2.782 2.782 0 0 0 7.374 2.694 Q 6.596 2.694 6.305 3.338 A 1.445 1.445 0 0 0 6.289 3.375 L 6.289 6.75 L 5.476 6.75 L 5.476 1.995 L 6.267 1.995 L 6.28 2.544 Q 6.66 1.938 7.343 1.909 A 1.636 1.636 0 0 1 7.414 1.907 Q 7.651 1.907 7.774 1.969 Z M 2.25 3.757 L 0.844 3.757 L 0.844 6.06 L 2.237 6.06 A 1.84 1.84 0 0 0 2.612 6.024 Q 2.852 5.974 3.036 5.854 A 1.064 1.064 0 0 0 3.166 5.755 A 1.003 1.003 0 0 0 3.488 5.154 A 1.459 1.459 0 0 0 3.507 4.913 Q 3.507 4.007 2.734 3.811 A 1.977 1.977 0 0 0 2.251 3.757 Z M 0.844 1.046 L 0.844 3.081 L 2.118 3.081 Q 2.672 3.081 3.004 2.804 A 0.905 0.905 0 0 0 3.331 2.154 A 1.27 1.27 0 0 0 3.335 2.052 Q 3.335 1.696 3.195 1.471 A 0.71 0.71 0 0 0 3.028 1.285 A 0.969 0.969 0 0 0 2.742 1.136 Q 2.479 1.047 2.098 1.046 A 3.261 3.261 0 0 0 2.092 1.046 L 0.844 1.046 Z M 11.153 5.418 L 11.153 4.443 L 10.516 4.443 Q 9.022 4.443 9.022 5.317 Q 9.022 5.7 9.277 5.915 A 0.893 0.893 0 0 0 9.69 6.108 A 1.259 1.259 0 0 0 9.932 6.13 A 1.429 1.429 0 0 0 10.657 5.933 A 1.335 1.335 0 0 0 10.952 5.705 A 1.108 1.108 0 0 0 11.153 5.418 Z M 38.738 5.418 L 38.738 4.443 L 38.101 4.443 Q 36.606 4.443 36.606 5.317 Q 36.606 5.7 36.861 5.915 A 0.893 0.893 0 0 0 37.275 6.108 A 1.259 1.259 0 0 0 37.516 6.13 A 1.429 1.429 0 0 0 38.241 5.933 A 1.335 1.335 0 0 0 38.537 5.705 A 1.108 1.108 0 0 0 38.738 5.418 Z M 18.347 3.938 L 20.729 3.938 L 20.729 3.876 Q 20.703 3.417 20.532 3.111 A 1.13 1.13 0 0 0 20.395 2.916 A 0.983 0.983 0 0 0 19.741 2.584 A 1.39 1.39 0 0 0 19.586 2.575 A 1.106 1.106 0 0 0 19.064 2.698 A 1.14 1.14 0 0 0 18.76 2.933 A 1.417 1.417 0 0 0 18.484 3.379 Q 18.41 3.563 18.37 3.785 A 2.741 2.741 0 0 0 18.347 3.938 Z M 44.398 3.938 L 46.78 3.938 L 46.78 3.876 Q 46.754 3.417 46.583 3.111 A 1.13 1.13 0 0 0 46.446 2.916 A 0.983 0.983 0 0 0 45.791 2.584 A 1.39 1.39 0 0 0 45.637 2.575 A 1.106 1.106 0 0 0 45.115 2.698 A 1.14 1.14 0 0 0 44.811 2.933 A 1.417 1.417 0 0 0 44.534 3.379 Q 44.461 3.563 44.421 3.785 A 2.741 2.741 0 0 0 44.398 3.938 Z" vector-effect="non-scaling-stroke"/></g><g transform="translate(25, 93)" id="svgGroup" stroke-linecap="round" fill-rule="evenodd" font-size="9pt" stroke="#000" stroke-width="0.25mm" fill="#000" style="stroke:#000;stroke-width:0.25mm;fill:#000"><path d="M 53.987 0 L 53.987 2.571 A 1.767 1.767 0 0 1 54.653 2.053 A 1.832 1.832 0 0 1 55.393 1.907 A 1.905 1.905 0 0 1 56.027 2.004 Q 56.868 2.3 56.911 3.506 A 3.668 3.668 0 0 1 56.914 3.608 L 56.914 6.75 L 56.101 6.75 L 56.101 3.604 A 1.837 1.837 0 0 0 56.078 3.324 Q 56.028 3.017 55.865 2.843 Q 55.679 2.645 55.326 2.606 A 1.66 1.66 0 0 0 55.147 2.597 A 1.253 1.253 0 0 0 54.733 2.664 A 1.123 1.123 0 0 0 54.453 2.808 A 1.432 1.432 0 0 0 53.987 3.362 L 53.987 6.75 L 53.174 6.75 L 53.174 0 L 53.987 0 Z M 0.918 0.352 L 2.738 5.629 L 4.566 0.352 L 5.489 0.352 L 3.116 6.75 L 2.369 6.75 L 0 0.352 L 0.918 0.352 Z M 51.166 2.522 L 51.205 1.995 L 51.948 1.995 L 51.948 6.636 A 2.511 2.511 0 0 1 51.877 7.249 A 1.738 1.738 0 0 1 51.401 8.09 A 1.834 1.834 0 0 1 50.471 8.57 A 2.671 2.671 0 0 1 49.931 8.622 A 2.446 2.446 0 0 1 48.924 8.402 A 2.003 2.003 0 0 1 48.514 8.161 A 1.563 1.563 0 0 1 48.173 7.8 L 48.595 7.313 A 1.889 1.889 0 0 0 49.029 7.712 A 1.514 1.514 0 0 0 49.874 7.958 A 1.695 1.695 0 0 0 50.251 7.919 Q 50.519 7.858 50.713 7.702 A 1.037 1.037 0 0 0 50.799 7.625 A 1.09 1.09 0 0 0 51.076 7.132 Q 51.123 6.959 51.129 6.752 A 2.134 2.134 0 0 0 51.13 6.684 L 51.13 6.275 A 1.601 1.601 0 0 1 50.078 6.821 A 2.279 2.279 0 0 1 49.799 6.838 A 1.672 1.672 0 0 1 49.044 6.67 Q 48.722 6.51 48.472 6.197 A 2.14 2.14 0 0 1 48.448 6.166 A 2.316 2.316 0 0 1 48.064 5.386 Q 47.931 4.922 47.931 4.333 Q 47.931 3.472 48.24 2.884 A 2.096 2.096 0 0 1 48.445 2.564 Q 48.959 1.907 49.808 1.907 A 1.971 1.971 0 0 1 50.406 1.994 A 1.55 1.55 0 0 1 51.166 2.522 Z M 13.821 5.251 L 14.59 5.251 A 1.432 1.432 0 0 1 14.391 5.901 A 1.772 1.772 0 0 1 14.309 6.029 A 1.828 1.828 0 0 1 13.699 6.574 A 2.169 2.169 0 0 1 13.616 6.618 A 1.997 1.997 0 0 1 12.7 6.838 A 2.346 2.346 0 0 1 12.003 6.739 A 1.839 1.839 0 0 1 11.156 6.19 A 2.171 2.171 0 0 1 10.692 5.31 Q 10.582 4.909 10.582 4.417 L 10.582 4.28 A 3.24 3.24 0 0 1 10.646 3.624 A 2.57 2.57 0 0 1 10.837 3.045 A 2.008 2.008 0 0 1 11.276 2.431 A 1.892 1.892 0 0 1 11.569 2.206 A 1.943 1.943 0 0 1 12.325 1.934 A 2.529 2.529 0 0 1 12.696 1.907 A 2.196 2.196 0 0 1 13.344 1.999 A 1.786 1.786 0 0 1 14.025 2.386 A 1.693 1.693 0 0 1 14.584 3.535 A 2.239 2.239 0 0 1 14.59 3.63 L 13.821 3.63 Q 13.786 3.168 13.471 2.872 A 1.078 1.078 0 0 0 12.742 2.576 A 1.402 1.402 0 0 0 12.696 2.575 A 1.374 1.374 0 0 0 12.274 2.637 A 1.081 1.081 0 0 0 11.736 3.021 A 1.469 1.469 0 0 0 11.509 3.468 Q 11.443 3.674 11.415 3.923 A 3.514 3.514 0 0 0 11.395 4.311 L 11.395 4.465 Q 11.395 5.287 11.733 5.73 A 1.1 1.1 0 0 0 12.52 6.165 A 1.611 1.611 0 0 0 12.7 6.174 A 1.171 1.171 0 0 0 13.46 5.911 A 1.007 1.007 0 0 0 13.705 5.629 A 0.914 0.914 0 0 0 13.821 5.251 Z M 5.818 4.504 L 5.818 4.355 A 3.17 3.17 0 0 1 5.895 3.646 A 2.581 2.581 0 0 1 6.089 3.092 A 2.191 2.191 0 0 1 6.536 2.466 A 2.033 2.033 0 0 1 6.844 2.221 Q 7.33 1.907 7.897 1.907 A 2.254 2.254 0 0 1 8.51 1.986 A 1.639 1.639 0 0 1 9.338 2.518 Q 9.853 3.129 9.853 4.267 L 9.853 4.605 L 6.631 4.605 A 2.111 2.111 0 0 0 6.702 5.114 A 1.516 1.516 0 0 0 7.042 5.741 A 1.282 1.282 0 0 0 7.976 6.173 A 1.652 1.652 0 0 0 8.042 6.174 A 1.763 1.763 0 0 0 8.37 6.145 Q 8.594 6.103 8.771 5.999 A 1.827 1.827 0 0 0 9.28 5.551 A 2.068 2.068 0 0 0 9.294 5.533 L 9.791 5.919 A 1.926 1.926 0 0 1 8.391 6.811 A 2.749 2.749 0 0 1 7.998 6.838 A 2.394 2.394 0 0 1 7.247 6.725 A 1.974 1.974 0 0 1 6.425 6.203 Q 5.818 5.568 5.818 4.504 Z M 42.073 0.352 L 42.073 6.06 L 45.105 6.06 L 45.105 6.75 L 41.225 6.75 L 41.225 0.352 L 42.073 0.352 Z M 32.111 0.352 L 32.111 4.601 L 32.999 4.601 L 32.999 5.265 L 32.111 5.265 L 32.111 6.75 L 31.293 6.75 L 31.293 5.265 L 28.38 5.265 L 28.38 4.786 L 31.245 0.352 L 32.111 0.352 Z M 37.509 2.592 A 1.544 1.544 0 0 0 37.613 2.021 A 2.226 2.226 0 0 0 37.591 1.707 A 1.566 1.566 0 0 0 37.092 0.738 A 1.754 1.754 0 0 0 36.326 0.333 A 2.443 2.443 0 0 0 35.728 0.264 A 2.539 2.539 0 0 0 35.218 0.312 A 1.767 1.767 0 0 0 34.361 0.738 Q 33.842 1.213 33.842 2.021 A 1.808 1.808 0 0 0 33.843 2.058 A 1.499 1.499 0 0 0 34.088 2.87 A 1.626 1.626 0 0 0 34.25 3.077 A 1.726 1.726 0 0 0 34.761 3.454 A 2.119 2.119 0 0 0 34.661 3.5 A 1.738 1.738 0 0 0 33.976 4.087 A 1.629 1.629 0 0 0 33.693 5.023 A 2.272 2.272 0 0 0 33.703 5.237 A 1.63 1.63 0 0 0 34.249 6.344 A 1.895 1.895 0 0 0 35.099 6.771 A 2.797 2.797 0 0 0 35.728 6.838 A 2.796 2.796 0 0 0 36.327 6.777 A 1.925 1.925 0 0 0 37.202 6.346 A 1.578 1.578 0 0 0 37.677 5.62 A 1.989 1.989 0 0 0 37.762 5.023 A 1.581 1.581 0 0 0 37.47 4.087 Q 37.178 3.674 36.677 3.458 Q 37.107 3.248 37.36 2.874 A 1.449 1.449 0 0 0 37.509 2.592 Z M 15.794 0.844 L 16.607 0.844 L 16.607 1.995 L 17.495 1.995 L 17.495 2.624 L 16.607 2.624 L 16.607 5.572 Q 16.607 5.858 16.726 6.001 Q 16.844 6.144 17.13 6.144 A 1.046 1.046 0 0 0 17.227 6.138 Q 17.33 6.129 17.47 6.101 A 4.024 4.024 0 0 0 17.517 6.091 L 17.517 6.75 A 2.463 2.463 0 0 1 17.084 6.829 A 2.157 2.157 0 0 1 16.893 6.838 Q 16.445 6.838 16.179 6.616 A 0.856 0.856 0 0 1 16.071 6.508 Q 15.843 6.238 15.803 5.78 A 2.351 2.351 0 0 1 15.794 5.572 L 15.794 2.624 L 14.928 2.624 L 14.928 1.995 L 15.794 1.995 L 15.794 0.844 Z M 58.421 0.844 L 59.234 0.844 L 59.234 1.995 L 60.122 1.995 L 60.122 2.624 L 59.234 2.624 L 59.234 5.572 Q 59.234 5.858 59.353 6.001 Q 59.471 6.144 59.757 6.144 A 1.046 1.046 0 0 0 59.854 6.138 Q 59.957 6.129 60.097 6.101 A 4.024 4.024 0 0 0 60.144 6.091 L 60.144 6.75 A 2.463 2.463 0 0 1 59.711 6.829 A 2.157 2.157 0 0 1 59.52 6.838 Q 59.072 6.838 58.806 6.616 A 0.856 0.856 0 0 1 58.698 6.508 Q 58.47 6.238 58.43 5.78 A 2.351 2.351 0 0 1 58.421 5.572 L 58.421 2.624 L 57.555 2.624 L 57.555 1.995 L 58.421 1.995 L 58.421 0.844 Z M 18.141 4.386 L 18.141 4.329 A 3.057 3.057 0 0 1 18.228 3.587 A 2.573 2.573 0 0 1 18.415 3.072 A 2.16 2.16 0 0 1 18.83 2.486 A 1.957 1.957 0 0 1 19.18 2.21 A 2.036 2.036 0 0 1 20.124 1.913 A 2.491 2.491 0 0 1 20.298 1.907 A 2.277 2.277 0 0 1 21.052 2.027 A 1.937 1.937 0 0 1 21.869 2.58 A 2.29 2.29 0 0 1 22.388 3.608 A 3.373 3.373 0 0 1 22.469 4.368 L 22.469 4.425 A 3.114 3.114 0 0 1 22.39 5.142 A 2.577 2.577 0 0 1 22.203 5.671 A 2.056 2.056 0 0 1 21.676 6.361 A 2.001 2.001 0 0 1 21.443 6.53 A 2.045 2.045 0 0 1 20.523 6.829 A 2.529 2.529 0 0 1 20.307 6.838 A 2.262 2.262 0 0 1 19.557 6.718 A 1.938 1.938 0 0 1 18.74 6.166 A 2.297 2.297 0 0 1 18.215 5.111 A 3.357 3.357 0 0 1 18.141 4.386 Z M 25.787 1.969 L 25.787 2.725 A 2.251 2.251 0 0 0 25.544 2.698 A 2.782 2.782 0 0 0 25.387 2.694 Q 24.609 2.694 24.318 3.338 A 1.445 1.445 0 0 0 24.302 3.375 L 24.302 6.75 L 23.489 6.75 L 23.489 1.995 L 24.28 1.995 L 24.293 2.544 Q 24.673 1.938 25.356 1.909 A 1.636 1.636 0 0 1 25.427 1.907 Q 25.664 1.907 25.787 1.969 Z M 46.824 1.995 L 46.824 6.75 L 46.011 6.75 L 46.011 1.995 L 46.824 1.995 Z M 18.958 4.425 A 2.772 2.772 0 0 0 19.005 4.954 Q 19.066 5.264 19.203 5.51 A 1.545 1.545 0 0 0 19.325 5.695 Q 19.692 6.174 20.307 6.174 A 1.269 1.269 0 0 0 20.797 6.083 Q 21.076 5.967 21.279 5.706 A 1.471 1.471 0 0 0 21.292 5.689 A 1.648 1.648 0 0 0 21.546 5.171 Q 21.615 4.945 21.641 4.672 A 3.655 3.655 0 0 0 21.656 4.329 A 2.687 2.687 0 0 0 21.605 3.789 Q 21.537 3.459 21.38 3.2 A 1.586 1.586 0 0 0 21.285 3.061 A 1.231 1.231 0 0 0 20.87 2.705 Q 20.617 2.575 20.298 2.575 Q 19.708 2.575 19.342 3.035 A 1.515 1.515 0 0 0 19.327 3.054 A 1.589 1.589 0 0 0 19.075 3.552 Q 19.006 3.772 18.977 4.039 A 3.676 3.676 0 0 0 18.958 4.425 Z M 51.13 5.449 L 51.13 3.278 A 1.439 1.439 0 0 0 50.829 2.891 Q 50.526 2.62 50.085 2.599 A 1.578 1.578 0 0 0 50.01 2.597 Q 49.418 2.597 49.084 3.056 A 1.51 1.51 0 0 0 48.873 3.484 Q 48.808 3.689 48.776 3.939 A 3.955 3.955 0 0 0 48.749 4.425 Q 48.749 5.229 49.078 5.689 Q 49.408 6.148 50.001 6.148 A 1.32 1.32 0 0 0 50.511 6.054 Q 50.902 5.891 51.13 5.449 Z M 31.197 1.639 L 29.303 4.601 L 31.293 4.601 L 31.293 1.463 L 31.197 1.639 Z M 36.949 5.005 A 1.375 1.375 0 0 0 36.89 4.592 A 1.109 1.109 0 0 0 36.609 4.131 A 1.148 1.148 0 0 0 35.937 3.807 A 1.593 1.593 0 0 0 35.719 3.792 A 1.466 1.466 0 0 0 35.33 3.841 A 1.086 1.086 0 0 0 34.838 4.126 A 1.123 1.123 0 0 0 34.524 4.762 A 1.572 1.572 0 0 0 34.506 5.005 A 1.48 1.48 0 0 0 34.548 5.367 A 1.019 1.019 0 0 0 34.829 5.862 Q 35.135 6.158 35.668 6.173 A 2.053 2.053 0 0 0 35.728 6.174 Q 36.221 6.174 36.531 5.94 A 1.018 1.018 0 0 0 36.624 5.86 A 1.041 1.041 0 0 0 36.923 5.292 A 1.518 1.518 0 0 0 36.949 5.005 Z M 35.728 0.932 A 1.259 1.259 0 0 0 35.375 0.979 A 0.973 0.973 0 0 0 34.952 1.228 Q 34.655 1.525 34.655 2.035 A 1.325 1.325 0 0 0 34.7 2.387 A 0.994 0.994 0 0 0 34.948 2.823 A 0.974 0.974 0 0 0 35.51 3.108 A 1.382 1.382 0 0 0 35.728 3.125 A 1.279 1.279 0 0 0 36.072 3.08 A 0.952 0.952 0 0 0 36.508 2.823 A 1.018 1.018 0 0 0 36.783 2.26 A 1.426 1.426 0 0 0 36.8 2.035 A 1.282 1.282 0 0 0 36.75 1.668 A 1.013 1.013 0 0 0 36.497 1.239 Q 36.193 0.932 35.728 0.932 Z M 6.658 3.938 L 9.04 3.938 L 9.04 3.876 Q 9.014 3.417 8.843 3.111 A 1.13 1.13 0 0 0 8.706 2.916 A 0.983 0.983 0 0 0 8.051 2.584 A 1.39 1.39 0 0 0 7.897 2.575 A 1.106 1.106 0 0 0 7.375 2.698 A 1.14 1.14 0 0 0 7.071 2.933 A 1.417 1.417 0 0 0 6.794 3.379 Q 6.721 3.563 6.681 3.785 A 2.741 2.741 0 0 0 6.658 3.938 Z M 45.945 0.734 Q 45.945 0.536 46.066 0.4 Q 46.178 0.274 46.389 0.264 A 0.783 0.783 0 0 1 46.424 0.264 Q 46.661 0.264 46.784 0.4 A 0.474 0.474 0 0 1 46.906 0.703 A 0.614 0.614 0 0 1 46.907 0.734 A 0.523 0.523 0 0 1 46.882 0.9 A 0.442 0.442 0 0 1 46.784 1.063 Q 46.672 1.184 46.464 1.194 A 0.803 0.803 0 0 1 46.424 1.195 Q 46.252 1.195 46.141 1.126 A 0.362 0.362 0 0 1 46.066 1.063 A 0.456 0.456 0 0 1 45.947 0.788 A 0.605 0.605 0 0 1 45.945 0.734 Z" vector-effect="non-scaling-stroke"/></g>
</svg>