<?xml version="1.0" encoding="UTF-8"?>
<svg width="48px" height="48px" viewBox="0 0 48 48" version="1.1" xmlns="http://www.w3.org/2000/svg" xmlns:xlink="http://www.w3.org/1999/xlink">
    <title>Icon-Resource/Storage/Res_Amazon-S3-On-Outposts_48_Light</title>
    <g id="Icon-Resource/Storage/Res_Amazon-S3-On-Outposts_48" stroke="none" stroke-width="1" fill="none" fill-rule="evenodd">
        <path transform="translate(0vw, 0vh), scale(.65)" d="M42.416,22.305 C42.206,21.444 37.853,19.487 31.461,19.487 C25.069,19.487 20.717,21.444 20.507,22.305 L20.515,22.363 C20.858,23.228 25.154,24.754 31.461,24.754 C37.704,24.754 41.971,23.259 42.391,22.39 L42.397,22.338 L42.411,22.34 L42.416,22.305 Z M42.037,25.015 C39.16,26.343 34.353,26.754 31.461,26.754 C28.562,26.754 23.745,26.341 20.871,25.008 L21.901,32.656 C22.672,32.939 23.395,33.396 24.03,34.024 C24.396,34.386 24.717,34.799 24.989,35.26 C25.601,34.988 26.292,34.935 26.959,35.131 C28.064,35.459 28.84,36.371 29.114,37.631 C29.562,37.778 30.006,37.986 30.4,38.236 C31.768,39.101 32.461,40.234 32.461,41.604 C32.461,42.529 32.25,43.323 31.853,43.991 C33.695,43.965 35.516,43.771 37.015,43.425 C37.631,43.283 38.174,43.12 38.631,42.939 C39.336,42.66 39.631,42.413 39.709,42.313 C39.71,42.294 39.713,42.275 39.715,42.256 L40.785,34.305 C37.887,33.384 34.217,31.726 32.24,30.797 C32.021,30.923 31.77,31 31.5,31 C30.673,31 30,30.327 30,29.5 C30,28.673 30.673,28 31.5,28 C32.104,28 32.624,28.362 32.861,28.879 C34.43,29.619 38.141,31.324 41.057,32.29 L42.037,25.015 Z M30.461,41.604 C30.461,41.128 30.326,40.556 29.33,39.925 C28.938,39.677 28.457,39.487 28.042,39.417 C27.536,39.331 27.184,38.88 27.21,38.379 C27.143,37.676 26.84,37.181 26.391,37.049 C26.029,36.943 25.655,37.08 25.411,37.407 C25.189,37.701 24.821,37.846 24.462,37.795 C24.099,37.741 23.794,37.491 23.67,37.144 C23.425,36.461 23.073,35.889 22.625,35.447 C22.222,35.049 21.301,34.314 19.996,34.314 C19.537,34.314 19.031,34.405 18.483,34.633 C17.305,35.124 16.346,36.598 16.346,37.919 C16.346,38.071 16.354,38.22 16.373,38.366 C16.436,38.867 16.114,39.337 15.624,39.46 C14.82,39.662 13.862,40.211 13.862,41.681 C13.862,42.878 14.523,43.534 15.078,43.875 C15.212,43.957 15.368,44 15.531,44 L28.122,44.013 L28.127,44.013 C28.518,44.011 30.461,43.879 30.461,41.604 L30.461,41.604 Z M14.348,37.786 C14.406,35.702 15.834,33.571 17.714,32.787 C18.418,32.494 19.134,32.355 19.84,32.334 L18.543,22.709 L18.544,22.709 C18.543,22.708 18.543,22.707 18.543,22.705 L18.511,22.459 C18.505,22.416 18.502,22.373 18.502,22.329 C18.502,20.954 19.933,19.825 22.074,19 L22,19 L22,5 C22,4.449 21.552,4 21,4 L5,4 C4.448,4 4,4.449 4,5 L4,40 C4,40.552 4.448,41 5,41 L11.909,41 C12.111,39.523 12.98,38.38 14.348,37.786 L14.348,37.786 Z M15.529,46 C14.996,45.999 14.479,45.854 14.032,45.579 C13.401,45.192 12.444,44.389 12.049,43 L8,43 L8,46 L6,46 L6,43 L5,43 C3.346,43 2,41.655 2,40 L2,5 C2,3.346 3.346,2 5,2 L21,2 C22.654,2 24,3.346 24,5 L24,18.389 C26.234,17.807 28.887,17.487 31.461,17.487 C37.693,17.487 44.421,19.339 44.421,22.329 C44.421,22.373 44.418,22.416 44.412,22.459 L44.38,22.705 C44.375,22.747 44.367,22.788 44.356,22.829 C44.354,22.838 44.349,22.845 44.347,22.853 L43.312,30.529 C45.008,31.518 45.819,32.314 45.974,33.137 C46.058,33.586 45.941,34.025 45.648,34.374 C45.308,34.78 44.796,34.981 44.048,34.981 C43.674,34.981 43.233,34.925 42.733,34.825 L41.704,42.469 C41.663,43.418 40.877,44.202 39.366,44.799 C38.816,45.017 38.176,45.21 37.464,45.373 C35.716,45.778 33.584,46 31.461,46 L28.131,46 L15.529,46 Z M8,19 L19,19 L19,17 L8,17 L8,19 Z M8,24 L16,24 L16,22 L8,22 L8,24 Z M8,14 L19,14 L19,12 L8,12 L8,14 Z" id="Fill-4" fill="#000000"></path>
    </g><g transform="translate(12vw, 80vh)" id="svgGroup" stroke-linecap="round" fill-rule="evenodd" font-size="9pt" stroke="#000" stroke-width="0.25mm" fill="#000" style="stroke:#000;stroke-width:0.25mm;fill:#000"><path d="M 7.783 1.995 L 8.552 1.995 L 8.574 2.522 Q 9.097 1.907 9.985 1.907 A 2.009 2.009 0 0 1 10.495 1.968 A 1.244 1.244 0 0 1 11.342 2.672 A 1.801 1.801 0 0 1 11.96 2.118 A 1.65 1.65 0 0 1 12.489 1.937 A 2.209 2.209 0 0 1 12.859 1.907 A 2.119 2.119 0 0 1 13.503 1.997 Q 14.429 2.292 14.449 3.564 L 14.449 6.75 L 13.636 6.75 L 13.636 3.612 A 1.781 1.781 0 0 0 13.616 3.332 Q 13.592 3.185 13.542 3.067 A 0.758 0.758 0 0 0 13.403 2.85 A 0.68 0.68 0 0 0 13.151 2.682 Q 12.939 2.597 12.622 2.597 A 1.245 1.245 0 0 0 12.256 2.648 A 1.008 1.008 0 0 0 11.87 2.867 A 1.042 1.042 0 0 0 11.556 3.404 A 1.41 1.41 0 0 0 11.523 3.595 L 11.523 6.75 L 10.705 6.75 L 10.705 3.634 A 1.532 1.532 0 0 0 10.657 3.23 Q 10.53 2.768 10.073 2.643 A 1.457 1.457 0 0 0 9.69 2.597 Q 8.916 2.597 8.616 3.234 A 1.459 1.459 0 0 0 8.596 3.278 L 8.596 6.75 L 7.783 6.75 L 7.783 1.995 Z M 4.636 2.202 L 3.788 2.202 A 1.466 1.466 0 0 0 3.738 1.809 A 1.066 1.066 0 0 0 3.419 1.29 A 1.211 1.211 0 0 0 2.95 1.033 Q 2.698 0.958 2.378 0.958 A 2.286 2.286 0 0 0 1.998 0.988 Q 1.796 1.022 1.633 1.095 A 1.101 1.101 0 0 0 1.404 1.233 A 0.892 0.892 0 0 0 1.059 1.887 A 1.267 1.267 0 0 0 1.055 1.995 A 0.806 0.806 0 0 0 1.323 2.6 A 1.134 1.134 0 0 0 1.387 2.656 A 1.562 1.562 0 0 0 1.625 2.813 Q 1.955 2.993 2.516 3.151 A 8.228 8.228 0 0 1 2.981 3.295 Q 3.216 3.377 3.41 3.464 A 3.297 3.297 0 0 1 3.764 3.645 A 2.342 2.342 0 0 1 4.103 3.889 Q 4.293 4.056 4.415 4.248 A 1.45 1.45 0 0 1 4.432 4.276 A 1.498 1.498 0 0 1 4.628 4.832 A 1.948 1.948 0 0 1 4.65 5.124 A 1.606 1.606 0 0 1 4.527 5.76 Q 4.382 6.101 4.064 6.354 A 1.886 1.886 0 0 1 4.043 6.37 Q 3.437 6.838 2.422 6.838 A 3.023 3.023 0 0 1 1.281 6.623 A 2.917 2.917 0 0 1 1.191 6.585 A 2.383 2.383 0 0 1 0.713 6.307 A 1.874 1.874 0 0 1 0.31 5.893 A 1.689 1.689 0 0 1 0 4.896 L 0.848 4.896 A 1.261 1.261 0 0 0 0.918 5.323 A 1.074 1.074 0 0 0 1.277 5.812 Q 1.661 6.113 2.278 6.144 A 2.87 2.87 0 0 0 2.422 6.148 A 2.628 2.628 0 0 0 2.809 6.121 Q 3.005 6.092 3.164 6.031 A 1.129 1.129 0 0 0 3.445 5.875 Q 3.801 5.603 3.801 5.133 A 1.074 1.074 0 0 0 3.759 4.822 A 0.816 0.816 0 0 0 3.472 4.406 Q 3.142 4.148 2.277 3.898 Q 1.191 3.586 0.697 3.131 Q 0.202 2.676 0.202 2.008 Q 0.202 1.252 0.807 0.758 A 2.121 2.121 0 0 1 1.697 0.335 A 3.087 3.087 0 0 1 2.378 0.264 A 2.913 2.913 0 0 1 3.038 0.336 A 2.372 2.372 0 0 1 3.553 0.519 A 2.051 2.051 0 0 1 4.084 0.889 A 1.834 1.834 0 0 1 4.353 1.222 A 1.798 1.798 0 0 1 4.636 2.202 Z M 34.277 2.202 L 33.429 2.202 A 1.466 1.466 0 0 0 33.38 1.809 A 1.066 1.066 0 0 0 33.06 1.29 A 1.211 1.211 0 0 0 32.591 1.033 Q 32.339 0.958 32.019 0.958 A 2.286 2.286 0 0 0 31.639 0.988 Q 31.437 1.022 31.274 1.095 A 1.101 1.101 0 0 0 31.045 1.233 A 0.892 0.892 0 0 0 30.7 1.887 A 1.267 1.267 0 0 0 30.696 1.995 A 0.806 0.806 0 0 0 30.964 2.6 A 1.134 1.134 0 0 0 31.028 2.656 A 1.562 1.562 0 0 0 31.266 2.813 Q 31.596 2.993 32.157 3.151 A 8.228 8.228 0 0 1 32.622 3.295 Q 32.857 3.377 33.051 3.464 A 3.297 3.297 0 0 1 33.405 3.645 A 2.342 2.342 0 0 1 33.744 3.889 Q 33.934 4.056 34.056 4.248 A 1.45 1.45 0 0 1 34.073 4.276 A 1.498 1.498 0 0 1 34.269 4.832 A 1.948 1.948 0 0 1 34.291 5.124 A 1.606 1.606 0 0 1 34.168 5.76 Q 34.023 6.101 33.705 6.354 A 1.886 1.886 0 0 1 33.684 6.37 Q 33.078 6.838 32.063 6.838 A 3.023 3.023 0 0 1 30.922 6.623 A 2.917 2.917 0 0 1 30.832 6.585 A 2.383 2.383 0 0 1 30.354 6.307 A 1.874 1.874 0 0 1 29.951 5.893 A 1.689 1.689 0 0 1 29.641 4.896 L 30.489 4.896 A 1.261 1.261 0 0 0 30.559 5.323 A 1.074 1.074 0 0 0 30.918 5.812 Q 31.302 6.113 31.919 6.144 A 2.87 2.87 0 0 0 32.063 6.148 A 2.628 2.628 0 0 0 32.45 6.121 Q 32.646 6.092 32.805 6.031 A 1.129 1.129 0 0 0 33.087 5.875 Q 33.443 5.603 33.443 5.133 A 1.074 1.074 0 0 0 33.4 4.822 A 0.816 0.816 0 0 0 33.113 4.406 Q 32.783 4.148 31.918 3.898 Q 30.832 3.586 30.338 3.131 Q 29.843 2.676 29.843 2.008 Q 29.843 1.252 30.448 0.758 A 2.121 2.121 0 0 1 31.338 0.335 A 3.087 3.087 0 0 1 32.019 0.264 A 2.913 2.913 0 0 1 32.679 0.336 A 2.372 2.372 0 0 1 33.194 0.519 A 2.051 2.051 0 0 1 33.725 0.889 A 1.834 1.834 0 0 1 33.994 1.222 A 1.798 1.798 0 0 1 34.277 2.202 Z M 54.035 2.522 L 54.075 1.995 L 54.818 1.995 L 54.818 6.636 A 2.511 2.511 0 0 1 54.747 7.249 A 1.738 1.738 0 0 1 54.27 8.09 A 1.834 1.834 0 0 1 53.341 8.57 A 2.671 2.671 0 0 1 52.8 8.622 A 2.446 2.446 0 0 1 51.794 8.402 A 2.003 2.003 0 0 1 51.384 8.161 A 1.563 1.563 0 0 1 51.043 7.8 L 51.465 7.313 A 1.889 1.889 0 0 0 51.899 7.712 A 1.514 1.514 0 0 0 52.743 7.958 A 1.695 1.695 0 0 0 53.12 7.919 Q 53.389 7.858 53.583 7.702 A 1.037 1.037 0 0 0 53.668 7.625 A 1.09 1.09 0 0 0 53.945 7.132 Q 53.992 6.959 53.999 6.752 A 2.134 2.134 0 0 0 54 6.684 L 54 6.275 A 1.601 1.601 0 0 1 52.948 6.821 A 2.279 2.279 0 0 1 52.669 6.838 A 1.672 1.672 0 0 1 51.913 6.67 Q 51.591 6.51 51.342 6.197 A 2.14 2.14 0 0 1 51.317 6.166 A 2.316 2.316 0 0 1 50.934 5.386 Q 50.801 4.922 50.801 4.333 Q 50.801 3.472 51.109 2.884 A 2.096 2.096 0 0 1 51.315 2.564 Q 51.829 1.907 52.677 1.907 A 1.971 1.971 0 0 1 53.276 1.994 A 1.55 1.55 0 0 1 54.035 2.522 Z M 49.887 6.75 L 49.034 6.75 A 0.632 0.632 0 0 1 48.999 6.66 Q 48.968 6.562 48.943 6.41 A 3.997 3.997 0 0 1 48.92 6.249 Q 48.353 6.838 47.567 6.838 A 2.033 2.033 0 0 1 47.037 6.772 A 1.529 1.529 0 0 1 46.413 6.44 Q 45.963 6.042 45.963 5.432 Q 45.963 4.689 46.527 4.278 Q 47.092 3.867 48.116 3.867 L 48.907 3.867 L 48.907 3.494 A 1.152 1.152 0 0 0 48.871 3.199 A 0.828 0.828 0 0 0 48.652 2.815 Q 48.436 2.6 48.045 2.568 A 1.748 1.748 0 0 0 47.901 2.562 Q 47.465 2.562 47.171 2.782 Q 46.877 3.001 46.877 3.313 L 46.059 3.313 A 1.041 1.041 0 0 1 46.184 2.825 A 1.409 1.409 0 0 1 46.312 2.626 Q 46.565 2.294 46.997 2.101 A 2.249 2.249 0 0 1 47.773 1.913 A 2.669 2.669 0 0 1 47.949 1.907 A 2.65 2.65 0 0 1 48.466 1.955 Q 48.774 2.016 49.012 2.156 A 1.439 1.439 0 0 1 49.236 2.318 A 1.396 1.396 0 0 1 49.69 3.144 A 1.998 1.998 0 0 1 49.72 3.45 L 49.72 5.638 Q 49.72 6.073 49.794 6.39 A 1.707 1.707 0 0 0 49.887 6.68 L 49.887 6.75 Z M 19.692 4.351 L 19.692 4.425 Q 19.692 5.511 19.195 6.174 A 1.57 1.57 0 0 1 18.057 6.828 A 2.013 2.013 0 0 1 17.851 6.838 A 2.196 2.196 0 0 1 17.265 6.764 A 1.598 1.598 0 0 1 16.488 6.289 L 16.488 8.578 L 15.675 8.578 L 15.675 1.995 L 16.418 1.995 L 16.458 2.522 A 1.619 1.619 0 0 1 17.597 1.919 A 2.319 2.319 0 0 1 17.838 1.907 A 1.829 1.829 0 0 1 18.475 2.014 A 1.597 1.597 0 0 1 19.193 2.553 Q 19.692 3.199 19.692 4.351 Z M 22.702 4.504 L 22.702 4.355 A 3.17 3.17 0 0 1 22.779 3.646 A 2.581 2.581 0 0 1 22.973 3.092 A 2.191 2.191 0 0 1 23.42 2.466 A 2.033 2.033 0 0 1 23.728 2.221 Q 24.214 1.907 24.781 1.907 A 2.254 2.254 0 0 1 25.394 1.986 A 1.639 1.639 0 0 1 26.222 2.518 Q 26.736 3.129 26.736 4.267 L 26.736 4.605 L 23.515 4.605 A 2.111 2.111 0 0 0 23.586 5.114 A 1.516 1.516 0 0 0 23.926 5.741 A 1.282 1.282 0 0 0 24.86 6.173 A 1.652 1.652 0 0 0 24.926 6.174 A 1.763 1.763 0 0 0 25.254 6.145 Q 25.478 6.103 25.655 5.999 A 1.827 1.827 0 0 0 26.164 5.551 A 2.068 2.068 0 0 0 26.178 5.533 L 26.675 5.919 A 1.926 1.926 0 0 1 25.275 6.811 A 2.749 2.749 0 0 1 24.882 6.838 A 2.394 2.394 0 0 1 24.131 6.725 A 1.974 1.974 0 0 1 23.309 6.203 Q 22.702 5.568 22.702 4.504 Z M 55.837 4.504 L 55.837 4.355 A 3.17 3.17 0 0 1 55.913 3.646 A 2.581 2.581 0 0 1 56.107 3.092 A 2.191 2.191 0 0 1 56.555 2.466 A 2.033 2.033 0 0 1 56.863 2.221 Q 57.349 1.907 57.916 1.907 A 2.254 2.254 0 0 1 58.529 1.986 A 1.639 1.639 0 0 1 59.357 2.518 Q 59.871 3.129 59.871 4.267 L 59.871 4.605 L 56.65 4.605 A 2.111 2.111 0 0 0 56.721 5.114 A 1.516 1.516 0 0 0 57.061 5.741 A 1.282 1.282 0 0 0 57.995 6.173 A 1.652 1.652 0 0 0 58.061 6.174 A 1.763 1.763 0 0 0 58.389 6.145 Q 58.613 6.103 58.79 5.999 A 1.827 1.827 0 0 0 59.299 5.551 A 2.068 2.068 0 0 0 59.313 5.533 L 59.81 5.919 A 1.926 1.926 0 0 1 58.41 6.811 A 2.749 2.749 0 0 1 58.017 6.838 A 2.394 2.394 0 0 1 57.266 6.725 A 1.974 1.974 0 0 1 56.444 6.203 Q 55.837 5.568 55.837 4.504 Z M 35.534 0.844 L 36.347 0.844 L 36.347 1.995 L 37.235 1.995 L 37.235 2.624 L 36.347 2.624 L 36.347 5.572 Q 36.347 5.858 36.466 6.001 Q 36.585 6.144 36.87 6.144 A 1.046 1.046 0 0 0 36.968 6.138 Q 37.071 6.129 37.21 6.101 A 4.024 4.024 0 0 0 37.257 6.091 L 37.257 6.75 A 2.463 2.463 0 0 1 36.824 6.829 A 2.157 2.157 0 0 1 36.633 6.838 Q 36.186 6.838 35.919 6.616 A 0.856 0.856 0 0 1 35.811 6.508 Q 35.584 6.238 35.543 5.78 A 2.351 2.351 0 0 1 35.534 5.572 L 35.534 2.624 L 34.669 2.624 L 34.669 1.995 L 35.534 1.995 L 35.534 0.844 Z M 21.608 0 L 21.608 6.75 L 20.795 6.75 L 20.795 0 L 21.608 0 Z M 37.881 4.386 L 37.881 4.329 A 3.057 3.057 0 0 1 37.968 3.587 A 2.573 2.573 0 0 1 38.156 3.072 A 2.16 2.16 0 0 1 38.57 2.486 A 1.957 1.957 0 0 1 38.92 2.21 A 2.036 2.036 0 0 1 39.865 1.913 A 2.491 2.491 0 0 1 40.039 1.907 A 2.277 2.277 0 0 1 40.792 2.027 A 1.937 1.937 0 0 1 41.61 2.58 A 2.29 2.29 0 0 1 42.129 3.608 A 3.373 3.373 0 0 1 42.21 4.368 L 42.21 4.425 A 3.114 3.114 0 0 1 42.13 5.142 A 2.577 2.577 0 0 1 41.944 5.671 A 2.056 2.056 0 0 1 41.416 6.361 A 2.001 2.001 0 0 1 41.183 6.53 A 2.045 2.045 0 0 1 40.264 6.829 A 2.529 2.529 0 0 1 40.048 6.838 A 2.262 2.262 0 0 1 39.297 6.718 A 1.938 1.938 0 0 1 38.481 6.166 A 2.297 2.297 0 0 1 37.955 5.111 A 3.357 3.357 0 0 1 37.881 4.386 Z M 45.527 1.969 L 45.527 2.725 A 2.251 2.251 0 0 0 45.285 2.698 A 2.782 2.782 0 0 0 45.128 2.694 Q 44.35 2.694 44.058 3.338 A 1.445 1.445 0 0 0 44.042 3.375 L 44.042 6.75 L 43.229 6.75 L 43.229 1.995 L 44.02 1.995 L 44.033 2.544 Q 44.414 1.938 45.096 1.909 A 1.636 1.636 0 0 1 45.167 1.907 Q 45.404 1.907 45.527 1.969 Z M 6.486 1.995 L 6.486 6.75 L 5.673 6.75 L 5.673 1.995 L 6.486 1.995 Z M 38.698 4.425 A 2.772 2.772 0 0 0 38.746 4.954 Q 38.806 5.264 38.944 5.51 A 1.545 1.545 0 0 0 39.065 5.695 Q 39.432 6.174 40.048 6.174 A 1.269 1.269 0 0 0 40.537 6.083 Q 40.816 5.967 41.019 5.706 A 1.471 1.471 0 0 0 41.032 5.689 A 1.648 1.648 0 0 0 41.287 5.171 Q 41.355 4.945 41.381 4.672 A 3.655 3.655 0 0 0 41.397 4.329 A 2.687 2.687 0 0 0 41.345 3.789 Q 41.278 3.459 41.12 3.2 A 1.586 1.586 0 0 0 41.025 3.061 A 1.231 1.231 0 0 0 40.61 2.705 Q 40.357 2.575 40.039 2.575 Q 39.449 2.575 39.083 3.035 A 1.515 1.515 0 0 0 39.068 3.054 A 1.589 1.589 0 0 0 38.815 3.552 Q 38.746 3.772 38.718 4.039 A 3.676 3.676 0 0 0 38.698 4.425 Z M 16.488 3.252 L 16.488 5.524 Q 16.853 6.174 17.605 6.174 A 1.184 1.184 0 0 0 18.07 6.086 Q 18.327 5.977 18.516 5.735 A 1.403 1.403 0 0 0 18.534 5.711 A 1.501 1.501 0 0 0 18.751 5.28 Q 18.819 5.073 18.851 4.818 A 3.91 3.91 0 0 0 18.879 4.333 Q 18.879 3.746 18.696 3.339 A 1.503 1.503 0 0 0 18.536 3.063 A 1.086 1.086 0 0 0 17.75 2.605 A 1.414 1.414 0 0 0 17.596 2.597 Q 16.935 2.597 16.57 3.121 A 1.623 1.623 0 0 0 16.488 3.252 Z M 54 5.449 L 54 3.278 A 1.439 1.439 0 0 0 53.699 2.891 Q 53.396 2.62 52.955 2.599 A 1.578 1.578 0 0 0 52.88 2.597 Q 52.288 2.597 51.954 3.056 A 1.51 1.51 0 0 0 51.743 3.484 Q 51.677 3.689 51.646 3.939 A 3.955 3.955 0 0 0 51.618 4.425 Q 51.618 5.229 51.948 5.689 Q 52.277 6.148 52.871 6.148 A 1.32 1.32 0 0 0 53.38 6.054 Q 53.772 5.891 54 5.449 Z M 48.907 5.418 L 48.907 4.443 L 48.27 4.443 Q 46.776 4.443 46.776 5.317 Q 46.776 5.7 47.03 5.915 A 0.893 0.893 0 0 0 47.444 6.108 A 1.259 1.259 0 0 0 47.685 6.13 A 1.429 1.429 0 0 0 48.41 5.933 A 1.335 1.335 0 0 0 48.706 5.705 A 1.108 1.108 0 0 0 48.907 5.418 Z M 23.542 3.938 L 25.923 3.938 L 25.923 3.876 Q 25.897 3.417 25.727 3.111 A 1.13 1.13 0 0 0 25.59 2.916 A 0.983 0.983 0 0 0 24.935 2.584 A 1.39 1.39 0 0 0 24.781 2.575 A 1.106 1.106 0 0 0 24.258 2.698 A 1.14 1.14 0 0 0 23.955 2.933 A 1.417 1.417 0 0 0 23.678 3.379 Q 23.604 3.563 23.565 3.785 A 2.741 2.741 0 0 0 23.542 3.938 Z M 56.676 3.938 L 59.058 3.938 L 59.058 3.876 Q 59.032 3.417 58.862 3.111 A 1.13 1.13 0 0 0 58.724 2.916 A 0.983 0.983 0 0 0 58.07 2.584 A 1.39 1.39 0 0 0 57.916 2.575 A 1.106 1.106 0 0 0 57.393 2.698 A 1.14 1.14 0 0 0 57.09 2.933 A 1.417 1.417 0 0 0 56.813 3.379 Q 56.739 3.563 56.699 3.785 A 2.741 2.741 0 0 0 56.676 3.938 Z M 5.608 0.734 Q 5.608 0.536 5.728 0.4 Q 5.84 0.274 6.052 0.264 A 0.783 0.783 0 0 1 6.087 0.264 Q 6.324 0.264 6.447 0.4 A 0.474 0.474 0 0 1 6.569 0.703 A 0.614 0.614 0 0 1 6.57 0.734 A 0.523 0.523 0 0 1 6.545 0.9 A 0.442 0.442 0 0 1 6.447 1.063 Q 6.334 1.184 6.126 1.194 A 0.803 0.803 0 0 1 6.087 1.195 Q 5.914 1.195 5.803 1.126 A 0.362 0.362 0 0 1 5.728 1.063 A 0.456 0.456 0 0 1 5.61 0.788 A 0.605 0.605 0 0 1 5.608 0.734 Z" vector-effect="non-scaling-stroke"/></g><g transform="translate(12vw, 90vh)" id="svgGroup" stroke-linecap="round" fill-rule="evenodd" font-size="9pt" stroke="#000" stroke-width="0.25mm" fill="#000" style="stroke:#000;stroke-width:0.25mm;fill:#000"><path d="M 4.636 2.202 L 3.788 2.202 A 1.466 1.466 0 0 0 3.738 1.809 A 1.066 1.066 0 0 0 3.419 1.29 A 1.211 1.211 0 0 0 2.95 1.033 Q 2.698 0.958 2.378 0.958 A 2.286 2.286 0 0 0 1.998 0.988 Q 1.796 1.022 1.633 1.095 A 1.101 1.101 0 0 0 1.404 1.233 A 0.892 0.892 0 0 0 1.059 1.887 A 1.267 1.267 0 0 0 1.055 1.995 A 0.806 0.806 0 0 0 1.323 2.6 A 1.134 1.134 0 0 0 1.387 2.656 A 1.562 1.562 0 0 0 1.625 2.813 Q 1.955 2.993 2.516 3.151 A 8.228 8.228 0 0 1 2.981 3.295 Q 3.216 3.377 3.41 3.464 A 3.297 3.297 0 0 1 3.764 3.645 A 2.342 2.342 0 0 1 4.103 3.889 Q 4.293 4.056 4.415 4.248 A 1.45 1.45 0 0 1 4.432 4.276 A 1.498 1.498 0 0 1 4.628 4.832 A 1.948 1.948 0 0 1 4.65 5.124 A 1.606 1.606 0 0 1 4.527 5.76 Q 4.382 6.101 4.064 6.354 A 1.886 1.886 0 0 1 4.043 6.37 Q 3.437 6.838 2.422 6.838 A 3.023 3.023 0 0 1 1.281 6.623 A 2.917 2.917 0 0 1 1.191 6.585 A 2.383 2.383 0 0 1 0.713 6.307 A 1.874 1.874 0 0 1 0.31 5.893 A 1.689 1.689 0 0 1 0 4.896 L 0.848 4.896 A 1.261 1.261 0 0 0 0.918 5.323 A 1.074 1.074 0 0 0 1.277 5.812 Q 1.661 6.113 2.278 6.144 A 2.87 2.87 0 0 0 2.422 6.148 A 2.628 2.628 0 0 0 2.809 6.121 Q 3.005 6.092 3.164 6.031 A 1.129 1.129 0 0 0 3.445 5.875 Q 3.801 5.603 3.801 5.133 A 1.074 1.074 0 0 0 3.759 4.822 A 0.816 0.816 0 0 0 3.472 4.406 Q 3.142 4.148 2.277 3.898 Q 1.191 3.586 0.697 3.131 Q 0.202 2.676 0.202 2.008 Q 0.202 1.252 0.807 0.758 A 2.121 2.121 0 0 1 1.697 0.335 A 3.087 3.087 0 0 1 2.378 0.264 A 2.913 2.913 0 0 1 3.038 0.336 A 2.372 2.372 0 0 1 3.553 0.519 A 2.051 2.051 0 0 1 4.084 0.889 A 1.834 1.834 0 0 1 4.353 1.222 A 1.798 1.798 0 0 1 4.636 2.202 Z M 36.119 2.202 L 35.271 2.202 A 1.466 1.466 0 0 0 35.221 1.809 A 1.066 1.066 0 0 0 34.902 1.29 A 1.211 1.211 0 0 0 34.432 1.033 Q 34.18 0.958 33.86 0.958 A 2.286 2.286 0 0 0 33.48 0.988 Q 33.278 1.022 33.116 1.095 A 1.101 1.101 0 0 0 32.887 1.233 A 0.892 0.892 0 0 0 32.542 1.887 A 1.267 1.267 0 0 0 32.537 1.995 A 0.806 0.806 0 0 0 32.805 2.6 A 1.134 1.134 0 0 0 32.869 2.656 A 1.562 1.562 0 0 0 33.107 2.813 Q 33.438 2.993 33.998 3.151 A 8.228 8.228 0 0 1 34.463 3.295 Q 34.698 3.377 34.893 3.464 A 3.297 3.297 0 0 1 35.246 3.645 A 2.342 2.342 0 0 1 35.585 3.889 Q 35.775 4.056 35.897 4.248 A 1.45 1.45 0 0 1 35.914 4.276 A 1.498 1.498 0 0 1 36.111 4.832 A 1.948 1.948 0 0 1 36.132 5.124 A 1.606 1.606 0 0 1 36.01 5.76 Q 35.864 6.101 35.546 6.354 A 1.886 1.886 0 0 1 35.526 6.37 Q 34.919 6.838 33.904 6.838 A 3.023 3.023 0 0 1 32.763 6.623 A 2.917 2.917 0 0 1 32.673 6.585 A 2.383 2.383 0 0 1 32.195 6.307 A 1.874 1.874 0 0 1 31.792 5.893 A 1.689 1.689 0 0 1 31.483 4.896 L 32.331 4.896 A 1.261 1.261 0 0 0 32.4 5.323 A 1.074 1.074 0 0 0 32.759 5.812 Q 33.144 6.113 33.76 6.144 A 2.87 2.87 0 0 0 33.904 6.148 A 2.628 2.628 0 0 0 34.291 6.121 Q 34.487 6.092 34.646 6.031 A 1.129 1.129 0 0 0 34.928 5.875 Q 35.284 5.603 35.284 5.133 A 1.074 1.074 0 0 0 35.241 4.822 A 0.816 0.816 0 0 0 34.954 4.406 Q 34.625 4.148 33.759 3.898 Q 32.673 3.586 32.179 3.131 Q 31.685 2.676 31.685 2.008 Q 31.685 1.252 32.289 0.758 A 2.121 2.121 0 0 1 33.179 0.335 A 3.087 3.087 0 0 1 33.86 0.264 A 2.913 2.913 0 0 1 34.52 0.336 A 2.372 2.372 0 0 1 35.036 0.519 A 2.051 2.051 0 0 1 35.567 0.889 A 1.834 1.834 0 0 1 35.835 1.222 A 1.798 1.798 0 0 1 36.119 2.202 Z M 38.184 3.819 L 38.184 3.155 L 38.795 3.155 Q 39.253 3.148 39.555 2.961 A 1.045 1.045 0 0 0 39.7 2.852 A 0.97 0.97 0 0 0 40.02 2.225 A 1.373 1.373 0 0 0 40.03 2.057 A 1.626 1.626 0 0 0 39.974 1.611 Q 39.832 1.112 39.324 0.98 A 1.645 1.645 0 0 0 38.909 0.932 A 1.495 1.495 0 0 0 38.547 0.973 A 1.044 1.044 0 0 0 38.068 1.233 A 1.004 1.004 0 0 0 37.766 1.844 A 1.405 1.405 0 0 0 37.754 2.03 L 36.941 2.03 A 1.698 1.698 0 0 1 37.095 1.3 A 1.68 1.68 0 0 1 37.496 0.767 A 1.924 1.924 0 0 1 38.549 0.288 A 2.615 2.615 0 0 1 38.909 0.264 A 2.758 2.758 0 0 1 39.485 0.32 Q 39.853 0.399 40.132 0.586 A 1.593 1.593 0 0 1 40.329 0.743 A 1.57 1.57 0 0 1 40.795 1.589 A 2.336 2.336 0 0 1 40.843 2.074 A 1.332 1.332 0 0 1 40.691 2.686 A 1.725 1.725 0 0 1 40.573 2.883 A 1.624 1.624 0 0 1 39.873 3.452 A 1.952 1.952 0 0 1 39.837 3.467 A 1.81 1.81 0 0 1 40.272 3.668 A 1.44 1.44 0 0 1 40.652 4.021 Q 40.94 4.408 40.94 4.966 Q 40.94 5.827 40.377 6.333 A 1.935 1.935 0 0 1 39.42 6.793 A 2.738 2.738 0 0 1 38.914 6.838 A 2.716 2.716 0 0 1 38.267 6.765 A 1.936 1.936 0 0 1 37.448 6.35 Q 36.883 5.862 36.883 5.063 L 37.701 5.063 A 1.255 1.255 0 0 0 37.751 5.426 A 0.978 0.978 0 0 0 38.03 5.871 A 1.113 1.113 0 0 0 38.545 6.135 A 1.643 1.643 0 0 0 38.914 6.174 Q 39.503 6.174 39.815 5.867 Q 40.102 5.583 40.125 5.073 A 2.011 2.011 0 0 0 40.127 4.983 A 1.451 1.451 0 0 0 40.087 4.634 A 0.962 0.962 0 0 0 39.784 4.126 A 1.13 1.13 0 0 0 39.396 3.91 Q 39.138 3.824 38.795 3.819 L 38.184 3.819 Z M 121.694 0 L 121.694 2.571 A 1.767 1.767 0 0 1 122.36 2.053 A 1.832 1.832 0 0 1 123.1 1.907 A 1.905 1.905 0 0 1 123.733 2.004 Q 124.575 2.3 124.618 3.506 A 3.668 3.668 0 0 1 124.62 3.608 L 124.62 6.75 L 123.807 6.75 L 123.807 3.604 A 1.837 1.837 0 0 0 123.785 3.324 Q 123.735 3.017 123.572 2.843 Q 123.386 2.645 123.033 2.606 A 1.66 1.66 0 0 0 122.854 2.597 A 1.253 1.253 0 0 0 122.439 2.664 A 1.123 1.123 0 0 0 122.159 2.808 A 1.432 1.432 0 0 0 121.694 3.362 L 121.694 6.75 L 120.881 6.75 L 120.881 0 L 121.694 0 Z M 118.872 2.522 L 118.912 1.995 L 119.654 1.995 L 119.654 6.636 A 2.511 2.511 0 0 1 119.584 7.249 A 1.738 1.738 0 0 1 119.107 8.09 A 1.834 1.834 0 0 1 118.177 8.57 A 2.671 2.671 0 0 1 117.637 8.622 A 2.446 2.446 0 0 1 116.631 8.402 A 2.003 2.003 0 0 1 116.221 8.161 A 1.563 1.563 0 0 1 115.88 7.8 L 116.301 7.313 A 1.889 1.889 0 0 0 116.736 7.712 A 1.514 1.514 0 0 0 117.58 7.958 A 1.695 1.695 0 0 0 117.957 7.919 Q 118.226 7.858 118.42 7.702 A 1.037 1.037 0 0 0 118.505 7.625 A 1.09 1.09 0 0 0 118.782 7.132 Q 118.829 6.959 118.836 6.752 A 2.134 2.134 0 0 0 118.837 6.684 L 118.837 6.275 A 1.601 1.601 0 0 1 117.785 6.821 A 2.279 2.279 0 0 1 117.506 6.838 A 1.672 1.672 0 0 1 116.75 6.67 Q 116.428 6.51 116.179 6.197 A 2.14 2.14 0 0 1 116.154 6.166 A 2.316 2.316 0 0 1 115.771 5.386 Q 115.638 4.922 115.638 4.333 Q 115.638 3.472 115.946 2.884 A 2.096 2.096 0 0 1 116.152 2.564 Q 116.666 1.907 117.514 1.907 A 1.971 1.971 0 0 1 118.113 1.994 A 1.55 1.55 0 0 1 118.872 2.522 Z M 85.557 3.393 L 84.74 3.393 Q 84.74 3.059 84.456 2.817 Q 84.173 2.575 83.742 2.575 Q 83.298 2.575 83.048 2.769 A 0.653 0.653 0 0 0 82.873 2.967 Q 82.8 3.098 82.798 3.263 A 0.771 0.771 0 0 0 82.798 3.274 A 0.588 0.588 0 0 0 82.828 3.467 A 0.48 0.48 0 0 0 83.03 3.718 A 1.093 1.093 0 0 0 83.181 3.796 Q 83.345 3.868 83.6 3.937 A 6.581 6.581 0 0 0 83.872 4.003 A 6.318 6.318 0 0 1 84.28 4.108 Q 84.616 4.208 84.859 4.329 A 1.901 1.901 0 0 1 85.114 4.481 Q 85.251 4.579 85.349 4.692 A 1.06 1.06 0 0 1 85.419 4.783 A 1.024 1.024 0 0 1 85.581 5.191 A 1.388 1.388 0 0 1 85.601 5.432 Q 85.601 6.069 85.091 6.453 Q 84.609 6.817 83.855 6.837 A 3.337 3.337 0 0 1 83.769 6.838 A 2.746 2.746 0 0 1 83.234 6.788 A 2.124 2.124 0 0 1 82.758 6.636 A 1.771 1.771 0 0 1 82.324 6.358 A 1.54 1.54 0 0 1 82.07 6.071 Q 81.822 5.708 81.822 5.287 L 82.635 5.287 A 0.932 0.932 0 0 0 82.708 5.612 A 0.827 0.827 0 0 0 82.962 5.935 A 1.072 1.072 0 0 0 83.365 6.128 Q 83.519 6.167 83.701 6.173 A 2.013 2.013 0 0 0 83.769 6.174 A 1.863 1.863 0 0 0 84.064 6.152 Q 84.226 6.126 84.357 6.07 A 0.941 0.941 0 0 0 84.509 5.988 A 0.689 0.689 0 0 0 84.674 5.837 A 0.554 0.554 0 0 0 84.788 5.489 A 0.698 0.698 0 0 0 84.752 5.258 A 0.581 0.581 0 0 0 84.54 4.977 A 1.05 1.05 0 0 0 84.371 4.878 Q 84.182 4.788 83.887 4.712 A 5.392 5.392 0 0 0 83.674 4.663 A 6.342 6.342 0 0 1 83.313 4.575 Q 82.943 4.473 82.694 4.346 Q 82.395 4.194 82.225 3.994 A 1.017 1.017 0 0 1 82.158 3.907 Q 81.985 3.652 81.985 3.3 A 1.206 1.206 0 0 1 82.384 2.396 A 1.694 1.694 0 0 1 82.479 2.312 A 1.752 1.752 0 0 1 83.262 1.952 A 2.471 2.471 0 0 1 83.742 1.907 A 2.559 2.559 0 0 1 84.306 1.966 A 1.757 1.757 0 0 1 85.054 2.325 Q 85.557 2.742 85.557 3.393 Z M 93.138 3.393 L 92.32 3.393 Q 92.32 3.059 92.037 2.817 Q 91.754 2.575 91.323 2.575 Q 90.879 2.575 90.629 2.769 A 0.653 0.653 0 0 0 90.454 2.967 Q 90.38 3.098 90.378 3.263 A 0.771 0.771 0 0 0 90.378 3.274 A 0.588 0.588 0 0 0 90.408 3.467 A 0.48 0.48 0 0 0 90.611 3.718 A 1.093 1.093 0 0 0 90.761 3.796 Q 90.925 3.868 91.181 3.937 A 6.581 6.581 0 0 0 91.453 4.003 A 6.318 6.318 0 0 1 91.86 4.108 Q 92.197 4.208 92.439 4.329 A 1.901 1.901 0 0 1 92.695 4.481 Q 92.832 4.579 92.929 4.692 A 1.06 1.06 0 0 1 92.999 4.783 A 1.024 1.024 0 0 1 93.162 5.191 A 1.388 1.388 0 0 1 93.182 5.432 Q 93.182 6.069 92.672 6.453 Q 92.19 6.817 91.436 6.837 A 3.337 3.337 0 0 1 91.349 6.838 A 2.746 2.746 0 0 1 90.815 6.788 A 2.124 2.124 0 0 1 90.339 6.636 A 1.771 1.771 0 0 1 89.905 6.358 A 1.54 1.54 0 0 1 89.651 6.071 Q 89.402 5.708 89.402 5.287 L 90.215 5.287 A 0.932 0.932 0 0 0 90.289 5.612 A 0.827 0.827 0 0 0 90.543 5.935 A 1.072 1.072 0 0 0 90.945 6.128 Q 91.1 6.167 91.281 6.173 A 2.013 2.013 0 0 0 91.349 6.174 A 1.863 1.863 0 0 0 91.645 6.152 Q 91.806 6.126 91.938 6.07 A 0.941 0.941 0 0 0 92.09 5.988 A 0.689 0.689 0 0 0 92.254 5.837 A 0.554 0.554 0 0 0 92.369 5.489 A 0.698 0.698 0 0 0 92.332 5.258 A 0.581 0.581 0 0 0 92.121 4.977 A 1.05 1.05 0 0 0 91.952 4.878 Q 91.763 4.788 91.468 4.712 A 5.392 5.392 0 0 0 91.255 4.663 A 6.342 6.342 0 0 1 90.894 4.575 Q 90.524 4.473 90.275 4.346 Q 89.976 4.194 89.806 3.994 A 1.017 1.017 0 0 1 89.739 3.907 Q 89.565 3.652 89.565 3.3 A 1.206 1.206 0 0 1 89.964 2.396 A 1.694 1.694 0 0 1 90.059 2.312 A 1.752 1.752 0 0 1 90.842 1.952 A 2.471 2.471 0 0 1 91.323 1.907 A 2.559 2.559 0 0 1 91.886 1.966 A 1.757 1.757 0 0 1 92.635 2.325 Q 93.138 2.742 93.138 3.393 Z M 50.555 1.995 L 51.324 1.995 L 51.35 2.593 Q 51.887 1.918 52.746 1.907 A 2.234 2.234 0 0 1 52.774 1.907 A 1.905 1.905 0 0 1 53.408 2.004 Q 54.249 2.3 54.292 3.506 A 3.668 3.668 0 0 1 54.295 3.608 L 54.295 6.75 L 53.482 6.75 L 53.482 3.604 A 1.837 1.837 0 0 0 53.459 3.324 Q 53.409 3.017 53.246 2.843 Q 53.06 2.645 52.707 2.606 A 1.66 1.66 0 0 0 52.528 2.597 A 1.253 1.253 0 0 0 52.114 2.664 A 1.123 1.123 0 0 0 51.834 2.808 A 1.432 1.432 0 0 0 51.368 3.362 L 51.368 6.75 L 50.555 6.75 L 50.555 1.995 Z M 66.889 6.75 L 66.872 6.28 A 1.526 1.526 0 0 1 66.046 6.775 Q 65.795 6.836 65.498 6.838 A 2.996 2.996 0 0 1 65.479 6.838 A 2.086 2.086 0 0 1 65.019 6.79 Q 64.588 6.693 64.321 6.396 A 1.41 1.41 0 0 1 64.038 5.899 Q 63.921 5.556 63.919 5.089 L 63.919 1.995 L 64.732 1.995 L 64.732 5.067 Q 64.732 6.037 65.439 6.137 A 1.229 1.229 0 0 0 65.61 6.148 A 1.927 1.927 0 0 0 66.061 6.099 Q 66.624 5.964 66.85 5.454 L 66.85 1.995 L 67.663 1.995 L 67.663 6.75 L 66.889 6.75 Z M 23.067 5.251 L 23.836 5.251 A 1.432 1.432 0 0 1 23.637 5.901 A 1.772 1.772 0 0 1 23.555 6.029 A 1.828 1.828 0 0 1 22.946 6.574 A 2.169 2.169 0 0 1 22.863 6.618 A 1.997 1.997 0 0 1 21.946 6.838 A 2.346 2.346 0 0 1 21.249 6.739 A 1.839 1.839 0 0 1 20.402 6.19 A 2.171 2.171 0 0 1 19.938 5.31 Q 19.828 4.909 19.828 4.417 L 19.828 4.28 A 3.24 3.24 0 0 1 19.892 3.624 A 2.57 2.57 0 0 1 20.083 3.045 A 2.008 2.008 0 0 1 20.523 2.431 A 1.892 1.892 0 0 1 20.815 2.206 A 1.943 1.943 0 0 1 21.571 1.934 A 2.529 2.529 0 0 1 21.942 1.907 A 2.196 2.196 0 0 1 22.59 1.999 A 1.786 1.786 0 0 1 23.271 2.386 A 1.693 1.693 0 0 1 23.83 3.535 A 2.239 2.239 0 0 1 23.836 3.63 L 23.067 3.63 Q 23.032 3.168 22.718 2.872 A 1.078 1.078 0 0 0 21.989 2.576 A 1.402 1.402 0 0 0 21.942 2.575 A 1.374 1.374 0 0 0 21.521 2.637 A 1.081 1.081 0 0 0 20.982 3.021 A 1.469 1.469 0 0 0 20.755 3.468 Q 20.689 3.674 20.662 3.923 A 3.514 3.514 0 0 0 20.641 4.311 L 20.641 4.465 Q 20.641 5.287 20.98 5.73 A 1.1 1.1 0 0 0 21.766 6.165 A 1.611 1.611 0 0 0 21.946 6.174 A 1.171 1.171 0 0 0 22.707 5.911 A 1.007 1.007 0 0 0 22.951 5.629 A 0.914 0.914 0 0 0 23.067 5.251 Z M 75.854 4.351 L 75.854 4.425 Q 75.854 5.511 75.358 6.174 A 1.57 1.57 0 0 1 74.219 6.828 A 2.013 2.013 0 0 1 74.013 6.838 A 2.196 2.196 0 0 1 73.427 6.764 A 1.598 1.598 0 0 1 72.651 6.289 L 72.651 8.578 L 71.838 8.578 L 71.838 1.995 L 72.58 1.995 L 72.62 2.522 A 1.619 1.619 0 0 1 73.759 1.919 A 2.319 2.319 0 0 1 74 1.907 A 1.829 1.829 0 0 1 74.637 2.014 A 1.597 1.597 0 0 1 75.355 2.553 Q 75.854 3.199 75.854 4.351 Z M 5.397 4.504 L 5.397 4.355 A 3.17 3.17 0 0 1 5.473 3.646 A 2.581 2.581 0 0 1 5.667 3.092 A 2.191 2.191 0 0 1 6.114 2.466 A 2.033 2.033 0 0 1 6.423 2.221 Q 6.908 1.907 7.475 1.907 A 2.254 2.254 0 0 1 8.088 1.986 A 1.639 1.639 0 0 1 8.917 2.518 Q 9.431 3.129 9.431 4.267 L 9.431 4.605 L 6.21 4.605 A 2.111 2.111 0 0 0 6.281 5.114 A 1.516 1.516 0 0 0 6.621 5.741 A 1.282 1.282 0 0 0 7.555 6.173 A 1.652 1.652 0 0 0 7.62 6.174 A 1.763 1.763 0 0 0 7.948 6.145 Q 8.172 6.103 8.35 5.999 A 1.827 1.827 0 0 0 8.859 5.551 A 2.068 2.068 0 0 0 8.873 5.533 L 9.369 5.919 A 1.926 1.926 0 0 1 7.97 6.811 A 2.749 2.749 0 0 1 7.576 6.838 A 2.394 2.394 0 0 1 6.825 6.725 A 1.974 1.974 0 0 1 6.003 6.203 Q 5.397 5.568 5.397 4.504 Z M 24.544 4.504 L 24.544 4.355 A 3.17 3.17 0 0 1 24.62 3.646 A 2.581 2.581 0 0 1 24.814 3.092 A 2.191 2.191 0 0 1 25.261 2.466 A 2.033 2.033 0 0 1 25.57 2.221 Q 26.055 1.907 26.622 1.907 A 2.254 2.254 0 0 1 27.235 1.986 A 1.639 1.639 0 0 1 28.064 2.518 Q 28.578 3.129 28.578 4.267 L 28.578 4.605 L 25.357 4.605 A 2.111 2.111 0 0 0 25.428 5.114 A 1.516 1.516 0 0 0 25.767 5.741 A 1.282 1.282 0 0 0 26.702 6.173 A 1.652 1.652 0 0 0 26.767 6.174 A 1.763 1.763 0 0 0 27.095 6.145 Q 27.319 6.103 27.497 5.999 A 1.827 1.827 0 0 0 28.006 5.551 A 2.068 2.068 0 0 0 28.02 5.533 L 28.516 5.919 A 1.926 1.926 0 0 1 27.117 6.811 A 2.749 2.749 0 0 1 26.723 6.838 A 2.394 2.394 0 0 1 25.972 6.725 A 1.974 1.974 0 0 1 25.15 6.203 Q 24.544 5.568 24.544 4.504 Z M 109.78 0.352 L 109.78 6.06 L 112.812 6.06 L 112.812 6.75 L 108.932 6.75 L 108.932 0.352 L 109.78 0.352 Z M 13.856 1.995 L 15.065 5.647 L 16.242 1.995 L 17.073 1.995 L 15.368 6.75 L 14.748 6.75 L 13.026 1.995 L 13.856 1.995 Z M 99.818 0.352 L 99.818 4.601 L 100.705 4.601 L 100.705 5.265 L 99.818 5.265 L 99.818 6.75 L 99 6.75 L 99 5.265 L 96.087 5.265 L 96.087 4.786 L 98.952 0.352 L 99.818 0.352 Z M 105.216 2.592 A 1.544 1.544 0 0 0 105.319 2.021 A 2.226 2.226 0 0 0 105.298 1.707 A 1.566 1.566 0 0 0 104.799 0.738 A 1.754 1.754 0 0 0 104.033 0.333 A 2.443 2.443 0 0 0 103.434 0.264 A 2.539 2.539 0 0 0 102.925 0.312 A 1.767 1.767 0 0 0 102.068 0.738 Q 101.549 1.213 101.549 2.021 A 1.808 1.808 0 0 0 101.549 2.058 A 1.499 1.499 0 0 0 101.795 2.87 A 1.626 1.626 0 0 0 101.957 3.077 A 1.726 1.726 0 0 0 102.467 3.454 A 2.119 2.119 0 0 0 102.368 3.5 A 1.738 1.738 0 0 0 101.683 4.087 A 1.629 1.629 0 0 0 101.4 5.023 A 2.272 2.272 0 0 0 101.409 5.237 A 1.63 1.63 0 0 0 101.955 6.344 A 1.895 1.895 0 0 0 102.806 6.771 A 2.797 2.797 0 0 0 103.434 6.838 A 2.796 2.796 0 0 0 104.033 6.777 A 1.925 1.925 0 0 0 104.909 6.346 A 1.578 1.578 0 0 0 105.383 5.62 A 1.989 1.989 0 0 0 105.469 5.023 A 1.581 1.581 0 0 0 105.177 4.087 Q 104.884 3.674 104.383 3.458 Q 104.814 3.248 105.067 2.874 A 1.449 1.449 0 0 0 105.216 2.592 Z M 49.417 3.353 L 49.417 3.757 A 4.729 4.729 0 0 1 49.352 4.56 A 3.455 3.455 0 0 1 49.1 5.399 A 2.648 2.648 0 0 1 48.704 6.033 A 2.226 2.226 0 0 1 48.204 6.469 A 2.362 2.362 0 0 1 47.185 6.82 A 2.993 2.993 0 0 1 46.85 6.838 A 2.618 2.618 0 0 1 46.044 6.717 A 2.313 2.313 0 0 1 45.51 6.467 A 2.392 2.392 0 0 1 44.71 5.615 A 2.953 2.953 0 0 1 44.602 5.407 A 3.426 3.426 0 0 1 44.325 4.489 A 4.535 4.535 0 0 1 44.271 3.814 L 44.271 3.353 A 4.52 4.52 0 0 1 44.346 2.51 A 3.461 3.461 0 0 1 44.591 1.723 Q 44.912 1.015 45.499 0.639 A 2.389 2.389 0 0 1 46.655 0.27 A 2.92 2.92 0 0 1 46.841 0.264 A 2.702 2.702 0 0 1 47.618 0.372 A 2.318 2.318 0 0 1 48.197 0.635 A 2.31 2.31 0 0 1 48.971 1.456 A 2.912 2.912 0 0 1 49.1 1.712 A 3.525 3.525 0 0 1 49.36 2.604 A 4.763 4.763 0 0 1 49.417 3.353 Z M 62.798 3.353 L 62.798 3.757 A 4.729 4.729 0 0 1 62.733 4.56 A 3.455 3.455 0 0 1 62.482 5.399 A 2.648 2.648 0 0 1 62.085 6.033 A 2.226 2.226 0 0 1 61.585 6.469 A 2.362 2.362 0 0 1 60.566 6.82 A 2.993 2.993 0 0 1 60.232 6.838 A 2.618 2.618 0 0 1 59.425 6.717 A 2.313 2.313 0 0 1 58.891 6.467 A 2.392 2.392 0 0 1 58.091 5.615 A 2.953 2.953 0 0 1 57.984 5.407 A 3.426 3.426 0 0 1 57.707 4.489 A 4.535 4.535 0 0 1 57.652 3.814 L 57.652 3.353 A 4.52 4.52 0 0 1 57.727 2.51 A 3.461 3.461 0 0 1 57.973 1.723 Q 58.294 1.015 58.88 0.639 A 2.389 2.389 0 0 1 60.036 0.27 A 2.92 2.92 0 0 1 60.223 0.264 A 2.702 2.702 0 0 1 60.999 0.372 A 2.318 2.318 0 0 1 61.579 0.635 A 2.31 2.31 0 0 1 62.352 1.456 A 2.912 2.912 0 0 1 62.482 1.712 A 3.525 3.525 0 0 1 62.742 2.604 A 4.763 4.763 0 0 1 62.798 3.353 Z M 69.188 0.844 L 70.001 0.844 L 70.001 1.995 L 70.888 1.995 L 70.888 2.624 L 70.001 2.624 L 70.001 5.572 Q 70.001 5.858 70.119 6.001 Q 70.238 6.144 70.524 6.144 A 1.046 1.046 0 0 0 70.621 6.138 Q 70.724 6.129 70.864 6.101 A 4.024 4.024 0 0 0 70.91 6.091 L 70.91 6.75 A 2.463 2.463 0 0 1 70.478 6.829 A 2.157 2.157 0 0 1 70.286 6.838 Q 69.839 6.838 69.573 6.616 A 0.856 0.856 0 0 1 69.465 6.508 Q 69.237 6.238 69.196 5.78 A 2.351 2.351 0 0 1 69.188 5.572 L 69.188 2.624 L 68.322 2.624 L 68.322 1.995 L 69.188 1.995 L 69.188 0.844 Z M 86.95 0.844 L 87.763 0.844 L 87.763 1.995 L 88.651 1.995 L 88.651 2.624 L 87.763 2.624 L 87.763 5.572 Q 87.763 5.858 87.882 6.001 Q 88.001 6.144 88.286 6.144 A 1.046 1.046 0 0 0 88.384 6.138 Q 88.487 6.129 88.626 6.101 A 4.024 4.024 0 0 0 88.673 6.091 L 88.673 6.75 A 2.463 2.463 0 0 1 88.24 6.829 A 2.157 2.157 0 0 1 88.049 6.838 Q 87.602 6.838 87.335 6.616 A 0.856 0.856 0 0 1 87.227 6.508 Q 87 6.238 86.959 5.78 A 2.351 2.351 0 0 1 86.95 5.572 L 86.95 2.624 L 86.085 2.624 L 86.085 1.995 L 86.95 1.995 L 86.95 0.844 Z M 126.128 0.844 L 126.941 0.844 L 126.941 1.995 L 127.828 1.995 L 127.828 2.624 L 126.941 2.624 L 126.941 5.572 Q 126.941 5.858 127.059 6.001 Q 127.178 6.144 127.464 6.144 A 1.046 1.046 0 0 0 127.561 6.138 Q 127.664 6.129 127.804 6.101 A 4.024 4.024 0 0 0 127.85 6.091 L 127.85 6.75 A 2.463 2.463 0 0 1 127.417 6.829 A 2.157 2.157 0 0 1 127.226 6.838 Q 126.779 6.838 126.512 6.616 A 0.856 0.856 0 0 1 126.404 6.508 Q 126.177 6.238 126.136 5.78 A 2.351 2.351 0 0 1 126.128 5.572 L 126.128 2.624 L 125.262 2.624 L 125.262 1.995 L 126.128 1.995 L 126.128 0.844 Z M 76.672 4.386 L 76.672 4.329 A 3.057 3.057 0 0 1 76.758 3.587 A 2.573 2.573 0 0 1 76.946 3.072 A 2.16 2.16 0 0 1 77.361 2.486 A 1.957 1.957 0 0 1 77.711 2.21 A 2.036 2.036 0 0 1 78.655 1.913 A 2.491 2.491 0 0 1 78.829 1.907 A 2.277 2.277 0 0 1 79.583 2.027 A 1.937 1.937 0 0 1 80.4 2.58 A 2.29 2.29 0 0 1 80.919 3.608 A 3.373 3.373 0 0 1 81 4.368 L 81 4.425 A 3.114 3.114 0 0 1 80.921 5.142 A 2.577 2.577 0 0 1 80.734 5.671 A 2.056 2.056 0 0 1 80.207 6.361 A 2.001 2.001 0 0 1 79.974 6.53 A 2.045 2.045 0 0 1 79.054 6.829 A 2.529 2.529 0 0 1 78.838 6.838 A 2.262 2.262 0 0 1 78.088 6.718 A 1.938 1.938 0 0 1 77.271 6.166 A 2.297 2.297 0 0 1 76.746 5.111 A 3.357 3.357 0 0 1 76.672 4.386 Z M 12.67 1.969 L 12.67 2.725 A 2.251 2.251 0 0 0 12.427 2.698 A 2.782 2.782 0 0 0 12.27 2.694 Q 11.492 2.694 11.2 3.338 A 1.445 1.445 0 0 0 11.184 3.375 L 11.184 6.75 L 10.371 6.75 L 10.371 1.995 L 11.162 1.995 L 11.175 2.544 Q 11.556 1.938 12.238 1.909 A 1.636 1.636 0 0 1 12.309 1.907 Q 12.547 1.907 12.67 1.969 Z M 48.577 3.819 L 48.577 3.344 A 4.551 4.551 0 0 0 48.533 2.685 Q 48.484 2.35 48.38 2.078 A 1.944 1.944 0 0 0 48.12 1.597 Q 47.663 0.989 46.841 0.989 Q 46.042 0.989 45.582 1.597 A 2.112 2.112 0 0 0 45.258 2.246 Q 45.17 2.527 45.134 2.864 A 4.531 4.531 0 0 0 45.11 3.287 L 45.11 3.757 A 4.254 4.254 0 0 0 45.16 4.43 Q 45.217 4.789 45.341 5.079 A 2.039 2.039 0 0 0 45.574 5.491 A 1.472 1.472 0 0 0 46.64 6.11 A 1.931 1.931 0 0 0 46.85 6.122 A 1.79 1.79 0 0 0 47.409 6.039 A 1.423 1.423 0 0 0 48.116 5.526 A 2.017 2.017 0 0 0 48.417 4.932 Q 48.57 4.462 48.577 3.819 Z M 61.959 3.819 L 61.959 3.344 A 4.551 4.551 0 0 0 61.914 2.685 Q 61.865 2.35 61.762 2.078 A 1.944 1.944 0 0 0 61.502 1.597 Q 61.045 0.989 60.223 0.989 Q 59.423 0.989 58.964 1.597 A 2.112 2.112 0 0 0 58.639 2.246 Q 58.551 2.527 58.516 2.864 A 4.531 4.531 0 0 0 58.491 3.287 L 58.491 3.757 A 4.254 4.254 0 0 0 58.541 4.43 Q 58.599 4.789 58.722 5.079 A 2.039 2.039 0 0 0 58.955 5.491 A 1.472 1.472 0 0 0 60.022 6.11 A 1.931 1.931 0 0 0 60.232 6.122 A 1.79 1.79 0 0 0 60.79 6.039 A 1.423 1.423 0 0 0 61.497 5.526 A 2.017 2.017 0 0 0 61.798 4.932 Q 61.951 4.462 61.959 3.819 Z M 18.738 1.995 L 18.738 6.75 L 17.925 6.75 L 17.925 1.995 L 18.738 1.995 Z M 114.53 1.995 L 114.53 6.75 L 113.717 6.75 L 113.717 1.995 L 114.53 1.995 Z M 77.489 4.425 A 2.772 2.772 0 0 0 77.536 4.954 Q 77.597 5.264 77.734 5.51 A 1.545 1.545 0 0 0 77.856 5.695 Q 78.223 6.174 78.838 6.174 A 1.269 1.269 0 0 0 79.327 6.083 Q 79.607 5.967 79.809 5.706 A 1.471 1.471 0 0 0 79.822 5.689 A 1.648 1.648 0 0 0 80.077 5.171 Q 80.146 4.945 80.172 4.672 A 3.655 3.655 0 0 0 80.187 4.329 A 2.687 2.687 0 0 0 80.136 3.789 Q 80.068 3.459 79.911 3.2 A 1.586 1.586 0 0 0 79.816 3.061 A 1.231 1.231 0 0 0 79.401 2.705 Q 79.148 2.575 78.829 2.575 Q 78.239 2.575 77.873 3.035 A 1.515 1.515 0 0 0 77.858 3.054 A 1.589 1.589 0 0 0 77.606 3.552 Q 77.536 3.772 77.508 4.039 A 3.676 3.676 0 0 0 77.489 4.425 Z M 72.651 3.252 L 72.651 5.524 Q 73.015 6.174 73.767 6.174 A 1.184 1.184 0 0 0 74.232 6.086 Q 74.489 5.977 74.678 5.735 A 1.403 1.403 0 0 0 74.696 5.711 A 1.501 1.501 0 0 0 74.913 5.28 Q 74.981 5.073 75.013 4.818 A 3.91 3.91 0 0 0 75.041 4.333 Q 75.041 3.746 74.858 3.339 A 1.503 1.503 0 0 0 74.698 3.063 A 1.086 1.086 0 0 0 73.912 2.605 A 1.414 1.414 0 0 0 73.758 2.597 Q 73.097 2.597 72.732 3.121 A 1.623 1.623 0 0 0 72.651 3.252 Z M 118.837 5.449 L 118.837 3.278 A 1.439 1.439 0 0 0 118.536 2.891 Q 118.232 2.62 117.792 2.599 A 1.578 1.578 0 0 0 117.716 2.597 Q 117.125 2.597 116.791 3.056 A 1.51 1.51 0 0 0 116.58 3.484 Q 116.514 3.689 116.483 3.939 A 3.955 3.955 0 0 0 116.455 4.425 Q 116.455 5.229 116.785 5.689 Q 117.114 6.148 117.708 6.148 A 1.32 1.32 0 0 0 118.217 6.054 Q 118.609 5.891 118.837 5.449 Z M 98.903 1.639 L 97.009 4.601 L 99 4.601 L 99 1.463 L 98.903 1.639 Z M 104.656 5.005 A 1.375 1.375 0 0 0 104.596 4.592 A 1.109 1.109 0 0 0 104.315 4.131 A 1.148 1.148 0 0 0 103.644 3.807 A 1.593 1.593 0 0 0 103.425 3.792 A 1.466 1.466 0 0 0 103.037 3.841 A 1.086 1.086 0 0 0 102.544 4.126 A 1.123 1.123 0 0 0 102.231 4.762 A 1.572 1.572 0 0 0 102.213 5.005 A 1.48 1.48 0 0 0 102.254 5.367 A 1.019 1.019 0 0 0 102.536 5.862 Q 102.842 6.158 103.375 6.173 A 2.053 2.053 0 0 0 103.434 6.174 Q 103.928 6.174 104.238 5.94 A 1.018 1.018 0 0 0 104.331 5.86 A 1.041 1.041 0 0 0 104.63 5.292 A 1.518 1.518 0 0 0 104.656 5.005 Z M 103.434 0.932 A 1.259 1.259 0 0 0 103.081 0.979 A 0.973 0.973 0 0 0 102.659 1.228 Q 102.362 1.525 102.362 2.035 A 1.325 1.325 0 0 0 102.407 2.387 A 0.994 0.994 0 0 0 102.654 2.823 A 0.974 0.974 0 0 0 103.216 3.108 A 1.382 1.382 0 0 0 103.434 3.125 A 1.279 1.279 0 0 0 103.779 3.08 A 0.952 0.952 0 0 0 104.214 2.823 A 1.018 1.018 0 0 0 104.489 2.26 A 1.426 1.426 0 0 0 104.506 2.035 A 1.282 1.282 0 0 0 104.456 1.668 A 1.013 1.013 0 0 0 104.203 1.239 Q 103.9 0.932 103.434 0.932 Z M 6.236 3.938 L 8.618 3.938 L 8.618 3.876 Q 8.592 3.417 8.421 3.111 A 1.13 1.13 0 0 0 8.284 2.916 A 0.983 0.983 0 0 0 7.629 2.584 A 1.39 1.39 0 0 0 7.475 2.575 A 1.106 1.106 0 0 0 6.953 2.698 A 1.14 1.14 0 0 0 6.649 2.933 A 1.417 1.417 0 0 0 6.372 3.379 Q 6.299 3.563 6.259 3.785 A 2.741 2.741 0 0 0 6.236 3.938 Z M 25.383 3.938 L 27.765 3.938 L 27.765 3.876 Q 27.739 3.417 27.568 3.111 A 1.13 1.13 0 0 0 27.431 2.916 A 0.983 0.983 0 0 0 26.776 2.584 A 1.39 1.39 0 0 0 26.622 2.575 A 1.106 1.106 0 0 0 26.1 2.698 A 1.14 1.14 0 0 0 25.796 2.933 A 1.417 1.417 0 0 0 25.519 3.379 Q 25.446 3.563 25.406 3.785 A 2.741 2.741 0 0 0 25.383 3.938 Z M 17.86 0.734 Q 17.86 0.536 17.98 0.4 Q 18.092 0.274 18.304 0.264 A 0.783 0.783 0 0 1 18.339 0.264 Q 18.576 0.264 18.699 0.4 A 0.474 0.474 0 0 1 18.821 0.703 A 0.614 0.614 0 0 1 18.822 0.734 A 0.523 0.523 0 0 1 18.797 0.9 A 0.442 0.442 0 0 1 18.699 1.063 Q 18.586 1.184 18.378 1.194 A 0.803 0.803 0 0 1 18.339 1.195 Q 18.166 1.195 18.055 1.126 A 0.362 0.362 0 0 1 17.98 1.063 A 0.456 0.456 0 0 1 17.862 0.788 A 0.605 0.605 0 0 1 17.86 0.734 Z M 113.652 0.734 Q 113.652 0.536 113.772 0.4 Q 113.884 0.274 114.096 0.264 A 0.783 0.783 0 0 1 114.131 0.264 Q 114.368 0.264 114.491 0.4 A 0.474 0.474 0 0 1 114.613 0.703 A 0.614 0.614 0 0 1 114.614 0.734 A 0.523 0.523 0 0 1 114.589 0.9 A 0.442 0.442 0 0 1 114.491 1.063 Q 114.378 1.184 114.17 1.194 A 0.803 0.803 0 0 1 114.131 1.195 Q 113.958 1.195 113.847 1.126 A 0.362 0.362 0 0 1 113.772 1.063 A 0.456 0.456 0 0 1 113.654 0.788 A 0.605 0.605 0 0 1 113.652 0.734 Z" vector-effect="non-scaling-stroke"/></g>
</svgversion="1.0" encoding="UTF-8"?>
<svg width="48px" height="48px" viewBox="0 0 48 48" version="1.1" xmlns="http://www.w3.org/2000/svg" xmlns:xlink="http://www.w3.org/1999/xlink">
    <title>Icon-Resource/Storage/Res_Amazon-S3-On-Outposts_48_Light</title>
    <g id="Icon-Resource/Storage/Res_Amazon-S3-On-Outposts_48" stroke="none" stroke-width="1" fill="none" fill-rule="evenodd">
        <path transform="translate(0vw, 0vh), scale(.65)" d="M42.416,22.305 C42.206,21.444 37.853,19.487 31.461,19.487 C25.069,19.487 20.717,21.444 20.507,22.305 L20.515,22.363 C20.858,23.228 25.154,24.754 31.461,24.754 C37.704,24.754 41.971,23.259 42.391,22.39 L42.397,22.338 L42.411,22.34 L42.416,22.305 Z M42.037,25.015 C39.16,26.343 34.353,26.754 31.461,26.754 C28.562,26.754 23.745,26.341 20.871,25.008 L21.901,32.656 C22.672,32.939 23.395,33.396 24.03,34.024 C24.396,34.386 24.717,34.799 24.989,35.26 C25.601,34.988 26.292,34.935 26.959,35.131 C28.064,35.459 28.84,36.371 29.114,37.631 C29.562,37.778 30.006,37.986 30.4,38.236 C31.768,39.101 32.461,40.234 32.461,41.604 C32.461,42.529 32.25,43.323 31.853,43.991 C33.695,43.965 35.516,43.771 37.015,43.425 C37.631,43.283 38.174,43.12 38.631,42.939 C39.336,42.66 39.631,42.413 39.709,42.313 C39.71,42.294 39.713,42.275 39.715,42.256 L40.785,34.305 C37.887,33.384 34.217,31.726 32.24,30.797 C32.021,30.923 31.77,31 31.5,31 C30.673,31 30,30.327 30,29.5 C30,28.673 30.673,28 31.5,28 C32.104,28 32.624,28.362 32.861,28.879 C34.43,29.619 38.141,31.324 41.057,32.29 L42.037,25.015 Z M30.461,41.604 C30.461,41.128 30.326,40.556 29.33,39.925 C28.938,39.677 28.457,39.487 28.042,39.417 C27.536,39.331 27.184,38.88 27.21,38.379 C27.143,37.676 26.84,37.181 26.391,37.049 C26.029,36.943 25.655,37.08 25.411,37.407 C25.189,37.701 24.821,37.846 24.462,37.795 C24.099,37.741 23.794,37.491 23.67,37.144 C23.425,36.461 23.073,35.889 22.625,35.447 C22.222,35.049 21.301,34.314 19.996,34.314 C19.537,34.314 19.031,34.405 18.483,34.633 C17.305,35.124 16.346,36.598 16.346,37.919 C16.346,38.071 16.354,38.22 16.373,38.366 C16.436,38.867 16.114,39.337 15.624,39.46 C14.82,39.662 13.862,40.211 13.862,41.681 C13.862,42.878 14.523,43.534 15.078,43.875 C15.212,43.957 15.368,44 15.531,44 L28.122,44.013 L28.127,44.013 C28.518,44.011 30.461,43.879 30.461,41.604 L30.461,41.604 Z M14.348,37.786 C14.406,35.702 15.834,33.571 17.714,32.787 C18.418,32.494 19.134,32.355 19.84,32.334 L18.543,22.709 L18.544,22.709 C18.543,22.708 18.543,22.707 18.543,22.705 L18.511,22.459 C18.505,22.416 18.502,22.373 18.502,22.329 C18.502,20.954 19.933,19.825 22.074,19 L22,19 L22,5 C22,4.449 21.552,4 21,4 L5,4 C4.448,4 4,4.449 4,5 L4,40 C4,40.552 4.448,41 5,41 L11.909,41 C12.111,39.523 12.98,38.38 14.348,37.786 L14.348,37.786 Z M15.529,46 C14.996,45.999 14.479,45.854 14.032,45.579 C13.401,45.192 12.444,44.389 12.049,43 L8,43 L8,46 L6,46 L6,43 L5,43 C3.346,43 2,41.655 2,40 L2,5 C2,3.346 3.346,2 5,2 L21,2 C22.654,2 24,3.346 24,5 L24,18.389 C26.234,17.807 28.887,17.487 31.461,17.487 C37.693,17.487 44.421,19.339 44.421,22.329 C44.421,22.373 44.418,22.416 44.412,22.459 L44.38,22.705 C44.375,22.747 44.367,22.788 44.356,22.829 C44.354,22.838 44.349,22.845 44.347,22.853 L43.312,30.529 C45.008,31.518 45.819,32.314 45.974,33.137 C46.058,33.586 45.941,34.025 45.648,34.374 C45.308,34.78 44.796,34.981 44.048,34.981 C43.674,34.981 43.233,34.925 42.733,34.825 L41.704,42.469 C41.663,43.418 40.877,44.202 39.366,44.799 C38.816,45.017 38.176,45.21 37.464,45.373 C35.716,45.778 33.584,46 31.461,46 L28.131,46 L15.529,46 Z M8,19 L19,19 L19,17 L8,17 L8,19 Z M8,24 L16,24 L16,22 L8,22 L8,24 Z M8,14 L19,14 L19,12 L8,12 L8,14 Z" id="Fill-4" fill="#000000"></path>
    </g><g transform="translate(12vw, 80vh)" id="svgGroup" stroke-linecap="round" fill-rule="evenodd" font-size="9pt" stroke="#000" stroke-width="0.25mm" fill="#000" style="stroke:#000;stroke-width:0.25mm;fill:#000"><path d="M 7.783 1.995 L 8.552 1.995 L 8.574 2.522 Q 9.097 1.907 9.985 1.907 A 2.009 2.009 0 0 1 10.495 1.968 A 1.244 1.244 0 0 1 11.342 2.672 A 1.801 1.801 0 0 1 11.96 2.118 A 1.65 1.65 0 0 1 12.489 1.937 A 2.209 2.209 0 0 1 12.859 1.907 A 2.119 2.119 0 0 1 13.503 1.997 Q 14.429 2.292 14.449 3.564 L 14.449 6.75 L 13.636 6.75 L 13.636 3.612 A 1.781 1.781 0 0 0 13.616 3.332 Q 13.592 3.185 13.542 3.067 A 0.758 0.758 0 0 0 13.403 2.85 A 0.68 0.68 0 0 0 13.151 2.682 Q 12.939 2.597 12.622 2.597 A 1.245 1.245 0 0 0 12.256 2.648 A 1.008 1.008 0 0 0 11.87 2.867 A 1.042 1.042 0 0 0 11.556 3.404 A 1.41 1.41 0 0 0 11.523 3.595 L 11.523 6.75 L 10.705 6.75 L 10.705 3.634 A 1.532 1.532 0 0 0 10.657 3.23 Q 10.53 2.768 10.073 2.643 A 1.457 1.457 0 0 0 9.69 2.597 Q 8.916 2.597 8.616 3.234 A 1.459 1.459 0 0 0 8.596 3.278 L 8.596 6.75 L 7.783 6.75 L 7.783 1.995 Z M 4.636 2.202 L 3.788 2.202 A 1.466 1.466 0 0 0 3.738 1.809 A 1.066 1.066 0 0 0 3.419 1.29 A 1.211 1.211 0 0 0 2.95 1.033 Q 2.698 0.958 2.378 0.958 A 2.286 2.286 0 0 0 1.998 0.988 Q 1.796 1.022 1.633 1.095 A 1.101 1.101 0 0 0 1.404 1.233 A 0.892 0.892 0 0 0 1.059 1.887 A 1.267 1.267 0 0 0 1.055 1.995 A 0.806 0.806 0 0 0 1.323 2.6 A 1.134 1.134 0 0 0 1.387 2.656 A 1.562 1.562 0 0 0 1.625 2.813 Q 1.955 2.993 2.516 3.151 A 8.228 8.228 0 0 1 2.981 3.295 Q 3.216 3.377 3.41 3.464 A 3.297 3.297 0 0 1 3.764 3.645 A 2.342 2.342 0 0 1 4.103 3.889 Q 4.293 4.056 4.415 4.248 A 1.45 1.45 0 0 1 4.432 4.276 A 1.498 1.498 0 0 1 4.628 4.832 A 1.948 1.948 0 0 1 4.65 5.124 A 1.606 1.606 0 0 1 4.527 5.76 Q 4.382 6.101 4.064 6.354 A 1.886 1.886 0 0 1 4.043 6.37 Q 3.437 6.838 2.422 6.838 A 3.023 3.023 0 0 1 1.281 6.623 A 2.917 2.917 0 0 1 1.191 6.585 A 2.383 2.383 0 0 1 0.713 6.307 A 1.874 1.874 0 0 1 0.31 5.893 A 1.689 1.689 0 0 1 0 4.896 L 0.848 4.896 A 1.261 1.261 0 0 0 0.918 5.323 A 1.074 1.074 0 0 0 1.277 5.812 Q 1.661 6.113 2.278 6.144 A 2.87 2.87 0 0 0 2.422 6.148 A 2.628 2.628 0 0 0 2.809 6.121 Q 3.005 6.092 3.164 6.031 A 1.129 1.129 0 0 0 3.445 5.875 Q 3.801 5.603 3.801 5.133 A 1.074 1.074 0 0 0 3.759 4.822 A 0.816 0.816 0 0 0 3.472 4.406 Q 3.142 4.148 2.277 3.898 Q 1.191 3.586 0.697 3.131 Q 0.202 2.676 0.202 2.008 Q 0.202 1.252 0.807 0.758 A 2.121 2.121 0 0 1 1.697 0.335 A 3.087 3.087 0 0 1 2.378 0.264 A 2.913 2.913 0 0 1 3.038 0.336 A 2.372 2.372 0 0 1 3.553 0.519 A 2.051 2.051 0 0 1 4.084 0.889 A 1.834 1.834 0 0 1 4.353 1.222 A 1.798 1.798 0 0 1 4.636 2.202 Z M 34.277 2.202 L 33.429 2.202 A 1.466 1.466 0 0 0 33.38 1.809 A 1.066 1.066 0 0 0 33.06 1.29 A 1.211 1.211 0 0 0 32.591 1.033 Q 32.339 0.958 32.019 0.958 A 2.286 2.286 0 0 0 31.639 0.988 Q 31.437 1.022 31.274 1.095 A 1.101 1.101 0 0 0 31.045 1.233 A 0.892 0.892 0 0 0 30.7 1.887 A 1.267 1.267 0 0 0 30.696 1.995 A 0.806 0.806 0 0 0 30.964 2.6 A 1.134 1.134 0 0 0 31.028 2.656 A 1.562 1.562 0 0 0 31.266 2.813 Q 31.596 2.993 32.157 3.151 A 8.228 8.228 0 0 1 32.622 3.295 Q 32.857 3.377 33.051 3.464 A 3.297 3.297 0 0 1 33.405 3.645 A 2.342 2.342 0 0 1 33.744 3.889 Q 33.934 4.056 34.056 4.248 A 1.45 1.45 0 0 1 34.073 4.276 A 1.498 1.498 0 0 1 34.269 4.832 A 1.948 1.948 0 0 1 34.291 5.124 A 1.606 1.606 0 0 1 34.168 5.76 Q 34.023 6.101 33.705 6.354 A 1.886 1.886 0 0 1 33.684 6.37 Q 33.078 6.838 32.063 6.838 A 3.023 3.023 0 0 1 30.922 6.623 A 2.917 2.917 0 0 1 30.832 6.585 A 2.383 2.383 0 0 1 30.354 6.307 A 1.874 1.874 0 0 1 29.951 5.893 A 1.689 1.689 0 0 1 29.641 4.896 L 30.489 4.896 A 1.261 1.261 0 0 0 30.559 5.323 A 1.074 1.074 0 0 0 30.918 5.812 Q 31.302 6.113 31.919 6.144 A 2.87 2.87 0 0 0 32.063 6.148 A 2.628 2.628 0 0 0 32.45 6.121 Q 32.646 6.092 32.805 6.031 A 1.129 1.129 0 0 0 33.087 5.875 Q 33.443 5.603 33.443 5.133 A 1.074 1.074 0 0 0 33.4 4.822 A 0.816 0.816 0 0 0 33.113 4.406 Q 32.783 4.148 31.918 3.898 Q 30.832 3.586 30.338 3.131 Q 29.843 2.676 29.843 2.008 Q 29.843 1.252 30.448 0.758 A 2.121 2.121 0 0 1 31.338 0.335 A 3.087 3.087 0 0 1 32.019 0.264 A 2.913 2.913 0 0 1 32.679 0.336 A 2.372 2.372 0 0 1 33.194 0.519 A 2.051 2.051 0 0 1 33.725 0.889 A 1.834 1.834 0 0 1 33.994 1.222 A 1.798 1.798 0 0 1 34.277 2.202 Z M 54.035 2.522 L 54.075 1.995 L 54.818 1.995 L 54.818 6.636 A 2.511 2.511 0 0 1 54.747 7.249 A 1.738 1.738 0 0 1 54.27 8.09 A 1.834 1.834 0 0 1 53.341 8.57 A 2.671 2.671 0 0 1 52.8 8.622 A 2.446 2.446 0 0 1 51.794 8.402 A 2.003 2.003 0 0 1 51.384 8.161 A 1.563 1.563 0 0 1 51.043 7.8 L 51.465 7.313 A 1.889 1.889 0 0 0 51.899 7.712 A 1.514 1.514 0 0 0 52.743 7.958 A 1.695 1.695 0 0 0 53.12 7.919 Q 53.389 7.858 53.583 7.702 A 1.037 1.037 0 0 0 53.668 7.625 A 1.09 1.09 0 0 0 53.945 7.132 Q 53.992 6.959 53.999 6.752 A 2.134 2.134 0 0 0 54 6.684 L 54 6.275 A 1.601 1.601 0 0 1 52.948 6.821 A 2.279 2.279 0 0 1 52.669 6.838 A 1.672 1.672 0 0 1 51.913 6.67 Q 51.591 6.51 51.342 6.197 A 2.14 2.14 0 0 1 51.317 6.166 A 2.316 2.316 0 0 1 50.934 5.386 Q 50.801 4.922 50.801 4.333 Q 50.801 3.472 51.109 2.884 A 2.096 2.096 0 0 1 51.315 2.564 Q 51.829 1.907 52.677 1.907 A 1.971 1.971 0 0 1 53.276 1.994 A 1.55 1.55 0 0 1 54.035 2.522 Z M 49.887 6.75 L 49.034 6.75 A 0.632 0.632 0 0 1 48.999 6.66 Q 48.968 6.562 48.943 6.41 A 3.997 3.997 0 0 1 48.92 6.249 Q 48.353 6.838 47.567 6.838 A 2.033 2.033 0 0 1 47.037 6.772 A 1.529 1.529 0 0 1 46.413 6.44 Q 45.963 6.042 45.963 5.432 Q 45.963 4.689 46.527 4.278 Q 47.092 3.867 48.116 3.867 L 48.907 3.867 L 48.907 3.494 A 1.152 1.152 0 0 0 48.871 3.199 A 0.828 0.828 0 0 0 48.652 2.815 Q 48.436 2.6 48.045 2.568 A 1.748 1.748 0 0 0 47.901 2.562 Q 47.465 2.562 47.171 2.782 Q 46.877 3.001 46.877 3.313 L 46.059 3.313 A 1.041 1.041 0 0 1 46.184 2.825 A 1.409 1.409 0 0 1 46.312 2.626 Q 46.565 2.294 46.997 2.101 A 2.249 2.249 0 0 1 47.773 1.913 A 2.669 2.669 0 0 1 47.949 1.907 A 2.65 2.65 0 0 1 48.466 1.955 Q 48.774 2.016 49.012 2.156 A 1.439 1.439 0 0 1 49.236 2.318 A 1.396 1.396 0 0 1 49.69 3.144 A 1.998 1.998 0 0 1 49.72 3.45 L 49.72 5.638 Q 49.72 6.073 49.794 6.39 A 1.707 1.707 0 0 0 49.887 6.68 L 49.887 6.75 Z M 19.692 4.351 L 19.692 4.425 Q 19.692 5.511 19.195 6.174 A 1.57 1.57 0 0 1 18.057 6.828 A 2.013 2.013 0 0 1 17.851 6.838 A 2.196 2.196 0 0 1 17.265 6.764 A 1.598 1.598 0 0 1 16.488 6.289 L 16.488 8.578 L 15.675 8.578 L 15.675 1.995 L 16.418 1.995 L 16.458 2.522 A 1.619 1.619 0 0 1 17.597 1.919 A 2.319 2.319 0 0 1 17.838 1.907 A 1.829 1.829 0 0 1 18.475 2.014 A 1.597 1.597 0 0 1 19.193 2.553 Q 19.692 3.199 19.692 4.351 Z M 22.702 4.504 L 22.702 4.355 A 3.17 3.17 0 0 1 22.779 3.646 A 2.581 2.581 0 0 1 22.973 3.092 A 2.191 2.191 0 0 1 23.42 2.466 A 2.033 2.033 0 0 1 23.728 2.221 Q 24.214 1.907 24.781 1.907 A 2.254 2.254 0 0 1 25.394 1.986 A 1.639 1.639 0 0 1 26.222 2.518 Q 26.736 3.129 26.736 4.267 L 26.736 4.605 L 23.515 4.605 A 2.111 2.111 0 0 0 23.586 5.114 A 1.516 1.516 0 0 0 23.926 5.741 A 1.282 1.282 0 0 0 24.86 6.173 A 1.652 1.652 0 0 0 24.926 6.174 A 1.763 1.763 0 0 0 25.254 6.145 Q 25.478 6.103 25.655 5.999 A 1.827 1.827 0 0 0 26.164 5.551 A 2.068 2.068 0 0 0 26.178 5.533 L 26.675 5.919 A 1.926 1.926 0 0 1 25.275 6.811 A 2.749 2.749 0 0 1 24.882 6.838 A 2.394 2.394 0 0 1 24.131 6.725 A 1.974 1.974 0 0 1 23.309 6.203 Q 22.702 5.568 22.702 4.504 Z M 55.837 4.504 L 55.837 4.355 A 3.17 3.17 0 0 1 55.913 3.646 A 2.581 2.581 0 0 1 56.107 3.092 A 2.191 2.191 0 0 1 56.555 2.466 A 2.033 2.033 0 0 1 56.863 2.221 Q 57.349 1.907 57.916 1.907 A 2.254 2.254 0 0 1 58.529 1.986 A 1.639 1.639 0 0 1 59.357 2.518 Q 59.871 3.129 59.871 4.267 L 59.871 4.605 L 56.65 4.605 A 2.111 2.111 0 0 0 56.721 5.114 A 1.516 1.516 0 0 0 57.061 5.741 A 1.282 1.282 0 0 0 57.995 6.173 A 1.652 1.652 0 0 0 58.061 6.174 A 1.763 1.763 0 0 0 58.389 6.145 Q 58.613 6.103 58.79 5.999 A 1.827 1.827 0 0 0 59.299 5.551 A 2.068 2.068 0 0 0 59.313 5.533 L 59.81 5.919 A 1.926 1.926 0 0 1 58.41 6.811 A 2.749 2.749 0 0 1 58.017 6.838 A 2.394 2.394 0 0 1 57.266 6.725 A 1.974 1.974 0 0 1 56.444 6.203 Q 55.837 5.568 55.837 4.504 Z M 35.534 0.844 L 36.347 0.844 L 36.347 1.995 L 37.235 1.995 L 37.235 2.624 L 36.347 2.624 L 36.347 5.572 Q 36.347 5.858 36.466 6.001 Q 36.585 6.144 36.87 6.144 A 1.046 1.046 0 0 0 36.968 6.138 Q 37.071 6.129 37.21 6.101 A 4.024 4.024 0 0 0 37.257 6.091 L 37.257 6.75 A 2.463 2.463 0 0 1 36.824 6.829 A 2.157 2.157 0 0 1 36.633 6.838 Q 36.186 6.838 35.919 6.616 A 0.856 0.856 0 0 1 35.811 6.508 Q 35.584 6.238 35.543 5.78 A 2.351 2.351 0 0 1 35.534 5.572 L 35.534 2.624 L 34.669 2.624 L 34.669 1.995 L 35.534 1.995 L 35.534 0.844 Z M 21.608 0 L 21.608 6.75 L 20.795 6.75 L 20.795 0 L 21.608 0 Z M 37.881 4.386 L 37.881 4.329 A 3.057 3.057 0 0 1 37.968 3.587 A 2.573 2.573 0 0 1 38.156 3.072 A 2.16 2.16 0 0 1 38.57 2.486 A 1.957 1.957 0 0 1 38.92 2.21 A 2.036 2.036 0 0 1 39.865 1.913 A 2.491 2.491 0 0 1 40.039 1.907 A 2.277 2.277 0 0 1 40.792 2.027 A 1.937 1.937 0 0 1 41.61 2.58 A 2.29 2.29 0 0 1 42.129 3.608 A 3.373 3.373 0 0 1 42.21 4.368 L 42.21 4.425 A 3.114 3.114 0 0 1 42.13 5.142 A 2.577 2.577 0 0 1 41.944 5.671 A 2.056 2.056 0 0 1 41.416 6.361 A 2.001 2.001 0 0 1 41.183 6.53 A 2.045 2.045 0 0 1 40.264 6.829 A 2.529 2.529 0 0 1 40.048 6.838 A 2.262 2.262 0 0 1 39.297 6.718 A 1.938 1.938 0 0 1 38.481 6.166 A 2.297 2.297 0 0 1 37.955 5.111 A 3.357 3.357 0 0 1 37.881 4.386 Z M 45.527 1.969 L 45.527 2.725 A 2.251 2.251 0 0 0 45.285 2.698 A 2.782 2.782 0 0 0 45.128 2.694 Q 44.35 2.694 44.058 3.338 A 1.445 1.445 0 0 0 44.042 3.375 L 44.042 6.75 L 43.229 6.75 L 43.229 1.995 L 44.02 1.995 L 44.033 2.544 Q 44.414 1.938 45.096 1.909 A 1.636 1.636 0 0 1 45.167 1.907 Q 45.404 1.907 45.527 1.969 Z M 6.486 1.995 L 6.486 6.75 L 5.673 6.75 L 5.673 1.995 L 6.486 1.995 Z M 38.698 4.425 A 2.772 2.772 0 0 0 38.746 4.954 Q 38.806 5.264 38.944 5.51 A 1.545 1.545 0 0 0 39.065 5.695 Q 39.432 6.174 40.048 6.174 A 1.269 1.269 0 0 0 40.537 6.083 Q 40.816 5.967 41.019 5.706 A 1.471 1.471 0 0 0 41.032 5.689 A 1.648 1.648 0 0 0 41.287 5.171 Q 41.355 4.945 41.381 4.672 A 3.655 3.655 0 0 0 41.397 4.329 A 2.687 2.687 0 0 0 41.345 3.789 Q 41.278 3.459 41.12 3.2 A 1.586 1.586 0 0 0 41.025 3.061 A 1.231 1.231 0 0 0 40.61 2.705 Q 40.357 2.575 40.039 2.575 Q 39.449 2.575 39.083 3.035 A 1.515 1.515 0 0 0 39.068 3.054 A 1.589 1.589 0 0 0 38.815 3.552 Q 38.746 3.772 38.718 4.039 A 3.676 3.676 0 0 0 38.698 4.425 Z M 16.488 3.252 L 16.488 5.524 Q 16.853 6.174 17.605 6.174 A 1.184 1.184 0 0 0 18.07 6.086 Q 18.327 5.977 18.516 5.735 A 1.403 1.403 0 0 0 18.534 5.711 A 1.501 1.501 0 0 0 18.751 5.28 Q 18.819 5.073 18.851 4.818 A 3.91 3.91 0 0 0 18.879 4.333 Q 18.879 3.746 18.696 3.339 A 1.503 1.503 0 0 0 18.536 3.063 A 1.086 1.086 0 0 0 17.75 2.605 A 1.414 1.414 0 0 0 17.596 2.597 Q 16.935 2.597 16.57 3.121 A 1.623 1.623 0 0 0 16.488 3.252 Z M 54 5.449 L 54 3.278 A 1.439 1.439 0 0 0 53.699 2.891 Q 53.396 2.62 52.955 2.599 A 1.578 1.578 0 0 0 52.88 2.597 Q 52.288 2.597 51.954 3.056 A 1.51 1.51 0 0 0 51.743 3.484 Q 51.677 3.689 51.646 3.939 A 3.955 3.955 0 0 0 51.618 4.425 Q 51.618 5.229 51.948 5.689 Q 52.277 6.148 52.871 6.148 A 1.32 1.32 0 0 0 53.38 6.054 Q 53.772 5.891 54 5.449 Z M 48.907 5.418 L 48.907 4.443 L 48.27 4.443 Q 46.776 4.443 46.776 5.317 Q 46.776 5.7 47.03 5.915 A 0.893 0.893 0 0 0 47.444 6.108 A 1.259 1.259 0 0 0 47.685 6.13 A 1.429 1.429 0 0 0 48.41 5.933 A 1.335 1.335 0 0 0 48.706 5.705 A 1.108 1.108 0 0 0 48.907 5.418 Z M 23.542 3.938 L 25.923 3.938 L 25.923 3.876 Q 25.897 3.417 25.727 3.111 A 1.13 1.13 0 0 0 25.59 2.916 A 0.983 0.983 0 0 0 24.935 2.584 A 1.39 1.39 0 0 0 24.781 2.575 A 1.106 1.106 0 0 0 24.258 2.698 A 1.14 1.14 0 0 0 23.955 2.933 A 1.417 1.417 0 0 0 23.678 3.379 Q 23.604 3.563 23.565 3.785 A 2.741 2.741 0 0 0 23.542 3.938 Z M 56.676 3.938 L 59.058 3.938 L 59.058 3.876 Q 59.032 3.417 58.862 3.111 A 1.13 1.13 0 0 0 58.724 2.916 A 0.983 0.983 0 0 0 58.07 2.584 A 1.39 1.39 0 0 0 57.916 2.575 A 1.106 1.106 0 0 0 57.393 2.698 A 1.14 1.14 0 0 0 57.09 2.933 A 1.417 1.417 0 0 0 56.813 3.379 Q 56.739 3.563 56.699 3.785 A 2.741 2.741 0 0 0 56.676 3.938 Z M 5.608 0.734 Q 5.608 0.536 5.728 0.4 Q 5.84 0.274 6.052 0.264 A 0.783 0.783 0 0 1 6.087 0.264 Q 6.324 0.264 6.447 0.4 A 0.474 0.474 0 0 1 6.569 0.703 A 0.614 0.614 0 0 1 6.57 0.734 A 0.523 0.523 0 0 1 6.545 0.9 A 0.442 0.442 0 0 1 6.447 1.063 Q 6.334 1.184 6.126 1.194 A 0.803 0.803 0 0 1 6.087 1.195 Q 5.914 1.195 5.803 1.126 A 0.362 0.362 0 0 1 5.728 1.063 A 0.456 0.456 0 0 1 5.61 0.788 A 0.605 0.605 0 0 1 5.608 0.734 Z" vector-effect="non-scaling-stroke"/></g><g transform="translate(12vw, 90vh)" id="svgGroup" stroke-linecap="round" fill-rule="evenodd" font-size="9pt" stroke="#000" stroke-width="0.25mm" fill="#000" style="stroke:#000;stroke-width:0.25mm;fill:#000"><path d="M 4.636 2.202 L 3.788 2.202 A 1.466 1.466 0 0 0 3.738 1.809 A 1.066 1.066 0 0 0 3.419 1.29 A 1.211 1.211 0 0 0 2.95 1.033 Q 2.698 0.958 2.378 0.958 A 2.286 2.286 0 0 0 1.998 0.988 Q 1.796 1.022 1.633 1.095 A 1.101 1.101 0 0 0 1.404 1.233 A 0.892 0.892 0 0 0 1.059 1.887 A 1.267 1.267 0 0 0 1.055 1.995 A 0.806 0.806 0 0 0 1.323 2.6 A 1.134 1.134 0 0 0 1.387 2.656 A 1.562 1.562 0 0 0 1.625 2.813 Q 1.955 2.993 2.516 3.151 A 8.228 8.228 0 0 1 2.981 3.295 Q 3.216 3.377 3.41 3.464 A 3.297 3.297 0 0 1 3.764 3.645 A 2.342 2.342 0 0 1 4.103 3.889 Q 4.293 4.056 4.415 4.248 A 1.45 1.45 0 0 1 4.432 4.276 A 1.498 1.498 0 0 1 4.628 4.832 A 1.948 1.948 0 0 1 4.65 5.124 A 1.606 1.606 0 0 1 4.527 5.76 Q 4.382 6.101 4.064 6.354 A 1.886 1.886 0 0 1 4.043 6.37 Q 3.437 6.838 2.422 6.838 A 3.023 3.023 0 0 1 1.281 6.623 A 2.917 2.917 0 0 1 1.191 6.585 A 2.383 2.383 0 0 1 0.713 6.307 A 1.874 1.874 0 0 1 0.31 5.893 A 1.689 1.689 0 0 1 0 4.896 L 0.848 4.896 A 1.261 1.261 0 0 0 0.918 5.323 A 1.074 1.074 0 0 0 1.277 5.812 Q 1.661 6.113 2.278 6.144 A 2.87 2.87 0 0 0 2.422 6.148 A 2.628 2.628 0 0 0 2.809 6.121 Q 3.005 6.092 3.164 6.031 A 1.129 1.129 0 0 0 3.445 5.875 Q 3.801 5.603 3.801 5.133 A 1.074 1.074 0 0 0 3.759 4.822 A 0.816 0.816 0 0 0 3.472 4.406 Q 3.142 4.148 2.277 3.898 Q 1.191 3.586 0.697 3.131 Q 0.202 2.676 0.202 2.008 Q 0.202 1.252 0.807 0.758 A 2.121 2.121 0 0 1 1.697 0.335 A 3.087 3.087 0 0 1 2.378 0.264 A 2.913 2.913 0 0 1 3.038 0.336 A 2.372 2.372 0 0 1 3.553 0.519 A 2.051 2.051 0 0 1 4.084 0.889 A 1.834 1.834 0 0 1 4.353 1.222 A 1.798 1.798 0 0 1 4.636 2.202 Z M 36.119 2.202 L 35.271 2.202 A 1.466 1.466 0 0 0 35.221 1.809 A 1.066 1.066 0 0 0 34.902 1.29 A 1.211 1.211 0 0 0 34.432 1.033 Q 34.18 0.958 33.86 0.958 A 2.286 2.286 0 0 0 33.48 0.988 Q 33.278 1.022 33.116 1.095 A 1.101 1.101 0 0 0 32.887 1.233 A 0.892 0.892 0 0 0 32.542 1.887 A 1.267 1.267 0 0 0 32.537 1.995 A 0.806 0.806 0 0 0 32.805 2.6 A 1.134 1.134 0 0 0 32.869 2.656 A 1.562 1.562 0 0 0 33.107 2.813 Q 33.438 2.993 33.998 3.151 A 8.228 8.228 0 0 1 34.463 3.295 Q 34.698 3.377 34.893 3.464 A 3.297 3.297 0 0 1 35.246 3.645 A 2.342 2.342 0 0 1 35.585 3.889 Q 35.775 4.056 35.897 4.248 A 1.45 1.45 0 0 1 35.914 4.276 A 1.498 1.498 0 0 1 36.111 4.832 A 1.948 1.948 0 0 1 36.132 5.124 A 1.606 1.606 0 0 1 36.01 5.76 Q 35.864 6.101 35.546 6.354 A 1.886 1.886 0 0 1 35.526 6.37 Q 34.919 6.838 33.904 6.838 A 3.023 3.023 0 0 1 32.763 6.623 A 2.917 2.917 0 0 1 32.673 6.585 A 2.383 2.383 0 0 1 32.195 6.307 A 1.874 1.874 0 0 1 31.792 5.893 A 1.689 1.689 0 0 1 31.483 4.896 L 32.331 4.896 A 1.261 1.261 0 0 0 32.4 5.323 A 1.074 1.074 0 0 0 32.759 5.812 Q 33.144 6.113 33.76 6.144 A 2.87 2.87 0 0 0 33.904 6.148 A 2.628 2.628 0 0 0 34.291 6.121 Q 34.487 6.092 34.646 6.031 A 1.129 1.129 0 0 0 34.928 5.875 Q 35.284 5.603 35.284 5.133 A 1.074 1.074 0 0 0 35.241 4.822 A 0.816 0.816 0 0 0 34.954 4.406 Q 34.625 4.148 33.759 3.898 Q 32.673 3.586 32.179 3.131 Q 31.685 2.676 31.685 2.008 Q 31.685 1.252 32.289 0.758 A 2.121 2.121 0 0 1 33.179 0.335 A 3.087 3.087 0 0 1 33.86 0.264 A 2.913 2.913 0 0 1 34.52 0.336 A 2.372 2.372 0 0 1 35.036 0.519 A 2.051 2.051 0 0 1 35.567 0.889 A 1.834 1.834 0 0 1 35.835 1.222 A 1.798 1.798 0 0 1 36.119 2.202 Z M 38.184 3.819 L 38.184 3.155 L 38.795 3.155 Q 39.253 3.148 39.555 2.961 A 1.045 1.045 0 0 0 39.7 2.852 A 0.97 0.97 0 0 0 40.02 2.225 A 1.373 1.373 0 0 0 40.03 2.057 A 1.626 1.626 0 0 0 39.974 1.611 Q 39.832 1.112 39.324 0.98 A 1.645 1.645 0 0 0 38.909 0.932 A 1.495 1.495 0 0 0 38.547 0.973 A 1.044 1.044 0 0 0 38.068 1.233 A 1.004 1.004 0 0 0 37.766 1.844 A 1.405 1.405 0 0 0 37.754 2.03 L 36.941 2.03 A 1.698 1.698 0 0 1 37.095 1.3 A 1.68 1.68 0 0 1 37.496 0.767 A 1.924 1.924 0 0 1 38.549 0.288 A 2.615 2.615 0 0 1 38.909 0.264 A 2.758 2.758 0 0 1 39.485 0.32 Q 39.853 0.399 40.132 0.586 A 1.593 1.593 0 0 1 40.329 0.743 A 1.57 1.57 0 0 1 40.795 1.589 A 2.336 2.336 0 0 1 40.843 2.074 A 1.332 1.332 0 0 1 40.691 2.686 A 1.725 1.725 0 0 1 40.573 2.883 A 1.624 1.624 0 0 1 39.873 3.452 A 1.952 1.952 0 0 1 39.837 3.467 A 1.81 1.81 0 0 1 40.272 3.668 A 1.44 1.44 0 0 1 40.652 4.021 Q 40.94 4.408 40.94 4.966 Q 40.94 5.827 40.377 6.333 A 1.935 1.935 0 0 1 39.42 6.793 A 2.738 2.738 0 0 1 38.914 6.838 A 2.716 2.716 0 0 1 38.267 6.765 A 1.936 1.936 0 0 1 37.448 6.35 Q 36.883 5.862 36.883 5.063 L 37.701 5.063 A 1.255 1.255 0 0 0 37.751 5.426 A 0.978 0.978 0 0 0 38.03 5.871 A 1.113 1.113 0 0 0 38.545 6.135 A 1.643 1.643 0 0 0 38.914 6.174 Q 39.503 6.174 39.815 5.867 Q 40.102 5.583 40.125 5.073 A 2.011 2.011 0 0 0 40.127 4.983 A 1.451 1.451 0 0 0 40.087 4.634 A 0.962 0.962 0 0 0 39.784 4.126 A 1.13 1.13 0 0 0 39.396 3.91 Q 39.138 3.824 38.795 3.819 L 38.184 3.819 Z M 121.694 0 L 121.694 2.571 A 1.767 1.767 0 0 1 122.36 2.053 A 1.832 1.832 0 0 1 123.1 1.907 A 1.905 1.905 0 0 1 123.733 2.004 Q 124.575 2.3 124.618 3.506 A 3.668 3.668 0 0 1 124.62 3.608 L 124.62 6.75 L 123.807 6.75 L 123.807 3.604 A 1.837 1.837 0 0 0 123.785 3.324 Q 123.735 3.017 123.572 2.843 Q 123.386 2.645 123.033 2.606 A 1.66 1.66 0 0 0 122.854 2.597 A 1.253 1.253 0 0 0 122.439 2.664 A 1.123 1.123 0 0 0 122.159 2.808 A 1.432 1.432 0 0 0 121.694 3.362 L 121.694 6.75 L 120.881 6.75 L 120.881 0 L 121.694 0 Z M 118.872 2.522 L 118.912 1.995 L 119.654 1.995 L 119.654 6.636 A 2.511 2.511 0 0 1 119.584 7.249 A 1.738 1.738 0 0 1 119.107 8.09 A 1.834 1.834 0 0 1 118.177 8.57 A 2.671 2.671 0 0 1 117.637 8.622 A 2.446 2.446 0 0 1 116.631 8.402 A 2.003 2.003 0 0 1 116.221 8.161 A 1.563 1.563 0 0 1 115.88 7.8 L 116.301 7.313 A 1.889 1.889 0 0 0 116.736 7.712 A 1.514 1.514 0 0 0 117.58 7.958 A 1.695 1.695 0 0 0 117.957 7.919 Q 118.226 7.858 118.42 7.702 A 1.037 1.037 0 0 0 118.505 7.625 A 1.09 1.09 0 0 0 118.782 7.132 Q 118.829 6.959 118.836 6.752 A 2.134 2.134 0 0 0 118.837 6.684 L 118.837 6.275 A 1.601 1.601 0 0 1 117.785 6.821 A 2.279 2.279 0 0 1 117.506 6.838 A 1.672 1.672 0 0 1 116.75 6.67 Q 116.428 6.51 116.179 6.197 A 2.14 2.14 0 0 1 116.154 6.166 A 2.316 2.316 0 0 1 115.771 5.386 Q 115.638 4.922 115.638 4.333 Q 115.638 3.472 115.946 2.884 A 2.096 2.096 0 0 1 116.152 2.564 Q 116.666 1.907 117.514 1.907 A 1.971 1.971 0 0 1 118.113 1.994 A 1.55 1.55 0 0 1 118.872 2.522 Z M 85.557 3.393 L 84.74 3.393 Q 84.74 3.059 84.456 2.817 Q 84.173 2.575 83.742 2.575 Q 83.298 2.575 83.048 2.769 A 0.653 0.653 0 0 0 82.873 2.967 Q 82.8 3.098 82.798 3.263 A 0.771 0.771 0 0 0 82.798 3.274 A 0.588 0.588 0 0 0 82.828 3.467 A 0.48 0.48 0 0 0 83.03 3.718 A 1.093 1.093 0 0 0 83.181 3.796 Q 83.345 3.868 83.6 3.937 A 6.581 6.581 0 0 0 83.872 4.003 A 6.318 6.318 0 0 1 84.28 4.108 Q 84.616 4.208 84.859 4.329 A 1.901 1.901 0 0 1 85.114 4.481 Q 85.251 4.579 85.349 4.692 A 1.06 1.06 0 0 1 85.419 4.783 A 1.024 1.024 0 0 1 85.581 5.191 A 1.388 1.388 0 0 1 85.601 5.432 Q 85.601 6.069 85.091 6.453 Q 84.609 6.817 83.855 6.837 A 3.337 3.337 0 0 1 83.769 6.838 A 2.746 2.746 0 0 1 83.234 6.788 A 2.124 2.124 0 0 1 82.758 6.636 A 1.771 1.771 0 0 1 82.324 6.358 A 1.54 1.54 0 0 1 82.07 6.071 Q 81.822 5.708 81.822 5.287 L 82.635 5.287 A 0.932 0.932 0 0 0 82.708 5.612 A 0.827 0.827 0 0 0 82.962 5.935 A 1.072 1.072 0 0 0 83.365 6.128 Q 83.519 6.167 83.701 6.173 A 2.013 2.013 0 0 0 83.769 6.174 A 1.863 1.863 0 0 0 84.064 6.152 Q 84.226 6.126 84.357 6.07 A 0.941 0.941 0 0 0 84.509 5.988 A 0.689 0.689 0 0 0 84.674 5.837 A 0.554 0.554 0 0 0 84.788 5.489 A 0.698 0.698 0 0 0 84.752 5.258 A 0.581 0.581 0 0 0 84.54 4.977 A 1.05 1.05 0 0 0 84.371 4.878 Q 84.182 4.788 83.887 4.712 A 5.392 5.392 0 0 0 83.674 4.663 A 6.342 6.342 0 0 1 83.313 4.575 Q 82.943 4.473 82.694 4.346 Q 82.395 4.194 82.225 3.994 A 1.017 1.017 0 0 1 82.158 3.907 Q 81.985 3.652 81.985 3.3 A 1.206 1.206 0 0 1 82.384 2.396 A 1.694 1.694 0 0 1 82.479 2.312 A 1.752 1.752 0 0 1 83.262 1.952 A 2.471 2.471 0 0 1 83.742 1.907 A 2.559 2.559 0 0 1 84.306 1.966 A 1.757 1.757 0 0 1 85.054 2.325 Q 85.557 2.742 85.557 3.393 Z M 93.138 3.393 L 92.32 3.393 Q 92.32 3.059 92.037 2.817 Q 91.754 2.575 91.323 2.575 Q 90.879 2.575 90.629 2.769 A 0.653 0.653 0 0 0 90.454 2.967 Q 90.38 3.098 90.378 3.263 A 0.771 0.771 0 0 0 90.378 3.274 A 0.588 0.588 0 0 0 90.408 3.467 A 0.48 0.48 0 0 0 90.611 3.718 A 1.093 1.093 0 0 0 90.761 3.796 Q 90.925 3.868 91.181 3.937 A 6.581 6.581 0 0 0 91.453 4.003 A 6.318 6.318 0 0 1 91.86 4.108 Q 92.197 4.208 92.439 4.329 A 1.901 1.901 0 0 1 92.695 4.481 Q 92.832 4.579 92.929 4.692 A 1.06 1.06 0 0 1 92.999 4.783 A 1.024 1.024 0 0 1 93.162 5.191 A 1.388 1.388 0 0 1 93.182 5.432 Q 93.182 6.069 92.672 6.453 Q 92.19 6.817 91.436 6.837 A 3.337 3.337 0 0 1 91.349 6.838 A 2.746 2.746 0 0 1 90.815 6.788 A 2.124 2.124 0 0 1 90.339 6.636 A 1.771 1.771 0 0 1 89.905 6.358 A 1.54 1.54 0 0 1 89.651 6.071 Q 89.402 5.708 89.402 5.287 L 90.215 5.287 A 0.932 0.932 0 0 0 90.289 5.612 A 0.827 0.827 0 0 0 90.543 5.935 A 1.072 1.072 0 0 0 90.945 6.128 Q 91.1 6.167 91.281 6.173 A 2.013 2.013 0 0 0 91.349 6.174 A 1.863 1.863 0 0 0 91.645 6.152 Q 91.806 6.126 91.938 6.07 A 0.941 0.941 0 0 0 92.09 5.988 A 0.689 0.689 0 0 0 92.254 5.837 A 0.554 0.554 0 0 0 92.369 5.489 A 0.698 0.698 0 0 0 92.332 5.258 A 0.581 0.581 0 0 0 92.121 4.977 A 1.05 1.05 0 0 0 91.952 4.878 Q 91.763 4.788 91.468 4.712 A 5.392 5.392 0 0 0 91.255 4.663 A 6.342 6.342 0 0 1 90.894 4.575 Q 90.524 4.473 90.275 4.346 Q 89.976 4.194 89.806 3.994 A 1.017 1.017 0 0 1 89.739 3.907 Q 89.565 3.652 89.565 3.3 A 1.206 1.206 0 0 1 89.964 2.396 A 1.694 1.694 0 0 1 90.059 2.312 A 1.752 1.752 0 0 1 90.842 1.952 A 2.471 2.471 0 0 1 91.323 1.907 A 2.559 2.559 0 0 1 91.886 1.966 A 1.757 1.757 0 0 1 92.635 2.325 Q 93.138 2.742 93.138 3.393 Z M 50.555 1.995 L 51.324 1.995 L 51.35 2.593 Q 51.887 1.918 52.746 1.907 A 2.234 2.234 0 0 1 52.774 1.907 A 1.905 1.905 0 0 1 53.408 2.004 Q 54.249 2.3 54.292 3.506 A 3.668 3.668 0 0 1 54.295 3.608 L 54.295 6.75 L 53.482 6.75 L 53.482 3.604 A 1.837 1.837 0 0 0 53.459 3.324 Q 53.409 3.017 53.246 2.843 Q 53.06 2.645 52.707 2.606 A 1.66 1.66 0 0 0 52.528 2.597 A 1.253 1.253 0 0 0 52.114 2.664 A 1.123 1.123 0 0 0 51.834 2.808 A 1.432 1.432 0 0 0 51.368 3.362 L 51.368 6.75 L 50.555 6.75 L 50.555 1.995 Z M 66.889 6.75 L 66.872 6.28 A 1.526 1.526 0 0 1 66.046 6.775 Q 65.795 6.836 65.498 6.838 A 2.996 2.996 0 0 1 65.479 6.838 A 2.086 2.086 0 0 1 65.019 6.79 Q 64.588 6.693 64.321 6.396 A 1.41 1.41 0 0 1 64.038 5.899 Q 63.921 5.556 63.919 5.089 L 63.919 1.995 L 64.732 1.995 L 64.732 5.067 Q 64.732 6.037 65.439 6.137 A 1.229 1.229 0 0 0 65.61 6.148 A 1.927 1.927 0 0 0 66.061 6.099 Q 66.624 5.964 66.85 5.454 L 66.85 1.995 L 67.663 1.995 L 67.663 6.75 L 66.889 6.75 Z M 23.067 5.251 L 23.836 5.251 A 1.432 1.432 0 0 1 23.637 5.901 A 1.772 1.772 0 0 1 23.555 6.029 A 1.828 1.828 0 0 1 22.946 6.574 A 2.169 2.169 0 0 1 22.863 6.618 A 1.997 1.997 0 0 1 21.946 6.838 A 2.346 2.346 0 0 1 21.249 6.739 A 1.839 1.839 0 0 1 20.402 6.19 A 2.171 2.171 0 0 1 19.938 5.31 Q 19.828 4.909 19.828 4.417 L 19.828 4.28 A 3.24 3.24 0 0 1 19.892 3.624 A 2.57 2.57 0 0 1 20.083 3.045 A 2.008 2.008 0 0 1 20.523 2.431 A 1.892 1.892 0 0 1 20.815 2.206 A 1.943 1.943 0 0 1 21.571 1.934 A 2.529 2.529 0 0 1 21.942 1.907 A 2.196 2.196 0 0 1 22.59 1.999 A 1.786 1.786 0 0 1 23.271 2.386 A 1.693 1.693 0 0 1 23.83 3.535 A 2.239 2.239 0 0 1 23.836 3.63 L 23.067 3.63 Q 23.032 3.168 22.718 2.872 A 1.078 1.078 0 0 0 21.989 2.576 A 1.402 1.402 0 0 0 21.942 2.575 A 1.374 1.374 0 0 0 21.521 2.637 A 1.081 1.081 0 0 0 20.982 3.021 A 1.469 1.469 0 0 0 20.755 3.468 Q 20.689 3.674 20.662 3.923 A 3.514 3.514 0 0 0 20.641 4.311 L 20.641 4.465 Q 20.641 5.287 20.98 5.73 A 1.1 1.1 0 0 0 21.766 6.165 A 1.611 1.611 0 0 0 21.946 6.174 A 1.171 1.171 0 0 0 22.707 5.911 A 1.007 1.007 0 0 0 22.951 5.629 A 0.914 0.914 0 0 0 23.067 5.251 Z M 75.854 4.351 L 75.854 4.425 Q 75.854 5.511 75.358 6.174 A 1.57 1.57 0 0 1 74.219 6.828 A 2.013 2.013 0 0 1 74.013 6.838 A 2.196 2.196 0 0 1 73.427 6.764 A 1.598 1.598 0 0 1 72.651 6.289 L 72.651 8.578 L 71.838 8.578 L 71.838 1.995 L 72.58 1.995 L 72.62 2.522 A 1.619 1.619 0 0 1 73.759 1.919 A 2.319 2.319 0 0 1 74 1.907 A 1.829 1.829 0 0 1 74.637 2.014 A 1.597 1.597 0 0 1 75.355 2.553 Q 75.854 3.199 75.854 4.351 Z M 5.397 4.504 L 5.397 4.355 A 3.17 3.17 0 0 1 5.473 3.646 A 2.581 2.581 0 0 1 5.667 3.092 A 2.191 2.191 0 0 1 6.114 2.466 A 2.033 2.033 0 0 1 6.423 2.221 Q 6.908 1.907 7.475 1.907 A 2.254 2.254 0 0 1 8.088 1.986 A 1.639 1.639 0 0 1 8.917 2.518 Q 9.431 3.129 9.431 4.267 L 9.431 4.605 L 6.21 4.605 A 2.111 2.111 0 0 0 6.281 5.114 A 1.516 1.516 0 0 0 6.621 5.741 A 1.282 1.282 0 0 0 7.555 6.173 A 1.652 1.652 0 0 0 7.62 6.174 A 1.763 1.763 0 0 0 7.948 6.145 Q 8.172 6.103 8.35 5.999 A 1.827 1.827 0 0 0 8.859 5.551 A 2.068 2.068 0 0 0 8.873 5.533 L 9.369 5.919 A 1.926 1.926 0 0 1 7.97 6.811 A 2.749 2.749 0 0 1 7.576 6.838 A 2.394 2.394 0 0 1 6.825 6.725 A 1.974 1.974 0 0 1 6.003 6.203 Q 5.397 5.568 5.397 4.504 Z M 24.544 4.504 L 24.544 4.355 A 3.17 3.17 0 0 1 24.62 3.646 A 2.581 2.581 0 0 1 24.814 3.092 A 2.191 2.191 0 0 1 25.261 2.466 A 2.033 2.033 0 0 1 25.57 2.221 Q 26.055 1.907 26.622 1.907 A 2.254 2.254 0 0 1 27.235 1.986 A 1.639 1.639 0 0 1 28.064 2.518 Q 28.578 3.129 28.578 4.267 L 28.578 4.605 L 25.357 4.605 A 2.111 2.111 0 0 0 25.428 5.114 A 1.516 1.516 0 0 0 25.767 5.741 A 1.282 1.282 0 0 0 26.702 6.173 A 1.652 1.652 0 0 0 26.767 6.174 A 1.763 1.763 0 0 0 27.095 6.145 Q 27.319 6.103 27.497 5.999 A 1.827 1.827 0 0 0 28.006 5.551 A 2.068 2.068 0 0 0 28.02 5.533 L 28.516 5.919 A 1.926 1.926 0 0 1 27.117 6.811 A 2.749 2.749 0 0 1 26.723 6.838 A 2.394 2.394 0 0 1 25.972 6.725 A 1.974 1.974 0 0 1 25.15 6.203 Q 24.544 5.568 24.544 4.504 Z M 109.78 0.352 L 109.78 6.06 L 112.812 6.06 L 112.812 6.75 L 108.932 6.75 L 108.932 0.352 L 109.78 0.352 Z M 13.856 1.995 L 15.065 5.647 L 16.242 1.995 L 17.073 1.995 L 15.368 6.75 L 14.748 6.75 L 13.026 1.995 L 13.856 1.995 Z M 99.818 0.352 L 99.818 4.601 L 100.705 4.601 L 100.705 5.265 L 99.818 5.265 L 99.818 6.75 L 99 6.75 L 99 5.265 L 96.087 5.265 L 96.087 4.786 L 98.952 0.352 L 99.818 0.352 Z M 105.216 2.592 A 1.544 1.544 0 0 0 105.319 2.021 A 2.226 2.226 0 0 0 105.298 1.707 A 1.566 1.566 0 0 0 104.799 0.738 A 1.754 1.754 0 0 0 104.033 0.333 A 2.443 2.443 0 0 0 103.434 0.264 A 2.539 2.539 0 0 0 102.925 0.312 A 1.767 1.767 0 0 0 102.068 0.738 Q 101.549 1.213 101.549 2.021 A 1.808 1.808 0 0 0 101.549 2.058 A 1.499 1.499 0 0 0 101.795 2.87 A 1.626 1.626 0 0 0 101.957 3.077 A 1.726 1.726 0 0 0 102.467 3.454 A 2.119 2.119 0 0 0 102.368 3.5 A 1.738 1.738 0 0 0 101.683 4.087 A 1.629 1.629 0 0 0 101.4 5.023 A 2.272 2.272 0 0 0 101.409 5.237 A 1.63 1.63 0 0 0 101.955 6.344 A 1.895 1.895 0 0 0 102.806 6.771 A 2.797 2.797 0 0 0 103.434 6.838 A 2.796 2.796 0 0 0 104.033 6.777 A 1.925 1.925 0 0 0 104.909 6.346 A 1.578 1.578 0 0 0 105.383 5.62 A 1.989 1.989 0 0 0 105.469 5.023 A 1.581 1.581 0 0 0 105.177 4.087 Q 104.884 3.674 104.383 3.458 Q 104.814 3.248 105.067 2.874 A 1.449 1.449 0 0 0 105.216 2.592 Z M 49.417 3.353 L 49.417 3.757 A 4.729 4.729 0 0 1 49.352 4.56 A 3.455 3.455 0 0 1 49.1 5.399 A 2.648 2.648 0 0 1 48.704 6.033 A 2.226 2.226 0 0 1 48.204 6.469 A 2.362 2.362 0 0 1 47.185 6.82 A 2.993 2.993 0 0 1 46.85 6.838 A 2.618 2.618 0 0 1 46.044 6.717 A 2.313 2.313 0 0 1 45.51 6.467 A 2.392 2.392 0 0 1 44.71 5.615 A 2.953 2.953 0 0 1 44.602 5.407 A 3.426 3.426 0 0 1 44.325 4.489 A 4.535 4.535 0 0 1 44.271 3.814 L 44.271 3.353 A 4.52 4.52 0 0 1 44.346 2.51 A 3.461 3.461 0 0 1 44.591 1.723 Q 44.912 1.015 45.499 0.639 A 2.389 2.389 0 0 1 46.655 0.27 A 2.92 2.92 0 0 1 46.841 0.264 A 2.702 2.702 0 0 1 47.618 0.372 A 2.318 2.318 0 0 1 48.197 0.635 A 2.31 2.31 0 0 1 48.971 1.456 A 2.912 2.912 0 0 1 49.1 1.712 A 3.525 3.525 0 0 1 49.36 2.604 A 4.763 4.763 0 0 1 49.417 3.353 Z M 62.798 3.353 L 62.798 3.757 A 4.729 4.729 0 0 1 62.733 4.56 A 3.455 3.455 0 0 1 62.482 5.399 A 2.648 2.648 0 0 1 62.085 6.033 A 2.226 2.226 0 0 1 61.585 6.469 A 2.362 2.362 0 0 1 60.566 6.82 A 2.993 2.993 0 0 1 60.232 6.838 A 2.618 2.618 0 0 1 59.425 6.717 A 2.313 2.313 0 0 1 58.891 6.467 A 2.392 2.392 0 0 1 58.091 5.615 A 2.953 2.953 0 0 1 57.984 5.407 A 3.426 3.426 0 0 1 57.707 4.489 A 4.535 4.535 0 0 1 57.652 3.814 L 57.652 3.353 A 4.52 4.52 0 0 1 57.727 2.51 A 3.461 3.461 0 0 1 57.973 1.723 Q 58.294 1.015 58.88 0.639 A 2.389 2.389 0 0 1 60.036 0.27 A 2.92 2.92 0 0 1 60.223 0.264 A 2.702 2.702 0 0 1 60.999 0.372 A 2.318 2.318 0 0 1 61.579 0.635 A 2.31 2.31 0 0 1 62.352 1.456 A 2.912 2.912 0 0 1 62.482 1.712 A 3.525 3.525 0 0 1 62.742 2.604 A 4.763 4.763 0 0 1 62.798 3.353 Z M 69.188 0.844 L 70.001 0.844 L 70.001 1.995 L 70.888 1.995 L 70.888 2.624 L 70.001 2.624 L 70.001 5.572 Q 70.001 5.858 70.119 6.001 Q 70.238 6.144 70.524 6.144 A 1.046 1.046 0 0 0 70.621 6.138 Q 70.724 6.129 70.864 6.101 A 4.024 4.024 0 0 0 70.91 6.091 L 70.91 6.75 A 2.463 2.463 0 0 1 70.478 6.829 A 2.157 2.157 0 0 1 70.286 6.838 Q 69.839 6.838 69.573 6.616 A 0.856 0.856 0 0 1 69.465 6.508 Q 69.237 6.238 69.196 5.78 A 2.351 2.351 0 0 1 69.188 5.572 L 69.188 2.624 L 68.322 2.624 L 68.322 1.995 L 69.188 1.995 L 69.188 0.844 Z M 86.95 0.844 L 87.763 0.844 L 87.763 1.995 L 88.651 1.995 L 88.651 2.624 L 87.763 2.624 L 87.763 5.572 Q 87.763 5.858 87.882 6.001 Q 88.001 6.144 88.286 6.144 A 1.046 1.046 0 0 0 88.384 6.138 Q 88.487 6.129 88.626 6.101 A 4.024 4.024 0 0 0 88.673 6.091 L 88.673 6.75 A 2.463 2.463 0 0 1 88.24 6.829 A 2.157 2.157 0 0 1 88.049 6.838 Q 87.602 6.838 87.335 6.616 A 0.856 0.856 0 0 1 87.227 6.508 Q 87 6.238 86.959 5.78 A 2.351 2.351 0 0 1 86.95 5.572 L 86.95 2.624 L 86.085 2.624 L 86.085 1.995 L 86.95 1.995 L 86.95 0.844 Z M 126.128 0.844 L 126.941 0.844 L 126.941 1.995 L 127.828 1.995 L 127.828 2.624 L 126.941 2.624 L 126.941 5.572 Q 126.941 5.858 127.059 6.001 Q 127.178 6.144 127.464 6.144 A 1.046 1.046 0 0 0 127.561 6.138 Q 127.664 6.129 127.804 6.101 A 4.024 4.024 0 0 0 127.85 6.091 L 127.85 6.75 A 2.463 2.463 0 0 1 127.417 6.829 A 2.157 2.157 0 0 1 127.226 6.838 Q 126.779 6.838 126.512 6.616 A 0.856 0.856 0 0 1 126.404 6.508 Q 126.177 6.238 126.136 5.78 A 2.351 2.351 0 0 1 126.128 5.572 L 126.128 2.624 L 125.262 2.624 L 125.262 1.995 L 126.128 1.995 L 126.128 0.844 Z M 76.672 4.386 L 76.672 4.329 A 3.057 3.057 0 0 1 76.758 3.587 A 2.573 2.573 0 0 1 76.946 3.072 A 2.16 2.16 0 0 1 77.361 2.486 A 1.957 1.957 0 0 1 77.711 2.21 A 2.036 2.036 0 0 1 78.655 1.913 A 2.491 2.491 0 0 1 78.829 1.907 A 2.277 2.277 0 0 1 79.583 2.027 A 1.937 1.937 0 0 1 80.4 2.58 A 2.29 2.29 0 0 1 80.919 3.608 A 3.373 3.373 0 0 1 81 4.368 L 81 4.425 A 3.114 3.114 0 0 1 80.921 5.142 A 2.577 2.577 0 0 1 80.734 5.671 A 2.056 2.056 0 0 1 80.207 6.361 A 2.001 2.001 0 0 1 79.974 6.53 A 2.045 2.045 0 0 1 79.054 6.829 A 2.529 2.529 0 0 1 78.838 6.838 A 2.262 2.262 0 0 1 78.088 6.718 A 1.938 1.938 0 0 1 77.271 6.166 A 2.297 2.297 0 0 1 76.746 5.111 A 3.357 3.357 0 0 1 76.672 4.386 Z M 12.67 1.969 L 12.67 2.725 A 2.251 2.251 0 0 0 12.427 2.698 A 2.782 2.782 0 0 0 12.27 2.694 Q 11.492 2.694 11.2 3.338 A 1.445 1.445 0 0 0 11.184 3.375 L 11.184 6.75 L 10.371 6.75 L 10.371 1.995 L 11.162 1.995 L 11.175 2.544 Q 11.556 1.938 12.238 1.909 A 1.636 1.636 0 0 1 12.309 1.907 Q 12.547 1.907 12.67 1.969 Z M 48.577 3.819 L 48.577 3.344 A 4.551 4.551 0 0 0 48.533 2.685 Q 48.484 2.35 48.38 2.078 A 1.944 1.944 0 0 0 48.12 1.597 Q 47.663 0.989 46.841 0.989 Q 46.042 0.989 45.582 1.597 A 2.112 2.112 0 0 0 45.258 2.246 Q 45.17 2.527 45.134 2.864 A 4.531 4.531 0 0 0 45.11 3.287 L 45.11 3.757 A 4.254 4.254 0 0 0 45.16 4.43 Q 45.217 4.789 45.341 5.079 A 2.039 2.039 0 0 0 45.574 5.491 A 1.472 1.472 0 0 0 46.64 6.11 A 1.931 1.931 0 0 0 46.85 6.122 A 1.79 1.79 0 0 0 47.409 6.039 A 1.423 1.423 0 0 0 48.116 5.526 A 2.017 2.017 0 0 0 48.417 4.932 Q 48.57 4.462 48.577 3.819 Z M 61.959 3.819 L 61.959 3.344 A 4.551 4.551 0 0 0 61.914 2.685 Q 61.865 2.35 61.762 2.078 A 1.944 1.944 0 0 0 61.502 1.597 Q 61.045 0.989 60.223 0.989 Q 59.423 0.989 58.964 1.597 A 2.112 2.112 0 0 0 58.639 2.246 Q 58.551 2.527 58.516 2.864 A 4.531 4.531 0 0 0 58.491 3.287 L 58.491 3.757 A 4.254 4.254 0 0 0 58.541 4.43 Q 58.599 4.789 58.722 5.079 A 2.039 2.039 0 0 0 58.955 5.491 A 1.472 1.472 0 0 0 60.022 6.11 A 1.931 1.931 0 0 0 60.232 6.122 A 1.79 1.79 0 0 0 60.79 6.039 A 1.423 1.423 0 0 0 61.497 5.526 A 2.017 2.017 0 0 0 61.798 4.932 Q 61.951 4.462 61.959 3.819 Z M 18.738 1.995 L 18.738 6.75 L 17.925 6.75 L 17.925 1.995 L 18.738 1.995 Z M 114.53 1.995 L 114.53 6.75 L 113.717 6.75 L 113.717 1.995 L 114.53 1.995 Z M 77.489 4.425 A 2.772 2.772 0 0 0 77.536 4.954 Q 77.597 5.264 77.734 5.51 A 1.545 1.545 0 0 0 77.856 5.695 Q 78.223 6.174 78.838 6.174 A 1.269 1.269 0 0 0 79.327 6.083 Q 79.607 5.967 79.809 5.706 A 1.471 1.471 0 0 0 79.822 5.689 A 1.648 1.648 0 0 0 80.077 5.171 Q 80.146 4.945 80.172 4.672 A 3.655 3.655 0 0 0 80.187 4.329 A 2.687 2.687 0 0 0 80.136 3.789 Q 80.068 3.459 79.911 3.2 A 1.586 1.586 0 0 0 79.816 3.061 A 1.231 1.231 0 0 0 79.401 2.705 Q 79.148 2.575 78.829 2.575 Q 78.239 2.575 77.873 3.035 A 1.515 1.515 0 0 0 77.858 3.054 A 1.589 1.589 0 0 0 77.606 3.552 Q 77.536 3.772 77.508 4.039 A 3.676 3.676 0 0 0 77.489 4.425 Z M 72.651 3.252 L 72.651 5.524 Q 73.015 6.174 73.767 6.174 A 1.184 1.184 0 0 0 74.232 6.086 Q 74.489 5.977 74.678 5.735 A 1.403 1.403 0 0 0 74.696 5.711 A 1.501 1.501 0 0 0 74.913 5.28 Q 74.981 5.073 75.013 4.818 A 3.91 3.91 0 0 0 75.041 4.333 Q 75.041 3.746 74.858 3.339 A 1.503 1.503 0 0 0 74.698 3.063 A 1.086 1.086 0 0 0 73.912 2.605 A 1.414 1.414 0 0 0 73.758 2.597 Q 73.097 2.597 72.732 3.121 A 1.623 1.623 0 0 0 72.651 3.252 Z M 118.837 5.449 L 118.837 3.278 A 1.439 1.439 0 0 0 118.536 2.891 Q 118.232 2.62 117.792 2.599 A 1.578 1.578 0 0 0 117.716 2.597 Q 117.125 2.597 116.791 3.056 A 1.51 1.51 0 0 0 116.58 3.484 Q 116.514 3.689 116.483 3.939 A 3.955 3.955 0 0 0 116.455 4.425 Q 116.455 5.229 116.785 5.689 Q 117.114 6.148 117.708 6.148 A 1.32 1.32 0 0 0 118.217 6.054 Q 118.609 5.891 118.837 5.449 Z M 98.903 1.639 L 97.009 4.601 L 99 4.601 L 99 1.463 L 98.903 1.639 Z M 104.656 5.005 A 1.375 1.375 0 0 0 104.596 4.592 A 1.109 1.109 0 0 0 104.315 4.131 A 1.148 1.148 0 0 0 103.644 3.807 A 1.593 1.593 0 0 0 103.425 3.792 A 1.466 1.466 0 0 0 103.037 3.841 A 1.086 1.086 0 0 0 102.544 4.126 A 1.123 1.123 0 0 0 102.231 4.762 A 1.572 1.572 0 0 0 102.213 5.005 A 1.48 1.48 0 0 0 102.254 5.367 A 1.019 1.019 0 0 0 102.536 5.862 Q 102.842 6.158 103.375 6.173 A 2.053 2.053 0 0 0 103.434 6.174 Q 103.928 6.174 104.238 5.94 A 1.018 1.018 0 0 0 104.331 5.86 A 1.041 1.041 0 0 0 104.63 5.292 A 1.518 1.518 0 0 0 104.656 5.005 Z M 103.434 0.932 A 1.259 1.259 0 0 0 103.081 0.979 A 0.973 0.973 0 0 0 102.659 1.228 Q 102.362 1.525 102.362 2.035 A 1.325 1.325 0 0 0 102.407 2.387 A 0.994 0.994 0 0 0 102.654 2.823 A 0.974 0.974 0 0 0 103.216 3.108 A 1.382 1.382 0 0 0 103.434 3.125 A 1.279 1.279 0 0 0 103.779 3.08 A 0.952 0.952 0 0 0 104.214 2.823 A 1.018 1.018 0 0 0 104.489 2.26 A 1.426 1.426 0 0 0 104.506 2.035 A 1.282 1.282 0 0 0 104.456 1.668 A 1.013 1.013 0 0 0 104.203 1.239 Q 103.9 0.932 103.434 0.932 Z M 6.236 3.938 L 8.618 3.938 L 8.618 3.876 Q 8.592 3.417 8.421 3.111 A 1.13 1.13 0 0 0 8.284 2.916 A 0.983 0.983 0 0 0 7.629 2.584 A 1.39 1.39 0 0 0 7.475 2.575 A 1.106 1.106 0 0 0 6.953 2.698 A 1.14 1.14 0 0 0 6.649 2.933 A 1.417 1.417 0 0 0 6.372 3.379 Q 6.299 3.563 6.259 3.785 A 2.741 2.741 0 0 0 6.236 3.938 Z M 25.383 3.938 L 27.765 3.938 L 27.765 3.876 Q 27.739 3.417 27.568 3.111 A 1.13 1.13 0 0 0 27.431 2.916 A 0.983 0.983 0 0 0 26.776 2.584 A 1.39 1.39 0 0 0 26.622 2.575 A 1.106 1.106 0 0 0 26.1 2.698 A 1.14 1.14 0 0 0 25.796 2.933 A 1.417 1.417 0 0 0 25.519 3.379 Q 25.446 3.563 25.406 3.785 A 2.741 2.741 0 0 0 25.383 3.938 Z M 17.86 0.734 Q 17.86 0.536 17.98 0.4 Q 18.092 0.274 18.304 0.264 A 0.783 0.783 0 0 1 18.339 0.264 Q 18.576 0.264 18.699 0.4 A 0.474 0.474 0 0 1 18.821 0.703 A 0.614 0.614 0 0 1 18.822 0.734 A 0.523 0.523 0 0 1 18.797 0.9 A 0.442 0.442 0 0 1 18.699 1.063 Q 18.586 1.184 18.378 1.194 A 0.803 0.803 0 0 1 18.339 1.195 Q 18.166 1.195 18.055 1.126 A 0.362 0.362 0 0 1 17.98 1.063 A 0.456 0.456 0 0 1 17.862 0.788 A 0.605 0.605 0 0 1 17.86 0.734 Z M 113.652 0.734 Q 113.652 0.536 113.772 0.4 Q 113.884 0.274 114.096 0.264 A 0.783 0.783 0 0 1 114.131 0.264 Q 114.368 0.264 114.491 0.4 A 0.474 0.474 0 0 1 114.613 0.703 A 0.614 0.614 0 0 1 114.614 0.734 A 0.523 0.523 0 0 1 114.589 0.9 A 0.442 0.442 0 0 1 114.491 1.063 Q 114.378 1.184 114.17 1.194 A 0.803 0.803 0 0 1 114.131 1.195 Q 113.958 1.195 113.847 1.126 A 0.362 0.362 0 0 1 113.772 1.063 A 0.456 0.456 0 0 1 113.654 0.788 A 0.605 0.605 0 0 1 113.652 0.734 Z" vector-effect="non-scaling-stroke"/></g>
</svg>