<?xml version="1.0" encoding="UTF-8"?>
<svg width="48px" height="48px" viewBox="0 0 48 48" version="1.1" xmlns="http://www.w3.org/2000/svg" xmlns:xlink="http://www.w3.org/1999/xlink">
    <title>Icon-Resource/General-Resource/Res_Internet-alt2_48_Dark</title>
    <g id="Icon-Resource/General-Resource/Res_Internet-alt2_48" stroke="none" stroke-width="1" fill="none" fill-rule="evenodd">
        <path transform="translate(12.000000, 8.000000), scale(.65)" d="M30.997,42.2326342 L30.997,14.7586342 L28.997,14.7586342 L28.997,42.1226342 L25.556,38.6256342 L24.13,40.0276342 L29.325,45.3066342 C29.513,45.4976342 29.768,45.6046342 30.034,45.6056342 L30.038,45.6056342 C30.303,45.6056342 30.558,45.5006342 30.745,45.3126342 L36.004,40.0546342 L34.59,38.6406342 L30.997,42.2326342 Z M22.35,20.7246342 L23.764,19.3106342 L18.506,14.0516342 C18.317,13.8636342 18.018,13.7446342 17.795,13.7586342 C17.528,13.7596342 17.273,13.8676342 17.086,14.0576342 L11.89,19.3366342 L13.315,20.7396342 L16.757,17.2436342 L16.757,30.5546342 L18.757,30.5546342 L18.757,17.1306342 L22.35,20.7246342 Z M27.401,28.5806342 L20.335,28.5736342 L20.333,30.5736342 L27.399,30.5806342 L27.401,28.5806342 Z M46.025,22.1296342 C46.025,24.6186342 45.27,26.6286342 43.783,28.1056342 C41.332,30.5406342 37.777,30.5896342 37.496,30.5896342 L37.483,30.5896342 L32.721,30.5856342 L32.723,28.5856342 L37.491,28.5896342 C37.53,28.5896342 40.488,28.5696342 42.385,26.6756342 C43.474,25.5886342 44.025,24.0596342 44.025,22.1296342 C44.025,20.9496342 43.701,19.1796342 40.895,17.4606342 C39.425,16.5586342 38.042,16.2596342 37.516,16.1726342 C36.986,16.0866342 36.622,15.5976342 36.684,15.0696342 C36.507,12.9736342 35.525,11.5076342 33.981,11.0406342 C32.646,10.6356342 31.218,11.1096342 30.337,12.2456342 C30.116,12.5326342 29.763,12.6786342 29.395,12.6216342 C29.036,12.5666342 28.735,12.3216342 28.609,11.9806342 C27.992,10.3166342 27.1,8.91863416 25.955,7.82363416 C24.544,6.47463416 20.678,3.57163416 15.204,5.78563416 C12.068,7.05063416 9.611,10.6886342 9.611,14.0676342 C9.611,14.4446342 9.635,14.8226342 9.682,15.1906342 C9.746,15.7016342 9.413,16.1776342 8.911,16.2916342 C8.893,16.2956342 8.873,16.2996342 8.853,16.3026342 C7.007,16.7706342 4,18.1676342 4,22.2976342 C4,25.4426342 5.799,27.1816342 7.308,28.0876342 C7.823,28.3966342 8.419,28.5606342 9.029,28.5616342 L15.181,28.5676342 L15.179,30.5676342 L9.027,30.5616342 C8.056,30.5606342 7.105,30.2976342 6.279,29.8026342 C4.681,28.8436342 2,26.5926342 2,22.2976342 C2,17.2536342 5.461,15.3056342 7.623,14.5826342 C7.615,14.4106342 7.611,14.2396342 7.611,14.0676342 C7.611,9.86363416 10.554,5.50463416 14.456,3.92963416 C19.001,2.09463416 23.816,3.00963416 27.338,6.37863416 C28.37,7.36663416 29.227,8.55063416 29.896,9.91463416 C31.233,8.94663416 32.937,8.63663416 34.561,9.12663416 C36.751,9.79063416 38.233,11.7226342 38.615,14.3606342 C39.75,14.6426342 40.927,15.1326342 41.94,15.7546342 C44.689,17.4396342 46.025,19.5256342 46.025,22.1296342 L46.025,22.1296342 Z" id="Fill-12" fill="#000000"></path>
    </g><g transform="translate(25, 83)" id="svgGroup" stroke-linecap="round" fill-rule="evenodd" font-size="9pt" stroke="#000" stroke-width="0.25mm" fill="#000" style="stroke:#000;stroke-width:0.25mm;fill:#000"><path d="M 3.74 6.399 L 2.351 3.81 L 0.848 3.81 L 0.848 6.399 L 0 6.399 L 0 0 L 2.118 0 A 3.809 3.809 0 0 1 2.76 0.051 Q 3.102 0.109 3.376 0.236 A 1.789 1.789 0 0 1 3.781 0.492 A 1.588 1.588 0 0 1 4.307 1.381 A 2.453 2.453 0 0 1 4.364 1.925 A 1.864 1.864 0 0 1 4.273 2.516 A 1.64 1.64 0 0 1 4.041 2.966 A 1.849 1.849 0 0 1 3.382 3.523 A 2.342 2.342 0 0 1 3.142 3.63 L 4.645 6.346 L 4.645 6.399 L 3.74 6.399 Z M 13.724 3.041 L 12.907 3.041 Q 12.907 2.707 12.623 2.465 Q 12.34 2.224 11.909 2.224 Q 11.465 2.224 11.215 2.417 A 0.653 0.653 0 0 0 11.04 2.616 Q 10.967 2.747 10.964 2.912 A 0.771 0.771 0 0 0 10.964 2.922 A 0.588 0.588 0 0 0 10.994 3.115 A 0.48 0.48 0 0 0 11.197 3.366 A 1.093 1.093 0 0 0 11.348 3.445 Q 11.512 3.517 11.767 3.586 A 6.581 6.581 0 0 0 12.039 3.652 A 6.318 6.318 0 0 1 12.446 3.757 Q 12.783 3.856 13.025 3.977 A 1.901 1.901 0 0 1 13.281 4.13 Q 13.418 4.227 13.516 4.341 A 1.06 1.06 0 0 1 13.586 4.432 A 1.024 1.024 0 0 1 13.748 4.839 A 1.388 1.388 0 0 1 13.768 5.08 Q 13.768 5.717 13.258 6.102 Q 12.776 6.466 12.022 6.485 A 3.337 3.337 0 0 1 11.936 6.486 A 2.746 2.746 0 0 1 11.401 6.437 A 2.124 2.124 0 0 1 10.925 6.284 A 1.771 1.771 0 0 1 10.491 6.006 A 1.54 1.54 0 0 1 10.237 5.72 Q 9.989 5.357 9.989 4.935 L 10.802 4.935 A 0.932 0.932 0 0 0 10.875 5.26 A 0.827 0.827 0 0 0 11.129 5.583 A 1.072 1.072 0 0 0 11.531 5.776 Q 11.686 5.816 11.867 5.822 A 2.013 2.013 0 0 0 11.936 5.823 A 1.863 1.863 0 0 0 12.231 5.801 Q 12.393 5.775 12.524 5.718 A 0.941 0.941 0 0 0 12.676 5.636 A 0.689 0.689 0 0 0 12.841 5.486 A 0.554 0.554 0 0 0 12.955 5.137 A 0.698 0.698 0 0 0 12.919 4.907 A 0.581 0.581 0 0 0 12.707 4.625 A 1.05 1.05 0 0 0 12.538 4.527 Q 12.349 4.437 12.054 4.361 A 5.392 5.392 0 0 0 11.841 4.311 A 6.342 6.342 0 0 1 11.48 4.224 Q 11.11 4.122 10.861 3.995 Q 10.562 3.843 10.392 3.643 A 1.017 1.017 0 0 1 10.325 3.555 Q 10.151 3.3 10.151 2.949 A 1.206 1.206 0 0 1 10.55 2.044 A 1.694 1.694 0 0 1 10.646 1.96 A 1.752 1.752 0 0 1 11.429 1.6 A 2.471 2.471 0 0 1 11.909 1.556 A 2.559 2.559 0 0 1 12.473 1.614 A 1.757 1.757 0 0 1 13.221 1.973 Q 13.724 2.391 13.724 3.041 Z M 19.503 1.644 L 20.272 1.644 L 20.298 2.241 Q 20.835 1.567 21.695 1.556 A 2.234 2.234 0 0 1 21.722 1.556 A 1.905 1.905 0 0 1 22.356 1.652 Q 23.198 1.949 23.24 3.154 A 3.668 3.668 0 0 1 23.243 3.256 L 23.243 6.399 L 22.43 6.399 L 22.43 3.252 A 1.837 1.837 0 0 0 22.407 2.972 Q 22.357 2.665 22.195 2.492 Q 22.008 2.293 21.655 2.255 A 1.66 1.66 0 0 0 21.476 2.246 A 1.253 1.253 0 0 0 21.062 2.312 A 1.123 1.123 0 0 0 20.782 2.457 A 1.432 1.432 0 0 0 20.316 3.01 L 20.316 6.399 L 19.503 6.399 L 19.503 1.644 Z M 35.222 1.644 L 35.991 1.644 L 36.018 2.241 Q 36.554 1.567 37.414 1.556 A 2.234 2.234 0 0 1 37.441 1.556 A 1.905 1.905 0 0 1 38.075 1.652 Q 38.917 1.949 38.96 3.154 A 3.668 3.668 0 0 1 38.962 3.256 L 38.962 6.399 L 38.149 6.399 L 38.149 3.252 A 1.837 1.837 0 0 0 38.127 2.972 Q 38.076 2.665 37.914 2.492 Q 37.728 2.293 37.374 2.255 A 1.66 1.66 0 0 0 37.195 2.246 A 1.253 1.253 0 0 0 36.781 2.312 A 1.123 1.123 0 0 0 36.501 2.457 A 1.432 1.432 0 0 0 36.035 3.01 L 36.035 6.399 L 35.222 6.399 L 35.222 1.644 Z M 5.212 4.153 L 5.212 4.003 A 3.17 3.17 0 0 1 5.288 3.295 A 2.581 2.581 0 0 1 5.482 2.74 A 2.191 2.191 0 0 1 5.93 2.115 A 2.033 2.033 0 0 1 6.238 1.87 Q 6.724 1.556 7.291 1.556 A 2.254 2.254 0 0 1 7.904 1.635 A 1.639 1.639 0 0 1 8.732 2.167 Q 9.246 2.777 9.246 3.916 L 9.246 4.254 L 6.025 4.254 A 2.111 2.111 0 0 0 6.096 4.762 A 1.516 1.516 0 0 0 6.436 5.39 A 1.282 1.282 0 0 0 7.37 5.822 A 1.652 1.652 0 0 0 7.436 5.823 A 1.763 1.763 0 0 0 7.764 5.794 Q 7.988 5.751 8.165 5.647 A 1.827 1.827 0 0 0 8.674 5.199 A 2.068 2.068 0 0 0 8.688 5.181 L 9.185 5.568 A 1.926 1.926 0 0 1 7.785 6.459 A 2.749 2.749 0 0 1 7.392 6.486 A 2.394 2.394 0 0 1 6.64 6.374 A 1.974 1.974 0 0 1 5.818 5.851 Q 5.212 5.216 5.212 4.153 Z M 27.202 4.153 L 27.202 4.003 A 3.17 3.17 0 0 1 27.278 3.295 A 2.581 2.581 0 0 1 27.472 2.74 A 2.191 2.191 0 0 1 27.92 2.115 A 2.033 2.033 0 0 1 28.228 1.87 Q 28.714 1.556 29.281 1.556 A 2.254 2.254 0 0 1 29.894 1.635 A 1.639 1.639 0 0 1 30.722 2.167 Q 31.236 2.777 31.236 3.916 L 31.236 4.254 L 28.015 4.254 A 2.111 2.111 0 0 0 28.086 4.762 A 1.516 1.516 0 0 0 28.426 5.39 A 1.282 1.282 0 0 0 29.36 5.822 A 1.652 1.652 0 0 0 29.426 5.823 A 1.763 1.763 0 0 0 29.754 5.794 Q 29.978 5.751 30.155 5.647 A 1.827 1.827 0 0 0 30.664 5.199 A 2.068 2.068 0 0 0 30.678 5.181 L 31.175 5.568 A 1.926 1.926 0 0 1 29.775 6.459 A 2.749 2.749 0 0 1 29.382 6.486 A 2.394 2.394 0 0 1 28.631 6.374 A 1.974 1.974 0 0 1 27.809 5.851 Q 27.202 5.216 27.202 4.153 Z M 39.981 4.153 L 39.981 4.003 A 3.17 3.17 0 0 1 40.058 3.295 A 2.581 2.581 0 0 1 40.252 2.74 A 2.191 2.191 0 0 1 40.699 2.115 A 2.033 2.033 0 0 1 41.008 1.87 Q 41.493 1.556 42.06 1.556 A 2.254 2.254 0 0 1 42.673 1.635 A 1.639 1.639 0 0 1 43.501 2.167 Q 44.016 2.777 44.016 3.916 L 44.016 4.254 L 40.794 4.254 A 2.111 2.111 0 0 0 40.865 4.762 A 1.516 1.516 0 0 0 41.205 5.39 A 1.282 1.282 0 0 0 42.139 5.822 A 1.652 1.652 0 0 0 42.205 5.823 A 1.763 1.763 0 0 0 42.533 5.794 Q 42.757 5.751 42.935 5.647 A 1.827 1.827 0 0 0 43.443 5.199 A 2.068 2.068 0 0 0 43.458 5.181 L 43.954 5.568 A 1.926 1.926 0 0 1 42.554 6.459 A 2.749 2.749 0 0 1 42.161 6.486 A 2.394 2.394 0 0 1 41.41 6.374 A 1.974 1.974 0 0 1 40.588 5.851 Q 39.981 5.216 39.981 4.153 Z M 24.759 0.492 L 25.572 0.492 L 25.572 1.644 L 26.459 1.644 L 26.459 2.272 L 25.572 2.272 L 25.572 5.221 Q 25.572 5.506 25.69 5.649 Q 25.809 5.792 26.095 5.792 A 1.046 1.046 0 0 0 26.192 5.787 Q 26.295 5.777 26.435 5.749 A 4.024 4.024 0 0 0 26.481 5.739 L 26.481 6.399 A 2.463 2.463 0 0 1 26.049 6.478 A 2.157 2.157 0 0 1 25.857 6.486 Q 25.41 6.486 25.144 6.265 A 0.856 0.856 0 0 1 25.036 6.157 Q 24.808 5.886 24.768 5.429 A 2.351 2.351 0 0 1 24.759 5.221 L 24.759 2.272 L 23.893 2.272 L 23.893 1.644 L 24.759 1.644 L 24.759 0.492 Z M 45.246 0.492 L 46.059 0.492 L 46.059 1.644 L 46.947 1.644 L 46.947 2.272 L 46.059 2.272 L 46.059 5.221 Q 46.059 5.506 46.178 5.649 Q 46.296 5.792 46.582 5.792 A 1.046 1.046 0 0 0 46.68 5.787 Q 46.782 5.777 46.922 5.749 A 4.024 4.024 0 0 0 46.969 5.739 L 46.969 6.399 A 2.463 2.463 0 0 1 46.536 6.478 A 2.157 2.157 0 0 1 46.345 6.486 Q 45.898 6.486 45.631 6.265 A 0.856 0.856 0 0 1 45.523 6.157 Q 45.296 5.886 45.255 5.429 A 2.351 2.351 0 0 1 45.246 5.221 L 45.246 2.272 L 44.38 2.272 L 44.38 1.644 L 45.246 1.644 L 45.246 0.492 Z M 34.475 1.617 L 34.475 2.373 A 2.251 2.251 0 0 0 34.232 2.347 A 2.782 2.782 0 0 0 34.075 2.342 Q 33.297 2.342 33.006 2.987 A 1.445 1.445 0 0 0 32.99 3.024 L 32.99 6.399 L 32.177 6.399 L 32.177 1.644 L 32.968 1.644 L 32.981 2.193 Q 33.361 1.587 34.044 1.557 A 1.636 1.636 0 0 1 34.115 1.556 Q 34.352 1.556 34.475 1.617 Z M 18.088 0 L 18.088 6.399 L 17.244 6.399 L 17.244 0 L 18.088 0 Z M 0.848 0.694 L 0.848 3.12 L 2.145 3.12 Q 2.685 3.12 3.035 2.88 A 1.174 1.174 0 0 0 3.144 2.795 A 1.069 1.069 0 0 0 3.51 2.058 A 1.486 1.486 0 0 0 3.516 1.925 Q 3.516 1.382 3.22 1.071 A 1 1 0 0 0 3.162 1.015 Q 2.808 0.699 2.14 0.694 L 0.848 0.694 Z M 6.051 3.586 L 8.433 3.586 L 8.433 3.524 Q 8.407 3.066 8.236 2.76 A 1.13 1.13 0 0 0 8.099 2.564 A 0.983 0.983 0 0 0 7.445 2.232 A 1.39 1.39 0 0 0 7.291 2.224 A 1.106 1.106 0 0 0 6.768 2.347 A 1.14 1.14 0 0 0 6.464 2.582 A 1.417 1.417 0 0 0 6.188 3.028 Q 6.114 3.212 6.074 3.434 A 2.741 2.741 0 0 0 6.051 3.586 Z M 28.042 3.586 L 30.423 3.586 L 30.423 3.524 Q 30.397 3.066 30.227 2.76 A 1.13 1.13 0 0 0 30.089 2.564 A 0.983 0.983 0 0 0 29.435 2.232 A 1.39 1.39 0 0 0 29.281 2.224 A 1.106 1.106 0 0 0 28.758 2.347 A 1.14 1.14 0 0 0 28.455 2.582 A 1.417 1.417 0 0 0 28.178 3.028 Q 28.104 3.212 28.064 3.434 A 2.741 2.741 0 0 0 28.042 3.586 Z M 40.821 3.586 L 43.203 3.586 L 43.203 3.524 Q 43.177 3.066 43.006 2.76 A 1.13 1.13 0 0 0 42.869 2.564 A 0.983 0.983 0 0 0 42.214 2.232 A 1.39 1.39 0 0 0 42.06 2.224 A 1.106 1.106 0 0 0 41.538 2.347 A 1.14 1.14 0 0 0 41.234 2.582 A 1.417 1.417 0 0 0 40.957 3.028 Q 40.884 3.212 40.844 3.434 A 2.741 2.741 0 0 0 40.821 3.586 Z" vector-effect="non-scaling-stroke"/></g><g transform="translate(25, 93)" id="svgGroup" stroke-linecap="round" fill-rule="evenodd" font-size="9pt" stroke="#000" stroke-width="0.25mm" fill="#000" style="stroke:#000;stroke-width:0.25mm;fill:#000"><path d="M 14.265 6.086 L 14.265 6.75 L 10.072 6.75 L 10.072 6.166 L 12.287 3.705 A 9.853 9.853 0 0 0 12.54 3.407 Q 12.778 3.115 12.911 2.894 A 2.159 2.159 0 0 0 12.966 2.797 Q 13.153 2.448 13.153 2.074 A 1.354 1.354 0 0 0 13.101 1.69 A 1.067 1.067 0 0 0 12.85 1.252 Q 12.546 0.932 12.041 0.932 A 1.71 1.71 0 0 0 11.656 0.972 Q 11.319 1.05 11.098 1.277 Q 10.779 1.605 10.763 2.177 A 2.18 2.18 0 0 0 10.762 2.237 L 9.949 2.237 Q 9.949 1.354 10.518 0.809 A 1.914 1.914 0 0 1 11.476 0.318 A 2.782 2.782 0 0 1 12.041 0.264 A 2.749 2.749 0 0 1 12.622 0.322 Q 13 0.403 13.286 0.6 A 1.626 1.626 0 0 1 13.452 0.732 A 1.546 1.546 0 0 1 13.96 1.765 A 2.151 2.151 0 0 1 13.97 1.978 A 1.917 1.917 0 0 1 13.83 2.666 Q 13.608 3.241 13.036 3.922 A 8.818 8.818 0 0 1 12.766 4.228 L 11.052 6.086 L 14.265 6.086 Z M 46.6 6.75 L 44.943 4.548 L 44.433 5.08 L 44.433 6.75 L 43.62 6.75 L 43.62 0 L 44.433 0 L 44.433 4.083 L 44.868 3.56 L 46.349 1.995 L 47.338 1.995 L 45.488 3.981 L 47.553 6.75 L 46.6 6.75 Z M 3.924 6.75 L 3.072 6.75 A 0.632 0.632 0 0 1 3.036 6.66 Q 3.005 6.562 2.98 6.41 A 3.997 3.997 0 0 1 2.958 6.249 Q 2.391 6.838 1.604 6.838 A 2.033 2.033 0 0 1 1.075 6.772 A 1.529 1.529 0 0 1 0.451 6.44 Q 0 6.042 0 5.432 Q 0 4.689 0.565 4.278 Q 1.13 3.867 2.153 3.867 L 2.944 3.867 L 2.944 3.494 A 1.152 1.152 0 0 0 2.909 3.199 A 0.828 0.828 0 0 0 2.69 2.815 Q 2.473 2.6 2.083 2.568 A 1.748 1.748 0 0 0 1.938 2.562 Q 1.503 2.562 1.209 2.782 Q 0.914 3.001 0.914 3.313 L 0.097 3.313 A 1.041 1.041 0 0 1 0.222 2.825 A 1.409 1.409 0 0 1 0.349 2.626 Q 0.602 2.294 1.035 2.101 A 2.249 2.249 0 0 1 1.811 1.913 A 2.669 2.669 0 0 1 1.986 1.907 A 2.65 2.65 0 0 1 2.504 1.955 Q 2.811 2.016 3.05 2.156 A 1.439 1.439 0 0 1 3.274 2.318 A 1.396 1.396 0 0 1 3.727 3.144 A 1.998 1.998 0 0 1 3.757 3.45 L 3.757 5.638 Q 3.757 6.073 3.831 6.39 A 1.707 1.707 0 0 0 3.924 6.68 L 3.924 6.75 Z M 39.463 6.75 L 38.61 6.75 A 0.632 0.632 0 0 1 38.575 6.66 Q 38.544 6.562 38.519 6.41 A 3.997 3.997 0 0 1 38.496 6.249 Q 37.929 6.838 37.143 6.838 A 2.033 2.033 0 0 1 36.613 6.772 A 1.529 1.529 0 0 1 35.989 6.44 Q 35.539 6.042 35.539 5.432 Q 35.539 4.689 36.103 4.278 Q 36.668 3.867 37.692 3.867 L 38.483 3.867 L 38.483 3.494 A 1.152 1.152 0 0 0 38.447 3.199 A 0.828 0.828 0 0 0 38.228 2.815 Q 38.012 2.6 37.621 2.568 A 1.748 1.748 0 0 0 37.477 2.562 Q 37.042 2.562 36.747 2.782 Q 36.453 3.001 36.453 3.313 L 35.635 3.313 A 1.041 1.041 0 0 1 35.76 2.825 A 1.409 1.409 0 0 1 35.888 2.626 Q 36.141 2.294 36.574 2.101 A 2.249 2.249 0 0 1 37.349 1.913 A 2.669 2.669 0 0 1 37.525 1.907 A 2.65 2.65 0 0 1 38.042 1.955 Q 38.35 2.016 38.588 2.156 A 1.439 1.439 0 0 1 38.813 2.318 A 1.396 1.396 0 0 1 39.266 3.144 A 1.998 1.998 0 0 1 39.296 3.45 L 39.296 5.638 Q 39.296 6.073 39.37 6.39 A 1.707 1.707 0 0 0 39.463 6.68 L 39.463 6.75 Z M 20.786 0.352 L 20.786 4.601 L 21.674 4.601 L 21.674 5.265 L 20.786 5.265 L 20.786 6.75 L 19.969 6.75 L 19.969 5.265 L 17.055 5.265 L 17.055 4.786 L 19.921 0.352 L 20.786 0.352 Z M 31.671 6.75 L 29.901 6.75 L 29.901 0.352 L 31.707 0.352 Q 32.542 0.352 33.183 0.721 Q 33.825 1.09 34.174 1.771 A 3.19 3.19 0 0 1 34.491 2.8 A 4.073 4.073 0 0 1 34.528 3.335 L 34.528 3.744 Q 34.528 4.649 34.179 5.331 A 2.457 2.457 0 0 1 33.181 6.376 Q 32.533 6.741 31.671 6.75 Z M 26.184 2.592 A 1.544 1.544 0 0 0 26.288 2.021 A 2.226 2.226 0 0 0 26.267 1.707 A 1.566 1.566 0 0 0 25.767 0.738 A 1.754 1.754 0 0 0 25.002 0.333 A 2.443 2.443 0 0 0 24.403 0.264 A 2.539 2.539 0 0 0 23.893 0.312 A 1.767 1.767 0 0 0 23.036 0.738 Q 22.518 1.213 22.518 2.021 A 1.808 1.808 0 0 0 22.518 2.058 A 1.499 1.499 0 0 0 22.764 2.87 A 1.626 1.626 0 0 0 22.926 3.077 A 1.726 1.726 0 0 0 23.436 3.454 A 2.119 2.119 0 0 0 23.337 3.5 A 1.738 1.738 0 0 0 22.652 4.087 A 1.629 1.629 0 0 0 22.368 5.023 A 2.272 2.272 0 0 0 22.378 5.237 A 1.63 1.63 0 0 0 22.924 6.344 A 1.895 1.895 0 0 0 23.775 6.771 A 2.797 2.797 0 0 0 24.403 6.838 A 2.796 2.796 0 0 0 25.002 6.777 A 1.925 1.925 0 0 0 25.877 6.346 A 1.578 1.578 0 0 0 26.352 5.62 A 1.989 1.989 0 0 0 26.438 5.023 A 1.581 1.581 0 0 0 26.145 4.087 Q 25.853 3.674 25.352 3.458 Q 25.783 3.248 26.036 2.874 A 1.449 1.449 0 0 0 26.184 2.592 Z M 7.506 0.844 L 8.319 0.844 L 8.319 1.995 L 9.207 1.995 L 9.207 2.624 L 8.319 2.624 L 8.319 5.572 Q 8.319 5.858 8.438 6.001 Q 8.556 6.144 8.842 6.144 A 1.046 1.046 0 0 0 8.939 6.138 Q 9.042 6.129 9.182 6.101 A 4.024 4.024 0 0 0 9.229 6.091 L 9.229 6.75 A 2.463 2.463 0 0 1 8.796 6.829 A 2.157 2.157 0 0 1 8.605 6.838 Q 8.157 6.838 7.891 6.616 A 0.856 0.856 0 0 1 7.783 6.508 Q 7.555 6.238 7.515 5.78 A 2.351 2.351 0 0 1 7.506 5.572 L 7.506 2.624 L 6.64 2.624 L 6.64 1.995 L 7.506 1.995 L 7.506 0.844 Z M 5.915 0 L 5.915 6.75 L 5.102 6.75 L 5.102 0 L 5.915 0 Z M 42.869 1.969 L 42.869 2.725 A 2.251 2.251 0 0 0 42.626 2.698 A 2.782 2.782 0 0 0 42.469 2.694 Q 41.691 2.694 41.399 3.338 A 1.445 1.445 0 0 0 41.383 3.375 L 41.383 6.75 L 40.57 6.75 L 40.57 1.995 L 41.361 1.995 L 41.375 2.544 Q 41.755 1.938 42.438 1.909 A 1.636 1.636 0 0 1 42.508 1.907 Q 42.746 1.907 42.869 1.969 Z M 31.729 1.046 L 30.744 1.046 L 30.744 6.06 L 31.632 6.06 A 2.519 2.519 0 0 0 32.264 5.985 A 1.747 1.747 0 0 0 33.15 5.454 Q 33.61 4.94 33.68 4.059 A 4.165 4.165 0 0 0 33.693 3.727 L 33.693 3.353 Q 33.693 2.562 33.423 2.027 A 1.864 1.864 0 0 0 33.181 1.659 A 1.687 1.687 0 0 0 32.185 1.09 A 2.499 2.499 0 0 0 31.729 1.046 Z M 19.872 1.639 L 17.978 4.601 L 19.969 4.601 L 19.969 1.463 L 19.872 1.639 Z M 25.625 5.005 A 1.375 1.375 0 0 0 25.565 4.592 A 1.109 1.109 0 0 0 25.284 4.131 A 1.148 1.148 0 0 0 24.613 3.807 A 1.593 1.593 0 0 0 24.394 3.792 A 1.466 1.466 0 0 0 24.005 3.841 A 1.086 1.086 0 0 0 23.513 4.126 A 1.123 1.123 0 0 0 23.199 4.762 A 1.572 1.572 0 0 0 23.181 5.005 A 1.48 1.48 0 0 0 23.223 5.367 A 1.019 1.019 0 0 0 23.504 5.862 Q 23.81 6.158 24.343 6.173 A 2.053 2.053 0 0 0 24.403 6.174 Q 24.897 6.174 25.207 5.94 A 1.018 1.018 0 0 0 25.299 5.86 A 1.041 1.041 0 0 0 25.599 5.292 A 1.518 1.518 0 0 0 25.625 5.005 Z M 24.403 0.932 A 1.259 1.259 0 0 0 24.05 0.979 A 0.973 0.973 0 0 0 23.627 1.228 Q 23.331 1.525 23.331 2.035 A 1.325 1.325 0 0 0 23.375 2.387 A 0.994 0.994 0 0 0 23.623 2.823 A 0.974 0.974 0 0 0 24.185 3.108 A 1.382 1.382 0 0 0 24.403 3.125 A 1.279 1.279 0 0 0 24.748 3.08 A 0.952 0.952 0 0 0 25.183 2.823 A 1.018 1.018 0 0 0 25.458 2.26 A 1.426 1.426 0 0 0 25.475 2.035 A 1.282 1.282 0 0 0 25.425 1.668 A 1.013 1.013 0 0 0 25.172 1.239 Q 24.869 0.932 24.403 0.932 Z M 2.944 5.418 L 2.944 4.443 L 2.307 4.443 Q 0.813 4.443 0.813 5.317 Q 0.813 5.7 1.068 5.915 A 0.893 0.893 0 0 0 1.481 6.108 A 1.259 1.259 0 0 0 1.723 6.13 A 1.429 1.429 0 0 0 2.448 5.933 A 1.335 1.335 0 0 0 2.743 5.705 A 1.108 1.108 0 0 0 2.944 5.418 Z M 38.483 5.418 L 38.483 4.443 L 37.846 4.443 Q 36.352 4.443 36.352 5.317 Q 36.352 5.7 36.607 5.915 A 0.893 0.893 0 0 0 37.02 6.108 A 1.259 1.259 0 0 0 37.261 6.13 A 1.429 1.429 0 0 0 37.986 5.933 A 1.335 1.335 0 0 0 38.282 5.705 A 1.108 1.108 0 0 0 38.483 5.418 Z" vector-effect="non-scaling-stroke"/></g>
</svgversion="1.0" encoding="UTF-8"?>
<svg width="48px" height="48px" viewBox="0 0 48 48" version="1.1" xmlns="http://www.w3.org/2000/svg" xmlns:xlink="http://www.w3.org/1999/xlink">
    <title>Icon-Resource/General-Resource/Res_Internet-alt2_48_Dark</title>
    <g id="Icon-Resource/General-Resource/Res_Internet-alt2_48" stroke="none" stroke-width="1" fill="none" fill-rule="evenodd">
        <path transform="translate(12.000000, 8.000000), scale(.65)" d="M30.997,42.2326342 L30.997,14.7586342 L28.997,14.7586342 L28.997,42.1226342 L25.556,38.6256342 L24.13,40.0276342 L29.325,45.3066342 C29.513,45.4976342 29.768,45.6046342 30.034,45.6056342 L30.038,45.6056342 C30.303,45.6056342 30.558,45.5006342 30.745,45.3126342 L36.004,40.0546342 L34.59,38.6406342 L30.997,42.2326342 Z M22.35,20.7246342 L23.764,19.3106342 L18.506,14.0516342 C18.317,13.8636342 18.018,13.7446342 17.795,13.7586342 C17.528,13.7596342 17.273,13.8676342 17.086,14.0576342 L11.89,19.3366342 L13.315,20.7396342 L16.757,17.2436342 L16.757,30.5546342 L18.757,30.5546342 L18.757,17.1306342 L22.35,20.7246342 Z M27.401,28.5806342 L20.335,28.5736342 L20.333,30.5736342 L27.399,30.5806342 L27.401,28.5806342 Z M46.025,22.1296342 C46.025,24.6186342 45.27,26.6286342 43.783,28.1056342 C41.332,30.5406342 37.777,30.5896342 37.496,30.5896342 L37.483,30.5896342 L32.721,30.5856342 L32.723,28.5856342 L37.491,28.5896342 C37.53,28.5896342 40.488,28.5696342 42.385,26.6756342 C43.474,25.5886342 44.025,24.0596342 44.025,22.1296342 C44.025,20.9496342 43.701,19.1796342 40.895,17.4606342 C39.425,16.5586342 38.042,16.2596342 37.516,16.1726342 C36.986,16.0866342 36.622,15.5976342 36.684,15.0696342 C36.507,12.9736342 35.525,11.5076342 33.981,11.0406342 C32.646,10.6356342 31.218,11.1096342 30.337,12.2456342 C30.116,12.5326342 29.763,12.6786342 29.395,12.6216342 C29.036,12.5666342 28.735,12.3216342 28.609,11.9806342 C27.992,10.3166342 27.1,8.91863416 25.955,7.82363416 C24.544,6.47463416 20.678,3.57163416 15.204,5.78563416 C12.068,7.05063416 9.611,10.6886342 9.611,14.0676342 C9.611,14.4446342 9.635,14.8226342 9.682,15.1906342 C9.746,15.7016342 9.413,16.1776342 8.911,16.2916342 C8.893,16.2956342 8.873,16.2996342 8.853,16.3026342 C7.007,16.7706342 4,18.1676342 4,22.2976342 C4,25.4426342 5.799,27.1816342 7.308,28.0876342 C7.823,28.3966342 8.419,28.5606342 9.029,28.5616342 L15.181,28.5676342 L15.179,30.5676342 L9.027,30.5616342 C8.056,30.5606342 7.105,30.2976342 6.279,29.8026342 C4.681,28.8436342 2,26.5926342 2,22.2976342 C2,17.2536342 5.461,15.3056342 7.623,14.5826342 C7.615,14.4106342 7.611,14.2396342 7.611,14.0676342 C7.611,9.86363416 10.554,5.50463416 14.456,3.92963416 C19.001,2.09463416 23.816,3.00963416 27.338,6.37863416 C28.37,7.36663416 29.227,8.55063416 29.896,9.91463416 C31.233,8.94663416 32.937,8.63663416 34.561,9.12663416 C36.751,9.79063416 38.233,11.7226342 38.615,14.3606342 C39.75,14.6426342 40.927,15.1326342 41.94,15.7546342 C44.689,17.4396342 46.025,19.5256342 46.025,22.1296342 L46.025,22.1296342 Z" id="Fill-12" fill="#000000"></path>
    </g><g transform="translate(25, 83)" id="svgGroup" stroke-linecap="round" fill-rule="evenodd" font-size="9pt" stroke="#000" stroke-width="0.25mm" fill="#000" style="stroke:#000;stroke-width:0.25mm;fill:#000"><path d="M 3.74 6.399 L 2.351 3.81 L 0.848 3.81 L 0.848 6.399 L 0 6.399 L 0 0 L 2.118 0 A 3.809 3.809 0 0 1 2.76 0.051 Q 3.102 0.109 3.376 0.236 A 1.789 1.789 0 0 1 3.781 0.492 A 1.588 1.588 0 0 1 4.307 1.381 A 2.453 2.453 0 0 1 4.364 1.925 A 1.864 1.864 0 0 1 4.273 2.516 A 1.64 1.64 0 0 1 4.041 2.966 A 1.849 1.849 0 0 1 3.382 3.523 A 2.342 2.342 0 0 1 3.142 3.63 L 4.645 6.346 L 4.645 6.399 L 3.74 6.399 Z M 13.724 3.041 L 12.907 3.041 Q 12.907 2.707 12.623 2.465 Q 12.34 2.224 11.909 2.224 Q 11.465 2.224 11.215 2.417 A 0.653 0.653 0 0 0 11.04 2.616 Q 10.967 2.747 10.964 2.912 A 0.771 0.771 0 0 0 10.964 2.922 A 0.588 0.588 0 0 0 10.994 3.115 A 0.48 0.48 0 0 0 11.197 3.366 A 1.093 1.093 0 0 0 11.348 3.445 Q 11.512 3.517 11.767 3.586 A 6.581 6.581 0 0 0 12.039 3.652 A 6.318 6.318 0 0 1 12.446 3.757 Q 12.783 3.856 13.025 3.977 A 1.901 1.901 0 0 1 13.281 4.13 Q 13.418 4.227 13.516 4.341 A 1.06 1.06 0 0 1 13.586 4.432 A 1.024 1.024 0 0 1 13.748 4.839 A 1.388 1.388 0 0 1 13.768 5.08 Q 13.768 5.717 13.258 6.102 Q 12.776 6.466 12.022 6.485 A 3.337 3.337 0 0 1 11.936 6.486 A 2.746 2.746 0 0 1 11.401 6.437 A 2.124 2.124 0 0 1 10.925 6.284 A 1.771 1.771 0 0 1 10.491 6.006 A 1.54 1.54 0 0 1 10.237 5.72 Q 9.989 5.357 9.989 4.935 L 10.802 4.935 A 0.932 0.932 0 0 0 10.875 5.26 A 0.827 0.827 0 0 0 11.129 5.583 A 1.072 1.072 0 0 0 11.531 5.776 Q 11.686 5.816 11.867 5.822 A 2.013 2.013 0 0 0 11.936 5.823 A 1.863 1.863 0 0 0 12.231 5.801 Q 12.393 5.775 12.524 5.718 A 0.941 0.941 0 0 0 12.676 5.636 A 0.689 0.689 0 0 0 12.841 5.486 A 0.554 0.554 0 0 0 12.955 5.137 A 0.698 0.698 0 0 0 12.919 4.907 A 0.581 0.581 0 0 0 12.707 4.625 A 1.05 1.05 0 0 0 12.538 4.527 Q 12.349 4.437 12.054 4.361 A 5.392 5.392 0 0 0 11.841 4.311 A 6.342 6.342 0 0 1 11.48 4.224 Q 11.11 4.122 10.861 3.995 Q 10.562 3.843 10.392 3.643 A 1.017 1.017 0 0 1 10.325 3.555 Q 10.151 3.3 10.151 2.949 A 1.206 1.206 0 0 1 10.55 2.044 A 1.694 1.694 0 0 1 10.646 1.96 A 1.752 1.752 0 0 1 11.429 1.6 A 2.471 2.471 0 0 1 11.909 1.556 A 2.559 2.559 0 0 1 12.473 1.614 A 1.757 1.757 0 0 1 13.221 1.973 Q 13.724 2.391 13.724 3.041 Z M 19.503 1.644 L 20.272 1.644 L 20.298 2.241 Q 20.835 1.567 21.695 1.556 A 2.234 2.234 0 0 1 21.722 1.556 A 1.905 1.905 0 0 1 22.356 1.652 Q 23.198 1.949 23.24 3.154 A 3.668 3.668 0 0 1 23.243 3.256 L 23.243 6.399 L 22.43 6.399 L 22.43 3.252 A 1.837 1.837 0 0 0 22.407 2.972 Q 22.357 2.665 22.195 2.492 Q 22.008 2.293 21.655 2.255 A 1.66 1.66 0 0 0 21.476 2.246 A 1.253 1.253 0 0 0 21.062 2.312 A 1.123 1.123 0 0 0 20.782 2.457 A 1.432 1.432 0 0 0 20.316 3.01 L 20.316 6.399 L 19.503 6.399 L 19.503 1.644 Z M 35.222 1.644 L 35.991 1.644 L 36.018 2.241 Q 36.554 1.567 37.414 1.556 A 2.234 2.234 0 0 1 37.441 1.556 A 1.905 1.905 0 0 1 38.075 1.652 Q 38.917 1.949 38.96 3.154 A 3.668 3.668 0 0 1 38.962 3.256 L 38.962 6.399 L 38.149 6.399 L 38.149 3.252 A 1.837 1.837 0 0 0 38.127 2.972 Q 38.076 2.665 37.914 2.492 Q 37.728 2.293 37.374 2.255 A 1.66 1.66 0 0 0 37.195 2.246 A 1.253 1.253 0 0 0 36.781 2.312 A 1.123 1.123 0 0 0 36.501 2.457 A 1.432 1.432 0 0 0 36.035 3.01 L 36.035 6.399 L 35.222 6.399 L 35.222 1.644 Z M 5.212 4.153 L 5.212 4.003 A 3.17 3.17 0 0 1 5.288 3.295 A 2.581 2.581 0 0 1 5.482 2.74 A 2.191 2.191 0 0 1 5.93 2.115 A 2.033 2.033 0 0 1 6.238 1.87 Q 6.724 1.556 7.291 1.556 A 2.254 2.254 0 0 1 7.904 1.635 A 1.639 1.639 0 0 1 8.732 2.167 Q 9.246 2.777 9.246 3.916 L 9.246 4.254 L 6.025 4.254 A 2.111 2.111 0 0 0 6.096 4.762 A 1.516 1.516 0 0 0 6.436 5.39 A 1.282 1.282 0 0 0 7.37 5.822 A 1.652 1.652 0 0 0 7.436 5.823 A 1.763 1.763 0 0 0 7.764 5.794 Q 7.988 5.751 8.165 5.647 A 1.827 1.827 0 0 0 8.674 5.199 A 2.068 2.068 0 0 0 8.688 5.181 L 9.185 5.568 A 1.926 1.926 0 0 1 7.785 6.459 A 2.749 2.749 0 0 1 7.392 6.486 A 2.394 2.394 0 0 1 6.64 6.374 A 1.974 1.974 0 0 1 5.818 5.851 Q 5.212 5.216 5.212 4.153 Z M 27.202 4.153 L 27.202 4.003 A 3.17 3.17 0 0 1 27.278 3.295 A 2.581 2.581 0 0 1 27.472 2.74 A 2.191 2.191 0 0 1 27.92 2.115 A 2.033 2.033 0 0 1 28.228 1.87 Q 28.714 1.556 29.281 1.556 A 2.254 2.254 0 0 1 29.894 1.635 A 1.639 1.639 0 0 1 30.722 2.167 Q 31.236 2.777 31.236 3.916 L 31.236 4.254 L 28.015 4.254 A 2.111 2.111 0 0 0 28.086 4.762 A 1.516 1.516 0 0 0 28.426 5.39 A 1.282 1.282 0 0 0 29.36 5.822 A 1.652 1.652 0 0 0 29.426 5.823 A 1.763 1.763 0 0 0 29.754 5.794 Q 29.978 5.751 30.155 5.647 A 1.827 1.827 0 0 0 30.664 5.199 A 2.068 2.068 0 0 0 30.678 5.181 L 31.175 5.568 A 1.926 1.926 0 0 1 29.775 6.459 A 2.749 2.749 0 0 1 29.382 6.486 A 2.394 2.394 0 0 1 28.631 6.374 A 1.974 1.974 0 0 1 27.809 5.851 Q 27.202 5.216 27.202 4.153 Z M 39.981 4.153 L 39.981 4.003 A 3.17 3.17 0 0 1 40.058 3.295 A 2.581 2.581 0 0 1 40.252 2.74 A 2.191 2.191 0 0 1 40.699 2.115 A 2.033 2.033 0 0 1 41.008 1.87 Q 41.493 1.556 42.06 1.556 A 2.254 2.254 0 0 1 42.673 1.635 A 1.639 1.639 0 0 1 43.501 2.167 Q 44.016 2.777 44.016 3.916 L 44.016 4.254 L 40.794 4.254 A 2.111 2.111 0 0 0 40.865 4.762 A 1.516 1.516 0 0 0 41.205 5.39 A 1.282 1.282 0 0 0 42.139 5.822 A 1.652 1.652 0 0 0 42.205 5.823 A 1.763 1.763 0 0 0 42.533 5.794 Q 42.757 5.751 42.935 5.647 A 1.827 1.827 0 0 0 43.443 5.199 A 2.068 2.068 0 0 0 43.458 5.181 L 43.954 5.568 A 1.926 1.926 0 0 1 42.554 6.459 A 2.749 2.749 0 0 1 42.161 6.486 A 2.394 2.394 0 0 1 41.41 6.374 A 1.974 1.974 0 0 1 40.588 5.851 Q 39.981 5.216 39.981 4.153 Z M 24.759 0.492 L 25.572 0.492 L 25.572 1.644 L 26.459 1.644 L 26.459 2.272 L 25.572 2.272 L 25.572 5.221 Q 25.572 5.506 25.69 5.649 Q 25.809 5.792 26.095 5.792 A 1.046 1.046 0 0 0 26.192 5.787 Q 26.295 5.777 26.435 5.749 A 4.024 4.024 0 0 0 26.481 5.739 L 26.481 6.399 A 2.463 2.463 0 0 1 26.049 6.478 A 2.157 2.157 0 0 1 25.857 6.486 Q 25.41 6.486 25.144 6.265 A 0.856 0.856 0 0 1 25.036 6.157 Q 24.808 5.886 24.768 5.429 A 2.351 2.351 0 0 1 24.759 5.221 L 24.759 2.272 L 23.893 2.272 L 23.893 1.644 L 24.759 1.644 L 24.759 0.492 Z M 45.246 0.492 L 46.059 0.492 L 46.059 1.644 L 46.947 1.644 L 46.947 2.272 L 46.059 2.272 L 46.059 5.221 Q 46.059 5.506 46.178 5.649 Q 46.296 5.792 46.582 5.792 A 1.046 1.046 0 0 0 46.68 5.787 Q 46.782 5.777 46.922 5.749 A 4.024 4.024 0 0 0 46.969 5.739 L 46.969 6.399 A 2.463 2.463 0 0 1 46.536 6.478 A 2.157 2.157 0 0 1 46.345 6.486 Q 45.898 6.486 45.631 6.265 A 0.856 0.856 0 0 1 45.523 6.157 Q 45.296 5.886 45.255 5.429 A 2.351 2.351 0 0 1 45.246 5.221 L 45.246 2.272 L 44.38 2.272 L 44.38 1.644 L 45.246 1.644 L 45.246 0.492 Z M 34.475 1.617 L 34.475 2.373 A 2.251 2.251 0 0 0 34.232 2.347 A 2.782 2.782 0 0 0 34.075 2.342 Q 33.297 2.342 33.006 2.987 A 1.445 1.445 0 0 0 32.99 3.024 L 32.99 6.399 L 32.177 6.399 L 32.177 1.644 L 32.968 1.644 L 32.981 2.193 Q 33.361 1.587 34.044 1.557 A 1.636 1.636 0 0 1 34.115 1.556 Q 34.352 1.556 34.475 1.617 Z M 18.088 0 L 18.088 6.399 L 17.244 6.399 L 17.244 0 L 18.088 0 Z M 0.848 0.694 L 0.848 3.12 L 2.145 3.12 Q 2.685 3.12 3.035 2.88 A 1.174 1.174 0 0 0 3.144 2.795 A 1.069 1.069 0 0 0 3.51 2.058 A 1.486 1.486 0 0 0 3.516 1.925 Q 3.516 1.382 3.22 1.071 A 1 1 0 0 0 3.162 1.015 Q 2.808 0.699 2.14 0.694 L 0.848 0.694 Z M 6.051 3.586 L 8.433 3.586 L 8.433 3.524 Q 8.407 3.066 8.236 2.76 A 1.13 1.13 0 0 0 8.099 2.564 A 0.983 0.983 0 0 0 7.445 2.232 A 1.39 1.39 0 0 0 7.291 2.224 A 1.106 1.106 0 0 0 6.768 2.347 A 1.14 1.14 0 0 0 6.464 2.582 A 1.417 1.417 0 0 0 6.188 3.028 Q 6.114 3.212 6.074 3.434 A 2.741 2.741 0 0 0 6.051 3.586 Z M 28.042 3.586 L 30.423 3.586 L 30.423 3.524 Q 30.397 3.066 30.227 2.76 A 1.13 1.13 0 0 0 30.089 2.564 A 0.983 0.983 0 0 0 29.435 2.232 A 1.39 1.39 0 0 0 29.281 2.224 A 1.106 1.106 0 0 0 28.758 2.347 A 1.14 1.14 0 0 0 28.455 2.582 A 1.417 1.417 0 0 0 28.178 3.028 Q 28.104 3.212 28.064 3.434 A 2.741 2.741 0 0 0 28.042 3.586 Z M 40.821 3.586 L 43.203 3.586 L 43.203 3.524 Q 43.177 3.066 43.006 2.76 A 1.13 1.13 0 0 0 42.869 2.564 A 0.983 0.983 0 0 0 42.214 2.232 A 1.39 1.39 0 0 0 42.06 2.224 A 1.106 1.106 0 0 0 41.538 2.347 A 1.14 1.14 0 0 0 41.234 2.582 A 1.417 1.417 0 0 0 40.957 3.028 Q 40.884 3.212 40.844 3.434 A 2.741 2.741 0 0 0 40.821 3.586 Z" vector-effect="non-scaling-stroke"/></g><g transform="translate(25, 93)" id="svgGroup" stroke-linecap="round" fill-rule="evenodd" font-size="9pt" stroke="#000" stroke-width="0.25mm" fill="#000" style="stroke:#000;stroke-width:0.25mm;fill:#000"><path d="M 14.265 6.086 L 14.265 6.75 L 10.072 6.75 L 10.072 6.166 L 12.287 3.705 A 9.853 9.853 0 0 0 12.54 3.407 Q 12.778 3.115 12.911 2.894 A 2.159 2.159 0 0 0 12.966 2.797 Q 13.153 2.448 13.153 2.074 A 1.354 1.354 0 0 0 13.101 1.69 A 1.067 1.067 0 0 0 12.85 1.252 Q 12.546 0.932 12.041 0.932 A 1.71 1.71 0 0 0 11.656 0.972 Q 11.319 1.05 11.098 1.277 Q 10.779 1.605 10.763 2.177 A 2.18 2.18 0 0 0 10.762 2.237 L 9.949 2.237 Q 9.949 1.354 10.518 0.809 A 1.914 1.914 0 0 1 11.476 0.318 A 2.782 2.782 0 0 1 12.041 0.264 A 2.749 2.749 0 0 1 12.622 0.322 Q 13 0.403 13.286 0.6 A 1.626 1.626 0 0 1 13.452 0.732 A 1.546 1.546 0 0 1 13.96 1.765 A 2.151 2.151 0 0 1 13.97 1.978 A 1.917 1.917 0 0 1 13.83 2.666 Q 13.608 3.241 13.036 3.922 A 8.818 8.818 0 0 1 12.766 4.228 L 11.052 6.086 L 14.265 6.086 Z M 46.6 6.75 L 44.943 4.548 L 44.433 5.08 L 44.433 6.75 L 43.62 6.75 L 43.62 0 L 44.433 0 L 44.433 4.083 L 44.868 3.56 L 46.349 1.995 L 47.338 1.995 L 45.488 3.981 L 47.553 6.75 L 46.6 6.75 Z M 3.924 6.75 L 3.072 6.75 A 0.632 0.632 0 0 1 3.036 6.66 Q 3.005 6.562 2.98 6.41 A 3.997 3.997 0 0 1 2.958 6.249 Q 2.391 6.838 1.604 6.838 A 2.033 2.033 0 0 1 1.075 6.772 A 1.529 1.529 0 0 1 0.451 6.44 Q 0 6.042 0 5.432 Q 0 4.689 0.565 4.278 Q 1.13 3.867 2.153 3.867 L 2.944 3.867 L 2.944 3.494 A 1.152 1.152 0 0 0 2.909 3.199 A 0.828 0.828 0 0 0 2.69 2.815 Q 2.473 2.6 2.083 2.568 A 1.748 1.748 0 0 0 1.938 2.562 Q 1.503 2.562 1.209 2.782 Q 0.914 3.001 0.914 3.313 L 0.097 3.313 A 1.041 1.041 0 0 1 0.222 2.825 A 1.409 1.409 0 0 1 0.349 2.626 Q 0.602 2.294 1.035 2.101 A 2.249 2.249 0 0 1 1.811 1.913 A 2.669 2.669 0 0 1 1.986 1.907 A 2.65 2.65 0 0 1 2.504 1.955 Q 2.811 2.016 3.05 2.156 A 1.439 1.439 0 0 1 3.274 2.318 A 1.396 1.396 0 0 1 3.727 3.144 A 1.998 1.998 0 0 1 3.757 3.45 L 3.757 5.638 Q 3.757 6.073 3.831 6.39 A 1.707 1.707 0 0 0 3.924 6.68 L 3.924 6.75 Z M 39.463 6.75 L 38.61 6.75 A 0.632 0.632 0 0 1 38.575 6.66 Q 38.544 6.562 38.519 6.41 A 3.997 3.997 0 0 1 38.496 6.249 Q 37.929 6.838 37.143 6.838 A 2.033 2.033 0 0 1 36.613 6.772 A 1.529 1.529 0 0 1 35.989 6.44 Q 35.539 6.042 35.539 5.432 Q 35.539 4.689 36.103 4.278 Q 36.668 3.867 37.692 3.867 L 38.483 3.867 L 38.483 3.494 A 1.152 1.152 0 0 0 38.447 3.199 A 0.828 0.828 0 0 0 38.228 2.815 Q 38.012 2.6 37.621 2.568 A 1.748 1.748 0 0 0 37.477 2.562 Q 37.042 2.562 36.747 2.782 Q 36.453 3.001 36.453 3.313 L 35.635 3.313 A 1.041 1.041 0 0 1 35.76 2.825 A 1.409 1.409 0 0 1 35.888 2.626 Q 36.141 2.294 36.574 2.101 A 2.249 2.249 0 0 1 37.349 1.913 A 2.669 2.669 0 0 1 37.525 1.907 A 2.65 2.65 0 0 1 38.042 1.955 Q 38.35 2.016 38.588 2.156 A 1.439 1.439 0 0 1 38.813 2.318 A 1.396 1.396 0 0 1 39.266 3.144 A 1.998 1.998 0 0 1 39.296 3.45 L 39.296 5.638 Q 39.296 6.073 39.37 6.39 A 1.707 1.707 0 0 0 39.463 6.68 L 39.463 6.75 Z M 20.786 0.352 L 20.786 4.601 L 21.674 4.601 L 21.674 5.265 L 20.786 5.265 L 20.786 6.75 L 19.969 6.75 L 19.969 5.265 L 17.055 5.265 L 17.055 4.786 L 19.921 0.352 L 20.786 0.352 Z M 31.671 6.75 L 29.901 6.75 L 29.901 0.352 L 31.707 0.352 Q 32.542 0.352 33.183 0.721 Q 33.825 1.09 34.174 1.771 A 3.19 3.19 0 0 1 34.491 2.8 A 4.073 4.073 0 0 1 34.528 3.335 L 34.528 3.744 Q 34.528 4.649 34.179 5.331 A 2.457 2.457 0 0 1 33.181 6.376 Q 32.533 6.741 31.671 6.75 Z M 26.184 2.592 A 1.544 1.544 0 0 0 26.288 2.021 A 2.226 2.226 0 0 0 26.267 1.707 A 1.566 1.566 0 0 0 25.767 0.738 A 1.754 1.754 0 0 0 25.002 0.333 A 2.443 2.443 0 0 0 24.403 0.264 A 2.539 2.539 0 0 0 23.893 0.312 A 1.767 1.767 0 0 0 23.036 0.738 Q 22.518 1.213 22.518 2.021 A 1.808 1.808 0 0 0 22.518 2.058 A 1.499 1.499 0 0 0 22.764 2.87 A 1.626 1.626 0 0 0 22.926 3.077 A 1.726 1.726 0 0 0 23.436 3.454 A 2.119 2.119 0 0 0 23.337 3.5 A 1.738 1.738 0 0 0 22.652 4.087 A 1.629 1.629 0 0 0 22.368 5.023 A 2.272 2.272 0 0 0 22.378 5.237 A 1.63 1.63 0 0 0 22.924 6.344 A 1.895 1.895 0 0 0 23.775 6.771 A 2.797 2.797 0 0 0 24.403 6.838 A 2.796 2.796 0 0 0 25.002 6.777 A 1.925 1.925 0 0 0 25.877 6.346 A 1.578 1.578 0 0 0 26.352 5.62 A 1.989 1.989 0 0 0 26.438 5.023 A 1.581 1.581 0 0 0 26.145 4.087 Q 25.853 3.674 25.352 3.458 Q 25.783 3.248 26.036 2.874 A 1.449 1.449 0 0 0 26.184 2.592 Z M 7.506 0.844 L 8.319 0.844 L 8.319 1.995 L 9.207 1.995 L 9.207 2.624 L 8.319 2.624 L 8.319 5.572 Q 8.319 5.858 8.438 6.001 Q 8.556 6.144 8.842 6.144 A 1.046 1.046 0 0 0 8.939 6.138 Q 9.042 6.129 9.182 6.101 A 4.024 4.024 0 0 0 9.229 6.091 L 9.229 6.75 A 2.463 2.463 0 0 1 8.796 6.829 A 2.157 2.157 0 0 1 8.605 6.838 Q 8.157 6.838 7.891 6.616 A 0.856 0.856 0 0 1 7.783 6.508 Q 7.555 6.238 7.515 5.78 A 2.351 2.351 0 0 1 7.506 5.572 L 7.506 2.624 L 6.64 2.624 L 6.64 1.995 L 7.506 1.995 L 7.506 0.844 Z M 5.915 0 L 5.915 6.75 L 5.102 6.75 L 5.102 0 L 5.915 0 Z M 42.869 1.969 L 42.869 2.725 A 2.251 2.251 0 0 0 42.626 2.698 A 2.782 2.782 0 0 0 42.469 2.694 Q 41.691 2.694 41.399 3.338 A 1.445 1.445 0 0 0 41.383 3.375 L 41.383 6.75 L 40.57 6.75 L 40.57 1.995 L 41.361 1.995 L 41.375 2.544 Q 41.755 1.938 42.438 1.909 A 1.636 1.636 0 0 1 42.508 1.907 Q 42.746 1.907 42.869 1.969 Z M 31.729 1.046 L 30.744 1.046 L 30.744 6.06 L 31.632 6.06 A 2.519 2.519 0 0 0 32.264 5.985 A 1.747 1.747 0 0 0 33.15 5.454 Q 33.61 4.94 33.68 4.059 A 4.165 4.165 0 0 0 33.693 3.727 L 33.693 3.353 Q 33.693 2.562 33.423 2.027 A 1.864 1.864 0 0 0 33.181 1.659 A 1.687 1.687 0 0 0 32.185 1.09 A 2.499 2.499 0 0 0 31.729 1.046 Z M 19.872 1.639 L 17.978 4.601 L 19.969 4.601 L 19.969 1.463 L 19.872 1.639 Z M 25.625 5.005 A 1.375 1.375 0 0 0 25.565 4.592 A 1.109 1.109 0 0 0 25.284 4.131 A 1.148 1.148 0 0 0 24.613 3.807 A 1.593 1.593 0 0 0 24.394 3.792 A 1.466 1.466 0 0 0 24.005 3.841 A 1.086 1.086 0 0 0 23.513 4.126 A 1.123 1.123 0 0 0 23.199 4.762 A 1.572 1.572 0 0 0 23.181 5.005 A 1.48 1.48 0 0 0 23.223 5.367 A 1.019 1.019 0 0 0 23.504 5.862 Q 23.81 6.158 24.343 6.173 A 2.053 2.053 0 0 0 24.403 6.174 Q 24.897 6.174 25.207 5.94 A 1.018 1.018 0 0 0 25.299 5.86 A 1.041 1.041 0 0 0 25.599 5.292 A 1.518 1.518 0 0 0 25.625 5.005 Z M 24.403 0.932 A 1.259 1.259 0 0 0 24.05 0.979 A 0.973 0.973 0 0 0 23.627 1.228 Q 23.331 1.525 23.331 2.035 A 1.325 1.325 0 0 0 23.375 2.387 A 0.994 0.994 0 0 0 23.623 2.823 A 0.974 0.974 0 0 0 24.185 3.108 A 1.382 1.382 0 0 0 24.403 3.125 A 1.279 1.279 0 0 0 24.748 3.08 A 0.952 0.952 0 0 0 25.183 2.823 A 1.018 1.018 0 0 0 25.458 2.26 A 1.426 1.426 0 0 0 25.475 2.035 A 1.282 1.282 0 0 0 25.425 1.668 A 1.013 1.013 0 0 0 25.172 1.239 Q 24.869 0.932 24.403 0.932 Z M 2.944 5.418 L 2.944 4.443 L 2.307 4.443 Q 0.813 4.443 0.813 5.317 Q 0.813 5.7 1.068 5.915 A 0.893 0.893 0 0 0 1.481 6.108 A 1.259 1.259 0 0 0 1.723 6.13 A 1.429 1.429 0 0 0 2.448 5.933 A 1.335 1.335 0 0 0 2.743 5.705 A 1.108 1.108 0 0 0 2.944 5.418 Z M 38.483 5.418 L 38.483 4.443 L 37.846 4.443 Q 36.352 4.443 36.352 5.317 Q 36.352 5.7 36.607 5.915 A 0.893 0.893 0 0 0 37.02 6.108 A 1.259 1.259 0 0 0 37.261 6.13 A 1.429 1.429 0 0 0 37.986 5.933 A 1.335 1.335 0 0 0 38.282 5.705 A 1.108 1.108 0 0 0 38.483 5.418 Z" vector-effect="non-scaling-stroke"/></g>
</svg>