<?xml version="1.0" encoding="UTF-8"?>
<svg width="48px" height="48px" viewBox="0 0 48 48" version="1.1" xmlns="http://www.w3.org/2000/svg" xmlns:xlink="http://www.w3.org/1999/xlink">
    <title>Icon-Resource/General-Resource/Res_Chat_48_Dark</title>
    <g id="Icon-Resource/General-Resource/Res_Chat_48" stroke="none" stroke-width="1" fill="none" fill-rule="evenodd">
        <path transform="translate(12.000000, 8.000000), scale(.65)" d="M36,21.9996 C34.897,21.9996 34,21.1026 34,19.9996 C34,18.8966 34.897,17.9996 36,17.9996 C37.103,17.9996 38,18.8966 38,19.9996 C38,21.1026 37.103,21.9996 36,21.9996 L36,21.9996 Z M36,15.9996 C33.794,15.9996 32,17.7936 32,19.9996 C32,22.2056 33.794,23.9996 36,23.9996 C38.206,23.9996 40,22.2056 40,19.9996 C40,17.7936 38.206,15.9996 36,15.9996 L36,15.9996 Z M24,21.9996 C22.897,21.9996 22,21.1026 22,19.9996 C22,18.8966 22.897,17.9996 24,17.9996 C25.103,17.9996 26,18.8966 26,19.9996 C26,21.1026 25.103,21.9996 24,21.9996 L24,21.9996 Z M24,15.9996 C21.794,15.9996 20,17.7936 20,19.9996 C20,22.2056 21.794,23.9996 24,23.9996 C26.206,23.9996 28,22.2056 28,19.9996 C28,17.7936 26.206,15.9996 24,15.9996 L24,15.9996 Z M12,21.9996 C10.897,21.9996 10,21.1026 10,19.9996 C10,18.8966 10.897,17.9996 12,17.9996 C13.103,17.9996 14,18.8966 14,19.9996 C14,21.1026 13.103,21.9996 12,21.9996 L12,21.9996 Z M12,15.9996 C9.794,15.9996 8,17.7936 8,19.9996 C8,22.2056 9.794,23.9996 12,23.9996 C14.206,23.9996 16,22.2056 16,19.9996 C16,17.7936 14.206,15.9996 12,15.9996 L12,15.9996 Z M44,32.9496 C44,34.0806 43.163,34.9996 42.121,34.9996 L37.988,35.0506 C37.44,35.0576 37,35.5036 37,36.0506 L37,40.2886 L31.455,35.2586 C31.271,35.0926 31.033,34.9996 30.785,34.9996 L6,34.9996 C4.831,34.9996 4,34.0306 4,32.9036 L4,9.0286 C4,7.9096 4.91,6.9996 6.029,6.9996 L41.971,6.9996 C43.09,6.9996 44,7.9096 44,9.0286 L44,32.9496 Z M41.971,4.9996 L6.029,4.9996 C3.807,4.9996 2,6.8066 2,9.0286 L2,32.9036 C2,35.1336 3.848,36.9486 6.118,36.9486 L30.396,36.9986 L37.328,43.2866 C37.516,43.4576 37.756,43.5456 38,43.5456 C38.137,43.5456 38.275,43.5176 38.405,43.4596 C38.767,43.2996 39,42.9416 39,42.5456 L39,37.0386 L42.133,36.9996 C44.265,36.9996 46,35.1826 46,32.9496 L46,9.0286 C46,6.8066 44.193,4.9996 41.971,4.9996 L41.971,4.9996 Z" id="Fill-1" fill="#000000"></path>
    </g><g transform="translate(25, 83)" id="svgGroup" stroke-linecap="round" fill-rule="evenodd" font-size="9pt" stroke="#000" stroke-width="0.25mm" fill="#000" style="stroke:#000;stroke-width:0.25mm;fill:#000"><path d="M 21.041 4.72 L 21.889 4.72 A 3.016 3.016 0 0 1 21.728 5.416 A 2.099 2.099 0 0 1 21.14 6.286 Q 20.509 6.838 19.463 6.838 A 2.553 2.553 0 0 1 18.594 6.696 A 2.194 2.194 0 0 1 17.646 6.025 A 2.789 2.789 0 0 1 17.085 4.901 Q 16.978 4.484 16.965 3.992 A 5.262 5.262 0 0 1 16.963 3.85 L 16.963 3.234 A 4.251 4.251 0 0 1 17.033 2.445 A 3.229 3.229 0 0 1 17.281 1.666 A 2.539 2.539 0 0 1 17.737 0.99 A 2.26 2.26 0 0 1 18.185 0.626 A 2.415 2.415 0 0 1 19.21 0.281 A 3.027 3.027 0 0 1 19.538 0.264 A 2.962 2.962 0 0 1 20.244 0.343 A 2.065 2.065 0 0 1 21.173 0.833 A 2.16 2.16 0 0 1 21.767 1.795 A 3.086 3.086 0 0 1 21.889 2.408 L 21.041 2.408 Q 20.972 1.929 20.802 1.616 A 1.223 1.223 0 0 0 20.564 1.301 A 1.207 1.207 0 0 0 20.059 1.024 Q 19.872 0.971 19.649 0.961 A 2.396 2.396 0 0 0 19.538 0.958 A 1.753 1.753 0 0 0 18.96 1.049 A 1.463 1.463 0 0 0 18.27 1.556 A 1.989 1.989 0 0 0 17.956 2.175 Q 17.811 2.636 17.811 3.256 L 17.811 3.876 Q 17.811 4.917 18.246 5.533 A 1.38 1.38 0 0 0 19.245 6.135 A 1.814 1.814 0 0 0 19.463 6.148 A 2.497 2.497 0 0 0 19.871 6.117 Q 20.09 6.08 20.266 6.002 A 1.155 1.155 0 0 0 20.542 5.829 Q 20.918 5.511 21.041 4.72 Z M 23.726 0 L 23.726 2.571 A 1.767 1.767 0 0 1 24.392 2.053 A 1.832 1.832 0 0 1 25.132 1.907 A 1.905 1.905 0 0 1 25.766 2.004 Q 26.608 2.3 26.651 3.506 A 3.668 3.668 0 0 1 26.653 3.608 L 26.653 6.75 L 25.84 6.75 L 25.84 3.604 A 1.837 1.837 0 0 0 25.818 3.324 Q 25.767 3.017 25.605 2.843 Q 25.419 2.645 25.065 2.606 A 1.66 1.66 0 0 0 24.886 2.597 A 1.253 1.253 0 0 0 24.472 2.664 A 1.123 1.123 0 0 0 24.192 2.808 A 1.432 1.432 0 0 0 23.726 3.362 L 23.726 6.75 L 22.913 6.75 L 22.913 0 L 23.726 0 Z M 67.096 6.75 L 65.439 4.548 L 64.929 5.08 L 64.929 6.75 L 64.116 6.75 L 64.116 0 L 64.929 0 L 64.929 4.083 L 65.364 3.56 L 66.845 1.995 L 67.834 1.995 L 65.984 3.981 L 68.049 6.75 L 67.096 6.75 Z M 3.74 6.75 L 2.351 4.162 L 0.848 4.162 L 0.848 6.75 L 0 6.75 L 0 0.352 L 2.118 0.352 A 3.809 3.809 0 0 1 2.76 0.402 Q 3.102 0.461 3.376 0.587 A 1.789 1.789 0 0 1 3.781 0.844 A 1.588 1.588 0 0 1 4.307 1.732 A 2.453 2.453 0 0 1 4.364 2.276 A 1.864 1.864 0 0 1 4.273 2.868 A 1.64 1.64 0 0 1 4.041 3.318 A 1.849 1.849 0 0 1 3.382 3.875 A 2.342 2.342 0 0 1 3.142 3.981 L 4.645 6.697 L 4.645 6.75 L 3.74 6.75 Z M 13.724 3.393 L 12.907 3.393 Q 12.907 3.059 12.623 2.817 Q 12.34 2.575 11.909 2.575 Q 11.465 2.575 11.215 2.769 A 0.653 0.653 0 0 0 11.04 2.967 Q 10.967 3.098 10.964 3.263 A 0.771 0.771 0 0 0 10.964 3.274 A 0.588 0.588 0 0 0 10.994 3.467 A 0.48 0.48 0 0 0 11.197 3.718 A 1.093 1.093 0 0 0 11.348 3.796 Q 11.512 3.868 11.767 3.937 A 6.581 6.581 0 0 0 12.039 4.003 A 6.318 6.318 0 0 1 12.446 4.108 Q 12.783 4.208 13.025 4.329 A 1.901 1.901 0 0 1 13.281 4.481 Q 13.418 4.579 13.516 4.692 A 1.06 1.06 0 0 1 13.586 4.783 A 1.024 1.024 0 0 1 13.748 5.191 A 1.388 1.388 0 0 1 13.768 5.432 Q 13.768 6.069 13.258 6.453 Q 12.776 6.817 12.022 6.837 A 3.337 3.337 0 0 1 11.936 6.838 A 2.746 2.746 0 0 1 11.401 6.788 A 2.124 2.124 0 0 1 10.925 6.636 A 1.771 1.771 0 0 1 10.491 6.358 A 1.54 1.54 0 0 1 10.237 6.071 Q 9.989 5.708 9.989 5.287 L 10.802 5.287 A 0.932 0.932 0 0 0 10.875 5.612 A 0.827 0.827 0 0 0 11.129 5.935 A 1.072 1.072 0 0 0 11.531 6.128 Q 11.686 6.167 11.867 6.173 A 2.013 2.013 0 0 0 11.936 6.174 A 1.863 1.863 0 0 0 12.231 6.152 Q 12.393 6.126 12.524 6.07 A 0.941 0.941 0 0 0 12.676 5.988 A 0.689 0.689 0 0 0 12.841 5.837 A 0.554 0.554 0 0 0 12.955 5.489 A 0.698 0.698 0 0 0 12.919 5.258 A 0.581 0.581 0 0 0 12.707 4.977 A 1.05 1.05 0 0 0 12.538 4.878 Q 12.349 4.788 12.054 4.712 A 5.392 5.392 0 0 0 11.841 4.663 A 6.342 6.342 0 0 1 11.48 4.575 Q 11.11 4.473 10.861 4.346 Q 10.562 4.194 10.392 3.994 A 1.017 1.017 0 0 1 10.325 3.907 Q 10.151 3.652 10.151 3.3 A 1.206 1.206 0 0 1 10.55 2.396 A 1.694 1.694 0 0 1 10.646 2.312 A 1.752 1.752 0 0 1 11.429 1.952 A 2.471 2.471 0 0 1 11.909 1.907 A 2.559 2.559 0 0 1 12.473 1.966 A 1.757 1.757 0 0 1 13.221 2.325 Q 13.724 2.742 13.724 3.393 Z M 31.658 6.75 L 30.806 6.75 A 0.632 0.632 0 0 1 30.77 6.66 Q 30.739 6.562 30.714 6.41 A 3.997 3.997 0 0 1 30.691 6.249 Q 30.125 6.838 29.338 6.838 A 2.033 2.033 0 0 1 28.809 6.772 A 1.529 1.529 0 0 1 28.184 6.44 Q 27.734 6.042 27.734 5.432 Q 27.734 4.689 28.299 4.278 Q 28.863 3.867 29.887 3.867 L 30.678 3.867 L 30.678 3.494 A 1.152 1.152 0 0 0 30.642 3.199 A 0.828 0.828 0 0 0 30.423 2.815 Q 30.207 2.6 29.817 2.568 A 1.748 1.748 0 0 0 29.672 2.562 Q 29.237 2.562 28.942 2.782 Q 28.648 3.001 28.648 3.313 L 27.831 3.313 A 1.041 1.041 0 0 1 27.955 2.825 A 1.409 1.409 0 0 1 28.083 2.626 Q 28.336 2.294 28.769 2.101 A 2.249 2.249 0 0 1 29.544 1.913 A 2.669 2.669 0 0 1 29.72 1.907 A 2.65 2.65 0 0 1 30.238 1.955 Q 30.545 2.016 30.784 2.156 A 1.439 1.439 0 0 1 31.008 2.318 A 1.396 1.396 0 0 1 31.461 3.144 A 1.998 1.998 0 0 1 31.491 3.45 L 31.491 5.638 Q 31.491 6.073 31.565 6.39 A 1.707 1.707 0 0 0 31.658 6.68 L 31.658 6.75 Z M 59.959 6.75 L 59.106 6.75 A 0.632 0.632 0 0 1 59.071 6.66 Q 59.04 6.562 59.015 6.41 A 3.997 3.997 0 0 1 58.992 6.249 Q 58.425 6.838 57.639 6.838 A 2.033 2.033 0 0 1 57.109 6.772 A 1.529 1.529 0 0 1 56.485 6.44 Q 56.035 6.042 56.035 5.432 Q 56.035 4.689 56.599 4.278 Q 57.164 3.867 58.188 3.867 L 58.979 3.867 L 58.979 3.494 A 1.152 1.152 0 0 0 58.943 3.199 A 0.828 0.828 0 0 0 58.724 2.815 Q 58.508 2.6 58.117 2.568 A 1.748 1.748 0 0 0 57.973 2.562 Q 57.538 2.562 57.243 2.782 Q 56.949 3.001 56.949 3.313 L 56.131 3.313 A 1.041 1.041 0 0 1 56.256 2.825 A 1.409 1.409 0 0 1 56.384 2.626 Q 56.637 2.294 57.07 2.101 A 2.249 2.249 0 0 1 57.845 1.913 A 2.669 2.669 0 0 1 58.021 1.907 A 2.65 2.65 0 0 1 58.538 1.955 Q 58.846 2.016 59.084 2.156 A 1.439 1.439 0 0 1 59.309 2.318 A 1.396 1.396 0 0 1 59.762 3.144 A 1.998 1.998 0 0 1 59.792 3.45 L 59.792 5.638 Q 59.792 6.073 59.866 6.39 A 1.707 1.707 0 0 0 59.959 6.68 L 59.959 6.75 Z M 5.212 4.504 L 5.212 4.355 A 3.17 3.17 0 0 1 5.288 3.646 A 2.581 2.581 0 0 1 5.482 3.092 A 2.191 2.191 0 0 1 5.93 2.466 A 2.033 2.033 0 0 1 6.238 2.221 Q 6.724 1.907 7.291 1.907 A 2.254 2.254 0 0 1 7.904 1.986 A 1.639 1.639 0 0 1 8.732 2.518 Q 9.246 3.129 9.246 4.267 L 9.246 4.605 L 6.025 4.605 A 2.111 2.111 0 0 0 6.096 5.114 A 1.516 1.516 0 0 0 6.436 5.741 A 1.282 1.282 0 0 0 7.37 6.173 A 1.652 1.652 0 0 0 7.436 6.174 A 1.763 1.763 0 0 0 7.764 6.145 Q 7.988 6.103 8.165 5.999 A 1.827 1.827 0 0 0 8.674 5.551 A 2.068 2.068 0 0 0 8.688 5.533 L 9.185 5.919 A 1.926 1.926 0 0 1 7.785 6.811 A 2.749 2.749 0 0 1 7.392 6.838 A 2.394 2.394 0 0 1 6.64 6.725 A 1.974 1.974 0 0 1 5.818 6.203 Q 5.212 5.568 5.212 4.504 Z M 41.282 0.352 L 41.282 4.601 L 42.17 4.601 L 42.17 5.265 L 41.282 5.265 L 41.282 6.75 L 40.465 6.75 L 40.465 5.265 L 37.551 5.265 L 37.551 4.786 L 40.417 0.352 L 41.282 0.352 Z M 52.167 6.75 L 50.396 6.75 L 50.396 0.352 L 52.203 0.352 Q 53.038 0.352 53.679 0.721 Q 54.321 1.09 54.67 1.771 A 3.19 3.19 0 0 1 54.987 2.8 A 4.073 4.073 0 0 1 55.024 3.335 L 55.024 3.744 Q 55.024 4.649 54.675 5.331 A 2.457 2.457 0 0 1 53.677 6.376 Q 53.029 6.741 52.167 6.75 Z M 46.68 2.592 A 1.544 1.544 0 0 0 46.784 2.021 A 2.226 2.226 0 0 0 46.763 1.707 A 1.566 1.566 0 0 0 46.263 0.738 A 1.754 1.754 0 0 0 45.498 0.333 A 2.443 2.443 0 0 0 44.899 0.264 A 2.539 2.539 0 0 0 44.389 0.312 A 1.767 1.767 0 0 0 43.532 0.738 Q 43.014 1.213 43.014 2.021 A 1.808 1.808 0 0 0 43.014 2.058 A 1.499 1.499 0 0 0 43.26 2.87 A 1.626 1.626 0 0 0 43.422 3.077 A 1.726 1.726 0 0 0 43.932 3.454 A 2.119 2.119 0 0 0 43.833 3.5 A 1.738 1.738 0 0 0 43.148 4.087 A 1.629 1.629 0 0 0 42.864 5.023 A 2.272 2.272 0 0 0 42.874 5.237 A 1.63 1.63 0 0 0 43.42 6.344 A 1.895 1.895 0 0 0 44.271 6.771 A 2.797 2.797 0 0 0 44.899 6.838 A 2.796 2.796 0 0 0 45.498 6.777 A 1.925 1.925 0 0 0 46.373 6.346 A 1.578 1.578 0 0 0 46.848 5.62 A 1.989 1.989 0 0 0 46.934 5.023 A 1.581 1.581 0 0 0 46.641 4.087 Q 46.349 3.674 45.848 3.458 Q 46.279 3.248 46.531 2.874 A 1.449 1.449 0 0 0 46.68 2.592 Z M 33.056 0.844 L 33.869 0.844 L 33.869 1.995 L 34.756 1.995 L 34.756 2.624 L 33.869 2.624 L 33.869 5.572 Q 33.869 5.858 33.987 6.001 Q 34.106 6.144 34.392 6.144 A 1.046 1.046 0 0 0 34.489 6.138 Q 34.592 6.129 34.732 6.101 A 4.024 4.024 0 0 0 34.778 6.091 L 34.778 6.75 A 2.463 2.463 0 0 1 34.346 6.829 A 2.157 2.157 0 0 1 34.154 6.838 Q 33.707 6.838 33.441 6.616 A 0.856 0.856 0 0 1 33.333 6.508 Q 33.105 6.238 33.064 5.78 A 2.351 2.351 0 0 1 33.056 5.572 L 33.056 2.624 L 32.19 2.624 L 32.19 1.995 L 33.056 1.995 L 33.056 0.844 Z M 63.365 1.969 L 63.365 2.725 A 2.251 2.251 0 0 0 63.122 2.698 A 2.782 2.782 0 0 0 62.965 2.694 Q 62.187 2.694 61.895 3.338 A 1.445 1.445 0 0 0 61.879 3.375 L 61.879 6.75 L 61.066 6.75 L 61.066 1.995 L 61.857 1.995 L 61.871 2.544 Q 62.251 1.938 62.934 1.909 A 1.636 1.636 0 0 1 63.004 1.907 Q 63.242 1.907 63.365 1.969 Z M 52.225 1.046 L 51.24 1.046 L 51.24 6.06 L 52.128 6.06 A 2.519 2.519 0 0 0 52.76 5.985 A 1.747 1.747 0 0 0 53.646 5.454 Q 54.105 4.94 54.176 4.059 A 4.165 4.165 0 0 0 54.189 3.727 L 54.189 3.353 Q 54.189 2.562 53.919 2.027 A 1.864 1.864 0 0 0 53.677 1.659 A 1.687 1.687 0 0 0 52.681 1.09 A 2.499 2.499 0 0 0 52.225 1.046 Z M 0.848 1.046 L 0.848 3.472 L 2.145 3.472 Q 2.685 3.472 3.035 3.231 A 1.174 1.174 0 0 0 3.144 3.146 A 1.069 1.069 0 0 0 3.51 2.409 A 1.486 1.486 0 0 0 3.516 2.276 Q 3.516 1.734 3.22 1.423 A 1 1 0 0 0 3.162 1.367 Q 2.808 1.05 2.14 1.046 L 0.848 1.046 Z M 40.368 1.639 L 38.474 4.601 L 40.465 4.601 L 40.465 1.463 L 40.368 1.639 Z M 46.121 5.005 A 1.375 1.375 0 0 0 46.061 4.592 A 1.109 1.109 0 0 0 45.78 4.131 A 1.148 1.148 0 0 0 45.109 3.807 A 1.593 1.593 0 0 0 44.89 3.792 A 1.466 1.466 0 0 0 44.501 3.841 A 1.086 1.086 0 0 0 44.009 4.126 A 1.123 1.123 0 0 0 43.695 4.762 A 1.572 1.572 0 0 0 43.677 5.005 A 1.48 1.48 0 0 0 43.719 5.367 A 1.019 1.019 0 0 0 44 5.862 Q 44.306 6.158 44.839 6.173 A 2.053 2.053 0 0 0 44.899 6.174 Q 45.393 6.174 45.703 5.94 A 1.018 1.018 0 0 0 45.795 5.86 A 1.041 1.041 0 0 0 46.095 5.292 A 1.518 1.518 0 0 0 46.121 5.005 Z M 44.899 0.932 A 1.259 1.259 0 0 0 44.546 0.979 A 0.973 0.973 0 0 0 44.123 1.228 Q 43.827 1.525 43.827 2.035 A 1.325 1.325 0 0 0 43.871 2.387 A 0.994 0.994 0 0 0 44.119 2.823 A 0.974 0.974 0 0 0 44.681 3.108 A 1.382 1.382 0 0 0 44.899 3.125 A 1.279 1.279 0 0 0 45.244 3.08 A 0.952 0.952 0 0 0 45.679 2.823 A 1.018 1.018 0 0 0 45.954 2.26 A 1.426 1.426 0 0 0 45.971 2.035 A 1.282 1.282 0 0 0 45.921 1.668 A 1.013 1.013 0 0 0 45.668 1.239 Q 45.365 0.932 44.899 0.932 Z M 30.678 5.418 L 30.678 4.443 L 30.041 4.443 Q 28.547 4.443 28.547 5.317 Q 28.547 5.7 28.802 5.915 A 0.893 0.893 0 0 0 29.215 6.108 A 1.259 1.259 0 0 0 29.457 6.13 A 1.429 1.429 0 0 0 30.182 5.933 A 1.335 1.335 0 0 0 30.477 5.705 A 1.108 1.108 0 0 0 30.678 5.418 Z M 58.979 5.418 L 58.979 4.443 L 58.342 4.443 Q 56.848 4.443 56.848 5.317 Q 56.848 5.7 57.103 5.915 A 0.893 0.893 0 0 0 57.516 6.108 A 1.259 1.259 0 0 0 57.757 6.13 A 1.429 1.429 0 0 0 58.482 5.933 A 1.335 1.335 0 0 0 58.778 5.705 A 1.108 1.108 0 0 0 58.979 5.418 Z M 6.051 3.938 L 8.433 3.938 L 8.433 3.876 Q 8.407 3.417 8.236 3.111 A 1.13 1.13 0 0 0 8.099 2.916 A 0.983 0.983 0 0 0 7.445 2.584 A 1.39 1.39 0 0 0 7.291 2.575 A 1.106 1.106 0 0 0 6.768 2.698 A 1.14 1.14 0 0 0 6.464 2.933 A 1.417 1.417 0 0 0 6.188 3.379 Q 6.114 3.563 6.074 3.785 A 2.741 2.741 0 0 0 6.051 3.938 Z" vector-effect="non-scaling-stroke"/></g>
</svgversion="1.0" encoding="UTF-8"?>
<svg width="48px" height="48px" viewBox="0 0 48 48" version="1.1" xmlns="http://www.w3.org/2000/svg" xmlns:xlink="http://www.w3.org/1999/xlink">
    <title>Icon-Resource/General-Resource/Res_Chat_48_Dark</title>
    <g id="Icon-Resource/General-Resource/Res_Chat_48" stroke="none" stroke-width="1" fill="none" fill-rule="evenodd">
        <path transform="translate(12.000000, 8.000000), scale(.65)" d="M36,21.9996 C34.897,21.9996 34,21.1026 34,19.9996 C34,18.8966 34.897,17.9996 36,17.9996 C37.103,17.9996 38,18.8966 38,19.9996 C38,21.1026 37.103,21.9996 36,21.9996 L36,21.9996 Z M36,15.9996 C33.794,15.9996 32,17.7936 32,19.9996 C32,22.2056 33.794,23.9996 36,23.9996 C38.206,23.9996 40,22.2056 40,19.9996 C40,17.7936 38.206,15.9996 36,15.9996 L36,15.9996 Z M24,21.9996 C22.897,21.9996 22,21.1026 22,19.9996 C22,18.8966 22.897,17.9996 24,17.9996 C25.103,17.9996 26,18.8966 26,19.9996 C26,21.1026 25.103,21.9996 24,21.9996 L24,21.9996 Z M24,15.9996 C21.794,15.9996 20,17.7936 20,19.9996 C20,22.2056 21.794,23.9996 24,23.9996 C26.206,23.9996 28,22.2056 28,19.9996 C28,17.7936 26.206,15.9996 24,15.9996 L24,15.9996 Z M12,21.9996 C10.897,21.9996 10,21.1026 10,19.9996 C10,18.8966 10.897,17.9996 12,17.9996 C13.103,17.9996 14,18.8966 14,19.9996 C14,21.1026 13.103,21.9996 12,21.9996 L12,21.9996 Z M12,15.9996 C9.794,15.9996 8,17.7936 8,19.9996 C8,22.2056 9.794,23.9996 12,23.9996 C14.206,23.9996 16,22.2056 16,19.9996 C16,17.7936 14.206,15.9996 12,15.9996 L12,15.9996 Z M44,32.9496 C44,34.0806 43.163,34.9996 42.121,34.9996 L37.988,35.0506 C37.44,35.0576 37,35.5036 37,36.0506 L37,40.2886 L31.455,35.2586 C31.271,35.0926 31.033,34.9996 30.785,34.9996 L6,34.9996 C4.831,34.9996 4,34.0306 4,32.9036 L4,9.0286 C4,7.9096 4.91,6.9996 6.029,6.9996 L41.971,6.9996 C43.09,6.9996 44,7.9096 44,9.0286 L44,32.9496 Z M41.971,4.9996 L6.029,4.9996 C3.807,4.9996 2,6.8066 2,9.0286 L2,32.9036 C2,35.1336 3.848,36.9486 6.118,36.9486 L30.396,36.9986 L37.328,43.2866 C37.516,43.4576 37.756,43.5456 38,43.5456 C38.137,43.5456 38.275,43.5176 38.405,43.4596 C38.767,43.2996 39,42.9416 39,42.5456 L39,37.0386 L42.133,36.9996 C44.265,36.9996 46,35.1826 46,32.9496 L46,9.0286 C46,6.8066 44.193,4.9996 41.971,4.9996 L41.971,4.9996 Z" id="Fill-1" fill="#000000"></path>
    </g><g transform="translate(25, 83)" id="svgGroup" stroke-linecap="round" fill-rule="evenodd" font-size="9pt" stroke="#000" stroke-width="0.25mm" fill="#000" style="stroke:#000;stroke-width:0.25mm;fill:#000"><path d="M 21.041 4.72 L 21.889 4.72 A 3.016 3.016 0 0 1 21.728 5.416 A 2.099 2.099 0 0 1 21.14 6.286 Q 20.509 6.838 19.463 6.838 A 2.553 2.553 0 0 1 18.594 6.696 A 2.194 2.194 0 0 1 17.646 6.025 A 2.789 2.789 0 0 1 17.085 4.901 Q 16.978 4.484 16.965 3.992 A 5.262 5.262 0 0 1 16.963 3.85 L 16.963 3.234 A 4.251 4.251 0 0 1 17.033 2.445 A 3.229 3.229 0 0 1 17.281 1.666 A 2.539 2.539 0 0 1 17.737 0.99 A 2.26 2.26 0 0 1 18.185 0.626 A 2.415 2.415 0 0 1 19.21 0.281 A 3.027 3.027 0 0 1 19.538 0.264 A 2.962 2.962 0 0 1 20.244 0.343 A 2.065 2.065 0 0 1 21.173 0.833 A 2.16 2.16 0 0 1 21.767 1.795 A 3.086 3.086 0 0 1 21.889 2.408 L 21.041 2.408 Q 20.972 1.929 20.802 1.616 A 1.223 1.223 0 0 0 20.564 1.301 A 1.207 1.207 0 0 0 20.059 1.024 Q 19.872 0.971 19.649 0.961 A 2.396 2.396 0 0 0 19.538 0.958 A 1.753 1.753 0 0 0 18.96 1.049 A 1.463 1.463 0 0 0 18.27 1.556 A 1.989 1.989 0 0 0 17.956 2.175 Q 17.811 2.636 17.811 3.256 L 17.811 3.876 Q 17.811 4.917 18.246 5.533 A 1.38 1.38 0 0 0 19.245 6.135 A 1.814 1.814 0 0 0 19.463 6.148 A 2.497 2.497 0 0 0 19.871 6.117 Q 20.09 6.08 20.266 6.002 A 1.155 1.155 0 0 0 20.542 5.829 Q 20.918 5.511 21.041 4.72 Z M 23.726 0 L 23.726 2.571 A 1.767 1.767 0 0 1 24.392 2.053 A 1.832 1.832 0 0 1 25.132 1.907 A 1.905 1.905 0 0 1 25.766 2.004 Q 26.608 2.3 26.651 3.506 A 3.668 3.668 0 0 1 26.653 3.608 L 26.653 6.75 L 25.84 6.75 L 25.84 3.604 A 1.837 1.837 0 0 0 25.818 3.324 Q 25.767 3.017 25.605 2.843 Q 25.419 2.645 25.065 2.606 A 1.66 1.66 0 0 0 24.886 2.597 A 1.253 1.253 0 0 0 24.472 2.664 A 1.123 1.123 0 0 0 24.192 2.808 A 1.432 1.432 0 0 0 23.726 3.362 L 23.726 6.75 L 22.913 6.75 L 22.913 0 L 23.726 0 Z M 67.096 6.75 L 65.439 4.548 L 64.929 5.08 L 64.929 6.75 L 64.116 6.75 L 64.116 0 L 64.929 0 L 64.929 4.083 L 65.364 3.56 L 66.845 1.995 L 67.834 1.995 L 65.984 3.981 L 68.049 6.75 L 67.096 6.75 Z M 3.74 6.75 L 2.351 4.162 L 0.848 4.162 L 0.848 6.75 L 0 6.75 L 0 0.352 L 2.118 0.352 A 3.809 3.809 0 0 1 2.76 0.402 Q 3.102 0.461 3.376 0.587 A 1.789 1.789 0 0 1 3.781 0.844 A 1.588 1.588 0 0 1 4.307 1.732 A 2.453 2.453 0 0 1 4.364 2.276 A 1.864 1.864 0 0 1 4.273 2.868 A 1.64 1.64 0 0 1 4.041 3.318 A 1.849 1.849 0 0 1 3.382 3.875 A 2.342 2.342 0 0 1 3.142 3.981 L 4.645 6.697 L 4.645 6.75 L 3.74 6.75 Z M 13.724 3.393 L 12.907 3.393 Q 12.907 3.059 12.623 2.817 Q 12.34 2.575 11.909 2.575 Q 11.465 2.575 11.215 2.769 A 0.653 0.653 0 0 0 11.04 2.967 Q 10.967 3.098 10.964 3.263 A 0.771 0.771 0 0 0 10.964 3.274 A 0.588 0.588 0 0 0 10.994 3.467 A 0.48 0.48 0 0 0 11.197 3.718 A 1.093 1.093 0 0 0 11.348 3.796 Q 11.512 3.868 11.767 3.937 A 6.581 6.581 0 0 0 12.039 4.003 A 6.318 6.318 0 0 1 12.446 4.108 Q 12.783 4.208 13.025 4.329 A 1.901 1.901 0 0 1 13.281 4.481 Q 13.418 4.579 13.516 4.692 A 1.06 1.06 0 0 1 13.586 4.783 A 1.024 1.024 0 0 1 13.748 5.191 A 1.388 1.388 0 0 1 13.768 5.432 Q 13.768 6.069 13.258 6.453 Q 12.776 6.817 12.022 6.837 A 3.337 3.337 0 0 1 11.936 6.838 A 2.746 2.746 0 0 1 11.401 6.788 A 2.124 2.124 0 0 1 10.925 6.636 A 1.771 1.771 0 0 1 10.491 6.358 A 1.54 1.54 0 0 1 10.237 6.071 Q 9.989 5.708 9.989 5.287 L 10.802 5.287 A 0.932 0.932 0 0 0 10.875 5.612 A 0.827 0.827 0 0 0 11.129 5.935 A 1.072 1.072 0 0 0 11.531 6.128 Q 11.686 6.167 11.867 6.173 A 2.013 2.013 0 0 0 11.936 6.174 A 1.863 1.863 0 0 0 12.231 6.152 Q 12.393 6.126 12.524 6.07 A 0.941 0.941 0 0 0 12.676 5.988 A 0.689 0.689 0 0 0 12.841 5.837 A 0.554 0.554 0 0 0 12.955 5.489 A 0.698 0.698 0 0 0 12.919 5.258 A 0.581 0.581 0 0 0 12.707 4.977 A 1.05 1.05 0 0 0 12.538 4.878 Q 12.349 4.788 12.054 4.712 A 5.392 5.392 0 0 0 11.841 4.663 A 6.342 6.342 0 0 1 11.48 4.575 Q 11.11 4.473 10.861 4.346 Q 10.562 4.194 10.392 3.994 A 1.017 1.017 0 0 1 10.325 3.907 Q 10.151 3.652 10.151 3.3 A 1.206 1.206 0 0 1 10.55 2.396 A 1.694 1.694 0 0 1 10.646 2.312 A 1.752 1.752 0 0 1 11.429 1.952 A 2.471 2.471 0 0 1 11.909 1.907 A 2.559 2.559 0 0 1 12.473 1.966 A 1.757 1.757 0 0 1 13.221 2.325 Q 13.724 2.742 13.724 3.393 Z M 31.658 6.75 L 30.806 6.75 A 0.632 0.632 0 0 1 30.77 6.66 Q 30.739 6.562 30.714 6.41 A 3.997 3.997 0 0 1 30.691 6.249 Q 30.125 6.838 29.338 6.838 A 2.033 2.033 0 0 1 28.809 6.772 A 1.529 1.529 0 0 1 28.184 6.44 Q 27.734 6.042 27.734 5.432 Q 27.734 4.689 28.299 4.278 Q 28.863 3.867 29.887 3.867 L 30.678 3.867 L 30.678 3.494 A 1.152 1.152 0 0 0 30.642 3.199 A 0.828 0.828 0 0 0 30.423 2.815 Q 30.207 2.6 29.817 2.568 A 1.748 1.748 0 0 0 29.672 2.562 Q 29.237 2.562 28.942 2.782 Q 28.648 3.001 28.648 3.313 L 27.831 3.313 A 1.041 1.041 0 0 1 27.955 2.825 A 1.409 1.409 0 0 1 28.083 2.626 Q 28.336 2.294 28.769 2.101 A 2.249 2.249 0 0 1 29.544 1.913 A 2.669 2.669 0 0 1 29.72 1.907 A 2.65 2.65 0 0 1 30.238 1.955 Q 30.545 2.016 30.784 2.156 A 1.439 1.439 0 0 1 31.008 2.318 A 1.396 1.396 0 0 1 31.461 3.144 A 1.998 1.998 0 0 1 31.491 3.45 L 31.491 5.638 Q 31.491 6.073 31.565 6.39 A 1.707 1.707 0 0 0 31.658 6.68 L 31.658 6.75 Z M 59.959 6.75 L 59.106 6.75 A 0.632 0.632 0 0 1 59.071 6.66 Q 59.04 6.562 59.015 6.41 A 3.997 3.997 0 0 1 58.992 6.249 Q 58.425 6.838 57.639 6.838 A 2.033 2.033 0 0 1 57.109 6.772 A 1.529 1.529 0 0 1 56.485 6.44 Q 56.035 6.042 56.035 5.432 Q 56.035 4.689 56.599 4.278 Q 57.164 3.867 58.188 3.867 L 58.979 3.867 L 58.979 3.494 A 1.152 1.152 0 0 0 58.943 3.199 A 0.828 0.828 0 0 0 58.724 2.815 Q 58.508 2.6 58.117 2.568 A 1.748 1.748 0 0 0 57.973 2.562 Q 57.538 2.562 57.243 2.782 Q 56.949 3.001 56.949 3.313 L 56.131 3.313 A 1.041 1.041 0 0 1 56.256 2.825 A 1.409 1.409 0 0 1 56.384 2.626 Q 56.637 2.294 57.07 2.101 A 2.249 2.249 0 0 1 57.845 1.913 A 2.669 2.669 0 0 1 58.021 1.907 A 2.65 2.65 0 0 1 58.538 1.955 Q 58.846 2.016 59.084 2.156 A 1.439 1.439 0 0 1 59.309 2.318 A 1.396 1.396 0 0 1 59.762 3.144 A 1.998 1.998 0 0 1 59.792 3.45 L 59.792 5.638 Q 59.792 6.073 59.866 6.39 A 1.707 1.707 0 0 0 59.959 6.68 L 59.959 6.75 Z M 5.212 4.504 L 5.212 4.355 A 3.17 3.17 0 0 1 5.288 3.646 A 2.581 2.581 0 0 1 5.482 3.092 A 2.191 2.191 0 0 1 5.93 2.466 A 2.033 2.033 0 0 1 6.238 2.221 Q 6.724 1.907 7.291 1.907 A 2.254 2.254 0 0 1 7.904 1.986 A 1.639 1.639 0 0 1 8.732 2.518 Q 9.246 3.129 9.246 4.267 L 9.246 4.605 L 6.025 4.605 A 2.111 2.111 0 0 0 6.096 5.114 A 1.516 1.516 0 0 0 6.436 5.741 A 1.282 1.282 0 0 0 7.37 6.173 A 1.652 1.652 0 0 0 7.436 6.174 A 1.763 1.763 0 0 0 7.764 6.145 Q 7.988 6.103 8.165 5.999 A 1.827 1.827 0 0 0 8.674 5.551 A 2.068 2.068 0 0 0 8.688 5.533 L 9.185 5.919 A 1.926 1.926 0 0 1 7.785 6.811 A 2.749 2.749 0 0 1 7.392 6.838 A 2.394 2.394 0 0 1 6.64 6.725 A 1.974 1.974 0 0 1 5.818 6.203 Q 5.212 5.568 5.212 4.504 Z M 41.282 0.352 L 41.282 4.601 L 42.17 4.601 L 42.17 5.265 L 41.282 5.265 L 41.282 6.75 L 40.465 6.75 L 40.465 5.265 L 37.551 5.265 L 37.551 4.786 L 40.417 0.352 L 41.282 0.352 Z M 52.167 6.75 L 50.396 6.75 L 50.396 0.352 L 52.203 0.352 Q 53.038 0.352 53.679 0.721 Q 54.321 1.09 54.67 1.771 A 3.19 3.19 0 0 1 54.987 2.8 A 4.073 4.073 0 0 1 55.024 3.335 L 55.024 3.744 Q 55.024 4.649 54.675 5.331 A 2.457 2.457 0 0 1 53.677 6.376 Q 53.029 6.741 52.167 6.75 Z M 46.68 2.592 A 1.544 1.544 0 0 0 46.784 2.021 A 2.226 2.226 0 0 0 46.763 1.707 A 1.566 1.566 0 0 0 46.263 0.738 A 1.754 1.754 0 0 0 45.498 0.333 A 2.443 2.443 0 0 0 44.899 0.264 A 2.539 2.539 0 0 0 44.389 0.312 A 1.767 1.767 0 0 0 43.532 0.738 Q 43.014 1.213 43.014 2.021 A 1.808 1.808 0 0 0 43.014 2.058 A 1.499 1.499 0 0 0 43.26 2.87 A 1.626 1.626 0 0 0 43.422 3.077 A 1.726 1.726 0 0 0 43.932 3.454 A 2.119 2.119 0 0 0 43.833 3.5 A 1.738 1.738 0 0 0 43.148 4.087 A 1.629 1.629 0 0 0 42.864 5.023 A 2.272 2.272 0 0 0 42.874 5.237 A 1.63 1.63 0 0 0 43.42 6.344 A 1.895 1.895 0 0 0 44.271 6.771 A 2.797 2.797 0 0 0 44.899 6.838 A 2.796 2.796 0 0 0 45.498 6.777 A 1.925 1.925 0 0 0 46.373 6.346 A 1.578 1.578 0 0 0 46.848 5.62 A 1.989 1.989 0 0 0 46.934 5.023 A 1.581 1.581 0 0 0 46.641 4.087 Q 46.349 3.674 45.848 3.458 Q 46.279 3.248 46.531 2.874 A 1.449 1.449 0 0 0 46.68 2.592 Z M 33.056 0.844 L 33.869 0.844 L 33.869 1.995 L 34.756 1.995 L 34.756 2.624 L 33.869 2.624 L 33.869 5.572 Q 33.869 5.858 33.987 6.001 Q 34.106 6.144 34.392 6.144 A 1.046 1.046 0 0 0 34.489 6.138 Q 34.592 6.129 34.732 6.101 A 4.024 4.024 0 0 0 34.778 6.091 L 34.778 6.75 A 2.463 2.463 0 0 1 34.346 6.829 A 2.157 2.157 0 0 1 34.154 6.838 Q 33.707 6.838 33.441 6.616 A 0.856 0.856 0 0 1 33.333 6.508 Q 33.105 6.238 33.064 5.78 A 2.351 2.351 0 0 1 33.056 5.572 L 33.056 2.624 L 32.19 2.624 L 32.19 1.995 L 33.056 1.995 L 33.056 0.844 Z M 63.365 1.969 L 63.365 2.725 A 2.251 2.251 0 0 0 63.122 2.698 A 2.782 2.782 0 0 0 62.965 2.694 Q 62.187 2.694 61.895 3.338 A 1.445 1.445 0 0 0 61.879 3.375 L 61.879 6.75 L 61.066 6.75 L 61.066 1.995 L 61.857 1.995 L 61.871 2.544 Q 62.251 1.938 62.934 1.909 A 1.636 1.636 0 0 1 63.004 1.907 Q 63.242 1.907 63.365 1.969 Z M 52.225 1.046 L 51.24 1.046 L 51.24 6.06 L 52.128 6.06 A 2.519 2.519 0 0 0 52.76 5.985 A 1.747 1.747 0 0 0 53.646 5.454 Q 54.105 4.94 54.176 4.059 A 4.165 4.165 0 0 0 54.189 3.727 L 54.189 3.353 Q 54.189 2.562 53.919 2.027 A 1.864 1.864 0 0 0 53.677 1.659 A 1.687 1.687 0 0 0 52.681 1.09 A 2.499 2.499 0 0 0 52.225 1.046 Z M 0.848 1.046 L 0.848 3.472 L 2.145 3.472 Q 2.685 3.472 3.035 3.231 A 1.174 1.174 0 0 0 3.144 3.146 A 1.069 1.069 0 0 0 3.51 2.409 A 1.486 1.486 0 0 0 3.516 2.276 Q 3.516 1.734 3.22 1.423 A 1 1 0 0 0 3.162 1.367 Q 2.808 1.05 2.14 1.046 L 0.848 1.046 Z M 40.368 1.639 L 38.474 4.601 L 40.465 4.601 L 40.465 1.463 L 40.368 1.639 Z M 46.121 5.005 A 1.375 1.375 0 0 0 46.061 4.592 A 1.109 1.109 0 0 0 45.78 4.131 A 1.148 1.148 0 0 0 45.109 3.807 A 1.593 1.593 0 0 0 44.89 3.792 A 1.466 1.466 0 0 0 44.501 3.841 A 1.086 1.086 0 0 0 44.009 4.126 A 1.123 1.123 0 0 0 43.695 4.762 A 1.572 1.572 0 0 0 43.677 5.005 A 1.48 1.48 0 0 0 43.719 5.367 A 1.019 1.019 0 0 0 44 5.862 Q 44.306 6.158 44.839 6.173 A 2.053 2.053 0 0 0 44.899 6.174 Q 45.393 6.174 45.703 5.94 A 1.018 1.018 0 0 0 45.795 5.86 A 1.041 1.041 0 0 0 46.095 5.292 A 1.518 1.518 0 0 0 46.121 5.005 Z M 44.899 0.932 A 1.259 1.259 0 0 0 44.546 0.979 A 0.973 0.973 0 0 0 44.123 1.228 Q 43.827 1.525 43.827 2.035 A 1.325 1.325 0 0 0 43.871 2.387 A 0.994 0.994 0 0 0 44.119 2.823 A 0.974 0.974 0 0 0 44.681 3.108 A 1.382 1.382 0 0 0 44.899 3.125 A 1.279 1.279 0 0 0 45.244 3.08 A 0.952 0.952 0 0 0 45.679 2.823 A 1.018 1.018 0 0 0 45.954 2.26 A 1.426 1.426 0 0 0 45.971 2.035 A 1.282 1.282 0 0 0 45.921 1.668 A 1.013 1.013 0 0 0 45.668 1.239 Q 45.365 0.932 44.899 0.932 Z M 30.678 5.418 L 30.678 4.443 L 30.041 4.443 Q 28.547 4.443 28.547 5.317 Q 28.547 5.7 28.802 5.915 A 0.893 0.893 0 0 0 29.215 6.108 A 1.259 1.259 0 0 0 29.457 6.13 A 1.429 1.429 0 0 0 30.182 5.933 A 1.335 1.335 0 0 0 30.477 5.705 A 1.108 1.108 0 0 0 30.678 5.418 Z M 58.979 5.418 L 58.979 4.443 L 58.342 4.443 Q 56.848 4.443 56.848 5.317 Q 56.848 5.7 57.103 5.915 A 0.893 0.893 0 0 0 57.516 6.108 A 1.259 1.259 0 0 0 57.757 6.13 A 1.429 1.429 0 0 0 58.482 5.933 A 1.335 1.335 0 0 0 58.778 5.705 A 1.108 1.108 0 0 0 58.979 5.418 Z M 6.051 3.938 L 8.433 3.938 L 8.433 3.876 Q 8.407 3.417 8.236 3.111 A 1.13 1.13 0 0 0 8.099 2.916 A 0.983 0.983 0 0 0 7.445 2.584 A 1.39 1.39 0 0 0 7.291 2.575 A 1.106 1.106 0 0 0 6.768 2.698 A 1.14 1.14 0 0 0 6.464 2.933 A 1.417 1.417 0 0 0 6.188 3.379 Q 6.114 3.563 6.074 3.785 A 2.741 2.741 0 0 0 6.051 3.938 Z" vector-effect="non-scaling-stroke"/></g>
</svg>