<?xml version="1.0" encoding="UTF-8"?>
<svg width="48px" height="48px" viewBox="0 0 48 48" version="1.1" xmlns="http://www.w3.org/2000/svg" xmlns:xlink="http://www.w3.org/1999/xlink">
    <title>Icon-Resource/Management-Governance/Res_AWS-Systems-Manager_Distributor_48_Light</title>
    <g id="Icon-Resource/Management-Governance/Res_AWS-Systems-Manager_Distributor_48" stroke="none" stroke-width="1" fill="none" fill-rule="evenodd">
        <path transform="translate(12.000000, 8.000000), scale(.65)" d="M19,18 L29,18 L29,16 L19,16 L19,18 Z M23.375,13.781 L18.375,9.781 L19.625,8.219 L23,10.919 L23,2 L25,2 L25,10.919 L28.375,8.219 L29.625,9.781 L24.625,13.781 C24.442,13.927 24.221,14 24,14 C23.779,14 23.558,13.927 23.375,13.781 L23.375,13.781 Z M29.061,31.174 L25.391,24.933 L39.623,17.335 L43.591,24.114 L29.061,31.174 Z M39,36.526 C37.558,37.472 31.153,40.581 25,43.436 L25,28.215 L27.805,32.984 C27.99,33.299 28.323,33.478 28.668,33.478 C28.815,33.478 28.964,33.445 29.105,33.377 L39,28.569 L39,36.526 Z M9,28.501 L18.891,33.375 C19.033,33.444 19.184,33.478 19.332,33.478 C19.677,33.478 20.01,33.3 20.195,32.984 L23,28.215 L23,43.383 L9,36.394 L9,28.501 Z M8.372,17.333 L22.609,24.933 L18.942,31.17 L4.411,24.011 L8.372,17.333 Z M45.863,24.036 L40.863,15.495 C40.771,15.338 40.636,15.23 40.488,15.146 L40.496,15.132 L33.496,11.132 L32.504,12.868 L37.933,15.97 L24,23.408 L10.178,16.029 L16.447,12.895 L15.553,11.105 L7.553,15.105 L7.561,15.121 C7.394,15.204 7.241,15.318 7.14,15.49 L2.14,23.92 C1.998,24.16 1.962,24.448 2.041,24.715 C2.121,24.982 2.308,25.204 2.558,25.327 L7,27.516 L7,37.013 C7,37.392 7.214,37.738 7.554,37.907 L23.554,45.895 L23.558,45.886 C23.697,45.956 23.847,46 24,46 C24.143,46 24.285,45.97 24.418,45.908 C41,38.274 41,37.754 41,36.967 L41,27.597 L45.438,25.441 C45.688,25.319 45.876,25.098 45.957,24.832 C46.038,24.565 46.004,24.277 45.863,24.036 L45.863,24.036 Z" id="Fill-1" fill="#000000"></path>
    </g><g transform="translate(25, 83)" id="svgGroup" stroke-linecap="round" fill-rule="evenodd" font-size="9pt" stroke="#000" stroke-width="0.25mm" fill="#000" style="stroke:#000;stroke-width:0.25mm;fill:#000"><path d="M 23.12 0.088 L 24.13 4.469 L 24.253 5.313 L 24.434 4.553 L 25.699 0.088 L 26.411 0.088 L 27.646 4.553 L 27.822 5.326 L 27.958 4.465 L 28.951 0.088 L 29.799 0.088 L 28.248 6.486 L 27.479 6.486 L 26.161 1.824 L 26.06 1.336 L 25.958 1.824 L 24.592 6.486 L 23.823 6.486 L 22.276 0.088 L 23.12 0.088 Z M 34.98 1.938 L 34.132 1.938 A 1.466 1.466 0 0 0 34.083 1.546 A 1.066 1.066 0 0 0 33.763 1.026 A 1.211 1.211 0 0 0 33.294 0.77 Q 33.042 0.694 32.722 0.694 A 2.286 2.286 0 0 0 32.342 0.724 Q 32.14 0.758 31.977 0.831 A 1.101 1.101 0 0 0 31.748 0.969 A 0.892 0.892 0 0 0 31.403 1.624 A 1.267 1.267 0 0 0 31.399 1.732 A 0.806 0.806 0 0 0 31.667 2.337 A 1.134 1.134 0 0 0 31.731 2.393 A 1.562 1.562 0 0 0 31.969 2.549 Q 32.299 2.73 32.86 2.887 A 8.228 8.228 0 0 1 33.325 3.032 Q 33.56 3.113 33.754 3.2 A 3.297 3.297 0 0 1 34.108 3.382 A 2.342 2.342 0 0 1 34.447 3.626 Q 34.637 3.792 34.759 3.985 A 1.45 1.45 0 0 1 34.776 4.012 A 1.498 1.498 0 0 1 34.972 4.568 A 1.948 1.948 0 0 1 34.994 4.86 A 1.606 1.606 0 0 1 34.871 5.497 Q 34.726 5.838 34.408 6.09 A 1.886 1.886 0 0 1 34.387 6.106 Q 33.781 6.574 32.766 6.574 A 3.023 3.023 0 0 1 31.625 6.36 A 2.917 2.917 0 0 1 31.535 6.322 A 2.383 2.383 0 0 1 31.057 6.044 A 1.874 1.874 0 0 1 30.654 5.629 A 1.689 1.689 0 0 1 30.344 4.632 L 31.192 4.632 A 1.261 1.261 0 0 0 31.262 5.059 A 1.074 1.074 0 0 0 31.621 5.548 Q 32.005 5.85 32.622 5.881 A 2.87 2.87 0 0 0 32.766 5.884 A 2.628 2.628 0 0 0 33.153 5.858 Q 33.349 5.828 33.508 5.767 A 1.129 1.129 0 0 0 33.79 5.612 Q 34.146 5.339 34.146 4.869 A 1.074 1.074 0 0 0 34.103 4.559 A 0.816 0.816 0 0 0 33.816 4.142 Q 33.486 3.885 32.621 3.634 Q 31.535 3.322 31.041 2.868 Q 30.546 2.413 30.546 1.745 Q 30.546 0.989 31.151 0.494 A 2.121 2.121 0 0 1 32.041 0.071 A 3.087 3.087 0 0 1 32.722 0 A 2.913 2.913 0 0 1 33.382 0.072 A 2.372 2.372 0 0 1 33.897 0.255 A 2.051 2.051 0 0 1 34.428 0.626 A 1.834 1.834 0 0 1 34.697 0.958 A 1.798 1.798 0 0 1 34.98 1.938 Z M 3.74 6.486 L 2.351 3.898 L 0.848 3.898 L 0.848 6.486 L 0 6.486 L 0 0.088 L 2.118 0.088 A 3.809 3.809 0 0 1 2.76 0.138 Q 3.102 0.197 3.376 0.324 A 1.789 1.789 0 0 1 3.781 0.58 A 1.588 1.588 0 0 1 4.307 1.469 A 2.453 2.453 0 0 1 4.364 2.013 A 1.864 1.864 0 0 1 4.273 2.604 A 1.64 1.64 0 0 1 4.041 3.054 A 1.849 1.849 0 0 1 3.382 3.611 A 2.342 2.342 0 0 1 3.142 3.718 L 4.645 6.434 L 4.645 6.486 L 3.74 6.486 Z M 13.724 3.129 L 12.907 3.129 Q 12.907 2.795 12.623 2.553 Q 12.34 2.312 11.909 2.312 Q 11.465 2.312 11.215 2.505 A 0.653 0.653 0 0 0 11.04 2.704 Q 10.967 2.835 10.964 3 A 0.771 0.771 0 0 0 10.964 3.01 A 0.588 0.588 0 0 0 10.994 3.203 A 0.48 0.48 0 0 0 11.197 3.454 A 1.093 1.093 0 0 0 11.348 3.533 Q 11.512 3.605 11.767 3.673 A 6.581 6.581 0 0 0 12.039 3.74 A 6.318 6.318 0 0 1 12.446 3.845 Q 12.783 3.944 13.025 4.065 A 1.901 1.901 0 0 1 13.281 4.218 Q 13.418 4.315 13.516 4.429 A 1.06 1.06 0 0 1 13.586 4.52 A 1.024 1.024 0 0 1 13.748 4.927 A 1.388 1.388 0 0 1 13.768 5.168 Q 13.768 5.805 13.258 6.19 Q 12.776 6.554 12.022 6.573 A 3.337 3.337 0 0 1 11.936 6.574 A 2.746 2.746 0 0 1 11.401 6.525 A 2.124 2.124 0 0 1 10.925 6.372 A 1.771 1.771 0 0 1 10.491 6.094 A 1.54 1.54 0 0 1 10.237 5.807 Q 9.989 5.445 9.989 5.023 L 10.802 5.023 A 0.932 0.932 0 0 0 10.875 5.348 A 0.827 0.827 0 0 0 11.129 5.671 A 1.072 1.072 0 0 0 11.531 5.864 Q 11.686 5.903 11.867 5.91 A 2.013 2.013 0 0 0 11.936 5.911 A 1.863 1.863 0 0 0 12.231 5.889 Q 12.393 5.863 12.524 5.806 A 0.941 0.941 0 0 0 12.676 5.724 A 0.689 0.689 0 0 0 12.841 5.574 A 0.554 0.554 0 0 0 12.955 5.225 A 0.698 0.698 0 0 0 12.919 4.994 A 0.581 0.581 0 0 0 12.707 4.713 A 1.05 1.05 0 0 0 12.538 4.615 Q 12.349 4.524 12.054 4.449 A 5.392 5.392 0 0 0 11.841 4.399 A 6.342 6.342 0 0 1 11.48 4.311 Q 11.11 4.209 10.861 4.083 Q 10.562 3.93 10.392 3.731 A 1.017 1.017 0 0 1 10.325 3.643 Q 10.151 3.388 10.151 3.037 A 1.206 1.206 0 0 1 10.55 2.132 A 1.694 1.694 0 0 1 10.646 2.048 A 1.752 1.752 0 0 1 11.429 1.688 A 2.471 2.471 0 0 1 11.909 1.644 A 2.559 2.559 0 0 1 12.473 1.702 A 1.757 1.757 0 0 1 13.221 2.061 Q 13.724 2.479 13.724 3.129 Z M 21.327 6.486 L 20.716 4.816 L 18.035 4.816 L 17.433 6.486 L 16.563 6.486 L 19.006 0.088 L 19.745 0.088 L 22.192 6.486 L 21.327 6.486 Z M 5.212 4.241 L 5.212 4.091 A 3.17 3.17 0 0 1 5.288 3.382 A 2.581 2.581 0 0 1 5.482 2.828 A 2.191 2.191 0 0 1 5.93 2.202 A 2.033 2.033 0 0 1 6.238 1.958 Q 6.724 1.644 7.291 1.644 A 2.254 2.254 0 0 1 7.904 1.723 A 1.639 1.639 0 0 1 8.732 2.254 Q 9.246 2.865 9.246 4.003 L 9.246 4.342 L 6.025 4.342 A 2.111 2.111 0 0 0 6.096 4.85 A 1.516 1.516 0 0 0 6.436 5.478 A 1.282 1.282 0 0 0 7.37 5.909 A 1.652 1.652 0 0 0 7.436 5.911 A 1.763 1.763 0 0 0 7.764 5.882 Q 7.988 5.839 8.165 5.735 A 1.827 1.827 0 0 0 8.674 5.287 A 2.068 2.068 0 0 0 8.688 5.269 L 9.185 5.656 A 1.926 1.926 0 0 1 7.785 6.547 A 2.749 2.749 0 0 1 7.392 6.574 A 2.394 2.394 0 0 1 6.64 6.461 A 1.974 1.974 0 0 1 5.818 5.939 Q 5.212 5.304 5.212 4.241 Z M 0.848 0.782 L 0.848 3.208 L 2.145 3.208 Q 2.685 3.208 3.035 2.968 A 1.174 1.174 0 0 0 3.144 2.883 A 1.069 1.069 0 0 0 3.51 2.146 A 1.486 1.486 0 0 0 3.516 2.013 Q 3.516 1.47 3.22 1.159 A 1 1 0 0 0 3.162 1.103 Q 2.808 0.787 2.14 0.782 L 0.848 0.782 Z M 19.375 1.129 L 18.29 4.122 L 20.465 4.122 L 19.375 1.129 Z M 6.051 3.674 L 8.433 3.674 L 8.433 3.612 Q 8.407 3.153 8.236 2.848 A 1.13 1.13 0 0 0 8.099 2.652 A 0.983 0.983 0 0 0 7.445 2.32 A 1.39 1.39 0 0 0 7.291 2.312 A 1.106 1.106 0 0 0 6.768 2.435 A 1.14 1.14 0 0 0 6.464 2.67 A 1.417 1.417 0 0 0 6.188 3.116 Q 6.114 3.3 6.074 3.522 A 2.741 2.741 0 0 0 6.051 3.674 Z" vector-effect="non-scaling-stroke"/></g><g transform="translate(25, 93)" id="svgGroup" stroke-linecap="round" fill-rule="evenodd" font-size="9pt" stroke="#000" stroke-width="0.25mm" fill="#000" style="stroke:#000;stroke-width:0.25mm;fill:#000"><path d="M 37.094 0.352 L 38.184 0.352 L 40.276 5.572 L 42.368 0.352 L 43.462 0.352 L 43.462 6.75 L 42.618 6.75 L 42.618 4.258 L 42.697 1.569 L 40.597 6.75 L 39.951 6.75 L 37.855 1.582 L 37.938 4.258 L 37.938 6.75 L 37.094 6.75 L 37.094 0.352 Z M 22.206 1.995 L 22.975 1.995 L 22.997 2.522 Q 23.52 1.907 24.407 1.907 A 2.009 2.009 0 0 1 24.918 1.968 A 1.244 1.244 0 0 1 25.765 2.672 A 1.801 1.801 0 0 1 26.383 2.118 A 1.65 1.65 0 0 1 26.912 1.937 A 2.209 2.209 0 0 1 27.281 1.907 A 2.119 2.119 0 0 1 27.926 1.997 Q 28.852 2.292 28.872 3.564 L 28.872 6.75 L 28.059 6.75 L 28.059 3.612 A 1.781 1.781 0 0 0 28.039 3.332 Q 28.015 3.185 27.965 3.067 A 0.758 0.758 0 0 0 27.826 2.85 A 0.68 0.68 0 0 0 27.573 2.682 Q 27.362 2.597 27.045 2.597 A 1.245 1.245 0 0 0 26.679 2.648 A 1.008 1.008 0 0 0 26.293 2.867 A 1.042 1.042 0 0 0 25.979 3.404 A 1.41 1.41 0 0 0 25.945 3.595 L 25.945 6.75 L 25.128 6.75 L 25.128 3.634 A 1.532 1.532 0 0 0 25.08 3.23 Q 24.953 2.768 24.495 2.643 A 1.457 1.457 0 0 0 24.113 2.597 Q 23.339 2.597 23.039 3.234 A 1.459 1.459 0 0 0 23.019 3.278 L 23.019 6.75 L 22.206 6.75 L 22.206 1.995 Z M 4.636 2.202 L 3.788 2.202 A 1.466 1.466 0 0 0 3.738 1.809 A 1.066 1.066 0 0 0 3.419 1.29 A 1.211 1.211 0 0 0 2.95 1.033 Q 2.698 0.958 2.378 0.958 A 2.286 2.286 0 0 0 1.998 0.988 Q 1.796 1.022 1.633 1.095 A 1.101 1.101 0 0 0 1.404 1.233 A 0.892 0.892 0 0 0 1.059 1.887 A 1.267 1.267 0 0 0 1.055 1.995 A 0.806 0.806 0 0 0 1.323 2.6 A 1.134 1.134 0 0 0 1.387 2.656 A 1.562 1.562 0 0 0 1.625 2.813 Q 1.955 2.993 2.516 3.151 A 8.228 8.228 0 0 1 2.981 3.295 Q 3.216 3.377 3.41 3.464 A 3.297 3.297 0 0 1 3.764 3.645 A 2.342 2.342 0 0 1 4.103 3.889 Q 4.293 4.056 4.415 4.248 A 1.45 1.45 0 0 1 4.432 4.276 A 1.498 1.498 0 0 1 4.628 4.832 A 1.948 1.948 0 0 1 4.65 5.124 A 1.606 1.606 0 0 1 4.527 5.76 Q 4.382 6.101 4.064 6.354 A 1.886 1.886 0 0 1 4.043 6.37 Q 3.437 6.838 2.422 6.838 A 3.023 3.023 0 0 1 1.281 6.623 A 2.917 2.917 0 0 1 1.191 6.585 A 2.383 2.383 0 0 1 0.713 6.307 A 1.874 1.874 0 0 1 0.31 5.893 A 1.689 1.689 0 0 1 0 4.896 L 0.848 4.896 A 1.261 1.261 0 0 0 0.918 5.323 A 1.074 1.074 0 0 0 1.277 5.812 Q 1.661 6.113 2.278 6.144 A 2.87 2.87 0 0 0 2.422 6.148 A 2.628 2.628 0 0 0 2.809 6.121 Q 3.005 6.092 3.164 6.031 A 1.129 1.129 0 0 0 3.445 5.875 Q 3.801 5.603 3.801 5.133 A 1.074 1.074 0 0 0 3.759 4.822 A 0.816 0.816 0 0 0 3.472 4.406 Q 3.142 4.148 2.277 3.898 Q 1.191 3.586 0.697 3.131 Q 0.202 2.676 0.202 2.008 Q 0.202 1.252 0.807 0.758 A 2.121 2.121 0 0 1 1.697 0.335 A 3.087 3.087 0 0 1 2.378 0.264 A 2.913 2.913 0 0 1 3.038 0.336 A 2.372 2.372 0 0 1 3.553 0.519 A 2.051 2.051 0 0 1 4.084 0.889 A 1.834 1.834 0 0 1 4.353 1.222 A 1.798 1.798 0 0 1 4.636 2.202 Z M 144.062 0 L 144.062 2.571 A 1.767 1.767 0 0 1 144.728 2.053 A 1.832 1.832 0 0 1 145.468 1.907 A 1.905 1.905 0 0 1 146.101 2.004 Q 146.943 2.3 146.986 3.506 A 3.668 3.668 0 0 1 146.988 3.608 L 146.988 6.75 L 146.175 6.75 L 146.175 3.604 A 1.837 1.837 0 0 0 146.153 3.324 Q 146.103 3.017 145.94 2.843 Q 145.754 2.645 145.401 2.606 A 1.66 1.66 0 0 0 145.222 2.597 A 1.253 1.253 0 0 0 144.807 2.664 A 1.123 1.123 0 0 0 144.527 2.808 A 1.432 1.432 0 0 0 144.062 3.362 L 144.062 6.75 L 143.249 6.75 L 143.249 0 L 144.062 0 Z M 62.622 2.522 L 62.662 1.995 L 63.404 1.995 L 63.404 6.636 A 2.511 2.511 0 0 1 63.334 7.249 A 1.738 1.738 0 0 1 62.857 8.09 A 1.834 1.834 0 0 1 61.927 8.57 A 2.671 2.671 0 0 1 61.387 8.622 A 2.446 2.446 0 0 1 60.381 8.402 A 2.003 2.003 0 0 1 59.971 8.161 A 1.563 1.563 0 0 1 59.63 7.8 L 60.051 7.313 A 1.889 1.889 0 0 0 60.486 7.712 A 1.514 1.514 0 0 0 61.33 7.958 A 1.695 1.695 0 0 0 61.707 7.919 Q 61.976 7.858 62.17 7.702 A 1.037 1.037 0 0 0 62.255 7.625 A 1.09 1.09 0 0 0 62.532 7.132 Q 62.579 6.959 62.586 6.752 A 2.134 2.134 0 0 0 62.587 6.684 L 62.587 6.275 A 1.601 1.601 0 0 1 61.535 6.821 A 2.279 2.279 0 0 1 61.256 6.838 A 1.672 1.672 0 0 1 60.5 6.67 Q 60.178 6.51 59.929 6.197 A 2.14 2.14 0 0 1 59.904 6.166 A 2.316 2.316 0 0 1 59.521 5.386 Q 59.388 4.922 59.388 4.333 Q 59.388 3.472 59.696 2.884 A 2.096 2.096 0 0 1 59.902 2.564 Q 60.416 1.907 61.264 1.907 A 1.971 1.971 0 0 1 61.863 1.994 A 1.55 1.55 0 0 1 62.622 2.522 Z M 141.24 2.522 L 141.28 1.995 L 142.023 1.995 L 142.023 6.636 A 2.511 2.511 0 0 1 141.952 7.249 A 1.738 1.738 0 0 1 141.475 8.09 A 1.834 1.834 0 0 1 140.546 8.57 A 2.671 2.671 0 0 1 140.006 8.622 A 2.446 2.446 0 0 1 138.999 8.402 A 2.003 2.003 0 0 1 138.589 8.161 A 1.563 1.563 0 0 1 138.248 7.8 L 138.67 7.313 A 1.889 1.889 0 0 0 139.104 7.712 A 1.514 1.514 0 0 0 139.948 7.958 A 1.695 1.695 0 0 0 140.325 7.919 Q 140.594 7.858 140.788 7.702 A 1.037 1.037 0 0 0 140.873 7.625 A 1.09 1.09 0 0 0 141.15 7.132 Q 141.198 6.959 141.204 6.752 A 2.134 2.134 0 0 0 141.205 6.684 L 141.205 6.275 A 1.601 1.601 0 0 1 140.153 6.821 A 2.279 2.279 0 0 1 139.874 6.838 A 1.672 1.672 0 0 1 139.118 6.67 Q 138.796 6.51 138.547 6.197 A 2.14 2.14 0 0 1 138.522 6.166 A 2.316 2.316 0 0 1 138.139 5.386 Q 138.006 4.922 138.006 4.333 Q 138.006 3.472 138.314 2.884 A 2.096 2.096 0 0 1 138.52 2.564 Q 139.034 1.907 139.882 1.907 A 1.971 1.971 0 0 1 140.481 1.994 A 1.55 1.55 0 0 1 141.24 2.522 Z M 13.399 3.393 L 12.582 3.393 Q 12.582 3.059 12.298 2.817 Q 12.015 2.575 11.584 2.575 Q 11.14 2.575 10.89 2.769 A 0.653 0.653 0 0 0 10.715 2.967 Q 10.642 3.098 10.639 3.263 A 0.771 0.771 0 0 0 10.639 3.274 A 0.588 0.588 0 0 0 10.669 3.467 A 0.48 0.48 0 0 0 10.872 3.718 A 1.093 1.093 0 0 0 11.022 3.796 Q 11.187 3.868 11.442 3.937 A 6.581 6.581 0 0 0 11.714 4.003 A 6.318 6.318 0 0 1 12.121 4.108 Q 12.458 4.208 12.7 4.329 A 1.901 1.901 0 0 1 12.956 4.481 Q 13.093 4.579 13.19 4.692 A 1.06 1.06 0 0 1 13.261 4.783 A 1.024 1.024 0 0 1 13.423 5.191 A 1.388 1.388 0 0 1 13.443 5.432 Q 13.443 6.069 12.933 6.453 Q 12.451 6.817 11.697 6.837 A 3.337 3.337 0 0 1 11.61 6.838 A 2.746 2.746 0 0 1 11.076 6.788 A 2.124 2.124 0 0 1 10.6 6.636 A 1.771 1.771 0 0 1 10.166 6.358 A 1.54 1.54 0 0 1 9.912 6.071 Q 9.664 5.708 9.664 5.287 L 10.477 5.287 A 0.932 0.932 0 0 0 10.55 5.612 A 0.827 0.827 0 0 0 10.804 5.935 A 1.072 1.072 0 0 0 11.206 6.128 Q 11.361 6.167 11.542 6.173 A 2.013 2.013 0 0 0 11.61 6.174 A 1.863 1.863 0 0 0 11.906 6.152 Q 12.068 6.126 12.199 6.07 A 0.941 0.941 0 0 0 12.351 5.988 A 0.689 0.689 0 0 0 12.516 5.837 A 0.554 0.554 0 0 0 12.63 5.489 A 0.698 0.698 0 0 0 12.594 5.258 A 0.581 0.581 0 0 0 12.382 4.977 A 1.05 1.05 0 0 0 12.213 4.878 Q 12.024 4.788 11.729 4.712 A 5.392 5.392 0 0 0 11.516 4.663 A 6.342 6.342 0 0 1 11.155 4.575 Q 10.785 4.473 10.536 4.346 Q 10.237 4.194 10.067 3.994 A 1.017 1.017 0 0 1 10 3.907 Q 9.826 3.652 9.826 3.3 A 1.206 1.206 0 0 1 10.225 2.396 A 1.694 1.694 0 0 1 10.321 2.312 A 1.752 1.752 0 0 1 11.104 1.952 A 2.471 2.471 0 0 1 11.584 1.907 A 2.559 2.559 0 0 1 12.148 1.966 A 1.757 1.757 0 0 1 12.896 2.325 Q 13.399 2.742 13.399 3.393 Z M 33.636 3.393 L 32.819 3.393 Q 32.819 3.059 32.535 2.817 Q 32.252 2.575 31.821 2.575 Q 31.377 2.575 31.127 2.769 A 0.653 0.653 0 0 0 30.952 2.967 Q 30.878 3.098 30.876 3.263 A 0.771 0.771 0 0 0 30.876 3.274 A 0.588 0.588 0 0 0 30.906 3.467 A 0.48 0.48 0 0 0 31.109 3.718 A 1.093 1.093 0 0 0 31.259 3.796 Q 31.423 3.868 31.679 3.937 A 6.581 6.581 0 0 0 31.951 4.003 A 6.318 6.318 0 0 1 32.358 4.108 Q 32.695 4.208 32.937 4.329 A 1.901 1.901 0 0 1 33.193 4.481 Q 33.33 4.579 33.427 4.692 A 1.06 1.06 0 0 1 33.497 4.783 A 1.024 1.024 0 0 1 33.66 5.191 A 1.388 1.388 0 0 1 33.68 5.432 Q 33.68 6.069 33.17 6.453 Q 32.688 6.817 31.934 6.837 A 3.337 3.337 0 0 1 31.847 6.838 A 2.746 2.746 0 0 1 31.313 6.788 A 2.124 2.124 0 0 1 30.837 6.636 A 1.771 1.771 0 0 1 30.403 6.358 A 1.54 1.54 0 0 1 30.149 6.071 Q 29.901 5.708 29.901 5.287 L 30.714 5.287 A 0.932 0.932 0 0 0 30.787 5.612 A 0.827 0.827 0 0 0 31.041 5.935 A 1.072 1.072 0 0 0 31.443 6.128 Q 31.598 6.167 31.779 6.173 A 2.013 2.013 0 0 0 31.847 6.174 A 1.863 1.863 0 0 0 32.143 6.152 Q 32.304 6.126 32.436 6.07 A 0.941 0.941 0 0 0 32.588 5.988 A 0.689 0.689 0 0 0 32.752 5.837 A 0.554 0.554 0 0 0 32.867 5.489 A 0.698 0.698 0 0 0 32.83 5.258 A 0.581 0.581 0 0 0 32.619 4.977 A 1.05 1.05 0 0 0 32.45 4.878 Q 32.261 4.788 31.966 4.712 A 5.392 5.392 0 0 0 31.753 4.663 A 6.342 6.342 0 0 1 31.392 4.575 Q 31.022 4.473 30.773 4.346 Q 30.474 4.194 30.304 3.994 A 1.017 1.017 0 0 1 30.237 3.907 Q 30.063 3.652 30.063 3.3 A 1.206 1.206 0 0 1 30.462 2.396 A 1.694 1.694 0 0 1 30.558 2.312 A 1.752 1.752 0 0 1 31.341 1.952 A 2.471 2.471 0 0 1 31.821 1.907 A 2.559 2.559 0 0 1 32.384 1.966 A 1.757 1.757 0 0 1 33.133 2.325 Q 33.636 2.742 33.636 3.393 Z M 86.296 3.393 L 85.478 3.393 Q 85.478 3.059 85.195 2.817 Q 84.911 2.575 84.481 2.575 Q 84.037 2.575 83.786 2.769 A 0.653 0.653 0 0 0 83.611 2.967 Q 83.538 3.098 83.536 3.263 A 0.771 0.771 0 0 0 83.536 3.274 A 0.588 0.588 0 0 0 83.566 3.467 A 0.48 0.48 0 0 0 83.769 3.718 A 1.093 1.093 0 0 0 83.919 3.796 Q 84.083 3.868 84.339 3.937 A 6.581 6.581 0 0 0 84.61 4.003 A 6.318 6.318 0 0 1 85.018 4.108 Q 85.355 4.208 85.597 4.329 A 1.901 1.901 0 0 1 85.853 4.481 Q 85.99 4.579 86.087 4.692 A 1.06 1.06 0 0 1 86.157 4.783 A 1.024 1.024 0 0 1 86.319 5.191 A 1.388 1.388 0 0 1 86.34 5.432 Q 86.34 6.069 85.83 6.453 Q 85.347 6.817 84.593 6.837 A 3.337 3.337 0 0 1 84.507 6.838 A 2.746 2.746 0 0 1 83.973 6.788 A 2.124 2.124 0 0 1 83.496 6.636 A 1.771 1.771 0 0 1 83.062 6.358 A 1.54 1.54 0 0 1 82.808 6.071 Q 82.56 5.708 82.56 5.287 L 83.373 5.287 A 0.932 0.932 0 0 0 83.447 5.612 A 0.827 0.827 0 0 0 83.701 5.935 A 1.072 1.072 0 0 0 84.103 6.128 Q 84.257 6.167 84.439 6.173 A 2.013 2.013 0 0 0 84.507 6.174 A 1.863 1.863 0 0 0 84.803 6.152 Q 84.964 6.126 85.096 6.07 A 0.941 0.941 0 0 0 85.247 5.988 A 0.689 0.689 0 0 0 85.412 5.837 A 0.554 0.554 0 0 0 85.527 5.489 A 0.698 0.698 0 0 0 85.49 5.258 A 0.581 0.581 0 0 0 85.278 4.977 A 1.05 1.05 0 0 0 85.109 4.878 Q 84.921 4.788 84.626 4.712 A 5.392 5.392 0 0 0 84.413 4.663 A 6.342 6.342 0 0 1 84.051 4.575 Q 83.682 4.473 83.433 4.346 Q 83.134 4.194 82.963 3.994 A 1.017 1.017 0 0 1 82.896 3.907 Q 82.723 3.652 82.723 3.3 A 1.206 1.206 0 0 1 83.122 2.396 A 1.694 1.694 0 0 1 83.217 2.312 A 1.752 1.752 0 0 1 84 1.952 A 2.471 2.471 0 0 1 84.481 1.907 A 2.559 2.559 0 0 1 85.044 1.966 A 1.757 1.757 0 0 1 85.792 2.325 Q 86.296 2.742 86.296 3.393 Z M 5.972 1.995 L 7.159 5.559 L 8.266 1.995 L 9.136 1.995 L 7.225 7.484 Q 6.781 8.67 5.814 8.67 L 5.66 8.657 L 5.357 8.6 L 5.357 7.941 L 5.577 7.958 Q 5.857 7.958 6.053 7.882 A 0.75 0.75 0 0 0 6.221 7.792 A 0.749 0.749 0 0 0 6.381 7.629 Q 6.499 7.47 6.589 7.215 A 2.575 2.575 0 0 0 6.601 7.181 L 6.781 6.697 L 5.085 1.995 L 5.972 1.995 Z M 49.72 1.995 L 50.489 1.995 L 50.515 2.593 Q 51.052 1.918 51.912 1.907 A 2.234 2.234 0 0 1 51.939 1.907 A 1.905 1.905 0 0 1 52.573 2.004 Q 53.414 2.3 53.457 3.506 A 3.668 3.668 0 0 1 53.46 3.608 L 53.46 6.75 L 52.647 6.75 L 52.647 3.604 A 1.837 1.837 0 0 0 52.624 3.324 Q 52.574 3.017 52.412 2.843 Q 52.225 2.645 51.872 2.606 A 1.66 1.66 0 0 0 51.693 2.597 A 1.253 1.253 0 0 0 51.279 2.664 A 1.123 1.123 0 0 0 50.999 2.808 A 1.432 1.432 0 0 0 50.533 3.362 L 50.533 6.75 L 49.72 6.75 L 49.72 1.995 Z M 103.57 6.75 L 103.553 6.28 A 1.526 1.526 0 0 1 102.727 6.775 Q 102.476 6.836 102.179 6.838 A 2.996 2.996 0 0 1 102.16 6.838 A 2.086 2.086 0 0 1 101.7 6.79 Q 101.269 6.693 101.002 6.396 A 1.41 1.41 0 0 1 100.719 5.899 Q 100.602 5.556 100.6 5.089 L 100.6 1.995 L 101.413 1.995 L 101.413 5.067 Q 101.413 6.037 102.12 6.137 A 1.229 1.229 0 0 0 102.292 6.148 A 1.927 1.927 0 0 0 102.743 6.099 Q 103.305 5.964 103.531 5.454 L 103.531 1.995 L 104.344 1.995 L 104.344 6.75 L 103.57 6.75 Z M 48.612 6.75 L 47.76 6.75 A 0.632 0.632 0 0 1 47.724 6.66 Q 47.693 6.562 47.668 6.41 A 3.997 3.997 0 0 1 47.646 6.249 Q 47.079 6.838 46.292 6.838 A 2.033 2.033 0 0 1 45.763 6.772 A 1.529 1.529 0 0 1 45.139 6.44 Q 44.688 6.042 44.688 5.432 Q 44.688 4.689 45.253 4.278 Q 45.818 3.867 46.841 3.867 L 47.632 3.867 L 47.632 3.494 A 1.152 1.152 0 0 0 47.597 3.199 A 0.828 0.828 0 0 0 47.378 2.815 Q 47.161 2.6 46.771 2.568 A 1.748 1.748 0 0 0 46.626 2.562 Q 46.191 2.562 45.897 2.782 Q 45.602 3.001 45.602 3.313 L 44.785 3.313 A 1.041 1.041 0 0 1 44.91 2.825 A 1.409 1.409 0 0 1 45.038 2.626 Q 45.29 2.294 45.723 2.101 A 2.249 2.249 0 0 1 46.499 1.913 A 2.669 2.669 0 0 1 46.674 1.907 A 2.65 2.65 0 0 1 47.192 1.955 Q 47.499 2.016 47.738 2.156 A 1.439 1.439 0 0 1 47.962 2.318 A 1.396 1.396 0 0 1 48.415 3.144 A 1.998 1.998 0 0 1 48.445 3.45 L 48.445 5.638 Q 48.445 6.073 48.519 6.39 A 1.707 1.707 0 0 0 48.612 6.68 L 48.612 6.75 Z M 58.474 6.75 L 57.621 6.75 A 0.632 0.632 0 0 1 57.586 6.66 Q 57.555 6.562 57.53 6.41 A 3.997 3.997 0 0 1 57.507 6.249 Q 56.94 6.838 56.153 6.838 A 2.033 2.033 0 0 1 55.624 6.772 A 1.529 1.529 0 0 1 55 6.44 Q 54.549 6.042 54.549 5.432 Q 54.549 4.689 55.114 4.278 Q 55.679 3.867 56.703 3.867 L 57.494 3.867 L 57.494 3.494 A 1.152 1.152 0 0 0 57.458 3.199 A 0.828 0.828 0 0 0 57.239 2.815 Q 57.023 2.6 56.632 2.568 A 1.748 1.748 0 0 0 56.487 2.562 Q 56.052 2.562 55.758 2.782 Q 55.464 3.001 55.464 3.313 L 54.646 3.313 A 1.041 1.041 0 0 1 54.771 2.825 A 1.409 1.409 0 0 1 54.899 2.626 Q 55.152 2.294 55.584 2.101 A 2.249 2.249 0 0 1 56.36 1.913 A 2.669 2.669 0 0 1 56.536 1.907 A 2.65 2.65 0 0 1 57.053 1.955 Q 57.36 2.016 57.599 2.156 A 1.439 1.439 0 0 1 57.823 2.318 A 1.396 1.396 0 0 1 58.277 3.144 A 1.998 1.998 0 0 1 58.307 3.45 L 58.307 5.638 Q 58.307 6.073 58.38 6.39 A 1.707 1.707 0 0 0 58.474 6.68 L 58.474 6.75 Z M 99.593 4.355 L 99.593 4.425 Q 99.593 5.308 99.265 5.909 A 2.141 2.141 0 0 1 99.092 6.177 A 1.647 1.647 0 0 1 98.506 6.673 Q 98.191 6.828 97.8 6.837 A 2.112 2.112 0 0 1 97.748 6.838 A 2.039 2.039 0 0 1 97.153 6.756 A 1.561 1.561 0 0 1 96.355 6.201 L 96.315 6.75 L 95.568 6.75 L 95.568 0 L 96.381 0 L 96.381 2.518 A 1.605 1.605 0 0 1 97.548 1.915 A 2.285 2.285 0 0 1 97.739 1.907 A 1.835 1.835 0 0 1 98.37 2.011 A 1.579 1.579 0 0 1 99.099 2.562 Q 99.513 3.11 99.58 3.998 A 4.727 4.727 0 0 1 99.593 4.355 Z M 17.235 4.504 L 17.235 4.355 A 3.17 3.17 0 0 1 17.312 3.646 A 2.581 2.581 0 0 1 17.506 3.092 A 2.191 2.191 0 0 1 17.953 2.466 A 2.033 2.033 0 0 1 18.262 2.221 Q 18.747 1.907 19.314 1.907 A 2.254 2.254 0 0 1 19.927 1.986 A 1.639 1.639 0 0 1 20.756 2.518 Q 21.27 3.129 21.27 4.267 L 21.27 4.605 L 18.048 4.605 A 2.111 2.111 0 0 0 18.12 5.114 A 1.516 1.516 0 0 0 18.459 5.741 A 1.282 1.282 0 0 0 19.393 6.173 A 1.652 1.652 0 0 0 19.459 6.174 A 1.763 1.763 0 0 0 19.787 6.145 Q 20.011 6.103 20.189 5.999 A 1.827 1.827 0 0 0 20.697 5.551 A 2.068 2.068 0 0 0 20.712 5.533 L 21.208 5.919 A 1.926 1.926 0 0 1 19.808 6.811 A 2.749 2.749 0 0 1 19.415 6.838 A 2.394 2.394 0 0 1 18.664 6.725 A 1.974 1.974 0 0 1 17.842 6.203 Q 17.235 5.568 17.235 4.504 Z M 64.424 4.504 L 64.424 4.355 A 3.17 3.17 0 0 1 64.5 3.646 A 2.581 2.581 0 0 1 64.694 3.092 A 2.191 2.191 0 0 1 65.142 2.466 A 2.033 2.033 0 0 1 65.45 2.221 Q 65.936 1.907 66.503 1.907 A 2.254 2.254 0 0 1 67.116 1.986 A 1.639 1.639 0 0 1 67.944 2.518 Q 68.458 3.129 68.458 4.267 L 68.458 4.605 L 65.237 4.605 A 2.111 2.111 0 0 0 65.308 5.114 A 1.516 1.516 0 0 0 65.648 5.741 A 1.282 1.282 0 0 0 66.582 6.173 A 1.652 1.652 0 0 0 66.648 6.174 A 1.763 1.763 0 0 0 66.976 6.145 Q 67.2 6.103 67.377 5.999 A 1.827 1.827 0 0 0 67.886 5.551 A 2.068 2.068 0 0 0 67.9 5.533 L 68.397 5.919 A 1.926 1.926 0 0 1 66.997 6.811 A 2.749 2.749 0 0 1 66.604 6.838 A 2.394 2.394 0 0 1 65.852 6.725 A 1.974 1.974 0 0 1 65.03 6.203 Q 64.424 5.568 64.424 4.504 Z M 132.148 0.352 L 132.148 6.06 L 135.18 6.06 L 135.18 6.75 L 131.3 6.75 L 131.3 0.352 L 132.148 0.352 Z M 122.186 0.352 L 122.186 4.601 L 123.073 4.601 L 123.073 5.265 L 122.186 5.265 L 122.186 6.75 L 121.368 6.75 L 121.368 5.265 L 118.455 5.265 L 118.455 4.786 L 121.32 0.352 L 122.186 0.352 Z M 76.57 6.75 L 74.799 6.75 L 74.799 0.352 L 76.606 0.352 Q 77.441 0.352 78.082 0.721 Q 78.724 1.09 79.073 1.771 A 3.19 3.19 0 0 1 79.39 2.8 A 4.073 4.073 0 0 1 79.427 3.335 L 79.427 3.744 Q 79.427 4.649 79.078 5.331 A 2.457 2.457 0 0 1 78.08 6.376 Q 77.432 6.741 76.57 6.75 Z M 127.584 2.592 A 1.544 1.544 0 0 0 127.688 2.021 A 2.226 2.226 0 0 0 127.666 1.707 A 1.566 1.566 0 0 0 127.167 0.738 A 1.754 1.754 0 0 0 126.401 0.333 A 2.443 2.443 0 0 0 125.802 0.264 A 2.539 2.539 0 0 0 125.293 0.312 A 1.767 1.767 0 0 0 124.436 0.738 Q 123.917 1.213 123.917 2.021 A 1.808 1.808 0 0 0 123.918 2.058 A 1.499 1.499 0 0 0 124.163 2.87 A 1.626 1.626 0 0 0 124.325 3.077 A 1.726 1.726 0 0 0 124.836 3.454 A 2.119 2.119 0 0 0 124.736 3.5 A 1.738 1.738 0 0 0 124.051 4.087 A 1.629 1.629 0 0 0 123.768 5.023 A 2.272 2.272 0 0 0 123.778 5.237 A 1.63 1.63 0 0 0 124.324 6.344 A 1.895 1.895 0 0 0 125.174 6.771 A 2.797 2.797 0 0 0 125.802 6.838 A 2.796 2.796 0 0 0 126.401 6.777 A 1.925 1.925 0 0 0 127.277 6.346 A 1.578 1.578 0 0 0 127.752 5.62 A 1.989 1.989 0 0 0 127.837 5.023 A 1.581 1.581 0 0 0 127.545 4.087 Q 127.253 3.674 126.752 3.458 Q 127.182 3.248 127.435 2.874 A 1.449 1.449 0 0 0 127.584 2.592 Z M 14.792 0.844 L 15.605 0.844 L 15.605 1.995 L 16.493 1.995 L 16.493 2.624 L 15.605 2.624 L 15.605 5.572 Q 15.605 5.858 15.724 6.001 Q 15.842 6.144 16.128 6.144 A 1.046 1.046 0 0 0 16.226 6.138 Q 16.328 6.129 16.468 6.101 A 4.024 4.024 0 0 0 16.515 6.091 L 16.515 6.75 A 2.463 2.463 0 0 1 16.082 6.829 A 2.157 2.157 0 0 1 15.891 6.838 Q 15.444 6.838 15.177 6.616 A 0.856 0.856 0 0 1 15.069 6.508 Q 14.842 6.238 14.801 5.78 A 2.351 2.351 0 0 1 14.792 5.572 L 14.792 2.624 L 13.926 2.624 L 13.926 1.995 L 14.792 1.995 L 14.792 0.844 Z M 87.689 0.844 L 88.502 0.844 L 88.502 1.995 L 89.389 1.995 L 89.389 2.624 L 88.502 2.624 L 88.502 5.572 Q 88.502 5.858 88.62 6.001 Q 88.739 6.144 89.025 6.144 A 1.046 1.046 0 0 0 89.122 6.138 Q 89.225 6.129 89.365 6.101 A 4.024 4.024 0 0 0 89.411 6.091 L 89.411 6.75 A 2.463 2.463 0 0 1 88.978 6.829 A 2.157 2.157 0 0 1 88.787 6.838 Q 88.34 6.838 88.074 6.616 A 0.856 0.856 0 0 1 87.965 6.508 Q 87.738 6.238 87.697 5.78 A 2.351 2.351 0 0 1 87.689 5.572 L 87.689 2.624 L 86.823 2.624 L 86.823 1.995 L 87.689 1.995 L 87.689 0.844 Z M 105.869 0.844 L 106.682 0.844 L 106.682 1.995 L 107.569 1.995 L 107.569 2.624 L 106.682 2.624 L 106.682 5.572 Q 106.682 5.858 106.8 6.001 Q 106.919 6.144 107.205 6.144 A 1.046 1.046 0 0 0 107.302 6.138 Q 107.405 6.129 107.545 6.101 A 4.024 4.024 0 0 0 107.591 6.091 L 107.591 6.75 A 2.463 2.463 0 0 1 107.159 6.829 A 2.157 2.157 0 0 1 106.967 6.838 Q 106.52 6.838 106.254 6.616 A 0.856 0.856 0 0 1 106.146 6.508 Q 105.918 6.238 105.878 5.78 A 2.351 2.351 0 0 1 105.869 5.572 L 105.869 2.624 L 105.003 2.624 L 105.003 1.995 L 105.869 1.995 L 105.869 0.844 Z M 148.496 0.844 L 149.309 0.844 L 149.309 1.995 L 150.196 1.995 L 150.196 2.624 L 149.309 2.624 L 149.309 5.572 Q 149.309 5.858 149.427 6.001 Q 149.546 6.144 149.832 6.144 A 1.046 1.046 0 0 0 149.929 6.138 Q 150.032 6.129 150.172 6.101 A 4.024 4.024 0 0 0 150.218 6.091 L 150.218 6.75 A 2.463 2.463 0 0 1 149.786 6.829 A 2.157 2.157 0 0 1 149.594 6.838 Q 149.147 6.838 148.881 6.616 A 0.856 0.856 0 0 1 148.773 6.508 Q 148.545 6.238 148.505 5.78 A 2.351 2.351 0 0 1 148.496 5.572 L 148.496 2.624 L 147.63 2.624 L 147.63 1.995 L 148.496 1.995 L 148.496 0.844 Z M 108.215 4.386 L 108.215 4.329 A 3.057 3.057 0 0 1 108.302 3.587 A 2.573 2.573 0 0 1 108.49 3.072 A 2.16 2.16 0 0 1 108.905 2.486 A 1.957 1.957 0 0 1 109.255 2.21 A 2.036 2.036 0 0 1 110.199 1.913 A 2.491 2.491 0 0 1 110.373 1.907 A 2.277 2.277 0 0 1 111.127 2.027 A 1.937 1.937 0 0 1 111.944 2.58 A 2.29 2.29 0 0 1 112.463 3.608 A 3.373 3.373 0 0 1 112.544 4.368 L 112.544 4.425 A 3.114 3.114 0 0 1 112.465 5.142 A 2.577 2.577 0 0 1 112.278 5.671 A 2.056 2.056 0 0 1 111.751 6.361 A 2.001 2.001 0 0 1 111.518 6.53 A 2.045 2.045 0 0 1 110.598 6.829 A 2.529 2.529 0 0 1 110.382 6.838 A 2.262 2.262 0 0 1 109.632 6.718 A 1.938 1.938 0 0 1 108.815 6.166 A 2.297 2.297 0 0 1 108.29 5.111 A 3.357 3.357 0 0 1 108.215 4.386 Z M 71.697 1.969 L 71.697 2.725 A 2.251 2.251 0 0 0 71.454 2.698 A 2.782 2.782 0 0 0 71.297 2.694 Q 70.519 2.694 70.228 3.338 A 1.445 1.445 0 0 0 70.212 3.375 L 70.212 6.75 L 69.399 6.75 L 69.399 1.995 L 70.19 1.995 L 70.203 2.544 Q 70.583 1.938 71.266 1.909 A 1.636 1.636 0 0 1 71.337 1.907 Q 71.574 1.907 71.697 1.969 Z M 92.637 1.969 L 92.637 2.725 A 2.251 2.251 0 0 0 92.394 2.698 A 2.782 2.782 0 0 0 92.237 2.694 Q 91.459 2.694 91.168 3.338 A 1.445 1.445 0 0 0 91.152 3.375 L 91.152 6.75 L 90.339 6.75 L 90.339 1.995 L 91.13 1.995 L 91.143 2.544 Q 91.523 1.938 92.206 1.909 A 1.636 1.636 0 0 1 92.277 1.907 Q 92.514 1.907 92.637 1.969 Z M 115.862 1.969 L 115.862 2.725 A 2.251 2.251 0 0 0 115.619 2.698 A 2.782 2.782 0 0 0 115.462 2.694 Q 114.684 2.694 114.393 3.338 A 1.445 1.445 0 0 0 114.377 3.375 L 114.377 6.75 L 113.564 6.75 L 113.564 1.995 L 114.355 1.995 L 114.368 2.544 Q 114.748 1.938 115.431 1.909 A 1.636 1.636 0 0 1 115.502 1.907 Q 115.739 1.907 115.862 1.969 Z M 76.628 1.046 L 75.643 1.046 L 75.643 6.06 L 76.531 6.06 A 2.519 2.519 0 0 0 77.163 5.985 A 1.747 1.747 0 0 0 78.049 5.454 Q 78.508 4.94 78.579 4.059 A 4.165 4.165 0 0 0 78.592 3.727 L 78.592 3.353 Q 78.592 2.562 78.322 2.027 A 1.864 1.864 0 0 0 78.08 1.659 A 1.687 1.687 0 0 0 77.084 1.09 A 2.499 2.499 0 0 0 76.628 1.046 Z M 81.457 1.995 L 81.457 6.75 L 80.644 6.75 L 80.644 1.995 L 81.457 1.995 Z M 94.267 1.995 L 94.267 6.75 L 93.454 6.75 L 93.454 1.995 L 94.267 1.995 Z M 136.899 1.995 L 136.899 6.75 L 136.086 6.75 L 136.086 1.995 L 136.899 1.995 Z M 109.033 4.425 A 2.772 2.772 0 0 0 109.08 4.954 Q 109.141 5.264 109.278 5.51 A 1.545 1.545 0 0 0 109.4 5.695 Q 109.767 6.174 110.382 6.174 A 1.269 1.269 0 0 0 110.871 6.083 Q 111.151 5.967 111.353 5.706 A 1.471 1.471 0 0 0 111.366 5.689 A 1.648 1.648 0 0 0 111.621 5.171 Q 111.69 4.945 111.716 4.672 A 3.655 3.655 0 0 0 111.731 4.329 A 2.687 2.687 0 0 0 111.68 3.789 Q 111.612 3.459 111.455 3.2 A 1.586 1.586 0 0 0 111.36 3.061 A 1.231 1.231 0 0 0 110.945 2.705 Q 110.692 2.575 110.373 2.575 Q 109.783 2.575 109.417 3.035 A 1.515 1.515 0 0 0 109.402 3.054 A 1.589 1.589 0 0 0 109.15 3.552 Q 109.08 3.772 109.052 4.039 A 3.676 3.676 0 0 0 109.033 4.425 Z M 96.381 3.344 L 96.381 5.401 A 1.528 1.528 0 0 0 96.667 5.807 Q 96.99 6.127 97.479 6.147 A 1.621 1.621 0 0 0 97.546 6.148 A 1.206 1.206 0 0 0 97.963 6.079 A 1.04 1.04 0 0 0 98.455 5.695 Q 98.78 5.243 98.78 4.333 Q 98.78 3.502 98.46 3.05 A 1.03 1.03 0 0 0 97.709 2.607 A 1.449 1.449 0 0 0 97.537 2.597 A 1.34 1.34 0 0 0 97.027 2.69 Q 96.609 2.86 96.381 3.344 Z M 62.587 5.449 L 62.587 3.278 A 1.439 1.439 0 0 0 62.286 2.891 Q 61.982 2.62 61.542 2.599 A 1.578 1.578 0 0 0 61.466 2.597 Q 60.875 2.597 60.541 3.056 A 1.51 1.51 0 0 0 60.33 3.484 Q 60.264 3.689 60.233 3.939 A 3.955 3.955 0 0 0 60.205 4.425 Q 60.205 5.229 60.535 5.689 Q 60.864 6.148 61.458 6.148 A 1.32 1.32 0 0 0 61.967 6.054 Q 62.359 5.891 62.587 5.449 Z M 141.205 5.449 L 141.205 3.278 A 1.439 1.439 0 0 0 140.904 2.891 Q 140.601 2.62 140.16 2.599 A 1.578 1.578 0 0 0 140.085 2.597 Q 139.493 2.597 139.159 3.056 A 1.51 1.51 0 0 0 138.948 3.484 Q 138.882 3.689 138.851 3.939 A 3.955 3.955 0 0 0 138.823 4.425 Q 138.823 5.229 139.153 5.689 Q 139.483 6.148 140.076 6.148 A 1.32 1.32 0 0 0 140.585 6.054 Q 140.977 5.891 141.205 5.449 Z M 121.272 1.639 L 119.378 4.601 L 121.368 4.601 L 121.368 1.463 L 121.272 1.639 Z M 127.024 5.005 A 1.375 1.375 0 0 0 126.965 4.592 A 1.109 1.109 0 0 0 126.683 4.131 A 1.148 1.148 0 0 0 126.012 3.807 A 1.593 1.593 0 0 0 125.794 3.792 A 1.466 1.466 0 0 0 125.405 3.841 A 1.086 1.086 0 0 0 124.913 4.126 A 1.123 1.123 0 0 0 124.599 4.762 A 1.572 1.572 0 0 0 124.581 5.005 A 1.48 1.48 0 0 0 124.622 5.367 A 1.019 1.019 0 0 0 124.904 5.862 Q 125.21 6.158 125.743 6.173 A 2.053 2.053 0 0 0 125.802 6.174 Q 126.296 6.174 126.606 5.94 A 1.018 1.018 0 0 0 126.699 5.86 A 1.041 1.041 0 0 0 126.998 5.292 A 1.518 1.518 0 0 0 127.024 5.005 Z M 125.802 0.932 A 1.259 1.259 0 0 0 125.45 0.979 A 0.973 0.973 0 0 0 125.027 1.228 Q 124.73 1.525 124.73 2.035 A 1.325 1.325 0 0 0 124.775 2.387 A 0.994 0.994 0 0 0 125.022 2.823 A 0.974 0.974 0 0 0 125.584 3.108 A 1.382 1.382 0 0 0 125.802 3.125 A 1.279 1.279 0 0 0 126.147 3.08 A 0.952 0.952 0 0 0 126.582 2.823 A 1.018 1.018 0 0 0 126.858 2.26 A 1.426 1.426 0 0 0 126.875 2.035 A 1.282 1.282 0 0 0 126.825 1.668 A 1.013 1.013 0 0 0 126.571 1.239 Q 126.268 0.932 125.802 0.932 Z M 47.632 5.418 L 47.632 4.443 L 46.995 4.443 Q 45.501 4.443 45.501 5.317 Q 45.501 5.7 45.756 5.915 A 0.893 0.893 0 0 0 46.169 6.108 A 1.259 1.259 0 0 0 46.411 6.13 A 1.429 1.429 0 0 0 47.136 5.933 A 1.335 1.335 0 0 0 47.431 5.705 A 1.108 1.108 0 0 0 47.632 5.418 Z M 57.494 5.418 L 57.494 4.443 L 56.857 4.443 Q 55.362 4.443 55.362 5.317 Q 55.362 5.7 55.617 5.915 A 0.893 0.893 0 0 0 56.031 6.108 A 1.259 1.259 0 0 0 56.272 6.13 A 1.429 1.429 0 0 0 56.997 5.933 A 1.335 1.335 0 0 0 57.293 5.705 A 1.108 1.108 0 0 0 57.494 5.418 Z M 18.075 3.938 L 20.457 3.938 L 20.457 3.876 Q 20.431 3.417 20.26 3.111 A 1.13 1.13 0 0 0 20.123 2.916 A 0.983 0.983 0 0 0 19.468 2.584 A 1.39 1.39 0 0 0 19.314 2.575 A 1.106 1.106 0 0 0 18.792 2.698 A 1.14 1.14 0 0 0 18.488 2.933 A 1.417 1.417 0 0 0 18.211 3.379 Q 18.138 3.563 18.098 3.785 A 2.741 2.741 0 0 0 18.075 3.938 Z M 65.263 3.938 L 67.645 3.938 L 67.645 3.876 Q 67.619 3.417 67.448 3.111 A 1.13 1.13 0 0 0 67.311 2.916 A 0.983 0.983 0 0 0 66.657 2.584 A 1.39 1.39 0 0 0 66.503 2.575 A 1.106 1.106 0 0 0 65.98 2.698 A 1.14 1.14 0 0 0 65.676 2.933 A 1.417 1.417 0 0 0 65.4 3.379 Q 65.326 3.563 65.286 3.785 A 2.741 2.741 0 0 0 65.263 3.938 Z M 80.578 0.734 Q 80.578 0.536 80.699 0.4 Q 80.811 0.274 81.023 0.264 A 0.783 0.783 0 0 1 81.057 0.264 Q 81.295 0.264 81.418 0.4 A 0.474 0.474 0 0 1 81.54 0.703 A 0.614 0.614 0 0 1 81.541 0.734 A 0.523 0.523 0 0 1 81.515 0.9 A 0.442 0.442 0 0 1 81.418 1.063 Q 81.305 1.184 81.097 1.194 A 0.803 0.803 0 0 1 81.057 1.195 Q 80.885 1.195 80.774 1.126 A 0.362 0.362 0 0 1 80.699 1.063 A 0.456 0.456 0 0 1 80.581 0.788 A 0.605 0.605 0 0 1 80.578 0.734 Z M 93.388 0.734 Q 93.388 0.536 93.509 0.4 Q 93.621 0.274 93.833 0.264 A 0.783 0.783 0 0 1 93.867 0.264 Q 94.105 0.264 94.228 0.4 A 0.474 0.474 0 0 1 94.35 0.703 A 0.614 0.614 0 0 1 94.351 0.734 A 0.523 0.523 0 0 1 94.325 0.9 A 0.442 0.442 0 0 1 94.228 1.063 Q 94.115 1.184 93.907 1.194 A 0.803 0.803 0 0 1 93.867 1.195 Q 93.695 1.195 93.584 1.126 A 0.362 0.362 0 0 1 93.509 1.063 A 0.456 0.456 0 0 1 93.391 0.788 A 0.605 0.605 0 0 1 93.388 0.734 Z M 136.02 0.734 Q 136.02 0.536 136.141 0.4 Q 136.252 0.274 136.464 0.264 A 0.783 0.783 0 0 1 136.499 0.264 Q 136.736 0.264 136.859 0.4 A 0.474 0.474 0 0 1 136.981 0.703 A 0.614 0.614 0 0 1 136.982 0.734 A 0.523 0.523 0 0 1 136.957 0.9 A 0.442 0.442 0 0 1 136.859 1.063 Q 136.747 1.184 136.539 1.194 A 0.803 0.803 0 0 1 136.499 1.195 Q 136.326 1.195 136.215 1.126 A 0.362 0.362 0 0 1 136.141 1.063 A 0.456 0.456 0 0 1 136.022 0.788 A 0.605 0.605 0 0 1 136.02 0.734 Z" vector-effect="non-scaling-stroke"/></g>
</svgversion="1.0" encoding="UTF-8"?>
<svg width="48px" height="48px" viewBox="0 0 48 48" version="1.1" xmlns="http://www.w3.org/2000/svg" xmlns:xlink="http://www.w3.org/1999/xlink">
    <title>Icon-Resource/Management-Governance/Res_AWS-Systems-Manager_Distributor_48_Light</title>
    <g id="Icon-Resource/Management-Governance/Res_AWS-Systems-Manager_Distributor_48" stroke="none" stroke-width="1" fill="none" fill-rule="evenodd">
        <path transform="translate(12.000000, 8.000000), scale(.65)" d="M19,18 L29,18 L29,16 L19,16 L19,18 Z M23.375,13.781 L18.375,9.781 L19.625,8.219 L23,10.919 L23,2 L25,2 L25,10.919 L28.375,8.219 L29.625,9.781 L24.625,13.781 C24.442,13.927 24.221,14 24,14 C23.779,14 23.558,13.927 23.375,13.781 L23.375,13.781 Z M29.061,31.174 L25.391,24.933 L39.623,17.335 L43.591,24.114 L29.061,31.174 Z M39,36.526 C37.558,37.472 31.153,40.581 25,43.436 L25,28.215 L27.805,32.984 C27.99,33.299 28.323,33.478 28.668,33.478 C28.815,33.478 28.964,33.445 29.105,33.377 L39,28.569 L39,36.526 Z M9,28.501 L18.891,33.375 C19.033,33.444 19.184,33.478 19.332,33.478 C19.677,33.478 20.01,33.3 20.195,32.984 L23,28.215 L23,43.383 L9,36.394 L9,28.501 Z M8.372,17.333 L22.609,24.933 L18.942,31.17 L4.411,24.011 L8.372,17.333 Z M45.863,24.036 L40.863,15.495 C40.771,15.338 40.636,15.23 40.488,15.146 L40.496,15.132 L33.496,11.132 L32.504,12.868 L37.933,15.97 L24,23.408 L10.178,16.029 L16.447,12.895 L15.553,11.105 L7.553,15.105 L7.561,15.121 C7.394,15.204 7.241,15.318 7.14,15.49 L2.14,23.92 C1.998,24.16 1.962,24.448 2.041,24.715 C2.121,24.982 2.308,25.204 2.558,25.327 L7,27.516 L7,37.013 C7,37.392 7.214,37.738 7.554,37.907 L23.554,45.895 L23.558,45.886 C23.697,45.956 23.847,46 24,46 C24.143,46 24.285,45.97 24.418,45.908 C41,38.274 41,37.754 41,36.967 L41,27.597 L45.438,25.441 C45.688,25.319 45.876,25.098 45.957,24.832 C46.038,24.565 46.004,24.277 45.863,24.036 L45.863,24.036 Z" id="Fill-1" fill="#000000"></path>
    </g><g transform="translate(25, 83)" id="svgGroup" stroke-linecap="round" fill-rule="evenodd" font-size="9pt" stroke="#000" stroke-width="0.25mm" fill="#000" style="stroke:#000;stroke-width:0.25mm;fill:#000"><path d="M 23.12 0.088 L 24.13 4.469 L 24.253 5.313 L 24.434 4.553 L 25.699 0.088 L 26.411 0.088 L 27.646 4.553 L 27.822 5.326 L 27.958 4.465 L 28.951 0.088 L 29.799 0.088 L 28.248 6.486 L 27.479 6.486 L 26.161 1.824 L 26.06 1.336 L 25.958 1.824 L 24.592 6.486 L 23.823 6.486 L 22.276 0.088 L 23.12 0.088 Z M 34.98 1.938 L 34.132 1.938 A 1.466 1.466 0 0 0 34.083 1.546 A 1.066 1.066 0 0 0 33.763 1.026 A 1.211 1.211 0 0 0 33.294 0.77 Q 33.042 0.694 32.722 0.694 A 2.286 2.286 0 0 0 32.342 0.724 Q 32.14 0.758 31.977 0.831 A 1.101 1.101 0 0 0 31.748 0.969 A 0.892 0.892 0 0 0 31.403 1.624 A 1.267 1.267 0 0 0 31.399 1.732 A 0.806 0.806 0 0 0 31.667 2.337 A 1.134 1.134 0 0 0 31.731 2.393 A 1.562 1.562 0 0 0 31.969 2.549 Q 32.299 2.73 32.86 2.887 A 8.228 8.228 0 0 1 33.325 3.032 Q 33.56 3.113 33.754 3.2 A 3.297 3.297 0 0 1 34.108 3.382 A 2.342 2.342 0 0 1 34.447 3.626 Q 34.637 3.792 34.759 3.985 A 1.45 1.45 0 0 1 34.776 4.012 A 1.498 1.498 0 0 1 34.972 4.568 A 1.948 1.948 0 0 1 34.994 4.86 A 1.606 1.606 0 0 1 34.871 5.497 Q 34.726 5.838 34.408 6.09 A 1.886 1.886 0 0 1 34.387 6.106 Q 33.781 6.574 32.766 6.574 A 3.023 3.023 0 0 1 31.625 6.36 A 2.917 2.917 0 0 1 31.535 6.322 A 2.383 2.383 0 0 1 31.057 6.044 A 1.874 1.874 0 0 1 30.654 5.629 A 1.689 1.689 0 0 1 30.344 4.632 L 31.192 4.632 A 1.261 1.261 0 0 0 31.262 5.059 A 1.074 1.074 0 0 0 31.621 5.548 Q 32.005 5.85 32.622 5.881 A 2.87 2.87 0 0 0 32.766 5.884 A 2.628 2.628 0 0 0 33.153 5.858 Q 33.349 5.828 33.508 5.767 A 1.129 1.129 0 0 0 33.79 5.612 Q 34.146 5.339 34.146 4.869 A 1.074 1.074 0 0 0 34.103 4.559 A 0.816 0.816 0 0 0 33.816 4.142 Q 33.486 3.885 32.621 3.634 Q 31.535 3.322 31.041 2.868 Q 30.546 2.413 30.546 1.745 Q 30.546 0.989 31.151 0.494 A 2.121 2.121 0 0 1 32.041 0.071 A 3.087 3.087 0 0 1 32.722 0 A 2.913 2.913 0 0 1 33.382 0.072 A 2.372 2.372 0 0 1 33.897 0.255 A 2.051 2.051 0 0 1 34.428 0.626 A 1.834 1.834 0 0 1 34.697 0.958 A 1.798 1.798 0 0 1 34.98 1.938 Z M 3.74 6.486 L 2.351 3.898 L 0.848 3.898 L 0.848 6.486 L 0 6.486 L 0 0.088 L 2.118 0.088 A 3.809 3.809 0 0 1 2.76 0.138 Q 3.102 0.197 3.376 0.324 A 1.789 1.789 0 0 1 3.781 0.58 A 1.588 1.588 0 0 1 4.307 1.469 A 2.453 2.453 0 0 1 4.364 2.013 A 1.864 1.864 0 0 1 4.273 2.604 A 1.64 1.64 0 0 1 4.041 3.054 A 1.849 1.849 0 0 1 3.382 3.611 A 2.342 2.342 0 0 1 3.142 3.718 L 4.645 6.434 L 4.645 6.486 L 3.74 6.486 Z M 13.724 3.129 L 12.907 3.129 Q 12.907 2.795 12.623 2.553 Q 12.34 2.312 11.909 2.312 Q 11.465 2.312 11.215 2.505 A 0.653 0.653 0 0 0 11.04 2.704 Q 10.967 2.835 10.964 3 A 0.771 0.771 0 0 0 10.964 3.01 A 0.588 0.588 0 0 0 10.994 3.203 A 0.48 0.48 0 0 0 11.197 3.454 A 1.093 1.093 0 0 0 11.348 3.533 Q 11.512 3.605 11.767 3.673 A 6.581 6.581 0 0 0 12.039 3.74 A 6.318 6.318 0 0 1 12.446 3.845 Q 12.783 3.944 13.025 4.065 A 1.901 1.901 0 0 1 13.281 4.218 Q 13.418 4.315 13.516 4.429 A 1.06 1.06 0 0 1 13.586 4.52 A 1.024 1.024 0 0 1 13.748 4.927 A 1.388 1.388 0 0 1 13.768 5.168 Q 13.768 5.805 13.258 6.19 Q 12.776 6.554 12.022 6.573 A 3.337 3.337 0 0 1 11.936 6.574 A 2.746 2.746 0 0 1 11.401 6.525 A 2.124 2.124 0 0 1 10.925 6.372 A 1.771 1.771 0 0 1 10.491 6.094 A 1.54 1.54 0 0 1 10.237 5.807 Q 9.989 5.445 9.989 5.023 L 10.802 5.023 A 0.932 0.932 0 0 0 10.875 5.348 A 0.827 0.827 0 0 0 11.129 5.671 A 1.072 1.072 0 0 0 11.531 5.864 Q 11.686 5.903 11.867 5.91 A 2.013 2.013 0 0 0 11.936 5.911 A 1.863 1.863 0 0 0 12.231 5.889 Q 12.393 5.863 12.524 5.806 A 0.941 0.941 0 0 0 12.676 5.724 A 0.689 0.689 0 0 0 12.841 5.574 A 0.554 0.554 0 0 0 12.955 5.225 A 0.698 0.698 0 0 0 12.919 4.994 A 0.581 0.581 0 0 0 12.707 4.713 A 1.05 1.05 0 0 0 12.538 4.615 Q 12.349 4.524 12.054 4.449 A 5.392 5.392 0 0 0 11.841 4.399 A 6.342 6.342 0 0 1 11.48 4.311 Q 11.11 4.209 10.861 4.083 Q 10.562 3.93 10.392 3.731 A 1.017 1.017 0 0 1 10.325 3.643 Q 10.151 3.388 10.151 3.037 A 1.206 1.206 0 0 1 10.55 2.132 A 1.694 1.694 0 0 1 10.646 2.048 A 1.752 1.752 0 0 1 11.429 1.688 A 2.471 2.471 0 0 1 11.909 1.644 A 2.559 2.559 0 0 1 12.473 1.702 A 1.757 1.757 0 0 1 13.221 2.061 Q 13.724 2.479 13.724 3.129 Z M 21.327 6.486 L 20.716 4.816 L 18.035 4.816 L 17.433 6.486 L 16.563 6.486 L 19.006 0.088 L 19.745 0.088 L 22.192 6.486 L 21.327 6.486 Z M 5.212 4.241 L 5.212 4.091 A 3.17 3.17 0 0 1 5.288 3.382 A 2.581 2.581 0 0 1 5.482 2.828 A 2.191 2.191 0 0 1 5.93 2.202 A 2.033 2.033 0 0 1 6.238 1.958 Q 6.724 1.644 7.291 1.644 A 2.254 2.254 0 0 1 7.904 1.723 A 1.639 1.639 0 0 1 8.732 2.254 Q 9.246 2.865 9.246 4.003 L 9.246 4.342 L 6.025 4.342 A 2.111 2.111 0 0 0 6.096 4.85 A 1.516 1.516 0 0 0 6.436 5.478 A 1.282 1.282 0 0 0 7.37 5.909 A 1.652 1.652 0 0 0 7.436 5.911 A 1.763 1.763 0 0 0 7.764 5.882 Q 7.988 5.839 8.165 5.735 A 1.827 1.827 0 0 0 8.674 5.287 A 2.068 2.068 0 0 0 8.688 5.269 L 9.185 5.656 A 1.926 1.926 0 0 1 7.785 6.547 A 2.749 2.749 0 0 1 7.392 6.574 A 2.394 2.394 0 0 1 6.64 6.461 A 1.974 1.974 0 0 1 5.818 5.939 Q 5.212 5.304 5.212 4.241 Z M 0.848 0.782 L 0.848 3.208 L 2.145 3.208 Q 2.685 3.208 3.035 2.968 A 1.174 1.174 0 0 0 3.144 2.883 A 1.069 1.069 0 0 0 3.51 2.146 A 1.486 1.486 0 0 0 3.516 2.013 Q 3.516 1.47 3.22 1.159 A 1 1 0 0 0 3.162 1.103 Q 2.808 0.787 2.14 0.782 L 0.848 0.782 Z M 19.375 1.129 L 18.29 4.122 L 20.465 4.122 L 19.375 1.129 Z M 6.051 3.674 L 8.433 3.674 L 8.433 3.612 Q 8.407 3.153 8.236 2.848 A 1.13 1.13 0 0 0 8.099 2.652 A 0.983 0.983 0 0 0 7.445 2.32 A 1.39 1.39 0 0 0 7.291 2.312 A 1.106 1.106 0 0 0 6.768 2.435 A 1.14 1.14 0 0 0 6.464 2.67 A 1.417 1.417 0 0 0 6.188 3.116 Q 6.114 3.3 6.074 3.522 A 2.741 2.741 0 0 0 6.051 3.674 Z" vector-effect="non-scaling-stroke"/></g><g transform="translate(25, 93)" id="svgGroup" stroke-linecap="round" fill-rule="evenodd" font-size="9pt" stroke="#000" stroke-width="0.25mm" fill="#000" style="stroke:#000;stroke-width:0.25mm;fill:#000"><path d="M 37.094 0.352 L 38.184 0.352 L 40.276 5.572 L 42.368 0.352 L 43.462 0.352 L 43.462 6.75 L 42.618 6.75 L 42.618 4.258 L 42.697 1.569 L 40.597 6.75 L 39.951 6.75 L 37.855 1.582 L 37.938 4.258 L 37.938 6.75 L 37.094 6.75 L 37.094 0.352 Z M 22.206 1.995 L 22.975 1.995 L 22.997 2.522 Q 23.52 1.907 24.407 1.907 A 2.009 2.009 0 0 1 24.918 1.968 A 1.244 1.244 0 0 1 25.765 2.672 A 1.801 1.801 0 0 1 26.383 2.118 A 1.65 1.65 0 0 1 26.912 1.937 A 2.209 2.209 0 0 1 27.281 1.907 A 2.119 2.119 0 0 1 27.926 1.997 Q 28.852 2.292 28.872 3.564 L 28.872 6.75 L 28.059 6.75 L 28.059 3.612 A 1.781 1.781 0 0 0 28.039 3.332 Q 28.015 3.185 27.965 3.067 A 0.758 0.758 0 0 0 27.826 2.85 A 0.68 0.68 0 0 0 27.573 2.682 Q 27.362 2.597 27.045 2.597 A 1.245 1.245 0 0 0 26.679 2.648 A 1.008 1.008 0 0 0 26.293 2.867 A 1.042 1.042 0 0 0 25.979 3.404 A 1.41 1.41 0 0 0 25.945 3.595 L 25.945 6.75 L 25.128 6.75 L 25.128 3.634 A 1.532 1.532 0 0 0 25.08 3.23 Q 24.953 2.768 24.495 2.643 A 1.457 1.457 0 0 0 24.113 2.597 Q 23.339 2.597 23.039 3.234 A 1.459 1.459 0 0 0 23.019 3.278 L 23.019 6.75 L 22.206 6.75 L 22.206 1.995 Z M 4.636 2.202 L 3.788 2.202 A 1.466 1.466 0 0 0 3.738 1.809 A 1.066 1.066 0 0 0 3.419 1.29 A 1.211 1.211 0 0 0 2.95 1.033 Q 2.698 0.958 2.378 0.958 A 2.286 2.286 0 0 0 1.998 0.988 Q 1.796 1.022 1.633 1.095 A 1.101 1.101 0 0 0 1.404 1.233 A 0.892 0.892 0 0 0 1.059 1.887 A 1.267 1.267 0 0 0 1.055 1.995 A 0.806 0.806 0 0 0 1.323 2.6 A 1.134 1.134 0 0 0 1.387 2.656 A 1.562 1.562 0 0 0 1.625 2.813 Q 1.955 2.993 2.516 3.151 A 8.228 8.228 0 0 1 2.981 3.295 Q 3.216 3.377 3.41 3.464 A 3.297 3.297 0 0 1 3.764 3.645 A 2.342 2.342 0 0 1 4.103 3.889 Q 4.293 4.056 4.415 4.248 A 1.45 1.45 0 0 1 4.432 4.276 A 1.498 1.498 0 0 1 4.628 4.832 A 1.948 1.948 0 0 1 4.65 5.124 A 1.606 1.606 0 0 1 4.527 5.76 Q 4.382 6.101 4.064 6.354 A 1.886 1.886 0 0 1 4.043 6.37 Q 3.437 6.838 2.422 6.838 A 3.023 3.023 0 0 1 1.281 6.623 A 2.917 2.917 0 0 1 1.191 6.585 A 2.383 2.383 0 0 1 0.713 6.307 A 1.874 1.874 0 0 1 0.31 5.893 A 1.689 1.689 0 0 1 0 4.896 L 0.848 4.896 A 1.261 1.261 0 0 0 0.918 5.323 A 1.074 1.074 0 0 0 1.277 5.812 Q 1.661 6.113 2.278 6.144 A 2.87 2.87 0 0 0 2.422 6.148 A 2.628 2.628 0 0 0 2.809 6.121 Q 3.005 6.092 3.164 6.031 A 1.129 1.129 0 0 0 3.445 5.875 Q 3.801 5.603 3.801 5.133 A 1.074 1.074 0 0 0 3.759 4.822 A 0.816 0.816 0 0 0 3.472 4.406 Q 3.142 4.148 2.277 3.898 Q 1.191 3.586 0.697 3.131 Q 0.202 2.676 0.202 2.008 Q 0.202 1.252 0.807 0.758 A 2.121 2.121 0 0 1 1.697 0.335 A 3.087 3.087 0 0 1 2.378 0.264 A 2.913 2.913 0 0 1 3.038 0.336 A 2.372 2.372 0 0 1 3.553 0.519 A 2.051 2.051 0 0 1 4.084 0.889 A 1.834 1.834 0 0 1 4.353 1.222 A 1.798 1.798 0 0 1 4.636 2.202 Z M 144.062 0 L 144.062 2.571 A 1.767 1.767 0 0 1 144.728 2.053 A 1.832 1.832 0 0 1 145.468 1.907 A 1.905 1.905 0 0 1 146.101 2.004 Q 146.943 2.3 146.986 3.506 A 3.668 3.668 0 0 1 146.988 3.608 L 146.988 6.75 L 146.175 6.75 L 146.175 3.604 A 1.837 1.837 0 0 0 146.153 3.324 Q 146.103 3.017 145.94 2.843 Q 145.754 2.645 145.401 2.606 A 1.66 1.66 0 0 0 145.222 2.597 A 1.253 1.253 0 0 0 144.807 2.664 A 1.123 1.123 0 0 0 144.527 2.808 A 1.432 1.432 0 0 0 144.062 3.362 L 144.062 6.75 L 143.249 6.75 L 143.249 0 L 144.062 0 Z M 62.622 2.522 L 62.662 1.995 L 63.404 1.995 L 63.404 6.636 A 2.511 2.511 0 0 1 63.334 7.249 A 1.738 1.738 0 0 1 62.857 8.09 A 1.834 1.834 0 0 1 61.927 8.57 A 2.671 2.671 0 0 1 61.387 8.622 A 2.446 2.446 0 0 1 60.381 8.402 A 2.003 2.003 0 0 1 59.971 8.161 A 1.563 1.563 0 0 1 59.63 7.8 L 60.051 7.313 A 1.889 1.889 0 0 0 60.486 7.712 A 1.514 1.514 0 0 0 61.33 7.958 A 1.695 1.695 0 0 0 61.707 7.919 Q 61.976 7.858 62.17 7.702 A 1.037 1.037 0 0 0 62.255 7.625 A 1.09 1.09 0 0 0 62.532 7.132 Q 62.579 6.959 62.586 6.752 A 2.134 2.134 0 0 0 62.587 6.684 L 62.587 6.275 A 1.601 1.601 0 0 1 61.535 6.821 A 2.279 2.279 0 0 1 61.256 6.838 A 1.672 1.672 0 0 1 60.5 6.67 Q 60.178 6.51 59.929 6.197 A 2.14 2.14 0 0 1 59.904 6.166 A 2.316 2.316 0 0 1 59.521 5.386 Q 59.388 4.922 59.388 4.333 Q 59.388 3.472 59.696 2.884 A 2.096 2.096 0 0 1 59.902 2.564 Q 60.416 1.907 61.264 1.907 A 1.971 1.971 0 0 1 61.863 1.994 A 1.55 1.55 0 0 1 62.622 2.522 Z M 141.24 2.522 L 141.28 1.995 L 142.023 1.995 L 142.023 6.636 A 2.511 2.511 0 0 1 141.952 7.249 A 1.738 1.738 0 0 1 141.475 8.09 A 1.834 1.834 0 0 1 140.546 8.57 A 2.671 2.671 0 0 1 140.006 8.622 A 2.446 2.446 0 0 1 138.999 8.402 A 2.003 2.003 0 0 1 138.589 8.161 A 1.563 1.563 0 0 1 138.248 7.8 L 138.67 7.313 A 1.889 1.889 0 0 0 139.104 7.712 A 1.514 1.514 0 0 0 139.948 7.958 A 1.695 1.695 0 0 0 140.325 7.919 Q 140.594 7.858 140.788 7.702 A 1.037 1.037 0 0 0 140.873 7.625 A 1.09 1.09 0 0 0 141.15 7.132 Q 141.198 6.959 141.204 6.752 A 2.134 2.134 0 0 0 141.205 6.684 L 141.205 6.275 A 1.601 1.601 0 0 1 140.153 6.821 A 2.279 2.279 0 0 1 139.874 6.838 A 1.672 1.672 0 0 1 139.118 6.67 Q 138.796 6.51 138.547 6.197 A 2.14 2.14 0 0 1 138.522 6.166 A 2.316 2.316 0 0 1 138.139 5.386 Q 138.006 4.922 138.006 4.333 Q 138.006 3.472 138.314 2.884 A 2.096 2.096 0 0 1 138.52 2.564 Q 139.034 1.907 139.882 1.907 A 1.971 1.971 0 0 1 140.481 1.994 A 1.55 1.55 0 0 1 141.24 2.522 Z M 13.399 3.393 L 12.582 3.393 Q 12.582 3.059 12.298 2.817 Q 12.015 2.575 11.584 2.575 Q 11.14 2.575 10.89 2.769 A 0.653 0.653 0 0 0 10.715 2.967 Q 10.642 3.098 10.639 3.263 A 0.771 0.771 0 0 0 10.639 3.274 A 0.588 0.588 0 0 0 10.669 3.467 A 0.48 0.48 0 0 0 10.872 3.718 A 1.093 1.093 0 0 0 11.022 3.796 Q 11.187 3.868 11.442 3.937 A 6.581 6.581 0 0 0 11.714 4.003 A 6.318 6.318 0 0 1 12.121 4.108 Q 12.458 4.208 12.7 4.329 A 1.901 1.901 0 0 1 12.956 4.481 Q 13.093 4.579 13.19 4.692 A 1.06 1.06 0 0 1 13.261 4.783 A 1.024 1.024 0 0 1 13.423 5.191 A 1.388 1.388 0 0 1 13.443 5.432 Q 13.443 6.069 12.933 6.453 Q 12.451 6.817 11.697 6.837 A 3.337 3.337 0 0 1 11.61 6.838 A 2.746 2.746 0 0 1 11.076 6.788 A 2.124 2.124 0 0 1 10.6 6.636 A 1.771 1.771 0 0 1 10.166 6.358 A 1.54 1.54 0 0 1 9.912 6.071 Q 9.664 5.708 9.664 5.287 L 10.477 5.287 A 0.932 0.932 0 0 0 10.55 5.612 A 0.827 0.827 0 0 0 10.804 5.935 A 1.072 1.072 0 0 0 11.206 6.128 Q 11.361 6.167 11.542 6.173 A 2.013 2.013 0 0 0 11.61 6.174 A 1.863 1.863 0 0 0 11.906 6.152 Q 12.068 6.126 12.199 6.07 A 0.941 0.941 0 0 0 12.351 5.988 A 0.689 0.689 0 0 0 12.516 5.837 A 0.554 0.554 0 0 0 12.63 5.489 A 0.698 0.698 0 0 0 12.594 5.258 A 0.581 0.581 0 0 0 12.382 4.977 A 1.05 1.05 0 0 0 12.213 4.878 Q 12.024 4.788 11.729 4.712 A 5.392 5.392 0 0 0 11.516 4.663 A 6.342 6.342 0 0 1 11.155 4.575 Q 10.785 4.473 10.536 4.346 Q 10.237 4.194 10.067 3.994 A 1.017 1.017 0 0 1 10 3.907 Q 9.826 3.652 9.826 3.3 A 1.206 1.206 0 0 1 10.225 2.396 A 1.694 1.694 0 0 1 10.321 2.312 A 1.752 1.752 0 0 1 11.104 1.952 A 2.471 2.471 0 0 1 11.584 1.907 A 2.559 2.559 0 0 1 12.148 1.966 A 1.757 1.757 0 0 1 12.896 2.325 Q 13.399 2.742 13.399 3.393 Z M 33.636 3.393 L 32.819 3.393 Q 32.819 3.059 32.535 2.817 Q 32.252 2.575 31.821 2.575 Q 31.377 2.575 31.127 2.769 A 0.653 0.653 0 0 0 30.952 2.967 Q 30.878 3.098 30.876 3.263 A 0.771 0.771 0 0 0 30.876 3.274 A 0.588 0.588 0 0 0 30.906 3.467 A 0.48 0.48 0 0 0 31.109 3.718 A 1.093 1.093 0 0 0 31.259 3.796 Q 31.423 3.868 31.679 3.937 A 6.581 6.581 0 0 0 31.951 4.003 A 6.318 6.318 0 0 1 32.358 4.108 Q 32.695 4.208 32.937 4.329 A 1.901 1.901 0 0 1 33.193 4.481 Q 33.33 4.579 33.427 4.692 A 1.06 1.06 0 0 1 33.497 4.783 A 1.024 1.024 0 0 1 33.66 5.191 A 1.388 1.388 0 0 1 33.68 5.432 Q 33.68 6.069 33.17 6.453 Q 32.688 6.817 31.934 6.837 A 3.337 3.337 0 0 1 31.847 6.838 A 2.746 2.746 0 0 1 31.313 6.788 A 2.124 2.124 0 0 1 30.837 6.636 A 1.771 1.771 0 0 1 30.403 6.358 A 1.54 1.54 0 0 1 30.149 6.071 Q 29.901 5.708 29.901 5.287 L 30.714 5.287 A 0.932 0.932 0 0 0 30.787 5.612 A 0.827 0.827 0 0 0 31.041 5.935 A 1.072 1.072 0 0 0 31.443 6.128 Q 31.598 6.167 31.779 6.173 A 2.013 2.013 0 0 0 31.847 6.174 A 1.863 1.863 0 0 0 32.143 6.152 Q 32.304 6.126 32.436 6.07 A 0.941 0.941 0 0 0 32.588 5.988 A 0.689 0.689 0 0 0 32.752 5.837 A 0.554 0.554 0 0 0 32.867 5.489 A 0.698 0.698 0 0 0 32.83 5.258 A 0.581 0.581 0 0 0 32.619 4.977 A 1.05 1.05 0 0 0 32.45 4.878 Q 32.261 4.788 31.966 4.712 A 5.392 5.392 0 0 0 31.753 4.663 A 6.342 6.342 0 0 1 31.392 4.575 Q 31.022 4.473 30.773 4.346 Q 30.474 4.194 30.304 3.994 A 1.017 1.017 0 0 1 30.237 3.907 Q 30.063 3.652 30.063 3.3 A 1.206 1.206 0 0 1 30.462 2.396 A 1.694 1.694 0 0 1 30.558 2.312 A 1.752 1.752 0 0 1 31.341 1.952 A 2.471 2.471 0 0 1 31.821 1.907 A 2.559 2.559 0 0 1 32.384 1.966 A 1.757 1.757 0 0 1 33.133 2.325 Q 33.636 2.742 33.636 3.393 Z M 86.296 3.393 L 85.478 3.393 Q 85.478 3.059 85.195 2.817 Q 84.911 2.575 84.481 2.575 Q 84.037 2.575 83.786 2.769 A 0.653 0.653 0 0 0 83.611 2.967 Q 83.538 3.098 83.536 3.263 A 0.771 0.771 0 0 0 83.536 3.274 A 0.588 0.588 0 0 0 83.566 3.467 A 0.48 0.48 0 0 0 83.769 3.718 A 1.093 1.093 0 0 0 83.919 3.796 Q 84.083 3.868 84.339 3.937 A 6.581 6.581 0 0 0 84.61 4.003 A 6.318 6.318 0 0 1 85.018 4.108 Q 85.355 4.208 85.597 4.329 A 1.901 1.901 0 0 1 85.853 4.481 Q 85.99 4.579 86.087 4.692 A 1.06 1.06 0 0 1 86.157 4.783 A 1.024 1.024 0 0 1 86.319 5.191 A 1.388 1.388 0 0 1 86.34 5.432 Q 86.34 6.069 85.83 6.453 Q 85.347 6.817 84.593 6.837 A 3.337 3.337 0 0 1 84.507 6.838 A 2.746 2.746 0 0 1 83.973 6.788 A 2.124 2.124 0 0 1 83.496 6.636 A 1.771 1.771 0 0 1 83.062 6.358 A 1.54 1.54 0 0 1 82.808 6.071 Q 82.56 5.708 82.56 5.287 L 83.373 5.287 A 0.932 0.932 0 0 0 83.447 5.612 A 0.827 0.827 0 0 0 83.701 5.935 A 1.072 1.072 0 0 0 84.103 6.128 Q 84.257 6.167 84.439 6.173 A 2.013 2.013 0 0 0 84.507 6.174 A 1.863 1.863 0 0 0 84.803 6.152 Q 84.964 6.126 85.096 6.07 A 0.941 0.941 0 0 0 85.247 5.988 A 0.689 0.689 0 0 0 85.412 5.837 A 0.554 0.554 0 0 0 85.527 5.489 A 0.698 0.698 0 0 0 85.49 5.258 A 0.581 0.581 0 0 0 85.278 4.977 A 1.05 1.05 0 0 0 85.109 4.878 Q 84.921 4.788 84.626 4.712 A 5.392 5.392 0 0 0 84.413 4.663 A 6.342 6.342 0 0 1 84.051 4.575 Q 83.682 4.473 83.433 4.346 Q 83.134 4.194 82.963 3.994 A 1.017 1.017 0 0 1 82.896 3.907 Q 82.723 3.652 82.723 3.3 A 1.206 1.206 0 0 1 83.122 2.396 A 1.694 1.694 0 0 1 83.217 2.312 A 1.752 1.752 0 0 1 84 1.952 A 2.471 2.471 0 0 1 84.481 1.907 A 2.559 2.559 0 0 1 85.044 1.966 A 1.757 1.757 0 0 1 85.792 2.325 Q 86.296 2.742 86.296 3.393 Z M 5.972 1.995 L 7.159 5.559 L 8.266 1.995 L 9.136 1.995 L 7.225 7.484 Q 6.781 8.67 5.814 8.67 L 5.66 8.657 L 5.357 8.6 L 5.357 7.941 L 5.577 7.958 Q 5.857 7.958 6.053 7.882 A 0.75 0.75 0 0 0 6.221 7.792 A 0.749 0.749 0 0 0 6.381 7.629 Q 6.499 7.47 6.589 7.215 A 2.575 2.575 0 0 0 6.601 7.181 L 6.781 6.697 L 5.085 1.995 L 5.972 1.995 Z M 49.72 1.995 L 50.489 1.995 L 50.515 2.593 Q 51.052 1.918 51.912 1.907 A 2.234 2.234 0 0 1 51.939 1.907 A 1.905 1.905 0 0 1 52.573 2.004 Q 53.414 2.3 53.457 3.506 A 3.668 3.668 0 0 1 53.46 3.608 L 53.46 6.75 L 52.647 6.75 L 52.647 3.604 A 1.837 1.837 0 0 0 52.624 3.324 Q 52.574 3.017 52.412 2.843 Q 52.225 2.645 51.872 2.606 A 1.66 1.66 0 0 0 51.693 2.597 A 1.253 1.253 0 0 0 51.279 2.664 A 1.123 1.123 0 0 0 50.999 2.808 A 1.432 1.432 0 0 0 50.533 3.362 L 50.533 6.75 L 49.72 6.75 L 49.72 1.995 Z M 103.57 6.75 L 103.553 6.28 A 1.526 1.526 0 0 1 102.727 6.775 Q 102.476 6.836 102.179 6.838 A 2.996 2.996 0 0 1 102.16 6.838 A 2.086 2.086 0 0 1 101.7 6.79 Q 101.269 6.693 101.002 6.396 A 1.41 1.41 0 0 1 100.719 5.899 Q 100.602 5.556 100.6 5.089 L 100.6 1.995 L 101.413 1.995 L 101.413 5.067 Q 101.413 6.037 102.12 6.137 A 1.229 1.229 0 0 0 102.292 6.148 A 1.927 1.927 0 0 0 102.743 6.099 Q 103.305 5.964 103.531 5.454 L 103.531 1.995 L 104.344 1.995 L 104.344 6.75 L 103.57 6.75 Z M 48.612 6.75 L 47.76 6.75 A 0.632 0.632 0 0 1 47.724 6.66 Q 47.693 6.562 47.668 6.41 A 3.997 3.997 0 0 1 47.646 6.249 Q 47.079 6.838 46.292 6.838 A 2.033 2.033 0 0 1 45.763 6.772 A 1.529 1.529 0 0 1 45.139 6.44 Q 44.688 6.042 44.688 5.432 Q 44.688 4.689 45.253 4.278 Q 45.818 3.867 46.841 3.867 L 47.632 3.867 L 47.632 3.494 A 1.152 1.152 0 0 0 47.597 3.199 A 0.828 0.828 0 0 0 47.378 2.815 Q 47.161 2.6 46.771 2.568 A 1.748 1.748 0 0 0 46.626 2.562 Q 46.191 2.562 45.897 2.782 Q 45.602 3.001 45.602 3.313 L 44.785 3.313 A 1.041 1.041 0 0 1 44.91 2.825 A 1.409 1.409 0 0 1 45.038 2.626 Q 45.29 2.294 45.723 2.101 A 2.249 2.249 0 0 1 46.499 1.913 A 2.669 2.669 0 0 1 46.674 1.907 A 2.65 2.65 0 0 1 47.192 1.955 Q 47.499 2.016 47.738 2.156 A 1.439 1.439 0 0 1 47.962 2.318 A 1.396 1.396 0 0 1 48.415 3.144 A 1.998 1.998 0 0 1 48.445 3.45 L 48.445 5.638 Q 48.445 6.073 48.519 6.39 A 1.707 1.707 0 0 0 48.612 6.68 L 48.612 6.75 Z M 58.474 6.75 L 57.621 6.75 A 0.632 0.632 0 0 1 57.586 6.66 Q 57.555 6.562 57.53 6.41 A 3.997 3.997 0 0 1 57.507 6.249 Q 56.94 6.838 56.153 6.838 A 2.033 2.033 0 0 1 55.624 6.772 A 1.529 1.529 0 0 1 55 6.44 Q 54.549 6.042 54.549 5.432 Q 54.549 4.689 55.114 4.278 Q 55.679 3.867 56.703 3.867 L 57.494 3.867 L 57.494 3.494 A 1.152 1.152 0 0 0 57.458 3.199 A 0.828 0.828 0 0 0 57.239 2.815 Q 57.023 2.6 56.632 2.568 A 1.748 1.748 0 0 0 56.487 2.562 Q 56.052 2.562 55.758 2.782 Q 55.464 3.001 55.464 3.313 L 54.646 3.313 A 1.041 1.041 0 0 1 54.771 2.825 A 1.409 1.409 0 0 1 54.899 2.626 Q 55.152 2.294 55.584 2.101 A 2.249 2.249 0 0 1 56.36 1.913 A 2.669 2.669 0 0 1 56.536 1.907 A 2.65 2.65 0 0 1 57.053 1.955 Q 57.36 2.016 57.599 2.156 A 1.439 1.439 0 0 1 57.823 2.318 A 1.396 1.396 0 0 1 58.277 3.144 A 1.998 1.998 0 0 1 58.307 3.45 L 58.307 5.638 Q 58.307 6.073 58.38 6.39 A 1.707 1.707 0 0 0 58.474 6.68 L 58.474 6.75 Z M 99.593 4.355 L 99.593 4.425 Q 99.593 5.308 99.265 5.909 A 2.141 2.141 0 0 1 99.092 6.177 A 1.647 1.647 0 0 1 98.506 6.673 Q 98.191 6.828 97.8 6.837 A 2.112 2.112 0 0 1 97.748 6.838 A 2.039 2.039 0 0 1 97.153 6.756 A 1.561 1.561 0 0 1 96.355 6.201 L 96.315 6.75 L 95.568 6.75 L 95.568 0 L 96.381 0 L 96.381 2.518 A 1.605 1.605 0 0 1 97.548 1.915 A 2.285 2.285 0 0 1 97.739 1.907 A 1.835 1.835 0 0 1 98.37 2.011 A 1.579 1.579 0 0 1 99.099 2.562 Q 99.513 3.11 99.58 3.998 A 4.727 4.727 0 0 1 99.593 4.355 Z M 17.235 4.504 L 17.235 4.355 A 3.17 3.17 0 0 1 17.312 3.646 A 2.581 2.581 0 0 1 17.506 3.092 A 2.191 2.191 0 0 1 17.953 2.466 A 2.033 2.033 0 0 1 18.262 2.221 Q 18.747 1.907 19.314 1.907 A 2.254 2.254 0 0 1 19.927 1.986 A 1.639 1.639 0 0 1 20.756 2.518 Q 21.27 3.129 21.27 4.267 L 21.27 4.605 L 18.048 4.605 A 2.111 2.111 0 0 0 18.12 5.114 A 1.516 1.516 0 0 0 18.459 5.741 A 1.282 1.282 0 0 0 19.393 6.173 A 1.652 1.652 0 0 0 19.459 6.174 A 1.763 1.763 0 0 0 19.787 6.145 Q 20.011 6.103 20.189 5.999 A 1.827 1.827 0 0 0 20.697 5.551 A 2.068 2.068 0 0 0 20.712 5.533 L 21.208 5.919 A 1.926 1.926 0 0 1 19.808 6.811 A 2.749 2.749 0 0 1 19.415 6.838 A 2.394 2.394 0 0 1 18.664 6.725 A 1.974 1.974 0 0 1 17.842 6.203 Q 17.235 5.568 17.235 4.504 Z M 64.424 4.504 L 64.424 4.355 A 3.17 3.17 0 0 1 64.5 3.646 A 2.581 2.581 0 0 1 64.694 3.092 A 2.191 2.191 0 0 1 65.142 2.466 A 2.033 2.033 0 0 1 65.45 2.221 Q 65.936 1.907 66.503 1.907 A 2.254 2.254 0 0 1 67.116 1.986 A 1.639 1.639 0 0 1 67.944 2.518 Q 68.458 3.129 68.458 4.267 L 68.458 4.605 L 65.237 4.605 A 2.111 2.111 0 0 0 65.308 5.114 A 1.516 1.516 0 0 0 65.648 5.741 A 1.282 1.282 0 0 0 66.582 6.173 A 1.652 1.652 0 0 0 66.648 6.174 A 1.763 1.763 0 0 0 66.976 6.145 Q 67.2 6.103 67.377 5.999 A 1.827 1.827 0 0 0 67.886 5.551 A 2.068 2.068 0 0 0 67.9 5.533 L 68.397 5.919 A 1.926 1.926 0 0 1 66.997 6.811 A 2.749 2.749 0 0 1 66.604 6.838 A 2.394 2.394 0 0 1 65.852 6.725 A 1.974 1.974 0 0 1 65.03 6.203 Q 64.424 5.568 64.424 4.504 Z M 132.148 0.352 L 132.148 6.06 L 135.18 6.06 L 135.18 6.75 L 131.3 6.75 L 131.3 0.352 L 132.148 0.352 Z M 122.186 0.352 L 122.186 4.601 L 123.073 4.601 L 123.073 5.265 L 122.186 5.265 L 122.186 6.75 L 121.368 6.75 L 121.368 5.265 L 118.455 5.265 L 118.455 4.786 L 121.32 0.352 L 122.186 0.352 Z M 76.57 6.75 L 74.799 6.75 L 74.799 0.352 L 76.606 0.352 Q 77.441 0.352 78.082 0.721 Q 78.724 1.09 79.073 1.771 A 3.19 3.19 0 0 1 79.39 2.8 A 4.073 4.073 0 0 1 79.427 3.335 L 79.427 3.744 Q 79.427 4.649 79.078 5.331 A 2.457 2.457 0 0 1 78.08 6.376 Q 77.432 6.741 76.57 6.75 Z M 127.584 2.592 A 1.544 1.544 0 0 0 127.688 2.021 A 2.226 2.226 0 0 0 127.666 1.707 A 1.566 1.566 0 0 0 127.167 0.738 A 1.754 1.754 0 0 0 126.401 0.333 A 2.443 2.443 0 0 0 125.802 0.264 A 2.539 2.539 0 0 0 125.293 0.312 A 1.767 1.767 0 0 0 124.436 0.738 Q 123.917 1.213 123.917 2.021 A 1.808 1.808 0 0 0 123.918 2.058 A 1.499 1.499 0 0 0 124.163 2.87 A 1.626 1.626 0 0 0 124.325 3.077 A 1.726 1.726 0 0 0 124.836 3.454 A 2.119 2.119 0 0 0 124.736 3.5 A 1.738 1.738 0 0 0 124.051 4.087 A 1.629 1.629 0 0 0 123.768 5.023 A 2.272 2.272 0 0 0 123.778 5.237 A 1.63 1.63 0 0 0 124.324 6.344 A 1.895 1.895 0 0 0 125.174 6.771 A 2.797 2.797 0 0 0 125.802 6.838 A 2.796 2.796 0 0 0 126.401 6.777 A 1.925 1.925 0 0 0 127.277 6.346 A 1.578 1.578 0 0 0 127.752 5.62 A 1.989 1.989 0 0 0 127.837 5.023 A 1.581 1.581 0 0 0 127.545 4.087 Q 127.253 3.674 126.752 3.458 Q 127.182 3.248 127.435 2.874 A 1.449 1.449 0 0 0 127.584 2.592 Z M 14.792 0.844 L 15.605 0.844 L 15.605 1.995 L 16.493 1.995 L 16.493 2.624 L 15.605 2.624 L 15.605 5.572 Q 15.605 5.858 15.724 6.001 Q 15.842 6.144 16.128 6.144 A 1.046 1.046 0 0 0 16.226 6.138 Q 16.328 6.129 16.468 6.101 A 4.024 4.024 0 0 0 16.515 6.091 L 16.515 6.75 A 2.463 2.463 0 0 1 16.082 6.829 A 2.157 2.157 0 0 1 15.891 6.838 Q 15.444 6.838 15.177 6.616 A 0.856 0.856 0 0 1 15.069 6.508 Q 14.842 6.238 14.801 5.78 A 2.351 2.351 0 0 1 14.792 5.572 L 14.792 2.624 L 13.926 2.624 L 13.926 1.995 L 14.792 1.995 L 14.792 0.844 Z M 87.689 0.844 L 88.502 0.844 L 88.502 1.995 L 89.389 1.995 L 89.389 2.624 L 88.502 2.624 L 88.502 5.572 Q 88.502 5.858 88.62 6.001 Q 88.739 6.144 89.025 6.144 A 1.046 1.046 0 0 0 89.122 6.138 Q 89.225 6.129 89.365 6.101 A 4.024 4.024 0 0 0 89.411 6.091 L 89.411 6.75 A 2.463 2.463 0 0 1 88.978 6.829 A 2.157 2.157 0 0 1 88.787 6.838 Q 88.34 6.838 88.074 6.616 A 0.856 0.856 0 0 1 87.965 6.508 Q 87.738 6.238 87.697 5.78 A 2.351 2.351 0 0 1 87.689 5.572 L 87.689 2.624 L 86.823 2.624 L 86.823 1.995 L 87.689 1.995 L 87.689 0.844 Z M 105.869 0.844 L 106.682 0.844 L 106.682 1.995 L 107.569 1.995 L 107.569 2.624 L 106.682 2.624 L 106.682 5.572 Q 106.682 5.858 106.8 6.001 Q 106.919 6.144 107.205 6.144 A 1.046 1.046 0 0 0 107.302 6.138 Q 107.405 6.129 107.545 6.101 A 4.024 4.024 0 0 0 107.591 6.091 L 107.591 6.75 A 2.463 2.463 0 0 1 107.159 6.829 A 2.157 2.157 0 0 1 106.967 6.838 Q 106.52 6.838 106.254 6.616 A 0.856 0.856 0 0 1 106.146 6.508 Q 105.918 6.238 105.878 5.78 A 2.351 2.351 0 0 1 105.869 5.572 L 105.869 2.624 L 105.003 2.624 L 105.003 1.995 L 105.869 1.995 L 105.869 0.844 Z M 148.496 0.844 L 149.309 0.844 L 149.309 1.995 L 150.196 1.995 L 150.196 2.624 L 149.309 2.624 L 149.309 5.572 Q 149.309 5.858 149.427 6.001 Q 149.546 6.144 149.832 6.144 A 1.046 1.046 0 0 0 149.929 6.138 Q 150.032 6.129 150.172 6.101 A 4.024 4.024 0 0 0 150.218 6.091 L 150.218 6.75 A 2.463 2.463 0 0 1 149.786 6.829 A 2.157 2.157 0 0 1 149.594 6.838 Q 149.147 6.838 148.881 6.616 A 0.856 0.856 0 0 1 148.773 6.508 Q 148.545 6.238 148.505 5.78 A 2.351 2.351 0 0 1 148.496 5.572 L 148.496 2.624 L 147.63 2.624 L 147.63 1.995 L 148.496 1.995 L 148.496 0.844 Z M 108.215 4.386 L 108.215 4.329 A 3.057 3.057 0 0 1 108.302 3.587 A 2.573 2.573 0 0 1 108.49 3.072 A 2.16 2.16 0 0 1 108.905 2.486 A 1.957 1.957 0 0 1 109.255 2.21 A 2.036 2.036 0 0 1 110.199 1.913 A 2.491 2.491 0 0 1 110.373 1.907 A 2.277 2.277 0 0 1 111.127 2.027 A 1.937 1.937 0 0 1 111.944 2.58 A 2.29 2.29 0 0 1 112.463 3.608 A 3.373 3.373 0 0 1 112.544 4.368 L 112.544 4.425 A 3.114 3.114 0 0 1 112.465 5.142 A 2.577 2.577 0 0 1 112.278 5.671 A 2.056 2.056 0 0 1 111.751 6.361 A 2.001 2.001 0 0 1 111.518 6.53 A 2.045 2.045 0 0 1 110.598 6.829 A 2.529 2.529 0 0 1 110.382 6.838 A 2.262 2.262 0 0 1 109.632 6.718 A 1.938 1.938 0 0 1 108.815 6.166 A 2.297 2.297 0 0 1 108.29 5.111 A 3.357 3.357 0 0 1 108.215 4.386 Z M 71.697 1.969 L 71.697 2.725 A 2.251 2.251 0 0 0 71.454 2.698 A 2.782 2.782 0 0 0 71.297 2.694 Q 70.519 2.694 70.228 3.338 A 1.445 1.445 0 0 0 70.212 3.375 L 70.212 6.75 L 69.399 6.75 L 69.399 1.995 L 70.19 1.995 L 70.203 2.544 Q 70.583 1.938 71.266 1.909 A 1.636 1.636 0 0 1 71.337 1.907 Q 71.574 1.907 71.697 1.969 Z M 92.637 1.969 L 92.637 2.725 A 2.251 2.251 0 0 0 92.394 2.698 A 2.782 2.782 0 0 0 92.237 2.694 Q 91.459 2.694 91.168 3.338 A 1.445 1.445 0 0 0 91.152 3.375 L 91.152 6.75 L 90.339 6.75 L 90.339 1.995 L 91.13 1.995 L 91.143 2.544 Q 91.523 1.938 92.206 1.909 A 1.636 1.636 0 0 1 92.277 1.907 Q 92.514 1.907 92.637 1.969 Z M 115.862 1.969 L 115.862 2.725 A 2.251 2.251 0 0 0 115.619 2.698 A 2.782 2.782 0 0 0 115.462 2.694 Q 114.684 2.694 114.393 3.338 A 1.445 1.445 0 0 0 114.377 3.375 L 114.377 6.75 L 113.564 6.75 L 113.564 1.995 L 114.355 1.995 L 114.368 2.544 Q 114.748 1.938 115.431 1.909 A 1.636 1.636 0 0 1 115.502 1.907 Q 115.739 1.907 115.862 1.969 Z M 76.628 1.046 L 75.643 1.046 L 75.643 6.06 L 76.531 6.06 A 2.519 2.519 0 0 0 77.163 5.985 A 1.747 1.747 0 0 0 78.049 5.454 Q 78.508 4.94 78.579 4.059 A 4.165 4.165 0 0 0 78.592 3.727 L 78.592 3.353 Q 78.592 2.562 78.322 2.027 A 1.864 1.864 0 0 0 78.08 1.659 A 1.687 1.687 0 0 0 77.084 1.09 A 2.499 2.499 0 0 0 76.628 1.046 Z M 81.457 1.995 L 81.457 6.75 L 80.644 6.75 L 80.644 1.995 L 81.457 1.995 Z M 94.267 1.995 L 94.267 6.75 L 93.454 6.75 L 93.454 1.995 L 94.267 1.995 Z M 136.899 1.995 L 136.899 6.75 L 136.086 6.75 L 136.086 1.995 L 136.899 1.995 Z M 109.033 4.425 A 2.772 2.772 0 0 0 109.08 4.954 Q 109.141 5.264 109.278 5.51 A 1.545 1.545 0 0 0 109.4 5.695 Q 109.767 6.174 110.382 6.174 A 1.269 1.269 0 0 0 110.871 6.083 Q 111.151 5.967 111.353 5.706 A 1.471 1.471 0 0 0 111.366 5.689 A 1.648 1.648 0 0 0 111.621 5.171 Q 111.69 4.945 111.716 4.672 A 3.655 3.655 0 0 0 111.731 4.329 A 2.687 2.687 0 0 0 111.68 3.789 Q 111.612 3.459 111.455 3.2 A 1.586 1.586 0 0 0 111.36 3.061 A 1.231 1.231 0 0 0 110.945 2.705 Q 110.692 2.575 110.373 2.575 Q 109.783 2.575 109.417 3.035 A 1.515 1.515 0 0 0 109.402 3.054 A 1.589 1.589 0 0 0 109.15 3.552 Q 109.08 3.772 109.052 4.039 A 3.676 3.676 0 0 0 109.033 4.425 Z M 96.381 3.344 L 96.381 5.401 A 1.528 1.528 0 0 0 96.667 5.807 Q 96.99 6.127 97.479 6.147 A 1.621 1.621 0 0 0 97.546 6.148 A 1.206 1.206 0 0 0 97.963 6.079 A 1.04 1.04 0 0 0 98.455 5.695 Q 98.78 5.243 98.78 4.333 Q 98.78 3.502 98.46 3.05 A 1.03 1.03 0 0 0 97.709 2.607 A 1.449 1.449 0 0 0 97.537 2.597 A 1.34 1.34 0 0 0 97.027 2.69 Q 96.609 2.86 96.381 3.344 Z M 62.587 5.449 L 62.587 3.278 A 1.439 1.439 0 0 0 62.286 2.891 Q 61.982 2.62 61.542 2.599 A 1.578 1.578 0 0 0 61.466 2.597 Q 60.875 2.597 60.541 3.056 A 1.51 1.51 0 0 0 60.33 3.484 Q 60.264 3.689 60.233 3.939 A 3.955 3.955 0 0 0 60.205 4.425 Q 60.205 5.229 60.535 5.689 Q 60.864 6.148 61.458 6.148 A 1.32 1.32 0 0 0 61.967 6.054 Q 62.359 5.891 62.587 5.449 Z M 141.205 5.449 L 141.205 3.278 A 1.439 1.439 0 0 0 140.904 2.891 Q 140.601 2.62 140.16 2.599 A 1.578 1.578 0 0 0 140.085 2.597 Q 139.493 2.597 139.159 3.056 A 1.51 1.51 0 0 0 138.948 3.484 Q 138.882 3.689 138.851 3.939 A 3.955 3.955 0 0 0 138.823 4.425 Q 138.823 5.229 139.153 5.689 Q 139.483 6.148 140.076 6.148 A 1.32 1.32 0 0 0 140.585 6.054 Q 140.977 5.891 141.205 5.449 Z M 121.272 1.639 L 119.378 4.601 L 121.368 4.601 L 121.368 1.463 L 121.272 1.639 Z M 127.024 5.005 A 1.375 1.375 0 0 0 126.965 4.592 A 1.109 1.109 0 0 0 126.683 4.131 A 1.148 1.148 0 0 0 126.012 3.807 A 1.593 1.593 0 0 0 125.794 3.792 A 1.466 1.466 0 0 0 125.405 3.841 A 1.086 1.086 0 0 0 124.913 4.126 A 1.123 1.123 0 0 0 124.599 4.762 A 1.572 1.572 0 0 0 124.581 5.005 A 1.48 1.48 0 0 0 124.622 5.367 A 1.019 1.019 0 0 0 124.904 5.862 Q 125.21 6.158 125.743 6.173 A 2.053 2.053 0 0 0 125.802 6.174 Q 126.296 6.174 126.606 5.94 A 1.018 1.018 0 0 0 126.699 5.86 A 1.041 1.041 0 0 0 126.998 5.292 A 1.518 1.518 0 0 0 127.024 5.005 Z M 125.802 0.932 A 1.259 1.259 0 0 0 125.45 0.979 A 0.973 0.973 0 0 0 125.027 1.228 Q 124.73 1.525 124.73 2.035 A 1.325 1.325 0 0 0 124.775 2.387 A 0.994 0.994 0 0 0 125.022 2.823 A 0.974 0.974 0 0 0 125.584 3.108 A 1.382 1.382 0 0 0 125.802 3.125 A 1.279 1.279 0 0 0 126.147 3.08 A 0.952 0.952 0 0 0 126.582 2.823 A 1.018 1.018 0 0 0 126.858 2.26 A 1.426 1.426 0 0 0 126.875 2.035 A 1.282 1.282 0 0 0 126.825 1.668 A 1.013 1.013 0 0 0 126.571 1.239 Q 126.268 0.932 125.802 0.932 Z M 47.632 5.418 L 47.632 4.443 L 46.995 4.443 Q 45.501 4.443 45.501 5.317 Q 45.501 5.7 45.756 5.915 A 0.893 0.893 0 0 0 46.169 6.108 A 1.259 1.259 0 0 0 46.411 6.13 A 1.429 1.429 0 0 0 47.136 5.933 A 1.335 1.335 0 0 0 47.431 5.705 A 1.108 1.108 0 0 0 47.632 5.418 Z M 57.494 5.418 L 57.494 4.443 L 56.857 4.443 Q 55.362 4.443 55.362 5.317 Q 55.362 5.7 55.617 5.915 A 0.893 0.893 0 0 0 56.031 6.108 A 1.259 1.259 0 0 0 56.272 6.13 A 1.429 1.429 0 0 0 56.997 5.933 A 1.335 1.335 0 0 0 57.293 5.705 A 1.108 1.108 0 0 0 57.494 5.418 Z M 18.075 3.938 L 20.457 3.938 L 20.457 3.876 Q 20.431 3.417 20.26 3.111 A 1.13 1.13 0 0 0 20.123 2.916 A 0.983 0.983 0 0 0 19.468 2.584 A 1.39 1.39 0 0 0 19.314 2.575 A 1.106 1.106 0 0 0 18.792 2.698 A 1.14 1.14 0 0 0 18.488 2.933 A 1.417 1.417 0 0 0 18.211 3.379 Q 18.138 3.563 18.098 3.785 A 2.741 2.741 0 0 0 18.075 3.938 Z M 65.263 3.938 L 67.645 3.938 L 67.645 3.876 Q 67.619 3.417 67.448 3.111 A 1.13 1.13 0 0 0 67.311 2.916 A 0.983 0.983 0 0 0 66.657 2.584 A 1.39 1.39 0 0 0 66.503 2.575 A 1.106 1.106 0 0 0 65.98 2.698 A 1.14 1.14 0 0 0 65.676 2.933 A 1.417 1.417 0 0 0 65.4 3.379 Q 65.326 3.563 65.286 3.785 A 2.741 2.741 0 0 0 65.263 3.938 Z M 80.578 0.734 Q 80.578 0.536 80.699 0.4 Q 80.811 0.274 81.023 0.264 A 0.783 0.783 0 0 1 81.057 0.264 Q 81.295 0.264 81.418 0.4 A 0.474 0.474 0 0 1 81.54 0.703 A 0.614 0.614 0 0 1 81.541 0.734 A 0.523 0.523 0 0 1 81.515 0.9 A 0.442 0.442 0 0 1 81.418 1.063 Q 81.305 1.184 81.097 1.194 A 0.803 0.803 0 0 1 81.057 1.195 Q 80.885 1.195 80.774 1.126 A 0.362 0.362 0 0 1 80.699 1.063 A 0.456 0.456 0 0 1 80.581 0.788 A 0.605 0.605 0 0 1 80.578 0.734 Z M 93.388 0.734 Q 93.388 0.536 93.509 0.4 Q 93.621 0.274 93.833 0.264 A 0.783 0.783 0 0 1 93.867 0.264 Q 94.105 0.264 94.228 0.4 A 0.474 0.474 0 0 1 94.35 0.703 A 0.614 0.614 0 0 1 94.351 0.734 A 0.523 0.523 0 0 1 94.325 0.9 A 0.442 0.442 0 0 1 94.228 1.063 Q 94.115 1.184 93.907 1.194 A 0.803 0.803 0 0 1 93.867 1.195 Q 93.695 1.195 93.584 1.126 A 0.362 0.362 0 0 1 93.509 1.063 A 0.456 0.456 0 0 1 93.391 0.788 A 0.605 0.605 0 0 1 93.388 0.734 Z M 136.02 0.734 Q 136.02 0.536 136.141 0.4 Q 136.252 0.274 136.464 0.264 A 0.783 0.783 0 0 1 136.499 0.264 Q 136.736 0.264 136.859 0.4 A 0.474 0.474 0 0 1 136.981 0.703 A 0.614 0.614 0 0 1 136.982 0.734 A 0.523 0.523 0 0 1 136.957 0.9 A 0.442 0.442 0 0 1 136.859 1.063 Q 136.747 1.184 136.539 1.194 A 0.803 0.803 0 0 1 136.499 1.195 Q 136.326 1.195 136.215 1.126 A 0.362 0.362 0 0 1 136.141 1.063 A 0.456 0.456 0 0 1 136.022 0.788 A 0.605 0.605 0 0 1 136.02 0.734 Z" vector-effect="non-scaling-stroke"/></g>
</svg>