<?xml version="1.0" encoding="UTF-8"?>
<svg width="48px" height="48px" viewBox="0 0 48 48" version="1.1" xmlns="http://www.w3.org/2000/svg" xmlns:xlink="http://www.w3.org/1999/xlink">
    <title>Icon-Resource/General-Resource/Res_Folders_48_Dark</title>
    <g id="Icon-Resource/General-Resource/Res_Folders_48" stroke="none" stroke-width="1" fill="none" fill-rule="evenodd">
        <path transform="translate(12.000000, 8.000000), scale(.65)" d="M46,14 L46,43 C46,43.552 45.553,44 45,44 L10,44 C9.447,44 9,43.552 9,43 L9,40.002 L11,40.002 L11,42 L44,42 L44,15 L42.004,15 L42.004,13 L45,13 C45.553,13 46,13.448 46,14 L46,14 Z M4,36 L38.001,36 L38.001,14 L4,14 L4,36 Z M14.586,6 L17.294,8.708 C17.481,8.896 17.735,9.001 18.001,9.001 L38.001,9.001 L38.001,12 L4,12 L4,6 L14.586,6 Z M40.001,8.001 C40.001,7.449 39.554,7.001 39.001,7.001 L18.415,7.001 L15.707,4.293 C15.52,4.105 15.266,4 15,4 L3,4 C2.447,4 2,4.448 2,5 L2,37 C2,37.552 2.447,38 3,38 L39.001,38 C39.554,38 40.001,37.552 40.001,37 L40.001,8.001 Z" id="Fill-1" fill="#000000"></path>
    </g><g transform="translate(25, 83)" id="svgGroup" stroke-linecap="round" fill-rule="evenodd" font-size="9pt" stroke="#000" stroke-width="0.25mm" fill="#000" style="stroke:#000;stroke-width:0.25mm;fill:#000"><path d="M 78.174 6.75 L 76.518 4.548 L 76.008 5.08 L 76.008 6.75 L 75.195 6.75 L 75.195 0 L 76.008 0 L 76.008 4.083 L 76.443 3.56 L 77.924 1.995 L 78.913 1.995 L 77.063 3.981 L 79.128 6.75 L 78.174 6.75 Z M 20.711 3.234 L 20.711 3.924 L 18.026 3.924 L 18.026 6.75 L 17.183 6.75 L 17.183 0.352 L 21.146 0.352 L 21.146 1.046 L 18.026 1.046 L 18.026 3.234 L 20.711 3.234 Z M 3.74 6.75 L 2.351 4.162 L 0.848 4.162 L 0.848 6.75 L 0 6.75 L 0 0.352 L 2.118 0.352 A 3.809 3.809 0 0 1 2.76 0.402 Q 3.102 0.461 3.376 0.587 A 1.789 1.789 0 0 1 3.781 0.844 A 1.588 1.588 0 0 1 4.307 1.732 A 2.453 2.453 0 0 1 4.364 2.276 A 1.864 1.864 0 0 1 4.273 2.868 A 1.64 1.64 0 0 1 4.041 3.318 A 1.849 1.849 0 0 1 3.382 3.875 A 2.342 2.342 0 0 1 3.142 3.981 L 4.645 6.697 L 4.645 6.75 L 3.74 6.75 Z M 13.724 3.393 L 12.907 3.393 Q 12.907 3.059 12.623 2.817 Q 12.34 2.575 11.909 2.575 Q 11.465 2.575 11.215 2.769 A 0.653 0.653 0 0 0 11.04 2.967 Q 10.967 3.098 10.964 3.263 A 0.771 0.771 0 0 0 10.964 3.274 A 0.588 0.588 0 0 0 10.994 3.467 A 0.48 0.48 0 0 0 11.197 3.718 A 1.093 1.093 0 0 0 11.348 3.796 Q 11.512 3.868 11.767 3.937 A 6.581 6.581 0 0 0 12.039 4.003 A 6.318 6.318 0 0 1 12.446 4.108 Q 12.783 4.208 13.025 4.329 A 1.901 1.901 0 0 1 13.281 4.481 Q 13.418 4.579 13.516 4.692 A 1.06 1.06 0 0 1 13.586 4.783 A 1.024 1.024 0 0 1 13.748 5.191 A 1.388 1.388 0 0 1 13.768 5.432 Q 13.768 6.069 13.258 6.453 Q 12.776 6.817 12.022 6.837 A 3.337 3.337 0 0 1 11.936 6.838 A 2.746 2.746 0 0 1 11.401 6.788 A 2.124 2.124 0 0 1 10.925 6.636 A 1.771 1.771 0 0 1 10.491 6.358 A 1.54 1.54 0 0 1 10.237 6.071 Q 9.989 5.708 9.989 5.287 L 10.802 5.287 A 0.932 0.932 0 0 0 10.875 5.612 A 0.827 0.827 0 0 0 11.129 5.935 A 1.072 1.072 0 0 0 11.531 6.128 Q 11.686 6.167 11.867 6.173 A 2.013 2.013 0 0 0 11.936 6.174 A 1.863 1.863 0 0 0 12.231 6.152 Q 12.393 6.126 12.524 6.07 A 0.941 0.941 0 0 0 12.676 5.988 A 0.689 0.689 0 0 0 12.841 5.837 A 0.554 0.554 0 0 0 12.955 5.489 A 0.698 0.698 0 0 0 12.919 5.258 A 0.581 0.581 0 0 0 12.707 4.977 A 1.05 1.05 0 0 0 12.538 4.878 Q 12.349 4.788 12.054 4.712 A 5.392 5.392 0 0 0 11.841 4.663 A 6.342 6.342 0 0 1 11.48 4.575 Q 11.11 4.473 10.861 4.346 Q 10.562 4.194 10.392 3.994 A 1.017 1.017 0 0 1 10.325 3.907 Q 10.151 3.652 10.151 3.3 A 1.206 1.206 0 0 1 10.55 2.396 A 1.694 1.694 0 0 1 10.646 2.312 A 1.752 1.752 0 0 1 11.429 1.952 A 2.471 2.471 0 0 1 11.909 1.907 A 2.559 2.559 0 0 1 12.473 1.966 A 1.757 1.757 0 0 1 13.221 2.325 Q 13.724 2.742 13.724 3.393 Z M 45.681 3.393 L 44.864 3.393 Q 44.864 3.059 44.58 2.817 Q 44.297 2.575 43.866 2.575 Q 43.422 2.575 43.172 2.769 A 0.653 0.653 0 0 0 42.997 2.967 Q 42.924 3.098 42.921 3.263 A 0.771 0.771 0 0 0 42.921 3.274 A 0.588 0.588 0 0 0 42.951 3.467 A 0.48 0.48 0 0 0 43.154 3.718 A 1.093 1.093 0 0 0 43.305 3.796 Q 43.469 3.868 43.724 3.937 A 6.581 6.581 0 0 0 43.996 4.003 A 6.318 6.318 0 0 1 44.404 4.108 Q 44.74 4.208 44.982 4.329 A 1.901 1.901 0 0 1 45.238 4.481 Q 45.375 4.579 45.473 4.692 A 1.06 1.06 0 0 1 45.543 4.783 A 1.024 1.024 0 0 1 45.705 5.191 A 1.388 1.388 0 0 1 45.725 5.432 Q 45.725 6.069 45.215 6.453 Q 44.733 6.817 43.979 6.837 A 3.337 3.337 0 0 1 43.893 6.838 A 2.746 2.746 0 0 1 43.358 6.788 A 2.124 2.124 0 0 1 42.882 6.636 A 1.771 1.771 0 0 1 42.448 6.358 A 1.54 1.54 0 0 1 42.194 6.071 Q 41.946 5.708 41.946 5.287 L 42.759 5.287 A 0.932 0.932 0 0 0 42.832 5.612 A 0.827 0.827 0 0 0 43.086 5.935 A 1.072 1.072 0 0 0 43.488 6.128 Q 43.643 6.167 43.824 6.173 A 2.013 2.013 0 0 0 43.893 6.174 A 1.863 1.863 0 0 0 44.188 6.152 Q 44.35 6.126 44.481 6.07 A 0.941 0.941 0 0 0 44.633 5.988 A 0.689 0.689 0 0 0 44.798 5.837 A 0.554 0.554 0 0 0 44.912 5.489 A 0.698 0.698 0 0 0 44.876 5.258 A 0.581 0.581 0 0 0 44.664 4.977 A 1.05 1.05 0 0 0 44.495 4.878 Q 44.306 4.788 44.011 4.712 A 5.392 5.392 0 0 0 43.798 4.663 A 6.342 6.342 0 0 1 43.437 4.575 Q 43.067 4.473 42.818 4.346 Q 42.519 4.194 42.349 3.994 A 1.017 1.017 0 0 1 42.282 3.907 Q 42.108 3.652 42.108 3.3 A 1.206 1.206 0 0 1 42.507 2.396 A 1.694 1.694 0 0 1 42.603 2.312 A 1.752 1.752 0 0 1 43.386 1.952 A 2.471 2.471 0 0 1 43.866 1.907 A 2.559 2.559 0 0 1 44.43 1.966 A 1.757 1.757 0 0 1 45.178 2.325 Q 45.681 2.742 45.681 3.393 Z M 71.038 6.75 L 70.185 6.75 A 0.632 0.632 0 0 1 70.15 6.66 Q 70.118 6.562 70.094 6.41 A 3.997 3.997 0 0 1 70.071 6.249 Q 69.504 6.838 68.717 6.838 A 2.033 2.033 0 0 1 68.188 6.772 A 1.529 1.529 0 0 1 67.564 6.44 Q 67.113 6.042 67.113 5.432 Q 67.113 4.689 67.678 4.278 Q 68.243 3.867 69.267 3.867 L 70.058 3.867 L 70.058 3.494 A 1.152 1.152 0 0 0 70.022 3.199 A 0.828 0.828 0 0 0 69.803 2.815 Q 69.586 2.6 69.196 2.568 A 1.748 1.748 0 0 0 69.051 2.562 Q 68.616 2.562 68.322 2.782 Q 68.027 3.001 68.027 3.313 L 67.21 3.313 A 1.041 1.041 0 0 1 67.335 2.825 A 1.409 1.409 0 0 1 67.463 2.626 Q 67.715 2.294 68.148 2.101 A 2.249 2.249 0 0 1 68.924 1.913 A 2.669 2.669 0 0 1 69.1 1.907 A 2.65 2.65 0 0 1 69.617 1.955 Q 69.924 2.016 70.163 2.156 A 1.439 1.439 0 0 1 70.387 2.318 A 1.396 1.396 0 0 1 70.841 3.144 A 1.998 1.998 0 0 1 70.871 3.45 L 70.871 5.638 Q 70.871 6.073 70.944 6.39 A 1.707 1.707 0 0 0 71.038 6.68 L 71.038 6.75 Z M 29.057 4.395 L 29.057 4.333 A 3.762 3.762 0 0 1 29.124 3.602 Q 29.211 3.16 29.414 2.812 A 2.148 2.148 0 0 1 29.575 2.573 Q 30.094 1.907 30.933 1.907 A 1.964 1.964 0 0 1 31.531 1.994 A 1.559 1.559 0 0 1 32.256 2.479 L 32.256 0 L 33.069 0 L 33.069 6.75 L 32.322 6.75 L 32.282 6.24 Q 31.794 6.838 30.924 6.838 A 1.6 1.6 0 0 1 29.704 6.31 A 2.078 2.078 0 0 1 29.577 6.161 A 2.405 2.405 0 0 1 29.153 5.255 Q 29.069 4.912 29.058 4.51 A 4.425 4.425 0 0 1 29.057 4.395 Z M 5.212 4.504 L 5.212 4.355 A 3.17 3.17 0 0 1 5.288 3.646 A 2.581 2.581 0 0 1 5.482 3.092 A 2.191 2.191 0 0 1 5.93 2.466 A 2.033 2.033 0 0 1 6.238 2.221 Q 6.724 1.907 7.291 1.907 A 2.254 2.254 0 0 1 7.904 1.986 A 1.639 1.639 0 0 1 8.732 2.518 Q 9.246 3.129 9.246 4.267 L 9.246 4.605 L 6.025 4.605 A 2.111 2.111 0 0 0 6.096 5.114 A 1.516 1.516 0 0 0 6.436 5.741 A 1.282 1.282 0 0 0 7.37 6.173 A 1.652 1.652 0 0 0 7.436 6.174 A 1.763 1.763 0 0 0 7.764 6.145 Q 7.988 6.103 8.165 5.999 A 1.827 1.827 0 0 0 8.674 5.551 A 2.068 2.068 0 0 0 8.688 5.533 L 9.185 5.919 A 1.926 1.926 0 0 1 7.785 6.811 A 2.749 2.749 0 0 1 7.392 6.838 A 2.394 2.394 0 0 1 6.64 6.725 A 1.974 1.974 0 0 1 5.818 6.203 Q 5.212 5.568 5.212 4.504 Z M 34.124 4.504 L 34.124 4.355 A 3.17 3.17 0 0 1 34.2 3.646 A 2.581 2.581 0 0 1 34.394 3.092 A 2.191 2.191 0 0 1 34.841 2.466 A 2.033 2.033 0 0 1 35.15 2.221 Q 35.635 1.907 36.202 1.907 A 2.254 2.254 0 0 1 36.815 1.986 A 1.639 1.639 0 0 1 37.644 2.518 Q 38.158 3.129 38.158 4.267 L 38.158 4.605 L 34.937 4.605 A 2.111 2.111 0 0 0 35.008 5.114 A 1.516 1.516 0 0 0 35.347 5.741 A 1.282 1.282 0 0 0 36.281 6.173 A 1.652 1.652 0 0 0 36.347 6.174 A 1.763 1.763 0 0 0 36.675 6.145 Q 36.899 6.103 37.077 5.999 A 1.827 1.827 0 0 0 37.586 5.551 A 2.068 2.068 0 0 0 37.6 5.533 L 38.096 5.919 A 1.926 1.926 0 0 1 36.696 6.811 A 2.749 2.749 0 0 1 36.303 6.838 A 2.394 2.394 0 0 1 35.552 6.725 A 1.974 1.974 0 0 1 34.73 6.203 Q 34.124 5.568 34.124 4.504 Z M 52.361 0.352 L 52.361 4.601 L 53.249 4.601 L 53.249 5.265 L 52.361 5.265 L 52.361 6.75 L 51.543 6.75 L 51.543 5.265 L 48.63 5.265 L 48.63 4.786 L 51.495 0.352 L 52.361 0.352 Z M 63.246 6.75 L 61.475 6.75 L 61.475 0.352 L 63.281 0.352 Q 64.116 0.352 64.758 0.721 Q 65.399 1.09 65.749 1.771 A 3.19 3.19 0 0 1 66.066 2.8 A 4.073 4.073 0 0 1 66.103 3.335 L 66.103 3.744 Q 66.103 4.649 65.753 5.331 A 2.457 2.457 0 0 1 64.756 6.376 Q 64.107 6.741 63.246 6.75 Z M 57.759 2.592 A 1.544 1.544 0 0 0 57.863 2.021 A 2.226 2.226 0 0 0 57.841 1.707 A 1.566 1.566 0 0 0 57.342 0.738 A 1.754 1.754 0 0 0 56.576 0.333 A 2.443 2.443 0 0 0 55.978 0.264 A 2.539 2.539 0 0 0 55.468 0.312 A 1.767 1.767 0 0 0 54.611 0.738 Q 54.092 1.213 54.092 2.021 A 1.808 1.808 0 0 0 54.093 2.058 A 1.499 1.499 0 0 0 54.338 2.87 A 1.626 1.626 0 0 0 54.5 3.077 A 1.726 1.726 0 0 0 55.011 3.454 A 2.119 2.119 0 0 0 54.911 3.5 A 1.738 1.738 0 0 0 54.226 4.087 A 1.629 1.629 0 0 0 53.943 5.023 A 2.272 2.272 0 0 0 53.953 5.237 A 1.63 1.63 0 0 0 54.499 6.344 A 1.895 1.895 0 0 0 55.349 6.771 A 2.797 2.797 0 0 0 55.978 6.838 A 2.796 2.796 0 0 0 56.577 6.777 A 1.925 1.925 0 0 0 57.452 6.346 A 1.578 1.578 0 0 0 57.927 5.62 A 1.989 1.989 0 0 0 58.012 5.023 A 1.581 1.581 0 0 0 57.72 4.087 Q 57.428 3.674 56.927 3.458 Q 57.357 3.248 57.61 2.874 A 1.449 1.449 0 0 0 57.759 2.592 Z M 27.954 0 L 27.954 6.75 L 27.141 6.75 L 27.141 0 L 27.954 0 Z M 21.722 4.386 L 21.722 4.329 A 3.057 3.057 0 0 1 21.809 3.587 A 2.573 2.573 0 0 1 21.997 3.072 A 2.16 2.16 0 0 1 22.412 2.486 A 1.957 1.957 0 0 1 22.761 2.21 A 2.036 2.036 0 0 1 23.706 1.913 A 2.491 2.491 0 0 1 23.88 1.907 A 2.277 2.277 0 0 1 24.633 2.027 A 1.937 1.937 0 0 1 25.451 2.58 A 2.29 2.29 0 0 1 25.97 3.608 A 3.373 3.373 0 0 1 26.051 4.368 L 26.051 4.425 A 3.114 3.114 0 0 1 25.971 5.142 A 2.577 2.577 0 0 1 25.785 5.671 A 2.056 2.056 0 0 1 25.258 6.361 A 2.001 2.001 0 0 1 25.025 6.53 A 2.045 2.045 0 0 1 24.105 6.829 A 2.529 2.529 0 0 1 23.889 6.838 A 2.262 2.262 0 0 1 23.138 6.718 A 1.938 1.938 0 0 1 22.322 6.166 A 2.297 2.297 0 0 1 21.796 5.111 A 3.357 3.357 0 0 1 21.722 4.386 Z M 41.396 1.969 L 41.396 2.725 A 2.251 2.251 0 0 0 41.154 2.698 A 2.782 2.782 0 0 0 40.997 2.694 Q 40.219 2.694 39.927 3.338 A 1.445 1.445 0 0 0 39.911 3.375 L 39.911 6.75 L 39.098 6.75 L 39.098 1.995 L 39.889 1.995 L 39.902 2.544 Q 40.283 1.938 40.965 1.909 A 1.636 1.636 0 0 1 41.036 1.907 Q 41.273 1.907 41.396 1.969 Z M 74.443 1.969 L 74.443 2.725 A 2.251 2.251 0 0 0 74.201 2.698 A 2.782 2.782 0 0 0 74.043 2.694 Q 73.266 2.694 72.974 3.338 A 1.445 1.445 0 0 0 72.958 3.375 L 72.958 6.75 L 72.145 6.75 L 72.145 1.995 L 72.936 1.995 L 72.949 2.544 Q 73.33 1.938 74.012 1.909 A 1.636 1.636 0 0 1 74.083 1.907 Q 74.32 1.907 74.443 1.969 Z M 63.303 1.046 L 62.319 1.046 L 62.319 6.06 L 63.207 6.06 A 2.519 2.519 0 0 0 63.839 5.985 A 1.747 1.747 0 0 0 64.725 5.454 Q 65.184 4.94 65.255 4.059 A 4.165 4.165 0 0 0 65.268 3.727 L 65.268 3.353 Q 65.268 2.562 64.998 2.027 A 1.864 1.864 0 0 0 64.756 1.659 A 1.687 1.687 0 0 0 63.76 1.09 A 2.499 2.499 0 0 0 63.303 1.046 Z M 22.54 4.425 A 2.772 2.772 0 0 0 22.587 4.954 Q 22.647 5.264 22.785 5.51 A 1.545 1.545 0 0 0 22.906 5.695 Q 23.273 6.174 23.889 6.174 A 1.269 1.269 0 0 0 24.378 6.083 Q 24.657 5.967 24.86 5.706 A 1.471 1.471 0 0 0 24.873 5.689 A 1.648 1.648 0 0 0 25.128 5.171 Q 25.197 4.945 25.222 4.672 A 3.655 3.655 0 0 0 25.238 4.329 A 2.687 2.687 0 0 0 25.187 3.789 Q 25.119 3.459 24.962 3.2 A 1.586 1.586 0 0 0 24.866 3.061 A 1.231 1.231 0 0 0 24.451 2.705 Q 24.198 2.575 23.88 2.575 Q 23.29 2.575 22.924 3.035 A 1.515 1.515 0 0 0 22.909 3.054 A 1.589 1.589 0 0 0 22.657 3.552 Q 22.587 3.772 22.559 4.039 A 3.676 3.676 0 0 0 22.54 4.425 Z M 32.256 5.454 L 32.256 3.27 A 1.375 1.375 0 0 0 31.944 2.874 Q 31.62 2.597 31.135 2.597 A 1.238 1.238 0 0 0 30.709 2.668 A 1.068 1.068 0 0 0 30.204 3.059 A 1.51 1.51 0 0 0 29.994 3.484 Q 29.929 3.689 29.898 3.939 A 3.955 3.955 0 0 0 29.87 4.425 A 3.162 3.162 0 0 0 29.906 4.918 Q 29.947 5.178 30.035 5.389 A 1.474 1.474 0 0 0 30.204 5.691 A 1.06 1.06 0 0 0 30.966 6.139 A 1.391 1.391 0 0 0 31.126 6.148 Q 31.9 6.148 32.256 5.454 Z M 0.848 1.046 L 0.848 3.472 L 2.145 3.472 Q 2.685 3.472 3.035 3.231 A 1.174 1.174 0 0 0 3.144 3.146 A 1.069 1.069 0 0 0 3.51 2.409 A 1.486 1.486 0 0 0 3.516 2.276 Q 3.516 1.734 3.22 1.423 A 1 1 0 0 0 3.162 1.367 Q 2.808 1.05 2.14 1.046 L 0.848 1.046 Z M 51.447 1.639 L 49.553 4.601 L 51.543 4.601 L 51.543 1.463 L 51.447 1.639 Z M 57.199 5.005 A 1.375 1.375 0 0 0 57.14 4.592 A 1.109 1.109 0 0 0 56.859 4.131 A 1.148 1.148 0 0 0 56.187 3.807 A 1.593 1.593 0 0 0 55.969 3.792 A 1.466 1.466 0 0 0 55.58 3.841 A 1.086 1.086 0 0 0 55.088 4.126 A 1.123 1.123 0 0 0 54.774 4.762 A 1.572 1.572 0 0 0 54.756 5.005 A 1.48 1.48 0 0 0 54.798 5.367 A 1.019 1.019 0 0 0 55.079 5.862 Q 55.385 6.158 55.918 6.173 A 2.053 2.053 0 0 0 55.978 6.174 Q 56.471 6.174 56.781 5.94 A 1.018 1.018 0 0 0 56.874 5.86 A 1.041 1.041 0 0 0 57.173 5.292 A 1.518 1.518 0 0 0 57.199 5.005 Z M 55.978 0.932 A 1.259 1.259 0 0 0 55.625 0.979 A 0.973 0.973 0 0 0 55.202 1.228 Q 54.905 1.525 54.905 2.035 A 1.325 1.325 0 0 0 54.95 2.387 A 0.994 0.994 0 0 0 55.198 2.823 A 0.974 0.974 0 0 0 55.76 3.108 A 1.382 1.382 0 0 0 55.978 3.125 A 1.279 1.279 0 0 0 56.322 3.08 A 0.952 0.952 0 0 0 56.758 2.823 A 1.018 1.018 0 0 0 57.033 2.26 A 1.426 1.426 0 0 0 57.05 2.035 A 1.282 1.282 0 0 0 57 1.668 A 1.013 1.013 0 0 0 56.747 1.239 Q 56.443 0.932 55.978 0.932 Z M 70.058 5.418 L 70.058 4.443 L 69.42 4.443 Q 67.926 4.443 67.926 5.317 Q 67.926 5.7 68.181 5.915 A 0.893 0.893 0 0 0 68.595 6.108 A 1.259 1.259 0 0 0 68.836 6.13 A 1.429 1.429 0 0 0 69.561 5.933 A 1.335 1.335 0 0 0 69.857 5.705 A 1.108 1.108 0 0 0 70.058 5.418 Z M 6.051 3.938 L 8.433 3.938 L 8.433 3.876 Q 8.407 3.417 8.236 3.111 A 1.13 1.13 0 0 0 8.099 2.916 A 0.983 0.983 0 0 0 7.445 2.584 A 1.39 1.39 0 0 0 7.291 2.575 A 1.106 1.106 0 0 0 6.768 2.698 A 1.14 1.14 0 0 0 6.464 2.933 A 1.417 1.417 0 0 0 6.188 3.379 Q 6.114 3.563 6.074 3.785 A 2.741 2.741 0 0 0 6.051 3.938 Z M 34.963 3.938 L 37.345 3.938 L 37.345 3.876 Q 37.319 3.417 37.148 3.111 A 1.13 1.13 0 0 0 37.011 2.916 A 0.983 0.983 0 0 0 36.356 2.584 A 1.39 1.39 0 0 0 36.202 2.575 A 1.106 1.106 0 0 0 35.68 2.698 A 1.14 1.14 0 0 0 35.376 2.933 A 1.417 1.417 0 0 0 35.099 3.379 Q 35.026 3.563 34.986 3.785 A 2.741 2.741 0 0 0 34.963 3.938 Z" vector-effect="non-scaling-stroke"/></g>
</svgversion="1.0" encoding="UTF-8"?>
<svg width="48px" height="48px" viewBox="0 0 48 48" version="1.1" xmlns="http://www.w3.org/2000/svg" xmlns:xlink="http://www.w3.org/1999/xlink">
    <title>Icon-Resource/General-Resource/Res_Folders_48_Dark</title>
    <g id="Icon-Resource/General-Resource/Res_Folders_48" stroke="none" stroke-width="1" fill="none" fill-rule="evenodd">
        <path transform="translate(12.000000, 8.000000), scale(.65)" d="M46,14 L46,43 C46,43.552 45.553,44 45,44 L10,44 C9.447,44 9,43.552 9,43 L9,40.002 L11,40.002 L11,42 L44,42 L44,15 L42.004,15 L42.004,13 L45,13 C45.553,13 46,13.448 46,14 L46,14 Z M4,36 L38.001,36 L38.001,14 L4,14 L4,36 Z M14.586,6 L17.294,8.708 C17.481,8.896 17.735,9.001 18.001,9.001 L38.001,9.001 L38.001,12 L4,12 L4,6 L14.586,6 Z M40.001,8.001 C40.001,7.449 39.554,7.001 39.001,7.001 L18.415,7.001 L15.707,4.293 C15.52,4.105 15.266,4 15,4 L3,4 C2.447,4 2,4.448 2,5 L2,37 C2,37.552 2.447,38 3,38 L39.001,38 C39.554,38 40.001,37.552 40.001,37 L40.001,8.001 Z" id="Fill-1" fill="#000000"></path>
    </g><g transform="translate(25, 83)" id="svgGroup" stroke-linecap="round" fill-rule="evenodd" font-size="9pt" stroke="#000" stroke-width="0.25mm" fill="#000" style="stroke:#000;stroke-width:0.25mm;fill:#000"><path d="M 78.174 6.75 L 76.518 4.548 L 76.008 5.08 L 76.008 6.75 L 75.195 6.75 L 75.195 0 L 76.008 0 L 76.008 4.083 L 76.443 3.56 L 77.924 1.995 L 78.913 1.995 L 77.063 3.981 L 79.128 6.75 L 78.174 6.75 Z M 20.711 3.234 L 20.711 3.924 L 18.026 3.924 L 18.026 6.75 L 17.183 6.75 L 17.183 0.352 L 21.146 0.352 L 21.146 1.046 L 18.026 1.046 L 18.026 3.234 L 20.711 3.234 Z M 3.74 6.75 L 2.351 4.162 L 0.848 4.162 L 0.848 6.75 L 0 6.75 L 0 0.352 L 2.118 0.352 A 3.809 3.809 0 0 1 2.76 0.402 Q 3.102 0.461 3.376 0.587 A 1.789 1.789 0 0 1 3.781 0.844 A 1.588 1.588 0 0 1 4.307 1.732 A 2.453 2.453 0 0 1 4.364 2.276 A 1.864 1.864 0 0 1 4.273 2.868 A 1.64 1.64 0 0 1 4.041 3.318 A 1.849 1.849 0 0 1 3.382 3.875 A 2.342 2.342 0 0 1 3.142 3.981 L 4.645 6.697 L 4.645 6.75 L 3.74 6.75 Z M 13.724 3.393 L 12.907 3.393 Q 12.907 3.059 12.623 2.817 Q 12.34 2.575 11.909 2.575 Q 11.465 2.575 11.215 2.769 A 0.653 0.653 0 0 0 11.04 2.967 Q 10.967 3.098 10.964 3.263 A 0.771 0.771 0 0 0 10.964 3.274 A 0.588 0.588 0 0 0 10.994 3.467 A 0.48 0.48 0 0 0 11.197 3.718 A 1.093 1.093 0 0 0 11.348 3.796 Q 11.512 3.868 11.767 3.937 A 6.581 6.581 0 0 0 12.039 4.003 A 6.318 6.318 0 0 1 12.446 4.108 Q 12.783 4.208 13.025 4.329 A 1.901 1.901 0 0 1 13.281 4.481 Q 13.418 4.579 13.516 4.692 A 1.06 1.06 0 0 1 13.586 4.783 A 1.024 1.024 0 0 1 13.748 5.191 A 1.388 1.388 0 0 1 13.768 5.432 Q 13.768 6.069 13.258 6.453 Q 12.776 6.817 12.022 6.837 A 3.337 3.337 0 0 1 11.936 6.838 A 2.746 2.746 0 0 1 11.401 6.788 A 2.124 2.124 0 0 1 10.925 6.636 A 1.771 1.771 0 0 1 10.491 6.358 A 1.54 1.54 0 0 1 10.237 6.071 Q 9.989 5.708 9.989 5.287 L 10.802 5.287 A 0.932 0.932 0 0 0 10.875 5.612 A 0.827 0.827 0 0 0 11.129 5.935 A 1.072 1.072 0 0 0 11.531 6.128 Q 11.686 6.167 11.867 6.173 A 2.013 2.013 0 0 0 11.936 6.174 A 1.863 1.863 0 0 0 12.231 6.152 Q 12.393 6.126 12.524 6.07 A 0.941 0.941 0 0 0 12.676 5.988 A 0.689 0.689 0 0 0 12.841 5.837 A 0.554 0.554 0 0 0 12.955 5.489 A 0.698 0.698 0 0 0 12.919 5.258 A 0.581 0.581 0 0 0 12.707 4.977 A 1.05 1.05 0 0 0 12.538 4.878 Q 12.349 4.788 12.054 4.712 A 5.392 5.392 0 0 0 11.841 4.663 A 6.342 6.342 0 0 1 11.48 4.575 Q 11.11 4.473 10.861 4.346 Q 10.562 4.194 10.392 3.994 A 1.017 1.017 0 0 1 10.325 3.907 Q 10.151 3.652 10.151 3.3 A 1.206 1.206 0 0 1 10.55 2.396 A 1.694 1.694 0 0 1 10.646 2.312 A 1.752 1.752 0 0 1 11.429 1.952 A 2.471 2.471 0 0 1 11.909 1.907 A 2.559 2.559 0 0 1 12.473 1.966 A 1.757 1.757 0 0 1 13.221 2.325 Q 13.724 2.742 13.724 3.393 Z M 45.681 3.393 L 44.864 3.393 Q 44.864 3.059 44.58 2.817 Q 44.297 2.575 43.866 2.575 Q 43.422 2.575 43.172 2.769 A 0.653 0.653 0 0 0 42.997 2.967 Q 42.924 3.098 42.921 3.263 A 0.771 0.771 0 0 0 42.921 3.274 A 0.588 0.588 0 0 0 42.951 3.467 A 0.48 0.48 0 0 0 43.154 3.718 A 1.093 1.093 0 0 0 43.305 3.796 Q 43.469 3.868 43.724 3.937 A 6.581 6.581 0 0 0 43.996 4.003 A 6.318 6.318 0 0 1 44.404 4.108 Q 44.74 4.208 44.982 4.329 A 1.901 1.901 0 0 1 45.238 4.481 Q 45.375 4.579 45.473 4.692 A 1.06 1.06 0 0 1 45.543 4.783 A 1.024 1.024 0 0 1 45.705 5.191 A 1.388 1.388 0 0 1 45.725 5.432 Q 45.725 6.069 45.215 6.453 Q 44.733 6.817 43.979 6.837 A 3.337 3.337 0 0 1 43.893 6.838 A 2.746 2.746 0 0 1 43.358 6.788 A 2.124 2.124 0 0 1 42.882 6.636 A 1.771 1.771 0 0 1 42.448 6.358 A 1.54 1.54 0 0 1 42.194 6.071 Q 41.946 5.708 41.946 5.287 L 42.759 5.287 A 0.932 0.932 0 0 0 42.832 5.612 A 0.827 0.827 0 0 0 43.086 5.935 A 1.072 1.072 0 0 0 43.488 6.128 Q 43.643 6.167 43.824 6.173 A 2.013 2.013 0 0 0 43.893 6.174 A 1.863 1.863 0 0 0 44.188 6.152 Q 44.35 6.126 44.481 6.07 A 0.941 0.941 0 0 0 44.633 5.988 A 0.689 0.689 0 0 0 44.798 5.837 A 0.554 0.554 0 0 0 44.912 5.489 A 0.698 0.698 0 0 0 44.876 5.258 A 0.581 0.581 0 0 0 44.664 4.977 A 1.05 1.05 0 0 0 44.495 4.878 Q 44.306 4.788 44.011 4.712 A 5.392 5.392 0 0 0 43.798 4.663 A 6.342 6.342 0 0 1 43.437 4.575 Q 43.067 4.473 42.818 4.346 Q 42.519 4.194 42.349 3.994 A 1.017 1.017 0 0 1 42.282 3.907 Q 42.108 3.652 42.108 3.3 A 1.206 1.206 0 0 1 42.507 2.396 A 1.694 1.694 0 0 1 42.603 2.312 A 1.752 1.752 0 0 1 43.386 1.952 A 2.471 2.471 0 0 1 43.866 1.907 A 2.559 2.559 0 0 1 44.43 1.966 A 1.757 1.757 0 0 1 45.178 2.325 Q 45.681 2.742 45.681 3.393 Z M 71.038 6.75 L 70.185 6.75 A 0.632 0.632 0 0 1 70.15 6.66 Q 70.118 6.562 70.094 6.41 A 3.997 3.997 0 0 1 70.071 6.249 Q 69.504 6.838 68.717 6.838 A 2.033 2.033 0 0 1 68.188 6.772 A 1.529 1.529 0 0 1 67.564 6.44 Q 67.113 6.042 67.113 5.432 Q 67.113 4.689 67.678 4.278 Q 68.243 3.867 69.267 3.867 L 70.058 3.867 L 70.058 3.494 A 1.152 1.152 0 0 0 70.022 3.199 A 0.828 0.828 0 0 0 69.803 2.815 Q 69.586 2.6 69.196 2.568 A 1.748 1.748 0 0 0 69.051 2.562 Q 68.616 2.562 68.322 2.782 Q 68.027 3.001 68.027 3.313 L 67.21 3.313 A 1.041 1.041 0 0 1 67.335 2.825 A 1.409 1.409 0 0 1 67.463 2.626 Q 67.715 2.294 68.148 2.101 A 2.249 2.249 0 0 1 68.924 1.913 A 2.669 2.669 0 0 1 69.1 1.907 A 2.65 2.65 0 0 1 69.617 1.955 Q 69.924 2.016 70.163 2.156 A 1.439 1.439 0 0 1 70.387 2.318 A 1.396 1.396 0 0 1 70.841 3.144 A 1.998 1.998 0 0 1 70.871 3.45 L 70.871 5.638 Q 70.871 6.073 70.944 6.39 A 1.707 1.707 0 0 0 71.038 6.68 L 71.038 6.75 Z M 29.057 4.395 L 29.057 4.333 A 3.762 3.762 0 0 1 29.124 3.602 Q 29.211 3.16 29.414 2.812 A 2.148 2.148 0 0 1 29.575 2.573 Q 30.094 1.907 30.933 1.907 A 1.964 1.964 0 0 1 31.531 1.994 A 1.559 1.559 0 0 1 32.256 2.479 L 32.256 0 L 33.069 0 L 33.069 6.75 L 32.322 6.75 L 32.282 6.24 Q 31.794 6.838 30.924 6.838 A 1.6 1.6 0 0 1 29.704 6.31 A 2.078 2.078 0 0 1 29.577 6.161 A 2.405 2.405 0 0 1 29.153 5.255 Q 29.069 4.912 29.058 4.51 A 4.425 4.425 0 0 1 29.057 4.395 Z M 5.212 4.504 L 5.212 4.355 A 3.17 3.17 0 0 1 5.288 3.646 A 2.581 2.581 0 0 1 5.482 3.092 A 2.191 2.191 0 0 1 5.93 2.466 A 2.033 2.033 0 0 1 6.238 2.221 Q 6.724 1.907 7.291 1.907 A 2.254 2.254 0 0 1 7.904 1.986 A 1.639 1.639 0 0 1 8.732 2.518 Q 9.246 3.129 9.246 4.267 L 9.246 4.605 L 6.025 4.605 A 2.111 2.111 0 0 0 6.096 5.114 A 1.516 1.516 0 0 0 6.436 5.741 A 1.282 1.282 0 0 0 7.37 6.173 A 1.652 1.652 0 0 0 7.436 6.174 A 1.763 1.763 0 0 0 7.764 6.145 Q 7.988 6.103 8.165 5.999 A 1.827 1.827 0 0 0 8.674 5.551 A 2.068 2.068 0 0 0 8.688 5.533 L 9.185 5.919 A 1.926 1.926 0 0 1 7.785 6.811 A 2.749 2.749 0 0 1 7.392 6.838 A 2.394 2.394 0 0 1 6.64 6.725 A 1.974 1.974 0 0 1 5.818 6.203 Q 5.212 5.568 5.212 4.504 Z M 34.124 4.504 L 34.124 4.355 A 3.17 3.17 0 0 1 34.2 3.646 A 2.581 2.581 0 0 1 34.394 3.092 A 2.191 2.191 0 0 1 34.841 2.466 A 2.033 2.033 0 0 1 35.15 2.221 Q 35.635 1.907 36.202 1.907 A 2.254 2.254 0 0 1 36.815 1.986 A 1.639 1.639 0 0 1 37.644 2.518 Q 38.158 3.129 38.158 4.267 L 38.158 4.605 L 34.937 4.605 A 2.111 2.111 0 0 0 35.008 5.114 A 1.516 1.516 0 0 0 35.347 5.741 A 1.282 1.282 0 0 0 36.281 6.173 A 1.652 1.652 0 0 0 36.347 6.174 A 1.763 1.763 0 0 0 36.675 6.145 Q 36.899 6.103 37.077 5.999 A 1.827 1.827 0 0 0 37.586 5.551 A 2.068 2.068 0 0 0 37.6 5.533 L 38.096 5.919 A 1.926 1.926 0 0 1 36.696 6.811 A 2.749 2.749 0 0 1 36.303 6.838 A 2.394 2.394 0 0 1 35.552 6.725 A 1.974 1.974 0 0 1 34.73 6.203 Q 34.124 5.568 34.124 4.504 Z M 52.361 0.352 L 52.361 4.601 L 53.249 4.601 L 53.249 5.265 L 52.361 5.265 L 52.361 6.75 L 51.543 6.75 L 51.543 5.265 L 48.63 5.265 L 48.63 4.786 L 51.495 0.352 L 52.361 0.352 Z M 63.246 6.75 L 61.475 6.75 L 61.475 0.352 L 63.281 0.352 Q 64.116 0.352 64.758 0.721 Q 65.399 1.09 65.749 1.771 A 3.19 3.19 0 0 1 66.066 2.8 A 4.073 4.073 0 0 1 66.103 3.335 L 66.103 3.744 Q 66.103 4.649 65.753 5.331 A 2.457 2.457 0 0 1 64.756 6.376 Q 64.107 6.741 63.246 6.75 Z M 57.759 2.592 A 1.544 1.544 0 0 0 57.863 2.021 A 2.226 2.226 0 0 0 57.841 1.707 A 1.566 1.566 0 0 0 57.342 0.738 A 1.754 1.754 0 0 0 56.576 0.333 A 2.443 2.443 0 0 0 55.978 0.264 A 2.539 2.539 0 0 0 55.468 0.312 A 1.767 1.767 0 0 0 54.611 0.738 Q 54.092 1.213 54.092 2.021 A 1.808 1.808 0 0 0 54.093 2.058 A 1.499 1.499 0 0 0 54.338 2.87 A 1.626 1.626 0 0 0 54.5 3.077 A 1.726 1.726 0 0 0 55.011 3.454 A 2.119 2.119 0 0 0 54.911 3.5 A 1.738 1.738 0 0 0 54.226 4.087 A 1.629 1.629 0 0 0 53.943 5.023 A 2.272 2.272 0 0 0 53.953 5.237 A 1.63 1.63 0 0 0 54.499 6.344 A 1.895 1.895 0 0 0 55.349 6.771 A 2.797 2.797 0 0 0 55.978 6.838 A 2.796 2.796 0 0 0 56.577 6.777 A 1.925 1.925 0 0 0 57.452 6.346 A 1.578 1.578 0 0 0 57.927 5.62 A 1.989 1.989 0 0 0 58.012 5.023 A 1.581 1.581 0 0 0 57.72 4.087 Q 57.428 3.674 56.927 3.458 Q 57.357 3.248 57.61 2.874 A 1.449 1.449 0 0 0 57.759 2.592 Z M 27.954 0 L 27.954 6.75 L 27.141 6.75 L 27.141 0 L 27.954 0 Z M 21.722 4.386 L 21.722 4.329 A 3.057 3.057 0 0 1 21.809 3.587 A 2.573 2.573 0 0 1 21.997 3.072 A 2.16 2.16 0 0 1 22.412 2.486 A 1.957 1.957 0 0 1 22.761 2.21 A 2.036 2.036 0 0 1 23.706 1.913 A 2.491 2.491 0 0 1 23.88 1.907 A 2.277 2.277 0 0 1 24.633 2.027 A 1.937 1.937 0 0 1 25.451 2.58 A 2.29 2.29 0 0 1 25.97 3.608 A 3.373 3.373 0 0 1 26.051 4.368 L 26.051 4.425 A 3.114 3.114 0 0 1 25.971 5.142 A 2.577 2.577 0 0 1 25.785 5.671 A 2.056 2.056 0 0 1 25.258 6.361 A 2.001 2.001 0 0 1 25.025 6.53 A 2.045 2.045 0 0 1 24.105 6.829 A 2.529 2.529 0 0 1 23.889 6.838 A 2.262 2.262 0 0 1 23.138 6.718 A 1.938 1.938 0 0 1 22.322 6.166 A 2.297 2.297 0 0 1 21.796 5.111 A 3.357 3.357 0 0 1 21.722 4.386 Z M 41.396 1.969 L 41.396 2.725 A 2.251 2.251 0 0 0 41.154 2.698 A 2.782 2.782 0 0 0 40.997 2.694 Q 40.219 2.694 39.927 3.338 A 1.445 1.445 0 0 0 39.911 3.375 L 39.911 6.75 L 39.098 6.75 L 39.098 1.995 L 39.889 1.995 L 39.902 2.544 Q 40.283 1.938 40.965 1.909 A 1.636 1.636 0 0 1 41.036 1.907 Q 41.273 1.907 41.396 1.969 Z M 74.443 1.969 L 74.443 2.725 A 2.251 2.251 0 0 0 74.201 2.698 A 2.782 2.782 0 0 0 74.043 2.694 Q 73.266 2.694 72.974 3.338 A 1.445 1.445 0 0 0 72.958 3.375 L 72.958 6.75 L 72.145 6.75 L 72.145 1.995 L 72.936 1.995 L 72.949 2.544 Q 73.33 1.938 74.012 1.909 A 1.636 1.636 0 0 1 74.083 1.907 Q 74.32 1.907 74.443 1.969 Z M 63.303 1.046 L 62.319 1.046 L 62.319 6.06 L 63.207 6.06 A 2.519 2.519 0 0 0 63.839 5.985 A 1.747 1.747 0 0 0 64.725 5.454 Q 65.184 4.94 65.255 4.059 A 4.165 4.165 0 0 0 65.268 3.727 L 65.268 3.353 Q 65.268 2.562 64.998 2.027 A 1.864 1.864 0 0 0 64.756 1.659 A 1.687 1.687 0 0 0 63.76 1.09 A 2.499 2.499 0 0 0 63.303 1.046 Z M 22.54 4.425 A 2.772 2.772 0 0 0 22.587 4.954 Q 22.647 5.264 22.785 5.51 A 1.545 1.545 0 0 0 22.906 5.695 Q 23.273 6.174 23.889 6.174 A 1.269 1.269 0 0 0 24.378 6.083 Q 24.657 5.967 24.86 5.706 A 1.471 1.471 0 0 0 24.873 5.689 A 1.648 1.648 0 0 0 25.128 5.171 Q 25.197 4.945 25.222 4.672 A 3.655 3.655 0 0 0 25.238 4.329 A 2.687 2.687 0 0 0 25.187 3.789 Q 25.119 3.459 24.962 3.2 A 1.586 1.586 0 0 0 24.866 3.061 A 1.231 1.231 0 0 0 24.451 2.705 Q 24.198 2.575 23.88 2.575 Q 23.29 2.575 22.924 3.035 A 1.515 1.515 0 0 0 22.909 3.054 A 1.589 1.589 0 0 0 22.657 3.552 Q 22.587 3.772 22.559 4.039 A 3.676 3.676 0 0 0 22.54 4.425 Z M 32.256 5.454 L 32.256 3.27 A 1.375 1.375 0 0 0 31.944 2.874 Q 31.62 2.597 31.135 2.597 A 1.238 1.238 0 0 0 30.709 2.668 A 1.068 1.068 0 0 0 30.204 3.059 A 1.51 1.51 0 0 0 29.994 3.484 Q 29.929 3.689 29.898 3.939 A 3.955 3.955 0 0 0 29.87 4.425 A 3.162 3.162 0 0 0 29.906 4.918 Q 29.947 5.178 30.035 5.389 A 1.474 1.474 0 0 0 30.204 5.691 A 1.06 1.06 0 0 0 30.966 6.139 A 1.391 1.391 0 0 0 31.126 6.148 Q 31.9 6.148 32.256 5.454 Z M 0.848 1.046 L 0.848 3.472 L 2.145 3.472 Q 2.685 3.472 3.035 3.231 A 1.174 1.174 0 0 0 3.144 3.146 A 1.069 1.069 0 0 0 3.51 2.409 A 1.486 1.486 0 0 0 3.516 2.276 Q 3.516 1.734 3.22 1.423 A 1 1 0 0 0 3.162 1.367 Q 2.808 1.05 2.14 1.046 L 0.848 1.046 Z M 51.447 1.639 L 49.553 4.601 L 51.543 4.601 L 51.543 1.463 L 51.447 1.639 Z M 57.199 5.005 A 1.375 1.375 0 0 0 57.14 4.592 A 1.109 1.109 0 0 0 56.859 4.131 A 1.148 1.148 0 0 0 56.187 3.807 A 1.593 1.593 0 0 0 55.969 3.792 A 1.466 1.466 0 0 0 55.58 3.841 A 1.086 1.086 0 0 0 55.088 4.126 A 1.123 1.123 0 0 0 54.774 4.762 A 1.572 1.572 0 0 0 54.756 5.005 A 1.48 1.48 0 0 0 54.798 5.367 A 1.019 1.019 0 0 0 55.079 5.862 Q 55.385 6.158 55.918 6.173 A 2.053 2.053 0 0 0 55.978 6.174 Q 56.471 6.174 56.781 5.94 A 1.018 1.018 0 0 0 56.874 5.86 A 1.041 1.041 0 0 0 57.173 5.292 A 1.518 1.518 0 0 0 57.199 5.005 Z M 55.978 0.932 A 1.259 1.259 0 0 0 55.625 0.979 A 0.973 0.973 0 0 0 55.202 1.228 Q 54.905 1.525 54.905 2.035 A 1.325 1.325 0 0 0 54.95 2.387 A 0.994 0.994 0 0 0 55.198 2.823 A 0.974 0.974 0 0 0 55.76 3.108 A 1.382 1.382 0 0 0 55.978 3.125 A 1.279 1.279 0 0 0 56.322 3.08 A 0.952 0.952 0 0 0 56.758 2.823 A 1.018 1.018 0 0 0 57.033 2.26 A 1.426 1.426 0 0 0 57.05 2.035 A 1.282 1.282 0 0 0 57 1.668 A 1.013 1.013 0 0 0 56.747 1.239 Q 56.443 0.932 55.978 0.932 Z M 70.058 5.418 L 70.058 4.443 L 69.42 4.443 Q 67.926 4.443 67.926 5.317 Q 67.926 5.7 68.181 5.915 A 0.893 0.893 0 0 0 68.595 6.108 A 1.259 1.259 0 0 0 68.836 6.13 A 1.429 1.429 0 0 0 69.561 5.933 A 1.335 1.335 0 0 0 69.857 5.705 A 1.108 1.108 0 0 0 70.058 5.418 Z M 6.051 3.938 L 8.433 3.938 L 8.433 3.876 Q 8.407 3.417 8.236 3.111 A 1.13 1.13 0 0 0 8.099 2.916 A 0.983 0.983 0 0 0 7.445 2.584 A 1.39 1.39 0 0 0 7.291 2.575 A 1.106 1.106 0 0 0 6.768 2.698 A 1.14 1.14 0 0 0 6.464 2.933 A 1.417 1.417 0 0 0 6.188 3.379 Q 6.114 3.563 6.074 3.785 A 2.741 2.741 0 0 0 6.051 3.938 Z M 34.963 3.938 L 37.345 3.938 L 37.345 3.876 Q 37.319 3.417 37.148 3.111 A 1.13 1.13 0 0 0 37.011 2.916 A 0.983 0.983 0 0 0 36.356 2.584 A 1.39 1.39 0 0 0 36.202 2.575 A 1.106 1.106 0 0 0 35.68 2.698 A 1.14 1.14 0 0 0 35.376 2.933 A 1.417 1.417 0 0 0 35.099 3.379 Q 35.026 3.563 34.986 3.785 A 2.741 2.741 0 0 0 34.963 3.938 Z" vector-effect="non-scaling-stroke"/></g>
</svg>