<?xml version="1.0" encoding="UTF-8"?>
<svg width="80px" height="80px" viewBox="0 0 80 80" version="1.1" xmlns="http://www.w3.org/2000/svg" xmlns:xlink="http://www.w3.org/1999/xlink">
    <title>Icon-Architecture/64/Arch_Amazon-Location-Service_64</title>
    
    <g id="Icon-Architecture/64/Arch_Amazon-Location-Service_64" stroke="none" stroke-width="1" fill="none" fill-rule="evenodd">
        
        <g id="Icon-Service/64/Amazon-Location-Service_64" transform="translate(16, 8), scale(.65)" fill="#000000">
            <path d="M35.086327,13.594 C35.006327,13.776 34.981327,13.977 35.015327,14.173 L35.861327,19 L28.181327,19 L28.986327,14.165 C29.019327,13.971 28.993327,13.773 28.914327,13.594 L25.539327,6 L38.461327,6 L35.086327,13.594 Z M40.839327,4.455 C40.654327,4.172 40.339327,4 40.000327,4 L24.000327,4 C23.661327,4 23.346327,4.172 23.161327,4.455 C22.977327,4.739 22.948327,5.097 23.086327,5.406 L26.964327,14.132 L26.014327,19.836 C25.965327,20.126 26.047327,20.422 26.237327,20.647 C26.427327,20.871 26.706327,21 27.000327,21 L31.000327,21 L31.000327,31 L33.000327,31 L33.000327,21 L37.052327,21 C37.348327,21 37.628327,20.869 37.817327,20.643 C38.008327,20.417 38.088327,20.118 38.037327,19.827 L37.038327,14.128 L40.914327,5.406 C41.052327,5.097 41.023327,4.739 40.839327,4.455 L40.839327,4.455 Z M48.850327,40.78 L46.410327,41.95 L32.000327,48.89 L17.590327,41.95 L15.150327,40.78 L7.46032702,37.08 L15.100327,33.97 L31.570327,41.9 C31.700327,41.97 31.850327,42 32.000327,42 C32.150327,42 32.300327,41.97 32.430327,41.9 L48.900327,33.97 L56.540327,37.08 L48.850327,40.78 Z M56.540327,46.08 L32.000327,57.89 L7.46032702,46.08 L15.100327,42.97 L31.570327,50.9 C31.700327,50.97 31.850327,51 32.000327,51 C32.150327,51 32.300327,50.97 32.430327,50.9 L48.900327,42.97 L56.540327,46.08 Z M60.000654,36.97 C59.990327,36.57 59.740327,36.22 59.380327,36.07 L51.340327,32.79 L59.430327,28.9 C59.790327,28.73 60.010327,28.36 60.000654,27.97 C59.990327,27.57 59.740327,27.22 59.380327,27.07 L39.950327,19.16 L40.010327,19.48 C40.110327,20.09 40.020327,20.7 39.770327,21.24 L56.540327,28.08 L48.850327,31.78 L46.410327,32.95 L32.000327,39.89 L17.590327,32.95 L15.150327,31.78 L7.46032702,28.08 L24.280327,21.23 C24.040327,20.69 23.940327,20.1 24.040327,19.51 L24.100327,19.14 L4.62032702,27.07 C4.26032702,27.22 4.01032702,27.57 4,27.97 C3.99032702,28.36 4.21032702,28.73 4.57032702,28.9 L12.660327,32.79 L4.62032702,36.07 C4.26032702,36.22 4.01032702,36.57 4,36.97 C3.99032702,37.36 4.21032702,37.73 4.57032702,37.9 L12.660327,41.79 L4.62032702,45.07 C4.26032702,45.22 4.01032702,45.57 4,45.97 C3.99032702,46.36 4.21032702,46.73 4.57032702,46.9 L31.570327,59.9 C31.700327,59.97 31.850327,60 32.000327,60 C32.150327,60 32.300327,59.97 32.430327,59.9 L59.430327,46.9 C59.790327,46.73 60.010327,46.36 60.000654,45.97 C59.990327,45.57 59.740327,45.22 59.380327,45.07 L51.340327,41.79 L59.430327,37.9 C59.790327,37.73 60.010327,37.36 60.000654,36.97 L60.000654,36.97 Z" id="Fill-1"></path>
        </g>
    </g><g transform="translate(18.26048913089224vw, 64vh)" id="svgGroup" stroke-linecap="round" fill-rule="evenodd" font-size="9pt" stroke="#000" stroke-width="0.15mm" fill="#000" style="stroke:#000;stroke-width:0.15mm;fill:#000"><path d="M 27.519 1.292 L 26.953 1.292 A 0.977 0.977 0 0 0 26.92 1.03 A 0.711 0.711 0 0 0 26.707 0.684 Q 26.492 0.491 26.123 0.466 A 1.668 1.668 0 0 0 26.013 0.463 A 1.524 1.524 0 0 0 25.759 0.483 Q 25.625 0.505 25.517 0.554 A 0.734 0.734 0 0 0 25.364 0.646 A 0.595 0.595 0 0 0 25.134 1.082 A 0.845 0.845 0 0 0 25.131 1.154 Q 25.131 1.415 25.352 1.595 A 1.041 1.041 0 0 0 25.511 1.7 Q 25.731 1.82 26.105 1.925 A 5.485 5.485 0 0 1 26.415 2.021 Q 26.571 2.075 26.701 2.133 A 2.198 2.198 0 0 1 26.937 2.254 A 1.561 1.561 0 0 1 27.163 2.417 Q 27.289 2.528 27.371 2.657 A 0.965 0.965 0 0 1 27.382 2.675 A 0.999 0.999 0 0 1 27.513 3.045 A 1.299 1.299 0 0 1 27.527 3.24 A 1.071 1.071 0 0 1 27.446 3.664 Q 27.349 3.892 27.137 4.06 A 1.257 1.257 0 0 1 27.123 4.071 Q 26.761 4.351 26.179 4.38 A 2.759 2.759 0 0 1 26.042 4.383 Q 25.603 4.383 25.222 4.214 A 1.589 1.589 0 0 1 24.903 4.029 A 1.249 1.249 0 0 1 24.634 3.753 Q 24.428 3.46 24.428 3.088 L 24.993 3.088 A 0.841 0.841 0 0 0 25.039 3.373 A 0.716 0.716 0 0 0 25.279 3.699 Q 25.535 3.9 25.946 3.921 A 1.914 1.914 0 0 0 26.042 3.923 Q 26.334 3.923 26.537 3.845 A 0.752 0.752 0 0 0 26.725 3.741 A 0.579 0.579 0 0 0 26.958 3.322 A 0.768 0.768 0 0 0 26.962 3.246 A 0.716 0.716 0 0 0 26.934 3.039 A 0.544 0.544 0 0 0 26.742 2.761 A 1.04 1.04 0 0 0 26.593 2.667 Q 26.426 2.577 26.161 2.489 A 5.851 5.851 0 0 0 25.945 2.423 A 4.568 4.568 0 0 1 25.55 2.291 Q 25.124 2.125 24.892 1.912 A 1 1 0 0 1 24.623 1.52 A 1.023 1.023 0 0 1 24.563 1.163 A 1.02 1.02 0 0 1 24.893 0.393 A 1.318 1.318 0 0 1 24.965 0.33 Q 25.368 0 26.013 0 A 1.942 1.942 0 0 1 26.453 0.048 A 1.581 1.581 0 0 1 26.796 0.17 A 1.367 1.367 0 0 1 27.15 0.417 A 1.223 1.223 0 0 1 27.33 0.639 A 1.199 1.199 0 0 1 27.519 1.292 Z M 19.808 1.154 L 20.32 1.154 L 20.338 1.553 Q 20.701 1.096 21.287 1.096 Q 22.292 1.096 22.301 2.23 L 22.301 4.324 L 21.759 4.324 L 21.759 2.227 A 1.224 1.224 0 0 0 21.744 2.04 Q 21.728 1.944 21.696 1.868 A 0.494 0.494 0 0 0 21.602 1.72 A 0.472 0.472 0 0 0 21.413 1.599 Q 21.337 1.572 21.242 1.562 A 1.106 1.106 0 0 0 21.123 1.556 Q 20.859 1.556 20.66 1.696 Q 20.461 1.837 20.35 2.065 L 20.35 4.324 L 19.808 4.324 L 19.808 1.154 Z M 8.584 3.325 L 9.097 3.325 A 0.955 0.955 0 0 1 8.964 3.758 A 1.181 1.181 0 0 1 8.909 3.844 A 1.219 1.219 0 0 1 8.503 4.207 A 1.446 1.446 0 0 1 8.448 4.236 A 1.331 1.331 0 0 1 7.837 4.383 A 1.564 1.564 0 0 1 7.372 4.317 A 1.226 1.226 0 0 1 6.807 3.951 Q 6.456 3.554 6.427 2.89 A 2.794 2.794 0 0 1 6.425 2.769 L 6.425 2.678 A 2.16 2.16 0 0 1 6.467 2.241 A 1.713 1.713 0 0 1 6.595 1.855 A 1.339 1.339 0 0 1 6.888 1.445 A 1.261 1.261 0 0 1 7.083 1.295 A 1.295 1.295 0 0 1 7.587 1.113 A 1.686 1.686 0 0 1 7.834 1.096 A 1.464 1.464 0 0 1 8.266 1.157 A 1.191 1.191 0 0 1 8.72 1.415 A 1.129 1.129 0 0 1 9.092 2.181 A 1.493 1.493 0 0 1 9.097 2.244 L 8.584 2.244 A 0.813 0.813 0 0 0 8.516 1.968 A 0.725 0.725 0 0 0 8.351 1.739 A 0.718 0.718 0 0 0 7.865 1.542 A 0.934 0.934 0 0 0 7.834 1.541 A 0.916 0.916 0 0 0 7.553 1.582 A 0.72 0.72 0 0 0 7.194 1.838 A 0.979 0.979 0 0 0 7.043 2.137 Q 6.967 2.373 6.967 2.698 L 6.967 2.801 Q 6.967 3.349 7.192 3.645 Q 7.418 3.94 7.837 3.94 A 0.781 0.781 0 0 0 8.344 3.765 A 0.672 0.672 0 0 0 8.506 3.577 A 0.609 0.609 0 0 0 8.584 3.325 Z M 39.806 3.325 L 40.318 3.325 A 0.955 0.955 0 0 1 40.186 3.758 A 1.181 1.181 0 0 1 40.131 3.844 A 1.219 1.219 0 0 1 39.725 4.207 A 1.446 1.446 0 0 1 39.669 4.236 A 1.331 1.331 0 0 1 39.059 4.383 A 1.564 1.564 0 0 1 38.594 4.317 A 1.226 1.226 0 0 1 38.029 3.951 Q 37.678 3.554 37.649 2.89 A 2.794 2.794 0 0 1 37.646 2.769 L 37.646 2.678 A 2.16 2.16 0 0 1 37.689 2.241 A 1.713 1.713 0 0 1 37.816 1.855 A 1.339 1.339 0 0 1 38.109 1.445 A 1.261 1.261 0 0 1 38.304 1.295 A 1.295 1.295 0 0 1 38.808 1.113 A 1.686 1.686 0 0 1 39.056 1.096 A 1.464 1.464 0 0 1 39.488 1.157 A 1.191 1.191 0 0 1 39.942 1.415 A 1.129 1.129 0 0 1 40.314 2.181 A 1.493 1.493 0 0 1 40.318 2.244 L 39.806 2.244 A 0.813 0.813 0 0 0 39.738 1.968 A 0.725 0.725 0 0 0 39.573 1.739 A 0.718 0.718 0 0 0 39.087 1.542 A 0.934 0.934 0 0 0 39.056 1.541 A 0.916 0.916 0 0 0 38.775 1.582 A 0.72 0.72 0 0 0 38.416 1.838 A 0.979 0.979 0 0 0 38.264 2.137 Q 38.188 2.373 38.188 2.698 L 38.188 2.801 Q 38.188 3.349 38.414 3.645 Q 38.64 3.94 39.059 3.94 A 0.781 0.781 0 0 0 39.565 3.765 A 0.672 0.672 0 0 0 39.728 3.577 A 0.609 0.609 0 0 0 39.806 3.325 Z M 12.231 4.324 L 11.663 4.324 A 0.421 0.421 0 0 1 11.639 4.264 Q 11.608 4.167 11.587 3.99 A 1.289 1.289 0 0 1 11.172 4.285 A 1.209 1.209 0 0 1 10.685 4.383 A 1.356 1.356 0 0 1 10.332 4.339 A 1.019 1.019 0 0 1 9.916 4.118 A 0.852 0.852 0 0 1 9.616 3.497 A 1.069 1.069 0 0 1 9.615 3.445 A 1.038 1.038 0 0 1 9.672 3.096 A 0.873 0.873 0 0 1 9.992 2.676 A 1.282 1.282 0 0 1 10.376 2.49 Q 10.547 2.438 10.753 2.417 A 2.912 2.912 0 0 1 11.051 2.402 L 11.578 2.402 L 11.578 2.153 A 0.768 0.768 0 0 0 11.554 1.957 A 0.552 0.552 0 0 0 11.408 1.701 Q 11.264 1.558 11.004 1.536 A 1.166 1.166 0 0 0 10.907 1.532 A 0.95 0.95 0 0 0 10.679 1.558 A 0.712 0.712 0 0 0 10.421 1.679 A 0.57 0.57 0 0 0 10.311 1.784 A 0.395 0.395 0 0 0 10.225 2.033 L 9.68 2.033 Q 9.68 1.796 9.848 1.575 A 1.087 1.087 0 0 1 10.152 1.304 A 1.368 1.368 0 0 1 10.305 1.225 A 1.499 1.499 0 0 1 10.822 1.1 A 1.78 1.78 0 0 1 10.939 1.096 A 1.766 1.766 0 0 1 11.284 1.127 Q 11.593 1.189 11.798 1.37 A 0.931 0.931 0 0 1 12.1 1.92 A 1.332 1.332 0 0 1 12.12 2.124 L 12.12 3.583 A 2.785 2.785 0 0 0 12.132 3.85 Q 12.144 3.977 12.169 4.084 A 1.138 1.138 0 0 0 12.231 4.277 L 12.231 4.324 Z M 28.025 2.827 L 28.025 2.728 Q 28.025 2.256 28.206 1.885 A 1.461 1.461 0 0 1 28.504 1.468 A 1.356 1.356 0 0 1 28.709 1.305 Q 29.033 1.096 29.411 1.096 A 1.503 1.503 0 0 1 29.82 1.148 A 1.093 1.093 0 0 1 30.372 1.503 A 1.33 1.33 0 0 1 30.618 1.962 Q 30.68 2.157 30.702 2.392 A 2.942 2.942 0 0 1 30.715 2.669 L 30.715 2.895 L 28.567 2.895 A 1.408 1.408 0 0 0 28.615 3.233 A 1.011 1.011 0 0 0 28.841 3.652 A 0.855 0.855 0 0 0 29.464 3.94 A 1.102 1.102 0 0 0 29.508 3.94 A 1.176 1.176 0 0 0 29.727 3.921 Q 29.866 3.895 29.978 3.832 A 0.737 0.737 0 0 0 29.994 3.823 A 1.218 1.218 0 0 0 30.333 3.525 A 1.384 1.384 0 0 0 30.343 3.513 L 30.674 3.771 A 1.284 1.284 0 0 1 29.741 4.365 A 1.833 1.833 0 0 1 29.479 4.383 A 1.596 1.596 0 0 1 28.978 4.308 A 1.316 1.316 0 0 1 28.43 3.96 A 1.424 1.424 0 0 1 28.067 3.252 A 2.069 2.069 0 0 1 28.025 2.827 Z M 40.79 2.827 L 40.79 2.728 Q 40.79 2.256 40.97 1.885 A 1.461 1.461 0 0 1 41.269 1.468 A 1.356 1.356 0 0 1 41.474 1.305 Q 41.798 1.096 42.176 1.096 A 1.503 1.503 0 0 1 42.585 1.148 A 1.093 1.093 0 0 1 43.137 1.503 A 1.33 1.33 0 0 1 43.383 1.962 Q 43.445 2.157 43.467 2.392 A 2.942 2.942 0 0 1 43.479 2.669 L 43.479 2.895 L 41.332 2.895 A 1.408 1.408 0 0 0 41.379 3.233 A 1.011 1.011 0 0 0 41.606 3.652 A 0.855 0.855 0 0 0 42.229 3.94 A 1.102 1.102 0 0 0 42.272 3.94 A 1.176 1.176 0 0 0 42.491 3.921 Q 42.631 3.895 42.743 3.832 A 0.737 0.737 0 0 0 42.759 3.823 A 1.218 1.218 0 0 0 43.098 3.525 A 1.384 1.384 0 0 0 43.107 3.513 L 43.438 3.771 A 1.284 1.284 0 0 1 42.505 4.365 A 1.833 1.833 0 0 1 42.243 4.383 A 1.596 1.596 0 0 1 41.742 4.308 A 1.316 1.316 0 0 1 41.194 3.96 A 1.424 1.424 0 0 1 40.832 3.252 A 2.069 2.069 0 0 1 40.79 2.827 Z M 0.565 0.059 L 0.565 3.864 L 2.587 3.864 L 2.587 4.324 L 0 4.324 L 0 0.059 L 0.565 0.059 Z M 33.665 1.154 L 34.471 3.589 L 35.256 1.154 L 35.81 1.154 L 34.673 4.324 L 34.26 4.324 L 33.111 1.154 L 33.665 1.154 Z M 13.163 0.387 L 13.705 0.387 L 13.705 1.154 L 14.297 1.154 L 14.297 1.573 L 13.705 1.573 L 13.705 3.539 A 0.732 0.732 0 0 0 13.712 3.644 Q 13.72 3.697 13.736 3.74 A 0.294 0.294 0 0 0 13.784 3.825 A 0.234 0.234 0 0 0 13.881 3.892 Q 13.92 3.908 13.97 3.915 A 0.618 0.618 0 0 0 14.054 3.92 Q 14.147 3.92 14.312 3.885 L 14.312 4.324 A 1.642 1.642 0 0 1 14.023 4.377 A 1.438 1.438 0 0 1 13.896 4.383 A 0.954 0.954 0 0 1 13.679 4.36 Q 13.527 4.324 13.42 4.235 A 0.571 0.571 0 0 1 13.348 4.163 A 0.723 0.723 0 0 1 13.213 3.909 Q 13.163 3.749 13.163 3.539 L 13.163 1.573 L 12.586 1.573 L 12.586 1.154 L 13.163 1.154 L 13.163 0.387 Z M 3 2.748 L 3 2.71 A 2.038 2.038 0 0 1 3.058 2.216 A 1.715 1.715 0 0 1 3.183 1.872 Q 3.366 1.5 3.693 1.298 A 1.358 1.358 0 0 1 4.322 1.1 A 1.66 1.66 0 0 1 4.438 1.096 A 1.518 1.518 0 0 1 4.941 1.176 A 1.291 1.291 0 0 1 5.486 1.544 A 1.526 1.526 0 0 1 5.832 2.23 A 2.248 2.248 0 0 1 5.886 2.736 L 5.886 2.774 A 2.076 2.076 0 0 1 5.833 3.252 A 1.718 1.718 0 0 1 5.708 3.605 A 1.371 1.371 0 0 1 5.357 4.065 A 1.334 1.334 0 0 1 5.202 4.178 A 1.364 1.364 0 0 1 4.588 4.377 A 1.686 1.686 0 0 1 4.444 4.383 A 1.508 1.508 0 0 1 3.944 4.303 A 1.292 1.292 0 0 1 3.4 3.935 Q 3 3.486 3 2.748 Z M 16.242 2.748 L 16.242 2.71 A 2.038 2.038 0 0 1 16.3 2.216 A 1.715 1.715 0 0 1 16.425 1.872 Q 16.608 1.5 16.935 1.298 A 1.358 1.358 0 0 1 17.565 1.1 A 1.66 1.66 0 0 1 17.681 1.096 A 1.518 1.518 0 0 1 18.183 1.176 A 1.291 1.291 0 0 1 18.728 1.544 A 1.526 1.526 0 0 1 19.074 2.23 A 2.248 2.248 0 0 1 19.128 2.736 L 19.128 2.774 A 2.076 2.076 0 0 1 19.075 3.252 A 1.718 1.718 0 0 1 18.951 3.605 A 1.371 1.371 0 0 1 18.599 4.065 A 1.334 1.334 0 0 1 18.444 4.178 A 1.364 1.364 0 0 1 17.831 4.377 A 1.686 1.686 0 0 1 17.687 4.383 A 1.508 1.508 0 0 1 17.186 4.303 A 1.292 1.292 0 0 1 16.642 3.935 Q 16.242 3.486 16.242 2.748 Z M 32.874 1.137 L 32.874 1.641 A 1.501 1.501 0 0 0 32.712 1.623 A 1.855 1.855 0 0 0 32.607 1.62 A 0.958 0.958 0 0 0 32.321 1.66 Q 32.03 1.751 31.895 2.05 A 0.963 0.963 0 0 0 31.884 2.074 L 31.884 4.324 L 31.342 4.324 L 31.342 1.154 L 31.869 1.154 L 31.878 1.521 A 0.961 0.961 0 0 1 32.109 1.262 Q 32.328 1.096 32.634 1.096 A 0.99 0.99 0 0 1 32.717 1.099 Q 32.815 1.107 32.874 1.137 Z M 15.519 1.154 L 15.519 4.324 L 14.977 4.324 L 14.977 1.154 L 15.519 1.154 Z M 36.92 1.154 L 36.92 4.324 L 36.378 4.324 L 36.378 1.154 L 36.92 1.154 Z M 3.708 3.498 A 1.03 1.03 0 0 0 3.79 3.621 Q 4.034 3.94 4.444 3.94 Q 4.857 3.94 5.101 3.617 Q 5.344 3.293 5.344 2.71 A 1.792 1.792 0 0 0 5.31 2.35 Q 5.265 2.13 5.16 1.958 A 1.057 1.057 0 0 0 5.096 1.865 A 0.821 0.821 0 0 0 4.819 1.628 Q 4.651 1.541 4.438 1.541 A 0.813 0.813 0 0 0 4.087 1.615 Q 3.925 1.692 3.801 1.848 A 1.01 1.01 0 0 0 3.791 1.86 A 1.059 1.059 0 0 0 3.623 2.192 Q 3.577 2.339 3.558 2.517 A 2.451 2.451 0 0 0 3.545 2.774 Q 3.545 3.205 3.708 3.498 Z M 16.951 3.498 A 1.03 1.03 0 0 0 17.032 3.621 Q 17.276 3.94 17.687 3.94 Q 18.1 3.94 18.343 3.617 Q 18.586 3.293 18.586 2.71 A 1.792 1.792 0 0 0 18.552 2.35 Q 18.507 2.13 18.402 1.958 A 1.057 1.057 0 0 0 18.338 1.865 A 0.821 0.821 0 0 0 18.062 1.628 Q 17.893 1.541 17.681 1.541 A 0.813 0.813 0 0 0 17.33 1.615 Q 17.167 1.692 17.043 1.848 A 1.01 1.01 0 0 0 17.033 1.86 A 1.059 1.059 0 0 0 16.865 2.192 Q 16.819 2.339 16.8 2.517 A 2.451 2.451 0 0 0 16.787 2.774 Q 16.787 3.205 16.951 3.498 Z M 11.578 3.437 L 11.578 2.786 L 11.153 2.786 A 2.544 2.544 0 0 0 10.815 2.807 Q 10.444 2.857 10.283 3.029 A 0.477 0.477 0 0 0 10.157 3.369 A 0.613 0.613 0 0 0 10.18 3.541 A 0.458 0.458 0 0 0 10.327 3.768 A 0.596 0.596 0 0 0 10.603 3.896 A 0.839 0.839 0 0 0 10.764 3.911 Q 11.019 3.911 11.247 3.779 A 0.89 0.89 0 0 0 11.444 3.628 A 0.738 0.738 0 0 0 11.578 3.437 Z M 28.585 2.449 L 30.173 2.449 L 30.173 2.408 A 1.489 1.489 0 0 0 30.137 2.152 Q 30.104 2.01 30.042 1.898 A 0.753 0.753 0 0 0 29.95 1.768 A 0.655 0.655 0 0 0 29.514 1.547 A 0.926 0.926 0 0 0 29.411 1.541 Q 29.083 1.541 28.86 1.78 Q 28.665 1.99 28.6 2.348 A 1.827 1.827 0 0 0 28.585 2.449 Z M 41.35 2.449 L 42.938 2.449 L 42.938 2.408 A 1.489 1.489 0 0 0 42.902 2.152 Q 42.869 2.01 42.806 1.898 A 0.753 0.753 0 0 0 42.715 1.768 A 0.655 0.655 0 0 0 42.279 1.547 A 0.926 0.926 0 0 0 42.176 1.541 Q 41.848 1.541 41.625 1.78 Q 41.429 1.99 41.365 2.348 A 1.827 1.827 0 0 0 41.35 2.449 Z M 14.951 0.196 A 0.357 0.357 0 0 0 14.933 0.314 A 0.403 0.403 0 0 0 14.934 0.35 A 0.304 0.304 0 0 0 15.013 0.533 Q 15.069 0.594 15.161 0.613 A 0.455 0.455 0 0 0 15.252 0.621 Q 15.41 0.621 15.492 0.533 A 0.295 0.295 0 0 0 15.557 0.424 A 0.349 0.349 0 0 0 15.574 0.314 A 0.409 0.409 0 0 0 15.574 0.293 A 0.316 0.316 0 0 0 15.492 0.091 Q 15.437 0.029 15.347 0.01 A 0.439 0.439 0 0 0 15.252 0 Q 15.19 0 15.139 0.014 A 0.257 0.257 0 0 0 15.013 0.091 A 0.31 0.31 0 0 0 14.951 0.196 Z M 36.353 0.196 A 0.357 0.357 0 0 0 36.334 0.314 A 0.403 0.403 0 0 0 36.336 0.35 A 0.304 0.304 0 0 0 36.415 0.533 Q 36.47 0.594 36.562 0.613 A 0.455 0.455 0 0 0 36.653 0.621 Q 36.812 0.621 36.894 0.533 A 0.295 0.295 0 0 0 36.959 0.424 A 0.349 0.349 0 0 0 36.976 0.314 A 0.409 0.409 0 0 0 36.975 0.293 A 0.316 0.316 0 0 0 36.894 0.091 Q 36.838 0.029 36.748 0.01 A 0.439 0.439 0 0 0 36.653 0 Q 36.591 0 36.541 0.014 A 0.257 0.257 0 0 0 36.415 0.091 A 0.31 0.31 0 0 0 36.353 0.196 Z" vector-effect="non-scaling-stroke"/></g>
</svg>