<?xml version="1.0" encoding="UTF-8"?>
<svg width="80px" height="80px" viewBox="0 0 80 80" version="1.1" xmlns="http://www.w3.org/2000/svg" xmlns:xlink="http://www.w3.org/1999/xlink">
    <title>Icon-Architecture/64/Arch_Amazon-EKS-Cloud_64</title>
    
    <g id="Icon-Architecture/64/Arch_Amazon-EKS-Cloud_64" stroke="none" stroke-width="1" fill="none" fill-rule="evenodd">
        
        <g id="Icon-Service/64/Amazon-EKS-Cloud_64" transform="translate(16, 8), scale(.65)" fill="#000000">
            <path d="M53.239,53.377026 L31.737,53.355026 C29.133,53.352026 26.906,51.416026 26.667,48.949026 C26.647,48.743026 26.636,48.528026 26.636,48.305026 C26.636,44.929026 28.968,43.798026 30.391,43.422026 C30.849,43.328026 31.189,42.922026 31.189,42.441026 C31.189,42.394026 31.186,42.347026 31.179,42.300026 C31.145,42.004026 31.128,41.702026 31.128,41.396026 C31.128,38.613026 33.046,35.621026 35.494,34.584026 C39.745,32.786026 42.754,35.151026 43.852,36.253026 C44.751,37.154026 45.453,38.309026 45.938,39.684026 C46.062,40.033026 46.368,40.286026 46.734,40.340026 C47.097,40.394026 47.467,40.243026 47.686,39.945026 C48.322,39.085026 49.352,38.708026 50.307,38.988026 C51.477,39.330026 52.253,40.541026 52.393,42.238026 C52.342,42.756026 52.7,43.231026 53.218,43.320026 C54.587,43.556026 57.769,44.517026 57.769,48.356026 C57.769,52.839026 53.626,53.338026 53.239,53.377026 L53.239,53.377026 Z M29.444,57.862026 L6,45.398026 L6,18.570026 L26,6.75202604 L26,16.451026 L15.463,23.156026 C15.175,23.339026 15,23.658026 15,24.000026 L15,40.000026 C15,40.373026 15.208,40.714026 15.538,40.887026 L24.901,45.758026 L25.04,45.835026 C24.784,46.592026 24.636,47.415026 24.636,48.305026 C24.636,48.594026 24.651,48.872026 24.677,49.140026 C25.012,52.621026 28.113,55.351026 31.735,55.355026 L33.982,55.356026 L29.444,57.862026 Z M44.504,23.136026 L33,16.425026 L33,6.75202604 L53,18.570026 L53,38.467026 C52.431,37.803026 51.716,37.316026 50.868,37.068026 C49.616,36.703026 48.308,36.926026 47.245,37.637026 C46.718,36.567026 46.056,35.631026 45.268,34.841026 C45.182,34.755026 45.088,34.689026 45,34.606026 L45,24.000026 C45,23.644026 44.811,23.315026 44.504,23.136026 L44.504,23.136026 Z M55,41.726026 L55,18.000026 C55,17.646026 54.813,17.318026 54.509,17.139026 L32.509,4.13902604 C32.199,3.95602604 31.817,3.95402604 31.504,4.13102604 C31.192,4.30902604 31,4.64102604 31,5.00002604 L31,17.000026 C31,17.355026 31.188,17.684026 31.496,17.863026 L43,24.574026 L43,33.118026 C40.483,31.714026 37.537,31.548026 34.715,32.742026 C33.725,33.161026 32.827,33.828026 32.037,34.629026 L29.011,31.120026 L35.842,23.199026 L33.18,23.199026 L27,30.000026 L27,23.000026 L25,23.000026 L25,40.000026 L27,40.000026 L27,32.000026 L30.682,36.311026 C29.714,37.841026 29.128,39.633026 29.128,41.396026 C29.128,41.505026 29.13,41.614026 29.133,41.723026 C27.785,42.216026 26.712,43.027026 25.946,44.073026 L17,39.393026 L17,24.548026 L27.537,17.843026 C27.825,17.660026 28,17.341026 28,17.000026 L28,5.00002604 C28,4.64102604 27.807,4.30902604 27.496,4.13102604 C27.183,3.95402604 26.802,3.95602604 26.491,4.13902604 L4.491,17.139026 C4.186,17.318026 4,17.646026 4,18.000026 L4,46.000026 C4,46.369026 4.204,46.709026 4.53,46.882026 L28.983,59.882026 C29.131,59.960026 29.292,60.000026 29.453,60.000026 C29.62,60.000026 29.786,59.958026 29.936,59.875026 L38.114,55.360026 L53.319,55.374026 C55.551,55.192026 59.769,53.492026 59.769,48.356026 C59.769,44.678026 57.505,42.603026 55,41.726026 L55,41.726026 Z" id="Fill-1"></path>
        </g>
    </g><g transform="translate(19.926, 64), scale(0.75)" id="svgGroup" stroke-linecap="round" fill-rule="evenodd" font-size="9pt" stroke="#000" stroke-width="0.25mm" fill="#000" style="stroke:#000;stroke-width:0.25mm;fill:#000"><path d="M 15.003 2.202 L 14.155 2.202 A 1.466 1.466 0 0 0 14.105 1.809 A 1.066 1.066 0 0 0 13.786 1.29 A 1.211 1.211 0 0 0 13.316 1.033 Q 13.065 0.958 12.744 0.958 A 2.286 2.286 0 0 0 12.364 0.988 Q 12.162 1.022 12 1.095 A 1.101 1.101 0 0 0 11.771 1.233 A 0.892 0.892 0 0 0 11.426 1.887 A 1.267 1.267 0 0 0 11.421 1.995 A 0.806 0.806 0 0 0 11.689 2.6 A 1.134 1.134 0 0 0 11.753 2.656 A 1.562 1.562 0 0 0 11.991 2.813 Q 12.322 2.993 12.883 3.151 A 8.228 8.228 0 0 1 13.347 3.295 Q 13.582 3.377 13.777 3.464 A 3.297 3.297 0 0 1 14.131 3.645 A 2.342 2.342 0 0 1 14.469 3.889 Q 14.659 4.056 14.782 4.248 A 1.45 1.45 0 0 1 14.799 4.276 A 1.498 1.498 0 0 1 14.995 4.832 A 1.948 1.948 0 0 1 15.016 5.124 A 1.606 1.606 0 0 1 14.894 5.76 Q 14.748 6.101 14.43 6.354 A 1.886 1.886 0 0 1 14.41 6.37 Q 13.803 6.838 12.788 6.838 A 3.023 3.023 0 0 1 11.647 6.623 A 2.917 2.917 0 0 1 11.558 6.585 A 2.383 2.383 0 0 1 11.079 6.307 A 1.874 1.874 0 0 1 10.677 5.893 A 1.689 1.689 0 0 1 10.367 4.896 L 11.215 4.896 A 1.261 1.261 0 0 0 11.284 5.323 A 1.074 1.074 0 0 0 11.643 5.812 Q 12.028 6.113 12.644 6.144 A 2.87 2.87 0 0 0 12.788 6.148 A 2.628 2.628 0 0 0 13.175 6.121 Q 13.371 6.092 13.53 6.031 A 1.129 1.129 0 0 0 13.812 5.875 Q 14.168 5.603 14.168 5.133 A 1.074 1.074 0 0 0 14.125 4.822 A 0.816 0.816 0 0 0 13.838 4.406 Q 13.509 4.148 12.643 3.898 Q 11.558 3.586 11.063 3.131 Q 10.569 2.676 10.569 2.008 Q 10.569 1.252 11.173 0.758 A 2.121 2.121 0 0 1 12.064 0.335 A 3.087 3.087 0 0 1 12.744 0.264 A 2.913 2.913 0 0 1 13.404 0.336 A 2.372 2.372 0 0 1 13.92 0.519 A 2.051 2.051 0 0 1 14.451 0.889 A 1.834 1.834 0 0 1 14.719 1.222 A 1.798 1.798 0 0 1 15.003 2.202 Z M 9.009 6.75 L 6.741 3.775 L 5.959 4.588 L 5.959 6.75 L 5.115 6.75 L 5.115 0.352 L 5.959 0.352 L 5.959 3.516 L 8.802 0.352 L 9.822 0.352 L 7.304 3.177 L 10.02 6.75 L 9.009 6.75 Z M 3.617 3.103 L 3.617 3.792 L 0.844 3.792 L 0.844 6.06 L 4.065 6.06 L 4.065 6.75 L 0 6.75 L 0 0.352 L 4.021 0.352 L 4.021 1.046 L 0.844 1.046 L 0.844 3.103 L 3.617 3.103 Z M 22.184 4.72 L 23.032 4.72 A 3.016 3.016 0 0 1 22.871 5.416 A 2.099 2.099 0 0 1 22.282 6.286 Q 21.652 6.838 20.606 6.838 A 2.553 2.553 0 0 1 19.737 6.696 A 2.194 2.194 0 0 1 18.789 6.025 A 2.789 2.789 0 0 1 18.227 4.901 Q 18.121 4.484 18.107 3.992 A 5.262 5.262 0 0 1 18.105 3.85 L 18.105 3.234 A 4.251 4.251 0 0 1 18.175 2.445 A 3.229 3.229 0 0 1 18.424 1.666 A 2.539 2.539 0 0 1 18.879 0.99 A 2.26 2.26 0 0 1 19.327 0.626 A 2.415 2.415 0 0 1 20.353 0.281 A 3.027 3.027 0 0 1 20.681 0.264 A 2.962 2.962 0 0 1 21.387 0.343 A 2.065 2.065 0 0 1 22.315 0.833 A 2.16 2.16 0 0 1 22.91 1.795 A 3.086 3.086 0 0 1 23.032 2.408 L 22.184 2.408 Q 22.115 1.929 21.945 1.616 A 1.223 1.223 0 0 0 21.707 1.301 A 1.207 1.207 0 0 0 21.202 1.024 Q 21.014 0.971 20.791 0.961 A 2.396 2.396 0 0 0 20.681 0.958 A 1.753 1.753 0 0 0 20.102 1.049 A 1.463 1.463 0 0 0 19.413 1.556 A 1.989 1.989 0 0 0 19.099 2.175 Q 18.954 2.636 18.954 3.256 L 18.954 3.876 Q 18.954 4.917 19.389 5.533 A 1.38 1.38 0 0 0 20.387 6.135 A 1.814 1.814 0 0 0 20.606 6.148 A 2.497 2.497 0 0 0 21.013 6.117 Q 21.233 6.08 21.409 6.002 A 1.155 1.155 0 0 0 21.685 5.829 Q 22.061 5.511 22.184 4.72 Z M 34.326 6.75 L 34.308 6.28 A 1.526 1.526 0 0 1 33.482 6.775 Q 33.232 6.836 32.934 6.838 A 2.996 2.996 0 0 1 32.915 6.838 A 2.086 2.086 0 0 1 32.455 6.79 Q 32.024 6.693 31.757 6.396 A 1.41 1.41 0 0 1 31.474 5.899 Q 31.357 5.556 31.355 5.089 L 31.355 1.995 L 32.168 1.995 L 32.168 5.067 Q 32.168 6.037 32.876 6.137 A 1.229 1.229 0 0 0 33.047 6.148 A 1.927 1.927 0 0 0 33.498 6.099 Q 34.06 5.964 34.286 5.454 L 34.286 1.995 L 35.099 1.995 L 35.099 6.75 L 34.326 6.75 Z M 36.136 4.395 L 36.136 4.333 A 3.762 3.762 0 0 1 36.203 3.602 Q 36.291 3.16 36.493 2.812 A 2.148 2.148 0 0 1 36.655 2.573 Q 37.173 1.907 38.013 1.907 A 1.964 1.964 0 0 1 38.611 1.994 A 1.559 1.559 0 0 1 39.335 2.479 L 39.335 0 L 40.148 0 L 40.148 6.75 L 39.401 6.75 L 39.362 6.24 Q 38.874 6.838 38.004 6.838 A 1.6 1.6 0 0 1 36.783 6.31 A 2.078 2.078 0 0 1 36.657 6.161 A 2.405 2.405 0 0 1 36.232 5.255 Q 36.148 4.912 36.138 4.51 A 4.425 4.425 0 0 1 36.136 4.395 Z M 24.939 0 L 24.939 6.75 L 24.126 6.75 L 24.126 0 L 24.939 0 Z M 26.024 4.386 L 26.024 4.329 A 3.057 3.057 0 0 1 26.111 3.587 A 2.573 2.573 0 0 1 26.299 3.072 A 2.16 2.16 0 0 1 26.714 2.486 A 1.957 1.957 0 0 1 27.064 2.21 A 2.036 2.036 0 0 1 28.008 1.913 A 2.491 2.491 0 0 1 28.182 1.907 A 2.277 2.277 0 0 1 28.935 2.027 A 1.937 1.937 0 0 1 29.753 2.58 A 2.29 2.29 0 0 1 30.272 3.608 A 3.373 3.373 0 0 1 30.353 4.368 L 30.353 4.425 A 3.114 3.114 0 0 1 30.274 5.142 A 2.577 2.577 0 0 1 30.087 5.671 A 2.056 2.056 0 0 1 29.56 6.361 A 2.001 2.001 0 0 1 29.327 6.53 A 2.045 2.045 0 0 1 28.407 6.829 A 2.529 2.529 0 0 1 28.191 6.838 A 2.262 2.262 0 0 1 27.44 6.718 A 1.938 1.938 0 0 1 26.624 6.166 A 2.297 2.297 0 0 1 26.099 5.111 A 3.357 3.357 0 0 1 26.024 4.386 Z M 26.842 4.425 A 2.772 2.772 0 0 0 26.889 4.954 Q 26.95 5.264 27.087 5.51 A 1.545 1.545 0 0 0 27.209 5.695 Q 27.576 6.174 28.191 6.174 A 1.269 1.269 0 0 0 28.68 6.083 Q 28.96 5.967 29.162 5.706 A 1.471 1.471 0 0 0 29.175 5.689 A 1.648 1.648 0 0 0 29.43 5.171 Q 29.499 4.945 29.525 4.672 A 3.655 3.655 0 0 0 29.54 4.329 A 2.687 2.687 0 0 0 29.489 3.789 Q 29.421 3.459 29.264 3.2 A 1.586 1.586 0 0 0 29.169 3.061 A 1.231 1.231 0 0 0 28.754 2.705 Q 28.501 2.575 28.182 2.575 Q 27.592 2.575 27.226 3.035 A 1.515 1.515 0 0 0 27.211 3.054 A 1.589 1.589 0 0 0 26.959 3.552 Q 26.889 3.772 26.861 4.039 A 3.676 3.676 0 0 0 26.842 4.425 Z M 39.335 5.454 L 39.335 3.27 A 1.375 1.375 0 0 0 39.024 2.874 Q 38.7 2.597 38.215 2.597 A 1.238 1.238 0 0 0 37.788 2.668 A 1.068 1.068 0 0 0 37.283 3.059 A 1.51 1.51 0 0 0 37.074 3.484 Q 37.008 3.689 36.977 3.939 A 3.955 3.955 0 0 0 36.949 4.425 A 3.162 3.162 0 0 0 36.985 4.918 Q 37.026 5.178 37.114 5.389 A 1.474 1.474 0 0 0 37.283 5.691 A 1.06 1.06 0 0 0 38.045 6.139 A 1.391 1.391 0 0 0 38.206 6.148 Q 38.979 6.148 39.335 5.454 Z" vector-effect="non-scaling-stroke"/></g>
</svg>