<?xml version="1.0" encoding="UTF-8"?>
<svg width="80px" height="80px" viewBox="0 0 80 80" version="1.1" xmlns="http://www.w3.org/2000/svg" xmlns:xlink="http://www.w3.org/1999/xlink">
    <!-- Generator: Sketch 64 (93537) - https://sketch.com -->
    <title>Icon-Architecture/64/Arch_Amazon-Elastic-Container-Registry_64</title>
    <desc>Created with Sketch.</desc>
    
    <g id="Icon-Architecture/64/Arch_Amazon-Elastic-Container-Registry_64" stroke="none" stroke-width="1" fill="none" fill-rule="evenodd">
        
        <path transform="translate(0vw, 0vh), scale(.65)" d="M38.7880741,37.5776945 C38.2933845,37.8655125 37.9855777,38.4000317 37.9855777,38.973662 L37.9855777,66.7195186 L16.9987459,54.9841655 L16.9987459,27.7076428 L40.5569643,14.0588515 L61.484833,24.4283226 L38.7880741,37.5776945 Z M63.9203049,24.4022485 C63.9203049,23.8276153 63.6134974,23.2920933 63.0598448,22.9751927 L41.3464689,12.2146099 C40.8507799,11.9287976 40.2351662,11.9277948 39.7404766,12.2156128 L15.8024965,26.0840283 C15.3078069,26.3718463 15,26.9063655 15,27.4799958 L15,55.2158239 C15,55.7894542 15.3078069,56.3239734 15.8174871,56.6198142 L37.573836,68.7853901 C37.8216805,68.9287976 38.1005056,69 38.3783312,69 C38.6551575,69 38.9339826,68.9287976 39.1808277,68.7853901 C39.6765167,68.4985749 39.9843236,67.9640557 39.9843236,67.3894226 L39.9843236,39.201309 L63.1178084,25.798216 C63.6134974,25.5114008 63.9203049,24.9768817 63.9203049,24.4022485 L63.9203049,24.4022485 Z M63.9692742,55.0473451 L44.9811883,66.6613533 L44.9811883,56.2617967 L54.881976,49.872638 L54.9499334,49.424364 C54.9679221,49.3070305 54.9749177,49.3070305 54.9749177,48.7664942 L55.0058983,36.3602344 L64.0002547,31.1484218 L63.9692742,55.0473451 Z M65.1965042,29.0715191 C64.6998158,28.7816953 64.0842021,28.7826982 63.5885131,29.0715191 L54.0135209,34.6182835 C53.713709,34.7817481 53.0081517,35.1658398 53.0081517,35.9580914 L52.9761718,48.7173546 L43.8508975,54.606091 C43.3062392,54.9310145 42.9824424,55.4454766 42.9824424,55.9890214 L42.9824424,67.3081917 C42.9824424,67.8748021 43.2872511,68.3912699 43.7979307,68.6871107 C44.0647633,68.8405468 44.361577,68.9187691 44.6573914,68.9187691 C44.948209,68.9187691 45.2390265,68.8445582 45.5018616,68.692125 L65.1675223,56.6639396 C65.6622119,56.3761216 65.9680201,55.8416024 65.9680201,55.2709807 L66,30.4664837 C66,29.8928534 65.6921931,29.3583342 65.1965042,29.0715191 L65.1965042,29.0715191 Z" id="Amazon-Elastic-Container-Registry_Icon_64_Squid" fill="#000000"></path>
    </g><g id="svgGroup" stroke-linecap="round" fill-rule="evenodd" font-size="9pt" stroke="#000" stroke-width="0.25mm" fill="#000" style="stroke:#000;stroke-width:0.25mm;fill:#000"><path d="M 3.617 3.103 L 3.617 3.792 L 0.844 3.792 L 0.844 6.06 L 4.065 6.06 L 4.065 6.75 L 0 6.75 L 0 0.352 L 4.021 0.352 L 4.021 1.046 L 0.844 1.046 L 0.844 3.103 L 3.617 3.103 Z M 32.757 4.72 L 33.605 4.72 A 3.016 3.016 0 0 1 33.444 5.416 A 2.099 2.099 0 0 1 32.856 6.286 Q 32.225 6.838 31.179 6.838 A 2.553 2.553 0 0 1 30.31 6.696 A 2.194 2.194 0 0 1 29.362 6.025 A 2.789 2.789 0 0 1 28.8 4.901 Q 28.694 4.484 28.681 3.992 A 5.262 5.262 0 0 1 28.679 3.85 L 28.679 3.234 A 4.251 4.251 0 0 1 28.749 2.445 A 3.229 3.229 0 0 1 28.997 1.666 A 2.539 2.539 0 0 1 29.453 0.99 A 2.26 2.26 0 0 1 29.9 0.626 A 2.415 2.415 0 0 1 30.926 0.281 A 3.027 3.027 0 0 1 31.254 0.264 A 2.962 2.962 0 0 1 31.96 0.343 A 2.065 2.065 0 0 1 32.889 0.833 A 2.16 2.16 0 0 1 33.483 1.795 A 3.086 3.086 0 0 1 33.605 2.408 L 32.757 2.408 Q 32.688 1.929 32.518 1.616 A 1.223 1.223 0 0 0 32.28 1.301 A 1.207 1.207 0 0 0 31.775 1.024 Q 31.588 0.971 31.364 0.961 A 2.396 2.396 0 0 0 31.254 0.958 A 1.753 1.753 0 0 0 30.676 1.049 A 1.463 1.463 0 0 0 29.986 1.556 A 1.989 1.989 0 0 0 29.672 2.175 Q 29.527 2.636 29.527 3.256 L 29.527 3.876 Q 29.527 4.917 29.962 5.533 A 1.38 1.38 0 0 0 30.96 6.135 A 1.814 1.814 0 0 0 31.179 6.148 A 2.497 2.497 0 0 0 31.587 6.117 Q 31.806 6.08 31.982 6.002 A 1.155 1.155 0 0 0 32.258 5.829 Q 32.634 5.511 32.757 4.72 Z M 15.605 3.393 L 14.788 3.393 Q 14.788 3.059 14.504 2.817 Q 14.221 2.575 13.79 2.575 Q 13.346 2.575 13.096 2.769 A 0.653 0.653 0 0 0 12.921 2.967 Q 12.848 3.098 12.845 3.263 A 0.771 0.771 0 0 0 12.845 3.274 A 0.588 0.588 0 0 0 12.875 3.467 A 0.48 0.48 0 0 0 13.078 3.718 A 1.093 1.093 0 0 0 13.228 3.796 Q 13.393 3.868 13.648 3.937 A 6.581 6.581 0 0 0 13.92 4.003 A 6.318 6.318 0 0 1 14.327 4.108 Q 14.664 4.208 14.906 4.329 A 1.901 1.901 0 0 1 15.162 4.481 Q 15.299 4.579 15.396 4.692 A 1.06 1.06 0 0 1 15.467 4.783 A 1.024 1.024 0 0 1 15.629 5.191 A 1.388 1.388 0 0 1 15.649 5.432 Q 15.649 6.069 15.139 6.453 Q 14.657 6.817 13.903 6.837 A 3.337 3.337 0 0 1 13.816 6.838 A 2.746 2.746 0 0 1 13.282 6.788 A 2.124 2.124 0 0 1 12.806 6.636 A 1.771 1.771 0 0 1 12.372 6.358 A 1.54 1.54 0 0 1 12.118 6.071 Q 11.87 5.708 11.87 5.287 L 12.683 5.287 A 0.932 0.932 0 0 0 12.756 5.612 A 0.827 0.827 0 0 0 13.01 5.935 A 1.072 1.072 0 0 0 13.412 6.128 Q 13.567 6.167 13.748 6.173 A 2.013 2.013 0 0 0 13.816 6.174 A 1.863 1.863 0 0 0 14.112 6.152 Q 14.274 6.126 14.405 6.07 A 0.941 0.941 0 0 0 14.557 5.988 A 0.689 0.689 0 0 0 14.721 5.837 A 0.554 0.554 0 0 0 14.836 5.489 A 0.698 0.698 0 0 0 14.8 5.258 A 0.581 0.581 0 0 0 14.588 4.977 A 1.05 1.05 0 0 0 14.419 4.878 Q 14.23 4.788 13.935 4.712 A 5.392 5.392 0 0 0 13.722 4.663 A 6.342 6.342 0 0 1 13.361 4.575 Q 12.991 4.473 12.742 4.346 Q 12.443 4.194 12.273 3.994 A 1.017 1.017 0 0 1 12.206 3.907 Q 12.032 3.652 12.032 3.3 A 1.206 1.206 0 0 1 12.431 2.396 A 1.694 1.694 0 0 1 12.527 2.312 A 1.752 1.752 0 0 1 13.31 1.952 A 2.471 2.471 0 0 1 13.79 1.907 A 2.559 2.559 0 0 1 14.354 1.966 A 1.757 1.757 0 0 1 15.102 2.325 Q 15.605 2.742 15.605 3.393 Z M 39.762 1.995 L 40.531 1.995 L 40.557 2.593 Q 41.093 1.918 41.953 1.907 A 2.234 2.234 0 0 1 41.981 1.907 A 1.905 1.905 0 0 1 42.614 2.004 Q 43.456 2.3 43.499 3.506 A 3.668 3.668 0 0 1 43.501 3.608 L 43.501 6.75 L 42.688 6.75 L 42.688 3.604 A 1.837 1.837 0 0 0 42.666 3.324 Q 42.616 3.017 42.453 2.843 Q 42.267 2.645 41.914 2.606 A 1.66 1.66 0 0 0 41.735 2.597 A 1.253 1.253 0 0 0 41.321 2.664 A 1.123 1.123 0 0 0 41.041 2.808 A 1.432 1.432 0 0 0 40.575 3.362 L 40.575 6.75 L 39.762 6.75 L 39.762 1.995 Z M 54.747 1.995 L 55.516 1.995 L 55.542 2.593 Q 56.079 1.918 56.939 1.907 A 2.234 2.234 0 0 1 56.966 1.907 A 1.905 1.905 0 0 1 57.6 2.004 Q 58.442 2.3 58.485 3.506 A 3.668 3.668 0 0 1 58.487 3.608 L 58.487 6.75 L 57.674 6.75 L 57.674 3.604 A 1.837 1.837 0 0 0 57.652 3.324 Q 57.601 3.017 57.439 2.843 Q 57.253 2.645 56.899 2.606 A 1.66 1.66 0 0 0 56.72 2.597 A 1.253 1.253 0 0 0 56.306 2.664 A 1.123 1.123 0 0 0 56.026 2.808 A 1.432 1.432 0 0 0 55.56 3.362 L 55.56 6.75 L 54.747 6.75 L 54.747 1.995 Z M 24.86 5.251 L 25.629 5.251 A 1.432 1.432 0 0 1 25.43 5.901 A 1.772 1.772 0 0 1 25.348 6.029 A 1.828 1.828 0 0 1 24.738 6.574 A 2.169 2.169 0 0 1 24.656 6.618 A 1.997 1.997 0 0 1 23.739 6.838 A 2.346 2.346 0 0 1 23.042 6.739 A 1.839 1.839 0 0 1 22.195 6.19 A 2.171 2.171 0 0 1 21.731 5.31 Q 21.621 4.909 21.621 4.417 L 21.621 4.28 A 3.24 3.24 0 0 1 21.685 3.624 A 2.57 2.57 0 0 1 21.876 3.045 A 2.008 2.008 0 0 1 22.316 2.431 A 1.892 1.892 0 0 1 22.608 2.206 A 1.943 1.943 0 0 1 23.364 1.934 A 2.529 2.529 0 0 1 23.735 1.907 A 2.196 2.196 0 0 1 24.383 1.999 A 1.786 1.786 0 0 1 25.064 2.386 A 1.693 1.693 0 0 1 25.623 3.535 A 2.239 2.239 0 0 1 25.629 3.63 L 24.86 3.63 Q 24.825 3.168 24.51 2.872 A 1.078 1.078 0 0 0 23.781 2.576 A 1.402 1.402 0 0 0 23.735 2.575 A 1.374 1.374 0 0 0 23.313 2.637 A 1.081 1.081 0 0 0 22.775 3.021 A 1.469 1.469 0 0 0 22.548 3.468 Q 22.482 3.674 22.454 3.923 A 3.514 3.514 0 0 0 22.434 4.311 L 22.434 4.465 Q 22.434 5.287 22.772 5.73 A 1.1 1.1 0 0 0 23.559 6.165 A 1.611 1.611 0 0 0 23.739 6.174 A 1.171 1.171 0 0 0 24.5 5.911 A 1.007 1.007 0 0 0 24.744 5.629 A 0.914 0.914 0 0 0 24.86 5.251 Z M 10.96 6.75 L 10.107 6.75 A 0.632 0.632 0 0 1 10.072 6.66 Q 10.041 6.562 10.016 6.41 A 3.997 3.997 0 0 1 9.993 6.249 Q 9.426 6.838 8.64 6.838 A 2.033 2.033 0 0 1 8.11 6.772 A 1.529 1.529 0 0 1 7.486 6.44 Q 7.036 6.042 7.036 5.432 Q 7.036 4.689 7.6 4.278 Q 8.165 3.867 9.189 3.867 L 9.98 3.867 L 9.98 3.494 A 1.152 1.152 0 0 0 9.944 3.199 A 0.828 0.828 0 0 0 9.725 2.815 Q 9.509 2.6 9.118 2.568 A 1.748 1.748 0 0 0 8.974 2.562 Q 8.539 2.562 8.244 2.782 Q 7.95 3.001 7.95 3.313 L 7.132 3.313 A 1.041 1.041 0 0 1 7.257 2.825 A 1.409 1.409 0 0 1 7.385 2.626 Q 7.638 2.294 8.071 2.101 A 2.249 2.249 0 0 1 8.846 1.913 A 2.669 2.669 0 0 1 9.022 1.907 A 2.65 2.65 0 0 1 9.539 1.955 Q 9.847 2.016 10.085 2.156 A 1.439 1.439 0 0 1 10.31 2.318 A 1.396 1.396 0 0 1 10.763 3.144 A 1.998 1.998 0 0 1 10.793 3.45 L 10.793 5.638 Q 10.793 6.073 10.867 6.39 A 1.707 1.707 0 0 0 10.96 6.68 L 10.96 6.75 Z M 51.456 6.75 L 50.603 6.75 A 0.632 0.632 0 0 1 50.568 6.66 Q 50.536 6.562 50.511 6.41 A 3.997 3.997 0 0 1 50.489 6.249 Q 49.922 6.838 49.135 6.838 A 2.033 2.033 0 0 1 48.606 6.772 A 1.529 1.529 0 0 1 47.982 6.44 Q 47.531 6.042 47.531 5.432 Q 47.531 4.689 48.096 4.278 Q 48.661 3.867 49.685 3.867 L 50.476 3.867 L 50.476 3.494 A 1.152 1.152 0 0 0 50.44 3.199 A 0.828 0.828 0 0 0 50.221 2.815 Q 50.004 2.6 49.614 2.568 A 1.748 1.748 0 0 0 49.469 2.562 Q 49.034 2.562 48.74 2.782 Q 48.445 3.001 48.445 3.313 L 47.628 3.313 A 1.041 1.041 0 0 1 47.753 2.825 A 1.409 1.409 0 0 1 47.881 2.626 Q 48.133 2.294 48.566 2.101 A 2.249 2.249 0 0 1 49.342 1.913 A 2.669 2.669 0 0 1 49.518 1.907 A 2.65 2.65 0 0 1 50.035 1.955 Q 50.342 2.016 50.581 2.156 A 1.439 1.439 0 0 1 50.805 2.318 A 1.396 1.396 0 0 1 51.259 3.144 A 1.998 1.998 0 0 1 51.289 3.45 L 51.289 5.638 Q 51.289 6.073 51.362 6.39 A 1.707 1.707 0 0 0 51.456 6.68 L 51.456 6.75 Z M 59.506 4.504 L 59.506 4.355 A 3.17 3.17 0 0 1 59.583 3.646 A 2.581 2.581 0 0 1 59.777 3.092 A 2.191 2.191 0 0 1 60.224 2.466 A 2.033 2.033 0 0 1 60.532 2.221 Q 61.018 1.907 61.585 1.907 A 2.254 2.254 0 0 1 62.198 1.986 A 1.639 1.639 0 0 1 63.026 2.518 Q 63.541 3.129 63.541 4.267 L 63.541 4.605 L 60.319 4.605 A 2.111 2.111 0 0 0 60.39 5.114 A 1.516 1.516 0 0 0 60.73 5.741 A 1.282 1.282 0 0 0 61.664 6.173 A 1.652 1.652 0 0 0 61.73 6.174 A 1.763 1.763 0 0 0 62.058 6.145 Q 62.282 6.103 62.459 5.999 A 1.827 1.827 0 0 0 62.968 5.551 A 2.068 2.068 0 0 0 62.982 5.533 L 63.479 5.919 A 1.926 1.926 0 0 1 62.079 6.811 A 2.749 2.749 0 0 1 61.686 6.838 A 2.394 2.394 0 0 1 60.935 6.725 A 1.974 1.974 0 0 1 60.113 6.203 Q 59.506 5.568 59.506 4.504 Z M 16.998 0.844 L 17.811 0.844 L 17.811 1.995 L 18.699 1.995 L 18.699 2.624 L 17.811 2.624 L 17.811 5.572 Q 17.811 5.858 17.93 6.001 Q 18.048 6.144 18.334 6.144 A 1.046 1.046 0 0 0 18.431 6.138 Q 18.534 6.129 18.674 6.101 A 4.024 4.024 0 0 0 18.721 6.091 L 18.721 6.75 A 2.463 2.463 0 0 1 18.288 6.829 A 2.157 2.157 0 0 1 18.097 6.838 Q 17.65 6.838 17.383 6.616 A 0.856 0.856 0 0 1 17.275 6.508 Q 17.047 6.238 17.007 5.78 A 2.351 2.351 0 0 1 16.998 5.572 L 16.998 2.624 L 16.132 2.624 L 16.132 1.995 L 16.998 1.995 L 16.998 0.844 Z M 45.018 0.844 L 45.831 0.844 L 45.831 1.995 L 46.718 1.995 L 46.718 2.624 L 45.831 2.624 L 45.831 5.572 Q 45.831 5.858 45.949 6.001 Q 46.068 6.144 46.354 6.144 A 1.046 1.046 0 0 0 46.451 6.138 Q 46.554 6.129 46.694 6.101 A 4.024 4.024 0 0 0 46.74 6.091 L 46.74 6.75 A 2.463 2.463 0 0 1 46.307 6.829 A 2.157 2.157 0 0 1 46.116 6.838 Q 45.669 6.838 45.402 6.616 A 0.856 0.856 0 0 1 45.294 6.508 Q 45.067 6.238 45.026 5.78 A 2.351 2.351 0 0 1 45.018 5.572 L 45.018 2.624 L 44.152 2.624 L 44.152 1.995 L 45.018 1.995 L 45.018 0.844 Z M 5.871 0 L 5.871 6.75 L 5.058 6.75 L 5.058 0 L 5.871 0 Z M 34.414 4.386 L 34.414 4.329 A 3.057 3.057 0 0 1 34.5 3.587 A 2.573 2.573 0 0 1 34.688 3.072 A 2.16 2.16 0 0 1 35.103 2.486 A 1.957 1.957 0 0 1 35.453 2.21 A 2.036 2.036 0 0 1 36.397 1.913 A 2.491 2.491 0 0 1 36.571 1.907 A 2.277 2.277 0 0 1 37.325 2.027 A 1.937 1.937 0 0 1 38.142 2.58 A 2.29 2.29 0 0 1 38.661 3.608 A 3.373 3.373 0 0 1 38.742 4.368 L 38.742 4.425 A 3.114 3.114 0 0 1 38.663 5.142 A 2.577 2.577 0 0 1 38.476 5.671 A 2.056 2.056 0 0 1 37.949 6.361 A 2.001 2.001 0 0 1 37.716 6.53 A 2.045 2.045 0 0 1 36.796 6.829 A 2.529 2.529 0 0 1 36.58 6.838 A 2.262 2.262 0 0 1 35.83 6.718 A 1.938 1.938 0 0 1 35.013 6.166 A 2.297 2.297 0 0 1 34.488 5.111 A 3.357 3.357 0 0 1 34.414 4.386 Z M 66.779 1.969 L 66.779 2.725 A 2.251 2.251 0 0 0 66.537 2.698 A 2.782 2.782 0 0 0 66.379 2.694 Q 65.602 2.694 65.31 3.338 A 1.445 1.445 0 0 0 65.294 3.375 L 65.294 6.75 L 64.481 6.75 L 64.481 1.995 L 65.272 1.995 L 65.285 2.544 Q 65.666 1.938 66.348 1.909 A 1.636 1.636 0 0 1 66.419 1.907 Q 66.656 1.907 66.779 1.969 Z M 20.531 1.995 L 20.531 6.75 L 19.718 6.75 L 19.718 1.995 L 20.531 1.995 Z M 53.446 1.995 L 53.446 6.75 L 52.633 6.75 L 52.633 1.995 L 53.446 1.995 Z M 35.231 4.425 A 2.772 2.772 0 0 0 35.278 4.954 Q 35.339 5.264 35.476 5.51 A 1.545 1.545 0 0 0 35.598 5.695 Q 35.965 6.174 36.58 6.174 A 1.269 1.269 0 0 0 37.069 6.083 Q 37.349 5.967 37.551 5.706 A 1.471 1.471 0 0 0 37.564 5.689 A 1.648 1.648 0 0 0 37.819 5.171 Q 37.888 4.945 37.914 4.672 A 3.655 3.655 0 0 0 37.929 4.329 A 2.687 2.687 0 0 0 37.878 3.789 Q 37.81 3.459 37.653 3.2 A 1.586 1.586 0 0 0 37.558 3.061 A 1.231 1.231 0 0 0 37.143 2.705 Q 36.89 2.575 36.571 2.575 Q 35.981 2.575 35.615 3.035 A 1.515 1.515 0 0 0 35.6 3.054 A 1.589 1.589 0 0 0 35.348 3.552 Q 35.278 3.772 35.25 4.039 A 3.676 3.676 0 0 0 35.231 4.425 Z M 9.98 5.418 L 9.98 4.443 L 9.343 4.443 Q 7.849 4.443 7.849 5.317 Q 7.849 5.7 8.104 5.915 A 0.893 0.893 0 0 0 8.517 6.108 A 1.259 1.259 0 0 0 8.758 6.13 A 1.429 1.429 0 0 0 9.483 5.933 A 1.335 1.335 0 0 0 9.779 5.705 A 1.108 1.108 0 0 0 9.98 5.418 Z M 50.476 5.418 L 50.476 4.443 L 49.838 4.443 Q 48.344 4.443 48.344 5.317 Q 48.344 5.7 48.599 5.915 A 0.893 0.893 0 0 0 49.013 6.108 A 1.259 1.259 0 0 0 49.254 6.13 A 1.429 1.429 0 0 0 49.979 5.933 A 1.335 1.335 0 0 0 50.275 5.705 A 1.108 1.108 0 0 0 50.476 5.418 Z M 60.346 3.938 L 62.728 3.938 L 62.728 3.876 Q 62.702 3.417 62.531 3.111 A 1.13 1.13 0 0 0 62.394 2.916 A 0.983 0.983 0 0 0 61.739 2.584 A 1.39 1.39 0 0 0 61.585 2.575 A 1.106 1.106 0 0 0 61.062 2.698 A 1.14 1.14 0 0 0 60.759 2.933 A 1.417 1.417 0 0 0 60.482 3.379 Q 60.409 3.563 60.369 3.785 A 2.741 2.741 0 0 0 60.346 3.938 Z M 19.652 0.734 Q 19.652 0.536 19.773 0.4 Q 19.885 0.274 20.097 0.264 A 0.783 0.783 0 0 1 20.131 0.264 Q 20.369 0.264 20.492 0.4 A 0.474 0.474 0 0 1 20.614 0.703 A 0.614 0.614 0 0 1 20.615 0.734 A 0.523 0.523 0 0 1 20.589 0.9 A 0.442 0.442 0 0 1 20.492 1.063 Q 20.379 1.184 20.171 1.194 A 0.803 0.803 0 0 1 20.131 1.195 Q 19.959 1.195 19.848 1.126 A 0.362 0.362 0 0 1 19.773 1.063 A 0.456 0.456 0 0 1 19.655 0.788 A 0.605 0.605 0 0 1 19.652 0.734 Z M 52.567 0.734 Q 52.567 0.536 52.688 0.4 Q 52.8 0.274 53.012 0.264 A 0.783 0.783 0 0 1 53.046 0.264 Q 53.284 0.264 53.407 0.4 A 0.474 0.474 0 0 1 53.529 0.703 A 0.614 0.614 0 0 1 53.53 0.734 A 0.523 0.523 0 0 1 53.505 0.9 A 0.442 0.442 0 0 1 53.407 1.063 Q 53.294 1.184 53.086 1.194 A 0.803 0.803 0 0 1 53.046 1.195 Q 52.874 1.195 52.763 1.126 A 0.362 0.362 0 0 1 52.688 1.063 A 0.456 0.456 0 0 1 52.57 0.788 A 0.605 0.605 0 0 1 52.567 0.734 Z" vector-effect="non-scaling-stroke"/></g><g transform="translate(6.610500000000002, 64), scale(0.75)" id="svgGroup" stroke-linecap="round" fill-rule="evenodd" font-size="9pt" stroke="#000" stroke-width="0.25mm" fill="#000" style="stroke:#000;stroke-width:0.25mm;fill:#000"><path d="M 3.74 6.486 L 2.351 3.898 L 0.848 3.898 L 0.848 6.486 L 0 6.486 L 0 0.088 L 2.118 0.088 A 3.809 3.809 0 0 1 2.76 0.138 Q 3.102 0.197 3.376 0.324 A 1.789 1.789 0 0 1 3.781 0.58 A 1.588 1.588 0 0 1 4.307 1.469 A 2.453 2.453 0 0 1 4.364 2.013 A 1.864 1.864 0 0 1 4.273 2.604 A 1.64 1.64 0 0 1 4.041 3.054 A 1.849 1.849 0 0 1 3.382 3.611 A 2.342 2.342 0 0 1 3.142 3.718 L 4.645 6.434 L 4.645 6.486 L 3.74 6.486 Z M 13.228 2.259 L 13.267 1.731 L 14.01 1.731 L 14.01 6.372 A 2.511 2.511 0 0 1 13.939 6.985 A 1.738 1.738 0 0 1 13.463 7.827 A 1.834 1.834 0 0 1 12.533 8.306 A 2.671 2.671 0 0 1 11.993 8.358 A 2.446 2.446 0 0 1 10.986 8.139 A 2.003 2.003 0 0 1 10.576 7.897 A 1.563 1.563 0 0 1 10.235 7.537 L 10.657 7.049 A 1.889 1.889 0 0 0 11.091 7.449 A 1.514 1.514 0 0 0 11.936 7.695 A 1.695 1.695 0 0 0 12.313 7.655 Q 12.581 7.594 12.775 7.438 A 1.037 1.037 0 0 0 12.861 7.361 A 1.09 1.09 0 0 0 13.138 6.868 Q 13.185 6.695 13.191 6.489 A 2.134 2.134 0 0 0 13.192 6.42 L 13.192 6.012 A 1.601 1.601 0 0 1 12.14 6.558 A 2.279 2.279 0 0 1 11.861 6.574 A 1.672 1.672 0 0 1 11.106 6.406 Q 10.784 6.246 10.534 5.933 A 2.14 2.14 0 0 1 10.51 5.902 A 2.316 2.316 0 0 1 10.126 5.122 Q 9.993 4.658 9.993 4.069 Q 9.993 3.208 10.302 2.62 A 2.096 2.096 0 0 1 10.507 2.301 Q 11.021 1.644 11.87 1.644 A 1.971 1.971 0 0 1 12.468 1.73 A 1.55 1.55 0 0 1 13.228 2.259 Z M 20.958 3.129 L 20.14 3.129 Q 20.14 2.795 19.857 2.553 Q 19.573 2.312 19.143 2.312 Q 18.699 2.312 18.448 2.505 A 0.653 0.653 0 0 0 18.273 2.704 Q 18.2 2.835 18.198 3 A 0.771 0.771 0 0 0 18.198 3.01 A 0.588 0.588 0 0 0 18.228 3.203 A 0.48 0.48 0 0 0 18.431 3.454 A 1.093 1.093 0 0 0 18.581 3.533 Q 18.745 3.605 19.001 3.673 A 6.581 6.581 0 0 0 19.272 3.74 A 6.318 6.318 0 0 1 19.68 3.844 Q 20.017 3.944 20.259 4.065 A 1.901 1.901 0 0 1 20.515 4.217 Q 20.652 4.315 20.749 4.429 A 1.06 1.06 0 0 1 20.819 4.52 A 1.024 1.024 0 0 1 20.981 4.927 A 1.388 1.388 0 0 1 21.001 5.168 Q 21.001 5.805 20.492 6.19 Q 20.009 6.554 19.255 6.573 A 3.337 3.337 0 0 1 19.169 6.574 A 2.746 2.746 0 0 1 18.635 6.524 A 2.124 2.124 0 0 1 18.158 6.372 A 1.771 1.771 0 0 1 17.724 6.094 A 1.54 1.54 0 0 1 17.47 5.807 Q 17.222 5.445 17.222 5.023 L 18.035 5.023 A 0.932 0.932 0 0 0 18.109 5.348 A 0.827 0.827 0 0 0 18.363 5.671 A 1.072 1.072 0 0 0 18.765 5.864 Q 18.919 5.903 19.101 5.91 A 2.013 2.013 0 0 0 19.169 5.911 A 1.863 1.863 0 0 0 19.465 5.889 Q 19.626 5.863 19.758 5.806 A 0.941 0.941 0 0 0 19.909 5.724 A 0.689 0.689 0 0 0 20.074 5.573 A 0.554 0.554 0 0 0 20.188 5.225 A 0.698 0.698 0 0 0 20.152 4.994 A 0.581 0.581 0 0 0 19.94 4.713 A 1.05 1.05 0 0 0 19.771 4.615 Q 19.583 4.524 19.288 4.449 A 5.392 5.392 0 0 0 19.074 4.399 A 6.342 6.342 0 0 1 18.713 4.311 Q 18.344 4.209 18.094 4.083 Q 17.796 3.93 17.625 3.731 A 1.017 1.017 0 0 1 17.558 3.643 Q 17.385 3.388 17.385 3.037 A 1.206 1.206 0 0 1 17.784 2.132 A 1.694 1.694 0 0 1 17.879 2.048 A 1.752 1.752 0 0 1 18.662 1.688 A 2.471 2.471 0 0 1 19.143 1.644 A 2.559 2.559 0 0 1 19.706 1.702 A 1.757 1.757 0 0 1 20.454 2.061 Q 20.958 2.479 20.958 3.129 Z M 28.494 1.731 L 29.681 5.295 L 30.788 1.731 L 31.658 1.731 L 29.747 7.22 Q 29.303 8.407 28.336 8.407 L 28.182 8.394 L 27.879 8.336 L 27.879 7.677 L 28.099 7.695 Q 28.379 7.695 28.575 7.618 A 0.75 0.75 0 0 0 28.742 7.528 A 0.749 0.749 0 0 0 28.902 7.366 Q 29.021 7.207 29.111 6.951 A 2.575 2.575 0 0 0 29.123 6.917 L 29.303 6.434 L 27.606 1.731 L 28.494 1.731 Z M 5.212 4.241 L 5.212 4.091 A 3.17 3.17 0 0 1 5.288 3.382 A 2.581 2.581 0 0 1 5.482 2.828 A 2.191 2.191 0 0 1 5.93 2.202 A 2.033 2.033 0 0 1 6.238 1.958 Q 6.724 1.644 7.291 1.644 A 2.254 2.254 0 0 1 7.904 1.722 A 1.639 1.639 0 0 1 8.732 2.254 Q 9.246 2.865 9.246 4.003 L 9.246 4.342 L 6.025 4.342 A 2.111 2.111 0 0 0 6.096 4.85 A 1.516 1.516 0 0 0 6.436 5.478 A 1.282 1.282 0 0 0 7.37 5.909 A 1.652 1.652 0 0 0 7.436 5.911 A 1.763 1.763 0 0 0 7.764 5.882 Q 7.988 5.839 8.165 5.735 A 1.827 1.827 0 0 0 8.674 5.287 A 2.068 2.068 0 0 0 8.688 5.269 L 9.185 5.656 A 1.926 1.926 0 0 1 7.785 6.547 A 2.749 2.749 0 0 1 7.392 6.574 A 2.394 2.394 0 0 1 6.64 6.461 A 1.974 1.974 0 0 1 5.818 5.939 Q 5.212 5.304 5.212 4.241 Z M 22.351 0.58 L 23.164 0.58 L 23.164 1.731 L 24.051 1.731 L 24.051 2.36 L 23.164 2.36 L 23.164 5.309 Q 23.164 5.594 23.282 5.737 Q 23.401 5.88 23.687 5.88 A 1.046 1.046 0 0 0 23.784 5.875 Q 23.887 5.865 24.027 5.837 A 4.024 4.024 0 0 0 24.073 5.827 L 24.073 6.486 A 2.463 2.463 0 0 1 23.64 6.566 A 2.157 2.157 0 0 1 23.449 6.574 Q 23.002 6.574 22.735 6.352 A 0.856 0.856 0 0 1 22.627 6.245 Q 22.4 5.974 22.359 5.516 A 2.351 2.351 0 0 1 22.351 5.309 L 22.351 2.36 L 21.485 2.36 L 21.485 1.731 L 22.351 1.731 L 22.351 0.58 Z M 27.299 1.705 L 27.299 2.461 A 2.251 2.251 0 0 0 27.056 2.435 A 2.782 2.782 0 0 0 26.899 2.43 Q 26.121 2.43 25.83 3.074 A 1.445 1.445 0 0 0 25.813 3.111 L 25.813 6.486 L 25 6.486 L 25 1.731 L 25.792 1.731 L 25.805 2.281 Q 26.185 1.675 26.868 1.645 A 1.636 1.636 0 0 1 26.938 1.644 Q 27.176 1.644 27.299 1.705 Z M 16.119 1.731 L 16.119 6.486 L 15.306 6.486 L 15.306 1.731 L 16.119 1.731 Z M 13.192 5.186 L 13.192 3.015 A 1.439 1.439 0 0 0 12.891 2.627 Q 12.588 2.356 12.147 2.335 A 1.578 1.578 0 0 0 12.072 2.334 Q 11.48 2.334 11.146 2.793 A 1.51 1.51 0 0 0 10.935 3.221 Q 10.87 3.425 10.838 3.676 A 3.955 3.955 0 0 0 10.811 4.162 Q 10.811 4.966 11.14 5.425 Q 11.47 5.884 12.063 5.884 A 1.32 1.32 0 0 0 12.573 5.79 Q 12.964 5.628 13.192 5.186 Z M 0.848 0.782 L 0.848 3.208 L 2.145 3.208 Q 2.685 3.208 3.035 2.968 A 1.174 1.174 0 0 0 3.144 2.883 A 1.069 1.069 0 0 0 3.51 2.146 A 1.486 1.486 0 0 0 3.516 2.013 Q 3.516 1.47 3.22 1.159 A 1 1 0 0 0 3.162 1.103 Q 2.808 0.787 2.14 0.782 L 0.848 0.782 Z M 6.051 3.674 L 8.433 3.674 L 8.433 3.612 Q 8.407 3.153 8.236 2.848 A 1.13 1.13 0 0 0 8.099 2.652 A 0.983 0.983 0 0 0 7.445 2.32 A 1.39 1.39 0 0 0 7.291 2.312 A 1.106 1.106 0 0 0 6.768 2.435 A 1.14 1.14 0 0 0 6.464 2.67 A 1.417 1.417 0 0 0 6.188 3.116 Q 6.114 3.3 6.074 3.522 A 2.741 2.741 0 0 0 6.051 3.674 Z M 15.24 0.47 Q 15.24 0.272 15.361 0.136 Q 15.473 0.01 15.685 0.001 A 0.783 0.783 0 0 1 15.719 0 Q 15.957 0 16.08 0.136 A 0.474 0.474 0 0 1 16.202 0.44 A 0.614 0.614 0 0 1 16.203 0.47 A 0.523 0.523 0 0 1 16.177 0.636 A 0.442 0.442 0 0 1 16.08 0.8 Q 15.967 0.92 15.759 0.931 A 0.803 0.803 0 0 1 15.719 0.932 Q 15.547 0.932 15.436 0.862 A 0.362 0.362 0 0 1 15.361 0.8 A 0.456 0.456 0 0 1 15.243 0.525 A 0.605 0.605 0 0 1 15.24 0.47 Z" vector-effect="non-scaling-stroke"/></g>
</svg>