<?xml version="1.0" encoding="UTF-8"?>
<svg width="48px" height="48px" viewBox="0 0 48 48" version="1.1" xmlns="http://www.w3.org/2000/svg" xmlns:xlink="http://www.w3.org/1999/xlink">
    <title>Icon-Resource/Analytics/Res_CloudSearch_Search-Documents_48_Light</title>
    <g id="Icon-Resource/Analytics/Res_CloudSearch_Search-Documents_48" stroke="none" stroke-width="1" fill="none" fill-rule="evenodd">
        <path transform="translate(12.000000, 8.000000), scale(.65)" d="M41.406,14.6378 L38.823,16.5748 L41.406,18.5128 L41.406,14.6378 Z M43.406,12.6378 L43.406,20.5128 C43.406,20.8918 43.192,21.2378 42.853,21.4078 C42.712,21.4778 42.558,21.5128 42.406,21.5128 C42.193,21.5128 41.982,21.4448 41.806,21.3128 L36.557,17.3748 C36.305,17.1868 36.157,16.8898 36.157,16.5748 C36.157,16.2608 36.305,15.9638 36.557,15.7758 L41.806,11.8378 C42.108,11.6108 42.513,11.5738 42.853,11.7428 C43.192,11.9128 43.406,12.2588 43.406,12.6378 L43.406,12.6378 Z M9.243,16.5748 L6.66,14.6378 L6.66,18.5128 L9.243,16.5748 Z M11.51,17.3748 L6.26,21.3128 C6.084,21.4448 5.872,21.5128 5.66,21.5128 C5.508,21.5128 5.354,21.4778 5.213,21.4078 C4.874,21.2378 4.66,20.8918 4.66,20.5128 L4.66,12.6378 C4.66,12.2588 4.874,11.9128 5.213,11.7428 C5.552,11.5738 5.957,11.6108 6.26,11.8378 L11.51,15.7758 C11.761,15.9638 11.91,16.2608 11.91,16.5748 C11.91,16.8898 11.761,17.1868 11.51,17.3748 L11.51,17.3748 Z M12.66,40.7628 L35.41,40.7628 L35.41,38.7628 L12.66,38.7628 L12.66,40.7628 Z M12.66,35.5128 L35.41,35.5128 L35.41,33.5128 L12.66,33.5128 L12.66,35.5128 Z M12.66,30.2628 L35.41,30.2628 L35.41,28.2628 L12.66,28.2628 L12.66,30.2628 Z M12.66,25.0128 L35.41,25.0128 L35.41,23.0128 L12.66,23.0128 L12.66,25.0128 Z M12.66,19.7628 L35.41,19.7628 L35.41,17.7628 L12.66,17.7628 L12.66,19.7628 Z M12.769,14.5128 L35.41,14.5128 L35.41,12.5128 L12.769,12.5128 L12.769,14.5128 Z M12.66,9.2628 L35.41,9.2628 L35.41,7.2628 L12.66,7.2628 L12.66,9.2628 Z M37.91,44.0128 L10.16,44.0128 L10.16,21.3878 L8.16,21.3878 L8.16,46.0128 L39.91,46.0128 L39.91,21.3878 L37.91,21.3878 L37.91,44.0128 Z M10.16,11.7628 L8.16,11.7628 L8.16,2.0128 L39.91,2.0128 L39.91,11.7628 L37.91,11.7628 L37.91,4.0128 L10.16,4.0128 L10.16,11.7628 Z" id="Icon-Resource/48/CloudSearch-Search_Documents" fill="#000000"></path>
    </g><g transform="translate(25, 83)" id="svgGroup" stroke-linecap="round" fill-rule="evenodd" font-size="9pt" stroke="#000" stroke-width="0.25mm" fill="#000" style="stroke:#000;stroke-width:0.25mm;fill:#000"><path d="M 27.677 2.202 L 26.829 2.202 A 1.466 1.466 0 0 0 26.779 1.809 A 1.066 1.066 0 0 0 26.46 1.29 A 1.211 1.211 0 0 0 25.99 1.033 Q 25.738 0.958 25.418 0.958 A 2.286 2.286 0 0 0 25.038 0.988 Q 24.836 1.022 24.674 1.095 A 1.101 1.101 0 0 0 24.445 1.233 A 0.892 0.892 0 0 0 24.1 1.887 A 1.267 1.267 0 0 0 24.095 1.995 A 0.806 0.806 0 0 0 24.363 2.6 A 1.134 1.134 0 0 0 24.427 2.656 A 1.562 1.562 0 0 0 24.665 2.813 Q 24.996 2.993 25.556 3.151 A 8.228 8.228 0 0 1 26.021 3.295 Q 26.256 3.377 26.451 3.464 A 3.297 3.297 0 0 1 26.804 3.645 A 2.342 2.342 0 0 1 27.143 3.889 Q 27.333 4.056 27.455 4.248 A 1.45 1.45 0 0 1 27.472 4.276 A 1.498 1.498 0 0 1 27.669 4.832 A 1.948 1.948 0 0 1 27.69 5.124 A 1.606 1.606 0 0 1 27.568 5.76 Q 27.422 6.101 27.104 6.354 A 1.886 1.886 0 0 1 27.084 6.37 Q 26.477 6.838 25.462 6.838 A 3.023 3.023 0 0 1 24.321 6.623 A 2.917 2.917 0 0 1 24.231 6.585 A 2.383 2.383 0 0 1 23.753 6.307 A 1.874 1.874 0 0 1 23.35 5.893 A 1.689 1.689 0 0 1 23.041 4.896 L 23.889 4.896 A 1.261 1.261 0 0 0 23.958 5.323 A 1.074 1.074 0 0 0 24.317 5.812 Q 24.702 6.113 25.318 6.144 A 2.87 2.87 0 0 0 25.462 6.148 A 2.628 2.628 0 0 0 25.849 6.121 Q 26.045 6.092 26.204 6.031 A 1.129 1.129 0 0 0 26.486 5.875 Q 26.842 5.603 26.842 5.133 A 1.074 1.074 0 0 0 26.799 4.822 A 0.816 0.816 0 0 0 26.512 4.406 Q 26.183 4.148 25.317 3.898 Q 24.231 3.586 23.737 3.131 Q 23.243 2.676 23.243 2.008 Q 23.243 1.252 23.847 0.758 A 2.121 2.121 0 0 1 24.737 0.335 A 3.087 3.087 0 0 1 25.418 0.264 A 2.913 2.913 0 0 1 26.078 0.336 A 2.372 2.372 0 0 1 26.594 0.519 A 2.051 2.051 0 0 1 27.125 0.889 A 1.834 1.834 0 0 1 27.393 1.222 A 1.798 1.798 0 0 1 27.677 2.202 Z M 57.538 2.202 L 56.69 2.202 A 1.466 1.466 0 0 0 56.64 1.809 A 1.066 1.066 0 0 0 56.32 1.29 A 1.211 1.211 0 0 0 55.851 1.033 Q 55.599 0.958 55.279 0.958 A 2.286 2.286 0 0 0 54.899 0.988 Q 54.697 1.022 54.535 1.095 A 1.101 1.101 0 0 0 54.305 1.233 A 0.892 0.892 0 0 0 53.961 1.887 A 1.267 1.267 0 0 0 53.956 1.995 A 0.806 0.806 0 0 0 54.224 2.6 A 1.134 1.134 0 0 0 54.288 2.656 A 1.562 1.562 0 0 0 54.526 2.813 Q 54.856 2.993 55.417 3.151 A 8.228 8.228 0 0 1 55.882 3.295 Q 56.117 3.377 56.312 3.464 A 3.297 3.297 0 0 1 56.665 3.645 A 2.342 2.342 0 0 1 57.004 3.889 Q 57.194 4.056 57.316 4.248 A 1.45 1.45 0 0 1 57.333 4.276 A 1.498 1.498 0 0 1 57.53 4.832 A 1.948 1.948 0 0 1 57.551 5.124 A 1.606 1.606 0 0 1 57.428 5.76 Q 57.283 6.101 56.965 6.354 A 1.886 1.886 0 0 1 56.944 6.37 Q 56.338 6.838 55.323 6.838 A 3.023 3.023 0 0 1 54.182 6.623 A 2.917 2.917 0 0 1 54.092 6.585 A 2.383 2.383 0 0 1 53.614 6.307 A 1.874 1.874 0 0 1 53.211 5.893 A 1.689 1.689 0 0 1 52.901 4.896 L 53.75 4.896 A 1.261 1.261 0 0 0 53.819 5.323 A 1.074 1.074 0 0 0 54.178 5.812 Q 54.563 6.113 55.179 6.144 A 2.87 2.87 0 0 0 55.323 6.148 A 2.628 2.628 0 0 0 55.71 6.121 Q 55.906 6.092 56.065 6.031 A 1.129 1.129 0 0 0 56.347 5.875 Q 56.703 5.603 56.703 5.133 A 1.074 1.074 0 0 0 56.66 4.822 A 0.816 0.816 0 0 0 56.373 4.406 Q 56.044 4.148 55.178 3.898 Q 54.092 3.586 53.598 3.131 Q 53.104 2.676 53.104 2.008 Q 53.104 1.252 53.708 0.758 A 2.121 2.121 0 0 1 54.598 0.335 A 3.087 3.087 0 0 1 55.279 0.264 A 2.913 2.913 0 0 1 55.939 0.336 A 2.372 2.372 0 0 1 56.454 0.519 A 2.051 2.051 0 0 1 56.985 0.889 A 1.834 1.834 0 0 1 57.254 1.222 A 1.798 1.798 0 0 1 57.538 2.202 Z M 4.078 4.72 L 4.926 4.72 A 3.016 3.016 0 0 1 4.765 5.416 A 2.099 2.099 0 0 1 4.177 6.286 Q 3.546 6.838 2.501 6.838 A 2.553 2.553 0 0 1 1.631 6.696 A 2.194 2.194 0 0 1 0.683 6.025 A 2.789 2.789 0 0 1 0.122 4.901 Q 0.015 4.484 0.002 3.992 A 5.262 5.262 0 0 1 0 3.85 L 0 3.234 A 4.251 4.251 0 0 1 0.07 2.445 A 3.229 3.229 0 0 1 0.319 1.666 A 2.539 2.539 0 0 1 0.774 0.99 A 2.26 2.26 0 0 1 1.222 0.626 A 2.415 2.415 0 0 1 2.248 0.281 A 3.027 3.027 0 0 1 2.575 0.264 A 2.962 2.962 0 0 1 3.281 0.343 A 2.065 2.065 0 0 1 4.21 0.833 A 2.16 2.16 0 0 1 4.805 1.795 A 3.086 3.086 0 0 1 4.926 2.408 L 4.078 2.408 Q 4.009 1.929 3.84 1.616 A 1.223 1.223 0 0 0 3.601 1.301 A 1.207 1.207 0 0 0 3.096 1.024 Q 2.909 0.971 2.686 0.961 A 2.396 2.396 0 0 0 2.575 0.958 A 1.753 1.753 0 0 0 1.997 1.049 A 1.463 1.463 0 0 0 1.307 1.556 A 1.989 1.989 0 0 0 0.993 2.175 Q 0.848 2.636 0.848 3.256 L 0.848 3.876 Q 0.848 4.917 1.283 5.533 A 1.38 1.38 0 0 0 2.282 6.135 A 1.814 1.814 0 0 0 2.501 6.148 A 2.497 2.497 0 0 0 2.908 6.117 Q 3.127 6.08 3.303 6.002 A 1.155 1.155 0 0 0 3.579 5.829 Q 3.955 5.511 4.078 4.72 Z M 46.793 0 L 46.793 2.571 A 1.767 1.767 0 0 1 47.459 2.053 A 1.832 1.832 0 0 1 48.199 1.907 A 1.905 1.905 0 0 1 48.833 2.004 Q 49.675 2.3 49.718 3.506 A 3.668 3.668 0 0 1 49.72 3.608 L 49.72 6.75 L 48.907 6.75 L 48.907 3.604 A 1.837 1.837 0 0 0 48.885 3.324 Q 48.834 3.017 48.672 2.843 Q 48.486 2.645 48.132 2.606 A 1.66 1.66 0 0 0 47.953 2.597 A 1.253 1.253 0 0 0 47.539 2.664 A 1.123 1.123 0 0 0 47.259 2.808 A 1.432 1.432 0 0 0 46.793 3.362 L 46.793 6.75 L 45.98 6.75 L 45.98 0 L 46.793 0 Z M 76.654 0 L 76.654 2.571 A 1.767 1.767 0 0 1 77.32 2.053 A 1.832 1.832 0 0 1 78.06 1.907 A 1.905 1.905 0 0 1 78.694 2.004 Q 79.535 2.3 79.578 3.506 A 3.668 3.668 0 0 1 79.581 3.608 L 79.581 6.75 L 78.768 6.75 L 78.768 3.604 A 1.837 1.837 0 0 0 78.745 3.324 Q 78.695 3.017 78.533 2.843 Q 78.346 2.645 77.993 2.606 A 1.66 1.66 0 0 0 77.814 2.597 A 1.253 1.253 0 0 0 77.4 2.664 A 1.123 1.123 0 0 0 77.12 2.808 A 1.432 1.432 0 0 0 76.654 3.362 L 76.654 6.75 L 75.841 6.75 L 75.841 0 L 76.654 0 Z M 16.22 6.75 L 16.203 6.28 A 1.526 1.526 0 0 1 15.377 6.775 Q 15.126 6.836 14.829 6.838 A 2.996 2.996 0 0 1 14.81 6.838 A 2.086 2.086 0 0 1 14.35 6.79 Q 13.919 6.693 13.652 6.396 A 1.41 1.41 0 0 1 13.369 5.899 Q 13.252 5.556 13.25 5.089 L 13.25 1.995 L 14.063 1.995 L 14.063 5.067 Q 14.063 6.037 14.77 6.137 A 1.229 1.229 0 0 0 14.941 6.148 A 1.927 1.927 0 0 0 15.392 6.099 Q 15.955 5.964 16.181 5.454 L 16.181 1.995 L 16.994 1.995 L 16.994 6.75 L 16.22 6.75 Z M 44.297 5.251 L 45.066 5.251 A 1.432 1.432 0 0 1 44.867 5.901 A 1.772 1.772 0 0 1 44.785 6.029 A 1.828 1.828 0 0 1 44.175 6.574 A 2.169 2.169 0 0 1 44.093 6.618 A 1.997 1.997 0 0 1 43.176 6.838 A 2.346 2.346 0 0 1 42.479 6.739 A 1.839 1.839 0 0 1 41.632 6.19 A 2.171 2.171 0 0 1 41.168 5.31 Q 41.058 4.909 41.058 4.417 L 41.058 4.28 A 3.24 3.24 0 0 1 41.122 3.624 A 2.57 2.57 0 0 1 41.313 3.045 A 2.008 2.008 0 0 1 41.753 2.431 A 1.892 1.892 0 0 1 42.045 2.206 A 1.943 1.943 0 0 1 42.801 1.934 A 2.529 2.529 0 0 1 43.172 1.907 A 2.196 2.196 0 0 1 43.82 1.999 A 1.786 1.786 0 0 1 44.501 2.386 A 1.693 1.693 0 0 1 45.06 3.535 A 2.239 2.239 0 0 1 45.066 3.63 L 44.297 3.63 Q 44.262 3.168 43.948 2.872 A 1.078 1.078 0 0 0 43.218 2.576 A 1.402 1.402 0 0 0 43.172 2.575 A 1.374 1.374 0 0 0 42.75 2.637 A 1.081 1.081 0 0 0 42.212 3.021 A 1.469 1.469 0 0 0 41.985 3.468 Q 41.919 3.674 41.891 3.923 A 3.514 3.514 0 0 0 41.871 4.311 L 41.871 4.465 Q 41.871 5.287 42.21 5.73 A 1.1 1.1 0 0 0 42.996 6.165 A 1.611 1.611 0 0 0 43.176 6.174 A 1.171 1.171 0 0 0 43.937 5.911 A 1.007 1.007 0 0 0 44.181 5.629 A 0.914 0.914 0 0 0 44.297 5.251 Z M 74.158 5.251 L 74.927 5.251 A 1.432 1.432 0 0 1 74.728 5.901 A 1.772 1.772 0 0 1 74.646 6.029 A 1.828 1.828 0 0 1 74.036 6.574 A 2.169 2.169 0 0 1 73.953 6.618 A 1.997 1.997 0 0 1 73.037 6.838 A 2.346 2.346 0 0 1 72.34 6.739 A 1.839 1.839 0 0 1 71.492 6.19 A 2.171 2.171 0 0 1 71.029 5.31 Q 70.919 4.909 70.919 4.417 L 70.919 4.28 A 3.24 3.24 0 0 1 70.983 3.624 A 2.57 2.57 0 0 1 71.174 3.045 A 2.008 2.008 0 0 1 71.613 2.431 A 1.892 1.892 0 0 1 71.906 2.206 A 1.943 1.943 0 0 1 72.662 1.934 A 2.529 2.529 0 0 1 73.033 1.907 A 2.196 2.196 0 0 1 73.681 1.999 A 1.786 1.786 0 0 1 74.362 2.386 A 1.693 1.693 0 0 1 74.92 3.535 A 2.239 2.239 0 0 1 74.927 3.63 L 74.158 3.63 Q 74.123 3.168 73.808 2.872 A 1.078 1.078 0 0 0 73.079 2.576 A 1.402 1.402 0 0 0 73.033 2.575 A 1.374 1.374 0 0 0 72.611 2.637 A 1.081 1.081 0 0 0 72.073 3.021 A 1.469 1.469 0 0 0 71.846 3.468 Q 71.78 3.674 71.752 3.923 A 3.514 3.514 0 0 0 71.732 4.311 L 71.732 4.465 Q 71.732 5.287 72.07 5.73 A 1.1 1.1 0 0 0 72.857 6.165 A 1.611 1.611 0 0 0 73.037 6.174 A 1.171 1.171 0 0 0 73.797 5.911 A 1.007 1.007 0 0 0 74.041 5.629 A 0.914 0.914 0 0 0 74.158 5.251 Z M 37.2 6.75 L 36.347 6.75 A 0.632 0.632 0 0 1 36.312 6.66 Q 36.28 6.562 36.256 6.41 A 3.997 3.997 0 0 1 36.233 6.249 Q 35.666 6.838 34.879 6.838 A 2.033 2.033 0 0 1 34.35 6.772 A 1.529 1.529 0 0 1 33.726 6.44 Q 33.275 6.042 33.275 5.432 Q 33.275 4.689 33.84 4.278 Q 34.405 3.867 35.429 3.867 L 36.22 3.867 L 36.22 3.494 A 1.152 1.152 0 0 0 36.184 3.199 A 0.828 0.828 0 0 0 35.965 2.815 Q 35.749 2.6 35.358 2.568 A 1.748 1.748 0 0 0 35.213 2.562 Q 34.778 2.562 34.484 2.782 Q 34.19 3.001 34.19 3.313 L 33.372 3.313 A 1.041 1.041 0 0 1 33.497 2.825 A 1.409 1.409 0 0 1 33.625 2.626 Q 33.877 2.294 34.31 2.101 A 2.249 2.249 0 0 1 35.086 1.913 A 2.669 2.669 0 0 1 35.262 1.907 A 2.65 2.65 0 0 1 35.779 1.955 Q 36.086 2.016 36.325 2.156 A 1.439 1.439 0 0 1 36.549 2.318 A 1.396 1.396 0 0 1 37.003 3.144 A 1.998 1.998 0 0 1 37.033 3.45 L 37.033 5.638 Q 37.033 6.073 37.106 6.39 A 1.707 1.707 0 0 0 37.2 6.68 L 37.2 6.75 Z M 67.061 6.75 L 66.208 6.75 A 0.632 0.632 0 0 1 66.173 6.66 Q 66.141 6.562 66.117 6.41 A 3.997 3.997 0 0 1 66.094 6.249 Q 65.527 6.838 64.74 6.838 A 2.033 2.033 0 0 1 64.211 6.772 A 1.529 1.529 0 0 1 63.587 6.44 Q 63.136 6.042 63.136 5.432 Q 63.136 4.689 63.701 4.278 Q 64.266 3.867 65.29 3.867 L 66.081 3.867 L 66.081 3.494 A 1.152 1.152 0 0 0 66.045 3.199 A 0.828 0.828 0 0 0 65.826 2.815 Q 65.609 2.6 65.219 2.568 A 1.748 1.748 0 0 0 65.074 2.562 Q 64.639 2.562 64.345 2.782 Q 64.05 3.001 64.05 3.313 L 63.233 3.313 A 1.041 1.041 0 0 1 63.358 2.825 A 1.409 1.409 0 0 1 63.486 2.626 Q 63.738 2.294 64.171 2.101 A 2.249 2.249 0 0 1 64.947 1.913 A 2.669 2.669 0 0 1 65.123 1.907 A 2.65 2.65 0 0 1 65.64 1.955 Q 65.947 2.016 66.186 2.156 A 1.439 1.439 0 0 1 66.41 2.318 A 1.396 1.396 0 0 1 66.864 3.144 A 1.998 1.998 0 0 1 66.894 3.45 L 66.894 5.638 Q 66.894 6.073 66.967 6.39 A 1.707 1.707 0 0 0 67.061 6.68 L 67.061 6.75 Z M 18.031 4.395 L 18.031 4.333 A 3.762 3.762 0 0 1 18.098 3.602 Q 18.185 3.16 18.388 2.812 A 2.148 2.148 0 0 1 18.549 2.573 Q 19.068 1.907 19.907 1.907 A 1.964 1.964 0 0 1 20.505 1.994 A 1.559 1.559 0 0 1 21.23 2.479 L 21.23 0 L 22.043 0 L 22.043 6.75 L 21.296 6.75 L 21.256 6.24 Q 20.769 6.838 19.898 6.838 A 1.6 1.6 0 0 1 18.678 6.31 A 2.078 2.078 0 0 1 18.552 6.161 A 2.405 2.405 0 0 1 18.127 5.255 Q 18.043 4.912 18.032 4.51 A 4.425 4.425 0 0 1 18.031 4.395 Z M 28.437 4.504 L 28.437 4.355 A 3.17 3.17 0 0 1 28.513 3.646 A 2.581 2.581 0 0 1 28.707 3.092 A 2.191 2.191 0 0 1 29.155 2.466 A 2.033 2.033 0 0 1 29.463 2.221 Q 29.949 1.907 30.516 1.907 A 2.254 2.254 0 0 1 31.129 1.986 A 1.639 1.639 0 0 1 31.957 2.518 Q 32.471 3.129 32.471 4.267 L 32.471 4.605 L 29.25 4.605 A 2.111 2.111 0 0 0 29.321 5.114 A 1.516 1.516 0 0 0 29.661 5.741 A 1.282 1.282 0 0 0 30.595 6.173 A 1.652 1.652 0 0 0 30.661 6.174 A 1.763 1.763 0 0 0 30.989 6.145 Q 31.213 6.103 31.39 5.999 A 1.827 1.827 0 0 0 31.899 5.551 A 2.068 2.068 0 0 0 31.913 5.533 L 32.41 5.919 A 1.926 1.926 0 0 1 31.01 6.811 A 2.749 2.749 0 0 1 30.617 6.838 A 2.394 2.394 0 0 1 29.866 6.725 A 1.974 1.974 0 0 1 29.044 6.203 Q 28.437 5.568 28.437 4.504 Z M 58.298 4.504 L 58.298 4.355 A 3.17 3.17 0 0 1 58.374 3.646 A 2.581 2.581 0 0 1 58.568 3.092 A 2.191 2.191 0 0 1 59.016 2.466 A 2.033 2.033 0 0 1 59.324 2.221 Q 59.81 1.907 60.377 1.907 A 2.254 2.254 0 0 1 60.99 1.986 A 1.639 1.639 0 0 1 61.818 2.518 Q 62.332 3.129 62.332 4.267 L 62.332 4.605 L 59.111 4.605 A 2.111 2.111 0 0 0 59.182 5.114 A 1.516 1.516 0 0 0 59.522 5.741 A 1.282 1.282 0 0 0 60.456 6.173 A 1.652 1.652 0 0 0 60.522 6.174 A 1.763 1.763 0 0 0 60.85 6.145 Q 61.074 6.103 61.251 5.999 A 1.827 1.827 0 0 0 61.76 5.551 A 2.068 2.068 0 0 0 61.774 5.533 L 62.271 5.919 A 1.926 1.926 0 0 1 60.871 6.811 A 2.749 2.749 0 0 1 60.478 6.838 A 2.394 2.394 0 0 1 59.726 6.725 A 1.974 1.974 0 0 1 58.904 6.203 Q 58.298 5.568 58.298 4.504 Z M 6.834 0 L 6.834 6.75 L 6.021 6.75 L 6.021 0 L 6.834 0 Z M 7.919 4.386 L 7.919 4.329 A 3.057 3.057 0 0 1 8.006 3.587 A 2.573 2.573 0 0 1 8.194 3.072 A 2.16 2.16 0 0 1 8.608 2.486 A 1.957 1.957 0 0 1 8.958 2.21 A 2.036 2.036 0 0 1 9.903 1.913 A 2.491 2.491 0 0 1 10.077 1.907 A 2.277 2.277 0 0 1 10.83 2.027 A 1.937 1.937 0 0 1 11.648 2.58 A 2.29 2.29 0 0 1 12.167 3.608 A 3.373 3.373 0 0 1 12.248 4.368 L 12.248 4.425 A 3.114 3.114 0 0 1 12.168 5.142 A 2.577 2.577 0 0 1 11.982 5.671 A 2.056 2.056 0 0 1 11.454 6.361 A 2.001 2.001 0 0 1 11.221 6.53 A 2.045 2.045 0 0 1 10.302 6.829 A 2.529 2.529 0 0 1 10.085 6.838 A 2.262 2.262 0 0 1 9.335 6.718 A 1.938 1.938 0 0 1 8.519 6.166 A 2.297 2.297 0 0 1 7.993 5.111 A 3.357 3.357 0 0 1 7.919 4.386 Z M 40.606 1.969 L 40.606 2.725 A 2.251 2.251 0 0 0 40.363 2.698 A 2.782 2.782 0 0 0 40.206 2.694 Q 39.428 2.694 39.136 3.338 A 1.445 1.445 0 0 0 39.12 3.375 L 39.12 6.75 L 38.307 6.75 L 38.307 1.995 L 39.098 1.995 L 39.111 2.544 Q 39.492 1.938 40.174 1.909 A 1.636 1.636 0 0 1 40.245 1.907 Q 40.482 1.907 40.606 1.969 Z M 70.466 1.969 L 70.466 2.725 A 2.251 2.251 0 0 0 70.224 2.698 A 2.782 2.782 0 0 0 70.066 2.694 Q 69.289 2.694 68.997 3.338 A 1.445 1.445 0 0 0 68.981 3.375 L 68.981 6.75 L 68.168 6.75 L 68.168 1.995 L 68.959 1.995 L 68.972 2.544 Q 69.353 1.938 70.035 1.909 A 1.636 1.636 0 0 1 70.106 1.907 Q 70.343 1.907 70.466 1.969 Z M 8.736 4.425 A 2.772 2.772 0 0 0 8.784 4.954 Q 8.844 5.264 8.981 5.51 A 1.545 1.545 0 0 0 9.103 5.695 Q 9.47 6.174 10.085 6.174 A 1.269 1.269 0 0 0 10.575 6.083 Q 10.854 5.967 11.057 5.706 A 1.471 1.471 0 0 0 11.07 5.689 A 1.648 1.648 0 0 0 11.325 5.171 Q 11.393 4.945 11.419 4.672 A 3.655 3.655 0 0 0 11.435 4.329 A 2.687 2.687 0 0 0 11.383 3.789 Q 11.316 3.459 11.158 3.2 A 1.586 1.586 0 0 0 11.063 3.061 A 1.231 1.231 0 0 0 10.648 2.705 Q 10.395 2.575 10.077 2.575 Q 9.487 2.575 9.121 3.035 A 1.515 1.515 0 0 0 9.106 3.054 A 1.589 1.589 0 0 0 8.853 3.552 Q 8.784 3.772 8.756 4.039 A 3.676 3.676 0 0 0 8.736 4.425 Z M 21.23 5.454 L 21.23 3.27 A 1.375 1.375 0 0 0 20.918 2.874 Q 20.594 2.597 20.109 2.597 A 1.238 1.238 0 0 0 19.683 2.668 A 1.068 1.068 0 0 0 19.178 3.059 A 1.51 1.51 0 0 0 18.969 3.484 Q 18.903 3.689 18.872 3.939 A 3.955 3.955 0 0 0 18.844 4.425 A 3.162 3.162 0 0 0 18.88 4.918 Q 18.921 5.178 19.009 5.389 A 1.474 1.474 0 0 0 19.178 5.691 A 1.06 1.06 0 0 0 19.94 6.139 A 1.391 1.391 0 0 0 20.101 6.148 Q 20.874 6.148 21.23 5.454 Z M 36.22 5.418 L 36.22 4.443 L 35.583 4.443 Q 34.088 4.443 34.088 5.317 Q 34.088 5.7 34.343 5.915 A 0.893 0.893 0 0 0 34.757 6.108 A 1.259 1.259 0 0 0 34.998 6.13 A 1.429 1.429 0 0 0 35.723 5.933 A 1.335 1.335 0 0 0 36.019 5.705 A 1.108 1.108 0 0 0 36.22 5.418 Z M 66.081 5.418 L 66.081 4.443 L 65.443 4.443 Q 63.949 4.443 63.949 5.317 Q 63.949 5.7 64.204 5.915 A 0.893 0.893 0 0 0 64.618 6.108 A 1.259 1.259 0 0 0 64.859 6.13 A 1.429 1.429 0 0 0 65.584 5.933 A 1.335 1.335 0 0 0 65.88 5.705 A 1.108 1.108 0 0 0 66.081 5.418 Z M 29.276 3.938 L 31.658 3.938 L 31.658 3.876 Q 31.632 3.417 31.462 3.111 A 1.13 1.13 0 0 0 31.324 2.916 A 0.983 0.983 0 0 0 30.67 2.584 A 1.39 1.39 0 0 0 30.516 2.575 A 1.106 1.106 0 0 0 29.993 2.698 A 1.14 1.14 0 0 0 29.69 2.933 A 1.417 1.417 0 0 0 29.413 3.379 Q 29.339 3.563 29.299 3.785 A 2.741 2.741 0 0 0 29.276 3.938 Z M 59.137 3.938 L 61.519 3.938 L 61.519 3.876 Q 61.493 3.417 61.322 3.111 A 1.13 1.13 0 0 0 61.185 2.916 A 0.983 0.983 0 0 0 60.531 2.584 A 1.39 1.39 0 0 0 60.377 2.575 A 1.106 1.106 0 0 0 59.854 2.698 A 1.14 1.14 0 0 0 59.55 2.933 A 1.417 1.417 0 0 0 59.274 3.379 Q 59.2 3.563 59.16 3.785 A 2.741 2.741 0 0 0 59.137 3.938 Z" vector-effect="non-scaling-stroke"/></g><g transform="translate(25, 93)" id="svgGroup" stroke-linecap="round" fill-rule="evenodd" font-size="9pt" stroke="#000" stroke-width="0.25mm" fill="#000" style="stroke:#000;stroke-width:0.25mm;fill:#000"><path d="M 20.575 1.995 L 21.344 1.995 L 21.366 2.522 Q 21.889 1.907 22.777 1.907 A 2.009 2.009 0 0 1 23.288 1.968 A 1.244 1.244 0 0 1 24.135 2.672 A 1.801 1.801 0 0 1 24.752 2.118 A 1.65 1.65 0 0 1 25.281 1.937 A 2.209 2.209 0 0 1 25.651 1.907 A 2.119 2.119 0 0 1 26.295 1.997 Q 27.221 2.292 27.242 3.564 L 27.242 6.75 L 26.429 6.75 L 26.429 3.612 A 1.781 1.781 0 0 0 26.408 3.332 Q 26.385 3.185 26.334 3.067 A 0.758 0.758 0 0 0 26.196 2.85 A 0.68 0.68 0 0 0 25.943 2.682 Q 25.732 2.597 25.415 2.597 A 1.245 1.245 0 0 0 25.048 2.648 A 1.008 1.008 0 0 0 24.662 2.867 A 1.042 1.042 0 0 0 24.348 3.404 A 1.41 1.41 0 0 0 24.315 3.595 L 24.315 6.75 L 23.498 6.75 L 23.498 3.634 A 1.532 1.532 0 0 0 23.449 3.23 Q 23.322 2.768 22.865 2.643 A 1.457 1.457 0 0 0 22.482 2.597 Q 21.709 2.597 21.408 3.234 A 1.459 1.459 0 0 0 21.388 3.278 L 21.388 6.75 L 20.575 6.75 L 20.575 1.995 Z M 73.235 0 L 73.235 2.571 A 1.767 1.767 0 0 1 73.901 2.053 A 1.832 1.832 0 0 1 74.641 1.907 A 1.905 1.905 0 0 1 75.275 2.004 Q 76.116 2.3 76.159 3.506 A 3.668 3.668 0 0 1 76.162 3.608 L 76.162 6.75 L 75.349 6.75 L 75.349 3.604 A 1.837 1.837 0 0 0 75.326 3.324 Q 75.276 3.017 75.114 2.843 Q 74.927 2.645 74.574 2.606 A 1.66 1.66 0 0 0 74.395 2.597 A 1.253 1.253 0 0 0 73.981 2.664 A 1.123 1.123 0 0 0 73.701 2.808 A 1.432 1.432 0 0 0 73.235 3.362 L 73.235 6.75 L 72.422 6.75 L 72.422 0 L 73.235 0 Z M 70.414 2.522 L 70.453 1.995 L 71.196 1.995 L 71.196 6.636 A 2.511 2.511 0 0 1 71.125 7.249 A 1.738 1.738 0 0 1 70.649 8.09 A 1.834 1.834 0 0 1 69.719 8.57 A 2.671 2.671 0 0 1 69.179 8.622 A 2.446 2.446 0 0 1 68.172 8.402 A 2.003 2.003 0 0 1 67.762 8.161 A 1.563 1.563 0 0 1 67.421 7.8 L 67.843 7.313 A 1.889 1.889 0 0 0 68.277 7.712 A 1.514 1.514 0 0 0 69.122 7.958 A 1.695 1.695 0 0 0 69.499 7.919 Q 69.767 7.858 69.961 7.702 A 1.037 1.037 0 0 0 70.047 7.625 A 1.09 1.09 0 0 0 70.324 7.132 Q 70.371 6.959 70.377 6.752 A 2.134 2.134 0 0 0 70.378 6.684 L 70.378 6.275 A 1.601 1.601 0 0 1 69.326 6.821 A 2.279 2.279 0 0 1 69.047 6.838 A 1.672 1.672 0 0 1 68.292 6.67 Q 67.97 6.51 67.72 6.197 A 2.14 2.14 0 0 1 67.696 6.166 A 2.316 2.316 0 0 1 67.312 5.386 Q 67.179 4.922 67.179 4.333 Q 67.179 3.472 67.488 2.884 A 2.096 2.096 0 0 1 67.693 2.564 Q 68.208 1.907 69.056 1.907 A 1.971 1.971 0 0 1 69.654 1.994 A 1.55 1.55 0 0 1 70.414 2.522 Z M 44.679 3.393 L 43.862 3.393 Q 43.862 3.059 43.578 2.817 Q 43.295 2.575 42.864 2.575 Q 42.42 2.575 42.17 2.769 A 0.653 0.653 0 0 0 41.995 2.967 Q 41.922 3.098 41.92 3.263 A 0.771 0.771 0 0 0 41.919 3.274 A 0.588 0.588 0 0 0 41.95 3.467 A 0.48 0.48 0 0 0 42.152 3.718 A 1.093 1.093 0 0 0 42.303 3.796 Q 42.467 3.868 42.722 3.937 A 6.581 6.581 0 0 0 42.994 4.003 A 6.318 6.318 0 0 1 43.402 4.108 Q 43.738 4.208 43.98 4.329 A 1.901 1.901 0 0 1 44.236 4.481 Q 44.373 4.579 44.471 4.692 A 1.06 1.06 0 0 1 44.541 4.783 A 1.024 1.024 0 0 1 44.703 5.191 A 1.388 1.388 0 0 1 44.723 5.432 Q 44.723 6.069 44.213 6.453 Q 43.731 6.817 42.977 6.837 A 3.337 3.337 0 0 1 42.891 6.838 A 2.746 2.746 0 0 1 42.356 6.788 A 2.124 2.124 0 0 1 41.88 6.636 A 1.771 1.771 0 0 1 41.446 6.358 A 1.54 1.54 0 0 1 41.192 6.071 Q 40.944 5.708 40.944 5.287 L 41.757 5.287 A 0.932 0.932 0 0 0 41.83 5.612 A 0.827 0.827 0 0 0 42.084 5.935 A 1.072 1.072 0 0 0 42.486 6.128 Q 42.641 6.167 42.822 6.173 A 2.013 2.013 0 0 0 42.891 6.174 A 1.863 1.863 0 0 0 43.186 6.152 Q 43.348 6.126 43.479 6.07 A 0.941 0.941 0 0 0 43.631 5.988 A 0.689 0.689 0 0 0 43.796 5.837 A 0.554 0.554 0 0 0 43.91 5.489 A 0.698 0.698 0 0 0 43.874 5.258 A 0.581 0.581 0 0 0 43.662 4.977 A 1.05 1.05 0 0 0 43.493 4.878 Q 43.304 4.788 43.009 4.712 A 5.392 5.392 0 0 0 42.796 4.663 A 6.342 6.342 0 0 1 42.435 4.575 Q 42.065 4.473 41.816 4.346 Q 41.517 4.194 41.347 3.994 A 1.017 1.017 0 0 1 41.28 3.907 Q 41.106 3.652 41.106 3.3 A 1.206 1.206 0 0 1 41.506 2.396 A 1.694 1.694 0 0 1 41.601 2.312 A 1.752 1.752 0 0 1 42.384 1.952 A 2.471 2.471 0 0 1 42.864 1.907 A 2.559 2.559 0 0 1 43.428 1.966 A 1.757 1.757 0 0 1 44.176 2.325 Q 44.679 2.742 44.679 3.393 Z M 33.236 1.995 L 34.005 1.995 L 34.031 2.593 Q 34.568 1.918 35.427 1.907 A 2.234 2.234 0 0 1 35.455 1.907 A 1.905 1.905 0 0 1 36.089 2.004 Q 36.93 2.3 36.973 3.506 A 3.668 3.668 0 0 1 36.976 3.608 L 36.976 6.75 L 36.163 6.75 L 36.163 3.604 A 1.837 1.837 0 0 0 36.14 3.324 Q 36.09 3.017 35.927 2.843 Q 35.741 2.645 35.388 2.606 A 1.66 1.66 0 0 0 35.209 2.597 A 1.253 1.253 0 0 0 34.795 2.664 A 1.123 1.123 0 0 0 34.515 2.808 A 1.432 1.432 0 0 0 34.049 3.362 L 34.049 6.75 L 33.236 6.75 L 33.236 1.995 Z M 18.571 6.75 L 18.554 6.28 A 1.526 1.526 0 0 1 17.728 6.775 Q 17.477 6.836 17.18 6.838 A 2.996 2.996 0 0 1 17.161 6.838 A 2.086 2.086 0 0 1 16.701 6.79 Q 16.27 6.693 16.003 6.396 A 1.41 1.41 0 0 1 15.72 5.899 Q 15.603 5.556 15.601 5.089 L 15.601 1.995 L 16.414 1.995 L 16.414 5.067 Q 16.414 6.037 17.121 6.137 A 1.229 1.229 0 0 0 17.292 6.148 A 1.927 1.927 0 0 0 17.743 6.099 Q 18.306 5.964 18.532 5.454 L 18.532 1.995 L 19.345 1.995 L 19.345 6.75 L 18.571 6.75 Z M 13.935 5.251 L 14.704 5.251 A 1.432 1.432 0 0 1 14.505 5.901 A 1.772 1.772 0 0 1 14.423 6.029 A 1.828 1.828 0 0 1 13.814 6.574 A 2.169 2.169 0 0 1 13.731 6.618 A 1.997 1.997 0 0 1 12.814 6.838 A 2.346 2.346 0 0 1 12.117 6.739 A 1.839 1.839 0 0 1 11.27 6.19 A 2.171 2.171 0 0 1 10.806 5.31 Q 10.696 4.909 10.696 4.417 L 10.696 4.28 A 3.24 3.24 0 0 1 10.76 3.624 A 2.57 2.57 0 0 1 10.951 3.045 A 2.008 2.008 0 0 1 11.391 2.431 A 1.892 1.892 0 0 1 11.683 2.206 A 1.943 1.943 0 0 1 12.439 1.934 A 2.529 2.529 0 0 1 12.81 1.907 A 2.196 2.196 0 0 1 13.458 1.999 A 1.786 1.786 0 0 1 14.139 2.386 A 1.693 1.693 0 0 1 14.698 3.535 A 2.239 2.239 0 0 1 14.704 3.63 L 13.935 3.63 Q 13.9 3.168 13.586 2.872 A 1.078 1.078 0 0 0 12.857 2.576 A 1.402 1.402 0 0 0 12.81 2.575 A 1.374 1.374 0 0 0 12.389 2.637 A 1.081 1.081 0 0 0 11.85 3.021 A 1.469 1.469 0 0 0 11.623 3.468 Q 11.557 3.674 11.53 3.923 A 3.514 3.514 0 0 0 11.509 4.311 L 11.509 4.465 Q 11.509 5.287 11.848 5.73 A 1.1 1.1 0 0 0 12.634 6.165 A 1.611 1.611 0 0 0 12.814 6.174 A 1.171 1.171 0 0 0 13.575 5.911 A 1.007 1.007 0 0 0 13.819 5.629 A 0.914 0.914 0 0 0 13.935 5.251 Z M 28.261 4.504 L 28.261 4.355 A 3.17 3.17 0 0 1 28.338 3.646 A 2.581 2.581 0 0 1 28.531 3.092 A 2.191 2.191 0 0 1 28.979 2.466 A 2.033 2.033 0 0 1 29.287 2.221 Q 29.773 1.907 30.34 1.907 A 2.254 2.254 0 0 1 30.953 1.986 A 1.639 1.639 0 0 1 31.781 2.518 Q 32.295 3.129 32.295 4.267 L 32.295 4.605 L 29.074 4.605 A 2.111 2.111 0 0 0 29.145 5.114 A 1.516 1.516 0 0 0 29.485 5.741 A 1.282 1.282 0 0 0 30.419 6.173 A 1.652 1.652 0 0 0 30.485 6.174 A 1.763 1.763 0 0 0 30.813 6.145 Q 31.037 6.103 31.214 5.999 A 1.827 1.827 0 0 0 31.723 5.551 A 2.068 2.068 0 0 0 31.737 5.533 L 32.234 5.919 A 1.926 1.926 0 0 1 30.834 6.811 A 2.749 2.749 0 0 1 30.441 6.838 A 2.394 2.394 0 0 1 29.69 6.725 A 1.974 1.974 0 0 1 28.868 6.203 Q 28.261 5.568 28.261 4.504 Z M 61.321 0.352 L 61.321 6.06 L 64.354 6.06 L 64.354 6.75 L 60.473 6.75 L 60.473 0.352 L 61.321 0.352 Z M 51.359 0.352 L 51.359 4.601 L 52.247 4.601 L 52.247 5.265 L 51.359 5.265 L 51.359 6.75 L 50.542 6.75 L 50.542 5.265 L 47.628 5.265 L 47.628 4.786 L 50.493 0.352 L 51.359 0.352 Z M 1.771 6.75 L 0 6.75 L 0 0.352 L 1.806 0.352 Q 2.641 0.352 3.283 0.721 Q 3.924 1.09 4.274 1.771 A 3.19 3.19 0 0 1 4.591 2.8 A 4.073 4.073 0 0 1 4.627 3.335 L 4.627 3.744 Q 4.627 4.649 4.278 5.331 A 2.457 2.457 0 0 1 3.281 6.376 Q 2.632 6.741 1.771 6.75 Z M 56.757 2.592 A 1.544 1.544 0 0 0 56.861 2.021 A 2.226 2.226 0 0 0 56.839 1.707 A 1.566 1.566 0 0 0 56.34 0.738 A 1.754 1.754 0 0 0 55.574 0.333 A 2.443 2.443 0 0 0 54.976 0.264 A 2.539 2.539 0 0 0 54.466 0.312 A 1.767 1.767 0 0 0 53.609 0.738 Q 53.09 1.213 53.09 2.021 A 1.808 1.808 0 0 0 53.091 2.058 A 1.499 1.499 0 0 0 53.336 2.87 A 1.626 1.626 0 0 0 53.498 3.077 A 1.726 1.726 0 0 0 54.009 3.454 A 2.119 2.119 0 0 0 53.909 3.5 A 1.738 1.738 0 0 0 53.224 4.087 A 1.629 1.629 0 0 0 52.941 5.023 A 2.272 2.272 0 0 0 52.951 5.237 A 1.63 1.63 0 0 0 53.497 6.344 A 1.895 1.895 0 0 0 54.347 6.771 A 2.797 2.797 0 0 0 54.976 6.838 A 2.796 2.796 0 0 0 55.575 6.777 A 1.925 1.925 0 0 0 56.45 6.346 A 1.578 1.578 0 0 0 56.925 5.62 A 1.989 1.989 0 0 0 57.01 5.023 A 1.581 1.581 0 0 0 56.718 4.087 Q 56.426 3.674 55.925 3.458 Q 56.355 3.248 56.608 2.874 A 1.449 1.449 0 0 0 56.757 2.592 Z M 38.492 0.844 L 39.305 0.844 L 39.305 1.995 L 40.192 1.995 L 40.192 2.624 L 39.305 2.624 L 39.305 5.572 Q 39.305 5.858 39.423 6.001 Q 39.542 6.144 39.828 6.144 A 1.046 1.046 0 0 0 39.925 6.138 Q 40.028 6.129 40.168 6.101 A 4.024 4.024 0 0 0 40.214 6.091 L 40.214 6.75 A 2.463 2.463 0 0 1 39.782 6.829 A 2.157 2.157 0 0 1 39.59 6.838 Q 39.143 6.838 38.877 6.616 A 0.856 0.856 0 0 1 38.769 6.508 Q 38.541 6.238 38.501 5.78 A 2.351 2.351 0 0 1 38.492 5.572 L 38.492 2.624 L 37.626 2.624 L 37.626 1.995 L 38.492 1.995 L 38.492 0.844 Z M 77.669 0.844 L 78.482 0.844 L 78.482 1.995 L 79.37 1.995 L 79.37 2.624 L 78.482 2.624 L 78.482 5.572 Q 78.482 5.858 78.601 6.001 Q 78.719 6.144 79.005 6.144 A 1.046 1.046 0 0 0 79.102 6.138 Q 79.205 6.129 79.345 6.101 A 4.024 4.024 0 0 0 79.392 6.091 L 79.392 6.75 A 2.463 2.463 0 0 1 78.959 6.829 A 2.157 2.157 0 0 1 78.768 6.838 Q 78.32 6.838 78.054 6.616 A 0.856 0.856 0 0 1 77.946 6.508 Q 77.718 6.238 77.678 5.78 A 2.351 2.351 0 0 1 77.669 5.572 L 77.669 2.624 L 76.803 2.624 L 76.803 1.995 L 77.669 1.995 L 77.669 0.844 Z M 5.559 4.386 L 5.559 4.329 A 3.057 3.057 0 0 1 5.646 3.587 A 2.573 2.573 0 0 1 5.834 3.072 A 2.16 2.16 0 0 1 6.248 2.486 A 1.957 1.957 0 0 1 6.598 2.21 A 2.036 2.036 0 0 1 7.543 1.913 A 2.491 2.491 0 0 1 7.717 1.907 A 2.277 2.277 0 0 1 8.47 2.027 A 1.937 1.937 0 0 1 9.288 2.58 A 2.29 2.29 0 0 1 9.807 3.608 A 3.373 3.373 0 0 1 9.888 4.368 L 9.888 4.425 A 3.114 3.114 0 0 1 9.808 5.142 A 2.577 2.577 0 0 1 9.622 5.671 A 2.056 2.056 0 0 1 9.094 6.361 A 2.001 2.001 0 0 1 8.862 6.53 A 2.045 2.045 0 0 1 7.942 6.829 A 2.529 2.529 0 0 1 7.726 6.838 A 2.262 2.262 0 0 1 6.975 6.718 A 1.938 1.938 0 0 1 6.159 6.166 A 2.297 2.297 0 0 1 5.633 5.111 A 3.357 3.357 0 0 1 5.559 4.386 Z M 1.828 1.046 L 0.844 1.046 L 0.844 6.06 L 1.731 6.06 A 2.519 2.519 0 0 0 2.364 5.985 A 1.747 1.747 0 0 0 3.25 5.454 Q 3.709 4.94 3.78 4.059 A 4.165 4.165 0 0 0 3.792 3.727 L 3.792 3.353 Q 3.792 2.562 3.523 2.027 A 1.864 1.864 0 0 0 3.281 1.659 A 1.687 1.687 0 0 0 2.285 1.09 A 2.499 2.499 0 0 0 1.828 1.046 Z M 66.072 1.995 L 66.072 6.75 L 65.259 6.75 L 65.259 1.995 L 66.072 1.995 Z M 6.376 4.425 A 2.772 2.772 0 0 0 6.424 4.954 Q 6.484 5.264 6.622 5.51 A 1.545 1.545 0 0 0 6.743 5.695 Q 7.11 6.174 7.726 6.174 A 1.269 1.269 0 0 0 8.215 6.083 Q 8.494 5.967 8.697 5.706 A 1.471 1.471 0 0 0 8.71 5.689 A 1.648 1.648 0 0 0 8.965 5.171 Q 9.034 4.945 9.059 4.672 A 3.655 3.655 0 0 0 9.075 4.329 A 2.687 2.687 0 0 0 9.024 3.789 Q 8.956 3.459 8.799 3.2 A 1.586 1.586 0 0 0 8.703 3.061 A 1.231 1.231 0 0 0 8.288 2.705 Q 8.035 2.575 7.717 2.575 Q 7.127 2.575 6.761 3.035 A 1.515 1.515 0 0 0 6.746 3.054 A 1.589 1.589 0 0 0 6.493 3.552 Q 6.424 3.772 6.396 4.039 A 3.676 3.676 0 0 0 6.376 4.425 Z M 70.378 5.449 L 70.378 3.278 A 1.439 1.439 0 0 0 70.077 2.891 Q 69.774 2.62 69.333 2.599 A 1.578 1.578 0 0 0 69.258 2.597 Q 68.666 2.597 68.332 3.056 A 1.51 1.51 0 0 0 68.121 3.484 Q 68.056 3.689 68.024 3.939 A 3.955 3.955 0 0 0 67.997 4.425 Q 67.997 5.229 68.326 5.689 Q 68.656 6.148 69.249 6.148 A 1.32 1.32 0 0 0 69.759 6.054 Q 70.15 5.891 70.378 5.449 Z M 50.445 1.639 L 48.551 4.601 L 50.542 4.601 L 50.542 1.463 L 50.445 1.639 Z M 56.197 5.005 A 1.375 1.375 0 0 0 56.138 4.592 A 1.109 1.109 0 0 0 55.857 4.131 A 1.148 1.148 0 0 0 55.185 3.807 A 1.593 1.593 0 0 0 54.967 3.792 A 1.466 1.466 0 0 0 54.578 3.841 A 1.086 1.086 0 0 0 54.086 4.126 A 1.123 1.123 0 0 0 53.772 4.762 A 1.572 1.572 0 0 0 53.754 5.005 A 1.48 1.48 0 0 0 53.796 5.367 A 1.019 1.019 0 0 0 54.077 5.862 Q 54.383 6.158 54.916 6.173 A 2.053 2.053 0 0 0 54.976 6.174 Q 55.469 6.174 55.779 5.94 A 1.018 1.018 0 0 0 55.872 5.86 A 1.041 1.041 0 0 0 56.171 5.292 A 1.518 1.518 0 0 0 56.197 5.005 Z M 54.976 0.932 A 1.259 1.259 0 0 0 54.623 0.979 A 0.973 0.973 0 0 0 54.2 1.228 Q 53.903 1.525 53.903 2.035 A 1.325 1.325 0 0 0 53.948 2.387 A 0.994 0.994 0 0 0 54.196 2.823 A 0.974 0.974 0 0 0 54.758 3.108 A 1.382 1.382 0 0 0 54.976 3.125 A 1.279 1.279 0 0 0 55.32 3.08 A 0.952 0.952 0 0 0 55.756 2.823 A 1.018 1.018 0 0 0 56.031 2.26 A 1.426 1.426 0 0 0 56.048 2.035 A 1.282 1.282 0 0 0 55.998 1.668 A 1.013 1.013 0 0 0 55.745 1.239 Q 55.441 0.932 54.976 0.932 Z M 29.101 3.938 L 31.482 3.938 L 31.482 3.876 Q 31.456 3.417 31.286 3.111 A 1.13 1.13 0 0 0 31.148 2.916 A 0.983 0.983 0 0 0 30.494 2.584 A 1.39 1.39 0 0 0 30.34 2.575 A 1.106 1.106 0 0 0 29.817 2.698 A 1.14 1.14 0 0 0 29.514 2.933 A 1.417 1.417 0 0 0 29.237 3.379 Q 29.163 3.563 29.123 3.785 A 2.741 2.741 0 0 0 29.101 3.938 Z M 65.193 0.734 Q 65.193 0.536 65.314 0.4 Q 65.426 0.274 65.637 0.264 A 0.783 0.783 0 0 1 65.672 0.264 Q 65.909 0.264 66.032 0.4 A 0.474 0.474 0 0 1 66.155 0.703 A 0.614 0.614 0 0 1 66.155 0.734 A 0.523 0.523 0 0 1 66.13 0.9 A 0.442 0.442 0 0 1 66.032 1.063 Q 65.92 1.184 65.712 1.194 A 0.803 0.803 0 0 1 65.672 1.195 Q 65.5 1.195 65.389 1.126 A 0.362 0.362 0 0 1 65.314 1.063 A 0.456 0.456 0 0 1 65.195 0.788 A 0.605 0.605 0 0 1 65.193 0.734 Z" vector-effect="non-scaling-stroke"/></g>
</svgversion="1.0" encoding="UTF-8"?>
<svg width="48px" height="48px" viewBox="0 0 48 48" version="1.1" xmlns="http://www.w3.org/2000/svg" xmlns:xlink="http://www.w3.org/1999/xlink">
    <title>Icon-Resource/Analytics/Res_CloudSearch_Search-Documents_48_Light</title>
    <g id="Icon-Resource/Analytics/Res_CloudSearch_Search-Documents_48" stroke="none" stroke-width="1" fill="none" fill-rule="evenodd">
        <path transform="translate(12.000000, 8.000000), scale(.65)" d="M41.406,14.6378 L38.823,16.5748 L41.406,18.5128 L41.406,14.6378 Z M43.406,12.6378 L43.406,20.5128 C43.406,20.8918 43.192,21.2378 42.853,21.4078 C42.712,21.4778 42.558,21.5128 42.406,21.5128 C42.193,21.5128 41.982,21.4448 41.806,21.3128 L36.557,17.3748 C36.305,17.1868 36.157,16.8898 36.157,16.5748 C36.157,16.2608 36.305,15.9638 36.557,15.7758 L41.806,11.8378 C42.108,11.6108 42.513,11.5738 42.853,11.7428 C43.192,11.9128 43.406,12.2588 43.406,12.6378 L43.406,12.6378 Z M9.243,16.5748 L6.66,14.6378 L6.66,18.5128 L9.243,16.5748 Z M11.51,17.3748 L6.26,21.3128 C6.084,21.4448 5.872,21.5128 5.66,21.5128 C5.508,21.5128 5.354,21.4778 5.213,21.4078 C4.874,21.2378 4.66,20.8918 4.66,20.5128 L4.66,12.6378 C4.66,12.2588 4.874,11.9128 5.213,11.7428 C5.552,11.5738 5.957,11.6108 6.26,11.8378 L11.51,15.7758 C11.761,15.9638 11.91,16.2608 11.91,16.5748 C11.91,16.8898 11.761,17.1868 11.51,17.3748 L11.51,17.3748 Z M12.66,40.7628 L35.41,40.7628 L35.41,38.7628 L12.66,38.7628 L12.66,40.7628 Z M12.66,35.5128 L35.41,35.5128 L35.41,33.5128 L12.66,33.5128 L12.66,35.5128 Z M12.66,30.2628 L35.41,30.2628 L35.41,28.2628 L12.66,28.2628 L12.66,30.2628 Z M12.66,25.0128 L35.41,25.0128 L35.41,23.0128 L12.66,23.0128 L12.66,25.0128 Z M12.66,19.7628 L35.41,19.7628 L35.41,17.7628 L12.66,17.7628 L12.66,19.7628 Z M12.769,14.5128 L35.41,14.5128 L35.41,12.5128 L12.769,12.5128 L12.769,14.5128 Z M12.66,9.2628 L35.41,9.2628 L35.41,7.2628 L12.66,7.2628 L12.66,9.2628 Z M37.91,44.0128 L10.16,44.0128 L10.16,21.3878 L8.16,21.3878 L8.16,46.0128 L39.91,46.0128 L39.91,21.3878 L37.91,21.3878 L37.91,44.0128 Z M10.16,11.7628 L8.16,11.7628 L8.16,2.0128 L39.91,2.0128 L39.91,11.7628 L37.91,11.7628 L37.91,4.0128 L10.16,4.0128 L10.16,11.7628 Z" id="Icon-Resource/48/CloudSearch-Search_Documents" fill="#000000"></path>
    </g><g transform="translate(25, 83)" id="svgGroup" stroke-linecap="round" fill-rule="evenodd" font-size="9pt" stroke="#000" stroke-width="0.25mm" fill="#000" style="stroke:#000;stroke-width:0.25mm;fill:#000"><path d="M 27.677 2.202 L 26.829 2.202 A 1.466 1.466 0 0 0 26.779 1.809 A 1.066 1.066 0 0 0 26.46 1.29 A 1.211 1.211 0 0 0 25.99 1.033 Q 25.738 0.958 25.418 0.958 A 2.286 2.286 0 0 0 25.038 0.988 Q 24.836 1.022 24.674 1.095 A 1.101 1.101 0 0 0 24.445 1.233 A 0.892 0.892 0 0 0 24.1 1.887 A 1.267 1.267 0 0 0 24.095 1.995 A 0.806 0.806 0 0 0 24.363 2.6 A 1.134 1.134 0 0 0 24.427 2.656 A 1.562 1.562 0 0 0 24.665 2.813 Q 24.996 2.993 25.556 3.151 A 8.228 8.228 0 0 1 26.021 3.295 Q 26.256 3.377 26.451 3.464 A 3.297 3.297 0 0 1 26.804 3.645 A 2.342 2.342 0 0 1 27.143 3.889 Q 27.333 4.056 27.455 4.248 A 1.45 1.45 0 0 1 27.472 4.276 A 1.498 1.498 0 0 1 27.669 4.832 A 1.948 1.948 0 0 1 27.69 5.124 A 1.606 1.606 0 0 1 27.568 5.76 Q 27.422 6.101 27.104 6.354 A 1.886 1.886 0 0 1 27.084 6.37 Q 26.477 6.838 25.462 6.838 A 3.023 3.023 0 0 1 24.321 6.623 A 2.917 2.917 0 0 1 24.231 6.585 A 2.383 2.383 0 0 1 23.753 6.307 A 1.874 1.874 0 0 1 23.35 5.893 A 1.689 1.689 0 0 1 23.041 4.896 L 23.889 4.896 A 1.261 1.261 0 0 0 23.958 5.323 A 1.074 1.074 0 0 0 24.317 5.812 Q 24.702 6.113 25.318 6.144 A 2.87 2.87 0 0 0 25.462 6.148 A 2.628 2.628 0 0 0 25.849 6.121 Q 26.045 6.092 26.204 6.031 A 1.129 1.129 0 0 0 26.486 5.875 Q 26.842 5.603 26.842 5.133 A 1.074 1.074 0 0 0 26.799 4.822 A 0.816 0.816 0 0 0 26.512 4.406 Q 26.183 4.148 25.317 3.898 Q 24.231 3.586 23.737 3.131 Q 23.243 2.676 23.243 2.008 Q 23.243 1.252 23.847 0.758 A 2.121 2.121 0 0 1 24.737 0.335 A 3.087 3.087 0 0 1 25.418 0.264 A 2.913 2.913 0 0 1 26.078 0.336 A 2.372 2.372 0 0 1 26.594 0.519 A 2.051 2.051 0 0 1 27.125 0.889 A 1.834 1.834 0 0 1 27.393 1.222 A 1.798 1.798 0 0 1 27.677 2.202 Z M 57.538 2.202 L 56.69 2.202 A 1.466 1.466 0 0 0 56.64 1.809 A 1.066 1.066 0 0 0 56.32 1.29 A 1.211 1.211 0 0 0 55.851 1.033 Q 55.599 0.958 55.279 0.958 A 2.286 2.286 0 0 0 54.899 0.988 Q 54.697 1.022 54.535 1.095 A 1.101 1.101 0 0 0 54.305 1.233 A 0.892 0.892 0 0 0 53.961 1.887 A 1.267 1.267 0 0 0 53.956 1.995 A 0.806 0.806 0 0 0 54.224 2.6 A 1.134 1.134 0 0 0 54.288 2.656 A 1.562 1.562 0 0 0 54.526 2.813 Q 54.856 2.993 55.417 3.151 A 8.228 8.228 0 0 1 55.882 3.295 Q 56.117 3.377 56.312 3.464 A 3.297 3.297 0 0 1 56.665 3.645 A 2.342 2.342 0 0 1 57.004 3.889 Q 57.194 4.056 57.316 4.248 A 1.45 1.45 0 0 1 57.333 4.276 A 1.498 1.498 0 0 1 57.53 4.832 A 1.948 1.948 0 0 1 57.551 5.124 A 1.606 1.606 0 0 1 57.428 5.76 Q 57.283 6.101 56.965 6.354 A 1.886 1.886 0 0 1 56.944 6.37 Q 56.338 6.838 55.323 6.838 A 3.023 3.023 0 0 1 54.182 6.623 A 2.917 2.917 0 0 1 54.092 6.585 A 2.383 2.383 0 0 1 53.614 6.307 A 1.874 1.874 0 0 1 53.211 5.893 A 1.689 1.689 0 0 1 52.901 4.896 L 53.75 4.896 A 1.261 1.261 0 0 0 53.819 5.323 A 1.074 1.074 0 0 0 54.178 5.812 Q 54.563 6.113 55.179 6.144 A 2.87 2.87 0 0 0 55.323 6.148 A 2.628 2.628 0 0 0 55.71 6.121 Q 55.906 6.092 56.065 6.031 A 1.129 1.129 0 0 0 56.347 5.875 Q 56.703 5.603 56.703 5.133 A 1.074 1.074 0 0 0 56.66 4.822 A 0.816 0.816 0 0 0 56.373 4.406 Q 56.044 4.148 55.178 3.898 Q 54.092 3.586 53.598 3.131 Q 53.104 2.676 53.104 2.008 Q 53.104 1.252 53.708 0.758 A 2.121 2.121 0 0 1 54.598 0.335 A 3.087 3.087 0 0 1 55.279 0.264 A 2.913 2.913 0 0 1 55.939 0.336 A 2.372 2.372 0 0 1 56.454 0.519 A 2.051 2.051 0 0 1 56.985 0.889 A 1.834 1.834 0 0 1 57.254 1.222 A 1.798 1.798 0 0 1 57.538 2.202 Z M 4.078 4.72 L 4.926 4.72 A 3.016 3.016 0 0 1 4.765 5.416 A 2.099 2.099 0 0 1 4.177 6.286 Q 3.546 6.838 2.501 6.838 A 2.553 2.553 0 0 1 1.631 6.696 A 2.194 2.194 0 0 1 0.683 6.025 A 2.789 2.789 0 0 1 0.122 4.901 Q 0.015 4.484 0.002 3.992 A 5.262 5.262 0 0 1 0 3.85 L 0 3.234 A 4.251 4.251 0 0 1 0.07 2.445 A 3.229 3.229 0 0 1 0.319 1.666 A 2.539 2.539 0 0 1 0.774 0.99 A 2.26 2.26 0 0 1 1.222 0.626 A 2.415 2.415 0 0 1 2.248 0.281 A 3.027 3.027 0 0 1 2.575 0.264 A 2.962 2.962 0 0 1 3.281 0.343 A 2.065 2.065 0 0 1 4.21 0.833 A 2.16 2.16 0 0 1 4.805 1.795 A 3.086 3.086 0 0 1 4.926 2.408 L 4.078 2.408 Q 4.009 1.929 3.84 1.616 A 1.223 1.223 0 0 0 3.601 1.301 A 1.207 1.207 0 0 0 3.096 1.024 Q 2.909 0.971 2.686 0.961 A 2.396 2.396 0 0 0 2.575 0.958 A 1.753 1.753 0 0 0 1.997 1.049 A 1.463 1.463 0 0 0 1.307 1.556 A 1.989 1.989 0 0 0 0.993 2.175 Q 0.848 2.636 0.848 3.256 L 0.848 3.876 Q 0.848 4.917 1.283 5.533 A 1.38 1.38 0 0 0 2.282 6.135 A 1.814 1.814 0 0 0 2.501 6.148 A 2.497 2.497 0 0 0 2.908 6.117 Q 3.127 6.08 3.303 6.002 A 1.155 1.155 0 0 0 3.579 5.829 Q 3.955 5.511 4.078 4.72 Z M 46.793 0 L 46.793 2.571 A 1.767 1.767 0 0 1 47.459 2.053 A 1.832 1.832 0 0 1 48.199 1.907 A 1.905 1.905 0 0 1 48.833 2.004 Q 49.675 2.3 49.718 3.506 A 3.668 3.668 0 0 1 49.72 3.608 L 49.72 6.75 L 48.907 6.75 L 48.907 3.604 A 1.837 1.837 0 0 0 48.885 3.324 Q 48.834 3.017 48.672 2.843 Q 48.486 2.645 48.132 2.606 A 1.66 1.66 0 0 0 47.953 2.597 A 1.253 1.253 0 0 0 47.539 2.664 A 1.123 1.123 0 0 0 47.259 2.808 A 1.432 1.432 0 0 0 46.793 3.362 L 46.793 6.75 L 45.98 6.75 L 45.98 0 L 46.793 0 Z M 76.654 0 L 76.654 2.571 A 1.767 1.767 0 0 1 77.32 2.053 A 1.832 1.832 0 0 1 78.06 1.907 A 1.905 1.905 0 0 1 78.694 2.004 Q 79.535 2.3 79.578 3.506 A 3.668 3.668 0 0 1 79.581 3.608 L 79.581 6.75 L 78.768 6.75 L 78.768 3.604 A 1.837 1.837 0 0 0 78.745 3.324 Q 78.695 3.017 78.533 2.843 Q 78.346 2.645 77.993 2.606 A 1.66 1.66 0 0 0 77.814 2.597 A 1.253 1.253 0 0 0 77.4 2.664 A 1.123 1.123 0 0 0 77.12 2.808 A 1.432 1.432 0 0 0 76.654 3.362 L 76.654 6.75 L 75.841 6.75 L 75.841 0 L 76.654 0 Z M 16.22 6.75 L 16.203 6.28 A 1.526 1.526 0 0 1 15.377 6.775 Q 15.126 6.836 14.829 6.838 A 2.996 2.996 0 0 1 14.81 6.838 A 2.086 2.086 0 0 1 14.35 6.79 Q 13.919 6.693 13.652 6.396 A 1.41 1.41 0 0 1 13.369 5.899 Q 13.252 5.556 13.25 5.089 L 13.25 1.995 L 14.063 1.995 L 14.063 5.067 Q 14.063 6.037 14.77 6.137 A 1.229 1.229 0 0 0 14.941 6.148 A 1.927 1.927 0 0 0 15.392 6.099 Q 15.955 5.964 16.181 5.454 L 16.181 1.995 L 16.994 1.995 L 16.994 6.75 L 16.22 6.75 Z M 44.297 5.251 L 45.066 5.251 A 1.432 1.432 0 0 1 44.867 5.901 A 1.772 1.772 0 0 1 44.785 6.029 A 1.828 1.828 0 0 1 44.175 6.574 A 2.169 2.169 0 0 1 44.093 6.618 A 1.997 1.997 0 0 1 43.176 6.838 A 2.346 2.346 0 0 1 42.479 6.739 A 1.839 1.839 0 0 1 41.632 6.19 A 2.171 2.171 0 0 1 41.168 5.31 Q 41.058 4.909 41.058 4.417 L 41.058 4.28 A 3.24 3.24 0 0 1 41.122 3.624 A 2.57 2.57 0 0 1 41.313 3.045 A 2.008 2.008 0 0 1 41.753 2.431 A 1.892 1.892 0 0 1 42.045 2.206 A 1.943 1.943 0 0 1 42.801 1.934 A 2.529 2.529 0 0 1 43.172 1.907 A 2.196 2.196 0 0 1 43.82 1.999 A 1.786 1.786 0 0 1 44.501 2.386 A 1.693 1.693 0 0 1 45.06 3.535 A 2.239 2.239 0 0 1 45.066 3.63 L 44.297 3.63 Q 44.262 3.168 43.948 2.872 A 1.078 1.078 0 0 0 43.218 2.576 A 1.402 1.402 0 0 0 43.172 2.575 A 1.374 1.374 0 0 0 42.75 2.637 A 1.081 1.081 0 0 0 42.212 3.021 A 1.469 1.469 0 0 0 41.985 3.468 Q 41.919 3.674 41.891 3.923 A 3.514 3.514 0 0 0 41.871 4.311 L 41.871 4.465 Q 41.871 5.287 42.21 5.73 A 1.1 1.1 0 0 0 42.996 6.165 A 1.611 1.611 0 0 0 43.176 6.174 A 1.171 1.171 0 0 0 43.937 5.911 A 1.007 1.007 0 0 0 44.181 5.629 A 0.914 0.914 0 0 0 44.297 5.251 Z M 74.158 5.251 L 74.927 5.251 A 1.432 1.432 0 0 1 74.728 5.901 A 1.772 1.772 0 0 1 74.646 6.029 A 1.828 1.828 0 0 1 74.036 6.574 A 2.169 2.169 0 0 1 73.953 6.618 A 1.997 1.997 0 0 1 73.037 6.838 A 2.346 2.346 0 0 1 72.34 6.739 A 1.839 1.839 0 0 1 71.492 6.19 A 2.171 2.171 0 0 1 71.029 5.31 Q 70.919 4.909 70.919 4.417 L 70.919 4.28 A 3.24 3.24 0 0 1 70.983 3.624 A 2.57 2.57 0 0 1 71.174 3.045 A 2.008 2.008 0 0 1 71.613 2.431 A 1.892 1.892 0 0 1 71.906 2.206 A 1.943 1.943 0 0 1 72.662 1.934 A 2.529 2.529 0 0 1 73.033 1.907 A 2.196 2.196 0 0 1 73.681 1.999 A 1.786 1.786 0 0 1 74.362 2.386 A 1.693 1.693 0 0 1 74.92 3.535 A 2.239 2.239 0 0 1 74.927 3.63 L 74.158 3.63 Q 74.123 3.168 73.808 2.872 A 1.078 1.078 0 0 0 73.079 2.576 A 1.402 1.402 0 0 0 73.033 2.575 A 1.374 1.374 0 0 0 72.611 2.637 A 1.081 1.081 0 0 0 72.073 3.021 A 1.469 1.469 0 0 0 71.846 3.468 Q 71.78 3.674 71.752 3.923 A 3.514 3.514 0 0 0 71.732 4.311 L 71.732 4.465 Q 71.732 5.287 72.07 5.73 A 1.1 1.1 0 0 0 72.857 6.165 A 1.611 1.611 0 0 0 73.037 6.174 A 1.171 1.171 0 0 0 73.797 5.911 A 1.007 1.007 0 0 0 74.041 5.629 A 0.914 0.914 0 0 0 74.158 5.251 Z M 37.2 6.75 L 36.347 6.75 A 0.632 0.632 0 0 1 36.312 6.66 Q 36.28 6.562 36.256 6.41 A 3.997 3.997 0 0 1 36.233 6.249 Q 35.666 6.838 34.879 6.838 A 2.033 2.033 0 0 1 34.35 6.772 A 1.529 1.529 0 0 1 33.726 6.44 Q 33.275 6.042 33.275 5.432 Q 33.275 4.689 33.84 4.278 Q 34.405 3.867 35.429 3.867 L 36.22 3.867 L 36.22 3.494 A 1.152 1.152 0 0 0 36.184 3.199 A 0.828 0.828 0 0 0 35.965 2.815 Q 35.749 2.6 35.358 2.568 A 1.748 1.748 0 0 0 35.213 2.562 Q 34.778 2.562 34.484 2.782 Q 34.19 3.001 34.19 3.313 L 33.372 3.313 A 1.041 1.041 0 0 1 33.497 2.825 A 1.409 1.409 0 0 1 33.625 2.626 Q 33.877 2.294 34.31 2.101 A 2.249 2.249 0 0 1 35.086 1.913 A 2.669 2.669 0 0 1 35.262 1.907 A 2.65 2.65 0 0 1 35.779 1.955 Q 36.086 2.016 36.325 2.156 A 1.439 1.439 0 0 1 36.549 2.318 A 1.396 1.396 0 0 1 37.003 3.144 A 1.998 1.998 0 0 1 37.033 3.45 L 37.033 5.638 Q 37.033 6.073 37.106 6.39 A 1.707 1.707 0 0 0 37.2 6.68 L 37.2 6.75 Z M 67.061 6.75 L 66.208 6.75 A 0.632 0.632 0 0 1 66.173 6.66 Q 66.141 6.562 66.117 6.41 A 3.997 3.997 0 0 1 66.094 6.249 Q 65.527 6.838 64.74 6.838 A 2.033 2.033 0 0 1 64.211 6.772 A 1.529 1.529 0 0 1 63.587 6.44 Q 63.136 6.042 63.136 5.432 Q 63.136 4.689 63.701 4.278 Q 64.266 3.867 65.29 3.867 L 66.081 3.867 L 66.081 3.494 A 1.152 1.152 0 0 0 66.045 3.199 A 0.828 0.828 0 0 0 65.826 2.815 Q 65.609 2.6 65.219 2.568 A 1.748 1.748 0 0 0 65.074 2.562 Q 64.639 2.562 64.345 2.782 Q 64.05 3.001 64.05 3.313 L 63.233 3.313 A 1.041 1.041 0 0 1 63.358 2.825 A 1.409 1.409 0 0 1 63.486 2.626 Q 63.738 2.294 64.171 2.101 A 2.249 2.249 0 0 1 64.947 1.913 A 2.669 2.669 0 0 1 65.123 1.907 A 2.65 2.65 0 0 1 65.64 1.955 Q 65.947 2.016 66.186 2.156 A 1.439 1.439 0 0 1 66.41 2.318 A 1.396 1.396 0 0 1 66.864 3.144 A 1.998 1.998 0 0 1 66.894 3.45 L 66.894 5.638 Q 66.894 6.073 66.967 6.39 A 1.707 1.707 0 0 0 67.061 6.68 L 67.061 6.75 Z M 18.031 4.395 L 18.031 4.333 A 3.762 3.762 0 0 1 18.098 3.602 Q 18.185 3.16 18.388 2.812 A 2.148 2.148 0 0 1 18.549 2.573 Q 19.068 1.907 19.907 1.907 A 1.964 1.964 0 0 1 20.505 1.994 A 1.559 1.559 0 0 1 21.23 2.479 L 21.23 0 L 22.043 0 L 22.043 6.75 L 21.296 6.75 L 21.256 6.24 Q 20.769 6.838 19.898 6.838 A 1.6 1.6 0 0 1 18.678 6.31 A 2.078 2.078 0 0 1 18.552 6.161 A 2.405 2.405 0 0 1 18.127 5.255 Q 18.043 4.912 18.032 4.51 A 4.425 4.425 0 0 1 18.031 4.395 Z M 28.437 4.504 L 28.437 4.355 A 3.17 3.17 0 0 1 28.513 3.646 A 2.581 2.581 0 0 1 28.707 3.092 A 2.191 2.191 0 0 1 29.155 2.466 A 2.033 2.033 0 0 1 29.463 2.221 Q 29.949 1.907 30.516 1.907 A 2.254 2.254 0 0 1 31.129 1.986 A 1.639 1.639 0 0 1 31.957 2.518 Q 32.471 3.129 32.471 4.267 L 32.471 4.605 L 29.25 4.605 A 2.111 2.111 0 0 0 29.321 5.114 A 1.516 1.516 0 0 0 29.661 5.741 A 1.282 1.282 0 0 0 30.595 6.173 A 1.652 1.652 0 0 0 30.661 6.174 A 1.763 1.763 0 0 0 30.989 6.145 Q 31.213 6.103 31.39 5.999 A 1.827 1.827 0 0 0 31.899 5.551 A 2.068 2.068 0 0 0 31.913 5.533 L 32.41 5.919 A 1.926 1.926 0 0 1 31.01 6.811 A 2.749 2.749 0 0 1 30.617 6.838 A 2.394 2.394 0 0 1 29.866 6.725 A 1.974 1.974 0 0 1 29.044 6.203 Q 28.437 5.568 28.437 4.504 Z M 58.298 4.504 L 58.298 4.355 A 3.17 3.17 0 0 1 58.374 3.646 A 2.581 2.581 0 0 1 58.568 3.092 A 2.191 2.191 0 0 1 59.016 2.466 A 2.033 2.033 0 0 1 59.324 2.221 Q 59.81 1.907 60.377 1.907 A 2.254 2.254 0 0 1 60.99 1.986 A 1.639 1.639 0 0 1 61.818 2.518 Q 62.332 3.129 62.332 4.267 L 62.332 4.605 L 59.111 4.605 A 2.111 2.111 0 0 0 59.182 5.114 A 1.516 1.516 0 0 0 59.522 5.741 A 1.282 1.282 0 0 0 60.456 6.173 A 1.652 1.652 0 0 0 60.522 6.174 A 1.763 1.763 0 0 0 60.85 6.145 Q 61.074 6.103 61.251 5.999 A 1.827 1.827 0 0 0 61.76 5.551 A 2.068 2.068 0 0 0 61.774 5.533 L 62.271 5.919 A 1.926 1.926 0 0 1 60.871 6.811 A 2.749 2.749 0 0 1 60.478 6.838 A 2.394 2.394 0 0 1 59.726 6.725 A 1.974 1.974 0 0 1 58.904 6.203 Q 58.298 5.568 58.298 4.504 Z M 6.834 0 L 6.834 6.75 L 6.021 6.75 L 6.021 0 L 6.834 0 Z M 7.919 4.386 L 7.919 4.329 A 3.057 3.057 0 0 1 8.006 3.587 A 2.573 2.573 0 0 1 8.194 3.072 A 2.16 2.16 0 0 1 8.608 2.486 A 1.957 1.957 0 0 1 8.958 2.21 A 2.036 2.036 0 0 1 9.903 1.913 A 2.491 2.491 0 0 1 10.077 1.907 A 2.277 2.277 0 0 1 10.83 2.027 A 1.937 1.937 0 0 1 11.648 2.58 A 2.29 2.29 0 0 1 12.167 3.608 A 3.373 3.373 0 0 1 12.248 4.368 L 12.248 4.425 A 3.114 3.114 0 0 1 12.168 5.142 A 2.577 2.577 0 0 1 11.982 5.671 A 2.056 2.056 0 0 1 11.454 6.361 A 2.001 2.001 0 0 1 11.221 6.53 A 2.045 2.045 0 0 1 10.302 6.829 A 2.529 2.529 0 0 1 10.085 6.838 A 2.262 2.262 0 0 1 9.335 6.718 A 1.938 1.938 0 0 1 8.519 6.166 A 2.297 2.297 0 0 1 7.993 5.111 A 3.357 3.357 0 0 1 7.919 4.386 Z M 40.606 1.969 L 40.606 2.725 A 2.251 2.251 0 0 0 40.363 2.698 A 2.782 2.782 0 0 0 40.206 2.694 Q 39.428 2.694 39.136 3.338 A 1.445 1.445 0 0 0 39.12 3.375 L 39.12 6.75 L 38.307 6.75 L 38.307 1.995 L 39.098 1.995 L 39.111 2.544 Q 39.492 1.938 40.174 1.909 A 1.636 1.636 0 0 1 40.245 1.907 Q 40.482 1.907 40.606 1.969 Z M 70.466 1.969 L 70.466 2.725 A 2.251 2.251 0 0 0 70.224 2.698 A 2.782 2.782 0 0 0 70.066 2.694 Q 69.289 2.694 68.997 3.338 A 1.445 1.445 0 0 0 68.981 3.375 L 68.981 6.75 L 68.168 6.75 L 68.168 1.995 L 68.959 1.995 L 68.972 2.544 Q 69.353 1.938 70.035 1.909 A 1.636 1.636 0 0 1 70.106 1.907 Q 70.343 1.907 70.466 1.969 Z M 8.736 4.425 A 2.772 2.772 0 0 0 8.784 4.954 Q 8.844 5.264 8.981 5.51 A 1.545 1.545 0 0 0 9.103 5.695 Q 9.47 6.174 10.085 6.174 A 1.269 1.269 0 0 0 10.575 6.083 Q 10.854 5.967 11.057 5.706 A 1.471 1.471 0 0 0 11.07 5.689 A 1.648 1.648 0 0 0 11.325 5.171 Q 11.393 4.945 11.419 4.672 A 3.655 3.655 0 0 0 11.435 4.329 A 2.687 2.687 0 0 0 11.383 3.789 Q 11.316 3.459 11.158 3.2 A 1.586 1.586 0 0 0 11.063 3.061 A 1.231 1.231 0 0 0 10.648 2.705 Q 10.395 2.575 10.077 2.575 Q 9.487 2.575 9.121 3.035 A 1.515 1.515 0 0 0 9.106 3.054 A 1.589 1.589 0 0 0 8.853 3.552 Q 8.784 3.772 8.756 4.039 A 3.676 3.676 0 0 0 8.736 4.425 Z M 21.23 5.454 L 21.23 3.27 A 1.375 1.375 0 0 0 20.918 2.874 Q 20.594 2.597 20.109 2.597 A 1.238 1.238 0 0 0 19.683 2.668 A 1.068 1.068 0 0 0 19.178 3.059 A 1.51 1.51 0 0 0 18.969 3.484 Q 18.903 3.689 18.872 3.939 A 3.955 3.955 0 0 0 18.844 4.425 A 3.162 3.162 0 0 0 18.88 4.918 Q 18.921 5.178 19.009 5.389 A 1.474 1.474 0 0 0 19.178 5.691 A 1.06 1.06 0 0 0 19.94 6.139 A 1.391 1.391 0 0 0 20.101 6.148 Q 20.874 6.148 21.23 5.454 Z M 36.22 5.418 L 36.22 4.443 L 35.583 4.443 Q 34.088 4.443 34.088 5.317 Q 34.088 5.7 34.343 5.915 A 0.893 0.893 0 0 0 34.757 6.108 A 1.259 1.259 0 0 0 34.998 6.13 A 1.429 1.429 0 0 0 35.723 5.933 A 1.335 1.335 0 0 0 36.019 5.705 A 1.108 1.108 0 0 0 36.22 5.418 Z M 66.081 5.418 L 66.081 4.443 L 65.443 4.443 Q 63.949 4.443 63.949 5.317 Q 63.949 5.7 64.204 5.915 A 0.893 0.893 0 0 0 64.618 6.108 A 1.259 1.259 0 0 0 64.859 6.13 A 1.429 1.429 0 0 0 65.584 5.933 A 1.335 1.335 0 0 0 65.88 5.705 A 1.108 1.108 0 0 0 66.081 5.418 Z M 29.276 3.938 L 31.658 3.938 L 31.658 3.876 Q 31.632 3.417 31.462 3.111 A 1.13 1.13 0 0 0 31.324 2.916 A 0.983 0.983 0 0 0 30.67 2.584 A 1.39 1.39 0 0 0 30.516 2.575 A 1.106 1.106 0 0 0 29.993 2.698 A 1.14 1.14 0 0 0 29.69 2.933 A 1.417 1.417 0 0 0 29.413 3.379 Q 29.339 3.563 29.299 3.785 A 2.741 2.741 0 0 0 29.276 3.938 Z M 59.137 3.938 L 61.519 3.938 L 61.519 3.876 Q 61.493 3.417 61.322 3.111 A 1.13 1.13 0 0 0 61.185 2.916 A 0.983 0.983 0 0 0 60.531 2.584 A 1.39 1.39 0 0 0 60.377 2.575 A 1.106 1.106 0 0 0 59.854 2.698 A 1.14 1.14 0 0 0 59.55 2.933 A 1.417 1.417 0 0 0 59.274 3.379 Q 59.2 3.563 59.16 3.785 A 2.741 2.741 0 0 0 59.137 3.938 Z" vector-effect="non-scaling-stroke"/></g><g transform="translate(25, 93)" id="svgGroup" stroke-linecap="round" fill-rule="evenodd" font-size="9pt" stroke="#000" stroke-width="0.25mm" fill="#000" style="stroke:#000;stroke-width:0.25mm;fill:#000"><path d="M 20.575 1.995 L 21.344 1.995 L 21.366 2.522 Q 21.889 1.907 22.777 1.907 A 2.009 2.009 0 0 1 23.288 1.968 A 1.244 1.244 0 0 1 24.135 2.672 A 1.801 1.801 0 0 1 24.752 2.118 A 1.65 1.65 0 0 1 25.281 1.937 A 2.209 2.209 0 0 1 25.651 1.907 A 2.119 2.119 0 0 1 26.295 1.997 Q 27.221 2.292 27.242 3.564 L 27.242 6.75 L 26.429 6.75 L 26.429 3.612 A 1.781 1.781 0 0 0 26.408 3.332 Q 26.385 3.185 26.334 3.067 A 0.758 0.758 0 0 0 26.196 2.85 A 0.68 0.68 0 0 0 25.943 2.682 Q 25.732 2.597 25.415 2.597 A 1.245 1.245 0 0 0 25.048 2.648 A 1.008 1.008 0 0 0 24.662 2.867 A 1.042 1.042 0 0 0 24.348 3.404 A 1.41 1.41 0 0 0 24.315 3.595 L 24.315 6.75 L 23.498 6.75 L 23.498 3.634 A 1.532 1.532 0 0 0 23.449 3.23 Q 23.322 2.768 22.865 2.643 A 1.457 1.457 0 0 0 22.482 2.597 Q 21.709 2.597 21.408 3.234 A 1.459 1.459 0 0 0 21.388 3.278 L 21.388 6.75 L 20.575 6.75 L 20.575 1.995 Z M 73.235 0 L 73.235 2.571 A 1.767 1.767 0 0 1 73.901 2.053 A 1.832 1.832 0 0 1 74.641 1.907 A 1.905 1.905 0 0 1 75.275 2.004 Q 76.116 2.3 76.159 3.506 A 3.668 3.668 0 0 1 76.162 3.608 L 76.162 6.75 L 75.349 6.75 L 75.349 3.604 A 1.837 1.837 0 0 0 75.326 3.324 Q 75.276 3.017 75.114 2.843 Q 74.927 2.645 74.574 2.606 A 1.66 1.66 0 0 0 74.395 2.597 A 1.253 1.253 0 0 0 73.981 2.664 A 1.123 1.123 0 0 0 73.701 2.808 A 1.432 1.432 0 0 0 73.235 3.362 L 73.235 6.75 L 72.422 6.75 L 72.422 0 L 73.235 0 Z M 70.414 2.522 L 70.453 1.995 L 71.196 1.995 L 71.196 6.636 A 2.511 2.511 0 0 1 71.125 7.249 A 1.738 1.738 0 0 1 70.649 8.09 A 1.834 1.834 0 0 1 69.719 8.57 A 2.671 2.671 0 0 1 69.179 8.622 A 2.446 2.446 0 0 1 68.172 8.402 A 2.003 2.003 0 0 1 67.762 8.161 A 1.563 1.563 0 0 1 67.421 7.8 L 67.843 7.313 A 1.889 1.889 0 0 0 68.277 7.712 A 1.514 1.514 0 0 0 69.122 7.958 A 1.695 1.695 0 0 0 69.499 7.919 Q 69.767 7.858 69.961 7.702 A 1.037 1.037 0 0 0 70.047 7.625 A 1.09 1.09 0 0 0 70.324 7.132 Q 70.371 6.959 70.377 6.752 A 2.134 2.134 0 0 0 70.378 6.684 L 70.378 6.275 A 1.601 1.601 0 0 1 69.326 6.821 A 2.279 2.279 0 0 1 69.047 6.838 A 1.672 1.672 0 0 1 68.292 6.67 Q 67.97 6.51 67.72 6.197 A 2.14 2.14 0 0 1 67.696 6.166 A 2.316 2.316 0 0 1 67.312 5.386 Q 67.179 4.922 67.179 4.333 Q 67.179 3.472 67.488 2.884 A 2.096 2.096 0 0 1 67.693 2.564 Q 68.208 1.907 69.056 1.907 A 1.971 1.971 0 0 1 69.654 1.994 A 1.55 1.55 0 0 1 70.414 2.522 Z M 44.679 3.393 L 43.862 3.393 Q 43.862 3.059 43.578 2.817 Q 43.295 2.575 42.864 2.575 Q 42.42 2.575 42.17 2.769 A 0.653 0.653 0 0 0 41.995 2.967 Q 41.922 3.098 41.92 3.263 A 0.771 0.771 0 0 0 41.919 3.274 A 0.588 0.588 0 0 0 41.95 3.467 A 0.48 0.48 0 0 0 42.152 3.718 A 1.093 1.093 0 0 0 42.303 3.796 Q 42.467 3.868 42.722 3.937 A 6.581 6.581 0 0 0 42.994 4.003 A 6.318 6.318 0 0 1 43.402 4.108 Q 43.738 4.208 43.98 4.329 A 1.901 1.901 0 0 1 44.236 4.481 Q 44.373 4.579 44.471 4.692 A 1.06 1.06 0 0 1 44.541 4.783 A 1.024 1.024 0 0 1 44.703 5.191 A 1.388 1.388 0 0 1 44.723 5.432 Q 44.723 6.069 44.213 6.453 Q 43.731 6.817 42.977 6.837 A 3.337 3.337 0 0 1 42.891 6.838 A 2.746 2.746 0 0 1 42.356 6.788 A 2.124 2.124 0 0 1 41.88 6.636 A 1.771 1.771 0 0 1 41.446 6.358 A 1.54 1.54 0 0 1 41.192 6.071 Q 40.944 5.708 40.944 5.287 L 41.757 5.287 A 0.932 0.932 0 0 0 41.83 5.612 A 0.827 0.827 0 0 0 42.084 5.935 A 1.072 1.072 0 0 0 42.486 6.128 Q 42.641 6.167 42.822 6.173 A 2.013 2.013 0 0 0 42.891 6.174 A 1.863 1.863 0 0 0 43.186 6.152 Q 43.348 6.126 43.479 6.07 A 0.941 0.941 0 0 0 43.631 5.988 A 0.689 0.689 0 0 0 43.796 5.837 A 0.554 0.554 0 0 0 43.91 5.489 A 0.698 0.698 0 0 0 43.874 5.258 A 0.581 0.581 0 0 0 43.662 4.977 A 1.05 1.05 0 0 0 43.493 4.878 Q 43.304 4.788 43.009 4.712 A 5.392 5.392 0 0 0 42.796 4.663 A 6.342 6.342 0 0 1 42.435 4.575 Q 42.065 4.473 41.816 4.346 Q 41.517 4.194 41.347 3.994 A 1.017 1.017 0 0 1 41.28 3.907 Q 41.106 3.652 41.106 3.3 A 1.206 1.206 0 0 1 41.506 2.396 A 1.694 1.694 0 0 1 41.601 2.312 A 1.752 1.752 0 0 1 42.384 1.952 A 2.471 2.471 0 0 1 42.864 1.907 A 2.559 2.559 0 0 1 43.428 1.966 A 1.757 1.757 0 0 1 44.176 2.325 Q 44.679 2.742 44.679 3.393 Z M 33.236 1.995 L 34.005 1.995 L 34.031 2.593 Q 34.568 1.918 35.427 1.907 A 2.234 2.234 0 0 1 35.455 1.907 A 1.905 1.905 0 0 1 36.089 2.004 Q 36.93 2.3 36.973 3.506 A 3.668 3.668 0 0 1 36.976 3.608 L 36.976 6.75 L 36.163 6.75 L 36.163 3.604 A 1.837 1.837 0 0 0 36.14 3.324 Q 36.09 3.017 35.927 2.843 Q 35.741 2.645 35.388 2.606 A 1.66 1.66 0 0 0 35.209 2.597 A 1.253 1.253 0 0 0 34.795 2.664 A 1.123 1.123 0 0 0 34.515 2.808 A 1.432 1.432 0 0 0 34.049 3.362 L 34.049 6.75 L 33.236 6.75 L 33.236 1.995 Z M 18.571 6.75 L 18.554 6.28 A 1.526 1.526 0 0 1 17.728 6.775 Q 17.477 6.836 17.18 6.838 A 2.996 2.996 0 0 1 17.161 6.838 A 2.086 2.086 0 0 1 16.701 6.79 Q 16.27 6.693 16.003 6.396 A 1.41 1.41 0 0 1 15.72 5.899 Q 15.603 5.556 15.601 5.089 L 15.601 1.995 L 16.414 1.995 L 16.414 5.067 Q 16.414 6.037 17.121 6.137 A 1.229 1.229 0 0 0 17.292 6.148 A 1.927 1.927 0 0 0 17.743 6.099 Q 18.306 5.964 18.532 5.454 L 18.532 1.995 L 19.345 1.995 L 19.345 6.75 L 18.571 6.75 Z M 13.935 5.251 L 14.704 5.251 A 1.432 1.432 0 0 1 14.505 5.901 A 1.772 1.772 0 0 1 14.423 6.029 A 1.828 1.828 0 0 1 13.814 6.574 A 2.169 2.169 0 0 1 13.731 6.618 A 1.997 1.997 0 0 1 12.814 6.838 A 2.346 2.346 0 0 1 12.117 6.739 A 1.839 1.839 0 0 1 11.27 6.19 A 2.171 2.171 0 0 1 10.806 5.31 Q 10.696 4.909 10.696 4.417 L 10.696 4.28 A 3.24 3.24 0 0 1 10.76 3.624 A 2.57 2.57 0 0 1 10.951 3.045 A 2.008 2.008 0 0 1 11.391 2.431 A 1.892 1.892 0 0 1 11.683 2.206 A 1.943 1.943 0 0 1 12.439 1.934 A 2.529 2.529 0 0 1 12.81 1.907 A 2.196 2.196 0 0 1 13.458 1.999 A 1.786 1.786 0 0 1 14.139 2.386 A 1.693 1.693 0 0 1 14.698 3.535 A 2.239 2.239 0 0 1 14.704 3.63 L 13.935 3.63 Q 13.9 3.168 13.586 2.872 A 1.078 1.078 0 0 0 12.857 2.576 A 1.402 1.402 0 0 0 12.81 2.575 A 1.374 1.374 0 0 0 12.389 2.637 A 1.081 1.081 0 0 0 11.85 3.021 A 1.469 1.469 0 0 0 11.623 3.468 Q 11.557 3.674 11.53 3.923 A 3.514 3.514 0 0 0 11.509 4.311 L 11.509 4.465 Q 11.509 5.287 11.848 5.73 A 1.1 1.1 0 0 0 12.634 6.165 A 1.611 1.611 0 0 0 12.814 6.174 A 1.171 1.171 0 0 0 13.575 5.911 A 1.007 1.007 0 0 0 13.819 5.629 A 0.914 0.914 0 0 0 13.935 5.251 Z M 28.261 4.504 L 28.261 4.355 A 3.17 3.17 0 0 1 28.338 3.646 A 2.581 2.581 0 0 1 28.531 3.092 A 2.191 2.191 0 0 1 28.979 2.466 A 2.033 2.033 0 0 1 29.287 2.221 Q 29.773 1.907 30.34 1.907 A 2.254 2.254 0 0 1 30.953 1.986 A 1.639 1.639 0 0 1 31.781 2.518 Q 32.295 3.129 32.295 4.267 L 32.295 4.605 L 29.074 4.605 A 2.111 2.111 0 0 0 29.145 5.114 A 1.516 1.516 0 0 0 29.485 5.741 A 1.282 1.282 0 0 0 30.419 6.173 A 1.652 1.652 0 0 0 30.485 6.174 A 1.763 1.763 0 0 0 30.813 6.145 Q 31.037 6.103 31.214 5.999 A 1.827 1.827 0 0 0 31.723 5.551 A 2.068 2.068 0 0 0 31.737 5.533 L 32.234 5.919 A 1.926 1.926 0 0 1 30.834 6.811 A 2.749 2.749 0 0 1 30.441 6.838 A 2.394 2.394 0 0 1 29.69 6.725 A 1.974 1.974 0 0 1 28.868 6.203 Q 28.261 5.568 28.261 4.504 Z M 61.321 0.352 L 61.321 6.06 L 64.354 6.06 L 64.354 6.75 L 60.473 6.75 L 60.473 0.352 L 61.321 0.352 Z M 51.359 0.352 L 51.359 4.601 L 52.247 4.601 L 52.247 5.265 L 51.359 5.265 L 51.359 6.75 L 50.542 6.75 L 50.542 5.265 L 47.628 5.265 L 47.628 4.786 L 50.493 0.352 L 51.359 0.352 Z M 1.771 6.75 L 0 6.75 L 0 0.352 L 1.806 0.352 Q 2.641 0.352 3.283 0.721 Q 3.924 1.09 4.274 1.771 A 3.19 3.19 0 0 1 4.591 2.8 A 4.073 4.073 0 0 1 4.627 3.335 L 4.627 3.744 Q 4.627 4.649 4.278 5.331 A 2.457 2.457 0 0 1 3.281 6.376 Q 2.632 6.741 1.771 6.75 Z M 56.757 2.592 A 1.544 1.544 0 0 0 56.861 2.021 A 2.226 2.226 0 0 0 56.839 1.707 A 1.566 1.566 0 0 0 56.34 0.738 A 1.754 1.754 0 0 0 55.574 0.333 A 2.443 2.443 0 0 0 54.976 0.264 A 2.539 2.539 0 0 0 54.466 0.312 A 1.767 1.767 0 0 0 53.609 0.738 Q 53.09 1.213 53.09 2.021 A 1.808 1.808 0 0 0 53.091 2.058 A 1.499 1.499 0 0 0 53.336 2.87 A 1.626 1.626 0 0 0 53.498 3.077 A 1.726 1.726 0 0 0 54.009 3.454 A 2.119 2.119 0 0 0 53.909 3.5 A 1.738 1.738 0 0 0 53.224 4.087 A 1.629 1.629 0 0 0 52.941 5.023 A 2.272 2.272 0 0 0 52.951 5.237 A 1.63 1.63 0 0 0 53.497 6.344 A 1.895 1.895 0 0 0 54.347 6.771 A 2.797 2.797 0 0 0 54.976 6.838 A 2.796 2.796 0 0 0 55.575 6.777 A 1.925 1.925 0 0 0 56.45 6.346 A 1.578 1.578 0 0 0 56.925 5.62 A 1.989 1.989 0 0 0 57.01 5.023 A 1.581 1.581 0 0 0 56.718 4.087 Q 56.426 3.674 55.925 3.458 Q 56.355 3.248 56.608 2.874 A 1.449 1.449 0 0 0 56.757 2.592 Z M 38.492 0.844 L 39.305 0.844 L 39.305 1.995 L 40.192 1.995 L 40.192 2.624 L 39.305 2.624 L 39.305 5.572 Q 39.305 5.858 39.423 6.001 Q 39.542 6.144 39.828 6.144 A 1.046 1.046 0 0 0 39.925 6.138 Q 40.028 6.129 40.168 6.101 A 4.024 4.024 0 0 0 40.214 6.091 L 40.214 6.75 A 2.463 2.463 0 0 1 39.782 6.829 A 2.157 2.157 0 0 1 39.59 6.838 Q 39.143 6.838 38.877 6.616 A 0.856 0.856 0 0 1 38.769 6.508 Q 38.541 6.238 38.501 5.78 A 2.351 2.351 0 0 1 38.492 5.572 L 38.492 2.624 L 37.626 2.624 L 37.626 1.995 L 38.492 1.995 L 38.492 0.844 Z M 77.669 0.844 L 78.482 0.844 L 78.482 1.995 L 79.37 1.995 L 79.37 2.624 L 78.482 2.624 L 78.482 5.572 Q 78.482 5.858 78.601 6.001 Q 78.719 6.144 79.005 6.144 A 1.046 1.046 0 0 0 79.102 6.138 Q 79.205 6.129 79.345 6.101 A 4.024 4.024 0 0 0 79.392 6.091 L 79.392 6.75 A 2.463 2.463 0 0 1 78.959 6.829 A 2.157 2.157 0 0 1 78.768 6.838 Q 78.32 6.838 78.054 6.616 A 0.856 0.856 0 0 1 77.946 6.508 Q 77.718 6.238 77.678 5.78 A 2.351 2.351 0 0 1 77.669 5.572 L 77.669 2.624 L 76.803 2.624 L 76.803 1.995 L 77.669 1.995 L 77.669 0.844 Z M 5.559 4.386 L 5.559 4.329 A 3.057 3.057 0 0 1 5.646 3.587 A 2.573 2.573 0 0 1 5.834 3.072 A 2.16 2.16 0 0 1 6.248 2.486 A 1.957 1.957 0 0 1 6.598 2.21 A 2.036 2.036 0 0 1 7.543 1.913 A 2.491 2.491 0 0 1 7.717 1.907 A 2.277 2.277 0 0 1 8.47 2.027 A 1.937 1.937 0 0 1 9.288 2.58 A 2.29 2.29 0 0 1 9.807 3.608 A 3.373 3.373 0 0 1 9.888 4.368 L 9.888 4.425 A 3.114 3.114 0 0 1 9.808 5.142 A 2.577 2.577 0 0 1 9.622 5.671 A 2.056 2.056 0 0 1 9.094 6.361 A 2.001 2.001 0 0 1 8.862 6.53 A 2.045 2.045 0 0 1 7.942 6.829 A 2.529 2.529 0 0 1 7.726 6.838 A 2.262 2.262 0 0 1 6.975 6.718 A 1.938 1.938 0 0 1 6.159 6.166 A 2.297 2.297 0 0 1 5.633 5.111 A 3.357 3.357 0 0 1 5.559 4.386 Z M 1.828 1.046 L 0.844 1.046 L 0.844 6.06 L 1.731 6.06 A 2.519 2.519 0 0 0 2.364 5.985 A 1.747 1.747 0 0 0 3.25 5.454 Q 3.709 4.94 3.78 4.059 A 4.165 4.165 0 0 0 3.792 3.727 L 3.792 3.353 Q 3.792 2.562 3.523 2.027 A 1.864 1.864 0 0 0 3.281 1.659 A 1.687 1.687 0 0 0 2.285 1.09 A 2.499 2.499 0 0 0 1.828 1.046 Z M 66.072 1.995 L 66.072 6.75 L 65.259 6.75 L 65.259 1.995 L 66.072 1.995 Z M 6.376 4.425 A 2.772 2.772 0 0 0 6.424 4.954 Q 6.484 5.264 6.622 5.51 A 1.545 1.545 0 0 0 6.743 5.695 Q 7.11 6.174 7.726 6.174 A 1.269 1.269 0 0 0 8.215 6.083 Q 8.494 5.967 8.697 5.706 A 1.471 1.471 0 0 0 8.71 5.689 A 1.648 1.648 0 0 0 8.965 5.171 Q 9.034 4.945 9.059 4.672 A 3.655 3.655 0 0 0 9.075 4.329 A 2.687 2.687 0 0 0 9.024 3.789 Q 8.956 3.459 8.799 3.2 A 1.586 1.586 0 0 0 8.703 3.061 A 1.231 1.231 0 0 0 8.288 2.705 Q 8.035 2.575 7.717 2.575 Q 7.127 2.575 6.761 3.035 A 1.515 1.515 0 0 0 6.746 3.054 A 1.589 1.589 0 0 0 6.493 3.552 Q 6.424 3.772 6.396 4.039 A 3.676 3.676 0 0 0 6.376 4.425 Z M 70.378 5.449 L 70.378 3.278 A 1.439 1.439 0 0 0 70.077 2.891 Q 69.774 2.62 69.333 2.599 A 1.578 1.578 0 0 0 69.258 2.597 Q 68.666 2.597 68.332 3.056 A 1.51 1.51 0 0 0 68.121 3.484 Q 68.056 3.689 68.024 3.939 A 3.955 3.955 0 0 0 67.997 4.425 Q 67.997 5.229 68.326 5.689 Q 68.656 6.148 69.249 6.148 A 1.32 1.32 0 0 0 69.759 6.054 Q 70.15 5.891 70.378 5.449 Z M 50.445 1.639 L 48.551 4.601 L 50.542 4.601 L 50.542 1.463 L 50.445 1.639 Z M 56.197 5.005 A 1.375 1.375 0 0 0 56.138 4.592 A 1.109 1.109 0 0 0 55.857 4.131 A 1.148 1.148 0 0 0 55.185 3.807 A 1.593 1.593 0 0 0 54.967 3.792 A 1.466 1.466 0 0 0 54.578 3.841 A 1.086 1.086 0 0 0 54.086 4.126 A 1.123 1.123 0 0 0 53.772 4.762 A 1.572 1.572 0 0 0 53.754 5.005 A 1.48 1.48 0 0 0 53.796 5.367 A 1.019 1.019 0 0 0 54.077 5.862 Q 54.383 6.158 54.916 6.173 A 2.053 2.053 0 0 0 54.976 6.174 Q 55.469 6.174 55.779 5.94 A 1.018 1.018 0 0 0 55.872 5.86 A 1.041 1.041 0 0 0 56.171 5.292 A 1.518 1.518 0 0 0 56.197 5.005 Z M 54.976 0.932 A 1.259 1.259 0 0 0 54.623 0.979 A 0.973 0.973 0 0 0 54.2 1.228 Q 53.903 1.525 53.903 2.035 A 1.325 1.325 0 0 0 53.948 2.387 A 0.994 0.994 0 0 0 54.196 2.823 A 0.974 0.974 0 0 0 54.758 3.108 A 1.382 1.382 0 0 0 54.976 3.125 A 1.279 1.279 0 0 0 55.32 3.08 A 0.952 0.952 0 0 0 55.756 2.823 A 1.018 1.018 0 0 0 56.031 2.26 A 1.426 1.426 0 0 0 56.048 2.035 A 1.282 1.282 0 0 0 55.998 1.668 A 1.013 1.013 0 0 0 55.745 1.239 Q 55.441 0.932 54.976 0.932 Z M 29.101 3.938 L 31.482 3.938 L 31.482 3.876 Q 31.456 3.417 31.286 3.111 A 1.13 1.13 0 0 0 31.148 2.916 A 0.983 0.983 0 0 0 30.494 2.584 A 1.39 1.39 0 0 0 30.34 2.575 A 1.106 1.106 0 0 0 29.817 2.698 A 1.14 1.14 0 0 0 29.514 2.933 A 1.417 1.417 0 0 0 29.237 3.379 Q 29.163 3.563 29.123 3.785 A 2.741 2.741 0 0 0 29.101 3.938 Z M 65.193 0.734 Q 65.193 0.536 65.314 0.4 Q 65.426 0.274 65.637 0.264 A 0.783 0.783 0 0 1 65.672 0.264 Q 65.909 0.264 66.032 0.4 A 0.474 0.474 0 0 1 66.155 0.703 A 0.614 0.614 0 0 1 66.155 0.734 A 0.523 0.523 0 0 1 66.13 0.9 A 0.442 0.442 0 0 1 66.032 1.063 Q 65.92 1.184 65.712 1.194 A 0.803 0.803 0 0 1 65.672 1.195 Q 65.5 1.195 65.389 1.126 A 0.362 0.362 0 0 1 65.314 1.063 A 0.456 0.456 0 0 1 65.195 0.788 A 0.605 0.605 0 0 1 65.193 0.734 Z" vector-effect="non-scaling-stroke"/></g>
</svg>