<?xml version="1.0" encoding="UTF-8"?>
<svg width="48px" height="48px" viewBox="0 0 48 48" version="1.1" xmlns="http://www.w3.org/2000/svg" xmlns:xlink="http://www.w3.org/1999/xlink">
    <title>Icon-Resource/General-Resource/Res_Source-Code_48_Light</title>
    <g id="Icon-Resource/General-Resource/Res_Source-Code_48" stroke="none" stroke-width="1" fill="none" fill-rule="evenodd">
        <path transform="translate(12.000000, 8.000000), scale(.65)" d="M25.0518,19.684 L26.9478,20.317 L22.9478,32.317 L21.0518,31.684 L25.0518,19.684 Z M34.6248,25.22 C34.8628,25.409 34.9998,25.697 34.9998,26 C34.9998,26.304 34.8628,26.592 34.6248,26.781 L29.6248,30.781 L28.3748,29.22 L32.3998,26 L28.3748,22.781 L29.6248,21.22 L34.6248,25.22 Z M19.6248,22.781 L15.6008,26 L19.6248,29.22 L18.3748,30.781 L13.3748,26.781 C13.1378,26.592 12.9998,26.304 12.9998,26 C12.9998,25.697 13.1378,25.409 13.3748,25.22 L18.3748,21.22 L19.6248,22.781 Z M9.9998,44 L10.0068,4 L27.9998,4 L27.9998,13 C27.9998,13.552 28.4478,14 28.9998,14 L37.9998,14 L37.9998,44 L9.9998,44 Z M29.9998,5.414 L36.5858,12 L29.9998,12 L29.9998,5.414 Z M39.7068,12.293 L29.7068,2.293 C29.5198,2.105 29.2658,2 28.9998,2 L9.9998,2 C8.8228,2 7.9998,2.822 7.9998,4 L7.9998,44 C7.9998,45.14 8.8598,46 9.9998,46 L37.9998,46 C39.1408,46 39.9998,45.14 39.9998,44 L39.9998,13 C39.9998,12.734 39.8948,12.48 39.7068,12.293 L39.7068,12.293 Z" id="Fill-1" fill="#000000"></path>
    </g><g transform="translate(25, 83)" id="svgGroup" stroke-linecap="round" fill-rule="evenodd" font-size="9pt" stroke="#000" stroke-width="0.25mm" fill="#000" style="stroke:#000;stroke-width:0.25mm;fill:#000"><path d="M 21.428 1.938 L 20.58 1.938 A 1.466 1.466 0 0 0 20.53 1.546 A 1.066 1.066 0 0 0 20.21 1.026 A 1.211 1.211 0 0 0 19.741 0.77 Q 19.489 0.694 19.169 0.694 A 2.286 2.286 0 0 0 18.789 0.724 Q 18.587 0.758 18.425 0.831 A 1.101 1.101 0 0 0 18.196 0.969 A 0.892 0.892 0 0 0 17.851 1.624 A 1.267 1.267 0 0 0 17.846 1.732 A 0.806 0.806 0 0 0 18.114 2.337 A 1.134 1.134 0 0 0 18.178 2.393 A 1.562 1.562 0 0 0 18.416 2.549 Q 18.747 2.73 19.307 2.887 A 8.228 8.228 0 0 1 19.772 3.032 Q 20.007 3.113 20.202 3.2 A 3.297 3.297 0 0 1 20.555 3.382 A 2.342 2.342 0 0 1 20.894 3.626 Q 21.084 3.792 21.206 3.985 A 1.45 1.45 0 0 1 21.223 4.012 A 1.498 1.498 0 0 1 21.42 4.568 A 1.948 1.948 0 0 1 21.441 4.86 A 1.606 1.606 0 0 1 21.319 5.497 Q 21.173 5.838 20.855 6.09 A 1.886 1.886 0 0 1 20.834 6.106 Q 20.228 6.574 19.213 6.574 A 3.023 3.023 0 0 1 18.072 6.36 A 2.917 2.917 0 0 1 17.982 6.322 A 2.383 2.383 0 0 1 17.504 6.044 A 1.874 1.874 0 0 1 17.101 5.629 A 1.689 1.689 0 0 1 16.792 4.632 L 17.64 4.632 A 1.261 1.261 0 0 0 17.709 5.059 A 1.074 1.074 0 0 0 18.068 5.548 Q 18.453 5.85 19.069 5.881 A 2.87 2.87 0 0 0 19.213 5.884 A 2.628 2.628 0 0 0 19.6 5.858 Q 19.796 5.828 19.955 5.767 A 1.129 1.129 0 0 0 20.237 5.612 Q 20.593 5.339 20.593 4.869 A 1.074 1.074 0 0 0 20.55 4.559 A 0.816 0.816 0 0 0 20.263 4.142 Q 19.934 3.885 19.068 3.634 Q 17.982 3.322 17.488 2.868 Q 16.994 2.413 16.994 1.745 Q 16.994 0.989 17.598 0.494 A 2.121 2.121 0 0 1 18.488 0.071 A 3.087 3.087 0 0 1 19.169 0 A 2.913 2.913 0 0 1 19.829 0.072 A 2.372 2.372 0 0 1 20.344 0.255 A 2.051 2.051 0 0 1 20.876 0.626 A 1.834 1.834 0 0 1 21.144 0.958 A 1.798 1.798 0 0 1 21.428 1.938 Z M 3.74 6.486 L 2.351 3.898 L 0.848 3.898 L 0.848 6.486 L 0 6.486 L 0 0.088 L 2.118 0.088 A 3.809 3.809 0 0 1 2.76 0.138 Q 3.102 0.197 3.376 0.324 A 1.789 1.789 0 0 1 3.781 0.58 A 1.588 1.588 0 0 1 4.307 1.469 A 2.453 2.453 0 0 1 4.364 2.013 A 1.864 1.864 0 0 1 4.273 2.604 A 1.64 1.64 0 0 1 4.041 3.054 A 1.849 1.849 0 0 1 3.382 3.611 A 2.342 2.342 0 0 1 3.142 3.718 L 4.645 6.434 L 4.645 6.486 L 3.74 6.486 Z M 13.724 3.129 L 12.907 3.129 Q 12.907 2.795 12.623 2.553 Q 12.34 2.312 11.909 2.312 Q 11.465 2.312 11.215 2.505 A 0.653 0.653 0 0 0 11.04 2.704 Q 10.967 2.835 10.964 3 A 0.771 0.771 0 0 0 10.964 3.01 A 0.588 0.588 0 0 0 10.994 3.203 A 0.48 0.48 0 0 0 11.197 3.454 A 1.093 1.093 0 0 0 11.348 3.533 Q 11.512 3.605 11.767 3.673 A 6.581 6.581 0 0 0 12.039 3.74 A 6.318 6.318 0 0 1 12.446 3.845 Q 12.783 3.944 13.025 4.065 A 1.901 1.901 0 0 1 13.281 4.218 Q 13.418 4.315 13.516 4.429 A 1.06 1.06 0 0 1 13.586 4.52 A 1.024 1.024 0 0 1 13.748 4.927 A 1.388 1.388 0 0 1 13.768 5.168 Q 13.768 5.805 13.258 6.19 Q 12.776 6.554 12.022 6.573 A 3.337 3.337 0 0 1 11.936 6.574 A 2.746 2.746 0 0 1 11.401 6.525 A 2.124 2.124 0 0 1 10.925 6.372 A 1.771 1.771 0 0 1 10.491 6.094 A 1.54 1.54 0 0 1 10.237 5.807 Q 9.989 5.445 9.989 5.023 L 10.802 5.023 A 0.932 0.932 0 0 0 10.875 5.348 A 0.827 0.827 0 0 0 11.129 5.671 A 1.072 1.072 0 0 0 11.531 5.864 Q 11.686 5.903 11.867 5.91 A 2.013 2.013 0 0 0 11.936 5.911 A 1.863 1.863 0 0 0 12.231 5.889 Q 12.393 5.863 12.524 5.806 A 0.941 0.941 0 0 0 12.676 5.724 A 0.689 0.689 0 0 0 12.841 5.574 A 0.554 0.554 0 0 0 12.955 5.225 A 0.698 0.698 0 0 0 12.919 4.994 A 0.581 0.581 0 0 0 12.707 4.713 A 1.05 1.05 0 0 0 12.538 4.615 Q 12.349 4.524 12.054 4.449 A 5.392 5.392 0 0 0 11.841 4.399 A 6.342 6.342 0 0 1 11.48 4.311 Q 11.11 4.209 10.861 4.083 Q 10.562 3.93 10.392 3.731 A 1.017 1.017 0 0 1 10.325 3.643 Q 10.151 3.388 10.151 3.037 A 1.206 1.206 0 0 1 10.55 2.132 A 1.694 1.694 0 0 1 10.646 2.048 A 1.752 1.752 0 0 1 11.429 1.688 A 2.471 2.471 0 0 1 11.909 1.644 A 2.559 2.559 0 0 1 12.473 1.702 A 1.757 1.757 0 0 1 13.221 2.061 Q 13.724 2.479 13.724 3.129 Z M 30.48 6.486 L 30.463 6.016 A 1.526 1.526 0 0 1 29.637 6.511 Q 29.386 6.572 29.089 6.574 A 2.996 2.996 0 0 1 29.07 6.574 A 2.086 2.086 0 0 1 28.61 6.527 Q 28.179 6.429 27.912 6.133 A 1.41 1.41 0 0 1 27.629 5.635 Q 27.512 5.292 27.51 4.825 L 27.51 1.732 L 28.323 1.732 L 28.323 4.803 Q 28.323 5.773 29.03 5.873 A 1.229 1.229 0 0 0 29.202 5.884 A 1.927 1.927 0 0 0 29.653 5.835 Q 30.215 5.7 30.441 5.19 L 30.441 1.732 L 31.254 1.732 L 31.254 6.486 L 30.48 6.486 Z M 38.479 4.988 L 39.248 4.988 A 1.432 1.432 0 0 1 39.048 5.638 A 1.772 1.772 0 0 1 38.966 5.766 A 1.828 1.828 0 0 1 38.357 6.31 A 2.169 2.169 0 0 1 38.274 6.355 A 1.997 1.997 0 0 1 37.358 6.574 A 2.346 2.346 0 0 1 36.661 6.476 A 1.839 1.839 0 0 1 35.813 5.926 A 2.171 2.171 0 0 1 35.35 5.046 Q 35.24 4.645 35.24 4.153 L 35.24 4.017 A 3.24 3.24 0 0 1 35.303 3.361 A 2.57 2.57 0 0 1 35.495 2.782 A 2.008 2.008 0 0 1 35.934 2.168 A 1.892 1.892 0 0 1 36.226 1.942 A 1.943 1.943 0 0 1 36.983 1.67 A 2.529 2.529 0 0 1 37.354 1.644 A 2.196 2.196 0 0 1 38.002 1.735 A 1.786 1.786 0 0 1 38.683 2.123 A 1.693 1.693 0 0 1 39.241 3.272 A 2.239 2.239 0 0 1 39.248 3.366 L 38.479 3.366 Q 38.443 2.905 38.129 2.608 A 1.078 1.078 0 0 0 37.4 2.312 A 1.402 1.402 0 0 0 37.354 2.312 A 1.374 1.374 0 0 0 36.932 2.373 A 1.081 1.081 0 0 0 36.393 2.758 A 1.469 1.469 0 0 0 36.167 3.205 Q 36.101 3.41 36.073 3.66 A 3.514 3.514 0 0 0 36.053 4.047 L 36.053 4.201 Q 36.053 5.023 36.391 5.467 A 1.1 1.1 0 0 0 37.178 5.901 A 1.611 1.611 0 0 0 37.358 5.911 A 1.171 1.171 0 0 0 38.118 5.647 A 1.007 1.007 0 0 0 38.362 5.366 A 0.914 0.914 0 0 0 38.479 4.988 Z M 5.212 4.241 L 5.212 4.091 A 3.17 3.17 0 0 1 5.288 3.382 A 2.581 2.581 0 0 1 5.482 2.828 A 2.191 2.191 0 0 1 5.93 2.202 A 2.033 2.033 0 0 1 6.238 1.958 Q 6.724 1.644 7.291 1.644 A 2.254 2.254 0 0 1 7.904 1.723 A 1.639 1.639 0 0 1 8.732 2.254 Q 9.246 2.865 9.246 4.003 L 9.246 4.342 L 6.025 4.342 A 2.111 2.111 0 0 0 6.096 4.85 A 1.516 1.516 0 0 0 6.436 5.478 A 1.282 1.282 0 0 0 7.37 5.909 A 1.652 1.652 0 0 0 7.436 5.911 A 1.763 1.763 0 0 0 7.764 5.882 Q 7.988 5.839 8.165 5.735 A 1.827 1.827 0 0 0 8.674 5.287 A 2.068 2.068 0 0 0 8.688 5.269 L 9.185 5.656 A 1.926 1.926 0 0 1 7.785 6.547 A 2.749 2.749 0 0 1 7.392 6.574 A 2.394 2.394 0 0 1 6.64 6.461 A 1.974 1.974 0 0 1 5.818 5.939 Q 5.212 5.304 5.212 4.241 Z M 39.955 4.241 L 39.955 4.091 A 3.17 3.17 0 0 1 40.031 3.382 A 2.581 2.581 0 0 1 40.225 2.828 A 2.191 2.191 0 0 1 40.673 2.202 A 2.033 2.033 0 0 1 40.981 1.958 Q 41.467 1.644 42.034 1.644 A 2.254 2.254 0 0 1 42.647 1.723 A 1.639 1.639 0 0 1 43.475 2.254 Q 43.989 2.865 43.989 4.003 L 43.989 4.342 L 40.768 4.342 A 2.111 2.111 0 0 0 40.839 4.85 A 1.516 1.516 0 0 0 41.179 5.478 A 1.282 1.282 0 0 0 42.113 5.909 A 1.652 1.652 0 0 0 42.179 5.911 A 1.763 1.763 0 0 0 42.507 5.882 Q 42.731 5.839 42.908 5.735 A 1.827 1.827 0 0 0 43.417 5.287 A 2.068 2.068 0 0 0 43.431 5.269 L 43.928 5.656 A 1.926 1.926 0 0 1 42.528 6.547 A 2.749 2.749 0 0 1 42.135 6.574 A 2.394 2.394 0 0 1 41.384 6.461 A 1.974 1.974 0 0 1 40.562 5.939 Q 39.955 5.304 39.955 4.241 Z M 22.179 4.122 L 22.179 4.065 A 3.057 3.057 0 0 1 22.266 3.323 A 2.573 2.573 0 0 1 22.454 2.808 A 2.16 2.16 0 0 1 22.869 2.223 A 1.957 1.957 0 0 1 23.219 1.947 A 2.036 2.036 0 0 1 24.163 1.65 A 2.491 2.491 0 0 1 24.337 1.644 A 2.277 2.277 0 0 1 25.09 1.763 A 1.937 1.937 0 0 1 25.908 2.316 A 2.29 2.29 0 0 1 26.427 3.345 A 3.373 3.373 0 0 1 26.508 4.105 L 26.508 4.162 A 3.114 3.114 0 0 1 26.428 4.878 A 2.577 2.577 0 0 1 26.242 5.408 A 2.056 2.056 0 0 1 25.715 6.098 A 2.001 2.001 0 0 1 25.482 6.267 A 2.045 2.045 0 0 1 24.562 6.565 A 2.529 2.529 0 0 1 24.346 6.574 A 2.262 2.262 0 0 1 23.595 6.455 A 1.938 1.938 0 0 1 22.779 5.902 A 2.297 2.297 0 0 1 22.253 4.847 A 3.357 3.357 0 0 1 22.179 4.122 Z M 34.787 1.705 L 34.787 2.461 A 2.251 2.251 0 0 0 34.544 2.435 A 2.782 2.782 0 0 0 34.387 2.43 Q 33.609 2.43 33.318 3.074 A 1.445 1.445 0 0 0 33.302 3.111 L 33.302 6.486 L 32.489 6.486 L 32.489 1.732 L 33.28 1.732 L 33.293 2.281 Q 33.673 1.675 34.356 1.645 A 1.636 1.636 0 0 1 34.427 1.644 Q 34.664 1.644 34.787 1.705 Z M 22.997 4.162 A 2.772 2.772 0 0 0 23.044 4.69 Q 23.104 5.001 23.242 5.246 A 1.545 1.545 0 0 0 23.364 5.432 Q 23.73 5.911 24.346 5.911 A 1.269 1.269 0 0 0 24.835 5.819 Q 25.114 5.704 25.317 5.442 A 1.471 1.471 0 0 0 25.33 5.425 A 1.648 1.648 0 0 0 25.585 4.908 Q 25.654 4.681 25.679 4.409 A 3.655 3.655 0 0 0 25.695 4.065 A 2.687 2.687 0 0 0 25.644 3.525 Q 25.576 3.195 25.419 2.936 A 1.586 1.586 0 0 0 25.323 2.797 A 1.231 1.231 0 0 0 24.908 2.442 Q 24.655 2.312 24.337 2.312 Q 23.747 2.312 23.381 2.771 A 1.515 1.515 0 0 0 23.366 2.791 A 1.589 1.589 0 0 0 23.114 3.288 Q 23.044 3.509 23.016 3.775 A 3.676 3.676 0 0 0 22.997 4.162 Z M 0.848 0.782 L 0.848 3.208 L 2.145 3.208 Q 2.685 3.208 3.035 2.968 A 1.174 1.174 0 0 0 3.144 2.883 A 1.069 1.069 0 0 0 3.51 2.146 A 1.486 1.486 0 0 0 3.516 2.013 Q 3.516 1.47 3.22 1.159 A 1 1 0 0 0 3.162 1.103 Q 2.808 0.787 2.14 0.782 L 0.848 0.782 Z M 6.051 3.674 L 8.433 3.674 L 8.433 3.612 Q 8.407 3.153 8.236 2.848 A 1.13 1.13 0 0 0 8.099 2.652 A 0.983 0.983 0 0 0 7.445 2.32 A 1.39 1.39 0 0 0 7.291 2.312 A 1.106 1.106 0 0 0 6.768 2.435 A 1.14 1.14 0 0 0 6.464 2.67 A 1.417 1.417 0 0 0 6.188 3.116 Q 6.114 3.3 6.074 3.522 A 2.741 2.741 0 0 0 6.051 3.674 Z M 40.794 3.674 L 43.176 3.674 L 43.176 3.612 Q 43.15 3.153 42.98 2.848 A 1.13 1.13 0 0 0 42.842 2.652 A 0.983 0.983 0 0 0 42.188 2.32 A 1.39 1.39 0 0 0 42.034 2.312 A 1.106 1.106 0 0 0 41.511 2.435 A 1.14 1.14 0 0 0 41.208 2.67 A 1.417 1.417 0 0 0 40.931 3.116 Q 40.857 3.3 40.817 3.522 A 2.741 2.741 0 0 0 40.794 3.674 Z" vector-effect="non-scaling-stroke"/></g><g transform="translate(25, 93)" id="svgGroup" stroke-linecap="round" fill-rule="evenodd" font-size="9pt" stroke="#000" stroke-width="0.25mm" fill="#000" style="stroke:#000;stroke-width:0.25mm;fill:#000"><path d="M 4.078 4.72 L 4.926 4.72 A 3.016 3.016 0 0 1 4.765 5.416 A 2.099 2.099 0 0 1 4.177 6.286 Q 3.546 6.838 2.501 6.838 A 2.553 2.553 0 0 1 1.631 6.696 A 2.194 2.194 0 0 1 0.683 6.025 A 2.789 2.789 0 0 1 0.122 4.901 Q 0.015 4.484 0.002 3.992 A 5.262 5.262 0 0 1 0 3.85 L 0 3.234 A 4.251 4.251 0 0 1 0.07 2.445 A 3.229 3.229 0 0 1 0.319 1.666 A 2.539 2.539 0 0 1 0.774 0.99 A 2.26 2.26 0 0 1 1.222 0.626 A 2.415 2.415 0 0 1 2.248 0.281 A 3.027 3.027 0 0 1 2.575 0.264 A 2.962 2.962 0 0 1 3.281 0.343 A 2.065 2.065 0 0 1 4.21 0.833 A 2.16 2.16 0 0 1 4.805 1.795 A 3.086 3.086 0 0 1 4.926 2.408 L 4.078 2.408 Q 4.009 1.929 3.84 1.616 A 1.223 1.223 0 0 0 3.601 1.301 A 1.207 1.207 0 0 0 3.096 1.024 Q 2.909 0.971 2.686 0.961 A 2.396 2.396 0 0 0 2.575 0.958 A 1.753 1.753 0 0 0 1.997 1.049 A 1.463 1.463 0 0 0 1.307 1.556 A 1.989 1.989 0 0 0 0.993 2.175 Q 0.848 2.636 0.848 3.256 L 0.848 3.876 Q 0.848 4.917 1.283 5.533 A 1.38 1.38 0 0 0 2.282 6.135 A 1.814 1.814 0 0 0 2.501 6.148 A 2.497 2.497 0 0 0 2.908 6.117 Q 3.127 6.08 3.303 6.002 A 1.155 1.155 0 0 0 3.579 5.829 Q 3.955 5.511 4.078 4.72 Z M 48.379 0 L 48.379 2.571 A 1.767 1.767 0 0 1 49.046 2.053 A 1.832 1.832 0 0 1 49.786 1.907 A 1.905 1.905 0 0 1 50.419 2.004 Q 51.261 2.3 51.304 3.506 A 3.668 3.668 0 0 1 51.306 3.608 L 51.306 6.75 L 50.493 6.75 L 50.493 3.604 A 1.837 1.837 0 0 0 50.471 3.324 Q 50.421 3.017 50.258 2.843 Q 50.072 2.645 49.719 2.606 A 1.66 1.66 0 0 0 49.54 2.597 A 1.253 1.253 0 0 0 49.125 2.664 A 1.123 1.123 0 0 0 48.845 2.808 A 1.432 1.432 0 0 0 48.379 3.362 L 48.379 6.75 L 47.566 6.75 L 47.566 0 L 48.379 0 Z M 45.558 2.522 L 45.598 1.995 L 46.34 1.995 L 46.34 6.636 A 2.511 2.511 0 0 1 46.27 7.249 A 1.738 1.738 0 0 1 45.793 8.09 A 1.834 1.834 0 0 1 44.863 8.57 A 2.671 2.671 0 0 1 44.323 8.622 A 2.446 2.446 0 0 1 43.317 8.402 A 2.003 2.003 0 0 1 42.907 8.161 A 1.563 1.563 0 0 1 42.565 7.8 L 42.987 7.313 A 1.889 1.889 0 0 0 43.422 7.712 A 1.514 1.514 0 0 0 44.266 7.958 A 1.695 1.695 0 0 0 44.643 7.919 Q 44.912 7.858 45.106 7.702 A 1.037 1.037 0 0 0 45.191 7.625 A 1.09 1.09 0 0 0 45.468 7.132 Q 45.515 6.959 45.522 6.752 A 2.134 2.134 0 0 0 45.523 6.684 L 45.523 6.275 A 1.601 1.601 0 0 1 44.471 6.821 A 2.279 2.279 0 0 1 44.191 6.838 A 1.672 1.672 0 0 1 43.436 6.67 Q 43.114 6.51 42.865 6.197 A 2.14 2.14 0 0 1 42.84 6.166 A 2.316 2.316 0 0 1 42.457 5.386 Q 42.324 4.922 42.324 4.333 Q 42.324 3.472 42.632 2.884 A 2.096 2.096 0 0 1 42.838 2.564 Q 43.352 1.907 44.2 1.907 A 1.971 1.971 0 0 1 44.799 1.994 A 1.55 1.55 0 0 1 45.558 2.522 Z M 10.885 4.395 L 10.885 4.333 A 3.762 3.762 0 0 1 10.952 3.602 Q 11.04 3.16 11.242 2.812 A 2.148 2.148 0 0 1 11.404 2.573 Q 11.922 1.907 12.762 1.907 A 1.964 1.964 0 0 1 13.36 1.994 A 1.559 1.559 0 0 1 14.085 2.479 L 14.085 0 L 14.898 0 L 14.898 6.75 L 14.15 6.75 L 14.111 6.24 Q 13.623 6.838 12.753 6.838 A 1.6 1.6 0 0 1 11.532 6.31 A 2.078 2.078 0 0 1 11.406 6.161 A 2.405 2.405 0 0 1 10.981 5.255 Q 10.897 4.912 10.887 4.51 A 4.425 4.425 0 0 1 10.885 4.395 Z M 15.952 4.504 L 15.952 4.355 A 3.17 3.17 0 0 1 16.028 3.646 A 2.581 2.581 0 0 1 16.222 3.092 A 2.191 2.191 0 0 1 16.67 2.466 A 2.033 2.033 0 0 1 16.978 2.221 Q 17.464 1.907 18.031 1.907 A 2.254 2.254 0 0 1 18.644 1.986 A 1.639 1.639 0 0 1 19.472 2.518 Q 19.986 3.129 19.986 4.267 L 19.986 4.605 L 16.765 4.605 A 2.111 2.111 0 0 0 16.836 5.114 A 1.516 1.516 0 0 0 17.176 5.741 A 1.282 1.282 0 0 0 18.11 6.173 A 1.652 1.652 0 0 0 18.176 6.174 A 1.763 1.763 0 0 0 18.504 6.145 Q 18.728 6.103 18.905 5.999 A 1.827 1.827 0 0 0 19.414 5.551 A 2.068 2.068 0 0 0 19.428 5.533 L 19.925 5.919 A 1.926 1.926 0 0 1 18.525 6.811 A 2.749 2.749 0 0 1 18.132 6.838 A 2.394 2.394 0 0 1 17.381 6.725 A 1.974 1.974 0 0 1 16.559 6.203 Q 15.952 5.568 15.952 4.504 Z M 36.466 0.352 L 36.466 6.06 L 39.498 6.06 L 39.498 6.75 L 35.618 6.75 L 35.618 0.352 L 36.466 0.352 Z M 26.503 0.352 L 26.503 4.601 L 27.391 4.601 L 27.391 5.265 L 26.503 5.265 L 26.503 6.75 L 25.686 6.75 L 25.686 5.265 L 22.773 5.265 L 22.773 4.786 L 25.638 0.352 L 26.503 0.352 Z M 31.902 2.592 A 1.544 1.544 0 0 0 32.005 2.021 A 2.226 2.226 0 0 0 31.984 1.707 A 1.566 1.566 0 0 0 31.485 0.738 A 1.754 1.754 0 0 0 30.719 0.333 A 2.443 2.443 0 0 0 30.12 0.264 A 2.539 2.539 0 0 0 29.611 0.312 A 1.767 1.767 0 0 0 28.753 0.738 Q 28.235 1.213 28.235 2.021 A 1.808 1.808 0 0 0 28.235 2.058 A 1.499 1.499 0 0 0 28.481 2.87 A 1.626 1.626 0 0 0 28.643 3.077 A 1.726 1.726 0 0 0 29.153 3.454 A 2.119 2.119 0 0 0 29.054 3.5 A 1.738 1.738 0 0 0 28.369 4.087 A 1.629 1.629 0 0 0 28.085 5.023 A 2.272 2.272 0 0 0 28.095 5.237 A 1.63 1.63 0 0 0 28.641 6.344 A 1.895 1.895 0 0 0 29.492 6.771 A 2.797 2.797 0 0 0 30.12 6.838 A 2.796 2.796 0 0 0 30.719 6.777 A 1.925 1.925 0 0 0 31.595 6.346 A 1.578 1.578 0 0 0 32.069 5.62 A 1.989 1.989 0 0 0 32.155 5.023 A 1.581 1.581 0 0 0 31.863 4.087 Q 31.57 3.674 31.069 3.458 Q 31.5 3.248 31.753 2.874 A 1.449 1.449 0 0 0 31.902 2.592 Z M 52.814 0.844 L 53.627 0.844 L 53.627 1.995 L 54.514 1.995 L 54.514 2.624 L 53.627 2.624 L 53.627 5.572 Q 53.627 5.858 53.745 6.001 Q 53.864 6.144 54.149 6.144 A 1.046 1.046 0 0 0 54.247 6.138 Q 54.35 6.129 54.489 6.101 A 4.024 4.024 0 0 0 54.536 6.091 L 54.536 6.75 A 2.463 2.463 0 0 1 54.103 6.829 A 2.157 2.157 0 0 1 53.912 6.838 Q 53.465 6.838 53.198 6.616 A 0.856 0.856 0 0 1 53.09 6.508 Q 52.863 6.238 52.822 5.78 A 2.351 2.351 0 0 1 52.814 5.572 L 52.814 2.624 L 51.948 2.624 L 51.948 1.995 L 52.814 1.995 L 52.814 0.844 Z M 5.735 4.386 L 5.735 4.329 A 3.057 3.057 0 0 1 5.822 3.587 A 2.573 2.573 0 0 1 6.01 3.072 A 2.16 2.16 0 0 1 6.424 2.486 A 1.957 1.957 0 0 1 6.774 2.21 A 2.036 2.036 0 0 1 7.719 1.913 A 2.491 2.491 0 0 1 7.893 1.907 A 2.277 2.277 0 0 1 8.646 2.027 A 1.937 1.937 0 0 1 9.464 2.58 A 2.29 2.29 0 0 1 9.983 3.608 A 3.373 3.373 0 0 1 10.064 4.368 L 10.064 4.425 A 3.114 3.114 0 0 1 9.984 5.142 A 2.577 2.577 0 0 1 9.798 5.671 A 2.056 2.056 0 0 1 9.27 6.361 A 2.001 2.001 0 0 1 9.037 6.53 A 2.045 2.045 0 0 1 8.118 6.829 A 2.529 2.529 0 0 1 7.901 6.838 A 2.262 2.262 0 0 1 7.151 6.718 A 1.938 1.938 0 0 1 6.335 6.166 A 2.297 2.297 0 0 1 5.809 5.111 A 3.357 3.357 0 0 1 5.735 4.386 Z M 41.216 1.995 L 41.216 6.75 L 40.403 6.75 L 40.403 1.995 L 41.216 1.995 Z M 6.552 4.425 A 2.772 2.772 0 0 0 6.6 4.954 Q 6.66 5.264 6.797 5.51 A 1.545 1.545 0 0 0 6.919 5.695 Q 7.286 6.174 7.901 6.174 A 1.269 1.269 0 0 0 8.391 6.083 Q 8.67 5.967 8.873 5.706 A 1.471 1.471 0 0 0 8.886 5.689 A 1.648 1.648 0 0 0 9.141 5.171 Q 9.209 4.945 9.235 4.672 A 3.655 3.655 0 0 0 9.251 4.329 A 2.687 2.687 0 0 0 9.199 3.789 Q 9.132 3.459 8.974 3.2 A 1.586 1.586 0 0 0 8.879 3.061 A 1.231 1.231 0 0 0 8.464 2.705 Q 8.211 2.575 7.893 2.575 Q 7.303 2.575 6.936 3.035 A 1.515 1.515 0 0 0 6.921 3.054 A 1.589 1.589 0 0 0 6.669 3.552 Q 6.6 3.772 6.572 4.039 A 3.676 3.676 0 0 0 6.552 4.425 Z M 14.085 5.454 L 14.085 3.27 A 1.375 1.375 0 0 0 13.773 2.874 Q 13.449 2.597 12.964 2.597 A 1.238 1.238 0 0 0 12.537 2.668 A 1.068 1.068 0 0 0 12.032 3.059 A 1.51 1.51 0 0 0 11.823 3.484 Q 11.757 3.689 11.726 3.939 A 3.955 3.955 0 0 0 11.698 4.425 A 3.162 3.162 0 0 0 11.734 4.918 Q 11.775 5.178 11.864 5.389 A 1.474 1.474 0 0 0 12.032 5.691 A 1.06 1.06 0 0 0 12.795 6.139 A 1.391 1.391 0 0 0 12.955 6.148 Q 13.729 6.148 14.085 5.454 Z M 45.523 5.449 L 45.523 3.278 A 1.439 1.439 0 0 0 45.222 2.891 Q 44.918 2.62 44.478 2.599 A 1.578 1.578 0 0 0 44.402 2.597 Q 43.811 2.597 43.477 3.056 A 1.51 1.51 0 0 0 43.266 3.484 Q 43.2 3.689 43.169 3.939 A 3.955 3.955 0 0 0 43.141 4.425 Q 43.141 5.229 43.471 5.689 Q 43.8 6.148 44.394 6.148 A 1.32 1.32 0 0 0 44.903 6.054 Q 45.295 5.891 45.523 5.449 Z M 25.589 1.639 L 23.695 4.601 L 25.686 4.601 L 25.686 1.463 L 25.589 1.639 Z M 31.342 5.005 A 1.375 1.375 0 0 0 31.282 4.592 A 1.109 1.109 0 0 0 31.001 4.131 A 1.148 1.148 0 0 0 30.33 3.807 A 1.593 1.593 0 0 0 30.111 3.792 A 1.466 1.466 0 0 0 29.723 3.841 A 1.086 1.086 0 0 0 29.23 4.126 A 1.123 1.123 0 0 0 28.917 4.762 A 1.572 1.572 0 0 0 28.898 5.005 A 1.48 1.48 0 0 0 28.94 5.367 A 1.019 1.019 0 0 0 29.221 5.862 Q 29.528 6.158 30.061 6.173 A 2.053 2.053 0 0 0 30.12 6.174 Q 30.614 6.174 30.924 5.94 A 1.018 1.018 0 0 0 31.017 5.86 A 1.041 1.041 0 0 0 31.316 5.292 A 1.518 1.518 0 0 0 31.342 5.005 Z M 30.12 0.932 A 1.259 1.259 0 0 0 29.767 0.979 A 0.973 0.973 0 0 0 29.345 1.228 Q 29.048 1.525 29.048 2.035 A 1.325 1.325 0 0 0 29.092 2.387 A 0.994 0.994 0 0 0 29.34 2.823 A 0.974 0.974 0 0 0 29.902 3.108 A 1.382 1.382 0 0 0 30.12 3.125 A 1.279 1.279 0 0 0 30.465 3.08 A 0.952 0.952 0 0 0 30.9 2.823 A 1.018 1.018 0 0 0 31.175 2.26 A 1.426 1.426 0 0 0 31.192 2.035 A 1.282 1.282 0 0 0 31.142 1.668 A 1.013 1.013 0 0 0 30.889 1.239 Q 30.586 0.932 30.12 0.932 Z M 16.792 3.938 L 19.173 3.938 L 19.173 3.876 Q 19.147 3.417 18.977 3.111 A 1.13 1.13 0 0 0 18.839 2.916 A 0.983 0.983 0 0 0 18.185 2.584 A 1.39 1.39 0 0 0 18.031 2.575 A 1.106 1.106 0 0 0 17.508 2.698 A 1.14 1.14 0 0 0 17.205 2.933 A 1.417 1.417 0 0 0 16.928 3.379 Q 16.854 3.563 16.814 3.785 A 2.741 2.741 0 0 0 16.792 3.938 Z M 40.337 0.734 Q 40.337 0.536 40.458 0.4 Q 40.57 0.274 40.782 0.264 A 0.783 0.783 0 0 1 40.816 0.264 Q 41.054 0.264 41.177 0.4 A 0.474 0.474 0 0 1 41.299 0.703 A 0.614 0.614 0 0 1 41.3 0.734 A 0.523 0.523 0 0 1 41.275 0.9 A 0.442 0.442 0 0 1 41.177 1.063 Q 41.064 1.184 40.856 1.194 A 0.803 0.803 0 0 1 40.816 1.195 Q 40.644 1.195 40.533 1.126 A 0.362 0.362 0 0 1 40.458 1.063 A 0.456 0.456 0 0 1 40.34 0.788 A 0.605 0.605 0 0 1 40.337 0.734 Z" vector-effect="non-scaling-stroke"/></g>
</svgversion="1.0" encoding="UTF-8"?>
<svg width="48px" height="48px" viewBox="0 0 48 48" version="1.1" xmlns="http://www.w3.org/2000/svg" xmlns:xlink="http://www.w3.org/1999/xlink">
    <title>Icon-Resource/General-Resource/Res_Source-Code_48_Light</title>
    <g id="Icon-Resource/General-Resource/Res_Source-Code_48" stroke="none" stroke-width="1" fill="none" fill-rule="evenodd">
        <path transform="translate(12.000000, 8.000000), scale(.65)" d="M25.0518,19.684 L26.9478,20.317 L22.9478,32.317 L21.0518,31.684 L25.0518,19.684 Z M34.6248,25.22 C34.8628,25.409 34.9998,25.697 34.9998,26 C34.9998,26.304 34.8628,26.592 34.6248,26.781 L29.6248,30.781 L28.3748,29.22 L32.3998,26 L28.3748,22.781 L29.6248,21.22 L34.6248,25.22 Z M19.6248,22.781 L15.6008,26 L19.6248,29.22 L18.3748,30.781 L13.3748,26.781 C13.1378,26.592 12.9998,26.304 12.9998,26 C12.9998,25.697 13.1378,25.409 13.3748,25.22 L18.3748,21.22 L19.6248,22.781 Z M9.9998,44 L10.0068,4 L27.9998,4 L27.9998,13 C27.9998,13.552 28.4478,14 28.9998,14 L37.9998,14 L37.9998,44 L9.9998,44 Z M29.9998,5.414 L36.5858,12 L29.9998,12 L29.9998,5.414 Z M39.7068,12.293 L29.7068,2.293 C29.5198,2.105 29.2658,2 28.9998,2 L9.9998,2 C8.8228,2 7.9998,2.822 7.9998,4 L7.9998,44 C7.9998,45.14 8.8598,46 9.9998,46 L37.9998,46 C39.1408,46 39.9998,45.14 39.9998,44 L39.9998,13 C39.9998,12.734 39.8948,12.48 39.7068,12.293 L39.7068,12.293 Z" id="Fill-1" fill="#000000"></path>
    </g><g transform="translate(25, 83)" id="svgGroup" stroke-linecap="round" fill-rule="evenodd" font-size="9pt" stroke="#000" stroke-width="0.25mm" fill="#000" style="stroke:#000;stroke-width:0.25mm;fill:#000"><path d="M 21.428 1.938 L 20.58 1.938 A 1.466 1.466 0 0 0 20.53 1.546 A 1.066 1.066 0 0 0 20.21 1.026 A 1.211 1.211 0 0 0 19.741 0.77 Q 19.489 0.694 19.169 0.694 A 2.286 2.286 0 0 0 18.789 0.724 Q 18.587 0.758 18.425 0.831 A 1.101 1.101 0 0 0 18.196 0.969 A 0.892 0.892 0 0 0 17.851 1.624 A 1.267 1.267 0 0 0 17.846 1.732 A 0.806 0.806 0 0 0 18.114 2.337 A 1.134 1.134 0 0 0 18.178 2.393 A 1.562 1.562 0 0 0 18.416 2.549 Q 18.747 2.73 19.307 2.887 A 8.228 8.228 0 0 1 19.772 3.032 Q 20.007 3.113 20.202 3.2 A 3.297 3.297 0 0 1 20.555 3.382 A 2.342 2.342 0 0 1 20.894 3.626 Q 21.084 3.792 21.206 3.985 A 1.45 1.45 0 0 1 21.223 4.012 A 1.498 1.498 0 0 1 21.42 4.568 A 1.948 1.948 0 0 1 21.441 4.86 A 1.606 1.606 0 0 1 21.319 5.497 Q 21.173 5.838 20.855 6.09 A 1.886 1.886 0 0 1 20.834 6.106 Q 20.228 6.574 19.213 6.574 A 3.023 3.023 0 0 1 18.072 6.36 A 2.917 2.917 0 0 1 17.982 6.322 A 2.383 2.383 0 0 1 17.504 6.044 A 1.874 1.874 0 0 1 17.101 5.629 A 1.689 1.689 0 0 1 16.792 4.632 L 17.64 4.632 A 1.261 1.261 0 0 0 17.709 5.059 A 1.074 1.074 0 0 0 18.068 5.548 Q 18.453 5.85 19.069 5.881 A 2.87 2.87 0 0 0 19.213 5.884 A 2.628 2.628 0 0 0 19.6 5.858 Q 19.796 5.828 19.955 5.767 A 1.129 1.129 0 0 0 20.237 5.612 Q 20.593 5.339 20.593 4.869 A 1.074 1.074 0 0 0 20.55 4.559 A 0.816 0.816 0 0 0 20.263 4.142 Q 19.934 3.885 19.068 3.634 Q 17.982 3.322 17.488 2.868 Q 16.994 2.413 16.994 1.745 Q 16.994 0.989 17.598 0.494 A 2.121 2.121 0 0 1 18.488 0.071 A 3.087 3.087 0 0 1 19.169 0 A 2.913 2.913 0 0 1 19.829 0.072 A 2.372 2.372 0 0 1 20.344 0.255 A 2.051 2.051 0 0 1 20.876 0.626 A 1.834 1.834 0 0 1 21.144 0.958 A 1.798 1.798 0 0 1 21.428 1.938 Z M 3.74 6.486 L 2.351 3.898 L 0.848 3.898 L 0.848 6.486 L 0 6.486 L 0 0.088 L 2.118 0.088 A 3.809 3.809 0 0 1 2.76 0.138 Q 3.102 0.197 3.376 0.324 A 1.789 1.789 0 0 1 3.781 0.58 A 1.588 1.588 0 0 1 4.307 1.469 A 2.453 2.453 0 0 1 4.364 2.013 A 1.864 1.864 0 0 1 4.273 2.604 A 1.64 1.64 0 0 1 4.041 3.054 A 1.849 1.849 0 0 1 3.382 3.611 A 2.342 2.342 0 0 1 3.142 3.718 L 4.645 6.434 L 4.645 6.486 L 3.74 6.486 Z M 13.724 3.129 L 12.907 3.129 Q 12.907 2.795 12.623 2.553 Q 12.34 2.312 11.909 2.312 Q 11.465 2.312 11.215 2.505 A 0.653 0.653 0 0 0 11.04 2.704 Q 10.967 2.835 10.964 3 A 0.771 0.771 0 0 0 10.964 3.01 A 0.588 0.588 0 0 0 10.994 3.203 A 0.48 0.48 0 0 0 11.197 3.454 A 1.093 1.093 0 0 0 11.348 3.533 Q 11.512 3.605 11.767 3.673 A 6.581 6.581 0 0 0 12.039 3.74 A 6.318 6.318 0 0 1 12.446 3.845 Q 12.783 3.944 13.025 4.065 A 1.901 1.901 0 0 1 13.281 4.218 Q 13.418 4.315 13.516 4.429 A 1.06 1.06 0 0 1 13.586 4.52 A 1.024 1.024 0 0 1 13.748 4.927 A 1.388 1.388 0 0 1 13.768 5.168 Q 13.768 5.805 13.258 6.19 Q 12.776 6.554 12.022 6.573 A 3.337 3.337 0 0 1 11.936 6.574 A 2.746 2.746 0 0 1 11.401 6.525 A 2.124 2.124 0 0 1 10.925 6.372 A 1.771 1.771 0 0 1 10.491 6.094 A 1.54 1.54 0 0 1 10.237 5.807 Q 9.989 5.445 9.989 5.023 L 10.802 5.023 A 0.932 0.932 0 0 0 10.875 5.348 A 0.827 0.827 0 0 0 11.129 5.671 A 1.072 1.072 0 0 0 11.531 5.864 Q 11.686 5.903 11.867 5.91 A 2.013 2.013 0 0 0 11.936 5.911 A 1.863 1.863 0 0 0 12.231 5.889 Q 12.393 5.863 12.524 5.806 A 0.941 0.941 0 0 0 12.676 5.724 A 0.689 0.689 0 0 0 12.841 5.574 A 0.554 0.554 0 0 0 12.955 5.225 A 0.698 0.698 0 0 0 12.919 4.994 A 0.581 0.581 0 0 0 12.707 4.713 A 1.05 1.05 0 0 0 12.538 4.615 Q 12.349 4.524 12.054 4.449 A 5.392 5.392 0 0 0 11.841 4.399 A 6.342 6.342 0 0 1 11.48 4.311 Q 11.11 4.209 10.861 4.083 Q 10.562 3.93 10.392 3.731 A 1.017 1.017 0 0 1 10.325 3.643 Q 10.151 3.388 10.151 3.037 A 1.206 1.206 0 0 1 10.55 2.132 A 1.694 1.694 0 0 1 10.646 2.048 A 1.752 1.752 0 0 1 11.429 1.688 A 2.471 2.471 0 0 1 11.909 1.644 A 2.559 2.559 0 0 1 12.473 1.702 A 1.757 1.757 0 0 1 13.221 2.061 Q 13.724 2.479 13.724 3.129 Z M 30.48 6.486 L 30.463 6.016 A 1.526 1.526 0 0 1 29.637 6.511 Q 29.386 6.572 29.089 6.574 A 2.996 2.996 0 0 1 29.07 6.574 A 2.086 2.086 0 0 1 28.61 6.527 Q 28.179 6.429 27.912 6.133 A 1.41 1.41 0 0 1 27.629 5.635 Q 27.512 5.292 27.51 4.825 L 27.51 1.732 L 28.323 1.732 L 28.323 4.803 Q 28.323 5.773 29.03 5.873 A 1.229 1.229 0 0 0 29.202 5.884 A 1.927 1.927 0 0 0 29.653 5.835 Q 30.215 5.7 30.441 5.19 L 30.441 1.732 L 31.254 1.732 L 31.254 6.486 L 30.48 6.486 Z M 38.479 4.988 L 39.248 4.988 A 1.432 1.432 0 0 1 39.048 5.638 A 1.772 1.772 0 0 1 38.966 5.766 A 1.828 1.828 0 0 1 38.357 6.31 A 2.169 2.169 0 0 1 38.274 6.355 A 1.997 1.997 0 0 1 37.358 6.574 A 2.346 2.346 0 0 1 36.661 6.476 A 1.839 1.839 0 0 1 35.813 5.926 A 2.171 2.171 0 0 1 35.35 5.046 Q 35.24 4.645 35.24 4.153 L 35.24 4.017 A 3.24 3.24 0 0 1 35.303 3.361 A 2.57 2.57 0 0 1 35.495 2.782 A 2.008 2.008 0 0 1 35.934 2.168 A 1.892 1.892 0 0 1 36.226 1.942 A 1.943 1.943 0 0 1 36.983 1.67 A 2.529 2.529 0 0 1 37.354 1.644 A 2.196 2.196 0 0 1 38.002 1.735 A 1.786 1.786 0 0 1 38.683 2.123 A 1.693 1.693 0 0 1 39.241 3.272 A 2.239 2.239 0 0 1 39.248 3.366 L 38.479 3.366 Q 38.443 2.905 38.129 2.608 A 1.078 1.078 0 0 0 37.4 2.312 A 1.402 1.402 0 0 0 37.354 2.312 A 1.374 1.374 0 0 0 36.932 2.373 A 1.081 1.081 0 0 0 36.393 2.758 A 1.469 1.469 0 0 0 36.167 3.205 Q 36.101 3.41 36.073 3.66 A 3.514 3.514 0 0 0 36.053 4.047 L 36.053 4.201 Q 36.053 5.023 36.391 5.467 A 1.1 1.1 0 0 0 37.178 5.901 A 1.611 1.611 0 0 0 37.358 5.911 A 1.171 1.171 0 0 0 38.118 5.647 A 1.007 1.007 0 0 0 38.362 5.366 A 0.914 0.914 0 0 0 38.479 4.988 Z M 5.212 4.241 L 5.212 4.091 A 3.17 3.17 0 0 1 5.288 3.382 A 2.581 2.581 0 0 1 5.482 2.828 A 2.191 2.191 0 0 1 5.93 2.202 A 2.033 2.033 0 0 1 6.238 1.958 Q 6.724 1.644 7.291 1.644 A 2.254 2.254 0 0 1 7.904 1.723 A 1.639 1.639 0 0 1 8.732 2.254 Q 9.246 2.865 9.246 4.003 L 9.246 4.342 L 6.025 4.342 A 2.111 2.111 0 0 0 6.096 4.85 A 1.516 1.516 0 0 0 6.436 5.478 A 1.282 1.282 0 0 0 7.37 5.909 A 1.652 1.652 0 0 0 7.436 5.911 A 1.763 1.763 0 0 0 7.764 5.882 Q 7.988 5.839 8.165 5.735 A 1.827 1.827 0 0 0 8.674 5.287 A 2.068 2.068 0 0 0 8.688 5.269 L 9.185 5.656 A 1.926 1.926 0 0 1 7.785 6.547 A 2.749 2.749 0 0 1 7.392 6.574 A 2.394 2.394 0 0 1 6.64 6.461 A 1.974 1.974 0 0 1 5.818 5.939 Q 5.212 5.304 5.212 4.241 Z M 39.955 4.241 L 39.955 4.091 A 3.17 3.17 0 0 1 40.031 3.382 A 2.581 2.581 0 0 1 40.225 2.828 A 2.191 2.191 0 0 1 40.673 2.202 A 2.033 2.033 0 0 1 40.981 1.958 Q 41.467 1.644 42.034 1.644 A 2.254 2.254 0 0 1 42.647 1.723 A 1.639 1.639 0 0 1 43.475 2.254 Q 43.989 2.865 43.989 4.003 L 43.989 4.342 L 40.768 4.342 A 2.111 2.111 0 0 0 40.839 4.85 A 1.516 1.516 0 0 0 41.179 5.478 A 1.282 1.282 0 0 0 42.113 5.909 A 1.652 1.652 0 0 0 42.179 5.911 A 1.763 1.763 0 0 0 42.507 5.882 Q 42.731 5.839 42.908 5.735 A 1.827 1.827 0 0 0 43.417 5.287 A 2.068 2.068 0 0 0 43.431 5.269 L 43.928 5.656 A 1.926 1.926 0 0 1 42.528 6.547 A 2.749 2.749 0 0 1 42.135 6.574 A 2.394 2.394 0 0 1 41.384 6.461 A 1.974 1.974 0 0 1 40.562 5.939 Q 39.955 5.304 39.955 4.241 Z M 22.179 4.122 L 22.179 4.065 A 3.057 3.057 0 0 1 22.266 3.323 A 2.573 2.573 0 0 1 22.454 2.808 A 2.16 2.16 0 0 1 22.869 2.223 A 1.957 1.957 0 0 1 23.219 1.947 A 2.036 2.036 0 0 1 24.163 1.65 A 2.491 2.491 0 0 1 24.337 1.644 A 2.277 2.277 0 0 1 25.09 1.763 A 1.937 1.937 0 0 1 25.908 2.316 A 2.29 2.29 0 0 1 26.427 3.345 A 3.373 3.373 0 0 1 26.508 4.105 L 26.508 4.162 A 3.114 3.114 0 0 1 26.428 4.878 A 2.577 2.577 0 0 1 26.242 5.408 A 2.056 2.056 0 0 1 25.715 6.098 A 2.001 2.001 0 0 1 25.482 6.267 A 2.045 2.045 0 0 1 24.562 6.565 A 2.529 2.529 0 0 1 24.346 6.574 A 2.262 2.262 0 0 1 23.595 6.455 A 1.938 1.938 0 0 1 22.779 5.902 A 2.297 2.297 0 0 1 22.253 4.847 A 3.357 3.357 0 0 1 22.179 4.122 Z M 34.787 1.705 L 34.787 2.461 A 2.251 2.251 0 0 0 34.544 2.435 A 2.782 2.782 0 0 0 34.387 2.43 Q 33.609 2.43 33.318 3.074 A 1.445 1.445 0 0 0 33.302 3.111 L 33.302 6.486 L 32.489 6.486 L 32.489 1.732 L 33.28 1.732 L 33.293 2.281 Q 33.673 1.675 34.356 1.645 A 1.636 1.636 0 0 1 34.427 1.644 Q 34.664 1.644 34.787 1.705 Z M 22.997 4.162 A 2.772 2.772 0 0 0 23.044 4.69 Q 23.104 5.001 23.242 5.246 A 1.545 1.545 0 0 0 23.364 5.432 Q 23.73 5.911 24.346 5.911 A 1.269 1.269 0 0 0 24.835 5.819 Q 25.114 5.704 25.317 5.442 A 1.471 1.471 0 0 0 25.33 5.425 A 1.648 1.648 0 0 0 25.585 4.908 Q 25.654 4.681 25.679 4.409 A 3.655 3.655 0 0 0 25.695 4.065 A 2.687 2.687 0 0 0 25.644 3.525 Q 25.576 3.195 25.419 2.936 A 1.586 1.586 0 0 0 25.323 2.797 A 1.231 1.231 0 0 0 24.908 2.442 Q 24.655 2.312 24.337 2.312 Q 23.747 2.312 23.381 2.771 A 1.515 1.515 0 0 0 23.366 2.791 A 1.589 1.589 0 0 0 23.114 3.288 Q 23.044 3.509 23.016 3.775 A 3.676 3.676 0 0 0 22.997 4.162 Z M 0.848 0.782 L 0.848 3.208 L 2.145 3.208 Q 2.685 3.208 3.035 2.968 A 1.174 1.174 0 0 0 3.144 2.883 A 1.069 1.069 0 0 0 3.51 2.146 A 1.486 1.486 0 0 0 3.516 2.013 Q 3.516 1.47 3.22 1.159 A 1 1 0 0 0 3.162 1.103 Q 2.808 0.787 2.14 0.782 L 0.848 0.782 Z M 6.051 3.674 L 8.433 3.674 L 8.433 3.612 Q 8.407 3.153 8.236 2.848 A 1.13 1.13 0 0 0 8.099 2.652 A 0.983 0.983 0 0 0 7.445 2.32 A 1.39 1.39 0 0 0 7.291 2.312 A 1.106 1.106 0 0 0 6.768 2.435 A 1.14 1.14 0 0 0 6.464 2.67 A 1.417 1.417 0 0 0 6.188 3.116 Q 6.114 3.3 6.074 3.522 A 2.741 2.741 0 0 0 6.051 3.674 Z M 40.794 3.674 L 43.176 3.674 L 43.176 3.612 Q 43.15 3.153 42.98 2.848 A 1.13 1.13 0 0 0 42.842 2.652 A 0.983 0.983 0 0 0 42.188 2.32 A 1.39 1.39 0 0 0 42.034 2.312 A 1.106 1.106 0 0 0 41.511 2.435 A 1.14 1.14 0 0 0 41.208 2.67 A 1.417 1.417 0 0 0 40.931 3.116 Q 40.857 3.3 40.817 3.522 A 2.741 2.741 0 0 0 40.794 3.674 Z" vector-effect="non-scaling-stroke"/></g><g transform="translate(25, 93)" id="svgGroup" stroke-linecap="round" fill-rule="evenodd" font-size="9pt" stroke="#000" stroke-width="0.25mm" fill="#000" style="stroke:#000;stroke-width:0.25mm;fill:#000"><path d="M 4.078 4.72 L 4.926 4.72 A 3.016 3.016 0 0 1 4.765 5.416 A 2.099 2.099 0 0 1 4.177 6.286 Q 3.546 6.838 2.501 6.838 A 2.553 2.553 0 0 1 1.631 6.696 A 2.194 2.194 0 0 1 0.683 6.025 A 2.789 2.789 0 0 1 0.122 4.901 Q 0.015 4.484 0.002 3.992 A 5.262 5.262 0 0 1 0 3.85 L 0 3.234 A 4.251 4.251 0 0 1 0.07 2.445 A 3.229 3.229 0 0 1 0.319 1.666 A 2.539 2.539 0 0 1 0.774 0.99 A 2.26 2.26 0 0 1 1.222 0.626 A 2.415 2.415 0 0 1 2.248 0.281 A 3.027 3.027 0 0 1 2.575 0.264 A 2.962 2.962 0 0 1 3.281 0.343 A 2.065 2.065 0 0 1 4.21 0.833 A 2.16 2.16 0 0 1 4.805 1.795 A 3.086 3.086 0 0 1 4.926 2.408 L 4.078 2.408 Q 4.009 1.929 3.84 1.616 A 1.223 1.223 0 0 0 3.601 1.301 A 1.207 1.207 0 0 0 3.096 1.024 Q 2.909 0.971 2.686 0.961 A 2.396 2.396 0 0 0 2.575 0.958 A 1.753 1.753 0 0 0 1.997 1.049 A 1.463 1.463 0 0 0 1.307 1.556 A 1.989 1.989 0 0 0 0.993 2.175 Q 0.848 2.636 0.848 3.256 L 0.848 3.876 Q 0.848 4.917 1.283 5.533 A 1.38 1.38 0 0 0 2.282 6.135 A 1.814 1.814 0 0 0 2.501 6.148 A 2.497 2.497 0 0 0 2.908 6.117 Q 3.127 6.08 3.303 6.002 A 1.155 1.155 0 0 0 3.579 5.829 Q 3.955 5.511 4.078 4.72 Z M 48.379 0 L 48.379 2.571 A 1.767 1.767 0 0 1 49.046 2.053 A 1.832 1.832 0 0 1 49.786 1.907 A 1.905 1.905 0 0 1 50.419 2.004 Q 51.261 2.3 51.304 3.506 A 3.668 3.668 0 0 1 51.306 3.608 L 51.306 6.75 L 50.493 6.75 L 50.493 3.604 A 1.837 1.837 0 0 0 50.471 3.324 Q 50.421 3.017 50.258 2.843 Q 50.072 2.645 49.719 2.606 A 1.66 1.66 0 0 0 49.54 2.597 A 1.253 1.253 0 0 0 49.125 2.664 A 1.123 1.123 0 0 0 48.845 2.808 A 1.432 1.432 0 0 0 48.379 3.362 L 48.379 6.75 L 47.566 6.75 L 47.566 0 L 48.379 0 Z M 45.558 2.522 L 45.598 1.995 L 46.34 1.995 L 46.34 6.636 A 2.511 2.511 0 0 1 46.27 7.249 A 1.738 1.738 0 0 1 45.793 8.09 A 1.834 1.834 0 0 1 44.863 8.57 A 2.671 2.671 0 0 1 44.323 8.622 A 2.446 2.446 0 0 1 43.317 8.402 A 2.003 2.003 0 0 1 42.907 8.161 A 1.563 1.563 0 0 1 42.565 7.8 L 42.987 7.313 A 1.889 1.889 0 0 0 43.422 7.712 A 1.514 1.514 0 0 0 44.266 7.958 A 1.695 1.695 0 0 0 44.643 7.919 Q 44.912 7.858 45.106 7.702 A 1.037 1.037 0 0 0 45.191 7.625 A 1.09 1.09 0 0 0 45.468 7.132 Q 45.515 6.959 45.522 6.752 A 2.134 2.134 0 0 0 45.523 6.684 L 45.523 6.275 A 1.601 1.601 0 0 1 44.471 6.821 A 2.279 2.279 0 0 1 44.191 6.838 A 1.672 1.672 0 0 1 43.436 6.67 Q 43.114 6.51 42.865 6.197 A 2.14 2.14 0 0 1 42.84 6.166 A 2.316 2.316 0 0 1 42.457 5.386 Q 42.324 4.922 42.324 4.333 Q 42.324 3.472 42.632 2.884 A 2.096 2.096 0 0 1 42.838 2.564 Q 43.352 1.907 44.2 1.907 A 1.971 1.971 0 0 1 44.799 1.994 A 1.55 1.55 0 0 1 45.558 2.522 Z M 10.885 4.395 L 10.885 4.333 A 3.762 3.762 0 0 1 10.952 3.602 Q 11.04 3.16 11.242 2.812 A 2.148 2.148 0 0 1 11.404 2.573 Q 11.922 1.907 12.762 1.907 A 1.964 1.964 0 0 1 13.36 1.994 A 1.559 1.559 0 0 1 14.085 2.479 L 14.085 0 L 14.898 0 L 14.898 6.75 L 14.15 6.75 L 14.111 6.24 Q 13.623 6.838 12.753 6.838 A 1.6 1.6 0 0 1 11.532 6.31 A 2.078 2.078 0 0 1 11.406 6.161 A 2.405 2.405 0 0 1 10.981 5.255 Q 10.897 4.912 10.887 4.51 A 4.425 4.425 0 0 1 10.885 4.395 Z M 15.952 4.504 L 15.952 4.355 A 3.17 3.17 0 0 1 16.028 3.646 A 2.581 2.581 0 0 1 16.222 3.092 A 2.191 2.191 0 0 1 16.67 2.466 A 2.033 2.033 0 0 1 16.978 2.221 Q 17.464 1.907 18.031 1.907 A 2.254 2.254 0 0 1 18.644 1.986 A 1.639 1.639 0 0 1 19.472 2.518 Q 19.986 3.129 19.986 4.267 L 19.986 4.605 L 16.765 4.605 A 2.111 2.111 0 0 0 16.836 5.114 A 1.516 1.516 0 0 0 17.176 5.741 A 1.282 1.282 0 0 0 18.11 6.173 A 1.652 1.652 0 0 0 18.176 6.174 A 1.763 1.763 0 0 0 18.504 6.145 Q 18.728 6.103 18.905 5.999 A 1.827 1.827 0 0 0 19.414 5.551 A 2.068 2.068 0 0 0 19.428 5.533 L 19.925 5.919 A 1.926 1.926 0 0 1 18.525 6.811 A 2.749 2.749 0 0 1 18.132 6.838 A 2.394 2.394 0 0 1 17.381 6.725 A 1.974 1.974 0 0 1 16.559 6.203 Q 15.952 5.568 15.952 4.504 Z M 36.466 0.352 L 36.466 6.06 L 39.498 6.06 L 39.498 6.75 L 35.618 6.75 L 35.618 0.352 L 36.466 0.352 Z M 26.503 0.352 L 26.503 4.601 L 27.391 4.601 L 27.391 5.265 L 26.503 5.265 L 26.503 6.75 L 25.686 6.75 L 25.686 5.265 L 22.773 5.265 L 22.773 4.786 L 25.638 0.352 L 26.503 0.352 Z M 31.902 2.592 A 1.544 1.544 0 0 0 32.005 2.021 A 2.226 2.226 0 0 0 31.984 1.707 A 1.566 1.566 0 0 0 31.485 0.738 A 1.754 1.754 0 0 0 30.719 0.333 A 2.443 2.443 0 0 0 30.12 0.264 A 2.539 2.539 0 0 0 29.611 0.312 A 1.767 1.767 0 0 0 28.753 0.738 Q 28.235 1.213 28.235 2.021 A 1.808 1.808 0 0 0 28.235 2.058 A 1.499 1.499 0 0 0 28.481 2.87 A 1.626 1.626 0 0 0 28.643 3.077 A 1.726 1.726 0 0 0 29.153 3.454 A 2.119 2.119 0 0 0 29.054 3.5 A 1.738 1.738 0 0 0 28.369 4.087 A 1.629 1.629 0 0 0 28.085 5.023 A 2.272 2.272 0 0 0 28.095 5.237 A 1.63 1.63 0 0 0 28.641 6.344 A 1.895 1.895 0 0 0 29.492 6.771 A 2.797 2.797 0 0 0 30.12 6.838 A 2.796 2.796 0 0 0 30.719 6.777 A 1.925 1.925 0 0 0 31.595 6.346 A 1.578 1.578 0 0 0 32.069 5.62 A 1.989 1.989 0 0 0 32.155 5.023 A 1.581 1.581 0 0 0 31.863 4.087 Q 31.57 3.674 31.069 3.458 Q 31.5 3.248 31.753 2.874 A 1.449 1.449 0 0 0 31.902 2.592 Z M 52.814 0.844 L 53.627 0.844 L 53.627 1.995 L 54.514 1.995 L 54.514 2.624 L 53.627 2.624 L 53.627 5.572 Q 53.627 5.858 53.745 6.001 Q 53.864 6.144 54.149 6.144 A 1.046 1.046 0 0 0 54.247 6.138 Q 54.35 6.129 54.489 6.101 A 4.024 4.024 0 0 0 54.536 6.091 L 54.536 6.75 A 2.463 2.463 0 0 1 54.103 6.829 A 2.157 2.157 0 0 1 53.912 6.838 Q 53.465 6.838 53.198 6.616 A 0.856 0.856 0 0 1 53.09 6.508 Q 52.863 6.238 52.822 5.78 A 2.351 2.351 0 0 1 52.814 5.572 L 52.814 2.624 L 51.948 2.624 L 51.948 1.995 L 52.814 1.995 L 52.814 0.844 Z M 5.735 4.386 L 5.735 4.329 A 3.057 3.057 0 0 1 5.822 3.587 A 2.573 2.573 0 0 1 6.01 3.072 A 2.16 2.16 0 0 1 6.424 2.486 A 1.957 1.957 0 0 1 6.774 2.21 A 2.036 2.036 0 0 1 7.719 1.913 A 2.491 2.491 0 0 1 7.893 1.907 A 2.277 2.277 0 0 1 8.646 2.027 A 1.937 1.937 0 0 1 9.464 2.58 A 2.29 2.29 0 0 1 9.983 3.608 A 3.373 3.373 0 0 1 10.064 4.368 L 10.064 4.425 A 3.114 3.114 0 0 1 9.984 5.142 A 2.577 2.577 0 0 1 9.798 5.671 A 2.056 2.056 0 0 1 9.27 6.361 A 2.001 2.001 0 0 1 9.037 6.53 A 2.045 2.045 0 0 1 8.118 6.829 A 2.529 2.529 0 0 1 7.901 6.838 A 2.262 2.262 0 0 1 7.151 6.718 A 1.938 1.938 0 0 1 6.335 6.166 A 2.297 2.297 0 0 1 5.809 5.111 A 3.357 3.357 0 0 1 5.735 4.386 Z M 41.216 1.995 L 41.216 6.75 L 40.403 6.75 L 40.403 1.995 L 41.216 1.995 Z M 6.552 4.425 A 2.772 2.772 0 0 0 6.6 4.954 Q 6.66 5.264 6.797 5.51 A 1.545 1.545 0 0 0 6.919 5.695 Q 7.286 6.174 7.901 6.174 A 1.269 1.269 0 0 0 8.391 6.083 Q 8.67 5.967 8.873 5.706 A 1.471 1.471 0 0 0 8.886 5.689 A 1.648 1.648 0 0 0 9.141 5.171 Q 9.209 4.945 9.235 4.672 A 3.655 3.655 0 0 0 9.251 4.329 A 2.687 2.687 0 0 0 9.199 3.789 Q 9.132 3.459 8.974 3.2 A 1.586 1.586 0 0 0 8.879 3.061 A 1.231 1.231 0 0 0 8.464 2.705 Q 8.211 2.575 7.893 2.575 Q 7.303 2.575 6.936 3.035 A 1.515 1.515 0 0 0 6.921 3.054 A 1.589 1.589 0 0 0 6.669 3.552 Q 6.6 3.772 6.572 4.039 A 3.676 3.676 0 0 0 6.552 4.425 Z M 14.085 5.454 L 14.085 3.27 A 1.375 1.375 0 0 0 13.773 2.874 Q 13.449 2.597 12.964 2.597 A 1.238 1.238 0 0 0 12.537 2.668 A 1.068 1.068 0 0 0 12.032 3.059 A 1.51 1.51 0 0 0 11.823 3.484 Q 11.757 3.689 11.726 3.939 A 3.955 3.955 0 0 0 11.698 4.425 A 3.162 3.162 0 0 0 11.734 4.918 Q 11.775 5.178 11.864 5.389 A 1.474 1.474 0 0 0 12.032 5.691 A 1.06 1.06 0 0 0 12.795 6.139 A 1.391 1.391 0 0 0 12.955 6.148 Q 13.729 6.148 14.085 5.454 Z M 45.523 5.449 L 45.523 3.278 A 1.439 1.439 0 0 0 45.222 2.891 Q 44.918 2.62 44.478 2.599 A 1.578 1.578 0 0 0 44.402 2.597 Q 43.811 2.597 43.477 3.056 A 1.51 1.51 0 0 0 43.266 3.484 Q 43.2 3.689 43.169 3.939 A 3.955 3.955 0 0 0 43.141 4.425 Q 43.141 5.229 43.471 5.689 Q 43.8 6.148 44.394 6.148 A 1.32 1.32 0 0 0 44.903 6.054 Q 45.295 5.891 45.523 5.449 Z M 25.589 1.639 L 23.695 4.601 L 25.686 4.601 L 25.686 1.463 L 25.589 1.639 Z M 31.342 5.005 A 1.375 1.375 0 0 0 31.282 4.592 A 1.109 1.109 0 0 0 31.001 4.131 A 1.148 1.148 0 0 0 30.33 3.807 A 1.593 1.593 0 0 0 30.111 3.792 A 1.466 1.466 0 0 0 29.723 3.841 A 1.086 1.086 0 0 0 29.23 4.126 A 1.123 1.123 0 0 0 28.917 4.762 A 1.572 1.572 0 0 0 28.898 5.005 A 1.48 1.48 0 0 0 28.94 5.367 A 1.019 1.019 0 0 0 29.221 5.862 Q 29.528 6.158 30.061 6.173 A 2.053 2.053 0 0 0 30.12 6.174 Q 30.614 6.174 30.924 5.94 A 1.018 1.018 0 0 0 31.017 5.86 A 1.041 1.041 0 0 0 31.316 5.292 A 1.518 1.518 0 0 0 31.342 5.005 Z M 30.12 0.932 A 1.259 1.259 0 0 0 29.767 0.979 A 0.973 0.973 0 0 0 29.345 1.228 Q 29.048 1.525 29.048 2.035 A 1.325 1.325 0 0 0 29.092 2.387 A 0.994 0.994 0 0 0 29.34 2.823 A 0.974 0.974 0 0 0 29.902 3.108 A 1.382 1.382 0 0 0 30.12 3.125 A 1.279 1.279 0 0 0 30.465 3.08 A 0.952 0.952 0 0 0 30.9 2.823 A 1.018 1.018 0 0 0 31.175 2.26 A 1.426 1.426 0 0 0 31.192 2.035 A 1.282 1.282 0 0 0 31.142 1.668 A 1.013 1.013 0 0 0 30.889 1.239 Q 30.586 0.932 30.12 0.932 Z M 16.792 3.938 L 19.173 3.938 L 19.173 3.876 Q 19.147 3.417 18.977 3.111 A 1.13 1.13 0 0 0 18.839 2.916 A 0.983 0.983 0 0 0 18.185 2.584 A 1.39 1.39 0 0 0 18.031 2.575 A 1.106 1.106 0 0 0 17.508 2.698 A 1.14 1.14 0 0 0 17.205 2.933 A 1.417 1.417 0 0 0 16.928 3.379 Q 16.854 3.563 16.814 3.785 A 2.741 2.741 0 0 0 16.792 3.938 Z M 40.337 0.734 Q 40.337 0.536 40.458 0.4 Q 40.57 0.274 40.782 0.264 A 0.783 0.783 0 0 1 40.816 0.264 Q 41.054 0.264 41.177 0.4 A 0.474 0.474 0 0 1 41.299 0.703 A 0.614 0.614 0 0 1 41.3 0.734 A 0.523 0.523 0 0 1 41.275 0.9 A 0.442 0.442 0 0 1 41.177 1.063 Q 41.064 1.184 40.856 1.194 A 0.803 0.803 0 0 1 40.816 1.195 Q 40.644 1.195 40.533 1.126 A 0.362 0.362 0 0 1 40.458 1.063 A 0.456 0.456 0 0 1 40.34 0.788 A 0.605 0.605 0 0 1 40.337 0.734 Z" vector-effect="non-scaling-stroke"/></g>
</svg>