<?xml version="1.0" encoding="UTF-8"?>
<svg width="48px" height="48px" viewBox="0 0 48 48" version="1.1" xmlns="http://www.w3.org/2000/svg" xmlns:xlink="http://www.w3.org/1999/xlink">
    <title>Icon-Resource/General-Resource/Res_User_48_Light</title>
    <g id="Icon-Resource/General-Resource/Res_User_48" stroke="none" stroke-width="1" fill="none" fill-rule="evenodd">
        <path transform="translate(12.000000, 8.000000), scale(.65)" d="M6.025,44 C6.524,34.085 14.395,26.178 24,26.178 C27.248,26.178 30.43,27.092 33.205,28.822 C38.354,32.033 41.653,37.783 41.974,44 L6.025,44 Z M14.192,13.878 C14.192,8.432 18.592,4 24.001,4 C29.408,4 33.807,8.432 33.807,13.878 C33.807,19.325 29.408,23.757 24.001,23.757 C18.592,23.757 14.192,19.325 14.192,13.878 L14.192,13.878 Z M34.263,27.125 C32.53,26.044 30.65,25.26 28.698,24.771 C32.877,22.939 35.807,18.749 35.807,13.878 C35.807,7.329 30.51,2 24.001,2 C17.489,2 12.192,7.329 12.192,13.878 C12.192,18.755 15.13,22.95 19.317,24.778 C10.545,26.981 4,35.2 4,45 C4,45.552 4.447,46 5,46 L43,46 C43.552,46 44,45.552 44,45 C44,37.719 40.269,30.87 34.263,27.125 L34.263,27.125 Z" id="Fill-1" fill="#000000"></path>
    </g><g transform="translate(25, 83)" id="svgGroup" stroke-linecap="round" fill-rule="evenodd" font-size="9pt" stroke="#000" stroke-width="0.25mm" fill="#000" style="stroke:#000;stroke-width:0.25mm;fill:#000"><path d="M 20.839 0.352 L 21.687 0.352 L 21.687 4.702 Q 21.683 5.607 21.118 6.183 A 2.088 2.088 0 0 1 20.165 6.732 A 2.969 2.969 0 0 1 19.586 6.829 L 19.362 6.838 Q 18.312 6.838 17.688 6.271 A 1.887 1.887 0 0 1 17.098 5.181 A 2.738 2.738 0 0 1 17.055 4.711 L 17.055 0.352 L 17.89 0.352 L 17.89 4.685 A 2.025 2.025 0 0 0 17.934 5.121 Q 18.02 5.51 18.272 5.763 A 1.238 1.238 0 0 0 18.823 6.08 Q 19.019 6.135 19.252 6.146 A 2.466 2.466 0 0 0 19.362 6.148 A 2.145 2.145 0 0 0 19.794 6.107 Q 20.049 6.055 20.245 5.934 A 1.145 1.145 0 0 0 20.459 5.766 A 1.247 1.247 0 0 0 20.776 5.202 Q 20.839 4.971 20.839 4.689 L 20.839 0.352 Z M 62.798 0 L 62.798 2.571 A 1.767 1.767 0 0 1 63.464 2.053 A 1.832 1.832 0 0 1 64.204 1.907 A 1.905 1.905 0 0 1 64.838 2.004 Q 65.679 2.3 65.722 3.506 A 3.668 3.668 0 0 1 65.725 3.608 L 65.725 6.75 L 64.912 6.75 L 64.912 3.604 A 1.837 1.837 0 0 0 64.889 3.324 Q 64.839 3.017 64.677 2.843 Q 64.49 2.645 64.137 2.606 A 1.66 1.66 0 0 0 63.958 2.597 A 1.253 1.253 0 0 0 63.544 2.664 A 1.123 1.123 0 0 0 63.264 2.808 A 1.432 1.432 0 0 0 62.798 3.362 L 62.798 6.75 L 61.985 6.75 L 61.985 0 L 62.798 0 Z M 3.74 6.75 L 2.351 4.162 L 0.848 4.162 L 0.848 6.75 L 0 6.75 L 0 0.352 L 2.118 0.352 A 3.809 3.809 0 0 1 2.76 0.402 Q 3.102 0.461 3.376 0.587 A 1.789 1.789 0 0 1 3.781 0.844 A 1.588 1.588 0 0 1 4.307 1.732 A 2.453 2.453 0 0 1 4.364 2.276 A 1.864 1.864 0 0 1 4.273 2.868 A 1.64 1.64 0 0 1 4.041 3.318 A 1.849 1.849 0 0 1 3.382 3.875 A 2.342 2.342 0 0 1 3.142 3.981 L 4.645 6.697 L 4.645 6.75 L 3.74 6.75 Z M 59.977 2.522 L 60.016 1.995 L 60.759 1.995 L 60.759 6.636 A 2.511 2.511 0 0 1 60.688 7.249 A 1.738 1.738 0 0 1 60.212 8.09 A 1.834 1.834 0 0 1 59.282 8.57 A 2.671 2.671 0 0 1 58.742 8.622 A 2.446 2.446 0 0 1 57.735 8.402 A 2.003 2.003 0 0 1 57.325 8.161 A 1.563 1.563 0 0 1 56.984 7.8 L 57.406 7.313 A 1.889 1.889 0 0 0 57.84 7.712 A 1.514 1.514 0 0 0 58.685 7.958 A 1.695 1.695 0 0 0 59.062 7.919 Q 59.33 7.858 59.524 7.702 A 1.037 1.037 0 0 0 59.61 7.625 A 1.09 1.09 0 0 0 59.887 7.132 Q 59.934 6.959 59.94 6.752 A 2.134 2.134 0 0 0 59.941 6.684 L 59.941 6.275 A 1.601 1.601 0 0 1 58.889 6.821 A 2.279 2.279 0 0 1 58.61 6.838 A 1.672 1.672 0 0 1 57.855 6.67 Q 57.533 6.51 57.283 6.197 A 2.14 2.14 0 0 1 57.259 6.166 A 2.316 2.316 0 0 1 56.875 5.386 Q 56.742 4.922 56.742 4.333 Q 56.742 3.472 57.051 2.884 A 2.096 2.096 0 0 1 57.256 2.564 Q 57.771 1.907 58.619 1.907 A 1.971 1.971 0 0 1 59.217 1.994 A 1.55 1.55 0 0 1 59.977 2.522 Z M 13.724 3.393 L 12.907 3.393 Q 12.907 3.059 12.623 2.817 Q 12.34 2.575 11.909 2.575 Q 11.465 2.575 11.215 2.769 A 0.653 0.653 0 0 0 11.04 2.967 Q 10.967 3.098 10.964 3.263 A 0.771 0.771 0 0 0 10.964 3.274 A 0.588 0.588 0 0 0 10.994 3.467 A 0.48 0.48 0 0 0 11.197 3.718 A 1.093 1.093 0 0 0 11.348 3.796 Q 11.512 3.868 11.767 3.937 A 6.581 6.581 0 0 0 12.039 4.003 A 6.318 6.318 0 0 1 12.446 4.108 Q 12.783 4.208 13.025 4.329 A 1.901 1.901 0 0 1 13.281 4.481 Q 13.418 4.579 13.516 4.692 A 1.06 1.06 0 0 1 13.586 4.783 A 1.024 1.024 0 0 1 13.748 5.191 A 1.388 1.388 0 0 1 13.768 5.432 Q 13.768 6.069 13.258 6.453 Q 12.776 6.817 12.022 6.837 A 3.337 3.337 0 0 1 11.936 6.838 A 2.746 2.746 0 0 1 11.401 6.788 A 2.124 2.124 0 0 1 10.925 6.636 A 1.771 1.771 0 0 1 10.491 6.358 A 1.54 1.54 0 0 1 10.237 6.071 Q 9.989 5.708 9.989 5.287 L 10.802 5.287 A 0.932 0.932 0 0 0 10.875 5.612 A 0.827 0.827 0 0 0 11.129 5.935 A 1.072 1.072 0 0 0 11.531 6.128 Q 11.686 6.167 11.867 6.173 A 2.013 2.013 0 0 0 11.936 6.174 A 1.863 1.863 0 0 0 12.231 6.152 Q 12.393 6.126 12.524 6.07 A 0.941 0.941 0 0 0 12.676 5.988 A 0.689 0.689 0 0 0 12.841 5.837 A 0.554 0.554 0 0 0 12.955 5.489 A 0.698 0.698 0 0 0 12.919 5.258 A 0.581 0.581 0 0 0 12.707 4.977 A 1.05 1.05 0 0 0 12.538 4.878 Q 12.349 4.788 12.054 4.712 A 5.392 5.392 0 0 0 11.841 4.663 A 6.342 6.342 0 0 1 11.48 4.575 Q 11.11 4.473 10.861 4.346 Q 10.562 4.194 10.392 3.994 A 1.017 1.017 0 0 1 10.325 3.907 Q 10.151 3.652 10.151 3.3 A 1.206 1.206 0 0 1 10.55 2.396 A 1.694 1.694 0 0 1 10.646 2.312 A 1.752 1.752 0 0 1 11.429 1.952 A 2.471 2.471 0 0 1 11.909 1.907 A 2.559 2.559 0 0 1 12.473 1.966 A 1.757 1.757 0 0 1 13.221 2.325 Q 13.724 2.742 13.724 3.393 Z M 26.429 3.393 L 25.611 3.393 Q 25.611 3.059 25.328 2.817 Q 25.044 2.575 24.614 2.575 Q 24.17 2.575 23.919 2.769 A 0.653 0.653 0 0 0 23.744 2.967 Q 23.671 3.098 23.669 3.263 A 0.771 0.771 0 0 0 23.669 3.274 A 0.588 0.588 0 0 0 23.699 3.467 A 0.48 0.48 0 0 0 23.902 3.718 A 1.093 1.093 0 0 0 24.052 3.796 Q 24.216 3.868 24.472 3.937 A 6.581 6.581 0 0 0 24.743 4.003 A 6.318 6.318 0 0 1 25.151 4.108 Q 25.488 4.208 25.73 4.329 A 1.901 1.901 0 0 1 25.986 4.481 Q 26.123 4.579 26.22 4.692 A 1.06 1.06 0 0 1 26.29 4.783 A 1.024 1.024 0 0 1 26.453 5.191 A 1.388 1.388 0 0 1 26.473 5.432 Q 26.473 6.069 25.963 6.453 Q 25.481 6.817 24.727 6.837 A 3.337 3.337 0 0 1 24.64 6.838 A 2.746 2.746 0 0 1 24.106 6.788 A 2.124 2.124 0 0 1 23.629 6.636 A 1.771 1.771 0 0 1 23.195 6.358 A 1.54 1.54 0 0 1 22.942 6.071 Q 22.693 5.708 22.693 5.287 L 23.506 5.287 A 0.932 0.932 0 0 0 23.58 5.612 A 0.827 0.827 0 0 0 23.834 5.935 A 1.072 1.072 0 0 0 24.236 6.128 Q 24.39 6.167 24.572 6.173 A 2.013 2.013 0 0 0 24.64 6.174 A 1.863 1.863 0 0 0 24.936 6.152 Q 25.097 6.126 25.229 6.07 A 0.941 0.941 0 0 0 25.381 5.988 A 0.689 0.689 0 0 0 25.545 5.837 A 0.554 0.554 0 0 0 25.66 5.489 A 0.698 0.698 0 0 0 25.623 5.258 A 0.581 0.581 0 0 0 25.411 4.977 A 1.05 1.05 0 0 0 25.243 4.878 Q 25.054 4.788 24.759 4.712 A 5.392 5.392 0 0 0 24.546 4.663 A 6.342 6.342 0 0 1 24.185 4.575 Q 23.815 4.473 23.566 4.346 Q 23.267 4.194 23.096 3.994 A 1.017 1.017 0 0 1 23.03 3.907 Q 22.856 3.652 22.856 3.3 A 1.206 1.206 0 0 1 23.255 2.396 A 1.694 1.694 0 0 1 23.35 2.312 A 1.752 1.752 0 0 1 24.133 1.952 A 2.471 2.471 0 0 1 24.614 1.907 A 2.559 2.559 0 0 1 25.177 1.966 A 1.757 1.757 0 0 1 25.926 2.325 Q 26.429 2.742 26.429 3.393 Z M 5.212 4.504 L 5.212 4.355 A 3.17 3.17 0 0 1 5.288 3.646 A 2.581 2.581 0 0 1 5.482 3.092 A 2.191 2.191 0 0 1 5.93 2.466 A 2.033 2.033 0 0 1 6.238 2.221 Q 6.724 1.907 7.291 1.907 A 2.254 2.254 0 0 1 7.904 1.986 A 1.639 1.639 0 0 1 8.732 2.518 Q 9.246 3.129 9.246 4.267 L 9.246 4.605 L 6.025 4.605 A 2.111 2.111 0 0 0 6.096 5.114 A 1.516 1.516 0 0 0 6.436 5.741 A 1.282 1.282 0 0 0 7.37 6.173 A 1.652 1.652 0 0 0 7.436 6.174 A 1.763 1.763 0 0 0 7.764 6.145 Q 7.988 6.103 8.165 5.999 A 1.827 1.827 0 0 0 8.674 5.551 A 2.068 2.068 0 0 0 8.688 5.533 L 9.185 5.919 A 1.926 1.926 0 0 1 7.785 6.811 A 2.749 2.749 0 0 1 7.392 6.838 A 2.394 2.394 0 0 1 6.64 6.725 A 1.974 1.974 0 0 1 5.818 6.203 Q 5.212 5.568 5.212 4.504 Z M 27.325 4.504 L 27.325 4.355 A 3.17 3.17 0 0 1 27.401 3.646 A 2.581 2.581 0 0 1 27.595 3.092 A 2.191 2.191 0 0 1 28.043 2.466 A 2.033 2.033 0 0 1 28.351 2.221 Q 28.837 1.907 29.404 1.907 A 2.254 2.254 0 0 1 30.017 1.986 A 1.639 1.639 0 0 1 30.845 2.518 Q 31.359 3.129 31.359 4.267 L 31.359 4.605 L 28.138 4.605 A 2.111 2.111 0 0 0 28.209 5.114 A 1.516 1.516 0 0 0 28.549 5.741 A 1.282 1.282 0 0 0 29.483 6.173 A 1.652 1.652 0 0 0 29.549 6.174 A 1.763 1.763 0 0 0 29.877 6.145 Q 30.101 6.103 30.278 5.999 A 1.827 1.827 0 0 0 30.787 5.551 A 2.068 2.068 0 0 0 30.801 5.533 L 31.298 5.919 A 1.926 1.926 0 0 1 29.898 6.811 A 2.749 2.749 0 0 1 29.505 6.838 A 2.394 2.394 0 0 1 28.754 6.725 A 1.974 1.974 0 0 1 27.932 6.203 Q 27.325 5.568 27.325 4.504 Z M 50.884 0.352 L 50.884 6.06 L 53.917 6.06 L 53.917 6.75 L 50.036 6.75 L 50.036 0.352 L 50.884 0.352 Z M 40.922 0.352 L 40.922 4.601 L 41.81 4.601 L 41.81 5.265 L 40.922 5.265 L 40.922 6.75 L 40.104 6.75 L 40.104 5.265 L 37.191 5.265 L 37.191 4.786 L 40.056 0.352 L 40.922 0.352 Z M 46.32 2.592 A 1.544 1.544 0 0 0 46.424 2.021 A 2.226 2.226 0 0 0 46.402 1.707 A 1.566 1.566 0 0 0 45.903 0.738 A 1.754 1.754 0 0 0 45.137 0.333 A 2.443 2.443 0 0 0 44.539 0.264 A 2.539 2.539 0 0 0 44.029 0.312 A 1.767 1.767 0 0 0 43.172 0.738 Q 42.653 1.213 42.653 2.021 A 1.808 1.808 0 0 0 42.654 2.058 A 1.499 1.499 0 0 0 42.899 2.87 A 1.626 1.626 0 0 0 43.061 3.077 A 1.726 1.726 0 0 0 43.572 3.454 A 2.119 2.119 0 0 0 43.472 3.5 A 1.738 1.738 0 0 0 42.787 4.087 A 1.629 1.629 0 0 0 42.504 5.023 A 2.272 2.272 0 0 0 42.514 5.237 A 1.63 1.63 0 0 0 43.06 6.344 A 1.895 1.895 0 0 0 43.91 6.771 A 2.797 2.797 0 0 0 44.539 6.838 A 2.796 2.796 0 0 0 45.138 6.777 A 1.925 1.925 0 0 0 46.013 6.346 A 1.578 1.578 0 0 0 46.488 5.62 A 1.989 1.989 0 0 0 46.573 5.023 A 1.581 1.581 0 0 0 46.281 4.087 Q 45.989 3.674 45.488 3.458 Q 45.918 3.248 46.171 2.874 A 1.449 1.449 0 0 0 46.32 2.592 Z M 67.232 0.844 L 68.045 0.844 L 68.045 1.995 L 68.933 1.995 L 68.933 2.624 L 68.045 2.624 L 68.045 5.572 Q 68.045 5.858 68.164 6.001 Q 68.282 6.144 68.568 6.144 A 1.046 1.046 0 0 0 68.665 6.138 Q 68.768 6.129 68.908 6.101 A 4.024 4.024 0 0 0 68.955 6.091 L 68.955 6.75 A 2.463 2.463 0 0 1 68.522 6.829 A 2.157 2.157 0 0 1 68.331 6.838 Q 67.883 6.838 67.617 6.616 A 0.856 0.856 0 0 1 67.509 6.508 Q 67.281 6.238 67.241 5.78 A 2.351 2.351 0 0 1 67.232 5.572 L 67.232 2.624 L 66.366 2.624 L 66.366 1.995 L 67.232 1.995 L 67.232 0.844 Z M 34.598 1.969 L 34.598 2.725 A 2.251 2.251 0 0 0 34.355 2.698 A 2.782 2.782 0 0 0 34.198 2.694 Q 33.42 2.694 33.129 3.338 A 1.445 1.445 0 0 0 33.113 3.375 L 33.113 6.75 L 32.3 6.75 L 32.3 1.995 L 33.091 1.995 L 33.104 2.544 Q 33.484 1.938 34.167 1.909 A 1.636 1.636 0 0 1 34.238 1.907 Q 34.475 1.907 34.598 1.969 Z M 55.635 1.995 L 55.635 6.75 L 54.822 6.75 L 54.822 1.995 L 55.635 1.995 Z M 59.941 5.449 L 59.941 3.278 A 1.439 1.439 0 0 0 59.64 2.891 Q 59.337 2.62 58.896 2.599 A 1.578 1.578 0 0 0 58.821 2.597 Q 58.229 2.597 57.895 3.056 A 1.51 1.51 0 0 0 57.684 3.484 Q 57.619 3.689 57.587 3.939 A 3.955 3.955 0 0 0 57.56 4.425 Q 57.56 5.229 57.889 5.689 Q 58.219 6.148 58.812 6.148 A 1.32 1.32 0 0 0 59.322 6.054 Q 59.713 5.891 59.941 5.449 Z M 0.848 1.046 L 0.848 3.472 L 2.145 3.472 Q 2.685 3.472 3.035 3.231 A 1.174 1.174 0 0 0 3.144 3.146 A 1.069 1.069 0 0 0 3.51 2.409 A 1.486 1.486 0 0 0 3.516 2.276 Q 3.516 1.734 3.22 1.423 A 1 1 0 0 0 3.162 1.367 Q 2.808 1.05 2.14 1.046 L 0.848 1.046 Z M 40.008 1.639 L 38.114 4.601 L 40.104 4.601 L 40.104 1.463 L 40.008 1.639 Z M 45.76 5.005 A 1.375 1.375 0 0 0 45.701 4.592 A 1.109 1.109 0 0 0 45.42 4.131 A 1.148 1.148 0 0 0 44.748 3.807 A 1.593 1.593 0 0 0 44.53 3.792 A 1.466 1.466 0 0 0 44.141 3.841 A 1.086 1.086 0 0 0 43.649 4.126 A 1.123 1.123 0 0 0 43.335 4.762 A 1.572 1.572 0 0 0 43.317 5.005 A 1.48 1.48 0 0 0 43.359 5.367 A 1.019 1.019 0 0 0 43.64 5.862 Q 43.946 6.158 44.479 6.173 A 2.053 2.053 0 0 0 44.539 6.174 Q 45.032 6.174 45.342 5.94 A 1.018 1.018 0 0 0 45.435 5.86 A 1.041 1.041 0 0 0 45.734 5.292 A 1.518 1.518 0 0 0 45.76 5.005 Z M 44.539 0.932 A 1.259 1.259 0 0 0 44.186 0.979 A 0.973 0.973 0 0 0 43.763 1.228 Q 43.466 1.525 43.466 2.035 A 1.325 1.325 0 0 0 43.511 2.387 A 0.994 0.994 0 0 0 43.759 2.823 A 0.974 0.974 0 0 0 44.321 3.108 A 1.382 1.382 0 0 0 44.539 3.125 A 1.279 1.279 0 0 0 44.883 3.08 A 0.952 0.952 0 0 0 45.319 2.823 A 1.018 1.018 0 0 0 45.594 2.26 A 1.426 1.426 0 0 0 45.611 2.035 A 1.282 1.282 0 0 0 45.561 1.668 A 1.013 1.013 0 0 0 45.308 1.239 Q 45.004 0.932 44.539 0.932 Z M 6.051 3.938 L 8.433 3.938 L 8.433 3.876 Q 8.407 3.417 8.236 3.111 A 1.13 1.13 0 0 0 8.099 2.916 A 0.983 0.983 0 0 0 7.445 2.584 A 1.39 1.39 0 0 0 7.291 2.575 A 1.106 1.106 0 0 0 6.768 2.698 A 1.14 1.14 0 0 0 6.464 2.933 A 1.417 1.417 0 0 0 6.188 3.379 Q 6.114 3.563 6.074 3.785 A 2.741 2.741 0 0 0 6.051 3.938 Z M 28.165 3.938 L 30.546 3.938 L 30.546 3.876 Q 30.52 3.417 30.35 3.111 A 1.13 1.13 0 0 0 30.212 2.916 A 0.983 0.983 0 0 0 29.558 2.584 A 1.39 1.39 0 0 0 29.404 2.575 A 1.106 1.106 0 0 0 28.881 2.698 A 1.14 1.14 0 0 0 28.578 2.933 A 1.417 1.417 0 0 0 28.301 3.379 Q 28.227 3.563 28.187 3.785 A 2.741 2.741 0 0 0 28.165 3.938 Z M 54.756 0.734 Q 54.756 0.536 54.877 0.4 Q 54.989 0.274 55.2 0.264 A 0.783 0.783 0 0 1 55.235 0.264 Q 55.472 0.264 55.595 0.4 A 0.474 0.474 0 0 1 55.718 0.703 A 0.614 0.614 0 0 1 55.718 0.734 A 0.523 0.523 0 0 1 55.693 0.9 A 0.442 0.442 0 0 1 55.595 1.063 Q 55.483 1.184 55.275 1.194 A 0.803 0.803 0 0 1 55.235 1.195 Q 55.063 1.195 54.952 1.126 A 0.362 0.362 0 0 1 54.877 1.063 A 0.456 0.456 0 0 1 54.758 0.788 A 0.605 0.605 0 0 1 54.756 0.734 Z" vector-effect="non-scaling-stroke"/></g>
</svgversion="1.0" encoding="UTF-8"?>
<svg width="48px" height="48px" viewBox="0 0 48 48" version="1.1" xmlns="http://www.w3.org/2000/svg" xmlns:xlink="http://www.w3.org/1999/xlink">
    <title>Icon-Resource/General-Resource/Res_User_48_Light</title>
    <g id="Icon-Resource/General-Resource/Res_User_48" stroke="none" stroke-width="1" fill="none" fill-rule="evenodd">
        <path transform="translate(12.000000, 8.000000), scale(.65)" d="M6.025,44 C6.524,34.085 14.395,26.178 24,26.178 C27.248,26.178 30.43,27.092 33.205,28.822 C38.354,32.033 41.653,37.783 41.974,44 L6.025,44 Z M14.192,13.878 C14.192,8.432 18.592,4 24.001,4 C29.408,4 33.807,8.432 33.807,13.878 C33.807,19.325 29.408,23.757 24.001,23.757 C18.592,23.757 14.192,19.325 14.192,13.878 L14.192,13.878 Z M34.263,27.125 C32.53,26.044 30.65,25.26 28.698,24.771 C32.877,22.939 35.807,18.749 35.807,13.878 C35.807,7.329 30.51,2 24.001,2 C17.489,2 12.192,7.329 12.192,13.878 C12.192,18.755 15.13,22.95 19.317,24.778 C10.545,26.981 4,35.2 4,45 C4,45.552 4.447,46 5,46 L43,46 C43.552,46 44,45.552 44,45 C44,37.719 40.269,30.87 34.263,27.125 L34.263,27.125 Z" id="Fill-1" fill="#000000"></path>
    </g><g transform="translate(25, 83)" id="svgGroup" stroke-linecap="round" fill-rule="evenodd" font-size="9pt" stroke="#000" stroke-width="0.25mm" fill="#000" style="stroke:#000;stroke-width:0.25mm;fill:#000"><path d="M 20.839 0.352 L 21.687 0.352 L 21.687 4.702 Q 21.683 5.607 21.118 6.183 A 2.088 2.088 0 0 1 20.165 6.732 A 2.969 2.969 0 0 1 19.586 6.829 L 19.362 6.838 Q 18.312 6.838 17.688 6.271 A 1.887 1.887 0 0 1 17.098 5.181 A 2.738 2.738 0 0 1 17.055 4.711 L 17.055 0.352 L 17.89 0.352 L 17.89 4.685 A 2.025 2.025 0 0 0 17.934 5.121 Q 18.02 5.51 18.272 5.763 A 1.238 1.238 0 0 0 18.823 6.08 Q 19.019 6.135 19.252 6.146 A 2.466 2.466 0 0 0 19.362 6.148 A 2.145 2.145 0 0 0 19.794 6.107 Q 20.049 6.055 20.245 5.934 A 1.145 1.145 0 0 0 20.459 5.766 A 1.247 1.247 0 0 0 20.776 5.202 Q 20.839 4.971 20.839 4.689 L 20.839 0.352 Z M 62.798 0 L 62.798 2.571 A 1.767 1.767 0 0 1 63.464 2.053 A 1.832 1.832 0 0 1 64.204 1.907 A 1.905 1.905 0 0 1 64.838 2.004 Q 65.679 2.3 65.722 3.506 A 3.668 3.668 0 0 1 65.725 3.608 L 65.725 6.75 L 64.912 6.75 L 64.912 3.604 A 1.837 1.837 0 0 0 64.889 3.324 Q 64.839 3.017 64.677 2.843 Q 64.49 2.645 64.137 2.606 A 1.66 1.66 0 0 0 63.958 2.597 A 1.253 1.253 0 0 0 63.544 2.664 A 1.123 1.123 0 0 0 63.264 2.808 A 1.432 1.432 0 0 0 62.798 3.362 L 62.798 6.75 L 61.985 6.75 L 61.985 0 L 62.798 0 Z M 3.74 6.75 L 2.351 4.162 L 0.848 4.162 L 0.848 6.75 L 0 6.75 L 0 0.352 L 2.118 0.352 A 3.809 3.809 0 0 1 2.76 0.402 Q 3.102 0.461 3.376 0.587 A 1.789 1.789 0 0 1 3.781 0.844 A 1.588 1.588 0 0 1 4.307 1.732 A 2.453 2.453 0 0 1 4.364 2.276 A 1.864 1.864 0 0 1 4.273 2.868 A 1.64 1.64 0 0 1 4.041 3.318 A 1.849 1.849 0 0 1 3.382 3.875 A 2.342 2.342 0 0 1 3.142 3.981 L 4.645 6.697 L 4.645 6.75 L 3.74 6.75 Z M 59.977 2.522 L 60.016 1.995 L 60.759 1.995 L 60.759 6.636 A 2.511 2.511 0 0 1 60.688 7.249 A 1.738 1.738 0 0 1 60.212 8.09 A 1.834 1.834 0 0 1 59.282 8.57 A 2.671 2.671 0 0 1 58.742 8.622 A 2.446 2.446 0 0 1 57.735 8.402 A 2.003 2.003 0 0 1 57.325 8.161 A 1.563 1.563 0 0 1 56.984 7.8 L 57.406 7.313 A 1.889 1.889 0 0 0 57.84 7.712 A 1.514 1.514 0 0 0 58.685 7.958 A 1.695 1.695 0 0 0 59.062 7.919 Q 59.33 7.858 59.524 7.702 A 1.037 1.037 0 0 0 59.61 7.625 A 1.09 1.09 0 0 0 59.887 7.132 Q 59.934 6.959 59.94 6.752 A 2.134 2.134 0 0 0 59.941 6.684 L 59.941 6.275 A 1.601 1.601 0 0 1 58.889 6.821 A 2.279 2.279 0 0 1 58.61 6.838 A 1.672 1.672 0 0 1 57.855 6.67 Q 57.533 6.51 57.283 6.197 A 2.14 2.14 0 0 1 57.259 6.166 A 2.316 2.316 0 0 1 56.875 5.386 Q 56.742 4.922 56.742 4.333 Q 56.742 3.472 57.051 2.884 A 2.096 2.096 0 0 1 57.256 2.564 Q 57.771 1.907 58.619 1.907 A 1.971 1.971 0 0 1 59.217 1.994 A 1.55 1.55 0 0 1 59.977 2.522 Z M 13.724 3.393 L 12.907 3.393 Q 12.907 3.059 12.623 2.817 Q 12.34 2.575 11.909 2.575 Q 11.465 2.575 11.215 2.769 A 0.653 0.653 0 0 0 11.04 2.967 Q 10.967 3.098 10.964 3.263 A 0.771 0.771 0 0 0 10.964 3.274 A 0.588 0.588 0 0 0 10.994 3.467 A 0.48 0.48 0 0 0 11.197 3.718 A 1.093 1.093 0 0 0 11.348 3.796 Q 11.512 3.868 11.767 3.937 A 6.581 6.581 0 0 0 12.039 4.003 A 6.318 6.318 0 0 1 12.446 4.108 Q 12.783 4.208 13.025 4.329 A 1.901 1.901 0 0 1 13.281 4.481 Q 13.418 4.579 13.516 4.692 A 1.06 1.06 0 0 1 13.586 4.783 A 1.024 1.024 0 0 1 13.748 5.191 A 1.388 1.388 0 0 1 13.768 5.432 Q 13.768 6.069 13.258 6.453 Q 12.776 6.817 12.022 6.837 A 3.337 3.337 0 0 1 11.936 6.838 A 2.746 2.746 0 0 1 11.401 6.788 A 2.124 2.124 0 0 1 10.925 6.636 A 1.771 1.771 0 0 1 10.491 6.358 A 1.54 1.54 0 0 1 10.237 6.071 Q 9.989 5.708 9.989 5.287 L 10.802 5.287 A 0.932 0.932 0 0 0 10.875 5.612 A 0.827 0.827 0 0 0 11.129 5.935 A 1.072 1.072 0 0 0 11.531 6.128 Q 11.686 6.167 11.867 6.173 A 2.013 2.013 0 0 0 11.936 6.174 A 1.863 1.863 0 0 0 12.231 6.152 Q 12.393 6.126 12.524 6.07 A 0.941 0.941 0 0 0 12.676 5.988 A 0.689 0.689 0 0 0 12.841 5.837 A 0.554 0.554 0 0 0 12.955 5.489 A 0.698 0.698 0 0 0 12.919 5.258 A 0.581 0.581 0 0 0 12.707 4.977 A 1.05 1.05 0 0 0 12.538 4.878 Q 12.349 4.788 12.054 4.712 A 5.392 5.392 0 0 0 11.841 4.663 A 6.342 6.342 0 0 1 11.48 4.575 Q 11.11 4.473 10.861 4.346 Q 10.562 4.194 10.392 3.994 A 1.017 1.017 0 0 1 10.325 3.907 Q 10.151 3.652 10.151 3.3 A 1.206 1.206 0 0 1 10.55 2.396 A 1.694 1.694 0 0 1 10.646 2.312 A 1.752 1.752 0 0 1 11.429 1.952 A 2.471 2.471 0 0 1 11.909 1.907 A 2.559 2.559 0 0 1 12.473 1.966 A 1.757 1.757 0 0 1 13.221 2.325 Q 13.724 2.742 13.724 3.393 Z M 26.429 3.393 L 25.611 3.393 Q 25.611 3.059 25.328 2.817 Q 25.044 2.575 24.614 2.575 Q 24.17 2.575 23.919 2.769 A 0.653 0.653 0 0 0 23.744 2.967 Q 23.671 3.098 23.669 3.263 A 0.771 0.771 0 0 0 23.669 3.274 A 0.588 0.588 0 0 0 23.699 3.467 A 0.48 0.48 0 0 0 23.902 3.718 A 1.093 1.093 0 0 0 24.052 3.796 Q 24.216 3.868 24.472 3.937 A 6.581 6.581 0 0 0 24.743 4.003 A 6.318 6.318 0 0 1 25.151 4.108 Q 25.488 4.208 25.73 4.329 A 1.901 1.901 0 0 1 25.986 4.481 Q 26.123 4.579 26.22 4.692 A 1.06 1.06 0 0 1 26.29 4.783 A 1.024 1.024 0 0 1 26.453 5.191 A 1.388 1.388 0 0 1 26.473 5.432 Q 26.473 6.069 25.963 6.453 Q 25.481 6.817 24.727 6.837 A 3.337 3.337 0 0 1 24.64 6.838 A 2.746 2.746 0 0 1 24.106 6.788 A 2.124 2.124 0 0 1 23.629 6.636 A 1.771 1.771 0 0 1 23.195 6.358 A 1.54 1.54 0 0 1 22.942 6.071 Q 22.693 5.708 22.693 5.287 L 23.506 5.287 A 0.932 0.932 0 0 0 23.58 5.612 A 0.827 0.827 0 0 0 23.834 5.935 A 1.072 1.072 0 0 0 24.236 6.128 Q 24.39 6.167 24.572 6.173 A 2.013 2.013 0 0 0 24.64 6.174 A 1.863 1.863 0 0 0 24.936 6.152 Q 25.097 6.126 25.229 6.07 A 0.941 0.941 0 0 0 25.381 5.988 A 0.689 0.689 0 0 0 25.545 5.837 A 0.554 0.554 0 0 0 25.66 5.489 A 0.698 0.698 0 0 0 25.623 5.258 A 0.581 0.581 0 0 0 25.411 4.977 A 1.05 1.05 0 0 0 25.243 4.878 Q 25.054 4.788 24.759 4.712 A 5.392 5.392 0 0 0 24.546 4.663 A 6.342 6.342 0 0 1 24.185 4.575 Q 23.815 4.473 23.566 4.346 Q 23.267 4.194 23.096 3.994 A 1.017 1.017 0 0 1 23.03 3.907 Q 22.856 3.652 22.856 3.3 A 1.206 1.206 0 0 1 23.255 2.396 A 1.694 1.694 0 0 1 23.35 2.312 A 1.752 1.752 0 0 1 24.133 1.952 A 2.471 2.471 0 0 1 24.614 1.907 A 2.559 2.559 0 0 1 25.177 1.966 A 1.757 1.757 0 0 1 25.926 2.325 Q 26.429 2.742 26.429 3.393 Z M 5.212 4.504 L 5.212 4.355 A 3.17 3.17 0 0 1 5.288 3.646 A 2.581 2.581 0 0 1 5.482 3.092 A 2.191 2.191 0 0 1 5.93 2.466 A 2.033 2.033 0 0 1 6.238 2.221 Q 6.724 1.907 7.291 1.907 A 2.254 2.254 0 0 1 7.904 1.986 A 1.639 1.639 0 0 1 8.732 2.518 Q 9.246 3.129 9.246 4.267 L 9.246 4.605 L 6.025 4.605 A 2.111 2.111 0 0 0 6.096 5.114 A 1.516 1.516 0 0 0 6.436 5.741 A 1.282 1.282 0 0 0 7.37 6.173 A 1.652 1.652 0 0 0 7.436 6.174 A 1.763 1.763 0 0 0 7.764 6.145 Q 7.988 6.103 8.165 5.999 A 1.827 1.827 0 0 0 8.674 5.551 A 2.068 2.068 0 0 0 8.688 5.533 L 9.185 5.919 A 1.926 1.926 0 0 1 7.785 6.811 A 2.749 2.749 0 0 1 7.392 6.838 A 2.394 2.394 0 0 1 6.64 6.725 A 1.974 1.974 0 0 1 5.818 6.203 Q 5.212 5.568 5.212 4.504 Z M 27.325 4.504 L 27.325 4.355 A 3.17 3.17 0 0 1 27.401 3.646 A 2.581 2.581 0 0 1 27.595 3.092 A 2.191 2.191 0 0 1 28.043 2.466 A 2.033 2.033 0 0 1 28.351 2.221 Q 28.837 1.907 29.404 1.907 A 2.254 2.254 0 0 1 30.017 1.986 A 1.639 1.639 0 0 1 30.845 2.518 Q 31.359 3.129 31.359 4.267 L 31.359 4.605 L 28.138 4.605 A 2.111 2.111 0 0 0 28.209 5.114 A 1.516 1.516 0 0 0 28.549 5.741 A 1.282 1.282 0 0 0 29.483 6.173 A 1.652 1.652 0 0 0 29.549 6.174 A 1.763 1.763 0 0 0 29.877 6.145 Q 30.101 6.103 30.278 5.999 A 1.827 1.827 0 0 0 30.787 5.551 A 2.068 2.068 0 0 0 30.801 5.533 L 31.298 5.919 A 1.926 1.926 0 0 1 29.898 6.811 A 2.749 2.749 0 0 1 29.505 6.838 A 2.394 2.394 0 0 1 28.754 6.725 A 1.974 1.974 0 0 1 27.932 6.203 Q 27.325 5.568 27.325 4.504 Z M 50.884 0.352 L 50.884 6.06 L 53.917 6.06 L 53.917 6.75 L 50.036 6.75 L 50.036 0.352 L 50.884 0.352 Z M 40.922 0.352 L 40.922 4.601 L 41.81 4.601 L 41.81 5.265 L 40.922 5.265 L 40.922 6.75 L 40.104 6.75 L 40.104 5.265 L 37.191 5.265 L 37.191 4.786 L 40.056 0.352 L 40.922 0.352 Z M 46.32 2.592 A 1.544 1.544 0 0 0 46.424 2.021 A 2.226 2.226 0 0 0 46.402 1.707 A 1.566 1.566 0 0 0 45.903 0.738 A 1.754 1.754 0 0 0 45.137 0.333 A 2.443 2.443 0 0 0 44.539 0.264 A 2.539 2.539 0 0 0 44.029 0.312 A 1.767 1.767 0 0 0 43.172 0.738 Q 42.653 1.213 42.653 2.021 A 1.808 1.808 0 0 0 42.654 2.058 A 1.499 1.499 0 0 0 42.899 2.87 A 1.626 1.626 0 0 0 43.061 3.077 A 1.726 1.726 0 0 0 43.572 3.454 A 2.119 2.119 0 0 0 43.472 3.5 A 1.738 1.738 0 0 0 42.787 4.087 A 1.629 1.629 0 0 0 42.504 5.023 A 2.272 2.272 0 0 0 42.514 5.237 A 1.63 1.63 0 0 0 43.06 6.344 A 1.895 1.895 0 0 0 43.91 6.771 A 2.797 2.797 0 0 0 44.539 6.838 A 2.796 2.796 0 0 0 45.138 6.777 A 1.925 1.925 0 0 0 46.013 6.346 A 1.578 1.578 0 0 0 46.488 5.62 A 1.989 1.989 0 0 0 46.573 5.023 A 1.581 1.581 0 0 0 46.281 4.087 Q 45.989 3.674 45.488 3.458 Q 45.918 3.248 46.171 2.874 A 1.449 1.449 0 0 0 46.32 2.592 Z M 67.232 0.844 L 68.045 0.844 L 68.045 1.995 L 68.933 1.995 L 68.933 2.624 L 68.045 2.624 L 68.045 5.572 Q 68.045 5.858 68.164 6.001 Q 68.282 6.144 68.568 6.144 A 1.046 1.046 0 0 0 68.665 6.138 Q 68.768 6.129 68.908 6.101 A 4.024 4.024 0 0 0 68.955 6.091 L 68.955 6.75 A 2.463 2.463 0 0 1 68.522 6.829 A 2.157 2.157 0 0 1 68.331 6.838 Q 67.883 6.838 67.617 6.616 A 0.856 0.856 0 0 1 67.509 6.508 Q 67.281 6.238 67.241 5.78 A 2.351 2.351 0 0 1 67.232 5.572 L 67.232 2.624 L 66.366 2.624 L 66.366 1.995 L 67.232 1.995 L 67.232 0.844 Z M 34.598 1.969 L 34.598 2.725 A 2.251 2.251 0 0 0 34.355 2.698 A 2.782 2.782 0 0 0 34.198 2.694 Q 33.42 2.694 33.129 3.338 A 1.445 1.445 0 0 0 33.113 3.375 L 33.113 6.75 L 32.3 6.75 L 32.3 1.995 L 33.091 1.995 L 33.104 2.544 Q 33.484 1.938 34.167 1.909 A 1.636 1.636 0 0 1 34.238 1.907 Q 34.475 1.907 34.598 1.969 Z M 55.635 1.995 L 55.635 6.75 L 54.822 6.75 L 54.822 1.995 L 55.635 1.995 Z M 59.941 5.449 L 59.941 3.278 A 1.439 1.439 0 0 0 59.64 2.891 Q 59.337 2.62 58.896 2.599 A 1.578 1.578 0 0 0 58.821 2.597 Q 58.229 2.597 57.895 3.056 A 1.51 1.51 0 0 0 57.684 3.484 Q 57.619 3.689 57.587 3.939 A 3.955 3.955 0 0 0 57.56 4.425 Q 57.56 5.229 57.889 5.689 Q 58.219 6.148 58.812 6.148 A 1.32 1.32 0 0 0 59.322 6.054 Q 59.713 5.891 59.941 5.449 Z M 0.848 1.046 L 0.848 3.472 L 2.145 3.472 Q 2.685 3.472 3.035 3.231 A 1.174 1.174 0 0 0 3.144 3.146 A 1.069 1.069 0 0 0 3.51 2.409 A 1.486 1.486 0 0 0 3.516 2.276 Q 3.516 1.734 3.22 1.423 A 1 1 0 0 0 3.162 1.367 Q 2.808 1.05 2.14 1.046 L 0.848 1.046 Z M 40.008 1.639 L 38.114 4.601 L 40.104 4.601 L 40.104 1.463 L 40.008 1.639 Z M 45.76 5.005 A 1.375 1.375 0 0 0 45.701 4.592 A 1.109 1.109 0 0 0 45.42 4.131 A 1.148 1.148 0 0 0 44.748 3.807 A 1.593 1.593 0 0 0 44.53 3.792 A 1.466 1.466 0 0 0 44.141 3.841 A 1.086 1.086 0 0 0 43.649 4.126 A 1.123 1.123 0 0 0 43.335 4.762 A 1.572 1.572 0 0 0 43.317 5.005 A 1.48 1.48 0 0 0 43.359 5.367 A 1.019 1.019 0 0 0 43.64 5.862 Q 43.946 6.158 44.479 6.173 A 2.053 2.053 0 0 0 44.539 6.174 Q 45.032 6.174 45.342 5.94 A 1.018 1.018 0 0 0 45.435 5.86 A 1.041 1.041 0 0 0 45.734 5.292 A 1.518 1.518 0 0 0 45.76 5.005 Z M 44.539 0.932 A 1.259 1.259 0 0 0 44.186 0.979 A 0.973 0.973 0 0 0 43.763 1.228 Q 43.466 1.525 43.466 2.035 A 1.325 1.325 0 0 0 43.511 2.387 A 0.994 0.994 0 0 0 43.759 2.823 A 0.974 0.974 0 0 0 44.321 3.108 A 1.382 1.382 0 0 0 44.539 3.125 A 1.279 1.279 0 0 0 44.883 3.08 A 0.952 0.952 0 0 0 45.319 2.823 A 1.018 1.018 0 0 0 45.594 2.26 A 1.426 1.426 0 0 0 45.611 2.035 A 1.282 1.282 0 0 0 45.561 1.668 A 1.013 1.013 0 0 0 45.308 1.239 Q 45.004 0.932 44.539 0.932 Z M 6.051 3.938 L 8.433 3.938 L 8.433 3.876 Q 8.407 3.417 8.236 3.111 A 1.13 1.13 0 0 0 8.099 2.916 A 0.983 0.983 0 0 0 7.445 2.584 A 1.39 1.39 0 0 0 7.291 2.575 A 1.106 1.106 0 0 0 6.768 2.698 A 1.14 1.14 0 0 0 6.464 2.933 A 1.417 1.417 0 0 0 6.188 3.379 Q 6.114 3.563 6.074 3.785 A 2.741 2.741 0 0 0 6.051 3.938 Z M 28.165 3.938 L 30.546 3.938 L 30.546 3.876 Q 30.52 3.417 30.35 3.111 A 1.13 1.13 0 0 0 30.212 2.916 A 0.983 0.983 0 0 0 29.558 2.584 A 1.39 1.39 0 0 0 29.404 2.575 A 1.106 1.106 0 0 0 28.881 2.698 A 1.14 1.14 0 0 0 28.578 2.933 A 1.417 1.417 0 0 0 28.301 3.379 Q 28.227 3.563 28.187 3.785 A 2.741 2.741 0 0 0 28.165 3.938 Z M 54.756 0.734 Q 54.756 0.536 54.877 0.4 Q 54.989 0.274 55.2 0.264 A 0.783 0.783 0 0 1 55.235 0.264 Q 55.472 0.264 55.595 0.4 A 0.474 0.474 0 0 1 55.718 0.703 A 0.614 0.614 0 0 1 55.718 0.734 A 0.523 0.523 0 0 1 55.693 0.9 A 0.442 0.442 0 0 1 55.595 1.063 Q 55.483 1.184 55.275 1.194 A 0.803 0.803 0 0 1 55.235 1.195 Q 55.063 1.195 54.952 1.126 A 0.362 0.362 0 0 1 54.877 1.063 A 0.456 0.456 0 0 1 54.758 0.788 A 0.605 0.605 0 0 1 54.756 0.734 Z" vector-effect="non-scaling-stroke"/></g>
</svg>