<?xml version="1.0" encoding="UTF-8"?>
<svg width="80px" height="80px" viewBox="0 0 80 80" version="1.1" xmlns="http://www.w3.org/2000/svg" xmlns:xlink="http://www.w3.org/1999/xlink">
    <!-- Generator: Sketch 64 (93537) - https://sketch.com -->
    <title>Icon-Architecture/64/Arch_Amazon-Forecast_64</title>
    <desc>Created with Sketch.</desc>
    
    <g id="Icon-Architecture/64/Arch_Amazon-Forecast_64" stroke="none" stroke-width="1" fill="none" fill-rule="evenodd">
        
        <path transform="translate(0vw, 0vh), scale(.65)" d="M50,59 L56,59 L56,29 L50,29 L50,59 Z M48,61 L58,61 L58,27 L48,27 L48,61 Z M35,59 L41,59 L41,37 L35,37 L35,59 Z M33,61 L43,61 L43,35 L33,35 L33,61 Z M20,59 L26,59 L26,46 L20,46 L20,59 Z M18,61 L28,61 L28,44 L18,44 L18,61 Z M62,15 L62,17 L64.281,17 L58.291,22 L47.458,22 C47.096,22 46.762,22.196 46.585,22.512 L42.395,30 L31.689,30 C31.274,30 30.902,30.257 30.755,30.645 L27.582,39 L18,39 L18,41 L28.272,41 C28.687,41 29.06,40.743 29.207,40.355 L32.38,32 L42.98,32 C43.343,32 43.677,31.804 43.854,31.488 L48.044,24 L58.653,24 C58.888,24 59.114,23.918 59.294,23.768 L66,18.17 L66,21 L68,21 L68,15 L62,15 Z M63,26 L65,26 L65,66 L57,66 L12,66 L12,16 L55,16 L55,18 L14,18 L14,64 L57,64 L63,64 L63,26 Z" id="Amazon-Forecast_Icon_64_Squid" fill="#000000"></path>
    </g><g transform="translate(33vw, 80vh)" id="svgGroup" stroke-linecap="round" fill-rule="evenodd" font-size="9pt" stroke="#000" stroke-width="0.25mm" fill="#000" style="stroke:#000;stroke-width:0.25mm;fill:#000"><path d="M 3.529 2.883 L 3.529 3.573 L 0.844 3.573 L 0.844 6.398 L 0 6.398 L 0 0 L 3.964 0 L 3.964 0.694 L 0.844 0.694 L 0.844 2.883 L 3.529 2.883 Z M 30.762 3.041 L 29.944 3.041 Q 29.944 2.707 29.661 2.465 Q 29.377 2.224 28.947 2.224 Q 28.503 2.224 28.252 2.417 A 0.653 0.653 0 0 0 28.077 2.616 Q 28.004 2.747 28.002 2.912 A 0.771 0.771 0 0 0 28.002 2.922 A 0.588 0.588 0 0 0 28.032 3.115 A 0.48 0.48 0 0 0 28.235 3.366 A 1.093 1.093 0 0 0 28.385 3.445 Q 28.549 3.517 28.805 3.585 A 6.581 6.581 0 0 0 29.076 3.652 A 6.318 6.318 0 0 1 29.484 3.757 Q 29.821 3.856 30.063 3.977 A 1.901 1.901 0 0 1 30.319 4.13 Q 30.456 4.227 30.553 4.341 A 1.06 1.06 0 0 1 30.623 4.432 A 1.024 1.024 0 0 1 30.786 4.839 A 1.388 1.388 0 0 1 30.806 5.08 Q 30.806 5.717 30.296 6.102 Q 29.814 6.466 29.06 6.485 A 3.337 3.337 0 0 1 28.973 6.486 A 2.746 2.746 0 0 1 28.439 6.437 A 2.124 2.124 0 0 1 27.962 6.284 A 1.771 1.771 0 0 1 27.529 6.006 A 1.54 1.54 0 0 1 27.275 5.719 Q 27.026 5.357 27.026 4.935 L 27.839 4.935 A 0.932 0.932 0 0 0 27.913 5.26 A 0.827 0.827 0 0 0 28.167 5.583 A 1.072 1.072 0 0 0 28.569 5.776 Q 28.723 5.815 28.905 5.822 A 2.013 2.013 0 0 0 28.973 5.823 A 1.863 1.863 0 0 0 29.269 5.801 Q 29.43 5.775 29.562 5.718 A 0.941 0.941 0 0 0 29.714 5.636 A 0.689 0.689 0 0 0 29.878 5.486 A 0.554 0.554 0 0 0 29.993 5.137 A 0.698 0.698 0 0 0 29.956 4.906 A 0.581 0.581 0 0 0 29.744 4.625 A 1.05 1.05 0 0 0 29.576 4.527 Q 29.387 4.436 29.092 4.361 A 5.392 5.392 0 0 0 28.879 4.311 A 6.342 6.342 0 0 1 28.518 4.223 Q 28.148 4.122 27.899 3.995 Q 27.6 3.843 27.429 3.643 A 1.017 1.017 0 0 1 27.363 3.555 Q 27.189 3.3 27.189 2.949 A 1.206 1.206 0 0 1 27.588 2.044 A 1.694 1.694 0 0 1 27.683 1.96 A 1.752 1.752 0 0 1 28.466 1.6 A 2.471 2.471 0 0 1 28.947 1.556 A 2.559 2.559 0 0 1 29.51 1.614 A 1.757 1.757 0 0 1 30.259 1.973 Q 30.762 2.391 30.762 3.041 Z M 20.646 4.9 L 21.415 4.9 A 1.432 1.432 0 0 1 21.215 5.55 A 1.772 1.772 0 0 1 21.133 5.678 A 1.828 1.828 0 0 1 20.524 6.222 A 2.169 2.169 0 0 1 20.441 6.267 A 1.997 1.997 0 0 1 19.525 6.486 A 2.346 2.346 0 0 1 18.828 6.388 A 1.839 1.839 0 0 1 17.98 5.838 A 2.171 2.171 0 0 1 17.517 4.958 Q 17.407 4.557 17.407 4.065 L 17.407 3.929 A 3.24 3.24 0 0 1 17.47 3.273 A 2.57 2.57 0 0 1 17.662 2.694 A 2.008 2.008 0 0 1 18.101 2.08 A 1.892 1.892 0 0 1 18.393 1.854 A 1.943 1.943 0 0 1 19.15 1.582 A 2.529 2.529 0 0 1 19.521 1.556 A 2.196 2.196 0 0 1 20.169 1.647 A 1.786 1.786 0 0 1 20.85 2.035 A 1.693 1.693 0 0 1 21.408 3.184 A 2.239 2.239 0 0 1 21.415 3.278 L 20.646 3.278 Q 20.61 2.817 20.296 2.52 A 1.078 1.078 0 0 0 19.567 2.224 A 1.402 1.402 0 0 0 19.521 2.224 A 1.374 1.374 0 0 0 19.099 2.285 A 1.081 1.081 0 0 0 18.56 2.67 A 1.469 1.469 0 0 0 18.334 3.117 Q 18.268 3.322 18.24 3.572 A 3.514 3.514 0 0 0 18.22 3.959 L 18.22 4.113 Q 18.22 4.935 18.558 5.379 A 1.1 1.1 0 0 0 19.345 5.813 A 1.611 1.611 0 0 0 19.525 5.823 A 1.171 1.171 0 0 0 20.285 5.559 A 1.007 1.007 0 0 0 20.529 5.278 A 0.914 0.914 0 0 0 20.646 4.9 Z M 26.117 6.398 L 25.264 6.398 A 0.632 0.632 0 0 1 25.229 6.308 Q 25.197 6.21 25.173 6.058 A 3.997 3.997 0 0 1 25.15 5.897 Q 24.583 6.486 23.796 6.486 A 2.033 2.033 0 0 1 23.267 6.421 A 1.529 1.529 0 0 1 22.643 6.089 Q 22.192 5.691 22.192 5.08 Q 22.192 4.337 22.757 3.927 Q 23.322 3.516 24.346 3.516 L 25.137 3.516 L 25.137 3.142 A 1.152 1.152 0 0 0 25.101 2.847 A 0.828 0.828 0 0 0 24.882 2.463 Q 24.666 2.249 24.275 2.216 A 1.748 1.748 0 0 0 24.13 2.21 Q 23.695 2.21 23.401 2.43 Q 23.106 2.65 23.106 2.962 L 22.289 2.962 A 1.041 1.041 0 0 1 22.414 2.473 A 1.409 1.409 0 0 1 22.542 2.274 Q 22.794 1.942 23.227 1.749 A 2.249 2.249 0 0 1 24.003 1.561 A 2.669 2.669 0 0 1 24.179 1.556 A 2.65 2.65 0 0 1 24.696 1.603 Q 25.003 1.664 25.242 1.805 A 1.439 1.439 0 0 1 25.466 1.967 A 1.396 1.396 0 0 1 25.92 2.793 A 1.998 1.998 0 0 1 25.95 3.098 L 25.95 5.287 Q 25.95 5.721 26.023 6.038 A 1.707 1.707 0 0 0 26.117 6.328 L 26.117 6.398 Z M 12.643 4.153 L 12.643 4.003 A 3.17 3.17 0 0 1 12.719 3.294 A 2.581 2.581 0 0 1 12.913 2.74 A 2.191 2.191 0 0 1 13.361 2.114 A 2.033 2.033 0 0 1 13.669 1.87 Q 14.155 1.556 14.722 1.556 A 2.254 2.254 0 0 1 15.335 1.635 A 1.639 1.639 0 0 1 16.163 2.167 Q 16.677 2.777 16.677 3.916 L 16.677 4.254 L 13.456 4.254 A 2.111 2.111 0 0 0 13.527 4.762 A 1.516 1.516 0 0 0 13.867 5.39 A 1.282 1.282 0 0 0 14.801 5.821 A 1.652 1.652 0 0 0 14.867 5.823 A 1.763 1.763 0 0 0 15.195 5.794 Q 15.419 5.751 15.596 5.647 A 1.827 1.827 0 0 0 16.105 5.199 A 2.068 2.068 0 0 0 16.119 5.181 L 16.616 5.568 A 1.926 1.926 0 0 1 15.216 6.459 A 2.749 2.749 0 0 1 14.823 6.486 A 2.394 2.394 0 0 1 14.072 6.373 A 1.974 1.974 0 0 1 13.25 5.851 Q 12.643 5.216 12.643 4.153 Z M 32.155 0.492 L 32.968 0.492 L 32.968 1.644 L 33.855 1.644 L 33.855 2.272 L 32.968 2.272 L 32.968 5.221 Q 32.968 5.506 33.086 5.649 Q 33.205 5.792 33.491 5.792 A 1.046 1.046 0 0 0 33.588 5.787 Q 33.691 5.777 33.831 5.749 A 4.024 4.024 0 0 0 33.877 5.739 L 33.877 6.398 A 2.463 2.463 0 0 1 33.445 6.478 A 2.157 2.157 0 0 1 33.253 6.486 Q 32.806 6.486 32.54 6.264 A 0.856 0.856 0 0 1 32.432 6.157 Q 32.204 5.886 32.164 5.428 A 2.351 2.351 0 0 1 32.155 5.221 L 32.155 2.272 L 31.289 2.272 L 31.289 1.644 L 32.155 1.644 L 32.155 0.492 Z M 4.54 4.034 L 4.54 3.977 A 3.057 3.057 0 0 1 4.626 3.235 A 2.573 2.573 0 0 1 4.814 2.72 A 2.16 2.16 0 0 1 5.229 2.135 A 1.957 1.957 0 0 1 5.579 1.859 A 2.036 2.036 0 0 1 6.523 1.562 A 2.491 2.491 0 0 1 6.697 1.556 A 2.277 2.277 0 0 1 7.451 1.675 A 1.937 1.937 0 0 1 8.268 2.228 A 2.29 2.29 0 0 1 8.787 3.257 A 3.373 3.373 0 0 1 8.868 4.017 L 8.868 4.074 A 3.114 3.114 0 0 1 8.789 4.79 A 2.577 2.577 0 0 1 8.602 5.32 A 2.056 2.056 0 0 1 8.075 6.01 A 2.001 2.001 0 0 1 7.842 6.179 A 2.045 2.045 0 0 1 6.922 6.477 A 2.529 2.529 0 0 1 6.706 6.486 A 2.262 2.262 0 0 1 5.956 6.367 A 1.938 1.938 0 0 1 5.139 5.814 A 2.297 2.297 0 0 1 4.614 4.759 A 3.357 3.357 0 0 1 4.54 4.034 Z M 12.186 1.617 L 12.186 2.373 A 2.251 2.251 0 0 0 11.943 2.347 A 2.782 2.782 0 0 0 11.786 2.342 Q 11.008 2.342 10.717 2.987 A 1.445 1.445 0 0 0 10.701 3.023 L 10.701 6.398 L 9.888 6.398 L 9.888 1.644 L 10.679 1.644 L 10.692 2.193 Q 11.072 1.587 11.755 1.557 A 1.636 1.636 0 0 1 11.826 1.556 Q 12.063 1.556 12.186 1.617 Z M 5.357 4.074 A 2.772 2.772 0 0 0 5.404 4.602 Q 5.465 4.913 5.602 5.158 A 1.545 1.545 0 0 0 5.724 5.344 Q 6.091 5.823 6.706 5.823 A 1.269 1.269 0 0 0 7.195 5.731 Q 7.475 5.616 7.677 5.354 A 1.471 1.471 0 0 0 7.69 5.337 A 1.648 1.648 0 0 0 7.945 4.82 Q 8.014 4.593 8.04 4.321 A 3.655 3.655 0 0 0 8.055 3.977 A 2.687 2.687 0 0 0 8.004 3.437 Q 7.936 3.107 7.779 2.848 A 1.586 1.586 0 0 0 7.684 2.709 A 1.231 1.231 0 0 0 7.269 2.354 Q 7.016 2.224 6.697 2.224 Q 6.107 2.224 5.741 2.683 A 1.515 1.515 0 0 0 5.726 2.703 A 1.589 1.589 0 0 0 5.474 3.2 Q 5.404 3.421 5.376 3.687 A 3.676 3.676 0 0 0 5.357 4.074 Z M 25.137 5.067 L 25.137 4.091 L 24.5 4.091 Q 23.005 4.091 23.005 4.966 Q 23.005 5.348 23.26 5.563 A 0.893 0.893 0 0 0 23.674 5.757 A 1.259 1.259 0 0 0 23.915 5.779 A 1.429 1.429 0 0 0 24.64 5.581 A 1.335 1.335 0 0 0 24.936 5.354 A 1.108 1.108 0 0 0 25.137 5.067 Z M 13.482 3.586 L 15.864 3.586 L 15.864 3.524 Q 15.838 3.066 15.668 2.76 A 1.13 1.13 0 0 0 15.53 2.564 A 0.983 0.983 0 0 0 14.876 2.232 A 1.39 1.39 0 0 0 14.722 2.224 A 1.106 1.106 0 0 0 14.199 2.347 A 1.14 1.14 0 0 0 13.896 2.582 A 1.417 1.417 0 0 0 13.619 3.028 Q 13.545 3.212 13.505 3.434 A 2.741 2.741 0 0 0 13.482 3.586 Z" vector-effect="non-scaling-stroke"/></g>
</svg>