<?xml version="1.0" encoding="UTF-8"?>
<svg width="80px" height="80px" viewBox="0 0 80 80" version="1.1" xmlns="http://www.w3.org/2000/svg" xmlns:xlink="http://www.w3.org/1999/xlink">
    <title>Icon-Architecture/64/Arch_CN-Lyra_64</title>
    
    <g id="Icon-Architecture/64/Arch_CN-Lyra_64" stroke="none" stroke-width="1" fill="none" fill-rule="evenodd">
        
        <g id="Icon-Service/64/CN-Lyra_64" transform="translate(16, 8), scale(.65)" fill="#000000">
            <path d="M11.095,13.664 C11.095,12.248 12.245,11.097 13.66,11.097 C15.075,11.097 16.227,12.248 16.227,13.664 C16.227,15.08 15.075,16.231 13.66,16.231 C12.245,16.231 11.095,15.08 11.095,13.664 L11.095,13.664 Z M18.227,13.664 C18.227,11.145 16.178,9.097 13.66,9.097 C11.143,9.097 9.095,11.145 9.095,13.664 C9.095,16.183 11.143,18.231 13.66,18.231 C16.178,18.231 18.227,16.183 18.227,13.664 L18.227,13.664 Z M51.878,56 C49.053,56 46.755,53.702 46.755,50.875 C46.755,48.049 49.053,45.75 51.878,45.75 C54.702,45.75 57,48.049 57,50.875 C57,53.702 54.702,56 51.878,56 L51.878,56 Z M33.529,29.443 C35.224,29.443 36.604,30.823 36.604,32.519 C36.604,34.216 35.224,35.597 33.529,35.597 C31.833,35.597 30.453,34.216 30.453,32.519 C30.453,30.823 31.833,29.443 33.529,29.443 L33.529,29.443 Z M29.29,29.741 C28.764,30.54 28.453,31.493 28.453,32.519 C28.453,35.319 30.73,37.597 33.529,37.597 C36.327,37.597 38.604,35.319 38.604,32.519 C38.604,29.72 36.327,27.443 33.529,27.443 C32.479,27.443 31.502,27.764 30.692,28.312 L26.08,24.139 C28.065,22.372 30.669,21.289 33.529,21.289 C39.719,21.289 44.755,26.327 44.755,32.519 C44.755,38.712 39.719,43.75 33.529,43.75 C27.338,43.75 22.302,38.712 22.302,32.519 C22.302,29.906 23.206,27.504 24.708,25.594 L29.29,29.741 Z M33.529,57 C20.034,57 9.057,46.018 9.057,32.519 C9.057,29.188 9.718,25.974 11.007,22.948 C11.851,23.19 12.74,23.328 13.66,23.328 C15.981,23.328 18.113,22.503 19.781,21.134 L23.222,24.248 C21.399,26.516 20.302,29.39 20.302,32.519 C20.302,39.815 26.236,45.75 33.529,45.75 C40.822,45.75 46.755,39.815 46.755,32.519 C46.755,25.224 40.822,19.289 33.529,19.289 C30.082,19.289 26.949,20.625 24.593,22.793 L21.186,19.708 C22.518,18.052 23.321,15.951 23.321,13.664 C23.321,12.565 23.127,11.513 22.788,10.528 C26.143,8.882 29.751,8.039 33.529,8.039 C37.575,8.039 41.553,9.053 45.092,10.954 C45.04,11.296 45.005,11.644 45.005,12 C45.005,15.86 48.144,19 52.002,19 C52.61,19 53.197,18.914 53.759,18.768 C56.528,22.832 58,27.571 58,32.519 C58,36.707 56.921,40.802 54.897,44.432 C53.979,43.999 52.958,43.75 51.878,43.75 C47.95,43.75 44.755,46.947 44.755,50.875 C44.755,51.956 45.004,52.977 45.436,53.895 C41.808,55.921 37.715,57 33.529,57 L33.529,57 Z M6,13.664 C6,9.438 9.437,6 13.66,6 C17.884,6 21.321,9.438 21.321,13.664 C21.321,17.89 17.884,21.328 13.66,21.328 C9.437,21.328 6,17.89 6,13.664 L6,13.664 Z M52.002,7.001 C54.758,7.001 57,9.244 57,12 C57,14.757 54.758,17 52.002,17 C49.246,17 47.005,14.757 47.005,12 C47.005,9.244 49.246,7.001 52.002,7.001 L52.002,7.001 Z M56.572,45.531 C58.809,41.573 60,37.097 60,32.519 C60,27.3 58.481,22.298 55.63,17.975 C57.647,16.745 59,14.531 59,12 C59,8.141 55.861,5.001 52.002,5.001 C49.216,5.001 46.813,6.642 45.688,9.005 C41.946,7.068 37.772,6.039 33.529,6.039 C29.516,6.039 25.528,6.97 21.944,8.717 C20.254,5.897 17.178,4 13.66,4 C8.334,4 4,8.335 4,13.664 C4,17.363 6.091,20.58 9.151,22.204 C7.767,25.467 7.057,28.931 7.057,32.519 C7.057,47.121 18.932,59 33.529,59 C38.105,59 42.578,57.808 46.534,55.571 C47.84,57.057 49.749,58 51.878,58 C55.805,58 59,54.804 59,50.875 C59,48.746 58.057,46.837 56.572,45.531 L56.572,45.531 Z" id="Fill-1"></path>
        </g>
    </g><g transform="translate(12vw, 80vh)" id="svgGroup" stroke-linecap="round" fill-rule="evenodd" font-size="9pt" stroke="#000" stroke-width="0.25mm" fill="#000" style="stroke:#000;stroke-width:0.25mm;fill:#000"><path d="M 17.965 6.842 L 16.308 4.641 L 15.798 5.172 L 15.798 6.842 L 14.985 6.842 L 14.985 0.092 L 15.798 0.092 L 15.798 4.175 L 16.233 3.652 L 17.714 2.087 L 18.703 2.087 L 16.853 4.074 L 18.918 6.842 L 17.965 6.842 Z M 48.762 0.444 L 50.581 5.722 L 52.409 0.444 L 53.332 0.444 L 50.959 6.842 L 50.212 6.842 L 47.843 0.444 L 48.762 0.444 Z M 59.783 3.485 L 58.966 3.485 Q 58.966 3.151 58.682 2.909 Q 58.399 2.667 57.968 2.667 Q 57.524 2.667 57.274 2.861 A 0.653 0.653 0 0 0 57.099 3.059 Q 57.026 3.191 57.024 3.356 A 0.771 0.771 0 0 0 57.023 3.366 A 0.588 0.588 0 0 0 57.054 3.559 A 0.48 0.48 0 0 0 57.256 3.81 A 1.093 1.093 0 0 0 57.407 3.889 Q 57.571 3.96 57.826 4.029 A 6.581 6.581 0 0 0 58.098 4.096 A 6.318 6.318 0 0 1 58.506 4.2 Q 58.842 4.3 59.084 4.421 A 1.901 1.901 0 0 1 59.34 4.573 Q 59.477 4.671 59.575 4.785 A 1.06 1.06 0 0 1 59.645 4.876 A 1.024 1.024 0 0 1 59.807 5.283 A 1.388 1.388 0 0 1 59.827 5.524 Q 59.827 6.161 59.317 6.546 Q 58.835 6.91 58.081 6.929 A 3.337 3.337 0 0 1 57.995 6.93 A 2.746 2.746 0 0 1 57.46 6.88 A 2.124 2.124 0 0 1 56.984 6.728 A 1.771 1.771 0 0 1 56.55 6.45 A 1.54 1.54 0 0 1 56.296 6.163 Q 56.048 5.801 56.048 5.379 L 56.861 5.379 A 0.932 0.932 0 0 0 56.934 5.704 A 0.827 0.827 0 0 0 57.188 6.027 A 1.072 1.072 0 0 0 57.59 6.22 Q 57.745 6.259 57.926 6.265 A 2.013 2.013 0 0 0 57.995 6.267 A 1.863 1.863 0 0 0 58.29 6.245 Q 58.452 6.219 58.583 6.162 A 0.941 0.941 0 0 0 58.735 6.08 A 0.689 0.689 0 0 0 58.9 5.929 A 0.554 0.554 0 0 0 59.014 5.581 A 0.698 0.698 0 0 0 58.978 5.35 A 0.581 0.581 0 0 0 58.766 5.069 A 1.05 1.05 0 0 0 58.597 4.971 Q 58.408 4.88 58.113 4.805 A 5.392 5.392 0 0 0 57.9 4.755 A 6.342 6.342 0 0 1 57.539 4.667 Q 57.169 4.565 56.92 4.438 Q 56.621 4.286 56.451 4.086 A 1.017 1.017 0 0 1 56.384 3.999 Q 56.21 3.744 56.21 3.393 A 1.206 1.206 0 0 1 56.61 2.488 A 1.694 1.694 0 0 1 56.705 2.404 A 1.752 1.752 0 0 1 57.488 2.044 A 2.471 2.471 0 0 1 57.968 2 A 2.559 2.559 0 0 1 58.532 2.058 A 1.757 1.757 0 0 1 59.28 2.417 Q 59.783 2.834 59.783 3.485 Z M 68.203 2.087 L 68.972 2.087 L 68.999 2.685 Q 69.535 2.01 70.395 2 A 2.234 2.234 0 0 1 70.422 2 A 1.905 1.905 0 0 1 71.056 2.096 Q 71.898 2.392 71.941 3.598 A 3.668 3.668 0 0 1 71.943 3.7 L 71.943 6.842 L 71.13 6.842 L 71.13 3.696 A 1.837 1.837 0 0 0 71.108 3.416 Q 71.057 3.109 70.895 2.936 Q 70.709 2.737 70.355 2.699 A 1.66 1.66 0 0 0 70.176 2.689 A 1.253 1.253 0 0 0 69.762 2.756 A 1.123 1.123 0 0 0 69.482 2.9 A 1.432 1.432 0 0 0 69.016 3.454 L 69.016 6.842 L 68.203 6.842 L 68.203 2.087 Z M 27.628 6.842 L 27.611 6.372 A 1.526 1.526 0 0 1 26.785 6.867 Q 26.534 6.928 26.237 6.93 A 2.996 2.996 0 0 1 26.218 6.93 A 2.086 2.086 0 0 1 25.758 6.883 Q 25.327 6.785 25.06 6.489 A 1.41 1.41 0 0 1 24.777 5.991 Q 24.66 5.648 24.658 5.181 L 24.658 2.087 L 25.471 2.087 L 25.471 5.159 Q 25.471 6.129 26.178 6.229 A 1.229 1.229 0 0 0 26.35 6.24 A 1.927 1.927 0 0 0 26.801 6.191 Q 27.363 6.056 27.589 5.546 L 27.589 2.087 L 28.402 2.087 L 28.402 6.842 L 27.628 6.842 Z M 0.848 0.444 L 0.848 6.152 L 3.88 6.152 L 3.88 6.842 L 0 6.842 L 0 0.444 L 0.848 0.444 Z M 36.018 6.842 L 35.205 6.842 L 35.205 2.716 L 34.453 2.716 L 34.453 2.087 L 35.205 2.087 L 35.205 1.6 Q 35.205 1.012 35.446 0.629 A 1.273 1.273 0 0 1 35.613 0.417 Q 36.022 0 36.769 0 A 2.134 2.134 0 0 1 37.327 0.075 L 37.283 0.734 Q 37.077 0.694 36.844 0.694 A 1.086 1.086 0 0 0 36.596 0.721 Q 36.375 0.773 36.233 0.925 A 0.747 0.747 0 0 0 36.066 1.221 Q 36.031 1.336 36.021 1.475 A 1.57 1.57 0 0 0 36.018 1.586 L 36.018 2.087 L 37.033 2.087 L 37.033 2.716 L 36.018 2.716 L 36.018 6.842 Z M 29.927 0.936 L 30.74 0.936 L 30.74 2.087 L 31.627 2.087 L 31.627 2.716 L 30.74 2.716 L 30.74 5.665 Q 30.74 5.95 30.858 6.093 Q 30.977 6.236 31.263 6.236 A 1.046 1.046 0 0 0 31.36 6.231 Q 31.463 6.221 31.603 6.193 A 4.024 4.024 0 0 0 31.649 6.183 L 31.649 6.842 A 2.463 2.463 0 0 1 31.217 6.922 A 2.157 2.157 0 0 1 31.025 6.93 Q 30.578 6.93 30.312 6.708 A 0.856 0.856 0 0 1 30.204 6.601 Q 29.976 6.33 29.936 5.872 A 2.351 2.351 0 0 1 29.927 5.665 L 29.927 2.716 L 29.061 2.716 L 29.061 2.087 L 29.927 2.087 L 29.927 0.936 Z M 4.5 4.478 L 4.5 4.421 A 3.057 3.057 0 0 1 4.587 3.679 A 2.573 2.573 0 0 1 4.775 3.164 A 2.16 2.16 0 0 1 5.189 2.579 A 1.957 1.957 0 0 1 5.539 2.303 A 2.036 2.036 0 0 1 6.484 2.006 A 2.491 2.491 0 0 1 6.658 2 A 2.277 2.277 0 0 1 7.411 2.119 A 1.937 1.937 0 0 1 8.229 2.672 A 2.29 2.29 0 0 1 8.748 3.701 A 3.373 3.373 0 0 1 8.829 4.46 L 8.829 4.518 A 3.114 3.114 0 0 1 8.749 5.234 A 2.577 2.577 0 0 1 8.563 5.763 A 2.056 2.056 0 0 1 8.035 6.454 A 2.001 2.001 0 0 1 7.802 6.623 A 2.045 2.045 0 0 1 6.883 6.921 A 2.529 2.529 0 0 1 6.667 6.93 A 2.262 2.262 0 0 1 5.916 6.811 A 1.938 1.938 0 0 1 5.1 6.258 A 2.297 2.297 0 0 1 4.574 5.203 A 3.357 3.357 0 0 1 4.5 4.478 Z M 9.633 4.478 L 9.633 4.421 A 3.057 3.057 0 0 1 9.72 3.679 A 2.573 2.573 0 0 1 9.907 3.164 A 2.16 2.16 0 0 1 10.322 2.579 A 1.957 1.957 0 0 1 10.672 2.303 A 2.036 2.036 0 0 1 11.617 2.006 A 2.491 2.491 0 0 1 11.791 2 A 2.277 2.277 0 0 1 12.544 2.119 A 1.937 1.937 0 0 1 13.362 2.672 A 2.29 2.29 0 0 1 13.881 3.701 A 3.373 3.373 0 0 1 13.961 4.46 L 13.961 4.518 A 3.114 3.114 0 0 1 13.882 5.234 A 2.577 2.577 0 0 1 13.696 5.763 A 2.056 2.056 0 0 1 13.168 6.454 A 2.001 2.001 0 0 1 12.935 6.623 A 2.045 2.045 0 0 1 12.016 6.921 A 2.529 2.529 0 0 1 11.799 6.93 A 2.262 2.262 0 0 1 11.049 6.811 A 1.938 1.938 0 0 1 10.233 6.258 A 2.297 2.297 0 0 1 9.707 5.203 A 3.357 3.357 0 0 1 9.633 4.478 Z M 19.327 4.478 L 19.327 4.421 A 3.057 3.057 0 0 1 19.414 3.679 A 2.573 2.573 0 0 1 19.602 3.164 A 2.16 2.16 0 0 1 20.017 2.579 A 1.957 1.957 0 0 1 20.366 2.303 A 2.036 2.036 0 0 1 21.311 2.006 A 2.491 2.491 0 0 1 21.485 2 A 2.277 2.277 0 0 1 22.238 2.119 A 1.937 1.937 0 0 1 23.056 2.672 A 2.29 2.29 0 0 1 23.575 3.701 A 3.373 3.373 0 0 1 23.656 4.46 L 23.656 4.518 A 3.114 3.114 0 0 1 23.576 5.234 A 2.577 2.577 0 0 1 23.39 5.763 A 2.056 2.056 0 0 1 22.863 6.454 A 2.001 2.001 0 0 1 22.63 6.623 A 2.045 2.045 0 0 1 21.71 6.921 A 2.529 2.529 0 0 1 21.494 6.93 A 2.262 2.262 0 0 1 20.743 6.811 A 1.938 1.938 0 0 1 19.927 6.258 A 2.297 2.297 0 0 1 19.401 5.203 A 3.357 3.357 0 0 1 19.327 4.478 Z M 37.714 4.478 L 37.714 4.421 A 3.057 3.057 0 0 1 37.801 3.679 A 2.573 2.573 0 0 1 37.989 3.164 A 2.16 2.16 0 0 1 38.403 2.579 A 1.957 1.957 0 0 1 38.753 2.303 A 2.036 2.036 0 0 1 39.698 2.006 A 2.491 2.491 0 0 1 39.872 2 A 2.277 2.277 0 0 1 40.625 2.119 A 1.937 1.937 0 0 1 41.443 2.672 A 2.29 2.29 0 0 1 41.962 3.701 A 3.373 3.373 0 0 1 42.042 4.46 L 42.042 4.518 A 3.114 3.114 0 0 1 41.963 5.234 A 2.577 2.577 0 0 1 41.777 5.763 A 2.056 2.056 0 0 1 41.249 6.454 A 2.001 2.001 0 0 1 41.016 6.623 A 2.045 2.045 0 0 1 40.097 6.921 A 2.529 2.529 0 0 1 39.88 6.93 A 2.262 2.262 0 0 1 39.13 6.811 A 1.938 1.938 0 0 1 38.314 6.258 A 2.297 2.297 0 0 1 37.788 5.203 A 3.357 3.357 0 0 1 37.714 4.478 Z M 62.855 4.478 L 62.855 4.421 A 3.057 3.057 0 0 1 62.942 3.679 A 2.573 2.573 0 0 1 63.13 3.164 A 2.16 2.16 0 0 1 63.544 2.579 A 1.957 1.957 0 0 1 63.894 2.303 A 2.036 2.036 0 0 1 64.839 2.006 A 2.491 2.491 0 0 1 65.013 2 A 2.277 2.277 0 0 1 65.766 2.119 A 1.937 1.937 0 0 1 66.584 2.672 A 2.29 2.29 0 0 1 67.103 3.701 A 3.373 3.373 0 0 1 67.184 4.46 L 67.184 4.518 A 3.114 3.114 0 0 1 67.104 5.234 A 2.577 2.577 0 0 1 66.918 5.763 A 2.056 2.056 0 0 1 66.39 6.454 A 2.001 2.001 0 0 1 66.157 6.623 A 2.045 2.045 0 0 1 65.238 6.921 A 2.529 2.529 0 0 1 65.021 6.93 A 2.262 2.262 0 0 1 64.271 6.811 A 1.938 1.938 0 0 1 63.455 6.258 A 2.297 2.297 0 0 1 62.929 5.203 A 3.357 3.357 0 0 1 62.855 4.478 Z M 45.36 2.061 L 45.36 2.817 A 2.251 2.251 0 0 0 45.118 2.79 A 2.782 2.782 0 0 0 44.96 2.786 Q 44.183 2.786 43.891 3.43 A 1.445 1.445 0 0 0 43.875 3.467 L 43.875 6.842 L 43.062 6.842 L 43.062 2.087 L 43.853 2.087 L 43.866 2.637 Q 44.247 2.031 44.929 2.001 A 1.636 1.636 0 0 1 45 2 Q 45.237 2 45.36 2.061 Z M 54.945 2.087 L 54.945 6.842 L 54.132 6.842 L 54.132 2.087 L 54.945 2.087 Z M 61.77 2.087 L 61.77 6.842 L 60.957 6.842 L 60.957 2.087 L 61.77 2.087 Z M 5.317 4.518 A 2.772 2.772 0 0 0 5.365 5.046 Q 5.425 5.357 5.563 5.602 A 1.545 1.545 0 0 0 5.684 5.788 Q 6.051 6.267 6.667 6.267 A 1.269 1.269 0 0 0 7.156 6.175 Q 7.435 6.06 7.638 5.798 A 1.471 1.471 0 0 0 7.651 5.781 A 1.648 1.648 0 0 0 7.906 5.264 Q 7.974 5.037 8 4.764 A 3.655 3.655 0 0 0 8.016 4.421 A 2.687 2.687 0 0 0 7.964 3.881 Q 7.897 3.551 7.739 3.292 A 1.586 1.586 0 0 0 7.644 3.153 A 1.231 1.231 0 0 0 7.229 2.798 Q 6.976 2.667 6.658 2.667 Q 6.068 2.667 5.702 3.127 A 1.515 1.515 0 0 0 5.687 3.146 A 1.589 1.589 0 0 0 5.434 3.644 Q 5.365 3.864 5.337 4.131 A 3.676 3.676 0 0 0 5.317 4.518 Z M 10.45 4.518 A 2.772 2.772 0 0 0 10.498 5.046 Q 10.558 5.357 10.695 5.602 A 1.545 1.545 0 0 0 10.817 5.788 Q 11.184 6.267 11.799 6.267 A 1.269 1.269 0 0 0 12.289 6.175 Q 12.568 6.06 12.771 5.798 A 1.471 1.471 0 0 0 12.784 5.781 A 1.648 1.648 0 0 0 13.039 5.264 Q 13.107 5.037 13.133 4.764 A 3.655 3.655 0 0 0 13.148 4.421 A 2.687 2.687 0 0 0 13.097 3.881 Q 13.03 3.551 12.872 3.292 A 1.586 1.586 0 0 0 12.777 3.153 A 1.231 1.231 0 0 0 12.362 2.798 Q 12.109 2.667 11.791 2.667 Q 11.201 2.667 10.834 3.127 A 1.515 1.515 0 0 0 10.819 3.146 A 1.589 1.589 0 0 0 10.567 3.644 Q 10.498 3.864 10.47 4.131 A 3.676 3.676 0 0 0 10.45 4.518 Z M 20.145 4.518 A 2.772 2.772 0 0 0 20.192 5.046 Q 20.252 5.357 20.39 5.602 A 1.545 1.545 0 0 0 20.511 5.788 Q 20.878 6.267 21.494 6.267 A 1.269 1.269 0 0 0 21.983 6.175 Q 22.262 6.06 22.465 5.798 A 1.471 1.471 0 0 0 22.478 5.781 A 1.648 1.648 0 0 0 22.733 5.264 Q 22.802 5.037 22.827 4.764 A 3.655 3.655 0 0 0 22.843 4.421 A 2.687 2.687 0 0 0 22.792 3.881 Q 22.724 3.551 22.567 3.292 A 1.586 1.586 0 0 0 22.471 3.153 A 1.231 1.231 0 0 0 22.056 2.798 Q 21.803 2.667 21.485 2.667 Q 20.895 2.667 20.529 3.127 A 1.515 1.515 0 0 0 20.514 3.146 A 1.589 1.589 0 0 0 20.262 3.644 Q 20.192 3.864 20.164 4.131 A 3.676 3.676 0 0 0 20.145 4.518 Z M 38.531 4.518 A 2.772 2.772 0 0 0 38.579 5.046 Q 38.639 5.357 38.776 5.602 A 1.545 1.545 0 0 0 38.898 5.788 Q 39.265 6.267 39.88 6.267 A 1.269 1.269 0 0 0 40.37 6.175 Q 40.649 6.06 40.852 5.798 A 1.471 1.471 0 0 0 40.865 5.781 A 1.648 1.648 0 0 0 41.12 5.264 Q 41.188 5.037 41.214 4.764 A 3.655 3.655 0 0 0 41.229 4.421 A 2.687 2.687 0 0 0 41.178 3.881 Q 41.111 3.551 40.953 3.292 A 1.586 1.586 0 0 0 40.858 3.153 A 1.231 1.231 0 0 0 40.443 2.798 Q 40.19 2.667 39.872 2.667 Q 39.282 2.667 38.915 3.127 A 1.515 1.515 0 0 0 38.9 3.146 A 1.589 1.589 0 0 0 38.648 3.644 Q 38.579 3.864 38.551 4.131 A 3.676 3.676 0 0 0 38.531 4.518 Z M 63.672 4.518 A 2.772 2.772 0 0 0 63.72 5.046 Q 63.78 5.357 63.917 5.602 A 1.545 1.545 0 0 0 64.039 5.788 Q 64.406 6.267 65.021 6.267 A 1.269 1.269 0 0 0 65.511 6.175 Q 65.79 6.06 65.993 5.798 A 1.471 1.471 0 0 0 66.006 5.781 A 1.648 1.648 0 0 0 66.261 5.264 Q 66.329 5.037 66.355 4.764 A 3.655 3.655 0 0 0 66.371 4.421 A 2.687 2.687 0 0 0 66.319 3.881 Q 66.252 3.551 66.094 3.292 A 1.586 1.586 0 0 0 65.999 3.153 A 1.231 1.231 0 0 0 65.584 2.798 Q 65.331 2.667 65.013 2.667 Q 64.423 2.667 64.057 3.127 A 1.515 1.515 0 0 0 64.042 3.146 A 1.589 1.589 0 0 0 63.789 3.644 Q 63.72 3.864 63.692 4.131 A 3.676 3.676 0 0 0 63.672 4.518 Z M 54.066 0.826 Q 54.066 0.628 54.187 0.492 Q 54.299 0.366 54.51 0.357 A 0.783 0.783 0 0 1 54.545 0.356 Q 54.782 0.356 54.905 0.492 A 0.474 0.474 0 0 1 55.028 0.796 A 0.614 0.614 0 0 1 55.028 0.826 A 0.523 0.523 0 0 1 55.003 0.992 A 0.442 0.442 0 0 1 54.905 1.156 Q 54.793 1.276 54.585 1.287 A 0.803 0.803 0 0 1 54.545 1.288 Q 54.373 1.288 54.262 1.218 A 0.362 0.362 0 0 1 54.187 1.156 A 0.456 0.456 0 0 1 54.068 0.88 A 0.605 0.605 0 0 1 54.066 0.826 Z M 60.891 0.826 Q 60.891 0.628 61.011 0.492 Q 61.123 0.366 61.335 0.357 A 0.783 0.783 0 0 1 61.37 0.356 Q 61.607 0.356 61.73 0.492 A 0.474 0.474 0 0 1 61.852 0.796 A 0.614 0.614 0 0 1 61.853 0.826 A 0.523 0.523 0 0 1 61.828 0.992 A 0.442 0.442 0 0 1 61.73 1.156 Q 61.617 1.276 61.409 1.287 A 0.803 0.803 0 0 1 61.37 1.288 Q 61.197 1.288 61.086 1.218 A 0.362 0.362 0 0 1 61.011 1.156 A 0.456 0.456 0 0 1 60.893 0.88 A 0.605 0.605 0 0 1 60.891 0.826 Z" vector-effect="non-scaling-stroke"/></g>
</svg>