<?xml version="1.0" encoding="UTF-8"?>
<svg width="80px" height="80px" viewBox="0 0 80 80" version="1.1" xmlns="http://www.w3.org/2000/svg" xmlns:xlink="http://www.w3.org/1999/xlink">
    <title>Icon-Architecture/64/Arch_AWS-Omni_64</title>
    
    <g id="Icon-Architecture/64/Arch_AWS-Omni_64" stroke="none" stroke-width="1" fill="none" fill-rule="evenodd">
        
        <g id="Icon-Service/64/AWS-Omni_64" transform="translate(16, 8), scale(.65)" fill="#000000">
            <path d="M52,24.0916944 C52,22.4419073 50.654,21.0993356 49,21.0993356 C47.346,21.0993356 46,22.4419073 46,24.0916944 C46,25.7414816 47.346,27.0840532 49,27.0840532 C50.654,27.0840532 52,25.7414816 52,24.0916944 L52,24.0916944 Z M54,24.0916944 C54,26.8416722 51.757,29.0789591 49,29.0789591 C46.586,29.0789591 44.565,27.3623426 44.102,25.0891474 L39,25.0891474 L39,53.0178295 L37,53.0178295 L37,24.0916944 C37,23.5411004 37.447,23.0942415 38,23.0942415 L44.102,23.0942415 C44.565,20.8210463 46.586,19.1044298 49,19.1044298 C51.757,19.1044298 54,21.3417167 54,24.0916944 L54,24.0916944 Z M35,8.98726466 C35,7.33747751 33.654,5.99490587 32,5.99490587 C30.346,5.99490587 29,7.33747751 29,8.98726466 C29,10.6370518 30.346,11.9796235 32,11.9796235 C33.654,11.9796235 35,10.6370518 35,8.98726466 L35,8.98726466 Z M33,13.8737866 L33,47.0331119 L31,47.0331119 L31,13.8737866 C28.721,13.409971 27,11.395116 27,8.98726466 C27,6.23728693 29.243,4 32,4 C34.757,4 37,6.23728693 37,8.98726466 C37,11.395116 35.279,13.409971 33,13.8737866 L33,13.8737866 Z M17,17.1095239 C18.654,17.1095239 20,15.7669522 20,14.1171651 C20,12.4673779 18.654,11.1248063 17,11.1248063 C15.346,11.1248063 14,12.4673779 14,14.1171651 C14,15.7669522 15.346,17.1095239 17,17.1095239 L17,17.1095239 Z M27,29.5068664 L27,53.0178295 L25,53.0178295 L25,30.2589459 L16.726,27.8999697 C16.296,27.7782805 16,27.3862815 16,26.9414175 L16,19.003687 C13.721,18.5398714 12,16.5260139 12,14.1171651 C12,11.3671874 14.243,9.12990043 17,9.12990043 C19.757,9.12990043 22,11.3671874 22,14.1171651 C22,16.5260139 20.279,18.5398714 18,19.003687 L18,26.1893379 L26.274,28.5473167 C26.704,28.6700034 27,29.0610049 27,29.5068664 L27,29.5068664 Z M45,54.0152824 L49,54.0152824 L49,52.0203765 L45,52.0203765 L45,54.0152824 Z M51,54.0152824 L55,54.0152824 L55,52.0203765 L51,52.0203765 L51,54.0152824 Z M54.18,60 L9.821,60 C6.606,60 4,57.4006377 4,54.1938265 L4,51.8418325 C4,48.6350213 6.606,46.0356589 9.821,46.0356589 L22,46.0356589 L22,48.0305648 L9.501,48.0305648 C7.567,48.0305648 6,49.5935736 6,51.5226475 L6,54.5140089 C6,56.4420854 7.567,58.0050941 9.5,58.0050941 L54.499,58.0050941 C56.433,58.0050941 58,56.4420854 58,54.5130114 L58,51.5216501 C58,49.5935736 56.433,48.0305648 54.5,48.0305648 L42,48.0305648 L42,46.0356589 L54.179,46.0356589 C57.394,46.0356589 60,48.6350213 60,51.8418325 L60,54.1938265 C60,57.4006377 57.394,60 54.18,60 L54.18,60 Z" id="Fill-3"></path>
        </g>
    </g><g transform="translate(33vw, 80vh)" id="svgGroup" stroke-linecap="round" fill-rule="evenodd" font-size="9pt" stroke="#000" stroke-width="0.25mm" fill="#000" style="stroke:#000;stroke-width:0.25mm;fill:#000"><path d="M 28.257 1.644 L 29.026 1.644 L 29.048 2.171 Q 29.571 1.556 30.458 1.556 A 2.009 2.009 0 0 1 30.969 1.616 A 1.244 1.244 0 0 1 31.816 2.32 A 1.801 1.801 0 0 1 32.434 1.767 A 1.65 1.65 0 0 1 32.963 1.585 A 2.209 2.209 0 0 1 33.333 1.556 A 2.119 2.119 0 0 1 33.977 1.645 Q 34.903 1.941 34.923 3.212 L 34.923 6.399 L 34.11 6.399 L 34.11 3.261 A 1.781 1.781 0 0 0 34.09 2.981 Q 34.066 2.833 34.016 2.715 A 0.758 0.758 0 0 0 33.877 2.498 A 0.68 0.68 0 0 0 33.625 2.33 Q 33.413 2.246 33.096 2.246 A 1.245 1.245 0 0 0 32.73 2.297 A 1.008 1.008 0 0 0 32.344 2.516 A 1.042 1.042 0 0 0 32.03 3.052 A 1.41 1.41 0 0 0 31.997 3.243 L 31.997 6.399 L 31.179 6.399 L 31.179 3.283 A 1.532 1.532 0 0 0 31.131 2.879 Q 31.004 2.416 30.547 2.292 A 1.457 1.457 0 0 0 30.164 2.246 Q 29.39 2.246 29.09 2.883 A 1.459 1.459 0 0 0 29.07 2.927 L 29.07 6.399 L 28.257 6.399 L 28.257 1.644 Z M 10.397 1.644 L 11.167 1.644 L 11.193 2.241 Q 11.729 1.567 12.589 1.556 A 2.234 2.234 0 0 1 12.617 1.556 A 1.905 1.905 0 0 1 13.25 1.652 Q 14.092 1.949 14.135 3.154 A 3.668 3.668 0 0 1 14.137 3.256 L 14.137 6.399 L 13.324 6.399 L 13.324 3.252 A 1.837 1.837 0 0 0 13.302 2.972 Q 13.252 2.665 13.089 2.492 Q 12.903 2.293 12.55 2.255 A 1.66 1.66 0 0 0 12.371 2.246 A 1.253 1.253 0 0 0 11.956 2.312 A 1.123 1.123 0 0 0 11.676 2.457 A 1.432 1.432 0 0 0 11.21 3.01 L 11.21 6.399 L 10.397 6.399 L 10.397 1.644 Z M 9.29 6.399 L 8.438 6.399 A 0.632 0.632 0 0 1 8.402 6.308 Q 8.371 6.21 8.346 6.058 A 3.997 3.997 0 0 1 8.323 5.898 Q 7.756 6.486 6.97 6.486 A 2.033 2.033 0 0 1 6.44 6.421 A 1.529 1.529 0 0 1 5.816 6.089 Q 5.366 5.691 5.366 5.08 Q 5.366 4.337 5.93 3.927 Q 6.495 3.516 7.519 3.516 L 8.31 3.516 L 8.31 3.142 A 1.152 1.152 0 0 0 8.274 2.847 A 0.828 0.828 0 0 0 8.055 2.463 Q 7.839 2.249 7.449 2.216 A 1.748 1.748 0 0 0 7.304 2.211 Q 6.869 2.211 6.574 2.43 Q 6.28 2.65 6.28 2.962 L 5.462 2.962 A 1.041 1.041 0 0 1 5.587 2.473 A 1.409 1.409 0 0 1 5.715 2.274 Q 5.968 1.942 6.401 1.749 A 2.249 2.249 0 0 1 7.176 1.561 A 2.669 2.669 0 0 1 7.352 1.556 A 2.65 2.65 0 0 1 7.869 1.603 Q 8.177 1.664 8.416 1.805 A 1.439 1.439 0 0 1 8.64 1.967 A 1.396 1.396 0 0 1 9.093 2.793 A 1.998 1.998 0 0 1 9.123 3.098 L 9.123 5.287 Q 9.123 5.722 9.197 6.038 A 1.707 1.707 0 0 0 9.29 6.328 L 9.29 6.399 Z M 27.154 6.399 L 26.301 6.399 A 0.632 0.632 0 0 1 26.266 6.308 Q 26.235 6.21 26.21 6.058 A 3.997 3.997 0 0 1 26.187 5.898 Q 25.62 6.486 24.833 6.486 A 2.033 2.033 0 0 1 24.304 6.421 A 1.529 1.529 0 0 1 23.68 6.089 Q 23.229 5.691 23.229 5.08 Q 23.229 4.337 23.794 3.927 Q 24.359 3.516 25.383 3.516 L 26.174 3.516 L 26.174 3.142 A 1.152 1.152 0 0 0 26.138 2.847 A 0.828 0.828 0 0 0 25.919 2.463 Q 25.703 2.249 25.312 2.216 A 1.748 1.748 0 0 0 25.167 2.211 Q 24.732 2.211 24.438 2.43 Q 24.144 2.65 24.144 2.962 L 23.326 2.962 A 1.041 1.041 0 0 1 23.451 2.473 A 1.409 1.409 0 0 1 23.579 2.274 Q 23.832 1.942 24.264 1.749 A 2.249 2.249 0 0 1 25.04 1.561 A 2.669 2.669 0 0 1 25.216 1.556 A 2.65 2.65 0 0 1 25.733 1.603 Q 26.04 1.664 26.279 1.805 A 1.439 1.439 0 0 1 26.503 1.967 A 1.396 1.396 0 0 1 26.957 2.793 A 1.998 1.998 0 0 1 26.987 3.098 L 26.987 5.287 Q 26.987 5.722 27.06 6.038 A 1.707 1.707 0 0 0 27.154 6.328 L 27.154 6.399 Z M 39.938 6.399 L 39.085 6.399 A 0.632 0.632 0 0 1 39.049 6.308 Q 39.018 6.21 38.993 6.058 A 3.997 3.997 0 0 1 38.971 5.898 Q 38.404 6.486 37.617 6.486 A 2.033 2.033 0 0 1 37.088 6.421 A 1.529 1.529 0 0 1 36.464 6.089 Q 36.013 5.691 36.013 5.08 Q 36.013 4.337 36.578 3.927 Q 37.143 3.516 38.167 3.516 L 38.958 3.516 L 38.958 3.142 A 1.152 1.152 0 0 0 38.922 2.847 A 0.828 0.828 0 0 0 38.703 2.463 Q 38.486 2.249 38.096 2.216 A 1.748 1.748 0 0 0 37.951 2.211 Q 37.516 2.211 37.222 2.43 Q 36.927 2.65 36.927 2.962 L 36.11 2.962 A 1.041 1.041 0 0 1 36.235 2.473 A 1.409 1.409 0 0 1 36.363 2.274 Q 36.615 1.942 37.048 1.749 A 2.249 2.249 0 0 1 37.824 1.561 A 2.669 2.669 0 0 1 38 1.556 A 2.65 2.65 0 0 1 38.517 1.603 Q 38.824 1.664 39.063 1.805 A 1.439 1.439 0 0 1 39.287 1.967 A 1.396 1.396 0 0 1 39.74 2.793 A 1.998 1.998 0 0 1 39.771 3.098 L 39.771 5.287 Q 39.771 5.722 39.844 6.038 A 1.707 1.707 0 0 0 39.938 6.328 L 39.938 6.399 Z M 2.351 3.894 L 0.844 3.894 L 0.844 6.399 L 0 6.399 L 0 0 L 2.36 0 A 3.315 3.315 0 0 1 3.025 0.063 Q 3.427 0.145 3.738 0.336 A 1.839 1.839 0 0 1 4.006 0.536 A 1.772 1.772 0 0 1 4.593 1.753 A 2.45 2.45 0 0 1 4.601 1.956 Q 4.601 2.887 4.019 3.39 Q 3.54 3.804 2.721 3.878 A 4.14 4.14 0 0 1 2.351 3.894 Z M 15.148 4.034 L 15.148 3.977 A 3.057 3.057 0 0 1 15.235 3.236 A 2.573 2.573 0 0 1 15.423 2.72 A 2.16 2.16 0 0 1 15.837 2.135 A 1.957 1.957 0 0 1 16.187 1.859 A 2.036 2.036 0 0 1 17.132 1.562 A 2.491 2.491 0 0 1 17.306 1.556 A 2.277 2.277 0 0 1 18.059 1.675 A 1.937 1.937 0 0 1 18.877 2.228 A 2.29 2.29 0 0 1 19.396 3.257 A 3.373 3.373 0 0 1 19.477 4.017 L 19.477 4.074 A 3.114 3.114 0 0 1 19.397 4.791 A 2.577 2.577 0 0 1 19.211 5.32 A 2.056 2.056 0 0 1 18.683 6.01 A 2.001 2.001 0 0 1 18.45 6.179 A 2.045 2.045 0 0 1 17.531 6.477 A 2.529 2.529 0 0 1 17.314 6.486 A 2.262 2.262 0 0 1 16.564 6.367 A 1.938 1.938 0 0 1 15.748 5.814 A 2.297 2.297 0 0 1 15.222 4.759 A 3.357 3.357 0 0 1 15.148 4.034 Z M 22.794 1.617 L 22.794 2.373 A 2.251 2.251 0 0 0 22.552 2.347 A 2.782 2.782 0 0 0 22.395 2.342 Q 21.617 2.342 21.325 2.987 A 1.445 1.445 0 0 0 21.309 3.024 L 21.309 6.399 L 20.496 6.399 L 20.496 1.644 L 21.287 1.644 L 21.3 2.193 Q 21.681 1.587 22.363 1.557 A 1.636 1.636 0 0 1 22.434 1.556 Q 22.671 1.556 22.794 1.617 Z M 15.965 4.074 A 2.772 2.772 0 0 0 16.013 4.602 Q 16.073 4.913 16.21 5.158 A 1.545 1.545 0 0 0 16.332 5.344 Q 16.699 5.823 17.314 5.823 A 1.269 1.269 0 0 0 17.804 5.732 Q 18.083 5.616 18.286 5.354 A 1.471 1.471 0 0 0 18.299 5.337 A 1.648 1.648 0 0 0 18.554 4.82 Q 18.622 4.593 18.648 4.321 A 3.655 3.655 0 0 0 18.664 3.977 A 2.687 2.687 0 0 0 18.612 3.437 Q 18.545 3.107 18.387 2.849 A 1.586 1.586 0 0 0 18.292 2.709 A 1.231 1.231 0 0 0 17.877 2.354 Q 17.624 2.224 17.306 2.224 Q 16.716 2.224 16.349 2.684 A 1.515 1.515 0 0 0 16.334 2.703 A 1.589 1.589 0 0 0 16.082 3.2 Q 16.013 3.421 15.985 3.687 A 3.676 3.676 0 0 0 15.965 4.074 Z M 0.844 0.694 L 0.844 3.204 L 2.36 3.204 A 2.313 2.313 0 0 0 2.752 3.173 Q 2.969 3.135 3.142 3.053 A 1.097 1.097 0 0 0 3.397 2.885 A 1.028 1.028 0 0 0 3.715 2.345 Q 3.756 2.177 3.757 1.977 A 1.996 1.996 0 0 0 3.757 1.964 A 1.466 1.466 0 0 0 3.703 1.557 A 1.112 1.112 0 0 0 3.397 1.05 Q 3.037 0.708 2.408 0.694 L 0.844 0.694 Z M 8.31 5.067 L 8.31 4.091 L 7.673 4.091 Q 6.179 4.091 6.179 4.966 Q 6.179 5.348 6.434 5.564 A 0.893 0.893 0 0 0 6.847 5.757 A 1.259 1.259 0 0 0 7.088 5.779 A 1.429 1.429 0 0 0 7.813 5.581 A 1.335 1.335 0 0 0 8.109 5.354 A 1.108 1.108 0 0 0 8.31 5.067 Z M 26.174 5.067 L 26.174 4.091 L 25.537 4.091 Q 24.042 4.091 24.042 4.966 Q 24.042 5.348 24.297 5.564 A 0.893 0.893 0 0 0 24.711 5.757 A 1.259 1.259 0 0 0 24.952 5.779 A 1.429 1.429 0 0 0 25.677 5.581 A 1.335 1.335 0 0 0 25.973 5.354 A 1.108 1.108 0 0 0 26.174 5.067 Z M 38.958 5.067 L 38.958 4.091 L 38.32 4.091 Q 36.826 4.091 36.826 4.966 Q 36.826 5.348 37.081 5.564 A 0.893 0.893 0 0 0 37.495 5.757 A 1.259 1.259 0 0 0 37.736 5.779 A 1.429 1.429 0 0 0 38.461 5.581 A 1.335 1.335 0 0 0 38.756 5.354 A 1.108 1.108 0 0 0 38.958 5.067 Z" vector-effect="non-scaling-stroke"/></g>
</svg>