<?xml version="1.0" encoding="UTF-8"?>
<svg width="80px" height="80px" viewBox="0 0 80 80" version="1.1" xmlns="http://www.w3.org/2000/svg" xmlns:xlink="http://www.w3.org/1999/xlink">
    <title>Icon-Architecture/64/Arch_Amazon-SageMaker-Studio-Lab_64</title>
    
    <g id="Icon-Architecture/64/Arch_Amazon-SageMaker-Studio-Lab_64" stroke="none" stroke-width="1" fill="none" fill-rule="evenodd">
        
        <g id="Icon-Service/64/Amazon-SageMaker-Studio-Lab_64" transform="translate(16, 8), scale(.65)" fill="#000000">
            <path d="M38.909,47.0456233 L58,47.0456233 L58,17.0456233 L38.909,17.0456233 L38.909,47.0456233 Z M33,47.0456233 L37,47.0456233 L37,17.0456233 L33,17.0456233 L33,22.0456233 L35,22.0456233 L35,24.0456233 L33,24.0456233 L33,31.0456233 L35,31.0456233 L35,33.0456233 L33,33.0456233 L33,40.0456233 L35,40.0456233 L35,42.0456233 L33,42.0456233 L33,47.0456233 Z M60,16.0456233 L60,48.0456233 C60,48.5976233 59.553,49.0456233 59,49.0456233 L32,49.0456233 C31.447,49.0456233 31,48.5976233 31,48.0456233 L31,42.0456233 L29,42.0456233 L29,40.0456233 L31,40.0456233 L31,33.0456233 L29,33.0456233 L29,31.0456233 L31,31.0456233 L31,24.0456233 L29,24.0456233 L29,22.0456233 L31,22.0456233 L31,16.0456233 C31,15.4936233 31.447,15.0456233 32,15.0456233 L59,15.0456233 C59.553,15.0456233 60,15.4936233 60,16.0456233 L60,16.0456233 Z M31,51.1366233 L33,51.1366233 L33,54.1616233 C33,54.5236233 32.804,54.8576233 32.487,55.0346233 L25.359,59.0176233 C25.208,59.1026233 25.04,59.1446233 24.872,59.1446233 C24.7,59.1446233 24.528,59.1006233 24.374,59.0116233 L10.502,51.0456233 C10.191,50.8676233 10,50.5366233 10,50.1786233 L10,41.6956233 L4.54,38.8636233 C4.208,38.6916233 4,38.3496233 4,37.9766233 L4,25.0456233 C4,24.6926233 4.186,24.3656233 4.49,24.1856233 L10,20.9196233 L10,11.9366233 C10,11.5706233 10.201,11.2326233 10.523,11.0586233 L23.495,4.02062332 C23.784,3.86562332 24.132,3.85862332 24.423,4.00762332 L32.45,8.07162332 C32.787,8.24162332 32.999,8.58662332 32.999,8.96262332 L33,12.9546233 L31,12.9546233 L31,9.57862332 L23.987,6.02862332 L22,7.10762332 L22,16.0456233 L20,16.0456233 L20,8.19262332 L12,12.5326233 L12,19.4886233 L18.987,23.8176233 L24,20.4586233 L24,15.0456233 L26,15.0456233 L26,20.9926233 C26,21.3256233 25.834,21.6376233 25.557,21.8226233 L20,25.5466233 L20,30.0456233 L25,30.0456233 L25,32.0456233 L19.303,32.0456233 L13.555,35.8776233 L12.445,34.2136233 L18,30.5106233 L18,25.5586233 L11.947,21.8086233 C11.872,22.0326233 11.719,22.2256233 11.51,22.3496233 L6,25.6156233 L6,30.3586233 L12.354,26.1226233 L13.464,27.7866233 L6,32.7626233 L6,37.3686233 L11.207,40.0686233 L16.407,36.2406233 L17.593,37.8506233 L12,41.9686233 L12,49.5996233 L18.584,53.3806233 L18.47,53.1976233 L21,51.6156233 L21,41.0456233 L23,41.0456233 L23,50.3656233 L26.47,48.1976233 L27.53,49.8936233 L20.339,54.3886233 L24.879,56.9956233 L31,53.5746233 L31,51.1366233 Z" id="Fill-4"></path>
        </g>
    </g><g transform="translate(12vw, 80vh)" id="svgGroup" stroke-linecap="round" fill-rule="evenodd" font-size="9pt" stroke="#000" stroke-width="0.25mm" fill="#000" style="stroke:#000;stroke-width:0.25mm;fill:#000"><path d="M 20.444 0.352 L 21.533 0.352 L 23.625 5.572 L 25.717 0.352 L 26.811 0.352 L 26.811 6.75 L 25.967 6.75 L 25.967 4.258 L 26.047 1.569 L 23.946 6.75 L 23.3 6.75 L 21.204 1.582 L 21.287 4.258 L 21.287 6.75 L 20.444 6.75 L 20.444 0.352 Z M 4.636 2.202 L 3.788 2.202 A 1.466 1.466 0 0 0 3.738 1.809 A 1.066 1.066 0 0 0 3.419 1.29 A 1.211 1.211 0 0 0 2.95 1.033 Q 2.698 0.958 2.378 0.958 A 2.286 2.286 0 0 0 1.998 0.988 Q 1.796 1.022 1.633 1.095 A 1.101 1.101 0 0 0 1.404 1.233 A 0.892 0.892 0 0 0 1.059 1.887 A 1.267 1.267 0 0 0 1.055 1.995 A 0.806 0.806 0 0 0 1.323 2.6 A 1.134 1.134 0 0 0 1.387 2.656 A 1.562 1.562 0 0 0 1.625 2.813 Q 1.955 2.993 2.516 3.151 A 8.228 8.228 0 0 1 2.981 3.295 Q 3.216 3.377 3.41 3.464 A 3.297 3.297 0 0 1 3.764 3.645 A 2.342 2.342 0 0 1 4.103 3.889 Q 4.293 4.056 4.415 4.248 A 1.45 1.45 0 0 1 4.432 4.276 A 1.498 1.498 0 0 1 4.628 4.832 A 1.948 1.948 0 0 1 4.65 5.124 A 1.606 1.606 0 0 1 4.527 5.76 Q 4.382 6.101 4.064 6.354 A 1.886 1.886 0 0 1 4.043 6.37 Q 3.437 6.838 2.422 6.838 A 3.023 3.023 0 0 1 1.281 6.623 A 2.917 2.917 0 0 1 1.191 6.585 A 2.383 2.383 0 0 1 0.713 6.307 A 1.874 1.874 0 0 1 0.31 5.893 A 1.689 1.689 0 0 1 0 4.896 L 0.848 4.896 A 1.261 1.261 0 0 0 0.918 5.323 A 1.074 1.074 0 0 0 1.277 5.812 Q 1.661 6.113 2.278 6.144 A 2.87 2.87 0 0 0 2.422 6.148 A 2.628 2.628 0 0 0 2.809 6.121 Q 3.005 6.092 3.164 6.031 A 1.129 1.129 0 0 0 3.445 5.875 Q 3.801 5.603 3.801 5.133 A 1.074 1.074 0 0 0 3.759 4.822 A 0.816 0.816 0 0 0 3.472 4.406 Q 3.142 4.148 2.277 3.898 Q 1.191 3.586 0.697 3.131 Q 0.202 2.676 0.202 2.008 Q 0.202 1.252 0.807 0.758 A 2.121 2.121 0 0 1 1.697 0.335 A 3.087 3.087 0 0 1 2.378 0.264 A 2.913 2.913 0 0 1 3.038 0.336 A 2.372 2.372 0 0 1 3.553 0.519 A 2.051 2.051 0 0 1 4.084 0.889 A 1.834 1.834 0 0 1 4.353 1.222 A 1.798 1.798 0 0 1 4.636 2.202 Z M 51.957 2.202 L 51.109 2.202 A 1.466 1.466 0 0 0 51.059 1.809 A 1.066 1.066 0 0 0 50.739 1.29 A 1.211 1.211 0 0 0 50.27 1.033 Q 50.018 0.958 49.698 0.958 A 2.286 2.286 0 0 0 49.318 0.988 Q 49.116 1.022 48.954 1.095 A 1.101 1.101 0 0 0 48.725 1.233 A 0.892 0.892 0 0 0 48.38 1.887 A 1.267 1.267 0 0 0 48.375 1.995 A 0.806 0.806 0 0 0 48.643 2.6 A 1.134 1.134 0 0 0 48.707 2.656 A 1.562 1.562 0 0 0 48.945 2.813 Q 49.276 2.993 49.836 3.151 A 8.228 8.228 0 0 1 50.301 3.295 Q 50.536 3.377 50.731 3.464 A 3.297 3.297 0 0 1 51.084 3.645 A 2.342 2.342 0 0 1 51.423 3.889 Q 51.613 4.056 51.735 4.248 A 1.45 1.45 0 0 1 51.752 4.276 A 1.498 1.498 0 0 1 51.949 4.832 A 1.948 1.948 0 0 1 51.97 5.124 A 1.606 1.606 0 0 1 51.847 5.76 Q 51.702 6.101 51.384 6.354 A 1.886 1.886 0 0 1 51.363 6.37 Q 50.757 6.838 49.742 6.838 A 3.023 3.023 0 0 1 48.601 6.623 A 2.917 2.917 0 0 1 48.511 6.585 A 2.383 2.383 0 0 1 48.033 6.307 A 1.874 1.874 0 0 1 47.63 5.893 A 1.689 1.689 0 0 1 47.32 4.896 L 48.169 4.896 A 1.261 1.261 0 0 0 48.238 5.323 A 1.074 1.074 0 0 0 48.597 5.812 Q 48.982 6.113 49.598 6.144 A 2.87 2.87 0 0 0 49.742 6.148 A 2.628 2.628 0 0 0 50.129 6.121 Q 50.325 6.092 50.484 6.031 A 1.129 1.129 0 0 0 50.766 5.875 Q 51.122 5.603 51.122 5.133 A 1.074 1.074 0 0 0 51.079 4.822 A 0.816 0.816 0 0 0 50.792 4.406 Q 50.463 4.148 49.597 3.898 Q 48.511 3.586 48.017 3.131 Q 47.523 2.676 47.523 2.008 Q 47.523 1.252 48.127 0.758 A 2.121 2.121 0 0 1 49.017 0.335 A 3.087 3.087 0 0 1 49.698 0.264 A 2.913 2.913 0 0 1 50.358 0.336 A 2.372 2.372 0 0 1 50.873 0.519 A 2.051 2.051 0 0 1 51.405 0.889 A 1.834 1.834 0 0 1 51.673 1.222 A 1.798 1.798 0 0 1 51.957 2.202 Z M 36.053 6.75 L 34.396 4.548 L 33.886 5.08 L 33.886 6.75 L 33.073 6.75 L 33.073 0 L 33.886 0 L 33.886 4.083 L 34.321 3.56 L 35.802 1.995 L 36.791 1.995 L 34.941 3.981 L 37.006 6.75 L 36.053 6.75 Z M 13.54 2.522 L 13.579 1.995 L 14.322 1.995 L 14.322 6.636 A 2.511 2.511 0 0 1 14.251 7.249 A 1.738 1.738 0 0 1 13.775 8.09 A 1.834 1.834 0 0 1 12.845 8.57 A 2.671 2.671 0 0 1 12.305 8.622 A 2.446 2.446 0 0 1 11.298 8.402 A 2.003 2.003 0 0 1 10.888 8.161 A 1.563 1.563 0 0 1 10.547 7.8 L 10.969 7.313 A 1.889 1.889 0 0 0 11.403 7.712 A 1.514 1.514 0 0 0 12.248 7.958 A 1.695 1.695 0 0 0 12.625 7.919 Q 12.893 7.858 13.087 7.702 A 1.037 1.037 0 0 0 13.173 7.625 A 1.09 1.09 0 0 0 13.45 7.132 Q 13.497 6.959 13.503 6.752 A 2.134 2.134 0 0 0 13.505 6.684 L 13.505 6.275 A 1.601 1.601 0 0 1 12.453 6.821 A 2.279 2.279 0 0 1 12.173 6.838 A 1.672 1.672 0 0 1 11.418 6.67 Q 11.096 6.51 10.846 6.197 A 2.14 2.14 0 0 1 10.822 6.166 A 2.316 2.316 0 0 1 10.438 5.386 Q 10.305 4.922 10.305 4.333 Q 10.305 3.472 10.614 2.884 A 2.096 2.096 0 0 1 10.819 2.564 Q 11.334 1.907 12.182 1.907 A 1.971 1.971 0 0 1 12.781 1.994 A 1.55 1.55 0 0 1 13.54 2.522 Z M 58.817 6.75 L 58.799 6.28 A 1.526 1.526 0 0 1 57.973 6.775 Q 57.723 6.836 57.425 6.838 A 2.996 2.996 0 0 1 57.406 6.838 A 2.086 2.086 0 0 1 56.946 6.79 Q 56.515 6.693 56.248 6.396 A 1.41 1.41 0 0 1 55.965 5.899 Q 55.848 5.556 55.846 5.089 L 55.846 1.995 L 56.659 1.995 L 56.659 5.067 Q 56.659 6.037 57.366 6.137 A 1.229 1.229 0 0 0 57.538 6.148 A 1.927 1.927 0 0 0 57.989 6.099 Q 58.551 5.964 58.777 5.454 L 58.777 1.995 L 59.59 1.995 L 59.59 6.75 L 58.817 6.75 Z M 9.391 6.75 L 8.539 6.75 A 0.632 0.632 0 0 1 8.503 6.66 Q 8.472 6.562 8.447 6.41 A 3.997 3.997 0 0 1 8.424 6.249 Q 7.858 6.838 7.071 6.838 A 2.033 2.033 0 0 1 6.542 6.772 A 1.529 1.529 0 0 1 5.917 6.44 Q 5.467 6.042 5.467 5.432 Q 5.467 4.689 6.032 4.278 Q 6.596 3.867 7.62 3.867 L 8.411 3.867 L 8.411 3.494 A 1.152 1.152 0 0 0 8.376 3.199 A 0.828 0.828 0 0 0 8.156 2.815 Q 7.94 2.6 7.55 2.568 A 1.748 1.748 0 0 0 7.405 2.562 Q 6.97 2.562 6.675 2.782 Q 6.381 3.001 6.381 3.313 L 5.564 3.313 A 1.041 1.041 0 0 1 5.689 2.825 A 1.409 1.409 0 0 1 5.816 2.626 Q 6.069 2.294 6.502 2.101 A 2.249 2.249 0 0 1 7.278 1.913 A 2.669 2.669 0 0 1 7.453 1.907 A 2.65 2.65 0 0 1 7.971 1.955 Q 8.278 2.016 8.517 2.156 A 1.439 1.439 0 0 1 8.741 2.318 A 1.396 1.396 0 0 1 9.194 3.144 A 1.998 1.998 0 0 1 9.224 3.45 L 9.224 5.638 Q 9.224 6.073 9.298 6.39 A 1.707 1.707 0 0 0 9.391 6.68 L 9.391 6.75 Z M 31.962 6.75 L 31.109 6.75 A 0.632 0.632 0 0 1 31.074 6.66 Q 31.042 6.562 31.017 6.41 A 3.997 3.997 0 0 1 30.995 6.249 Q 30.428 6.838 29.641 6.838 A 2.033 2.033 0 0 1 29.112 6.772 A 1.529 1.529 0 0 1 28.488 6.44 Q 28.037 6.042 28.037 5.432 Q 28.037 4.689 28.602 4.278 Q 29.167 3.867 30.191 3.867 L 30.982 3.867 L 30.982 3.494 A 1.152 1.152 0 0 0 30.946 3.199 A 0.828 0.828 0 0 0 30.727 2.815 Q 30.51 2.6 30.12 2.568 A 1.748 1.748 0 0 0 29.975 2.562 Q 29.54 2.562 29.246 2.782 Q 28.951 3.001 28.951 3.313 L 28.134 3.313 A 1.041 1.041 0 0 1 28.259 2.825 A 1.409 1.409 0 0 1 28.387 2.626 Q 28.639 2.294 29.072 2.101 A 2.249 2.249 0 0 1 29.848 1.913 A 2.669 2.669 0 0 1 30.024 1.907 A 2.65 2.65 0 0 1 30.541 1.955 Q 30.848 2.016 31.087 2.156 A 1.439 1.439 0 0 1 31.311 2.318 A 1.396 1.396 0 0 1 31.765 3.144 A 1.998 1.998 0 0 1 31.795 3.45 L 31.795 5.638 Q 31.795 6.073 31.868 6.39 A 1.707 1.707 0 0 0 31.962 6.68 L 31.962 6.75 Z M 84.076 6.75 L 83.224 6.75 A 0.632 0.632 0 0 1 83.188 6.66 Q 83.157 6.562 83.132 6.41 A 3.997 3.997 0 0 1 83.11 6.249 Q 82.543 6.838 81.756 6.838 A 2.033 2.033 0 0 1 81.227 6.772 A 1.529 1.529 0 0 1 80.602 6.44 Q 80.152 6.042 80.152 5.432 Q 80.152 4.689 80.717 4.278 Q 81.281 3.867 82.305 3.867 L 83.096 3.867 L 83.096 3.494 A 1.152 1.152 0 0 0 83.061 3.199 A 0.828 0.828 0 0 0 82.841 2.815 Q 82.625 2.6 82.235 2.568 A 1.748 1.748 0 0 0 82.09 2.562 Q 81.655 2.562 81.36 2.782 Q 81.066 3.001 81.066 3.313 L 80.249 3.313 A 1.041 1.041 0 0 1 80.374 2.825 A 1.409 1.409 0 0 1 80.501 2.626 Q 80.754 2.294 81.187 2.101 A 2.249 2.249 0 0 1 81.963 1.913 A 2.669 2.669 0 0 1 82.138 1.907 A 2.65 2.65 0 0 1 82.656 1.955 Q 82.963 2.016 83.202 2.156 A 1.439 1.439 0 0 1 83.426 2.318 A 1.396 1.396 0 0 1 83.879 3.144 A 1.998 1.998 0 0 1 83.909 3.45 L 83.909 5.638 Q 83.909 6.073 83.983 6.39 A 1.707 1.707 0 0 0 84.076 6.68 L 84.076 6.75 Z M 89.209 4.355 L 89.209 4.425 Q 89.209 5.308 88.881 5.909 A 2.141 2.141 0 0 1 88.708 6.177 A 1.647 1.647 0 0 1 88.121 6.673 Q 87.806 6.828 87.416 6.837 A 2.112 2.112 0 0 1 87.363 6.838 A 2.039 2.039 0 0 1 86.769 6.756 A 1.561 1.561 0 0 1 85.97 6.201 L 85.931 6.75 L 85.184 6.75 L 85.184 0 L 85.997 0 L 85.997 2.518 A 1.605 1.605 0 0 1 87.163 1.915 A 2.285 2.285 0 0 1 87.355 1.907 A 1.835 1.835 0 0 1 87.986 2.011 A 1.579 1.579 0 0 1 88.715 2.562 Q 89.129 3.11 89.196 3.998 A 4.727 4.727 0 0 1 89.209 4.355 Z M 60.627 4.395 L 60.627 4.333 A 3.762 3.762 0 0 1 60.694 3.602 Q 60.782 3.16 60.984 2.812 A 2.148 2.148 0 0 1 61.146 2.573 Q 61.664 1.907 62.504 1.907 A 1.964 1.964 0 0 1 63.102 1.994 A 1.559 1.559 0 0 1 63.826 2.479 L 63.826 0 L 64.639 0 L 64.639 6.75 L 63.892 6.75 L 63.853 6.24 Q 63.365 6.838 62.495 6.838 A 1.6 1.6 0 0 1 61.274 6.31 A 2.078 2.078 0 0 1 61.148 6.161 A 2.405 2.405 0 0 1 60.723 5.255 Q 60.639 4.912 60.629 4.51 A 4.425 4.425 0 0 1 60.627 4.395 Z M 15.341 4.504 L 15.341 4.355 A 3.17 3.17 0 0 1 15.418 3.646 A 2.581 2.581 0 0 1 15.612 3.092 A 2.191 2.191 0 0 1 16.059 2.466 A 2.033 2.033 0 0 1 16.368 2.221 Q 16.853 1.907 17.42 1.907 A 2.254 2.254 0 0 1 18.033 1.986 A 1.639 1.639 0 0 1 18.861 2.518 Q 19.376 3.129 19.376 4.267 L 19.376 4.605 L 16.154 4.605 A 2.111 2.111 0 0 0 16.226 5.114 A 1.516 1.516 0 0 0 16.565 5.741 A 1.282 1.282 0 0 0 17.499 6.173 A 1.652 1.652 0 0 0 17.565 6.174 A 1.763 1.763 0 0 0 17.893 6.145 Q 18.117 6.103 18.295 5.999 A 1.827 1.827 0 0 0 18.803 5.551 A 2.068 2.068 0 0 0 18.818 5.533 L 19.314 5.919 A 1.926 1.926 0 0 1 17.914 6.811 A 2.749 2.749 0 0 1 17.521 6.838 A 2.394 2.394 0 0 1 16.77 6.725 A 1.974 1.974 0 0 1 15.948 6.203 Q 15.341 5.568 15.341 4.504 Z M 37.336 4.504 L 37.336 4.355 A 3.17 3.17 0 0 1 37.412 3.646 A 2.581 2.581 0 0 1 37.606 3.092 A 2.191 2.191 0 0 1 38.054 2.466 A 2.033 2.033 0 0 1 38.362 2.221 Q 38.848 1.907 39.415 1.907 A 2.254 2.254 0 0 1 40.028 1.986 A 1.639 1.639 0 0 1 40.856 2.518 Q 41.37 3.129 41.37 4.267 L 41.37 4.605 L 38.149 4.605 A 2.111 2.111 0 0 0 38.22 5.114 A 1.516 1.516 0 0 0 38.56 5.741 A 1.282 1.282 0 0 0 39.494 6.173 A 1.652 1.652 0 0 0 39.56 6.174 A 1.763 1.763 0 0 0 39.888 6.145 Q 40.112 6.103 40.289 5.999 A 1.827 1.827 0 0 0 40.798 5.551 A 2.068 2.068 0 0 0 40.812 5.533 L 41.309 5.919 A 1.926 1.926 0 0 1 39.909 6.811 A 2.749 2.749 0 0 1 39.516 6.838 A 2.394 2.394 0 0 1 38.765 6.725 A 1.974 1.974 0 0 1 37.943 6.203 Q 37.336 5.568 37.336 4.504 Z M 76.421 0.352 L 76.421 6.06 L 79.453 6.06 L 79.453 6.75 L 75.573 6.75 L 75.573 0.352 L 76.421 0.352 Z M 53.214 0.844 L 54.027 0.844 L 54.027 1.995 L 54.914 1.995 L 54.914 2.624 L 54.027 2.624 L 54.027 5.572 Q 54.027 5.858 54.145 6.001 Q 54.264 6.144 54.549 6.144 A 1.046 1.046 0 0 0 54.647 6.138 Q 54.75 6.129 54.889 6.101 A 4.024 4.024 0 0 0 54.936 6.091 L 54.936 6.75 A 2.463 2.463 0 0 1 54.503 6.829 A 2.157 2.157 0 0 1 54.312 6.838 Q 53.865 6.838 53.598 6.616 A 0.856 0.856 0 0 1 53.49 6.508 Q 53.263 6.238 53.222 5.78 A 2.351 2.351 0 0 1 53.214 5.572 L 53.214 2.624 L 52.348 2.624 L 52.348 1.995 L 53.214 1.995 L 53.214 0.844 Z M 67.869 4.386 L 67.869 4.329 A 3.057 3.057 0 0 1 67.956 3.587 A 2.573 2.573 0 0 1 68.144 3.072 A 2.16 2.16 0 0 1 68.559 2.486 A 1.957 1.957 0 0 1 68.909 2.21 A 2.036 2.036 0 0 1 69.853 1.913 A 2.491 2.491 0 0 1 70.027 1.907 A 2.277 2.277 0 0 1 70.78 2.027 A 1.937 1.937 0 0 1 71.598 2.58 A 2.29 2.29 0 0 1 72.117 3.608 A 3.373 3.373 0 0 1 72.198 4.368 L 72.198 4.425 A 3.114 3.114 0 0 1 72.118 5.142 A 2.577 2.577 0 0 1 71.932 5.671 A 2.056 2.056 0 0 1 71.405 6.361 A 2.001 2.001 0 0 1 71.172 6.53 A 2.045 2.045 0 0 1 70.252 6.829 A 2.529 2.529 0 0 1 70.036 6.838 A 2.262 2.262 0 0 1 69.285 6.718 A 1.938 1.938 0 0 1 68.469 6.166 A 2.297 2.297 0 0 1 67.943 5.111 A 3.357 3.357 0 0 1 67.869 4.386 Z M 44.609 1.969 L 44.609 2.725 A 2.251 2.251 0 0 0 44.366 2.698 A 2.782 2.782 0 0 0 44.209 2.694 Q 43.431 2.694 43.14 3.338 A 1.445 1.445 0 0 0 43.124 3.375 L 43.124 6.75 L 42.311 6.75 L 42.311 1.995 L 43.102 1.995 L 43.115 2.544 Q 43.495 1.938 44.178 1.909 A 1.636 1.636 0 0 1 44.249 1.907 Q 44.486 1.907 44.609 1.969 Z M 66.784 1.995 L 66.784 6.75 L 65.971 6.75 L 65.971 1.995 L 66.784 1.995 Z M 68.687 4.425 A 2.772 2.772 0 0 0 68.734 4.954 Q 68.794 5.264 68.932 5.51 A 1.545 1.545 0 0 0 69.054 5.695 Q 69.421 6.174 70.036 6.174 A 1.269 1.269 0 0 0 70.525 6.083 Q 70.805 5.967 71.007 5.706 A 1.471 1.471 0 0 0 71.02 5.689 A 1.648 1.648 0 0 0 71.275 5.171 Q 71.344 4.945 71.369 4.672 A 3.655 3.655 0 0 0 71.385 4.329 A 2.687 2.687 0 0 0 71.334 3.789 Q 71.266 3.459 71.109 3.2 A 1.586 1.586 0 0 0 71.014 3.061 A 1.231 1.231 0 0 0 70.599 2.705 Q 70.345 2.575 70.027 2.575 Q 69.437 2.575 69.071 3.035 A 1.515 1.515 0 0 0 69.056 3.054 A 1.589 1.589 0 0 0 68.804 3.552 Q 68.734 3.772 68.706 4.039 A 3.676 3.676 0 0 0 68.687 4.425 Z M 63.826 5.454 L 63.826 3.27 A 1.375 1.375 0 0 0 63.515 2.874 Q 63.191 2.597 62.706 2.597 A 1.238 1.238 0 0 0 62.279 2.668 A 1.068 1.068 0 0 0 61.774 3.059 A 1.51 1.51 0 0 0 61.565 3.484 Q 61.499 3.689 61.468 3.939 A 3.955 3.955 0 0 0 61.44 4.425 A 3.162 3.162 0 0 0 61.476 4.918 Q 61.517 5.178 61.605 5.389 A 1.474 1.474 0 0 0 61.774 5.691 A 1.06 1.06 0 0 0 62.536 6.139 A 1.391 1.391 0 0 0 62.697 6.148 Q 63.47 6.148 63.826 5.454 Z M 85.997 3.344 L 85.997 5.401 A 1.528 1.528 0 0 0 86.283 5.807 Q 86.605 6.127 87.095 6.147 A 1.621 1.621 0 0 0 87.161 6.148 A 1.206 1.206 0 0 0 87.578 6.079 A 1.04 1.04 0 0 0 88.071 5.695 Q 88.396 5.243 88.396 4.333 Q 88.396 3.502 88.075 3.05 A 1.03 1.03 0 0 0 87.325 2.607 A 1.449 1.449 0 0 0 87.152 2.597 A 1.34 1.34 0 0 0 86.643 2.69 Q 86.225 2.86 85.997 3.344 Z M 13.505 5.449 L 13.505 3.278 A 1.439 1.439 0 0 0 13.204 2.891 Q 12.9 2.62 12.46 2.599 A 1.578 1.578 0 0 0 12.384 2.597 Q 11.792 2.597 11.458 3.056 A 1.51 1.51 0 0 0 11.248 3.484 Q 11.182 3.689 11.151 3.939 A 3.955 3.955 0 0 0 11.123 4.425 Q 11.123 5.229 11.452 5.689 Q 11.782 6.148 12.375 6.148 A 1.32 1.32 0 0 0 12.885 6.054 Q 13.277 5.891 13.505 5.449 Z M 8.411 5.418 L 8.411 4.443 L 7.774 4.443 Q 6.28 4.443 6.28 5.317 Q 6.28 5.7 6.535 5.915 A 0.893 0.893 0 0 0 6.948 6.108 A 1.259 1.259 0 0 0 7.19 6.13 A 1.429 1.429 0 0 0 7.915 5.933 A 1.335 1.335 0 0 0 8.21 5.705 A 1.108 1.108 0 0 0 8.411 5.418 Z M 30.982 5.418 L 30.982 4.443 L 30.344 4.443 Q 28.85 4.443 28.85 5.317 Q 28.85 5.7 29.105 5.915 A 0.893 0.893 0 0 0 29.519 6.108 A 1.259 1.259 0 0 0 29.76 6.13 A 1.429 1.429 0 0 0 30.485 5.933 A 1.335 1.335 0 0 0 30.781 5.705 A 1.108 1.108 0 0 0 30.982 5.418 Z M 83.096 5.418 L 83.096 4.443 L 82.459 4.443 Q 80.965 4.443 80.965 5.317 Q 80.965 5.7 81.22 5.915 A 0.893 0.893 0 0 0 81.633 6.108 A 1.259 1.259 0 0 0 81.875 6.13 A 1.429 1.429 0 0 0 82.6 5.933 A 1.335 1.335 0 0 0 82.895 5.705 A 1.108 1.108 0 0 0 83.096 5.418 Z M 16.181 3.938 L 18.563 3.938 L 18.563 3.876 Q 18.537 3.417 18.366 3.111 A 1.13 1.13 0 0 0 18.229 2.916 A 0.983 0.983 0 0 0 17.574 2.584 A 1.39 1.39 0 0 0 17.42 2.575 A 1.106 1.106 0 0 0 16.898 2.698 A 1.14 1.14 0 0 0 16.594 2.933 A 1.417 1.417 0 0 0 16.317 3.379 Q 16.244 3.563 16.204 3.785 A 2.741 2.741 0 0 0 16.181 3.938 Z M 38.175 3.938 L 40.557 3.938 L 40.557 3.876 Q 40.531 3.417 40.361 3.111 A 1.13 1.13 0 0 0 40.223 2.916 A 0.983 0.983 0 0 0 39.569 2.584 A 1.39 1.39 0 0 0 39.415 2.575 A 1.106 1.106 0 0 0 38.892 2.698 A 1.14 1.14 0 0 0 38.589 2.933 A 1.417 1.417 0 0 0 38.312 3.379 Q 38.238 3.563 38.198 3.785 A 2.741 2.741 0 0 0 38.175 3.938 Z M 65.905 0.734 Q 65.905 0.536 66.026 0.4 Q 66.138 0.274 66.349 0.264 A 0.783 0.783 0 0 1 66.384 0.264 Q 66.621 0.264 66.744 0.4 A 0.474 0.474 0 0 1 66.867 0.703 A 0.614 0.614 0 0 1 66.867 0.734 A 0.523 0.523 0 0 1 66.842 0.9 A 0.442 0.442 0 0 1 66.744 1.063 Q 66.632 1.184 66.424 1.194 A 0.803 0.803 0 0 1 66.384 1.195 Q 66.212 1.195 66.101 1.126 A 0.362 0.362 0 0 1 66.026 1.063 A 0.456 0.456 0 0 1 65.907 0.788 A 0.605 0.605 0 0 1 65.905 0.734 Z" vector-effect="non-scaling-stroke"/></g>
</svg>