<?xml version="1.0" encoding="UTF-8"?>
<svg width="48px" height="48px" viewBox="0 0 48 48" version="1.1" xmlns="http://www.w3.org/2000/svg" xmlns:xlink="http://www.w3.org/1999/xlink">
    <title>Icon-Resource/Analytics/Res_Amazon-Redshift_RA3_48_Dark</title>
    <g id="Icon-Resource/Analytics/Res_Amazon-Redshift_RA3_48" stroke="none" stroke-width="1" fill="none" fill-rule="evenodd">
        <path transform="translate(12.000000, 8.000000), scale(.65)" d="M40,17 L44,17 L44,13 L40,13 L40,17 Z M26.069,17.883 L30.369,10 L33,10 C33.133,10 33.258,9.971 33.373,9.925 L38,13.401 L38,14.702 L26.069,17.883 Z M36.826,28.035 L36.802,28.035 C36.802,29.911 31.544,32 24,32 C16.929,32 11.946,30.24 11.07,28.524 C11.267,26.456 16.059,24.22 23,24.02 L23,29 L25,29 L25,24.02 C31.411,24.204 35.99,26.115 36.826,28.035 L36.826,28.035 Z M24,44 C16.015,44 11.072,41.794 11.072,39.75 L11.072,39.748 L11.056,31.266 C13.879,33.135 19.071,34 24,34 C29.147,34 34.33,32.993 36.983,31.048 L37,39.75 C37,41.794 32.029,44 24,44 L24,44 Z M10,13.301 L14.708,9.941 C14.802,9.97 14.896,10 15,10 L17.781,10 L22.081,17.883 L10,14.662 L10,13.301 Z M4,17 L8,17 L8,13 L4,13 L4,17 Z M16,4 L20,4 L20,8 L18.969,8 L18.953,7.971 L18.9,8 L16,8 L16,4 Z M22,9 L22,7 L26,7 L26,9 C26,9.552 26.447,10 27,10 L28.091,10 L24.075,17.362 L20.06,10 L21,10 C21.553,10 22,9.552 22,9 L22,9 Z M28,4 L32,4 L32,8 L29.25,8 L29.197,7.971 L29.182,8 L28,8 L28,4 Z M45,11 L39,11 C38.776,11 38.581,11.087 38.414,11.211 L34,7.895 L34,3 C34,2.448 33.553,2 33,2 L27,2 C26.447,2 26,2.448 26,3 L26,5 L22,5 L22,3 C22,2.448 21.553,2 21,2 L15,2 C14.447,2 14,2.448 14,3 L14,7.989 L9.534,11.176 C9.377,11.074 9.201,11 9,11 L3,11 C2.447,11 2,11.448 2,12 L2,18 C2,18.552 2.447,19 3,19 L9,19 C9.553,19 10,18.552 10,18 L10,16.732 L23,20.199 L23,22.021 C14.982,22.236 9.051,25.012 9.051,28.657 L9.051,28.816 L9.037,28.82 C9.041,28.833 9.048,28.843 9.051,28.855 L9.072,39.752 C9.074,43.489 15.073,46 24,46 C31.466,46 39,44.067 39,39.748 L38.979,28.655 C38.979,25.012 33.034,22.236 25,22.021 L25,20.239 L38,16.772 L38,18 C38,18.552 38.447,19 39,19 L45,19 C45.553,19 46,18.552 46,18 L46,12 C46,11.448 45.553,11 45,11 L45,11 Z M29.127,41.836 C28.659,41.836 28.212,41.722 27.786,41.494 L27.786,40.792 C28.29,41.002 28.722,41.107 29.082,41.107 C29.43,41.107 29.697,41.004 29.883,40.797 C30.069,40.59 30.162,40.297 30.162,39.919 C30.162,39.559 30.073,39.283 29.896,39.091 C29.72,38.899 29.46,38.803 29.118,38.803 C28.938,38.803 28.722,38.818 28.47,38.848 L28.47,38.272 L29.955,36.202 L27.858,36.202 L27.858,35.482 L30.81,35.482 L30.81,36.148 L29.379,38.137 C29.877,38.143 30.274,38.307 30.571,38.628 C30.868,38.949 31.017,39.379 31.017,39.919 C31.017,40.513 30.849,40.981 30.513,41.323 C30.177,41.665 29.715,41.836 29.127,41.836 L29.127,41.836 Z M23.322,39.37 L24.871,39.37 L24.097,36.319 L23.322,39.37 Z M25.474,41.719 L25.042,40.036 L23.16,40.036 L22.737,41.719 L21.847,41.719 L23.646,35.482 L24.592,35.482 L26.392,41.719 L25.474,41.719 Z M17.688,38.506 L18.58,38.506 C18.874,38.506 19.101,38.404 19.259,38.2 C19.418,37.996 19.498,37.705 19.498,37.327 C19.498,36.955 19.42,36.67 19.264,36.472 C19.107,36.274 18.889,36.175 18.606,36.175 L17.688,36.175 L17.688,38.506 Z M16.852,41.719 L16.852,35.482 L18.696,35.482 C19.201,35.482 19.605,35.647 19.912,35.977 C20.218,36.307 20.371,36.754 20.371,37.318 C20.371,37.727 20.277,38.079 20.092,38.376 C19.905,38.673 19.642,38.893 19.3,39.037 L20.677,41.719 L19.741,41.719 L18.49,39.199 L17.688,39.199 L17.688,41.719 L16.852,41.719 Z" id="Fill-1" fill="#000000"></path>
    </g><g transform="translate(25, 83)" id="svgGroup" stroke-linecap="round" fill-rule="evenodd" font-size="9pt" stroke="#000" stroke-width="0.25mm" fill="#000" style="stroke:#000;stroke-width:0.25mm;fill:#000"><path d="M 47.848 3.911 L 47.848 3.248 L 48.458 3.248 Q 48.916 3.241 49.218 3.053 A 1.045 1.045 0 0 0 49.364 2.944 A 0.97 0.97 0 0 0 49.683 2.317 A 1.373 1.373 0 0 0 49.693 2.149 A 1.626 1.626 0 0 0 49.638 1.704 Q 49.495 1.204 48.988 1.072 A 1.645 1.645 0 0 0 48.573 1.024 A 1.495 1.495 0 0 0 48.211 1.065 A 1.044 1.044 0 0 0 47.731 1.325 A 1.004 1.004 0 0 0 47.429 1.936 A 1.405 1.405 0 0 0 47.417 2.123 L 46.604 2.123 A 1.698 1.698 0 0 1 46.759 1.392 A 1.68 1.68 0 0 1 47.16 0.859 A 1.924 1.924 0 0 1 48.212 0.38 A 2.615 2.615 0 0 1 48.573 0.356 A 2.758 2.758 0 0 1 49.149 0.413 Q 49.516 0.491 49.795 0.678 A 1.593 1.593 0 0 1 49.992 0.835 A 1.57 1.57 0 0 1 50.459 1.682 A 2.336 2.336 0 0 1 50.506 2.167 A 1.332 1.332 0 0 1 50.354 2.778 A 1.725 1.725 0 0 1 50.236 2.975 A 1.624 1.624 0 0 1 49.536 3.544 A 1.952 1.952 0 0 1 49.5 3.56 A 1.81 1.81 0 0 1 49.935 3.76 A 1.44 1.44 0 0 1 50.315 4.113 Q 50.603 4.5 50.603 5.058 Q 50.603 5.919 50.041 6.425 A 1.935 1.935 0 0 1 49.084 6.885 A 2.738 2.738 0 0 1 48.577 6.93 A 2.716 2.716 0 0 1 47.931 6.857 A 1.936 1.936 0 0 1 47.112 6.442 Q 46.547 5.955 46.547 5.155 L 47.364 5.155 A 1.255 1.255 0 0 0 47.415 5.519 A 0.978 0.978 0 0 0 47.694 5.963 A 1.113 1.113 0 0 0 48.208 6.227 A 1.643 1.643 0 0 0 48.577 6.267 Q 49.166 6.267 49.478 5.959 Q 49.765 5.676 49.788 5.165 A 2.011 2.011 0 0 0 49.79 5.076 A 1.451 1.451 0 0 0 49.75 4.726 A 0.962 0.962 0 0 0 49.447 4.219 A 1.13 1.13 0 0 0 49.059 4.002 Q 48.802 3.916 48.458 3.911 L 47.848 3.911 Z M 20.716 0.092 L 20.716 2.663 A 1.767 1.767 0 0 1 21.382 2.145 A 1.832 1.832 0 0 1 22.122 2 A 1.905 1.905 0 0 1 22.756 2.096 Q 23.597 2.392 23.64 3.598 A 3.668 3.668 0 0 1 23.643 3.7 L 23.643 6.842 L 22.83 6.842 L 22.83 3.696 A 1.837 1.837 0 0 0 22.807 3.416 Q 22.757 3.109 22.594 2.936 Q 22.408 2.737 22.055 2.699 A 1.66 1.66 0 0 0 21.876 2.689 A 1.253 1.253 0 0 0 21.462 2.756 A 1.123 1.123 0 0 0 21.182 2.9 A 1.432 1.432 0 0 0 20.716 3.454 L 20.716 6.842 L 19.903 6.842 L 19.903 0.092 L 20.716 0.092 Z M 83.193 6.842 L 81.536 4.641 L 81.026 5.172 L 81.026 6.842 L 80.213 6.842 L 80.213 0.092 L 81.026 0.092 L 81.026 4.175 L 81.461 3.652 L 82.942 2.087 L 83.931 2.087 L 82.081 4.074 L 84.146 6.842 L 83.193 6.842 Z M 3.74 6.842 L 2.351 4.254 L 0.848 4.254 L 0.848 6.842 L 0 6.842 L 0 0.444 L 2.118 0.444 A 3.809 3.809 0 0 1 2.76 0.494 Q 3.102 0.553 3.376 0.68 A 1.789 1.789 0 0 1 3.781 0.936 A 1.588 1.588 0 0 1 4.307 1.825 A 2.453 2.453 0 0 1 4.364 2.369 A 1.864 1.864 0 0 1 4.273 2.96 A 1.64 1.64 0 0 1 4.041 3.41 A 1.849 1.849 0 0 1 3.382 3.967 A 2.342 2.342 0 0 1 3.142 4.074 L 4.645 6.79 L 4.645 6.842 L 3.74 6.842 Z M 39.199 6.842 L 37.811 4.254 L 36.308 4.254 L 36.308 6.842 L 35.459 6.842 L 35.459 0.444 L 37.578 0.444 A 3.809 3.809 0 0 1 38.219 0.494 Q 38.561 0.553 38.835 0.68 A 1.789 1.789 0 0 1 39.241 0.936 A 1.588 1.588 0 0 1 39.766 1.825 A 2.453 2.453 0 0 1 39.823 2.369 A 1.864 1.864 0 0 1 39.732 2.96 A 1.64 1.64 0 0 1 39.5 3.41 A 1.849 1.849 0 0 1 38.841 3.967 A 2.342 2.342 0 0 1 38.602 4.074 L 40.104 6.79 L 40.104 6.842 L 39.199 6.842 Z M 18.8 3.485 L 17.982 3.485 Q 17.982 3.151 17.699 2.909 Q 17.416 2.667 16.985 2.667 Q 16.541 2.667 16.291 2.861 A 0.653 0.653 0 0 0 16.115 3.059 Q 16.042 3.191 16.04 3.356 A 0.771 0.771 0 0 0 16.04 3.366 A 0.588 0.588 0 0 0 16.07 3.559 A 0.48 0.48 0 0 0 16.273 3.81 A 1.093 1.093 0 0 0 16.423 3.889 Q 16.587 3.96 16.843 4.029 A 6.581 6.581 0 0 0 17.115 4.096 A 6.318 6.318 0 0 1 17.522 4.2 Q 17.859 4.3 18.101 4.421 A 1.901 1.901 0 0 1 18.357 4.573 Q 18.494 4.671 18.591 4.785 A 1.06 1.06 0 0 1 18.661 4.876 A 1.024 1.024 0 0 1 18.824 5.283 A 1.388 1.388 0 0 1 18.844 5.524 Q 18.844 6.161 18.334 6.546 Q 17.852 6.91 17.098 6.929 A 3.337 3.337 0 0 1 17.011 6.93 A 2.746 2.746 0 0 1 16.477 6.88 A 2.124 2.124 0 0 1 16 6.728 A 1.771 1.771 0 0 1 15.567 6.45 A 1.54 1.54 0 0 1 15.313 6.163 Q 15.064 5.801 15.064 5.379 L 15.877 5.379 A 0.932 0.932 0 0 0 15.951 5.704 A 0.827 0.827 0 0 0 16.205 6.027 A 1.072 1.072 0 0 0 16.607 6.22 Q 16.761 6.259 16.943 6.265 A 2.013 2.013 0 0 0 17.011 6.267 A 1.863 1.863 0 0 0 17.307 6.245 Q 17.468 6.219 17.6 6.162 A 0.941 0.941 0 0 0 17.752 6.08 A 0.689 0.689 0 0 0 17.916 5.929 A 0.554 0.554 0 0 0 18.031 5.581 A 0.698 0.698 0 0 0 17.994 5.35 A 0.581 0.581 0 0 0 17.782 5.069 A 1.05 1.05 0 0 0 17.614 4.971 Q 17.425 4.88 17.13 4.805 A 5.392 5.392 0 0 0 16.917 4.755 A 6.342 6.342 0 0 1 16.556 4.667 Q 16.186 4.565 15.937 4.438 Q 15.638 4.286 15.467 4.086 A 1.017 1.017 0 0 1 15.401 3.999 Q 15.227 3.744 15.227 3.393 A 1.206 1.206 0 0 1 15.626 2.488 A 1.694 1.694 0 0 1 15.721 2.404 A 1.752 1.752 0 0 1 16.504 2.044 A 2.471 2.471 0 0 1 16.985 2 A 2.559 2.559 0 0 1 17.548 2.058 A 1.757 1.757 0 0 1 18.297 2.417 Q 18.8 2.834 18.8 3.485 Z M 45.149 6.842 L 44.539 5.172 L 41.858 5.172 L 41.256 6.842 L 40.386 6.842 L 42.829 0.444 L 43.567 0.444 L 46.015 6.842 L 45.149 6.842 Z M 76.056 6.842 L 75.204 6.842 A 0.632 0.632 0 0 1 75.168 6.752 Q 75.137 6.654 75.112 6.502 A 3.997 3.997 0 0 1 75.089 6.341 Q 74.522 6.93 73.736 6.93 A 2.033 2.033 0 0 1 73.207 6.865 A 1.529 1.529 0 0 1 72.582 6.532 Q 72.132 6.135 72.132 5.524 Q 72.132 4.781 72.697 4.37 Q 73.261 3.959 74.285 3.959 L 75.076 3.959 L 75.076 3.586 A 1.152 1.152 0 0 0 75.04 3.291 A 0.828 0.828 0 0 0 74.821 2.907 Q 74.605 2.693 74.215 2.66 A 1.748 1.748 0 0 0 74.07 2.654 Q 73.635 2.654 73.34 2.874 Q 73.046 3.094 73.046 3.406 L 72.229 3.406 A 1.041 1.041 0 0 1 72.353 2.917 A 1.409 1.409 0 0 1 72.481 2.718 Q 72.734 2.386 73.167 2.193 A 2.249 2.249 0 0 1 73.942 2.005 A 2.669 2.669 0 0 1 74.118 2 A 2.65 2.65 0 0 1 74.636 2.047 Q 74.943 2.108 75.182 2.248 A 1.439 1.439 0 0 1 75.406 2.41 A 1.396 1.396 0 0 1 75.859 3.236 A 1.998 1.998 0 0 1 75.889 3.542 L 75.889 5.73 Q 75.889 6.165 75.963 6.482 A 1.707 1.707 0 0 0 76.056 6.772 L 76.056 6.842 Z M 9.989 4.487 L 9.989 4.425 A 3.762 3.762 0 0 1 10.056 3.694 Q 10.143 3.252 10.346 2.904 A 2.148 2.148 0 0 1 10.507 2.665 Q 11.026 2 11.865 2 A 1.964 1.964 0 0 1 12.463 2.086 A 1.559 1.559 0 0 1 13.188 2.571 L 13.188 0.092 L 14.001 0.092 L 14.001 6.842 L 13.254 6.842 L 13.214 6.333 Q 12.727 6.93 11.856 6.93 A 1.6 1.6 0 0 1 10.636 6.403 A 2.078 2.078 0 0 1 10.51 6.253 A 2.405 2.405 0 0 1 10.085 5.347 Q 10.001 5.004 9.99 4.603 A 4.425 4.425 0 0 1 9.989 4.487 Z M 5.212 4.597 L 5.212 4.447 A 3.17 3.17 0 0 1 5.288 3.738 A 2.581 2.581 0 0 1 5.482 3.184 A 2.191 2.191 0 0 1 5.93 2.558 A 2.033 2.033 0 0 1 6.238 2.314 Q 6.724 2 7.291 2 A 2.254 2.254 0 0 1 7.904 2.078 A 1.639 1.639 0 0 1 8.732 2.61 Q 9.246 3.221 9.246 4.359 L 9.246 4.698 L 6.025 4.698 A 2.111 2.111 0 0 0 6.096 5.206 A 1.516 1.516 0 0 0 6.436 5.834 A 1.282 1.282 0 0 0 7.37 6.265 A 1.652 1.652 0 0 0 7.436 6.267 A 1.763 1.763 0 0 0 7.764 6.238 Q 7.988 6.195 8.165 6.091 A 1.827 1.827 0 0 0 8.674 5.643 A 2.068 2.068 0 0 0 8.688 5.625 L 9.185 6.012 A 1.926 1.926 0 0 1 7.785 6.903 A 2.749 2.749 0 0 1 7.392 6.93 A 2.394 2.394 0 0 1 6.64 6.817 A 1.974 1.974 0 0 1 5.818 6.295 Q 5.212 5.66 5.212 4.597 Z M 28.257 6.842 L 27.444 6.842 L 27.444 2.716 L 26.692 2.716 L 26.692 2.087 L 27.444 2.087 L 27.444 1.6 Q 27.444 1.012 27.686 0.629 A 1.273 1.273 0 0 1 27.853 0.417 Q 28.261 0 29.008 0 A 2.134 2.134 0 0 1 29.566 0.075 L 29.522 0.734 Q 29.316 0.694 29.083 0.694 A 1.086 1.086 0 0 0 28.835 0.721 Q 28.614 0.773 28.472 0.925 A 0.747 0.747 0 0 0 28.306 1.221 Q 28.271 1.336 28.261 1.475 A 1.57 1.57 0 0 0 28.257 1.586 L 28.257 2.087 L 29.272 2.087 L 29.272 2.716 L 28.257 2.716 L 28.257 6.842 Z M 57.379 0.444 L 57.379 4.693 L 58.267 4.693 L 58.267 5.357 L 57.379 5.357 L 57.379 6.842 L 56.562 6.842 L 56.562 5.357 L 53.648 5.357 L 53.648 4.878 L 56.514 0.444 L 57.379 0.444 Z M 68.265 6.842 L 66.494 6.842 L 66.494 0.444 L 68.3 0.444 Q 69.135 0.444 69.776 0.813 Q 70.418 1.182 70.767 1.863 A 3.19 3.19 0 0 1 71.084 2.892 A 4.073 4.073 0 0 1 71.121 3.428 L 71.121 3.836 Q 71.121 4.742 70.772 5.423 A 2.457 2.457 0 0 1 69.774 6.469 Q 69.126 6.833 68.265 6.842 Z M 62.778 2.684 A 1.544 1.544 0 0 0 62.881 2.114 A 2.226 2.226 0 0 0 62.86 1.799 A 1.566 1.566 0 0 0 62.361 0.831 A 1.754 1.754 0 0 0 61.595 0.426 A 2.443 2.443 0 0 0 60.996 0.356 A 2.539 2.539 0 0 0 60.487 0.405 A 1.767 1.767 0 0 0 59.629 0.831 Q 59.111 1.305 59.111 2.114 A 1.808 1.808 0 0 0 59.111 2.151 A 1.499 1.499 0 0 0 59.357 2.962 A 1.626 1.626 0 0 0 59.519 3.169 A 1.726 1.726 0 0 0 60.029 3.546 A 2.119 2.119 0 0 0 59.93 3.592 A 1.738 1.738 0 0 0 59.245 4.179 A 1.629 1.629 0 0 0 58.961 5.115 A 2.272 2.272 0 0 0 58.971 5.329 A 1.63 1.63 0 0 0 59.517 6.436 A 1.895 1.895 0 0 0 60.368 6.864 A 2.797 2.797 0 0 0 60.996 6.93 A 2.796 2.796 0 0 0 61.595 6.869 A 1.925 1.925 0 0 0 62.47 6.438 A 1.578 1.578 0 0 0 62.945 5.712 A 1.989 1.989 0 0 0 63.031 5.115 A 1.581 1.581 0 0 0 62.739 4.179 Q 62.446 3.766 61.945 3.551 Q 62.376 3.34 62.629 2.966 A 1.449 1.449 0 0 0 62.778 2.684 Z M 30.458 0.936 L 31.271 0.936 L 31.271 2.087 L 32.159 2.087 L 32.159 2.716 L 31.271 2.716 L 31.271 5.665 Q 31.271 5.95 31.39 6.093 Q 31.509 6.236 31.794 6.236 A 1.046 1.046 0 0 0 31.892 6.231 Q 31.995 6.221 32.134 6.193 A 4.024 4.024 0 0 0 32.181 6.183 L 32.181 6.842 A 2.463 2.463 0 0 1 31.748 6.922 A 2.157 2.157 0 0 1 31.557 6.93 Q 31.11 6.93 30.843 6.708 A 0.856 0.856 0 0 1 30.735 6.601 Q 30.508 6.33 30.467 5.872 A 2.351 2.351 0 0 1 30.458 5.665 L 30.458 2.716 L 29.593 2.716 L 29.593 2.087 L 30.458 2.087 L 30.458 0.936 Z M 79.462 2.061 L 79.462 2.817 A 2.251 2.251 0 0 0 79.219 2.79 A 2.782 2.782 0 0 0 79.062 2.786 Q 78.284 2.786 77.993 3.43 A 1.445 1.445 0 0 0 77.977 3.467 L 77.977 6.842 L 77.164 6.842 L 77.164 2.087 L 77.955 2.087 L 77.968 2.637 Q 78.348 2.031 79.031 2.001 A 1.636 1.636 0 0 1 79.102 2 Q 79.339 2 79.462 2.061 Z M 68.322 1.138 L 67.337 1.138 L 67.337 6.152 L 68.225 6.152 A 2.519 2.519 0 0 0 68.858 6.077 A 1.747 1.747 0 0 0 69.743 5.546 Q 70.203 5.033 70.273 4.151 A 4.165 4.165 0 0 0 70.286 3.819 L 70.286 3.445 Q 70.286 2.654 70.016 2.119 A 1.864 1.864 0 0 0 69.774 1.751 A 1.687 1.687 0 0 0 68.778 1.182 A 2.499 2.499 0 0 0 68.322 1.138 Z M 25.743 2.087 L 25.743 6.842 L 24.93 6.842 L 24.93 2.087 L 25.743 2.087 Z M 13.188 5.546 L 13.188 3.362 A 1.375 1.375 0 0 0 12.876 2.966 Q 12.552 2.689 12.067 2.689 A 1.238 1.238 0 0 0 11.641 2.76 A 1.068 1.068 0 0 0 11.136 3.151 A 1.51 1.51 0 0 0 10.927 3.577 Q 10.861 3.781 10.83 4.031 A 3.955 3.955 0 0 0 10.802 4.518 A 3.162 3.162 0 0 0 10.838 5.01 Q 10.879 5.271 10.967 5.481 A 1.474 1.474 0 0 0 11.136 5.783 A 1.06 1.06 0 0 0 11.898 6.231 A 1.391 1.391 0 0 0 12.059 6.24 Q 12.832 6.24 13.188 5.546 Z M 0.848 1.138 L 0.848 3.564 L 2.145 3.564 Q 2.685 3.564 3.035 3.324 A 1.174 1.174 0 0 0 3.144 3.239 A 1.069 1.069 0 0 0 3.51 2.501 A 1.486 1.486 0 0 0 3.516 2.369 Q 3.516 1.826 3.22 1.515 A 1 1 0 0 0 3.162 1.459 Q 2.808 1.143 2.14 1.138 L 0.848 1.138 Z M 36.308 1.138 L 36.308 3.564 L 37.604 3.564 Q 38.144 3.564 38.494 3.324 A 1.174 1.174 0 0 0 38.604 3.239 A 1.069 1.069 0 0 0 38.969 2.501 A 1.486 1.486 0 0 0 38.975 2.369 Q 38.975 1.826 38.679 1.515 A 1 1 0 0 0 38.621 1.459 Q 38.268 1.143 37.6 1.138 L 36.308 1.138 Z M 56.465 1.731 L 54.571 4.693 L 56.562 4.693 L 56.562 1.556 L 56.465 1.731 Z M 43.198 1.485 L 42.113 4.478 L 44.288 4.478 L 43.198 1.485 Z M 62.218 5.098 A 1.375 1.375 0 0 0 62.158 4.684 A 1.109 1.109 0 0 0 61.877 4.223 A 1.148 1.148 0 0 0 61.206 3.899 A 1.593 1.593 0 0 0 60.987 3.885 A 1.466 1.466 0 0 0 60.599 3.934 A 1.086 1.086 0 0 0 60.106 4.219 A 1.123 1.123 0 0 0 59.793 4.854 A 1.572 1.572 0 0 0 59.774 5.098 A 1.48 1.48 0 0 0 59.816 5.459 A 1.019 1.019 0 0 0 60.097 5.955 Q 60.403 6.25 60.936 6.266 A 2.053 2.053 0 0 0 60.996 6.267 Q 61.49 6.267 61.8 6.032 A 1.018 1.018 0 0 0 61.893 5.952 A 1.041 1.041 0 0 0 62.192 5.384 A 1.518 1.518 0 0 0 62.218 5.098 Z M 60.996 1.024 A 1.259 1.259 0 0 0 60.643 1.071 A 0.973 0.973 0 0 0 60.22 1.321 Q 59.924 1.617 59.924 2.127 A 1.325 1.325 0 0 0 59.968 2.48 A 0.994 0.994 0 0 0 60.216 2.916 A 0.974 0.974 0 0 0 60.778 3.2 A 1.382 1.382 0 0 0 60.996 3.217 A 1.279 1.279 0 0 0 61.341 3.173 A 0.952 0.952 0 0 0 61.776 2.916 A 1.018 1.018 0 0 0 62.051 2.352 A 1.426 1.426 0 0 0 62.068 2.127 A 1.282 1.282 0 0 0 62.018 1.76 A 1.013 1.013 0 0 0 61.765 1.332 Q 61.462 1.024 60.996 1.024 Z M 75.076 5.511 L 75.076 4.535 L 74.439 4.535 Q 72.945 4.535 72.945 5.41 Q 72.945 5.792 73.2 6.007 A 0.893 0.893 0 0 0 73.613 6.201 A 1.259 1.259 0 0 0 73.854 6.223 A 1.429 1.429 0 0 0 74.58 6.025 A 1.335 1.335 0 0 0 74.875 5.797 A 1.108 1.108 0 0 0 75.076 5.511 Z M 6.051 4.03 L 8.433 4.03 L 8.433 3.968 Q 8.407 3.509 8.236 3.204 A 1.13 1.13 0 0 0 8.099 3.008 A 0.983 0.983 0 0 0 7.445 2.676 A 1.39 1.39 0 0 0 7.291 2.667 A 1.106 1.106 0 0 0 6.768 2.79 A 1.14 1.14 0 0 0 6.464 3.026 A 1.417 1.417 0 0 0 6.188 3.472 Q 6.114 3.656 6.074 3.878 A 2.741 2.741 0 0 0 6.051 4.03 Z M 24.864 0.826 Q 24.864 0.628 24.985 0.492 Q 25.097 0.366 25.309 0.357 A 0.783 0.783 0 0 1 25.343 0.356 Q 25.581 0.356 25.704 0.492 A 0.474 0.474 0 0 1 25.826 0.796 A 0.614 0.614 0 0 1 25.827 0.826 A 0.523 0.523 0 0 1 25.801 0.992 A 0.442 0.442 0 0 1 25.704 1.156 Q 25.591 1.276 25.383 1.287 A 0.803 0.803 0 0 1 25.343 1.288 Q 25.171 1.288 25.06 1.218 A 0.362 0.362 0 0 1 24.985 1.156 A 0.456 0.456 0 0 1 24.867 0.88 A 0.605 0.605 0 0 1 24.864 0.826 Z" vector-effect="non-scaling-stroke"/></g>
</svgversion="1.0" encoding="UTF-8"?>
<svg width="48px" height="48px" viewBox="0 0 48 48" version="1.1" xmlns="http://www.w3.org/2000/svg" xmlns:xlink="http://www.w3.org/1999/xlink">
    <title>Icon-Resource/Analytics/Res_Amazon-Redshift_RA3_48_Dark</title>
    <g id="Icon-Resource/Analytics/Res_Amazon-Redshift_RA3_48" stroke="none" stroke-width="1" fill="none" fill-rule="evenodd">
        <path transform="translate(12.000000, 8.000000), scale(.65)" d="M40,17 L44,17 L44,13 L40,13 L40,17 Z M26.069,17.883 L30.369,10 L33,10 C33.133,10 33.258,9.971 33.373,9.925 L38,13.401 L38,14.702 L26.069,17.883 Z M36.826,28.035 L36.802,28.035 C36.802,29.911 31.544,32 24,32 C16.929,32 11.946,30.24 11.07,28.524 C11.267,26.456 16.059,24.22 23,24.02 L23,29 L25,29 L25,24.02 C31.411,24.204 35.99,26.115 36.826,28.035 L36.826,28.035 Z M24,44 C16.015,44 11.072,41.794 11.072,39.75 L11.072,39.748 L11.056,31.266 C13.879,33.135 19.071,34 24,34 C29.147,34 34.33,32.993 36.983,31.048 L37,39.75 C37,41.794 32.029,44 24,44 L24,44 Z M10,13.301 L14.708,9.941 C14.802,9.97 14.896,10 15,10 L17.781,10 L22.081,17.883 L10,14.662 L10,13.301 Z M4,17 L8,17 L8,13 L4,13 L4,17 Z M16,4 L20,4 L20,8 L18.969,8 L18.953,7.971 L18.9,8 L16,8 L16,4 Z M22,9 L22,7 L26,7 L26,9 C26,9.552 26.447,10 27,10 L28.091,10 L24.075,17.362 L20.06,10 L21,10 C21.553,10 22,9.552 22,9 L22,9 Z M28,4 L32,4 L32,8 L29.25,8 L29.197,7.971 L29.182,8 L28,8 L28,4 Z M45,11 L39,11 C38.776,11 38.581,11.087 38.414,11.211 L34,7.895 L34,3 C34,2.448 33.553,2 33,2 L27,2 C26.447,2 26,2.448 26,3 L26,5 L22,5 L22,3 C22,2.448 21.553,2 21,2 L15,2 C14.447,2 14,2.448 14,3 L14,7.989 L9.534,11.176 C9.377,11.074 9.201,11 9,11 L3,11 C2.447,11 2,11.448 2,12 L2,18 C2,18.552 2.447,19 3,19 L9,19 C9.553,19 10,18.552 10,18 L10,16.732 L23,20.199 L23,22.021 C14.982,22.236 9.051,25.012 9.051,28.657 L9.051,28.816 L9.037,28.82 C9.041,28.833 9.048,28.843 9.051,28.855 L9.072,39.752 C9.074,43.489 15.073,46 24,46 C31.466,46 39,44.067 39,39.748 L38.979,28.655 C38.979,25.012 33.034,22.236 25,22.021 L25,20.239 L38,16.772 L38,18 C38,18.552 38.447,19 39,19 L45,19 C45.553,19 46,18.552 46,18 L46,12 C46,11.448 45.553,11 45,11 L45,11 Z M29.127,41.836 C28.659,41.836 28.212,41.722 27.786,41.494 L27.786,40.792 C28.29,41.002 28.722,41.107 29.082,41.107 C29.43,41.107 29.697,41.004 29.883,40.797 C30.069,40.59 30.162,40.297 30.162,39.919 C30.162,39.559 30.073,39.283 29.896,39.091 C29.72,38.899 29.46,38.803 29.118,38.803 C28.938,38.803 28.722,38.818 28.47,38.848 L28.47,38.272 L29.955,36.202 L27.858,36.202 L27.858,35.482 L30.81,35.482 L30.81,36.148 L29.379,38.137 C29.877,38.143 30.274,38.307 30.571,38.628 C30.868,38.949 31.017,39.379 31.017,39.919 C31.017,40.513 30.849,40.981 30.513,41.323 C30.177,41.665 29.715,41.836 29.127,41.836 L29.127,41.836 Z M23.322,39.37 L24.871,39.37 L24.097,36.319 L23.322,39.37 Z M25.474,41.719 L25.042,40.036 L23.16,40.036 L22.737,41.719 L21.847,41.719 L23.646,35.482 L24.592,35.482 L26.392,41.719 L25.474,41.719 Z M17.688,38.506 L18.58,38.506 C18.874,38.506 19.101,38.404 19.259,38.2 C19.418,37.996 19.498,37.705 19.498,37.327 C19.498,36.955 19.42,36.67 19.264,36.472 C19.107,36.274 18.889,36.175 18.606,36.175 L17.688,36.175 L17.688,38.506 Z M16.852,41.719 L16.852,35.482 L18.696,35.482 C19.201,35.482 19.605,35.647 19.912,35.977 C20.218,36.307 20.371,36.754 20.371,37.318 C20.371,37.727 20.277,38.079 20.092,38.376 C19.905,38.673 19.642,38.893 19.3,39.037 L20.677,41.719 L19.741,41.719 L18.49,39.199 L17.688,39.199 L17.688,41.719 L16.852,41.719 Z" id="Fill-1" fill="#000000"></path>
    </g><g transform="translate(25, 83)" id="svgGroup" stroke-linecap="round" fill-rule="evenodd" font-size="9pt" stroke="#000" stroke-width="0.25mm" fill="#000" style="stroke:#000;stroke-width:0.25mm;fill:#000"><path d="M 47.848 3.911 L 47.848 3.248 L 48.458 3.248 Q 48.916 3.241 49.218 3.053 A 1.045 1.045 0 0 0 49.364 2.944 A 0.97 0.97 0 0 0 49.683 2.317 A 1.373 1.373 0 0 0 49.693 2.149 A 1.626 1.626 0 0 0 49.638 1.704 Q 49.495 1.204 48.988 1.072 A 1.645 1.645 0 0 0 48.573 1.024 A 1.495 1.495 0 0 0 48.211 1.065 A 1.044 1.044 0 0 0 47.731 1.325 A 1.004 1.004 0 0 0 47.429 1.936 A 1.405 1.405 0 0 0 47.417 2.123 L 46.604 2.123 A 1.698 1.698 0 0 1 46.759 1.392 A 1.68 1.68 0 0 1 47.16 0.859 A 1.924 1.924 0 0 1 48.212 0.38 A 2.615 2.615 0 0 1 48.573 0.356 A 2.758 2.758 0 0 1 49.149 0.413 Q 49.516 0.491 49.795 0.678 A 1.593 1.593 0 0 1 49.992 0.835 A 1.57 1.57 0 0 1 50.459 1.682 A 2.336 2.336 0 0 1 50.506 2.167 A 1.332 1.332 0 0 1 50.354 2.778 A 1.725 1.725 0 0 1 50.236 2.975 A 1.624 1.624 0 0 1 49.536 3.544 A 1.952 1.952 0 0 1 49.5 3.56 A 1.81 1.81 0 0 1 49.935 3.76 A 1.44 1.44 0 0 1 50.315 4.113 Q 50.603 4.5 50.603 5.058 Q 50.603 5.919 50.041 6.425 A 1.935 1.935 0 0 1 49.084 6.885 A 2.738 2.738 0 0 1 48.577 6.93 A 2.716 2.716 0 0 1 47.931 6.857 A 1.936 1.936 0 0 1 47.112 6.442 Q 46.547 5.955 46.547 5.155 L 47.364 5.155 A 1.255 1.255 0 0 0 47.415 5.519 A 0.978 0.978 0 0 0 47.694 5.963 A 1.113 1.113 0 0 0 48.208 6.227 A 1.643 1.643 0 0 0 48.577 6.267 Q 49.166 6.267 49.478 5.959 Q 49.765 5.676 49.788 5.165 A 2.011 2.011 0 0 0 49.79 5.076 A 1.451 1.451 0 0 0 49.75 4.726 A 0.962 0.962 0 0 0 49.447 4.219 A 1.13 1.13 0 0 0 49.059 4.002 Q 48.802 3.916 48.458 3.911 L 47.848 3.911 Z M 20.716 0.092 L 20.716 2.663 A 1.767 1.767 0 0 1 21.382 2.145 A 1.832 1.832 0 0 1 22.122 2 A 1.905 1.905 0 0 1 22.756 2.096 Q 23.597 2.392 23.64 3.598 A 3.668 3.668 0 0 1 23.643 3.7 L 23.643 6.842 L 22.83 6.842 L 22.83 3.696 A 1.837 1.837 0 0 0 22.807 3.416 Q 22.757 3.109 22.594 2.936 Q 22.408 2.737 22.055 2.699 A 1.66 1.66 0 0 0 21.876 2.689 A 1.253 1.253 0 0 0 21.462 2.756 A 1.123 1.123 0 0 0 21.182 2.9 A 1.432 1.432 0 0 0 20.716 3.454 L 20.716 6.842 L 19.903 6.842 L 19.903 0.092 L 20.716 0.092 Z M 83.193 6.842 L 81.536 4.641 L 81.026 5.172 L 81.026 6.842 L 80.213 6.842 L 80.213 0.092 L 81.026 0.092 L 81.026 4.175 L 81.461 3.652 L 82.942 2.087 L 83.931 2.087 L 82.081 4.074 L 84.146 6.842 L 83.193 6.842 Z M 3.74 6.842 L 2.351 4.254 L 0.848 4.254 L 0.848 6.842 L 0 6.842 L 0 0.444 L 2.118 0.444 A 3.809 3.809 0 0 1 2.76 0.494 Q 3.102 0.553 3.376 0.68 A 1.789 1.789 0 0 1 3.781 0.936 A 1.588 1.588 0 0 1 4.307 1.825 A 2.453 2.453 0 0 1 4.364 2.369 A 1.864 1.864 0 0 1 4.273 2.96 A 1.64 1.64 0 0 1 4.041 3.41 A 1.849 1.849 0 0 1 3.382 3.967 A 2.342 2.342 0 0 1 3.142 4.074 L 4.645 6.79 L 4.645 6.842 L 3.74 6.842 Z M 39.199 6.842 L 37.811 4.254 L 36.308 4.254 L 36.308 6.842 L 35.459 6.842 L 35.459 0.444 L 37.578 0.444 A 3.809 3.809 0 0 1 38.219 0.494 Q 38.561 0.553 38.835 0.68 A 1.789 1.789 0 0 1 39.241 0.936 A 1.588 1.588 0 0 1 39.766 1.825 A 2.453 2.453 0 0 1 39.823 2.369 A 1.864 1.864 0 0 1 39.732 2.96 A 1.64 1.64 0 0 1 39.5 3.41 A 1.849 1.849 0 0 1 38.841 3.967 A 2.342 2.342 0 0 1 38.602 4.074 L 40.104 6.79 L 40.104 6.842 L 39.199 6.842 Z M 18.8 3.485 L 17.982 3.485 Q 17.982 3.151 17.699 2.909 Q 17.416 2.667 16.985 2.667 Q 16.541 2.667 16.291 2.861 A 0.653 0.653 0 0 0 16.115 3.059 Q 16.042 3.191 16.04 3.356 A 0.771 0.771 0 0 0 16.04 3.366 A 0.588 0.588 0 0 0 16.07 3.559 A 0.48 0.48 0 0 0 16.273 3.81 A 1.093 1.093 0 0 0 16.423 3.889 Q 16.587 3.96 16.843 4.029 A 6.581 6.581 0 0 0 17.115 4.096 A 6.318 6.318 0 0 1 17.522 4.2 Q 17.859 4.3 18.101 4.421 A 1.901 1.901 0 0 1 18.357 4.573 Q 18.494 4.671 18.591 4.785 A 1.06 1.06 0 0 1 18.661 4.876 A 1.024 1.024 0 0 1 18.824 5.283 A 1.388 1.388 0 0 1 18.844 5.524 Q 18.844 6.161 18.334 6.546 Q 17.852 6.91 17.098 6.929 A 3.337 3.337 0 0 1 17.011 6.93 A 2.746 2.746 0 0 1 16.477 6.88 A 2.124 2.124 0 0 1 16 6.728 A 1.771 1.771 0 0 1 15.567 6.45 A 1.54 1.54 0 0 1 15.313 6.163 Q 15.064 5.801 15.064 5.379 L 15.877 5.379 A 0.932 0.932 0 0 0 15.951 5.704 A 0.827 0.827 0 0 0 16.205 6.027 A 1.072 1.072 0 0 0 16.607 6.22 Q 16.761 6.259 16.943 6.265 A 2.013 2.013 0 0 0 17.011 6.267 A 1.863 1.863 0 0 0 17.307 6.245 Q 17.468 6.219 17.6 6.162 A 0.941 0.941 0 0 0 17.752 6.08 A 0.689 0.689 0 0 0 17.916 5.929 A 0.554 0.554 0 0 0 18.031 5.581 A 0.698 0.698 0 0 0 17.994 5.35 A 0.581 0.581 0 0 0 17.782 5.069 A 1.05 1.05 0 0 0 17.614 4.971 Q 17.425 4.88 17.13 4.805 A 5.392 5.392 0 0 0 16.917 4.755 A 6.342 6.342 0 0 1 16.556 4.667 Q 16.186 4.565 15.937 4.438 Q 15.638 4.286 15.467 4.086 A 1.017 1.017 0 0 1 15.401 3.999 Q 15.227 3.744 15.227 3.393 A 1.206 1.206 0 0 1 15.626 2.488 A 1.694 1.694 0 0 1 15.721 2.404 A 1.752 1.752 0 0 1 16.504 2.044 A 2.471 2.471 0 0 1 16.985 2 A 2.559 2.559 0 0 1 17.548 2.058 A 1.757 1.757 0 0 1 18.297 2.417 Q 18.8 2.834 18.8 3.485 Z M 45.149 6.842 L 44.539 5.172 L 41.858 5.172 L 41.256 6.842 L 40.386 6.842 L 42.829 0.444 L 43.567 0.444 L 46.015 6.842 L 45.149 6.842 Z M 76.056 6.842 L 75.204 6.842 A 0.632 0.632 0 0 1 75.168 6.752 Q 75.137 6.654 75.112 6.502 A 3.997 3.997 0 0 1 75.089 6.341 Q 74.522 6.93 73.736 6.93 A 2.033 2.033 0 0 1 73.207 6.865 A 1.529 1.529 0 0 1 72.582 6.532 Q 72.132 6.135 72.132 5.524 Q 72.132 4.781 72.697 4.37 Q 73.261 3.959 74.285 3.959 L 75.076 3.959 L 75.076 3.586 A 1.152 1.152 0 0 0 75.04 3.291 A 0.828 0.828 0 0 0 74.821 2.907 Q 74.605 2.693 74.215 2.66 A 1.748 1.748 0 0 0 74.07 2.654 Q 73.635 2.654 73.34 2.874 Q 73.046 3.094 73.046 3.406 L 72.229 3.406 A 1.041 1.041 0 0 1 72.353 2.917 A 1.409 1.409 0 0 1 72.481 2.718 Q 72.734 2.386 73.167 2.193 A 2.249 2.249 0 0 1 73.942 2.005 A 2.669 2.669 0 0 1 74.118 2 A 2.65 2.65 0 0 1 74.636 2.047 Q 74.943 2.108 75.182 2.248 A 1.439 1.439 0 0 1 75.406 2.41 A 1.396 1.396 0 0 1 75.859 3.236 A 1.998 1.998 0 0 1 75.889 3.542 L 75.889 5.73 Q 75.889 6.165 75.963 6.482 A 1.707 1.707 0 0 0 76.056 6.772 L 76.056 6.842 Z M 9.989 4.487 L 9.989 4.425 A 3.762 3.762 0 0 1 10.056 3.694 Q 10.143 3.252 10.346 2.904 A 2.148 2.148 0 0 1 10.507 2.665 Q 11.026 2 11.865 2 A 1.964 1.964 0 0 1 12.463 2.086 A 1.559 1.559 0 0 1 13.188 2.571 L 13.188 0.092 L 14.001 0.092 L 14.001 6.842 L 13.254 6.842 L 13.214 6.333 Q 12.727 6.93 11.856 6.93 A 1.6 1.6 0 0 1 10.636 6.403 A 2.078 2.078 0 0 1 10.51 6.253 A 2.405 2.405 0 0 1 10.085 5.347 Q 10.001 5.004 9.99 4.603 A 4.425 4.425 0 0 1 9.989 4.487 Z M 5.212 4.597 L 5.212 4.447 A 3.17 3.17 0 0 1 5.288 3.738 A 2.581 2.581 0 0 1 5.482 3.184 A 2.191 2.191 0 0 1 5.93 2.558 A 2.033 2.033 0 0 1 6.238 2.314 Q 6.724 2 7.291 2 A 2.254 2.254 0 0 1 7.904 2.078 A 1.639 1.639 0 0 1 8.732 2.61 Q 9.246 3.221 9.246 4.359 L 9.246 4.698 L 6.025 4.698 A 2.111 2.111 0 0 0 6.096 5.206 A 1.516 1.516 0 0 0 6.436 5.834 A 1.282 1.282 0 0 0 7.37 6.265 A 1.652 1.652 0 0 0 7.436 6.267 A 1.763 1.763 0 0 0 7.764 6.238 Q 7.988 6.195 8.165 6.091 A 1.827 1.827 0 0 0 8.674 5.643 A 2.068 2.068 0 0 0 8.688 5.625 L 9.185 6.012 A 1.926 1.926 0 0 1 7.785 6.903 A 2.749 2.749 0 0 1 7.392 6.93 A 2.394 2.394 0 0 1 6.64 6.817 A 1.974 1.974 0 0 1 5.818 6.295 Q 5.212 5.66 5.212 4.597 Z M 28.257 6.842 L 27.444 6.842 L 27.444 2.716 L 26.692 2.716 L 26.692 2.087 L 27.444 2.087 L 27.444 1.6 Q 27.444 1.012 27.686 0.629 A 1.273 1.273 0 0 1 27.853 0.417 Q 28.261 0 29.008 0 A 2.134 2.134 0 0 1 29.566 0.075 L 29.522 0.734 Q 29.316 0.694 29.083 0.694 A 1.086 1.086 0 0 0 28.835 0.721 Q 28.614 0.773 28.472 0.925 A 0.747 0.747 0 0 0 28.306 1.221 Q 28.271 1.336 28.261 1.475 A 1.57 1.57 0 0 0 28.257 1.586 L 28.257 2.087 L 29.272 2.087 L 29.272 2.716 L 28.257 2.716 L 28.257 6.842 Z M 57.379 0.444 L 57.379 4.693 L 58.267 4.693 L 58.267 5.357 L 57.379 5.357 L 57.379 6.842 L 56.562 6.842 L 56.562 5.357 L 53.648 5.357 L 53.648 4.878 L 56.514 0.444 L 57.379 0.444 Z M 68.265 6.842 L 66.494 6.842 L 66.494 0.444 L 68.3 0.444 Q 69.135 0.444 69.776 0.813 Q 70.418 1.182 70.767 1.863 A 3.19 3.19 0 0 1 71.084 2.892 A 4.073 4.073 0 0 1 71.121 3.428 L 71.121 3.836 Q 71.121 4.742 70.772 5.423 A 2.457 2.457 0 0 1 69.774 6.469 Q 69.126 6.833 68.265 6.842 Z M 62.778 2.684 A 1.544 1.544 0 0 0 62.881 2.114 A 2.226 2.226 0 0 0 62.86 1.799 A 1.566 1.566 0 0 0 62.361 0.831 A 1.754 1.754 0 0 0 61.595 0.426 A 2.443 2.443 0 0 0 60.996 0.356 A 2.539 2.539 0 0 0 60.487 0.405 A 1.767 1.767 0 0 0 59.629 0.831 Q 59.111 1.305 59.111 2.114 A 1.808 1.808 0 0 0 59.111 2.151 A 1.499 1.499 0 0 0 59.357 2.962 A 1.626 1.626 0 0 0 59.519 3.169 A 1.726 1.726 0 0 0 60.029 3.546 A 2.119 2.119 0 0 0 59.93 3.592 A 1.738 1.738 0 0 0 59.245 4.179 A 1.629 1.629 0 0 0 58.961 5.115 A 2.272 2.272 0 0 0 58.971 5.329 A 1.63 1.63 0 0 0 59.517 6.436 A 1.895 1.895 0 0 0 60.368 6.864 A 2.797 2.797 0 0 0 60.996 6.93 A 2.796 2.796 0 0 0 61.595 6.869 A 1.925 1.925 0 0 0 62.47 6.438 A 1.578 1.578 0 0 0 62.945 5.712 A 1.989 1.989 0 0 0 63.031 5.115 A 1.581 1.581 0 0 0 62.739 4.179 Q 62.446 3.766 61.945 3.551 Q 62.376 3.34 62.629 2.966 A 1.449 1.449 0 0 0 62.778 2.684 Z M 30.458 0.936 L 31.271 0.936 L 31.271 2.087 L 32.159 2.087 L 32.159 2.716 L 31.271 2.716 L 31.271 5.665 Q 31.271 5.95 31.39 6.093 Q 31.509 6.236 31.794 6.236 A 1.046 1.046 0 0 0 31.892 6.231 Q 31.995 6.221 32.134 6.193 A 4.024 4.024 0 0 0 32.181 6.183 L 32.181 6.842 A 2.463 2.463 0 0 1 31.748 6.922 A 2.157 2.157 0 0 1 31.557 6.93 Q 31.11 6.93 30.843 6.708 A 0.856 0.856 0 0 1 30.735 6.601 Q 30.508 6.33 30.467 5.872 A 2.351 2.351 0 0 1 30.458 5.665 L 30.458 2.716 L 29.593 2.716 L 29.593 2.087 L 30.458 2.087 L 30.458 0.936 Z M 79.462 2.061 L 79.462 2.817 A 2.251 2.251 0 0 0 79.219 2.79 A 2.782 2.782 0 0 0 79.062 2.786 Q 78.284 2.786 77.993 3.43 A 1.445 1.445 0 0 0 77.977 3.467 L 77.977 6.842 L 77.164 6.842 L 77.164 2.087 L 77.955 2.087 L 77.968 2.637 Q 78.348 2.031 79.031 2.001 A 1.636 1.636 0 0 1 79.102 2 Q 79.339 2 79.462 2.061 Z M 68.322 1.138 L 67.337 1.138 L 67.337 6.152 L 68.225 6.152 A 2.519 2.519 0 0 0 68.858 6.077 A 1.747 1.747 0 0 0 69.743 5.546 Q 70.203 5.033 70.273 4.151 A 4.165 4.165 0 0 0 70.286 3.819 L 70.286 3.445 Q 70.286 2.654 70.016 2.119 A 1.864 1.864 0 0 0 69.774 1.751 A 1.687 1.687 0 0 0 68.778 1.182 A 2.499 2.499 0 0 0 68.322 1.138 Z M 25.743 2.087 L 25.743 6.842 L 24.93 6.842 L 24.93 2.087 L 25.743 2.087 Z M 13.188 5.546 L 13.188 3.362 A 1.375 1.375 0 0 0 12.876 2.966 Q 12.552 2.689 12.067 2.689 A 1.238 1.238 0 0 0 11.641 2.76 A 1.068 1.068 0 0 0 11.136 3.151 A 1.51 1.51 0 0 0 10.927 3.577 Q 10.861 3.781 10.83 4.031 A 3.955 3.955 0 0 0 10.802 4.518 A 3.162 3.162 0 0 0 10.838 5.01 Q 10.879 5.271 10.967 5.481 A 1.474 1.474 0 0 0 11.136 5.783 A 1.06 1.06 0 0 0 11.898 6.231 A 1.391 1.391 0 0 0 12.059 6.24 Q 12.832 6.24 13.188 5.546 Z M 0.848 1.138 L 0.848 3.564 L 2.145 3.564 Q 2.685 3.564 3.035 3.324 A 1.174 1.174 0 0 0 3.144 3.239 A 1.069 1.069 0 0 0 3.51 2.501 A 1.486 1.486 0 0 0 3.516 2.369 Q 3.516 1.826 3.22 1.515 A 1 1 0 0 0 3.162 1.459 Q 2.808 1.143 2.14 1.138 L 0.848 1.138 Z M 36.308 1.138 L 36.308 3.564 L 37.604 3.564 Q 38.144 3.564 38.494 3.324 A 1.174 1.174 0 0 0 38.604 3.239 A 1.069 1.069 0 0 0 38.969 2.501 A 1.486 1.486 0 0 0 38.975 2.369 Q 38.975 1.826 38.679 1.515 A 1 1 0 0 0 38.621 1.459 Q 38.268 1.143 37.6 1.138 L 36.308 1.138 Z M 56.465 1.731 L 54.571 4.693 L 56.562 4.693 L 56.562 1.556 L 56.465 1.731 Z M 43.198 1.485 L 42.113 4.478 L 44.288 4.478 L 43.198 1.485 Z M 62.218 5.098 A 1.375 1.375 0 0 0 62.158 4.684 A 1.109 1.109 0 0 0 61.877 4.223 A 1.148 1.148 0 0 0 61.206 3.899 A 1.593 1.593 0 0 0 60.987 3.885 A 1.466 1.466 0 0 0 60.599 3.934 A 1.086 1.086 0 0 0 60.106 4.219 A 1.123 1.123 0 0 0 59.793 4.854 A 1.572 1.572 0 0 0 59.774 5.098 A 1.48 1.48 0 0 0 59.816 5.459 A 1.019 1.019 0 0 0 60.097 5.955 Q 60.403 6.25 60.936 6.266 A 2.053 2.053 0 0 0 60.996 6.267 Q 61.49 6.267 61.8 6.032 A 1.018 1.018 0 0 0 61.893 5.952 A 1.041 1.041 0 0 0 62.192 5.384 A 1.518 1.518 0 0 0 62.218 5.098 Z M 60.996 1.024 A 1.259 1.259 0 0 0 60.643 1.071 A 0.973 0.973 0 0 0 60.22 1.321 Q 59.924 1.617 59.924 2.127 A 1.325 1.325 0 0 0 59.968 2.48 A 0.994 0.994 0 0 0 60.216 2.916 A 0.974 0.974 0 0 0 60.778 3.2 A 1.382 1.382 0 0 0 60.996 3.217 A 1.279 1.279 0 0 0 61.341 3.173 A 0.952 0.952 0 0 0 61.776 2.916 A 1.018 1.018 0 0 0 62.051 2.352 A 1.426 1.426 0 0 0 62.068 2.127 A 1.282 1.282 0 0 0 62.018 1.76 A 1.013 1.013 0 0 0 61.765 1.332 Q 61.462 1.024 60.996 1.024 Z M 75.076 5.511 L 75.076 4.535 L 74.439 4.535 Q 72.945 4.535 72.945 5.41 Q 72.945 5.792 73.2 6.007 A 0.893 0.893 0 0 0 73.613 6.201 A 1.259 1.259 0 0 0 73.854 6.223 A 1.429 1.429 0 0 0 74.58 6.025 A 1.335 1.335 0 0 0 74.875 5.797 A 1.108 1.108 0 0 0 75.076 5.511 Z M 6.051 4.03 L 8.433 4.03 L 8.433 3.968 Q 8.407 3.509 8.236 3.204 A 1.13 1.13 0 0 0 8.099 3.008 A 0.983 0.983 0 0 0 7.445 2.676 A 1.39 1.39 0 0 0 7.291 2.667 A 1.106 1.106 0 0 0 6.768 2.79 A 1.14 1.14 0 0 0 6.464 3.026 A 1.417 1.417 0 0 0 6.188 3.472 Q 6.114 3.656 6.074 3.878 A 2.741 2.741 0 0 0 6.051 4.03 Z M 24.864 0.826 Q 24.864 0.628 24.985 0.492 Q 25.097 0.366 25.309 0.357 A 0.783 0.783 0 0 1 25.343 0.356 Q 25.581 0.356 25.704 0.492 A 0.474 0.474 0 0 1 25.826 0.796 A 0.614 0.614 0 0 1 25.827 0.826 A 0.523 0.523 0 0 1 25.801 0.992 A 0.442 0.442 0 0 1 25.704 1.156 Q 25.591 1.276 25.383 1.287 A 0.803 0.803 0 0 1 25.343 1.288 Q 25.171 1.288 25.06 1.218 A 0.362 0.362 0 0 1 24.985 1.156 A 0.456 0.456 0 0 1 24.867 0.88 A 0.605 0.605 0 0 1 24.864 0.826 Z" vector-effect="non-scaling-stroke"/></g>
</svg>