<?xml version="1.0" encoding="UTF-8"?>
<svg width="48px" height="48px" viewBox="0 0 48 48" version="1.1" xmlns="http://www.w3.org/2000/svg" xmlns:xlink="http://www.w3.org/1999/xlink">
    <title>Icon-Resource/Analytics/Res_Amazon-Redshift_Query-Editor-v2.0_48_Dark</title>
    <g id="Icon-Resource/Analytics/Res_Amazon-Redshift_Query-Editor-v2.0_48" stroke="none" stroke-width="1" fill="none" fill-rule="evenodd">
        <path transform="translate(12.000000, 8.000000), scale(.65)" d="M16,4 C24.029,4 29,6.076 29,8 C29,9.924 24.029,12 16,12 C8.122,12 4,9.988 4,8 C4,6.012 8.122,4 16,4 M16,44 C8.486,44 4,42.505 4,40 L4,33.438 C6.053,35.152 9.693,36 15,36 L15,34 C4,34 4,30.237 4,29 L4,21.438 C6.053,23.152 9.693,24 15,24 L15,22 C4,22 4,18.237 4,17 L4,11.408 C6.299,13.055 10.475,14 16,14 C21.118,14 26.268,13.127 29,11.243 L29,15 L31,15 L31,8 C31,3.855 23.466,2 16,2 C7.364,2 2,4.299 2,8 L2,40 C2,42.737 4.429,46 16,46 C22.104,46 26.202,45.296 28.528,43.849 L27.472,42.151 C25.5,43.378 21.641,44 16,44 M43.583,43.583 C43.303,43.863 42.973,44.045 42.678,44.083 C42.449,44.111 42.261,44.053 42.115,43.908 L35.931,37.579 C36.534,37.085 37.087,36.533 37.58,35.929 L43.914,42.093 C44.064,42.243 44.122,42.43 44.091,42.665 C44.051,42.966 43.865,43.301 43.583,43.583 M19,28.6 C19,23.306 23.307,19 28.6,19 C33.893,19 38.199,23.306 38.199,28.6 C38.199,33.893 33.893,38.199 28.6,38.199 C23.307,38.199 19,33.893 19,28.6 M45.318,40.669 L38.722,34.249 C39.659,32.575 40.199,30.65 40.199,28.6 C40.199,22.204 34.996,17 28.6,17 C22.203,17 17,22.204 17,28.6 C17,34.996 22.203,40.199 28.6,40.199 C30.651,40.199 32.577,39.659 34.251,38.72 L40.693,45.314 C41.2,45.821 41.854,46.09 42.563,46.09 C42.685,46.09 42.808,46.083 42.931,46.067 C43.667,45.973 44.401,45.593 44.997,44.998 C45.593,44.402 45.975,43.668 46.073,42.93 C46.187,42.073 45.923,41.273 45.318,40.669 M28.6,34 C25.571,34 23.199,31.628 23.199,28.6 C23.199,25.571 25.571,23.199 28.6,23.199 C31.628,23.199 34,25.571 34,28.6 C34,31.628 31.628,34 28.6,34 M28.6,21.199 C24.45,21.199 21.199,24.45 21.199,28.6 C21.199,32.75 24.45,36 28.6,36 C32.749,36 36,32.75 36,28.6 C36,24.45 32.749,21.199 28.6,21.199" id="Fill-6" fill="#000000"></path>
    </g><g transform="translate(25, 83)" id="svgGroup" stroke-linecap="round" fill-rule="evenodd" font-size="9pt" stroke="#000" stroke-width="0.25mm" fill="#000" style="stroke:#000;stroke-width:0.25mm;fill:#000"><path d="M 20.716 0.092 L 20.716 2.663 A 1.767 1.767 0 0 1 21.382 2.145 A 1.832 1.832 0 0 1 22.122 2 A 1.905 1.905 0 0 1 22.756 2.096 Q 23.597 2.392 23.64 3.598 A 3.668 3.668 0 0 1 23.643 3.7 L 23.643 6.842 L 22.83 6.842 L 22.83 3.696 A 1.837 1.837 0 0 0 22.807 3.416 Q 22.757 3.109 22.594 2.936 Q 22.408 2.737 22.055 2.699 A 1.66 1.66 0 0 0 21.876 2.689 A 1.253 1.253 0 0 0 21.462 2.756 A 1.123 1.123 0 0 0 21.182 2.9 A 1.432 1.432 0 0 0 20.716 3.454 L 20.716 6.842 L 19.903 6.842 L 19.903 0.092 L 20.716 0.092 Z M 3.74 6.842 L 2.351 4.254 L 0.848 4.254 L 0.848 6.842 L 0 6.842 L 0 0.444 L 2.118 0.444 A 3.809 3.809 0 0 1 2.76 0.494 Q 3.102 0.553 3.376 0.68 A 1.789 1.789 0 0 1 3.781 0.936 A 1.588 1.588 0 0 1 4.307 1.825 A 2.453 2.453 0 0 1 4.364 2.369 A 1.864 1.864 0 0 1 4.273 2.96 A 1.64 1.64 0 0 1 4.041 3.41 A 1.849 1.849 0 0 1 3.382 3.967 A 2.342 2.342 0 0 1 3.142 4.074 L 4.645 6.79 L 4.645 6.842 L 3.74 6.842 Z M 18.8 3.485 L 17.982 3.485 Q 17.982 3.151 17.699 2.909 Q 17.416 2.667 16.985 2.667 Q 16.541 2.667 16.291 2.861 A 0.653 0.653 0 0 0 16.115 3.059 Q 16.042 3.191 16.04 3.356 A 0.771 0.771 0 0 0 16.04 3.366 A 0.588 0.588 0 0 0 16.07 3.559 A 0.48 0.48 0 0 0 16.273 3.81 A 1.093 1.093 0 0 0 16.423 3.889 Q 16.587 3.96 16.843 4.029 A 6.581 6.581 0 0 0 17.115 4.096 A 6.318 6.318 0 0 1 17.522 4.2 Q 17.859 4.3 18.101 4.421 A 1.901 1.901 0 0 1 18.357 4.573 Q 18.494 4.671 18.591 4.785 A 1.06 1.06 0 0 1 18.661 4.876 A 1.024 1.024 0 0 1 18.824 5.283 A 1.388 1.388 0 0 1 18.844 5.524 Q 18.844 6.161 18.334 6.546 Q 17.852 6.91 17.098 6.929 A 3.337 3.337 0 0 1 17.011 6.93 A 2.746 2.746 0 0 1 16.477 6.88 A 2.124 2.124 0 0 1 16 6.728 A 1.771 1.771 0 0 1 15.567 6.45 A 1.54 1.54 0 0 1 15.313 6.163 Q 15.064 5.801 15.064 5.379 L 15.877 5.379 A 0.932 0.932 0 0 0 15.951 5.704 A 0.827 0.827 0 0 0 16.205 6.027 A 1.072 1.072 0 0 0 16.607 6.22 Q 16.761 6.259 16.943 6.265 A 2.013 2.013 0 0 0 17.011 6.267 A 1.863 1.863 0 0 0 17.307 6.245 Q 17.468 6.219 17.6 6.162 A 0.941 0.941 0 0 0 17.752 6.08 A 0.689 0.689 0 0 0 17.916 5.929 A 0.554 0.554 0 0 0 18.031 5.581 A 0.698 0.698 0 0 0 17.994 5.35 A 0.581 0.581 0 0 0 17.782 5.069 A 1.05 1.05 0 0 0 17.614 4.971 Q 17.425 4.88 17.13 4.805 A 5.392 5.392 0 0 0 16.917 4.755 A 6.342 6.342 0 0 1 16.556 4.667 Q 16.186 4.565 15.937 4.438 Q 15.638 4.286 15.467 4.086 A 1.017 1.017 0 0 1 15.401 3.999 Q 15.227 3.744 15.227 3.393 A 1.206 1.206 0 0 1 15.626 2.488 A 1.694 1.694 0 0 1 15.721 2.404 A 1.752 1.752 0 0 1 16.504 2.044 A 2.471 2.471 0 0 1 16.985 2 A 2.559 2.559 0 0 1 17.548 2.058 A 1.757 1.757 0 0 1 18.297 2.417 Q 18.8 2.834 18.8 3.485 Z M 54.747 2.087 L 55.934 5.651 L 57.041 2.087 L 57.911 2.087 L 56 7.576 Q 55.556 8.763 54.589 8.763 L 54.435 8.75 L 54.132 8.692 L 54.132 8.033 L 54.352 8.051 Q 54.631 8.051 54.828 7.974 A 0.75 0.75 0 0 0 54.995 7.884 A 0.749 0.749 0 0 0 55.155 7.722 Q 55.274 7.563 55.364 7.307 A 2.575 2.575 0 0 0 55.375 7.273 L 55.556 6.79 L 53.859 2.087 L 54.747 2.087 Z M 44.477 6.842 L 44.459 6.372 A 1.526 1.526 0 0 1 43.633 6.867 Q 43.383 6.928 43.086 6.93 A 2.996 2.996 0 0 1 43.066 6.93 A 2.086 2.086 0 0 1 42.607 6.883 Q 42.176 6.785 41.908 6.489 A 1.41 1.41 0 0 1 41.625 5.991 Q 41.509 5.648 41.506 5.181 L 41.506 2.087 L 42.319 2.087 L 42.319 5.159 Q 42.319 6.129 43.027 6.229 A 1.229 1.229 0 0 0 43.198 6.24 A 1.927 1.927 0 0 0 43.649 6.191 Q 44.212 6.056 44.438 5.546 L 44.438 2.087 L 45.25 2.087 L 45.25 6.842 L 44.477 6.842 Z M 40.351 3.441 L 40.351 3.85 A 4.899 4.899 0 0 1 40.296 4.599 Q 40.233 5.007 40.097 5.35 A 2.924 2.924 0 0 1 40.056 5.447 A 2.715 2.715 0 0 1 39.676 6.077 A 2.279 2.279 0 0 1 39.23 6.495 L 40.373 7.392 L 39.797 7.923 L 38.448 6.851 A 2.7 2.7 0 0 1 37.878 6.929 A 3.061 3.061 0 0 1 37.78 6.93 A 2.618 2.618 0 0 1 36.973 6.809 A 2.313 2.313 0 0 1 36.439 6.559 A 2.392 2.392 0 0 1 35.639 5.707 A 2.953 2.953 0 0 1 35.532 5.5 A 3.426 3.426 0 0 1 35.255 4.581 A 4.535 4.535 0 0 1 35.2 3.907 L 35.2 3.445 A 4.52 4.52 0 0 1 35.275 2.602 A 3.461 3.461 0 0 1 35.521 1.815 Q 35.842 1.107 36.428 0.732 A 2.389 2.389 0 0 1 37.585 0.362 A 2.92 2.92 0 0 1 37.771 0.356 A 2.712 2.712 0 0 1 38.54 0.461 A 2.308 2.308 0 0 1 39.131 0.729 A 2.338 2.338 0 0 1 39.917 1.573 A 2.923 2.923 0 0 1 40.034 1.804 A 3.471 3.471 0 0 1 40.29 2.667 A 4.722 4.722 0 0 1 40.351 3.441 Z M 9.989 4.487 L 9.989 4.425 A 3.762 3.762 0 0 1 10.056 3.694 Q 10.143 3.252 10.346 2.904 A 2.148 2.148 0 0 1 10.507 2.665 Q 11.026 2 11.865 2 A 1.964 1.964 0 0 1 12.463 2.086 A 1.559 1.559 0 0 1 13.188 2.571 L 13.188 0.092 L 14.001 0.092 L 14.001 6.842 L 13.254 6.842 L 13.214 6.333 Q 12.727 6.93 11.856 6.93 A 1.6 1.6 0 0 1 10.636 6.403 A 2.078 2.078 0 0 1 10.51 6.253 A 2.405 2.405 0 0 1 10.085 5.347 Q 10.001 5.004 9.99 4.603 A 4.425 4.425 0 0 1 9.989 4.487 Z M 5.212 4.597 L 5.212 4.447 A 3.17 3.17 0 0 1 5.288 3.738 A 2.581 2.581 0 0 1 5.482 3.184 A 2.191 2.191 0 0 1 5.93 2.558 A 2.033 2.033 0 0 1 6.238 2.314 Q 6.724 2 7.291 2 A 2.254 2.254 0 0 1 7.904 2.078 A 1.639 1.639 0 0 1 8.732 2.61 Q 9.246 3.221 9.246 4.359 L 9.246 4.698 L 6.025 4.698 A 2.111 2.111 0 0 0 6.096 5.206 A 1.516 1.516 0 0 0 6.436 5.834 A 1.282 1.282 0 0 0 7.37 6.265 A 1.652 1.652 0 0 0 7.436 6.267 A 1.763 1.763 0 0 0 7.764 6.238 Q 7.988 6.195 8.165 6.091 A 1.827 1.827 0 0 0 8.674 5.643 A 2.068 2.068 0 0 0 8.688 5.625 L 9.185 6.012 A 1.926 1.926 0 0 1 7.785 6.903 A 2.749 2.749 0 0 1 7.392 6.93 A 2.394 2.394 0 0 1 6.64 6.817 A 1.974 1.974 0 0 1 5.818 6.295 Q 5.212 5.66 5.212 4.597 Z M 46.279 4.597 L 46.279 4.447 A 3.17 3.17 0 0 1 46.355 3.738 A 2.581 2.581 0 0 1 46.549 3.184 A 2.191 2.191 0 0 1 46.997 2.558 A 2.033 2.033 0 0 1 47.305 2.314 Q 47.791 2 48.357 2 A 2.254 2.254 0 0 1 48.971 2.078 A 1.639 1.639 0 0 1 49.799 2.61 Q 50.313 3.221 50.313 4.359 L 50.313 4.698 L 47.092 4.698 A 2.111 2.111 0 0 0 47.163 5.206 A 1.516 1.516 0 0 0 47.503 5.834 A 1.282 1.282 0 0 0 48.437 6.265 A 1.652 1.652 0 0 0 48.502 6.267 A 1.763 1.763 0 0 0 48.831 6.238 Q 49.055 6.195 49.232 6.091 A 1.827 1.827 0 0 0 49.741 5.643 A 2.068 2.068 0 0 0 49.755 5.625 L 50.251 6.012 A 1.926 1.926 0 0 1 48.852 6.903 A 2.749 2.749 0 0 1 48.458 6.93 A 2.394 2.394 0 0 1 47.707 6.817 A 1.974 1.974 0 0 1 46.885 6.295 Q 46.279 5.66 46.279 4.597 Z M 28.257 6.842 L 27.444 6.842 L 27.444 2.716 L 26.692 2.716 L 26.692 2.087 L 27.444 2.087 L 27.444 1.6 Q 27.444 1.012 27.686 0.629 A 1.273 1.273 0 0 1 27.853 0.417 Q 28.261 0 29.008 0 A 2.134 2.134 0 0 1 29.566 0.075 L 29.522 0.734 Q 29.316 0.694 29.083 0.694 A 1.086 1.086 0 0 0 28.835 0.721 Q 28.614 0.773 28.472 0.925 A 0.747 0.747 0 0 0 28.306 1.221 Q 28.271 1.336 28.261 1.475 A 1.57 1.57 0 0 0 28.257 1.586 L 28.257 2.087 L 29.272 2.087 L 29.272 2.716 L 28.257 2.716 L 28.257 6.842 Z M 30.458 0.936 L 31.271 0.936 L 31.271 2.087 L 32.159 2.087 L 32.159 2.716 L 31.271 2.716 L 31.271 5.665 Q 31.271 5.95 31.39 6.093 Q 31.509 6.236 31.794 6.236 A 1.046 1.046 0 0 0 31.892 6.231 Q 31.995 6.221 32.134 6.193 A 4.024 4.024 0 0 0 32.181 6.183 L 32.181 6.842 A 2.463 2.463 0 0 1 31.748 6.922 A 2.157 2.157 0 0 1 31.557 6.93 Q 31.11 6.93 30.843 6.708 A 0.856 0.856 0 0 1 30.735 6.601 Q 30.508 6.33 30.467 5.872 A 2.351 2.351 0 0 1 30.458 5.665 L 30.458 2.716 L 29.593 2.716 L 29.593 2.087 L 30.458 2.087 L 30.458 0.936 Z M 53.552 2.061 L 53.552 2.817 A 2.251 2.251 0 0 0 53.309 2.79 A 2.782 2.782 0 0 0 53.152 2.786 Q 52.374 2.786 52.082 3.43 A 1.445 1.445 0 0 0 52.066 3.467 L 52.066 6.842 L 51.253 6.842 L 51.253 2.087 L 52.044 2.087 L 52.058 2.637 Q 52.438 2.031 53.121 2.001 A 1.636 1.636 0 0 1 53.191 2 Q 53.429 2 53.552 2.061 Z M 39.507 3.911 L 39.507 3.437 A 4.565 4.565 0 0 0 39.463 2.781 Q 39.414 2.448 39.313 2.177 A 1.982 1.982 0 0 0 39.056 1.694 A 1.453 1.453 0 0 0 37.998 1.093 A 2.071 2.071 0 0 0 37.771 1.081 Q 36.976 1.081 36.516 1.69 A 2.112 2.112 0 0 0 36.192 2.338 Q 36.104 2.619 36.068 2.956 A 4.531 4.531 0 0 0 36.044 3.379 L 36.044 3.85 A 4.249 4.249 0 0 0 36.096 4.535 Q 36.155 4.897 36.282 5.19 A 2.051 2.051 0 0 0 36.503 5.581 A 1.46 1.46 0 0 0 37.557 6.201 A 1.933 1.933 0 0 0 37.78 6.214 A 1.79 1.79 0 0 0 38.338 6.131 A 1.423 1.423 0 0 0 39.045 5.618 A 2.017 2.017 0 0 0 39.346 5.024 Q 39.499 4.554 39.507 3.911 Z M 25.743 2.087 L 25.743 6.842 L 24.93 6.842 L 24.93 2.087 L 25.743 2.087 Z M 13.188 5.546 L 13.188 3.362 A 1.375 1.375 0 0 0 12.876 2.966 Q 12.552 2.689 12.067 2.689 A 1.238 1.238 0 0 0 11.641 2.76 A 1.068 1.068 0 0 0 11.136 3.151 A 1.51 1.51 0 0 0 10.927 3.577 Q 10.861 3.781 10.83 4.031 A 3.955 3.955 0 0 0 10.802 4.518 A 3.162 3.162 0 0 0 10.838 5.01 Q 10.879 5.271 10.967 5.481 A 1.474 1.474 0 0 0 11.136 5.783 A 1.06 1.06 0 0 0 11.898 6.231 A 1.391 1.391 0 0 0 12.059 6.24 Q 12.832 6.24 13.188 5.546 Z M 0.848 1.138 L 0.848 3.564 L 2.145 3.564 Q 2.685 3.564 3.035 3.324 A 1.174 1.174 0 0 0 3.144 3.239 A 1.069 1.069 0 0 0 3.51 2.501 A 1.486 1.486 0 0 0 3.516 2.369 Q 3.516 1.826 3.22 1.515 A 1 1 0 0 0 3.162 1.459 Q 2.808 1.143 2.14 1.138 L 0.848 1.138 Z M 6.051 4.03 L 8.433 4.03 L 8.433 3.968 Q 8.407 3.509 8.236 3.204 A 1.13 1.13 0 0 0 8.099 3.008 A 0.983 0.983 0 0 0 7.445 2.676 A 1.39 1.39 0 0 0 7.291 2.667 A 1.106 1.106 0 0 0 6.768 2.79 A 1.14 1.14 0 0 0 6.464 3.026 A 1.417 1.417 0 0 0 6.188 3.472 Q 6.114 3.656 6.074 3.878 A 2.741 2.741 0 0 0 6.051 4.03 Z M 47.118 4.03 L 49.5 4.03 L 49.5 3.968 Q 49.474 3.509 49.303 3.204 A 1.13 1.13 0 0 0 49.166 3.008 A 0.983 0.983 0 0 0 48.512 2.676 A 1.39 1.39 0 0 0 48.357 2.667 A 1.106 1.106 0 0 0 47.835 2.79 A 1.14 1.14 0 0 0 47.531 3.026 A 1.417 1.417 0 0 0 47.255 3.472 Q 47.181 3.656 47.141 3.878 A 2.741 2.741 0 0 0 47.118 4.03 Z M 24.864 0.826 Q 24.864 0.628 24.985 0.492 Q 25.097 0.366 25.309 0.357 A 0.783 0.783 0 0 1 25.343 0.356 Q 25.581 0.356 25.704 0.492 A 0.474 0.474 0 0 1 25.826 0.796 A 0.614 0.614 0 0 1 25.827 0.826 A 0.523 0.523 0 0 1 25.801 0.992 A 0.442 0.442 0 0 1 25.704 1.156 Q 25.591 1.276 25.383 1.287 A 0.803 0.803 0 0 1 25.343 1.288 Q 25.171 1.288 25.06 1.218 A 0.362 0.362 0 0 1 24.985 1.156 A 0.456 0.456 0 0 1 24.867 0.88 A 0.605 0.605 0 0 1 24.864 0.826 Z" vector-effect="non-scaling-stroke"/></g><g transform="translate(25, 93)" id="svgGroup" stroke-linecap="round" fill-rule="evenodd" font-size="9pt" stroke="#000" stroke-width="0.25mm" fill="#000" style="stroke:#000;stroke-width:0.25mm;fill:#000"><path d="M 3.617 3.103 L 3.617 3.792 L 0.844 3.792 L 0.844 6.06 L 4.065 6.06 L 4.065 6.75 L 0 6.75 L 0 0.352 L 4.021 0.352 L 4.021 1.046 L 0.844 1.046 L 0.844 3.103 L 3.617 3.103 Z M 33.891 6.086 L 33.891 6.75 L 29.698 6.75 L 29.698 6.166 L 31.913 3.705 A 9.853 9.853 0 0 0 32.166 3.407 Q 32.404 3.115 32.537 2.894 A 2.159 2.159 0 0 0 32.592 2.797 Q 32.779 2.448 32.779 2.074 A 1.354 1.354 0 0 0 32.727 1.69 A 1.067 1.067 0 0 0 32.476 1.252 Q 32.172 0.932 31.667 0.932 A 1.71 1.71 0 0 0 31.282 0.972 Q 30.945 1.05 30.724 1.277 Q 30.405 1.605 30.389 2.177 A 2.18 2.18 0 0 0 30.388 2.237 L 29.575 2.237 Q 29.575 1.354 30.144 0.809 A 1.914 1.914 0 0 1 31.102 0.318 A 2.782 2.782 0 0 1 31.667 0.264 A 2.749 2.749 0 0 1 32.248 0.322 Q 32.626 0.403 32.911 0.6 A 1.626 1.626 0 0 1 33.078 0.732 A 1.546 1.546 0 0 1 33.586 1.765 A 2.151 2.151 0 0 1 33.596 1.978 A 1.917 1.917 0 0 1 33.456 2.666 Q 33.234 3.241 32.661 3.922 A 8.818 8.818 0 0 1 32.392 4.228 L 30.678 6.086 L 33.891 6.086 Z M 73.648 6.75 L 71.991 4.548 L 71.481 5.08 L 71.481 6.75 L 70.668 6.75 L 70.668 0 L 71.481 0 L 71.481 4.083 L 71.917 3.56 L 73.397 1.995 L 74.386 1.995 L 72.536 3.981 L 74.602 6.75 L 73.648 6.75 Z M 66.511 6.75 L 65.659 6.75 A 0.632 0.632 0 0 1 65.623 6.66 Q 65.592 6.562 65.567 6.41 A 3.997 3.997 0 0 1 65.544 6.249 Q 64.978 6.838 64.191 6.838 A 2.033 2.033 0 0 1 63.662 6.772 A 1.529 1.529 0 0 1 63.037 6.44 Q 62.587 6.042 62.587 5.432 Q 62.587 4.689 63.152 4.278 Q 63.716 3.867 64.74 3.867 L 65.531 3.867 L 65.531 3.494 A 1.152 1.152 0 0 0 65.496 3.199 A 0.828 0.828 0 0 0 65.276 2.815 Q 65.06 2.6 64.67 2.568 A 1.748 1.748 0 0 0 64.525 2.562 Q 64.09 2.562 63.795 2.782 Q 63.501 3.001 63.501 3.313 L 62.684 3.313 A 1.041 1.041 0 0 1 62.809 2.825 A 1.409 1.409 0 0 1 62.936 2.626 Q 63.189 2.294 63.622 2.101 A 2.249 2.249 0 0 1 64.398 1.913 A 2.669 2.669 0 0 1 64.573 1.907 A 2.65 2.65 0 0 1 65.091 1.955 Q 65.398 2.016 65.637 2.156 A 1.439 1.439 0 0 1 65.861 2.318 A 1.396 1.396 0 0 1 66.314 3.144 A 1.998 1.998 0 0 1 66.344 3.45 L 66.344 5.638 Q 66.344 6.073 66.418 6.39 A 1.707 1.707 0 0 0 66.511 6.68 L 66.511 6.75 Z M 4.707 4.395 L 4.707 4.333 A 3.762 3.762 0 0 1 4.774 3.602 Q 4.861 3.16 5.064 2.812 A 2.148 2.148 0 0 1 5.225 2.573 Q 5.744 1.907 6.583 1.907 A 1.964 1.964 0 0 1 7.181 1.994 A 1.559 1.559 0 0 1 7.906 2.479 L 7.906 0 L 8.719 0 L 8.719 6.75 L 7.972 6.75 L 7.932 6.24 Q 7.444 6.838 6.574 6.838 A 1.6 1.6 0 0 1 5.354 6.31 A 2.078 2.078 0 0 1 5.227 6.161 A 2.405 2.405 0 0 1 4.803 5.255 Q 4.719 4.912 4.708 4.51 A 4.425 4.425 0 0 1 4.707 4.395 Z M 25.783 1.995 L 26.991 5.647 L 28.169 1.995 L 29 1.995 L 27.294 6.75 L 26.675 6.75 L 24.952 1.995 L 25.783 1.995 Z M 47.834 0.352 L 47.834 4.601 L 48.722 4.601 L 48.722 5.265 L 47.834 5.265 L 47.834 6.75 L 47.017 6.75 L 47.017 5.265 L 44.104 5.265 L 44.104 4.786 L 46.969 0.352 L 47.834 0.352 Z M 58.72 6.75 L 56.949 6.75 L 56.949 0.352 L 58.755 0.352 Q 59.59 0.352 60.231 0.721 Q 60.873 1.09 61.222 1.771 A 3.19 3.19 0 0 1 61.539 2.8 A 4.073 4.073 0 0 1 61.576 3.335 L 61.576 3.744 Q 61.576 4.649 61.227 5.331 A 2.457 2.457 0 0 1 60.229 6.376 Q 59.581 6.741 58.72 6.75 Z M 53.233 2.592 A 1.544 1.544 0 0 0 53.336 2.021 A 2.226 2.226 0 0 0 53.315 1.707 A 1.566 1.566 0 0 0 52.816 0.738 A 1.754 1.754 0 0 0 52.05 0.333 A 2.443 2.443 0 0 0 51.451 0.264 A 2.539 2.539 0 0 0 50.942 0.312 A 1.767 1.767 0 0 0 50.084 0.738 Q 49.566 1.213 49.566 2.021 A 1.808 1.808 0 0 0 49.566 2.058 A 1.499 1.499 0 0 0 49.812 2.87 A 1.626 1.626 0 0 0 49.974 3.077 A 1.726 1.726 0 0 0 50.484 3.454 A 2.119 2.119 0 0 0 50.385 3.5 A 1.738 1.738 0 0 0 49.7 4.087 A 1.629 1.629 0 0 0 49.417 5.023 A 2.272 2.272 0 0 0 49.426 5.237 A 1.63 1.63 0 0 0 49.972 6.344 A 1.895 1.895 0 0 0 50.823 6.771 A 2.797 2.797 0 0 0 51.451 6.838 A 2.796 2.796 0 0 0 52.05 6.777 A 1.925 1.925 0 0 0 52.926 6.346 A 1.578 1.578 0 0 0 53.4 5.62 A 1.989 1.989 0 0 0 53.486 5.023 A 1.581 1.581 0 0 0 53.194 4.087 Q 52.901 3.674 52.4 3.458 Q 52.831 3.248 53.084 2.874 A 1.449 1.449 0 0 0 53.233 2.592 Z M 12.454 0.844 L 13.267 0.844 L 13.267 1.995 L 14.155 1.995 L 14.155 2.624 L 13.267 2.624 L 13.267 5.572 Q 13.267 5.858 13.386 6.001 Q 13.504 6.144 13.79 6.144 A 1.046 1.046 0 0 0 13.888 6.138 Q 13.99 6.129 14.13 6.101 A 4.024 4.024 0 0 0 14.177 6.091 L 14.177 6.75 A 2.463 2.463 0 0 1 13.744 6.829 A 2.157 2.157 0 0 1 13.553 6.838 Q 13.106 6.838 12.839 6.616 A 0.856 0.856 0 0 1 12.731 6.508 Q 12.504 6.238 12.463 5.78 A 2.351 2.351 0 0 1 12.454 5.572 L 12.454 2.624 L 11.588 2.624 L 11.588 1.995 L 12.454 1.995 L 12.454 0.844 Z M 41.133 2.966 L 41.133 4.021 A 6.701 6.701 0 0 1 41.094 4.766 Q 40.996 5.645 40.645 6.144 A 1.574 1.574 0 0 1 39.646 6.786 A 2.513 2.513 0 0 1 39.12 6.838 A 2.447 2.447 0 0 1 38.532 6.772 A 1.572 1.572 0 0 1 37.604 6.159 A 2.245 2.245 0 0 1 37.302 5.555 Q 37.111 4.992 37.095 4.183 A 7.419 7.419 0 0 1 37.094 4.131 L 37.094 3.045 A 6.537 6.537 0 0 1 37.133 2.309 Q 37.231 1.442 37.582 0.949 A 1.567 1.567 0 0 1 38.542 0.324 A 2.52 2.52 0 0 1 39.111 0.264 A 2.541 2.541 0 0 1 39.704 0.328 Q 40.134 0.431 40.429 0.7 A 1.537 1.537 0 0 1 40.632 0.925 A 2.109 2.109 0 0 1 40.921 1.493 Q 41.111 2.044 41.131 2.854 A 7.66 7.66 0 0 1 41.133 2.966 Z M 14.801 4.386 L 14.801 4.329 A 3.057 3.057 0 0 1 14.888 3.587 A 2.573 2.573 0 0 1 15.075 3.072 A 2.16 2.16 0 0 1 15.49 2.486 A 1.957 1.957 0 0 1 15.84 2.21 A 2.036 2.036 0 0 1 16.784 1.913 A 2.491 2.491 0 0 1 16.958 1.907 A 2.277 2.277 0 0 1 17.712 2.027 A 1.937 1.937 0 0 1 18.53 2.58 A 2.29 2.29 0 0 1 19.049 3.608 A 3.373 3.373 0 0 1 19.129 4.368 L 19.129 4.425 A 3.114 3.114 0 0 1 19.05 5.142 A 2.577 2.577 0 0 1 18.864 5.671 A 2.056 2.056 0 0 1 18.336 6.361 A 2.001 2.001 0 0 1 18.103 6.53 A 2.045 2.045 0 0 1 17.183 6.829 A 2.529 2.529 0 0 1 16.967 6.838 A 2.262 2.262 0 0 1 16.217 6.718 A 1.938 1.938 0 0 1 15.401 6.166 A 2.297 2.297 0 0 1 14.875 5.111 A 3.357 3.357 0 0 1 14.801 4.386 Z M 22.447 1.969 L 22.447 2.725 A 2.251 2.251 0 0 0 22.205 2.698 A 2.782 2.782 0 0 0 22.047 2.694 Q 21.27 2.694 20.978 3.338 A 1.445 1.445 0 0 0 20.962 3.375 L 20.962 6.75 L 20.149 6.75 L 20.149 1.995 L 20.94 1.995 L 20.953 2.544 Q 21.334 1.938 22.016 1.909 A 1.636 1.636 0 0 1 22.087 1.907 Q 22.324 1.907 22.447 1.969 Z M 69.917 1.969 L 69.917 2.725 A 2.251 2.251 0 0 0 69.674 2.698 A 2.782 2.782 0 0 0 69.517 2.694 Q 68.739 2.694 68.448 3.338 A 1.445 1.445 0 0 0 68.432 3.375 L 68.432 6.75 L 67.619 6.75 L 67.619 1.995 L 68.41 1.995 L 68.423 2.544 Q 68.803 1.938 69.486 1.909 A 1.636 1.636 0 0 1 69.557 1.907 Q 69.794 1.907 69.917 1.969 Z M 58.777 1.046 L 57.792 1.046 L 57.792 6.06 L 58.68 6.06 A 2.519 2.519 0 0 0 59.313 5.985 A 1.747 1.747 0 0 0 60.198 5.454 Q 60.658 4.94 60.728 4.059 A 4.165 4.165 0 0 0 60.741 3.727 L 60.741 3.353 Q 60.741 2.562 60.472 2.027 A 1.864 1.864 0 0 0 60.229 1.659 A 1.687 1.687 0 0 0 59.233 1.09 A 2.499 2.499 0 0 0 58.777 1.046 Z M 40.32 4.241 L 40.32 2.909 A 5.845 5.845 0 0 0 40.298 2.386 Q 40.251 1.869 40.104 1.546 A 1.291 1.291 0 0 0 40.03 1.404 A 0.948 0.948 0 0 0 39.339 0.949 A 1.44 1.44 0 0 0 39.111 0.932 A 1.299 1.299 0 0 0 38.746 0.98 A 0.921 0.921 0 0 0 38.202 1.402 Q 37.943 1.828 37.911 2.668 A 6.284 6.284 0 0 0 37.907 2.848 L 37.907 4.148 A 5.693 5.693 0 0 0 37.931 4.689 Q 37.983 5.229 38.147 5.566 A 1.358 1.358 0 0 0 38.208 5.68 A 1.014 1.014 0 0 0 38.552 6.031 Q 38.791 6.174 39.12 6.174 A 1.223 1.223 0 0 0 39.496 6.12 A 0.938 0.938 0 0 0 40.014 5.708 A 1.555 1.555 0 0 0 40.176 5.346 Q 40.311 4.914 40.32 4.241 Z M 10.863 1.995 L 10.863 6.75 L 10.05 6.75 L 10.05 1.995 L 10.863 1.995 Z M 15.618 4.425 A 2.772 2.772 0 0 0 15.666 4.954 Q 15.726 5.264 15.863 5.51 A 1.545 1.545 0 0 0 15.985 5.695 Q 16.352 6.174 16.967 6.174 A 1.269 1.269 0 0 0 17.457 6.083 Q 17.736 5.967 17.939 5.706 A 1.471 1.471 0 0 0 17.952 5.689 A 1.648 1.648 0 0 0 18.207 5.171 Q 18.275 4.945 18.301 4.672 A 3.655 3.655 0 0 0 18.316 4.329 A 2.687 2.687 0 0 0 18.265 3.789 Q 18.198 3.459 18.04 3.2 A 1.586 1.586 0 0 0 17.945 3.061 A 1.231 1.231 0 0 0 17.53 2.705 Q 17.277 2.575 16.958 2.575 Q 16.369 2.575 16.002 3.035 A 1.515 1.515 0 0 0 15.987 3.054 A 1.589 1.589 0 0 0 15.735 3.552 Q 15.666 3.772 15.637 4.039 A 3.676 3.676 0 0 0 15.618 4.425 Z M 7.906 5.454 L 7.906 3.27 A 1.375 1.375 0 0 0 7.594 2.874 Q 7.27 2.597 6.785 2.597 A 1.238 1.238 0 0 0 6.358 2.668 A 1.068 1.068 0 0 0 5.854 3.059 A 1.51 1.51 0 0 0 5.644 3.484 Q 5.579 3.689 5.547 3.939 A 3.955 3.955 0 0 0 5.52 4.425 A 3.162 3.162 0 0 0 5.555 4.918 Q 5.597 5.178 5.685 5.389 A 1.474 1.474 0 0 0 5.854 5.691 A 1.06 1.06 0 0 0 6.616 6.139 A 1.391 1.391 0 0 0 6.776 6.148 Q 7.55 6.148 7.906 5.454 Z M 46.92 1.639 L 45.026 4.601 L 47.017 4.601 L 47.017 1.463 L 46.92 1.639 Z M 52.673 5.005 A 1.375 1.375 0 0 0 52.613 4.592 A 1.109 1.109 0 0 0 52.332 4.131 A 1.148 1.148 0 0 0 51.661 3.807 A 1.593 1.593 0 0 0 51.442 3.792 A 1.466 1.466 0 0 0 51.054 3.841 A 1.086 1.086 0 0 0 50.561 4.126 A 1.123 1.123 0 0 0 50.248 4.762 A 1.572 1.572 0 0 0 50.229 5.005 A 1.48 1.48 0 0 0 50.271 5.367 A 1.019 1.019 0 0 0 50.552 5.862 Q 50.859 6.158 51.392 6.173 A 2.053 2.053 0 0 0 51.451 6.174 Q 51.945 6.174 52.255 5.94 A 1.018 1.018 0 0 0 52.348 5.86 A 1.041 1.041 0 0 0 52.647 5.292 A 1.518 1.518 0 0 0 52.673 5.005 Z M 51.451 0.932 A 1.259 1.259 0 0 0 51.098 0.979 A 0.973 0.973 0 0 0 50.676 1.228 Q 50.379 1.525 50.379 2.035 A 1.325 1.325 0 0 0 50.423 2.387 A 0.994 0.994 0 0 0 50.671 2.823 A 0.974 0.974 0 0 0 51.233 3.108 A 1.382 1.382 0 0 0 51.451 3.125 A 1.279 1.279 0 0 0 51.796 3.08 A 0.952 0.952 0 0 0 52.231 2.823 A 1.018 1.018 0 0 0 52.506 2.26 A 1.426 1.426 0 0 0 52.523 2.035 A 1.282 1.282 0 0 0 52.473 1.668 A 1.013 1.013 0 0 0 52.22 1.239 Q 51.917 0.932 51.451 0.932 Z M 65.531 5.418 L 65.531 4.443 L 64.894 4.443 Q 63.4 4.443 63.4 5.317 Q 63.4 5.7 63.655 5.915 A 0.893 0.893 0 0 0 64.068 6.108 A 1.259 1.259 0 0 0 64.31 6.13 A 1.429 1.429 0 0 0 65.035 5.933 A 1.335 1.335 0 0 0 65.33 5.705 A 1.108 1.108 0 0 0 65.531 5.418 Z M 34.877 6.153 A 0.586 0.586 0 0 0 34.853 6.324 A 0.619 0.619 0 0 0 34.855 6.367 A 0.471 0.471 0 0 0 34.978 6.662 Q 35.064 6.756 35.21 6.785 A 0.732 0.732 0 0 0 35.354 6.798 A 0.851 0.851 0 0 0 35.407 6.797 Q 35.485 6.792 35.55 6.772 A 0.413 0.413 0 0 0 35.734 6.662 Q 35.864 6.526 35.864 6.324 A 0.644 0.644 0 0 0 35.861 6.269 A 0.486 0.486 0 0 0 35.734 5.972 A 0.391 0.391 0 0 0 35.663 5.912 Q 35.594 5.866 35.502 5.846 A 0.712 0.712 0 0 0 35.354 5.832 Q 35.104 5.832 34.978 5.972 A 0.477 0.477 0 0 0 34.877 6.153 Z M 9.984 0.734 Q 9.984 0.536 10.105 0.4 Q 10.217 0.274 10.429 0.264 A 0.783 0.783 0 0 1 10.463 0.264 Q 10.701 0.264 10.824 0.4 A 0.474 0.474 0 0 1 10.946 0.703 A 0.614 0.614 0 0 1 10.947 0.734 A 0.523 0.523 0 0 1 10.922 0.9 A 0.442 0.442 0 0 1 10.824 1.063 Q 10.711 1.184 10.503 1.194 A 0.803 0.803 0 0 1 10.463 1.195 Q 10.291 1.195 10.18 1.126 A 0.362 0.362 0 0 1 10.105 1.063 A 0.456 0.456 0 0 1 9.987 0.788 A 0.605 0.605 0 0 1 9.984 0.734 Z" vector-effect="non-scaling-stroke"/></g>
</svgversion="1.0" encoding="UTF-8"?>
<svg width="48px" height="48px" viewBox="0 0 48 48" version="1.1" xmlns="http://www.w3.org/2000/svg" xmlns:xlink="http://www.w3.org/1999/xlink">
    <title>Icon-Resource/Analytics/Res_Amazon-Redshift_Query-Editor-v2.0_48_Dark</title>
    <g id="Icon-Resource/Analytics/Res_Amazon-Redshift_Query-Editor-v2.0_48" stroke="none" stroke-width="1" fill="none" fill-rule="evenodd">
        <path transform="translate(12.000000, 8.000000), scale(.65)" d="M16,4 C24.029,4 29,6.076 29,8 C29,9.924 24.029,12 16,12 C8.122,12 4,9.988 4,8 C4,6.012 8.122,4 16,4 M16,44 C8.486,44 4,42.505 4,40 L4,33.438 C6.053,35.152 9.693,36 15,36 L15,34 C4,34 4,30.237 4,29 L4,21.438 C6.053,23.152 9.693,24 15,24 L15,22 C4,22 4,18.237 4,17 L4,11.408 C6.299,13.055 10.475,14 16,14 C21.118,14 26.268,13.127 29,11.243 L29,15 L31,15 L31,8 C31,3.855 23.466,2 16,2 C7.364,2 2,4.299 2,8 L2,40 C2,42.737 4.429,46 16,46 C22.104,46 26.202,45.296 28.528,43.849 L27.472,42.151 C25.5,43.378 21.641,44 16,44 M43.583,43.583 C43.303,43.863 42.973,44.045 42.678,44.083 C42.449,44.111 42.261,44.053 42.115,43.908 L35.931,37.579 C36.534,37.085 37.087,36.533 37.58,35.929 L43.914,42.093 C44.064,42.243 44.122,42.43 44.091,42.665 C44.051,42.966 43.865,43.301 43.583,43.583 M19,28.6 C19,23.306 23.307,19 28.6,19 C33.893,19 38.199,23.306 38.199,28.6 C38.199,33.893 33.893,38.199 28.6,38.199 C23.307,38.199 19,33.893 19,28.6 M45.318,40.669 L38.722,34.249 C39.659,32.575 40.199,30.65 40.199,28.6 C40.199,22.204 34.996,17 28.6,17 C22.203,17 17,22.204 17,28.6 C17,34.996 22.203,40.199 28.6,40.199 C30.651,40.199 32.577,39.659 34.251,38.72 L40.693,45.314 C41.2,45.821 41.854,46.09 42.563,46.09 C42.685,46.09 42.808,46.083 42.931,46.067 C43.667,45.973 44.401,45.593 44.997,44.998 C45.593,44.402 45.975,43.668 46.073,42.93 C46.187,42.073 45.923,41.273 45.318,40.669 M28.6,34 C25.571,34 23.199,31.628 23.199,28.6 C23.199,25.571 25.571,23.199 28.6,23.199 C31.628,23.199 34,25.571 34,28.6 C34,31.628 31.628,34 28.6,34 M28.6,21.199 C24.45,21.199 21.199,24.45 21.199,28.6 C21.199,32.75 24.45,36 28.6,36 C32.749,36 36,32.75 36,28.6 C36,24.45 32.749,21.199 28.6,21.199" id="Fill-6" fill="#000000"></path>
    </g><g transform="translate(25, 83)" id="svgGroup" stroke-linecap="round" fill-rule="evenodd" font-size="9pt" stroke="#000" stroke-width="0.25mm" fill="#000" style="stroke:#000;stroke-width:0.25mm;fill:#000"><path d="M 20.716 0.092 L 20.716 2.663 A 1.767 1.767 0 0 1 21.382 2.145 A 1.832 1.832 0 0 1 22.122 2 A 1.905 1.905 0 0 1 22.756 2.096 Q 23.597 2.392 23.64 3.598 A 3.668 3.668 0 0 1 23.643 3.7 L 23.643 6.842 L 22.83 6.842 L 22.83 3.696 A 1.837 1.837 0 0 0 22.807 3.416 Q 22.757 3.109 22.594 2.936 Q 22.408 2.737 22.055 2.699 A 1.66 1.66 0 0 0 21.876 2.689 A 1.253 1.253 0 0 0 21.462 2.756 A 1.123 1.123 0 0 0 21.182 2.9 A 1.432 1.432 0 0 0 20.716 3.454 L 20.716 6.842 L 19.903 6.842 L 19.903 0.092 L 20.716 0.092 Z M 3.74 6.842 L 2.351 4.254 L 0.848 4.254 L 0.848 6.842 L 0 6.842 L 0 0.444 L 2.118 0.444 A 3.809 3.809 0 0 1 2.76 0.494 Q 3.102 0.553 3.376 0.68 A 1.789 1.789 0 0 1 3.781 0.936 A 1.588 1.588 0 0 1 4.307 1.825 A 2.453 2.453 0 0 1 4.364 2.369 A 1.864 1.864 0 0 1 4.273 2.96 A 1.64 1.64 0 0 1 4.041 3.41 A 1.849 1.849 0 0 1 3.382 3.967 A 2.342 2.342 0 0 1 3.142 4.074 L 4.645 6.79 L 4.645 6.842 L 3.74 6.842 Z M 18.8 3.485 L 17.982 3.485 Q 17.982 3.151 17.699 2.909 Q 17.416 2.667 16.985 2.667 Q 16.541 2.667 16.291 2.861 A 0.653 0.653 0 0 0 16.115 3.059 Q 16.042 3.191 16.04 3.356 A 0.771 0.771 0 0 0 16.04 3.366 A 0.588 0.588 0 0 0 16.07 3.559 A 0.48 0.48 0 0 0 16.273 3.81 A 1.093 1.093 0 0 0 16.423 3.889 Q 16.587 3.96 16.843 4.029 A 6.581 6.581 0 0 0 17.115 4.096 A 6.318 6.318 0 0 1 17.522 4.2 Q 17.859 4.3 18.101 4.421 A 1.901 1.901 0 0 1 18.357 4.573 Q 18.494 4.671 18.591 4.785 A 1.06 1.06 0 0 1 18.661 4.876 A 1.024 1.024 0 0 1 18.824 5.283 A 1.388 1.388 0 0 1 18.844 5.524 Q 18.844 6.161 18.334 6.546 Q 17.852 6.91 17.098 6.929 A 3.337 3.337 0 0 1 17.011 6.93 A 2.746 2.746 0 0 1 16.477 6.88 A 2.124 2.124 0 0 1 16 6.728 A 1.771 1.771 0 0 1 15.567 6.45 A 1.54 1.54 0 0 1 15.313 6.163 Q 15.064 5.801 15.064 5.379 L 15.877 5.379 A 0.932 0.932 0 0 0 15.951 5.704 A 0.827 0.827 0 0 0 16.205 6.027 A 1.072 1.072 0 0 0 16.607 6.22 Q 16.761 6.259 16.943 6.265 A 2.013 2.013 0 0 0 17.011 6.267 A 1.863 1.863 0 0 0 17.307 6.245 Q 17.468 6.219 17.6 6.162 A 0.941 0.941 0 0 0 17.752 6.08 A 0.689 0.689 0 0 0 17.916 5.929 A 0.554 0.554 0 0 0 18.031 5.581 A 0.698 0.698 0 0 0 17.994 5.35 A 0.581 0.581 0 0 0 17.782 5.069 A 1.05 1.05 0 0 0 17.614 4.971 Q 17.425 4.88 17.13 4.805 A 5.392 5.392 0 0 0 16.917 4.755 A 6.342 6.342 0 0 1 16.556 4.667 Q 16.186 4.565 15.937 4.438 Q 15.638 4.286 15.467 4.086 A 1.017 1.017 0 0 1 15.401 3.999 Q 15.227 3.744 15.227 3.393 A 1.206 1.206 0 0 1 15.626 2.488 A 1.694 1.694 0 0 1 15.721 2.404 A 1.752 1.752 0 0 1 16.504 2.044 A 2.471 2.471 0 0 1 16.985 2 A 2.559 2.559 0 0 1 17.548 2.058 A 1.757 1.757 0 0 1 18.297 2.417 Q 18.8 2.834 18.8 3.485 Z M 54.747 2.087 L 55.934 5.651 L 57.041 2.087 L 57.911 2.087 L 56 7.576 Q 55.556 8.763 54.589 8.763 L 54.435 8.75 L 54.132 8.692 L 54.132 8.033 L 54.352 8.051 Q 54.631 8.051 54.828 7.974 A 0.75 0.75 0 0 0 54.995 7.884 A 0.749 0.749 0 0 0 55.155 7.722 Q 55.274 7.563 55.364 7.307 A 2.575 2.575 0 0 0 55.375 7.273 L 55.556 6.79 L 53.859 2.087 L 54.747 2.087 Z M 44.477 6.842 L 44.459 6.372 A 1.526 1.526 0 0 1 43.633 6.867 Q 43.383 6.928 43.086 6.93 A 2.996 2.996 0 0 1 43.066 6.93 A 2.086 2.086 0 0 1 42.607 6.883 Q 42.176 6.785 41.908 6.489 A 1.41 1.41 0 0 1 41.625 5.991 Q 41.509 5.648 41.506 5.181 L 41.506 2.087 L 42.319 2.087 L 42.319 5.159 Q 42.319 6.129 43.027 6.229 A 1.229 1.229 0 0 0 43.198 6.24 A 1.927 1.927 0 0 0 43.649 6.191 Q 44.212 6.056 44.438 5.546 L 44.438 2.087 L 45.25 2.087 L 45.25 6.842 L 44.477 6.842 Z M 40.351 3.441 L 40.351 3.85 A 4.899 4.899 0 0 1 40.296 4.599 Q 40.233 5.007 40.097 5.35 A 2.924 2.924 0 0 1 40.056 5.447 A 2.715 2.715 0 0 1 39.676 6.077 A 2.279 2.279 0 0 1 39.23 6.495 L 40.373 7.392 L 39.797 7.923 L 38.448 6.851 A 2.7 2.7 0 0 1 37.878 6.929 A 3.061 3.061 0 0 1 37.78 6.93 A 2.618 2.618 0 0 1 36.973 6.809 A 2.313 2.313 0 0 1 36.439 6.559 A 2.392 2.392 0 0 1 35.639 5.707 A 2.953 2.953 0 0 1 35.532 5.5 A 3.426 3.426 0 0 1 35.255 4.581 A 4.535 4.535 0 0 1 35.2 3.907 L 35.2 3.445 A 4.52 4.52 0 0 1 35.275 2.602 A 3.461 3.461 0 0 1 35.521 1.815 Q 35.842 1.107 36.428 0.732 A 2.389 2.389 0 0 1 37.585 0.362 A 2.92 2.92 0 0 1 37.771 0.356 A 2.712 2.712 0 0 1 38.54 0.461 A 2.308 2.308 0 0 1 39.131 0.729 A 2.338 2.338 0 0 1 39.917 1.573 A 2.923 2.923 0 0 1 40.034 1.804 A 3.471 3.471 0 0 1 40.29 2.667 A 4.722 4.722 0 0 1 40.351 3.441 Z M 9.989 4.487 L 9.989 4.425 A 3.762 3.762 0 0 1 10.056 3.694 Q 10.143 3.252 10.346 2.904 A 2.148 2.148 0 0 1 10.507 2.665 Q 11.026 2 11.865 2 A 1.964 1.964 0 0 1 12.463 2.086 A 1.559 1.559 0 0 1 13.188 2.571 L 13.188 0.092 L 14.001 0.092 L 14.001 6.842 L 13.254 6.842 L 13.214 6.333 Q 12.727 6.93 11.856 6.93 A 1.6 1.6 0 0 1 10.636 6.403 A 2.078 2.078 0 0 1 10.51 6.253 A 2.405 2.405 0 0 1 10.085 5.347 Q 10.001 5.004 9.99 4.603 A 4.425 4.425 0 0 1 9.989 4.487 Z M 5.212 4.597 L 5.212 4.447 A 3.17 3.17 0 0 1 5.288 3.738 A 2.581 2.581 0 0 1 5.482 3.184 A 2.191 2.191 0 0 1 5.93 2.558 A 2.033 2.033 0 0 1 6.238 2.314 Q 6.724 2 7.291 2 A 2.254 2.254 0 0 1 7.904 2.078 A 1.639 1.639 0 0 1 8.732 2.61 Q 9.246 3.221 9.246 4.359 L 9.246 4.698 L 6.025 4.698 A 2.111 2.111 0 0 0 6.096 5.206 A 1.516 1.516 0 0 0 6.436 5.834 A 1.282 1.282 0 0 0 7.37 6.265 A 1.652 1.652 0 0 0 7.436 6.267 A 1.763 1.763 0 0 0 7.764 6.238 Q 7.988 6.195 8.165 6.091 A 1.827 1.827 0 0 0 8.674 5.643 A 2.068 2.068 0 0 0 8.688 5.625 L 9.185 6.012 A 1.926 1.926 0 0 1 7.785 6.903 A 2.749 2.749 0 0 1 7.392 6.93 A 2.394 2.394 0 0 1 6.64 6.817 A 1.974 1.974 0 0 1 5.818 6.295 Q 5.212 5.66 5.212 4.597 Z M 46.279 4.597 L 46.279 4.447 A 3.17 3.17 0 0 1 46.355 3.738 A 2.581 2.581 0 0 1 46.549 3.184 A 2.191 2.191 0 0 1 46.997 2.558 A 2.033 2.033 0 0 1 47.305 2.314 Q 47.791 2 48.357 2 A 2.254 2.254 0 0 1 48.971 2.078 A 1.639 1.639 0 0 1 49.799 2.61 Q 50.313 3.221 50.313 4.359 L 50.313 4.698 L 47.092 4.698 A 2.111 2.111 0 0 0 47.163 5.206 A 1.516 1.516 0 0 0 47.503 5.834 A 1.282 1.282 0 0 0 48.437 6.265 A 1.652 1.652 0 0 0 48.502 6.267 A 1.763 1.763 0 0 0 48.831 6.238 Q 49.055 6.195 49.232 6.091 A 1.827 1.827 0 0 0 49.741 5.643 A 2.068 2.068 0 0 0 49.755 5.625 L 50.251 6.012 A 1.926 1.926 0 0 1 48.852 6.903 A 2.749 2.749 0 0 1 48.458 6.93 A 2.394 2.394 0 0 1 47.707 6.817 A 1.974 1.974 0 0 1 46.885 6.295 Q 46.279 5.66 46.279 4.597 Z M 28.257 6.842 L 27.444 6.842 L 27.444 2.716 L 26.692 2.716 L 26.692 2.087 L 27.444 2.087 L 27.444 1.6 Q 27.444 1.012 27.686 0.629 A 1.273 1.273 0 0 1 27.853 0.417 Q 28.261 0 29.008 0 A 2.134 2.134 0 0 1 29.566 0.075 L 29.522 0.734 Q 29.316 0.694 29.083 0.694 A 1.086 1.086 0 0 0 28.835 0.721 Q 28.614 0.773 28.472 0.925 A 0.747 0.747 0 0 0 28.306 1.221 Q 28.271 1.336 28.261 1.475 A 1.57 1.57 0 0 0 28.257 1.586 L 28.257 2.087 L 29.272 2.087 L 29.272 2.716 L 28.257 2.716 L 28.257 6.842 Z M 30.458 0.936 L 31.271 0.936 L 31.271 2.087 L 32.159 2.087 L 32.159 2.716 L 31.271 2.716 L 31.271 5.665 Q 31.271 5.95 31.39 6.093 Q 31.509 6.236 31.794 6.236 A 1.046 1.046 0 0 0 31.892 6.231 Q 31.995 6.221 32.134 6.193 A 4.024 4.024 0 0 0 32.181 6.183 L 32.181 6.842 A 2.463 2.463 0 0 1 31.748 6.922 A 2.157 2.157 0 0 1 31.557 6.93 Q 31.11 6.93 30.843 6.708 A 0.856 0.856 0 0 1 30.735 6.601 Q 30.508 6.33 30.467 5.872 A 2.351 2.351 0 0 1 30.458 5.665 L 30.458 2.716 L 29.593 2.716 L 29.593 2.087 L 30.458 2.087 L 30.458 0.936 Z M 53.552 2.061 L 53.552 2.817 A 2.251 2.251 0 0 0 53.309 2.79 A 2.782 2.782 0 0 0 53.152 2.786 Q 52.374 2.786 52.082 3.43 A 1.445 1.445 0 0 0 52.066 3.467 L 52.066 6.842 L 51.253 6.842 L 51.253 2.087 L 52.044 2.087 L 52.058 2.637 Q 52.438 2.031 53.121 2.001 A 1.636 1.636 0 0 1 53.191 2 Q 53.429 2 53.552 2.061 Z M 39.507 3.911 L 39.507 3.437 A 4.565 4.565 0 0 0 39.463 2.781 Q 39.414 2.448 39.313 2.177 A 1.982 1.982 0 0 0 39.056 1.694 A 1.453 1.453 0 0 0 37.998 1.093 A 2.071 2.071 0 0 0 37.771 1.081 Q 36.976 1.081 36.516 1.69 A 2.112 2.112 0 0 0 36.192 2.338 Q 36.104 2.619 36.068 2.956 A 4.531 4.531 0 0 0 36.044 3.379 L 36.044 3.85 A 4.249 4.249 0 0 0 36.096 4.535 Q 36.155 4.897 36.282 5.19 A 2.051 2.051 0 0 0 36.503 5.581 A 1.46 1.46 0 0 0 37.557 6.201 A 1.933 1.933 0 0 0 37.78 6.214 A 1.79 1.79 0 0 0 38.338 6.131 A 1.423 1.423 0 0 0 39.045 5.618 A 2.017 2.017 0 0 0 39.346 5.024 Q 39.499 4.554 39.507 3.911 Z M 25.743 2.087 L 25.743 6.842 L 24.93 6.842 L 24.93 2.087 L 25.743 2.087 Z M 13.188 5.546 L 13.188 3.362 A 1.375 1.375 0 0 0 12.876 2.966 Q 12.552 2.689 12.067 2.689 A 1.238 1.238 0 0 0 11.641 2.76 A 1.068 1.068 0 0 0 11.136 3.151 A 1.51 1.51 0 0 0 10.927 3.577 Q 10.861 3.781 10.83 4.031 A 3.955 3.955 0 0 0 10.802 4.518 A 3.162 3.162 0 0 0 10.838 5.01 Q 10.879 5.271 10.967 5.481 A 1.474 1.474 0 0 0 11.136 5.783 A 1.06 1.06 0 0 0 11.898 6.231 A 1.391 1.391 0 0 0 12.059 6.24 Q 12.832 6.24 13.188 5.546 Z M 0.848 1.138 L 0.848 3.564 L 2.145 3.564 Q 2.685 3.564 3.035 3.324 A 1.174 1.174 0 0 0 3.144 3.239 A 1.069 1.069 0 0 0 3.51 2.501 A 1.486 1.486 0 0 0 3.516 2.369 Q 3.516 1.826 3.22 1.515 A 1 1 0 0 0 3.162 1.459 Q 2.808 1.143 2.14 1.138 L 0.848 1.138 Z M 6.051 4.03 L 8.433 4.03 L 8.433 3.968 Q 8.407 3.509 8.236 3.204 A 1.13 1.13 0 0 0 8.099 3.008 A 0.983 0.983 0 0 0 7.445 2.676 A 1.39 1.39 0 0 0 7.291 2.667 A 1.106 1.106 0 0 0 6.768 2.79 A 1.14 1.14 0 0 0 6.464 3.026 A 1.417 1.417 0 0 0 6.188 3.472 Q 6.114 3.656 6.074 3.878 A 2.741 2.741 0 0 0 6.051 4.03 Z M 47.118 4.03 L 49.5 4.03 L 49.5 3.968 Q 49.474 3.509 49.303 3.204 A 1.13 1.13 0 0 0 49.166 3.008 A 0.983 0.983 0 0 0 48.512 2.676 A 1.39 1.39 0 0 0 48.357 2.667 A 1.106 1.106 0 0 0 47.835 2.79 A 1.14 1.14 0 0 0 47.531 3.026 A 1.417 1.417 0 0 0 47.255 3.472 Q 47.181 3.656 47.141 3.878 A 2.741 2.741 0 0 0 47.118 4.03 Z M 24.864 0.826 Q 24.864 0.628 24.985 0.492 Q 25.097 0.366 25.309 0.357 A 0.783 0.783 0 0 1 25.343 0.356 Q 25.581 0.356 25.704 0.492 A 0.474 0.474 0 0 1 25.826 0.796 A 0.614 0.614 0 0 1 25.827 0.826 A 0.523 0.523 0 0 1 25.801 0.992 A 0.442 0.442 0 0 1 25.704 1.156 Q 25.591 1.276 25.383 1.287 A 0.803 0.803 0 0 1 25.343 1.288 Q 25.171 1.288 25.06 1.218 A 0.362 0.362 0 0 1 24.985 1.156 A 0.456 0.456 0 0 1 24.867 0.88 A 0.605 0.605 0 0 1 24.864 0.826 Z" vector-effect="non-scaling-stroke"/></g><g transform="translate(25, 93)" id="svgGroup" stroke-linecap="round" fill-rule="evenodd" font-size="9pt" stroke="#000" stroke-width="0.25mm" fill="#000" style="stroke:#000;stroke-width:0.25mm;fill:#000"><path d="M 3.617 3.103 L 3.617 3.792 L 0.844 3.792 L 0.844 6.06 L 4.065 6.06 L 4.065 6.75 L 0 6.75 L 0 0.352 L 4.021 0.352 L 4.021 1.046 L 0.844 1.046 L 0.844 3.103 L 3.617 3.103 Z M 33.891 6.086 L 33.891 6.75 L 29.698 6.75 L 29.698 6.166 L 31.913 3.705 A 9.853 9.853 0 0 0 32.166 3.407 Q 32.404 3.115 32.537 2.894 A 2.159 2.159 0 0 0 32.592 2.797 Q 32.779 2.448 32.779 2.074 A 1.354 1.354 0 0 0 32.727 1.69 A 1.067 1.067 0 0 0 32.476 1.252 Q 32.172 0.932 31.667 0.932 A 1.71 1.71 0 0 0 31.282 0.972 Q 30.945 1.05 30.724 1.277 Q 30.405 1.605 30.389 2.177 A 2.18 2.18 0 0 0 30.388 2.237 L 29.575 2.237 Q 29.575 1.354 30.144 0.809 A 1.914 1.914 0 0 1 31.102 0.318 A 2.782 2.782 0 0 1 31.667 0.264 A 2.749 2.749 0 0 1 32.248 0.322 Q 32.626 0.403 32.911 0.6 A 1.626 1.626 0 0 1 33.078 0.732 A 1.546 1.546 0 0 1 33.586 1.765 A 2.151 2.151 0 0 1 33.596 1.978 A 1.917 1.917 0 0 1 33.456 2.666 Q 33.234 3.241 32.661 3.922 A 8.818 8.818 0 0 1 32.392 4.228 L 30.678 6.086 L 33.891 6.086 Z M 73.648 6.75 L 71.991 4.548 L 71.481 5.08 L 71.481 6.75 L 70.668 6.75 L 70.668 0 L 71.481 0 L 71.481 4.083 L 71.917 3.56 L 73.397 1.995 L 74.386 1.995 L 72.536 3.981 L 74.602 6.75 L 73.648 6.75 Z M 66.511 6.75 L 65.659 6.75 A 0.632 0.632 0 0 1 65.623 6.66 Q 65.592 6.562 65.567 6.41 A 3.997 3.997 0 0 1 65.544 6.249 Q 64.978 6.838 64.191 6.838 A 2.033 2.033 0 0 1 63.662 6.772 A 1.529 1.529 0 0 1 63.037 6.44 Q 62.587 6.042 62.587 5.432 Q 62.587 4.689 63.152 4.278 Q 63.716 3.867 64.74 3.867 L 65.531 3.867 L 65.531 3.494 A 1.152 1.152 0 0 0 65.496 3.199 A 0.828 0.828 0 0 0 65.276 2.815 Q 65.06 2.6 64.67 2.568 A 1.748 1.748 0 0 0 64.525 2.562 Q 64.09 2.562 63.795 2.782 Q 63.501 3.001 63.501 3.313 L 62.684 3.313 A 1.041 1.041 0 0 1 62.809 2.825 A 1.409 1.409 0 0 1 62.936 2.626 Q 63.189 2.294 63.622 2.101 A 2.249 2.249 0 0 1 64.398 1.913 A 2.669 2.669 0 0 1 64.573 1.907 A 2.65 2.65 0 0 1 65.091 1.955 Q 65.398 2.016 65.637 2.156 A 1.439 1.439 0 0 1 65.861 2.318 A 1.396 1.396 0 0 1 66.314 3.144 A 1.998 1.998 0 0 1 66.344 3.45 L 66.344 5.638 Q 66.344 6.073 66.418 6.39 A 1.707 1.707 0 0 0 66.511 6.68 L 66.511 6.75 Z M 4.707 4.395 L 4.707 4.333 A 3.762 3.762 0 0 1 4.774 3.602 Q 4.861 3.16 5.064 2.812 A 2.148 2.148 0 0 1 5.225 2.573 Q 5.744 1.907 6.583 1.907 A 1.964 1.964 0 0 1 7.181 1.994 A 1.559 1.559 0 0 1 7.906 2.479 L 7.906 0 L 8.719 0 L 8.719 6.75 L 7.972 6.75 L 7.932 6.24 Q 7.444 6.838 6.574 6.838 A 1.6 1.6 0 0 1 5.354 6.31 A 2.078 2.078 0 0 1 5.227 6.161 A 2.405 2.405 0 0 1 4.803 5.255 Q 4.719 4.912 4.708 4.51 A 4.425 4.425 0 0 1 4.707 4.395 Z M 25.783 1.995 L 26.991 5.647 L 28.169 1.995 L 29 1.995 L 27.294 6.75 L 26.675 6.75 L 24.952 1.995 L 25.783 1.995 Z M 47.834 0.352 L 47.834 4.601 L 48.722 4.601 L 48.722 5.265 L 47.834 5.265 L 47.834 6.75 L 47.017 6.75 L 47.017 5.265 L 44.104 5.265 L 44.104 4.786 L 46.969 0.352 L 47.834 0.352 Z M 58.72 6.75 L 56.949 6.75 L 56.949 0.352 L 58.755 0.352 Q 59.59 0.352 60.231 0.721 Q 60.873 1.09 61.222 1.771 A 3.19 3.19 0 0 1 61.539 2.8 A 4.073 4.073 0 0 1 61.576 3.335 L 61.576 3.744 Q 61.576 4.649 61.227 5.331 A 2.457 2.457 0 0 1 60.229 6.376 Q 59.581 6.741 58.72 6.75 Z M 53.233 2.592 A 1.544 1.544 0 0 0 53.336 2.021 A 2.226 2.226 0 0 0 53.315 1.707 A 1.566 1.566 0 0 0 52.816 0.738 A 1.754 1.754 0 0 0 52.05 0.333 A 2.443 2.443 0 0 0 51.451 0.264 A 2.539 2.539 0 0 0 50.942 0.312 A 1.767 1.767 0 0 0 50.084 0.738 Q 49.566 1.213 49.566 2.021 A 1.808 1.808 0 0 0 49.566 2.058 A 1.499 1.499 0 0 0 49.812 2.87 A 1.626 1.626 0 0 0 49.974 3.077 A 1.726 1.726 0 0 0 50.484 3.454 A 2.119 2.119 0 0 0 50.385 3.5 A 1.738 1.738 0 0 0 49.7 4.087 A 1.629 1.629 0 0 0 49.417 5.023 A 2.272 2.272 0 0 0 49.426 5.237 A 1.63 1.63 0 0 0 49.972 6.344 A 1.895 1.895 0 0 0 50.823 6.771 A 2.797 2.797 0 0 0 51.451 6.838 A 2.796 2.796 0 0 0 52.05 6.777 A 1.925 1.925 0 0 0 52.926 6.346 A 1.578 1.578 0 0 0 53.4 5.62 A 1.989 1.989 0 0 0 53.486 5.023 A 1.581 1.581 0 0 0 53.194 4.087 Q 52.901 3.674 52.4 3.458 Q 52.831 3.248 53.084 2.874 A 1.449 1.449 0 0 0 53.233 2.592 Z M 12.454 0.844 L 13.267 0.844 L 13.267 1.995 L 14.155 1.995 L 14.155 2.624 L 13.267 2.624 L 13.267 5.572 Q 13.267 5.858 13.386 6.001 Q 13.504 6.144 13.79 6.144 A 1.046 1.046 0 0 0 13.888 6.138 Q 13.99 6.129 14.13 6.101 A 4.024 4.024 0 0 0 14.177 6.091 L 14.177 6.75 A 2.463 2.463 0 0 1 13.744 6.829 A 2.157 2.157 0 0 1 13.553 6.838 Q 13.106 6.838 12.839 6.616 A 0.856 0.856 0 0 1 12.731 6.508 Q 12.504 6.238 12.463 5.78 A 2.351 2.351 0 0 1 12.454 5.572 L 12.454 2.624 L 11.588 2.624 L 11.588 1.995 L 12.454 1.995 L 12.454 0.844 Z M 41.133 2.966 L 41.133 4.021 A 6.701 6.701 0 0 1 41.094 4.766 Q 40.996 5.645 40.645 6.144 A 1.574 1.574 0 0 1 39.646 6.786 A 2.513 2.513 0 0 1 39.12 6.838 A 2.447 2.447 0 0 1 38.532 6.772 A 1.572 1.572 0 0 1 37.604 6.159 A 2.245 2.245 0 0 1 37.302 5.555 Q 37.111 4.992 37.095 4.183 A 7.419 7.419 0 0 1 37.094 4.131 L 37.094 3.045 A 6.537 6.537 0 0 1 37.133 2.309 Q 37.231 1.442 37.582 0.949 A 1.567 1.567 0 0 1 38.542 0.324 A 2.52 2.52 0 0 1 39.111 0.264 A 2.541 2.541 0 0 1 39.704 0.328 Q 40.134 0.431 40.429 0.7 A 1.537 1.537 0 0 1 40.632 0.925 A 2.109 2.109 0 0 1 40.921 1.493 Q 41.111 2.044 41.131 2.854 A 7.66 7.66 0 0 1 41.133 2.966 Z M 14.801 4.386 L 14.801 4.329 A 3.057 3.057 0 0 1 14.888 3.587 A 2.573 2.573 0 0 1 15.075 3.072 A 2.16 2.16 0 0 1 15.49 2.486 A 1.957 1.957 0 0 1 15.84 2.21 A 2.036 2.036 0 0 1 16.784 1.913 A 2.491 2.491 0 0 1 16.958 1.907 A 2.277 2.277 0 0 1 17.712 2.027 A 1.937 1.937 0 0 1 18.53 2.58 A 2.29 2.29 0 0 1 19.049 3.608 A 3.373 3.373 0 0 1 19.129 4.368 L 19.129 4.425 A 3.114 3.114 0 0 1 19.05 5.142 A 2.577 2.577 0 0 1 18.864 5.671 A 2.056 2.056 0 0 1 18.336 6.361 A 2.001 2.001 0 0 1 18.103 6.53 A 2.045 2.045 0 0 1 17.183 6.829 A 2.529 2.529 0 0 1 16.967 6.838 A 2.262 2.262 0 0 1 16.217 6.718 A 1.938 1.938 0 0 1 15.401 6.166 A 2.297 2.297 0 0 1 14.875 5.111 A 3.357 3.357 0 0 1 14.801 4.386 Z M 22.447 1.969 L 22.447 2.725 A 2.251 2.251 0 0 0 22.205 2.698 A 2.782 2.782 0 0 0 22.047 2.694 Q 21.27 2.694 20.978 3.338 A 1.445 1.445 0 0 0 20.962 3.375 L 20.962 6.75 L 20.149 6.75 L 20.149 1.995 L 20.94 1.995 L 20.953 2.544 Q 21.334 1.938 22.016 1.909 A 1.636 1.636 0 0 1 22.087 1.907 Q 22.324 1.907 22.447 1.969 Z M 69.917 1.969 L 69.917 2.725 A 2.251 2.251 0 0 0 69.674 2.698 A 2.782 2.782 0 0 0 69.517 2.694 Q 68.739 2.694 68.448 3.338 A 1.445 1.445 0 0 0 68.432 3.375 L 68.432 6.75 L 67.619 6.75 L 67.619 1.995 L 68.41 1.995 L 68.423 2.544 Q 68.803 1.938 69.486 1.909 A 1.636 1.636 0 0 1 69.557 1.907 Q 69.794 1.907 69.917 1.969 Z M 58.777 1.046 L 57.792 1.046 L 57.792 6.06 L 58.68 6.06 A 2.519 2.519 0 0 0 59.313 5.985 A 1.747 1.747 0 0 0 60.198 5.454 Q 60.658 4.94 60.728 4.059 A 4.165 4.165 0 0 0 60.741 3.727 L 60.741 3.353 Q 60.741 2.562 60.472 2.027 A 1.864 1.864 0 0 0 60.229 1.659 A 1.687 1.687 0 0 0 59.233 1.09 A 2.499 2.499 0 0 0 58.777 1.046 Z M 40.32 4.241 L 40.32 2.909 A 5.845 5.845 0 0 0 40.298 2.386 Q 40.251 1.869 40.104 1.546 A 1.291 1.291 0 0 0 40.03 1.404 A 0.948 0.948 0 0 0 39.339 0.949 A 1.44 1.44 0 0 0 39.111 0.932 A 1.299 1.299 0 0 0 38.746 0.98 A 0.921 0.921 0 0 0 38.202 1.402 Q 37.943 1.828 37.911 2.668 A 6.284 6.284 0 0 0 37.907 2.848 L 37.907 4.148 A 5.693 5.693 0 0 0 37.931 4.689 Q 37.983 5.229 38.147 5.566 A 1.358 1.358 0 0 0 38.208 5.68 A 1.014 1.014 0 0 0 38.552 6.031 Q 38.791 6.174 39.12 6.174 A 1.223 1.223 0 0 0 39.496 6.12 A 0.938 0.938 0 0 0 40.014 5.708 A 1.555 1.555 0 0 0 40.176 5.346 Q 40.311 4.914 40.32 4.241 Z M 10.863 1.995 L 10.863 6.75 L 10.05 6.75 L 10.05 1.995 L 10.863 1.995 Z M 15.618 4.425 A 2.772 2.772 0 0 0 15.666 4.954 Q 15.726 5.264 15.863 5.51 A 1.545 1.545 0 0 0 15.985 5.695 Q 16.352 6.174 16.967 6.174 A 1.269 1.269 0 0 0 17.457 6.083 Q 17.736 5.967 17.939 5.706 A 1.471 1.471 0 0 0 17.952 5.689 A 1.648 1.648 0 0 0 18.207 5.171 Q 18.275 4.945 18.301 4.672 A 3.655 3.655 0 0 0 18.316 4.329 A 2.687 2.687 0 0 0 18.265 3.789 Q 18.198 3.459 18.04 3.2 A 1.586 1.586 0 0 0 17.945 3.061 A 1.231 1.231 0 0 0 17.53 2.705 Q 17.277 2.575 16.958 2.575 Q 16.369 2.575 16.002 3.035 A 1.515 1.515 0 0 0 15.987 3.054 A 1.589 1.589 0 0 0 15.735 3.552 Q 15.666 3.772 15.637 4.039 A 3.676 3.676 0 0 0 15.618 4.425 Z M 7.906 5.454 L 7.906 3.27 A 1.375 1.375 0 0 0 7.594 2.874 Q 7.27 2.597 6.785 2.597 A 1.238 1.238 0 0 0 6.358 2.668 A 1.068 1.068 0 0 0 5.854 3.059 A 1.51 1.51 0 0 0 5.644 3.484 Q 5.579 3.689 5.547 3.939 A 3.955 3.955 0 0 0 5.52 4.425 A 3.162 3.162 0 0 0 5.555 4.918 Q 5.597 5.178 5.685 5.389 A 1.474 1.474 0 0 0 5.854 5.691 A 1.06 1.06 0 0 0 6.616 6.139 A 1.391 1.391 0 0 0 6.776 6.148 Q 7.55 6.148 7.906 5.454 Z M 46.92 1.639 L 45.026 4.601 L 47.017 4.601 L 47.017 1.463 L 46.92 1.639 Z M 52.673 5.005 A 1.375 1.375 0 0 0 52.613 4.592 A 1.109 1.109 0 0 0 52.332 4.131 A 1.148 1.148 0 0 0 51.661 3.807 A 1.593 1.593 0 0 0 51.442 3.792 A 1.466 1.466 0 0 0 51.054 3.841 A 1.086 1.086 0 0 0 50.561 4.126 A 1.123 1.123 0 0 0 50.248 4.762 A 1.572 1.572 0 0 0 50.229 5.005 A 1.48 1.48 0 0 0 50.271 5.367 A 1.019 1.019 0 0 0 50.552 5.862 Q 50.859 6.158 51.392 6.173 A 2.053 2.053 0 0 0 51.451 6.174 Q 51.945 6.174 52.255 5.94 A 1.018 1.018 0 0 0 52.348 5.86 A 1.041 1.041 0 0 0 52.647 5.292 A 1.518 1.518 0 0 0 52.673 5.005 Z M 51.451 0.932 A 1.259 1.259 0 0 0 51.098 0.979 A 0.973 0.973 0 0 0 50.676 1.228 Q 50.379 1.525 50.379 2.035 A 1.325 1.325 0 0 0 50.423 2.387 A 0.994 0.994 0 0 0 50.671 2.823 A 0.974 0.974 0 0 0 51.233 3.108 A 1.382 1.382 0 0 0 51.451 3.125 A 1.279 1.279 0 0 0 51.796 3.08 A 0.952 0.952 0 0 0 52.231 2.823 A 1.018 1.018 0 0 0 52.506 2.26 A 1.426 1.426 0 0 0 52.523 2.035 A 1.282 1.282 0 0 0 52.473 1.668 A 1.013 1.013 0 0 0 52.22 1.239 Q 51.917 0.932 51.451 0.932 Z M 65.531 5.418 L 65.531 4.443 L 64.894 4.443 Q 63.4 4.443 63.4 5.317 Q 63.4 5.7 63.655 5.915 A 0.893 0.893 0 0 0 64.068 6.108 A 1.259 1.259 0 0 0 64.31 6.13 A 1.429 1.429 0 0 0 65.035 5.933 A 1.335 1.335 0 0 0 65.33 5.705 A 1.108 1.108 0 0 0 65.531 5.418 Z M 34.877 6.153 A 0.586 0.586 0 0 0 34.853 6.324 A 0.619 0.619 0 0 0 34.855 6.367 A 0.471 0.471 0 0 0 34.978 6.662 Q 35.064 6.756 35.21 6.785 A 0.732 0.732 0 0 0 35.354 6.798 A 0.851 0.851 0 0 0 35.407 6.797 Q 35.485 6.792 35.55 6.772 A 0.413 0.413 0 0 0 35.734 6.662 Q 35.864 6.526 35.864 6.324 A 0.644 0.644 0 0 0 35.861 6.269 A 0.486 0.486 0 0 0 35.734 5.972 A 0.391 0.391 0 0 0 35.663 5.912 Q 35.594 5.866 35.502 5.846 A 0.712 0.712 0 0 0 35.354 5.832 Q 35.104 5.832 34.978 5.972 A 0.477 0.477 0 0 0 34.877 6.153 Z M 9.984 0.734 Q 9.984 0.536 10.105 0.4 Q 10.217 0.274 10.429 0.264 A 0.783 0.783 0 0 1 10.463 0.264 Q 10.701 0.264 10.824 0.4 A 0.474 0.474 0 0 1 10.946 0.703 A 0.614 0.614 0 0 1 10.947 0.734 A 0.523 0.523 0 0 1 10.922 0.9 A 0.442 0.442 0 0 1 10.824 1.063 Q 10.711 1.184 10.503 1.194 A 0.803 0.803 0 0 1 10.463 1.195 Q 10.291 1.195 10.18 1.126 A 0.362 0.362 0 0 1 10.105 1.063 A 0.456 0.456 0 0 1 9.987 0.788 A 0.605 0.605 0 0 1 9.984 0.734 Z" vector-effect="non-scaling-stroke"/></g>
</svg>