<?xml version="1.0" encoding="UTF-8"?>
<svg width="80px" height="80px" viewBox="0 0 80 80" version="1.1" xmlns="http://www.w3.org/2000/svg" xmlns:xlink="http://www.w3.org/1999/xlink">
    <title>Icon-Architecture/64/Arch_AWS-Elastic-Disaster-Recovery_64</title>
    
    <g id="Icon-Architecture/64/Arch_AWS-Elastic-Disaster-Recovery_64" stroke="none" stroke-width="1" fill="none" fill-rule="evenodd">
        
        <path transform="translate(0vw, 0vh), scale(.65)" d="M58.065,52.9278253 C58.165,52.9198253 68,52.0068253 68,42.1178253 C68,34.4508253 62.003,32.1398253 59.183,31.4798253 C58.752,27.8188253 56.826,25.1678253 53.946,24.3258253 C51.846,23.7128253 49.644,24.2198253 47.974,25.6178253 C47.097,23.6448253 45.95,21.9398253 44.549,20.5358253 C40.039,16.0108253 33.864,14.7838253 28.04,17.2508253 C23.067,19.3568253 19.318,25.1708253 19.318,30.7748253 C19.318,31.1008253 19.329,31.4268253 19.349,31.7508253 C16.632,32.6468253 12,35.1808253 12,42.0348253 C12,42.4018253 12.013,42.7568253 12.041,43.0988253 C12.53,49.3428253 15.772,52.9268253 20.937,52.9308253 L31.75,52.9308253 L31.75,50.9898253 L20.938,50.9898253 C15.475,50.9838253 14.268,45.9238253 14.035,42.9418253 C14.011,42.6488253 14,42.3468253 14,42.0348253 C14,36.1108253 18.09,34.1268253 20.588,33.4688253 C20.598,33.4668253 20.608,33.4648253 20.618,33.4628253 C21.128,33.3598253 21.475,32.8808253 21.413,32.3628253 C21.35,31.8438253 21.318,31.3088253 21.318,30.7748253 C21.318,26.0058253 24.613,20.8748253 28.819,19.0928253 C36.1,16.0078253 41.253,20.0628253 43.133,21.9478253 C44.663,23.4818253 45.857,25.4428253 46.682,27.7758253 C46.805,28.1248253 47.111,28.3768253 47.477,28.4318253 C47.839,28.4868253 48.21,28.3338253 48.429,28.0368253 C49.625,26.4188253 51.568,25.7128253 53.384,26.2458253 C55.567,26.8838253 57.003,29.0898253 57.24,32.1568253 C57.16,32.6948253 57.523,33.1988253 58.059,33.2908253 C60.447,33.7008253 66,35.3838253 66,42.1178253 C66,50.1458253 58.231,50.9648253 57.984,50.9898253 L54.75,50.9898253 L54.75,52.9308253 L58.065,52.9278253 Z M36.116,46.9898253 L40.473,46.9898253 C40.77,46.9898253 41.051,47.1208253 41.241,47.3488253 C41.431,47.5758253 41.51,47.8768253 41.457,48.1678253 L39.538,58.7228253 L49.968,44.9898253 L45.75,44.9898253 C45.386,44.9898253 45.051,44.7918253 44.875,44.4738253 C44.699,44.1568253 44.709,43.7678253 44.902,43.4598253 L50.195,34.9898253 L42.662,34.9898253 L36.116,46.9898253 Z M37.806,63.6558253 C37.67,63.6558253 37.534,63.6288253 37.403,63.5708253 C36.98,63.3848253 36.74,62.9318253 36.823,62.4768253 L39.275,48.9898253 L34.431,48.9898253 C34.079,48.9898253 33.752,48.8028253 33.571,48.4998253 C33.391,48.1968253 33.384,47.8208253 33.553,47.5108253 L41.19,33.5108253 C41.365,33.1888253 41.702,32.9898253 42.068,32.9898253 L52,32.9898253 C52.363,32.9898253 52.698,33.1868253 52.875,33.5048253 C53.05,33.8228253 53.041,34.2108253 52.847,34.5188253 L47.554,42.9898253 L51.984,42.9898253 C52.364,42.9898253 52.711,43.2048253 52.879,43.5448253 C53.048,43.8858253 53.01,44.2918253 52.78,44.5948253 L38.602,63.2608253 C38.409,63.5158253 38.111,63.6558253 37.806,63.6558253 L37.806,63.6558253 Z" id="AWS-Elastic-Disaster-Recovery_Icon_64_Squid" fill="#000000"></path>
    </g><g id="svgGroup" stroke-linecap="round" fill-rule="evenodd" font-size="9pt" stroke="#000" stroke-width="0.25mm" fill="#000" style="stroke:#000;stroke-width:0.25mm;fill:#000"><path d="M 3.617 3.103 L 3.617 3.792 L 0.844 3.792 L 0.844 6.06 L 4.065 6.06 L 4.065 6.75 L 0 6.75 L 0 0.352 L 4.021 0.352 L 4.021 1.046 L 0.844 1.046 L 0.844 3.103 L 3.617 3.103 Z M 15.605 3.393 L 14.788 3.393 Q 14.788 3.059 14.504 2.817 Q 14.221 2.575 13.79 2.575 Q 13.346 2.575 13.096 2.769 A 0.653 0.653 0 0 0 12.921 2.967 Q 12.848 3.098 12.845 3.263 A 0.771 0.771 0 0 0 12.845 3.274 A 0.588 0.588 0 0 0 12.875 3.467 A 0.48 0.48 0 0 0 13.078 3.718 A 1.093 1.093 0 0 0 13.228 3.796 Q 13.393 3.868 13.648 3.937 A 6.581 6.581 0 0 0 13.92 4.003 A 6.318 6.318 0 0 1 14.327 4.108 Q 14.664 4.208 14.906 4.329 A 1.901 1.901 0 0 1 15.162 4.481 Q 15.299 4.579 15.396 4.692 A 1.06 1.06 0 0 1 15.467 4.783 A 1.024 1.024 0 0 1 15.629 5.191 A 1.388 1.388 0 0 1 15.649 5.432 Q 15.649 6.069 15.139 6.453 Q 14.657 6.817 13.903 6.837 A 3.337 3.337 0 0 1 13.816 6.838 A 2.746 2.746 0 0 1 13.282 6.788 A 2.124 2.124 0 0 1 12.806 6.636 A 1.771 1.771 0 0 1 12.372 6.358 A 1.54 1.54 0 0 1 12.118 6.071 Q 11.87 5.708 11.87 5.287 L 12.683 5.287 A 0.932 0.932 0 0 0 12.756 5.612 A 0.827 0.827 0 0 0 13.01 5.935 A 1.072 1.072 0 0 0 13.412 6.128 Q 13.567 6.167 13.748 6.173 A 2.013 2.013 0 0 0 13.816 6.174 A 1.863 1.863 0 0 0 14.112 6.152 Q 14.274 6.126 14.405 6.07 A 0.941 0.941 0 0 0 14.557 5.988 A 0.689 0.689 0 0 0 14.721 5.837 A 0.554 0.554 0 0 0 14.836 5.489 A 0.698 0.698 0 0 0 14.8 5.258 A 0.581 0.581 0 0 0 14.588 4.977 A 1.05 1.05 0 0 0 14.419 4.878 Q 14.23 4.788 13.935 4.712 A 5.392 5.392 0 0 0 13.722 4.663 A 6.342 6.342 0 0 1 13.361 4.575 Q 12.991 4.473 12.742 4.346 Q 12.443 4.194 12.273 3.994 A 1.017 1.017 0 0 1 12.206 3.907 Q 12.032 3.652 12.032 3.3 A 1.206 1.206 0 0 1 12.431 2.396 A 1.694 1.694 0 0 1 12.527 2.312 A 1.752 1.752 0 0 1 13.31 1.952 A 2.471 2.471 0 0 1 13.79 1.907 A 2.559 2.559 0 0 1 14.354 1.966 A 1.757 1.757 0 0 1 15.102 2.325 Q 15.605 2.742 15.605 3.393 Z M 40.395 3.393 L 39.577 3.393 Q 39.577 3.059 39.294 2.817 Q 39.01 2.575 38.58 2.575 Q 38.136 2.575 37.885 2.769 A 0.653 0.653 0 0 0 37.71 2.967 Q 37.637 3.098 37.635 3.263 A 0.771 0.771 0 0 0 37.635 3.274 A 0.588 0.588 0 0 0 37.665 3.467 A 0.48 0.48 0 0 0 37.868 3.718 A 1.093 1.093 0 0 0 38.018 3.796 Q 38.182 3.868 38.438 3.937 A 6.581 6.581 0 0 0 38.709 4.003 A 6.318 6.318 0 0 1 39.117 4.108 Q 39.454 4.208 39.696 4.329 A 1.901 1.901 0 0 1 39.952 4.481 Q 40.089 4.579 40.186 4.692 A 1.06 1.06 0 0 1 40.256 4.783 A 1.024 1.024 0 0 1 40.418 5.191 A 1.388 1.388 0 0 1 40.438 5.432 Q 40.438 6.069 39.929 6.453 Q 39.446 6.817 38.692 6.837 A 3.337 3.337 0 0 1 38.606 6.838 A 2.746 2.746 0 0 1 38.072 6.788 A 2.124 2.124 0 0 1 37.595 6.636 A 1.771 1.771 0 0 1 37.161 6.358 A 1.54 1.54 0 0 1 36.907 6.071 Q 36.659 5.708 36.659 5.287 L 37.472 5.287 A 0.932 0.932 0 0 0 37.546 5.612 A 0.827 0.827 0 0 0 37.8 5.935 A 1.072 1.072 0 0 0 38.202 6.128 Q 38.356 6.167 38.538 6.173 A 2.013 2.013 0 0 0 38.606 6.174 A 1.863 1.863 0 0 0 38.902 6.152 Q 39.063 6.126 39.195 6.07 A 0.941 0.941 0 0 0 39.346 5.988 A 0.689 0.689 0 0 0 39.511 5.837 A 0.554 0.554 0 0 0 39.625 5.489 A 0.698 0.698 0 0 0 39.589 5.258 A 0.581 0.581 0 0 0 39.377 4.977 A 1.05 1.05 0 0 0 39.208 4.878 Q 39.02 4.788 38.725 4.712 A 5.392 5.392 0 0 0 38.511 4.663 A 6.342 6.342 0 0 1 38.15 4.575 Q 37.781 4.473 37.531 4.346 Q 37.233 4.194 37.062 3.994 A 1.017 1.017 0 0 1 36.995 3.907 Q 36.822 3.652 36.822 3.3 A 1.206 1.206 0 0 1 37.221 2.396 A 1.694 1.694 0 0 1 37.316 2.312 A 1.752 1.752 0 0 1 38.099 1.952 A 2.471 2.471 0 0 1 38.58 1.907 A 2.559 2.559 0 0 1 39.143 1.966 A 1.757 1.757 0 0 1 39.891 2.325 Q 40.395 2.742 40.395 3.393 Z M 49.931 3.393 L 49.113 3.393 Q 49.113 3.059 48.83 2.817 Q 48.546 2.575 48.116 2.575 Q 47.672 2.575 47.421 2.769 A 0.653 0.653 0 0 0 47.246 2.967 Q 47.173 3.098 47.171 3.263 A 0.771 0.771 0 0 0 47.171 3.274 A 0.588 0.588 0 0 0 47.201 3.467 A 0.48 0.48 0 0 0 47.404 3.718 A 1.093 1.093 0 0 0 47.554 3.796 Q 47.718 3.868 47.974 3.937 A 6.581 6.581 0 0 0 48.245 4.003 A 6.318 6.318 0 0 1 48.653 4.108 Q 48.99 4.208 49.232 4.329 A 1.901 1.901 0 0 1 49.488 4.481 Q 49.625 4.579 49.722 4.692 A 1.06 1.06 0 0 1 49.792 4.783 A 1.024 1.024 0 0 1 49.955 5.191 A 1.388 1.388 0 0 1 49.975 5.432 Q 49.975 6.069 49.465 6.453 Q 48.982 6.817 48.229 6.837 A 3.337 3.337 0 0 1 48.142 6.838 A 2.746 2.746 0 0 1 47.608 6.788 A 2.124 2.124 0 0 1 47.131 6.636 A 1.771 1.771 0 0 1 46.697 6.358 A 1.54 1.54 0 0 1 46.444 6.071 Q 46.195 5.708 46.195 5.287 L 47.008 5.287 A 0.932 0.932 0 0 0 47.082 5.612 A 0.827 0.827 0 0 0 47.336 5.935 A 1.072 1.072 0 0 0 47.738 6.128 Q 47.892 6.167 48.074 6.173 A 2.013 2.013 0 0 0 48.142 6.174 A 1.863 1.863 0 0 0 48.438 6.152 Q 48.599 6.126 48.731 6.07 A 0.941 0.941 0 0 0 48.883 5.988 A 0.689 0.689 0 0 0 49.047 5.837 A 0.554 0.554 0 0 0 49.162 5.489 A 0.698 0.698 0 0 0 49.125 5.258 A 0.581 0.581 0 0 0 48.913 4.977 A 1.05 1.05 0 0 0 48.744 4.878 Q 48.556 4.788 48.261 4.712 A 5.392 5.392 0 0 0 48.048 4.663 A 6.342 6.342 0 0 1 47.687 4.575 Q 47.317 4.473 47.068 4.346 Q 46.769 4.194 46.598 3.994 A 1.017 1.017 0 0 1 46.531 3.907 Q 46.358 3.652 46.358 3.3 A 1.206 1.206 0 0 1 46.757 2.396 A 1.694 1.694 0 0 1 46.852 2.312 A 1.752 1.752 0 0 1 47.635 1.952 A 2.471 2.471 0 0 1 48.116 1.907 A 2.559 2.559 0 0 1 48.679 1.966 A 1.757 1.757 0 0 1 49.427 2.325 Q 49.931 2.742 49.931 3.393 Z M 24.86 5.251 L 25.629 5.251 A 1.432 1.432 0 0 1 25.43 5.901 A 1.772 1.772 0 0 1 25.348 6.029 A 1.828 1.828 0 0 1 24.738 6.574 A 2.169 2.169 0 0 1 24.656 6.618 A 1.997 1.997 0 0 1 23.739 6.838 A 2.346 2.346 0 0 1 23.042 6.739 A 1.839 1.839 0 0 1 22.195 6.19 A 2.171 2.171 0 0 1 21.731 5.31 Q 21.621 4.909 21.621 4.417 L 21.621 4.28 A 3.24 3.24 0 0 1 21.685 3.624 A 2.57 2.57 0 0 1 21.876 3.045 A 2.008 2.008 0 0 1 22.316 2.431 A 1.892 1.892 0 0 1 22.608 2.206 A 1.943 1.943 0 0 1 23.364 1.934 A 2.529 2.529 0 0 1 23.735 1.907 A 2.196 2.196 0 0 1 24.383 1.999 A 1.786 1.786 0 0 1 25.064 2.386 A 1.693 1.693 0 0 1 25.623 3.535 A 2.239 2.239 0 0 1 25.629 3.63 L 24.86 3.63 Q 24.825 3.168 24.51 2.872 A 1.078 1.078 0 0 0 23.781 2.576 A 1.402 1.402 0 0 0 23.735 2.575 A 1.374 1.374 0 0 0 23.313 2.637 A 1.081 1.081 0 0 0 22.775 3.021 A 1.469 1.469 0 0 0 22.548 3.468 Q 22.482 3.674 22.454 3.923 A 3.514 3.514 0 0 0 22.434 4.311 L 22.434 4.465 Q 22.434 5.287 22.772 5.73 A 1.1 1.1 0 0 0 23.559 6.165 A 1.611 1.611 0 0 0 23.739 6.174 A 1.171 1.171 0 0 0 24.5 5.911 A 1.007 1.007 0 0 0 24.744 5.629 A 0.914 0.914 0 0 0 24.86 5.251 Z M 10.96 6.75 L 10.107 6.75 A 0.632 0.632 0 0 1 10.072 6.66 Q 10.041 6.562 10.016 6.41 A 3.997 3.997 0 0 1 9.993 6.249 Q 9.426 6.838 8.64 6.838 A 2.033 2.033 0 0 1 8.11 6.772 A 1.529 1.529 0 0 1 7.486 6.44 Q 7.036 6.042 7.036 5.432 Q 7.036 4.689 7.6 4.278 Q 8.165 3.867 9.189 3.867 L 9.98 3.867 L 9.98 3.494 A 1.152 1.152 0 0 0 9.944 3.199 A 0.828 0.828 0 0 0 9.725 2.815 Q 9.509 2.6 9.118 2.568 A 1.748 1.748 0 0 0 8.974 2.562 Q 8.539 2.562 8.244 2.782 Q 7.95 3.001 7.95 3.313 L 7.132 3.313 A 1.041 1.041 0 0 1 7.257 2.825 A 1.409 1.409 0 0 1 7.385 2.626 Q 7.638 2.294 8.071 2.101 A 2.249 2.249 0 0 1 8.846 1.913 A 2.669 2.669 0 0 1 9.022 1.907 A 2.65 2.65 0 0 1 9.539 1.955 Q 9.847 2.016 10.085 2.156 A 1.439 1.439 0 0 1 10.31 2.318 A 1.396 1.396 0 0 1 10.763 3.144 A 1.998 1.998 0 0 1 10.793 3.45 L 10.793 5.638 Q 10.793 6.073 10.867 6.39 A 1.707 1.707 0 0 0 10.96 6.68 L 10.96 6.75 Z M 45.286 6.75 L 44.433 6.75 A 0.632 0.632 0 0 1 44.398 6.66 Q 44.366 6.562 44.342 6.41 A 3.997 3.997 0 0 1 44.319 6.249 Q 43.752 6.838 42.965 6.838 A 2.033 2.033 0 0 1 42.436 6.772 A 1.529 1.529 0 0 1 41.812 6.44 Q 41.361 6.042 41.361 5.432 Q 41.361 4.689 41.926 4.278 Q 42.491 3.867 43.515 3.867 L 44.306 3.867 L 44.306 3.494 A 1.152 1.152 0 0 0 44.27 3.199 A 0.828 0.828 0 0 0 44.051 2.815 Q 43.834 2.6 43.444 2.568 A 1.748 1.748 0 0 0 43.299 2.562 Q 42.864 2.562 42.57 2.782 Q 42.275 3.001 42.275 3.313 L 41.458 3.313 A 1.041 1.041 0 0 1 41.583 2.825 A 1.409 1.409 0 0 1 41.711 2.626 Q 41.963 2.294 42.396 2.101 A 2.249 2.249 0 0 1 43.172 1.913 A 2.669 2.669 0 0 1 43.348 1.907 A 2.65 2.65 0 0 1 43.865 1.955 Q 44.172 2.016 44.411 2.156 A 1.439 1.439 0 0 1 44.635 2.318 A 1.396 1.396 0 0 1 45.089 3.144 A 1.998 1.998 0 0 1 45.119 3.45 L 45.119 5.638 Q 45.119 6.073 45.192 6.39 A 1.707 1.707 0 0 0 45.286 6.68 L 45.286 6.75 Z M 53.767 4.504 L 53.767 4.355 A 3.17 3.17 0 0 1 53.843 3.646 A 2.581 2.581 0 0 1 54.037 3.092 A 2.191 2.191 0 0 1 54.485 2.466 A 2.033 2.033 0 0 1 54.793 2.221 Q 55.279 1.907 55.846 1.907 A 2.254 2.254 0 0 1 56.459 1.986 A 1.639 1.639 0 0 1 57.287 2.518 Q 57.801 3.129 57.801 4.267 L 57.801 4.605 L 54.58 4.605 A 2.111 2.111 0 0 0 54.651 5.114 A 1.516 1.516 0 0 0 54.991 5.741 A 1.282 1.282 0 0 0 55.925 6.173 A 1.652 1.652 0 0 0 55.991 6.174 A 1.763 1.763 0 0 0 56.319 6.145 Q 56.543 6.103 56.72 5.999 A 1.827 1.827 0 0 0 57.229 5.551 A 2.068 2.068 0 0 0 57.243 5.533 L 57.74 5.919 A 1.926 1.926 0 0 1 56.34 6.811 A 2.749 2.749 0 0 1 55.947 6.838 A 2.394 2.394 0 0 1 55.196 6.725 A 1.974 1.974 0 0 1 54.374 6.203 Q 53.767 5.568 53.767 4.504 Z M 30.669 6.75 L 28.898 6.75 L 28.898 0.352 L 30.705 0.352 Q 31.54 0.352 32.181 0.721 Q 32.823 1.09 33.172 1.771 A 3.19 3.19 0 0 1 33.489 2.8 A 4.073 4.073 0 0 1 33.526 3.335 L 33.526 3.744 Q 33.526 4.649 33.177 5.331 A 2.457 2.457 0 0 1 32.179 6.376 Q 31.531 6.741 30.669 6.75 Z M 16.998 0.844 L 17.811 0.844 L 17.811 1.995 L 18.699 1.995 L 18.699 2.624 L 17.811 2.624 L 17.811 5.572 Q 17.811 5.858 17.93 6.001 Q 18.048 6.144 18.334 6.144 A 1.046 1.046 0 0 0 18.431 6.138 Q 18.534 6.129 18.674 6.101 A 4.024 4.024 0 0 0 18.721 6.091 L 18.721 6.75 A 2.463 2.463 0 0 1 18.288 6.829 A 2.157 2.157 0 0 1 18.097 6.838 Q 17.65 6.838 17.383 6.616 A 0.856 0.856 0 0 1 17.275 6.508 Q 17.047 6.238 17.007 5.78 A 2.351 2.351 0 0 1 16.998 5.572 L 16.998 2.624 L 16.132 2.624 L 16.132 1.995 L 16.998 1.995 L 16.998 0.844 Z M 51.324 0.844 L 52.137 0.844 L 52.137 1.995 L 53.024 1.995 L 53.024 2.624 L 52.137 2.624 L 52.137 5.572 Q 52.137 5.858 52.255 6.001 Q 52.374 6.144 52.66 6.144 A 1.046 1.046 0 0 0 52.757 6.138 Q 52.86 6.129 53 6.101 A 4.024 4.024 0 0 0 53.046 6.091 L 53.046 6.75 A 2.463 2.463 0 0 1 52.614 6.829 A 2.157 2.157 0 0 1 52.422 6.838 Q 51.975 6.838 51.709 6.616 A 0.856 0.856 0 0 1 51.601 6.508 Q 51.373 6.238 51.333 5.78 A 2.351 2.351 0 0 1 51.324 5.572 L 51.324 2.624 L 50.458 2.624 L 50.458 1.995 L 51.324 1.995 L 51.324 0.844 Z M 5.871 0 L 5.871 6.75 L 5.058 6.75 L 5.058 0 L 5.871 0 Z M 61.04 1.969 L 61.04 2.725 A 2.251 2.251 0 0 0 60.797 2.698 A 2.782 2.782 0 0 0 60.64 2.694 Q 59.862 2.694 59.571 3.338 A 1.445 1.445 0 0 0 59.555 3.375 L 59.555 6.75 L 58.742 6.75 L 58.742 1.995 L 59.533 1.995 L 59.546 2.544 Q 59.926 1.938 60.609 1.909 A 1.636 1.636 0 0 1 60.68 1.907 Q 60.917 1.907 61.04 1.969 Z M 30.727 1.046 L 29.742 1.046 L 29.742 6.06 L 30.63 6.06 A 2.519 2.519 0 0 0 31.262 5.985 A 1.747 1.747 0 0 0 32.148 5.454 Q 32.607 4.94 32.678 4.059 A 4.165 4.165 0 0 0 32.691 3.727 L 32.691 3.353 Q 32.691 2.562 32.421 2.027 A 1.864 1.864 0 0 0 32.179 1.659 A 1.687 1.687 0 0 0 31.183 1.09 A 2.499 2.499 0 0 0 30.727 1.046 Z M 20.531 1.995 L 20.531 6.75 L 19.718 6.75 L 19.718 1.995 L 20.531 1.995 Z M 35.556 1.995 L 35.556 6.75 L 34.743 6.75 L 34.743 1.995 L 35.556 1.995 Z M 9.98 5.418 L 9.98 4.443 L 9.343 4.443 Q 7.849 4.443 7.849 5.317 Q 7.849 5.7 8.104 5.915 A 0.893 0.893 0 0 0 8.517 6.108 A 1.259 1.259 0 0 0 8.758 6.13 A 1.429 1.429 0 0 0 9.483 5.933 A 1.335 1.335 0 0 0 9.779 5.705 A 1.108 1.108 0 0 0 9.98 5.418 Z M 44.306 5.418 L 44.306 4.443 L 43.668 4.443 Q 42.174 4.443 42.174 5.317 Q 42.174 5.7 42.429 5.915 A 0.893 0.893 0 0 0 42.843 6.108 A 1.259 1.259 0 0 0 43.084 6.13 A 1.429 1.429 0 0 0 43.809 5.933 A 1.335 1.335 0 0 0 44.105 5.705 A 1.108 1.108 0 0 0 44.306 5.418 Z M 54.606 3.938 L 56.988 3.938 L 56.988 3.876 Q 56.962 3.417 56.792 3.111 A 1.13 1.13 0 0 0 56.654 2.916 A 0.983 0.983 0 0 0 56 2.584 A 1.39 1.39 0 0 0 55.846 2.575 A 1.106 1.106 0 0 0 55.323 2.698 A 1.14 1.14 0 0 0 55.02 2.933 A 1.417 1.417 0 0 0 54.743 3.379 Q 54.669 3.563 54.629 3.785 A 2.741 2.741 0 0 0 54.606 3.938 Z M 19.652 0.734 Q 19.652 0.536 19.773 0.4 Q 19.885 0.274 20.097 0.264 A 0.783 0.783 0 0 1 20.131 0.264 Q 20.369 0.264 20.492 0.4 A 0.474 0.474 0 0 1 20.614 0.703 A 0.614 0.614 0 0 1 20.615 0.734 A 0.523 0.523 0 0 1 20.589 0.9 A 0.442 0.442 0 0 1 20.492 1.063 Q 20.379 1.184 20.171 1.194 A 0.803 0.803 0 0 1 20.131 1.195 Q 19.959 1.195 19.848 1.126 A 0.362 0.362 0 0 1 19.773 1.063 A 0.456 0.456 0 0 1 19.655 0.788 A 0.605 0.605 0 0 1 19.652 0.734 Z M 34.677 0.734 Q 34.677 0.536 34.798 0.4 Q 34.91 0.274 35.122 0.264 A 0.783 0.783 0 0 1 35.156 0.264 Q 35.394 0.264 35.517 0.4 A 0.474 0.474 0 0 1 35.639 0.703 A 0.614 0.614 0 0 1 35.64 0.734 A 0.523 0.523 0 0 1 35.614 0.9 A 0.442 0.442 0 0 1 35.517 1.063 Q 35.404 1.184 35.196 1.194 A 0.803 0.803 0 0 1 35.156 1.195 Q 34.984 1.195 34.873 1.126 A 0.362 0.362 0 0 1 34.798 1.063 A 0.456 0.456 0 0 1 34.68 0.788 A 0.605 0.605 0 0 1 34.677 0.734 Z" vector-effect="non-scaling-stroke"/></g><g transform="translate(9.48, 64), scale(0.75)" id="svgGroup" stroke-linecap="round" fill-rule="evenodd" font-size="9pt" stroke="#000" stroke-width="0.25mm" fill="#000" style="stroke:#000;stroke-width:0.25mm;fill:#000"><path d="M 3.74 6.399 L 2.351 3.81 L 0.848 3.81 L 0.848 6.399 L 0 6.399 L 0 0 L 2.118 0 A 3.809 3.809 0 0 1 2.76 0.051 Q 3.102 0.109 3.376 0.236 A 1.789 1.789 0 0 1 3.781 0.492 A 1.588 1.588 0 0 1 4.307 1.381 A 2.453 2.453 0 0 1 4.364 1.925 A 1.864 1.864 0 0 1 4.273 2.516 A 1.64 1.64 0 0 1 4.041 2.966 A 1.849 1.849 0 0 1 3.382 3.523 A 2.342 2.342 0 0 1 3.142 3.63 L 4.645 6.346 L 4.645 6.399 L 3.74 6.399 Z M 32.528 1.644 L 33.715 5.208 L 34.822 1.644 L 35.692 1.644 L 33.781 7.132 Q 33.337 8.319 32.37 8.319 L 32.216 8.306 L 31.913 8.249 L 31.913 7.589 L 32.133 7.607 Q 32.413 7.607 32.609 7.53 A 0.75 0.75 0 0 0 32.777 7.44 A 0.749 0.749 0 0 0 32.937 7.278 Q 33.055 7.119 33.145 6.864 A 2.575 2.575 0 0 0 33.157 6.829 L 33.337 6.346 L 31.641 1.644 L 32.528 1.644 Z M 13.214 4.9 L 13.983 4.9 A 1.432 1.432 0 0 1 13.784 5.55 A 1.772 1.772 0 0 1 13.702 5.678 A 1.828 1.828 0 0 1 13.093 6.222 A 2.169 2.169 0 0 1 13.01 6.267 A 1.997 1.997 0 0 1 12.094 6.486 A 2.346 2.346 0 0 1 11.396 6.388 A 1.839 1.839 0 0 1 10.549 5.838 A 2.171 2.171 0 0 1 10.085 4.958 Q 9.976 4.557 9.976 4.065 L 9.976 3.929 A 3.24 3.24 0 0 1 10.039 3.273 A 2.57 2.57 0 0 1 10.23 2.694 A 2.008 2.008 0 0 1 10.67 2.08 A 1.892 1.892 0 0 1 10.962 1.855 A 1.943 1.943 0 0 1 11.718 1.582 A 2.529 2.529 0 0 1 12.089 1.556 A 2.196 2.196 0 0 1 12.737 1.647 A 1.786 1.786 0 0 1 13.419 2.035 A 1.693 1.693 0 0 1 13.977 3.184 A 2.239 2.239 0 0 1 13.983 3.278 L 13.214 3.278 Q 13.179 2.817 12.865 2.52 A 1.078 1.078 0 0 0 12.136 2.224 A 1.402 1.402 0 0 0 12.089 2.224 A 1.374 1.374 0 0 0 11.668 2.285 A 1.081 1.081 0 0 0 11.129 2.67 A 1.469 1.469 0 0 0 10.902 3.117 Q 10.837 3.322 10.809 3.572 A 3.514 3.514 0 0 0 10.789 3.96 L 10.789 4.113 Q 10.789 4.935 11.127 5.379 A 1.1 1.1 0 0 0 11.914 5.813 A 1.611 1.611 0 0 0 12.094 5.823 A 1.171 1.171 0 0 0 12.854 5.559 A 1.007 1.007 0 0 0 13.098 5.278 A 0.914 0.914 0 0 0 13.214 4.9 Z M 5.212 4.153 L 5.212 4.003 A 3.17 3.17 0 0 1 5.288 3.295 A 2.581 2.581 0 0 1 5.482 2.74 A 2.191 2.191 0 0 1 5.93 2.115 A 2.033 2.033 0 0 1 6.238 1.87 Q 6.724 1.556 7.291 1.556 A 2.254 2.254 0 0 1 7.904 1.635 A 1.639 1.639 0 0 1 8.732 2.167 Q 9.246 2.777 9.246 3.916 L 9.246 4.254 L 6.025 4.254 A 2.111 2.111 0 0 0 6.096 4.762 A 1.516 1.516 0 0 0 6.436 5.39 A 1.282 1.282 0 0 0 7.37 5.822 A 1.652 1.652 0 0 0 7.436 5.823 A 1.763 1.763 0 0 0 7.764 5.794 Q 7.988 5.751 8.165 5.647 A 1.827 1.827 0 0 0 8.674 5.199 A 2.068 2.068 0 0 0 8.688 5.181 L 9.185 5.568 A 1.926 1.926 0 0 1 7.785 6.459 A 2.749 2.749 0 0 1 7.392 6.486 A 2.394 2.394 0 0 1 6.64 6.374 A 1.974 1.974 0 0 1 5.818 5.851 Q 5.212 5.216 5.212 4.153 Z M 24.06 4.153 L 24.06 4.003 A 3.17 3.17 0 0 1 24.136 3.295 A 2.581 2.581 0 0 1 24.33 2.74 A 2.191 2.191 0 0 1 24.778 2.115 A 2.033 2.033 0 0 1 25.086 1.87 Q 25.572 1.556 26.139 1.556 A 2.254 2.254 0 0 1 26.752 1.635 A 1.639 1.639 0 0 1 27.58 2.167 Q 28.094 2.777 28.094 3.916 L 28.094 4.254 L 24.873 4.254 A 2.111 2.111 0 0 0 24.944 4.762 A 1.516 1.516 0 0 0 25.284 5.39 A 1.282 1.282 0 0 0 26.218 5.822 A 1.652 1.652 0 0 0 26.284 5.823 A 1.763 1.763 0 0 0 26.612 5.794 Q 26.836 5.751 27.013 5.647 A 1.827 1.827 0 0 0 27.522 5.199 A 2.068 2.068 0 0 0 27.536 5.181 L 28.033 5.568 A 1.926 1.926 0 0 1 26.633 6.459 A 2.749 2.749 0 0 1 26.24 6.486 A 2.394 2.394 0 0 1 25.489 6.374 A 1.974 1.974 0 0 1 24.667 5.851 Q 24.06 5.216 24.06 4.153 Z M 20.325 1.644 L 21.533 5.295 L 22.711 1.644 L 23.542 1.644 L 21.836 6.399 L 21.217 6.399 L 19.494 1.644 L 20.325 1.644 Z M 14.682 4.034 L 14.682 3.977 A 3.057 3.057 0 0 1 14.769 3.236 A 2.573 2.573 0 0 1 14.957 2.72 A 2.16 2.16 0 0 1 15.371 2.135 A 1.957 1.957 0 0 1 15.721 1.859 A 2.036 2.036 0 0 1 16.666 1.562 A 2.491 2.491 0 0 1 16.84 1.556 A 2.277 2.277 0 0 1 17.593 1.675 A 1.937 1.937 0 0 1 18.411 2.228 A 2.29 2.29 0 0 1 18.93 3.257 A 3.373 3.373 0 0 1 19.011 4.017 L 19.011 4.074 A 3.114 3.114 0 0 1 18.931 4.791 A 2.577 2.577 0 0 1 18.745 5.32 A 2.056 2.056 0 0 1 18.218 6.01 A 2.001 2.001 0 0 1 17.985 6.179 A 2.045 2.045 0 0 1 17.065 6.477 A 2.529 2.529 0 0 1 16.849 6.486 A 2.262 2.262 0 0 1 16.098 6.367 A 1.938 1.938 0 0 1 15.282 5.814 A 2.297 2.297 0 0 1 14.756 4.759 A 3.357 3.357 0 0 1 14.682 4.034 Z M 31.333 1.617 L 31.333 2.373 A 2.251 2.251 0 0 0 31.09 2.347 A 2.782 2.782 0 0 0 30.933 2.342 Q 30.155 2.342 29.864 2.987 A 1.445 1.445 0 0 0 29.848 3.024 L 29.848 6.399 L 29.035 6.399 L 29.035 1.644 L 29.826 1.644 L 29.839 2.193 Q 30.219 1.587 30.902 1.557 A 1.636 1.636 0 0 1 30.973 1.556 Q 31.21 1.556 31.333 1.617 Z M 15.5 4.074 A 2.772 2.772 0 0 0 15.547 4.602 Q 15.607 4.913 15.745 5.158 A 1.545 1.545 0 0 0 15.866 5.344 Q 16.233 5.823 16.849 5.823 A 1.269 1.269 0 0 0 17.338 5.732 Q 17.617 5.616 17.82 5.354 A 1.471 1.471 0 0 0 17.833 5.337 A 1.648 1.648 0 0 0 18.088 4.82 Q 18.157 4.593 18.182 4.321 A 3.655 3.655 0 0 0 18.198 3.977 A 2.687 2.687 0 0 0 18.147 3.437 Q 18.079 3.107 17.922 2.849 A 1.586 1.586 0 0 0 17.826 2.709 A 1.231 1.231 0 0 0 17.411 2.354 Q 17.158 2.224 16.84 2.224 Q 16.25 2.224 15.884 2.684 A 1.515 1.515 0 0 0 15.869 2.703 A 1.589 1.589 0 0 0 15.617 3.2 Q 15.547 3.421 15.519 3.687 A 3.676 3.676 0 0 0 15.5 4.074 Z M 0.848 0.694 L 0.848 3.12 L 2.145 3.12 Q 2.685 3.12 3.035 2.88 A 1.174 1.174 0 0 0 3.144 2.795 A 1.069 1.069 0 0 0 3.51 2.058 A 1.486 1.486 0 0 0 3.516 1.925 Q 3.516 1.382 3.22 1.071 A 1 1 0 0 0 3.162 1.015 Q 2.808 0.699 2.14 0.694 L 0.848 0.694 Z M 6.051 3.586 L 8.433 3.586 L 8.433 3.524 Q 8.407 3.066 8.236 2.76 A 1.13 1.13 0 0 0 8.099 2.564 A 0.983 0.983 0 0 0 7.445 2.232 A 1.39 1.39 0 0 0 7.291 2.224 A 1.106 1.106 0 0 0 6.768 2.347 A 1.14 1.14 0 0 0 6.464 2.582 A 1.417 1.417 0 0 0 6.188 3.028 Q 6.114 3.212 6.074 3.434 A 2.741 2.741 0 0 0 6.051 3.586 Z M 24.899 3.586 L 27.281 3.586 L 27.281 3.524 Q 27.255 3.066 27.085 2.76 A 1.13 1.13 0 0 0 26.947 2.564 A 0.983 0.983 0 0 0 26.293 2.232 A 1.39 1.39 0 0 0 26.139 2.224 A 1.106 1.106 0 0 0 25.616 2.347 A 1.14 1.14 0 0 0 25.313 2.582 A 1.417 1.417 0 0 0 25.036 3.028 Q 24.962 3.212 24.922 3.434 A 2.741 2.741 0 0 0 24.899 3.586 Z" vector-effect="non-scaling-stroke"/></g>
</svg>