<?xml version="1.0" encoding="UTF-8"?>
<svg width="80px" height="80px" viewBox="0 0 80 80" version="1.1" xmlns="http://www.w3.org/2000/svg" xmlns:xlink="http://www.w3.org/1999/xlink">
    <title>Icon-Architecture/64/Arch_Amazon-FSx_OpenZFS_64</title>
    
    <g id="Icon-Architecture/64/Arch_Amazon-FSx_OpenZFS_64" stroke="none" stroke-width="1" fill="none" fill-rule="evenodd">
        
        <g id="Icon-Service/64/Amazon-FSx_OpenZFS_64" transform="translate(16, 8), scale(.65)" fill="#000000">
            <path d="M47,37.006 L47,35.006 L37,35.006 L37,37.006 L44.287,37.006 L37.016,45.006 L37,45.006 L37,47.006 L47,47.006 L47,45.006 L39.707,45.006 L47,37.006 Z M4,36.278 L5.953,36.278 L5.953,27.678 L13.403,27.678 L13.403,25.886 L5.953,25.886 L5.953,19.186 L14.766,19.186 L14.766,17.393 L4,17.393 L4,36.278 Z M27.998,36.377 L30.614,36.377 L34.257,31.056 L34.333,30.949 L33.136,29.259 L27.998,36.377 Z M23.858,26.514 L21,25.418 C20.075,25.069 19.354,24.737 18.854,24.432 C18.377,24.139 18.032,23.811 17.824,23.457 C17.619,23.103 17.516,22.627 17.516,22.042 C17.516,20.988 17.851,20.201 18.544,19.637 C19.234,19.072 20.254,18.786 21.575,18.786 C22.953,18.786 24.558,19.105 26.344,19.736 L26.596,19.824 L26.596,18.074 L26.483,18.024 C25.708,17.682 24.876,17.413 24.005,17.225 C23.134,17.036 22.29,16.94 21.494,16.94 C19.73,16.94 18.282,17.418 17.193,18.361 C16.094,19.312 15.536,20.568 15.536,22.095 C15.536,23.223 15.877,24.186 16.545,24.956 C17.203,25.715 18.243,26.374 19.637,26.917 L22.735,28.119 C23.775,28.518 24.531,28.969 24.988,29.461 C25.434,29.938 25.659,30.524 25.659,31.202 C25.659,32.344 25.25,33.222 24.408,33.885 C23.567,34.549 22.417,34.885 20.988,34.885 C19.449,34.885 17.736,34.549 15.896,33.883 L15.644,33.792 L15.644,35.539 L15.752,35.59 C17.32,36.347 19.126,36.731 21.12,36.731 C23.06,36.731 24.653,36.221 25.847,35.218 C27.053,34.205 27.665,32.863 27.665,31.229 C27.665,30.104 27.354,29.151 26.743,28.399 C26.136,27.656 25.167,27.023 23.858,26.514 L23.858,26.514 Z M34.47,25.524 L31.179,20.825 L28.478,20.825 L33.102,27.343 L34.47,25.524 Z M37.102,33.006 L39.812,33.006 L36.412,28.171 L41.683,20.825 L39.096,20.825 L34.986,26.695 L33.824,28.307 L37.102,33.006 Z M50,37.006 L56,37.006 L56,35.006 L50,35.006 L50,37.006 Z M50,47.006 L56,47.006 L56,45.006 L50,45.006 L50,47.006 Z M50,42.006 L60,42.006 L60,40.006 L50,40.006 L50,42.006 Z" id="Fill-1"></path>
        </g>
    </g><g transform="translate(6.937435891882686, 64), scale(0.75)" id="svgGroup" stroke-linecap="round" fill-rule="evenodd" font-size="9pt" stroke="#000" stroke-width="0.25mm" fill="#000" style="stroke:#000;stroke-width:0.25mm;fill:#000"><path d="M 9.22 2.294 L 8.372 2.294 A 1.466 1.466 0 0 0 8.322 1.901 A 1.066 1.066 0 0 0 8.002 1.382 A 1.211 1.211 0 0 0 7.533 1.126 Q 7.281 1.05 6.961 1.05 A 2.286 2.286 0 0 0 6.581 1.08 Q 6.379 1.114 6.217 1.187 A 1.101 1.101 0 0 0 5.988 1.325 A 0.892 0.892 0 0 0 5.643 1.98 A 1.267 1.267 0 0 0 5.638 2.087 A 0.806 0.806 0 0 0 5.906 2.693 A 1.134 1.134 0 0 0 5.97 2.749 A 1.562 1.562 0 0 0 6.208 2.905 Q 6.539 3.086 7.099 3.243 A 8.228 8.228 0 0 1 7.564 3.388 Q 7.799 3.469 7.994 3.556 A 3.297 3.297 0 0 1 8.347 3.738 A 2.342 2.342 0 0 1 8.686 3.982 Q 8.876 4.148 8.998 4.341 A 1.45 1.45 0 0 1 9.015 4.368 A 1.498 1.498 0 0 1 9.212 4.924 A 1.948 1.948 0 0 1 9.233 5.216 A 1.606 1.606 0 0 1 9.111 5.853 Q 8.965 6.193 8.647 6.446 A 1.886 1.886 0 0 1 8.626 6.462 Q 8.02 6.93 7.005 6.93 A 3.023 3.023 0 0 1 5.864 6.715 A 2.917 2.917 0 0 1 5.774 6.677 A 2.383 2.383 0 0 1 5.296 6.4 A 1.874 1.874 0 0 1 4.893 5.985 A 1.689 1.689 0 0 1 4.583 4.988 L 5.432 4.988 A 1.261 1.261 0 0 0 5.501 5.415 A 1.074 1.074 0 0 0 5.86 5.904 Q 6.245 6.206 6.861 6.237 A 2.87 2.87 0 0 0 7.005 6.24 A 2.628 2.628 0 0 0 7.392 6.214 Q 7.588 6.184 7.747 6.123 A 1.129 1.129 0 0 0 8.029 5.968 Q 8.385 5.695 8.385 5.225 A 1.074 1.074 0 0 0 8.342 4.915 A 0.816 0.816 0 0 0 8.055 4.498 Q 7.726 4.241 6.86 3.99 Q 5.774 3.678 5.28 3.223 Q 4.786 2.769 4.786 2.101 Q 4.786 1.345 5.39 0.85 A 2.121 2.121 0 0 1 6.28 0.427 A 3.087 3.087 0 0 1 6.961 0.356 A 2.913 2.913 0 0 1 7.621 0.428 A 2.372 2.372 0 0 1 8.136 0.611 A 2.051 2.051 0 0 1 8.668 0.982 A 1.834 1.834 0 0 1 8.936 1.314 A 1.798 1.798 0 0 1 9.22 2.294 Z M 66.111 2.294 L 65.263 2.294 A 1.466 1.466 0 0 0 65.213 1.901 A 1.066 1.066 0 0 0 64.894 1.382 A 1.211 1.211 0 0 0 64.425 1.126 Q 64.173 1.05 63.853 1.05 A 2.286 2.286 0 0 0 63.473 1.08 Q 63.271 1.114 63.108 1.187 A 1.101 1.101 0 0 0 62.879 1.325 A 0.892 0.892 0 0 0 62.534 1.98 A 1.267 1.267 0 0 0 62.53 2.087 A 0.806 0.806 0 0 0 62.798 2.693 A 1.134 1.134 0 0 0 62.862 2.749 A 1.562 1.562 0 0 0 63.1 2.905 Q 63.43 3.086 63.991 3.243 A 8.228 8.228 0 0 1 64.456 3.388 Q 64.691 3.469 64.885 3.556 A 3.297 3.297 0 0 1 65.239 3.738 A 2.342 2.342 0 0 1 65.578 3.982 Q 65.768 4.148 65.89 4.341 A 1.45 1.45 0 0 1 65.907 4.368 A 1.498 1.498 0 0 1 66.103 4.924 A 1.948 1.948 0 0 1 66.125 5.216 A 1.606 1.606 0 0 1 66.002 5.853 Q 65.857 6.193 65.539 6.446 A 1.886 1.886 0 0 1 65.518 6.462 Q 64.912 6.93 63.896 6.93 A 3.023 3.023 0 0 1 62.756 6.715 A 2.917 2.917 0 0 1 62.666 6.677 A 2.383 2.383 0 0 1 62.188 6.4 A 1.874 1.874 0 0 1 61.785 5.985 A 1.689 1.689 0 0 1 61.475 4.988 L 62.323 4.988 A 1.261 1.261 0 0 0 62.393 5.415 A 1.074 1.074 0 0 0 62.752 5.904 Q 63.136 6.206 63.753 6.237 A 2.87 2.87 0 0 0 63.896 6.24 A 2.628 2.628 0 0 0 64.283 6.214 Q 64.48 6.184 64.639 6.123 A 1.129 1.129 0 0 0 64.92 5.968 Q 65.276 5.695 65.276 5.225 A 1.074 1.074 0 0 0 65.234 4.915 A 0.816 0.816 0 0 0 64.947 4.498 Q 64.617 4.241 63.751 3.99 Q 62.666 3.678 62.172 3.223 Q 61.677 2.769 61.677 2.101 Q 61.677 1.345 62.281 0.85 A 2.121 2.121 0 0 1 63.172 0.427 A 3.087 3.087 0 0 1 63.853 0.356 A 2.913 2.913 0 0 1 64.513 0.428 A 2.372 2.372 0 0 1 65.028 0.611 A 2.051 2.051 0 0 1 65.559 0.982 A 1.834 1.834 0 0 1 65.828 1.314 A 1.798 1.798 0 0 1 66.111 2.294 Z M 55.657 1.063 L 52.137 6.152 L 55.797 6.152 L 55.797 6.842 L 51.139 6.842 L 51.139 6.209 L 54.646 1.138 L 51.196 1.138 L 51.196 0.444 L 55.657 0.444 L 55.657 1.063 Z M 3.529 3.327 L 3.529 4.017 L 0.844 4.017 L 0.844 6.842 L 0 6.842 L 0 0.444 L 3.964 0.444 L 3.964 1.138 L 0.844 1.138 L 0.844 3.327 L 3.529 3.327 Z M 60.42 3.327 L 60.42 4.017 L 57.735 4.017 L 57.735 6.842 L 56.892 6.842 L 56.892 0.444 L 60.855 0.444 L 60.855 1.138 L 57.735 1.138 L 57.735 3.327 L 60.42 3.327 Z M 46.411 2.087 L 47.18 2.087 L 47.206 2.685 Q 47.742 2.01 48.602 2 A 2.234 2.234 0 0 1 48.63 2 A 1.905 1.905 0 0 1 49.263 2.096 Q 50.105 2.392 50.148 3.598 A 3.668 3.668 0 0 1 50.15 3.7 L 50.15 6.842 L 49.337 6.842 L 49.337 3.696 A 1.837 1.837 0 0 0 49.315 3.416 Q 49.265 3.109 49.102 2.936 Q 48.916 2.737 48.563 2.699 A 1.66 1.66 0 0 0 48.384 2.689 A 1.253 1.253 0 0 0 47.969 2.756 A 1.123 1.123 0 0 0 47.689 2.9 A 1.432 1.432 0 0 0 47.224 3.454 L 47.224 6.842 L 46.411 6.842 L 46.411 2.087 Z M 10.74 2.087 L 11.782 3.823 L 12.836 2.087 L 13.786 2.087 L 12.23 4.438 L 13.834 6.842 L 12.894 6.842 L 11.795 5.063 L 10.696 6.842 L 9.751 6.842 L 11.355 4.438 L 9.8 2.087 L 10.74 2.087 Z M 40.61 4.443 L 40.61 4.518 Q 40.61 5.603 40.113 6.267 A 1.57 1.57 0 0 1 38.975 6.92 A 2.013 2.013 0 0 1 38.769 6.93 A 2.196 2.196 0 0 1 38.183 6.856 A 1.598 1.598 0 0 1 37.406 6.381 L 37.406 8.67 L 36.593 8.67 L 36.593 2.087 L 37.336 2.087 L 37.375 2.615 A 1.619 1.619 0 0 1 38.515 2.012 A 2.319 2.319 0 0 1 38.755 2 A 1.829 1.829 0 0 1 39.393 2.106 A 1.597 1.597 0 0 1 40.111 2.646 Q 40.61 3.292 40.61 4.443 Z M 41.436 4.597 L 41.436 4.447 A 3.17 3.17 0 0 1 41.512 3.738 A 2.581 2.581 0 0 1 41.706 3.184 A 2.191 2.191 0 0 1 42.154 2.558 A 2.033 2.033 0 0 1 42.462 2.314 Q 42.948 2 43.515 2 A 2.254 2.254 0 0 1 44.128 2.078 A 1.639 1.639 0 0 1 44.956 2.61 Q 45.47 3.221 45.47 4.359 L 45.47 4.698 L 42.249 4.698 A 2.111 2.111 0 0 0 42.32 5.206 A 1.516 1.516 0 0 0 42.66 5.834 A 1.282 1.282 0 0 0 43.594 6.265 A 1.652 1.652 0 0 0 43.66 6.267 A 1.763 1.763 0 0 0 43.988 6.238 Q 44.212 6.195 44.389 6.091 A 1.827 1.827 0 0 0 44.898 5.643 A 2.068 2.068 0 0 0 44.912 5.625 L 45.409 6.012 A 1.926 1.926 0 0 1 44.009 6.903 A 2.749 2.749 0 0 1 43.616 6.93 A 2.394 2.394 0 0 1 42.865 6.817 A 1.974 1.974 0 0 1 42.042 6.295 Q 41.436 5.66 41.436 4.597 Z M 18.088 6.842 L 17.275 6.842 L 17.275 2.716 L 16.523 2.716 L 16.523 2.087 L 17.275 2.087 L 17.275 1.6 Q 17.275 1.012 17.517 0.629 A 1.273 1.273 0 0 1 17.684 0.417 Q 18.092 0 18.839 0 A 2.134 2.134 0 0 1 19.397 0.075 L 19.354 0.734 Q 19.147 0.694 18.914 0.694 A 1.086 1.086 0 0 0 18.666 0.721 Q 18.445 0.773 18.303 0.925 A 0.747 0.747 0 0 0 18.137 1.221 Q 18.102 1.336 18.092 1.475 A 1.57 1.57 0 0 0 18.088 1.586 L 18.088 2.087 L 19.103 2.087 L 19.103 2.716 L 18.088 2.716 L 18.088 6.842 Z M 35.455 3.445 L 35.455 3.85 A 4.729 4.729 0 0 1 35.39 4.653 A 3.455 3.455 0 0 1 35.139 5.491 A 2.648 2.648 0 0 1 34.742 6.126 A 2.226 2.226 0 0 1 34.242 6.561 A 2.362 2.362 0 0 1 33.224 6.912 A 2.993 2.993 0 0 1 32.889 6.93 A 2.618 2.618 0 0 1 32.082 6.809 A 2.313 2.313 0 0 1 31.548 6.559 A 2.392 2.392 0 0 1 30.748 5.707 A 2.953 2.953 0 0 1 30.641 5.5 A 3.426 3.426 0 0 1 30.364 4.581 A 4.535 4.535 0 0 1 30.309 3.907 L 30.309 3.445 A 4.52 4.52 0 0 1 30.384 2.602 A 3.461 3.461 0 0 1 30.63 1.815 Q 30.951 1.107 31.537 0.732 A 2.389 2.389 0 0 1 32.694 0.362 A 2.92 2.92 0 0 1 32.88 0.356 A 2.702 2.702 0 0 1 33.656 0.464 A 2.318 2.318 0 0 1 34.236 0.727 A 2.31 2.31 0 0 1 35.009 1.549 A 2.912 2.912 0 0 1 35.139 1.804 A 3.525 3.525 0 0 1 35.399 2.697 A 4.763 4.763 0 0 1 35.455 3.445 Z M 19.784 4.478 L 19.784 4.421 A 3.057 3.057 0 0 1 19.871 3.679 A 2.573 2.573 0 0 1 20.059 3.164 A 2.16 2.16 0 0 1 20.474 2.579 A 1.957 1.957 0 0 1 20.823 2.303 A 2.036 2.036 0 0 1 21.768 2.006 A 2.491 2.491 0 0 1 21.942 2 A 2.277 2.277 0 0 1 22.695 2.119 A 1.937 1.937 0 0 1 23.513 2.672 A 2.29 2.29 0 0 1 24.032 3.701 A 3.373 3.373 0 0 1 24.113 4.46 L 24.113 4.518 A 3.114 3.114 0 0 1 24.033 5.234 A 2.577 2.577 0 0 1 23.847 5.763 A 2.056 2.056 0 0 1 23.32 6.454 A 2.001 2.001 0 0 1 23.087 6.623 A 2.045 2.045 0 0 1 22.167 6.921 A 2.529 2.529 0 0 1 21.951 6.93 A 2.262 2.262 0 0 1 21.2 6.811 A 1.938 1.938 0 0 1 20.384 6.258 A 2.297 2.297 0 0 1 19.858 5.203 A 3.357 3.357 0 0 1 19.784 4.478 Z M 27.431 2.061 L 27.431 2.817 A 2.251 2.251 0 0 0 27.188 2.79 A 2.782 2.782 0 0 0 27.031 2.786 Q 26.253 2.786 25.961 3.43 A 1.445 1.445 0 0 0 25.945 3.467 L 25.945 6.842 L 25.132 6.842 L 25.132 2.087 L 25.923 2.087 L 25.937 2.637 Q 26.317 2.031 26.999 2.001 A 1.636 1.636 0 0 1 27.07 2 Q 27.308 2 27.431 2.061 Z M 34.616 3.911 L 34.616 3.437 A 4.551 4.551 0 0 0 34.571 2.777 Q 34.522 2.443 34.419 2.171 A 1.944 1.944 0 0 0 34.159 1.69 Q 33.702 1.081 32.88 1.081 Q 32.08 1.081 31.621 1.69 A 2.112 2.112 0 0 0 31.296 2.338 Q 31.208 2.619 31.173 2.956 A 4.531 4.531 0 0 0 31.148 3.379 L 31.148 3.85 A 4.254 4.254 0 0 0 31.198 4.523 Q 31.256 4.881 31.38 5.172 A 2.039 2.039 0 0 0 31.612 5.583 A 1.472 1.472 0 0 0 32.679 6.203 A 1.931 1.931 0 0 0 32.889 6.214 A 1.79 1.79 0 0 0 33.447 6.131 A 1.423 1.423 0 0 0 34.154 5.618 A 2.017 2.017 0 0 0 34.455 5.024 Q 34.608 4.554 34.616 3.911 Z M 20.602 4.518 A 2.772 2.772 0 0 0 20.649 5.046 Q 20.709 5.357 20.847 5.602 A 1.545 1.545 0 0 0 20.969 5.788 Q 21.335 6.267 21.951 6.267 A 1.269 1.269 0 0 0 22.44 6.175 Q 22.719 6.06 22.922 5.798 A 1.471 1.471 0 0 0 22.935 5.781 A 1.648 1.648 0 0 0 23.19 5.264 Q 23.259 5.037 23.284 4.764 A 3.655 3.655 0 0 0 23.3 4.421 A 2.687 2.687 0 0 0 23.249 3.881 Q 23.181 3.551 23.024 3.292 A 1.586 1.586 0 0 0 22.928 3.153 A 1.231 1.231 0 0 0 22.513 2.798 Q 22.26 2.667 21.942 2.667 Q 21.352 2.667 20.986 3.127 A 1.515 1.515 0 0 0 20.971 3.146 A 1.589 1.589 0 0 0 20.719 3.644 Q 20.649 3.864 20.621 4.131 A 3.676 3.676 0 0 0 20.602 4.518 Z M 37.406 3.344 L 37.406 5.616 Q 37.771 6.267 38.522 6.267 A 1.184 1.184 0 0 0 38.988 6.178 Q 39.245 6.069 39.434 5.827 A 1.403 1.403 0 0 0 39.452 5.803 A 1.501 1.501 0 0 0 39.669 5.372 Q 39.737 5.165 39.769 4.911 A 3.91 3.91 0 0 0 39.797 4.425 Q 39.797 3.838 39.614 3.431 A 1.503 1.503 0 0 0 39.454 3.155 A 1.086 1.086 0 0 0 38.668 2.698 A 1.414 1.414 0 0 0 38.514 2.689 Q 37.853 2.689 37.488 3.213 A 1.623 1.623 0 0 0 37.406 3.344 Z M 42.275 4.03 L 44.657 4.03 L 44.657 3.968 Q 44.631 3.509 44.461 3.204 A 1.13 1.13 0 0 0 44.323 3.008 A 0.983 0.983 0 0 0 43.669 2.676 A 1.39 1.39 0 0 0 43.515 2.667 A 1.106 1.106 0 0 0 42.992 2.79 A 1.14 1.14 0 0 0 42.688 3.026 A 1.417 1.417 0 0 0 42.412 3.472 Q 42.338 3.656 42.298 3.878 A 2.741 2.741 0 0 0 42.275 4.03 Z" vector-effect="non-scaling-stroke"/></g>
</svg>