<?xml version="1.0" encoding="UTF-8"?>
<svg width="80px" height="80px" viewBox="0 0 80 80" version="1.1" xmlns="http://www.w3.org/2000/svg" xmlns:xlink="http://www.w3.org/1999/xlink">
    <title>Icon-Architecture/64/Arch_Amazon-Simple-Storage-Service_64</title>
    
    <g id="Icon-Architecture/64/Arch_Amazon-Simple-Storage-Service_64" stroke="none" stroke-width="1" fill="none" fill-rule="evenodd">
        
        <g id="Icon-Service/64/Amazon-Simple-Storage-Service_64" transform="translate(16, 8), scale(.65)" fill="#000000">
            <path d="M52.8359,34.8926 L53.2199,32.1886 C56.7609,34.3096 56.8069,35.1856 56.8059132,35.2096 C56.7999,35.2146 56.1959,35.7186 52.8359,34.8926 L52.8359,34.8926 Z M50.8929,34.3526 C44.7729,32.5006 36.2499,28.5906 32.8009,26.9606 C32.8009,26.9466 32.8049,26.9336 32.8049,26.9196 C32.8049,25.5946 31.7269,24.5166 30.4009,24.5166 C29.0769,24.5166 27.9989,25.5946 27.9989,26.9196 C27.9989,28.2446 29.0769,29.3226 30.4009,29.3226 C30.9829,29.3226 31.5109,29.1056 31.9279,28.7606 C35.9859,30.6816 44.4429,34.5346 50.6079,36.3546 L48.1699,53.5606 C48.1629,53.6076 48.1599,53.6546 48.1599,53.7016 C48.1599,55.2166 41.4529,57.9996 30.4939,57.9996 C19.4189,57.9996 12.6409,55.2166 12.6409,53.7016 C12.6409,53.6556 12.6379,53.6106 12.6319,53.5656 L7.5379,16.3586 C11.9469,19.3936 21.4299,20.9996 30.4999,20.9996 C39.5559,20.9996 49.0229,19.3996 53.4409,16.3736 L50.8929,34.3526 Z M6.9999,12.4776 C7.0719,11.1616 14.6339,5.9996 30.4999,5.9996 C46.3639,5.9996 53.9269,11.1606 53.9999,12.4776 L53.9999,12.9266 C53.1299,15.8776 43.3299,18.9996 30.4999,18.9996 C17.6479,18.9996 7.8429,15.8676 6.9999,12.9126 L6.9999,12.4776 Z M55.9999,12.4996 C55.9999,9.0346 46.0659,3.9996 30.4999,3.9996 C14.9339,3.9996 4.9999,9.0346 4.9999,12.4996 L5.0939,13.2536 L10.6419,53.7776 C10.7749,58.3096 22.8609,59.9996 30.4939,59.9996 C39.9659,59.9996 50.0289,57.8216 50.1589,53.7806 L52.5549,36.8836 C53.8879,37.2026 54.9849,37.3656 55.8659,37.3656 C57.0489,37.3656 57.8489,37.0766 58.3339,36.4986 C58.7319,36.0246 58.8839,35.4506 58.7699,34.8396 C58.5109,33.4556 56.8679,31.9636 53.5219,30.0546 L55.8979,13.2926 L55.9999,12.4996 Z" id="Amazon-Simple-Storage-Service-Icon_64_Squid"></path>
        </g>
    </g><g id="svgGroup" stroke-linecap="round" fill-rule="evenodd" font-size="9pt" stroke="#000" stroke-width="0.25mm" fill="#000" style="stroke:#000;stroke-width:0.25mm;fill:#000"><path d="M 7.783 1.995 L 8.552 1.995 L 8.574 2.522 Q 9.097 1.907 9.985 1.907 A 2.009 2.009 0 0 1 10.495 1.968 A 1.244 1.244 0 0 1 11.342 2.672 A 1.801 1.801 0 0 1 11.96 2.118 A 1.65 1.65 0 0 1 12.489 1.937 A 2.209 2.209 0 0 1 12.859 1.907 A 2.119 2.119 0 0 1 13.503 1.997 Q 14.429 2.292 14.449 3.564 L 14.449 6.75 L 13.636 6.75 L 13.636 3.612 A 1.781 1.781 0 0 0 13.616 3.332 Q 13.592 3.185 13.542 3.067 A 0.758 0.758 0 0 0 13.403 2.85 A 0.68 0.68 0 0 0 13.151 2.682 Q 12.939 2.597 12.622 2.597 A 1.245 1.245 0 0 0 12.256 2.648 A 1.008 1.008 0 0 0 11.87 2.867 A 1.042 1.042 0 0 0 11.556 3.404 A 1.41 1.41 0 0 0 11.523 3.595 L 11.523 6.75 L 10.705 6.75 L 10.705 3.634 A 1.532 1.532 0 0 0 10.657 3.23 Q 10.53 2.768 10.073 2.643 A 1.457 1.457 0 0 0 9.69 2.597 Q 8.916 2.597 8.616 3.234 A 1.459 1.459 0 0 0 8.596 3.278 L 8.596 6.75 L 7.783 6.75 L 7.783 1.995 Z M 4.636 2.202 L 3.788 2.202 A 1.466 1.466 0 0 0 3.738 1.809 A 1.066 1.066 0 0 0 3.419 1.29 A 1.211 1.211 0 0 0 2.95 1.033 Q 2.698 0.958 2.378 0.958 A 2.286 2.286 0 0 0 1.998 0.988 Q 1.796 1.022 1.633 1.095 A 1.101 1.101 0 0 0 1.404 1.233 A 0.892 0.892 0 0 0 1.059 1.887 A 1.267 1.267 0 0 0 1.055 1.995 A 0.806 0.806 0 0 0 1.323 2.6 A 1.134 1.134 0 0 0 1.387 2.656 A 1.562 1.562 0 0 0 1.625 2.813 Q 1.955 2.993 2.516 3.151 A 8.228 8.228 0 0 1 2.981 3.295 Q 3.216 3.377 3.41 3.464 A 3.297 3.297 0 0 1 3.764 3.645 A 2.342 2.342 0 0 1 4.103 3.889 Q 4.293 4.056 4.415 4.248 A 1.45 1.45 0 0 1 4.432 4.276 A 1.498 1.498 0 0 1 4.628 4.832 A 1.948 1.948 0 0 1 4.65 5.124 A 1.606 1.606 0 0 1 4.527 5.76 Q 4.382 6.101 4.064 6.354 A 1.886 1.886 0 0 1 4.043 6.37 Q 3.437 6.838 2.422 6.838 A 3.023 3.023 0 0 1 1.281 6.623 A 2.917 2.917 0 0 1 1.191 6.585 A 2.383 2.383 0 0 1 0.713 6.307 A 1.874 1.874 0 0 1 0.31 5.893 A 1.689 1.689 0 0 1 0 4.896 L 0.848 4.896 A 1.261 1.261 0 0 0 0.918 5.323 A 1.074 1.074 0 0 0 1.277 5.812 Q 1.661 6.113 2.278 6.144 A 2.87 2.87 0 0 0 2.422 6.148 A 2.628 2.628 0 0 0 2.809 6.121 Q 3.005 6.092 3.164 6.031 A 1.129 1.129 0 0 0 3.445 5.875 Q 3.801 5.603 3.801 5.133 A 1.074 1.074 0 0 0 3.759 4.822 A 0.816 0.816 0 0 0 3.472 4.406 Q 3.142 4.148 2.277 3.898 Q 1.191 3.586 0.697 3.131 Q 0.202 2.676 0.202 2.008 Q 0.202 1.252 0.807 0.758 A 2.121 2.121 0 0 1 1.697 0.335 A 3.087 3.087 0 0 1 2.378 0.264 A 2.913 2.913 0 0 1 3.038 0.336 A 2.372 2.372 0 0 1 3.553 0.519 A 2.051 2.051 0 0 1 4.084 0.889 A 1.834 1.834 0 0 1 4.353 1.222 A 1.798 1.798 0 0 1 4.636 2.202 Z M 34.277 2.202 L 33.429 2.202 A 1.466 1.466 0 0 0 33.38 1.809 A 1.066 1.066 0 0 0 33.06 1.29 A 1.211 1.211 0 0 0 32.591 1.033 Q 32.339 0.958 32.019 0.958 A 2.286 2.286 0 0 0 31.639 0.988 Q 31.437 1.022 31.274 1.095 A 1.101 1.101 0 0 0 31.045 1.233 A 0.892 0.892 0 0 0 30.7 1.887 A 1.267 1.267 0 0 0 30.696 1.995 A 0.806 0.806 0 0 0 30.964 2.6 A 1.134 1.134 0 0 0 31.028 2.656 A 1.562 1.562 0 0 0 31.266 2.813 Q 31.596 2.993 32.157 3.151 A 8.228 8.228 0 0 1 32.622 3.295 Q 32.857 3.377 33.051 3.464 A 3.297 3.297 0 0 1 33.405 3.645 A 2.342 2.342 0 0 1 33.744 3.889 Q 33.934 4.056 34.056 4.248 A 1.45 1.45 0 0 1 34.073 4.276 A 1.498 1.498 0 0 1 34.269 4.832 A 1.948 1.948 0 0 1 34.291 5.124 A 1.606 1.606 0 0 1 34.168 5.76 Q 34.023 6.101 33.705 6.354 A 1.886 1.886 0 0 1 33.684 6.37 Q 33.078 6.838 32.063 6.838 A 3.023 3.023 0 0 1 30.922 6.623 A 2.917 2.917 0 0 1 30.832 6.585 A 2.383 2.383 0 0 1 30.354 6.307 A 1.874 1.874 0 0 1 29.951 5.893 A 1.689 1.689 0 0 1 29.641 4.896 L 30.489 4.896 A 1.261 1.261 0 0 0 30.559 5.323 A 1.074 1.074 0 0 0 30.918 5.812 Q 31.302 6.113 31.919 6.144 A 2.87 2.87 0 0 0 32.063 6.148 A 2.628 2.628 0 0 0 32.45 6.121 Q 32.646 6.092 32.805 6.031 A 1.129 1.129 0 0 0 33.087 5.875 Q 33.443 5.603 33.443 5.133 A 1.074 1.074 0 0 0 33.4 4.822 A 0.816 0.816 0 0 0 33.113 4.406 Q 32.783 4.148 31.918 3.898 Q 30.832 3.586 30.338 3.131 Q 29.843 2.676 29.843 2.008 Q 29.843 1.252 30.448 0.758 A 2.121 2.121 0 0 1 31.338 0.335 A 3.087 3.087 0 0 1 32.019 0.264 A 2.913 2.913 0 0 1 32.679 0.336 A 2.372 2.372 0 0 1 33.194 0.519 A 2.051 2.051 0 0 1 33.725 0.889 A 1.834 1.834 0 0 1 33.994 1.222 A 1.798 1.798 0 0 1 34.277 2.202 Z M 54.035 2.522 L 54.075 1.995 L 54.818 1.995 L 54.818 6.636 A 2.511 2.511 0 0 1 54.747 7.249 A 1.738 1.738 0 0 1 54.27 8.09 A 1.834 1.834 0 0 1 53.341 8.57 A 2.671 2.671 0 0 1 52.8 8.622 A 2.446 2.446 0 0 1 51.794 8.402 A 2.003 2.003 0 0 1 51.384 8.161 A 1.563 1.563 0 0 1 51.043 7.8 L 51.465 7.313 A 1.889 1.889 0 0 0 51.899 7.712 A 1.514 1.514 0 0 0 52.743 7.958 A 1.695 1.695 0 0 0 53.12 7.919 Q 53.389 7.858 53.583 7.702 A 1.037 1.037 0 0 0 53.668 7.625 A 1.09 1.09 0 0 0 53.945 7.132 Q 53.992 6.959 53.999 6.752 A 2.134 2.134 0 0 0 54 6.684 L 54 6.275 A 1.601 1.601 0 0 1 52.948 6.821 A 2.279 2.279 0 0 1 52.669 6.838 A 1.672 1.672 0 0 1 51.913 6.67 Q 51.591 6.51 51.342 6.197 A 2.14 2.14 0 0 1 51.317 6.166 A 2.316 2.316 0 0 1 50.934 5.386 Q 50.801 4.922 50.801 4.333 Q 50.801 3.472 51.109 2.884 A 2.096 2.096 0 0 1 51.315 2.564 Q 51.829 1.907 52.677 1.907 A 1.971 1.971 0 0 1 53.276 1.994 A 1.55 1.55 0 0 1 54.035 2.522 Z M 49.887 6.75 L 49.034 6.75 A 0.632 0.632 0 0 1 48.999 6.66 Q 48.968 6.562 48.943 6.41 A 3.997 3.997 0 0 1 48.92 6.249 Q 48.353 6.838 47.567 6.838 A 2.033 2.033 0 0 1 47.037 6.772 A 1.529 1.529 0 0 1 46.413 6.44 Q 45.963 6.042 45.963 5.432 Q 45.963 4.689 46.527 4.278 Q 47.092 3.867 48.116 3.867 L 48.907 3.867 L 48.907 3.494 A 1.152 1.152 0 0 0 48.871 3.199 A 0.828 0.828 0 0 0 48.652 2.815 Q 48.436 2.6 48.045 2.568 A 1.748 1.748 0 0 0 47.901 2.562 Q 47.465 2.562 47.171 2.782 Q 46.877 3.001 46.877 3.313 L 46.059 3.313 A 1.041 1.041 0 0 1 46.184 2.825 A 1.409 1.409 0 0 1 46.312 2.626 Q 46.565 2.294 46.997 2.101 A 2.249 2.249 0 0 1 47.773 1.913 A 2.669 2.669 0 0 1 47.949 1.907 A 2.65 2.65 0 0 1 48.466 1.955 Q 48.774 2.016 49.012 2.156 A 1.439 1.439 0 0 1 49.236 2.318 A 1.396 1.396 0 0 1 49.69 3.144 A 1.998 1.998 0 0 1 49.72 3.45 L 49.72 5.638 Q 49.72 6.073 49.794 6.39 A 1.707 1.707 0 0 0 49.887 6.68 L 49.887 6.75 Z M 19.692 4.351 L 19.692 4.425 Q 19.692 5.511 19.195 6.174 A 1.57 1.57 0 0 1 18.057 6.828 A 2.013 2.013 0 0 1 17.851 6.838 A 2.196 2.196 0 0 1 17.265 6.764 A 1.598 1.598 0 0 1 16.488 6.289 L 16.488 8.578 L 15.675 8.578 L 15.675 1.995 L 16.418 1.995 L 16.458 2.522 A 1.619 1.619 0 0 1 17.597 1.919 A 2.319 2.319 0 0 1 17.838 1.907 A 1.829 1.829 0 0 1 18.475 2.014 A 1.597 1.597 0 0 1 19.193 2.553 Q 19.692 3.199 19.692 4.351 Z M 22.702 4.504 L 22.702 4.355 A 3.17 3.17 0 0 1 22.779 3.646 A 2.581 2.581 0 0 1 22.973 3.092 A 2.191 2.191 0 0 1 23.42 2.466 A 2.033 2.033 0 0 1 23.728 2.221 Q 24.214 1.907 24.781 1.907 A 2.254 2.254 0 0 1 25.394 1.986 A 1.639 1.639 0 0 1 26.222 2.518 Q 26.736 3.129 26.736 4.267 L 26.736 4.605 L 23.515 4.605 A 2.111 2.111 0 0 0 23.586 5.114 A 1.516 1.516 0 0 0 23.926 5.741 A 1.282 1.282 0 0 0 24.86 6.173 A 1.652 1.652 0 0 0 24.926 6.174 A 1.763 1.763 0 0 0 25.254 6.145 Q 25.478 6.103 25.655 5.999 A 1.827 1.827 0 0 0 26.164 5.551 A 2.068 2.068 0 0 0 26.178 5.533 L 26.675 5.919 A 1.926 1.926 0 0 1 25.275 6.811 A 2.749 2.749 0 0 1 24.882 6.838 A 2.394 2.394 0 0 1 24.131 6.725 A 1.974 1.974 0 0 1 23.309 6.203 Q 22.702 5.568 22.702 4.504 Z M 55.837 4.504 L 55.837 4.355 A 3.17 3.17 0 0 1 55.913 3.646 A 2.581 2.581 0 0 1 56.107 3.092 A 2.191 2.191 0 0 1 56.555 2.466 A 2.033 2.033 0 0 1 56.863 2.221 Q 57.349 1.907 57.916 1.907 A 2.254 2.254 0 0 1 58.529 1.986 A 1.639 1.639 0 0 1 59.357 2.518 Q 59.871 3.129 59.871 4.267 L 59.871 4.605 L 56.65 4.605 A 2.111 2.111 0 0 0 56.721 5.114 A 1.516 1.516 0 0 0 57.061 5.741 A 1.282 1.282 0 0 0 57.995 6.173 A 1.652 1.652 0 0 0 58.061 6.174 A 1.763 1.763 0 0 0 58.389 6.145 Q 58.613 6.103 58.79 5.999 A 1.827 1.827 0 0 0 59.299 5.551 A 2.068 2.068 0 0 0 59.313 5.533 L 59.81 5.919 A 1.926 1.926 0 0 1 58.41 6.811 A 2.749 2.749 0 0 1 58.017 6.838 A 2.394 2.394 0 0 1 57.266 6.725 A 1.974 1.974 0 0 1 56.444 6.203 Q 55.837 5.568 55.837 4.504 Z M 35.534 0.844 L 36.347 0.844 L 36.347 1.995 L 37.235 1.995 L 37.235 2.624 L 36.347 2.624 L 36.347 5.572 Q 36.347 5.858 36.466 6.001 Q 36.585 6.144 36.87 6.144 A 1.046 1.046 0 0 0 36.968 6.138 Q 37.071 6.129 37.21 6.101 A 4.024 4.024 0 0 0 37.257 6.091 L 37.257 6.75 A 2.463 2.463 0 0 1 36.824 6.829 A 2.157 2.157 0 0 1 36.633 6.838 Q 36.186 6.838 35.919 6.616 A 0.856 0.856 0 0 1 35.811 6.508 Q 35.584 6.238 35.543 5.78 A 2.351 2.351 0 0 1 35.534 5.572 L 35.534 2.624 L 34.669 2.624 L 34.669 1.995 L 35.534 1.995 L 35.534 0.844 Z M 21.608 0 L 21.608 6.75 L 20.795 6.75 L 20.795 0 L 21.608 0 Z M 37.881 4.386 L 37.881 4.329 A 3.057 3.057 0 0 1 37.968 3.587 A 2.573 2.573 0 0 1 38.156 3.072 A 2.16 2.16 0 0 1 38.57 2.486 A 1.957 1.957 0 0 1 38.92 2.21 A 2.036 2.036 0 0 1 39.865 1.913 A 2.491 2.491 0 0 1 40.039 1.907 A 2.277 2.277 0 0 1 40.792 2.027 A 1.937 1.937 0 0 1 41.61 2.58 A 2.29 2.29 0 0 1 42.129 3.608 A 3.373 3.373 0 0 1 42.21 4.368 L 42.21 4.425 A 3.114 3.114 0 0 1 42.13 5.142 A 2.577 2.577 0 0 1 41.944 5.671 A 2.056 2.056 0 0 1 41.416 6.361 A 2.001 2.001 0 0 1 41.183 6.53 A 2.045 2.045 0 0 1 40.264 6.829 A 2.529 2.529 0 0 1 40.048 6.838 A 2.262 2.262 0 0 1 39.297 6.718 A 1.938 1.938 0 0 1 38.481 6.166 A 2.297 2.297 0 0 1 37.955 5.111 A 3.357 3.357 0 0 1 37.881 4.386 Z M 45.527 1.969 L 45.527 2.725 A 2.251 2.251 0 0 0 45.285 2.698 A 2.782 2.782 0 0 0 45.128 2.694 Q 44.35 2.694 44.058 3.338 A 1.445 1.445 0 0 0 44.042 3.375 L 44.042 6.75 L 43.229 6.75 L 43.229 1.995 L 44.02 1.995 L 44.033 2.544 Q 44.414 1.938 45.096 1.909 A 1.636 1.636 0 0 1 45.167 1.907 Q 45.404 1.907 45.527 1.969 Z M 6.486 1.995 L 6.486 6.75 L 5.673 6.75 L 5.673 1.995 L 6.486 1.995 Z M 38.698 4.425 A 2.772 2.772 0 0 0 38.746 4.954 Q 38.806 5.264 38.944 5.51 A 1.545 1.545 0 0 0 39.065 5.695 Q 39.432 6.174 40.048 6.174 A 1.269 1.269 0 0 0 40.537 6.083 Q 40.816 5.967 41.019 5.706 A 1.471 1.471 0 0 0 41.032 5.689 A 1.648 1.648 0 0 0 41.287 5.171 Q 41.355 4.945 41.381 4.672 A 3.655 3.655 0 0 0 41.397 4.329 A 2.687 2.687 0 0 0 41.345 3.789 Q 41.278 3.459 41.12 3.2 A 1.586 1.586 0 0 0 41.025 3.061 A 1.231 1.231 0 0 0 40.61 2.705 Q 40.357 2.575 40.039 2.575 Q 39.449 2.575 39.083 3.035 A 1.515 1.515 0 0 0 39.068 3.054 A 1.589 1.589 0 0 0 38.815 3.552 Q 38.746 3.772 38.718 4.039 A 3.676 3.676 0 0 0 38.698 4.425 Z M 16.488 3.252 L 16.488 5.524 Q 16.853 6.174 17.605 6.174 A 1.184 1.184 0 0 0 18.07 6.086 Q 18.327 5.977 18.516 5.735 A 1.403 1.403 0 0 0 18.534 5.711 A 1.501 1.501 0 0 0 18.751 5.28 Q 18.819 5.073 18.851 4.818 A 3.91 3.91 0 0 0 18.879 4.333 Q 18.879 3.746 18.696 3.339 A 1.503 1.503 0 0 0 18.536 3.063 A 1.086 1.086 0 0 0 17.75 2.605 A 1.414 1.414 0 0 0 17.596 2.597 Q 16.935 2.597 16.57 3.121 A 1.623 1.623 0 0 0 16.488 3.252 Z M 54 5.449 L 54 3.278 A 1.439 1.439 0 0 0 53.699 2.891 Q 53.396 2.62 52.955 2.599 A 1.578 1.578 0 0 0 52.88 2.597 Q 52.288 2.597 51.954 3.056 A 1.51 1.51 0 0 0 51.743 3.484 Q 51.677 3.689 51.646 3.939 A 3.955 3.955 0 0 0 51.618 4.425 Q 51.618 5.229 51.948 5.689 Q 52.277 6.148 52.871 6.148 A 1.32 1.32 0 0 0 53.38 6.054 Q 53.772 5.891 54 5.449 Z M 48.907 5.418 L 48.907 4.443 L 48.27 4.443 Q 46.776 4.443 46.776 5.317 Q 46.776 5.7 47.03 5.915 A 0.893 0.893 0 0 0 47.444 6.108 A 1.259 1.259 0 0 0 47.685 6.13 A 1.429 1.429 0 0 0 48.41 5.933 A 1.335 1.335 0 0 0 48.706 5.705 A 1.108 1.108 0 0 0 48.907 5.418 Z M 23.542 3.938 L 25.923 3.938 L 25.923 3.876 Q 25.897 3.417 25.727 3.111 A 1.13 1.13 0 0 0 25.59 2.916 A 0.983 0.983 0 0 0 24.935 2.584 A 1.39 1.39 0 0 0 24.781 2.575 A 1.106 1.106 0 0 0 24.258 2.698 A 1.14 1.14 0 0 0 23.955 2.933 A 1.417 1.417 0 0 0 23.678 3.379 Q 23.604 3.563 23.565 3.785 A 2.741 2.741 0 0 0 23.542 3.938 Z M 56.676 3.938 L 59.058 3.938 L 59.058 3.876 Q 59.032 3.417 58.862 3.111 A 1.13 1.13 0 0 0 58.724 2.916 A 0.983 0.983 0 0 0 58.07 2.584 A 1.39 1.39 0 0 0 57.916 2.575 A 1.106 1.106 0 0 0 57.393 2.698 A 1.14 1.14 0 0 0 57.09 2.933 A 1.417 1.417 0 0 0 56.813 3.379 Q 56.739 3.563 56.699 3.785 A 2.741 2.741 0 0 0 56.676 3.938 Z M 5.608 0.734 Q 5.608 0.536 5.728 0.4 Q 5.84 0.274 6.052 0.264 A 0.783 0.783 0 0 1 6.087 0.264 Q 6.324 0.264 6.447 0.4 A 0.474 0.474 0 0 1 6.569 0.703 A 0.614 0.614 0 0 1 6.57 0.734 A 0.523 0.523 0 0 1 6.545 0.9 A 0.442 0.442 0 0 1 6.447 1.063 Q 6.334 1.184 6.126 1.194 A 0.803 0.803 0 0 1 6.087 1.195 Q 5.914 1.195 5.803 1.126 A 0.362 0.362 0 0 1 5.728 1.063 A 0.456 0.456 0 0 1 5.61 0.788 A 0.605 0.605 0 0 1 5.608 0.734 Z" vector-effect="non-scaling-stroke"/></g><g transform="translate(10.064431117995255, 64), scale(0.75)" id="svgGroup" stroke-linecap="round" fill-rule="evenodd" font-size="9pt" stroke="#000" stroke-width="0.25mm" fill="#000" style="stroke:#000;stroke-width:0.25mm;fill:#000"><path d="M 4.636 1.938 L 3.788 1.938 A 1.466 1.466 0 0 0 3.738 1.546 A 1.066 1.066 0 0 0 3.419 1.026 A 1.211 1.211 0 0 0 2.95 0.77 Q 2.698 0.694 2.378 0.694 A 2.286 2.286 0 0 0 1.998 0.724 Q 1.796 0.758 1.633 0.831 A 1.101 1.101 0 0 0 1.404 0.969 A 0.892 0.892 0 0 0 1.059 1.624 A 1.267 1.267 0 0 0 1.055 1.732 A 0.806 0.806 0 0 0 1.323 2.337 A 1.134 1.134 0 0 0 1.387 2.393 A 1.562 1.562 0 0 0 1.625 2.549 Q 1.955 2.73 2.516 2.887 A 8.228 8.228 0 0 1 2.981 3.032 Q 3.216 3.113 3.41 3.2 A 3.297 3.297 0 0 1 3.764 3.382 A 2.342 2.342 0 0 1 4.103 3.626 Q 4.293 3.792 4.415 3.985 A 1.45 1.45 0 0 1 4.432 4.012 A 1.498 1.498 0 0 1 4.628 4.568 A 1.948 1.948 0 0 1 4.65 4.86 A 1.606 1.606 0 0 1 4.527 5.497 Q 4.382 5.838 4.064 6.09 A 1.886 1.886 0 0 1 4.043 6.106 Q 3.437 6.574 2.422 6.574 A 3.023 3.023 0 0 1 1.281 6.36 A 2.917 2.917 0 0 1 1.191 6.322 A 2.383 2.383 0 0 1 0.713 6.044 A 1.874 1.874 0 0 1 0.31 5.629 A 1.689 1.689 0 0 1 0 4.632 L 0.848 4.632 A 1.261 1.261 0 0 0 0.918 5.059 A 1.074 1.074 0 0 0 1.277 5.548 Q 1.661 5.85 2.278 5.881 A 2.87 2.87 0 0 0 2.422 5.884 A 2.628 2.628 0 0 0 2.809 5.858 Q 3.005 5.828 3.164 5.767 A 1.129 1.129 0 0 0 3.445 5.612 Q 3.801 5.339 3.801 4.869 A 1.074 1.074 0 0 0 3.759 4.559 A 0.816 0.816 0 0 0 3.472 4.142 Q 3.142 3.885 2.277 3.634 Q 1.191 3.322 0.697 2.868 Q 0.202 2.413 0.202 1.745 Q 0.202 0.989 0.807 0.494 A 2.121 2.121 0 0 1 1.697 0.071 A 3.087 3.087 0 0 1 2.378 0 A 2.913 2.913 0 0 1 3.038 0.072 A 2.372 2.372 0 0 1 3.553 0.255 A 2.051 2.051 0 0 1 4.084 0.626 A 1.834 1.834 0 0 1 4.353 0.958 A 1.798 1.798 0 0 1 4.636 1.938 Z M 23.067 4.988 L 23.836 4.988 A 1.432 1.432 0 0 1 23.637 5.638 A 1.772 1.772 0 0 1 23.555 5.766 A 1.828 1.828 0 0 1 22.946 6.31 A 2.169 2.169 0 0 1 22.863 6.355 A 1.997 1.997 0 0 1 21.946 6.574 A 2.346 2.346 0 0 1 21.249 6.476 A 1.839 1.839 0 0 1 20.402 5.926 A 2.171 2.171 0 0 1 19.938 5.046 Q 19.828 4.645 19.828 4.153 L 19.828 4.017 A 3.24 3.24 0 0 1 19.892 3.361 A 2.57 2.57 0 0 1 20.083 2.782 A 2.008 2.008 0 0 1 20.523 2.168 A 1.892 1.892 0 0 1 20.815 1.942 A 1.943 1.943 0 0 1 21.571 1.67 A 2.529 2.529 0 0 1 21.942 1.644 A 2.196 2.196 0 0 1 22.59 1.735 A 1.786 1.786 0 0 1 23.271 2.123 A 1.693 1.693 0 0 1 23.83 3.272 A 2.239 2.239 0 0 1 23.836 3.366 L 23.067 3.366 Q 23.032 2.905 22.718 2.608 A 1.078 1.078 0 0 0 21.989 2.312 A 1.402 1.402 0 0 0 21.942 2.312 A 1.374 1.374 0 0 0 21.521 2.373 A 1.081 1.081 0 0 0 20.982 2.758 A 1.469 1.469 0 0 0 20.755 3.205 Q 20.689 3.41 20.662 3.66 A 3.514 3.514 0 0 0 20.641 4.047 L 20.641 4.201 Q 20.641 5.023 20.98 5.467 A 1.1 1.1 0 0 0 21.766 5.901 A 1.611 1.611 0 0 0 21.946 5.911 A 1.171 1.171 0 0 0 22.707 5.647 A 1.007 1.007 0 0 0 22.951 5.366 A 0.914 0.914 0 0 0 23.067 4.988 Z M 5.397 4.241 L 5.397 4.091 A 3.17 3.17 0 0 1 5.473 3.382 A 2.581 2.581 0 0 1 5.667 2.828 A 2.191 2.191 0 0 1 6.114 2.202 A 2.033 2.033 0 0 1 6.423 1.958 Q 6.908 1.644 7.475 1.644 A 2.254 2.254 0 0 1 8.088 1.723 A 1.639 1.639 0 0 1 8.917 2.254 Q 9.431 2.865 9.431 4.003 L 9.431 4.342 L 6.21 4.342 A 2.111 2.111 0 0 0 6.281 4.85 A 1.516 1.516 0 0 0 6.621 5.478 A 1.282 1.282 0 0 0 7.555 5.909 A 1.652 1.652 0 0 0 7.62 5.911 A 1.763 1.763 0 0 0 7.948 5.882 Q 8.172 5.839 8.35 5.735 A 1.827 1.827 0 0 0 8.859 5.287 A 2.068 2.068 0 0 0 8.873 5.269 L 9.369 5.656 A 1.926 1.926 0 0 1 7.97 6.547 A 2.749 2.749 0 0 1 7.576 6.574 A 2.394 2.394 0 0 1 6.825 6.461 A 1.974 1.974 0 0 1 6.003 5.939 Q 5.397 5.304 5.397 4.241 Z M 24.544 4.241 L 24.544 4.091 A 3.17 3.17 0 0 1 24.62 3.382 A 2.581 2.581 0 0 1 24.814 2.828 A 2.191 2.191 0 0 1 25.261 2.202 A 2.033 2.033 0 0 1 25.57 1.958 Q 26.055 1.644 26.622 1.644 A 2.254 2.254 0 0 1 27.235 1.723 A 1.639 1.639 0 0 1 28.064 2.254 Q 28.578 2.865 28.578 4.003 L 28.578 4.342 L 25.357 4.342 A 2.111 2.111 0 0 0 25.428 4.85 A 1.516 1.516 0 0 0 25.767 5.478 A 1.282 1.282 0 0 0 26.702 5.909 A 1.652 1.652 0 0 0 26.767 5.911 A 1.763 1.763 0 0 0 27.095 5.882 Q 27.319 5.839 27.497 5.735 A 1.827 1.827 0 0 0 28.006 5.287 A 2.068 2.068 0 0 0 28.02 5.269 L 28.516 5.656 A 1.926 1.926 0 0 1 27.117 6.547 A 2.749 2.749 0 0 1 26.723 6.574 A 2.394 2.394 0 0 1 25.972 6.461 A 1.974 1.974 0 0 1 25.15 5.939 Q 24.544 5.304 24.544 4.241 Z M 13.856 1.732 L 15.065 5.383 L 16.242 1.732 L 17.073 1.732 L 15.368 6.486 L 14.748 6.486 L 13.026 1.732 L 13.856 1.732 Z M 12.67 1.705 L 12.67 2.461 A 2.251 2.251 0 0 0 12.427 2.435 A 2.782 2.782 0 0 0 12.27 2.43 Q 11.492 2.43 11.2 3.074 A 1.445 1.445 0 0 0 11.184 3.111 L 11.184 6.486 L 10.371 6.486 L 10.371 1.732 L 11.162 1.732 L 11.175 2.281 Q 11.556 1.675 12.238 1.645 A 1.636 1.636 0 0 1 12.309 1.644 Q 12.547 1.644 12.67 1.705 Z M 18.738 1.732 L 18.738 6.486 L 17.925 6.486 L 17.925 1.732 L 18.738 1.732 Z M 6.236 3.674 L 8.618 3.674 L 8.618 3.612 Q 8.592 3.153 8.421 2.848 A 1.13 1.13 0 0 0 8.284 2.652 A 0.983 0.983 0 0 0 7.629 2.32 A 1.39 1.39 0 0 0 7.475 2.312 A 1.106 1.106 0 0 0 6.953 2.435 A 1.14 1.14 0 0 0 6.649 2.67 A 1.417 1.417 0 0 0 6.372 3.116 Q 6.299 3.3 6.259 3.522 A 2.741 2.741 0 0 0 6.236 3.674 Z M 25.383 3.674 L 27.765 3.674 L 27.765 3.612 Q 27.739 3.153 27.568 2.848 A 1.13 1.13 0 0 0 27.431 2.652 A 0.983 0.983 0 0 0 26.776 2.32 A 1.39 1.39 0 0 0 26.622 2.312 A 1.106 1.106 0 0 0 26.1 2.435 A 1.14 1.14 0 0 0 25.796 2.67 A 1.417 1.417 0 0 0 25.519 3.116 Q 25.446 3.3 25.406 3.522 A 2.741 2.741 0 0 0 25.383 3.674 Z M 17.86 0.47 Q 17.86 0.273 17.98 0.136 Q 18.092 0.01 18.304 0.001 A 0.783 0.783 0 0 1 18.339 0 Q 18.576 0 18.699 0.136 A 0.474 0.474 0 0 1 18.821 0.44 A 0.614 0.614 0 0 1 18.822 0.47 A 0.523 0.523 0 0 1 18.797 0.636 A 0.442 0.442 0 0 1 18.699 0.8 Q 18.586 0.92 18.378 0.931 A 0.803 0.803 0 0 1 18.339 0.932 Q 18.166 0.932 18.055 0.862 A 0.362 0.362 0 0 1 17.98 0.8 A 0.456 0.456 0 0 1 17.862 0.525 A 0.605 0.605 0 0 1 17.86 0.47 Z" vector-effect="non-scaling-stroke"/></g>
</svg>