<?xml version="1.0" encoding="UTF-8"?>
<svg width="80px" height="80px" viewBox="0 0 80 80" version="1.1" xmlns="http://www.w3.org/2000/svg" xmlns:xlink="http://www.w3.org/1999/xlink">
    <!-- Generator: Sketch 64 (93537) - https://sketch.com -->
    <title>Icon-Architecture/64/Arch_AWS-Training-Certification_64</title>
    <desc>Created with Sketch.</desc>
    
    <g id="Icon-Architecture/64/Arch_AWS-Training-Certification_64" stroke="none" stroke-width="1" fill="none" fill-rule="evenodd">
        
        <path transform="translate(0vw, 0vh), scale(.65)" d="M65.5,37.6685 L54.5,31.3175 C54.191,31.1405 53.809,31.1405 53.5,31.3175 L42.5,37.6685 C42.19,37.8475 42,38.1775 42,38.5345 L42,48.5815 L44,47.4265 L44,39.1115 L54,33.3385 L64,39.1115 L64,50.6595 L54,56.4335 L47.201,52.5075 L45.201,53.6625 L53.5,58.4535 C53.654,58.5425 53.827,58.5875 54,58.5875 C54.173,58.5875 54.346,58.5425 54.5,58.4535 L65.5,52.1035 C65.81,51.9245 66,51.5945 66,51.2365 L66,38.5345 C66,38.1775 65.81,37.8475 65.5,37.6685 L65.5,37.6685 Z M23,39.7815 C23,36.1975 25.916,33.2815 29.5,33.2815 C33.084,33.2815 36,36.1975 36,39.7815 C36,43.3655 33.084,46.2815 29.5,46.2815 C25.916,46.2815 23,43.3655 23,39.7815 L23,39.7815 Z M65,25.9645 L16,25.9645 C15.447,26.2815 15,26.7295 15,27.2815 L15,54.8025 C15,55.1605 15.192,55.4925 15.504,55.6705 L36.78,67.8325 C36.934,67.9205 37.105,67.9645 37.276,67.9645 C37.447,67.9645 37.619,67.9205 37.772,67.8325 L51.828,59.7985 L49.824,58.6405 L45.609,61.0495 C45.316,59.0885 44.69,57.1785 43.724,55.3995 L43.298,54.7615 L41.565,55.7615 L42.013,56.4315 C42.958,58.1775 43.536,60.1225 43.727,62.1255 L37.276,65.8135 L17.84,54.7025 C20.576,51.0825 24.889,48.9215 29.498,48.9215 C32.14,48.9215 34.708,49.6485 36.931,51.0255 L37.275,51.3095 L39.126,50.2405 L38.149,49.4395 C38.116,49.4115 38.081,49.3865 38.045,49.3635 C36.574,48.4435 34.967,47.7815 33.29,47.3785 C36.077,45.9815 38,43.1055 38,39.7815 C38,35.0955 34.187,31.2815 29.5,31.2815 C24.813,31.2815 21,35.0955 21,39.7815 C21,43.0945 22.909,45.9625 25.682,47.3645 C22.324,48.1495 19.28,49.9555 17,52.5465 L17,27.9645 L64,27.9645 L64,32.9645 L66,34.1195 L66,27.2815 C66,26.7295 65.553,26.2815 65,25.9645 L65,25.9645 Z M20.017,23.9645 L37.009,14.1535 L54,23.9645 L58,23.9645 L37.509,12.1335 C37.2,11.9555 36.817,11.9555 36.509,12.1335 L16.016,23.9645 L20.017,23.9645 Z M33.591,58.0565 L32.591,56.3235 L51.827,45.2175 L52.827,46.9495 L33.591,58.0565 Z" id="AWS-Training-Certification_Icon_64_Squid" fill="#000000"></path>
    </g><g transform="translate(-1.4095000000000013, 64), scale(0.75)" id="svgGroup" stroke-linecap="round" fill-rule="evenodd" font-size="9pt" stroke="#000" stroke-width="0.25mm" fill="#000" style="stroke:#000;stroke-width:0.25mm;fill:#000"><path d="M 39.098 4.812 L 39.946 4.812 A 3.016 3.016 0 0 1 39.785 5.508 A 2.099 2.099 0 0 1 39.197 6.379 Q 38.566 6.93 37.521 6.93 A 2.553 2.553 0 0 1 36.651 6.788 A 2.194 2.194 0 0 1 35.703 6.117 A 2.789 2.789 0 0 1 35.142 4.994 Q 35.035 4.576 35.022 4.084 A 5.262 5.262 0 0 1 35.02 3.942 L 35.02 3.327 A 4.251 4.251 0 0 1 35.09 2.538 A 3.229 3.229 0 0 1 35.339 1.758 A 2.539 2.539 0 0 1 35.794 1.082 A 2.26 2.26 0 0 1 36.242 0.719 A 2.415 2.415 0 0 1 37.268 0.373 A 3.027 3.027 0 0 1 37.595 0.356 A 2.962 2.962 0 0 1 38.301 0.436 A 2.065 2.065 0 0 1 39.23 0.925 A 2.16 2.16 0 0 1 39.825 1.887 A 3.086 3.086 0 0 1 39.946 2.5 L 39.098 2.5 Q 39.029 2.021 38.86 1.708 A 1.223 1.223 0 0 0 38.621 1.393 A 1.207 1.207 0 0 0 38.116 1.116 Q 37.929 1.063 37.706 1.053 A 2.396 2.396 0 0 0 37.595 1.05 A 1.753 1.753 0 0 0 37.017 1.141 A 1.463 1.463 0 0 0 36.327 1.648 A 1.989 1.989 0 0 0 36.013 2.268 Q 35.868 2.728 35.868 3.349 L 35.868 3.968 Q 35.868 5.01 36.303 5.625 A 1.38 1.38 0 0 0 37.302 6.227 A 1.814 1.814 0 0 0 37.521 6.24 A 2.497 2.497 0 0 0 37.928 6.209 Q 38.147 6.173 38.323 6.094 A 1.155 1.155 0 0 0 38.599 5.922 Q 38.975 5.603 39.098 4.812 Z M 30.876 2.615 L 30.916 2.087 L 31.658 2.087 L 31.658 6.728 A 2.511 2.511 0 0 1 31.588 7.341 A 1.738 1.738 0 0 1 31.111 8.183 A 1.834 1.834 0 0 1 30.181 8.662 A 2.671 2.671 0 0 1 29.641 8.714 A 2.446 2.446 0 0 1 28.635 8.495 A 2.003 2.003 0 0 1 28.225 8.253 A 1.563 1.563 0 0 1 27.883 7.893 L 28.305 7.405 A 1.889 1.889 0 0 0 28.74 7.805 A 1.514 1.514 0 0 0 29.584 8.051 A 1.695 1.695 0 0 0 29.961 8.011 Q 30.229 7.95 30.423 7.794 A 1.037 1.037 0 0 0 30.509 7.717 A 1.09 1.09 0 0 0 30.786 7.224 Q 30.833 7.051 30.84 6.845 A 2.134 2.134 0 0 0 30.841 6.776 L 30.841 6.368 A 1.601 1.601 0 0 1 29.789 6.914 A 2.279 2.279 0 0 1 29.509 6.93 A 1.672 1.672 0 0 1 28.754 6.762 Q 28.432 6.602 28.182 6.289 A 2.14 2.14 0 0 1 28.158 6.258 A 2.316 2.316 0 0 1 27.775 5.478 Q 27.642 5.014 27.642 4.425 Q 27.642 3.564 27.95 2.976 A 2.096 2.096 0 0 1 28.156 2.656 Q 28.67 2 29.518 2 A 1.971 1.971 0 0 1 30.117 2.086 A 1.55 1.55 0 0 1 30.876 2.615 Z M 15.719 2.087 L 16.488 2.087 L 16.515 2.685 Q 17.051 2.01 17.911 2 A 2.234 2.234 0 0 1 17.938 2 A 1.905 1.905 0 0 1 18.572 2.096 Q 19.414 2.392 19.457 3.598 A 3.668 3.668 0 0 1 19.459 3.7 L 19.459 6.842 L 18.646 6.842 L 18.646 3.696 A 1.837 1.837 0 0 0 18.624 3.416 Q 18.574 3.109 18.411 2.936 Q 18.225 2.737 17.871 2.699 A 1.66 1.66 0 0 0 17.692 2.689 A 1.253 1.253 0 0 0 17.278 2.756 A 1.123 1.123 0 0 0 16.998 2.9 A 1.432 1.432 0 0 0 16.532 3.454 L 16.532 6.842 L 15.719 6.842 L 15.719 2.087 Z M 22.869 2.087 L 23.638 2.087 L 23.665 2.685 Q 24.201 2.01 25.061 2 A 2.234 2.234 0 0 1 25.088 2 A 1.905 1.905 0 0 1 25.722 2.096 Q 26.564 2.392 26.607 3.598 A 3.668 3.668 0 0 1 26.609 3.7 L 26.609 6.842 L 25.796 6.842 L 25.796 3.696 A 1.837 1.837 0 0 0 25.774 3.416 Q 25.723 3.109 25.561 2.936 Q 25.375 2.737 25.021 2.699 A 1.66 1.66 0 0 0 24.842 2.689 A 1.253 1.253 0 0 0 24.428 2.756 A 1.123 1.123 0 0 0 24.148 2.9 A 1.432 1.432 0 0 0 23.682 3.454 L 23.682 6.842 L 22.869 6.842 L 22.869 2.087 Z M 79.08 2.087 L 79.849 2.087 L 79.875 2.685 Q 80.411 2.01 81.271 2 A 2.234 2.234 0 0 1 81.299 2 A 1.905 1.905 0 0 1 81.932 2.096 Q 82.774 2.392 82.817 3.598 A 3.668 3.668 0 0 1 82.819 3.7 L 82.819 6.842 L 82.006 6.842 L 82.006 3.696 A 1.837 1.837 0 0 0 81.984 3.416 Q 81.934 3.109 81.771 2.936 Q 81.585 2.737 81.232 2.699 A 1.66 1.66 0 0 0 81.053 2.689 A 1.253 1.253 0 0 0 80.638 2.756 A 1.123 1.123 0 0 0 80.358 2.9 A 1.432 1.432 0 0 0 79.893 3.454 L 79.893 6.842 L 79.08 6.842 L 79.08 2.087 Z M 62.244 5.344 L 63.013 5.344 A 1.432 1.432 0 0 1 62.814 5.994 A 1.772 1.772 0 0 1 62.732 6.122 A 1.828 1.828 0 0 1 62.123 6.666 A 2.169 2.169 0 0 1 62.04 6.71 A 1.997 1.997 0 0 1 61.124 6.93 A 2.346 2.346 0 0 1 60.426 6.832 A 1.839 1.839 0 0 1 59.579 6.282 A 2.171 2.171 0 0 1 59.115 5.402 Q 59.005 5.001 59.005 4.509 L 59.005 4.373 A 3.24 3.24 0 0 1 59.069 3.717 A 2.57 2.57 0 0 1 59.26 3.138 A 2.008 2.008 0 0 1 59.7 2.523 A 1.892 1.892 0 0 1 59.992 2.298 A 1.943 1.943 0 0 1 60.748 2.026 A 2.529 2.529 0 0 1 61.119 2 A 2.196 2.196 0 0 1 61.767 2.091 A 1.786 1.786 0 0 1 62.448 2.479 A 1.693 1.693 0 0 1 63.007 3.628 A 2.239 2.239 0 0 1 63.013 3.722 L 62.244 3.722 Q 62.209 3.261 61.895 2.964 A 1.078 1.078 0 0 0 61.166 2.668 A 1.402 1.402 0 0 0 61.119 2.667 A 1.374 1.374 0 0 0 60.698 2.729 A 1.081 1.081 0 0 0 60.159 3.114 A 1.469 1.469 0 0 0 59.932 3.561 Q 59.866 3.766 59.839 4.015 A 3.514 3.514 0 0 0 59.818 4.403 L 59.818 4.557 Q 59.818 5.379 60.157 5.823 A 1.1 1.1 0 0 0 60.943 6.257 A 1.611 1.611 0 0 0 61.124 6.267 A 1.171 1.171 0 0 0 61.884 6.003 A 1.007 1.007 0 0 0 62.128 5.722 A 0.914 0.914 0 0 0 62.244 5.344 Z M 4.948 0.444 L 4.948 1.138 L 2.892 1.138 L 2.892 6.842 L 2.052 6.842 L 2.052 1.138 L 0 1.138 L 0 0.444 L 4.948 0.444 Z M 12.428 6.842 L 11.575 6.842 A 0.632 0.632 0 0 1 11.54 6.752 Q 11.508 6.654 11.484 6.502 A 3.997 3.997 0 0 1 11.461 6.341 Q 10.894 6.93 10.107 6.93 A 2.033 2.033 0 0 1 9.578 6.865 A 1.529 1.529 0 0 1 8.954 6.532 Q 8.503 6.135 8.503 5.524 Q 8.503 4.781 9.068 4.37 Q 9.633 3.959 10.657 3.959 L 11.448 3.959 L 11.448 3.586 A 1.152 1.152 0 0 0 11.412 3.291 A 0.828 0.828 0 0 0 11.193 2.907 Q 10.977 2.693 10.586 2.66 A 1.748 1.748 0 0 0 10.441 2.654 Q 10.006 2.654 9.712 2.874 Q 9.417 3.094 9.417 3.406 L 8.6 3.406 A 1.041 1.041 0 0 1 8.725 2.917 A 1.409 1.409 0 0 1 8.853 2.718 Q 9.105 2.386 9.538 2.193 A 2.249 2.249 0 0 1 10.314 2.005 A 2.669 2.669 0 0 1 10.49 2 A 2.65 2.65 0 0 1 11.007 2.047 Q 11.314 2.108 11.553 2.248 A 1.439 1.439 0 0 1 11.777 2.41 A 1.396 1.396 0 0 1 12.231 3.236 A 1.998 1.998 0 0 1 12.261 3.542 L 12.261 5.73 Q 12.261 6.165 12.334 6.482 A 1.707 1.707 0 0 0 12.428 6.772 L 12.428 6.842 Z M 67.715 6.842 L 66.863 6.842 A 0.632 0.632 0 0 1 66.827 6.752 Q 66.796 6.654 66.771 6.502 A 3.997 3.997 0 0 1 66.749 6.341 Q 66.182 6.93 65.395 6.93 A 2.033 2.033 0 0 1 64.866 6.865 A 1.529 1.529 0 0 1 64.241 6.532 Q 63.791 6.135 63.791 5.524 Q 63.791 4.781 64.356 4.37 Q 64.92 3.959 65.944 3.959 L 66.735 3.959 L 66.735 3.586 A 1.152 1.152 0 0 0 66.7 3.291 A 0.828 0.828 0 0 0 66.48 2.907 Q 66.264 2.693 65.874 2.66 A 1.748 1.748 0 0 0 65.729 2.654 Q 65.294 2.654 65 2.874 Q 64.705 3.094 64.705 3.406 L 63.888 3.406 A 1.041 1.041 0 0 1 64.013 2.917 A 1.409 1.409 0 0 1 64.14 2.718 Q 64.393 2.386 64.826 2.193 A 2.249 2.249 0 0 1 65.602 2.005 A 2.669 2.669 0 0 1 65.777 2 A 2.65 2.65 0 0 1 66.295 2.047 Q 66.602 2.108 66.841 2.248 A 1.439 1.439 0 0 1 67.065 2.41 A 1.396 1.396 0 0 1 67.518 3.236 A 1.998 1.998 0 0 1 67.548 3.542 L 67.548 5.73 Q 67.548 6.165 67.622 6.482 A 1.707 1.707 0 0 0 67.715 6.772 L 67.715 6.842 Z M 40.764 4.597 L 40.764 4.447 A 3.17 3.17 0 0 1 40.84 3.738 A 2.581 2.581 0 0 1 41.034 3.184 A 2.191 2.191 0 0 1 41.481 2.558 A 2.033 2.033 0 0 1 41.79 2.314 Q 42.275 2 42.842 2 A 2.254 2.254 0 0 1 43.455 2.078 A 1.639 1.639 0 0 1 44.284 2.61 Q 44.798 3.221 44.798 4.359 L 44.798 4.698 L 41.577 4.698 A 2.111 2.111 0 0 0 41.648 5.206 A 1.516 1.516 0 0 0 41.988 5.834 A 1.282 1.282 0 0 0 42.922 6.265 A 1.652 1.652 0 0 0 42.987 6.267 A 1.763 1.763 0 0 0 43.315 6.238 Q 43.539 6.195 43.717 6.091 A 1.827 1.827 0 0 0 44.226 5.643 A 2.068 2.068 0 0 0 44.24 5.625 L 44.736 6.012 A 1.926 1.926 0 0 1 43.337 6.903 A 2.749 2.749 0 0 1 42.943 6.93 A 2.394 2.394 0 0 1 42.192 6.817 A 1.974 1.974 0 0 1 41.37 6.295 Q 40.764 5.66 40.764 4.597 Z M 55.121 6.842 L 54.308 6.842 L 54.308 2.716 L 53.556 2.716 L 53.556 2.087 L 54.308 2.087 L 54.308 1.6 Q 54.308 1.012 54.549 0.629 A 1.273 1.273 0 0 1 54.716 0.417 Q 55.125 0 55.872 0 A 2.134 2.134 0 0 1 56.43 0.075 L 56.386 0.734 Q 56.18 0.694 55.947 0.694 A 1.086 1.086 0 0 0 55.699 0.721 Q 55.478 0.773 55.336 0.925 A 0.747 0.747 0 0 0 55.17 1.221 Q 55.134 1.336 55.124 1.475 A 1.57 1.57 0 0 0 55.121 1.586 L 55.121 2.087 L 56.136 2.087 L 56.136 2.716 L 55.121 2.716 L 55.121 6.842 Z M 49.074 0.936 L 49.887 0.936 L 49.887 2.087 L 50.774 2.087 L 50.774 2.716 L 49.887 2.716 L 49.887 5.665 Q 49.887 5.95 50.005 6.093 Q 50.124 6.236 50.41 6.236 A 1.046 1.046 0 0 0 50.507 6.231 Q 50.61 6.221 50.75 6.193 A 4.024 4.024 0 0 0 50.796 6.183 L 50.796 6.842 A 2.463 2.463 0 0 1 50.364 6.922 A 2.157 2.157 0 0 1 50.172 6.93 Q 49.725 6.93 49.459 6.708 A 0.856 0.856 0 0 1 49.351 6.601 Q 49.123 6.33 49.083 5.872 A 2.351 2.351 0 0 1 49.074 5.665 L 49.074 2.716 L 48.208 2.716 L 48.208 2.087 L 49.074 2.087 L 49.074 0.936 Z M 69.113 0.936 L 69.926 0.936 L 69.926 2.087 L 70.813 2.087 L 70.813 2.716 L 69.926 2.716 L 69.926 5.665 Q 69.926 5.95 70.044 6.093 Q 70.163 6.236 70.449 6.236 A 1.046 1.046 0 0 0 70.546 6.231 Q 70.649 6.221 70.789 6.193 A 4.024 4.024 0 0 0 70.835 6.183 L 70.835 6.842 A 2.463 2.463 0 0 1 70.403 6.922 A 2.157 2.157 0 0 1 70.211 6.93 Q 69.764 6.93 69.498 6.708 A 0.856 0.856 0 0 1 69.39 6.601 Q 69.162 6.33 69.122 5.872 A 2.351 2.351 0 0 1 69.113 5.665 L 69.113 2.716 L 68.247 2.716 L 68.247 2.087 L 69.113 2.087 L 69.113 0.936 Z M 73.731 4.478 L 73.731 4.421 A 3.057 3.057 0 0 1 73.818 3.679 A 2.573 2.573 0 0 1 74.006 3.164 A 2.16 2.16 0 0 1 74.421 2.579 A 1.957 1.957 0 0 1 74.771 2.303 A 2.036 2.036 0 0 1 75.715 2.006 A 2.491 2.491 0 0 1 75.889 2 A 2.277 2.277 0 0 1 76.643 2.119 A 1.937 1.937 0 0 1 77.46 2.672 A 2.29 2.29 0 0 1 77.979 3.701 A 3.373 3.373 0 0 1 78.06 4.46 L 78.06 4.518 A 3.114 3.114 0 0 1 77.981 5.234 A 2.577 2.577 0 0 1 77.794 5.763 A 2.056 2.056 0 0 1 77.267 6.454 A 2.001 2.001 0 0 1 77.034 6.623 A 2.045 2.045 0 0 1 76.114 6.921 A 2.529 2.529 0 0 1 75.898 6.93 A 2.262 2.262 0 0 1 75.148 6.811 A 1.938 1.938 0 0 1 74.331 6.258 A 2.297 2.297 0 0 1 73.806 5.203 A 3.357 3.357 0 0 1 73.731 4.478 Z M 8.068 2.061 L 8.068 2.817 A 2.251 2.251 0 0 0 7.826 2.79 A 2.782 2.782 0 0 0 7.668 2.786 Q 6.891 2.786 6.599 3.43 A 1.445 1.445 0 0 0 6.583 3.467 L 6.583 6.842 L 5.77 6.842 L 5.77 2.087 L 6.561 2.087 L 6.574 2.637 Q 6.955 2.031 7.637 2.001 A 1.636 1.636 0 0 1 7.708 2 Q 7.945 2 8.068 2.061 Z M 48.037 2.061 L 48.037 2.817 A 2.251 2.251 0 0 0 47.794 2.79 A 2.782 2.782 0 0 0 47.637 2.786 Q 46.859 2.786 46.567 3.43 A 1.445 1.445 0 0 0 46.551 3.467 L 46.551 6.842 L 45.738 6.842 L 45.738 2.087 L 46.529 2.087 L 46.542 2.637 Q 46.923 2.031 47.605 2.001 A 1.636 1.636 0 0 1 47.676 2 Q 47.914 2 48.037 2.061 Z M 14.418 2.087 L 14.418 6.842 L 13.605 6.842 L 13.605 2.087 L 14.418 2.087 Z M 21.568 2.087 L 21.568 6.842 L 20.755 6.842 L 20.755 2.087 L 21.568 2.087 Z M 52.607 2.087 L 52.607 6.842 L 51.794 6.842 L 51.794 2.087 L 52.607 2.087 Z M 57.916 2.087 L 57.916 6.842 L 57.103 6.842 L 57.103 2.087 L 57.916 2.087 Z M 72.646 2.087 L 72.646 6.842 L 71.833 6.842 L 71.833 2.087 L 72.646 2.087 Z M 74.549 4.518 A 2.772 2.772 0 0 0 74.596 5.046 Q 74.657 5.357 74.794 5.602 A 1.545 1.545 0 0 0 74.916 5.788 Q 75.283 6.267 75.898 6.267 A 1.269 1.269 0 0 0 76.387 6.175 Q 76.667 6.06 76.869 5.798 A 1.471 1.471 0 0 0 76.882 5.781 A 1.648 1.648 0 0 0 77.137 5.264 Q 77.206 5.037 77.232 4.764 A 3.655 3.655 0 0 0 77.247 4.421 A 2.687 2.687 0 0 0 77.196 3.881 Q 77.128 3.551 76.971 3.292 A 1.586 1.586 0 0 0 76.876 3.153 A 1.231 1.231 0 0 0 76.461 2.798 Q 76.208 2.667 75.889 2.667 Q 75.299 2.667 74.933 3.127 A 1.515 1.515 0 0 0 74.918 3.146 A 1.589 1.589 0 0 0 74.666 3.644 Q 74.596 3.864 74.568 4.131 A 3.676 3.676 0 0 0 74.549 4.518 Z M 30.841 5.542 L 30.841 3.371 A 1.439 1.439 0 0 0 30.54 2.983 Q 30.236 2.712 29.796 2.691 A 1.578 1.578 0 0 0 29.72 2.689 Q 29.128 2.689 28.795 3.149 A 1.51 1.51 0 0 0 28.584 3.577 Q 28.518 3.781 28.487 4.031 A 3.955 3.955 0 0 0 28.459 4.518 Q 28.459 5.322 28.789 5.781 Q 29.118 6.24 29.711 6.24 A 1.32 1.32 0 0 0 30.221 6.146 Q 30.613 5.984 30.841 5.542 Z M 11.448 5.511 L 11.448 4.535 L 10.811 4.535 Q 9.316 4.535 9.316 5.41 Q 9.316 5.792 9.571 6.007 A 0.893 0.893 0 0 0 9.985 6.201 A 1.259 1.259 0 0 0 10.226 6.223 A 1.429 1.429 0 0 0 10.951 6.025 A 1.335 1.335 0 0 0 11.247 5.797 A 1.108 1.108 0 0 0 11.448 5.511 Z M 66.735 5.511 L 66.735 4.535 L 66.098 4.535 Q 64.604 4.535 64.604 5.41 Q 64.604 5.792 64.859 6.007 A 0.893 0.893 0 0 0 65.272 6.201 A 1.259 1.259 0 0 0 65.514 6.223 A 1.429 1.429 0 0 0 66.239 6.025 A 1.335 1.335 0 0 0 66.534 5.797 A 1.108 1.108 0 0 0 66.735 5.511 Z M 41.603 4.03 L 43.985 4.03 L 43.985 3.968 Q 43.959 3.509 43.788 3.204 A 1.13 1.13 0 0 0 43.651 3.008 A 0.983 0.983 0 0 0 42.996 2.676 A 1.39 1.39 0 0 0 42.842 2.667 A 1.106 1.106 0 0 0 42.32 2.79 A 1.14 1.14 0 0 0 42.016 3.026 A 1.417 1.417 0 0 0 41.739 3.472 Q 41.666 3.656 41.626 3.878 A 2.741 2.741 0 0 0 41.603 4.03 Z M 13.54 0.826 Q 13.54 0.628 13.66 0.492 Q 13.772 0.366 13.984 0.357 A 0.783 0.783 0 0 1 14.019 0.356 Q 14.256 0.356 14.379 0.492 A 0.474 0.474 0 0 1 14.501 0.796 A 0.614 0.614 0 0 1 14.502 0.826 A 0.523 0.523 0 0 1 14.477 0.992 A 0.442 0.442 0 0 1 14.379 1.156 Q 14.266 1.276 14.058 1.287 A 0.803 0.803 0 0 1 14.019 1.288 Q 13.846 1.288 13.735 1.218 A 0.362 0.362 0 0 1 13.66 1.156 A 0.456 0.456 0 0 1 13.542 0.88 A 0.605 0.605 0 0 1 13.54 0.826 Z M 20.689 0.826 Q 20.689 0.628 20.81 0.492 Q 20.922 0.366 21.134 0.357 A 0.783 0.783 0 0 1 21.168 0.356 Q 21.406 0.356 21.529 0.492 A 0.474 0.474 0 0 1 21.651 0.796 A 0.614 0.614 0 0 1 21.652 0.826 A 0.523 0.523 0 0 1 21.627 0.992 A 0.442 0.442 0 0 1 21.529 1.156 Q 21.416 1.276 21.208 1.287 A 0.803 0.803 0 0 1 21.168 1.288 Q 20.996 1.288 20.885 1.218 A 0.362 0.362 0 0 1 20.81 1.156 A 0.456 0.456 0 0 1 20.692 0.88 A 0.605 0.605 0 0 1 20.689 0.826 Z M 51.728 0.826 Q 51.728 0.628 51.849 0.492 Q 51.961 0.366 52.173 0.357 A 0.783 0.783 0 0 1 52.207 0.356 Q 52.444 0.356 52.567 0.492 A 0.474 0.474 0 0 1 52.69 0.796 A 0.614 0.614 0 0 1 52.69 0.826 A 0.523 0.523 0 0 1 52.665 0.992 A 0.442 0.442 0 0 1 52.567 1.156 Q 52.455 1.276 52.247 1.287 A 0.803 0.803 0 0 1 52.207 1.288 Q 52.035 1.288 51.924 1.218 A 0.362 0.362 0 0 1 51.849 1.156 A 0.456 0.456 0 0 1 51.73 0.88 A 0.605 0.605 0 0 1 51.728 0.826 Z M 57.037 0.826 Q 57.037 0.628 57.157 0.492 Q 57.269 0.366 57.481 0.357 A 0.783 0.783 0 0 1 57.516 0.356 Q 57.753 0.356 57.876 0.492 A 0.474 0.474 0 0 1 57.998 0.796 A 0.614 0.614 0 0 1 57.999 0.826 A 0.523 0.523 0 0 1 57.974 0.992 A 0.442 0.442 0 0 1 57.876 1.156 Q 57.763 1.276 57.555 1.287 A 0.803 0.803 0 0 1 57.516 1.288 Q 57.343 1.288 57.232 1.218 A 0.362 0.362 0 0 1 57.157 1.156 A 0.456 0.456 0 0 1 57.039 0.88 A 0.605 0.605 0 0 1 57.037 0.826 Z M 71.767 0.826 Q 71.767 0.628 71.888 0.492 Q 72 0.366 72.212 0.357 A 0.783 0.783 0 0 1 72.246 0.356 Q 72.483 0.356 72.606 0.492 A 0.474 0.474 0 0 1 72.729 0.796 A 0.614 0.614 0 0 1 72.729 0.826 A 0.523 0.523 0 0 1 72.704 0.992 A 0.442 0.442 0 0 1 72.606 1.156 Q 72.494 1.276 72.286 1.287 A 0.803 0.803 0 0 1 72.246 1.288 Q 72.074 1.288 71.963 1.218 A 0.362 0.362 0 0 1 71.888 1.156 A 0.456 0.456 0 0 1 71.769 0.88 A 0.605 0.605 0 0 1 71.767 0.826 Z" vector-effect="non-scaling-stroke"/></g>
</svg>