<?xml version="1.0" encoding="UTF-8"?>
<svg width="80px" height="80px" viewBox="0 0 80 80" version="1.1" xmlns="http://www.w3.org/2000/svg" xmlns:xlink="http://www.w3.org/1999/xlink">
    <!-- Generator: Sketch 64 (93537) - https://sketch.com -->
    <title>Icon-Architecture/64/Arch_AWS-Identity-and-Access-Management_64</title>
    <desc>Created with Sketch.</desc>
    
    <g id="Icon-Architecture/64/Arch_AWS-Identity-and-Access-Management_64" stroke="none" stroke-width="1" fill="none" fill-rule="evenodd">
        
        <path transform="translate(0vw, 0vh), scale(.65)" d="M14,59 L66,59 L66,21 L14,21 L14,59 Z M68,20 L68,60 C68,60.552 67.553,61 67,61 L13,61 C12.447,61 12,60.552 12,60 L12,20 C12,19.448 12.447,19 13,19 L67,19 C67.553,19 68,19.448 68,20 L68,20 Z M44,48 L59,48 L59,46 L44,46 L44,48 Z M57,42 L62,42 L62,40 L57,40 L57,42 Z M44,42 L52,42 L52,40 L44,40 L44,42 Z M29,46 C29,45.449 28.552,45 28,45 C27.448,45 27,45.449 27,46 C27,46.551 27.448,47 28,47 C28.552,47 29,46.551 29,46 L29,46 Z M31,46 C31,47.302 30.161,48.401 29,48.816 L29,51 L27,51 L27,48.815 C25.839,48.401 25,47.302 25,46 C25,44.346 26.346,43 28,43 C29.654,43 31,44.346 31,46 L31,46 Z M19,53.993 L36.994,54 L36.996,50 L33,50 L33,48 L36.996,48 L36.998,45 L33,45 L33,43 L36.999,43 L37,40.007 L19.006,40 L19,53.993 Z M22,38.001 L34,38.006 L34,31 C34.001,28.697 31.197,26.677 28,26.675 L27.996,26.675 C24.804,26.675 22.004,28.696 22.002,31 L22,38.001 Z M17,54.992 L17.006,39 C17.006,38.734 17.111,38.48 17.299,38.292 C17.486,38.105 17.741,38 18.006,38 L20,38.001 L20.002,31 C20.004,27.512 23.59,24.675 27.996,24.675 L28,24.675 C32.412,24.677 36.001,27.515 36,31 L36,38.007 L38,38.008 C38.553,38.008 39,38.456 39,39.008 L38.994,55 C38.994,55.266 38.889,55.52 38.701,55.708 C38.514,55.895 38.259,56 37.994,56 L18,55.992 C17.447,55.992 17,55.544 17,54.992 L17,54.992 Z M60,36 L62,36 L62,34 L60,34 L60,36 Z M44,36 L55,36 L55,34 L44,34 L44,36 Z" id="AWS-Identity-and-Access-Management_Icon_64_Squid" fill="#000000"></path>
    </g><g id="svgGroup" stroke-linecap="round" fill-rule="evenodd" font-size="9pt" stroke="#000" stroke-width="0.15mm" fill="#000" style="stroke:#000;stroke-width:0.15mm;fill:#000"><path d="M 17.001 1.33 L 17.792 3.706 L 18.53 1.33 L 19.11 1.33 L 17.836 4.989 A 1.799 1.799 0 0 1 17.666 5.335 Q 17.379 5.78 16.896 5.78 L 16.793 5.771 L 16.591 5.733 L 16.591 5.294 L 16.737 5.306 A 1.107 1.107 0 0 0 16.898 5.295 Q 16.984 5.282 17.055 5.255 A 0.5 0.5 0 0 0 17.167 5.194 A 0.5 0.5 0 0 0 17.273 5.086 Q 17.352 4.98 17.412 4.81 A 1.715 1.715 0 0 0 17.42 4.787 L 17.54 4.465 L 16.409 1.33 L 17.001 1.33 Z M 8.068 1.33 L 8.581 1.33 L 8.599 1.729 Q 8.962 1.271 9.548 1.271 Q 10.553 1.271 10.562 2.405 L 10.562 4.5 L 10.02 4.5 L 10.02 2.402 A 1.224 1.224 0 0 0 10.005 2.216 Q 9.989 2.12 9.957 2.043 A 0.494 0.494 0 0 0 9.863 1.896 A 0.472 0.472 0 0 0 9.674 1.775 Q 9.597 1.748 9.503 1.738 A 1.106 1.106 0 0 0 9.384 1.731 Q 9.12 1.731 8.921 1.872 Q 8.722 2.013 8.61 2.241 L 8.61 4.5 L 8.068 4.5 L 8.068 1.33 Z M 24.343 1.33 L 24.855 1.33 L 24.873 1.729 Q 25.236 1.271 25.822 1.271 Q 26.827 1.271 26.836 2.405 L 26.836 4.5 L 26.294 4.5 L 26.294 2.402 A 1.224 1.224 0 0 0 26.279 2.216 Q 26.263 2.12 26.231 2.043 A 0.494 0.494 0 0 0 26.137 1.896 A 0.472 0.472 0 0 0 25.948 1.775 Q 25.872 1.748 25.778 1.738 A 1.106 1.106 0 0 0 25.658 1.731 Q 25.395 1.731 25.195 1.872 Q 24.996 2.013 24.885 2.241 L 24.885 4.5 L 24.343 4.5 L 24.343 1.33 Z M 23.604 4.5 L 23.036 4.5 A 0.421 0.421 0 0 1 23.012 4.44 Q 22.981 4.342 22.96 4.166 A 1.289 1.289 0 0 1 22.545 4.46 A 1.209 1.209 0 0 1 22.058 4.559 A 1.356 1.356 0 0 1 21.705 4.515 A 1.019 1.019 0 0 1 21.289 4.293 A 0.852 0.852 0 0 1 20.99 3.673 A 1.069 1.069 0 0 1 20.988 3.621 A 1.038 1.038 0 0 1 21.045 3.271 A 0.873 0.873 0 0 1 21.365 2.852 A 1.282 1.282 0 0 1 21.749 2.666 Q 21.92 2.614 22.126 2.593 A 2.912 2.912 0 0 1 22.424 2.578 L 22.951 2.578 L 22.951 2.329 A 0.768 0.768 0 0 0 22.927 2.132 A 0.552 0.552 0 0 0 22.781 1.876 Q 22.637 1.734 22.377 1.712 A 1.166 1.166 0 0 0 22.28 1.708 A 0.95 0.95 0 0 0 22.052 1.734 A 0.712 0.712 0 0 0 21.794 1.854 A 0.57 0.57 0 0 0 21.684 1.96 A 0.395 0.395 0 0 0 21.598 2.209 L 21.053 2.209 Q 21.053 1.972 21.221 1.75 A 1.087 1.087 0 0 1 21.525 1.48 A 1.368 1.368 0 0 1 21.678 1.4 A 1.499 1.499 0 0 1 22.195 1.275 A 1.78 1.78 0 0 1 22.313 1.271 A 1.766 1.766 0 0 1 22.657 1.303 Q 22.966 1.365 23.171 1.545 A 0.931 0.931 0 0 1 23.473 2.096 A 1.332 1.332 0 0 1 23.493 2.3 L 23.493 3.759 A 2.785 2.785 0 0 0 23.505 4.026 Q 23.517 4.153 23.542 4.26 A 1.138 1.138 0 0 0 23.604 4.453 L 23.604 4.5 Z M 1.374 2.93 L 1.374 2.889 A 2.508 2.508 0 0 1 1.419 2.401 Q 1.477 2.106 1.612 1.875 A 1.432 1.432 0 0 1 1.72 1.715 A 1.156 1.156 0 0 1 2.091 1.397 Q 2.32 1.275 2.606 1.272 A 1.397 1.397 0 0 1 2.625 1.271 A 1.309 1.309 0 0 1 3.024 1.329 A 1.039 1.039 0 0 1 3.507 1.652 L 3.507 0 L 4.049 0 L 4.049 4.5 L 3.551 4.5 L 3.524 4.16 A 1.061 1.061 0 0 1 2.794 4.549 A 1.529 1.529 0 0 1 2.619 4.559 A 1.067 1.067 0 0 1 1.805 4.207 A 1.385 1.385 0 0 1 1.721 4.107 Q 1.393 3.68 1.375 3.007 A 2.95 2.95 0 0 1 1.374 2.93 Z M 27.521 2.93 L 27.521 2.889 A 2.508 2.508 0 0 1 27.566 2.401 Q 27.625 2.106 27.76 1.875 A 1.432 1.432 0 0 1 27.867 1.715 A 1.156 1.156 0 0 1 28.238 1.397 Q 28.468 1.275 28.754 1.272 A 1.397 1.397 0 0 1 28.772 1.271 A 1.309 1.309 0 0 1 29.171 1.329 A 1.039 1.039 0 0 1 29.654 1.652 L 29.654 0 L 30.196 0 L 30.196 4.5 L 29.698 4.5 L 29.672 4.16 A 1.061 1.061 0 0 1 28.942 4.549 A 1.529 1.529 0 0 1 28.767 4.559 A 1.067 1.067 0 0 1 27.953 4.207 A 1.385 1.385 0 0 1 27.869 4.107 Q 27.54 3.68 27.522 3.007 A 2.95 2.95 0 0 1 27.521 2.93 Z M 4.752 3.003 L 4.752 2.903 Q 4.752 2.432 4.932 2.061 A 1.461 1.461 0 0 1 5.23 1.644 A 1.356 1.356 0 0 1 5.436 1.481 Q 5.76 1.271 6.138 1.271 A 1.503 1.503 0 0 1 6.546 1.324 A 1.093 1.093 0 0 1 7.099 1.679 A 1.33 1.33 0 0 1 7.345 2.138 Q 7.407 2.332 7.429 2.568 A 2.942 2.942 0 0 1 7.441 2.845 L 7.441 3.07 L 5.294 3.07 A 1.408 1.408 0 0 0 5.341 3.409 A 1.011 1.011 0 0 0 5.568 3.828 A 0.855 0.855 0 0 0 6.191 4.115 A 1.102 1.102 0 0 0 6.234 4.116 A 1.176 1.176 0 0 0 6.453 4.097 Q 6.593 4.07 6.705 4.008 A 0.737 0.737 0 0 0 6.721 3.999 A 1.218 1.218 0 0 0 7.06 3.7 A 1.384 1.384 0 0 0 7.069 3.688 L 7.4 3.946 A 1.284 1.284 0 0 1 6.467 4.541 A 1.833 1.833 0 0 1 6.205 4.559 A 1.596 1.596 0 0 1 5.704 4.483 A 1.316 1.316 0 0 1 5.156 4.135 A 1.424 1.424 0 0 1 4.793 3.428 A 2.069 2.069 0 0 1 4.752 3.003 Z M 11.572 0.563 L 12.114 0.563 L 12.114 1.33 L 12.706 1.33 L 12.706 1.749 L 12.114 1.749 L 12.114 3.715 A 0.732 0.732 0 0 0 12.121 3.82 Q 12.129 3.873 12.145 3.916 A 0.294 0.294 0 0 0 12.193 4 A 0.234 0.234 0 0 0 12.29 4.068 Q 12.329 4.084 12.379 4.09 A 0.618 0.618 0 0 0 12.463 4.096 Q 12.557 4.096 12.721 4.061 L 12.721 4.5 A 1.642 1.642 0 0 1 12.432 4.553 A 1.438 1.438 0 0 1 12.305 4.559 A 0.954 0.954 0 0 1 12.088 4.535 Q 11.936 4.5 11.829 4.411 A 0.571 0.571 0 0 1 11.757 4.339 A 0.723 0.723 0 0 1 11.622 4.085 Q 11.572 3.925 11.572 3.715 L 11.572 1.749 L 10.995 1.749 L 10.995 1.33 L 11.572 1.33 L 11.572 0.563 Z M 14.988 0.563 L 15.53 0.563 L 15.53 1.33 L 16.122 1.33 L 16.122 1.749 L 15.53 1.749 L 15.53 3.715 A 0.732 0.732 0 0 0 15.537 3.82 Q 15.545 3.873 15.561 3.916 A 0.294 0.294 0 0 0 15.609 4 A 0.234 0.234 0 0 0 15.706 4.068 Q 15.745 4.084 15.795 4.09 A 0.618 0.618 0 0 0 15.879 4.096 Q 15.973 4.096 16.137 4.061 L 16.137 4.5 A 1.642 1.642 0 0 1 15.848 4.553 A 1.438 1.438 0 0 1 15.721 4.559 A 0.954 0.954 0 0 1 15.504 4.535 Q 15.352 4.5 15.245 4.411 A 0.571 0.571 0 0 1 15.173 4.339 A 0.723 0.723 0 0 1 15.038 4.085 Q 14.988 3.925 14.988 3.715 L 14.988 1.749 L 14.411 1.749 L 14.411 1.33 L 14.988 1.33 L 14.988 0.563 Z M 0.563 0.234 L 0.563 4.5 L 0 4.5 L 0 0.234 L 0.563 0.234 Z M 13.928 1.33 L 13.928 4.5 L 13.386 4.5 L 13.386 1.33 L 13.928 1.33 Z M 3.507 3.636 L 3.507 2.18 A 0.917 0.917 0 0 0 3.299 1.916 Q 3.083 1.731 2.76 1.731 Q 2.361 1.731 2.139 2.039 Q 1.916 2.347 1.916 2.95 A 2.108 2.108 0 0 0 1.94 3.279 Q 1.989 3.589 2.139 3.794 A 0.707 0.707 0 0 0 2.647 4.093 A 0.927 0.927 0 0 0 2.754 4.099 A 0.894 0.894 0 0 0 3.089 4.039 Q 3.309 3.951 3.451 3.732 A 1.08 1.08 0 0 0 3.507 3.636 Z M 29.654 3.636 L 29.654 2.18 A 0.917 0.917 0 0 0 29.447 1.916 Q 29.231 1.731 28.907 1.731 Q 28.509 1.731 28.286 2.039 Q 28.063 2.347 28.063 2.95 A 2.108 2.108 0 0 0 28.087 3.279 Q 28.137 3.589 28.286 3.794 A 0.707 0.707 0 0 0 28.794 4.093 A 0.927 0.927 0 0 0 28.901 4.099 A 0.894 0.894 0 0 0 29.236 4.039 Q 29.457 3.951 29.599 3.732 A 1.08 1.08 0 0 0 29.654 3.636 Z M 22.951 3.612 L 22.951 2.962 L 22.526 2.962 A 2.544 2.544 0 0 0 22.188 2.982 Q 21.817 3.032 21.656 3.205 A 0.477 0.477 0 0 0 21.53 3.545 A 0.613 0.613 0 0 0 21.553 3.717 A 0.458 0.458 0 0 0 21.7 3.943 A 0.596 0.596 0 0 0 21.976 4.072 A 0.839 0.839 0 0 0 22.137 4.087 Q 22.392 4.087 22.62 3.955 A 0.89 0.89 0 0 0 22.817 3.803 A 0.738 0.738 0 0 0 22.951 3.612 Z M 5.312 2.625 L 6.899 2.625 L 6.899 2.584 A 1.489 1.489 0 0 0 6.864 2.327 Q 6.83 2.186 6.768 2.074 A 0.753 0.753 0 0 0 6.677 1.944 A 0.655 0.655 0 0 0 6.24 1.722 A 0.926 0.926 0 0 0 6.138 1.717 Q 5.81 1.717 5.587 1.956 Q 5.391 2.165 5.327 2.524 A 1.827 1.827 0 0 0 5.312 2.625 Z M 13.36 0.372 A 0.357 0.357 0 0 0 13.342 0.489 A 0.403 0.403 0 0 0 13.343 0.525 A 0.304 0.304 0 0 0 13.422 0.709 Q 13.478 0.769 13.57 0.788 A 0.455 0.455 0 0 0 13.661 0.797 Q 13.819 0.797 13.901 0.709 A 0.295 0.295 0 0 0 13.967 0.6 A 0.349 0.349 0 0 0 13.983 0.489 A 0.409 0.409 0 0 0 13.983 0.469 A 0.316 0.316 0 0 0 13.901 0.267 Q 13.846 0.205 13.756 0.185 A 0.439 0.439 0 0 0 13.661 0.176 Q 13.599 0.176 13.548 0.19 A 0.257 0.257 0 0 0 13.422 0.267 A 0.31 0.31 0 0 0 13.36 0.372 Z" vector-effect="non-scaling-stroke"/></g><g transform="translate(24.902vw, 64vh)" id="svgGroup" stroke-linecap="round" fill-rule="evenodd" font-size="9pt" stroke="#000" stroke-width="0.15mm" fill="#000" style="stroke:#000;stroke-width:0.15mm;fill:#000"><path d="M 21.46 0 L 22.187 0 L 23.581 3.48 L 24.976 0 L 25.705 0 L 25.705 4.266 L 25.143 4.266 L 25.143 2.604 L 25.195 0.812 L 23.795 4.266 L 23.364 4.266 L 21.967 0.82 L 22.022 2.604 L 22.022 4.266 L 21.46 4.266 L 21.46 0 Z M 42.993 1.096 L 43.506 1.096 L 43.521 1.447 A 1.143 1.143 0 0 1 44.334 1.042 A 1.599 1.599 0 0 1 44.461 1.037 A 1.339 1.339 0 0 1 44.801 1.077 A 0.83 0.83 0 0 1 45.366 1.547 Q 45.524 1.318 45.778 1.178 A 1.1 1.1 0 0 1 46.131 1.057 A 1.473 1.473 0 0 1 46.377 1.037 Q 47.42 1.037 47.438 2.142 L 47.438 4.266 L 46.896 4.266 L 46.896 2.174 Q 46.896 1.834 46.74 1.666 A 0.453 0.453 0 0 0 46.572 1.553 Q 46.498 1.524 46.405 1.51 A 1.25 1.25 0 0 0 46.22 1.497 A 0.83 0.83 0 0 0 45.975 1.531 A 0.672 0.672 0 0 0 45.718 1.677 A 0.695 0.695 0 0 0 45.508 2.035 A 0.94 0.94 0 0 0 45.486 2.162 L 45.486 4.266 L 44.941 4.266 L 44.941 2.188 A 1.021 1.021 0 0 0 44.909 1.919 Q 44.825 1.611 44.52 1.528 A 0.971 0.971 0 0 0 44.265 1.497 A 0.96 0.96 0 0 0 43.974 1.538 Q 43.687 1.629 43.548 1.922 A 0.973 0.973 0 0 0 43.535 1.951 L 43.535 4.266 L 42.993 4.266 L 42.993 1.096 Z M 38.479 1.447 L 38.505 1.096 L 39 1.096 L 39 4.189 A 1.674 1.674 0 0 1 38.953 4.598 A 1.159 1.159 0 0 1 38.635 5.159 Q 38.271 5.514 37.655 5.514 A 1.63 1.63 0 0 1 36.984 5.367 A 1.335 1.335 0 0 1 36.711 5.206 A 1.042 1.042 0 0 1 36.483 4.966 L 36.765 4.641 A 1.259 1.259 0 0 0 37.054 4.907 A 1.009 1.009 0 0 0 37.617 5.071 A 1.13 1.13 0 0 0 37.869 5.045 Q 38.047 5.004 38.177 4.9 A 0.691 0.691 0 0 0 38.234 4.849 A 0.727 0.727 0 0 0 38.419 4.52 Q 38.45 4.405 38.454 4.267 A 1.422 1.422 0 0 0 38.455 4.222 L 38.455 3.949 A 1.067 1.067 0 0 1 37.754 4.313 A 1.52 1.52 0 0 1 37.567 4.324 A 1.115 1.115 0 0 1 37.064 4.212 Q 36.849 4.105 36.683 3.897 A 1.426 1.426 0 0 1 36.667 3.876 A 1.544 1.544 0 0 1 36.411 3.356 Q 36.35 3.144 36.331 2.892 A 3.146 3.146 0 0 1 36.322 2.654 A 2.607 2.607 0 0 1 36.363 2.181 Q 36.414 1.906 36.528 1.688 A 1.397 1.397 0 0 1 36.665 1.475 A 1.084 1.084 0 0 1 37.452 1.042 A 1.372 1.372 0 0 1 37.573 1.037 A 1.314 1.314 0 0 1 37.972 1.095 A 1.033 1.033 0 0 1 38.479 1.447 Z M 16.061 2.027 L 15.516 2.027 A 0.473 0.473 0 0 0 15.376 1.69 A 0.668 0.668 0 0 0 15.327 1.644 A 0.666 0.666 0 0 0 14.988 1.492 A 0.906 0.906 0 0 0 14.851 1.482 A 1.098 1.098 0 0 0 14.67 1.496 Q 14.574 1.512 14.497 1.547 A 0.53 0.53 0 0 0 14.388 1.611 A 0.435 0.435 0 0 0 14.271 1.744 Q 14.222 1.831 14.221 1.941 A 0.512 0.512 0 0 0 14.221 1.948 A 0.392 0.392 0 0 0 14.241 2.077 A 0.32 0.32 0 0 0 14.376 2.244 Q 14.494 2.32 14.756 2.39 A 4.387 4.387 0 0 0 14.937 2.435 A 4.212 4.212 0 0 1 15.209 2.504 Q 15.335 2.542 15.441 2.584 A 1.895 1.895 0 0 1 15.595 2.651 Q 15.802 2.755 15.921 2.894 A 0.707 0.707 0 0 1 15.968 2.955 Q 16.09 3.132 16.09 3.387 A 0.853 0.853 0 0 1 16.015 3.748 Q 15.931 3.932 15.75 4.068 A 1.219 1.219 0 0 1 15.297 4.277 Q 15.125 4.318 14.926 4.323 A 2.224 2.224 0 0 1 14.868 4.324 Q 14.487 4.324 14.194 4.189 Q 13.901 4.055 13.736 3.813 Q 13.57 3.571 13.57 3.29 L 14.112 3.29 A 0.622 0.622 0 0 0 14.161 3.507 A 0.552 0.552 0 0 0 14.331 3.722 Q 14.52 3.871 14.823 3.881 A 1.342 1.342 0 0 0 14.868 3.882 Q 15.176 3.882 15.362 3.757 A 0.459 0.459 0 0 0 15.472 3.657 A 0.369 0.369 0 0 0 15.548 3.425 A 0.466 0.466 0 0 0 15.524 3.271 A 0.387 0.387 0 0 0 15.382 3.083 Q 15.247 2.984 14.947 2.907 A 3.595 3.595 0 0 0 14.805 2.874 A 4.228 4.228 0 0 1 14.565 2.816 Q 14.318 2.748 14.152 2.663 Q 13.953 2.562 13.839 2.428 A 0.678 0.678 0 0 1 13.794 2.37 A 0.664 0.664 0 0 1 13.686 2.079 A 0.861 0.861 0 0 1 13.679 1.966 A 0.804 0.804 0 0 1 13.945 1.363 A 1.129 1.129 0 0 1 14.008 1.307 A 1.168 1.168 0 0 1 14.53 1.067 A 1.647 1.647 0 0 1 14.851 1.037 A 1.706 1.706 0 0 1 15.226 1.076 A 1.172 1.172 0 0 1 15.725 1.315 A 0.923 0.923 0 0 1 15.977 1.633 A 0.915 0.915 0 0 1 16.061 2.027 Z M 19.154 2.027 L 18.609 2.027 A 0.473 0.473 0 0 0 18.47 1.69 A 0.668 0.668 0 0 0 18.42 1.644 A 0.666 0.666 0 0 0 18.082 1.492 A 0.906 0.906 0 0 0 17.944 1.482 A 1.098 1.098 0 0 0 17.764 1.496 Q 17.668 1.512 17.591 1.547 A 0.53 0.53 0 0 0 17.481 1.611 A 0.435 0.435 0 0 0 17.365 1.744 Q 17.316 1.831 17.315 1.941 A 0.512 0.512 0 0 0 17.314 1.948 A 0.392 0.392 0 0 0 17.335 2.077 A 0.32 0.32 0 0 0 17.47 2.244 Q 17.588 2.32 17.85 2.39 A 4.387 4.387 0 0 0 18.031 2.435 A 4.212 4.212 0 0 1 18.303 2.504 Q 18.429 2.542 18.535 2.584 A 1.895 1.895 0 0 1 18.688 2.651 Q 18.896 2.755 19.015 2.894 A 0.707 0.707 0 0 1 19.062 2.955 Q 19.184 3.132 19.184 3.387 A 0.853 0.853 0 0 1 19.109 3.748 Q 19.024 3.932 18.844 4.068 A 1.219 1.219 0 0 1 18.39 4.277 Q 18.219 4.318 18.02 4.323 A 2.224 2.224 0 0 1 17.962 4.324 Q 17.581 4.324 17.288 4.189 Q 16.995 4.055 16.83 3.813 Q 16.664 3.571 16.664 3.29 L 17.206 3.29 A 0.622 0.622 0 0 0 17.255 3.507 A 0.552 0.552 0 0 0 17.424 3.722 Q 17.614 3.871 17.916 3.881 A 1.342 1.342 0 0 0 17.962 3.882 Q 18.27 3.882 18.456 3.757 A 0.459 0.459 0 0 0 18.565 3.657 A 0.369 0.369 0 0 0 18.642 3.425 A 0.466 0.466 0 0 0 18.617 3.271 A 0.387 0.387 0 0 0 18.476 3.083 Q 18.341 2.984 18.041 2.907 A 3.595 3.595 0 0 0 17.899 2.874 A 4.228 4.228 0 0 1 17.658 2.816 Q 17.412 2.748 17.246 2.663 Q 17.046 2.562 16.933 2.428 A 0.678 0.678 0 0 1 16.888 2.37 A 0.664 0.664 0 0 1 16.78 2.079 A 0.861 0.861 0 0 1 16.772 1.966 A 0.804 0.804 0 0 1 17.039 1.363 A 1.129 1.129 0 0 1 17.102 1.307 A 1.168 1.168 0 0 1 17.624 1.067 A 1.647 1.647 0 0 1 17.944 1.037 A 1.706 1.706 0 0 1 18.32 1.076 A 1.172 1.172 0 0 1 18.819 1.315 A 0.923 0.923 0 0 1 19.07 1.633 A 0.915 0.915 0 0 1 19.154 2.027 Z M 29.877 1.096 L 30.39 1.096 L 30.407 1.494 Q 30.771 1.037 31.356 1.037 Q 32.361 1.037 32.37 2.171 L 32.37 4.266 L 31.828 4.266 L 31.828 2.168 A 1.224 1.224 0 0 0 31.813 1.981 Q 31.798 1.885 31.765 1.809 A 0.494 0.494 0 0 0 31.671 1.661 A 0.472 0.472 0 0 0 31.482 1.541 Q 31.406 1.513 31.312 1.503 A 1.106 1.106 0 0 0 31.192 1.497 Q 30.929 1.497 30.729 1.638 Q 30.53 1.778 30.419 2.007 L 30.419 4.266 L 29.877 4.266 L 29.877 1.096 Z M 51.434 1.096 L 51.946 1.096 L 51.964 1.494 Q 52.327 1.037 52.913 1.037 Q 53.918 1.037 53.927 2.171 L 53.927 4.266 L 53.385 4.266 L 53.385 2.168 A 1.224 1.224 0 0 0 53.37 1.981 Q 53.354 1.885 53.322 1.809 A 0.494 0.494 0 0 0 53.228 1.661 A 0.472 0.472 0 0 0 53.039 1.541 Q 52.962 1.513 52.868 1.503 A 1.106 1.106 0 0 0 52.749 1.497 Q 52.485 1.497 52.286 1.638 Q 52.087 1.778 51.976 2.007 L 51.976 4.266 L 51.434 4.266 L 51.434 1.096 Z M 6.261 3.267 L 6.773 3.267 A 0.955 0.955 0 0 1 6.641 3.7 A 1.181 1.181 0 0 1 6.586 3.785 A 1.219 1.219 0 0 1 6.18 4.148 A 1.446 1.446 0 0 1 6.125 4.178 A 1.331 1.331 0 0 1 5.514 4.324 A 1.564 1.564 0 0 1 5.049 4.258 A 1.226 1.226 0 0 1 4.484 3.892 Q 4.133 3.495 4.104 2.831 A 2.794 2.794 0 0 1 4.102 2.71 L 4.102 2.619 A 2.16 2.16 0 0 1 4.144 2.182 A 1.713 1.713 0 0 1 4.271 1.796 A 1.339 1.339 0 0 1 4.565 1.386 A 1.261 1.261 0 0 1 4.759 1.236 A 1.295 1.295 0 0 1 5.263 1.055 A 1.686 1.686 0 0 1 5.511 1.037 A 1.464 1.464 0 0 1 5.943 1.098 A 1.191 1.191 0 0 1 6.397 1.356 A 1.129 1.129 0 0 1 6.769 2.123 A 1.493 1.493 0 0 1 6.773 2.186 L 6.261 2.186 A 0.813 0.813 0 0 0 6.193 1.909 A 0.725 0.725 0 0 0 6.028 1.68 A 0.718 0.718 0 0 0 5.542 1.483 A 0.934 0.934 0 0 0 5.511 1.482 A 0.916 0.916 0 0 0 5.23 1.523 A 0.72 0.72 0 0 0 4.871 1.78 A 0.979 0.979 0 0 0 4.719 2.078 Q 4.644 2.314 4.644 2.64 L 4.644 2.742 Q 4.644 3.29 4.869 3.586 Q 5.095 3.882 5.514 3.882 A 0.781 0.781 0 0 0 6.021 3.706 A 0.672 0.672 0 0 0 6.183 3.519 A 0.609 0.609 0 0 0 6.261 3.267 Z M 9.401 3.267 L 9.914 3.267 A 0.955 0.955 0 0 1 9.781 3.7 A 1.181 1.181 0 0 1 9.727 3.785 A 1.219 1.219 0 0 1 9.32 4.148 A 1.446 1.446 0 0 1 9.265 4.178 A 1.331 1.331 0 0 1 8.654 4.324 A 1.564 1.564 0 0 1 8.189 4.258 A 1.226 1.226 0 0 1 7.625 3.892 Q 7.274 3.495 7.245 2.831 A 2.794 2.794 0 0 1 7.242 2.71 L 7.242 2.619 A 2.16 2.16 0 0 1 7.285 2.182 A 1.713 1.713 0 0 1 7.412 1.796 A 1.339 1.339 0 0 1 7.705 1.386 A 1.261 1.261 0 0 1 7.9 1.236 A 1.295 1.295 0 0 1 8.404 1.055 A 1.686 1.686 0 0 1 8.651 1.037 A 1.464 1.464 0 0 1 9.083 1.098 A 1.191 1.191 0 0 1 9.538 1.356 A 1.129 1.129 0 0 1 9.91 2.123 A 1.493 1.493 0 0 1 9.914 2.186 L 9.401 2.186 A 0.813 0.813 0 0 0 9.333 1.909 A 0.725 0.725 0 0 0 9.168 1.68 A 0.718 0.718 0 0 0 8.682 1.483 A 0.934 0.934 0 0 0 8.651 1.482 A 0.916 0.916 0 0 0 8.37 1.523 A 0.72 0.72 0 0 0 8.011 1.78 A 0.979 0.979 0 0 0 7.86 2.078 Q 7.784 2.314 7.784 2.64 L 7.784 2.742 Q 7.784 3.29 8.01 3.586 Q 8.235 3.882 8.654 3.882 A 0.781 0.781 0 0 0 9.161 3.706 A 0.672 0.672 0 0 0 9.324 3.519 A 0.609 0.609 0 0 0 9.401 3.267 Z M 3.176 4.266 L 2.769 3.152 L 0.981 3.152 L 0.58 4.266 L 0 4.266 L 1.629 0 L 2.121 0 L 3.753 4.266 L 3.176 4.266 Z M 29.139 4.266 L 28.57 4.266 A 0.421 0.421 0 0 1 28.547 4.205 Q 28.516 4.108 28.494 3.932 A 1.289 1.289 0 0 1 28.08 4.226 A 1.209 1.209 0 0 1 27.592 4.324 A 1.356 1.356 0 0 1 27.239 4.281 A 1.019 1.019 0 0 1 26.823 4.059 A 0.852 0.852 0 0 1 26.524 3.439 A 1.069 1.069 0 0 1 26.522 3.387 A 1.038 1.038 0 0 1 26.579 3.037 A 0.873 0.873 0 0 1 26.899 2.618 A 1.282 1.282 0 0 1 27.283 2.432 Q 27.454 2.379 27.66 2.358 A 2.912 2.912 0 0 1 27.958 2.344 L 28.485 2.344 L 28.485 2.095 A 0.768 0.768 0 0 0 28.462 1.898 A 0.552 0.552 0 0 0 28.315 1.642 Q 28.171 1.499 27.911 1.477 A 1.166 1.166 0 0 0 27.814 1.474 A 0.95 0.95 0 0 0 27.586 1.5 A 0.712 0.712 0 0 0 27.328 1.62 A 0.57 0.57 0 0 0 27.218 1.725 A 0.395 0.395 0 0 0 27.132 1.975 L 26.587 1.975 Q 26.587 1.737 26.755 1.516 A 1.087 1.087 0 0 1 27.06 1.246 A 1.368 1.368 0 0 1 27.212 1.166 A 1.499 1.499 0 0 1 27.73 1.041 A 1.78 1.78 0 0 1 27.847 1.037 A 1.766 1.766 0 0 1 28.192 1.069 Q 28.5 1.13 28.705 1.311 A 0.931 0.931 0 0 1 29.007 1.862 A 1.332 1.332 0 0 1 29.027 2.065 L 29.027 3.524 A 2.785 2.785 0 0 0 29.039 3.792 Q 29.052 3.919 29.076 4.025 A 1.138 1.138 0 0 0 29.139 4.219 L 29.139 4.266 Z M 35.713 4.266 L 35.145 4.266 A 0.421 0.421 0 0 1 35.121 4.205 Q 35.09 4.108 35.068 3.932 A 1.289 1.289 0 0 1 34.654 4.226 A 1.209 1.209 0 0 1 34.166 4.324 A 1.356 1.356 0 0 1 33.813 4.281 A 1.019 1.019 0 0 1 33.397 4.059 A 0.852 0.852 0 0 1 33.098 3.439 A 1.069 1.069 0 0 1 33.097 3.387 A 1.038 1.038 0 0 1 33.153 3.037 A 0.873 0.873 0 0 1 33.473 2.618 A 1.282 1.282 0 0 1 33.857 2.432 Q 34.028 2.379 34.234 2.358 A 2.912 2.912 0 0 1 34.532 2.344 L 35.06 2.344 L 35.06 2.095 A 0.768 0.768 0 0 0 35.036 1.898 A 0.552 0.552 0 0 0 34.89 1.642 Q 34.745 1.499 34.485 1.477 A 1.166 1.166 0 0 0 34.389 1.474 A 0.95 0.95 0 0 0 34.161 1.5 A 0.712 0.712 0 0 0 33.902 1.62 A 0.57 0.57 0 0 0 33.793 1.725 A 0.395 0.395 0 0 0 33.706 1.975 L 33.161 1.975 Q 33.161 1.737 33.33 1.516 A 1.087 1.087 0 0 1 33.634 1.246 A 1.368 1.368 0 0 1 33.787 1.166 A 1.499 1.499 0 0 1 34.304 1.041 A 1.78 1.78 0 0 1 34.421 1.037 A 1.766 1.766 0 0 1 34.766 1.069 Q 35.074 1.13 35.279 1.311 A 0.931 0.931 0 0 1 35.582 1.862 A 1.332 1.332 0 0 1 35.602 2.065 L 35.602 3.524 A 2.785 2.785 0 0 0 35.614 3.792 Q 35.626 3.919 35.651 4.025 A 1.138 1.138 0 0 0 35.713 4.219 L 35.713 4.266 Z M 10.386 2.769 L 10.386 2.669 Q 10.386 2.197 10.566 1.827 A 1.461 1.461 0 0 1 10.864 1.41 A 1.356 1.356 0 0 1 11.07 1.247 Q 11.394 1.037 11.771 1.037 A 1.503 1.503 0 0 1 12.18 1.09 A 1.093 1.093 0 0 1 12.732 1.444 A 1.33 1.33 0 0 1 12.978 1.903 Q 13.04 2.098 13.063 2.333 A 2.942 2.942 0 0 1 13.075 2.61 L 13.075 2.836 L 10.928 2.836 A 1.408 1.408 0 0 0 10.975 3.175 A 1.011 1.011 0 0 0 11.202 3.593 A 0.855 0.855 0 0 0 11.824 3.881 A 1.102 1.102 0 0 0 11.868 3.882 A 1.176 1.176 0 0 0 12.087 3.862 Q 12.226 3.836 12.339 3.774 A 0.737 0.737 0 0 0 12.354 3.765 A 1.218 1.218 0 0 0 12.694 3.466 A 1.384 1.384 0 0 0 12.703 3.454 L 13.034 3.712 A 1.284 1.284 0 0 1 12.101 4.306 A 1.833 1.833 0 0 1 11.839 4.324 A 1.596 1.596 0 0 1 11.338 4.249 A 1.316 1.316 0 0 1 10.79 3.901 A 1.424 1.424 0 0 1 10.427 3.193 A 2.069 2.069 0 0 1 10.386 2.769 Z M 39.68 2.769 L 39.68 2.669 Q 39.68 2.197 39.86 1.827 A 1.461 1.461 0 0 1 40.158 1.41 A 1.356 1.356 0 0 1 40.364 1.247 Q 40.688 1.037 41.065 1.037 A 1.503 1.503 0 0 1 41.474 1.09 A 1.093 1.093 0 0 1 42.026 1.444 A 1.33 1.33 0 0 1 42.272 1.903 Q 42.334 2.098 42.357 2.333 A 2.942 2.942 0 0 1 42.369 2.61 L 42.369 2.836 L 40.222 2.836 A 1.408 1.408 0 0 0 40.269 3.175 A 1.011 1.011 0 0 0 40.496 3.593 A 0.855 0.855 0 0 0 41.118 3.881 A 1.102 1.102 0 0 0 41.162 3.882 A 1.176 1.176 0 0 0 41.381 3.862 Q 41.52 3.836 41.633 3.774 A 0.737 0.737 0 0 0 41.648 3.765 A 1.218 1.218 0 0 0 41.988 3.466 A 1.384 1.384 0 0 0 41.997 3.454 L 42.328 3.712 A 1.284 1.284 0 0 1 41.395 4.306 A 1.833 1.833 0 0 1 41.133 4.324 A 1.596 1.596 0 0 1 40.632 4.249 A 1.316 1.316 0 0 1 40.084 3.901 A 1.424 1.424 0 0 1 39.721 3.193 A 2.069 2.069 0 0 1 39.68 2.769 Z M 48.117 2.769 L 48.117 2.669 Q 48.117 2.197 48.297 1.827 A 1.461 1.461 0 0 1 48.596 1.41 A 1.356 1.356 0 0 1 48.801 1.247 Q 49.125 1.037 49.503 1.037 A 1.503 1.503 0 0 1 49.912 1.09 A 1.093 1.093 0 0 1 50.464 1.444 A 1.33 1.33 0 0 1 50.71 1.903 Q 50.772 2.098 50.794 2.333 A 2.942 2.942 0 0 1 50.807 2.61 L 50.807 2.836 L 48.659 2.836 A 1.408 1.408 0 0 0 48.707 3.175 A 1.011 1.011 0 0 0 48.933 3.593 A 0.855 0.855 0 0 0 49.556 3.881 A 1.102 1.102 0 0 0 49.6 3.882 A 1.176 1.176 0 0 0 49.818 3.862 Q 49.958 3.836 50.07 3.774 A 0.737 0.737 0 0 0 50.086 3.765 A 1.218 1.218 0 0 0 50.425 3.466 A 1.384 1.384 0 0 0 50.435 3.454 L 50.766 3.712 A 1.284 1.284 0 0 1 49.832 4.306 A 1.833 1.833 0 0 1 49.57 4.324 A 1.596 1.596 0 0 1 49.07 4.249 A 1.316 1.316 0 0 1 48.521 3.901 A 1.424 1.424 0 0 1 48.159 3.193 A 2.069 2.069 0 0 1 48.117 2.769 Z M 54.938 0.328 L 55.479 0.328 L 55.479 1.096 L 56.071 1.096 L 56.071 1.515 L 55.479 1.515 L 55.479 3.48 A 0.732 0.732 0 0 0 55.486 3.585 Q 55.494 3.639 55.511 3.682 A 0.294 0.294 0 0 0 55.559 3.766 A 0.234 0.234 0 0 0 55.655 3.834 Q 55.695 3.849 55.744 3.856 A 0.618 0.618 0 0 0 55.828 3.861 Q 55.922 3.861 56.086 3.826 L 56.086 4.266 A 1.642 1.642 0 0 1 55.797 4.318 A 1.438 1.438 0 0 1 55.67 4.324 A 0.954 0.954 0 0 1 55.453 4.301 Q 55.302 4.266 55.194 4.176 A 0.571 0.571 0 0 1 55.122 4.104 A 0.723 0.723 0 0 1 54.987 3.851 Q 54.938 3.691 54.938 3.48 L 54.938 1.515 L 54.36 1.515 L 54.36 1.096 L 54.938 1.096 L 54.938 0.328 Z M 38.455 3.398 L 38.455 1.951 A 0.959 0.959 0 0 0 38.254 1.693 Q 38.052 1.512 37.758 1.498 A 1.052 1.052 0 0 0 37.708 1.497 A 0.812 0.812 0 0 0 37.418 1.547 A 0.713 0.713 0 0 0 37.091 1.803 Q 36.867 2.112 36.867 2.716 A 2.119 2.119 0 0 0 36.891 3.043 Q 36.918 3.217 36.977 3.358 A 0.996 0.996 0 0 0 37.087 3.558 A 0.699 0.699 0 0 0 37.594 3.858 A 0.934 0.934 0 0 0 37.702 3.864 A 0.88 0.88 0 0 0 38.042 3.801 Q 38.303 3.693 38.455 3.398 Z M 1.875 0.694 L 1.151 2.689 L 2.602 2.689 L 1.875 0.694 Z M 28.485 3.378 L 28.485 2.728 L 28.061 2.728 A 2.544 2.544 0 0 0 27.722 2.748 Q 27.352 2.798 27.19 2.97 A 0.477 0.477 0 0 0 27.064 3.311 A 0.613 0.613 0 0 0 27.087 3.483 A 0.458 0.458 0 0 0 27.234 3.709 A 0.596 0.596 0 0 0 27.51 3.838 A 0.839 0.839 0 0 0 27.671 3.853 Q 27.926 3.853 28.154 3.721 A 0.89 0.89 0 0 0 28.351 3.569 A 0.738 0.738 0 0 0 28.485 3.378 Z M 35.06 3.378 L 35.06 2.728 L 34.635 2.728 A 2.544 2.544 0 0 0 34.296 2.748 Q 33.926 2.798 33.764 2.97 A 0.477 0.477 0 0 0 33.639 3.311 A 0.613 0.613 0 0 0 33.662 3.483 A 0.458 0.458 0 0 0 33.809 3.709 A 0.596 0.596 0 0 0 34.084 3.838 A 0.839 0.839 0 0 0 34.245 3.853 Q 34.5 3.853 34.729 3.721 A 0.89 0.89 0 0 0 34.926 3.569 A 0.738 0.738 0 0 0 35.06 3.378 Z M 10.945 2.391 L 12.533 2.391 L 12.533 2.35 A 1.489 1.489 0 0 0 12.498 2.093 Q 12.464 1.951 12.402 1.84 A 0.753 0.753 0 0 0 12.311 1.709 A 0.655 0.655 0 0 0 11.874 1.488 A 0.926 0.926 0 0 0 11.771 1.482 Q 11.443 1.482 11.221 1.721 Q 11.025 1.931 10.961 2.289 A 1.827 1.827 0 0 0 10.945 2.391 Z M 40.239 2.391 L 41.827 2.391 L 41.827 2.35 A 1.489 1.489 0 0 0 41.792 2.093 Q 41.758 1.951 41.696 1.84 A 0.753 0.753 0 0 0 41.604 1.709 A 0.655 0.655 0 0 0 41.168 1.488 A 0.926 0.926 0 0 0 41.065 1.482 Q 40.737 1.482 40.515 1.721 Q 40.319 1.931 40.255 2.289 A 1.827 1.827 0 0 0 40.239 2.391 Z M 48.677 2.391 L 50.265 2.391 L 50.265 2.35 A 1.489 1.489 0 0 0 50.229 2.093 Q 50.196 1.951 50.134 1.84 A 0.753 0.753 0 0 0 50.042 1.709 A 0.655 0.655 0 0 0 49.606 1.488 A 0.926 0.926 0 0 0 49.503 1.482 Q 49.175 1.482 48.952 1.721 Q 48.756 1.931 48.692 2.289 A 1.827 1.827 0 0 0 48.677 2.391 Z" vector-effect="non-scaling-stroke"/></g>
</svg>