<?xml version="1.0" encoding="UTF-8"?>
<svg width="80px" height="80px" viewBox="0 0 80 80" version="1.1" xmlns="http://www.w3.org/2000/svg" xmlns:xlink="http://www.w3.org/1999/xlink">
    <title>Icon-Architecture/64/Arch_AWS-Network-Firewall_64</title>
    
    <g id="Icon-Architecture/64/Arch_AWS-Network-Firewall_64" stroke="none" stroke-width="1" fill="none" fill-rule="evenodd">
        
        <g id="Icon-Service/64/AWS-Network-Firewall_64" transform="translate(16, 8), scale(.65)" fill="#000000">
            <path d="M58,50.0046767 L49,50.0046767 L46,50.0046767 L46,44.0046767 L55,44.0046767 L58,44.0046767 L58,50.0046767 Z M48,58.0046767 L36,58.0046767 L36,52.0046767 L45,52.0046767 L48,52.0046767 L48,58.0046767 Z M26.591,55.9906767 C22.422,55.9906767 18.595,53.8876767 16.354,50.3656767 C14.565,47.5556767 14.534,43.9286767 16.275,40.8946767 L16.33,40.7966767 C18.422,37.6216767 17.672,33.2106767 17.004,30.7776767 C18.923,31.7636767 20.661,34.2746767 21.278,35.3816767 C21.47,35.7236767 21.85,35.9226767 22.231,35.8926767 C22.622,35.8616767 22.958,35.6066767 23.092,35.2386767 C25.009,29.9726767 23.723,26.0846767 22.314,23.7556767 C23.568,24.1886767 25.1,24.8406767 26.616,25.7966767 C31.231,28.7066767 33.571,32.9586767 33.571,38.4336767 C33.571,38.7056767 33.683,38.9666767 33.88,39.1556767 C34.076,39.3436767 34.341,39.4396767 34.614,39.4326767 C35.808,39.3806767 37.963,38.4636767 38.96,35.5606767 C38.985,35.6966767 39,35.8446767 39,36.0046767 L39,42.0046767 L30,42.0046767 C29.447,42.0046767 29,42.4526767 29,43.0046767 L29,51.0046767 C29,51.5566767 29.447,52.0046767 30,52.0046767 L34,52.0046767 L34,53.5546767 C32.271,55.1016767 29.605,55.9906767 26.591,55.9906767 L26.591,55.9906767 Z M10.168,38.2476767 C8.267,36.9596767 6,34.5216767 6,30.2206767 C6,24.2646767 10.144,22.3116767 12.613,21.6776767 C13.076,21.5586767 13.391,21.1276767 13.362,20.6506767 L13.265,19.0116767 C13.265,14.2666767 16.533,9.16067668 20.706,7.38767668 C27.925,4.32367668 33.041,8.35267668 34.904,10.2286767 C36.423,11.7556767 37.607,13.7076767 38.425,16.0276767 C38.548,16.3776767 38.854,16.6296767 39.221,16.6846767 C39.584,16.7396767 39.954,16.5866767 40.173,16.2886767 C41.409,14.6106767 43.541,13.9116767 45.47,14.5446767 C47.64,15.2576767 48.891,17.3746767 48.91,20.3576767 L48.904,20.3946767 C48.828,20.9296767 49.191,21.4296767 49.725,21.5216767 C51.606,21.8456767 57.745,23.4366767 57.745,30.3036767 C57.745,32.5046767 57.158,34.3316767 56,35.7616767 L56,35.0046767 C56,34.4526767 55.553,34.0046767 55,34.0046767 L40.494,34.0046767 C39.876,32.8846767 38.902,32.4076767 38.843,32.3796767 C38.55,32.2466767 38.21,32.2636767 37.932,32.4216767 C37.653,32.5816767 37.468,32.8656767 37.435,33.1856767 C37.188,35.5336767 36.266,36.5866767 35.524,37.0566767 C35.049,30.1506767 31.028,26.1976767 27.622,24.0666767 C23.752,21.6456767 19.925,21.0396767 19.764,21.0146767 C19.317,20.9446767 18.882,21.1866767 18.699,21.5996767 C18.517,22.0126767 18.635,22.4976767 18.985,22.7816767 C19.172,22.9336767 23.139,26.2486767 21.794,32.5496767 C20.457,30.7736767 18.156,28.3706767 15.495,28.3706767 C15.163,28.3706767 14.854,28.5356767 14.667,28.8106767 C14.481,29.0856767 14.443,29.4346767 14.567,29.7426767 C14.591,29.8026767 16.785,35.3996767 15,39.0826767 L15,39.0046767 L12.635,39.0046767 C11.753,39.0046767 10.9,38.7426767 10.168,38.2476767 L10.168,38.2476767 Z M45,42.0046767 L41,42.0046767 L41,36.0046767 L54,36.0046767 L54,42.0046767 L45,42.0046767 Z M44,50.0046767 L35,50.0046767 L31,50.0046767 L31,44.0046767 L40,44.0046767 L44,44.0046767 L44,50.0046767 Z M59,42.0046767 L56,42.0046767 L56,38.5316767 C58.446,36.6146767 59.745,33.7766767 59.745,30.3036767 C59.745,22.7186767 53.747,20.3946767 50.89,19.7196767 C50.684,16.1926767 48.924,13.5746767 46.094,12.6446767 C43.877,11.9166767 41.482,12.4136767 39.722,13.8746767 C38.852,11.9116767 37.712,10.2156767 36.322,8.81767668 C31.842,4.31167668 25.713,3.08767668 19.925,5.54667668 C14.987,7.64367668 11.265,13.4326767 11.267,19.0706767 L11.319,19.9736767 C8.624,20.8596767 4,23.3796767 4,30.2206767 C4,35.6716767 7.162,38.6266767 9.047,39.9036767 C10.111,40.6236767 11.353,41.0046767 12.635,41.0046767 L13.999,41.0046767 C12.475,44.4386767 12.691,48.3356767 14.666,51.4396767 C17.276,55.5416767 21.734,57.9906767 26.591,57.9906767 C29.41,57.9906767 32.002,57.2976767 34,56.0516767 L34,59.0046767 C34,59.5566767 34.447,60.0046767 35,60.0046767 L49,60.0046767 C49.553,60.0046767 50,59.5566767 50,59.0046767 L50,52.0046767 L59,52.0046767 C59.553,52.0046767 60,51.5566767 60,51.0046767 L60,43.0046767 C60,42.4526767 59.553,42.0046767 59,42.0046767 L59,42.0046767 Z" id="Fill-1"></path>
        </g>
    </g><g transform="translate(18.219vw, 64vh)" id="svgGroup" stroke-linecap="round" fill-rule="evenodd" font-size="9pt" stroke="#000" stroke-width="0.15mm" fill="#000" style="stroke:#000;stroke-width:0.15mm;fill:#000"><path d="M 3.278 0.234 L 3.278 4.5 L 2.713 4.5 L 0.565 1.213 L 0.565 4.5 L 0 4.5 L 0 0.234 L 0.565 0.234 L 2.719 3.536 L 2.719 0.234 L 3.278 0.234 Z M 11.385 1.33 L 12.138 3.753 L 12.747 1.33 L 13.289 1.33 L 12.366 4.5 L 11.927 4.5 L 11.156 2.098 L 10.406 4.5 L 9.967 4.5 L 9.047 1.33 L 9.586 1.33 L 10.21 3.703 L 10.948 1.33 L 11.385 1.33 Z M 35.798 1.33 L 36.551 3.753 L 37.16 1.33 L 37.702 1.33 L 36.779 4.5 L 36.34 4.5 L 35.569 2.098 L 34.819 4.5 L 34.38 4.5 L 33.46 1.33 L 33.999 1.33 L 34.623 3.703 L 35.361 1.33 L 35.798 1.33 Z M 21.281 4.5 L 20.177 3.032 L 19.837 3.387 L 19.837 4.5 L 19.295 4.5 L 19.295 0 L 19.837 0 L 19.837 2.722 L 20.127 2.373 L 21.114 1.33 L 21.773 1.33 L 20.54 2.654 L 21.917 4.5 L 21.281 4.5 Z M 26.256 2.156 L 26.256 2.616 L 24.466 2.616 L 24.466 4.5 L 23.903 4.5 L 23.903 0.234 L 26.546 0.234 L 26.546 0.697 L 24.466 0.697 L 24.466 2.156 L 26.256 2.156 Z M 40.778 4.5 L 40.21 4.5 A 0.421 0.421 0 0 1 40.186 4.44 Q 40.155 4.342 40.134 4.166 A 1.289 1.289 0 0 1 39.719 4.46 A 1.209 1.209 0 0 1 39.231 4.559 A 1.356 1.356 0 0 1 38.879 4.515 A 1.019 1.019 0 0 1 38.462 4.293 A 0.852 0.852 0 0 1 38.163 3.673 A 1.069 1.069 0 0 1 38.162 3.621 A 1.038 1.038 0 0 1 38.218 3.271 A 0.873 0.873 0 0 1 38.539 2.852 A 1.282 1.282 0 0 1 38.923 2.666 Q 39.094 2.614 39.3 2.593 A 2.912 2.912 0 0 1 39.598 2.578 L 40.125 2.578 L 40.125 2.329 A 0.768 0.768 0 0 0 40.101 2.132 A 0.552 0.552 0 0 0 39.955 1.876 Q 39.811 1.734 39.551 1.712 A 1.166 1.166 0 0 0 39.454 1.708 A 0.95 0.95 0 0 0 39.226 1.734 A 0.712 0.712 0 0 0 38.968 1.854 A 0.57 0.57 0 0 0 38.858 1.96 A 0.395 0.395 0 0 0 38.771 2.209 L 38.227 2.209 Q 38.227 1.972 38.395 1.75 A 1.087 1.087 0 0 1 38.699 1.48 A 1.368 1.368 0 0 1 38.852 1.4 A 1.499 1.499 0 0 1 39.369 1.275 A 1.78 1.78 0 0 1 39.486 1.271 A 1.766 1.766 0 0 1 39.831 1.303 Q 40.14 1.365 40.345 1.545 A 0.931 0.931 0 0 1 40.647 2.096 A 1.332 1.332 0 0 1 40.667 2.3 L 40.667 3.759 A 2.785 2.785 0 0 0 40.679 4.026 Q 40.691 4.153 40.716 4.26 A 1.138 1.138 0 0 0 40.778 4.453 L 40.778 4.5 Z M 4.055 3.003 L 4.055 2.903 Q 4.055 2.432 4.235 2.061 A 1.461 1.461 0 0 1 4.533 1.644 A 1.356 1.356 0 0 1 4.739 1.481 Q 5.063 1.271 5.44 1.271 A 1.503 1.503 0 0 1 5.849 1.324 A 1.093 1.093 0 0 1 6.401 1.679 A 1.33 1.33 0 0 1 6.647 2.138 Q 6.709 2.332 6.732 2.568 A 2.942 2.942 0 0 1 6.744 2.845 L 6.744 3.07 L 4.597 3.07 A 1.408 1.408 0 0 0 4.644 3.409 A 1.011 1.011 0 0 0 4.871 3.828 A 0.855 0.855 0 0 0 5.493 4.115 A 1.102 1.102 0 0 0 5.537 4.116 A 1.176 1.176 0 0 0 5.756 4.097 Q 5.895 4.07 6.008 4.008 A 0.737 0.737 0 0 0 6.023 3.999 A 1.218 1.218 0 0 0 6.363 3.7 A 1.384 1.384 0 0 0 6.372 3.688 L 6.703 3.946 A 1.284 1.284 0 0 1 5.77 4.541 A 1.833 1.833 0 0 1 5.508 4.559 A 1.596 1.596 0 0 1 5.007 4.483 A 1.316 1.316 0 0 1 4.459 4.135 A 1.424 1.424 0 0 1 4.096 3.428 A 2.069 2.069 0 0 1 4.055 3.003 Z M 30.428 3.003 L 30.428 2.903 Q 30.428 2.432 30.608 2.061 A 1.461 1.461 0 0 1 30.906 1.644 A 1.356 1.356 0 0 1 31.112 1.481 Q 31.436 1.271 31.813 1.271 A 1.503 1.503 0 0 1 32.222 1.324 A 1.093 1.093 0 0 1 32.774 1.679 A 1.33 1.33 0 0 1 33.02 2.138 Q 33.082 2.332 33.105 2.568 A 2.942 2.942 0 0 1 33.117 2.845 L 33.117 3.07 L 30.97 3.07 A 1.408 1.408 0 0 0 31.017 3.409 A 1.011 1.011 0 0 0 31.244 3.828 A 0.855 0.855 0 0 0 31.866 4.115 A 1.102 1.102 0 0 0 31.91 4.116 A 1.176 1.176 0 0 0 32.129 4.097 Q 32.268 4.07 32.381 4.008 A 0.737 0.737 0 0 0 32.396 3.999 A 1.218 1.218 0 0 0 32.736 3.7 A 1.384 1.384 0 0 0 32.745 3.688 L 33.076 3.946 A 1.284 1.284 0 0 1 32.143 4.541 A 1.833 1.833 0 0 1 31.881 4.559 A 1.596 1.596 0 0 1 31.38 4.483 A 1.316 1.316 0 0 1 30.832 4.135 A 1.424 1.424 0 0 1 30.469 3.428 A 2.069 2.069 0 0 1 30.428 3.003 Z M 7.564 0.563 L 8.106 0.563 L 8.106 1.33 L 8.698 1.33 L 8.698 1.749 L 8.106 1.749 L 8.106 3.715 A 0.732 0.732 0 0 0 8.113 3.82 Q 8.121 3.873 8.137 3.916 A 0.294 0.294 0 0 0 8.186 4 A 0.234 0.234 0 0 0 8.282 4.068 Q 8.322 4.084 8.371 4.09 A 0.618 0.618 0 0 0 8.455 4.096 Q 8.549 4.096 8.713 4.061 L 8.713 4.5 A 1.642 1.642 0 0 1 8.424 4.553 A 1.438 1.438 0 0 1 8.297 4.559 A 0.954 0.954 0 0 1 8.08 4.535 Q 7.929 4.5 7.821 4.411 A 0.571 0.571 0 0 1 7.749 4.339 A 0.723 0.723 0 0 1 7.614 4.085 Q 7.564 3.925 7.564 3.715 L 7.564 1.749 L 6.987 1.749 L 6.987 1.33 L 7.564 1.33 L 7.564 0.563 Z M 42.105 0 L 42.105 4.5 L 41.563 4.5 L 41.563 0 L 42.105 0 Z M 43.562 0 L 43.562 4.5 L 43.02 4.5 L 43.02 0 L 43.562 0 Z M 13.696 2.924 L 13.696 2.886 A 2.038 2.038 0 0 1 13.754 2.391 A 1.715 1.715 0 0 1 13.879 2.048 Q 14.063 1.676 14.389 1.474 A 1.358 1.358 0 0 1 15.019 1.275 A 1.66 1.66 0 0 1 15.135 1.271 A 1.518 1.518 0 0 1 15.637 1.351 A 1.291 1.291 0 0 1 16.182 1.72 A 1.526 1.526 0 0 1 16.528 2.406 A 2.248 2.248 0 0 1 16.582 2.912 L 16.582 2.95 A 2.076 2.076 0 0 1 16.529 3.428 A 1.718 1.718 0 0 1 16.405 3.781 A 1.371 1.371 0 0 1 16.053 4.241 A 1.334 1.334 0 0 1 15.898 4.354 A 1.364 1.364 0 0 1 15.285 4.553 A 1.686 1.686 0 0 1 15.141 4.559 A 1.508 1.508 0 0 1 14.64 4.479 A 1.292 1.292 0 0 1 14.096 4.11 Q 13.696 3.662 13.696 2.924 Z M 18.794 1.313 L 18.794 1.816 A 1.501 1.501 0 0 0 18.632 1.799 A 1.855 1.855 0 0 0 18.527 1.796 A 0.958 0.958 0 0 0 18.241 1.836 Q 17.95 1.927 17.814 2.225 A 0.963 0.963 0 0 0 17.804 2.25 L 17.804 4.5 L 17.262 4.5 L 17.262 1.33 L 17.789 1.33 L 17.798 1.696 A 0.961 0.961 0 0 1 18.029 1.437 Q 18.248 1.271 18.554 1.271 A 0.99 0.99 0 0 1 18.637 1.275 Q 18.735 1.283 18.794 1.313 Z M 30.123 1.313 L 30.123 1.816 A 1.501 1.501 0 0 0 29.961 1.799 A 1.855 1.855 0 0 0 29.856 1.796 A 0.958 0.958 0 0 0 29.57 1.836 Q 29.279 1.927 29.144 2.225 A 0.963 0.963 0 0 0 29.133 2.25 L 29.133 4.5 L 28.591 4.5 L 28.591 1.33 L 29.118 1.33 L 29.127 1.696 A 0.961 0.961 0 0 1 29.358 1.437 Q 29.577 1.271 29.883 1.271 A 0.99 0.99 0 0 1 29.966 1.275 Q 30.064 1.283 30.123 1.313 Z M 27.724 1.33 L 27.724 4.5 L 27.182 4.5 L 27.182 1.33 L 27.724 1.33 Z M 14.405 3.673 A 1.03 1.03 0 0 0 14.486 3.797 Q 14.73 4.116 15.141 4.116 Q 15.554 4.116 15.797 3.792 Q 16.04 3.469 16.04 2.886 A 1.792 1.792 0 0 0 16.006 2.526 Q 15.961 2.306 15.856 2.133 A 1.057 1.057 0 0 0 15.792 2.041 A 0.821 0.821 0 0 0 15.516 1.804 Q 15.347 1.717 15.135 1.717 A 0.813 0.813 0 0 0 14.784 1.791 Q 14.621 1.868 14.497 2.023 A 1.01 1.01 0 0 0 14.487 2.036 A 1.059 1.059 0 0 0 14.319 2.368 Q 14.273 2.515 14.254 2.693 A 2.451 2.451 0 0 0 14.241 2.95 Q 14.241 3.381 14.405 3.673 Z M 40.125 3.612 L 40.125 2.962 L 39.7 2.962 A 2.544 2.544 0 0 0 39.362 2.982 Q 38.991 3.032 38.829 3.205 A 0.477 0.477 0 0 0 38.704 3.545 A 0.613 0.613 0 0 0 38.727 3.717 A 0.458 0.458 0 0 0 38.874 3.943 A 0.596 0.596 0 0 0 39.15 4.072 A 0.839 0.839 0 0 0 39.311 4.087 Q 39.565 4.087 39.794 3.955 A 0.89 0.89 0 0 0 39.991 3.803 A 0.738 0.738 0 0 0 40.125 3.612 Z M 4.614 2.625 L 6.202 2.625 L 6.202 2.584 A 1.489 1.489 0 0 0 6.167 2.327 Q 6.133 2.186 6.071 2.074 A 0.753 0.753 0 0 0 5.979 1.944 A 0.655 0.655 0 0 0 5.543 1.722 A 0.926 0.926 0 0 0 5.44 1.717 Q 5.112 1.717 4.89 1.956 Q 4.694 2.165 4.63 2.524 A 1.827 1.827 0 0 0 4.614 2.625 Z M 30.987 2.625 L 32.575 2.625 L 32.575 2.584 A 1.489 1.489 0 0 0 32.54 2.327 Q 32.506 2.186 32.444 2.074 A 0.753 0.753 0 0 0 32.353 1.944 A 0.655 0.655 0 0 0 31.916 1.722 A 0.926 0.926 0 0 0 31.813 1.717 Q 31.485 1.717 31.263 1.956 Q 31.067 2.165 31.003 2.524 A 1.827 1.827 0 0 0 30.987 2.625 Z M 27.156 0.372 A 0.357 0.357 0 0 0 27.138 0.489 A 0.403 0.403 0 0 0 27.139 0.525 A 0.304 0.304 0 0 0 27.218 0.709 Q 27.274 0.769 27.366 0.788 A 0.455 0.455 0 0 0 27.457 0.797 Q 27.615 0.797 27.697 0.709 A 0.295 0.295 0 0 0 27.762 0.6 A 0.349 0.349 0 0 0 27.779 0.489 A 0.409 0.409 0 0 0 27.779 0.469 A 0.316 0.316 0 0 0 27.697 0.267 Q 27.642 0.205 27.552 0.185 A 0.439 0.439 0 0 0 27.457 0.176 Q 27.395 0.176 27.344 0.19 A 0.257 0.257 0 0 0 27.218 0.267 A 0.31 0.31 0 0 0 27.156 0.372 Z" vector-effect="non-scaling-stroke"/></g>
</svg>