<?xml version="1.0" encoding="UTF-8"?>
<svg width="80px" height="80px" viewBox="0 0 80 80" version="1.1" xmlns="http://www.w3.org/2000/svg" xmlns:xlink="http://www.w3.org/1999/xlink">
    <!-- Generator: Sketch 64 (93537) - https://sketch.com -->
    <title>Icon-Architecture/64/Arch_AWS-Resources-Access-Manager_64</title>
    <desc>Created with Sketch.</desc>
    
    <g id="Icon-Architecture/64/Arch_AWS-Resources-Access-Manager_64" stroke="none" stroke-width="1" fill="none" fill-rule="evenodd">
        
        <path transform="translate(0vw, 0vh), scale(.65)" d="M33,60 C33,59.449 32.552,59 32,59 C31.448,59 31,59.449 31,60 C31,60.551 31.448,61 32,61 C32.552,61 33,60.551 33,60 L33,60 Z M35,60 C35,61.654 33.654,63 32,63 C30.346,63 29,61.654 29,60 C29,58.346 30.346,57 32,57 C33.654,57 35,58.346 35,60 L35,60 Z M54.431,60.845 L52.586,59 L38.71,59 C38.268,59 37.878,58.709 37.752,58.285 C37.001,55.762 34.636,54 32,54 C28.691,54 26,56.691 26,60 C26,63.309 28.691,66 32,66 C34.306,66 36.434,64.654 37.423,62.571 C37.589,62.222 37.94,62 38.326,62 L41,62 C41.266,62 41.52,62.105 41.707,62.293 L43,63.586 L44.293,62.293 C44.48,62.105 44.734,62 45,62 L47,62 C47.266,62 47.52,62.105 47.707,62.293 L49,63.586 L50.293,62.293 C50.48,62.105 50.734,62 51,62 L52.697,62 L54.431,60.845 Z M56.707,60.293 C56.919,60.505 57.024,60.8 56.995,61.099 C56.966,61.396 56.804,61.666 56.555,61.832 L53.555,63.832 C53.391,63.941 53.197,64 53,64 L51.414,64 L49.707,65.707 C49.316,66.098 48.684,66.098 48.293,65.707 L46.586,64 L45.414,64 L43.707,65.707 C43.316,66.098 42.684,66.098 42.293,65.707 L40.586,64 L38.929,64 C37.511,66.449 34.857,68 32,68 C27.589,68 24,64.411 24,60 C24,55.589 27.589,52 32,52 C35.26,52 38.208,54.022 39.418,57 L53,57 C53.266,57 53.52,57.105 53.707,57.293 L56.707,60.293 Z M47.414,25 L53,30.586 L58.586,25 L53,19.414 L47.414,25 Z M52.293,32.707 L45.293,25.707 C44.902,25.316 44.902,24.684 45.293,24.293 L52.293,17.293 C52.684,16.902 53.316,16.902 53.707,17.293 L60.707,24.293 C61.098,24.684 61.098,25.316 60.707,25.707 L53.707,32.707 C53.512,32.902 53.256,33 53,33 C52.744,33 52.488,32.902 52.293,32.707 L52.293,32.707 Z M34.09,29 L28.003,20.696 L21.964,29 L34.09,29 Z M36.063,31 L20,31 C19.624,31 19.279,30.789 19.109,30.454 C18.938,30.119 18.97,29.716 19.191,29.412 L27.191,18.412 C27.379,18.154 27.679,18 27.998,18 C28.344,17.984 28.618,18.151 28.807,18.409 L36.869,29.409 C37.092,29.713 37.125,30.116 36.954,30.452 C36.784,30.788 36.439,31 36.063,31 L36.063,31 Z M22,42.5 C22,45.533 24.468,48 27.5,48 C30.532,48 33,45.533 33,42.5 C33,39.467 30.532,37 27.5,37 C24.468,37 22,39.467 22,42.5 L22,42.5 Z M20,42.5 C20,38.364 23.364,35 27.5,35 C31.636,35 35,38.364 35,42.5 C35,46.636 31.636,50 27.5,50 C23.364,50 20,46.636 20,42.5 L20,42.5 Z M48,47 L57,47 L57,38 L48,38 L48,47 Z M59,48 C59,48.552 58.553,49 58,49 L47,49 C46.447,49 46,48.552 46,48 L46,37 C46,36.448 46.447,36 47,36 L58,36 C58.553,36 59,36.448 59,37 L59,48 Z M68,13 L68,63 C68,63.552 67.553,64 67,64 L59,64 L59,62 L66,62 L66,14 L14,14 L14,62 L21,62 L21,64 L13,64 C12.447,64 12,63.552 12,63 L12,13 C12,12.448 12.447,12 13,12 L67,12 C67.553,12 68,12.448 68,13 L68,13 Z" id="AWS-Resources-Access-Manager_Icon_64_Squid" fill="#000000"></path>
    </g><g id="svgGroup" stroke-linecap="round" fill-rule="evenodd" font-size="9pt" stroke="#000" stroke-width="0.15mm" fill="#000" style="stroke:#000;stroke-width:0.15mm;fill:#000"><path d="M 2.493 4.266 L 1.567 2.54 L 0.565 2.54 L 0.565 4.266 L 0 4.266 L 0 0 L 1.412 0 A 2.539 2.539 0 0 1 1.84 0.034 Q 2.068 0.073 2.25 0.157 A 1.192 1.192 0 0 1 2.521 0.328 A 1.059 1.059 0 0 1 2.871 0.921 A 1.635 1.635 0 0 1 2.909 1.283 A 1.242 1.242 0 0 1 2.848 1.678 A 1.093 1.093 0 0 1 2.694 1.978 A 1.232 1.232 0 0 1 2.255 2.349 A 1.562 1.562 0 0 1 2.095 2.42 L 3.097 4.231 L 3.097 4.266 L 2.493 4.266 Z M 9.149 2.027 L 8.604 2.027 A 0.473 0.473 0 0 0 8.465 1.69 A 0.668 0.668 0 0 0 8.416 1.644 A 0.666 0.666 0 0 0 8.077 1.493 A 0.906 0.906 0 0 0 7.939 1.482 A 1.098 1.098 0 0 0 7.759 1.496 Q 7.663 1.512 7.586 1.547 A 0.53 0.53 0 0 0 7.477 1.611 A 0.435 0.435 0 0 0 7.36 1.744 Q 7.311 1.831 7.31 1.941 A 0.512 0.512 0 0 0 7.31 1.948 A 0.392 0.392 0 0 0 7.33 2.077 A 0.32 0.32 0 0 0 7.465 2.244 Q 7.583 2.32 7.845 2.39 A 4.387 4.387 0 0 0 8.026 2.435 A 4.212 4.212 0 0 1 8.298 2.504 Q 8.424 2.542 8.53 2.584 A 1.895 1.895 0 0 1 8.684 2.651 Q 8.891 2.755 9.01 2.894 A 0.707 0.707 0 0 1 9.057 2.955 Q 9.179 3.132 9.179 3.387 A 0.853 0.853 0 0 1 9.104 3.748 Q 9.02 3.932 8.839 4.068 A 1.219 1.219 0 0 1 8.385 4.277 Q 8.214 4.318 8.015 4.324 A 2.224 2.224 0 0 1 7.957 4.324 Q 7.576 4.324 7.283 4.189 Q 6.99 4.055 6.825 3.813 Q 6.659 3.571 6.659 3.29 L 7.201 3.29 A 0.622 0.622 0 0 0 7.25 3.507 A 0.552 0.552 0 0 0 7.419 3.722 Q 7.609 3.871 7.912 3.881 A 1.342 1.342 0 0 0 7.957 3.882 Q 8.265 3.882 8.451 3.757 A 0.459 0.459 0 0 0 8.56 3.657 A 0.369 0.369 0 0 0 8.637 3.425 A 0.466 0.466 0 0 0 8.612 3.271 A 0.387 0.387 0 0 0 8.471 3.084 Q 8.336 2.984 8.036 2.907 A 3.595 3.595 0 0 0 7.894 2.874 A 4.228 4.228 0 0 1 7.653 2.816 Q 7.407 2.748 7.241 2.663 Q 7.042 2.562 6.928 2.428 A 0.678 0.678 0 0 1 6.883 2.37 A 0.664 0.664 0 0 1 6.775 2.079 A 0.861 0.861 0 0 1 6.768 1.966 A 0.804 0.804 0 0 1 7.034 1.363 A 1.129 1.129 0 0 1 7.097 1.307 A 1.168 1.168 0 0 1 7.619 1.067 A 1.647 1.647 0 0 1 7.939 1.037 A 1.706 1.706 0 0 1 8.315 1.076 A 1.172 1.172 0 0 1 8.814 1.315 A 0.923 0.923 0 0 1 9.066 1.633 A 0.915 0.915 0 0 1 9.149 2.027 Z M 42.126 2.027 L 41.581 2.027 A 0.473 0.473 0 0 0 41.441 1.69 A 0.668 0.668 0 0 0 41.392 1.644 A 0.666 0.666 0 0 0 41.053 1.493 A 0.906 0.906 0 0 0 40.916 1.482 A 1.098 1.098 0 0 0 40.736 1.496 Q 40.64 1.512 40.562 1.547 A 0.53 0.53 0 0 0 40.453 1.611 A 0.435 0.435 0 0 0 40.336 1.744 Q 40.288 1.831 40.286 1.941 A 0.512 0.512 0 0 0 40.286 1.948 A 0.392 0.392 0 0 0 40.306 2.077 A 0.32 0.32 0 0 0 40.441 2.244 Q 40.559 2.32 40.821 2.39 A 4.387 4.387 0 0 0 41.002 2.435 A 4.212 4.212 0 0 1 41.274 2.504 Q 41.401 2.542 41.507 2.584 A 1.895 1.895 0 0 1 41.66 2.651 Q 41.868 2.755 41.987 2.894 A 0.707 0.707 0 0 1 42.034 2.955 Q 42.155 3.132 42.155 3.387 A 0.853 0.853 0 0 1 42.081 3.748 Q 41.996 3.932 41.815 4.068 A 1.219 1.219 0 0 1 41.362 4.277 Q 41.191 4.318 40.991 4.324 A 2.224 2.224 0 0 1 40.934 4.324 Q 40.553 4.324 40.26 4.189 Q 39.967 4.055 39.801 3.813 Q 39.636 3.571 39.636 3.29 L 40.178 3.29 A 0.622 0.622 0 0 0 40.227 3.507 A 0.552 0.552 0 0 0 40.396 3.722 Q 40.586 3.871 40.888 3.881 A 1.342 1.342 0 0 0 40.934 3.882 Q 41.241 3.882 41.427 3.757 A 0.459 0.459 0 0 0 41.537 3.657 A 0.369 0.369 0 0 0 41.613 3.425 A 0.466 0.466 0 0 0 41.589 3.271 A 0.387 0.387 0 0 0 41.448 3.084 Q 41.312 2.984 41.013 2.907 A 3.595 3.595 0 0 0 40.871 2.874 A 4.228 4.228 0 0 1 40.63 2.816 Q 40.383 2.748 40.217 2.663 Q 40.018 2.562 39.904 2.428 A 0.678 0.678 0 0 1 39.86 2.37 A 0.664 0.664 0 0 1 39.751 2.079 A 0.861 0.861 0 0 1 39.744 1.966 A 0.804 0.804 0 0 1 40.01 1.363 A 1.129 1.129 0 0 1 40.074 1.307 A 1.168 1.168 0 0 1 40.596 1.067 A 1.647 1.647 0 0 1 40.916 1.037 A 1.706 1.706 0 0 1 41.292 1.076 A 1.172 1.172 0 0 1 41.791 1.315 A 0.923 0.923 0 0 1 42.042 1.633 A 0.915 0.915 0 0 1 42.126 2.027 Z M 45.22 2.027 L 44.675 2.027 A 0.473 0.473 0 0 0 44.535 1.69 A 0.668 0.668 0 0 0 44.486 1.644 A 0.666 0.666 0 0 0 44.147 1.493 A 0.906 0.906 0 0 0 44.01 1.482 A 1.098 1.098 0 0 0 43.829 1.496 Q 43.734 1.512 43.656 1.547 A 0.53 0.53 0 0 0 43.547 1.611 A 0.435 0.435 0 0 0 43.43 1.744 Q 43.381 1.831 43.38 1.941 A 0.512 0.512 0 0 0 43.38 1.948 A 0.392 0.392 0 0 0 43.4 2.077 A 0.32 0.32 0 0 0 43.535 2.244 Q 43.653 2.32 43.915 2.39 A 4.387 4.387 0 0 0 44.096 2.435 A 4.212 4.212 0 0 1 44.368 2.504 Q 44.494 2.542 44.601 2.584 A 1.895 1.895 0 0 1 44.754 2.651 Q 44.962 2.755 45.081 2.894 A 0.707 0.707 0 0 1 45.127 2.955 Q 45.249 3.132 45.249 3.387 A 0.853 0.853 0 0 1 45.175 3.748 Q 45.09 3.932 44.909 4.068 A 1.219 1.219 0 0 1 44.456 4.277 Q 44.285 4.318 44.085 4.324 A 2.224 2.224 0 0 1 44.027 4.324 Q 43.646 4.324 43.354 4.189 Q 43.061 4.055 42.895 3.813 Q 42.729 3.571 42.729 3.29 L 43.271 3.29 A 0.622 0.622 0 0 0 43.32 3.507 A 0.552 0.552 0 0 0 43.49 3.722 Q 43.679 3.871 43.982 3.881 A 1.342 1.342 0 0 0 44.027 3.882 Q 44.335 3.882 44.521 3.757 A 0.459 0.459 0 0 0 44.631 3.657 A 0.369 0.369 0 0 0 44.707 3.425 A 0.466 0.466 0 0 0 44.683 3.271 A 0.387 0.387 0 0 0 44.542 3.084 Q 44.406 2.984 44.106 2.907 A 3.595 3.595 0 0 0 43.964 2.874 A 4.228 4.228 0 0 1 43.724 2.816 Q 43.477 2.748 43.311 2.663 Q 43.112 2.562 42.998 2.428 A 0.678 0.678 0 0 1 42.954 2.37 A 0.664 0.664 0 0 1 42.845 2.079 A 0.861 0.861 0 0 1 42.838 1.966 A 0.804 0.804 0 0 1 43.104 1.363 A 1.129 1.129 0 0 1 43.167 1.307 A 1.168 1.168 0 0 1 43.689 1.067 A 1.647 1.647 0 0 1 44.01 1.037 A 1.706 1.706 0 0 1 44.385 1.076 A 1.172 1.172 0 0 1 44.884 1.315 A 0.923 0.923 0 0 1 45.136 1.633 A 0.915 0.915 0 0 1 45.22 2.027 Z M 15.275 4.266 L 15.264 3.952 A 1.017 1.017 0 0 1 14.713 4.282 Q 14.546 4.323 14.348 4.324 A 1.991 1.991 0 0 1 14.335 4.324 A 1.391 1.391 0 0 1 14.028 4.293 Q 13.824 4.246 13.675 4.133 A 0.811 0.811 0 0 1 13.563 4.03 Q 13.353 3.796 13.307 3.384 A 2.173 2.173 0 0 1 13.295 3.158 L 13.295 1.096 L 13.837 1.096 L 13.837 3.144 A 1.302 1.302 0 0 0 13.861 3.407 Q 13.956 3.864 14.423 3.864 Q 15.044 3.864 15.249 3.401 L 15.249 1.096 L 15.791 1.096 L 15.791 4.266 L 15.275 4.266 Z M 20.607 3.267 L 21.12 3.267 A 0.955 0.955 0 0 1 20.987 3.7 A 1.181 1.181 0 0 1 20.933 3.785 A 1.219 1.219 0 0 1 20.526 4.148 A 1.446 1.446 0 0 1 20.471 4.178 A 1.331 1.331 0 0 1 19.86 4.324 A 1.564 1.564 0 0 1 19.396 4.258 A 1.226 1.226 0 0 1 18.831 3.892 Q 18.48 3.495 18.451 2.831 A 2.794 2.794 0 0 1 18.448 2.71 L 18.448 2.619 A 2.16 2.16 0 0 1 18.491 2.182 A 1.713 1.713 0 0 1 18.618 1.796 A 1.339 1.339 0 0 1 18.911 1.386 A 1.261 1.261 0 0 1 19.106 1.236 A 1.295 1.295 0 0 1 19.61 1.055 A 1.686 1.686 0 0 1 19.857 1.037 A 1.464 1.464 0 0 1 20.289 1.098 A 1.191 1.191 0 0 1 20.744 1.356 A 1.129 1.129 0 0 1 21.116 2.123 A 1.493 1.493 0 0 1 21.12 2.186 L 20.607 2.186 A 0.813 0.813 0 0 0 20.539 1.909 A 0.725 0.725 0 0 0 20.375 1.68 A 0.718 0.718 0 0 0 19.888 1.483 A 0.934 0.934 0 0 0 19.857 1.482 A 0.916 0.916 0 0 0 19.576 1.523 A 0.72 0.72 0 0 0 19.217 1.78 A 0.979 0.979 0 0 0 19.066 2.078 Q 18.99 2.314 18.99 2.64 L 18.99 2.742 Q 18.99 3.29 19.216 3.586 Q 19.441 3.882 19.86 3.882 A 0.781 0.781 0 0 0 20.367 3.706 A 0.672 0.672 0 0 0 20.53 3.519 A 0.609 0.609 0 0 0 20.607 3.267 Z M 32.326 3.267 L 32.839 3.267 A 0.955 0.955 0 0 1 32.706 3.7 A 1.181 1.181 0 0 1 32.651 3.785 A 1.219 1.219 0 0 1 32.245 4.148 A 1.446 1.446 0 0 1 32.19 4.178 A 1.331 1.331 0 0 1 31.579 4.324 A 1.564 1.564 0 0 1 31.114 4.258 A 1.226 1.226 0 0 1 30.549 3.892 Q 30.198 3.495 30.17 2.831 A 2.794 2.794 0 0 1 30.167 2.71 L 30.167 2.619 A 2.16 2.16 0 0 1 30.209 2.182 A 1.713 1.713 0 0 1 30.337 1.796 A 1.339 1.339 0 0 1 30.63 1.386 A 1.261 1.261 0 0 1 30.825 1.236 A 1.295 1.295 0 0 1 31.329 1.055 A 1.686 1.686 0 0 1 31.576 1.037 A 1.464 1.464 0 0 1 32.008 1.098 A 1.191 1.191 0 0 1 32.462 1.356 A 1.129 1.129 0 0 1 32.835 2.123 A 1.493 1.493 0 0 1 32.839 2.186 L 32.326 2.186 A 0.813 0.813 0 0 0 32.258 1.909 A 0.725 0.725 0 0 0 32.093 1.68 A 0.718 0.718 0 0 0 31.607 1.483 A 0.934 0.934 0 0 0 31.576 1.482 A 0.916 0.916 0 0 0 31.295 1.523 A 0.72 0.72 0 0 0 30.936 1.78 A 0.979 0.979 0 0 0 30.785 2.078 Q 30.709 2.314 30.709 2.64 L 30.709 2.742 Q 30.709 3.29 30.935 3.586 Q 31.16 3.882 31.579 3.882 A 0.781 0.781 0 0 0 32.086 3.706 A 0.672 0.672 0 0 0 32.249 3.519 A 0.609 0.609 0 0 0 32.326 3.267 Z M 35.467 3.267 L 35.979 3.267 A 0.955 0.955 0 0 1 35.847 3.7 A 1.181 1.181 0 0 1 35.792 3.785 A 1.219 1.219 0 0 1 35.386 4.148 A 1.446 1.446 0 0 1 35.331 4.178 A 1.331 1.331 0 0 1 34.72 4.324 A 1.564 1.564 0 0 1 34.255 4.258 A 1.226 1.226 0 0 1 33.69 3.892 Q 33.339 3.495 33.31 2.831 A 2.794 2.794 0 0 1 33.308 2.71 L 33.308 2.619 A 2.16 2.16 0 0 1 33.35 2.182 A 1.713 1.713 0 0 1 33.478 1.796 A 1.339 1.339 0 0 1 33.771 1.386 A 1.261 1.261 0 0 1 33.965 1.236 A 1.295 1.295 0 0 1 34.47 1.055 A 1.686 1.686 0 0 1 34.717 1.037 A 1.464 1.464 0 0 1 35.149 1.098 A 1.191 1.191 0 0 1 35.603 1.356 A 1.129 1.129 0 0 1 35.975 2.123 A 1.493 1.493 0 0 1 35.979 2.186 L 35.467 2.186 A 0.813 0.813 0 0 0 35.399 1.909 A 0.725 0.725 0 0 0 35.234 1.68 A 0.718 0.718 0 0 0 34.748 1.483 A 0.934 0.934 0 0 0 34.717 1.482 A 0.916 0.916 0 0 0 34.436 1.523 A 0.72 0.72 0 0 0 34.077 1.78 A 0.979 0.979 0 0 0 33.925 2.078 Q 33.85 2.314 33.85 2.64 L 33.85 2.742 Q 33.85 3.29 34.075 3.586 Q 34.301 3.882 34.72 3.882 A 0.781 0.781 0 0 0 35.227 3.706 A 0.672 0.672 0 0 0 35.389 3.519 A 0.609 0.609 0 0 0 35.467 3.267 Z M 29.241 4.266 L 28.834 3.152 L 27.047 3.152 L 26.646 4.266 L 26.065 4.266 L 27.694 0 L 28.187 0 L 29.818 4.266 L 29.241 4.266 Z M 3.475 2.769 L 3.475 2.669 Q 3.475 2.197 3.655 1.827 A 1.461 1.461 0 0 1 3.953 1.41 A 1.356 1.356 0 0 1 4.159 1.247 Q 4.482 1.037 4.86 1.037 A 1.503 1.503 0 0 1 5.269 1.09 A 1.093 1.093 0 0 1 5.821 1.444 A 1.33 1.33 0 0 1 6.067 1.903 Q 6.129 2.098 6.152 2.333 A 2.942 2.942 0 0 1 6.164 2.61 L 6.164 2.836 L 4.017 2.836 A 1.408 1.408 0 0 0 4.064 3.175 A 1.011 1.011 0 0 0 4.291 3.593 A 0.855 0.855 0 0 0 4.913 3.881 A 1.102 1.102 0 0 0 4.957 3.882 A 1.176 1.176 0 0 0 5.176 3.863 Q 5.315 3.836 5.428 3.774 A 0.737 0.737 0 0 0 5.443 3.765 A 1.218 1.218 0 0 0 5.783 3.466 A 1.384 1.384 0 0 0 5.792 3.454 L 6.123 3.712 A 1.284 1.284 0 0 1 5.19 4.306 A 1.833 1.833 0 0 1 4.928 4.324 A 1.596 1.596 0 0 1 4.427 4.249 A 1.316 1.316 0 0 1 3.879 3.901 A 1.424 1.424 0 0 1 3.516 3.193 A 2.069 2.069 0 0 1 3.475 2.769 Z M 21.592 2.769 L 21.592 2.669 Q 21.592 2.197 21.772 1.827 A 1.461 1.461 0 0 1 22.07 1.41 A 1.356 1.356 0 0 1 22.276 1.247 Q 22.6 1.037 22.978 1.037 A 1.503 1.503 0 0 1 23.386 1.09 A 1.093 1.093 0 0 1 23.938 1.444 A 1.33 1.33 0 0 1 24.185 1.903 Q 24.246 2.098 24.269 2.333 A 2.942 2.942 0 0 1 24.281 2.61 L 24.281 2.836 L 22.134 2.836 A 1.408 1.408 0 0 0 22.181 3.175 A 1.011 1.011 0 0 0 22.408 3.593 A 0.855 0.855 0 0 0 23.03 3.881 A 1.102 1.102 0 0 0 23.074 3.882 A 1.176 1.176 0 0 0 23.293 3.863 Q 23.432 3.836 23.545 3.774 A 0.737 0.737 0 0 0 23.561 3.765 A 1.218 1.218 0 0 0 23.9 3.466 A 1.384 1.384 0 0 0 23.909 3.454 L 24.24 3.712 A 1.284 1.284 0 0 1 23.307 4.306 A 1.833 1.833 0 0 1 23.045 4.324 A 1.596 1.596 0 0 1 22.544 4.249 A 1.316 1.316 0 0 1 21.996 3.901 A 1.424 1.424 0 0 1 21.633 3.193 A 2.069 2.069 0 0 1 21.592 2.769 Z M 36.451 2.769 L 36.451 2.669 Q 36.451 2.197 36.631 1.827 A 1.461 1.461 0 0 1 36.93 1.41 A 1.356 1.356 0 0 1 37.135 1.247 Q 37.459 1.037 37.837 1.037 A 1.503 1.503 0 0 1 38.246 1.09 A 1.093 1.093 0 0 1 38.798 1.444 A 1.33 1.33 0 0 1 39.044 1.903 Q 39.106 2.098 39.128 2.333 A 2.942 2.942 0 0 1 39.141 2.61 L 39.141 2.836 L 36.993 2.836 A 1.408 1.408 0 0 0 37.041 3.175 A 1.011 1.011 0 0 0 37.267 3.593 A 0.855 0.855 0 0 0 37.89 3.881 A 1.102 1.102 0 0 0 37.934 3.882 A 1.176 1.176 0 0 0 38.152 3.863 Q 38.292 3.836 38.404 3.774 A 0.737 0.737 0 0 0 38.42 3.765 A 1.218 1.218 0 0 0 38.759 3.466 A 1.384 1.384 0 0 0 38.769 3.454 L 39.1 3.712 A 1.284 1.284 0 0 1 38.166 4.306 A 1.833 1.833 0 0 1 37.904 4.324 A 1.596 1.596 0 0 1 37.403 4.249 A 1.316 1.316 0 0 1 36.855 3.901 A 1.424 1.424 0 0 1 36.493 3.193 A 2.069 2.069 0 0 1 36.451 2.769 Z M 9.741 2.689 L 9.741 2.651 A 2.038 2.038 0 0 1 9.799 2.157 A 1.715 1.715 0 0 1 9.924 1.814 Q 10.107 1.441 10.434 1.239 A 1.358 1.358 0 0 1 11.064 1.041 A 1.66 1.66 0 0 1 11.18 1.037 A 1.518 1.518 0 0 1 11.682 1.117 A 1.291 1.291 0 0 1 12.227 1.485 A 1.526 1.526 0 0 1 12.573 2.171 A 2.248 2.248 0 0 1 12.627 2.678 L 12.627 2.716 A 2.076 2.076 0 0 1 12.574 3.194 A 1.718 1.718 0 0 1 12.45 3.546 A 1.371 1.371 0 0 1 12.098 4.006 A 1.334 1.334 0 0 1 11.943 4.119 A 1.364 1.364 0 0 1 11.33 4.318 A 1.686 1.686 0 0 1 11.186 4.324 A 1.508 1.508 0 0 1 10.685 4.244 A 1.292 1.292 0 0 1 10.141 3.876 Q 9.741 3.428 9.741 2.689 Z M 18.146 1.078 L 18.146 1.582 A 1.501 1.501 0 0 0 17.985 1.564 A 1.855 1.855 0 0 0 17.88 1.562 A 0.958 0.958 0 0 0 17.594 1.602 Q 17.302 1.693 17.167 1.991 A 0.963 0.963 0 0 0 17.156 2.016 L 17.156 4.266 L 16.614 4.266 L 16.614 1.096 L 17.142 1.096 L 17.15 1.462 A 0.961 0.961 0 0 1 17.382 1.203 Q 17.6 1.037 17.906 1.037 A 0.99 0.99 0 0 1 17.989 1.04 Q 18.088 1.049 18.146 1.078 Z M 10.45 3.439 A 1.03 1.03 0 0 0 10.531 3.563 Q 10.775 3.882 11.186 3.882 Q 11.599 3.882 11.842 3.558 Q 12.085 3.234 12.085 2.651 A 1.792 1.792 0 0 0 12.051 2.292 Q 12.006 2.071 11.901 1.899 A 1.057 1.057 0 0 0 11.837 1.806 A 0.821 0.821 0 0 0 11.561 1.569 Q 11.392 1.482 11.18 1.482 A 0.813 0.813 0 0 0 10.829 1.557 Q 10.666 1.633 10.542 1.789 A 1.01 1.01 0 0 0 10.532 1.802 A 1.059 1.059 0 0 0 10.364 2.134 Q 10.318 2.28 10.299 2.458 A 2.451 2.451 0 0 0 10.286 2.716 Q 10.286 3.147 10.45 3.439 Z M 0.565 0.463 L 0.565 2.08 L 1.43 2.08 A 1.311 1.311 0 0 0 1.707 2.052 Q 1.937 2.003 2.096 1.863 A 0.713 0.713 0 0 0 2.34 1.372 A 0.991 0.991 0 0 0 2.344 1.283 Q 2.344 0.922 2.147 0.714 A 0.667 0.667 0 0 0 2.108 0.677 Q 1.914 0.503 1.578 0.471 A 1.673 1.673 0 0 0 1.427 0.463 L 0.565 0.463 Z M 27.94 0.694 L 27.217 2.689 L 28.667 2.689 L 27.94 0.694 Z M 4.034 2.391 L 5.622 2.391 L 5.622 2.35 A 1.489 1.489 0 0 0 5.586 2.093 Q 5.553 1.951 5.491 1.84 A 0.753 0.753 0 0 0 5.399 1.71 A 0.655 0.655 0 0 0 4.963 1.488 A 0.926 0.926 0 0 0 4.86 1.482 Q 4.532 1.482 4.31 1.721 Q 4.114 1.931 4.049 2.289 A 1.827 1.827 0 0 0 4.034 2.391 Z M 22.151 2.391 L 23.739 2.391 L 23.739 2.35 A 1.489 1.489 0 0 0 23.704 2.093 Q 23.67 1.951 23.608 1.84 A 0.753 0.753 0 0 0 23.517 1.71 A 0.655 0.655 0 0 0 23.08 1.488 A 0.926 0.926 0 0 0 22.978 1.482 Q 22.649 1.482 22.427 1.721 Q 22.231 1.931 22.167 2.289 A 1.827 1.827 0 0 0 22.151 2.391 Z M 37.011 2.391 L 38.599 2.391 L 38.599 2.35 A 1.489 1.489 0 0 0 38.563 2.093 Q 38.53 1.951 38.468 1.84 A 0.753 0.753 0 0 0 38.376 1.71 A 0.655 0.655 0 0 0 37.94 1.488 A 0.926 0.926 0 0 0 37.837 1.482 Q 37.509 1.482 37.286 1.721 Q 37.09 1.931 37.026 2.289 A 1.827 1.827 0 0 0 37.011 2.391 Z" vector-effect="non-scaling-stroke"/></g><g transform="translate(17.375448523781444vw, 64vh)" id="svgGroup" stroke-linecap="round" fill-rule="evenodd" font-size="9pt" stroke="#000" stroke-width="0.15mm" fill="#000" style="stroke:#000;stroke-width:0.15mm;fill:#000"><path d="M 0 0 L 0.727 0 L 2.121 3.48 L 3.516 0 L 4.245 0 L 4.245 4.266 L 3.683 4.266 L 3.683 2.604 L 3.735 0.812 L 2.335 4.266 L 1.904 4.266 L 0.507 0.82 L 0.563 2.604 L 0.563 4.266 L 0 4.266 L 0 0 Z M 17.019 1.447 L 17.045 1.096 L 17.54 1.096 L 17.54 4.189 A 1.674 1.674 0 0 1 17.493 4.598 A 1.159 1.159 0 0 1 17.175 5.159 Q 16.811 5.514 16.195 5.514 A 1.63 1.63 0 0 1 15.524 5.367 A 1.335 1.335 0 0 1 15.251 5.206 A 1.042 1.042 0 0 1 15.023 4.966 L 15.305 4.641 A 1.259 1.259 0 0 0 15.594 4.907 A 1.009 1.009 0 0 0 16.157 5.071 A 1.13 1.13 0 0 0 16.409 5.045 Q 16.587 5.004 16.717 4.9 A 0.691 0.691 0 0 0 16.774 4.849 A 0.727 0.727 0 0 0 16.959 4.52 Q 16.99 4.405 16.994 4.267 A 1.422 1.422 0 0 0 16.995 4.222 L 16.995 3.949 A 1.067 1.067 0 0 1 16.294 4.313 A 1.52 1.52 0 0 1 16.107 4.324 A 1.115 1.115 0 0 1 15.604 4.212 Q 15.389 4.105 15.223 3.897 A 1.426 1.426 0 0 1 15.207 3.876 A 1.544 1.544 0 0 1 14.951 3.356 Q 14.89 3.144 14.871 2.892 A 3.146 3.146 0 0 1 14.862 2.654 A 2.607 2.607 0 0 1 14.903 2.181 Q 14.954 1.906 15.068 1.688 A 1.397 1.397 0 0 1 15.205 1.475 A 1.084 1.084 0 0 1 15.992 1.042 A 1.372 1.372 0 0 1 16.113 1.037 A 1.314 1.314 0 0 1 16.512 1.095 A 1.033 1.033 0 0 1 17.019 1.447 Z M 8.417 1.096 L 8.93 1.096 L 8.947 1.494 Q 9.311 1.037 9.896 1.037 Q 10.901 1.037 10.91 2.171 L 10.91 4.266 L 10.368 4.266 L 10.368 2.168 A 1.224 1.224 0 0 0 10.353 1.981 Q 10.338 1.885 10.305 1.809 A 0.494 0.494 0 0 0 10.211 1.661 A 0.472 0.472 0 0 0 10.022 1.541 Q 9.946 1.513 9.852 1.503 A 1.106 1.106 0 0 0 9.732 1.497 Q 9.469 1.497 9.27 1.638 Q 9.07 1.778 8.959 2.007 L 8.959 4.266 L 8.417 4.266 L 8.417 1.096 Z M 7.679 4.266 L 7.11 4.266 A 0.421 0.421 0 0 1 7.087 4.205 Q 7.056 4.108 7.034 3.932 A 1.289 1.289 0 0 1 6.62 4.226 A 1.209 1.209 0 0 1 6.132 4.324 A 1.356 1.356 0 0 1 5.779 4.281 A 1.019 1.019 0 0 1 5.363 4.059 A 0.852 0.852 0 0 1 5.064 3.439 A 1.069 1.069 0 0 1 5.063 3.387 A 1.038 1.038 0 0 1 5.119 3.037 A 0.873 0.873 0 0 1 5.439 2.618 A 1.282 1.282 0 0 1 5.823 2.432 Q 5.994 2.379 6.2 2.358 A 2.912 2.912 0 0 1 6.498 2.344 L 7.025 2.344 L 7.025 2.095 A 0.768 0.768 0 0 0 7.002 1.898 A 0.552 0.552 0 0 0 6.855 1.642 Q 6.711 1.499 6.451 1.477 A 1.166 1.166 0 0 0 6.354 1.474 A 0.95 0.95 0 0 0 6.126 1.5 A 0.712 0.712 0 0 0 5.868 1.62 A 0.57 0.57 0 0 0 5.758 1.725 A 0.395 0.395 0 0 0 5.672 1.975 L 5.127 1.975 Q 5.127 1.737 5.295 1.516 A 1.087 1.087 0 0 1 5.6 1.246 A 1.368 1.368 0 0 1 5.752 1.166 A 1.499 1.499 0 0 1 6.27 1.041 A 1.78 1.78 0 0 1 6.387 1.037 A 1.766 1.766 0 0 1 6.732 1.069 Q 7.04 1.13 7.245 1.311 A 0.931 0.931 0 0 1 7.547 1.862 A 1.332 1.332 0 0 1 7.567 2.065 L 7.567 3.524 A 2.785 2.785 0 0 0 7.579 3.792 Q 7.592 3.919 7.616 4.025 A 1.138 1.138 0 0 0 7.679 4.219 L 7.679 4.266 Z M 14.253 4.266 L 13.685 4.266 A 0.421 0.421 0 0 1 13.661 4.205 Q 13.63 4.108 13.608 3.932 A 1.289 1.289 0 0 1 13.194 4.226 A 1.209 1.209 0 0 1 12.706 4.324 A 1.356 1.356 0 0 1 12.353 4.281 A 1.019 1.019 0 0 1 11.937 4.059 A 0.852 0.852 0 0 1 11.638 3.439 A 1.069 1.069 0 0 1 11.637 3.387 A 1.038 1.038 0 0 1 11.693 3.037 A 0.873 0.873 0 0 1 12.013 2.618 A 1.282 1.282 0 0 1 12.397 2.432 Q 12.568 2.379 12.774 2.358 A 2.912 2.912 0 0 1 13.072 2.344 L 13.6 2.344 L 13.6 2.095 A 0.768 0.768 0 0 0 13.576 1.898 A 0.552 0.552 0 0 0 13.43 1.642 Q 13.285 1.499 13.025 1.477 A 1.166 1.166 0 0 0 12.929 1.474 A 0.95 0.95 0 0 0 12.701 1.5 A 0.712 0.712 0 0 0 12.442 1.62 A 0.57 0.57 0 0 0 12.333 1.725 A 0.395 0.395 0 0 0 12.246 1.975 L 11.701 1.975 Q 11.701 1.737 11.87 1.516 A 1.087 1.087 0 0 1 12.174 1.246 A 1.368 1.368 0 0 1 12.327 1.166 A 1.499 1.499 0 0 1 12.844 1.041 A 1.78 1.78 0 0 1 12.961 1.037 A 1.766 1.766 0 0 1 13.306 1.069 Q 13.614 1.13 13.819 1.311 A 0.931 0.931 0 0 1 14.122 1.862 A 1.332 1.332 0 0 1 14.142 2.065 L 14.142 3.524 A 2.785 2.785 0 0 0 14.154 3.792 Q 14.166 3.919 14.191 4.025 A 1.138 1.138 0 0 0 14.253 4.219 L 14.253 4.266 Z M 18.22 2.769 L 18.22 2.669 Q 18.22 2.197 18.4 1.827 A 1.461 1.461 0 0 1 18.698 1.41 A 1.356 1.356 0 0 1 18.904 1.247 Q 19.228 1.037 19.605 1.037 A 1.503 1.503 0 0 1 20.014 1.09 A 1.093 1.093 0 0 1 20.566 1.444 A 1.33 1.33 0 0 1 20.812 1.903 Q 20.874 2.098 20.897 2.333 A 2.942 2.942 0 0 1 20.909 2.61 L 20.909 2.836 L 18.762 2.836 A 1.408 1.408 0 0 0 18.809 3.175 A 1.011 1.011 0 0 0 19.036 3.593 A 0.855 0.855 0 0 0 19.658 3.881 A 1.102 1.102 0 0 0 19.702 3.882 A 1.176 1.176 0 0 0 19.921 3.862 Q 20.06 3.836 20.173 3.774 A 0.737 0.737 0 0 0 20.188 3.765 A 1.218 1.218 0 0 0 20.528 3.466 A 1.384 1.384 0 0 0 20.537 3.454 L 20.868 3.712 A 1.284 1.284 0 0 1 19.935 4.306 A 1.833 1.833 0 0 1 19.673 4.324 A 1.596 1.596 0 0 1 19.172 4.249 A 1.316 1.316 0 0 1 18.624 3.901 A 1.424 1.424 0 0 1 18.261 3.193 A 2.069 2.069 0 0 1 18.22 2.769 Z M 23.068 1.078 L 23.068 1.582 A 1.501 1.501 0 0 0 22.907 1.564 A 1.855 1.855 0 0 0 22.802 1.562 A 0.958 0.958 0 0 0 22.516 1.601 Q 22.224 1.693 22.089 1.991 A 0.963 0.963 0 0 0 22.078 2.016 L 22.078 4.266 L 21.536 4.266 L 21.536 1.096 L 22.063 1.096 L 22.072 1.462 A 0.961 0.961 0 0 1 22.304 1.203 Q 22.522 1.037 22.828 1.037 A 0.99 0.99 0 0 1 22.911 1.04 Q 23.009 1.049 23.068 1.078 Z M 16.995 3.398 L 16.995 1.951 A 0.959 0.959 0 0 0 16.794 1.693 Q 16.592 1.512 16.298 1.498 A 1.052 1.052 0 0 0 16.248 1.497 A 0.812 0.812 0 0 0 15.958 1.547 A 0.713 0.713 0 0 0 15.631 1.803 Q 15.407 2.112 15.407 2.716 A 2.119 2.119 0 0 0 15.431 3.043 Q 15.458 3.217 15.517 3.358 A 0.996 0.996 0 0 0 15.627 3.558 A 0.699 0.699 0 0 0 16.134 3.858 A 0.934 0.934 0 0 0 16.242 3.864 A 0.88 0.88 0 0 0 16.582 3.801 Q 16.843 3.693 16.995 3.398 Z M 7.025 3.378 L 7.025 2.728 L 6.601 2.728 A 2.544 2.544 0 0 0 6.262 2.748 Q 5.892 2.798 5.73 2.97 A 0.477 0.477 0 0 0 5.604 3.311 A 0.613 0.613 0 0 0 5.627 3.483 A 0.458 0.458 0 0 0 5.774 3.709 A 0.596 0.596 0 0 0 6.05 3.838 A 0.839 0.839 0 0 0 6.211 3.853 Q 6.466 3.853 6.694 3.721 A 0.89 0.89 0 0 0 6.891 3.569 A 0.738 0.738 0 0 0 7.025 3.378 Z M 13.6 3.378 L 13.6 2.728 L 13.175 2.728 A 2.544 2.544 0 0 0 12.836 2.748 Q 12.466 2.798 12.304 2.97 A 0.477 0.477 0 0 0 12.179 3.311 A 0.613 0.613 0 0 0 12.202 3.483 A 0.458 0.458 0 0 0 12.349 3.709 A 0.596 0.596 0 0 0 12.624 3.838 A 0.839 0.839 0 0 0 12.785 3.853 Q 13.04 3.853 13.269 3.721 A 0.89 0.89 0 0 0 13.466 3.569 A 0.738 0.738 0 0 0 13.6 3.378 Z M 18.779 2.391 L 20.367 2.391 L 20.367 2.35 A 1.489 1.489 0 0 0 20.332 2.093 Q 20.298 1.951 20.236 1.84 A 0.753 0.753 0 0 0 20.145 1.709 A 0.655 0.655 0 0 0 19.708 1.488 A 0.926 0.926 0 0 0 19.605 1.482 Q 19.277 1.482 19.055 1.721 Q 18.859 1.931 18.795 2.289 A 1.827 1.827 0 0 0 18.779 2.391 Z" vector-effect="non-scaling-stroke"/></g>
</svg>