<?xml version="1.0" encoding="UTF-8"?>
<svg width="48px" height="48px" viewBox="0 0 48 48" version="1.1" xmlns="http://www.w3.org/2000/svg" xmlns:xlink="http://www.w3.org/1999/xlink">
    <title>Icon-Resource/Storage/Res_AWS-Backup_Database_48_Light</title>
    <g id="Icon-Resource/Storage/Res_AWS-Backup_Database_48" stroke="none" stroke-width="1" fill="none" fill-rule="evenodd">
        <path transform="translate(0vw, 0vh), scale(.65)" d="M24,20.7676 C20.278,20.7676 18,19.4726 18,18.7676 L18,18.6636 C18,18.1056 19.727,16.7676 24,16.7676 C28.273,16.7676 30,18.1056 30,18.6636 L30,18.7676 C30,19.4726 27.722,20.7676 24,20.7676 L24,20.7676 Z M24.008,33.7616 L23.992,33.7616 C21.099,33.7406 18,33.0276 18,31.9996 L18,21.4996 C19.541,22.3376 21.778,22.7676 24,22.7676 C26.222,22.7676 28.459,22.3376 30,21.4996 L30,31.9996 C30,33.0276 26.901,33.7406 24.008,33.7616 L24.008,33.7616 Z M24,14.7676 C19.215,14.7676 16,16.3336 16,18.6636 L16,31.9996 C16,35.4366 22.106,35.7476 23.987,35.7616 L23.998,35.7616 L24.022,35.7616 C25.894,35.7476 32,35.4366 32,31.9996 L32,18.6636 C32,16.3336 28.785,14.7676 24,14.7676 L24,14.7676 Z M42,20.9996 C40.897,20.9996 40,20.1026 40,18.9996 C40,17.8966 40.897,16.9996 42,16.9996 C43.103,16.9996 44,17.8966 44,18.9996 C44,20.1026 43.103,20.9996 42,20.9996 L42,20.9996 Z M34.296,37.0296 C34.196,37.0226 34.101,36.9996 34,36.9996 C32.141,36.9996 30.589,38.2796 30.142,39.9996 L17.858,39.9996 C17.411,38.2796 15.859,36.9996 14,36.9996 C13.899,36.9996 13.804,37.0226 13.704,37.0296 L8.195,22.3376 C9.28,21.6216 10,20.3946 10,18.9996 C10,18.5106 9.899,18.0466 9.738,17.6136 L21.812,9.3416 C22.442,9.7556 23.192,9.9996 24,9.9996 C24.808,9.9996 25.558,9.7556 26.188,9.3416 L38.262,17.6136 C38.101,18.0466 38,18.5106 38,18.9996 C38,20.3946 38.72,21.6216 39.805,22.3376 L34.296,37.0296 Z M34,42.9996 C32.897,42.9996 32,42.1026 32,40.9996 C32,39.8966 32.897,38.9996 34,38.9996 C35.103,38.9996 36,39.8966 36,40.9996 C36,42.1026 35.103,42.9996 34,42.9996 L34,42.9996 Z M14,42.9996 C12.897,42.9996 12,42.1026 12,40.9996 C12,39.8966 12.897,38.9996 14,38.9996 C15.103,38.9996 16,39.8966 16,40.9996 C16,42.1026 15.103,42.9996 14,42.9996 L14,42.9996 Z M4,18.9996 C4,17.8966 4.897,16.9996 6,16.9996 C7.103,16.9996 8,17.8966 8,18.9996 C8,20.1026 7.103,20.9996 6,20.9996 C4.897,20.9996 4,20.1026 4,18.9996 L4,18.9996 Z M24,3.9996 C25.103,3.9996 26,4.8966 26,5.9996 C26,7.1026 25.103,7.9996 24,7.9996 C22.897,7.9996 22,7.1026 22,5.9996 C22,4.8966 22.897,3.9996 24,3.9996 L24,3.9996 Z M42,14.9996 C41.008,14.9996 40.111,15.3756 39.412,15.9756 L27.532,7.8376 C27.821,7.2846 28,6.6656 28,5.9996 C28,3.7946 26.206,1.9996 24,1.9996 C21.794,1.9996 20,3.7946 20,5.9996 C20,6.6656 20.179,7.2846 20.468,7.8376 L8.588,15.9756 C7.889,15.3756 6.992,14.9996 6,14.9996 C3.794,14.9996 2,16.7946 2,18.9996 C2,21.2056 3.794,22.9996 6,22.9996 C6.101,22.9996 6.196,22.9776 6.296,22.9706 L11.805,37.6626 C10.72,38.3786 10,39.6056 10,40.9996 C10,43.2056 11.794,44.9996 14,44.9996 C15.859,44.9996 17.411,43.7206 17.858,41.9996 L30.142,41.9996 C30.589,43.7206 32.141,44.9996 34,44.9996 C36.206,44.9996 38,43.2056 38,40.9996 C38,39.6056 37.28,38.3786 36.195,37.6626 L41.704,22.9706 C41.804,22.9776 41.899,22.9996 42,22.9996 C44.206,22.9996 46,21.2056 46,18.9996 C46,16.7946 44.206,14.9996 42,14.9996 L42,14.9996 Z" id="Fill-1" fill="#000000"></path>
    </g><g transform="translate(33vw, 80vh)" id="svgGroup" stroke-linecap="round" fill-rule="evenodd" font-size="9pt" stroke="#000" stroke-width="0.25mm" fill="#000" style="stroke:#000;stroke-width:0.25mm;fill:#000"><path d="M 23.12 0.088 L 24.13 4.469 L 24.253 5.313 L 24.434 4.553 L 25.699 0.088 L 26.411 0.088 L 27.646 4.553 L 27.822 5.326 L 27.958 4.465 L 28.951 0.088 L 29.799 0.088 L 28.248 6.486 L 27.479 6.486 L 26.161 1.824 L 26.06 1.336 L 25.958 1.824 L 24.592 6.486 L 23.823 6.486 L 22.276 0.088 L 23.12 0.088 Z M 34.98 1.938 L 34.132 1.938 A 1.466 1.466 0 0 0 34.083 1.546 A 1.066 1.066 0 0 0 33.763 1.026 A 1.211 1.211 0 0 0 33.294 0.77 Q 33.042 0.694 32.722 0.694 A 2.286 2.286 0 0 0 32.342 0.724 Q 32.14 0.758 31.977 0.831 A 1.101 1.101 0 0 0 31.748 0.969 A 0.892 0.892 0 0 0 31.403 1.624 A 1.267 1.267 0 0 0 31.399 1.732 A 0.806 0.806 0 0 0 31.667 2.337 A 1.134 1.134 0 0 0 31.731 2.393 A 1.562 1.562 0 0 0 31.969 2.549 Q 32.299 2.73 32.86 2.887 A 8.228 8.228 0 0 1 33.325 3.032 Q 33.56 3.113 33.754 3.2 A 3.297 3.297 0 0 1 34.108 3.382 A 2.342 2.342 0 0 1 34.447 3.626 Q 34.637 3.792 34.759 3.985 A 1.45 1.45 0 0 1 34.776 4.012 A 1.498 1.498 0 0 1 34.972 4.568 A 1.948 1.948 0 0 1 34.994 4.86 A 1.606 1.606 0 0 1 34.871 5.497 Q 34.726 5.838 34.408 6.09 A 1.886 1.886 0 0 1 34.387 6.106 Q 33.781 6.574 32.766 6.574 A 3.023 3.023 0 0 1 31.625 6.36 A 2.917 2.917 0 0 1 31.535 6.322 A 2.383 2.383 0 0 1 31.057 6.044 A 1.874 1.874 0 0 1 30.654 5.629 A 1.689 1.689 0 0 1 30.344 4.632 L 31.192 4.632 A 1.261 1.261 0 0 0 31.262 5.059 A 1.074 1.074 0 0 0 31.621 5.548 Q 32.005 5.85 32.622 5.881 A 2.87 2.87 0 0 0 32.766 5.884 A 2.628 2.628 0 0 0 33.153 5.858 Q 33.349 5.828 33.508 5.767 A 1.129 1.129 0 0 0 33.79 5.612 Q 34.146 5.339 34.146 4.869 A 1.074 1.074 0 0 0 34.103 4.559 A 0.816 0.816 0 0 0 33.816 4.142 Q 33.486 3.885 32.621 3.634 Q 31.535 3.322 31.041 2.868 Q 30.546 2.413 30.546 1.745 Q 30.546 0.989 31.151 0.494 A 2.121 2.121 0 0 1 32.041 0.071 A 3.087 3.087 0 0 1 32.722 0 A 2.913 2.913 0 0 1 33.382 0.072 A 2.372 2.372 0 0 1 33.897 0.255 A 2.051 2.051 0 0 1 34.428 0.626 A 1.834 1.834 0 0 1 34.697 0.958 A 1.798 1.798 0 0 1 34.98 1.938 Z M 3.74 6.486 L 2.351 3.898 L 0.848 3.898 L 0.848 6.486 L 0 6.486 L 0 0.088 L 2.118 0.088 A 3.809 3.809 0 0 1 2.76 0.138 Q 3.102 0.197 3.376 0.324 A 1.789 1.789 0 0 1 3.781 0.58 A 1.588 1.588 0 0 1 4.307 1.469 A 2.453 2.453 0 0 1 4.364 2.013 A 1.864 1.864 0 0 1 4.273 2.604 A 1.64 1.64 0 0 1 4.041 3.054 A 1.849 1.849 0 0 1 3.382 3.611 A 2.342 2.342 0 0 1 3.142 3.718 L 4.645 6.434 L 4.645 6.486 L 3.74 6.486 Z M 13.724 3.129 L 12.907 3.129 Q 12.907 2.795 12.623 2.553 Q 12.34 2.312 11.909 2.312 Q 11.465 2.312 11.215 2.505 A 0.653 0.653 0 0 0 11.04 2.704 Q 10.967 2.835 10.964 3 A 0.771 0.771 0 0 0 10.964 3.01 A 0.588 0.588 0 0 0 10.994 3.203 A 0.48 0.48 0 0 0 11.197 3.454 A 1.093 1.093 0 0 0 11.348 3.533 Q 11.512 3.605 11.767 3.673 A 6.581 6.581 0 0 0 12.039 3.74 A 6.318 6.318 0 0 1 12.446 3.845 Q 12.783 3.944 13.025 4.065 A 1.901 1.901 0 0 1 13.281 4.218 Q 13.418 4.315 13.516 4.429 A 1.06 1.06 0 0 1 13.586 4.52 A 1.024 1.024 0 0 1 13.748 4.927 A 1.388 1.388 0 0 1 13.768 5.168 Q 13.768 5.805 13.258 6.19 Q 12.776 6.554 12.022 6.573 A 3.337 3.337 0 0 1 11.936 6.574 A 2.746 2.746 0 0 1 11.401 6.525 A 2.124 2.124 0 0 1 10.925 6.372 A 1.771 1.771 0 0 1 10.491 6.094 A 1.54 1.54 0 0 1 10.237 5.807 Q 9.989 5.445 9.989 5.023 L 10.802 5.023 A 0.932 0.932 0 0 0 10.875 5.348 A 0.827 0.827 0 0 0 11.129 5.671 A 1.072 1.072 0 0 0 11.531 5.864 Q 11.686 5.903 11.867 5.91 A 2.013 2.013 0 0 0 11.936 5.911 A 1.863 1.863 0 0 0 12.231 5.889 Q 12.393 5.863 12.524 5.806 A 0.941 0.941 0 0 0 12.676 5.724 A 0.689 0.689 0 0 0 12.841 5.574 A 0.554 0.554 0 0 0 12.955 5.225 A 0.698 0.698 0 0 0 12.919 4.994 A 0.581 0.581 0 0 0 12.707 4.713 A 1.05 1.05 0 0 0 12.538 4.615 Q 12.349 4.524 12.054 4.449 A 5.392 5.392 0 0 0 11.841 4.399 A 6.342 6.342 0 0 1 11.48 4.311 Q 11.11 4.209 10.861 4.083 Q 10.562 3.93 10.392 3.731 A 1.017 1.017 0 0 1 10.325 3.643 Q 10.151 3.388 10.151 3.037 A 1.206 1.206 0 0 1 10.55 2.132 A 1.694 1.694 0 0 1 10.646 2.048 A 1.752 1.752 0 0 1 11.429 1.688 A 2.471 2.471 0 0 1 11.909 1.644 A 2.559 2.559 0 0 1 12.473 1.702 A 1.757 1.757 0 0 1 13.221 2.061 Q 13.724 2.479 13.724 3.129 Z M 21.327 6.486 L 20.716 4.816 L 18.035 4.816 L 17.433 6.486 L 16.563 6.486 L 19.006 0.088 L 19.745 0.088 L 22.192 6.486 L 21.327 6.486 Z M 5.212 4.241 L 5.212 4.091 A 3.17 3.17 0 0 1 5.288 3.382 A 2.581 2.581 0 0 1 5.482 2.828 A 2.191 2.191 0 0 1 5.93 2.202 A 2.033 2.033 0 0 1 6.238 1.958 Q 6.724 1.644 7.291 1.644 A 2.254 2.254 0 0 1 7.904 1.723 A 1.639 1.639 0 0 1 8.732 2.254 Q 9.246 2.865 9.246 4.003 L 9.246 4.342 L 6.025 4.342 A 2.111 2.111 0 0 0 6.096 4.85 A 1.516 1.516 0 0 0 6.436 5.478 A 1.282 1.282 0 0 0 7.37 5.909 A 1.652 1.652 0 0 0 7.436 5.911 A 1.763 1.763 0 0 0 7.764 5.882 Q 7.988 5.839 8.165 5.735 A 1.827 1.827 0 0 0 8.674 5.287 A 2.068 2.068 0 0 0 8.688 5.269 L 9.185 5.656 A 1.926 1.926 0 0 1 7.785 6.547 A 2.749 2.749 0 0 1 7.392 6.574 A 2.394 2.394 0 0 1 6.64 6.461 A 1.974 1.974 0 0 1 5.818 5.939 Q 5.212 5.304 5.212 4.241 Z M 0.848 0.782 L 0.848 3.208 L 2.145 3.208 Q 2.685 3.208 3.035 2.968 A 1.174 1.174 0 0 0 3.144 2.883 A 1.069 1.069 0 0 0 3.51 2.146 A 1.486 1.486 0 0 0 3.516 2.013 Q 3.516 1.47 3.22 1.159 A 1 1 0 0 0 3.162 1.103 Q 2.808 0.787 2.14 0.782 L 0.848 0.782 Z M 19.375 1.129 L 18.29 4.122 L 20.465 4.122 L 19.375 1.129 Z M 6.051 3.674 L 8.433 3.674 L 8.433 3.612 Q 8.407 3.153 8.236 2.848 A 1.13 1.13 0 0 0 8.099 2.652 A 0.983 0.983 0 0 0 7.445 2.32 A 1.39 1.39 0 0 0 7.291 2.312 A 1.106 1.106 0 0 0 6.768 2.435 A 1.14 1.14 0 0 0 6.464 2.67 A 1.417 1.417 0 0 0 6.188 3.116 Q 6.114 3.3 6.074 3.522 A 2.741 2.741 0 0 0 6.051 3.674 Z" vector-effect="non-scaling-stroke"/></g><g transform="translate(12vw, 90vh)" id="svgGroup" stroke-linecap="round" fill-rule="evenodd" font-size="9pt" stroke="#000" stroke-width="0.25mm" fill="#000" style="stroke:#000;stroke-width:0.25mm;fill:#000"><path d="M 97.321 0 L 97.321 2.571 A 1.767 1.767 0 0 1 97.987 2.053 A 1.832 1.832 0 0 1 98.728 1.907 A 1.905 1.905 0 0 1 99.361 2.004 Q 100.203 2.3 100.246 3.506 A 3.668 3.668 0 0 1 100.248 3.608 L 100.248 6.75 L 99.435 6.75 L 99.435 3.604 A 1.837 1.837 0 0 0 99.413 3.324 Q 99.363 3.017 99.2 2.843 Q 99.014 2.645 98.66 2.606 A 1.66 1.66 0 0 0 98.481 2.597 A 1.253 1.253 0 0 0 98.067 2.664 A 1.123 1.123 0 0 0 97.787 2.808 A 1.432 1.432 0 0 0 97.321 3.362 L 97.321 6.75 L 96.508 6.75 L 96.508 0 L 97.321 0 Z M 18.066 6.75 L 16.409 4.548 L 15.899 5.08 L 15.899 6.75 L 15.086 6.75 L 15.086 0 L 15.899 0 L 15.899 4.083 L 16.334 3.56 L 17.815 1.995 L 18.804 1.995 L 16.954 3.981 L 19.02 6.75 L 18.066 6.75 Z M 94.5 2.522 L 94.54 1.995 L 95.282 1.995 L 95.282 6.636 A 2.511 2.511 0 0 1 95.212 7.249 A 1.738 1.738 0 0 1 94.735 8.09 A 1.834 1.834 0 0 1 93.805 8.57 A 2.671 2.671 0 0 1 93.265 8.622 A 2.446 2.446 0 0 1 92.259 8.402 A 2.003 2.003 0 0 1 91.849 8.161 A 1.563 1.563 0 0 1 91.507 7.8 L 91.929 7.313 A 1.889 1.889 0 0 0 92.364 7.712 A 1.514 1.514 0 0 0 93.208 7.958 A 1.695 1.695 0 0 0 93.585 7.919 Q 93.853 7.858 94.047 7.702 A 1.037 1.037 0 0 0 94.133 7.625 A 1.09 1.09 0 0 0 94.41 7.132 Q 94.457 6.959 94.464 6.752 A 2.134 2.134 0 0 0 94.465 6.684 L 94.465 6.275 A 1.601 1.601 0 0 1 93.413 6.821 A 2.279 2.279 0 0 1 93.133 6.838 A 1.672 1.672 0 0 1 92.378 6.67 Q 92.056 6.51 91.806 6.197 A 2.14 2.14 0 0 1 91.782 6.166 A 2.316 2.316 0 0 1 91.399 5.386 Q 91.266 4.922 91.266 4.333 Q 91.266 3.472 91.574 2.884 A 2.096 2.096 0 0 1 91.78 2.564 Q 92.294 1.907 93.142 1.907 A 1.971 1.971 0 0 1 93.741 1.994 A 1.55 1.55 0 0 1 94.5 2.522 Z M 63.998 3.393 L 63.18 3.393 Q 63.18 3.059 62.897 2.817 Q 62.613 2.575 62.183 2.575 Q 61.739 2.575 61.488 2.769 A 0.653 0.653 0 0 0 61.313 2.967 Q 61.24 3.098 61.238 3.263 A 0.771 0.771 0 0 0 61.238 3.274 A 0.588 0.588 0 0 0 61.268 3.467 A 0.48 0.48 0 0 0 61.471 3.718 A 1.093 1.093 0 0 0 61.621 3.796 Q 61.785 3.868 62.041 3.937 A 6.581 6.581 0 0 0 62.312 4.003 A 6.318 6.318 0 0 1 62.72 4.108 Q 63.057 4.208 63.299 4.329 A 1.901 1.901 0 0 1 63.555 4.481 Q 63.692 4.579 63.789 4.692 A 1.06 1.06 0 0 1 63.859 4.783 A 1.024 1.024 0 0 1 64.021 5.191 A 1.388 1.388 0 0 1 64.042 5.432 Q 64.042 6.069 63.532 6.453 Q 63.049 6.817 62.295 6.837 A 3.337 3.337 0 0 1 62.209 6.838 A 2.746 2.746 0 0 1 61.675 6.788 A 2.124 2.124 0 0 1 61.198 6.636 A 1.771 1.771 0 0 1 60.764 6.358 A 1.54 1.54 0 0 1 60.51 6.071 Q 60.262 5.708 60.262 5.287 L 61.075 5.287 A 0.932 0.932 0 0 0 61.149 5.612 A 0.827 0.827 0 0 0 61.403 5.935 A 1.072 1.072 0 0 0 61.805 6.128 Q 61.959 6.167 62.141 6.173 A 2.013 2.013 0 0 0 62.209 6.174 A 1.863 1.863 0 0 0 62.505 6.152 Q 62.666 6.126 62.798 6.07 A 0.941 0.941 0 0 0 62.949 5.988 A 0.689 0.689 0 0 0 63.114 5.837 A 0.554 0.554 0 0 0 63.229 5.489 A 0.698 0.698 0 0 0 63.192 5.258 A 0.581 0.581 0 0 0 62.98 4.977 A 1.05 1.05 0 0 0 62.811 4.878 Q 62.623 4.788 62.328 4.712 A 5.392 5.392 0 0 0 62.115 4.663 A 6.342 6.342 0 0 1 61.753 4.575 Q 61.384 4.473 61.135 4.346 Q 60.836 4.194 60.665 3.994 A 1.017 1.017 0 0 1 60.598 3.907 Q 60.425 3.652 60.425 3.3 A 1.206 1.206 0 0 1 60.824 2.396 A 1.694 1.694 0 0 1 60.919 2.312 A 1.752 1.752 0 0 1 61.702 1.952 A 2.471 2.471 0 0 1 62.183 1.907 A 2.559 2.559 0 0 1 62.746 1.966 A 1.757 1.757 0 0 1 63.494 2.325 Q 63.998 2.742 63.998 3.393 Z M 22.597 6.75 L 22.579 6.28 A 1.526 1.526 0 0 1 21.753 6.775 Q 21.503 6.836 21.205 6.838 A 2.996 2.996 0 0 1 21.186 6.838 A 2.086 2.086 0 0 1 20.726 6.79 Q 20.295 6.693 20.028 6.396 A 1.41 1.41 0 0 1 19.745 5.899 Q 19.628 5.556 19.626 5.089 L 19.626 1.995 L 20.439 1.995 L 20.439 5.067 Q 20.439 6.037 21.147 6.137 A 1.229 1.229 0 0 0 21.318 6.148 A 1.927 1.927 0 0 0 21.769 6.099 Q 22.331 5.964 22.557 5.454 L 22.557 1.995 L 23.37 1.995 L 23.37 6.75 L 22.597 6.75 Z M 13.399 5.251 L 14.168 5.251 A 1.432 1.432 0 0 1 13.969 5.901 A 1.772 1.772 0 0 1 13.887 6.029 A 1.828 1.828 0 0 1 13.277 6.574 A 2.169 2.169 0 0 1 13.195 6.618 A 1.997 1.997 0 0 1 12.278 6.838 A 2.346 2.346 0 0 1 11.581 6.739 A 1.839 1.839 0 0 1 10.734 6.19 A 2.171 2.171 0 0 1 10.27 5.31 Q 10.16 4.909 10.16 4.417 L 10.16 4.28 A 3.24 3.24 0 0 1 10.224 3.624 A 2.57 2.57 0 0 1 10.415 3.045 A 2.008 2.008 0 0 1 10.855 2.431 A 1.892 1.892 0 0 1 11.147 2.206 A 1.943 1.943 0 0 1 11.903 1.934 A 2.529 2.529 0 0 1 12.274 1.907 A 2.196 2.196 0 0 1 12.922 1.999 A 1.786 1.786 0 0 1 13.603 2.386 A 1.693 1.693 0 0 1 14.162 3.535 A 2.239 2.239 0 0 1 14.168 3.63 L 13.399 3.63 Q 13.364 3.168 13.05 2.872 A 1.078 1.078 0 0 0 12.32 2.576 A 1.402 1.402 0 0 0 12.274 2.575 A 1.374 1.374 0 0 0 11.852 2.637 A 1.081 1.081 0 0 0 11.314 3.021 A 1.469 1.469 0 0 0 11.087 3.468 Q 11.021 3.674 10.993 3.923 A 3.514 3.514 0 0 0 10.973 4.311 L 10.973 4.465 Q 10.973 5.287 11.312 5.73 A 1.1 1.1 0 0 0 12.098 6.165 A 1.611 1.611 0 0 0 12.278 6.174 A 1.171 1.171 0 0 0 13.039 5.911 A 1.007 1.007 0 0 0 13.283 5.629 A 0.914 0.914 0 0 0 13.399 5.251 Z M 9.264 6.75 L 8.411 6.75 A 0.632 0.632 0 0 1 8.376 6.66 Q 8.344 6.562 8.32 6.41 A 3.997 3.997 0 0 1 8.297 6.249 Q 7.73 6.838 6.943 6.838 A 2.033 2.033 0 0 1 6.414 6.772 A 1.529 1.529 0 0 1 5.79 6.44 Q 5.339 6.042 5.339 5.432 Q 5.339 4.689 5.904 4.278 Q 6.469 3.867 7.493 3.867 L 8.284 3.867 L 8.284 3.494 A 1.152 1.152 0 0 0 8.248 3.199 A 0.828 0.828 0 0 0 8.029 2.815 Q 7.813 2.6 7.422 2.568 A 1.748 1.748 0 0 0 7.277 2.562 Q 6.842 2.562 6.548 2.782 Q 6.253 3.001 6.253 3.313 L 5.436 3.313 A 1.041 1.041 0 0 1 5.561 2.825 A 1.409 1.409 0 0 1 5.689 2.626 Q 5.941 2.294 6.374 2.101 A 2.249 2.249 0 0 1 7.15 1.913 A 2.669 2.669 0 0 1 7.326 1.907 A 2.65 2.65 0 0 1 7.843 1.955 Q 8.15 2.016 8.389 2.156 A 1.439 1.439 0 0 1 8.613 2.318 A 1.396 1.396 0 0 1 9.067 3.144 A 1.998 1.998 0 0 1 9.097 3.45 L 9.097 5.638 Q 9.097 6.073 9.17 6.39 A 1.707 1.707 0 0 0 9.264 6.68 L 9.264 6.75 Z M 41.572 6.75 L 40.72 6.75 A 0.632 0.632 0 0 1 40.684 6.66 Q 40.653 6.562 40.628 6.41 A 3.997 3.997 0 0 1 40.605 6.249 Q 40.039 6.838 39.252 6.838 A 2.033 2.033 0 0 1 38.723 6.772 A 1.529 1.529 0 0 1 38.098 6.44 Q 37.648 6.042 37.648 5.432 Q 37.648 4.689 38.213 4.278 Q 38.777 3.867 39.801 3.867 L 40.592 3.867 L 40.592 3.494 A 1.152 1.152 0 0 0 40.557 3.199 A 0.828 0.828 0 0 0 40.337 2.815 Q 40.121 2.6 39.731 2.568 A 1.748 1.748 0 0 0 39.586 2.562 Q 39.151 2.562 38.856 2.782 Q 38.562 3.001 38.562 3.313 L 37.745 3.313 A 1.041 1.041 0 0 1 37.87 2.825 A 1.409 1.409 0 0 1 37.997 2.626 Q 38.25 2.294 38.683 2.101 A 2.249 2.249 0 0 1 39.459 1.913 A 2.669 2.669 0 0 1 39.634 1.907 A 2.65 2.65 0 0 1 40.152 1.955 Q 40.459 2.016 40.698 2.156 A 1.439 1.439 0 0 1 40.922 2.318 A 1.396 1.396 0 0 1 41.375 3.144 A 1.998 1.998 0 0 1 41.405 3.45 L 41.405 5.638 Q 41.405 6.073 41.479 6.39 A 1.707 1.707 0 0 0 41.572 6.68 L 41.572 6.75 Z M 49.408 6.75 L 48.555 6.75 A 0.632 0.632 0 0 1 48.52 6.66 Q 48.488 6.562 48.464 6.41 A 3.997 3.997 0 0 1 48.441 6.249 Q 47.874 6.838 47.087 6.838 A 2.033 2.033 0 0 1 46.558 6.772 A 1.529 1.529 0 0 1 45.934 6.44 Q 45.483 6.042 45.483 5.432 Q 45.483 4.689 46.048 4.278 Q 46.613 3.867 47.637 3.867 L 48.428 3.867 L 48.428 3.494 A 1.152 1.152 0 0 0 48.392 3.199 A 0.828 0.828 0 0 0 48.173 2.815 Q 47.957 2.6 47.566 2.568 A 1.748 1.748 0 0 0 47.421 2.562 Q 46.986 2.562 46.692 2.782 Q 46.397 3.001 46.397 3.313 L 45.58 3.313 A 1.041 1.041 0 0 1 45.705 2.825 A 1.409 1.409 0 0 1 45.833 2.626 Q 46.085 2.294 46.518 2.101 A 2.249 2.249 0 0 1 47.294 1.913 A 2.669 2.669 0 0 1 47.47 1.907 A 2.65 2.65 0 0 1 47.987 1.955 Q 48.294 2.016 48.533 2.156 A 1.439 1.439 0 0 1 48.757 2.318 A 1.396 1.396 0 0 1 49.211 3.144 A 1.998 1.998 0 0 1 49.241 3.45 L 49.241 5.638 Q 49.241 6.073 49.314 6.39 A 1.707 1.707 0 0 0 49.408 6.68 L 49.408 6.75 Z M 59.353 6.75 L 58.5 6.75 A 0.632 0.632 0 0 1 58.465 6.66 Q 58.433 6.562 58.408 6.41 A 3.997 3.997 0 0 1 58.386 6.249 Q 57.819 6.838 57.032 6.838 A 2.033 2.033 0 0 1 56.503 6.772 A 1.529 1.529 0 0 1 55.879 6.44 Q 55.428 6.042 55.428 5.432 Q 55.428 4.689 55.993 4.278 Q 56.558 3.867 57.582 3.867 L 58.373 3.867 L 58.373 3.494 A 1.152 1.152 0 0 0 58.337 3.199 A 0.828 0.828 0 0 0 58.118 2.815 Q 57.901 2.6 57.511 2.568 A 1.748 1.748 0 0 0 57.366 2.562 Q 56.931 2.562 56.637 2.782 Q 56.342 3.001 56.342 3.313 L 55.525 3.313 A 1.041 1.041 0 0 1 55.65 2.825 A 1.409 1.409 0 0 1 55.778 2.626 Q 56.03 2.294 56.463 2.101 A 2.249 2.249 0 0 1 57.239 1.913 A 2.669 2.669 0 0 1 57.415 1.907 A 2.65 2.65 0 0 1 57.932 1.955 Q 58.239 2.016 58.478 2.156 A 1.439 1.439 0 0 1 58.702 2.318 A 1.396 1.396 0 0 1 59.155 3.144 A 1.998 1.998 0 0 1 59.186 3.45 L 59.186 5.638 Q 59.186 6.073 59.259 6.39 A 1.707 1.707 0 0 0 59.353 6.68 L 59.353 6.75 Z M 54.541 4.355 L 54.541 4.425 Q 54.541 5.308 54.212 5.909 A 2.141 2.141 0 0 1 54.04 6.177 A 1.647 1.647 0 0 1 53.453 6.673 Q 53.138 6.828 52.747 6.837 A 2.112 2.112 0 0 1 52.695 6.838 A 2.039 2.039 0 0 1 52.1 6.756 A 1.561 1.561 0 0 1 51.302 6.201 L 51.262 6.75 L 50.515 6.75 L 50.515 0 L 51.328 0 L 51.328 2.518 A 1.605 1.605 0 0 1 52.495 1.915 A 2.285 2.285 0 0 1 52.686 1.907 A 1.835 1.835 0 0 1 53.317 2.011 A 1.579 1.579 0 0 1 54.046 2.562 Q 54.46 3.11 54.527 3.998 A 4.727 4.727 0 0 1 54.541 4.355 Z M 28.622 4.351 L 28.622 4.425 Q 28.622 5.511 28.125 6.174 A 1.57 1.57 0 0 1 26.987 6.828 A 2.013 2.013 0 0 1 26.78 6.838 A 2.196 2.196 0 0 1 26.194 6.764 A 1.598 1.598 0 0 1 25.418 6.289 L 25.418 8.578 L 24.605 8.578 L 24.605 1.995 L 25.348 1.995 L 25.387 2.522 A 1.619 1.619 0 0 1 26.526 1.919 A 2.319 2.319 0 0 1 26.767 1.907 A 1.829 1.829 0 0 1 27.404 2.014 A 1.597 1.597 0 0 1 28.123 2.553 Q 28.622 3.199 28.622 4.351 Z M 64.894 4.504 L 64.894 4.355 A 3.17 3.17 0 0 1 64.97 3.646 A 2.581 2.581 0 0 1 65.164 3.092 A 2.191 2.191 0 0 1 65.612 2.466 A 2.033 2.033 0 0 1 65.92 2.221 Q 66.406 1.907 66.973 1.907 A 2.254 2.254 0 0 1 67.586 1.986 A 1.639 1.639 0 0 1 68.414 2.518 Q 68.928 3.129 68.928 4.267 L 68.928 4.605 L 65.707 4.605 A 2.111 2.111 0 0 0 65.778 5.114 A 1.516 1.516 0 0 0 66.118 5.741 A 1.282 1.282 0 0 0 67.052 6.173 A 1.652 1.652 0 0 0 67.118 6.174 A 1.763 1.763 0 0 0 67.446 6.145 Q 67.67 6.103 67.847 5.999 A 1.827 1.827 0 0 0 68.356 5.551 A 2.068 2.068 0 0 0 68.37 5.533 L 68.867 5.919 A 1.926 1.926 0 0 1 67.467 6.811 A 2.749 2.749 0 0 1 67.074 6.838 A 2.394 2.394 0 0 1 66.323 6.725 A 1.974 1.974 0 0 1 65.5 6.203 Q 64.894 5.568 64.894 4.504 Z M 2.219 6.75 L 0 6.75 L 0 0.352 L 2.092 0.352 A 4.031 4.031 0 0 1 2.665 0.39 Q 2.957 0.432 3.194 0.521 A 1.629 1.629 0 0 1 3.658 0.782 A 1.383 1.383 0 0 1 4.13 1.558 A 2.164 2.164 0 0 1 4.184 2.057 A 1.3 1.3 0 0 1 3.929 2.85 A 1.589 1.589 0 0 1 3.418 3.294 A 1.972 1.972 0 0 1 3.234 3.384 A 1.571 1.571 0 0 1 3.749 3.63 A 1.446 1.446 0 0 1 4.054 3.935 A 1.531 1.531 0 0 1 4.346 4.713 A 1.961 1.961 0 0 1 4.355 4.904 A 2.139 2.139 0 0 1 4.28 5.487 A 1.577 1.577 0 0 1 3.797 6.258 A 1.832 1.832 0 0 1 3.105 6.633 Q 2.838 6.713 2.52 6.739 A 3.81 3.81 0 0 1 2.219 6.75 Z M 85.408 0.352 L 85.408 6.06 L 88.44 6.06 L 88.44 6.75 L 84.56 6.75 L 84.56 0.352 L 85.408 0.352 Z M 75.445 0.352 L 75.445 4.601 L 76.333 4.601 L 76.333 5.265 L 75.445 5.265 L 75.445 6.75 L 74.628 6.75 L 74.628 5.265 L 71.714 5.265 L 71.714 4.786 L 74.58 0.352 L 75.445 0.352 Z M 33.781 6.75 L 32.01 6.75 L 32.01 0.352 L 33.816 0.352 Q 34.651 0.352 35.292 0.721 Q 35.934 1.09 36.283 1.771 A 3.19 3.19 0 0 1 36.6 2.8 A 4.073 4.073 0 0 1 36.637 3.335 L 36.637 3.744 Q 36.637 4.649 36.288 5.331 A 2.457 2.457 0 0 1 35.29 6.376 Q 34.642 6.741 33.781 6.75 Z M 80.844 2.592 A 1.544 1.544 0 0 0 80.947 2.021 A 2.226 2.226 0 0 0 80.926 1.707 A 1.566 1.566 0 0 0 80.427 0.738 A 1.754 1.754 0 0 0 79.661 0.333 A 2.443 2.443 0 0 0 79.062 0.264 A 2.539 2.539 0 0 0 78.552 0.312 A 1.767 1.767 0 0 0 77.695 0.738 Q 77.177 1.213 77.177 2.021 A 1.808 1.808 0 0 0 77.177 2.058 A 1.499 1.499 0 0 0 77.423 2.87 A 1.626 1.626 0 0 0 77.585 3.077 A 1.726 1.726 0 0 0 78.095 3.454 A 2.119 2.119 0 0 0 77.996 3.5 A 1.738 1.738 0 0 0 77.311 4.087 A 1.629 1.629 0 0 0 77.027 5.023 A 2.272 2.272 0 0 0 77.037 5.237 A 1.63 1.63 0 0 0 77.583 6.344 A 1.895 1.895 0 0 0 78.434 6.771 A 2.797 2.797 0 0 0 79.062 6.838 A 2.796 2.796 0 0 0 79.661 6.777 A 1.925 1.925 0 0 0 80.536 6.346 A 1.578 1.578 0 0 0 81.011 5.62 A 1.989 1.989 0 0 0 81.097 5.023 A 1.581 1.581 0 0 0 80.804 4.087 Q 80.512 3.674 80.011 3.458 Q 80.442 3.248 80.695 2.874 A 1.449 1.449 0 0 0 80.844 2.592 Z M 42.97 0.844 L 43.783 0.844 L 43.783 1.995 L 44.67 1.995 L 44.67 2.624 L 43.783 2.624 L 43.783 5.572 Q 43.783 5.858 43.901 6.001 Q 44.02 6.144 44.306 6.144 A 1.046 1.046 0 0 0 44.403 6.138 Q 44.506 6.129 44.646 6.101 A 4.024 4.024 0 0 0 44.692 6.091 L 44.692 6.75 A 2.463 2.463 0 0 1 44.26 6.829 A 2.157 2.157 0 0 1 44.068 6.838 Q 43.621 6.838 43.355 6.616 A 0.856 0.856 0 0 1 43.247 6.508 Q 43.019 6.238 42.979 5.78 A 2.351 2.351 0 0 1 42.97 5.572 L 42.97 2.624 L 42.104 2.624 L 42.104 1.995 L 42.97 1.995 L 42.97 0.844 Z M 101.755 0.844 L 102.568 0.844 L 102.568 1.995 L 103.456 1.995 L 103.456 2.624 L 102.568 2.624 L 102.568 5.572 Q 102.568 5.858 102.687 6.001 Q 102.806 6.144 103.091 6.144 A 1.046 1.046 0 0 0 103.189 6.138 Q 103.292 6.129 103.431 6.101 A 4.024 4.024 0 0 0 103.478 6.091 L 103.478 6.75 A 2.463 2.463 0 0 1 103.045 6.829 A 2.157 2.157 0 0 1 102.854 6.838 Q 102.407 6.838 102.14 6.616 A 0.856 0.856 0 0 1 102.032 6.508 Q 101.805 6.238 101.764 5.78 A 2.351 2.351 0 0 1 101.755 5.572 L 101.755 2.624 L 100.89 2.624 L 100.89 1.995 L 101.755 1.995 L 101.755 0.844 Z M 33.838 1.046 L 32.854 1.046 L 32.854 6.06 L 33.741 6.06 A 2.519 2.519 0 0 0 34.374 5.985 A 1.747 1.747 0 0 0 35.26 5.454 Q 35.719 4.94 35.789 4.059 A 4.165 4.165 0 0 0 35.802 3.727 L 35.802 3.353 Q 35.802 2.562 35.533 2.027 A 1.864 1.864 0 0 0 35.29 1.659 A 1.687 1.687 0 0 0 34.294 1.09 A 2.499 2.499 0 0 0 33.838 1.046 Z M 90.158 1.995 L 90.158 6.75 L 89.345 6.75 L 89.345 1.995 L 90.158 1.995 Z M 25.418 3.252 L 25.418 5.524 Q 25.783 6.174 26.534 6.174 A 1.184 1.184 0 0 0 27 6.086 Q 27.257 5.977 27.445 5.735 A 1.403 1.403 0 0 0 27.464 5.711 A 1.501 1.501 0 0 0 27.68 5.28 Q 27.749 5.073 27.78 4.818 A 3.91 3.91 0 0 0 27.809 4.333 Q 27.809 3.746 27.626 3.339 A 1.503 1.503 0 0 0 27.466 3.063 A 1.086 1.086 0 0 0 26.68 2.605 A 1.414 1.414 0 0 0 26.525 2.597 Q 25.865 2.597 25.5 3.121 A 1.623 1.623 0 0 0 25.418 3.252 Z M 51.328 3.344 L 51.328 5.401 A 1.528 1.528 0 0 0 51.614 5.807 Q 51.937 6.127 52.427 6.147 A 1.621 1.621 0 0 0 52.493 6.148 A 1.206 1.206 0 0 0 52.91 6.079 A 1.04 1.04 0 0 0 53.402 5.695 Q 53.728 5.243 53.728 4.333 Q 53.728 3.502 53.407 3.05 A 1.03 1.03 0 0 0 52.656 2.607 A 1.449 1.449 0 0 0 52.484 2.597 A 1.34 1.34 0 0 0 51.974 2.69 Q 51.556 2.86 51.328 3.344 Z M 94.465 5.449 L 94.465 3.278 A 1.439 1.439 0 0 0 94.164 2.891 Q 93.86 2.62 93.42 2.599 A 1.578 1.578 0 0 0 93.344 2.597 Q 92.752 2.597 92.419 3.056 A 1.51 1.51 0 0 0 92.208 3.484 Q 92.142 3.689 92.111 3.939 A 3.955 3.955 0 0 0 92.083 4.425 Q 92.083 5.229 92.413 5.689 Q 92.742 6.148 93.335 6.148 A 1.32 1.32 0 0 0 93.845 6.054 Q 94.237 5.891 94.465 5.449 Z M 2.25 3.757 L 0.844 3.757 L 0.844 6.06 L 2.237 6.06 A 1.84 1.84 0 0 0 2.612 6.024 Q 2.852 5.974 3.036 5.854 A 1.064 1.064 0 0 0 3.166 5.755 A 1.003 1.003 0 0 0 3.488 5.154 A 1.459 1.459 0 0 0 3.507 4.913 Q 3.507 4.007 2.734 3.811 A 1.977 1.977 0 0 0 2.251 3.757 Z M 74.531 1.639 L 72.637 4.601 L 74.628 4.601 L 74.628 1.463 L 74.531 1.639 Z M 0.844 1.046 L 0.844 3.081 L 2.118 3.081 Q 2.672 3.081 3.004 2.804 A 0.905 0.905 0 0 0 3.331 2.154 A 1.27 1.27 0 0 0 3.335 2.052 Q 3.335 1.696 3.195 1.471 A 0.71 0.71 0 0 0 3.028 1.285 A 0.969 0.969 0 0 0 2.742 1.136 Q 2.479 1.047 2.098 1.046 A 3.261 3.261 0 0 0 2.092 1.046 L 0.844 1.046 Z M 80.284 5.005 A 1.375 1.375 0 0 0 80.224 4.592 A 1.109 1.109 0 0 0 79.943 4.131 A 1.148 1.148 0 0 0 79.272 3.807 A 1.593 1.593 0 0 0 79.053 3.792 A 1.466 1.466 0 0 0 78.665 3.841 A 1.086 1.086 0 0 0 78.172 4.126 A 1.123 1.123 0 0 0 77.859 4.762 A 1.572 1.572 0 0 0 77.84 5.005 A 1.48 1.48 0 0 0 77.882 5.367 A 1.019 1.019 0 0 0 78.163 5.862 Q 78.469 6.158 79.002 6.173 A 2.053 2.053 0 0 0 79.062 6.174 Q 79.556 6.174 79.866 5.94 A 1.018 1.018 0 0 0 79.958 5.86 A 1.041 1.041 0 0 0 80.258 5.292 A 1.518 1.518 0 0 0 80.284 5.005 Z M 79.062 0.932 A 1.259 1.259 0 0 0 78.709 0.979 A 0.973 0.973 0 0 0 78.286 1.228 Q 77.99 1.525 77.99 2.035 A 1.325 1.325 0 0 0 78.034 2.387 A 0.994 0.994 0 0 0 78.282 2.823 A 0.974 0.974 0 0 0 78.844 3.108 A 1.382 1.382 0 0 0 79.062 3.125 A 1.279 1.279 0 0 0 79.407 3.08 A 0.952 0.952 0 0 0 79.842 2.823 A 1.018 1.018 0 0 0 80.117 2.26 A 1.426 1.426 0 0 0 80.134 2.035 A 1.282 1.282 0 0 0 80.084 1.668 A 1.013 1.013 0 0 0 79.831 1.239 Q 79.528 0.932 79.062 0.932 Z M 8.284 5.418 L 8.284 4.443 L 7.646 4.443 Q 6.152 4.443 6.152 5.317 Q 6.152 5.7 6.407 5.915 A 0.893 0.893 0 0 0 6.821 6.108 A 1.259 1.259 0 0 0 7.062 6.13 A 1.429 1.429 0 0 0 7.787 5.933 A 1.335 1.335 0 0 0 8.083 5.705 A 1.108 1.108 0 0 0 8.284 5.418 Z M 40.592 5.418 L 40.592 4.443 L 39.955 4.443 Q 38.461 4.443 38.461 5.317 Q 38.461 5.7 38.716 5.915 A 0.893 0.893 0 0 0 39.129 6.108 A 1.259 1.259 0 0 0 39.371 6.13 A 1.429 1.429 0 0 0 40.096 5.933 A 1.335 1.335 0 0 0 40.391 5.705 A 1.108 1.108 0 0 0 40.592 5.418 Z M 48.428 5.418 L 48.428 4.443 L 47.791 4.443 Q 46.296 4.443 46.296 5.317 Q 46.296 5.7 46.551 5.915 A 0.893 0.893 0 0 0 46.965 6.108 A 1.259 1.259 0 0 0 47.206 6.13 A 1.429 1.429 0 0 0 47.931 5.933 A 1.335 1.335 0 0 0 48.227 5.705 A 1.108 1.108 0 0 0 48.428 5.418 Z M 58.373 5.418 L 58.373 4.443 L 57.735 4.443 Q 56.241 4.443 56.241 5.317 Q 56.241 5.7 56.496 5.915 A 0.893 0.893 0 0 0 56.91 6.108 A 1.259 1.259 0 0 0 57.151 6.13 A 1.429 1.429 0 0 0 57.876 5.933 A 1.335 1.335 0 0 0 58.172 5.705 A 1.108 1.108 0 0 0 58.373 5.418 Z M 65.733 3.938 L 68.115 3.938 L 68.115 3.876 Q 68.089 3.417 67.919 3.111 A 1.13 1.13 0 0 0 67.781 2.916 A 0.983 0.983 0 0 0 67.127 2.584 A 1.39 1.39 0 0 0 66.973 2.575 A 1.106 1.106 0 0 0 66.45 2.698 A 1.14 1.14 0 0 0 66.146 2.933 A 1.417 1.417 0 0 0 65.87 3.379 Q 65.796 3.563 65.756 3.785 A 2.741 2.741 0 0 0 65.733 3.938 Z M 89.279 0.734 Q 89.279 0.536 89.4 0.4 Q 89.512 0.274 89.724 0.264 A 0.783 0.783 0 0 1 89.758 0.264 Q 89.996 0.264 90.119 0.4 A 0.474 0.474 0 0 1 90.241 0.703 A 0.614 0.614 0 0 1 90.242 0.734 A 0.523 0.523 0 0 1 90.216 0.9 A 0.442 0.442 0 0 1 90.119 1.063 Q 90.006 1.184 89.798 1.194 A 0.803 0.803 0 0 1 89.758 1.195 Q 89.586 1.195 89.475 1.126 A 0.362 0.362 0 0 1 89.4 1.063 A 0.456 0.456 0 0 1 89.282 0.788 A 0.605 0.605 0 0 1 89.279 0.734 Z" vector-effect="non-scaling-stroke"/></g>
</svgversion="1.0" encoding="UTF-8"?>
<svg width="48px" height="48px" viewBox="0 0 48 48" version="1.1" xmlns="http://www.w3.org/2000/svg" xmlns:xlink="http://www.w3.org/1999/xlink">
    <title>Icon-Resource/Storage/Res_AWS-Backup_Database_48_Light</title>
    <g id="Icon-Resource/Storage/Res_AWS-Backup_Database_48" stroke="none" stroke-width="1" fill="none" fill-rule="evenodd">
        <path transform="translate(0vw, 0vh), scale(.65)" d="M24,20.7676 C20.278,20.7676 18,19.4726 18,18.7676 L18,18.6636 C18,18.1056 19.727,16.7676 24,16.7676 C28.273,16.7676 30,18.1056 30,18.6636 L30,18.7676 C30,19.4726 27.722,20.7676 24,20.7676 L24,20.7676 Z M24.008,33.7616 L23.992,33.7616 C21.099,33.7406 18,33.0276 18,31.9996 L18,21.4996 C19.541,22.3376 21.778,22.7676 24,22.7676 C26.222,22.7676 28.459,22.3376 30,21.4996 L30,31.9996 C30,33.0276 26.901,33.7406 24.008,33.7616 L24.008,33.7616 Z M24,14.7676 C19.215,14.7676 16,16.3336 16,18.6636 L16,31.9996 C16,35.4366 22.106,35.7476 23.987,35.7616 L23.998,35.7616 L24.022,35.7616 C25.894,35.7476 32,35.4366 32,31.9996 L32,18.6636 C32,16.3336 28.785,14.7676 24,14.7676 L24,14.7676 Z M42,20.9996 C40.897,20.9996 40,20.1026 40,18.9996 C40,17.8966 40.897,16.9996 42,16.9996 C43.103,16.9996 44,17.8966 44,18.9996 C44,20.1026 43.103,20.9996 42,20.9996 L42,20.9996 Z M34.296,37.0296 C34.196,37.0226 34.101,36.9996 34,36.9996 C32.141,36.9996 30.589,38.2796 30.142,39.9996 L17.858,39.9996 C17.411,38.2796 15.859,36.9996 14,36.9996 C13.899,36.9996 13.804,37.0226 13.704,37.0296 L8.195,22.3376 C9.28,21.6216 10,20.3946 10,18.9996 C10,18.5106 9.899,18.0466 9.738,17.6136 L21.812,9.3416 C22.442,9.7556 23.192,9.9996 24,9.9996 C24.808,9.9996 25.558,9.7556 26.188,9.3416 L38.262,17.6136 C38.101,18.0466 38,18.5106 38,18.9996 C38,20.3946 38.72,21.6216 39.805,22.3376 L34.296,37.0296 Z M34,42.9996 C32.897,42.9996 32,42.1026 32,40.9996 C32,39.8966 32.897,38.9996 34,38.9996 C35.103,38.9996 36,39.8966 36,40.9996 C36,42.1026 35.103,42.9996 34,42.9996 L34,42.9996 Z M14,42.9996 C12.897,42.9996 12,42.1026 12,40.9996 C12,39.8966 12.897,38.9996 14,38.9996 C15.103,38.9996 16,39.8966 16,40.9996 C16,42.1026 15.103,42.9996 14,42.9996 L14,42.9996 Z M4,18.9996 C4,17.8966 4.897,16.9996 6,16.9996 C7.103,16.9996 8,17.8966 8,18.9996 C8,20.1026 7.103,20.9996 6,20.9996 C4.897,20.9996 4,20.1026 4,18.9996 L4,18.9996 Z M24,3.9996 C25.103,3.9996 26,4.8966 26,5.9996 C26,7.1026 25.103,7.9996 24,7.9996 C22.897,7.9996 22,7.1026 22,5.9996 C22,4.8966 22.897,3.9996 24,3.9996 L24,3.9996 Z M42,14.9996 C41.008,14.9996 40.111,15.3756 39.412,15.9756 L27.532,7.8376 C27.821,7.2846 28,6.6656 28,5.9996 C28,3.7946 26.206,1.9996 24,1.9996 C21.794,1.9996 20,3.7946 20,5.9996 C20,6.6656 20.179,7.2846 20.468,7.8376 L8.588,15.9756 C7.889,15.3756 6.992,14.9996 6,14.9996 C3.794,14.9996 2,16.7946 2,18.9996 C2,21.2056 3.794,22.9996 6,22.9996 C6.101,22.9996 6.196,22.9776 6.296,22.9706 L11.805,37.6626 C10.72,38.3786 10,39.6056 10,40.9996 C10,43.2056 11.794,44.9996 14,44.9996 C15.859,44.9996 17.411,43.7206 17.858,41.9996 L30.142,41.9996 C30.589,43.7206 32.141,44.9996 34,44.9996 C36.206,44.9996 38,43.2056 38,40.9996 C38,39.6056 37.28,38.3786 36.195,37.6626 L41.704,22.9706 C41.804,22.9776 41.899,22.9996 42,22.9996 C44.206,22.9996 46,21.2056 46,18.9996 C46,16.7946 44.206,14.9996 42,14.9996 L42,14.9996 Z" id="Fill-1" fill="#000000"></path>
    </g><g transform="translate(33vw, 80vh)" id="svgGroup" stroke-linecap="round" fill-rule="evenodd" font-size="9pt" stroke="#000" stroke-width="0.25mm" fill="#000" style="stroke:#000;stroke-width:0.25mm;fill:#000"><path d="M 23.12 0.088 L 24.13 4.469 L 24.253 5.313 L 24.434 4.553 L 25.699 0.088 L 26.411 0.088 L 27.646 4.553 L 27.822 5.326 L 27.958 4.465 L 28.951 0.088 L 29.799 0.088 L 28.248 6.486 L 27.479 6.486 L 26.161 1.824 L 26.06 1.336 L 25.958 1.824 L 24.592 6.486 L 23.823 6.486 L 22.276 0.088 L 23.12 0.088 Z M 34.98 1.938 L 34.132 1.938 A 1.466 1.466 0 0 0 34.083 1.546 A 1.066 1.066 0 0 0 33.763 1.026 A 1.211 1.211 0 0 0 33.294 0.77 Q 33.042 0.694 32.722 0.694 A 2.286 2.286 0 0 0 32.342 0.724 Q 32.14 0.758 31.977 0.831 A 1.101 1.101 0 0 0 31.748 0.969 A 0.892 0.892 0 0 0 31.403 1.624 A 1.267 1.267 0 0 0 31.399 1.732 A 0.806 0.806 0 0 0 31.667 2.337 A 1.134 1.134 0 0 0 31.731 2.393 A 1.562 1.562 0 0 0 31.969 2.549 Q 32.299 2.73 32.86 2.887 A 8.228 8.228 0 0 1 33.325 3.032 Q 33.56 3.113 33.754 3.2 A 3.297 3.297 0 0 1 34.108 3.382 A 2.342 2.342 0 0 1 34.447 3.626 Q 34.637 3.792 34.759 3.985 A 1.45 1.45 0 0 1 34.776 4.012 A 1.498 1.498 0 0 1 34.972 4.568 A 1.948 1.948 0 0 1 34.994 4.86 A 1.606 1.606 0 0 1 34.871 5.497 Q 34.726 5.838 34.408 6.09 A 1.886 1.886 0 0 1 34.387 6.106 Q 33.781 6.574 32.766 6.574 A 3.023 3.023 0 0 1 31.625 6.36 A 2.917 2.917 0 0 1 31.535 6.322 A 2.383 2.383 0 0 1 31.057 6.044 A 1.874 1.874 0 0 1 30.654 5.629 A 1.689 1.689 0 0 1 30.344 4.632 L 31.192 4.632 A 1.261 1.261 0 0 0 31.262 5.059 A 1.074 1.074 0 0 0 31.621 5.548 Q 32.005 5.85 32.622 5.881 A 2.87 2.87 0 0 0 32.766 5.884 A 2.628 2.628 0 0 0 33.153 5.858 Q 33.349 5.828 33.508 5.767 A 1.129 1.129 0 0 0 33.79 5.612 Q 34.146 5.339 34.146 4.869 A 1.074 1.074 0 0 0 34.103 4.559 A 0.816 0.816 0 0 0 33.816 4.142 Q 33.486 3.885 32.621 3.634 Q 31.535 3.322 31.041 2.868 Q 30.546 2.413 30.546 1.745 Q 30.546 0.989 31.151 0.494 A 2.121 2.121 0 0 1 32.041 0.071 A 3.087 3.087 0 0 1 32.722 0 A 2.913 2.913 0 0 1 33.382 0.072 A 2.372 2.372 0 0 1 33.897 0.255 A 2.051 2.051 0 0 1 34.428 0.626 A 1.834 1.834 0 0 1 34.697 0.958 A 1.798 1.798 0 0 1 34.98 1.938 Z M 3.74 6.486 L 2.351 3.898 L 0.848 3.898 L 0.848 6.486 L 0 6.486 L 0 0.088 L 2.118 0.088 A 3.809 3.809 0 0 1 2.76 0.138 Q 3.102 0.197 3.376 0.324 A 1.789 1.789 0 0 1 3.781 0.58 A 1.588 1.588 0 0 1 4.307 1.469 A 2.453 2.453 0 0 1 4.364 2.013 A 1.864 1.864 0 0 1 4.273 2.604 A 1.64 1.64 0 0 1 4.041 3.054 A 1.849 1.849 0 0 1 3.382 3.611 A 2.342 2.342 0 0 1 3.142 3.718 L 4.645 6.434 L 4.645 6.486 L 3.74 6.486 Z M 13.724 3.129 L 12.907 3.129 Q 12.907 2.795 12.623 2.553 Q 12.34 2.312 11.909 2.312 Q 11.465 2.312 11.215 2.505 A 0.653 0.653 0 0 0 11.04 2.704 Q 10.967 2.835 10.964 3 A 0.771 0.771 0 0 0 10.964 3.01 A 0.588 0.588 0 0 0 10.994 3.203 A 0.48 0.48 0 0 0 11.197 3.454 A 1.093 1.093 0 0 0 11.348 3.533 Q 11.512 3.605 11.767 3.673 A 6.581 6.581 0 0 0 12.039 3.74 A 6.318 6.318 0 0 1 12.446 3.845 Q 12.783 3.944 13.025 4.065 A 1.901 1.901 0 0 1 13.281 4.218 Q 13.418 4.315 13.516 4.429 A 1.06 1.06 0 0 1 13.586 4.52 A 1.024 1.024 0 0 1 13.748 4.927 A 1.388 1.388 0 0 1 13.768 5.168 Q 13.768 5.805 13.258 6.19 Q 12.776 6.554 12.022 6.573 A 3.337 3.337 0 0 1 11.936 6.574 A 2.746 2.746 0 0 1 11.401 6.525 A 2.124 2.124 0 0 1 10.925 6.372 A 1.771 1.771 0 0 1 10.491 6.094 A 1.54 1.54 0 0 1 10.237 5.807 Q 9.989 5.445 9.989 5.023 L 10.802 5.023 A 0.932 0.932 0 0 0 10.875 5.348 A 0.827 0.827 0 0 0 11.129 5.671 A 1.072 1.072 0 0 0 11.531 5.864 Q 11.686 5.903 11.867 5.91 A 2.013 2.013 0 0 0 11.936 5.911 A 1.863 1.863 0 0 0 12.231 5.889 Q 12.393 5.863 12.524 5.806 A 0.941 0.941 0 0 0 12.676 5.724 A 0.689 0.689 0 0 0 12.841 5.574 A 0.554 0.554 0 0 0 12.955 5.225 A 0.698 0.698 0 0 0 12.919 4.994 A 0.581 0.581 0 0 0 12.707 4.713 A 1.05 1.05 0 0 0 12.538 4.615 Q 12.349 4.524 12.054 4.449 A 5.392 5.392 0 0 0 11.841 4.399 A 6.342 6.342 0 0 1 11.48 4.311 Q 11.11 4.209 10.861 4.083 Q 10.562 3.93 10.392 3.731 A 1.017 1.017 0 0 1 10.325 3.643 Q 10.151 3.388 10.151 3.037 A 1.206 1.206 0 0 1 10.55 2.132 A 1.694 1.694 0 0 1 10.646 2.048 A 1.752 1.752 0 0 1 11.429 1.688 A 2.471 2.471 0 0 1 11.909 1.644 A 2.559 2.559 0 0 1 12.473 1.702 A 1.757 1.757 0 0 1 13.221 2.061 Q 13.724 2.479 13.724 3.129 Z M 21.327 6.486 L 20.716 4.816 L 18.035 4.816 L 17.433 6.486 L 16.563 6.486 L 19.006 0.088 L 19.745 0.088 L 22.192 6.486 L 21.327 6.486 Z M 5.212 4.241 L 5.212 4.091 A 3.17 3.17 0 0 1 5.288 3.382 A 2.581 2.581 0 0 1 5.482 2.828 A 2.191 2.191 0 0 1 5.93 2.202 A 2.033 2.033 0 0 1 6.238 1.958 Q 6.724 1.644 7.291 1.644 A 2.254 2.254 0 0 1 7.904 1.723 A 1.639 1.639 0 0 1 8.732 2.254 Q 9.246 2.865 9.246 4.003 L 9.246 4.342 L 6.025 4.342 A 2.111 2.111 0 0 0 6.096 4.85 A 1.516 1.516 0 0 0 6.436 5.478 A 1.282 1.282 0 0 0 7.37 5.909 A 1.652 1.652 0 0 0 7.436 5.911 A 1.763 1.763 0 0 0 7.764 5.882 Q 7.988 5.839 8.165 5.735 A 1.827 1.827 0 0 0 8.674 5.287 A 2.068 2.068 0 0 0 8.688 5.269 L 9.185 5.656 A 1.926 1.926 0 0 1 7.785 6.547 A 2.749 2.749 0 0 1 7.392 6.574 A 2.394 2.394 0 0 1 6.64 6.461 A 1.974 1.974 0 0 1 5.818 5.939 Q 5.212 5.304 5.212 4.241 Z M 0.848 0.782 L 0.848 3.208 L 2.145 3.208 Q 2.685 3.208 3.035 2.968 A 1.174 1.174 0 0 0 3.144 2.883 A 1.069 1.069 0 0 0 3.51 2.146 A 1.486 1.486 0 0 0 3.516 2.013 Q 3.516 1.47 3.22 1.159 A 1 1 0 0 0 3.162 1.103 Q 2.808 0.787 2.14 0.782 L 0.848 0.782 Z M 19.375 1.129 L 18.29 4.122 L 20.465 4.122 L 19.375 1.129 Z M 6.051 3.674 L 8.433 3.674 L 8.433 3.612 Q 8.407 3.153 8.236 2.848 A 1.13 1.13 0 0 0 8.099 2.652 A 0.983 0.983 0 0 0 7.445 2.32 A 1.39 1.39 0 0 0 7.291 2.312 A 1.106 1.106 0 0 0 6.768 2.435 A 1.14 1.14 0 0 0 6.464 2.67 A 1.417 1.417 0 0 0 6.188 3.116 Q 6.114 3.3 6.074 3.522 A 2.741 2.741 0 0 0 6.051 3.674 Z" vector-effect="non-scaling-stroke"/></g><g transform="translate(12vw, 90vh)" id="svgGroup" stroke-linecap="round" fill-rule="evenodd" font-size="9pt" stroke="#000" stroke-width="0.25mm" fill="#000" style="stroke:#000;stroke-width:0.25mm;fill:#000"><path d="M 97.321 0 L 97.321 2.571 A 1.767 1.767 0 0 1 97.987 2.053 A 1.832 1.832 0 0 1 98.728 1.907 A 1.905 1.905 0 0 1 99.361 2.004 Q 100.203 2.3 100.246 3.506 A 3.668 3.668 0 0 1 100.248 3.608 L 100.248 6.75 L 99.435 6.75 L 99.435 3.604 A 1.837 1.837 0 0 0 99.413 3.324 Q 99.363 3.017 99.2 2.843 Q 99.014 2.645 98.66 2.606 A 1.66 1.66 0 0 0 98.481 2.597 A 1.253 1.253 0 0 0 98.067 2.664 A 1.123 1.123 0 0 0 97.787 2.808 A 1.432 1.432 0 0 0 97.321 3.362 L 97.321 6.75 L 96.508 6.75 L 96.508 0 L 97.321 0 Z M 18.066 6.75 L 16.409 4.548 L 15.899 5.08 L 15.899 6.75 L 15.086 6.75 L 15.086 0 L 15.899 0 L 15.899 4.083 L 16.334 3.56 L 17.815 1.995 L 18.804 1.995 L 16.954 3.981 L 19.02 6.75 L 18.066 6.75 Z M 94.5 2.522 L 94.54 1.995 L 95.282 1.995 L 95.282 6.636 A 2.511 2.511 0 0 1 95.212 7.249 A 1.738 1.738 0 0 1 94.735 8.09 A 1.834 1.834 0 0 1 93.805 8.57 A 2.671 2.671 0 0 1 93.265 8.622 A 2.446 2.446 0 0 1 92.259 8.402 A 2.003 2.003 0 0 1 91.849 8.161 A 1.563 1.563 0 0 1 91.507 7.8 L 91.929 7.313 A 1.889 1.889 0 0 0 92.364 7.712 A 1.514 1.514 0 0 0 93.208 7.958 A 1.695 1.695 0 0 0 93.585 7.919 Q 93.853 7.858 94.047 7.702 A 1.037 1.037 0 0 0 94.133 7.625 A 1.09 1.09 0 0 0 94.41 7.132 Q 94.457 6.959 94.464 6.752 A 2.134 2.134 0 0 0 94.465 6.684 L 94.465 6.275 A 1.601 1.601 0 0 1 93.413 6.821 A 2.279 2.279 0 0 1 93.133 6.838 A 1.672 1.672 0 0 1 92.378 6.67 Q 92.056 6.51 91.806 6.197 A 2.14 2.14 0 0 1 91.782 6.166 A 2.316 2.316 0 0 1 91.399 5.386 Q 91.266 4.922 91.266 4.333 Q 91.266 3.472 91.574 2.884 A 2.096 2.096 0 0 1 91.78 2.564 Q 92.294 1.907 93.142 1.907 A 1.971 1.971 0 0 1 93.741 1.994 A 1.55 1.55 0 0 1 94.5 2.522 Z M 63.998 3.393 L 63.18 3.393 Q 63.18 3.059 62.897 2.817 Q 62.613 2.575 62.183 2.575 Q 61.739 2.575 61.488 2.769 A 0.653 0.653 0 0 0 61.313 2.967 Q 61.24 3.098 61.238 3.263 A 0.771 0.771 0 0 0 61.238 3.274 A 0.588 0.588 0 0 0 61.268 3.467 A 0.48 0.48 0 0 0 61.471 3.718 A 1.093 1.093 0 0 0 61.621 3.796 Q 61.785 3.868 62.041 3.937 A 6.581 6.581 0 0 0 62.312 4.003 A 6.318 6.318 0 0 1 62.72 4.108 Q 63.057 4.208 63.299 4.329 A 1.901 1.901 0 0 1 63.555 4.481 Q 63.692 4.579 63.789 4.692 A 1.06 1.06 0 0 1 63.859 4.783 A 1.024 1.024 0 0 1 64.021 5.191 A 1.388 1.388 0 0 1 64.042 5.432 Q 64.042 6.069 63.532 6.453 Q 63.049 6.817 62.295 6.837 A 3.337 3.337 0 0 1 62.209 6.838 A 2.746 2.746 0 0 1 61.675 6.788 A 2.124 2.124 0 0 1 61.198 6.636 A 1.771 1.771 0 0 1 60.764 6.358 A 1.54 1.54 0 0 1 60.51 6.071 Q 60.262 5.708 60.262 5.287 L 61.075 5.287 A 0.932 0.932 0 0 0 61.149 5.612 A 0.827 0.827 0 0 0 61.403 5.935 A 1.072 1.072 0 0 0 61.805 6.128 Q 61.959 6.167 62.141 6.173 A 2.013 2.013 0 0 0 62.209 6.174 A 1.863 1.863 0 0 0 62.505 6.152 Q 62.666 6.126 62.798 6.07 A 0.941 0.941 0 0 0 62.949 5.988 A 0.689 0.689 0 0 0 63.114 5.837 A 0.554 0.554 0 0 0 63.229 5.489 A 0.698 0.698 0 0 0 63.192 5.258 A 0.581 0.581 0 0 0 62.98 4.977 A 1.05 1.05 0 0 0 62.811 4.878 Q 62.623 4.788 62.328 4.712 A 5.392 5.392 0 0 0 62.115 4.663 A 6.342 6.342 0 0 1 61.753 4.575 Q 61.384 4.473 61.135 4.346 Q 60.836 4.194 60.665 3.994 A 1.017 1.017 0 0 1 60.598 3.907 Q 60.425 3.652 60.425 3.3 A 1.206 1.206 0 0 1 60.824 2.396 A 1.694 1.694 0 0 1 60.919 2.312 A 1.752 1.752 0 0 1 61.702 1.952 A 2.471 2.471 0 0 1 62.183 1.907 A 2.559 2.559 0 0 1 62.746 1.966 A 1.757 1.757 0 0 1 63.494 2.325 Q 63.998 2.742 63.998 3.393 Z M 22.597 6.75 L 22.579 6.28 A 1.526 1.526 0 0 1 21.753 6.775 Q 21.503 6.836 21.205 6.838 A 2.996 2.996 0 0 1 21.186 6.838 A 2.086 2.086 0 0 1 20.726 6.79 Q 20.295 6.693 20.028 6.396 A 1.41 1.41 0 0 1 19.745 5.899 Q 19.628 5.556 19.626 5.089 L 19.626 1.995 L 20.439 1.995 L 20.439 5.067 Q 20.439 6.037 21.147 6.137 A 1.229 1.229 0 0 0 21.318 6.148 A 1.927 1.927 0 0 0 21.769 6.099 Q 22.331 5.964 22.557 5.454 L 22.557 1.995 L 23.37 1.995 L 23.37 6.75 L 22.597 6.75 Z M 13.399 5.251 L 14.168 5.251 A 1.432 1.432 0 0 1 13.969 5.901 A 1.772 1.772 0 0 1 13.887 6.029 A 1.828 1.828 0 0 1 13.277 6.574 A 2.169 2.169 0 0 1 13.195 6.618 A 1.997 1.997 0 0 1 12.278 6.838 A 2.346 2.346 0 0 1 11.581 6.739 A 1.839 1.839 0 0 1 10.734 6.19 A 2.171 2.171 0 0 1 10.27 5.31 Q 10.16 4.909 10.16 4.417 L 10.16 4.28 A 3.24 3.24 0 0 1 10.224 3.624 A 2.57 2.57 0 0 1 10.415 3.045 A 2.008 2.008 0 0 1 10.855 2.431 A 1.892 1.892 0 0 1 11.147 2.206 A 1.943 1.943 0 0 1 11.903 1.934 A 2.529 2.529 0 0 1 12.274 1.907 A 2.196 2.196 0 0 1 12.922 1.999 A 1.786 1.786 0 0 1 13.603 2.386 A 1.693 1.693 0 0 1 14.162 3.535 A 2.239 2.239 0 0 1 14.168 3.63 L 13.399 3.63 Q 13.364 3.168 13.05 2.872 A 1.078 1.078 0 0 0 12.32 2.576 A 1.402 1.402 0 0 0 12.274 2.575 A 1.374 1.374 0 0 0 11.852 2.637 A 1.081 1.081 0 0 0 11.314 3.021 A 1.469 1.469 0 0 0 11.087 3.468 Q 11.021 3.674 10.993 3.923 A 3.514 3.514 0 0 0 10.973 4.311 L 10.973 4.465 Q 10.973 5.287 11.312 5.73 A 1.1 1.1 0 0 0 12.098 6.165 A 1.611 1.611 0 0 0 12.278 6.174 A 1.171 1.171 0 0 0 13.039 5.911 A 1.007 1.007 0 0 0 13.283 5.629 A 0.914 0.914 0 0 0 13.399 5.251 Z M 9.264 6.75 L 8.411 6.75 A 0.632 0.632 0 0 1 8.376 6.66 Q 8.344 6.562 8.32 6.41 A 3.997 3.997 0 0 1 8.297 6.249 Q 7.73 6.838 6.943 6.838 A 2.033 2.033 0 0 1 6.414 6.772 A 1.529 1.529 0 0 1 5.79 6.44 Q 5.339 6.042 5.339 5.432 Q 5.339 4.689 5.904 4.278 Q 6.469 3.867 7.493 3.867 L 8.284 3.867 L 8.284 3.494 A 1.152 1.152 0 0 0 8.248 3.199 A 0.828 0.828 0 0 0 8.029 2.815 Q 7.813 2.6 7.422 2.568 A 1.748 1.748 0 0 0 7.277 2.562 Q 6.842 2.562 6.548 2.782 Q 6.253 3.001 6.253 3.313 L 5.436 3.313 A 1.041 1.041 0 0 1 5.561 2.825 A 1.409 1.409 0 0 1 5.689 2.626 Q 5.941 2.294 6.374 2.101 A 2.249 2.249 0 0 1 7.15 1.913 A 2.669 2.669 0 0 1 7.326 1.907 A 2.65 2.65 0 0 1 7.843 1.955 Q 8.15 2.016 8.389 2.156 A 1.439 1.439 0 0 1 8.613 2.318 A 1.396 1.396 0 0 1 9.067 3.144 A 1.998 1.998 0 0 1 9.097 3.45 L 9.097 5.638 Q 9.097 6.073 9.17 6.39 A 1.707 1.707 0 0 0 9.264 6.68 L 9.264 6.75 Z M 41.572 6.75 L 40.72 6.75 A 0.632 0.632 0 0 1 40.684 6.66 Q 40.653 6.562 40.628 6.41 A 3.997 3.997 0 0 1 40.605 6.249 Q 40.039 6.838 39.252 6.838 A 2.033 2.033 0 0 1 38.723 6.772 A 1.529 1.529 0 0 1 38.098 6.44 Q 37.648 6.042 37.648 5.432 Q 37.648 4.689 38.213 4.278 Q 38.777 3.867 39.801 3.867 L 40.592 3.867 L 40.592 3.494 A 1.152 1.152 0 0 0 40.557 3.199 A 0.828 0.828 0 0 0 40.337 2.815 Q 40.121 2.6 39.731 2.568 A 1.748 1.748 0 0 0 39.586 2.562 Q 39.151 2.562 38.856 2.782 Q 38.562 3.001 38.562 3.313 L 37.745 3.313 A 1.041 1.041 0 0 1 37.87 2.825 A 1.409 1.409 0 0 1 37.997 2.626 Q 38.25 2.294 38.683 2.101 A 2.249 2.249 0 0 1 39.459 1.913 A 2.669 2.669 0 0 1 39.634 1.907 A 2.65 2.65 0 0 1 40.152 1.955 Q 40.459 2.016 40.698 2.156 A 1.439 1.439 0 0 1 40.922 2.318 A 1.396 1.396 0 0 1 41.375 3.144 A 1.998 1.998 0 0 1 41.405 3.45 L 41.405 5.638 Q 41.405 6.073 41.479 6.39 A 1.707 1.707 0 0 0 41.572 6.68 L 41.572 6.75 Z M 49.408 6.75 L 48.555 6.75 A 0.632 0.632 0 0 1 48.52 6.66 Q 48.488 6.562 48.464 6.41 A 3.997 3.997 0 0 1 48.441 6.249 Q 47.874 6.838 47.087 6.838 A 2.033 2.033 0 0 1 46.558 6.772 A 1.529 1.529 0 0 1 45.934 6.44 Q 45.483 6.042 45.483 5.432 Q 45.483 4.689 46.048 4.278 Q 46.613 3.867 47.637 3.867 L 48.428 3.867 L 48.428 3.494 A 1.152 1.152 0 0 0 48.392 3.199 A 0.828 0.828 0 0 0 48.173 2.815 Q 47.957 2.6 47.566 2.568 A 1.748 1.748 0 0 0 47.421 2.562 Q 46.986 2.562 46.692 2.782 Q 46.397 3.001 46.397 3.313 L 45.58 3.313 A 1.041 1.041 0 0 1 45.705 2.825 A 1.409 1.409 0 0 1 45.833 2.626 Q 46.085 2.294 46.518 2.101 A 2.249 2.249 0 0 1 47.294 1.913 A 2.669 2.669 0 0 1 47.47 1.907 A 2.65 2.65 0 0 1 47.987 1.955 Q 48.294 2.016 48.533 2.156 A 1.439 1.439 0 0 1 48.757 2.318 A 1.396 1.396 0 0 1 49.211 3.144 A 1.998 1.998 0 0 1 49.241 3.45 L 49.241 5.638 Q 49.241 6.073 49.314 6.39 A 1.707 1.707 0 0 0 49.408 6.68 L 49.408 6.75 Z M 59.353 6.75 L 58.5 6.75 A 0.632 0.632 0 0 1 58.465 6.66 Q 58.433 6.562 58.408 6.41 A 3.997 3.997 0 0 1 58.386 6.249 Q 57.819 6.838 57.032 6.838 A 2.033 2.033 0 0 1 56.503 6.772 A 1.529 1.529 0 0 1 55.879 6.44 Q 55.428 6.042 55.428 5.432 Q 55.428 4.689 55.993 4.278 Q 56.558 3.867 57.582 3.867 L 58.373 3.867 L 58.373 3.494 A 1.152 1.152 0 0 0 58.337 3.199 A 0.828 0.828 0 0 0 58.118 2.815 Q 57.901 2.6 57.511 2.568 A 1.748 1.748 0 0 0 57.366 2.562 Q 56.931 2.562 56.637 2.782 Q 56.342 3.001 56.342 3.313 L 55.525 3.313 A 1.041 1.041 0 0 1 55.65 2.825 A 1.409 1.409 0 0 1 55.778 2.626 Q 56.03 2.294 56.463 2.101 A 2.249 2.249 0 0 1 57.239 1.913 A 2.669 2.669 0 0 1 57.415 1.907 A 2.65 2.65 0 0 1 57.932 1.955 Q 58.239 2.016 58.478 2.156 A 1.439 1.439 0 0 1 58.702 2.318 A 1.396 1.396 0 0 1 59.155 3.144 A 1.998 1.998 0 0 1 59.186 3.45 L 59.186 5.638 Q 59.186 6.073 59.259 6.39 A 1.707 1.707 0 0 0 59.353 6.68 L 59.353 6.75 Z M 54.541 4.355 L 54.541 4.425 Q 54.541 5.308 54.212 5.909 A 2.141 2.141 0 0 1 54.04 6.177 A 1.647 1.647 0 0 1 53.453 6.673 Q 53.138 6.828 52.747 6.837 A 2.112 2.112 0 0 1 52.695 6.838 A 2.039 2.039 0 0 1 52.1 6.756 A 1.561 1.561 0 0 1 51.302 6.201 L 51.262 6.75 L 50.515 6.75 L 50.515 0 L 51.328 0 L 51.328 2.518 A 1.605 1.605 0 0 1 52.495 1.915 A 2.285 2.285 0 0 1 52.686 1.907 A 1.835 1.835 0 0 1 53.317 2.011 A 1.579 1.579 0 0 1 54.046 2.562 Q 54.46 3.11 54.527 3.998 A 4.727 4.727 0 0 1 54.541 4.355 Z M 28.622 4.351 L 28.622 4.425 Q 28.622 5.511 28.125 6.174 A 1.57 1.57 0 0 1 26.987 6.828 A 2.013 2.013 0 0 1 26.78 6.838 A 2.196 2.196 0 0 1 26.194 6.764 A 1.598 1.598 0 0 1 25.418 6.289 L 25.418 8.578 L 24.605 8.578 L 24.605 1.995 L 25.348 1.995 L 25.387 2.522 A 1.619 1.619 0 0 1 26.526 1.919 A 2.319 2.319 0 0 1 26.767 1.907 A 1.829 1.829 0 0 1 27.404 2.014 A 1.597 1.597 0 0 1 28.123 2.553 Q 28.622 3.199 28.622 4.351 Z M 64.894 4.504 L 64.894 4.355 A 3.17 3.17 0 0 1 64.97 3.646 A 2.581 2.581 0 0 1 65.164 3.092 A 2.191 2.191 0 0 1 65.612 2.466 A 2.033 2.033 0 0 1 65.92 2.221 Q 66.406 1.907 66.973 1.907 A 2.254 2.254 0 0 1 67.586 1.986 A 1.639 1.639 0 0 1 68.414 2.518 Q 68.928 3.129 68.928 4.267 L 68.928 4.605 L 65.707 4.605 A 2.111 2.111 0 0 0 65.778 5.114 A 1.516 1.516 0 0 0 66.118 5.741 A 1.282 1.282 0 0 0 67.052 6.173 A 1.652 1.652 0 0 0 67.118 6.174 A 1.763 1.763 0 0 0 67.446 6.145 Q 67.67 6.103 67.847 5.999 A 1.827 1.827 0 0 0 68.356 5.551 A 2.068 2.068 0 0 0 68.37 5.533 L 68.867 5.919 A 1.926 1.926 0 0 1 67.467 6.811 A 2.749 2.749 0 0 1 67.074 6.838 A 2.394 2.394 0 0 1 66.323 6.725 A 1.974 1.974 0 0 1 65.5 6.203 Q 64.894 5.568 64.894 4.504 Z M 2.219 6.75 L 0 6.75 L 0 0.352 L 2.092 0.352 A 4.031 4.031 0 0 1 2.665 0.39 Q 2.957 0.432 3.194 0.521 A 1.629 1.629 0 0 1 3.658 0.782 A 1.383 1.383 0 0 1 4.13 1.558 A 2.164 2.164 0 0 1 4.184 2.057 A 1.3 1.3 0 0 1 3.929 2.85 A 1.589 1.589 0 0 1 3.418 3.294 A 1.972 1.972 0 0 1 3.234 3.384 A 1.571 1.571 0 0 1 3.749 3.63 A 1.446 1.446 0 0 1 4.054 3.935 A 1.531 1.531 0 0 1 4.346 4.713 A 1.961 1.961 0 0 1 4.355 4.904 A 2.139 2.139 0 0 1 4.28 5.487 A 1.577 1.577 0 0 1 3.797 6.258 A 1.832 1.832 0 0 1 3.105 6.633 Q 2.838 6.713 2.52 6.739 A 3.81 3.81 0 0 1 2.219 6.75 Z M 85.408 0.352 L 85.408 6.06 L 88.44 6.06 L 88.44 6.75 L 84.56 6.75 L 84.56 0.352 L 85.408 0.352 Z M 75.445 0.352 L 75.445 4.601 L 76.333 4.601 L 76.333 5.265 L 75.445 5.265 L 75.445 6.75 L 74.628 6.75 L 74.628 5.265 L 71.714 5.265 L 71.714 4.786 L 74.58 0.352 L 75.445 0.352 Z M 33.781 6.75 L 32.01 6.75 L 32.01 0.352 L 33.816 0.352 Q 34.651 0.352 35.292 0.721 Q 35.934 1.09 36.283 1.771 A 3.19 3.19 0 0 1 36.6 2.8 A 4.073 4.073 0 0 1 36.637 3.335 L 36.637 3.744 Q 36.637 4.649 36.288 5.331 A 2.457 2.457 0 0 1 35.29 6.376 Q 34.642 6.741 33.781 6.75 Z M 80.844 2.592 A 1.544 1.544 0 0 0 80.947 2.021 A 2.226 2.226 0 0 0 80.926 1.707 A 1.566 1.566 0 0 0 80.427 0.738 A 1.754 1.754 0 0 0 79.661 0.333 A 2.443 2.443 0 0 0 79.062 0.264 A 2.539 2.539 0 0 0 78.552 0.312 A 1.767 1.767 0 0 0 77.695 0.738 Q 77.177 1.213 77.177 2.021 A 1.808 1.808 0 0 0 77.177 2.058 A 1.499 1.499 0 0 0 77.423 2.87 A 1.626 1.626 0 0 0 77.585 3.077 A 1.726 1.726 0 0 0 78.095 3.454 A 2.119 2.119 0 0 0 77.996 3.5 A 1.738 1.738 0 0 0 77.311 4.087 A 1.629 1.629 0 0 0 77.027 5.023 A 2.272 2.272 0 0 0 77.037 5.237 A 1.63 1.63 0 0 0 77.583 6.344 A 1.895 1.895 0 0 0 78.434 6.771 A 2.797 2.797 0 0 0 79.062 6.838 A 2.796 2.796 0 0 0 79.661 6.777 A 1.925 1.925 0 0 0 80.536 6.346 A 1.578 1.578 0 0 0 81.011 5.62 A 1.989 1.989 0 0 0 81.097 5.023 A 1.581 1.581 0 0 0 80.804 4.087 Q 80.512 3.674 80.011 3.458 Q 80.442 3.248 80.695 2.874 A 1.449 1.449 0 0 0 80.844 2.592 Z M 42.97 0.844 L 43.783 0.844 L 43.783 1.995 L 44.67 1.995 L 44.67 2.624 L 43.783 2.624 L 43.783 5.572 Q 43.783 5.858 43.901 6.001 Q 44.02 6.144 44.306 6.144 A 1.046 1.046 0 0 0 44.403 6.138 Q 44.506 6.129 44.646 6.101 A 4.024 4.024 0 0 0 44.692 6.091 L 44.692 6.75 A 2.463 2.463 0 0 1 44.26 6.829 A 2.157 2.157 0 0 1 44.068 6.838 Q 43.621 6.838 43.355 6.616 A 0.856 0.856 0 0 1 43.247 6.508 Q 43.019 6.238 42.979 5.78 A 2.351 2.351 0 0 1 42.97 5.572 L 42.97 2.624 L 42.104 2.624 L 42.104 1.995 L 42.97 1.995 L 42.97 0.844 Z M 101.755 0.844 L 102.568 0.844 L 102.568 1.995 L 103.456 1.995 L 103.456 2.624 L 102.568 2.624 L 102.568 5.572 Q 102.568 5.858 102.687 6.001 Q 102.806 6.144 103.091 6.144 A 1.046 1.046 0 0 0 103.189 6.138 Q 103.292 6.129 103.431 6.101 A 4.024 4.024 0 0 0 103.478 6.091 L 103.478 6.75 A 2.463 2.463 0 0 1 103.045 6.829 A 2.157 2.157 0 0 1 102.854 6.838 Q 102.407 6.838 102.14 6.616 A 0.856 0.856 0 0 1 102.032 6.508 Q 101.805 6.238 101.764 5.78 A 2.351 2.351 0 0 1 101.755 5.572 L 101.755 2.624 L 100.89 2.624 L 100.89 1.995 L 101.755 1.995 L 101.755 0.844 Z M 33.838 1.046 L 32.854 1.046 L 32.854 6.06 L 33.741 6.06 A 2.519 2.519 0 0 0 34.374 5.985 A 1.747 1.747 0 0 0 35.26 5.454 Q 35.719 4.94 35.789 4.059 A 4.165 4.165 0 0 0 35.802 3.727 L 35.802 3.353 Q 35.802 2.562 35.533 2.027 A 1.864 1.864 0 0 0 35.29 1.659 A 1.687 1.687 0 0 0 34.294 1.09 A 2.499 2.499 0 0 0 33.838 1.046 Z M 90.158 1.995 L 90.158 6.75 L 89.345 6.75 L 89.345 1.995 L 90.158 1.995 Z M 25.418 3.252 L 25.418 5.524 Q 25.783 6.174 26.534 6.174 A 1.184 1.184 0 0 0 27 6.086 Q 27.257 5.977 27.445 5.735 A 1.403 1.403 0 0 0 27.464 5.711 A 1.501 1.501 0 0 0 27.68 5.28 Q 27.749 5.073 27.78 4.818 A 3.91 3.91 0 0 0 27.809 4.333 Q 27.809 3.746 27.626 3.339 A 1.503 1.503 0 0 0 27.466 3.063 A 1.086 1.086 0 0 0 26.68 2.605 A 1.414 1.414 0 0 0 26.525 2.597 Q 25.865 2.597 25.5 3.121 A 1.623 1.623 0 0 0 25.418 3.252 Z M 51.328 3.344 L 51.328 5.401 A 1.528 1.528 0 0 0 51.614 5.807 Q 51.937 6.127 52.427 6.147 A 1.621 1.621 0 0 0 52.493 6.148 A 1.206 1.206 0 0 0 52.91 6.079 A 1.04 1.04 0 0 0 53.402 5.695 Q 53.728 5.243 53.728 4.333 Q 53.728 3.502 53.407 3.05 A 1.03 1.03 0 0 0 52.656 2.607 A 1.449 1.449 0 0 0 52.484 2.597 A 1.34 1.34 0 0 0 51.974 2.69 Q 51.556 2.86 51.328 3.344 Z M 94.465 5.449 L 94.465 3.278 A 1.439 1.439 0 0 0 94.164 2.891 Q 93.86 2.62 93.42 2.599 A 1.578 1.578 0 0 0 93.344 2.597 Q 92.752 2.597 92.419 3.056 A 1.51 1.51 0 0 0 92.208 3.484 Q 92.142 3.689 92.111 3.939 A 3.955 3.955 0 0 0 92.083 4.425 Q 92.083 5.229 92.413 5.689 Q 92.742 6.148 93.335 6.148 A 1.32 1.32 0 0 0 93.845 6.054 Q 94.237 5.891 94.465 5.449 Z M 2.25 3.757 L 0.844 3.757 L 0.844 6.06 L 2.237 6.06 A 1.84 1.84 0 0 0 2.612 6.024 Q 2.852 5.974 3.036 5.854 A 1.064 1.064 0 0 0 3.166 5.755 A 1.003 1.003 0 0 0 3.488 5.154 A 1.459 1.459 0 0 0 3.507 4.913 Q 3.507 4.007 2.734 3.811 A 1.977 1.977 0 0 0 2.251 3.757 Z M 74.531 1.639 L 72.637 4.601 L 74.628 4.601 L 74.628 1.463 L 74.531 1.639 Z M 0.844 1.046 L 0.844 3.081 L 2.118 3.081 Q 2.672 3.081 3.004 2.804 A 0.905 0.905 0 0 0 3.331 2.154 A 1.27 1.27 0 0 0 3.335 2.052 Q 3.335 1.696 3.195 1.471 A 0.71 0.71 0 0 0 3.028 1.285 A 0.969 0.969 0 0 0 2.742 1.136 Q 2.479 1.047 2.098 1.046 A 3.261 3.261 0 0 0 2.092 1.046 L 0.844 1.046 Z M 80.284 5.005 A 1.375 1.375 0 0 0 80.224 4.592 A 1.109 1.109 0 0 0 79.943 4.131 A 1.148 1.148 0 0 0 79.272 3.807 A 1.593 1.593 0 0 0 79.053 3.792 A 1.466 1.466 0 0 0 78.665 3.841 A 1.086 1.086 0 0 0 78.172 4.126 A 1.123 1.123 0 0 0 77.859 4.762 A 1.572 1.572 0 0 0 77.84 5.005 A 1.48 1.48 0 0 0 77.882 5.367 A 1.019 1.019 0 0 0 78.163 5.862 Q 78.469 6.158 79.002 6.173 A 2.053 2.053 0 0 0 79.062 6.174 Q 79.556 6.174 79.866 5.94 A 1.018 1.018 0 0 0 79.958 5.86 A 1.041 1.041 0 0 0 80.258 5.292 A 1.518 1.518 0 0 0 80.284 5.005 Z M 79.062 0.932 A 1.259 1.259 0 0 0 78.709 0.979 A 0.973 0.973 0 0 0 78.286 1.228 Q 77.99 1.525 77.99 2.035 A 1.325 1.325 0 0 0 78.034 2.387 A 0.994 0.994 0 0 0 78.282 2.823 A 0.974 0.974 0 0 0 78.844 3.108 A 1.382 1.382 0 0 0 79.062 3.125 A 1.279 1.279 0 0 0 79.407 3.08 A 0.952 0.952 0 0 0 79.842 2.823 A 1.018 1.018 0 0 0 80.117 2.26 A 1.426 1.426 0 0 0 80.134 2.035 A 1.282 1.282 0 0 0 80.084 1.668 A 1.013 1.013 0 0 0 79.831 1.239 Q 79.528 0.932 79.062 0.932 Z M 8.284 5.418 L 8.284 4.443 L 7.646 4.443 Q 6.152 4.443 6.152 5.317 Q 6.152 5.7 6.407 5.915 A 0.893 0.893 0 0 0 6.821 6.108 A 1.259 1.259 0 0 0 7.062 6.13 A 1.429 1.429 0 0 0 7.787 5.933 A 1.335 1.335 0 0 0 8.083 5.705 A 1.108 1.108 0 0 0 8.284 5.418 Z M 40.592 5.418 L 40.592 4.443 L 39.955 4.443 Q 38.461 4.443 38.461 5.317 Q 38.461 5.7 38.716 5.915 A 0.893 0.893 0 0 0 39.129 6.108 A 1.259 1.259 0 0 0 39.371 6.13 A 1.429 1.429 0 0 0 40.096 5.933 A 1.335 1.335 0 0 0 40.391 5.705 A 1.108 1.108 0 0 0 40.592 5.418 Z M 48.428 5.418 L 48.428 4.443 L 47.791 4.443 Q 46.296 4.443 46.296 5.317 Q 46.296 5.7 46.551 5.915 A 0.893 0.893 0 0 0 46.965 6.108 A 1.259 1.259 0 0 0 47.206 6.13 A 1.429 1.429 0 0 0 47.931 5.933 A 1.335 1.335 0 0 0 48.227 5.705 A 1.108 1.108 0 0 0 48.428 5.418 Z M 58.373 5.418 L 58.373 4.443 L 57.735 4.443 Q 56.241 4.443 56.241 5.317 Q 56.241 5.7 56.496 5.915 A 0.893 0.893 0 0 0 56.91 6.108 A 1.259 1.259 0 0 0 57.151 6.13 A 1.429 1.429 0 0 0 57.876 5.933 A 1.335 1.335 0 0 0 58.172 5.705 A 1.108 1.108 0 0 0 58.373 5.418 Z M 65.733 3.938 L 68.115 3.938 L 68.115 3.876 Q 68.089 3.417 67.919 3.111 A 1.13 1.13 0 0 0 67.781 2.916 A 0.983 0.983 0 0 0 67.127 2.584 A 1.39 1.39 0 0 0 66.973 2.575 A 1.106 1.106 0 0 0 66.45 2.698 A 1.14 1.14 0 0 0 66.146 2.933 A 1.417 1.417 0 0 0 65.87 3.379 Q 65.796 3.563 65.756 3.785 A 2.741 2.741 0 0 0 65.733 3.938 Z M 89.279 0.734 Q 89.279 0.536 89.4 0.4 Q 89.512 0.274 89.724 0.264 A 0.783 0.783 0 0 1 89.758 0.264 Q 89.996 0.264 90.119 0.4 A 0.474 0.474 0 0 1 90.241 0.703 A 0.614 0.614 0 0 1 90.242 0.734 A 0.523 0.523 0 0 1 90.216 0.9 A 0.442 0.442 0 0 1 90.119 1.063 Q 90.006 1.184 89.798 1.194 A 0.803 0.803 0 0 1 89.758 1.195 Q 89.586 1.195 89.475 1.126 A 0.362 0.362 0 0 1 89.4 1.063 A 0.456 0.456 0 0 1 89.282 0.788 A 0.605 0.605 0 0 1 89.279 0.734 Z" vector-effect="non-scaling-stroke"/></g>
</svg>