<?xml version="1.0" encoding="UTF-8"?>
<svg width="48px" height="48px" viewBox="0 0 48 48" version="1.1" xmlns="http://www.w3.org/2000/svg" xmlns:xlink="http://www.w3.org/1999/xlink">
    <title>Icon-Resource/Storage/Res_AWS-Backup_Backup-Vault_48_Light</title>
    <g id="Icon-Resource/Storage/Res_AWS-Backup_Backup-Vault_48" stroke="none" stroke-width="1" fill="none" fill-rule="evenodd">
        <path transform="translate(0vw, 0vh), scale(.65)" d="M10.298,22.955 L8.298,22.969 C8.333,27.982 10.654,32.573 14.668,35.564 C17.503,37.677 20.819,38.696 24.109,38.696 C28.942,38.696 33.717,36.496 36.82,32.332 C42.036,25.334 40.587,15.396 33.589,10.18 C26.813,5.13 17.297,6.345 11.963,12.775 L12,10.014 L10,9.987 L9.933,14.987 C9.929,15.252 10.031,15.508 10.216,15.698 C10.402,15.888 10.654,15.997 10.919,16 L15.986,16.068 L16.014,14.068 L13.513,14.035 C18.176,8.43 26.479,7.376 32.394,11.783 C38.507,16.341 39.774,25.023 35.217,31.137 C30.658,37.251 21.979,38.517 15.863,33.96 C12.357,31.347 10.328,27.335 10.298,22.955 L10.298,22.955 Z M24,19 C21.794,19 20,20.795 20,23 C20,25.206 21.794,27 24,27 C26.206,27 28,25.206 28,23 C28,20.795 26.206,19 24,19 L24,19 Z M16.946,28.78 L19.175,26.552 C18.441,25.556 18,24.33 18,23 C18,21.622 18.473,20.353 19.257,19.339 L16.947,17.191 L18.309,15.727 L20.729,17.977 C21.671,17.362 22.793,17 24,17 C25.342,17 26.577,17.448 27.577,18.195 L29.982,15.726 L31.414,17.121 L28.965,19.636 C29.617,20.597 30,21.754 30,23 C30,24.252 29.613,25.415 28.955,26.377 L31.414,28.756 L30.024,30.194 L27.565,27.815 C26.567,28.556 25.336,29 24,29 C22.742,29 21.574,28.61 20.61,27.946 L18.361,30.194 L16.946,28.78 Z M35,44 L39,44 L39,43 L35,43 L35,44 Z M9,44 L13,44 L13,43 L9,43 L9,44 Z M46,3 L46,42 C46,42.553 45.553,43 45,43 L41,43 L41,45 C41,45.553 40.553,46 40,46 L34,46 C33.447,46 33,45.553 33,45 L33,43 L15,43 L15,45 C15,45.553 14.553,46 14,46 L8,46 C7.447,46 7,45.553 7,45 L7,43 L3,43 C2.447,43 2,42.553 2,42 L2,33 L4,33 L4,41 L44,41 L44,4 L4,4 L4,11 L2,11 L2,3 C2,2.448 2.447,2 3,2 L45,2 C45.553,2 46,2.448 46,3 L46,3 Z M2,27 L4,27 L4,17 L2,17 L2,27 Z" id="Fill-1" fill="#000000"></path>
    </g><g transform="translate(33vw, 80vh)" id="svgGroup" stroke-linecap="round" fill-rule="evenodd" font-size="9pt" stroke="#000" stroke-width="0.25mm" fill="#000" style="stroke:#000;stroke-width:0.25mm;fill:#000"><path d="M 23.12 0.088 L 24.13 4.469 L 24.253 5.313 L 24.434 4.553 L 25.699 0.088 L 26.411 0.088 L 27.646 4.553 L 27.822 5.326 L 27.958 4.465 L 28.951 0.088 L 29.799 0.088 L 28.248 6.486 L 27.479 6.486 L 26.161 1.824 L 26.06 1.336 L 25.958 1.824 L 24.592 6.486 L 23.823 6.486 L 22.276 0.088 L 23.12 0.088 Z M 34.98 1.938 L 34.132 1.938 A 1.466 1.466 0 0 0 34.083 1.546 A 1.066 1.066 0 0 0 33.763 1.026 A 1.211 1.211 0 0 0 33.294 0.77 Q 33.042 0.694 32.722 0.694 A 2.286 2.286 0 0 0 32.342 0.724 Q 32.14 0.758 31.977 0.831 A 1.101 1.101 0 0 0 31.748 0.969 A 0.892 0.892 0 0 0 31.403 1.624 A 1.267 1.267 0 0 0 31.399 1.732 A 0.806 0.806 0 0 0 31.667 2.337 A 1.134 1.134 0 0 0 31.731 2.393 A 1.562 1.562 0 0 0 31.969 2.549 Q 32.299 2.73 32.86 2.887 A 8.228 8.228 0 0 1 33.325 3.032 Q 33.56 3.113 33.754 3.2 A 3.297 3.297 0 0 1 34.108 3.382 A 2.342 2.342 0 0 1 34.447 3.626 Q 34.637 3.792 34.759 3.985 A 1.45 1.45 0 0 1 34.776 4.012 A 1.498 1.498 0 0 1 34.972 4.568 A 1.948 1.948 0 0 1 34.994 4.86 A 1.606 1.606 0 0 1 34.871 5.497 Q 34.726 5.838 34.408 6.09 A 1.886 1.886 0 0 1 34.387 6.106 Q 33.781 6.574 32.766 6.574 A 3.023 3.023 0 0 1 31.625 6.36 A 2.917 2.917 0 0 1 31.535 6.322 A 2.383 2.383 0 0 1 31.057 6.044 A 1.874 1.874 0 0 1 30.654 5.629 A 1.689 1.689 0 0 1 30.344 4.632 L 31.192 4.632 A 1.261 1.261 0 0 0 31.262 5.059 A 1.074 1.074 0 0 0 31.621 5.548 Q 32.005 5.85 32.622 5.881 A 2.87 2.87 0 0 0 32.766 5.884 A 2.628 2.628 0 0 0 33.153 5.858 Q 33.349 5.828 33.508 5.767 A 1.129 1.129 0 0 0 33.79 5.612 Q 34.146 5.339 34.146 4.869 A 1.074 1.074 0 0 0 34.103 4.559 A 0.816 0.816 0 0 0 33.816 4.142 Q 33.486 3.885 32.621 3.634 Q 31.535 3.322 31.041 2.868 Q 30.546 2.413 30.546 1.745 Q 30.546 0.989 31.151 0.494 A 2.121 2.121 0 0 1 32.041 0.071 A 3.087 3.087 0 0 1 32.722 0 A 2.913 2.913 0 0 1 33.382 0.072 A 2.372 2.372 0 0 1 33.897 0.255 A 2.051 2.051 0 0 1 34.428 0.626 A 1.834 1.834 0 0 1 34.697 0.958 A 1.798 1.798 0 0 1 34.98 1.938 Z M 3.74 6.486 L 2.351 3.898 L 0.848 3.898 L 0.848 6.486 L 0 6.486 L 0 0.088 L 2.118 0.088 A 3.809 3.809 0 0 1 2.76 0.138 Q 3.102 0.197 3.376 0.324 A 1.789 1.789 0 0 1 3.781 0.58 A 1.588 1.588 0 0 1 4.307 1.469 A 2.453 2.453 0 0 1 4.364 2.013 A 1.864 1.864 0 0 1 4.273 2.604 A 1.64 1.64 0 0 1 4.041 3.054 A 1.849 1.849 0 0 1 3.382 3.611 A 2.342 2.342 0 0 1 3.142 3.718 L 4.645 6.434 L 4.645 6.486 L 3.74 6.486 Z M 13.724 3.129 L 12.907 3.129 Q 12.907 2.795 12.623 2.553 Q 12.34 2.312 11.909 2.312 Q 11.465 2.312 11.215 2.505 A 0.653 0.653 0 0 0 11.04 2.704 Q 10.967 2.835 10.964 3 A 0.771 0.771 0 0 0 10.964 3.01 A 0.588 0.588 0 0 0 10.994 3.203 A 0.48 0.48 0 0 0 11.197 3.454 A 1.093 1.093 0 0 0 11.348 3.533 Q 11.512 3.605 11.767 3.673 A 6.581 6.581 0 0 0 12.039 3.74 A 6.318 6.318 0 0 1 12.446 3.845 Q 12.783 3.944 13.025 4.065 A 1.901 1.901 0 0 1 13.281 4.218 Q 13.418 4.315 13.516 4.429 A 1.06 1.06 0 0 1 13.586 4.52 A 1.024 1.024 0 0 1 13.748 4.927 A 1.388 1.388 0 0 1 13.768 5.168 Q 13.768 5.805 13.258 6.19 Q 12.776 6.554 12.022 6.573 A 3.337 3.337 0 0 1 11.936 6.574 A 2.746 2.746 0 0 1 11.401 6.525 A 2.124 2.124 0 0 1 10.925 6.372 A 1.771 1.771 0 0 1 10.491 6.094 A 1.54 1.54 0 0 1 10.237 5.807 Q 9.989 5.445 9.989 5.023 L 10.802 5.023 A 0.932 0.932 0 0 0 10.875 5.348 A 0.827 0.827 0 0 0 11.129 5.671 A 1.072 1.072 0 0 0 11.531 5.864 Q 11.686 5.903 11.867 5.91 A 2.013 2.013 0 0 0 11.936 5.911 A 1.863 1.863 0 0 0 12.231 5.889 Q 12.393 5.863 12.524 5.806 A 0.941 0.941 0 0 0 12.676 5.724 A 0.689 0.689 0 0 0 12.841 5.574 A 0.554 0.554 0 0 0 12.955 5.225 A 0.698 0.698 0 0 0 12.919 4.994 A 0.581 0.581 0 0 0 12.707 4.713 A 1.05 1.05 0 0 0 12.538 4.615 Q 12.349 4.524 12.054 4.449 A 5.392 5.392 0 0 0 11.841 4.399 A 6.342 6.342 0 0 1 11.48 4.311 Q 11.11 4.209 10.861 4.083 Q 10.562 3.93 10.392 3.731 A 1.017 1.017 0 0 1 10.325 3.643 Q 10.151 3.388 10.151 3.037 A 1.206 1.206 0 0 1 10.55 2.132 A 1.694 1.694 0 0 1 10.646 2.048 A 1.752 1.752 0 0 1 11.429 1.688 A 2.471 2.471 0 0 1 11.909 1.644 A 2.559 2.559 0 0 1 12.473 1.702 A 1.757 1.757 0 0 1 13.221 2.061 Q 13.724 2.479 13.724 3.129 Z M 21.327 6.486 L 20.716 4.816 L 18.035 4.816 L 17.433 6.486 L 16.563 6.486 L 19.006 0.088 L 19.745 0.088 L 22.192 6.486 L 21.327 6.486 Z M 5.212 4.241 L 5.212 4.091 A 3.17 3.17 0 0 1 5.288 3.382 A 2.581 2.581 0 0 1 5.482 2.828 A 2.191 2.191 0 0 1 5.93 2.202 A 2.033 2.033 0 0 1 6.238 1.958 Q 6.724 1.644 7.291 1.644 A 2.254 2.254 0 0 1 7.904 1.723 A 1.639 1.639 0 0 1 8.732 2.254 Q 9.246 2.865 9.246 4.003 L 9.246 4.342 L 6.025 4.342 A 2.111 2.111 0 0 0 6.096 4.85 A 1.516 1.516 0 0 0 6.436 5.478 A 1.282 1.282 0 0 0 7.37 5.909 A 1.652 1.652 0 0 0 7.436 5.911 A 1.763 1.763 0 0 0 7.764 5.882 Q 7.988 5.839 8.165 5.735 A 1.827 1.827 0 0 0 8.674 5.287 A 2.068 2.068 0 0 0 8.688 5.269 L 9.185 5.656 A 1.926 1.926 0 0 1 7.785 6.547 A 2.749 2.749 0 0 1 7.392 6.574 A 2.394 2.394 0 0 1 6.64 6.461 A 1.974 1.974 0 0 1 5.818 5.939 Q 5.212 5.304 5.212 4.241 Z M 0.848 0.782 L 0.848 3.208 L 2.145 3.208 Q 2.685 3.208 3.035 2.968 A 1.174 1.174 0 0 0 3.144 2.883 A 1.069 1.069 0 0 0 3.51 2.146 A 1.486 1.486 0 0 0 3.516 2.013 Q 3.516 1.47 3.22 1.159 A 1 1 0 0 0 3.162 1.103 Q 2.808 0.787 2.14 0.782 L 0.848 0.782 Z M 19.375 1.129 L 18.29 4.122 L 20.465 4.122 L 19.375 1.129 Z M 6.051 3.674 L 8.433 3.674 L 8.433 3.612 Q 8.407 3.153 8.236 2.848 A 1.13 1.13 0 0 0 8.099 2.652 A 0.983 0.983 0 0 0 7.445 2.32 A 1.39 1.39 0 0 0 7.291 2.312 A 1.106 1.106 0 0 0 6.768 2.435 A 1.14 1.14 0 0 0 6.464 2.67 A 1.417 1.417 0 0 0 6.188 3.116 Q 6.114 3.3 6.074 3.522 A 2.741 2.741 0 0 0 6.051 3.674 Z" vector-effect="non-scaling-stroke"/></g><g transform="translate(12vw, 90vh)" id="svgGroup" stroke-linecap="round" fill-rule="evenodd" font-size="9pt" stroke="#000" stroke-width="0.25mm" fill="#000" style="stroke:#000;stroke-width:0.25mm;fill:#000"><path d="M 111.85 0 L 111.85 2.571 A 1.767 1.767 0 0 1 112.516 2.053 A 1.832 1.832 0 0 1 113.256 1.907 A 1.905 1.905 0 0 1 113.889 2.004 Q 114.731 2.3 114.774 3.506 A 3.668 3.668 0 0 1 114.776 3.608 L 114.776 6.75 L 113.963 6.75 L 113.963 3.604 A 1.837 1.837 0 0 0 113.941 3.324 Q 113.891 3.017 113.728 2.843 Q 113.542 2.645 113.189 2.606 A 1.66 1.66 0 0 0 113.01 2.597 A 1.253 1.253 0 0 0 112.595 2.664 A 1.123 1.123 0 0 0 112.315 2.808 A 1.432 1.432 0 0 0 111.85 3.362 L 111.85 6.75 L 111.037 6.75 L 111.037 0 L 111.85 0 Z M 18.066 6.75 L 16.409 4.548 L 15.899 5.08 L 15.899 6.75 L 15.086 6.75 L 15.086 0 L 15.899 0 L 15.899 4.083 L 16.334 3.56 L 17.815 1.995 L 18.804 1.995 L 16.954 3.981 L 19.02 6.75 L 18.066 6.75 Z M 50.076 6.75 L 48.419 4.548 L 47.909 5.08 L 47.909 6.75 L 47.096 6.75 L 47.096 0 L 47.909 0 L 47.909 4.083 L 48.344 3.56 L 49.825 1.995 L 50.814 1.995 L 48.964 3.981 L 51.029 6.75 L 50.076 6.75 Z M 64.318 0.352 L 66.138 5.629 L 67.966 0.352 L 68.889 0.352 L 66.516 6.75 L 65.769 6.75 L 63.4 0.352 L 64.318 0.352 Z M 109.028 2.522 L 109.068 1.995 L 109.811 1.995 L 109.811 6.636 A 2.511 2.511 0 0 1 109.74 7.249 A 1.738 1.738 0 0 1 109.263 8.09 A 1.834 1.834 0 0 1 108.334 8.57 A 2.671 2.671 0 0 1 107.793 8.622 A 2.446 2.446 0 0 1 106.787 8.402 A 2.003 2.003 0 0 1 106.377 8.161 A 1.563 1.563 0 0 1 106.036 7.8 L 106.458 7.313 A 1.889 1.889 0 0 0 106.892 7.712 A 1.514 1.514 0 0 0 107.736 7.958 A 1.695 1.695 0 0 0 108.113 7.919 Q 108.382 7.858 108.576 7.702 A 1.037 1.037 0 0 0 108.661 7.625 A 1.09 1.09 0 0 0 108.938 7.132 Q 108.985 6.959 108.992 6.752 A 2.134 2.134 0 0 0 108.993 6.684 L 108.993 6.275 A 1.601 1.601 0 0 1 107.941 6.821 A 2.279 2.279 0 0 1 107.662 6.838 A 1.672 1.672 0 0 1 106.906 6.67 Q 106.584 6.51 106.335 6.197 A 2.14 2.14 0 0 1 106.31 6.166 A 2.316 2.316 0 0 1 105.927 5.386 Q 105.794 4.922 105.794 4.333 Q 105.794 3.472 106.102 2.884 A 2.096 2.096 0 0 1 106.308 2.564 Q 106.822 1.907 107.67 1.907 A 1.971 1.971 0 0 1 108.269 1.994 A 1.55 1.55 0 0 1 109.028 2.522 Z M 22.597 6.75 L 22.579 6.28 A 1.526 1.526 0 0 1 21.753 6.775 Q 21.503 6.836 21.205 6.838 A 2.996 2.996 0 0 1 21.186 6.838 A 2.086 2.086 0 0 1 20.726 6.79 Q 20.295 6.693 20.028 6.396 A 1.41 1.41 0 0 1 19.745 5.899 Q 19.628 5.556 19.626 5.089 L 19.626 1.995 L 20.439 1.995 L 20.439 5.067 Q 20.439 6.037 21.147 6.137 A 1.229 1.229 0 0 0 21.318 6.148 A 1.927 1.927 0 0 0 21.769 6.099 Q 22.331 5.964 22.557 5.454 L 22.557 1.995 L 23.37 1.995 L 23.37 6.75 L 22.597 6.75 Z M 54.606 6.75 L 54.589 6.28 A 1.526 1.526 0 0 1 53.763 6.775 Q 53.512 6.836 53.215 6.838 A 2.996 2.996 0 0 1 53.196 6.838 A 2.086 2.086 0 0 1 52.736 6.79 Q 52.305 6.693 52.038 6.396 A 1.41 1.41 0 0 1 51.755 5.899 Q 51.638 5.556 51.636 5.089 L 51.636 1.995 L 52.449 1.995 L 52.449 5.067 Q 52.449 6.037 53.156 6.137 A 1.229 1.229 0 0 0 53.328 6.148 A 1.927 1.927 0 0 0 53.779 6.099 Q 54.341 5.964 54.567 5.454 L 54.567 1.995 L 55.38 1.995 L 55.38 6.75 L 54.606 6.75 Z M 77.265 6.75 L 77.247 6.28 A 1.526 1.526 0 0 1 76.421 6.775 Q 76.171 6.836 75.873 6.838 A 2.996 2.996 0 0 1 75.854 6.838 A 2.086 2.086 0 0 1 75.394 6.79 Q 74.963 6.693 74.696 6.396 A 1.41 1.41 0 0 1 74.413 5.899 Q 74.296 5.556 74.294 5.089 L 74.294 1.995 L 75.107 1.995 L 75.107 5.067 Q 75.107 6.037 75.815 6.137 A 1.229 1.229 0 0 0 75.986 6.148 A 1.927 1.927 0 0 0 76.437 6.099 Q 76.999 5.964 77.225 5.454 L 77.225 1.995 L 78.038 1.995 L 78.038 6.75 L 77.265 6.75 Z M 13.399 5.251 L 14.168 5.251 A 1.432 1.432 0 0 1 13.969 5.901 A 1.772 1.772 0 0 1 13.887 6.029 A 1.828 1.828 0 0 1 13.277 6.574 A 2.169 2.169 0 0 1 13.195 6.618 A 1.997 1.997 0 0 1 12.278 6.838 A 2.346 2.346 0 0 1 11.581 6.739 A 1.839 1.839 0 0 1 10.734 6.19 A 2.171 2.171 0 0 1 10.27 5.31 Q 10.16 4.909 10.16 4.417 L 10.16 4.28 A 3.24 3.24 0 0 1 10.224 3.624 A 2.57 2.57 0 0 1 10.415 3.045 A 2.008 2.008 0 0 1 10.855 2.431 A 1.892 1.892 0 0 1 11.147 2.206 A 1.943 1.943 0 0 1 11.903 1.934 A 2.529 2.529 0 0 1 12.274 1.907 A 2.196 2.196 0 0 1 12.922 1.999 A 1.786 1.786 0 0 1 13.603 2.386 A 1.693 1.693 0 0 1 14.162 3.535 A 2.239 2.239 0 0 1 14.168 3.63 L 13.399 3.63 Q 13.364 3.168 13.05 2.872 A 1.078 1.078 0 0 0 12.32 2.576 A 1.402 1.402 0 0 0 12.274 2.575 A 1.374 1.374 0 0 0 11.852 2.637 A 1.081 1.081 0 0 0 11.314 3.021 A 1.469 1.469 0 0 0 11.087 3.468 Q 11.021 3.674 10.993 3.923 A 3.514 3.514 0 0 0 10.973 4.311 L 10.973 4.465 Q 10.973 5.287 11.312 5.73 A 1.1 1.1 0 0 0 12.098 6.165 A 1.611 1.611 0 0 0 12.278 6.174 A 1.171 1.171 0 0 0 13.039 5.911 A 1.007 1.007 0 0 0 13.283 5.629 A 0.914 0.914 0 0 0 13.399 5.251 Z M 45.409 5.251 L 46.178 5.251 A 1.432 1.432 0 0 1 45.979 5.901 A 1.772 1.772 0 0 1 45.896 6.029 A 1.828 1.828 0 0 1 45.287 6.574 A 2.169 2.169 0 0 1 45.204 6.618 A 1.997 1.997 0 0 1 44.288 6.838 A 2.346 2.346 0 0 1 43.591 6.739 A 1.839 1.839 0 0 1 42.743 6.19 A 2.171 2.171 0 0 1 42.28 5.31 Q 42.17 4.909 42.17 4.417 L 42.17 4.28 A 3.24 3.24 0 0 1 42.234 3.624 A 2.57 2.57 0 0 1 42.425 3.045 A 2.008 2.008 0 0 1 42.864 2.431 A 1.892 1.892 0 0 1 43.156 2.206 A 1.943 1.943 0 0 1 43.913 1.934 A 2.529 2.529 0 0 1 44.284 1.907 A 2.196 2.196 0 0 1 44.932 1.999 A 1.786 1.786 0 0 1 45.613 2.386 A 1.693 1.693 0 0 1 46.171 3.535 A 2.239 2.239 0 0 1 46.178 3.63 L 45.409 3.63 Q 45.374 3.168 45.059 2.872 A 1.078 1.078 0 0 0 44.33 2.576 A 1.402 1.402 0 0 0 44.284 2.575 A 1.374 1.374 0 0 0 43.862 2.637 A 1.081 1.081 0 0 0 43.323 3.021 A 1.469 1.469 0 0 0 43.097 3.468 Q 43.031 3.674 43.003 3.923 A 3.514 3.514 0 0 0 42.983 4.311 L 42.983 4.465 Q 42.983 5.287 43.321 5.73 A 1.1 1.1 0 0 0 44.108 6.165 A 1.611 1.611 0 0 0 44.288 6.174 A 1.171 1.171 0 0 0 45.048 5.911 A 1.007 1.007 0 0 0 45.292 5.629 A 0.914 0.914 0 0 0 45.409 5.251 Z M 9.264 6.75 L 8.411 6.75 A 0.632 0.632 0 0 1 8.376 6.66 Q 8.344 6.562 8.32 6.41 A 3.997 3.997 0 0 1 8.297 6.249 Q 7.73 6.838 6.943 6.838 A 2.033 2.033 0 0 1 6.414 6.772 A 1.529 1.529 0 0 1 5.79 6.44 Q 5.339 6.042 5.339 5.432 Q 5.339 4.689 5.904 4.278 Q 6.469 3.867 7.493 3.867 L 8.284 3.867 L 8.284 3.494 A 1.152 1.152 0 0 0 8.248 3.199 A 0.828 0.828 0 0 0 8.029 2.815 Q 7.813 2.6 7.422 2.568 A 1.748 1.748 0 0 0 7.277 2.562 Q 6.842 2.562 6.548 2.782 Q 6.253 3.001 6.253 3.313 L 5.436 3.313 A 1.041 1.041 0 0 1 5.561 2.825 A 1.409 1.409 0 0 1 5.689 2.626 Q 5.941 2.294 6.374 2.101 A 2.249 2.249 0 0 1 7.15 1.913 A 2.669 2.669 0 0 1 7.326 1.907 A 2.65 2.65 0 0 1 7.843 1.955 Q 8.15 2.016 8.389 2.156 A 1.439 1.439 0 0 1 8.613 2.318 A 1.396 1.396 0 0 1 9.067 3.144 A 1.998 1.998 0 0 1 9.097 3.45 L 9.097 5.638 Q 9.097 6.073 9.17 6.39 A 1.707 1.707 0 0 0 9.264 6.68 L 9.264 6.75 Z M 41.273 6.75 L 40.421 6.75 A 0.632 0.632 0 0 1 40.385 6.66 Q 40.354 6.562 40.329 6.41 A 3.997 3.997 0 0 1 40.307 6.249 Q 39.74 6.838 38.953 6.838 A 2.033 2.033 0 0 1 38.424 6.772 A 1.529 1.529 0 0 1 37.8 6.44 Q 37.349 6.042 37.349 5.432 Q 37.349 4.689 37.914 4.278 Q 38.479 3.867 39.502 3.867 L 40.293 3.867 L 40.293 3.494 A 1.152 1.152 0 0 0 40.258 3.199 A 0.828 0.828 0 0 0 40.039 2.815 Q 39.822 2.6 39.432 2.568 A 1.748 1.748 0 0 0 39.287 2.562 Q 38.852 2.562 38.558 2.782 Q 38.263 3.001 38.263 3.313 L 37.446 3.313 A 1.041 1.041 0 0 1 37.571 2.825 A 1.409 1.409 0 0 1 37.698 2.626 Q 37.951 2.294 38.384 2.101 A 2.249 2.249 0 0 1 39.16 1.913 A 2.669 2.669 0 0 1 39.335 1.907 A 2.65 2.65 0 0 1 39.853 1.955 Q 40.16 2.016 40.399 2.156 A 1.439 1.439 0 0 1 40.623 2.318 A 1.396 1.396 0 0 1 41.076 3.144 A 1.998 1.998 0 0 1 41.106 3.45 L 41.106 5.638 Q 41.106 6.073 41.18 6.39 A 1.707 1.707 0 0 0 41.273 6.68 L 41.273 6.75 Z M 73.204 6.75 L 72.352 6.75 A 0.632 0.632 0 0 1 72.316 6.66 Q 72.285 6.562 72.26 6.41 A 3.997 3.997 0 0 1 72.237 6.249 Q 71.67 6.838 70.884 6.838 A 2.033 2.033 0 0 1 70.354 6.772 A 1.529 1.529 0 0 1 69.73 6.44 Q 69.28 6.042 69.28 5.432 Q 69.28 4.689 69.844 4.278 Q 70.409 3.867 71.433 3.867 L 72.224 3.867 L 72.224 3.494 A 1.152 1.152 0 0 0 72.188 3.199 A 0.828 0.828 0 0 0 71.969 2.815 Q 71.753 2.6 71.363 2.568 A 1.748 1.748 0 0 0 71.218 2.562 Q 70.783 2.562 70.488 2.782 Q 70.194 3.001 70.194 3.313 L 69.376 3.313 A 1.041 1.041 0 0 1 69.501 2.825 A 1.409 1.409 0 0 1 69.629 2.626 Q 69.882 2.294 70.315 2.101 A 2.249 2.249 0 0 1 71.09 1.913 A 2.669 2.669 0 0 1 71.266 1.907 A 2.65 2.65 0 0 1 71.784 1.955 Q 72.091 2.016 72.33 2.156 A 1.439 1.439 0 0 1 72.554 2.318 A 1.396 1.396 0 0 1 73.007 3.144 A 1.998 1.998 0 0 1 73.037 3.45 L 73.037 5.638 Q 73.037 6.073 73.111 6.39 A 1.707 1.707 0 0 0 73.204 6.68 L 73.204 6.75 Z M 28.622 4.351 L 28.622 4.425 Q 28.622 5.511 28.125 6.174 A 1.57 1.57 0 0 1 26.987 6.828 A 2.013 2.013 0 0 1 26.78 6.838 A 2.196 2.196 0 0 1 26.194 6.764 A 1.598 1.598 0 0 1 25.418 6.289 L 25.418 8.578 L 24.605 8.578 L 24.605 1.995 L 25.348 1.995 L 25.387 2.522 A 1.619 1.619 0 0 1 26.526 1.919 A 2.319 2.319 0 0 1 26.767 1.907 A 1.829 1.829 0 0 1 27.404 2.014 A 1.597 1.597 0 0 1 28.123 2.553 Q 28.622 3.199 28.622 4.351 Z M 60.631 4.351 L 60.631 4.425 Q 60.631 5.511 60.135 6.174 A 1.57 1.57 0 0 1 58.997 6.828 A 2.013 2.013 0 0 1 58.79 6.838 A 2.196 2.196 0 0 1 58.204 6.764 A 1.598 1.598 0 0 1 57.428 6.289 L 57.428 8.578 L 56.615 8.578 L 56.615 1.995 L 57.357 1.995 L 57.397 2.522 A 1.619 1.619 0 0 1 58.536 1.919 A 2.319 2.319 0 0 1 58.777 1.907 A 1.829 1.829 0 0 1 59.414 2.014 A 1.597 1.597 0 0 1 60.133 2.553 Q 60.631 3.199 60.631 4.351 Z M 2.219 6.75 L 0 6.75 L 0 0.352 L 2.092 0.352 A 4.031 4.031 0 0 1 2.665 0.39 Q 2.957 0.432 3.194 0.521 A 1.629 1.629 0 0 1 3.658 0.782 A 1.383 1.383 0 0 1 4.13 1.558 A 2.164 2.164 0 0 1 4.184 2.057 A 1.3 1.3 0 0 1 3.929 2.85 A 1.589 1.589 0 0 1 3.418 3.294 A 1.972 1.972 0 0 1 3.234 3.384 A 1.571 1.571 0 0 1 3.749 3.63 A 1.446 1.446 0 0 1 4.054 3.935 A 1.531 1.531 0 0 1 4.346 4.713 A 1.961 1.961 0 0 1 4.355 4.904 A 2.139 2.139 0 0 1 4.28 5.487 A 1.577 1.577 0 0 1 3.797 6.258 A 1.832 1.832 0 0 1 3.105 6.633 Q 2.838 6.713 2.52 6.739 A 3.81 3.81 0 0 1 2.219 6.75 Z M 34.229 6.75 L 32.01 6.75 L 32.01 0.352 L 34.102 0.352 A 4.031 4.031 0 0 1 34.674 0.39 Q 34.967 0.432 35.204 0.521 A 1.629 1.629 0 0 1 35.668 0.782 A 1.383 1.383 0 0 1 36.139 1.558 A 2.164 2.164 0 0 1 36.193 2.057 A 1.3 1.3 0 0 1 35.938 2.85 A 1.589 1.589 0 0 1 35.428 3.294 A 1.972 1.972 0 0 1 35.244 3.384 A 1.571 1.571 0 0 1 35.759 3.63 A 1.446 1.446 0 0 1 36.064 3.935 A 1.531 1.531 0 0 1 36.356 4.713 A 1.961 1.961 0 0 1 36.365 4.904 A 2.139 2.139 0 0 1 36.289 5.487 A 1.577 1.577 0 0 1 35.807 6.258 A 1.832 1.832 0 0 1 35.115 6.633 Q 34.848 6.713 34.529 6.739 A 3.81 3.81 0 0 1 34.229 6.75 Z M 99.936 0.352 L 99.936 6.06 L 102.968 6.06 L 102.968 6.75 L 99.088 6.75 L 99.088 0.352 L 99.936 0.352 Z M 89.974 0.352 L 89.974 4.601 L 90.861 4.601 L 90.861 5.265 L 89.974 5.265 L 89.974 6.75 L 89.156 6.75 L 89.156 5.265 L 86.243 5.265 L 86.243 4.786 L 89.108 0.352 L 89.974 0.352 Z M 95.372 2.592 A 1.544 1.544 0 0 0 95.476 2.021 A 2.226 2.226 0 0 0 95.454 1.707 A 1.566 1.566 0 0 0 94.955 0.738 A 1.754 1.754 0 0 0 94.189 0.333 A 2.443 2.443 0 0 0 93.59 0.264 A 2.539 2.539 0 0 0 93.081 0.312 A 1.767 1.767 0 0 0 92.224 0.738 Q 91.705 1.213 91.705 2.021 A 1.808 1.808 0 0 0 91.705 2.058 A 1.499 1.499 0 0 0 91.951 2.87 A 1.626 1.626 0 0 0 92.113 3.077 A 1.726 1.726 0 0 0 92.624 3.454 A 2.119 2.119 0 0 0 92.524 3.5 A 1.738 1.738 0 0 0 91.839 4.087 A 1.629 1.629 0 0 0 91.556 5.023 A 2.272 2.272 0 0 0 91.565 5.237 A 1.63 1.63 0 0 0 92.112 6.344 A 1.895 1.895 0 0 0 92.962 6.771 A 2.797 2.797 0 0 0 93.59 6.838 A 2.796 2.796 0 0 0 94.189 6.777 A 1.925 1.925 0 0 0 95.065 6.346 A 1.578 1.578 0 0 0 95.54 5.62 A 1.989 1.989 0 0 0 95.625 5.023 A 1.581 1.581 0 0 0 95.333 4.087 Q 95.041 3.674 94.54 3.458 Q 94.97 3.248 95.223 2.874 A 1.449 1.449 0 0 0 95.372 2.592 Z M 81.747 0.844 L 82.56 0.844 L 82.56 1.995 L 83.448 1.995 L 83.448 2.624 L 82.56 2.624 L 82.56 5.572 Q 82.56 5.858 82.679 6.001 Q 82.797 6.144 83.083 6.144 A 1.046 1.046 0 0 0 83.181 6.138 Q 83.283 6.129 83.423 6.101 A 4.024 4.024 0 0 0 83.47 6.091 L 83.47 6.75 A 2.463 2.463 0 0 1 83.037 6.829 A 2.157 2.157 0 0 1 82.846 6.838 Q 82.399 6.838 82.132 6.616 A 0.856 0.856 0 0 1 82.024 6.508 Q 81.797 6.238 81.756 5.78 A 2.351 2.351 0 0 1 81.747 5.572 L 81.747 2.624 L 80.881 2.624 L 80.881 1.995 L 81.747 1.995 L 81.747 0.844 Z M 116.284 0.844 L 117.097 0.844 L 117.097 1.995 L 117.984 1.995 L 117.984 2.624 L 117.097 2.624 L 117.097 5.572 Q 117.097 5.858 117.215 6.001 Q 117.334 6.144 117.62 6.144 A 1.046 1.046 0 0 0 117.717 6.138 Q 117.82 6.129 117.96 6.101 A 4.024 4.024 0 0 0 118.006 6.091 L 118.006 6.75 A 2.463 2.463 0 0 1 117.574 6.829 A 2.157 2.157 0 0 1 117.382 6.838 Q 116.935 6.838 116.669 6.616 A 0.856 0.856 0 0 1 116.561 6.508 Q 116.333 6.238 116.293 5.78 A 2.351 2.351 0 0 1 116.284 5.572 L 116.284 2.624 L 115.418 2.624 L 115.418 1.995 L 116.284 1.995 L 116.284 0.844 Z M 80.156 0 L 80.156 6.75 L 79.343 6.75 L 79.343 0 L 80.156 0 Z M 104.687 1.995 L 104.687 6.75 L 103.874 6.75 L 103.874 1.995 L 104.687 1.995 Z M 25.418 3.252 L 25.418 5.524 Q 25.783 6.174 26.534 6.174 A 1.184 1.184 0 0 0 27 6.086 Q 27.257 5.977 27.445 5.735 A 1.403 1.403 0 0 0 27.464 5.711 A 1.501 1.501 0 0 0 27.68 5.28 Q 27.749 5.073 27.78 4.818 A 3.91 3.91 0 0 0 27.809 4.333 Q 27.809 3.746 27.626 3.339 A 1.503 1.503 0 0 0 27.466 3.063 A 1.086 1.086 0 0 0 26.68 2.605 A 1.414 1.414 0 0 0 26.525 2.597 Q 25.865 2.597 25.5 3.121 A 1.623 1.623 0 0 0 25.418 3.252 Z M 57.428 3.252 L 57.428 5.524 Q 57.792 6.174 58.544 6.174 A 1.184 1.184 0 0 0 59.01 6.086 Q 59.267 5.977 59.455 5.735 A 1.403 1.403 0 0 0 59.473 5.711 A 1.501 1.501 0 0 0 59.69 5.28 Q 59.758 5.073 59.79 4.818 A 3.91 3.91 0 0 0 59.818 4.333 Q 59.818 3.746 59.636 3.339 A 1.503 1.503 0 0 0 59.476 3.063 A 1.086 1.086 0 0 0 58.689 2.605 A 1.414 1.414 0 0 0 58.535 2.597 Q 57.875 2.597 57.51 3.121 A 1.623 1.623 0 0 0 57.428 3.252 Z M 108.993 5.449 L 108.993 3.278 A 1.439 1.439 0 0 0 108.692 2.891 Q 108.389 2.62 107.948 2.599 A 1.578 1.578 0 0 0 107.873 2.597 Q 107.281 2.597 106.947 3.056 A 1.51 1.51 0 0 0 106.736 3.484 Q 106.67 3.689 106.639 3.939 A 3.955 3.955 0 0 0 106.611 4.425 Q 106.611 5.229 106.941 5.689 Q 107.271 6.148 107.864 6.148 A 1.32 1.32 0 0 0 108.373 6.054 Q 108.765 5.891 108.993 5.449 Z M 2.25 3.757 L 0.844 3.757 L 0.844 6.06 L 2.237 6.06 A 1.84 1.84 0 0 0 2.612 6.024 Q 2.852 5.974 3.036 5.854 A 1.064 1.064 0 0 0 3.166 5.755 A 1.003 1.003 0 0 0 3.488 5.154 A 1.459 1.459 0 0 0 3.507 4.913 Q 3.507 4.007 2.734 3.811 A 1.977 1.977 0 0 0 2.251 3.757 Z M 34.26 3.757 L 32.854 3.757 L 32.854 6.06 L 34.247 6.06 A 1.84 1.84 0 0 0 34.622 6.024 Q 34.862 5.974 35.046 5.854 A 1.064 1.064 0 0 0 35.176 5.755 A 1.003 1.003 0 0 0 35.498 5.154 A 1.459 1.459 0 0 0 35.517 4.913 Q 35.517 4.007 34.744 3.811 A 1.977 1.977 0 0 0 34.26 3.757 Z M 89.06 1.639 L 87.166 4.601 L 89.156 4.601 L 89.156 1.463 L 89.06 1.639 Z M 0.844 1.046 L 0.844 3.081 L 2.118 3.081 Q 2.672 3.081 3.004 2.804 A 0.905 0.905 0 0 0 3.331 2.154 A 1.27 1.27 0 0 0 3.335 2.052 Q 3.335 1.696 3.195 1.471 A 0.71 0.71 0 0 0 3.028 1.285 A 0.969 0.969 0 0 0 2.742 1.136 Q 2.479 1.047 2.098 1.046 A 3.261 3.261 0 0 0 2.092 1.046 L 0.844 1.046 Z M 32.854 1.046 L 32.854 3.081 L 34.128 3.081 Q 34.682 3.081 35.013 2.804 A 0.905 0.905 0 0 0 35.341 2.154 A 1.27 1.27 0 0 0 35.345 2.052 Q 35.345 1.696 35.205 1.471 A 0.71 0.71 0 0 0 35.038 1.285 A 0.969 0.969 0 0 0 34.752 1.136 Q 34.489 1.047 34.107 1.046 A 3.261 3.261 0 0 0 34.102 1.046 L 32.854 1.046 Z M 94.812 5.005 A 1.375 1.375 0 0 0 94.753 4.592 A 1.109 1.109 0 0 0 94.471 4.131 A 1.148 1.148 0 0 0 93.8 3.807 A 1.593 1.593 0 0 0 93.582 3.792 A 1.466 1.466 0 0 0 93.193 3.841 A 1.086 1.086 0 0 0 92.7 4.126 A 1.123 1.123 0 0 0 92.387 4.762 A 1.572 1.572 0 0 0 92.369 5.005 A 1.48 1.48 0 0 0 92.41 5.367 A 1.019 1.019 0 0 0 92.692 5.862 Q 92.998 6.158 93.531 6.173 A 2.053 2.053 0 0 0 93.59 6.174 Q 94.084 6.174 94.394 5.94 A 1.018 1.018 0 0 0 94.487 5.86 A 1.041 1.041 0 0 0 94.786 5.292 A 1.518 1.518 0 0 0 94.812 5.005 Z M 93.59 0.932 A 1.259 1.259 0 0 0 93.238 0.979 A 0.973 0.973 0 0 0 92.815 1.228 Q 92.518 1.525 92.518 2.035 A 1.325 1.325 0 0 0 92.563 2.387 A 0.994 0.994 0 0 0 92.81 2.823 A 0.974 0.974 0 0 0 93.372 3.108 A 1.382 1.382 0 0 0 93.59 3.125 A 1.279 1.279 0 0 0 93.935 3.08 A 0.952 0.952 0 0 0 94.37 2.823 A 1.018 1.018 0 0 0 94.645 2.26 A 1.426 1.426 0 0 0 94.663 2.035 A 1.282 1.282 0 0 0 94.613 1.668 A 1.013 1.013 0 0 0 94.359 1.239 Q 94.056 0.932 93.59 0.932 Z M 8.284 5.418 L 8.284 4.443 L 7.646 4.443 Q 6.152 4.443 6.152 5.317 Q 6.152 5.7 6.407 5.915 A 0.893 0.893 0 0 0 6.821 6.108 A 1.259 1.259 0 0 0 7.062 6.13 A 1.429 1.429 0 0 0 7.787 5.933 A 1.335 1.335 0 0 0 8.083 5.705 A 1.108 1.108 0 0 0 8.284 5.418 Z M 40.293 5.418 L 40.293 4.443 L 39.656 4.443 Q 38.162 4.443 38.162 5.317 Q 38.162 5.7 38.417 5.915 A 0.893 0.893 0 0 0 38.83 6.108 A 1.259 1.259 0 0 0 39.072 6.13 A 1.429 1.429 0 0 0 39.797 5.933 A 1.335 1.335 0 0 0 40.092 5.705 A 1.108 1.108 0 0 0 40.293 5.418 Z M 72.224 5.418 L 72.224 4.443 L 71.587 4.443 Q 70.093 4.443 70.093 5.317 Q 70.093 5.7 70.348 5.915 A 0.893 0.893 0 0 0 70.761 6.108 A 1.259 1.259 0 0 0 71.002 6.13 A 1.429 1.429 0 0 0 71.728 5.933 A 1.335 1.335 0 0 0 72.023 5.705 A 1.108 1.108 0 0 0 72.224 5.418 Z M 103.808 0.734 Q 103.808 0.536 103.928 0.4 Q 104.04 0.274 104.252 0.264 A 0.783 0.783 0 0 1 104.287 0.264 Q 104.524 0.264 104.647 0.4 A 0.474 0.474 0 0 1 104.769 0.703 A 0.614 0.614 0 0 1 104.77 0.734 A 0.523 0.523 0 0 1 104.745 0.9 A 0.442 0.442 0 0 1 104.647 1.063 Q 104.534 1.184 104.326 1.194 A 0.803 0.803 0 0 1 104.287 1.195 Q 104.114 1.195 104.003 1.126 A 0.362 0.362 0 0 1 103.928 1.063 A 0.456 0.456 0 0 1 103.81 0.788 A 0.605 0.605 0 0 1 103.808 0.734 Z" vector-effect="non-scaling-stroke"/></g>
</svgversion="1.0" encoding="UTF-8"?>
<svg width="48px" height="48px" viewBox="0 0 48 48" version="1.1" xmlns="http://www.w3.org/2000/svg" xmlns:xlink="http://www.w3.org/1999/xlink">
    <title>Icon-Resource/Storage/Res_AWS-Backup_Backup-Vault_48_Light</title>
    <g id="Icon-Resource/Storage/Res_AWS-Backup_Backup-Vault_48" stroke="none" stroke-width="1" fill="none" fill-rule="evenodd">
        <path transform="translate(0vw, 0vh), scale(.65)" d="M10.298,22.955 L8.298,22.969 C8.333,27.982 10.654,32.573 14.668,35.564 C17.503,37.677 20.819,38.696 24.109,38.696 C28.942,38.696 33.717,36.496 36.82,32.332 C42.036,25.334 40.587,15.396 33.589,10.18 C26.813,5.13 17.297,6.345 11.963,12.775 L12,10.014 L10,9.987 L9.933,14.987 C9.929,15.252 10.031,15.508 10.216,15.698 C10.402,15.888 10.654,15.997 10.919,16 L15.986,16.068 L16.014,14.068 L13.513,14.035 C18.176,8.43 26.479,7.376 32.394,11.783 C38.507,16.341 39.774,25.023 35.217,31.137 C30.658,37.251 21.979,38.517 15.863,33.96 C12.357,31.347 10.328,27.335 10.298,22.955 L10.298,22.955 Z M24,19 C21.794,19 20,20.795 20,23 C20,25.206 21.794,27 24,27 C26.206,27 28,25.206 28,23 C28,20.795 26.206,19 24,19 L24,19 Z M16.946,28.78 L19.175,26.552 C18.441,25.556 18,24.33 18,23 C18,21.622 18.473,20.353 19.257,19.339 L16.947,17.191 L18.309,15.727 L20.729,17.977 C21.671,17.362 22.793,17 24,17 C25.342,17 26.577,17.448 27.577,18.195 L29.982,15.726 L31.414,17.121 L28.965,19.636 C29.617,20.597 30,21.754 30,23 C30,24.252 29.613,25.415 28.955,26.377 L31.414,28.756 L30.024,30.194 L27.565,27.815 C26.567,28.556 25.336,29 24,29 C22.742,29 21.574,28.61 20.61,27.946 L18.361,30.194 L16.946,28.78 Z M35,44 L39,44 L39,43 L35,43 L35,44 Z M9,44 L13,44 L13,43 L9,43 L9,44 Z M46,3 L46,42 C46,42.553 45.553,43 45,43 L41,43 L41,45 C41,45.553 40.553,46 40,46 L34,46 C33.447,46 33,45.553 33,45 L33,43 L15,43 L15,45 C15,45.553 14.553,46 14,46 L8,46 C7.447,46 7,45.553 7,45 L7,43 L3,43 C2.447,43 2,42.553 2,42 L2,33 L4,33 L4,41 L44,41 L44,4 L4,4 L4,11 L2,11 L2,3 C2,2.448 2.447,2 3,2 L45,2 C45.553,2 46,2.448 46,3 L46,3 Z M2,27 L4,27 L4,17 L2,17 L2,27 Z" id="Fill-1" fill="#000000"></path>
    </g><g transform="translate(33vw, 80vh)" id="svgGroup" stroke-linecap="round" fill-rule="evenodd" font-size="9pt" stroke="#000" stroke-width="0.25mm" fill="#000" style="stroke:#000;stroke-width:0.25mm;fill:#000"><path d="M 23.12 0.088 L 24.13 4.469 L 24.253 5.313 L 24.434 4.553 L 25.699 0.088 L 26.411 0.088 L 27.646 4.553 L 27.822 5.326 L 27.958 4.465 L 28.951 0.088 L 29.799 0.088 L 28.248 6.486 L 27.479 6.486 L 26.161 1.824 L 26.06 1.336 L 25.958 1.824 L 24.592 6.486 L 23.823 6.486 L 22.276 0.088 L 23.12 0.088 Z M 34.98 1.938 L 34.132 1.938 A 1.466 1.466 0 0 0 34.083 1.546 A 1.066 1.066 0 0 0 33.763 1.026 A 1.211 1.211 0 0 0 33.294 0.77 Q 33.042 0.694 32.722 0.694 A 2.286 2.286 0 0 0 32.342 0.724 Q 32.14 0.758 31.977 0.831 A 1.101 1.101 0 0 0 31.748 0.969 A 0.892 0.892 0 0 0 31.403 1.624 A 1.267 1.267 0 0 0 31.399 1.732 A 0.806 0.806 0 0 0 31.667 2.337 A 1.134 1.134 0 0 0 31.731 2.393 A 1.562 1.562 0 0 0 31.969 2.549 Q 32.299 2.73 32.86 2.887 A 8.228 8.228 0 0 1 33.325 3.032 Q 33.56 3.113 33.754 3.2 A 3.297 3.297 0 0 1 34.108 3.382 A 2.342 2.342 0 0 1 34.447 3.626 Q 34.637 3.792 34.759 3.985 A 1.45 1.45 0 0 1 34.776 4.012 A 1.498 1.498 0 0 1 34.972 4.568 A 1.948 1.948 0 0 1 34.994 4.86 A 1.606 1.606 0 0 1 34.871 5.497 Q 34.726 5.838 34.408 6.09 A 1.886 1.886 0 0 1 34.387 6.106 Q 33.781 6.574 32.766 6.574 A 3.023 3.023 0 0 1 31.625 6.36 A 2.917 2.917 0 0 1 31.535 6.322 A 2.383 2.383 0 0 1 31.057 6.044 A 1.874 1.874 0 0 1 30.654 5.629 A 1.689 1.689 0 0 1 30.344 4.632 L 31.192 4.632 A 1.261 1.261 0 0 0 31.262 5.059 A 1.074 1.074 0 0 0 31.621 5.548 Q 32.005 5.85 32.622 5.881 A 2.87 2.87 0 0 0 32.766 5.884 A 2.628 2.628 0 0 0 33.153 5.858 Q 33.349 5.828 33.508 5.767 A 1.129 1.129 0 0 0 33.79 5.612 Q 34.146 5.339 34.146 4.869 A 1.074 1.074 0 0 0 34.103 4.559 A 0.816 0.816 0 0 0 33.816 4.142 Q 33.486 3.885 32.621 3.634 Q 31.535 3.322 31.041 2.868 Q 30.546 2.413 30.546 1.745 Q 30.546 0.989 31.151 0.494 A 2.121 2.121 0 0 1 32.041 0.071 A 3.087 3.087 0 0 1 32.722 0 A 2.913 2.913 0 0 1 33.382 0.072 A 2.372 2.372 0 0 1 33.897 0.255 A 2.051 2.051 0 0 1 34.428 0.626 A 1.834 1.834 0 0 1 34.697 0.958 A 1.798 1.798 0 0 1 34.98 1.938 Z M 3.74 6.486 L 2.351 3.898 L 0.848 3.898 L 0.848 6.486 L 0 6.486 L 0 0.088 L 2.118 0.088 A 3.809 3.809 0 0 1 2.76 0.138 Q 3.102 0.197 3.376 0.324 A 1.789 1.789 0 0 1 3.781 0.58 A 1.588 1.588 0 0 1 4.307 1.469 A 2.453 2.453 0 0 1 4.364 2.013 A 1.864 1.864 0 0 1 4.273 2.604 A 1.64 1.64 0 0 1 4.041 3.054 A 1.849 1.849 0 0 1 3.382 3.611 A 2.342 2.342 0 0 1 3.142 3.718 L 4.645 6.434 L 4.645 6.486 L 3.74 6.486 Z M 13.724 3.129 L 12.907 3.129 Q 12.907 2.795 12.623 2.553 Q 12.34 2.312 11.909 2.312 Q 11.465 2.312 11.215 2.505 A 0.653 0.653 0 0 0 11.04 2.704 Q 10.967 2.835 10.964 3 A 0.771 0.771 0 0 0 10.964 3.01 A 0.588 0.588 0 0 0 10.994 3.203 A 0.48 0.48 0 0 0 11.197 3.454 A 1.093 1.093 0 0 0 11.348 3.533 Q 11.512 3.605 11.767 3.673 A 6.581 6.581 0 0 0 12.039 3.74 A 6.318 6.318 0 0 1 12.446 3.845 Q 12.783 3.944 13.025 4.065 A 1.901 1.901 0 0 1 13.281 4.218 Q 13.418 4.315 13.516 4.429 A 1.06 1.06 0 0 1 13.586 4.52 A 1.024 1.024 0 0 1 13.748 4.927 A 1.388 1.388 0 0 1 13.768 5.168 Q 13.768 5.805 13.258 6.19 Q 12.776 6.554 12.022 6.573 A 3.337 3.337 0 0 1 11.936 6.574 A 2.746 2.746 0 0 1 11.401 6.525 A 2.124 2.124 0 0 1 10.925 6.372 A 1.771 1.771 0 0 1 10.491 6.094 A 1.54 1.54 0 0 1 10.237 5.807 Q 9.989 5.445 9.989 5.023 L 10.802 5.023 A 0.932 0.932 0 0 0 10.875 5.348 A 0.827 0.827 0 0 0 11.129 5.671 A 1.072 1.072 0 0 0 11.531 5.864 Q 11.686 5.903 11.867 5.91 A 2.013 2.013 0 0 0 11.936 5.911 A 1.863 1.863 0 0 0 12.231 5.889 Q 12.393 5.863 12.524 5.806 A 0.941 0.941 0 0 0 12.676 5.724 A 0.689 0.689 0 0 0 12.841 5.574 A 0.554 0.554 0 0 0 12.955 5.225 A 0.698 0.698 0 0 0 12.919 4.994 A 0.581 0.581 0 0 0 12.707 4.713 A 1.05 1.05 0 0 0 12.538 4.615 Q 12.349 4.524 12.054 4.449 A 5.392 5.392 0 0 0 11.841 4.399 A 6.342 6.342 0 0 1 11.48 4.311 Q 11.11 4.209 10.861 4.083 Q 10.562 3.93 10.392 3.731 A 1.017 1.017 0 0 1 10.325 3.643 Q 10.151 3.388 10.151 3.037 A 1.206 1.206 0 0 1 10.55 2.132 A 1.694 1.694 0 0 1 10.646 2.048 A 1.752 1.752 0 0 1 11.429 1.688 A 2.471 2.471 0 0 1 11.909 1.644 A 2.559 2.559 0 0 1 12.473 1.702 A 1.757 1.757 0 0 1 13.221 2.061 Q 13.724 2.479 13.724 3.129 Z M 21.327 6.486 L 20.716 4.816 L 18.035 4.816 L 17.433 6.486 L 16.563 6.486 L 19.006 0.088 L 19.745 0.088 L 22.192 6.486 L 21.327 6.486 Z M 5.212 4.241 L 5.212 4.091 A 3.17 3.17 0 0 1 5.288 3.382 A 2.581 2.581 0 0 1 5.482 2.828 A 2.191 2.191 0 0 1 5.93 2.202 A 2.033 2.033 0 0 1 6.238 1.958 Q 6.724 1.644 7.291 1.644 A 2.254 2.254 0 0 1 7.904 1.723 A 1.639 1.639 0 0 1 8.732 2.254 Q 9.246 2.865 9.246 4.003 L 9.246 4.342 L 6.025 4.342 A 2.111 2.111 0 0 0 6.096 4.85 A 1.516 1.516 0 0 0 6.436 5.478 A 1.282 1.282 0 0 0 7.37 5.909 A 1.652 1.652 0 0 0 7.436 5.911 A 1.763 1.763 0 0 0 7.764 5.882 Q 7.988 5.839 8.165 5.735 A 1.827 1.827 0 0 0 8.674 5.287 A 2.068 2.068 0 0 0 8.688 5.269 L 9.185 5.656 A 1.926 1.926 0 0 1 7.785 6.547 A 2.749 2.749 0 0 1 7.392 6.574 A 2.394 2.394 0 0 1 6.64 6.461 A 1.974 1.974 0 0 1 5.818 5.939 Q 5.212 5.304 5.212 4.241 Z M 0.848 0.782 L 0.848 3.208 L 2.145 3.208 Q 2.685 3.208 3.035 2.968 A 1.174 1.174 0 0 0 3.144 2.883 A 1.069 1.069 0 0 0 3.51 2.146 A 1.486 1.486 0 0 0 3.516 2.013 Q 3.516 1.47 3.22 1.159 A 1 1 0 0 0 3.162 1.103 Q 2.808 0.787 2.14 0.782 L 0.848 0.782 Z M 19.375 1.129 L 18.29 4.122 L 20.465 4.122 L 19.375 1.129 Z M 6.051 3.674 L 8.433 3.674 L 8.433 3.612 Q 8.407 3.153 8.236 2.848 A 1.13 1.13 0 0 0 8.099 2.652 A 0.983 0.983 0 0 0 7.445 2.32 A 1.39 1.39 0 0 0 7.291 2.312 A 1.106 1.106 0 0 0 6.768 2.435 A 1.14 1.14 0 0 0 6.464 2.67 A 1.417 1.417 0 0 0 6.188 3.116 Q 6.114 3.3 6.074 3.522 A 2.741 2.741 0 0 0 6.051 3.674 Z" vector-effect="non-scaling-stroke"/></g><g transform="translate(12vw, 90vh)" id="svgGroup" stroke-linecap="round" fill-rule="evenodd" font-size="9pt" stroke="#000" stroke-width="0.25mm" fill="#000" style="stroke:#000;stroke-width:0.25mm;fill:#000"><path d="M 111.85 0 L 111.85 2.571 A 1.767 1.767 0 0 1 112.516 2.053 A 1.832 1.832 0 0 1 113.256 1.907 A 1.905 1.905 0 0 1 113.889 2.004 Q 114.731 2.3 114.774 3.506 A 3.668 3.668 0 0 1 114.776 3.608 L 114.776 6.75 L 113.963 6.75 L 113.963 3.604 A 1.837 1.837 0 0 0 113.941 3.324 Q 113.891 3.017 113.728 2.843 Q 113.542 2.645 113.189 2.606 A 1.66 1.66 0 0 0 113.01 2.597 A 1.253 1.253 0 0 0 112.595 2.664 A 1.123 1.123 0 0 0 112.315 2.808 A 1.432 1.432 0 0 0 111.85 3.362 L 111.85 6.75 L 111.037 6.75 L 111.037 0 L 111.85 0 Z M 18.066 6.75 L 16.409 4.548 L 15.899 5.08 L 15.899 6.75 L 15.086 6.75 L 15.086 0 L 15.899 0 L 15.899 4.083 L 16.334 3.56 L 17.815 1.995 L 18.804 1.995 L 16.954 3.981 L 19.02 6.75 L 18.066 6.75 Z M 50.076 6.75 L 48.419 4.548 L 47.909 5.08 L 47.909 6.75 L 47.096 6.75 L 47.096 0 L 47.909 0 L 47.909 4.083 L 48.344 3.56 L 49.825 1.995 L 50.814 1.995 L 48.964 3.981 L 51.029 6.75 L 50.076 6.75 Z M 64.318 0.352 L 66.138 5.629 L 67.966 0.352 L 68.889 0.352 L 66.516 6.75 L 65.769 6.75 L 63.4 0.352 L 64.318 0.352 Z M 109.028 2.522 L 109.068 1.995 L 109.811 1.995 L 109.811 6.636 A 2.511 2.511 0 0 1 109.74 7.249 A 1.738 1.738 0 0 1 109.263 8.09 A 1.834 1.834 0 0 1 108.334 8.57 A 2.671 2.671 0 0 1 107.793 8.622 A 2.446 2.446 0 0 1 106.787 8.402 A 2.003 2.003 0 0 1 106.377 8.161 A 1.563 1.563 0 0 1 106.036 7.8 L 106.458 7.313 A 1.889 1.889 0 0 0 106.892 7.712 A 1.514 1.514 0 0 0 107.736 7.958 A 1.695 1.695 0 0 0 108.113 7.919 Q 108.382 7.858 108.576 7.702 A 1.037 1.037 0 0 0 108.661 7.625 A 1.09 1.09 0 0 0 108.938 7.132 Q 108.985 6.959 108.992 6.752 A 2.134 2.134 0 0 0 108.993 6.684 L 108.993 6.275 A 1.601 1.601 0 0 1 107.941 6.821 A 2.279 2.279 0 0 1 107.662 6.838 A 1.672 1.672 0 0 1 106.906 6.67 Q 106.584 6.51 106.335 6.197 A 2.14 2.14 0 0 1 106.31 6.166 A 2.316 2.316 0 0 1 105.927 5.386 Q 105.794 4.922 105.794 4.333 Q 105.794 3.472 106.102 2.884 A 2.096 2.096 0 0 1 106.308 2.564 Q 106.822 1.907 107.67 1.907 A 1.971 1.971 0 0 1 108.269 1.994 A 1.55 1.55 0 0 1 109.028 2.522 Z M 22.597 6.75 L 22.579 6.28 A 1.526 1.526 0 0 1 21.753 6.775 Q 21.503 6.836 21.205 6.838 A 2.996 2.996 0 0 1 21.186 6.838 A 2.086 2.086 0 0 1 20.726 6.79 Q 20.295 6.693 20.028 6.396 A 1.41 1.41 0 0 1 19.745 5.899 Q 19.628 5.556 19.626 5.089 L 19.626 1.995 L 20.439 1.995 L 20.439 5.067 Q 20.439 6.037 21.147 6.137 A 1.229 1.229 0 0 0 21.318 6.148 A 1.927 1.927 0 0 0 21.769 6.099 Q 22.331 5.964 22.557 5.454 L 22.557 1.995 L 23.37 1.995 L 23.37 6.75 L 22.597 6.75 Z M 54.606 6.75 L 54.589 6.28 A 1.526 1.526 0 0 1 53.763 6.775 Q 53.512 6.836 53.215 6.838 A 2.996 2.996 0 0 1 53.196 6.838 A 2.086 2.086 0 0 1 52.736 6.79 Q 52.305 6.693 52.038 6.396 A 1.41 1.41 0 0 1 51.755 5.899 Q 51.638 5.556 51.636 5.089 L 51.636 1.995 L 52.449 1.995 L 52.449 5.067 Q 52.449 6.037 53.156 6.137 A 1.229 1.229 0 0 0 53.328 6.148 A 1.927 1.927 0 0 0 53.779 6.099 Q 54.341 5.964 54.567 5.454 L 54.567 1.995 L 55.38 1.995 L 55.38 6.75 L 54.606 6.75 Z M 77.265 6.75 L 77.247 6.28 A 1.526 1.526 0 0 1 76.421 6.775 Q 76.171 6.836 75.873 6.838 A 2.996 2.996 0 0 1 75.854 6.838 A 2.086 2.086 0 0 1 75.394 6.79 Q 74.963 6.693 74.696 6.396 A 1.41 1.41 0 0 1 74.413 5.899 Q 74.296 5.556 74.294 5.089 L 74.294 1.995 L 75.107 1.995 L 75.107 5.067 Q 75.107 6.037 75.815 6.137 A 1.229 1.229 0 0 0 75.986 6.148 A 1.927 1.927 0 0 0 76.437 6.099 Q 76.999 5.964 77.225 5.454 L 77.225 1.995 L 78.038 1.995 L 78.038 6.75 L 77.265 6.75 Z M 13.399 5.251 L 14.168 5.251 A 1.432 1.432 0 0 1 13.969 5.901 A 1.772 1.772 0 0 1 13.887 6.029 A 1.828 1.828 0 0 1 13.277 6.574 A 2.169 2.169 0 0 1 13.195 6.618 A 1.997 1.997 0 0 1 12.278 6.838 A 2.346 2.346 0 0 1 11.581 6.739 A 1.839 1.839 0 0 1 10.734 6.19 A 2.171 2.171 0 0 1 10.27 5.31 Q 10.16 4.909 10.16 4.417 L 10.16 4.28 A 3.24 3.24 0 0 1 10.224 3.624 A 2.57 2.57 0 0 1 10.415 3.045 A 2.008 2.008 0 0 1 10.855 2.431 A 1.892 1.892 0 0 1 11.147 2.206 A 1.943 1.943 0 0 1 11.903 1.934 A 2.529 2.529 0 0 1 12.274 1.907 A 2.196 2.196 0 0 1 12.922 1.999 A 1.786 1.786 0 0 1 13.603 2.386 A 1.693 1.693 0 0 1 14.162 3.535 A 2.239 2.239 0 0 1 14.168 3.63 L 13.399 3.63 Q 13.364 3.168 13.05 2.872 A 1.078 1.078 0 0 0 12.32 2.576 A 1.402 1.402 0 0 0 12.274 2.575 A 1.374 1.374 0 0 0 11.852 2.637 A 1.081 1.081 0 0 0 11.314 3.021 A 1.469 1.469 0 0 0 11.087 3.468 Q 11.021 3.674 10.993 3.923 A 3.514 3.514 0 0 0 10.973 4.311 L 10.973 4.465 Q 10.973 5.287 11.312 5.73 A 1.1 1.1 0 0 0 12.098 6.165 A 1.611 1.611 0 0 0 12.278 6.174 A 1.171 1.171 0 0 0 13.039 5.911 A 1.007 1.007 0 0 0 13.283 5.629 A 0.914 0.914 0 0 0 13.399 5.251 Z M 45.409 5.251 L 46.178 5.251 A 1.432 1.432 0 0 1 45.979 5.901 A 1.772 1.772 0 0 1 45.896 6.029 A 1.828 1.828 0 0 1 45.287 6.574 A 2.169 2.169 0 0 1 45.204 6.618 A 1.997 1.997 0 0 1 44.288 6.838 A 2.346 2.346 0 0 1 43.591 6.739 A 1.839 1.839 0 0 1 42.743 6.19 A 2.171 2.171 0 0 1 42.28 5.31 Q 42.17 4.909 42.17 4.417 L 42.17 4.28 A 3.24 3.24 0 0 1 42.234 3.624 A 2.57 2.57 0 0 1 42.425 3.045 A 2.008 2.008 0 0 1 42.864 2.431 A 1.892 1.892 0 0 1 43.156 2.206 A 1.943 1.943 0 0 1 43.913 1.934 A 2.529 2.529 0 0 1 44.284 1.907 A 2.196 2.196 0 0 1 44.932 1.999 A 1.786 1.786 0 0 1 45.613 2.386 A 1.693 1.693 0 0 1 46.171 3.535 A 2.239 2.239 0 0 1 46.178 3.63 L 45.409 3.63 Q 45.374 3.168 45.059 2.872 A 1.078 1.078 0 0 0 44.33 2.576 A 1.402 1.402 0 0 0 44.284 2.575 A 1.374 1.374 0 0 0 43.862 2.637 A 1.081 1.081 0 0 0 43.323 3.021 A 1.469 1.469 0 0 0 43.097 3.468 Q 43.031 3.674 43.003 3.923 A 3.514 3.514 0 0 0 42.983 4.311 L 42.983 4.465 Q 42.983 5.287 43.321 5.73 A 1.1 1.1 0 0 0 44.108 6.165 A 1.611 1.611 0 0 0 44.288 6.174 A 1.171 1.171 0 0 0 45.048 5.911 A 1.007 1.007 0 0 0 45.292 5.629 A 0.914 0.914 0 0 0 45.409 5.251 Z M 9.264 6.75 L 8.411 6.75 A 0.632 0.632 0 0 1 8.376 6.66 Q 8.344 6.562 8.32 6.41 A 3.997 3.997 0 0 1 8.297 6.249 Q 7.73 6.838 6.943 6.838 A 2.033 2.033 0 0 1 6.414 6.772 A 1.529 1.529 0 0 1 5.79 6.44 Q 5.339 6.042 5.339 5.432 Q 5.339 4.689 5.904 4.278 Q 6.469 3.867 7.493 3.867 L 8.284 3.867 L 8.284 3.494 A 1.152 1.152 0 0 0 8.248 3.199 A 0.828 0.828 0 0 0 8.029 2.815 Q 7.813 2.6 7.422 2.568 A 1.748 1.748 0 0 0 7.277 2.562 Q 6.842 2.562 6.548 2.782 Q 6.253 3.001 6.253 3.313 L 5.436 3.313 A 1.041 1.041 0 0 1 5.561 2.825 A 1.409 1.409 0 0 1 5.689 2.626 Q 5.941 2.294 6.374 2.101 A 2.249 2.249 0 0 1 7.15 1.913 A 2.669 2.669 0 0 1 7.326 1.907 A 2.65 2.65 0 0 1 7.843 1.955 Q 8.15 2.016 8.389 2.156 A 1.439 1.439 0 0 1 8.613 2.318 A 1.396 1.396 0 0 1 9.067 3.144 A 1.998 1.998 0 0 1 9.097 3.45 L 9.097 5.638 Q 9.097 6.073 9.17 6.39 A 1.707 1.707 0 0 0 9.264 6.68 L 9.264 6.75 Z M 41.273 6.75 L 40.421 6.75 A 0.632 0.632 0 0 1 40.385 6.66 Q 40.354 6.562 40.329 6.41 A 3.997 3.997 0 0 1 40.307 6.249 Q 39.74 6.838 38.953 6.838 A 2.033 2.033 0 0 1 38.424 6.772 A 1.529 1.529 0 0 1 37.8 6.44 Q 37.349 6.042 37.349 5.432 Q 37.349 4.689 37.914 4.278 Q 38.479 3.867 39.502 3.867 L 40.293 3.867 L 40.293 3.494 A 1.152 1.152 0 0 0 40.258 3.199 A 0.828 0.828 0 0 0 40.039 2.815 Q 39.822 2.6 39.432 2.568 A 1.748 1.748 0 0 0 39.287 2.562 Q 38.852 2.562 38.558 2.782 Q 38.263 3.001 38.263 3.313 L 37.446 3.313 A 1.041 1.041 0 0 1 37.571 2.825 A 1.409 1.409 0 0 1 37.698 2.626 Q 37.951 2.294 38.384 2.101 A 2.249 2.249 0 0 1 39.16 1.913 A 2.669 2.669 0 0 1 39.335 1.907 A 2.65 2.65 0 0 1 39.853 1.955 Q 40.16 2.016 40.399 2.156 A 1.439 1.439 0 0 1 40.623 2.318 A 1.396 1.396 0 0 1 41.076 3.144 A 1.998 1.998 0 0 1 41.106 3.45 L 41.106 5.638 Q 41.106 6.073 41.18 6.39 A 1.707 1.707 0 0 0 41.273 6.68 L 41.273 6.75 Z M 73.204 6.75 L 72.352 6.75 A 0.632 0.632 0 0 1 72.316 6.66 Q 72.285 6.562 72.26 6.41 A 3.997 3.997 0 0 1 72.237 6.249 Q 71.67 6.838 70.884 6.838 A 2.033 2.033 0 0 1 70.354 6.772 A 1.529 1.529 0 0 1 69.73 6.44 Q 69.28 6.042 69.28 5.432 Q 69.28 4.689 69.844 4.278 Q 70.409 3.867 71.433 3.867 L 72.224 3.867 L 72.224 3.494 A 1.152 1.152 0 0 0 72.188 3.199 A 0.828 0.828 0 0 0 71.969 2.815 Q 71.753 2.6 71.363 2.568 A 1.748 1.748 0 0 0 71.218 2.562 Q 70.783 2.562 70.488 2.782 Q 70.194 3.001 70.194 3.313 L 69.376 3.313 A 1.041 1.041 0 0 1 69.501 2.825 A 1.409 1.409 0 0 1 69.629 2.626 Q 69.882 2.294 70.315 2.101 A 2.249 2.249 0 0 1 71.09 1.913 A 2.669 2.669 0 0 1 71.266 1.907 A 2.65 2.65 0 0 1 71.784 1.955 Q 72.091 2.016 72.33 2.156 A 1.439 1.439 0 0 1 72.554 2.318 A 1.396 1.396 0 0 1 73.007 3.144 A 1.998 1.998 0 0 1 73.037 3.45 L 73.037 5.638 Q 73.037 6.073 73.111 6.39 A 1.707 1.707 0 0 0 73.204 6.68 L 73.204 6.75 Z M 28.622 4.351 L 28.622 4.425 Q 28.622 5.511 28.125 6.174 A 1.57 1.57 0 0 1 26.987 6.828 A 2.013 2.013 0 0 1 26.78 6.838 A 2.196 2.196 0 0 1 26.194 6.764 A 1.598 1.598 0 0 1 25.418 6.289 L 25.418 8.578 L 24.605 8.578 L 24.605 1.995 L 25.348 1.995 L 25.387 2.522 A 1.619 1.619 0 0 1 26.526 1.919 A 2.319 2.319 0 0 1 26.767 1.907 A 1.829 1.829 0 0 1 27.404 2.014 A 1.597 1.597 0 0 1 28.123 2.553 Q 28.622 3.199 28.622 4.351 Z M 60.631 4.351 L 60.631 4.425 Q 60.631 5.511 60.135 6.174 A 1.57 1.57 0 0 1 58.997 6.828 A 2.013 2.013 0 0 1 58.79 6.838 A 2.196 2.196 0 0 1 58.204 6.764 A 1.598 1.598 0 0 1 57.428 6.289 L 57.428 8.578 L 56.615 8.578 L 56.615 1.995 L 57.357 1.995 L 57.397 2.522 A 1.619 1.619 0 0 1 58.536 1.919 A 2.319 2.319 0 0 1 58.777 1.907 A 1.829 1.829 0 0 1 59.414 2.014 A 1.597 1.597 0 0 1 60.133 2.553 Q 60.631 3.199 60.631 4.351 Z M 2.219 6.75 L 0 6.75 L 0 0.352 L 2.092 0.352 A 4.031 4.031 0 0 1 2.665 0.39 Q 2.957 0.432 3.194 0.521 A 1.629 1.629 0 0 1 3.658 0.782 A 1.383 1.383 0 0 1 4.13 1.558 A 2.164 2.164 0 0 1 4.184 2.057 A 1.3 1.3 0 0 1 3.929 2.85 A 1.589 1.589 0 0 1 3.418 3.294 A 1.972 1.972 0 0 1 3.234 3.384 A 1.571 1.571 0 0 1 3.749 3.63 A 1.446 1.446 0 0 1 4.054 3.935 A 1.531 1.531 0 0 1 4.346 4.713 A 1.961 1.961 0 0 1 4.355 4.904 A 2.139 2.139 0 0 1 4.28 5.487 A 1.577 1.577 0 0 1 3.797 6.258 A 1.832 1.832 0 0 1 3.105 6.633 Q 2.838 6.713 2.52 6.739 A 3.81 3.81 0 0 1 2.219 6.75 Z M 34.229 6.75 L 32.01 6.75 L 32.01 0.352 L 34.102 0.352 A 4.031 4.031 0 0 1 34.674 0.39 Q 34.967 0.432 35.204 0.521 A 1.629 1.629 0 0 1 35.668 0.782 A 1.383 1.383 0 0 1 36.139 1.558 A 2.164 2.164 0 0 1 36.193 2.057 A 1.3 1.3 0 0 1 35.938 2.85 A 1.589 1.589 0 0 1 35.428 3.294 A 1.972 1.972 0 0 1 35.244 3.384 A 1.571 1.571 0 0 1 35.759 3.63 A 1.446 1.446 0 0 1 36.064 3.935 A 1.531 1.531 0 0 1 36.356 4.713 A 1.961 1.961 0 0 1 36.365 4.904 A 2.139 2.139 0 0 1 36.289 5.487 A 1.577 1.577 0 0 1 35.807 6.258 A 1.832 1.832 0 0 1 35.115 6.633 Q 34.848 6.713 34.529 6.739 A 3.81 3.81 0 0 1 34.229 6.75 Z M 99.936 0.352 L 99.936 6.06 L 102.968 6.06 L 102.968 6.75 L 99.088 6.75 L 99.088 0.352 L 99.936 0.352 Z M 89.974 0.352 L 89.974 4.601 L 90.861 4.601 L 90.861 5.265 L 89.974 5.265 L 89.974 6.75 L 89.156 6.75 L 89.156 5.265 L 86.243 5.265 L 86.243 4.786 L 89.108 0.352 L 89.974 0.352 Z M 95.372 2.592 A 1.544 1.544 0 0 0 95.476 2.021 A 2.226 2.226 0 0 0 95.454 1.707 A 1.566 1.566 0 0 0 94.955 0.738 A 1.754 1.754 0 0 0 94.189 0.333 A 2.443 2.443 0 0 0 93.59 0.264 A 2.539 2.539 0 0 0 93.081 0.312 A 1.767 1.767 0 0 0 92.224 0.738 Q 91.705 1.213 91.705 2.021 A 1.808 1.808 0 0 0 91.705 2.058 A 1.499 1.499 0 0 0 91.951 2.87 A 1.626 1.626 0 0 0 92.113 3.077 A 1.726 1.726 0 0 0 92.624 3.454 A 2.119 2.119 0 0 0 92.524 3.5 A 1.738 1.738 0 0 0 91.839 4.087 A 1.629 1.629 0 0 0 91.556 5.023 A 2.272 2.272 0 0 0 91.565 5.237 A 1.63 1.63 0 0 0 92.112 6.344 A 1.895 1.895 0 0 0 92.962 6.771 A 2.797 2.797 0 0 0 93.59 6.838 A 2.796 2.796 0 0 0 94.189 6.777 A 1.925 1.925 0 0 0 95.065 6.346 A 1.578 1.578 0 0 0 95.54 5.62 A 1.989 1.989 0 0 0 95.625 5.023 A 1.581 1.581 0 0 0 95.333 4.087 Q 95.041 3.674 94.54 3.458 Q 94.97 3.248 95.223 2.874 A 1.449 1.449 0 0 0 95.372 2.592 Z M 81.747 0.844 L 82.56 0.844 L 82.56 1.995 L 83.448 1.995 L 83.448 2.624 L 82.56 2.624 L 82.56 5.572 Q 82.56 5.858 82.679 6.001 Q 82.797 6.144 83.083 6.144 A 1.046 1.046 0 0 0 83.181 6.138 Q 83.283 6.129 83.423 6.101 A 4.024 4.024 0 0 0 83.47 6.091 L 83.47 6.75 A 2.463 2.463 0 0 1 83.037 6.829 A 2.157 2.157 0 0 1 82.846 6.838 Q 82.399 6.838 82.132 6.616 A 0.856 0.856 0 0 1 82.024 6.508 Q 81.797 6.238 81.756 5.78 A 2.351 2.351 0 0 1 81.747 5.572 L 81.747 2.624 L 80.881 2.624 L 80.881 1.995 L 81.747 1.995 L 81.747 0.844 Z M 116.284 0.844 L 117.097 0.844 L 117.097 1.995 L 117.984 1.995 L 117.984 2.624 L 117.097 2.624 L 117.097 5.572 Q 117.097 5.858 117.215 6.001 Q 117.334 6.144 117.62 6.144 A 1.046 1.046 0 0 0 117.717 6.138 Q 117.82 6.129 117.96 6.101 A 4.024 4.024 0 0 0 118.006 6.091 L 118.006 6.75 A 2.463 2.463 0 0 1 117.574 6.829 A 2.157 2.157 0 0 1 117.382 6.838 Q 116.935 6.838 116.669 6.616 A 0.856 0.856 0 0 1 116.561 6.508 Q 116.333 6.238 116.293 5.78 A 2.351 2.351 0 0 1 116.284 5.572 L 116.284 2.624 L 115.418 2.624 L 115.418 1.995 L 116.284 1.995 L 116.284 0.844 Z M 80.156 0 L 80.156 6.75 L 79.343 6.75 L 79.343 0 L 80.156 0 Z M 104.687 1.995 L 104.687 6.75 L 103.874 6.75 L 103.874 1.995 L 104.687 1.995 Z M 25.418 3.252 L 25.418 5.524 Q 25.783 6.174 26.534 6.174 A 1.184 1.184 0 0 0 27 6.086 Q 27.257 5.977 27.445 5.735 A 1.403 1.403 0 0 0 27.464 5.711 A 1.501 1.501 0 0 0 27.68 5.28 Q 27.749 5.073 27.78 4.818 A 3.91 3.91 0 0 0 27.809 4.333 Q 27.809 3.746 27.626 3.339 A 1.503 1.503 0 0 0 27.466 3.063 A 1.086 1.086 0 0 0 26.68 2.605 A 1.414 1.414 0 0 0 26.525 2.597 Q 25.865 2.597 25.5 3.121 A 1.623 1.623 0 0 0 25.418 3.252 Z M 57.428 3.252 L 57.428 5.524 Q 57.792 6.174 58.544 6.174 A 1.184 1.184 0 0 0 59.01 6.086 Q 59.267 5.977 59.455 5.735 A 1.403 1.403 0 0 0 59.473 5.711 A 1.501 1.501 0 0 0 59.69 5.28 Q 59.758 5.073 59.79 4.818 A 3.91 3.91 0 0 0 59.818 4.333 Q 59.818 3.746 59.636 3.339 A 1.503 1.503 0 0 0 59.476 3.063 A 1.086 1.086 0 0 0 58.689 2.605 A 1.414 1.414 0 0 0 58.535 2.597 Q 57.875 2.597 57.51 3.121 A 1.623 1.623 0 0 0 57.428 3.252 Z M 108.993 5.449 L 108.993 3.278 A 1.439 1.439 0 0 0 108.692 2.891 Q 108.389 2.62 107.948 2.599 A 1.578 1.578 0 0 0 107.873 2.597 Q 107.281 2.597 106.947 3.056 A 1.51 1.51 0 0 0 106.736 3.484 Q 106.67 3.689 106.639 3.939 A 3.955 3.955 0 0 0 106.611 4.425 Q 106.611 5.229 106.941 5.689 Q 107.271 6.148 107.864 6.148 A 1.32 1.32 0 0 0 108.373 6.054 Q 108.765 5.891 108.993 5.449 Z M 2.25 3.757 L 0.844 3.757 L 0.844 6.06 L 2.237 6.06 A 1.84 1.84 0 0 0 2.612 6.024 Q 2.852 5.974 3.036 5.854 A 1.064 1.064 0 0 0 3.166 5.755 A 1.003 1.003 0 0 0 3.488 5.154 A 1.459 1.459 0 0 0 3.507 4.913 Q 3.507 4.007 2.734 3.811 A 1.977 1.977 0 0 0 2.251 3.757 Z M 34.26 3.757 L 32.854 3.757 L 32.854 6.06 L 34.247 6.06 A 1.84 1.84 0 0 0 34.622 6.024 Q 34.862 5.974 35.046 5.854 A 1.064 1.064 0 0 0 35.176 5.755 A 1.003 1.003 0 0 0 35.498 5.154 A 1.459 1.459 0 0 0 35.517 4.913 Q 35.517 4.007 34.744 3.811 A 1.977 1.977 0 0 0 34.26 3.757 Z M 89.06 1.639 L 87.166 4.601 L 89.156 4.601 L 89.156 1.463 L 89.06 1.639 Z M 0.844 1.046 L 0.844 3.081 L 2.118 3.081 Q 2.672 3.081 3.004 2.804 A 0.905 0.905 0 0 0 3.331 2.154 A 1.27 1.27 0 0 0 3.335 2.052 Q 3.335 1.696 3.195 1.471 A 0.71 0.71 0 0 0 3.028 1.285 A 0.969 0.969 0 0 0 2.742 1.136 Q 2.479 1.047 2.098 1.046 A 3.261 3.261 0 0 0 2.092 1.046 L 0.844 1.046 Z M 32.854 1.046 L 32.854 3.081 L 34.128 3.081 Q 34.682 3.081 35.013 2.804 A 0.905 0.905 0 0 0 35.341 2.154 A 1.27 1.27 0 0 0 35.345 2.052 Q 35.345 1.696 35.205 1.471 A 0.71 0.71 0 0 0 35.038 1.285 A 0.969 0.969 0 0 0 34.752 1.136 Q 34.489 1.047 34.107 1.046 A 3.261 3.261 0 0 0 34.102 1.046 L 32.854 1.046 Z M 94.812 5.005 A 1.375 1.375 0 0 0 94.753 4.592 A 1.109 1.109 0 0 0 94.471 4.131 A 1.148 1.148 0 0 0 93.8 3.807 A 1.593 1.593 0 0 0 93.582 3.792 A 1.466 1.466 0 0 0 93.193 3.841 A 1.086 1.086 0 0 0 92.7 4.126 A 1.123 1.123 0 0 0 92.387 4.762 A 1.572 1.572 0 0 0 92.369 5.005 A 1.48 1.48 0 0 0 92.41 5.367 A 1.019 1.019 0 0 0 92.692 5.862 Q 92.998 6.158 93.531 6.173 A 2.053 2.053 0 0 0 93.59 6.174 Q 94.084 6.174 94.394 5.94 A 1.018 1.018 0 0 0 94.487 5.86 A 1.041 1.041 0 0 0 94.786 5.292 A 1.518 1.518 0 0 0 94.812 5.005 Z M 93.59 0.932 A 1.259 1.259 0 0 0 93.238 0.979 A 0.973 0.973 0 0 0 92.815 1.228 Q 92.518 1.525 92.518 2.035 A 1.325 1.325 0 0 0 92.563 2.387 A 0.994 0.994 0 0 0 92.81 2.823 A 0.974 0.974 0 0 0 93.372 3.108 A 1.382 1.382 0 0 0 93.59 3.125 A 1.279 1.279 0 0 0 93.935 3.08 A 0.952 0.952 0 0 0 94.37 2.823 A 1.018 1.018 0 0 0 94.645 2.26 A 1.426 1.426 0 0 0 94.663 2.035 A 1.282 1.282 0 0 0 94.613 1.668 A 1.013 1.013 0 0 0 94.359 1.239 Q 94.056 0.932 93.59 0.932 Z M 8.284 5.418 L 8.284 4.443 L 7.646 4.443 Q 6.152 4.443 6.152 5.317 Q 6.152 5.7 6.407 5.915 A 0.893 0.893 0 0 0 6.821 6.108 A 1.259 1.259 0 0 0 7.062 6.13 A 1.429 1.429 0 0 0 7.787 5.933 A 1.335 1.335 0 0 0 8.083 5.705 A 1.108 1.108 0 0 0 8.284 5.418 Z M 40.293 5.418 L 40.293 4.443 L 39.656 4.443 Q 38.162 4.443 38.162 5.317 Q 38.162 5.7 38.417 5.915 A 0.893 0.893 0 0 0 38.83 6.108 A 1.259 1.259 0 0 0 39.072 6.13 A 1.429 1.429 0 0 0 39.797 5.933 A 1.335 1.335 0 0 0 40.092 5.705 A 1.108 1.108 0 0 0 40.293 5.418 Z M 72.224 5.418 L 72.224 4.443 L 71.587 4.443 Q 70.093 4.443 70.093 5.317 Q 70.093 5.7 70.348 5.915 A 0.893 0.893 0 0 0 70.761 6.108 A 1.259 1.259 0 0 0 71.002 6.13 A 1.429 1.429 0 0 0 71.728 5.933 A 1.335 1.335 0 0 0 72.023 5.705 A 1.108 1.108 0 0 0 72.224 5.418 Z M 103.808 0.734 Q 103.808 0.536 103.928 0.4 Q 104.04 0.274 104.252 0.264 A 0.783 0.783 0 0 1 104.287 0.264 Q 104.524 0.264 104.647 0.4 A 0.474 0.474 0 0 1 104.769 0.703 A 0.614 0.614 0 0 1 104.77 0.734 A 0.523 0.523 0 0 1 104.745 0.9 A 0.442 0.442 0 0 1 104.647 1.063 Q 104.534 1.184 104.326 1.194 A 0.803 0.803 0 0 1 104.287 1.195 Q 104.114 1.195 104.003 1.126 A 0.362 0.362 0 0 1 103.928 1.063 A 0.456 0.456 0 0 1 103.81 0.788 A 0.605 0.605 0 0 1 103.808 0.734 Z" vector-effect="non-scaling-stroke"/></g>
</svg>