<?xml version="1.0" encoding="UTF-8"?>
<svg width="48px" height="48px" viewBox="0 0 48 48" version="1.1" xmlns="http://www.w3.org/2000/svg" xmlns:xlink="http://www.w3.org/1999/xlink">
    <title>Icon-Resource/Storage/Res_Icon-Amazon-S3_CN-Nightfall_48_Light</title>
    <g id="Icon-Resource/Storage/Res_Icon-Amazon-S3_CN-Nightfall_48" stroke="none" stroke-width="1" fill="none" fill-rule="evenodd">
        <path transform="translate(0vw, 0vh), scale(.65)" d="M8.17216744,21.129 C8.46316744,21.129 8.73916744,21.255 8.93016744,21.476 C9.11916744,21.696 9.20416744,21.988 9.16116744,22.276 C8.91316744,23.939 8.66616744,25.694 8.47016744,27.191 C9.10416744,26.147 9.80916744,24.967 10.4741674,23.837 L13.4281674,18.128 L11.0891674,18.129 C10.7741674,18.129 10.4771674,17.98 10.2871674,17.727 C10.0991674,17.475 10.0401674,17.148 10.1301674,16.845 L12.1201674,10.129 L5.52616744,10.129 L4.03516744,21.129 L8.17216744,21.129 Z M7.10316744,32.129 C6.81216744,32.129 6.52516744,31.997 6.33416744,31.776 C5.99316744,31.38 5.82916744,31.191 7.01316744,23.129 L3.77716744,23.129 C3.28716744,23.129 2.76116744,22.891 2.43616744,22.523 C2.11316744,22.161 1.95716744,21.672 2.01016744,21.185 L3.56316744,9.764 C3.65716744,8.89 4.46816744,8.129 5.33016744,8.129 L12.4321674,8.129 C13.0071674,8.129 13.5471674,8.411 13.8781674,8.884 C14.2041674,9.352 14.2861674,9.953 14.0981674,10.493 L12.4281674,16.129 L13.9401674,16.129 C14.4181674,16.093 14.9291674,16.315 15.2651674,16.707 C15.6031674,17.099 15.7311674,17.633 15.6171674,18.171 C15.5991674,18.258 15.5681674,18.343 15.5271674,18.423 L12.2231674,24.805 C7.91216744,32.129 7.80516744,32.129 7.10316744,32.129 L7.10316744,32.129 Z M45.8391674,36.435 L44.4431674,35.003 L42.2621674,37.129 L39.1141674,37.129 L40.7351674,34.317 L43.5911674,33.552 L43.0731674,31.621 L40.7561674,32.241 L40.1741674,29.957 L38.2361674,30.45 L38.9771674,33.362 L37.3971674,36.103 L35.7881674,33.321 L36.5541674,30.462 L34.6221674,29.945 L34.0011674,32.262 L31.7321674,31.624 L31.1911674,33.549 L34.0801674,34.362 L35.6811674,37.129 L32.4761674,37.129 L30.3601674,35.012 L28.9451674,36.426 L30.6421674,38.123 L28.9541674,39.769 L30.3511674,41.2 L32.4741674,39.129 L35.6491674,39.129 L34.0541674,41.887 L31.2021674,42.651 L31.7201674,44.583 L34.0371674,43.962 L34.6191674,46.246 L36.5571674,45.753 L35.8151674,42.836 L37.3971674,40.101 L39.0041674,42.887 L38.2391674,45.741 L40.1711674,46.258 L40.7921674,43.941 L43.0621674,44.579 L43.6031674,42.654 L40.7081674,41.84 L39.1451674,39.129 L42.3711674,39.129 L44.4341674,41.191 L45.8481674,39.777 L44.1511674,38.081 L45.8391674,36.435 Z M41.6041674,24.429 L41.3131674,26.068 C43.0691674,26.508 43.8401674,26.479 44.1401674,26.423 C43.9601674,26.146 43.3781674,25.502 41.6041674,24.429 L41.6041674,24.429 Z M8.23816744,6.992 L7.31716744,5.218 C11.1371674,3.233 17.4751674,2 23.8561674,2 C33.2551674,2 43.7281674,4.9 43.7281674,9.063 C43.7281674,9.107 43.7251674,9.151 43.7191674,9.195 L43.6671674,9.583 C43.6641674,9.606 43.6581674,9.628 43.6541674,9.651 L41.9511674,22.317 C44.6461674,23.852 45.9721674,25.069 46.1881674,26.221 C46.2871674,26.756 46.1501674,27.28 45.8001674,27.696 C45.3751674,28.203 44.7081674,28.4550034 43.7191674,28.4550034 C42.8011674,28.456 41.6051674,28.238 40.0661674,27.806 C35.3141674,26.483 28.5281674,23.408 25.1641674,21.821 C24.8571674,22.013 24.4971674,22.129 24.1101674,22.129 C23.0071674,22.129 22.1101674,21.232 22.1101674,20.129 C22.1101674,19.026 23.0071674,18.129 24.1101674,18.129 C25.1861674,18.129 26.0601674,18.985 26.1021674,20.052 C28.8371674,21.338 34.8311674,24.068 39.3811674,25.512 L39.8851674,22.678 L41.2841674,12.269 C37.6701674,14.375 30.5941674,15.466 23.8561674,15.466 C20.9971674,15.466 18.0931674,15.265 15.4571674,14.884 L15.7421674,12.905 C18.2861674,13.272 21.0921674,13.466 23.8561674,13.466 C34.1341674,13.466 41.1181674,11.025 41.6941674,9.246 L41.7261674,9.011 C41.5871674,7.222 34.2581674,4 23.8561674,4 C17.8681674,4 11.7381674,5.174 8.23816744,6.992 L8.23816744,6.992 Z M29.6651674,43.631 L29.9191674,45.615 C27.9251674,45.87 25.8871674,46 23.8601674,46 C17.8721674,46 8.39716744,44.629 8.26616744,40.956 L7.29716744,33.75 L9.27916744,33.483 L10.2561674,40.745 C10.2621674,40.79 10.2651674,40.834 10.2651674,40.879 C10.2651674,41.832 15.4011674,44 23.8601674,44 C25.8021674,44 27.7551674,43.876 29.6651674,43.631 L29.6651674,43.631 Z" id="Fill-1" fill="#000000"></path>
    </g><g transform="translate(12vw, 80vh)" id="svgGroup" stroke-linecap="round" fill-rule="evenodd" font-size="9pt" stroke="#000" stroke-width="0.25mm" fill="#000" style="stroke:#000;stroke-width:0.25mm;fill:#000"><path d="M 7.783 1.995 L 8.552 1.995 L 8.574 2.522 Q 9.097 1.907 9.985 1.907 A 2.009 2.009 0 0 1 10.495 1.968 A 1.244 1.244 0 0 1 11.342 2.672 A 1.801 1.801 0 0 1 11.96 2.118 A 1.65 1.65 0 0 1 12.489 1.937 A 2.209 2.209 0 0 1 12.859 1.907 A 2.119 2.119 0 0 1 13.503 1.997 Q 14.429 2.292 14.449 3.564 L 14.449 6.75 L 13.636 6.75 L 13.636 3.612 A 1.781 1.781 0 0 0 13.616 3.332 Q 13.592 3.185 13.542 3.067 A 0.758 0.758 0 0 0 13.403 2.85 A 0.68 0.68 0 0 0 13.151 2.682 Q 12.939 2.597 12.622 2.597 A 1.245 1.245 0 0 0 12.256 2.648 A 1.008 1.008 0 0 0 11.87 2.867 A 1.042 1.042 0 0 0 11.556 3.404 A 1.41 1.41 0 0 0 11.523 3.595 L 11.523 6.75 L 10.705 6.75 L 10.705 3.634 A 1.532 1.532 0 0 0 10.657 3.23 Q 10.53 2.768 10.073 2.643 A 1.457 1.457 0 0 0 9.69 2.597 Q 8.916 2.597 8.616 3.234 A 1.459 1.459 0 0 0 8.596 3.278 L 8.596 6.75 L 7.783 6.75 L 7.783 1.995 Z M 4.636 2.202 L 3.788 2.202 A 1.466 1.466 0 0 0 3.738 1.809 A 1.066 1.066 0 0 0 3.419 1.29 A 1.211 1.211 0 0 0 2.95 1.033 Q 2.698 0.958 2.378 0.958 A 2.286 2.286 0 0 0 1.998 0.988 Q 1.796 1.022 1.633 1.095 A 1.101 1.101 0 0 0 1.404 1.233 A 0.892 0.892 0 0 0 1.059 1.887 A 1.267 1.267 0 0 0 1.055 1.995 A 0.806 0.806 0 0 0 1.323 2.6 A 1.134 1.134 0 0 0 1.387 2.656 A 1.562 1.562 0 0 0 1.625 2.813 Q 1.955 2.993 2.516 3.151 A 8.228 8.228 0 0 1 2.981 3.295 Q 3.216 3.377 3.41 3.464 A 3.297 3.297 0 0 1 3.764 3.645 A 2.342 2.342 0 0 1 4.103 3.889 Q 4.293 4.056 4.415 4.248 A 1.45 1.45 0 0 1 4.432 4.276 A 1.498 1.498 0 0 1 4.628 4.832 A 1.948 1.948 0 0 1 4.65 5.124 A 1.606 1.606 0 0 1 4.527 5.76 Q 4.382 6.101 4.064 6.354 A 1.886 1.886 0 0 1 4.043 6.37 Q 3.437 6.838 2.422 6.838 A 3.023 3.023 0 0 1 1.281 6.623 A 2.917 2.917 0 0 1 1.191 6.585 A 2.383 2.383 0 0 1 0.713 6.307 A 1.874 1.874 0 0 1 0.31 5.893 A 1.689 1.689 0 0 1 0 4.896 L 0.848 4.896 A 1.261 1.261 0 0 0 0.918 5.323 A 1.074 1.074 0 0 0 1.277 5.812 Q 1.661 6.113 2.278 6.144 A 2.87 2.87 0 0 0 2.422 6.148 A 2.628 2.628 0 0 0 2.809 6.121 Q 3.005 6.092 3.164 6.031 A 1.129 1.129 0 0 0 3.445 5.875 Q 3.801 5.603 3.801 5.133 A 1.074 1.074 0 0 0 3.759 4.822 A 0.816 0.816 0 0 0 3.472 4.406 Q 3.142 4.148 2.277 3.898 Q 1.191 3.586 0.697 3.131 Q 0.202 2.676 0.202 2.008 Q 0.202 1.252 0.807 0.758 A 2.121 2.121 0 0 1 1.697 0.335 A 3.087 3.087 0 0 1 2.378 0.264 A 2.913 2.913 0 0 1 3.038 0.336 A 2.372 2.372 0 0 1 3.553 0.519 A 2.051 2.051 0 0 1 4.084 0.889 A 1.834 1.834 0 0 1 4.353 1.222 A 1.798 1.798 0 0 1 4.636 2.202 Z M 34.277 2.202 L 33.429 2.202 A 1.466 1.466 0 0 0 33.38 1.809 A 1.066 1.066 0 0 0 33.06 1.29 A 1.211 1.211 0 0 0 32.591 1.033 Q 32.339 0.958 32.019 0.958 A 2.286 2.286 0 0 0 31.639 0.988 Q 31.437 1.022 31.274 1.095 A 1.101 1.101 0 0 0 31.045 1.233 A 0.892 0.892 0 0 0 30.7 1.887 A 1.267 1.267 0 0 0 30.696 1.995 A 0.806 0.806 0 0 0 30.964 2.6 A 1.134 1.134 0 0 0 31.028 2.656 A 1.562 1.562 0 0 0 31.266 2.813 Q 31.596 2.993 32.157 3.151 A 8.228 8.228 0 0 1 32.622 3.295 Q 32.857 3.377 33.051 3.464 A 3.297 3.297 0 0 1 33.405 3.645 A 2.342 2.342 0 0 1 33.744 3.889 Q 33.934 4.056 34.056 4.248 A 1.45 1.45 0 0 1 34.073 4.276 A 1.498 1.498 0 0 1 34.269 4.832 A 1.948 1.948 0 0 1 34.291 5.124 A 1.606 1.606 0 0 1 34.168 5.76 Q 34.023 6.101 33.705 6.354 A 1.886 1.886 0 0 1 33.684 6.37 Q 33.078 6.838 32.063 6.838 A 3.023 3.023 0 0 1 30.922 6.623 A 2.917 2.917 0 0 1 30.832 6.585 A 2.383 2.383 0 0 1 30.354 6.307 A 1.874 1.874 0 0 1 29.951 5.893 A 1.689 1.689 0 0 1 29.641 4.896 L 30.489 4.896 A 1.261 1.261 0 0 0 30.559 5.323 A 1.074 1.074 0 0 0 30.918 5.812 Q 31.302 6.113 31.919 6.144 A 2.87 2.87 0 0 0 32.063 6.148 A 2.628 2.628 0 0 0 32.45 6.121 Q 32.646 6.092 32.805 6.031 A 1.129 1.129 0 0 0 33.087 5.875 Q 33.443 5.603 33.443 5.133 A 1.074 1.074 0 0 0 33.4 4.822 A 0.816 0.816 0 0 0 33.113 4.406 Q 32.783 4.148 31.918 3.898 Q 30.832 3.586 30.338 3.131 Q 29.843 2.676 29.843 2.008 Q 29.843 1.252 30.448 0.758 A 2.121 2.121 0 0 1 31.338 0.335 A 3.087 3.087 0 0 1 32.019 0.264 A 2.913 2.913 0 0 1 32.679 0.336 A 2.372 2.372 0 0 1 33.194 0.519 A 2.051 2.051 0 0 1 33.725 0.889 A 1.834 1.834 0 0 1 33.994 1.222 A 1.798 1.798 0 0 1 34.277 2.202 Z M 54.035 2.522 L 54.075 1.995 L 54.818 1.995 L 54.818 6.636 A 2.511 2.511 0 0 1 54.747 7.249 A 1.738 1.738 0 0 1 54.27 8.09 A 1.834 1.834 0 0 1 53.341 8.57 A 2.671 2.671 0 0 1 52.8 8.622 A 2.446 2.446 0 0 1 51.794 8.402 A 2.003 2.003 0 0 1 51.384 8.161 A 1.563 1.563 0 0 1 51.043 7.8 L 51.465 7.313 A 1.889 1.889 0 0 0 51.899 7.712 A 1.514 1.514 0 0 0 52.743 7.958 A 1.695 1.695 0 0 0 53.12 7.919 Q 53.389 7.858 53.583 7.702 A 1.037 1.037 0 0 0 53.668 7.625 A 1.09 1.09 0 0 0 53.945 7.132 Q 53.992 6.959 53.999 6.752 A 2.134 2.134 0 0 0 54 6.684 L 54 6.275 A 1.601 1.601 0 0 1 52.948 6.821 A 2.279 2.279 0 0 1 52.669 6.838 A 1.672 1.672 0 0 1 51.913 6.67 Q 51.591 6.51 51.342 6.197 A 2.14 2.14 0 0 1 51.317 6.166 A 2.316 2.316 0 0 1 50.934 5.386 Q 50.801 4.922 50.801 4.333 Q 50.801 3.472 51.109 2.884 A 2.096 2.096 0 0 1 51.315 2.564 Q 51.829 1.907 52.677 1.907 A 1.971 1.971 0 0 1 53.276 1.994 A 1.55 1.55 0 0 1 54.035 2.522 Z M 49.887 6.75 L 49.034 6.75 A 0.632 0.632 0 0 1 48.999 6.66 Q 48.968 6.562 48.943 6.41 A 3.997 3.997 0 0 1 48.92 6.249 Q 48.353 6.838 47.567 6.838 A 2.033 2.033 0 0 1 47.037 6.772 A 1.529 1.529 0 0 1 46.413 6.44 Q 45.963 6.042 45.963 5.432 Q 45.963 4.689 46.527 4.278 Q 47.092 3.867 48.116 3.867 L 48.907 3.867 L 48.907 3.494 A 1.152 1.152 0 0 0 48.871 3.199 A 0.828 0.828 0 0 0 48.652 2.815 Q 48.436 2.6 48.045 2.568 A 1.748 1.748 0 0 0 47.901 2.562 Q 47.465 2.562 47.171 2.782 Q 46.877 3.001 46.877 3.313 L 46.059 3.313 A 1.041 1.041 0 0 1 46.184 2.825 A 1.409 1.409 0 0 1 46.312 2.626 Q 46.565 2.294 46.997 2.101 A 2.249 2.249 0 0 1 47.773 1.913 A 2.669 2.669 0 0 1 47.949 1.907 A 2.65 2.65 0 0 1 48.466 1.955 Q 48.774 2.016 49.012 2.156 A 1.439 1.439 0 0 1 49.236 2.318 A 1.396 1.396 0 0 1 49.69 3.144 A 1.998 1.998 0 0 1 49.72 3.45 L 49.72 5.638 Q 49.72 6.073 49.794 6.39 A 1.707 1.707 0 0 0 49.887 6.68 L 49.887 6.75 Z M 19.692 4.351 L 19.692 4.425 Q 19.692 5.511 19.195 6.174 A 1.57 1.57 0 0 1 18.057 6.828 A 2.013 2.013 0 0 1 17.851 6.838 A 2.196 2.196 0 0 1 17.265 6.764 A 1.598 1.598 0 0 1 16.488 6.289 L 16.488 8.578 L 15.675 8.578 L 15.675 1.995 L 16.418 1.995 L 16.458 2.522 A 1.619 1.619 0 0 1 17.597 1.919 A 2.319 2.319 0 0 1 17.838 1.907 A 1.829 1.829 0 0 1 18.475 2.014 A 1.597 1.597 0 0 1 19.193 2.553 Q 19.692 3.199 19.692 4.351 Z M 22.702 4.504 L 22.702 4.355 A 3.17 3.17 0 0 1 22.779 3.646 A 2.581 2.581 0 0 1 22.973 3.092 A 2.191 2.191 0 0 1 23.42 2.466 A 2.033 2.033 0 0 1 23.728 2.221 Q 24.214 1.907 24.781 1.907 A 2.254 2.254 0 0 1 25.394 1.986 A 1.639 1.639 0 0 1 26.222 2.518 Q 26.736 3.129 26.736 4.267 L 26.736 4.605 L 23.515 4.605 A 2.111 2.111 0 0 0 23.586 5.114 A 1.516 1.516 0 0 0 23.926 5.741 A 1.282 1.282 0 0 0 24.86 6.173 A 1.652 1.652 0 0 0 24.926 6.174 A 1.763 1.763 0 0 0 25.254 6.145 Q 25.478 6.103 25.655 5.999 A 1.827 1.827 0 0 0 26.164 5.551 A 2.068 2.068 0 0 0 26.178 5.533 L 26.675 5.919 A 1.926 1.926 0 0 1 25.275 6.811 A 2.749 2.749 0 0 1 24.882 6.838 A 2.394 2.394 0 0 1 24.131 6.725 A 1.974 1.974 0 0 1 23.309 6.203 Q 22.702 5.568 22.702 4.504 Z M 55.837 4.504 L 55.837 4.355 A 3.17 3.17 0 0 1 55.913 3.646 A 2.581 2.581 0 0 1 56.107 3.092 A 2.191 2.191 0 0 1 56.555 2.466 A 2.033 2.033 0 0 1 56.863 2.221 Q 57.349 1.907 57.916 1.907 A 2.254 2.254 0 0 1 58.529 1.986 A 1.639 1.639 0 0 1 59.357 2.518 Q 59.871 3.129 59.871 4.267 L 59.871 4.605 L 56.65 4.605 A 2.111 2.111 0 0 0 56.721 5.114 A 1.516 1.516 0 0 0 57.061 5.741 A 1.282 1.282 0 0 0 57.995 6.173 A 1.652 1.652 0 0 0 58.061 6.174 A 1.763 1.763 0 0 0 58.389 6.145 Q 58.613 6.103 58.79 5.999 A 1.827 1.827 0 0 0 59.299 5.551 A 2.068 2.068 0 0 0 59.313 5.533 L 59.81 5.919 A 1.926 1.926 0 0 1 58.41 6.811 A 2.749 2.749 0 0 1 58.017 6.838 A 2.394 2.394 0 0 1 57.266 6.725 A 1.974 1.974 0 0 1 56.444 6.203 Q 55.837 5.568 55.837 4.504 Z M 35.534 0.844 L 36.347 0.844 L 36.347 1.995 L 37.235 1.995 L 37.235 2.624 L 36.347 2.624 L 36.347 5.572 Q 36.347 5.858 36.466 6.001 Q 36.585 6.144 36.87 6.144 A 1.046 1.046 0 0 0 36.968 6.138 Q 37.071 6.129 37.21 6.101 A 4.024 4.024 0 0 0 37.257 6.091 L 37.257 6.75 A 2.463 2.463 0 0 1 36.824 6.829 A 2.157 2.157 0 0 1 36.633 6.838 Q 36.186 6.838 35.919 6.616 A 0.856 0.856 0 0 1 35.811 6.508 Q 35.584 6.238 35.543 5.78 A 2.351 2.351 0 0 1 35.534 5.572 L 35.534 2.624 L 34.669 2.624 L 34.669 1.995 L 35.534 1.995 L 35.534 0.844 Z M 21.608 0 L 21.608 6.75 L 20.795 6.75 L 20.795 0 L 21.608 0 Z M 37.881 4.386 L 37.881 4.329 A 3.057 3.057 0 0 1 37.968 3.587 A 2.573 2.573 0 0 1 38.156 3.072 A 2.16 2.16 0 0 1 38.57 2.486 A 1.957 1.957 0 0 1 38.92 2.21 A 2.036 2.036 0 0 1 39.865 1.913 A 2.491 2.491 0 0 1 40.039 1.907 A 2.277 2.277 0 0 1 40.792 2.027 A 1.937 1.937 0 0 1 41.61 2.58 A 2.29 2.29 0 0 1 42.129 3.608 A 3.373 3.373 0 0 1 42.21 4.368 L 42.21 4.425 A 3.114 3.114 0 0 1 42.13 5.142 A 2.577 2.577 0 0 1 41.944 5.671 A 2.056 2.056 0 0 1 41.416 6.361 A 2.001 2.001 0 0 1 41.183 6.53 A 2.045 2.045 0 0 1 40.264 6.829 A 2.529 2.529 0 0 1 40.048 6.838 A 2.262 2.262 0 0 1 39.297 6.718 A 1.938 1.938 0 0 1 38.481 6.166 A 2.297 2.297 0 0 1 37.955 5.111 A 3.357 3.357 0 0 1 37.881 4.386 Z M 45.527 1.969 L 45.527 2.725 A 2.251 2.251 0 0 0 45.285 2.698 A 2.782 2.782 0 0 0 45.128 2.694 Q 44.35 2.694 44.058 3.338 A 1.445 1.445 0 0 0 44.042 3.375 L 44.042 6.75 L 43.229 6.75 L 43.229 1.995 L 44.02 1.995 L 44.033 2.544 Q 44.414 1.938 45.096 1.909 A 1.636 1.636 0 0 1 45.167 1.907 Q 45.404 1.907 45.527 1.969 Z M 6.486 1.995 L 6.486 6.75 L 5.673 6.75 L 5.673 1.995 L 6.486 1.995 Z M 38.698 4.425 A 2.772 2.772 0 0 0 38.746 4.954 Q 38.806 5.264 38.944 5.51 A 1.545 1.545 0 0 0 39.065 5.695 Q 39.432 6.174 40.048 6.174 A 1.269 1.269 0 0 0 40.537 6.083 Q 40.816 5.967 41.019 5.706 A 1.471 1.471 0 0 0 41.032 5.689 A 1.648 1.648 0 0 0 41.287 5.171 Q 41.355 4.945 41.381 4.672 A 3.655 3.655 0 0 0 41.397 4.329 A 2.687 2.687 0 0 0 41.345 3.789 Q 41.278 3.459 41.12 3.2 A 1.586 1.586 0 0 0 41.025 3.061 A 1.231 1.231 0 0 0 40.61 2.705 Q 40.357 2.575 40.039 2.575 Q 39.449 2.575 39.083 3.035 A 1.515 1.515 0 0 0 39.068 3.054 A 1.589 1.589 0 0 0 38.815 3.552 Q 38.746 3.772 38.718 4.039 A 3.676 3.676 0 0 0 38.698 4.425 Z M 16.488 3.252 L 16.488 5.524 Q 16.853 6.174 17.605 6.174 A 1.184 1.184 0 0 0 18.07 6.086 Q 18.327 5.977 18.516 5.735 A 1.403 1.403 0 0 0 18.534 5.711 A 1.501 1.501 0 0 0 18.751 5.28 Q 18.819 5.073 18.851 4.818 A 3.91 3.91 0 0 0 18.879 4.333 Q 18.879 3.746 18.696 3.339 A 1.503 1.503 0 0 0 18.536 3.063 A 1.086 1.086 0 0 0 17.75 2.605 A 1.414 1.414 0 0 0 17.596 2.597 Q 16.935 2.597 16.57 3.121 A 1.623 1.623 0 0 0 16.488 3.252 Z M 54 5.449 L 54 3.278 A 1.439 1.439 0 0 0 53.699 2.891 Q 53.396 2.62 52.955 2.599 A 1.578 1.578 0 0 0 52.88 2.597 Q 52.288 2.597 51.954 3.056 A 1.51 1.51 0 0 0 51.743 3.484 Q 51.677 3.689 51.646 3.939 A 3.955 3.955 0 0 0 51.618 4.425 Q 51.618 5.229 51.948 5.689 Q 52.277 6.148 52.871 6.148 A 1.32 1.32 0 0 0 53.38 6.054 Q 53.772 5.891 54 5.449 Z M 48.907 5.418 L 48.907 4.443 L 48.27 4.443 Q 46.776 4.443 46.776 5.317 Q 46.776 5.7 47.03 5.915 A 0.893 0.893 0 0 0 47.444 6.108 A 1.259 1.259 0 0 0 47.685 6.13 A 1.429 1.429 0 0 0 48.41 5.933 A 1.335 1.335 0 0 0 48.706 5.705 A 1.108 1.108 0 0 0 48.907 5.418 Z M 23.542 3.938 L 25.923 3.938 L 25.923 3.876 Q 25.897 3.417 25.727 3.111 A 1.13 1.13 0 0 0 25.59 2.916 A 0.983 0.983 0 0 0 24.935 2.584 A 1.39 1.39 0 0 0 24.781 2.575 A 1.106 1.106 0 0 0 24.258 2.698 A 1.14 1.14 0 0 0 23.955 2.933 A 1.417 1.417 0 0 0 23.678 3.379 Q 23.604 3.563 23.565 3.785 A 2.741 2.741 0 0 0 23.542 3.938 Z M 56.676 3.938 L 59.058 3.938 L 59.058 3.876 Q 59.032 3.417 58.862 3.111 A 1.13 1.13 0 0 0 58.724 2.916 A 0.983 0.983 0 0 0 58.07 2.584 A 1.39 1.39 0 0 0 57.916 2.575 A 1.106 1.106 0 0 0 57.393 2.698 A 1.14 1.14 0 0 0 57.09 2.933 A 1.417 1.417 0 0 0 56.813 3.379 Q 56.739 3.563 56.699 3.785 A 2.741 2.741 0 0 0 56.676 3.938 Z M 5.608 0.734 Q 5.608 0.536 5.728 0.4 Q 5.84 0.274 6.052 0.264 A 0.783 0.783 0 0 1 6.087 0.264 Q 6.324 0.264 6.447 0.4 A 0.474 0.474 0 0 1 6.569 0.703 A 0.614 0.614 0 0 1 6.57 0.734 A 0.523 0.523 0 0 1 6.545 0.9 A 0.442 0.442 0 0 1 6.447 1.063 Q 6.334 1.184 6.126 1.194 A 0.803 0.803 0 0 1 6.087 1.195 Q 5.914 1.195 5.803 1.126 A 0.362 0.362 0 0 1 5.728 1.063 A 0.456 0.456 0 0 1 5.61 0.788 A 0.605 0.605 0 0 1 5.608 0.734 Z" vector-effect="non-scaling-stroke"/></g><g transform="translate(12vw, 90vh)" id="svgGroup" stroke-linecap="round" fill-rule="evenodd" font-size="9pt" stroke="#000" stroke-width="0.25mm" fill="#000" style="stroke:#000;stroke-width:0.25mm;fill:#000"><path d="M 49.219 3.564 L 49.219 5.911 A 1.895 1.895 0 0 1 48.496 6.525 A 2.364 2.364 0 0 1 48.311 6.607 A 3.162 3.162 0 0 1 47.639 6.787 Q 47.328 6.836 46.978 6.838 A 5.148 5.148 0 0 1 46.956 6.838 A 2.838 2.838 0 0 1 46.133 6.722 A 2.459 2.459 0 0 1 45.567 6.471 A 2.43 2.43 0 0 1 44.661 5.49 A 2.924 2.924 0 0 1 44.629 5.427 A 3.277 3.277 0 0 1 44.34 4.497 A 4.307 4.307 0 0 1 44.288 3.858 L 44.288 3.3 Q 44.288 1.854 44.963 1.059 A 2.198 2.198 0 0 1 46.316 0.307 A 3.227 3.227 0 0 1 46.859 0.264 Q 47.861 0.264 48.472 0.776 A 2.047 2.047 0 0 1 49.094 1.701 A 2.896 2.896 0 0 1 49.219 2.228 L 48.375 2.228 Q 48.168 1.12 47.173 0.979 A 2.195 2.195 0 0 0 46.863 0.958 A 1.917 1.917 0 0 0 46.329 1.028 A 1.386 1.386 0 0 0 45.578 1.553 A 1.986 1.986 0 0 0 45.294 2.125 Q 45.207 2.396 45.168 2.726 A 4.871 4.871 0 0 0 45.136 3.278 L 45.136 3.801 A 3.827 3.827 0 0 0 45.195 4.489 Q 45.306 5.096 45.629 5.513 A 1.569 1.569 0 0 0 46.768 6.139 A 2.069 2.069 0 0 0 46.96 6.148 Q 47.393 6.148 47.727 6.06 A 2.106 2.106 0 0 0 47.791 6.042 A 1.357 1.357 0 0 0 48.179 5.86 A 1.217 1.217 0 0 0 48.38 5.687 L 48.38 4.25 L 46.899 4.25 L 46.899 3.564 L 49.219 3.564 Z M 4.636 2.202 L 3.788 2.202 A 1.466 1.466 0 0 0 3.738 1.809 A 1.066 1.066 0 0 0 3.419 1.29 A 1.211 1.211 0 0 0 2.95 1.033 Q 2.698 0.958 2.378 0.958 A 2.286 2.286 0 0 0 1.998 0.988 Q 1.796 1.022 1.633 1.095 A 1.101 1.101 0 0 0 1.404 1.233 A 0.892 0.892 0 0 0 1.059 1.887 A 1.267 1.267 0 0 0 1.055 1.995 A 0.806 0.806 0 0 0 1.323 2.6 A 1.134 1.134 0 0 0 1.387 2.656 A 1.562 1.562 0 0 0 1.625 2.813 Q 1.955 2.993 2.516 3.151 A 8.228 8.228 0 0 1 2.981 3.295 Q 3.216 3.377 3.41 3.464 A 3.297 3.297 0 0 1 3.764 3.645 A 2.342 2.342 0 0 1 4.103 3.889 Q 4.293 4.056 4.415 4.248 A 1.45 1.45 0 0 1 4.432 4.276 A 1.498 1.498 0 0 1 4.628 4.832 A 1.948 1.948 0 0 1 4.65 5.124 A 1.606 1.606 0 0 1 4.527 5.76 Q 4.382 6.101 4.064 6.354 A 1.886 1.886 0 0 1 4.043 6.37 Q 3.437 6.838 2.422 6.838 A 3.023 3.023 0 0 1 1.281 6.623 A 2.917 2.917 0 0 1 1.191 6.585 A 2.383 2.383 0 0 1 0.713 6.307 A 1.874 1.874 0 0 1 0.31 5.893 A 1.689 1.689 0 0 1 0 4.896 L 0.848 4.896 A 1.261 1.261 0 0 0 0.918 5.323 A 1.074 1.074 0 0 0 1.277 5.812 Q 1.661 6.113 2.278 6.144 A 2.87 2.87 0 0 0 2.422 6.148 A 2.628 2.628 0 0 0 2.809 6.121 Q 3.005 6.092 3.164 6.031 A 1.129 1.129 0 0 0 3.445 5.875 Q 3.801 5.603 3.801 5.133 A 1.074 1.074 0 0 0 3.759 4.822 A 0.816 0.816 0 0 0 3.472 4.406 Q 3.142 4.148 2.277 3.898 Q 1.191 3.586 0.697 3.131 Q 0.202 2.676 0.202 2.008 Q 0.202 1.252 0.807 0.758 A 2.121 2.121 0 0 1 1.697 0.335 A 3.087 3.087 0 0 1 2.378 0.264 A 2.913 2.913 0 0 1 3.038 0.336 A 2.372 2.372 0 0 1 3.553 0.519 A 2.051 2.051 0 0 1 4.084 0.889 A 1.834 1.834 0 0 1 4.353 1.222 A 1.798 1.798 0 0 1 4.636 2.202 Z M 36.119 2.202 L 35.271 2.202 A 1.466 1.466 0 0 0 35.221 1.809 A 1.066 1.066 0 0 0 34.902 1.29 A 1.211 1.211 0 0 0 34.432 1.033 Q 34.18 0.958 33.86 0.958 A 2.286 2.286 0 0 0 33.48 0.988 Q 33.278 1.022 33.116 1.095 A 1.101 1.101 0 0 0 32.887 1.233 A 0.892 0.892 0 0 0 32.542 1.887 A 1.267 1.267 0 0 0 32.537 1.995 A 0.806 0.806 0 0 0 32.805 2.6 A 1.134 1.134 0 0 0 32.869 2.656 A 1.562 1.562 0 0 0 33.107 2.813 Q 33.438 2.993 33.998 3.151 A 8.228 8.228 0 0 1 34.463 3.295 Q 34.698 3.377 34.893 3.464 A 3.297 3.297 0 0 1 35.246 3.645 A 2.342 2.342 0 0 1 35.585 3.889 Q 35.775 4.056 35.897 4.248 A 1.45 1.45 0 0 1 35.914 4.276 A 1.498 1.498 0 0 1 36.111 4.832 A 1.948 1.948 0 0 1 36.132 5.124 A 1.606 1.606 0 0 1 36.01 5.76 Q 35.864 6.101 35.546 6.354 A 1.886 1.886 0 0 1 35.526 6.37 Q 34.919 6.838 33.904 6.838 A 3.023 3.023 0 0 1 32.763 6.623 A 2.917 2.917 0 0 1 32.673 6.585 A 2.383 2.383 0 0 1 32.195 6.307 A 1.874 1.874 0 0 1 31.792 5.893 A 1.689 1.689 0 0 1 31.483 4.896 L 32.331 4.896 A 1.261 1.261 0 0 0 32.4 5.323 A 1.074 1.074 0 0 0 32.759 5.812 Q 33.144 6.113 33.76 6.144 A 2.87 2.87 0 0 0 33.904 6.148 A 2.628 2.628 0 0 0 34.291 6.121 Q 34.487 6.092 34.646 6.031 A 1.129 1.129 0 0 0 34.928 5.875 Q 35.284 5.603 35.284 5.133 A 1.074 1.074 0 0 0 35.241 4.822 A 0.816 0.816 0 0 0 34.954 4.406 Q 34.625 4.148 33.759 3.898 Q 32.673 3.586 32.179 3.131 Q 31.685 2.676 31.685 2.008 Q 31.685 1.252 32.289 0.758 A 2.121 2.121 0 0 1 33.179 0.335 A 3.087 3.087 0 0 1 33.86 0.264 A 2.913 2.913 0 0 1 34.52 0.336 A 2.372 2.372 0 0 1 35.036 0.519 A 2.051 2.051 0 0 1 35.567 0.889 A 1.834 1.834 0 0 1 35.835 1.222 A 1.798 1.798 0 0 1 36.119 2.202 Z M 38.184 3.819 L 38.184 3.155 L 38.795 3.155 Q 39.253 3.148 39.555 2.961 A 1.045 1.045 0 0 0 39.7 2.852 A 0.97 0.97 0 0 0 40.02 2.225 A 1.373 1.373 0 0 0 40.03 2.057 A 1.626 1.626 0 0 0 39.974 1.611 Q 39.832 1.112 39.324 0.98 A 1.645 1.645 0 0 0 38.909 0.932 A 1.495 1.495 0 0 0 38.547 0.973 A 1.044 1.044 0 0 0 38.068 1.233 A 1.004 1.004 0 0 0 37.766 1.844 A 1.405 1.405 0 0 0 37.754 2.03 L 36.941 2.03 A 1.698 1.698 0 0 1 37.095 1.3 A 1.68 1.68 0 0 1 37.496 0.767 A 1.924 1.924 0 0 1 38.549 0.288 A 2.615 2.615 0 0 1 38.909 0.264 A 2.758 2.758 0 0 1 39.485 0.32 Q 39.853 0.399 40.132 0.586 A 1.593 1.593 0 0 1 40.329 0.743 A 1.57 1.57 0 0 1 40.795 1.589 A 2.336 2.336 0 0 1 40.843 2.074 A 1.332 1.332 0 0 1 40.691 2.686 A 1.725 1.725 0 0 1 40.573 2.883 A 1.624 1.624 0 0 1 39.873 3.452 A 1.952 1.952 0 0 1 39.837 3.467 A 1.81 1.81 0 0 1 40.272 3.668 A 1.44 1.44 0 0 1 40.652 4.021 Q 40.94 4.408 40.94 4.966 Q 40.94 5.827 40.377 6.333 A 1.935 1.935 0 0 1 39.42 6.793 A 2.738 2.738 0 0 1 38.914 6.838 A 2.716 2.716 0 0 1 38.267 6.765 A 1.936 1.936 0 0 1 37.448 6.35 Q 36.883 5.862 36.883 5.063 L 37.701 5.063 A 1.255 1.255 0 0 0 37.751 5.426 A 0.978 0.978 0 0 0 38.03 5.871 A 1.113 1.113 0 0 0 38.545 6.135 A 1.643 1.643 0 0 0 38.914 6.174 Q 39.503 6.174 39.815 5.867 Q 40.102 5.583 40.125 5.073 A 2.011 2.011 0 0 0 40.127 4.983 A 1.451 1.451 0 0 0 40.087 4.634 A 0.962 0.962 0 0 0 39.784 4.126 A 1.13 1.13 0 0 0 39.396 3.91 Q 39.138 3.824 38.795 3.819 L 38.184 3.819 Z M 166.553 0 L 166.553 2.571 A 1.767 1.767 0 0 1 167.219 2.053 A 1.832 1.832 0 0 1 167.959 1.907 A 1.905 1.905 0 0 1 168.593 2.004 Q 169.434 2.3 169.477 3.506 A 3.668 3.668 0 0 1 169.48 3.608 L 169.48 6.75 L 168.667 6.75 L 168.667 3.604 A 1.837 1.837 0 0 0 168.644 3.324 Q 168.594 3.017 168.432 2.843 Q 168.245 2.645 167.892 2.606 A 1.66 1.66 0 0 0 167.713 2.597 A 1.253 1.253 0 0 0 167.299 2.664 A 1.123 1.123 0 0 0 167.019 2.808 A 1.432 1.432 0 0 0 166.553 3.362 L 166.553 6.75 L 165.74 6.75 L 165.74 0 L 166.553 0 Z M 108.4 6.75 L 107.011 4.162 L 105.508 4.162 L 105.508 6.75 L 104.66 6.75 L 104.66 0.352 L 106.778 0.352 A 3.809 3.809 0 0 1 107.42 0.402 Q 107.762 0.461 108.036 0.587 A 1.789 1.789 0 0 1 108.442 0.844 A 1.588 1.588 0 0 1 108.967 1.732 A 2.453 2.453 0 0 1 109.024 2.276 A 1.864 1.864 0 0 1 108.933 2.868 A 1.64 1.64 0 0 1 108.701 3.318 A 1.849 1.849 0 0 1 108.042 3.875 A 2.342 2.342 0 0 1 107.802 3.981 L 109.305 6.697 L 109.305 6.75 L 108.4 6.75 Z M 163.732 2.522 L 163.771 1.995 L 164.514 1.995 L 164.514 6.636 A 2.511 2.511 0 0 1 164.443 7.249 A 1.738 1.738 0 0 1 163.967 8.09 A 1.834 1.834 0 0 1 163.037 8.57 A 2.671 2.671 0 0 1 162.497 8.622 A 2.446 2.446 0 0 1 161.49 8.402 A 2.003 2.003 0 0 1 161.08 8.161 A 1.563 1.563 0 0 1 160.739 7.8 L 161.161 7.313 A 1.889 1.889 0 0 0 161.595 7.712 A 1.514 1.514 0 0 0 162.44 7.958 A 1.695 1.695 0 0 0 162.817 7.919 Q 163.085 7.858 163.279 7.702 A 1.037 1.037 0 0 0 163.365 7.625 A 1.09 1.09 0 0 0 163.642 7.132 Q 163.689 6.959 163.695 6.752 A 2.134 2.134 0 0 0 163.696 6.684 L 163.696 6.275 A 1.601 1.601 0 0 1 162.644 6.821 A 2.279 2.279 0 0 1 162.365 6.838 A 1.672 1.672 0 0 1 161.61 6.67 Q 161.288 6.51 161.038 6.197 A 2.14 2.14 0 0 1 161.014 6.166 A 2.316 2.316 0 0 1 160.63 5.386 Q 160.497 4.922 160.497 4.333 Q 160.497 3.472 160.806 2.884 A 2.096 2.096 0 0 1 161.011 2.564 Q 161.526 1.907 162.374 1.907 A 1.971 1.971 0 0 1 162.973 1.994 A 1.55 1.55 0 0 1 163.732 2.522 Z M 85.465 3.393 L 84.648 3.393 Q 84.648 3.059 84.364 2.817 Q 84.081 2.575 83.65 2.575 Q 83.206 2.575 82.956 2.769 A 0.653 0.653 0 0 0 82.781 2.967 Q 82.708 3.098 82.705 3.263 A 0.771 0.771 0 0 0 82.705 3.274 A 0.588 0.588 0 0 0 82.735 3.467 A 0.48 0.48 0 0 0 82.938 3.718 A 1.093 1.093 0 0 0 83.088 3.796 Q 83.253 3.868 83.508 3.937 A 6.581 6.581 0 0 0 83.78 4.003 A 6.318 6.318 0 0 1 84.187 4.108 Q 84.524 4.208 84.766 4.329 A 1.901 1.901 0 0 1 85.022 4.481 Q 85.159 4.579 85.256 4.692 A 1.06 1.06 0 0 1 85.327 4.783 A 1.024 1.024 0 0 1 85.489 5.191 A 1.388 1.388 0 0 1 85.509 5.432 Q 85.509 6.069 84.999 6.453 Q 84.517 6.817 83.763 6.837 A 3.337 3.337 0 0 1 83.676 6.838 A 2.746 2.746 0 0 1 83.142 6.788 A 2.124 2.124 0 0 1 82.666 6.636 A 1.771 1.771 0 0 1 82.232 6.358 A 1.54 1.54 0 0 1 81.978 6.071 Q 81.73 5.708 81.73 5.287 L 82.543 5.287 A 0.932 0.932 0 0 0 82.616 5.612 A 0.827 0.827 0 0 0 82.87 5.935 A 1.072 1.072 0 0 0 83.272 6.128 Q 83.427 6.167 83.608 6.173 A 2.013 2.013 0 0 0 83.676 6.174 A 1.863 1.863 0 0 0 83.972 6.152 Q 84.134 6.126 84.265 6.07 A 0.941 0.941 0 0 0 84.417 5.988 A 0.689 0.689 0 0 0 84.581 5.837 A 0.554 0.554 0 0 0 84.696 5.489 A 0.698 0.698 0 0 0 84.66 5.258 A 0.581 0.581 0 0 0 84.448 4.977 A 1.05 1.05 0 0 0 84.279 4.878 Q 84.09 4.788 83.795 4.712 A 5.392 5.392 0 0 0 83.582 4.663 A 6.342 6.342 0 0 1 83.221 4.575 Q 82.851 4.473 82.602 4.346 Q 82.303 4.194 82.133 3.994 A 1.017 1.017 0 0 1 82.066 3.907 Q 81.892 3.652 81.892 3.3 A 1.206 1.206 0 0 1 82.291 2.396 A 1.694 1.694 0 0 1 82.387 2.312 A 1.752 1.752 0 0 1 83.17 1.952 A 2.471 2.471 0 0 1 83.65 1.907 A 2.559 2.559 0 0 1 84.214 1.966 A 1.757 1.757 0 0 1 84.962 2.325 Q 85.465 2.742 85.465 3.393 Z M 76.962 1.995 L 77.731 1.995 L 77.757 2.593 Q 78.293 1.918 79.153 1.907 A 2.234 2.234 0 0 1 79.181 1.907 A 1.905 1.905 0 0 1 79.814 2.004 Q 80.656 2.3 80.699 3.506 A 3.668 3.668 0 0 1 80.701 3.608 L 80.701 6.75 L 79.888 6.75 L 79.888 3.604 A 1.837 1.837 0 0 0 79.866 3.324 Q 79.816 3.017 79.653 2.843 Q 79.467 2.645 79.114 2.606 A 1.66 1.66 0 0 0 78.935 2.597 A 1.253 1.253 0 0 0 78.52 2.664 A 1.123 1.123 0 0 0 78.24 2.808 A 1.432 1.432 0 0 0 77.775 3.362 L 77.775 6.75 L 76.962 6.75 L 76.962 1.995 Z M 94.403 1.995 L 95.173 1.995 L 95.199 2.593 Q 95.735 1.918 96.595 1.907 A 2.234 2.234 0 0 1 96.623 1.907 A 1.905 1.905 0 0 1 97.256 2.004 Q 98.098 2.3 98.141 3.506 A 3.668 3.668 0 0 1 98.143 3.608 L 98.143 6.75 L 97.33 6.75 L 97.33 3.604 A 1.837 1.837 0 0 0 97.308 3.324 Q 97.258 3.017 97.095 2.843 Q 96.909 2.645 96.556 2.606 A 1.66 1.66 0 0 0 96.377 2.597 A 1.253 1.253 0 0 0 95.962 2.664 A 1.123 1.123 0 0 0 95.682 2.808 A 1.432 1.432 0 0 0 95.216 3.362 L 95.216 6.75 L 94.403 6.75 L 94.403 1.995 Z M 23.067 5.251 L 23.836 5.251 A 1.432 1.432 0 0 1 23.637 5.901 A 1.772 1.772 0 0 1 23.555 6.029 A 1.828 1.828 0 0 1 22.946 6.574 A 2.169 2.169 0 0 1 22.863 6.618 A 1.997 1.997 0 0 1 21.946 6.838 A 2.346 2.346 0 0 1 21.249 6.739 A 1.839 1.839 0 0 1 20.402 6.19 A 2.171 2.171 0 0 1 19.938 5.31 Q 19.828 4.909 19.828 4.417 L 19.828 4.28 A 3.24 3.24 0 0 1 19.892 3.624 A 2.57 2.57 0 0 1 20.083 3.045 A 2.008 2.008 0 0 1 20.523 2.431 A 1.892 1.892 0 0 1 20.815 2.206 A 1.943 1.943 0 0 1 21.571 1.934 A 2.529 2.529 0 0 1 21.942 1.907 A 2.196 2.196 0 0 1 22.59 1.999 A 1.786 1.786 0 0 1 23.271 2.386 A 1.693 1.693 0 0 1 23.83 3.535 A 2.239 2.239 0 0 1 23.836 3.63 L 23.067 3.63 Q 23.032 3.168 22.718 2.872 A 1.078 1.078 0 0 0 21.989 2.576 A 1.402 1.402 0 0 0 21.942 2.575 A 1.374 1.374 0 0 0 21.521 2.637 A 1.081 1.081 0 0 0 20.982 3.021 A 1.469 1.469 0 0 0 20.755 3.468 Q 20.689 3.674 20.662 3.923 A 3.514 3.514 0 0 0 20.641 4.311 L 20.641 4.465 Q 20.641 5.287 20.98 5.73 A 1.1 1.1 0 0 0 21.766 6.165 A 1.611 1.611 0 0 0 21.946 6.174 A 1.171 1.171 0 0 0 22.707 5.911 A 1.007 1.007 0 0 0 22.951 5.629 A 0.914 0.914 0 0 0 23.067 5.251 Z M 60.605 5.251 L 61.374 5.251 A 1.432 1.432 0 0 1 61.175 5.901 A 1.772 1.772 0 0 1 61.093 6.029 A 1.828 1.828 0 0 1 60.484 6.574 A 2.169 2.169 0 0 1 60.401 6.618 A 1.997 1.997 0 0 1 59.485 6.838 A 2.346 2.346 0 0 1 58.787 6.739 A 1.839 1.839 0 0 1 57.94 6.19 A 2.171 2.171 0 0 1 57.476 5.31 Q 57.366 4.909 57.366 4.417 L 57.366 4.28 A 3.24 3.24 0 0 1 57.43 3.624 A 2.57 2.57 0 0 1 57.621 3.045 A 2.008 2.008 0 0 1 58.061 2.431 A 1.892 1.892 0 0 1 58.353 2.206 A 1.943 1.943 0 0 1 59.109 1.934 A 2.529 2.529 0 0 1 59.48 1.907 A 2.196 2.196 0 0 1 60.128 1.999 A 1.786 1.786 0 0 1 60.809 2.386 A 1.693 1.693 0 0 1 61.368 3.535 A 2.239 2.239 0 0 1 61.374 3.63 L 60.605 3.63 Q 60.57 3.168 60.256 2.872 A 1.078 1.078 0 0 0 59.527 2.576 A 1.402 1.402 0 0 0 59.48 2.575 A 1.374 1.374 0 0 0 59.059 2.637 A 1.081 1.081 0 0 0 58.52 3.021 A 1.469 1.469 0 0 0 58.293 3.468 Q 58.227 3.674 58.2 3.923 A 3.514 3.514 0 0 0 58.179 4.311 L 58.179 4.465 Q 58.179 5.287 58.518 5.73 A 1.1 1.1 0 0 0 59.304 6.165 A 1.611 1.611 0 0 0 59.485 6.174 A 1.171 1.171 0 0 0 60.245 5.911 A 1.007 1.007 0 0 0 60.489 5.629 A 0.914 0.914 0 0 0 60.605 5.251 Z M 56.47 6.75 L 55.617 6.75 A 0.632 0.632 0 0 1 55.582 6.66 Q 55.551 6.562 55.526 6.41 A 3.997 3.997 0 0 1 55.503 6.249 Q 54.936 6.838 54.15 6.838 A 2.033 2.033 0 0 1 53.62 6.772 A 1.529 1.529 0 0 1 52.996 6.44 Q 52.546 6.042 52.546 5.432 Q 52.546 4.689 53.11 4.278 Q 53.675 3.867 54.699 3.867 L 55.49 3.867 L 55.49 3.494 A 1.152 1.152 0 0 0 55.454 3.199 A 0.828 0.828 0 0 0 55.235 2.815 Q 55.019 2.6 54.628 2.568 A 1.748 1.748 0 0 0 54.484 2.562 Q 54.048 2.562 53.754 2.782 Q 53.46 3.001 53.46 3.313 L 52.642 3.313 A 1.041 1.041 0 0 1 52.767 2.825 A 1.409 1.409 0 0 1 52.895 2.626 Q 53.148 2.294 53.58 2.101 A 2.249 2.249 0 0 1 54.356 1.913 A 2.669 2.669 0 0 1 54.532 1.907 A 2.65 2.65 0 0 1 55.049 1.955 Q 55.357 2.016 55.595 2.156 A 1.439 1.439 0 0 1 55.819 2.318 A 1.396 1.396 0 0 1 56.273 3.144 A 1.998 1.998 0 0 1 56.303 3.45 L 56.303 5.638 Q 56.303 6.073 56.377 6.39 A 1.707 1.707 0 0 0 56.47 6.68 L 56.47 6.75 Z M 93.296 6.75 L 92.444 6.75 A 0.632 0.632 0 0 1 92.408 6.66 Q 92.377 6.562 92.352 6.41 A 3.997 3.997 0 0 1 92.329 6.249 Q 91.762 6.838 90.976 6.838 A 2.033 2.033 0 0 1 90.446 6.772 A 1.529 1.529 0 0 1 89.822 6.44 Q 89.372 6.042 89.372 5.432 Q 89.372 4.689 89.936 4.278 Q 90.501 3.867 91.525 3.867 L 92.316 3.867 L 92.316 3.494 A 1.152 1.152 0 0 0 92.28 3.199 A 0.828 0.828 0 0 0 92.061 2.815 Q 91.845 2.6 91.455 2.568 A 1.748 1.748 0 0 0 91.31 2.562 Q 90.875 2.562 90.58 2.782 Q 90.286 3.001 90.286 3.313 L 89.468 3.313 A 1.041 1.041 0 0 1 89.593 2.825 A 1.409 1.409 0 0 1 89.721 2.626 Q 89.974 2.294 90.407 2.101 A 2.249 2.249 0 0 1 91.182 1.913 A 2.669 2.669 0 0 1 91.358 1.907 A 2.65 2.65 0 0 1 91.875 1.955 Q 92.183 2.016 92.422 2.156 A 1.439 1.439 0 0 1 92.646 2.318 A 1.396 1.396 0 0 1 93.099 3.144 A 1.998 1.998 0 0 1 93.129 3.45 L 93.129 5.638 Q 93.129 6.073 93.203 6.39 A 1.707 1.707 0 0 0 93.296 6.68 L 93.296 6.75 Z M 135.809 6.75 L 134.956 6.75 A 0.632 0.632 0 0 1 134.921 6.66 Q 134.889 6.562 134.865 6.41 A 3.997 3.997 0 0 1 134.842 6.249 Q 134.275 6.838 133.488 6.838 A 2.033 2.033 0 0 1 132.959 6.772 A 1.529 1.529 0 0 1 132.335 6.44 Q 131.884 6.042 131.884 5.432 Q 131.884 4.689 132.449 4.278 Q 133.014 3.867 134.038 3.867 L 134.829 3.867 L 134.829 3.494 A 1.152 1.152 0 0 0 134.793 3.199 A 0.828 0.828 0 0 0 134.574 2.815 Q 134.358 2.6 133.967 2.568 A 1.748 1.748 0 0 0 133.822 2.562 Q 133.387 2.562 133.093 2.782 Q 132.798 3.001 132.798 3.313 L 131.981 3.313 A 1.041 1.041 0 0 1 132.106 2.825 A 1.409 1.409 0 0 1 132.234 2.626 Q 132.486 2.294 132.919 2.101 A 2.249 2.249 0 0 1 133.695 1.913 A 2.669 2.669 0 0 1 133.871 1.907 A 2.65 2.65 0 0 1 134.388 1.955 Q 134.695 2.016 134.934 2.156 A 1.439 1.439 0 0 1 135.158 2.318 A 1.396 1.396 0 0 1 135.612 3.144 A 1.998 1.998 0 0 1 135.642 3.45 L 135.642 5.638 Q 135.642 6.073 135.715 6.39 A 1.707 1.707 0 0 0 135.809 6.68 L 135.809 6.75 Z M 5.397 4.504 L 5.397 4.355 A 3.17 3.17 0 0 1 5.473 3.646 A 2.581 2.581 0 0 1 5.667 3.092 A 2.191 2.191 0 0 1 6.114 2.466 A 2.033 2.033 0 0 1 6.423 2.221 Q 6.908 1.907 7.475 1.907 A 2.254 2.254 0 0 1 8.088 1.986 A 1.639 1.639 0 0 1 8.917 2.518 Q 9.431 3.129 9.431 4.267 L 9.431 4.605 L 6.21 4.605 A 2.111 2.111 0 0 0 6.281 5.114 A 1.516 1.516 0 0 0 6.621 5.741 A 1.282 1.282 0 0 0 7.555 6.173 A 1.652 1.652 0 0 0 7.62 6.174 A 1.763 1.763 0 0 0 7.948 6.145 Q 8.172 6.103 8.35 5.999 A 1.827 1.827 0 0 0 8.859 5.551 A 2.068 2.068 0 0 0 8.873 5.533 L 9.369 5.919 A 1.926 1.926 0 0 1 7.97 6.811 A 2.749 2.749 0 0 1 7.576 6.838 A 2.394 2.394 0 0 1 6.825 6.725 A 1.974 1.974 0 0 1 6.003 6.203 Q 5.397 5.568 5.397 4.504 Z M 24.544 4.504 L 24.544 4.355 A 3.17 3.17 0 0 1 24.62 3.646 A 2.581 2.581 0 0 1 24.814 3.092 A 2.191 2.191 0 0 1 25.261 2.466 A 2.033 2.033 0 0 1 25.57 2.221 Q 26.055 1.907 26.622 1.907 A 2.254 2.254 0 0 1 27.235 1.986 A 1.639 1.639 0 0 1 28.064 2.518 Q 28.578 3.129 28.578 4.267 L 28.578 4.605 L 25.357 4.605 A 2.111 2.111 0 0 0 25.428 5.114 A 1.516 1.516 0 0 0 25.767 5.741 A 1.282 1.282 0 0 0 26.702 6.173 A 1.652 1.652 0 0 0 26.767 6.174 A 1.763 1.763 0 0 0 27.095 6.145 Q 27.319 6.103 27.497 5.999 A 1.827 1.827 0 0 0 28.006 5.551 A 2.068 2.068 0 0 0 28.02 5.533 L 28.516 5.919 A 1.926 1.926 0 0 1 27.117 6.811 A 2.749 2.749 0 0 1 26.723 6.838 A 2.394 2.394 0 0 1 25.972 6.725 A 1.974 1.974 0 0 1 25.15 6.203 Q 24.544 5.568 24.544 4.504 Z M 64.266 4.504 L 64.266 4.355 A 3.17 3.17 0 0 1 64.342 3.646 A 2.581 2.581 0 0 1 64.536 3.092 A 2.191 2.191 0 0 1 64.983 2.466 A 2.033 2.033 0 0 1 65.292 2.221 Q 65.777 1.907 66.344 1.907 A 2.254 2.254 0 0 1 66.957 1.986 A 1.639 1.639 0 0 1 67.786 2.518 Q 68.3 3.129 68.3 4.267 L 68.3 4.605 L 65.079 4.605 A 2.111 2.111 0 0 0 65.15 5.114 A 1.516 1.516 0 0 0 65.49 5.741 A 1.282 1.282 0 0 0 66.424 6.173 A 1.652 1.652 0 0 0 66.489 6.174 A 1.763 1.763 0 0 0 66.818 6.145 Q 67.041 6.103 67.219 5.999 A 1.827 1.827 0 0 0 67.728 5.551 A 2.068 2.068 0 0 0 67.742 5.533 L 68.238 5.919 A 1.926 1.926 0 0 1 66.839 6.811 A 2.749 2.749 0 0 1 66.445 6.838 A 2.394 2.394 0 0 1 65.694 6.725 A 1.974 1.974 0 0 1 64.872 6.203 Q 64.266 5.568 64.266 4.504 Z M 109.872 4.504 L 109.872 4.355 A 3.17 3.17 0 0 1 109.948 3.646 A 2.581 2.581 0 0 1 110.142 3.092 A 2.191 2.191 0 0 1 110.59 2.466 A 2.033 2.033 0 0 1 110.898 2.221 Q 111.384 1.907 111.951 1.907 A 2.254 2.254 0 0 1 112.564 1.986 A 1.639 1.639 0 0 1 113.392 2.518 Q 113.906 3.129 113.906 4.267 L 113.906 4.605 L 110.685 4.605 A 2.111 2.111 0 0 0 110.756 5.114 A 1.516 1.516 0 0 0 111.096 5.741 A 1.282 1.282 0 0 0 112.03 6.173 A 1.652 1.652 0 0 0 112.096 6.174 A 1.763 1.763 0 0 0 112.424 6.145 Q 112.648 6.103 112.825 5.999 A 1.827 1.827 0 0 0 113.334 5.551 A 2.068 2.068 0 0 0 113.348 5.533 L 113.845 5.919 A 1.926 1.926 0 0 1 112.445 6.811 A 2.749 2.749 0 0 1 112.052 6.838 A 2.394 2.394 0 0 1 111.301 6.725 A 1.974 1.974 0 0 1 110.479 6.203 Q 109.872 5.568 109.872 4.504 Z M 122.81 4.504 L 122.81 4.355 A 3.17 3.17 0 0 1 122.886 3.646 A 2.581 2.581 0 0 1 123.08 3.092 A 2.191 2.191 0 0 1 123.527 2.466 A 2.033 2.033 0 0 1 123.836 2.221 Q 124.321 1.907 124.888 1.907 A 2.254 2.254 0 0 1 125.501 1.986 A 1.639 1.639 0 0 1 126.33 2.518 Q 126.844 3.129 126.844 4.267 L 126.844 4.605 L 123.623 4.605 A 2.111 2.111 0 0 0 123.694 5.114 A 1.516 1.516 0 0 0 124.034 5.741 A 1.282 1.282 0 0 0 124.968 6.173 A 1.652 1.652 0 0 0 125.033 6.174 A 1.763 1.763 0 0 0 125.362 6.145 Q 125.585 6.103 125.763 5.999 A 1.827 1.827 0 0 0 126.272 5.551 A 2.068 2.068 0 0 0 126.286 5.533 L 126.782 5.919 A 1.926 1.926 0 0 1 125.383 6.811 A 2.749 2.749 0 0 1 124.989 6.838 A 2.394 2.394 0 0 1 124.238 6.725 A 1.974 1.974 0 0 1 123.416 6.203 Q 122.81 5.568 122.81 4.504 Z M 154.639 0.352 L 154.639 6.06 L 157.672 6.06 L 157.672 6.75 L 153.791 6.75 L 153.791 0.352 L 154.639 0.352 Z M 13.856 1.995 L 15.065 5.647 L 16.242 1.995 L 17.073 1.995 L 15.368 6.75 L 14.748 6.75 L 13.026 1.995 L 13.856 1.995 Z M 128.088 1.995 L 129.296 5.647 L 130.474 1.995 L 131.304 1.995 L 129.599 6.75 L 128.98 6.75 L 127.257 1.995 L 128.088 1.995 Z M 144.677 0.352 L 144.677 4.601 L 145.565 4.601 L 145.565 5.265 L 144.677 5.265 L 144.677 6.75 L 143.86 6.75 L 143.86 5.265 L 140.946 5.265 L 140.946 4.786 L 143.811 0.352 L 144.677 0.352 Z M 150.075 2.592 A 1.544 1.544 0 0 0 150.179 2.021 A 2.226 2.226 0 0 0 150.157 1.707 A 1.566 1.566 0 0 0 149.658 0.738 A 1.754 1.754 0 0 0 148.892 0.333 A 2.443 2.443 0 0 0 148.294 0.264 A 2.539 2.539 0 0 0 147.784 0.312 A 1.767 1.767 0 0 0 146.927 0.738 Q 146.408 1.213 146.408 2.021 A 1.808 1.808 0 0 0 146.409 2.058 A 1.499 1.499 0 0 0 146.654 2.87 A 1.626 1.626 0 0 0 146.816 3.077 A 1.726 1.726 0 0 0 147.327 3.454 A 2.119 2.119 0 0 0 147.227 3.5 A 1.738 1.738 0 0 0 146.542 4.087 A 1.629 1.629 0 0 0 146.259 5.023 A 2.272 2.272 0 0 0 146.269 5.237 A 1.63 1.63 0 0 0 146.815 6.344 A 1.895 1.895 0 0 0 147.665 6.771 A 2.797 2.797 0 0 0 148.294 6.838 A 2.796 2.796 0 0 0 148.893 6.777 A 1.925 1.925 0 0 0 149.768 6.346 A 1.578 1.578 0 0 0 150.243 5.62 A 1.989 1.989 0 0 0 150.328 5.023 A 1.581 1.581 0 0 0 150.036 4.087 Q 149.744 3.674 149.243 3.458 Q 149.673 3.248 149.926 2.874 A 1.449 1.449 0 0 0 150.075 2.592 Z M 86.858 0.844 L 87.671 0.844 L 87.671 1.995 L 88.559 1.995 L 88.559 2.624 L 87.671 2.624 L 87.671 5.572 Q 87.671 5.858 87.79 6.001 Q 87.908 6.144 88.194 6.144 A 1.046 1.046 0 0 0 88.292 6.138 Q 88.394 6.129 88.534 6.101 A 4.024 4.024 0 0 0 88.581 6.091 L 88.581 6.75 A 2.463 2.463 0 0 1 88.148 6.829 A 2.157 2.157 0 0 1 87.957 6.838 Q 87.51 6.838 87.243 6.616 A 0.856 0.856 0 0 1 87.135 6.508 Q 86.908 6.238 86.867 5.78 A 2.351 2.351 0 0 1 86.858 5.572 L 86.858 2.624 L 85.992 2.624 L 85.992 1.995 L 86.858 1.995 L 86.858 0.844 Z M 99.659 0.844 L 100.472 0.844 L 100.472 1.995 L 101.36 1.995 L 101.36 2.624 L 100.472 2.624 L 100.472 5.572 Q 100.472 5.858 100.591 6.001 Q 100.71 6.144 100.995 6.144 A 1.046 1.046 0 0 0 101.093 6.138 Q 101.196 6.129 101.335 6.101 A 4.024 4.024 0 0 0 101.382 6.091 L 101.382 6.75 A 2.463 2.463 0 0 1 100.949 6.829 A 2.157 2.157 0 0 1 100.758 6.838 Q 100.311 6.838 100.044 6.616 A 0.856 0.856 0 0 1 99.936 6.508 Q 99.709 6.238 99.668 5.78 A 2.351 2.351 0 0 1 99.659 5.572 L 99.659 2.624 L 98.794 2.624 L 98.794 1.995 L 99.659 1.995 L 99.659 0.844 Z M 115.137 0.844 L 115.95 0.844 L 115.95 1.995 L 116.838 1.995 L 116.838 2.624 L 115.95 2.624 L 115.95 5.572 Q 115.95 5.858 116.069 6.001 Q 116.187 6.144 116.473 6.144 A 1.046 1.046 0 0 0 116.57 6.138 Q 116.673 6.129 116.813 6.101 A 4.024 4.024 0 0 0 116.86 6.091 L 116.86 6.75 A 2.463 2.463 0 0 1 116.427 6.829 A 2.157 2.157 0 0 1 116.235 6.838 Q 115.788 6.838 115.522 6.616 A 0.856 0.856 0 0 1 115.414 6.508 Q 115.186 6.238 115.146 5.78 A 2.351 2.351 0 0 1 115.137 5.572 L 115.137 2.624 L 114.271 2.624 L 114.271 1.995 L 115.137 1.995 L 115.137 0.844 Z M 170.987 0.844 L 171.8 0.844 L 171.8 1.995 L 172.688 1.995 L 172.688 2.624 L 171.8 2.624 L 171.8 5.572 Q 171.8 5.858 171.919 6.001 Q 172.037 6.144 172.323 6.144 A 1.046 1.046 0 0 0 172.42 6.138 Q 172.523 6.129 172.663 6.101 A 4.024 4.024 0 0 0 172.71 6.091 L 172.71 6.75 A 2.463 2.463 0 0 1 172.277 6.829 A 2.157 2.157 0 0 1 172.086 6.838 Q 171.638 6.838 171.372 6.616 A 0.856 0.856 0 0 1 171.264 6.508 Q 171.036 6.238 170.996 5.78 A 2.351 2.351 0 0 1 170.987 5.572 L 170.987 2.624 L 170.121 2.624 L 170.121 1.995 L 170.987 1.995 L 170.987 0.844 Z M 51.381 0 L 51.381 6.75 L 50.568 6.75 L 50.568 0 L 51.381 0 Z M 137.799 0 L 137.799 6.75 L 136.986 6.75 L 136.986 0 L 137.799 0 Z M 12.67 1.969 L 12.67 2.725 A 2.251 2.251 0 0 0 12.427 2.698 A 2.782 2.782 0 0 0 12.27 2.694 Q 11.492 2.694 11.2 3.338 A 1.445 1.445 0 0 0 11.184 3.375 L 11.184 6.75 L 10.371 6.75 L 10.371 1.995 L 11.162 1.995 L 11.175 2.544 Q 11.556 1.938 12.238 1.909 A 1.636 1.636 0 0 1 12.309 1.907 Q 12.547 1.907 12.67 1.969 Z M 71.539 1.969 L 71.539 2.725 A 2.251 2.251 0 0 0 71.296 2.698 A 2.782 2.782 0 0 0 71.139 2.694 Q 70.361 2.694 70.069 3.338 A 1.445 1.445 0 0 0 70.053 3.375 L 70.053 6.75 L 69.24 6.75 L 69.24 1.995 L 70.031 1.995 L 70.045 2.544 Q 70.425 1.938 71.107 1.909 A 1.636 1.636 0 0 1 71.178 1.907 Q 71.416 1.907 71.539 1.969 Z M 120.085 1.969 L 120.085 2.725 A 2.251 2.251 0 0 0 119.842 2.698 A 2.782 2.782 0 0 0 119.685 2.694 Q 118.907 2.694 118.616 3.338 A 1.445 1.445 0 0 0 118.6 3.375 L 118.6 6.75 L 117.787 6.75 L 117.787 1.995 L 118.578 1.995 L 118.591 2.544 Q 118.971 1.938 119.654 1.909 A 1.636 1.636 0 0 1 119.725 1.907 Q 119.962 1.907 120.085 1.969 Z M 75.547 0.352 L 75.547 6.75 L 74.703 6.75 L 74.703 0.352 L 75.547 0.352 Z M 18.738 1.995 L 18.738 6.75 L 17.925 6.75 L 17.925 1.995 L 18.738 1.995 Z M 63.172 1.995 L 63.172 6.75 L 62.359 6.75 L 62.359 1.995 L 63.172 1.995 Z M 121.715 1.995 L 121.715 6.75 L 120.902 6.75 L 120.902 1.995 L 121.715 1.995 Z M 159.39 1.995 L 159.39 6.75 L 158.577 6.75 L 158.577 1.995 L 159.39 1.995 Z M 163.696 5.449 L 163.696 3.278 A 1.439 1.439 0 0 0 163.395 2.891 Q 163.092 2.62 162.651 2.599 A 1.578 1.578 0 0 0 162.576 2.597 Q 161.984 2.597 161.65 3.056 A 1.51 1.51 0 0 0 161.439 3.484 Q 161.374 3.689 161.342 3.939 A 3.955 3.955 0 0 0 161.315 4.425 Q 161.315 5.229 161.644 5.689 Q 161.974 6.148 162.567 6.148 A 1.32 1.32 0 0 0 163.077 6.054 Q 163.468 5.891 163.696 5.449 Z M 105.508 1.046 L 105.508 3.472 L 106.805 3.472 Q 107.345 3.472 107.695 3.231 A 1.174 1.174 0 0 0 107.805 3.146 A 1.069 1.069 0 0 0 108.17 2.409 A 1.486 1.486 0 0 0 108.176 2.276 Q 108.176 1.734 107.88 1.423 A 1 1 0 0 0 107.822 1.367 Q 107.468 1.05 106.8 1.046 L 105.508 1.046 Z M 143.763 1.639 L 141.869 4.601 L 143.86 4.601 L 143.86 1.463 L 143.763 1.639 Z M 149.515 5.005 A 1.375 1.375 0 0 0 149.456 4.592 A 1.109 1.109 0 0 0 149.175 4.131 A 1.148 1.148 0 0 0 148.503 3.807 A 1.593 1.593 0 0 0 148.285 3.792 A 1.466 1.466 0 0 0 147.896 3.841 A 1.086 1.086 0 0 0 147.404 4.126 A 1.123 1.123 0 0 0 147.09 4.762 A 1.572 1.572 0 0 0 147.072 5.005 A 1.48 1.48 0 0 0 147.114 5.367 A 1.019 1.019 0 0 0 147.395 5.862 Q 147.701 6.158 148.234 6.173 A 2.053 2.053 0 0 0 148.294 6.174 Q 148.787 6.174 149.097 5.94 A 1.018 1.018 0 0 0 149.19 5.86 A 1.041 1.041 0 0 0 149.489 5.292 A 1.518 1.518 0 0 0 149.515 5.005 Z M 148.294 0.932 A 1.259 1.259 0 0 0 147.941 0.979 A 0.973 0.973 0 0 0 147.518 1.228 Q 147.221 1.525 147.221 2.035 A 1.325 1.325 0 0 0 147.266 2.387 A 0.994 0.994 0 0 0 147.514 2.823 A 0.974 0.974 0 0 0 148.076 3.108 A 1.382 1.382 0 0 0 148.294 3.125 A 1.279 1.279 0 0 0 148.638 3.08 A 0.952 0.952 0 0 0 149.074 2.823 A 1.018 1.018 0 0 0 149.349 2.26 A 1.426 1.426 0 0 0 149.366 2.035 A 1.282 1.282 0 0 0 149.316 1.668 A 1.013 1.013 0 0 0 149.063 1.239 Q 148.759 0.932 148.294 0.932 Z M 55.49 5.418 L 55.49 4.443 L 54.853 4.443 Q 53.359 4.443 53.359 5.317 Q 53.359 5.7 53.613 5.915 A 0.893 0.893 0 0 0 54.027 6.108 A 1.259 1.259 0 0 0 54.268 6.13 A 1.429 1.429 0 0 0 54.993 5.933 A 1.335 1.335 0 0 0 55.289 5.705 A 1.108 1.108 0 0 0 55.49 5.418 Z M 92.316 5.418 L 92.316 4.443 L 91.679 4.443 Q 90.185 4.443 90.185 5.317 Q 90.185 5.7 90.44 5.915 A 0.893 0.893 0 0 0 90.853 6.108 A 1.259 1.259 0 0 0 91.094 6.13 A 1.429 1.429 0 0 0 91.819 5.933 A 1.335 1.335 0 0 0 92.115 5.705 A 1.108 1.108 0 0 0 92.316 5.418 Z M 134.829 5.418 L 134.829 4.443 L 134.192 4.443 Q 132.697 4.443 132.697 5.317 Q 132.697 5.7 132.952 5.915 A 0.893 0.893 0 0 0 133.366 6.108 A 1.259 1.259 0 0 0 133.607 6.13 A 1.429 1.429 0 0 0 134.332 5.933 A 1.335 1.335 0 0 0 134.628 5.705 A 1.108 1.108 0 0 0 134.829 5.418 Z M 6.236 3.938 L 8.618 3.938 L 8.618 3.876 Q 8.592 3.417 8.421 3.111 A 1.13 1.13 0 0 0 8.284 2.916 A 0.983 0.983 0 0 0 7.629 2.584 A 1.39 1.39 0 0 0 7.475 2.575 A 1.106 1.106 0 0 0 6.953 2.698 A 1.14 1.14 0 0 0 6.649 2.933 A 1.417 1.417 0 0 0 6.372 3.379 Q 6.299 3.563 6.259 3.785 A 2.741 2.741 0 0 0 6.236 3.938 Z M 25.383 3.938 L 27.765 3.938 L 27.765 3.876 Q 27.739 3.417 27.568 3.111 A 1.13 1.13 0 0 0 27.431 2.916 A 0.983 0.983 0 0 0 26.776 2.584 A 1.39 1.39 0 0 0 26.622 2.575 A 1.106 1.106 0 0 0 26.1 2.698 A 1.14 1.14 0 0 0 25.796 2.933 A 1.417 1.417 0 0 0 25.519 3.379 Q 25.446 3.563 25.406 3.785 A 2.741 2.741 0 0 0 25.383 3.938 Z M 65.105 3.938 L 67.487 3.938 L 67.487 3.876 Q 67.461 3.417 67.29 3.111 A 1.13 1.13 0 0 0 67.153 2.916 A 0.983 0.983 0 0 0 66.499 2.584 A 1.39 1.39 0 0 0 66.344 2.575 A 1.106 1.106 0 0 0 65.822 2.698 A 1.14 1.14 0 0 0 65.518 2.933 A 1.417 1.417 0 0 0 65.242 3.379 Q 65.168 3.563 65.128 3.785 A 2.741 2.741 0 0 0 65.105 3.938 Z M 110.712 3.938 L 113.093 3.938 L 113.093 3.876 Q 113.067 3.417 112.897 3.111 A 1.13 1.13 0 0 0 112.759 2.916 A 0.983 0.983 0 0 0 112.105 2.584 A 1.39 1.39 0 0 0 111.951 2.575 A 1.106 1.106 0 0 0 111.428 2.698 A 1.14 1.14 0 0 0 111.125 2.933 A 1.417 1.417 0 0 0 110.848 3.379 Q 110.774 3.563 110.734 3.785 A 2.741 2.741 0 0 0 110.712 3.938 Z M 123.649 3.938 L 126.031 3.938 L 126.031 3.876 Q 126.005 3.417 125.834 3.111 A 1.13 1.13 0 0 0 125.697 2.916 A 0.983 0.983 0 0 0 125.042 2.584 A 1.39 1.39 0 0 0 124.888 2.575 A 1.106 1.106 0 0 0 124.366 2.698 A 1.14 1.14 0 0 0 124.062 2.933 A 1.417 1.417 0 0 0 123.786 3.379 Q 123.712 3.563 123.672 3.785 A 2.741 2.741 0 0 0 123.649 3.938 Z M 17.86 0.734 Q 17.86 0.536 17.98 0.4 Q 18.092 0.274 18.304 0.264 A 0.783 0.783 0 0 1 18.339 0.264 Q 18.576 0.264 18.699 0.4 A 0.474 0.474 0 0 1 18.821 0.703 A 0.614 0.614 0 0 1 18.822 0.734 A 0.523 0.523 0 0 1 18.797 0.9 A 0.442 0.442 0 0 1 18.699 1.063 Q 18.586 1.184 18.378 1.194 A 0.803 0.803 0 0 1 18.339 1.195 Q 18.166 1.195 18.055 1.126 A 0.362 0.362 0 0 1 17.98 1.063 A 0.456 0.456 0 0 1 17.862 0.788 A 0.605 0.605 0 0 1 17.86 0.734 Z M 62.293 0.734 Q 62.293 0.536 62.413 0.4 Q 62.525 0.274 62.737 0.264 A 0.783 0.783 0 0 1 62.772 0.264 Q 63.009 0.264 63.132 0.4 A 0.474 0.474 0 0 1 63.254 0.703 A 0.614 0.614 0 0 1 63.255 0.734 A 0.523 0.523 0 0 1 63.23 0.9 A 0.442 0.442 0 0 1 63.132 1.063 Q 63.019 1.184 62.811 1.194 A 0.803 0.803 0 0 1 62.772 1.195 Q 62.599 1.195 62.488 1.126 A 0.362 0.362 0 0 1 62.413 1.063 A 0.456 0.456 0 0 1 62.295 0.788 A 0.605 0.605 0 0 1 62.293 0.734 Z M 120.837 0.734 Q 120.837 0.536 120.957 0.4 Q 121.069 0.274 121.281 0.264 A 0.783 0.783 0 0 1 121.316 0.264 Q 121.553 0.264 121.676 0.4 A 0.474 0.474 0 0 1 121.798 0.703 A 0.614 0.614 0 0 1 121.799 0.734 A 0.523 0.523 0 0 1 121.774 0.9 A 0.442 0.442 0 0 1 121.676 1.063 Q 121.563 1.184 121.355 1.194 A 0.803 0.803 0 0 1 121.316 1.195 Q 121.143 1.195 121.032 1.126 A 0.362 0.362 0 0 1 120.957 1.063 A 0.456 0.456 0 0 1 120.839 0.788 A 0.605 0.605 0 0 1 120.837 0.734 Z M 158.511 0.734 Q 158.511 0.536 158.632 0.4 Q 158.744 0.274 158.955 0.264 A 0.783 0.783 0 0 1 158.99 0.264 Q 159.227 0.264 159.35 0.4 A 0.474 0.474 0 0 1 159.473 0.703 A 0.614 0.614 0 0 1 159.473 0.734 A 0.523 0.523 0 0 1 159.448 0.9 A 0.442 0.442 0 0 1 159.35 1.063 Q 159.238 1.184 159.03 1.194 A 0.803 0.803 0 0 1 158.99 1.195 Q 158.818 1.195 158.707 1.126 A 0.362 0.362 0 0 1 158.632 1.063 A 0.456 0.456 0 0 1 158.513 0.788 A 0.605 0.605 0 0 1 158.511 0.734 Z" vector-effect="non-scaling-stroke"/></g>
</svgversion="1.0" encoding="UTF-8"?>
<svg width="48px" height="48px" viewBox="0 0 48 48" version="1.1" xmlns="http://www.w3.org/2000/svg" xmlns:xlink="http://www.w3.org/1999/xlink">
    <title>Icon-Resource/Storage/Res_Icon-Amazon-S3_CN-Nightfall_48_Light</title>
    <g id="Icon-Resource/Storage/Res_Icon-Amazon-S3_CN-Nightfall_48" stroke="none" stroke-width="1" fill="none" fill-rule="evenodd">
        <path transform="translate(0vw, 0vh), scale(.65)" d="M8.17216744,21.129 C8.46316744,21.129 8.73916744,21.255 8.93016744,21.476 C9.11916744,21.696 9.20416744,21.988 9.16116744,22.276 C8.91316744,23.939 8.66616744,25.694 8.47016744,27.191 C9.10416744,26.147 9.80916744,24.967 10.4741674,23.837 L13.4281674,18.128 L11.0891674,18.129 C10.7741674,18.129 10.4771674,17.98 10.2871674,17.727 C10.0991674,17.475 10.0401674,17.148 10.1301674,16.845 L12.1201674,10.129 L5.52616744,10.129 L4.03516744,21.129 L8.17216744,21.129 Z M7.10316744,32.129 C6.81216744,32.129 6.52516744,31.997 6.33416744,31.776 C5.99316744,31.38 5.82916744,31.191 7.01316744,23.129 L3.77716744,23.129 C3.28716744,23.129 2.76116744,22.891 2.43616744,22.523 C2.11316744,22.161 1.95716744,21.672 2.01016744,21.185 L3.56316744,9.764 C3.65716744,8.89 4.46816744,8.129 5.33016744,8.129 L12.4321674,8.129 C13.0071674,8.129 13.5471674,8.411 13.8781674,8.884 C14.2041674,9.352 14.2861674,9.953 14.0981674,10.493 L12.4281674,16.129 L13.9401674,16.129 C14.4181674,16.093 14.9291674,16.315 15.2651674,16.707 C15.6031674,17.099 15.7311674,17.633 15.6171674,18.171 C15.5991674,18.258 15.5681674,18.343 15.5271674,18.423 L12.2231674,24.805 C7.91216744,32.129 7.80516744,32.129 7.10316744,32.129 L7.10316744,32.129 Z M45.8391674,36.435 L44.4431674,35.003 L42.2621674,37.129 L39.1141674,37.129 L40.7351674,34.317 L43.5911674,33.552 L43.0731674,31.621 L40.7561674,32.241 L40.1741674,29.957 L38.2361674,30.45 L38.9771674,33.362 L37.3971674,36.103 L35.7881674,33.321 L36.5541674,30.462 L34.6221674,29.945 L34.0011674,32.262 L31.7321674,31.624 L31.1911674,33.549 L34.0801674,34.362 L35.6811674,37.129 L32.4761674,37.129 L30.3601674,35.012 L28.9451674,36.426 L30.6421674,38.123 L28.9541674,39.769 L30.3511674,41.2 L32.4741674,39.129 L35.6491674,39.129 L34.0541674,41.887 L31.2021674,42.651 L31.7201674,44.583 L34.0371674,43.962 L34.6191674,46.246 L36.5571674,45.753 L35.8151674,42.836 L37.3971674,40.101 L39.0041674,42.887 L38.2391674,45.741 L40.1711674,46.258 L40.7921674,43.941 L43.0621674,44.579 L43.6031674,42.654 L40.7081674,41.84 L39.1451674,39.129 L42.3711674,39.129 L44.4341674,41.191 L45.8481674,39.777 L44.1511674,38.081 L45.8391674,36.435 Z M41.6041674,24.429 L41.3131674,26.068 C43.0691674,26.508 43.8401674,26.479 44.1401674,26.423 C43.9601674,26.146 43.3781674,25.502 41.6041674,24.429 L41.6041674,24.429 Z M8.23816744,6.992 L7.31716744,5.218 C11.1371674,3.233 17.4751674,2 23.8561674,2 C33.2551674,2 43.7281674,4.9 43.7281674,9.063 C43.7281674,9.107 43.7251674,9.151 43.7191674,9.195 L43.6671674,9.583 C43.6641674,9.606 43.6581674,9.628 43.6541674,9.651 L41.9511674,22.317 C44.6461674,23.852 45.9721674,25.069 46.1881674,26.221 C46.2871674,26.756 46.1501674,27.28 45.8001674,27.696 C45.3751674,28.203 44.7081674,28.4550034 43.7191674,28.4550034 C42.8011674,28.456 41.6051674,28.238 40.0661674,27.806 C35.3141674,26.483 28.5281674,23.408 25.1641674,21.821 C24.8571674,22.013 24.4971674,22.129 24.1101674,22.129 C23.0071674,22.129 22.1101674,21.232 22.1101674,20.129 C22.1101674,19.026 23.0071674,18.129 24.1101674,18.129 C25.1861674,18.129 26.0601674,18.985 26.1021674,20.052 C28.8371674,21.338 34.8311674,24.068 39.3811674,25.512 L39.8851674,22.678 L41.2841674,12.269 C37.6701674,14.375 30.5941674,15.466 23.8561674,15.466 C20.9971674,15.466 18.0931674,15.265 15.4571674,14.884 L15.7421674,12.905 C18.2861674,13.272 21.0921674,13.466 23.8561674,13.466 C34.1341674,13.466 41.1181674,11.025 41.6941674,9.246 L41.7261674,9.011 C41.5871674,7.222 34.2581674,4 23.8561674,4 C17.8681674,4 11.7381674,5.174 8.23816744,6.992 L8.23816744,6.992 Z M29.6651674,43.631 L29.9191674,45.615 C27.9251674,45.87 25.8871674,46 23.8601674,46 C17.8721674,46 8.39716744,44.629 8.26616744,40.956 L7.29716744,33.75 L9.27916744,33.483 L10.2561674,40.745 C10.2621674,40.79 10.2651674,40.834 10.2651674,40.879 C10.2651674,41.832 15.4011674,44 23.8601674,44 C25.8021674,44 27.7551674,43.876 29.6651674,43.631 L29.6651674,43.631 Z" id="Fill-1" fill="#000000"></path>
    </g><g transform="translate(12vw, 80vh)" id="svgGroup" stroke-linecap="round" fill-rule="evenodd" font-size="9pt" stroke="#000" stroke-width="0.25mm" fill="#000" style="stroke:#000;stroke-width:0.25mm;fill:#000"><path d="M 7.783 1.995 L 8.552 1.995 L 8.574 2.522 Q 9.097 1.907 9.985 1.907 A 2.009 2.009 0 0 1 10.495 1.968 A 1.244 1.244 0 0 1 11.342 2.672 A 1.801 1.801 0 0 1 11.96 2.118 A 1.65 1.65 0 0 1 12.489 1.937 A 2.209 2.209 0 0 1 12.859 1.907 A 2.119 2.119 0 0 1 13.503 1.997 Q 14.429 2.292 14.449 3.564 L 14.449 6.75 L 13.636 6.75 L 13.636 3.612 A 1.781 1.781 0 0 0 13.616 3.332 Q 13.592 3.185 13.542 3.067 A 0.758 0.758 0 0 0 13.403 2.85 A 0.68 0.68 0 0 0 13.151 2.682 Q 12.939 2.597 12.622 2.597 A 1.245 1.245 0 0 0 12.256 2.648 A 1.008 1.008 0 0 0 11.87 2.867 A 1.042 1.042 0 0 0 11.556 3.404 A 1.41 1.41 0 0 0 11.523 3.595 L 11.523 6.75 L 10.705 6.75 L 10.705 3.634 A 1.532 1.532 0 0 0 10.657 3.23 Q 10.53 2.768 10.073 2.643 A 1.457 1.457 0 0 0 9.69 2.597 Q 8.916 2.597 8.616 3.234 A 1.459 1.459 0 0 0 8.596 3.278 L 8.596 6.75 L 7.783 6.75 L 7.783 1.995 Z M 4.636 2.202 L 3.788 2.202 A 1.466 1.466 0 0 0 3.738 1.809 A 1.066 1.066 0 0 0 3.419 1.29 A 1.211 1.211 0 0 0 2.95 1.033 Q 2.698 0.958 2.378 0.958 A 2.286 2.286 0 0 0 1.998 0.988 Q 1.796 1.022 1.633 1.095 A 1.101 1.101 0 0 0 1.404 1.233 A 0.892 0.892 0 0 0 1.059 1.887 A 1.267 1.267 0 0 0 1.055 1.995 A 0.806 0.806 0 0 0 1.323 2.6 A 1.134 1.134 0 0 0 1.387 2.656 A 1.562 1.562 0 0 0 1.625 2.813 Q 1.955 2.993 2.516 3.151 A 8.228 8.228 0 0 1 2.981 3.295 Q 3.216 3.377 3.41 3.464 A 3.297 3.297 0 0 1 3.764 3.645 A 2.342 2.342 0 0 1 4.103 3.889 Q 4.293 4.056 4.415 4.248 A 1.45 1.45 0 0 1 4.432 4.276 A 1.498 1.498 0 0 1 4.628 4.832 A 1.948 1.948 0 0 1 4.65 5.124 A 1.606 1.606 0 0 1 4.527 5.76 Q 4.382 6.101 4.064 6.354 A 1.886 1.886 0 0 1 4.043 6.37 Q 3.437 6.838 2.422 6.838 A 3.023 3.023 0 0 1 1.281 6.623 A 2.917 2.917 0 0 1 1.191 6.585 A 2.383 2.383 0 0 1 0.713 6.307 A 1.874 1.874 0 0 1 0.31 5.893 A 1.689 1.689 0 0 1 0 4.896 L 0.848 4.896 A 1.261 1.261 0 0 0 0.918 5.323 A 1.074 1.074 0 0 0 1.277 5.812 Q 1.661 6.113 2.278 6.144 A 2.87 2.87 0 0 0 2.422 6.148 A 2.628 2.628 0 0 0 2.809 6.121 Q 3.005 6.092 3.164 6.031 A 1.129 1.129 0 0 0 3.445 5.875 Q 3.801 5.603 3.801 5.133 A 1.074 1.074 0 0 0 3.759 4.822 A 0.816 0.816 0 0 0 3.472 4.406 Q 3.142 4.148 2.277 3.898 Q 1.191 3.586 0.697 3.131 Q 0.202 2.676 0.202 2.008 Q 0.202 1.252 0.807 0.758 A 2.121 2.121 0 0 1 1.697 0.335 A 3.087 3.087 0 0 1 2.378 0.264 A 2.913 2.913 0 0 1 3.038 0.336 A 2.372 2.372 0 0 1 3.553 0.519 A 2.051 2.051 0 0 1 4.084 0.889 A 1.834 1.834 0 0 1 4.353 1.222 A 1.798 1.798 0 0 1 4.636 2.202 Z M 34.277 2.202 L 33.429 2.202 A 1.466 1.466 0 0 0 33.38 1.809 A 1.066 1.066 0 0 0 33.06 1.29 A 1.211 1.211 0 0 0 32.591 1.033 Q 32.339 0.958 32.019 0.958 A 2.286 2.286 0 0 0 31.639 0.988 Q 31.437 1.022 31.274 1.095 A 1.101 1.101 0 0 0 31.045 1.233 A 0.892 0.892 0 0 0 30.7 1.887 A 1.267 1.267 0 0 0 30.696 1.995 A 0.806 0.806 0 0 0 30.964 2.6 A 1.134 1.134 0 0 0 31.028 2.656 A 1.562 1.562 0 0 0 31.266 2.813 Q 31.596 2.993 32.157 3.151 A 8.228 8.228 0 0 1 32.622 3.295 Q 32.857 3.377 33.051 3.464 A 3.297 3.297 0 0 1 33.405 3.645 A 2.342 2.342 0 0 1 33.744 3.889 Q 33.934 4.056 34.056 4.248 A 1.45 1.45 0 0 1 34.073 4.276 A 1.498 1.498 0 0 1 34.269 4.832 A 1.948 1.948 0 0 1 34.291 5.124 A 1.606 1.606 0 0 1 34.168 5.76 Q 34.023 6.101 33.705 6.354 A 1.886 1.886 0 0 1 33.684 6.37 Q 33.078 6.838 32.063 6.838 A 3.023 3.023 0 0 1 30.922 6.623 A 2.917 2.917 0 0 1 30.832 6.585 A 2.383 2.383 0 0 1 30.354 6.307 A 1.874 1.874 0 0 1 29.951 5.893 A 1.689 1.689 0 0 1 29.641 4.896 L 30.489 4.896 A 1.261 1.261 0 0 0 30.559 5.323 A 1.074 1.074 0 0 0 30.918 5.812 Q 31.302 6.113 31.919 6.144 A 2.87 2.87 0 0 0 32.063 6.148 A 2.628 2.628 0 0 0 32.45 6.121 Q 32.646 6.092 32.805 6.031 A 1.129 1.129 0 0 0 33.087 5.875 Q 33.443 5.603 33.443 5.133 A 1.074 1.074 0 0 0 33.4 4.822 A 0.816 0.816 0 0 0 33.113 4.406 Q 32.783 4.148 31.918 3.898 Q 30.832 3.586 30.338 3.131 Q 29.843 2.676 29.843 2.008 Q 29.843 1.252 30.448 0.758 A 2.121 2.121 0 0 1 31.338 0.335 A 3.087 3.087 0 0 1 32.019 0.264 A 2.913 2.913 0 0 1 32.679 0.336 A 2.372 2.372 0 0 1 33.194 0.519 A 2.051 2.051 0 0 1 33.725 0.889 A 1.834 1.834 0 0 1 33.994 1.222 A 1.798 1.798 0 0 1 34.277 2.202 Z M 54.035 2.522 L 54.075 1.995 L 54.818 1.995 L 54.818 6.636 A 2.511 2.511 0 0 1 54.747 7.249 A 1.738 1.738 0 0 1 54.27 8.09 A 1.834 1.834 0 0 1 53.341 8.57 A 2.671 2.671 0 0 1 52.8 8.622 A 2.446 2.446 0 0 1 51.794 8.402 A 2.003 2.003 0 0 1 51.384 8.161 A 1.563 1.563 0 0 1 51.043 7.8 L 51.465 7.313 A 1.889 1.889 0 0 0 51.899 7.712 A 1.514 1.514 0 0 0 52.743 7.958 A 1.695 1.695 0 0 0 53.12 7.919 Q 53.389 7.858 53.583 7.702 A 1.037 1.037 0 0 0 53.668 7.625 A 1.09 1.09 0 0 0 53.945 7.132 Q 53.992 6.959 53.999 6.752 A 2.134 2.134 0 0 0 54 6.684 L 54 6.275 A 1.601 1.601 0 0 1 52.948 6.821 A 2.279 2.279 0 0 1 52.669 6.838 A 1.672 1.672 0 0 1 51.913 6.67 Q 51.591 6.51 51.342 6.197 A 2.14 2.14 0 0 1 51.317 6.166 A 2.316 2.316 0 0 1 50.934 5.386 Q 50.801 4.922 50.801 4.333 Q 50.801 3.472 51.109 2.884 A 2.096 2.096 0 0 1 51.315 2.564 Q 51.829 1.907 52.677 1.907 A 1.971 1.971 0 0 1 53.276 1.994 A 1.55 1.55 0 0 1 54.035 2.522 Z M 49.887 6.75 L 49.034 6.75 A 0.632 0.632 0 0 1 48.999 6.66 Q 48.968 6.562 48.943 6.41 A 3.997 3.997 0 0 1 48.92 6.249 Q 48.353 6.838 47.567 6.838 A 2.033 2.033 0 0 1 47.037 6.772 A 1.529 1.529 0 0 1 46.413 6.44 Q 45.963 6.042 45.963 5.432 Q 45.963 4.689 46.527 4.278 Q 47.092 3.867 48.116 3.867 L 48.907 3.867 L 48.907 3.494 A 1.152 1.152 0 0 0 48.871 3.199 A 0.828 0.828 0 0 0 48.652 2.815 Q 48.436 2.6 48.045 2.568 A 1.748 1.748 0 0 0 47.901 2.562 Q 47.465 2.562 47.171 2.782 Q 46.877 3.001 46.877 3.313 L 46.059 3.313 A 1.041 1.041 0 0 1 46.184 2.825 A 1.409 1.409 0 0 1 46.312 2.626 Q 46.565 2.294 46.997 2.101 A 2.249 2.249 0 0 1 47.773 1.913 A 2.669 2.669 0 0 1 47.949 1.907 A 2.65 2.65 0 0 1 48.466 1.955 Q 48.774 2.016 49.012 2.156 A 1.439 1.439 0 0 1 49.236 2.318 A 1.396 1.396 0 0 1 49.69 3.144 A 1.998 1.998 0 0 1 49.72 3.45 L 49.72 5.638 Q 49.72 6.073 49.794 6.39 A 1.707 1.707 0 0 0 49.887 6.68 L 49.887 6.75 Z M 19.692 4.351 L 19.692 4.425 Q 19.692 5.511 19.195 6.174 A 1.57 1.57 0 0 1 18.057 6.828 A 2.013 2.013 0 0 1 17.851 6.838 A 2.196 2.196 0 0 1 17.265 6.764 A 1.598 1.598 0 0 1 16.488 6.289 L 16.488 8.578 L 15.675 8.578 L 15.675 1.995 L 16.418 1.995 L 16.458 2.522 A 1.619 1.619 0 0 1 17.597 1.919 A 2.319 2.319 0 0 1 17.838 1.907 A 1.829 1.829 0 0 1 18.475 2.014 A 1.597 1.597 0 0 1 19.193 2.553 Q 19.692 3.199 19.692 4.351 Z M 22.702 4.504 L 22.702 4.355 A 3.17 3.17 0 0 1 22.779 3.646 A 2.581 2.581 0 0 1 22.973 3.092 A 2.191 2.191 0 0 1 23.42 2.466 A 2.033 2.033 0 0 1 23.728 2.221 Q 24.214 1.907 24.781 1.907 A 2.254 2.254 0 0 1 25.394 1.986 A 1.639 1.639 0 0 1 26.222 2.518 Q 26.736 3.129 26.736 4.267 L 26.736 4.605 L 23.515 4.605 A 2.111 2.111 0 0 0 23.586 5.114 A 1.516 1.516 0 0 0 23.926 5.741 A 1.282 1.282 0 0 0 24.86 6.173 A 1.652 1.652 0 0 0 24.926 6.174 A 1.763 1.763 0 0 0 25.254 6.145 Q 25.478 6.103 25.655 5.999 A 1.827 1.827 0 0 0 26.164 5.551 A 2.068 2.068 0 0 0 26.178 5.533 L 26.675 5.919 A 1.926 1.926 0 0 1 25.275 6.811 A 2.749 2.749 0 0 1 24.882 6.838 A 2.394 2.394 0 0 1 24.131 6.725 A 1.974 1.974 0 0 1 23.309 6.203 Q 22.702 5.568 22.702 4.504 Z M 55.837 4.504 L 55.837 4.355 A 3.17 3.17 0 0 1 55.913 3.646 A 2.581 2.581 0 0 1 56.107 3.092 A 2.191 2.191 0 0 1 56.555 2.466 A 2.033 2.033 0 0 1 56.863 2.221 Q 57.349 1.907 57.916 1.907 A 2.254 2.254 0 0 1 58.529 1.986 A 1.639 1.639 0 0 1 59.357 2.518 Q 59.871 3.129 59.871 4.267 L 59.871 4.605 L 56.65 4.605 A 2.111 2.111 0 0 0 56.721 5.114 A 1.516 1.516 0 0 0 57.061 5.741 A 1.282 1.282 0 0 0 57.995 6.173 A 1.652 1.652 0 0 0 58.061 6.174 A 1.763 1.763 0 0 0 58.389 6.145 Q 58.613 6.103 58.79 5.999 A 1.827 1.827 0 0 0 59.299 5.551 A 2.068 2.068 0 0 0 59.313 5.533 L 59.81 5.919 A 1.926 1.926 0 0 1 58.41 6.811 A 2.749 2.749 0 0 1 58.017 6.838 A 2.394 2.394 0 0 1 57.266 6.725 A 1.974 1.974 0 0 1 56.444 6.203 Q 55.837 5.568 55.837 4.504 Z M 35.534 0.844 L 36.347 0.844 L 36.347 1.995 L 37.235 1.995 L 37.235 2.624 L 36.347 2.624 L 36.347 5.572 Q 36.347 5.858 36.466 6.001 Q 36.585 6.144 36.87 6.144 A 1.046 1.046 0 0 0 36.968 6.138 Q 37.071 6.129 37.21 6.101 A 4.024 4.024 0 0 0 37.257 6.091 L 37.257 6.75 A 2.463 2.463 0 0 1 36.824 6.829 A 2.157 2.157 0 0 1 36.633 6.838 Q 36.186 6.838 35.919 6.616 A 0.856 0.856 0 0 1 35.811 6.508 Q 35.584 6.238 35.543 5.78 A 2.351 2.351 0 0 1 35.534 5.572 L 35.534 2.624 L 34.669 2.624 L 34.669 1.995 L 35.534 1.995 L 35.534 0.844 Z M 21.608 0 L 21.608 6.75 L 20.795 6.75 L 20.795 0 L 21.608 0 Z M 37.881 4.386 L 37.881 4.329 A 3.057 3.057 0 0 1 37.968 3.587 A 2.573 2.573 0 0 1 38.156 3.072 A 2.16 2.16 0 0 1 38.57 2.486 A 1.957 1.957 0 0 1 38.92 2.21 A 2.036 2.036 0 0 1 39.865 1.913 A 2.491 2.491 0 0 1 40.039 1.907 A 2.277 2.277 0 0 1 40.792 2.027 A 1.937 1.937 0 0 1 41.61 2.58 A 2.29 2.29 0 0 1 42.129 3.608 A 3.373 3.373 0 0 1 42.21 4.368 L 42.21 4.425 A 3.114 3.114 0 0 1 42.13 5.142 A 2.577 2.577 0 0 1 41.944 5.671 A 2.056 2.056 0 0 1 41.416 6.361 A 2.001 2.001 0 0 1 41.183 6.53 A 2.045 2.045 0 0 1 40.264 6.829 A 2.529 2.529 0 0 1 40.048 6.838 A 2.262 2.262 0 0 1 39.297 6.718 A 1.938 1.938 0 0 1 38.481 6.166 A 2.297 2.297 0 0 1 37.955 5.111 A 3.357 3.357 0 0 1 37.881 4.386 Z M 45.527 1.969 L 45.527 2.725 A 2.251 2.251 0 0 0 45.285 2.698 A 2.782 2.782 0 0 0 45.128 2.694 Q 44.35 2.694 44.058 3.338 A 1.445 1.445 0 0 0 44.042 3.375 L 44.042 6.75 L 43.229 6.75 L 43.229 1.995 L 44.02 1.995 L 44.033 2.544 Q 44.414 1.938 45.096 1.909 A 1.636 1.636 0 0 1 45.167 1.907 Q 45.404 1.907 45.527 1.969 Z M 6.486 1.995 L 6.486 6.75 L 5.673 6.75 L 5.673 1.995 L 6.486 1.995 Z M 38.698 4.425 A 2.772 2.772 0 0 0 38.746 4.954 Q 38.806 5.264 38.944 5.51 A 1.545 1.545 0 0 0 39.065 5.695 Q 39.432 6.174 40.048 6.174 A 1.269 1.269 0 0 0 40.537 6.083 Q 40.816 5.967 41.019 5.706 A 1.471 1.471 0 0 0 41.032 5.689 A 1.648 1.648 0 0 0 41.287 5.171 Q 41.355 4.945 41.381 4.672 A 3.655 3.655 0 0 0 41.397 4.329 A 2.687 2.687 0 0 0 41.345 3.789 Q 41.278 3.459 41.12 3.2 A 1.586 1.586 0 0 0 41.025 3.061 A 1.231 1.231 0 0 0 40.61 2.705 Q 40.357 2.575 40.039 2.575 Q 39.449 2.575 39.083 3.035 A 1.515 1.515 0 0 0 39.068 3.054 A 1.589 1.589 0 0 0 38.815 3.552 Q 38.746 3.772 38.718 4.039 A 3.676 3.676 0 0 0 38.698 4.425 Z M 16.488 3.252 L 16.488 5.524 Q 16.853 6.174 17.605 6.174 A 1.184 1.184 0 0 0 18.07 6.086 Q 18.327 5.977 18.516 5.735 A 1.403 1.403 0 0 0 18.534 5.711 A 1.501 1.501 0 0 0 18.751 5.28 Q 18.819 5.073 18.851 4.818 A 3.91 3.91 0 0 0 18.879 4.333 Q 18.879 3.746 18.696 3.339 A 1.503 1.503 0 0 0 18.536 3.063 A 1.086 1.086 0 0 0 17.75 2.605 A 1.414 1.414 0 0 0 17.596 2.597 Q 16.935 2.597 16.57 3.121 A 1.623 1.623 0 0 0 16.488 3.252 Z M 54 5.449 L 54 3.278 A 1.439 1.439 0 0 0 53.699 2.891 Q 53.396 2.62 52.955 2.599 A 1.578 1.578 0 0 0 52.88 2.597 Q 52.288 2.597 51.954 3.056 A 1.51 1.51 0 0 0 51.743 3.484 Q 51.677 3.689 51.646 3.939 A 3.955 3.955 0 0 0 51.618 4.425 Q 51.618 5.229 51.948 5.689 Q 52.277 6.148 52.871 6.148 A 1.32 1.32 0 0 0 53.38 6.054 Q 53.772 5.891 54 5.449 Z M 48.907 5.418 L 48.907 4.443 L 48.27 4.443 Q 46.776 4.443 46.776 5.317 Q 46.776 5.7 47.03 5.915 A 0.893 0.893 0 0 0 47.444 6.108 A 1.259 1.259 0 0 0 47.685 6.13 A 1.429 1.429 0 0 0 48.41 5.933 A 1.335 1.335 0 0 0 48.706 5.705 A 1.108 1.108 0 0 0 48.907 5.418 Z M 23.542 3.938 L 25.923 3.938 L 25.923 3.876 Q 25.897 3.417 25.727 3.111 A 1.13 1.13 0 0 0 25.59 2.916 A 0.983 0.983 0 0 0 24.935 2.584 A 1.39 1.39 0 0 0 24.781 2.575 A 1.106 1.106 0 0 0 24.258 2.698 A 1.14 1.14 0 0 0 23.955 2.933 A 1.417 1.417 0 0 0 23.678 3.379 Q 23.604 3.563 23.565 3.785 A 2.741 2.741 0 0 0 23.542 3.938 Z M 56.676 3.938 L 59.058 3.938 L 59.058 3.876 Q 59.032 3.417 58.862 3.111 A 1.13 1.13 0 0 0 58.724 2.916 A 0.983 0.983 0 0 0 58.07 2.584 A 1.39 1.39 0 0 0 57.916 2.575 A 1.106 1.106 0 0 0 57.393 2.698 A 1.14 1.14 0 0 0 57.09 2.933 A 1.417 1.417 0 0 0 56.813 3.379 Q 56.739 3.563 56.699 3.785 A 2.741 2.741 0 0 0 56.676 3.938 Z M 5.608 0.734 Q 5.608 0.536 5.728 0.4 Q 5.84 0.274 6.052 0.264 A 0.783 0.783 0 0 1 6.087 0.264 Q 6.324 0.264 6.447 0.4 A 0.474 0.474 0 0 1 6.569 0.703 A 0.614 0.614 0 0 1 6.57 0.734 A 0.523 0.523 0 0 1 6.545 0.9 A 0.442 0.442 0 0 1 6.447 1.063 Q 6.334 1.184 6.126 1.194 A 0.803 0.803 0 0 1 6.087 1.195 Q 5.914 1.195 5.803 1.126 A 0.362 0.362 0 0 1 5.728 1.063 A 0.456 0.456 0 0 1 5.61 0.788 A 0.605 0.605 0 0 1 5.608 0.734 Z" vector-effect="non-scaling-stroke"/></g><g transform="translate(12vw, 90vh)" id="svgGroup" stroke-linecap="round" fill-rule="evenodd" font-size="9pt" stroke="#000" stroke-width="0.25mm" fill="#000" style="stroke:#000;stroke-width:0.25mm;fill:#000"><path d="M 49.219 3.564 L 49.219 5.911 A 1.895 1.895 0 0 1 48.496 6.525 A 2.364 2.364 0 0 1 48.311 6.607 A 3.162 3.162 0 0 1 47.639 6.787 Q 47.328 6.836 46.978 6.838 A 5.148 5.148 0 0 1 46.956 6.838 A 2.838 2.838 0 0 1 46.133 6.722 A 2.459 2.459 0 0 1 45.567 6.471 A 2.43 2.43 0 0 1 44.661 5.49 A 2.924 2.924 0 0 1 44.629 5.427 A 3.277 3.277 0 0 1 44.34 4.497 A 4.307 4.307 0 0 1 44.288 3.858 L 44.288 3.3 Q 44.288 1.854 44.963 1.059 A 2.198 2.198 0 0 1 46.316 0.307 A 3.227 3.227 0 0 1 46.859 0.264 Q 47.861 0.264 48.472 0.776 A 2.047 2.047 0 0 1 49.094 1.701 A 2.896 2.896 0 0 1 49.219 2.228 L 48.375 2.228 Q 48.168 1.12 47.173 0.979 A 2.195 2.195 0 0 0 46.863 0.958 A 1.917 1.917 0 0 0 46.329 1.028 A 1.386 1.386 0 0 0 45.578 1.553 A 1.986 1.986 0 0 0 45.294 2.125 Q 45.207 2.396 45.168 2.726 A 4.871 4.871 0 0 0 45.136 3.278 L 45.136 3.801 A 3.827 3.827 0 0 0 45.195 4.489 Q 45.306 5.096 45.629 5.513 A 1.569 1.569 0 0 0 46.768 6.139 A 2.069 2.069 0 0 0 46.96 6.148 Q 47.393 6.148 47.727 6.06 A 2.106 2.106 0 0 0 47.791 6.042 A 1.357 1.357 0 0 0 48.179 5.86 A 1.217 1.217 0 0 0 48.38 5.687 L 48.38 4.25 L 46.899 4.25 L 46.899 3.564 L 49.219 3.564 Z M 4.636 2.202 L 3.788 2.202 A 1.466 1.466 0 0 0 3.738 1.809 A 1.066 1.066 0 0 0 3.419 1.29 A 1.211 1.211 0 0 0 2.95 1.033 Q 2.698 0.958 2.378 0.958 A 2.286 2.286 0 0 0 1.998 0.988 Q 1.796 1.022 1.633 1.095 A 1.101 1.101 0 0 0 1.404 1.233 A 0.892 0.892 0 0 0 1.059 1.887 A 1.267 1.267 0 0 0 1.055 1.995 A 0.806 0.806 0 0 0 1.323 2.6 A 1.134 1.134 0 0 0 1.387 2.656 A 1.562 1.562 0 0 0 1.625 2.813 Q 1.955 2.993 2.516 3.151 A 8.228 8.228 0 0 1 2.981 3.295 Q 3.216 3.377 3.41 3.464 A 3.297 3.297 0 0 1 3.764 3.645 A 2.342 2.342 0 0 1 4.103 3.889 Q 4.293 4.056 4.415 4.248 A 1.45 1.45 0 0 1 4.432 4.276 A 1.498 1.498 0 0 1 4.628 4.832 A 1.948 1.948 0 0 1 4.65 5.124 A 1.606 1.606 0 0 1 4.527 5.76 Q 4.382 6.101 4.064 6.354 A 1.886 1.886 0 0 1 4.043 6.37 Q 3.437 6.838 2.422 6.838 A 3.023 3.023 0 0 1 1.281 6.623 A 2.917 2.917 0 0 1 1.191 6.585 A 2.383 2.383 0 0 1 0.713 6.307 A 1.874 1.874 0 0 1 0.31 5.893 A 1.689 1.689 0 0 1 0 4.896 L 0.848 4.896 A 1.261 1.261 0 0 0 0.918 5.323 A 1.074 1.074 0 0 0 1.277 5.812 Q 1.661 6.113 2.278 6.144 A 2.87 2.87 0 0 0 2.422 6.148 A 2.628 2.628 0 0 0 2.809 6.121 Q 3.005 6.092 3.164 6.031 A 1.129 1.129 0 0 0 3.445 5.875 Q 3.801 5.603 3.801 5.133 A 1.074 1.074 0 0 0 3.759 4.822 A 0.816 0.816 0 0 0 3.472 4.406 Q 3.142 4.148 2.277 3.898 Q 1.191 3.586 0.697 3.131 Q 0.202 2.676 0.202 2.008 Q 0.202 1.252 0.807 0.758 A 2.121 2.121 0 0 1 1.697 0.335 A 3.087 3.087 0 0 1 2.378 0.264 A 2.913 2.913 0 0 1 3.038 0.336 A 2.372 2.372 0 0 1 3.553 0.519 A 2.051 2.051 0 0 1 4.084 0.889 A 1.834 1.834 0 0 1 4.353 1.222 A 1.798 1.798 0 0 1 4.636 2.202 Z M 36.119 2.202 L 35.271 2.202 A 1.466 1.466 0 0 0 35.221 1.809 A 1.066 1.066 0 0 0 34.902 1.29 A 1.211 1.211 0 0 0 34.432 1.033 Q 34.18 0.958 33.86 0.958 A 2.286 2.286 0 0 0 33.48 0.988 Q 33.278 1.022 33.116 1.095 A 1.101 1.101 0 0 0 32.887 1.233 A 0.892 0.892 0 0 0 32.542 1.887 A 1.267 1.267 0 0 0 32.537 1.995 A 0.806 0.806 0 0 0 32.805 2.6 A 1.134 1.134 0 0 0 32.869 2.656 A 1.562 1.562 0 0 0 33.107 2.813 Q 33.438 2.993 33.998 3.151 A 8.228 8.228 0 0 1 34.463 3.295 Q 34.698 3.377 34.893 3.464 A 3.297 3.297 0 0 1 35.246 3.645 A 2.342 2.342 0 0 1 35.585 3.889 Q 35.775 4.056 35.897 4.248 A 1.45 1.45 0 0 1 35.914 4.276 A 1.498 1.498 0 0 1 36.111 4.832 A 1.948 1.948 0 0 1 36.132 5.124 A 1.606 1.606 0 0 1 36.01 5.76 Q 35.864 6.101 35.546 6.354 A 1.886 1.886 0 0 1 35.526 6.37 Q 34.919 6.838 33.904 6.838 A 3.023 3.023 0 0 1 32.763 6.623 A 2.917 2.917 0 0 1 32.673 6.585 A 2.383 2.383 0 0 1 32.195 6.307 A 1.874 1.874 0 0 1 31.792 5.893 A 1.689 1.689 0 0 1 31.483 4.896 L 32.331 4.896 A 1.261 1.261 0 0 0 32.4 5.323 A 1.074 1.074 0 0 0 32.759 5.812 Q 33.144 6.113 33.76 6.144 A 2.87 2.87 0 0 0 33.904 6.148 A 2.628 2.628 0 0 0 34.291 6.121 Q 34.487 6.092 34.646 6.031 A 1.129 1.129 0 0 0 34.928 5.875 Q 35.284 5.603 35.284 5.133 A 1.074 1.074 0 0 0 35.241 4.822 A 0.816 0.816 0 0 0 34.954 4.406 Q 34.625 4.148 33.759 3.898 Q 32.673 3.586 32.179 3.131 Q 31.685 2.676 31.685 2.008 Q 31.685 1.252 32.289 0.758 A 2.121 2.121 0 0 1 33.179 0.335 A 3.087 3.087 0 0 1 33.86 0.264 A 2.913 2.913 0 0 1 34.52 0.336 A 2.372 2.372 0 0 1 35.036 0.519 A 2.051 2.051 0 0 1 35.567 0.889 A 1.834 1.834 0 0 1 35.835 1.222 A 1.798 1.798 0 0 1 36.119 2.202 Z M 38.184 3.819 L 38.184 3.155 L 38.795 3.155 Q 39.253 3.148 39.555 2.961 A 1.045 1.045 0 0 0 39.7 2.852 A 0.97 0.97 0 0 0 40.02 2.225 A 1.373 1.373 0 0 0 40.03 2.057 A 1.626 1.626 0 0 0 39.974 1.611 Q 39.832 1.112 39.324 0.98 A 1.645 1.645 0 0 0 38.909 0.932 A 1.495 1.495 0 0 0 38.547 0.973 A 1.044 1.044 0 0 0 38.068 1.233 A 1.004 1.004 0 0 0 37.766 1.844 A 1.405 1.405 0 0 0 37.754 2.03 L 36.941 2.03 A 1.698 1.698 0 0 1 37.095 1.3 A 1.68 1.68 0 0 1 37.496 0.767 A 1.924 1.924 0 0 1 38.549 0.288 A 2.615 2.615 0 0 1 38.909 0.264 A 2.758 2.758 0 0 1 39.485 0.32 Q 39.853 0.399 40.132 0.586 A 1.593 1.593 0 0 1 40.329 0.743 A 1.57 1.57 0 0 1 40.795 1.589 A 2.336 2.336 0 0 1 40.843 2.074 A 1.332 1.332 0 0 1 40.691 2.686 A 1.725 1.725 0 0 1 40.573 2.883 A 1.624 1.624 0 0 1 39.873 3.452 A 1.952 1.952 0 0 1 39.837 3.467 A 1.81 1.81 0 0 1 40.272 3.668 A 1.44 1.44 0 0 1 40.652 4.021 Q 40.94 4.408 40.94 4.966 Q 40.94 5.827 40.377 6.333 A 1.935 1.935 0 0 1 39.42 6.793 A 2.738 2.738 0 0 1 38.914 6.838 A 2.716 2.716 0 0 1 38.267 6.765 A 1.936 1.936 0 0 1 37.448 6.35 Q 36.883 5.862 36.883 5.063 L 37.701 5.063 A 1.255 1.255 0 0 0 37.751 5.426 A 0.978 0.978 0 0 0 38.03 5.871 A 1.113 1.113 0 0 0 38.545 6.135 A 1.643 1.643 0 0 0 38.914 6.174 Q 39.503 6.174 39.815 5.867 Q 40.102 5.583 40.125 5.073 A 2.011 2.011 0 0 0 40.127 4.983 A 1.451 1.451 0 0 0 40.087 4.634 A 0.962 0.962 0 0 0 39.784 4.126 A 1.13 1.13 0 0 0 39.396 3.91 Q 39.138 3.824 38.795 3.819 L 38.184 3.819 Z M 166.553 0 L 166.553 2.571 A 1.767 1.767 0 0 1 167.219 2.053 A 1.832 1.832 0 0 1 167.959 1.907 A 1.905 1.905 0 0 1 168.593 2.004 Q 169.434 2.3 169.477 3.506 A 3.668 3.668 0 0 1 169.48 3.608 L 169.48 6.75 L 168.667 6.75 L 168.667 3.604 A 1.837 1.837 0 0 0 168.644 3.324 Q 168.594 3.017 168.432 2.843 Q 168.245 2.645 167.892 2.606 A 1.66 1.66 0 0 0 167.713 2.597 A 1.253 1.253 0 0 0 167.299 2.664 A 1.123 1.123 0 0 0 167.019 2.808 A 1.432 1.432 0 0 0 166.553 3.362 L 166.553 6.75 L 165.74 6.75 L 165.74 0 L 166.553 0 Z M 108.4 6.75 L 107.011 4.162 L 105.508 4.162 L 105.508 6.75 L 104.66 6.75 L 104.66 0.352 L 106.778 0.352 A 3.809 3.809 0 0 1 107.42 0.402 Q 107.762 0.461 108.036 0.587 A 1.789 1.789 0 0 1 108.442 0.844 A 1.588 1.588 0 0 1 108.967 1.732 A 2.453 2.453 0 0 1 109.024 2.276 A 1.864 1.864 0 0 1 108.933 2.868 A 1.64 1.64 0 0 1 108.701 3.318 A 1.849 1.849 0 0 1 108.042 3.875 A 2.342 2.342 0 0 1 107.802 3.981 L 109.305 6.697 L 109.305 6.75 L 108.4 6.75 Z M 163.732 2.522 L 163.771 1.995 L 164.514 1.995 L 164.514 6.636 A 2.511 2.511 0 0 1 164.443 7.249 A 1.738 1.738 0 0 1 163.967 8.09 A 1.834 1.834 0 0 1 163.037 8.57 A 2.671 2.671 0 0 1 162.497 8.622 A 2.446 2.446 0 0 1 161.49 8.402 A 2.003 2.003 0 0 1 161.08 8.161 A 1.563 1.563 0 0 1 160.739 7.8 L 161.161 7.313 A 1.889 1.889 0 0 0 161.595 7.712 A 1.514 1.514 0 0 0 162.44 7.958 A 1.695 1.695 0 0 0 162.817 7.919 Q 163.085 7.858 163.279 7.702 A 1.037 1.037 0 0 0 163.365 7.625 A 1.09 1.09 0 0 0 163.642 7.132 Q 163.689 6.959 163.695 6.752 A 2.134 2.134 0 0 0 163.696 6.684 L 163.696 6.275 A 1.601 1.601 0 0 1 162.644 6.821 A 2.279 2.279 0 0 1 162.365 6.838 A 1.672 1.672 0 0 1 161.61 6.67 Q 161.288 6.51 161.038 6.197 A 2.14 2.14 0 0 1 161.014 6.166 A 2.316 2.316 0 0 1 160.63 5.386 Q 160.497 4.922 160.497 4.333 Q 160.497 3.472 160.806 2.884 A 2.096 2.096 0 0 1 161.011 2.564 Q 161.526 1.907 162.374 1.907 A 1.971 1.971 0 0 1 162.973 1.994 A 1.55 1.55 0 0 1 163.732 2.522 Z M 85.465 3.393 L 84.648 3.393 Q 84.648 3.059 84.364 2.817 Q 84.081 2.575 83.65 2.575 Q 83.206 2.575 82.956 2.769 A 0.653 0.653 0 0 0 82.781 2.967 Q 82.708 3.098 82.705 3.263 A 0.771 0.771 0 0 0 82.705 3.274 A 0.588 0.588 0 0 0 82.735 3.467 A 0.48 0.48 0 0 0 82.938 3.718 A 1.093 1.093 0 0 0 83.088 3.796 Q 83.253 3.868 83.508 3.937 A 6.581 6.581 0 0 0 83.78 4.003 A 6.318 6.318 0 0 1 84.187 4.108 Q 84.524 4.208 84.766 4.329 A 1.901 1.901 0 0 1 85.022 4.481 Q 85.159 4.579 85.256 4.692 A 1.06 1.06 0 0 1 85.327 4.783 A 1.024 1.024 0 0 1 85.489 5.191 A 1.388 1.388 0 0 1 85.509 5.432 Q 85.509 6.069 84.999 6.453 Q 84.517 6.817 83.763 6.837 A 3.337 3.337 0 0 1 83.676 6.838 A 2.746 2.746 0 0 1 83.142 6.788 A 2.124 2.124 0 0 1 82.666 6.636 A 1.771 1.771 0 0 1 82.232 6.358 A 1.54 1.54 0 0 1 81.978 6.071 Q 81.73 5.708 81.73 5.287 L 82.543 5.287 A 0.932 0.932 0 0 0 82.616 5.612 A 0.827 0.827 0 0 0 82.87 5.935 A 1.072 1.072 0 0 0 83.272 6.128 Q 83.427 6.167 83.608 6.173 A 2.013 2.013 0 0 0 83.676 6.174 A 1.863 1.863 0 0 0 83.972 6.152 Q 84.134 6.126 84.265 6.07 A 0.941 0.941 0 0 0 84.417 5.988 A 0.689 0.689 0 0 0 84.581 5.837 A 0.554 0.554 0 0 0 84.696 5.489 A 0.698 0.698 0 0 0 84.66 5.258 A 0.581 0.581 0 0 0 84.448 4.977 A 1.05 1.05 0 0 0 84.279 4.878 Q 84.09 4.788 83.795 4.712 A 5.392 5.392 0 0 0 83.582 4.663 A 6.342 6.342 0 0 1 83.221 4.575 Q 82.851 4.473 82.602 4.346 Q 82.303 4.194 82.133 3.994 A 1.017 1.017 0 0 1 82.066 3.907 Q 81.892 3.652 81.892 3.3 A 1.206 1.206 0 0 1 82.291 2.396 A 1.694 1.694 0 0 1 82.387 2.312 A 1.752 1.752 0 0 1 83.17 1.952 A 2.471 2.471 0 0 1 83.65 1.907 A 2.559 2.559 0 0 1 84.214 1.966 A 1.757 1.757 0 0 1 84.962 2.325 Q 85.465 2.742 85.465 3.393 Z M 76.962 1.995 L 77.731 1.995 L 77.757 2.593 Q 78.293 1.918 79.153 1.907 A 2.234 2.234 0 0 1 79.181 1.907 A 1.905 1.905 0 0 1 79.814 2.004 Q 80.656 2.3 80.699 3.506 A 3.668 3.668 0 0 1 80.701 3.608 L 80.701 6.75 L 79.888 6.75 L 79.888 3.604 A 1.837 1.837 0 0 0 79.866 3.324 Q 79.816 3.017 79.653 2.843 Q 79.467 2.645 79.114 2.606 A 1.66 1.66 0 0 0 78.935 2.597 A 1.253 1.253 0 0 0 78.52 2.664 A 1.123 1.123 0 0 0 78.24 2.808 A 1.432 1.432 0 0 0 77.775 3.362 L 77.775 6.75 L 76.962 6.75 L 76.962 1.995 Z M 94.403 1.995 L 95.173 1.995 L 95.199 2.593 Q 95.735 1.918 96.595 1.907 A 2.234 2.234 0 0 1 96.623 1.907 A 1.905 1.905 0 0 1 97.256 2.004 Q 98.098 2.3 98.141 3.506 A 3.668 3.668 0 0 1 98.143 3.608 L 98.143 6.75 L 97.33 6.75 L 97.33 3.604 A 1.837 1.837 0 0 0 97.308 3.324 Q 97.258 3.017 97.095 2.843 Q 96.909 2.645 96.556 2.606 A 1.66 1.66 0 0 0 96.377 2.597 A 1.253 1.253 0 0 0 95.962 2.664 A 1.123 1.123 0 0 0 95.682 2.808 A 1.432 1.432 0 0 0 95.216 3.362 L 95.216 6.75 L 94.403 6.75 L 94.403 1.995 Z M 23.067 5.251 L 23.836 5.251 A 1.432 1.432 0 0 1 23.637 5.901 A 1.772 1.772 0 0 1 23.555 6.029 A 1.828 1.828 0 0 1 22.946 6.574 A 2.169 2.169 0 0 1 22.863 6.618 A 1.997 1.997 0 0 1 21.946 6.838 A 2.346 2.346 0 0 1 21.249 6.739 A 1.839 1.839 0 0 1 20.402 6.19 A 2.171 2.171 0 0 1 19.938 5.31 Q 19.828 4.909 19.828 4.417 L 19.828 4.28 A 3.24 3.24 0 0 1 19.892 3.624 A 2.57 2.57 0 0 1 20.083 3.045 A 2.008 2.008 0 0 1 20.523 2.431 A 1.892 1.892 0 0 1 20.815 2.206 A 1.943 1.943 0 0 1 21.571 1.934 A 2.529 2.529 0 0 1 21.942 1.907 A 2.196 2.196 0 0 1 22.59 1.999 A 1.786 1.786 0 0 1 23.271 2.386 A 1.693 1.693 0 0 1 23.83 3.535 A 2.239 2.239 0 0 1 23.836 3.63 L 23.067 3.63 Q 23.032 3.168 22.718 2.872 A 1.078 1.078 0 0 0 21.989 2.576 A 1.402 1.402 0 0 0 21.942 2.575 A 1.374 1.374 0 0 0 21.521 2.637 A 1.081 1.081 0 0 0 20.982 3.021 A 1.469 1.469 0 0 0 20.755 3.468 Q 20.689 3.674 20.662 3.923 A 3.514 3.514 0 0 0 20.641 4.311 L 20.641 4.465 Q 20.641 5.287 20.98 5.73 A 1.1 1.1 0 0 0 21.766 6.165 A 1.611 1.611 0 0 0 21.946 6.174 A 1.171 1.171 0 0 0 22.707 5.911 A 1.007 1.007 0 0 0 22.951 5.629 A 0.914 0.914 0 0 0 23.067 5.251 Z M 60.605 5.251 L 61.374 5.251 A 1.432 1.432 0 0 1 61.175 5.901 A 1.772 1.772 0 0 1 61.093 6.029 A 1.828 1.828 0 0 1 60.484 6.574 A 2.169 2.169 0 0 1 60.401 6.618 A 1.997 1.997 0 0 1 59.485 6.838 A 2.346 2.346 0 0 1 58.787 6.739 A 1.839 1.839 0 0 1 57.94 6.19 A 2.171 2.171 0 0 1 57.476 5.31 Q 57.366 4.909 57.366 4.417 L 57.366 4.28 A 3.24 3.24 0 0 1 57.43 3.624 A 2.57 2.57 0 0 1 57.621 3.045 A 2.008 2.008 0 0 1 58.061 2.431 A 1.892 1.892 0 0 1 58.353 2.206 A 1.943 1.943 0 0 1 59.109 1.934 A 2.529 2.529 0 0 1 59.48 1.907 A 2.196 2.196 0 0 1 60.128 1.999 A 1.786 1.786 0 0 1 60.809 2.386 A 1.693 1.693 0 0 1 61.368 3.535 A 2.239 2.239 0 0 1 61.374 3.63 L 60.605 3.63 Q 60.57 3.168 60.256 2.872 A 1.078 1.078 0 0 0 59.527 2.576 A 1.402 1.402 0 0 0 59.48 2.575 A 1.374 1.374 0 0 0 59.059 2.637 A 1.081 1.081 0 0 0 58.52 3.021 A 1.469 1.469 0 0 0 58.293 3.468 Q 58.227 3.674 58.2 3.923 A 3.514 3.514 0 0 0 58.179 4.311 L 58.179 4.465 Q 58.179 5.287 58.518 5.73 A 1.1 1.1 0 0 0 59.304 6.165 A 1.611 1.611 0 0 0 59.485 6.174 A 1.171 1.171 0 0 0 60.245 5.911 A 1.007 1.007 0 0 0 60.489 5.629 A 0.914 0.914 0 0 0 60.605 5.251 Z M 56.47 6.75 L 55.617 6.75 A 0.632 0.632 0 0 1 55.582 6.66 Q 55.551 6.562 55.526 6.41 A 3.997 3.997 0 0 1 55.503 6.249 Q 54.936 6.838 54.15 6.838 A 2.033 2.033 0 0 1 53.62 6.772 A 1.529 1.529 0 0 1 52.996 6.44 Q 52.546 6.042 52.546 5.432 Q 52.546 4.689 53.11 4.278 Q 53.675 3.867 54.699 3.867 L 55.49 3.867 L 55.49 3.494 A 1.152 1.152 0 0 0 55.454 3.199 A 0.828 0.828 0 0 0 55.235 2.815 Q 55.019 2.6 54.628 2.568 A 1.748 1.748 0 0 0 54.484 2.562 Q 54.048 2.562 53.754 2.782 Q 53.46 3.001 53.46 3.313 L 52.642 3.313 A 1.041 1.041 0 0 1 52.767 2.825 A 1.409 1.409 0 0 1 52.895 2.626 Q 53.148 2.294 53.58 2.101 A 2.249 2.249 0 0 1 54.356 1.913 A 2.669 2.669 0 0 1 54.532 1.907 A 2.65 2.65 0 0 1 55.049 1.955 Q 55.357 2.016 55.595 2.156 A 1.439 1.439 0 0 1 55.819 2.318 A 1.396 1.396 0 0 1 56.273 3.144 A 1.998 1.998 0 0 1 56.303 3.45 L 56.303 5.638 Q 56.303 6.073 56.377 6.39 A 1.707 1.707 0 0 0 56.47 6.68 L 56.47 6.75 Z M 93.296 6.75 L 92.444 6.75 A 0.632 0.632 0 0 1 92.408 6.66 Q 92.377 6.562 92.352 6.41 A 3.997 3.997 0 0 1 92.329 6.249 Q 91.762 6.838 90.976 6.838 A 2.033 2.033 0 0 1 90.446 6.772 A 1.529 1.529 0 0 1 89.822 6.44 Q 89.372 6.042 89.372 5.432 Q 89.372 4.689 89.936 4.278 Q 90.501 3.867 91.525 3.867 L 92.316 3.867 L 92.316 3.494 A 1.152 1.152 0 0 0 92.28 3.199 A 0.828 0.828 0 0 0 92.061 2.815 Q 91.845 2.6 91.455 2.568 A 1.748 1.748 0 0 0 91.31 2.562 Q 90.875 2.562 90.58 2.782 Q 90.286 3.001 90.286 3.313 L 89.468 3.313 A 1.041 1.041 0 0 1 89.593 2.825 A 1.409 1.409 0 0 1 89.721 2.626 Q 89.974 2.294 90.407 2.101 A 2.249 2.249 0 0 1 91.182 1.913 A 2.669 2.669 0 0 1 91.358 1.907 A 2.65 2.65 0 0 1 91.875 1.955 Q 92.183 2.016 92.422 2.156 A 1.439 1.439 0 0 1 92.646 2.318 A 1.396 1.396 0 0 1 93.099 3.144 A 1.998 1.998 0 0 1 93.129 3.45 L 93.129 5.638 Q 93.129 6.073 93.203 6.39 A 1.707 1.707 0 0 0 93.296 6.68 L 93.296 6.75 Z M 135.809 6.75 L 134.956 6.75 A 0.632 0.632 0 0 1 134.921 6.66 Q 134.889 6.562 134.865 6.41 A 3.997 3.997 0 0 1 134.842 6.249 Q 134.275 6.838 133.488 6.838 A 2.033 2.033 0 0 1 132.959 6.772 A 1.529 1.529 0 0 1 132.335 6.44 Q 131.884 6.042 131.884 5.432 Q 131.884 4.689 132.449 4.278 Q 133.014 3.867 134.038 3.867 L 134.829 3.867 L 134.829 3.494 A 1.152 1.152 0 0 0 134.793 3.199 A 0.828 0.828 0 0 0 134.574 2.815 Q 134.358 2.6 133.967 2.568 A 1.748 1.748 0 0 0 133.822 2.562 Q 133.387 2.562 133.093 2.782 Q 132.798 3.001 132.798 3.313 L 131.981 3.313 A 1.041 1.041 0 0 1 132.106 2.825 A 1.409 1.409 0 0 1 132.234 2.626 Q 132.486 2.294 132.919 2.101 A 2.249 2.249 0 0 1 133.695 1.913 A 2.669 2.669 0 0 1 133.871 1.907 A 2.65 2.65 0 0 1 134.388 1.955 Q 134.695 2.016 134.934 2.156 A 1.439 1.439 0 0 1 135.158 2.318 A 1.396 1.396 0 0 1 135.612 3.144 A 1.998 1.998 0 0 1 135.642 3.45 L 135.642 5.638 Q 135.642 6.073 135.715 6.39 A 1.707 1.707 0 0 0 135.809 6.68 L 135.809 6.75 Z M 5.397 4.504 L 5.397 4.355 A 3.17 3.17 0 0 1 5.473 3.646 A 2.581 2.581 0 0 1 5.667 3.092 A 2.191 2.191 0 0 1 6.114 2.466 A 2.033 2.033 0 0 1 6.423 2.221 Q 6.908 1.907 7.475 1.907 A 2.254 2.254 0 0 1 8.088 1.986 A 1.639 1.639 0 0 1 8.917 2.518 Q 9.431 3.129 9.431 4.267 L 9.431 4.605 L 6.21 4.605 A 2.111 2.111 0 0 0 6.281 5.114 A 1.516 1.516 0 0 0 6.621 5.741 A 1.282 1.282 0 0 0 7.555 6.173 A 1.652 1.652 0 0 0 7.62 6.174 A 1.763 1.763 0 0 0 7.948 6.145 Q 8.172 6.103 8.35 5.999 A 1.827 1.827 0 0 0 8.859 5.551 A 2.068 2.068 0 0 0 8.873 5.533 L 9.369 5.919 A 1.926 1.926 0 0 1 7.97 6.811 A 2.749 2.749 0 0 1 7.576 6.838 A 2.394 2.394 0 0 1 6.825 6.725 A 1.974 1.974 0 0 1 6.003 6.203 Q 5.397 5.568 5.397 4.504 Z M 24.544 4.504 L 24.544 4.355 A 3.17 3.17 0 0 1 24.62 3.646 A 2.581 2.581 0 0 1 24.814 3.092 A 2.191 2.191 0 0 1 25.261 2.466 A 2.033 2.033 0 0 1 25.57 2.221 Q 26.055 1.907 26.622 1.907 A 2.254 2.254 0 0 1 27.235 1.986 A 1.639 1.639 0 0 1 28.064 2.518 Q 28.578 3.129 28.578 4.267 L 28.578 4.605 L 25.357 4.605 A 2.111 2.111 0 0 0 25.428 5.114 A 1.516 1.516 0 0 0 25.767 5.741 A 1.282 1.282 0 0 0 26.702 6.173 A 1.652 1.652 0 0 0 26.767 6.174 A 1.763 1.763 0 0 0 27.095 6.145 Q 27.319 6.103 27.497 5.999 A 1.827 1.827 0 0 0 28.006 5.551 A 2.068 2.068 0 0 0 28.02 5.533 L 28.516 5.919 A 1.926 1.926 0 0 1 27.117 6.811 A 2.749 2.749 0 0 1 26.723 6.838 A 2.394 2.394 0 0 1 25.972 6.725 A 1.974 1.974 0 0 1 25.15 6.203 Q 24.544 5.568 24.544 4.504 Z M 64.266 4.504 L 64.266 4.355 A 3.17 3.17 0 0 1 64.342 3.646 A 2.581 2.581 0 0 1 64.536 3.092 A 2.191 2.191 0 0 1 64.983 2.466 A 2.033 2.033 0 0 1 65.292 2.221 Q 65.777 1.907 66.344 1.907 A 2.254 2.254 0 0 1 66.957 1.986 A 1.639 1.639 0 0 1 67.786 2.518 Q 68.3 3.129 68.3 4.267 L 68.3 4.605 L 65.079 4.605 A 2.111 2.111 0 0 0 65.15 5.114 A 1.516 1.516 0 0 0 65.49 5.741 A 1.282 1.282 0 0 0 66.424 6.173 A 1.652 1.652 0 0 0 66.489 6.174 A 1.763 1.763 0 0 0 66.818 6.145 Q 67.041 6.103 67.219 5.999 A 1.827 1.827 0 0 0 67.728 5.551 A 2.068 2.068 0 0 0 67.742 5.533 L 68.238 5.919 A 1.926 1.926 0 0 1 66.839 6.811 A 2.749 2.749 0 0 1 66.445 6.838 A 2.394 2.394 0 0 1 65.694 6.725 A 1.974 1.974 0 0 1 64.872 6.203 Q 64.266 5.568 64.266 4.504 Z M 109.872 4.504 L 109.872 4.355 A 3.17 3.17 0 0 1 109.948 3.646 A 2.581 2.581 0 0 1 110.142 3.092 A 2.191 2.191 0 0 1 110.59 2.466 A 2.033 2.033 0 0 1 110.898 2.221 Q 111.384 1.907 111.951 1.907 A 2.254 2.254 0 0 1 112.564 1.986 A 1.639 1.639 0 0 1 113.392 2.518 Q 113.906 3.129 113.906 4.267 L 113.906 4.605 L 110.685 4.605 A 2.111 2.111 0 0 0 110.756 5.114 A 1.516 1.516 0 0 0 111.096 5.741 A 1.282 1.282 0 0 0 112.03 6.173 A 1.652 1.652 0 0 0 112.096 6.174 A 1.763 1.763 0 0 0 112.424 6.145 Q 112.648 6.103 112.825 5.999 A 1.827 1.827 0 0 0 113.334 5.551 A 2.068 2.068 0 0 0 113.348 5.533 L 113.845 5.919 A 1.926 1.926 0 0 1 112.445 6.811 A 2.749 2.749 0 0 1 112.052 6.838 A 2.394 2.394 0 0 1 111.301 6.725 A 1.974 1.974 0 0 1 110.479 6.203 Q 109.872 5.568 109.872 4.504 Z M 122.81 4.504 L 122.81 4.355 A 3.17 3.17 0 0 1 122.886 3.646 A 2.581 2.581 0 0 1 123.08 3.092 A 2.191 2.191 0 0 1 123.527 2.466 A 2.033 2.033 0 0 1 123.836 2.221 Q 124.321 1.907 124.888 1.907 A 2.254 2.254 0 0 1 125.501 1.986 A 1.639 1.639 0 0 1 126.33 2.518 Q 126.844 3.129 126.844 4.267 L 126.844 4.605 L 123.623 4.605 A 2.111 2.111 0 0 0 123.694 5.114 A 1.516 1.516 0 0 0 124.034 5.741 A 1.282 1.282 0 0 0 124.968 6.173 A 1.652 1.652 0 0 0 125.033 6.174 A 1.763 1.763 0 0 0 125.362 6.145 Q 125.585 6.103 125.763 5.999 A 1.827 1.827 0 0 0 126.272 5.551 A 2.068 2.068 0 0 0 126.286 5.533 L 126.782 5.919 A 1.926 1.926 0 0 1 125.383 6.811 A 2.749 2.749 0 0 1 124.989 6.838 A 2.394 2.394 0 0 1 124.238 6.725 A 1.974 1.974 0 0 1 123.416 6.203 Q 122.81 5.568 122.81 4.504 Z M 154.639 0.352 L 154.639 6.06 L 157.672 6.06 L 157.672 6.75 L 153.791 6.75 L 153.791 0.352 L 154.639 0.352 Z M 13.856 1.995 L 15.065 5.647 L 16.242 1.995 L 17.073 1.995 L 15.368 6.75 L 14.748 6.75 L 13.026 1.995 L 13.856 1.995 Z M 128.088 1.995 L 129.296 5.647 L 130.474 1.995 L 131.304 1.995 L 129.599 6.75 L 128.98 6.75 L 127.257 1.995 L 128.088 1.995 Z M 144.677 0.352 L 144.677 4.601 L 145.565 4.601 L 145.565 5.265 L 144.677 5.265 L 144.677 6.75 L 143.86 6.75 L 143.86 5.265 L 140.946 5.265 L 140.946 4.786 L 143.811 0.352 L 144.677 0.352 Z M 150.075 2.592 A 1.544 1.544 0 0 0 150.179 2.021 A 2.226 2.226 0 0 0 150.157 1.707 A 1.566 1.566 0 0 0 149.658 0.738 A 1.754 1.754 0 0 0 148.892 0.333 A 2.443 2.443 0 0 0 148.294 0.264 A 2.539 2.539 0 0 0 147.784 0.312 A 1.767 1.767 0 0 0 146.927 0.738 Q 146.408 1.213 146.408 2.021 A 1.808 1.808 0 0 0 146.409 2.058 A 1.499 1.499 0 0 0 146.654 2.87 A 1.626 1.626 0 0 0 146.816 3.077 A 1.726 1.726 0 0 0 147.327 3.454 A 2.119 2.119 0 0 0 147.227 3.5 A 1.738 1.738 0 0 0 146.542 4.087 A 1.629 1.629 0 0 0 146.259 5.023 A 2.272 2.272 0 0 0 146.269 5.237 A 1.63 1.63 0 0 0 146.815 6.344 A 1.895 1.895 0 0 0 147.665 6.771 A 2.797 2.797 0 0 0 148.294 6.838 A 2.796 2.796 0 0 0 148.893 6.777 A 1.925 1.925 0 0 0 149.768 6.346 A 1.578 1.578 0 0 0 150.243 5.62 A 1.989 1.989 0 0 0 150.328 5.023 A 1.581 1.581 0 0 0 150.036 4.087 Q 149.744 3.674 149.243 3.458 Q 149.673 3.248 149.926 2.874 A 1.449 1.449 0 0 0 150.075 2.592 Z M 86.858 0.844 L 87.671 0.844 L 87.671 1.995 L 88.559 1.995 L 88.559 2.624 L 87.671 2.624 L 87.671 5.572 Q 87.671 5.858 87.79 6.001 Q 87.908 6.144 88.194 6.144 A 1.046 1.046 0 0 0 88.292 6.138 Q 88.394 6.129 88.534 6.101 A 4.024 4.024 0 0 0 88.581 6.091 L 88.581 6.75 A 2.463 2.463 0 0 1 88.148 6.829 A 2.157 2.157 0 0 1 87.957 6.838 Q 87.51 6.838 87.243 6.616 A 0.856 0.856 0 0 1 87.135 6.508 Q 86.908 6.238 86.867 5.78 A 2.351 2.351 0 0 1 86.858 5.572 L 86.858 2.624 L 85.992 2.624 L 85.992 1.995 L 86.858 1.995 L 86.858 0.844 Z M 99.659 0.844 L 100.472 0.844 L 100.472 1.995 L 101.36 1.995 L 101.36 2.624 L 100.472 2.624 L 100.472 5.572 Q 100.472 5.858 100.591 6.001 Q 100.71 6.144 100.995 6.144 A 1.046 1.046 0 0 0 101.093 6.138 Q 101.196 6.129 101.335 6.101 A 4.024 4.024 0 0 0 101.382 6.091 L 101.382 6.75 A 2.463 2.463 0 0 1 100.949 6.829 A 2.157 2.157 0 0 1 100.758 6.838 Q 100.311 6.838 100.044 6.616 A 0.856 0.856 0 0 1 99.936 6.508 Q 99.709 6.238 99.668 5.78 A 2.351 2.351 0 0 1 99.659 5.572 L 99.659 2.624 L 98.794 2.624 L 98.794 1.995 L 99.659 1.995 L 99.659 0.844 Z M 115.137 0.844 L 115.95 0.844 L 115.95 1.995 L 116.838 1.995 L 116.838 2.624 L 115.95 2.624 L 115.95 5.572 Q 115.95 5.858 116.069 6.001 Q 116.187 6.144 116.473 6.144 A 1.046 1.046 0 0 0 116.57 6.138 Q 116.673 6.129 116.813 6.101 A 4.024 4.024 0 0 0 116.86 6.091 L 116.86 6.75 A 2.463 2.463 0 0 1 116.427 6.829 A 2.157 2.157 0 0 1 116.235 6.838 Q 115.788 6.838 115.522 6.616 A 0.856 0.856 0 0 1 115.414 6.508 Q 115.186 6.238 115.146 5.78 A 2.351 2.351 0 0 1 115.137 5.572 L 115.137 2.624 L 114.271 2.624 L 114.271 1.995 L 115.137 1.995 L 115.137 0.844 Z M 170.987 0.844 L 171.8 0.844 L 171.8 1.995 L 172.688 1.995 L 172.688 2.624 L 171.8 2.624 L 171.8 5.572 Q 171.8 5.858 171.919 6.001 Q 172.037 6.144 172.323 6.144 A 1.046 1.046 0 0 0 172.42 6.138 Q 172.523 6.129 172.663 6.101 A 4.024 4.024 0 0 0 172.71 6.091 L 172.71 6.75 A 2.463 2.463 0 0 1 172.277 6.829 A 2.157 2.157 0 0 1 172.086 6.838 Q 171.638 6.838 171.372 6.616 A 0.856 0.856 0 0 1 171.264 6.508 Q 171.036 6.238 170.996 5.78 A 2.351 2.351 0 0 1 170.987 5.572 L 170.987 2.624 L 170.121 2.624 L 170.121 1.995 L 170.987 1.995 L 170.987 0.844 Z M 51.381 0 L 51.381 6.75 L 50.568 6.75 L 50.568 0 L 51.381 0 Z M 137.799 0 L 137.799 6.75 L 136.986 6.75 L 136.986 0 L 137.799 0 Z M 12.67 1.969 L 12.67 2.725 A 2.251 2.251 0 0 0 12.427 2.698 A 2.782 2.782 0 0 0 12.27 2.694 Q 11.492 2.694 11.2 3.338 A 1.445 1.445 0 0 0 11.184 3.375 L 11.184 6.75 L 10.371 6.75 L 10.371 1.995 L 11.162 1.995 L 11.175 2.544 Q 11.556 1.938 12.238 1.909 A 1.636 1.636 0 0 1 12.309 1.907 Q 12.547 1.907 12.67 1.969 Z M 71.539 1.969 L 71.539 2.725 A 2.251 2.251 0 0 0 71.296 2.698 A 2.782 2.782 0 0 0 71.139 2.694 Q 70.361 2.694 70.069 3.338 A 1.445 1.445 0 0 0 70.053 3.375 L 70.053 6.75 L 69.24 6.75 L 69.24 1.995 L 70.031 1.995 L 70.045 2.544 Q 70.425 1.938 71.107 1.909 A 1.636 1.636 0 0 1 71.178 1.907 Q 71.416 1.907 71.539 1.969 Z M 120.085 1.969 L 120.085 2.725 A 2.251 2.251 0 0 0 119.842 2.698 A 2.782 2.782 0 0 0 119.685 2.694 Q 118.907 2.694 118.616 3.338 A 1.445 1.445 0 0 0 118.6 3.375 L 118.6 6.75 L 117.787 6.75 L 117.787 1.995 L 118.578 1.995 L 118.591 2.544 Q 118.971 1.938 119.654 1.909 A 1.636 1.636 0 0 1 119.725 1.907 Q 119.962 1.907 120.085 1.969 Z M 75.547 0.352 L 75.547 6.75 L 74.703 6.75 L 74.703 0.352 L 75.547 0.352 Z M 18.738 1.995 L 18.738 6.75 L 17.925 6.75 L 17.925 1.995 L 18.738 1.995 Z M 63.172 1.995 L 63.172 6.75 L 62.359 6.75 L 62.359 1.995 L 63.172 1.995 Z M 121.715 1.995 L 121.715 6.75 L 120.902 6.75 L 120.902 1.995 L 121.715 1.995 Z M 159.39 1.995 L 159.39 6.75 L 158.577 6.75 L 158.577 1.995 L 159.39 1.995 Z M 163.696 5.449 L 163.696 3.278 A 1.439 1.439 0 0 0 163.395 2.891 Q 163.092 2.62 162.651 2.599 A 1.578 1.578 0 0 0 162.576 2.597 Q 161.984 2.597 161.65 3.056 A 1.51 1.51 0 0 0 161.439 3.484 Q 161.374 3.689 161.342 3.939 A 3.955 3.955 0 0 0 161.315 4.425 Q 161.315 5.229 161.644 5.689 Q 161.974 6.148 162.567 6.148 A 1.32 1.32 0 0 0 163.077 6.054 Q 163.468 5.891 163.696 5.449 Z M 105.508 1.046 L 105.508 3.472 L 106.805 3.472 Q 107.345 3.472 107.695 3.231 A 1.174 1.174 0 0 0 107.805 3.146 A 1.069 1.069 0 0 0 108.17 2.409 A 1.486 1.486 0 0 0 108.176 2.276 Q 108.176 1.734 107.88 1.423 A 1 1 0 0 0 107.822 1.367 Q 107.468 1.05 106.8 1.046 L 105.508 1.046 Z M 143.763 1.639 L 141.869 4.601 L 143.86 4.601 L 143.86 1.463 L 143.763 1.639 Z M 149.515 5.005 A 1.375 1.375 0 0 0 149.456 4.592 A 1.109 1.109 0 0 0 149.175 4.131 A 1.148 1.148 0 0 0 148.503 3.807 A 1.593 1.593 0 0 0 148.285 3.792 A 1.466 1.466 0 0 0 147.896 3.841 A 1.086 1.086 0 0 0 147.404 4.126 A 1.123 1.123 0 0 0 147.09 4.762 A 1.572 1.572 0 0 0 147.072 5.005 A 1.48 1.48 0 0 0 147.114 5.367 A 1.019 1.019 0 0 0 147.395 5.862 Q 147.701 6.158 148.234 6.173 A 2.053 2.053 0 0 0 148.294 6.174 Q 148.787 6.174 149.097 5.94 A 1.018 1.018 0 0 0 149.19 5.86 A 1.041 1.041 0 0 0 149.489 5.292 A 1.518 1.518 0 0 0 149.515 5.005 Z M 148.294 0.932 A 1.259 1.259 0 0 0 147.941 0.979 A 0.973 0.973 0 0 0 147.518 1.228 Q 147.221 1.525 147.221 2.035 A 1.325 1.325 0 0 0 147.266 2.387 A 0.994 0.994 0 0 0 147.514 2.823 A 0.974 0.974 0 0 0 148.076 3.108 A 1.382 1.382 0 0 0 148.294 3.125 A 1.279 1.279 0 0 0 148.638 3.08 A 0.952 0.952 0 0 0 149.074 2.823 A 1.018 1.018 0 0 0 149.349 2.26 A 1.426 1.426 0 0 0 149.366 2.035 A 1.282 1.282 0 0 0 149.316 1.668 A 1.013 1.013 0 0 0 149.063 1.239 Q 148.759 0.932 148.294 0.932 Z M 55.49 5.418 L 55.49 4.443 L 54.853 4.443 Q 53.359 4.443 53.359 5.317 Q 53.359 5.7 53.613 5.915 A 0.893 0.893 0 0 0 54.027 6.108 A 1.259 1.259 0 0 0 54.268 6.13 A 1.429 1.429 0 0 0 54.993 5.933 A 1.335 1.335 0 0 0 55.289 5.705 A 1.108 1.108 0 0 0 55.49 5.418 Z M 92.316 5.418 L 92.316 4.443 L 91.679 4.443 Q 90.185 4.443 90.185 5.317 Q 90.185 5.7 90.44 5.915 A 0.893 0.893 0 0 0 90.853 6.108 A 1.259 1.259 0 0 0 91.094 6.13 A 1.429 1.429 0 0 0 91.819 5.933 A 1.335 1.335 0 0 0 92.115 5.705 A 1.108 1.108 0 0 0 92.316 5.418 Z M 134.829 5.418 L 134.829 4.443 L 134.192 4.443 Q 132.697 4.443 132.697 5.317 Q 132.697 5.7 132.952 5.915 A 0.893 0.893 0 0 0 133.366 6.108 A 1.259 1.259 0 0 0 133.607 6.13 A 1.429 1.429 0 0 0 134.332 5.933 A 1.335 1.335 0 0 0 134.628 5.705 A 1.108 1.108 0 0 0 134.829 5.418 Z M 6.236 3.938 L 8.618 3.938 L 8.618 3.876 Q 8.592 3.417 8.421 3.111 A 1.13 1.13 0 0 0 8.284 2.916 A 0.983 0.983 0 0 0 7.629 2.584 A 1.39 1.39 0 0 0 7.475 2.575 A 1.106 1.106 0 0 0 6.953 2.698 A 1.14 1.14 0 0 0 6.649 2.933 A 1.417 1.417 0 0 0 6.372 3.379 Q 6.299 3.563 6.259 3.785 A 2.741 2.741 0 0 0 6.236 3.938 Z M 25.383 3.938 L 27.765 3.938 L 27.765 3.876 Q 27.739 3.417 27.568 3.111 A 1.13 1.13 0 0 0 27.431 2.916 A 0.983 0.983 0 0 0 26.776 2.584 A 1.39 1.39 0 0 0 26.622 2.575 A 1.106 1.106 0 0 0 26.1 2.698 A 1.14 1.14 0 0 0 25.796 2.933 A 1.417 1.417 0 0 0 25.519 3.379 Q 25.446 3.563 25.406 3.785 A 2.741 2.741 0 0 0 25.383 3.938 Z M 65.105 3.938 L 67.487 3.938 L 67.487 3.876 Q 67.461 3.417 67.29 3.111 A 1.13 1.13 0 0 0 67.153 2.916 A 0.983 0.983 0 0 0 66.499 2.584 A 1.39 1.39 0 0 0 66.344 2.575 A 1.106 1.106 0 0 0 65.822 2.698 A 1.14 1.14 0 0 0 65.518 2.933 A 1.417 1.417 0 0 0 65.242 3.379 Q 65.168 3.563 65.128 3.785 A 2.741 2.741 0 0 0 65.105 3.938 Z M 110.712 3.938 L 113.093 3.938 L 113.093 3.876 Q 113.067 3.417 112.897 3.111 A 1.13 1.13 0 0 0 112.759 2.916 A 0.983 0.983 0 0 0 112.105 2.584 A 1.39 1.39 0 0 0 111.951 2.575 A 1.106 1.106 0 0 0 111.428 2.698 A 1.14 1.14 0 0 0 111.125 2.933 A 1.417 1.417 0 0 0 110.848 3.379 Q 110.774 3.563 110.734 3.785 A 2.741 2.741 0 0 0 110.712 3.938 Z M 123.649 3.938 L 126.031 3.938 L 126.031 3.876 Q 126.005 3.417 125.834 3.111 A 1.13 1.13 0 0 0 125.697 2.916 A 0.983 0.983 0 0 0 125.042 2.584 A 1.39 1.39 0 0 0 124.888 2.575 A 1.106 1.106 0 0 0 124.366 2.698 A 1.14 1.14 0 0 0 124.062 2.933 A 1.417 1.417 0 0 0 123.786 3.379 Q 123.712 3.563 123.672 3.785 A 2.741 2.741 0 0 0 123.649 3.938 Z M 17.86 0.734 Q 17.86 0.536 17.98 0.4 Q 18.092 0.274 18.304 0.264 A 0.783 0.783 0 0 1 18.339 0.264 Q 18.576 0.264 18.699 0.4 A 0.474 0.474 0 0 1 18.821 0.703 A 0.614 0.614 0 0 1 18.822 0.734 A 0.523 0.523 0 0 1 18.797 0.9 A 0.442 0.442 0 0 1 18.699 1.063 Q 18.586 1.184 18.378 1.194 A 0.803 0.803 0 0 1 18.339 1.195 Q 18.166 1.195 18.055 1.126 A 0.362 0.362 0 0 1 17.98 1.063 A 0.456 0.456 0 0 1 17.862 0.788 A 0.605 0.605 0 0 1 17.86 0.734 Z M 62.293 0.734 Q 62.293 0.536 62.413 0.4 Q 62.525 0.274 62.737 0.264 A 0.783 0.783 0 0 1 62.772 0.264 Q 63.009 0.264 63.132 0.4 A 0.474 0.474 0 0 1 63.254 0.703 A 0.614 0.614 0 0 1 63.255 0.734 A 0.523 0.523 0 0 1 63.23 0.9 A 0.442 0.442 0 0 1 63.132 1.063 Q 63.019 1.184 62.811 1.194 A 0.803 0.803 0 0 1 62.772 1.195 Q 62.599 1.195 62.488 1.126 A 0.362 0.362 0 0 1 62.413 1.063 A 0.456 0.456 0 0 1 62.295 0.788 A 0.605 0.605 0 0 1 62.293 0.734 Z M 120.837 0.734 Q 120.837 0.536 120.957 0.4 Q 121.069 0.274 121.281 0.264 A 0.783 0.783 0 0 1 121.316 0.264 Q 121.553 0.264 121.676 0.4 A 0.474 0.474 0 0 1 121.798 0.703 A 0.614 0.614 0 0 1 121.799 0.734 A 0.523 0.523 0 0 1 121.774 0.9 A 0.442 0.442 0 0 1 121.676 1.063 Q 121.563 1.184 121.355 1.194 A 0.803 0.803 0 0 1 121.316 1.195 Q 121.143 1.195 121.032 1.126 A 0.362 0.362 0 0 1 120.957 1.063 A 0.456 0.456 0 0 1 120.839 0.788 A 0.605 0.605 0 0 1 120.837 0.734 Z M 158.511 0.734 Q 158.511 0.536 158.632 0.4 Q 158.744 0.274 158.955 0.264 A 0.783 0.783 0 0 1 158.99 0.264 Q 159.227 0.264 159.35 0.4 A 0.474 0.474 0 0 1 159.473 0.703 A 0.614 0.614 0 0 1 159.473 0.734 A 0.523 0.523 0 0 1 159.448 0.9 A 0.442 0.442 0 0 1 159.35 1.063 Q 159.238 1.184 159.03 1.194 A 0.803 0.803 0 0 1 158.99 1.195 Q 158.818 1.195 158.707 1.126 A 0.362 0.362 0 0 1 158.632 1.063 A 0.456 0.456 0 0 1 158.513 0.788 A 0.605 0.605 0 0 1 158.511 0.734 Z" vector-effect="non-scaling-stroke"/></g>
</svg>