<?xml version="1.0" encoding="UTF-8"?>
<svg width="48px" height="48px" viewBox="0 0 48 48" version="1.1" xmlns="http://www.w3.org/2000/svg" xmlns:xlink="http://www.w3.org/1999/xlink">
    <title>Icon-Resource/Storage/Res_Amazon-Simple-Storage-Service_S3-Object-Lock_48_Light</title>
    <g id="Icon-Resource/Storage/Res_Amazon-Simple-Storage-Service_S3-Object-Lock_48" stroke="none" stroke-width="1" fill="none" fill-rule="evenodd">
        <path transform="translate(0vw, 0vh), scale(.65)" d="M37.5,39.5 C37.5,39.943 37.305,40.336 37,40.611 L37,42 L35,42 L35,40.611 C34.695,40.336 34.5,39.943 34.5,39.5 C34.5,38.672 35.172,38 36,38 C36.828,38 37.5,38.672 37.5,39.5 L37.5,39.5 Z M25.194,28.307 C25.194,29.685 26.315,30.807 27.694,30.807 L27.694,32.807 C25.213,32.807 23.194,30.788 23.194,28.307 C23.194,25.825 25.213,23.807 27.694,23.807 C28.989,23.807 30.223,24.366 31.078,25.34 L29.574,26.66 C29.099,26.118 28.414,25.807 27.694,25.807 C26.315,25.807 25.194,26.928 25.194,28.307 L25.194,28.307 Z M21.416,4 C30.229,4 36.696,6.83 36.832,8.347 L36.812,8.501 C36.796,8.554 36.763,8.608 36.732,8.663 C36.71,8.703 36.695,8.742 36.665,8.783 C36.622,8.84 36.562,8.899 36.505,8.957 C36.466,8.997 36.435,9.036 36.389,9.076 C36.334,9.124 36.262,9.173 36.198,9.221 C36.124,9.276 36.058,9.331 35.972,9.386 C35.952,9.399 35.926,9.412 35.905,9.425 C33.855,10.698 28.568,12 21.416,12 C14.243,12 8.945,10.69 6.91,9.414 C6.896,9.405 6.878,9.396 6.864,9.387 C6.772,9.328 6.701,9.27 6.623,9.211 C6.564,9.167 6.498,9.122 6.447,9.078 C6.398,9.034 6.364,8.992 6.322,8.949 C6.269,8.894 6.211,8.838 6.171,8.784 C6.139,8.741 6.123,8.7 6.1,8.657 C6.071,8.605 6.038,8.552 6.023,8.501 L6.002,8.346 C6.141,6.829 12.606,4 21.416,4 L21.416,4 Z M39.127,22.281 C39.157,22.366 39.163,22.438 39.105,22.553 C39.094,22.577 39.03,22.619 38.919,22.656 C38.469,22.805 37.78,22.789 36.925,22.649 L37.188,20.701 C38.012,21.144 38.939,21.738 39.127,22.281 L39.127,22.281 Z M21.416,38.659 C14.107,38.659 9.853,36.822 9.726,36.074 C9.726,36.03 9.723,35.985 9.717,35.941 L6.415,11.417 C9.658,13.184 15.682,14.096 21.416,14.096 C27.151,14.096 33.176,13.184 36.42,11.417 L34.967,22.201 C31.722,21.299 27.36,19.465 23.985,17.856 C23.91,16.821 23.053,16 22,16 C20.897,16 20,16.897 20,18 C20,19.103 20.897,20 22,20 C22.413,20 22.797,19.874 23.116,19.659 C25.798,20.944 30.722,23.163 34.7,24.188 L34.474,25.867 L36.456,26.133 L36.663,24.597 C37.209,24.681 37.731,24.738 38.192,24.738 C38.711,24.738 39.17,24.68 39.55,24.554 C40.334,24.293 40.714,23.808 40.895,23.447 C41.187,22.863 41.229,22.232 41.016,21.623 C40.523,20.209 38.748,19.216 37.471,18.597 L38.781,8.866 C38.781,8.865 38.781,8.864 38.781,8.863 C38.781,8.862 38.781,8.862 38.781,8.862 L38.825,8.524 C38.831,8.481 38.834,8.438 38.834,8.395 C38.834,4.626 29.654,2 21.416,2 C13.179,2 4,4.626 4,8.395 C4,8.439 4.003,8.483 4.009,8.527 L4.054,8.865 C4.054,8.865 4.054,8.865 4.054,8.865 C4.054,8.865 4.054,8.866 4.054,8.866 L7.728,36.152 C7.853,39.457 15.955,40.659 21.416,40.659 C22.647,40.659 23.883,40.605 25.089,40.498 L24.911,38.505 C23.765,38.607 22.589,38.659 21.416,38.659 L21.416,38.659 Z M12.724,24 L15,20.016 L17.276,24 L12.724,24 Z M19.865,25.502 C20.044,25.194 20.045,24.813 19.868,24.504 L15.868,17.504 C15.513,16.881 14.487,16.881 14.132,17.504 L10.132,24.504 C9.955,24.813 9.956,25.194 10.135,25.502 C10.314,25.81 10.644,26 10.9999958,26 L18.9999958,26 C19.356,26 19.686,25.81 19.865,25.502 L19.865,25.502 Z M15,34 L19,34 L19,30 L15,30 L15,34 Z M14,36 L20,36 C20.553,36 21,35.552 21,35 L21,29 C21,28.448 20.553,28 20,28 L14,28 C13.447,28 13,28.448 13,29 L13,35 C13,35.552 13.447,36 14,36 L14,36 Z M42,44 L30,44 L30,36 L32,36 L40,36 L42,36 L42,44 Z M33,32 C33,30.897 33.897,30 35,30 L37,30 C38.103,30 39,30.897 39,32 L39,34 L33,34 L33,32 Z M43,34 L41,34 L41,32 C41,29.794 39.206,28 37,28 L35,28 C32.794,28 31,29.794 31,32 L31,34 L29,34 C28.447,34 28,34.448 28,35 L28,45 C28,45.552 28.447,46 29,46 L43,46 C43.553,46 44,45.552 44,45 L44,35 C44,34.448 43.553,34 43,34 L43,34 Z" id="Fill-1" fill="#000000"></path>
    </g><g transform="translate(12vw, 80vh)" id="svgGroup" stroke-linecap="round" fill-rule="evenodd" font-size="9pt" stroke="#000" stroke-width="0.25mm" fill="#000" style="stroke:#000;stroke-width:0.25mm;fill:#000"><path d="M 7.783 1.995 L 8.552 1.995 L 8.574 2.522 Q 9.097 1.907 9.985 1.907 A 2.009 2.009 0 0 1 10.495 1.968 A 1.244 1.244 0 0 1 11.342 2.672 A 1.801 1.801 0 0 1 11.96 2.118 A 1.65 1.65 0 0 1 12.489 1.937 A 2.209 2.209 0 0 1 12.859 1.907 A 2.119 2.119 0 0 1 13.503 1.997 Q 14.429 2.292 14.449 3.564 L 14.449 6.75 L 13.636 6.75 L 13.636 3.612 A 1.781 1.781 0 0 0 13.616 3.332 Q 13.592 3.185 13.542 3.067 A 0.758 0.758 0 0 0 13.403 2.85 A 0.68 0.68 0 0 0 13.151 2.682 Q 12.939 2.597 12.622 2.597 A 1.245 1.245 0 0 0 12.256 2.648 A 1.008 1.008 0 0 0 11.87 2.867 A 1.042 1.042 0 0 0 11.556 3.404 A 1.41 1.41 0 0 0 11.523 3.595 L 11.523 6.75 L 10.705 6.75 L 10.705 3.634 A 1.532 1.532 0 0 0 10.657 3.23 Q 10.53 2.768 10.073 2.643 A 1.457 1.457 0 0 0 9.69 2.597 Q 8.916 2.597 8.616 3.234 A 1.459 1.459 0 0 0 8.596 3.278 L 8.596 6.75 L 7.783 6.75 L 7.783 1.995 Z M 4.636 2.202 L 3.788 2.202 A 1.466 1.466 0 0 0 3.738 1.809 A 1.066 1.066 0 0 0 3.419 1.29 A 1.211 1.211 0 0 0 2.95 1.033 Q 2.698 0.958 2.378 0.958 A 2.286 2.286 0 0 0 1.998 0.988 Q 1.796 1.022 1.633 1.095 A 1.101 1.101 0 0 0 1.404 1.233 A 0.892 0.892 0 0 0 1.059 1.887 A 1.267 1.267 0 0 0 1.055 1.995 A 0.806 0.806 0 0 0 1.323 2.6 A 1.134 1.134 0 0 0 1.387 2.656 A 1.562 1.562 0 0 0 1.625 2.813 Q 1.955 2.993 2.516 3.151 A 8.228 8.228 0 0 1 2.981 3.295 Q 3.216 3.377 3.41 3.464 A 3.297 3.297 0 0 1 3.764 3.645 A 2.342 2.342 0 0 1 4.103 3.889 Q 4.293 4.056 4.415 4.248 A 1.45 1.45 0 0 1 4.432 4.276 A 1.498 1.498 0 0 1 4.628 4.832 A 1.948 1.948 0 0 1 4.65 5.124 A 1.606 1.606 0 0 1 4.527 5.76 Q 4.382 6.101 4.064 6.354 A 1.886 1.886 0 0 1 4.043 6.37 Q 3.437 6.838 2.422 6.838 A 3.023 3.023 0 0 1 1.281 6.623 A 2.917 2.917 0 0 1 1.191 6.585 A 2.383 2.383 0 0 1 0.713 6.307 A 1.874 1.874 0 0 1 0.31 5.893 A 1.689 1.689 0 0 1 0 4.896 L 0.848 4.896 A 1.261 1.261 0 0 0 0.918 5.323 A 1.074 1.074 0 0 0 1.277 5.812 Q 1.661 6.113 2.278 6.144 A 2.87 2.87 0 0 0 2.422 6.148 A 2.628 2.628 0 0 0 2.809 6.121 Q 3.005 6.092 3.164 6.031 A 1.129 1.129 0 0 0 3.445 5.875 Q 3.801 5.603 3.801 5.133 A 1.074 1.074 0 0 0 3.759 4.822 A 0.816 0.816 0 0 0 3.472 4.406 Q 3.142 4.148 2.277 3.898 Q 1.191 3.586 0.697 3.131 Q 0.202 2.676 0.202 2.008 Q 0.202 1.252 0.807 0.758 A 2.121 2.121 0 0 1 1.697 0.335 A 3.087 3.087 0 0 1 2.378 0.264 A 2.913 2.913 0 0 1 3.038 0.336 A 2.372 2.372 0 0 1 3.553 0.519 A 2.051 2.051 0 0 1 4.084 0.889 A 1.834 1.834 0 0 1 4.353 1.222 A 1.798 1.798 0 0 1 4.636 2.202 Z M 34.277 2.202 L 33.429 2.202 A 1.466 1.466 0 0 0 33.38 1.809 A 1.066 1.066 0 0 0 33.06 1.29 A 1.211 1.211 0 0 0 32.591 1.033 Q 32.339 0.958 32.019 0.958 A 2.286 2.286 0 0 0 31.639 0.988 Q 31.437 1.022 31.274 1.095 A 1.101 1.101 0 0 0 31.045 1.233 A 0.892 0.892 0 0 0 30.7 1.887 A 1.267 1.267 0 0 0 30.696 1.995 A 0.806 0.806 0 0 0 30.964 2.6 A 1.134 1.134 0 0 0 31.028 2.656 A 1.562 1.562 0 0 0 31.266 2.813 Q 31.596 2.993 32.157 3.151 A 8.228 8.228 0 0 1 32.622 3.295 Q 32.857 3.377 33.051 3.464 A 3.297 3.297 0 0 1 33.405 3.645 A 2.342 2.342 0 0 1 33.744 3.889 Q 33.934 4.056 34.056 4.248 A 1.45 1.45 0 0 1 34.073 4.276 A 1.498 1.498 0 0 1 34.269 4.832 A 1.948 1.948 0 0 1 34.291 5.124 A 1.606 1.606 0 0 1 34.168 5.76 Q 34.023 6.101 33.705 6.354 A 1.886 1.886 0 0 1 33.684 6.37 Q 33.078 6.838 32.063 6.838 A 3.023 3.023 0 0 1 30.922 6.623 A 2.917 2.917 0 0 1 30.832 6.585 A 2.383 2.383 0 0 1 30.354 6.307 A 1.874 1.874 0 0 1 29.951 5.893 A 1.689 1.689 0 0 1 29.641 4.896 L 30.489 4.896 A 1.261 1.261 0 0 0 30.559 5.323 A 1.074 1.074 0 0 0 30.918 5.812 Q 31.302 6.113 31.919 6.144 A 2.87 2.87 0 0 0 32.063 6.148 A 2.628 2.628 0 0 0 32.45 6.121 Q 32.646 6.092 32.805 6.031 A 1.129 1.129 0 0 0 33.087 5.875 Q 33.443 5.603 33.443 5.133 A 1.074 1.074 0 0 0 33.4 4.822 A 0.816 0.816 0 0 0 33.113 4.406 Q 32.783 4.148 31.918 3.898 Q 30.832 3.586 30.338 3.131 Q 29.843 2.676 29.843 2.008 Q 29.843 1.252 30.448 0.758 A 2.121 2.121 0 0 1 31.338 0.335 A 3.087 3.087 0 0 1 32.019 0.264 A 2.913 2.913 0 0 1 32.679 0.336 A 2.372 2.372 0 0 1 33.194 0.519 A 2.051 2.051 0 0 1 33.725 0.889 A 1.834 1.834 0 0 1 33.994 1.222 A 1.798 1.798 0 0 1 34.277 2.202 Z M 54.035 2.522 L 54.075 1.995 L 54.818 1.995 L 54.818 6.636 A 2.511 2.511 0 0 1 54.747 7.249 A 1.738 1.738 0 0 1 54.27 8.09 A 1.834 1.834 0 0 1 53.341 8.57 A 2.671 2.671 0 0 1 52.8 8.622 A 2.446 2.446 0 0 1 51.794 8.402 A 2.003 2.003 0 0 1 51.384 8.161 A 1.563 1.563 0 0 1 51.043 7.8 L 51.465 7.313 A 1.889 1.889 0 0 0 51.899 7.712 A 1.514 1.514 0 0 0 52.743 7.958 A 1.695 1.695 0 0 0 53.12 7.919 Q 53.389 7.858 53.583 7.702 A 1.037 1.037 0 0 0 53.668 7.625 A 1.09 1.09 0 0 0 53.945 7.132 Q 53.992 6.959 53.999 6.752 A 2.134 2.134 0 0 0 54 6.684 L 54 6.275 A 1.601 1.601 0 0 1 52.948 6.821 A 2.279 2.279 0 0 1 52.669 6.838 A 1.672 1.672 0 0 1 51.913 6.67 Q 51.591 6.51 51.342 6.197 A 2.14 2.14 0 0 1 51.317 6.166 A 2.316 2.316 0 0 1 50.934 5.386 Q 50.801 4.922 50.801 4.333 Q 50.801 3.472 51.109 2.884 A 2.096 2.096 0 0 1 51.315 2.564 Q 51.829 1.907 52.677 1.907 A 1.971 1.971 0 0 1 53.276 1.994 A 1.55 1.55 0 0 1 54.035 2.522 Z M 49.887 6.75 L 49.034 6.75 A 0.632 0.632 0 0 1 48.999 6.66 Q 48.968 6.562 48.943 6.41 A 3.997 3.997 0 0 1 48.92 6.249 Q 48.353 6.838 47.567 6.838 A 2.033 2.033 0 0 1 47.037 6.772 A 1.529 1.529 0 0 1 46.413 6.44 Q 45.963 6.042 45.963 5.432 Q 45.963 4.689 46.527 4.278 Q 47.092 3.867 48.116 3.867 L 48.907 3.867 L 48.907 3.494 A 1.152 1.152 0 0 0 48.871 3.199 A 0.828 0.828 0 0 0 48.652 2.815 Q 48.436 2.6 48.045 2.568 A 1.748 1.748 0 0 0 47.901 2.562 Q 47.465 2.562 47.171 2.782 Q 46.877 3.001 46.877 3.313 L 46.059 3.313 A 1.041 1.041 0 0 1 46.184 2.825 A 1.409 1.409 0 0 1 46.312 2.626 Q 46.565 2.294 46.997 2.101 A 2.249 2.249 0 0 1 47.773 1.913 A 2.669 2.669 0 0 1 47.949 1.907 A 2.65 2.65 0 0 1 48.466 1.955 Q 48.774 2.016 49.012 2.156 A 1.439 1.439 0 0 1 49.236 2.318 A 1.396 1.396 0 0 1 49.69 3.144 A 1.998 1.998 0 0 1 49.72 3.45 L 49.72 5.638 Q 49.72 6.073 49.794 6.39 A 1.707 1.707 0 0 0 49.887 6.68 L 49.887 6.75 Z M 19.692 4.351 L 19.692 4.425 Q 19.692 5.511 19.195 6.174 A 1.57 1.57 0 0 1 18.057 6.828 A 2.013 2.013 0 0 1 17.851 6.838 A 2.196 2.196 0 0 1 17.265 6.764 A 1.598 1.598 0 0 1 16.488 6.289 L 16.488 8.578 L 15.675 8.578 L 15.675 1.995 L 16.418 1.995 L 16.458 2.522 A 1.619 1.619 0 0 1 17.597 1.919 A 2.319 2.319 0 0 1 17.838 1.907 A 1.829 1.829 0 0 1 18.475 2.014 A 1.597 1.597 0 0 1 19.193 2.553 Q 19.692 3.199 19.692 4.351 Z M 22.702 4.504 L 22.702 4.355 A 3.17 3.17 0 0 1 22.779 3.646 A 2.581 2.581 0 0 1 22.973 3.092 A 2.191 2.191 0 0 1 23.42 2.466 A 2.033 2.033 0 0 1 23.728 2.221 Q 24.214 1.907 24.781 1.907 A 2.254 2.254 0 0 1 25.394 1.986 A 1.639 1.639 0 0 1 26.222 2.518 Q 26.736 3.129 26.736 4.267 L 26.736 4.605 L 23.515 4.605 A 2.111 2.111 0 0 0 23.586 5.114 A 1.516 1.516 0 0 0 23.926 5.741 A 1.282 1.282 0 0 0 24.86 6.173 A 1.652 1.652 0 0 0 24.926 6.174 A 1.763 1.763 0 0 0 25.254 6.145 Q 25.478 6.103 25.655 5.999 A 1.827 1.827 0 0 0 26.164 5.551 A 2.068 2.068 0 0 0 26.178 5.533 L 26.675 5.919 A 1.926 1.926 0 0 1 25.275 6.811 A 2.749 2.749 0 0 1 24.882 6.838 A 2.394 2.394 0 0 1 24.131 6.725 A 1.974 1.974 0 0 1 23.309 6.203 Q 22.702 5.568 22.702 4.504 Z M 55.837 4.504 L 55.837 4.355 A 3.17 3.17 0 0 1 55.913 3.646 A 2.581 2.581 0 0 1 56.107 3.092 A 2.191 2.191 0 0 1 56.555 2.466 A 2.033 2.033 0 0 1 56.863 2.221 Q 57.349 1.907 57.916 1.907 A 2.254 2.254 0 0 1 58.529 1.986 A 1.639 1.639 0 0 1 59.357 2.518 Q 59.871 3.129 59.871 4.267 L 59.871 4.605 L 56.65 4.605 A 2.111 2.111 0 0 0 56.721 5.114 A 1.516 1.516 0 0 0 57.061 5.741 A 1.282 1.282 0 0 0 57.995 6.173 A 1.652 1.652 0 0 0 58.061 6.174 A 1.763 1.763 0 0 0 58.389 6.145 Q 58.613 6.103 58.79 5.999 A 1.827 1.827 0 0 0 59.299 5.551 A 2.068 2.068 0 0 0 59.313 5.533 L 59.81 5.919 A 1.926 1.926 0 0 1 58.41 6.811 A 2.749 2.749 0 0 1 58.017 6.838 A 2.394 2.394 0 0 1 57.266 6.725 A 1.974 1.974 0 0 1 56.444 6.203 Q 55.837 5.568 55.837 4.504 Z M 35.534 0.844 L 36.347 0.844 L 36.347 1.995 L 37.235 1.995 L 37.235 2.624 L 36.347 2.624 L 36.347 5.572 Q 36.347 5.858 36.466 6.001 Q 36.585 6.144 36.87 6.144 A 1.046 1.046 0 0 0 36.968 6.138 Q 37.071 6.129 37.21 6.101 A 4.024 4.024 0 0 0 37.257 6.091 L 37.257 6.75 A 2.463 2.463 0 0 1 36.824 6.829 A 2.157 2.157 0 0 1 36.633 6.838 Q 36.186 6.838 35.919 6.616 A 0.856 0.856 0 0 1 35.811 6.508 Q 35.584 6.238 35.543 5.78 A 2.351 2.351 0 0 1 35.534 5.572 L 35.534 2.624 L 34.669 2.624 L 34.669 1.995 L 35.534 1.995 L 35.534 0.844 Z M 21.608 0 L 21.608 6.75 L 20.795 6.75 L 20.795 0 L 21.608 0 Z M 37.881 4.386 L 37.881 4.329 A 3.057 3.057 0 0 1 37.968 3.587 A 2.573 2.573 0 0 1 38.156 3.072 A 2.16 2.16 0 0 1 38.57 2.486 A 1.957 1.957 0 0 1 38.92 2.21 A 2.036 2.036 0 0 1 39.865 1.913 A 2.491 2.491 0 0 1 40.039 1.907 A 2.277 2.277 0 0 1 40.792 2.027 A 1.937 1.937 0 0 1 41.61 2.58 A 2.29 2.29 0 0 1 42.129 3.608 A 3.373 3.373 0 0 1 42.21 4.368 L 42.21 4.425 A 3.114 3.114 0 0 1 42.13 5.142 A 2.577 2.577 0 0 1 41.944 5.671 A 2.056 2.056 0 0 1 41.416 6.361 A 2.001 2.001 0 0 1 41.183 6.53 A 2.045 2.045 0 0 1 40.264 6.829 A 2.529 2.529 0 0 1 40.048 6.838 A 2.262 2.262 0 0 1 39.297 6.718 A 1.938 1.938 0 0 1 38.481 6.166 A 2.297 2.297 0 0 1 37.955 5.111 A 3.357 3.357 0 0 1 37.881 4.386 Z M 45.527 1.969 L 45.527 2.725 A 2.251 2.251 0 0 0 45.285 2.698 A 2.782 2.782 0 0 0 45.128 2.694 Q 44.35 2.694 44.058 3.338 A 1.445 1.445 0 0 0 44.042 3.375 L 44.042 6.75 L 43.229 6.75 L 43.229 1.995 L 44.02 1.995 L 44.033 2.544 Q 44.414 1.938 45.096 1.909 A 1.636 1.636 0 0 1 45.167 1.907 Q 45.404 1.907 45.527 1.969 Z M 6.486 1.995 L 6.486 6.75 L 5.673 6.75 L 5.673 1.995 L 6.486 1.995 Z M 38.698 4.425 A 2.772 2.772 0 0 0 38.746 4.954 Q 38.806 5.264 38.944 5.51 A 1.545 1.545 0 0 0 39.065 5.695 Q 39.432 6.174 40.048 6.174 A 1.269 1.269 0 0 0 40.537 6.083 Q 40.816 5.967 41.019 5.706 A 1.471 1.471 0 0 0 41.032 5.689 A 1.648 1.648 0 0 0 41.287 5.171 Q 41.355 4.945 41.381 4.672 A 3.655 3.655 0 0 0 41.397 4.329 A 2.687 2.687 0 0 0 41.345 3.789 Q 41.278 3.459 41.12 3.2 A 1.586 1.586 0 0 0 41.025 3.061 A 1.231 1.231 0 0 0 40.61 2.705 Q 40.357 2.575 40.039 2.575 Q 39.449 2.575 39.083 3.035 A 1.515 1.515 0 0 0 39.068 3.054 A 1.589 1.589 0 0 0 38.815 3.552 Q 38.746 3.772 38.718 4.039 A 3.676 3.676 0 0 0 38.698 4.425 Z M 16.488 3.252 L 16.488 5.524 Q 16.853 6.174 17.605 6.174 A 1.184 1.184 0 0 0 18.07 6.086 Q 18.327 5.977 18.516 5.735 A 1.403 1.403 0 0 0 18.534 5.711 A 1.501 1.501 0 0 0 18.751 5.28 Q 18.819 5.073 18.851 4.818 A 3.91 3.91 0 0 0 18.879 4.333 Q 18.879 3.746 18.696 3.339 A 1.503 1.503 0 0 0 18.536 3.063 A 1.086 1.086 0 0 0 17.75 2.605 A 1.414 1.414 0 0 0 17.596 2.597 Q 16.935 2.597 16.57 3.121 A 1.623 1.623 0 0 0 16.488 3.252 Z M 54 5.449 L 54 3.278 A 1.439 1.439 0 0 0 53.699 2.891 Q 53.396 2.62 52.955 2.599 A 1.578 1.578 0 0 0 52.88 2.597 Q 52.288 2.597 51.954 3.056 A 1.51 1.51 0 0 0 51.743 3.484 Q 51.677 3.689 51.646 3.939 A 3.955 3.955 0 0 0 51.618 4.425 Q 51.618 5.229 51.948 5.689 Q 52.277 6.148 52.871 6.148 A 1.32 1.32 0 0 0 53.38 6.054 Q 53.772 5.891 54 5.449 Z M 48.907 5.418 L 48.907 4.443 L 48.27 4.443 Q 46.776 4.443 46.776 5.317 Q 46.776 5.7 47.03 5.915 A 0.893 0.893 0 0 0 47.444 6.108 A 1.259 1.259 0 0 0 47.685 6.13 A 1.429 1.429 0 0 0 48.41 5.933 A 1.335 1.335 0 0 0 48.706 5.705 A 1.108 1.108 0 0 0 48.907 5.418 Z M 23.542 3.938 L 25.923 3.938 L 25.923 3.876 Q 25.897 3.417 25.727 3.111 A 1.13 1.13 0 0 0 25.59 2.916 A 0.983 0.983 0 0 0 24.935 2.584 A 1.39 1.39 0 0 0 24.781 2.575 A 1.106 1.106 0 0 0 24.258 2.698 A 1.14 1.14 0 0 0 23.955 2.933 A 1.417 1.417 0 0 0 23.678 3.379 Q 23.604 3.563 23.565 3.785 A 2.741 2.741 0 0 0 23.542 3.938 Z M 56.676 3.938 L 59.058 3.938 L 59.058 3.876 Q 59.032 3.417 58.862 3.111 A 1.13 1.13 0 0 0 58.724 2.916 A 0.983 0.983 0 0 0 58.07 2.584 A 1.39 1.39 0 0 0 57.916 2.575 A 1.106 1.106 0 0 0 57.393 2.698 A 1.14 1.14 0 0 0 57.09 2.933 A 1.417 1.417 0 0 0 56.813 3.379 Q 56.739 3.563 56.699 3.785 A 2.741 2.741 0 0 0 56.676 3.938 Z M 5.608 0.734 Q 5.608 0.536 5.728 0.4 Q 5.84 0.274 6.052 0.264 A 0.783 0.783 0 0 1 6.087 0.264 Q 6.324 0.264 6.447 0.4 A 0.474 0.474 0 0 1 6.569 0.703 A 0.614 0.614 0 0 1 6.57 0.734 A 0.523 0.523 0 0 1 6.545 0.9 A 0.442 0.442 0 0 1 6.447 1.063 Q 6.334 1.184 6.126 1.194 A 0.803 0.803 0 0 1 6.087 1.195 Q 5.914 1.195 5.803 1.126 A 0.362 0.362 0 0 1 5.728 1.063 A 0.456 0.456 0 0 1 5.61 0.788 A 0.605 0.605 0 0 1 5.608 0.734 Z" vector-effect="non-scaling-stroke"/></g><g transform="translate(12vw, 90vh)" id="svgGroup" stroke-linecap="round" fill-rule="evenodd" font-size="9pt" stroke="#000" stroke-width="0.25mm" fill="#000" style="stroke:#000;stroke-width:0.25mm;fill:#000"><path d="M 4.636 2.202 L 3.788 2.202 A 1.466 1.466 0 0 0 3.738 1.809 A 1.066 1.066 0 0 0 3.419 1.29 A 1.211 1.211 0 0 0 2.95 1.033 Q 2.698 0.958 2.378 0.958 A 2.286 2.286 0 0 0 1.998 0.988 Q 1.796 1.022 1.633 1.095 A 1.101 1.101 0 0 0 1.404 1.233 A 0.892 0.892 0 0 0 1.059 1.887 A 1.267 1.267 0 0 0 1.055 1.995 A 0.806 0.806 0 0 0 1.323 2.6 A 1.134 1.134 0 0 0 1.387 2.656 A 1.562 1.562 0 0 0 1.625 2.813 Q 1.955 2.993 2.516 3.151 A 8.228 8.228 0 0 1 2.981 3.295 Q 3.216 3.377 3.41 3.464 A 3.297 3.297 0 0 1 3.764 3.645 A 2.342 2.342 0 0 1 4.103 3.889 Q 4.293 4.056 4.415 4.248 A 1.45 1.45 0 0 1 4.432 4.276 A 1.498 1.498 0 0 1 4.628 4.832 A 1.948 1.948 0 0 1 4.65 5.124 A 1.606 1.606 0 0 1 4.527 5.76 Q 4.382 6.101 4.064 6.354 A 1.886 1.886 0 0 1 4.043 6.37 Q 3.437 6.838 2.422 6.838 A 3.023 3.023 0 0 1 1.281 6.623 A 2.917 2.917 0 0 1 1.191 6.585 A 2.383 2.383 0 0 1 0.713 6.307 A 1.874 1.874 0 0 1 0.31 5.893 A 1.689 1.689 0 0 1 0 4.896 L 0.848 4.896 A 1.261 1.261 0 0 0 0.918 5.323 A 1.074 1.074 0 0 0 1.277 5.812 Q 1.661 6.113 2.278 6.144 A 2.87 2.87 0 0 0 2.422 6.148 A 2.628 2.628 0 0 0 2.809 6.121 Q 3.005 6.092 3.164 6.031 A 1.129 1.129 0 0 0 3.445 5.875 Q 3.801 5.603 3.801 5.133 A 1.074 1.074 0 0 0 3.759 4.822 A 0.816 0.816 0 0 0 3.472 4.406 Q 3.142 4.148 2.277 3.898 Q 1.191 3.586 0.697 3.131 Q 0.202 2.676 0.202 2.008 Q 0.202 1.252 0.807 0.758 A 2.121 2.121 0 0 1 1.697 0.335 A 3.087 3.087 0 0 1 2.378 0.264 A 2.913 2.913 0 0 1 3.038 0.336 A 2.372 2.372 0 0 1 3.553 0.519 A 2.051 2.051 0 0 1 4.084 0.889 A 1.834 1.834 0 0 1 4.353 1.222 A 1.798 1.798 0 0 1 4.636 2.202 Z M 36.119 2.202 L 35.271 2.202 A 1.466 1.466 0 0 0 35.221 1.809 A 1.066 1.066 0 0 0 34.902 1.29 A 1.211 1.211 0 0 0 34.432 1.033 Q 34.18 0.958 33.86 0.958 A 2.286 2.286 0 0 0 33.48 0.988 Q 33.278 1.022 33.116 1.095 A 1.101 1.101 0 0 0 32.887 1.233 A 0.892 0.892 0 0 0 32.542 1.887 A 1.267 1.267 0 0 0 32.537 1.995 A 0.806 0.806 0 0 0 32.805 2.6 A 1.134 1.134 0 0 0 32.869 2.656 A 1.562 1.562 0 0 0 33.107 2.813 Q 33.438 2.993 33.998 3.151 A 8.228 8.228 0 0 1 34.463 3.295 Q 34.698 3.377 34.893 3.464 A 3.297 3.297 0 0 1 35.246 3.645 A 2.342 2.342 0 0 1 35.585 3.889 Q 35.775 4.056 35.897 4.248 A 1.45 1.45 0 0 1 35.914 4.276 A 1.498 1.498 0 0 1 36.111 4.832 A 1.948 1.948 0 0 1 36.132 5.124 A 1.606 1.606 0 0 1 36.01 5.76 Q 35.864 6.101 35.546 6.354 A 1.886 1.886 0 0 1 35.526 6.37 Q 34.919 6.838 33.904 6.838 A 3.023 3.023 0 0 1 32.763 6.623 A 2.917 2.917 0 0 1 32.673 6.585 A 2.383 2.383 0 0 1 32.195 6.307 A 1.874 1.874 0 0 1 31.792 5.893 A 1.689 1.689 0 0 1 31.483 4.896 L 32.331 4.896 A 1.261 1.261 0 0 0 32.4 5.323 A 1.074 1.074 0 0 0 32.759 5.812 Q 33.144 6.113 33.76 6.144 A 2.87 2.87 0 0 0 33.904 6.148 A 2.628 2.628 0 0 0 34.291 6.121 Q 34.487 6.092 34.646 6.031 A 1.129 1.129 0 0 0 34.928 5.875 Q 35.284 5.603 35.284 5.133 A 1.074 1.074 0 0 0 35.241 4.822 A 0.816 0.816 0 0 0 34.954 4.406 Q 34.625 4.148 33.759 3.898 Q 32.673 3.586 32.179 3.131 Q 31.685 2.676 31.685 2.008 Q 31.685 1.252 32.289 0.758 A 2.121 2.121 0 0 1 33.179 0.335 A 3.087 3.087 0 0 1 33.86 0.264 A 2.913 2.913 0 0 1 34.52 0.336 A 2.372 2.372 0 0 1 35.036 0.519 A 2.051 2.051 0 0 1 35.567 0.889 A 1.834 1.834 0 0 1 35.835 1.222 A 1.798 1.798 0 0 1 36.119 2.202 Z M 38.184 3.819 L 38.184 3.155 L 38.795 3.155 Q 39.253 3.148 39.555 2.961 A 1.045 1.045 0 0 0 39.7 2.852 A 0.97 0.97 0 0 0 40.02 2.225 A 1.373 1.373 0 0 0 40.03 2.057 A 1.626 1.626 0 0 0 39.974 1.611 Q 39.832 1.112 39.324 0.98 A 1.645 1.645 0 0 0 38.909 0.932 A 1.495 1.495 0 0 0 38.547 0.973 A 1.044 1.044 0 0 0 38.068 1.233 A 1.004 1.004 0 0 0 37.766 1.844 A 1.405 1.405 0 0 0 37.754 2.03 L 36.941 2.03 A 1.698 1.698 0 0 1 37.095 1.3 A 1.68 1.68 0 0 1 37.496 0.767 A 1.924 1.924 0 0 1 38.549 0.288 A 2.615 2.615 0 0 1 38.909 0.264 A 2.758 2.758 0 0 1 39.485 0.32 Q 39.853 0.399 40.132 0.586 A 1.593 1.593 0 0 1 40.329 0.743 A 1.57 1.57 0 0 1 40.795 1.589 A 2.336 2.336 0 0 1 40.843 2.074 A 1.332 1.332 0 0 1 40.691 2.686 A 1.725 1.725 0 0 1 40.573 2.883 A 1.624 1.624 0 0 1 39.873 3.452 A 1.952 1.952 0 0 1 39.837 3.467 A 1.81 1.81 0 0 1 40.272 3.668 A 1.44 1.44 0 0 1 40.652 4.021 Q 40.94 4.408 40.94 4.966 Q 40.94 5.827 40.377 6.333 A 1.935 1.935 0 0 1 39.42 6.793 A 2.738 2.738 0 0 1 38.914 6.838 A 2.716 2.716 0 0 1 38.267 6.765 A 1.936 1.936 0 0 1 37.448 6.35 Q 36.883 5.862 36.883 5.063 L 37.701 5.063 A 1.255 1.255 0 0 0 37.751 5.426 A 0.978 0.978 0 0 0 38.03 5.871 A 1.113 1.113 0 0 0 38.545 6.135 A 1.643 1.643 0 0 0 38.914 6.174 Q 39.503 6.174 39.815 5.867 Q 40.102 5.583 40.125 5.073 A 2.011 2.011 0 0 0 40.127 4.983 A 1.451 1.451 0 0 0 40.087 4.634 A 0.962 0.962 0 0 0 39.784 4.126 A 1.13 1.13 0 0 0 39.396 3.91 Q 39.138 3.824 38.795 3.819 L 38.184 3.819 Z M 119.101 0 L 119.101 2.571 A 1.767 1.767 0 0 1 119.767 2.053 A 1.832 1.832 0 0 1 120.507 1.907 A 1.905 1.905 0 0 1 121.14 2.004 Q 121.982 2.3 122.025 3.506 A 3.668 3.668 0 0 1 122.027 3.608 L 122.027 6.75 L 121.215 6.75 L 121.215 3.604 A 1.837 1.837 0 0 0 121.192 3.324 Q 121.142 3.017 120.979 2.843 Q 120.793 2.645 120.44 2.606 A 1.66 1.66 0 0 0 120.261 2.597 A 1.253 1.253 0 0 0 119.847 2.664 A 1.123 1.123 0 0 0 119.567 2.808 A 1.432 1.432 0 0 0 119.101 3.362 L 119.101 6.75 L 118.288 6.75 L 118.288 0 L 119.101 0 Z M 90.07 6.75 L 88.414 4.548 L 87.904 5.08 L 87.904 6.75 L 87.091 6.75 L 87.091 0 L 87.904 0 L 87.904 4.083 L 88.339 3.56 L 89.82 1.995 L 90.809 1.995 L 88.959 3.981 L 91.024 6.75 L 90.07 6.75 Z M 116.279 2.522 L 116.319 1.995 L 117.062 1.995 L 117.062 6.636 A 2.511 2.511 0 0 1 116.991 7.249 A 1.738 1.738 0 0 1 116.515 8.09 A 1.834 1.834 0 0 1 115.585 8.57 A 2.671 2.671 0 0 1 115.045 8.622 A 2.446 2.446 0 0 1 114.038 8.402 A 2.003 2.003 0 0 1 113.628 8.161 A 1.563 1.563 0 0 1 113.287 7.8 L 113.709 7.313 A 1.889 1.889 0 0 0 114.143 7.712 A 1.514 1.514 0 0 0 114.987 7.958 A 1.695 1.695 0 0 0 115.364 7.919 Q 115.633 7.858 115.827 7.702 A 1.037 1.037 0 0 0 115.913 7.625 A 1.09 1.09 0 0 0 116.19 7.132 Q 116.237 6.959 116.243 6.752 A 2.134 2.134 0 0 0 116.244 6.684 L 116.244 6.275 A 1.601 1.601 0 0 1 115.192 6.821 A 2.279 2.279 0 0 1 114.913 6.838 A 1.672 1.672 0 0 1 114.157 6.67 Q 113.835 6.51 113.586 6.197 A 2.14 2.14 0 0 1 113.561 6.166 A 2.316 2.316 0 0 1 113.178 5.386 Q 113.045 4.922 113.045 4.333 Q 113.045 3.472 113.353 2.884 A 2.096 2.096 0 0 1 113.559 2.564 Q 114.073 1.907 114.922 1.907 A 1.971 1.971 0 0 1 115.52 1.994 A 1.55 1.55 0 0 1 116.279 2.522 Z M 23.067 5.251 L 23.836 5.251 A 1.432 1.432 0 0 1 23.637 5.901 A 1.772 1.772 0 0 1 23.555 6.029 A 1.828 1.828 0 0 1 22.946 6.574 A 2.169 2.169 0 0 1 22.863 6.618 A 1.997 1.997 0 0 1 21.946 6.838 A 2.346 2.346 0 0 1 21.249 6.739 A 1.839 1.839 0 0 1 20.402 6.19 A 2.171 2.171 0 0 1 19.938 5.31 Q 19.828 4.909 19.828 4.417 L 19.828 4.28 A 3.24 3.24 0 0 1 19.892 3.624 A 2.57 2.57 0 0 1 20.083 3.045 A 2.008 2.008 0 0 1 20.523 2.431 A 1.892 1.892 0 0 1 20.815 2.206 A 1.943 1.943 0 0 1 21.571 1.934 A 2.529 2.529 0 0 1 21.942 1.907 A 2.196 2.196 0 0 1 22.59 1.999 A 1.786 1.786 0 0 1 23.271 2.386 A 1.693 1.693 0 0 1 23.83 3.535 A 2.239 2.239 0 0 1 23.836 3.63 L 23.067 3.63 Q 23.032 3.168 22.718 2.872 A 1.078 1.078 0 0 0 21.989 2.576 A 1.402 1.402 0 0 0 21.942 2.575 A 1.374 1.374 0 0 0 21.521 2.637 A 1.081 1.081 0 0 0 20.982 3.021 A 1.469 1.469 0 0 0 20.755 3.468 Q 20.689 3.674 20.662 3.923 A 3.514 3.514 0 0 0 20.641 4.311 L 20.641 4.465 Q 20.641 5.287 20.98 5.73 A 1.1 1.1 0 0 0 21.766 6.165 A 1.611 1.611 0 0 0 21.946 6.174 A 1.171 1.171 0 0 0 22.707 5.911 A 1.007 1.007 0 0 0 22.951 5.629 A 0.914 0.914 0 0 0 23.067 5.251 Z M 65.549 5.251 L 66.318 5.251 A 1.432 1.432 0 0 1 66.119 5.901 A 1.772 1.772 0 0 1 66.037 6.029 A 1.828 1.828 0 0 1 65.428 6.574 A 2.169 2.169 0 0 1 65.345 6.618 A 1.997 1.997 0 0 1 64.428 6.838 A 2.346 2.346 0 0 1 63.731 6.739 A 1.839 1.839 0 0 1 62.884 6.19 A 2.171 2.171 0 0 1 62.42 5.31 Q 62.31 4.909 62.31 4.417 L 62.31 4.28 A 3.24 3.24 0 0 1 62.374 3.624 A 2.57 2.57 0 0 1 62.565 3.045 A 2.008 2.008 0 0 1 63.005 2.431 A 1.892 1.892 0 0 1 63.297 2.206 A 1.943 1.943 0 0 1 64.053 1.934 A 2.529 2.529 0 0 1 64.424 1.907 A 2.196 2.196 0 0 1 65.072 1.999 A 1.786 1.786 0 0 1 65.753 2.386 A 1.693 1.693 0 0 1 66.312 3.535 A 2.239 2.239 0 0 1 66.318 3.63 L 65.549 3.63 Q 65.514 3.168 65.2 2.872 A 1.078 1.078 0 0 0 64.47 2.576 A 1.402 1.402 0 0 0 64.424 2.575 A 1.374 1.374 0 0 0 64.003 2.637 A 1.081 1.081 0 0 0 63.464 3.021 A 1.469 1.469 0 0 0 63.237 3.468 Q 63.171 3.674 63.143 3.923 A 3.514 3.514 0 0 0 63.123 4.311 L 63.123 4.465 Q 63.123 5.287 63.462 5.73 A 1.1 1.1 0 0 0 64.248 6.165 A 1.611 1.611 0 0 0 64.428 6.174 A 1.171 1.171 0 0 0 65.189 5.911 A 1.007 1.007 0 0 0 65.433 5.629 A 0.914 0.914 0 0 0 65.549 5.251 Z M 85.403 5.251 L 86.173 5.251 A 1.432 1.432 0 0 1 85.973 5.901 A 1.772 1.772 0 0 1 85.891 6.029 A 1.828 1.828 0 0 1 85.282 6.574 A 2.169 2.169 0 0 1 85.199 6.618 A 1.997 1.997 0 0 1 84.283 6.838 A 2.346 2.346 0 0 1 83.586 6.739 A 1.839 1.839 0 0 1 82.738 6.19 A 2.171 2.171 0 0 1 82.274 5.31 Q 82.165 4.909 82.165 4.417 L 82.165 4.28 A 3.24 3.24 0 0 1 82.228 3.624 A 2.57 2.57 0 0 1 82.42 3.045 A 2.008 2.008 0 0 1 82.859 2.431 A 1.892 1.892 0 0 1 83.151 2.206 A 1.943 1.943 0 0 1 83.908 1.934 A 2.529 2.529 0 0 1 84.278 1.907 A 2.196 2.196 0 0 1 84.927 1.999 A 1.786 1.786 0 0 1 85.608 2.386 A 1.693 1.693 0 0 1 86.166 3.535 A 2.239 2.239 0 0 1 86.173 3.63 L 85.403 3.63 Q 85.368 3.168 85.054 2.872 A 1.078 1.078 0 0 0 84.325 2.576 A 1.402 1.402 0 0 0 84.278 2.575 A 1.374 1.374 0 0 0 83.857 2.637 A 1.081 1.081 0 0 0 83.318 3.021 A 1.469 1.469 0 0 0 83.092 3.468 Q 83.026 3.674 82.998 3.923 A 3.514 3.514 0 0 0 82.978 4.311 L 82.978 4.465 Q 82.978 5.287 83.316 5.73 A 1.1 1.1 0 0 0 84.103 6.165 A 1.611 1.611 0 0 0 84.283 6.174 A 1.171 1.171 0 0 0 85.043 5.911 A 1.007 1.007 0 0 0 85.287 5.629 A 0.914 0.914 0 0 0 85.403 5.251 Z M 54.58 4.355 L 54.58 4.425 Q 54.58 5.308 54.252 5.909 A 2.141 2.141 0 0 1 54.079 6.177 A 1.647 1.647 0 0 1 53.493 6.673 Q 53.177 6.828 52.787 6.837 A 2.112 2.112 0 0 1 52.735 6.838 A 2.039 2.039 0 0 1 52.14 6.756 A 1.561 1.561 0 0 1 51.341 6.201 L 51.302 6.75 L 50.555 6.75 L 50.555 0 L 51.368 0 L 51.368 2.518 A 1.605 1.605 0 0 1 52.534 1.915 A 2.285 2.285 0 0 1 52.726 1.907 A 1.835 1.835 0 0 1 53.357 2.011 A 1.579 1.579 0 0 1 54.086 2.562 Q 54.5 3.11 54.567 3.998 A 4.727 4.727 0 0 1 54.58 4.355 Z M 5.397 4.504 L 5.397 4.355 A 3.17 3.17 0 0 1 5.473 3.646 A 2.581 2.581 0 0 1 5.667 3.092 A 2.191 2.191 0 0 1 6.114 2.466 A 2.033 2.033 0 0 1 6.423 2.221 Q 6.908 1.907 7.475 1.907 A 2.254 2.254 0 0 1 8.088 1.986 A 1.639 1.639 0 0 1 8.917 2.518 Q 9.431 3.129 9.431 4.267 L 9.431 4.605 L 6.21 4.605 A 2.111 2.111 0 0 0 6.281 5.114 A 1.516 1.516 0 0 0 6.621 5.741 A 1.282 1.282 0 0 0 7.555 6.173 A 1.652 1.652 0 0 0 7.62 6.174 A 1.763 1.763 0 0 0 7.948 6.145 Q 8.172 6.103 8.35 5.999 A 1.827 1.827 0 0 0 8.859 5.551 A 2.068 2.068 0 0 0 8.873 5.533 L 9.369 5.919 A 1.926 1.926 0 0 1 7.97 6.811 A 2.749 2.749 0 0 1 7.576 6.838 A 2.394 2.394 0 0 1 6.825 6.725 A 1.974 1.974 0 0 1 6.003 6.203 Q 5.397 5.568 5.397 4.504 Z M 24.544 4.504 L 24.544 4.355 A 3.17 3.17 0 0 1 24.62 3.646 A 2.581 2.581 0 0 1 24.814 3.092 A 2.191 2.191 0 0 1 25.261 2.466 A 2.033 2.033 0 0 1 25.57 2.221 Q 26.055 1.907 26.622 1.907 A 2.254 2.254 0 0 1 27.235 1.986 A 1.639 1.639 0 0 1 28.064 2.518 Q 28.578 3.129 28.578 4.267 L 28.578 4.605 L 25.357 4.605 A 2.111 2.111 0 0 0 25.428 5.114 A 1.516 1.516 0 0 0 25.767 5.741 A 1.282 1.282 0 0 0 26.702 6.173 A 1.652 1.652 0 0 0 26.767 6.174 A 1.763 1.763 0 0 0 27.095 6.145 Q 27.319 6.103 27.497 5.999 A 1.827 1.827 0 0 0 28.006 5.551 A 2.068 2.068 0 0 0 28.02 5.533 L 28.516 5.919 A 1.926 1.926 0 0 1 27.117 6.811 A 2.749 2.749 0 0 1 26.723 6.838 A 2.394 2.394 0 0 1 25.972 6.725 A 1.974 1.974 0 0 1 25.15 6.203 Q 24.544 5.568 24.544 4.504 Z M 57.547 4.504 L 57.547 4.355 A 3.17 3.17 0 0 1 57.623 3.646 A 2.581 2.581 0 0 1 57.817 3.092 A 2.191 2.191 0 0 1 58.264 2.466 A 2.033 2.033 0 0 1 58.573 2.221 Q 59.058 1.907 59.625 1.907 A 2.254 2.254 0 0 1 60.238 1.986 A 1.639 1.639 0 0 1 61.067 2.518 Q 61.581 3.129 61.581 4.267 L 61.581 4.605 L 58.36 4.605 A 2.111 2.111 0 0 0 58.431 5.114 A 1.516 1.516 0 0 0 58.77 5.741 A 1.282 1.282 0 0 0 59.704 6.173 A 1.652 1.652 0 0 0 59.77 6.174 A 1.763 1.763 0 0 0 60.098 6.145 Q 60.322 6.103 60.5 5.999 A 1.827 1.827 0 0 0 61.009 5.551 A 2.068 2.068 0 0 0 61.023 5.533 L 61.519 5.919 A 1.926 1.926 0 0 1 60.119 6.811 A 2.749 2.749 0 0 1 59.726 6.838 A 2.394 2.394 0 0 1 58.975 6.725 A 1.974 1.974 0 0 1 58.153 6.203 Q 57.547 5.568 57.547 4.504 Z M 73.376 0.352 L 73.376 6.06 L 76.408 6.06 L 76.408 6.75 L 72.527 6.75 L 72.527 0.352 L 73.376 0.352 Z M 107.187 0.352 L 107.187 6.06 L 110.219 6.06 L 110.219 6.75 L 106.339 6.75 L 106.339 0.352 L 107.187 0.352 Z M 13.856 1.995 L 15.065 5.647 L 16.242 1.995 L 17.073 1.995 L 15.368 6.75 L 14.748 6.75 L 13.026 1.995 L 13.856 1.995 Z M 97.225 0.352 L 97.225 4.601 L 98.112 4.601 L 98.112 5.265 L 97.225 5.265 L 97.225 6.75 L 96.407 6.75 L 96.407 5.265 L 93.494 5.265 L 93.494 4.786 L 96.359 0.352 L 97.225 0.352 Z M 102.623 2.592 A 1.544 1.544 0 0 0 102.727 2.021 A 2.226 2.226 0 0 0 102.705 1.707 A 1.566 1.566 0 0 0 102.206 0.738 A 1.754 1.754 0 0 0 101.44 0.333 A 2.443 2.443 0 0 0 100.841 0.264 A 2.539 2.539 0 0 0 100.332 0.312 A 1.767 1.767 0 0 0 99.475 0.738 Q 98.956 1.213 98.956 2.021 A 1.808 1.808 0 0 0 98.957 2.058 A 1.499 1.499 0 0 0 99.202 2.87 A 1.626 1.626 0 0 0 99.364 3.077 A 1.726 1.726 0 0 0 99.875 3.454 A 2.119 2.119 0 0 0 99.775 3.5 A 1.738 1.738 0 0 0 99.09 4.087 A 1.629 1.629 0 0 0 98.807 5.023 A 2.272 2.272 0 0 0 98.817 5.237 A 1.63 1.63 0 0 0 99.363 6.344 A 1.895 1.895 0 0 0 100.213 6.771 A 2.797 2.797 0 0 0 100.841 6.838 A 2.796 2.796 0 0 0 101.44 6.777 A 1.925 1.925 0 0 0 102.316 6.346 A 1.578 1.578 0 0 0 102.791 5.62 A 1.989 1.989 0 0 0 102.876 5.023 A 1.581 1.581 0 0 0 102.584 4.087 Q 102.292 3.674 101.791 3.458 Q 102.221 3.248 102.474 2.874 A 1.449 1.449 0 0 0 102.623 2.592 Z M 49.417 3.353 L 49.417 3.757 A 4.729 4.729 0 0 1 49.352 4.56 A 3.455 3.455 0 0 1 49.1 5.399 A 2.648 2.648 0 0 1 48.704 6.033 A 2.226 2.226 0 0 1 48.204 6.469 A 2.362 2.362 0 0 1 47.185 6.82 A 2.993 2.993 0 0 1 46.85 6.838 A 2.618 2.618 0 0 1 46.044 6.717 A 2.313 2.313 0 0 1 45.51 6.467 A 2.392 2.392 0 0 1 44.71 5.615 A 2.953 2.953 0 0 1 44.602 5.407 A 3.426 3.426 0 0 1 44.325 4.489 A 4.535 4.535 0 0 1 44.271 3.814 L 44.271 3.353 A 4.52 4.52 0 0 1 44.346 2.51 A 3.461 3.461 0 0 1 44.591 1.723 Q 44.912 1.015 45.499 0.639 A 2.389 2.389 0 0 1 46.655 0.27 A 2.92 2.92 0 0 1 46.841 0.264 A 2.702 2.702 0 0 1 47.618 0.372 A 2.318 2.318 0 0 1 48.197 0.635 A 2.31 2.31 0 0 1 48.971 1.456 A 2.912 2.912 0 0 1 49.1 1.712 A 3.525 3.525 0 0 1 49.36 2.604 A 4.763 4.763 0 0 1 49.417 3.353 Z M 67.522 0.844 L 68.335 0.844 L 68.335 1.995 L 69.223 1.995 L 69.223 2.624 L 68.335 2.624 L 68.335 5.572 Q 68.335 5.858 68.454 6.001 Q 68.572 6.144 68.858 6.144 A 1.046 1.046 0 0 0 68.956 6.138 Q 69.058 6.129 69.198 6.101 A 4.024 4.024 0 0 0 69.245 6.091 L 69.245 6.75 A 2.463 2.463 0 0 1 68.812 6.829 A 2.157 2.157 0 0 1 68.621 6.838 Q 68.174 6.838 67.907 6.616 A 0.856 0.856 0 0 1 67.799 6.508 Q 67.572 6.238 67.531 5.78 A 2.351 2.351 0 0 1 67.522 5.572 L 67.522 2.624 L 66.656 2.624 L 66.656 1.995 L 67.522 1.995 L 67.522 0.844 Z M 123.535 0.844 L 124.348 0.844 L 124.348 1.995 L 125.235 1.995 L 125.235 2.624 L 124.348 2.624 L 124.348 5.572 Q 124.348 5.858 124.466 6.001 Q 124.585 6.144 124.871 6.144 A 1.046 1.046 0 0 0 124.968 6.138 Q 125.071 6.129 125.211 6.101 A 4.024 4.024 0 0 0 125.257 6.091 L 125.257 6.75 A 2.463 2.463 0 0 1 124.825 6.829 A 2.157 2.157 0 0 1 124.633 6.838 Q 124.186 6.838 123.92 6.616 A 0.856 0.856 0 0 1 123.812 6.508 Q 123.584 6.238 123.544 5.78 A 2.351 2.351 0 0 1 123.535 5.572 L 123.535 2.624 L 122.669 2.624 L 122.669 1.995 L 123.535 1.995 L 123.535 0.844 Z M 55.631 1.995 L 56.444 1.995 L 56.444 7.299 A 2.203 2.203 0 0 1 56.388 7.817 Q 56.22 8.51 55.541 8.64 A 1.813 1.813 0 0 1 55.2 8.67 A 1.594 1.594 0 0 1 54.866 8.636 A 1.376 1.376 0 0 1 54.703 8.591 L 54.703 7.941 A 0.989 0.989 0 0 0 54.81 7.961 Q 54.866 7.969 54.932 7.972 A 2.444 2.444 0 0 0 55.072 7.976 A 0.807 0.807 0 0 0 55.234 7.961 Q 55.331 7.941 55.405 7.896 A 0.429 0.429 0 0 0 55.488 7.829 A 0.412 0.412 0 0 0 55.572 7.695 Q 55.623 7.57 55.629 7.379 A 1.721 1.721 0 0 0 55.631 7.317 L 55.631 1.995 Z M 77.027 4.386 L 77.027 4.329 A 3.057 3.057 0 0 1 77.114 3.587 A 2.573 2.573 0 0 1 77.302 3.072 A 2.16 2.16 0 0 1 77.717 2.486 A 1.957 1.957 0 0 1 78.067 2.21 A 2.036 2.036 0 0 1 79.011 1.913 A 2.491 2.491 0 0 1 79.185 1.907 A 2.277 2.277 0 0 1 79.939 2.027 A 1.937 1.937 0 0 1 80.756 2.58 A 2.29 2.29 0 0 1 81.275 3.608 A 3.373 3.373 0 0 1 81.356 4.368 L 81.356 4.425 A 3.114 3.114 0 0 1 81.277 5.142 A 2.577 2.577 0 0 1 81.09 5.671 A 2.056 2.056 0 0 1 80.563 6.361 A 2.001 2.001 0 0 1 80.33 6.53 A 2.045 2.045 0 0 1 79.41 6.829 A 2.529 2.529 0 0 1 79.194 6.838 A 2.262 2.262 0 0 1 78.444 6.718 A 1.938 1.938 0 0 1 77.627 6.166 A 2.297 2.297 0 0 1 77.102 5.111 A 3.357 3.357 0 0 1 77.027 4.386 Z M 12.67 1.969 L 12.67 2.725 A 2.251 2.251 0 0 0 12.427 2.698 A 2.782 2.782 0 0 0 12.27 2.694 Q 11.492 2.694 11.2 3.338 A 1.445 1.445 0 0 0 11.184 3.375 L 11.184 6.75 L 10.371 6.75 L 10.371 1.995 L 11.162 1.995 L 11.175 2.544 Q 11.556 1.938 12.238 1.909 A 1.636 1.636 0 0 1 12.309 1.907 Q 12.547 1.907 12.67 1.969 Z M 48.577 3.819 L 48.577 3.344 A 4.551 4.551 0 0 0 48.533 2.685 Q 48.484 2.35 48.38 2.078 A 1.944 1.944 0 0 0 48.12 1.597 Q 47.663 0.989 46.841 0.989 Q 46.042 0.989 45.582 1.597 A 2.112 2.112 0 0 0 45.258 2.246 Q 45.17 2.527 45.134 2.864 A 4.531 4.531 0 0 0 45.11 3.287 L 45.11 3.757 A 4.254 4.254 0 0 0 45.16 4.43 Q 45.217 4.789 45.341 5.079 A 2.039 2.039 0 0 0 45.574 5.491 A 1.472 1.472 0 0 0 46.64 6.11 A 1.931 1.931 0 0 0 46.85 6.122 A 1.79 1.79 0 0 0 47.409 6.039 A 1.423 1.423 0 0 0 48.116 5.526 A 2.017 2.017 0 0 0 48.417 4.932 Q 48.57 4.462 48.577 3.819 Z M 18.738 1.995 L 18.738 6.75 L 17.925 6.75 L 17.925 1.995 L 18.738 1.995 Z M 111.938 1.995 L 111.938 6.75 L 111.125 6.75 L 111.125 1.995 L 111.938 1.995 Z M 77.845 4.425 A 2.772 2.772 0 0 0 77.892 4.954 Q 77.953 5.264 78.09 5.51 A 1.545 1.545 0 0 0 78.212 5.695 Q 78.579 6.174 79.194 6.174 A 1.269 1.269 0 0 0 79.683 6.083 Q 79.963 5.967 80.165 5.706 A 1.471 1.471 0 0 0 80.178 5.689 A 1.648 1.648 0 0 0 80.433 5.171 Q 80.502 4.945 80.528 4.672 A 3.655 3.655 0 0 0 80.543 4.329 A 2.687 2.687 0 0 0 80.492 3.789 Q 80.424 3.459 80.267 3.2 A 1.586 1.586 0 0 0 80.172 3.061 A 1.231 1.231 0 0 0 79.757 2.705 Q 79.504 2.575 79.185 2.575 Q 78.595 2.575 78.229 3.035 A 1.515 1.515 0 0 0 78.214 3.054 A 1.589 1.589 0 0 0 77.962 3.552 Q 77.892 3.772 77.864 4.039 A 3.676 3.676 0 0 0 77.845 4.425 Z M 51.368 3.344 L 51.368 5.401 A 1.528 1.528 0 0 0 51.654 5.807 Q 51.976 6.127 52.466 6.147 A 1.621 1.621 0 0 0 52.532 6.148 A 1.206 1.206 0 0 0 52.949 6.079 A 1.04 1.04 0 0 0 53.442 5.695 Q 53.767 5.243 53.767 4.333 Q 53.767 3.502 53.446 3.05 A 1.03 1.03 0 0 0 52.696 2.607 A 1.449 1.449 0 0 0 52.524 2.597 A 1.34 1.34 0 0 0 52.014 2.69 Q 51.596 2.86 51.368 3.344 Z M 116.244 5.449 L 116.244 3.278 A 1.439 1.439 0 0 0 115.943 2.891 Q 115.64 2.62 115.199 2.599 A 1.578 1.578 0 0 0 115.124 2.597 Q 114.532 2.597 114.198 3.056 A 1.51 1.51 0 0 0 113.987 3.484 Q 113.921 3.689 113.89 3.939 A 3.955 3.955 0 0 0 113.862 4.425 Q 113.862 5.229 114.192 5.689 Q 114.522 6.148 115.115 6.148 A 1.32 1.32 0 0 0 115.625 6.054 Q 116.016 5.891 116.244 5.449 Z M 96.311 1.639 L 94.417 4.601 L 96.407 4.601 L 96.407 1.463 L 96.311 1.639 Z M 102.063 5.005 A 1.375 1.375 0 0 0 102.004 4.592 A 1.109 1.109 0 0 0 101.723 4.131 A 1.148 1.148 0 0 0 101.051 3.807 A 1.593 1.593 0 0 0 100.833 3.792 A 1.466 1.466 0 0 0 100.444 3.841 A 1.086 1.086 0 0 0 99.952 4.126 A 1.123 1.123 0 0 0 99.638 4.762 A 1.572 1.572 0 0 0 99.62 5.005 A 1.48 1.48 0 0 0 99.661 5.367 A 1.019 1.019 0 0 0 99.943 5.862 Q 100.249 6.158 100.782 6.173 A 2.053 2.053 0 0 0 100.841 6.174 Q 101.335 6.174 101.645 5.94 A 1.018 1.018 0 0 0 101.738 5.86 A 1.041 1.041 0 0 0 102.037 5.292 A 1.518 1.518 0 0 0 102.063 5.005 Z M 100.841 0.932 A 1.259 1.259 0 0 0 100.489 0.979 A 0.973 0.973 0 0 0 100.066 1.228 Q 99.769 1.525 99.769 2.035 A 1.325 1.325 0 0 0 99.814 2.387 A 0.994 0.994 0 0 0 100.061 2.823 A 0.974 0.974 0 0 0 100.624 3.108 A 1.382 1.382 0 0 0 100.841 3.125 A 1.279 1.279 0 0 0 101.186 3.08 A 0.952 0.952 0 0 0 101.621 2.823 A 1.018 1.018 0 0 0 101.897 2.26 A 1.426 1.426 0 0 0 101.914 2.035 A 1.282 1.282 0 0 0 101.864 1.668 A 1.013 1.013 0 0 0 101.61 1.239 Q 101.307 0.932 100.841 0.932 Z M 6.236 3.938 L 8.618 3.938 L 8.618 3.876 Q 8.592 3.417 8.421 3.111 A 1.13 1.13 0 0 0 8.284 2.916 A 0.983 0.983 0 0 0 7.629 2.584 A 1.39 1.39 0 0 0 7.475 2.575 A 1.106 1.106 0 0 0 6.953 2.698 A 1.14 1.14 0 0 0 6.649 2.933 A 1.417 1.417 0 0 0 6.372 3.379 Q 6.299 3.563 6.259 3.785 A 2.741 2.741 0 0 0 6.236 3.938 Z M 25.383 3.938 L 27.765 3.938 L 27.765 3.876 Q 27.739 3.417 27.568 3.111 A 1.13 1.13 0 0 0 27.431 2.916 A 0.983 0.983 0 0 0 26.776 2.584 A 1.39 1.39 0 0 0 26.622 2.575 A 1.106 1.106 0 0 0 26.1 2.698 A 1.14 1.14 0 0 0 25.796 2.933 A 1.417 1.417 0 0 0 25.519 3.379 Q 25.446 3.563 25.406 3.785 A 2.741 2.741 0 0 0 25.383 3.938 Z M 58.386 3.938 L 60.768 3.938 L 60.768 3.876 Q 60.742 3.417 60.571 3.111 A 1.13 1.13 0 0 0 60.434 2.916 A 0.983 0.983 0 0 0 59.779 2.584 A 1.39 1.39 0 0 0 59.625 2.575 A 1.106 1.106 0 0 0 59.103 2.698 A 1.14 1.14 0 0 0 58.799 2.933 A 1.417 1.417 0 0 0 58.522 3.379 Q 58.449 3.563 58.409 3.785 A 2.741 2.741 0 0 0 58.386 3.938 Z M 17.86 0.734 Q 17.86 0.536 17.98 0.4 Q 18.092 0.274 18.304 0.264 A 0.783 0.783 0 0 1 18.339 0.264 Q 18.576 0.264 18.699 0.4 A 0.474 0.474 0 0 1 18.821 0.703 A 0.614 0.614 0 0 1 18.822 0.734 A 0.523 0.523 0 0 1 18.797 0.9 A 0.442 0.442 0 0 1 18.699 1.063 Q 18.586 1.184 18.378 1.194 A 0.803 0.803 0 0 1 18.339 1.195 Q 18.166 1.195 18.055 1.126 A 0.362 0.362 0 0 1 17.98 1.063 A 0.456 0.456 0 0 1 17.862 0.788 A 0.605 0.605 0 0 1 17.86 0.734 Z M 111.059 0.734 Q 111.059 0.536 111.18 0.4 Q 111.292 0.274 111.503 0.264 A 0.783 0.783 0 0 1 111.538 0.264 Q 111.775 0.264 111.898 0.4 A 0.474 0.474 0 0 1 112.02 0.703 A 0.614 0.614 0 0 1 112.021 0.734 A 0.523 0.523 0 0 1 111.996 0.9 A 0.442 0.442 0 0 1 111.898 1.063 Q 111.786 1.184 111.578 1.194 A 0.803 0.803 0 0 1 111.538 1.195 Q 111.365 1.195 111.255 1.126 A 0.362 0.362 0 0 1 111.18 1.063 A 0.456 0.456 0 0 1 111.061 0.788 A 0.605 0.605 0 0 1 111.059 0.734 Z M 55.583 0.539 A 0.515 0.515 0 0 0 55.547 0.734 Q 55.547 0.932 55.666 1.063 Q 55.747 1.154 55.885 1.182 A 0.679 0.679 0 0 0 56.022 1.195 A 0.803 0.803 0 0 0 56.061 1.194 Q 56.269 1.184 56.382 1.063 A 0.442 0.442 0 0 0 56.48 0.9 A 0.523 0.523 0 0 0 56.505 0.734 A 0.614 0.614 0 0 0 56.504 0.703 A 0.474 0.474 0 0 0 56.382 0.4 Q 56.259 0.264 56.022 0.264 A 0.768 0.768 0 0 0 56.009 0.264 Q 55.785 0.268 55.668 0.402 A 0.482 0.482 0 0 0 55.583 0.539 Z" vector-effect="non-scaling-stroke"/></g>
</svgversion="1.0" encoding="UTF-8"?>
<svg width="48px" height="48px" viewBox="0 0 48 48" version="1.1" xmlns="http://www.w3.org/2000/svg" xmlns:xlink="http://www.w3.org/1999/xlink">
    <title>Icon-Resource/Storage/Res_Amazon-Simple-Storage-Service_S3-Object-Lock_48_Light</title>
    <g id="Icon-Resource/Storage/Res_Amazon-Simple-Storage-Service_S3-Object-Lock_48" stroke="none" stroke-width="1" fill="none" fill-rule="evenodd">
        <path transform="translate(0vw, 0vh), scale(.65)" d="M37.5,39.5 C37.5,39.943 37.305,40.336 37,40.611 L37,42 L35,42 L35,40.611 C34.695,40.336 34.5,39.943 34.5,39.5 C34.5,38.672 35.172,38 36,38 C36.828,38 37.5,38.672 37.5,39.5 L37.5,39.5 Z M25.194,28.307 C25.194,29.685 26.315,30.807 27.694,30.807 L27.694,32.807 C25.213,32.807 23.194,30.788 23.194,28.307 C23.194,25.825 25.213,23.807 27.694,23.807 C28.989,23.807 30.223,24.366 31.078,25.34 L29.574,26.66 C29.099,26.118 28.414,25.807 27.694,25.807 C26.315,25.807 25.194,26.928 25.194,28.307 L25.194,28.307 Z M21.416,4 C30.229,4 36.696,6.83 36.832,8.347 L36.812,8.501 C36.796,8.554 36.763,8.608 36.732,8.663 C36.71,8.703 36.695,8.742 36.665,8.783 C36.622,8.84 36.562,8.899 36.505,8.957 C36.466,8.997 36.435,9.036 36.389,9.076 C36.334,9.124 36.262,9.173 36.198,9.221 C36.124,9.276 36.058,9.331 35.972,9.386 C35.952,9.399 35.926,9.412 35.905,9.425 C33.855,10.698 28.568,12 21.416,12 C14.243,12 8.945,10.69 6.91,9.414 C6.896,9.405 6.878,9.396 6.864,9.387 C6.772,9.328 6.701,9.27 6.623,9.211 C6.564,9.167 6.498,9.122 6.447,9.078 C6.398,9.034 6.364,8.992 6.322,8.949 C6.269,8.894 6.211,8.838 6.171,8.784 C6.139,8.741 6.123,8.7 6.1,8.657 C6.071,8.605 6.038,8.552 6.023,8.501 L6.002,8.346 C6.141,6.829 12.606,4 21.416,4 L21.416,4 Z M39.127,22.281 C39.157,22.366 39.163,22.438 39.105,22.553 C39.094,22.577 39.03,22.619 38.919,22.656 C38.469,22.805 37.78,22.789 36.925,22.649 L37.188,20.701 C38.012,21.144 38.939,21.738 39.127,22.281 L39.127,22.281 Z M21.416,38.659 C14.107,38.659 9.853,36.822 9.726,36.074 C9.726,36.03 9.723,35.985 9.717,35.941 L6.415,11.417 C9.658,13.184 15.682,14.096 21.416,14.096 C27.151,14.096 33.176,13.184 36.42,11.417 L34.967,22.201 C31.722,21.299 27.36,19.465 23.985,17.856 C23.91,16.821 23.053,16 22,16 C20.897,16 20,16.897 20,18 C20,19.103 20.897,20 22,20 C22.413,20 22.797,19.874 23.116,19.659 C25.798,20.944 30.722,23.163 34.7,24.188 L34.474,25.867 L36.456,26.133 L36.663,24.597 C37.209,24.681 37.731,24.738 38.192,24.738 C38.711,24.738 39.17,24.68 39.55,24.554 C40.334,24.293 40.714,23.808 40.895,23.447 C41.187,22.863 41.229,22.232 41.016,21.623 C40.523,20.209 38.748,19.216 37.471,18.597 L38.781,8.866 C38.781,8.865 38.781,8.864 38.781,8.863 C38.781,8.862 38.781,8.862 38.781,8.862 L38.825,8.524 C38.831,8.481 38.834,8.438 38.834,8.395 C38.834,4.626 29.654,2 21.416,2 C13.179,2 4,4.626 4,8.395 C4,8.439 4.003,8.483 4.009,8.527 L4.054,8.865 C4.054,8.865 4.054,8.865 4.054,8.865 C4.054,8.865 4.054,8.866 4.054,8.866 L7.728,36.152 C7.853,39.457 15.955,40.659 21.416,40.659 C22.647,40.659 23.883,40.605 25.089,40.498 L24.911,38.505 C23.765,38.607 22.589,38.659 21.416,38.659 L21.416,38.659 Z M12.724,24 L15,20.016 L17.276,24 L12.724,24 Z M19.865,25.502 C20.044,25.194 20.045,24.813 19.868,24.504 L15.868,17.504 C15.513,16.881 14.487,16.881 14.132,17.504 L10.132,24.504 C9.955,24.813 9.956,25.194 10.135,25.502 C10.314,25.81 10.644,26 10.9999958,26 L18.9999958,26 C19.356,26 19.686,25.81 19.865,25.502 L19.865,25.502 Z M15,34 L19,34 L19,30 L15,30 L15,34 Z M14,36 L20,36 C20.553,36 21,35.552 21,35 L21,29 C21,28.448 20.553,28 20,28 L14,28 C13.447,28 13,28.448 13,29 L13,35 C13,35.552 13.447,36 14,36 L14,36 Z M42,44 L30,44 L30,36 L32,36 L40,36 L42,36 L42,44 Z M33,32 C33,30.897 33.897,30 35,30 L37,30 C38.103,30 39,30.897 39,32 L39,34 L33,34 L33,32 Z M43,34 L41,34 L41,32 C41,29.794 39.206,28 37,28 L35,28 C32.794,28 31,29.794 31,32 L31,34 L29,34 C28.447,34 28,34.448 28,35 L28,45 C28,45.552 28.447,46 29,46 L43,46 C43.553,46 44,45.552 44,45 L44,35 C44,34.448 43.553,34 43,34 L43,34 Z" id="Fill-1" fill="#000000"></path>
    </g><g transform="translate(12vw, 80vh)" id="svgGroup" stroke-linecap="round" fill-rule="evenodd" font-size="9pt" stroke="#000" stroke-width="0.25mm" fill="#000" style="stroke:#000;stroke-width:0.25mm;fill:#000"><path d="M 7.783 1.995 L 8.552 1.995 L 8.574 2.522 Q 9.097 1.907 9.985 1.907 A 2.009 2.009 0 0 1 10.495 1.968 A 1.244 1.244 0 0 1 11.342 2.672 A 1.801 1.801 0 0 1 11.96 2.118 A 1.65 1.65 0 0 1 12.489 1.937 A 2.209 2.209 0 0 1 12.859 1.907 A 2.119 2.119 0 0 1 13.503 1.997 Q 14.429 2.292 14.449 3.564 L 14.449 6.75 L 13.636 6.75 L 13.636 3.612 A 1.781 1.781 0 0 0 13.616 3.332 Q 13.592 3.185 13.542 3.067 A 0.758 0.758 0 0 0 13.403 2.85 A 0.68 0.68 0 0 0 13.151 2.682 Q 12.939 2.597 12.622 2.597 A 1.245 1.245 0 0 0 12.256 2.648 A 1.008 1.008 0 0 0 11.87 2.867 A 1.042 1.042 0 0 0 11.556 3.404 A 1.41 1.41 0 0 0 11.523 3.595 L 11.523 6.75 L 10.705 6.75 L 10.705 3.634 A 1.532 1.532 0 0 0 10.657 3.23 Q 10.53 2.768 10.073 2.643 A 1.457 1.457 0 0 0 9.69 2.597 Q 8.916 2.597 8.616 3.234 A 1.459 1.459 0 0 0 8.596 3.278 L 8.596 6.75 L 7.783 6.75 L 7.783 1.995 Z M 4.636 2.202 L 3.788 2.202 A 1.466 1.466 0 0 0 3.738 1.809 A 1.066 1.066 0 0 0 3.419 1.29 A 1.211 1.211 0 0 0 2.95 1.033 Q 2.698 0.958 2.378 0.958 A 2.286 2.286 0 0 0 1.998 0.988 Q 1.796 1.022 1.633 1.095 A 1.101 1.101 0 0 0 1.404 1.233 A 0.892 0.892 0 0 0 1.059 1.887 A 1.267 1.267 0 0 0 1.055 1.995 A 0.806 0.806 0 0 0 1.323 2.6 A 1.134 1.134 0 0 0 1.387 2.656 A 1.562 1.562 0 0 0 1.625 2.813 Q 1.955 2.993 2.516 3.151 A 8.228 8.228 0 0 1 2.981 3.295 Q 3.216 3.377 3.41 3.464 A 3.297 3.297 0 0 1 3.764 3.645 A 2.342 2.342 0 0 1 4.103 3.889 Q 4.293 4.056 4.415 4.248 A 1.45 1.45 0 0 1 4.432 4.276 A 1.498 1.498 0 0 1 4.628 4.832 A 1.948 1.948 0 0 1 4.65 5.124 A 1.606 1.606 0 0 1 4.527 5.76 Q 4.382 6.101 4.064 6.354 A 1.886 1.886 0 0 1 4.043 6.37 Q 3.437 6.838 2.422 6.838 A 3.023 3.023 0 0 1 1.281 6.623 A 2.917 2.917 0 0 1 1.191 6.585 A 2.383 2.383 0 0 1 0.713 6.307 A 1.874 1.874 0 0 1 0.31 5.893 A 1.689 1.689 0 0 1 0 4.896 L 0.848 4.896 A 1.261 1.261 0 0 0 0.918 5.323 A 1.074 1.074 0 0 0 1.277 5.812 Q 1.661 6.113 2.278 6.144 A 2.87 2.87 0 0 0 2.422 6.148 A 2.628 2.628 0 0 0 2.809 6.121 Q 3.005 6.092 3.164 6.031 A 1.129 1.129 0 0 0 3.445 5.875 Q 3.801 5.603 3.801 5.133 A 1.074 1.074 0 0 0 3.759 4.822 A 0.816 0.816 0 0 0 3.472 4.406 Q 3.142 4.148 2.277 3.898 Q 1.191 3.586 0.697 3.131 Q 0.202 2.676 0.202 2.008 Q 0.202 1.252 0.807 0.758 A 2.121 2.121 0 0 1 1.697 0.335 A 3.087 3.087 0 0 1 2.378 0.264 A 2.913 2.913 0 0 1 3.038 0.336 A 2.372 2.372 0 0 1 3.553 0.519 A 2.051 2.051 0 0 1 4.084 0.889 A 1.834 1.834 0 0 1 4.353 1.222 A 1.798 1.798 0 0 1 4.636 2.202 Z M 34.277 2.202 L 33.429 2.202 A 1.466 1.466 0 0 0 33.38 1.809 A 1.066 1.066 0 0 0 33.06 1.29 A 1.211 1.211 0 0 0 32.591 1.033 Q 32.339 0.958 32.019 0.958 A 2.286 2.286 0 0 0 31.639 0.988 Q 31.437 1.022 31.274 1.095 A 1.101 1.101 0 0 0 31.045 1.233 A 0.892 0.892 0 0 0 30.7 1.887 A 1.267 1.267 0 0 0 30.696 1.995 A 0.806 0.806 0 0 0 30.964 2.6 A 1.134 1.134 0 0 0 31.028 2.656 A 1.562 1.562 0 0 0 31.266 2.813 Q 31.596 2.993 32.157 3.151 A 8.228 8.228 0 0 1 32.622 3.295 Q 32.857 3.377 33.051 3.464 A 3.297 3.297 0 0 1 33.405 3.645 A 2.342 2.342 0 0 1 33.744 3.889 Q 33.934 4.056 34.056 4.248 A 1.45 1.45 0 0 1 34.073 4.276 A 1.498 1.498 0 0 1 34.269 4.832 A 1.948 1.948 0 0 1 34.291 5.124 A 1.606 1.606 0 0 1 34.168 5.76 Q 34.023 6.101 33.705 6.354 A 1.886 1.886 0 0 1 33.684 6.37 Q 33.078 6.838 32.063 6.838 A 3.023 3.023 0 0 1 30.922 6.623 A 2.917 2.917 0 0 1 30.832 6.585 A 2.383 2.383 0 0 1 30.354 6.307 A 1.874 1.874 0 0 1 29.951 5.893 A 1.689 1.689 0 0 1 29.641 4.896 L 30.489 4.896 A 1.261 1.261 0 0 0 30.559 5.323 A 1.074 1.074 0 0 0 30.918 5.812 Q 31.302 6.113 31.919 6.144 A 2.87 2.87 0 0 0 32.063 6.148 A 2.628 2.628 0 0 0 32.45 6.121 Q 32.646 6.092 32.805 6.031 A 1.129 1.129 0 0 0 33.087 5.875 Q 33.443 5.603 33.443 5.133 A 1.074 1.074 0 0 0 33.4 4.822 A 0.816 0.816 0 0 0 33.113 4.406 Q 32.783 4.148 31.918 3.898 Q 30.832 3.586 30.338 3.131 Q 29.843 2.676 29.843 2.008 Q 29.843 1.252 30.448 0.758 A 2.121 2.121 0 0 1 31.338 0.335 A 3.087 3.087 0 0 1 32.019 0.264 A 2.913 2.913 0 0 1 32.679 0.336 A 2.372 2.372 0 0 1 33.194 0.519 A 2.051 2.051 0 0 1 33.725 0.889 A 1.834 1.834 0 0 1 33.994 1.222 A 1.798 1.798 0 0 1 34.277 2.202 Z M 54.035 2.522 L 54.075 1.995 L 54.818 1.995 L 54.818 6.636 A 2.511 2.511 0 0 1 54.747 7.249 A 1.738 1.738 0 0 1 54.27 8.09 A 1.834 1.834 0 0 1 53.341 8.57 A 2.671 2.671 0 0 1 52.8 8.622 A 2.446 2.446 0 0 1 51.794 8.402 A 2.003 2.003 0 0 1 51.384 8.161 A 1.563 1.563 0 0 1 51.043 7.8 L 51.465 7.313 A 1.889 1.889 0 0 0 51.899 7.712 A 1.514 1.514 0 0 0 52.743 7.958 A 1.695 1.695 0 0 0 53.12 7.919 Q 53.389 7.858 53.583 7.702 A 1.037 1.037 0 0 0 53.668 7.625 A 1.09 1.09 0 0 0 53.945 7.132 Q 53.992 6.959 53.999 6.752 A 2.134 2.134 0 0 0 54 6.684 L 54 6.275 A 1.601 1.601 0 0 1 52.948 6.821 A 2.279 2.279 0 0 1 52.669 6.838 A 1.672 1.672 0 0 1 51.913 6.67 Q 51.591 6.51 51.342 6.197 A 2.14 2.14 0 0 1 51.317 6.166 A 2.316 2.316 0 0 1 50.934 5.386 Q 50.801 4.922 50.801 4.333 Q 50.801 3.472 51.109 2.884 A 2.096 2.096 0 0 1 51.315 2.564 Q 51.829 1.907 52.677 1.907 A 1.971 1.971 0 0 1 53.276 1.994 A 1.55 1.55 0 0 1 54.035 2.522 Z M 49.887 6.75 L 49.034 6.75 A 0.632 0.632 0 0 1 48.999 6.66 Q 48.968 6.562 48.943 6.41 A 3.997 3.997 0 0 1 48.92 6.249 Q 48.353 6.838 47.567 6.838 A 2.033 2.033 0 0 1 47.037 6.772 A 1.529 1.529 0 0 1 46.413 6.44 Q 45.963 6.042 45.963 5.432 Q 45.963 4.689 46.527 4.278 Q 47.092 3.867 48.116 3.867 L 48.907 3.867 L 48.907 3.494 A 1.152 1.152 0 0 0 48.871 3.199 A 0.828 0.828 0 0 0 48.652 2.815 Q 48.436 2.6 48.045 2.568 A 1.748 1.748 0 0 0 47.901 2.562 Q 47.465 2.562 47.171 2.782 Q 46.877 3.001 46.877 3.313 L 46.059 3.313 A 1.041 1.041 0 0 1 46.184 2.825 A 1.409 1.409 0 0 1 46.312 2.626 Q 46.565 2.294 46.997 2.101 A 2.249 2.249 0 0 1 47.773 1.913 A 2.669 2.669 0 0 1 47.949 1.907 A 2.65 2.65 0 0 1 48.466 1.955 Q 48.774 2.016 49.012 2.156 A 1.439 1.439 0 0 1 49.236 2.318 A 1.396 1.396 0 0 1 49.69 3.144 A 1.998 1.998 0 0 1 49.72 3.45 L 49.72 5.638 Q 49.72 6.073 49.794 6.39 A 1.707 1.707 0 0 0 49.887 6.68 L 49.887 6.75 Z M 19.692 4.351 L 19.692 4.425 Q 19.692 5.511 19.195 6.174 A 1.57 1.57 0 0 1 18.057 6.828 A 2.013 2.013 0 0 1 17.851 6.838 A 2.196 2.196 0 0 1 17.265 6.764 A 1.598 1.598 0 0 1 16.488 6.289 L 16.488 8.578 L 15.675 8.578 L 15.675 1.995 L 16.418 1.995 L 16.458 2.522 A 1.619 1.619 0 0 1 17.597 1.919 A 2.319 2.319 0 0 1 17.838 1.907 A 1.829 1.829 0 0 1 18.475 2.014 A 1.597 1.597 0 0 1 19.193 2.553 Q 19.692 3.199 19.692 4.351 Z M 22.702 4.504 L 22.702 4.355 A 3.17 3.17 0 0 1 22.779 3.646 A 2.581 2.581 0 0 1 22.973 3.092 A 2.191 2.191 0 0 1 23.42 2.466 A 2.033 2.033 0 0 1 23.728 2.221 Q 24.214 1.907 24.781 1.907 A 2.254 2.254 0 0 1 25.394 1.986 A 1.639 1.639 0 0 1 26.222 2.518 Q 26.736 3.129 26.736 4.267 L 26.736 4.605 L 23.515 4.605 A 2.111 2.111 0 0 0 23.586 5.114 A 1.516 1.516 0 0 0 23.926 5.741 A 1.282 1.282 0 0 0 24.86 6.173 A 1.652 1.652 0 0 0 24.926 6.174 A 1.763 1.763 0 0 0 25.254 6.145 Q 25.478 6.103 25.655 5.999 A 1.827 1.827 0 0 0 26.164 5.551 A 2.068 2.068 0 0 0 26.178 5.533 L 26.675 5.919 A 1.926 1.926 0 0 1 25.275 6.811 A 2.749 2.749 0 0 1 24.882 6.838 A 2.394 2.394 0 0 1 24.131 6.725 A 1.974 1.974 0 0 1 23.309 6.203 Q 22.702 5.568 22.702 4.504 Z M 55.837 4.504 L 55.837 4.355 A 3.17 3.17 0 0 1 55.913 3.646 A 2.581 2.581 0 0 1 56.107 3.092 A 2.191 2.191 0 0 1 56.555 2.466 A 2.033 2.033 0 0 1 56.863 2.221 Q 57.349 1.907 57.916 1.907 A 2.254 2.254 0 0 1 58.529 1.986 A 1.639 1.639 0 0 1 59.357 2.518 Q 59.871 3.129 59.871 4.267 L 59.871 4.605 L 56.65 4.605 A 2.111 2.111 0 0 0 56.721 5.114 A 1.516 1.516 0 0 0 57.061 5.741 A 1.282 1.282 0 0 0 57.995 6.173 A 1.652 1.652 0 0 0 58.061 6.174 A 1.763 1.763 0 0 0 58.389 6.145 Q 58.613 6.103 58.79 5.999 A 1.827 1.827 0 0 0 59.299 5.551 A 2.068 2.068 0 0 0 59.313 5.533 L 59.81 5.919 A 1.926 1.926 0 0 1 58.41 6.811 A 2.749 2.749 0 0 1 58.017 6.838 A 2.394 2.394 0 0 1 57.266 6.725 A 1.974 1.974 0 0 1 56.444 6.203 Q 55.837 5.568 55.837 4.504 Z M 35.534 0.844 L 36.347 0.844 L 36.347 1.995 L 37.235 1.995 L 37.235 2.624 L 36.347 2.624 L 36.347 5.572 Q 36.347 5.858 36.466 6.001 Q 36.585 6.144 36.87 6.144 A 1.046 1.046 0 0 0 36.968 6.138 Q 37.071 6.129 37.21 6.101 A 4.024 4.024 0 0 0 37.257 6.091 L 37.257 6.75 A 2.463 2.463 0 0 1 36.824 6.829 A 2.157 2.157 0 0 1 36.633 6.838 Q 36.186 6.838 35.919 6.616 A 0.856 0.856 0 0 1 35.811 6.508 Q 35.584 6.238 35.543 5.78 A 2.351 2.351 0 0 1 35.534 5.572 L 35.534 2.624 L 34.669 2.624 L 34.669 1.995 L 35.534 1.995 L 35.534 0.844 Z M 21.608 0 L 21.608 6.75 L 20.795 6.75 L 20.795 0 L 21.608 0 Z M 37.881 4.386 L 37.881 4.329 A 3.057 3.057 0 0 1 37.968 3.587 A 2.573 2.573 0 0 1 38.156 3.072 A 2.16 2.16 0 0 1 38.57 2.486 A 1.957 1.957 0 0 1 38.92 2.21 A 2.036 2.036 0 0 1 39.865 1.913 A 2.491 2.491 0 0 1 40.039 1.907 A 2.277 2.277 0 0 1 40.792 2.027 A 1.937 1.937 0 0 1 41.61 2.58 A 2.29 2.29 0 0 1 42.129 3.608 A 3.373 3.373 0 0 1 42.21 4.368 L 42.21 4.425 A 3.114 3.114 0 0 1 42.13 5.142 A 2.577 2.577 0 0 1 41.944 5.671 A 2.056 2.056 0 0 1 41.416 6.361 A 2.001 2.001 0 0 1 41.183 6.53 A 2.045 2.045 0 0 1 40.264 6.829 A 2.529 2.529 0 0 1 40.048 6.838 A 2.262 2.262 0 0 1 39.297 6.718 A 1.938 1.938 0 0 1 38.481 6.166 A 2.297 2.297 0 0 1 37.955 5.111 A 3.357 3.357 0 0 1 37.881 4.386 Z M 45.527 1.969 L 45.527 2.725 A 2.251 2.251 0 0 0 45.285 2.698 A 2.782 2.782 0 0 0 45.128 2.694 Q 44.35 2.694 44.058 3.338 A 1.445 1.445 0 0 0 44.042 3.375 L 44.042 6.75 L 43.229 6.75 L 43.229 1.995 L 44.02 1.995 L 44.033 2.544 Q 44.414 1.938 45.096 1.909 A 1.636 1.636 0 0 1 45.167 1.907 Q 45.404 1.907 45.527 1.969 Z M 6.486 1.995 L 6.486 6.75 L 5.673 6.75 L 5.673 1.995 L 6.486 1.995 Z M 38.698 4.425 A 2.772 2.772 0 0 0 38.746 4.954 Q 38.806 5.264 38.944 5.51 A 1.545 1.545 0 0 0 39.065 5.695 Q 39.432 6.174 40.048 6.174 A 1.269 1.269 0 0 0 40.537 6.083 Q 40.816 5.967 41.019 5.706 A 1.471 1.471 0 0 0 41.032 5.689 A 1.648 1.648 0 0 0 41.287 5.171 Q 41.355 4.945 41.381 4.672 A 3.655 3.655 0 0 0 41.397 4.329 A 2.687 2.687 0 0 0 41.345 3.789 Q 41.278 3.459 41.12 3.2 A 1.586 1.586 0 0 0 41.025 3.061 A 1.231 1.231 0 0 0 40.61 2.705 Q 40.357 2.575 40.039 2.575 Q 39.449 2.575 39.083 3.035 A 1.515 1.515 0 0 0 39.068 3.054 A 1.589 1.589 0 0 0 38.815 3.552 Q 38.746 3.772 38.718 4.039 A 3.676 3.676 0 0 0 38.698 4.425 Z M 16.488 3.252 L 16.488 5.524 Q 16.853 6.174 17.605 6.174 A 1.184 1.184 0 0 0 18.07 6.086 Q 18.327 5.977 18.516 5.735 A 1.403 1.403 0 0 0 18.534 5.711 A 1.501 1.501 0 0 0 18.751 5.28 Q 18.819 5.073 18.851 4.818 A 3.91 3.91 0 0 0 18.879 4.333 Q 18.879 3.746 18.696 3.339 A 1.503 1.503 0 0 0 18.536 3.063 A 1.086 1.086 0 0 0 17.75 2.605 A 1.414 1.414 0 0 0 17.596 2.597 Q 16.935 2.597 16.57 3.121 A 1.623 1.623 0 0 0 16.488 3.252 Z M 54 5.449 L 54 3.278 A 1.439 1.439 0 0 0 53.699 2.891 Q 53.396 2.62 52.955 2.599 A 1.578 1.578 0 0 0 52.88 2.597 Q 52.288 2.597 51.954 3.056 A 1.51 1.51 0 0 0 51.743 3.484 Q 51.677 3.689 51.646 3.939 A 3.955 3.955 0 0 0 51.618 4.425 Q 51.618 5.229 51.948 5.689 Q 52.277 6.148 52.871 6.148 A 1.32 1.32 0 0 0 53.38 6.054 Q 53.772 5.891 54 5.449 Z M 48.907 5.418 L 48.907 4.443 L 48.27 4.443 Q 46.776 4.443 46.776 5.317 Q 46.776 5.7 47.03 5.915 A 0.893 0.893 0 0 0 47.444 6.108 A 1.259 1.259 0 0 0 47.685 6.13 A 1.429 1.429 0 0 0 48.41 5.933 A 1.335 1.335 0 0 0 48.706 5.705 A 1.108 1.108 0 0 0 48.907 5.418 Z M 23.542 3.938 L 25.923 3.938 L 25.923 3.876 Q 25.897 3.417 25.727 3.111 A 1.13 1.13 0 0 0 25.59 2.916 A 0.983 0.983 0 0 0 24.935 2.584 A 1.39 1.39 0 0 0 24.781 2.575 A 1.106 1.106 0 0 0 24.258 2.698 A 1.14 1.14 0 0 0 23.955 2.933 A 1.417 1.417 0 0 0 23.678 3.379 Q 23.604 3.563 23.565 3.785 A 2.741 2.741 0 0 0 23.542 3.938 Z M 56.676 3.938 L 59.058 3.938 L 59.058 3.876 Q 59.032 3.417 58.862 3.111 A 1.13 1.13 0 0 0 58.724 2.916 A 0.983 0.983 0 0 0 58.07 2.584 A 1.39 1.39 0 0 0 57.916 2.575 A 1.106 1.106 0 0 0 57.393 2.698 A 1.14 1.14 0 0 0 57.09 2.933 A 1.417 1.417 0 0 0 56.813 3.379 Q 56.739 3.563 56.699 3.785 A 2.741 2.741 0 0 0 56.676 3.938 Z M 5.608 0.734 Q 5.608 0.536 5.728 0.4 Q 5.84 0.274 6.052 0.264 A 0.783 0.783 0 0 1 6.087 0.264 Q 6.324 0.264 6.447 0.4 A 0.474 0.474 0 0 1 6.569 0.703 A 0.614 0.614 0 0 1 6.57 0.734 A 0.523 0.523 0 0 1 6.545 0.9 A 0.442 0.442 0 0 1 6.447 1.063 Q 6.334 1.184 6.126 1.194 A 0.803 0.803 0 0 1 6.087 1.195 Q 5.914 1.195 5.803 1.126 A 0.362 0.362 0 0 1 5.728 1.063 A 0.456 0.456 0 0 1 5.61 0.788 A 0.605 0.605 0 0 1 5.608 0.734 Z" vector-effect="non-scaling-stroke"/></g><g transform="translate(12vw, 90vh)" id="svgGroup" stroke-linecap="round" fill-rule="evenodd" font-size="9pt" stroke="#000" stroke-width="0.25mm" fill="#000" style="stroke:#000;stroke-width:0.25mm;fill:#000"><path d="M 4.636 2.202 L 3.788 2.202 A 1.466 1.466 0 0 0 3.738 1.809 A 1.066 1.066 0 0 0 3.419 1.29 A 1.211 1.211 0 0 0 2.95 1.033 Q 2.698 0.958 2.378 0.958 A 2.286 2.286 0 0 0 1.998 0.988 Q 1.796 1.022 1.633 1.095 A 1.101 1.101 0 0 0 1.404 1.233 A 0.892 0.892 0 0 0 1.059 1.887 A 1.267 1.267 0 0 0 1.055 1.995 A 0.806 0.806 0 0 0 1.323 2.6 A 1.134 1.134 0 0 0 1.387 2.656 A 1.562 1.562 0 0 0 1.625 2.813 Q 1.955 2.993 2.516 3.151 A 8.228 8.228 0 0 1 2.981 3.295 Q 3.216 3.377 3.41 3.464 A 3.297 3.297 0 0 1 3.764 3.645 A 2.342 2.342 0 0 1 4.103 3.889 Q 4.293 4.056 4.415 4.248 A 1.45 1.45 0 0 1 4.432 4.276 A 1.498 1.498 0 0 1 4.628 4.832 A 1.948 1.948 0 0 1 4.65 5.124 A 1.606 1.606 0 0 1 4.527 5.76 Q 4.382 6.101 4.064 6.354 A 1.886 1.886 0 0 1 4.043 6.37 Q 3.437 6.838 2.422 6.838 A 3.023 3.023 0 0 1 1.281 6.623 A 2.917 2.917 0 0 1 1.191 6.585 A 2.383 2.383 0 0 1 0.713 6.307 A 1.874 1.874 0 0 1 0.31 5.893 A 1.689 1.689 0 0 1 0 4.896 L 0.848 4.896 A 1.261 1.261 0 0 0 0.918 5.323 A 1.074 1.074 0 0 0 1.277 5.812 Q 1.661 6.113 2.278 6.144 A 2.87 2.87 0 0 0 2.422 6.148 A 2.628 2.628 0 0 0 2.809 6.121 Q 3.005 6.092 3.164 6.031 A 1.129 1.129 0 0 0 3.445 5.875 Q 3.801 5.603 3.801 5.133 A 1.074 1.074 0 0 0 3.759 4.822 A 0.816 0.816 0 0 0 3.472 4.406 Q 3.142 4.148 2.277 3.898 Q 1.191 3.586 0.697 3.131 Q 0.202 2.676 0.202 2.008 Q 0.202 1.252 0.807 0.758 A 2.121 2.121 0 0 1 1.697 0.335 A 3.087 3.087 0 0 1 2.378 0.264 A 2.913 2.913 0 0 1 3.038 0.336 A 2.372 2.372 0 0 1 3.553 0.519 A 2.051 2.051 0 0 1 4.084 0.889 A 1.834 1.834 0 0 1 4.353 1.222 A 1.798 1.798 0 0 1 4.636 2.202 Z M 36.119 2.202 L 35.271 2.202 A 1.466 1.466 0 0 0 35.221 1.809 A 1.066 1.066 0 0 0 34.902 1.29 A 1.211 1.211 0 0 0 34.432 1.033 Q 34.18 0.958 33.86 0.958 A 2.286 2.286 0 0 0 33.48 0.988 Q 33.278 1.022 33.116 1.095 A 1.101 1.101 0 0 0 32.887 1.233 A 0.892 0.892 0 0 0 32.542 1.887 A 1.267 1.267 0 0 0 32.537 1.995 A 0.806 0.806 0 0 0 32.805 2.6 A 1.134 1.134 0 0 0 32.869 2.656 A 1.562 1.562 0 0 0 33.107 2.813 Q 33.438 2.993 33.998 3.151 A 8.228 8.228 0 0 1 34.463 3.295 Q 34.698 3.377 34.893 3.464 A 3.297 3.297 0 0 1 35.246 3.645 A 2.342 2.342 0 0 1 35.585 3.889 Q 35.775 4.056 35.897 4.248 A 1.45 1.45 0 0 1 35.914 4.276 A 1.498 1.498 0 0 1 36.111 4.832 A 1.948 1.948 0 0 1 36.132 5.124 A 1.606 1.606 0 0 1 36.01 5.76 Q 35.864 6.101 35.546 6.354 A 1.886 1.886 0 0 1 35.526 6.37 Q 34.919 6.838 33.904 6.838 A 3.023 3.023 0 0 1 32.763 6.623 A 2.917 2.917 0 0 1 32.673 6.585 A 2.383 2.383 0 0 1 32.195 6.307 A 1.874 1.874 0 0 1 31.792 5.893 A 1.689 1.689 0 0 1 31.483 4.896 L 32.331 4.896 A 1.261 1.261 0 0 0 32.4 5.323 A 1.074 1.074 0 0 0 32.759 5.812 Q 33.144 6.113 33.76 6.144 A 2.87 2.87 0 0 0 33.904 6.148 A 2.628 2.628 0 0 0 34.291 6.121 Q 34.487 6.092 34.646 6.031 A 1.129 1.129 0 0 0 34.928 5.875 Q 35.284 5.603 35.284 5.133 A 1.074 1.074 0 0 0 35.241 4.822 A 0.816 0.816 0 0 0 34.954 4.406 Q 34.625 4.148 33.759 3.898 Q 32.673 3.586 32.179 3.131 Q 31.685 2.676 31.685 2.008 Q 31.685 1.252 32.289 0.758 A 2.121 2.121 0 0 1 33.179 0.335 A 3.087 3.087 0 0 1 33.86 0.264 A 2.913 2.913 0 0 1 34.52 0.336 A 2.372 2.372 0 0 1 35.036 0.519 A 2.051 2.051 0 0 1 35.567 0.889 A 1.834 1.834 0 0 1 35.835 1.222 A 1.798 1.798 0 0 1 36.119 2.202 Z M 38.184 3.819 L 38.184 3.155 L 38.795 3.155 Q 39.253 3.148 39.555 2.961 A 1.045 1.045 0 0 0 39.7 2.852 A 0.97 0.97 0 0 0 40.02 2.225 A 1.373 1.373 0 0 0 40.03 2.057 A 1.626 1.626 0 0 0 39.974 1.611 Q 39.832 1.112 39.324 0.98 A 1.645 1.645 0 0 0 38.909 0.932 A 1.495 1.495 0 0 0 38.547 0.973 A 1.044 1.044 0 0 0 38.068 1.233 A 1.004 1.004 0 0 0 37.766 1.844 A 1.405 1.405 0 0 0 37.754 2.03 L 36.941 2.03 A 1.698 1.698 0 0 1 37.095 1.3 A 1.68 1.68 0 0 1 37.496 0.767 A 1.924 1.924 0 0 1 38.549 0.288 A 2.615 2.615 0 0 1 38.909 0.264 A 2.758 2.758 0 0 1 39.485 0.32 Q 39.853 0.399 40.132 0.586 A 1.593 1.593 0 0 1 40.329 0.743 A 1.57 1.57 0 0 1 40.795 1.589 A 2.336 2.336 0 0 1 40.843 2.074 A 1.332 1.332 0 0 1 40.691 2.686 A 1.725 1.725 0 0 1 40.573 2.883 A 1.624 1.624 0 0 1 39.873 3.452 A 1.952 1.952 0 0 1 39.837 3.467 A 1.81 1.81 0 0 1 40.272 3.668 A 1.44 1.44 0 0 1 40.652 4.021 Q 40.94 4.408 40.94 4.966 Q 40.94 5.827 40.377 6.333 A 1.935 1.935 0 0 1 39.42 6.793 A 2.738 2.738 0 0 1 38.914 6.838 A 2.716 2.716 0 0 1 38.267 6.765 A 1.936 1.936 0 0 1 37.448 6.35 Q 36.883 5.862 36.883 5.063 L 37.701 5.063 A 1.255 1.255 0 0 0 37.751 5.426 A 0.978 0.978 0 0 0 38.03 5.871 A 1.113 1.113 0 0 0 38.545 6.135 A 1.643 1.643 0 0 0 38.914 6.174 Q 39.503 6.174 39.815 5.867 Q 40.102 5.583 40.125 5.073 A 2.011 2.011 0 0 0 40.127 4.983 A 1.451 1.451 0 0 0 40.087 4.634 A 0.962 0.962 0 0 0 39.784 4.126 A 1.13 1.13 0 0 0 39.396 3.91 Q 39.138 3.824 38.795 3.819 L 38.184 3.819 Z M 119.101 0 L 119.101 2.571 A 1.767 1.767 0 0 1 119.767 2.053 A 1.832 1.832 0 0 1 120.507 1.907 A 1.905 1.905 0 0 1 121.14 2.004 Q 121.982 2.3 122.025 3.506 A 3.668 3.668 0 0 1 122.027 3.608 L 122.027 6.75 L 121.215 6.75 L 121.215 3.604 A 1.837 1.837 0 0 0 121.192 3.324 Q 121.142 3.017 120.979 2.843 Q 120.793 2.645 120.44 2.606 A 1.66 1.66 0 0 0 120.261 2.597 A 1.253 1.253 0 0 0 119.847 2.664 A 1.123 1.123 0 0 0 119.567 2.808 A 1.432 1.432 0 0 0 119.101 3.362 L 119.101 6.75 L 118.288 6.75 L 118.288 0 L 119.101 0 Z M 90.07 6.75 L 88.414 4.548 L 87.904 5.08 L 87.904 6.75 L 87.091 6.75 L 87.091 0 L 87.904 0 L 87.904 4.083 L 88.339 3.56 L 89.82 1.995 L 90.809 1.995 L 88.959 3.981 L 91.024 6.75 L 90.07 6.75 Z M 116.279 2.522 L 116.319 1.995 L 117.062 1.995 L 117.062 6.636 A 2.511 2.511 0 0 1 116.991 7.249 A 1.738 1.738 0 0 1 116.515 8.09 A 1.834 1.834 0 0 1 115.585 8.57 A 2.671 2.671 0 0 1 115.045 8.622 A 2.446 2.446 0 0 1 114.038 8.402 A 2.003 2.003 0 0 1 113.628 8.161 A 1.563 1.563 0 0 1 113.287 7.8 L 113.709 7.313 A 1.889 1.889 0 0 0 114.143 7.712 A 1.514 1.514 0 0 0 114.987 7.958 A 1.695 1.695 0 0 0 115.364 7.919 Q 115.633 7.858 115.827 7.702 A 1.037 1.037 0 0 0 115.913 7.625 A 1.09 1.09 0 0 0 116.19 7.132 Q 116.237 6.959 116.243 6.752 A 2.134 2.134 0 0 0 116.244 6.684 L 116.244 6.275 A 1.601 1.601 0 0 1 115.192 6.821 A 2.279 2.279 0 0 1 114.913 6.838 A 1.672 1.672 0 0 1 114.157 6.67 Q 113.835 6.51 113.586 6.197 A 2.14 2.14 0 0 1 113.561 6.166 A 2.316 2.316 0 0 1 113.178 5.386 Q 113.045 4.922 113.045 4.333 Q 113.045 3.472 113.353 2.884 A 2.096 2.096 0 0 1 113.559 2.564 Q 114.073 1.907 114.922 1.907 A 1.971 1.971 0 0 1 115.52 1.994 A 1.55 1.55 0 0 1 116.279 2.522 Z M 23.067 5.251 L 23.836 5.251 A 1.432 1.432 0 0 1 23.637 5.901 A 1.772 1.772 0 0 1 23.555 6.029 A 1.828 1.828 0 0 1 22.946 6.574 A 2.169 2.169 0 0 1 22.863 6.618 A 1.997 1.997 0 0 1 21.946 6.838 A 2.346 2.346 0 0 1 21.249 6.739 A 1.839 1.839 0 0 1 20.402 6.19 A 2.171 2.171 0 0 1 19.938 5.31 Q 19.828 4.909 19.828 4.417 L 19.828 4.28 A 3.24 3.24 0 0 1 19.892 3.624 A 2.57 2.57 0 0 1 20.083 3.045 A 2.008 2.008 0 0 1 20.523 2.431 A 1.892 1.892 0 0 1 20.815 2.206 A 1.943 1.943 0 0 1 21.571 1.934 A 2.529 2.529 0 0 1 21.942 1.907 A 2.196 2.196 0 0 1 22.59 1.999 A 1.786 1.786 0 0 1 23.271 2.386 A 1.693 1.693 0 0 1 23.83 3.535 A 2.239 2.239 0 0 1 23.836 3.63 L 23.067 3.63 Q 23.032 3.168 22.718 2.872 A 1.078 1.078 0 0 0 21.989 2.576 A 1.402 1.402 0 0 0 21.942 2.575 A 1.374 1.374 0 0 0 21.521 2.637 A 1.081 1.081 0 0 0 20.982 3.021 A 1.469 1.469 0 0 0 20.755 3.468 Q 20.689 3.674 20.662 3.923 A 3.514 3.514 0 0 0 20.641 4.311 L 20.641 4.465 Q 20.641 5.287 20.98 5.73 A 1.1 1.1 0 0 0 21.766 6.165 A 1.611 1.611 0 0 0 21.946 6.174 A 1.171 1.171 0 0 0 22.707 5.911 A 1.007 1.007 0 0 0 22.951 5.629 A 0.914 0.914 0 0 0 23.067 5.251 Z M 65.549 5.251 L 66.318 5.251 A 1.432 1.432 0 0 1 66.119 5.901 A 1.772 1.772 0 0 1 66.037 6.029 A 1.828 1.828 0 0 1 65.428 6.574 A 2.169 2.169 0 0 1 65.345 6.618 A 1.997 1.997 0 0 1 64.428 6.838 A 2.346 2.346 0 0 1 63.731 6.739 A 1.839 1.839 0 0 1 62.884 6.19 A 2.171 2.171 0 0 1 62.42 5.31 Q 62.31 4.909 62.31 4.417 L 62.31 4.28 A 3.24 3.24 0 0 1 62.374 3.624 A 2.57 2.57 0 0 1 62.565 3.045 A 2.008 2.008 0 0 1 63.005 2.431 A 1.892 1.892 0 0 1 63.297 2.206 A 1.943 1.943 0 0 1 64.053 1.934 A 2.529 2.529 0 0 1 64.424 1.907 A 2.196 2.196 0 0 1 65.072 1.999 A 1.786 1.786 0 0 1 65.753 2.386 A 1.693 1.693 0 0 1 66.312 3.535 A 2.239 2.239 0 0 1 66.318 3.63 L 65.549 3.63 Q 65.514 3.168 65.2 2.872 A 1.078 1.078 0 0 0 64.47 2.576 A 1.402 1.402 0 0 0 64.424 2.575 A 1.374 1.374 0 0 0 64.003 2.637 A 1.081 1.081 0 0 0 63.464 3.021 A 1.469 1.469 0 0 0 63.237 3.468 Q 63.171 3.674 63.143 3.923 A 3.514 3.514 0 0 0 63.123 4.311 L 63.123 4.465 Q 63.123 5.287 63.462 5.73 A 1.1 1.1 0 0 0 64.248 6.165 A 1.611 1.611 0 0 0 64.428 6.174 A 1.171 1.171 0 0 0 65.189 5.911 A 1.007 1.007 0 0 0 65.433 5.629 A 0.914 0.914 0 0 0 65.549 5.251 Z M 85.403 5.251 L 86.173 5.251 A 1.432 1.432 0 0 1 85.973 5.901 A 1.772 1.772 0 0 1 85.891 6.029 A 1.828 1.828 0 0 1 85.282 6.574 A 2.169 2.169 0 0 1 85.199 6.618 A 1.997 1.997 0 0 1 84.283 6.838 A 2.346 2.346 0 0 1 83.586 6.739 A 1.839 1.839 0 0 1 82.738 6.19 A 2.171 2.171 0 0 1 82.274 5.31 Q 82.165 4.909 82.165 4.417 L 82.165 4.28 A 3.24 3.24 0 0 1 82.228 3.624 A 2.57 2.57 0 0 1 82.42 3.045 A 2.008 2.008 0 0 1 82.859 2.431 A 1.892 1.892 0 0 1 83.151 2.206 A 1.943 1.943 0 0 1 83.908 1.934 A 2.529 2.529 0 0 1 84.278 1.907 A 2.196 2.196 0 0 1 84.927 1.999 A 1.786 1.786 0 0 1 85.608 2.386 A 1.693 1.693 0 0 1 86.166 3.535 A 2.239 2.239 0 0 1 86.173 3.63 L 85.403 3.63 Q 85.368 3.168 85.054 2.872 A 1.078 1.078 0 0 0 84.325 2.576 A 1.402 1.402 0 0 0 84.278 2.575 A 1.374 1.374 0 0 0 83.857 2.637 A 1.081 1.081 0 0 0 83.318 3.021 A 1.469 1.469 0 0 0 83.092 3.468 Q 83.026 3.674 82.998 3.923 A 3.514 3.514 0 0 0 82.978 4.311 L 82.978 4.465 Q 82.978 5.287 83.316 5.73 A 1.1 1.1 0 0 0 84.103 6.165 A 1.611 1.611 0 0 0 84.283 6.174 A 1.171 1.171 0 0 0 85.043 5.911 A 1.007 1.007 0 0 0 85.287 5.629 A 0.914 0.914 0 0 0 85.403 5.251 Z M 54.58 4.355 L 54.58 4.425 Q 54.58 5.308 54.252 5.909 A 2.141 2.141 0 0 1 54.079 6.177 A 1.647 1.647 0 0 1 53.493 6.673 Q 53.177 6.828 52.787 6.837 A 2.112 2.112 0 0 1 52.735 6.838 A 2.039 2.039 0 0 1 52.14 6.756 A 1.561 1.561 0 0 1 51.341 6.201 L 51.302 6.75 L 50.555 6.75 L 50.555 0 L 51.368 0 L 51.368 2.518 A 1.605 1.605 0 0 1 52.534 1.915 A 2.285 2.285 0 0 1 52.726 1.907 A 1.835 1.835 0 0 1 53.357 2.011 A 1.579 1.579 0 0 1 54.086 2.562 Q 54.5 3.11 54.567 3.998 A 4.727 4.727 0 0 1 54.58 4.355 Z M 5.397 4.504 L 5.397 4.355 A 3.17 3.17 0 0 1 5.473 3.646 A 2.581 2.581 0 0 1 5.667 3.092 A 2.191 2.191 0 0 1 6.114 2.466 A 2.033 2.033 0 0 1 6.423 2.221 Q 6.908 1.907 7.475 1.907 A 2.254 2.254 0 0 1 8.088 1.986 A 1.639 1.639 0 0 1 8.917 2.518 Q 9.431 3.129 9.431 4.267 L 9.431 4.605 L 6.21 4.605 A 2.111 2.111 0 0 0 6.281 5.114 A 1.516 1.516 0 0 0 6.621 5.741 A 1.282 1.282 0 0 0 7.555 6.173 A 1.652 1.652 0 0 0 7.62 6.174 A 1.763 1.763 0 0 0 7.948 6.145 Q 8.172 6.103 8.35 5.999 A 1.827 1.827 0 0 0 8.859 5.551 A 2.068 2.068 0 0 0 8.873 5.533 L 9.369 5.919 A 1.926 1.926 0 0 1 7.97 6.811 A 2.749 2.749 0 0 1 7.576 6.838 A 2.394 2.394 0 0 1 6.825 6.725 A 1.974 1.974 0 0 1 6.003 6.203 Q 5.397 5.568 5.397 4.504 Z M 24.544 4.504 L 24.544 4.355 A 3.17 3.17 0 0 1 24.62 3.646 A 2.581 2.581 0 0 1 24.814 3.092 A 2.191 2.191 0 0 1 25.261 2.466 A 2.033 2.033 0 0 1 25.57 2.221 Q 26.055 1.907 26.622 1.907 A 2.254 2.254 0 0 1 27.235 1.986 A 1.639 1.639 0 0 1 28.064 2.518 Q 28.578 3.129 28.578 4.267 L 28.578 4.605 L 25.357 4.605 A 2.111 2.111 0 0 0 25.428 5.114 A 1.516 1.516 0 0 0 25.767 5.741 A 1.282 1.282 0 0 0 26.702 6.173 A 1.652 1.652 0 0 0 26.767 6.174 A 1.763 1.763 0 0 0 27.095 6.145 Q 27.319 6.103 27.497 5.999 A 1.827 1.827 0 0 0 28.006 5.551 A 2.068 2.068 0 0 0 28.02 5.533 L 28.516 5.919 A 1.926 1.926 0 0 1 27.117 6.811 A 2.749 2.749 0 0 1 26.723 6.838 A 2.394 2.394 0 0 1 25.972 6.725 A 1.974 1.974 0 0 1 25.15 6.203 Q 24.544 5.568 24.544 4.504 Z M 57.547 4.504 L 57.547 4.355 A 3.17 3.17 0 0 1 57.623 3.646 A 2.581 2.581 0 0 1 57.817 3.092 A 2.191 2.191 0 0 1 58.264 2.466 A 2.033 2.033 0 0 1 58.573 2.221 Q 59.058 1.907 59.625 1.907 A 2.254 2.254 0 0 1 60.238 1.986 A 1.639 1.639 0 0 1 61.067 2.518 Q 61.581 3.129 61.581 4.267 L 61.581 4.605 L 58.36 4.605 A 2.111 2.111 0 0 0 58.431 5.114 A 1.516 1.516 0 0 0 58.77 5.741 A 1.282 1.282 0 0 0 59.704 6.173 A 1.652 1.652 0 0 0 59.77 6.174 A 1.763 1.763 0 0 0 60.098 6.145 Q 60.322 6.103 60.5 5.999 A 1.827 1.827 0 0 0 61.009 5.551 A 2.068 2.068 0 0 0 61.023 5.533 L 61.519 5.919 A 1.926 1.926 0 0 1 60.119 6.811 A 2.749 2.749 0 0 1 59.726 6.838 A 2.394 2.394 0 0 1 58.975 6.725 A 1.974 1.974 0 0 1 58.153 6.203 Q 57.547 5.568 57.547 4.504 Z M 73.376 0.352 L 73.376 6.06 L 76.408 6.06 L 76.408 6.75 L 72.527 6.75 L 72.527 0.352 L 73.376 0.352 Z M 107.187 0.352 L 107.187 6.06 L 110.219 6.06 L 110.219 6.75 L 106.339 6.75 L 106.339 0.352 L 107.187 0.352 Z M 13.856 1.995 L 15.065 5.647 L 16.242 1.995 L 17.073 1.995 L 15.368 6.75 L 14.748 6.75 L 13.026 1.995 L 13.856 1.995 Z M 97.225 0.352 L 97.225 4.601 L 98.112 4.601 L 98.112 5.265 L 97.225 5.265 L 97.225 6.75 L 96.407 6.75 L 96.407 5.265 L 93.494 5.265 L 93.494 4.786 L 96.359 0.352 L 97.225 0.352 Z M 102.623 2.592 A 1.544 1.544 0 0 0 102.727 2.021 A 2.226 2.226 0 0 0 102.705 1.707 A 1.566 1.566 0 0 0 102.206 0.738 A 1.754 1.754 0 0 0 101.44 0.333 A 2.443 2.443 0 0 0 100.841 0.264 A 2.539 2.539 0 0 0 100.332 0.312 A 1.767 1.767 0 0 0 99.475 0.738 Q 98.956 1.213 98.956 2.021 A 1.808 1.808 0 0 0 98.957 2.058 A 1.499 1.499 0 0 0 99.202 2.87 A 1.626 1.626 0 0 0 99.364 3.077 A 1.726 1.726 0 0 0 99.875 3.454 A 2.119 2.119 0 0 0 99.775 3.5 A 1.738 1.738 0 0 0 99.09 4.087 A 1.629 1.629 0 0 0 98.807 5.023 A 2.272 2.272 0 0 0 98.817 5.237 A 1.63 1.63 0 0 0 99.363 6.344 A 1.895 1.895 0 0 0 100.213 6.771 A 2.797 2.797 0 0 0 100.841 6.838 A 2.796 2.796 0 0 0 101.44 6.777 A 1.925 1.925 0 0 0 102.316 6.346 A 1.578 1.578 0 0 0 102.791 5.62 A 1.989 1.989 0 0 0 102.876 5.023 A 1.581 1.581 0 0 0 102.584 4.087 Q 102.292 3.674 101.791 3.458 Q 102.221 3.248 102.474 2.874 A 1.449 1.449 0 0 0 102.623 2.592 Z M 49.417 3.353 L 49.417 3.757 A 4.729 4.729 0 0 1 49.352 4.56 A 3.455 3.455 0 0 1 49.1 5.399 A 2.648 2.648 0 0 1 48.704 6.033 A 2.226 2.226 0 0 1 48.204 6.469 A 2.362 2.362 0 0 1 47.185 6.82 A 2.993 2.993 0 0 1 46.85 6.838 A 2.618 2.618 0 0 1 46.044 6.717 A 2.313 2.313 0 0 1 45.51 6.467 A 2.392 2.392 0 0 1 44.71 5.615 A 2.953 2.953 0 0 1 44.602 5.407 A 3.426 3.426 0 0 1 44.325 4.489 A 4.535 4.535 0 0 1 44.271 3.814 L 44.271 3.353 A 4.52 4.52 0 0 1 44.346 2.51 A 3.461 3.461 0 0 1 44.591 1.723 Q 44.912 1.015 45.499 0.639 A 2.389 2.389 0 0 1 46.655 0.27 A 2.92 2.92 0 0 1 46.841 0.264 A 2.702 2.702 0 0 1 47.618 0.372 A 2.318 2.318 0 0 1 48.197 0.635 A 2.31 2.31 0 0 1 48.971 1.456 A 2.912 2.912 0 0 1 49.1 1.712 A 3.525 3.525 0 0 1 49.36 2.604 A 4.763 4.763 0 0 1 49.417 3.353 Z M 67.522 0.844 L 68.335 0.844 L 68.335 1.995 L 69.223 1.995 L 69.223 2.624 L 68.335 2.624 L 68.335 5.572 Q 68.335 5.858 68.454 6.001 Q 68.572 6.144 68.858 6.144 A 1.046 1.046 0 0 0 68.956 6.138 Q 69.058 6.129 69.198 6.101 A 4.024 4.024 0 0 0 69.245 6.091 L 69.245 6.75 A 2.463 2.463 0 0 1 68.812 6.829 A 2.157 2.157 0 0 1 68.621 6.838 Q 68.174 6.838 67.907 6.616 A 0.856 0.856 0 0 1 67.799 6.508 Q 67.572 6.238 67.531 5.78 A 2.351 2.351 0 0 1 67.522 5.572 L 67.522 2.624 L 66.656 2.624 L 66.656 1.995 L 67.522 1.995 L 67.522 0.844 Z M 123.535 0.844 L 124.348 0.844 L 124.348 1.995 L 125.235 1.995 L 125.235 2.624 L 124.348 2.624 L 124.348 5.572 Q 124.348 5.858 124.466 6.001 Q 124.585 6.144 124.871 6.144 A 1.046 1.046 0 0 0 124.968 6.138 Q 125.071 6.129 125.211 6.101 A 4.024 4.024 0 0 0 125.257 6.091 L 125.257 6.75 A 2.463 2.463 0 0 1 124.825 6.829 A 2.157 2.157 0 0 1 124.633 6.838 Q 124.186 6.838 123.92 6.616 A 0.856 0.856 0 0 1 123.812 6.508 Q 123.584 6.238 123.544 5.78 A 2.351 2.351 0 0 1 123.535 5.572 L 123.535 2.624 L 122.669 2.624 L 122.669 1.995 L 123.535 1.995 L 123.535 0.844 Z M 55.631 1.995 L 56.444 1.995 L 56.444 7.299 A 2.203 2.203 0 0 1 56.388 7.817 Q 56.22 8.51 55.541 8.64 A 1.813 1.813 0 0 1 55.2 8.67 A 1.594 1.594 0 0 1 54.866 8.636 A 1.376 1.376 0 0 1 54.703 8.591 L 54.703 7.941 A 0.989 0.989 0 0 0 54.81 7.961 Q 54.866 7.969 54.932 7.972 A 2.444 2.444 0 0 0 55.072 7.976 A 0.807 0.807 0 0 0 55.234 7.961 Q 55.331 7.941 55.405 7.896 A 0.429 0.429 0 0 0 55.488 7.829 A 0.412 0.412 0 0 0 55.572 7.695 Q 55.623 7.57 55.629 7.379 A 1.721 1.721 0 0 0 55.631 7.317 L 55.631 1.995 Z M 77.027 4.386 L 77.027 4.329 A 3.057 3.057 0 0 1 77.114 3.587 A 2.573 2.573 0 0 1 77.302 3.072 A 2.16 2.16 0 0 1 77.717 2.486 A 1.957 1.957 0 0 1 78.067 2.21 A 2.036 2.036 0 0 1 79.011 1.913 A 2.491 2.491 0 0 1 79.185 1.907 A 2.277 2.277 0 0 1 79.939 2.027 A 1.937 1.937 0 0 1 80.756 2.58 A 2.29 2.29 0 0 1 81.275 3.608 A 3.373 3.373 0 0 1 81.356 4.368 L 81.356 4.425 A 3.114 3.114 0 0 1 81.277 5.142 A 2.577 2.577 0 0 1 81.09 5.671 A 2.056 2.056 0 0 1 80.563 6.361 A 2.001 2.001 0 0 1 80.33 6.53 A 2.045 2.045 0 0 1 79.41 6.829 A 2.529 2.529 0 0 1 79.194 6.838 A 2.262 2.262 0 0 1 78.444 6.718 A 1.938 1.938 0 0 1 77.627 6.166 A 2.297 2.297 0 0 1 77.102 5.111 A 3.357 3.357 0 0 1 77.027 4.386 Z M 12.67 1.969 L 12.67 2.725 A 2.251 2.251 0 0 0 12.427 2.698 A 2.782 2.782 0 0 0 12.27 2.694 Q 11.492 2.694 11.2 3.338 A 1.445 1.445 0 0 0 11.184 3.375 L 11.184 6.75 L 10.371 6.75 L 10.371 1.995 L 11.162 1.995 L 11.175 2.544 Q 11.556 1.938 12.238 1.909 A 1.636 1.636 0 0 1 12.309 1.907 Q 12.547 1.907 12.67 1.969 Z M 48.577 3.819 L 48.577 3.344 A 4.551 4.551 0 0 0 48.533 2.685 Q 48.484 2.35 48.38 2.078 A 1.944 1.944 0 0 0 48.12 1.597 Q 47.663 0.989 46.841 0.989 Q 46.042 0.989 45.582 1.597 A 2.112 2.112 0 0 0 45.258 2.246 Q 45.17 2.527 45.134 2.864 A 4.531 4.531 0 0 0 45.11 3.287 L 45.11 3.757 A 4.254 4.254 0 0 0 45.16 4.43 Q 45.217 4.789 45.341 5.079 A 2.039 2.039 0 0 0 45.574 5.491 A 1.472 1.472 0 0 0 46.64 6.11 A 1.931 1.931 0 0 0 46.85 6.122 A 1.79 1.79 0 0 0 47.409 6.039 A 1.423 1.423 0 0 0 48.116 5.526 A 2.017 2.017 0 0 0 48.417 4.932 Q 48.57 4.462 48.577 3.819 Z M 18.738 1.995 L 18.738 6.75 L 17.925 6.75 L 17.925 1.995 L 18.738 1.995 Z M 111.938 1.995 L 111.938 6.75 L 111.125 6.75 L 111.125 1.995 L 111.938 1.995 Z M 77.845 4.425 A 2.772 2.772 0 0 0 77.892 4.954 Q 77.953 5.264 78.09 5.51 A 1.545 1.545 0 0 0 78.212 5.695 Q 78.579 6.174 79.194 6.174 A 1.269 1.269 0 0 0 79.683 6.083 Q 79.963 5.967 80.165 5.706 A 1.471 1.471 0 0 0 80.178 5.689 A 1.648 1.648 0 0 0 80.433 5.171 Q 80.502 4.945 80.528 4.672 A 3.655 3.655 0 0 0 80.543 4.329 A 2.687 2.687 0 0 0 80.492 3.789 Q 80.424 3.459 80.267 3.2 A 1.586 1.586 0 0 0 80.172 3.061 A 1.231 1.231 0 0 0 79.757 2.705 Q 79.504 2.575 79.185 2.575 Q 78.595 2.575 78.229 3.035 A 1.515 1.515 0 0 0 78.214 3.054 A 1.589 1.589 0 0 0 77.962 3.552 Q 77.892 3.772 77.864 4.039 A 3.676 3.676 0 0 0 77.845 4.425 Z M 51.368 3.344 L 51.368 5.401 A 1.528 1.528 0 0 0 51.654 5.807 Q 51.976 6.127 52.466 6.147 A 1.621 1.621 0 0 0 52.532 6.148 A 1.206 1.206 0 0 0 52.949 6.079 A 1.04 1.04 0 0 0 53.442 5.695 Q 53.767 5.243 53.767 4.333 Q 53.767 3.502 53.446 3.05 A 1.03 1.03 0 0 0 52.696 2.607 A 1.449 1.449 0 0 0 52.524 2.597 A 1.34 1.34 0 0 0 52.014 2.69 Q 51.596 2.86 51.368 3.344 Z M 116.244 5.449 L 116.244 3.278 A 1.439 1.439 0 0 0 115.943 2.891 Q 115.64 2.62 115.199 2.599 A 1.578 1.578 0 0 0 115.124 2.597 Q 114.532 2.597 114.198 3.056 A 1.51 1.51 0 0 0 113.987 3.484 Q 113.921 3.689 113.89 3.939 A 3.955 3.955 0 0 0 113.862 4.425 Q 113.862 5.229 114.192 5.689 Q 114.522 6.148 115.115 6.148 A 1.32 1.32 0 0 0 115.625 6.054 Q 116.016 5.891 116.244 5.449 Z M 96.311 1.639 L 94.417 4.601 L 96.407 4.601 L 96.407 1.463 L 96.311 1.639 Z M 102.063 5.005 A 1.375 1.375 0 0 0 102.004 4.592 A 1.109 1.109 0 0 0 101.723 4.131 A 1.148 1.148 0 0 0 101.051 3.807 A 1.593 1.593 0 0 0 100.833 3.792 A 1.466 1.466 0 0 0 100.444 3.841 A 1.086 1.086 0 0 0 99.952 4.126 A 1.123 1.123 0 0 0 99.638 4.762 A 1.572 1.572 0 0 0 99.62 5.005 A 1.48 1.48 0 0 0 99.661 5.367 A 1.019 1.019 0 0 0 99.943 5.862 Q 100.249 6.158 100.782 6.173 A 2.053 2.053 0 0 0 100.841 6.174 Q 101.335 6.174 101.645 5.94 A 1.018 1.018 0 0 0 101.738 5.86 A 1.041 1.041 0 0 0 102.037 5.292 A 1.518 1.518 0 0 0 102.063 5.005 Z M 100.841 0.932 A 1.259 1.259 0 0 0 100.489 0.979 A 0.973 0.973 0 0 0 100.066 1.228 Q 99.769 1.525 99.769 2.035 A 1.325 1.325 0 0 0 99.814 2.387 A 0.994 0.994 0 0 0 100.061 2.823 A 0.974 0.974 0 0 0 100.624 3.108 A 1.382 1.382 0 0 0 100.841 3.125 A 1.279 1.279 0 0 0 101.186 3.08 A 0.952 0.952 0 0 0 101.621 2.823 A 1.018 1.018 0 0 0 101.897 2.26 A 1.426 1.426 0 0 0 101.914 2.035 A 1.282 1.282 0 0 0 101.864 1.668 A 1.013 1.013 0 0 0 101.61 1.239 Q 101.307 0.932 100.841 0.932 Z M 6.236 3.938 L 8.618 3.938 L 8.618 3.876 Q 8.592 3.417 8.421 3.111 A 1.13 1.13 0 0 0 8.284 2.916 A 0.983 0.983 0 0 0 7.629 2.584 A 1.39 1.39 0 0 0 7.475 2.575 A 1.106 1.106 0 0 0 6.953 2.698 A 1.14 1.14 0 0 0 6.649 2.933 A 1.417 1.417 0 0 0 6.372 3.379 Q 6.299 3.563 6.259 3.785 A 2.741 2.741 0 0 0 6.236 3.938 Z M 25.383 3.938 L 27.765 3.938 L 27.765 3.876 Q 27.739 3.417 27.568 3.111 A 1.13 1.13 0 0 0 27.431 2.916 A 0.983 0.983 0 0 0 26.776 2.584 A 1.39 1.39 0 0 0 26.622 2.575 A 1.106 1.106 0 0 0 26.1 2.698 A 1.14 1.14 0 0 0 25.796 2.933 A 1.417 1.417 0 0 0 25.519 3.379 Q 25.446 3.563 25.406 3.785 A 2.741 2.741 0 0 0 25.383 3.938 Z M 58.386 3.938 L 60.768 3.938 L 60.768 3.876 Q 60.742 3.417 60.571 3.111 A 1.13 1.13 0 0 0 60.434 2.916 A 0.983 0.983 0 0 0 59.779 2.584 A 1.39 1.39 0 0 0 59.625 2.575 A 1.106 1.106 0 0 0 59.103 2.698 A 1.14 1.14 0 0 0 58.799 2.933 A 1.417 1.417 0 0 0 58.522 3.379 Q 58.449 3.563 58.409 3.785 A 2.741 2.741 0 0 0 58.386 3.938 Z M 17.86 0.734 Q 17.86 0.536 17.98 0.4 Q 18.092 0.274 18.304 0.264 A 0.783 0.783 0 0 1 18.339 0.264 Q 18.576 0.264 18.699 0.4 A 0.474 0.474 0 0 1 18.821 0.703 A 0.614 0.614 0 0 1 18.822 0.734 A 0.523 0.523 0 0 1 18.797 0.9 A 0.442 0.442 0 0 1 18.699 1.063 Q 18.586 1.184 18.378 1.194 A 0.803 0.803 0 0 1 18.339 1.195 Q 18.166 1.195 18.055 1.126 A 0.362 0.362 0 0 1 17.98 1.063 A 0.456 0.456 0 0 1 17.862 0.788 A 0.605 0.605 0 0 1 17.86 0.734 Z M 111.059 0.734 Q 111.059 0.536 111.18 0.4 Q 111.292 0.274 111.503 0.264 A 0.783 0.783 0 0 1 111.538 0.264 Q 111.775 0.264 111.898 0.4 A 0.474 0.474 0 0 1 112.02 0.703 A 0.614 0.614 0 0 1 112.021 0.734 A 0.523 0.523 0 0 1 111.996 0.9 A 0.442 0.442 0 0 1 111.898 1.063 Q 111.786 1.184 111.578 1.194 A 0.803 0.803 0 0 1 111.538 1.195 Q 111.365 1.195 111.255 1.126 A 0.362 0.362 0 0 1 111.18 1.063 A 0.456 0.456 0 0 1 111.061 0.788 A 0.605 0.605 0 0 1 111.059 0.734 Z M 55.583 0.539 A 0.515 0.515 0 0 0 55.547 0.734 Q 55.547 0.932 55.666 1.063 Q 55.747 1.154 55.885 1.182 A 0.679 0.679 0 0 0 56.022 1.195 A 0.803 0.803 0 0 0 56.061 1.194 Q 56.269 1.184 56.382 1.063 A 0.442 0.442 0 0 0 56.48 0.9 A 0.523 0.523 0 0 0 56.505 0.734 A 0.614 0.614 0 0 0 56.504 0.703 A 0.474 0.474 0 0 0 56.382 0.4 Q 56.259 0.264 56.022 0.264 A 0.768 0.768 0 0 0 56.009 0.264 Q 55.785 0.268 55.668 0.402 A 0.482 0.482 0 0 0 55.583 0.539 Z" vector-effect="non-scaling-stroke"/></g>
</svg>