<?xml version="1.0" encoding="UTF-8"?>
<svg width="80px" height="80px" viewBox="0 0 80 80" version="1.1" xmlns="http://www.w3.org/2000/svg" xmlns:xlink="http://www.w3.org/1999/xlink">
    <title>Icon-Architecture/64/Arch_Amazon-FSx-for-WFS_64</title>
    
    <g id="Icon-Architecture/64/Arch_Amazon-FSx-for-WFS_64" stroke="none" stroke-width="1" fill="none" fill-rule="evenodd">
        
        <g id="Icon-Service/64/Amazon-FSx-for-WFS_64" transform="translate(16, 8), scale(.65)" fill="#000000">
            <path d="M45,44 L58.001,44 L58.001,43 L45,43 L45,44 Z M46,41 L57,41 L57,34 L46,34 L46,41 Z M60,42 L60,44 C60,45.103 59.103,46 58,46 L45,46 C43.897,46 43,45.103 43,44 L43,42 C43,41.448 43.447,41 44,41 L44,33 C44,32.448 44.447,32 45,32 L58,32 C58.553,32 59,32.448 59,33 L59,41 C59.553,41 60,41.448 60,42 L60,42 Z M46.413,22.675 L43.944,22.675 L39.22,29.669 L37.955,31.485 L42,37.494 L42,33.625 L40.436,31.316 L46.413,22.675 Z M31.333,41 L33.837,41 L38.014,34.674 L36.885,33.022 L31.333,41 Z M38.171,28.117 L34.494,22.675 L31.889,22.675 L36.855,29.935 L38.171,28.117 Z M26.827,29.546 L23.5,28.224 C22.4,27.793 21.556,27.391 20.965,27.014 C20.374,26.638 19.949,26.219 19.689,25.756 C19.431,25.294 19.301,24.687 19.301,23.934 C19.301,22.601 19.726,21.575 20.576,20.854 C21.426,20.134 22.649,19.774 24.246,19.774 C25.884,19.774 27.76,20.161 29.875,20.935 L29.875,19.29 C28.983,18.882 28.035,18.564 27.029,18.339 C26.023,18.113 25.064,18 24.152,18 C22.142,18 20.519,18.554 19.285,19.661 C18.052,20.769 17.436,22.214 17.436,23.999 C17.436,25.311 17.809,26.412 18.555,27.304 C19.301,28.197 20.473,28.965 22.069,29.61 L25.677,31.062 C26.92,31.556 27.822,32.115 28.382,32.738 C28.941,33.362 29.222,34.115 29.222,34.996 C29.222,36.437 28.709,37.576 27.683,38.415 C26.656,39.253 25.282,39.672 23.562,39.672 C21.737,39.672 19.736,39.264 17.56,38.447 L17.56,40.092 C19.363,40.995 21.416,41.446 23.717,41.446 C25.936,41.446 27.724,40.855 29.082,39.672 C30.439,38.49 31.119,36.942 31.119,35.028 C31.119,33.717 30.776,32.625 30.093,31.755 C29.408,30.884 28.32,30.148 26.827,29.546 L26.827,29.546 Z M4,18.548 L16.098,18.548 L16.098,20.257 L5.835,20.257 L5.835,28.804 L14.512,28.804 L14.512,30.513 L5.835,30.513 L5.835,40.898 L4,40.898 L4,18.548 Z" id="Amazon-FSx-for-WFS_Icon_64_Squid"></path>
        </g>
    </g><g transform="translate(12vw, 80vh)" id="svgGroup" stroke-linecap="round" fill-rule="evenodd" font-size="9pt" stroke="#000" stroke-width="0.25mm" fill="#000" style="stroke:#000;stroke-width:0.25mm;fill:#000"><path d="M 30.902 0.444 L 31.913 4.825 L 32.036 5.669 L 32.216 4.909 L 33.482 0.444 L 34.194 0.444 L 35.429 4.909 L 35.604 5.682 L 35.741 4.821 L 36.734 0.444 L 37.582 0.444 L 36.031 6.842 L 35.262 6.842 L 33.943 2.18 L 33.842 1.692 L 33.741 2.18 L 32.375 6.842 L 31.605 6.842 L 30.059 0.444 L 30.902 0.444 Z M 9.22 2.294 L 8.372 2.294 A 1.466 1.466 0 0 0 8.322 1.901 A 1.066 1.066 0 0 0 8.002 1.382 A 1.211 1.211 0 0 0 7.533 1.126 Q 7.281 1.05 6.961 1.05 A 2.286 2.286 0 0 0 6.581 1.08 Q 6.379 1.114 6.217 1.187 A 1.101 1.101 0 0 0 5.988 1.325 A 0.892 0.892 0 0 0 5.643 1.98 A 1.267 1.267 0 0 0 5.638 2.087 A 0.806 0.806 0 0 0 5.906 2.693 A 1.134 1.134 0 0 0 5.97 2.749 A 1.562 1.562 0 0 0 6.208 2.905 Q 6.539 3.086 7.099 3.243 A 8.228 8.228 0 0 1 7.564 3.388 Q 7.799 3.469 7.994 3.556 A 3.297 3.297 0 0 1 8.347 3.738 A 2.342 2.342 0 0 1 8.686 3.982 Q 8.876 4.148 8.998 4.341 A 1.45 1.45 0 0 1 9.015 4.368 A 1.498 1.498 0 0 1 9.212 4.924 A 1.948 1.948 0 0 1 9.233 5.216 A 1.606 1.606 0 0 1 9.111 5.853 Q 8.965 6.193 8.647 6.446 A 1.886 1.886 0 0 1 8.626 6.462 Q 8.02 6.93 7.005 6.93 A 3.023 3.023 0 0 1 5.864 6.715 A 2.917 2.917 0 0 1 5.774 6.677 A 2.383 2.383 0 0 1 5.296 6.4 A 1.874 1.874 0 0 1 4.893 5.985 A 1.689 1.689 0 0 1 4.583 4.988 L 5.432 4.988 A 1.261 1.261 0 0 0 5.501 5.415 A 1.074 1.074 0 0 0 5.86 5.904 Q 6.245 6.206 6.861 6.237 A 2.87 2.87 0 0 0 7.005 6.24 A 2.628 2.628 0 0 0 7.392 6.214 Q 7.588 6.184 7.747 6.123 A 1.129 1.129 0 0 0 8.029 5.968 Q 8.385 5.695 8.385 5.225 A 1.074 1.074 0 0 0 8.342 4.915 A 0.816 0.816 0 0 0 8.055 4.498 Q 7.726 4.241 6.86 3.99 Q 5.774 3.678 5.28 3.223 Q 4.786 2.769 4.786 2.101 Q 4.786 1.345 5.39 0.85 A 2.121 2.121 0 0 1 6.28 0.427 A 3.087 3.087 0 0 1 6.961 0.356 A 2.913 2.913 0 0 1 7.621 0.428 A 2.372 2.372 0 0 1 8.136 0.611 A 2.051 2.051 0 0 1 8.668 0.982 A 1.834 1.834 0 0 1 8.936 1.314 A 1.798 1.798 0 0 1 9.22 2.294 Z M 47.738 2.294 L 46.89 2.294 A 1.466 1.466 0 0 0 46.84 1.901 A 1.066 1.066 0 0 0 46.521 1.382 A 1.211 1.211 0 0 0 46.051 1.126 Q 45.799 1.05 45.479 1.05 A 2.286 2.286 0 0 0 45.099 1.08 Q 44.897 1.114 44.735 1.187 A 1.101 1.101 0 0 0 44.506 1.325 A 0.892 0.892 0 0 0 44.161 1.98 A 1.267 1.267 0 0 0 44.156 2.087 A 0.806 0.806 0 0 0 44.424 2.693 A 1.134 1.134 0 0 0 44.488 2.749 A 1.562 1.562 0 0 0 44.726 2.905 Q 45.057 3.086 45.617 3.243 A 8.228 8.228 0 0 1 46.082 3.388 Q 46.317 3.469 46.512 3.556 A 3.297 3.297 0 0 1 46.865 3.738 A 2.342 2.342 0 0 1 47.204 3.982 Q 47.394 4.148 47.516 4.341 A 1.45 1.45 0 0 1 47.533 4.368 A 1.498 1.498 0 0 1 47.73 4.924 A 1.948 1.948 0 0 1 47.751 5.216 A 1.606 1.606 0 0 1 47.629 5.853 Q 47.483 6.193 47.165 6.446 A 1.886 1.886 0 0 1 47.145 6.462 Q 46.538 6.93 45.523 6.93 A 3.023 3.023 0 0 1 44.382 6.715 A 2.917 2.917 0 0 1 44.292 6.677 A 2.383 2.383 0 0 1 43.814 6.4 A 1.874 1.874 0 0 1 43.411 5.985 A 1.689 1.689 0 0 1 43.102 4.988 L 43.95 4.988 A 1.261 1.261 0 0 0 44.019 5.415 A 1.074 1.074 0 0 0 44.378 5.904 Q 44.763 6.206 45.379 6.237 A 2.87 2.87 0 0 0 45.523 6.24 A 2.628 2.628 0 0 0 45.91 6.214 Q 46.106 6.184 46.265 6.123 A 1.129 1.129 0 0 0 46.547 5.968 Q 46.903 5.695 46.903 5.225 A 1.074 1.074 0 0 0 46.86 4.915 A 0.816 0.816 0 0 0 46.573 4.498 Q 46.244 4.241 45.378 3.99 Q 44.292 3.678 43.798 3.223 Q 43.304 2.769 43.304 2.101 Q 43.304 1.345 43.908 0.85 A 2.121 2.121 0 0 1 44.798 0.427 A 3.087 3.087 0 0 1 45.479 0.356 A 2.913 2.913 0 0 1 46.139 0.428 A 2.372 2.372 0 0 1 46.655 0.611 A 2.051 2.051 0 0 1 47.186 0.982 A 1.834 1.834 0 0 1 47.454 1.314 A 1.798 1.798 0 0 1 47.738 2.294 Z M 3.529 3.327 L 3.529 4.017 L 0.844 4.017 L 0.844 6.842 L 0 6.842 L 0 0.444 L 3.964 0.444 L 3.964 1.138 L 0.844 1.138 L 0.844 3.327 L 3.529 3.327 Z M 42.047 3.327 L 42.047 4.017 L 39.362 4.017 L 39.362 6.842 L 38.518 6.842 L 38.518 0.444 L 42.482 0.444 L 42.482 1.138 L 39.362 1.138 L 39.362 3.327 L 42.047 3.327 Z M 10.74 2.087 L 11.782 3.823 L 12.836 2.087 L 13.786 2.087 L 12.23 4.438 L 13.834 6.842 L 12.894 6.842 L 11.795 5.063 L 10.696 6.842 L 9.751 6.842 L 11.355 4.438 L 9.8 2.087 L 10.74 2.087 Z M 18.088 6.842 L 17.275 6.842 L 17.275 2.716 L 16.523 2.716 L 16.523 2.087 L 17.275 2.087 L 17.275 1.6 Q 17.275 1.012 17.517 0.629 A 1.273 1.273 0 0 1 17.684 0.417 Q 18.092 0 18.839 0 A 2.134 2.134 0 0 1 19.397 0.075 L 19.354 0.734 Q 19.147 0.694 18.914 0.694 A 1.086 1.086 0 0 0 18.666 0.721 Q 18.445 0.773 18.303 0.925 A 0.747 0.747 0 0 0 18.137 1.221 Q 18.102 1.336 18.092 1.475 A 1.57 1.57 0 0 0 18.088 1.586 L 18.088 2.087 L 19.103 2.087 L 19.103 2.716 L 18.088 2.716 L 18.088 6.842 Z M 19.784 4.478 L 19.784 4.421 A 3.057 3.057 0 0 1 19.871 3.679 A 2.573 2.573 0 0 1 20.059 3.164 A 2.16 2.16 0 0 1 20.474 2.579 A 1.957 1.957 0 0 1 20.823 2.303 A 2.036 2.036 0 0 1 21.768 2.006 A 2.491 2.491 0 0 1 21.942 2 A 2.277 2.277 0 0 1 22.695 2.119 A 1.937 1.937 0 0 1 23.513 2.672 A 2.29 2.29 0 0 1 24.032 3.701 A 3.373 3.373 0 0 1 24.113 4.46 L 24.113 4.518 A 3.114 3.114 0 0 1 24.033 5.234 A 2.577 2.577 0 0 1 23.847 5.763 A 2.056 2.056 0 0 1 23.32 6.454 A 2.001 2.001 0 0 1 23.087 6.623 A 2.045 2.045 0 0 1 22.167 6.921 A 2.529 2.529 0 0 1 21.951 6.93 A 2.262 2.262 0 0 1 21.2 6.811 A 1.938 1.938 0 0 1 20.384 6.258 A 2.297 2.297 0 0 1 19.858 5.203 A 3.357 3.357 0 0 1 19.784 4.478 Z M 27.431 2.061 L 27.431 2.817 A 2.251 2.251 0 0 0 27.188 2.79 A 2.782 2.782 0 0 0 27.031 2.786 Q 26.253 2.786 25.961 3.43 A 1.445 1.445 0 0 0 25.945 3.467 L 25.945 6.842 L 25.132 6.842 L 25.132 2.087 L 25.923 2.087 L 25.937 2.637 Q 26.317 2.031 26.999 2.001 A 1.636 1.636 0 0 1 27.07 2 Q 27.308 2 27.431 2.061 Z M 20.602 4.518 A 2.772 2.772 0 0 0 20.649 5.046 Q 20.709 5.357 20.847 5.602 A 1.545 1.545 0 0 0 20.969 5.788 Q 21.335 6.267 21.951 6.267 A 1.269 1.269 0 0 0 22.44 6.175 Q 22.719 6.06 22.922 5.798 A 1.471 1.471 0 0 0 22.935 5.781 A 1.648 1.648 0 0 0 23.19 5.264 Q 23.259 5.037 23.284 4.764 A 3.655 3.655 0 0 0 23.3 4.421 A 2.687 2.687 0 0 0 23.249 3.881 Q 23.181 3.551 23.024 3.292 A 1.586 1.586 0 0 0 22.928 3.153 A 1.231 1.231 0 0 0 22.513 2.798 Q 22.26 2.667 21.942 2.667 Q 21.352 2.667 20.986 3.127 A 1.515 1.515 0 0 0 20.971 3.146 A 1.589 1.589 0 0 0 20.719 3.644 Q 20.649 3.864 20.621 4.131 A 3.676 3.676 0 0 0 20.602 4.518 Z" vector-effect="non-scaling-stroke"/></g>
</svg>