<?xml version="1.0" encoding="UTF-8"?>
<svg width="80px" height="80px" viewBox="0 0 80 80" version="1.1" xmlns="http://www.w3.org/2000/svg" xmlns:xlink="http://www.w3.org/1999/xlink">
    <!-- Generator: Sketch 64 (93537) - https://sketch.com -->
    <title>Icon-Architecture/64/Arch_AWS-Snowmobile_64</title>
    <desc>Created with Sketch.</desc>
    
    <g id="Icon-Architecture/64/Arch_AWS-Snowmobile_64" stroke="none" stroke-width="1" fill="none" fill-rule="evenodd">
        
        <path transform="translate(0vw, 0vh), scale(.65)" d="M68,40 C68,54.888 56.004,67 41.26,67 C29.947,67 19.819,59.765 16.056,48.997 L17.944,48.336 C21.427,58.304 30.797,65 41.26,65 C54.901,65 66,53.785 66,40 C66,26.215 54.901,15 41.26,15 C31.616,15 22.792,20.723 18.78,29.579 L16.958,28.754 C21.294,19.184 30.833,13 41.26,13 C56.004,13 68,25.112 68,40 L68,40 Z M13,44 L17,44 L17,42 L13,42 L13,44 Z M12,39 L17,39 L17,37 L12,37 L12,39 Z M14,34 L17,34 L17,32 L14,32 L14,34 Z M56.588,37 C59.021,37 61,38.965 61,41.38 L61,46 L60.724,46 C60.103,44.258 58.453,43 56.5,43 C54.665,43 53.089,44.107 52.389,45.686 L52,45.686 L52,37 L56.588,37 Z M56.5,50 C55.121,50 54,48.878 54,47.5 C54,46.122 55.121,45 56.5,45 C57.879,45 59,46.122 59,47.5 C59,48.878 57.879,50 56.5,50 L56.5,50 Z M50,46 L39.724,46 C39.103,44.258 37.453,43 35.5,43 C33.748,43 32.243,44.017 31.5,45.481 C30.757,44.017 29.252,43 27.5,43 C25.547,43 23.897,44.258 23.276,46 L22,46 L22,32 L50,32 L50,46 Z M35.5,50 C34.121,50 33,48.878 33,47.5 C33,46.122 34.121,45 35.5,45 C36.879,45 38,46.122 38,47.5 C38,48.878 36.879,50 35.5,50 L35.5,50 Z M27.5,50 C26.121,50 25,48.878 25,47.5 C25,46.122 26.121,45 27.5,45 C28.879,45 30,46.122 30,47.5 C30,48.878 28.879,50 27.5,50 L27.5,50 Z M51,30 L21,30 C20.447,30 20,30.448 20,31 L20,47 C20,47.552 20.447,48 21,48 L23.051,48 C23.303,50.244 25.189,52 27.5,52 C29.252,52 30.757,50.983 31.5,49.519 C32.243,50.983 33.748,52 35.5,52 C37.811,52 39.697,50.244 39.949,48 L51,48 C51.285,48 51.54,47.877 51.722,47.686 L52.019,47.686 C52.118,50.079 54.082,52 56.5,52 C58.811,52 60.697,50.244 60.949,48 L62,48 C62.553,48 63,47.552 63,47 L63,41.38 C63,37.862 60.124,35 56.588,35 L52,35 L52,31 C52,30.448 51.553,30 51,30 L51,30 Z" id="Fill-1" fill="#000000"></path>
    </g><g transform="translate(13vw, 80vh)" id="svgGroup" stroke-linecap="round" fill-rule="evenodd" font-size="9pt" stroke="#000" stroke-width="0.25mm" fill="#000" style="stroke:#000;stroke-width:0.25mm;fill:#000"><path d="M 22.461 1.995 L 23.23 1.995 L 23.252 2.522 Q 23.775 1.907 24.662 1.907 A 2.009 2.009 0 0 1 25.173 1.968 A 1.244 1.244 0 0 1 26.02 2.672 A 1.801 1.801 0 0 1 26.638 2.118 A 1.65 1.65 0 0 1 27.167 1.937 A 2.209 2.209 0 0 1 27.536 1.907 A 2.119 2.119 0 0 1 28.18 1.997 Q 29.107 2.292 29.127 3.564 L 29.127 6.75 L 28.314 6.75 L 28.314 3.612 A 1.781 1.781 0 0 0 28.294 3.332 Q 28.27 3.185 28.219 3.067 A 0.758 0.758 0 0 0 28.081 2.85 A 0.68 0.68 0 0 0 27.828 2.682 Q 27.617 2.597 27.3 2.597 A 1.245 1.245 0 0 0 26.934 2.648 A 1.008 1.008 0 0 0 26.548 2.867 A 1.042 1.042 0 0 0 26.233 3.404 A 1.41 1.41 0 0 0 26.2 3.595 L 26.2 6.75 L 25.383 6.75 L 25.383 3.634 A 1.532 1.532 0 0 0 25.334 3.23 Q 25.208 2.768 24.75 2.643 A 1.457 1.457 0 0 0 24.368 2.597 Q 23.594 2.597 23.293 3.234 A 1.459 1.459 0 0 0 23.274 3.278 L 23.274 6.75 L 22.461 6.75 L 22.461 1.995 Z M 18.782 1.995 L 19.912 5.629 L 20.826 1.995 L 21.639 1.995 L 20.255 6.75 L 19.595 6.75 L 18.44 3.146 L 17.315 6.75 L 16.655 6.75 L 15.276 1.995 L 16.084 1.995 L 17.02 5.555 L 18.128 1.995 L 18.782 1.995 Z M 4.636 2.202 L 3.788 2.202 A 1.466 1.466 0 0 0 3.738 1.809 A 1.066 1.066 0 0 0 3.419 1.29 A 1.211 1.211 0 0 0 2.95 1.033 Q 2.698 0.958 2.378 0.958 A 2.286 2.286 0 0 0 1.998 0.988 Q 1.796 1.022 1.633 1.095 A 1.101 1.101 0 0 0 1.404 1.233 A 0.892 0.892 0 0 0 1.059 1.887 A 1.267 1.267 0 0 0 1.055 1.995 A 0.806 0.806 0 0 0 1.323 2.6 A 1.134 1.134 0 0 0 1.387 2.656 A 1.562 1.562 0 0 0 1.625 2.813 Q 1.955 2.993 2.516 3.151 A 8.228 8.228 0 0 1 2.981 3.295 Q 3.216 3.377 3.41 3.464 A 3.297 3.297 0 0 1 3.764 3.645 A 2.342 2.342 0 0 1 4.103 3.889 Q 4.293 4.056 4.415 4.248 A 1.45 1.45 0 0 1 4.432 4.276 A 1.498 1.498 0 0 1 4.628 4.832 A 1.948 1.948 0 0 1 4.65 5.124 A 1.606 1.606 0 0 1 4.527 5.76 Q 4.382 6.101 4.064 6.354 A 1.886 1.886 0 0 1 4.043 6.37 Q 3.437 6.838 2.422 6.838 A 3.023 3.023 0 0 1 1.281 6.623 A 2.917 2.917 0 0 1 1.191 6.585 A 2.383 2.383 0 0 1 0.713 6.307 A 1.874 1.874 0 0 1 0.31 5.893 A 1.689 1.689 0 0 1 0 4.896 L 0.848 4.896 A 1.261 1.261 0 0 0 0.918 5.323 A 1.074 1.074 0 0 0 1.277 5.812 Q 1.661 6.113 2.278 6.144 A 2.87 2.87 0 0 0 2.422 6.148 A 2.628 2.628 0 0 0 2.809 6.121 Q 3.005 6.092 3.164 6.031 A 1.129 1.129 0 0 0 3.445 5.875 Q 3.801 5.603 3.801 5.133 A 1.074 1.074 0 0 0 3.759 4.822 A 0.816 0.816 0 0 0 3.472 4.406 Q 3.142 4.148 2.277 3.898 Q 1.191 3.586 0.697 3.131 Q 0.202 2.676 0.202 2.008 Q 0.202 1.252 0.807 0.758 A 2.121 2.121 0 0 1 1.697 0.335 A 3.087 3.087 0 0 1 2.378 0.264 A 2.913 2.913 0 0 1 3.038 0.336 A 2.372 2.372 0 0 1 3.553 0.519 A 2.051 2.051 0 0 1 4.084 0.889 A 1.834 1.834 0 0 1 4.353 1.222 A 1.798 1.798 0 0 1 4.636 2.202 Z M 5.603 1.995 L 6.372 1.995 L 6.399 2.593 Q 6.935 1.918 7.795 1.907 A 2.234 2.234 0 0 1 7.822 1.907 A 1.905 1.905 0 0 1 8.456 2.004 Q 9.298 2.3 9.341 3.506 A 3.668 3.668 0 0 1 9.343 3.608 L 9.343 6.75 L 8.53 6.75 L 8.53 3.604 A 1.837 1.837 0 0 0 8.508 3.324 Q 8.457 3.017 8.295 2.843 Q 8.109 2.645 7.755 2.606 A 1.66 1.66 0 0 0 7.576 2.597 A 1.253 1.253 0 0 0 7.162 2.664 A 1.123 1.123 0 0 0 6.882 2.808 A 1.432 1.432 0 0 0 6.416 3.362 L 6.416 6.75 L 5.603 6.75 L 5.603 1.995 Z M 39.511 4.355 L 39.511 4.425 Q 39.511 5.308 39.183 5.909 A 2.141 2.141 0 0 1 39.01 6.177 A 1.647 1.647 0 0 1 38.424 6.673 Q 38.109 6.828 37.718 6.837 A 2.112 2.112 0 0 1 37.666 6.838 A 2.039 2.039 0 0 1 37.071 6.756 A 1.561 1.561 0 0 1 36.273 6.201 L 36.233 6.75 L 35.486 6.75 L 35.486 0 L 36.299 0 L 36.299 2.518 A 1.605 1.605 0 0 1 37.466 1.915 A 2.285 2.285 0 0 1 37.657 1.907 A 1.835 1.835 0 0 1 38.288 2.011 A 1.579 1.579 0 0 1 39.017 2.562 Q 39.431 3.11 39.498 3.998 A 4.727 4.727 0 0 1 39.511 4.355 Z M 44.697 4.504 L 44.697 4.355 A 3.17 3.17 0 0 1 44.773 3.646 A 2.581 2.581 0 0 1 44.967 3.092 A 2.191 2.191 0 0 1 45.415 2.466 A 2.033 2.033 0 0 1 45.723 2.221 Q 46.209 1.907 46.776 1.907 A 2.254 2.254 0 0 1 47.389 1.986 A 1.639 1.639 0 0 1 48.217 2.518 Q 48.731 3.129 48.731 4.267 L 48.731 4.605 L 45.51 4.605 A 2.111 2.111 0 0 0 45.581 5.114 A 1.516 1.516 0 0 0 45.921 5.741 A 1.282 1.282 0 0 0 46.855 6.173 A 1.652 1.652 0 0 0 46.921 6.174 A 1.763 1.763 0 0 0 47.249 6.145 Q 47.473 6.103 47.65 5.999 A 1.827 1.827 0 0 0 48.159 5.551 A 2.068 2.068 0 0 0 48.173 5.533 L 48.67 5.919 A 1.926 1.926 0 0 1 47.27 6.811 A 2.749 2.749 0 0 1 46.877 6.838 A 2.394 2.394 0 0 1 46.125 6.725 A 1.974 1.974 0 0 1 45.303 6.203 Q 44.697 5.568 44.697 4.504 Z M 43.603 0 L 43.603 6.75 L 42.79 6.75 L 42.79 0 L 43.603 0 Z M 10.354 4.386 L 10.354 4.329 A 3.057 3.057 0 0 1 10.441 3.587 A 2.573 2.573 0 0 1 10.628 3.072 A 2.16 2.16 0 0 1 11.043 2.486 A 1.957 1.957 0 0 1 11.393 2.21 A 2.036 2.036 0 0 1 12.337 1.913 A 2.491 2.491 0 0 1 12.511 1.907 A 2.277 2.277 0 0 1 13.265 2.027 A 1.937 1.937 0 0 1 14.082 2.58 A 2.29 2.29 0 0 1 14.601 3.608 A 3.373 3.373 0 0 1 14.682 4.368 L 14.682 4.425 A 3.114 3.114 0 0 1 14.603 5.142 A 2.577 2.577 0 0 1 14.416 5.671 A 2.056 2.056 0 0 1 13.889 6.361 A 2.001 2.001 0 0 1 13.656 6.53 A 2.045 2.045 0 0 1 12.736 6.829 A 2.529 2.529 0 0 1 12.52 6.838 A 2.262 2.262 0 0 1 11.77 6.718 A 1.938 1.938 0 0 1 10.954 6.166 A 2.297 2.297 0 0 1 10.428 5.111 A 3.357 3.357 0 0 1 10.354 4.386 Z M 30.138 4.386 L 30.138 4.329 A 3.057 3.057 0 0 1 30.225 3.587 A 2.573 2.573 0 0 1 30.413 3.072 A 2.16 2.16 0 0 1 30.827 2.486 A 1.957 1.957 0 0 1 31.177 2.21 A 2.036 2.036 0 0 1 32.122 1.913 A 2.491 2.491 0 0 1 32.296 1.907 A 2.277 2.277 0 0 1 33.049 2.027 A 1.937 1.937 0 0 1 33.867 2.58 A 2.29 2.29 0 0 1 34.386 3.608 A 3.373 3.373 0 0 1 34.466 4.368 L 34.466 4.425 A 3.114 3.114 0 0 1 34.387 5.142 A 2.577 2.577 0 0 1 34.201 5.671 A 2.056 2.056 0 0 1 33.673 6.361 A 2.001 2.001 0 0 1 33.44 6.53 A 2.045 2.045 0 0 1 32.521 6.829 A 2.529 2.529 0 0 1 32.304 6.838 A 2.262 2.262 0 0 1 31.554 6.718 A 1.938 1.938 0 0 1 30.738 6.166 A 2.297 2.297 0 0 1 30.212 5.111 A 3.357 3.357 0 0 1 30.138 4.386 Z M 41.419 1.995 L 41.419 6.75 L 40.606 6.75 L 40.606 1.995 L 41.419 1.995 Z M 11.171 4.425 A 2.772 2.772 0 0 0 11.218 4.954 Q 11.279 5.264 11.416 5.51 A 1.545 1.545 0 0 0 11.538 5.695 Q 11.905 6.174 12.52 6.174 A 1.269 1.269 0 0 0 13.01 6.083 Q 13.289 5.967 13.492 5.706 A 1.471 1.471 0 0 0 13.505 5.689 A 1.648 1.648 0 0 0 13.759 5.171 Q 13.828 4.945 13.854 4.672 A 3.655 3.655 0 0 0 13.869 4.329 A 2.687 2.687 0 0 0 13.818 3.789 Q 13.75 3.459 13.593 3.2 A 1.586 1.586 0 0 0 13.498 3.061 A 1.231 1.231 0 0 0 13.083 2.705 Q 12.83 2.575 12.511 2.575 Q 11.921 2.575 11.555 3.035 A 1.515 1.515 0 0 0 11.54 3.054 A 1.589 1.589 0 0 0 11.288 3.552 Q 11.219 3.772 11.19 4.039 A 3.676 3.676 0 0 0 11.171 4.425 Z M 30.955 4.425 A 2.772 2.772 0 0 0 31.003 4.954 Q 31.063 5.264 31.2 5.51 A 1.545 1.545 0 0 0 31.322 5.695 Q 31.689 6.174 32.304 6.174 A 1.269 1.269 0 0 0 32.794 6.083 Q 33.073 5.967 33.276 5.706 A 1.471 1.471 0 0 0 33.289 5.689 A 1.648 1.648 0 0 0 33.544 5.171 Q 33.612 4.945 33.638 4.672 A 3.655 3.655 0 0 0 33.653 4.329 A 2.687 2.687 0 0 0 33.602 3.789 Q 33.535 3.459 33.377 3.2 A 1.586 1.586 0 0 0 33.282 3.061 A 1.231 1.231 0 0 0 32.867 2.705 Q 32.614 2.575 32.296 2.575 Q 31.706 2.575 31.339 3.035 A 1.515 1.515 0 0 0 31.324 3.054 A 1.589 1.589 0 0 0 31.072 3.552 Q 31.003 3.772 30.975 4.039 A 3.676 3.676 0 0 0 30.955 4.425 Z M 36.299 3.344 L 36.299 5.401 A 1.528 1.528 0 0 0 36.585 5.807 Q 36.907 6.127 37.397 6.147 A 1.621 1.621 0 0 0 37.464 6.148 A 1.206 1.206 0 0 0 37.881 6.079 A 1.04 1.04 0 0 0 38.373 5.695 Q 38.698 5.243 38.698 4.333 Q 38.698 3.502 38.378 3.05 A 1.03 1.03 0 0 0 37.627 2.607 A 1.449 1.449 0 0 0 37.455 2.597 A 1.34 1.34 0 0 0 36.945 2.69 Q 36.527 2.86 36.299 3.344 Z M 45.536 3.938 L 47.918 3.938 L 47.918 3.876 Q 47.892 3.417 47.721 3.111 A 1.13 1.13 0 0 0 47.584 2.916 A 0.983 0.983 0 0 0 46.93 2.584 A 1.39 1.39 0 0 0 46.776 2.575 A 1.106 1.106 0 0 0 46.253 2.698 A 1.14 1.14 0 0 0 45.949 2.933 A 1.417 1.417 0 0 0 45.673 3.379 Q 45.599 3.563 45.559 3.785 A 2.741 2.741 0 0 0 45.536 3.938 Z M 40.54 0.734 Q 40.54 0.536 40.661 0.4 Q 40.772 0.274 40.984 0.264 A 0.783 0.783 0 0 1 41.019 0.264 Q 41.256 0.264 41.379 0.4 A 0.474 0.474 0 0 1 41.501 0.703 A 0.614 0.614 0 0 1 41.502 0.734 A 0.523 0.523 0 0 1 41.477 0.9 A 0.442 0.442 0 0 1 41.379 1.063 Q 41.267 1.184 41.059 1.194 A 0.803 0.803 0 0 1 41.019 1.195 Q 40.846 1.195 40.735 1.126 A 0.362 0.362 0 0 1 40.661 1.063 A 0.456 0.456 0 0 1 40.542 0.788 A 0.605 0.605 0 0 1 40.54 0.734 Z" vector-effect="non-scaling-stroke"/></g>
</svg>