<?xml version="1.0" encoding="UTF-8"?>
<svg width="80px" height="80px" viewBox="0 0 80 80" version="1.1" xmlns="http://www.w3.org/2000/svg" xmlns:xlink="http://www.w3.org/1999/xlink">
    <title>Icon-Architecture/64/Arch_Amazon-Nimble-Studio_64</title>
    
    <g id="Icon-Architecture/64/Arch_Amazon-Nimble-Studio_64" stroke="none" stroke-width="1" fill="none" fill-rule="evenodd">
        
        <g id="Icon-Service/64/Amazon-Nimble-Studio_64" transform="translate(16, 8), scale(.65)" fill="#000000">
            <path d="M39.959,52.958 C38.414,52.134 35.827,50.755 33.423,48.021 C31.195,45.491 30.083,42.885 29.348,41.161 C28.459,39.075 27.795,36.888 27.376,34.66 C27.298,34.241 26.963,33.918 26.542,33.855 C26.118,33.789 25.707,34.002 25.509,34.379 C24.933,35.474 24.403,36.62 23.936,37.785 C22.919,40.317 20.232,49.37 20.414,56 L16.127,56 C14.983,51.748 13.72,48.298 8.769,40.598 C8.375,39.984 7.991,39.356 7.625,38.756 C7.139,37.96 6.672,37.195 6.241,36.567 L12.028,28.87 C12.367,29.487 12.684,30.12 12.977,30.763 C13.759,32.488 14.117,33.75 14.981,36.798 L15.414,38.319 C15.719,39.384 16.206,41.078 16.832,43.194 C16.971,43.663 17.433,43.958 17.912,43.903 C18.397,43.844 18.769,43.443 18.79,42.955 C19.127,35.385 20.716,28.368 23.514,22.1 C25.539,17.561 28.154,13.613 30.876,10.982 C31.922,9.972 33.051,9.032 34.24,8.178 L39.995,17.528 C38.928,18.351 37.944,19.282 37.063,20.305 C36.198,21.309 34.949,22.99 33.91,25.299 C33.194,26.889 31.994,30.21 32.011,34.597 C32.016,35.783 32.025,38.56 33.2,41.886 C33.757,43.463 35.485,47.504 39.486,50.966 C43.454,54.4 47.627,55.531 49.711,55.99 C44.938,55.615 41.456,53.757 39.959,52.958 M32.193,7 C32.299,7 32.402,7.006 32.507,7.007 C31.453,7.8 30.43,8.634 29.487,9.544 C26.585,12.348 23.814,16.518 21.688,21.285 C19.467,26.26 17.98,31.683 17.25,37.462 L16.906,36.252 C16.038,33.193 15.642,31.797 14.797,29.936 C14.264,28.762 13.653,27.619 12.982,26.54 C12.808,26.26 12.507,26.083 12.177,26.069 C11.859,26.059 11.531,26.203 11.334,26.467 L6.121,33.4 C6.129,33.1 6.135,32.842 6.135,32.67 C6.135,18.516 17.824,7 32.193,7 M57.871,54.587 C56.479,54.666 53.888,54.815 50.743,54.164 C49.123,53.829 44.82,52.937 40.795,49.453 C37.156,46.304 35.59,42.646 35.086,41.22 C34.024,38.213 34.015,35.674 34.011,34.589 C33.995,30.431 35.211,27.282 35.734,26.12 C36.675,24.029 37.8,22.513 38.578,21.61 C39.556,20.476 40.674,19.465 41.901,18.608 C42.336,18.305 42.458,17.715 42.181,17.264 L36.036,7.281 C48.589,9.117 58.251,19.802 58.251,32.67 C58.251,38.895 55.961,44.9 51.804,49.577 L53.298,50.906 C57.782,45.862 60.251,39.386 60.251,32.67 C60.251,17.413 47.664,5 32.193,5 C16.722,5 4.135,17.413 4.135,32.67 C4.135,33.483 4.001,36.481 4,36.511 L4.008,36.512 C3.997,36.743 4.06,36.977 4.21,37.17 C4.688,37.784 5.285,38.763 5.918,39.799 C6.293,40.412 6.685,41.053 7.087,41.679 C12.267,49.736 13.236,52.846 14.39,57.253 C14.505,57.693 14.902,58 15.357,58 L21.469,58 C21.628,58 21.777,57.953 21.916,57.882 C25.158,59.174 28.585,59.828 32.123,59.828 C34.451,59.828 36.764,59.538 38.998,58.966 L38.502,57.028 C36.43,57.559 34.283,57.828 32.123,57.828 C28.753,57.828 25.495,57.184 22.418,55.921 C22.262,49.934 24.675,41.312 25.791,38.53 C25.882,38.304 25.976,38.079 26.07,37.855 C26.461,39.248 26.941,40.616 27.508,41.945 C28.294,43.787 29.482,46.571 31.921,49.342 C34.565,52.349 37.353,53.834 39.018,54.723 C40.645,55.591 44.454,57.624 49.737,57.997 C50.297,58.037 50.858,58.055 51.415,58.055 C55.355,58.055 59.03,57.14 59.749,56.395 C59.954,56.181 60.091,55.816 60.059,55.521 C59.944,54.468 58.938,54.528 57.871,54.587" id="Fill-3"></path>
        </g>
    </g><g transform="translate(12.39795428360603, 64), scale(0.75)" id="svgGroup" stroke-linecap="round" fill-rule="evenodd" font-size="9pt" stroke="#000" stroke-width="0.25mm" fill="#000" style="stroke:#000;stroke-width:0.25mm;fill:#000"><path d="M 8.468 1.995 L 9.237 1.995 L 9.259 2.522 Q 9.782 1.907 10.67 1.907 A 2.009 2.009 0 0 1 11.181 1.968 A 1.244 1.244 0 0 1 12.028 2.672 A 1.801 1.801 0 0 1 12.645 2.118 A 1.65 1.65 0 0 1 13.174 1.937 A 2.209 2.209 0 0 1 13.544 1.907 A 2.119 2.119 0 0 1 14.188 1.997 Q 15.115 2.292 15.135 3.564 L 15.135 6.75 L 14.322 6.75 L 14.322 3.612 A 1.781 1.781 0 0 0 14.301 3.332 Q 14.278 3.185 14.227 3.067 A 0.758 0.758 0 0 0 14.089 2.85 A 0.68 0.68 0 0 0 13.836 2.682 Q 13.625 2.597 13.308 2.597 A 1.245 1.245 0 0 0 12.942 2.648 A 1.008 1.008 0 0 0 12.555 2.867 A 1.042 1.042 0 0 0 12.241 3.404 A 1.41 1.41 0 0 0 12.208 3.595 L 12.208 6.75 L 11.391 6.75 L 11.391 3.634 A 1.532 1.532 0 0 0 11.342 3.23 Q 11.215 2.768 10.758 2.643 A 1.457 1.457 0 0 0 10.375 2.597 Q 9.602 2.597 9.301 3.234 A 1.459 1.459 0 0 0 9.281 3.278 L 9.281 6.75 L 8.468 6.75 L 8.468 1.995 Z M 4.917 0.352 L 4.917 6.75 L 4.069 6.75 L 0.848 1.819 L 0.848 6.75 L 0 6.75 L 0 0.352 L 0.848 0.352 L 4.078 5.304 L 4.078 0.352 L 4.917 0.352 Z M 34.963 2.202 L 34.115 2.202 A 1.466 1.466 0 0 0 34.065 1.809 A 1.066 1.066 0 0 0 33.746 1.29 A 1.211 1.211 0 0 0 33.276 1.033 Q 33.025 0.958 32.704 0.958 A 2.286 2.286 0 0 0 32.324 0.988 Q 32.122 1.022 31.96 1.095 A 1.101 1.101 0 0 0 31.731 1.233 A 0.892 0.892 0 0 0 31.386 1.887 A 1.267 1.267 0 0 0 31.381 1.995 A 0.806 0.806 0 0 0 31.649 2.6 A 1.134 1.134 0 0 0 31.713 2.656 A 1.562 1.562 0 0 0 31.951 2.813 Q 32.282 2.993 32.843 3.151 A 8.228 8.228 0 0 1 33.307 3.295 Q 33.542 3.377 33.737 3.464 A 3.297 3.297 0 0 1 34.091 3.645 A 2.342 2.342 0 0 1 34.429 3.889 Q 34.619 4.056 34.741 4.248 A 1.45 1.45 0 0 1 34.759 4.276 A 1.498 1.498 0 0 1 34.955 4.832 A 1.948 1.948 0 0 1 34.976 5.124 A 1.606 1.606 0 0 1 34.854 5.76 Q 34.708 6.101 34.39 6.354 A 1.886 1.886 0 0 1 34.37 6.37 Q 33.763 6.838 32.748 6.838 A 3.023 3.023 0 0 1 31.607 6.623 A 2.917 2.917 0 0 1 31.518 6.585 A 2.383 2.383 0 0 1 31.039 6.307 A 1.874 1.874 0 0 1 30.636 5.893 A 1.689 1.689 0 0 1 30.327 4.896 L 31.175 4.896 A 1.261 1.261 0 0 0 31.244 5.323 A 1.074 1.074 0 0 0 31.603 5.812 Q 31.988 6.113 32.604 6.144 A 2.87 2.87 0 0 0 32.748 6.148 A 2.628 2.628 0 0 0 33.135 6.121 Q 33.331 6.092 33.49 6.031 A 1.129 1.129 0 0 0 33.772 5.875 Q 34.128 5.603 34.128 5.133 A 1.074 1.074 0 0 0 34.085 4.822 A 0.816 0.816 0 0 0 33.798 4.406 Q 33.469 4.148 32.603 3.898 Q 31.518 3.586 31.023 3.131 Q 30.529 2.676 30.529 2.008 Q 30.529 1.252 31.133 0.758 A 2.121 2.121 0 0 1 32.024 0.335 A 3.087 3.087 0 0 1 32.704 0.264 A 2.913 2.913 0 0 1 33.364 0.336 A 2.372 2.372 0 0 1 33.88 0.519 A 2.051 2.051 0 0 1 34.411 0.889 A 1.834 1.834 0 0 1 34.679 1.222 A 1.798 1.798 0 0 1 34.963 2.202 Z M 41.823 6.75 L 41.805 6.28 A 1.526 1.526 0 0 1 40.979 6.775 Q 40.729 6.836 40.431 6.838 A 2.996 2.996 0 0 1 40.412 6.838 A 2.086 2.086 0 0 1 39.952 6.79 Q 39.521 6.693 39.254 6.396 A 1.41 1.41 0 0 1 38.971 5.899 Q 38.854 5.556 38.852 5.089 L 38.852 1.995 L 39.665 1.995 L 39.665 5.067 Q 39.665 6.037 40.373 6.137 A 1.229 1.229 0 0 0 40.544 6.148 A 1.927 1.927 0 0 0 40.995 6.099 Q 41.557 5.964 41.783 5.454 L 41.783 1.995 L 42.596 1.995 L 42.596 6.75 L 41.823 6.75 Z M 20.386 4.355 L 20.386 4.425 Q 20.386 5.308 20.058 5.909 A 2.141 2.141 0 0 1 19.885 6.177 A 1.647 1.647 0 0 1 19.299 6.673 Q 18.983 6.828 18.593 6.837 A 2.112 2.112 0 0 1 18.541 6.838 A 2.039 2.039 0 0 1 17.946 6.756 A 1.561 1.561 0 0 1 17.147 6.201 L 17.108 6.75 L 16.361 6.75 L 16.361 0 L 17.174 0 L 17.174 2.518 A 1.605 1.605 0 0 1 18.34 1.915 A 2.285 2.285 0 0 1 18.532 1.907 A 1.835 1.835 0 0 1 19.163 2.011 A 1.579 1.579 0 0 1 19.892 2.562 Q 20.306 3.11 20.373 3.998 A 4.727 4.727 0 0 1 20.386 4.355 Z M 43.633 4.395 L 43.633 4.333 A 3.762 3.762 0 0 1 43.7 3.602 Q 43.788 3.16 43.99 2.812 A 2.148 2.148 0 0 1 44.152 2.573 Q 44.67 1.907 45.51 1.907 A 1.964 1.964 0 0 1 46.108 1.994 A 1.559 1.559 0 0 1 46.833 2.479 L 46.833 0 L 47.646 0 L 47.646 6.75 L 46.898 6.75 L 46.859 6.24 Q 46.371 6.838 45.501 6.838 A 1.6 1.6 0 0 1 44.28 6.31 A 2.078 2.078 0 0 1 44.154 6.161 A 2.405 2.405 0 0 1 43.729 5.255 Q 43.645 4.912 43.635 4.51 A 4.425 4.425 0 0 1 43.633 4.395 Z M 23.388 4.504 L 23.388 4.355 A 3.17 3.17 0 0 1 23.464 3.646 A 2.581 2.581 0 0 1 23.658 3.092 A 2.191 2.191 0 0 1 24.105 2.466 A 2.033 2.033 0 0 1 24.414 2.221 Q 24.899 1.907 25.466 1.907 A 2.254 2.254 0 0 1 26.079 1.986 A 1.639 1.639 0 0 1 26.908 2.518 Q 27.422 3.129 27.422 4.267 L 27.422 4.605 L 24.201 4.605 A 2.111 2.111 0 0 0 24.272 5.114 A 1.516 1.516 0 0 0 24.612 5.741 A 1.282 1.282 0 0 0 25.546 6.173 A 1.652 1.652 0 0 0 25.611 6.174 A 1.763 1.763 0 0 0 25.939 6.145 Q 26.163 6.103 26.341 5.999 A 1.827 1.827 0 0 0 26.85 5.551 A 2.068 2.068 0 0 0 26.864 5.533 L 27.36 5.919 A 1.926 1.926 0 0 1 25.961 6.811 A 2.749 2.749 0 0 1 25.567 6.838 A 2.394 2.394 0 0 1 24.816 6.725 A 1.974 1.974 0 0 1 23.994 6.203 Q 23.388 5.568 23.388 4.504 Z M 36.22 0.844 L 37.033 0.844 L 37.033 1.995 L 37.92 1.995 L 37.92 2.624 L 37.033 2.624 L 37.033 5.572 Q 37.033 5.858 37.151 6.001 Q 37.27 6.144 37.556 6.144 A 1.046 1.046 0 0 0 37.653 6.138 Q 37.756 6.129 37.896 6.101 A 4.024 4.024 0 0 0 37.942 6.091 L 37.942 6.75 A 2.463 2.463 0 0 1 37.51 6.829 A 2.157 2.157 0 0 1 37.318 6.838 Q 36.871 6.838 36.605 6.616 A 0.856 0.856 0 0 1 36.497 6.508 Q 36.269 6.238 36.229 5.78 A 2.351 2.351 0 0 1 36.22 5.572 L 36.22 2.624 L 35.354 2.624 L 35.354 1.995 L 36.22 1.995 L 36.22 0.844 Z M 22.293 0 L 22.293 6.75 L 21.48 6.75 L 21.48 0 L 22.293 0 Z M 50.875 4.386 L 50.875 4.329 A 3.057 3.057 0 0 1 50.962 3.587 A 2.573 2.573 0 0 1 51.15 3.072 A 2.16 2.16 0 0 1 51.565 2.486 A 1.957 1.957 0 0 1 51.915 2.21 A 2.036 2.036 0 0 1 52.859 1.913 A 2.491 2.491 0 0 1 53.033 1.907 A 2.277 2.277 0 0 1 53.787 2.027 A 1.937 1.937 0 0 1 54.604 2.58 A 2.29 2.29 0 0 1 55.123 3.608 A 3.373 3.373 0 0 1 55.204 4.368 L 55.204 4.425 A 3.114 3.114 0 0 1 55.125 5.142 A 2.577 2.577 0 0 1 54.938 5.671 A 2.056 2.056 0 0 1 54.411 6.361 A 2.001 2.001 0 0 1 54.178 6.53 A 2.045 2.045 0 0 1 53.258 6.829 A 2.529 2.529 0 0 1 53.042 6.838 A 2.262 2.262 0 0 1 52.292 6.718 A 1.938 1.938 0 0 1 51.475 6.166 A 2.297 2.297 0 0 1 50.95 5.111 A 3.357 3.357 0 0 1 50.875 4.386 Z M 7.172 1.995 L 7.172 6.75 L 6.359 6.75 L 6.359 1.995 L 7.172 1.995 Z M 49.79 1.995 L 49.79 6.75 L 48.977 6.75 L 48.977 1.995 L 49.79 1.995 Z M 51.693 4.425 A 2.772 2.772 0 0 0 51.74 4.954 Q 51.801 5.264 51.938 5.51 A 1.545 1.545 0 0 0 52.06 5.695 Q 52.427 6.174 53.042 6.174 A 1.269 1.269 0 0 0 53.531 6.083 Q 53.811 5.967 54.013 5.706 A 1.471 1.471 0 0 0 54.026 5.689 A 1.648 1.648 0 0 0 54.281 5.171 Q 54.35 4.945 54.376 4.672 A 3.655 3.655 0 0 0 54.391 4.329 A 2.687 2.687 0 0 0 54.34 3.789 Q 54.272 3.459 54.115 3.2 A 1.586 1.586 0 0 0 54.02 3.061 A 1.231 1.231 0 0 0 53.605 2.705 Q 53.352 2.575 53.033 2.575 Q 52.443 2.575 52.077 3.035 A 1.515 1.515 0 0 0 52.062 3.054 A 1.589 1.589 0 0 0 51.81 3.552 Q 51.74 3.772 51.712 4.039 A 3.676 3.676 0 0 0 51.693 4.425 Z M 46.833 5.454 L 46.833 3.27 A 1.375 1.375 0 0 0 46.521 2.874 Q 46.197 2.597 45.712 2.597 A 1.238 1.238 0 0 0 45.285 2.668 A 1.068 1.068 0 0 0 44.78 3.059 A 1.51 1.51 0 0 0 44.571 3.484 Q 44.505 3.689 44.474 3.939 A 3.955 3.955 0 0 0 44.446 4.425 A 3.162 3.162 0 0 0 44.482 4.918 Q 44.523 5.178 44.612 5.389 A 1.474 1.474 0 0 0 44.78 5.691 A 1.06 1.06 0 0 0 45.543 6.139 A 1.391 1.391 0 0 0 45.703 6.148 Q 46.477 6.148 46.833 5.454 Z M 17.174 3.344 L 17.174 5.401 A 1.528 1.528 0 0 0 17.46 5.807 Q 17.782 6.127 18.272 6.147 A 1.621 1.621 0 0 0 18.338 6.148 A 1.206 1.206 0 0 0 18.755 6.079 A 1.04 1.04 0 0 0 19.248 5.695 Q 19.573 5.243 19.573 4.333 Q 19.573 3.502 19.252 3.05 A 1.03 1.03 0 0 0 18.502 2.607 A 1.449 1.449 0 0 0 18.33 2.597 A 1.34 1.34 0 0 0 17.82 2.69 Q 17.402 2.86 17.174 3.344 Z M 24.227 3.938 L 26.609 3.938 L 26.609 3.876 Q 26.583 3.417 26.412 3.111 A 1.13 1.13 0 0 0 26.275 2.916 A 0.983 0.983 0 0 0 25.62 2.584 A 1.39 1.39 0 0 0 25.466 2.575 A 1.106 1.106 0 0 0 24.944 2.698 A 1.14 1.14 0 0 0 24.64 2.933 A 1.417 1.417 0 0 0 24.363 3.379 Q 24.29 3.563 24.25 3.785 A 2.741 2.741 0 0 0 24.227 3.938 Z M 6.293 0.734 Q 6.293 0.536 6.414 0.4 Q 6.526 0.274 6.738 0.264 A 0.783 0.783 0 0 1 6.772 0.264 Q 7.009 0.264 7.132 0.4 A 0.474 0.474 0 0 1 7.255 0.703 A 0.614 0.614 0 0 1 7.255 0.734 A 0.523 0.523 0 0 1 7.23 0.9 A 0.442 0.442 0 0 1 7.132 1.063 Q 7.02 1.184 6.812 1.194 A 0.803 0.803 0 0 1 6.772 1.195 Q 6.6 1.195 6.489 1.126 A 0.362 0.362 0 0 1 6.414 1.063 A 0.456 0.456 0 0 1 6.295 0.788 A 0.605 0.605 0 0 1 6.293 0.734 Z M 48.911 0.734 Q 48.911 0.536 49.032 0.4 Q 49.144 0.274 49.356 0.264 A 0.783 0.783 0 0 1 49.39 0.264 Q 49.627 0.264 49.75 0.4 A 0.474 0.474 0 0 1 49.873 0.703 A 0.614 0.614 0 0 1 49.874 0.734 A 0.523 0.523 0 0 1 49.848 0.9 A 0.442 0.442 0 0 1 49.75 1.063 Q 49.638 1.184 49.43 1.194 A 0.803 0.803 0 0 1 49.39 1.195 Q 49.218 1.195 49.107 1.126 A 0.362 0.362 0 0 1 49.032 1.063 A 0.456 0.456 0 0 1 48.914 0.788 A 0.605 0.605 0 0 1 48.911 0.734 Z" vector-effect="non-scaling-stroke"/></g>
</svg>